<?xml version="1.0" encoding="utf-8" standalone="no"?>
<!DOCTYPE svg PUBLIC "-//W3C//DTD SVG 1.1//EN"
  "http://www.w3.org/Graphics/SVG/1.1/DTD/svg11.dtd">
<svg xmlns:xlink="http://www.w3.org/1999/xlink" width="279.707031pt" height="279.968281pt" viewBox="0 0 279.707031 279.968281" xmlns="http://www.w3.org/2000/svg" version="1.1">
 <metadata>
  <rdf:RDF xmlns:dc="http://purl.org/dc/elements/1.1/" xmlns:cc="http://creativecommons.org/ns#" xmlns:rdf="http://www.w3.org/1999/02/22-rdf-syntax-ns#">
   <cc:Work>
    <dc:type rdf:resource="http://purl.org/dc/dcmitype/StillImage"/>
    <dc:date>2024-01-27T13:27:48.540019</dc:date>
    <dc:format>image/svg+xml</dc:format>
    <dc:creator>
     <cc:Agent>
      <dc:title>Matplotlib v3.8.2, https://matplotlib.org/</dc:title>
     </cc:Agent>
    </dc:creator>
   </cc:Work>
  </rdf:RDF>
 </metadata>
 <defs>
  <style type="text/css">*{stroke-linejoin: round; stroke-linecap: butt}</style>
 </defs>
 <g id="figure_1">
  <g id="patch_1">
   <path d="M 0 279.968281 
L 279.707031 279.968281 
L 279.707031 0 
L 0 0 
z
" style="fill: #ffffff"/>
  </g>
  <g id="axes_1">
   <g id="patch_2">
    <path d="M 39.971875 242.305781 
L 269.496875 242.305781 
L 269.496875 11.025781 
L 39.971875 11.025781 
z
" style="fill: #ffffff"/>
   </g>
   <g id="patch_3">
    <path d="M 152.586962 155.748932 
L 161.622474 156.533706 
L 160.47825 159.032425 
L 183.43075 168.626262 
L 183.41925 168.651375 
L 160.46675 159.057538 
L 159.322526 161.556257 
z
" clip-path="url(#pba6424021b)" style="fill: #fd46fc; stroke: #fd46fc; stroke-width: 2; stroke-linejoin: miter"/>
   </g>
   <g id="matplotlib.axis_1">
    <g id="xtick_1">
     <g id="line2d_1">
      <path d="M 39.971875 242.305781 
L 39.971875 11.025781 
" clip-path="url(#pba6424021b)" style="fill: none; stroke-dasharray: 2.22,0.96; stroke-dashoffset: 0; stroke: #6c6066; stroke-opacity: 0.4; stroke-width: 0.6"/>
     </g>
     <g id="line2d_2">
      <defs>
       <path id="m673d0ca563" d="M 0 0 
L 0 3.5 
" style="stroke: #000000; stroke-width: 0.8"/>
      </defs>
      <g>
       <use xlink:href="#m673d0ca563" x="39.971875" y="242.305781" style="stroke: #000000; stroke-width: 0.8"/>
      </g>
     </g>
     <g id="text_1">
      <!-- −4 -->
      <g transform="translate(33.951563 256.957344) scale(0.1 -0.1)">
       <defs>
        <path id="DejaVuSansMono-2212" d="M 275 2272 
L 3578 2272 
L 3578 1741 
L 275 1741 
L 275 2272 
z
" transform="scale(0.015625)"/>
        <path id="DejaVuSansMono-34" d="M 2297 4091 
L 825 1625 
L 2297 1625 
L 2297 4091 
z
M 2194 4666 
L 2925 4666 
L 2925 1625 
L 3547 1625 
L 3547 1113 
L 2925 1113 
L 2925 0 
L 2297 0 
L 2297 1113 
L 319 1113 
L 319 1709 
L 2194 4666 
z
" transform="scale(0.015625)"/>
       </defs>
       <use xlink:href="#DejaVuSansMono-2212"/>
       <use xlink:href="#DejaVuSansMono-34" x="60.205078"/>
      </g>
     </g>
    </g>
    <g id="xtick_2">
     <g id="line2d_3">
      <path d="M 97.353125 242.305781 
L 97.353125 11.025781 
" clip-path="url(#pba6424021b)" style="fill: none; stroke-dasharray: 2.22,0.96; stroke-dashoffset: 0; stroke: #6c6066; stroke-opacity: 0.4; stroke-width: 0.6"/>
     </g>
     <g id="line2d_4">
      <g>
       <use xlink:href="#m673d0ca563" x="97.353125" y="242.305781" style="stroke: #000000; stroke-width: 0.8"/>
      </g>
     </g>
     <g id="text_2">
      <!-- −2 -->
      <g transform="translate(91.332813 256.957344) scale(0.1 -0.1)">
       <defs>
        <path id="DejaVuSansMono-32" d="M 1166 531 
L 3309 531 
L 3309 0 
L 475 0 
L 475 531 
Q 1059 1147 1496 1619 
Q 1934 2091 2100 2284 
Q 2413 2666 2522 2902 
Q 2631 3138 2631 3384 
Q 2631 3775 2401 3997 
Q 2172 4219 1772 4219 
Q 1488 4219 1175 4116 
Q 863 4013 513 3803 
L 513 4441 
Q 834 4594 1145 4672 
Q 1456 4750 1759 4750 
Q 2444 4750 2861 4386 
Q 3278 4022 3278 3431 
Q 3278 3131 3139 2831 
Q 3000 2531 2688 2169 
Q 2513 1966 2180 1606 
Q 1847 1247 1166 531 
z
" transform="scale(0.015625)"/>
       </defs>
       <use xlink:href="#DejaVuSansMono-2212"/>
       <use xlink:href="#DejaVuSansMono-32" x="60.205078"/>
      </g>
     </g>
    </g>
    <g id="xtick_3">
     <g id="line2d_5">
      <path d="M 154.734375 242.305781 
L 154.734375 11.025781 
" clip-path="url(#pba6424021b)" style="fill: none; stroke-dasharray: 2.22,0.96; stroke-dashoffset: 0; stroke: #6c6066; stroke-opacity: 0.4; stroke-width: 0.6"/>
     </g>
     <g id="line2d_6">
      <g>
       <use xlink:href="#m673d0ca563" x="154.734375" y="242.305781" style="stroke: #000000; stroke-width: 0.8"/>
      </g>
     </g>
     <g id="text_3">
      <!-- 0 -->
      <g transform="translate(151.724219 256.957344) scale(0.1 -0.1)">
       <defs>
        <path id="DejaVuSansMono-30" d="M 1509 2344 
Q 1509 2516 1629 2641 
Q 1750 2766 1919 2766 
Q 2094 2766 2219 2641 
Q 2344 2516 2344 2344 
Q 2344 2169 2220 2047 
Q 2097 1925 1919 1925 
Q 1744 1925 1626 2044 
Q 1509 2163 1509 2344 
z
M 1925 4250 
Q 1484 4250 1267 3775 
Q 1050 3300 1050 2328 
Q 1050 1359 1267 884 
Q 1484 409 1925 409 
Q 2369 409 2586 884 
Q 2803 1359 2803 2328 
Q 2803 3300 2586 3775 
Q 2369 4250 1925 4250 
z
M 1925 4750 
Q 2672 4750 3055 4137 
Q 3438 3525 3438 2328 
Q 3438 1134 3055 521 
Q 2672 -91 1925 -91 
Q 1178 -91 797 521 
Q 416 1134 416 2328 
Q 416 3525 797 4137 
Q 1178 4750 1925 4750 
z
" transform="scale(0.015625)"/>
       </defs>
       <use xlink:href="#DejaVuSansMono-30"/>
      </g>
     </g>
    </g>
    <g id="xtick_4">
     <g id="line2d_7">
      <path d="M 212.115625 242.305781 
L 212.115625 11.025781 
" clip-path="url(#pba6424021b)" style="fill: none; stroke-dasharray: 2.22,0.96; stroke-dashoffset: 0; stroke: #6c6066; stroke-opacity: 0.4; stroke-width: 0.6"/>
     </g>
     <g id="line2d_8">
      <g>
       <use xlink:href="#m673d0ca563" x="212.115625" y="242.305781" style="stroke: #000000; stroke-width: 0.8"/>
      </g>
     </g>
     <g id="text_4">
      <!-- 2 -->
      <g transform="translate(209.105469 256.957344) scale(0.1 -0.1)">
       <use xlink:href="#DejaVuSansMono-32"/>
      </g>
     </g>
    </g>
    <g id="xtick_5">
     <g id="line2d_9">
      <path d="M 269.496875 242.305781 
L 269.496875 11.025781 
" clip-path="url(#pba6424021b)" style="fill: none; stroke-dasharray: 2.22,0.96; stroke-dashoffset: 0; stroke: #6c6066; stroke-opacity: 0.4; stroke-width: 0.6"/>
     </g>
     <g id="line2d_10">
      <g>
       <use xlink:href="#m673d0ca563" x="269.496875" y="242.305781" style="stroke: #000000; stroke-width: 0.8"/>
      </g>
     </g>
     <g id="text_5">
      <!-- 4 -->
      <g transform="translate(266.486719 256.957344) scale(0.1 -0.1)">
       <use xlink:href="#DejaVuSansMono-34"/>
      </g>
     </g>
    </g>
    <g id="text_6">
     <!-- $x$ -->
     <g transform="translate(151.734375 270.688594) scale(0.1 -0.1)">
      <defs>
       <path id="DejaVuSans-Oblique-78" d="M 3841 3500 
L 2234 1784 
L 3219 0 
L 2559 0 
L 1819 1388 
L 531 0 
L -166 0 
L 1556 1844 
L 641 3500 
L 1300 3500 
L 1972 2234 
L 3144 3500 
L 3841 3500 
z
" transform="scale(0.015625)"/>
      </defs>
      <use xlink:href="#DejaVuSans-Oblique-78" transform="translate(0 0.3125)"/>
     </g>
    </g>
   </g>
   <g id="matplotlib.axis_2">
    <g id="ytick_1">
     <g id="line2d_11">
      <path d="M 39.971875 230.313485 
L 269.496875 230.313485 
" clip-path="url(#pba6424021b)" style="fill: none; stroke-dasharray: 2.22,0.96; stroke-dashoffset: 0; stroke: #6c6066; stroke-opacity: 0.4; stroke-width: 0.6"/>
     </g>
     <g id="line2d_12">
      <defs>
       <path id="mc3514ba4c8" d="M 0 0 
L -3.5 0 
" style="stroke: #000000; stroke-width: 0.8"/>
      </defs>
      <g>
       <use xlink:href="#mc3514ba4c8" x="39.971875" y="230.313485" style="stroke: #000000; stroke-width: 0.8"/>
      </g>
     </g>
     <g id="text_7">
      <!-- −4 -->
      <g transform="translate(20.93125 234.139266) scale(0.1 -0.1)">
       <use xlink:href="#DejaVuSansMono-2212"/>
       <use xlink:href="#DejaVuSansMono-34" x="60.205078"/>
      </g>
     </g>
    </g>
    <g id="ytick_2">
     <g id="line2d_13">
      <path d="M 39.971875 202.902522 
L 269.496875 202.902522 
" clip-path="url(#pba6424021b)" style="fill: none; stroke-dasharray: 2.22,0.96; stroke-dashoffset: 0; stroke: #6c6066; stroke-opacity: 0.4; stroke-width: 0.6"/>
     </g>
     <g id="line2d_14">
      <g>
       <use xlink:href="#mc3514ba4c8" x="39.971875" y="202.902522" style="stroke: #000000; stroke-width: 0.8"/>
      </g>
     </g>
     <g id="text_8">
      <!-- −3 -->
      <g transform="translate(20.93125 206.728303) scale(0.1 -0.1)">
       <defs>
        <path id="DejaVuSansMono-33" d="M 2425 2497 
Q 2884 2375 3128 2064 
Q 3372 1753 3372 1288 
Q 3372 644 2939 276 
Q 2506 -91 1741 -91 
Q 1419 -91 1084 -31 
Q 750 28 428 141 
L 428 769 
Q 747 603 1056 522 
Q 1366 441 1672 441 
Q 2191 441 2469 675 
Q 2747 909 2747 1350 
Q 2747 1756 2469 1995 
Q 2191 2234 1716 2234 
L 1234 2234 
L 1234 2753 
L 1716 2753 
Q 2150 2753 2394 2943 
Q 2638 3134 2638 3475 
Q 2638 3834 2411 4026 
Q 2184 4219 1766 4219 
Q 1488 4219 1191 4156 
Q 894 4094 569 3969 
L 569 4550 
Q 947 4650 1242 4700 
Q 1538 4750 1766 4750 
Q 2447 4750 2855 4408 
Q 3263 4066 3263 3500 
Q 3263 3116 3048 2859 
Q 2834 2603 2425 2497 
z
" transform="scale(0.015625)"/>
       </defs>
       <use xlink:href="#DejaVuSansMono-2212"/>
       <use xlink:href="#DejaVuSansMono-33" x="60.205078"/>
      </g>
     </g>
    </g>
    <g id="ytick_3">
     <g id="line2d_15">
      <path d="M 39.971875 175.491559 
L 269.496875 175.491559 
" clip-path="url(#pba6424021b)" style="fill: none; stroke-dasharray: 2.22,0.96; stroke-dashoffset: 0; stroke: #6c6066; stroke-opacity: 0.4; stroke-width: 0.6"/>
     </g>
     <g id="line2d_16">
      <g>
       <use xlink:href="#mc3514ba4c8" x="39.971875" y="175.491559" style="stroke: #000000; stroke-width: 0.8"/>
      </g>
     </g>
     <g id="text_9">
      <!-- −2 -->
      <g transform="translate(20.93125 179.31734) scale(0.1 -0.1)">
       <use xlink:href="#DejaVuSansMono-2212"/>
       <use xlink:href="#DejaVuSansMono-32" x="60.205078"/>
      </g>
     </g>
    </g>
    <g id="ytick_4">
     <g id="line2d_17">
      <path d="M 39.971875 148.080596 
L 269.496875 148.080596 
" clip-path="url(#pba6424021b)" style="fill: none; stroke-dasharray: 2.22,0.96; stroke-dashoffset: 0; stroke: #6c6066; stroke-opacity: 0.4; stroke-width: 0.6"/>
     </g>
     <g id="line2d_18">
      <g>
       <use xlink:href="#mc3514ba4c8" x="39.971875" y="148.080596" style="stroke: #000000; stroke-width: 0.8"/>
      </g>
     </g>
     <g id="text_10">
      <!-- −1 -->
      <g transform="translate(20.93125 151.906377) scale(0.1 -0.1)">
       <defs>
        <path id="DejaVuSansMono-31" d="M 844 531 
L 1825 531 
L 1825 4097 
L 769 3859 
L 769 4434 
L 1819 4666 
L 2450 4666 
L 2450 531 
L 3419 531 
L 3419 0 
L 844 0 
L 844 531 
z
" transform="scale(0.015625)"/>
       </defs>
       <use xlink:href="#DejaVuSansMono-2212"/>
       <use xlink:href="#DejaVuSansMono-31" x="60.205078"/>
      </g>
     </g>
    </g>
    <g id="ytick_5">
     <g id="line2d_19">
      <path d="M 39.971875 120.669633 
L 269.496875 120.669633 
" clip-path="url(#pba6424021b)" style="fill: none; stroke-dasharray: 2.22,0.96; stroke-dashoffset: 0; stroke: #6c6066; stroke-opacity: 0.4; stroke-width: 0.6"/>
     </g>
     <g id="line2d_20">
      <g>
       <use xlink:href="#mc3514ba4c8" x="39.971875" y="120.669633" style="stroke: #000000; stroke-width: 0.8"/>
      </g>
     </g>
     <g id="text_11">
      <!-- 0 -->
      <g transform="translate(26.951562 124.495414) scale(0.1 -0.1)">
       <use xlink:href="#DejaVuSansMono-30"/>
      </g>
     </g>
    </g>
    <g id="ytick_6">
     <g id="line2d_21">
      <path d="M 39.971875 93.25867 
L 269.496875 93.25867 
" clip-path="url(#pba6424021b)" style="fill: none; stroke-dasharray: 2.22,0.96; stroke-dashoffset: 0; stroke: #6c6066; stroke-opacity: 0.4; stroke-width: 0.6"/>
     </g>
     <g id="line2d_22">
      <g>
       <use xlink:href="#mc3514ba4c8" x="39.971875" y="93.25867" style="stroke: #000000; stroke-width: 0.8"/>
      </g>
     </g>
     <g id="text_12">
      <!-- 1 -->
      <g transform="translate(26.951562 97.084451) scale(0.1 -0.1)">
       <use xlink:href="#DejaVuSansMono-31"/>
      </g>
     </g>
    </g>
    <g id="ytick_7">
     <g id="line2d_23">
      <path d="M 39.971875 65.847707 
L 269.496875 65.847707 
" clip-path="url(#pba6424021b)" style="fill: none; stroke-dasharray: 2.22,0.96; stroke-dashoffset: 0; stroke: #6c6066; stroke-opacity: 0.4; stroke-width: 0.6"/>
     </g>
     <g id="line2d_24">
      <g>
       <use xlink:href="#mc3514ba4c8" x="39.971875" y="65.847707" style="stroke: #000000; stroke-width: 0.8"/>
      </g>
     </g>
     <g id="text_13">
      <!-- 2 -->
      <g transform="translate(26.951562 69.673488) scale(0.1 -0.1)">
       <use xlink:href="#DejaVuSansMono-32"/>
      </g>
     </g>
    </g>
    <g id="ytick_8">
     <g id="line2d_25">
      <path d="M 39.971875 38.436744 
L 269.496875 38.436744 
" clip-path="url(#pba6424021b)" style="fill: none; stroke-dasharray: 2.22,0.96; stroke-dashoffset: 0; stroke: #6c6066; stroke-opacity: 0.4; stroke-width: 0.6"/>
     </g>
     <g id="line2d_26">
      <g>
       <use xlink:href="#mc3514ba4c8" x="39.971875" y="38.436744" style="stroke: #000000; stroke-width: 0.8"/>
      </g>
     </g>
     <g id="text_14">
      <!-- 3 -->
      <g transform="translate(26.951562 42.262525) scale(0.1 -0.1)">
       <use xlink:href="#DejaVuSansMono-33"/>
      </g>
     </g>
    </g>
    <g id="ytick_9">
     <g id="line2d_27">
      <path d="M 39.971875 11.025781 
L 269.496875 11.025781 
" clip-path="url(#pba6424021b)" style="fill: none; stroke-dasharray: 2.22,0.96; stroke-dashoffset: 0; stroke: #6c6066; stroke-opacity: 0.4; stroke-width: 0.6"/>
     </g>
     <g id="line2d_28">
      <g>
       <use xlink:href="#mc3514ba4c8" x="39.971875" y="11.025781" style="stroke: #000000; stroke-width: 0.8"/>
      </g>
     </g>
     <g id="text_15">
      <!-- 4 -->
      <g transform="translate(26.951562 14.851562) scale(0.1 -0.1)">
       <use xlink:href="#DejaVuSansMono-34"/>
      </g>
     </g>
    </g>
    <g id="text_16">
     <!-- $y$ -->
     <g transform="translate(14.83125 129.665781) rotate(-90) scale(0.1 -0.1)">
      <defs>
       <path id="DejaVuSans-Oblique-79" d="M 1588 -325 
Q 1188 -997 936 -1164 
Q 684 -1331 294 -1331 
L -159 -1331 
L -63 -850 
L 269 -850 
Q 509 -850 678 -719 
Q 847 -588 1056 -206 
L 1234 128 
L 459 3500 
L 1069 3500 
L 1650 819 
L 3256 3500 
L 3859 3500 
L 1588 -325 
z
" transform="scale(0.015625)"/>
      </defs>
      <use xlink:href="#DejaVuSans-Oblique-79" transform="translate(0 0.3125)"/>
     </g>
    </g>
   </g>
   <g id="QuadContourSet_1">
    <path clip-path="url(#pba6424021b)" style="fill: none; stroke: #486afb; stroke-width: 2"/>
    <path d="M 39.971875 226.815732 
L 40.887136 230.313485 
M 268.581614 230.313485 
L 269.496875 226.815732 
M 40.887136 11.025781 
L 39.971875 14.523534 
M 269.496875 14.523534 
L 268.581614 11.025781 
" clip-path="url(#pba6424021b)" style="fill: none; stroke: #486afb; stroke-width: 2"/>
    <path d="M 261.105042 230.313485 
L 262.327003 225.838226 
L 263.498049 221.362966 
L 264.61818 216.887707 
L 264.812691 216.07357 
L 265.65095 212.412448 
L 266.626821 207.937189 
L 267.553899 203.461929 
L 268.432184 198.98667 
L 269.261675 194.511411 
L 269.496875 193.163152 
M 39.971875 193.163152 
L 40.207075 194.511411 
L 41.036566 198.98667 
L 41.914851 203.461929 
L 42.841929 207.937189 
L 43.8178 212.412448 
L 44.656059 216.07357 
L 44.85057 216.887707 
L 45.970701 221.362966 
L 47.141747 225.838226 
L 48.363708 230.313485 
M 269.496875 48.176115 
L 269.261675 46.827855 
L 268.432184 42.352596 
L 267.553899 37.877337 
L 266.626821 33.402078 
L 265.65095 28.926818 
L 264.812691 25.265697 
L 264.61818 24.451559 
L 263.498049 19.9763 
L 262.327003 15.501041 
L 261.105042 11.025781 
M 48.363708 11.025781 
L 47.141747 15.501041 
L 45.970701 19.9763 
L 44.85057 24.451559 
L 44.656059 25.265697 
L 43.8178 28.926818 
L 42.841929 33.402078 
L 41.914851 37.877337 
L 41.036566 42.352596 
L 40.207075 46.827855 
L 39.971875 48.176115 
" clip-path="url(#pba6424021b)" style="fill: none; stroke: #486afb; stroke-width: 2"/>
    <path d="M 253.053003 230.313485 
L 254.391341 225.838226 
L 255.444324 222.164074 
L 255.663479 221.362966 
L 256.834525 216.887707 
L 257.952342 212.412448 
L 259.016929 207.937189 
L 260.028287 203.461929 
L 260.128508 202.993814 
L 260.949115 198.98667 
L 261.814671 194.511411 
L 262.629311 190.036152 
L 263.393037 185.560892 
L 264.105847 181.085633 
L 264.767743 176.610374 
L 264.812691 176.281139 
L 265.355139 172.135115 
L 265.891868 167.659855 
L 266.379804 163.184596 
L 266.818946 158.709337 
L 267.209295 154.234078 
L 267.55085 149.758818 
L 267.843611 145.283559 
L 268.087579 140.8083 
L 268.282753 136.333041 
L 268.429134 131.857781 
L 268.526721 127.382522 
L 268.575515 122.907263 
L 268.575515 118.432003 
L 268.526721 113.956744 
L 268.429134 109.481485 
L 268.282753 105.006226 
L 268.087579 100.530966 
L 267.843611 96.055707 
L 267.55085 91.580448 
L 267.209295 87.105189 
L 266.818946 82.629929 
L 266.379804 78.15467 
L 265.891868 73.679411 
L 265.355139 69.204152 
L 264.812691 65.058127 
L 264.767743 64.728892 
L 264.105847 60.253633 
L 263.393037 55.778374 
L 262.629311 51.303115 
L 261.814671 46.827855 
L 260.949115 42.352596 
L 260.128508 38.345452 
L 260.028287 37.877337 
L 259.016929 33.402078 
L 257.952342 28.926818 
L 256.834525 24.451559 
L 255.663479 19.9763 
L 255.444324 19.175192 
L 254.391341 15.501041 
L 253.053003 11.025781 
M 56.415747 11.025781 
L 55.077409 15.501041 
L 54.024426 19.175192 
L 53.805271 19.9763 
L 52.634225 24.451559 
L 51.516408 28.926818 
L 50.451821 33.402078 
L 49.440463 37.877337 
L 49.340242 38.345452 
L 48.519635 42.352596 
L 47.654079 46.827855 
L 46.839439 51.303115 
L 46.075713 55.778374 
L 45.362903 60.253633 
L 44.701007 64.728892 
L 44.656059 65.058127 
L 44.113611 69.204152 
L 43.576882 73.679411 
L 43.088946 78.15467 
L 42.649804 82.629929 
L 42.259455 87.105189 
L 41.9179 91.580448 
L 41.625139 96.055707 
L 41.381171 100.530966 
L 41.185997 105.006226 
L 41.039616 109.481485 
L 40.942029 113.956744 
L 40.893235 118.432003 
L 40.893235 122.907263 
L 40.942029 127.382522 
L 41.039616 131.857781 
L 41.185997 136.333041 
L 41.381171 140.8083 
L 41.625139 145.283559 
L 41.9179 149.758818 
L 42.259455 154.234078 
L 42.649804 158.709337 
L 43.088946 163.184596 
L 43.576882 167.659855 
L 44.113611 172.135115 
L 44.656059 176.281139 
L 44.701007 176.610374 
L 45.362903 181.085633 
L 46.075713 185.560892 
L 46.839439 190.036152 
L 47.654079 194.511411 
L 48.519635 198.98667 
L 49.340242 202.993814 
L 49.440463 203.461929 
L 50.451821 207.937189 
L 51.516408 212.412448 
L 52.634225 216.887707 
L 53.805271 221.362966 
L 54.024426 222.164074 
L 55.077409 225.838226 
L 56.415747 230.313485 
" clip-path="url(#pba6424021b)" style="fill: none; stroke: #486afb; stroke-width: 2"/>
    <path d="M 244.291941 230.313485 
L 245.771157 225.838226 
L 246.075957 224.875984 
L 247.1331 221.362966 
L 248.421251 216.887707 
L 249.650849 212.412448 
L 250.76014 208.173189 
L 250.818954 207.937189 
L 251.878472 203.461929 
L 252.882225 198.98667 
L 253.830215 194.511411 
L 254.72244 190.036152 
L 255.444324 186.17391 
L 255.553694 185.560892 
L 256.298905 181.085633 
L 256.990886 176.610374 
L 257.629639 172.135115 
L 258.215162 167.659855 
L 258.747455 163.184596 
L 259.22652 158.709337 
L 259.652354 154.234078 
L 260.02496 149.758818 
L 260.128508 148.307855 
L 260.334952 145.283559 
L 260.589527 140.8083 
L 260.793188 136.333041 
L 260.945933 131.857781 
L 261.047763 127.382522 
L 261.098678 122.907263 
L 261.098678 118.432003 
L 261.047763 113.956744 
L 260.945933 109.481485 
L 260.793188 105.006226 
L 260.589527 100.530966 
L 260.334952 96.055707 
L 260.128508 93.031411 
L 260.02496 91.580448 
L 259.652354 87.105189 
L 259.22652 82.629929 
L 258.747455 78.15467 
L 258.215162 73.679411 
L 257.629639 69.204152 
L 256.990886 64.728892 
L 256.298905 60.253633 
L 255.553694 55.778374 
L 255.444324 55.165357 
L 254.72244 51.303115 
L 253.830215 46.827855 
L 252.882225 42.352596 
L 251.878472 37.877337 
L 250.818954 33.402078 
L 250.76014 33.166078 
L 249.650849 28.926818 
L 248.421251 24.451559 
L 247.1331 19.9763 
L 246.075957 16.463282 
L 245.771157 15.501041 
L 244.291941 11.025781 
M 65.176809 11.025781 
L 63.697593 15.501041 
L 63.392793 16.463282 
L 62.33565 19.9763 
L 61.047499 24.451559 
L 59.817901 28.926818 
L 58.70861 33.166078 
L 58.649796 33.402078 
L 57.590278 37.877337 
L 56.586525 42.352596 
L 55.638535 46.827855 
L 54.74631 51.303115 
L 54.024426 55.165357 
L 53.915056 55.778374 
L 53.169845 60.253633 
L 52.477864 64.728892 
L 51.839111 69.204152 
L 51.253588 73.679411 
L 50.721295 78.15467 
L 50.24223 82.629929 
L 49.816396 87.105189 
L 49.44379 91.580448 
L 49.340242 93.031411 
L 49.133798 96.055707 
L 48.879223 100.530966 
L 48.675562 105.006226 
L 48.522817 109.481485 
L 48.420987 113.956744 
L 48.370072 118.432003 
L 48.370072 122.907263 
L 48.420987 127.382522 
L 48.522817 131.857781 
L 48.675562 136.333041 
L 48.879223 140.8083 
L 49.133798 145.283559 
L 49.340242 148.307855 
L 49.44379 149.758818 
L 49.816396 154.234078 
L 50.24223 158.709337 
L 50.721295 163.184596 
L 51.253588 167.659855 
L 51.839111 172.135115 
L 52.477864 176.610374 
L 53.169845 181.085633 
L 53.915056 185.560892 
L 54.024426 186.17391 
L 54.74631 190.036152 
L 55.638535 194.511411 
L 56.586525 198.98667 
L 57.590278 203.461929 
L 58.649796 207.937189 
L 58.70861 208.173189 
L 59.817901 212.412448 
L 61.047499 216.887707 
L 62.33565 221.362966 
L 63.392793 224.875984 
L 63.697593 225.838226 
L 65.176809 230.313485 
" clip-path="url(#pba6424021b)" style="fill: none; stroke: #486afb; stroke-width: 2"/>
    <path d="M 234.571614 230.313485 
L 236.224856 225.838226 
L 236.707589 224.47467 
L 237.748011 221.362966 
L 239.179289 216.887707 
L 240.545509 212.412448 
L 241.391773 209.501781 
L 241.822729 207.937189 
L 242.993775 203.461929 
L 244.103187 198.98667 
L 245.150965 194.511411 
L 246.075957 190.31367 
L 246.134051 190.036152 
L 247.012336 185.560892 
L 247.832068 181.085633 
L 248.593248 176.610374 
L 249.295875 172.135115 
L 249.939951 167.659855 
L 250.525474 163.184596 
L 250.76014 161.191707 
L 251.038525 158.709337 
L 251.484638 154.234078 
L 251.874986 149.758818 
L 252.209571 145.283559 
L 252.488391 140.8083 
L 252.711448 136.333041 
L 252.87874 131.857781 
L 252.990268 127.382522 
L 253.046032 122.907263 
L 253.046032 118.432003 
L 252.990268 113.956744 
L 252.87874 109.481485 
L 252.711448 105.006226 
L 252.488391 100.530966 
L 252.209571 96.055707 
L 251.874986 91.580448 
L 251.484638 87.105189 
L 251.038525 82.629929 
L 250.76014 80.147559 
L 250.525474 78.15467 
L 249.939951 73.679411 
L 249.295875 69.204152 
L 248.593248 64.728892 
L 247.832068 60.253633 
L 247.012336 55.778374 
L 246.134051 51.303115 
L 246.075957 51.025596 
L 245.150965 46.827855 
L 244.103187 42.352596 
L 242.993775 37.877337 
L 241.822729 33.402078 
L 241.391773 31.837485 
L 240.545509 28.926818 
L 239.179289 24.451559 
L 237.748011 19.9763 
L 236.707589 16.864596 
L 236.224856 15.501041 
L 234.571614 11.025781 
M 74.897136 11.025781 
L 73.243894 15.501041 
L 72.761161 16.864596 
L 71.720739 19.9763 
L 70.289461 24.451559 
L 68.923241 28.926818 
L 68.076977 31.837485 
L 67.646021 33.402078 
L 66.474975 37.877337 
L 65.365563 42.352596 
L 64.317785 46.827855 
L 63.392793 51.025596 
L 63.334699 51.303115 
L 62.456414 55.778374 
L 61.636682 60.253633 
L 60.875502 64.728892 
L 60.172875 69.204152 
L 59.528799 73.679411 
L 58.943276 78.15467 
L 58.70861 80.147559 
L 58.430225 82.629929 
L 57.984112 87.105189 
L 57.593764 91.580448 
L 57.259179 96.055707 
L 56.980359 100.530966 
L 56.757302 105.006226 
L 56.59001 109.481485 
L 56.478482 113.956744 
L 56.422718 118.432003 
L 56.422718 122.907263 
L 56.478482 127.382522 
L 56.59001 131.857781 
L 56.757302 136.333041 
L 56.980359 140.8083 
L 57.259179 145.283559 
L 57.593764 149.758818 
L 57.984112 154.234078 
L 58.430225 158.709337 
L 58.70861 161.191707 
L 58.943276 163.184596 
L 59.528799 167.659855 
L 60.172875 172.135115 
L 60.875502 176.610374 
L 61.636682 181.085633 
L 62.456414 185.560892 
L 63.334699 190.036152 
L 63.392793 190.31367 
L 64.317785 194.511411 
L 65.365563 198.98667 
L 66.474975 203.461929 
L 67.646021 207.937189 
L 68.076977 209.501781 
L 68.923241 212.412448 
L 70.289461 216.887707 
L 71.720739 221.362966 
L 72.761161 224.47467 
L 73.243894 225.838226 
L 74.897136 230.313485 
" clip-path="url(#pba6424021b)" style="fill: none; stroke: #486afb; stroke-width: 2"/>
    <path d="M 223.508316 230.313485 
L 225.381989 225.838226 
L 227.177593 221.362966 
L 227.339222 220.941822 
L 228.797883 216.887707 
L 230.334881 212.412448 
L 231.798688 207.937189 
L 232.023406 207.214007 
L 233.120723 203.461929 
L 234.360654 198.98667 
L 235.5317 194.511411 
L 236.633861 190.036152 
L 236.707589 189.716823 
L 237.613828 185.560892 
L 238.524642 181.085633 
L 239.370397 176.610374 
L 240.151095 172.135115 
L 240.866734 167.659855 
L 241.391773 164.048181 
L 241.510707 163.184596 
L 242.065413 158.709337 
L 242.558485 154.234078 
L 242.989923 149.758818 
L 243.359727 145.283559 
L 243.667897 140.8083 
L 243.914433 136.333041 
L 244.099335 131.857781 
L 244.222603 127.382522 
L 244.284237 122.907263 
L 244.284237 118.432003 
L 244.222603 113.956744 
L 244.099335 109.481485 
L 243.914433 105.006226 
L 243.667897 100.530966 
L 243.359727 96.055707 
L 242.989923 91.580448 
L 242.558485 87.105189 
L 242.065413 82.629929 
L 241.510707 78.15467 
L 241.391773 77.291085 
L 240.866734 73.679411 
L 240.151095 69.204152 
L 239.370397 64.728892 
L 238.524642 60.253633 
L 237.613828 55.778374 
L 236.707589 51.622443 
L 236.633861 51.303115 
L 235.5317 46.827855 
L 234.360654 42.352596 
L 233.120723 37.877337 
L 232.023406 34.125259 
L 231.798688 33.402078 
L 230.334881 28.926818 
L 228.797883 24.451559 
L 227.339222 20.397445 
L 227.177593 19.9763 
L 225.381989 15.501041 
L 223.508316 11.025781 
M 85.960434 11.025781 
L 84.086761 15.501041 
L 82.291157 19.9763 
L 82.129528 20.397445 
L 80.670867 24.451559 
L 79.133869 28.926818 
L 77.670062 33.402078 
L 77.445344 34.125259 
L 76.348027 37.877337 
L 75.108096 42.352596 
L 73.93705 46.827855 
L 72.834889 51.303115 
L 72.761161 51.622443 
L 71.854922 55.778374 
L 70.944108 60.253633 
L 70.098353 64.728892 
L 69.317655 69.204152 
L 68.602016 73.679411 
L 68.076977 77.291085 
L 67.958043 78.15467 
L 67.403337 82.629929 
L 66.910265 87.105189 
L 66.478827 91.580448 
L 66.109023 96.055707 
L 65.800853 100.530966 
L 65.554317 105.006226 
L 65.369415 109.481485 
L 65.246147 113.956744 
L 65.184513 118.432003 
L 65.184513 122.907263 
L 65.246147 127.382522 
L 65.369415 131.857781 
L 65.554317 136.333041 
L 65.800853 140.8083 
L 66.109023 145.283559 
L 66.478827 149.758818 
L 66.910265 154.234078 
L 67.403337 158.709337 
L 67.958043 163.184596 
L 68.076977 164.048181 
L 68.602016 167.659855 
L 69.317655 172.135115 
L 70.098353 176.610374 
L 70.944108 181.085633 
L 71.854922 185.560892 
L 72.761161 189.716823 
L 72.834889 190.036152 
L 73.93705 194.511411 
L 75.108096 198.98667 
L 76.348027 203.461929 
L 77.445344 207.214007 
L 77.670062 207.937189 
L 79.133869 212.412448 
L 80.670867 216.887707 
L 82.129528 220.941822 
L 82.291157 221.362966 
L 84.086761 225.838226 
L 85.960434 230.313485 
" clip-path="url(#pba6424021b)" style="fill: none; stroke: #486afb; stroke-width: 2"/>
    <path d="M 210.248508 230.313485 
L 212.5906 225.838226 
L 213.286671 224.450348 
L 214.715994 221.362966 
L 216.697764 216.887707 
L 217.970855 213.875898 
L 218.545268 212.412448 
L 220.218191 207.937189 
L 221.807468 203.461929 
L 222.655038 200.942654 
L 223.269227 198.98667 
L 224.596413 194.511411 
L 225.845528 190.036152 
L 227.016574 185.560892 
L 227.339222 184.239792 
L 228.061405 181.085633 
L 229.01288 176.610374 
L 229.891164 172.135115 
L 230.696258 167.659855 
L 231.428162 163.184596 
L 232.023406 159.140547 
L 232.083142 158.709337 
L 232.634222 154.234078 
L 233.116418 149.758818 
L 233.529728 145.283559 
L 233.874153 140.8083 
L 234.149693 136.333041 
L 234.356349 131.857781 
L 234.494119 127.382522 
L 234.563004 122.907263 
L 234.563004 118.432003 
L 234.494119 113.956744 
L 234.356349 109.481485 
L 234.149693 105.006226 
L 233.874153 100.530966 
L 233.529728 96.055707 
L 233.116418 91.580448 
L 232.634222 87.105189 
L 232.083142 82.629929 
L 232.023406 82.19872 
L 231.428162 78.15467 
L 230.696258 73.679411 
L 229.891164 69.204152 
L 229.01288 64.728892 
L 228.061405 60.253633 
L 227.339222 57.099474 
L 227.016574 55.778374 
L 225.845528 51.303115 
L 224.596413 46.827855 
L 223.269227 42.352596 
L 222.655038 40.396613 
L 221.807468 37.877337 
L 220.218191 33.402078 
L 218.545268 28.926818 
L 217.970855 27.463369 
L 216.697764 24.451559 
L 214.715994 19.9763 
L 213.286671 16.888918 
L 212.5906 15.501041 
L 210.248508 11.025781 
M 99.220242 11.025781 
L 96.87815 15.501041 
L 96.182079 16.888918 
L 94.752756 19.9763 
L 92.770986 24.451559 
L 91.497895 27.463369 
L 90.923482 28.926818 
L 89.250559 33.402078 
L 87.661282 37.877337 
L 86.813712 40.396613 
L 86.199523 42.352596 
L 84.872337 46.827855 
L 83.623222 51.303115 
L 82.452176 55.778374 
L 82.129528 57.099474 
L 81.407345 60.253633 
L 80.45587 64.728892 
L 79.577586 69.204152 
L 78.772492 73.679411 
L 78.040588 78.15467 
L 77.445344 82.19872 
L 77.385608 82.629929 
L 76.834528 87.105189 
L 76.352332 91.580448 
L 75.939022 96.055707 
L 75.594597 100.530966 
L 75.319057 105.006226 
L 75.112401 109.481485 
L 74.974631 113.956744 
L 74.905746 118.432003 
L 74.905746 122.907263 
L 74.974631 127.382522 
L 75.112401 131.857781 
L 75.319057 136.333041 
L 75.594597 140.8083 
L 75.939022 145.283559 
L 76.352332 149.758818 
L 76.834528 154.234078 
L 77.385608 158.709337 
L 77.445344 159.140547 
L 78.040588 163.184596 
L 78.772492 167.659855 
L 79.577586 172.135115 
L 80.45587 176.610374 
L 81.407345 181.085633 
L 82.129528 184.239792 
L 82.452176 185.560892 
L 83.623222 190.036152 
L 84.872337 194.511411 
L 86.199523 198.98667 
L 86.813712 200.942654 
L 87.661282 203.461929 
L 89.250559 207.937189 
L 90.923482 212.412448 
L 91.497895 213.875898 
L 92.770986 216.887707 
L 94.752756 221.362966 
L 96.182079 224.450348 
L 96.87815 225.838226 
L 99.220242 230.313485 
" clip-path="url(#pba6424021b)" style="fill: none; stroke: #486afb; stroke-width: 2"/>
    <path d="M 192.618397 230.313485 
L 194.549936 227.852966 
L 198.948474 221.362966 
L 199.23412 220.916394 
L 204.00397 212.412448 
L 208.15586 203.461929 
L 208.602487 202.418868 
L 211.608629 194.511411 
L 213.286671 189.679529 
L 215.79133 181.085633 
L 218.038164 172.135115 
L 219.794732 163.184596 
L 221.216717 154.234078 
L 222.304117 145.283559 
L 223.030139 136.333041 
L 223.420488 127.382522 
L 223.498557 118.432003 
L 223.264348 109.481485 
L 222.655038 99.810729 
L 221.80224 91.580448 
L 220.547548 82.629929 
L 218.958271 73.679411 
L 217.970855 68.904053 
L 215.79133 60.253633 
L 213.170024 51.303115 
L 209.949647 42.352596 
L 208.15586 37.877337 
L 203.918304 28.755333 
L 199.23412 20.422872 
L 195.955801 15.501041 
L 194.549936 13.4863 
L 192.618397 11.025781 
M 116.850353 11.025781 
L 114.918814 13.4863 
L 110.520276 19.9763 
L 110.23463 20.422872 
L 105.46478 28.926818 
L 101.31289 37.877337 
L 100.866263 38.920399 
L 97.860121 46.827855 
L 96.182079 51.659737 
L 93.67742 60.253633 
L 91.430586 69.204152 
L 89.674018 78.15467 
L 88.252033 87.105189 
L 87.164633 96.055707 
L 86.438611 105.006226 
L 86.048262 113.956744 
L 85.970193 122.907263 
L 86.204402 131.857781 
L 86.813712 141.528537 
L 87.66651 149.758818 
L 88.921202 158.709337 
L 90.510479 167.659855 
L 91.497895 172.435213 
L 93.67742 181.085633 
L 96.298726 190.036152 
L 99.519103 198.98667 
L 101.31289 203.461929 
L 105.550446 212.583933 
L 110.23463 220.916394 
L 113.512949 225.838226 
L 114.918814 227.852966 
L 116.850353 230.313485 
L 116.850353 230.313485 
" clip-path="url(#pba6424021b)" style="fill: none; stroke: #486afb; stroke-width: 2"/>
    <path d="M 147.708099 225.976621 
L 152.392283 226.722497 
L 157.076467 226.722497 
L 161.760651 225.976621 
L 162.195218 225.838226 
L 166.444834 224.426026 
L 171.129018 222.091108 
L 172.224586 221.362966 
L 175.813202 218.869471 
L 178.094911 216.887707 
L 180.497385 214.70169 
L 182.593984 212.412448 
L 185.181569 209.445841 
L 186.309485 207.937189 
L 189.488038 203.461929 
L 189.865753 202.90058 
L 192.170106 198.98667 
L 194.549936 194.706792 
L 194.646507 194.511411 
L 196.728366 190.036152 
L 198.680109 185.560892 
L 199.23412 184.199834 
L 200.374975 181.085633 
L 201.897334 176.610374 
L 203.30259 172.135115 
L 203.918304 169.996017 
L 204.52961 167.659855 
L 205.594197 163.184596 
L 206.552325 158.709337 
L 207.403995 154.234078 
L 208.149206 149.758818 
L 208.602487 146.583016 
L 208.772502 145.283559 
L 209.260438 140.8083 
L 209.650787 136.333041 
L 209.943548 131.857781 
L 210.138723 127.382522 
L 210.23631 122.907263 
L 210.23631 118.432003 
L 210.138723 113.956744 
L 209.943548 109.481485 
L 209.650787 105.006226 
L 209.260438 100.530966 
L 208.772502 96.055707 
L 208.602487 94.75625 
L 208.149206 91.580448 
L 207.403995 87.105189 
L 206.552325 82.629929 
L 205.594197 78.15467 
L 204.52961 73.679411 
L 203.918304 71.343249 
L 203.30259 69.204152 
L 201.897334 64.728892 
L 200.374975 60.253633 
L 199.23412 57.139432 
L 198.680109 55.778374 
L 196.728366 51.303115 
L 194.646507 46.827855 
L 194.549936 46.632474 
L 192.170106 42.352596 
L 189.865753 38.438687 
L 189.488038 37.877337 
L 186.309485 33.402078 
L 185.181569 31.893426 
L 182.593984 28.926818 
L 180.497385 26.637577 
L 178.094911 24.451559 
L 175.813202 22.469795 
L 172.224586 19.9763 
L 171.129018 19.248158 
L 166.444834 16.91324 
L 162.195218 15.501041 
L 161.760651 15.362645 
L 157.076467 14.616769 
L 152.392283 14.616769 
L 147.708099 15.362645 
L 147.273532 15.501041 
L 143.023916 16.91324 
L 138.339732 19.248158 
L 137.244164 19.9763 
L 133.655548 22.469795 
L 131.373839 24.451559 
L 128.971365 26.637577 
L 126.874766 28.926818 
L 124.287181 31.893426 
L 123.159265 33.402078 
L 119.980712 37.877337 
L 119.602997 38.438687 
L 117.298644 42.352596 
L 114.918814 46.632474 
L 114.822243 46.827855 
L 112.740384 51.303115 
L 110.788641 55.778374 
L 110.23463 57.139432 
L 109.093775 60.253633 
L 107.571416 64.728892 
L 106.16616 69.204152 
L 105.550446 71.343249 
L 104.93914 73.679411 
L 103.874553 78.15467 
L 102.916425 82.629929 
L 102.064755 87.105189 
L 101.319544 91.580448 
L 100.866263 94.75625 
L 100.696248 96.055707 
L 100.208312 100.530966 
L 99.817963 105.006226 
L 99.525202 109.481485 
L 99.330027 113.956744 
L 99.23244 118.432003 
L 99.23244 122.907263 
L 99.330027 127.382522 
L 99.525202 131.857781 
L 99.817963 136.333041 
L 100.208312 140.8083 
L 100.696248 145.283559 
L 100.866263 146.583016 
L 101.319544 149.758818 
L 102.064755 154.234078 
L 102.916425 158.709337 
L 103.874553 163.184596 
L 104.93914 167.659855 
L 105.550446 169.996017 
L 106.16616 172.135115 
L 107.571416 176.610374 
L 109.093775 181.085633 
L 110.23463 184.199834 
L 110.788641 185.560892 
L 112.740384 190.036152 
L 114.822243 194.511411 
L 114.918814 194.706792 
L 117.298644 198.98667 
L 119.602997 202.90058 
L 119.980712 203.461929 
L 123.159265 207.937189 
L 124.287181 209.445841 
L 126.874766 212.412448 
L 128.971365 214.70169 
L 131.373839 216.887707 
L 133.655548 218.869471 
L 137.244164 221.362966 
L 138.339732 222.091108 
L 143.023916 224.426026 
L 147.273532 225.838226 
L 147.708099 225.976621 
z
" clip-path="url(#pba6424021b)" style="fill: none; stroke: #486afb; stroke-width: 2"/>
    <path d="M 147.708099 191.904485 
L 152.392283 193.0233 
L 157.076467 193.0233 
L 161.760651 191.904485 
L 165.671761 190.036152 
L 166.444834 189.642236 
L 171.129018 186.062028 
L 171.620766 185.560892 
L 175.719426 181.085633 
L 175.813202 180.975365 
L 178.782901 176.610374 
L 180.497385 173.880349 
L 181.41074 172.135115 
L 183.557658 167.659855 
L 185.181569 163.9363 
L 185.462568 163.184596 
L 186.968198 158.709337 
L 188.306536 154.234078 
L 189.477582 149.758818 
L 189.865753 148.028152 
L 190.404388 145.283559 
L 191.136292 140.8083 
L 191.721815 136.333041 
L 192.160957 131.857781 
L 192.453718 127.382522 
L 192.600099 122.907263 
L 192.600099 118.432003 
L 192.453718 113.956744 
L 192.160957 109.481485 
L 191.721815 105.006226 
L 191.136292 100.530966 
L 190.404388 96.055707 
L 189.865753 93.311115 
L 189.477582 91.580448 
L 188.306536 87.105189 
L 186.968198 82.629929 
L 185.462568 78.15467 
L 185.181569 77.402966 
L 183.557658 73.679411 
L 181.41074 69.204152 
L 180.497385 67.458917 
L 178.782901 64.728892 
L 175.813202 60.363901 
L 175.719426 60.253633 
L 171.620766 55.778374 
L 171.129018 55.277238 
L 166.444834 51.697031 
L 165.671761 51.303115 
L 161.760651 49.434781 
L 157.076467 48.315966 
L 152.392283 48.315966 
L 147.708099 49.434781 
L 143.796989 51.303115 
L 143.023916 51.697031 
L 138.339732 55.277238 
L 137.847984 55.778374 
L 133.749324 60.253633 
L 133.655548 60.363901 
L 130.685849 64.728892 
L 128.971365 67.458917 
L 128.05801 69.204152 
L 125.911092 73.679411 
L 124.287181 77.402966 
L 124.006182 78.15467 
L 122.500552 82.629929 
L 121.162214 87.105189 
L 119.991168 91.580448 
L 119.602997 93.311115 
L 119.064362 96.055707 
L 118.332458 100.530966 
L 117.746935 105.006226 
L 117.307793 109.481485 
L 117.015032 113.956744 
L 116.868651 118.432003 
L 116.868651 122.907263 
L 117.015032 127.382522 
L 117.307793 131.857781 
L 117.746935 136.333041 
L 118.332458 140.8083 
L 119.064362 145.283559 
L 119.602997 148.028152 
L 119.991168 149.758818 
L 121.162214 154.234078 
L 122.500552 158.709337 
L 124.006182 163.184596 
L 124.287181 163.9363 
L 125.911092 167.659855 
L 128.05801 172.135115 
L 128.971365 173.880349 
L 130.685849 176.610374 
L 133.655548 180.975365 
L 133.749324 181.085633 
L 137.847984 185.560892 
L 138.339732 186.062028 
L 143.023916 189.642236 
L 143.796989 190.036152 
L 147.708099 191.904485 
z
" clip-path="url(#pba6424021b)" style="fill: none; stroke: #486afb; stroke-width: 2"/>
    <path clip-path="url(#pba6424021b)" style="fill: none; stroke: #486afb; stroke-width: 2"/>
   </g>
   <g id="line2d_29">
    <path d="M 154.734375 231.292448 
L 155.905421 228.735157 
L 157.076467 226.177866 
L 158.247513 223.620575 
L 159.418559 221.063284 
L 160.589605 218.505993 
L 161.760651 215.948702 
L 162.931696 213.391411 
L 164.102742 210.83412 
L 165.273788 208.276829 
L 166.444834 205.719538 
L 167.61588 203.162247 
L 168.786926 200.604956 
L 169.957972 198.047665 
L 171.129018 195.490374 
L 172.300064 192.933083 
L 173.47111 190.375792 
L 174.642156 187.818501 
L 175.813202 185.26121 
L 176.984247 182.703919 
L 178.155293 180.146628 
L 179.326339 177.589337 
L 180.497385 175.032046 
L 181.668431 172.474755 
L 182.839477 169.917464 
L 184.010523 167.360173 
L 185.181569 164.802882 
L 186.352615 162.245591 
L 187.523661 159.6883 
L 188.694707 157.131009 
L 189.865753 154.573718 
L 191.036798 152.016427 
L 192.207844 149.459136 
L 193.37889 146.901845 
L 194.549936 144.344554 
L 195.720982 141.787263 
L 196.892028 139.229972 
L 198.063074 136.672681 
L 199.23412 134.11539 
L 200.405166 131.558099 
L 201.576212 129.000808 
L 202.747258 126.443517 
L 203.918304 123.886226 
L 205.089349 121.328935 
L 206.260395 118.771644 
L 207.431441 116.214353 
L 208.602487 113.657062 
L 209.773533 111.099771 
L 210.944579 108.54248 
L 212.115625 105.985189 
" clip-path="url(#pba6424021b)" style="fill: none; stroke: #fd46fc; stroke-width: 2; stroke-linecap: square"/>
   </g>
   <g id="patch_4">
    <path d="M 39.971875 242.305781 
L 39.971875 11.025781 
" style="fill: none; stroke: #000000; stroke-width: 0.6; stroke-linejoin: miter; stroke-linecap: square"/>
   </g>
   <g id="patch_5">
    <path d="M 39.971875 242.305781 
L 269.496875 242.305781 
" style="fill: none; stroke: #000000; stroke-width: 0.6; stroke-linejoin: miter; stroke-linecap: square"/>
   </g>
  </g>
 </g>
 <defs>
  <clipPath id="pba6424021b">
   <rect x="39.971875" y="11.025781" width="229.525" height="231.28"/>
  </clipPath>
 </defs>
</svg>