<?xml version="1.0" encoding="utf-8" standalone="no"?>
<!DOCTYPE svg PUBLIC "-//W3C//DTD SVG 1.1//EN"
  "http://www.w3.org/Graphics/SVG/1.1/DTD/svg11.dtd">
<svg xmlns:xlink="http://www.w3.org/1999/xlink" width="713.664pt" height="280.8495pt" viewBox="0 0 713.664 280.8495" xmlns="http://www.w3.org/2000/svg" version="1.1">
 <metadata>
  <rdf:RDF xmlns:dc="http://purl.org/dc/elements/1.1/" xmlns:cc="http://creativecommons.org/ns#" xmlns:rdf="http://www.w3.org/1999/02/22-rdf-syntax-ns#">
   <cc:Work>
    <dc:type rdf:resource="http://purl.org/dc/dcmitype/StillImage"/>
    <dc:date>2024-03-26T06:41:39.806375</dc:date>
    <dc:format>image/svg+xml</dc:format>
    <dc:creator>
     <cc:Agent>
      <dc:title>Matplotlib v3.8.3, https://matplotlib.org/</dc:title>
     </cc:Agent>
    </dc:creator>
   </cc:Work>
  </rdf:RDF>
 </metadata>
 <defs>
  <style type="text/css">*{stroke-linejoin: round; stroke-linecap: butt}</style>
 </defs>
 <g id="figure_1">
  <g id="patch_1">
   <path d="M 0 280.8495 
L 713.664 280.8495 
L 713.664 0 
L 0 0 
z
" style="fill: #ffffff"/>
  </g>
  <g id="axes_1">
   <g id="patch_2">
    <path d="M 12 243.444 
L 706.464 243.444 
L 706.464 7.2 
L 12 7.2 
z
" style="fill: #ffffff"/>
   </g>
   <g id="PolyCollection_1">
    <defs>
     <path id="m8270ceb826" d="M 43.566545 -155.442346 
L 43.566545 -155.612654 
L 49.943625 -155.738445 
L 56.320705 -156.004955 
L 62.697785 -156.520908 
L 69.074865 -157.439109 
L 75.451945 -158.949691 
L 81.829025 -161.258702 
L 88.206105 -164.552306 
L 94.583185 -168.952306 
L 100.960264 -174.474206 
L 107.337344 -181.00323 
L 113.714424 -188.304027 
L 120.091504 -196.070788 
L 126.468584 -204.002727 
L 132.845664 -211.866162 
L 139.222744 -219.503281 
L 145.599824 -226.78181 
L 151.976904 -233.525404 
L 158.353983 -239.479224 
L 164.731063 -244.336214 
L 171.108143 -247.808529 
L 177.485223 -249.710577 
L 183.862303 -250.0251 
L 190.239383 -248.929456 
L 196.616463 -246.761911 
L 202.993543 -243.925866 
L 209.370623 -240.767537 
L 215.747702 -237.488655 
L 222.124782 -234.13861 
L 228.501862 -230.680482 
L 234.878942 -227.084795 
L 241.256022 -223.399246 
L 247.633102 -219.762941 
L 254.010182 -216.361308 
L 260.387262 -213.344203 
L 266.764342 -210.748952 
L 273.141421 -208.471481 
L 279.518501 -206.306272 
L 285.895581 -204.03934 
L 292.272661 -201.548098 
L 298.649741 -198.856039 
L 305.026821 -196.113818 
L 311.403901 -193.51969 
L 317.780981 -191.22565 
L 324.158061 -189.278556 
L 330.53514 -187.618086 
L 336.91222 -186.11945 
L 343.2893 -184.652969 
L 349.66638 -183.137102 
L 356.04346 -181.570706 
L 362.42054 -180.033893 
L 368.79762 -178.651795 
L 375.1747 -177.530957 
L 381.55178 -176.697378 
L 387.92886 -176.070407 
L 394.305939 -175.489844 
L 400.683019 -174.785464 
L 407.060099 -173.855836 
L 413.437179 -172.717488 
L 419.814259 -171.498439 
L 426.191339 -170.377491 
L 432.568419 -169.500059 
L 438.945499 -168.914958 
L 445.322579 -168.563611 
L 451.699658 -168.321633 
L 458.076738 -168.064886 
L 464.453818 -167.724694 
L 470.830898 -167.308522 
L 477.207978 -166.880868 
L 483.585058 -166.516483 
L 489.962138 -166.250965 
L 496.339218 -166.056248 
L 502.716298 -165.854725 
L 509.093377 -165.561668 
L 515.470457 -165.128548 
L 521.847537 -164.562612 
L 528.224617 -163.916812 
L 534.601697 -163.263208 
L 540.978777 -162.668861 
L 547.355857 -162.185095 
L 553.732937 -161.847989 
L 560.110017 -161.680998 
L 566.487096 -161.693737 
L 572.864176 -161.878667 
L 579.241256 -162.210617 
L 585.618336 -162.649579 
L 591.995416 -163.140952 
L 598.372496 -163.608606 
L 604.749576 -163.946505 
L 611.126656 -164.024801 
L 617.503736 -163.722909 
L 623.880815 -162.982263 
L 630.257895 -161.849525 
L 636.634975 -160.478139 
L 643.012055 -159.079445 
L 649.389135 -157.847807 
L 655.766215 -156.900531 
L 662.143295 -156.260378 
L 668.520375 -155.879096 
L 674.897455 -155.678641 
L 674.897455 -155.376359 
L 674.897455 -155.376359 
L 668.520375 -155.175904 
L 662.143295 -154.794622 
L 655.766215 -154.154469 
L 649.389135 -153.207193 
L 643.012055 -151.975555 
L 636.634975 -150.576861 
L 630.257895 -149.205475 
L 623.880815 -148.072737 
L 617.503736 -147.332091 
L 611.126656 -147.030199 
L 604.749576 -147.108495 
L 598.372496 -147.446394 
L 591.995416 -147.914048 
L 585.618336 -148.405421 
L 579.241256 -148.844383 
L 572.864176 -149.176333 
L 566.487096 -149.361263 
L 560.110017 -149.374002 
L 553.732937 -149.207011 
L 547.355857 -148.869905 
L 540.978777 -148.386139 
L 534.601697 -147.791792 
L 528.224617 -147.138188 
L 521.847537 -146.492388 
L 515.470457 -145.926452 
L 509.093377 -145.493332 
L 502.716298 -145.200275 
L 496.339218 -144.998752 
L 489.962138 -144.804035 
L 483.585058 -144.538517 
L 477.207978 -144.174132 
L 470.830898 -143.746478 
L 464.453818 -143.330306 
L 458.076738 -142.990114 
L 451.699658 -142.733367 
L 445.322579 -142.491389 
L 438.945499 -142.140042 
L 432.568419 -141.554941 
L 426.191339 -140.677509 
L 419.814259 -139.556561 
L 413.437179 -138.337512 
L 407.060099 -137.199164 
L 400.683019 -136.269536 
L 394.305939 -135.565156 
L 387.92886 -134.984593 
L 381.55178 -134.357622 
L 375.1747 -133.524043 
L 368.79762 -132.403205 
L 362.42054 -131.021107 
L 356.04346 -129.484294 
L 349.66638 -127.917898 
L 343.2893 -126.402031 
L 336.91222 -124.93555 
L 330.53514 -123.436914 
L 324.158061 -121.776444 
L 317.780981 -119.82935 
L 311.403901 -117.53531 
L 305.026821 -114.941182 
L 298.649741 -112.198961 
L 292.272661 -109.506902 
L 285.895581 -107.01566 
L 279.518501 -104.748728 
L 273.141421 -102.583519 
L 266.764342 -100.306048 
L 260.387262 -97.710797 
L 254.010182 -94.693692 
L 247.633102 -91.292059 
L 241.256022 -87.655754 
L 234.878942 -83.970205 
L 228.501862 -80.374518 
L 222.124782 -76.91639 
L 215.747702 -73.566345 
L 209.370623 -70.287463 
L 202.993543 -67.129134 
L 196.616463 -64.293089 
L 190.239383 -62.125544 
L 183.862303 -61.0299 
L 177.485223 -61.344423 
L 171.108143 -63.246471 
L 164.731063 -66.718786 
L 158.353983 -71.575776 
L 151.976904 -77.529596 
L 145.599824 -84.27319 
L 139.222744 -91.551719 
L 132.845664 -99.188838 
L 126.468584 -107.052273 
L 120.091504 -114.984212 
L 113.714424 -122.750973 
L 107.337344 -130.05177 
L 100.960264 -136.580794 
L 94.583185 -142.102694 
L 88.206105 -146.502694 
L 81.829025 -149.796298 
L 75.451945 -152.105309 
L 69.074865 -153.615891 
L 62.697785 -154.534092 
L 56.320705 -155.050045 
L 49.943625 -155.316555 
L 43.566545 -155.442346 
z
" style="stroke: #616161"/>
    </defs>
    <g clip-path="url(#p8aa6314a18)">
     <use xlink:href="#m8270ceb826" x="0" y="280.8495" style="fill: #5e78e5; stroke: #616161"/>
    </g>
   </g>
   <g id="matplotlib.axis_1">
    <g id="xtick_1">
     <g id="line2d_1">
      <path d="M 78.572454 243.444 
L 78.572454 7.2 
" clip-path="url(#p8aa6314a18)" style="fill: none; stroke-dasharray: 2.96,1.28; stroke-dashoffset: 0; stroke: #6c6066; stroke-opacity: 0.4; stroke-width: 0.8"/>
     </g>
     <g id="line2d_2">
      <defs>
       <path id="mb774336d01" d="M 0 0 
L 0 4.8 
" style="stroke: #000000"/>
      </defs>
      <g>
       <use xlink:href="#mb774336d01" x="78.572454" y="243.444" style="stroke: #000000"/>
      </g>
     </g>
     <g id="text_1">
      <!-- 0 -->
      <g transform="translate(75.923516 258.477375) scale(0.088 -0.088)">
       <defs>
        <path id="DejaVuSansMono-30" d="M 1509 2344 
Q 1509 2516 1629 2641 
Q 1750 2766 1919 2766 
Q 2094 2766 2219 2641 
Q 2344 2516 2344 2344 
Q 2344 2169 2220 2047 
Q 2097 1925 1919 1925 
Q 1744 1925 1626 2044 
Q 1509 2163 1509 2344 
z
M 1925 4250 
Q 1484 4250 1267 3775 
Q 1050 3300 1050 2328 
Q 1050 1359 1267 884 
Q 1484 409 1925 409 
Q 2369 409 2586 884 
Q 2803 1359 2803 2328 
Q 2803 3300 2586 3775 
Q 2369 4250 1925 4250 
z
M 1925 4750 
Q 2672 4750 3055 4137 
Q 3438 3525 3438 2328 
Q 3438 1134 3055 521 
Q 2672 -91 1925 -91 
Q 1178 -91 797 521 
Q 416 1134 416 2328 
Q 416 3525 797 4137 
Q 1178 4750 1925 4750 
z
" transform="scale(0.015625)"/>
       </defs>
       <use xlink:href="#DejaVuSansMono-30"/>
      </g>
     </g>
    </g>
    <g id="xtick_2">
     <g id="line2d_3">
      <path d="M 187.113321 243.444 
L 187.113321 7.2 
" clip-path="url(#p8aa6314a18)" style="fill: none; stroke-dasharray: 2.96,1.28; stroke-dashoffset: 0; stroke: #6c6066; stroke-opacity: 0.4; stroke-width: 0.8"/>
     </g>
     <g id="line2d_4">
      <g>
       <use xlink:href="#mb774336d01" x="187.113321" y="243.444" style="stroke: #000000"/>
      </g>
     </g>
     <g id="text_2">
      <!-- 100 -->
      <g transform="translate(179.166508 258.477375) scale(0.088 -0.088)">
       <defs>
        <path id="DejaVuSansMono-31" d="M 844 531 
L 1825 531 
L 1825 4097 
L 769 3859 
L 769 4434 
L 1819 4666 
L 2450 4666 
L 2450 531 
L 3419 531 
L 3419 0 
L 844 0 
L 844 531 
z
" transform="scale(0.015625)"/>
       </defs>
       <use xlink:href="#DejaVuSansMono-31"/>
       <use xlink:href="#DejaVuSansMono-30" x="60.205078"/>
       <use xlink:href="#DejaVuSansMono-30" x="120.410156"/>
      </g>
     </g>
    </g>
    <g id="xtick_3">
     <g id="line2d_5">
      <path d="M 295.654187 243.444 
L 295.654187 7.2 
" clip-path="url(#p8aa6314a18)" style="fill: none; stroke-dasharray: 2.96,1.28; stroke-dashoffset: 0; stroke: #6c6066; stroke-opacity: 0.4; stroke-width: 0.8"/>
     </g>
     <g id="line2d_6">
      <g>
       <use xlink:href="#mb774336d01" x="295.654187" y="243.444" style="stroke: #000000"/>
      </g>
     </g>
     <g id="text_3">
      <!-- 200 -->
      <g transform="translate(287.707375 258.477375) scale(0.088 -0.088)">
       <defs>
        <path id="DejaVuSansMono-32" d="M 1166 531 
L 3309 531 
L 3309 0 
L 475 0 
L 475 531 
Q 1059 1147 1496 1619 
Q 1934 2091 2100 2284 
Q 2413 2666 2522 2902 
Q 2631 3138 2631 3384 
Q 2631 3775 2401 3997 
Q 2172 4219 1772 4219 
Q 1488 4219 1175 4116 
Q 863 4013 513 3803 
L 513 4441 
Q 834 4594 1145 4672 
Q 1456 4750 1759 4750 
Q 2444 4750 2861 4386 
Q 3278 4022 3278 3431 
Q 3278 3131 3139 2831 
Q 3000 2531 2688 2169 
Q 2513 1966 2180 1606 
Q 1847 1247 1166 531 
z
" transform="scale(0.015625)"/>
       </defs>
       <use xlink:href="#DejaVuSansMono-32"/>
       <use xlink:href="#DejaVuSansMono-30" x="60.205078"/>
       <use xlink:href="#DejaVuSansMono-30" x="120.410156"/>
      </g>
     </g>
    </g>
    <g id="xtick_4">
     <g id="line2d_7">
      <path d="M 404.195054 243.444 
L 404.195054 7.2 
" clip-path="url(#p8aa6314a18)" style="fill: none; stroke-dasharray: 2.96,1.28; stroke-dashoffset: 0; stroke: #6c6066; stroke-opacity: 0.4; stroke-width: 0.8"/>
     </g>
     <g id="line2d_8">
      <g>
       <use xlink:href="#mb774336d01" x="404.195054" y="243.444" style="stroke: #000000"/>
      </g>
     </g>
     <g id="text_4">
      <!-- 300 -->
      <g transform="translate(396.248242 258.477375) scale(0.088 -0.088)">
       <defs>
        <path id="DejaVuSansMono-33" d="M 2425 2497 
Q 2884 2375 3128 2064 
Q 3372 1753 3372 1288 
Q 3372 644 2939 276 
Q 2506 -91 1741 -91 
Q 1419 -91 1084 -31 
Q 750 28 428 141 
L 428 769 
Q 747 603 1056 522 
Q 1366 441 1672 441 
Q 2191 441 2469 675 
Q 2747 909 2747 1350 
Q 2747 1756 2469 1995 
Q 2191 2234 1716 2234 
L 1234 2234 
L 1234 2753 
L 1716 2753 
Q 2150 2753 2394 2943 
Q 2638 3134 2638 3475 
Q 2638 3834 2411 4026 
Q 2184 4219 1766 4219 
Q 1488 4219 1191 4156 
Q 894 4094 569 3969 
L 569 4550 
Q 947 4650 1242 4700 
Q 1538 4750 1766 4750 
Q 2447 4750 2855 4408 
Q 3263 4066 3263 3500 
Q 3263 3116 3048 2859 
Q 2834 2603 2425 2497 
z
" transform="scale(0.015625)"/>
       </defs>
       <use xlink:href="#DejaVuSansMono-33"/>
       <use xlink:href="#DejaVuSansMono-30" x="60.205078"/>
       <use xlink:href="#DejaVuSansMono-30" x="120.410156"/>
      </g>
     </g>
    </g>
    <g id="xtick_5">
     <g id="line2d_9">
      <path d="M 512.735921 243.444 
L 512.735921 7.2 
" clip-path="url(#p8aa6314a18)" style="fill: none; stroke-dasharray: 2.96,1.28; stroke-dashoffset: 0; stroke: #6c6066; stroke-opacity: 0.4; stroke-width: 0.8"/>
     </g>
     <g id="line2d_10">
      <g>
       <use xlink:href="#mb774336d01" x="512.735921" y="243.444" style="stroke: #000000"/>
      </g>
     </g>
     <g id="text_5">
      <!-- 400 -->
      <g transform="translate(504.789108 258.477375) scale(0.088 -0.088)">
       <defs>
        <path id="DejaVuSansMono-34" d="M 2297 4091 
L 825 1625 
L 2297 1625 
L 2297 4091 
z
M 2194 4666 
L 2925 4666 
L 2925 1625 
L 3547 1625 
L 3547 1113 
L 2925 1113 
L 2925 0 
L 2297 0 
L 2297 1113 
L 319 1113 
L 319 1709 
L 2194 4666 
z
" transform="scale(0.015625)"/>
       </defs>
       <use xlink:href="#DejaVuSansMono-34"/>
       <use xlink:href="#DejaVuSansMono-30" x="60.205078"/>
       <use xlink:href="#DejaVuSansMono-30" x="120.410156"/>
      </g>
     </g>
    </g>
    <g id="xtick_6">
     <g id="line2d_11">
      <path d="M 621.276787 243.444 
L 621.276787 7.2 
" clip-path="url(#p8aa6314a18)" style="fill: none; stroke-dasharray: 2.96,1.28; stroke-dashoffset: 0; stroke: #6c6066; stroke-opacity: 0.4; stroke-width: 0.8"/>
     </g>
     <g id="line2d_12">
      <g>
       <use xlink:href="#mb774336d01" x="621.276787" y="243.444" style="stroke: #000000"/>
      </g>
     </g>
     <g id="text_6">
      <!-- 500 -->
      <g transform="translate(613.329975 258.477375) scale(0.088 -0.088)">
       <defs>
        <path id="DejaVuSansMono-35" d="M 647 4666 
L 3009 4666 
L 3009 4134 
L 1222 4134 
L 1222 2988 
Q 1356 3038 1492 3061 
Q 1628 3084 1766 3084 
Q 2491 3084 2916 2656 
Q 3341 2228 3341 1497 
Q 3341 759 2895 334 
Q 2450 -91 1678 -91 
Q 1306 -91 998 -41 
Q 691 9 447 109 
L 447 750 
Q 734 594 1025 517 
Q 1316 441 1619 441 
Q 2141 441 2423 716 
Q 2706 991 2706 1497 
Q 2706 1997 2414 2275 
Q 2122 2553 1600 2553 
Q 1347 2553 1106 2495 
Q 866 2438 647 2322 
L 647 4666 
z
" transform="scale(0.015625)"/>
       </defs>
       <use xlink:href="#DejaVuSansMono-35"/>
       <use xlink:href="#DejaVuSansMono-30" x="60.205078"/>
       <use xlink:href="#DejaVuSansMono-30" x="120.410156"/>
      </g>
     </g>
    </g>
    <g id="text_7">
     <!-- price -->
     <g transform="translate(344.78325 271.653) scale(0.096 -0.096)">
      <defs>
       <path id="DejaVuSansMono-70" d="M 1172 441 
L 1172 -1331 
L 594 -1331 
L 594 3500 
L 1172 3500 
L 1172 3053 
Q 1316 3313 1555 3448 
Q 1794 3584 2106 3584 
Q 2741 3584 3102 3093 
Q 3463 2603 3463 1734 
Q 3463 881 3100 395 
Q 2738 -91 2106 -91 
Q 1788 -91 1548 45 
Q 1309 181 1172 441 
z
M 2859 1747 
Q 2859 2416 2648 2756 
Q 2438 3097 2022 3097 
Q 1603 3097 1387 2755 
Q 1172 2413 1172 1747 
Q 1172 1084 1387 740 
Q 1603 397 2022 397 
Q 2438 397 2648 737 
Q 2859 1078 2859 1747 
z
" transform="scale(0.015625)"/>
       <path id="DejaVuSansMono-72" d="M 3609 2778 
Q 3425 2922 3234 2987 
Q 3044 3053 2816 3053 
Q 2278 3053 1993 2715 
Q 1709 2378 1709 1741 
L 1709 0 
L 1131 0 
L 1131 3500 
L 1709 3500 
L 1709 2816 
Q 1853 3188 2151 3386 
Q 2450 3584 2859 3584 
Q 3072 3584 3256 3531 
Q 3441 3478 3609 3366 
L 3609 2778 
z
" transform="scale(0.015625)"/>
       <path id="DejaVuSansMono-69" d="M 800 3500 
L 2272 3500 
L 2272 447 
L 3413 447 
L 3413 0 
L 556 0 
L 556 447 
L 1697 447 
L 1697 3053 
L 800 3053 
L 800 3500 
z
M 1697 4863 
L 2272 4863 
L 2272 4134 
L 1697 4134 
L 1697 4863 
z
" transform="scale(0.015625)"/>
       <path id="DejaVuSansMono-63" d="M 3316 178 
Q 3084 44 2839 -23 
Q 2594 -91 2338 -91 
Q 1525 -91 1067 396 
Q 609 884 609 1747 
Q 609 2609 1067 3096 
Q 1525 3584 2338 3584 
Q 2591 3584 2831 3518 
Q 3072 3453 3316 3316 
L 3316 2713 
Q 3088 2916 2858 3006 
Q 2628 3097 2338 3097 
Q 1797 3097 1506 2747 
Q 1216 2397 1216 1747 
Q 1216 1100 1508 748 
Q 1800 397 2338 397 
Q 2638 397 2875 489 
Q 3113 581 3316 775 
L 3316 178 
z
" transform="scale(0.015625)"/>
       <path id="DejaVuSansMono-65" d="M 3475 1894 
L 3475 1613 
L 984 1613 
L 984 1594 
Q 984 1022 1282 709 
Q 1581 397 2125 397 
Q 2400 397 2700 484 
Q 3000 572 3341 750 
L 3341 178 
Q 3013 44 2708 -23 
Q 2403 -91 2119 -91 
Q 1303 -91 843 398 
Q 384 888 384 1747 
Q 384 2584 834 3084 
Q 1284 3584 2034 3584 
Q 2703 3584 3089 3131 
Q 3475 2678 3475 1894 
z
M 2900 2063 
Q 2888 2569 2661 2833 
Q 2434 3097 2009 3097 
Q 1594 3097 1325 2822 
Q 1056 2547 1006 2059 
L 2900 2063 
z
" transform="scale(0.015625)"/>
      </defs>
      <use xlink:href="#DejaVuSansMono-70"/>
      <use xlink:href="#DejaVuSansMono-72" x="60.205078"/>
      <use xlink:href="#DejaVuSansMono-69" x="120.410156"/>
      <use xlink:href="#DejaVuSansMono-63" x="180.615234"/>
      <use xlink:href="#DejaVuSansMono-65" x="240.820312"/>
     </g>
    </g>
   </g>
   <g id="matplotlib.axis_2">
    <g id="ytick_1">
     <g id="line2d_13">
      <defs>
       <path id="m3fcbc249b1" d="M 0 0 
L -4.8 0 
" style="stroke: #000000"/>
      </defs>
      <g>
       <use xlink:href="#m3fcbc249b1" x="12" y="125.322" style="stroke: #000000"/>
      </g>
     </g>
    </g>
   </g>
   <g id="line2d_14">
    <path d="M 78.778682 125.322 
L 522.309225 125.322 
" clip-path="url(#p8aa6314a18)" style="fill: none; stroke: #616161; stroke-width: 1.5; stroke-linecap: square"/>
   </g>
   <g id="line2d_15">
    <path d="M 175.00016 125.322 
L 313.932469 125.322 
" clip-path="url(#p8aa6314a18)" style="fill: none; stroke: #616161; stroke-width: 4.5; stroke-linecap: square"/>
   </g>
   <g id="line2d_16">
    <path d="M 227.414544 125.322 
" clip-path="url(#p8aa6314a18)" style="fill: none; stroke: #616161; stroke-width: 1.2; stroke-linecap: square"/>
    <defs>
     <path id="m77a4ad0360" d="M 0 1.875 
L 0 -1.875 
" style="stroke: #ffffff; stroke-width: 0.9"/>
    </defs>
    <g clip-path="url(#p8aa6314a18)">
     <use xlink:href="#m77a4ad0360" x="227.414544" y="125.322" style="fill: #ffffff; stroke: #ffffff; stroke-width: 0.9"/>
    </g>
   </g>
   <g id="patch_3">
    <path d="M 12 243.444 
L 12 7.2 
" style="fill: none; stroke: #000000; stroke-linejoin: miter; stroke-linecap: square"/>
   </g>
   <g id="patch_4">
    <path d="M 12 243.444 
L 706.464 243.444 
" style="fill: none; stroke: #000000; stroke-linejoin: miter; stroke-linecap: square"/>
   </g>
  </g>
 </g>
 <defs>
  <clipPath id="p8aa6314a18">
   <rect x="12" y="7.2" width="694.464" height="236.244"/>
  </clipPath>
 </defs>
</svg>