<?xml version="1.0" encoding="utf-8" standalone="no"?>
<!DOCTYPE svg PUBLIC "-//W3C//DTD SVG 1.1//EN"
  "http://www.w3.org/Graphics/SVG/1.1/DTD/svg11.dtd">
<svg xmlns:xlink="http://www.w3.org/1999/xlink" width="453.202812pt" height="334.8225pt" viewBox="0 0 453.202812 334.8225" xmlns="http://www.w3.org/2000/svg" version="1.1">
 <metadata>
  <rdf:RDF xmlns:dc="http://purl.org/dc/elements/1.1/" xmlns:cc="http://creativecommons.org/ns#" xmlns:rdf="http://www.w3.org/1999/02/22-rdf-syntax-ns#">
   <cc:Work>
    <dc:type rdf:resource="http://purl.org/dc/dcmitype/StillImage"/>
    <dc:date>2023-11-02T17:54:15.173013</dc:date>
    <dc:format>image/svg+xml</dc:format>
    <dc:creator>
     <cc:Agent>
      <dc:title>Matplotlib v3.8.0, https://matplotlib.org/</dc:title>
     </cc:Agent>
    </dc:creator>
   </cc:Work>
  </rdf:RDF>
 </metadata>
 <defs>
  <style type="text/css">*{stroke-linejoin: round; stroke-linecap: butt}</style>
 </defs>
 <g id="figure_1">
  <g id="patch_1">
   <path d="M 0 334.8225 
L 453.202812 334.8225 
L 453.202812 0 
L 0 0 
z
" style="fill: #ffffff"/>
  </g>
  <g id="axes_1">
   <g id="patch_2">
    <path d="M 58.032813 297.16 
L 446.002813 297.16 
L 446.002813 7.2 
L 58.032813 7.2 
z
" style="fill: #ffffff"/>
   </g>
   <g id="patch_3">
    <path d="M 75.667813 297.16 
L 79.194813 297.16 
L 79.194813 295.857394 
L 75.667813 295.857394 
z
" clip-path="url(#p94b5a83eb2)" style="fill: #486afb; stroke: #0000ff; stroke-width: 0.2; stroke-linejoin: miter"/>
   </g>
   <g id="patch_4">
    <path d="M 79.194813 297.16 
L 82.721813 297.16 
L 82.721813 293.252183 
L 79.194813 293.252183 
z
" clip-path="url(#p94b5a83eb2)" style="fill: #486afb; stroke: #0000ff; stroke-width: 0.2; stroke-linejoin: miter"/>
   </g>
   <g id="patch_5">
    <path d="M 82.721813 297.16 
L 86.248813 297.16 
L 86.248813 297.16 
L 82.721813 297.16 
z
" clip-path="url(#p94b5a83eb2)" style="fill: #486afb; stroke: #0000ff; stroke-width: 0.2; stroke-linejoin: miter"/>
   </g>
   <g id="patch_6">
    <path d="M 86.248813 297.16 
L 89.775813 297.16 
L 89.775813 273.7131 
L 86.248813 273.7131 
z
" clip-path="url(#p94b5a83eb2)" style="fill: #486afb; stroke: #0000ff; stroke-width: 0.2; stroke-linejoin: miter"/>
   </g>
   <g id="patch_7">
    <path d="M 89.775813 297.16 
L 93.302813 297.16 
L 93.302813 288.041761 
L 89.775813 288.041761 
z
" clip-path="url(#p94b5a83eb2)" style="fill: #486afb; stroke: #0000ff; stroke-width: 0.2; stroke-linejoin: miter"/>
   </g>
   <g id="patch_8">
    <path d="M 93.302813 297.16 
L 96.829813 297.16 
L 96.829813 267.200072 
L 93.302813 267.200072 
z
" clip-path="url(#p94b5a83eb2)" style="fill: #486afb; stroke: #0000ff; stroke-width: 0.2; stroke-linejoin: miter"/>
   </g>
   <g id="patch_9">
    <path d="M 96.829813 297.16 
L 100.356813 297.16 
L 100.356813 247.660988 
L 96.829813 247.660988 
z
" clip-path="url(#p94b5a83eb2)" style="fill: #486afb; stroke: #0000ff; stroke-width: 0.2; stroke-linejoin: miter"/>
   </g>
   <g id="patch_10">
    <path d="M 100.356813 297.16 
L 103.883813 297.16 
L 103.883813 202.069793 
L 100.356813 202.069793 
z
" clip-path="url(#p94b5a83eb2)" style="fill: #486afb; stroke: #0000ff; stroke-width: 0.2; stroke-linejoin: miter"/>
   </g>
   <g id="patch_11">
    <path d="M 103.883813 297.16 
L 107.410813 297.16 
L 107.410813 190.346343 
L 103.883813 190.346343 
z
" clip-path="url(#p94b5a83eb2)" style="fill: #486afb; stroke: #0000ff; stroke-width: 0.2; stroke-linejoin: miter"/>
   </g>
   <g id="patch_12">
    <path d="M 107.410813 297.16 
L 110.937813 297.16 
L 110.937813 147.360359 
L 107.410813 147.360359 
z
" clip-path="url(#p94b5a83eb2)" style="fill: #486afb; stroke: #0000ff; stroke-width: 0.2; stroke-linejoin: miter"/>
   </g>
   <g id="patch_13">
    <path d="M 110.937813 297.16 
L 114.464813 297.16 
L 114.464813 205.97761 
L 110.937813 205.97761 
z
" clip-path="url(#p94b5a83eb2)" style="fill: #486afb; stroke: #0000ff; stroke-width: 0.2; stroke-linejoin: miter"/>
   </g>
   <g id="patch_14">
    <path d="M 114.464813 297.16 
L 117.991813 297.16 
L 117.991813 185.135921 
L 114.464813 185.135921 
z
" clip-path="url(#p94b5a83eb2)" style="fill: #486afb; stroke: #0000ff; stroke-width: 0.2; stroke-linejoin: miter"/>
   </g>
   <g id="patch_15">
    <path d="M 117.991813 297.16 
L 121.518813 297.16 
L 121.518813 177.320288 
L 117.991813 177.320288 
z
" clip-path="url(#p94b5a83eb2)" style="fill: #486afb; stroke: #0000ff; stroke-width: 0.2; stroke-linejoin: miter"/>
   </g>
   <g id="patch_16">
    <path d="M 121.518812 297.16 
L 125.045812 297.16 
L 125.045812 170.80726 
L 121.518812 170.80726 
z
" clip-path="url(#p94b5a83eb2)" style="fill: #486afb; stroke: #0000ff; stroke-width: 0.2; stroke-linejoin: miter"/>
   </g>
   <g id="patch_17">
    <path d="M 125.045813 297.16 
L 128.572813 297.16 
L 128.572813 101.769164 
L 125.045813 101.769164 
z
" clip-path="url(#p94b5a83eb2)" style="fill: #486afb; stroke: #0000ff; stroke-width: 0.2; stroke-linejoin: miter"/>
   </g>
   <g id="patch_18">
    <path d="M 128.572812 297.16 
L 132.099812 297.16 
L 132.099812 133.031698 
L 128.572812 133.031698 
z
" clip-path="url(#p94b5a83eb2)" style="fill: #486afb; stroke: #0000ff; stroke-width: 0.2; stroke-linejoin: miter"/>
   </g>
   <g id="patch_19">
    <path d="M 132.099813 297.16 
L 135.626812 297.16 
L 135.626812 138.24212 
L 132.099813 138.24212 
z
" clip-path="url(#p94b5a83eb2)" style="fill: #486afb; stroke: #0000ff; stroke-width: 0.2; stroke-linejoin: miter"/>
   </g>
   <g id="patch_20">
    <path d="M 135.626812 297.16 
L 139.153813 297.16 
L 139.153813 127.821276 
L 135.626812 127.821276 
z
" clip-path="url(#p94b5a83eb2)" style="fill: #486afb; stroke: #0000ff; stroke-width: 0.2; stroke-linejoin: miter"/>
   </g>
   <g id="patch_21">
    <path d="M 139.153813 297.16 
L 142.680813 297.16 
L 142.680813 155.175993 
L 139.153813 155.175993 
z
" clip-path="url(#p94b5a83eb2)" style="fill: #486afb; stroke: #0000ff; stroke-width: 0.2; stroke-linejoin: miter"/>
   </g>
   <g id="patch_22">
    <path d="M 142.680813 297.16 
L 146.207812 297.16 
L 146.207812 21.007619 
L 142.680813 21.007619 
z
" clip-path="url(#p94b5a83eb2)" style="fill: #486afb; stroke: #0000ff; stroke-width: 0.2; stroke-linejoin: miter"/>
   </g>
   <g id="patch_23">
    <path d="M 146.207812 297.16 
L 149.734812 297.16 
L 149.734812 148.662965 
L 146.207812 148.662965 
z
" clip-path="url(#p94b5a83eb2)" style="fill: #486afb; stroke: #0000ff; stroke-width: 0.2; stroke-linejoin: miter"/>
   </g>
   <g id="patch_24">
    <path d="M 149.734813 297.16 
L 153.261813 297.16 
L 153.261813 147.360359 
L 149.734813 147.360359 
z
" clip-path="url(#p94b5a83eb2)" style="fill: #486afb; stroke: #0000ff; stroke-width: 0.2; stroke-linejoin: miter"/>
   </g>
   <g id="patch_25">
    <path d="M 153.261813 297.16 
L 156.788813 297.16 
L 156.788813 165.596837 
L 153.261813 165.596837 
z
" clip-path="url(#p94b5a83eb2)" style="fill: #486afb; stroke: #0000ff; stroke-width: 0.2; stroke-linejoin: miter"/>
   </g>
   <g id="patch_26">
    <path d="M 156.788813 297.16 
L 160.315812 297.16 
L 160.315812 129.123881 
L 156.788813 129.123881 
z
" clip-path="url(#p94b5a83eb2)" style="fill: #486afb; stroke: #0000ff; stroke-width: 0.2; stroke-linejoin: miter"/>
   </g>
   <g id="patch_27">
    <path d="M 160.315812 297.16 
L 163.842812 297.16 
L 163.842812 118.703037 
L 160.315812 118.703037 
z
" clip-path="url(#p94b5a83eb2)" style="fill: #486afb; stroke: #0000ff; stroke-width: 0.2; stroke-linejoin: miter"/>
   </g>
   <g id="patch_28">
    <path d="M 163.842813 297.16 
L 167.369812 297.16 
L 167.369812 156.478598 
L 163.842813 156.478598 
z
" clip-path="url(#p94b5a83eb2)" style="fill: #486afb; stroke: #0000ff; stroke-width: 0.2; stroke-linejoin: miter"/>
   </g>
   <g id="patch_29">
    <path d="M 167.369813 297.16 
L 170.896813 297.16 
L 170.896813 212.490638 
L 167.369813 212.490638 
z
" clip-path="url(#p94b5a83eb2)" style="fill: #486afb; stroke: #0000ff; stroke-width: 0.2; stroke-linejoin: miter"/>
   </g>
   <g id="patch_30">
    <path d="M 170.896813 297.16 
L 174.423812 297.16 
L 174.423812 215.095849 
L 170.896813 215.095849 
z
" clip-path="url(#p94b5a83eb2)" style="fill: #486afb; stroke: #0000ff; stroke-width: 0.2; stroke-linejoin: miter"/>
   </g>
   <g id="patch_31">
    <path d="M 174.423812 297.16 
L 177.950812 297.16 
L 177.950812 221.608877 
L 174.423812 221.608877 
z
" clip-path="url(#p94b5a83eb2)" style="fill: #486afb; stroke: #0000ff; stroke-width: 0.2; stroke-linejoin: miter"/>
   </g>
   <g id="patch_32">
    <path d="M 177.950813 297.16 
L 181.477813 297.16 
L 181.477813 151.268176 
L 177.950813 151.268176 
z
" clip-path="url(#p94b5a83eb2)" style="fill: #486afb; stroke: #0000ff; stroke-width: 0.2; stroke-linejoin: miter"/>
   </g>
   <g id="patch_33">
    <path d="M 181.477813 297.16 
L 185.004813 297.16 
L 185.004813 226.819299 
L 181.477813 226.819299 
z
" clip-path="url(#p94b5a83eb2)" style="fill: #486afb; stroke: #0000ff; stroke-width: 0.2; stroke-linejoin: miter"/>
   </g>
   <g id="patch_34">
    <path d="M 185.004813 297.16 
L 188.531813 297.16 
L 188.531813 224.214088 
L 185.004813 224.214088 
z
" clip-path="url(#p94b5a83eb2)" style="fill: #486afb; stroke: #0000ff; stroke-width: 0.2; stroke-linejoin: miter"/>
   </g>
   <g id="patch_35">
    <path d="M 188.531813 297.16 
L 192.058812 297.16 
L 192.058812 250.266199 
L 188.531813 250.266199 
z
" clip-path="url(#p94b5a83eb2)" style="fill: #486afb; stroke: #0000ff; stroke-width: 0.2; stroke-linejoin: miter"/>
   </g>
   <g id="patch_36">
    <path d="M 192.058813 297.16 
L 195.585813 297.16 
L 195.585813 228.121905 
L 192.058813 228.121905 
z
" clip-path="url(#p94b5a83eb2)" style="fill: #486afb; stroke: #0000ff; stroke-width: 0.2; stroke-linejoin: miter"/>
   </g>
   <g id="patch_37">
    <path d="M 195.585813 297.16 
L 199.112813 297.16 
L 199.112813 238.542749 
L 195.585813 238.542749 
z
" clip-path="url(#p94b5a83eb2)" style="fill: #486afb; stroke: #0000ff; stroke-width: 0.2; stroke-linejoin: miter"/>
   </g>
   <g id="patch_38">
    <path d="M 199.112813 297.16 
L 202.639813 297.16 
L 202.639813 235.937538 
L 199.112813 235.937538 
z
" clip-path="url(#p94b5a83eb2)" style="fill: #486afb; stroke: #0000ff; stroke-width: 0.2; stroke-linejoin: miter"/>
   </g>
   <g id="patch_39">
    <path d="M 202.639813 297.16 
L 206.166812 297.16 
L 206.166812 261.98965 
L 202.639813 261.98965 
z
" clip-path="url(#p94b5a83eb2)" style="fill: #486afb; stroke: #0000ff; stroke-width: 0.2; stroke-linejoin: miter"/>
   </g>
   <g id="patch_40">
    <path d="M 206.166813 297.16 
L 209.693813 297.16 
L 209.693813 234.634933 
L 206.166813 234.634933 
z
" clip-path="url(#p94b5a83eb2)" style="fill: #486afb; stroke: #0000ff; stroke-width: 0.2; stroke-linejoin: miter"/>
   </g>
   <g id="patch_41">
    <path d="M 209.693813 297.16 
L 213.220813 297.16 
L 213.220813 226.819299 
L 209.693813 226.819299 
z
" clip-path="url(#p94b5a83eb2)" style="fill: #486afb; stroke: #0000ff; stroke-width: 0.2; stroke-linejoin: miter"/>
   </g>
   <g id="patch_42">
    <path d="M 213.220813 297.16 
L 216.747813 297.16 
L 216.747813 172.109865 
L 213.220813 172.109865 
z
" clip-path="url(#p94b5a83eb2)" style="fill: #486afb; stroke: #0000ff; stroke-width: 0.2; stroke-linejoin: miter"/>
   </g>
   <g id="patch_43">
    <path d="M 216.747813 297.16 
L 220.274812 297.16 
L 220.274812 265.897466 
L 216.747813 265.897466 
z
" clip-path="url(#p94b5a83eb2)" style="fill: #486afb; stroke: #0000ff; stroke-width: 0.2; stroke-linejoin: miter"/>
   </g>
   <g id="patch_44">
    <path d="M 220.274812 297.16 
L 223.801812 297.16 
L 223.801812 265.897466 
L 220.274812 265.897466 
z
" clip-path="url(#p94b5a83eb2)" style="fill: #486afb; stroke: #0000ff; stroke-width: 0.2; stroke-linejoin: miter"/>
   </g>
   <g id="patch_45">
    <path d="M 223.801812 297.16 
L 227.328812 297.16 
L 227.328812 269.805283 
L 223.801812 269.805283 
z
" clip-path="url(#p94b5a83eb2)" style="fill: #486afb; stroke: #0000ff; stroke-width: 0.2; stroke-linejoin: miter"/>
   </g>
   <g id="patch_46">
    <path d="M 227.328813 297.16 
L 230.855813 297.16 
L 230.855813 256.779227 
L 227.328813 256.779227 
z
" clip-path="url(#p94b5a83eb2)" style="fill: #486afb; stroke: #0000ff; stroke-width: 0.2; stroke-linejoin: miter"/>
   </g>
   <g id="patch_47">
    <path d="M 230.855813 297.16 
L 234.382812 297.16 
L 234.382812 243.753172 
L 230.855813 243.753172 
z
" clip-path="url(#p94b5a83eb2)" style="fill: #486afb; stroke: #0000ff; stroke-width: 0.2; stroke-linejoin: miter"/>
   </g>
   <g id="patch_48">
    <path d="M 234.382813 297.16 
L 237.909813 297.16 
L 237.909813 271.107889 
L 234.382813 271.107889 
z
" clip-path="url(#p94b5a83eb2)" style="fill: #486afb; stroke: #0000ff; stroke-width: 0.2; stroke-linejoin: miter"/>
   </g>
   <g id="patch_49">
    <path d="M 237.909813 297.16 
L 241.436813 297.16 
L 241.436813 264.594861 
L 237.909813 264.594861 
z
" clip-path="url(#p94b5a83eb2)" style="fill: #486afb; stroke: #0000ff; stroke-width: 0.2; stroke-linejoin: miter"/>
   </g>
   <g id="patch_50">
    <path d="M 241.436813 297.16 
L 244.963813 297.16 
L 244.963813 268.502677 
L 241.436813 268.502677 
z
" clip-path="url(#p94b5a83eb2)" style="fill: #486afb; stroke: #0000ff; stroke-width: 0.2; stroke-linejoin: miter"/>
   </g>
   <g id="patch_51">
    <path d="M 244.963813 297.16 
L 248.490813 297.16 
L 248.490813 254.174016 
L 244.963813 254.174016 
z
" clip-path="url(#p94b5a83eb2)" style="fill: #486afb; stroke: #0000ff; stroke-width: 0.2; stroke-linejoin: miter"/>
   </g>
   <g id="patch_52">
    <path d="M 248.490813 297.16 
L 252.017812 297.16 
L 252.017812 220.306271 
L 248.490813 220.306271 
z
" clip-path="url(#p94b5a83eb2)" style="fill: #486afb; stroke: #0000ff; stroke-width: 0.2; stroke-linejoin: miter"/>
   </g>
   <g id="patch_53">
    <path d="M 252.017812 297.16 
L 255.544812 297.16 
L 255.544812 261.98965 
L 252.017812 261.98965 
z
" clip-path="url(#p94b5a83eb2)" style="fill: #486afb; stroke: #0000ff; stroke-width: 0.2; stroke-linejoin: miter"/>
   </g>
   <g id="patch_54">
    <path d="M 255.544813 297.16 
L 259.071813 297.16 
L 259.071813 278.923522 
L 255.544813 278.923522 
z
" clip-path="url(#p94b5a83eb2)" style="fill: #486afb; stroke: #0000ff; stroke-width: 0.2; stroke-linejoin: miter"/>
   </g>
   <g id="patch_55">
    <path d="M 259.071813 297.16 
L 262.598813 297.16 
L 262.598813 265.897466 
L 259.071813 265.897466 
z
" clip-path="url(#p94b5a83eb2)" style="fill: #486afb; stroke: #0000ff; stroke-width: 0.2; stroke-linejoin: miter"/>
   </g>
   <g id="patch_56">
    <path d="M 262.598813 297.16 
L 266.125813 297.16 
L 266.125813 264.594861 
L 262.598813 264.594861 
z
" clip-path="url(#p94b5a83eb2)" style="fill: #486afb; stroke: #0000ff; stroke-width: 0.2; stroke-linejoin: miter"/>
   </g>
   <g id="patch_57">
    <path d="M 266.125813 297.16 
L 269.652813 297.16 
L 269.652813 268.502677 
L 266.125813 268.502677 
z
" clip-path="url(#p94b5a83eb2)" style="fill: #486afb; stroke: #0000ff; stroke-width: 0.2; stroke-linejoin: miter"/>
   </g>
   <g id="patch_58">
    <path d="M 269.652813 297.16 
L 273.179813 297.16 
L 273.179813 268.502677 
L 269.652813 268.502677 
z
" clip-path="url(#p94b5a83eb2)" style="fill: #486afb; stroke: #0000ff; stroke-width: 0.2; stroke-linejoin: miter"/>
   </g>
   <g id="patch_59">
    <path d="M 273.179813 297.16 
L 276.706813 297.16 
L 276.706813 275.015705 
L 273.179813 275.015705 
z
" clip-path="url(#p94b5a83eb2)" style="fill: #486afb; stroke: #0000ff; stroke-width: 0.2; stroke-linejoin: miter"/>
   </g>
   <g id="patch_60">
    <path d="M 276.706813 297.16 
L 280.233812 297.16 
L 280.233812 276.318311 
L 276.706813 276.318311 
z
" clip-path="url(#p94b5a83eb2)" style="fill: #486afb; stroke: #0000ff; stroke-width: 0.2; stroke-linejoin: miter"/>
   </g>
   <g id="patch_61">
    <path d="M 280.233812 297.16 
L 283.760812 297.16 
L 283.760812 234.634933 
L 280.233812 234.634933 
z
" clip-path="url(#p94b5a83eb2)" style="fill: #486afb; stroke: #0000ff; stroke-width: 0.2; stroke-linejoin: miter"/>
   </g>
   <g id="patch_62">
    <path d="M 283.760812 297.16 
L 287.287813 297.16 
L 287.287813 284.133944 
L 283.760812 284.133944 
z
" clip-path="url(#p94b5a83eb2)" style="fill: #486afb; stroke: #0000ff; stroke-width: 0.2; stroke-linejoin: miter"/>
   </g>
   <g id="patch_63">
    <path d="M 287.287813 297.16 
L 290.814813 297.16 
L 290.814813 282.831339 
L 287.287813 282.831339 
z
" clip-path="url(#p94b5a83eb2)" style="fill: #486afb; stroke: #0000ff; stroke-width: 0.2; stroke-linejoin: miter"/>
   </g>
   <g id="patch_64">
    <path d="M 290.814813 297.16 
L 294.341813 297.16 
L 294.341813 286.739155 
L 290.814813 286.739155 
z
" clip-path="url(#p94b5a83eb2)" style="fill: #486afb; stroke: #0000ff; stroke-width: 0.2; stroke-linejoin: miter"/>
   </g>
   <g id="patch_65">
    <path d="M 294.341813 297.16 
L 297.868813 297.16 
L 297.868813 280.226128 
L 294.341813 280.226128 
z
" clip-path="url(#p94b5a83eb2)" style="fill: #486afb; stroke: #0000ff; stroke-width: 0.2; stroke-linejoin: miter"/>
   </g>
   <g id="patch_66">
    <path d="M 297.868813 297.16 
L 301.395813 297.16 
L 301.395813 260.687044 
L 297.868813 260.687044 
z
" clip-path="url(#p94b5a83eb2)" style="fill: #486afb; stroke: #0000ff; stroke-width: 0.2; stroke-linejoin: miter"/>
   </g>
   <g id="patch_67">
    <path d="M 301.395813 297.16 
L 304.922813 297.16 
L 304.922813 286.739155 
L 301.395813 286.739155 
z
" clip-path="url(#p94b5a83eb2)" style="fill: #486afb; stroke: #0000ff; stroke-width: 0.2; stroke-linejoin: miter"/>
   </g>
   <g id="patch_68">
    <path d="M 304.922813 297.16 
L 308.449813 297.16 
L 308.449813 284.133944 
L 304.922813 284.133944 
z
" clip-path="url(#p94b5a83eb2)" style="fill: #486afb; stroke: #0000ff; stroke-width: 0.2; stroke-linejoin: miter"/>
   </g>
   <g id="patch_69">
    <path d="M 308.449813 297.16 
L 311.976812 297.16 
L 311.976812 285.43655 
L 308.449813 285.43655 
z
" clip-path="url(#p94b5a83eb2)" style="fill: #486afb; stroke: #0000ff; stroke-width: 0.2; stroke-linejoin: miter"/>
   </g>
   <g id="patch_70">
    <path d="M 311.976812 297.16 
L 315.503812 297.16 
L 315.503812 281.528733 
L 311.976812 281.528733 
z
" clip-path="url(#p94b5a83eb2)" style="fill: #486afb; stroke: #0000ff; stroke-width: 0.2; stroke-linejoin: miter"/>
   </g>
   <g id="patch_71">
    <path d="M 315.503813 297.16 
L 319.030813 297.16 
L 319.030813 259.384438 
L 315.503813 259.384438 
z
" clip-path="url(#p94b5a83eb2)" style="fill: #486afb; stroke: #0000ff; stroke-width: 0.2; stroke-linejoin: miter"/>
   </g>
   <g id="patch_72">
    <path d="M 319.030813 297.16 
L 322.557813 297.16 
L 322.557813 281.528733 
L 319.030813 281.528733 
z
" clip-path="url(#p94b5a83eb2)" style="fill: #486afb; stroke: #0000ff; stroke-width: 0.2; stroke-linejoin: miter"/>
   </g>
   <g id="patch_73">
    <path d="M 322.557813 297.16 
L 326.084812 297.16 
L 326.084812 288.041761 
L 322.557813 288.041761 
z
" clip-path="url(#p94b5a83eb2)" style="fill: #486afb; stroke: #0000ff; stroke-width: 0.2; stroke-linejoin: miter"/>
   </g>
   <g id="patch_74">
    <path d="M 326.084813 297.16 
L 329.611813 297.16 
L 329.611813 290.646972 
L 326.084813 290.646972 
z
" clip-path="url(#p94b5a83eb2)" style="fill: #486afb; stroke: #0000ff; stroke-width: 0.2; stroke-linejoin: miter"/>
   </g>
   <g id="patch_75">
    <path d="M 329.611813 297.16 
L 333.138813 297.16 
L 333.138813 290.646972 
L 329.611813 290.646972 
z
" clip-path="url(#p94b5a83eb2)" style="fill: #486afb; stroke: #0000ff; stroke-width: 0.2; stroke-linejoin: miter"/>
   </g>
   <g id="patch_76">
    <path d="M 333.138813 297.16 
L 336.665813 297.16 
L 336.665813 275.015705 
L 333.138813 275.015705 
z
" clip-path="url(#p94b5a83eb2)" style="fill: #486afb; stroke: #0000ff; stroke-width: 0.2; stroke-linejoin: miter"/>
   </g>
   <g id="patch_77">
    <path d="M 336.665813 297.16 
L 340.192813 297.16 
L 340.192813 289.344367 
L 336.665813 289.344367 
z
" clip-path="url(#p94b5a83eb2)" style="fill: #486afb; stroke: #0000ff; stroke-width: 0.2; stroke-linejoin: miter"/>
   </g>
   <g id="patch_78">
    <path d="M 340.192813 297.16 
L 343.719813 297.16 
L 343.719813 289.344367 
L 340.192813 289.344367 
z
" clip-path="url(#p94b5a83eb2)" style="fill: #486afb; stroke: #0000ff; stroke-width: 0.2; stroke-linejoin: miter"/>
   </g>
   <g id="patch_79">
    <path d="M 343.719813 297.16 
L 347.246813 297.16 
L 347.246813 289.344367 
L 343.719813 289.344367 
z
" clip-path="url(#p94b5a83eb2)" style="fill: #486afb; stroke: #0000ff; stroke-width: 0.2; stroke-linejoin: miter"/>
   </g>
   <g id="patch_80">
    <path d="M 347.246813 297.16 
L 350.773813 297.16 
L 350.773813 288.041761 
L 347.246813 288.041761 
z
" clip-path="url(#p94b5a83eb2)" style="fill: #486afb; stroke: #0000ff; stroke-width: 0.2; stroke-linejoin: miter"/>
   </g>
   <g id="patch_81">
    <path d="M 350.773813 297.16 
L 354.300813 297.16 
L 354.300813 250.266199 
L 350.773813 250.266199 
z
" clip-path="url(#p94b5a83eb2)" style="fill: #486afb; stroke: #0000ff; stroke-width: 0.2; stroke-linejoin: miter"/>
   </g>
   <g id="patch_82">
    <path d="M 354.300813 297.16 
L 357.827813 297.16 
L 357.827813 293.252183 
L 354.300813 293.252183 
z
" clip-path="url(#p94b5a83eb2)" style="fill: #486afb; stroke: #0000ff; stroke-width: 0.2; stroke-linejoin: miter"/>
   </g>
   <g id="patch_83">
    <path d="M 357.827813 297.16 
L 361.354813 297.16 
L 361.354813 289.344367 
L 357.827813 289.344367 
z
" clip-path="url(#p94b5a83eb2)" style="fill: #486afb; stroke: #0000ff; stroke-width: 0.2; stroke-linejoin: miter"/>
   </g>
   <g id="patch_84">
    <path d="M 361.354813 297.16 
L 364.881813 297.16 
L 364.881813 289.344367 
L 361.354813 289.344367 
z
" clip-path="url(#p94b5a83eb2)" style="fill: #486afb; stroke: #0000ff; stroke-width: 0.2; stroke-linejoin: miter"/>
   </g>
   <g id="patch_85">
    <path d="M 364.881813 297.16 
L 368.408813 297.16 
L 368.408813 291.949578 
L 364.881813 291.949578 
z
" clip-path="url(#p94b5a83eb2)" style="fill: #486afb; stroke: #0000ff; stroke-width: 0.2; stroke-linejoin: miter"/>
   </g>
   <g id="patch_86">
    <path d="M 368.408813 297.16 
L 371.935812 297.16 
L 371.935812 285.43655 
L 368.408813 285.43655 
z
" clip-path="url(#p94b5a83eb2)" style="fill: #486afb; stroke: #0000ff; stroke-width: 0.2; stroke-linejoin: miter"/>
   </g>
   <g id="patch_87">
    <path d="M 371.935813 297.16 
L 375.462813 297.16 
L 375.462813 290.646972 
L 371.935813 290.646972 
z
" clip-path="url(#p94b5a83eb2)" style="fill: #486afb; stroke: #0000ff; stroke-width: 0.2; stroke-linejoin: miter"/>
   </g>
   <g id="patch_88">
    <path d="M 375.462813 297.16 
L 378.989813 297.16 
L 378.989813 290.646972 
L 375.462813 290.646972 
z
" clip-path="url(#p94b5a83eb2)" style="fill: #486afb; stroke: #0000ff; stroke-width: 0.2; stroke-linejoin: miter"/>
   </g>
   <g id="patch_89">
    <path d="M 378.989813 297.16 
L 382.516813 297.16 
L 382.516813 294.554789 
L 378.989813 294.554789 
z
" clip-path="url(#p94b5a83eb2)" style="fill: #486afb; stroke: #0000ff; stroke-width: 0.2; stroke-linejoin: miter"/>
   </g>
   <g id="patch_90">
    <path d="M 382.516813 297.16 
L 386.043813 297.16 
L 386.043813 289.344367 
L 382.516813 289.344367 
z
" clip-path="url(#p94b5a83eb2)" style="fill: #486afb; stroke: #0000ff; stroke-width: 0.2; stroke-linejoin: miter"/>
   </g>
   <g id="patch_91">
    <path d="M 386.043813 297.16 
L 389.570813 297.16 
L 389.570813 280.226128 
L 386.043813 280.226128 
z
" clip-path="url(#p94b5a83eb2)" style="fill: #486afb; stroke: #0000ff; stroke-width: 0.2; stroke-linejoin: miter"/>
   </g>
   <g id="patch_92">
    <path d="M 389.570813 297.16 
L 393.097813 297.16 
L 393.097813 293.252183 
L 389.570813 293.252183 
z
" clip-path="url(#p94b5a83eb2)" style="fill: #486afb; stroke: #0000ff; stroke-width: 0.2; stroke-linejoin: miter"/>
   </g>
   <g id="patch_93">
    <path d="M 393.097813 297.16 
L 396.624813 297.16 
L 396.624813 291.949578 
L 393.097813 291.949578 
z
" clip-path="url(#p94b5a83eb2)" style="fill: #486afb; stroke: #0000ff; stroke-width: 0.2; stroke-linejoin: miter"/>
   </g>
   <g id="patch_94">
    <path d="M 396.624813 297.16 
L 400.151813 297.16 
L 400.151813 295.857394 
L 396.624813 295.857394 
z
" clip-path="url(#p94b5a83eb2)" style="fill: #486afb; stroke: #0000ff; stroke-width: 0.2; stroke-linejoin: miter"/>
   </g>
   <g id="patch_95">
    <path d="M 400.151813 297.16 
L 403.678813 297.16 
L 403.678813 293.252183 
L 400.151813 293.252183 
z
" clip-path="url(#p94b5a83eb2)" style="fill: #486afb; stroke: #0000ff; stroke-width: 0.2; stroke-linejoin: miter"/>
   </g>
   <g id="patch_96">
    <path d="M 403.678813 297.16 
L 407.205813 297.16 
L 407.205813 289.344367 
L 403.678813 289.344367 
z
" clip-path="url(#p94b5a83eb2)" style="fill: #486afb; stroke: #0000ff; stroke-width: 0.2; stroke-linejoin: miter"/>
   </g>
   <g id="patch_97">
    <path d="M 407.205813 297.16 
L 410.732813 297.16 
L 410.732813 278.923522 
L 407.205813 278.923522 
z
" clip-path="url(#p94b5a83eb2)" style="fill: #486afb; stroke: #0000ff; stroke-width: 0.2; stroke-linejoin: miter"/>
   </g>
   <g id="patch_98">
    <path d="M 410.732813 297.16 
L 414.259813 297.16 
L 414.259813 290.646972 
L 410.732813 290.646972 
z
" clip-path="url(#p94b5a83eb2)" style="fill: #486afb; stroke: #0000ff; stroke-width: 0.2; stroke-linejoin: miter"/>
   </g>
   <g id="patch_99">
    <path d="M 414.259813 297.16 
L 417.786813 297.16 
L 417.786813 290.646972 
L 414.259813 290.646972 
z
" clip-path="url(#p94b5a83eb2)" style="fill: #486afb; stroke: #0000ff; stroke-width: 0.2; stroke-linejoin: miter"/>
   </g>
   <g id="patch_100">
    <path d="M 417.786813 297.16 
L 421.313813 297.16 
L 421.313813 285.43655 
L 417.786813 285.43655 
z
" clip-path="url(#p94b5a83eb2)" style="fill: #486afb; stroke: #0000ff; stroke-width: 0.2; stroke-linejoin: miter"/>
   </g>
   <g id="patch_101">
    <path d="M 421.313813 297.16 
L 424.840813 297.16 
L 424.840813 264.594861 
L 421.313813 264.594861 
z
" clip-path="url(#p94b5a83eb2)" style="fill: #486afb; stroke: #0000ff; stroke-width: 0.2; stroke-linejoin: miter"/>
   </g>
   <g id="patch_102">
    <path d="M 424.840813 297.16 
L 428.367813 297.16 
L 428.367813 289.344367 
L 424.840813 289.344367 
z
" clip-path="url(#p94b5a83eb2)" style="fill: #486afb; stroke: #0000ff; stroke-width: 0.2; stroke-linejoin: miter"/>
   </g>
   <g id="matplotlib.axis_1">
    <g id="xtick_1">
     <g id="line2d_1">
      <path d="M 75.099579 297.16 
L 75.099579 7.2 
" clip-path="url(#p94b5a83eb2)" style="fill: none; stroke-dasharray: 2.22,0.96; stroke-dashoffset: 0; stroke: #6c6066; stroke-opacity: 0.4; stroke-width: 0.6"/>
     </g>
     <g id="line2d_2">
      <defs>
       <path id="m42b1c3aa5e" d="M 0 0 
L 0 3.5 
" style="stroke: #000000; stroke-width: 0.8"/>
      </defs>
      <g>
       <use xlink:href="#m42b1c3aa5e" x="75.099579" y="297.16" style="stroke: #000000; stroke-width: 0.8"/>
      </g>
     </g>
     <g id="text_1">
      <!-- 0 -->
      <g transform="translate(72.089422 311.811562) scale(0.1 -0.1)">
       <defs>
        <path id="DejaVuSansMono-30" d="M 1509 2344 
Q 1509 2516 1629 2641 
Q 1750 2766 1919 2766 
Q 2094 2766 2219 2641 
Q 2344 2516 2344 2344 
Q 2344 2169 2220 2047 
Q 2097 1925 1919 1925 
Q 1744 1925 1626 2044 
Q 1509 2163 1509 2344 
z
M 1925 4250 
Q 1484 4250 1267 3775 
Q 1050 3300 1050 2328 
Q 1050 1359 1267 884 
Q 1484 409 1925 409 
Q 2369 409 2586 884 
Q 2803 1359 2803 2328 
Q 2803 3300 2586 3775 
Q 2369 4250 1925 4250 
z
M 1925 4750 
Q 2672 4750 3055 4137 
Q 3438 3525 3438 2328 
Q 3438 1134 3055 521 
Q 2672 -91 1925 -91 
Q 1178 -91 797 521 
Q 416 1134 416 2328 
Q 416 3525 797 4137 
Q 1178 4750 1925 4750 
z
" transform="scale(0.015625)"/>
       </defs>
       <use xlink:href="#DejaVuSansMono-30"/>
      </g>
     </g>
    </g>
    <g id="xtick_2">
     <g id="line2d_3">
      <path d="M 144.396394 297.16 
L 144.396394 7.2 
" clip-path="url(#p94b5a83eb2)" style="fill: none; stroke-dasharray: 2.22,0.96; stroke-dashoffset: 0; stroke: #6c6066; stroke-opacity: 0.4; stroke-width: 0.6"/>
     </g>
     <g id="line2d_4">
      <g>
       <use xlink:href="#m42b1c3aa5e" x="144.396394" y="297.16" style="stroke: #000000; stroke-width: 0.8"/>
      </g>
     </g>
     <g id="text_2">
      <!-- 100 -->
      <g transform="translate(135.365925 311.811562) scale(0.1 -0.1)">
       <defs>
        <path id="DejaVuSansMono-31" d="M 844 531 
L 1825 531 
L 1825 4097 
L 769 3859 
L 769 4434 
L 1819 4666 
L 2450 4666 
L 2450 531 
L 3419 531 
L 3419 0 
L 844 0 
L 844 531 
z
" transform="scale(0.015625)"/>
       </defs>
       <use xlink:href="#DejaVuSansMono-31"/>
       <use xlink:href="#DejaVuSansMono-30" x="60.205078"/>
       <use xlink:href="#DejaVuSansMono-30" x="120.410156"/>
      </g>
     </g>
    </g>
    <g id="xtick_3">
     <g id="line2d_5">
      <path d="M 213.693209 297.16 
L 213.693209 7.2 
" clip-path="url(#p94b5a83eb2)" style="fill: none; stroke-dasharray: 2.22,0.96; stroke-dashoffset: 0; stroke: #6c6066; stroke-opacity: 0.4; stroke-width: 0.6"/>
     </g>
     <g id="line2d_6">
      <g>
       <use xlink:href="#m42b1c3aa5e" x="213.693209" y="297.16" style="stroke: #000000; stroke-width: 0.8"/>
      </g>
     </g>
     <g id="text_3">
      <!-- 200 -->
      <g transform="translate(204.66274 311.811562) scale(0.1 -0.1)">
       <defs>
        <path id="DejaVuSansMono-32" d="M 1166 531 
L 3309 531 
L 3309 0 
L 475 0 
L 475 531 
Q 1059 1147 1496 1619 
Q 1934 2091 2100 2284 
Q 2413 2666 2522 2902 
Q 2631 3138 2631 3384 
Q 2631 3775 2401 3997 
Q 2172 4219 1772 4219 
Q 1488 4219 1175 4116 
Q 863 4013 513 3803 
L 513 4441 
Q 834 4594 1145 4672 
Q 1456 4750 1759 4750 
Q 2444 4750 2861 4386 
Q 3278 4022 3278 3431 
Q 3278 3131 3139 2831 
Q 3000 2531 2688 2169 
Q 2513 1966 2180 1606 
Q 1847 1247 1166 531 
z
" transform="scale(0.015625)"/>
       </defs>
       <use xlink:href="#DejaVuSansMono-32"/>
       <use xlink:href="#DejaVuSansMono-30" x="60.205078"/>
       <use xlink:href="#DejaVuSansMono-30" x="120.410156"/>
      </g>
     </g>
    </g>
    <g id="xtick_4">
     <g id="line2d_7">
      <path d="M 282.990024 297.16 
L 282.990024 7.2 
" clip-path="url(#p94b5a83eb2)" style="fill: none; stroke-dasharray: 2.22,0.96; stroke-dashoffset: 0; stroke: #6c6066; stroke-opacity: 0.4; stroke-width: 0.6"/>
     </g>
     <g id="line2d_8">
      <g>
       <use xlink:href="#m42b1c3aa5e" x="282.990024" y="297.16" style="stroke: #000000; stroke-width: 0.8"/>
      </g>
     </g>
     <g id="text_4">
      <!-- 300 -->
      <g transform="translate(273.959555 311.811562) scale(0.1 -0.1)">
       <defs>
        <path id="DejaVuSansMono-33" d="M 2425 2497 
Q 2884 2375 3128 2064 
Q 3372 1753 3372 1288 
Q 3372 644 2939 276 
Q 2506 -91 1741 -91 
Q 1419 -91 1084 -31 
Q 750 28 428 141 
L 428 769 
Q 747 603 1056 522 
Q 1366 441 1672 441 
Q 2191 441 2469 675 
Q 2747 909 2747 1350 
Q 2747 1756 2469 1995 
Q 2191 2234 1716 2234 
L 1234 2234 
L 1234 2753 
L 1716 2753 
Q 2150 2753 2394 2943 
Q 2638 3134 2638 3475 
Q 2638 3834 2411 4026 
Q 2184 4219 1766 4219 
Q 1488 4219 1191 4156 
Q 894 4094 569 3969 
L 569 4550 
Q 947 4650 1242 4700 
Q 1538 4750 1766 4750 
Q 2447 4750 2855 4408 
Q 3263 4066 3263 3500 
Q 3263 3116 3048 2859 
Q 2834 2603 2425 2497 
z
" transform="scale(0.015625)"/>
       </defs>
       <use xlink:href="#DejaVuSansMono-33"/>
       <use xlink:href="#DejaVuSansMono-30" x="60.205078"/>
       <use xlink:href="#DejaVuSansMono-30" x="120.410156"/>
      </g>
     </g>
    </g>
    <g id="xtick_5">
     <g id="line2d_9">
      <path d="M 352.286839 297.16 
L 352.286839 7.2 
" clip-path="url(#p94b5a83eb2)" style="fill: none; stroke-dasharray: 2.22,0.96; stroke-dashoffset: 0; stroke: #6c6066; stroke-opacity: 0.4; stroke-width: 0.6"/>
     </g>
     <g id="line2d_10">
      <g>
       <use xlink:href="#m42b1c3aa5e" x="352.286839" y="297.16" style="stroke: #000000; stroke-width: 0.8"/>
      </g>
     </g>
     <g id="text_5">
      <!-- 400 -->
      <g transform="translate(343.25637 311.811562) scale(0.1 -0.1)">
       <defs>
        <path id="DejaVuSansMono-34" d="M 2297 4091 
L 825 1625 
L 2297 1625 
L 2297 4091 
z
M 2194 4666 
L 2925 4666 
L 2925 1625 
L 3547 1625 
L 3547 1113 
L 2925 1113 
L 2925 0 
L 2297 0 
L 2297 1113 
L 319 1113 
L 319 1709 
L 2194 4666 
z
" transform="scale(0.015625)"/>
       </defs>
       <use xlink:href="#DejaVuSansMono-34"/>
       <use xlink:href="#DejaVuSansMono-30" x="60.205078"/>
       <use xlink:href="#DejaVuSansMono-30" x="120.410156"/>
      </g>
     </g>
    </g>
    <g id="xtick_6">
     <g id="line2d_11">
      <path d="M 421.583654 297.16 
L 421.583654 7.2 
" clip-path="url(#p94b5a83eb2)" style="fill: none; stroke-dasharray: 2.22,0.96; stroke-dashoffset: 0; stroke: #6c6066; stroke-opacity: 0.4; stroke-width: 0.6"/>
     </g>
     <g id="line2d_12">
      <g>
       <use xlink:href="#m42b1c3aa5e" x="421.583654" y="297.16" style="stroke: #000000; stroke-width: 0.8"/>
      </g>
     </g>
     <g id="text_6">
      <!-- 500 -->
      <g transform="translate(412.553186 311.811562) scale(0.1 -0.1)">
       <defs>
        <path id="DejaVuSansMono-35" d="M 647 4666 
L 3009 4666 
L 3009 4134 
L 1222 4134 
L 1222 2988 
Q 1356 3038 1492 3061 
Q 1628 3084 1766 3084 
Q 2491 3084 2916 2656 
Q 3341 2228 3341 1497 
Q 3341 759 2895 334 
Q 2450 -91 1678 -91 
Q 1306 -91 998 -41 
Q 691 9 447 109 
L 447 750 
Q 734 594 1025 517 
Q 1316 441 1619 441 
Q 2141 441 2423 716 
Q 2706 991 2706 1497 
Q 2706 1997 2414 2275 
Q 2122 2553 1600 2553 
Q 1347 2553 1106 2495 
Q 866 2438 647 2322 
L 647 4666 
z
" transform="scale(0.015625)"/>
       </defs>
       <use xlink:href="#DejaVuSansMono-35"/>
       <use xlink:href="#DejaVuSansMono-30" x="60.205078"/>
       <use xlink:href="#DejaVuSansMono-30" x="120.410156"/>
      </g>
     </g>
    </g>
    <g id="text_7">
     <!-- $x=$price -->
     <g transform="translate(227.867813 325.5225) scale(0.1 -0.1)">
      <defs>
       <path id="DejaVuSans-Oblique-78" d="M 3841 3500 
L 2234 1784 
L 3219 0 
L 2559 0 
L 1819 1388 
L 531 0 
L -166 0 
L 1556 1844 
L 641 3500 
L 1300 3500 
L 1972 2234 
L 3144 3500 
L 3841 3500 
z
" transform="scale(0.015625)"/>
       <path id="DejaVuSans-3d" d="M 678 2906 
L 4684 2906 
L 4684 2381 
L 678 2381 
L 678 2906 
z
M 678 1631 
L 4684 1631 
L 4684 1100 
L 678 1100 
L 678 1631 
z
" transform="scale(0.015625)"/>
       <path id="DejaVuSansMono-70" d="M 1172 441 
L 1172 -1331 
L 594 -1331 
L 594 3500 
L 1172 3500 
L 1172 3053 
Q 1316 3313 1555 3448 
Q 1794 3584 2106 3584 
Q 2741 3584 3102 3093 
Q 3463 2603 3463 1734 
Q 3463 881 3100 395 
Q 2738 -91 2106 -91 
Q 1788 -91 1548 45 
Q 1309 181 1172 441 
z
M 2859 1747 
Q 2859 2416 2648 2756 
Q 2438 3097 2022 3097 
Q 1603 3097 1387 2755 
Q 1172 2413 1172 1747 
Q 1172 1084 1387 740 
Q 1603 397 2022 397 
Q 2438 397 2648 737 
Q 2859 1078 2859 1747 
z
" transform="scale(0.015625)"/>
       <path id="DejaVuSansMono-72" d="M 3609 2778 
Q 3425 2922 3234 2987 
Q 3044 3053 2816 3053 
Q 2278 3053 1993 2715 
Q 1709 2378 1709 1741 
L 1709 0 
L 1131 0 
L 1131 3500 
L 1709 3500 
L 1709 2816 
Q 1853 3188 2151 3386 
Q 2450 3584 2859 3584 
Q 3072 3584 3256 3531 
Q 3441 3478 3609 3366 
L 3609 2778 
z
" transform="scale(0.015625)"/>
       <path id="DejaVuSansMono-69" d="M 800 3500 
L 2272 3500 
L 2272 447 
L 3413 447 
L 3413 0 
L 556 0 
L 556 447 
L 1697 447 
L 1697 3053 
L 800 3053 
L 800 3500 
z
M 1697 4863 
L 2272 4863 
L 2272 4134 
L 1697 4134 
L 1697 4863 
z
" transform="scale(0.015625)"/>
       <path id="DejaVuSansMono-63" d="M 3316 178 
Q 3084 44 2839 -23 
Q 2594 -91 2338 -91 
Q 1525 -91 1067 396 
Q 609 884 609 1747 
Q 609 2609 1067 3096 
Q 1525 3584 2338 3584 
Q 2591 3584 2831 3518 
Q 3072 3453 3316 3316 
L 3316 2713 
Q 3088 2916 2858 3006 
Q 2628 3097 2338 3097 
Q 1797 3097 1506 2747 
Q 1216 2397 1216 1747 
Q 1216 1100 1508 748 
Q 1800 397 2338 397 
Q 2638 397 2875 489 
Q 3113 581 3316 775 
L 3316 178 
z
" transform="scale(0.015625)"/>
       <path id="DejaVuSansMono-65" d="M 3475 1894 
L 3475 1613 
L 984 1613 
L 984 1594 
Q 984 1022 1282 709 
Q 1581 397 2125 397 
Q 2400 397 2700 484 
Q 3000 572 3341 750 
L 3341 178 
Q 3013 44 2708 -23 
Q 2403 -91 2119 -91 
Q 1303 -91 843 398 
Q 384 888 384 1747 
Q 384 2584 834 3084 
Q 1284 3584 2034 3584 
Q 2703 3584 3089 3131 
Q 3475 2678 3475 1894 
z
M 2900 2063 
Q 2888 2569 2661 2833 
Q 2434 3097 2009 3097 
Q 1594 3097 1325 2822 
Q 1056 2547 1006 2059 
L 2900 2063 
z
" transform="scale(0.015625)"/>
      </defs>
      <use xlink:href="#DejaVuSans-Oblique-78" transform="translate(0 0.015625)"/>
      <use xlink:href="#DejaVuSans-3d" transform="translate(78.662109 0.015625)"/>
      <use xlink:href="#DejaVuSansMono-70" transform="translate(181.933594 0.015625)"/>
      <use xlink:href="#DejaVuSansMono-72" transform="translate(242.138672 0.015625)"/>
      <use xlink:href="#DejaVuSansMono-69" transform="translate(302.34375 0.015625)"/>
      <use xlink:href="#DejaVuSansMono-63" transform="translate(362.548828 0.015625)"/>
      <use xlink:href="#DejaVuSansMono-65" transform="translate(422.753906 0.015625)"/>
     </g>
    </g>
   </g>
   <g id="matplotlib.axis_2">
    <g id="ytick_1">
     <g id="line2d_13">
      <path d="M 58.032813 297.16 
L 446.002813 297.16 
" clip-path="url(#p94b5a83eb2)" style="fill: none; stroke-dasharray: 2.22,0.96; stroke-dashoffset: 0; stroke: #6c6066; stroke-opacity: 0.4; stroke-width: 0.6"/>
     </g>
     <g id="line2d_14">
      <defs>
       <path id="mc3b58253c2" d="M 0 0 
L -3.5 0 
" style="stroke: #000000; stroke-width: 0.8"/>
      </defs>
      <g>
       <use xlink:href="#mc3b58253c2" x="58.032813" y="297.16" style="stroke: #000000; stroke-width: 0.8"/>
      </g>
     </g>
     <g id="text_8">
      <!-- 0.000 -->
      <g transform="translate(20.93125 300.985781) scale(0.1 -0.1)">
       <defs>
        <path id="DejaVuSansMono-2e" d="M 1528 953 
L 2316 953 
L 2316 0 
L 1528 0 
L 1528 953 
z
" transform="scale(0.015625)"/>
       </defs>
       <use xlink:href="#DejaVuSansMono-30"/>
       <use xlink:href="#DejaVuSansMono-2e" x="60.205078"/>
       <use xlink:href="#DejaVuSansMono-30" x="120.410156"/>
       <use xlink:href="#DejaVuSansMono-30" x="180.615234"/>
       <use xlink:href="#DejaVuSansMono-30" x="240.820312"/>
      </g>
     </g>
    </g>
    <g id="ytick_2">
     <g id="line2d_15">
      <path d="M 58.032813 244.4923 
L 446.002813 244.4923 
" clip-path="url(#p94b5a83eb2)" style="fill: none; stroke-dasharray: 2.22,0.96; stroke-dashoffset: 0; stroke: #6c6066; stroke-opacity: 0.4; stroke-width: 0.6"/>
     </g>
     <g id="line2d_16">
      <g>
       <use xlink:href="#mc3b58253c2" x="58.032813" y="244.4923" style="stroke: #000000; stroke-width: 0.8"/>
      </g>
     </g>
     <g id="text_9">
      <!-- 0.002 -->
      <g transform="translate(20.93125 248.318081) scale(0.1 -0.1)">
       <use xlink:href="#DejaVuSansMono-30"/>
       <use xlink:href="#DejaVuSansMono-2e" x="60.205078"/>
       <use xlink:href="#DejaVuSansMono-30" x="120.410156"/>
       <use xlink:href="#DejaVuSansMono-30" x="180.615234"/>
       <use xlink:href="#DejaVuSansMono-32" x="240.820312"/>
      </g>
     </g>
    </g>
    <g id="ytick_3">
     <g id="line2d_17">
      <path d="M 58.032813 191.8246 
L 446.002813 191.8246 
" clip-path="url(#p94b5a83eb2)" style="fill: none; stroke-dasharray: 2.22,0.96; stroke-dashoffset: 0; stroke: #6c6066; stroke-opacity: 0.4; stroke-width: 0.6"/>
     </g>
     <g id="line2d_18">
      <g>
       <use xlink:href="#mc3b58253c2" x="58.032813" y="191.8246" style="stroke: #000000; stroke-width: 0.8"/>
      </g>
     </g>
     <g id="text_10">
      <!-- 0.004 -->
      <g transform="translate(20.93125 195.650382) scale(0.1 -0.1)">
       <use xlink:href="#DejaVuSansMono-30"/>
       <use xlink:href="#DejaVuSansMono-2e" x="60.205078"/>
       <use xlink:href="#DejaVuSansMono-30" x="120.410156"/>
       <use xlink:href="#DejaVuSansMono-30" x="180.615234"/>
       <use xlink:href="#DejaVuSansMono-34" x="240.820312"/>
      </g>
     </g>
    </g>
    <g id="ytick_4">
     <g id="line2d_19">
      <path d="M 58.032813 139.156901 
L 446.002813 139.156901 
" clip-path="url(#p94b5a83eb2)" style="fill: none; stroke-dasharray: 2.22,0.96; stroke-dashoffset: 0; stroke: #6c6066; stroke-opacity: 0.4; stroke-width: 0.6"/>
     </g>
     <g id="line2d_20">
      <g>
       <use xlink:href="#mc3b58253c2" x="58.032813" y="139.156901" style="stroke: #000000; stroke-width: 0.8"/>
      </g>
     </g>
     <g id="text_11">
      <!-- 0.006 -->
      <g transform="translate(20.93125 142.982682) scale(0.1 -0.1)">
       <defs>
        <path id="DejaVuSansMono-36" d="M 3097 4563 
L 3097 3981 
Q 2900 4097 2678 4158 
Q 2456 4219 2216 4219 
Q 1616 4219 1306 3767 
Q 997 3316 997 2438 
Q 1147 2750 1412 2917 
Q 1678 3084 2022 3084 
Q 2697 3084 3067 2670 
Q 3438 2256 3438 1497 
Q 3438 741 3056 325 
Q 2675 -91 1984 -91 
Q 1172 -91 794 492 
Q 416 1075 416 2328 
Q 416 3509 870 4129 
Q 1325 4750 2188 4750 
Q 2419 4750 2650 4701 
Q 2881 4653 3097 4563 
z
M 1972 2591 
Q 1569 2591 1337 2300 
Q 1106 2009 1106 1497 
Q 1106 984 1337 693 
Q 1569 403 1972 403 
Q 2391 403 2603 679 
Q 2816 956 2816 1497 
Q 2816 2041 2603 2316 
Q 2391 2591 1972 2591 
z
" transform="scale(0.015625)"/>
       </defs>
       <use xlink:href="#DejaVuSansMono-30"/>
       <use xlink:href="#DejaVuSansMono-2e" x="60.205078"/>
       <use xlink:href="#DejaVuSansMono-30" x="120.410156"/>
       <use xlink:href="#DejaVuSansMono-30" x="180.615234"/>
       <use xlink:href="#DejaVuSansMono-36" x="240.820312"/>
      </g>
     </g>
    </g>
    <g id="ytick_5">
     <g id="line2d_21">
      <path d="M 58.032813 86.489201 
L 446.002813 86.489201 
" clip-path="url(#p94b5a83eb2)" style="fill: none; stroke-dasharray: 2.22,0.96; stroke-dashoffset: 0; stroke: #6c6066; stroke-opacity: 0.4; stroke-width: 0.6"/>
     </g>
     <g id="line2d_22">
      <g>
       <use xlink:href="#mc3b58253c2" x="58.032813" y="86.489201" style="stroke: #000000; stroke-width: 0.8"/>
      </g>
     </g>
     <g id="text_12">
      <!-- 0.008 -->
      <g transform="translate(20.93125 90.314982) scale(0.1 -0.1)">
       <defs>
        <path id="DejaVuSansMono-38" d="M 1925 2216 
Q 1503 2216 1273 1980 
Q 1044 1744 1044 1313 
Q 1044 881 1276 642 
Q 1509 403 1925 403 
Q 2350 403 2579 639 
Q 2809 875 2809 1313 
Q 2809 1741 2576 1978 
Q 2344 2216 1925 2216 
z
M 1375 2478 
Q 972 2581 745 2862 
Q 519 3144 519 3541 
Q 519 4097 897 4423 
Q 1275 4750 1925 4750 
Q 2578 4750 2956 4423 
Q 3334 4097 3334 3541 
Q 3334 3144 3107 2862 
Q 2881 2581 2478 2478 
Q 2947 2375 3195 2062 
Q 3444 1750 3444 1253 
Q 3444 622 3041 265 
Q 2638 -91 1925 -91 
Q 1213 -91 811 264 
Q 409 619 409 1247 
Q 409 1747 657 2061 
Q 906 2375 1375 2478 
z
M 1147 3481 
Q 1147 3106 1347 2909 
Q 1547 2713 1925 2713 
Q 2306 2713 2506 2909 
Q 2706 3106 2706 3481 
Q 2706 3863 2507 4063 
Q 2309 4263 1925 4263 
Q 1547 4263 1347 4061 
Q 1147 3859 1147 3481 
z
" transform="scale(0.015625)"/>
       </defs>
       <use xlink:href="#DejaVuSansMono-30"/>
       <use xlink:href="#DejaVuSansMono-2e" x="60.205078"/>
       <use xlink:href="#DejaVuSansMono-30" x="120.410156"/>
       <use xlink:href="#DejaVuSansMono-30" x="180.615234"/>
       <use xlink:href="#DejaVuSansMono-38" x="240.820312"/>
      </g>
     </g>
    </g>
    <g id="ytick_6">
     <g id="line2d_23">
      <path d="M 58.032813 33.821501 
L 446.002813 33.821501 
" clip-path="url(#p94b5a83eb2)" style="fill: none; stroke-dasharray: 2.22,0.96; stroke-dashoffset: 0; stroke: #6c6066; stroke-opacity: 0.4; stroke-width: 0.6"/>
     </g>
     <g id="line2d_24">
      <g>
       <use xlink:href="#mc3b58253c2" x="58.032813" y="33.821501" style="stroke: #000000; stroke-width: 0.8"/>
      </g>
     </g>
     <g id="text_13">
      <!-- 0.010 -->
      <g transform="translate(20.93125 37.647282) scale(0.1 -0.1)">
       <use xlink:href="#DejaVuSansMono-30"/>
       <use xlink:href="#DejaVuSansMono-2e" x="60.205078"/>
       <use xlink:href="#DejaVuSansMono-30" x="120.410156"/>
       <use xlink:href="#DejaVuSansMono-31" x="180.615234"/>
       <use xlink:href="#DejaVuSansMono-30" x="240.820312"/>
      </g>
     </g>
    </g>
    <g id="text_14">
     <!-- probability -->
     <g transform="translate(14.851563 185.291719) rotate(-90) scale(0.1 -0.1)">
      <defs>
       <path id="DejaVuSansMono-6f" d="M 1925 3097 
Q 1488 3097 1263 2756 
Q 1038 2416 1038 1747 
Q 1038 1081 1263 739 
Q 1488 397 1925 397 
Q 2366 397 2591 739 
Q 2816 1081 2816 1747 
Q 2816 2416 2591 2756 
Q 2366 3097 1925 3097 
z
M 1925 3584 
Q 2653 3584 3039 3112 
Q 3425 2641 3425 1747 
Q 3425 850 3040 379 
Q 2656 -91 1925 -91 
Q 1197 -91 812 379 
Q 428 850 428 1747 
Q 428 2641 812 3112 
Q 1197 3584 1925 3584 
z
" transform="scale(0.015625)"/>
       <path id="DejaVuSansMono-62" d="M 2869 1747 
Q 2869 2416 2656 2756 
Q 2444 3097 2028 3097 
Q 1609 3097 1393 2755 
Q 1178 2413 1178 1747 
Q 1178 1084 1393 740 
Q 1609 397 2028 397 
Q 2444 397 2656 737 
Q 2869 1078 2869 1747 
z
M 1178 3053 
Q 1316 3309 1558 3446 
Q 1800 3584 2119 3584 
Q 2750 3584 3112 3098 
Q 3475 2613 3475 1759 
Q 3475 894 3111 401 
Q 2747 -91 2113 -91 
Q 1800 -91 1561 45 
Q 1322 181 1178 441 
L 1178 0 
L 603 0 
L 603 4863 
L 1178 4863 
L 1178 3053 
z
" transform="scale(0.015625)"/>
       <path id="DejaVuSansMono-61" d="M 2194 1759 
L 2003 1759 
Q 1500 1759 1245 1582 
Q 991 1406 991 1056 
Q 991 741 1181 566 
Q 1372 391 1709 391 
Q 2184 391 2456 720 
Q 2728 1050 2731 1631 
L 2731 1759 
L 2194 1759 
z
M 3309 1997 
L 3309 0 
L 2731 0 
L 2731 519 
Q 2547 206 2267 57 
Q 1988 -91 1588 -91 
Q 1053 -91 734 211 
Q 416 513 416 1019 
Q 416 1603 808 1906 
Q 1200 2209 1959 2209 
L 2731 2209 
L 2731 2300 
Q 2728 2719 2518 2908 
Q 2309 3097 1850 3097 
Q 1556 3097 1256 3012 
Q 956 2928 672 2766 
L 672 3341 
Q 991 3463 1283 3523 
Q 1575 3584 1850 3584 
Q 2284 3584 2592 3456 
Q 2900 3328 3091 3072 
Q 3209 2916 3259 2686 
Q 3309 2456 3309 1997 
z
" transform="scale(0.015625)"/>
       <path id="DejaVuSansMono-6c" d="M 1997 1269 
Q 1997 881 2139 684 
Q 2281 488 2559 488 
L 3231 488 
L 3231 0 
L 2503 0 
Q 1988 0 1705 331 
Q 1422 663 1422 1269 
L 1422 4447 
L 500 4447 
L 500 4897 
L 1997 4897 
L 1997 1269 
z
" transform="scale(0.015625)"/>
       <path id="DejaVuSansMono-74" d="M 1919 4494 
L 1919 3500 
L 3225 3500 
L 3225 3053 
L 1919 3053 
L 1919 1153 
Q 1919 766 2066 612 
Q 2213 459 2578 459 
L 3225 459 
L 3225 0 
L 2522 0 
Q 1875 0 1609 259 
Q 1344 519 1344 1153 
L 1344 3053 
L 409 3053 
L 409 3500 
L 1344 3500 
L 1344 4494 
L 1919 4494 
z
" transform="scale(0.015625)"/>
       <path id="DejaVuSansMono-79" d="M 2681 1125 
Q 2538 759 2316 163 
Q 2006 -663 1900 -844 
Q 1756 -1088 1540 -1209 
Q 1325 -1331 1038 -1331 
L 575 -1331 
L 575 -850 
L 916 -850 
Q 1169 -850 1312 -703 
Q 1456 -556 1678 56 
L 325 3500 
L 934 3500 
L 1972 763 
L 2994 3500 
L 3603 3500 
L 2681 1125 
z
" transform="scale(0.015625)"/>
      </defs>
      <use xlink:href="#DejaVuSansMono-70"/>
      <use xlink:href="#DejaVuSansMono-72" x="60.205078"/>
      <use xlink:href="#DejaVuSansMono-6f" x="120.410156"/>
      <use xlink:href="#DejaVuSansMono-62" x="180.615234"/>
      <use xlink:href="#DejaVuSansMono-61" x="240.820312"/>
      <use xlink:href="#DejaVuSansMono-62" x="301.025391"/>
      <use xlink:href="#DejaVuSansMono-69" x="361.230469"/>
      <use xlink:href="#DejaVuSansMono-6c" x="421.435547"/>
      <use xlink:href="#DejaVuSansMono-69" x="481.640625"/>
      <use xlink:href="#DejaVuSansMono-74" x="541.845703"/>
      <use xlink:href="#DejaVuSansMono-79" x="602.050781"/>
     </g>
    </g>
   </g>
   <g id="patch_103">
    <path d="M 58.032813 297.16 
L 58.032813 7.2 
" style="fill: none; stroke: #000000; stroke-width: 0.6; stroke-linejoin: miter; stroke-linecap: square"/>
   </g>
   <g id="patch_104">
    <path d="M 58.032813 297.16 
L 446.002813 297.16 
" style="fill: none; stroke: #000000; stroke-width: 0.6; stroke-linejoin: miter; stroke-linecap: square"/>
   </g>
  </g>
 </g>
 <defs>
  <clipPath id="p94b5a83eb2">
   <rect x="58.032813" y="7.2" width="387.97" height="289.96"/>
  </clipPath>
 </defs>
</svg>