<?xml version="1.0" encoding="utf-8" standalone="no"?>
<!DOCTYPE svg PUBLIC "-//W3C//DTD SVG 1.1//EN"
  "http://www.w3.org/Graphics/SVG/1.1/DTD/svg11.dtd">
<svg xmlns:xlink="http://www.w3.org/1999/xlink" width="453.222187pt" height="337.637031pt" viewBox="0 0 453.222187 337.637031" xmlns="http://www.w3.org/2000/svg" version="1.1">
 <metadata>
  <rdf:RDF xmlns:dc="http://purl.org/dc/elements/1.1/" xmlns:cc="http://creativecommons.org/ns#" xmlns:rdf="http://www.w3.org/1999/02/22-rdf-syntax-ns#">
   <cc:Work>
    <dc:type rdf:resource="http://purl.org/dc/dcmitype/StillImage"/>
    <dc:date>2024-01-20T23:41:05.784847</dc:date>
    <dc:format>image/svg+xml</dc:format>
    <dc:creator>
     <cc:Agent>
      <dc:title>Matplotlib v3.8.2, https://matplotlib.org/</dc:title>
     </cc:Agent>
    </dc:creator>
   </cc:Work>
  </rdf:RDF>
 </metadata>
 <defs>
  <style type="text/css">*{stroke-linejoin: round; stroke-linecap: butt}</style>
 </defs>
 <g id="figure_1">
  <g id="patch_1">
   <path d="M 0 337.637031 
L 453.222187 337.637031 
L 453.222187 0 
L 0 0 
z
" style="fill: #ffffff"/>
  </g>
  <g id="axes_1">
   <g id="patch_2">
    <path d="M 45.992188 299.905781 
L 446.022187 299.905781 
L 446.022187 11.025781 
L 45.992188 11.025781 
z
" style="fill: #ffffff"/>
   </g>
   <g id="matplotlib.axis_1">
    <g id="xtick_1">
     <g id="line2d_1">
      <path d="M 45.992188 299.905781 
L 45.992188 11.025781 
" clip-path="url(#pbd273b7b33)" style="fill: none; stroke-dasharray: 2.22,0.96; stroke-dashoffset: 0; stroke: #6c6066; stroke-opacity: 0.4; stroke-width: 0.6"/>
     </g>
     <g id="line2d_2">
      <defs>
       <path id="m296c707222" d="M 0 0 
L 0 3.5 
" style="stroke: #000000; stroke-width: 0.8"/>
      </defs>
      <g>
       <use xlink:href="#m296c707222" x="45.992188" y="299.905781" style="stroke: #000000; stroke-width: 0.8"/>
      </g>
     </g>
     <g id="text_1">
      <!-- 2.0 -->
      <g transform="translate(36.961719 314.557344) scale(0.1 -0.1)">
       <defs>
        <path id="DejaVuSansMono-32" d="M 1166 531 
L 3309 531 
L 3309 0 
L 475 0 
L 475 531 
Q 1059 1147 1496 1619 
Q 1934 2091 2100 2284 
Q 2413 2666 2522 2902 
Q 2631 3138 2631 3384 
Q 2631 3775 2401 3997 
Q 2172 4219 1772 4219 
Q 1488 4219 1175 4116 
Q 863 4013 513 3803 
L 513 4441 
Q 834 4594 1145 4672 
Q 1456 4750 1759 4750 
Q 2444 4750 2861 4386 
Q 3278 4022 3278 3431 
Q 3278 3131 3139 2831 
Q 3000 2531 2688 2169 
Q 2513 1966 2180 1606 
Q 1847 1247 1166 531 
z
" transform="scale(0.015625)"/>
        <path id="DejaVuSansMono-2e" d="M 1528 953 
L 2316 953 
L 2316 0 
L 1528 0 
L 1528 953 
z
" transform="scale(0.015625)"/>
        <path id="DejaVuSansMono-30" d="M 1509 2344 
Q 1509 2516 1629 2641 
Q 1750 2766 1919 2766 
Q 2094 2766 2219 2641 
Q 2344 2516 2344 2344 
Q 2344 2169 2220 2047 
Q 2097 1925 1919 1925 
Q 1744 1925 1626 2044 
Q 1509 2163 1509 2344 
z
M 1925 4250 
Q 1484 4250 1267 3775 
Q 1050 3300 1050 2328 
Q 1050 1359 1267 884 
Q 1484 409 1925 409 
Q 2369 409 2586 884 
Q 2803 1359 2803 2328 
Q 2803 3300 2586 3775 
Q 2369 4250 1925 4250 
z
M 1925 4750 
Q 2672 4750 3055 4137 
Q 3438 3525 3438 2328 
Q 3438 1134 3055 521 
Q 2672 -91 1925 -91 
Q 1178 -91 797 521 
Q 416 1134 416 2328 
Q 416 3525 797 4137 
Q 1178 4750 1925 4750 
z
" transform="scale(0.015625)"/>
       </defs>
       <use xlink:href="#DejaVuSansMono-32"/>
       <use xlink:href="#DejaVuSansMono-2e" x="60.205078"/>
       <use xlink:href="#DejaVuSansMono-30" x="120.410156"/>
      </g>
     </g>
    </g>
    <g id="xtick_2">
     <g id="line2d_3">
      <path d="M 93.07708 299.905781 
L 93.07708 11.025781 
" clip-path="url(#pbd273b7b33)" style="fill: none; stroke-dasharray: 2.22,0.96; stroke-dashoffset: 0; stroke: #6c6066; stroke-opacity: 0.4; stroke-width: 0.6"/>
     </g>
     <g id="line2d_4">
      <g>
       <use xlink:href="#m296c707222" x="93.07708" y="299.905781" style="stroke: #000000; stroke-width: 0.8"/>
      </g>
     </g>
     <g id="text_2">
      <!-- 2.5 -->
      <g transform="translate(84.046611 314.557344) scale(0.1 -0.1)">
       <defs>
        <path id="DejaVuSansMono-35" d="M 647 4666 
L 3009 4666 
L 3009 4134 
L 1222 4134 
L 1222 2988 
Q 1356 3038 1492 3061 
Q 1628 3084 1766 3084 
Q 2491 3084 2916 2656 
Q 3341 2228 3341 1497 
Q 3341 759 2895 334 
Q 2450 -91 1678 -91 
Q 1306 -91 998 -41 
Q 691 9 447 109 
L 447 750 
Q 734 594 1025 517 
Q 1316 441 1619 441 
Q 2141 441 2423 716 
Q 2706 991 2706 1497 
Q 2706 1997 2414 2275 
Q 2122 2553 1600 2553 
Q 1347 2553 1106 2495 
Q 866 2438 647 2322 
L 647 4666 
z
" transform="scale(0.015625)"/>
       </defs>
       <use xlink:href="#DejaVuSansMono-32"/>
       <use xlink:href="#DejaVuSansMono-2e" x="60.205078"/>
       <use xlink:href="#DejaVuSansMono-35" x="120.410156"/>
      </g>
     </g>
    </g>
    <g id="xtick_3">
     <g id="line2d_5">
      <path d="M 140.161973 299.905781 
L 140.161973 11.025781 
" clip-path="url(#pbd273b7b33)" style="fill: none; stroke-dasharray: 2.22,0.96; stroke-dashoffset: 0; stroke: #6c6066; stroke-opacity: 0.4; stroke-width: 0.6"/>
     </g>
     <g id="line2d_6">
      <g>
       <use xlink:href="#m296c707222" x="140.161973" y="299.905781" style="stroke: #000000; stroke-width: 0.8"/>
      </g>
     </g>
     <g id="text_3">
      <!-- 3.0 -->
      <g transform="translate(131.131504 314.557344) scale(0.1 -0.1)">
       <defs>
        <path id="DejaVuSansMono-33" d="M 2425 2497 
Q 2884 2375 3128 2064 
Q 3372 1753 3372 1288 
Q 3372 644 2939 276 
Q 2506 -91 1741 -91 
Q 1419 -91 1084 -31 
Q 750 28 428 141 
L 428 769 
Q 747 603 1056 522 
Q 1366 441 1672 441 
Q 2191 441 2469 675 
Q 2747 909 2747 1350 
Q 2747 1756 2469 1995 
Q 2191 2234 1716 2234 
L 1234 2234 
L 1234 2753 
L 1716 2753 
Q 2150 2753 2394 2943 
Q 2638 3134 2638 3475 
Q 2638 3834 2411 4026 
Q 2184 4219 1766 4219 
Q 1488 4219 1191 4156 
Q 894 4094 569 3969 
L 569 4550 
Q 947 4650 1242 4700 
Q 1538 4750 1766 4750 
Q 2447 4750 2855 4408 
Q 3263 4066 3263 3500 
Q 3263 3116 3048 2859 
Q 2834 2603 2425 2497 
z
" transform="scale(0.015625)"/>
       </defs>
       <use xlink:href="#DejaVuSansMono-33"/>
       <use xlink:href="#DejaVuSansMono-2e" x="60.205078"/>
       <use xlink:href="#DejaVuSansMono-30" x="120.410156"/>
      </g>
     </g>
    </g>
    <g id="xtick_4">
     <g id="line2d_7">
      <path d="M 187.246866 299.905781 
L 187.246866 11.025781 
" clip-path="url(#pbd273b7b33)" style="fill: none; stroke-dasharray: 2.22,0.96; stroke-dashoffset: 0; stroke: #6c6066; stroke-opacity: 0.4; stroke-width: 0.6"/>
     </g>
     <g id="line2d_8">
      <g>
       <use xlink:href="#m296c707222" x="187.246866" y="299.905781" style="stroke: #000000; stroke-width: 0.8"/>
      </g>
     </g>
     <g id="text_4">
      <!-- 3.5 -->
      <g transform="translate(178.216397 314.557344) scale(0.1 -0.1)">
       <use xlink:href="#DejaVuSansMono-33"/>
       <use xlink:href="#DejaVuSansMono-2e" x="60.205078"/>
       <use xlink:href="#DejaVuSansMono-35" x="120.410156"/>
      </g>
     </g>
    </g>
    <g id="xtick_5">
     <g id="line2d_9">
      <path d="M 234.331758 299.905781 
L 234.331758 11.025781 
" clip-path="url(#pbd273b7b33)" style="fill: none; stroke-dasharray: 2.22,0.96; stroke-dashoffset: 0; stroke: #6c6066; stroke-opacity: 0.4; stroke-width: 0.6"/>
     </g>
     <g id="line2d_10">
      <g>
       <use xlink:href="#m296c707222" x="234.331758" y="299.905781" style="stroke: #000000; stroke-width: 0.8"/>
      </g>
     </g>
     <g id="text_5">
      <!-- 4.0 -->
      <g transform="translate(225.30129 314.557344) scale(0.1 -0.1)">
       <defs>
        <path id="DejaVuSansMono-34" d="M 2297 4091 
L 825 1625 
L 2297 1625 
L 2297 4091 
z
M 2194 4666 
L 2925 4666 
L 2925 1625 
L 3547 1625 
L 3547 1113 
L 2925 1113 
L 2925 0 
L 2297 0 
L 2297 1113 
L 319 1113 
L 319 1709 
L 2194 4666 
z
" transform="scale(0.015625)"/>
       </defs>
       <use xlink:href="#DejaVuSansMono-34"/>
       <use xlink:href="#DejaVuSansMono-2e" x="60.205078"/>
       <use xlink:href="#DejaVuSansMono-30" x="120.410156"/>
      </g>
     </g>
    </g>
    <g id="xtick_6">
     <g id="line2d_11">
      <path d="M 281.416651 299.905781 
L 281.416651 11.025781 
" clip-path="url(#pbd273b7b33)" style="fill: none; stroke-dasharray: 2.22,0.96; stroke-dashoffset: 0; stroke: #6c6066; stroke-opacity: 0.4; stroke-width: 0.6"/>
     </g>
     <g id="line2d_12">
      <g>
       <use xlink:href="#m296c707222" x="281.416651" y="299.905781" style="stroke: #000000; stroke-width: 0.8"/>
      </g>
     </g>
     <g id="text_6">
      <!-- 4.5 -->
      <g transform="translate(272.386182 314.557344) scale(0.1 -0.1)">
       <use xlink:href="#DejaVuSansMono-34"/>
       <use xlink:href="#DejaVuSansMono-2e" x="60.205078"/>
       <use xlink:href="#DejaVuSansMono-35" x="120.410156"/>
      </g>
     </g>
    </g>
    <g id="xtick_7">
     <g id="line2d_13">
      <path d="M 328.501544 299.905781 
L 328.501544 11.025781 
" clip-path="url(#pbd273b7b33)" style="fill: none; stroke-dasharray: 2.22,0.96; stroke-dashoffset: 0; stroke: #6c6066; stroke-opacity: 0.4; stroke-width: 0.6"/>
     </g>
     <g id="line2d_14">
      <g>
       <use xlink:href="#m296c707222" x="328.501544" y="299.905781" style="stroke: #000000; stroke-width: 0.8"/>
      </g>
     </g>
     <g id="text_7">
      <!-- 5.0 -->
      <g transform="translate(319.471075 314.557344) scale(0.1 -0.1)">
       <use xlink:href="#DejaVuSansMono-35"/>
       <use xlink:href="#DejaVuSansMono-2e" x="60.205078"/>
       <use xlink:href="#DejaVuSansMono-30" x="120.410156"/>
      </g>
     </g>
    </g>
    <g id="xtick_8">
     <g id="line2d_15">
      <path d="M 375.586437 299.905781 
L 375.586437 11.025781 
" clip-path="url(#pbd273b7b33)" style="fill: none; stroke-dasharray: 2.22,0.96; stroke-dashoffset: 0; stroke: #6c6066; stroke-opacity: 0.4; stroke-width: 0.6"/>
     </g>
     <g id="line2d_16">
      <g>
       <use xlink:href="#m296c707222" x="375.586437" y="299.905781" style="stroke: #000000; stroke-width: 0.8"/>
      </g>
     </g>
     <g id="text_8">
      <!-- 5.5 -->
      <g transform="translate(366.555968 314.557344) scale(0.1 -0.1)">
       <use xlink:href="#DejaVuSansMono-35"/>
       <use xlink:href="#DejaVuSansMono-2e" x="60.205078"/>
       <use xlink:href="#DejaVuSansMono-35" x="120.410156"/>
      </g>
     </g>
    </g>
    <g id="xtick_9">
     <g id="line2d_17">
      <path d="M 422.671329 299.905781 
L 422.671329 11.025781 
" clip-path="url(#pbd273b7b33)" style="fill: none; stroke-dasharray: 2.22,0.96; stroke-dashoffset: 0; stroke: #6c6066; stroke-opacity: 0.4; stroke-width: 0.6"/>
     </g>
     <g id="line2d_18">
      <g>
       <use xlink:href="#m296c707222" x="422.671329" y="299.905781" style="stroke: #000000; stroke-width: 0.8"/>
      </g>
     </g>
     <g id="text_9">
      <!-- 6.0 -->
      <g transform="translate(413.640861 314.557344) scale(0.1 -0.1)">
       <defs>
        <path id="DejaVuSansMono-36" d="M 3097 4563 
L 3097 3981 
Q 2900 4097 2678 4158 
Q 2456 4219 2216 4219 
Q 1616 4219 1306 3767 
Q 997 3316 997 2438 
Q 1147 2750 1412 2917 
Q 1678 3084 2022 3084 
Q 2697 3084 3067 2670 
Q 3438 2256 3438 1497 
Q 3438 741 3056 325 
Q 2675 -91 1984 -91 
Q 1172 -91 794 492 
Q 416 1075 416 2328 
Q 416 3509 870 4129 
Q 1325 4750 2188 4750 
Q 2419 4750 2650 4701 
Q 2881 4653 3097 4563 
z
M 1972 2591 
Q 1569 2591 1337 2300 
Q 1106 2009 1106 1497 
Q 1106 984 1337 693 
Q 1569 403 1972 403 
Q 2391 403 2603 679 
Q 2816 956 2816 1497 
Q 2816 2041 2603 2316 
Q 2391 2591 1972 2591 
z
" transform="scale(0.015625)"/>
       </defs>
       <use xlink:href="#DejaVuSansMono-36"/>
       <use xlink:href="#DejaVuSansMono-2e" x="60.205078"/>
       <use xlink:href="#DejaVuSansMono-30" x="120.410156"/>
      </g>
     </g>
    </g>
    <g id="text_10">
     <!-- log price -->
     <g transform="translate(218.915781 328.288594) scale(0.1 -0.1)">
      <defs>
       <path id="DejaVuSansMono-6c" d="M 1997 1269 
Q 1997 881 2139 684 
Q 2281 488 2559 488 
L 3231 488 
L 3231 0 
L 2503 0 
Q 1988 0 1705 331 
Q 1422 663 1422 1269 
L 1422 4447 
L 500 4447 
L 500 4897 
L 1997 4897 
L 1997 1269 
z
" transform="scale(0.015625)"/>
       <path id="DejaVuSansMono-6f" d="M 1925 3097 
Q 1488 3097 1263 2756 
Q 1038 2416 1038 1747 
Q 1038 1081 1263 739 
Q 1488 397 1925 397 
Q 2366 397 2591 739 
Q 2816 1081 2816 1747 
Q 2816 2416 2591 2756 
Q 2366 3097 1925 3097 
z
M 1925 3584 
Q 2653 3584 3039 3112 
Q 3425 2641 3425 1747 
Q 3425 850 3040 379 
Q 2656 -91 1925 -91 
Q 1197 -91 812 379 
Q 428 850 428 1747 
Q 428 2641 812 3112 
Q 1197 3584 1925 3584 
z
" transform="scale(0.015625)"/>
       <path id="DejaVuSansMono-67" d="M 2681 1778 
Q 2681 2425 2470 2761 
Q 2259 3097 1856 3097 
Q 1434 3097 1212 2761 
Q 991 2425 991 1778 
Q 991 1131 1214 792 
Q 1438 453 1863 453 
Q 2259 453 2470 793 
Q 2681 1134 2681 1778 
z
M 3256 225 
Q 3256 -563 2884 -969 
Q 2513 -1375 1791 -1375 
Q 1553 -1375 1293 -1331 
Q 1034 -1288 775 -1203 
L 775 -634 
Q 1081 -778 1331 -847 
Q 1581 -916 1791 -916 
Q 2256 -916 2468 -662 
Q 2681 -409 2681 141 
L 2681 166 
L 2681 556 
Q 2544 263 2306 119 
Q 2069 -25 1728 -25 
Q 1116 -25 750 465 
Q 384 956 384 1778 
Q 384 2603 750 3093 
Q 1116 3584 1728 3584 
Q 2066 3584 2300 3450 
Q 2534 3316 2681 3034 
L 2681 3488 
L 3256 3488 
L 3256 225 
z
" transform="scale(0.015625)"/>
       <path id="DejaVuSansMono-20" transform="scale(0.015625)"/>
       <path id="DejaVuSansMono-70" d="M 1172 441 
L 1172 -1331 
L 594 -1331 
L 594 3500 
L 1172 3500 
L 1172 3053 
Q 1316 3313 1555 3448 
Q 1794 3584 2106 3584 
Q 2741 3584 3102 3093 
Q 3463 2603 3463 1734 
Q 3463 881 3100 395 
Q 2738 -91 2106 -91 
Q 1788 -91 1548 45 
Q 1309 181 1172 441 
z
M 2859 1747 
Q 2859 2416 2648 2756 
Q 2438 3097 2022 3097 
Q 1603 3097 1387 2755 
Q 1172 2413 1172 1747 
Q 1172 1084 1387 740 
Q 1603 397 2022 397 
Q 2438 397 2648 737 
Q 2859 1078 2859 1747 
z
" transform="scale(0.015625)"/>
       <path id="DejaVuSansMono-72" d="M 3609 2778 
Q 3425 2922 3234 2987 
Q 3044 3053 2816 3053 
Q 2278 3053 1993 2715 
Q 1709 2378 1709 1741 
L 1709 0 
L 1131 0 
L 1131 3500 
L 1709 3500 
L 1709 2816 
Q 1853 3188 2151 3386 
Q 2450 3584 2859 3584 
Q 3072 3584 3256 3531 
Q 3441 3478 3609 3366 
L 3609 2778 
z
" transform="scale(0.015625)"/>
       <path id="DejaVuSansMono-69" d="M 800 3500 
L 2272 3500 
L 2272 447 
L 3413 447 
L 3413 0 
L 556 0 
L 556 447 
L 1697 447 
L 1697 3053 
L 800 3053 
L 800 3500 
z
M 1697 4863 
L 2272 4863 
L 2272 4134 
L 1697 4134 
L 1697 4863 
z
" transform="scale(0.015625)"/>
       <path id="DejaVuSansMono-63" d="M 3316 178 
Q 3084 44 2839 -23 
Q 2594 -91 2338 -91 
Q 1525 -91 1067 396 
Q 609 884 609 1747 
Q 609 2609 1067 3096 
Q 1525 3584 2338 3584 
Q 2591 3584 2831 3518 
Q 3072 3453 3316 3316 
L 3316 2713 
Q 3088 2916 2858 3006 
Q 2628 3097 2338 3097 
Q 1797 3097 1506 2747 
Q 1216 2397 1216 1747 
Q 1216 1100 1508 748 
Q 1800 397 2338 397 
Q 2638 397 2875 489 
Q 3113 581 3316 775 
L 3316 178 
z
" transform="scale(0.015625)"/>
       <path id="DejaVuSansMono-65" d="M 3475 1894 
L 3475 1613 
L 984 1613 
L 984 1594 
Q 984 1022 1282 709 
Q 1581 397 2125 397 
Q 2400 397 2700 484 
Q 3000 572 3341 750 
L 3341 178 
Q 3013 44 2708 -23 
Q 2403 -91 2119 -91 
Q 1303 -91 843 398 
Q 384 888 384 1747 
Q 384 2584 834 3084 
Q 1284 3584 2034 3584 
Q 2703 3584 3089 3131 
Q 3475 2678 3475 1894 
z
M 2900 2063 
Q 2888 2569 2661 2833 
Q 2434 3097 2009 3097 
Q 1594 3097 1325 2822 
Q 1056 2547 1006 2059 
L 2900 2063 
z
" transform="scale(0.015625)"/>
      </defs>
      <use xlink:href="#DejaVuSansMono-6c"/>
      <use xlink:href="#DejaVuSansMono-6f" x="60.205078"/>
      <use xlink:href="#DejaVuSansMono-67" x="120.410156"/>
      <use xlink:href="#DejaVuSansMono-20" x="180.615234"/>
      <use xlink:href="#DejaVuSansMono-70" x="240.820312"/>
      <use xlink:href="#DejaVuSansMono-72" x="301.025391"/>
      <use xlink:href="#DejaVuSansMono-69" x="361.230469"/>
      <use xlink:href="#DejaVuSansMono-63" x="421.435547"/>
      <use xlink:href="#DejaVuSansMono-65" x="481.640625"/>
     </g>
    </g>
   </g>
   <g id="matplotlib.axis_2">
    <g id="ytick_1">
     <g id="line2d_19">
      <path d="M 45.992188 299.905781 
L 446.022187 299.905781 
" clip-path="url(#pbd273b7b33)" style="fill: none; stroke-dasharray: 2.22,0.96; stroke-dashoffset: 0; stroke: #6c6066; stroke-opacity: 0.4; stroke-width: 0.6"/>
     </g>
     <g id="line2d_20">
      <defs>
       <path id="mfc65f35181" d="M 0 0 
L -3.5 0 
" style="stroke: #000000; stroke-width: 0.8"/>
      </defs>
      <g>
       <use xlink:href="#mfc65f35181" x="45.992188" y="299.905781" style="stroke: #000000; stroke-width: 0.8"/>
      </g>
     </g>
     <g id="text_11">
      <!-- 0.0 -->
      <g transform="translate(20.93125 303.731562) scale(0.1 -0.1)">
       <use xlink:href="#DejaVuSansMono-30"/>
       <use xlink:href="#DejaVuSansMono-2e" x="60.205078"/>
       <use xlink:href="#DejaVuSansMono-30" x="120.410156"/>
      </g>
     </g>
    </g>
    <g id="ytick_2">
     <g id="line2d_21">
      <path d="M 45.992188 242.129781 
L 446.022187 242.129781 
" clip-path="url(#pbd273b7b33)" style="fill: none; stroke-dasharray: 2.22,0.96; stroke-dashoffset: 0; stroke: #6c6066; stroke-opacity: 0.4; stroke-width: 0.6"/>
     </g>
     <g id="line2d_22">
      <g>
       <use xlink:href="#mfc65f35181" x="45.992188" y="242.129781" style="stroke: #000000; stroke-width: 0.8"/>
      </g>
     </g>
     <g id="text_12">
      <!-- 0.2 -->
      <g transform="translate(20.93125 245.955562) scale(0.1 -0.1)">
       <use xlink:href="#DejaVuSansMono-30"/>
       <use xlink:href="#DejaVuSansMono-2e" x="60.205078"/>
       <use xlink:href="#DejaVuSansMono-32" x="120.410156"/>
      </g>
     </g>
    </g>
    <g id="ytick_3">
     <g id="line2d_23">
      <path d="M 45.992188 184.353781 
L 446.022187 184.353781 
" clip-path="url(#pbd273b7b33)" style="fill: none; stroke-dasharray: 2.22,0.96; stroke-dashoffset: 0; stroke: #6c6066; stroke-opacity: 0.4; stroke-width: 0.6"/>
     </g>
     <g id="line2d_24">
      <g>
       <use xlink:href="#mfc65f35181" x="45.992188" y="184.353781" style="stroke: #000000; stroke-width: 0.8"/>
      </g>
     </g>
     <g id="text_13">
      <!-- 0.4 -->
      <g transform="translate(20.93125 188.179562) scale(0.1 -0.1)">
       <use xlink:href="#DejaVuSansMono-30"/>
       <use xlink:href="#DejaVuSansMono-2e" x="60.205078"/>
       <use xlink:href="#DejaVuSansMono-34" x="120.410156"/>
      </g>
     </g>
    </g>
    <g id="ytick_4">
     <g id="line2d_25">
      <path d="M 45.992188 126.577781 
L 446.022187 126.577781 
" clip-path="url(#pbd273b7b33)" style="fill: none; stroke-dasharray: 2.22,0.96; stroke-dashoffset: 0; stroke: #6c6066; stroke-opacity: 0.4; stroke-width: 0.6"/>
     </g>
     <g id="line2d_26">
      <g>
       <use xlink:href="#mfc65f35181" x="45.992188" y="126.577781" style="stroke: #000000; stroke-width: 0.8"/>
      </g>
     </g>
     <g id="text_14">
      <!-- 0.6 -->
      <g transform="translate(20.93125 130.403562) scale(0.1 -0.1)">
       <use xlink:href="#DejaVuSansMono-30"/>
       <use xlink:href="#DejaVuSansMono-2e" x="60.205078"/>
       <use xlink:href="#DejaVuSansMono-36" x="120.410156"/>
      </g>
     </g>
    </g>
    <g id="ytick_5">
     <g id="line2d_27">
      <path d="M 45.992188 68.801781 
L 446.022187 68.801781 
" clip-path="url(#pbd273b7b33)" style="fill: none; stroke-dasharray: 2.22,0.96; stroke-dashoffset: 0; stroke: #6c6066; stroke-opacity: 0.4; stroke-width: 0.6"/>
     </g>
     <g id="line2d_28">
      <g>
       <use xlink:href="#mfc65f35181" x="45.992188" y="68.801781" style="stroke: #000000; stroke-width: 0.8"/>
      </g>
     </g>
     <g id="text_15">
      <!-- 0.8 -->
      <g transform="translate(20.93125 72.627562) scale(0.1 -0.1)">
       <defs>
        <path id="DejaVuSansMono-38" d="M 1925 2216 
Q 1503 2216 1273 1980 
Q 1044 1744 1044 1313 
Q 1044 881 1276 642 
Q 1509 403 1925 403 
Q 2350 403 2579 639 
Q 2809 875 2809 1313 
Q 2809 1741 2576 1978 
Q 2344 2216 1925 2216 
z
M 1375 2478 
Q 972 2581 745 2862 
Q 519 3144 519 3541 
Q 519 4097 897 4423 
Q 1275 4750 1925 4750 
Q 2578 4750 2956 4423 
Q 3334 4097 3334 3541 
Q 3334 3144 3107 2862 
Q 2881 2581 2478 2478 
Q 2947 2375 3195 2062 
Q 3444 1750 3444 1253 
Q 3444 622 3041 265 
Q 2638 -91 1925 -91 
Q 1213 -91 811 264 
Q 409 619 409 1247 
Q 409 1747 657 2061 
Q 906 2375 1375 2478 
z
M 1147 3481 
Q 1147 3106 1347 2909 
Q 1547 2713 1925 2713 
Q 2306 2713 2506 2909 
Q 2706 3106 2706 3481 
Q 2706 3863 2507 4063 
Q 2309 4263 1925 4263 
Q 1547 4263 1347 4061 
Q 1147 3859 1147 3481 
z
" transform="scale(0.015625)"/>
       </defs>
       <use xlink:href="#DejaVuSansMono-30"/>
       <use xlink:href="#DejaVuSansMono-2e" x="60.205078"/>
       <use xlink:href="#DejaVuSansMono-38" x="120.410156"/>
      </g>
     </g>
    </g>
    <g id="ytick_6">
     <g id="line2d_29">
      <path d="M 45.992188 11.025781 
L 446.022187 11.025781 
" clip-path="url(#pbd273b7b33)" style="fill: none; stroke-dasharray: 2.22,0.96; stroke-dashoffset: 0; stroke: #6c6066; stroke-opacity: 0.4; stroke-width: 0.6"/>
     </g>
     <g id="line2d_30">
      <g>
       <use xlink:href="#mfc65f35181" x="45.992188" y="11.025781" style="stroke: #000000; stroke-width: 0.8"/>
      </g>
     </g>
     <g id="text_16">
      <!-- 1.0 -->
      <g transform="translate(20.93125 14.851562) scale(0.1 -0.1)">
       <defs>
        <path id="DejaVuSansMono-31" d="M 844 531 
L 1825 531 
L 1825 4097 
L 769 3859 
L 769 4434 
L 1819 4666 
L 2450 4666 
L 2450 531 
L 3419 531 
L 3419 0 
L 844 0 
L 844 531 
z
" transform="scale(0.015625)"/>
       </defs>
       <use xlink:href="#DejaVuSansMono-31"/>
       <use xlink:href="#DejaVuSansMono-2e" x="60.205078"/>
       <use xlink:href="#DejaVuSansMono-30" x="120.410156"/>
      </g>
     </g>
    </g>
    <g id="text_17">
     <!-- probability -->
     <g transform="translate(14.851563 188.5775) rotate(-90) scale(0.1 -0.1)">
      <defs>
       <path id="DejaVuSansMono-62" d="M 2869 1747 
Q 2869 2416 2656 2756 
Q 2444 3097 2028 3097 
Q 1609 3097 1393 2755 
Q 1178 2413 1178 1747 
Q 1178 1084 1393 740 
Q 1609 397 2028 397 
Q 2444 397 2656 737 
Q 2869 1078 2869 1747 
z
M 1178 3053 
Q 1316 3309 1558 3446 
Q 1800 3584 2119 3584 
Q 2750 3584 3112 3098 
Q 3475 2613 3475 1759 
Q 3475 894 3111 401 
Q 2747 -91 2113 -91 
Q 1800 -91 1561 45 
Q 1322 181 1178 441 
L 1178 0 
L 603 0 
L 603 4863 
L 1178 4863 
L 1178 3053 
z
" transform="scale(0.015625)"/>
       <path id="DejaVuSansMono-61" d="M 2194 1759 
L 2003 1759 
Q 1500 1759 1245 1582 
Q 991 1406 991 1056 
Q 991 741 1181 566 
Q 1372 391 1709 391 
Q 2184 391 2456 720 
Q 2728 1050 2731 1631 
L 2731 1759 
L 2194 1759 
z
M 3309 1997 
L 3309 0 
L 2731 0 
L 2731 519 
Q 2547 206 2267 57 
Q 1988 -91 1588 -91 
Q 1053 -91 734 211 
Q 416 513 416 1019 
Q 416 1603 808 1906 
Q 1200 2209 1959 2209 
L 2731 2209 
L 2731 2300 
Q 2728 2719 2518 2908 
Q 2309 3097 1850 3097 
Q 1556 3097 1256 3012 
Q 956 2928 672 2766 
L 672 3341 
Q 991 3463 1283 3523 
Q 1575 3584 1850 3584 
Q 2284 3584 2592 3456 
Q 2900 3328 3091 3072 
Q 3209 2916 3259 2686 
Q 3309 2456 3309 1997 
z
" transform="scale(0.015625)"/>
       <path id="DejaVuSansMono-74" d="M 1919 4494 
L 1919 3500 
L 3225 3500 
L 3225 3053 
L 1919 3053 
L 1919 1153 
Q 1919 766 2066 612 
Q 2213 459 2578 459 
L 3225 459 
L 3225 0 
L 2522 0 
Q 1875 0 1609 259 
Q 1344 519 1344 1153 
L 1344 3053 
L 409 3053 
L 409 3500 
L 1344 3500 
L 1344 4494 
L 1919 4494 
z
" transform="scale(0.015625)"/>
       <path id="DejaVuSansMono-79" d="M 2681 1125 
Q 2538 759 2316 163 
Q 2006 -663 1900 -844 
Q 1756 -1088 1540 -1209 
Q 1325 -1331 1038 -1331 
L 575 -1331 
L 575 -850 
L 916 -850 
Q 1169 -850 1312 -703 
Q 1456 -556 1678 56 
L 325 3500 
L 934 3500 
L 1972 763 
L 2994 3500 
L 3603 3500 
L 2681 1125 
z
" transform="scale(0.015625)"/>
      </defs>
      <use xlink:href="#DejaVuSansMono-70"/>
      <use xlink:href="#DejaVuSansMono-72" x="60.205078"/>
      <use xlink:href="#DejaVuSansMono-6f" x="120.410156"/>
      <use xlink:href="#DejaVuSansMono-62" x="180.615234"/>
      <use xlink:href="#DejaVuSansMono-61" x="240.820312"/>
      <use xlink:href="#DejaVuSansMono-62" x="301.025391"/>
      <use xlink:href="#DejaVuSansMono-69" x="361.230469"/>
      <use xlink:href="#DejaVuSansMono-6c" x="421.435547"/>
      <use xlink:href="#DejaVuSansMono-69" x="481.640625"/>
      <use xlink:href="#DejaVuSansMono-74" x="541.845703"/>
      <use xlink:href="#DejaVuSansMono-79" x="602.050781"/>
     </g>
    </g>
   </g>
   <g id="line2d_31">
    <path d="M 23.027218 299.622416 
L 77.635106 299.513429 
L 77.726136 299.469835 
L 89.029799 299.360848 
L 89.029799 299.339051 
L 96.994731 299.230064 
L 96.994731 299.208267 
L 103.580712 299.09928 
L 103.580712 299.077483 
L 111.40508 298.968496 
L 111.40508 298.946699 
L 118.45196 298.837712 
L 118.45196 298.815915 
L 125.557123 298.706928 
L 125.611857 298.663334 
L 128.202364 298.554347 
L 128.202364 298.53255 
L 131.959219 298.423563 
L 131.959219 298.401766 
L 138.956218 298.292779 
L 139.003694 298.249184 
L 141.532523 298.140198 
L 141.578718 298.096603 
L 146.526693 297.987616 
L 146.526693 297.965819 
L 147.918604 297.87863 
L 147.918604 297.856832 
L 147.918604 297.835035 
L 149.757165 297.747846 
L 149.757165 297.726048 
L 149.757165 297.704251 
L 152.057674 297.595264 
L 152.057674 297.573467 
L 153.533591 297.46448 
L 153.533591 297.442683 
L 156.022451 297.333696 
L 156.101652 297.290102 
L 157.164395 297.181115 
L 157.164395 297.159318 
L 157.788555 297.050331 
L 157.788555 297.028534 
L 158.408605 296.919547 
L 158.447223 296.875953 
L 159.216274 296.766966 
L 159.216274 296.745169 
L 160.509417 296.636182 
L 160.509417 296.614385 
L 161.785043 296.505398 
L 161.785043 296.461803 
L 162.97005 296.352817 
L 163.043621 296.309222 
L 164.503081 296.200235 
L 164.503081 296.178438 
L 166.296162 296.091249 
L 166.296162 296.069451 
L 166.296162 296.047654 
L 167.566362 295.938667 
L 167.566362 295.91687 
L 168.854234 295.807883 
L 168.854234 295.786086 
L 169.543116 295.677099 
L 169.543116 295.655302 
L 171.378312 295.546315 
L 171.479226 295.480923 
L 173.836499 295.371937 
L 173.836499 295.35014 
L 174.424858 295.241153 
L 174.490005 295.197558 
L 176.008124 295.110369 
L 176.008124 295.088572 
L 176.04016 295.044977 
L 176.869293 294.93599 
L 176.901037 294.892396 
L 177.722658 294.783409 
L 177.754116 294.718017 
L 179.560936 294.60903 
L 179.653455 294.543638 
L 181.605863 294.434652 
L 181.605863 294.412854 
L 182.567094 294.303868 
L 182.567094 294.28207 
L 183.489023 294.173084 
L 183.518612 294.107692 
L 184.372699 293.998705 
L 184.402013 293.95511 
L 185.190049 293.846124 
L 185.190049 293.824326 
L 186.029177 293.737137 
L 186.029177 293.71534 
L 186.029177 293.693543 
L 186.632187 293.584556 
L 186.632187 293.562759 
L 187.543699 293.453772 
L 187.628702 293.38838 
L 188.221588 293.279393 
L 188.221588 293.257596 
L 188.558712 293.148609 
L 188.558712 293.126812 
L 189.312857 293.017825 
L 189.340672 292.974231 
L 190.143772 292.865244 
L 190.254009 292.778055 
L 190.666251 292.669068 
L 190.775878 292.625473 
L 191.62119 292.516487 
L 191.62119 292.494689 
L 192.620276 292.385703 
L 192.67398 292.342108 
L 193.369358 292.233121 
L 193.449265 292.189527 
L 194.112528 292.08054 
L 194.165388 292.015148 
L 194.954746 291.906162 
L 194.954746 291.884364 
L 195.997034 291.775378 
L 196.074742 291.666391 
L 196.950987 291.557404 
L 196.976635 291.51381 
L 197.742871 291.404823 
L 197.793732 291.295836 
L 198.250252 291.18685 
L 198.250252 291.165052 
L 198.729746 291.056066 
L 198.830381 291.012471 
L 199.331952 290.903484 
L 199.406958 290.816295 
L 200.302399 290.707308 
L 200.376636 290.641916 
L 200.697656 290.53293 
L 200.722304 290.489335 
L 201.33643 290.380349 
L 201.43432 290.293159 
L 202.189534 290.184173 
L 202.262299 290.140578 
L 202.818302 290.031591 
L 202.866495 289.944402 
L 203.251157 289.857213 
L 203.251157 289.835415 
L 203.347077 289.770023 
L 203.586451 289.682834 
L 203.586451 289.661037 
L 203.682031 289.573847 
L 204.015798 289.486658 
L 204.015798 289.464861 
L 204.087165 289.377671 
L 204.490564 289.268685 
L 204.53791 289.22509 
L 205.174752 289.116103 
L 205.245247 289.050711 
L 205.503279 288.941725 
L 205.503279 288.919927 
L 206.017231 288.810941 
L 206.017231 288.789144 
L 206.342837 288.701954 
L 206.342837 288.680157 
L 206.342837 288.65836 
L 206.644181 288.57117 
L 206.644181 288.549373 
L 206.644181 288.527576 
L 207.15196 288.440386 
L 207.15196 288.418589 
L 207.197986 288.374994 
L 207.404827 288.266008 
L 207.404827 288.24421 
L 207.79429 288.135224 
L 207.885695 288.069832 
L 208.182149 287.960845 
L 208.250429 287.851858 
L 208.794896 287.742872 
L 208.885335 287.699277 
L 209.020831 287.59029 
L 209.065953 287.546696 
L 209.762595 287.437709 
L 209.762595 287.415912 
L 210.053208 287.328722 
L 210.053208 287.306925 
L 210.053208 287.285128 
L 210.476344 287.176141 
L 210.498561 287.132547 
L 211.162667 287.02356 
L 211.272897 286.914573 
L 211.800214 286.805587 
L 211.909702 286.6966 
L 212.128294 286.587613 
L 212.237401 286.500424 
L 212.520488 286.391437 
L 212.520488 286.36964 
L 213.170535 286.282451 
L 213.170535 286.260653 
L 213.278441 286.151667 
L 213.450834 286.064477 
L 213.450834 286.04268 
L 213.536913 285.911896 
L 213.773223 285.824707 
L 213.773223 285.802909 
L 213.773223 285.781112 
L 214.308098 285.672125 
L 214.414709 285.606733 
L 214.606306 285.497747 
L 214.627571 285.454152 
L 214.945963 285.345166 
L 215.051855 285.301571 
L 215.389912 285.192584 
L 215.495306 285.127192 
L 215.747772 285.018206 
L 215.747772 284.996408 
L 216.313358 284.887422 
L 216.313358 284.865624 
L 216.688537 284.756638 
L 216.730131 284.713043 
L 217.207151 284.625854 
L 217.207151 284.604056 
L 217.248518 284.538664 
L 217.619996 284.429678 
L 217.702349 284.320691 
L 217.948974 284.211704 
L 218.031039 284.124515 
L 218.460712 284.037326 
L 218.460712 284.015528 
L 218.521934 283.928339 
L 218.888433 283.819353 
L 218.989986 283.732163 
L 219.131976 283.623177 
L 219.213017 283.557785 
L 219.47592 283.448798 
L 219.516302 283.383406 
L 219.738091 283.274419 
L 219.838732 283.165433 
L 220.059765 283.056446 
L 220.119956 282.991054 
L 220.56019 282.882067 
L 220.659957 282.794878 
L 220.958624 282.707689 
L 220.958624 282.685891 
L 221.018244 282.576905 
L 221.35538 282.467918 
L 221.454308 282.402526 
L 221.730755 282.293539 
L 221.82929 282.20635 
L 222.183165 282.097364 
L 222.261623 282.031972 
L 222.731006 281.922985 
L 222.8285 281.813998 
L 223.081514 281.705012 
L 223.178647 281.574228 
L 223.430723 281.465241 
L 223.508149 281.378052 
L 223.797932 281.290862 
L 223.797932 281.269065 
L 223.894329 281.203673 
L 223.990627 281.094686 
L 224.048358 281.051092 
L 224.259739 280.942105 
L 224.336487 280.89851 
L 224.852906 280.789524 
L 224.948229 280.702334 
L 225.214622 280.593348 
L 225.214622 280.571551 
L 225.499209 280.484361 
L 225.499209 280.462564 
L 225.556023 280.397172 
L 225.782938 280.288185 
L 225.801823 280.244591 
L 226.197535 280.135604 
L 226.197535 280.113807 
L 226.404151 280.00482 
L 226.497917 279.852239 
L 226.909385 279.786847 
L 226.909385 279.743252 
L 226.984004 279.67786 
L 227.337642 279.568873 
L 227.337642 279.547076 
L 227.689956 279.438089 
L 227.782451 279.372697 
L 228.004071 279.263711 
L 228.096259 279.198319 
L 228.280364 279.089332 
L 228.390655 278.958548 
L 228.647498 278.871359 
L 228.647498 278.849562 
L 228.702445 278.78417 
L 229.013206 278.675183 
L 229.122643 278.566196 
L 229.432023 278.45721 
L 229.522824 278.326426 
L 229.74039 278.217439 
L 229.830894 278.13025 
L 230.155992 278.021263 
L 230.264109 277.955871 
L 230.659478 277.846884 
L 230.695339 277.7161 
L 231.071052 277.607114 
L 231.160288 277.541722 
L 231.356308 277.432735 
L 231.463056 277.301951 
L 231.888843 277.192965 
L 231.959621 277.083978 
L 232.224565 276.974991 
L 232.312714 276.866005 
L 232.453581 276.778815 
L 232.453581 276.757018 
L 232.541516 276.691626 
L 232.752226 276.582639 
L 232.839883 276.539045 
L 233.06741 276.451855 
L 233.06741 276.430058 
L 233.172237 276.321071 
L 233.32926 276.233882 
L 233.32926 276.212085 
L 233.416381 276.081301 
L 233.74671 275.972314 
L 233.850785 275.863327 
L 234.127755 275.754341 
L 234.19687 275.710746 
L 234.369437 275.623557 
L 234.369437 275.60176 
L 234.472826 275.51457 
L 234.679263 275.405584 
L 234.713625 275.361989 
L 234.936675 275.2748 
L 234.936675 275.253002 
L 234.970944 275.209408 
L 235.295874 275.100421 
L 235.347076 275.035029 
L 235.687716 274.926042 
L 235.789668 274.838853 
L 236.061002 274.729866 
L 236.162551 274.53369 
L 236.29778 274.424704 
L 236.399074 274.29392 
L 236.550811 274.184933 
L 236.651834 274.010555 
L 236.819964 273.901568 
L 236.903917 273.836176 
L 237.105098 273.727189 
L 237.205528 273.64 
L 237.406067 273.531013 
L 237.489499 273.487419 
L 237.805869 273.378432 
L 237.888948 273.247648 
L 238.137745 273.138661 
L 238.23708 272.98608 
L 238.484961 272.898891 
L 238.484961 272.877093 
L 238.550952 272.811701 
L 238.765106 272.702715 
L 238.814457 272.637323 
L 239.011602 272.528336 
L 239.060824 272.462944 
L 239.273822 272.353958 
L 239.339264 272.244971 
L 239.616882 272.135984 
L 239.665789 272.070592 
L 240.039899 271.961606 
L 240.10481 271.918011 
L 240.250696 271.809024 
L 240.299275 271.700038 
L 240.557939 271.591051 
L 240.557939 271.569254 
L 240.767581 271.482064 
L 240.767581 271.460267 
L 240.815894 271.373078 
L 241.073145 271.264091 
L 241.153392 271.176902 
L 241.569577 271.067915 
L 241.665359 270.915334 
L 241.904389 270.806347 
L 241.983931 270.697361 
L 242.269728 270.588374 
L 242.28558 270.544779 
L 242.554659 270.435793 
L 242.586265 270.348603 
L 242.964711 270.239617 
L 243.074805 270.13063 
L 243.263239 270.021643 
L 243.372985 269.890859 
L 243.670223 269.80367 
L 243.670223 269.781873 
L 243.748288 269.716481 
L 243.857471 269.629291 
L 243.857471 269.607494 
L 243.966526 269.47671 
L 244.028787 269.389521 
L 244.028787 269.367723 
L 244.122102 269.258737 
L 244.416989 269.14975 
L 244.525399 269.040764 
L 244.695506 268.931777 
L 244.772726 268.844588 
L 244.973203 268.735601 
L 245.080975 268.626614 
L 245.234721 268.517628 
L 245.342195 268.430438 
L 245.572083 268.321452 
L 245.648588 268.190668 
L 245.75559 268.081681 
L 245.862471 267.950897 
L 246.091094 267.84191 
L 246.197595 267.689329 
L 246.319164 267.580342 
L 246.395064 267.405964 
L 246.743421 267.296977 
L 246.849187 267.166193 
L 247.015152 267.079004 
L 247.015152 267.057207 
L 247.060364 266.991815 
L 247.331183 266.882828 
L 247.406273 266.752044 
L 247.556273 266.643057 
L 247.646158 266.555868 
L 247.870496 266.446881 
L 247.975005 266.337895 
L 248.124102 266.228908 
L 248.153893 266.185313 
L 248.317576 266.141719 
L 248.317576 266.076327 
L 248.42159 266.032732 
L 248.599633 265.923745 
L 248.644091 265.858353 
L 248.836501 265.771164 
L 248.836501 265.749367 
L 248.939944 265.553191 
L 249.013762 265.444204 
L 249.11701 265.31342 
L 249.323168 265.204434 
L 249.367286 265.139042 
L 249.587566 265.030055 
L 249.660878 264.921068 
L 249.895095 264.812082 
L 249.997382 264.703095 
L 250.230765 264.594108 
L 250.332688 264.463324 
L 250.521682 264.354338 
L 250.623291 264.223554 
L 250.782741 264.114567 
L 250.884069 264.027378 
L 251.20182 263.918391 
L 251.288294 263.852999 
L 251.417855 263.76581 
L 251.417855 263.744013 
L 251.518503 263.635026 
L 251.633396 263.526039 
L 251.733814 263.43885 
L 251.848445 263.351661 
L 251.848445 263.329863 
L 251.905709 263.264471 
L 252.005836 263.177282 
L 252.005836 263.155485 
L 252.063004 263.090093 
L 252.291329 262.981106 
L 252.376808 262.850322 
L 252.561748 262.741335 
L 252.661181 262.632349 
L 252.81722 262.523362 
L 252.859731 262.414376 
L 253.029585 262.327186 
L 253.029585 262.305389 
L 253.072001 262.239997 
L 253.227362 262.13101 
L 253.326094 262.022024 
L 253.466962 261.913037 
L 253.551381 261.782253 
L 253.663822 261.695064 
L 253.663822 261.673266 
L 253.748066 261.498888 
L 253.930334 261.389901 
L 253.986346 261.23732 
L 254.154182 261.128333 
L 254.251948 260.932157 
L 254.363557 260.823171 
L 254.433245 260.757779 
L 254.614193 260.648792 
L 254.711483 260.496211 
L 254.808673 260.387224 
L 254.919624 260.212845 
L 255.168787 260.103859 
L 255.279315 260.038467 
L 255.444864 259.951277 
L 255.444864 259.92948 
L 255.555069 259.798696 
L 255.610123 259.689709 
L 255.692644 259.515331 
L 255.884911 259.406344 
L 255.994602 259.101182 
L 256.104165 259.03579 
L 256.104165 258.992195 
L 256.186255 258.796019 
L 256.336565 258.687032 
L 256.445732 258.578046 
L 256.541149 258.490856 
L 256.541149 258.469059 
L 256.59563 258.360072 
L 256.772474 258.251086 
L 256.881137 258.05491 
L 257.057447 257.945923 
L 257.152246 257.72795 
L 257.314538 257.618963 
L 257.409079 257.313801 
L 257.597878 257.226611 
L 257.597878 257.204814 
L 257.692135 257.095827 
L 257.799742 257.008638 
L 257.799742 256.986841 
L 257.907227 256.812462 
L 257.98776 256.703475 
L 258.081628 256.463705 
L 258.121828 256.376515 
L 258.121828 256.354718 
L 258.202178 256.245731 
L 258.456167 256.136745 
L 258.54957 255.896974 
L 258.776019 255.809785 
L 258.776019 255.787988 
L 258.869105 255.635406 
L 259.015198 255.52642 
L 259.121305 255.43923 
L 259.267006 255.352041 
L 259.267006 255.330244 
L 259.359609 255.221257 
L 259.504943 255.11227 
L 259.610499 254.894297 
L 259.768613 254.78531 
L 259.834415 254.654526 
L 259.979019 254.567337 
L 259.979019 254.54554 
L 260.018418 254.501945 
L 260.202061 254.392958 
L 260.30684 254.262175 
L 260.43765 254.174985 
L 260.43765 254.153188 
L 260.502986 254.087796 
L 260.646568 253.978809 
L 260.750853 253.869823 
L 260.842008 253.782633 
L 260.842008 253.760836 
L 260.933075 253.521065 
L 261.101966 253.412079 
L 261.192783 253.324889 
L 261.270555 253.2377 
L 261.270555 253.215903 
L 261.374152 253.041524 
L 261.464706 252.954335 
L 261.464706 252.932537 
L 261.56809 252.801753 
L 261.774518 252.692767 
L 261.877563 252.518388 
L 261.967634 252.409402 
L 262.05762 252.278618 
L 262.327061 252.169631 
L 262.403903 252.01705 
L 262.544618 251.908063 
L 262.570179 251.842671 
L 262.812671 251.733684 
L 262.914587 251.537508 
L 262.990951 251.450319 
L 262.990951 251.428522 
L 263.079964 251.384927 
L 263.181591 251.27594 
L 263.270424 251.014373 
L 263.384516 250.905386 
L 263.485814 250.774602 
L 263.561717 250.665615 
L 263.624922 250.491237 
L 263.776443 250.38225 
L 263.864717 250.207871 
L 263.99068 250.098885 
L 264.078754 249.989898 
L 264.15418 249.880911 
L 264.254655 249.706533 
L 264.32994 249.597546 
L 264.392632 249.466762 
L 264.630482 249.357776 
L 264.71796 249.205194 
L 264.855261 249.096208 
L 264.954991 248.921829 
L 265.042168 248.812842 
L 265.1417 248.616666 
L 265.253548 248.50768 
L 265.352857 248.311504 
L 265.452061 248.224314 
L 265.452061 248.202517 
L 265.551161 248.071733 
L 265.749049 247.962746 
L 265.810804 247.919152 
L 265.946522 247.810165 
L 266.045103 247.701179 
L 266.155884 247.592192 
L 266.266534 247.461408 
L 266.327951 247.352421 
L 266.426134 247.19984 
L 266.524215 247.134448 
L 266.524215 247.090853 
L 266.622193 247.003664 
L 266.732298 246.894677 
L 266.842274 246.720299 
L 266.927722 246.611312 
L 267.013092 246.393339 
L 267.232262 246.306149 
L 267.232262 246.284352 
L 267.305205 246.153568 
L 267.463055 246.044582 
L 267.572181 245.804811 
L 267.717486 245.695824 
L 267.790055 245.586838 
L 267.947095 245.477851 
L 268.055662 245.172688 
L 268.164104 245.063702 
L 268.272421 244.932918 
L 268.332544 244.845728 
L 268.332544 244.823931 
L 268.392628 244.67135 
L 268.548667 244.562363 
L 268.656543 244.409782 
L 268.800186 244.322593 
L 268.800186 244.300795 
L 268.907775 243.952038 
L 269.086816 243.843051 
L 269.194078 243.712267 
L 269.336903 243.603281 
L 269.432 243.385307 
L 269.527001 243.276321 
L 269.527001 243.254523 
L 269.728561 243.145537 
L 269.835095 242.927563 
L 269.92969 242.840374 
L 269.92969 242.818577 
L 270.035997 242.665996 
L 270.095004 242.600604 
L 270.095004 242.557009 
L 270.153974 242.426225 
L 270.295353 242.317238 
L 270.401247 242.121062 
L 270.483528 242.012076 
L 270.589211 241.859494 
L 270.694776 241.750508 
L 270.800223 241.532534 
L 270.893854 241.423548 
L 270.987393 241.292764 
L 271.127526 241.183777 
L 271.23249 240.987601 
L 271.290752 240.878615 
L 271.395534 240.704236 
L 271.453696 240.595249 
L 271.54668 240.442668 
L 271.662782 240.333681 
L 271.743967 240.050316 
L 271.929273 239.941329 
L 272.033347 239.766951 
L 272.160393 239.657964 
L 272.264212 239.548978 
L 272.3564 239.439991 
L 272.40246 239.309207 
L 272.563493 239.222018 
L 272.563493 239.20022 
L 272.666869 238.895058 
L 272.781598 238.786071 
L 272.861825 238.698882 
L 273.033512 238.589895 
L 273.136373 238.437314 
L 273.227711 238.328327 
L 273.330361 238.066759 
L 273.467054 237.957772 
L 273.569443 237.783394 
L 273.683079 237.674407 
L 273.762542 237.500029 
L 273.921268 237.391042 
L 274.023165 237.129474 
L 274.170155 237.020487 
L 274.249209 236.802514 
L 274.316916 236.693527 
L 274.395847 236.497351 
L 274.598508 236.388365 
L 274.699675 236.235784 
L 274.800734 236.126797 
L 274.890473 235.865229 
L 275.002526 235.756242 
L 275.092073 235.581864 
L 275.237405 235.472877 
L 275.337889 235.320296 
L 275.427118 235.211309 
L 275.516262 235.015133 
L 275.627574 234.906146 
L 275.727642 234.70997 
L 275.772083 234.644579 
L 275.772083 234.600984 
L 275.883093 234.274024 
L 275.92746 234.186835 
L 275.92746 234.165037 
L 276.038287 233.968861 
L 276.182168 233.859875 
L 276.292696 233.620104 
L 276.381025 233.511117 
L 276.480296 233.336739 
L 276.590475 233.227752 
L 276.700525 233.009779 
L 276.79946 232.900792 
L 276.887315 232.704616 
L 276.964121 232.639224 
L 276.964121 232.59563 
L 277.073736 232.399454 
L 277.15039 232.312264 
L 277.15039 232.290467 
L 277.248854 232.094291 
L 277.390898 231.985304 
L 277.500017 231.876318 
L 277.565428 231.789128 
L 277.565428 231.767331 
L 277.674345 231.61475 
L 277.783137 231.505763 
L 277.870079 231.374979 
L 277.967794 231.265993 
L 278.065407 231.091614 
L 278.141259 231.004425 
L 278.141259 230.982627 
L 278.249513 230.764654 
L 278.303593 230.655667 
L 278.41166 230.350505 
L 278.487233 230.263315 
L 278.487233 230.241518 
L 278.59509 230.088937 
L 278.692056 229.97995 
L 278.799678 229.761977 
L 278.917921 229.65299 
L 279.025286 229.544004 
L 279.078923 229.500409 
L 279.078923 229.435017 
L 279.143247 229.260638 
L 279.218235 229.173449 
L 279.218235 229.151652 
L 279.325259 228.824692 
L 279.368034 228.715705 
L 279.43216 228.606718 
L 279.581619 228.497732 
L 279.688231 228.34515 
L 279.805364 228.257961 
L 279.805364 228.236164 
L 279.911722 228.083583 
L 279.986102 227.974596 
L 280.081646 227.822015 
L 280.155892 227.713028 
L 280.261855 227.473257 
L 280.283034 227.45146 
L 280.283034 227.364271 
L 280.378278 227.211689 
L 280.43115 227.146297 
L 280.43115 227.102703 
L 280.536804 226.775743 
L 280.631792 226.688553 
L 280.631792 226.666756 
L 280.737221 226.405188 
L 280.895145 226.317999 
L 280.895145 226.296202 
L 281.00028 226.100026 
L 281.063305 225.991039 
L 281.168253 225.664079 
L 281.252127 225.57689 
L 281.252127 225.555092 
L 281.335927 225.467903 
L 281.461487 225.358916 
L 281.565992 225.206335 
L 281.639077 225.097348 
L 281.73296 224.92297 
L 281.795497 224.813983 
L 281.899632 224.639605 
L 282.05562 224.530618 
L 282.159468 224.421631 
L 282.221723 224.312645 
L 282.325388 224.072874 
L 282.408238 223.963887 
L 282.511699 223.854901 
L 282.594386 223.745914 
L 282.687322 223.549738 
L 282.8214 223.462549 
L 282.8214 223.440751 
L 282.893518 223.28817 
L 283.05815 223.179183 
L 283.1609 222.939413 
L 283.212232 222.852224 
L 283.212232 222.830426 
L 283.314814 222.481669 
L 283.417284 222.372682 
L 283.519642 222.111114 
L 283.61167 222.002128 
L 283.713817 221.762357 
L 283.846444 221.65337 
L 283.927967 221.478992 
L 284.039947 221.370005 
L 284.141631 221.130235 
L 284.293952 221.021248 
L 284.334529 220.846869 
L 284.446027 220.781477 
L 284.446027 220.737883 
L 284.537154 220.498112 
L 284.638303 220.389125 
L 284.729244 220.149355 
L 284.850363 220.040368 
L 284.961252 219.822395 
L 285.051882 219.713408 
L 285.142425 219.560827 
L 285.212787 219.45184 
L 285.32325 219.146678 
L 285.363387 219.081286 
L 285.363387 219.037691 
L 285.463653 218.906907 
L 285.563812 218.79792 
L 285.673864 218.645339 
L 285.743831 218.536352 
L 285.853673 218.340176 
L 285.913533 218.274784 
L 285.913533 218.23119 
L 286.023178 218.100406 
L 286.132695 218.013217 
L 286.132695 217.991419 
L 286.242085 217.773446 
L 286.301698 217.664459 
L 286.410892 217.424689 
L 286.51005 217.315702 
L 286.599202 217.163121 
L 286.698162 217.075931 
L 286.698162 217.054134 
L 286.797017 216.901553 
L 286.866154 216.792566 
L 286.974696 216.552796 
L 287.033848 216.465606 
L 287.033848 216.443809 
L 287.142197 216.26943 
L 287.270085 216.160444 
L 287.368342 215.94247 
L 287.446874 215.855281 
L 287.446874 215.833484 
L 287.544947 215.61551 
L 287.613537 215.506524 
L 287.721222 215.310348 
L 287.789684 215.201361 
L 287.887401 214.961591 
L 287.975259 214.852604 
L 288.082531 214.525644 
L 288.140991 214.416657 
L 288.218882 214.220481 
L 288.345317 214.111495 
L 288.452168 213.893521 
L 288.568595 213.784535 
L 288.675193 213.653751 
L 288.713926 213.588359 
L 288.713926 213.544764 
L 288.801017 213.326791 
L 288.955647 213.217804 
L 289.052162 213.065223 
L 289.148579 212.956236 
L 289.254523 212.76006 
L 289.293018 212.716466 
L 289.293018 212.651074 
L 289.389189 212.454898 
L 289.437237 212.367708 
L 289.437237 212.345911 
L 289.542857 212.040748 
L 289.648358 211.931762 
L 289.753742 211.822775 
L 289.792034 211.713788 
L 289.897257 211.365031 
L 289.954602 211.256045 
L 290.059643 210.972679 
L 290.135964 210.863693 
L 290.240803 210.711111 
L 290.345526 210.602125 
L 290.450133 210.340557 
L 290.526138 210.253367 
L 290.526138 210.23157 
L 290.621057 210.057191 
L 290.668481 209.970002 
L 290.668481 209.948205 
L 290.753784 209.861016 
L 290.857939 209.752029 
L 290.943071 209.534056 
L 291.037571 209.425069 
L 291.141412 209.119906 
L 291.226288 209.01092 
L 291.329922 208.792946 
L 291.414628 208.68396 
L 291.518054 208.444189 
L 291.649524 208.335203 
L 291.752693 208.095432 
L 291.79955 207.986445 
L 291.883835 207.877459 
L 291.958692 207.768472 
L 292.033489 207.594093 
L 292.136239 207.485107 
L 292.238876 207.267133 
L 292.313451 207.158147 
L 292.415896 206.940173 
L 292.499631 206.831187 
L 292.574 206.591416 
L 292.676162 206.48243 
L 292.759666 206.286254 
L 292.917195 206.177267 
L 293.028234 205.981091 
L 293.120666 205.872104 
L 293.231465 205.545144 
L 293.296037 205.436158 
L 293.40663 205.087401 
L 293.498691 204.978414 
L 293.609047 204.804035 
L 293.664176 204.695049 
L 293.774337 204.411683 
L 293.86604 204.302697 
L 293.966811 204.019331 
L 294.04003 203.953939 
L 294.04003 203.910345 
L 294.113193 203.605182 
L 294.2137 203.517993 
L 294.2137 203.496195 
L 294.304976 203.21283 
L 294.387049 203.103844 
L 294.496369 202.820478 
L 294.53278 202.733289 
L 294.53278 202.711492 
L 294.623748 202.537113 
L 294.741875 202.428126 
L 294.850784 202.210153 
L 294.914256 202.101166 
L 295.004856 201.926788 
L 295.13155 201.817801 
L 295.240009 201.556233 
L 295.348344 201.447247 
L 295.456554 201.076692 
L 295.528625 200.967705 
L 295.627632 200.727935 
L 295.672602 200.662543 
L 295.672602 200.618948 
L 295.771458 200.422772 
L 295.825336 200.313785 
L 295.924032 200.095812 
L 296.049497 199.986826 
L 296.156904 199.768852 
L 296.210562 199.681663 
L 296.210562 199.659866 
L 296.317787 199.507284 
L 296.389202 199.398298 
L 296.433809 199.311108 
L 296.549688 199.202122 
L 296.656527 199.027743 
L 296.701008 198.940554 
L 296.701008 198.918756 
L 296.807676 198.613594 
L 296.887597 198.504607 
L 296.994054 198.373823 
L 297.073817 198.264837 
L 297.180064 197.981471 
L 297.25967 197.872485 
L 297.365707 197.545525 
L 297.445157 197.436538 
L 297.533356 197.196767 
L 297.595046 197.087781 
L 297.700706 196.826213 
L 297.815038 196.717226 
L 297.911672 196.477456 
L 298.052053 196.368469 
L 298.157202 196.172293 
L 298.20098 196.063306 
L 298.288474 195.779941 
L 298.375887 195.670954 
L 298.480675 195.561968 
L 298.515579 195.452981 
L 298.594064 195.278602 
L 298.742137 195.169616 
L 298.846519 194.886251 
L 298.907355 194.777264 
L 299.002875 194.493899 
L 299.098298 194.384912 
L 299.202286 194.166939 
L 299.245581 194.057952 
L 299.340758 193.796384 
L 299.461755 193.687397 
L 299.548086 193.447627 
L 299.617094 193.360438 
L 299.617094 193.33864 
L 299.720511 193.120667 
L 299.866824 193.01168 
L 299.952784 192.859099 
L 300.098738 192.750112 
L 300.201627 192.532139 
L 300.244465 192.466747 
L 300.244465 192.423152 
L 300.330082 192.226976 
L 300.42417 192.11799 
L 300.526705 191.878219 
L 300.603533 191.769233 
L 300.714396 191.594854 
L 300.833642 191.485867 
L 300.935732 191.224299 
L 300.995234 191.115313 
L 301.105637 190.81015 
L 301.139581 190.701163 
L 301.249815 190.461393 
L 301.292179 190.352406 
L 301.368385 190.199825 
L 301.469898 190.090838 
L 301.579746 189.872865 
L 301.689467 189.785676 
L 301.689467 189.763878 
L 301.79906 189.5895 
L 301.91694 189.480513 
L 301.984235 189.349729 
L 302.085086 189.240742 
L 302.19422 189.066364 
L 302.353495 188.979174 
L 302.353495 188.957377 
L 302.462319 188.782998 
L 302.520864 188.717606 
L 302.520864 188.674012 
L 302.61279 188.390647 
L 302.721314 188.303457 
L 302.721314 188.28166 
L 302.829713 187.932903 
L 302.962957 187.823916 
L 303.071078 187.453361 
L 303.154164 187.366172 
L 303.154164 187.344375 
L 303.228879 187.148199 
L 303.303535 187.039212 
L 303.3947 186.821239 
L 303.510602 186.712252 
L 303.609832 186.559671 
L 303.692445 186.450684 
L 303.783235 186.232711 
L 303.898659 186.145522 
L 303.898659 186.123724 
L 303.98925 185.862156 
L 304.153739 185.75317 
L 304.260503 185.491602 
L 304.334345 185.42621 
L 304.334345 185.382615 
L 304.424519 185.230034 
L 304.522792 185.164642 
L 304.522792 185.121047 
L 304.629138 184.968466 
L 304.670009 184.881277 
L 304.670009 184.859479 
L 304.751697 184.685101 
L 304.874096 184.576114 
L 304.980046 184.467127 
L 305.126551 184.358141 
L 305.207844 184.11837 
L 305.280947 184.009383 
L 305.353995 183.835005 
L 305.459407 183.726018 
L 305.564702 183.529842 
L 305.613259 183.420856 
L 305.718382 183.311869 
L 305.815314 183.202882 
L 305.920212 183.006706 
L 305.984706 182.89772 
L 306.089416 182.679746 
L 306.185967 182.592557 
L 306.185967 182.57076 
L 306.258316 182.418178 
L 306.426913 182.309192 
L 306.507092 182.091219 
L 306.611222 181.982232 
L 306.70724 181.742461 
L 306.787181 181.633475 
L 306.891002 181.371907 
L 306.938881 181.26292 
L 307.042535 181.132136 
L 307.114229 181.023149 
L 307.20178 180.914163 
L 307.328983 180.805176 
L 307.432209 180.565405 
L 307.519466 180.456419 
L 307.606642 180.194851 
L 307.654158 180.085864 
L 307.764937 179.780702 
L 307.82818 179.671715 
L 307.930861 179.431944 
L 308.057083 179.322958 
L 308.159515 179.06139 
L 308.253968 178.952403 
L 308.340467 178.778025 
L 308.419033 178.669038 
L 308.521072 178.451065 
L 308.662173 178.342078 
L 308.756124 178.102307 
L 308.818706 177.993321 
L 308.9125 177.731753 
L 308.974978 177.622766 
L 309.084215 177.470185 
L 309.177746 177.361198 
L 309.286747 177.034238 
L 309.380077 176.947049 
L 309.380077 176.925252 
L 309.488845 176.750873 
L 309.558701 176.641886 
L 309.667263 176.380318 
L 309.783441 176.271332 
L 309.891744 176.031561 
L 309.984477 175.966169 
L 309.984477 175.922574 
L 310.092549 175.661006 
L 310.185084 175.55202 
L 310.292927 175.334047 
L 310.339108 175.22506 
L 310.446774 175.007087 
L 310.538962 174.919897 
L 310.538962 174.8981 
L 310.6464 174.592937 
L 310.700074 174.483951 
L 310.807329 174.331369 
L 310.883864 174.222383 
L 310.975626 173.91722 
L 311.067297 173.830031 
L 311.067297 173.808234 
L 311.174135 173.655652 
L 311.227508 173.546666 
L 311.32655 173.35049 
L 311.417881 173.241503 
L 311.501523 173.154314 
L 311.569903 173.067124 
L 311.569903 173.045327 
L 311.668585 172.849151 
L 311.721679 172.740164 
L 311.820203 172.500394 
L 311.948887 172.391407 
L 312.039616 172.129839 
L 312.092502 172.020853 
L 312.190638 171.781082 
L 312.29621 171.693893 
L 312.29621 171.672095 
L 312.386606 171.345135 
L 312.439297 171.236149 
L 312.522037 171.06177 
L 312.664781 170.952783 
L 312.769823 170.73481 
L 312.867256 170.625824 
L 312.949622 170.364256 
L 313.061822 170.277066 
L 313.061822 170.255269 
L 313.166422 169.928309 
L 313.226141 169.862917 
L 313.226141 169.819322 
L 313.323104 169.601349 
L 313.405072 169.492362 
L 313.501851 169.056416 
L 313.583664 168.947429 
L 313.643119 168.794848 
L 313.754497 168.707659 
L 313.754497 168.685861 
L 313.850917 168.511483 
L 313.910204 168.402496 
L 314.021267 168.140928 
L 314.065655 168.075536 
L 314.065655 168.031941 
L 314.176534 167.704981 
L 314.20608 167.595995 
L 314.316794 167.399819 
L 314.42001 167.290832 
L 314.523113 167.007467 
L 314.604043 166.89848 
L 314.706945 166.549723 
L 314.831746 166.440736 
L 314.941728 166.157371 
L 315.029621 166.048384 
L 315.139371 165.743222 
L 315.22708 165.634235 
L 315.329304 165.35087 
L 315.402252 165.263681 
L 315.402252 165.241883 
L 315.51157 165.045707 
L 315.628036 164.936721 
L 315.715291 164.784139 
L 315.802465 164.675153 
L 315.911319 164.391787 
L 315.976571 164.282801 
L 316.056262 164.217409 
L 316.128651 164.130219 
L 316.128651 164.108422 
L 316.237129 163.934044 
L 316.345482 163.825057 
L 316.439287 163.454502 
L 316.496967 163.345516 
L 316.597822 163.171137 
L 316.727335 163.06215 
L 316.835126 162.800582 
L 316.906918 162.691596 
L 316.992996 162.451825 
L 317.064668 162.342839 
L 317.164917 162.16846 
L 317.26506 162.059473 
L 317.365096 161.776108 
L 317.47216 161.667121 
L 317.56485 161.492743 
L 317.657449 161.383756 
L 317.764182 161.231175 
L 317.884999 161.122188 
L 317.984379 160.795228 
L 318.048211 160.708039 
L 318.048211 160.686242 
L 318.140336 160.577255 
L 318.218218 160.490066 
L 318.218218 160.468268 
L 318.303106 160.315687 
L 318.373789 160.228498 
L 318.373789 160.2067 
L 318.479712 159.945132 
L 318.571417 159.836146 
L 318.677119 159.421996 
L 318.810838 159.31301 
L 318.888167 159.182226 
L 319.007552 159.073239 
L 319.112765 158.768077 
L 319.217862 158.680887 
L 319.217862 158.65909 
L 319.30885 158.419319 
L 319.399751 158.310333 
L 319.497546 158.135954 
L 319.58129 158.048765 
L 319.58129 158.026967 
L 319.678897 157.787197 
L 319.727663 157.67821 
L 319.825118 157.460237 
L 319.880762 157.373048 
L 319.880762 157.35125 
L 319.971112 157.176872 
L 319.998895 157.089682 
L 319.998895 157.067885 
L 320.082194 156.871709 
L 320.193146 156.78452 
L 320.193146 156.762722 
L 320.303966 156.631938 
L 320.366245 156.522952 
L 320.456132 156.392168 
L 320.539028 156.283181 
L 320.642545 156.108802 
L 320.697708 156.021613 
L 320.697708 155.999816 
L 320.801051 155.847235 
L 320.856121 155.738248 
L 320.945541 155.520275 
L 321.082945 155.411288 
L 321.185867 155.258707 
L 321.240713 155.14972 
L 321.343462 154.909949 
L 321.493958 154.800963 
L 321.596432 154.582989 
L 321.651039 154.474003 
L 321.73289 154.212435 
L 321.794232 154.125246 
L 321.794232 154.103448 
L 321.862343 153.994462 
L 321.971217 153.885475 
L 322.079966 153.60211 
L 322.147871 153.493123 
L 322.249635 153.231555 
L 322.310642 153.144366 
L 322.310642 153.122568 
L 322.391922 152.904595 
L 322.479896 152.795608 
L 322.56103 152.490446 
L 322.648847 152.403257 
L 322.648847 152.381459 
L 322.756817 152.185283 
L 322.810755 152.076297 
L 322.911806 151.858323 
L 323.006023 151.749337 
L 323.113585 151.574958 
L 323.200888 151.465971 
L 323.301521 151.291593 
L 323.375251 151.182606 
L 323.482392 150.877444 
L 323.609463 150.768457 
L 323.709661 150.528686 
L 323.783073 150.4197 
L 323.88975 150.136334 
L 323.936384 150.027348 
L 324.036235 149.76578 
L 324.082796 149.656793 
L 324.175849 149.482414 
L 324.228981 149.417022 
L 324.228981 149.373428 
L 324.335155 149.177252 
L 324.401454 149.068265 
L 324.507433 148.7849 
L 324.580226 148.675913 
L 324.686005 148.436143 
L 324.771863 148.327156 
L 324.870833 148.152777 
L 324.969698 148.043791 
L 325.068461 147.738628 
L 325.127668 147.629642 
L 325.232835 147.346276 
L 325.305068 147.23729 
L 325.410037 146.975722 
L 325.44937 146.866735 
L 325.527987 146.605167 
L 325.619623 146.49618 
L 325.724242 146.234612 
L 325.854852 146.125626 
L 325.952691 145.951247 
L 326.069963 145.842261 
L 326.161074 145.689679 
L 326.252097 145.580693 
L 326.362507 145.406314 
L 326.427393 145.319125 
L 326.427393 145.297327 
L 326.537598 145.057557 
L 326.589414 144.970367 
L 326.589414 144.94857 
L 326.69943 144.795989 
L 326.770547 144.687002 
L 326.880351 144.251056 
L 326.938431 144.142069 
L 327.04804 143.771514 
L 327.118895 143.662528 
L 327.221862 143.444554 
L 327.266874 143.357365 
L 327.266874 143.335568 
L 327.363258 143.052202 
L 327.459543 142.943216 
L 327.555729 142.74704 
L 327.645415 142.638053 
L 327.735015 142.463675 
L 327.869256 142.354688 
L 327.965025 142.071323 
L 328.04157 141.962336 
L 328.149903 141.657173 
L 328.194474 141.548187 
L 328.296272 141.330213 
L 328.404313 141.221227 
L 328.499539 141.025051 
L 328.59467 140.916064 
L 328.677039 140.719888 
L 328.797295 140.610902 
L 328.892125 140.414726 
L 328.961607 140.305739 
L 329.06258 139.935184 
L 329.207539 139.826198 
L 329.314539 139.651819 
L 329.40885 139.542832 
L 329.509345 139.23767 
L 329.553278 139.128683 
L 329.603462 138.976102 
L 329.716277 138.867115 
L 329.753852 138.801723 
L 329.897752 138.692737 
L 330.003972 138.518358 
L 330.122546 138.409371 
L 330.191126 138.343979 
L 330.284564 138.234993 
L 330.384129 138.017019 
L 330.409004 137.951627 
L 330.409004 137.908033 
L 330.502226 137.711857 
L 330.545698 137.60287 
L 330.651189 137.493884 
L 330.737976 137.384897 
L 330.830873 137.188721 
L 330.942229 137.079734 
L 331.047277 136.818166 
L 331.127529 136.70918 
L 331.226207 136.534801 
L 331.318624 136.425814 
L 331.429405 136.186044 
L 331.546199 136.077057 
L 331.626028 135.946273 
L 331.742578 135.837287 
L 331.840614 135.597516 
L 331.987477 135.488529 
L 332.085259 135.139772 
L 332.146321 135.030785 
L 332.256133 134.703825 
L 332.292708 134.594839 
L 332.396262 134.464055 
L 332.444954 134.376866 
L 332.444954 134.355068 
L 332.54834 134.18069 
L 332.62125 134.071703 
L 332.73051 133.722946 
L 332.851761 133.613959 
L 332.960754 133.19981 
L 333.027299 133.11262 
L 333.027299 133.090823 
L 333.136089 132.916444 
L 333.214581 132.807458 
L 333.323155 132.589485 
L 333.395468 132.480498 
L 333.497817 132.240727 
L 333.55797 132.131741 
L 333.666149 131.89197 
L 333.780203 131.782983 
L 333.882135 131.586807 
L 333.995928 131.477821 
L 334.103605 131.23805 
L 334.169348 131.129064 
L 334.270859 130.867496 
L 334.467599 130.758509 
L 334.574739 130.475144 
L 334.705522 130.366157 
L 334.806457 130.082792 
L 334.942845 129.973805 
L 335.049446 129.755832 
L 335.167749 129.646845 
L 335.274096 129.341683 
L 335.333125 129.254493 
L 335.333125 129.232696 
L 335.439285 129.014723 
L 335.527661 128.927533 
L 335.527661 128.905736 
L 335.580646 128.687763 
L 335.71004 128.578776 
L 335.809906 128.3826 
L 335.897934 128.273613 
L 335.9976 128.186424 
L 336.085453 128.077437 
L 336.190769 127.837667 
L 336.2726 127.72868 
L 336.377706 127.48891 
L 336.476866 127.379923 
L 336.587569 127.052963 
L 336.703957 126.943976 
L 336.802774 126.726003 
L 336.895684 126.617016 
L 337.005895 126.355448 
L 337.127558 126.246462 
L 337.237498 125.984894 
L 337.27219 125.897705 
L 337.27219 125.875907 
L 337.364638 125.679731 
L 337.428143 125.570745 
L 337.520438 125.374569 
L 337.733524 125.265582 
L 337.84276 125.091203 
L 337.957608 124.982217 
L 338.043653 124.829635 
L 338.163983 124.720649 
L 338.272721 124.502676 
L 338.358478 124.393689 
L 338.466991 124.066729 
L 338.541165 123.957742 
L 338.649469 123.696174 
L 338.683644 123.587188 
L 338.769028 123.478201 
L 338.871386 123.369214 
L 338.973634 123.129444 
L 339.092782 123.020457 
L 339.189125 122.780687 
L 339.240091 122.715295 
L 339.240091 122.6717 
L 339.347594 122.562713 
L 339.505796 122.453727 
L 339.612996 122.322943 
L 339.725707 122.213956 
L 339.832657 122.061375 
L 339.89452 121.952388 
L 340.001279 121.538239 
L 340.102308 121.429252 
L 340.203228 121.298468 
L 340.326428 121.189482 
L 340.39356 121.0369 
L 340.471821 120.927914 
L 340.577928 120.753535 
L 340.656035 120.666346 
L 340.656035 120.644548 
L 340.722933 120.426575 
L 340.895533 120.317588 
L 340.995607 120.14321 
L 341.051158 120.034223 
L 341.162161 119.838047 
L 341.273034 119.729061 
L 341.383776 119.532885 
L 341.455689 119.423898 
L 341.55517 119.336709 
L 341.671099 119.227722 
L 341.781374 119.075141 
L 341.891521 118.966154 
L 341.990542 118.748181 
L 342.105937 118.639194 
L 342.204733 118.464815 
L 342.243126 118.399423 
L 342.243126 118.355829 
L 342.347257 118.116058 
L 342.451273 118.007072 
L 342.555174 117.789098 
L 342.615275 117.680112 
L 342.708082 117.52753 
L 342.773539 117.418544 
L 342.838949 117.28776 
L 342.931537 117.178773 
L 343.03491 116.982597 
L 343.089271 116.87361 
L 343.187042 116.699232 
L 343.273864 116.590245 
L 343.38228 116.459461 
L 343.46351 116.350475 
L 343.5663 116.197893 
L 343.679781 116.088907 
L 343.755358 115.849136 
L 343.830876 115.740149 
L 343.938652 115.609365 
L 343.976345 115.522176 
L 343.976345 115.500379 
L 344.083955 115.238811 
L 344.164582 115.129824 
L 344.239772 114.911851 
L 344.363168 114.802864 
L 344.464982 114.584891 
L 344.539932 114.475904 
L 344.646901 114.192539 
L 344.716365 114.10535 
L 344.716365 114.083552 
L 344.812462 113.821984 
L 344.87114 113.712998 
L 344.972406 113.560416 
L 345.084206 113.45143 
L 345.185244 113.255254 
L 345.275554 113.146267 
L 345.371082 112.950091 
L 345.48241 112.841105 
L 345.583021 112.623131 
L 345.630642 112.514145 
L 345.741663 112.296171 
L 345.815605 112.187185 
L 345.910587 111.991009 
L 346.021279 111.903819 
L 346.021279 111.882022 
L 346.126579 111.642251 
L 346.205477 111.533265 
L 346.315823 111.337089 
L 346.457507 111.228102 
L 346.567558 110.966534 
L 346.656553 110.857548 
L 346.766372 110.748561 
L 346.860401 110.639574 
L 346.969982 110.486993 
L 347.032543 110.378006 
L 347.115893 110.247222 
L 347.173153 110.138236 
L 347.282372 109.854871 
L 347.370694 109.745884 
L 347.46931 109.418924 
L 347.557457 109.309937 
L 347.583367 109.266343 
L 347.764537 109.157356 
L 347.867907 109.048369 
L 347.94536 108.939383 
L 348.053687 108.786801 
L 348.100075 108.677815 
L 348.203077 108.481639 
L 348.275112 108.372652 
L 348.377923 108.220071 
L 348.449824 108.111084 
L 348.537058 107.936706 
L 348.660076 107.827719 
L 348.757351 107.500759 
L 348.839188 107.391772 
L 348.936279 107.064812 
L 348.992443 106.955826 
L 349.094474 106.75965 
L 349.191302 106.650663 
L 349.293118 106.476285 
L 349.394824 106.367298 
L 349.491343 106.236514 
L 349.557326 106.127527 
L 349.633402 105.953149 
L 349.734742 105.844162 
L 349.825854 105.560797 
L 349.886547 105.45181 
L 349.992665 105.277431 
L 350.088574 105.168445 
L 350.169264 105.059458 
L 350.229735 104.994066 
L 350.229735 104.950472 
L 350.3405 104.710701 
L 350.40589 104.623512 
L 350.40589 104.601714 
L 350.511425 104.361944 
L 350.611825 104.252957 
L 350.712117 104.056781 
L 350.787267 103.947794 
L 350.897378 103.642632 
L 350.932386 103.533645 
L 351.00736 103.337469 
L 351.107232 103.228483 
L 351.211985 103.054104 
L 351.32658 102.945117 
L 351.401241 102.879725 
L 351.56032 102.770739 
L 351.669531 102.59636 
L 351.699294 102.509171 
L 351.699294 102.487373 
L 351.793481 102.2694 
L 351.927164 102.160413 
L 352.035951 101.898845 
L 352.085358 101.789859 
L 352.189028 101.506494 
L 352.312297 101.397507 
L 352.40095 101.266723 
L 352.474765 101.157736 
L 352.578008 100.896168 
L 352.641863 100.808979 
L 352.641863 100.787182 
L 352.744923 100.656398 
L 352.789057 100.569208 
L 352.789057 100.547411 
L 352.896853 100.198654 
L 352.994743 100.111464 
L 352.994743 100.089667 
L 353.102304 99.937086 
L 353.141387 99.828099 
L 353.243902 99.653721 
L 353.346305 99.566531 
L 353.346305 99.544734 
L 353.453466 99.326761 
L 353.565367 99.217774 
L 353.667422 98.912611 
L 353.735397 98.825422 
L 353.735397 98.803625 
L 353.842116 98.672841 
L 353.89543 98.563854 
L 353.992288 98.1933 
L 354.040679 98.084313 
L 354.14222 97.822745 
L 354.22434 97.713758 
L 354.32086 97.53938 
L 354.479902 97.430393 
L 354.580971 97.168825 
L 354.672321 97.059838 
L 354.782785 96.950852 
L 354.845163 96.841865 
L 354.936257 96.645689 
L 355.051198 96.536703 
L 355.142093 96.340527 
L 355.209012 96.23154 
L 355.304529 96.013567 
L 355.380872 95.90458 
L 355.485744 95.686607 
L 355.595257 95.599417 
L 355.595257 95.57762 
L 355.690383 95.294255 
L 355.880347 95.185268 
L 355.989403 94.989092 
L 356.055723 94.880106 
L 356.13146 94.618538 
L 356.221319 94.509551 
L 356.329981 94.226186 
L 356.405498 94.138996 
L 356.405498 94.117199 
L 356.490383 93.899226 
L 356.636393 93.790239 
L 356.744578 93.528671 
L 356.852638 93.441482 
L 356.852638 93.419685 
L 356.93712 93.288901 
L 357.063702 93.179914 
L 357.147995 92.983738 
L 357.255594 92.874751 
L 357.335044 92.72217 
L 357.433097 92.613183 
L 357.54037 92.308021 
L 357.610265 92.199034 
L 357.717337 92.046453 
L 357.833582 91.937466 
L 357.926474 91.763088 
L 358.02855 91.654101 
L 358.135148 91.348938 
L 358.246252 91.239952 
L 358.334116 91.109168 
L 358.435752 91.000181 
L 358.5096 90.869397 
L 358.611046 90.782208 
L 358.611046 90.76041 
L 358.72159 90.564234 
L 358.795214 90.477045 
L 358.795214 90.455248 
L 358.896353 90.150085 
L 359.02033 90.041099 
L 359.11206 89.844923 
L 359.272373 89.735936 
L 359.354713 89.517963 
L 359.446118 89.408976 
L 359.551124 89.191003 
L 359.692468 89.082016 
L 359.788098 88.776853 
L 359.856345 88.689664 
L 359.856345 88.667867 
L 359.965438 88.449894 
L 359.992691 88.340907 
L 360.083479 88.188326 
L 360.205904 88.079339 
L 360.287432 87.861366 
L 360.423156 87.752379 
L 360.518047 87.66519 
L 360.716556 87.556203 
L 360.820155 87.360027 
L 360.874162 87.25104 
L 360.878661 87.207446 
L 361.080901 87.098459 
L 361.184101 87.01127 
L 361.287188 86.902283 
L 361.354358 86.68431 
L 361.452787 86.597121 
L 361.452787 86.575323 
L 361.533243 86.35735 
L 361.644874 86.248363 
L 361.738542 86.117579 
L 361.823209 86.008593 
L 361.925599 85.834214 
L 361.996762 85.725227 
L 362.081197 85.616241 
L 362.201054 85.507254 
L 362.29417 85.245686 
L 362.502241 85.158497 
L 362.502241 85.1367 
L 362.581807 85.027713 
L 362.678962 84.918726 
L 362.780426 84.766145 
L 362.912606 84.657158 
L 363.018217 84.48278 
L 363.079769 84.373793 
L 363.185193 84.199414 
L 363.316807 84.090428 
L 363.34749 84.025036 
L 363.544503 83.937846 
L 363.544503 83.916049 
L 363.623193 83.807062 
L 363.776013 83.698076 
L 363.854509 83.610887 
L 364.011307 83.5019 
L 364.102651 83.392913 
L 364.189564 83.283927 
L 364.293753 83.022359 
L 364.38049 82.913372 
L 364.488798 82.760791 
L 364.532086 82.651804 
L 364.640221 82.412033 
L 364.709361 82.303047 
L 364.795716 82.19406 
L 364.907859 82.085073 
L 365.011257 81.8671 
L 365.11024 81.758114 
L 365.213417 81.62733 
L 365.290725 81.518343 
L 365.36368 81.387559 
L 365.599324 81.278572 
L 365.676316 81.082396 
L 365.774603 80.995207 
L 365.774603 80.97341 
L 365.885587 80.711842 
L 365.949557 80.602855 
L 366.056076 80.472071 
L 366.187994 80.363085 
L 366.273004 80.166909 
L 366.396132 80.057922 
L 366.468236 79.818151 
L 366.595343 79.709165 
L 366.684217 79.534786 
L 366.777232 79.425799 
L 366.836376 79.316813 
L 367.005154 79.229623 
L 367.005154 79.207826 
L 367.110487 79.055245 
L 367.257756 78.946258 
L 367.325002 78.793677 
L 367.484519 78.68469 
L 367.593507 78.597501 
L 367.673073 78.488514 
L 367.77348 78.335933 
L 367.886311 78.226946 
L 367.978147 78.096162 
L 368.099068 77.987176 
L 368.190697 77.834594 
L 368.269759 77.725608 
L 368.373688 77.398648 
L 368.548031 77.289661 
L 368.643367 77.071688 
L 368.817211 76.984499 
L 368.817211 76.962701 
L 368.904013 76.853715 
L 369.027878 76.788323 
L 369.027878 76.744728 
L 369.135095 76.548552 
L 369.262772 76.439565 
L 369.365611 76.265187 
L 369.456016 76.1562 
L 369.538128 76.003619 
L 369.681651 75.894632 
L 369.79222 75.676659 
L 369.914922 75.567672 
L 369.976214 75.458685 
L 370.135384 75.349699 
L 370.245422 75.240712 
L 370.351263 75.131726 
L 370.461048 74.913752 
L 370.554469 74.804766 
L 370.659963 74.695779 
L 370.765339 74.586792 
L 370.850365 74.347022 
L 370.967655 74.238035 
L 371.040382 74.107251 
L 371.096909 74.041859 
L 371.096909 73.998264 
L 371.189701 73.911075 
L 371.334757 73.802089 
L 371.427315 73.562318 
L 371.49165 73.475129 
L 371.49165 73.453331 
L 371.5961 73.257155 
L 371.664332 73.148169 
L 371.764583 72.97379 
L 371.828688 72.864803 
L 371.872734 72.777614 
L 371.98476 72.668627 
L 372.064697 72.472451 
L 372.264243 72.363465 
L 372.36784 72.167289 
L 372.415616 72.058302 
L 372.523023 71.949316 
L 372.622364 71.840329 
L 372.681919 71.687748 
L 372.824697 71.578761 
L 372.907884 71.404382 
L 373.062179 71.295396 
L 373.125407 71.186409 
L 373.350312 71.077422 
L 373.448785 70.946638 
L 373.645422 70.837652 
L 373.739663 70.750462 
L 373.794593 70.641476 
L 373.900439 70.467097 
L 374.013993 70.358111 
L 374.123502 70.161935 
L 374.186022 70.052948 
L 374.295331 69.900367 
L 374.330439 69.79138 
L 374.4201 69.617001 
L 374.606945 69.508015 
L 374.711883 69.311839 
L 374.832223 69.202852 
L 374.921408 68.919487 
L 375.045351 68.8105 
L 375.142068 68.657919 
L 375.269583 68.548932 
L 375.377642 68.330959 
L 375.477872 68.221972 
L 375.577996 68.15658 
L 375.662632 68.047594 
L 375.762559 67.851418 
L 375.812483 67.764228 
L 375.812483 67.742431 
L 375.919922 67.633444 
L 376.077021 67.524458 
L 376.134432 67.437268 
L 376.325546 67.328282 
L 376.428587 67.153903 
L 376.588649 67.044917 
L 376.687599 66.805146 
L 376.900369 66.696159 
L 377.002783 66.565375 
L 377.154303 66.456389 
L 377.233754 66.303807 
L 377.362246 66.194821 
L 377.471704 66.020442 
L 377.51696 65.933253 
L 377.51696 65.911455 
L 377.596106 65.649887 
L 377.731629 65.540901 
L 377.825628 65.213941 
L 377.927041 65.104954 
L 378.017094 64.97417 
L 378.181969 64.865184 
L 378.290479 64.690805 
L 378.432476 64.581818 
L 378.529508 64.363845 
L 378.615261 64.254858 
L 378.719551 64.124074 
L 378.83488 64.015088 
L 378.94264 63.818912 
L 379.198542 63.709925 
L 379.309586 63.448357 
L 379.40572 63.339371 
L 379.512829 63.208587 
L 379.664053 63.0996 
L 379.748779 62.903424 
L 379.818713 62.794437 
L 379.921679 62.576464 
L 380.006174 62.467477 
L 380.097931 62.293099 
L 380.29216 62.184112 
L 380.387296 62.009734 
L 380.537122 61.900747 
L 380.632011 61.726368 
L 380.734092 61.617382 
L 380.825143 61.421206 
L 381.057831 61.312219 
L 381.163079 61.22503 
L 381.286324 61.13784 
L 381.286324 61.116043 
L 381.394936 60.89807 
L 381.499808 60.789083 
L 381.557618 60.701894 
L 381.658701 60.614705 
L 381.658701 60.592907 
L 381.756072 60.440326 
L 381.813725 60.353137 
L 381.813725 60.331339 
L 381.889342 60.200555 
L 382.061953 60.091569 
L 382.13019 59.938987 
L 382.327442 59.830001 
L 382.438439 59.721014 
L 382.556453 59.612027 
L 382.61719 59.459446 
L 382.795603 59.350459 
L 382.898927 59.285067 
L 383.05548 59.176081 
L 383.162071 59.001702 
L 383.343 58.892716 
L 383.428022 58.783729 
L 383.516506 58.674742 
L 383.622577 58.522161 
L 383.788515 58.413174 
L 383.887233 58.28239 
L 383.961204 58.195201 
L 383.961204 58.173404 
L 384.04567 57.999025 
L 384.200329 57.890038 
L 384.298617 57.71566 
L 384.543887 57.606673 
L 384.599859 57.541281 
L 384.75012 57.432294 
L 384.844348 57.323308 
L 385.015112 57.214321 
L 385.084723 57.105335 
L 385.331428 56.996348 
L 385.411208 56.887361 
L 385.511703 56.778375 
L 385.546332 56.712983 
L 385.722742 56.603996 
L 385.822906 56.473212 
L 385.998799 56.364225 
L 386.102112 56.233441 
L 386.284355 56.124455 
L 386.383923 56.015468 
L 386.647786 55.928279 
L 386.647786 55.906481 
L 386.757226 55.841089 
L 386.975726 55.732103 
L 387.084786 55.579522 
L 387.156287 55.492332 
L 387.156287 55.470535 
L 387.169901 55.42694 
L 387.373864 55.317954 
L 387.472288 55.165372 
L 387.526547 55.078183 
L 387.526547 55.056386 
L 387.631585 54.838412 
L 387.736506 54.729426 
L 387.837931 54.598642 
L 387.996611 54.489655 
L 388.097756 54.358871 
L 388.229083 54.249884 
L 388.340063 54.075506 
L 388.44084 53.966519 
L 388.521385 53.813938 
L 388.658822 53.704951 
L 388.765951 53.617762 
L 388.903032 53.508775 
L 389.009884 53.356194 
L 389.166603 53.247207 
L 389.213235 53.094626 
L 389.436083 52.985639 
L 389.542332 52.920247 
L 389.648461 52.811261 
L 389.691542 52.724071 
L 389.99586 52.615085 
L 390.071786 52.397112 
L 390.190504 52.288125 
L 390.299198 52.091949 
L 390.40119 51.982962 
L 390.489931 51.852178 
L 390.640929 51.743192 
L 390.719614 51.612408 
L 390.860427 51.503421 
L 390.958545 51.416232 
L 391.12511 51.307245 
L 391.226212 51.176461 
L 391.37278 51.067474 
L 391.483369 51.002082 
L 391.649009 50.893096 
L 391.743067 50.805907 
L 391.843508 50.69692 
L 391.950311 50.566136 
L 392.121591 50.457149 
L 392.205501 50.348163 
L 392.302227 50.239176 
L 392.389196 50.064797 
L 392.562894 49.955811 
L 392.649623 49.868621 
L 392.729856 49.759635 
L 392.774757 49.694243 
L 392.915734 49.585256 
L 393.011735 49.432675 
L 393.062895 49.323688 
L 393.158745 49.127512 
L 393.270447 49.018526 
L 393.375645 48.887742 
L 393.474361 48.800552 
L 393.474361 48.778755 
L 393.566614 48.560782 
L 393.773061 48.451795 
L 393.880868 48.255619 
L 394.007543 48.146632 
L 394.111921 47.950456 
L 394.20671 47.84147 
L 394.314022 47.710686 
L 394.418062 47.601699 
L 394.493655 47.492713 
L 394.654088 47.383726 
L 394.757753 47.143955 
L 394.870711 47.056766 
L 394.870711 47.034969 
L 394.980402 46.86059 
L 395.083708 46.751603 
L 395.171273 46.620819 
L 395.349279 46.511833 
L 395.458415 46.359251 
L 395.548745 46.250265 
L 395.65143 46.184873 
L 395.74779 46.075886 
L 395.847155 45.923305 
L 396.042473 45.814318 
L 396.122963 45.683534 
L 396.268289 45.574548 
L 396.376365 45.378372 
L 396.46582 45.269385 
L 396.478152 45.22579 
L 396.733676 45.116804 
L 396.822792 45.051412 
L 396.92103 44.942425 
L 397.031424 44.833438 
L 397.150873 44.724452 
L 397.257941 44.550073 
L 397.377103 44.441086 
L 397.483915 44.3321 
L 397.602791 44.223113 
L 397.654562 44.179519 
L 397.885661 44.070532 
L 397.973694 43.830761 
L 398.13437 43.721775 
L 398.222171 43.590991 
L 398.391487 43.482004 
L 398.49112 43.307625 
L 398.569545 43.198639 
L 398.678025 43.046057 
L 398.765321 42.958868 
L 398.765321 42.937071 
L 398.867565 42.893476 
L 399.056724 42.784489 
L 399.131682 42.610111 
L 399.305355 42.501124 
L 399.39805 42.435732 
L 399.607024 42.326746 
L 399.70538 42.195962 
L 399.922591 42.086975 
L 400.032493 41.956191 
L 400.269682 41.847204 
L 400.376222 41.80361 
L 400.500367 41.694623 
L 400.577136 41.563839 
L 400.801182 41.454852 
L 400.889474 41.324068 
L 401.230095 41.215082 
L 401.31213 41.127892 
L 401.642473 41.018906 
L 401.70957 40.931717 
L 401.960029 40.82273 
L 402.032712 40.713743 
L 402.317091 40.604757 
L 402.389499 40.49577 
L 402.620832 40.386783 
L 402.649708 40.277797 
L 402.95238 40.16881 
L 403.007046 40.059823 
L 403.31144 39.950837 
L 403.411732 39.863647 
L 403.646284 39.754661 
L 403.754781 39.645674 
L 403.991328 39.536687 
L 404.073837 39.471295 
L 404.215924 39.362309 
L 404.2954 39.253322 
L 404.522103 39.144336 
L 404.590008 39.035349 
L 404.931618 38.926362 
L 405.027385 38.795578 
L 405.156797 38.686592 
L 405.26076 38.599402 
L 405.518767 38.490416 
L 405.591554 38.359632 
L 405.764897 38.272442 
L 405.764897 38.250645 
L 405.85703 38.032672 
L 406.032671 37.923685 
L 406.102279 37.814698 
L 406.299685 37.705712 
L 406.410718 37.618523 
L 406.565945 37.509536 
L 406.621321 37.422347 
L 406.853545 37.31336 
L 406.963927 37.226171 
L 407.041118 37.117184 
L 407.087953 36.9864 
L 407.313536 36.877413 
L 407.42338 36.681237 
L 407.598866 36.572251 
L 407.683749 36.506859 
L 407.804097 36.397872 
L 407.896988 36.288885 
L 408.07432 36.179899 
L 408.180559 36.070912 
L 408.384528 35.961926 
L 408.457849 35.852939 
L 408.588056 35.743952 
L 408.61245 35.67856 
L 408.969502 35.569574 
L 409.08013 35.395195 
L 409.333275 35.286208 
L 409.41661 35.177222 
L 409.572329 35.068235 
L 409.660813 35.002843 
L 409.754569 34.893856 
L 409.861604 34.828464 
L 410.02193 34.719478 
L 410.099323 34.545099 
L 410.269896 34.436112 
L 410.328459 34.370721 
L 410.554385 34.261734 
L 410.644604 34.196342 
L 410.864481 34.087355 
L 410.933253 33.978369 
L 411.038958 33.869382 
L 411.099684 33.782193 
L 411.268457 33.673206 
L 411.37905 33.564219 
L 411.397469 33.455233 
L 411.478998 33.346246 
L 411.675954 33.237259 
L 411.72054 33.171867 
L 411.951002 33.062881 
L 412.050345 32.888502 
L 412.256541 32.801313 
L 412.256541 32.779515 
L 412.311276 32.670529 
L 412.467488 32.561542 
L 412.568887 32.321772 
L 412.706511 32.212785 
L 412.797285 32.125596 
L 413.014785 32.016609 
L 413.084589 31.92942 
L 413.540918 31.820433 
L 413.610333 31.733244 
L 413.841349 31.624257 
L 413.900296 31.558865 
L 414.051338 31.493473 
L 414.051338 31.449878 
L 414.148491 31.362689 
L 414.281276 31.253702 
L 414.38584 31.18831 
L 414.655638 31.079324 
L 414.749631 31.035729 
L 414.873965 30.926743 
L 414.937337 30.883148 
L 415.240931 30.774161 
L 415.240931 30.752364 
L 415.54355 30.643377 
L 415.649237 30.577985 
L 415.764854 30.468999 
L 415.867784 30.360012 
L 416.03324 30.251025 
L 416.103346 30.185633 
L 416.555276 30.076647 
L 416.654858 29.880471 
L 416.943052 29.771484 
L 417.022399 29.684295 
L 417.180892 29.575308 
L 417.260039 29.444524 
L 417.452681 29.335538 
L 417.553784 29.226551 
L 417.785171 29.117564 
L 417.883462 28.98678 
L 417.964475 28.877794 
L 418.057676 28.768807 
L 418.38804 28.65982 
L 418.405139 28.616226 
L 418.785387 28.507239 
L 418.826732 28.398252 
L 419.047739 28.289266 
L 419.149568 28.114887 
L 419.309362 28.027698 
L 419.309362 28.0059 
L 419.384324 27.940508 
L 419.536481 27.831522 
L 419.567848 27.76613 
L 419.864113 27.657143 
L 419.88335 27.591751 
L 420.145063 27.482765 
L 420.250503 27.330183 
L 420.439519 27.221197 
L 420.54463 27.090413 
L 420.616229 26.981426 
L 420.699693 26.78525 
L 420.840222 26.676263 
L 420.937754 26.501885 
L 421.153868 26.392898 
L 421.241597 26.283911 
L 421.355286 26.174925 
L 421.457015 26.109533 
L 421.747405 26.000546 
L 421.846357 25.80437 
L 422.05335 25.695384 
L 422.090936 25.651789 
L 422.421517 25.542802 
L 422.526777 25.433816 
L 422.734614 25.324829 
L 422.834865 25.172248 
L 423.079218 25.063261 
L 423.102456 24.976072 
L 423.346116 24.867085 
L 423.443404 24.801693 
L 423.531339 24.714504 
L 423.531339 24.692706 
L 423.639988 24.627314 
L 423.92143 24.518328 
L 424.02963 24.431139 
L 424.121617 24.322152 
L 424.199736 24.169571 
L 424.415374 24.060584 
L 424.486381 23.995192 
L 424.765308 23.886205 
L 424.867983 23.755421 
L 425.21397 23.646435 
L 425.2594 23.559245 
L 425.631102 23.450259 
L 425.728318 23.341272 
L 425.949507 23.232285 
L 426.048647 23.101501 
L 426.374623 22.992515 
L 426.423983 22.883528 
L 426.639069 22.774542 
L 426.733016 22.70915 
L 427.098958 22.600163 
L 427.20357 22.534771 
L 427.534446 22.425784 
L 427.607571 22.316798 
L 428.07599 22.207811 
L 428.133278 22.142419 
L 428.498218 22.033432 
L 428.601288 21.859054 
L 428.901084 21.750067 
L 428.997166 21.684675 
L 429.123671 21.575688 
L 429.175969 21.532094 
L 429.458741 21.423107 
L 429.567274 21.335918 
L 429.974243 21.226931 
L 430.075711 21.117945 
L 430.230939 21.008958 
L 430.329979 20.943566 
L 430.654359 20.834579 
L 430.703669 20.74739 
L 431.45301 20.638403 
L 431.52528 20.551214 
L 431.798977 20.442227 
L 431.798977 20.42043 
L 432.215419 20.311443 
L 432.242836 20.246051 
L 432.617428 20.137065 
L 432.617428 20.115267 
L 433.040729 20.006281 
L 433.138948 19.962686 
L 433.253755 19.853699 
L 433.349668 19.788307 
L 433.551599 19.679321 
L 433.611887 19.635726 
L 433.844359 19.52674 
L 433.877522 19.483145 
L 434.270448 19.374158 
L 434.350899 19.286969 
L 434.661742 19.177982 
L 434.682291 19.134388 
L 435.043229 19.025401 
L 435.153694 18.960009 
L 435.400749 18.851022 
L 435.48839 18.78563 
L 435.90915 18.676644 
L 436.002397 18.611252 
L 436.204791 18.502265 
L 436.273506 18.415076 
L 436.533764 18.306089 
L 436.638471 18.109913 
L 436.823437 18.000927 
L 436.925816 17.848345 
L 437.292263 17.739359 
L 437.344211 17.630372 
L 437.557696 17.521385 
L 437.653308 17.412399 
L 437.844241 17.303412 
L 437.951471 17.23802 
L 438.131898 17.129033 
L 438.131898 17.107236 
L 438.495664 16.998249 
L 438.582443 16.932857 
L 438.842304 16.823871 
L 438.940549 16.736681 
L 439.142611 16.627695 
L 439.252288 16.518708 
L 439.453683 16.409721 
L 439.551293 16.322532 
L 439.61956 16.213546 
L 439.70531 16.148154 
L 439.956266 16.039167 
L 440.033947 15.951978 
L 440.194929 15.842991 
L 440.305324 15.712207 
L 440.485165 15.60322 
L 440.570131 15.472436 
L 440.724419 15.36345 
L 440.822646 15.232666 
L 440.963067 15.123679 
L 441.049524 15.03649 
L 441.208781 14.927503 
L 441.237534 14.840314 
L 441.572335 14.731327 
L 441.669682 14.556949 
L 441.898337 14.447962 
L 442.001051 14.251786 
L 442.122641 14.142799 
L 442.160606 14.077407 
L 442.291467 13.968421 
L 442.372927 13.815839 
L 442.507275 13.706853 
L 442.507275 13.663258 
L 442.71693 13.554271 
L 442.818755 13.445285 
L 442.897877 13.336298 
L 442.975051 13.227311 
L 443.101028 13.118325 
L 443.200562 12.965744 
L 443.324364 12.856757 
L 443.42928 12.74777 
L 443.612602 12.638784 
L 443.702263 12.377216 
L 443.870147 12.268229 
L 443.91114 12.224634 
L 444.162297 12.115648 
L 444.264428 11.941269 
L 444.486876 11.832282 
L 444.564609 11.745093 
L 444.758661 11.636106 
L 444.865681 11.505322 
L 445.288875 11.396336 
L 445.353108 11.309147 
L 445.633384 11.20016 
L 445.726624 11.156565 
L 446.022187 11.047579 
L 446.022187 11.025781 
L 446.022187 11.025781 
" clip-path="url(#pbd273b7b33)" style="fill: none; stroke: #486afb; stroke-width: 2; stroke-linecap: square"/>
   </g>
   <g id="line2d_32">
    <path d="M -1 299.905715 
L 5.2457 299.905687 
L 20.444889 299.905464 
L 35.644078 299.904772 
L 50.843267 299.902749 
L 66.042457 299.897157 
L 81.241646 299.882568 
L 96.440835 299.84662 
L 111.640024 299.762989 
L 126.839214 299.57927 
L 142.038403 299.198181 
L 157.237592 298.45176 
L 172.436781 297.071283 
L 187.635971 294.660481 
L 202.83516 290.685074 
L 218.034349 284.495092 
L 233.233538 275.394166 
L 248.432727 262.75931 
L 263.631917 246.196129 
L 278.831106 225.69366 
L 294.030295 201.729752 
L 309.229484 175.281417 
L 324.428674 147.718302 
L 339.627863 120.594689 
L 354.827052 95.391466 
L 370.026241 73.278152 
L 385.225431 54.957507 
L 400.42462 40.625182 
L 415.623809 30.037974 
L 430.822998 22.653241 
L 446.022187 17.789431 
" clip-path="url(#pbd273b7b33)" style="fill: none; stroke: #fd46fc; stroke-width: 2; stroke-linecap: square"/>
   </g>
   <g id="line2d_33">
    <path d="M 320.16939 299.905781 
L 320.16939 11.025781 
" clip-path="url(#pbd273b7b33)" style="fill: none; stroke: #ff0000; stroke-width: 2; stroke-linecap: square"/>
   </g>
   <g id="patch_3">
    <path d="M 45.992188 299.905781 
L 45.992188 11.025781 
" style="fill: none; stroke: #000000; stroke-width: 0.6; stroke-linejoin: miter; stroke-linecap: square"/>
   </g>
   <g id="patch_4">
    <path d="M 45.992188 299.905781 
L 446.022187 299.905781 
" style="fill: none; stroke: #000000; stroke-width: 0.6; stroke-linejoin: miter; stroke-linecap: square"/>
   </g>
   <g id="legend_1">
    <g id="patch_5">
     <path d="M 52.992188 63.288281 
L 229.479688 63.288281 
Q 231.479688 63.288281 231.479688 61.288281 
L 231.479688 18.025781 
Q 231.479688 16.025781 229.479688 16.025781 
L 52.992188 16.025781 
Q 50.992188 16.025781 50.992188 18.025781 
L 50.992188 61.288281 
Q 50.992188 63.288281 52.992188 63.288281 
z
" style="fill: #ffffff; opacity: 0.8; stroke: #333333; stroke-width: 0.2; stroke-linejoin: miter"/>
    </g>
    <g id="line2d_34">
     <path d="M 54.992188 24.177344 
L 64.992188 24.177344 
L 64.992188 24.177344 
L 74.992188 24.177344 
L 74.992188 24.177344 
" style="fill: none; stroke: #486afb; stroke-width: 2; stroke-linecap: square"/>
    </g>
    <g id="text_18">
     <!-- ECDF after log transform -->
     <g transform="translate(82.992188 27.677344) scale(0.1 -0.1)">
      <defs>
       <path id="DejaVuSansMono-45" d="M 616 4666 
L 3384 4666 
L 3384 4134 
L 1247 4134 
L 1247 2753 
L 3291 2753 
L 3291 2222 
L 1247 2222 
L 1247 531 
L 3444 531 
L 3444 0 
L 616 0 
L 616 4666 
z
" transform="scale(0.015625)"/>
       <path id="DejaVuSansMono-43" d="M 3353 166 
Q 3113 38 2859 -26 
Q 2606 -91 2322 -91 
Q 1425 -91 929 543 
Q 434 1178 434 2328 
Q 434 3472 932 4111 
Q 1431 4750 2322 4750 
Q 2606 4750 2859 4686 
Q 3113 4622 3353 4494 
L 3353 3847 
Q 3122 4038 2856 4138 
Q 2591 4238 2322 4238 
Q 1706 4238 1400 3763 
Q 1094 3288 1094 2328 
Q 1094 1372 1400 897 
Q 1706 422 2322 422 
Q 2597 422 2861 522 
Q 3125 622 3353 813 
L 3353 166 
z
" transform="scale(0.015625)"/>
       <path id="DejaVuSansMono-44" d="M 1363 519 
Q 2159 519 2475 911 
Q 2791 1303 2791 2328 
Q 2791 3363 2477 3755 
Q 2163 4147 1363 4147 
L 1063 4147 
L 1063 519 
L 1363 519 
z
M 1375 4666 
Q 2444 4666 2950 4097 
Q 3456 3528 3456 2328 
Q 3456 1134 2950 567 
Q 2444 0 1375 0 
L 428 0 
L 428 4666 
L 1375 4666 
z
" transform="scale(0.015625)"/>
       <path id="DejaVuSansMono-46" d="M 728 4666 
L 3475 4666 
L 3475 4134 
L 1363 4134 
L 1363 2759 
L 3278 2759 
L 3278 2228 
L 1363 2228 
L 1363 0 
L 728 0 
L 728 4666 
z
" transform="scale(0.015625)"/>
       <path id="DejaVuSansMono-66" d="M 3322 4863 
L 3322 4384 
L 2669 4384 
Q 2359 4384 2239 4257 
Q 2119 4131 2119 3809 
L 2119 3500 
L 3322 3500 
L 3322 3053 
L 2119 3053 
L 2119 0 
L 1544 0 
L 1544 3053 
L 609 3053 
L 609 3500 
L 1544 3500 
L 1544 3744 
Q 1544 4319 1808 4591 
Q 2072 4863 2631 4863 
L 3322 4863 
z
" transform="scale(0.015625)"/>
       <path id="DejaVuSansMono-6e" d="M 3284 2169 
L 3284 0 
L 2706 0 
L 2706 2169 
Q 2706 2641 2540 2862 
Q 2375 3084 2022 3084 
Q 1619 3084 1401 2798 
Q 1184 2513 1184 1978 
L 1184 0 
L 609 0 
L 609 3500 
L 1184 3500 
L 1184 2975 
Q 1338 3275 1600 3429 
Q 1863 3584 2222 3584 
Q 2756 3584 3020 3232 
Q 3284 2881 3284 2169 
z
" transform="scale(0.015625)"/>
       <path id="DejaVuSansMono-73" d="M 3041 3378 
L 3041 2816 
Q 2794 2959 2544 3031 
Q 2294 3103 2034 3103 
Q 1644 3103 1451 2976 
Q 1259 2850 1259 2591 
Q 1259 2356 1403 2240 
Q 1547 2125 2119 2016 
L 2350 1972 
Q 2778 1891 2998 1647 
Q 3219 1403 3219 1013 
Q 3219 494 2850 201 
Q 2481 -91 1825 -91 
Q 1566 -91 1281 -36 
Q 997 19 666 128 
L 666 722 
Q 988 556 1281 473 
Q 1575 391 1838 391 
Q 2219 391 2428 545 
Q 2638 700 2638 978 
Q 2638 1378 1872 1531 
L 1847 1538 
L 1631 1581 
Q 1134 1678 906 1908 
Q 678 2138 678 2534 
Q 678 3038 1018 3311 
Q 1359 3584 1991 3584 
Q 2272 3584 2531 3532 
Q 2791 3481 3041 3378 
z
" transform="scale(0.015625)"/>
       <path id="DejaVuSansMono-6d" d="M 2113 3144 
Q 2219 3369 2383 3476 
Q 2547 3584 2778 3584 
Q 3200 3584 3373 3257 
Q 3547 2931 3547 2028 
L 3547 0 
L 3022 0 
L 3022 2003 
Q 3022 2744 2939 2923 
Q 2856 3103 2638 3103 
Q 2388 3103 2295 2911 
Q 2203 2719 2203 2003 
L 2203 0 
L 1678 0 
L 1678 2003 
Q 1678 2753 1589 2928 
Q 1500 3103 1269 3103 
Q 1041 3103 952 2911 
Q 863 2719 863 2003 
L 863 0 
L 341 0 
L 341 3500 
L 863 3500 
L 863 3200 
Q 966 3388 1120 3486 
Q 1275 3584 1472 3584 
Q 1709 3584 1867 3475 
Q 2025 3366 2113 3144 
z
" transform="scale(0.015625)"/>
      </defs>
      <use xlink:href="#DejaVuSansMono-45"/>
      <use xlink:href="#DejaVuSansMono-43" x="60.205078"/>
      <use xlink:href="#DejaVuSansMono-44" x="120.410156"/>
      <use xlink:href="#DejaVuSansMono-46" x="180.615234"/>
      <use xlink:href="#DejaVuSansMono-20" x="240.820312"/>
      <use xlink:href="#DejaVuSansMono-61" x="301.025391"/>
      <use xlink:href="#DejaVuSansMono-66" x="361.230469"/>
      <use xlink:href="#DejaVuSansMono-74" x="421.435547"/>
      <use xlink:href="#DejaVuSansMono-65" x="481.640625"/>
      <use xlink:href="#DejaVuSansMono-72" x="541.845703"/>
      <use xlink:href="#DejaVuSansMono-20" x="602.050781"/>
      <use xlink:href="#DejaVuSansMono-6c" x="662.255859"/>
      <use xlink:href="#DejaVuSansMono-6f" x="722.460938"/>
      <use xlink:href="#DejaVuSansMono-67" x="782.666016"/>
      <use xlink:href="#DejaVuSansMono-20" x="842.871094"/>
      <use xlink:href="#DejaVuSansMono-74" x="903.076172"/>
      <use xlink:href="#DejaVuSansMono-72" x="963.28125"/>
      <use xlink:href="#DejaVuSansMono-61" x="1023.486328"/>
      <use xlink:href="#DejaVuSansMono-6e" x="1083.691406"/>
      <use xlink:href="#DejaVuSansMono-73" x="1143.896484"/>
      <use xlink:href="#DejaVuSansMono-66" x="1204.101562"/>
      <use xlink:href="#DejaVuSansMono-6f" x="1264.306641"/>
      <use xlink:href="#DejaVuSansMono-72" x="1324.511719"/>
      <use xlink:href="#DejaVuSansMono-6d" x="1384.716797"/>
     </g>
    </g>
    <g id="line2d_35">
     <path d="M 54.992188 38.977344 
L 64.992188 38.977344 
L 74.992188 38.977344 
" style="fill: none; stroke: #fd46fc; stroke-width: 2; stroke-linecap: square"/>
    </g>
    <g id="text_19">
     <!-- normal CDF -->
     <g transform="translate(82.992188 42.477344) scale(0.1 -0.1)">
      <use xlink:href="#DejaVuSansMono-6e"/>
      <use xlink:href="#DejaVuSansMono-6f" x="60.205078"/>
      <use xlink:href="#DejaVuSansMono-72" x="120.410156"/>
      <use xlink:href="#DejaVuSansMono-6d" x="180.615234"/>
      <use xlink:href="#DejaVuSansMono-61" x="240.820312"/>
      <use xlink:href="#DejaVuSansMono-6c" x="301.025391"/>
      <use xlink:href="#DejaVuSansMono-20" x="361.230469"/>
      <use xlink:href="#DejaVuSansMono-43" x="421.435547"/>
      <use xlink:href="#DejaVuSansMono-44" x="481.640625"/>
      <use xlink:href="#DejaVuSansMono-46" x="541.845703"/>
     </g>
    </g>
    <g id="line2d_36">
     <path d="M 54.992188 53.708594 
L 64.992188 53.708594 
L 74.992188 53.708594 
" style="fill: none; stroke: #ff0000; stroke-width: 2; stroke-linecap: square"/>
    </g>
    <g id="text_20">
     <!-- empirical mean -->
     <g transform="translate(82.992188 57.208594) scale(0.1 -0.1)">
      <use xlink:href="#DejaVuSansMono-65"/>
      <use xlink:href="#DejaVuSansMono-6d" x="60.205078"/>
      <use xlink:href="#DejaVuSansMono-70" x="120.410156"/>
      <use xlink:href="#DejaVuSansMono-69" x="180.615234"/>
      <use xlink:href="#DejaVuSansMono-72" x="240.820312"/>
      <use xlink:href="#DejaVuSansMono-69" x="301.025391"/>
      <use xlink:href="#DejaVuSansMono-63" x="361.230469"/>
      <use xlink:href="#DejaVuSansMono-61" x="421.435547"/>
      <use xlink:href="#DejaVuSansMono-6c" x="481.640625"/>
      <use xlink:href="#DejaVuSansMono-20" x="541.845703"/>
      <use xlink:href="#DejaVuSansMono-6d" x="602.050781"/>
      <use xlink:href="#DejaVuSansMono-65" x="662.255859"/>
      <use xlink:href="#DejaVuSansMono-61" x="722.460938"/>
      <use xlink:href="#DejaVuSansMono-6e" x="782.666016"/>
     </g>
    </g>
   </g>
  </g>
 </g>
 <defs>
  <clipPath id="pbd273b7b33">
   <rect x="45.992188" y="11.025781" width="400.03" height="288.88"/>
  </clipPath>
 </defs>
</svg>