<?xml version="1.0" encoding="utf-8" standalone="no"?>
<!DOCTYPE svg PUBLIC "-//W3C//DTD SVG 1.1//EN"
  "http://www.w3.org/Graphics/SVG/1.1/DTD/svg11.dtd">
<svg xmlns:xlink="http://www.w3.org/1999/xlink" width="640.441562pt" height="426.278125pt" viewBox="0 0 640.441562 426.278125" xmlns="http://www.w3.org/2000/svg" version="1.1">
 <metadata>
  <rdf:RDF xmlns:dc="http://purl.org/dc/elements/1.1/" xmlns:cc="http://creativecommons.org/ns#" xmlns:rdf="http://www.w3.org/1999/02/22-rdf-syntax-ns#">
   <cc:Work>
    <dc:type rdf:resource="http://purl.org/dc/dcmitype/StillImage"/>
    <dc:date>2024-02-10T09:32:15.452409</dc:date>
    <dc:format>image/svg+xml</dc:format>
    <dc:creator>
     <cc:Agent>
      <dc:title>Matplotlib v3.8.2, https://matplotlib.org/</dc:title>
     </cc:Agent>
    </dc:creator>
   </cc:Work>
  </rdf:RDF>
 </metadata>
 <defs>
  <style type="text/css">*{stroke-linejoin: round; stroke-linecap: butt}</style>
 </defs>
 <g id="figure_1">
  <g id="patch_1">
   <path d="M 0 426.278125 
L 640.441562 426.278125 
L 640.441562 0 
L 0 0 
z
" style="fill: #ffffff"/>
  </g>
  <g id="axes_1">
   <g id="patch_2">
    <path d="M 33.951563 189.88 
L 319.406563 189.88 
L 319.406563 50.64 
L 33.951563 50.64 
z
" style="fill: #ffffff"/>
   </g>
   <g id="matplotlib.axis_1">
    <g id="xtick_1">
     <g id="line2d_1">
      <path d="M 46.92679 189.88 
L 46.92679 50.64 
" clip-path="url(#p278e0d3d58)" style="fill: none; stroke-dasharray: 2.22,0.96; stroke-dashoffset: 0; stroke: #6c6066; stroke-opacity: 0.4; stroke-width: 0.6"/>
     </g>
     <g id="line2d_2">
      <defs>
       <path id="m3f04d99aa2" d="M 0 0 
L 0 3.5 
" style="stroke: #000000; stroke-width: 0.8"/>
      </defs>
      <g>
       <use xlink:href="#m3f04d99aa2" x="46.92679" y="189.88" style="stroke: #000000; stroke-width: 0.8"/>
      </g>
     </g>
     <g id="text_1">
      <!-- 0 -->
      <g transform="translate(43.916634 204.531562) scale(0.1 -0.1)">
       <defs>
        <path id="DejaVuSansMono-30" d="M 1509 2344 
Q 1509 2516 1629 2641 
Q 1750 2766 1919 2766 
Q 2094 2766 2219 2641 
Q 2344 2516 2344 2344 
Q 2344 2169 2220 2047 
Q 2097 1925 1919 1925 
Q 1744 1925 1626 2044 
Q 1509 2163 1509 2344 
z
M 1925 4250 
Q 1484 4250 1267 3775 
Q 1050 3300 1050 2328 
Q 1050 1359 1267 884 
Q 1484 409 1925 409 
Q 2369 409 2586 884 
Q 2803 1359 2803 2328 
Q 2803 3300 2586 3775 
Q 2369 4250 1925 4250 
z
M 1925 4750 
Q 2672 4750 3055 4137 
Q 3438 3525 3438 2328 
Q 3438 1134 3055 521 
Q 2672 -91 1925 -91 
Q 1178 -91 797 521 
Q 416 1134 416 2328 
Q 416 3525 797 4137 
Q 1178 4750 1925 4750 
z
" transform="scale(0.015625)"/>
       </defs>
       <use xlink:href="#DejaVuSansMono-30"/>
      </g>
     </g>
    </g>
    <g id="xtick_2">
     <g id="line2d_3">
      <path d="M 88.447517 189.88 
L 88.447517 50.64 
" clip-path="url(#p278e0d3d58)" style="fill: none; stroke-dasharray: 2.22,0.96; stroke-dashoffset: 0; stroke: #6c6066; stroke-opacity: 0.4; stroke-width: 0.6"/>
     </g>
     <g id="line2d_4">
      <g>
       <use xlink:href="#m3f04d99aa2" x="88.447517" y="189.88" style="stroke: #000000; stroke-width: 0.8"/>
      </g>
     </g>
     <g id="text_2">
      <!-- 20 -->
      <g transform="translate(82.427205 204.531562) scale(0.1 -0.1)">
       <defs>
        <path id="DejaVuSansMono-32" d="M 1166 531 
L 3309 531 
L 3309 0 
L 475 0 
L 475 531 
Q 1059 1147 1496 1619 
Q 1934 2091 2100 2284 
Q 2413 2666 2522 2902 
Q 2631 3138 2631 3384 
Q 2631 3775 2401 3997 
Q 2172 4219 1772 4219 
Q 1488 4219 1175 4116 
Q 863 4013 513 3803 
L 513 4441 
Q 834 4594 1145 4672 
Q 1456 4750 1759 4750 
Q 2444 4750 2861 4386 
Q 3278 4022 3278 3431 
Q 3278 3131 3139 2831 
Q 3000 2531 2688 2169 
Q 2513 1966 2180 1606 
Q 1847 1247 1166 531 
z
" transform="scale(0.015625)"/>
       </defs>
       <use xlink:href="#DejaVuSansMono-32"/>
       <use xlink:href="#DejaVuSansMono-30" x="60.205078"/>
      </g>
     </g>
    </g>
    <g id="xtick_3">
     <g id="line2d_5">
      <path d="M 129.968244 189.88 
L 129.968244 50.64 
" clip-path="url(#p278e0d3d58)" style="fill: none; stroke-dasharray: 2.22,0.96; stroke-dashoffset: 0; stroke: #6c6066; stroke-opacity: 0.4; stroke-width: 0.6"/>
     </g>
     <g id="line2d_6">
      <g>
       <use xlink:href="#m3f04d99aa2" x="129.968244" y="189.88" style="stroke: #000000; stroke-width: 0.8"/>
      </g>
     </g>
     <g id="text_3">
      <!-- 40 -->
      <g transform="translate(123.947932 204.531562) scale(0.1 -0.1)">
       <defs>
        <path id="DejaVuSansMono-34" d="M 2297 4091 
L 825 1625 
L 2297 1625 
L 2297 4091 
z
M 2194 4666 
L 2925 4666 
L 2925 1625 
L 3547 1625 
L 3547 1113 
L 2925 1113 
L 2925 0 
L 2297 0 
L 2297 1113 
L 319 1113 
L 319 1709 
L 2194 4666 
z
" transform="scale(0.015625)"/>
       </defs>
       <use xlink:href="#DejaVuSansMono-34"/>
       <use xlink:href="#DejaVuSansMono-30" x="60.205078"/>
      </g>
     </g>
    </g>
    <g id="xtick_4">
     <g id="line2d_7">
      <path d="M 171.488972 189.88 
L 171.488972 50.64 
" clip-path="url(#p278e0d3d58)" style="fill: none; stroke-dasharray: 2.22,0.96; stroke-dashoffset: 0; stroke: #6c6066; stroke-opacity: 0.4; stroke-width: 0.6"/>
     </g>
     <g id="line2d_8">
      <g>
       <use xlink:href="#m3f04d99aa2" x="171.488972" y="189.88" style="stroke: #000000; stroke-width: 0.8"/>
      </g>
     </g>
     <g id="text_4">
      <!-- 60 -->
      <g transform="translate(165.468659 204.531562) scale(0.1 -0.1)">
       <defs>
        <path id="DejaVuSansMono-36" d="M 3097 4563 
L 3097 3981 
Q 2900 4097 2678 4158 
Q 2456 4219 2216 4219 
Q 1616 4219 1306 3767 
Q 997 3316 997 2438 
Q 1147 2750 1412 2917 
Q 1678 3084 2022 3084 
Q 2697 3084 3067 2670 
Q 3438 2256 3438 1497 
Q 3438 741 3056 325 
Q 2675 -91 1984 -91 
Q 1172 -91 794 492 
Q 416 1075 416 2328 
Q 416 3509 870 4129 
Q 1325 4750 2188 4750 
Q 2419 4750 2650 4701 
Q 2881 4653 3097 4563 
z
M 1972 2591 
Q 1569 2591 1337 2300 
Q 1106 2009 1106 1497 
Q 1106 984 1337 693 
Q 1569 403 1972 403 
Q 2391 403 2603 679 
Q 2816 956 2816 1497 
Q 2816 2041 2603 2316 
Q 2391 2591 1972 2591 
z
" transform="scale(0.015625)"/>
       </defs>
       <use xlink:href="#DejaVuSansMono-36"/>
       <use xlink:href="#DejaVuSansMono-30" x="60.205078"/>
      </g>
     </g>
    </g>
    <g id="xtick_5">
     <g id="line2d_9">
      <path d="M 213.009699 189.88 
L 213.009699 50.64 
" clip-path="url(#p278e0d3d58)" style="fill: none; stroke-dasharray: 2.22,0.96; stroke-dashoffset: 0; stroke: #6c6066; stroke-opacity: 0.4; stroke-width: 0.6"/>
     </g>
     <g id="line2d_10">
      <g>
       <use xlink:href="#m3f04d99aa2" x="213.009699" y="189.88" style="stroke: #000000; stroke-width: 0.8"/>
      </g>
     </g>
     <g id="text_5">
      <!-- 80 -->
      <g transform="translate(206.989386 204.531562) scale(0.1 -0.1)">
       <defs>
        <path id="DejaVuSansMono-38" d="M 1925 2216 
Q 1503 2216 1273 1980 
Q 1044 1744 1044 1313 
Q 1044 881 1276 642 
Q 1509 403 1925 403 
Q 2350 403 2579 639 
Q 2809 875 2809 1313 
Q 2809 1741 2576 1978 
Q 2344 2216 1925 2216 
z
M 1375 2478 
Q 972 2581 745 2862 
Q 519 3144 519 3541 
Q 519 4097 897 4423 
Q 1275 4750 1925 4750 
Q 2578 4750 2956 4423 
Q 3334 4097 3334 3541 
Q 3334 3144 3107 2862 
Q 2881 2581 2478 2478 
Q 2947 2375 3195 2062 
Q 3444 1750 3444 1253 
Q 3444 622 3041 265 
Q 2638 -91 1925 -91 
Q 1213 -91 811 264 
Q 409 619 409 1247 
Q 409 1747 657 2061 
Q 906 2375 1375 2478 
z
M 1147 3481 
Q 1147 3106 1347 2909 
Q 1547 2713 1925 2713 
Q 2306 2713 2506 2909 
Q 2706 3106 2706 3481 
Q 2706 3863 2507 4063 
Q 2309 4263 1925 4263 
Q 1547 4263 1347 4061 
Q 1147 3859 1147 3481 
z
" transform="scale(0.015625)"/>
       </defs>
       <use xlink:href="#DejaVuSansMono-38"/>
       <use xlink:href="#DejaVuSansMono-30" x="60.205078"/>
      </g>
     </g>
    </g>
    <g id="xtick_6">
     <g id="line2d_11">
      <path d="M 254.530426 189.88 
L 254.530426 50.64 
" clip-path="url(#p278e0d3d58)" style="fill: none; stroke-dasharray: 2.22,0.96; stroke-dashoffset: 0; stroke: #6c6066; stroke-opacity: 0.4; stroke-width: 0.6"/>
     </g>
     <g id="line2d_12">
      <g>
       <use xlink:href="#m3f04d99aa2" x="254.530426" y="189.88" style="stroke: #000000; stroke-width: 0.8"/>
      </g>
     </g>
     <g id="text_6">
      <!-- 100 -->
      <g transform="translate(245.499957 204.531562) scale(0.1 -0.1)">
       <defs>
        <path id="DejaVuSansMono-31" d="M 844 531 
L 1825 531 
L 1825 4097 
L 769 3859 
L 769 4434 
L 1819 4666 
L 2450 4666 
L 2450 531 
L 3419 531 
L 3419 0 
L 844 0 
L 844 531 
z
" transform="scale(0.015625)"/>
       </defs>
       <use xlink:href="#DejaVuSansMono-31"/>
       <use xlink:href="#DejaVuSansMono-30" x="60.205078"/>
       <use xlink:href="#DejaVuSansMono-30" x="120.410156"/>
      </g>
     </g>
    </g>
    <g id="xtick_7">
     <g id="line2d_13">
      <path d="M 296.051153 189.88 
L 296.051153 50.64 
" clip-path="url(#p278e0d3d58)" style="fill: none; stroke-dasharray: 2.22,0.96; stroke-dashoffset: 0; stroke: #6c6066; stroke-opacity: 0.4; stroke-width: 0.6"/>
     </g>
     <g id="line2d_14">
      <g>
       <use xlink:href="#m3f04d99aa2" x="296.051153" y="189.88" style="stroke: #000000; stroke-width: 0.8"/>
      </g>
     </g>
     <g id="text_7">
      <!-- 120 -->
      <g transform="translate(287.020685 204.531562) scale(0.1 -0.1)">
       <use xlink:href="#DejaVuSansMono-31"/>
       <use xlink:href="#DejaVuSansMono-32" x="60.205078"/>
       <use xlink:href="#DejaVuSansMono-30" x="120.410156"/>
      </g>
     </g>
    </g>
    <g id="text_8">
     <!-- gradient steps -->
     <g transform="translate(134.536875 218.209687) scale(0.1 -0.1)">
      <defs>
       <path id="DejaVuSansMono-67" d="M 2681 1778 
Q 2681 2425 2470 2761 
Q 2259 3097 1856 3097 
Q 1434 3097 1212 2761 
Q 991 2425 991 1778 
Q 991 1131 1214 792 
Q 1438 453 1863 453 
Q 2259 453 2470 793 
Q 2681 1134 2681 1778 
z
M 3256 225 
Q 3256 -563 2884 -969 
Q 2513 -1375 1791 -1375 
Q 1553 -1375 1293 -1331 
Q 1034 -1288 775 -1203 
L 775 -634 
Q 1081 -778 1331 -847 
Q 1581 -916 1791 -916 
Q 2256 -916 2468 -662 
Q 2681 -409 2681 141 
L 2681 166 
L 2681 556 
Q 2544 263 2306 119 
Q 2069 -25 1728 -25 
Q 1116 -25 750 465 
Q 384 956 384 1778 
Q 384 2603 750 3093 
Q 1116 3584 1728 3584 
Q 2066 3584 2300 3450 
Q 2534 3316 2681 3034 
L 2681 3488 
L 3256 3488 
L 3256 225 
z
" transform="scale(0.015625)"/>
       <path id="DejaVuSansMono-72" d="M 3609 2778 
Q 3425 2922 3234 2987 
Q 3044 3053 2816 3053 
Q 2278 3053 1993 2715 
Q 1709 2378 1709 1741 
L 1709 0 
L 1131 0 
L 1131 3500 
L 1709 3500 
L 1709 2816 
Q 1853 3188 2151 3386 
Q 2450 3584 2859 3584 
Q 3072 3584 3256 3531 
Q 3441 3478 3609 3366 
L 3609 2778 
z
" transform="scale(0.015625)"/>
       <path id="DejaVuSansMono-61" d="M 2194 1759 
L 2003 1759 
Q 1500 1759 1245 1582 
Q 991 1406 991 1056 
Q 991 741 1181 566 
Q 1372 391 1709 391 
Q 2184 391 2456 720 
Q 2728 1050 2731 1631 
L 2731 1759 
L 2194 1759 
z
M 3309 1997 
L 3309 0 
L 2731 0 
L 2731 519 
Q 2547 206 2267 57 
Q 1988 -91 1588 -91 
Q 1053 -91 734 211 
Q 416 513 416 1019 
Q 416 1603 808 1906 
Q 1200 2209 1959 2209 
L 2731 2209 
L 2731 2300 
Q 2728 2719 2518 2908 
Q 2309 3097 1850 3097 
Q 1556 3097 1256 3012 
Q 956 2928 672 2766 
L 672 3341 
Q 991 3463 1283 3523 
Q 1575 3584 1850 3584 
Q 2284 3584 2592 3456 
Q 2900 3328 3091 3072 
Q 3209 2916 3259 2686 
Q 3309 2456 3309 1997 
z
" transform="scale(0.015625)"/>
       <path id="DejaVuSansMono-64" d="M 2681 3053 
L 2681 4863 
L 3256 4863 
L 3256 0 
L 2681 0 
L 2681 441 
Q 2538 181 2298 45 
Q 2059 -91 1747 -91 
Q 1113 -91 748 401 
Q 384 894 384 1759 
Q 384 2613 750 3098 
Q 1116 3584 1747 3584 
Q 2063 3584 2303 3448 
Q 2544 3313 2681 3053 
z
M 991 1747 
Q 991 1078 1203 737 
Q 1416 397 1831 397 
Q 2247 397 2464 740 
Q 2681 1084 2681 1747 
Q 2681 2413 2464 2755 
Q 2247 3097 1831 3097 
Q 1416 3097 1203 2756 
Q 991 2416 991 1747 
z
" transform="scale(0.015625)"/>
       <path id="DejaVuSansMono-69" d="M 800 3500 
L 2272 3500 
L 2272 447 
L 3413 447 
L 3413 0 
L 556 0 
L 556 447 
L 1697 447 
L 1697 3053 
L 800 3053 
L 800 3500 
z
M 1697 4863 
L 2272 4863 
L 2272 4134 
L 1697 4134 
L 1697 4863 
z
" transform="scale(0.015625)"/>
       <path id="DejaVuSansMono-65" d="M 3475 1894 
L 3475 1613 
L 984 1613 
L 984 1594 
Q 984 1022 1282 709 
Q 1581 397 2125 397 
Q 2400 397 2700 484 
Q 3000 572 3341 750 
L 3341 178 
Q 3013 44 2708 -23 
Q 2403 -91 2119 -91 
Q 1303 -91 843 398 
Q 384 888 384 1747 
Q 384 2584 834 3084 
Q 1284 3584 2034 3584 
Q 2703 3584 3089 3131 
Q 3475 2678 3475 1894 
z
M 2900 2063 
Q 2888 2569 2661 2833 
Q 2434 3097 2009 3097 
Q 1594 3097 1325 2822 
Q 1056 2547 1006 2059 
L 2900 2063 
z
" transform="scale(0.015625)"/>
       <path id="DejaVuSansMono-6e" d="M 3284 2169 
L 3284 0 
L 2706 0 
L 2706 2169 
Q 2706 2641 2540 2862 
Q 2375 3084 2022 3084 
Q 1619 3084 1401 2798 
Q 1184 2513 1184 1978 
L 1184 0 
L 609 0 
L 609 3500 
L 1184 3500 
L 1184 2975 
Q 1338 3275 1600 3429 
Q 1863 3584 2222 3584 
Q 2756 3584 3020 3232 
Q 3284 2881 3284 2169 
z
" transform="scale(0.015625)"/>
       <path id="DejaVuSansMono-74" d="M 1919 4494 
L 1919 3500 
L 3225 3500 
L 3225 3053 
L 1919 3053 
L 1919 1153 
Q 1919 766 2066 612 
Q 2213 459 2578 459 
L 3225 459 
L 3225 0 
L 2522 0 
Q 1875 0 1609 259 
Q 1344 519 1344 1153 
L 1344 3053 
L 409 3053 
L 409 3500 
L 1344 3500 
L 1344 4494 
L 1919 4494 
z
" transform="scale(0.015625)"/>
       <path id="DejaVuSansMono-20" transform="scale(0.015625)"/>
       <path id="DejaVuSansMono-73" d="M 3041 3378 
L 3041 2816 
Q 2794 2959 2544 3031 
Q 2294 3103 2034 3103 
Q 1644 3103 1451 2976 
Q 1259 2850 1259 2591 
Q 1259 2356 1403 2240 
Q 1547 2125 2119 2016 
L 2350 1972 
Q 2778 1891 2998 1647 
Q 3219 1403 3219 1013 
Q 3219 494 2850 201 
Q 2481 -91 1825 -91 
Q 1566 -91 1281 -36 
Q 997 19 666 128 
L 666 722 
Q 988 556 1281 473 
Q 1575 391 1838 391 
Q 2219 391 2428 545 
Q 2638 700 2638 978 
Q 2638 1378 1872 1531 
L 1847 1538 
L 1631 1581 
Q 1134 1678 906 1908 
Q 678 2138 678 2534 
Q 678 3038 1018 3311 
Q 1359 3584 1991 3584 
Q 2272 3584 2531 3532 
Q 2791 3481 3041 3378 
z
" transform="scale(0.015625)"/>
       <path id="DejaVuSansMono-70" d="M 1172 441 
L 1172 -1331 
L 594 -1331 
L 594 3500 
L 1172 3500 
L 1172 3053 
Q 1316 3313 1555 3448 
Q 1794 3584 2106 3584 
Q 2741 3584 3102 3093 
Q 3463 2603 3463 1734 
Q 3463 881 3100 395 
Q 2738 -91 2106 -91 
Q 1788 -91 1548 45 
Q 1309 181 1172 441 
z
M 2859 1747 
Q 2859 2416 2648 2756 
Q 2438 3097 2022 3097 
Q 1603 3097 1387 2755 
Q 1172 2413 1172 1747 
Q 1172 1084 1387 740 
Q 1603 397 2022 397 
Q 2438 397 2648 737 
Q 2859 1078 2859 1747 
z
" transform="scale(0.015625)"/>
      </defs>
      <use xlink:href="#DejaVuSansMono-67"/>
      <use xlink:href="#DejaVuSansMono-72" x="60.205078"/>
      <use xlink:href="#DejaVuSansMono-61" x="120.410156"/>
      <use xlink:href="#DejaVuSansMono-64" x="180.615234"/>
      <use xlink:href="#DejaVuSansMono-69" x="240.820312"/>
      <use xlink:href="#DejaVuSansMono-65" x="301.025391"/>
      <use xlink:href="#DejaVuSansMono-6e" x="361.230469"/>
      <use xlink:href="#DejaVuSansMono-74" x="421.435547"/>
      <use xlink:href="#DejaVuSansMono-20" x="481.640625"/>
      <use xlink:href="#DejaVuSansMono-73" x="541.845703"/>
      <use xlink:href="#DejaVuSansMono-74" x="602.050781"/>
      <use xlink:href="#DejaVuSansMono-65" x="662.255859"/>
      <use xlink:href="#DejaVuSansMono-70" x="722.460938"/>
      <use xlink:href="#DejaVuSansMono-73" x="782.666016"/>
     </g>
    </g>
   </g>
   <g id="matplotlib.axis_2">
    <g id="ytick_1">
     <g id="line2d_15">
      <path d="M 33.951563 183.56039 
L 319.406563 183.56039 
" clip-path="url(#p278e0d3d58)" style="fill: none; stroke-dasharray: 2.22,0.96; stroke-dashoffset: 0; stroke: #6c6066; stroke-opacity: 0.4; stroke-width: 0.6"/>
     </g>
     <g id="line2d_16">
      <defs>
       <path id="m9b724ba0d5" d="M 0 0 
L -3.5 0 
" style="stroke: #000000; stroke-width: 0.8"/>
      </defs>
      <g>
       <use xlink:href="#m9b724ba0d5" x="33.951563" y="183.56039" style="stroke: #000000; stroke-width: 0.8"/>
      </g>
     </g>
     <g id="text_9">
      <!-- 0 -->
      <g transform="translate(20.93125 187.386171) scale(0.1 -0.1)">
       <use xlink:href="#DejaVuSansMono-30"/>
      </g>
     </g>
    </g>
    <g id="ytick_2">
     <g id="line2d_17">
      <path d="M 33.951563 152.24114 
L 319.406563 152.24114 
" clip-path="url(#p278e0d3d58)" style="fill: none; stroke-dasharray: 2.22,0.96; stroke-dashoffset: 0; stroke: #6c6066; stroke-opacity: 0.4; stroke-width: 0.6"/>
     </g>
     <g id="line2d_18">
      <g>
       <use xlink:href="#m9b724ba0d5" x="33.951563" y="152.24114" style="stroke: #000000; stroke-width: 0.8"/>
      </g>
     </g>
     <g id="text_10">
      <!-- 2 -->
      <g transform="translate(20.93125 156.066921) scale(0.1 -0.1)">
       <use xlink:href="#DejaVuSansMono-32"/>
      </g>
     </g>
    </g>
    <g id="ytick_3">
     <g id="line2d_19">
      <path d="M 33.951563 120.921889 
L 319.406563 120.921889 
" clip-path="url(#p278e0d3d58)" style="fill: none; stroke-dasharray: 2.22,0.96; stroke-dashoffset: 0; stroke: #6c6066; stroke-opacity: 0.4; stroke-width: 0.6"/>
     </g>
     <g id="line2d_20">
      <g>
       <use xlink:href="#m9b724ba0d5" x="33.951563" y="120.921889" style="stroke: #000000; stroke-width: 0.8"/>
      </g>
     </g>
     <g id="text_11">
      <!-- 4 -->
      <g transform="translate(20.93125 124.747671) scale(0.1 -0.1)">
       <use xlink:href="#DejaVuSansMono-34"/>
      </g>
     </g>
    </g>
    <g id="ytick_4">
     <g id="line2d_21">
      <path d="M 33.951563 89.602639 
L 319.406563 89.602639 
" clip-path="url(#p278e0d3d58)" style="fill: none; stroke-dasharray: 2.22,0.96; stroke-dashoffset: 0; stroke: #6c6066; stroke-opacity: 0.4; stroke-width: 0.6"/>
     </g>
     <g id="line2d_22">
      <g>
       <use xlink:href="#m9b724ba0d5" x="33.951563" y="89.602639" style="stroke: #000000; stroke-width: 0.8"/>
      </g>
     </g>
     <g id="text_12">
      <!-- 6 -->
      <g transform="translate(20.93125 93.42842) scale(0.1 -0.1)">
       <use xlink:href="#DejaVuSansMono-36"/>
      </g>
     </g>
    </g>
    <g id="ytick_5">
     <g id="line2d_23">
      <path d="M 33.951563 58.283389 
L 319.406563 58.283389 
" clip-path="url(#p278e0d3d58)" style="fill: none; stroke-dasharray: 2.22,0.96; stroke-dashoffset: 0; stroke: #6c6066; stroke-opacity: 0.4; stroke-width: 0.6"/>
     </g>
     <g id="line2d_24">
      <g>
       <use xlink:href="#m9b724ba0d5" x="33.951563" y="58.283389" style="stroke: #000000; stroke-width: 0.8"/>
      </g>
     </g>
     <g id="text_13">
      <!-- 8 -->
      <g transform="translate(20.93125 62.10917) scale(0.1 -0.1)">
       <use xlink:href="#DejaVuSansMono-38"/>
      </g>
     </g>
    </g>
    <g id="text_14">
     <!-- objective -->
     <g transform="translate(14.851562 147.351406) rotate(-90) scale(0.1 -0.1)">
      <defs>
       <path id="DejaVuSansMono-6f" d="M 1925 3097 
Q 1488 3097 1263 2756 
Q 1038 2416 1038 1747 
Q 1038 1081 1263 739 
Q 1488 397 1925 397 
Q 2366 397 2591 739 
Q 2816 1081 2816 1747 
Q 2816 2416 2591 2756 
Q 2366 3097 1925 3097 
z
M 1925 3584 
Q 2653 3584 3039 3112 
Q 3425 2641 3425 1747 
Q 3425 850 3040 379 
Q 2656 -91 1925 -91 
Q 1197 -91 812 379 
Q 428 850 428 1747 
Q 428 2641 812 3112 
Q 1197 3584 1925 3584 
z
" transform="scale(0.015625)"/>
       <path id="DejaVuSansMono-62" d="M 2869 1747 
Q 2869 2416 2656 2756 
Q 2444 3097 2028 3097 
Q 1609 3097 1393 2755 
Q 1178 2413 1178 1747 
Q 1178 1084 1393 740 
Q 1609 397 2028 397 
Q 2444 397 2656 737 
Q 2869 1078 2869 1747 
z
M 1178 3053 
Q 1316 3309 1558 3446 
Q 1800 3584 2119 3584 
Q 2750 3584 3112 3098 
Q 3475 2613 3475 1759 
Q 3475 894 3111 401 
Q 2747 -91 2113 -91 
Q 1800 -91 1561 45 
Q 1322 181 1178 441 
L 1178 0 
L 603 0 
L 603 4863 
L 1178 4863 
L 1178 3053 
z
" transform="scale(0.015625)"/>
       <path id="DejaVuSansMono-6a" d="M 1875 -63 
L 1875 3053 
L 884 3053 
L 884 3500 
L 2450 3500 
L 2450 -63 
Q 2450 -672 2170 -1001 
Q 1891 -1331 1375 -1331 
L 581 -1331 
L 581 -844 
L 1313 -844 
Q 1594 -844 1734 -648 
Q 1875 -453 1875 -63 
z
M 1875 4863 
L 2450 4863 
L 2450 4134 
L 1875 4134 
L 1875 4863 
z
" transform="scale(0.015625)"/>
       <path id="DejaVuSansMono-63" d="M 3316 178 
Q 3084 44 2839 -23 
Q 2594 -91 2338 -91 
Q 1525 -91 1067 396 
Q 609 884 609 1747 
Q 609 2609 1067 3096 
Q 1525 3584 2338 3584 
Q 2591 3584 2831 3518 
Q 3072 3453 3316 3316 
L 3316 2713 
Q 3088 2916 2858 3006 
Q 2628 3097 2338 3097 
Q 1797 3097 1506 2747 
Q 1216 2397 1216 1747 
Q 1216 1100 1508 748 
Q 1800 397 2338 397 
Q 2638 397 2875 489 
Q 3113 581 3316 775 
L 3316 178 
z
" transform="scale(0.015625)"/>
       <path id="DejaVuSansMono-76" d="M 313 3500 
L 909 3500 
L 1925 563 
L 2944 3500 
L 3541 3500 
L 2297 0 
L 1556 0 
L 313 3500 
z
" transform="scale(0.015625)"/>
      </defs>
      <use xlink:href="#DejaVuSansMono-6f"/>
      <use xlink:href="#DejaVuSansMono-62" x="60.205078"/>
      <use xlink:href="#DejaVuSansMono-6a" x="120.410156"/>
      <use xlink:href="#DejaVuSansMono-65" x="180.615234"/>
      <use xlink:href="#DejaVuSansMono-63" x="240.820312"/>
      <use xlink:href="#DejaVuSansMono-74" x="301.025391"/>
      <use xlink:href="#DejaVuSansMono-69" x="361.230469"/>
      <use xlink:href="#DejaVuSansMono-76" x="421.435547"/>
      <use xlink:href="#DejaVuSansMono-65" x="481.640625"/>
     </g>
    </g>
   </g>
   <g id="line2d_25">
    <path d="M 46.92679 98.878521 
L 49.002826 122.727245 
L 51.078862 141.32519 
L 53.154899 155.006816 
L 55.230935 164.661703 
L 57.306972 171.262431 
L 59.383008 175.667022 
L 61.459044 178.549457 
L 63.535081 180.407483 
L 65.611117 181.590431 
L 67.687153 182.336507 
L 69.76319 182.803325 
L 71.839226 183.093721 
L 73.915262 183.273422 
L 75.991299 183.384218 
L 78.067335 183.452248 
L 80.143372 183.493875 
L 82.219408 183.51919 
L 84.295444 183.534422 
L 86.371481 183.543379 
L 88.447517 183.548314 
L 90.523553 183.550625 
L 92.59959 183.550909 
L 94.675626 183.549672 
L 96.751662 183.546531 
L 98.827699 183.541802 
L 100.903735 183.533803 
L 102.979772 183.523419 
L 105.055808 183.505988 
L 107.131844 183.484914 
L 109.207881 183.447624 
L 111.283917 183.406173 
L 113.359953 183.326174 
L 115.43599 183.247556 
L 117.512026 183.07508 
L 119.588062 182.93515 
L 121.664099 182.563354 
L 123.740135 182.344666 
L 125.816172 181.554641 
L 127.892208 181.31169 
L 129.968244 179.704762 
L 132.044281 179.746722 
L 134.120317 176.770104 
L 136.196353 177.910197 
L 138.27239 173.199171 
L 140.348426 176.480555 
L 142.424463 170.361698 
L 144.500499 175.839153 
L 146.576535 169.083062 
L 148.652572 175.674255 
L 150.728608 168.759893 
L 152.804644 175.648596 
L 154.880681 168.714664 
L 156.956717 175.649523 
L 159.032753 168.720725 
L 161.10879 175.6534 
L 163.184826 168.73116 
L 165.260862 175.656404 
L 167.336899 168.738819 
L 169.412935 175.658374 
L 171.488972 168.743778 
L 173.565008 175.65959 
L 175.641044 168.746825 
L 177.717081 175.660343 
L 179.793117 168.748698 
L 181.869153 175.660775 
L 183.94519 168.749808 
L 186.021226 175.661065 
L 188.097262 168.750521 
L 190.173299 175.661208 
L 192.249335 168.750889 
L 194.325372 175.661325 
L 196.401408 168.751173 
L 198.477444 175.661382 
L 200.553481 168.751315 
L 202.629517 175.661411 
L 204.705553 168.751395 
L 206.78159 175.66144 
L 208.857626 168.75146 
L 210.933662 175.661439 
L 213.009699 168.751474 
L 215.085735 175.661471 
L 217.161772 168.751537 
L 219.237808 175.66147 
L 221.313844 168.751536 
L 223.389881 175.66147 
L 225.465917 168.751536 
L 227.541953 175.66147 
L 229.61799 168.751538 
L 231.694026 175.66147 
L 233.770062 168.751538 
L 235.846099 175.66147 
L 237.922135 168.751538 
L 239.998172 175.66147 
L 242.074208 168.751538 
L 244.150244 175.66147 
L 246.226281 168.751538 
L 248.302317 175.66147 
L 250.378353 168.751538 
L 252.45439 175.66147 
L 254.530426 168.751538 
L 256.606462 175.66147 
L 258.682499 168.751538 
L 260.758535 175.66147 
L 262.834572 168.751538 
L 264.910608 175.66147 
L 266.986644 168.751538 
L 269.062681 175.66147 
L 271.138717 168.751538 
L 273.214753 175.66147 
L 275.29079 168.751538 
L 277.366826 175.66147 
L 279.442862 168.751538 
L 281.518899 175.66147 
L 283.594935 168.751538 
L 285.670972 175.66147 
L 287.747008 168.751538 
L 289.823044 175.66147 
L 291.899081 168.751538 
L 293.975117 175.66147 
L 296.051153 168.751538 
L 298.12719 175.66147 
L 300.203226 168.751538 
L 302.279262 175.66147 
L 304.355299 168.751538 
L 306.431335 175.66147 
" clip-path="url(#p278e0d3d58)" style="fill: none; stroke: #486afb; stroke-width: 2; stroke-linecap: square"/>
   </g>
   <g id="patch_3">
    <path d="M 33.951563 189.88 
L 33.951563 50.64 
" style="fill: none; stroke: #000000; stroke-width: 0.6; stroke-linejoin: miter; stroke-linecap: square"/>
   </g>
   <g id="patch_4">
    <path d="M 33.951563 189.88 
L 319.406562 189.88 
" style="fill: none; stroke: #000000; stroke-width: 0.6; stroke-linejoin: miter; stroke-linecap: square"/>
   </g>
   <g id="text_15">
    <!-- $\alpha=0.01$, $\beta=0$, $N=125$ -->
    <g transform="translate(99.219062 44.64) scale(0.12 -0.12)">
     <defs>
      <path id="DejaVuSans-Oblique-3b1" d="M 2619 1628 
L 2622 2350 
Q 2625 3088 2069 3091 
Q 1653 3094 1394 2747 
Q 1069 2319 959 1747 
Q 825 1059 994 731 
Q 1169 397 1547 397 
Q 1966 397 2319 1063 
L 2619 1628 
z
M 2166 3578 
Q 3141 3594 3128 2584 
Q 3128 2584 3616 3500 
L 4128 3500 
L 3119 1603 
L 3109 919 
Q 3109 766 3194 638 
Q 3291 488 3391 488 
L 3669 488 
L 3575 0 
L 3228 0 
Q 2934 0 2722 263 
Q 2622 394 2619 669 
Q 2416 334 2066 50 
Q 1900 -81 1453 -78 
Q 722 -72 456 397 
Q 184 884 353 1747 
Q 534 2675 1009 3097 
Q 1544 3569 2166 3578 
z
" transform="scale(0.015625)"/>
      <path id="DejaVuSans-3d" d="M 678 2906 
L 4684 2906 
L 4684 2381 
L 678 2381 
L 678 2906 
z
M 678 1631 
L 4684 1631 
L 4684 1100 
L 678 1100 
L 678 1631 
z
" transform="scale(0.015625)"/>
      <path id="DejaVuSans-30" d="M 2034 4250 
Q 1547 4250 1301 3770 
Q 1056 3291 1056 2328 
Q 1056 1369 1301 889 
Q 1547 409 2034 409 
Q 2525 409 2770 889 
Q 3016 1369 3016 2328 
Q 3016 3291 2770 3770 
Q 2525 4250 2034 4250 
z
M 2034 4750 
Q 2819 4750 3233 4129 
Q 3647 3509 3647 2328 
Q 3647 1150 3233 529 
Q 2819 -91 2034 -91 
Q 1250 -91 836 529 
Q 422 1150 422 2328 
Q 422 3509 836 4129 
Q 1250 4750 2034 4750 
z
" transform="scale(0.015625)"/>
      <path id="DejaVuSans-2e" d="M 684 794 
L 1344 794 
L 1344 0 
L 684 0 
L 684 794 
z
" transform="scale(0.015625)"/>
      <path id="DejaVuSans-31" d="M 794 531 
L 1825 531 
L 1825 4091 
L 703 3866 
L 703 4441 
L 1819 4666 
L 2450 4666 
L 2450 531 
L 3481 531 
L 3481 0 
L 794 0 
L 794 531 
z
" transform="scale(0.015625)"/>
      <path id="DejaVuSansMono-2c" d="M 1569 947 
L 2356 947 
L 2356 300 
L 1741 -897 
L 1259 -897 
L 1569 300 
L 1569 947 
z
" transform="scale(0.015625)"/>
      <path id="DejaVuSans-Oblique-3b2" d="M 872 216 
L 572 -1331 
L -6 -1331 
L 928 3478 
Q 1206 4903 2538 4903 
Q 3888 4903 3659 3700 
Q 3503 2844 2894 2531 
Q 3713 2250 3553 1416 
Q 3272 -69 1759 -66 
Q 1097 -63 872 216 
z
M 1019 966 
Q 1259 422 1875 425 
Q 2775 425 2966 1406 
Q 3138 2288 1675 2219 
L 1778 2750 
Q 2909 2731 3106 3750 
Q 3241 4438 2509 4434 
Q 1691 4434 1503 3459 
L 1019 966 
z
" transform="scale(0.015625)"/>
      <path id="DejaVuSans-Oblique-4e" d="M 1081 4666 
L 1931 4666 
L 3219 666 
L 4000 4666 
L 4616 4666 
L 3706 0 
L 2853 0 
L 1569 4025 
L 788 0 
L 172 0 
L 1081 4666 
z
" transform="scale(0.015625)"/>
      <path id="DejaVuSans-32" d="M 1228 531 
L 3431 531 
L 3431 0 
L 469 0 
L 469 531 
Q 828 903 1448 1529 
Q 2069 2156 2228 2338 
Q 2531 2678 2651 2914 
Q 2772 3150 2772 3378 
Q 2772 3750 2511 3984 
Q 2250 4219 1831 4219 
Q 1534 4219 1204 4116 
Q 875 4013 500 3803 
L 500 4441 
Q 881 4594 1212 4672 
Q 1544 4750 1819 4750 
Q 2544 4750 2975 4387 
Q 3406 4025 3406 3419 
Q 3406 3131 3298 2873 
Q 3191 2616 2906 2266 
Q 2828 2175 2409 1742 
Q 1991 1309 1228 531 
z
" transform="scale(0.015625)"/>
      <path id="DejaVuSans-35" d="M 691 4666 
L 3169 4666 
L 3169 4134 
L 1269 4134 
L 1269 2991 
Q 1406 3038 1543 3061 
Q 1681 3084 1819 3084 
Q 2600 3084 3056 2656 
Q 3513 2228 3513 1497 
Q 3513 744 3044 326 
Q 2575 -91 1722 -91 
Q 1428 -91 1123 -41 
Q 819 9 494 109 
L 494 744 
Q 775 591 1075 516 
Q 1375 441 1709 441 
Q 2250 441 2565 725 
Q 2881 1009 2881 1497 
Q 2881 1984 2565 2268 
Q 2250 2553 1709 2553 
Q 1456 2553 1204 2497 
Q 953 2441 691 2322 
L 691 4666 
z
" transform="scale(0.015625)"/>
     </defs>
     <use xlink:href="#DejaVuSans-Oblique-3b1" transform="translate(0 0.390625)"/>
     <use xlink:href="#DejaVuSans-3d" transform="translate(85.400391 0.390625)"/>
     <use xlink:href="#DejaVuSans-30" transform="translate(188.671875 0.390625)"/>
     <use xlink:href="#DejaVuSans-2e" transform="translate(252.294922 0.390625)"/>
     <use xlink:href="#DejaVuSans-30" transform="translate(284.082031 0.390625)"/>
     <use xlink:href="#DejaVuSans-31" transform="translate(347.705078 0.390625)"/>
     <use xlink:href="#DejaVuSansMono-2c" transform="translate(411.328125 0.390625)"/>
     <use xlink:href="#DejaVuSansMono-20" transform="translate(471.533203 0.390625)"/>
     <use xlink:href="#DejaVuSans-Oblique-3b2" transform="translate(531.738281 0.390625)"/>
     <use xlink:href="#DejaVuSans-3d" transform="translate(615.039062 0.390625)"/>
     <use xlink:href="#DejaVuSans-30" transform="translate(718.310547 0.390625)"/>
     <use xlink:href="#DejaVuSansMono-2c" transform="translate(781.933594 0.390625)"/>
     <use xlink:href="#DejaVuSansMono-20" transform="translate(842.138672 0.390625)"/>
     <use xlink:href="#DejaVuSans-Oblique-4e" transform="translate(902.34375 0.390625)"/>
     <use xlink:href="#DejaVuSans-3d" transform="translate(996.630859 0.390625)"/>
     <use xlink:href="#DejaVuSans-31" transform="translate(1099.902344 0.390625)"/>
     <use xlink:href="#DejaVuSans-32" transform="translate(1163.525391 0.390625)"/>
     <use xlink:href="#DejaVuSans-35" transform="translate(1227.148438 0.390625)"/>
    </g>
   </g>
  </g>
  <g id="axes_2">
   <g id="patch_5">
    <path d="M 347.786562 189.88 
L 633.241563 189.88 
L 633.241563 50.64 
L 347.786562 50.64 
z
" style="fill: #ffffff"/>
   </g>
   <g id="matplotlib.axis_3">
    <g id="xtick_8">
     <g id="line2d_26">
      <path d="M 360.76179 189.88 
L 360.76179 50.64 
" clip-path="url(#pf444b24228)" style="fill: none; stroke-dasharray: 2.22,0.96; stroke-dashoffset: 0; stroke: #6c6066; stroke-opacity: 0.4; stroke-width: 0.6"/>
     </g>
     <g id="line2d_27">
      <g>
       <use xlink:href="#m3f04d99aa2" x="360.76179" y="189.88" style="stroke: #000000; stroke-width: 0.8"/>
      </g>
     </g>
     <g id="text_16">
      <!-- 0 -->
      <g transform="translate(357.751634 204.531562) scale(0.1 -0.1)">
       <use xlink:href="#DejaVuSansMono-30"/>
      </g>
     </g>
    </g>
    <g id="xtick_9">
     <g id="line2d_28">
      <path d="M 402.282517 189.88 
L 402.282517 50.64 
" clip-path="url(#pf444b24228)" style="fill: none; stroke-dasharray: 2.22,0.96; stroke-dashoffset: 0; stroke: #6c6066; stroke-opacity: 0.4; stroke-width: 0.6"/>
     </g>
     <g id="line2d_29">
      <g>
       <use xlink:href="#m3f04d99aa2" x="402.282517" y="189.88" style="stroke: #000000; stroke-width: 0.8"/>
      </g>
     </g>
     <g id="text_17">
      <!-- 20 -->
      <g transform="translate(396.262205 204.531562) scale(0.1 -0.1)">
       <use xlink:href="#DejaVuSansMono-32"/>
       <use xlink:href="#DejaVuSansMono-30" x="60.205078"/>
      </g>
     </g>
    </g>
    <g id="xtick_10">
     <g id="line2d_30">
      <path d="M 443.803244 189.88 
L 443.803244 50.64 
" clip-path="url(#pf444b24228)" style="fill: none; stroke-dasharray: 2.22,0.96; stroke-dashoffset: 0; stroke: #6c6066; stroke-opacity: 0.4; stroke-width: 0.6"/>
     </g>
     <g id="line2d_31">
      <g>
       <use xlink:href="#m3f04d99aa2" x="443.803244" y="189.88" style="stroke: #000000; stroke-width: 0.8"/>
      </g>
     </g>
     <g id="text_18">
      <!-- 40 -->
      <g transform="translate(437.782932 204.531562) scale(0.1 -0.1)">
       <use xlink:href="#DejaVuSansMono-34"/>
       <use xlink:href="#DejaVuSansMono-30" x="60.205078"/>
      </g>
     </g>
    </g>
    <g id="xtick_11">
     <g id="line2d_32">
      <path d="M 485.323972 189.88 
L 485.323972 50.64 
" clip-path="url(#pf444b24228)" style="fill: none; stroke-dasharray: 2.22,0.96; stroke-dashoffset: 0; stroke: #6c6066; stroke-opacity: 0.4; stroke-width: 0.6"/>
     </g>
     <g id="line2d_33">
      <g>
       <use xlink:href="#m3f04d99aa2" x="485.323972" y="189.88" style="stroke: #000000; stroke-width: 0.8"/>
      </g>
     </g>
     <g id="text_19">
      <!-- 60 -->
      <g transform="translate(479.303659 204.531562) scale(0.1 -0.1)">
       <use xlink:href="#DejaVuSansMono-36"/>
       <use xlink:href="#DejaVuSansMono-30" x="60.205078"/>
      </g>
     </g>
    </g>
    <g id="xtick_12">
     <g id="line2d_34">
      <path d="M 526.844699 189.88 
L 526.844699 50.64 
" clip-path="url(#pf444b24228)" style="fill: none; stroke-dasharray: 2.22,0.96; stroke-dashoffset: 0; stroke: #6c6066; stroke-opacity: 0.4; stroke-width: 0.6"/>
     </g>
     <g id="line2d_35">
      <g>
       <use xlink:href="#m3f04d99aa2" x="526.844699" y="189.88" style="stroke: #000000; stroke-width: 0.8"/>
      </g>
     </g>
     <g id="text_20">
      <!-- 80 -->
      <g transform="translate(520.824386 204.531562) scale(0.1 -0.1)">
       <use xlink:href="#DejaVuSansMono-38"/>
       <use xlink:href="#DejaVuSansMono-30" x="60.205078"/>
      </g>
     </g>
    </g>
    <g id="xtick_13">
     <g id="line2d_36">
      <path d="M 568.365426 189.88 
L 568.365426 50.64 
" clip-path="url(#pf444b24228)" style="fill: none; stroke-dasharray: 2.22,0.96; stroke-dashoffset: 0; stroke: #6c6066; stroke-opacity: 0.4; stroke-width: 0.6"/>
     </g>
     <g id="line2d_37">
      <g>
       <use xlink:href="#m3f04d99aa2" x="568.365426" y="189.88" style="stroke: #000000; stroke-width: 0.8"/>
      </g>
     </g>
     <g id="text_21">
      <!-- 100 -->
      <g transform="translate(559.334957 204.531562) scale(0.1 -0.1)">
       <use xlink:href="#DejaVuSansMono-31"/>
       <use xlink:href="#DejaVuSansMono-30" x="60.205078"/>
       <use xlink:href="#DejaVuSansMono-30" x="120.410156"/>
      </g>
     </g>
    </g>
    <g id="xtick_14">
     <g id="line2d_38">
      <path d="M 609.886153 189.88 
L 609.886153 50.64 
" clip-path="url(#pf444b24228)" style="fill: none; stroke-dasharray: 2.22,0.96; stroke-dashoffset: 0; stroke: #6c6066; stroke-opacity: 0.4; stroke-width: 0.6"/>
     </g>
     <g id="line2d_39">
      <g>
       <use xlink:href="#m3f04d99aa2" x="609.886153" y="189.88" style="stroke: #000000; stroke-width: 0.8"/>
      </g>
     </g>
     <g id="text_22">
      <!-- 120 -->
      <g transform="translate(600.855685 204.531562) scale(0.1 -0.1)">
       <use xlink:href="#DejaVuSansMono-31"/>
       <use xlink:href="#DejaVuSansMono-32" x="60.205078"/>
       <use xlink:href="#DejaVuSansMono-30" x="120.410156"/>
      </g>
     </g>
    </g>
    <g id="text_23">
     <!-- gradient steps -->
     <g transform="translate(448.371875 218.209687) scale(0.1 -0.1)">
      <use xlink:href="#DejaVuSansMono-67"/>
      <use xlink:href="#DejaVuSansMono-72" x="60.205078"/>
      <use xlink:href="#DejaVuSansMono-61" x="120.410156"/>
      <use xlink:href="#DejaVuSansMono-64" x="180.615234"/>
      <use xlink:href="#DejaVuSansMono-69" x="240.820312"/>
      <use xlink:href="#DejaVuSansMono-65" x="301.025391"/>
      <use xlink:href="#DejaVuSansMono-6e" x="361.230469"/>
      <use xlink:href="#DejaVuSansMono-74" x="421.435547"/>
      <use xlink:href="#DejaVuSansMono-20" x="481.640625"/>
      <use xlink:href="#DejaVuSansMono-73" x="541.845703"/>
      <use xlink:href="#DejaVuSansMono-74" x="602.050781"/>
      <use xlink:href="#DejaVuSansMono-65" x="662.255859"/>
      <use xlink:href="#DejaVuSansMono-70" x="722.460938"/>
      <use xlink:href="#DejaVuSansMono-73" x="782.666016"/>
     </g>
    </g>
   </g>
   <g id="matplotlib.axis_4">
    <g id="ytick_6">
     <g id="line2d_40">
      <path d="M 347.786562 183.56039 
L 633.241563 183.56039 
" clip-path="url(#pf444b24228)" style="fill: none; stroke-dasharray: 2.22,0.96; stroke-dashoffset: 0; stroke: #6c6066; stroke-opacity: 0.4; stroke-width: 0.6"/>
     </g>
     <g id="line2d_41">
      <g>
       <use xlink:href="#m9b724ba0d5" x="347.786562" y="183.56039" style="stroke: #000000; stroke-width: 0.8"/>
      </g>
     </g>
    </g>
    <g id="ytick_7">
     <g id="line2d_42">
      <path d="M 347.786562 152.24114 
L 633.241563 152.24114 
" clip-path="url(#pf444b24228)" style="fill: none; stroke-dasharray: 2.22,0.96; stroke-dashoffset: 0; stroke: #6c6066; stroke-opacity: 0.4; stroke-width: 0.6"/>
     </g>
     <g id="line2d_43">
      <g>
       <use xlink:href="#m9b724ba0d5" x="347.786562" y="152.24114" style="stroke: #000000; stroke-width: 0.8"/>
      </g>
     </g>
    </g>
    <g id="ytick_8">
     <g id="line2d_44">
      <path d="M 347.786562 120.921889 
L 633.241563 120.921889 
" clip-path="url(#pf444b24228)" style="fill: none; stroke-dasharray: 2.22,0.96; stroke-dashoffset: 0; stroke: #6c6066; stroke-opacity: 0.4; stroke-width: 0.6"/>
     </g>
     <g id="line2d_45">
      <g>
       <use xlink:href="#m9b724ba0d5" x="347.786562" y="120.921889" style="stroke: #000000; stroke-width: 0.8"/>
      </g>
     </g>
    </g>
    <g id="ytick_9">
     <g id="line2d_46">
      <path d="M 347.786562 89.602639 
L 633.241563 89.602639 
" clip-path="url(#pf444b24228)" style="fill: none; stroke-dasharray: 2.22,0.96; stroke-dashoffset: 0; stroke: #6c6066; stroke-opacity: 0.4; stroke-width: 0.6"/>
     </g>
     <g id="line2d_47">
      <g>
       <use xlink:href="#m9b724ba0d5" x="347.786562" y="89.602639" style="stroke: #000000; stroke-width: 0.8"/>
      </g>
     </g>
    </g>
    <g id="ytick_10">
     <g id="line2d_48">
      <path d="M 347.786562 58.283389 
L 633.241563 58.283389 
" clip-path="url(#pf444b24228)" style="fill: none; stroke-dasharray: 2.22,0.96; stroke-dashoffset: 0; stroke: #6c6066; stroke-opacity: 0.4; stroke-width: 0.6"/>
     </g>
     <g id="line2d_49">
      <g>
       <use xlink:href="#m9b724ba0d5" x="347.786562" y="58.283389" style="stroke: #000000; stroke-width: 0.8"/>
      </g>
     </g>
    </g>
    <g id="text_24">
     <!-- objective -->
     <g transform="translate(338.206875 147.351406) rotate(-90) scale(0.1 -0.1)">
      <use xlink:href="#DejaVuSansMono-6f"/>
      <use xlink:href="#DejaVuSansMono-62" x="60.205078"/>
      <use xlink:href="#DejaVuSansMono-6a" x="120.410156"/>
      <use xlink:href="#DejaVuSansMono-65" x="180.615234"/>
      <use xlink:href="#DejaVuSansMono-63" x="240.820312"/>
      <use xlink:href="#DejaVuSansMono-74" x="301.025391"/>
      <use xlink:href="#DejaVuSansMono-69" x="361.230469"/>
      <use xlink:href="#DejaVuSansMono-76" x="421.435547"/>
      <use xlink:href="#DejaVuSansMono-65" x="481.640625"/>
     </g>
    </g>
   </g>
   <g id="line2d_50">
    <path d="M 360.76179 94.924465 
L 362.837826 122.054565 
L 364.913862 142.961718 
L 366.989899 156.2186 
L 369.065935 165.462849 
L 371.141972 171.757597 
L 373.218008 175.925554 
L 375.294044 178.624571 
L 377.370081 180.346833 
L 379.446117 181.37961 
L 381.522153 182.015029 
L 383.59819 182.272974 
L 385.674226 182.42511 
L 387.750262 182.213765 
L 389.826299 182.131987 
L 391.902335 181.411631 
L 393.978372 181.255246 
L 396.054408 179.72 
L 398.130444 179.812596 
L 400.206481 176.969437 
L 402.282517 178.061818 
L 404.358553 173.549247 
L 406.43459 176.629006 
L 408.510626 170.694612 
L 410.586662 175.925671 
L 412.662699 169.280616 
L 414.738735 175.715949 
L 416.814772 168.858638 
L 418.890808 175.670048 
L 420.966844 168.766992 
L 423.042881 175.661609 
L 425.118917 168.750675 
L 427.194953 175.660518 
L 429.27099 168.748913 
L 431.347026 175.660696 
L 433.423063 168.749548 
L 435.499099 175.660949 
L 437.575135 168.75022 
L 439.651172 175.661151 
L 441.727208 168.750729 
L 443.803244 175.661267 
L 445.879281 168.751031 
L 447.955317 175.661353 
L 450.031353 168.751237 
L 452.10739 175.661412 
L 454.183426 168.751394 
L 456.259463 175.661442 
L 458.335499 168.751459 
L 460.411535 175.661439 
L 462.487572 168.751461 
L 464.563608 175.66147 
L 466.639644 168.751521 
L 468.715681 175.66147 
L 470.791717 168.751537 
L 472.867753 175.66147 
L 474.94379 168.751536 
L 477.019826 175.66147 
L 479.095863 168.751536 
L 481.171899 175.66147 
L 483.247935 168.751538 
L 485.323972 175.66147 
L 487.400008 168.751538 
L 489.476044 175.66147 
L 491.552081 168.751538 
L 493.628117 175.66147 
L 495.704153 168.751538 
L 497.78019 175.66147 
L 499.856226 168.751538 
L 501.932263 175.66147 
L 504.008299 168.751538 
L 506.084335 175.66147 
L 508.160372 168.751538 
L 510.236408 175.66147 
L 512.312444 168.751538 
L 514.388481 175.66147 
L 516.464517 168.751538 
L 518.540553 175.66147 
L 520.61659 168.751538 
L 522.692626 175.66147 
L 524.768663 168.751538 
L 526.844699 175.66147 
L 528.920735 168.751538 
L 530.996772 175.66147 
L 533.072808 168.751538 
L 535.148844 175.66147 
L 537.224881 168.751538 
L 539.300917 175.66147 
L 541.376953 168.751538 
L 543.45299 175.66147 
L 545.529026 168.751538 
L 547.605063 175.66147 
L 549.681099 168.751538 
L 551.757135 175.66147 
L 553.833172 168.751538 
L 555.909208 175.66147 
L 557.985244 168.751538 
L 560.061281 175.66147 
L 562.137317 168.751538 
L 564.213353 175.66147 
L 566.28939 168.751538 
L 568.365426 175.66147 
L 570.441463 168.751538 
L 572.517499 175.66147 
L 574.593535 168.751538 
L 576.669572 175.66147 
L 578.745608 168.751538 
L 580.821644 175.66147 
L 582.897681 168.751538 
L 584.973717 175.66147 
L 587.049753 168.751538 
L 589.12579 175.66147 
L 591.201826 168.751538 
L 593.277863 175.66147 
L 595.353899 168.751538 
L 597.429935 175.66147 
L 599.505972 168.751538 
L 601.582008 175.66147 
L 603.658044 168.751538 
L 605.734081 175.66147 
L 607.810117 168.751538 
L 609.886153 175.66147 
L 611.96219 168.751538 
L 614.038226 175.66147 
L 616.114263 168.751538 
L 618.190299 175.66147 
L 620.266335 168.751538 
" clip-path="url(#pf444b24228)" style="fill: none; stroke: #486afb; stroke-width: 2; stroke-linecap: square"/>
   </g>
   <g id="patch_6">
    <path d="M 347.786562 189.88 
L 347.786562 50.64 
" style="fill: none; stroke: #000000; stroke-width: 0.6; stroke-linejoin: miter; stroke-linecap: square"/>
   </g>
   <g id="patch_7">
    <path d="M 347.786562 189.88 
L 633.241563 189.88 
" style="fill: none; stroke: #000000; stroke-width: 0.6; stroke-linejoin: miter; stroke-linecap: square"/>
   </g>
   <g id="text_25">
    <!-- $\alpha=0.01$, $\beta=0$, $N=125$ -->
    <g transform="translate(413.054063 44.64) scale(0.12 -0.12)">
     <use xlink:href="#DejaVuSans-Oblique-3b1" transform="translate(0 0.390625)"/>
     <use xlink:href="#DejaVuSans-3d" transform="translate(85.400391 0.390625)"/>
     <use xlink:href="#DejaVuSans-30" transform="translate(188.671875 0.390625)"/>
     <use xlink:href="#DejaVuSans-2e" transform="translate(252.294922 0.390625)"/>
     <use xlink:href="#DejaVuSans-30" transform="translate(284.082031 0.390625)"/>
     <use xlink:href="#DejaVuSans-31" transform="translate(347.705078 0.390625)"/>
     <use xlink:href="#DejaVuSansMono-2c" transform="translate(411.328125 0.390625)"/>
     <use xlink:href="#DejaVuSansMono-20" transform="translate(471.533203 0.390625)"/>
     <use xlink:href="#DejaVuSans-Oblique-3b2" transform="translate(531.738281 0.390625)"/>
     <use xlink:href="#DejaVuSans-3d" transform="translate(615.039062 0.390625)"/>
     <use xlink:href="#DejaVuSans-30" transform="translate(718.310547 0.390625)"/>
     <use xlink:href="#DejaVuSansMono-2c" transform="translate(781.933594 0.390625)"/>
     <use xlink:href="#DejaVuSansMono-20" transform="translate(842.138672 0.390625)"/>
     <use xlink:href="#DejaVuSans-Oblique-4e" transform="translate(902.34375 0.390625)"/>
     <use xlink:href="#DejaVuSans-3d" transform="translate(996.630859 0.390625)"/>
     <use xlink:href="#DejaVuSans-31" transform="translate(1099.902344 0.390625)"/>
     <use xlink:href="#DejaVuSans-32" transform="translate(1163.525391 0.390625)"/>
     <use xlink:href="#DejaVuSans-35" transform="translate(1227.148438 0.390625)"/>
    </g>
   </g>
  </g>
  <g id="axes_3">
   <g id="patch_8">
    <path d="M 33.951563 388.6 
L 319.406563 388.6 
L 319.406563 249.36 
L 33.951563 249.36 
z
" style="fill: #ffffff"/>
   </g>
   <g id="matplotlib.axis_5">
    <g id="xtick_15">
     <g id="line2d_51">
      <path d="M 46.92679 388.6 
L 46.92679 249.36 
" clip-path="url(#pc64887bbe8)" style="fill: none; stroke-dasharray: 2.22,0.96; stroke-dashoffset: 0; stroke: #6c6066; stroke-opacity: 0.4; stroke-width: 0.6"/>
     </g>
     <g id="line2d_52">
      <g>
       <use xlink:href="#m3f04d99aa2" x="46.92679" y="388.6" style="stroke: #000000; stroke-width: 0.8"/>
      </g>
     </g>
     <g id="text_26">
      <!-- 0 -->
      <g transform="translate(43.916634 403.251562) scale(0.1 -0.1)">
       <use xlink:href="#DejaVuSansMono-30"/>
      </g>
     </g>
    </g>
    <g id="xtick_16">
     <g id="line2d_53">
      <path d="M 88.447517 388.6 
L 88.447517 249.36 
" clip-path="url(#pc64887bbe8)" style="fill: none; stroke-dasharray: 2.22,0.96; stroke-dashoffset: 0; stroke: #6c6066; stroke-opacity: 0.4; stroke-width: 0.6"/>
     </g>
     <g id="line2d_54">
      <g>
       <use xlink:href="#m3f04d99aa2" x="88.447517" y="388.6" style="stroke: #000000; stroke-width: 0.8"/>
      </g>
     </g>
     <g id="text_27">
      <!-- 20 -->
      <g transform="translate(82.427205 403.251562) scale(0.1 -0.1)">
       <use xlink:href="#DejaVuSansMono-32"/>
       <use xlink:href="#DejaVuSansMono-30" x="60.205078"/>
      </g>
     </g>
    </g>
    <g id="xtick_17">
     <g id="line2d_55">
      <path d="M 129.968244 388.6 
L 129.968244 249.36 
" clip-path="url(#pc64887bbe8)" style="fill: none; stroke-dasharray: 2.22,0.96; stroke-dashoffset: 0; stroke: #6c6066; stroke-opacity: 0.4; stroke-width: 0.6"/>
     </g>
     <g id="line2d_56">
      <g>
       <use xlink:href="#m3f04d99aa2" x="129.968244" y="388.6" style="stroke: #000000; stroke-width: 0.8"/>
      </g>
     </g>
     <g id="text_28">
      <!-- 40 -->
      <g transform="translate(123.947932 403.251562) scale(0.1 -0.1)">
       <use xlink:href="#DejaVuSansMono-34"/>
       <use xlink:href="#DejaVuSansMono-30" x="60.205078"/>
      </g>
     </g>
    </g>
    <g id="xtick_18">
     <g id="line2d_57">
      <path d="M 171.488972 388.6 
L 171.488972 249.36 
" clip-path="url(#pc64887bbe8)" style="fill: none; stroke-dasharray: 2.22,0.96; stroke-dashoffset: 0; stroke: #6c6066; stroke-opacity: 0.4; stroke-width: 0.6"/>
     </g>
     <g id="line2d_58">
      <g>
       <use xlink:href="#m3f04d99aa2" x="171.488972" y="388.6" style="stroke: #000000; stroke-width: 0.8"/>
      </g>
     </g>
     <g id="text_29">
      <!-- 60 -->
      <g transform="translate(165.468659 403.251562) scale(0.1 -0.1)">
       <use xlink:href="#DejaVuSansMono-36"/>
       <use xlink:href="#DejaVuSansMono-30" x="60.205078"/>
      </g>
     </g>
    </g>
    <g id="xtick_19">
     <g id="line2d_59">
      <path d="M 213.009699 388.6 
L 213.009699 249.36 
" clip-path="url(#pc64887bbe8)" style="fill: none; stroke-dasharray: 2.22,0.96; stroke-dashoffset: 0; stroke: #6c6066; stroke-opacity: 0.4; stroke-width: 0.6"/>
     </g>
     <g id="line2d_60">
      <g>
       <use xlink:href="#m3f04d99aa2" x="213.009699" y="388.6" style="stroke: #000000; stroke-width: 0.8"/>
      </g>
     </g>
     <g id="text_30">
      <!-- 80 -->
      <g transform="translate(206.989386 403.251562) scale(0.1 -0.1)">
       <use xlink:href="#DejaVuSansMono-38"/>
       <use xlink:href="#DejaVuSansMono-30" x="60.205078"/>
      </g>
     </g>
    </g>
    <g id="xtick_20">
     <g id="line2d_61">
      <path d="M 254.530426 388.6 
L 254.530426 249.36 
" clip-path="url(#pc64887bbe8)" style="fill: none; stroke-dasharray: 2.22,0.96; stroke-dashoffset: 0; stroke: #6c6066; stroke-opacity: 0.4; stroke-width: 0.6"/>
     </g>
     <g id="line2d_62">
      <g>
       <use xlink:href="#m3f04d99aa2" x="254.530426" y="388.6" style="stroke: #000000; stroke-width: 0.8"/>
      </g>
     </g>
     <g id="text_31">
      <!-- 100 -->
      <g transform="translate(245.499957 403.251562) scale(0.1 -0.1)">
       <use xlink:href="#DejaVuSansMono-31"/>
       <use xlink:href="#DejaVuSansMono-30" x="60.205078"/>
       <use xlink:href="#DejaVuSansMono-30" x="120.410156"/>
      </g>
     </g>
    </g>
    <g id="xtick_21">
     <g id="line2d_63">
      <path d="M 296.051153 388.6 
L 296.051153 249.36 
" clip-path="url(#pc64887bbe8)" style="fill: none; stroke-dasharray: 2.22,0.96; stroke-dashoffset: 0; stroke: #6c6066; stroke-opacity: 0.4; stroke-width: 0.6"/>
     </g>
     <g id="line2d_64">
      <g>
       <use xlink:href="#m3f04d99aa2" x="296.051153" y="388.6" style="stroke: #000000; stroke-width: 0.8"/>
      </g>
     </g>
     <g id="text_32">
      <!-- 120 -->
      <g transform="translate(287.020685 403.251562) scale(0.1 -0.1)">
       <use xlink:href="#DejaVuSansMono-31"/>
       <use xlink:href="#DejaVuSansMono-32" x="60.205078"/>
       <use xlink:href="#DejaVuSansMono-30" x="120.410156"/>
      </g>
     </g>
    </g>
    <g id="text_33">
     <!-- gradient steps -->
     <g transform="translate(134.536875 416.929687) scale(0.1 -0.1)">
      <use xlink:href="#DejaVuSansMono-67"/>
      <use xlink:href="#DejaVuSansMono-72" x="60.205078"/>
      <use xlink:href="#DejaVuSansMono-61" x="120.410156"/>
      <use xlink:href="#DejaVuSansMono-64" x="180.615234"/>
      <use xlink:href="#DejaVuSansMono-69" x="240.820312"/>
      <use xlink:href="#DejaVuSansMono-65" x="301.025391"/>
      <use xlink:href="#DejaVuSansMono-6e" x="361.230469"/>
      <use xlink:href="#DejaVuSansMono-74" x="421.435547"/>
      <use xlink:href="#DejaVuSansMono-20" x="481.640625"/>
      <use xlink:href="#DejaVuSansMono-73" x="541.845703"/>
      <use xlink:href="#DejaVuSansMono-74" x="602.050781"/>
      <use xlink:href="#DejaVuSansMono-65" x="662.255859"/>
      <use xlink:href="#DejaVuSansMono-70" x="722.460938"/>
      <use xlink:href="#DejaVuSansMono-73" x="782.666016"/>
     </g>
    </g>
   </g>
   <g id="matplotlib.axis_6">
    <g id="ytick_11">
     <g id="line2d_65">
      <path d="M 33.951563 382.28039 
L 319.406563 382.28039 
" clip-path="url(#pc64887bbe8)" style="fill: none; stroke-dasharray: 2.22,0.96; stroke-dashoffset: 0; stroke: #6c6066; stroke-opacity: 0.4; stroke-width: 0.6"/>
     </g>
     <g id="line2d_66">
      <g>
       <use xlink:href="#m9b724ba0d5" x="33.951563" y="382.28039" style="stroke: #000000; stroke-width: 0.8"/>
      </g>
     </g>
     <g id="text_34">
      <!-- 0 -->
      <g transform="translate(20.93125 386.106171) scale(0.1 -0.1)">
       <use xlink:href="#DejaVuSansMono-30"/>
      </g>
     </g>
    </g>
    <g id="ytick_12">
     <g id="line2d_67">
      <path d="M 33.951563 350.96114 
L 319.406563 350.96114 
" clip-path="url(#pc64887bbe8)" style="fill: none; stroke-dasharray: 2.22,0.96; stroke-dashoffset: 0; stroke: #6c6066; stroke-opacity: 0.4; stroke-width: 0.6"/>
     </g>
     <g id="line2d_68">
      <g>
       <use xlink:href="#m9b724ba0d5" x="33.951563" y="350.96114" style="stroke: #000000; stroke-width: 0.8"/>
      </g>
     </g>
     <g id="text_35">
      <!-- 2 -->
      <g transform="translate(20.93125 354.786921) scale(0.1 -0.1)">
       <use xlink:href="#DejaVuSansMono-32"/>
      </g>
     </g>
    </g>
    <g id="ytick_13">
     <g id="line2d_69">
      <path d="M 33.951563 319.641889 
L 319.406563 319.641889 
" clip-path="url(#pc64887bbe8)" style="fill: none; stroke-dasharray: 2.22,0.96; stroke-dashoffset: 0; stroke: #6c6066; stroke-opacity: 0.4; stroke-width: 0.6"/>
     </g>
     <g id="line2d_70">
      <g>
       <use xlink:href="#m9b724ba0d5" x="33.951563" y="319.641889" style="stroke: #000000; stroke-width: 0.8"/>
      </g>
     </g>
     <g id="text_36">
      <!-- 4 -->
      <g transform="translate(20.93125 323.467671) scale(0.1 -0.1)">
       <use xlink:href="#DejaVuSansMono-34"/>
      </g>
     </g>
    </g>
    <g id="ytick_14">
     <g id="line2d_71">
      <path d="M 33.951563 288.322639 
L 319.406563 288.322639 
" clip-path="url(#pc64887bbe8)" style="fill: none; stroke-dasharray: 2.22,0.96; stroke-dashoffset: 0; stroke: #6c6066; stroke-opacity: 0.4; stroke-width: 0.6"/>
     </g>
     <g id="line2d_72">
      <g>
       <use xlink:href="#m9b724ba0d5" x="33.951563" y="288.322639" style="stroke: #000000; stroke-width: 0.8"/>
      </g>
     </g>
     <g id="text_37">
      <!-- 6 -->
      <g transform="translate(20.93125 292.14842) scale(0.1 -0.1)">
       <use xlink:href="#DejaVuSansMono-36"/>
      </g>
     </g>
    </g>
    <g id="ytick_15">
     <g id="line2d_73">
      <path d="M 33.951563 257.003389 
L 319.406563 257.003389 
" clip-path="url(#pc64887bbe8)" style="fill: none; stroke-dasharray: 2.22,0.96; stroke-dashoffset: 0; stroke: #6c6066; stroke-opacity: 0.4; stroke-width: 0.6"/>
     </g>
     <g id="line2d_74">
      <g>
       <use xlink:href="#m9b724ba0d5" x="33.951563" y="257.003389" style="stroke: #000000; stroke-width: 0.8"/>
      </g>
     </g>
     <g id="text_38">
      <!-- 8 -->
      <g transform="translate(20.93125 260.82917) scale(0.1 -0.1)">
       <use xlink:href="#DejaVuSansMono-38"/>
      </g>
     </g>
    </g>
    <g id="text_39">
     <!-- objective -->
     <g transform="translate(14.851562 346.071406) rotate(-90) scale(0.1 -0.1)">
      <use xlink:href="#DejaVuSansMono-6f"/>
      <use xlink:href="#DejaVuSansMono-62" x="60.205078"/>
      <use xlink:href="#DejaVuSansMono-6a" x="120.410156"/>
      <use xlink:href="#DejaVuSansMono-65" x="180.615234"/>
      <use xlink:href="#DejaVuSansMono-63" x="240.820312"/>
      <use xlink:href="#DejaVuSansMono-74" x="301.025391"/>
      <use xlink:href="#DejaVuSansMono-69" x="361.230469"/>
      <use xlink:href="#DejaVuSansMono-76" x="421.435547"/>
      <use xlink:href="#DejaVuSansMono-65" x="481.640625"/>
     </g>
    </g>
   </g>
   <g id="line2d_75">
    <path d="M 46.92679 273.913289 
L 49.002826 255.689091 
L 51.078862 263.520673 
L 53.154899 283.895752 
L 55.230935 335.5258 
L 57.306972 374.847241 
L 59.383008 377.165077 
L 61.459044 378.71405 
L 63.535081 379.344236 
L 65.611117 379.872354 
L 67.687153 379.500592 
L 69.76319 379.638996 
L 71.839226 378.310567 
L 73.915262 378.542416 
L 75.991299 375.942456 
L 78.067335 376.986357 
L 80.143372 372.796473 
L 82.219408 375.578701 
L 84.295444 369.945981 
L 86.371481 374.788169 
L 88.447517 368.329911 
L 90.523553 374.505123 
L 92.59959 367.743283 
L 94.675626 374.424852 
L 96.751662 367.572206 
L 98.827699 374.400831 
L 100.903735 367.518449 
L 102.979772 374.39176 
L 105.055808 367.497015 
L 107.131844 374.387415 
L 109.207881 367.486384 
L 111.283917 374.385019 
L 113.359953 367.480415 
L 115.43599 374.383605 
L 117.512026 367.476881 
L 119.588062 374.382768 
L 121.664099 367.474787 
L 123.740135 374.382249 
L 125.816172 367.47349 
L 127.892208 374.381961 
L 129.968244 367.472758 
L 132.044281 374.381758 
L 134.120317 367.472267 
L 136.196353 374.381641 
L 138.27239 367.471966 
L 140.348426 374.381585 
L 142.424463 367.471822 
L 144.500499 374.381557 
L 146.576535 367.471744 
L 148.652572 374.381528 
L 150.728608 367.471677 
L 152.804644 374.381498 
L 154.880681 367.471601 
L 156.956717 374.381499 
L 159.032753 367.471601 
L 161.10879 374.381499 
L 163.184826 367.471599 
L 165.260862 374.381499 
L 167.336899 367.4716 
L 169.412935 374.381499 
L 171.488972 367.4716 
L 173.565008 374.381499 
L 175.641044 367.4716 
L 177.717081 374.381499 
L 179.793117 367.4716 
L 181.869153 374.381499 
L 183.94519 367.4716 
L 186.021226 374.381499 
L 188.097262 367.4716 
L 190.173299 374.381499 
L 192.249335 367.4716 
L 194.325372 374.381499 
L 196.401408 367.4716 
L 198.477444 374.381499 
L 200.553481 367.4716 
L 202.629517 374.381499 
L 204.705553 367.4716 
L 206.78159 374.381499 
L 208.857626 367.4716 
L 210.933662 374.381499 
L 213.009699 367.4716 
L 215.085735 374.381499 
L 217.161772 367.4716 
L 219.237808 374.381499 
L 221.313844 367.4716 
L 223.389881 374.381499 
L 225.465917 367.4716 
L 227.541953 374.381499 
L 229.61799 367.4716 
L 231.694026 374.381499 
L 233.770062 367.4716 
L 235.846099 374.381499 
L 237.922135 367.4716 
L 239.998172 374.381499 
L 242.074208 367.4716 
L 244.150244 374.381499 
L 246.226281 367.4716 
L 248.302317 374.381499 
L 250.378353 367.4716 
L 252.45439 374.381499 
L 254.530426 367.4716 
L 256.606462 374.381499 
L 258.682499 367.4716 
L 260.758535 374.381499 
L 262.834572 367.4716 
L 264.910608 374.381499 
L 266.986644 367.4716 
L 269.062681 374.381499 
L 271.138717 367.4716 
L 273.214753 374.381499 
L 275.29079 367.4716 
L 277.366826 374.381499 
L 279.442862 367.4716 
L 281.518899 374.381499 
L 283.594935 367.4716 
L 285.670972 374.381499 
L 287.747008 367.4716 
L 289.823044 374.381499 
L 291.899081 367.4716 
L 293.975117 374.381499 
L 296.051153 367.4716 
L 298.12719 374.381499 
L 300.203226 367.4716 
L 302.279262 374.381499 
L 304.355299 367.4716 
L 306.431335 374.381499 
" clip-path="url(#pc64887bbe8)" style="fill: none; stroke: #486afb; stroke-width: 2; stroke-linecap: square"/>
   </g>
   <g id="patch_9">
    <path d="M 33.951563 388.6 
L 33.951563 249.36 
" style="fill: none; stroke: #000000; stroke-width: 0.6; stroke-linejoin: miter; stroke-linecap: square"/>
   </g>
   <g id="patch_10">
    <path d="M 33.951563 388.6 
L 319.406562 388.6 
" style="fill: none; stroke: #000000; stroke-width: 0.6; stroke-linejoin: miter; stroke-linecap: square"/>
   </g>
   <g id="text_40">
    <!-- $\alpha=0.01$, $\beta=0$, $N=125$ -->
    <g transform="translate(99.219062 243.36) scale(0.12 -0.12)">
     <use xlink:href="#DejaVuSans-Oblique-3b1" transform="translate(0 0.390625)"/>
     <use xlink:href="#DejaVuSans-3d" transform="translate(85.400391 0.390625)"/>
     <use xlink:href="#DejaVuSans-30" transform="translate(188.671875 0.390625)"/>
     <use xlink:href="#DejaVuSans-2e" transform="translate(252.294922 0.390625)"/>
     <use xlink:href="#DejaVuSans-30" transform="translate(284.082031 0.390625)"/>
     <use xlink:href="#DejaVuSans-31" transform="translate(347.705078 0.390625)"/>
     <use xlink:href="#DejaVuSansMono-2c" transform="translate(411.328125 0.390625)"/>
     <use xlink:href="#DejaVuSansMono-20" transform="translate(471.533203 0.390625)"/>
     <use xlink:href="#DejaVuSans-Oblique-3b2" transform="translate(531.738281 0.390625)"/>
     <use xlink:href="#DejaVuSans-3d" transform="translate(615.039062 0.390625)"/>
     <use xlink:href="#DejaVuSans-30" transform="translate(718.310547 0.390625)"/>
     <use xlink:href="#DejaVuSansMono-2c" transform="translate(781.933594 0.390625)"/>
     <use xlink:href="#DejaVuSansMono-20" transform="translate(842.138672 0.390625)"/>
     <use xlink:href="#DejaVuSans-Oblique-4e" transform="translate(902.34375 0.390625)"/>
     <use xlink:href="#DejaVuSans-3d" transform="translate(996.630859 0.390625)"/>
     <use xlink:href="#DejaVuSans-31" transform="translate(1099.902344 0.390625)"/>
     <use xlink:href="#DejaVuSans-32" transform="translate(1163.525391 0.390625)"/>
     <use xlink:href="#DejaVuSans-35" transform="translate(1227.148438 0.390625)"/>
    </g>
   </g>
  </g>
  <g id="axes_4">
   <g id="patch_11">
    <path d="M 347.786562 388.6 
L 633.241563 388.6 
L 633.241563 249.36 
L 347.786562 249.36 
z
" style="fill: #ffffff"/>
   </g>
   <g id="matplotlib.axis_7">
    <g id="xtick_22">
     <g id="line2d_76">
      <path d="M 360.76179 388.6 
L 360.76179 249.36 
" clip-path="url(#p97f7fecc8c)" style="fill: none; stroke-dasharray: 2.22,0.96; stroke-dashoffset: 0; stroke: #6c6066; stroke-opacity: 0.4; stroke-width: 0.6"/>
     </g>
     <g id="line2d_77">
      <g>
       <use xlink:href="#m3f04d99aa2" x="360.76179" y="388.6" style="stroke: #000000; stroke-width: 0.8"/>
      </g>
     </g>
     <g id="text_41">
      <!-- 0 -->
      <g transform="translate(357.751634 403.251562) scale(0.1 -0.1)">
       <use xlink:href="#DejaVuSansMono-30"/>
      </g>
     </g>
    </g>
    <g id="xtick_23">
     <g id="line2d_78">
      <path d="M 402.282517 388.6 
L 402.282517 249.36 
" clip-path="url(#p97f7fecc8c)" style="fill: none; stroke-dasharray: 2.22,0.96; stroke-dashoffset: 0; stroke: #6c6066; stroke-opacity: 0.4; stroke-width: 0.6"/>
     </g>
     <g id="line2d_79">
      <g>
       <use xlink:href="#m3f04d99aa2" x="402.282517" y="388.6" style="stroke: #000000; stroke-width: 0.8"/>
      </g>
     </g>
     <g id="text_42">
      <!-- 20 -->
      <g transform="translate(396.262205 403.251562) scale(0.1 -0.1)">
       <use xlink:href="#DejaVuSansMono-32"/>
       <use xlink:href="#DejaVuSansMono-30" x="60.205078"/>
      </g>
     </g>
    </g>
    <g id="xtick_24">
     <g id="line2d_80">
      <path d="M 443.803244 388.6 
L 443.803244 249.36 
" clip-path="url(#p97f7fecc8c)" style="fill: none; stroke-dasharray: 2.22,0.96; stroke-dashoffset: 0; stroke: #6c6066; stroke-opacity: 0.4; stroke-width: 0.6"/>
     </g>
     <g id="line2d_81">
      <g>
       <use xlink:href="#m3f04d99aa2" x="443.803244" y="388.6" style="stroke: #000000; stroke-width: 0.8"/>
      </g>
     </g>
     <g id="text_43">
      <!-- 40 -->
      <g transform="translate(437.782932 403.251562) scale(0.1 -0.1)">
       <use xlink:href="#DejaVuSansMono-34"/>
       <use xlink:href="#DejaVuSansMono-30" x="60.205078"/>
      </g>
     </g>
    </g>
    <g id="xtick_25">
     <g id="line2d_82">
      <path d="M 485.323972 388.6 
L 485.323972 249.36 
" clip-path="url(#p97f7fecc8c)" style="fill: none; stroke-dasharray: 2.22,0.96; stroke-dashoffset: 0; stroke: #6c6066; stroke-opacity: 0.4; stroke-width: 0.6"/>
     </g>
     <g id="line2d_83">
      <g>
       <use xlink:href="#m3f04d99aa2" x="485.323972" y="388.6" style="stroke: #000000; stroke-width: 0.8"/>
      </g>
     </g>
     <g id="text_44">
      <!-- 60 -->
      <g transform="translate(479.303659 403.251562) scale(0.1 -0.1)">
       <use xlink:href="#DejaVuSansMono-36"/>
       <use xlink:href="#DejaVuSansMono-30" x="60.205078"/>
      </g>
     </g>
    </g>
    <g id="xtick_26">
     <g id="line2d_84">
      <path d="M 526.844699 388.6 
L 526.844699 249.36 
" clip-path="url(#p97f7fecc8c)" style="fill: none; stroke-dasharray: 2.22,0.96; stroke-dashoffset: 0; stroke: #6c6066; stroke-opacity: 0.4; stroke-width: 0.6"/>
     </g>
     <g id="line2d_85">
      <g>
       <use xlink:href="#m3f04d99aa2" x="526.844699" y="388.6" style="stroke: #000000; stroke-width: 0.8"/>
      </g>
     </g>
     <g id="text_45">
      <!-- 80 -->
      <g transform="translate(520.824386 403.251562) scale(0.1 -0.1)">
       <use xlink:href="#DejaVuSansMono-38"/>
       <use xlink:href="#DejaVuSansMono-30" x="60.205078"/>
      </g>
     </g>
    </g>
    <g id="xtick_27">
     <g id="line2d_86">
      <path d="M 568.365426 388.6 
L 568.365426 249.36 
" clip-path="url(#p97f7fecc8c)" style="fill: none; stroke-dasharray: 2.22,0.96; stroke-dashoffset: 0; stroke: #6c6066; stroke-opacity: 0.4; stroke-width: 0.6"/>
     </g>
     <g id="line2d_87">
      <g>
       <use xlink:href="#m3f04d99aa2" x="568.365426" y="388.6" style="stroke: #000000; stroke-width: 0.8"/>
      </g>
     </g>
     <g id="text_46">
      <!-- 100 -->
      <g transform="translate(559.334957 403.251562) scale(0.1 -0.1)">
       <use xlink:href="#DejaVuSansMono-31"/>
       <use xlink:href="#DejaVuSansMono-30" x="60.205078"/>
       <use xlink:href="#DejaVuSansMono-30" x="120.410156"/>
      </g>
     </g>
    </g>
    <g id="xtick_28">
     <g id="line2d_88">
      <path d="M 609.886153 388.6 
L 609.886153 249.36 
" clip-path="url(#p97f7fecc8c)" style="fill: none; stroke-dasharray: 2.22,0.96; stroke-dashoffset: 0; stroke: #6c6066; stroke-opacity: 0.4; stroke-width: 0.6"/>
     </g>
     <g id="line2d_89">
      <g>
       <use xlink:href="#m3f04d99aa2" x="609.886153" y="388.6" style="stroke: #000000; stroke-width: 0.8"/>
      </g>
     </g>
     <g id="text_47">
      <!-- 120 -->
      <g transform="translate(600.855685 403.251562) scale(0.1 -0.1)">
       <use xlink:href="#DejaVuSansMono-31"/>
       <use xlink:href="#DejaVuSansMono-32" x="60.205078"/>
       <use xlink:href="#DejaVuSansMono-30" x="120.410156"/>
      </g>
     </g>
    </g>
    <g id="text_48">
     <!-- gradient steps -->
     <g transform="translate(448.371875 416.929687) scale(0.1 -0.1)">
      <use xlink:href="#DejaVuSansMono-67"/>
      <use xlink:href="#DejaVuSansMono-72" x="60.205078"/>
      <use xlink:href="#DejaVuSansMono-61" x="120.410156"/>
      <use xlink:href="#DejaVuSansMono-64" x="180.615234"/>
      <use xlink:href="#DejaVuSansMono-69" x="240.820312"/>
      <use xlink:href="#DejaVuSansMono-65" x="301.025391"/>
      <use xlink:href="#DejaVuSansMono-6e" x="361.230469"/>
      <use xlink:href="#DejaVuSansMono-74" x="421.435547"/>
      <use xlink:href="#DejaVuSansMono-20" x="481.640625"/>
      <use xlink:href="#DejaVuSansMono-73" x="541.845703"/>
      <use xlink:href="#DejaVuSansMono-74" x="602.050781"/>
      <use xlink:href="#DejaVuSansMono-65" x="662.255859"/>
      <use xlink:href="#DejaVuSansMono-70" x="722.460938"/>
      <use xlink:href="#DejaVuSansMono-73" x="782.666016"/>
     </g>
    </g>
   </g>
   <g id="matplotlib.axis_8">
    <g id="ytick_16">
     <g id="line2d_90">
      <path d="M 347.786562 382.28039 
L 633.241563 382.28039 
" clip-path="url(#p97f7fecc8c)" style="fill: none; stroke-dasharray: 2.22,0.96; stroke-dashoffset: 0; stroke: #6c6066; stroke-opacity: 0.4; stroke-width: 0.6"/>
     </g>
     <g id="line2d_91">
      <g>
       <use xlink:href="#m9b724ba0d5" x="347.786562" y="382.28039" style="stroke: #000000; stroke-width: 0.8"/>
      </g>
     </g>
    </g>
    <g id="ytick_17">
     <g id="line2d_92">
      <path d="M 347.786562 350.96114 
L 633.241563 350.96114 
" clip-path="url(#p97f7fecc8c)" style="fill: none; stroke-dasharray: 2.22,0.96; stroke-dashoffset: 0; stroke: #6c6066; stroke-opacity: 0.4; stroke-width: 0.6"/>
     </g>
     <g id="line2d_93">
      <g>
       <use xlink:href="#m9b724ba0d5" x="347.786562" y="350.96114" style="stroke: #000000; stroke-width: 0.8"/>
      </g>
     </g>
    </g>
    <g id="ytick_18">
     <g id="line2d_94">
      <path d="M 347.786562 319.641889 
L 633.241563 319.641889 
" clip-path="url(#p97f7fecc8c)" style="fill: none; stroke-dasharray: 2.22,0.96; stroke-dashoffset: 0; stroke: #6c6066; stroke-opacity: 0.4; stroke-width: 0.6"/>
     </g>
     <g id="line2d_95">
      <g>
       <use xlink:href="#m9b724ba0d5" x="347.786562" y="319.641889" style="stroke: #000000; stroke-width: 0.8"/>
      </g>
     </g>
    </g>
    <g id="ytick_19">
     <g id="line2d_96">
      <path d="M 347.786562 288.322639 
L 633.241563 288.322639 
" clip-path="url(#p97f7fecc8c)" style="fill: none; stroke-dasharray: 2.22,0.96; stroke-dashoffset: 0; stroke: #6c6066; stroke-opacity: 0.4; stroke-width: 0.6"/>
     </g>
     <g id="line2d_97">
      <g>
       <use xlink:href="#m9b724ba0d5" x="347.786562" y="288.322639" style="stroke: #000000; stroke-width: 0.8"/>
      </g>
     </g>
    </g>
    <g id="ytick_20">
     <g id="line2d_98">
      <path d="M 347.786562 257.003389 
L 633.241563 257.003389 
" clip-path="url(#p97f7fecc8c)" style="fill: none; stroke-dasharray: 2.22,0.96; stroke-dashoffset: 0; stroke: #6c6066; stroke-opacity: 0.4; stroke-width: 0.6"/>
     </g>
     <g id="line2d_99">
      <g>
       <use xlink:href="#m9b724ba0d5" x="347.786562" y="257.003389" style="stroke: #000000; stroke-width: 0.8"/>
      </g>
     </g>
    </g>
    <g id="text_49">
     <!-- objective -->
     <g transform="translate(338.206875 346.071406) rotate(-90) scale(0.1 -0.1)">
      <use xlink:href="#DejaVuSansMono-6f"/>
      <use xlink:href="#DejaVuSansMono-62" x="60.205078"/>
      <use xlink:href="#DejaVuSansMono-6a" x="120.410156"/>
      <use xlink:href="#DejaVuSansMono-65" x="180.615234"/>
      <use xlink:href="#DejaVuSansMono-63" x="240.820312"/>
      <use xlink:href="#DejaVuSansMono-74" x="301.025391"/>
      <use xlink:href="#DejaVuSansMono-69" x="361.230469"/>
      <use xlink:href="#DejaVuSansMono-76" x="421.435547"/>
      <use xlink:href="#DejaVuSansMono-65" x="481.640625"/>
     </g>
    </g>
   </g>
   <g id="line2d_100">
    <path d="M 360.76179 263.924934 
L 362.837826 264.120169 
L 364.913862 264.850644 
L 366.989899 267.552036 
L 369.065935 277.106359 
L 371.141972 305.677831 
L 373.218008 351.184805 
L 375.294044 362.557572 
L 377.370081 368.580809 
L 379.446117 373.158211 
L 381.522153 375.313313 
L 383.59819 377.249525 
L 385.674226 377.308825 
L 387.750262 378.222625 
L 389.826299 376.804812 
L 391.902335 377.668602 
L 393.978372 374.783922 
L 396.054408 376.49238 
L 398.130444 372.075719 
L 400.206481 375.412866 
L 402.282517 369.744226 
L 404.358553 374.799886 
L 406.43459 368.423477 
L 408.510626 374.553048 
L 410.586662 367.878938 
L 412.662699 374.462838 
L 414.738735 367.671177 
L 416.814772 374.425453 
L 418.890808 367.58117 
L 420.966844 374.406945 
L 423.042881 367.535375 
L 425.118917 374.396654 
L 427.194953 367.509634 
L 429.27099 374.390621 
L 431.347026 367.494492 
L 433.423063 374.387005 
L 435.499099 367.485418 
L 437.575135 374.384824 
L 439.651172 367.479943 
L 441.727208 374.383507 
L 443.803244 367.476641 
L 445.879281 374.382706 
L 447.955317 367.474631 
L 450.031353 374.382226 
L 452.10739 367.473427 
L 454.183426 374.381933 
L 456.259463 367.472698 
L 458.335499 374.381756 
L 460.411535 367.472249 
L 462.487572 374.38164 
L 464.563608 367.471957 
L 466.639644 374.38158 
L 468.715681 367.471816 
L 470.791717 374.381539 
L 472.867753 367.471703 
L 474.94379 374.381514 
L 477.019826 367.471647 
L 479.095863 374.381503 
L 481.171899 367.471613 
L 483.247935 374.38149 
L 485.323972 367.471582 
L 487.400008 374.381481 
L 489.476044 367.471563 
L 491.552081 374.381481 
L 493.628117 367.471563 
L 495.704153 374.381481 
L 497.78019 367.471563 
L 499.856226 374.381481 
L 501.932263 367.471563 
L 504.008299 374.381481 
L 506.084335 367.471563 
L 508.160372 374.381481 
L 510.236408 367.471563 
L 512.312444 374.381481 
L 514.388481 367.471563 
L 516.464517 374.381481 
L 518.540553 367.471563 
L 520.61659 374.381481 
L 522.692626 367.471563 
L 524.768663 374.381481 
L 526.844699 367.471563 
L 528.920735 374.381481 
L 530.996772 367.471563 
L 533.072808 374.381481 
L 535.148844 367.471563 
L 537.224881 374.381481 
L 539.300917 367.471563 
L 541.376953 374.381481 
L 543.45299 367.471563 
L 545.529026 374.381481 
L 547.605063 367.471563 
L 549.681099 374.381481 
L 551.757135 367.471563 
L 553.833172 374.381481 
L 555.909208 367.471563 
L 557.985244 374.381481 
L 560.061281 367.471563 
L 562.137317 374.381481 
L 564.213353 367.471563 
L 566.28939 374.381481 
L 568.365426 367.471563 
L 570.441463 374.381481 
L 572.517499 367.471563 
L 574.593535 374.381481 
L 576.669572 367.471563 
L 578.745608 374.381481 
L 580.821644 367.471563 
L 582.897681 374.381481 
L 584.973717 367.471563 
L 587.049753 374.381481 
L 589.12579 367.471563 
L 591.201826 374.381481 
L 593.277863 367.471563 
L 595.353899 374.381481 
L 597.429935 367.471563 
L 599.505972 374.381481 
L 601.582008 367.471563 
L 603.658044 374.381481 
L 605.734081 367.471563 
L 607.810117 374.381481 
L 609.886153 367.471563 
L 611.96219 374.381481 
L 614.038226 367.471563 
L 616.114263 374.381481 
L 618.190299 367.471563 
L 620.266335 374.381481 
" clip-path="url(#p97f7fecc8c)" style="fill: none; stroke: #486afb; stroke-width: 2; stroke-linecap: square"/>
   </g>
   <g id="patch_12">
    <path d="M 347.786562 388.6 
L 347.786562 249.36 
" style="fill: none; stroke: #000000; stroke-width: 0.6; stroke-linejoin: miter; stroke-linecap: square"/>
   </g>
   <g id="patch_13">
    <path d="M 347.786562 388.6 
L 633.241563 388.6 
" style="fill: none; stroke: #000000; stroke-width: 0.6; stroke-linejoin: miter; stroke-linecap: square"/>
   </g>
   <g id="text_50">
    <!-- $\alpha=0.01$, $\beta=0$, $N=125$ -->
    <g transform="translate(413.054063 243.36) scale(0.12 -0.12)">
     <use xlink:href="#DejaVuSans-Oblique-3b1" transform="translate(0 0.390625)"/>
     <use xlink:href="#DejaVuSans-3d" transform="translate(85.400391 0.390625)"/>
     <use xlink:href="#DejaVuSans-30" transform="translate(188.671875 0.390625)"/>
     <use xlink:href="#DejaVuSans-2e" transform="translate(252.294922 0.390625)"/>
     <use xlink:href="#DejaVuSans-30" transform="translate(284.082031 0.390625)"/>
     <use xlink:href="#DejaVuSans-31" transform="translate(347.705078 0.390625)"/>
     <use xlink:href="#DejaVuSansMono-2c" transform="translate(411.328125 0.390625)"/>
     <use xlink:href="#DejaVuSansMono-20" transform="translate(471.533203 0.390625)"/>
     <use xlink:href="#DejaVuSans-Oblique-3b2" transform="translate(531.738281 0.390625)"/>
     <use xlink:href="#DejaVuSans-3d" transform="translate(615.039062 0.390625)"/>
     <use xlink:href="#DejaVuSans-30" transform="translate(718.310547 0.390625)"/>
     <use xlink:href="#DejaVuSansMono-2c" transform="translate(781.933594 0.390625)"/>
     <use xlink:href="#DejaVuSansMono-20" transform="translate(842.138672 0.390625)"/>
     <use xlink:href="#DejaVuSans-Oblique-4e" transform="translate(902.34375 0.390625)"/>
     <use xlink:href="#DejaVuSans-3d" transform="translate(996.630859 0.390625)"/>
     <use xlink:href="#DejaVuSans-31" transform="translate(1099.902344 0.390625)"/>
     <use xlink:href="#DejaVuSans-32" transform="translate(1163.525391 0.390625)"/>
     <use xlink:href="#DejaVuSans-35" transform="translate(1227.148438 0.390625)"/>
    </g>
   </g>
  </g>
  <g id="text_51">
   <!-- first runs of gradient descent -->
   <g transform="translate(211.675938 16.318125) scale(0.12 -0.12)">
    <defs>
     <path id="DejaVuSansMono-66" d="M 3322 4863 
L 3322 4384 
L 2669 4384 
Q 2359 4384 2239 4257 
Q 2119 4131 2119 3809 
L 2119 3500 
L 3322 3500 
L 3322 3053 
L 2119 3053 
L 2119 0 
L 1544 0 
L 1544 3053 
L 609 3053 
L 609 3500 
L 1544 3500 
L 1544 3744 
Q 1544 4319 1808 4591 
Q 2072 4863 2631 4863 
L 3322 4863 
z
" transform="scale(0.015625)"/>
     <path id="DejaVuSansMono-75" d="M 609 1325 
L 609 3494 
L 1184 3494 
L 1184 1325 
Q 1184 853 1351 631 
Q 1519 409 1869 409 
Q 2275 409 2490 695 
Q 2706 981 2706 1516 
L 2706 3494 
L 3284 3494 
L 3284 0 
L 2706 0 
L 2706 525 
Q 2553 222 2289 65 
Q 2025 -91 1672 -91 
Q 1134 -91 871 261 
Q 609 613 609 1325 
z
" transform="scale(0.015625)"/>
    </defs>
    <use xlink:href="#DejaVuSansMono-66"/>
    <use xlink:href="#DejaVuSansMono-69" x="60.205078"/>
    <use xlink:href="#DejaVuSansMono-72" x="120.410156"/>
    <use xlink:href="#DejaVuSansMono-73" x="180.615234"/>
    <use xlink:href="#DejaVuSansMono-74" x="240.820312"/>
    <use xlink:href="#DejaVuSansMono-20" x="301.025391"/>
    <use xlink:href="#DejaVuSansMono-72" x="361.230469"/>
    <use xlink:href="#DejaVuSansMono-75" x="421.435547"/>
    <use xlink:href="#DejaVuSansMono-6e" x="481.640625"/>
    <use xlink:href="#DejaVuSansMono-73" x="541.845703"/>
    <use xlink:href="#DejaVuSansMono-20" x="602.050781"/>
    <use xlink:href="#DejaVuSansMono-6f" x="662.255859"/>
    <use xlink:href="#DejaVuSansMono-66" x="722.460938"/>
    <use xlink:href="#DejaVuSansMono-20" x="782.666016"/>
    <use xlink:href="#DejaVuSansMono-67" x="842.871094"/>
    <use xlink:href="#DejaVuSansMono-72" x="903.076172"/>
    <use xlink:href="#DejaVuSansMono-61" x="963.28125"/>
    <use xlink:href="#DejaVuSansMono-64" x="1023.486328"/>
    <use xlink:href="#DejaVuSansMono-69" x="1083.691406"/>
    <use xlink:href="#DejaVuSansMono-65" x="1143.896484"/>
    <use xlink:href="#DejaVuSansMono-6e" x="1204.101562"/>
    <use xlink:href="#DejaVuSansMono-74" x="1264.306641"/>
    <use xlink:href="#DejaVuSansMono-20" x="1324.511719"/>
    <use xlink:href="#DejaVuSansMono-64" x="1384.716797"/>
    <use xlink:href="#DejaVuSansMono-65" x="1444.921875"/>
    <use xlink:href="#DejaVuSansMono-73" x="1505.126953"/>
    <use xlink:href="#DejaVuSansMono-63" x="1565.332031"/>
    <use xlink:href="#DejaVuSansMono-65" x="1625.537109"/>
    <use xlink:href="#DejaVuSansMono-6e" x="1685.742188"/>
    <use xlink:href="#DejaVuSansMono-74" x="1745.947266"/>
   </g>
  </g>
 </g>
 <defs>
  <clipPath id="p278e0d3d58">
   <rect x="33.951563" y="50.64" width="285.455" height="139.24"/>
  </clipPath>
  <clipPath id="pf444b24228">
   <rect x="347.786562" y="50.64" width="285.455" height="139.24"/>
  </clipPath>
  <clipPath id="pc64887bbe8">
   <rect x="33.951563" y="249.36" width="285.455" height="139.24"/>
  </clipPath>
  <clipPath id="p97f7fecc8c">
   <rect x="347.786562" y="249.36" width="285.455" height="139.24"/>
  </clipPath>
 </defs>
</svg>