<?xml version="1.0" encoding="utf-8" standalone="no"?>
<!DOCTYPE svg PUBLIC "-//W3C//DTD SVG 1.1//EN"
  "http://www.w3.org/Graphics/SVG/1.1/DTD/svg11.dtd">
<svg xmlns:xlink="http://www.w3.org/1999/xlink" width="400.506605pt" height="240.046125pt" viewBox="0 0 400.506605 240.046125" xmlns="http://www.w3.org/2000/svg" version="1.1">
 <metadata>
  <rdf:RDF xmlns:dc="http://purl.org/dc/elements/1.1/" xmlns:cc="http://creativecommons.org/ns#" xmlns:rdf="http://www.w3.org/1999/02/22-rdf-syntax-ns#">
   <cc:Work>
    <dc:type rdf:resource="http://purl.org/dc/dcmitype/StillImage"/>
    <dc:date>2025-05-31T09:24:02.643717</dc:date>
    <dc:format>image/svg+xml</dc:format>
    <dc:creator>
     <cc:Agent>
      <dc:title>Matplotlib v3.8.3, https://matplotlib.org/</dc:title>
     </cc:Agent>
    </dc:creator>
   </cc:Work>
  </rdf:RDF>
 </metadata>
 <defs>
  <style type="text/css">*{stroke-linejoin: round; stroke-linecap: butt}</style>
 </defs>
 <g id="figure_1">
  <g id="patch_1">
   <path d="M -0 240.046125 
L 400.506605 240.046125 
L 400.506605 0 
L -0 0 
z
" style="fill: #ffffff"/>
  </g>
  <g id="axes_1">
   <g id="patch_2">
    <path d="M 52.0125 202.368 
L 386.8125 202.368 
L 386.8125 36.048 
L 52.0125 36.048 
z
" style="fill: #ffffff"/>
   </g>
   <g id="matplotlib.axis_1">
    <g id="xtick_1">
     <g id="line2d_1">
      <path d="M 67.230682 202.368 
L 67.230682 36.048 
" clip-path="url(#pa74a7632df)" style="fill: none; stroke-dasharray: 2.22,0.96; stroke-dashoffset: 0; stroke: #6c6066; stroke-opacity: 0.4; stroke-width: 0.6"/>
     </g>
     <g id="line2d_2">
      <defs>
       <path id="md74c61f44b" d="M 0 0 
L 0 3.5 
" style="stroke: #000000; stroke-width: 0.8"/>
      </defs>
      <g>
       <use xlink:href="#md74c61f44b" x="67.230682" y="202.368" style="stroke: #000000; stroke-width: 0.8"/>
      </g>
     </g>
     <g id="text_1">
      <!-- 0 -->
      <g transform="translate(64.220526 217.019563) scale(0.1 -0.1)">
       <defs>
        <path id="DejaVuSansMono-30" d="M 1509 2344 
Q 1509 2516 1629 2641 
Q 1750 2766 1919 2766 
Q 2094 2766 2219 2641 
Q 2344 2516 2344 2344 
Q 2344 2169 2220 2047 
Q 2097 1925 1919 1925 
Q 1744 1925 1626 2044 
Q 1509 2163 1509 2344 
z
M 1925 4250 
Q 1484 4250 1267 3775 
Q 1050 3300 1050 2328 
Q 1050 1359 1267 884 
Q 1484 409 1925 409 
Q 2369 409 2586 884 
Q 2803 1359 2803 2328 
Q 2803 3300 2586 3775 
Q 2369 4250 1925 4250 
z
M 1925 4750 
Q 2672 4750 3055 4137 
Q 3438 3525 3438 2328 
Q 3438 1134 3055 521 
Q 2672 -91 1925 -91 
Q 1178 -91 797 521 
Q 416 1134 416 2328 
Q 416 3525 797 4137 
Q 1178 4750 1925 4750 
z
" transform="scale(0.015625)"/>
       </defs>
       <use xlink:href="#DejaVuSansMono-30"/>
      </g>
     </g>
    </g>
    <g id="xtick_2">
     <g id="line2d_3">
      <path d="M 130.639773 202.368 
L 130.639773 36.048 
" clip-path="url(#pa74a7632df)" style="fill: none; stroke-dasharray: 2.22,0.96; stroke-dashoffset: 0; stroke: #6c6066; stroke-opacity: 0.4; stroke-width: 0.6"/>
     </g>
     <g id="line2d_4">
      <g>
       <use xlink:href="#md74c61f44b" x="130.639773" y="202.368" style="stroke: #000000; stroke-width: 0.8"/>
      </g>
     </g>
     <g id="text_2">
      <!-- 50 -->
      <g transform="translate(124.61946 217.019563) scale(0.1 -0.1)">
       <defs>
        <path id="DejaVuSansMono-35" d="M 647 4666 
L 3009 4666 
L 3009 4134 
L 1222 4134 
L 1222 2988 
Q 1356 3038 1492 3061 
Q 1628 3084 1766 3084 
Q 2491 3084 2916 2656 
Q 3341 2228 3341 1497 
Q 3341 759 2895 334 
Q 2450 -91 1678 -91 
Q 1306 -91 998 -41 
Q 691 9 447 109 
L 447 750 
Q 734 594 1025 517 
Q 1316 441 1619 441 
Q 2141 441 2423 716 
Q 2706 991 2706 1497 
Q 2706 1997 2414 2275 
Q 2122 2553 1600 2553 
Q 1347 2553 1106 2495 
Q 866 2438 647 2322 
L 647 4666 
z
" transform="scale(0.015625)"/>
       </defs>
       <use xlink:href="#DejaVuSansMono-35"/>
       <use xlink:href="#DejaVuSansMono-30" x="60.205078"/>
      </g>
     </g>
    </g>
    <g id="xtick_3">
     <g id="line2d_5">
      <path d="M 194.048864 202.368 
L 194.048864 36.048 
" clip-path="url(#pa74a7632df)" style="fill: none; stroke-dasharray: 2.22,0.96; stroke-dashoffset: 0; stroke: #6c6066; stroke-opacity: 0.4; stroke-width: 0.6"/>
     </g>
     <g id="line2d_6">
      <g>
       <use xlink:href="#md74c61f44b" x="194.048864" y="202.368" style="stroke: #000000; stroke-width: 0.8"/>
      </g>
     </g>
     <g id="text_3">
      <!-- 100 -->
      <g transform="translate(185.018395 217.019563) scale(0.1 -0.1)">
       <defs>
        <path id="DejaVuSansMono-31" d="M 844 531 
L 1825 531 
L 1825 4097 
L 769 3859 
L 769 4434 
L 1819 4666 
L 2450 4666 
L 2450 531 
L 3419 531 
L 3419 0 
L 844 0 
L 844 531 
z
" transform="scale(0.015625)"/>
       </defs>
       <use xlink:href="#DejaVuSansMono-31"/>
       <use xlink:href="#DejaVuSansMono-30" x="60.205078"/>
       <use xlink:href="#DejaVuSansMono-30" x="120.410156"/>
      </g>
     </g>
    </g>
    <g id="xtick_4">
     <g id="line2d_7">
      <path d="M 257.457955 202.368 
L 257.457955 36.048 
" clip-path="url(#pa74a7632df)" style="fill: none; stroke-dasharray: 2.22,0.96; stroke-dashoffset: 0; stroke: #6c6066; stroke-opacity: 0.4; stroke-width: 0.6"/>
     </g>
     <g id="line2d_8">
      <g>
       <use xlink:href="#md74c61f44b" x="257.457955" y="202.368" style="stroke: #000000; stroke-width: 0.8"/>
      </g>
     </g>
     <g id="text_4">
      <!-- 150 -->
      <g transform="translate(248.427486 217.019563) scale(0.1 -0.1)">
       <use xlink:href="#DejaVuSansMono-31"/>
       <use xlink:href="#DejaVuSansMono-35" x="60.205078"/>
       <use xlink:href="#DejaVuSansMono-30" x="120.410156"/>
      </g>
     </g>
    </g>
    <g id="xtick_5">
     <g id="line2d_9">
      <path d="M 320.867045 202.368 
L 320.867045 36.048 
" clip-path="url(#pa74a7632df)" style="fill: none; stroke-dasharray: 2.22,0.96; stroke-dashoffset: 0; stroke: #6c6066; stroke-opacity: 0.4; stroke-width: 0.6"/>
     </g>
     <g id="line2d_10">
      <g>
       <use xlink:href="#md74c61f44b" x="320.867045" y="202.368" style="stroke: #000000; stroke-width: 0.8"/>
      </g>
     </g>
     <g id="text_5">
      <!-- 200 -->
      <g transform="translate(311.836577 217.019563) scale(0.1 -0.1)">
       <defs>
        <path id="DejaVuSansMono-32" d="M 1166 531 
L 3309 531 
L 3309 0 
L 475 0 
L 475 531 
Q 1059 1147 1496 1619 
Q 1934 2091 2100 2284 
Q 2413 2666 2522 2902 
Q 2631 3138 2631 3384 
Q 2631 3775 2401 3997 
Q 2172 4219 1772 4219 
Q 1488 4219 1175 4116 
Q 863 4013 513 3803 
L 513 4441 
Q 834 4594 1145 4672 
Q 1456 4750 1759 4750 
Q 2444 4750 2861 4386 
Q 3278 4022 3278 3431 
Q 3278 3131 3139 2831 
Q 3000 2531 2688 2169 
Q 2513 1966 2180 1606 
Q 1847 1247 1166 531 
z
" transform="scale(0.015625)"/>
       </defs>
       <use xlink:href="#DejaVuSansMono-32"/>
       <use xlink:href="#DejaVuSansMono-30" x="60.205078"/>
       <use xlink:href="#DejaVuSansMono-30" x="120.410156"/>
      </g>
     </g>
    </g>
    <g id="xtick_6">
     <g id="line2d_11">
      <path d="M 384.276136 202.368 
L 384.276136 36.048 
" clip-path="url(#pa74a7632df)" style="fill: none; stroke-dasharray: 2.22,0.96; stroke-dashoffset: 0; stroke: #6c6066; stroke-opacity: 0.4; stroke-width: 0.6"/>
     </g>
     <g id="line2d_12">
      <g>
       <use xlink:href="#md74c61f44b" x="384.276136" y="202.368" style="stroke: #000000; stroke-width: 0.8"/>
      </g>
     </g>
     <g id="text_6">
      <!-- 250 -->
      <g transform="translate(375.245668 217.019563) scale(0.1 -0.1)">
       <use xlink:href="#DejaVuSansMono-32"/>
       <use xlink:href="#DejaVuSansMono-35" x="60.205078"/>
       <use xlink:href="#DejaVuSansMono-30" x="120.410156"/>
      </g>
     </g>
    </g>
    <g id="text_7">
     <!-- gradient steps -->
     <g transform="translate(177.270313 230.697688) scale(0.1 -0.1)">
      <defs>
       <path id="DejaVuSansMono-67" d="M 2681 1778 
Q 2681 2425 2470 2761 
Q 2259 3097 1856 3097 
Q 1434 3097 1212 2761 
Q 991 2425 991 1778 
Q 991 1131 1214 792 
Q 1438 453 1863 453 
Q 2259 453 2470 793 
Q 2681 1134 2681 1778 
z
M 3256 225 
Q 3256 -563 2884 -969 
Q 2513 -1375 1791 -1375 
Q 1553 -1375 1293 -1331 
Q 1034 -1288 775 -1203 
L 775 -634 
Q 1081 -778 1331 -847 
Q 1581 -916 1791 -916 
Q 2256 -916 2468 -662 
Q 2681 -409 2681 141 
L 2681 166 
L 2681 556 
Q 2544 263 2306 119 
Q 2069 -25 1728 -25 
Q 1116 -25 750 465 
Q 384 956 384 1778 
Q 384 2603 750 3093 
Q 1116 3584 1728 3584 
Q 2066 3584 2300 3450 
Q 2534 3316 2681 3034 
L 2681 3488 
L 3256 3488 
L 3256 225 
z
" transform="scale(0.015625)"/>
       <path id="DejaVuSansMono-72" d="M 3609 2778 
Q 3425 2922 3234 2987 
Q 3044 3053 2816 3053 
Q 2278 3053 1993 2715 
Q 1709 2378 1709 1741 
L 1709 0 
L 1131 0 
L 1131 3500 
L 1709 3500 
L 1709 2816 
Q 1853 3188 2151 3386 
Q 2450 3584 2859 3584 
Q 3072 3584 3256 3531 
Q 3441 3478 3609 3366 
L 3609 2778 
z
" transform="scale(0.015625)"/>
       <path id="DejaVuSansMono-61" d="M 2194 1759 
L 2003 1759 
Q 1500 1759 1245 1582 
Q 991 1406 991 1056 
Q 991 741 1181 566 
Q 1372 391 1709 391 
Q 2184 391 2456 720 
Q 2728 1050 2731 1631 
L 2731 1759 
L 2194 1759 
z
M 3309 1997 
L 3309 0 
L 2731 0 
L 2731 519 
Q 2547 206 2267 57 
Q 1988 -91 1588 -91 
Q 1053 -91 734 211 
Q 416 513 416 1019 
Q 416 1603 808 1906 
Q 1200 2209 1959 2209 
L 2731 2209 
L 2731 2300 
Q 2728 2719 2518 2908 
Q 2309 3097 1850 3097 
Q 1556 3097 1256 3012 
Q 956 2928 672 2766 
L 672 3341 
Q 991 3463 1283 3523 
Q 1575 3584 1850 3584 
Q 2284 3584 2592 3456 
Q 2900 3328 3091 3072 
Q 3209 2916 3259 2686 
Q 3309 2456 3309 1997 
z
" transform="scale(0.015625)"/>
       <path id="DejaVuSansMono-64" d="M 2681 3053 
L 2681 4863 
L 3256 4863 
L 3256 0 
L 2681 0 
L 2681 441 
Q 2538 181 2298 45 
Q 2059 -91 1747 -91 
Q 1113 -91 748 401 
Q 384 894 384 1759 
Q 384 2613 750 3098 
Q 1116 3584 1747 3584 
Q 2063 3584 2303 3448 
Q 2544 3313 2681 3053 
z
M 991 1747 
Q 991 1078 1203 737 
Q 1416 397 1831 397 
Q 2247 397 2464 740 
Q 2681 1084 2681 1747 
Q 2681 2413 2464 2755 
Q 2247 3097 1831 3097 
Q 1416 3097 1203 2756 
Q 991 2416 991 1747 
z
" transform="scale(0.015625)"/>
       <path id="DejaVuSansMono-69" d="M 800 3500 
L 2272 3500 
L 2272 447 
L 3413 447 
L 3413 0 
L 556 0 
L 556 447 
L 1697 447 
L 1697 3053 
L 800 3053 
L 800 3500 
z
M 1697 4863 
L 2272 4863 
L 2272 4134 
L 1697 4134 
L 1697 4863 
z
" transform="scale(0.015625)"/>
       <path id="DejaVuSansMono-65" d="M 3475 1894 
L 3475 1613 
L 984 1613 
L 984 1594 
Q 984 1022 1282 709 
Q 1581 397 2125 397 
Q 2400 397 2700 484 
Q 3000 572 3341 750 
L 3341 178 
Q 3013 44 2708 -23 
Q 2403 -91 2119 -91 
Q 1303 -91 843 398 
Q 384 888 384 1747 
Q 384 2584 834 3084 
Q 1284 3584 2034 3584 
Q 2703 3584 3089 3131 
Q 3475 2678 3475 1894 
z
M 2900 2063 
Q 2888 2569 2661 2833 
Q 2434 3097 2009 3097 
Q 1594 3097 1325 2822 
Q 1056 2547 1006 2059 
L 2900 2063 
z
" transform="scale(0.015625)"/>
       <path id="DejaVuSansMono-6e" d="M 3284 2169 
L 3284 0 
L 2706 0 
L 2706 2169 
Q 2706 2641 2540 2862 
Q 2375 3084 2022 3084 
Q 1619 3084 1401 2798 
Q 1184 2513 1184 1978 
L 1184 0 
L 609 0 
L 609 3500 
L 1184 3500 
L 1184 2975 
Q 1338 3275 1600 3429 
Q 1863 3584 2222 3584 
Q 2756 3584 3020 3232 
Q 3284 2881 3284 2169 
z
" transform="scale(0.015625)"/>
       <path id="DejaVuSansMono-74" d="M 1919 4494 
L 1919 3500 
L 3225 3500 
L 3225 3053 
L 1919 3053 
L 1919 1153 
Q 1919 766 2066 612 
Q 2213 459 2578 459 
L 3225 459 
L 3225 0 
L 2522 0 
Q 1875 0 1609 259 
Q 1344 519 1344 1153 
L 1344 3053 
L 409 3053 
L 409 3500 
L 1344 3500 
L 1344 4494 
L 1919 4494 
z
" transform="scale(0.015625)"/>
       <path id="DejaVuSansMono-20" transform="scale(0.015625)"/>
       <path id="DejaVuSansMono-73" d="M 3041 3378 
L 3041 2816 
Q 2794 2959 2544 3031 
Q 2294 3103 2034 3103 
Q 1644 3103 1451 2976 
Q 1259 2850 1259 2591 
Q 1259 2356 1403 2240 
Q 1547 2125 2119 2016 
L 2350 1972 
Q 2778 1891 2998 1647 
Q 3219 1403 3219 1013 
Q 3219 494 2850 201 
Q 2481 -91 1825 -91 
Q 1566 -91 1281 -36 
Q 997 19 666 128 
L 666 722 
Q 988 556 1281 473 
Q 1575 391 1838 391 
Q 2219 391 2428 545 
Q 2638 700 2638 978 
Q 2638 1378 1872 1531 
L 1847 1538 
L 1631 1581 
Q 1134 1678 906 1908 
Q 678 2138 678 2534 
Q 678 3038 1018 3311 
Q 1359 3584 1991 3584 
Q 2272 3584 2531 3532 
Q 2791 3481 3041 3378 
z
" transform="scale(0.015625)"/>
       <path id="DejaVuSansMono-70" d="M 1172 441 
L 1172 -1331 
L 594 -1331 
L 594 3500 
L 1172 3500 
L 1172 3053 
Q 1316 3313 1555 3448 
Q 1794 3584 2106 3584 
Q 2741 3584 3102 3093 
Q 3463 2603 3463 1734 
Q 3463 881 3100 395 
Q 2738 -91 2106 -91 
Q 1788 -91 1548 45 
Q 1309 181 1172 441 
z
M 2859 1747 
Q 2859 2416 2648 2756 
Q 2438 3097 2022 3097 
Q 1603 3097 1387 2755 
Q 1172 2413 1172 1747 
Q 1172 1084 1387 740 
Q 1603 397 2022 397 
Q 2438 397 2648 737 
Q 2859 1078 2859 1747 
z
" transform="scale(0.015625)"/>
      </defs>
      <use xlink:href="#DejaVuSansMono-67"/>
      <use xlink:href="#DejaVuSansMono-72" x="60.205078"/>
      <use xlink:href="#DejaVuSansMono-61" x="120.410156"/>
      <use xlink:href="#DejaVuSansMono-64" x="180.615234"/>
      <use xlink:href="#DejaVuSansMono-69" x="240.820312"/>
      <use xlink:href="#DejaVuSansMono-65" x="301.025391"/>
      <use xlink:href="#DejaVuSansMono-6e" x="361.230469"/>
      <use xlink:href="#DejaVuSansMono-74" x="421.435547"/>
      <use xlink:href="#DejaVuSansMono-20" x="481.640625"/>
      <use xlink:href="#DejaVuSansMono-73" x="541.845703"/>
      <use xlink:href="#DejaVuSansMono-74" x="602.050781"/>
      <use xlink:href="#DejaVuSansMono-65" x="662.255859"/>
      <use xlink:href="#DejaVuSansMono-70" x="722.460938"/>
      <use xlink:href="#DejaVuSansMono-73" x="782.666016"/>
     </g>
    </g>
   </g>
   <g id="matplotlib.axis_2">
    <g id="ytick_1">
     <g id="line2d_13">
      <path d="M 52.0125 194.842199 
L 386.8125 194.842199 
" clip-path="url(#pa74a7632df)" style="fill: none; stroke-dasharray: 2.22,0.96; stroke-dashoffset: 0; stroke: #6c6066; stroke-opacity: 0.4; stroke-width: 0.6"/>
     </g>
     <g id="line2d_14">
      <defs>
       <path id="m8c52bdb5ea" d="M 0 0 
L -3.5 0 
" style="stroke: #000000; stroke-width: 0.8"/>
      </defs>
      <g>
       <use xlink:href="#m8c52bdb5ea" x="52.0125" y="194.842199" style="stroke: #000000; stroke-width: 0.8"/>
      </g>
     </g>
     <g id="text_8">
      <!-- 0.35 -->
      <g transform="translate(20.93125 198.66798) scale(0.1 -0.1)">
       <defs>
        <path id="DejaVuSansMono-2e" d="M 1528 953 
L 2316 953 
L 2316 0 
L 1528 0 
L 1528 953 
z
" transform="scale(0.015625)"/>
        <path id="DejaVuSansMono-33" d="M 2425 2497 
Q 2884 2375 3128 2064 
Q 3372 1753 3372 1288 
Q 3372 644 2939 276 
Q 2506 -91 1741 -91 
Q 1419 -91 1084 -31 
Q 750 28 428 141 
L 428 769 
Q 747 603 1056 522 
Q 1366 441 1672 441 
Q 2191 441 2469 675 
Q 2747 909 2747 1350 
Q 2747 1756 2469 1995 
Q 2191 2234 1716 2234 
L 1234 2234 
L 1234 2753 
L 1716 2753 
Q 2150 2753 2394 2943 
Q 2638 3134 2638 3475 
Q 2638 3834 2411 4026 
Q 2184 4219 1766 4219 
Q 1488 4219 1191 4156 
Q 894 4094 569 3969 
L 569 4550 
Q 947 4650 1242 4700 
Q 1538 4750 1766 4750 
Q 2447 4750 2855 4408 
Q 3263 4066 3263 3500 
Q 3263 3116 3048 2859 
Q 2834 2603 2425 2497 
z
" transform="scale(0.015625)"/>
       </defs>
       <use xlink:href="#DejaVuSansMono-30"/>
       <use xlink:href="#DejaVuSansMono-2e" x="60.205078"/>
       <use xlink:href="#DejaVuSansMono-33" x="120.410156"/>
       <use xlink:href="#DejaVuSansMono-35" x="180.615234"/>
      </g>
     </g>
    </g>
    <g id="ytick_2">
     <g id="line2d_15">
      <path d="M 52.0125 172.592916 
L 386.8125 172.592916 
" clip-path="url(#pa74a7632df)" style="fill: none; stroke-dasharray: 2.22,0.96; stroke-dashoffset: 0; stroke: #6c6066; stroke-opacity: 0.4; stroke-width: 0.6"/>
     </g>
     <g id="line2d_16">
      <g>
       <use xlink:href="#m8c52bdb5ea" x="52.0125" y="172.592916" style="stroke: #000000; stroke-width: 0.8"/>
      </g>
     </g>
     <g id="text_9">
      <!-- 0.40 -->
      <g transform="translate(20.93125 176.418697) scale(0.1 -0.1)">
       <defs>
        <path id="DejaVuSansMono-34" d="M 2297 4091 
L 825 1625 
L 2297 1625 
L 2297 4091 
z
M 2194 4666 
L 2925 4666 
L 2925 1625 
L 3547 1625 
L 3547 1113 
L 2925 1113 
L 2925 0 
L 2297 0 
L 2297 1113 
L 319 1113 
L 319 1709 
L 2194 4666 
z
" transform="scale(0.015625)"/>
       </defs>
       <use xlink:href="#DejaVuSansMono-30"/>
       <use xlink:href="#DejaVuSansMono-2e" x="60.205078"/>
       <use xlink:href="#DejaVuSansMono-34" x="120.410156"/>
       <use xlink:href="#DejaVuSansMono-30" x="180.615234"/>
      </g>
     </g>
    </g>
    <g id="ytick_3">
     <g id="line2d_17">
      <path d="M 52.0125 150.343633 
L 386.8125 150.343633 
" clip-path="url(#pa74a7632df)" style="fill: none; stroke-dasharray: 2.22,0.96; stroke-dashoffset: 0; stroke: #6c6066; stroke-opacity: 0.4; stroke-width: 0.6"/>
     </g>
     <g id="line2d_18">
      <g>
       <use xlink:href="#m8c52bdb5ea" x="52.0125" y="150.343633" style="stroke: #000000; stroke-width: 0.8"/>
      </g>
     </g>
     <g id="text_10">
      <!-- 0.45 -->
      <g transform="translate(20.93125 154.169414) scale(0.1 -0.1)">
       <use xlink:href="#DejaVuSansMono-30"/>
       <use xlink:href="#DejaVuSansMono-2e" x="60.205078"/>
       <use xlink:href="#DejaVuSansMono-34" x="120.410156"/>
       <use xlink:href="#DejaVuSansMono-35" x="180.615234"/>
      </g>
     </g>
    </g>
    <g id="ytick_4">
     <g id="line2d_19">
      <path d="M 52.0125 128.09435 
L 386.8125 128.09435 
" clip-path="url(#pa74a7632df)" style="fill: none; stroke-dasharray: 2.22,0.96; stroke-dashoffset: 0; stroke: #6c6066; stroke-opacity: 0.4; stroke-width: 0.6"/>
     </g>
     <g id="line2d_20">
      <g>
       <use xlink:href="#m8c52bdb5ea" x="52.0125" y="128.09435" style="stroke: #000000; stroke-width: 0.8"/>
      </g>
     </g>
     <g id="text_11">
      <!-- 0.50 -->
      <g transform="translate(20.93125 131.920131) scale(0.1 -0.1)">
       <use xlink:href="#DejaVuSansMono-30"/>
       <use xlink:href="#DejaVuSansMono-2e" x="60.205078"/>
       <use xlink:href="#DejaVuSansMono-35" x="120.410156"/>
       <use xlink:href="#DejaVuSansMono-30" x="180.615234"/>
      </g>
     </g>
    </g>
    <g id="ytick_5">
     <g id="line2d_21">
      <path d="M 52.0125 105.845067 
L 386.8125 105.845067 
" clip-path="url(#pa74a7632df)" style="fill: none; stroke-dasharray: 2.22,0.96; stroke-dashoffset: 0; stroke: #6c6066; stroke-opacity: 0.4; stroke-width: 0.6"/>
     </g>
     <g id="line2d_22">
      <g>
       <use xlink:href="#m8c52bdb5ea" x="52.0125" y="105.845067" style="stroke: #000000; stroke-width: 0.8"/>
      </g>
     </g>
     <g id="text_12">
      <!-- 0.55 -->
      <g transform="translate(20.93125 109.670849) scale(0.1 -0.1)">
       <use xlink:href="#DejaVuSansMono-30"/>
       <use xlink:href="#DejaVuSansMono-2e" x="60.205078"/>
       <use xlink:href="#DejaVuSansMono-35" x="120.410156"/>
       <use xlink:href="#DejaVuSansMono-35" x="180.615234"/>
      </g>
     </g>
    </g>
    <g id="ytick_6">
     <g id="line2d_23">
      <path d="M 52.0125 83.595784 
L 386.8125 83.595784 
" clip-path="url(#pa74a7632df)" style="fill: none; stroke-dasharray: 2.22,0.96; stroke-dashoffset: 0; stroke: #6c6066; stroke-opacity: 0.4; stroke-width: 0.6"/>
     </g>
     <g id="line2d_24">
      <g>
       <use xlink:href="#m8c52bdb5ea" x="52.0125" y="83.595784" style="stroke: #000000; stroke-width: 0.8"/>
      </g>
     </g>
     <g id="text_13">
      <!-- 0.60 -->
      <g transform="translate(20.93125 87.421566) scale(0.1 -0.1)">
       <defs>
        <path id="DejaVuSansMono-36" d="M 3097 4563 
L 3097 3981 
Q 2900 4097 2678 4158 
Q 2456 4219 2216 4219 
Q 1616 4219 1306 3767 
Q 997 3316 997 2438 
Q 1147 2750 1412 2917 
Q 1678 3084 2022 3084 
Q 2697 3084 3067 2670 
Q 3438 2256 3438 1497 
Q 3438 741 3056 325 
Q 2675 -91 1984 -91 
Q 1172 -91 794 492 
Q 416 1075 416 2328 
Q 416 3509 870 4129 
Q 1325 4750 2188 4750 
Q 2419 4750 2650 4701 
Q 2881 4653 3097 4563 
z
M 1972 2591 
Q 1569 2591 1337 2300 
Q 1106 2009 1106 1497 
Q 1106 984 1337 693 
Q 1569 403 1972 403 
Q 2391 403 2603 679 
Q 2816 956 2816 1497 
Q 2816 2041 2603 2316 
Q 2391 2591 1972 2591 
z
" transform="scale(0.015625)"/>
       </defs>
       <use xlink:href="#DejaVuSansMono-30"/>
       <use xlink:href="#DejaVuSansMono-2e" x="60.205078"/>
       <use xlink:href="#DejaVuSansMono-36" x="120.410156"/>
       <use xlink:href="#DejaVuSansMono-30" x="180.615234"/>
      </g>
     </g>
    </g>
    <g id="ytick_7">
     <g id="line2d_25">
      <path d="M 52.0125 61.346501 
L 386.8125 61.346501 
" clip-path="url(#pa74a7632df)" style="fill: none; stroke-dasharray: 2.22,0.96; stroke-dashoffset: 0; stroke: #6c6066; stroke-opacity: 0.4; stroke-width: 0.6"/>
     </g>
     <g id="line2d_26">
      <g>
       <use xlink:href="#m8c52bdb5ea" x="52.0125" y="61.346501" style="stroke: #000000; stroke-width: 0.8"/>
      </g>
     </g>
     <g id="text_14">
      <!-- 0.65 -->
      <g transform="translate(20.93125 65.172283) scale(0.1 -0.1)">
       <use xlink:href="#DejaVuSansMono-30"/>
       <use xlink:href="#DejaVuSansMono-2e" x="60.205078"/>
       <use xlink:href="#DejaVuSansMono-36" x="120.410156"/>
       <use xlink:href="#DejaVuSansMono-35" x="180.615234"/>
      </g>
     </g>
    </g>
    <g id="ytick_8">
     <g id="line2d_27">
      <path d="M 52.0125 39.097219 
L 386.8125 39.097219 
" clip-path="url(#pa74a7632df)" style="fill: none; stroke-dasharray: 2.22,0.96; stroke-dashoffset: 0; stroke: #6c6066; stroke-opacity: 0.4; stroke-width: 0.6"/>
     </g>
     <g id="line2d_28">
      <g>
       <use xlink:href="#m8c52bdb5ea" x="52.0125" y="39.097219" style="stroke: #000000; stroke-width: 0.8"/>
      </g>
     </g>
     <g id="text_15">
      <!-- 0.70 -->
      <g transform="translate(20.93125 42.923) scale(0.1 -0.1)">
       <defs>
        <path id="DejaVuSansMono-37" d="M 434 4666 
L 3372 4666 
L 3372 4397 
L 1703 0 
L 1044 0 
L 2669 4134 
L 434 4134 
L 434 4666 
z
" transform="scale(0.015625)"/>
       </defs>
       <use xlink:href="#DejaVuSansMono-30"/>
       <use xlink:href="#DejaVuSansMono-2e" x="60.205078"/>
       <use xlink:href="#DejaVuSansMono-37" x="120.410156"/>
       <use xlink:href="#DejaVuSansMono-30" x="180.615234"/>
      </g>
     </g>
    </g>
    <g id="text_16">
     <!-- cross entropy -->
     <g transform="translate(14.851562 158.340031) rotate(-90) scale(0.1 -0.1)">
      <defs>
       <path id="DejaVuSansMono-63" d="M 3316 178 
Q 3084 44 2839 -23 
Q 2594 -91 2338 -91 
Q 1525 -91 1067 396 
Q 609 884 609 1747 
Q 609 2609 1067 3096 
Q 1525 3584 2338 3584 
Q 2591 3584 2831 3518 
Q 3072 3453 3316 3316 
L 3316 2713 
Q 3088 2916 2858 3006 
Q 2628 3097 2338 3097 
Q 1797 3097 1506 2747 
Q 1216 2397 1216 1747 
Q 1216 1100 1508 748 
Q 1800 397 2338 397 
Q 2638 397 2875 489 
Q 3113 581 3316 775 
L 3316 178 
z
" transform="scale(0.015625)"/>
       <path id="DejaVuSansMono-6f" d="M 1925 3097 
Q 1488 3097 1263 2756 
Q 1038 2416 1038 1747 
Q 1038 1081 1263 739 
Q 1488 397 1925 397 
Q 2366 397 2591 739 
Q 2816 1081 2816 1747 
Q 2816 2416 2591 2756 
Q 2366 3097 1925 3097 
z
M 1925 3584 
Q 2653 3584 3039 3112 
Q 3425 2641 3425 1747 
Q 3425 850 3040 379 
Q 2656 -91 1925 -91 
Q 1197 -91 812 379 
Q 428 850 428 1747 
Q 428 2641 812 3112 
Q 1197 3584 1925 3584 
z
" transform="scale(0.015625)"/>
       <path id="DejaVuSansMono-79" d="M 2681 1125 
Q 2538 759 2316 163 
Q 2006 -663 1900 -844 
Q 1756 -1088 1540 -1209 
Q 1325 -1331 1038 -1331 
L 575 -1331 
L 575 -850 
L 916 -850 
Q 1169 -850 1312 -703 
Q 1456 -556 1678 56 
L 325 3500 
L 934 3500 
L 1972 763 
L 2994 3500 
L 3603 3500 
L 2681 1125 
z
" transform="scale(0.015625)"/>
      </defs>
      <use xlink:href="#DejaVuSansMono-63"/>
      <use xlink:href="#DejaVuSansMono-72" x="60.205078"/>
      <use xlink:href="#DejaVuSansMono-6f" x="120.410156"/>
      <use xlink:href="#DejaVuSansMono-73" x="180.615234"/>
      <use xlink:href="#DejaVuSansMono-73" x="240.820312"/>
      <use xlink:href="#DejaVuSansMono-20" x="301.025391"/>
      <use xlink:href="#DejaVuSansMono-65" x="361.230469"/>
      <use xlink:href="#DejaVuSansMono-6e" x="421.435547"/>
      <use xlink:href="#DejaVuSansMono-74" x="481.640625"/>
      <use xlink:href="#DejaVuSansMono-72" x="541.845703"/>
      <use xlink:href="#DejaVuSansMono-6f" x="602.050781"/>
      <use xlink:href="#DejaVuSansMono-70" x="662.255859"/>
      <use xlink:href="#DejaVuSansMono-79" x="722.460938"/>
     </g>
    </g>
   </g>
   <g id="line2d_29">
    <path d="M 67.230682 43.608 
L 68.498864 45.859052 
L 69.767045 48.512911 
L 71.035227 55.832416 
L 72.303409 55.236121 
L 73.571591 59.810818 
L 74.839773 59.912269 
L 76.107955 61.104647 
L 78.644318 59.857366 
L 79.9125 69.021667 
L 81.180682 74.107307 
L 82.448864 67.484726 
L 83.717045 75.033285 
L 84.985227 80.958995 
L 86.253409 74.486324 
L 87.521591 76.654119 
L 88.789773 77.327384 
L 90.057955 74.666151 
L 92.594318 89.944211 
L 93.8625 80.627084 
L 95.130682 92.091954 
L 96.398864 81.92635 
L 97.667045 97.69546 
L 98.935227 79.958089 
L 100.203409 97.415932 
L 101.471591 102.229338 
L 102.739773 80.693949 
L 105.276136 99.553385 
L 106.544318 99.373929 
L 107.8125 105.944948 
L 109.080682 97.492584 
L 110.348864 93.294092 
L 111.617045 106.665372 
L 112.885227 95.561562 
L 114.153409 113.060092 
L 115.421591 105.502594 
L 116.689773 99.240756 
L 117.957955 109.790072 
L 119.226136 91.187274 
L 120.494318 105.670858 
L 121.7625 106.194532 
L 123.030682 110.25192 
L 124.298864 104.361327 
L 125.567045 135.155041 
L 126.835227 106.973916 
L 128.103409 116.708625 
L 129.371591 121.924335 
L 130.639773 107.642116 
L 131.907955 113.636494 
L 133.176136 110.981839 
L 134.444318 118.2109 
L 135.7125 120.829908 
L 136.980682 112.700437 
L 138.248864 118.78457 
L 139.517045 135.01911 
L 140.785227 113.541886 
L 142.053409 109.12174 
L 143.321591 116.631071 
L 144.589773 111.022234 
L 145.857955 112.240922 
L 147.126136 130.197004 
L 148.394318 138.577809 
L 149.6625 124.019987 
L 150.930682 127.556725 
L 152.198864 122.053238 
L 153.467045 121.107738 
L 154.735227 136.346066 
L 156.003409 117.200259 
L 157.271591 130.525335 
L 158.539773 124.991134 
L 159.807955 145.643182 
L 161.076136 117.403957 
L 162.344318 136.974056 
L 163.6125 135.956268 
L 164.880682 119.216315 
L 166.148864 131.539079 
L 167.417045 132.228152 
L 168.685227 117.720353 
L 169.953409 145.947562 
L 171.221591 132.214572 
L 172.489773 148.563175 
L 173.757955 141.659196 
L 175.026136 127.427636 
L 176.294318 124.967767 
L 177.5625 120.916559 
L 178.830682 124.428365 
L 180.098864 151.551413 
L 181.367045 156.040148 
L 182.635227 129.964131 
L 183.903409 130.844051 
L 185.171591 134.775083 
L 186.439773 122.961578 
L 187.707955 140.803332 
L 188.976136 126.133357 
L 190.244318 149.95567 
L 191.5125 122.908452 
L 192.780682 144.813151 
L 194.048864 128.291789 
L 195.317045 139.937959 
L 196.585227 139.341598 
L 197.853409 148.480277 
L 199.121591 143.241385 
L 200.389773 128.305528 
L 201.657955 136.755134 
L 202.926136 146.171047 
L 204.194318 143.807775 
L 205.4625 150.550785 
L 207.998864 131.078609 
L 209.267045 161.406099 
L 210.535227 149.290455 
L 211.803409 159.656084 
L 213.071591 138.721313 
L 214.339773 141.651213 
L 215.607955 141.139832 
L 216.876136 143.132189 
L 218.144318 129.539799 
L 219.4125 155.651013 
L 220.680682 160.591465 
L 221.948864 154.332875 
L 223.217045 152.331845 
L 224.485227 141.853903 
L 225.753409 127.054879 
L 227.021591 143.804672 
L 228.289773 148.22584 
L 229.557955 148.308075 
L 232.094318 143.679045 
L 233.3625 136.754338 
L 234.630682 150.307129 
L 235.898864 155.809913 
L 237.167045 154.323486 
L 238.435227 156.227362 
L 239.703409 149.934107 
L 240.971591 151.449683 
L 242.239773 154.893139 
L 243.507955 163.47109 
L 244.776136 144.575092 
L 246.044318 163.793095 
L 247.3125 138.513106 
L 248.580682 144.088179 
L 249.848864 147.493653 
L 251.117045 148.51904 
L 252.385227 157.690754 
L 253.653409 133.919935 
L 254.921591 153.207482 
L 256.189773 155.14682 
L 257.457955 168.081408 
L 258.726136 171.584713 
L 259.994318 133.757746 
L 261.2625 160.806117 
L 262.530682 150.611934 
L 263.798864 155.151143 
L 265.067045 152.486581 
L 267.603409 141.612396 
L 268.871591 156.981523 
L 270.139773 169.76839 
L 271.407955 146.409848 
L 272.676136 159.727365 
L 273.944318 162.225918 
L 275.2125 159.793567 
L 276.480682 143.524362 
L 277.748864 148.801579 
L 279.017045 168.162489 
L 280.285227 158.020358 
L 281.553409 170.103829 
L 282.821591 164.029536 
L 284.089773 145.249882 
L 285.357955 167.06281 
L 286.626136 148.995066 
L 287.894318 161.050635 
L 289.1625 152.272751 
L 290.430682 148.691057 
L 291.698864 159.098818 
L 292.967045 137.722356 
L 294.235227 175.919574 
L 295.503409 173.000787 
L 296.771591 145.658459 
L 298.039773 171.480901 
L 299.307955 152.120946 
L 300.576136 152.529615 
L 301.844318 175.262316 
L 304.380682 126.803386 
L 306.917045 174.411332 
L 308.185227 164.959308 
L 309.453409 173.882419 
L 310.721591 161.183543 
L 311.989773 158.663957 
L 313.257955 167.542523 
L 314.526136 156.676095 
L 315.794318 155.284674 
L 317.0625 171.75417 
L 318.330682 159.661084 
L 319.598864 173.227203 
L 320.867045 142.803487 
L 322.135227 150.053448 
L 323.403409 164.534936 
L 324.671591 170.78033 
L 325.939773 152.433508 
L 327.207955 155.922531 
L 328.476136 187.932852 
L 329.744318 157.118502 
L 331.0125 154.325449 
L 332.280682 167.950768 
L 333.548864 151.282321 
L 334.817045 179.520896 
L 336.085227 149.585499 
L 337.353409 175.973549 
L 338.621591 175.847298 
L 339.889773 138.265259 
L 342.426136 184.08928 
L 343.694318 164.271534 
L 344.9625 135.555025 
L 346.230682 162.342448 
L 347.498864 153.735599 
L 348.767045 166.925195 
L 350.035227 182.619908 
L 351.303409 158.182388 
L 352.571591 161.052279 
L 353.839773 151.462825 
L 355.107955 176.082705 
L 356.376136 162.921635 
L 357.644318 169.496832 
L 358.9125 157.09857 
L 360.180682 141.754017 
L 361.448864 194.808 
L 362.717045 163.244025 
L 363.985227 165.36132 
L 365.253409 168.159187 
L 366.521591 145.240798 
L 367.789773 162.117478 
L 369.057955 162.614284 
L 370.326136 176.172911 
L 371.594318 177.827322 
L 371.594318 177.827322 
" clip-path="url(#pa74a7632df)" style="fill: none; stroke: #486afb; stroke-opacity: 0.25; stroke-width: 2; stroke-linecap: square"/>
   </g>
   <g id="line2d_30">
    <path d="M 67.230682 43.608 
L 77.376136 55.850054 
L 87.521591 72.200474 
L 97.667045 84.573791 
L 107.8125 94.375152 
L 117.957955 102.575917 
L 128.103409 109.562927 
L 138.248864 115.588841 
L 148.394318 120.793969 
L 158.539773 125.47505 
L 168.685227 129.585167 
L 178.830682 133.265607 
L 188.976136 136.634135 
L 199.121591 139.621285 
L 209.267045 142.383187 
L 219.4125 144.847724 
L 229.557955 147.062943 
L 239.703409 149.124088 
L 249.848864 151.034621 
L 259.994318 152.738472 
L 270.139773 154.313951 
L 280.285227 155.833174 
L 290.430682 157.181933 
L 300.576136 158.44144 
L 310.721591 159.582164 
L 320.867045 160.701656 
L 331.0125 161.6377 
L 341.157955 162.561569 
L 351.303409 163.465175 
L 361.448864 164.334606 
L 371.594318 165.092162 
" clip-path="url(#pa74a7632df)" style="fill: none; stroke: #fd46fc; stroke-width: 2; stroke-linecap: square"/>
    <defs>
     <path id="m276b32af18" d="M 0 2 
C 0.530406 2 1.03916 1.789267 1.414214 1.414214 
C 1.789267 1.03916 2 0.530406 2 0 
C 2 -0.530406 1.789267 -1.03916 1.414214 -1.414214 
C 1.03916 -1.789267 0.530406 -2 0 -2 
C -0.530406 -2 -1.03916 -1.789267 -1.414214 -1.414214 
C -1.789267 -1.03916 -2 -0.530406 -2 0 
C -2 0.530406 -1.789267 1.03916 -1.414214 1.414214 
C -1.03916 1.789267 -0.530406 2 0 2 
z
" style="stroke: #fd46fc"/>
    </defs>
    <g clip-path="url(#pa74a7632df)">
     <use xlink:href="#m276b32af18" x="67.230682" y="43.608" style="fill: #fd46fc; stroke: #fd46fc"/>
     <use xlink:href="#m276b32af18" x="77.376136" y="55.850054" style="fill: #fd46fc; stroke: #fd46fc"/>
     <use xlink:href="#m276b32af18" x="87.521591" y="72.200474" style="fill: #fd46fc; stroke: #fd46fc"/>
     <use xlink:href="#m276b32af18" x="97.667045" y="84.573791" style="fill: #fd46fc; stroke: #fd46fc"/>
     <use xlink:href="#m276b32af18" x="107.8125" y="94.375152" style="fill: #fd46fc; stroke: #fd46fc"/>
     <use xlink:href="#m276b32af18" x="117.957955" y="102.575917" style="fill: #fd46fc; stroke: #fd46fc"/>
     <use xlink:href="#m276b32af18" x="128.103409" y="109.562927" style="fill: #fd46fc; stroke: #fd46fc"/>
     <use xlink:href="#m276b32af18" x="138.248864" y="115.588841" style="fill: #fd46fc; stroke: #fd46fc"/>
     <use xlink:href="#m276b32af18" x="148.394318" y="120.793969" style="fill: #fd46fc; stroke: #fd46fc"/>
     <use xlink:href="#m276b32af18" x="158.539773" y="125.47505" style="fill: #fd46fc; stroke: #fd46fc"/>
     <use xlink:href="#m276b32af18" x="168.685227" y="129.585167" style="fill: #fd46fc; stroke: #fd46fc"/>
     <use xlink:href="#m276b32af18" x="178.830682" y="133.265607" style="fill: #fd46fc; stroke: #fd46fc"/>
     <use xlink:href="#m276b32af18" x="188.976136" y="136.634135" style="fill: #fd46fc; stroke: #fd46fc"/>
     <use xlink:href="#m276b32af18" x="199.121591" y="139.621285" style="fill: #fd46fc; stroke: #fd46fc"/>
     <use xlink:href="#m276b32af18" x="209.267045" y="142.383187" style="fill: #fd46fc; stroke: #fd46fc"/>
     <use xlink:href="#m276b32af18" x="219.4125" y="144.847724" style="fill: #fd46fc; stroke: #fd46fc"/>
     <use xlink:href="#m276b32af18" x="229.557955" y="147.062943" style="fill: #fd46fc; stroke: #fd46fc"/>
     <use xlink:href="#m276b32af18" x="239.703409" y="149.124088" style="fill: #fd46fc; stroke: #fd46fc"/>
     <use xlink:href="#m276b32af18" x="249.848864" y="151.034621" style="fill: #fd46fc; stroke: #fd46fc"/>
     <use xlink:href="#m276b32af18" x="259.994318" y="152.738472" style="fill: #fd46fc; stroke: #fd46fc"/>
     <use xlink:href="#m276b32af18" x="270.139773" y="154.313951" style="fill: #fd46fc; stroke: #fd46fc"/>
     <use xlink:href="#m276b32af18" x="280.285227" y="155.833174" style="fill: #fd46fc; stroke: #fd46fc"/>
     <use xlink:href="#m276b32af18" x="290.430682" y="157.181933" style="fill: #fd46fc; stroke: #fd46fc"/>
     <use xlink:href="#m276b32af18" x="300.576136" y="158.44144" style="fill: #fd46fc; stroke: #fd46fc"/>
     <use xlink:href="#m276b32af18" x="310.721591" y="159.582164" style="fill: #fd46fc; stroke: #fd46fc"/>
     <use xlink:href="#m276b32af18" x="320.867045" y="160.701656" style="fill: #fd46fc; stroke: #fd46fc"/>
     <use xlink:href="#m276b32af18" x="331.0125" y="161.6377" style="fill: #fd46fc; stroke: #fd46fc"/>
     <use xlink:href="#m276b32af18" x="341.157955" y="162.561569" style="fill: #fd46fc; stroke: #fd46fc"/>
     <use xlink:href="#m276b32af18" x="351.303409" y="163.465175" style="fill: #fd46fc; stroke: #fd46fc"/>
     <use xlink:href="#m276b32af18" x="361.448864" y="164.334606" style="fill: #fd46fc; stroke: #fd46fc"/>
     <use xlink:href="#m276b32af18" x="371.594318" y="165.092162" style="fill: #fd46fc; stroke: #fd46fc"/>
    </g>
   </g>
   <g id="patch_3">
    <path d="M 52.0125 202.368 
L 52.0125 36.048 
" style="fill: none; stroke: #000000; stroke-width: 0.6; stroke-linejoin: miter; stroke-linecap: square"/>
   </g>
   <g id="patch_4">
    <path d="M 52.0125 202.368 
L 386.8125 202.368 
" style="fill: none; stroke: #000000; stroke-width: 0.6; stroke-linejoin: miter; stroke-linecap: square"/>
   </g>
   <g id="text_17">
    <!-- SGD for logistic regression model -->
    <g transform="translate(100.210313 16.381875) scale(0.12 -0.12)">
     <defs>
      <path id="DejaVuSansMono-53" d="M 3163 4506 
L 3163 3866 
Q 2875 4050 2586 4144 
Q 2297 4238 2003 4238 
Q 1556 4238 1297 4030 
Q 1038 3822 1038 3469 
Q 1038 3159 1208 2996 
Q 1378 2834 1844 2725 
L 2175 2650 
Q 2831 2497 3131 2169 
Q 3431 1841 3431 1275 
Q 3431 609 3018 259 
Q 2606 -91 1819 -91 
Q 1491 -91 1159 -20 
Q 828 50 494 191 
L 494 863 
Q 853 634 1173 528 
Q 1494 422 1819 422 
Q 2297 422 2562 636 
Q 2828 850 2828 1234 
Q 2828 1584 2645 1768 
Q 2463 1953 2009 2053 
L 1672 2131 
Q 1022 2278 728 2575 
Q 434 2872 434 3372 
Q 434 3997 854 4373 
Q 1275 4750 1972 4750 
Q 2241 4750 2537 4689 
Q 2834 4628 3163 4506 
z
" transform="scale(0.015625)"/>
      <path id="DejaVuSansMono-47" d="M 3450 384 
Q 3197 150 2880 29 
Q 2563 -91 2194 -91 
Q 1306 -91 812 545 
Q 319 1181 319 2328 
Q 319 3472 819 4111 
Q 1319 4750 2209 4750 
Q 2503 4750 2772 4667 
Q 3041 4584 3291 4416 
L 3291 3769 
Q 3038 4009 2772 4123 
Q 2506 4238 2209 4238 
Q 1594 4238 1286 3761 
Q 978 3284 978 2328 
Q 978 1356 1276 889 
Q 1575 422 2194 422 
Q 2403 422 2561 470 
Q 2719 519 2847 622 
L 2847 1875 
L 2169 1875 
L 2169 2394 
L 3450 2394 
L 3450 384 
z
" transform="scale(0.015625)"/>
      <path id="DejaVuSansMono-44" d="M 1363 519 
Q 2159 519 2475 911 
Q 2791 1303 2791 2328 
Q 2791 3363 2477 3755 
Q 2163 4147 1363 4147 
L 1063 4147 
L 1063 519 
L 1363 519 
z
M 1375 4666 
Q 2444 4666 2950 4097 
Q 3456 3528 3456 2328 
Q 3456 1134 2950 567 
Q 2444 0 1375 0 
L 428 0 
L 428 4666 
L 1375 4666 
z
" transform="scale(0.015625)"/>
      <path id="DejaVuSansMono-66" d="M 3322 4863 
L 3322 4384 
L 2669 4384 
Q 2359 4384 2239 4257 
Q 2119 4131 2119 3809 
L 2119 3500 
L 3322 3500 
L 3322 3053 
L 2119 3053 
L 2119 0 
L 1544 0 
L 1544 3053 
L 609 3053 
L 609 3500 
L 1544 3500 
L 1544 3744 
Q 1544 4319 1808 4591 
Q 2072 4863 2631 4863 
L 3322 4863 
z
" transform="scale(0.015625)"/>
      <path id="DejaVuSansMono-6c" d="M 1997 1269 
Q 1997 881 2139 684 
Q 2281 488 2559 488 
L 3231 488 
L 3231 0 
L 2503 0 
Q 1988 0 1705 331 
Q 1422 663 1422 1269 
L 1422 4447 
L 500 4447 
L 500 4897 
L 1997 4897 
L 1997 1269 
z
" transform="scale(0.015625)"/>
      <path id="DejaVuSansMono-6d" d="M 2113 3144 
Q 2219 3369 2383 3476 
Q 2547 3584 2778 3584 
Q 3200 3584 3373 3257 
Q 3547 2931 3547 2028 
L 3547 0 
L 3022 0 
L 3022 2003 
Q 3022 2744 2939 2923 
Q 2856 3103 2638 3103 
Q 2388 3103 2295 2911 
Q 2203 2719 2203 2003 
L 2203 0 
L 1678 0 
L 1678 2003 
Q 1678 2753 1589 2928 
Q 1500 3103 1269 3103 
Q 1041 3103 952 2911 
Q 863 2719 863 2003 
L 863 0 
L 341 0 
L 341 3500 
L 863 3500 
L 863 3200 
Q 966 3388 1120 3486 
Q 1275 3584 1472 3584 
Q 1709 3584 1867 3475 
Q 2025 3366 2113 3144 
z
" transform="scale(0.015625)"/>
     </defs>
     <use xlink:href="#DejaVuSansMono-53"/>
     <use xlink:href="#DejaVuSansMono-47" x="60.205078"/>
     <use xlink:href="#DejaVuSansMono-44" x="120.410156"/>
     <use xlink:href="#DejaVuSansMono-20" x="180.615234"/>
     <use xlink:href="#DejaVuSansMono-66" x="240.820312"/>
     <use xlink:href="#DejaVuSansMono-6f" x="301.025391"/>
     <use xlink:href="#DejaVuSansMono-72" x="361.230469"/>
     <use xlink:href="#DejaVuSansMono-20" x="421.435547"/>
     <use xlink:href="#DejaVuSansMono-6c" x="481.640625"/>
     <use xlink:href="#DejaVuSansMono-6f" x="541.845703"/>
     <use xlink:href="#DejaVuSansMono-67" x="602.050781"/>
     <use xlink:href="#DejaVuSansMono-69" x="662.255859"/>
     <use xlink:href="#DejaVuSansMono-73" x="722.460938"/>
     <use xlink:href="#DejaVuSansMono-74" x="782.666016"/>
     <use xlink:href="#DejaVuSansMono-69" x="842.871094"/>
     <use xlink:href="#DejaVuSansMono-63" x="903.076172"/>
     <use xlink:href="#DejaVuSansMono-20" x="963.28125"/>
     <use xlink:href="#DejaVuSansMono-72" x="1023.486328"/>
     <use xlink:href="#DejaVuSansMono-65" x="1083.691406"/>
     <use xlink:href="#DejaVuSansMono-67" x="1143.896484"/>
     <use xlink:href="#DejaVuSansMono-72" x="1204.101562"/>
     <use xlink:href="#DejaVuSansMono-65" x="1264.306641"/>
     <use xlink:href="#DejaVuSansMono-73" x="1324.511719"/>
     <use xlink:href="#DejaVuSansMono-73" x="1384.716797"/>
     <use xlink:href="#DejaVuSansMono-69" x="1444.921875"/>
     <use xlink:href="#DejaVuSansMono-6f" x="1505.126953"/>
     <use xlink:href="#DejaVuSansMono-6e" x="1565.332031"/>
     <use xlink:href="#DejaVuSansMono-20" x="1625.537109"/>
     <use xlink:href="#DejaVuSansMono-6d" x="1685.742188"/>
     <use xlink:href="#DejaVuSansMono-6f" x="1745.947266"/>
     <use xlink:href="#DejaVuSansMono-64" x="1806.152344"/>
     <use xlink:href="#DejaVuSansMono-65" x="1866.357422"/>
     <use xlink:href="#DejaVuSansMono-6c" x="1926.5625"/>
    </g>
    <!-- $\alpha=$0.1, $\beta=$0, $k=$128, $N=$30 -->
    <g transform="translate(119.9925 30.048) scale(0.12 -0.12)">
     <defs>
      <path id="DejaVuSans-Oblique-3b1" d="M 2619 1628 
L 2622 2350 
Q 2625 3088 2069 3091 
Q 1653 3094 1394 2747 
Q 1069 2319 959 1747 
Q 825 1059 994 731 
Q 1169 397 1547 397 
Q 1966 397 2319 1063 
L 2619 1628 
z
M 2166 3578 
Q 3141 3594 3128 2584 
Q 3128 2584 3616 3500 
L 4128 3500 
L 3119 1603 
L 3109 919 
Q 3109 766 3194 638 
Q 3291 488 3391 488 
L 3669 488 
L 3575 0 
L 3228 0 
Q 2934 0 2722 263 
Q 2622 394 2619 669 
Q 2416 334 2066 50 
Q 1900 -81 1453 -78 
Q 722 -72 456 397 
Q 184 884 353 1747 
Q 534 2675 1009 3097 
Q 1544 3569 2166 3578 
z
" transform="scale(0.015625)"/>
      <path id="DejaVuSans-3d" d="M 678 2906 
L 4684 2906 
L 4684 2381 
L 678 2381 
L 678 2906 
z
M 678 1631 
L 4684 1631 
L 4684 1100 
L 678 1100 
L 678 1631 
z
" transform="scale(0.015625)"/>
      <path id="DejaVuSansMono-2c" d="M 1569 947 
L 2356 947 
L 2356 300 
L 1741 -897 
L 1259 -897 
L 1569 300 
L 1569 947 
z
" transform="scale(0.015625)"/>
      <path id="DejaVuSans-Oblique-3b2" d="M 872 216 
L 572 -1331 
L -6 -1331 
L 928 3478 
Q 1206 4903 2538 4903 
Q 3888 4903 3659 3700 
Q 3503 2844 2894 2531 
Q 3713 2250 3553 1416 
Q 3272 -69 1759 -66 
Q 1097 -63 872 216 
z
M 1019 966 
Q 1259 422 1875 425 
Q 2775 425 2966 1406 
Q 3138 2288 1675 2219 
L 1778 2750 
Q 2909 2731 3106 3750 
Q 3241 4438 2509 4434 
Q 1691 4434 1503 3459 
L 1019 966 
z
" transform="scale(0.015625)"/>
      <path id="DejaVuSans-Oblique-6b" d="M 1172 4863 
L 1747 4863 
L 1197 2028 
L 3169 3500 
L 3916 3500 
L 1716 1825 
L 3322 0 
L 2625 0 
L 1131 1709 
L 800 0 
L 225 0 
L 1172 4863 
z
" transform="scale(0.015625)"/>
      <path id="DejaVuSansMono-38" d="M 1925 2216 
Q 1503 2216 1273 1980 
Q 1044 1744 1044 1313 
Q 1044 881 1276 642 
Q 1509 403 1925 403 
Q 2350 403 2579 639 
Q 2809 875 2809 1313 
Q 2809 1741 2576 1978 
Q 2344 2216 1925 2216 
z
M 1375 2478 
Q 972 2581 745 2862 
Q 519 3144 519 3541 
Q 519 4097 897 4423 
Q 1275 4750 1925 4750 
Q 2578 4750 2956 4423 
Q 3334 4097 3334 3541 
Q 3334 3144 3107 2862 
Q 2881 2581 2478 2478 
Q 2947 2375 3195 2062 
Q 3444 1750 3444 1253 
Q 3444 622 3041 265 
Q 2638 -91 1925 -91 
Q 1213 -91 811 264 
Q 409 619 409 1247 
Q 409 1747 657 2061 
Q 906 2375 1375 2478 
z
M 1147 3481 
Q 1147 3106 1347 2909 
Q 1547 2713 1925 2713 
Q 2306 2713 2506 2909 
Q 2706 3106 2706 3481 
Q 2706 3863 2507 4063 
Q 2309 4263 1925 4263 
Q 1547 4263 1347 4061 
Q 1147 3859 1147 3481 
z
" transform="scale(0.015625)"/>
      <path id="DejaVuSans-Oblique-4e" d="M 1081 4666 
L 1931 4666 
L 3219 666 
L 4000 4666 
L 4616 4666 
L 3706 0 
L 2853 0 
L 1569 4025 
L 788 0 
L 172 0 
L 1081 4666 
z
" transform="scale(0.015625)"/>
     </defs>
     <use xlink:href="#DejaVuSans-Oblique-3b1" transform="translate(0 0.390625)"/>
     <use xlink:href="#DejaVuSans-3d" transform="translate(85.400391 0.390625)"/>
     <use xlink:href="#DejaVuSansMono-30" transform="translate(188.671875 0.390625)"/>
     <use xlink:href="#DejaVuSansMono-2e" transform="translate(248.876953 0.390625)"/>
     <use xlink:href="#DejaVuSansMono-31" transform="translate(309.082031 0.390625)"/>
     <use xlink:href="#DejaVuSansMono-2c" transform="translate(369.287109 0.390625)"/>
     <use xlink:href="#DejaVuSansMono-20" transform="translate(429.492188 0.390625)"/>
     <use xlink:href="#DejaVuSans-Oblique-3b2" transform="translate(489.697266 0.390625)"/>
     <use xlink:href="#DejaVuSans-3d" transform="translate(572.998047 0.390625)"/>
     <use xlink:href="#DejaVuSansMono-30" transform="translate(676.269531 0.390625)"/>
     <use xlink:href="#DejaVuSansMono-2c" transform="translate(736.474609 0.390625)"/>
     <use xlink:href="#DejaVuSansMono-20" transform="translate(796.679688 0.390625)"/>
     <use xlink:href="#DejaVuSans-Oblique-6b" transform="translate(856.884766 0.390625)"/>
     <use xlink:href="#DejaVuSans-3d" transform="translate(934.277344 0.390625)"/>
     <use xlink:href="#DejaVuSansMono-31" transform="translate(1037.548828 0.390625)"/>
     <use xlink:href="#DejaVuSansMono-32" transform="translate(1097.753906 0.390625)"/>
     <use xlink:href="#DejaVuSansMono-38" transform="translate(1157.958984 0.390625)"/>
     <use xlink:href="#DejaVuSansMono-2c" transform="translate(1218.164062 0.390625)"/>
     <use xlink:href="#DejaVuSansMono-20" transform="translate(1278.369141 0.390625)"/>
     <use xlink:href="#DejaVuSans-Oblique-4e" transform="translate(1338.574219 0.390625)"/>
     <use xlink:href="#DejaVuSans-3d" transform="translate(1432.861328 0.390625)"/>
     <use xlink:href="#DejaVuSansMono-33" transform="translate(1536.132812 0.390625)"/>
     <use xlink:href="#DejaVuSansMono-30" transform="translate(1596.337891 0.390625)"/>
    </g>
   </g>
   <g id="legend_1">
    <g id="patch_5">
     <path d="M 179.24375 73.5105 
L 379.8125 73.5105 
Q 381.8125 73.5105 381.8125 71.5105 
L 381.8125 43.048 
Q 381.8125 41.048 379.8125 41.048 
L 179.24375 41.048 
Q 177.24375 41.048 177.24375 43.048 
L 177.24375 71.5105 
Q 177.24375 73.5105 179.24375 73.5105 
z
" style="fill: #ffffff; opacity: 0.8; stroke: #333333; stroke-width: 0.2; stroke-linejoin: miter"/>
    </g>
    <g id="line2d_31">
     <path d="M 181.24375 49.199563 
L 191.24375 49.199563 
L 201.24375 49.199563 
" style="fill: none; stroke: #486afb; stroke-opacity: 0.25; stroke-width: 2; stroke-linecap: square"/>
    </g>
    <g id="text_18">
     <!-- cross entropy per step -->
     <g transform="translate(209.24375 52.699563) scale(0.1 -0.1)">
      <use xlink:href="#DejaVuSansMono-63"/>
      <use xlink:href="#DejaVuSansMono-72" x="60.205078"/>
      <use xlink:href="#DejaVuSansMono-6f" x="120.410156"/>
      <use xlink:href="#DejaVuSansMono-73" x="180.615234"/>
      <use xlink:href="#DejaVuSansMono-73" x="240.820312"/>
      <use xlink:href="#DejaVuSansMono-20" x="301.025391"/>
      <use xlink:href="#DejaVuSansMono-65" x="361.230469"/>
      <use xlink:href="#DejaVuSansMono-6e" x="421.435547"/>
      <use xlink:href="#DejaVuSansMono-74" x="481.640625"/>
      <use xlink:href="#DejaVuSansMono-72" x="541.845703"/>
      <use xlink:href="#DejaVuSansMono-6f" x="602.050781"/>
      <use xlink:href="#DejaVuSansMono-70" x="662.255859"/>
      <use xlink:href="#DejaVuSansMono-79" x="722.460938"/>
      <use xlink:href="#DejaVuSansMono-20" x="782.666016"/>
      <use xlink:href="#DejaVuSansMono-70" x="842.871094"/>
      <use xlink:href="#DejaVuSansMono-65" x="903.076172"/>
      <use xlink:href="#DejaVuSansMono-72" x="963.28125"/>
      <use xlink:href="#DejaVuSansMono-20" x="1023.486328"/>
      <use xlink:href="#DejaVuSansMono-73" x="1083.691406"/>
      <use xlink:href="#DejaVuSansMono-74" x="1143.896484"/>
      <use xlink:href="#DejaVuSansMono-65" x="1204.101562"/>
      <use xlink:href="#DejaVuSansMono-70" x="1264.306641"/>
     </g>
    </g>
    <g id="line2d_32">
     <path d="M 181.24375 63.930813 
L 191.24375 63.930813 
L 201.24375 63.930813 
" style="fill: none; stroke: #fd46fc; stroke-width: 2; stroke-linecap: square"/>
     <g>
      <use xlink:href="#m276b32af18" x="191.24375" y="63.930813" style="fill: #fd46fc; stroke: #fd46fc"/>
     </g>
    </g>
    <g id="text_19">
     <!-- mean cross entropy per epoch -->
     <g transform="translate(209.24375 67.430813) scale(0.1 -0.1)">
      <defs>
       <path id="DejaVuSansMono-68" d="M 3284 2169 
L 3284 0 
L 2706 0 
L 2706 2169 
Q 2706 2641 2540 2862 
Q 2375 3084 2022 3084 
Q 1619 3084 1401 2798 
Q 1184 2513 1184 1978 
L 1184 0 
L 609 0 
L 609 4863 
L 1184 4863 
L 1184 2975 
Q 1338 3275 1600 3429 
Q 1863 3584 2222 3584 
Q 2756 3584 3020 3232 
Q 3284 2881 3284 2169 
z
" transform="scale(0.015625)"/>
      </defs>
      <use xlink:href="#DejaVuSansMono-6d"/>
      <use xlink:href="#DejaVuSansMono-65" x="60.205078"/>
      <use xlink:href="#DejaVuSansMono-61" x="120.410156"/>
      <use xlink:href="#DejaVuSansMono-6e" x="180.615234"/>
      <use xlink:href="#DejaVuSansMono-20" x="240.820312"/>
      <use xlink:href="#DejaVuSansMono-63" x="301.025391"/>
      <use xlink:href="#DejaVuSansMono-72" x="361.230469"/>
      <use xlink:href="#DejaVuSansMono-6f" x="421.435547"/>
      <use xlink:href="#DejaVuSansMono-73" x="481.640625"/>
      <use xlink:href="#DejaVuSansMono-73" x="541.845703"/>
      <use xlink:href="#DejaVuSansMono-20" x="602.050781"/>
      <use xlink:href="#DejaVuSansMono-65" x="662.255859"/>
      <use xlink:href="#DejaVuSansMono-6e" x="722.460938"/>
      <use xlink:href="#DejaVuSansMono-74" x="782.666016"/>
      <use xlink:href="#DejaVuSansMono-72" x="842.871094"/>
      <use xlink:href="#DejaVuSansMono-6f" x="903.076172"/>
      <use xlink:href="#DejaVuSansMono-70" x="963.28125"/>
      <use xlink:href="#DejaVuSansMono-79" x="1023.486328"/>
      <use xlink:href="#DejaVuSansMono-20" x="1083.691406"/>
      <use xlink:href="#DejaVuSansMono-70" x="1143.896484"/>
      <use xlink:href="#DejaVuSansMono-65" x="1204.101562"/>
      <use xlink:href="#DejaVuSansMono-72" x="1264.306641"/>
      <use xlink:href="#DejaVuSansMono-20" x="1324.511719"/>
      <use xlink:href="#DejaVuSansMono-65" x="1384.716797"/>
      <use xlink:href="#DejaVuSansMono-70" x="1444.921875"/>
      <use xlink:href="#DejaVuSansMono-6f" x="1505.126953"/>
      <use xlink:href="#DejaVuSansMono-63" x="1565.332031"/>
      <use xlink:href="#DejaVuSansMono-68" x="1625.537109"/>
     </g>
    </g>
   </g>
  </g>
 </g>
 <defs>
  <clipPath id="pa74a7632df">
   <rect x="52.0125" y="36.048" width="334.8" height="166.32"/>
  </clipPath>
 </defs>
</svg>