<svg id="Layer_1" data-name="Layer 1" xmlns="http://www.w3.org/2000/svg" viewBox="0 0 79.59 89.76"><defs><style>.cls-1{fill:#fd46fc;}.cls-2{fill:#486afb;}</style></defs><path class="cls-1" d="M5.42,6c.1,1.07.2,2.14.29,3.21,0,.53.1,1.06.15,1.58s0,1.33.58,1.71a.67.67,0,0,0,.77-.11c.43-.46.28-1.16.23-1.73s-.09-1-.15-1.52C7.18,8.09,7.08,7,7,6a.77.77,0,0,0-.77-.76A.8.8,0,0,0,5.42,6Z"/><path class="cls-1" d="M5.52,6.27a4.7,4.7,0,0,1,5.54,1,3.34,3.34,0,0,1,1,2.62c-.19.86-1.35,1.37-2.08,1.65A10.47,10.47,0,0,1,6.4,12a.65.65,0,0,0-.19,1.28,6.05,6.05,0,0,0,4-.25,5,5,0,0,0,3.11-2.48,3.88,3.88,0,0,0-1-3.69A6.22,6.22,0,0,0,9.35,5,5.94,5.94,0,0,0,5,5.42c-.58.3-.09,1.14.49.85Z"/><path class="cls-1" d="M14.37,11.29l.28,1.29c0,.21.1.42.16.63l.09.31a1.88,1.88,0,0,0,.24.44.71.71,0,0,0,.79.31.72.72,0,0,0,.54-.68,1.86,1.86,0,0,0,0-.34,3.62,3.62,0,0,0-.06-.46q0-.33-.12-.66l-.28-1.29a.84.84,0,0,0-1-.59.9.9,0,0,0-.64,1Z"/><path class="cls-1" d="M14.68,7.88a.41.41,0,0,0,.19,0l.14,0,.13,0a.57.57,0,0,0,.27-.26.34.34,0,0,0-.12-.47l-.11,0,.08,0a.38.38,0,0,0-.15,0,.57.57,0,0,0-.26,0l-.07,0-.13,0-.12.09.09-.07-.1.08.09-.07a.76.76,0,0,0-.2.2.53.53,0,0,0-.08.17.53.53,0,0,0,0,.35.49.49,0,0,0,.28.21.82.82,0,0,0,.38,0l.15,0,.14,0h0a.61.61,0,0,0,.22-.13l.09-.11,0,0a.43.43,0,0,0,.05-.16.29.29,0,0,0,0-.16l0-.1a.41.41,0,0,0-.16-.16.49.49,0,0,0-.33-.09l-.15,0h-.14a.32.32,0,0,0-.14,0l-.13,0,0,0-.06,0,.64.16v0l0,.11s0,0,0,0v.14l0,.09,0,0-.07.08,0,0-.08.06,0,0-.09,0h0l-.08,0,0,0-.12-.47h0l0-.07s0,0,0,.05l.08-.06-.07,0,.09,0-.08,0h.12l-.06,0h-.14a.33.33,0,0,0-.14,0,.39.39,0,0,0-.17.23.32.32,0,0,0,0,.27.33.33,0,0,0,.22.16Z"/><path class="cls-1" d="M20.16,9.36a4.45,4.45,0,0,0-1.56,1,.52.52,0,0,0-.09.61,3.08,3.08,0,0,0,1.63,1.36c.33.14.67.26,1,.42a2.74,2.74,0,0,1,.51.27l.15.14c0-.05,0,0,0,0a.14.14,0,0,1,0-.06s0-.24,0-.11c.05-.07.05-.07,0,0h0a.82.82,0,0,1-.2.12c.15-.07-.08,0-.11,0a6.34,6.34,0,0,1-1.08.17c-.4,0-.81.06-1.22.06a2.74,2.74,0,0,0-1.4.14.51.51,0,0,0-.2.7,1.64,1.64,0,0,0,1.15.53,5.38,5.38,0,0,0,1.2.07,5.56,5.56,0,0,0,2.28-.49,1.24,1.24,0,0,0,.56-1.93,4.2,4.2,0,0,0-1.88-.95,2.39,2.39,0,0,1-1.5-1l-.09.62a3.16,3.16,0,0,1,1.08-.69.55.55,0,0,0,.39-.63.51.51,0,0,0-.64-.36Z"/><path class="cls-1" d="M23.71,12.61a4.75,4.75,0,0,0,3.82,0,1.33,1.33,0,0,0,.78-1.45,1.72,1.72,0,0,0-1-1.12,2.29,2.29,0,0,0-2.45,3.8,3.15,3.15,0,0,0,1.91.7,4,4,0,0,0,2.3-.58.6.6,0,0,0-.29-1.12,12.91,12.91,0,0,0-1.47.17,4.22,4.22,0,0,1-.62,0h-.14c-.12,0,.09,0,0,0L26.2,13,26.06,13h0l-.25-.13c-.11-.06-.06,0,0,0l-.11-.09-.1-.1c-.12-.12,0,.07-.05-.07a1.3,1.3,0,0,1-.22-.83,1.17,1.17,0,0,1,1.28-1,.91.91,0,0,1,.77.47.41.41,0,0,1,0,.26s-.08.1-.05.08l-.22.12a4.07,4.07,0,0,1-2.73-.06.68.68,0,0,0-.87.25.61.61,0,0,0,.23.84Z"/><path class="cls-1" d="M33.63,10.52a3.79,3.79,0,0,0-2.23-.25,2,2,0,0,0-1.5,1.59,2.08,2.08,0,0,0,1,2.15,2.36,2.36,0,0,0,2.55-.15,2.58,2.58,0,0,0,1-2.61.58.58,0,0,0-.65-.42.62.62,0,0,0-.53.58,2.85,2.85,0,0,0,.5,2,2.25,2.25,0,0,0,2,1.08.66.66,0,0,0,.61-.47.59.59,0,0,0-.28-.69c-.12,0-.23-.12-.35-.18l-.17-.07c.06,0,.06,0,0,0L35.35,13l-.18-.1,0,0-.31-.28s-.13-.17-.06-.07l-.09-.14a2.68,2.68,0,0,1-.18-.33c0,.09,0-.09,0-.1a1.33,1.33,0,0,1-.05-.19.72.72,0,0,1,0-.11s0-.18,0-.13l-1.17-.14a1.72,1.72,0,0,1-.18.91,1,1,0,0,1-.59.56c.11-.05-.1,0-.13,0s-.24,0-.13,0a2.62,2.62,0,0,1-.28,0c.09,0-.15,0-.17,0l-.14,0c.05,0,0,0,0,0l-.19-.1a.4.4,0,0,1-.13-.11l-.09-.1s0,0,0,0a1.13,1.13,0,0,1-.15-.73.83.83,0,0,1,.48-.61,2.62,2.62,0,0,1,2,.13.43.43,0,0,0,.51-.3.4.4,0,0,0-.29-.49Z"/><path class="cls-1" d="M39,10a7.35,7.35,0,0,0-1,.38,1.29,1.29,0,0,0-.73.56c-.32.73.74,1.15,1.21,1.43l1,.58a2.27,2.27,0,0,1,.67.49.24.24,0,0,1,.06.17s0,.07,0,0-.07.09,0,.06a.57.57,0,0,1-.28.14l-.21.06-.1,0c-.19,0,0,0-.07,0A4.35,4.35,0,0,1,39,14a1.92,1.92,0,0,1-.41-.05,4.7,4.7,0,0,1-.51-.12,1.56,1.56,0,0,0-.56-.12.45.45,0,0,0-.44.55,1.37,1.37,0,0,0,.81.75,2.52,2.52,0,0,0,1.12.22,2.37,2.37,0,0,0,1.94-.88,1.25,1.25,0,0,0-.43-1.71,9.07,9.07,0,0,0-.9-.56l-1-.58c-.17-.09-.34-.21-.51-.29s0-.09,0,0,0,0,.09,0a5.57,5.57,0,0,1,1.12-.41A.4.4,0,0,0,39,10Z"/><path class="cls-1" d="M43,12.53a11.48,11.48,0,0,0,2.41.27,6.12,6.12,0,0,0,2.36-.37,1.32,1.32,0,0,0,.8-1.63A2.19,2.19,0,0,0,47,9.53a3.31,3.31,0,0,0-3.75,1.12,2.6,2.6,0,0,0,.52,3.54c1.47,1.21,3.42.9,5.07.27a.61.61,0,0,0,.45-.65.58.58,0,0,0-.58-.51,7.93,7.93,0,0,1-3.46.08,2.28,2.28,0,0,1-1-.65,1.39,1.39,0,0,1-.33-1.09A1.92,1.92,0,0,1,46,10.13a2.23,2.23,0,0,1,1.47.55.69.69,0,0,1,.21.54c0,.22-.21.26-.4.3a8.57,8.57,0,0,1-4.09.07c-.6-.15-.89.81-.27.94Z"/><path class="cls-1" d="M.64,1.92C.31,6.86.13,11.8.07,16.74c0,1.61-.55,4.33,1.63,4.74a21.19,21.19,0,0,0,3.38.12c1.24,0,2.48,0,3.73,0,9.86,0,19.72-.19,29.58-.24,5.55,0,11.1.05,16.65.29a.6.6,0,0,0,.58-.73,39.16,39.16,0,0,1-1.53-10.32c-.09-1.75-.17-3.49-.27-5.23A30.64,30.64,0,0,0,53.24.34a.49.49,0,0,0-.88-.11C52.11.64,51,.52,50.6.54l-2.36.1L44,.78,35.31,1c-5.81.11-11.61.26-17.41.41-3.32.08-6.64.23-9.95.43-.68,0-.73,1.06,0,1C20.08,2.8,32.22,2,44.37,1.51q2.55-.09,5.1-.15c.79,0,1.6,0,2.39,0A1.57,1.57,0,0,0,53.19.69l-.88-.1A49.07,49.07,0,0,1,53,5.86c.11,1.74.09,3.49.11,5.23a34.15,34.15,0,0,0,1.34,10.16l.58-.73c-9.48-.48-19-.35-28.45-.17-4.73.09-9.45.23-14.18.27q-3.54,0-7.08,0A21.15,21.15,0,0,1,2,20.54C.75,20.33,1,18.92,1,18c0-5.35.16-10.72.41-16.07,0-.48-.71-.45-.74,0Z"/><path class="cls-1" d="M14.3,77.82c1.26-.19,2.53-.31,3.8-.39s2.54,0,3.8-.16c.41,0,.62-.72.12-.8a19.54,19.54,0,0,0-3.9-.06c-1.32.06-2.63.18-3.94.35a.54.54,0,1,0,.12,1.06Z"/><path class="cls-1" d="M16.47,78.53a19.78,19.78,0,0,1,.82,3.66c.07.6.1,1.2.12,1.8a5,5,0,0,0,.18,1.89c.17.37.69.28.88,0A4,4,0,0,0,18.75,84a16.49,16.49,0,0,0-.14-2,17.79,17.79,0,0,0-.85-3.81c-.27-.8-1.55-.45-1.29.35Z"/><path class="cls-1" d="M21.32,84.17a5.89,5.89,0,0,0,1.87.1A4.29,4.29,0,0,0,25,83.78a1,1,0,0,0,.48-1.45,2.38,2.38,0,0,0-1.37-.87,3,3,0,0,0-3,.84,2.46,2.46,0,0,0-.64,1.48A2.15,2.15,0,0,0,21,85.29a2.82,2.82,0,0,0,1.66.84A6,6,0,0,0,25,85.94c.56-.13.49-1-.12-1s-1,.07-1.5,0a2.91,2.91,0,0,1-.66-.08,1.73,1.73,0,0,1-.5-.17,2.24,2.24,0,0,1-.38-.26,1.05,1.05,0,0,1-.32-.4,1.09,1.09,0,0,1,0-.92,1.9,1.9,0,0,1,1.89-1.05,2.21,2.21,0,0,1,1.11.36c.09.05.3.17.31.3s-.17.18-.26.23a4.46,4.46,0,0,1-3,.33c-.54-.11-.8.72-.24.85Z"/><path class="cls-1" d="M29.49,80.79a3.44,3.44,0,0,0-2.8,1.39.53.53,0,0,0,.2.73l1.85,1.22c.32.22.65.43,1,.66.05,0,.13.15.19.18v0a.1.1,0,0,1,0-.12c0-.08.06-.06-.05,0a5.43,5.43,0,0,1-1.74.59,8.94,8.94,0,0,1-.89.09,2.12,2.12,0,0,0-1.12.17.53.53,0,0,0-.12.82,1.74,1.74,0,0,0,1.34.28,6.94,6.94,0,0,0,1.29-.21,8.06,8.06,0,0,0,1.19-.44,2.53,2.53,0,0,0,1-.69,1,1,0,0,0-.08-1.22,4.21,4.21,0,0,0-1-.74c-.78-.5-1.56-1-2.32-1.56l.11.85a2.4,2.4,0,0,1,1.91-.92.55.55,0,0,0,0-1.1Z"/><path class="cls-1" d="M33.59,79.6a26,26,0,0,0,.28,3.63,10.45,10.45,0,0,0,.94,3.48.61.61,0,0,0,1.12-.31A33.68,33.68,0,0,0,35.34,83,27.4,27.4,0,0,1,35,79.58a.71.71,0,0,0-1.42,0Z"/><path class="cls-1" d="M31.48,83.63a43.64,43.64,0,0,0,4.43,0,19.24,19.24,0,0,0,4.35-.52.42.42,0,0,0-.09-.83,20.13,20.13,0,0,0-2.2.11c-.71,0-1.42.07-2.12.08-1.45,0-2.9,0-4.34-.08a.63.63,0,0,0,0,1.26Z"/><path class="cls-1" d="M10.44,75.88c.18,2.27.36,4.53.53,6.8l.25,3.47a6.58,6.58,0,0,0,.42,2.41,2.1,2.1,0,0,0,1.81,1.16c1.06.1,2.16,0,3.23,0,2.28,0,4.56,0,6.85,0l13.69-.14c2.22,0,4.44,0,6.66-.07a2.61,2.61,0,0,0,1.92-.66c.62-.68.3-1.56,0-2.28a63.74,63.74,0,0,1-2.56-6.7,18.84,18.84,0,0,1-1.14-7.05c0-.56-.83-.53-.87,0,0,.31-3.26.4-3.62.43l-4,.25q-3.91.21-7.83.31T18,73.89c-2.65,0-5.31-.17-8-.11a.41.41,0,0,0,0,.81c2.23.21,4.48.2,6.72.21s4.47,0,6.71,0q6.66-.14,13.29-.62l3.72-.28c.71,0,1.58-.16,1.66-1H41.2a24,24,0,0,0,2.21,10.91c.37.88.75,1.76,1.11,2.64A5.27,5.27,0,0,1,45,87.72c0,.46-.23.66-.64.78a10.85,10.85,0,0,1-2.85.11H38.36l-12.57.06c-2.08,0-4.15,0-6.23.08l-3.24.07a14.24,14.24,0,0,1-2.92-.06c-1.08-.21-1.17-1.35-1.26-2.26l-.33-3.46c-.23-2.39-.44-4.79-.66-7.18,0-.45-.74-.44-.71,0Z"/><path class="cls-2" d="M26.28,25.76c-.06,2.82-.11,5.66,0,8.49s.29,5.66.49,8.49c.39,5.56.56,11.16.52,16.73,0,1.56-.05,3.11-.13,4.67A28.64,28.64,0,0,0,27.08,69c.08.61,1,.49,1.14,0a16,16,0,0,0,.39-4.08c0-1.43,0-2.86,0-4.3,0-2.83-.18-5.65-.31-8.48-.26-5.58-.79-11.14-1-16.73-.1-3.2-.31-6.4-.32-9.6a.37.37,0,0,0-.73,0Z"/><path class="cls-2" d="M23.33,65.27c.73.79,1.46,1.59,2.2,2.36a20.52,20.52,0,0,0,2.37,2.2.44.44,0,0,0,.57,0,.42.42,0,0,0,.12-.55,19.09,19.09,0,0,0-2.08-2.58c-.73-.81-1.49-1.6-2.24-2.39a.67.67,0,0,0-.93,0,.66.66,0,0,0,0,.92Z"/><path class="cls-2" d="M28.37,69.45c.77-.73,1.52-1.49,2.22-2.29q.53-.59,1-1.2a3.3,3.3,0,0,0,.86-1.5A.45.45,0,0,0,31.9,64a3.38,3.38,0,0,0-1.21,1.11c-.34.4-.68.8-1,1.19-.7.78-1.41,1.55-2.16,2.29a.61.61,0,0,0,0,.86.63.63,0,0,0,.87,0Z"/><path class="cls-2" d="M34.29,43.48a26.33,26.33,0,0,0,3.87-.08c.62,0,1.25-.13,1.87-.23a4.81,4.81,0,0,0,1.89-.56c.28-.17.31-.7-.09-.76A6.37,6.37,0,0,0,40,42c-.64.08-1.28.16-1.93.21a28.34,28.34,0,0,1-3.8,0,.64.64,0,0,0,0,1.27Z"/><path class="cls-2" d="M36.39,44.44a21.7,21.7,0,0,1-.22,2.79c-.05.44-.11.89-.18,1.34a10.22,10.22,0,0,0-.2,1.35.36.36,0,0,0,.6.24,5,5,0,0,0,.73-1.36,8,8,0,0,0,.43-1.36,11.69,11.69,0,0,0,.22-3,.69.69,0,0,0-1.38,0Z"/><path class="cls-2" d="M34.4,50.55c1-.09,2-.18,3-.3a13.61,13.61,0,0,0,3-.54c.38-.13.51-.76,0-.86a13.4,13.4,0,0,0-3-.05c-1,0-2,.11-3,.19a.84.84,0,0,0-.8.79.76.76,0,0,0,.77.77Z"/><path class="cls-2" d="M42.49,49.86c-.07-.08-.15-.14-.22-.21a.66.66,0,0,1-.17-.23.73.73,0,0,1-.09-.23.61.61,0,0,1,0-.3,1,1,0,0,1,.06-.26c0-.05,0-.05.05-.11a.86.86,0,0,1,.1-.16l.06-.07.12-.12.07-.06s-.06,0,0,0l.16-.1.08,0h0l.05,0,.06,0,.18,0h.33l.08,0h0s.16.09.09,0l.11.1,0,0s0,0,0,0a1.19,1.19,0,0,1,.09.15v0c0-.06,0,.05,0,.06a2.82,2.82,0,0,1,.07.31c0,.09,0,0,0,0a.28.28,0,0,0,0,.09v.18c0,.3,0,.6,0,.9a2.16,2.16,0,0,0,0,.44,1.44,1.44,0,0,0,.22.63.52.52,0,0,0,1-.27,5.78,5.78,0,0,0,0-.58h0a.41.41,0,0,1,0-.11,2.44,2.44,0,0,1,0-.27c0-.34,0-.68-.06-1A2,2,0,0,0,44,47.12a1.83,1.83,0,0,0-1.81.1,2.18,2.18,0,0,0-1,1.56,1.66,1.66,0,0,0,.89,1.78.42.42,0,0,0,.41-.7Z"/><path class="cls-2" d="M49.58,44.69A1.33,1.33,0,0,0,48,44.46,2,2,0,0,0,47,46.21a7.48,7.48,0,0,0,.39,2.19c.11.37.22.74.32,1.12s.15.75.27,1.12a.47.47,0,0,0,.9,0,3.3,3.3,0,0,0-.13-1.89c-.17-.6-.4-1.17-.55-1.78a2.3,2.3,0,0,1,0-1.49.5.5,0,0,1,.79-.2.41.41,0,0,0,.58-.58Z"/><path class="cls-2" d="M46.87,49.12c1.29-.19,2.57-.41,3.84-.7a.48.48,0,0,0-.11-.94c-1.3,0-2.59.14-3.89.26a.72.72,0,0,0-.71.8.69.69,0,0,0,.87.58Z"/><path class="cls-2" d="M51,45.7c.19.94.33,1.89.45,2.84s.16,1.89.35,2.83a.47.47,0,0,0,.9,0,12,12,0,0,0,0-3,27.81,27.81,0,0,0-.44-3,.67.67,0,0,0-.81-.46.69.69,0,0,0-.49.81Z"/><path class="cls-2" d="M53.05,49a3.43,3.43,0,0,0,2,1.63,1.62,1.62,0,0,0,1.52-.21,1.42,1.42,0,0,0,.26-1.54,7,7,0,0,0-.59-1.68.49.49,0,0,0-.9.24,6.69,6.69,0,0,0,.26,1.72c0,.06,0,.12,0,.19a.45.45,0,0,1,0,.16c0-.09,0-.1,0,0v.08c0,.07,0,.06,0,0a.24.24,0,0,1,0,.08c.05-.1.05-.11,0,0s.07-.1,0,0,.12-.09.06-.05l.07,0-.07,0h.07s-.09,0-.13,0,.13,0,0,0l-.15,0-.14,0-.08,0,0,0-.28-.13-.26-.17c.09.06.11.08,0,0l-.06-.05-.12-.1-.21-.22-.05-.06c.07.09.08.11,0,0l-.09-.13a1.17,1.17,0,0,1-.15-.27.71.71,0,0,0-1.22.71Z"/><path class="cls-2" d="M58.27,50a6.71,6.71,0,0,0,1.79,0,3.62,3.62,0,0,0,1.51-.44,1.37,1.37,0,0,0,.73-1.11,1.3,1.3,0,0,0-.81-1.11,2,2,0,0,0-2.57.55,1.92,1.92,0,0,0,.85,2.58c1.2.64,2.71.22,3.94-.1a.44.44,0,0,0,0-.85,18.53,18.53,0,0,0-2.58,0,1.46,1.46,0,0,1-1.4-.81c-.22-.63.4-.91.94-.82a1,1,0,0,1,.75.41c.12.23-.08.42-.26.54a2.79,2.79,0,0,1-1.19.39,5.87,5.87,0,0,1-1.51,0,.38.38,0,0,0-.45.26.36.36,0,0,0,.25.44Z"/><path class="cls-2" d="M63.9,49.9a2.17,2.17,0,0,0,.54.94c.33.36.89,0,.8-.46-.11-.61-.52-1.3-.35-1.92a1.15,1.15,0,0,1,.15-.32c.08-.11,0,0,.06-.07s.14-.13.08-.09a.91.91,0,0,1,.17-.09c-.11,0,.14,0,0,0h.12l.1,0s0,0,0,0l.1.06.14.13s0,0,0,0l.06.09a1.62,1.62,0,0,1,.1.18s.09.2.06.11l0,.15c.05.15.09.31.13.46.17.72.28,1.46.51,2.16a.47.47,0,0,0,.45.34.48.48,0,0,0,.46-.35,4.63,4.63,0,0,0-.19-2.15,4.24,4.24,0,0,0-.84-1.65A1.44,1.44,0,0,0,65,47,1.81,1.81,0,0,0,64,48.39a5.71,5.71,0,0,0,.27,2.24l.81-.47a1.42,1.42,0,0,1-.35-.49.44.44,0,0,0-.54-.31.45.45,0,0,0-.33.54Z"/><path class="cls-2" d="M69.92,48a2.18,2.18,0,0,0-.6,2.26A2.61,2.61,0,0,0,71.22,52a2.56,2.56,0,0,0,.78.09,2.22,2.22,0,0,0,.45,0,2.39,2.39,0,0,0,.44-.18.57.57,0,0,0,.29-.58.54.54,0,0,0-.42-.48c-.25,0-.5-.08-.75-.1h0l-.17,0-.31-.07a2.43,2.43,0,0,0-.3-.09l.07,0-.06,0-.16-.08-.11-.06-.08-.05c.08.06.09.06,0,0l-.22-.21c-.09-.09.08.13,0,0L70.6,50l-.06-.12c-.08-.14,0,.11,0,0a1.19,1.19,0,0,1-.07-.27s0,0,0-.07,0,0,0,0v-.12s0-.23,0-.27,0,.09,0,0a.19.19,0,0,1,0-.07.36.36,0,0,1,0-.11c0,.08,0,.09,0,0l0-.06.06-.1q.06-.08,0,0l.06-.06a.52.52,0,0,1,.11-.1.58.58,0,0,0,0-.81.6.6,0,0,0-.81,0Z"/><path class="cls-2" d="M74.2,49.9c1.12.44,2.86.76,3.66-.4a1.11,1.11,0,0,0-.28-1.6,2,2,0,0,0-1.33-.37,2.44,2.44,0,0,0-2.13,1.75,3,3,0,0,0,1,3,3.73,3.73,0,0,0,4.15.18.57.57,0,0,0-.43-1.05,3.92,3.92,0,0,1-2.46.08A2.15,2.15,0,0,1,75.05,50a1.36,1.36,0,0,1,.74-1.6,1.32,1.32,0,0,1,.87-.14c.28.06.63.26.54.6s-.75.42-1.07.45a4.12,4.12,0,0,1-1.71-.18.43.43,0,0,0-.5.29.39.39,0,0,0,.28.47Z"/></svg>