<?xml version="1.0" encoding="utf-8" standalone="no"?>
<!DOCTYPE svg PUBLIC "-//W3C//DTD SVG 1.1//EN"
  "http://www.w3.org/Graphics/SVG/1.1/DTD/svg11.dtd">
<svg xmlns:xlink="http://www.w3.org/1999/xlink" width="279.711875pt" height="208.1025pt" viewBox="0 0 279.711875 208.1025" xmlns="http://www.w3.org/2000/svg" version="1.1">
 <metadata>
  <rdf:RDF xmlns:dc="http://purl.org/dc/elements/1.1/" xmlns:cc="http://creativecommons.org/ns#" xmlns:rdf="http://www.w3.org/1999/02/22-rdf-syntax-ns#">
   <cc:Work>
    <dc:type rdf:resource="http://purl.org/dc/dcmitype/StillImage"/>
    <dc:date>2024-02-22T12:29:09.792467</dc:date>
    <dc:format>image/svg+xml</dc:format>
    <dc:creator>
     <cc:Agent>
      <dc:title>Matplotlib v3.8.2, https://matplotlib.org/</dc:title>
     </cc:Agent>
    </dc:creator>
   </cc:Work>
  </rdf:RDF>
 </metadata>
 <defs>
  <style type="text/css">*{stroke-linejoin: round; stroke-linecap: butt}</style>
 </defs>
 <g id="figure_1">
  <g id="patch_1">
   <path d="M 0 208.1025 
L 279.711875 208.1025 
L 279.711875 0 
L 0 0 
z
" style="fill: #ffffff"/>
  </g>
  <g id="axes_1">
   <g id="patch_2">
    <path d="M 39.971875 170.44 
L 272.511875 170.44 
L 272.511875 7.2 
L 39.971875 7.2 
z
" style="fill: #ffffff"/>
   </g>
   <g id="PathCollection_1">
    <defs>
     <path id="m2e7f02f3c8" d="M 0 2 
C 0.530406 2 1.03916 1.789267 1.414214 1.414214 
C 1.789267 1.03916 2 0.530406 2 0 
C 2 -0.530406 1.789267 -1.03916 1.414214 -1.414214 
C 1.03916 -1.789267 0.530406 -2 0 -2 
C -0.530406 -2 -1.03916 -1.789267 -1.414214 -1.414214 
C -1.789267 -1.03916 -2 -0.530406 -2 0 
C -2 0.530406 -1.789267 1.03916 -1.414214 1.414214 
C -1.03916 1.789267 -0.530406 2 0 2 
z
" style="stroke: #486afb; stroke-width: 0.2"/>
    </defs>
    <g clip-path="url(#p93fc616791)">
     <use xlink:href="#m2e7f02f3c8" x="157.713647" y="87.786835" style="fill: #486afb; stroke: #486afb; stroke-width: 0.2"/>
    </g>
   </g>
   <g id="matplotlib.axis_1">
    <g id="xtick_1">
     <g id="line2d_1">
      <path d="M 69.407318 170.44 
L 69.407318 7.2 
" clip-path="url(#p93fc616791)" style="fill: none; stroke-dasharray: 2.22,0.96; stroke-dashoffset: 0; stroke: #6c6066; stroke-opacity: 0.4; stroke-width: 0.6"/>
     </g>
     <g id="line2d_2">
      <defs>
       <path id="mef237b7067" d="M 0 0 
L 0 3.5 
" style="stroke: #000000; stroke-width: 0.8"/>
      </defs>
      <g>
       <use xlink:href="#mef237b7067" x="69.407318" y="170.44" style="stroke: #000000; stroke-width: 0.8"/>
      </g>
     </g>
     <g id="text_1">
      <!-- −2 -->
      <g transform="translate(63.387006 185.091562) scale(0.1 -0.1)">
       <defs>
        <path id="DejaVuSansMono-2212" d="M 275 2272 
L 3578 2272 
L 3578 1741 
L 275 1741 
L 275 2272 
z
" transform="scale(0.015625)"/>
        <path id="DejaVuSansMono-32" d="M 1166 531 
L 3309 531 
L 3309 0 
L 475 0 
L 475 531 
Q 1059 1147 1496 1619 
Q 1934 2091 2100 2284 
Q 2413 2666 2522 2902 
Q 2631 3138 2631 3384 
Q 2631 3775 2401 3997 
Q 2172 4219 1772 4219 
Q 1488 4219 1175 4116 
Q 863 4013 513 3803 
L 513 4441 
Q 834 4594 1145 4672 
Q 1456 4750 1759 4750 
Q 2444 4750 2861 4386 
Q 3278 4022 3278 3431 
Q 3278 3131 3139 2831 
Q 3000 2531 2688 2169 
Q 2513 1966 2180 1606 
Q 1847 1247 1166 531 
z
" transform="scale(0.015625)"/>
       </defs>
       <use xlink:href="#DejaVuSansMono-2212"/>
       <use xlink:href="#DejaVuSansMono-32" x="60.205078"/>
      </g>
     </g>
    </g>
    <g id="xtick_2">
     <g id="line2d_3">
      <path d="M 128.278204 170.44 
L 128.278204 7.2 
" clip-path="url(#p93fc616791)" style="fill: none; stroke-dasharray: 2.22,0.96; stroke-dashoffset: 0; stroke: #6c6066; stroke-opacity: 0.4; stroke-width: 0.6"/>
     </g>
     <g id="line2d_4">
      <g>
       <use xlink:href="#mef237b7067" x="128.278204" y="170.44" style="stroke: #000000; stroke-width: 0.8"/>
      </g>
     </g>
     <g id="text_2">
      <!-- 0 -->
      <g transform="translate(125.268048 185.091562) scale(0.1 -0.1)">
       <defs>
        <path id="DejaVuSansMono-30" d="M 1509 2344 
Q 1509 2516 1629 2641 
Q 1750 2766 1919 2766 
Q 2094 2766 2219 2641 
Q 2344 2516 2344 2344 
Q 2344 2169 2220 2047 
Q 2097 1925 1919 1925 
Q 1744 1925 1626 2044 
Q 1509 2163 1509 2344 
z
M 1925 4250 
Q 1484 4250 1267 3775 
Q 1050 3300 1050 2328 
Q 1050 1359 1267 884 
Q 1484 409 1925 409 
Q 2369 409 2586 884 
Q 2803 1359 2803 2328 
Q 2803 3300 2586 3775 
Q 2369 4250 1925 4250 
z
M 1925 4750 
Q 2672 4750 3055 4137 
Q 3438 3525 3438 2328 
Q 3438 1134 3055 521 
Q 2672 -91 1925 -91 
Q 1178 -91 797 521 
Q 416 1134 416 2328 
Q 416 3525 797 4137 
Q 1178 4750 1925 4750 
z
" transform="scale(0.015625)"/>
       </defs>
       <use xlink:href="#DejaVuSansMono-30"/>
      </g>
     </g>
    </g>
    <g id="xtick_3">
     <g id="line2d_5">
      <path d="M 187.14909 170.44 
L 187.14909 7.2 
" clip-path="url(#p93fc616791)" style="fill: none; stroke-dasharray: 2.22,0.96; stroke-dashoffset: 0; stroke: #6c6066; stroke-opacity: 0.4; stroke-width: 0.6"/>
     </g>
     <g id="line2d_6">
      <g>
       <use xlink:href="#mef237b7067" x="187.14909" y="170.44" style="stroke: #000000; stroke-width: 0.8"/>
      </g>
     </g>
     <g id="text_3">
      <!-- 2 -->
      <g transform="translate(184.138934 185.091562) scale(0.1 -0.1)">
       <use xlink:href="#DejaVuSansMono-32"/>
      </g>
     </g>
    </g>
    <g id="xtick_4">
     <g id="line2d_7">
      <path d="M 246.019976 170.44 
L 246.019976 7.2 
" clip-path="url(#p93fc616791)" style="fill: none; stroke-dasharray: 2.22,0.96; stroke-dashoffset: 0; stroke: #6c6066; stroke-opacity: 0.4; stroke-width: 0.6"/>
     </g>
     <g id="line2d_8">
      <g>
       <use xlink:href="#mef237b7067" x="246.019976" y="170.44" style="stroke: #000000; stroke-width: 0.8"/>
      </g>
     </g>
     <g id="text_4">
      <!-- 4 -->
      <g transform="translate(243.00982 185.091562) scale(0.1 -0.1)">
       <defs>
        <path id="DejaVuSansMono-34" d="M 2297 4091 
L 825 1625 
L 2297 1625 
L 2297 4091 
z
M 2194 4666 
L 2925 4666 
L 2925 1625 
L 3547 1625 
L 3547 1113 
L 2925 1113 
L 2925 0 
L 2297 0 
L 2297 1113 
L 319 1113 
L 319 1709 
L 2194 4666 
z
" transform="scale(0.015625)"/>
       </defs>
       <use xlink:href="#DejaVuSansMono-34"/>
      </g>
     </g>
    </g>
    <g id="text_5">
     <!-- $x$ -->
     <g transform="translate(153.241875 198.822812) scale(0.1 -0.1)">
      <defs>
       <path id="DejaVuSans-Oblique-78" d="M 3841 3500 
L 2234 1784 
L 3219 0 
L 2559 0 
L 1819 1388 
L 531 0 
L -166 0 
L 1556 1844 
L 641 3500 
L 1300 3500 
L 1972 2234 
L 3144 3500 
L 3841 3500 
z
" transform="scale(0.015625)"/>
      </defs>
      <use xlink:href="#DejaVuSans-Oblique-78" transform="translate(0 0.3125)"/>
     </g>
    </g>
   </g>
   <g id="matplotlib.axis_2">
    <g id="ytick_1">
     <g id="line2d_9">
      <path d="M 39.971875 170.44 
L 272.511875 170.44 
" clip-path="url(#p93fc616791)" style="fill: none; stroke-dasharray: 2.22,0.96; stroke-dashoffset: 0; stroke: #6c6066; stroke-opacity: 0.4; stroke-width: 0.6"/>
     </g>
     <g id="line2d_10">
      <defs>
       <path id="m84f0e47d19" d="M 0 0 
L -3.5 0 
" style="stroke: #000000; stroke-width: 0.8"/>
      </defs>
      <g>
       <use xlink:href="#m84f0e47d19" x="39.971875" y="170.44" style="stroke: #000000; stroke-width: 0.8"/>
      </g>
     </g>
     <g id="text_6">
      <!-- −3 -->
      <g transform="translate(20.93125 174.265781) scale(0.1 -0.1)">
       <defs>
        <path id="DejaVuSansMono-33" d="M 2425 2497 
Q 2884 2375 3128 2064 
Q 3372 1753 3372 1288 
Q 3372 644 2939 276 
Q 2506 -91 1741 -91 
Q 1419 -91 1084 -31 
Q 750 28 428 141 
L 428 769 
Q 747 603 1056 522 
Q 1366 441 1672 441 
Q 2191 441 2469 675 
Q 2747 909 2747 1350 
Q 2747 1756 2469 1995 
Q 2191 2234 1716 2234 
L 1234 2234 
L 1234 2753 
L 1716 2753 
Q 2150 2753 2394 2943 
Q 2638 3134 2638 3475 
Q 2638 3834 2411 4026 
Q 2184 4219 1766 4219 
Q 1488 4219 1191 4156 
Q 894 4094 569 3969 
L 569 4550 
Q 947 4650 1242 4700 
Q 1538 4750 1766 4750 
Q 2447 4750 2855 4408 
Q 3263 4066 3263 3500 
Q 3263 3116 3048 2859 
Q 2834 2603 2425 2497 
z
" transform="scale(0.015625)"/>
       </defs>
       <use xlink:href="#DejaVuSansMono-2212"/>
       <use xlink:href="#DejaVuSansMono-33" x="60.205078"/>
      </g>
     </g>
    </g>
    <g id="ytick_2">
     <g id="line2d_11">
      <path d="M 39.971875 149.776709 
L 272.511875 149.776709 
" clip-path="url(#p93fc616791)" style="fill: none; stroke-dasharray: 2.22,0.96; stroke-dashoffset: 0; stroke: #6c6066; stroke-opacity: 0.4; stroke-width: 0.6"/>
     </g>
     <g id="line2d_12">
      <g>
       <use xlink:href="#m84f0e47d19" x="39.971875" y="149.776709" style="stroke: #000000; stroke-width: 0.8"/>
      </g>
     </g>
     <g id="text_7">
      <!-- −2 -->
      <g transform="translate(20.93125 153.60249) scale(0.1 -0.1)">
       <use xlink:href="#DejaVuSansMono-2212"/>
       <use xlink:href="#DejaVuSansMono-32" x="60.205078"/>
      </g>
     </g>
    </g>
    <g id="ytick_3">
     <g id="line2d_13">
      <path d="M 39.971875 129.113418 
L 272.511875 129.113418 
" clip-path="url(#p93fc616791)" style="fill: none; stroke-dasharray: 2.22,0.96; stroke-dashoffset: 0; stroke: #6c6066; stroke-opacity: 0.4; stroke-width: 0.6"/>
     </g>
     <g id="line2d_14">
      <g>
       <use xlink:href="#m84f0e47d19" x="39.971875" y="129.113418" style="stroke: #000000; stroke-width: 0.8"/>
      </g>
     </g>
     <g id="text_8">
      <!-- −1 -->
      <g transform="translate(20.93125 132.939199) scale(0.1 -0.1)">
       <defs>
        <path id="DejaVuSansMono-31" d="M 844 531 
L 1825 531 
L 1825 4097 
L 769 3859 
L 769 4434 
L 1819 4666 
L 2450 4666 
L 2450 531 
L 3419 531 
L 3419 0 
L 844 0 
L 844 531 
z
" transform="scale(0.015625)"/>
       </defs>
       <use xlink:href="#DejaVuSansMono-2212"/>
       <use xlink:href="#DejaVuSansMono-31" x="60.205078"/>
      </g>
     </g>
    </g>
    <g id="ytick_4">
     <g id="line2d_15">
      <path d="M 39.971875 108.450127 
L 272.511875 108.450127 
" clip-path="url(#p93fc616791)" style="fill: none; stroke-dasharray: 2.22,0.96; stroke-dashoffset: 0; stroke: #6c6066; stroke-opacity: 0.4; stroke-width: 0.6"/>
     </g>
     <g id="line2d_16">
      <g>
       <use xlink:href="#m84f0e47d19" x="39.971875" y="108.450127" style="stroke: #000000; stroke-width: 0.8"/>
      </g>
     </g>
     <g id="text_9">
      <!-- 0 -->
      <g transform="translate(26.951562 112.275908) scale(0.1 -0.1)">
       <use xlink:href="#DejaVuSansMono-30"/>
      </g>
     </g>
    </g>
    <g id="ytick_5">
     <g id="line2d_17">
      <path d="M 39.971875 87.786835 
L 272.511875 87.786835 
" clip-path="url(#p93fc616791)" style="fill: none; stroke-dasharray: 2.22,0.96; stroke-dashoffset: 0; stroke: #6c6066; stroke-opacity: 0.4; stroke-width: 0.6"/>
     </g>
     <g id="line2d_18">
      <g>
       <use xlink:href="#m84f0e47d19" x="39.971875" y="87.786835" style="stroke: #000000; stroke-width: 0.8"/>
      </g>
     </g>
     <g id="text_10">
      <!-- 1 -->
      <g transform="translate(26.951562 91.612617) scale(0.1 -0.1)">
       <use xlink:href="#DejaVuSansMono-31"/>
      </g>
     </g>
    </g>
    <g id="ytick_6">
     <g id="line2d_19">
      <path d="M 39.971875 67.123544 
L 272.511875 67.123544 
" clip-path="url(#p93fc616791)" style="fill: none; stroke-dasharray: 2.22,0.96; stroke-dashoffset: 0; stroke: #6c6066; stroke-opacity: 0.4; stroke-width: 0.6"/>
     </g>
     <g id="line2d_20">
      <g>
       <use xlink:href="#m84f0e47d19" x="39.971875" y="67.123544" style="stroke: #000000; stroke-width: 0.8"/>
      </g>
     </g>
     <g id="text_11">
      <!-- 2 -->
      <g transform="translate(26.951562 70.949326) scale(0.1 -0.1)">
       <use xlink:href="#DejaVuSansMono-32"/>
      </g>
     </g>
    </g>
    <g id="ytick_7">
     <g id="line2d_21">
      <path d="M 39.971875 46.460253 
L 272.511875 46.460253 
" clip-path="url(#p93fc616791)" style="fill: none; stroke-dasharray: 2.22,0.96; stroke-dashoffset: 0; stroke: #6c6066; stroke-opacity: 0.4; stroke-width: 0.6"/>
     </g>
     <g id="line2d_22">
      <g>
       <use xlink:href="#m84f0e47d19" x="39.971875" y="46.460253" style="stroke: #000000; stroke-width: 0.8"/>
      </g>
     </g>
     <g id="text_12">
      <!-- 3 -->
      <g transform="translate(26.951562 50.286034) scale(0.1 -0.1)">
       <use xlink:href="#DejaVuSansMono-33"/>
      </g>
     </g>
    </g>
    <g id="ytick_8">
     <g id="line2d_23">
      <path d="M 39.971875 25.796962 
L 272.511875 25.796962 
" clip-path="url(#p93fc616791)" style="fill: none; stroke-dasharray: 2.22,0.96; stroke-dashoffset: 0; stroke: #6c6066; stroke-opacity: 0.4; stroke-width: 0.6"/>
     </g>
     <g id="line2d_24">
      <g>
       <use xlink:href="#m84f0e47d19" x="39.971875" y="25.796962" style="stroke: #000000; stroke-width: 0.8"/>
      </g>
     </g>
     <g id="text_13">
      <!-- 4 -->
      <g transform="translate(26.951562 29.622743) scale(0.1 -0.1)">
       <use xlink:href="#DejaVuSansMono-34"/>
      </g>
     </g>
    </g>
    <g id="text_14">
     <!-- $y$ -->
     <g transform="translate(14.83125 91.82) rotate(-90) scale(0.1 -0.1)">
      <defs>
       <path id="DejaVuSans-Oblique-79" d="M 1588 -325 
Q 1188 -997 936 -1164 
Q 684 -1331 294 -1331 
L -159 -1331 
L -63 -850 
L 269 -850 
Q 509 -850 678 -719 
Q 847 -588 1056 -206 
L 1234 128 
L 459 3500 
L 1069 3500 
L 1650 819 
L 3256 3500 
L 3859 3500 
L 1588 -325 
z
" transform="scale(0.015625)"/>
      </defs>
      <use xlink:href="#DejaVuSans-Oblique-79" transform="translate(0 0.3125)"/>
     </g>
    </g>
   </g>
   <g id="QuadContourSet_1">
    <path clip-path="url(#p93fc616791)" style="fill: none; stroke: #486afb; stroke-width: 2"/>
    <path d="M 134.126081 42.526931 
L 137.672589 38.194937 
L 141.358024 34.062278 
L 145.93947 29.415938 
L 149.886477 25.796962 
L 152.33634 23.730633 
L 154.954218 21.664304 
L 157.780738 19.597975 
L 160.883045 17.531646 
L 164.370719 15.465316 
L 166.54428 14.277089 
L 169.487824 12.885305 
L 173.541087 11.332658 
L 175.374913 10.70278 
L 178.318457 9.937012 
L 181.262002 9.416432 
L 184.205546 9.13752 
L 187.14909 9.133219 
L 190.092634 9.434275 
L 193.036179 10.075336 
L 196.380113 11.332658 
L 198.923267 12.669079 
L 201.866812 14.819641 
L 202.572671 15.465316 
L 204.810356 17.789855 
L 206.211505 19.597975 
L 207.7539 21.977512 
L 208.720522 23.730633 
L 209.693982 25.796962 
L 211.225951 29.92962 
L 212.335346 34.062278 
L 213.077237 38.194937 
L 213.524248 42.327595 
L 213.738744 46.460253 
L 213.735791 50.592911 
L 213.537397 54.72557 
L 213.179196 58.858228 
L 212.654185 62.990886 
L 211.958024 67.123544 
L 211.077888 71.256203 
L 208.980214 79.521519 
L 207.012584 85.720506 
L 205.539562 89.853165 
L 201.264934 100.18481 
L 199.303711 104.317468 
L 193.806716 114.649114 
L 188.681035 122.91443 
L 184.205546 129.242227 
L 181.14526 133.246076 
L 177.754705 137.378734 
L 174.06927 141.511392 
L 169.487824 146.157733 
L 165.540817 149.776709 
L 163.090955 151.843038 
L 160.473077 153.909367 
L 157.646557 155.975696 
L 154.544249 158.042025 
L 151.056576 160.108354 
L 148.883014 161.296582 
L 145.93947 162.688366 
L 141.886208 164.241013 
L 140.052381 164.870891 
L 137.108837 165.636659 
L 134.165293 166.157239 
L 131.221748 166.436151 
L 128.278204 166.440452 
L 125.33466 166.139395 
L 122.391116 165.498334 
L 119.047181 164.241013 
L 116.504027 162.904592 
L 113.560483 160.75403 
L 112.854623 160.108354 
L 110.616938 157.783816 
L 109.21579 155.975696 
L 107.673394 153.596159 
L 106.706772 151.843038 
L 105.733313 149.776709 
L 104.201343 145.644051 
L 103.091948 141.511392 
L 102.350058 137.378734 
L 101.903047 133.246076 
L 101.68855 129.113418 
L 101.691503 124.980759 
L 101.889897 120.848101 
L 102.248099 116.715443 
L 102.773109 112.582785 
L 103.469271 108.450127 
L 104.349406 104.317468 
L 106.44708 96.052152 
L 108.414711 89.853165 
L 109.887732 85.720506 
L 114.16236 75.388861 
L 116.123583 71.256203 
L 121.620578 60.924557 
L 122.943156 58.707737 
L 122.943156 58.707737 
" clip-path="url(#p93fc616791)" style="fill: none; stroke: #486afb; stroke-width: 2"/>
    <path d="M 190.363139 100.824938 
L 187.14909 106.960106 
L 185.115571 110.516456 
L 181.125628 116.715443 
L 178.175101 120.848101 
L 174.944838 124.980759 
L 171.375743 129.113418 
L 167.38192 133.246076 
L 165.185302 135.312405 
L 162.826363 137.378734 
L 160.270618 139.445063 
L 157.454991 141.511392 
L 154.268018 143.577722 
L 150.509515 145.644051 
L 148.883014 146.460029 
L 145.758619 147.71038 
L 142.995926 148.600735 
L 140.052381 149.248241 
L 137.108837 149.58254 
L 134.165293 149.573165 
L 131.221748 149.16783 
L 128.278204 148.286688 
L 125.33466 146.817486 
L 122.391116 144.565858 
L 121.430693 143.577722 
L 119.447571 141.155956 
L 118.368099 139.445063 
L 117.278399 137.378734 
L 116.387344 135.312405 
L 115.666387 133.246076 
L 115.081496 131.179747 
L 114.256336 127.047089 
L 113.809075 122.91443 
L 113.668227 118.781772 
L 113.785437 114.649114 
L 114.130064 110.516456 
L 114.685723 106.383797 
L 115.448233 102.251139 
L 116.504027 97.829112 
L 117.524996 93.985823 
L 118.833371 89.853165 
L 121.094016 83.654177 
L 123.753605 77.45519 
L 126.815116 71.256203 
L 130.311723 65.057215 
L 134.301667 58.858228 
L 137.252193 54.72557 
L 140.482456 50.592911 
L 144.051551 46.460253 
L 148.045374 42.327595 
L 150.241992 40.261266 
L 152.600931 38.194937 
L 155.156676 36.128608 
L 157.972303 34.062278 
L 161.159277 31.995949 
L 164.91778 29.92962 
L 166.54428 29.113642 
L 169.668676 27.863291 
L 172.431369 26.972936 
L 175.374913 26.32543 
L 178.318457 25.991131 
L 181.262002 26.000505 
L 184.205546 26.405841 
L 187.14909 27.286983 
L 190.092634 28.756185 
L 193.036179 31.007813 
L 193.996602 31.995949 
L 195.979723 34.417714 
L 197.059195 36.128608 
L 198.148895 38.194937 
L 199.039951 40.261266 
L 199.760908 42.327595 
L 200.345798 44.393924 
L 201.170958 48.526582 
L 201.61822 52.659241 
L 201.759067 56.791899 
L 201.641858 60.924557 
L 201.29723 65.057215 
L 200.741571 69.189873 
L 199.979061 73.322532 
L 198.923267 77.744559 
L 197.551087 82.748115 
L 197.551087 82.748115 
" clip-path="url(#p93fc616791)" style="fill: none; stroke: #486afb; stroke-width: 2"/>
    <path d="M 128.383981 84.78091 
L 129.687312 81.587848 
L 131.60161 77.45519 
L 134.165293 72.553858 
L 136.110071 69.189873 
L 138.761077 65.057215 
L 141.719992 60.924557 
L 145.042874 56.791899 
L 146.871463 54.72557 
L 148.883014 52.589152 
L 151.826559 49.752151 
L 155.792705 46.460253 
L 158.673238 44.393924 
L 160.657191 43.099925 
L 163.600736 41.486835 
L 166.54428 40.191177 
L 169.487824 39.219486 
L 172.431369 38.612012 
L 175.374913 38.405084 
L 178.318457 38.664143 
L 181.262002 39.492592 
L 184.205546 41.065555 
L 185.728731 42.327595 
L 187.678892 44.393924 
L 189.070033 46.460253 
L 190.169256 48.526582 
L 190.980392 50.592911 
L 191.617503 52.659241 
L 192.104186 54.72557 
L 192.459849 56.791899 
L 192.839047 60.924557 
L 192.850942 65.057215 
L 192.558202 69.189873 
L 191.999028 73.322532 
L 191.19256 77.45519 
L 190.092634 81.753564 
L 188.897544 85.720506 
L 187.14909 90.521738 
L 185.739982 93.985823 
L 183.825684 98.118481 
L 181.262002 103.019813 
L 179.317223 106.383797 
L 176.666218 110.516456 
L 173.707302 114.649114 
L 170.38442 118.781772 
L 168.555831 120.848101 
L 166.54428 122.984519 
L 163.600736 125.821519 
L 159.63459 129.113418 
L 156.754056 131.179747 
L 154.770103 132.473746 
L 151.826559 134.086836 
L 148.883014 135.382493 
L 145.93947 136.354185 
L 142.995926 136.961659 
L 140.052381 137.168586 
L 137.108837 136.909528 
L 134.165293 136.081079 
L 131.221748 134.508116 
L 129.698563 133.246076 
L 127.748403 131.179747 
L 126.357262 129.113418 
L 125.258038 127.047089 
L 124.446902 124.980759 
L 123.809792 122.91443 
L 123.323109 120.848101 
L 122.967446 118.781772 
L 122.588247 114.649114 
L 122.576353 110.516456 
L 122.869092 106.383797 
L 123.247893 103.448426 
L 123.247893 103.448426 
" clip-path="url(#p93fc616791)" style="fill: none; stroke: #486afb; stroke-width: 2"/>
    <path d="M 165.397371 114.047416 
L 164.826987 114.649114 
L 163.600736 115.91075 
L 162.71905 116.715443 
L 160.657191 118.569235 
L 160.381836 118.781772 
L 157.713647 120.830984 
L 157.686582 120.848101 
L 154.770103 122.701893 
L 154.340244 122.91443 
L 151.826559 124.176066 
L 149.577466 124.980759 
L 148.883014 125.235514 
L 145.93947 125.829066 
L 142.995926 125.890398 
L 140.052381 125.295092 
L 139.357929 124.980759 
L 137.108837 123.782866 
L 136.105487 122.91443 
L 134.192358 120.848101 
L 134.165293 120.812247 
L 133.001598 118.781772 
L 132.103434 116.715443 
L 131.443158 114.649114 
L 131.221748 113.688762 
L 131.001626 112.582785 
L 130.727377 110.516456 
L 130.581881 108.450127 
L 130.550763 106.383797 
L 130.622577 104.317468 
L 130.788333 102.251139 
L 131.04113 100.18481 
L 131.221748 99.078833 
L 131.379927 98.118481 
L 131.79969 96.052152 
L 132.290726 93.985823 
L 132.850978 91.919494 
L 133.4797 89.853165 
L 134.165293 87.822689 
L 134.177587 87.786835 
L 134.954587 85.720506 
L 135.794522 83.654177 
L 136.700354 81.587848 
L 137.108837 80.719412 
L 137.686778 79.521519 
L 138.745643 77.45519 
L 139.871763 75.388861 
L 140.052381 75.074528 
L 141.098631 73.322532 
L 142.396754 71.256203 
L 142.995926 70.346564 
L 143.801261 69.189873 
L 145.299602 67.123544 
L 145.93947 66.275238 
L 146.928184 65.057215 
L 148.662892 62.990886 
L 148.883014 62.736131 
L 150.600307 60.924557 
L 151.826559 59.662921 
L 152.708244 58.858228 
L 154.770103 57.004436 
L 155.045458 56.791899 
L 157.713647 54.742687 
L 157.740712 54.72557 
L 160.657191 52.871778 
L 161.087051 52.659241 
L 163.600736 51.397605 
L 165.849828 50.592911 
L 166.54428 50.338156 
L 169.487824 49.744605 
L 172.431369 49.683273 
L 175.374913 50.278579 
L 176.069365 50.592911 
L 178.318457 51.790804 
L 179.321808 52.659241 
L 181.234936 54.72557 
L 181.262002 54.761424 
L 182.425696 56.791899 
L 183.32386 58.858228 
L 183.984136 60.924557 
L 184.205546 61.884909 
L 184.425668 62.990886 
L 184.699917 65.057215 
L 184.845413 67.123544 
L 184.876532 69.189873 
L 184.804717 71.256203 
L 184.638961 73.322532 
L 184.386164 75.388861 
L 184.205546 76.494838 
L 184.047367 77.45519 
L 183.627604 79.521519 
L 183.136568 81.587848 
L 182.576316 83.654177 
L 181.947594 85.720506 
L 181.262002 87.750981 
L 181.249708 87.786835 
L 180.472708 89.853165 
L 179.632772 91.919494 
L 178.72694 93.985823 
L 178.318457 94.854259 
L 177.740516 96.052152 
L 176.735246 98.013893 
" clip-path="url(#p93fc616791)" style="fill: none; stroke: #486afb; stroke-width: 2"/>
    <path d="M 151.748938 70.370208 
L 151.826559 70.27795 
L 152.903392 69.189873 
L 154.770103 67.331753 
L 155.028975 67.123544 
L 157.615342 65.057215 
L 157.713647 64.979399 
L 160.657191 63.199095 
L 161.180166 62.990886 
L 163.600736 62.012634 
L 166.54428 61.478152 
L 169.487824 61.786457 
L 171.908394 62.990886 
L 172.431369 63.329484 
L 173.896611 65.057215 
L 175.116041 67.123544 
L 175.374913 67.75553 
L 175.805102 69.189873 
L 176.197959 71.256203 
L 176.391256 73.322532 
L 176.416427 75.388861 
L 176.297498 77.45519 
L 176.052769 79.521519 
L 175.696039 81.587848 
L 175.374913 83.022192 
L 175.221665 83.654177 
L 174.613476 85.720506 
L 173.920111 87.786835 
L 173.146158 89.853165 
L 172.431369 91.580896 
L 172.278121 91.919494 
L 171.254282 93.985823 
L 170.16568 96.052152 
L 169.487824 97.256581 
L 168.948146 98.118481 
L 167.585794 100.18481 
L 166.54428 101.697544 
L 166.1091 102.251139 
L 164.423782 104.317468 
L 163.600736 105.29572 
L 162.523902 106.383797 
L 160.657191 108.241918 
L 160.398319 108.450127 
L 157.811952 110.516456 
L 157.713647 110.594272 
L 154.770103 112.374576 
L 154.247128 112.582785 
L 151.826559 113.561037 
L 148.883014 114.095519 
L 145.93947 113.787214 
L 143.5189 112.582785 
L 142.995926 112.244187 
L 141.530684 110.516456 
L 140.311254 108.450127 
L 140.052381 107.818141 
L 139.622192 106.383797 
L 139.229335 104.317468 
L 139.036038 102.251139 
L 139.010867 100.18481 
L 139.129797 98.118481 
L 139.374526 96.052152 
L 139.731255 93.985823 
L 140.052381 92.551479 
L 140.205629 91.919494 
L 140.813819 89.853165 
L 141.507183 87.786835 
L 141.755334 87.124312 
" clip-path="url(#p93fc616791)" style="fill: none; stroke: #486afb; stroke-width: 2"/>
    <path d="M 151.741308 91.919494 
L 151.826559 90.973847 
L 151.985008 89.853165 
L 152.689416 87.786835 
L 153.614484 85.720506 
L 154.684853 83.654177 
L 154.770103 83.518408 
L 156.690381 81.587848 
L 157.713647 80.564234 
L 160.319574 79.521519 
L 160.657191 79.38575 
L 160.994809 79.521519 
L 163.335769 81.587848 
L 163.600736 82.708531 
L 163.685986 83.654177 
L 163.600736 84.599824 
L 163.442286 85.720506 
L 162.737878 87.786835 
L 161.812811 89.853165 
L 160.742442 91.919494 
L 160.657191 92.055262 
L 158.736913 93.985823 
L 157.713647 95.009437 
L 155.10772 96.052152 
L 154.770103 96.187921 
L 154.432485 96.052152 
L 152.091525 93.985823 
L 151.826559 92.86514 
L 151.741308 91.919494 
z
" clip-path="url(#p93fc616791)" style="fill: none; stroke: #486afb; stroke-width: 2"/>
    <path clip-path="url(#p93fc616791)" style="fill: none; stroke: #486afb; stroke-width: 2"/>
   </g>
   <g id="patch_3">
    <path d="M 39.971875 170.44 
L 39.971875 7.2 
" style="fill: none; stroke: #000000; stroke-width: 0.6; stroke-linejoin: miter; stroke-linecap: square"/>
   </g>
   <g id="patch_4">
    <path d="M 39.971875 170.44 
L 272.511875 170.44 
" style="fill: none; stroke: #000000; stroke-width: 0.6; stroke-linejoin: miter; stroke-linecap: square"/>
   </g>
   <g id="text_15">
    <g clip-path="url(#p93fc616791)">
     <!-- 0.015 -->
     <g style="fill: #486afb" transform="translate(123.582662 61.768906) rotate(-56.96487) scale(0.08 -0.08)">
      <defs>
       <path id="DejaVuSansMono-2e" d="M 1528 953 
L 2316 953 
L 2316 0 
L 1528 0 
L 1528 953 
z
" transform="scale(0.015625)"/>
       <path id="DejaVuSansMono-35" d="M 647 4666 
L 3009 4666 
L 3009 4134 
L 1222 4134 
L 1222 2988 
Q 1356 3038 1492 3061 
Q 1628 3084 1766 3084 
Q 2491 3084 2916 2656 
Q 3341 2228 3341 1497 
Q 3341 759 2895 334 
Q 2450 -91 1678 -91 
Q 1306 -91 998 -41 
Q 691 9 447 109 
L 447 750 
Q 734 594 1025 517 
Q 1316 441 1619 441 
Q 2141 441 2423 716 
Q 2706 991 2706 1497 
Q 2706 1997 2414 2275 
Q 2122 2553 1600 2553 
Q 1347 2553 1106 2495 
Q 866 2438 647 2322 
L 647 4666 
z
" transform="scale(0.015625)"/>
      </defs>
      <use xlink:href="#DejaVuSansMono-30"/>
      <use xlink:href="#DejaVuSansMono-2e" x="60.205078"/>
      <use xlink:href="#DejaVuSansMono-30" x="120.410156"/>
      <use xlink:href="#DejaVuSansMono-31" x="180.615234"/>
      <use xlink:href="#DejaVuSansMono-35" x="240.820312"/>
     </g>
    </g>
   </g>
   <g id="text_16">
    <g clip-path="url(#p93fc616791)">
     <!-- 0.030 -->
     <g style="fill: #486afb" transform="translate(192.204957 103.978276) rotate(-69.503733) scale(0.08 -0.08)">
      <use xlink:href="#DejaVuSansMono-30"/>
      <use xlink:href="#DejaVuSansMono-2e" x="60.205078"/>
      <use xlink:href="#DejaVuSansMono-30" x="120.410156"/>
      <use xlink:href="#DejaVuSansMono-33" x="180.615234"/>
      <use xlink:href="#DejaVuSansMono-30" x="240.820312"/>
     </g>
    </g>
   </g>
   <g id="text_17">
    <g clip-path="url(#p93fc616791)">
     <!-- 0.045 -->
     <g style="fill: #486afb" transform="translate(124.410352 106.199687) rotate(-75.415804) scale(0.08 -0.08)">
      <use xlink:href="#DejaVuSansMono-30"/>
      <use xlink:href="#DejaVuSansMono-2e" x="60.205078"/>
      <use xlink:href="#DejaVuSansMono-30" x="120.410156"/>
      <use xlink:href="#DejaVuSansMono-34" x="180.615234"/>
      <use xlink:href="#DejaVuSansMono-35" x="240.820312"/>
     </g>
    </g>
   </g>
   <g id="text_18">
    <g clip-path="url(#p93fc616791)">
     <!-- 0.060 -->
     <g style="fill: #486afb" transform="translate(166.826766 117.649276) rotate(-56.438353) scale(0.08 -0.08)">
      <defs>
       <path id="DejaVuSansMono-36" d="M 3097 4563 
L 3097 3981 
Q 2900 4097 2678 4158 
Q 2456 4219 2216 4219 
Q 1616 4219 1306 3767 
Q 997 3316 997 2438 
Q 1147 2750 1412 2917 
Q 1678 3084 2022 3084 
Q 2697 3084 3067 2670 
Q 3438 2256 3438 1497 
Q 3438 741 3056 325 
Q 2675 -91 1984 -91 
Q 1172 -91 794 492 
Q 416 1075 416 2328 
Q 416 3509 870 4129 
Q 1325 4750 2188 4750 
Q 2419 4750 2650 4701 
Q 2881 4653 3097 4563 
z
M 1972 2591 
Q 1569 2591 1337 2300 
Q 1106 2009 1106 1497 
Q 1106 984 1337 693 
Q 1569 403 1972 403 
Q 2391 403 2603 679 
Q 2816 956 2816 1497 
Q 2816 2041 2603 2316 
Q 2391 2591 1972 2591 
z
" transform="scale(0.015625)"/>
      </defs>
      <use xlink:href="#DejaVuSansMono-30"/>
      <use xlink:href="#DejaVuSansMono-2e" x="60.205078"/>
      <use xlink:href="#DejaVuSansMono-30" x="120.410156"/>
      <use xlink:href="#DejaVuSansMono-36" x="180.615234"/>
      <use xlink:href="#DejaVuSansMono-30" x="240.820312"/>
     </g>
    </g>
   </g>
   <g id="text_19">
    <g clip-path="url(#p93fc616791)">
     <!-- 0.075 -->
     <g style="fill: #486afb" transform="translate(141.964843 89.899245) rotate(-60.572515) scale(0.08 -0.08)">
      <defs>
       <path id="DejaVuSansMono-37" d="M 434 4666 
L 3372 4666 
L 3372 4397 
L 1703 0 
L 1044 0 
L 2669 4134 
L 434 4134 
L 434 4666 
z
" transform="scale(0.015625)"/>
      </defs>
      <use xlink:href="#DejaVuSansMono-30"/>
      <use xlink:href="#DejaVuSansMono-2e" x="60.205078"/>
      <use xlink:href="#DejaVuSansMono-30" x="120.410156"/>
      <use xlink:href="#DejaVuSansMono-37" x="180.615234"/>
      <use xlink:href="#DejaVuSansMono-35" x="240.820312"/>
     </g>
    </g>
   </g>
  </g>
 </g>
 <defs>
  <clipPath id="p93fc616791">
   <rect x="39.971875" y="7.2" width="232.54" height="163.24"/>
  </clipPath>
 </defs>
</svg>