<?xml version="1.0" encoding="utf-8"?>
<!-- Generator: Adobe Illustrator 26.0.2, SVG Export Plug-In . SVG Version: 6.00 Build 0)  -->
<svg version="1.1" id="Layer_1" xmlns="http://www.w3.org/2000/svg" xmlns:xlink="http://www.w3.org/1999/xlink" x="0px" y="0px"
	 viewBox="0 0 211.31 109.94" style="enable-background:new 0 0 211.31 109.94;" xml:space="preserve">
<style type="text/css">
	.st0{fill:#486AFB;}
	.st1{fill:#FD46FC;}
</style>
<g>
	<g>
		<path class="st0" d="M55.05,40.9c-7.93,0.45-17.37,1.4-22.14,8.71c-2,3.06-2.78,7.07-1.43,10.55c1.34,3.46,4.41,5.94,7.76,7.35
			c4.05,1.71,8.62,2.13,12.97,2.48c4.5,0.37,9.12,0.33,13.53-0.77c1.87-0.47,3.73-1.18,5.26-2.37c1.59-1.24,2.62-2.98,3.27-4.87
			c1.31-3.79,1.03-8.09-0.59-11.73c-1.5-3.36-4.27-6.15-7.56-7.76c-3.78-1.85-8.12-1.95-12.23-1.39c-1.1,0.15-2.19,0.34-3.28,0.55
			c-0.48,0.09-0.41,0.9,0.1,0.85c4.08-0.39,8.26-1.08,12.3,0.04c3.27,0.9,6.21,3,8.14,5.79c2.09,3.03,2.95,6.8,2.42,10.44
			c-0.27,1.85-0.88,3.76-1.96,5.3c-1.01,1.46-2.57,2.44-4.21,3.05c-3.78,1.42-8.02,1.65-12.02,1.56c-4.11-0.1-8.36-0.42-12.37-1.35
			c-3.52-0.81-7-2.33-9.25-5.27c-2.22-2.89-2.47-6.59-1.1-9.92c3.1-7.51,12.09-9.49,19.32-10.16c1.03-0.1,2.06-0.18,3.09-0.25
			C55.55,41.68,55.59,40.87,55.05,40.9L55.05,40.9z"/>
	</g>
</g>
<g>
	<g>
		<path class="st0" d="M49.23,50.71c0.49,0.3,1.19,0,1.33-0.55c0.06-0.23-0.07-0.43-0.29-0.5c-0.64-0.23-1.34-0.44-2.01-0.18
			c-0.65,0.26-1.09,0.85-0.98,1.57c0.1,0.63,0.64,1.13,1.24,1.29c0.69,0.19,1.44-0.06,2.03-0.44c0.58-0.37,1.17-0.9,1.21-1.64
			c0.04-0.75-0.59-1.26-1.23-1.5c-0.67-0.26-1.43-0.31-2.1-0.01c-0.57,0.26-1.02,0.9-1.02,1.54c0,1.36,1.71,1.87,2.81,1.48
			c0.36-0.13,0.67-0.38,0.78-0.75c0.09-0.3,0.04-0.61-0.1-0.88c-0.26-0.53-0.86-0.9-1.45-0.86c-0.65,0.04-1.29,0.42-1.51,1.06
			c-0.23,0.66,0.18,1.39,0.83,1.62c0.59,0.21,1.24-0.16,1.36-0.77c0.1-0.53-0.15-1.17-0.73-1.28c-0.63-0.13-1.12,0.41-1.14,1.01
			c-0.02,0.64,0.51,1.14,1.15,1.02c0.63-0.11,1.09-0.83,0.95-1.45c-0.16-0.68-0.92-0.97-1.55-0.82c-0.33,0.08-0.59,0.29-0.79,0.56
			c-0.11,0.14-0.11,0.41-0.01,0.56c0.26,0.37,0.71,0.54,1.15,0.4c0.19-0.06,0.35-0.23,0.35-0.44c0-0.18-0.14-0.41-0.33-0.43
			c-0.01,0-0.12-0.01-0.08-0.01c0.04,0-0.09-0.04,0,0.01c-0.03-0.02-0.05-0.04-0.07-0.06c0.04,0.06,0.04,0.05-0.02-0.02
			c-0.06-0.07-0.06-0.08-0.01-0.02c0,0.19,0,0.37-0.01,0.56c-0.09,0.12-0.01,0.02,0.01,0c0.08-0.09-0.11,0.05,0.01,0
			c0.12-0.05,0.01-0.04,0-0.01c0-0.01,0.1-0.03,0.12-0.03c-0.12,0.03-0.05,0-0.01,0c0.03,0,0.07,0,0.1,0
			c-0.14-0.01-0.02,0.01,0.01,0.01c0.06,0.02,0.05,0.02-0.02-0.01c0.02,0.01,0.05,0.02,0.07,0.04c-0.12-0.06-0.03-0.01,0,0.01
			c-0.07-0.05-0.04-0.07-0.02-0.02c0.06,0.13-0.03-0.12,0.01,0.01c0.03,0.11,0.02-0.09,0,0.02c-0.01,0.03-0.04,0.15,0,0.02
			c-0.01,0.04-0.02,0.08-0.03,0.12c0.07-0.16-0.04,0.05,0.01-0.04c0.04-0.06-0.05,0.05-0.07,0.06c0.1-0.09,0.02-0.02-0.02,0
			c0.02-0.01,0.04-0.02,0.06-0.03c-0.06,0.01-0.05,0.01,0.02,0c-0.12-0.04,0.1,0.04-0.03,0c0.11,0.03,0.06,0.03,0.03,0.01
			c-0.1-0.05,0.09,0.07,0.01,0c-0.08-0.07,0.07,0.1,0.01,0.01c-0.05-0.09,0.01,0.11,0,0.01c0-0.04,0-0.16-0.01-0.03
			c0-0.02,0-0.04,0-0.06c0.02-0.11-0.04,0.11,0,0c0.01-0.05,0.05-0.1-0.01,0c0.01-0.02,0.03-0.07,0.05-0.08
			c-0.01,0.02-0.03,0.04-0.04,0.06c0.04-0.04,0.03-0.03-0.04,0.03c0.02-0.01,0.03-0.02,0.05-0.03c-0.02,0.01-0.05,0.02-0.07,0.03
			c0.05-0.01,0.04-0.01-0.04,0c0.06,0,0.04,0-0.03-0.01c0.05,0.01,0.04,0.01-0.04-0.02c0.03,0.01,0.12,0.07-0.01-0.01
			c0.01,0.01,0.01,0.01,0.02,0.02c0.04,0.04,0.03,0.03-0.03-0.04c0,0,0.03,0.04,0.03,0.05c0.05,0.09-0.01-0.11,0-0.01
			c0,0.03,0.01,0.07,0.02,0.09c-0.04-0.19,0.01,0.01-0.01,0c0.03,0.01-0.05,0.17,0,0c-0.01,0.02-0.01,0.08-0.03,0.09
			c0.01-0.02,0.02-0.04,0.03-0.06c-0.01,0.02-0.02,0.04-0.03,0.05c0.1-0.12,0.03-0.03,0-0.01c0.02-0.02,0.04-0.03,0.06-0.05
			c-0.02,0.01-0.04,0.02-0.06,0.03c0.02-0.01,0.04-0.02,0.06-0.03c-0.06,0.01-0.06,0.01,0.01,0c-0.03-0.02-0.05,0,0.01,0.01
			c-0.02,0-0.14-0.05-0.04,0c-0.04-0.02-0.08-0.04-0.11-0.06c0.09,0.06-0.04-0.05-0.06-0.07c0.08,0.08-0.01-0.02-0.02-0.04
			c-0.01-0.03-0.03-0.05-0.04-0.08c0.04,0.11,0-0.03,0-0.05c0.02,0.1,0-0.02,0-0.05c0,0.1,0.01-0.03,0.02-0.05
			c0.03-0.11-0.05,0.05,0.02-0.05c0.02-0.02,0.03-0.05,0.05-0.08c-0.06,0.09,0.05-0.05,0.07-0.06c0.09-0.09-0.08,0.03,0.04-0.03
			c0.04-0.02,0.08-0.05,0.12-0.07c-0.1,0.05,0.03-0.01,0.05-0.01c0.03-0.01,0.06-0.01,0.09-0.02c0.13-0.04-0.08-0.01,0.05-0.01
			c0.05,0,0.09,0,0.14,0c-0.1,0,0.02,0,0.04,0.01c0.03,0.01,0.05,0.01,0.08,0.02c-0.06-0.02-0.06-0.02,0,0
			c0.02,0.01,0.05,0.03,0.07,0.04c0.11,0.06-0.06-0.06,0.03,0.02c0.03,0.03,0.06,0.06,0.09,0.09c0.02,0.02,0.09,0.13,0.02,0.02
			c0.04,0.06,0.07,0.11,0.1,0.18c-0.06-0.12-0.01-0.01,0,0.02c0.01,0.06,0.01,0.05,0-0.02c0,0.02,0,0.05,0,0.07
			c0.01,0.12,0.01-0.11,0,0.01c0.01-0.1,0.02-0.04-0.01,0.01c0.02-0.04,0.07-0.04,0.01-0.02c0.1-0.04-0.05,0.03-0.06,0.03
			c0.1-0.05-0.06,0.01-0.07,0.02c0,0-0.17,0.03-0.08,0.02c-0.09,0.01-0.18,0.02-0.28,0.02c-0.09,0-0.18,0-0.27-0.01
			c0.12,0.01-0.03-0.01-0.04-0.01c-0.04-0.01-0.09-0.02-0.13-0.03c-0.07-0.02-0.14-0.04-0.21-0.06c0.12,0.04-0.01-0.01-0.03-0.02
			c-0.05-0.02-0.1-0.05-0.15-0.08c-0.11-0.06,0.07,0.07-0.02-0.02c-0.02-0.02-0.04-0.04-0.06-0.06c-0.02-0.02-0.09-0.12-0.02-0.02
			c-0.02-0.03-0.04-0.07-0.06-0.11c-0.07-0.1,0.01,0.09-0.01-0.03c0-0.01-0.04-0.16-0.02-0.06c0-0.03,0-0.06,0-0.09
			c0-0.03,0-0.06,0.01-0.09c-0.01,0.05-0.01,0.05,0.01-0.01c0.02-0.04,0.02-0.09,0.04-0.14c-0.04,0.09,0.03-0.05,0.04-0.05
			c0.01-0.01,0.1-0.13,0.03-0.05c0.02-0.02,0.04-0.05,0.07-0.07c0.03-0.03,0.07-0.07,0.11-0.1c-0.09,0.07,0.04-0.02,0.05-0.03
			c0,0,0.15-0.07,0.06-0.03c0.06-0.03,0.13-0.04,0.19-0.06c0.09-0.02,0.12-0.03,0.24-0.03c0.11,0,0.21,0,0.28,0.01
			c0.1,0.01,0.2,0.04,0.29,0.06c0.06,0.02,0.11,0.03,0.17,0.05c0.04,0.01,0.07,0.03,0.11,0.04c-0.05-0.02-0.04-0.02,0.01,0.01
			c0.09,0.04,0.18,0.09,0.27,0.14c0.03,0.02,0.06,0.04,0.08,0.06c-0.08-0.06,0.04,0.04,0.04,0.04c0.01,0.01,0.11,0.13,0.04,0.03
			c0.03,0.04,0.05,0.08,0.07,0.12c0.01,0.01,0.01,0.03,0.02,0.04c-0.02-0.06-0.03-0.05-0.01,0.01c0,0.11,0.01-0.05,0.01,0.07
			c-0.01,0.14,0.04-0.07-0.01,0.06c0,0.01-0.06,0.15-0.02,0.06c-0.02,0.05-0.05,0.09-0.08,0.13c-0.08,0.13,0.06-0.05-0.04,0.06
			c-0.06,0.07-0.12,0.13-0.19,0.19c-0.04,0.04-0.08,0.07-0.12,0.1c0.08-0.07-0.09,0.07-0.11,0.08c-0.1,0.07-0.2,0.13-0.3,0.19
			c-0.05,0.03-0.1,0.06-0.16,0.08c-0.04,0.02-0.07,0.03-0.11,0.05c0.04-0.02,0.03-0.02-0.03,0.01c-0.25,0.08-0.39,0.13-0.65,0.09
			c0.07,0.01-0.08-0.02-0.07-0.02c-0.02-0.01-0.14-0.05-0.05-0.01c-0.04-0.02-0.09-0.04-0.13-0.06c-0.03-0.02-0.05-0.03-0.08-0.05
			c0.04,0.03,0.04,0.03-0.01-0.01c-0.03-0.03-0.07-0.06-0.1-0.1c-0.02-0.02-0.13-0.16-0.07-0.07c-0.02-0.03-0.03-0.05-0.05-0.08
			c-0.02-0.03-0.03-0.05-0.04-0.08c0.02,0.05,0.02,0.05,0,0c-0.01-0.04-0.02-0.09-0.03-0.13c0.02,0.09,0-0.07,0-0.1
			c-0.01,0.08,0,0,0.01-0.01c0.02-0.05,0.02-0.06,0-0.02c0.01-0.03,0.03-0.06,0.04-0.08c0.05-0.1-0.05,0.03,0.04-0.05
			c0.01-0.01,0.15-0.13,0.08-0.08c0.04-0.03,0.08-0.05,0.12-0.07c0.01-0.01,0.14-0.06,0.06-0.03c0.05-0.02,0.09-0.03,0.14-0.04
			c0.03-0.01,0.06-0.01,0.09-0.02c-0.04,0-0.03,0,0.03,0c0.11-0.01,0.22-0.01,0.33,0c0.29,0.03,0.58,0.13,0.86,0.22
			c-0.1-0.17-0.19-0.34-0.29-0.5c-0.01,0.05-0.01,0.05,0,0.01c-0.03,0.04-0.03,0.04,0,0.01c-0.04,0.03-0.04,0.04,0,0.01
			c-0.02,0.01-0.04,0.03-0.07,0.04c0.04-0.02,0.04-0.02-0.01,0c0.04,0,0.04,0-0.01,0c0.03,0,0.01,0-0.02-0.01
			C49.21,49.73,48.78,50.43,49.23,50.71L49.23,50.71z"/>
	</g>
</g>
<g>
	<g>
		<path class="st0" d="M59.77,50.52c0.49-0.05,0.77-0.53,0.65-1c-0.14-0.52-0.69-0.69-1.17-0.69c-0.43,0-0.89,0.06-1.27,0.26
			c-0.43,0.22-0.7,0.69-0.54,1.17c0.17,0.5,0.67,0.78,1.11,1.01c0.5,0.26,1.07,0.43,1.62,0.2c0.55-0.23,0.88-0.77,0.76-1.37
			c-0.1-0.48-0.48-0.9-0.91-1.13c-0.73-0.39-1.72-0.36-2.39,0.14c-0.44,0.32-0.74,0.79-0.81,1.34c-0.07,0.53,0.18,1.08,0.59,1.42
			c0.77,0.65,1.89,0.5,2.62-0.14c0.34-0.3,0.54-0.76,0.57-1.2c0.02-0.47-0.19-0.91-0.5-1.25c-0.61-0.68-1.81-0.87-2.47-0.14
			c-0.42,0.47-0.35,1.1,0.04,1.56c0.37,0.43,0.96,0.55,1.5,0.48c0.31-0.04,0.59-0.14,0.88-0.25c0.23-0.09,0.37-0.25,0.39-0.5
			c0.05-0.55-0.09-1.21-0.56-1.56c-0.49-0.36-1.12-0.27-1.54,0.16c-0.38,0.38-0.56,1-0.28,1.49c0.27,0.49,0.85,0.64,1.37,0.53
			c0.58-0.12,1.07-0.62,1.09-1.23c0.01-0.18-0.1-0.38-0.26-0.45c-0.41-0.19-0.89-0.34-1.35-0.33c-0.51,0.02-0.92,0.37-0.94,0.89
			c-0.02,0.43,0.23,0.82,0.61,1.01c0.22,0.11,0.45,0.15,0.7,0.17c0.32,0.02,0.66,0.03,0.85-0.28c0.42-0.71-0.01-1.72-0.83-1.9
			c-0.92-0.21-1.77,0.68-1.61,1.59c0.14,0.78,1.05,1.27,1.79,1.03c0.73-0.24,1.11-1.03,0.95-1.76c-0.16-0.78-0.99-1.22-1.73-0.97
			c-0.75,0.25-1.34,1.04-1.06,1.84c0.31,0.87,1.4,1.38,2.27,1.03c0.48-0.2,0.91-0.6,0.91-1.16c0-0.21-0.06-0.43-0.17-0.61
			c-0.14-0.22-0.33-0.33-0.57-0.42c-0.23-0.08-0.49,0.1-0.56,0.32c-0.07,0.25,0.08,0.46,0.31,0.54c-0.03-0.01-0.1-0.05-0.05-0.01
			c-0.06-0.05-0.02-0.02,0.01,0.02c-0.01-0.01-0.02-0.08-0.01-0.03c0,0.02,0.01,0.04,0.01,0.05c0,0.01,0.01,0.07,0,0.01
			c0-0.07,0,0.03,0,0.03c-0.02,0.02,0-0.01,0.01-0.03c0,0.02-0.01,0.04-0.01,0.06c0,0.02-0.01,0.04-0.02,0.05
			c0-0.01,0.05-0.08,0.01-0.04c-0.01,0.01-0.02,0.04-0.03,0.05c0.01-0.01,0.06-0.06,0.02-0.03c-0.02,0.01-0.03,0.03-0.05,0.05
			c-0.07,0.07,0.02-0.01,0.02-0.01c0,0-0.11,0.07-0.12,0.07c0,0,0.11-0.04,0.04-0.02c-0.02,0.01-0.04,0.01-0.06,0.02
			c-0.04,0.01-0.09,0.03-0.13,0.04c-0.02,0.01-0.04,0.01-0.07,0.01c-0.08,0.02,0.09,0,0.02,0c-0.04,0-0.09,0-0.13,0
			c-0.02,0-0.04,0-0.06,0c0.12,0,0.05,0.01,0.02,0c-0.04-0.01-0.08-0.02-0.13-0.03c-0.02-0.01-0.04-0.01-0.06-0.02
			c-0.07-0.02,0.08,0.04,0.01,0.01c-0.04-0.02-0.08-0.04-0.11-0.06c-0.02-0.01-0.12-0.08-0.07-0.04c0.06,0.04-0.04-0.04-0.05-0.05
			c-0.01-0.01-0.03-0.03-0.04-0.04c-0.06-0.05-0.01,0.01,0.01,0.02c-0.03-0.02-0.05-0.08-0.07-0.1c-0.01-0.02-0.02-0.04-0.03-0.05
			c-0.04-0.06,0.02,0.05,0.02,0.04c-0.02-0.01-0.02-0.1-0.03-0.12c0,0.01,0,0.1,0,0.04c0-0.02,0-0.05,0-0.07
			c-0.01-0.07,0,0.06-0.01,0.05c0,0,0.01-0.05,0.01-0.05c0,0,0.01-0.05,0.02-0.05c0.01,0-0.05,0.1-0.02,0.05
			c0.02-0.03,0.04-0.06,0.05-0.1c0,0,0.03-0.05,0.03-0.05c0.01,0-0.09,0.09-0.02,0.03c0.03-0.03,0.05-0.05,0.08-0.08
			c0.07-0.07-0.09,0.05,0,0c0.03-0.02,0.07-0.04,0.1-0.06c0.03-0.02,0.06-0.01,0,0c-0.08,0.01-0.01,0,0.02,0
			c0.03-0.01,0.07-0.02,0.11-0.03c0.06-0.02-0.05,0.02-0.06,0.01c0,0,0.05,0,0.06,0c0.02,0,0.04,0,0.06,0c0.04,0,0.04,0.02,0,0
			c-0.09-0.05,0.06,0.04,0.07,0.02c0,0.01-0.1-0.06-0.05-0.02c0.02,0.01,0.03,0.02,0.05,0.03c0.02,0.01,0.03,0.02,0.05,0.03
			c0.05,0.02-0.05-0.03-0.05-0.04c0,0.01,0.06,0.06,0.07,0.07c0.06,0.06-0.07-0.11,0,0c0.01,0.02,0.04,0.09,0.06,0.1
			c0,0-0.04-0.12-0.03-0.06c0,0.02,0.01,0.03,0.02,0.05c0.01,0.03,0.01,0.07,0.02,0.1c0.02,0.09,0-0.12,0,0.01c0,0.03,0,0.07,0,0.1
			c0,0.01-0.01,0.05,0,0.05c0,0,0.02-0.11,0.01-0.06c-0.02,0.07-0.03,0.14-0.05,0.22c-0.03,0.09,0.05-0.09,0-0.01
			c-0.01,0.01-0.02,0.03-0.02,0.04c-0.02,0.05,0.02-0.04,0.04-0.04c-0.01,0-0.06,0.06-0.07,0.07c-0.06,0.06,0.1-0.06-0.01,0
			c0,0-0.05,0.02-0.04,0.02c0-0.01,0.11-0.03,0.05-0.02c-0.02,0-0.13,0.05-0.07,0.02c0.06-0.02-0.04,0-0.07,0c-0.02,0-0.04,0-0.06,0
			c0.04,0,0.07,0.01,0.01,0c-0.04-0.01-0.08-0.02-0.12-0.03c0.08,0.02,0.02,0.01-0.03-0.02c-0.04-0.02-0.1-0.06-0.03-0.01
			c-0.04-0.03-0.07-0.06-0.1-0.09c-0.01-0.01-0.03-0.03-0.04-0.04c0.01,0.01,0.04,0.07,0.02,0.03c-0.01-0.02-0.07-0.12-0.04-0.06
			c0.03,0.05-0.01-0.05-0.02-0.07c-0.01-0.05,0,0.01,0,0.02c0-0.03,0-0.06,0-0.09c0,0.08,0.01-0.03,0.02-0.06
			c0.02-0.05,0,0.01-0.01,0.02c0.02-0.02,0.03-0.05,0.04-0.08c0-0.01,0.05-0.06,0.01-0.02c-0.04,0.05,0.02-0.02,0.03-0.03
			c0.02-0.02,0.03-0.03,0.05-0.05c-0.05,0.05-0.04,0.03,0.01-0.01c0.02-0.01,0.04-0.02,0.06-0.03c0.06-0.03,0.03,0-0.01,0
			c0.02,0,0.05-0.01,0.06-0.02c0.06-0.03-0.07,0-0.01,0c0.02,0,0.05,0,0.06,0c-0.04,0.01-0.07-0.02-0.01,0
			c0.02,0,0.04,0.01,0.05,0.01c0.05,0.01-0.06-0.04-0.02-0.01c0.01,0.01,0.04,0.02,0.05,0.03c0.06,0.03,0,0.01-0.02-0.02
			c0.03,0.03,0.06,0.07,0.09,0.09c0.05,0.04-0.04-0.04-0.03-0.04c0.01,0,0.04,0.06,0.04,0.06c0.01,0.02,0.02,0.04,0.03,0.05
			c0.04,0.05-0.03-0.09-0.01-0.03c0.01,0.04,0.03,0.08,0.04,0.13c0.01,0.02,0.03,0.06,0,0c-0.02-0.05,0-0.01,0,0.02
			c0,0.02,0,0.04,0,0.06c0,0.07-0.01,0,0-0.03c-0.01,0.02-0.01,0.04-0.02,0.05c-0.03,0.06,0.06-0.12,0-0.01
			c0.16-0.09,0.32-0.18,0.47-0.27c-0.12,0.01-0.24,0.01-0.36,0.01c-0.03,0-0.07,0-0.1-0.01c0.05,0,0.04,0-0.02-0.01
			c-0.01,0-0.15-0.05-0.07-0.01c-0.03-0.01-0.06-0.03-0.09-0.05c0.04,0.04,0.05,0.04,0.01,0c-0.07-0.09,0.04,0.08-0.01-0.01
			c-0.03-0.05-0.03-0.04,0,0.02c-0.01-0.02-0.02-0.05-0.02-0.07c-0.01-0.06-0.01-0.05,0,0.02c0-0.05,0-0.05,0-0.01
			c-0.01,0.04-0.01,0.04,0-0.01c-0.03,0.07-0.04,0.07-0.01,0.03c-0.02,0.04-0.06,0.07-0.1,0.09c0.04-0.02,0.04-0.02,0.01-0.01
			c-0.1,0.03-0.03,0.01,0.04,0.01c0.03,0,0.06,0,0.1,0.01c-0.03,0-0.03,0,0,0c0.27,0.04,0.49,0.12,0.68,0.21
			c-0.09-0.15-0.17-0.3-0.26-0.45c-0.01,0.1,0.02-0.12-0.01,0.03c-0.01,0.08,0.06-0.1-0.01,0.02c-0.01,0.02-0.02,0.04-0.03,0.05
			c-0.03,0.05-0.02,0.03,0.03-0.03c-0.01,0-0.09,0.08-0.09,0.09c0.07-0.05,0.08-0.06,0.04-0.03c-0.02,0.01-0.04,0.02-0.06,0.03
			c-0.02,0.01-0.07,0.03-0.09,0.04c0.08-0.03,0.09-0.04,0.04-0.02c-0.02,0.01-0.04,0.01-0.06,0.02c-0.02,0.01-0.04,0.01-0.06,0.01
			c-0.06,0.01-0.04,0.01,0.04-0.01c0,0-0.13,0-0.13,0c0.08,0.01,0.09,0.01,0.04,0c-0.02,0-0.04-0.01-0.06-0.01
			c-0.09-0.01,0.09,0.05,0.01,0c-0.12-0.07,0.04,0.06-0.02-0.01c-0.02-0.01-0.03-0.03-0.05-0.04c-0.04-0.04-0.03-0.03,0.02,0.03
			c-0.01-0.02-0.02-0.04-0.03-0.06c0.03,0.07,0.03,0.09,0.01,0.03c-0.02-0.14-0.02,0.05-0.01-0.03c0-0.02,0-0.04,0-0.07
			c-0.01,0.07-0.01,0.08-0.01,0.05c0.02-0.03,0.02-0.08,0.03-0.11c-0.04,0.13,0,0,0.03-0.04c0.01-0.02,0.03-0.04,0.04-0.06
			C59,49.81,59,49.82,59.03,49.77c0.01-0.01,0.1-0.1,0.1-0.1c-0.07,0.05-0.07,0.06-0.03,0.02c0.02-0.01,0.04-0.02,0.06-0.03
			c0.08-0.05-0.11,0.02,0,0c0.14-0.03-0.06-0.01,0.03-0.01c0.09,0-0.11-0.02,0.03,0.01c-0.07-0.03-0.07-0.03-0.02-0.01
			c0.02,0.01,0.05,0.03,0.07,0.04c-0.1-0.06,0.03,0.04,0.05,0.06c-0.08-0.09,0,0,0.01,0.03c0.01,0.02,0.03,0.05,0.04,0.07
			c-0.02-0.06-0.02-0.06,0-0.01c0.02,0.06,0.03,0.11,0.04,0.17c0.01,0.06,0.01,0.06,0,0c0,0.03,0,0.06,0.01,0.09
			c0,0.12,0,0.23-0.02,0.35c0.13-0.17,0.26-0.33,0.39-0.5c-0.2,0.07-0.4,0.13-0.61,0.19c-0.09,0.02-0.18,0.05-0.28,0.07
			c0.07-0.01-0.05,0-0.07,0c-0.03,0-0.15,0-0.13,0c-0.04,0-0.08-0.01-0.12-0.03c-0.02-0.01-0.11-0.05-0.03-0.01
			c-0.04-0.02-0.08-0.04-0.12-0.06c-0.08-0.05-0.02-0.02-0.01-0.01c-0.03-0.03-0.06-0.06-0.1-0.09c-0.09-0.09,0.02,0.04-0.02-0.02
			c-0.02-0.03-0.04-0.06-0.05-0.09c0.05,0.09-0.01-0.03-0.02-0.06c-0.02-0.07-0.01,0.1,0-0.02c0-0.09-0.04,0.04,0.01-0.05
			c-0.03,0.06,0-0.01,0.01-0.02c0.04-0.09-0.03,0,0.04-0.06c-0.01,0.01,0.11-0.09,0.06-0.06c-0.05,0.03,0.09-0.05,0.08-0.04
			c0.02-0.01,0.13-0.05,0.03-0.02c0.04-0.01,0.07-0.02,0.11-0.03c0.11-0.03-0.08-0.01,0.04,0c0.03,0,0.05,0,0.08,0
			c0.01,0,0.14,0.01,0.04,0c0.03,0,0.06,0.01,0.09,0.02c0.03,0.01,0.06,0.02,0.09,0.02c0.01,0,0.13,0.05,0.04,0.01
			c0.07,0.03,0.14,0.07,0.21,0.11c0.02,0.01,0.04,0.03,0.07,0.04c-0.08-0.05,0.03,0.02,0.03,0.03c0.05,0.04,0.09,0.09,0.14,0.14
			c0.09,0.09-0.04-0.07,0.03,0.03c0.01,0.02,0.03,0.04,0.04,0.07c0.02,0.03,0.04,0.07,0.05,0.1c0.05,0.09-0.01-0.06,0.01,0.03
			c0.01,0.04,0.02,0.07,0.03,0.11c0,0,0.02,0.12,0.01,0.06c-0.01-0.07,0,0.06,0,0.06c0,0.04,0,0.08,0,0.12c0,0.03-0.02,0.08,0,0
			c-0.01,0.04-0.02,0.08-0.03,0.11c-0.01,0.03-0.02,0.06-0.03,0.09c-0.01,0.03-0.01,0.02,0.01-0.03c-0.01,0.02-0.02,0.05-0.04,0.07
			c-0.02,0.03-0.13,0.19-0.05,0.09c-0.04,0.05-0.08,0.1-0.13,0.14c-0.03,0.03-0.06,0.05-0.08,0.08c-0.01,0.01-0.11,0.08-0.04,0.03
			c0.07-0.05-0.03,0.02-0.04,0.03c-0.04,0.02-0.08,0.05-0.12,0.07c-0.03,0.02-0.06,0.03-0.09,0.04c-0.12,0.06,0.11-0.03-0.02,0.01
			c-0.06,0.02-0.12,0.04-0.19,0.05c0,0-0.13,0.03-0.05,0.01c0.08-0.02-0.04,0-0.05,0c-0.08,0.01-0.16,0-0.23,0
			c0.13,0.01-0.06-0.02-0.1-0.03c-0.02-0.01-0.14-0.05-0.03,0c-0.03-0.01-0.07-0.03-0.1-0.05c-0.03-0.02-0.07-0.04-0.1-0.06
			c-0.01-0.01-0.03-0.02-0.04-0.03c0.06,0.05,0.04,0.03-0.07-0.05c0.02,0.02,0.06,0.06,0-0.01c-0.04-0.04-0.09-0.08-0.13-0.13
			c0.01,0.02,0.05,0.07,0-0.01c-0.02-0.04-0.05-0.08-0.07-0.12c-0.07-0.11,0.01,0.05-0.02-0.03c-0.01-0.04-0.02-0.07-0.03-0.11
			c-0.03-0.13-0.01-0.26,0.03-0.42c0.02-0.06,0.05-0.12,0.1-0.2c0.02-0.03,0.04-0.07,0.07-0.1c-0.06,0.08,0.02-0.02,0.03-0.03
			c0.02-0.02,0.16-0.14,0.08-0.08c0.06-0.05,0.13-0.09,0.19-0.12c0.02-0.01,0.05-0.02,0.07-0.03c0.11-0.06-0.09,0.03,0.03-0.01
			c0.06-0.02,0.12-0.04,0.18-0.06c0.03-0.01,0.21-0.04,0.11-0.03c0.08-0.01,0.15-0.01,0.23-0.01c0.04,0,0.08,0,0.12,0
			c0.01,0,0.14,0.02,0.04,0c0.06,0.01,0.13,0.02,0.19,0.04c0.03,0.01,0.2,0.07,0.11,0.03c0.07,0.03,0.14,0.06,0.2,0.1
			c0.03,0.02,0.06,0.04,0.1,0.06c-0.02-0.01-0.07-0.06,0,0c0.05,0.04,0.1,0.08,0.14,0.13c0.03,0.03,0.05,0.06,0.08,0.09
			c-0.07-0.08,0,0.01,0.01,0.03c0.02,0.04,0.04,0.07,0.06,0.11c0.02,0.05,0.03,0.06,0.01,0.03c0.01,0.03,0.02,0.06,0.03,0.1
			c0,0.01,0.02,0.09,0.01,0.03c0,0,0,0.16,0,0.08c0,0.07-0.01,0.05,0,0.01c-0.01,0.02-0.08,0.12-0.01,0.04
			c-0.02,0.02-0.06,0.05-0.07,0.07c-0.03,0.05,0.08-0.04-0.01,0.01c-0.02,0.01-0.14,0.07-0.03,0.02c-0.04,0.02-0.08,0.03-0.12,0.04
			c-0.04,0.01-0.08,0.02-0.13,0.02c0.09-0.01,0.02,0,0,0c-0.1-0.01-0.14,0-0.22-0.02c-0.2-0.04-0.35-0.11-0.54-0.2
			c-0.17-0.08-0.35-0.16-0.5-0.27c0.05,0.04-0.02-0.02-0.03-0.03c-0.01-0.01-0.11-0.11-0.06-0.06c-0.02-0.03-0.04-0.06-0.05-0.09
			c-0.01-0.03-0.01-0.02,0,0.01c-0.01-0.05-0.01-0.05-0.01-0.02c0-0.03,0-0.07,0-0.1c0-0.03,0-0.02,0,0.01c0.01-0.04,0.01-0.04,0,0
			c0-0.01,0.06-0.1,0.01-0.04c0.02-0.03,0.05-0.05,0.07-0.08c-0.06,0.05,0.04-0.02,0.04-0.02c0.03-0.02,0.07-0.04,0.1-0.05
			c-0.06,0.03,0.06-0.02,0.06-0.02c0.04-0.01,0.08-0.02,0.12-0.04c0.17-0.05,0.27-0.06,0.44-0.06c0.17-0.01,0.37-0.02,0.53,0.05
			c0.02,0.01,0.06,0.04,0.08,0.05c0.03,0.02,0.03,0.04,0.01,0c0.01,0.01,0.04,0.1,0.02,0.03c0,0.01,0.02,0.1,0.01,0.04
			c0,0.03,0,0.07,0,0.1c0-0.04,0-0.03-0.01,0.01c0.02-0.03,0.02-0.04,0.01-0.01c-0.01,0.03-0.06,0.06,0,0.01
			c0.04-0.03,0.04-0.03,0.01-0.01c0.02-0.01,0.04-0.02,0.07-0.02c-0.2,0.02-0.37,0.16-0.37,0.36
			C59.41,50.35,59.57,50.54,59.77,50.52L59.77,50.52z"/>
	</g>
</g>
<g>
	<g>
		<path class="st0" d="M53.93,56.92C54.02,56.9,53.97,56.91,53.93,56.92c0.05,0,0.1,0.01,0.15,0.03c-0.06-0.02,0.09,0.05,0.08,0.04
			c0.05,0.02,0.09,0.05,0.14,0.07c0.21,0.1,0.42,0.19,0.65,0.18c0.43-0.01,0.88-0.27,0.9-0.74c0.02-0.46-0.48-0.82-0.83-1.04
			c-0.32-0.2-0.68-0.35-1.05-0.42c-0.75-0.13-1.59,0.04-2.1,0.64c-0.44,0.53-0.64,1.28-0.46,1.96c0.09,0.35,0.29,0.66,0.57,0.88
			c0.39,0.3,0.86,0.42,1.34,0.46c0.71,0.06,1.58-0.1,2.08-0.65c0.3-0.33,0.44-0.76,0.37-1.21c-0.06-0.39-0.3-0.75-0.59-1.01
			c-0.64-0.56-1.76-1.03-2.56-0.54c-0.39,0.24-0.66,0.66-0.72,1.11c-0.05,0.38,0.09,0.74,0.34,1.03c0.51,0.56,1.43,0.65,2,0.14
			c0.57-0.51,0.46-1.45-0.06-1.95c-0.56-0.53-1.44-0.39-1.82,0.27c-0.33,0.57-0.26,1.44,0.38,1.76c0.79,0.4,1.91-0.3,1.69-1.22
			c-0.19-0.78-1.36-0.94-1.8-0.3c-0.15,0.22-0.19,0.48-0.01,0.71c0.13,0.17,0.29,0.3,0.46,0.42c0.34,0.23,0.78,0.34,1.15,0.13
			c0.47-0.27,0.51-0.88,0.17-1.27c-0.31-0.36-0.87-0.4-1.22-0.08c-0.33,0.29-0.38,0.79-0.2,1.17c0.18,0.39,0.63,0.58,1.04,0.48
			c0.39-0.09,0.75-0.42,0.85-0.81c0.11-0.42-0.07-0.86-0.45-1.06c-0.34-0.18-0.78-0.13-1.1,0.06c-0.34,0.21-0.68,0.72-0.45,1.12
			c0.14,0.24,0.51,0.33,0.76,0.4c0.24,0.06,0.48,0.09,0.73,0.09c0.44,0,0.58-0.69,0.12-0.79c-0.34-0.08-0.64-0.2-0.94-0.36
			c0.08,0.14,0.16,0.27,0.24,0.41c0-0.02,0-0.03,0-0.05c0.01-0.06-0.02,0.09-0.01,0.03c0-0.01,0.01-0.03,0.01-0.04
			c0,0-0.04,0.09-0.02,0.05c0.01-0.02,0.05-0.07,0-0.01c-0.04,0.06-0.01,0.01,0,0c0.01-0.01,0.03-0.02,0.03-0.03
			c0.02-0.04-0.1,0.05-0.02,0.02c0.01-0.01,0.08-0.04,0.08-0.04c0,0.01-0.1,0.03-0.05,0.02c0.02,0,0.04-0.01,0.06-0.02
			c0,0,0.05-0.01,0.05-0.01c0,0.02-0.1-0.01-0.05,0.01c0.02,0,0.05,0,0.06,0c0.04-0.01-0.07-0.02-0.03,0c0.03,0.01,0.15,0.03,0.01,0
			c0.06,0.01,0.06,0.05,0-0.01c0.03,0.03,0,0.03,0-0.01c-0.01-0.01-0.01-0.02-0.02-0.03c0.01,0.01,0.02,0.03,0.03,0.04
			c0.02,0.05-0.01-0.04-0.01-0.04c0.01,0.06,0,0,0-0.03c0,0.02,0,0.05,0,0.07c0-0.01,0.02-0.09,0.01-0.04
			c-0.01,0.04-0.06,0.12,0,0.03c-0.02,0.03-0.04,0.06-0.05,0.09c0-0.01,0.06-0.06,0.02-0.03c-0.02,0.02-0.04,0.04-0.06,0.06
			c-0.06,0.06,0.07-0.03-0.01,0c-0.02,0.01-0.04,0.02-0.06,0.03c0,0,0.09-0.04,0.04-0.02c-0.01,0.01-0.03,0.01-0.05,0.01
			c0.01,0,0.11-0.01,0.02-0.01c-0.03,0-0.04,0.01-0.01,0c0.05-0.02-0.02-0.01,0.02,0c0.06,0.02-0.02-0.04,0.01,0.01
			c0.03,0.04,0,0-0.01-0.01c-0.06-0.06,0.04,0.06-0.01-0.02c-0.04-0.06,0-0.01,0,0.01c0-0.02-0.01-0.03-0.01-0.05
			c0-0.02-0.01-0.03-0.01-0.05c0.01,0.08,0.02-0.01,0,0.03c-0.03,0.07,0.03-0.1,0-0.02c-0.02,0.06,0.01-0.01,0.02-0.02
			c0.03-0.04-0.02,0.03-0.02,0.03c0.04-0.05-0.03,0.01-0.07,0.03c0.08-0.03,0.01,0-0.02,0c0.05,0.01,0.02,0-0.01,0
			c0.01,0,0.07,0.01,0.01,0c-0.05-0.01,0.02,0.04-0.01,0c-0.03-0.04,0.03,0.04,0.05,0.05c0.05,0.04-0.04-0.07-0.01-0.01
			c0.03,0.05-0.01-0.03-0.01-0.03c0,0.01,0.01,0.06,0.01,0.01c0-0.08-0.03,0.09,0-0.04c0,0,0.03-0.08,0.01-0.03
			c-0.02,0.04,0.03-0.03,0.04-0.04c0.04-0.04,0.01-0.01-0.01,0c0.06-0.02,0.07-0.03,0.04-0.02c-0.02,0.01-0.02,0.01,0.01,0
			c0.01,0.01,0.04-0.01-0.01,0c-0.07,0.01,0.03,0.01-0.01,0c-0.02-0.01-0.13-0.05-0.06-0.02c-0.05-0.02-0.1-0.05-0.15-0.08
			c-0.02-0.01-0.04-0.02-0.05-0.04c-0.06-0.04,0.07,0.06-0.03-0.02c-0.09-0.07-0.17-0.15-0.24-0.24c0.04,0.14,0.07,0.28,0.11,0.42
			c0-0.01,0.01-0.03,0.01-0.04c0.02-0.06-0.04,0.08-0.01,0.03c0.01-0.02-0.06,0.07,0,0.01c0.04-0.04-0.08,0.06-0.03,0.03
			c0.01-0.01,0.03-0.01,0.04-0.02c-0.09,0.04-0.04,0.03,0.02,0.01c-0.06,0.02-0.06,0,0,0.01c0.02,0,0.04,0,0.06,0
			c-0.01,0-0.08-0.02-0.04,0c0.04,0.02,0.1,0.04,0.02,0c0.03,0.01,0.06,0.04,0.09,0.05c0.05,0.01-0.05-0.06-0.03-0.02
			c0.01,0.01,0.02,0.02,0.03,0.03c0.05,0.06-0.05-0.1,0,0.01c0.02,0.05-0.02-0.05-0.02-0.05c0,0,0.01,0.04,0.01,0.04
			c0,0.01,0,0.01,0,0.02c0-0.05-0.01-0.06-0.01-0.03c0,0.06,0.02-0.07,0-0.01c0,0.02-0.01,0.03-0.01,0.05
			c0.01-0.07,0.03-0.05,0-0.01c-0.01,0.01-0.02,0.03-0.03,0.05c-0.02,0.04,0.01-0.02,0.02-0.03c-0.01,0.01-0.1,0.11-0.06,0.06
			c0.04-0.04,0,0-0.01,0.01c-0.03,0.02-0.06,0.03-0.08,0.05c-0.04,0.03,0.02-0.01,0.03-0.01c-0.02,0-0.04,0.01-0.05,0.02
			c-0.01,0-0.09,0.02-0.03,0.01c0.05-0.01,0,0-0.02,0c-0.02,0-0.04,0-0.06,0c-0.07,0,0.07,0.01,0,0c-0.02,0-0.04-0.01-0.05-0.01
			c0.03,0.01,0.04,0.03,0.01,0c-0.01-0.01-0.04-0.03-0.05-0.03c0.01,0,0.05,0.06,0.03,0.02c-0.02-0.03-0.05-0.05-0.07-0.07
			c0.05,0.05,0.03,0.05,0.01,0c-0.01-0.02-0.02-0.04-0.03-0.05c0.02,0.03,0.02,0.08,0.01,0.02c0-0.03-0.01-0.08-0.03-0.1
			c-0.02-0.04,0,0.02,0,0.03c0-0.02,0-0.03,0-0.05c0-0.04,0-0.07,0-0.11c0-0.01,0.01-0.06,0-0.01c-0.01,0.06,0.01-0.03,0.01-0.04
			c0.01-0.03,0.02-0.06,0.03-0.09c0.01-0.02,0.01-0.04,0.02-0.06c0,0.01-0.04,0.06-0.01,0.03c0.02-0.02,0.04-0.07,0.05-0.09
			c0.03-0.06-0.05,0.05,0.02-0.02c0.02-0.02,0.05-0.05,0.08-0.07c-0.01,0.01-0.07,0.04-0.03,0.03c0.01,0,0.04-0.02,0.05-0.03
			c0.03-0.03-0.03,0.01-0.04,0.02c0.01,0,0.03-0.01,0.04-0.01c0.1-0.03-0.06,0,0.04-0.01c0.02,0,0.03,0,0.05,0
			c-0.08,0-0.04-0.01-0.01,0c0.03,0.01,0.06,0.02,0.09,0.03c-0.09-0.03-0.01,0.02,0.03,0.02c0.04,0.01-0.01-0.01-0.02-0.02
			c0.02,0.02,0.04,0.03,0.06,0.05c0.02,0.02,0.04,0.05,0.07,0.07c0.04,0.04-0.04-0.07-0.01-0.01c0.01,0.01,0.02,0.03,0.03,0.04
			c0.02,0.03,0.03,0.07,0.06,0.11c0.03,0.04-0.01-0.03-0.01-0.03c0.01,0.02,0.02,0.04,0.02,0.06c0.01,0.04,0.02,0.08,0.03,0.12
			c0.02,0.1,0.01-0.04,0.01,0.03c0,0.03,0,0.07,0,0.1c0,0.02,0,0.04-0.01,0.07c0-0.03,0.02-0.07,0-0.02
			c-0.01,0.02-0.05,0.13-0.02,0.07c0.03-0.06-0.03,0.03-0.03,0.05c-0.02,0.05,0.06-0.05,0.01-0.02c-0.01,0.01-0.02,0.03-0.04,0.04
			c-0.01,0.01-0.03,0.02-0.04,0.04c-0.03,0.04,0.08-0.04,0-0.01c-0.05,0.02-0.08,0.03,0,0.01c-0.04,0.01-0.07,0.02-0.11,0.03
			c-0.1,0.03,0.05,0.01-0.03,0c-0.04,0-0.08,0-0.12,0c-0.11,0,0.04,0.02-0.04,0c-0.04-0.01-0.08-0.02-0.12-0.03
			c-0.02,0-0.03-0.01-0.05-0.02c0.01,0,0.07,0.04,0.03,0.01c-0.04-0.02-0.08-0.04-0.12-0.07c-0.02-0.01-0.03-0.02-0.04-0.03
			c0.01,0.01,0.07,0.06,0.01,0.01c-0.03-0.02-0.05-0.05-0.08-0.07c-0.02-0.02-0.03-0.04-0.05-0.05c0.01,0,0.04,0.07,0.02,0.02
			c-0.02-0.04-0.05-0.09-0.07-0.12c-0.03-0.04,0.01,0.02,0.01,0.03c0-0.02-0.01-0.03-0.02-0.05c-0.01-0.02-0.02-0.12-0.02-0.05
			c-0.01-0.13,0-0.15,0.02-0.24c0-0.01,0.03-0.08,0-0.02c0.01-0.02,0.02-0.04,0.03-0.06c0.01-0.02,0.08-0.12,0.04-0.07
			c0.03-0.03,0.06-0.06,0.09-0.1c0.01-0.01,0.07-0.05,0.01-0.01c0.02-0.02,0.05-0.03,0.07-0.05c0.02-0.01,0.04-0.02,0.06-0.03
			c0.06-0.03-0.06,0.02,0.01,0c0.04-0.01,0.07-0.02,0.11-0.03c0.12-0.02,0.24,0,0.35,0.03c0.1,0.02,0.26,0.08,0.31,0.1
			c0.04,0.02,0.18,0.08,0.26,0.13c0.08,0.04,0.2,0.12,0.25,0.15c0.04,0.03,0.15,0.13,0.21,0.19c0.02,0.02,0.1,0.12,0.05,0.06
			c0.03,0.03,0.05,0.07,0.07,0.11c0.03,0.04,0.05,0.09,0.07,0.13c0.02,0.05,0-0.01-0.01-0.02c0.01,0.03,0.02,0.07,0.03,0.1
			c0,0.02,0.02,0.12,0.02,0.08c0-0.05,0,0.02,0,0.02c0,0.03,0,0.06,0,0.08c0,0.08,0.01-0.02-0.01,0.05
			c-0.01,0.03-0.06,0.15-0.02,0.07c-0.02,0.04-0.04,0.08-0.06,0.11c-0.01,0.02-0.02,0.03-0.03,0.05c0.01-0.02,0.07-0.07,0.01-0.01
			c-0.03,0.03-0.05,0.05-0.08,0.08c-0.02,0.02-0.04,0.03-0.06,0.05c0.03-0.03,0.06-0.04,0.01-0.01c-0.07,0.04-0.15,0.08-0.22,0.12
			c-0.05,0.03,0.02-0.01,0.03-0.01c-0.02,0.01-0.05,0.02-0.08,0.03c-0.05,0.02-0.1,0.03-0.16,0.05c-0.09,0.02-0.17,0.04-0.26,0.06
			c-0.05,0.01,0.01,0,0.02,0c-0.03,0-0.05,0.01-0.08,0.01c-0.05,0-0.1,0.01-0.14,0.01c-0.42,0.02-0.84-0.02-1.19-0.24
			c-0.09-0.06-0.03-0.02-0.01-0.01c-0.01-0.01-0.03-0.02-0.04-0.04c-0.03-0.03-0.06-0.06-0.09-0.09c-0.02-0.03-0.06-0.08-0.02-0.02
			c-0.03-0.04-0.05-0.08-0.08-0.12c-0.01-0.02-0.06-0.12-0.04-0.08c0.02,0.04-0.02-0.07-0.03-0.08c-0.02-0.08-0.04-0.16-0.05-0.25
			c0.01,0.07,0-0.02,0-0.04c0-0.04,0-0.09,0-0.13c0-0.04,0.01-0.09,0.01-0.13c-0.01,0.07,0.01-0.07,0.02-0.08
			c0.02-0.08,0.04-0.16,0.07-0.23c0.02-0.04,0,0,0,0.01c0.01-0.02,0.02-0.03,0.02-0.05c0.02-0.04,0.05-0.09,0.07-0.13
			c0.02-0.04,0.05-0.07,0.07-0.11c0.04-0.06-0.02,0.02,0.03-0.04c0.03-0.03,0.06-0.06,0.09-0.1c0.01-0.01,0.03-0.03,0.04-0.04
			c0,0,0.08-0.07,0.04-0.04c-0.04,0.03,0.01-0.01,0.02-0.01c0.02-0.01,0.04-0.03,0.06-0.04c0.04-0.02,0.07-0.04,0.11-0.06
			c0.08-0.04,0.11-0.06,0.23-0.09c0.35-0.1,0.72-0.07,1.1,0.08c0.03,0.01,0.15,0.07,0.21,0.1c0.09,0.05,0.19,0.11,0.24,0.15
			c0.08,0.06,0.15,0.13,0.22,0.19c0.08,0.08,0.11,0.14,0.17,0.2c0.04,0.04,0,0.02,0,0.01c0.01-0.02-0.01-0.07,0-0.09
			c0.01-0.02,0.07-0.13,0.03-0.07c0.04-0.05,0.05-0.04,0.01-0.02c0.01-0.01,0.07-0.01,0.03-0.01c-0.01,0-0.04,0.01-0.05,0.01
			c-0.1,0.03,0.04,0-0.01,0c-0.02,0-0.12-0.01-0.07,0c0.07,0.01-0.1-0.04-0.02-0.01c-0.11-0.05-0.21-0.11-0.32-0.16
			c-0.27-0.13-0.55-0.2-0.85-0.13c-0.23,0.05-0.39,0.32-0.33,0.54C53.45,56.85,53.7,56.97,53.93,56.92L53.93,56.92z"/>
	</g>
</g>
<g>
	<g>
		<path class="st0" d="M53.24,58.3c0.05,0.88,0.06,1.77,0.03,2.65c-0.02,0.43-0.04,0.87-0.08,1.3c-0.02,0.22-0.04,0.43-0.06,0.65
			c-0.03,0.26-0.08,0.51,0.08,0.74c0.19,0.27,0.52,0.31,0.77,0.09c0.22-0.2,0.24-0.46,0.27-0.73c0.03-0.23,0.05-0.46,0.08-0.7
			c0.04-0.43,0.07-0.87,0.08-1.3c0.03-0.9,0.01-1.8-0.05-2.7c-0.02-0.3-0.23-0.55-0.55-0.55C53.53,57.74,53.22,57.99,53.24,58.3
			L53.24,58.3z"/>
	</g>
</g>
<g>
	<g>
		<path class="st0" d="M53.28,58.65c0.05,0.92,0.08,1.83,0.06,2.75c-0.01,0.45-0.02,0.9-0.03,1.35c-0.01,0.44-0.14,1.02,0.09,1.42
			c0.19,0.32,0.6,0.26,0.8-0.01c0.25-0.36,0.17-0.94,0.18-1.36c0.01-0.47,0-0.93-0.02-1.4c-0.04-0.92-0.11-1.83-0.2-2.75
			c-0.02-0.23-0.17-0.42-0.42-0.42C53.51,58.22,53.27,58.42,53.28,58.65L53.28,58.65z"/>
	</g>
</g>
<g>
	<g>
		<path class="st0" d="M53.61,64.28c0.69,1.07,1.9,1.77,3.19,1.77c0.63,0,1.29-0.2,1.82-0.53c0.52-0.32,1.13-0.87,1.27-1.48
			c0.12-0.49-0.45-0.76-0.81-0.45c-0.34,0.3-0.6,0.66-1.01,0.91c-0.39,0.23-0.8,0.38-1.26,0.41c-0.91,0.06-1.82-0.37-2.33-1.12
			C54.13,63.25,53.27,63.74,53.61,64.28L53.61,64.28z"/>
	</g>
</g>
<g>
	<g>
		<path class="st0" d="M53.63,63.7c0.17,0,0.18-0.26,0.01-0.26C53.47,63.44,53.46,63.7,53.63,63.7L53.63,63.7z"/>
	</g>
</g>
<g>
	<g>
		<path class="st0" d="M52.62,63.68c-0.47,0.82-1.38,1.33-2.32,1.31c-0.45-0.01-0.89-0.17-1.28-0.41c-0.43-0.27-0.69-0.67-1.04-1.03
			c-0.23-0.24-0.6,0.03-0.55,0.32c0.11,0.6,0.63,1.11,1.11,1.45c0.51,0.37,1.11,0.57,1.74,0.63c1.31,0.11,2.6-0.64,3.25-1.76
			C53.88,63.59,52.95,63.1,52.62,63.68L52.62,63.68z"/>
	</g>
</g>
<g>
	<g>
		<path class="st0" d="M54.43,58.31c0.17-0.05,0.3-0.13,0.43-0.24c0.05-0.04,0.08-0.08,0.12-0.13c0.04-0.05,0.08-0.1,0.1-0.15
			c0.08-0.15,0.11-0.28,0.13-0.45c0.01-0.06,0-0.12-0.01-0.18c-0.01-0.06-0.01-0.12-0.03-0.18c-0.02-0.04-0.04-0.09-0.05-0.13
			c-0.03-0.07-0.08-0.12-0.14-0.16c-0.1-0.07-0.2-0.1-0.33-0.11c-0.24-0.02-0.47,0.05-0.69,0.14c-0.17,0.08-0.34,0.2-0.46,0.34
			c-0.16,0.18-0.27,0.37-0.35,0.59c-0.08,0.22-0.08,0.45-0.05,0.68c-0.01-0.04-0.01-0.09-0.02-0.13c0,0.01,0,0.01,0,0.02
			c0.01,0.17,0.07,0.31,0.21,0.41c0.14,0.1,0.28,0.12,0.45,0.09c0.31-0.06,0.6-0.19,0.85-0.37c0.14-0.1,0.29-0.21,0.41-0.34
			c0.1-0.11,0.18-0.24,0.22-0.39c0.03-0.13,0.04-0.25,0.01-0.38c-0.03-0.16-0.13-0.32-0.26-0.42c-0.12-0.1-0.19-0.13-0.34-0.19
			c-0.08-0.03-0.17-0.04-0.26-0.04c-0.37-0.03-0.72,0.18-0.91,0.5c-0.11,0.19-0.16,0.39-0.19,0.61c-0.02,0.14-0.03,0.27-0.04,0.41
			c0.01,0.05,0.01,0.1,0.02,0.15c0.02,0.08,0.05,0.15,0.1,0.2c0.03,0.04,0.06,0.08,0.11,0.1c0.06,0.05,0.12,0.08,0.2,0.1
			c0.02,0.01,0.03,0.01,0.05,0.01c0.06,0.01,0.12,0.02,0.19,0.02c0.13-0.01,0.25-0.04,0.37-0.11c0.05-0.03,0.11-0.08,0.15-0.12
			c0.03-0.03,0.05-0.06,0.08-0.09c0.07-0.1,0.1-0.15,0.15-0.28c0.03-0.07,0.04-0.16,0.05-0.23c0.01-0.13-0.02-0.27-0.08-0.38
			c-0.06-0.11-0.15-0.21-0.26-0.27c-0.08-0.04-0.15-0.06-0.23-0.07c-0.13-0.02-0.26-0.01-0.37,0.07c0.14-0.02,0.28-0.04,0.42-0.06
			c-0.1-0.02-0.2-0.02-0.3,0.01c-0.05,0.02-0.11,0.04-0.15,0.07c-0.09,0.07-0.17,0.14-0.21,0.24c-0.04,0.09-0.06,0.21-0.03,0.31
			c0,0.01,0,0.02,0.01,0.02c-0.01-0.04-0.01-0.09-0.02-0.13c0,0.03,0,0.05,0.01,0.08c0.01,0.08,0.03,0.14,0.07,0.21
			c0-0.18,0-0.36,0.01-0.54c-0.06,0.1-0.07,0.19-0.08,0.3c0.01-0.05,0.01-0.1,0.02-0.15c-0.01,0.07-0.02,0.13-0.02,0.19
			c0,0.07,0.01,0.14,0.02,0.21c-0.01-0.05-0.01-0.1-0.02-0.16c0,0.03,0,0.05,0,0.08c0.01-0.05,0.02-0.1,0.02-0.15
			c0,0.03-0.01,0.06-0.02,0.09c0.02-0.05,0.04-0.09,0.06-0.14c-0.01,0.02-0.02,0.04-0.03,0.06c0.03-0.04,0.06-0.08,0.1-0.12
			c-0.01,0.02-0.03,0.04-0.05,0.05c0.04-0.03,0.09-0.07,0.13-0.1c-0.01,0.01-0.02,0.02-0.04,0.02c0.05-0.02,0.1-0.04,0.15-0.06
			c-0.01,0-0.02,0.01-0.03,0.01c0.05-0.01,0.1-0.01,0.15-0.02c-0.01,0-0.02,0-0.04,0c0.05,0.01,0.1,0.01,0.15,0.02
			c-0.01,0-0.01,0-0.02,0c0.14,0.14,0.27,0.27,0.41,0.41c0-0.03-0.01-0.06-0.01-0.09c0.01,0.05,0.01,0.1,0.02,0.15
			c-0.01-0.12-0.02-0.23,0-0.34c-0.01,0.05-0.01,0.09-0.02,0.14c0.01-0.07,0.03-0.14,0.06-0.21c-0.02,0.04-0.04,0.09-0.06,0.13
			c0.02-0.04,0.04-0.08,0.07-0.12c-0.03,0.04-0.06,0.08-0.09,0.11c0.03-0.03,0.06-0.07,0.09-0.1c-0.04,0.03-0.08,0.06-0.12,0.09
			c0.02-0.02,0.05-0.03,0.08-0.04c-0.05,0.02-0.09,0.04-0.14,0.06c0.03-0.01,0.07-0.02,0.1-0.03c-0.05,0.01-0.1,0.01-0.15,0.02
			c0.04,0,0.08,0,0.12,0c-0.05-0.01-0.1-0.01-0.14-0.02c0.05,0.01,0.09,0.02,0.13,0.03c-0.04-0.02-0.09-0.04-0.13-0.05
			c0.03,0.01,0.07,0.03,0.1,0.05c-0.04-0.03-0.08-0.06-0.12-0.09c0.02,0.02,0.04,0.04,0.06,0.06c-0.03-0.04-0.06-0.08-0.09-0.12
			c0.01,0.02,0.03,0.04,0.03,0.06c-0.02-0.05-0.04-0.09-0.06-0.14c0.01,0.02,0.01,0.04,0.01,0.06c-0.01-0.05-0.01-0.1-0.02-0.14
			c0,0.02,0,0.04,0,0.06c0.01-0.05,0.01-0.09,0.02-0.14c0,0.02-0.01,0.04-0.02,0.06c0.02-0.04,0.04-0.09,0.06-0.13
			c-0.01,0.03-0.03,0.06-0.05,0.09c0.03-0.04,0.06-0.08,0.09-0.12c-0.07,0.08-0.15,0.15-0.24,0.22c0.04-0.03,0.08-0.06,0.12-0.09
			c-0.1,0.08-0.22,0.15-0.33,0.21c-0.12,0.06-0.23,0.13-0.35,0.18c0.04-0.02,0.09-0.04,0.13-0.06c-0.02,0.01-0.03,0.01-0.05,0.02
			c0.21,0.12,0.43,0.24,0.64,0.36c0,0,0-0.01,0-0.01c0.01,0.04,0.01,0.09,0.02,0.13c-0.01-0.07,0-0.14,0.01-0.21
			c-0.01,0.04-0.01,0.09-0.02,0.13c0.01-0.07,0.03-0.15,0.06-0.22c-0.02,0.04-0.04,0.08-0.05,0.13c0.03-0.08,0.08-0.15,0.13-0.22
			c-0.03,0.04-0.06,0.07-0.09,0.11c0.06-0.08,0.13-0.14,0.2-0.2c-0.04,0.03-0.08,0.06-0.12,0.09c0.08-0.06,0.16-0.11,0.25-0.15
			c-0.05,0.02-0.09,0.04-0.14,0.06c0.07-0.03,0.14-0.05,0.22-0.06c-0.05,0.01-0.09,0.01-0.14,0.02c0.06-0.01,0.12-0.01,0.18,0
			c-0.17-0.13-0.35-0.27-0.52-0.4c0.01,0.04,0.02,0.08,0.03,0.12c-0.01-0.05-0.01-0.09-0.02-0.14c0,0.04,0,0.08,0,0.13
			c0.01-0.05,0.01-0.09,0.02-0.14c-0.01,0.05-0.02,0.09-0.04,0.13c0.02-0.04,0.04-0.09,0.06-0.13c-0.02,0.04-0.04,0.08-0.07,0.12
			c0.03-0.04,0.06-0.07,0.09-0.11c-0.03,0.04-0.06,0.07-0.1,0.1c0.04-0.03,0.08-0.06,0.12-0.09c-0.03,0.03-0.07,0.05-0.11,0.06
			c0.05-0.02,0.09-0.04,0.14-0.06c-0.01,0.01-0.03,0.01-0.04,0.01c-0.14,0.04-0.27,0.13-0.34,0.26c-0.07,0.11-0.1,0.27-0.06,0.4
			c0.04,0.13,0.12,0.26,0.25,0.33C54.15,58.33,54.29,58.35,54.43,58.31L54.43,58.31z"/>
	</g>
</g>
<g>
	<g>
		<path class="st0" d="M63.78,56.74c3.03-0.32,6.05-0.67,9.07-1.04c1.42-0.18,2.84-0.36,4.26-0.55c1.51-0.21,3.15-0.3,4.62-0.74
			c0.32-0.1,0.29-0.58-0.07-0.58c-1.45-0.01-2.96,0.34-4.4,0.53c-1.51,0.2-3.02,0.41-4.53,0.6c-2.98,0.38-5.96,0.73-8.95,1.05
			C63.32,56.05,63.29,56.79,63.78,56.74L63.78,56.74z"/>
	</g>
</g>
<g>
	<g>
		<path class="st0" d="M63.53,61.03c3.35,0.44,6.71,0.91,10.06,1.38c1.64,0.23,3.27,0.46,4.9,0.7c1.65,0.24,3.32,0.6,4.99,0.66
			c0.29,0.01,0.36-0.42,0.08-0.5c-1.62-0.44-3.35-0.58-5-0.82c-1.68-0.24-3.35-0.48-5.03-0.7c-3.3-0.44-6.6-0.85-9.91-1.24
			C63.31,60.48,63.23,60.99,63.53,61.03L63.53,61.03z"/>
	</g>
</g>
<g>
	<g>
		<path class="st0" d="M41.93,55.29c-2.38,0.06-4.76,0.13-7.14,0.18c-1.15,0.02-2.3,0.05-3.44,0.07c-1.14,0.02-2.43-0.13-3.54,0.12
			c-0.34,0.08-0.39,0.64-0.01,0.7c1.12,0.19,2.4-0.03,3.54-0.07c1.15-0.04,2.3-0.07,3.45-0.11c2.38-0.08,4.76-0.14,7.14-0.2
			C42.36,55.97,42.39,55.28,41.93,55.29L41.93,55.29z"/>
	</g>
</g>
<g>
	<g>
		<path class="st0" d="M41.15,59.62c-3.02,0.82-6.03,1.64-9.05,2.44c-1.49,0.4-2.98,0.8-4.47,1.19c-1.52,0.41-3.08,0.76-4.57,1.28
			c-0.35,0.12-0.23,0.61,0.14,0.54c1.51-0.29,2.99-0.75,4.48-1.15c1.53-0.41,3.06-0.82,4.58-1.24c3.02-0.81,6.04-1.61,9.05-2.41
			C41.74,60.17,41.58,59.51,41.15,59.62L41.15,59.62z"/>
	</g>
</g>
<g>
	<g>
		<path class="st0" d="M64.12,41.58c1.85-1.98,3.74-3.91,5.68-5.8c0.96-0.93,1.92-1.85,2.9-2.76c0.98-0.91,2.13-1.79,2.96-2.85
			c0.21-0.27-0.05-0.71-0.39-0.5c-1.12,0.67-2.09,1.69-3.05,2.57c-1.01,0.93-2.01,1.87-2.99,2.83c-1.97,1.91-3.9,3.86-5.78,5.86
			C63.03,41.38,63.7,42.02,64.12,41.58L64.12,41.58z"/>
	</g>
</g>
<g>
	<g>
		<path class="st0" d="M75.18,30.36c-1.16,2.31-2.31,4.61-3.49,6.91c-0.57,1.11-1.14,2.22-1.7,3.34c-0.57,1.14-1.21,2.27-1.62,3.48
			c-0.13,0.38,0.42,0.54,0.62,0.24c0.69-1.03,1.2-2.2,1.75-3.31c0.57-1.16,1.13-2.32,1.69-3.49c1.11-2.29,2.23-4.56,3.35-6.84
			C75.97,30.29,75.37,29.97,75.18,30.36L75.18,30.36z"/>
	</g>
</g>
<g>
	<g>
		<path class="st0" d="M39.72,43.87c-1.74-2.43-3.57-4.79-5.49-7.08c-0.94-1.12-1.9-2.23-2.88-3.33c-0.52-0.57-1.04-1.15-1.57-1.71
			c-0.49-0.52-0.97-1.11-1.58-1.5c-0.32-0.2-0.69,0.2-0.52,0.51c0.33,0.6,0.87,1.09,1.32,1.6c0.49,0.55,0.97,1.1,1.46,1.65
			c0.96,1.11,1.91,2.23,2.84,3.37c1.87,2.3,3.67,4.66,5.39,7.07C39.11,45.07,40.15,44.47,39.72,43.87L39.72,43.87z"/>
	</g>
</g>
<g>
	<g>
		<path class="st0" d="M34.43,48.04c-0.95-2.92-1.99-5.8-2.97-8.71c-0.48-1.41-0.96-2.83-1.44-4.24c-0.25-0.75-0.5-1.49-0.77-2.24
			c-0.21-0.58-0.74-1.5-0.55-2.14c0.11-0.36-0.37-0.48-0.56-0.22c-0.35,0.48-0.3,0.99-0.14,1.54c0.22,0.8,0.49,1.58,0.75,2.37
			c0.51,1.53,1.01,3.07,1.52,4.6c1.02,3.11,1.99,6.23,3.05,9.33C33.55,49.03,34.65,48.72,34.43,48.04L34.43,48.04z"/>
	</g>
</g>
<g>
	<g>
		<path class="st0" d="M63.5,69.57c1.07,4.33,2.23,8.64,3.5,12.91c1.25,4.22,2.48,8.51,4.17,12.57c0.18,0.44,0.91,0.12,0.78-0.32
			c-1.27-4.23-2.84-8.37-4.15-12.59c-1.31-4.22-2.51-8.48-3.59-12.76C64.09,68.93,63.39,69.13,63.5,69.57L63.5,69.57z"/>
	</g>
</g>
<g>
	<g>
		<path class="st0" d="M50.5,81.15c-0.22,3.79-0.39,7.59-0.51,11.38c-0.12,3.78-0.27,7.62,0.07,11.39c0.06,0.64,0.96,0.63,1-0.01
			c0.25-3.78,0.11-7.6,0.13-11.39c0.02-3.8,0.1-7.59,0.25-11.38C51.47,80.53,50.53,80.56,50.5,81.15L50.5,81.15z"/>
	</g>
</g>
<g>
	<g>
		<path class="st0" d="M57.65,77.87c0.03,3.11,0.11,6.22,0.23,9.33c0.06,1.53,0.12,3.07,0.19,4.6c0.07,1.5,0.04,3.08,0.32,4.56
			c0.08,0.41,0.69,0.28,0.71-0.1c0.08-1.52-0.14-3.08-0.23-4.59c-0.09-1.53-0.16-3.06-0.22-4.6c-0.12-3.07-0.2-6.13-0.24-9.2
			C58.4,77.38,57.64,77.4,57.65,77.87L57.65,77.87z"/>
	</g>
</g>
<g>
	<g>
		<path class="st0" d="M59.77,96.51c1.88,0.09,3.66,0.99,4.86,2.44c0.65,0.79,1.4,2.01,1.02,3.07c-0.33,0.93-1.34,1.48-2.16,1.91
			c-1.88,0.98-3.91,1.65-6,1.96c-2.2,0.33-4.36,0.2-6.55-0.11c-0.44-0.06-0.67,0.57-0.2,0.69c3.73,0.97,7.97,0.42,11.51-1.03
			c1.49-0.61,3.46-1.42,4.14-3.01c0.7-1.62-0.48-3.45-1.6-4.57c-1.34-1.33-3.13-2.1-5-2.19C59.25,95.67,59.23,96.49,59.77,96.51
			L59.77,96.51z"/>
	</g>
</g>
<g>
	<g>
		<path class="st0" d="M43.8,78.61c-0.45,3.23-0.77,6.47-1.04,9.72c-0.27,3.23-0.59,6.52-0.35,9.76c0.04,0.48,0.71,0.46,0.75-0.01
			c0.26-3.25,0.17-6.51,0.37-9.76c0.2-3.25,0.58-6.49,1.05-9.72C44.66,78.11,43.87,78.13,43.8,78.61L43.8,78.61z"/>
	</g>
</g>
<g>
	<g>
		<path class="st0" d="M42.2,97c-1.92,0.28-3.93,0.79-5.37,2.17c-1.18,1.13-1.91,2.93-1.46,4.55c0.47,1.69,2.07,2.62,3.66,3.04
			c1.96,0.52,4.12,0.54,6.13,0.29c2.4-0.29,4.71-1.04,6.79-2.29c0.43-0.26,0.07-0.87-0.37-0.65c-2.14,1.05-4.45,1.79-6.83,2.06
			c-2.11,0.24-4.6,0.28-6.58-0.6c-0.92-0.41-1.73-1.09-2.02-2.08c-0.29-0.99-0.02-2.06,0.5-2.92c1.18-1.97,3.61-2.59,5.73-2.91
			C42.83,97.61,42.66,96.94,42.2,97L42.2,97z"/>
	</g>
</g>
<g>
	<g>
		<path class="st0" d="M36.9,97.8c-2.18-1.73-4.51-3.59-7.32-4.1c-2.5-0.46-5.11,0.17-6.7,2.26c-0.85,1.11-1.46,2.47-1.87,3.8
			c-0.41,1.3-0.57,2.69-0.25,4.03c0.65,2.64,2.98,3.8,5.5,4.07c3.46,0.37,7.17-0.15,10.46-1.23c0.45-0.15,0.29-0.83-0.18-0.71
			c-2.73,0.74-5.52,1.2-8.36,1.22c-2.27,0.02-5.05-0.23-6.28-2.45c-1.29-2.35-0.27-5.3,0.99-7.43c0.61-1.04,1.42-1.93,2.53-2.44
			c1.06-0.48,2.27-0.59,3.42-0.46c2.9,0.33,5.29,2.24,7.49,3.99C36.73,98.65,37.29,98.11,36.9,97.8L36.9,97.8z"/>
	</g>
</g>
<g>
	<g>
		<path class="st0" d="M66.44,98.36c2.88-1.6,5.88-3.32,9.21-3.73c2.88-0.36,6.03,0.29,8.03,2.52c1.89,2.1,3.12,6.19,0.9,8.48
			c-0.97,1-2.34,1.46-3.67,1.75c-1.61,0.36-3.26,0.53-4.91,0.63c-3.99,0.24-7.84-0.26-11.75-1.01c-0.45-0.09-0.67,0.57-0.2,0.7
			c3.7,1.06,7.75,1.3,11.58,1.09c1.82-0.1,3.67-0.29,5.46-0.67c1.42-0.3,2.87-0.79,3.95-1.8c2.36-2.22,1.69-6.09,0.14-8.56
			c-1.72-2.75-4.81-4.03-7.98-4.02c-4.05,0.01-7.72,2.02-11.16,3.93C65.59,97.94,65.99,98.62,66.44,98.36L66.44,98.36z"/>
	</g>
</g>
<g>
	<g>
		<path class="st0" d="M39.12,68.1c-1.85,4.43-3.61,8.89-5.27,13.39c-1.65,4.48-3.37,9-4.63,13.62c-0.12,0.44,0.51,0.56,0.66,0.17
			c1.68-4.49,3.1-9.08,4.76-13.58c1.66-4.5,3.4-8.97,5.24-13.39C40.08,67.81,39.31,67.64,39.12,68.1L39.12,68.1z"/>
	</g>
</g>
<g>
	<g>
		<path class="st0" d="M29.97,90.58c-1.95-2.08-3.99-4.21-6.71-5.23c-1.3-0.49-2.7-0.72-4.09-0.52c-1.42,0.2-2.66,0.89-3.97,1.41
			c-4.8,1.9-10.46-0.09-12.89-4.67c-1.36-2.56-1.53-5.53-0.78-8.3c0.15-0.54-0.6-0.67-0.8-0.2c-2,4.77,0.23,10.66,4.58,13.28
			c2.15,1.3,4.75,1.88,7.24,1.6c1.35-0.15,2.58-0.57,3.82-1.11c1.37-0.6,2.71-1.11,4.24-0.97c3.54,0.32,6.2,3.12,8.51,5.54
			C29.64,91.95,30.48,91.13,29.97,90.58L29.97,90.58z"/>
	</g>
</g>
<g>
	<g>
		<path class="st0" d="M31.54,86.86c-1.09-5.15-6.94-8.16-11.78-6.25c-1.51,0.6-2.95,1.38-4.57,1.7c-1.72,0.34-3.63,0.25-5.27-0.41
			c-1.28-0.52-2.46-1.4-3.26-2.53c-0.97-1.38-1.03-2.9-1.36-4.49c-0.28-1.29-1.01-2.85-2.46-3.1c-1.09-0.19-2.34,0.56-2.31,1.74
			c0.01,0.31,0.45,0.29,0.47,0c0.06-0.66,0.67-1.06,1.29-1.13c0.77-0.08,1.41,0.5,1.78,1.12c0.75,1.26,0.6,2.81,0.97,4.19
			c0.62,2.33,2.51,4.16,4.74,5c2.76,1.03,5.79,0.53,8.43-0.62c1.26-0.55,2.54-1.13,3.94-1.18c1.18-0.04,2.37,0.19,3.45,0.66
			c2.35,1.02,4.26,3.07,4.8,5.6C30.55,87.9,31.69,87.58,31.54,86.86L31.54,86.86z"/>
	</g>
</g>
<g>
	<g>
		<path class="st1" d="M10.11,3.19c0.43,1.66,0.85,3.34,1.41,4.96c0.35-0.15,0.7-0.29,1.05-0.44c-0.36-0.72-0.89-1.32-1.31-2
			C10.92,5.17,10.58,4.36,11,3.77c0.33-0.46,0.97-0.63,1.5-0.67c0.94-0.07,1.86,0.03,2.74-0.35c0.45-0.19,0.21-0.85-0.22-0.86
			C13.36,1.83,11,1.54,9.98,3.25c-0.49,0.82-0.32,1.8,0.09,2.62c0.4,0.8,1.15,1.44,1.44,2.29c0.23,0.68,1.26,0.41,1.1-0.3
			c-0.37-1.68-0.88-3.33-1.38-4.97C11.03,2.17,9.93,2.48,10.11,3.19L10.11,3.19z"/>
	</g>
</g>
<g>
	<g>
		<path class="st1" d="M16.22,6.36c0.81,0.2,1.65,0.27,2.48,0.18c0.42-0.04,0.84-0.12,1.25-0.24c0.37-0.11,0.78-0.23,1.1-0.44
			c0.84-0.54,0.29-1.47-0.21-2.04c-0.46-0.52-1.08-0.91-1.75-1.09C17.71,2.37,16.27,3,15.65,4.29c-0.29,0.61-0.4,1.32-0.16,1.97
			c0.26,0.7,0.77,1.26,1.41,1.64c1.55,0.89,3.63,0.62,4.96-0.55c0.43-0.38-0.11-0.99-0.58-0.74c-0.98,0.52-2.14,0.7-3.21,0.38
			c-0.81-0.25-1.7-0.88-1.57-1.85c0.12-0.85,0.9-1.52,1.75-1.54c0.5-0.01,1,0.18,1.4,0.48c0.18,0.13,0.35,0.3,0.5,0.47
			c0.08,0.09,0.14,0.19,0.21,0.29c0.03,0.05,0.05,0.09,0.08,0.14c0.07,0.13,0.02,0.14,0.12,0.05c-0.21,0.17-0.61,0.24-0.86,0.3
			c-0.34,0.09-0.68,0.15-1.02,0.19c-0.73,0.07-1.45,0.03-2.16-0.14C15.87,5.22,15.56,6.2,16.22,6.36L16.22,6.36z"/>
	</g>
</g>
<g>
	<g>
		<path class="st1" d="M26.88,4.21c-0.91-0.71-2.21-1.4-3.21-0.4c-0.91,0.91-0.62,2.35-0.17,3.41c0.23,0.56,0.66,0.97,1.29,1
			c0.55,0.03,1.1-0.21,1.53-0.53c0.85-0.64,1.3-1.65,1.24-2.71c-0.04-0.65-0.85-0.68-1.07-0.13c-0.48,1.18,0.05,2.68,1.15,3.31
			c1.12,0.64,2.7,0.27,3.39-0.82c0.23-0.37-0.25-0.88-0.61-0.6c-0.61,0.46-1.39,0.63-2.09,0.25c-0.67-0.36-0.97-1.15-0.79-1.88
			c-0.35,0-0.7,0.01-1.06,0.01c0.09,0.58-0.24,1.19-0.68,1.56c-0.2,0.17-0.45,0.31-0.72,0.36c-0.31,0.06-0.39-0.1-0.5-0.38
			c-0.23-0.57-0.52-1.46-0.09-2.01C24.96,4.08,25.82,4.7,26.27,5C26.72,5.3,27.33,4.56,26.88,4.21L26.88,4.21z"/>
	</g>
</g>
<g>
	<g>
		<path class="st1" d="M32.55,0.7c-0.04,1.29-0.1,2.58-0.13,3.87c-0.01,0.63-0.02,1.27-0.03,1.9c0,0.61-0.15,1.49,0.45,1.86
			c0.15,0.1,0.38,0.08,0.53-0.01c0.6-0.37,0.5-1.25,0.52-1.87c0.03-0.63,0.04-1.27,0.06-1.9C34,3.27,34,1.98,34.01,0.69
			C34.02-0.25,32.59-0.21,32.55,0.7L32.55,0.7z"/>
	</g>
</g>
<g>
	<g>
		<path class="st1" d="M40.67,6.05c0.09,1.33,0.15,2.67,0.18,4c0.04,1.32-0.03,2.66,0.12,3.97c0.05,0.46,0.83,0.42,0.91-0.01
			c0.23-1.3,0.18-2.66,0.17-3.97c-0.02-1.34-0.09-2.67-0.19-4C41.81,5.28,40.62,5.3,40.67,6.05L40.67,6.05z"/>
	</g>
</g>
<g>
	<g>
		<path class="st1" d="M41.23,5.97c0.48-0.64,1.11-1.12,1.82-1.46c0.31-0.15,0.71-0.29,1.06-0.18c0.28,0.09,0.48,0.34,0.62,0.62
			c0.02,0.04,0.04,0.07,0.05,0.11c-0.04-0.08,0,0.01,0.01,0.02c0.03,0.08,0.05,0.15,0.07,0.23c0.05,0.2,0.05,0.23,0.05,0.44
			c0,0.32-0.05,0.61-0.17,0.89c-0.04,0.09-0.14,0.28-0.23,0.4c-0.01,0.01-0.06,0.09-0.02,0.03c-0.02,0.03-0.05,0.06-0.08,0.09
			c-0.07,0.07-0.14,0.14-0.21,0.21c-0.01,0.01-0.08,0.07-0.02,0.02c-0.03,0.02-0.07,0.05-0.1,0.07c-0.07,0.04-0.14,0.08-0.21,0.12
			c-0.12,0.06-0.25,0.1-0.44,0.15c-0.3,0.07-0.67,0.05-1-0.05c-0.37-0.11-0.68-0.39-1.06-0.52c-0.28-0.1-0.62,0.22-0.52,0.51
			c0.18,0.5,0.66,0.75,1.13,0.93c0.42,0.16,0.88,0.22,1.33,0.18c0.98-0.09,1.85-0.58,2.36-1.44c0.49-0.84,0.56-1.87,0.18-2.77
			c-0.2-0.47-0.53-0.9-0.98-1.16c-0.52-0.31-1.15-0.31-1.71-0.13C42,3.63,41,4.47,40.28,5.44c-0.17,0.24-0.05,0.61,0.2,0.74
			C40.76,6.34,41.06,6.21,41.23,5.97L41.23,5.97z"/>
	</g>
</g>
<g>
	<g>
		<path class="st1" d="M46.83,5.38c0.09,1.19,0.3,2.43,0.97,3.45c0.15,0.23,0.42,0.32,0.68,0.22c0.27-0.11,0.37-0.36,0.34-0.64
			c0-0.04-0.01-0.08-0.01-0.12c0.01,0.05,0.01,0.04,0-0.02c-0.01-0.09-0.02-0.18-0.03-0.27c-0.02-0.14-0.05-0.27-0.07-0.41
			c-0.04-0.25-0.09-0.51-0.13-0.76c-0.04-0.26-0.07-0.51-0.1-0.77c-0.01-0.09-0.01-0.08,0,0.02c0-0.03-0.01-0.06-0.01-0.09
			c-0.01-0.07-0.01-0.14-0.02-0.21c-0.01-0.14-0.02-0.28-0.02-0.41c-0.02-0.41-0.34-0.79-0.77-0.77C47.25,4.62,46.8,4.94,46.83,5.38
			L46.83,5.38z"/>
	</g>
</g>
<g>
	<g>
		<path class="st1" d="M46.13,1.91c-0.12,0.32,0.02,0.69,0.27,0.89c0.13,0.11,0.27,0.19,0.44,0.23c0.08,0.02,0.16,0.03,0.25,0.03
			c0.08,0,0.17-0.01,0.24-0.04c0.13-0.05,0.21-0.1,0.32-0.18c0.06-0.05,0.11-0.12,0.16-0.19c0.04-0.07,0.08-0.15,0.09-0.23
			c0.02-0.08,0.03-0.16,0.03-0.24c-0.01-0.33-0.17-0.65-0.45-0.84c-0.07-0.05-0.16-0.08-0.24-0.1c-0.15-0.04-0.32-0.04-0.45,0.05
			c-0.1,0.06-0.18,0.15-0.21,0.27c-0.03,0.1-0.01,0.2,0.04,0.3c0.06,0.11,0.18,0.18,0.29,0.21c0.03,0.01,0.05,0.01,0.08,0.02
			c-0.04-0.01-0.07-0.03-0.11-0.04c0.03,0.01,0.06,0.03,0.09,0.05c-0.03-0.02-0.06-0.05-0.09-0.07c0.05,0.04,0.1,0.08,0.14,0.13
			C47,2.13,46.98,2.1,46.95,2.06c0.04,0.05,0.07,0.1,0.09,0.15c-0.01-0.04-0.03-0.07-0.04-0.11c0.02,0.05,0.03,0.11,0.04,0.16
			c0-0.04-0.01-0.08-0.01-0.11c0,0.04,0,0.08,0,0.13c0.01-0.04,0.01-0.08,0.02-0.11c-0.01,0.04-0.02,0.08-0.03,0.11
			c0.02-0.04,0.03-0.07,0.05-0.11c-0.01,0.03-0.03,0.05-0.05,0.08c0.02-0.03,0.05-0.06,0.07-0.09C47.06,2.19,47.03,2.21,47,2.23
			c0.03-0.02,0.06-0.05,0.1-0.07c-0.03,0.02-0.05,0.04-0.08,0.05c0.04-0.02,0.07-0.03,0.11-0.05c-0.03,0.01-0.07,0.02-0.1,0.03
			c0.04-0.01,0.08-0.01,0.12-0.02c-0.04,0.01-0.08,0.01-0.12,0c0.04,0,0.08,0.01,0.11,0.01c-0.05-0.01-0.1-0.02-0.14-0.04
			c0.03,0.01,0.07,0.03,0.1,0.04c-0.05-0.02-0.1-0.05-0.14-0.08c0.03,0.02,0.06,0.04,0.09,0.07C47,2.15,46.96,2.11,46.92,2.07
			c0.02,0.03,0.05,0.06,0.07,0.09c-0.03-0.04-0.05-0.07-0.07-0.12c0.01,0.04,0.03,0.07,0.04,0.11c-0.02-0.05-0.04-0.09-0.06-0.14
			c0.01,0.04,0.03,0.07,0.04,0.11c-0.01-0.03-0.02-0.07-0.03-0.1c0,0.04,0.01,0.07,0.01,0.11c0-0.04,0-0.07,0-0.11
			c-0.01,0.03-0.01,0.07-0.02,0.1c0,0,0-0.01,0-0.01c0.02-0.05,0.02-0.1,0.01-0.16c0-0.05-0.02-0.11-0.05-0.15
			c-0.05-0.09-0.15-0.17-0.25-0.19c-0.11-0.02-0.22-0.01-0.32,0.05C46.23,1.72,46.17,1.8,46.13,1.91L46.13,1.91z"/>
	</g>
</g>
<g>
	<g>
		<path class="st1" d="M52.93,5.07c-0.57-0.5-1.27-1-2.07-0.81c-0.7,0.17-1.18,0.89-1.3,1.56c-0.12,0.66-0.03,1.37,0.33,1.94
			c0.39,0.61,0.99,0.98,1.71,1.03c0.73,0.06,1.49-0.29,1.84-0.94c0.12-0.22,0.08-0.5-0.13-0.65c-0.21-0.15-0.49-0.12-0.68,0.05
			c-0.02,0.02-0.04,0.04-0.06,0.06c-0.04,0.04-0.01,0.05,0.02-0.01c-0.02,0.03-0.09,0.06-0.11,0.07c-0.04,0.02-0.08,0.04-0.12,0.06
			c-0.02,0.01-0.05,0.02-0.07,0.04c-0.1,0.05,0.09-0.03,0.02-0.01c-0.02,0.01-0.29,0.08-0.29,0.08c0-0.01,0.16-0.01,0.04-0.01
			c-0.02,0-0.04,0-0.06,0c-0.06,0-0.12,0.01-0.18,0.01c-0.05,0-0.09-0.01-0.14-0.01c-0.08,0,0.12,0.03,0.04,0
			c-0.02-0.01-0.04-0.01-0.06-0.01c-0.05-0.01-0.11-0.02-0.16-0.04c-0.03-0.01-0.05-0.02-0.08-0.02c-0.1-0.03,0.04,0.01,0.04,0.02
			c0,0.01-0.25-0.14-0.27-0.14c-0.07-0.03,0.09,0.07,0.03,0.02c-0.02-0.01-0.03-0.03-0.05-0.04c-0.05-0.04-0.1-0.09-0.14-0.14
			c-0.02-0.02-0.04-0.04-0.06-0.07C50.92,7.07,51,7.17,51,7.17c-0.01-0.04-0.07-0.11-0.1-0.15c-0.03-0.04-0.05-0.09-0.07-0.13
			c-0.01-0.03-0.02-0.05-0.04-0.08c-0.03-0.07,0.04,0.12,0,0.01c-0.03-0.11-0.07-0.21-0.09-0.32c0-0.02-0.01-0.04-0.01-0.07
			c-0.02-0.11,0,0.01,0,0.02c-0.02-0.06-0.01-0.14-0.01-0.2c0-0.05,0-0.1,0.01-0.16c0-0.03,0.01-0.06,0.01-0.09
			c0,0.02-0.02,0.12,0,0.02c0.02-0.12,0.06-0.23,0.1-0.35c-0.03,0.1,0.01-0.01,0.03-0.05c0.03-0.05,0.05-0.09,0.08-0.14
			c0.06-0.09,0.01-0.01-0.01,0.01c0.02-0.02,0.04-0.05,0.06-0.07c0.02-0.02,0.03-0.03,0.05-0.05c0.07-0.06,0.02-0.05,0,0
			c0-0.01,0.07-0.04,0.08-0.05c0.01-0.01,0.13-0.06,0.05-0.03c-0.07,0.03,0.01,0,0.02-0.01c0,0,0.14-0.03,0.08-0.02
			c-0.06,0.01,0.2,0.01,0.1,0c0.07,0.01,0.14,0.03,0.2,0.05c0.11,0.03,0.23,0.09,0.37,0.18c0.14,0.09,0.22,0.15,0.35,0.24
			c0.2,0.16,0.47,0.18,0.66-0.01C53.1,5.55,53.13,5.23,52.93,5.07L52.93,5.07z"/>
	</g>
</g>
<g>
	<g>
		<path class="st1" d="M55.05,3.23c0.11,0.87,0.22,1.74,0.33,2.61c0.05,0.43,0.12,0.85,0.18,1.27c0.07,0.47,0.19,0.94,0.49,1.32
			c0.28,0.35,0.76,0.06,0.89-0.25c0.16-0.39,0.12-0.9,0.08-1.32c-0.05-0.47-0.1-0.95-0.16-1.42c-0.12-0.87-0.23-1.74-0.35-2.6
			c-0.05-0.39-0.56-0.62-0.91-0.51C55.18,2.46,55,2.81,55.05,3.23L55.05,3.23z"/>
	</g>
</g>
<g>
	<g>
		<path class="st1" d="M54.29,5.44c1.33,0,2.72-0.12,3.97-0.6c0.21-0.08,0.38-0.26,0.35-0.5c-0.03-0.21-0.22-0.41-0.45-0.39
			c-1.28,0.11-2.56,0.31-3.85,0.34c-0.31,0.01-0.59,0.26-0.6,0.58C53.71,5.19,53.98,5.44,54.29,5.44L54.29,5.44z"/>
	</g>
</g>
<g>
	<g>
		<path class="st1" d="M58.86,6.33c-0.08-0.1,0.03,0.04,0.05,0.07c0.04,0.05,0.07,0.11,0.11,0.16c0.08,0.13,0.16,0.25,0.23,0.38
			c0.14,0.24,0.28,0.48,0.44,0.71c0.37,0.51,0.82,0.9,1.43,1.07c0.59,0.17,1.24,0.05,1.7-0.36c0.49-0.45,0.59-1.19,0.58-1.82
			c-0.01-0.39-0.05-0.8-0.15-1.18c-0.1-0.39-0.25-0.89-0.65-1.06c-0.19-0.08-0.48-0.06-0.58,0.16c-0.09,0.2-0.12,0.34-0.09,0.55
			c0.02,0.12,0.03,0.25,0.06,0.41c0.02,0.14,0.04,0.28,0.06,0.41c0,0.03,0.01,0.06,0.01,0.1c0-0.01-0.01-0.07,0,0
			c0.01,0.07,0.01,0.15,0.02,0.22c0.02,0.27,0.03,0.54,0.02,0.81c0,0.05-0.01,0.11-0.01,0.16c-0.01,0.12,0,0.03,0,0
			c-0.01,0.03-0.01,0.05-0.02,0.08c-0.01,0.05-0.03,0.1-0.05,0.15c-0.02,0.07,0-0.01,0.01-0.02c-0.02,0.03-0.04,0.06-0.06,0.09
			C62,7.44,62.06,7.4,62.01,7.43c-0.02,0.01-0.05,0.04-0.06,0.06C61.9,7.55,61.99,7.45,62,7.46c0,0-0.05,0.03-0.05,0.03
			c0,0-0.06,0.03-0.06,0.03c0-0.01,0.13-0.04,0.06-0.03c-0.01,0-0.14,0.05-0.14,0.04c0-0.01,0.16-0.01,0.04-0.01
			c-0.02,0-0.04,0-0.07,0c-0.04,0-0.09,0-0.13,0c-0.08,0,0.06,0,0.05,0.01c-0.01,0-0.06-0.01-0.07-0.01
			c-0.05-0.01-0.1-0.02-0.16-0.04c-0.01,0-0.08-0.02-0.09-0.03c0,0,0.11,0.05,0.04,0.02c-0.04-0.02-0.09-0.04-0.13-0.06
			c-0.04-0.02-0.08-0.04-0.12-0.07c-0.02-0.01-0.04-0.03-0.06-0.04c-0.1-0.06,0.06,0.05,0,0c-0.07-0.07-0.15-0.13-0.22-0.21
			c-0.04-0.04-0.07-0.08-0.11-0.13C60.75,6.92,60.82,6.99,60.82,7c-0.03-0.04-0.06-0.07-0.08-0.11c-0.34-0.48-0.61-1-0.98-1.45
			c-0.21-0.26-0.68-0.21-0.89,0.02C58.61,5.73,58.64,6.06,58.86,6.33L58.86,6.33z"/>
	</g>
</g>
<g>
	<g>
		<path class="st1" d="M65.58,8.05c-0.21-0.39-0.43-0.8-0.56-1.18c-0.06-0.18-0.12-0.42-0.14-0.58c-0.01-0.06-0.01-0.2-0.01-0.29
			c0-0.06,0.01-0.11,0.01-0.17c-0.01,0.09,0,0.01,0.01-0.03c0.01-0.04,0.03-0.09,0.04-0.13c0.02-0.05,0.02-0.06,0-0.01
			c0.04-0.08,0.08-0.17,0.13-0.24c0,0,0.1-0.14,0.05-0.07c-0.08,0.11,0.18-0.2,0.05-0.06c0.06-0.07,0.12-0.13,0.19-0.2
			c0.03-0.03,0.07-0.06,0.1-0.09c0.06-0.06-0.12,0.07,0.01-0.01c0.03-0.02,0.06-0.04,0.09-0.05c0.04-0.02,0.15-0.05,0.04-0.02
			c0.13-0.03,0.21-0.07,0.34-0.05c0.24,0.03,0.47-0.05,0.57-0.29c0.09-0.22,0.01-0.46-0.19-0.58c-0.49-0.3-1.07-0.23-1.56,0.02
			c-0.51,0.25-0.86,0.76-1.03,1.29c-0.36,1.17,0.29,2.34,0.89,3.3C64.98,9.19,65.91,8.66,65.58,8.05L65.58,8.05z"/>
	</g>
</g>
<g>
	<g>
		<path class="st1" d="M67.65,6.88c0.69,0.63,1.88,0.63,2.49-0.12c0.57-0.7,0.38-1.82-0.36-2.33c-0.87-0.61-1.98,0.01-2.42,0.84
			c-0.54,1.03-0.14,2.19,0.62,2.99c0.92,0.96,2.38,1.36,3.68,1.28c0.58-0.04,0.72-0.81,0.15-1.01c-0.82-0.28-1.7-0.38-2.45-0.77
			c-0.59-0.3-1.15-0.81-1.23-1.52c-0.05-0.46,0.29-1.16,0.82-1.25c0.58-0.1,0.9,0.58,0.77,1.06c-0.18,0.68-1.15,0.78-1.64,0.38
			C67.8,6.2,67.36,6.61,67.65,6.88L67.65,6.88z"/>
	</g>
</g>
<g>
	<g>
		<path class="st1" d="M79.87,5.5c0.17,0,0.18-0.26,0.01-0.26C79.71,5.24,79.7,5.5,79.87,5.5L79.87,5.5z"/>
	</g>
</g>
<g>
	<g>
		<path class="st1" d="M79.89,4.36c-1.26,0-2.1,1.29-1.93,2.46c0.16,1.13,1.17,2.12,2.28,2.33c1.03,0.2,2.23-0.07,2.8-1.03
			c0.66-1.11,0.06-2.47-0.95-3.11c-0.58-0.37-1.25-0.53-1.93-0.58c-0.36-0.03-0.75,0.14-0.94,0.47c-0.22,0.4,0.03,0.91,0.5,0.9
			c0.31-0.01,0.62-0.39,0.41-0.68c-0.03,0.15-0.05,0.3-0.08,0.45c-0.08,0.06-0.08,0.06,0,0c0.14-0.16-0.07,0.04,0.05-0.03
			c-0.15,0.09,0-0.01-0.01,0.01c-0.02,0-0.04,0.01-0.06,0.01c0.03,0,0.06,0,0.1,0c0.21,0.01,0.36,0.03,0.59,0.09
			c0.36,0.08,0.68,0.22,0.93,0.45c0.03,0.03,0.06,0.06,0.09,0.08c0,0,0.13,0.14,0.06,0.06c0.05,0.06,0.09,0.13,0.13,0.2
			c0.02,0.04,0.05,0.09,0.07,0.13c0.01,0.02,0.06,0.14,0.02,0.05c0.03,0.09,0.06,0.19,0.08,0.28c0,0,0.02,0.19,0.01,0.08
			c0,0.04,0,0.08,0,0.12c0,0.04,0,0.08,0,0.11c-0.01,0.16,0.03-0.07-0.01,0.08c-0.01,0.03-0.07,0.22-0.04,0.13
			c-0.02,0.04-0.04,0.08-0.06,0.12c-0.02,0.03-0.13,0.16-0.03,0.05c-0.04,0.05-0.09,0.09-0.14,0.14c0.12-0.11-0.06,0.03-0.1,0.06
			c-0.03,0.02-0.06,0.03-0.09,0.04c-0.14,0.08,0.13-0.03-0.02,0.01c-0.08,0.02-0.16,0.05-0.24,0.06c-0.01,0-0.17,0.02-0.06,0.01
			c0.1-0.01-0.06,0-0.07,0c-0.07,0-0.14,0.01-0.2,0c-0.05,0-0.1-0.01-0.15-0.01c-0.04,0-0.11-0.03,0.02,0
			c-0.09-0.02-0.19-0.03-0.28-0.06c-0.07-0.02-0.15-0.04-0.22-0.07c-0.01,0-0.17-0.05-0.06-0.02c0.1,0.03-0.05-0.02-0.06-0.03
			c-0.07-0.03-0.13-0.06-0.2-0.1c-0.05-0.03-0.1-0.06-0.15-0.09c-0.03-0.02-0.16-0.12-0.06-0.04c-0.14-0.11-0.28-0.23-0.4-0.37
			c0,0-0.13-0.14-0.06-0.07C79.48,7.15,79.36,7,79.36,7c-0.06-0.08-0.1-0.17-0.15-0.25c-0.08-0.16,0.02,0.06-0.02-0.04
			c-0.02-0.06-0.03-0.11-0.05-0.17c-0.01-0.05-0.02-0.1-0.03-0.15c0.01,0.11,0-0.07,0-0.07c0-0.11,0.06-0.34,0.1-0.41
			c0.02-0.03,0.04-0.06,0.05-0.1c0.06-0.1-0.03,0.02,0.04-0.06c0.03-0.03,0.06-0.07,0.1-0.1c0.02-0.02,0.04-0.04,0.06-0.05
			c-0.05,0.04-0.05,0.03,0.01,0c0.03-0.02,0.06-0.04,0.09-0.06c0.12-0.07-0.08,0.01,0.06-0.03c0.04-0.01,0.09-0.03,0.13-0.03
			c0.04-0.01,0.04-0.01-0.01,0c0.04,0,0.07,0,0.11,0c0.3,0,0.57-0.26,0.57-0.56C80.45,4.61,80.19,4.36,79.89,4.36L79.89,4.36z"/>
	</g>
</g>
<g>
	<g>
		<path class="st1" d="M88.26,2.32c-0.5-0.53-1.21-1.07-1.98-1.01c-0.95,0.07-1.3,0.93-1.41,1.75c-0.12,0.88-0.14,1.8-0.05,2.68
			c0.09,0.86,0.23,1.88,0.84,2.55c0.17,0.18,0.55,0.09,0.59-0.17c0.12-0.69-0.04-1.42-0.12-2.11c-0.08-0.69-0.11-1.38-0.09-2.07
			c0.01-0.32,0.02-0.66,0.07-0.98c0.02-0.14,0.06-0.36,0.17-0.43c0.31-0.2,0.95,0.38,1.18,0.6C87.96,3.62,88.75,2.85,88.26,2.32
			L88.26,2.32z"/>
	</g>
</g>
<g>
	<g>
		<path class="st1" d="M84.88,5.65c0.8-0.06,1.59-0.12,2.39-0.18c0.8-0.06,1.61-0.08,2.39-0.26c0.42-0.09,0.32-0.68-0.08-0.71
			c-0.78-0.06-1.56,0.03-2.34,0.09c-0.78,0.05-1.56,0.1-2.34,0.15c-0.25,0.02-0.47,0.2-0.47,0.46C84.42,5.44,84.63,5.67,84.88,5.65
			L84.88,5.65z"/>
	</g>
</g>
<g>
	<g>
		<path class="st1" d="M4.89,14.9c0.02,1.33,0.03,2.66,0.09,3.98c0.03,0.64,0.06,1.28,0.1,1.92c0.04,0.57-0.04,1.45,0.39,1.89
			C5.6,22.82,5.87,22.83,6,22.68c0.41-0.48,0.31-1.29,0.32-1.89c0.01-0.64,0.01-1.28,0.01-1.92c0-1.33-0.05-2.65-0.09-3.98
			C6.21,14.03,4.87,14.06,4.89,14.9L4.89,14.9z"/>
	</g>
</g>
<g>
	<g>
		<path class="st1" d="M3.53,19.46c0.95-0.08,1.89-0.16,2.84-0.25c0.95-0.09,1.92-0.16,2.86-0.33c0.56-0.1,0.46-0.97-0.11-0.97
			c-0.93,0-1.86,0.11-2.78,0.19c-0.93,0.08-1.86,0.17-2.79,0.26c-0.3,0.03-0.57,0.24-0.57,0.56C2.97,19.2,3.23,19.48,3.53,19.46
			L3.53,19.46z"/>
	</g>
</g>
<g>
	<g>
		<path class="st1" d="M9.18,15.73c0.1,0.97,0.19,1.94,0.29,2.91c0.1,0.95,0.16,1.93,0.35,2.87c0.1,0.48,0.91,0.37,0.87-0.12
			c-0.03-0.35-0.04-0.72,0.11-1.05c0.12-0.26,0.42-0.54,0.73-0.42c0.33,0.13,0.49,0.59,0.63,0.88c0.2,0.4,0.42,0.8,0.81,1.05
			c0.57,0.37,1.25,0.22,1.84-0.02c0.64-0.25,1.23-0.6,1.77-1.04c0.45-0.36,0.83-0.84,0.77-1.45c-0.06-0.58-0.56-1.02-1.16-0.9
			c-0.61,0.11-1.03,0.67-1.17,1.25c-0.35,1.5,0.97,2.85,2.48,2.39c0.47-0.14,0.45-0.95-0.1-0.89c-0.56,0.06-1.16-0.22-1.34-0.78
			c-0.09-0.26-0.08-0.59,0.07-0.83c0.09-0.15,0.32-0.4,0.39-0.11c0.07,0.28-0.3,0.56-0.49,0.7c-0.29,0.22-0.6,0.41-0.93,0.58
			c-0.43,0.22-1.24,0.65-1.67,0.28c-0.3-0.26-0.43-0.7-0.61-1.04c-0.21-0.4-0.5-0.79-0.95-0.94c-0.54-0.18-1.11,0.05-1.48,0.46
			c-0.47,0.52-0.51,1.23-0.58,1.9c0.29,0,0.59-0.01,0.88-0.01c-0.01-0.94-0.16-1.9-0.26-2.83c-0.1-0.94-0.21-1.89-0.32-2.83
			C10.04,15.14,9.12,15.15,9.18,15.73L9.18,15.73z"/>
	</g>
</g>
<g>
	<g>
		<path class="st1" d="M26.73,18.91c-1.23-0.69-3.1-0.06-3.28,1.45c-0.09,0.73,0.32,1.46,0.92,1.85c0.68,0.44,1.51,0.23,2.08-0.28
			c0.64-0.57,1.15-1.56,0.84-2.42c-0.16-0.45-0.88-0.4-0.88,0.12c0,0.95,0.22,1.95,0.86,2.68c0.29,0.34,0.69,0.57,1.11,0.69
			c0.45,0.13,1.05,0.13,1.4-0.21c0.23-0.23,0.14-0.66-0.19-0.73c-0.31-0.07-0.6,0-0.91-0.1c-0.27-0.08-0.52-0.26-0.72-0.45
			c-0.49-0.49-0.62-1.22-0.66-1.88c-0.28,0.08-0.56,0.15-0.84,0.23c0.24,0.53-0.38,1.22-0.8,1.47c-0.43,0.25-0.87-0.01-1.08-0.43
			c-0.48-0.99,0.89-1.45,1.59-1.05C26.77,20.18,27.34,19.25,26.73,18.91L26.73,18.91z"/>
	</g>
</g>
<g>
	<g>
		<path class="st1" d="M29.16,19.91c0.29,1.07,0.96,2.21,2.16,2.39c0.61,0.09,1.23-0.03,1.68-0.46c0.38-0.36,0.52-0.91,0.45-1.42
			c-0.03-0.25-0.14-0.47-0.29-0.67c-0.09-0.12-0.19-0.22-0.34-0.28c-0.1-0.05-0.2-0.08-0.32-0.08c-0.09,0.01-0.14,0.03-0.23,0.06
			c0.12-0.04,0.03-0.03-0.05,0.02c-0.15,0.09-0.21,0.25-0.18,0.42c0,0.02,0,0.04,0-0.02c0-0.1,0,0.04,0.01,0.09
			c0.03,0.09,0.08,0.16,0.14,0.23c0.08,0.09-0.05-0.07,0,0c0.02,0.03,0.04,0.05,0.06,0.08c0.13,0.16-0.04-0.08,0.01,0.02
			c0.01,0.03,0.03,0.05,0.05,0.08c0.01,0.01,0.02,0.04,0.03,0.06c0,0-0.04-0.11-0.03-0.06c0.01,0.03,0.02,0.07,0.03,0.1
			c0.01,0.03,0.02,0.14,0.01,0.06c0-0.09,0,0.04,0,0.06c0,0.04,0,0.07,0,0.11c0,0.01-0.01,0.04-0.01,0.05c0,0,0.02-0.11,0.01-0.06
			c-0.01,0.04-0.02,0.08-0.03,0.12c-0.01,0.02-0.01,0.03-0.02,0.05c-0.02,0.06-0.03,0,0.02-0.05c-0.02,0.02-0.03,0.06-0.05,0.08
			c-0.01,0.01-0.03,0.04-0.03,0.05c0,0,0.09-0.1,0.04-0.06c-0.03,0.03-0.06,0.06-0.09,0.09c-0.01,0.01-0.03,0.02-0.04,0.03
			c0,0,0.1-0.07,0.05-0.04c-0.04,0.02-0.08,0.05-0.12,0.07c-0.1,0.05,0.11-0.04,0.01,0c-0.05,0.02-0.1,0.03-0.15,0.04
			c-0.02,0.01-0.05,0.01-0.08,0.01c0,0,0.13-0.01,0.06-0.01c-0.05,0-0.09,0.01-0.14,0.01c-0.04,0-0.08,0-0.12,0
			c-0.02,0-0.09-0.01,0,0c0.1,0.01-0.02-0.01-0.04-0.01c-0.04-0.01-0.08-0.02-0.12-0.03c-0.02-0.01-0.17-0.06-0.08-0.02
			c0.09,0.04-0.05-0.02-0.07-0.04c-0.05-0.02-0.1-0.05-0.14-0.08c-0.02-0.01-0.03-0.02-0.05-0.03c-0.06-0.03,0.05,0.04,0.05,0.04
			c-0.04-0.04-0.08-0.06-0.12-0.1c-0.08-0.07-0.15-0.14-0.22-0.22c-0.01-0.02-0.03-0.04-0.04-0.05c0.1,0.08,0.05,0.06,0.01,0.01
			c-0.03-0.05-0.07-0.1-0.1-0.15c-0.06-0.1-0.11-0.19-0.16-0.3c-0.02-0.05-0.06-0.11-0.07-0.16c0,0,0.05,0.12,0.02,0.05
			c-0.01-0.04-0.03-0.07-0.04-0.11c-0.04-0.11-0.07-0.23-0.11-0.34c-0.09-0.32-0.45-0.55-0.78-0.44
			C29.31,19.23,29.07,19.56,29.16,19.91L29.16,19.91z"/>
	</g>
</g>
<g>
	<g>
		<path class="st1" d="M35.24,17.08c-0.05,1.07-0.03,2.14,0.08,3.2c0.06,0.57,0.14,1.13,0.25,1.69c0.08,0.42,0.22,1.22,0.79,1.21
			c0.65-0.02,0.5-0.9,0.44-1.31c-0.07-0.53-0.17-1.06-0.23-1.59c-0.12-1.06-0.17-2.13-0.15-3.2C36.45,16.3,35.28,16.34,35.24,17.08
			L35.24,17.08z"/>
	</g>
</g>
<g>
	<g>
		<path class="st1" d="M34.62,19.98c0.48-0.04,0.97-0.06,1.46-0.05c0.5,0.01,1.01,0.07,1.5-0.02c0.36-0.06,0.42-0.6,0.11-0.76
			c-0.48-0.25-1.04-0.29-1.57-0.32c-0.49-0.02-0.99-0.01-1.48,0.04c-0.29,0.03-0.58,0.24-0.57,0.56
			C34.07,19.71,34.31,20,34.62,19.98L34.62,19.98z"/>
	</g>
</g>
<g>
	<g>
		<path class="st1" d="M37.58,17.41c0.13,1.62,0.24,3.25,0.41,4.87c0.07,0.65,0.91,0.77,1.14,0.13c0.19-0.52,0.17-1.12,0.4-1.62
			c0.11-0.26,0.42-0.64,0.69-0.46c0.11,0.07,0.2,0.24,0.25,0.38c0.08,0.23,0.11,0.48,0.14,0.73c0.07,0.58,0.19,1.31,0.84,1.5
			c0.3,0.08,0.63-0.17,0.63-0.47c0-0.33-0.15-0.63-0.23-0.94c-0.07-0.3-0.1-0.61-0.19-0.91c-0.18-0.6-0.57-1.2-1.22-1.34
			c-0.69-0.15-1.32,0.29-1.68,0.85c-0.37,0.58-0.35,1.3-0.69,1.89c0.36,0.09,0.72,0.18,1.08,0.27c-0.11-1.63-0.27-3.25-0.42-4.87
			c-0.03-0.31-0.23-0.56-0.57-0.56C37.89,16.84,37.56,17.1,37.58,17.41L37.58,17.41z"/>
	</g>
</g>
<g>
	<g>
		<path class="st1" d="M43.45,20.44c-0.08,0.78,0.4,1.58,1.08,1.95c0.72,0.4,1.57,0.29,2.18-0.25c0.51-0.46,0.75-1.2,0.62-1.87
			c-0.13-0.65-0.67-1.13-1.3-1.29c-0.33-0.08-0.72-0.09-1.05,0.02c-0.38,0.14-0.76,0.4-0.86,0.81c-0.04,0.17,0.01,0.33,0.15,0.44
			c0.13,0.1,0.33,0.12,0.47,0.02c0.04-0.03,0.08-0.05,0.12-0.07c0,0,0.13-0.09,0.15-0.12c-0.05,0.07-0.08,0.05-0.03,0.03
			c0.04-0.03,0.08-0.05,0.13-0.07c0.02-0.01,0.06-0.02,0.08-0.04c-0.08,0.06-0.09,0.03-0.02,0.01c0.09-0.03,0.2-0.03,0.29-0.07
			c-0.09,0.04-0.08,0.01-0.01,0c0.02,0,0.04,0,0.06,0c0.06,0,0.12,0,0.18,0c0.11,0.01-0.12-0.02-0.01,0c0.02,0,0.04,0.01,0.06,0.01
			c0.05,0.01,0.1,0.02,0.15,0.04c0.07,0.02,0.05,0.05-0.01-0.01c0.01,0.01,0.05,0.02,0.05,0.02c0.05,0.02,0.1,0.07,0.15,0.09
			c-0.1-0.04-0.06-0.05-0.01,0c0.01,0.01,0.03,0.03,0.04,0.04c0.02,0.02,0.04,0.04,0.06,0.06c0.03,0.03,0.02,0.06-0.03-0.04
			c0.02,0.04,0.06,0.08,0.08,0.13c0.01,0.02,0.03,0.07,0.04,0.08c-0.03-0.02-0.04-0.11-0.01-0.01c0.01,0.03,0.02,0.13,0.04,0.15
			c-0.04-0.04,0-0.11,0-0.03c0,0.03,0,0.05,0,0.08c0,0.05-0.02,0.11-0.01,0.16c-0.01-0.11,0.02-0.08,0-0.03
			c-0.01,0.04-0.02,0.07-0.03,0.11c-0.01,0.03-0.02,0.05-0.03,0.08c-0.02,0.05-0.06,0.08,0.02-0.03c-0.03,0.04-0.05,0.1-0.07,0.14
			c-0.03,0.05-0.06,0.09-0.09,0.13c-0.06,0.09,0.08-0.08,0.02-0.03c-0.03,0.02-0.05,0.06-0.08,0.08c-0.04,0.04-0.08,0.07-0.12,0.11
			c-0.07,0.07,0.05-0.04,0.05-0.04c-0.03,0.01-0.05,0.04-0.08,0.05c-0.04,0.03-0.1,0.05-0.14,0.08c0.11-0.08,0.12-0.05,0.07-0.03
			c-0.04,0.01-0.08,0.03-0.12,0.04c-0.02,0.01-0.04,0.01-0.06,0.01c-0.12,0.03,0.16-0.01,0.03,0c-0.05,0-0.14-0.02-0.18,0
			c0.06-0.02,0.13,0.02,0.05,0.01c-0.04-0.01-0.07-0.01-0.11-0.02c-0.02-0.01-0.05-0.01-0.07-0.02c-0.02-0.01-0.05-0.01-0.07-0.02
			c-0.06-0.02-0.05-0.02,0.05,0.02c-0.04-0.04-0.13-0.06-0.18-0.09c-0.03-0.02-0.05-0.03-0.08-0.05c-0.11-0.07,0.1,0.09,0.01,0.01
			c-0.06-0.05-0.11-0.1-0.16-0.15c-0.02-0.02-0.05-0.07-0.07-0.08c0.02,0.02,0.04,0.05,0.06,0.07c-0.01-0.02-0.03-0.04-0.04-0.06
			c-0.04-0.06-0.08-0.12-0.11-0.19c-0.01-0.02-0.06-0.13-0.01-0.02c0.05,0.11-0.01-0.04-0.02-0.06c-0.01-0.02-0.01-0.05-0.02-0.07
			c-0.01-0.02-0.01-0.05-0.01-0.07c-0.01-0.06-0.01-0.05,0,0.05c0.02-0.06,0-0.16,0-0.22c0.02-0.32-0.29-0.62-0.61-0.61
			C43.72,19.84,43.48,20.09,43.45,20.44L43.45,20.44z"/>
	</g>
</g>
<g>
	<g>
		<path class="st1" d="M49.06,22.03c-0.25-0.44-0.54-0.91-0.57-1.43c-0.01-0.12,0-0.25,0.01-0.37c-0.01,0.08,0.01-0.06,0.01-0.06
			c0.01-0.06,0.03-0.12,0.05-0.18c0.01-0.03,0.02-0.06,0.03-0.09c-0.02,0.05-0.02,0.05,0-0.01c0.02-0.04,0.04-0.08,0.06-0.12
			c0.01-0.02,0.12-0.17,0.04-0.08c0.03-0.04,0.07-0.08,0.11-0.11c0.02-0.02,0.15-0.11,0.04-0.04c0.05-0.03,0.11-0.07,0.16-0.1
			c0.13-0.07-0.09,0.02,0.05-0.02c0.02-0.01,0.22-0.04,0.09-0.03c0.11-0.01,0.22-0.02,0.33,0c-0.11-0.01,0.08,0.02,0.1,0.02
			c0.06,0.01,0.11,0.03,0.17,0.04c0.06,0.02,0.11,0.04,0.17,0.05c0.06,0.02,0.06,0.02,0.02,0.01c0.03,0.01,0.07,0.03,0.1,0.04
			c0.11,0.05,0.23,0.11,0.34,0.17c0.23,0.12,0.46,0.26,0.69,0.39c0.39,0.24,0.8-0.31,0.5-0.64c-0.67-0.71-1.7-1.42-2.72-1.11
			c-1.04,0.31-1.46,1.42-1.24,2.42c0.13,0.59,0.41,1.13,0.7,1.65C48.58,22.93,49.33,22.49,49.06,22.03L49.06,22.03z"/>
	</g>
</g>
<g>
	<g>
		<path class="st1" d="M51.45,14.62c0.01,0.01,0.01,0.02,0.02,0.02c-0.03-0.04-0.06-0.07-0.09-0.11c0.12,0.16,0.22,0.33,0.29,0.51
			c-0.02-0.04-0.03-0.08-0.05-0.13c0.08,0.2,0.14,0.4,0.17,0.61c0,0.03,0.01,0.11,0-0.02c0.01,0.05,0.02,0.11,0.02,0.16
			c0,0.05-0.01-0.09,0-0.01c0,0.03,0,0.06,0.01,0.09c0,0.11,0.01,0.21,0.01,0.32c0,0.16,0.11,0.32,0.27,0.35
			c0.15,0.03,0.35-0.03,0.42-0.18c0.18-0.36,0.24-0.74,0.2-1.14c-0.04-0.41-0.18-0.8-0.4-1.15c-0.18-0.27-0.53-0.34-0.8-0.14
			c-0.12,0.09-0.19,0.2-0.21,0.35C51.27,14.35,51.34,14.48,51.45,14.62L51.45,14.62z"/>
	</g>
</g>
<g>
	<g>
		<path class="st1" d="M55.41,18.32c-0.03,0.04-0.06,0.07-0.09,0.1c-0.1,0.11,0.08-0.04-0.02,0.01c-0.1,0.06-0.19,0.11-0.3,0.16
			c-0.22,0.11-0.43,0.21-0.62,0.38c-0.48,0.41-0.49,1.08-0.07,1.53c0.17,0.18,0.38,0.31,0.56,0.48c0.02,0.02,0.11,0.13,0.06,0.05
			c0.03,0.04,0.06,0.09,0.08,0.14c0.01,0.01,0.04,0.1,0.02,0.04c-0.02-0.05,0,0.02,0.01,0.03c0.01,0.03,0.02,0.06,0.02,0.09
			c0,0.01,0.02,0.13,0.01,0.07c0-0.03,0,0.09,0,0.12c0,0.03-0.01,0.15-0.01,0.12c0.01-0.06-0.01,0.04-0.01,0.05
			c-0.01,0.02-0.01,0.04-0.02,0.07c-0.01,0.03-0.02,0.06-0.03,0.09c0.02-0.05,0.01-0.03-0.01,0.01c-0.01,0.02-0.11,0.16-0.05,0.09
			c-0.03,0.04-0.07,0.08-0.11,0.12c-0.04,0.04,0.01-0.01,0.02-0.01c-0.03,0.02-0.05,0.03-0.08,0.05c-0.03,0.02-0.05,0.03-0.08,0.04
			c0.05-0.02,0.05-0.02,0,0c-0.03,0.01-0.06,0.02-0.09,0.02c-0.01,0-0.13,0.02-0.07,0.01c0.06-0.01-0.02,0-0.03,0
			c-0.04,0-0.08,0-0.12,0c-0.02,0-0.05,0-0.07,0c0.09,0-0.02,0-0.03,0c-0.07-0.01-0.14-0.02-0.2-0.04c0,0-0.07-0.02-0.03-0.01
			c0.04,0.02-0.06-0.03-0.07-0.03c-0.05-0.03-0.11-0.06-0.16-0.09c0.02,0.02-0.08-0.08-0.1-0.1c-0.05-0.05-0.1-0.09-0.14-0.15
			c-0.23-0.29-0.69,0.04-0.62,0.36c0.15,0.6,0.73,1,1.32,1.06c0.64,0.07,1.28-0.25,1.59-0.83c0.28-0.54,0.3-1.23-0.03-1.76
			c-0.17-0.26-0.39-0.42-0.63-0.62c-0.05-0.04-0.1-0.08-0.14-0.13c0.08,0.08-0.06-0.07-0.02-0.02c0,0.01,0,0.01,0.01,0.02
			c-0.01-0.05-0.02-0.06-0.01-0.02c0,0.01,0,0.01,0,0.02c0-0.06,0-0.06,0-0.02c0,0.01,0,0.02,0,0.03c0.01-0.04,0.01-0.05,0,0
			c-0.02,0.04-0.02,0.04,0,0c0.01-0.01,0.01-0.02,0.02-0.03c-0.09,0.11-0.05,0.06-0.02,0.04c0.08-0.08-0.08,0.04-0.02,0.02
			c0.05-0.02,0.1-0.06,0.15-0.08c0.11-0.05,0.23-0.1,0.34-0.15c0.27-0.12,0.55-0.26,0.75-0.5c0.2-0.23,0.26-0.61,0.01-0.84
			C56.05,18.11,55.63,18.06,55.41,18.32L55.41,18.32z"/>
	</g>
</g>
<g>
	<g>
		<path class="st1" d="M64.56,22.22c0.05,0.21,0.11,0.43,0.16,0.64c0.29-0.17,0.58-0.33,0.87-0.5c-0.61-0.48-1.09-1.13-1.03-1.9
			c0.01-0.09,0-0.08,0.04-0.2c0.02-0.07,0.06-0.2,0.08-0.23c0.01-0.02,0.08-0.15,0.12-0.21c0.02-0.04,0.05-0.08,0.08-0.12
			c0.01-0.02,0.02-0.03,0.03-0.05c-0.02,0.03-0.02,0.03,0,0c0.06-0.07,0.13-0.13,0.2-0.19c0.02-0.02,0.1-0.08,0.04-0.03
			c0.04-0.03,0.08-0.05,0.12-0.07c0.2-0.11,0.3-0.16,0.5-0.25c0.33-0.14,0.24-0.67-0.09-0.75c-1.15-0.25-2.03,0.96-2.15,1.97
			c-0.12,1.07,0.52,2.14,1.34,2.77c0.18,0.14,0.41,0.19,0.62,0.07c0.19-0.11,0.31-0.35,0.25-0.57c-0.06-0.21-0.12-0.43-0.17-0.64
			C65.38,21.32,64.4,21.59,64.56,22.22L64.56,22.22z"/>
	</g>
</g>
<g>
	<g>
		<path class="st1" d="M67.77,21.35c0.84,0.67,2.14,0.69,2.82-0.22c0.57-0.76,0.51-1.9-0.32-2.44c-0.37-0.24-0.85-0.32-1.28-0.23
			c-0.53,0.12-0.9,0.54-1.09,1.03c-0.39,0.97-0.06,2.23,0.71,2.92c0.96,0.86,2.46,0.91,3.46,0.1c0.15-0.12,0.14-0.36,0.03-0.5
			c-0.13-0.16-0.32-0.17-0.5-0.09c-0.33,0.15-0.68,0.21-1.03,0.19c-0.33-0.01-0.65-0.12-0.95-0.3c-0.25-0.15-0.51-0.43-0.67-0.68
			c-0.18-0.28-0.29-0.57-0.3-0.91c-0.01-0.32,0.05-0.67,0.29-0.91c0.07-0.07,0.17-0.13,0.3-0.16c0.11-0.03,0.23-0.02,0.35,0.01
			c0.56,0.13,0.81,0.74,0.55,1.25c-0.32,0.63-1.2,0.69-1.71,0.27c-0.19-0.16-0.46-0.17-0.64,0.01
			C67.62,20.87,67.58,21.2,67.77,21.35L67.77,21.35z"/>
	</g>
</g>
<g>
	<g>
		<path class="st1" d="M75.34,19.67c-0.12-0.56-0.71-0.85-1.25-0.79c-0.67,0.08-1.09,0.66-1.28,1.26c-0.18,0.58-0.23,1.27,0.05,1.83
			c0.31,0.63,1.1,0.83,1.73,0.6c0.81-0.3,1.18-1.09,1.26-1.9c0.03-0.28-0.25-0.51-0.51-0.51c-0.31,0-0.49,0.24-0.53,0.52
			c-0.2,1.44,1.63,2.98,2.91,1.98c0.33-0.26,0.05-0.79-0.32-0.78c-0.12,0-0.24,0-0.37,0c-0.02,0-0.17-0.02-0.07,0
			c-0.05-0.01-0.11-0.02-0.16-0.03c-0.05-0.01-0.1-0.03-0.15-0.04c0.1,0.03-0.07-0.03-0.09-0.04c-0.11-0.05-0.21-0.1-0.31-0.17
			c0.08,0.06-0.05-0.05-0.06-0.05c-0.04-0.04-0.08-0.07-0.12-0.11c-0.02-0.03-0.05-0.05-0.07-0.08c0.03,0.03,0.03,0.04,0.01,0
			c-0.04-0.05-0.07-0.1-0.1-0.16c-0.01-0.02-0.06-0.15-0.03-0.07c-0.02-0.05-0.03-0.1-0.04-0.15c-0.02-0.1-0.01,0.02-0.01-0.08
			c0-0.07,0-0.14,0.01-0.22c-0.35,0-0.69,0.01-1.04,0.01c-0.02,0.23-0.08,0.46-0.2,0.66c-0.11,0.18-0.24,0.28-0.41,0.31
			c-0.16,0.04-0.29-0.01-0.39-0.14c0.05,0.06-0.04-0.07-0.05-0.07c-0.01-0.01-0.07-0.14-0.04-0.08c-0.03-0.09-0.06-0.21-0.07-0.28
			c-0.05-0.39,0.02-0.92,0.29-1.23c0.12-0.14,0.21-0.17,0.39-0.16c0.12,0.01,0.21,0.08,0.24,0.17
			C74.69,20.38,75.44,20.16,75.34,19.67L75.34,19.67z"/>
	</g>
</g>
<g>
	<g>
		<path class="st1" d="M77.24,19.09c0.42,1.41,0.91,2.86,1.73,4.09c0.3,0.45,1.09,0.17,0.94-0.39c-0.38-1.37-0.92-2.7-1.33-4.06
			c-0.1-0.35-0.48-0.59-0.84-0.47C77.41,18.36,77.13,18.72,77.24,19.09L77.24,19.09z"/>
	</g>
</g>
<g>
	<g>
		<path class="st1" d="M88.11,20.21c0.17,0,0.18-0.26,0.01-0.26C87.95,19.95,87.94,20.21,88.11,20.21L88.11,20.21z"/>
	</g>
</g>
<g>
	<g>
		<path class="st1" d="M89.45,20.04c0.17,0,0.18-0.26,0.01-0.26C89.28,19.78,89.28,20.04,89.45,20.04L89.45,20.04z"/>
	</g>
</g>
<g>
	<g>
		<path class="st1" d="M89,19.18c-0.52-0.48-1.22-0.67-1.91-0.56c-0.65,0.1-1.22,0.52-1.54,1.1c-0.34,0.61-0.39,1.33-0.12,1.97
			c0.27,0.64,0.96,0.9,1.62,0.83c0.32-0.03,0.62-0.09,0.93-0.16c0.02,0,0.04-0.01,0.07-0.01c0.12-0.02-0.16,0.02-0.01,0
			c0.07-0.01,0.14-0.02,0.21-0.03c-0.19,0.03-0.07,0.01-0.03,0.01c0.03,0,0.05,0,0.08,0c0.02,0,0.03,0,0.05,0
			c-0.12-0.02-0.1-0.01,0.06,0.01c0.09,0.01-0.04,0-0.04-0.01c0.01,0.01,0.1,0.02,0.12,0.03c0.19,0.06,0.45-0.05,0.54-0.23
			c0.11-0.2,0.06-0.39-0.07-0.57c-0.32-0.4-0.91-0.49-1.39-0.45c-0.15,0.01-0.29,0.04-0.44,0.07c-0.02,0-0.05,0.01-0.07,0.01
			c-0.08,0.01,0.15-0.02,0.07-0.01c-0.06,0-0.11,0.01-0.17,0.02c-0.09,0.01-0.19,0.01-0.28,0c-0.16-0.01,0.13,0.03,0,0
			c-0.02-0.01-0.04-0.01-0.06-0.02c-0.13-0.03,0.09,0.05,0.04,0.02c-0.02-0.01-0.04-0.02-0.06-0.03c-0.1-0.05,0.03-0.02,0.04,0.03
			c0-0.01-0.07-0.06-0.07-0.06c-0.05-0.05,0-0.05,0.02,0.03c-0.01-0.04-0.07-0.11-0.09-0.15c-0.07-0.12,0.02,0.09,0,0.01
			c-0.01-0.03-0.02-0.07-0.03-0.1c-0.01-0.03-0.01-0.06-0.02-0.09c-0.02-0.08,0.01,0.12,0,0.04c0-0.06-0.01-0.12,0-0.17
			c0-0.05,0.04-0.19,0-0.04c0.02-0.06,0.02-0.13,0.04-0.19c0.01-0.05,0.03-0.1,0.05-0.15c0.04-0.12-0.05,0.09-0.01,0.01
			c0.01-0.02,0.02-0.05,0.04-0.07c0.03-0.05,0.06-0.1,0.09-0.15c0.02-0.04,0.06-0.05-0.02,0.03c0.03-0.03,0.05-0.06,0.08-0.09
			c0.04-0.04,0.07-0.07,0.11-0.11c0,0,0.06-0.04,0.06-0.05c-0.01,0.04-0.11,0.08-0.02,0.02c0.04-0.03,0.09-0.06,0.13-0.08
			c0.01-0.01,0.09-0.04,0.09-0.04c0,0.02-0.14,0.05-0.02,0.01c0.06-0.02,0.13-0.04,0.19-0.05c0.11-0.02,0-0.02-0.02,0
			c0.01-0.01,0.09-0.01,0.1-0.01c0.07,0,0.13,0,0.2,0c0.01,0,0.01,0,0.02,0c0.06,0.01,0.05,0-0.03,0c0.02-0.01,0.08,0.01,0.1,0.02
			c0.06,0.01,0.13,0.03,0.19,0.05c0.01,0,0.01,0,0.02,0.01c0.06,0.02,0.05,0.02-0.03-0.01c0.02,0,0.07,0.03,0.09,0.04
			c0.06,0.03,0.11,0.07,0.17,0.1c0.07,0.04-0.11-0.09-0.01-0.01c0.03,0.03,0.06,0.05,0.09,0.08c0.23,0.21,0.62,0.22,0.83-0.02
			C89.21,19.77,89.24,19.41,89,19.18L89,19.18z"/>
	</g>
</g>
<g>
	<g>
		<path class="st1" d="M93.39,19.79c-0.16-0.59-0.68-0.96-1.27-1.03c-0.65-0.07-1.23,0.27-1.59,0.79c-0.33,0.48-0.48,1.15-0.31,1.71
			c0.22,0.69,0.84,1.07,1.55,0.95c0.35-0.06,0.66-0.25,0.91-0.49c0.25-0.25,0.39-0.57,0.61-0.83c-0.28-0.11-0.55-0.22-0.83-0.33
			c-0.02,0.58,0.29,1.12,0.76,1.45c0.45,0.32,1.14,0.4,1.6,0.06c0.15-0.11,0.26-0.28,0.21-0.47c-0.05-0.18-0.22-0.31-0.41-0.31
			c-0.08,0-0.16-0.01-0.24-0.01c0.09,0.01-0.06-0.01-0.06-0.01c-0.03-0.01-0.06-0.01-0.1-0.02c-0.05-0.01-0.1-0.02-0.14-0.04
			c0.05,0.02,0.03,0.01-0.01-0.01c-0.08-0.04-0.16-0.08-0.24-0.13c-0.04-0.02-0.07-0.04-0.1-0.07c0.06,0.05,0,0-0.02-0.02
			c-0.03-0.03-0.06-0.06-0.09-0.09c-0.01-0.01-0.09-0.11-0.05-0.06c0.04,0.05-0.04-0.07-0.04-0.07c-0.01-0.01-0.06-0.12-0.04-0.07
			c0.02,0.05-0.02-0.06-0.02-0.08c0-0.01-0.03-0.15-0.02-0.07c-0.06-0.55-0.75-0.63-0.95-0.11c-0.08,0.21-0.24,0.4-0.4,0.56
			c-0.08,0.08-0.16,0.14-0.27,0.19c0.06-0.03-0.11,0.03-0.1,0.03c-0.07,0.02-0.02,0.01-0.1,0.02c-0.11,0.01-0.12,0-0.19-0.03
			c-0.09-0.04-0.01,0.01-0.07-0.06c0.06,0.06-0.03-0.05-0.04-0.06c-0.05-0.09-0.01,0.02-0.03-0.07c-0.01-0.05-0.03-0.11-0.03-0.16
			c0.01,0.08,0-0.07,0-0.09c0-0.04,0-0.08,0-0.11c0.01-0.06,0.01-0.07,0-0.04c0.01-0.05,0.05-0.2,0.08-0.29c0.01-0.03,0.01-0.04,0,0
			c0.01-0.03,0.02-0.05,0.04-0.08c0.03-0.06,0.06-0.11,0.1-0.17c-0.05,0.07,0.05-0.05,0.05-0.06c0.04-0.04,0.08-0.08,0.12-0.11
			c-0.08,0.06,0.05-0.02,0.07-0.03c0.1-0.06-0.04,0,0.06-0.03c0.02,0,0.16-0.03,0.05-0.02c0.05,0,0.1,0,0.15,0
			c-0.1,0,0.03,0.01,0.06,0.01c0.03,0.01,0.14,0.05,0.06,0.01c0.04,0.02,0.09,0.04,0.13,0.07c-0.09-0.06,0.02,0.02,0.04,0.04
			c0.04,0.05,0.04,0.05,0-0.01c0.01,0.02,0.03,0.04,0.04,0.06c0.01,0.02,0.02,0.04,0.03,0.06c-0.02-0.06-0.03-0.06-0.01,0
			C92.51,20.75,93.57,20.45,93.39,19.79L93.39,19.79z"/>
	</g>
</g>
<g>
	<g>
		<path class="st1" d="M96.97,19.21c0.17,0,0.18-0.26,0.01-0.26C96.81,18.95,96.8,19.21,96.97,19.21L96.97,19.21z"/>
	</g>
</g>
<g>
	<g>
		<path class="st1" d="M97.3,18.7c0.17,0,0.18-0.26,0.01-0.26C97.14,18.45,97.13,18.7,97.3,18.7L97.3,18.7z"/>
	</g>
</g>
<g>
	<g>
		<path class="st1" d="M96.45,18.07c-0.18,0.68-0.27,1.4-0.25,2.1c0.01,0.37,0.05,0.75,0.13,1.11c0.09,0.4,0.23,0.88,0.6,1.1
			c0.36,0.21,0.73-0.04,0.87-0.37c0.06-0.15,0.04-0.28,0.03-0.44c0,0.05,0,0.05,0,0c-0.01-0.07-0.01-0.14-0.02-0.21
			c-0.02-0.16-0.05-0.31-0.07-0.47c-0.01-0.07-0.02-0.13-0.03-0.2c-0.01-0.04-0.01-0.09-0.02-0.13c0.01,0.07,0.01,0.07,0-0.02
			c-0.01-0.14-0.02-0.29-0.03-0.43c-0.01-0.3,0-0.6,0.03-0.9c0.01-0.07,0.02-0.13,0.02-0.2c-0.02,0.14,0.02-0.12,0.03-0.15
			c0.03-0.15,0.07-0.3,0.11-0.46c0.1-0.36-0.12-0.79-0.5-0.87C96.97,17.47,96.56,17.68,96.45,18.07L96.45,18.07z"/>
	</g>
</g>
<g>
	<g>
		<path class="st1" d="M95.95,20.02c0.69,0.02,1.39,0.03,2.08,0.06c0.35,0.01,0.7,0.04,1.04,0.02c0.4-0.02,0.81-0.03,1.16-0.23
			c0.36-0.2,0.37-0.72,0.01-0.93c-0.34-0.2-0.76-0.21-1.15-0.22c-0.35-0.01-0.7,0.01-1.04,0.02c-0.7,0.03-1.39,0.04-2.09,0.06
			c-0.33,0.01-0.62,0.28-0.63,0.61C95.34,19.76,95.63,20.01,95.95,20.02L95.95,20.02z"/>
	</g>
</g>
<g>
	<g>
		<path class="st0" d="M171.4,46.04c-1.52-0.35-2.82,0.86-3.15,2.28c-0.21,0.93-0.08,1.89,0.08,2.81c0.19,1.06,0.39,2.12,0.55,3.19
			c0.63,4.29,0.89,8.63,0.91,12.97c0.05,8.68-0.72,17.37-1.27,26.04c-0.31,4.93-0.56,9.85-0.55,14.8c0,0.31,0.25,0.55,0.55,0.55
			c1.39,0.02,2.77,0.02,4.16-0.03c0.65-0.02,0.68-0.97,0.02-1c-1.39-0.07-2.77-0.09-4.16-0.09c0.18,0.18,0.37,0.37,0.55,0.55
			c-0.11-8.27,0.68-16.5,1.21-24.75c0.53-8.23,0.8-16.51-0.07-24.73c-0.24-2.23-0.56-4.45-0.98-6.66c-0.21-1.12-0.56-2.33-0.27-3.47
			c0.23-0.92,1.14-1.84,2.15-1.58C171.72,47.07,171.99,46.17,171.4,46.04L171.4,46.04z"/>
	</g>
</g>
<g>
	<g>
		<path class="st0" d="M177.13,52.18c0.06,0.89,0.15,1.79,0.27,2.67c0.11,0.86,0.2,1.8,0.62,2.57c0.27,0.48,0.93,0.2,0.98-0.27
			c0.09-0.84-0.15-1.73-0.28-2.56c-0.12-0.81-0.22-1.62-0.29-2.43c-0.03-0.35-0.27-0.64-0.64-0.63
			C177.47,51.54,177.11,51.83,177.13,52.18L177.13,52.18z"/>
	</g>
</g>
<g>
	<g>
		<path class="st0" d="M176.04,68.1c0.35-0.18,0.76-0.42,1.17-0.38c0.26,0.03,0.49,0.18,0.49,0.46c0.01,0.4-0.2,0.86-0.34,1.22
			c-0.15,0.4-0.38,0.77-0.56,1.16c-0.2,0.44-0.32,0.94-0.08,1.39c0.24,0.45,0.71,0.6,1.18,0.64c0.98,0.1,2.02,0.06,2.99-0.09
			c0.5-0.08,0.51-0.87,0.02-0.98c-0.52-0.11-1.05-0.16-1.58-0.19c-0.49-0.03-0.99,0-1.47-0.04c-0.08,0-0.09,0-0.04-0.01
			c-0.07-0.02-0.09-0.02-0.04-0.01c0,0,0.07,0.09,0.04,0.09c-0.04,0,0.09-0.39,0.11-0.42c0.19-0.44,0.41-0.87,0.56-1.33
			c0.28-0.84,0.54-1.98-0.36-2.54c-0.82-0.51-1.74-0.13-2.49,0.29C175.15,67.65,175.56,68.35,176.04,68.1L176.04,68.1z"/>
	</g>
</g>
<g>
	<g>
		<path class="st0" d="M174.78,84.63c0.8-0.08,1.6-0.15,2.39-0.3c0.21-0.04,0.35-0.27,0.33-0.47c-0.03-0.22-0.21-0.35-0.42-0.37
			c-0.76-0.06-1.52-0.02-2.27,0c-0.3,0.01-0.6,0.26-0.6,0.58C174.21,84.36,174.46,84.67,174.78,84.63L174.78,84.63z"/>
	</g>
</g>
<g>
	<g>
		<path class="st0" d="M179.22,82.01c0.17-0.02,1.11-0.12,0.92,0.27c-0.11,0.23-0.41,0.44-0.59,0.62c-0.24,0.23-0.48,0.45-0.74,0.66
			c-0.17,0.14-0.24,0.49-0.1,0.67c0.33,0.43,0.74,0.63,1.2,0.87c0.13,0.07,0.63,0.37,0.52,0.52c-0.08,0.11-0.42,0.14-0.54,0.17
			c-0.28,0.08-0.57,0.15-0.86,0.23c-0.59,0.15-1.2,0.27-1.76,0.52c-0.17,0.07-0.25,0.31-0.21,0.48c0.05,0.2,0.22,0.29,0.41,0.31
			c0.7,0.08,1.46-0.12,2.14-0.29c0.6-0.15,1.43-0.32,1.77-0.9c0.32-0.54,0.06-1.2-0.34-1.62c-0.21-0.22-0.48-0.35-0.74-0.49
			c-0.2-0.1-0.46-0.2-0.6-0.38c-0.03,0.22-0.06,0.45-0.1,0.67c0.36-0.29,0.7-0.6,1.03-0.92c0.35-0.35,0.71-0.72,0.71-1.25
			c0-0.47-0.31-0.89-0.71-1.11c-0.43-0.24-0.93-0.23-1.4-0.19c-0.31,0.03-0.6,0.25-0.6,0.59C178.64,81.73,178.91,82.04,179.22,82.01
			L179.22,82.01z"/>
	</g>
</g>
<g>
	<g>
		<path class="st0" d="M177.93,99.29c0.06,1.38,0.12,2.75,0.37,4.11c0.04,0.24,0.31,0.38,0.53,0.35c0.25-0.04,0.41-0.23,0.44-0.48
			c0.14-1.33,0.1-2.66,0.07-3.99c-0.01-0.37-0.3-0.7-0.69-0.68C178.29,98.62,177.91,98.9,177.93,99.29L177.93,99.29z"/>
	</g>
</g>
<g>
	<g>
		<path class="st0" d="M178.93,100.81c-0.52,0-1.04,0.02-1.57,0.06c-0.56,0.04-1.2,0.03-1.71,0.28c0.27,0.07,0.53,0.13,0.8,0.2
			c-0.09-0.14-0.13-0.4-0.19-0.57c-0.07-0.22-0.14-0.43-0.2-0.65c-0.15-0.46-0.26-1.01-0.62-1.35c-0.15-0.14-0.38-0.18-0.56-0.1
			c-0.2,0.09-0.31,0.26-0.33,0.48c-0.06,0.46,0.19,0.94,0.36,1.37c0.08,0.2,0.15,0.4,0.23,0.6c0.08,0.21,0.21,0.45,0.24,0.68
			c0.02,0.19,0.23,0.37,0.41,0.41c0.51,0.1,1.08-0.04,1.6-0.09c0.51-0.04,1.02-0.07,1.53-0.08c0.32-0.01,0.65-0.28,0.64-0.62
			C179.54,101.08,179.28,100.81,178.93,100.81L178.93,100.81z"/>
	</g>
</g>
<g>
	<g>
		<path class="st0" d="M183.84,46.86c1.1-0.36,1.49,1.07,1.52,1.87c0.03,1.03-0.03,2.06-0.02,3.1c0.02,2.04,0.1,4.08,0.22,6.12
			c0.26,4.16,0.68,8.31,0.97,12.47c0.29,4.11,0.4,8.22,0.21,12.33c-0.19,4.1-0.58,8.18-0.82,12.27c-0.14,2.3-0.2,4.6-0.14,6.9
			c0.06,2.31,0.32,4.59,0.59,6.88c0.13-0.21,0.26-0.43,0.39-0.64c-1.68,0.47-3.39,0.52-5.12,0.59c-0.57,0.02-0.79,0.93-0.16,1.04
			c1.87,0.34,3.75-0.02,5.53-0.63c0.28-0.1,0.44-0.34,0.39-0.64c-0.69-4.23-0.46-8.65-0.28-12.91c0.19-4.29,0.57-8.58,0.74-12.87
			c0.35-8.69-0.89-17.26-1.41-25.91c-0.15-2.45-0.2-4.89-0.15-7.35c0.02-0.91,0.02-1.91-0.58-2.65c-0.49-0.59-1.31-0.9-2.05-0.63
			C183.27,46.36,183.41,47,183.84,46.86L183.84,46.86z"/>
	</g>
</g>
<g>
	<g>
		<path class="st1" d="M143.41,10.97c0.3,1.33,0.61,2.66,0.91,3.99c0.34-0.09,0.68-0.18,1.03-0.28c-0.2-0.57-0.56-1.03-0.95-1.48
			c-0.17-0.19-0.33-0.37-0.44-0.54c-0.07-0.1-0.13-0.2-0.19-0.31c0-0.01-0.06-0.14-0.03-0.06c-0.02-0.06-0.04-0.12-0.06-0.19
			c-0.01-0.03-0.01-0.06-0.02-0.1c0,0.04,0,0.04,0,0c0-0.06,0-0.12,0-0.18c0.01-0.06,0.04-0.17,0.08-0.25
			c0.11-0.21,0.3-0.35,0.53-0.45c0.58-0.27,1.38-0.1,2.03-0.08c0.2,0.01,0.38-0.16,0.41-0.36c0.03-0.21-0.1-0.37-0.29-0.44
			c-1.18-0.42-2.71-0.4-3.48,0.75c-0.29,0.44-0.36,1.03-0.18,1.52c0.17,0.47,0.48,0.86,0.79,1.25c0.18,0.22,0.3,0.36,0.44,0.57
			c0.07,0.11,0.14,0.22,0.21,0.33c0.08,0.15,0.08,0.14,0.13,0.3c0.2,0.64,1.16,0.37,1.03-0.28c-0.28-1.34-0.56-2.67-0.84-4.01
			C144.36,9.97,143.25,10.28,143.41,10.97L143.41,10.97z"/>
	</g>
</g>
<g>
	<g>
		<path class="st1" d="M147.8,13.35c1.2,0.2,2.4,0.05,3.49-0.5c0.46-0.23,1-0.67,0.89-1.25c-0.11-0.57-0.82-0.77-1.31-0.85
			c-1.08-0.17-2.21,0.16-2.86,1.07c-0.66,0.92-0.61,2.13,0.12,2.99c0.93,1.09,2.48,1.17,3.8,0.96c0.46-0.07,0.49-0.85,0.02-0.92
			c-0.49-0.07-0.99-0.09-1.47-0.18c-0.22-0.04-0.43-0.1-0.64-0.16c-0.05-0.01-0.1-0.03-0.14-0.05c-0.1-0.04,0.12,0.06-0.05-0.02
			c-0.09-0.04-0.18-0.09-0.27-0.14c-0.32-0.18-0.54-0.38-0.71-0.71c-0.11-0.22-0.13-0.57-0.05-0.86c0.19-0.7,0.81-1.18,1.53-1.28
			c0.38-0.05,0.83-0.01,1.19,0.15c0.41,0.18-0.11,0.48-0.31,0.58c-0.91,0.44-1.99,0.6-2.98,0.45c-0.2-0.03-0.41,0.06-0.47,0.27
			C147.48,13.09,147.6,13.32,147.8,13.35L147.8,13.35z"/>
	</g>
</g>
<g>
	<g>
		<path class="st1" d="M153.58,12.59c0.06,1.3,0.11,2.59,0.18,3.89c0.07,1.27,0.08,2.62,0.46,3.85c0.12,0.39,0.76,0.43,0.85-0.01
			c0.26-1.26,0.16-2.58,0.12-3.85c-0.05-1.3-0.12-2.59-0.18-3.89C154.97,11.66,153.54,11.69,153.58,12.59L153.58,12.59z"/>
	</g>
</g>
<g>
	<g>
		<path class="st1" d="M153.97,12.62c0.54-0.87,1.77-0.83,2.48-0.19c0.38,0.34,0.72,0.85,0.72,1.38c0,0.24-0.1,0.39-0.25,0.53
			c-0.13,0.13-0.35,0.24-0.54,0.29c-0.16,0.04-0.24,0.05-0.42,0.05c-0.18,0-0.36-0.03-0.53-0.07c-0.4-0.09-0.83-0.29-1.24-0.22
			c-0.24,0.04-0.41,0.39-0.26,0.6c0.27,0.36,0.83,0.53,1.26,0.62c0.44,0.1,0.9,0.12,1.34,0.02c0.71-0.16,1.41-0.7,1.56-1.45
			c0.16-0.82-0.25-1.64-0.81-2.22c-0.5-0.51-1.21-0.86-1.94-0.85c-0.82,0-1.62,0.41-2.05,1.12
			C152.99,12.69,153.69,13.06,153.97,12.62L153.97,12.62z"/>
	</g>
</g>
<g>
	<g>
		<path class="st1" d="M160.51,13.81c-0.11-0.13,0.03,0.05-0.03-0.04c-0.03-0.04-0.05-0.08-0.08-0.12c-0.03-0.05-0.06-0.1-0.08-0.15
			c-0.01-0.03-0.03-0.07-0.01-0.02c-0.04-0.1-0.07-0.19-0.09-0.29c-0.01-0.05-0.02-0.09-0.03-0.14c0.01,0.07,0-0.02,0-0.05
			c-0.01-0.09-0.01-0.19,0-0.28c0-0.05,0.01-0.09,0.01-0.14c-0.01,0.09,0.01-0.03,0.01-0.05c0.02-0.1,0.05-0.2,0.08-0.3
			c0.01-0.04,0.03-0.07,0-0.01c0.02-0.05,0.05-0.1,0.07-0.15c0.04-0.08,0.08-0.16,0.13-0.23c0.01-0.01,0.09-0.13,0.05-0.07
			c-0.05,0.06,0.04-0.05,0.05-0.06c0.06-0.07,0.12-0.13,0.19-0.19c0,0,0.12-0.11,0.06-0.05c-0.09,0.08,0.21-0.14,0.07-0.05
			c0.07-0.05,0.15-0.1,0.23-0.14c0.05-0.03,0.09-0.05,0.14-0.07c0.1-0.05-0.03,0.01,0.03-0.01c0.18-0.07,0.35-0.13,0.54-0.17
			c0.23-0.04,0.39-0.3,0.36-0.52c-0.03-0.25-0.22-0.39-0.47-0.41c-0.99-0.07-2.03,0.56-2.46,1.46c-0.45,0.94-0.32,2.12,0.29,2.96
			c0.2,0.28,0.56,0.37,0.85,0.15C160.73,14.44,160.73,14.07,160.51,13.81L160.51,13.81z"/>
	</g>
</g>
<g>
	<g>
		<path class="st1" d="M162.86,13.72c1.17,0.37,2.47,0.13,3.41-0.68c0.41-0.35,0.77-0.94,0.63-1.49c-0.14-0.55-0.71-0.84-1.23-0.9
			c-1-0.11-1.99,0.62-2.3,1.56c-0.36,1.1,0.26,2.34,1.15,2.99c1.23,0.89,2.85,0.77,4.17,0.18c0.21-0.09,0.29-0.38,0.2-0.58
			c-0.09-0.22-0.31-0.31-0.55-0.27c-0.89,0.18-1.87,0.29-2.74-0.03c-0.64-0.24-1.23-0.81-1.37-1.49c-0.14-0.65,0.25-1.29,0.86-1.54
			c0.27-0.11,0.61-0.12,0.86,0.05c0.36,0.24,0.08,0.62-0.17,0.83c-0.71,0.58-1.79,0.7-2.65,0.44
			C162.53,12.61,162.26,13.53,162.86,13.72L162.86,13.72z"/>
	</g>
</g>
<g>
	<g>
		<path class="st1" d="M170.95,10.3c-0.49,0.43-0.96,0.99-0.81,1.69c0.11,0.53,0.57,0.85,0.96,1.19c0.09,0.08,0.18,0.16,0.26,0.25
			c0.02,0.03,0.02,0.03,0,0c0.02,0.03,0.04,0.05,0.06,0.08c0.02,0.03,0.04,0.06,0.05,0.09c-0.01-0.03-0.01-0.03,0,0.01
			c0.05,0.13,0.05,0.19,0.04,0.31c0,0.02-0.01,0.05-0.02,0.12c-0.02,0.07-0.03,0.09-0.04,0.11c-0.06,0.1-0.09,0.15-0.16,0.21
			c-0.08,0.06-0.13,0.07-0.25,0.11c-0.17,0.05-0.4,0.01-0.62-0.07c-0.17-0.07-0.36-0.07-0.5,0.08c-0.12,0.12-0.18,0.35-0.07,0.49
			c0.44,0.62,1.36,0.72,1.98,0.3c0.61-0.4,0.89-1.22,0.63-1.91c-0.22-0.59-0.74-0.86-1.15-1.29c-0.01-0.02-0.11-0.14-0.06-0.06
			c-0.04-0.05-0.07-0.1-0.09-0.16c0.04,0.09-0.02-0.07-0.02-0.1c0.01,0.08,0.01-0.06,0.02-0.08c0.06-0.22,0.35-0.44,0.57-0.62
			c0.22-0.18,0.2-0.56,0.01-0.75C171.49,10.07,171.17,10.11,170.95,10.3L170.95,10.3z"/>
	</g>
</g>
<g>
	<g>
		<path class="st1" d="M174.05,13.64c1.07,0.22,2.34,0.36,3.06-0.65c0.26-0.36,0.38-0.85,0.25-1.28c-0.13-0.44-0.51-0.75-0.95-0.85
			c-0.99-0.21-1.83,0.52-2.04,1.45c-0.22,0.99,0.17,2.09,0.96,2.73c1.02,0.82,2.44,0.77,3.45-0.04c0.4-0.32-0.1-0.89-0.52-0.66
			c-1.24,0.67-2.83-0.03-3.07-1.42c-0.09-0.54,0.12-1.33,0.76-1.41c0.23-0.03,0.5,0.04,0.66,0.22c0.19,0.22,0.13,0.51-0.02,0.74
			c-0.48,0.76-1.57,0.54-2.3,0.4C173.77,12.76,173.52,13.53,174.05,13.64L174.05,13.64z"/>
	</g>
</g>
<g>
	<g>
		<path class="st1" d="M179.86,14.07c-0.06-0.16-0.08-0.32-0.06-0.46c0.01-0.07,0.05-0.19,0.06-0.23c0.03-0.06,0.1-0.18,0.11-0.2
			c0.11-0.15,0.2-0.21,0.37-0.28c-0.07,0.03,0.08-0.02,0.09-0.02c0.07-0.02-0.01-0.01,0.07-0.01c0.12-0.01,0.19,0,0.29,0.02
			c0.4,0.1,0.71,0.38,0.92,0.71c0.14,0.22,0.25,0.45,0.36,0.69c0.12,0.26,0.24,0.47,0.43,0.68c0.21,0.24,0.6,0.02,0.61-0.26
			c0.03-0.53-0.18-1.02-0.45-1.47c-0.26-0.42-0.63-0.8-1.09-1.01c-0.44-0.2-0.95-0.27-1.4-0.09c-0.39,0.16-0.71,0.47-0.89,0.85
			c-0.21,0.44-0.23,0.9-0.04,1.35C179.37,14.68,179.99,14.42,179.86,14.07L179.86,14.07z"/>
	</g>
</g>
<g>
	<g>
		<path class="st1" d="M183.76,10.28c0.53,1.54,0.82,3.14,1.08,4.74c0.04,0.24,0.32,0.38,0.54,0.35c0.25-0.04,0.43-0.23,0.44-0.48
			c0.11-1.68-0.2-3.37-0.71-4.96c-0.11-0.36-0.47-0.58-0.84-0.48C183.94,9.53,183.64,9.92,183.76,10.28L183.76,10.28z"/>
	</g>
</g>
<g>
	<g>
		<path class="st1" d="M183.54,11.93c1.28-0.08,2.57-0.12,3.84-0.35c0.21-0.04,0.35-0.27,0.33-0.47c-0.03-0.23-0.2-0.35-0.42-0.37
			c-1.24-0.11-2.48-0.03-3.72,0.02c-0.31,0.01-0.62,0.27-0.61,0.59C182.96,11.66,183.21,11.95,183.54,11.93L183.54,11.93z"/>
	</g>
</g>
<g>
	<g>
		<path class="st1" d="M191.29,11.94c-0.98-0.92-2.83-0.63-3.23,0.74c-0.18,0.62-0.01,1.31,0.41,1.8c0.48,0.55,1.26,0.66,1.9,0.32
			c0.69-0.37,1.1-1.2,0.91-1.97c-0.06-0.24-0.33-0.39-0.56-0.32c-0.26,0.07-0.38,0.31-0.34,0.57c0.22,1.68,2.16,2.65,3.65,1.94
			c0.45-0.21,0.15-0.9-0.32-0.78c-1,0.25-2.17-0.42-2.43-1.4c-0.3,0.08-0.6,0.16-0.91,0.24c0.17,0.43-0.22,0.83-0.61,0.88
			c-0.36,0.05-0.65-0.25-0.75-0.6c-0.11-0.39,0.01-0.82,0.42-1.01c0.41-0.18,0.92-0.1,1.25,0.2
			C191.07,12.92,191.7,12.32,191.29,11.94L191.29,11.94z"/>
	</g>
</g>
<g>
	<g>
		<path class="st1" d="M194.38,10.29c0.35,1.68,0.56,3.4,0.97,5.07c0.12,0.5,0.82,0.34,0.86-0.12c0.16-1.78-0.12-3.58-0.46-5.32
			c-0.07-0.38-0.51-0.58-0.86-0.49C194.53,9.53,194.3,9.91,194.38,10.29L194.38,10.29z"/>
	</g>
</g>
<g>
	<g>
		<path class="st1" d="M193.82,12.67c1.41,0.1,2.84,0.26,4.26,0.2c0.5-0.02,0.69-0.79,0.14-0.91c-1.43-0.31-2.92-0.39-4.37-0.53
			c-0.34-0.03-0.64,0.31-0.64,0.63C193.2,12.42,193.49,12.65,193.82,12.67L193.82,12.67z"/>
	</g>
</g>
<g>
	<g>
		<path class="st1" d="M200.31,13.28c0.08,0.27,0.15,0.53,0.24,0.8c0.1,0.29,0.21,0.58,0.34,0.86c0.08,0.17,0.33,0.25,0.5,0.2
			c0.18-0.06,0.34-0.23,0.34-0.43c-0.01-0.59-0.1-1.17-0.18-1.76c-0.02-0.15-0.17-0.31-0.3-0.38c-0.13-0.07-0.33-0.1-0.47-0.06
			C200.46,12.61,200.2,12.94,200.31,13.28L200.31,13.28z"/>
	</g>
</g>
<g>
	<g>
		<path class="st1" d="M200.16,10.64c0,0.01,0,0.02,0,0.02c0,0.02,0,0.04,0.01,0.06c0,0.06,0.02,0.11,0.05,0.16c0,0,0,0,0,0
			c0.02,0.03,0.05,0.06,0.07,0.09c0.03,0.02,0.06,0.04,0.09,0.07c0,0,0,0,0,0c0,0,0,0,0.01,0c0,0,0.01,0.01,0.01,0.01
			c0,0,0,0,0.01,0c0.01,0,0.1,0.04,0.1,0.04c0.01,0,0.02,0,0.03,0c0.02,0,0.04,0,0.06,0.01c0,0,0.01,0,0.01,0c0,0,0,0,0.01,0
			c0.03,0,0.06,0.01,0.09,0.01c0,0,0,0,0.01,0c0.01,0,0.02,0,0.03,0c0.04,0,0.08-0.01,0.12-0.03c0.04-0.01,0.08-0.04,0.11-0.07
			c0.02-0.02,0.03-0.04,0.05-0.06c0.03-0.05,0.04-0.1,0.04-0.15c0-0.01,0-0.02,0-0.02c0-0.01,0-0.02,0-0.02c0-0.02,0-0.03-0.01-0.05
			c0,0,0-0.01,0-0.01c0,0,0,0,0-0.01c0,0,0,0,0,0c0-0.04-0.01-0.07-0.01-0.11c0,0,0,0,0,0c-0.01-0.03-0.03-0.07-0.04-0.1
			c0,0,0,0,0-0.01c0,0-0.01-0.01-0.01-0.01c-0.01-0.02-0.03-0.04-0.04-0.06c-0.04-0.05-0.06-0.08-0.13-0.11
			c-0.03-0.01-0.07-0.03-0.1-0.04c-0.04,0-0.07-0.01-0.11-0.01c-0.01,0-0.02,0-0.03,0c-0.06,0-0.11,0.01-0.16,0.04
			c-0.05,0.02-0.1,0.05-0.14,0.09c-0.02,0.03-0.04,0.06-0.07,0.08C200.18,10.5,200.16,10.56,200.16,10.64L200.16,10.64z"/>
	</g>
</g>
<g>
	<g>
		<path class="st1" d="M203.23,13.12c0.06,0.73,0.26,1.5,0.83,2.01c0.54,0.48,1.39,0.62,2.04,0.27c0.61-0.32,0.86-1.05,0.67-1.69
			c-0.19-0.64-0.67-1.14-1.32-1.31c-0.85-0.21-1.78,0.1-2.39,0.69c-0.13,0.13-0.15,0.34-0.03,0.49c0.13,0.16,0.31,0.16,0.48,0.09
			c-0.05,0.02,0.04-0.02,0.05-0.02c0.04-0.01,0.07-0.03,0.11-0.04c0.06-0.02,0.11-0.05,0.17-0.07c0.03-0.01,0.06-0.02,0.09-0.03
			c0.02-0.01,0.23-0.09,0.14-0.06c-0.06,0.02,0.08-0.03,0.07-0.03c0.04-0.01,0.07-0.03,0.11-0.04c0.13-0.04,0.27-0.07,0.4-0.1
			c0.08-0.02-0.11,0,0.03,0c0.03,0,0.06,0,0.09-0.01c0.08,0,0.15,0,0.22,0c0.09,0.01,0.03,0,0.01,0c0.04,0.01,0.07,0.01,0.11,0.02
			c0.07,0.01,0.13,0.03,0.2,0.06c-0.09-0.03,0.02,0.01,0.05,0.03c0.02,0.01,0.05,0.03,0.07,0.04c0.09,0.05-0.01-0.02,0.01,0.01
			c0.05,0.05,0.19,0.13,0.21,0.2c-0.01-0.07-0.04-0.06-0.01-0.01c0.01,0.02,0.03,0.04,0.04,0.06c0.03,0.05,0.06,0.11,0.09,0.17
			c0.03,0.07,0-0.02-0.01-0.03c0.01,0,0.02,0.05,0.02,0.06c0.01,0.05,0.02,0.1,0.03,0.15c0.02,0.1,0.01-0.01,0-0.01
			c0,0,0,0.07,0,0.06c0,0.02,0,0.16-0.01,0.16c-0.02,0,0.03-0.11,0-0.02c-0.01,0.02-0.01,0.04-0.02,0.06
			c-0.03,0.1-0.02-0.02,0.01-0.02c0,0-0.03,0.06-0.03,0.06c-0.01,0.02-0.02,0.04-0.03,0.05c-0.05,0.09,0.06-0.06,0.01-0.02
			c-0.02,0.01-0.03,0.03-0.05,0.05c-0.01,0.01-0.03,0.03-0.04,0.04c0.06-0.04,0.07-0.05,0.04-0.03c-0.01,0-0.13,0.09-0.14,0.08
			c-0.01-0.01,0.12-0.04,0.03-0.02c-0.03,0.01-0.06,0.02-0.09,0.02c-0.02,0.01-0.1,0.02-0.02,0.01c0.09-0.02-0.03,0-0.04,0
			c-0.06,0-0.13-0.01-0.19-0.01c0.09-0.01,0.07,0.01,0.03,0c-0.02-0.01-0.05-0.01-0.07-0.02c-0.03-0.01-0.06-0.02-0.09-0.03
			c-0.07-0.02-0.07,0.01,0.01,0c-0.04,0-0.1-0.05-0.14-0.07c-0.03-0.02-0.05-0.03-0.08-0.05c-0.06-0.03,0.09,0.07,0.01,0.01
			c-0.06-0.05-0.11-0.1-0.17-0.15c-0.02-0.03-0.05-0.05-0.07-0.08c-0.07-0.08,0.03,0.06,0,0c-0.08-0.13-0.15-0.25-0.22-0.39
			c-0.05-0.1,0,0.01,0.01,0.01c-0.02-0.02-0.04-0.1-0.04-0.12c-0.02-0.07-0.04-0.14-0.06-0.21c-0.04-0.15-0.07-0.31-0.09-0.47
			c-0.03-0.26-0.34-0.41-0.57-0.37C203.47,12.64,203.21,12.86,203.23,13.12L203.23,13.12z"/>
	</g>
</g>
<g>
	<g>
		<path class="st1" d="M208.38,14.94c-0.08-0.27-0.17-0.55-0.18-0.84c-0.01-0.25,0.02-0.48,0.13-0.66c0.07-0.11,0.07-0.11,0.17-0.21
			c0.04-0.03,0.04-0.04,0-0.01c0.02-0.02,0.05-0.03,0.07-0.04c0.02-0.01,0.05-0.03,0.07-0.04c-0.05,0.02-0.05,0.02,0,0
			c0.03-0.01,0.05-0.01,0.08-0.02c-0.05,0.01-0.05,0.01,0,0c0.03,0,0.06,0,0.09,0c-0.05,0-0.04,0,0.01,0.01
			c0.03,0.01,0.06,0.02,0.09,0.03c-0.05-0.02-0.04-0.01,0.01,0.01c0.02,0.01,0.14,0.08,0.1,0.06c-0.04-0.02,0.08,0.06,0.09,0.08
			c0.05,0.04,0.09,0.09,0.14,0.13c0.04,0.05,0.08,0.09,0.13,0.14c0.04,0.05,0.04,0.05,0,0c0.02,0.03,0.04,0.05,0.06,0.08
			c0.15,0.21,0.29,0.44,0.41,0.68c0.06,0.12,0.11,0.24,0.17,0.36c0.01,0.02,0.09,0.21,0.04,0.09c0.02,0.06,0.05,0.12,0.07,0.19
			c0.09,0.25,0.17,0.5,0.24,0.75c0.14,0.51,0.92,0.4,0.93-0.13c0.02-1.07-0.47-2.11-1.23-2.85c-0.4-0.39-0.96-0.68-1.54-0.53
			c-0.51,0.13-0.88,0.57-1.03,1.06c-0.18,0.61,0,1.25,0.18,1.84C207.83,15.55,208.5,15.37,208.38,14.94L208.38,14.94z"/>
	</g>
</g>
<g>
	<g>
		<path class="st1" d="M92.64,77.4c4.21-1.37,8.52-2.72,12.96-3.02c2.14-0.15,4.31-0.05,6.4,0.46c2.05,0.5,3.93,1.42,5.71,2.55
			c3.49,2.22,6.59,4.94,10.57,6.32c4.02,1.39,8.36,1.57,12.54,1c2.52-0.34,5-0.94,7.43-1.69c2.43-0.75,4.86-1.59,7.15-2.69
			c0.61-0.29,0.21-1.28-0.43-1.07c-2.15,0.69-4.23,1.55-6.38,2.24c-2.14,0.69-4.32,1.28-6.53,1.68c-4.22,0.76-8.68,0.78-12.82-0.42
			c-4.1-1.19-7.29-3.87-10.82-6.14c-1.71-1.1-3.53-2.02-5.5-2.58c-2.01-0.57-4.11-0.77-6.19-0.7c-4.91,0.15-9.68,1.64-14.31,3.15
			C91.82,76.67,92.04,77.59,92.64,77.4L92.64,77.4z"/>
	</g>
</g>
<g>
	<g>
		<path class="st1" d="M155.3,79.05c-0.5-0.19-1.01-0.36-1.52-0.52c-0.25-0.08-0.51-0.16-0.77-0.22c-0.27-0.06-0.57-0.14-0.85-0.12
			c-0.39,0.04-0.57,0.52-0.21,0.75c0.24,0.15,0.53,0.22,0.79,0.3c0.26,0.08,0.52,0.14,0.77,0.22c0.51,0.15,1.02,0.32,1.52,0.5
			c0.24,0.09,0.52-0.11,0.59-0.34C155.7,79.35,155.54,79.14,155.3,79.05L155.3,79.05z"/>
	</g>
</g>
<g>
	<g>
		<path class="st1" d="M154.26,79.87c-0.36,0.57-0.7,1.17-0.97,1.79c-0.28,0.65-0.6,1.36-0.61,2.08c-0.01,0.48,0.62,0.58,0.85,0.21
			c0.1-0.17,0.18-0.34,0.26-0.52c0.04-0.1,0.12-0.29,0.15-0.35c0.15-0.35,0.25-0.59,0.4-0.92c0.28-0.6,0.58-1.18,0.93-1.74
			c0.16-0.25,0.07-0.64-0.21-0.78C154.77,79.51,154.44,79.6,154.26,79.87L154.26,79.87z"/>
	</g>
</g>
</svg>
