<?xml version="1.0" encoding="utf-8"?>
<!-- Generator: Adobe Illustrator 26.0.2, SVG Export Plug-In . SVG Version: 6.00 Build 0)  -->
<svg version="1.1" id="Layer_1" xmlns="http://www.w3.org/2000/svg" xmlns:xlink="http://www.w3.org/1999/xlink" x="0px" y="0px"
	 viewBox="0 0 205.44 89.5" style="enable-background:new 0 0 205.44 89.5;" xml:space="preserve">
<style type="text/css">
	.st0{fill:#486AFB;}
	.st1{fill:#FD46FC;}
</style>
<g>
	<g>
		<path class="st0" d="M46.03,1.28c0.3,11.43,0.38,22.88,0.4,34.31c0.02,11.4-0.1,22.8-0.49,34.19c-0.11,3.2-0.22,6.4-0.32,9.61
			c-0.05,1.58-0.05,3.16-0.04,4.74c0.01,1.66-0.06,3.33-0.02,4.99c0.01,0.54,0.77,0.5,0.83-0.01c0.14-1.41,0.18-2.83,0.29-4.24
			c0.11-1.45,0.25-2.91,0.29-4.37c0.08-2.87,0.15-5.74,0.21-8.61c0.11-5.7,0.15-11.39,0.21-17.09c0.12-11.4,0.14-22.8-0.04-34.19
			c-0.1-6.45-0.29-12.89-0.47-19.34C46.85,0.74,46.02,0.76,46.03,1.28L46.03,1.28z"/>
	</g>
</g>
<g>
	<g>
		<path class="st0" d="M2.25,45.54c11.48,0.01,22.97,0.12,34.46,0.15c11.51,0.02,23.02,0.06,34.52-0.17
			c6.47-0.13,12.97-0.22,19.43-0.62c0.75-0.05,0.8-1.2,0.02-1.17c-5.77,0.2-11.54,0.51-17.31,0.65c-5.73,0.14-11.46,0.23-17.2,0.27
			c-11.51,0.08-23.01-0.04-34.52-0.17c-6.46-0.07-12.92-0.08-19.38-0.17C1.47,44.3,1.43,45.54,2.25,45.54L2.25,45.54z"/>
	</g>
</g>
<g>
	<g>
		<path class="st0" d="M19.33,65.96c7.31-6.01,14.56-12.08,21.75-18.23c7.22-6.17,14.4-12.39,21.51-18.69
			c3.99-3.54,8.02-7.06,11.81-10.81c0.29-0.29-0.13-0.67-0.43-0.42c-3.65,3.01-7.16,6.2-10.69,9.34c-3.53,3.14-7.08,6.26-10.63,9.39
			C45.51,42.81,38.31,49,31.06,55.14c-4.07,3.45-8.15,6.89-12.25,10.32C18.44,65.76,18.97,66.26,19.33,65.96L19.33,65.96z"/>
	</g>
</g>
<g>
	<g>
		<path class="st1" d="M70.61,21.46c0.07-0.46-0.22-0.89-0.59-1.12c-0.39-0.25-0.9-0.25-1.3-0.01c-0.75,0.45-1,1.53-0.5,2.25
			c0.45,0.65,1.36,1.01,2.12,0.72c0.8-0.31,1.15-1.17,0.99-1.98c-0.07-0.36-0.27-0.72-0.57-0.95c-0.35-0.27-0.77-0.36-1.2-0.28
			c-0.78,0.14-1.52,0.9-1.45,1.72c0.07,0.82,0.81,1.36,1.59,1.41c0.39,0.03,0.78-0.1,1.08-0.35c0.3-0.25,0.46-0.64,0.45-1.03
			c-0.02-0.77-0.65-1.58-1.49-1.35c-0.5,0.13-0.85,0.59-0.92,1.09c-0.07,0.5,0.24,1,0.69,1.22c0.43,0.21,0.93,0.18,1.32-0.11
			c0.32-0.25,0.51-0.64,0.54-1.04c0.03-0.42-0.15-0.83-0.49-1.07c-0.32-0.23-0.77-0.27-1.14-0.14c-0.4,0.14-0.73,0.42-0.89,0.82
			c-0.17,0.43-0.02,0.93,0.35,1.22c0.39,0.31,0.95,0.37,1.35,0.06c0.37-0.28,0.58-0.76,0.48-1.23c-0.22-0.98-1.71-1.12-2.14-0.23
			c-0.21,0.44-0.16,0.96,0.16,1.33c0.3,0.35,0.82,0.44,1.24,0.3c0.49-0.17,0.92-0.69,0.76-1.24c-0.16-0.54-0.83-0.65-1.27-0.41
			c-0.22,0.12-0.39,0.33-0.5,0.56c-0.06,0.12-0.11,0.24-0.15,0.37c-0.06,0.17-0.09,0.32,0.02,0.47c0.25,0.35,0.72,0.45,1.11,0.31
			c0.44-0.16,0.76-0.57,0.67-1.06c-0.08-0.42-0.49-0.75-0.9-0.8c-0.51-0.07-0.99,0.19-1.15,0.7c-0.16,0.48,0.07,1.08,0.61,1.19
			c0.23,0.05,0.49,0,0.69-0.13c0.23-0.15,0.34-0.37,0.37-0.63c0.02-0.2-0.18-0.38-0.38-0.37c-0.22,0.01-0.37,0.17-0.39,0.38
			c0-0.01,0.02-0.08,0-0.02c0,0,0.03-0.07,0.01-0.03c-0.03,0.04,0.06-0.05,0.02-0.02c-0.01,0.01-0.02,0.02-0.03,0.03
			c-0.05,0.06,0.02-0.02,0.03-0.02c0,0-0.05,0.03-0.04,0.03c-0.02,0.01-0.04,0.01,0,0c0.06-0.01-0.01,0-0.02,0.01
			c-0.01,0-0.05,0.01-0.05,0.01c0-0.01,0.08,0,0.04-0.01c-0.02,0-0.04,0-0.05,0c-0.05,0,0.04,0,0.04,0c0,0-0.04-0.01-0.05-0.01
			c-0.06-0.01,0.03,0,0.02,0.01c0,0-0.03-0.02-0.03-0.02c-0.04-0.02,0.07,0.05,0.01,0c-0.03-0.02-0.02-0.05,0.01,0.01
			c-0.01-0.01-0.02-0.02-0.02-0.04c-0.04-0.09,0,0.04-0.01-0.03c0-0.02-0.01-0.04-0.01-0.06c0,0.02,0,0.08,0,0.01
			c0-0.01,0-0.04,0-0.05c-0.01-0.03-0.02,0.05,0-0.01c0.01-0.02,0.04-0.11,0.02-0.07c-0.02,0.04,0.03-0.05,0.04-0.06
			c-0.04,0.08,0.01-0.03,0.04-0.03c0,0-0.07,0.04-0.03,0.02c0,0,0.06-0.04,0.06-0.03c0,0.01-0.1,0.03-0.02,0.01
			c0.01,0,0.03-0.01,0.04-0.01c0.09-0.03-0.05,0,0.02,0c0.04,0,0.07,0,0.11,0c-0.08,0-0.01,0,0.03,0.01c0.02,0,0.03,0.01,0.05,0.02
			c0,0-0.06-0.03-0.03-0.01c0.03,0.02,0.06,0.03,0.08,0.04c0.02,0.01,0.03,0.02,0.05,0.03c-0.01-0.01-0.06-0.06-0.02-0.01
			c0.01,0.01,0.08,0.07,0.07,0.07c0,0-0.05-0.09-0.02-0.02c0.01,0.01,0.01,0.02,0.02,0.03c0.05,0.07-0.01-0.05,0.01,0.01
			c0,0.02,0.01,0.03,0.01,0.05c0.01,0.03-0.01,0.05,0-0.02c0,0.01,0,0.03,0,0.04c0,0.07,0.02,0.01,0.01-0.01
			c0.01,0.02-0.05,0.1-0.01,0.05c0.04-0.05-0.02,0.02-0.02,0.04c-0.03,0.07,0.02-0.03,0.02-0.02c0,0-0.03,0.04-0.03,0.03
			c-0.01,0.01-0.02,0.02-0.03,0.02c-0.03,0.04,0.08-0.05,0.02-0.01c-0.03,0.02-0.06,0.03-0.09,0.05c-0.06,0.03,0.02-0.01,0.03-0.01
			c-0.01,0-0.05,0.02-0.06,0.02c-0.02,0.01-0.11,0.04-0.06,0.02c0.05-0.02,0.01,0-0.01,0c-0.02,0-0.04,0-0.06,0
			c-0.01,0-0.05-0.01,0,0c0.06,0.01-0.01,0-0.02-0.01c-0.01,0-0.04-0.01-0.04-0.01c0.01,0.01,0.08,0.02,0.03,0.01
			c0,0-0.04-0.02-0.04-0.02c0,0,0.07,0.06,0.01,0.01c-0.01-0.01-0.02-0.02-0.03-0.02c-0.06-0.05,0.04,0.07,0,0
			c0.01,0.09,0.02,0.19,0.03,0.28c0.02-0.07,0.04-0.14,0.07-0.21c0.01-0.04,0.03-0.07,0.04-0.11c0.04-0.11-0.03,0.05,0.02-0.05
			c0.03-0.06,0.07-0.13,0.11-0.19c-0.04,0.06,0.04-0.03,0.04-0.03c0.04-0.03,0.04-0.03,0-0.01c0.02-0.01,0.03-0.02,0.05-0.03
			c0.07-0.05-0.07,0.01,0.02-0.01c0.01,0,0.11-0.02,0.02-0.01c0.03,0,0.06,0,0.09,0c0.08,0-0.05-0.02,0.02,0
			c0.02,0.01,0.09,0.04,0.02,0c0.03,0.02,0.07,0.06,0.02,0c0.03,0.03,0.04,0.07,0.01,0.01c0.02,0.03,0.02,0.03,0,0
			c0.01,0.04,0.01,0.05,0.01,0.02c0.01,0.04-0.01,0.09-0.03,0.12c-0.01,0.03-0.03,0.05-0.05,0.08c0.04-0.07,0,0-0.01,0.01
			c-0.02,0.02-0.04,0.04-0.07,0.06c0.07-0.06,0,0-0.02,0.01c-0.03,0.02-0.05,0.03-0.08,0.04c-0.04,0.02-0.04,0.02,0.01,0
			C70.06,22,70.04,22,70.02,22.01c-0.03,0.01-0.06,0.01-0.09,0.02c0.09-0.02-0.01,0-0.02,0c-0.03,0-0.06,0-0.09,0
			c-0.09,0,0.06,0.02-0.02,0c-0.03-0.01-0.06-0.02-0.09-0.02c0.08,0.02-0.01,0-0.02-0.01c-0.03-0.01-0.05-0.03-0.08-0.05
			c0.07,0.05-0.03-0.03-0.04-0.04c-0.07-0.06,0.03,0.06-0.01-0.02c-0.01-0.03-0.03-0.05-0.05-0.08c-0.05-0.08,0.02,0.07-0.01-0.02
			c-0.01-0.03-0.02-0.06-0.03-0.09c-0.01-0.03-0.01-0.06-0.02-0.09c0.01,0.08,0-0.02,0-0.03c0-0.03,0-0.06,0-0.09
			c-0.01,0.08,0.01-0.04,0.01-0.06c0.01-0.03,0.02-0.06,0.03-0.08c-0.03,0.07,0.01-0.01,0.02-0.02c0.01-0.01,0.07-0.08,0.01-0.02
			c0.02-0.02,0.04-0.04,0.06-0.06c0.06-0.06-0.06,0.03,0.02-0.01c0.03-0.01,0.05-0.03,0.08-0.04c-0.06,0.03-0.02,0.01,0,0
			c0.01,0,0.14-0.03,0.06-0.02c0.06-0.01,0.12-0.01,0.18,0c-0.08-0.01,0.02,0,0.03,0.01c0.03,0.01,0.06,0.02,0.09,0.02
			c0.09,0.02-0.05-0.03,0.03,0.01c0.03,0.02,0.05,0.03,0.08,0.04c0.08,0.04-0.04-0.05,0.02,0.02c0.01,0.01,0.1,0.11,0.04,0.03
			c0.02,0.02,0.03,0.05,0.05,0.08c0.01,0.02,0.04,0.1,0.01,0.02c0.01,0.03,0.02,0.06,0.02,0.08c0,0.02,0.01,0.11,0.01,0.02
			c0,0.06,0,0.12-0.01,0.18c0.01-0.09,0,0.01-0.01,0.02c0,0.02-0.05,0.13-0.01,0.05c-0.02,0.05-0.05,0.1-0.09,0.15
			c0.05-0.07-0.01,0-0.02,0.01c-0.02,0.02-0.04,0.04-0.06,0.06c0.08-0.06-0.01-0.01-0.02,0c-0.07,0.05,0.07-0.01-0.02,0.01
			C70.04,21.99,70.01,22,69.98,22c0.09-0.01-0.04-0.01-0.06-0.01c0.08,0-0.01,0-0.03-0.01c-0.03-0.01-0.06-0.02-0.09-0.03
			c0.08,0.03-0.01-0.01-0.03-0.01c-0.03-0.01-0.05-0.03-0.08-0.05c-0.08-0.05,0.04,0.05-0.02-0.02c-0.02-0.02-0.04-0.04-0.07-0.06
			c-0.07-0.06,0.03,0.06-0.02-0.02c-0.02-0.04-0.04-0.07-0.06-0.11c0.04,0.08,0-0.01-0.01-0.03c0-0.02-0.01-0.11-0.01-0.03
			c0-0.03,0-0.05,0-0.08c0-0.09-0.02,0.07,0-0.01c0.01-0.03,0.01-0.05,0.02-0.08c0.01-0.02,0.05-0.09,0-0.01
			c0.01-0.02,0.02-0.05,0.04-0.07c0.01-0.02,0.08-0.11,0.02-0.03c0.03-0.04,0.07-0.08,0.11-0.12c0.02-0.01,0.09-0.07,0.01-0.01
			c0.02-0.02,0.04-0.03,0.07-0.05c0.04-0.02,0.08-0.04,0.12-0.07c0.08-0.04-0.08,0.02,0.01,0c0.03-0.01,0.07-0.02,0.1-0.03
			c0.03-0.01,0.05-0.01,0.08-0.02c0.09-0.02-0.08,0,0.01,0c0.05,0,0.11,0,0.16,0c-0.09-0.01-0.01,0,0.01,0.01
			c0.03,0.01,0.05,0.01,0.08,0.02c-0.08-0.02-0.01,0,0.01,0.01c0.02,0.01,0.11,0.08,0.04,0.02c0.04,0.03,0.08,0.07,0.11,0.11
			c-0.07-0.07-0.01-0.01,0,0.01c0.01,0.02,0.02,0.04,0.04,0.07c0.04,0.07-0.02-0.08,0,0c0.01,0.02,0.02,0.05,0.02,0.07
			c0.01,0.02,0.01,0.05,0.02,0.07c0.01,0.04,0.01,0.03,0-0.02c0,0.02,0,0.03,0,0.05c0,0.05,0,0.1-0.01,0.16
			c-0.01,0.09,0.02-0.08,0,0.01c-0.01,0.03-0.01,0.05-0.02,0.08c-0.01,0.03-0.07,0.18-0.02,0.08c-0.03,0.06-0.05,0.11-0.09,0.16
			c-0.05,0.08,0.01,0.01,0,0c0,0.01-0.05,0.05-0.05,0.06c-0.02,0.02-0.04,0.04-0.05,0.05c-0.07,0.06-0.02-0.01,0,0
			c0,0-0.13,0.07-0.13,0.08c0.01-0.03,0.08-0.03,0,0c-0.02,0.01-0.14,0.05-0.03,0.01c-0.03,0.01-0.07,0.01-0.1,0.01
			c-0.01,0-0.12-0.02-0.04,0c-0.03-0.01-0.07-0.01-0.1-0.02c-0.01,0-0.11-0.04-0.04-0.01c-0.06-0.03-0.12-0.06-0.18-0.1
			c0.07,0.05-0.02-0.02-0.03-0.02c-0.03-0.03-0.06-0.06-0.09-0.1c0.06,0.06-0.01-0.02-0.02-0.03c-0.02-0.03-0.03-0.06-0.05-0.09
			c-0.04-0.08,0.01,0.06-0.01-0.03c-0.01-0.03-0.02-0.06-0.02-0.1c0,0.02,0,0.06,0-0.01c0-0.03,0-0.07,0-0.1
			c-0.01,0.07,0.01-0.03,0.01-0.04c0-0.02,0.05-0.13,0.02-0.07c0.01-0.03,0.03-0.06,0.05-0.09c0-0.01,0.07-0.09,0.02-0.03
			c0.02-0.03,0.04-0.05,0.07-0.07c0.01-0.01,0.09-0.07,0.03-0.03c0.03-0.02,0.05-0.04,0.08-0.05c0.01-0.01,0.1-0.05,0.03-0.02
			c0.03-0.01,0.06-0.02,0.09-0.03c0.04-0.01,0.04-0.01,0.01,0c0.02,0,0.04,0,0.06,0c0.03,0,0.05,0,0.08,0c-0.09,0-0.01,0,0.01,0
			c0.02,0.01,0.05,0.01,0.07,0.02c-0.08-0.02-0.01-0.01,0.01,0.01c0.02,0.01,0.04,0.02,0.06,0.03c0.02,0.01,0.07,0.06,0.01,0
			c0.04,0.04,0.08,0.08,0.12,0.12c-0.06-0.07,0.03,0.05,0.04,0.07c0.01,0.02,0.02,0.04,0.04,0.07c0.01,0.02,0.04,0.1,0.01,0.01
			c0.02,0.05,0.03,0.1,0.05,0.15c0.01,0.03,0.01,0.05,0.02,0.08c0,0.02,0.01,0.03,0.01,0.05c0-0.05-0.01-0.05,0-0.01
			c0,0.05,0,0.1,0,0.16c0,0.03,0,0.05-0.01,0.08c0.01-0.09,0-0.01,0,0.01c-0.01,0.05-0.03,0.1-0.04,0.15
			c-0.03,0.08,0.04-0.07,0,0.01c-0.02,0.03-0.03,0.06-0.05,0.09c-0.01,0.02-0.06,0.08,0,0.01c-0.02,0.02-0.03,0.04-0.05,0.06
			c-0.02,0.02-0.04,0.04-0.06,0.06c-0.02,0.02-0.09,0.06,0,0.01c-0.04,0.03-0.09,0.06-0.13,0.08c-0.02,0.01-0.1,0.04,0,0
			c-0.03,0.01-0.06,0.02-0.1,0.03c-0.05,0.01-0.1,0.02-0.15,0.03c0.1-0.02-0.04,0-0.06,0c-0.05,0-0.11,0-0.16,0
			c-0.09,0,0.07,0.01-0.02,0c-0.04-0.01-0.07-0.01-0.1-0.02c-0.05-0.01-0.1-0.03-0.15-0.04c-0.02-0.01-0.1-0.04-0.02-0.01
			c-0.02-0.01-0.05-0.02-0.07-0.03c-0.05-0.02-0.09-0.05-0.14-0.08c-0.02-0.01-0.04-0.03-0.07-0.04c0.07,0.05-0.02-0.02-0.03-0.03
			c-0.04-0.03-0.08-0.07-0.11-0.11c-0.02-0.02-0.03-0.04-0.05-0.06c0.06,0.07,0,0-0.01-0.01c-0.03-0.04-0.05-0.09-0.08-0.14
			c-0.04-0.08,0.02,0.07-0.01-0.01c-0.01-0.03-0.02-0.07-0.03-0.1c-0.01-0.03-0.01-0.05-0.02-0.08c-0.02-0.09,0,0.06,0-0.03
			c0-0.06,0-0.12,0.01-0.18c-0.01,0.07,0.01-0.02,0.01-0.03c0.01-0.03,0.01-0.06,0.02-0.08c0.01-0.03,0.02-0.05,0.03-0.08
			c-0.02,0.06,0.02-0.04,0.03-0.06c0.03-0.05,0.06-0.1,0.09-0.15c0.05-0.08-0.04,0.04,0.02-0.03c0.02-0.02,0.04-0.04,0.06-0.07
			c0.04-0.04,0.09-0.08,0.13-0.12c-0.06,0.04,0.02-0.01,0.03-0.02c0.03-0.02,0.07-0.04,0.1-0.06c0.03-0.01,0.05-0.03,0.08-0.04
			c0.01,0,0.1-0.04,0.03-0.01c0.06-0.02,0.11-0.04,0.17-0.05c0.03-0.01,0.06-0.01,0.09-0.02c0.09-0.02-0.06,0,0.03-0.01
			c0.07-0.01,0.14-0.01,0.2,0c0.09,0-0.06-0.02,0.03,0c0.02,0.01,0.05,0.01,0.07,0.01c0.02,0.01,0.05,0.01,0.07,0.02
			c0.01,0,0.09,0.04,0.03,0.01c0.05,0.02,0.1,0.05,0.15,0.08c0.01,0.01,0.08,0.06,0.02,0.01c0.03,0.02,0.06,0.05,0.08,0.07
			c0.02,0.02,0.04,0.04,0.06,0.06c0.01,0.01,0.07,0.08,0.01,0.01c0.03,0.04,0.06,0.09,0.09,0.13c0.03,0.05,0.05,0.1,0.07,0.15
			c-0.03-0.08,0,0,0,0.02c0.01,0.03,0.02,0.07,0.03,0.1c0.01,0.05,0.02,0.11,0.03,0.16c0.02,0.09,0-0.07,0,0.02
			c0,0.03,0,0.06,0,0.08c0,0.06,0,0.11,0,0.17c0,0.03-0.01,0.05-0.01,0.08c0.01-0.09-0.01,0.03-0.01,0.05
			c-0.01,0.05-0.03,0.11-0.04,0.16c-0.01,0.03-0.02,0.05-0.03,0.08c0.03-0.08,0,0-0.01,0.02c-0.02,0.05-0.05,0.1-0.08,0.14
			c-0.01,0.02-0.03,0.04-0.05,0.07c0.06-0.08-0.02,0.02-0.03,0.03c-0.04,0.04-0.08,0.08-0.12,0.11c0.08-0.06,0,0-0.01,0.01
			c-0.02,0.02-0.05,0.03-0.07,0.04c-0.03,0.01-0.05,0.03-0.08,0.04c0.08-0.04,0,0-0.02,0c-0.06,0.02-0.13,0.03-0.19,0.05
			c0.09-0.02,0,0-0.02,0c-0.03,0-0.06,0-0.08,0c-0.06,0-0.11,0-0.17-0.01c0.08,0.01-0.01,0-0.02,0c-0.03,0-0.06-0.01-0.08-0.02
			c-0.07-0.02-0.13-0.04-0.19-0.06c0.07,0.03-0.06-0.03-0.08-0.04c-0.05-0.03-0.1-0.05-0.15-0.08c-0.02-0.02-0.05-0.03-0.07-0.05
			c0.07,0.05-0.01-0.01-0.02-0.02c-0.05-0.04-0.1-0.09-0.15-0.13c-0.02-0.02-0.04-0.04-0.06-0.06c-0.01-0.01-0.06-0.08-0.02-0.02
			c-0.03-0.05-0.06-0.09-0.09-0.14c-0.01-0.02-0.03-0.05-0.04-0.08c-0.04-0.08,0.02,0.06-0.01-0.02c-0.02-0.06-0.04-0.13-0.05-0.19
			c-0.04-0.19,0.02-0.46,0.13-0.65c0.12-0.2,0.28-0.34,0.5-0.39c0.1-0.02,0.18-0.02,0.3,0.02c0.1,0.03,0.22,0.1,0.29,0.16
			c0.17,0.16,0.25,0.32,0.21,0.55c-0.02,0.15,0.14,0.28,0.28,0.28C70.49,21.74,70.59,21.61,70.61,21.46L70.61,21.46z"/>
	</g>
</g>
<g>
	<g>
		<path class="st1" d="M23.72,62.06c0.51,0.28,1.07-0.19,1.11-0.72c0.04-0.56-0.54-0.89-1.04-0.83c-0.51,0.06-0.93,0.42-1.06,0.92
			c-0.12,0.46-0.01,0.96,0.29,1.33c0.71,0.87,2.15,0.33,2.38-0.69c0.13-0.58-0.16-1.14-0.64-1.47c-0.44-0.3-1.01-0.34-1.5-0.14
			c-0.51,0.2-0.94,0.63-1.08,1.17c-0.14,0.53,0.03,1.07,0.41,1.45c0.37,0.38,0.93,0.56,1.45,0.45c0.5-0.1,0.86-0.5,1.03-0.96
			c0.16-0.41,0.13-0.93-0.11-1.3c-0.27-0.4-0.72-0.6-1.19-0.57c-0.47,0.03-0.91,0.25-1.18,0.64c-0.35,0.5-0.23,1.22,0.26,1.59
			c0.89,0.67,2.39,0.08,2.43-1.08c0.02-0.5-0.26-1.02-0.71-1.26c-0.51-0.27-1.14-0.13-1.52,0.29c-0.39,0.43-0.48,1.06-0.16,1.56
			c0.32,0.51,0.94,0.8,1.53,0.66c0.57-0.14,0.92-0.71,0.71-1.27c-0.2-0.53-0.75-0.87-1.31-0.64c-0.51,0.21-0.8,0.78-0.7,1.32
			c0.11,0.55,0.66,0.88,1.19,0.88c0.6-0.01,1.14-0.45,1.23-1.05c0.09-0.59-0.26-1.17-0.87-1.26c-0.59-0.09-1.2,0.32-1.16,0.96
			c0.04,0.55,0.53,1.07,1.11,1.01c0.59-0.07,1.06-0.6,1.06-1.19c0-0.52-0.36-0.92-0.84-1.07c-0.43-0.13-0.93-0.03-1.27,0.25
			c-0.4,0.33-0.47,0.89-0.24,1.34c0.22,0.44,0.74,0.75,1.23,0.71c0.6-0.05,1.17-0.61,1-1.24c-0.16-0.6-0.93-0.89-1.49-0.94
			c-0.55-0.05-1.16,0.18-1.43,0.68c-0.24,0.46-0.24,1.05,0.11,1.45c0.45,0.52,1.23,0.37,1.76,0.09c0.24-0.12,0.46-0.3,0.64-0.5
			c0.1-0.11,0.19-0.23,0.27-0.35c0.03-0.05,0.06-0.1,0.09-0.16c0.01-0.02,0.02-0.05,0.03-0.07c0.02-0.03,0.09-0.22,0.05-0.11
			c0.09-0.21,0.08-0.49-0.16-0.61c-0.2-0.1-0.52-0.05-0.62,0.18c-0.03,0.08-0.08,0.16-0.13,0.23c-0.03,0.04-0.05,0.08-0.08,0.12
			c0,0.01-0.05,0.06-0.01,0.02c0.04-0.05-0.03,0.04-0.04,0.05c-0.06,0.07-0.12,0.13-0.18,0.19c-0.03,0.02-0.12,0.1-0.04,0.04
			c-0.04,0.03-0.09,0.06-0.13,0.09c-0.07,0.05-0.15,0.09-0.23,0.13c-0.02,0.01-0.04,0.02-0.05,0.03c0.02-0.01,0.1-0.03,0.01,0
			c-0.05,0.02-0.1,0.03-0.15,0.05c-0.02,0.01-0.16,0.03-0.08,0.02c-0.02,0-0.05,0-0.07,0c-0.01,0-0.1,0-0.05,0
			c0.05,0-0.1-0.02-0.06-0.01c0.04,0.01-0.02-0.01-0.03-0.01c-0.03-0.01-0.05-0.05-0.01,0c0.05,0.06-0.02-0.03-0.04-0.04
			c-0.06-0.05,0.05,0.08,0.01,0.01c-0.02-0.03-0.03-0.06-0.05-0.09c-0.03-0.04,0.02,0.04,0.02,0.05c0-0.01-0.02-0.06-0.02-0.07
			c0-0.01-0.01-0.03-0.01-0.04c-0.01-0.04-0.01-0.01,0,0c0.03,0.03,0,0.03,0-0.02c0-0.02,0-0.03,0-0.05c0-0.02-0.01-0.13,0-0.06
			c0,0.05,0,0.02,0,0c0-0.02,0.01-0.04,0.01-0.06c0-0.01,0.03-0.13,0.02-0.06c-0.01,0.05-0.01,0.01,0,0
			c0.01-0.02,0.02-0.04,0.03-0.05c0.02-0.03,0.03-0.05,0.05-0.08c-0.07,0.1,0.01,0,0.03-0.02c0.02-0.02,0.06-0.03-0.01,0.01
			c0.02-0.01,0.03-0.02,0.05-0.03c0.02-0.01,0.13-0.07,0.06-0.04c0.04-0.01,0.08-0.03,0.11-0.04c0.02-0.01,0.04-0.01,0.06-0.01
			c0.04-0.01-0.04,0,0.03,0c0.04,0,0.08,0,0.12,0c0.03,0,0.05,0,0.08,0c-0.01,0-0.05-0.01,0,0c0.1,0.01,0.2,0.04,0.3,0.07
			c0,0,0.06,0.02,0.03,0.01c-0.03-0.01,0.03,0.01,0.03,0.01c0.04,0.02,0.09,0.04,0.13,0.06c0.04,0.02,0.08,0.05,0.12,0.07
			c0,0,0.05,0.04,0.02,0.01C24.62,61.95,24.68,62,24.69,62c0.01,0.01,0.07,0.07,0.03,0.03c-0.03-0.03,0.01,0.02,0.01,0.02
			c0,0,0.03,0.06,0.01,0.02c-0.03-0.05,0.01,0.06,0,0.01c-0.01-0.04,0,0.01,0,0.02c0-0.01,0.01-0.06,0-0.01
			c0,0.01-0.03,0.08-0.01,0.04c0.01-0.04-0.02,0.03-0.02,0.04c-0.01,0.02-0.02,0.03-0.03,0.05c0.04-0.06,0-0.01-0.01,0
			c-0.06,0.05,0.03-0.01-0.03,0.03c-0.02,0.01-0.04,0.02-0.06,0.03c0.01,0,0.07-0.02,0.03-0.01c-0.02,0-0.13,0.03-0.08,0.02
			c0.05,0-0.04-0.01-0.05,0c-0.05,0.01,0.06,0.02,0.01,0c-0.01,0-0.03-0.01-0.05-0.01c-0.02,0-0.12-0.04-0.07-0.02
			c0.04,0.02-0.05-0.03-0.07-0.03c-0.01-0.01-0.11-0.07-0.06-0.04c0.04,0.03-0.04-0.04-0.06-0.05c-0.02-0.02-0.05-0.05-0.07-0.07
			c-0.01-0.02-0.03-0.03-0.04-0.05c0.02,0.02,0.04,0.06,0.01,0.01c-0.02-0.03-0.04-0.06-0.06-0.09c-0.01-0.01-0.01-0.03-0.02-0.04
			c0.01,0.01,0.03,0.09,0.01,0.02c-0.01-0.03-0.01-0.06-0.02-0.09c0,0.02,0,0.09,0,0.01c0-0.02,0-0.04,0-0.06
			c0-0.07-0.02,0.06,0.01-0.03c0-0.02,0.01-0.03,0.01-0.05c0,0.01-0.04,0.06-0.01,0.03c0.01-0.02,0.03-0.08,0.05-0.08
			c0.01,0-0.06,0.06-0.02,0.03c0.02-0.01,0.03-0.03,0.05-0.05c0.01-0.01,0.02-0.02,0.03-0.03c0.03-0.04-0.04,0.04-0.04,0.03
			c0-0.01,0.06-0.04,0.08-0.05c0.08-0.05-0.06,0.01,0.01,0c0.03-0.01,0.06-0.02,0.09-0.03c0.1-0.03-0.06,0,0.02,0
			c0.03,0,0.06,0,0.1,0c0.03,0,0.06,0,0.08,0c0.05,0-0.07-0.02-0.02,0c0.02,0,0.04,0.01,0.05,0.01c0.03,0.01,0.06,0.02,0.09,0.02
			c0.07,0.02-0.06-0.03,0,0c0.03,0.02,0.06,0.03,0.08,0.04c0.08,0.04-0.04-0.05,0.02,0.01c0.02,0.02,0.04,0.04,0.07,0.06
			c0.05,0.05-0.03-0.07,0,0c0.01,0.01,0.01,0.02,0.02,0.03c0.02,0.03,0,0.05,0.01,0.01c0-0.03-0.01-0.03,0,0
			c0.01,0.02,0.01,0.04,0.02,0.06c0.02,0.07,0,0.01,0-0.01c0,0.02,0,0.03,0,0.05c0,0.03-0.02,0.12,0,0.05
			c-0.01,0.03-0.02,0.07-0.03,0.1c-0.02,0.07,0,0.01,0.01-0.01c-0.01,0.02-0.02,0.04-0.03,0.06c-0.01,0.02-0.03,0.04-0.04,0.06
			c0-0.01,0.05-0.05,0.02-0.02c-0.03,0.02-0.06,0.06-0.08,0.08c0.01-0.01,0.07-0.04,0.03-0.02c-0.01,0.01-0.03,0.02-0.04,0.03
			c-0.02,0.02-0.08,0.03,0.02,0c-0.02,0.01-0.04,0.01-0.06,0.02c-0.01,0-0.07,0.01-0.01,0c0.06-0.01-0.02,0-0.03,0
			c-0.03-0.02,0.02,0,0.03,0.01c-0.01,0-0.04,0-0.05-0.01c-0.04-0.04,0.06,0.04,0.02,0.01c-0.01-0.01-0.03-0.01-0.04-0.02
			c-0.01-0.01-0.03-0.02-0.04-0.02c-0.04-0.02,0.05,0.06,0,0c-0.02-0.02-0.04-0.05-0.07-0.07c0.07,0.07,0.01,0-0.01-0.03
			c-0.01-0.01-0.01-0.03-0.02-0.04c0.01,0.01,0.03,0.09,0.01,0.02c0-0.01-0.01-0.03-0.01-0.05c0-0.01-0.01-0.08-0.01-0.02
			c0,0.06,0-0.01,0-0.02c0.02-0.04-0.01,0.03-0.01,0.03c0-0.01,0-0.04,0.01-0.04c0.04-0.03-0.04,0.06-0.01,0.02
			c0.01-0.01,0.02-0.03,0.02-0.04c0,0-0.05,0.07-0.02,0.02c0.01-0.01,0.06-0.06,0.01-0.02c-0.05,0.04,0.01-0.01,0.02-0.01
			c0.04-0.01-0.03,0.01-0.03,0.01c0.02-0.01,0.04-0.01,0.06-0.02c0.07-0.02-0.05,0,0.02,0c0.02,0,0.13,0.01,0.08,0
			c-0.06-0.01,0.11,0.04,0.06,0.02c-0.06-0.02,0.1,0.07,0.01,0c0.03,0.02,0.05,0.04,0.07,0.07c-0.06-0.06,0,0.01,0.02,0.04
			c0.03,0.04,0-0.01-0.01-0.02c0.01,0.03,0.02,0.06,0.02,0.09c0.01,0.05,0-0.01,0-0.02c0,0.02,0,0.04,0,0.06
			c0,0.03-0.02,0.13,0,0.06c-0.01,0.04-0.02,0.07-0.03,0.11c-0.02,0.08-0.01,0.02,0,0c-0.01,0.02-0.02,0.04-0.04,0.07
			c-0.01,0.02-0.05,0.07,0,0c-0.01,0.01-0.02,0.03-0.04,0.04c-0.01,0.01-0.03,0.03-0.04,0.04c-0.03,0.03-0.06,0.02,0.02-0.01
			c-0.03,0.01-0.06,0.03-0.09,0.05c-0.06,0.03,0.01,0.01,0.02-0.01c-0.01,0.01-0.05,0.02-0.06,0.02c-0.02,0-0.13,0.03-0.07,0.02
			c0.06-0.01-0.04,0-0.06,0c-0.04,0-0.12-0.01-0.04,0c-0.04-0.01-0.09-0.02-0.13-0.03c-0.08-0.02,0.05,0.03-0.02-0.01
			c-0.01-0.01-0.12-0.07-0.07-0.03c0.04,0.03-0.04-0.04-0.05-0.05c-0.01-0.01-0.04-0.05-0.01,0c0.04,0.05-0.02-0.03-0.02-0.04
			c-0.04-0.06,0.01,0.06-0.01-0.01c0-0.02-0.02-0.13-0.02-0.07c0,0.06,0-0.04,0-0.05c0-0.01,0.01-0.08,0-0.02
			c-0.01,0.06,0-0.01,0.01-0.02c0.01-0.04,0.02-0.07,0.03-0.11c-0.03,0.07-0.01,0.02,0.01-0.01c0.01-0.02,0.02-0.03,0.03-0.05
			c-0.01,0.01-0.05,0.05-0.02,0.03c0.01-0.01,0.02-0.02,0.03-0.03c0.01-0.01,0.08-0.05,0.02-0.02c-0.07,0.04,0.06-0.03,0.06-0.03
			c0.01,0.01-0.09,0.02-0.04,0.02c0.01,0,0.03-0.01,0.04-0.01c0.04-0.01,0.05,0.01-0.02,0c0.01,0,0.03,0,0.05,0
			c0.05,0-0.03,0-0.03,0c0.01,0,0.1,0.03,0.03,0.01c-0.06-0.02,0.03,0.02,0.04,0.02c0.05,0.01-0.05-0.05-0.01-0.01
			c0.01,0.01,0.02,0.02,0.03,0.03c0.02,0.01,0.07,0.1,0.05,0.05c-0.03-0.05,0.02,0.04,0.03,0.06c0.01,0.02,0.02,0.04,0.03,0.05
			c0-0.01-0.02-0.07-0.02-0.03c0,0.03,0.02,0.07,0.02,0.1c-0.02-0.06-0.01-0.04,0,0.01c0,0.03-0.02,0.06,0.01-0.02
			c-0.01,0.02-0.01,0.04-0.01,0.05c0,0,0.04-0.07,0.01-0.03c-0.01,0.01-0.03,0.07-0.01,0.02c0.03-0.06-0.05,0.05-0.02,0.03
			c0.04-0.03-0.11,0.06-0.03,0.03c-0.02,0.01-0.15,0.04-0.1,0.03c-0.04,0.01-0.08,0-0.12,0.01c-0.07,0-0.03,0-0.01,0
			c-0.02,0-0.04-0.01-0.06-0.01c-0.04-0.01-0.09-0.02-0.13-0.03c0.06,0.02-0.06-0.03-0.08-0.04c-0.12-0.07-0.21-0.15-0.27-0.26
			c-0.01-0.02-0.06-0.12-0.03-0.06c-0.01-0.03-0.02-0.07-0.03-0.11c-0.01-0.06-0.02-0.13-0.01-0.19c-0.01,0.03,0.01-0.03,0.01-0.03
			c0.01-0.02,0.01-0.05,0.02-0.07c0.02-0.06-0.01,0,0.02-0.05c0.02-0.04,0.04-0.08,0.07-0.11c0.03-0.04,0,0,0,0
			c0.02-0.02,0.04-0.05,0.07-0.07c0.01-0.01,0.08-0.07,0.06-0.05c-0.02,0.01,0.07-0.04,0.09-0.05c0,0,0.06-0.03,0.02-0.01
			c-0.04,0.02,0.03-0.01,0.04-0.01c0.02-0.01,0.12-0.03,0.07-0.02c0.1-0.01,0.13,0,0.19,0.01c0.06,0.01-0.01-0.01,0.04,0.01
			c0.04,0.02,0.08,0.04,0.11,0.07c-0.05-0.04,0.03,0.03,0.04,0.04c0.02,0.02,0.05,0.05,0.07,0.07c0.04,0.04-0.03-0.04,0,0
			c0.01,0.01,0.02,0.03,0.03,0.04c0.02,0.04,0.04,0.08,0.06,0.12c-0.03-0.06,0.01,0.02,0.01,0.04c0.01,0.04,0.02,0.08,0.03,0.12
			c0,0.02,0.01,0.03,0.01,0.05c-0.01-0.06,0-0.01,0,0.01c0,0.05,0,0.09,0,0.14c0,0.06,0.01-0.02-0.01,0.04
			c-0.01,0.02-0.03,0.11-0.03,0.09c0.01-0.02-0.04,0.07-0.04,0.08c-0.01,0.01-0.02,0.03-0.03,0.04c-0.03,0.05,0.04-0.04,0,0
			c-0.03,0.03-0.05,0.06-0.08,0.09c-0.01,0.01-0.03,0.02-0.04,0.04c-0.04,0.04,0.05-0.03,0,0c-0.03,0.02-0.06,0.04-0.09,0.06
			c-0.02,0.01-0.03,0.02-0.05,0.03c0,0-0.09,0.04-0.05,0.03c0.03-0.01-0.07,0.02-0.09,0.03c-0.03,0.01-0.07,0.02-0.1,0.03
			c-0.01,0-0.07,0.01,0,0c-0.02,0-0.04,0-0.05,0.01c-0.05,0-0.09,0-0.14,0c-0.02,0-0.04,0-0.05,0c0.01,0,0.06,0.01,0.01,0
			c-0.04-0.01-0.08-0.02-0.12-0.03c-0.08-0.02-0.1-0.03-0.2-0.09c-0.07-0.04-0.03-0.02-0.02-0.01c-0.02-0.01-0.03-0.03-0.04-0.04
			c-0.01-0.01-0.03-0.03-0.04-0.04c0.04,0.04,0,0-0.01-0.01c-0.04-0.07-0.06-0.13-0.07-0.19c0-0.03,0-0.06,0-0.09
			c0,0,0.01-0.07,0-0.04c0,0.02,0.02-0.06,0.02-0.08c0.01-0.04,0.04-0.07,0-0.02c0.02-0.03,0.04-0.07,0.06-0.1
			c0.03-0.06-0.04,0.04,0.01-0.01c0.02-0.02,0.05-0.05,0.07-0.07c0.03-0.03,0.08-0.07,0.02-0.02c0.03-0.02,0.06-0.04,0.1-0.06
			c0.03-0.01,0.05-0.03,0.08-0.04c0.06-0.03-0.06,0.01,0.03-0.01c0.03-0.01,0.07-0.02,0.1-0.03c0.02,0,0.11-0.02,0.07-0.02
			c-0.05,0.01,0.05,0,0.07,0c0.03,0,0.07,0,0.1,0c0.04,0-0.02,0-0.02,0c0.01,0,0.03,0,0.04,0.01c0.04,0.01,0.08,0.02,0.11,0.03
			c0.01,0,0.03,0.01,0.04,0.01c-0.07-0.03-0.02-0.01-0.01,0c0.03,0.01,0.05,0.03,0.08,0.04c0.02,0.01,0.03,0.02,0.05,0.03
			c0,0-0.05-0.04-0.02-0.01c0.03,0.03,0.06,0.06,0.09,0.09c0.03,0.02-0.01-0.01-0.01-0.02c0.01,0.01,0.02,0.02,0.03,0.04
			c0.02,0.03,0.03,0.06,0.05,0.09c0.03,0.06-0.01-0.06,0.01,0.03c0.01,0.03,0.02,0.07,0.03,0.1c0,0.01,0.02,0.12,0.01,0.07
			c0-0.04,0,0.05,0,0.07c0,0.03,0,0.06,0,0.09c0,0.02,0,0.04-0.01,0.06c0-0.03,0.01-0.04,0-0.01c-0.02,0.07-0.04,0.14-0.06,0.21
			c0.02-0.06,0-0.01-0.01,0.02c-0.02,0.04-0.04,0.07-0.06,0.11c-0.01,0.01-0.02,0.03-0.03,0.04c-0.03,0.05,0.05-0.05,0.01-0.01
			c-0.02,0.02-0.04,0.05-0.06,0.07c-0.03,0.03-0.05,0.05-0.08,0.07c0.06-0.06-0.01,0-0.04,0.02c-0.03,0.02-0.05,0.03-0.08,0.04
			c0.08-0.04,0,0-0.04,0.01c-0.02,0.01-0.13,0.02-0.05,0.02c-0.04,0-0.08,0.01-0.12,0.01c-0.03,0-0.12-0.01-0.05,0
			c-0.04-0.01-0.08-0.01-0.12-0.03c-0.02,0-0.1-0.03-0.07-0.02c0.04,0.02-0.02-0.01-0.03-0.01c-0.02-0.01-0.04-0.02-0.06-0.03
			c-0.04-0.02-0.07-0.04-0.11-0.06c0,0-0.05-0.03-0.02-0.01c0.06,0.04-0.08-0.06-0.07-0.05c0.06,0.05-0.03-0.03-0.04-0.04
			c-0.03-0.03-0.07-0.07-0.1-0.1c-0.03-0.03,0,0.01,0.01,0.01c-0.01-0.02-0.03-0.04-0.04-0.06c-0.02-0.03-0.04-0.06-0.05-0.09
			c-0.01-0.02-0.05-0.11-0.04-0.08c0.02,0.04,0-0.01-0.01-0.02c-0.01-0.02-0.01-0.04-0.02-0.07c-0.01-0.02-0.01-0.05-0.02-0.07
			c0,0-0.01-0.06,0-0.02c0.01,0.04,0-0.02,0-0.02c0-0.02,0-0.05,0-0.07c0-0.04,0-0.07,0.01-0.11c-0.01,0.06,0,0,0-0.01
			c0.01-0.02,0.01-0.05,0.02-0.07c0.03-0.12,0.12-0.26,0.19-0.34c0.03-0.03,0.06-0.06,0.09-0.09c0.01-0.01,0.08-0.07,0.06-0.05
			c0.03-0.02,0.15-0.09,0.21-0.13c0.06-0.03-0.01,0,0.05-0.02c0.04-0.01,0.08-0.02,0.13-0.03c0.02,0,0.04-0.01,0.05-0.01
			c-0.02,0-0.05,0,0.02,0c0.04,0,0.09,0,0.13,0c0.01,0,0.08,0.01,0.05,0c-0.03,0,0.03,0.01,0.03,0.01c0.04,0.01,0.09,0.02,0.13,0.03
			c0.02,0.01,0.04,0.01,0.05,0.02c-0.01,0-0.04-0.02,0,0c0.05,0.02,0.09,0.05,0.13,0.07c0.02,0.01,0.03,0.02,0.05,0.03
			c-0.05-0.03,0,0,0.01,0.01c0.03,0.02,0.06,0.05,0.09,0.08c0.03,0.03,0.06,0.06,0.09,0.1c0.03,0.03,0,0,0-0.01
			c0.02,0.03,0.04,0.05,0.05,0.08c0.02,0.04,0.04,0.08,0.06,0.12c-0.03-0.06,0.01,0.02,0.01,0.04c0.01,0.02,0.01,0.05,0.02,0.07
			c0,0,0.01,0.06,0.01,0.02c0-0.04,0,0.02,0,0.02c0,0.03,0,0.06,0,0.09c0,0.02,0,0.03,0,0.05c0-0.01,0.01-0.06,0-0.02
			c-0.01,0.04-0.02,0.08-0.03,0.11c-0.02,0.07,0.02-0.03-0.01,0.03c-0.02,0.04-0.05,0.08-0.07,0.12c0.04-0.06-0.01,0.02-0.03,0.04
			c-0.03,0.03-0.06,0.06-0.09,0.08c-0.06,0.05,0.04-0.02-0.02,0.02c-0.04,0.02-0.08,0.05-0.12,0.07c-0.01,0.01-0.03,0.01-0.05,0.02
			c-0.05,0.03,0.06-0.01,0.01,0c-0.03,0.01-0.06,0.02-0.1,0.03c-0.03,0.01-0.12,0.02-0.05,0.01c-0.04,0-0.09,0-0.13,0
			c-0.07,0,0.04,0.01-0.03,0c-0.04-0.01-0.08-0.02-0.12-0.03c-0.02,0-0.03-0.01-0.05-0.02c0.08,0.03,0.02,0.01,0.01,0
			c-0.03-0.02-0.07-0.04-0.1-0.06c0.05,0.04,0.01,0.01-0.01-0.02c-0.03-0.02-0.05-0.05-0.07-0.08c-0.03-0.03,0.01,0.01,0.02,0.02
			c-0.01-0.01-0.02-0.02-0.03-0.04c-0.02-0.03-0.04-0.07-0.06-0.11c-0.01-0.01-0.01-0.03-0.02-0.04c0.03,0.07,0.01,0.02,0,0.01
			c-0.01-0.03-0.02-0.06-0.03-0.09c-0.01-0.03-0.02-0.07-0.02-0.11c0-0.02-0.01-0.03-0.01-0.05c0.01,0.07,0,0,0-0.01
			c0-0.07,0-0.13,0.01-0.2c-0.01,0.07,0.01-0.02,0.01-0.04c0-0.01,0.01-0.03,0.01-0.04c0-0.01,0.03-0.08,0.01-0.04
			c-0.01,0.03,0.02-0.04,0.03-0.05c0.02-0.03,0.04-0.06,0.06-0.09c-0.04,0.05,0.02-0.02,0.04-0.03c0.01-0.01,0.02-0.02,0.03-0.03
			c-0.03,0.02-0.01,0.01,0.01,0c0.02-0.01,0.09-0.05,0.08-0.04c-0.02,0.01,0.07-0.02,0.09-0.02c0.05-0.02-0.01,0,0.05-0.01
			c0.02,0,0.13,0,0.08,0c0.04,0,0.08,0.01,0.11,0.03c0.04,0.01,0,0,0,0c0.01,0.01,0.03,0.01,0.04,0.02c0.05,0.03-0.03-0.03,0.01,0
			c0.01,0.01,0.02,0.02,0.04,0.03c0,0,0.04,0.04,0.02,0.02c-0.02-0.02,0.02,0.05,0-0.01c0.01,0.02,0.01,0.08,0.01,0.03
			c0,0.02,0,0.04,0,0.06c0-0.01,0.01-0.05,0-0.01c-0.01,0.02-0.04,0.1-0.01,0.05c-0.01,0.03-0.03,0.05-0.05,0.08
			c0.05-0.07-0.06,0.04-0.01,0.01c0.03-0.03-0.08,0.05,0,0.01c-0.03,0.01-0.08,0.01-0.02,0.01c0.1,0,0,0.01,0,0c0,0,0.07,0.04,0,0
			C23.69,61.28,23.33,61.85,23.72,62.06L23.72,62.06z"/>
	</g>
</g>
<g>
	<g>
		<path class="st1" d="M51.24,3.03c-1.17,2.72-1.05,6.19,0.82,8.58c0.14,0.18,0.46,0.15,0.62,0.02c0.2-0.15,0.22-0.38,0.13-0.6
			c-1.02-2.48-1.32-5.15-0.24-7.67c0.15-0.34-0.15-0.74-0.48-0.83C51.69,2.44,51.38,2.69,51.24,3.03L51.24,3.03z"/>
	</g>
</g>
<g>
	<g>
		<path class="st1" d="M70.46,10.52c0.01,0.03,0.03,0.06,0.04,0.08c0.03,0.06-0.01-0.03,0.01,0.01c0.02,0.05,0.04,0.11,0.05,0.16
			c0.01,0.05,0.02,0.1,0.03,0.15c0,0.01,0.01,0.09,0.01,0.04c0-0.05,0,0.04,0,0.05c0.01,0.11,0,0.23-0.01,0.34
			c0.01-0.05,0-0.02,0,0.01c-0.01,0.03-0.01,0.05-0.02,0.08c-0.01,0.06-0.03,0.11-0.05,0.17c-0.01,0.02-0.02,0.05-0.03,0.07
			c0,0.01-0.04,0.09-0.02,0.04c0.02-0.04-0.02,0.03-0.02,0.04c-0.01,0.03-0.03,0.06-0.04,0.08c-0.02,0.05-0.05,0.09-0.08,0.13
			c-0.02,0.03-0.04,0.05-0.05,0.08c0.03-0.04,0.01-0.02-0.01,0.01c-0.07,0.08-0.15,0.16-0.23,0.23c-0.04,0.03-0.08,0.07-0.12,0.1
			c-0.01,0.01-0.09,0.07-0.02,0.02c-0.03,0.02-0.05,0.04-0.08,0.05c-0.13,0.09-0.21,0.25-0.14,0.4c0.06,0.14,0.23,0.24,0.38,0.19
			c0.29-0.1,0.53-0.25,0.73-0.49c0.19-0.23,0.34-0.49,0.44-0.77c0.18-0.54,0.15-1.15-0.12-1.66c-0.09-0.17-0.35-0.23-0.51-0.13
			C70.43,10.13,70.37,10.34,70.46,10.52L70.46,10.52z"/>
	</g>
</g>
<g>
	<g>
		<path class="st1" d="M89.29,4.68c0.98,1.23,2.11,2.63,2.27,4.27c0.13,1.33-0.45,2.52-1.61,3.18c-0.38,0.22-0.14,0.76,0.27,0.68
			c1.62-0.31,2.39-2.23,2.35-3.71c-0.05-1.99-1.39-3.65-2.58-5.12C89.6,3.49,88.9,4.19,89.29,4.68L89.29,4.68z"/>
	</g>
</g>
<g>
	<g>
		<path class="st1" d="M56.56,8.5c0.05,1.26,0.08,2.51,0.09,3.77c0,0.62,0,1.23,0,1.85c0,0.57-0.15,1.39,0.19,1.89
			c0.23,0.34,0.64,0.29,0.88-0.01c0.35-0.46,0.27-1.26,0.29-1.81c0.03-0.64,0.04-1.28,0.04-1.92c0.01-1.26-0.01-2.52-0.06-3.77
			C57.95,7.58,56.52,7.61,56.56,8.5L56.56,8.5z"/>
	</g>
</g>
<g>
	<g>
		<path class="st1" d="M57.34,7.94c0.38-0.33,0.83-0.62,1.33-0.69c0.39-0.06,0.84,0.03,1.13,0.31c0.27,0.26,0.34,0.65,0.25,1.02
			c-0.11,0.41-0.34,0.66-0.71,0.85c-0.03,0.01-0.06,0.03-0.08,0.04c-0.08,0.04,0.01,0-0.04,0.02c-0.06,0.02-0.12,0.04-0.18,0.06
			c-0.13,0.04-0.26,0.07-0.4,0.09c-0.02,0-0.05,0.01-0.07,0.01c-0.03,0.01-0.03,0,0,0c-0.02,0-0.03,0-0.05,0.01
			c-0.06,0-0.13,0.01-0.19,0.01c-0.14,0-0.29,0-0.43-0.02c-0.22-0.02-0.42,0.19-0.45,0.39c-0.03,0.2,0.1,0.45,0.32,0.48
			c0.64,0.1,1.31,0.06,1.89-0.25c0.54-0.29,0.97-0.79,1.12-1.39c0.14-0.55,0.08-1.19-0.28-1.65c-0.38-0.49-1.02-0.74-1.64-0.69
			c-0.76,0.06-1.41,0.48-1.95,0.99c-0.12,0.11-0.12,0.31,0,0.43C57.03,8.07,57.21,8.04,57.34,7.94L57.34,7.94z"/>
	</g>
</g>
<g>
	<g>
		<path class="st1" d="M62.05,8.08c-0.19,0.76-0.36,1.73,0.14,2.41c0.33,0.45,0.81,0.69,1.37,0.68c0.5-0.01,0.97-0.2,1.35-0.52
			c0.6-0.51,0.87-1.39,0.69-2.15c-0.09-0.37-0.25-0.7-0.52-0.98c-0.25-0.25-0.58-0.41-0.93-0.49c-0.37-0.08-0.79-0.07-1.15,0.06
			c-0.41,0.15-0.81,0.45-0.92,0.89c-0.08,0.34,0.36,0.62,0.61,0.34c0.04-0.05,0.09-0.09,0.13-0.13c0.03-0.03,0.05-0.06,0.08-0.09
			c-0.01,0.01-0.06,0.07-0.01,0.02c0.02-0.02,0.04-0.05,0.07-0.07c0.02-0.02,0.05-0.04,0.07-0.07c0.06-0.05-0.06,0.04,0,0
			c0.06-0.04,0.11-0.07,0.17-0.1c0.03-0.01,0.06-0.03,0.09-0.04c0.04-0.02-0.04,0.02-0.04,0.01c0,0,0.04-0.01,0.04-0.01
			c0.06-0.02,0.13-0.04,0.19-0.06c0.03-0.01,0.07-0.01,0.1-0.02c-0.07,0.01-0.03,0,0.01,0c0.07-0.01,0.14-0.01,0.2-0.01
			c0.03,0,0.07,0.01,0.1,0.01c0.04,0-0.02,0-0.03,0c0.02,0,0.04,0.01,0.06,0.01c0.07,0.01,0.13,0.03,0.2,0.05
			c0.03,0.01,0.08,0.03,0.02,0.01c0.03,0.01,0.06,0.03,0.09,0.04c0.06,0.03,0.12,0.07,0.17,0.1c0.04,0.02-0.02-0.01-0.02-0.02
			c0.01,0.01,0.02,0.02,0.03,0.03C64.47,8,64.5,8.02,64.52,8.04c0.02,0.02,0.04,0.04,0.06,0.06c0,0-0.04-0.06-0.02-0.02
			c0.01,0.02,0.03,0.04,0.04,0.06c0.04,0.06,0.07,0.12,0.1,0.18c0.01,0.01,0.01,0.03,0.02,0.04c0-0.01-0.02-0.07-0.01-0.02
			c0.01,0.04,0.03,0.08,0.04,0.12c0.01,0.03,0.01,0.06,0.02,0.09c0.02,0.1,0-0.03,0.01,0.04c0,0.07,0,0.15,0,0.22
			c0,0.03-0.01,0.06-0.01,0.09c0.01-0.11,0,0-0.01,0.03c-0.01,0.07-0.03,0.14-0.06,0.21c-0.01,0.04-0.03,0.07-0.04,0.11
			c-0.03,0.08,0.04-0.08,0,0c-0.03,0.07-0.06,0.13-0.1,0.2c-0.03,0.06-0.08,0.12-0.11,0.17c-0.03,0.05,0.03-0.04,0.04-0.04
			c-0.01,0.01-0.03,0.04-0.04,0.05c-0.02,0.03-0.05,0.06-0.07,0.08c-0.05,0.05-0.1,0.09-0.15,0.14c-0.07,0.06,0.1-0.07,0,0
			c-0.03,0.02-0.06,0.04-0.09,0.06c-0.03,0.02-0.07,0.04-0.1,0.06c-0.01,0.01-0.04,0.01-0.05,0.02c0,0,0.11-0.04,0.05-0.02
			c-0.09,0.03-0.17,0.06-0.26,0.07c-0.02,0-0.1,0.02-0.02,0.01c0.08-0.01,0.01,0,0,0c-0.04,0-0.08,0.01-0.11,0.01
			c-0.04,0-0.09,0-0.13-0.01c-0.06,0,0.05,0,0.05,0.01c-0.01-0.01-0.06-0.01-0.07-0.01c-0.04-0.01-0.08-0.02-0.13-0.04
			c-0.06-0.02,0.05,0.02,0.05,0.02c0,0-0.07-0.03-0.07-0.03c-0.03-0.02-0.07-0.04-0.1-0.05c-0.01-0.01-0.07-0.05,0,0
			c0.07,0.06-0.01-0.01-0.02-0.02c-0.03-0.03-0.05-0.05-0.08-0.08c-0.09-0.09,0.06,0.09-0.01-0.01c-0.02-0.03-0.04-0.06-0.06-0.1
			c-0.01-0.02-0.02-0.04-0.03-0.06c-0.04-0.07,0.02,0.03,0.02,0.05c0-0.03-0.03-0.09-0.04-0.12C63,9.56,62.99,9.52,62.98,9.48
			c-0.01-0.04-0.02-0.09-0.02-0.13c-0.01-0.06,0.01,0.05,0.01,0.05c0-0.02,0-0.05-0.01-0.07c-0.01-0.18,0-0.37,0.02-0.55
			c0-0.04,0.01-0.08,0.02-0.13c0-0.03,0.03-0.08,0,0.03C63,8.65,63,8.63,63,8.61c0.02-0.09,0.03-0.18,0.05-0.28
			c0.05-0.26-0.07-0.56-0.36-0.62C62.43,7.65,62.13,7.8,62.05,8.08L62.05,8.08z"/>
	</g>
</g>
<g>
	<g>
		<path class="st1" d="M67.74,6.31c-0.3,0.27-0.58,0.54-0.86,0.82c-0.18,0.19-0.25,0.5-0.11,0.73c0.25,0.39,0.58,0.71,0.89,1.05
			c0.22,0.24,0.47,0.56,0.48,0.84c0.01,0.14-0.02,0.27-0.09,0.38c-0.07,0.11-0.05,0.1-0.13,0.18c-0.03,0.03-0.07,0.07-0.1,0.1
			c-0.01,0.01-0.1,0.08-0.04,0.04c-0.07,0.05-0.16,0.1-0.24,0.14c-0.15,0.07,0.04-0.01-0.05,0.02c-0.04,0.01-0.09,0.03-0.13,0.04
			c-0.11,0.03-0.09,0.03-0.22,0.03c-0.08,0-0.17,0-0.24-0.01c-0.45-0.07-0.73,0.49-0.32,0.75c0.99,0.65,2.29-0.28,2.53-1.29
			c0.13-0.55-0.05-1.1-0.36-1.56c-0.16-0.23-0.35-0.44-0.52-0.66c0.04,0.05-0.06-0.09-0.06-0.08c-0.04-0.05-0.07-0.1-0.1-0.15
			c-0.03-0.05-0.06-0.1-0.09-0.16c-0.01-0.02-0.1-0.23-0.06-0.13c-0.1,0.23-0.2,0.45-0.3,0.68c0.38-0.26,0.73-0.55,1.09-0.83
			c0.27-0.22,0.26-0.72,0.01-0.95C68.42,6.04,68.02,6.06,67.74,6.31L67.74,6.31z"/>
	</g>
</g>
<g>
	<g>
		<path class="st1" d="M3.45,75.42c-0.06,0.44,0.1,0.84,0.38,1.18c0.32,0.39,1.09-0.05,0.91-0.52c-0.24-0.63-0.29-1.24-0.1-1.89
			c0.09-0.29,0.22-0.56,0.39-0.82c0.08-0.12,0.32-0.5,0.47-0.48c0.08,0.01,0.21,0.26,0.24,0.32c0.1,0.15,0.19,0.31,0.28,0.47
			c0.15,0.28,0.28,0.58,0.37,0.88c0.21,0.68,0.3,1.39,0.29,2.09c-0.01,0.44,0.68,0.52,0.78,0.09c0.31-1.37-0.02-2.86-0.86-3.99
			c-0.22-0.29-0.46-0.62-0.83-0.72c-0.4-0.11-0.78,0.09-1.06,0.36c-0.47,0.46-0.81,1.08-0.98,1.71c-0.2,0.72-0.24,1.54-0.04,2.27
			c0.33-0.14,0.66-0.27,0.99-0.41c-0.13-0.18-0.16-0.32-0.13-0.54c0.04-0.29-0.27-0.54-0.54-0.53C3.69,74.87,3.49,75.12,3.45,75.42
			L3.45,75.42z"/>
	</g>
</g>
<g>
	<g>
		<path class="st1" d="M9.28,75.41c0.82,0.31,1.89,0.05,2.35-0.74c0.39-0.67,0.13-1.66-0.58-2.01c-0.9-0.45-1.77,0.33-2.06,1.15
			c-0.31,0.89-0.06,1.93,0.58,2.6c0.4,0.42,0.95,0.65,1.52,0.71c0.27,0.03,0.54,0.01,0.8-0.06c0.3-0.08,0.54-0.22,0.78-0.41
			c0.16-0.13,0.18-0.41,0.08-0.58c-0.11-0.19-0.34-0.27-0.54-0.22c-0.05,0.01-0.1,0.02-0.14,0.03c-0.02,0-0.1,0.02-0.01,0
			c-0.11,0.02-0.23,0.04-0.34,0.06c0.11-0.02-0.06,0-0.1,0c-0.1,0-0.2,0-0.3,0c-0.02,0-0.11-0.01,0,0
			c-0.04-0.01-0.08-0.01-0.12-0.02c-0.07-0.01-0.15-0.03-0.22-0.05c-0.08-0.02-0.16-0.05-0.24-0.07c0.02,0.01,0.1,0.05,0,0
			c-0.05-0.02-0.09-0.04-0.14-0.07c-0.07-0.04-0.14-0.09-0.21-0.13c0.09,0.06-0.07-0.06-0.1-0.09c-0.05-0.05-0.1-0.11-0.15-0.16
			c-0.1-0.11,0.03,0.05-0.02-0.02c-0.03-0.05-0.06-0.1-0.09-0.15C9.9,74.98,9.81,74.7,9.8,74.45c-0.01-0.3,0.03-0.56,0.18-0.82
			c0.13-0.22,0.32-0.43,0.6-0.41c0.06,0,0.15,0.04,0.18,0.06c0.11,0.08,0.15,0.15,0.21,0.28c0.03,0.07-0.02-0.08,0.02,0.04
			c0.01,0.03,0.02,0.05,0.02,0.08c0.02,0.07,0.02,0.11,0.02,0.14c0,0.14,0,0.19-0.06,0.33c0.03-0.07-0.08,0.12-0.04,0.06
			c-0.03,0.04-0.06,0.07-0.09,0.1c-0.01,0.01-0.11,0.09-0.04,0.04c-0.06,0.04-0.12,0.08-0.19,0.11c-0.12,0.06,0.05-0.01-0.03,0.01
			c-0.05,0.02-0.1,0.03-0.15,0.04c-0.03,0.01-0.06,0.01-0.09,0.02c0.09-0.02-0.05,0-0.05,0c-0.08,0.01-0.17,0-0.25,0
			c-0.02,0-0.12-0.01-0.03,0c-0.05-0.01-0.09-0.01-0.14-0.02c-0.03-0.01-0.06-0.01-0.09-0.02c-0.02-0.01-0.19-0.07-0.09-0.03
			c-0.28-0.12-0.61-0.04-0.74,0.26C8.82,75.04,8.99,75.3,9.28,75.41L9.28,75.41z"/>
	</g>
</g>
<g>
	<g>
		<path class="st1" d="M15.84,73.45c-0.11-0.4-0.48-0.67-0.9-0.67c-0.46,0-0.81,0.3-1.07,0.65c-0.28,0.38-0.48,0.83-0.59,1.28
			c-0.12,0.44-0.21,0.98,0.01,1.41c0.49,0.95,1.7,0.49,2.41,0.13c0.77-0.39,1.55-1.26,1.21-2.19c-0.17-0.47-0.83-0.38-0.88,0.12
			c-0.13,1.31,0.51,2.42,0.83,3.65c0.12,0.48,0.2,1.11-0.39,1.26c-0.55,0.15-1.16-0.13-1.69-0.28c-0.51-0.14-0.81,0.57-0.36,0.85
			c0.65,0.4,1.4,0.68,2.18,0.48c0.71-0.19,1.22-0.75,1.29-1.48c0.07-0.75-0.26-1.5-0.52-2.17c-0.26-0.68-0.61-1.46-0.46-2.2
			c-0.29,0-0.57,0.01-0.86,0.01c0.06,0.45-0.32,0.77-0.69,0.94c-0.18,0.08-0.37,0.14-0.55,0.2c-0.12,0.04-0.39,0.17-0.53,0.11
			c0.04,0.02,0.03,0.01,0.02-0.03c-0.02-0.09-0.01-0.19,0-0.28c0.02-0.24,0.07-0.47,0.15-0.7c0.07-0.23,0.18-0.48,0.32-0.67
			c0.05-0.07,0.1-0.1,0.16-0.16c0.06-0.05,0.09,0.07,0.05-0.03C15.16,74.21,16,74,15.84,73.45L15.84,73.45z"/>
	</g>
</g>
<g>
	<g>
		<path class="st0" d="M154.51,0.4c0.3,11.43,0.38,22.88,0.4,34.31c0.02,11.4-0.1,22.8-0.49,34.19c-0.11,3.2-0.22,6.4-0.32,9.61
			c-0.05,1.58-0.05,3.16-0.04,4.74c0.01,1.66-0.06,3.33-0.02,4.99c0.01,0.54,0.77,0.5,0.83-0.01c0.14-1.41,0.18-2.83,0.28-4.24
			c0.11-1.45,0.25-2.91,0.29-4.37c0.08-2.87,0.15-5.74,0.21-8.61c0.11-5.7,0.15-11.39,0.21-17.09c0.12-11.4,0.14-22.8-0.04-34.19
			c-0.1-6.45-0.29-12.89-0.47-19.34C155.33-0.14,154.5-0.12,154.51,0.4L154.51,0.4z"/>
	</g>
</g>
<g>
	<g>
		<path class="st0" d="M110.73,44.66c11.48,0.01,22.97,0.12,34.46,0.15c11.51,0.02,23.02,0.06,34.52-0.17
			c6.47-0.13,12.97-0.22,19.43-0.62c0.75-0.05,0.8-1.19,0.02-1.17c-5.77,0.2-11.54,0.51-17.31,0.65c-5.73,0.14-11.46,0.23-17.2,0.27
			c-11.51,0.08-23.01-0.04-34.52-0.17c-6.46-0.07-12.92-0.08-19.38-0.17C109.96,43.42,109.92,44.66,110.73,44.66L110.73,44.66z"/>
	</g>
</g>
<g>
	<g>
		<path class="st0" d="M128.95,18.27c7.26,6.06,14.47,12.17,21.64,18.34c7.2,6.19,14.34,12.46,21.44,18.76
			c3.99,3.55,7.94,7.17,12.07,10.56c0.29,0.24,0.72-0.16,0.44-0.44c-3.35-3.33-6.9-6.47-10.43-9.6c-3.54-3.14-7.08-6.27-10.65-9.37
			c-7.18-6.22-14.39-12.41-21.65-18.53c-4.09-3.44-8.2-6.85-12.33-10.24C129.12,17.46,128.59,17.97,128.95,18.27L128.95,18.27z"/>
	</g>
</g>
<g>
	<g>
		<path class="st1" d="M180.18,62.33c0.06,0.41-0.47,0.76-0.86,0.63c-0.42-0.13-0.66-0.68-0.57-1.08c0.01-0.06,0.03-0.11,0.05-0.16
			c-0.02,0.07,0.01-0.02,0.01-0.03c0.01-0.03,0.03-0.05,0.04-0.07c0.01-0.02,0.03-0.05,0.05-0.07c0.01-0.01,0.06-0.08,0.01-0.02
			c0.04-0.05,0.09-0.1,0.14-0.15c0.02-0.02,0.13-0.11,0.06-0.05c0.03-0.02,0.05-0.04,0.08-0.06c-0.04,0.03-0.04,0.03-0.01,0.01
			c0.02-0.02,0.05-0.03,0.07-0.05c0.05-0.03,0.1-0.06,0.15-0.08c0.03-0.01,0.05-0.02,0.08-0.04c-0.09,0.04,0.03-0.01,0.05-0.01
			c0.05-0.02,0.11-0.03,0.17-0.05c0.03-0.01,0.06-0.01,0.08-0.02c-0.09,0.01,0.01,0,0.02,0c0.06,0,0.11-0.01,0.17,0
			c0.03,0,0.06,0,0.08,0.01c-0.09-0.01,0.03,0.01,0.05,0.01c0.06,0.01,0.11,0.03,0.16,0.05c-0.08-0.03,0.01,0,0.02,0.01
			c0.03,0.01,0.05,0.03,0.08,0.04c0.03,0.01,0.05,0.03,0.07,0.05c0.08,0.05-0.05-0.05,0.02,0.01c0.05,0.04,0.09,0.09,0.14,0.13
			c0.06,0.06-0.04-0.06,0.01,0.01c0.01,0.02,0.03,0.04,0.04,0.07c0.03,0.05,0.06,0.09,0.08,0.14c0.01,0.02,0.04,0.1,0.01,0.01
			c0.01,0.03,0.02,0.05,0.03,0.08c0.02,0.06,0.03,0.12,0.05,0.19c0,0.03,0.01,0.05,0.01,0.08c-0.01-0.08,0,0.01,0,0.02
			c0,0.06,0,0.11,0,0.17c0,0.03,0,0.06-0.01,0.08c0,0.01-0.02,0.1,0,0.02c-0.01,0.06-0.02,0.13-0.04,0.19
			c-0.01,0.04-0.03,0.09-0.04,0.13c0.03-0.08,0,0.01-0.01,0.02c-0.01,0.02-0.02,0.05-0.04,0.07c-0.03,0.05-0.06,0.09-0.09,0.13
			c0.05-0.07,0,0-0.01,0.01c-0.02,0.03-0.05,0.05-0.08,0.08c-0.02,0.02-0.04,0.04-0.06,0.05c0.07-0.06,0,0-0.02,0.01
			c-0.05,0.03-0.1,0.06-0.15,0.08c0.07-0.03-0.02,0-0.03,0.01c-0.03,0.01-0.06,0.02-0.09,0.02c-0.01,0-0.1,0.02-0.03,0.01
			c-0.04,0-0.08,0.01-0.12,0.01c-0.03,0-0.06,0-0.09,0c-0.01,0-0.1-0.01-0.03,0c-0.06-0.01-0.12-0.02-0.17-0.04
			c-0.12-0.03-0.17-0.06-0.31-0.14c-0.18-0.11-0.31-0.25-0.42-0.47c0-0.01-0.04-0.1-0.01-0.03c-0.01-0.03-0.02-0.05-0.03-0.08
			c-0.01-0.03-0.01-0.06-0.02-0.08c0-0.01-0.02-0.1-0.01-0.03c-0.01-0.06-0.01-0.12,0-0.18c0-0.01,0.02-0.11,0-0.03
			c0.01-0.03,0.01-0.07,0.02-0.1c0.01-0.03,0.02-0.05,0.03-0.07c0.03-0.08-0.03,0.06,0.01-0.02c0.02-0.04,0.04-0.08,0.07-0.11
			c0.01-0.01,0.06-0.08,0.01-0.01c0.02-0.02,0.03-0.04,0.05-0.06c0.04-0.05,0.09-0.09,0.13-0.13c0.07-0.06-0.07,0.04,0.01-0.01
			c0.02-0.01,0.04-0.03,0.07-0.04c0.05-0.03,0.09-0.05,0.14-0.08c0.02-0.01,0.1-0.04,0.01-0.01c0.02-0.01,0.05-0.02,0.08-0.03
			c0.06-0.02,0.12-0.04,0.18-0.05c0.03-0.01,0.05-0.01,0.08-0.01c-0.09,0.02,0,0,0.01,0c0.05,0,0.11-0.01,0.16,0
			c0.03,0,0.05,0,0.08,0c-0.09-0.01-0.01,0,0.01,0c0.06,0.01,0.12,0.03,0.18,0.04c0.08,0.02-0.07-0.03,0.01,0
			c0.02,0.01,0.05,0.02,0.07,0.03c0.02,0.01,0.05,0.03,0.07,0.04c0.02,0.01,0.08,0.07,0.01,0.01c0.04,0.04,0.08,0.07,0.12,0.11
			c0.02,0.02,0.06,0.09,0.01,0.01c0.02,0.03,0.04,0.06,0.05,0.09c0.01,0.02,0.02,0.05,0.04,0.07c0.04,0.08-0.02-0.08,0,0.01
			c0.01,0.05,0.03,0.1,0.04,0.15c0,0.02,0.01,0.1,0,0.01c0,0.03,0,0.05,0.01,0.08c0,0.06,0,0.12-0.01,0.18
			c-0.01,0.09,0.02-0.07,0,0.01c-0.01,0.03-0.01,0.05-0.02,0.08c-0.01,0.05-0.03,0.09-0.04,0.14c-0.01,0.05,0.04-0.07,0,0
			c-0.01,0.02-0.02,0.05-0.04,0.07c-0.01,0.02-0.03,0.04-0.04,0.06c-0.01,0.01-0.02,0.03-0.03,0.04c0.03-0.04,0.03-0.04,0.01-0.01
			c-0.03,0.04-0.07,0.07-0.1,0.1c0.07-0.06,0.02-0.01,0,0c-0.02,0.01-0.04,0.02-0.06,0.03c-0.06,0.04,0.07-0.01,0,0
			c-0.02,0-0.05,0.01-0.07,0.02c-0.02,0.01-0.09,0-0.01,0c-0.03,0-0.07,0-0.1,0c0.06,0-0.03-0.01-0.04-0.01c0,0-0.11-0.03-0.04-0.01
			c-0.03-0.01-0.06-0.03-0.09-0.04c0,0-0.09-0.06-0.04-0.02c-0.05-0.04-0.1-0.09-0.14-0.14c0.05,0.06-0.02-0.03-0.02-0.03
			c-0.02-0.04-0.04-0.08-0.06-0.12c0.03,0.07-0.01-0.03-0.01-0.04c-0.01-0.03-0.02-0.06-0.02-0.1c0.01,0.07,0-0.03,0-0.04
			c0-0.01,0.02-0.11,0-0.04c0.01-0.03,0.02-0.06,0.03-0.1c0.02-0.09-0.03,0.04,0.02-0.04c0.02-0.03,0.03-0.06,0.05-0.09
			c0.03-0.04,0.03-0.04,0,0c0.01-0.02,0.03-0.03,0.05-0.05c0.02-0.02,0.05-0.05,0.07-0.07c-0.07,0.06,0.01-0.01,0.03-0.02
			c0.03-0.02,0.06-0.04,0.09-0.05c0.02-0.01,0.11-0.04,0.03-0.01c0.03-0.01,0.06-0.02,0.1-0.03c0.01,0,0.12-0.01,0.03-0.01
			c0.03,0,0.07,0,0.1,0c0.05,0,0.04,0,0,0c0.02,0,0.03,0.01,0.05,0.01c0.03,0.01,0.05,0.01,0.07,0.02c-0.09-0.02-0.02-0.01,0,0
			c0.02,0.01,0.04,0.02,0.07,0.04c0.08,0.05,0.01,0,0,0c0.01,0,0.09,0.08,0.09,0.09c0,0,0.05,0.05,0.05,0.06
			c-0.04-0.05-0.04-0.05-0.02-0.02c0.01,0.01,0.02,0.03,0.03,0.04c0.03,0.04,0.05,0.09,0.07,0.14c0.04,0.08-0.02-0.08,0,0
			c0.01,0.03,0.02,0.05,0.02,0.08c0.01,0.05,0.02,0.1,0.03,0.15c-0.02-0.1,0-0.02,0,0.01c0,0.03,0,0.07,0,0.1
			c0,0.03,0,0.05-0.01,0.08c0.01-0.1,0-0.02,0,0c-0.01,0.02-0.02,0.05-0.02,0.07c-0.02,0.08,0.04-0.07,0,0.01
			c-0.01,0.02-0.02,0.04-0.04,0.07c-0.01,0.02-0.07,0.08,0,0.01c-0.02,0.02-0.03,0.04-0.05,0.06c-0.01,0.01-0.03,0.02-0.04,0.04
			c0.04-0.03,0.05-0.04,0.01-0.01c-0.02,0.01-0.04,0.03-0.07,0.04c-0.03,0.01-0.09,0.03-0.01,0.01c-0.03,0.01-0.05,0.02-0.08,0.02
			c-0.02,0-0.1,0.01-0.01,0c-0.05,0-0.11,0-0.16,0c-0.09,0,0.07,0.02-0.01,0c-0.04-0.01-0.07-0.01-0.11-0.02
			c-0.03-0.01-0.05-0.02-0.08-0.02c0.08,0.03,0,0-0.01-0.01c-0.05-0.02-0.1-0.05-0.14-0.08c-0.08-0.05,0.05,0.05-0.01-0.01
			c-0.02-0.02-0.04-0.03-0.06-0.05c-0.02-0.02-0.04-0.04-0.06-0.06c-0.01-0.01-0.02-0.03-0.03-0.04c0.03,0.04,0.04,0.05,0.01,0.01
			c-0.03-0.05-0.05-0.09-0.08-0.14c0.04,0.09,0.01,0.01,0-0.01c-0.01-0.03-0.01-0.05-0.02-0.08c-0.02-0.08,0,0.07,0-0.01
			c0-0.02,0-0.05,0-0.07c0-0.05-0.03,0.07,0-0.01c0.01-0.02,0.01-0.04,0.02-0.06c-0.02,0.04-0.02,0.04,0,0
			c0.02-0.03,0.03-0.05,0.05-0.08c0.05-0.08-0.05,0.04,0.02-0.02c0.02-0.02,0.05-0.04,0.07-0.06c0.07-0.07-0.07,0.03,0.02-0.01
			c0.03-0.01,0.05-0.03,0.08-0.05c0.02-0.01,0.11-0.03,0.02-0.01c0.03-0.01,0.06-0.02,0.09-0.03c0.04-0.01,0.04-0.01,0,0
			c0.02,0,0.04,0,0.06,0c0.01,0,0.11,0.01,0.03,0c0.03,0.01,0.06,0.01,0.09,0.02c0.08,0.02-0.05-0.04,0.02,0.01
			c0.01,0.01,0.09,0.06,0.02,0.01c0.02,0.02,0.04,0.04,0.06,0.06c0.01,0.01,0.07,0.09,0.02,0.01c0.02,0.02,0.03,0.05,0.05,0.07
			c0.01,0.02,0.06,0.13,0.03,0.04c0.02,0.06,0.03,0.11,0.05,0.17c-0.02-0.08,0,0.01,0,0.02c0,0.03,0,0.06,0,0.09
			c0,0.09,0.02-0.06,0,0.02c-0.01,0.03-0.02,0.06-0.02,0.08c-0.02,0.08,0.04-0.05-0.01,0.02c-0.01,0.02-0.09,0.11-0.03,0.05
			c-0.02,0.02-0.04,0.04-0.06,0.06c-0.06,0.06,0.06-0.03-0.02,0.01c-0.03,0.01-0.05,0.03-0.08,0.04c-0.08,0.05,0.07-0.01-0.02,0.01
			c-0.03,0.01-0.06,0.02-0.09,0.02c-0.09,0.03,0.06,0-0.03,0.01c-0.03,0-0.06,0-0.09,0c-0.02,0-0.04,0-0.06,0c0.04,0.01,0.04,0,0,0
			c-0.03-0.01-0.06-0.01-0.09-0.02c0.07,0.02-0.01-0.01-0.03-0.01c-0.03-0.01-0.05-0.03-0.08-0.05c0.06,0.04-0.01-0.02-0.02-0.02
			c-0.01-0.01-0.07-0.08-0.02-0.02c-0.02-0.02-0.03-0.05-0.05-0.08c0,0-0.04-0.09-0.02-0.04c0.02,0.04-0.02-0.06-0.02-0.07
			c-0.01-0.03-0.01-0.06-0.02-0.09c0.01,0.08,0-0.02,0-0.03c0-0.03,0-0.06,0-0.09c0.01-0.09-0.02,0.06,0.01-0.03
			c0.01-0.03,0.02-0.06,0.03-0.09c0.02-0.09-0.04,0.05,0.01-0.03c0.02-0.03,0.03-0.05,0.05-0.08c0.02-0.03,0.02-0.03,0,0
			c0.01-0.02,0.03-0.03,0.04-0.04c0.01-0.01,0.09-0.07,0.01-0.02c0.03-0.02,0.05-0.03,0.08-0.05c0.08-0.05-0.07,0.01,0.02-0.01
			c0.03-0.01,0.06-0.02,0.09-0.02c0.09-0.02-0.07,0,0.02,0c0.03,0,0.06,0,0.09,0c0.09,0-0.06-0.02,0.03,0
			c0.04,0.01,0.08,0.02,0.12,0.03c0.09,0.02-0.06-0.04,0.02,0.01c0.03,0.01,0.05,0.03,0.08,0.04c0.08,0.04-0.05-0.05,0.02,0.01
			c0.02,0.02,0.04,0.04,0.07,0.06c0.02,0.02,0.06,0.09,0.01,0.01c0.02,0.03,0.03,0.05,0.05,0.08c0.05,0.08-0.02-0.06,0.02,0.05
			c0.01,0.04,0.01,0.05,0.01,0.02c0,0.03,0,0.05,0,0.08c0-0.02,0.03-0.07,0-0.01c0.04-0.07,0.01-0.01-0.01,0.01
			c0.06-0.06,0.02-0.02-0.01,0c0.08-0.05,0.01-0.01-0.01,0c-0.08,0.02,0.06,0.01-0.02,0c-0.01,0-0.11-0.01-0.03,0
			c-0.03-0.01-0.06-0.01-0.09-0.02c0.08,0.02-0.03-0.02-0.05-0.03c0.08,0.04-0.01-0.01-0.03-0.03c0,0-0.08-0.09-0.04-0.03
			c-0.05-0.06-0.08-0.12-0.11-0.19c0,0-0.05-0.11-0.02-0.05c-0.01-0.03-0.03-0.07-0.04-0.11c-0.02-0.07-0.05-0.14-0.07-0.21
			c-0.01,0.09-0.03,0.18-0.04,0.28c0.02-0.03,0-0.03-0.02,0.02c0-0.01,0.02-0.02,0.02-0.03c0.01-0.02,0.06-0.04,0-0.01
			c-0.05,0.03-0.01,0.01,0,0c0.09-0.04-0.05,0,0.01-0.01c0.02-0.01,0.07-0.03,0.09-0.02c0,0-0.1,0-0.03,0.01c0.01,0,0.02,0,0.04,0
			c0.02,0,0.03,0,0.05,0c0.04,0-0.04,0-0.04,0c0,0,0.09,0.02,0.1,0.02c0.04,0.01,0.01-0.01,0,0c-0.03-0.01-0.03-0.01,0,0
			c0.01,0,0.01,0.01,0.02,0.01c0.02,0.01,0.05,0.03,0.07,0.04c0.04,0.02-0.05-0.05-0.02-0.02c0.01,0.01,0.02,0.02,0.03,0.02
			c0.01,0.01,0.02,0.02,0.03,0.03c0.04,0.03,0-0.02-0.02-0.03c0.01,0,0.05,0.08,0.05,0.08c-0.01,0.01-0.03-0.1-0.01-0.03
			c0,0.01,0,0.03,0.01,0.04c0.02,0.03,0.01-0.07,0-0.03c0,0.01,0,0.03,0,0.04c0,0.02,0,0.04,0,0.05c0-0.02,0.02-0.08,0-0.02
			c0,0.01-0.01,0.03-0.01,0.04c0,0.04,0.04-0.06,0-0.01c-0.01,0.01-0.02,0.03-0.03,0.04c-0.01,0.02-0.03,0.02,0,0
			c0.04-0.03,0,0-0.01,0.01c-0.01,0.01-0.02,0.02-0.03,0.03c0,0-0.04,0.04-0.04,0.03c-0.01,0,0.09-0.06,0.02-0.02
			c-0.01,0.01-0.09,0.06-0.09,0.05c0,0,0.1-0.03,0.02-0.01c-0.01,0-0.03,0.01-0.04,0.01c-0.03,0.01-0.06,0.01-0.09,0.02
			c0.1-0.02,0,0-0.03,0c-0.01,0-0.03,0-0.04,0c-0.04,0,0.07,0.02,0.01,0c-0.02-0.01-0.03-0.01-0.05-0.01c-0.02-0.01-0.03-0.02,0,0
			c0.04,0.03-0.03-0.02-0.05-0.03c0.07,0.04,0.03,0.03,0.01,0.01c-0.01-0.02-0.03-0.03-0.04-0.04c0.01,0.01,0.03,0.05,0.02,0.02
			c-0.01-0.02-0.03-0.05-0.04-0.07c0.04,0.07,0,0-0.01-0.04c0-0.01-0.02-0.08-0.01-0.03c0.01,0.04,0,0,0-0.01c0-0.02,0-0.04,0-0.06
			c0-0.03,0.02-0.06,0,0.01c0-0.01,0.01-0.03,0.01-0.04c0.02-0.05,0.02-0.04,0,0c0.01-0.02,0.02-0.04,0.03-0.05
			c-0.01,0.02-0.04,0.05-0.01,0.01c0.06-0.06-0.02,0.02-0.02,0.01c0,0,0.09-0.06,0.02-0.01c-0.05,0.03-0.02,0.01,0,0
			c0.03-0.01,0.06-0.03,0.02-0.01c-0.04,0.02-0.02,0,0.01,0c0.07,0-0.01-0.01-0.01,0c0,0,0.04,0.01,0.04,0.01
			c0.08,0.02,0-0.01-0.01-0.01c0.01,0,0.09,0.05,0.09,0.05c-0.01,0.02-0.06-0.06-0.02-0.01c0.01,0.01,0.01,0.01,0.02,0.02
			c0.02,0.03,0.02,0.02,0,0c-0.02,0-0.02-0.03,0,0c-0.05-0.11,0,0.04-0.01-0.07c0.02,0.2,0.16,0.39,0.38,0.37
			c0.18-0.01,0.41-0.17,0.39-0.38c-0.03-0.27-0.13-0.49-0.37-0.64c-0.2-0.12-0.47-0.16-0.7-0.11c-0.53,0.13-0.77,0.75-0.58,1.23
			c0.19,0.49,0.65,0.73,1.17,0.64c0.45-0.09,0.82-0.44,0.89-0.9c0.06-0.46-0.29-0.82-0.69-0.96c-0.4-0.14-0.89-0.01-1.12,0.36
			c-0.15,0.24,0.04,0.62,0.16,0.84c0.11,0.22,0.29,0.43,0.52,0.54c0.47,0.22,1.1,0.07,1.25-0.48c0.15-0.56-0.3-1.05-0.8-1.21
			c-0.47-0.15-0.99,0.02-1.28,0.42c-0.26,0.36-0.28,0.88-0.07,1.27c0.23,0.42,0.73,0.6,1.19,0.53c0.45-0.07,0.85-0.41,0.94-0.86
			c0.09-0.48-0.12-0.95-0.52-1.22c-0.42-0.28-0.98-0.18-1.35,0.14c-0.38,0.33-0.47,0.83-0.28,1.28c0.33,0.78,1.45,1.04,2.09,0.5
			c0.66-0.55,0.45-1.63-0.2-2.09c-0.38-0.28-0.91-0.25-1.31-0.02c-0.45,0.26-0.72,0.79-0.62,1.31c0.09,0.46,0.47,0.88,0.94,0.97
			c0.4,0.08,0.81-0.06,1.07-0.37c0.5-0.58,0.55-1.58-0.1-2.07c-0.64-0.49-1.55-0.35-2.14,0.15c-0.29,0.25-0.48,0.63-0.5,1.02
			c-0.02,0.42,0.18,0.83,0.47,1.12c0.6,0.61,1.55,0.78,2.23,0.21c0.61-0.51,0.71-1.45,0.38-2.14c-0.36-0.75-1.28-1.01-2.02-0.73
			c-0.4,0.15-0.74,0.4-0.96,0.76c-0.23,0.36-0.29,0.81-0.18,1.22c0.11,0.42,0.38,0.82,0.77,1.01c0.41,0.2,0.9,0.17,1.28-0.1
			c0.38-0.27,0.61-0.69,0.54-1.16c-0.02-0.15-0.21-0.24-0.35-0.2C180.24,62.03,180.16,62.18,180.18,62.33L180.18,62.33z"/>
	</g>
</g>
<g>
	<g>
		<path class="st1" d="M134.34,22.03c0.06,0.41-0.47,0.76-0.86,0.63c-0.42-0.13-0.66-0.68-0.57-1.08c0.01-0.06,0.03-0.11,0.05-0.16
			c-0.02,0.07,0.01-0.02,0.01-0.03c0.01-0.03,0.03-0.05,0.04-0.07c0.01-0.02,0.03-0.05,0.05-0.07c0.01-0.01,0.06-0.08,0.01-0.02
			c0.04-0.05,0.09-0.1,0.14-0.15c0.02-0.02,0.13-0.11,0.06-0.05c0.03-0.02,0.05-0.04,0.08-0.06c-0.04,0.03-0.04,0.03-0.01,0.01
			c0.02-0.02,0.05-0.03,0.07-0.05c0.05-0.03,0.1-0.06,0.15-0.08c0.03-0.01,0.05-0.02,0.08-0.04c-0.09,0.04,0.03-0.01,0.05-0.01
			c0.05-0.02,0.11-0.03,0.17-0.05c0.03-0.01,0.06-0.01,0.08-0.02c-0.09,0.01,0.01,0,0.02,0c0.06,0,0.11-0.01,0.17,0
			c0.03,0,0.06,0,0.08,0.01c-0.09-0.01,0.03,0.01,0.05,0.01c0.06,0.01,0.11,0.03,0.16,0.05c-0.08-0.03,0.01,0,0.02,0.01
			c0.03,0.01,0.05,0.03,0.08,0.04c0.03,0.01,0.05,0.03,0.07,0.05c0.08,0.05-0.05-0.05,0.02,0.01c0.05,0.04,0.09,0.09,0.14,0.13
			c0.06,0.06-0.04-0.06,0.01,0.01c0.01,0.02,0.03,0.04,0.04,0.07c0.03,0.05,0.06,0.09,0.08,0.14c0.01,0.02,0.04,0.1,0.01,0.01
			c0.01,0.03,0.02,0.05,0.03,0.08c0.02,0.06,0.03,0.12,0.05,0.19c0,0.03,0.01,0.05,0.01,0.08c-0.01-0.08,0,0.01,0,0.02
			c0,0.06,0,0.11,0,0.17c0,0.03,0,0.06-0.01,0.08c0,0.01-0.02,0.1,0,0.02c-0.01,0.06-0.02,0.13-0.04,0.19
			c-0.01,0.04-0.03,0.09-0.04,0.13c0.03-0.08,0,0.01-0.01,0.02c-0.01,0.02-0.02,0.05-0.04,0.07c-0.03,0.05-0.06,0.09-0.09,0.13
			c0.05-0.07,0,0-0.01,0.01c-0.02,0.03-0.05,0.05-0.08,0.08c-0.02,0.02-0.04,0.04-0.06,0.05c0.07-0.06,0,0-0.02,0.01
			c-0.05,0.03-0.1,0.06-0.15,0.08c0.07-0.03-0.02,0-0.03,0.01c-0.03,0.01-0.06,0.02-0.09,0.02c-0.01,0-0.1,0.02-0.03,0.01
			c-0.04,0-0.08,0.01-0.12,0.01c-0.03,0-0.06,0-0.09,0c-0.01,0-0.1-0.01-0.03,0c-0.06-0.01-0.12-0.02-0.17-0.04
			c-0.12-0.03-0.17-0.06-0.31-0.14c-0.18-0.11-0.31-0.25-0.42-0.47c0-0.01-0.04-0.1-0.01-0.03c-0.01-0.03-0.02-0.05-0.03-0.08
			c-0.01-0.03-0.01-0.06-0.02-0.08c0-0.01-0.02-0.1-0.01-0.03c-0.01-0.06-0.01-0.12,0-0.18c0-0.01,0.02-0.11,0-0.03
			c0.01-0.03,0.01-0.07,0.02-0.1c0.01-0.03,0.02-0.05,0.03-0.07c0.03-0.08-0.03,0.06,0.01-0.02c0.02-0.04,0.04-0.08,0.07-0.11
			c0.01-0.01,0.06-0.08,0.01-0.01c0.02-0.02,0.03-0.04,0.05-0.06c0.04-0.05,0.09-0.09,0.13-0.13c0.07-0.06-0.07,0.04,0.01-0.01
			c0.02-0.01,0.04-0.03,0.07-0.04c0.05-0.03,0.09-0.05,0.14-0.08c0.02-0.01,0.1-0.04,0.01-0.01c0.02-0.01,0.05-0.02,0.08-0.03
			c0.06-0.02,0.12-0.04,0.18-0.05c0.03-0.01,0.05-0.01,0.08-0.01c-0.09,0.02,0,0,0.01,0c0.05,0,0.11-0.01,0.16,0
			c0.03,0,0.05,0,0.08,0c-0.09-0.01-0.01,0,0.01,0c0.06,0.01,0.12,0.03,0.18,0.04c0.08,0.02-0.07-0.03,0.01,0
			c0.02,0.01,0.05,0.02,0.07,0.03c0.02,0.01,0.05,0.03,0.07,0.04c0.02,0.01,0.08,0.07,0.01,0.01c0.04,0.04,0.08,0.07,0.12,0.11
			c0.02,0.02,0.06,0.09,0.01,0.01c0.02,0.03,0.04,0.06,0.05,0.09c0.01,0.02,0.02,0.05,0.04,0.07c0.04,0.08-0.02-0.08,0,0.01
			c0.01,0.05,0.03,0.1,0.04,0.15c0,0.02,0.01,0.1,0,0.01c0,0.03,0,0.05,0.01,0.08c0,0.06,0,0.12-0.01,0.18
			c-0.01,0.09,0.02-0.07,0,0.01c-0.01,0.03-0.01,0.05-0.02,0.08c-0.01,0.05-0.03,0.09-0.04,0.14c-0.01,0.05,0.04-0.07,0,0
			c-0.01,0.02-0.02,0.05-0.04,0.07c-0.01,0.02-0.03,0.04-0.04,0.06c-0.01,0.01-0.02,0.03-0.03,0.04c0.03-0.04,0.03-0.04,0.01-0.01
			c-0.03,0.04-0.07,0.07-0.1,0.1c0.07-0.06,0.02-0.01,0,0c-0.02,0.01-0.04,0.02-0.06,0.03c-0.06,0.04,0.07-0.01,0,0
			c-0.02,0-0.05,0.01-0.07,0.02c-0.02,0.01-0.09,0-0.01,0c-0.03,0-0.07,0-0.1,0c0.06,0-0.03-0.01-0.04-0.01c0,0-0.11-0.03-0.04-0.01
			c-0.03-0.01-0.06-0.03-0.09-0.04c0,0-0.09-0.06-0.04-0.02c-0.05-0.04-0.1-0.09-0.14-0.14c0.05,0.06-0.02-0.03-0.02-0.03
			c-0.02-0.04-0.04-0.08-0.06-0.12c0.03,0.07-0.01-0.03-0.01-0.04c-0.01-0.03-0.02-0.06-0.02-0.1c0.01,0.07,0-0.03,0-0.04
			c0-0.01,0.02-0.11,0-0.04c0.01-0.03,0.02-0.06,0.03-0.1c0.02-0.09-0.03,0.04,0.02-0.04c0.02-0.03,0.03-0.06,0.05-0.09
			c0.03-0.04,0.03-0.04,0,0c0.01-0.02,0.03-0.03,0.05-0.05c0.02-0.02,0.05-0.05,0.07-0.07c-0.07,0.06,0.01-0.01,0.03-0.02
			c0.03-0.02,0.06-0.04,0.09-0.05c0.02-0.01,0.11-0.04,0.03-0.01c0.03-0.01,0.06-0.02,0.1-0.03c0.01,0,0.12-0.01,0.03-0.01
			c0.03,0,0.07,0,0.1,0c0.05,0,0.04,0,0,0c0.02,0,0.03,0.01,0.05,0.01c0.03,0.01,0.05,0.01,0.07,0.02c-0.09-0.02-0.02-0.01,0,0
			c0.02,0.01,0.04,0.02,0.07,0.04c0.08,0.05,0.01,0,0,0c0.01,0,0.09,0.08,0.09,0.09c0,0,0.05,0.05,0.05,0.06
			c-0.04-0.05-0.04-0.05-0.02-0.02c0.01,0.01,0.02,0.03,0.03,0.04c0.03,0.04,0.05,0.09,0.07,0.14c0.04,0.08-0.02-0.08,0,0
			c0.01,0.03,0.02,0.05,0.02,0.08c0.01,0.05,0.02,0.1,0.03,0.15c-0.02-0.1,0-0.02,0,0.01c0,0.03,0,0.07,0,0.1
			c0,0.03,0,0.05-0.01,0.08c0.01-0.1,0-0.02,0,0c-0.01,0.02-0.02,0.05-0.02,0.07c-0.02,0.08,0.04-0.07,0,0.01
			c-0.01,0.02-0.02,0.04-0.04,0.07c-0.01,0.02-0.07,0.08,0,0.01c-0.02,0.02-0.03,0.04-0.05,0.06c-0.01,0.01-0.03,0.02-0.04,0.04
			c0.04-0.03,0.05-0.04,0.01-0.01c-0.02,0.01-0.04,0.03-0.07,0.04c-0.03,0.01-0.09,0.03-0.01,0.01c-0.03,0.01-0.05,0.02-0.08,0.02
			c-0.02,0-0.1,0.01-0.01,0c-0.05,0-0.11,0-0.16,0c-0.09,0,0.07,0.02-0.01,0c-0.04-0.01-0.07-0.01-0.11-0.02
			c-0.03-0.01-0.05-0.02-0.08-0.02c0.08,0.03,0,0-0.01-0.01c-0.05-0.02-0.1-0.05-0.14-0.08c-0.08-0.05,0.05,0.05-0.01-0.01
			c-0.02-0.02-0.04-0.03-0.06-0.05c-0.02-0.02-0.04-0.04-0.06-0.06c-0.01-0.01-0.02-0.03-0.03-0.04c0.03,0.04,0.04,0.05,0.01,0.01
			c-0.03-0.05-0.05-0.09-0.08-0.14c0.04,0.09,0.01,0.01,0-0.01c-0.01-0.03-0.01-0.05-0.02-0.08c-0.02-0.08,0,0.07,0-0.01
			c0-0.02,0-0.05,0-0.07c0-0.05-0.03,0.07,0-0.01c0.01-0.02,0.01-0.04,0.02-0.06c-0.02,0.04-0.02,0.04,0,0
			c0.02-0.03,0.03-0.05,0.05-0.08c0.05-0.08-0.05,0.04,0.02-0.02c0.02-0.02,0.05-0.04,0.07-0.06c0.07-0.07-0.07,0.03,0.02-0.01
			c0.03-0.01,0.05-0.03,0.08-0.05c0.02-0.01,0.11-0.03,0.02-0.01c0.03-0.01,0.06-0.02,0.09-0.03c0.04-0.01,0.04-0.01,0,0
			c0.02,0,0.04,0,0.06,0c0.01,0,0.11,0.01,0.03,0c0.03,0.01,0.06,0.01,0.09,0.02c0.08,0.02-0.05-0.04,0.02,0.01
			c0.01,0.01,0.09,0.06,0.02,0.01c0.02,0.02,0.04,0.04,0.06,0.06c0.01,0.01,0.07,0.09,0.02,0.01c0.02,0.02,0.03,0.05,0.05,0.07
			c0.01,0.02,0.06,0.13,0.03,0.04c0.02,0.06,0.03,0.11,0.05,0.17c-0.02-0.08,0,0.01,0,0.02c0,0.03,0,0.06,0,0.09
			c0,0.09,0.02-0.06,0,0.02c-0.01,0.03-0.02,0.06-0.02,0.08c-0.02,0.08,0.04-0.05-0.01,0.02c-0.01,0.02-0.09,0.11-0.03,0.05
			c-0.02,0.02-0.04,0.04-0.06,0.06c-0.06,0.06,0.06-0.03-0.02,0.01c-0.03,0.01-0.05,0.03-0.08,0.04c-0.08,0.05,0.07-0.01-0.02,0.01
			c-0.03,0.01-0.06,0.02-0.09,0.02c-0.09,0.03,0.06,0-0.03,0.01c-0.03,0-0.06,0-0.09,0c-0.02,0-0.04,0-0.06,0c0.04,0.01,0.04,0,0,0
			c-0.03-0.01-0.06-0.01-0.09-0.02c0.07,0.02-0.01-0.01-0.03-0.01c-0.03-0.01-0.05-0.03-0.08-0.05c0.06,0.04-0.01-0.02-0.02-0.02
			c-0.01-0.01-0.07-0.08-0.02-0.02c-0.02-0.02-0.03-0.05-0.05-0.08c0,0-0.04-0.09-0.02-0.04c0.02,0.04-0.02-0.06-0.02-0.07
			c-0.01-0.03-0.01-0.06-0.02-0.09c0.01,0.08,0-0.02,0-0.03c0-0.03,0-0.06,0-0.09c0.01-0.09-0.02,0.06,0.01-0.03
			c0.01-0.03,0.02-0.06,0.03-0.09c0.02-0.09-0.04,0.05,0.01-0.03c0.02-0.03,0.03-0.05,0.05-0.08c0.02-0.03,0.02-0.03,0,0
			c0.01-0.02,0.03-0.03,0.04-0.04c0.01-0.01,0.09-0.07,0.01-0.02c0.03-0.02,0.05-0.03,0.08-0.05c0.08-0.05-0.07,0.01,0.02-0.01
			c0.03-0.01,0.06-0.02,0.09-0.02c0.09-0.02-0.07,0,0.02,0c0.03,0,0.06,0,0.09,0c0.09,0-0.06-0.02,0.03,0
			c0.04,0.01,0.08,0.02,0.12,0.03c0.09,0.02-0.06-0.04,0.02,0.01c0.03,0.01,0.05,0.03,0.08,0.04c0.08,0.04-0.05-0.05,0.02,0.01
			c0.02,0.02,0.04,0.04,0.07,0.06c0.02,0.02,0.06,0.09,0.01,0.01c0.02,0.03,0.03,0.05,0.05,0.08c0.05,0.08-0.02-0.06,0.02,0.05
			c0.01,0.04,0.01,0.05,0.01,0.02c0,0.03,0,0.05,0,0.08c0-0.02,0.03-0.07,0-0.01c0.04-0.07,0.01-0.01-0.01,0.01
			c0.06-0.06,0.02-0.02-0.01,0c0.08-0.05,0.01-0.01-0.01,0c-0.08,0.02,0.06,0.01-0.02,0c-0.01,0-0.11-0.01-0.03,0
			c-0.03-0.01-0.06-0.01-0.09-0.02c0.08,0.02-0.03-0.02-0.05-0.03c0.08,0.04-0.01-0.01-0.03-0.03c0,0-0.08-0.09-0.04-0.03
			c-0.05-0.06-0.08-0.12-0.11-0.19c0,0-0.05-0.11-0.02-0.05c-0.01-0.03-0.03-0.07-0.04-0.11c-0.02-0.07-0.05-0.14-0.07-0.21
			c-0.01,0.09-0.03,0.18-0.04,0.28c0.02-0.03,0-0.03-0.02,0.02c0-0.01,0.02-0.02,0.02-0.03c0.01-0.02,0.06-0.04,0-0.01
			c-0.05,0.03-0.01,0.01,0,0c0.09-0.04-0.05,0,0.01-0.01c0.02-0.01,0.07-0.03,0.09-0.02c0,0-0.1,0-0.03,0.01c0.01,0,0.02,0,0.04,0
			c0.02,0,0.03,0,0.05,0c0.04,0-0.04,0-0.04,0c0,0,0.09,0.02,0.1,0.02c0.04,0.01,0.01-0.01,0,0c-0.03-0.01-0.03-0.01,0,0
			c0.01,0,0.01,0.01,0.02,0.01c0.02,0.01,0.05,0.03,0.07,0.04c0.04,0.02-0.05-0.05-0.02-0.02c0.01,0.01,0.02,0.02,0.03,0.02
			c0.01,0.01,0.02,0.02,0.03,0.03c0.04,0.03,0-0.02-0.02-0.03c0.01,0,0.05,0.08,0.05,0.08c-0.01,0.01-0.03-0.1-0.01-0.03
			c0,0.01,0,0.03,0.01,0.04c0.02,0.03,0.01-0.07,0-0.03c0,0.01,0,0.03,0,0.04c0,0.02,0,0.04,0,0.05c0-0.02,0.02-0.08,0-0.02
			c0,0.01-0.01,0.03-0.01,0.04c0,0.04,0.04-0.06,0-0.01c-0.01,0.01-0.02,0.03-0.03,0.04c-0.01,0.02-0.03,0.02,0,0
			c0.04-0.03,0,0-0.01,0.01c-0.01,0.01-0.02,0.02-0.03,0.03c0,0-0.04,0.04-0.04,0.03c-0.01,0,0.09-0.06,0.02-0.02
			c-0.01,0.01-0.09,0.06-0.09,0.05c0,0,0.1-0.03,0.02-0.01c-0.01,0-0.03,0.01-0.04,0.01c-0.03,0.01-0.06,0.01-0.09,0.02
			c0.1-0.02,0,0-0.03,0c-0.01,0-0.03,0-0.04,0c-0.04,0,0.07,0.02,0.01,0c-0.02-0.01-0.03-0.01-0.05-0.01c-0.02-0.01-0.03-0.02,0,0
			c0.04,0.03-0.03-0.02-0.05-0.03c0.07,0.04,0.03,0.03,0.01,0.01c-0.01-0.02-0.03-0.03-0.04-0.04c0.01,0.01,0.03,0.05,0.02,0.02
			c-0.01-0.02-0.03-0.05-0.04-0.07c0.04,0.07,0,0-0.01-0.04c0-0.01-0.02-0.08-0.01-0.03c0.01,0.04,0,0,0-0.01c0-0.02,0-0.04,0-0.06
			c0-0.03,0.02-0.06,0,0.01c0-0.01,0.01-0.03,0.01-0.04c0.02-0.05,0.02-0.04,0,0c0.01-0.02,0.02-0.04,0.03-0.05
			c-0.01,0.02-0.04,0.05-0.01,0.01c0.06-0.06-0.02,0.02-0.02,0.01c0,0,0.09-0.06,0.02-0.01c-0.05,0.03-0.02,0.01,0,0
			c0.03-0.01,0.06-0.03,0.02-0.01c-0.04,0.02-0.02,0,0.01,0c0.07,0-0.01-0.01-0.01,0c0,0,0.04,0.01,0.04,0.01
			c0.08,0.02,0-0.01-0.01-0.01c0.01,0,0.09,0.05,0.09,0.05c-0.01,0.02-0.06-0.06-0.02-0.01c0.01,0.01,0.01,0.01,0.02,0.02
			c0.02,0.03,0.02,0.02,0,0c-0.02,0-0.02-0.03,0,0c-0.05-0.11,0,0.04-0.01-0.07c0.02,0.2,0.16,0.39,0.38,0.37
			c0.18-0.01,0.41-0.17,0.39-0.38c-0.03-0.27-0.13-0.49-0.37-0.64c-0.2-0.12-0.47-0.16-0.7-0.11c-0.53,0.13-0.77,0.75-0.58,1.23
			c0.19,0.49,0.65,0.73,1.17,0.64c0.45-0.09,0.82-0.44,0.89-0.9c0.06-0.46-0.29-0.82-0.69-0.96c-0.4-0.14-0.89-0.01-1.12,0.36
			c-0.15,0.24,0.04,0.62,0.16,0.84c0.11,0.22,0.29,0.43,0.52,0.54c0.47,0.22,1.1,0.07,1.25-0.48c0.15-0.56-0.3-1.05-0.8-1.21
			c-0.47-0.15-0.99,0.02-1.28,0.42c-0.26,0.36-0.28,0.88-0.07,1.27c0.23,0.42,0.73,0.6,1.19,0.53c0.45-0.07,0.85-0.41,0.94-0.86
			c0.09-0.48-0.12-0.95-0.52-1.22c-0.42-0.28-0.98-0.18-1.35,0.14c-0.38,0.33-0.47,0.83-0.28,1.28c0.33,0.78,1.45,1.04,2.09,0.5
			c0.66-0.55,0.45-1.63-0.2-2.09c-0.38-0.28-0.91-0.25-1.31-0.02c-0.45,0.26-0.72,0.79-0.62,1.31c0.09,0.46,0.47,0.88,0.94,0.97
			c0.4,0.08,0.81-0.06,1.07-0.37c0.5-0.58,0.55-1.58-0.1-2.07c-0.64-0.49-1.55-0.35-2.14,0.15c-0.29,0.25-0.48,0.63-0.5,1.02
			c-0.02,0.42,0.18,0.83,0.47,1.12c0.6,0.61,1.55,0.78,2.23,0.21c0.61-0.51,0.71-1.45,0.38-2.14c-0.36-0.75-1.28-1.01-2.02-0.73
			c-0.4,0.15-0.74,0.4-0.96,0.76c-0.23,0.36-0.29,0.81-0.18,1.22c0.11,0.42,0.38,0.82,0.77,1.01c0.41,0.2,0.9,0.17,1.28-0.1
			c0.38-0.27,0.61-0.69,0.54-1.16c-0.02-0.15-0.21-0.24-0.35-0.2C134.39,21.72,134.32,21.87,134.34,22.03L134.34,22.03z"/>
	</g>
</g>
<g>
	<g>
		<path class="st1" d="M75.16,7.92c0.05,1.26,0.08,2.51,0.09,3.77c0,0.62,0,1.23,0,1.85c0,0.57-0.15,1.39,0.19,1.88
			c0.23,0.34,0.64,0.29,0.87-0.01c0.35-0.46,0.27-1.26,0.29-1.81c0.03-0.64,0.04-1.28,0.04-1.92c0.01-1.26-0.01-2.52-0.06-3.77
			C76.54,7,75.12,7.03,75.16,7.92L75.16,7.92z"/>
	</g>
</g>
<g>
	<g>
		<path class="st1" d="M75.93,7.35c0.38-0.33,0.83-0.62,1.33-0.69c0.39-0.06,0.84,0.03,1.13,0.31c0.27,0.26,0.34,0.65,0.25,1.02
			c-0.11,0.41-0.34,0.66-0.71,0.85c-0.03,0.01-0.06,0.03-0.08,0.04c-0.08,0.04,0.01,0-0.04,0.02c-0.06,0.02-0.12,0.04-0.18,0.06
			C77.5,9,77.36,9.02,77.23,9.05c-0.02,0-0.05,0.01-0.07,0.01c-0.03,0.01-0.03,0,0,0c-0.02,0-0.03,0-0.05,0.01
			c-0.06,0-0.13,0.01-0.19,0.01c-0.14,0-0.29,0-0.43-0.02c-0.22-0.02-0.42,0.19-0.45,0.39c-0.03,0.2,0.1,0.45,0.32,0.48
			c0.64,0.1,1.31,0.06,1.89-0.25c0.54-0.29,0.97-0.79,1.12-1.39c0.14-0.55,0.08-1.19-0.28-1.65c-0.38-0.49-1.02-0.74-1.64-0.69
			c-0.76,0.06-1.41,0.48-1.95,0.99c-0.12,0.11-0.12,0.31,0,0.43C75.63,7.49,75.81,7.46,75.93,7.35L75.93,7.35z"/>
	</g>
</g>
<g>
	<g>
		<path class="st1" d="M80.66,7.5C80.46,8.26,80.3,9.22,80.8,9.9c0.33,0.45,0.81,0.69,1.37,0.68c0.5-0.01,0.97-0.2,1.35-0.52
			c0.6-0.51,0.86-1.38,0.69-2.15c-0.09-0.37-0.25-0.7-0.52-0.98c-0.25-0.25-0.58-0.41-0.93-0.49c-0.37-0.08-0.79-0.07-1.15,0.06
			C81.2,6.67,80.8,6.96,80.69,7.4c-0.08,0.34,0.36,0.62,0.61,0.34c0.04-0.05,0.09-0.09,0.13-0.13c0.03-0.03,0.05-0.06,0.08-0.09
			c-0.01,0.01-0.06,0.07-0.01,0.02c0.02-0.02,0.04-0.05,0.07-0.07c0.02-0.02,0.05-0.04,0.07-0.07c0.06-0.05-0.06,0.04,0,0
			c0.06-0.04,0.11-0.07,0.17-0.1c0.03-0.01,0.06-0.03,0.09-0.04c0.04-0.02-0.04,0.02-0.04,0.01c0,0,0.04-0.01,0.04-0.01
			c0.06-0.02,0.13-0.04,0.19-0.06c0.03-0.01,0.07-0.01,0.1-0.02c-0.07,0.01-0.03,0,0.01,0c0.07-0.01,0.14-0.01,0.2-0.01
			c0.03,0,0.07,0.01,0.1,0.01c0.04,0-0.02,0-0.03,0c0.02,0,0.04,0.01,0.06,0.01c0.07,0.01,0.13,0.03,0.2,0.05
			c0.03,0.01,0.08,0.03,0.02,0.01c0.03,0.01,0.06,0.03,0.09,0.04c0.06,0.03,0.12,0.07,0.17,0.1c0.04,0.02-0.02-0.01-0.02-0.02
			c0.01,0.01,0.02,0.02,0.03,0.03c0.03,0.02,0.05,0.04,0.08,0.07c0.02,0.02,0.04,0.04,0.06,0.06c0,0-0.04-0.06-0.02-0.02
			c0.01,0.02,0.03,0.04,0.04,0.06c0.04,0.06,0.07,0.12,0.1,0.18c0.01,0.01,0.01,0.03,0.02,0.04c0-0.01-0.02-0.07-0.01-0.02
			c0.01,0.04,0.03,0.08,0.04,0.12c0.01,0.03,0.01,0.06,0.02,0.09c0.02,0.1,0-0.03,0.01,0.04c0,0.07,0,0.15,0,0.22
			c0,0.03-0.01,0.06-0.01,0.09c-0.01,0.08,0-0.01,0-0.02c0,0.02-0.01,0.03-0.01,0.05c-0.02,0.07-0.03,0.14-0.06,0.21
			c-0.01,0.04-0.03,0.07-0.04,0.11c-0.03,0.08,0.04-0.08,0,0c-0.03,0.07-0.06,0.13-0.1,0.2c-0.03,0.06-0.08,0.12-0.11,0.17
			c-0.03,0.05,0.03-0.04,0.03-0.04c-0.01,0.01-0.03,0.04-0.04,0.05C83.03,9.08,83,9.11,82.97,9.14c-0.05,0.05-0.1,0.09-0.15,0.14
			c-0.07,0.06,0.1-0.07,0,0c-0.03,0.02-0.06,0.04-0.09,0.06c-0.03,0.02-0.07,0.04-0.1,0.06c-0.01,0.01-0.04,0.01-0.05,0.02
			c0,0,0.11-0.04,0.05-0.02c-0.09,0.03-0.17,0.06-0.26,0.07c-0.02,0-0.1,0.02-0.02,0.01c0.08-0.01,0.01,0,0,0
			c-0.04,0-0.08,0.01-0.11,0.01c-0.04,0-0.09,0-0.13-0.01c-0.06,0,0.05,0,0.05,0.01c-0.01-0.01-0.06-0.01-0.07-0.01
			c-0.04-0.01-0.08-0.02-0.13-0.04C81.89,9.41,82,9.45,81.99,9.45c0,0-0.07-0.03-0.07-0.03c-0.03-0.02-0.07-0.04-0.1-0.05
			c-0.01-0.01-0.07-0.05,0,0c0.07,0.06-0.01-0.01-0.02-0.02c-0.03-0.03-0.05-0.05-0.08-0.08c-0.09-0.09,0.05,0.09-0.01-0.01
			c-0.02-0.03-0.04-0.06-0.06-0.1c-0.01-0.02-0.02-0.04-0.03-0.06c-0.04-0.07,0.02,0.03,0.02,0.04c0-0.03-0.03-0.09-0.04-0.12
			c-0.01-0.04-0.02-0.08-0.03-0.11c-0.01-0.04-0.02-0.09-0.02-0.13c-0.01-0.06,0.01,0.05,0.01,0.05c0-0.02,0-0.05-0.01-0.07
			c-0.01-0.18,0-0.37,0.02-0.55c0-0.04,0.01-0.08,0.02-0.13c0-0.03,0.03-0.08,0,0.02c0.01-0.02,0.01-0.05,0.01-0.07
			c0.02-0.09,0.03-0.18,0.05-0.28c0.05-0.26-0.07-0.56-0.36-0.62C81.03,7.08,80.73,7.22,80.66,7.5L80.66,7.5z"/>
	</g>
</g>
<g>
	<g>
		<path class="st1" d="M86.34,5.73c-0.3,0.27-0.58,0.54-0.86,0.82c-0.18,0.18-0.25,0.5-0.1,0.73c0.25,0.39,0.58,0.71,0.89,1.05
			c0.22,0.24,0.47,0.56,0.48,0.84c0.01,0.14-0.02,0.27-0.09,0.38c-0.07,0.11-0.05,0.1-0.13,0.19c-0.03,0.03-0.07,0.07-0.1,0.1
			c-0.01,0.01-0.1,0.08-0.04,0.04c-0.27,0.2-0.53,0.28-0.89,0.22c-0.45-0.07-0.73,0.49-0.32,0.75c0.98,0.65,2.29-0.29,2.53-1.3
			c0.13-0.55-0.05-1.1-0.36-1.56C87.18,7.77,87,7.56,86.83,7.33c0.04,0.05-0.06-0.09-0.06-0.08c-0.04-0.05-0.07-0.1-0.1-0.15
			C86.63,7.05,86.6,7,86.57,6.94c-0.01-0.02-0.1-0.23-0.06-0.13c-0.1,0.23-0.2,0.45-0.3,0.68c0.38-0.26,0.73-0.54,1.09-0.83
			c0.27-0.22,0.26-0.72,0.01-0.95C87.02,5.46,86.62,5.48,86.34,5.73L86.34,5.73z"/>
	</g>
</g>
<g>
	<g>
		<path class="st1" d="M0.76,68.75c-1.14,2.65-1.07,6.13,0.74,8.48c0.37,0.47,1.06,0.08,0.83-0.48C1.29,74.28,1,71.6,2.08,69.09
			c0.15-0.34-0.15-0.74-0.47-0.82C1.21,68.16,0.9,68.41,0.76,68.75L0.76,68.75z"/>
	</g>
</g>
<g>
	<g>
		<path class="st1" d="M19.98,76.25c0.01,0.03,0.03,0.06,0.04,0.08c0.03,0.06-0.01-0.03,0.01,0.01c0.02,0.05,0.04,0.11,0.05,0.16
			c0.01,0.05,0.02,0.1,0.03,0.15c0,0.01,0.01,0.09,0.01,0.04c0-0.05,0,0.04,0,0.05c0.01,0.11,0,0.23-0.01,0.34
			c0.01-0.05,0-0.02,0,0.01c-0.01,0.03-0.01,0.05-0.02,0.08c-0.01,0.06-0.03,0.11-0.05,0.17c-0.01,0.02-0.02,0.05-0.03,0.07
			c0,0.01-0.04,0.09-0.02,0.04c0.02-0.04-0.02,0.03-0.02,0.04c-0.01,0.03-0.03,0.06-0.04,0.08c-0.02,0.05-0.05,0.09-0.08,0.13
			c-0.02,0.03-0.04,0.05-0.05,0.08c0.03-0.04,0.01-0.02-0.01,0.01c-0.07,0.08-0.15,0.16-0.23,0.23c-0.04,0.03-0.08,0.07-0.12,0.1
			c-0.01,0.01-0.09,0.07-0.02,0.02c-0.03,0.02-0.05,0.04-0.08,0.05c-0.13,0.09-0.21,0.25-0.14,0.4c0.06,0.14,0.23,0.24,0.38,0.19
			c0.29-0.1,0.53-0.25,0.73-0.49c0.19-0.23,0.34-0.49,0.44-0.77c0.18-0.54,0.15-1.15-0.12-1.66c-0.09-0.17-0.35-0.23-0.51-0.13
			C19.95,75.86,19.88,76.06,19.98,76.25L19.98,76.25z"/>
	</g>
</g>
<g>
	<g>
		<path class="st1" d="M38.81,70.4c0.98,1.23,2.12,2.63,2.27,4.27c0.13,1.33-0.45,2.52-1.61,3.18c-0.38,0.22-0.14,0.76,0.27,0.68
			c1.62-0.31,2.39-2.23,2.35-3.71c-0.05-1.99-1.39-3.65-2.58-5.12C39.12,69.22,38.42,69.92,38.81,70.4L38.81,70.4z"/>
	</g>
</g>
<g>
	<g>
		<path class="st1" d="M22.57,75.42c-0.06,0.44,0.1,0.84,0.38,1.18c0.32,0.39,1.08-0.05,0.9-0.52c-0.24-0.63-0.29-1.25-0.09-1.89
			c0.09-0.29,0.22-0.56,0.39-0.82c0.08-0.12,0.32-0.5,0.47-0.48c0.08,0.01,0.21,0.26,0.24,0.32c0.1,0.15,0.19,0.31,0.28,0.47
			c0.15,0.28,0.28,0.58,0.37,0.88c0.21,0.68,0.3,1.39,0.29,2.09c-0.01,0.44,0.68,0.52,0.78,0.09c0.31-1.37-0.02-2.87-0.86-3.99
			c-0.22-0.29-0.46-0.62-0.83-0.72c-0.4-0.11-0.78,0.09-1.06,0.36c-0.47,0.46-0.81,1.08-0.98,1.71c-0.2,0.72-0.24,1.54-0.04,2.27
			c0.33-0.14,0.66-0.27,0.99-0.41c-0.13-0.18-0.16-0.32-0.13-0.54c0.04-0.29-0.27-0.53-0.53-0.53
			C22.81,74.88,22.61,75.12,22.57,75.42L22.57,75.42z"/>
	</g>
</g>
<g>
	<g>
		<path class="st1" d="M28.4,75.41c0.82,0.31,1.89,0.05,2.35-0.73c0.39-0.67,0.13-1.66-0.58-2.01c-0.9-0.45-1.77,0.33-2.06,1.15
			c-0.31,0.89-0.06,1.93,0.58,2.6c0.4,0.42,0.95,0.65,1.52,0.71c0.27,0.03,0.54,0.01,0.8-0.06c0.3-0.08,0.54-0.22,0.78-0.41
			c0.16-0.13,0.18-0.41,0.08-0.58c-0.11-0.18-0.34-0.27-0.54-0.22c-0.05,0.01-0.1,0.02-0.14,0.03c-0.02,0-0.1,0.02-0.01,0
			c-0.11,0.02-0.23,0.04-0.34,0.06c0.11-0.02-0.06,0-0.1,0c-0.1,0-0.2,0-0.3,0c-0.02,0-0.11-0.01,0,0
			c-0.04-0.01-0.08-0.01-0.12-0.02c-0.07-0.01-0.15-0.03-0.22-0.05c-0.08-0.02-0.16-0.05-0.24-0.07c0.02,0.01,0.1,0.05,0,0
			c-0.05-0.02-0.09-0.04-0.14-0.07c-0.07-0.04-0.14-0.08-0.21-0.13c0.09,0.06-0.07-0.06-0.1-0.09c-0.05-0.05-0.1-0.11-0.15-0.16
			c0.07,0.08,0,0-0.02-0.02c-0.03-0.05-0.06-0.1-0.09-0.15c-0.13-0.22-0.21-0.49-0.23-0.74c-0.01-0.3,0.03-0.56,0.18-0.82
			c0.13-0.22,0.33-0.43,0.6-0.41c0.06,0,0.15,0.04,0.18,0.06c0.11,0.08,0.15,0.15,0.21,0.28c0.03,0.07-0.02-0.08,0.02,0.04
			c0.01,0.03,0.02,0.05,0.02,0.08c0.02,0.07,0.02,0.11,0.02,0.14c0,0.14,0,0.19-0.06,0.33c0.03-0.07-0.08,0.12-0.04,0.06
			c-0.03,0.04-0.06,0.07-0.09,0.1c-0.01,0.01-0.11,0.09-0.04,0.04c-0.06,0.04-0.12,0.08-0.19,0.11c-0.12,0.06,0.05-0.01-0.03,0.01
			c-0.05,0.02-0.1,0.03-0.15,0.04c-0.03,0.01-0.06,0.01-0.09,0.02c0.09-0.02-0.05,0-0.06,0c-0.08,0.01-0.17,0-0.25,0
			c-0.02,0-0.12-0.01-0.03,0c-0.05-0.01-0.09-0.01-0.14-0.02c-0.03-0.01-0.06-0.01-0.09-0.02c-0.02-0.01-0.19-0.07-0.09-0.03
			c-0.28-0.12-0.61-0.04-0.74,0.26C27.93,75.04,28.11,75.3,28.4,75.41L28.4,75.41z"/>
	</g>
</g>
<g>
	<g>
		<path class="st1" d="M34.96,73.45c-0.11-0.4-0.48-0.67-0.9-0.66c-0.46,0-0.81,0.3-1.07,0.65c-0.28,0.38-0.48,0.83-0.59,1.28
			c-0.12,0.44-0.21,0.98,0.01,1.41c0.49,0.95,1.69,0.49,2.41,0.13c0.77-0.39,1.55-1.26,1.21-2.18c-0.17-0.47-0.83-0.38-0.88,0.12
			c-0.13,1.31,0.51,2.42,0.83,3.65c0.12,0.48,0.2,1.11-0.39,1.27c-0.55,0.15-1.17-0.13-1.69-0.28c-0.51-0.14-0.81,0.57-0.36,0.85
			c0.65,0.4,1.4,0.68,2.18,0.48c0.71-0.18,1.22-0.75,1.29-1.48c0.07-0.75-0.26-1.5-0.52-2.17c-0.26-0.68-0.61-1.46-0.46-2.2
			c-0.29,0-0.57,0.01-0.86,0.01c0.06,0.46-0.32,0.77-0.69,0.94c-0.18,0.08-0.37,0.14-0.55,0.2c-0.12,0.04-0.4,0.18-0.53,0.11
			c0.04,0.02,0.03,0.01,0.01-0.03c-0.03-0.09-0.01-0.19,0-0.28c0.02-0.24,0.07-0.47,0.15-0.7c0.07-0.23,0.18-0.48,0.32-0.67
			c0.05-0.07,0.1-0.1,0.16-0.16c0.06-0.05,0.09,0.08,0.05-0.03C34.28,74.21,35.11,74,34.96,73.45L34.96,73.45z"/>
	</g>
</g>
<g>
	<g>
		<path class="st1" d="M111.28,4.17c-1.14,2.65-1.07,6.13,0.74,8.48c0.37,0.47,1.06,0.08,0.83-0.48c-1.04-2.47-1.32-5.16-0.25-7.67
			c0.15-0.34-0.15-0.74-0.47-0.82C111.74,3.57,111.43,3.82,111.28,4.17L111.28,4.17z"/>
	</g>
</g>
<g>
	<g>
		<path class="st1" d="M130.5,11.66c0.01,0.03,0.03,0.06,0.04,0.08c0.03,0.06-0.01-0.03,0.01,0.01c0.02,0.05,0.04,0.11,0.05,0.16
			c0.01,0.05,0.02,0.1,0.03,0.15c0,0.01,0.01,0.09,0.01,0.04c0-0.05,0,0.04,0,0.05c0.01,0.11,0,0.23-0.01,0.34
			c0.01-0.05,0-0.02,0,0.01c-0.01,0.03-0.01,0.05-0.02,0.08c-0.01,0.06-0.03,0.11-0.05,0.17c-0.01,0.02-0.02,0.05-0.03,0.07
			c0,0.01-0.04,0.09-0.02,0.04c0.02-0.04-0.02,0.03-0.02,0.04c-0.01,0.03-0.03,0.06-0.04,0.08c-0.02,0.05-0.05,0.09-0.08,0.13
			c-0.02,0.03-0.04,0.05-0.05,0.08c0.03-0.04,0.01-0.02-0.01,0.01c-0.07,0.08-0.15,0.16-0.23,0.23c-0.04,0.03-0.08,0.07-0.12,0.1
			c-0.01,0.01-0.09,0.07-0.02,0.02c-0.03,0.02-0.05,0.04-0.08,0.05c-0.13,0.09-0.21,0.25-0.14,0.4c0.06,0.14,0.23,0.24,0.38,0.19
			c0.29-0.1,0.53-0.25,0.73-0.49c0.19-0.23,0.34-0.49,0.44-0.77c0.18-0.54,0.15-1.15-0.12-1.66c-0.09-0.17-0.35-0.23-0.51-0.13
			C130.47,11.27,130.41,11.47,130.5,11.66L130.5,11.66z"/>
	</g>
</g>
<g>
	<g>
		<path class="st1" d="M149.33,5.81c0.98,1.23,2.12,2.63,2.27,4.27c0.13,1.33-0.45,2.52-1.61,3.18c-0.38,0.22-0.14,0.76,0.27,0.68
			c1.62-0.31,2.39-2.23,2.35-3.71c-0.05-1.99-1.39-3.65-2.58-5.12C149.65,4.63,148.94,5.33,149.33,5.81L149.33,5.81z"/>
	</g>
</g>
<g>
	<g>
		<path class="st1" d="M167.35,74.2c0.05,1.26,0.08,2.51,0.09,3.77c0,0.62,0,1.23,0,1.85c0,0.57-0.15,1.39,0.19,1.88
			c0.23,0.34,0.64,0.29,0.87-0.01c0.35-0.46,0.27-1.26,0.29-1.81c0.03-0.64,0.04-1.28,0.04-1.92c0.01-1.26-0.01-2.52-0.06-3.77
			C168.73,73.28,167.31,73.31,167.35,74.2L167.35,74.2z"/>
	</g>
</g>
<g>
	<g>
		<path class="st1" d="M168.12,73.63c0.38-0.33,0.83-0.62,1.33-0.69c0.39-0.06,0.84,0.03,1.13,0.31c0.27,0.26,0.34,0.65,0.25,1.02
			c-0.11,0.41-0.34,0.66-0.71,0.85c-0.03,0.01-0.06,0.03-0.08,0.04c-0.08,0.04,0.01,0-0.04,0.02c-0.06,0.02-0.12,0.04-0.18,0.06
			c-0.13,0.04-0.26,0.07-0.4,0.09c-0.02,0-0.05,0.01-0.07,0.01c-0.03,0.01-0.03,0,0,0c-0.02,0-0.03,0-0.05,0.01
			c-0.06,0-0.13,0.01-0.19,0.01c-0.14,0-0.29,0-0.43-0.02c-0.22-0.02-0.42,0.19-0.45,0.39c-0.03,0.2,0.1,0.45,0.32,0.48
			c0.64,0.1,1.31,0.06,1.89-0.25c0.54-0.29,0.97-0.79,1.12-1.39c0.14-0.55,0.08-1.19-0.28-1.65c-0.38-0.49-1.02-0.74-1.64-0.69
			c-0.76,0.06-1.41,0.48-1.95,0.99c-0.12,0.11-0.12,0.31,0,0.43C167.81,73.76,168,73.74,168.12,73.63L168.12,73.63z"/>
	</g>
</g>
<g>
	<g>
		<path class="st1" d="M172.84,73.78c-0.19,0.76-0.36,1.72,0.14,2.41c0.33,0.45,0.81,0.69,1.37,0.68c0.5-0.01,0.97-0.2,1.35-0.52
			c0.6-0.51,0.86-1.38,0.69-2.15c-0.09-0.37-0.25-0.7-0.52-0.98c-0.25-0.25-0.58-0.41-0.93-0.49c-0.37-0.08-0.79-0.07-1.15,0.06
			c-0.41,0.15-0.81,0.45-0.92,0.89c-0.08,0.34,0.36,0.62,0.61,0.34c0.04-0.05,0.09-0.09,0.13-0.13c0.03-0.03,0.05-0.06,0.08-0.09
			c-0.01,0.01-0.06,0.07-0.01,0.02c0.02-0.02,0.04-0.05,0.07-0.07c0.02-0.02,0.05-0.04,0.07-0.07c0.06-0.05-0.06,0.04,0,0
			c0.06-0.04,0.11-0.07,0.17-0.1c0.03-0.01,0.06-0.03,0.09-0.04c0.04-0.02-0.04,0.02-0.04,0.01c0,0,0.04-0.01,0.04-0.01
			c0.06-0.02,0.13-0.04,0.19-0.06c0.03-0.01,0.07-0.01,0.1-0.02c-0.07,0.01-0.03,0,0.01,0c0.07-0.01,0.14-0.01,0.2-0.01
			c0.03,0,0.07,0.01,0.1,0.01c0.04,0-0.02,0-0.03,0c0.02,0,0.04,0.01,0.06,0.01c0.07,0.01,0.13,0.03,0.2,0.05
			c0.03,0.01,0.08,0.03,0.02,0.01c0.03,0.01,0.06,0.03,0.09,0.04c0.06,0.03,0.12,0.07,0.17,0.1c0.04,0.02-0.02-0.01-0.02-0.02
			c0.01,0.01,0.02,0.02,0.03,0.03c0.03,0.02,0.05,0.04,0.08,0.07c0.02,0.02,0.04,0.04,0.06,0.06c0,0-0.04-0.06-0.02-0.02
			c0.01,0.02,0.03,0.04,0.04,0.06c0.04,0.06,0.07,0.12,0.1,0.18c0.01,0.01,0.01,0.03,0.02,0.04c0-0.01-0.02-0.07-0.01-0.02
			c0.01,0.04,0.03,0.08,0.04,0.12c0.01,0.03,0.01,0.06,0.02,0.09c0.02,0.1,0-0.03,0.01,0.04c0,0.07,0,0.15,0,0.22
			c0,0.03-0.01,0.06-0.01,0.09c-0.01,0.08,0-0.01,0-0.02c0,0.02-0.01,0.03-0.01,0.05c-0.02,0.07-0.03,0.14-0.06,0.21
			c-0.01,0.04-0.03,0.07-0.04,0.11c-0.03,0.08,0.04-0.08,0,0c-0.03,0.07-0.06,0.13-0.1,0.2c-0.03,0.06-0.08,0.12-0.11,0.17
			c-0.03,0.05,0.03-0.04,0.03-0.04c-0.01,0.01-0.03,0.04-0.04,0.05c-0.02,0.03-0.05,0.06-0.07,0.08c-0.05,0.05-0.1,0.09-0.15,0.14
			c-0.07,0.06,0.1-0.07,0,0c-0.03,0.02-0.06,0.04-0.09,0.06c-0.03,0.02-0.07,0.04-0.1,0.06c-0.01,0.01-0.04,0.01-0.05,0.02
			c0,0,0.11-0.04,0.05-0.02c-0.09,0.03-0.17,0.06-0.26,0.07c-0.02,0-0.1,0.02-0.02,0.01c0.08-0.01,0.01,0,0,0
			c-0.04,0-0.08,0.01-0.11,0.01c-0.04,0-0.09,0-0.13-0.01c-0.06,0,0.05,0,0.05,0.01c-0.01-0.01-0.06-0.01-0.07-0.01
			c-0.04-0.01-0.08-0.02-0.13-0.04c-0.06-0.02,0.05,0.02,0.05,0.02c0,0-0.07-0.03-0.07-0.03c-0.03-0.02-0.07-0.04-0.1-0.05
			c-0.01-0.01-0.07-0.05,0,0c0.07,0.06-0.01-0.01-0.02-0.02c-0.03-0.03-0.05-0.05-0.08-0.08c-0.09-0.09,0.05,0.09-0.01-0.01
			c-0.02-0.03-0.04-0.06-0.06-0.1c-0.01-0.02-0.02-0.04-0.03-0.06c-0.04-0.07,0.02,0.03,0.02,0.04c0-0.03-0.03-0.09-0.04-0.12
			c-0.01-0.04-0.02-0.08-0.03-0.11c-0.01-0.04-0.02-0.09-0.02-0.13c-0.01-0.06,0.01,0.05,0.01,0.05c0-0.02,0-0.05-0.01-0.07
			c-0.01-0.18,0-0.37,0.02-0.55c0-0.04,0.01-0.08,0.02-0.13c0-0.03,0.03-0.08,0,0.02c0.01-0.02,0.01-0.05,0.01-0.07
			c0.02-0.09,0.03-0.18,0.05-0.28c0.05-0.26-0.07-0.56-0.36-0.62C173.22,73.35,172.91,73.5,172.84,73.78L172.84,73.78z"/>
	</g>
</g>
<g>
	<g>
		<path class="st1" d="M178.53,72.01c-0.3,0.27-0.58,0.54-0.86,0.82c-0.18,0.18-0.25,0.5-0.1,0.73c0.25,0.39,0.58,0.71,0.89,1.05
			c0.22,0.24,0.47,0.56,0.48,0.84c0.01,0.14-0.02,0.27-0.09,0.38c-0.07,0.11-0.05,0.1-0.13,0.19c-0.03,0.03-0.07,0.07-0.1,0.1
			c-0.01,0.01-0.1,0.08-0.04,0.04c-0.27,0.2-0.53,0.28-0.89,0.22c-0.45-0.07-0.73,0.49-0.32,0.75c0.98,0.65,2.29-0.29,2.53-1.3
			c0.13-0.55-0.05-1.1-0.36-1.56c-0.16-0.23-0.35-0.44-0.52-0.66c0.04,0.05-0.06-0.09-0.06-0.08c-0.04-0.05-0.07-0.1-0.1-0.15
			c-0.03-0.05-0.06-0.1-0.09-0.16c-0.01-0.02-0.1-0.23-0.06-0.13c-0.1,0.23-0.2,0.45-0.3,0.68c0.38-0.26,0.73-0.54,1.09-0.83
			c0.27-0.22,0.26-0.72,0.01-0.95C179.21,71.74,178.81,71.76,178.53,72.01L178.53,72.01z"/>
	</g>
</g>
<g>
	<g>
		<path class="st1" d="M135.2,9.06c0.05,1.26,0.08,2.51,0.09,3.77c0,0.62,0,1.23,0,1.85c0,0.57-0.15,1.39,0.19,1.88
			c0.23,0.34,0.64,0.29,0.87-0.01c0.35-0.46,0.27-1.26,0.29-1.81c0.03-0.64,0.04-1.28,0.04-1.92c0.01-1.26-0.01-2.52-0.06-3.77
			C136.58,8.14,135.17,8.17,135.2,9.06L135.2,9.06z"/>
	</g>
</g>
<g>
	<g>
		<path class="st1" d="M135.97,8.49c0.38-0.33,0.83-0.62,1.33-0.69c0.39-0.06,0.84,0.03,1.13,0.31c0.27,0.26,0.34,0.65,0.25,1.02
			c-0.11,0.41-0.34,0.66-0.71,0.85c-0.03,0.01-0.06,0.03-0.08,0.04c-0.08,0.04,0.01,0-0.04,0.02c-0.06,0.02-0.12,0.04-0.18,0.06
			c-0.13,0.04-0.26,0.07-0.4,0.09c-0.02,0-0.05,0.01-0.07,0.01c-0.03,0.01-0.03,0,0,0c-0.02,0-0.03,0-0.05,0.01
			c-0.06,0-0.13,0.01-0.19,0.01c-0.14,0-0.29,0-0.43-0.02c-0.22-0.02-0.42,0.19-0.45,0.39c-0.03,0.2,0.1,0.45,0.32,0.48
			c0.64,0.1,1.31,0.06,1.89-0.25c0.54-0.29,0.97-0.79,1.12-1.39c0.14-0.55,0.08-1.19-0.28-1.65c-0.38-0.49-1.02-0.74-1.64-0.69
			c-0.76,0.06-1.41,0.48-1.95,0.99c-0.12,0.11-0.12,0.31,0,0.43C135.67,8.62,135.85,8.6,135.97,8.49L135.97,8.49z"/>
	</g>
</g>
<g>
	<g>
		<path class="st1" d="M140.7,8.63c-0.19,0.76-0.36,1.72,0.14,2.41c0.33,0.45,0.81,0.69,1.37,0.68c0.5-0.01,0.97-0.2,1.35-0.52
			c0.6-0.51,0.86-1.38,0.69-2.15c-0.09-0.37-0.25-0.7-0.52-0.98c-0.25-0.25-0.58-0.41-0.93-0.49c-0.37-0.08-0.79-0.07-1.15,0.06
			c-0.41,0.15-0.81,0.45-0.92,0.89c-0.08,0.34,0.36,0.62,0.61,0.34c0.04-0.05,0.09-0.09,0.13-0.13c0.03-0.03,0.05-0.06,0.08-0.09
			c-0.01,0.01-0.06,0.07-0.01,0.02c0.02-0.02,0.04-0.05,0.07-0.07c0.02-0.02,0.05-0.04,0.07-0.07c0.06-0.05-0.06,0.04,0,0
			c0.06-0.04,0.11-0.07,0.17-0.1c0.03-0.01,0.06-0.03,0.09-0.04c0.04-0.02-0.04,0.02-0.04,0.01c0,0,0.04-0.01,0.04-0.01
			c0.06-0.02,0.13-0.04,0.19-0.06c0.03-0.01,0.07-0.01,0.1-0.02c-0.07,0.01-0.03,0,0.01,0c0.07-0.01,0.14-0.01,0.2-0.01
			c0.03,0,0.07,0.01,0.1,0.01c0.04,0-0.02,0-0.03,0c0.02,0,0.04,0.01,0.06,0.01c0.07,0.01,0.13,0.03,0.2,0.05
			c0.03,0.01,0.08,0.03,0.02,0.01c0.03,0.01,0.06,0.03,0.09,0.04c0.06,0.03,0.12,0.07,0.17,0.1c0.04,0.02-0.02-0.01-0.02-0.02
			c0.01,0.01,0.02,0.02,0.03,0.03c0.03,0.02,0.05,0.04,0.08,0.07c0.02,0.02,0.04,0.04,0.06,0.06c0,0-0.04-0.06-0.02-0.02
			c0.01,0.02,0.03,0.04,0.04,0.06c0.04,0.06,0.07,0.12,0.1,0.18c0.01,0.01,0.01,0.03,0.02,0.04c0-0.01-0.02-0.07-0.01-0.02
			c0.01,0.04,0.03,0.08,0.04,0.12c0.01,0.03,0.01,0.06,0.02,0.09c0.02,0.1,0-0.03,0.01,0.04c0,0.07,0,0.15,0,0.22
			c0,0.03-0.01,0.06-0.01,0.09c-0.01,0.08,0-0.01,0-0.02c0,0.02-0.01,0.03-0.01,0.05c-0.02,0.07-0.03,0.14-0.06,0.21
			c-0.01,0.04-0.03,0.07-0.04,0.11c-0.03,0.08,0.04-0.08,0,0c-0.03,0.07-0.06,0.13-0.1,0.2c-0.03,0.06-0.08,0.12-0.11,0.17
			c-0.03,0.05,0.03-0.04,0.03-0.04c-0.01,0.01-0.03,0.04-0.04,0.05c-0.02,0.03-0.05,0.06-0.07,0.08c-0.05,0.05-0.1,0.09-0.15,0.14
			c-0.07,0.06,0.1-0.07,0,0c-0.03,0.02-0.06,0.04-0.09,0.06c-0.03,0.02-0.07,0.04-0.1,0.06c-0.01,0.01-0.04,0.01-0.05,0.02
			c0,0,0.11-0.04,0.05-0.02c-0.09,0.03-0.17,0.06-0.26,0.07c-0.02,0-0.1,0.02-0.02,0.01c0.08-0.01,0.01,0,0,0
			c-0.04,0-0.08,0.01-0.11,0.01c-0.04,0-0.09,0-0.13-0.01c-0.06,0,0.05,0,0.05,0.01c-0.01-0.01-0.06-0.01-0.07-0.01
			c-0.04-0.01-0.08-0.02-0.13-0.04c-0.06-0.02,0.05,0.02,0.05,0.02c0,0-0.07-0.03-0.07-0.03c-0.03-0.02-0.07-0.04-0.1-0.05
			c-0.01-0.01-0.07-0.05,0,0c0.07,0.06-0.01-0.01-0.02-0.02c-0.03-0.03-0.05-0.05-0.08-0.08c-0.09-0.09,0.05,0.09-0.01-0.01
			c-0.02-0.03-0.04-0.06-0.06-0.1c-0.01-0.02-0.02-0.04-0.03-0.06c-0.04-0.07,0.02,0.03,0.02,0.04c0-0.03-0.03-0.09-0.04-0.12
			c-0.01-0.04-0.02-0.08-0.03-0.11c-0.01-0.04-0.02-0.09-0.02-0.13c-0.01-0.06,0.01,0.05,0.01,0.05c0-0.02,0-0.05-0.01-0.07
			c-0.01-0.18,0-0.37,0.02-0.55c0-0.04,0.01-0.08,0.02-0.13c0-0.03,0.03-0.08,0,0.02c0.01-0.02,0.01-0.05,0.01-0.07
			c0.02-0.09,0.03-0.18,0.05-0.28c0.05-0.26-0.07-0.56-0.36-0.62C141.07,8.21,140.77,8.36,140.7,8.63L140.7,8.63z"/>
	</g>
</g>
<g>
	<g>
		<path class="st1" d="M146.38,6.87c-0.3,0.27-0.58,0.54-0.86,0.82c-0.18,0.18-0.25,0.5-0.1,0.73c0.25,0.39,0.58,0.71,0.89,1.05
			c0.22,0.24,0.47,0.56,0.48,0.84c0.01,0.14-0.02,0.27-0.09,0.38c-0.07,0.11-0.05,0.1-0.13,0.19c-0.03,0.03-0.07,0.07-0.1,0.1
			c-0.01,0.01-0.1,0.08-0.04,0.04c-0.27,0.2-0.53,0.28-0.89,0.22c-0.45-0.07-0.73,0.49-0.32,0.75c0.98,0.65,2.29-0.29,2.53-1.3
			c0.13-0.55-0.05-1.1-0.36-1.56c-0.16-0.23-0.35-0.44-0.52-0.66c0.04,0.05-0.06-0.09-0.06-0.08c-0.04-0.05-0.07-0.1-0.1-0.15
			c-0.03-0.05-0.06-0.1-0.09-0.16c-0.01-0.02-0.1-0.23-0.06-0.13c-0.1,0.23-0.2,0.45-0.3,0.68c0.38-0.26,0.73-0.54,1.09-0.83
			c0.27-0.22,0.26-0.72,0.01-0.95C147.06,6.59,146.66,6.62,146.38,6.87L146.38,6.87z"/>
	</g>
</g>
<g>
	<g>
		<path class="st1" d="M113.68,9.97c-0.06,0.44,0.1,0.84,0.38,1.18c0.32,0.39,1.08-0.05,0.9-0.52c-0.24-0.63-0.29-1.25-0.09-1.89
			c0.09-0.29,0.22-0.56,0.39-0.82c0.08-0.12,0.32-0.5,0.47-0.48c0.08,0.01,0.21,0.26,0.24,0.32c0.1,0.15,0.19,0.31,0.28,0.47
			c0.15,0.28,0.28,0.58,0.37,0.88c0.21,0.68,0.3,1.39,0.29,2.09c-0.01,0.44,0.68,0.52,0.78,0.09c0.31-1.37-0.02-2.87-0.86-3.99
			c-0.22-0.29-0.46-0.62-0.83-0.72c-0.4-0.11-0.78,0.09-1.06,0.36c-0.47,0.46-0.81,1.08-0.98,1.71c-0.2,0.72-0.24,1.54-0.04,2.27
			c0.33-0.14,0.66-0.27,0.99-0.41c-0.13-0.18-0.16-0.32-0.13-0.54c0.04-0.29-0.27-0.53-0.53-0.53
			C113.92,9.43,113.72,9.68,113.68,9.97L113.68,9.97z"/>
	</g>
</g>
<g>
	<g>
		<path class="st1" d="M119.51,9.96c0.82,0.31,1.89,0.05,2.35-0.73c0.39-0.67,0.13-1.66-0.58-2.01c-0.9-0.45-1.77,0.33-2.06,1.15
			c-0.31,0.89-0.06,1.93,0.58,2.6c0.4,0.42,0.95,0.65,1.52,0.71c0.27,0.03,0.54,0.01,0.8-0.06c0.3-0.08,0.54-0.22,0.78-0.41
			c0.16-0.13,0.18-0.41,0.08-0.58c-0.11-0.18-0.34-0.27-0.54-0.22c-0.05,0.01-0.1,0.02-0.14,0.03c-0.02,0-0.1,0.02-0.01,0
			c-0.11,0.02-0.23,0.04-0.34,0.06c0.11-0.02-0.06,0-0.1,0c-0.1,0-0.2,0-0.3,0c-0.02,0-0.11-0.01,0,0
			c-0.04-0.01-0.08-0.01-0.12-0.02c-0.07-0.01-0.15-0.03-0.22-0.05c-0.08-0.02-0.16-0.05-0.24-0.07c0.02,0.01,0.1,0.05,0,0
			c-0.05-0.02-0.09-0.04-0.14-0.07c-0.07-0.04-0.14-0.08-0.21-0.13c0.09,0.06-0.07-0.06-0.1-0.09c-0.05-0.05-0.1-0.11-0.15-0.16
			c0.07,0.08,0,0-0.02-0.02c-0.03-0.05-0.06-0.1-0.09-0.15c-0.13-0.22-0.21-0.49-0.23-0.74c-0.01-0.3,0.03-0.56,0.18-0.82
			c0.13-0.22,0.33-0.43,0.6-0.41c0.06,0,0.15,0.04,0.18,0.06c0.11,0.08,0.15,0.15,0.21,0.28c0.03,0.07-0.02-0.08,0.02,0.04
			c0.01,0.03,0.02,0.05,0.02,0.08c0.02,0.07,0.02,0.11,0.02,0.14c0,0.14,0,0.19-0.06,0.33c0.03-0.07-0.08,0.12-0.04,0.06
			c-0.03,0.04-0.06,0.07-0.09,0.1c-0.01,0.01-0.11,0.09-0.04,0.04c-0.06,0.04-0.12,0.08-0.19,0.11c-0.12,0.06,0.05-0.01-0.03,0.01
			c-0.05,0.02-0.1,0.03-0.15,0.04c-0.03,0.01-0.06,0.01-0.09,0.02c0.09-0.02-0.05,0-0.06,0c-0.08,0.01-0.17,0-0.25,0
			c-0.02,0-0.12-0.01-0.03,0c-0.05-0.01-0.09-0.01-0.14-0.02c-0.03-0.01-0.06-0.01-0.09-0.02c-0.02-0.01-0.19-0.07-0.09-0.03
			c-0.28-0.12-0.61-0.04-0.74,0.26C119.05,9.59,119.22,9.85,119.51,9.96L119.51,9.96z"/>
	</g>
</g>
<g>
	<g>
		<path class="st1" d="M126.07,8c-0.11-0.4-0.48-0.67-0.9-0.66c-0.46,0-0.81,0.3-1.07,0.65c-0.28,0.38-0.48,0.83-0.59,1.28
			c-0.12,0.44-0.21,0.98,0.01,1.41c0.49,0.95,1.69,0.49,2.41,0.13c0.77-0.39,1.55-1.26,1.21-2.18c-0.17-0.47-0.83-0.38-0.88,0.12
			c-0.13,1.31,0.51,2.42,0.83,3.65c0.12,0.48,0.2,1.11-0.39,1.27c-0.55,0.15-1.17-0.13-1.69-0.28c-0.51-0.14-0.81,0.57-0.36,0.85
			c0.65,0.4,1.4,0.68,2.18,0.48c0.71-0.18,1.22-0.75,1.29-1.48c0.07-0.75-0.26-1.5-0.52-2.17c-0.26-0.68-0.61-1.46-0.46-2.2
			c-0.29,0-0.57,0.01-0.86,0.01c0.06,0.46-0.32,0.77-0.69,0.94c-0.18,0.08-0.37,0.14-0.55,0.2c-0.12,0.04-0.4,0.18-0.53,0.11
			c0.04,0.02,0.03,0.01,0.01-0.03c-0.03-0.09-0.01-0.19,0-0.28c0.02-0.24,0.07-0.47,0.15-0.7c0.07-0.23,0.18-0.48,0.32-0.67
			c0.05-0.07,0.1-0.1,0.16-0.16c0.06-0.05,0.09,0.08,0.05-0.03C125.39,8.76,126.22,8.55,126.07,8L126.07,8z"/>
	</g>
</g>
<g>
	<g>
		<path class="st1" d="M164.1,69.17c-1.14,2.65-1.07,6.13,0.74,8.48c0.37,0.47,1.06,0.08,0.83-0.48c-1.04-2.47-1.32-5.16-0.25-7.67
			c0.15-0.34-0.15-0.74-0.47-0.82C164.55,68.58,164.25,68.83,164.1,69.17L164.1,69.17z"/>
	</g>
</g>
<g>
	<g>
		<path class="st1" d="M183.32,76.66c0.01,0.03,0.03,0.06,0.04,0.08c0.03,0.06-0.01-0.03,0.01,0.01c0.02,0.05,0.04,0.11,0.05,0.16
			c0.01,0.05,0.02,0.1,0.03,0.15c0,0.01,0.01,0.09,0.01,0.04c0-0.05,0,0.04,0,0.05c0.01,0.11,0,0.23-0.01,0.34
			c0.01-0.05,0-0.02,0,0.01c-0.01,0.03-0.01,0.05-0.02,0.08c-0.01,0.06-0.03,0.11-0.05,0.17c-0.01,0.02-0.02,0.05-0.03,0.07
			c0,0.01-0.04,0.09-0.02,0.04c0.02-0.04-0.02,0.03-0.02,0.04c-0.01,0.03-0.03,0.06-0.04,0.08c-0.02,0.05-0.05,0.09-0.08,0.13
			c-0.02,0.03-0.04,0.05-0.05,0.08c0.03-0.04,0.01-0.02-0.01,0.01c-0.07,0.08-0.15,0.16-0.23,0.23c-0.04,0.03-0.08,0.07-0.12,0.1
			c-0.01,0.01-0.09,0.07-0.02,0.02c-0.03,0.02-0.05,0.04-0.08,0.05c-0.13,0.09-0.21,0.25-0.14,0.4c0.06,0.14,0.23,0.24,0.38,0.19
			c0.29-0.1,0.53-0.25,0.73-0.49c0.19-0.23,0.34-0.49,0.44-0.77c0.18-0.54,0.15-1.15-0.12-1.66c-0.09-0.17-0.35-0.23-0.51-0.13
			C183.29,76.27,183.23,76.48,183.32,76.66L183.32,76.66z"/>
	</g>
</g>
<g>
	<g>
		<path class="st1" d="M202.15,70.82c0.98,1.23,2.12,2.63,2.27,4.27c0.13,1.33-0.45,2.52-1.61,3.18c-0.38,0.22-0.14,0.76,0.27,0.68
			c1.62-0.31,2.39-2.23,2.35-3.71c-0.05-1.99-1.39-3.65-2.58-5.12C202.46,69.63,201.76,70.33,202.15,70.82L202.15,70.82z"/>
	</g>
</g>
<g>
	<g>
		<path class="st1" d="M185.91,75.83c-0.06,0.44,0.1,0.84,0.38,1.18c0.32,0.39,1.08-0.05,0.9-0.52c-0.24-0.63-0.29-1.25-0.09-1.89
			c0.09-0.29,0.22-0.56,0.39-0.82c0.08-0.12,0.32-0.5,0.47-0.48c0.08,0.01,0.21,0.26,0.24,0.32c0.1,0.15,0.19,0.31,0.28,0.47
			c0.15,0.28,0.28,0.58,0.37,0.88c0.21,0.68,0.3,1.39,0.29,2.09c-0.01,0.44,0.68,0.52,0.78,0.09c0.31-1.37-0.02-2.87-0.86-3.99
			c-0.22-0.29-0.46-0.62-0.83-0.72c-0.4-0.11-0.78,0.09-1.06,0.36c-0.47,0.46-0.81,1.08-0.98,1.71c-0.2,0.72-0.24,1.54-0.04,2.27
			c0.33-0.14,0.66-0.27,0.99-0.41c-0.13-0.18-0.16-0.32-0.13-0.54c0.04-0.29-0.27-0.53-0.53-0.53
			C186.15,75.29,185.95,75.54,185.91,75.83L185.91,75.83z"/>
	</g>
</g>
<g>
	<g>
		<path class="st1" d="M191.74,75.83c0.82,0.31,1.89,0.05,2.35-0.73c0.39-0.67,0.13-1.66-0.58-2.01c-0.9-0.45-1.77,0.33-2.06,1.15
			c-0.31,0.89-0.06,1.93,0.58,2.6c0.4,0.42,0.95,0.65,1.52,0.71c0.27,0.03,0.54,0.01,0.8-0.06c0.3-0.08,0.54-0.22,0.78-0.41
			c0.16-0.13,0.18-0.41,0.08-0.58c-0.11-0.18-0.34-0.27-0.54-0.22c-0.05,0.01-0.1,0.02-0.14,0.03c-0.02,0-0.1,0.02-0.01,0
			c-0.11,0.02-0.23,0.04-0.34,0.06c0.11-0.02-0.06,0-0.1,0c-0.1,0-0.2,0-0.3,0c-0.02,0-0.11-0.01,0,0
			c-0.04-0.01-0.08-0.01-0.12-0.02c-0.07-0.01-0.15-0.03-0.22-0.05c-0.08-0.02-0.16-0.05-0.24-0.07c0.02,0.01,0.1,0.05,0,0
			c-0.05-0.02-0.09-0.04-0.14-0.07c-0.07-0.04-0.14-0.08-0.21-0.13c0.09,0.06-0.07-0.06-0.1-0.09c-0.05-0.05-0.1-0.11-0.15-0.16
			c0.07,0.08,0,0-0.02-0.02c-0.03-0.05-0.06-0.1-0.09-0.15c-0.13-0.22-0.21-0.49-0.23-0.74c-0.01-0.3,0.03-0.56,0.18-0.82
			c0.13-0.22,0.33-0.43,0.6-0.41c0.06,0,0.15,0.04,0.18,0.06c0.11,0.08,0.15,0.15,0.21,0.28c0.03,0.07-0.02-0.08,0.02,0.04
			c0.01,0.03,0.02,0.05,0.02,0.08c0.02,0.07,0.02,0.11,0.02,0.14c0,0.14,0,0.19-0.06,0.33c0.03-0.07-0.08,0.12-0.04,0.06
			c-0.03,0.04-0.06,0.07-0.09,0.1c-0.01,0.01-0.11,0.09-0.04,0.04c-0.06,0.04-0.12,0.08-0.19,0.11c-0.12,0.06,0.05-0.01-0.03,0.01
			c-0.05,0.02-0.1,0.03-0.15,0.04c-0.03,0.01-0.06,0.01-0.09,0.02c0.09-0.02-0.05,0-0.06,0c-0.08,0.01-0.17,0-0.25,0
			c-0.02,0-0.12-0.01-0.03,0c-0.05-0.01-0.09-0.01-0.14-0.02c-0.03-0.01-0.06-0.01-0.09-0.02c-0.02-0.01-0.19-0.07-0.09-0.03
			c-0.28-0.12-0.61-0.04-0.74,0.26C191.28,75.45,191.45,75.72,191.74,75.83L191.74,75.83z"/>
	</g>
</g>
<g>
	<g>
		<path class="st1" d="M198.3,73.86c-0.11-0.4-0.48-0.67-0.9-0.66c-0.46,0-0.81,0.3-1.07,0.65c-0.28,0.38-0.48,0.83-0.59,1.28
			c-0.12,0.44-0.21,0.98,0.01,1.41c0.49,0.95,1.69,0.49,2.41,0.13c0.77-0.39,1.55-1.26,1.21-2.18c-0.17-0.47-0.83-0.38-0.88,0.12
			c-0.13,1.31,0.51,2.42,0.83,3.65c0.12,0.48,0.2,1.11-0.39,1.27c-0.55,0.15-1.17-0.13-1.69-0.28c-0.51-0.14-0.81,0.57-0.36,0.85
			c0.65,0.4,1.4,0.68,2.18,0.48c0.71-0.18,1.22-0.75,1.29-1.48c0.07-0.75-0.26-1.5-0.52-2.17c-0.26-0.68-0.61-1.46-0.46-2.2
			c-0.29,0-0.57,0.01-0.86,0.01c0.06,0.46-0.32,0.77-0.69,0.94c-0.18,0.08-0.37,0.14-0.55,0.2c-0.12,0.04-0.4,0.18-0.53,0.11
			c0.04,0.02,0.03,0.01,0.01-0.03c-0.03-0.09-0.01-0.19,0-0.28c0.02-0.24,0.07-0.47,0.15-0.7c0.07-0.23,0.18-0.48,0.32-0.67
			c0.05-0.07,0.1-0.1,0.16-0.16c0.06-0.05,0.09,0.08,0.05-0.03C197.62,74.62,198.45,74.41,198.3,73.86L198.3,73.86z"/>
	</g>
</g>
</svg>
