<?xml version="1.0" encoding="utf-8"?>
<!-- Generator: Adobe Illustrator 26.0.2, SVG Export Plug-In . SVG Version: 6.00 Build 0)  -->
<svg version="1.1" id="Layer_1" xmlns="http://www.w3.org/2000/svg" xmlns:xlink="http://www.w3.org/1999/xlink" x="0px" y="0px"
	 viewBox="0 0 182.44 83.82" style="enable-background:new 0 0 182.44 83.82;" xml:space="preserve">
<style type="text/css">
	.st0{fill:none;stroke:#486AFB;stroke-miterlimit:10;}
	.st1{fill:#486AFB;}
	.st2{fill:#FD46FC;}
</style>
<circle class="st0" cx="11.5" cy="60.22" r="11"/>
<g>
	<g>
		<line class="st0" x1="30.78" y1="22.37" x2="16.83" y2="45.77"/>
		<g>
			<path class="st1" d="M15.28,48.37c0.27-1.49,0.4-3.46,0.15-4.89l1.6,1.96l2.48,0.48C18.13,46.36,16.46,47.42,15.28,48.37z"/>
		</g>
	</g>
</g>
<path class="st2" d="M12.69,58.9c0-0.54-0.26-0.7-0.44-0.7c-0.25,0-0.49,0.26-0.49,0.48c0,0.13,0.05,0.19,0.16,0.3
	c0.21,0.2,0.34,0.46,0.34,0.81c0,0.42-0.61,2.69-1.77,2.69c-0.51,0-0.73-0.35-0.73-0.86c0-0.56,0.27-1.28,0.58-2.11
	c0.07-0.17,0.12-0.31,0.12-0.5c0-0.45-0.32-0.81-0.81-0.81c-0.93,0-1.31,1.44-1.31,1.53c0,0.1,0.1,0.1,0.12,0.1
	c0.1,0,0.11-0.02,0.16-0.18c0.29-1,0.72-1.23,1-1.23c0.08,0,0.25,0,0.25,0.32c0,0.25-0.1,0.52-0.17,0.7
	c-0.44,1.15-0.57,1.61-0.57,2.04c0,1.07,0.87,1.23,1.33,1.23C12.12,62.7,12.69,59.41,12.69,58.9"/>
<path class="st2" d="M15.19,59.62c0-0.19-0.01-0.2-0.21-0.2c-0.45,0.44-1.09,0.45-1.38,0.45v0.25c0.17,0,0.63,0,1.02-0.2v3.59
	c0,0.23,0,0.32-0.7,0.32h-0.27v0.25c0.13-0.01,0.99-0.03,1.25-0.03c0.22,0,1.1,0.02,1.26,0.03v-0.25H15.9c-0.7,0-0.7-0.09-0.7-0.32
	V59.62"/>
<path class="st2" d="M41.02,10.31c0-0.54-0.26-0.7-0.44-0.7c-0.25,0-0.49,0.26-0.49,0.48c0,0.13,0.05,0.19,0.16,0.3
	c0.21,0.2,0.34,0.46,0.34,0.81c0,0.42-0.61,2.69-1.77,2.69c-0.51,0-0.73-0.35-0.73-0.86c0-0.56,0.27-1.28,0.58-2.11
	c0.07-0.17,0.12-0.31,0.12-0.5c0-0.45-0.32-0.81-0.81-0.81c-0.93,0-1.31,1.44-1.31,1.53c0,0.1,0.1,0.1,0.12,0.1
	c0.1,0,0.11-0.02,0.16-0.18c0.29-1,0.72-1.23,1-1.23c0.08,0,0.25,0,0.25,0.32c0,0.25-0.1,0.52-0.17,0.7
	c-0.44,1.15-0.57,1.61-0.57,2.04c0,1.07,0.87,1.23,1.33,1.23C40.46,14.12,41.02,10.83,41.02,10.31"/>
<path class="st2" d="M44.72,14.23h-0.24c-0.02,0.15-0.09,0.57-0.18,0.64c-0.06,0.04-0.6,0.04-0.7,0.04h-1.29
	c0.74-0.65,0.98-0.85,1.41-1.18c0.52-0.42,1-0.85,1-1.52c0-0.85-0.75-1.37-1.65-1.37c-0.87,0-1.46,0.61-1.46,1.26
	c0,0.36,0.3,0.39,0.37,0.39c0.17,0,0.37-0.12,0.37-0.37c0-0.13-0.05-0.37-0.41-0.37c0.22-0.5,0.7-0.65,1.03-0.65
	c0.7,0,1.07,0.55,1.07,1.12c0,0.61-0.44,1.1-0.66,1.35l-1.7,1.67c-0.07,0.06-0.07,0.08-0.07,0.27h2.9L44.72,14.23"/>
<path class="st2" d="M69.71,58.02c0-0.54-0.26-0.7-0.44-0.7c-0.25,0-0.49,0.26-0.49,0.48c0,0.13,0.05,0.19,0.16,0.3
	c0.21,0.2,0.34,0.46,0.34,0.81c0,0.42-0.61,2.69-1.77,2.69c-0.51,0-0.73-0.35-0.73-0.86c0-0.56,0.27-1.28,0.58-2.11
	c0.07-0.17,0.12-0.31,0.12-0.5c0-0.45-0.32-0.81-0.81-0.81c-0.93,0-1.31,1.44-1.31,1.53c0,0.1,0.1,0.1,0.12,0.1
	c0.1,0,0.11-0.02,0.16-0.18c0.29-1,0.72-1.23,1-1.23c0.08,0,0.25,0,0.25,0.32c0,0.25-0.1,0.52-0.17,0.7
	c-0.44,1.15-0.57,1.61-0.57,2.04c0,1.07,0.87,1.23,1.33,1.23C69.14,61.82,69.71,58.54,69.71,58.02"/>
<path class="st2" d="M71.78,60.87c0.55,0,0.94,0.38,0.94,1.13c0,0.87-0.51,1.13-0.91,1.13c-0.28,0-0.9-0.08-1.2-0.49
	c0.33-0.01,0.41-0.25,0.41-0.39c0-0.22-0.17-0.39-0.39-0.39c-0.2,0-0.39,0.12-0.39,0.41c0,0.66,0.73,1.09,1.58,1.09
	c0.98,0,1.65-0.65,1.65-1.36c0-0.55-0.45-1.1-1.22-1.26c0.74-0.27,1-0.79,1-1.22c0-0.55-0.64-0.97-1.42-0.97
	c-0.78,0-1.38,0.38-1.38,0.94c0,0.24,0.15,0.37,0.37,0.37c0.22,0,0.36-0.16,0.36-0.36c0-0.2-0.14-0.35-0.36-0.37
	c0.25-0.31,0.73-0.39,0.99-0.39c0.32,0,0.76,0.15,0.76,0.77c0,0.3-0.1,0.62-0.28,0.84c-0.23,0.27-0.43,0.28-0.78,0.3
	c-0.17,0.01-0.19,0.01-0.22,0.02c-0.01,0-0.07,0.01-0.07,0.09c0,0.1,0.06,0.1,0.18,0.1H71.78"/>
<path class="st2" d="M105.57,10.69c0-0.54-0.26-0.7-0.44-0.7c-0.25,0-0.49,0.26-0.49,0.48c0,0.13,0.05,0.19,0.16,0.3
	c0.21,0.2,0.34,0.46,0.34,0.81c0,0.42-0.61,2.69-1.77,2.69c-0.51,0-0.73-0.35-0.73-0.86c0-0.56,0.27-1.28,0.58-2.11
	c0.07-0.17,0.12-0.31,0.12-0.5c0-0.45-0.32-0.81-0.81-0.81c-0.93,0-1.31,1.44-1.31,1.53c0,0.1,0.1,0.1,0.12,0.1
	c0.1,0,0.11-0.02,0.16-0.18c0.29-1,0.72-1.23,1-1.23c0.08,0,0.25,0,0.25,0.32c0,0.25-0.1,0.52-0.17,0.7
	c-0.44,1.15-0.57,1.61-0.57,2.04c0,1.07,0.87,1.23,1.33,1.23C105,14.5,105.57,11.21,105.57,10.69"/>
<path class="st2" d="M108.11,11.91v2.57h-1.86L108.11,11.91z M109.44,14.74v-0.25h-0.78v-3.13c0-0.15,0-0.2-0.15-0.2
	c-0.08,0-0.11,0-0.18,0.1l-2.33,3.23v0.25h2.07v0.58c0,0.24,0,0.32-0.57,0.32h-0.19v0.25c0.35-0.01,0.8-0.03,1.05-0.03
	c0.26,0,0.71,0.01,1.06,0.03v-0.25h-0.19c-0.57,0-0.57-0.08-0.57-0.32v-0.58H109.44z"/>
<circle class="st0" cx="69.28" cy="60.37" r="11"/>
<circle class="st0" cx="40.57" cy="11.72" r="11"/>
<g>
	<g>
		<line class="st0" x1="51.32" y1="22.72" x2="63.79" y2="44.74"/>
		<g>
			<path class="st1" d="M65.28,47.37c-1.16-0.98-2.81-2.07-4.17-2.55l2.49-0.42l1.65-1.92C64.95,43.89,65.04,45.87,65.28,47.37z"/>
		</g>
	</g>
</g>
<circle class="st0" cx="105.37" cy="11.5" r="11"/>
<g>
	<g>
		<line class="st0" x1="57.12" y1="12.5" x2="88.26" y2="12.5"/>
		<g>
			<path class="st1" d="M91.28,12.5c-1.42,0.53-3.18,1.43-4.27,2.38l0.86-2.38l-0.86-2.38C88.1,11.07,89.86,11.97,91.28,12.5z"/>
		</g>
	</g>
</g>
<g>
	<g>
		<path class="st0" d="M19.46,71.22c89.79,29.23,91.19-28.89,90.27-43.04"/>
		<g>
			<path class="st1" d="M109.44,25.18c0.66,1.37,1.71,3.04,2.76,4.04l-2.45-0.64l-2.29,1.08C108.31,28.48,109.04,26.64,109.44,25.18
				z"/>
		</g>
	</g>
</g>
<path class="st2" d="M13.69,30.62c0.39-1.51,1.41-1.66,1.67-1.66c0.47,0,0.74,0.29,0.74,0.62c0,1.03-1.59,1.03-2,1.03H13.69
	 M14.16,30.83c0.29,0,1.02-0.02,1.52-0.23c0.7-0.3,0.74-0.88,0.74-1.02c0-0.44-0.38-0.84-1.06-0.84c-1.1,0-2.6,0.96-2.6,2.7
	c0,1.01,0.59,1.8,1.56,1.8c1.42,0,2.25-1.05,2.25-1.17c0-0.06-0.06-0.13-0.12-0.13c-0.05,0-0.07,0.02-0.13,0.1
	c-0.78,0.98-1.87,0.98-1.99,0.98c-0.78,0-0.86-0.83-0.86-1.15c0-0.12,0.01-0.43,0.16-1.03H14.16z"/>
<path class="st2" d="M19.36,30.16c0-0.19-0.01-0.2-0.21-0.2c-0.45,0.44-1.09,0.45-1.38,0.45v0.25c0.17,0,0.63,0,1.02-0.2v3.59
	c0,0.23,0,0.32-0.7,0.32h-0.27v0.25c0.13-0.01,0.99-0.03,1.25-0.03c0.22,0,1.1,0.02,1.26,0.03v-0.25h-0.27c-0.7,0-0.7-0.09-0.7-0.32
	V30.16"/>
<path class="st2" d="M60.77,29.44c0.39-1.51,1.41-1.66,1.67-1.66c0.47,0,0.74,0.29,0.74,0.62c0,1.03-1.59,1.03-2,1.03H60.77
	 M61.23,29.66c0.29,0,1.02-0.02,1.52-0.23c0.7-0.3,0.74-0.88,0.74-1.02c0-0.44-0.38-0.84-1.06-0.84c-1.1,0-2.6,0.96-2.6,2.7
	c0,1.01,0.59,1.8,1.56,1.8c1.42,0,2.25-1.05,2.25-1.17c0-0.06-0.06-0.13-0.12-0.13c-0.05,0-0.07,0.02-0.13,0.1
	c-0.78,0.98-1.87,0.98-1.99,0.98c-0.78,0-0.86-0.83-0.86-1.15c0-0.12,0.01-0.43,0.16-1.03H61.23z"/>
<path class="st2" d="M67.62,32.18h-0.24c-0.02,0.15-0.09,0.57-0.18,0.64c-0.06,0.04-0.6,0.04-0.7,0.04h-1.29
	c0.74-0.65,0.98-0.85,1.41-1.18c0.52-0.42,1-0.85,1-1.52c0-0.85-0.75-1.37-1.65-1.37c-0.87,0-1.46,0.61-1.46,1.26
	c0,0.36,0.3,0.39,0.37,0.39c0.17,0,0.37-0.12,0.37-0.37c0-0.13-0.05-0.37-0.41-0.37c0.22-0.5,0.7-0.65,1.03-0.65
	c0.7,0,1.07,0.55,1.07,1.12c0,0.61-0.44,1.1-0.66,1.35l-1.7,1.67c-0.07,0.06-0.07,0.08-0.07,0.27h2.9L67.62,32.18"/>
<path class="st2" d="M70.2,5.89c0.39-1.51,1.41-1.66,1.67-1.66c0.47,0,0.74,0.29,0.74,0.62c0,1.03-1.59,1.03-2,1.03H70.2 M70.66,6.1
	c0.29,0,1.02-0.02,1.52-0.23c0.7-0.3,0.74-0.88,0.74-1.02c0-0.44-0.38-0.84-1.06-0.84c-1.1,0-2.6,0.96-2.6,2.7
	c0,1.01,0.59,1.8,1.56,1.8c1.42,0,2.25-1.05,2.25-1.17c0-0.06-0.06-0.13-0.12-0.13c-0.05,0-0.07,0.02-0.13,0.1
	c-0.78,0.98-1.87,0.98-1.99,0.98c-0.78,0-0.86-0.83-0.86-1.15c0-0.12,0.01-0.43,0.16-1.03H70.66z"/>
<path class="st2" d="M75.42,7.55c0.55,0,0.94,0.38,0.94,1.13c0,0.87-0.51,1.13-0.91,1.13c-0.28,0-0.9-0.08-1.2-0.49
	c0.33-0.01,0.41-0.25,0.41-0.39c0-0.23-0.17-0.39-0.39-0.39c-0.2,0-0.39,0.12-0.39,0.41c0,0.66,0.73,1.09,1.58,1.09
	c0.98,0,1.65-0.65,1.65-1.36c0-0.55-0.45-1.1-1.22-1.26c0.74-0.27,1-0.79,1-1.22c0-0.55-0.64-0.97-1.42-0.97
	c-0.78,0-1.38,0.38-1.38,0.94c0,0.24,0.15,0.37,0.37,0.37c0.22,0,0.36-0.16,0.36-0.36c0-0.2-0.14-0.35-0.36-0.37
	c0.25-0.31,0.73-0.39,0.99-0.39c0.32,0,0.76,0.15,0.76,0.77c0,0.3-0.1,0.62-0.28,0.84c-0.23,0.27-0.43,0.28-0.78,0.3
	c-0.18,0.01-0.19,0.01-0.22,0.02c-0.01,0-0.07,0.01-0.07,0.09c0,0.1,0.06,0.1,0.18,0.1H75.42"/>
<path class="st2" d="M84.27,79.81c0.39-1.51,1.41-1.66,1.67-1.66c0.47,0,0.74,0.29,0.74,0.62c0,1.03-1.59,1.03-2,1.03H84.27
	 M84.73,80.02c0.29,0,1.02-0.02,1.52-0.23c0.7-0.3,0.74-0.88,0.74-1.02c0-0.44-0.38-0.84-1.06-0.84c-1.1,0-2.6,0.96-2.6,2.7
	c0,1.01,0.59,1.8,1.56,1.8c1.42,0,2.25-1.05,2.25-1.17c0-0.06-0.06-0.13-0.12-0.13c-0.05,0-0.07,0.02-0.13,0.1
	c-0.78,0.98-1.87,0.98-1.99,0.98c-0.78,0-0.86-0.83-0.86-1.15c0-0.12,0.01-0.43,0.16-1.03H84.73z"/>
<path class="st2" d="M89.97,79.84v2.57h-1.86L89.97,79.84z M91.29,82.67v-0.25h-0.78v-3.13c0-0.15,0-0.2-0.15-0.2
	c-0.08,0-0.11,0-0.18,0.1l-2.33,3.23v0.25h2.07v0.58c0,0.24,0,0.32-0.57,0.32h-0.19v0.25c0.35-0.01,0.8-0.03,1.05-0.03
	c0.26,0,0.71,0.01,1.06,0.03v-0.25h-0.19c-0.57,0-0.57-0.08-0.57-0.32v-0.58H91.29z"/>
<path class="st2" d="M134.94,5.27c0.39-1.51,1.41-1.66,1.67-1.66c0.47,0,0.74,0.29,0.74,0.62c0,1.03-1.59,1.03-2,1.03H134.94
	 M135.41,5.48c0.29,0,1.02-0.02,1.52-0.23c0.7-0.3,0.74-0.88,0.74-1.02c0-0.44-0.38-0.84-1.06-0.84c-1.1,0-2.6,0.96-2.6,2.7
	c0,1.01,0.59,1.8,1.56,1.8c1.42,0,2.25-1.05,2.25-1.17c0-0.06-0.06-0.13-0.12-0.13c-0.05,0-0.07,0.02-0.13,0.1
	c-0.78,0.98-1.87,0.98-1.99,0.98c-0.78,0-0.86-0.83-0.86-1.15c0-0.12,0.01-0.43,0.16-1.03H135.41z"/>
<path class="st2" d="M139.34,5.36c0.36,0.09,0.57,0.09,0.68,0.09c0.93,0,1.48-0.63,1.48-0.74c0-0.08-0.05-0.1-0.08-0.1
	c-0.01,0-0.03,0-0.06,0.02c-0.17,0.06-0.54,0.2-1.06,0.2c-0.2,0-0.57-0.01-1.03-0.19c-0.07-0.03-0.08-0.03-0.09-0.03
	c-0.09,0-0.09,0.08-0.09,0.19v2.07c0,0.12,0,0.2,0.11,0.2c0.06,0,0.07-0.01,0.14-0.1c0.3-0.39,0.73-0.44,0.98-0.44
	c0.42,0,0.61,0.34,0.65,0.39c0.13,0.23,0.17,0.5,0.17,0.91c0,0.21,0,0.63-0.21,0.93c-0.18,0.25-0.48,0.42-0.82,0.42
	c-0.46,0-0.93-0.25-1.1-0.72c0.27,0.02,0.4-0.15,0.4-0.34c0-0.3-0.26-0.36-0.35-0.36c-0.01,0-0.35,0-0.35,0.38
	c0,0.63,0.58,1.27,1.42,1.27c0.9,0,1.69-0.67,1.69-1.55c0-0.8-0.6-1.53-1.48-1.53c-0.31,0-0.68,0.08-0.98,0.35V5.36"/>
<g>
	<g>
		<line class="st0" x1="120.86" y1="12.79" x2="152" y2="12.79"/>
		<g>
			<path class="st1" d="M155.02,12.79c-1.42,0.53-3.18,1.43-4.27,2.38l0.86-2.38l-0.86-2.38C151.84,11.37,153.6,12.27,155.02,12.79z
				"/>
		</g>
	</g>
</g>
<circle class="st0" cx="170.94" cy="12.74" r="11"/>
<path class="st2" d="M171.03,10.73c0-0.54-0.26-0.7-0.44-0.7c-0.25,0-0.49,0.26-0.49,0.48c0,0.13,0.05,0.19,0.16,0.3
	c0.21,0.2,0.34,0.46,0.34,0.81c0,0.42-0.61,2.69-1.77,2.69c-0.51,0-0.73-0.35-0.73-0.86c0-0.56,0.27-1.28,0.58-2.11
	c0.07-0.17,0.12-0.31,0.12-0.5c0-0.45-0.32-0.81-0.81-0.81c-0.93,0-1.31,1.44-1.31,1.53c0,0.1,0.1,0.1,0.12,0.1
	c0.1,0,0.11-0.02,0.16-0.18c0.29-1,0.72-1.23,1-1.23c0.08,0,0.25,0,0.25,0.32c0,0.25-0.1,0.52-0.17,0.7
	c-0.44,1.15-0.57,1.61-0.57,2.04c0,1.07,0.87,1.23,1.33,1.23C170.46,14.53,171.03,11.24,171.03,10.73"/>
<path class="st2" d="M172.27,12c0.36,0.09,0.57,0.09,0.68,0.09c0.93,0,1.48-0.63,1.48-0.74c0-0.08-0.05-0.1-0.08-0.1
	c-0.01,0-0.03,0-0.06,0.02c-0.17,0.06-0.54,0.2-1.06,0.2c-0.2,0-0.57-0.01-1.03-0.19c-0.07-0.03-0.08-0.03-0.09-0.03
	c-0.09,0-0.09,0.08-0.09,0.19v2.07c0,0.12,0,0.2,0.11,0.2c0.06,0,0.07-0.01,0.14-0.1c0.3-0.39,0.73-0.44,0.98-0.44
	c0.42,0,0.61,0.34,0.65,0.39c0.13,0.23,0.17,0.5,0.17,0.91c0,0.21,0,0.63-0.21,0.93c-0.18,0.25-0.48,0.42-0.82,0.42
	c-0.46,0-0.93-0.25-1.1-0.72c0.27,0.02,0.4-0.15,0.4-0.34c0-0.3-0.26-0.36-0.35-0.36c-0.01,0-0.35,0-0.35,0.38
	c0,0.63,0.58,1.27,1.42,1.27c0.9,0,1.69-0.67,1.69-1.55c0-0.8-0.6-1.53-1.48-1.53c-0.31,0-0.67,0.08-0.98,0.35V12"/>
</svg>
