<?xml version="1.0" encoding="utf-8"?>
<!-- Generator: Adobe Illustrator 26.0.2, SVG Export Plug-In . SVG Version: 6.00 Build 0)  -->
<svg version="1.1" id="Layer_1" xmlns="http://www.w3.org/2000/svg" xmlns:xlink="http://www.w3.org/1999/xlink" x="0px" y="0px"
	 viewBox="0 0 218.53 105.77" style="enable-background:new 0 0 218.53 105.77;" xml:space="preserve">
<style type="text/css">
	.st0{fill:#486AFB;}
	.st1{fill:#FD46FC;}
</style>
<g>
	<g>
		<path class="st0" d="M110.44,85.21c12.79-0.34,25.59-0.52,38.38-0.63c12.79-0.11,25.59-0.09,38.39,0.05
			c3.57,0.04,7.14,0.1,10.72,0.17c3.64,0.07,7.33,0.31,10.97,0.14c0.64-0.03,0.66-0.92,0.02-0.98c-3.22-0.28-6.49-0.19-9.72-0.22
			c-3.16-0.03-6.31-0.05-9.47-0.08c-6.4-0.06-12.8-0.1-19.19-0.11c-12.79-0.02-25.59,0.06-38.38,0.27
			c-7.23,0.11-14.45,0.31-21.68,0.49C109.88,84.32,109.85,85.23,110.44,85.21L110.44,85.21z"/>
	</g>
</g>
<g>
	<g>
		<path class="st1" d="M110.34,78.96c7.93,0.6,15.25-3.72,20.31-9.53c2.77-3.18,5.05-6.74,7.67-10.03c2.39-3,5.07-5.72,8.34-7.76
			c3.36-2.1,7.22-3.41,11.2-3.42c3.95-0.01,7.86,1.18,11.27,3.14c3.35,1.93,6.18,4.53,8.69,7.44c2.73,3.18,5.09,6.65,7.86,9.8
			c5.11,5.81,12.36,10.53,20.38,10.37c1-0.02,1.99-0.15,2.97-0.33c0.66-0.12,0.4-1.07-0.24-0.97c-8.18,1.23-16-2.84-21.49-8.67
			c-2.85-3.03-5.25-6.42-7.89-9.63c-2.44-2.96-5.12-5.67-8.34-7.78c-3.18-2.09-6.75-3.61-10.55-4.08
			c-3.85-0.47-7.71,0.21-11.25,1.77c-3.36,1.48-6.38,3.74-8.92,6.37c-2.87,2.96-5.16,6.42-7.63,9.7c-2.41,3.21-5.08,6.26-8.41,8.54
			c-3.24,2.22-6.99,3.81-10.93,4.14c-1.01,0.09-2.02,0.09-3.03,0.01C109.76,78,109.73,78.91,110.34,78.96L110.34,78.96z"/>
	</g>
</g>
<g>
	<g>
		<path class="st0" d="M8.25,84.53c9.7,0.02,19.41,0.15,29.12,0.26c9.71,0.11,19.41,0.24,29.11,0.37c2.75,0.04,5.5,0.08,8.25,0.12
			c2.74,0.04,5.51,0.18,8.25,0.05c0.65-0.03,0.68-0.95,0.02-1c-2.4-0.18-4.84-0.13-7.25-0.16c-2.46-0.04-4.91-0.06-7.37-0.1
			c-4.83-0.07-9.66-0.14-14.49-0.19c-9.71-0.1-19.41-0.25-29.11-0.34c-5.5-0.06-11-0.07-16.49-0.13C7.55,83.4,7.51,84.53,8.25,84.53
			L8.25,84.53z"/>
	</g>
</g>
<g>
	<g>
		<path class="st1" d="M64.77,84.12c-0.19-0.24-0.42-0.43-0.73-0.49c-0.26-0.05-0.54-0.03-0.79,0.07c-0.53,0.21-1.02,0.67-0.99,1.3
			c0.03,0.63,0.49,1.1,1.09,1.27c0.62,0.18,1.27-0.04,1.64-0.56c0.35-0.48,0.31-1.21-0.01-1.7c-0.16-0.25-0.39-0.47-0.66-0.59
			c-0.17-0.08-0.34-0.13-0.53-0.14c-0.22-0.01-0.43,0.13-0.58,0.28c-0.4,0.42-0.46,1.05-0.24,1.57c0.24,0.58,0.85,1.02,1.49,0.78
			c0.68-0.26,1.13-0.99,0.97-1.72c-0.14-0.65-0.82-1.08-1.46-1.02c-0.34,0.03-0.66,0.16-0.91,0.4c-0.23,0.22-0.35,0.52-0.37,0.83
			c-0.05,0.56,0.27,1.13,0.74,1.43c0.52,0.32,1.24,0.19,1.63-0.27c0.18-0.21,0.32-0.47,0.37-0.75c0.06-0.33,0.04-0.62-0.09-0.93
			c-0.25-0.59-0.93-0.83-1.52-0.69c-0.55,0.13-1.07,0.6-1.18,1.17c-0.13,0.69,0.28,1.33,0.89,1.64c0.3,0.15,0.62,0.23,0.96,0.26
			c0.2,0.01,0.36-0.04,0.51-0.17c0.05-0.04,0.09-0.09,0.13-0.14c0.13-0.16,0.23-0.32,0.3-0.52c0.22-0.6,0.06-1.38-0.45-1.78
			c-0.29-0.23-0.63-0.35-1-0.35c-0.34,0-0.68,0.11-0.95,0.31c-0.25,0.19-0.44,0.44-0.54,0.75c-0.07,0.22,0.06,0.45,0.27,0.54
			c0.22,0.09,0.46-0.01,0.58-0.2c0.01-0.01,0.02-0.03,0.03-0.04c0,0.01-0.07,0.09-0.03,0.04c0.03-0.03,0.05-0.05,0.08-0.08
			c0.02-0.02,0.11-0.09,0.03-0.03c-0.08,0.06,0.01,0,0.04-0.02c0.03-0.02,0.07-0.03,0.1-0.05c0.07-0.04-0.07,0.03-0.07,0.03
			c0,0,0.04-0.01,0.05-0.02c0.07-0.02,0.13-0.05,0.2-0.06c0.03-0.01,0.15-0.02,0.04-0.01c-0.11,0.02,0.01,0,0.04,0
			c0.03,0,0.07,0,0.1,0c0.1,0-0.06,0-0.06-0.01c0,0,0.04,0.01,0.05,0.01c0.03,0.01,0.06,0.01,0.1,0.02c0.02,0,0.03,0.01,0.05,0.01
			c0.07,0.02-0.07-0.02-0.07-0.03c0,0.01,0.17,0.09,0.19,0.11c-0.04-0.03-0.08-0.06-0.13-0.09c0.07,0.05,0.13,0.11,0.18,0.18
			c-0.03-0.04-0.07-0.09-0.1-0.13c0.07,0.09,0.12,0.18,0.16,0.28c-0.02-0.05-0.04-0.1-0.06-0.15c0.04,0.11,0.07,0.23,0.08,0.34
			c-0.01-0.05-0.01-0.1-0.02-0.16c0.01,0.07,0.01,0.14,0,0.21c0,0.02,0,0.03-0.01,0.05c0,0.06,0.03-0.14,0.01-0.08
			c-0.01,0.04-0.02,0.07-0.03,0.11c0,0.01-0.04,0.09-0.03,0.09c-0.01,0,0.07-0.14,0.03-0.07c-0.01,0.01-0.02,0.03-0.02,0.04
			c-0.02,0.03-0.09,0.13-0.02,0.04c0.07-0.09-0.02,0.01-0.04,0.03c0.14-0.06,0.28-0.12,0.42-0.18c-0.05,0-0.11,0-0.16,0
			c-0.03,0-0.05-0.01-0.08-0.01c0.17,0,0.08,0.01,0.03,0c-0.11-0.02-0.22-0.05-0.32-0.08c-0.1-0.03,0.11,0.05,0.04,0.02
			c-0.02-0.01-0.04-0.02-0.06-0.03c-0.05-0.02-0.1-0.05-0.14-0.08c-0.02-0.01-0.04-0.03-0.07-0.04c0.12,0.06,0.08,0.06,0.04,0.03
			c-0.04-0.04-0.09-0.07-0.12-0.12c-0.02-0.02-0.03-0.04-0.05-0.06c0.11,0.11,0.05,0.07,0.03,0.03c-0.02-0.04-0.04-0.07-0.06-0.11
			c-0.05-0.09,0.04,0.13,0.01,0.03c-0.01-0.03-0.02-0.05-0.02-0.08c0-0.01-0.02-0.06-0.02-0.08c-0.01,0.02,0.01,0.14,0.01,0.04
			c0-0.02,0-0.05,0-0.07c0-0.05,0.03-0.09-0.01,0.04c0.01-0.04,0.02-0.08,0.03-0.12c0.02-0.06-0.06,0.12-0.02,0.05
			c0.01-0.02,0.02-0.04,0.03-0.06c0.01-0.02,0.02-0.04,0.04-0.06c0.05-0.07-0.1,0.11-0.01,0.02c0.03-0.03,0.05-0.06,0.08-0.08
			c0.02-0.02,0.04-0.03,0.05-0.05c-0.12,0.11-0.08,0.06-0.04,0.03c0.03-0.02,0.07-0.04,0.1-0.06c0.02-0.01,0.04-0.02,0.06-0.03
			c-0.16,0.08-0.07,0.03-0.02,0.01c0.04-0.01,0.08-0.02,0.12-0.03c0.05-0.01,0.09,0.01-0.06,0.01c0.02,0,0.05,0,0.07,0
			c0.02,0,0.05,0,0.07,0c0.05,0,0.09,0.03-0.05-0.01c0.04,0.01,0.09,0.02,0.13,0.03c0.09,0.03-0.12-0.06-0.04-0.02
			c0.02,0.01,0.04,0.02,0.06,0.03c0.11,0.07-0.09-0.08,0,0c0.05,0.04,0.11,0.16,0.01,0c0.02,0.04,0.05,0.08,0.07,0.12
			c0.02,0.04,0.02,0.1-0.03-0.07c0.01,0.02,0.01,0.04,0.02,0.06c0.01,0.04,0.02,0.08,0.03,0.12c0.02,0.09-0.01-0.13-0.01-0.07
			c0,0.02,0,0.04,0,0.05c0,0.05,0,0.1-0.01,0.15c-0.01,0.09,0.03-0.14,0.01-0.05c0,0.01-0.01,0.03-0.01,0.04
			c-0.01,0.04-0.02,0.08-0.04,0.12c-0.01,0.02-0.02,0.04-0.02,0.06c0.06-0.17,0.04-0.09,0.02-0.05c-0.02,0.04-0.04,0.08-0.06,0.11
			c-0.03,0.04-0.08,0.09,0.04-0.05c-0.01,0.02-0.03,0.03-0.04,0.05c-0.02,0.03-0.05,0.05-0.07,0.07c-0.07,0.06,0.13-0.09,0.05-0.04
			c-0.02,0.01-0.03,0.02-0.05,0.03c-0.06,0.04-0.18,0.06,0.01,0.01c-0.04,0.01-0.08,0.02-0.12,0.03c-0.09,0.02,0.15-0.01,0.05-0.01
			c-0.02,0-0.04,0-0.07,0c-0.01,0-0.03,0-0.04,0c0.15,0,0.11,0.01,0.05,0c-0.02,0-0.04-0.01-0.06-0.02
			c-0.12-0.04,0.1,0.05,0.03,0.01c-0.03-0.02-0.06-0.03-0.09-0.05c-0.04-0.03-0.08-0.08,0.04,0.03c-0.02-0.01-0.03-0.03-0.05-0.04
			c-0.03-0.02-0.05-0.05-0.08-0.08c-0.03-0.03-0.07-0.1,0.03,0.04c-0.02-0.02-0.03-0.05-0.05-0.07c-0.02-0.04-0.05-0.08-0.07-0.12
			c-0.05-0.11,0.04,0.12,0,0c-0.01-0.04-0.03-0.08-0.03-0.13c0-0.02-0.01-0.04-0.01-0.05c-0.01-0.04,0.01,0.15,0.01,0.03
			c0-0.04,0-0.09,0-0.13c0-0.09-0.03,0.13-0.01,0.05c0-0.01,0.01-0.03,0.01-0.04c0.01-0.02,0.01-0.04,0.02-0.06
			c0.02-0.05,0.05-0.07-0.02,0.04c0.01-0.02,0.02-0.04,0.03-0.06c0.03-0.05,0.09-0.09-0.02,0.02c0.03-0.03,0.05-0.06,0.08-0.08
			c0.07-0.07-0.12,0.07-0.03,0.03c0.02-0.01,0.04-0.02,0.06-0.04c0.08-0.04-0.12,0.04-0.05,0.02c0.02-0.01,0.04-0.01,0.06-0.02
			c0.02-0.01,0.05-0.01,0.07-0.02c0.13-0.03-0.1,0-0.02,0c0.04,0,0.08,0,0.12,0c0.05,0,0.1,0.03-0.04-0.01
			c0.02,0.01,0.05,0.01,0.07,0.01c0.06,0.01,0.19,0.08,0.03,0c0.04,0.02,0.09,0.04,0.13,0.06c0.02,0.01,0.04,0.03,0.06,0.04
			c-0.08-0.06-0.1-0.07-0.06-0.04c0.01,0.01,0.02,0.02,0.04,0.03c0.01,0.01,0.02,0.02,0.03,0.03c0.05,0.05,0.07,0.12-0.01-0.02
			c0.01,0.02,0.03,0.04,0.04,0.06c0.03,0.05,0.04,0.14,0-0.02c0.01,0.05,0.02,0.1,0.04,0.14c-0.04-0.13-0.01-0.11-0.01-0.04
			c0,0.03,0,0.07,0,0.1c0,0.1,0.03-0.14,0.01-0.04c-0.01,0.02-0.01,0.05-0.02,0.07c-0.01,0.02-0.02,0.05-0.02,0.07
			c-0.03,0.09,0.07-0.14,0.01-0.02c-0.02,0.05-0.05,0.09-0.08,0.13c0.08-0.14,0.06-0.08,0.03-0.04c-0.02,0.02-0.05,0.05-0.07,0.07
			c-0.04,0.04-0.1,0.05,0.04-0.03c-0.02,0.01-0.04,0.03-0.06,0.04c-0.02,0.01-0.04,0.02-0.07,0.03c-0.08,0.04,0.16-0.05,0.03-0.02
			c-0.02,0.01-0.05,0.01-0.07,0.02c0.11-0.01,0.13-0.02,0.07-0.01c0.03,0,0.07,0.01,0.1,0.01c-0.03-0.02-0.1-0.02-0.14-0.04
			c-0.09-0.03,0.14,0.07,0.06,0.02c-0.02-0.01-0.04-0.02-0.05-0.03c-0.02-0.01-0.03-0.02-0.05-0.03c0.14,0.07,0.09,0.07,0.04,0.02
			c-0.03-0.03-0.07-0.07-0.1-0.1c0.03,0.04,0.06,0.08,0.09,0.12c-0.03-0.04-0.06-0.09-0.09-0.14c-0.01-0.03-0.03-0.06-0.04-0.08
			c-0.03-0.05,0.05,0.13,0.03,0.08c0-0.01-0.01-0.03-0.01-0.04c-0.02-0.05-0.03-0.11-0.04-0.16c-0.01-0.06,0.01,0.13,0.01,0.08
			c0-0.01,0-0.03,0-0.04c0-0.03,0-0.06,0-0.09c0-0.02,0.01-0.06,0.01-0.08c0,0-0.03,0.14-0.01,0.08c0-0.01,0.01-0.03,0.01-0.04
			c0.01-0.03,0.01-0.05,0.02-0.08c0,0,0.01-0.04,0.01-0.04c0.01,0-0.07,0.13-0.03,0.07c0.01-0.02,0.03-0.05,0.04-0.07
			c0.06-0.1-0.09,0.09-0.02,0.02c0.02-0.02,0.04-0.04,0.06-0.06c0.03-0.04-0.11,0.07-0.07,0.05c0.01-0.01,0.03-0.02,0.04-0.03
			c-0.14,0.02-0.27,0.04-0.41,0.06c0.06,0.01,0.12,0.03,0.18,0.05c-0.15-0.04-0.09-0.04-0.04-0.01c0.03,0.01,0.05,0.03,0.08,0.05
			c0.05,0.03,0.09,0.1-0.02-0.02c0.02,0.02,0.04,0.03,0.05,0.05c0.05,0.04,0.09,0.09,0.13,0.14c-0.03-0.04-0.06-0.08-0.09-0.12
			c0.08,0.1,0.14,0.21,0.19,0.33c-0.02-0.05-0.04-0.09-0.06-0.14c0.03,0.09,0.06,0.18,0.07,0.27c0.02,0.09-0.01-0.14-0.01-0.05
			c0,0.02,0,0.05,0,0.07c0,0.02,0,0.05,0,0.07c-0.01,0.12,0.02-0.09,0.01-0.04c-0.01,0.04-0.02,0.09-0.03,0.13
			c-0.03,0.1,0.05-0.1,0.02-0.05c-0.01,0.02-0.02,0.04-0.03,0.06c-0.01,0.02-0.03,0.04-0.04,0.06c-0.03,0.05,0.11-0.12,0.04-0.05
			c-0.03,0.03-0.06,0.07-0.1,0.09c0.04-0.03,0.08-0.06,0.13-0.1c-0.06,0.04-0.12,0.08-0.18,0.1c0.05-0.02,0.1-0.04,0.15-0.06
			c-0.05,0.02-0.11,0.04-0.16,0.05c-0.01,0-0.03,0-0.04,0.01c0,0,0.17-0.02,0.09-0.01c-0.03,0-0.06,0.01-0.1,0.01
			c-0.03,0-0.06,0-0.09,0c-0.03,0-0.14-0.01-0.02,0c0.11,0.01,0.02,0-0.01,0c-0.04-0.01-0.07-0.02-0.1-0.03
			c-0.03-0.01-0.06-0.02-0.08-0.03c0,0,0.14,0.06,0.07,0.03c-0.01-0.01-0.03-0.01-0.04-0.02c-0.05-0.03-0.1-0.06-0.15-0.09
			c0.15,0.1,0.07,0.06,0.03,0.02c-0.02-0.02-0.04-0.04-0.06-0.06c-0.08-0.09,0.06,0.09,0.02,0.03c-0.02-0.03-0.03-0.05-0.05-0.08
			c-0.01-0.01-0.01-0.02-0.02-0.04c-0.03-0.05,0.05,0.13,0.03,0.07c-0.01-0.03-0.02-0.05-0.02-0.08c0-0.01,0-0.03-0.01-0.04
			c-0.01-0.04,0.01,0.08,0.01,0.08c0.01-0.02,0-0.08,0-0.11c0-0.01,0.01-0.03,0-0.04c0,0-0.03,0.14-0.01,0.07
			c0.01-0.03,0.02-0.05,0.02-0.08c0.02-0.07-0.06,0.13-0.02,0.04c0.01-0.03,0.03-0.05,0.05-0.08c0.06-0.1-0.07,0.08-0.02,0.03
			c0.02-0.02,0.04-0.04,0.06-0.06c0.02-0.02,0.04-0.04,0.06-0.06c0.03-0.03,0.08-0.04-0.06,0.05c0.01-0.01,0.03-0.02,0.04-0.03
			c0.02-0.02,0.05-0.03,0.07-0.04c0.01-0.01,0.03-0.01,0.04-0.02c0.05-0.03-0.13,0.05-0.07,0.03c0.06-0.02,0.11-0.04,0.17-0.05
			c0.12-0.02-0.11,0.01-0.02,0c0.03,0,0.06,0,0.09,0c0.02,0,0.14,0.01,0.04,0c-0.1-0.01,0.01,0,0.03,0.01
			c0.01,0,0.03,0.01,0.04,0.01c0.08,0.02-0.11-0.06-0.05-0.02c0.03,0.01,0.05,0.03,0.08,0.04c0.08,0.05-0.1-0.09-0.02-0.01
			c0.04,0.03,0.11,0.14,0-0.01c0.08,0.11,0.17,0.2,0.31,0.23c0.12,0.03,0.28,0.01,0.39-0.06c0.11-0.07,0.21-0.18,0.24-0.31
			C64.84,84.39,64.85,84.23,64.77,84.12L64.77,84.12z"/>
	</g>
</g>
<g>
	<g>
		<path class="st1" d="M43.8,83.72c-0.57-0.02-0.88,0.57-0.82,1.07c0.05,0.44,0.33,0.79,0.68,1.04c0.7,0.49,1.74,0.4,2.23-0.33
			c0.42-0.61,0.3-1.6-0.28-2.07c-0.35-0.28-0.8-0.39-1.24-0.25c-0.4,0.13-0.77,0.43-0.95,0.82c-0.12,0.26-0.17,0.52-0.13,0.8
			c0.03,0.25,0.17,0.47,0.33,0.66c0.32,0.37,0.83,0.53,1.29,0.65c0.17,0.05,0.39-0.01,0.51-0.14c0.33-0.38,0.65-0.8,0.75-1.31
			c0.11-0.55-0.05-1.15-0.57-1.44c-0.46-0.25-1.03-0.14-1.43,0.16c-0.45,0.35-0.64,0.87-0.54,1.42c0.1,0.59,0.57,1.1,1.09,1.35
			c0.2,0.1,0.5,0.09,0.66-0.1c0.28-0.33,0.49-0.69,0.6-1.12c0.1-0.38,0.13-0.77,0.09-1.16c-0.03-0.25-0.14-0.39-0.37-0.48
			c-0.72-0.27-1.59,0.22-1.81,0.93c-0.24,0.76,0.32,1.61,1.07,1.79c0.31,0.07,0.54-0.05,0.76-0.25c0.13-0.11,0.23-0.26,0.3-0.42
			c0.15-0.33,0.2-0.68,0.11-1.04c-0.08-0.35-0.31-0.68-0.64-0.83c-0.37-0.17-0.77-0.14-1.14,0.03c-0.32,0.15-0.58,0.44-0.69,0.78
			c-0.11,0.35-0.02,0.77,0.25,1.02c0.54,0.48,1.42,0.16,1.78-0.38c0.47-0.71-0.03-1.56-0.59-2.04c-0.15-0.13-0.31-0.26-0.48-0.35
			c-0.3-0.17-0.65-0.02-0.92,0.14c-0.15,0.09-0.3,0.2-0.42,0.32c-0.08,0.08-0.15,0.17-0.22,0.26c0.13-0.17-0.02,0.03-0.07,0.09
			c-0.03,0.04-0.05,0.08-0.08,0.12c-0.22,0.38-0.32,0.86-0.18,1.28c0.12,0.36,0.38,0.67,0.73,0.83c0.35,0.15,0.73,0.21,1.1,0.1
			c0.4-0.11,0.77-0.4,0.86-0.83c0.05-0.24-0.01-0.47-0.21-0.62c-0.2-0.15-0.44-0.14-0.66-0.04c-0.19,0.09-0.36,0.21-0.54,0.33
			c-0.21,0.14-0.32,0.38-0.22,0.62c0.1,0.24,0.34,0.34,0.59,0.29c0.2-0.04,0.41-0.08,0.61-0.15c-0.22-0.29-0.44-0.57-0.66-0.86
			c-0.02,0.03-0.04,0.06-0.05,0.09c-0.04,0.09,0.12-0.12,0.03-0.04c-0.02,0.02-0.04,0.04-0.06,0.06c-0.1,0.1,0.12-0.07,0.04-0.03
			c-0.02,0.01-0.04,0.02-0.06,0.04c-0.08,0.05,0.18-0.05,0.03-0.02c-0.02,0-0.05,0.01-0.08,0.02c0.11-0.01,0.14-0.02,0.08-0.01
			c-0.02,0-0.04,0-0.05,0c-0.03,0-0.06,0-0.09,0c-0.04,0,0.17,0.03,0.03,0c-0.04-0.01-0.07-0.02-0.1-0.03
			c-0.05-0.02-0.11-0.06,0.04,0.02c-0.05-0.03-0.11-0.06-0.16-0.09c0.15,0.08,0.07,0.06,0.02,0.01c-0.02-0.02-0.1-0.11-0.02-0.02
			c0.07,0.1,0,0-0.01-0.02c-0.07-0.13,0.03,0.12,0,0.02c-0.01-0.03-0.02-0.07-0.03-0.1c-0.01-0.06-0.01-0.05,0,0.05
			c0-0.02,0-0.05,0-0.07c0-0.03,0-0.07,0-0.1c0.01-0.06,0-0.05-0.01,0.05c0-0.02,0.01-0.05,0.02-0.07c0.01-0.03,0.02-0.07,0.03-0.1
			c0.02-0.06,0.02-0.04-0.02,0.04c0.01-0.02,0.02-0.04,0.03-0.06c0.02-0.04,0.04-0.07,0.06-0.11c0.08-0.12-0.08,0.08,0,0
			c0.06-0.06,0.12-0.12,0.19-0.17c-0.14,0.13-0.03,0.02,0.02,0c0.03-0.02,0.06-0.04,0.1-0.05c0.16-0.08-0.09,0.02,0.01-0.01
			c0.05-0.01,0.09-0.03,0.14-0.04c-0.16-0.02-0.31-0.04-0.47-0.05c0.11,0.08-0.09-0.07-0.02-0.01c0.03,0.02,0.05,0.04,0.08,0.06
			c0.05,0.04,0.1,0.08,0.16,0.12c0.09,0.07-0.03-0.02-0.03-0.02c0.01-0.01,0.28,0.24,0.3,0.26c0.04,0.04,0.07,0.08,0.1,0.11
			c0.09,0.1-0.06-0.09-0.02-0.02c0.02,0.03,0.04,0.05,0.05,0.08c0.02,0.03,0.04,0.11,0.07,0.13c-0.05-0.03-0.04-0.12-0.01-0.02
			c0.01,0.04,0.02,0.07,0.02,0.11c0.02,0.08,0-0.14,0-0.02c0,0.01,0,0.05,0,0.05c0,0,0.02-0.15,0.01-0.07c0,0-0.02,0.04-0.01,0.05
			c-0.02-0.06,0.07-0.13,0.02-0.06c-0.01,0.02-0.02,0.04-0.03,0.05c-0.03,0.06-0.02-0.04,0.05-0.06c-0.01,0-0.05,0.05-0.05,0.06
			c-0.01,0.01-0.03,0.02-0.04,0.03c0.05-0.09,0.12-0.08,0.05-0.04c-0.02,0.01-0.08,0.03-0.1,0.06c0.07-0.08,0.13-0.04,0.07-0.03
			c-0.02,0-0.03,0.01-0.05,0.01c-0.02,0.01-0.04,0.01-0.06,0.01c-0.05,0.02,0.16-0.01,0.05-0.01c-0.02,0-0.04,0-0.06,0
			c0,0,0.15,0.02,0.08,0.01c-0.12-0.02,0.11,0.06,0.02,0.01c-0.09-0.05,0.11,0.1,0.03,0.01c0.11,0.12,0.08,0.1,0.05,0.06
			c-0.05-0.08,0.04,0.14,0.02,0.05c0-0.02-0.01-0.05-0.02-0.07c-0.02-0.06,0.01,0.12,0.01,0.06c-0.01-0.12-0.02,0.13,0-0.01
			c0.01-0.08-0.02,0.04-0.03,0.05c0.01-0.02,0.02-0.04,0.03-0.06c0.02-0.05,0.07-0.05-0.03,0.03c0.02-0.02,0.04-0.04,0.06-0.06
			c0.01-0.01,0.03-0.03,0.04-0.04c-0.06,0.08-0.1,0.07-0.05,0.04c0.04-0.02,0.1-0.05,0.13-0.07c-0.01,0.01-0.14,0.05-0.06,0.02
			c0.02-0.01,0.04-0.01,0.06-0.02c0.02-0.01,0.04-0.01,0.06-0.01c0.1-0.03-0.12,0-0.03,0.01c0.02,0,0.05,0,0.07,0
			c0.06-0.01-0.13-0.03-0.04,0c0.02,0.01,0.04,0.01,0.06,0.01c0.08,0.02-0.04-0.01-0.05-0.02c0.01,0.01,0.05,0.03,0.06,0.04
			c0.06,0.02-0.1-0.09-0.03-0.02c0.01,0.01,0.03,0.03,0.04,0.04c0.07,0.07-0.06-0.11-0.01-0.02c0.01,0.02,0.02,0.03,0.03,0.05
			c0.04,0.07,0,0.06,0-0.02c0,0.03,0.02,0.12,0.04,0.15c-0.04-0.09,0-0.1-0.01-0.03c0,0.03,0,0.06,0,0.09
			c0,0.06-0.04,0.06,0.01-0.03c-0.01,0.03-0.01,0.06-0.02,0.09c-0.01,0.02-0.01,0.04-0.02,0.06c0,0.01-0.01,0.03-0.02,0.04
			c-0.02,0.04-0.01,0.02,0.03-0.06c-0.03,0.03-0.05,0.1-0.08,0.13c-0.05,0.08,0.03-0.03,0.03-0.04c-0.02,0.02-0.04,0.05-0.06,0.07
			c-0.02,0.02-0.04,0.04-0.05,0.05c-0.09,0.1,0.1-0.07,0.01-0.01c0.09-0.03,0.19-0.05,0.28-0.08c-0.02,0-0.12-0.01-0.03,0
			c0.09,0.01-0.02-0.01-0.03-0.01c-0.01,0-0.06-0.02-0.07-0.02c0-0.01,0.1,0.05,0.02,0c-0.02-0.01-0.05-0.03-0.07-0.04
			c-0.08-0.04,0.05,0.05,0.01,0.01c-0.02-0.02-0.04-0.04-0.06-0.06c-0.05-0.06,0.02,0,0.02,0.02c0-0.02-0.1-0.13-0.09-0.15
			c0,0,0.04,0.12,0.01,0.01c-0.01-0.03-0.01-0.06-0.02-0.08c-0.02-0.07-0.01,0.02,0,0.03c-0.01-0.01,0-0.07,0-0.09
			c0-0.02,0-0.03,0-0.05c0,0.02-0.01,0.04-0.01,0.06c-0.01-0.02,0.02-0.06,0.02-0.08c0-0.01,0.01-0.02,0.01-0.03
			c0.01-0.03,0.01-0.02-0.01,0.01c-0.02,0.04-0.02,0.04,0,0c0.01-0.01,0.01-0.02,0.02-0.03c0.01-0.02,0.03-0.05,0.04-0.07
			c0.03-0.05-0.08,0.09-0.01,0.02c0.02-0.02,0.03-0.03,0.05-0.05c0.01-0.01,0.09-0.08,0.02-0.02c-0.07,0.05,0.01,0,0.03-0.01
			c0.02-0.01,0.05-0.03,0.07-0.04c0.08-0.05,0,0.02-0.02,0.01c0,0,0.06-0.02,0.06-0.02c0.02-0.01,0.06-0.01,0.08-0.02
			c0.05-0.02-0.11,0-0.02,0c0.03,0,0.05,0,0.08,0c0.1,0-0.02,0-0.01,0c0-0.01,0.15,0.04,0.16,0.04c-0.12-0.16-0.25-0.32-0.37-0.48
			c0.02,0.16,0.02,0.31,0.01,0.47c0,0.04-0.02,0.13,0,0.04c-0.01,0.04-0.02,0.08-0.02,0.12c-0.02,0.08-0.04,0.15-0.06,0.23
			c-0.01,0.03-0.02,0.07-0.03,0.1c-0.01,0.02-0.05,0.15-0.01,0.03c-0.02,0.07-0.07,0.14-0.1,0.21c-0.04,0.07-0.07,0.14-0.12,0.2
			c-0.02,0.04-0.05,0.07-0.07,0.11c-0.02,0.03-0.1,0.13-0.02,0.02c0.22-0.03,0.44-0.07,0.66-0.1c-0.08-0.04-0.15-0.08-0.22-0.12
			c-0.01,0-0.04-0.03-0.05-0.03c0.01,0,0.1,0.08,0.02,0.01c-0.03-0.03-0.07-0.06-0.1-0.09c-0.02-0.02-0.07-0.1-0.09-0.1
			c0,0,0.06,0.09,0.03,0.04c-0.01-0.02-0.02-0.03-0.03-0.05c-0.02-0.04-0.05-0.07-0.07-0.11c-0.01-0.02-0.02-0.03-0.03-0.05
			c-0.04-0.07,0.01,0,0.01,0.03c0-0.04-0.03-0.09-0.04-0.12c-0.01-0.02-0.04-0.13-0.02-0.06c0.02,0.05,0,0.02,0,0
			c0-0.02,0-0.05,0-0.07c0-0.02,0-0.04,0-0.06c0-0.06-0.02,0.08-0.01,0.03c0.01-0.03,0.02-0.07,0.03-0.1
			c0.02-0.09-0.05,0.09-0.01,0.02c0.02-0.03,0.04-0.06,0.06-0.09c0.03-0.05-0.04,0.05-0.04,0.05c0.01-0.01,0.03-0.03,0.04-0.05
			c0.02-0.03,0.06-0.05,0.08-0.07c0.04-0.04-0.06,0.04-0.06,0.04c0.01,0,0.03-0.02,0.04-0.03c0.03-0.02,0.06-0.03,0.09-0.05
			c0.07-0.04-0.13,0.04-0.01,0c0.03-0.01,0.07-0.02,0.1-0.03c0.09-0.03-0.11,0-0.02,0c0.03,0,0.14,0.01,0.05-0.01
			c-0.09-0.01,0.02,0.01,0.04,0.01c0.06,0.01,0,0.04-0.05-0.02c0.01,0.01,0.03,0.01,0.04,0.02c0.08,0.07-0.04-0.04-0.01-0.01
			c0.01,0.02,0.06,0.07,0.09,0.09c-0.01,0-0.05-0.09-0.04-0.04c0.01,0.02,0.02,0.04,0.03,0.06c0.04,0.05-0.02-0.1-0.01-0.04
			c0,0.02,0.01,0.03,0.01,0.05c0,0.02,0,0.03,0.01,0.05c0.02,0.05-0.01-0.05-0.01-0.05c-0.01,0,0,0.1,0,0.12c0,0,0,0.05,0,0.05
			c0,0,0.02-0.12,0-0.03c-0.01,0.05-0.02,0.09-0.04,0.14c-0.01,0.04-0.05,0.1-0.05,0.14c0,0,0.04-0.09,0.02-0.04
			c-0.01,0.02-0.02,0.05-0.03,0.07c-0.02,0.05-0.05,0.09-0.08,0.14c-0.05,0.08-0.1,0.17-0.15,0.26c-0.01,0.02-0.08,0.14-0.04,0.07
			c0.04-0.06,0,0-0.02,0.02c-0.02,0.02-0.04,0.05-0.06,0.07c0.17-0.05,0.34-0.1,0.51-0.14c-0.15-0.04-0.29-0.08-0.43-0.13
			c-0.09-0.03,0.01,0.01,0.02,0.01c-0.03-0.01-0.07-0.03-0.1-0.05c-0.05-0.02-0.19-0.07-0.22-0.13c0.02,0.01,0.03,0.02,0.05,0.04
			c-0.02-0.01-0.04-0.03-0.05-0.05c-0.02-0.02-0.03-0.03-0.05-0.05c-0.01-0.01-0.02-0.02-0.02-0.03c-0.04-0.04-0.03-0.04,0.02,0.03
			c-0.01,0-0.05-0.08-0.06-0.09c0-0.01-0.01-0.02-0.01-0.03c-0.02-0.05-0.02-0.04,0.02,0.04c0-0.01-0.02-0.07-0.02-0.09
			c-0.02-0.06,0.03,0,0,0.04c0-0.01,0.01-0.11,0-0.12c0.02,0.04-0.02,0.11,0,0.01c0.01-0.03,0.02-0.06,0.03-0.09
			c0.03-0.1-0.05,0.07-0.01,0.02c0.02-0.02,0.02-0.05,0.04-0.07c0.01-0.02,0.05-0.06,0.05-0.08c-0.01,0.02-0.03,0.04-0.04,0.06
			c0.01-0.02,0.03-0.03,0.04-0.05c0.02-0.02,0.04-0.05,0.07-0.07c0.02-0.01,0.03-0.03,0.05-0.04c-0.07,0.05-0.08,0.06-0.05,0.04
			c0.05-0.03,0.1-0.06,0.15-0.09c0.1-0.05-0.12,0.03-0.01,0.01c0.03-0.01,0.06-0.02,0.09-0.02c0.1-0.03-0.09-0.01-0.03,0
			c0.02,0,0.05,0,0.08,0c0.11-0.01-0.11-0.03-0.01,0c0.02,0,0.04,0.01,0.06,0.02c0.05,0.02,0.04,0.01-0.04-0.02
			c0.03,0.03,0.09,0.05,0.13,0.07c0.09,0.05-0.09-0.08-0.02-0.01c0.02,0.02,0.04,0.04,0.06,0.06c0.05,0.05,0.03,0.08-0.01-0.02
			c0.01,0.02,0.03,0.05,0.05,0.07c0.01,0.02,0.02,0.03,0.03,0.05c0.06,0.13-0.02-0.08,0,0c0.02,0.06,0.03,0.11,0.05,0.17
			c0.01,0.05-0.01,0.11,0-0.02c0,0.02,0,0.04,0,0.06c0,0.06,0,0.12,0,0.17c-0.01,0.11,0.03-0.12,0-0.02
			c-0.01,0.03-0.01,0.07-0.02,0.1c-0.01,0.02-0.02,0.05-0.02,0.07c-0.03,0.1,0.06-0.11,0.01-0.02c-0.01,0.02-0.03,0.05-0.04,0.07
			C44.96,85,44.92,85,45.02,84.92c-0.04,0.03-0.07,0.07-0.1,0.1c-0.05,0.05-0.08,0.03,0.02-0.01c-0.04,0.01-0.07,0.05-0.11,0.07
			c-0.01,0-0.02,0.01-0.03,0.01c-0.05,0.02-0.04,0.02,0.05-0.02c-0.02,0-0.04,0.01-0.06,0.02c-0.03,0.01-0.06,0.02-0.09,0.02
			c-0.01,0-0.02,0-0.03,0.01c-0.05,0.01-0.04,0.01,0.04-0.01c-0.03-0.02-0.15,0-0.19,0c-0.1,0,0.08,0.03,0.02,0
			c-0.03-0.01-0.07-0.02-0.11-0.02c-0.01,0-0.09-0.03-0.09-0.03c0.07,0.03,0.08,0.03,0.03,0.01c-0.02-0.01-0.04-0.02-0.06-0.03
			c-0.01,0-0.17-0.09-0.16-0.1c0.01-0.01,0.09,0.07,0,0c-0.03-0.03-0.06-0.06-0.09-0.09c-0.01-0.01-0.01-0.02-0.02-0.02
			c-0.03-0.04-0.03-0.03,0.02,0.03c0-0.01-0.05-0.07-0.05-0.08c-0.02-0.03-0.03-0.06-0.05-0.08c-0.02-0.05-0.02-0.04,0.01,0.03
			c-0.01-0.02-0.01-0.04-0.02-0.06c-0.03-0.11,0,0-0.01,0c-0.01,0,0-0.08,0-0.1c0-0.11-0.03,0.1,0,0c0.02-0.05,0.01-0.04-0.02,0.03
			c0.01-0.02,0.02-0.03,0.03-0.05c-0.02,0.02-0.03,0.04-0.05,0.06c0.04-0.04,0.02-0.03-0.05,0.03c0.05-0.03,0.03-0.02-0.05,0.02
			c-0.08,0.01-0.1,0.01-0.04,0.01c0.26,0.01,0.51-0.23,0.5-0.49C44.28,83.93,44.08,83.73,43.8,83.72L43.8,83.72z"/>
	</g>
</g>
<g>
	<g>
		<path class="st1" d="M25.08,84.62c0.61,0.07,0.94-0.72,0.67-1.19c-0.36-0.63-1.23-0.4-1.58,0.1c-0.31,0.43-0.28,1.05-0.23,1.55
			c0.05,0.55,0.23,1.11,0.75,1.39c1.14,0.62,2.25-0.63,2.45-1.67c0.09-0.46,0.1-0.95-0.05-1.4c-0.15-0.43-0.42-0.86-0.85-1.05
			c-1.04-0.44-2.17,0.32-2.38,1.38c-0.09,0.47-0.06,0.97,0.21,1.38c0.26,0.38,0.67,0.64,1.12,0.7c0.46,0.06,0.95-0.02,1.34-0.29
			c0.42-0.29,0.7-0.78,0.66-1.3c-0.1-1.06-1.19-1.9-2.22-1.45c-0.98,0.43-1.32,1.84-0.7,2.7c0.31,0.43,0.8,0.69,1.34,0.67
			c0.53-0.02,1.02-0.27,1.32-0.72c0.65-0.98-0.32-2.27-1.42-2.12c-0.53,0.07-0.93,0.5-1.01,1.01c-0.07,0.43,0.07,0.87,0.34,1.21
			c0.32,0.4,0.78,0.58,1.29,0.5c0.48-0.07,0.91-0.43,1.11-0.86c0.23-0.48,0.27-1.02,0.04-1.51c-0.21-0.46-0.66-0.78-1.13-0.94
			c-0.99-0.34-2.12,0.14-2.61,1.04c-0.25,0.45-0.36,1-0.23,1.51c0.12,0.48,0.47,0.89,0.91,1.12c0.43,0.22,0.97,0.31,1.43,0.14
			c0.54-0.2,0.97-0.63,1.11-1.2c0.12-0.5,0.08-1.02-0.01-1.52c-0.05-0.23-0.09-0.48-0.22-0.69c-0.18-0.3-0.49-0.48-0.85-0.43
			c-0.34,0.05-0.59,0.3-0.8,0.55c-0.21,0.26-0.38,0.53-0.48,0.84c-0.18,0.56-0.05,1.18,0.39,1.59c0.19,0.18,0.45,0.32,0.71,0.36
			c0.37,0.06,0.85-0.03,1.06-0.39c0.19-0.33,0.04-0.8-0.11-1.12c-0.14-0.29-0.37-0.52-0.62-0.7c-0.39-0.27-0.88-0.13-1.14,0.25
			c-0.2,0.3-0.18,0.66-0.01,0.96c0.15,0.26,0.52,0.36,0.78,0.2c0.26-0.16,0.38-0.49,0.22-0.77c0,0,0.05,0.27,0.05,0.14
			c0,0.07-0.04,0.12-0.06,0.18c-0.03,0.04-0.04,0.04-0.01,0.02c0.03-0.02,0.02-0.02-0.03,0.02c-0.02,0.01-0.18,0.07-0.09,0.05
			c-0.16-0.02-0.31-0.04-0.47-0.05c0.03,0.02,0.14,0.1,0.03,0.01c0.04,0.03,0.07,0.06,0.11,0.1c0.01,0.01,0.11,0.11,0.05,0.04
			c-0.06-0.07,0.04,0.06,0.05,0.07c0.02,0.03,0.04,0.07,0.06,0.11c0.07,0.13-0.02-0.11,0.01,0.03c0.01,0.05,0.02,0.09,0.03,0.14
			c0.03,0.12,0-0.1,0,0.03c0.11-0.18,0.21-0.36,0.32-0.53c-0.11,0.07-0.05-0.01,0.02,0.01c-0.01,0-0.08,0.02-0.09,0.02
			c-0.07,0.03,0.15,0,0.03-0.01c-0.12,0,0.09,0.04,0.02,0.01c-0.01-0.01-0.09-0.01-0.09-0.02c0.02,0.01,0.04,0.02,0.07,0.03
			c-0.03-0.01-0.05-0.02-0.07-0.03c-0.01-0.01-0.07-0.03-0.07-0.04c0.06,0.05,0.07,0.05,0.02,0.01c-0.02-0.01-0.03-0.03-0.04-0.04
			c0,0-0.01-0.01-0.01-0.01c0.05,0.07,0.05,0.07,0.01,0.02c-0.01-0.01-0.07-0.09-0.06-0.1c0,0,0.04,0.14,0.01,0.02
			c0-0.01-0.03-0.14-0.02-0.04c0-0.03,0-0.07,0-0.1c0-0.01,0.02-0.17,0-0.06c0.01-0.03,0.01-0.07,0.02-0.1
			c0.01-0.02,0.07-0.2,0.03-0.12c0.04-0.08,0.08-0.16,0.13-0.23c0.02-0.04,0.05-0.07,0.08-0.11c0.06-0.08-0.08,0.09,0.03-0.04
			c0.06-0.06,0.11-0.13,0.18-0.19c-0.01,0.01-0.03,0.02-0.04,0.03c0.08-0.04,0.05-0.04-0.09,0.02c-0.07,0-0.12-0.03-0.18-0.07
			c0.1,0.07-0.06-0.06-0.01-0.01c0.02,0.02,0.05,0.12,0.01,0c0.01,0.04,0.02,0.08,0.04,0.12c0.01,0.03,0.04,0.06,0.01-0.01
			c0.02,0.03,0.02,0.17,0.03,0.22c-0.01-0.1,0-0.02,0,0c0.01,0.09,0.01,0.18,0.02,0.27c0,0.15,0,0.3-0.02,0.46
			c0,0.03-0.03,0.17,0,0.03c-0.01,0.04-0.01,0.07-0.02,0.11c-0.02,0.08-0.06,0.16-0.08,0.25c-0.02,0.09,0.06-0.13,0-0.01
			c-0.02,0.05-0.04,0.1-0.06,0.14c0.03-0.07,0.04-0.09,0.02-0.05c-0.04,0.05-0.06,0.17-0.12,0.2c0,0,0.1-0.11,0.01-0.03
			c-0.03,0.03-0.06,0.06-0.09,0.09c-0.07,0.07,0.02-0.03,0.03-0.02c0,0-0.13,0.08-0.13,0.08c0-0.01,0.14-0.04,0.04-0.02
			c-0.04,0.01-0.07,0.02-0.11,0.03c-0.11,0.03,0.03-0.01,0.03,0c0,0.01-0.1,0.01-0.12,0.01c-0.03,0-0.05,0-0.08,0
			c-0.13,0,0.11,0.03-0.01,0c-0.08-0.02-0.15-0.04-0.23-0.06c0.13,0.05-0.06-0.03-0.09-0.05c-0.03-0.02-0.06-0.04-0.08-0.05
			c-0.07-0.03,0.09,0.08,0,0c-0.05-0.04-0.1-0.09-0.14-0.14c-0.09-0.09,0.06,0.1-0.01-0.01c-0.02-0.03-0.04-0.07-0.06-0.1
			c-0.02-0.03-0.04-0.07-0.05-0.11c0.01,0.02,0.03,0.11,0.01,0.01c-0.02-0.07-0.04-0.14-0.05-0.22c0.01,0.11,0-0.03,0-0.05
			c0-0.03,0-0.06,0-0.09c0-0.01,0.02-0.15,0-0.05c0.01-0.04,0.02-0.09,0.03-0.13c0.01-0.04,0.03-0.08,0.04-0.13
			c-0.03,0.08-0.01,0.01,0-0.01c0.04-0.07,0.08-0.15,0.12-0.21c0.01-0.02,0.07-0.1,0.01-0.02c0.03-0.04,0.06-0.07,0.09-0.1
			c0.02-0.02,0.04-0.04,0.06-0.06c0.01-0.01,0.13-0.12,0.08-0.08c-0.06,0.05,0.06-0.04,0.06-0.04c0.04-0.02,0.08-0.05,0.12-0.07
			c0.03-0.01,0.05-0.03,0.08-0.04c0.13-0.07-0.1,0.02,0.03-0.01c0.07-0.02,0.13-0.04,0.2-0.06c0.03-0.01,0.06-0.01,0.08-0.01
			c-0.13,0.02,0.06,0,0.08,0c0.07,0,0.14,0,0.21,0.01c-0.1-0.01-0.03,0,0,0c0.04,0.01,0.08,0.02,0.12,0.03
			c0.03,0.01,0.07,0.02,0.1,0.03c0.03,0.01,0.11,0.04,0.02,0c0.08,0.03,0.15,0.07,0.22,0.11c0,0,0.11,0.08,0.05,0.03
			c-0.06-0.05,0.04,0.04,0.04,0.04c0.03,0.03,0.06,0.06,0.09,0.09c-0.01-0.01-0.06-0.09-0.01-0.01c0.03,0.04,0.1,0.12,0.1,0.18
			c-0.01-0.02-0.02-0.04-0.03-0.06c0.01,0.02,0.02,0.05,0.02,0.07c0.01,0.04,0.02,0.07,0.02,0.11c-0.03-0.14,0,0.04,0,0.09
			c0,0.02,0.01,0.09-0.01,0.11c0.03-0.04,0.02-0.09,0-0.03c-0.02,0.07-0.05,0.14-0.06,0.2c-0.02,0.07,0.06-0.12,0-0.01
			c-0.02,0.03-0.04,0.07-0.06,0.1c-0.07,0.12,0,0.01,0,0.01c0,0-0.05,0.06-0.06,0.07c-0.02,0.02-0.04,0.05-0.06,0.07
			c-0.08,0.08-0.05,0,0.01,0c-0.01,0-0.06,0.04-0.06,0.04c-0.1,0.06-0.04-0.01,0.01,0.01c0,0-0.07,0.02-0.07,0.02
			c-0.02,0.01-0.05,0.01-0.07,0.02c0.08-0.01,0.09-0.01,0.03,0c-0.02,0-0.05,0-0.07,0c-0.11,0.01,0.11,0.04,0.01,0
			c-0.01-0.01-0.05-0.01-0.06-0.02c-0.1-0.02,0.09,0.06,0.01,0c-0.01-0.01-0.04-0.03-0.05-0.03c-0.1-0.04,0.08,0.08,0.01,0.01
			c-0.02-0.02-0.04-0.04-0.06-0.05c-0.01-0.01-0.02-0.02-0.03-0.04c-0.04-0.04-0.03-0.03,0.03,0.04c-0.01-0.04-0.07-0.1-0.09-0.14
			c-0.07-0.14,0.02,0.1-0.02-0.05c-0.01-0.03-0.01-0.13-0.04-0.16c0.05,0.06,0,0.1,0.01,0.01c0-0.03,0-0.06,0-0.09
			c0-0.1-0.04,0.11,0,0.02c0.01-0.01,0.01-0.05,0.02-0.06c0.02-0.11-0.05,0.11-0.01,0.02c0-0.01,0.03-0.05,0.03-0.05
			c-0.02,0.02-0.03,0.04-0.05,0.06c0.01-0.02,0.03-0.03,0.04-0.04c0.01-0.01,0.02-0.01,0.02-0.02c-0.02,0.02-0.05,0.03-0.07,0.05
			c0.01,0,0.08-0.06,0.09-0.05c-0.08,0.03-0.09,0.03-0.03,0.02c0.01,0,0.02-0.01,0.04-0.01c-0.02,0-0.04,0-0.07,0.01
			c0.02,0,0.05,0,0.08,0c0.11-0.01-0.03-0.01-0.03-0.01c0.02-0.01,0.09,0.02,0.11,0.03c0.11,0.03-0.05-0.04,0,0
			c0.02,0.02,0.06,0.04,0.09,0.05c0.11,0.06-0.07-0.08,0.02,0.01c0.02,0.02,0.04,0.04,0.06,0.05c0.02,0.02,0.04,0.04,0.05,0.06
			c-0.04-0.06-0.05-0.07-0.03-0.04c0.01,0.03,0.04,0.06,0.05,0.08c0.01,0.01,0.01,0.02,0.02,0.03c0.03,0.06,0.02,0.05-0.01-0.03
			c0.01,0,0.02,0.07,0.02,0.07c0.04,0.11,0.01-0.1,0.01,0.01c0,0.03,0,0.05,0,0.08c0-0.12,0-0.03-0.01,0.01
			c-0.02,0.11,0.01-0.04,0.02-0.03c0.01,0.01-0.08,0.12-0.07,0.13c-0.02-0.01,0.08-0.09,0.02-0.03c-0.03,0.03-0.05,0.05-0.08,0.08
			c-0.07,0.07,0.02-0.03,0.03-0.02c-0.01,0-0.08,0.06-0.09,0.06c-0.02,0.01-0.06,0.03-0.08,0.04c-0.06,0.05,0.13-0.04,0.02-0.01
			c-0.06,0.02-0.16,0.07-0.22,0.06c0.11,0.02,0.06,0,0.01-0.01c-0.03,0-0.06,0-0.09,0c-0.12,0,0.11,0.03-0.01,0
			c-0.02-0.01-0.05-0.01-0.07-0.02c-0.03-0.01-0.13-0.06-0.01,0c-0.02-0.01-0.05-0.02-0.07-0.03C25.28,85,25.18,84.92,25.28,85
			c-0.03-0.03-0.06-0.05-0.09-0.08c-0.02-0.02-0.1-0.12-0.02-0.01c-0.02-0.02-0.03-0.04-0.05-0.07c-0.04-0.06-0.07-0.12-0.1-0.18
			c0.05,0.12,0-0.01,0-0.03c-0.01-0.03-0.02-0.07-0.02-0.1c-0.01-0.03-0.02-0.12-0.01-0.01c0-0.04-0.01-0.08-0.01-0.13
			c0-0.04,0-0.08,0.01-0.13c0.01-0.12-0.02,0.04,0-0.02c0.03-0.07,0.04-0.15,0.07-0.22c-0.01,0.02-0.04,0.08,0,0
			c0.02-0.04,0.04-0.07,0.06-0.11c0.01-0.01,0.06-0.08,0.01-0.02c0.04-0.05,0.09-0.1,0.14-0.14c0.01-0.01,0.08-0.06,0.01-0.01
			c0.04-0.03,0.08-0.05,0.13-0.08c0.03-0.02,0.09-0.02,0,0c0.04-0.01,0.08-0.02,0.11-0.03c-0.1,0.03-0.05,0-0.02,0.01
			c0.04,0,0.08,0,0.11,0c-0.15-0.01,0.18,0.07,0.05,0.01c0.06,0.03,0.12,0.06,0.17,0.09c0.1,0.06-0.03-0.05,0.01,0
			c0.02,0.02,0.05,0.04,0.07,0.07c0.02,0.02,0.05,0.05,0.07,0.07c0.02,0.02,0.07,0.1,0.01,0c0.02,0.03,0.05,0.07,0.07,0.1
			c0.02,0.03,0.07,0.14,0.02,0.02c0.02,0.06,0.04,0.13,0.05,0.19c0.03,0.12,0.01-0.1,0,0.02c0,0.02,0,0.05,0,0.08
			c0.01,0.12,0.03-0.09,0,0.02c-0.01,0.02-0.02,0.05-0.02,0.08c-0.03,0.12,0.05-0.08,0,0.01c-0.02,0.03-0.04,0.06-0.05,0.09
			c-0.06,0.1,0.09-0.08,0,0c-0.02,0.02-0.03,0.03-0.05,0.05c-0.03,0.02-0.05,0.05-0.08,0.07c-0.09,0.08,0.09-0.05,0.02-0.02
			c-0.05,0.02-0.11,0.06-0.15,0.09c-0.06,0.04,0.14-0.04,0.02-0.01c-0.04,0.01-0.08,0.03-0.12,0.04c-0.03,0.01-0.06,0.01-0.09,0.02
			c-0.12,0.03,0.12,0,0,0c-0.06,0-0.12,0.01-0.18,0c-0.01,0-0.07,0-0.07,0c0.02,0,0.04,0.01,0.07,0.01c-0.02,0-0.05-0.01-0.07-0.01
			c-0.04-0.01-0.18-0.02-0.21-0.06c0,0,0.12,0.06,0.03,0.01c-0.03-0.02-0.06-0.03-0.09-0.05c0,0-0.06-0.03-0.06-0.04
			c0.02,0.01,0.03,0.03,0.05,0.04c-0.02-0.02-0.04-0.03-0.05-0.05c-0.02-0.02-0.04-0.05-0.06-0.06c-0.05-0.03,0.06,0.1,0,0
			c-0.02-0.03-0.04-0.05-0.05-0.08c-0.02-0.03-0.07-0.16-0.02-0.03c-0.02-0.06-0.04-0.12-0.05-0.18c0,0-0.02-0.13-0.01-0.05
			c0.01,0.08,0-0.05,0-0.05c0-0.06,0-0.13,0.01-0.19c-0.01,0.12,0.01-0.01,0.01-0.03c0.01-0.04,0.02-0.08,0.03-0.11
			c0.01-0.02,0.06-0.14,0.01-0.03c0.01-0.02,0.02-0.05,0.03-0.07c0.03-0.06,0.07-0.11,0.1-0.17c-0.07,0.11,0,0.01,0.02-0.02
			c0.02-0.02,0.04-0.05,0.07-0.07c0.02-0.02,0.05-0.04,0.07-0.06c-0.1,0.09-0.02,0.01,0.01-0.01c0.03-0.02,0.07-0.04,0.1-0.06
			c0.11-0.07-0.09,0.02,0,0c0.04-0.01,0.09-0.03,0.13-0.04c0.14-0.05-0.04,0,0.05-0.01c0.04,0,0.09-0.01,0.13,0
			c-0.08-0.01,0.03,0.01,0.04,0.01c0.01,0,0.07,0.01,0.07,0.02c-0.07-0.03-0.08-0.03-0.03-0.01c0.02,0.01,0.04,0.02,0.06,0.03
			c0.07,0.03-0.03,0.02-0.03-0.03c0,0.01,0.07,0.06,0.08,0.07c0.02,0.02,0.03,0.03,0.05,0.05c0.08,0.09-0.07-0.11-0.01-0.01
			c0.03,0.05,0.06,0.1,0.09,0.15c0.05,0.09-0.02-0.03-0.01-0.04c-0.01,0.02,0.04,0.12,0.05,0.14c0.02,0.06,0.03,0.12,0.04,0.19
			c0,0.02,0,0.13,0.01,0.04c0.01-0.09,0,0.03,0,0.04c0.01,0.15,0,0.29-0.01,0.44c0,0.01,0,0.03,0,0.04
			c-0.01,0.06-0.01,0.05,0.01-0.03c0,0.01-0.01,0.07-0.01,0.08c-0.01,0.06-0.03,0.13-0.05,0.19c-0.02,0.07-0.04,0.13-0.07,0.2
			c0.05-0.14,0,0-0.02,0.03c-0.02,0.04-0.05,0.09-0.07,0.13c-0.04,0.07-0.09,0.14-0.13,0.2c0.08-0.12,0,0-0.02,0.03
			c-0.03,0.03-0.05,0.06-0.08,0.09c-0.02,0.02-0.06,0.07-0.09,0.08c0.02-0.01,0.04-0.03,0.06-0.04c-0.02,0.01-0.04,0.03-0.06,0.04
			c-0.03,0.02-0.06,0.04-0.09,0.06c-0.02,0.01-0.05,0.03-0.08,0.04c0.08-0.03,0.09-0.04,0.05-0.02c-0.03,0-0.07,0.04-0.1,0.03
			c0.02,0,0.05-0.01,0.07-0.01c-0.02,0-0.04,0-0.06,0c-0.09-0.01,0.13,0.03,0,0c-0.12-0.03,0.07,0.06-0.03-0.01
			c-0.02-0.02-0.05-0.03-0.07-0.04c0.11,0.07,0.01,0-0.01-0.02c-0.07-0.06,0,0,0.01,0.02c-0.03-0.05-0.06-0.09-0.08-0.14
			c-0.01-0.02-0.04-0.09,0,0.01c-0.02-0.04-0.03-0.08-0.04-0.12c-0.02-0.07-0.04-0.14-0.05-0.21c-0.01-0.07-0.02-0.15-0.03-0.22
			c0.01,0.09,0,0,0-0.03c0-0.06-0.01-0.11-0.01-0.17c-0.01-0.17,0-0.33,0.04-0.46c0.04-0.12-0.02,0.02,0.03-0.07
			c-0.02,0.04-0.01,0.05,0,0c0.01-0.01,0.02-0.02,0.03-0.03c-0.05,0.03-0.05,0.04,0,0c0.04-0.02,0.05-0.03,0.02-0.01
			C25,84,25.01,84,25.05,83.98c-0.01,0-0.03,0-0.04,0.01c0.05,0,0.05,0,0,0c-0.01,0.01-0.09-0.06,0,0
			c-0.06-0.04-0.09-0.07-0.11-0.14c0.03,0.08-0.01-0.02,0-0.03c0,0.01,0,0.02,0,0.03c0,0.05,0,0.04,0-0.02
			c-0.03,0.08,0.01-0.02,0.01-0.02C24.87,83.88,25,83.74,25,83.74c0.02-0.01,0.18-0.03,0.1-0.04c-0.25-0.02-0.47,0.23-0.48,0.46
			C24.62,84.44,24.83,84.59,25.08,84.62L25.08,84.62z"/>
	</g>
</g>
<g>
	<g>
		<path class="st0" d="M41.5,99.99c0.9-0.71,1.8-1.43,2.7-2.14c0.44-0.35,0.89-0.7,1.33-1.05c0.45-0.36,0.92-0.71,1.29-1.16
			c0.33-0.39-0.07-0.96-0.55-0.7c-0.53,0.28-0.97,0.68-1.43,1.05c-0.45,0.37-0.89,0.75-1.34,1.12c-0.89,0.75-1.78,1.49-2.68,2.24
			c-0.19,0.16-0.18,0.49,0,0.66C41.03,100.19,41.31,100.14,41.5,99.99L41.5,99.99z"/>
	</g>
</g>
<g>
	<g>
		<path class="st0" d="M42.28,96.29c0.48,0.95,1,1.88,1.55,2.8c0.55,0.91,1.09,1.87,1.81,2.66c0.33,0.37,0.89-0.11,0.69-0.53
			c-0.47-0.93-1.1-1.79-1.62-2.69c-0.53-0.91-1.02-1.83-1.49-2.77C42.92,95.14,41.97,95.68,42.28,96.29L42.28,96.29z"/>
	</g>
</g>
<g>
	<g>
		<path class="st0" d="M53.91,98.59c12.3,0.49,24.59,0.24,36.89-0.15c12.26-0.4,24.51-1.03,36.77-1.2
			c3.44-0.05,6.87-0.07,10.31-0.06c3.48,0.01,6.96,0.17,10.44,0.07c0.53-0.02,0.55-0.77,0.02-0.82c-3.05-0.26-6.13-0.25-9.19-0.25
			c-3.06,0-6.13,0.01-9.19,0.05c-6.17,0.1-12.34,0.27-18.51,0.47c-12.25,0.4-24.51,0.96-36.77,1.11
			c-6.91,0.09-13.83,0.13-20.74-0.06C53.39,97.75,53.36,98.57,53.91,98.59L53.91,98.59z"/>
	</g>
</g>
<g>
	<g>
		<path class="st0" d="M52.96,96.64c-0.06,0.73-0.03,1.46,0.06,2.19c0.09,0.7,0.3,1.47,0.69,2.05c0.15,0.23,0.42,0.33,0.68,0.22
			c0.27-0.11,0.37-0.36,0.34-0.64c-0.02-0.17-0.04-0.34-0.09-0.51c-0.05-0.17-0.09-0.33-0.13-0.5c-0.08-0.31-0.13-0.62-0.19-0.94
			c-0.11-0.63-0.16-1.22-0.14-1.89c0.01-0.32-0.28-0.61-0.6-0.6C53.24,96.05,52.99,96.3,52.96,96.64L52.96,96.64z"/>
	</g>
</g>
<g>
	<g>
		<path class="st0" d="M148.63,97.01c0.16,0,0.17-0.25,0.01-0.25C148.47,96.76,148.46,97.01,148.63,97.01L148.63,97.01z"/>
	</g>
</g>
<g>
	<g>
		<path class="st0" d="M148.66,96.08c-0.71-0.54-1.41-1.11-2.23-1.48c-0.21-0.1-0.45-0.06-0.6,0.13c-0.15,0.19-0.11,0.41,0.03,0.59
			c0.53,0.65,1.2,1.16,1.85,1.69c0.14,0.11,0.28,0.18,0.45,0.18c0.16,0,0.36-0.08,0.47-0.2c0.11-0.12,0.2-0.28,0.2-0.45
			C148.84,96.38,148.79,96.18,148.66,96.08L148.66,96.08z"/>
	</g>
</g>
<g>
	<g>
		<path class="st0" d="M147.05,96.76c-0.3,0.38-0.59,0.77-0.8,1.21c-0.23,0.47-0.41,0.94-0.42,1.46c0,0.23,0.14,0.44,0.35,0.52
			c0.2,0.08,0.49,0.05,0.64-0.13c0.12-0.15,0.25-0.3,0.36-0.47c0.09-0.13,0.17-0.26,0.26-0.4c0.17-0.27,0.35-0.53,0.54-0.78
			c-0.04,0.06-0.09,0.11-0.13,0.17c0.12-0.15,0.24-0.3,0.38-0.44c0.14-0.16,0.24-0.36,0.25-0.57c0-0.2-0.09-0.45-0.24-0.58
			c-0.16-0.14-0.36-0.24-0.58-0.23C147.44,96.52,147.19,96.59,147.05,96.76L147.05,96.76z"/>
	</g>
</g>
<g>
	<g>
		<path class="st0" d="M153.14,96.31c0.18,1.54,0.27,3.1,0.26,4.66c-0.01,0.76-0.04,1.51-0.09,2.27c-0.05,0.74-0.16,1.53-0.06,2.26
			c0.06,0.43,0.62,0.28,0.74-0.01c0.29-0.69,0.34-1.53,0.4-2.26c0.07-0.81,0.1-1.63,0.11-2.45c0.02-1.59-0.07-3.18-0.26-4.76
			c-0.04-0.31-0.42-0.46-0.69-0.39C153.23,95.71,153.11,96.01,153.14,96.31L153.14,96.31z"/>
	</g>
</g>
<g>
	<g>
		<path class="st0" d="M154.07,96.63c0.03-0.02,0.06-0.03,0.1-0.04c-0.04,0.02-0.04,0.02,0.02-0.01c0.07-0.02,0.13-0.04,0.2-0.06
			c0.02,0,0.2-0.04,0.13-0.03c0.07-0.01,0.14-0.01,0.21-0.02c0.07,0,0.14,0,0.21,0c0.06,0.01,0.07,0.01,0.03,0
			c0.03,0,0.07,0.01,0.1,0.02c0.07,0.01,0.14,0.03,0.21,0.05c0.03,0.01,0.07,0.02,0.1,0.03c0.06,0.02,0.07,0.02,0.03,0.01
			c0.46,0.19,0.73,0.49,0.93,0.95c0.01,0.03,0.01,0.03,0-0.01c0.01,0.03,0.02,0.06,0.03,0.09c0.02,0.06,0.04,0.12,0.05,0.18
			c0.02,0.06,0.03,0.12,0.04,0.19c0.01,0.06,0.01,0.06,0,0.02c0,0.04,0,0.07,0,0.11c0,0.04,0,0.07,0,0.11
			c-0.01,0.06-0.01,0.07,0,0.04c-0.01,0.03-0.01,0.07-0.02,0.1c-0.02,0.05-0.02,0.07-0.01,0.03c-0.02,0.03-0.03,0.06-0.05,0.09
			c0.03-0.04,0.02-0.03-0.01,0.01c-0.02,0.02-0.04,0.04-0.07,0.06c0.04-0.03,0.04-0.03-0.01,0c-0.06,0.03-0.11,0.06-0.17,0.09
			c0.09-0.04-0.09,0.03-0.11,0.03c-0.14,0.04-0.28,0.08-0.42,0.11c-0.33,0.07-0.66,0.12-0.99,0.17c-0.24,0.04-0.4,0.32-0.37,0.54
			c0.03,0.22,0.23,0.44,0.48,0.42c0.62-0.06,1.27-0.17,1.84-0.43c0.58-0.26,0.9-0.81,0.89-1.43c-0.01-1.13-0.82-2.14-1.89-2.46
			c-0.66-0.2-1.36-0.11-1.97,0.18c-0.23,0.11-0.33,0.46-0.19,0.68C153.54,96.7,153.82,96.75,154.07,96.63L154.07,96.63z"/>
	</g>
</g>
<g>
	<g>
		<path class="st0" d="M159.14,95c-0.87,1.84-0.91,4.21,0.35,5.88c0.29,0.39,0.88,0.06,0.68-0.39c-0.69-1.57-0.89-3.41-0.15-5
			c0.11-0.25,0.08-0.54-0.18-0.69C159.61,94.67,159.25,94.75,159.14,95L159.14,95z"/>
	</g>
</g>
<g>
	<g>
		<path class="st0" d="M161.01,98.04c0.22,0.36,0.45,0.71,0.7,1.05c0.26,0.36,0.53,0.7,0.86,1c0.12,0.11,0.3,0.12,0.43,0.02
			c0.12-0.09,0.18-0.28,0.09-0.42c-0.23-0.34-0.48-0.67-0.72-1c-0.24-0.33-0.47-0.68-0.69-1.03c-0.1-0.17-0.34-0.24-0.52-0.13
			C160.99,97.63,160.9,97.86,161.01,98.04L161.01,98.04z"/>
	</g>
</g>
<g>
	<g>
		<path class="st0" d="M163.1,98.16c-0.64,1.54-0.95,3.35-0.52,4.99c0.16,0.6,1.1,0.47,1.09-0.15c-0.01-0.78,0-1.57,0.09-2.34
			c0.09-0.75,0.3-1.49,0.58-2.19c0.13-0.32-0.14-0.69-0.44-0.77C163.53,97.6,163.24,97.84,163.1,98.16L163.1,98.16z"/>
	</g>
</g>
<g>
	<g>
		<path class="st0" d="M165.81,96.01c0.04,0.95,0.09,1.91,0.13,2.86c0.04,0.95,0.05,1.91,0.26,2.85c0.1,0.44,0.7,0.29,0.74-0.1
			c0.1-0.93,0.01-1.87-0.05-2.81c-0.06-0.94-0.12-1.87-0.18-2.81C166.67,95.43,165.78,95.44,165.81,96.01L165.81,96.01z"/>
	</g>
</g>
<g>
	<g>
		<path class="st0" d="M169.57,99.99c0.44-0.48,0.9-0.95,1.33-1.44c0.44-0.49,0.89-1,1.23-1.57c0.08-0.13,0.04-0.3-0.08-0.39
			c-0.13-0.09-0.28-0.07-0.4,0.03c-0.5,0.41-0.92,0.91-1.33,1.4c-0.41,0.5-0.81,1.01-1.22,1.51c-0.11,0.14-0.14,0.33,0,0.46
			C169.22,100.12,169.45,100.12,169.57,99.99L169.57,99.99z"/>
	</g>
</g>
<g>
	<g>
		<path class="st0" d="M169.46,98.03c0.32,0.38,0.63,0.75,0.95,1.13c0.16,0.18,0.31,0.37,0.47,0.55c0.08,0.09,0.15,0.18,0.23,0.27
			c0.09,0.1,0.19,0.18,0.3,0.26c0.17,0.14,0.39,0.16,0.58,0.02c0.17-0.13,0.23-0.37,0.12-0.56c-0.08-0.13-0.15-0.26-0.25-0.38
			c-0.08-0.1-0.16-0.19-0.24-0.28c-0.16-0.19-0.33-0.37-0.49-0.56c-0.33-0.37-0.66-0.75-0.99-1.12c-0.16-0.19-0.51-0.16-0.67,0.01
			C169.29,97.58,169.29,97.83,169.46,98.03L169.46,98.03z"/>
	</g>
</g>
<g>
	<g>
		<path class="st0" d="M172.9,95.93c0.57,0.79,0.92,1.71,0.95,2.69c0.04,1.04-0.3,1.9-0.71,2.84c-0.2,0.47,0.32,0.91,0.73,0.54
			c0.88-0.82,1.22-2.17,1.28-3.34c0.06-1.23-0.25-2.46-0.94-3.48c-0.23-0.34-0.66-0.46-1.02-0.25
			C172.88,95.1,172.67,95.6,172.9,95.93L172.9,95.93z"/>
	</g>
</g>
<g>
	<g>
		<path class="st0" d="M43.24,24.11c17.22,0.15,34.43,0.27,51.65,0.32c17.13,0.05,34.26,0.04,51.39-0.01
			c9.66-0.03,19.33-0.03,28.99-0.16c0.3,0,0.32-0.47,0.01-0.47c-17.22-0.03-34.44,0.13-51.65,0.13c-17.13,0-34.26-0.05-51.39-0.14
			c-9.66-0.05-19.32-0.09-28.99-0.17C42.93,23.62,42.91,24.11,43.24,24.11L43.24,24.11z"/>
	</g>
</g>
<g>
	<g>
		<path class="st0" d="M0.27,86.94c-0.26,1.81-0.37,3.63-0.16,5.45c0.05,0.43,0.68,0.27,0.71-0.1c0.15-1.79,0.25-3.58,0.52-5.36
			c0.04-0.28-0.27-0.52-0.52-0.52C0.5,86.41,0.31,86.65,0.27,86.94L0.27,86.94z"/>
	</g>
</g>
<g>
	<g>
		<path class="st0" d="M2.32,87.66c-0.46,1.38-0.77,2.83-0.74,4.3c0,0.22,0.16,0.41,0.38,0.43c0.2,0.02,0.45-0.1,0.5-0.33
			c0.26-1.39,0.53-2.78,0.99-4.12c0.1-0.29-0.11-0.62-0.4-0.7C2.72,87.16,2.42,87.36,2.32,87.66L2.32,87.66z"/>
	</g>
</g>
<g>
	<g>
		<path class="st0" d="M1.69,87.41c0.62-1.02,2.13-1.16,2.8-0.11c0.31,0.48,0.37,1.09,0.06,1.59c-0.28,0.44-0.84,0.78-1.38,0.7
			c-0.47-0.07-0.97,0.5-0.53,0.89C4.3,91.92,6,93.38,7.81,94.62c0.44,0.3,0.95-0.38,0.58-0.74c-1.54-1.51-3.27-2.86-4.98-4.17
			c-0.13,0.3-0.26,0.6-0.39,0.91c2.02,0.17,3.43-2.04,2.39-3.79c-1.05-1.76-3.56-1.59-4.59,0.09C0.47,87.49,1.35,87.96,1.69,87.41
			L1.69,87.41z"/>
	</g>
</g>
<g>
	<g>
		<path class="st0" d="M210.28,88.75c-0.26,1.81-0.37,3.63-0.16,5.45c0.05,0.43,0.68,0.27,0.71-0.1c0.15-1.79,0.25-3.58,0.52-5.36
			c0.04-0.28-0.27-0.52-0.52-0.52C210.51,88.22,210.32,88.46,210.28,88.75L210.28,88.75z"/>
	</g>
</g>
<g>
	<g>
		<path class="st0" d="M212.32,89.47c-0.46,1.38-0.77,2.83-0.74,4.3c0,0.22,0.16,0.41,0.38,0.43c0.2,0.02,0.45-0.1,0.5-0.33
			c0.26-1.39,0.53-2.78,0.99-4.12c0.1-0.29-0.11-0.62-0.4-0.7C212.73,88.97,212.42,89.17,212.32,89.47L212.32,89.47z"/>
	</g>
</g>
<g>
	<g>
		<path class="st0" d="M211.7,89.22c0.62-1.02,2.13-1.16,2.8-0.11c0.31,0.48,0.37,1.09,0.06,1.59c-0.28,0.44-0.84,0.78-1.38,0.7
			c-0.47-0.07-0.97,0.5-0.53,0.89c1.65,1.45,3.35,2.91,5.17,4.15c0.44,0.3,0.95-0.38,0.58-0.74c-1.54-1.51-3.27-2.86-4.98-4.17
			c-0.13,0.3-0.26,0.6-0.39,0.91c2.02,0.17,3.43-2.04,2.39-3.79c-1.05-1.76-3.56-1.59-4.59,0.09
			C210.47,89.3,211.36,89.77,211.7,89.22L211.7,89.22z"/>
	</g>
</g>
<g>
	<g>
		<path class="st1" d="M66.47,81.51c6.01-8.28,12.23-16.76,20.61-22.83c2.21-1.6,4.56-3.04,7.09-4.07c2.62-1.06,5.4-1.58,8.22-1.67
			c5.46-0.16,10.92,1.14,16.11,2.75c2.66,0.82,5.28,1.81,7.73,3.13c2.45,1.32,4.58,2.96,6.5,4.97c0.32,0.33,0.79-0.16,0.51-0.51
			c-3.14-3.83-7.93-6.09-12.52-7.65c-5.2-1.78-10.75-3.17-16.26-3.37c-2.77-0.1-5.56,0.16-8.22,0.92c-2.7,0.77-5.22,2.06-7.59,3.56
			c-4.44,2.82-8.36,6.34-11.9,10.2c-4.06,4.42-7.64,9.24-11.23,14.04C65.09,81.56,66.06,82.08,66.47,81.51L66.47,81.51z"/>
	</g>
</g>
<g>
	<g>
		<path class="st1" d="M46.61,80.31c4.79-6.17,9.41-12.54,14.66-18.34c4.64-5.13,9.95-9.47,16.04-12.77
			c5.94-3.22,12.42-5.41,19.1-6.44c6.84-1.05,13.86-0.75,20.63,0.66c3.86,0.81,7.65,1.99,11.27,3.55c3.6,1.55,6.97,3.51,10.29,5.58
			c0.26,0.16,0.6-0.25,0.35-0.45c-5.53-4.24-12.27-7.08-18.99-8.83c-6.83-1.77-13.95-2.28-20.97-1.53
			c-13.56,1.46-26.4,7.69-36.01,17.36c-3.04,3.06-5.75,6.43-8.43,9.81c-2.84,3.6-5.74,7.15-8.61,10.73
			C45.56,80.14,46.24,80.79,46.61,80.31L46.61,80.31z"/>
	</g>
</g>
<g>
	<g>
		<path class="st1" d="M27.83,80.19c6.07-7.16,12.53-13.98,19.3-20.47c3.39-3.25,6.87-6.39,10.43-9.44
			c3.58-3.07,7.21-6.12,11.13-8.76c7.64-5.14,16.49-8.28,25.58-9.59c8.81-1.27,17.88-0.85,26.54,1.21
			c4.33,1.03,8.57,2.46,12.62,4.32c3.91,1.79,7.74,3.93,10.9,6.88c0.76,0.71,1.5,1.44,2.18,2.24c0.29,0.34,0.79-0.16,0.51-0.51
			c-2.71-3.35-6.35-5.77-10.15-7.74c-3.96-2.05-8.13-3.71-12.41-4.96c-8.6-2.52-17.69-3.4-26.61-2.54
			c-9.03,0.87-18.11,3.4-25.99,7.95c-4.07,2.35-7.81,5.24-11.43,8.23c-3.68,3.03-7.28,6.16-10.79,9.39
			c-7.06,6.47-13.78,13.3-20.15,20.46c-0.79,0.89-1.58,1.79-2.36,2.69C26.75,80,27.43,80.66,27.83,80.19L27.83,80.19z"/>
	</g>
</g>
<g>
	<g>
		<path class="st1" d="M133.36,62.7c-0.06-0.24-0.12-0.49-0.19-0.73c-0.03-0.12-0.07-0.24-0.11-0.35c-0.05-0.15-0.11-0.29-0.18-0.43
			c-0.07-0.15-0.3-0.23-0.46-0.18c-0.17,0.05-0.32,0.21-0.31,0.39c0,0.15,0.01,0.3,0.03,0.45c0.02,0.13,0.04,0.25,0.07,0.38
			c0.05,0.25,0.1,0.49,0.15,0.74c0.05,0.26,0.37,0.43,0.62,0.35C133.24,63.24,133.44,62.98,133.36,62.7L133.36,62.7z"/>
	</g>
</g>
<g>
	<g>
		<path class="st1" d="M132.2,62.94c-0.84-0.11-1.68-0.15-2.52-0.05c-0.15,0.02-0.28,0.11-0.28,0.28c0,0.16,0.12,0.26,0.27,0.27
			c0.78,0.03,1.56,0.07,2.34,0.17c0.19,0.03,0.38-0.05,0.44-0.25C132.49,63.19,132.39,62.96,132.2,62.94L132.2,62.94z"/>
	</g>
</g>
<g>
	<g>
		<path class="st1" d="M138.98,51.58c-0.32-0.9-0.6-1.83-1.05-2.67c-0.14-0.27-0.54-0.07-0.49,0.2c0.17,0.91,0.52,1.79,0.82,2.67
			c0.06,0.19,0.25,0.31,0.45,0.26C138.88,51.98,139.05,51.77,138.98,51.58L138.98,51.58z"/>
	</g>
</g>
<g>
	<g>
		<path class="st1" d="M138.19,52.05c-0.46,0-0.92-0.01-1.38-0.01c-0.46,0-0.92,0.01-1.38,0.04c-0.33,0.02-0.34,0.48-0.01,0.51
			c0.46,0.03,0.92,0.05,1.38,0.04c0.46,0,0.92-0.01,1.38-0.01C138.55,52.62,138.57,52.05,138.19,52.05L138.19,52.05z"/>
	</g>
</g>
<g>
	<g>
		<path class="st1" d="M147.27,45.81c0.02-0.43,0.02-0.87-0.02-1.3c-0.04-0.45-0.09-0.89-0.24-1.33c-0.12-0.34-0.64-0.29-0.65,0.09
			c-0.01,0.42,0.01,0.84,0.01,1.27c0,0.42-0.01,0.85-0.04,1.27c-0.02,0.24,0.22,0.47,0.46,0.46
			C147.05,46.26,147.25,46.07,147.27,45.81L147.27,45.81z"/>
	</g>
</g>
<g>
	<g>
		<path class="st1" d="M145.7,45.67c-0.74-0.05-1.47-0.12-2.21-0.14c-0.15,0-0.28,0.12-0.3,0.26c-0.02,0.14,0.06,0.3,0.21,0.32
			c0.73,0.12,1.46,0.2,2.19,0.29c0.22,0.03,0.44-0.07,0.47-0.32C146.1,45.85,145.92,45.68,145.7,45.67L145.7,45.67z"/>
	</g>
</g>
<g>
	<g>
		<path class="st0" d="M48.5,0.67c-0.93-0.48-2.05-0.95-3.07-0.45c-0.95,0.47-1.32,1.62-1.56,2.57c-0.28,1.1-0.41,2.29-0.29,3.42
			c0.1,0.94,0.47,1.94,1.4,2.36c1.16,0.52,2.45-0.08,3.57-0.41c0.41-0.12,0.52-0.82,0.02-0.91c-0.58-0.1-1.12,0.02-1.69,0.15
			c-0.42,0.09-0.91,0.26-1.33,0.1c-0.88-0.32-0.88-1.7-0.89-2.45c0-1.1,0.13-2.37,0.65-3.37c0.23-0.44,0.57-0.75,1.09-0.76
			c0.58-0.01,1.14,0.26,1.65,0.51C48.55,1.68,49.01,0.93,48.5,0.67L48.5,0.67z"/>
	</g>
</g>
<g>
	<g>
		<path class="st0" d="M49.78,5.42c-0.49,1.45,0.73,3.21,2.31,3.09c0.44-0.03,0.89-0.2,1.21-0.51c0.34-0.33,0.46-0.77,0.51-1.23
			c0.08-0.73-0.27-1.53-0.83-1.99c-0.33-0.27-0.73-0.46-1.15-0.52c-0.25-0.04-0.5-0.04-0.75,0.01c-0.09,0.02-0.18,0.04-0.26,0.07
			c-0.16,0.06-0.27,0.14-0.39,0.25c-0.25,0.23-0.08,0.75,0.29,0.71c0.16-0.02,0.31-0.04,0.47-0.08c0.14-0.03-0.05,0.01,0.03-0.01
			c0.04-0.01,0.21-0.02,0.13-0.02c-0.07,0.01,0.08,0,0.07,0c0.05,0,0.09,0,0.14,0c0.03,0,0.18,0.01,0.1,0
			c0.07,0.01,0.15,0.02,0.22,0.04c0.17,0.04,0.18,0.04,0.33,0.14c0.03,0.02,0.06,0.04,0.09,0.06c-0.02-0.01-0.06-0.05,0.01,0.01
			c0.04,0.04,0.09,0.08,0.13,0.12c0.03,0.03,0.05,0.05,0.07,0.08c0.05,0.06-0.06-0.09,0.02,0.02c0.04,0.06,0.08,0.12,0.12,0.19
			c0.01,0.03,0.03,0.05,0.04,0.08c0.06,0.12-0.01-0.05,0.01,0.03c0.02,0.06,0.04,0.13,0.06,0.19c0.01,0.06,0.02,0.12,0.04,0.17
			c0.03,0.13,0-0.05,0,0.03c0,0.04,0,0.09,0,0.13c0,0.07-0.01,0.13-0.01,0.2c0.01-0.09,0-0.01,0,0.01
			c-0.01,0.04-0.02,0.08-0.03,0.12c-0.02,0.08,0.05-0.09-0.01,0.03c-0.02,0.03-0.03,0.06-0.05,0.08C52.68,6.95,52.67,6.98,52.65,7
			c0.07-0.11-0.01,0-0.03,0.03c-0.01,0.01-0.12,0.09-0.03,0.04c0.07-0.05,0,0-0.02,0.01c-0.03,0.02-0.06,0.03-0.09,0.05
			c-0.05,0.03-0.08,0.01,0.04-0.01c-0.06,0.01-0.12,0.04-0.19,0.06c-0.13,0.03,0.01,0.02,0.02,0c-0.01,0.01-0.12,0.01-0.13,0.01
			c-0.06,0-0.12,0-0.18,0c-0.14,0,0.1,0.03,0.02,0c-0.03-0.01-0.06-0.01-0.09-0.02c-0.05-0.01-0.1-0.03-0.15-0.04
			c-0.1-0.03,0.05,0.01,0.06,0.02c-0.02-0.02-0.07-0.03-0.1-0.05c-0.06-0.03-0.11-0.06-0.17-0.09C51.58,7,51.55,6.98,51.53,6.97
			c0.13,0.06,0.1,0.08,0.05,0.04c-0.1-0.09-0.18-0.18-0.27-0.27c-0.04-0.04-0.04-0.09,0.04,0.06c-0.02-0.03-0.05-0.06-0.07-0.09
			c-0.04-0.05-0.07-0.11-0.1-0.17c-0.02-0.03-0.03-0.06-0.04-0.09c-0.07-0.14,0.03,0.09,0.01,0.03c-0.02-0.07-0.05-0.13-0.06-0.2
			c-0.01-0.06-0.02-0.13-0.04-0.19c0.04,0.13,0.01,0.12,0.01,0.06c0-0.04,0-0.08,0-0.11c0-0.06,0.02-0.13,0.01-0.19
			c0.01,0.15-0.02,0.11,0,0.04c0.01-0.04,0.02-0.09,0.04-0.13c0.11-0.34-0.12-0.75-0.47-0.82C50.26,4.85,49.91,5.05,49.78,5.42
			L49.78,5.42z"/>
	</g>
</g>
<g>
	<g>
		<path class="st0" d="M54.98,7.74c-0.15-0.43-0.23-0.85-0.21-1.3c0.01-0.2,0.03-0.38,0.09-0.57c0.01-0.02,0.01-0.04,0.02-0.06
			c0,0.01-0.02,0.05,0,0.01c0.01-0.02,0.02-0.04,0.03-0.05c0,0.01-0.04,0.05-0.01,0.01c0.01-0.01,0.08-0.06,0.02-0.03
			c-0.05,0.03,0,0,0.01,0c0.02-0.01,0.06-0.01,0.01-0.01c-0.08,0.01,0.05-0.02-0.02,0c-0.05,0.02,0.04,0,0.06,0
			c0.06-0.01-0.06-0.02-0.01,0c0.02,0.01,0.04,0.01,0.05,0.01c0.04,0.01,0.1,0.04,0.03,0.01c0.04,0.02,0.08,0.04,0.12,0.06
			c0.03,0.02,0.12,0.08,0.05,0.03c0.03,0.03,0.06,0.05,0.1,0.08c0.07,0.06,0.13,0.14,0.2,0.21c-0.06-0.07-0.01-0.01,0.02,0.03
			c0.03,0.04,0.05,0.08,0.08,0.12c0.06,0.09,0.12,0.19,0.17,0.29c0.05,0.08,0.09,0.17,0.13,0.26c0.01,0.03,0.03,0.06,0.04,0.09
			c0,0.01,0.03,0.08,0.01,0.03C55.97,6.89,55.99,6.96,56,6.97c0.01,0.03,0.02,0.06,0.03,0.09c0.08,0.23,0.14,0.46,0.19,0.69
			c0.06,0.26,0.09,0.51,0.21,0.75c0.08,0.15,0.27,0.22,0.43,0.2c0.19-0.03,0.3-0.15,0.37-0.31c0.12-0.28,0.08-0.59,0.03-0.89
			c-0.04-0.25-0.11-0.48-0.2-0.72c-0.2-0.5-0.46-1.03-0.84-1.41c-0.36-0.35-0.87-0.62-1.39-0.53c-0.27,0.05-0.51,0.22-0.66,0.45
			c-0.15,0.23-0.19,0.51-0.23,0.78c-0.07,0.63-0.01,1.28,0.2,1.88c0.07,0.21,0.29,0.37,0.52,0.3C54.86,8.19,55.06,7.96,54.98,7.74
			L54.98,7.74z"/>
	</g>
</g>
<g>
	<g>
		<path class="st0" d="M59.77,4.11c-0.42,0.2-0.72,0.56-0.9,0.99c-0.05,0.12,0,0.29,0.1,0.38c0.51,0.45,0.88,1.16,0.84,1.8
			c-0.01,0.11-0.04,0.22-0.1,0.31c0.05-0.08-0.02,0.01-0.03,0.02c-0.04,0.06,0.08-0.04-0.01,0c-0.09,0.05,0.08-0.03,0.01-0.01
			c-0.05,0.02-0.1-0.01,0.01,0c-0.06-0.01-0.13-0.01-0.19-0.01c0.04,0,0.1,0.02,0.03,0c-0.03-0.01-0.14-0.05-0.01,0
			C59.5,7.6,59.47,7.6,59.45,7.59c-0.02-0.01-0.09-0.06-0.04-0.02c0.06,0.05-0.02-0.02-0.02-0.03c0.01,0.01,0.02,0.03,0.04,0.04
			c-0.02-0.04-0.02-0.04,0,0.01c-0.14-0.4-0.69-0.4-0.83,0.01c-0.18,0.54,0.26,1.02,0.77,1.11C60,8.83,60.55,8.37,60.71,7.8
			c0.15-0.54,0-1.08-0.21-1.59c-0.21-0.51-0.55-0.94-0.97-1.3c0.03,0.13,0.07,0.25,0.1,0.38c0.1-0.24,0.29-0.41,0.51-0.51
			c0.19-0.09,0.25-0.35,0.15-0.53C60.19,4.05,59.95,4.02,59.77,4.11L59.77,4.11z"/>
	</g>
</g>
<g>
	<g>
		<path class="st0" d="M62.52,2.92c0.15,0.82,0.3,1.64,0.45,2.46c0.16,0.82,0.28,1.69,0.65,2.45c0.1,0.21,0.39,0.3,0.6,0.24
			c0.24-0.06,0.39-0.28,0.41-0.52c0.08-0.84-0.12-1.72-0.26-2.55c-0.14-0.82-0.28-1.64-0.43-2.47c-0.07-0.38-0.54-0.62-0.89-0.5
			C62.66,2.16,62.45,2.52,62.52,2.92L62.52,2.92z"/>
	</g>
</g>
<g>
	<g>
		<path class="st0" d="M62.64,5.55c0.36-0.01,0.73-0.01,1.09-0.03c0.18-0.01,0.36-0.02,0.54-0.03c0.21-0.01,0.41-0.05,0.61-0.08
			c0.18-0.02,0.33-0.24,0.33-0.41c0-0.17-0.12-0.38-0.31-0.41c-0.38-0.05-0.76-0.09-1.15-0.1c-0.36-0.02-0.72-0.02-1.09-0.03
			c-0.29-0.01-0.57,0.26-0.56,0.55C62.11,5.3,62.34,5.56,62.64,5.55L62.64,5.55z"/>
	</g>
</g>
<g>
	<g>
		<path class="st0" d="M69.08,5.13c-1.02-0.89-2.8-0.24-3.01,1.1c-0.12,0.76,0.28,1.5,0.91,1.92c0.63,0.42,1.45,0.36,2.05-0.08
			c0.67-0.5,0.94-1.27,0.87-2.08c-0.04-0.46-0.71-0.59-0.84-0.1c-0.17,0.65,0.04,1.38,0.43,1.9c0.46,0.62,1.18,0.95,1.95,0.77
			c0.46-0.11,0.43-0.73,0.02-0.86c-0.41-0.13-0.79-0.38-1.07-0.63c-0.31-0.28-0.47-0.64-0.49-1.08c-0.28,0.04-0.56,0.08-0.84,0.12
			c0.07,0.23-0.01,0.5-0.14,0.7c-0.13,0.2-0.35,0.37-0.49,0.43C68.3,7.29,68.21,7.3,68.12,7.3c-0.15,0-0.17,0-0.31-0.05
			c0.06,0.02-0.12-0.06-0.14-0.07c-0.01-0.01-0.15-0.1-0.09-0.05c-0.06-0.04-0.11-0.1-0.16-0.15c-0.02-0.02-0.13-0.15-0.09-0.09
			c-0.15-0.2-0.23-0.39-0.2-0.63c0.02-0.18,0.1-0.3,0.26-0.43c0.11-0.09,0.34-0.17,0.51-0.18c0.2-0.01,0.38,0.03,0.53,0.15
			C68.86,6.15,69.52,5.52,69.08,5.13L69.08,5.13z"/>
	</g>
</g>
<g>
	<g>
		<path class="st0" d="M72.14,7.18C72,6.76,71.96,6.32,72.07,5.9c0.02-0.06,0.04-0.12,0.06-0.18c0.01-0.03,0.02-0.06,0.03-0.09
			c-0.01,0.03-0.01,0.02,0.01-0.02c0.02-0.04,0.04-0.07,0.06-0.1c0.03-0.04,0.03-0.04,0-0.01c0.02-0.02,0.03-0.04,0.05-0.06
			c-0.04,0.03-0.04,0.03,0,0.01c-0.05,0.02-0.05,0.02,0,0.01c-0.06,0.01-0.06,0.01-0.01,0.01c-0.05-0.01-0.06-0.01-0.03,0
			c0.03,0.01,0.02,0-0.03-0.01c0.02,0.01,0.04,0.02,0.06,0.03c0.04,0.03,0.04,0.03-0.01-0.01c0.02,0.02,0.04,0.03,0.06,0.05
			c0.04,0.04,0.07,0.08,0.11,0.12c-0.07-0.09,0,0.01,0.02,0.03c0.06,0.09,0.11,0.19,0.16,0.29c0.11,0.23,0.23,0.46,0.35,0.69
			c0.12,0.23,0.23,0.47,0.36,0.69c0.14,0.25,0.31,0.48,0.51,0.69c0.32,0.35,0.95-0.03,0.83-0.48c-0.14-0.5-0.39-0.92-0.65-1.36
			c-0.24-0.41-0.46-0.85-0.79-1.2c-0.33-0.36-0.82-0.57-1.29-0.35c-0.42,0.2-0.58,0.72-0.65,1.15c-0.08,0.53-0.07,1.05,0.11,1.56
			c0.07,0.2,0.26,0.32,0.47,0.27C72.04,7.6,72.2,7.38,72.14,7.18L72.14,7.18z"/>
	</g>
</g>
<g>
	<g>
		<path class="st0" d="M74.93,2.95c0.18,0.8,0.37,1.6,0.57,2.39c0.2,0.81,0.43,1.64,0.81,2.39c0.27,0.54,1.13,0.25,1.13-0.31
			c0-0.84-0.17-1.69-0.36-2.51c-0.19-0.8-0.38-1.6-0.57-2.39c-0.1-0.41-0.57-0.69-0.98-0.56C75.1,2.1,74.82,2.51,74.93,2.95
			L74.93,2.95z"/>
	</g>
</g>
<g>
	<g>
		<path class="st0" d="M75.3,5.08c0.47-0.04,0.95-0.06,1.43-0.04c0.48,0.01,0.95,0.04,1.42,0.02c0.26-0.02,0.48-0.19,0.52-0.45
			c0.04-0.27-0.12-0.46-0.37-0.55c-0.49-0.18-1-0.24-1.52-0.26c-0.48-0.02-0.97-0.01-1.45,0.02c-0.33,0.02-0.66,0.28-0.66,0.64
			C74.68,4.78,74.94,5.11,75.3,5.08L75.3,5.08z"/>
	</g>
</g>
<g>
	<g>
		<path class="st0" d="M87.28,3.81c-1.03-0.03-1.9,0.84-2.12,1.81c-0.26,1.13,0.35,2.21,1.34,2.76c0.58,0.32,1.23,0.41,1.87,0.27
			c0.48-0.1,0.5-0.84,0.02-0.95c-0.12-0.03-0.24-0.06-0.36-0.1c-0.07-0.02-0.14-0.04-0.21-0.07c0.12,0.04-0.04-0.02-0.05-0.02
			c-0.07-0.03-0.13-0.05-0.2-0.08c-0.07-0.03-0.07-0.03,0,0c-0.05-0.02-0.1-0.04-0.15-0.07c-0.11-0.06-0.23-0.12-0.33-0.18
			c-0.02-0.02-0.21-0.15-0.09-0.05c-0.04-0.03-0.08-0.07-0.12-0.1c-0.09-0.08-0.18-0.17-0.26-0.26c-0.09-0.09,0.05,0.08-0.04-0.06
			c-0.03-0.05-0.07-0.1-0.1-0.16c-0.03-0.05-0.05-0.11-0.08-0.17c-0.02-0.04-0.01-0.03,0.01,0.03c-0.01-0.03-0.02-0.06-0.03-0.09
			c-0.01-0.05-0.03-0.09-0.03-0.14c-0.01-0.03-0.01-0.06-0.02-0.09c0.01,0.08,0.01,0.08,0,0.01c0-0.05,0-0.1,0-0.15
			c0-0.03,0.02-0.23,0-0.09c0.02-0.11,0.05-0.22,0.08-0.33c0.01-0.02,0.07-0.16,0.02-0.05c0.03-0.06,0.06-0.12,0.09-0.17
			c0.02-0.04,0.05-0.08,0.08-0.12c-0.07,0.11,0.04-0.05,0.06-0.07c0.03-0.03,0.07-0.07,0.1-0.1c0.02-0.02,0.05-0.04,0.07-0.06
			c-0.05,0.04-0.06,0.04,0,0.01c0.04-0.02,0.08-0.05,0.12-0.07c0.03-0.01,0.06-0.03,0.08-0.04C86.97,4.89,86.96,4.89,87,4.88
			c0.05-0.02,0.1-0.03,0.16-0.04c0.06-0.01,0.06-0.01,0.01,0c0.03,0,0.06,0,0.1-0.01C87.91,4.8,87.95,3.83,87.28,3.81L87.28,3.81z"
			/>
	</g>
</g>
<g>
	<g>
		<path class="st0" d="M89.88,5.13c-0.13,0.38-0.14,0.78-0.08,1.17c0.05,0.33,0.19,0.69,0.39,0.96c0.23,0.31,0.51,0.59,0.87,0.76
			c0.39,0.19,0.88,0.3,1.3,0.14c0.27-0.1,0.5-0.28,0.63-0.54c0.09-0.19,0.16-0.39,0.2-0.6c0.07-0.39,0.07-0.78-0.01-1.17
			c-0.15-0.73-0.68-1.38-1.42-1.54c-0.41-0.09-0.84-0.06-1.22,0.13c-0.39,0.19-0.69,0.56-0.71,1c-0.01,0.38,0.49,0.57,0.75,0.29
			c0.07-0.08,0.16-0.14,0.23-0.22c0.04-0.05-0.12,0.08-0.04,0.03c0.02-0.01,0.05-0.03,0.07-0.04c0.05-0.03,0.11-0.06,0.16-0.09
			c0.06-0.04-0.15,0.05-0.05,0.02C90.97,5.42,91,5.41,91.03,5.4c0.06-0.02,0.11-0.03,0.17-0.05c0.02,0,0.04-0.01,0.06-0.01
			c0.11-0.02-0.14,0.01-0.03,0c0.06,0,0.13-0.01,0.19-0.01c0.02,0,0.05,0.01,0.07,0c-0.11,0.02-0.08-0.01-0.02,0
			c0.06,0.01,0.12,0.02,0.17,0.04c0.02,0.01,0.04,0.02,0.06,0.02c-0.11-0.01-0.07-0.03-0.02,0c0.03,0.01,0.05,0.03,0.08,0.04
			c0.02,0.01,0.03,0.02,0.05,0.03c0.04,0.03,0.03,0.02-0.03-0.03c0.02,0.04,0.09,0.08,0.13,0.11c0.02,0.02,0.05,0.05,0.07,0.08
			c0.08,0.08-0.06-0.1,0,0c0.03,0.05,0.06,0.1,0.09,0.15c0.02,0.03,0.03,0.06,0.05,0.09c0.02,0.05,0.02,0.04-0.01-0.03
			c0.01,0.02,0.02,0.04,0.02,0.07c0.02,0.06,0.03,0.11,0.05,0.17c0.01,0.03,0.01,0.07,0.02,0.1c0,0.03,0.03,0.14,0,0.01
			c0.03,0.12,0.02,0.31-0.01,0.43c0.04-0.11,0.01-0.04,0-0.01c-0.01,0.03-0.01,0.06-0.02,0.09c-0.02,0.07-0.04,0.14-0.06,0.21
			C92.1,6.95,92.09,6.98,92.08,7c-0.02,0.07,0.06-0.12,0,0c-0.02,0.04-0.04,0.07-0.06,0.11c-0.04,0.05-0.03,0.05,0.01-0.02
			C91.99,7.14,92,7.13,92.07,7.07c-0.01,0-0.12,0.08-0.02,0.02c0.11-0.07-0.04,0.02-0.03,0c0.03,0,0.05-0.01,0.08-0.01
			c-0.02,0-0.05,0-0.07,0c-0.01,0-0.02,0-0.04,0c-0.06,0-0.05,0,0.04,0.01c0,0-0.16-0.04-0.18-0.04c-0.12-0.03,0.12,0.06,0.01,0.01
			C91.82,7.03,91.78,7.02,91.74,7c-0.05-0.03-0.09-0.06-0.14-0.08c-0.1-0.06,0.11,0.09,0.02,0.02c-0.02-0.02-0.05-0.04-0.07-0.06
			c-0.04-0.04-0.08-0.07-0.12-0.11c-0.02-0.02-0.04-0.05-0.07-0.07c-0.07-0.08,0.1,0.14,0,0c-0.08-0.12-0.15-0.24-0.21-0.37
			c-0.05-0.11,0.05,0.13,0.02,0.05c-0.01-0.04-0.03-0.07-0.04-0.11c-0.02-0.07-0.04-0.15-0.06-0.22c0-0.02-0.01-0.04-0.01-0.06
			c-0.02-0.11,0.01,0.17,0,0c0-0.08,0-0.15,0-0.23c0-0.02,0-0.04,0.01-0.07c0.01-0.11-0.03,0.17,0,0c0.02-0.08,0.04-0.15,0.06-0.22
			c0.12-0.32-0.13-0.72-0.45-0.78C90.33,4.59,90,4.79,89.88,5.13L89.88,5.13z"/>
	</g>
</g>
<g>
	<g>
		<path class="st0" d="M95.03,8.23c0.18-0.6-0.02-1.17-0.15-1.76c-0.07-0.32-0.06-0.81,0.22-1.03c0.27-0.21,0.48,0.25,0.54,0.49
			c0.14,0.54,0.1,1.12,0.52,1.55c0.23,0.23,0.55,0.11,0.72-0.11c0.29-0.39,0.28-0.89,0.25-1.36c-0.02-0.27-0.07-0.87,0.36-0.82
			c0.49,0.06,0.63,0.64,0.69,1.05c0.08,0.58,0,1.6,0.63,1.9c0.37,0.18,0.72-0.07,0.77-0.44c0.03-0.22-0.07-0.39-0.13-0.59
			c-0.06-0.18-0.09-0.36-0.13-0.55c-0.06-0.32-0.12-0.64-0.23-0.94c-0.24-0.67-0.75-1.23-1.51-1.23c-0.65,0-1.06,0.49-1.16,1.09
			c-0.04,0.27-0.04,0.54-0.06,0.8c-0.02,0.23-0.04,0.42-0.2,0.56c0.24,0.03,0.48,0.05,0.72,0.08c-0.32-0.52-0.28-1.15-0.58-1.68
			c-0.3-0.52-0.94-0.84-1.5-0.52c-0.47,0.27-0.69,0.86-0.7,1.38c0,0.64,0.38,1.3,0.15,1.93C94.08,8.53,94.88,8.72,95.03,8.23
			L95.03,8.23z"/>
	</g>
</g>
<g>
	<g>
		<path class="st0" d="M101.31,7.6c-0.07-0.43-0.12-0.85-0.14-1.29c-0.01-0.21-0.02-0.42-0.01-0.63c0-0.07,0-0.14,0.02-0.21
			c0.01-0.02,0.03-0.09,0.03-0.09c0,0.01,0.05-0.05,0.02-0.03c-0.03,0.03-0.03,0.01,0.01,0c-0.1,0.04,0.04,0-0.01,0
			c-0.05,0,0.06,0,0.07,0c-0.06-0.01,0.01,0,0.03,0.01c0.07,0.02-0.08-0.05,0.03,0.01c0.01,0.01,0.11,0.07,0.06,0.04
			c-0.03-0.02,0.11,0.14,0.06,0.05c0.09,0.14,0.11,0.25,0.15,0.44c0.01,0.06,0.01,0.12,0.02,0.22c0.01,0.11,0.02,0.15,0.03,0.28
			c0.32,0,0.63-0.01,0.95-0.01c-0.02-0.26-0.02-0.52,0.02-0.78c0.02-0.14,0.05-0.29,0.1-0.42c0.01-0.02,0.02-0.07,0.04-0.07
			c0.02,0-0.08,0.05-0.07,0.04c-0.04,0-0.04,0,0.02,0c-0.01,0-0.02,0-0.02,0c0.06,0.01,0.04,0.01,0.1,0.04
			c0.02,0.01,0.05,0.03,0.07,0.04c-0.03-0.02-0.02-0.02,0.02,0.02c0.04,0.03,0.08,0.06,0.11,0.1c0.08,0.07,0.15,0.15,0.22,0.23
			c0.02,0.02,0.03,0.04,0.05,0.06c-0.03-0.05-0.03-0.04,0,0.01c0.03,0.04,0.06,0.08,0.08,0.12c0.05,0.08,0.11,0.17,0.15,0.26
			c0.03,0.05,0.05,0.1,0.08,0.16c0.01,0.02,0.08,0.18,0.03,0.07c0.08,0.2,0.13,0.41,0.17,0.63c0.02,0.11,0-0.06,0.01,0.06
			c0,0.05,0.01,0.1,0.01,0.15c0.01,0.12,0,0.23,0,0.35c-0.02,0.21-0.03,0.42-0.04,0.63c-0.01,0.2,0.14,0.38,0.33,0.42
			c0.2,0.05,0.4-0.05,0.51-0.21c0.53-0.8,0.31-1.94-0.1-2.74c-0.22-0.43-0.56-0.79-0.95-1.07c-0.47-0.34-1.17-0.41-1.53,0.12
			c-0.16,0.23-0.22,0.55-0.28,0.82c-0.07,0.32-0.1,0.65-0.1,0.98c0.01,0.61,0.92,0.58,0.95-0.01c0.03-0.56,0.01-1.12-0.4-1.55
			c-0.34-0.36-0.94-0.5-1.38-0.26c-0.53,0.29-0.54,0.9-0.53,1.43c0.02,0.61,0.08,1.21,0.19,1.81c0.04,0.22,0.3,0.34,0.51,0.29
			C101.23,8.04,101.35,7.82,101.31,7.6L101.31,7.6z"/>
	</g>
</g>
<g>
	<g>
		<path class="st0" d="M105.55,5.85c0.38,0.85,1.07,1.56,1.89,2c0.38,0.21,0.85-0.08,0.87-0.5c0.03-0.53,0.05-1.06,0.08-1.59
			c0.01-0.26,0.03-0.52,0.03-0.78c0-0.13,0.01-0.26,0-0.39c-0.01-0.18-0.04-0.33-0.11-0.5c-0.12-0.29-0.55-0.21-0.69,0.01
			c-0.16,0.26-0.17,0.56-0.21,0.85c-0.04,0.27-0.06,0.54-0.09,0.81c-0.05,0.53-0.11,1.06-0.16,1.59c0.29-0.17,0.58-0.33,0.87-0.5
			c-0.09-0.04-0.18-0.09-0.27-0.14c-0.05-0.03-0.09-0.06-0.14-0.09c-0.02-0.01-0.14-0.1-0.04-0.02c-0.16-0.12-0.3-0.25-0.44-0.4
			c-0.07-0.07-0.14-0.15-0.2-0.23c0.06,0.08,0,0-0.02-0.04c-0.03-0.04-0.05-0.08-0.08-0.12c-0.11-0.17-0.21-0.35-0.29-0.54
			c-0.12-0.27-0.53-0.34-0.76-0.19C105.49,5.27,105.42,5.56,105.55,5.85L105.55,5.85z"/>
	</g>
</g>
<g>
	<g>
		<path class="st0" d="M110.42,7.04c-0.03-0.06-0.06-0.11-0.08-0.17c-0.01-0.02-0.02-0.04-0.03-0.06c-0.03-0.07,0.02,0.06-0.01-0.02
			c-0.04-0.12-0.08-0.24-0.11-0.36c-0.03-0.11-0.05-0.23-0.07-0.35c0,0.02,0.01,0.07,0-0.02c0-0.03,0-0.06-0.01-0.09
			c0-0.06,0-0.13,0-0.19c0-0.06,0-0.13,0.01-0.19c0-0.02,0.02-0.15,0.01-0.1c-0.01,0.05,0.02-0.07,0.02-0.09
			c0.01-0.02,0.02-0.05,0.02-0.07c0.02-0.08-0.02,0.03,0-0.01c0.02-0.04,0.05-0.07,0.07-0.11c-0.06,0.11,0-0.04,0.04-0.04
			c0.01,0-0.11,0.06-0.02,0.02c0.01-0.01,0.06-0.02,0.01-0.01c-0.08,0.02,0.07-0.01,0,0c-0.06,0.01,0.06,0,0.07,0
			c0.02,0,0.09,0.02,0.01,0c0.03,0.01,0.06,0.01,0.09,0.02c0.04,0.01,0.09,0.02,0.13,0.03c0.04,0.01,0.08,0.03,0.12,0.04
			c0.09,0.03-0.01-0.01-0.02-0.01c0.02,0,0.06,0.03,0.08,0.04c0.08,0.04,0.16,0.08,0.23,0.13c0.02,0.01,0.12,0.09,0.06,0.04
			c-0.06-0.05,0,0,0.02,0.02c0.02,0.02,0.05,0.04,0.07,0.06c0.07,0.06,0.13,0.12,0.19,0.19c0.02,0.02,0.08,0.07,0.08,0.1
			c0,0-0.08-0.11-0.02-0.02c0.02,0.02,0.04,0.05,0.05,0.07c0.05,0.08,0.1,0.15,0.14,0.23c0.02,0.04,0.04,0.08,0.06,0.11
			c0.01,0.03,0.05,0.07,0.01,0.02c-0.04-0.05,0,0.01,0.01,0.04c0.07,0.19,0.11,0.39,0.15,0.59c0.02,0.1,0-0.02,0-0.03
			c0.01,0.02,0.01,0.07,0.01,0.09c0,0.06,0.01,0.11,0.02,0.17c0.01,0.07-0.01-0.13,0-0.01c0,0.05,0,0.1,0.01,0.14
			c0.02,0.23,0.01,0.12,0.01,0.07c0,0.04,0.01,0.07,0.01,0.11c0.01,0.18,0.12,0.37,0.31,0.41c0.19,0.04,0.39-0.04,0.49-0.21
			c0.53-0.94,0-2.17-0.77-2.81c-0.41-0.34-0.95-0.62-1.5-0.61c-0.39,0.01-0.72,0.18-0.94,0.5c-0.16,0.23-0.22,0.52-0.25,0.79
			c-0.09,0.7,0.07,1.43,0.38,2.05c0.11,0.22,0.44,0.29,0.65,0.16C110.46,7.54,110.54,7.28,110.42,7.04L110.42,7.04z"/>
	</g>
</g>
<g>
	<g>
		<path class="st0" d="M113.92,6.31c0.06,0.23,0.12,0.47,0.18,0.7c0.06,0.23,0.15,0.46,0.23,0.69c0.04,0.13,0.12,0.25,0.24,0.31
			c0.1,0.05,0.21,0.07,0.32,0.05c0.24-0.03,0.48-0.25,0.47-0.51c-0.02-0.29-0.03-0.57-0.07-0.85c-0.03-0.25-0.07-0.49-0.1-0.74
			c-0.02-0.15-0.17-0.32-0.3-0.39c-0.14-0.08-0.34-0.1-0.49-0.06c-0.16,0.05-0.32,0.15-0.41,0.31
			C113.91,5.98,113.87,6.15,113.92,6.31L113.92,6.31z"/>
	</g>
</g>
<g>
	<g>
		<path class="st0" d="M113.96,4.05c0.12-0.04,0.24-0.09,0.35-0.16c0.11-0.07,0.21-0.14,0.3-0.24c0.03-0.04,0.06-0.07,0.08-0.11
			c0.04-0.06,0.06-0.12,0.06-0.19c0.01-0.04,0.01-0.09,0-0.13c0-0.07-0.02-0.13-0.06-0.19c-0.06-0.07-0.11-0.15-0.17-0.22
			c-0.04-0.04-0.08-0.08-0.11-0.12c-0.06-0.07-0.14-0.12-0.22-0.16c-0.05-0.03-0.11-0.06-0.17-0.07c-0.05-0.01-0.11-0.01-0.17-0.02
			c-0.06,0-0.11,0.01-0.16,0.04c-0.06,0.02-0.1,0.05-0.14,0.09c-0.08,0.08-0.12,0.18-0.13,0.29c0,0.04,0,0.07,0,0.11
			c0,0.02,0,0.05,0.01,0.07c0.02,0.04,0.03,0.08,0.05,0.12c0.01,0.01,0.01,0.03,0.02,0.04c0.01,0.02,0.02,0.05,0.03,0.07
			c0.02,0.04,0.06,0.09,0.1,0.13c0.01,0.01,0.02,0.02,0.03,0.03c0.03,0.04,0.07,0.08,0.1,0.12c0.03,0.04,0.08,0.07,0.12,0.11
			c-0.03-0.21-0.05-0.41-0.08-0.62c-0.02,0.03-0.04,0.06-0.06,0.08c0.03-0.03,0.05-0.07,0.08-0.1c-0.03,0.04-0.06,0.07-0.1,0.1
			c0.04-0.03,0.07-0.05,0.11-0.08c-0.05,0.03-0.1,0.06-0.16,0.09c0.04-0.02,0.08-0.03,0.12-0.05c-0.02,0.01-0.05,0.02-0.07,0.03
			c-0.13,0.04-0.24,0.12-0.31,0.23c-0.06,0.1-0.09,0.25-0.05,0.37c0.04,0.12,0.11,0.24,0.23,0.3C113.7,4.06,113.83,4.09,113.96,4.05
			L113.96,4.05z"/>
	</g>
</g>
<g>
	<g>
		<path class="st0" d="M118.54,5.02c-0.87-0.1-1.74,0.6-1.96,1.42c-0.24,0.89,0.26,1.77,1.1,2.1c0.45,0.18,0.98,0.17,1.4-0.11
			c0.19-0.13,0.34-0.37,0.27-0.61c-0.07-0.22-0.28-0.41-0.52-0.4c-0.04,0-0.08,0-0.13,0c-0.02,0-0.1-0.01,0,0
			c0.11,0.01,0.02,0-0.01,0c-0.06-0.01-0.12-0.01-0.19-0.02c-0.1-0.01,0.13,0.02,0.06,0.01c-0.04-0.01-0.09-0.02-0.13-0.03
			c-0.02-0.01-0.04-0.01-0.06-0.02c-0.09-0.03,0.08,0.03,0.08,0.03c-0.01,0.01-0.11-0.05-0.12-0.05c-0.09-0.04-0.17-0.09-0.24-0.14
			c0.05,0.03,0.09,0.07,0.14,0.1c-0.11-0.08-0.21-0.18-0.3-0.29c0.04,0.05,0.07,0.1,0.11,0.14c-0.07-0.09-0.12-0.18-0.16-0.28
			c0.02,0.06,0.05,0.11,0.07,0.17c-0.04-0.09-0.06-0.19-0.08-0.29c0.01,0.06,0.01,0.12,0.02,0.17c0-0.05-0.01-0.1-0.01-0.15
			c0-0.02,0-0.04,0-0.06c0.01-0.12,0,0.05-0.01,0.06c0.02-0.01,0.03-0.12,0.04-0.14c0.01-0.02,0.01-0.04,0.02-0.06
			c0.02-0.07-0.08,0.16-0.02,0.06c0.02-0.04,0.04-0.08,0.06-0.11c0.01-0.02,0.03-0.04,0.05-0.07c0.04-0.07-0.1,0.12-0.05,0.06
			c0.07-0.08,0.14-0.15,0.22-0.21c-0.05,0.04-0.09,0.07-0.14,0.11c0.05-0.04,0.11-0.07,0.16-0.11c0.03-0.02,0.06-0.03,0.09-0.04
			c-0.18,0.09-0.1,0.04-0.04,0.02c0.03-0.01,0.06-0.02,0.09-0.03c0.06-0.01,0.13,0.01-0.04,0c0.06,0,0.13-0.01,0.19,0
			c0.33,0.02,0.66-0.31,0.65-0.63c0-0.16-0.06-0.34-0.18-0.45C118.85,5.07,118.71,5.04,118.54,5.02L118.54,5.02z"/>
	</g>
</g>
<g>
	<g>
		<path class="st0" d="M123.49,5.28c-1.21-0.24-2.41,0.71-2.33,1.98c0.02,0.31,0.1,0.63,0.29,0.88c0.24,0.31,0.62,0.37,0.97,0.22
			c0.54-0.23,1.11-0.58,1.44-1.07c0.35-0.52,0.34-1.19,0.05-1.72c-0.12-0.22-0.51-0.24-0.62,0.01c-0.3,0.67,0.02,1.44,0.57,1.88
			c0.64,0.52,1.54,0.61,2.32,0.46c0.47-0.09,0.47-0.8,0.02-0.91c-0.78-0.18-2.3-0.09-2.24-1.27c-0.21,0.09-0.41,0.17-0.62,0.26
			c0.34,0.28,0.01,0.76-0.23,0.98c-0.17,0.15-0.38,0.25-0.57,0.36c-0.11,0.06-0.23,0.12-0.34,0.17c-0.01,0-0.1,0.04-0.1,0.04
			c-0.04,0.01-0.01,0.02,0.06,0.04c0.08,0.06,0.09,0.06,0.04-0.01c-0.01-0.08-0.07-0.17-0.1-0.25c-0.03-0.1-0.04-0.2-0.03-0.31
			c0.01-0.2,0.07-0.4,0.18-0.56c0.22-0.32,0.64-0.47,1.02-0.4c0.22,0.04,0.44-0.07,0.51-0.29C123.83,5.56,123.7,5.32,123.49,5.28
			L123.49,5.28z"/>
	</g>
</g>
<g>
	<g>
		<path class="st0" d="M127.12,4.09c0.18,1.45,0.45,2.9,1.13,4.21c0.12,0.23,0.42,0.33,0.66,0.26c0.23-0.06,0.47-0.31,0.45-0.57
			c-0.13-1.46-0.45-2.89-0.63-4.34c-0.05-0.43-0.62-0.69-1-0.57C127.26,3.23,127.06,3.62,127.12,4.09L127.12,4.09z"/>
	</g>
</g>
<g>
	<g>
		<path class="st0" d="M126.77,6.05c0.65-0.03,1.31-0.06,1.96-0.09c0.67-0.03,1.34-0.12,2-0.22c0.22-0.04,0.38-0.3,0.35-0.51
			c-0.03-0.24-0.22-0.38-0.45-0.4c-1.28-0.11-2.55-0.05-3.84-0.01c-0.32,0.01-0.65,0.28-0.64,0.62
			C126.16,5.77,126.42,6.06,126.77,6.05L126.77,6.05z"/>
	</g>
</g>
<g>
	<g>
		<path class="st0" d="M131.88,6.59c0.05,0.28,0.09,0.57,0.17,0.85c0.04,0.14,0.07,0.27,0.11,0.41c0.04,0.14,0.1,0.28,0.15,0.41
			c0.04,0.12,0.1,0.23,0.22,0.29c0.09,0.05,0.19,0.06,0.3,0.05c0.23-0.03,0.42-0.23,0.43-0.47c0.01-0.29,0-0.58-0.03-0.87
			c-0.03-0.33-0.09-0.66-0.14-0.99c-0.02-0.15-0.16-0.3-0.29-0.37c-0.13-0.07-0.32-0.1-0.46-0.05C132,5.94,131.81,6.25,131.88,6.59
			L131.88,6.59z"/>
	</g>
</g>
<g>
	<g>
		<path class="st0" d="M131.87,4.06c0.05-0.01,0.1-0.02,0.14-0.04c0.05-0.02,0.1-0.03,0.14-0.05c0.06-0.02,0.13-0.04,0.19-0.07
			c0.04-0.02,0.06-0.02,0.09-0.04c0.01-0.01,0.02-0.01,0.03-0.02c0.02-0.01,0.04-0.03,0.06-0.04c0.06-0.04,0.12-0.09,0.16-0.15
			c0.01-0.03,0.03-0.07,0.04-0.1c0.02-0.05,0.02-0.1,0.01-0.16c0-0.04-0.01-0.07-0.03-0.1c-0.01-0.04-0.03-0.07-0.05-0.09
			c-0.02-0.03-0.04-0.06-0.08-0.07c-0.04-0.04-0.09-0.06-0.14-0.07c-0.02,0-0.05-0.01-0.07-0.01c-0.06-0.01-0.13-0.02-0.18-0.02
			c-0.06,0-0.12,0.02-0.18,0.03c-0.03,0-0.05,0.01-0.08,0.01c-0.05,0.01-0.1,0.02-0.15,0.02c-0.03,0-0.05,0.01-0.08,0.01
			c-0.03,0.01-0.05,0.02-0.08,0.02c-0.13,0.04-0.24,0.12-0.31,0.24c-0.04,0.06-0.06,0.11-0.06,0.18c-0.01,0.06-0.01,0.13,0,0.19
			c0.04,0.12,0.11,0.24,0.23,0.3c0.04,0.02,0.08,0.03,0.12,0.05C131.7,4.08,131.79,4.08,131.87,4.06L131.87,4.06z"/>
	</g>
</g>
<g>
	<g>
		<path class="st0" d="M134.75,6.85c0.27,0.21,0.55,0.42,0.85,0.59c0.32,0.18,0.66,0.39,1.04,0.34c0.65-0.09,1.01-0.91,1.1-1.49
			c0.1-0.6-0.07-1.19-0.5-1.63c-0.44-0.45-1.09-0.6-1.67-0.34c-0.62,0.28-0.97,1.08-0.63,1.69c0.1,0.17,0.32,0.23,0.49,0.16
			c0.19-0.08,0.27-0.26,0.24-0.46c0.01,0.07,0-0.03,0-0.05c0-0.01,0.01-0.09,0-0.03c-0.01,0.08,0.02-0.1,0.01-0.09
			c-0.02,0.11,0.01-0.03,0.02-0.05c0-0.01,0.02-0.07,0-0.01c-0.02,0.06,0.02-0.03,0.02-0.04c0.02-0.04,0.04-0.07,0.06-0.1
			c0.01-0.01,0.02-0.03,0.03-0.04c0.05-0.08-0.01,0.01-0.01,0.02c0-0.03,0.07-0.07,0.09-0.09c0.01-0.01,0.07-0.06,0.02-0.02
			c-0.06,0.04,0.01,0,0.02-0.01c0.03-0.02,0.07-0.04,0.11-0.06c0.08-0.05-0.02,0-0.02,0.01c0.01-0.01,0.06-0.02,0.07-0.02
			c0.01,0,0.04-0.01,0.05-0.01c0.05-0.03-0.07,0-0.01,0c0.05,0,0.1,0,0.15,0c0.05,0-0.01,0-0.02,0c0.02,0.01,0.05,0.01,0.07,0.01
			c0.02,0.01,0.05,0.01,0.07,0.02c0.01,0,0.06,0.02,0.02,0c-0.04-0.01,0.07,0.03,0.08,0.04c0.04,0.02,0.09,0.05,0.13,0.08
			c-0.06-0.05,0.05,0.05,0.06,0.06c0.01,0.01,0.03,0.03,0.04,0.04c0.01,0.01,0.06,0.07,0.03,0.03c-0.03-0.04,0.01,0.02,0.01,0.02
			c0.01,0.02,0.03,0.04,0.04,0.06c0.03,0.04,0.05,0.09,0.07,0.13c-0.03-0.07,0.01,0.04,0.02,0.06c0.01,0.05,0.02,0.1,0.03,0.14
			c-0.01-0.06,0,0.01,0,0.02c0,0.02,0,0.04,0,0.06c0,0.06,0,0.12-0.01,0.19c0.01-0.06-0.01,0.06-0.02,0.08
			c-0.01,0.05-0.03,0.09-0.04,0.14c0,0-0.02,0.07-0.01,0.03c0.02-0.04-0.02,0.04-0.02,0.04c-0.02,0.05-0.05,0.1-0.08,0.15
			c-0.03,0.04-0.05,0.08-0.08,0.12c-0.05,0.07-0.01,0.02,0,0c-0.01,0.02-0.03,0.03-0.04,0.05c-0.03,0.04-0.06,0.07-0.1,0.1
			c-0.07,0.07,0.01,0,0.01,0c-0.01,0.02-0.11,0.04-0.04,0.03c0.03-0.01,0.05-0.02,0.08-0.02c0.02,0,0.1,0.04,0.05,0.01
			c-0.05-0.03-0.11-0.06-0.16-0.1c-0.03-0.02-0.05-0.04-0.08-0.06c-0.02-0.01-0.11-0.08-0.02-0.02c-0.05-0.04-0.1-0.08-0.15-0.12
			c-0.21-0.17-0.43-0.33-0.64-0.51c-0.23-0.2-0.61-0.22-0.84,0.02C134.56,6.23,134.49,6.64,134.75,6.85L134.75,6.85z"/>
	</g>
</g>
<g>
	<g>
		<path class="st0" d="M138.83,7.04c0-0.01-0.01-0.07,0-0.02c0-0.02,0-0.04-0.01-0.06c0-0.05-0.01-0.09-0.01-0.14
			c-0.01-0.11-0.01-0.22,0-0.32c0-0.09,0.01-0.19,0.03-0.28c-0.01,0.05,0.01-0.06,0.01-0.08c0.01-0.05,0.02-0.1,0.04-0.15
			c0.01-0.04,0.02-0.09,0.04-0.13c0.01-0.02,0.02-0.05,0.03-0.07c0,0,0.03-0.06,0.01-0.02c-0.02,0.04,0.01-0.02,0.01-0.02
			c0.01-0.02,0.02-0.04,0.03-0.07c0.02-0.04,0.05-0.08,0.08-0.12c0.04-0.07,0.01-0.01,0,0c0.01-0.01,0.02-0.03,0.04-0.04
			c0.03-0.03,0.06-0.06,0.09-0.09c0.06-0.06,0.01-0.01-0.01,0c0.02-0.01,0.04-0.03,0.06-0.04c0.02-0.01,0.14-0.07,0.07-0.04
			c0.05-0.02,0.09-0.03,0.14-0.04c0.02,0,0.04-0.01,0.06-0.01c-0.08,0.01-0.01,0,0.01,0c0.05,0,0.1,0,0.15,0c0.05,0,0,0-0.01,0
			c0.03,0,0.07,0.01,0.1,0.02c0.05,0.01,0.1,0.03,0.14,0.04c0.01,0,0.08,0.03,0.01,0c0.02,0.01,0.04,0.02,0.06,0.03
			c0.1,0.05,0.19,0.1,0.29,0.16c-0.07-0.05,0.06,0.05,0.08,0.06c0.03,0.03,0.07,0.06,0.1,0.09c0.04,0.04,0.08,0.08,0.12,0.13
			c0,0.01,0.05,0.06,0.01,0.02c-0.04-0.05,0.03,0.05,0.04,0.06c0.06,0.09,0.11,0.18,0.16,0.28c0.02,0.05,0.05,0.1,0.07,0.15
			c0.01,0.02,0.02,0.04,0.03,0.06c-0.04-0.09,0,0.01,0.01,0.03c0.04,0.12,0.08,0.25,0.11,0.38c0.02,0.06,0.03,0.12,0.04,0.18
			c0,0.02,0.01,0.05,0.01,0.07c0,0.02,0.01,0.1,0.01,0.04c0.02,0.26,0.01,0.52-0.02,0.78c-0.04,0.39,0.55,0.5,0.71,0.18
			c0.57-1.13,0.14-2.54-0.88-3.26c-0.46-0.32-1.09-0.49-1.64-0.32c-0.54,0.17-0.91,0.59-1.09,1.11c-0.18,0.53-0.15,1.13-0.08,1.68
			c0.03,0.21,0.29,0.32,0.47,0.27C138.77,7.45,138.86,7.25,138.83,7.04L138.83,7.04z"/>
	</g>
</g>
<g>
	<g>
		<path class="st0" d="M147.56,4.52c-0.77,0.35-1.09,1.31-0.91,2.1c0.2,0.87,1.09,1.46,1.97,1.34c0.27-0.03,0.54-0.1,0.78-0.24
			c0.23-0.13,0.41-0.3,0.55-0.52c0.1-0.14,0.07-0.39-0.06-0.5c-0.14-0.13-0.34-0.15-0.51-0.06c-0.04,0.02-0.07,0.04-0.11,0.05
			c-0.05,0.03,0.1-0.03,0.04-0.02c-0.05,0.01-0.1,0.04-0.14,0.06c-0.06,0.02,0.11-0.04,0.03-0.01c-0.02,0.01-0.03,0.01-0.05,0.02
			c-0.04,0.01-0.08,0.02-0.12,0.03c-0.04,0.01-0.08,0.02-0.12,0.02c-0.02,0-0.1,0.01-0.11,0.02c0.01-0.01,0.14-0.01,0.06-0.01
			c-0.02,0-0.05,0-0.07,0.01c-0.04,0-0.08,0-0.12,0c-0.04,0-0.07,0-0.11-0.01c-0.12-0.01,0.23,0.03-0.01,0
			c0.02,0-0.2-0.02-0.05-0.01c0.11,0.01-0.03-0.01-0.06-0.01c-0.04-0.01-0.07-0.02-0.11-0.03c-0.03-0.01-0.16-0.06-0.06-0.02
			c0.11,0.04-0.03-0.01-0.05-0.03c-0.07-0.04-0.14-0.08-0.21-0.13c0.04,0.03,0.08,0.06,0.13,0.09c-0.09-0.06-0.16-0.14-0.23-0.22
			c0.03,0.04,0.07,0.08,0.1,0.13c-0.07-0.09-0.13-0.19-0.17-0.3c0.02,0.05,0.04,0.1,0.06,0.15c-0.04-0.11-0.07-0.22-0.08-0.33
			c0.01,0.05,0.01,0.1,0.02,0.15c-0.01-0.1-0.01-0.2,0-0.31c0.01-0.12-0.03,0.14-0.01,0.04c0.01-0.02,0.01-0.05,0.02-0.07
			c0.01-0.05,0.03-0.09,0.04-0.14c0.02-0.05,0.06-0.12-0.02,0.05c0.01-0.02,0.02-0.04,0.03-0.07c0.02-0.04,0.05-0.08,0.07-0.12
			c0.06-0.09-0.01,0.03-0.04,0.05c0.02-0.01,0.03-0.04,0.05-0.05c0.04-0.04,0.08-0.08,0.12-0.11c-0.04,0.03-0.09,0.07-0.13,0.1
			c0.06-0.04,0.12-0.08,0.19-0.11c0.28-0.13,0.4-0.55,0.23-0.81c-0.08-0.13-0.21-0.24-0.36-0.27
			C147.85,4.42,147.71,4.45,147.56,4.52L147.56,4.52z"/>
	</g>
</g>
<g>
	<g>
		<path class="st0" d="M149.91,3.33c0.07,0.73,0.13,1.47,0.2,2.2c0.03,0.38,0.07,0.76,0.11,1.14c0.04,0.36,0.05,0.76,0.17,1.1
			c0.17,0.5,0.83,0.48,1.01-0.01c0.07-0.18,0.17-0.37,0.23-0.56c0.06-0.2,0.1-0.41,0.16-0.61c0.09-0.32,0.23-0.67,0.56-0.79
			c0.05-0.02,0.09-0.03,0.14-0.02c-0.01,0,0.05,0.02,0.05,0.03c0.13,0.12,0.17,0.38,0.23,0.54c0.19,0.53,0.39,1.09,0.73,1.55
			c0.28,0.38,0.82,0.14,0.76-0.32c-0.08-0.67-0.38-1.3-0.65-1.91c-0.24-0.55-0.72-0.94-1.35-0.78c-0.5,0.13-0.92,0.54-1.12,1
			c-0.1,0.24-0.17,0.5-0.25,0.75c-0.03,0.11-0.07,0.22-0.11,0.33c-0.03,0.06-0.09,0.21-0.12,0.23c0.25,0.19,0.5,0.38,0.76,0.57
			c0.06-0.39,0.02-0.78,0-1.17c-0.02-0.36-0.06-0.72-0.09-1.08c-0.06-0.73-0.13-1.47-0.19-2.2c-0.03-0.32-0.24-0.59-0.59-0.58
			C150.23,2.73,149.88,3,149.91,3.33L149.91,3.33z"/>
	</g>
</g>
<g>
	<g>
		<path class="st0" d="M157.59,5.71c-0.56-1.11-2.39-1.12-2.91,0.02c-0.27,0.59-0.18,1.3,0.22,1.81c0.46,0.59,1.22,0.76,1.9,0.44
			c0.34-0.16,0.64-0.46,0.8-0.79c0.19-0.37,0.24-0.73,0.19-1.14c-0.3,0.08-0.6,0.16-0.89,0.24c0.27,0.94,0.94,1.77,1.92,1.98
			c0.51,0.11,0.81-0.56,0.36-0.84c-0.15-0.1-0.27-0.19-0.45-0.32c0.07,0.05-0.07-0.05-0.06-0.05c-0.03-0.02-0.06-0.05-0.08-0.07
			c-0.08-0.07-0.15-0.13-0.23-0.2c-0.28-0.26-0.44-0.48-0.61-0.85c-0.09-0.2-0.38-0.26-0.57-0.18c-0.2,0.09-0.34,0.31-0.28,0.53
			c0,0.01,0.03,0.12,0.02,0.08c0.01,0.05,0,0.09,0,0.1c-0.02,0.12-0.03,0.15-0.08,0.23c-0.02,0.03-0.04,0.06-0.05,0.08
			c0.01-0.01,0.03-0.04,0,0c-0.03,0.04-0.07,0.07-0.1,0.11c-0.02,0.02-0.04,0.03-0.06,0.05c0.02-0.02,0.07-0.04-0.01,0.01
			c-0.05,0.03-0.1,0.06-0.15,0.09c-0.05,0.03,0.01,0,0.02,0c-0.02,0.01-0.05,0.02-0.07,0.02c-0.03,0.01-0.17,0.04-0.08,0.03
			c-0.05,0.01-0.1,0.01-0.14,0.01c-0.02,0-0.05,0-0.07,0c-0.08-0.01,0.07,0.02-0.01,0c-0.04-0.01-0.15-0.05-0.06-0.01
			c-0.04-0.02-0.08-0.03-0.11-0.05c-0.04-0.02-0.1-0.07-0.03-0.01c-0.04-0.04-0.09-0.07-0.13-0.11c-0.03-0.03-0.06-0.06-0.08-0.1
			c0.07,0.08,0-0.01-0.02-0.05c-0.02-0.04-0.04-0.08-0.06-0.11c-0.03-0.05,0.01,0.02,0.01,0.03c-0.01-0.03-0.02-0.05-0.03-0.08
			c-0.02-0.05-0.03-0.1-0.04-0.15c0-0.02-0.01-0.04-0.01-0.06c0,0.01,0.01,0.08,0,0.02c0-0.04,0-0.08,0-0.13
			c0-0.03,0-0.06,0.01-0.08c0.01-0.07-0.02,0.07,0,0c0.01-0.04,0.02-0.08,0.04-0.12c0.02-0.05,0,0.01-0.01,0.02
			c0.01-0.03,0.03-0.05,0.04-0.08c0.02-0.03,0.08-0.1,0.02-0.04c0.03-0.04,0.07-0.07,0.1-0.1c0.04-0.04-0.01,0.01-0.02,0.01
			c0.02-0.02,0.05-0.03,0.07-0.04c0.04-0.02,0.07-0.04,0.11-0.06c-0.07,0.03,0.01,0,0.04-0.01c0.05-0.02,0.11-0.03,0.16-0.04
			c-0.07,0.01,0.05,0,0.08,0c0.04,0,0.14,0,0.14,0c-0.04-0.01,0.03,0.01,0.03,0.01c0.03,0.01,0.06,0.01,0.08,0.02
			c0.03,0.01,0.11,0.03,0.11,0.03c0.16,0.06,0.27,0.17,0.35,0.32C157.13,6.56,157.81,6.16,157.59,5.71L157.59,5.71z"/>
	</g>
</g>
<g>
	<g>
		<path class="st0" d="M160.89,7.58c-0.15-0.41-0.2-0.85-0.11-1.26c0.02-0.11,0.06-0.22,0.09-0.33c0.01-0.02,0.02-0.05,0.03-0.07
			c-0.01,0.03-0.01,0.03,0.01-0.01c0.02-0.04,0.05-0.08,0.07-0.12c0.03-0.04,0.03-0.04,0-0.01c0.01-0.02,0.03-0.03,0.05-0.05
			c0.02-0.02,0.03-0.03,0.05-0.04c-0.04,0.03-0.04,0.03,0,0.01c0.04-0.02,0.04-0.02-0.01,0c0.04-0.01,0.04-0.01-0.01,0
			c0.04,0,0.04,0,0,0c-0.04-0.02-0.03-0.02,0,0c-0.03-0.03-0.03-0.03,0,0c0.02,0.02,0.03,0.03,0.05,0.05
			c-0.06-0.06,0.03,0.05,0.04,0.06c0.05,0.09,0.1,0.19,0.15,0.29c0.11,0.24,0.22,0.47,0.34,0.71c0.11,0.24,0.23,0.47,0.35,0.7
			c0.15,0.3,0.34,0.61,0.71,0.64c0.13,0.01,0.27-0.08,0.34-0.19c0.16-0.29,0.01-0.62-0.14-0.88c-0.11-0.21-0.23-0.41-0.36-0.61
			c-0.13-0.21-0.26-0.41-0.39-0.62c-0.12-0.19-0.23-0.39-0.38-0.57c-0.32-0.38-0.83-0.42-1.2-0.11c-0.33,0.28-0.45,0.75-0.51,1.16
			c-0.07,0.48-0.03,0.99,0.14,1.45c0.07,0.18,0.24,0.3,0.43,0.25C160.79,7.97,160.95,7.76,160.89,7.58L160.89,7.58z"/>
	</g>
</g>
<g>
	<g>
		<path class="st0" d="M165.31,7.85c-0.14-0.5-0.17-1.04-0.07-1.54c0.05-0.25,0.13-0.51,0.23-0.71c0.03-0.06,0.06-0.12,0.09-0.18
			c0.01-0.02,0.03-0.05,0.05-0.07c-0.01,0.03-0.03,0.05-0.06,0.06c-0.03,0.02-0.18,0.04-0.18,0.01c0,0.01,0.11,0.11,0.13,0.13
			c0.04,0.05,0.08,0.09,0.12,0.14c0.02,0.03,0.04,0.05,0.06,0.08c-0.03-0.03-0.02-0.03,0.01,0.02c0.08,0.11,0.16,0.22,0.23,0.34
			c0.14,0.22,0.26,0.45,0.38,0.68c0.06,0.12,0.11,0.25,0.17,0.38c0.02,0.05,0.04,0.09,0.06,0.14c-0.03-0.08,0.04,0.1,0.04,0.12
			c0.11,0.28,0.21,0.48,0.32,0.77c0.14,0.37,0.7,0.32,0.72-0.1c0.03-0.57-0.07-1.08-0.29-1.6c-0.2-0.48-0.49-0.91-0.82-1.32
			c-0.17-0.21-0.36-0.43-0.59-0.57c-0.31-0.19-0.71-0.16-0.98,0.1c-0.2,0.2-0.3,0.49-0.39,0.75c-0.08,0.24-0.14,0.48-0.18,0.73
			c-0.1,0.63-0.07,1.27,0.11,1.88C164.63,8.61,165.46,8.38,165.31,7.85L165.31,7.85z"/>
	</g>
</g>
<g>
	<g>
		<path class="st0" d="M168.95,7.61c0.72,0.31,1.61,0.01,1.98-0.69c0.39-0.73,0.01-1.57-0.69-1.93c-0.75-0.38-1.62-0.05-2,0.69
			c-0.41,0.8-0.19,1.7,0.41,2.34c0.8,0.84,2.09,0.93,3.15,0.59c0.21-0.07,0.36-0.25,0.33-0.48c-0.03-0.21-0.21-0.38-0.43-0.37
			c-0.39,0.01-0.78,0.02-1.17-0.02c0.02,0,0.07,0.01-0.04-0.01c-0.05-0.01-0.1-0.02-0.14-0.03c-0.09-0.02-0.17-0.04-0.25-0.06
			c-0.05-0.01-0.09-0.03-0.14-0.05c-0.01,0-0.02-0.01-0.03-0.01c0.09,0.03,0.06,0.02-0.09-0.03c-0.03-0.01-0.06-0.02-0.09-0.03
			c0.11,0.04-0.02-0.01-0.05-0.02c-0.47-0.22-0.87-0.61-0.85-1.13c0.01-0.43,0.31-0.91,0.8-0.85c0.43,0.04,0.82,0.5,0.72,0.91
			c-0.06,0.24-0.22,0.4-0.44,0.52c-0.02,0.01-0.05,0.02-0.07,0.03c0.05-0.02-0.06,0.02-0.06,0.02c-0.03,0.01-0.06,0.02-0.1,0.02
			c-0.02,0-0.04,0.01-0.06,0.01c0.02,0,0.02,0,0,0c-0.03,0-0.06,0-0.1,0c0,0-0.11-0.01-0.06,0c-0.08-0.01-0.14-0.03-0.17-0.05
			c-0.18-0.09-0.41-0.04-0.52,0.15C168.72,7.27,168.76,7.53,168.95,7.61L168.95,7.61z"/>
	</g>
</g>
<g>
	<g>
		<path class="st0" d="M172.29,3.48c0.16,0.97,0.32,1.94,0.48,2.91c0.16,0.96,0.32,1.95,0.62,2.87c0.16,0.5,0.98,0.43,0.97-0.13
			c-0.02-1-0.2-2.02-0.37-3.01c-0.17-0.99-0.35-1.97-0.52-2.96c-0.06-0.32-0.44-0.49-0.73-0.41C172.4,2.84,172.24,3.16,172.29,3.48
			L172.29,3.48z"/>
	</g>
</g>
<g>
	<g>
		<path class="st0" d="M57.17,14.41c1.11,0.12,2.22,0.24,3.34,0.31c0.41,0.02,0.53-0.64,0.11-0.73c-1.1-0.22-2.2-0.39-3.3-0.56
			c-0.3-0.04-0.59,0.11-0.64,0.43C56.64,14.18,56.88,14.38,57.17,14.41L57.17,14.41z"/>
	</g>
</g>
<g>
	<g>
		<path class="st0" d="M57.75,17c1.3-0.08,2.61-0.13,3.89-0.36c0.21-0.04,0.35-0.27,0.32-0.47c-0.03-0.22-0.2-0.34-0.42-0.36
			c-1.25-0.12-2.52-0.07-3.77-0.05c-0.33,0-0.65,0.28-0.64,0.62C57.14,16.71,57.41,17.02,57.75,17L57.75,17z"/>
	</g>
</g>
<g>
	<g>
		<path class="st0" d="M68.05,17.21c-0.24-0.72-0.3-1.49-0.13-2.23c0.08-0.35,0.45-1.32,0.98-0.97c0.25,0.17,0.41,0.5,0.56,0.76
			c0.17,0.31,0.31,0.63,0.41,0.96c0.11,0.35,0.2,0.7,0.24,1.07c0.04,0.36,0,0.79,0.16,1.12c0.12,0.25,0.49,0.2,0.62-0.01
			c0.18-0.3,0.16-0.75,0.12-1.09c-0.04-0.35-0.1-0.7-0.19-1.05c-0.19-0.68-0.5-1.33-0.93-1.89c-0.4-0.53-1.03-0.89-1.67-0.53
			c-0.56,0.31-0.83,0.97-0.96,1.57c-0.17,0.82-0.13,1.67,0.12,2.47C67.5,17.82,68.19,17.63,68.05,17.21L68.05,17.21z"/>
	</g>
</g>
<g>
	<g>
		<path class="st0" d="M72.19,15.28c0.06,0.36,0.19,0.72,0.36,1.04c0.16,0.31,0.39,0.62,0.67,0.84c0.33,0.26,0.77,0.46,1.2,0.35
			c0.43-0.11,0.69-0.47,0.82-0.87c0.19-0.6,0.16-1.28-0.1-1.85c-0.26-0.56-0.8-0.92-1.41-0.92c-0.3,0-0.62,0.09-0.87,0.27
			c-0.3,0.21-0.46,0.5-0.51,0.86c-0.02,0.19,0.16,0.35,0.33,0.37c0.19,0.02,0.36-0.1,0.42-0.28c0.01-0.03,0.05-0.09,0-0.01
			c0.01-0.01,0.02-0.03,0.02-0.05c0-0.01,0.04-0.06,0.04-0.06c0,0.01-0.07,0.08-0.02,0.02c0.03-0.03,0.06-0.06,0.09-0.09
			c0.02-0.01,0.03-0.03,0.05-0.04c0.03-0.02,0.01-0.01-0.04,0.03c0.01-0.01,0.03-0.02,0.04-0.03c0.04-0.02,0.07-0.04,0.11-0.06
			c0.07-0.03-0.03,0.02-0.04,0.02c0.02,0,0.05-0.02,0.07-0.03c0.04-0.01,0.09-0.02,0.13-0.03c0.03-0.01,0.08,0-0.04,0
			c0.03,0,0.05-0.01,0.08-0.01c0.04,0,0.09-0.01,0.13-0.01c0.03,0,0.05,0,0.08,0c0.05,0,0,0.02-0.03,0c0.03,0.02,0.1,0.02,0.13,0.03
			c0.03,0.01,0.05,0.01,0.08,0.02c0.01,0,0.02,0.01,0.03,0.01c0.04,0.02,0.03,0.01-0.03-0.01c0.02,0.02,0.09,0.04,0.12,0.06
			c0.02,0.01,0.03,0.02,0.05,0.03c0.08,0.05-0.08-0.07,0,0c0.04,0.04,0.08,0.07,0.12,0.11c0.02,0.02,0.04,0.06-0.01-0.01
			c0.02,0.03,0.04,0.06,0.06,0.09c0.03,0.04,0.05,0.08,0.07,0.13c0.01,0.02,0.05,0.12,0.01,0.02c0.01,0.02,0.02,0.04,0.02,0.06
			c0.02,0.05,0.03,0.11,0.04,0.16c0.01,0.03,0.01,0.07,0.02,0.1c-0.01-0.07,0-0.02,0,0.02c0.01,0.11,0,0.22-0.01,0.34
			c0.01-0.11-0.01,0.06-0.02,0.09c-0.01,0.06-0.03,0.12-0.05,0.18c-0.01,0.04-0.02,0.11-0.05,0.14c0.07-0.09,0.01-0.02-0.01,0.01
			c-0.01,0.02-0.02,0.04-0.03,0.06c-0.02,0.03-0.04,0.06-0.05,0.09c-0.05,0.07,0.01-0.01,0.02-0.02c-0.07,0.08,0.1-0.04,0,0.01
			c-0.1,0.04,0.11-0.02,0.01,0c-0.11,0.02,0.1,0,0.03,0c-0.02,0-0.07-0.01-0.08,0c0.05-0.03,0.11,0.02,0.04,0
			c-0.02-0.01-0.08-0.03-0.1-0.03c0.06-0.01,0.1,0.05,0.04,0.01c-0.03-0.02-0.06-0.04-0.09-0.05c-0.09-0.05,0.03,0.01,0.03,0.03
			c0-0.01-0.09-0.07-0.1-0.08c-0.05-0.04-0.1-0.09-0.14-0.14c-0.01-0.01-0.02-0.02-0.02-0.03c-0.04-0.05-0.03-0.04,0.03,0.03
			c-0.01,0-0.06-0.09-0.07-0.1c-0.09-0.12-0.16-0.26-0.23-0.39c-0.03-0.06-0.06-0.13-0.09-0.2c-0.06-0.13,0.05,0.13,0,0
			c-0.01-0.04-0.03-0.07-0.04-0.11c-0.05-0.15-0.09-0.3-0.11-0.46c-0.05-0.32-0.45-0.51-0.74-0.42
			C72.31,14.65,72.13,14.95,72.19,15.28L72.19,15.28z"/>
	</g>
</g>
<g>
	<g>
		<path class="st0" d="M82.18,15.61c0.06,0.24,0.13,0.48,0.19,0.71c0.06,0.24,0.14,0.47,0.22,0.71c0.07,0.22,0.27,0.36,0.51,0.33
			c0.21-0.03,0.44-0.23,0.42-0.46c-0.02-0.28-0.05-0.57-0.08-0.85c-0.03-0.25-0.07-0.5-0.1-0.75c-0.02-0.14-0.16-0.29-0.27-0.35
			c-0.12-0.07-0.3-0.09-0.44-0.05C82.32,14.99,82.1,15.29,82.18,15.61L82.18,15.61z"/>
	</g>
</g>
<g>
	<g>
		<path class="st0" d="M82.53,12.59c-0.01,0-0.03-0.01-0.04-0.01c0.02,0.01,0.04,0.02,0.06,0.02c0,0-0.01,0-0.01,0
			c0.02,0.01,0.03,0.03,0.05,0.04c-0.06-0.05-0.13-0.1-0.19-0.14c-0.05-0.04-0.09-0.07-0.15-0.1c-0.04-0.02-0.07-0.03-0.11-0.05
			c-0.06-0.03-0.12-0.04-0.18-0.02c-0.05,0.02-0.1,0.05-0.13,0.09c-0.03,0.04-0.05,0.09-0.05,0.14c0,0.06,0.02,0.13,0.07,0.17
			c0.03,0.03,0.06,0.05,0.09,0.08c0.04,0.04,0.09,0.07,0.14,0.1c0.07,0.04,0.14,0.08,0.21,0.12c-0.02-0.01-0.03-0.03-0.05-0.04
			c0.01,0.01,0.02,0.03,0.03,0.04c0.03,0.03,0.07,0.05,0.12,0.06c0.04,0.01,0.09,0.01,0.13,0c0.07-0.02,0.13-0.06,0.16-0.12
			c0.03-0.06,0.04-0.13,0.03-0.19C82.69,12.68,82.62,12.62,82.53,12.59L82.53,12.59z"/>
	</g>
</g>
<g>
	<g>
		<path class="st0" d="M85.15,17.1c-0.2-0.52-0.33-1.09-0.25-1.64c0.03-0.2,0.1-0.36,0.22-0.48c0.04-0.04,0.05-0.04,0.01-0.01
			c0.03-0.02,0.05-0.03,0.08-0.05c0.05-0.02,0.05-0.03,0.01-0.01c0.03-0.01,0.06-0.02,0.09-0.02c-0.07,0.02,0.05,0,0.06,0
			c-0.1,0,0.12,0.04,0.03,0.01c0.05,0.03,0.05,0.03,0.02,0c0.02,0.02,0.04,0.04,0.06,0.06c0.06,0.06-0.01-0.04,0.03,0.05
			c0.03,0.05,0.06,0.11,0.09,0.16c0.02,0.05,0.03,0.06,0.01,0.01c0.01,0.03,0.02,0.06,0.03,0.09c0.1,0.27,0.18,0.54,0.27,0.8
			c0.21,0.61,0.4,1.25,0.73,1.81c0.11,0.18,0.33,0.25,0.52,0.16c0.2-0.09,0.29-0.27,0.25-0.48c-0.09-0.57-0.31-1.12-0.51-1.66
			c-0.1-0.27-0.2-0.53-0.3-0.8c-0.1-0.26-0.2-0.5-0.37-0.71c-0.35-0.43-0.96-0.5-1.43-0.23c-0.49,0.28-0.68,0.82-0.73,1.35
			c-0.06,0.6,0.05,1.24,0.24,1.81c0.07,0.22,0.29,0.36,0.52,0.3C85.03,17.56,85.24,17.31,85.15,17.1L85.15,17.1z"/>
	</g>
</g>
<g>
	<g>
		<path class="st0" d="M91.32,12.6c-0.28-0.48-0.87-0.58-1.37-0.39c-0.63,0.24-0.92,0.85-0.95,1.5c-0.04,0.74,0.17,1.53,0.33,2.24
			c0.08,0.37,0.18,0.74,0.29,1.11c0.11,0.39,0.24,0.82,0.48,1.15c0.19,0.26,0.64,0.18,0.64-0.18c0-0.61-0.23-1.22-0.38-1.8
			c-0.15-0.6-0.29-1.2-0.42-1.8c-0.09-0.41-0.23-1.03,0.05-1.4c0.15-0.2,0.57-0.36,0.74-0.1C90.96,13.29,91.54,12.97,91.32,12.6
			L91.32,12.6z"/>
	</g>
</g>
<g>
	<g>
		<path class="st0" d="M89.87,15.88c0.22-0.09,0.44-0.16,0.67-0.21c0.11-0.03,0.23-0.05,0.34-0.07c0.05-0.01,0.1-0.01,0.15-0.02
			c0.02,0,0.18-0.03,0.13-0.02c-0.06,0.01,0.11-0.01,0.13-0.01c0.05,0,0.1-0.01,0.15-0.01c0.12-0.01,0.23-0.01,0.35-0.02
			c0.23-0.01,0.46-0.01,0.7,0c0.17,0,0.34-0.13,0.39-0.29c0.04-0.15-0.02-0.37-0.18-0.44c-1-0.41-2.09-0.37-3.1-0.02
			c-0.29,0.1-0.53,0.4-0.43,0.71C89.24,15.75,89.57,16,89.87,15.88L89.87,15.88z"/>
	</g>
</g>
<g>
	<g>
		<path class="st0" d="M93.3,16.36c0.1,0.3,0.21,0.6,0.36,0.88c0.17,0.3,0.41,0.56,0.69,0.75c0.54,0.36,1.36,0.33,1.83-0.13
			c0.46-0.45,0.49-1.23,0.4-1.83c-0.09-0.57-0.37-1.09-0.87-1.41c-0.25-0.16-0.57-0.25-0.87-0.25c-0.36,0-0.8,0.14-0.96,0.49
			c-0.07,0.16-0.09,0.32,0.03,0.47c0.1,0.13,0.29,0.2,0.45,0.15c0.1-0.03,0.19-0.06,0.28-0.1c0,0,0.05-0.02,0.05-0.03
			c0,0.01-0.12,0.04-0.04,0.02c0.04-0.01,0.08-0.02,0.11-0.03c0.02-0.01,0.13-0.03,0.05-0.01c-0.08,0.01,0.04,0,0.06,0
			c0.01,0,0.12,0,0.12,0c0,0-0.1-0.02-0.04-0.01c0.02,0.01,0.05,0.01,0.08,0.01c0.04,0.01,0.07,0.02,0.1,0.03
			c0.11,0.03-0.05-0.03,0.02,0.01c0.04,0.02,0.08,0.04,0.11,0.06c0.01,0.01,0.03,0.02,0.04,0.02c0.06,0.04,0.03,0,0-0.01
			c0.05,0.01,0.12,0.11,0.16,0.15c0.06,0.07,0,0-0.01-0.01c0.01,0.01,0.03,0.05,0.04,0.06c0.03,0.04,0.05,0.08,0.07,0.12
			c0.01,0.02,0.02,0.04,0.03,0.06c0,0-0.03-0.08-0.01-0.03c0.01,0.04,0.03,0.08,0.04,0.12c0.01,0.05,0.02,0.09,0.03,0.14
			c0.01,0.03,0.01,0.16,0.01,0.06c0,0.08,0,0.17,0,0.25c0,0.05-0.01,0.1-0.01,0.15c0,0.01-0.01,0.07,0,0.01
			c0.01-0.07-0.01,0.03-0.01,0.05c-0.02,0.08-0.04,0.17-0.06,0.25c0,0.01-0.05,0.14-0.05,0.14c-0.01,0,0.05-0.09,0.01-0.04
			c0,0.01-0.04,0.08-0.05,0.08c0,0,0.1-0.1,0.02-0.02c-0.01,0.01-0.03,0.02-0.04,0.04c-0.05,0.05,0.11-0.06,0.05-0.04
			c-0.01,0.01-0.03,0.02-0.04,0.02c0,0-0.04,0.03-0.05,0.03c-0.01,0,0.16-0.05,0.06-0.03c-0.01,0-0.03,0.01-0.04,0.01
			c-0.1,0.03,0.03,0.01,0.05,0c-0.03,0.01-0.09,0.01-0.12,0c-0.02,0-0.04,0-0.06,0c-0.1,0,0.12,0.03,0.05,0.01
			c-0.04-0.01-0.08-0.02-0.12-0.03c-0.03-0.01-0.1-0.03,0,0c0.11,0.04,0.01,0-0.01-0.01c-0.04-0.02-0.07-0.04-0.11-0.06
			c-0.02-0.01-0.04-0.02-0.05-0.03c-0.08-0.05,0.06,0.04,0.06,0.04c-0.03,0-0.1-0.09-0.11-0.1c-0.04-0.04-0.07-0.08-0.11-0.12
			c0.04,0.05,0.07,0.09,0.11,0.14c-0.15-0.2-0.27-0.43-0.37-0.67c0.02,0.05,0.04,0.11,0.07,0.16c-0.05-0.11-0.09-0.23-0.13-0.34
			c-0.06-0.17-0.15-0.31-0.31-0.4c-0.14-0.08-0.35-0.11-0.5-0.06C93.48,15.65,93.17,16.01,93.3,16.36L93.3,16.36z"/>
	</g>
</g>
<g>
	<g>
		<path class="st0" d="M97.64,17.12c-0.02-0.02-0.04-0.05-0.07-0.07c-0.07-0.08,0.04,0.07-0.01-0.02c-0.03-0.05-0.06-0.1-0.09-0.15
			c-0.01-0.02-0.02-0.05-0.03-0.07c0.04,0.09,0,0,0-0.02c-0.02-0.06-0.04-0.13-0.05-0.19c0-0.01-0.01-0.1-0.01-0.04
			c0,0.06,0-0.05,0-0.06c0-0.06,0-0.12,0.01-0.18c0.01-0.1-0.02,0.08,0-0.03c0.01-0.03,0.01-0.06,0.02-0.1
			c0.01-0.03,0.02-0.05,0.03-0.08c0.01-0.02,0.01-0.03,0.02-0.05c-0.02,0.04-0.02,0.05-0.01,0.02c0.03-0.05,0.06-0.1,0.09-0.15
			c0.06-0.09-0.06,0.06,0.02-0.02c0.02-0.02,0.04-0.04,0.06-0.06c0.02-0.02,0.05-0.05,0.07-0.07c0.04-0.03,0.04-0.04,0,0
			c0.05-0.04,0.11-0.07,0.17-0.11c0.05-0.03,0.11-0.06,0.16-0.09c0.03-0.01,0.02-0.01-0.03,0.01c0.02-0.01,0.03-0.01,0.05-0.02
			c0.03-0.01,0.05-0.02,0.08-0.03c0.06-0.02,0.13-0.03,0.19-0.05c-0.09,0.02,0.06-0.01,0.09-0.02c0.01,0,0.1-0.02,0.04-0.01
			c0.16-0.02,0.3-0.11,0.33-0.28c0.02-0.17-0.08-0.3-0.23-0.35c-0.7-0.24-1.48,0.24-1.79,0.86c-0.33,0.67-0.21,1.48,0.31,2.02
			c0.15,0.16,0.45,0.15,0.6-0.01C97.79,17.54,97.81,17.29,97.64,17.12L97.64,17.12z"/>
	</g>
</g>
<g>
	<g>
		<path class="st0" d="M100.2,17.16c-0.15-0.35-0.24-0.74-0.24-1.12c0-0.1-0.04-0.64,0.13-0.66c0.1-0.01,0.22,0.18,0.26,0.25
			c0.07,0.12,0.1,0.26,0.15,0.39c0.11,0.34,0.27,0.68,0.59,0.86c0.32,0.18,0.65-0.13,0.6-0.45c-0.07-0.42-0.2-1.04,0.09-1.4
			c0.1-0.13,0.27-0.22,0.41-0.25c0.07-0.01,0.13-0.01,0.18,0.01c0.02,0.01,0.1,0.06,0.15,0.12c0,0,0.07,0.14,0.07,0.15
			c0.04,0.1,0.06,0.2,0.09,0.31c0.07,0.29,0.12,0.58,0.18,0.87c0.11,0.6,0.19,1.19,0.44,1.75c0.07,0.17,0.31,0.24,0.48,0.19
			c0.19-0.05,0.31-0.22,0.33-0.41c0.07-0.76-0.16-1.53-0.34-2.25c-0.15-0.62-0.33-1.35-1.02-1.56c-0.59-0.18-1.21,0.16-1.54,0.65
			c-0.38,0.57-0.36,1.29-0.31,1.94c0.2-0.12,0.41-0.23,0.61-0.35c-0.29-0.19-0.32-0.66-0.5-0.94c-0.26-0.4-0.74-0.72-1.22-0.48
			c-0.42,0.21-0.49,0.7-0.49,1.13c0.01,0.52,0.1,1.04,0.28,1.52C99.74,17.88,100.38,17.62,100.2,17.16L100.2,17.16z"/>
	</g>
</g>
<g>
	<g>
		<path class="st0" d="M107.26,15.19c-0.44-0.46-1.1-0.66-1.72-0.53c-0.62,0.12-1.14,0.66-1.29,1.27c-0.15,0.65,0.09,1.28,0.64,1.66
			c0.53,0.37,1.23,0.34,1.74-0.05c0.55-0.42,0.78-1.16,0.88-1.83c-0.3,0-0.6,0.01-0.9,0.01c0.05,0.7,0.28,1.32,0.74,1.85
			c0.45,0.52,1.12,0.86,1.82,0.79c0.49-0.04,0.64-0.71,0.13-0.87c-0.79-0.24-1.74-0.83-1.79-1.78c-0.03-0.51-0.72-0.59-0.88-0.1
			c-0.07,0.22-0.12,0.45-0.21,0.66c-0.05,0.11-0.11,0.22-0.18,0.32c-0.04,0.05-0.11,0.12-0.15,0.14c-0.25,0.17-0.63,0.07-0.8-0.17
			c-0.06-0.09-0.08-0.12-0.1-0.25c-0.01-0.06,0-0.16,0.02-0.23c0.04-0.18,0.15-0.35,0.29-0.44c0.36-0.25,0.85-0.09,1.13,0.19
			C107.02,16.21,107.65,15.59,107.26,15.19L107.26,15.19z"/>
	</g>
</g>
<g>
	<g>
		<path class="st0" d="M109.39,13.7c0.24,1.16,0.5,2.31,0.83,3.46c0.06,0.21,0.28,0.34,0.5,0.29c0.23-0.06,0.33-0.28,0.3-0.5
			c-0.15-1.18-0.38-2.35-0.62-3.51c-0.06-0.27-0.38-0.44-0.63-0.36C109.5,13.16,109.33,13.42,109.39,13.7L109.39,13.7z"/>
	</g>
</g>
<g>
	<g>
		<path class="st0" d="M109.75,14.98c0.91-0.12,1.84-0.13,2.76-0.08c0.34,0.02,0.45-0.55,0.09-0.61c-0.94-0.17-1.89-0.19-2.84-0.09
			c-0.21,0.02-0.4,0.17-0.41,0.4C109.35,14.78,109.54,15,109.75,14.98L109.75,14.98z"/>
	</g>
</g>
<g>
	<g>
		<path class="st0" d="M113.22,16.34c0.19,0.61,0.39,1.21,0.64,1.8c0.07,0.16,0.31,0.24,0.47,0.19c0.17-0.05,0.33-0.21,0.32-0.4
			c-0.04-0.64-0.15-1.27-0.26-1.9c-0.02-0.14-0.16-0.29-0.28-0.36c-0.13-0.07-0.31-0.1-0.45-0.05
			C113.37,15.71,113.11,16.02,113.22,16.34L113.22,16.34z"/>
	</g>
</g>
<g>
	<g>
		<path class="st0" d="M114.21,14.09c0.04-0.04,0.08-0.09,0.11-0.14c0.03-0.05,0.05-0.1,0.06-0.16c0.01-0.05,0.02-0.11,0.03-0.17
			c0.01-0.06,0-0.12-0.01-0.18c0-0.03-0.01-0.06-0.02-0.08c-0.02-0.06-0.04-0.12-0.07-0.17c-0.03-0.05-0.07-0.1-0.11-0.15
			c-0.02-0.02-0.04-0.04-0.06-0.06c-0.05-0.04-0.1-0.08-0.15-0.1c-0.04-0.02-0.09-0.04-0.14-0.05c-0.02,0-0.09-0.01-0.11-0.01
			c-0.03,0-0.08,0.01-0.11,0.01c-0.01,0-0.02,0.01-0.02,0.01c-0.07,0.02-0.13,0.05-0.18,0.1c-0.06,0.06-0.1,0.14-0.11,0.22
			c-0.01,0.03-0.01,0.07,0,0.1c0,0.03,0.01,0.07,0.02,0.1c0.01,0.03,0.03,0.06,0.05,0.09c0.03,0.04,0.06,0.08,0.11,0.1
			c0.04,0.02,0.09,0.05,0.14,0.06c0.02,0,0.04,0.01,0.06,0.02c-0.03-0.01-0.06-0.02-0.09-0.04c0.03,0.01,0.05,0.02,0.07,0.04
			c-0.03-0.02-0.05-0.04-0.08-0.06c0.03,0.02,0.05,0.05,0.08,0.07c-0.02-0.03-0.04-0.05-0.06-0.08c0.03,0.03,0.05,0.07,0.06,0.11
			c-0.01-0.03-0.02-0.06-0.04-0.09c0.01,0.04,0.02,0.07,0.03,0.11c0-0.03-0.01-0.06-0.01-0.09c0,0.03,0,0.05,0,0.08
			c0-0.03,0.01-0.06,0.01-0.09c0,0.02-0.01,0.05-0.02,0.07c0.01-0.03,0.02-0.06,0.04-0.09c-0.01,0.02-0.02,0.04-0.04,0.06
			c0.02-0.03,0.04-0.05,0.06-0.08c-0.01,0.01-0.01,0.02-0.02,0.03c-0.06,0.07-0.11,0.16-0.11,0.25c0,0.09,0.04,0.2,0.11,0.26
			c0.07,0.06,0.16,0.1,0.25,0.1C114.04,14.19,114.14,14.16,114.21,14.09L114.21,14.09z"/>
	</g>
</g>
<g>
	<g>
		<path class="st0" d="M116.32,16c0.26,0.51,0.57,1.07,1.12,1.32c0.3,0.13,0.62,0.19,0.94,0.12c0.33-0.07,0.6-0.28,0.78-0.56
			c0.3-0.46,0.44-1.12,0.29-1.66c-0.07-0.28-0.22-0.53-0.45-0.71c-0.25-0.2-0.54-0.29-0.86-0.31c-0.7-0.05-1.34,0.4-1.79,0.89
			c-0.12,0.13-0.15,0.32-0.03,0.46c0.11,0.14,0.3,0.17,0.45,0.08c0.2-0.12,0.4-0.25,0.61-0.36c0.05-0.03,0.1-0.06,0.15-0.08
			c0.03-0.01,0.06-0.03,0.09-0.04c-0.02,0.01-0.08,0.03,0,0c0.1-0.04,0.2-0.07,0.31-0.09c0,0,0.11-0.02,0.04-0.01
			c-0.06,0.01,0.01,0,0.03,0c0.05,0,0.1,0,0.15,0c0.02,0,0.04,0,0.07,0c-0.09-0.01-0.03,0-0.01,0c0.05,0.01,0.11,0.02,0.16,0.04
			c-0.09-0.03,0.04,0.02,0.06,0.03c0.02,0.01,0.05,0.03,0.07,0.04c-0.02-0.01-0.05-0.05-0.01,0c0.01,0.02,0.03,0.03,0.05,0.05
			c0.05,0.06,0.01,0.01,0-0.01c0.03,0.05,0.06,0.09,0.08,0.14c-0.04-0.09,0.01,0.04,0.02,0.07c0.01,0.03,0.01,0.05,0.01,0.08
			c0-0.02,0-0.08,0-0.01c0,0.1,0,0.2-0.01,0.31c0.01-0.1-0.01,0.06-0.02,0.08c-0.01,0.05-0.02,0.1-0.04,0.15
			c-0.03,0.1-0.06,0.2-0.1,0.3c0.03-0.07,0.01-0.01,0,0c-0.01,0.03-0.03,0.05-0.04,0.08c-0.02,0.03-0.03,0.05-0.05,0.08
			c0.01-0.01,0.06-0.06,0,0c-0.02,0.02-0.03,0.03-0.05,0.05c-0.07,0.07,0.01-0.01,0.01-0.01c0,0-0.05,0.03-0.06,0.03
			c-0.08,0.05,0.07-0.02-0.01,0c0,0-0.06,0.02-0.06,0.02c0.02,0,0.03,0,0.05-0.01c-0.02,0-0.03,0-0.05,0
			c-0.03,0-0.18,0.01-0.07,0.01c-0.04,0-0.09-0.02-0.13-0.03c-0.02-0.01-0.04-0.01-0.06-0.02c-0.1-0.03,0.06,0.03-0.02-0.01
			c-0.04-0.02-0.13-0.05-0.15-0.08c0.01,0.01,0.03,0.02,0.04,0.03c-0.01-0.01-0.03-0.02-0.04-0.03c-0.02-0.02-0.05-0.04-0.07-0.06
			c-0.04-0.04-0.1-0.09-0.12-0.14c0.05,0.09,0.02,0.03,0,0c-0.02-0.03-0.03-0.05-0.05-0.08c-0.14-0.22-0.24-0.46-0.34-0.7
			c-0.05-0.11-0.2-0.2-0.31-0.23c-0.12-0.03-0.28-0.01-0.39,0.06C116.28,15.46,116.19,15.74,116.32,16L116.32,16z"/>
	</g>
</g>
<g>
	<g>
		<path class="st0" d="M120.81,16.89c0.03-0.52,0.06-1.07,0.33-1.53c0.11-0.18,0.23-0.3,0.41-0.4c0.14-0.08,0.34-0.12,0.47-0.09
			c0.06,0.02,0.13,0.04,0.19,0.1c0.12,0.1,0.13,0.13,0.2,0.23c0.07,0.11,0.14,0.23,0.19,0.35c0.03,0.07,0.07,0.14,0.1,0.21
			c0.02,0.04,0.03,0.07,0.05,0.11c-0.01-0.03-0.01-0.03,0,0.01c0.21,0.56,0.35,1.14,0.51,1.71c0.14,0.51,0.86,0.37,0.9-0.12
			c0.05-0.58-0.08-1.14-0.29-1.67c-0.2-0.51-0.49-1.07-0.91-1.44c-0.87-0.75-2.13-0.25-2.61,0.7c-0.29,0.57-0.34,1.21-0.38,1.84
			c-0.01,0.22,0.19,0.4,0.4,0.4C120.62,17.3,120.8,17.12,120.81,16.89L120.81,16.89z"/>
	</g>
</g>
<g>
	<g>
		<path class="st0" d="M127.42,10.51c0.16,0,0.17-0.25,0.01-0.25C127.27,10.26,127.26,10.51,127.42,10.51L127.42,10.51z"/>
	</g>
</g>
<g>
	<g>
		<path class="st0" d="M132.95,12.9c0.05,0.78,0.14,1.55,0.29,2.32c0.15,0.75,0.34,1.51,0.7,2.19c0.16,0.3,0.7,0.17,0.67-0.18
			c-0.07-0.74-0.24-1.46-0.35-2.19c-0.11-0.71-0.19-1.42-0.23-2.14c-0.01-0.29-0.23-0.53-0.53-0.53
			C133.23,12.37,132.93,12.61,132.95,12.9L132.95,12.9z"/>
	</g>
</g>
<g>
	<g>
		<path class="st0" d="M132.29,15.97c1.2,0.03,2.41-0.02,3.56-0.37c0.52-0.16,0.45-0.91-0.11-0.94c-1.14-0.05-2.29,0.01-3.43-0.05
			c-0.36-0.02-0.71,0.33-0.7,0.69C131.62,15.68,131.91,15.96,132.29,15.97L132.29,15.97z"/>
	</g>
</g>
<g>
	<g>
		<path class="st0" d="M137.72,17.03c-0.03-0.03-0.06-0.07-0.1-0.1c-0.03-0.04-0.03-0.04,0,0c-0.01-0.02-0.03-0.04-0.04-0.06
			c-0.05-0.08-0.1-0.16-0.13-0.25c0.04,0.1-0.01-0.04-0.02-0.06c-0.01-0.05-0.03-0.09-0.04-0.14c-0.01-0.05-0.02-0.09-0.03-0.14
			c-0.01-0.05-0.01-0.05,0,0c0-0.02,0-0.05,0-0.07c0-0.1,0-0.19,0.01-0.28c0.01-0.11-0.02,0.08,0.01-0.03
			c0.01-0.05,0.02-0.09,0.03-0.14c0.01-0.05,0.03-0.09,0.05-0.13c0.02-0.05,0.02-0.04,0,0.01c0.01-0.02,0.02-0.04,0.03-0.06
			c0.02-0.04,0.05-0.08,0.07-0.12c0.01-0.02,0.11-0.14,0.03-0.05c0.06-0.07,0.12-0.14,0.19-0.2c0.02-0.02,0.04-0.03,0.05-0.04
			c-0.05,0.04-0.05,0.04-0.01,0.01c0.04-0.02,0.08-0.05,0.12-0.07c0.04-0.02,0.08-0.04,0.12-0.06c0.08-0.04-0.08,0.03,0.02-0.01
			c0.09-0.03,0.18-0.06,0.27-0.08c0.02,0,0.17-0.03,0.06-0.01c0.05-0.01,0.09-0.01,0.14-0.01c0.09,0,0.19,0,0.28,0
			c-0.08-0.01,0.06,0.01,0.07,0.01c0.05,0.01,0.09,0.02,0.14,0.03c0.04,0.01,0.09,0.02,0.13,0.04c0.04,0.01,0.04,0.02,0.01,0
			c0.02,0.01,0.04,0.02,0.06,0.03c0.16,0.07,0.34,0.04,0.44-0.1c0.09-0.12,0.11-0.34-0.02-0.44c-0.32-0.25-0.69-0.38-1.1-0.4
			c-0.39-0.01-0.79,0.09-1.12,0.29c-0.74,0.43-1.06,1.26-0.94,2.09c0.06,0.43,0.28,0.85,0.59,1.15c0.16,0.15,0.45,0.15,0.6-0.01
			C137.87,17.46,137.88,17.2,137.72,17.03L137.72,17.03z"/>
	</g>
</g>
<g>
	<g>
		<path class="st0" d="M142.77,15.29c-0.87-0.52-2.08,0.07-2.38,0.99c-0.18,0.56,0.02,1.23,0.53,1.55c0.5,0.31,1.18,0.18,1.62-0.17
			c0.6-0.47,0.64-1.21,0.71-1.9c-0.29,0-0.58,0.01-0.86,0.01c0.01,1.29,1.15,2.5,2.45,2.48c0.5-0.01,0.62-0.71,0.13-0.87
			c-0.86-0.27-1.5-0.85-1.73-1.73c-0.05-0.21-0.26-0.34-0.47-0.3c-0.19,0.03-0.41,0.21-0.38,0.42c0.02,0.24-0.02,0.49-0.09,0.72
			c-0.06,0.17-0.19,0.38-0.3,0.46c-0.26,0.2-0.65,0.26-0.78-0.12c-0.11-0.31,0.04-0.61,0.3-0.81c0.24-0.19,0.59-0.27,0.89-0.11
			C142.8,16.13,143.17,15.52,142.77,15.29L142.77,15.29z"/>
	</g>
</g>
<g>
	<g>
		<path class="st0" d="M145.95,17.28c-0.23-0.58-0.33-1.2-0.24-1.82c0.02-0.11,0.06-0.24,0.08-0.33c0.01-0.06,0.04-0.04,0-0.02
			c-0.03,0.02,0.03,0,0.04,0c0.21,0.02,0.39,0.14,0.53,0.27c0.17,0.16,0.27,0.31,0.39,0.55c0.01,0.02,0.08,0.18,0.05,0.12
			c0.02,0.05,0.04,0.09,0.05,0.14c0.05,0.15,0.09,0.31,0.12,0.46c0.07,0.31,0.12,0.62,0.19,0.93c0.07,0.3,0.21,0.77,0.51,0.92
			c0.23,0.11,0.47,0,0.56-0.23c0.06-0.17,0.01-0.34-0.02-0.51c-0.02-0.15-0.04-0.29-0.07-0.44c-0.06-0.29-0.11-0.58-0.18-0.87
			c-0.14-0.53-0.34-1.03-0.69-1.46c-0.33-0.41-0.81-0.7-1.34-0.72c-0.32-0.01-0.64,0.13-0.8,0.42c-0.14,0.24-0.17,0.54-0.18,0.82
			c-0.05,0.66,0.05,1.35,0.3,1.97c0.07,0.18,0.24,0.31,0.44,0.25C145.85,17.68,146.02,17.46,145.95,17.28L145.95,17.28z"/>
	</g>
</g>
<g>
	<g>
		<path class="st0" d="M150.93,13.94c-0.26-0.11-0.53-0.16-0.8-0.06c-0.28,0.1-0.5,0.28-0.66,0.53c-0.3,0.46-0.24,1,0.01,1.47
			c0.21,0.4,0.56,0.71,0.75,1.12c0.02,0.05,0.01,0.01,0,0c0.01,0.03,0.02,0.05,0.02,0.08c0.01,0.03,0.01,0.05,0.02,0.08
			c0,0,0.01,0.08,0.01,0.04c0-0.03,0,0.11,0,0.08c0.01-0.04-0.01,0.04-0.01,0.04c-0.02,0.07-0.02,0.04,0.01-0.01
			c0,0.01-0.05,0.09-0.05,0.09c0,0,0.07-0.09-0.01-0.01c-0.06,0.06,0.08-0.04,0-0.01c-0.03,0.02-0.07,0.04-0.1,0.05
			c-0.05,0.03,0.05-0.02,0.05-0.02c0,0-0.06,0.02-0.06,0.02c-0.02,0-0.03,0.01-0.05,0.01c-0.05,0.02,0.09,0,0.03,0
			c-0.04,0-0.08,0.01-0.12,0.01c-0.02,0-0.04,0-0.05,0c-0.05,0.01,0.08,0.02,0.02,0c-0.03-0.01-0.08-0.02-0.11-0.03
			c0,0,0.08,0.04,0.03,0.01c-0.02-0.01-0.04-0.02-0.06-0.03c-0.07-0.03-0.14-0.08-0.21-0.12c-0.23-0.14-0.61,0.05-0.58,0.34
			c0.1,0.96,1.47,1.03,2,0.38c0.37-0.45,0.33-1.01,0.11-1.52c-0.09-0.22-0.22-0.41-0.36-0.6c-0.06-0.09-0.13-0.19-0.19-0.28
			c-0.03-0.04-0.05-0.09-0.08-0.13c-0.01-0.02-0.02-0.05-0.04-0.07c-0.04-0.07,0.02,0.06-0.01-0.01c-0.02-0.06-0.03-0.11-0.05-0.17
			c0-0.01-0.01-0.09-0.01-0.03c0.01,0.06,0-0.07,0-0.07c0,0.01-0.03,0.09-0.01,0.04c0.01-0.02,0.02-0.06,0.02-0.08
			c0.02-0.07-0.01,0.04-0.02,0.04c0,0,0.04-0.07,0.04-0.07c0.01-0.03,0.05-0.05,0-0.01c-0.06,0.05,0.01,0,0.02-0.02
			c0,0,0.04-0.04,0.04-0.04c-0.02,0.02-0.04,0.03-0.06,0.05c0.01-0.01,0.02-0.01,0.03-0.02c0.01-0.01,0.02-0.01,0.03-0.02
			c-0.03,0.01-0.05,0.02-0.08,0.03c0.08-0.02-0.02,0-0.04,0c0.07,0,0.01,0.01,0-0.01c-0.04-0.01-0.05-0.01-0.02,0
			c0.04,0.01,0.03,0-0.05-0.02c0.29,0.13,0.67,0.07,0.83-0.23C151.28,14.49,151.24,14.08,150.93,13.94L150.93,13.94z"/>
	</g>
</g>
<g>
	<g>
		<path class="st0" d="M155.3,12.63c-0.26-0.02-0.59-0.11-0.84-0.04c-0.27,0.07-0.51,0.34-0.63,0.58c-0.22,0.45-0.21,0.94-0.17,1.42
			c0.09,1.16,0.13,2.38,0.44,3.51c0.15,0.55,0.92,0.39,0.96-0.13c0.07-0.86-0.02-1.73-0.1-2.59c-0.04-0.39-0.09-0.79-0.11-1.19
			c-0.01-0.11-0.01-0.34,0-0.39c0,0,0.05-0.17,0.02-0.1c0.03-0.06,0.11-0.13,0.02-0.06c-0.1,0.03-0.2,0.05-0.3,0.08
			c0.23,0.01,0.46,0.03,0.69,0.04c0.31,0.02,0.58-0.28,0.59-0.57C155.87,12.85,155.61,12.65,155.3,12.63L155.3,12.63z"/>
	</g>
</g>
<g>
	<g>
		<path class="st0" d="M153.77,16.08c0.92-0.26,1.87-0.42,2.81-0.56c0.2-0.03,0.33-0.26,0.31-0.44c-0.03-0.21-0.19-0.34-0.4-0.35
			c-1.01-0.05-2,0.1-2.97,0.35c-0.26,0.07-0.47,0.36-0.38,0.63C153.22,15.99,153.49,16.16,153.77,16.08L153.77,16.08z"/>
	</g>
</g>
<g>
	<g>
		<path class="st0" d="M157.98,17.32c0.9,0.47,1.99,0.07,2.37-0.87c0.35-0.88-0.17-2.08-1.24-1.9c-0.79,0.13-1.37,0.82-1.57,1.56
			c-0.21,0.81,0,1.64,0.57,2.25c0.67,0.72,1.84,1.04,2.78,0.76c0.44-0.13,0.38-0.76-0.09-0.78c-0.6-0.02-1.14-0.11-1.65-0.42
			c-0.14-0.09-0.17-0.11-0.3-0.23c-0.11-0.09-0.23-0.22-0.27-0.29c-0.04-0.06-0.08-0.12-0.11-0.18c-0.01-0.01-0.08-0.17-0.05-0.1
			c-0.04-0.1-0.09-0.29-0.09-0.35c-0.06-0.49,0.09-0.99,0.46-1.32c0.14-0.12,0.45-0.3,0.67-0.21c0.22,0.09,0.29,0.41,0.28,0.63
			c-0.02,0.69-0.77,1.12-1.38,0.8C157.94,16.46,157.55,17.09,157.98,17.32L157.98,17.32z"/>
	</g>
</g>
<g>
	<g>
		<path class="st0" d="M163.03,17.57c-0.23-0.43-0.37-0.72-0.47-1.19c0-0.02-0.03-0.19-0.02-0.1c-0.01-0.06-0.01-0.11-0.01-0.17
			c0-0.06,0-0.11,0.01-0.17c0-0.11-0.02,0.05,0-0.04c0.01-0.05,0.02-0.11,0.04-0.16c0.01-0.03,0.02-0.05,0.03-0.08
			c-0.02,0.05-0.02,0.05,0,0c0.03-0.05,0.06-0.1,0.09-0.14c-0.06,0.09,0.02-0.02,0.04-0.04c0.02-0.02,0.07-0.08,0.1-0.09
			c-0.06,0.04-0.06,0.05-0.02,0.01c0.02-0.01,0.04-0.03,0.06-0.04c0.03-0.02,0.1-0.07,0.14-0.07c-0.07,0.03-0.08,0.03-0.02,0.01
			c0.02-0.01,0.04-0.01,0.05-0.02c0.09-0.03,0.19-0.05,0.28-0.07c-0.14,0.02,0.04,0,0.06,0c0.05,0,0.1,0,0.14,0c0.1,0,0.21,0,0.31,0
			c0.06,0,0.11,0.01,0.17,0.01c0.03,0,0.06,0.01,0.08,0.01c-0.05-0.01-0.06-0.01-0.02,0c0.24,0.04,0.48,0.05,0.72,0.08
			c0.19,0.02,0.38-0.16,0.43-0.33c0.05-0.17-0.02-0.42-0.2-0.49c-0.19-0.08-0.39-0.17-0.6-0.21c-0.22-0.05-0.43-0.08-0.65-0.1
			c-0.42-0.04-0.86,0.03-1.24,0.21c-0.41,0.2-0.72,0.56-0.88,0.99c-0.15,0.4-0.12,0.86-0.02,1.28c0.11,0.48,0.33,0.94,0.57,1.37
			c0.12,0.21,0.42,0.29,0.63,0.16C163.07,18.06,163.15,17.8,163.03,17.57L163.03,17.57z"/>
	</g>
</g>
</svg>
