<?xml version="1.0" encoding="utf-8"?>
<!-- Generator: Adobe Illustrator 26.0.2, SVG Export Plug-In . SVG Version: 6.00 Build 0)  -->
<svg version="1.1" id="Layer_1" xmlns="http://www.w3.org/2000/svg" xmlns:xlink="http://www.w3.org/1999/xlink" x="0px" y="0px"
	 viewBox="0 0 130.88 66.32" style="enable-background:new 0 0 130.88 66.32;" xml:space="preserve">
<style type="text/css">
	.st0{opacity:0.4;fill:#486AFB;stroke:#486AFB;stroke-miterlimit:10;}
	.st1{fill:none;stroke:#486AFB;stroke-miterlimit:10;}
	.st2{fill:#486AFB;}
	.st3{fill:#FD46FC;}
</style>
<circle class="st0" cx="15.59" cy="40.56" r="11"/>
<circle class="st1" cx="15.59" cy="40.56" r="11"/>
<circle class="st1" cx="63.59" cy="40.56" r="11"/>
<g>
	<g>
		<line class="st1" x1="28.59" y1="40.56" x2="47.07" y2="40.56"/>
		<g>
			<path class="st2" d="M50.09,40.56c-1.42,0.53-3.18,1.43-4.27,2.38l0.86-2.38l-0.86-2.38C46.9,39.13,48.67,40.03,50.09,40.56z"/>
		</g>
	</g>
</g>
<circle class="st0" cx="113.85" cy="40.92" r="11"/>
<circle class="st1" cx="113.85" cy="40.92" r="11"/>
<g>
	<g>
		<line class="st1" x1="78.85" y1="40.92" x2="97.33" y2="40.92"/>
		<g>
			<path class="st2" d="M100.35,40.92c-1.42,0.53-3.18,1.43-4.27,2.38l0.86-2.38l-0.86-2.38C97.16,39.5,98.93,40.4,100.35,40.92z"/>
		</g>
	</g>
</g>
<g>
	<g>
		<line class="st1" x1="56.03" y1="10.04" x2="59.48" y2="25.13"/>
		<g>
			<path class="st2" d="M60.15,28.07c-0.83-1.27-2.1-2.78-3.27-3.64l2.51,0.31l2.13-1.37C60.83,24.65,60.34,26.57,60.15,28.07z"/>
		</g>
	</g>
</g>
<g>
	<g>
		<line class="st1" x1="69.99" y1="10.12" x2="66.54" y2="25.2"/>
		<g>
			<path class="st2" d="M65.87,28.14c-0.2-1.5-0.68-3.42-1.37-4.7l2.13,1.37l2.51-0.31C67.97,25.36,66.7,26.88,65.87,28.14z"/>
		</g>
	</g>
</g>
<g>
	<g>
		<line class="st1" x1="106.16" y1="10.27" x2="109.6" y2="25.36"/>
		<g>
			<path class="st2" d="M110.27,28.3c-0.83-1.27-2.1-2.78-3.27-3.64l2.51,0.31l2.13-1.37C110.95,24.88,110.47,26.8,110.27,28.3z"/>
		</g>
	</g>
</g>
<g>
	<g>
		<line class="st1" x1="120.11" y1="10.35" x2="116.67" y2="25.43"/>
		<g>
			<path class="st2" d="M116,28.38c-0.2-1.5-0.68-3.42-1.37-4.7l2.13,1.37l2.51-0.31C118.1,25.59,116.83,27.11,116,28.38z"/>
		</g>
	</g>
</g>
<polyline class="st1" points="120.57,19.06 130.38,19.06 130.38,65.82 0.5,65.82 0.5,19.06 56.17,19.06 "/>
<line class="st1" x1="110.84" y1="19.06" x2="115.84" y2="19.06"/>
<line class="st1" x1="70.88" y1="19.06" x2="106.16" y2="19.06"/>
<line class="st1" x1="60.55" y1="19.06" x2="65.86" y2="19.06"/>
<path class="st3" d="M57.15,0.7c0.06-0.17,0.07-0.19,0.38-0.22c0.2-0.02,0.41-0.02,0.57-0.02V0c-0.27,0.01-0.62,0.03-1.06,0.03
	c-0.38,0-0.99,0-1.35-0.03v0.47c0.25,0,0.73,0,1.01,0.11l-1.71,4.44l-1.76-4.55h0.95V0c-0.38,0.03-1.31,0.03-1.74,0.03
	c-0.39,0-1.17,0-1.52-0.03v0.47h0.85l0.41,1.05l-1.35,3.5l-1.76-4.55h0.95V0c-0.38,0.03-1.31,0.03-1.74,0.03
	c-0.39,0-1.17,0-1.52-0.03v0.47h0.85l2.38,6.17c0.06,0.16,0.1,0.26,0.35,0.26c0.25,0,0.29-0.1,0.35-0.26l1.73-4.47l1.73,4.47
	c0.06,0.16,0.1,0.26,0.35,0.26c0.25,0,0.29-0.1,0.35-0.26L57.15,0.7"/>
<path class="st3" d="M60.79,3.84c0-0.19-0.01-0.2-0.21-0.2C60.13,4.09,59.49,4.1,59.2,4.1v0.25c0.17,0,0.63,0,1.02-0.2v3.59
	c0,0.23,0,0.32-0.7,0.32h-0.27v0.25c0.13-0.01,0.99-0.03,1.25-0.03c0.22,0,1.1,0.02,1.26,0.03V8.06h-0.27c-0.7,0-0.7-0.09-0.7-0.32
	V3.84"/>
<path class="st3" d="M70.2,5.91V3.42c0.27-0.35,0.74-0.64,1.29-0.64c1.21,0,1.21,1.2,1.21,1.9c0,0.47,0,1.01-0.26,1.4
	C72.15,6.49,71.7,6.6,71.38,6.6C70.68,6.6,70.3,6.06,70.2,5.91 M70.14,2.91V0l-1.76,0.08v0.47c0.62,0,0.69,0,0.69,0.39v5.96h0.47
	l0.49-0.56c0.08,0.08,0.57,0.62,1.45,0.62c1.48,0,2.5-0.89,2.5-2.28c0-1.32-0.93-2.25-2.38-2.25C70.87,2.42,70.38,2.71,70.14,2.91z"
	/>
<path class="st3" d="M76.77,3.92c0-0.19-0.01-0.2-0.21-0.2c-0.45,0.44-1.09,0.45-1.38,0.45v0.25c0.17,0,0.63,0,1.02-0.2v3.59
	c0,0.23,0,0.32-0.7,0.32h-0.27v0.25c0.13-0.01,0.99-0.03,1.25-0.03c0.22,0,1.1,0.02,1.26,0.03V8.14h-0.27c-0.7,0-0.7-0.09-0.7-0.32
	V3.92"/>
<path class="st3" d="M105.68,3.18c0.05-0.13,0.09-0.21,0.68-0.21V2.5c-0.23,0.02-0.53,0.03-0.77,0.03c-0.27,0-0.73-0.02-0.95-0.03
	v0.47c0.09,0,0.58,0.01,0.58,0.12c0,0.03-0.03,0.09-0.04,0.12l-1.04,2.54L103,2.97h0.56V2.5c-0.32,0.01-0.83,0.03-1.13,0.03
	c-0.42,0-0.83-0.02-0.99-0.03v0.47h0.59c0.21,0.5,0.21,0.52,0.21,0.53c0,0.04-0.03,0.1-0.04,0.13l-0.79,1.91l-1.04-2.56h0.56V2.5
	c-0.41,0.02-0.81,0.03-1.22,0.03c-0.31,0-0.75-0.02-1.08-0.03v0.47h0.59l1.52,3.72c0.07,0.17,0.11,0.27,0.36,0.27
	c0.25,0,0.29-0.1,0.36-0.27l1.05-2.57l1.05,2.57c0.07,0.17,0.11,0.27,0.36,0.27c0.25,0,0.29-0.1,0.36-0.27L105.68,3.18"/>
<path class="st3" d="M110.21,7.13h-0.24c-0.02,0.15-0.09,0.57-0.18,0.64c-0.06,0.04-0.6,0.04-0.7,0.04h-1.29
	c0.74-0.65,0.98-0.85,1.41-1.18c0.52-0.42,1-0.85,1-1.52c0-0.85-0.75-1.37-1.65-1.37c-0.87,0-1.46,0.61-1.46,1.26
	c0,0.36,0.3,0.39,0.37,0.39c0.17,0,0.37-0.12,0.37-0.37c0-0.13-0.05-0.37-0.41-0.37c0.22-0.5,0.7-0.65,1.03-0.65
	c0.7,0,1.07,0.55,1.07,1.12c0,0.61-0.44,1.1-0.66,1.35l-1.7,1.67c-0.07,0.06-0.07,0.08-0.07,0.27h2.9L110.21,7.13"/>
<path class="st3" d="M120.59,4.03c0.06-0.22,0.06-0.24,0.15-0.35c0.49-0.65,0.93-0.79,1.19-0.79c0.36,0,0.63,0.3,0.63,0.93
	c0,0.59-0.33,1.73-0.51,2.11c-0.33,0.67-0.78,1.02-1.17,1.02c-0.34,0-0.67-0.27-0.67-1c0-0.19,0-0.38,0.16-1L120.59,4.03
	 M121.52,0.27c0-0.01,0-0.11-0.13-0.11c-0.23,0-0.95,0.08-1.21,0.1c-0.08,0.01-0.19,0.02-0.19,0.2c0,0.12,0.09,0.12,0.24,0.12
	c0.48,0,0.5,0.07,0.5,0.17c0,0.07-0.09,0.41-0.14,0.62l-0.81,3.24c-0.12,0.5-0.16,0.65-0.16,1c0,0.94,0.53,1.56,1.26,1.56
	c1.17,0,2.39-1.48,2.39-2.91c0-0.9-0.53-1.59-1.32-1.59c-0.46,0-0.86,0.29-1.16,0.6L121.52,0.27z"/>
<path class="st3" d="M127.1,7.28h-0.24c-0.02,0.15-0.09,0.57-0.18,0.64c-0.06,0.04-0.6,0.04-0.7,0.04h-1.29
	c0.74-0.65,0.98-0.85,1.41-1.18c0.52-0.42,1-0.85,1-1.52c0-0.85-0.75-1.37-1.65-1.37c-0.87,0-1.46,0.61-1.46,1.26
	c0,0.36,0.3,0.39,0.37,0.39c0.17,0,0.37-0.12,0.37-0.37c0-0.13-0.05-0.37-0.41-0.37c0.22-0.5,0.7-0.65,1.03-0.65
	c0.7,0,1.07,0.55,1.07,1.12c0,0.61-0.44,1.1-0.66,1.35l-1.7,1.67c-0.07,0.06-0.07,0.08-0.07,0.27h2.9L127.1,7.28"/>
<path class="st3" d="M79.62,59.83c0.12-0.29,0.12-0.31,0.22-0.58c0.08-0.2,0.13-0.34,0.13-0.53c0-0.45-0.32-0.81-0.81-0.81
	c-0.93,0-1.31,1.44-1.31,1.53c0,0.1,0.1,0.1,0.12,0.1c0.1,0,0.11-0.02,0.16-0.18c0.27-0.93,0.67-1.23,1-1.23
	c0.08,0,0.25,0,0.25,0.32c0,0.21-0.07,0.42-0.11,0.52c-0.08,0.26-0.53,1.41-0.69,1.84c-0.1,0.26-0.23,0.59-0.23,0.8
	c0,0.47,0.34,0.81,0.81,0.81c0.93,0,1.3-1.44,1.3-1.53c0-0.1-0.09-0.1-0.12-0.1c-0.1,0-0.1,0.03-0.15,0.18
	c-0.18,0.62-0.51,1.23-1.01,1.23c-0.17,0-0.24-0.1-0.24-0.33c0-0.25,0.06-0.39,0.29-0.99L79.62,59.83 M80.37,56.1
	c0-0.2-0.14-0.36-0.37-0.36c-0.27,0-0.54,0.26-0.54,0.53c0,0.19,0.14,0.36,0.38,0.36C80.08,56.62,80.37,56.4,80.37,56.1z"/>
<path class="st3" d="M90.59,60.98c0.14,0,0.33,0,0.33-0.2c0-0.2-0.19-0.2-0.34-0.2h-5.93c-0.15,0-0.34,0-0.34,0.2
	c0,0.2,0.19,0.2,0.33,0.2H90.59 M90.58,59.06c0.15,0,0.34,0,0.34-0.2c0-0.2-0.19-0.2-0.33-0.2h-5.95c-0.14,0-0.33,0-0.33,0.2
	c0,0.2,0.19,0.2,0.34,0.2H90.58z"/>
<path class="st3" d="M97.27,55.95c0-0.24,0-0.26-0.23-0.26c-0.62,0.64-1.49,0.64-1.81,0.64v0.31c0.2,0,0.78,0,1.3-0.26v5.15
	c0,0.36-0.03,0.48-0.93,0.48H95.3v0.31c0.35-0.03,1.21-0.03,1.61-0.03c0.4,0,1.26,0,1.61,0.03V62H98.2c-0.89,0-0.92-0.11-0.92-0.48
	V55.95"/>
<path class="st3" d="M101.37,62.3c0-0.66-0.25-1.04-0.64-1.04c-0.33,0-0.53,0.25-0.53,0.53c0,0.27,0.2,0.53,0.53,0.53
	c0.12,0,0.25-0.04,0.35-0.13c0.03-0.02,0.04-0.03,0.05-0.03c0.01,0,0.02,0.01,0.02,0.15c0,0.73-0.35,1.33-0.68,1.66
	c-0.11,0.11-0.11,0.13-0.11,0.16c0,0.07,0.05,0.11,0.1,0.11C100.57,64.22,101.37,63.46,101.37,62.3"/>
<path class="st3" d="M105.76,61.78c0-0.29-0.24-0.53-0.53-0.53c-0.29,0-0.53,0.24-0.53,0.53c0,0.29,0.24,0.53,0.53,0.53
	C105.52,62.31,105.76,62.07,105.76,61.78"/>
<path class="st3" d="M110.16,61.78c0-0.29-0.24-0.53-0.53-0.53c-0.29,0-0.53,0.24-0.53,0.53c0,0.29,0.24,0.53,0.53,0.53
	C109.92,62.31,110.16,62.07,110.16,61.78"/>
<path class="st3" d="M114.56,61.78c0-0.29-0.24-0.53-0.53-0.53c-0.29,0-0.53,0.24-0.53,0.53c0,0.29,0.24,0.53,0.53,0.53
	C114.32,62.31,114.56,62.07,114.56,61.78"/>
<path class="st3" d="M119.07,62.3c0-0.66-0.25-1.04-0.64-1.04c-0.33,0-0.53,0.25-0.53,0.53c0,0.27,0.2,0.53,0.53,0.53
	c0.12,0,0.25-0.04,0.35-0.13c0.03-0.02,0.04-0.03,0.05-0.03c0.01,0,0.02,0.01,0.02,0.15c0,0.73-0.35,1.33-0.68,1.66
	c-0.11,0.11-0.11,0.13-0.11,0.16c0,0.07,0.05,0.11,0.1,0.11C118.27,64.22,119.07,63.46,119.07,62.3"/>
<path class="st3" d="M122.33,61.72c-0.03,0.15-0.09,0.38-0.09,0.43c0,0.18,0.14,0.27,0.29,0.27c0.12,0,0.3-0.08,0.37-0.28
	c0.01-0.02,0.13-0.49,0.19-0.74l0.22-0.89c0.06-0.22,0.12-0.44,0.17-0.67c0.04-0.17,0.12-0.46,0.13-0.5
	c0.15-0.31,0.68-1.21,1.62-1.21c0.45,0,0.54,0.37,0.54,0.7c0,0.62-0.49,1.89-0.65,2.31c-0.09,0.23-0.1,0.35-0.1,0.46
	c0,0.47,0.35,0.81,0.81,0.81c0.93,0,1.3-1.45,1.3-1.53c0-0.1-0.09-0.1-0.12-0.1c-0.1,0-0.1,0.03-0.15,0.18
	c-0.2,0.68-0.53,1.23-1.01,1.23c-0.17,0-0.24-0.1-0.24-0.33c0-0.25,0.09-0.49,0.18-0.7c0.19-0.53,0.61-1.62,0.61-2.19
	c0-0.67-0.43-1.06-1.14-1.06c-0.9,0-1.38,0.64-1.55,0.86c-0.05-0.56-0.46-0.86-0.91-0.86c-0.46,0-0.65,0.39-0.75,0.57
	c-0.16,0.34-0.3,0.92-0.3,0.96c0,0.1,0.1,0.1,0.12,0.1c0.1,0,0.11-0.01,0.17-0.23c0.17-0.7,0.37-1.18,0.72-1.18
	c0.2,0,0.31,0.13,0.31,0.46c0,0.21-0.03,0.32-0.16,0.83L122.33,61.72"/>
<path class="st3" d="M116.42,38.94l0.14-0.14c0.3-0.3,0.63-0.64,1.3-0.69c0.11-0.01,0.2-0.01,0.2-0.19c0-0.08-0.05-0.12-0.13-0.12
	c-0.26,0-0.55,0.03-0.81,0.03c-0.33,0-0.68-0.03-0.99-0.03c-0.06,0-0.19,0-0.19,0.19c0,0.11,0.1,0.12,0.15,0.12
	c0.07,0,0.36,0.02,0.36,0.23c0,0.17-0.23,0.43-0.27,0.48l-2.3,2.65l-1.09-2.95c-0.06-0.14-0.06-0.16-0.06-0.17
	c0-0.24,0.49-0.24,0.59-0.24c0.14,0,0.24,0,0.24-0.2c0-0.11-0.12-0.11-0.15-0.11c-0.28,0-0.97,0.03-1.25,0.03
	c-0.25,0-0.86-0.03-1.11-0.03c-0.06,0-0.19,0-0.19,0.2c0,0.11,0.1,0.11,0.23,0.11c0.6,0,0.64,0.09,0.72,0.34l1.22,3.27
	c0.01,0.03,0.04,0.14,0.04,0.17c0,0.03-0.4,1.63-0.45,1.81c-0.13,0.55-0.14,0.58-0.93,0.59c-0.19,0-0.27,0-0.27,0.2
	c0,0.11,0.12,0.11,0.14,0.11c0.28,0,0.97-0.03,1.25-0.03c0.28,0,0.99,0.03,1.27,0.03c0.07,0,0.19,0,0.19-0.2
	c0-0.11-0.09-0.11-0.28-0.11c-0.02,0-0.21,0-0.38-0.02c-0.21-0.02-0.27-0.04-0.27-0.16c0-0.07,0.09-0.42,0.14-0.62l0.35-1.4
	c0.05-0.19,0.06-0.22,0.14-0.31L116.42,38.94"/>
<path class="st3" d="M117.04,45.27c-0.03,0.09-0.06,0.17-0.06,0.3c0,0.33,0.28,0.6,0.67,0.6c0.7,0,1.01-0.97,1.01-1.08
	c0-0.09-0.09-0.09-0.11-0.09c-0.1,0-0.11,0.04-0.13,0.12c-0.16,0.56-0.47,0.85-0.75,0.85c-0.14,0-0.18-0.09-0.18-0.25
	c0-0.16,0.05-0.3,0.11-0.45c0.07-0.19,0.15-0.38,0.22-0.56c0.06-0.17,0.32-0.81,0.34-0.89c0.02-0.07,0.04-0.15,0.04-0.22
	c0-0.33-0.28-0.6-0.67-0.6c-0.7,0-1.02,0.96-1.02,1.08c0,0.09,0.1,0.09,0.12,0.09c0.1,0,0.1-0.04,0.13-0.11
	c0.18-0.6,0.49-0.86,0.75-0.86c0.11,0,0.18,0.06,0.18,0.25c0,0.16-0.04,0.27-0.22,0.7L117.04,45.27 M118.47,41.7
	c0-0.11-0.08-0.27-0.28-0.27c-0.19,0-0.39,0.18-0.39,0.39c0,0.12,0.09,0.27,0.28,0.27C118.28,42.09,118.47,41.89,118.47,41.7z"/>
<path class="st3" d="M64.99,39.2c0.08-0.11,0.1-0.13,0.1-0.22c0-0.21-0.14-0.21-0.32-0.21h-3.65L61,40.51h0.47
	c0.06-1.02,0.37-1.38,1.39-1.38h0.84l-2.77,3.62c-0.09,0.11-0.09,0.13-0.09,0.22c0,0.22,0.13,0.22,0.32,0.22h3.77l0.18-2.01h-0.47
	c-0.09,1-0.25,1.61-1.56,1.61h-0.85L64.99,39.2"/>
<path class="st3" d="M66.47,43.86c-0.03,0.09-0.06,0.17-0.06,0.3c0,0.33,0.28,0.6,0.67,0.6c0.7,0,1.01-0.97,1.01-1.08
	c0-0.09-0.09-0.09-0.11-0.09c-0.1,0-0.11,0.04-0.13,0.12c-0.16,0.56-0.47,0.85-0.75,0.85c-0.14,0-0.18-0.09-0.18-0.25
	c0-0.16,0.05-0.3,0.11-0.45c0.07-0.19,0.15-0.38,0.22-0.56c0.06-0.17,0.32-0.81,0.34-0.89c0.02-0.07,0.04-0.15,0.04-0.23
	c0-0.33-0.28-0.6-0.67-0.6c-0.7,0-1.02,0.96-1.02,1.08c0,0.09,0.1,0.09,0.12,0.09c0.1,0,0.1-0.04,0.13-0.11
	c0.18-0.6,0.49-0.86,0.75-0.86c0.11,0,0.18,0.06,0.18,0.25c0,0.16-0.04,0.27-0.22,0.7L66.47,43.86 M67.9,40.29
	c0-0.11-0.08-0.27-0.28-0.27c-0.19,0-0.39,0.18-0.39,0.39c0,0.12,0.09,0.27,0.28,0.27C67.71,40.67,67.9,40.47,67.9,40.29z"/>
<path class="st3" d="M16.33,39.88l1.67-2.2c0.11-0.14,0.12-0.15,0.47-0.18c0.24-0.03,0.3-0.03,0.58-0.03h0.29v-0.47
	c-0.42,0.03-0.9,0.03-1.33,0.03c-0.39,0-1.15,0-1.51-0.03v0.47c0.18,0,0.57,0,0.91,0.11c-0.01,0.02-0.06,0.08-0.08,0.11l-1.31,1.74
	l-1.42-1.96h0.83v-0.47c-0.41,0.03-1.35,0.03-1.8,0.03c-0.4,0-1.26,0-1.61-0.03v0.47h0.97l2.2,3.05l-2.01,2.63
	c-0.09,0.12-0.11,0.14-0.43,0.17c-0.2,0.02-0.41,0.03-0.6,0.03h-0.29v0.47c0.42-0.03,0.9-0.03,1.33-0.03c0.39,0,1.15,0,1.51,0.03
	v-0.47c-0.18,0-0.57,0-0.91-0.11c0.01-0.02,0.06-0.08,0.08-0.11l1.64-2.17l1.73,2.39h-0.82v0.47c0.41-0.03,1.35-0.03,1.8-0.03
	c0.4,0,1.26,0,1.61,0.03v-0.47h-0.97L16.33,39.88"/>
<path class="st3" d="M21.07,44.5C21.04,44.59,21,44.68,21,44.8c0,0.33,0.28,0.6,0.67,0.6c0.7,0,1.01-0.97,1.01-1.08
	c0-0.09-0.09-0.09-0.11-0.09c-0.1,0-0.11,0.04-0.13,0.12c-0.16,0.56-0.47,0.85-0.75,0.85c-0.14,0-0.18-0.09-0.18-0.25
	c0-0.16,0.05-0.3,0.11-0.45c0.07-0.19,0.15-0.38,0.23-0.56c0.06-0.17,0.32-0.81,0.34-0.89c0.02-0.07,0.04-0.15,0.04-0.22
	c0-0.33-0.28-0.6-0.67-0.6c-0.7,0-1.02,0.96-1.02,1.08c0,0.09,0.1,0.09,0.12,0.09c0.1,0,0.1-0.04,0.13-0.11
	c0.18-0.6,0.49-0.86,0.75-0.86c0.11,0,0.18,0.06,0.18,0.25c0,0.16-0.04,0.27-0.22,0.7L21.07,44.5 M22.5,40.93
	c0-0.11-0.08-0.27-0.28-0.27c-0.19,0-0.39,0.18-0.39,0.39c0,0.12,0.09,0.27,0.28,0.27C22.31,41.31,22.5,41.12,22.5,40.93z"/>
</svg>
