<?xml version="1.0" encoding="utf-8"?>
<!-- Generator: Adobe Illustrator 26.0.2, SVG Export Plug-In . SVG Version: 6.00 Build 0)  -->
<svg version="1.1" id="Layer_1" xmlns="http://www.w3.org/2000/svg" xmlns:xlink="http://www.w3.org/1999/xlink" x="0px" y="0px"
	 viewBox="0 0 126.83 37" style="enable-background:new 0 0 126.83 37;" xml:space="preserve">
<style type="text/css">
	.st0{opacity:0.4;fill:#486AFB;stroke:#486AFB;stroke-miterlimit:10;}
	.st1{fill:none;stroke:#486AFB;stroke-miterlimit:10;}
	.st2{fill:#486AFB;}
	.st3{fill:#FD46FC;}
</style>
<circle class="st0" cx="66.17" cy="16.34" r="11"/>
<g>
	<g>
		<line class="st1" x1="30.67" y1="16.17" x2="49.15" y2="16.17"/>
		<g>
			<path class="st2" d="M52.17,16.17c-1.42,0.53-3.18,1.43-4.27,2.38l0.86-2.38l-0.86-2.38C48.99,14.74,50.75,15.64,52.17,16.17z"/>
		</g>
	</g>
</g>
<path class="st3" d="M64.79,15.1c0.09-0.14,0.17-0.14,0.39-0.17c0.17-0.02,0.35-0.03,0.52-0.03h0.21v-0.47
	c-0.4,0.01-0.85,0.03-1.13,0.03c-0.39,0-0.94,0-1.31-0.03v0.47c0.23,0,0.5,0,0.75,0.1c-0.02,0.04-0.02,0.06-0.07,0.12l-1.86,2.73
	l-2.02-2.95h0.84v-0.47c-0.41,0.03-1.37,0.03-1.82,0.03c-0.4,0-1.29,0-1.64-0.03v0.47h0.97l2.47,3.63v2.25h-1.07v0.47
	c0.36-0.03,1.33-0.03,1.75-0.03c0.43,0,1.38,0,1.76,0.03v-0.47h-1.08v-2.25L64.79,15.1"/>
<circle class="st0" cx="16.67" cy="16.17" r="11"/>
<circle class="st1" cx="16.67" cy="16.17" r="11"/>
<path class="st3" d="M13.15,16.75l1.67-2.2c0.11-0.14,0.12-0.15,0.47-0.18c0.24-0.03,0.3-0.03,0.58-0.03h0.29v-0.47
	c-0.42,0.03-0.9,0.03-1.33,0.03c-0.39,0-1.15,0-1.51-0.03v0.47c0.18,0,0.57,0,0.91,0.11c-0.01,0.02-0.06,0.08-0.08,0.11l-1.31,1.74
	l-1.42-1.96h0.82v-0.47c-0.41,0.03-1.35,0.03-1.8,0.03c-0.4,0-1.26,0-1.61-0.03v0.47H9.8l2.2,3.05L10,20.03
	c-0.09,0.12-0.11,0.14-0.43,0.17c-0.2,0.02-0.41,0.03-0.6,0.03H8.68v0.47c0.42-0.03,0.9-0.03,1.33-0.03c0.39,0,1.15,0,1.51,0.03
	v-0.47c-0.18,0-0.57,0-0.91-0.11c0.01-0.02,0.06-0.08,0.08-0.11l1.64-2.18l1.73,2.39h-0.82v0.47c0.41-0.03,1.35-0.03,1.8-0.03
	c0.4,0,1.26,0,1.61,0.03v-0.47h-0.97L13.15,16.75"/>
<circle class="st1" cx="66.17" cy="16.34" r="11"/>
<g>
	<g>
		<line class="st1" x1="79.83" y1="16.33" x2="98.31" y2="16.33"/>
		<g>
			<path class="st2" d="M101.33,16.33c-1.42,0.53-3.18,1.43-4.27,2.38l0.86-2.38l-0.86-2.38C98.15,14.91,99.91,15.8,101.33,16.33z"
				/>
		</g>
	</g>
</g>
<circle class="st1" cx="115.33" cy="16.5" r="11"/>
<path class="st3" d="M117.68,13.47c0.08-0.12,0.08-0.13,0.08-0.24c0-0.25-0.11-0.25-0.32-0.25h-5.11l-0.12,2.39h0.47
	c0.08-1.32,0.75-1.93,2.14-1.93h1.29l-3.97,5.83c-0.08,0.12-0.08,0.15-0.08,0.26c0,0.26,0.1,0.26,0.32,0.26h5.28l0.18-2.82h-0.47
	c-0.08,1.1-0.22,2.32-2.25,2.32h-1.39L117.68,13.47"/>
<rect x="0.5" y="0.5" class="st1" width="84" height="36"/>
<path class="st2" d="M51.34,32.91c0.07-0.18,0.07-0.19,0.13-0.35c0.05-0.12,0.08-0.21,0.08-0.32c0-0.27-0.19-0.5-0.5-0.5
	c-0.57,0-0.8,0.88-0.8,0.94c0,0.06,0.06,0.06,0.07,0.06c0.06,0,0.07-0.01,0.1-0.11c0.16-0.57,0.41-0.75,0.61-0.75
	c0.05,0,0.15,0,0.15,0.19c0,0.13-0.04,0.26-0.07,0.32c-0.05,0.16-0.32,0.86-0.42,1.12c-0.06,0.16-0.14,0.36-0.14,0.49
	c0,0.28,0.21,0.5,0.5,0.5c0.57,0,0.8-0.88,0.8-0.94c0-0.06-0.05-0.06-0.07-0.06c-0.06,0-0.06,0.02-0.09,0.11
	c-0.11,0.38-0.31,0.75-0.62,0.75c-0.1,0-0.15-0.06-0.15-0.2c0-0.15,0.04-0.24,0.18-0.61L51.34,32.91 M51.8,30.63
	c0-0.12-0.09-0.22-0.23-0.22c-0.16,0-0.33,0.16-0.33,0.32c0,0.11,0.09,0.22,0.23,0.22C51.62,30.95,51.8,30.81,51.8,30.63z"/>
<path class="st2" d="M57.98,33.62c0.08,0,0.2,0,0.2-0.12c0-0.12-0.12-0.12-0.21-0.12h-3.63c-0.09,0-0.21,0-0.21,0.12
	c0,0.12,0.12,0.12,0.2,0.12H57.98 M57.97,32.44c0.09,0,0.21,0,0.21-0.12c0-0.12-0.12-0.12-0.2-0.12h-3.64c-0.09,0-0.2,0-0.2,0.12
	c0,0.12,0.12,0.12,0.21,0.12H57.97z"/>
<path class="st2" d="M62.01,30.54c0-0.15,0-0.16-0.14-0.16c-0.38,0.39-0.91,0.39-1.11,0.39v0.19c0.12,0,0.48,0,0.8-0.16v3.15
	c0,0.22-0.02,0.29-0.57,0.29H60.8v0.19c0.21-0.02,0.74-0.02,0.98-0.02c0.24,0,0.77,0,0.98,0.02v-0.19h-0.19
	c-0.55,0-0.56-0.07-0.56-0.29V30.54"/>
<path class="st2" d="M64.57,34.42c0-0.4-0.15-0.64-0.39-0.64c-0.2,0-0.32,0.15-0.32,0.32c0,0.16,0.12,0.32,0.32,0.32
	c0.07,0,0.15-0.02,0.21-0.08c0.02-0.01,0.02-0.02,0.03-0.02c0.01,0,0.01,0.01,0.01,0.09c0,0.45-0.21,0.81-0.41,1.01
	c-0.07,0.07-0.07,0.08-0.07,0.1c0,0.04,0.03,0.07,0.06,0.07C64.09,35.6,64.57,35.13,64.57,34.42"/>
<path class="st2" d="M67.2,34.1c0-0.18-0.15-0.32-0.32-0.32c-0.18,0-0.32,0.15-0.32,0.32s0.15,0.32,0.32,0.32
	C67.05,34.43,67.2,34.28,67.2,34.1"/>
<path class="st2" d="M69.95,34.1c0-0.18-0.15-0.32-0.32-0.32c-0.18,0-0.32,0.15-0.32,0.32s0.15,0.32,0.32,0.32
	C69.8,34.43,69.95,34.28,69.95,34.1"/>
<path class="st2" d="M72.64,34.1c0-0.18-0.15-0.32-0.32-0.32c-0.18,0-0.32,0.15-0.32,0.32s0.15,0.32,0.32,0.32
	C72.49,34.43,72.64,34.28,72.64,34.1"/>
<path class="st2" d="M75.33,34.42c0-0.4-0.15-0.64-0.39-0.64c-0.2,0-0.32,0.15-0.32,0.32c0,0.16,0.12,0.32,0.32,0.32
	c0.07,0,0.15-0.02,0.21-0.08c0.02-0.01,0.02-0.02,0.03-0.02c0.01,0,0.01,0.01,0.01,0.09c0,0.45-0.21,0.81-0.41,1.01
	c-0.07,0.07-0.07,0.08-0.07,0.1c0,0.04,0.03,0.07,0.06,0.07C74.85,35.6,75.33,35.13,75.33,34.42"/>
<path class="st2" d="M77.38,34.07c-0.02,0.09-0.05,0.23-0.05,0.26c0,0.11,0.08,0.16,0.18,0.16c0.07,0,0.18-0.05,0.22-0.17
	c0.01-0.01,0.08-0.3,0.12-0.45l0.13-0.55c0.04-0.13,0.07-0.27,0.1-0.41c0.02-0.1,0.07-0.28,0.08-0.3c0.09-0.19,0.41-0.74,0.99-0.74
	c0.27,0,0.33,0.22,0.33,0.43c0,0.15-0.04,0.32-0.09,0.5l-0.17,0.7l-0.12,0.46c-0.02,0.12-0.08,0.33-0.08,0.36
	c0,0.11,0.08,0.16,0.18,0.16c0.19,0,0.22-0.15,0.27-0.35c0.08-0.34,0.31-1.23,0.36-1.46c0.02-0.08,0.34-0.81,1-0.81
	c0.26,0,0.33,0.21,0.33,0.43c0,0.35-0.26,1.04-0.38,1.36c-0.06,0.15-0.08,0.21-0.08,0.33c0,0.28,0.21,0.5,0.5,0.5
	c0.57,0,0.8-0.89,0.8-0.94c0-0.06-0.05-0.06-0.07-0.06c-0.06,0-0.06,0.02-0.09,0.11c-0.09,0.32-0.29,0.75-0.62,0.75
	c-0.1,0-0.15-0.06-0.15-0.2c0-0.15,0.05-0.3,0.11-0.43c0.12-0.32,0.37-0.99,0.37-1.34c0-0.39-0.24-0.65-0.7-0.65
	c-0.46,0-0.77,0.27-0.99,0.59c-0.01-0.08-0.02-0.29-0.19-0.43c-0.15-0.13-0.35-0.16-0.5-0.16c-0.55,0-0.84,0.39-0.95,0.53
	c-0.03-0.35-0.29-0.53-0.56-0.53c-0.28,0-0.39,0.24-0.45,0.35c-0.11,0.21-0.19,0.57-0.19,0.59c0,0.06,0.06,0.06,0.07,0.06
	c0.06,0,0.07-0.01,0.1-0.14c0.1-0.43,0.22-0.72,0.44-0.72c0.1,0,0.19,0.05,0.19,0.28c0,0.13-0.02,0.19-0.1,0.51L77.38,34.07"/>
<path class="st3" d="M69.21,10.47c-1.34,0.94-1.69,2.43-1.69,3.51c0,0.99,0.3,2.53,1.69,3.51c0.06,0,0.14,0,0.14-0.08
	c0-0.04-0.02-0.06-0.07-0.1c-0.93-0.84-1.28-2.04-1.28-3.32c0-1.9,0.73-2.83,1.3-3.35c0.03-0.03,0.05-0.05,0.05-0.08
	C69.36,10.47,69.27,10.47,69.21,10.47"/>
<path class="st3" d="M70.66,14.92c-0.03,0.09-0.06,0.18-0.06,0.3c0,0.33,0.28,0.6,0.67,0.6c0.7,0,1.01-0.97,1.01-1.07
	c0-0.09-0.09-0.09-0.11-0.09c-0.1,0-0.11,0.04-0.13,0.12c-0.16,0.56-0.47,0.85-0.75,0.85c-0.14,0-0.18-0.09-0.18-0.25
	c0-0.16,0.05-0.3,0.11-0.45c0.07-0.19,0.15-0.38,0.22-0.56c0.06-0.17,0.32-0.81,0.34-0.89c0.02-0.07,0.04-0.15,0.04-0.22
	c0-0.33-0.28-0.6-0.67-0.6c-0.7,0-1.02,0.96-1.02,1.08c0,0.09,0.1,0.09,0.12,0.09c0.1,0,0.1-0.04,0.13-0.11
	c0.18-0.6,0.49-0.86,0.75-0.86c0.11,0,0.18,0.06,0.18,0.25c0,0.16-0.04,0.27-0.22,0.7L70.66,14.92 M72.1,11.35
	c0-0.11-0.08-0.27-0.28-0.27c-0.19,0-0.39,0.18-0.39,0.39c0,0.12,0.09,0.27,0.28,0.27C71.91,11.74,72.1,11.54,72.1,11.35z"/>
<path class="st3" d="M73.25,10.47c-0.05,0-0.13,0-0.13,0.08c0,0.03,0.02,0.06,0.06,0.1c0.6,0.56,1.28,1.5,1.28,3.32
	c0,1.47-0.46,2.58-1.22,3.27c-0.12,0.12-0.13,0.13-0.13,0.16c0,0.04,0.02,0.08,0.09,0.08c0.08,0,0.75-0.46,1.22-1.34
	c0.31-0.58,0.51-1.34,0.51-2.17C74.94,12.99,74.64,11.45,73.25,10.47"/>
<path class="st3" d="M18.67,10.25c-1.34,0.94-1.69,2.43-1.69,3.51c0,0.99,0.3,2.53,1.69,3.51c0.06,0,0.14,0,0.14-0.08
	c0-0.04-0.02-0.06-0.07-0.1c-0.93-0.84-1.28-2.04-1.28-3.32c0-1.9,0.73-2.82,1.3-3.35c0.03-0.03,0.05-0.05,0.05-0.08
	C18.81,10.25,18.73,10.25,18.67,10.25"/>
<path class="st3" d="M20.12,14.7c-0.03,0.09-0.06,0.18-0.06,0.3c0,0.33,0.28,0.6,0.67,0.6c0.7,0,1.01-0.97,1.01-1.08
	c0-0.09-0.09-0.09-0.11-0.09c-0.1,0-0.11,0.04-0.13,0.12c-0.16,0.56-0.47,0.85-0.75,0.85c-0.14,0-0.17-0.09-0.17-0.25
	c0-0.16,0.05-0.3,0.11-0.45c0.07-0.19,0.15-0.38,0.23-0.56c0.06-0.17,0.32-0.81,0.34-0.89c0.02-0.07,0.04-0.15,0.04-0.23
	c0-0.33-0.28-0.6-0.67-0.6c-0.7,0-1.02,0.96-1.02,1.07c0,0.09,0.1,0.09,0.12,0.09c0.1,0,0.1-0.04,0.13-0.11
	c0.18-0.6,0.49-0.86,0.75-0.86c0.11,0,0.18,0.06,0.18,0.25c0,0.16-0.04,0.27-0.22,0.7L20.12,14.7 M21.55,11.13
	c0-0.11-0.08-0.27-0.28-0.27c-0.19,0-0.39,0.18-0.39,0.39c0,0.12,0.09,0.27,0.28,0.27C21.36,11.51,21.55,11.31,21.55,11.13z"/>
<path class="st3" d="M22.71,10.25c-0.05,0-0.13,0-0.13,0.08c0,0.03,0.02,0.06,0.06,0.1c0.6,0.56,1.28,1.5,1.28,3.32
	c0,1.47-0.46,2.58-1.22,3.27c-0.12,0.12-0.13,0.13-0.13,0.16c0,0.04,0.02,0.08,0.09,0.08c0.08,0,0.75-0.46,1.22-1.34
	c0.31-0.58,0.51-1.34,0.51-2.17C24.4,12.77,24.1,11.23,22.71,10.25"/>
</svg>
