<svg id="Layer_1" data-name="Layer 1" xmlns="http://www.w3.org/2000/svg" viewBox="0 0 161.92 22.4"><defs><style>.cls-1{fill:#486afb;}.cls-2{fill:#fd46fc;}</style></defs><path class="cls-1" d="M154.13,1c.45.12,1,.26,1.18.76a15.84,15.84,0,0,1,.27,2.07l.28,2.07c0,.35.09.69.13,1a3.55,3.55,0,0,0,.08.47c0,.15.14.31.08.46l.16-.28a2.11,2.11,0,0,1-.42.06l-.61.1c-.42.08-.89.09-1.17.45a.63.63,0,0,0,.12,1c.54.28,1.15,0,1.69-.16s1.11-.23,1.39-.7a1.12,1.12,0,0,0,.09-.72c0-.29-.05-.58-.09-.86-.09-.58-.21-1.16-.31-1.73l-.32-1.73a15.36,15.36,0,0,0-.31-1.67c-.28-.94-1.16-1.21-2-1.4a.41.41,0,0,0-.22.78Z"/><path class="cls-1" d="M3.93,0A2.52,2.52,0,0,0,2.17,1.39,4.66,4.66,0,0,0,2.26,4.2a24.78,24.78,0,0,1,.38,3.33,15.14,15.14,0,0,1,0,1.65,12.81,12.81,0,0,1-.09,1.76.8.8,0,0,0,.76,1,21.87,21.87,0,0,0,2.92,0,.65.65,0,0,0,.17-1.18,5.41,5.41,0,0,0-3.06-.37l.8.79c0-.48,0-1,0-1.44s-.07-1-.11-1.45a27,27,0,0,0-.37-2.83C3.5,4.48,3.22,3.59,3,2.67A1.44,1.44,0,0,1,4.1.71.36.36,0,0,0,3.93,0Z"/><path class="cls-1" d="M3.1,6.37Q18,6.07,32.93,6c10,0,20-.28,29.92-.44,19.89-.32,39.78-.33,59.67-.66,11.22-.19,22.45-.45,33.67-.44.73,0,.77-1.15,0-1.13-10,.25-20,.24-30,.34s-20,.22-30,.37c-19.88.31-39.75.47-59.63.67-11.16.11-22.32.37-33.48.41-.8,0-.85,1.26,0,1.24Z"/><path class="cls-1" d="M155.14,14.45a22.25,22.25,0,0,1-.07,2.55,3.32,3.32,0,0,0,1,2.35,4.4,4.4,0,0,0,4.62.44.53.53,0,0,0-.11-1,7.47,7.47,0,0,0-1.06-.11l-.55-.05h-.23c-.24,0,.14,0-.1,0s-.32-.05-.47-.09l-.25-.06s-.24-.09-.07,0a3.11,3.11,0,0,1-.41-.2c-.18-.11,0,0-.08-.06s-.11-.09-.16-.15-.14-.2-.06-.06L157,17.8l-.07-.14c0,.08,0,.09,0,0s-.05-.17-.07-.26a1.42,1.42,0,0,1-.05-.22s0-.23,0-.08a4.73,4.73,0,0,1,0-.53,12,12,0,0,0,0-2.61.85.85,0,0,0-1-.59.89.89,0,0,0-.63,1Z"/><path class="cls-1" d="M154.4,17.45a32.19,32.19,0,0,1,3.66-.5c.6-.05,1.21-.08,1.82-.1a4.49,4.49,0,0,0,1.83-.19.42.42,0,0,0,0-.73,1.88,1.88,0,0,0-.91-.18h-1c-.63,0-1.26,0-1.89.1a34.88,34.88,0,0,0-3.81.52c-.72.14-.45,1.22.27,1.08Z"/><path class="cls-1" d="M.15,18.41a4.15,4.15,0,0,0,.28,3,2,2,0,0,0,2.51.79C4.7,21.55,6.2,19,4.47,17.5a3.54,3.54,0,0,0-3.29-.62c-.41.12-.49.78,0,.87s.84.12,1.27.16a3.1,3.1,0,0,1,.92.25,1.88,1.88,0,0,1,.33.22A1.15,1.15,0,0,1,4,18.7a1,1,0,0,1,.13.76,2.38,2.38,0,0,1-.48.9,2.63,2.63,0,0,1-.73.65,1.28,1.28,0,0,1-.34.16,1.06,1.06,0,0,1-.42.07.75.75,0,0,1-.3-.08s-.17-.11-.11-.06a1,1,0,0,1-.18-.18c-.08-.08,0,0,0,0l-.08-.13-.06-.12s-.07-.12,0-.06a2.2,2.2,0,0,1-.13-.52,5.28,5.28,0,0,1,.1-1.37A.59.59,0,0,0,.88,18a.62.62,0,0,0-.73.42Z"/><path class="cls-2" d="M21.63,1.71c0,1.7,0,3.4,0,5.1s-.12,3.4,0,5.09a.54.54,0,0,0,1.08,0A45.57,45.57,0,0,0,23,6.8c0-1.7,0-3.4,0-5.1a.67.67,0,0,0-1.34,0Z"/><path class="cls-2" d="M40.42,2.05c.22,2.55.35,5.09.41,7.65,0,.64.9.58,1,0A32.1,32.1,0,0,0,41.89,2a.74.74,0,0,0-.72-.72c-.36,0-.79.34-.75.73Z"/><path class="cls-2" d="M59.42,2.57l.32,3.81a23.41,23.41,0,0,0,.51,3.81c.16.67,1.13.48,1.17-.16a24.6,24.6,0,0,0-.18-3.74l-.36-3.74a.73.73,0,0,0-.72-.71.76.76,0,0,0-.74.73Z"/><path class="cls-2" d="M78.4,2a30.81,30.81,0,0,0,.69,6.77.52.52,0,0,0,1-.14C80,6.4,79.8,4.19,79.72,2A.66.66,0,0,0,78.4,2Z"/><path class="cls-2" d="M97.87,2a75,75,0,0,0,1,7.64.49.49,0,0,0,1-.13,73.28,73.28,0,0,0-.79-7.67C99,1.16,97.8,1.33,97.87,2Z"/><path class="cls-2" d="M116.82,1.81a33.41,33.41,0,0,0,.69,7.13.56.56,0,0,0,1.08-.15c-.06-2.33-.31-4.66-.38-7a.7.7,0,0,0-1.39,0Z"/><path class="cls-2" d="M135.57,1.63c.11,1.19.21,2.38.33,3.57s.2,2.37.41,3.54c.1.5.91.37.9-.12,0-1.17-.18-2.34-.3-3.5s-.25-2.33-.38-3.5a.48.48,0,0,0-.47-.47.51.51,0,0,0-.49.48Z"/><path class="cls-1" d="M10.64,8c.8-.85,1.59-1.71,2.36-2.59a22.87,22.87,0,0,0,2.19-2.72c.22-.35-.26-.64-.54-.4-.86.76-1.6,1.65-2.39,2.48s-1.58,1.66-2.4,2.47a.54.54,0,0,0,.78.76Z"/><path class="cls-1" d="M9.94,3.14c1.08,2,2.11,4,3.34,5.92a.53.53,0,0,0,.91-.53c-.93-2.07-2.07-4-3.15-6-.38-.7-1.48-.06-1.1.64Z"/><path class="cls-1" d="M44.34,8.1c.78-.86,1.57-1.72,2.34-2.59A24.92,24.92,0,0,0,49,2.85a.33.33,0,0,0-.09-.45.36.36,0,0,0-.46,0A26.76,26.76,0,0,0,46,4.88c-.79.82-1.58,1.66-2.37,2.5-.47.5.29,1.23.75.72Z"/><path class="cls-1" d="M43.65,3.87c.5.74,1,1.5,1.42,2.27s.83,1.57,1.27,2.35c.23.42,1,.13.8-.33a20.45,20.45,0,0,0-2.56-4.82.56.56,0,0,0-.73-.19.54.54,0,0,0-.2.72Z"/><path class="cls-1" d="M73.3,7.56c.48-.9,1-1.78,1.52-2.66s1.09-1.72,1.58-2.61c.14-.25-.21-.53-.41-.3a22.09,22.09,0,0,0-1.8,2.51c-.55.88-1.08,1.77-1.59,2.68a.4.4,0,0,0,.7.38Z"/><path class="cls-1" d="M72.7,3.06c1.06,1.24,2,2.56,3,3.86a.41.41,0,0,0,.54.14.41.41,0,0,0,.16-.54,23.78,23.78,0,0,0-3-4.2.52.52,0,0,0-.74,0,.51.51,0,0,0,0,.72Z"/><path class="cls-1" d="M86.44,7.08c.66-.88,1.36-1.74,2.08-2.57.35-.42.72-.82,1.09-1.22A9.85,9.85,0,0,0,90.75,2c.17-.27-.16-.53-.41-.4A7,7,0,0,0,89,2.69c-.42.39-.83.79-1.24,1.2a27.56,27.56,0,0,0-2.28,2.66.53.53,0,0,0,.2.74.59.59,0,0,0,.77-.21Z"/><path class="cls-1" d="M85.38,2.86a29.29,29.29,0,0,0,3.28,5.28.58.58,0,0,0,.78,0,.59.59,0,0,0,.17-.75c-.47-.9-1-1.75-1.55-2.61S87,3.08,86.52,2.2c-.4-.72-1.52-.07-1.14.66Z"/><path class="cls-1" d="M123.33,6.68l2.84-2.82,1.39-1.36A11.44,11.44,0,0,0,129,1c.19-.27-.19-.64-.45-.45A11.66,11.66,0,0,0,127.07,2c-.45.49-.91,1-1.37,1.46-.92,1-1.84,1.93-2.78,2.88a.28.28,0,0,0,.41.39Z"/><path class="cls-1" d="M124.21,2.72c.58,1.55,1.12,3.13,1.84,4.63.23.48,1,.13.88-.37-.42-1.56-1-3.06-1.57-4.57a.6.6,0,0,0-1.15.31Z"/><path class="cls-1" d="M144.42,6.74a20.33,20.33,0,0,0,2.3-2.34c.36-.42.69-.86,1-1.31a4.82,4.82,0,0,0,.81-1.45.33.33,0,0,0-.55-.3,7,7,0,0,0-1,1.26c-.31.43-.64.85-1,1.25a22,22,0,0,1-2.24,2.29.42.42,0,0,0,0,.61.44.44,0,0,0,.62,0Z"/><path class="cls-1" d="M144,2c.43,1.11.86,2.21,1.31,3.31.22.54.45,1.08.69,1.61a7.37,7.37,0,0,0,.87,1.58c.31.37.89-.06.8-.47A8.14,8.14,0,0,0,147,6.36c-.24-.51-.48-1-.71-1.52q-.75-1.57-1.41-3.18c-.2-.47-1-.12-.86.35Z"/><path class="cls-2" d="M60.79,17.72c.17,0,.18-.26,0-.26s-.18.26,0,.26Z"/></svg>