<?xml version="1.0" encoding="utf-8"?>
<!-- Generator: Adobe Illustrator 26.0.2, SVG Export Plug-In . SVG Version: 6.00 Build 0)  -->
<svg version="1.1" id="Layer_1" xmlns="http://www.w3.org/2000/svg" xmlns:xlink="http://www.w3.org/1999/xlink" x="0px" y="0px"
	 viewBox="0 0 284.06 180.9" style="enable-background:new 0 0 284.06 180.9;" xml:space="preserve">
<style type="text/css">
	.st0{fill:#486AFB;}
	.st1{fill:#FD46FC;}
</style>
<g>
	<g>
		<path class="st0" d="M171.28,172.04c-0.08,1.43-0.11,2.85-0.07,4.28c0.04,1.4,0.03,2.88,0.44,4.23c0.17,0.55,0.93,0.41,0.98-0.13
			c0.13-1.39-0.07-2.8-0.11-4.19c-0.04-1.4-0.03-2.8,0.04-4.2C172.59,171.21,171.32,171.24,171.28,172.04L171.28,172.04z"/>
	</g>
</g>
<g>
	<g>
		<path class="st0" d="M173.09,173.3c-0.05,2.28,0.05,4.65,0.92,6.79c0.19,0.47,0.92,0.19,0.93-0.25c0.03-2.19-0.27-4.36-0.23-6.55
			C174.73,172.25,173.11,172.29,173.09,173.3L173.09,173.3z"/>
	</g>
</g>
<g>
	<g>
		<path class="st0" d="M172.53,172.55c1.09-1.37,3.27-1.62,4.36-0.08c0.48,0.68,0.53,1.6,0.15,2.33c-0.22,0.41-0.55,0.69-0.95,0.92
			c-0.4,0.23-0.87,0.51-1.31,0.65c-0.48,0.15-0.6,0.77-0.16,1.05c0.38,0.23,0.85,0.33,1.26,0.5c0.42,0.18,0.84,0.36,1.24,0.59
			c0.8,0.45,1.48,1.05,2.19,1.62c0.41,0.33,1.16-0.12,0.82-0.63c-0.58-0.87-1.4-1.54-2.29-2.09c-0.81-0.5-1.94-1.12-2.92-1.06
			c0.13,0.32,0.26,0.64,0.39,0.96c0.21-0.24,0.59-0.38,0.87-0.53c0.28-0.15,0.56-0.29,0.81-0.48c0.48-0.35,0.84-0.81,1.06-1.37
			c0.42-1.04,0.3-2.25-0.37-3.16c-1.53-2.06-4.47-1.73-5.91,0.22C171.48,172.43,172.2,172.96,172.53,172.55L172.53,172.55z"/>
	</g>
</g>
<g>
	<g>
		<path class="st0" d="M130.75,127.72c9.57,1.24,19.2,1.12,28.82,0.6c9.66-0.52,19.31-1.35,28.99-1.3c2.67,0.01,5.33,0.09,7.99,0.25
			c1.35,0.08,2.7,0.19,4.05,0.31c1.39,0.13,2.77,0.34,4.16,0.39c0.55,0.02,0.7-0.84,0.15-0.97c-2.28-0.53-4.69-0.64-7.02-0.8
			c-2.42-0.17-4.85-0.26-7.27-0.29c-4.79-0.07-9.58,0.07-14.36,0.29c-9.62,0.44-19.24,1.14-28.88,1.18
			c-5.44,0.03-10.9-0.18-16.3-0.83C130.34,126.48,129.97,127.62,130.75,127.72L130.75,127.72z"/>
	</g>
</g>
<g>
	<g>
		<path class="st0" d="M130.48,128.45c0.57,0.58,1.13,1.16,1.72,1.72c0.29,0.27,0.58,0.54,0.88,0.8c0.15,0.13,0.3,0.27,0.46,0.4
			c0.22,0.18,0.43,0.31,0.71,0.4c0.37,0.12,0.84-0.3,0.7-0.69c-0.04-0.12-0.08-0.24-0.15-0.35c-0.07-0.11-0.16-0.23-0.25-0.33
			c-0.13-0.15-0.28-0.3-0.42-0.44c-0.28-0.3-0.56-0.59-0.85-0.87c-0.58-0.57-1.19-1.11-1.78-1.67c-0.28-0.26-0.75-0.26-1.01,0.02
			C130.22,127.74,130.2,128.17,130.48,128.45L130.48,128.45z"/>
	</g>
</g>
<g>
	<g>
		<path class="st0" d="M131.28,127.48c0.64-0.6,1.25-1.23,1.84-1.88c0.29-0.32,0.57-0.65,0.85-0.98c0.31-0.36,0.64-0.71,0.79-1.16
			c0.11-0.32-0.3-0.62-0.58-0.43c-0.38,0.25-0.63,0.62-0.91,0.97c-0.27,0.33-0.56,0.66-0.85,0.98c-0.58,0.64-1.19,1.26-1.82,1.85
			c-0.19,0.18-0.19,0.5,0,0.67C130.79,127.68,131.09,127.66,131.28,127.48L131.28,127.48z"/>
	</g>
</g>
<g>
	<g>
		<path class="st0" d="M204.89,126.51c-0.47-0.53-0.93-1.06-1.41-1.58c-0.24-0.26-0.47-0.51-0.71-0.77
			c-0.25-0.28-0.49-0.61-0.89-0.66c-0.19-0.02-0.39,0.08-0.39,0.29c0,0.18,0.05,0.39,0.16,0.54c0.13,0.16,0.26,0.32,0.39,0.48
			c0.23,0.28,0.46,0.55,0.69,0.83c0.46,0.55,0.93,1.09,1.4,1.64c0.18,0.21,0.57,0.18,0.75-0.02
			C205.09,127.03,205.09,126.74,204.89,126.51L204.89,126.51z"/>
	</g>
</g>
<g>
	<g>
		<path class="st0" d="M203.61,127.27c-0.59,0.62-1.19,1.24-1.78,1.86c-0.29,0.3-0.58,0.62-0.86,0.93c-0.15,0.16-0.29,0.33-0.42,0.5
			c-0.14,0.19-0.26,0.39-0.39,0.59c-0.24,0.37,0.25,0.86,0.61,0.6c0.37-0.26,0.71-0.52,1.04-0.83c0.31-0.3,0.62-0.61,0.92-0.92
			c0.59-0.62,1.19-1.24,1.78-1.86c0.23-0.24,0.27-0.66,0.01-0.89C204.26,127.03,203.86,127.02,203.61,127.27L203.61,127.27z"/>
	</g>
</g>
<g>
	<g>
		<path class="st0" d="M167.74,92.4c-0.07,4.74-0.16,9.48-0.21,14.23c-0.05,4.78-0.23,9.57-0.3,14.35
			c-0.12,9.48-0.05,18.97-0.18,28.45c-0.04,2.66-0.08,5.32-0.12,7.99c-0.04,2.69-0.24,5.43,0,8.11c0.06,0.65,0.95,0.63,1.01-0.01
			c0.25-2.35,0.16-4.76,0.16-7.11c0-2.37,0.01-4.74,0.02-7.11c0.03-4.78,0.04-9.57,0.12-14.35c0.08-4.74,0.23-9.48,0.27-14.23
			c0.03-4.74-0.05-9.48-0.02-14.22c0.04-5.37,0.06-10.73,0.08-16.1C168.58,91.85,167.74,91.88,167.74,92.4L167.74,92.4z"/>
	</g>
</g>
<g>
	<g>
		<path class="st0" d="M168.48,165.76c0.79-0.66,1.57-1.32,2.36-1.96c0.79-0.65,1.62-1.25,2.35-1.98c0.27-0.27-0.08-0.74-0.41-0.53
			c-0.88,0.57-1.67,1.26-2.49,1.91c-0.82,0.65-1.64,1.29-2.47,1.93c-0.2,0.15-0.17,0.49,0,0.65
			C168.02,165.96,168.29,165.92,168.48,165.76L168.48,165.76z"/>
	</g>
</g>
<g>
	<g>
		<path class="st0" d="M163.65,162.52c0.69,0.78,1.44,1.51,2.25,2.17c0.83,0.67,1.72,1.35,2.73,1.72c0.44,0.16,0.84-0.5,0.48-0.81
			c-0.76-0.65-1.64-1.17-2.42-1.81c-0.78-0.64-1.52-1.35-2.19-2.11c-0.21-0.24-0.63-0.19-0.84,0.02
			C163.42,161.93,163.44,162.28,163.65,162.52L163.65,162.52z"/>
	</g>
</g>
<g>
	<g>
		<path class="st0" d="M167.1,92.56c-0.51,0.46-1.02,0.94-1.49,1.45c-0.49,0.53-0.99,1.09-1.27,1.77c-0.12,0.3,0.29,0.57,0.54,0.4
			c0.58-0.39,1.05-0.93,1.54-1.43c0.48-0.49,0.97-0.97,1.48-1.42c0.22-0.19,0.23-0.59,0.01-0.79
			C167.66,92.33,167.33,92.34,167.1,92.56L167.1,92.56z"/>
	</g>
</g>
<g>
	<g>
		<path class="st0" d="M168.59,93.71c0.77,0.43,1.33,0.84,1.96,1.47c0.15,0.15,0.29,0.3,0.44,0.46c0.06,0.07,0.13,0.14,0.19,0.22
			c0.04,0.04,0.07,0.09,0.11,0.13c0.07,0.08-0.01-0.02,0.06,0.07c0.26,0.34,0.51,0.72,0.74,1.04c0.13,0.18,0.33,0.27,0.55,0.17
			c0.19-0.08,0.34-0.3,0.27-0.51c-0.28-0.89-0.88-1.7-1.51-2.38c-0.64-0.67-1.38-1.24-2.2-1.67c-0.27-0.14-0.65-0.05-0.79,0.22
			C168.24,93.21,168.31,93.56,168.59,93.71L168.59,93.71z"/>
	</g>
</g>
<g>
	<g>
		<path class="st0" d="M179.16,168.04c0.51-0.16,1.03-0.12,1.49,0.16c0-0.31,0.01-0.61,0.01-0.92c-0.61,0.46-1.25,0.89-1.84,1.37
			c-0.29,0.24-0.5,0.57-0.48,0.95c0.02,0.44,0.32,0.77,0.67,1c0.29,0.19,0.64,0.3,0.96,0.42c0.32,0.12,0.64,0.23,0.97,0.32
			c0.38,0.1,0.76,0.17,1.16,0.21c0.4,0.05,0.76,0.07,1.14-0.06c0.24-0.08,0.43-0.27,0.47-0.53c0.03-0.23-0.07-0.52-0.3-0.62
			c-0.16-0.07-0.32-0.15-0.5-0.18c-0.14-0.02-0.27-0.04-0.41-0.06c-0.29-0.04-0.57-0.09-0.86-0.15c-0.57-0.11-1.13-0.26-1.67-0.47
			c0.09,0.03-0.08-0.03-0.09-0.04c-0.04-0.02-0.09-0.04-0.13-0.06c-0.02-0.01-0.17-0.11-0.1-0.05c0.08,0.07-0.05-0.06-0.05-0.06
			c0.07,0.01,0.08,0.15,0.08,0.2c0-0.01-0.04,0.15-0.06,0.13c-0.01-0.01,0.3-0.28,0.31-0.3c0.45-0.41,0.9-0.82,1.36-1.23
			c0.25-0.22,0.2-0.68-0.1-0.83c-0.71-0.35-1.52-0.45-2.28-0.2c-0.26,0.08-0.44,0.34-0.37,0.61
			C178.61,167.95,178.9,168.12,179.16,168.04L179.16,168.04z"/>
	</g>
</g>
<g>
	<g>
		<path class="st0" d="M76,133.43c-0.08,1.43-0.11,2.85-0.07,4.28c0.04,1.4,0.03,2.88,0.44,4.23c0.17,0.55,0.93,0.41,0.98-0.13
			c0.13-1.39-0.07-2.8-0.11-4.19c-0.04-1.4-0.03-2.8,0.04-4.2C77.31,132.6,76.04,132.64,76,133.43L76,133.43z"/>
	</g>
</g>
<g>
	<g>
		<path class="st0" d="M77.81,134.7c-0.05,2.28,0.05,4.65,0.92,6.79c0.19,0.47,0.92,0.19,0.93-0.25c0.03-2.19-0.27-4.36-0.23-6.55
			C79.45,133.64,77.83,133.68,77.81,134.7L77.81,134.7z"/>
	</g>
</g>
<g>
	<g>
		<path class="st0" d="M77.25,133.94c1.09-1.37,3.27-1.62,4.36-0.08c0.48,0.68,0.53,1.6,0.15,2.33c-0.22,0.41-0.55,0.69-0.95,0.92
			c-0.4,0.23-0.87,0.51-1.31,0.65c-0.48,0.15-0.6,0.77-0.16,1.05c0.38,0.23,0.85,0.33,1.26,0.5c0.42,0.18,0.84,0.36,1.24,0.59
			c0.8,0.45,1.48,1.05,2.19,1.62c0.41,0.33,1.16-0.12,0.82-0.63c-0.58-0.87-1.4-1.54-2.29-2.09c-0.81-0.5-1.94-1.12-2.92-1.06
			c0.13,0.32,0.26,0.64,0.39,0.96c0.21-0.24,0.59-0.38,0.87-0.53c0.28-0.15,0.56-0.29,0.81-0.48c0.48-0.35,0.84-0.81,1.06-1.37
			c0.42-1.04,0.3-2.25-0.37-3.16c-1.53-2.06-4.47-1.73-5.91,0.22C76.2,133.82,76.92,134.35,77.25,133.94L77.25,133.94z"/>
	</g>
</g>
<g>
	<g>
		<path class="st0" d="M0.48,128.61c9.57,1.24,19.2,1.12,28.82,0.6c9.66-0.52,19.31-1.35,28.99-1.3c2.67,0.01,5.33,0.09,7.99,0.25
			c1.35,0.08,2.7,0.19,4.05,0.31c1.39,0.13,2.77,0.34,4.16,0.39c0.55,0.02,0.7-0.84,0.15-0.97c-2.28-0.53-4.69-0.64-7.02-0.8
			c-2.42-0.17-4.85-0.26-7.27-0.29c-4.79-0.07-9.58,0.07-14.36,0.29c-9.62,0.44-19.24,1.14-28.88,1.18
			c-5.44,0.03-10.9-0.18-16.3-0.83C0.06,127.37-0.3,128.51,0.48,128.61L0.48,128.61z"/>
	</g>
</g>
<g>
	<g>
		<path class="st0" d="M0.2,129.34c0.57,0.58,1.13,1.16,1.72,1.72c0.29,0.27,0.58,0.54,0.88,0.8c0.15,0.13,0.3,0.27,0.46,0.4
			c0.22,0.18,0.43,0.31,0.71,0.4c0.37,0.12,0.84-0.3,0.7-0.69c-0.04-0.12-0.08-0.24-0.15-0.35c-0.07-0.11-0.16-0.23-0.25-0.33
			c-0.13-0.15-0.28-0.3-0.42-0.44c-0.28-0.3-0.56-0.59-0.85-0.87c-0.58-0.57-1.19-1.11-1.78-1.67c-0.28-0.26-0.75-0.26-1.01,0.02
			C-0.05,128.63-0.08,129.06,0.2,129.34L0.2,129.34z"/>
	</g>
</g>
<g>
	<g>
		<path class="st0" d="M1,128.37c0.64-0.6,1.25-1.23,1.84-1.88c0.29-0.32,0.57-0.65,0.85-0.98c0.31-0.36,0.64-0.71,0.79-1.16
			c0.11-0.32-0.3-0.62-0.58-0.43c-0.38,0.25-0.63,0.62-0.91,0.97c-0.27,0.33-0.56,0.66-0.85,0.98c-0.58,0.64-1.19,1.26-1.82,1.85
			c-0.19,0.18-0.19,0.5,0,0.67C0.51,128.58,0.82,128.55,1,128.37L1,128.37z"/>
	</g>
</g>
<g>
	<g>
		<path class="st0" d="M74.61,127.4c-0.47-0.53-0.93-1.06-1.41-1.58c-0.24-0.26-0.47-0.51-0.71-0.77c-0.25-0.28-0.49-0.61-0.89-0.66
			c-0.19-0.02-0.39,0.08-0.39,0.29c0,0.18,0.05,0.39,0.16,0.54c0.12,0.16,0.26,0.32,0.39,0.48c0.23,0.28,0.46,0.55,0.69,0.83
			c0.46,0.55,0.93,1.09,1.4,1.64c0.18,0.21,0.57,0.18,0.75-0.02C74.81,127.92,74.81,127.63,74.61,127.4L74.61,127.4z"/>
	</g>
</g>
<g>
	<g>
		<path class="st0" d="M73.33,128.16c-0.59,0.62-1.19,1.24-1.78,1.86c-0.29,0.3-0.58,0.62-0.86,0.93c-0.15,0.16-0.29,0.33-0.42,0.5
			c-0.14,0.19-0.26,0.39-0.39,0.59c-0.24,0.37,0.25,0.86,0.61,0.6c0.37-0.26,0.71-0.52,1.04-0.83c0.31-0.3,0.62-0.61,0.92-0.92
			c0.59-0.62,1.19-1.24,1.78-1.86c0.23-0.24,0.27-0.66,0.01-0.89C73.98,127.92,73.58,127.91,73.33,128.16L73.33,128.16z"/>
	</g>
</g>
<g>
	<g>
		<path class="st0" d="M275.11,169.69c-0.08,1.43-0.11,2.85-0.07,4.28c0.04,1.4,0.03,2.88,0.44,4.23c0.17,0.55,0.93,0.41,0.98-0.13
			c0.13-1.39-0.07-2.8-0.11-4.19c-0.04-1.4-0.03-2.8,0.04-4.2C276.43,168.86,275.16,168.9,275.11,169.69L275.11,169.69z"/>
	</g>
</g>
<g>
	<g>
		<path class="st0" d="M276.92,170.96c-0.05,2.28,0.05,4.65,0.92,6.79c0.19,0.47,0.92,0.19,0.93-0.25c0.03-2.19-0.27-4.36-0.23-6.55
			C278.57,169.9,276.94,169.94,276.92,170.96L276.92,170.96z"/>
	</g>
</g>
<g>
	<g>
		<path class="st0" d="M276.37,170.2c1.09-1.37,3.27-1.62,4.36-0.08c0.48,0.68,0.53,1.6,0.15,2.33c-0.22,0.41-0.55,0.69-0.95,0.92
			c-0.4,0.23-0.87,0.51-1.31,0.65c-0.48,0.15-0.6,0.77-0.16,1.05c0.38,0.23,0.85,0.33,1.26,0.5c0.42,0.18,0.84,0.36,1.24,0.59
			c0.8,0.45,1.48,1.05,2.19,1.62c0.41,0.33,1.16-0.12,0.82-0.63c-0.58-0.87-1.4-1.54-2.29-2.09c-0.81-0.5-1.94-1.12-2.92-1.06
			c0.13,0.32,0.26,0.64,0.39,0.96c0.21-0.24,0.59-0.38,0.87-0.53c0.28-0.15,0.56-0.29,0.81-0.48c0.48-0.35,0.84-0.81,1.06-1.37
			c0.42-1.04,0.3-2.25-0.37-3.16c-1.53-2.06-4.47-1.73-5.91,0.22C275.32,170.09,276.04,170.61,276.37,170.2L276.37,170.2z"/>
	</g>
</g>
<g>
	<g>
		<path class="st0" d="M272.74,92.9c-0.07,4.74-0.16,9.48-0.21,14.23c-0.05,4.78-0.23,9.57-0.3,14.35
			c-0.12,9.48-0.05,18.97-0.18,28.45c-0.04,2.66-0.08,5.32-0.12,7.99c-0.04,2.69-0.24,5.43,0,8.11c0.06,0.65,0.95,0.63,1.01-0.01
			c0.25-2.35,0.16-4.76,0.16-7.11c0-2.37,0.01-4.74,0.02-7.11c0.03-4.78,0.04-9.57,0.12-14.35c0.08-4.74,0.23-9.48,0.27-14.23
			c0.03-4.74-0.05-9.48-0.02-14.22c0.04-5.37,0.06-10.73,0.08-16.1C273.58,92.36,272.74,92.38,272.74,92.9L272.74,92.9z"/>
	</g>
</g>
<g>
	<g>
		<path class="st0" d="M273.48,166.26c0.79-0.66,1.57-1.32,2.36-1.96c0.79-0.65,1.62-1.25,2.35-1.98c0.27-0.27-0.08-0.74-0.41-0.53
			c-0.88,0.57-1.67,1.26-2.49,1.91c-0.82,0.65-1.64,1.29-2.47,1.93c-0.2,0.15-0.17,0.49,0,0.65
			C273.02,166.46,273.29,166.42,273.48,166.26L273.48,166.26z"/>
	</g>
</g>
<g>
	<g>
		<path class="st0" d="M268.65,163.02c0.69,0.78,1.44,1.51,2.25,2.17c0.83,0.67,1.72,1.35,2.73,1.72c0.44,0.16,0.84-0.5,0.48-0.81
			c-0.76-0.65-1.64-1.17-2.42-1.81c-0.78-0.64-1.52-1.35-2.19-2.11c-0.21-0.24-0.63-0.19-0.84,0.02
			C268.42,162.44,268.44,162.78,268.65,163.02L268.65,163.02z"/>
	</g>
</g>
<g>
	<g>
		<path class="st0" d="M272.1,93.06c-0.51,0.46-1.02,0.94-1.49,1.45c-0.49,0.53-0.99,1.09-1.27,1.77c-0.12,0.3,0.29,0.57,0.54,0.4
			c0.58-0.39,1.05-0.93,1.54-1.43c0.48-0.49,0.97-0.97,1.48-1.42c0.22-0.19,0.23-0.59,0.01-0.79
			C272.66,92.83,272.33,92.85,272.1,93.06L272.1,93.06z"/>
	</g>
</g>
<g>
	<g>
		<path class="st0" d="M273.59,94.21c0.77,0.43,1.33,0.84,1.96,1.47c0.15,0.15,0.29,0.3,0.44,0.46c0.06,0.07,0.13,0.14,0.19,0.22
			c0.04,0.04,0.07,0.09,0.11,0.13c0.07,0.08-0.01-0.02,0.05,0.07c0.26,0.34,0.51,0.72,0.74,1.04c0.13,0.18,0.33,0.27,0.55,0.17
			c0.19-0.08,0.34-0.3,0.27-0.51c-0.28-0.89-0.88-1.7-1.51-2.38c-0.64-0.67-1.38-1.24-2.2-1.67c-0.27-0.14-0.65-0.05-0.79,0.22
			C273.24,93.71,273.31,94.06,273.59,94.21L273.59,94.21z"/>
	</g>
</g>
<g>
	<g>
		<path class="st1" d="M156.44,67.37c-1.63,3.3-1.82,7.89,0.59,10.88c0.41,0.51,1.1-0.16,0.88-0.67c-0.68-1.54-1.28-3.08-1.41-4.78
			c-0.12-1.69,0.14-3.39,0.85-4.93C157.64,67.26,156.74,66.76,156.44,67.37L156.44,67.37z"/>
	</g>
</g>
<g>
	<g>
		<path class="st1" d="M160.95,75.69c0.96-1.27,1.94-2.53,2.93-3.79c0.48-0.61,0.96-1.21,1.44-1.81c0.5-0.62,1.03-1.22,1.48-1.88
			c0.2-0.29-0.23-0.57-0.47-0.34c-0.57,0.54-1.07,1.17-1.59,1.77c-0.52,0.6-1.03,1.21-1.54,1.81c-1.02,1.22-2.01,2.45-2.99,3.7
			C159.79,75.68,160.54,76.23,160.95,75.69L160.95,75.69z"/>
	</g>
</g>
<g>
	<g>
		<path class="st1" d="M160.82,70.2c0.53,1.35,1.13,2.67,1.82,3.95c0.67,1.24,1.41,2.58,2.43,3.57c0.51,0.49,1.25-0.15,0.97-0.75
			c-0.57-1.23-1.38-2.35-2.03-3.54c-0.64-1.17-1.22-2.39-1.71-3.63c-0.15-0.38-0.5-0.64-0.92-0.52
			C161.03,69.37,160.67,69.82,160.82,70.2L160.82,70.2z"/>
	</g>
</g>
<g>
	<g>
		<path class="st1" d="M168.46,76.86c0.13,0.36,0.21,0.73,0.26,1.1c0.02,0.15-0.01-0.09,0,0.03c0,0.04,0.01,0.08,0.01,0.12
			c0,0.03,0,0.05,0,0.08c0.02,0.17,0.02,0.2,0.01,0.08c0.01,0.04,0.01,0.08,0.01,0.12c0.01,0.19,0.02,0.38,0.03,0.57
			c0.01,0.24,0.17,0.43,0.41,0.46c0.24,0.03,0.45-0.12,0.53-0.35c0.3-0.82,0.2-1.74-0.12-2.54c-0.06-0.15-0.13-0.27-0.28-0.36
			c-0.12-0.07-0.31-0.1-0.44-0.05C168.62,76.23,168.35,76.55,168.46,76.86L168.46,76.86z"/>
	</g>
</g>
<g>
	<g>
		<path class="st1" d="M176.93,69.49c-0.67,1.2-1.35,2.4-2.01,3.61c-0.32,0.58-0.64,1.17-0.96,1.75c-0.33,0.62-0.69,1.25-0.87,1.94
			c-0.12,0.46,0.49,0.82,0.82,0.45c0.47-0.53,0.81-1.17,1.15-1.79c0.32-0.58,0.63-1.17,0.94-1.76c0.65-1.22,1.28-2.44,1.92-3.66
			C178.26,69.38,177.28,68.86,176.93,69.49L176.93,69.49z"/>
	</g>
</g>
<g>
	<g>
		<path class="st1" d="M174.92,72.59c-0.35-0.58-0.69-1.16-1.04-1.73c-0.17-0.29-0.35-0.58-0.52-0.87c-0.18-0.3-0.4-0.58-0.64-0.84
			c-0.25-0.27-0.79,0.02-0.66,0.38c0.12,0.33,0.25,0.65,0.43,0.95c0.17,0.29,0.35,0.58,0.52,0.86c0.35,0.58,0.7,1.15,1.05,1.73
			C174.39,73.61,175.24,73.12,174.92,72.59L174.92,72.59z"/>
	</g>
</g>
<g>
	<g>
		<path class="st1" d="M232.86,67.46c-0.67,1.2-1.35,2.4-2.01,3.61c-0.32,0.58-0.64,1.17-0.96,1.75c-0.33,0.62-0.69,1.25-0.87,1.94
			c-0.12,0.46,0.49,0.82,0.82,0.45c0.47-0.53,0.81-1.17,1.15-1.79c0.32-0.58,0.63-1.17,0.94-1.76c0.65-1.22,1.28-2.44,1.92-3.66
			C234.2,67.34,233.22,66.82,232.86,67.46L232.86,67.46z"/>
	</g>
</g>
<g>
	<g>
		<path class="st1" d="M230.86,70.56c-0.35-0.58-0.69-1.16-1.04-1.73c-0.17-0.29-0.35-0.58-0.52-0.87c-0.18-0.3-0.4-0.58-0.64-0.84
			c-0.25-0.27-0.79,0.02-0.66,0.38c0.12,0.33,0.25,0.65,0.43,0.95c0.17,0.29,0.35,0.58,0.52,0.86c0.35,0.58,0.7,1.15,1.05,1.73
			C230.33,71.57,231.18,71.08,230.86,70.56L230.86,70.56z"/>
	</g>
</g>
<g>
	<g>
		<path class="st1" d="M179.44,68.25c0.96,1.73,1.75,3.64,1.86,5.64c0.1,1.84-0.38,3.62-1.41,5.14c-0.32,0.47,0.39,0.96,0.77,0.57
			c3.13-3.35,1.83-8.39-0.24-11.91C180.05,67.08,179.1,67.64,179.44,68.25L179.44,68.25z"/>
	</g>
</g>
<g>
	<g>
		<path class="st1" d="M81.82,70.64c0.96-1.27,1.94-2.53,2.93-3.79c0.48-0.61,0.96-1.21,1.44-1.81c0.5-0.62,1.03-1.22,1.48-1.88
			c0.2-0.29-0.23-0.57-0.47-0.34c-0.57,0.54-1.07,1.17-1.59,1.77c-0.52,0.6-1.03,1.21-1.54,1.81c-1.02,1.22-2.01,2.45-2.99,3.7
			C80.66,70.63,81.41,71.18,81.82,70.64L81.82,70.64z"/>
	</g>
</g>
<g>
	<g>
		<path class="st1" d="M81.69,65.15c0.53,1.35,1.13,2.67,1.82,3.95c0.67,1.24,1.41,2.58,2.43,3.57c0.51,0.49,1.25-0.15,0.97-0.75
			c-0.57-1.23-1.38-2.35-2.03-3.54c-0.64-1.17-1.22-2.39-1.71-3.63c-0.15-0.38-0.5-0.64-0.92-0.52
			C81.9,64.32,81.54,64.76,81.69,65.15L81.69,65.15z"/>
	</g>
</g>
<g>
	<g>
		<path class="st0" d="M176.48,9.09c-7.77-1.95-15.77-3.6-23.82-3.05c-6.54,0.45-12.89,2.55-18.14,6.54
			c-4.85,3.69-8.53,9.17-8.98,15.37c-0.25,3.43,0.67,6.78,2.97,9.38c2.29,2.6,5.45,4.49,8.7,5.63c3.44,1.21,7.08,1.48,10.69,0.98
			c3.86-0.54,7.56-1.83,11.39-2.54c7.81-1.44,15.74,0.01,23.45,1.35c3.85,0.67,7.72,1.32,11.62,1.64c3.52,0.28,7.25,0.42,10.67-0.66
			c3.07-0.97,5.53-3.02,6.97-5.91c1.41-2.83,1.88-6.11,1.74-9.25c-0.16-3.53-1.05-7.01-3.13-9.91c-1.82-2.55-4.33-4.52-7.09-5.97
			c-6.64-3.48-14.18-3.56-21.5-3.58C180,9.09,178,9.09,175.99,9.02c-0.55-0.02-0.58,0.82-0.02,0.85c7.49,0.36,15.19-0.26,22.46,1.96
			c5.91,1.81,11.41,5.67,13.34,11.78c0.99,3.15,1.13,6.72,0.49,9.96c-0.58,2.93-1.92,5.8-4.37,7.63c-2.7,2.02-6.27,2.42-9.54,2.42
			c-3.73,0-7.45-0.45-11.13-1.02c-7.32-1.15-14.65-2.84-22.11-2.67c-3.69,0.09-7.24,0.8-10.81,1.7c-3.64,0.92-7.32,1.86-11.1,1.65
			c-3.44-0.19-6.84-1.2-9.82-2.93c-2.96-1.72-5.66-4.2-6.67-7.56c-1.85-6.14,1.2-12.73,5.46-17.1c4.14-4.26,9.73-6.98,15.53-8.08
			c7.61-1.44,15.42-0.48,22.92,1.07c1.88,0.39,3.74,0.82,5.61,1.27C176.79,10.08,177.05,9.23,176.48,9.09L176.48,9.09z"/>
	</g>
</g>
<g>
	<g>
		<path class="st0" d="M131.34,0c-1.75,0.13-3.65,0.66-5.06,1.74c-0.54,0.42-0.94,1.06-0.64,1.74c0.32,0.73,1.22,1.28,1.81,1.78
			c1.11,0.94,2.86,2.61,2.05,4.26c-0.36,0.74-1.24,1.02-2,1.05c-0.47,0.02-0.92-0.04-1.38-0.12c-0.5-0.09-1.01-0.26-1.52-0.25
			c-0.5,0.01-0.62,0.6-0.25,0.87c0.72,0.53,1.88,0.75,2.77,0.76c0.8,0.01,1.61-0.21,2.26-0.68c1.35-0.96,1.48-2.71,0.84-4.13
			c-0.35-0.77-0.93-1.41-1.55-1.98c-0.3-0.28-0.62-0.55-0.93-0.82c-0.33-0.29-0.77-0.6-1.01-0.97c-0.28-0.44,0.12-0.64,0.48-0.86
			c0.43-0.27,0.89-0.5,1.36-0.69c0.88-0.35,1.81-0.57,2.75-0.64C131.98,0.99,132.03-0.05,131.34,0L131.34,0z"/>
	</g>
</g>
<g>
	<g>
		<path class="st1" d="M159.41,47.97c-4.11,5.21-5.8,11.64-6.95,18.05c-1.29,7.2-2.59,14.61-1.7,21.94
			c0.46,3.75,1.43,7.67,3.49,10.89c0.3,0.47,1.01,0.05,0.77-0.44c-1.51-3.07-2.62-6.23-3.13-9.62c-0.52-3.49-0.5-7.08-0.21-10.59
			c0.31-3.66,0.95-7.29,1.6-10.9c0.56-3.12,1.19-6.24,2.12-9.28c1.04-3.43,2.45-6.72,4.62-9.6
			C160.27,48.07,159.68,47.63,159.41,47.97L159.41,47.97z"/>
	</g>
</g>
<g>
	<g>
		<path class="st1" d="M35.6,111.1c3.11-7.5,6.97-14.89,12.5-20.91c2.72-2.97,5.83-5.58,9.33-7.58c4.01-2.3,8.44-3.72,12.93-4.75
			c9.55-2.18,19.35-3,29.02-4.45c8.91-1.34,17.77-3.23,26.07-6.82c7.35-3.18,14.35-7.73,19.44-14c0.63-0.78,1.19-1.6,1.7-2.46
			c0.29-0.5-0.43-1.05-0.81-0.6c-1.3,1.54-2.56,3.11-3.96,4.56c-1.4,1.45-2.9,2.79-4.47,4.04c-3.19,2.52-6.71,4.61-10.38,6.36
			c-8.12,3.87-16.92,5.91-25.75,7.4c-9.72,1.64-19.57,2.56-29.22,4.62c-4.51,0.96-8.98,2.26-13.11,4.34
			c-3.61,1.82-6.88,4.27-9.73,7.13c-5.72,5.72-9.84,12.9-13.09,20.25c-0.4,0.9-0.78,1.8-1.16,2.7
			C34.72,111.36,35.42,111.51,35.6,111.1L35.6,111.1z"/>
	</g>
</g>
<g>
	<g>
		<path class="st1" d="M186.81,51.62c1.24,4.86,4.42,8.92,8.32,11.97c4.33,3.38,9.37,5.52,14.53,7.29
			c5.86,2.02,11.85,3.66,17.41,6.46c5.07,2.56,9.77,5.78,14.47,8.94c2.68,1.8,5.37,3.59,8.14,5.25c2.73,1.64,5.53,3.21,8.55,4.24
			c0.45,0.15,0.78-0.56,0.34-0.79c-2.52-1.27-5.06-2.5-7.51-3.92c-2.42-1.4-4.77-2.93-7.11-4.48c-4.66-3.11-9.26-6.34-14.19-9.03
			c-5.25-2.87-10.86-4.74-16.53-6.57c-5.38-1.74-10.79-3.56-15.54-6.7c-4.64-3.07-8.68-7.38-10.15-12.87
			C187.42,50.96,186.69,51.16,186.81,51.62L186.81,51.62z"/>
	</g>
</g>
<g>
	<g>
		<path class="st1" d="M118.47,119.98c-10.19-4.79-21.78-8.85-33.06-5.53c-2.83,0.83-5.53,2.1-7.85,3.94
			c-0.26,0.2,0.07,0.62,0.34,0.44c4.35-2.92,9.35-4.43,14.57-4.63c5.61-0.22,11.12,1.01,16.39,2.86c3.1,1.09,6.11,2.41,9.08,3.8
			C118.52,121.14,119.06,120.26,118.47,119.98L118.47,119.98z"/>
	</g>
</g>
<g>
	<g>
		<path class="st1" d="M206.81,117.75c7.19-0.66,14.21,1.31,20.92,3.66c6.79,2.38,13.49,5.21,20.59,6.58
			c3.76,0.72,7.91,1.22,11.69,0.33c0.46-0.11,0.4-0.83-0.09-0.82c-1.76,0.05-3.51,0.15-5.27,0.1c-1.77-0.06-3.52-0.26-5.26-0.56
			c-3.48-0.6-6.89-1.6-10.24-2.72c-6.81-2.27-13.49-5.11-20.55-6.56c-3.86-0.79-7.84-1.16-11.78-0.77
			C206.34,117.03,206.3,117.79,206.81,117.75L206.81,117.75z"/>
	</g>
</g>
<g>
	<g>
		<path class="st1" d="M77.94,118.42c0.22-0.65,0.46-1.3,0.72-1.94c0.25-0.63,0.54-1.27,0.74-1.92c0.09-0.29-0.32-0.41-0.46-0.18
			c-0.38,0.59-0.65,1.26-0.92,1.9c-0.27,0.65-0.53,1.3-0.77,1.96c-0.07,0.18,0.07,0.39,0.25,0.43
			C77.69,118.72,77.88,118.6,77.94,118.42L77.94,118.42z"/>
	</g>
</g>
<g>
	<g>
		<path class="st1" d="M77.91,119.18c0.81,0.09,1.62,0.2,2.43,0.27c0.4,0.03,0.81,0.06,1.21,0.09c0.4,0.03,0.86,0.08,1.24-0.06
			c0.37-0.14,0.49-0.62,0.13-0.85c-0.36-0.22-0.84-0.26-1.25-0.3c-0.42-0.05-0.84-0.09-1.26-0.14c-0.82-0.09-1.65-0.13-2.47-0.19
			c-0.32-0.02-0.61,0.29-0.61,0.59C77.32,118.95,77.59,119.14,77.91,119.18L77.91,119.18z"/>
	</g>
</g>
<g>
	<g>
		<path class="st1" d="M33.04,107.04c0.16,0.74,0.36,1.47,0.63,2.18c0.15,0.38,0.3,0.75,0.47,1.12c0.16,0.36,0.39,0.74,0.7,0.99
			c0.15,0.12,0.34,0.17,0.53,0.09c0.16-0.07,0.33-0.25,0.31-0.45c-0.04-0.42-0.19-0.81-0.36-1.19c-0.08-0.18-0.17-0.36-0.25-0.54
			c-0.07-0.16-0.11-0.26-0.16-0.4c-0.27-0.7-0.52-1.4-0.72-2.12C33.99,106.01,32.89,106.32,33.04,107.04L33.04,107.04z"/>
	</g>
</g>
<g>
	<g>
		<path class="st1" d="M35.68,111.47c0.77-0.65,1.57-1.27,2.4-1.84c0.41-0.28,0.82-0.55,1.24-0.81c0.44-0.27,0.92-0.52,1.31-0.87
			c0.25-0.23,0-0.65-0.32-0.56c-0.5,0.15-0.95,0.45-1.39,0.73c-0.44,0.28-0.88,0.56-1.31,0.86c-0.87,0.6-1.71,1.23-2.53,1.89
			c-0.18,0.15-0.16,0.45,0,0.61C35.24,111.66,35.5,111.62,35.68,111.47L35.68,111.47z"/>
	</g>
</g>
<g>
	<g>
		<path class="st1" d="M155.12,98.81c0.56-0.86,1-1.78,1.38-2.73c0.36-0.92,0.7-1.9,0.82-2.89c0.04-0.35-0.44-0.32-0.55-0.06
			c-0.37,0.9-0.68,1.8-1.12,2.67c-0.44,0.86-0.94,1.69-1.48,2.49c-0.16,0.24-0.05,0.6,0.19,0.73
			C154.64,99.17,154.97,99.06,155.12,98.81L155.12,98.81z"/>
	</g>
</g>
<g>
	<g>
		<path class="st1" d="M154.62,97.95c-0.86-0.41-1.72-0.81-2.59-1.18c-0.46-0.2-0.92-0.38-1.38-0.56c-0.45-0.17-1-0.42-1.46-0.19
			c-0.16,0.08-0.29,0.33-0.22,0.51c0.18,0.48,0.75,0.65,1.19,0.83c0.43,0.17,0.85,0.34,1.28,0.52c0.87,0.35,1.73,0.72,2.58,1.11
			c0.29,0.13,0.65,0.06,0.82-0.23C154.98,98.49,154.91,98.09,154.62,97.95L154.62,97.95z"/>
	</g>
</g>
<g>
	<g>
		<path class="st1" d="M260.26,126.86c-0.51-0.47-1.03-0.94-1.54-1.41c-0.25-0.23-0.51-0.46-0.76-0.69
			c-0.28-0.26-0.61-0.6-1.01-0.66c-0.37-0.05-0.69,0.21-0.62,0.6c0.07,0.39,0.41,0.69,0.69,0.95c0.26,0.24,0.51,0.49,0.77,0.73
			c0.5,0.48,1.01,0.96,1.51,1.44c0.26,0.24,0.71,0.25,0.95-0.02C260.49,127.54,260.54,127.11,260.26,126.86L260.26,126.86z"/>
	</g>
</g>
<g>
	<g>
		<path class="st1" d="M258.8,127.85c-0.56,0.5-1.05,1.08-1.48,1.69c-0.2,0.29-0.37,0.6-0.52,0.91c-0.19,0.4-0.3,0.79-0.35,1.22
			c-0.02,0.24,0.18,0.49,0.41,0.53c0.26,0.05,0.49-0.06,0.64-0.27c0.38-0.55,0.68-1.16,1.03-1.73c0.09-0.14,0.17-0.27,0.27-0.4
			c0.05-0.07,0.1-0.14,0.15-0.21c0.02-0.03,0.05-0.06,0.07-0.09c0.05-0.07-0.07,0.08,0.01-0.02c0.22-0.26,0.44-0.52,0.69-0.76
			c0.24-0.24,0.27-0.67,0.01-0.91C259.45,127.59,259.07,127.61,258.8,127.85L258.8,127.85z"/>
	</g>
</g>
<g>
	<g>
		<path class="st1" d="M258.91,94.36c-0.07-0.49-0.17-0.97-0.33-1.44c-0.09-0.27-0.2-0.54-0.33-0.8c-0.05-0.1-0.11-0.19-0.18-0.29
			c-0.13-0.18-0.27-0.29-0.48-0.37c-0.1-0.04-0.26,0-0.34,0.05c-0.11,0.07-0.17,0.16-0.21,0.27c-0.11,0.27-0.03,0.61,0.03,0.88
			c0.05,0.23,0.1,0.45,0.15,0.67c0.1,0.47,0.2,0.93,0.25,1.41c0.02,0.17,0.2,0.37,0.34,0.45c0.16,0.09,0.38,0.12,0.55,0.06
			C258.77,95.13,258.97,94.78,258.91,94.36L258.91,94.36z"/>
	</g>
</g>
<g>
	<g>
		<path class="st1" d="M256.95,94.68c-0.52,0.14-1.02,0.31-1.52,0.5c-0.57,0.23-1.21,0.46-1.61,0.95c-0.16,0.2-0.24,0.42-0.14,0.67
			c0.09,0.21,0.32,0.4,0.57,0.38c0.17-0.02,0.35-0.03,0.51-0.09c0.16-0.06,0.32-0.12,0.48-0.19c0.13-0.06,0.26-0.12,0.38-0.17
			c0.05-0.02,0.1-0.04,0.15-0.06c0.03-0.01,0.18-0.06,0.19-0.08c-0.11,0.05-0.13,0.05-0.05,0.02c0.03-0.01,0.07-0.03,0.1-0.04
			c0.05-0.02,0.1-0.04,0.15-0.06c0.13-0.05,0.26-0.1,0.39-0.14c0.25-0.09,0.5-0.17,0.75-0.24c0.38-0.11,0.68-0.53,0.56-0.93
			C257.76,94.81,257.36,94.57,256.95,94.68L256.95,94.68z"/>
	</g>
</g>
<g>
	<g>
		<path class="st1" d="M91.47,104.77c0.12,1.29,0.22,2.58,0.33,3.87c0.06,0.65,0.12,1.29,0.18,1.94c0.06,0.63,0.09,1.28,0.27,1.89
			c0.1,0.35,0.7,0.39,0.76-0.01c0.11-0.63,0.08-1.26,0.06-1.89c-0.02-0.65-0.04-1.29-0.07-1.94c-0.07-1.29-0.18-2.58-0.28-3.87
			c-0.03-0.33-0.26-0.61-0.61-0.61C91.8,104.16,91.43,104.44,91.47,104.77L91.47,104.77z"/>
	</g>
</g>
<g>
	<g>
		<path class="st1" d="M92.12,105.1c0.53-0.2,1.12-0.45,1.7-0.39c0.38,0.04,0.84,0.25,0.96,0.62c0.16,0.46-0.11,1.12-0.39,1.44
			c-0.04,0.05-0.08,0.09-0.13,0.13c-0.04,0.03-0.01,0.02,0,0.01c-0.03,0.02-0.06,0.04-0.09,0.06c-0.03,0.01-0.05,0.03-0.08,0.04
			c0.02-0.01,0.07-0.02-0.01,0c-0.06,0.01-0.11,0.03-0.17,0.04c0.07-0.01-0.06,0-0.08,0.01c-0.06,0-0.12,0-0.18,0
			c-0.12,0-0.23-0.02-0.35-0.03c-0.22-0.02-0.55-0.07-0.81-0.06c-0.29,0.01-0.58,0.07-0.82,0.24c-0.12,0.09-0.19,0.22-0.13,0.36
			c0.06,0.13,0.2,0.21,0.34,0.17c0.5-0.14,0.98,0.08,1.48,0.16c0.31,0.05,0.63,0.07,0.93-0.02c0.34-0.11,0.62-0.32,0.82-0.62
			c0.37-0.53,0.6-1.36,0.41-1.99c-0.18-0.59-0.7-1-1.29-1.15c-0.78-0.2-1.56,0.08-2.28,0.37c-0.17,0.07-0.3,0.22-0.25,0.41
			C91.75,105.03,91.95,105.16,92.12,105.1L92.12,105.1z"/>
	</g>
</g>
<g>
	<g>
		<path class="st1" d="M97.69,106.51c-0.02-0.03-0.15-0.14-0.04-0.04c-0.03-0.03-0.06-0.08-0.08-0.12c-0.05-0.08-0.1-0.16-0.15-0.25
			c-0.02-0.04-0.04-0.09-0.06-0.13c-0.01-0.02-0.02-0.05-0.03-0.08c0.03,0.07,0.03,0.08,0.01,0.02c-0.03-0.09-0.06-0.18-0.08-0.27
			c-0.01-0.04-0.02-0.08-0.02-0.12c0,0.14,0-0.03,0-0.06c0-0.04,0-0.08,0-0.12c0-0.03,0-0.05,0.01-0.08c-0.01,0.07-0.01,0.07,0,0.02
			c0.01-0.04,0.02-0.08,0.03-0.12c0.01-0.03,0.02-0.05,0.03-0.08c0.02-0.06,0.02-0.05-0.01,0.02c-0.02-0.02,0.11-0.17,0.11-0.19
			c-0.05,0.07-0.06,0.08-0.02,0.03c0.01-0.01,0.02-0.02,0.03-0.04c0.03-0.03,0.05-0.05,0.08-0.08c0.01-0.01,0.11-0.11,0.04-0.04
			c-0.07,0.06,0.03-0.02,0.05-0.03c0.04-0.02,0.07-0.04,0.11-0.06c0.01,0,0.02-0.01,0.03-0.01c0.05-0.02,0.04-0.02-0.04,0.01
			c0.07,0,0.15-0.05,0.22-0.07c0.02,0,0.04-0.01,0.06-0.01c0.05-0.01,0.04-0.01-0.03,0c0,0,0.09-0.01,0.1-0.01
			c0.03,0,0.21-0.02,0.22,0c-0.07-0.01-0.08-0.01-0.03,0c0.02,0,0.04,0.01,0.06,0.01c0.03,0.01,0.06,0.01,0.09,0.02
			c0.04,0.01,0.08,0.02,0.12,0.03c0.02,0.01,0.15,0.06,0.05,0.01c0.19,0.08,0.4,0.06,0.54-0.12c0.12-0.16,0.12-0.4-0.03-0.54
			c-0.55-0.51-1.39-0.48-2.01-0.12c-0.73,0.43-1.01,1.28-0.83,2.09c0.09,0.43,0.3,0.85,0.57,1.2c0.1,0.13,0.19,0.21,0.34,0.26
			c0.17,0.05,0.36,0,0.5-0.11C97.9,107.13,97.91,106.77,97.69,106.51L97.69,106.51z"/>
	</g>
</g>
<g>
	<g>
		<path class="st1" d="M101.96,104.96c-0.68-0.29-1.53-0.02-1.85,0.67c-0.16,0.35-0.21,0.76-0.08,1.14
			c0.13,0.35,0.38,0.66,0.72,0.83c0.73,0.37,1.66,0.12,2.07-0.61c0.36-0.63,0.3-1.5-0.23-2.01c-0.3-0.29-0.71-0.44-1.12-0.46
			c-0.19-0.01-0.39,0.01-0.57,0.07c-0.31,0.1-0.65,0.29-0.63,0.67c0.01,0.21,0.13,0.37,0.33,0.43c0.23,0.07,0.41-0.03,0.61-0.11
			c-0.04,0.02-0.09,0.04-0.13,0.06c0.05-0.02,0.1-0.04,0.16-0.05c0.03-0.01,0.06-0.01,0.09-0.02c-0.15,0.04-0.09,0.01-0.04,0.01
			c0.06,0,0.11-0.01,0.17,0c0.13,0.01-0.1-0.02-0.02,0c0.03,0,0.05,0.01,0.08,0.02c0.03,0.01,0.05,0.01,0.08,0.02
			c0.02,0.01,0.12,0.04,0.03,0.01c-0.1-0.04,0.01,0,0.03,0.01c0.03,0.01,0.05,0.03,0.07,0.04c0.02,0.01,0.05,0.03,0.07,0.05
			c-0.14-0.09-0.06-0.05-0.03-0.01c0.04,0.04,0.08,0.08,0.12,0.13c-0.03-0.04-0.06-0.07-0.09-0.11c0.06,0.07,0.1,0.15,0.14,0.24
			c-0.02-0.04-0.04-0.09-0.05-0.13c0.03,0.09,0.05,0.18,0.07,0.27c-0.01-0.05-0.01-0.09-0.02-0.14c0.01,0.09,0,0.19-0.01,0.28
			c0.01-0.05,0.01-0.09,0.02-0.14c-0.02,0.1-0.04,0.2-0.08,0.29c0.02-0.04,0.04-0.09,0.06-0.13c-0.04,0.09-0.08,0.16-0.14,0.24
			c0.03-0.04,0.06-0.08,0.09-0.12c-0.05,0.07-0.11,0.13-0.18,0.18c0.04-0.03,0.09-0.07,0.13-0.1c-0.07,0.05-0.14,0.09-0.22,0.13
			c0.05-0.02,0.1-0.04,0.15-0.06c-0.09,0.04-0.19,0.06-0.28,0.08c0.05-0.01,0.11-0.01,0.16-0.02c-0.09,0.01-0.18,0.01-0.27,0
			c0.05,0.01,0.1,0.01,0.16,0.02c-0.13-0.02-0.26-0.04-0.38-0.09c0.05,0.02,0.09,0.04,0.14,0.05c-0.06-0.02-0.12-0.05-0.18-0.07
			c0.05,0.02,0.09,0.04,0.14,0.05c-0.08-0.03-0.16-0.08-0.24-0.13c0.04,0.03,0.08,0.06,0.11,0.08c-0.07-0.05-0.14-0.12-0.19-0.19
			c0.03,0.04,0.06,0.07,0.08,0.11c-0.03-0.04-0.05-0.07-0.07-0.11c-0.01-0.02-0.02-0.04-0.03-0.06c0.03,0.07,0.04,0.09,0.02,0.06
			c0-0.01-0.01-0.03-0.01-0.04c-0.01-0.04-0.02-0.09-0.03-0.13c0-0.01,0-0.03-0.01-0.04c0-0.03,0-0.02,0.01,0.05
			c0.01-0.02,0-0.05,0-0.07c0-0.05,0.01-0.1,0.01-0.15c0,0.04-0.01,0.08,0,0.02c0-0.02,0.01-0.04,0.02-0.06
			c0.01-0.03,0.02-0.05,0.02-0.08c0.02-0.07-0.03,0.05,0,0.01c0.02-0.04,0.05-0.09,0.07-0.13c0.04-0.06-0.04,0.04,0,0
			c0.01-0.02,0.03-0.03,0.04-0.05c0.02-0.02,0.04-0.04,0.06-0.05c0.01-0.01,0.07-0.05,0.02-0.02c-0.05,0.03,0.02-0.01,0.03-0.02
			c0.02-0.01,0.04-0.03,0.07-0.04c0.02-0.01,0.04-0.02,0.06-0.03c0.03-0.02-0.06,0.02,0,0c0.03-0.01,0.05-0.01,0.08-0.02
			c0.01,0,0.08-0.01,0.04-0.01c-0.04,0.01,0.03,0,0.04,0c0.03,0,0.05,0,0.08,0c0.02,0,0.04,0,0.07,0c0.03,0-0.04-0.01,0.02,0
			c0.05,0.01,0.1,0.02,0.15,0.04c0.13,0.04,0.29-0.05,0.34-0.17C102.13,105.19,102.09,105.02,101.96,104.96L101.96,104.96z"/>
	</g>
</g>
<g>
	<g>
		<path class="st1" d="M104.19,105.92c0.17,1.12,0.78,2.29,0.49,3.43c-0.05,0.21-0.14,0.43-0.25,0.57
			c-0.03,0.04-0.07,0.08-0.11,0.12c-0.02,0.03-0.11,0.1-0.04,0.04c-0.05,0.04-0.11,0.07-0.16,0.11c-0.01,0.01-0.16,0.08-0.09,0.05
			c-0.15,0.06-0.34,0.1-0.5,0.1c-0.15,0-0.31-0.05-0.48-0.12c-0.43-0.19-0.93,0.22-0.68,0.68c0.34,0.63,1.16,0.78,1.81,0.61
			c0.73-0.19,1.26-0.76,1.53-1.44c0.58-1.48-0.22-2.98-0.47-4.43c-0.05-0.28-0.39-0.44-0.65-0.37
			C104.28,105.36,104.14,105.64,104.19,105.92L104.19,105.92z"/>
	</g>
</g>
<g>
	<g>
		<path class="st1" d="M103.94,103.01c-0.06,0.08-0.09,0.13-0.13,0.22c-0.02,0.05-0.03,0.11-0.03,0.17c0,0.06,0.01,0.12,0.02,0.17
			c0.01,0.06,0.04,0.12,0.06,0.17c0.01,0.03,0.03,0.06,0.05,0.08c0.04,0.05,0.08,0.1,0.13,0.15c0.05,0.04,0.1,0.08,0.16,0.11
			c0.1,0.05,0.17,0.06,0.28,0.07c0.01,0,0.03,0,0.04,0c0.05,0,0.1-0.01,0.15-0.02c0.01,0,0.03-0.01,0.04-0.01
			c0.05-0.02,0.1-0.04,0.15-0.06c0.04-0.03,0.09-0.06,0.13-0.09c0.01-0.01,0.02-0.02,0.03-0.03c0.08-0.09,0.11-0.15,0.15-0.26
			c0.01-0.02,0.02-0.05,0.02-0.07c0.01-0.06,0.02-0.13,0.02-0.19c0-0.06-0.01-0.13-0.02-0.19c-0.02-0.06-0.04-0.13-0.07-0.19
			c-0.02-0.05-0.05-0.08-0.08-0.12c-0.06-0.07-0.11-0.12-0.19-0.17c-0.04-0.02-0.09-0.04-0.14-0.06c-0.01,0-0.03-0.01-0.04-0.01
			c-0.08-0.02-0.16-0.02-0.24,0c-0.09,0.02-0.15,0.07-0.21,0.12c-0.01,0.01-0.01,0.01-0.02,0.02c-0.02,0.03-0.04,0.05-0.06,0.08
			c-0.03,0.04-0.04,0.09-0.05,0.14c-0.01,0.08,0,0.18,0.04,0.25c0.01,0.01,0.01,0.02,0.02,0.03c-0.01-0.04-0.03-0.07-0.04-0.11
			c0.01,0.04,0.03,0.07,0.05,0.11c0.02,0.03,0.05,0.06,0.07,0.09c0.03,0.03,0.07,0.05,0.1,0.08c0.01,0.01,0.02,0.01,0.03,0.02
			c-0.03-0.02-0.06-0.05-0.09-0.07c0.03,0.02,0.06,0.05,0.08,0.08c-0.02-0.03-0.05-0.06-0.07-0.1c0.02,0.03,0.04,0.06,0.05,0.09
			c-0.02-0.04-0.03-0.08-0.05-0.11c0.01,0.04,0.02,0.07,0.03,0.11c0-0.04-0.01-0.08-0.01-0.12c0,0.03,0,0.07,0,0.1
			c0.01-0.04,0.01-0.08,0.02-0.12c0,0.03-0.01,0.05-0.02,0.08c0.02-0.04,0.03-0.07,0.05-0.11c-0.01,0.03-0.03,0.06-0.05,0.08
			c0.02-0.03,0.05-0.06,0.07-0.09c-0.01,0.02-0.03,0.03-0.04,0.04c0.03-0.02,0.06-0.05,0.1-0.07c-0.02,0.01-0.04,0.03-0.06,0.03
			c0.04-0.02,0.07-0.03,0.11-0.05c-0.02,0.01-0.04,0.01-0.07,0.02c0.04-0.01,0.08-0.01,0.11-0.02c-0.02,0-0.04,0-0.07,0
			c0.04,0,0.07,0.01,0.11,0.01c-0.04-0.01-0.09-0.01-0.13-0.02c0.04,0,0.07,0.01,0.11,0.01c-0.03,0-0.06-0.01-0.09-0.02
			c0.03,0.01,0.07,0.03,0.1,0.04c-0.03-0.01-0.06-0.03-0.09-0.05c0.03,0.02,0.05,0.04,0.08,0.06c-0.03-0.02-0.06-0.05-0.08-0.08
			c0.02,0.03,0.04,0.05,0.06,0.08c-0.02-0.03-0.04-0.05-0.05-0.08c0.01,0.03,0.02,0.06,0.04,0.09c-0.01-0.02-0.02-0.05-0.02-0.07
			c0,0.03,0.01,0.06,0.01,0.09c0-0.02,0-0.04,0-0.07c0,0.03-0.01,0.06-0.01,0.09c0-0.02,0.01-0.04,0.01-0.05
			c0-0.03,0.01-0.06,0.01-0.08c0-0.04-0.01-0.09-0.03-0.12c-0.03-0.06-0.07-0.13-0.14-0.16c-0.05-0.03-0.11-0.04-0.16-0.04
			c-0.05,0-0.09,0.01-0.13,0.03C104.01,102.95,103.97,102.97,103.94,103.01L103.94,103.01z"/>
	</g>
</g>
<g>
	<g>
		<path class="st1" d="M228.04,111.81c0.12,1.29,0.22,2.58,0.33,3.87c0.06,0.65,0.12,1.29,0.18,1.94c0.06,0.63,0.09,1.28,0.27,1.89
			c0.1,0.35,0.7,0.39,0.76-0.01c0.11-0.63,0.08-1.26,0.06-1.89c-0.02-0.65-0.04-1.29-0.07-1.94c-0.07-1.29-0.18-2.58-0.28-3.87
			c-0.03-0.33-0.26-0.61-0.61-0.61C228.37,111.19,228.01,111.47,228.04,111.81L228.04,111.81z"/>
	</g>
</g>
<g>
	<g>
		<path class="st1" d="M228.69,112.14c0.53-0.2,1.12-0.45,1.7-0.39c0.38,0.04,0.84,0.25,0.96,0.62c0.16,0.46-0.11,1.12-0.39,1.44
			c-0.04,0.05-0.08,0.09-0.13,0.13c-0.04,0.03-0.01,0.02,0,0.01c-0.03,0.02-0.06,0.04-0.09,0.06c-0.03,0.01-0.05,0.03-0.08,0.04
			c0.02-0.01,0.07-0.02-0.01,0c-0.06,0.01-0.11,0.03-0.17,0.04c0.07-0.01-0.06,0-0.08,0.01c-0.06,0-0.12,0-0.18,0
			c-0.12,0-0.23-0.02-0.35-0.03c-0.22-0.02-0.55-0.07-0.81-0.06c-0.29,0.01-0.58,0.07-0.82,0.24c-0.12,0.09-0.19,0.22-0.13,0.36
			c0.06,0.13,0.2,0.21,0.34,0.17c0.5-0.14,0.98,0.08,1.48,0.16c0.31,0.05,0.63,0.07,0.93-0.02c0.34-0.11,0.62-0.32,0.82-0.62
			c0.37-0.53,0.6-1.36,0.41-1.99c-0.18-0.59-0.7-1-1.29-1.15c-0.78-0.2-1.56,0.08-2.28,0.37c-0.17,0.07-0.3,0.22-0.25,0.41
			C228.32,112.07,228.52,112.2,228.69,112.14L228.69,112.14z"/>
	</g>
</g>
<g>
	<g>
		<path class="st1" d="M234.26,113.55c-0.02-0.03-0.15-0.14-0.04-0.04c-0.03-0.03-0.06-0.08-0.08-0.12
			c-0.05-0.08-0.1-0.16-0.15-0.25c-0.02-0.04-0.04-0.09-0.06-0.13c-0.01-0.02-0.02-0.05-0.03-0.08c0.03,0.07,0.03,0.08,0.01,0.02
			c-0.03-0.09-0.06-0.18-0.08-0.27c-0.01-0.04-0.02-0.08-0.02-0.12c0,0.14,0-0.03,0-0.06c0-0.04,0-0.08,0-0.12
			c0-0.03,0-0.05,0.01-0.08c-0.01,0.07-0.01,0.07,0,0.02c0.01-0.04,0.02-0.08,0.03-0.12c0.01-0.03,0.02-0.05,0.03-0.08
			c0.02-0.06,0.02-0.05-0.01,0.02c-0.02-0.02,0.11-0.17,0.11-0.19c-0.05,0.07-0.06,0.08-0.02,0.03c0.01-0.01,0.02-0.02,0.03-0.04
			c0.03-0.03,0.05-0.05,0.08-0.08c0.01-0.01,0.11-0.11,0.04-0.04c-0.07,0.06,0.03-0.02,0.05-0.03c0.04-0.02,0.07-0.04,0.11-0.06
			c0.01,0,0.02-0.01,0.03-0.01c0.05-0.02,0.04-0.02-0.04,0.01c0.07,0,0.15-0.05,0.22-0.07c0.02,0,0.04-0.01,0.06-0.01
			c0.05-0.01,0.04-0.01-0.03,0c0,0,0.09-0.01,0.1-0.01c0.03,0,0.21-0.02,0.22,0c-0.07-0.01-0.08-0.01-0.03,0
			c0.02,0,0.04,0.01,0.06,0.01c0.03,0.01,0.06,0.01,0.09,0.02c0.04,0.01,0.08,0.02,0.12,0.03c0.02,0.01,0.15,0.06,0.05,0.01
			c0.19,0.08,0.4,0.06,0.54-0.12c0.12-0.16,0.12-0.4-0.03-0.54c-0.55-0.51-1.39-0.48-2.01-0.12c-0.73,0.43-1.01,1.28-0.83,2.09
			c0.09,0.43,0.3,0.85,0.57,1.2c0.1,0.13,0.19,0.21,0.34,0.26c0.17,0.05,0.36,0,0.5-0.11C234.47,114.17,234.48,113.81,234.26,113.55
			L234.26,113.55z"/>
	</g>
</g>
<g>
	<g>
		<path class="st1" d="M238.54,112c-0.68-0.29-1.53-0.02-1.85,0.67c-0.16,0.35-0.21,0.76-0.08,1.14c0.13,0.35,0.38,0.66,0.72,0.83
			c0.73,0.37,1.66,0.12,2.07-0.61c0.36-0.63,0.3-1.5-0.23-2.01c-0.3-0.29-0.71-0.44-1.12-0.46c-0.19-0.01-0.39,0.01-0.57,0.07
			c-0.31,0.1-0.65,0.29-0.63,0.67c0.01,0.21,0.13,0.37,0.33,0.43c0.23,0.07,0.41-0.03,0.61-0.11c-0.04,0.02-0.09,0.04-0.13,0.06
			c0.05-0.02,0.1-0.04,0.16-0.05c0.03-0.01,0.06-0.01,0.09-0.02c-0.15,0.04-0.09,0.01-0.04,0.01c0.06,0,0.11-0.01,0.17,0
			c0.13,0.01-0.1-0.02-0.02,0c0.03,0,0.05,0.01,0.08,0.02c0.03,0.01,0.05,0.01,0.08,0.02c0.02,0.01,0.12,0.04,0.03,0.01
			c-0.1-0.04,0.01,0,0.03,0.01c0.02,0.01,0.05,0.03,0.07,0.04c0.02,0.01,0.05,0.03,0.07,0.05c-0.14-0.09-0.06-0.05-0.03-0.01
			c0.04,0.04,0.08,0.08,0.12,0.13c-0.03-0.04-0.06-0.07-0.09-0.11c0.06,0.07,0.1,0.15,0.14,0.24c-0.02-0.04-0.04-0.09-0.05-0.13
			c0.03,0.09,0.05,0.18,0.07,0.27c-0.01-0.05-0.01-0.09-0.02-0.14c0.01,0.09,0,0.19-0.01,0.28c0.01-0.05,0.01-0.09,0.02-0.14
			c-0.02,0.1-0.04,0.2-0.08,0.29c0.02-0.04,0.04-0.09,0.06-0.13c-0.04,0.09-0.08,0.16-0.14,0.24c0.03-0.04,0.06-0.08,0.09-0.12
			c-0.05,0.07-0.11,0.13-0.18,0.18c0.04-0.03,0.09-0.07,0.13-0.1c-0.07,0.05-0.14,0.09-0.22,0.13c0.05-0.02,0.1-0.04,0.15-0.06
			c-0.09,0.04-0.19,0.06-0.28,0.08c0.05-0.01,0.11-0.01,0.16-0.02c-0.09,0.01-0.18,0.01-0.27,0c0.05,0.01,0.1,0.01,0.16,0.02
			c-0.13-0.02-0.26-0.04-0.38-0.09c0.05,0.02,0.09,0.04,0.14,0.05c-0.06-0.02-0.12-0.05-0.18-0.07c0.05,0.02,0.09,0.04,0.14,0.05
			c-0.08-0.03-0.16-0.08-0.24-0.13c0.04,0.03,0.08,0.06,0.11,0.08c-0.07-0.05-0.14-0.12-0.19-0.19c0.03,0.04,0.06,0.07,0.08,0.11
			c-0.03-0.04-0.05-0.07-0.07-0.11c-0.01-0.02-0.02-0.04-0.03-0.06c0.03,0.07,0.04,0.09,0.02,0.06c0-0.01-0.01-0.03-0.01-0.04
			c-0.01-0.04-0.02-0.09-0.03-0.13c0-0.01,0-0.03-0.01-0.04c0-0.03,0-0.02,0.01,0.05c0.01-0.02,0-0.05,0-0.07
			c0-0.05,0.01-0.1,0.01-0.15c0,0.04-0.01,0.08,0,0.02c0-0.02,0.01-0.04,0.02-0.06c0.01-0.03,0.02-0.05,0.02-0.08
			c0.02-0.07-0.03,0.05,0,0.01c0.02-0.04,0.05-0.09,0.07-0.13c0.04-0.06-0.04,0.04,0,0c0.01-0.02,0.03-0.03,0.04-0.05
			c0.02-0.02,0.04-0.04,0.06-0.05c0.01-0.01,0.07-0.05,0.02-0.02c-0.05,0.03,0.02-0.01,0.03-0.02c0.02-0.01,0.04-0.03,0.07-0.04
			c0.02-0.01,0.04-0.02,0.06-0.03c0.03-0.02-0.06,0.02,0,0c0.03-0.01,0.05-0.01,0.08-0.02c0.01,0,0.08-0.01,0.04-0.01
			c-0.04,0.01,0.03,0,0.04,0c0.03,0,0.05,0,0.08,0c0.02,0,0.04,0,0.07,0c0.03,0-0.04-0.01,0.02,0c0.05,0.01,0.1,0.02,0.15,0.04
			c0.13,0.04,0.29-0.05,0.34-0.17C238.7,112.23,238.67,112.06,238.54,112L238.54,112z"/>
	</g>
</g>
<g>
	<g>
		<path class="st1" d="M240.76,112.96c0.17,1.12,0.78,2.29,0.49,3.43c-0.05,0.21-0.14,0.43-0.25,0.57
			c-0.03,0.04-0.07,0.08-0.11,0.12c-0.02,0.03-0.11,0.1-0.04,0.04c-0.05,0.04-0.11,0.07-0.16,0.11c-0.01,0.01-0.16,0.08-0.09,0.05
			c-0.15,0.06-0.34,0.1-0.5,0.1c-0.15,0-0.31-0.05-0.48-0.12c-0.43-0.19-0.93,0.22-0.68,0.68c0.34,0.63,1.16,0.78,1.81,0.61
			c0.73-0.19,1.26-0.76,1.53-1.44c0.58-1.48-0.22-2.98-0.47-4.43c-0.05-0.28-0.39-0.44-0.65-0.37
			C240.86,112.39,240.72,112.67,240.76,112.96L240.76,112.96z"/>
	</g>
</g>
<g>
	<g>
		<path class="st1" d="M240.51,110.04c-0.06,0.08-0.09,0.13-0.13,0.22c-0.02,0.05-0.03,0.11-0.03,0.17c0,0.06,0.01,0.12,0.02,0.17
			c0.01,0.06,0.04,0.12,0.06,0.17c0.01,0.03,0.03,0.06,0.05,0.08c0.04,0.05,0.08,0.1,0.13,0.15c0.05,0.04,0.1,0.08,0.16,0.11
			c0.1,0.05,0.17,0.06,0.28,0.07c0.01,0,0.03,0,0.04,0c0.05,0,0.1-0.01,0.15-0.02c0.01,0,0.03-0.01,0.04-0.01
			c0.05-0.02,0.1-0.04,0.15-0.06c0.04-0.03,0.09-0.06,0.13-0.09c0.01-0.01,0.02-0.02,0.03-0.03c0.08-0.09,0.11-0.15,0.15-0.26
			c0.01-0.02,0.02-0.05,0.02-0.07c0.01-0.06,0.02-0.13,0.02-0.19c0-0.06-0.01-0.13-0.02-0.19c-0.02-0.06-0.04-0.13-0.07-0.19
			c-0.02-0.05-0.05-0.08-0.08-0.12c-0.06-0.07-0.11-0.12-0.19-0.17c-0.04-0.02-0.09-0.04-0.14-0.06c-0.01,0-0.03-0.01-0.04-0.01
			c-0.08-0.02-0.16-0.02-0.24,0c-0.09,0.02-0.15,0.07-0.21,0.12c-0.01,0.01-0.01,0.01-0.02,0.02c-0.02,0.03-0.04,0.05-0.06,0.08
			c-0.03,0.04-0.04,0.09-0.05,0.14c-0.01,0.08,0,0.18,0.04,0.25c0.01,0.01,0.01,0.02,0.02,0.03c-0.01-0.04-0.03-0.07-0.04-0.11
			c0.01,0.04,0.03,0.07,0.05,0.11c0.02,0.03,0.05,0.06,0.07,0.09c0.03,0.03,0.07,0.05,0.1,0.08c0.01,0.01,0.02,0.01,0.03,0.02
			c-0.03-0.02-0.06-0.05-0.09-0.07c0.03,0.02,0.06,0.05,0.08,0.08c-0.02-0.03-0.05-0.06-0.07-0.1c0.02,0.03,0.04,0.06,0.05,0.09
			c-0.02-0.04-0.03-0.08-0.05-0.11c0.01,0.04,0.02,0.07,0.03,0.11c0-0.04-0.01-0.08-0.01-0.12c0,0.03,0,0.07,0,0.1
			c0.01-0.04,0.01-0.08,0.02-0.12c0,0.03-0.01,0.05-0.02,0.08c0.02-0.04,0.03-0.07,0.05-0.11c-0.01,0.03-0.03,0.06-0.05,0.08
			c0.02-0.03,0.05-0.06,0.07-0.09c-0.01,0.02-0.03,0.03-0.04,0.04c0.03-0.02,0.06-0.05,0.1-0.07c-0.02,0.01-0.04,0.03-0.06,0.03
			c0.04-0.02,0.07-0.03,0.11-0.05c-0.02,0.01-0.04,0.01-0.07,0.02c0.04-0.01,0.08-0.01,0.11-0.02c-0.02,0-0.04,0-0.07,0
			c0.04,0,0.07,0.01,0.11,0.01c-0.04-0.01-0.09-0.01-0.13-0.02c0.04,0,0.07,0.01,0.11,0.01c-0.03,0-0.06-0.01-0.09-0.02
			c0.03,0.01,0.07,0.03,0.1,0.04c-0.03-0.01-0.06-0.03-0.09-0.05c0.03,0.02,0.05,0.04,0.08,0.06c-0.03-0.02-0.06-0.05-0.08-0.08
			c0.02,0.03,0.04,0.05,0.06,0.08c-0.02-0.03-0.04-0.05-0.05-0.08c0.01,0.03,0.02,0.06,0.04,0.09c-0.01-0.02-0.02-0.05-0.02-0.07
			c0,0.03,0.01,0.06,0.01,0.09c0-0.02,0-0.04,0-0.07c0,0.03-0.01,0.06-0.01,0.09c0-0.02,0.01-0.04,0.01-0.05
			c0-0.03,0.01-0.06,0.01-0.08c0-0.04-0.01-0.09-0.03-0.12c-0.03-0.06-0.07-0.13-0.14-0.16c-0.05-0.03-0.11-0.04-0.16-0.04
			c-0.05,0-0.09,0.01-0.13,0.03C240.58,109.98,240.54,110.01,240.51,110.04L240.51,110.04z"/>
	</g>
</g>
</svg>
