<?xml version="1.0" encoding="utf-8"?>
<!-- Generator: Adobe Illustrator 26.0.2, SVG Export Plug-In . SVG Version: 6.00 Build 0)  -->
<svg version="1.1" id="Layer_1" xmlns="http://www.w3.org/2000/svg" xmlns:xlink="http://www.w3.org/1999/xlink" x="0px" y="0px"
	 viewBox="0 0 222 206.37" style="enable-background:new 0 0 222 206.37;" xml:space="preserve">
<style type="text/css">
	.st0{fill:#486AFB;}
	.st1{fill:#FD46FC;}
</style>
<g>
	<g>
		<path class="st0" d="M70.01,34.36c2.36-3.74,2.69-8.47,1.41-12.65c-1.39-4.54-4.33-8.34-8.26-10.97
			c-4.23-2.83-9.24-4.35-14.21-5.21C43.3,4.55,37.33,3.98,31.64,4.9C21.93,6.47,13.32,13.07,9.2,21.99
			c-2.17,4.69-3.14,9.92-2.74,15.07c0.4,5.18,2.32,9.94,4.58,14.57c2.22,4.54,4.76,8.99,6.06,13.91c0.68,2.59,0.94,5.24,0.71,7.91
			c-0.25,3.01-1.07,5.95-2.03,8.8c-1.88,5.57-4.4,10.96-5.24,16.83c-0.68,4.71-0.17,9.91,2.58,13.93c3.02,4.4,8.1,6.08,13.19,6.66
			c5.98,0.68,12-0.33,17.78-1.84c5.29-1.38,10.57-3.09,15.53-5.4c4.71-2.2,9.14-5.15,12.58-9.08c7.37-8.45,9.82-19.96,8.94-30.92
			c-0.47-5.82-1.74-11.58-3.66-17.09c-0.94-2.69-2.03-5.32-3.32-7.86c-1.27-2.5-2.88-4.92-3.7-7.62c-0.7-2.29-0.74-4.97,0.86-6.91
			c0.54-0.66-0.39-1.57-0.93-0.91c-1.51,1.83-1.91,4.27-1.59,6.58c0.37,2.65,1.7,5.04,2.91,7.39c2.54,4.93,4.54,10.16,5.92,15.53
			c2.75,10.73,3.19,22.59-1.56,32.84c-2.13,4.6-5.22,8.66-9.2,11.81c-3.99,3.15-8.69,5.34-13.44,7.08
			c-5.21,1.92-10.61,3.6-16.08,4.58c-5.45,0.98-11.41,1.26-16.69-0.69c-2.32-0.85-4.43-2.25-5.96-4.21c-1.4-1.8-2.29-3.98-2.78-6.2
			c-1.14-5.29,0.19-10.61,1.94-15.61c1.87-5.37,4.22-10.64,5-16.31c0.37-2.66,0.32-5.35-0.18-7.99c-0.46-2.39-1.27-4.7-2.21-6.94
			c-1.92-4.54-4.46-8.78-6.34-13.34c-1.94-4.7-2.81-9.69-2.3-14.77c0.51-5.04,2.29-9.92,5.27-14.03c2.78-3.83,6.54-6.87,10.78-8.94
			c4.75-2.32,9.89-3.12,15.14-2.92c5.21,0.19,10.54,0.91,15.52,2.49c4.6,1.46,9.05,3.88,12.18,7.62c2.72,3.25,4.47,7.66,4.28,11.93
			c-0.1,2.13-0.69,4.14-1.82,5.95C68.81,34.44,69.68,34.89,70.01,34.36L70.01,34.36z"/>
	</g>
</g>
<g>
	<g>
		<path class="st0" d="M11.16,2.05c-0.9-1.34-2.49-2.1-4.11-2.03c-1.7,0.07-3.54,1.17-3.83,2.97C2.9,5,4.89,6.24,6.38,7.13
			c0.87,0.52,1.77,1.02,2.59,1.63c0.59,0.44,1.97,1.37,0.89,2.04c-0.48,0.3-1.16,0.34-1.72,0.4c-0.65,0.08-1.33,0.14-1.99,0.07
			c-1.05-0.11-2.03-0.59-2.6-1.5c-0.3-0.47-1.1-0.17-0.95,0.39c0.57,2.02,2.85,2.63,4.71,2.5c1.06-0.08,2.36-0.19,3.27-0.79
			c0.73-0.48,1.21-1.4,0.91-2.27c-0.33-0.94-1.38-1.64-2.16-2.18c-0.83-0.58-1.72-1.08-2.6-1.6C5.95,5.35,5.02,4.84,4.59,3.99
			c-0.44-0.87,0.09-1.8,0.83-2.31c1.48-1.03,3.74-0.53,4.72,0.95C10.54,3.24,11.57,2.65,11.16,2.05L11.16,2.05z"/>
	</g>
</g>
<g>
	<g>
		<path class="st0" d="M177.95,109.99c-0.08,1.43-0.11,2.85-0.07,4.28c0.04,1.4,0.04,2.88,0.44,4.23c0.16,0.55,0.93,0.41,0.98-0.13
			c0.11-1.39-0.08-2.8-0.11-4.19c-0.04-1.4-0.03-2.8,0.04-4.2C179.26,109.16,177.99,109.2,177.95,109.99L177.95,109.99z"/>
	</g>
</g>
<g>
	<g>
		<path class="st0" d="M179.76,111.26c-0.05,2.23,0.03,4.57,0.87,6.67c0.19,0.48,0.97,0.46,0.98-0.13c0.01-2.19-0.28-4.36-0.23-6.55
			C181.4,110.2,179.78,110.25,179.76,111.26L179.76,111.26z"/>
	</g>
</g>
<g>
	<g>
		<path class="st0" d="M179.2,110.5c1.09-1.37,3.28-1.63,4.36-0.08c0.47,0.68,0.54,1.6,0.15,2.33c-0.22,0.41-0.55,0.7-0.95,0.93
			c-0.4,0.23-0.87,0.51-1.31,0.65c-0.47,0.15-0.59,0.77-0.16,1.04c0.38,0.23,0.85,0.33,1.26,0.5c0.42,0.18,0.84,0.36,1.24,0.59
			c0.8,0.45,1.49,1.05,2.19,1.62c0.41,0.33,1.16-0.12,0.82-0.63c-0.58-0.87-1.4-1.53-2.29-2.08c-0.81-0.5-1.94-1.12-2.92-1.06
			c0.13,0.32,0.26,0.64,0.39,0.96c0.21-0.24,0.59-0.38,0.87-0.53c0.28-0.15,0.56-0.29,0.81-0.48c0.48-0.35,0.84-0.81,1.06-1.36
			c0.42-1.04,0.3-2.25-0.37-3.15c-1.52-2.06-4.47-1.73-5.91,0.22C178.15,110.38,178.87,110.91,179.2,110.5L179.2,110.5z"/>
	</g>
</g>
<g>
	<g>
		<path class="st0" d="M171,36.85c-0.07,4.74-0.16,9.48-0.21,14.23c-0.05,4.78-0.23,9.57-0.29,14.35
			c-0.12,9.48-0.05,18.97-0.18,28.45c-0.04,2.66-0.08,5.32-0.12,7.99c-0.04,2.69-0.24,5.43,0,8.11c0.06,0.65,0.94,0.62,1.01-0.01
			c0.25-2.35,0.16-4.76,0.16-7.11c0-2.37,0.01-4.74,0.02-7.11c0.03-4.78,0.04-9.57,0.12-14.35c0.08-4.74,0.23-9.48,0.27-14.23
			c0.03-4.74-0.05-9.48-0.01-14.22c0.04-5.37,0.06-10.73,0.08-16.1C171.84,36.31,171.01,36.33,171,36.85L171,36.85z"/>
	</g>
</g>
<g>
	<g>
		<path class="st0" d="M171.75,110.21c0.79-0.66,1.57-1.32,2.36-1.96c0.79-0.65,1.62-1.25,2.35-1.98c0.27-0.27-0.08-0.74-0.41-0.53
			c-0.88,0.57-1.67,1.26-2.49,1.91c-0.82,0.65-1.64,1.29-2.47,1.93c-0.2,0.15-0.17,0.49,0,0.65
			C171.28,110.41,171.56,110.37,171.75,110.21L171.75,110.21z"/>
	</g>
</g>
<g>
	<g>
		<path class="st0" d="M166.92,106.97c0.69,0.78,1.44,1.51,2.25,2.17c0.83,0.68,1.72,1.35,2.72,1.73c0.44,0.17,0.84-0.51,0.48-0.81
			c-0.77-0.65-1.64-1.17-2.42-1.81c-0.78-0.64-1.52-1.35-2.19-2.11c-0.21-0.24-0.63-0.19-0.84,0.02
			C166.69,106.39,166.71,106.73,166.92,106.97L166.92,106.97z"/>
	</g>
</g>
<g>
	<g>
		<path class="st0" d="M170.37,37.01c-0.51,0.46-1.02,0.94-1.49,1.45c-0.49,0.53-1,1.09-1.27,1.77c-0.12,0.3,0.29,0.57,0.54,0.4
			c0.58-0.38,1.05-0.94,1.54-1.43c0.48-0.49,0.97-0.97,1.48-1.42c0.22-0.19,0.23-0.59,0.01-0.79
			C170.93,36.78,170.6,36.8,170.37,37.01L170.37,37.01z"/>
	</g>
</g>
<g>
	<g>
		<path class="st0" d="M171.86,38.16c0.77,0.43,1.34,0.85,1.96,1.47c0.15,0.15,0.29,0.3,0.44,0.46c0.06,0.07,0.13,0.14,0.19,0.22
			c0.04,0.04,0.07,0.09,0.11,0.13c0.07,0.08-0.01-0.02,0.06,0.07c0.26,0.34,0.5,0.72,0.74,1.04c0.13,0.18,0.33,0.27,0.55,0.17
			c0.19-0.08,0.34-0.3,0.27-0.51c-0.28-0.89-0.88-1.7-1.52-2.37c-0.64-0.67-1.38-1.24-2.2-1.67c-0.27-0.14-0.64-0.05-0.79,0.22
			C171.51,37.66,171.58,38.01,171.86,38.16L171.86,38.16z"/>
	</g>
</g>
<g>
	<g>
		<path class="st1" d="M126.31,9.23c0.96-1.27,1.94-2.53,2.93-3.79c0.48-0.61,0.96-1.21,1.44-1.81c0.5-0.62,1.03-1.22,1.48-1.88
			c0.2-0.29-0.23-0.57-0.47-0.34c-0.57,0.54-1.07,1.17-1.59,1.77c-0.52,0.6-1.03,1.21-1.54,1.81c-1.02,1.22-2.01,2.45-2.99,3.7
			C125.16,9.22,125.9,9.77,126.31,9.23L126.31,9.23z"/>
	</g>
</g>
<g>
	<g>
		<path class="st1" d="M126.19,3.74c0.53,1.35,1.13,2.67,1.82,3.95c0.67,1.24,1.41,2.58,2.43,3.57c0.51,0.49,1.24-0.14,0.97-0.74
			c-0.57-1.23-1.38-2.35-2.03-3.54c-0.64-1.17-1.22-2.39-1.71-3.63c-0.15-0.38-0.49-0.64-0.92-0.52
			C126.4,2.92,126.04,3.36,126.19,3.74L126.19,3.74z"/>
	</g>
</g>
<g>
	<g>
		<path class="st0" d="M38.9,34.98c-4.42,1.42-7.77,5.21-9.09,9.62c-0.66,2.19-0.8,4.54-0.32,6.78c0.64,2.93,2.41,5.39,3.66,8.07
			c0.67,1.44,1.19,2.96,1.42,4.54c0.24,1.65,0.09,3.32-0.28,4.95c-0.72,3.14-2.09,6.1-2.98,9.2c-0.9,3.11-1.5,6.29-1.85,9.51
			c-0.3,2.74-0.32,5.7,1.01,8.19c2.46,4.61,8.44,5.55,13.13,4.74c5.02-0.87,9.59-3.75,12.87-7.6c3.62-4.25,5.58-9.68,5.96-15.22
			c0.2-2.98-0.04-5.98-0.66-8.89c-0.64-3.04-1.77-5.9-3.03-8.72c-1.33-2.97-2.67-5.92-3.54-9.07c-0.85-3.09-1.41-6.25-2.38-9.31
			c-0.81-2.55-1.89-5.42-4.22-6.96c-2.22-1.47-5.07-1.21-7.5-0.51c-1.33,0.38-2.61,0.9-3.87,1.46c-0.35,0.16-0.11,0.76,0.25,0.62
			c2.44-0.98,5.1-2.01,7.78-1.74c2.81,0.28,4.54,2.41,5.55,4.86c1.17,2.81,1.79,5.83,2.49,8.78c0.69,2.89,1.52,5.7,2.69,8.43
			c1.21,2.84,2.61,5.6,3.61,8.52c0.91,2.67,1.51,5.45,1.73,8.26c0.43,5.49-0.54,11.3-3.49,16.02c-2.59,4.15-6.53,7.53-11.14,9.22
			c-4.32,1.58-10.17,1.96-13.88-1.26c-2.07-1.8-2.76-4.48-2.76-7.13c-0.01-3.06,0.6-6.14,1.3-9.1c0.71-3,1.76-5.86,2.77-8.77
			c0.97-2.8,1.76-5.71,1.33-8.7c-0.42-2.89-1.84-5.41-3.17-7.96c-1.22-2.32-2.15-4.67-2.1-7.33c0.08-4.39,2.37-8.72,6.02-11.18
			c0.91-0.61,1.89-1.09,2.92-1.43C39.68,35.67,39.47,34.8,38.9,34.98L38.9,34.98z"/>
	</g>
</g>
<g>
	<g>
		<path class="st1" d="M174.26,57.24c-4.27-0.48-8.54-0.99-12.8-1.53c-4.26-0.54-8.51-1.07-12.76-1.66
			c-8.47-1.18-16.91-2.51-25.32-4.04c-8.36-1.53-16.71-3.2-25-5.05c-8.25-1.84-16.48-3.76-24.75-5.52
			c-8.26-1.76-16.54-3.45-24.93-4.47c-0.99-0.12-1.98-0.2-2.98-0.26c-0.42-0.02-0.54,0.65-0.11,0.74c4.15,0.81,8.36,1.36,12.53,2.08
			c4.14,0.71,8.28,1.45,12.4,2.29c8.32,1.7,16.6,3.61,24.89,5.48c8.28,1.88,16.56,3.76,24.9,5.34c8.39,1.59,16.83,3.01,25.29,4.18
			c4.22,0.59,8.44,1.15,12.68,1.61c4.26,0.46,8.53,0.93,12.81,1.18c1.05,0.06,2.1,0.12,3.15,0.19
			C174.62,57.83,174.62,57.29,174.26,57.24L174.26,57.24z"/>
	</g>
</g>
<g>
	<g>
		<path class="st1" d="M165.98,93.68c-15.46-0.24-30.93-0.14-46.39,0.39c-15.45,0.52-30.9,1.37-46.32,2.58
			c-8.65,0.68-17.33,1.31-25.94,2.46c-0.63,0.08-0.7,1.06-0.02,1.01c7.75-0.62,15.47-1.51,23.22-2.17
			c7.66-0.65,15.34-1.21,23.01-1.68c15.44-0.94,30.9-1.43,46.36-1.64c8.68-0.12,17.37-0.09,26.05,0.03
			C166.59,94.66,166.62,93.69,165.98,93.68L165.98,93.68z"/>
	</g>
</g>
<g>
	<g>
		<path class="st1" d="M162.15,34.85c-9.03-7.5-19.51-13.33-30.65-17.03c-11.11-3.69-22.79-5.6-34.52-5.42
			c-3.26,0.05-6.52,0.25-9.76,0.61c-3.27,0.37-6.59,0.81-9.76,1.72c-0.51,0.15-0.32,0.86,0.19,0.77c2.92-0.48,5.81-1.1,8.75-1.48
			c2.84-0.37,5.7-0.63,8.56-0.74c5.79-0.22,11.6,0.07,17.34,0.89c11.46,1.64,22.55,5.3,32.8,10.67c5.78,3.03,11.22,6.65,16.26,10.78
			C161.89,36.06,162.69,35.3,162.15,34.85L162.15,34.85z"/>
	</g>
</g>
<g>
	<g>
		<path class="st1" d="M162.58,34.58c-0.12-0.5-0.25-1-0.38-1.5c-0.07-0.26-0.13-0.53-0.23-0.78c-0.1-0.26-0.22-0.49-0.38-0.72
			c-0.27-0.4-0.83-0.21-0.88,0.24c-0.03,0.25-0.03,0.49-0.01,0.74c0.02,0.3,0.1,0.59,0.16,0.88c0.11,0.51,0.22,1.01,0.34,1.51
			c0.08,0.36,0.5,0.6,0.86,0.49C162.42,35.33,162.68,34.97,162.58,34.58L162.58,34.58z"/>
	</g>
</g>
<g>
	<g>
		<path class="st1" d="M161.08,34.64c-0.63,0.07-1.26,0.17-1.88,0.31c-0.61,0.14-1.25,0.3-1.76,0.68c-0.18,0.13-0.32,0.34-0.25,0.58
			c0.07,0.22,0.26,0.38,0.5,0.38c0.61-0.02,1.18-0.21,1.77-0.35c0.27-0.07,0.54-0.13,0.82-0.18c0.15-0.03,0.29-0.05,0.44-0.08
			c0.06-0.01,0.13-0.02,0.19-0.03c0.08-0.01,0.08-0.01,0.02,0c0.04-0.01,0.08-0.01,0.13-0.02c0.34-0.04,0.68-0.27,0.67-0.65
			C161.72,34.96,161.44,34.6,161.08,34.64L161.08,34.64z"/>
	</g>
</g>
<g>
	<g>
		<path class="st0" d="M32.28,144.93c-1,0.12-2.09,0.49-2.81,1.23c-0.33,0.34-0.49,0.81-0.38,1.28c0.12,0.46,0.46,0.84,0.77,1.18
			c0.56,0.6,1.21,1.48,0.65,2.31c-0.18,0.27-0.47,0.45-0.8,0.39c-0.34-0.07-0.55-0.34-0.68-0.65c-0.19-0.44-0.78-0.14-0.82,0.22
			c-0.12,1.03,1.12,1.64,2,1.4c0.98-0.28,1.53-1.32,1.43-2.29c-0.06-0.54-0.28-1.04-0.61-1.46c-0.3-0.39-0.71-0.7-0.95-1.13
			c-0.27-0.48,0.19-0.73,0.57-0.94c0.5-0.28,1.04-0.48,1.61-0.55c0.27-0.03,0.51-0.21,0.51-0.5
			C32.78,145.17,32.54,144.9,32.28,144.93L32.28,144.93z"/>
	</g>
</g>
<g>
	<g>
		<path class="st0" d="M38.47,146.53c-1.38,0.27-3.14,0.82-3.43,2.42c-0.28,1.58,0.96,3.26,2.65,3.1c0.83-0.08,1.81-0.56,2.16-1.36
			c0.18-0.41-0.25-0.71-0.6-0.44c-0.09,0.07-0.19,0.15-0.28,0.21c-0.06,0.04-0.13,0.08-0.2,0.12c-0.03,0.01-0.19,0.09-0.13,0.07
			c-0.12,0.05-0.26,0.09-0.39,0.11c-0.04,0.01-0.08,0.01-0.11,0.02c0.03-0.01,0.12-0.02-0.04,0.01c-0.03,0-0.05,0.01-0.08,0.01
			c0.05-0.01,0.06-0.01,0.01,0c-0.05,0-0.1,0.01-0.14,0.01c-0.13,0-0.27,0-0.4-0.02c0.12,0.01-0.06-0.01-0.09-0.02
			c-0.08-0.02-0.17-0.05-0.25-0.07c-0.01,0-0.1-0.03-0.03-0.01c0.07,0.03-0.04-0.02-0.06-0.03c-0.06-0.03-0.12-0.06-0.17-0.09
			c-0.02-0.01-0.05-0.03-0.07-0.04c-0.08-0.05,0.07,0.06,0,0c-0.06-0.05-0.11-0.1-0.16-0.15c-0.05-0.05-0.09-0.09-0.13-0.14
			c-0.08-0.09-0.01-0.02,0,0c-0.02-0.03-0.04-0.06-0.06-0.09c-0.04-0.05-0.07-0.11-0.1-0.17c-0.01-0.02-0.03-0.05-0.04-0.07
			c0,0-0.06-0.15-0.04-0.08c0.02,0.05-0.03-0.1-0.04-0.13c-0.02-0.06-0.03-0.12-0.04-0.19c0-0.01-0.02-0.13-0.01-0.06
			c0.01,0.06,0-0.03,0-0.03c0-0.08-0.01-0.16,0-0.24c0-0.03,0.03-0.19,0.01-0.1c0.01-0.06,0.03-0.12,0.05-0.18
			c0.01-0.02,0.07-0.17,0.03-0.1c0.03-0.07,0.07-0.14,0.11-0.2c0.02-0.03,0.04-0.06,0.06-0.09c-0.01,0.02-0.06,0.06,0.02-0.02
			c0.04-0.05,0.09-0.1,0.14-0.14c0.05-0.05,0.1-0.09,0.15-0.13c0.01-0.01,0.08-0.06,0.02-0.02c0.03-0.02,0.06-0.04,0.1-0.07
			c0.54-0.36,1.18-0.51,1.84-0.66c0.25-0.06,0.42-0.34,0.36-0.59C39,146.59,38.73,146.48,38.47,146.53L38.47,146.53z"/>
	</g>
</g>
<g>
	<g>
		<path class="st0" d="M36.91,150.14c0.52-0.15,1.05-0.3,1.57-0.46c0.16-0.05,0.29-0.22,0.24-0.4c-0.05-0.18-0.22-0.26-0.4-0.23
			c-0.54,0.1-1.07,0.21-1.6,0.33c-0.2,0.04-0.35,0.28-0.29,0.48C36.49,150.07,36.7,150.2,36.91,150.14L36.91,150.14z"/>
	</g>
</g>
<g>
	<g>
		<path class="st0" d="M47.9,142.55c-1.39,0.11-2.98,0.62-3.93,1.7c-0.45,0.51-0.67,1.16-0.47,1.82c0.2,0.66,0.75,1.17,1.22,1.64
			c0.97,0.95,2.09,1.92,2.5,3.26c0.21,0.67,0.04,1.24-0.7,1.4c-0.78,0.17-1.48-0.31-2.23-0.38c-0.38-0.04-0.6,0.5-0.32,0.75
			c1,0.9,2.87,1.12,3.88,0.14c1.09-1.06,0.36-2.67-0.4-3.7c-0.42-0.57-0.92-1.08-1.42-1.58c-0.49-0.49-1.17-1-1.48-1.63
			c-0.39-0.79,0.39-1.35,0.99-1.7c0.71-0.41,1.51-0.65,2.33-0.71C48.52,143.51,48.56,142.5,47.9,142.55L47.9,142.55z"/>
	</g>
</g>
<g>
	<g>
		<path class="st0" d="M56.17,146.39c-0.03,0.04-0.06,0.07-0.1,0.11c-0.01,0.01-0.02,0.02-0.02,0.03c-0.02,0.02-0.03,0.04-0.05,0.06
			c0,0,0,0,0,0c0,0,0,0,0,0.01c0,0.01-0.01,0.01-0.01,0.02c-0.01,0.02-0.02,0.04-0.03,0.06c-0.01,0.02-0.02,0.04-0.03,0.06
			c-0.01,0.03-0.01,0.07-0.01,0.1c0,0.02,0.01,0.05,0.02,0.07c0.01,0.04,0.03,0.07,0.06,0.09c0.02,0.01,0.04,0.03,0.06,0.04
			c0.02,0.01,0.04,0.02,0.07,0.03c0.04,0.01,0.07,0.01,0.11,0c0.04,0,0.07-0.01,0.11-0.03c0.02-0.01,0.04-0.02,0.06-0.03
			c0.01,0,0.01-0.01,0.02-0.01c0.02-0.01,0.03-0.02,0.05-0.03c0.02-0.02,0.04-0.03,0.06-0.05c0.04-0.03,0.07-0.06,0.11-0.1
			c0.03-0.03,0.05-0.06,0.07-0.1c0.02-0.04,0.03-0.07,0.03-0.12c0-0.04-0.01-0.08-0.02-0.12c-0.01-0.04-0.03-0.07-0.07-0.1
			c-0.02-0.02-0.04-0.03-0.06-0.05c-0.05-0.03-0.1-0.04-0.15-0.04c-0.03,0-0.05,0.01-0.08,0.01
			C56.26,146.32,56.21,146.35,56.17,146.39L56.17,146.39z"/>
	</g>
</g>
<g>
	<g>
		<path class="st0" d="M55.69,147.49c0.04,0.04,0.09,0.07,0.13,0.1c0.02,0.01,0.03,0.02,0.05,0.03c0.05,0.03,0.1,0.04,0.15,0.06
			c0.02,0.01,0.04,0.01,0.06,0.02c0.02,0,0.04,0.01,0.06,0.01c0.06,0.01,0.11,0.02,0.17,0.02c0.08,0,0.15-0.01,0.23-0.03
			c0.07-0.02,0.15-0.05,0.21-0.08c0.01,0,0.02-0.01,0.03-0.01c0,0,0.01,0,0.01-0.01c0.02-0.01,0.03-0.02,0.05-0.04
			c0.04-0.02,0.06-0.05,0.08-0.08c0.02-0.03,0.03-0.04,0.05-0.07c0.02-0.04,0.04-0.08,0.05-0.12c0.01-0.03,0.02-0.07,0.03-0.1
			c0.01-0.07,0.03-0.14,0.03-0.21c0-0.16-0.04-0.3-0.12-0.45c0.02,0.04,0.03,0.08,0.05,0.12c-0.03-0.07-0.04-0.15-0.09-0.21
			c-0.04-0.07-0.09-0.13-0.14-0.18c-0.05-0.06-0.12-0.1-0.19-0.14c-0.1-0.06-0.2-0.07-0.32-0.08c-0.02,0-0.04,0-0.05,0
			c-0.08,0-0.15,0.01-0.21,0.05c-0.07,0.02-0.14,0.06-0.19,0.12c-0.03,0.04-0.06,0.08-0.09,0.11c-0.04,0.06-0.06,0.13-0.07,0.2
			c-0.01,0.05-0.01,0.09,0,0.14c0,0.07,0.02,0.14,0.06,0.21c0.03,0.04,0.06,0.08,0.09,0.12c0.07,0.07,0.15,0.11,0.25,0.14
			c0.02,0,0.03,0.01,0.05,0.02c-0.04-0.02-0.09-0.03-0.13-0.05c0.03,0.01,0.06,0.03,0.09,0.04c0.09,0.03,0.06,0.03,0.15,0.04
			c0.03,0,0.06,0.01,0.09,0.01c-0.05-0.01-0.1-0.01-0.14-0.02c0.03,0,0.07,0.01,0.1,0.03c-0.04-0.02-0.09-0.03-0.13-0.05
			c0.05,0.02,0.09,0.05,0.14,0.07c-0.03-0.03-0.07-0.05-0.1-0.08c0.01,0.01,0.02,0.02,0.03,0.03c-0.03-0.03-0.05-0.07-0.08-0.1
			c0.03,0.03,0.05,0.07,0.06,0.11c-0.02-0.04-0.03-0.08-0.05-0.11c0.02,0.04,0.03,0.08,0.03,0.12c0-0.04-0.01-0.08-0.01-0.12
			c0,0.03,0,0.05,0,0.08c0.01-0.04,0.01-0.07,0.02-0.11c0,0.03-0.01,0.05-0.02,0.07c0.02-0.04,0.03-0.07,0.05-0.11
			c0,0.01-0.01,0.01-0.01,0.02c0.06-0.06,0.11-0.11,0.17-0.17c-0.02,0.01-0.05,0.03-0.07,0.04c0.04-0.02,0.07-0.03,0.11-0.05
			c-0.04,0.01-0.07,0.02-0.11,0.03c0.04-0.01,0.08-0.01,0.12-0.02c-0.04,0.01-0.08,0.01-0.13,0c0.04,0,0.08,0.01,0.11,0.01
			c-0.04-0.01-0.08-0.02-0.12-0.03c0.03,0.01,0.07,0.03,0.1,0.04c-0.04-0.01-0.07-0.03-0.1-0.06c0.03,0.02,0.06,0.04,0.09,0.07
			c-0.01-0.01-0.02-0.01-0.03-0.02c-0.09-0.08-0.19-0.12-0.31-0.12c-0.06,0-0.12,0.01-0.17,0.04c-0.06,0.02-0.11,0.05-0.15,0.1
			c-0.08,0.08-0.14,0.19-0.13,0.31C55.57,147.3,55.6,147.42,55.69,147.49L55.69,147.49z"/>
	</g>
</g>
<g>
	<g>
		<path class="st0" d="M55.83,151.2c-0.11,0.1-0.2,0.25-0.22,0.4c-0.03,0.16-0.03,0.32,0.02,0.47c0.05,0.16,0.13,0.3,0.25,0.41
			c0.06,0.05,0.12,0.11,0.2,0.14c0.11,0.05,0.2,0.07,0.33,0.09c0.08,0.01,0.18-0.02,0.24-0.06c0.06-0.04,0.1-0.08,0.15-0.14
			c0.03-0.04,0.07-0.08,0.09-0.13c0.05-0.09,0.09-0.19,0.11-0.28c0.04-0.16,0.05-0.33,0.04-0.49c-0.01-0.1-0.02-0.2-0.05-0.29
			c-0.01-0.03-0.02-0.06-0.03-0.09c-0.04-0.09-0.1-0.17-0.19-0.21c-0.05-0.03-0.11-0.05-0.17-0.06c-0.21-0.05-0.41-0.01-0.6,0.08
			c-0.09,0.04-0.17,0.1-0.24,0.17c-0.07,0.06-0.13,0.14-0.18,0.23c-0.06,0.11-0.11,0.24-0.11,0.37c0,0.06,0.01,0.13,0.02,0.19
			c0.04,0.14,0.11,0.25,0.24,0.32c0.19,0.11,0.49,0.04,0.6-0.17c0.04-0.08,0.07-0.16,0.07-0.25c0-0.02,0-0.04,0-0.06
			c-0.01,0.04-0.01,0.08-0.02,0.12c0.01-0.06,0.02-0.13,0.03-0.19c-0.01,0.04-0.01,0.08-0.02,0.12c0.01-0.04,0.02-0.08,0.03-0.11
			c-0.02,0.04-0.03,0.07-0.05,0.11c0.02-0.04,0.04-0.08,0.07-0.11c-0.02,0.03-0.05,0.06-0.07,0.09c0.03-0.04,0.06-0.07,0.1-0.1
			c-0.03,0.02-0.06,0.05-0.1,0.07c0.04-0.03,0.08-0.05,0.12-0.07c-0.04,0.02-0.07,0.03-0.11,0.05c0.03-0.01,0.07-0.02,0.1-0.03
			c-0.04,0.01-0.07,0.01-0.11,0.02c0.03,0,0.06,0,0.09,0c-0.04,0-0.07-0.01-0.11-0.01c0.03,0,0.05,0.01,0.07,0.02
			c-0.03-0.01-0.07-0.03-0.1-0.04c0,0,0.01,0,0.01,0c-0.05-0.05-0.1-0.1-0.15-0.15c0.01,0.01,0.01,0.03,0.02,0.04
			c-0.01-0.03-0.03-0.07-0.04-0.1c0.03,0.07,0.05,0.15,0.06,0.23c0-0.03-0.01-0.07-0.01-0.1c0.01,0.05,0,0.1,0,0.15
			c0.01-0.03,0.01-0.07,0.02-0.1c-0.01,0.08-0.03,0.16-0.07,0.24c0.01-0.03,0.03-0.07,0.04-0.1c-0.03,0.08-0.08,0.16-0.13,0.23
			c0.13-0.07,0.25-0.15,0.38-0.22c-0.02,0-0.03,0-0.05,0c0.04,0,0.07,0.01,0.11,0.01c-0.03,0-0.06-0.01-0.09-0.02
			c0.03,0.01,0.07,0.03,0.1,0.04c-0.04-0.01-0.07-0.03-0.1-0.06c0.03,0.02,0.06,0.04,0.09,0.06c-0.04-0.03-0.07-0.06-0.1-0.09
			c0.02,0.03,0.04,0.06,0.07,0.09c-0.03-0.04-0.06-0.09-0.08-0.15c0.01,0.03,0.03,0.07,0.04,0.1c-0.02-0.05-0.03-0.09-0.04-0.14
			c0,0.03,0.01,0.07,0.01,0.1c0-0.05,0-0.09,0-0.13c-0.01,0.03-0.01,0.07-0.02,0.1c0.01-0.03,0.02-0.07,0.03-0.1
			c-0.01,0.03-0.03,0.06-0.04,0.09c0.01-0.03,0.03-0.06,0.05-0.08c-0.02,0.03-0.04,0.05-0.06,0.08c0.01-0.01,0.01-0.02,0.02-0.02
			c0.07-0.07,0.11-0.16,0.12-0.27c0-0.09-0.04-0.21-0.11-0.27C56.22,151.04,55.99,151.05,55.83,151.2L55.83,151.2z"/>
	</g>
</g>
<g>
	<g>
		<path class="st0" d="M62.93,151.33c0.82-1.32,1.65-2.64,2.47-3.95c0.4-0.64,0.8-1.28,1.2-1.92c0.16-0.25,0.31-0.5,0.52-0.71
			c0.21-0.21,0.46-0.27,0.7-0.43c0.16-0.1,0.18-0.33,0.01-0.43c-0.54-0.32-1.2,0.24-1.52,0.64c-0.51,0.61-0.92,1.31-1.36,1.97
			c-0.97,1.45-1.94,2.89-2.91,4.34C61.66,151.4,62.58,151.9,62.93,151.33L62.93,151.33z"/>
	</g>
</g>
<g>
	<g>
		<path class="st0" d="M61.9,146.16c0.46,1.12,0.97,2.24,1.52,3.32c0.27,0.53,0.56,1.06,0.86,1.58c0.31,0.53,0.62,1.09,1.07,1.53
			c0.31,0.31,0.94-0.01,0.8-0.46c-0.19-0.57-0.51-1.09-0.8-1.61c-0.3-0.54-0.6-1.08-0.89-1.63c-0.56-1.08-1.09-2.17-1.57-3.29
			c-0.12-0.28-0.53-0.33-0.77-0.19C61.83,145.57,61.79,145.88,61.9,146.16L61.9,146.16z"/>
	</g>
</g>
<g>
	<g>
		<path class="st0" d="M69.25,145.52c-0.53,1.66-1.04,3.37-0.82,5.13c0.17,1.36,0.88,3.09,2.35,3.46c0.43,0.11,0.97-0.43,0.66-0.84
			c-0.36-0.48-0.76-0.91-1.04-1.44c-0.26-0.49-0.43-1.04-0.5-1.6c-0.18-1.48,0.29-2.97,0.71-4.37
			C70.87,144.98,69.52,144.67,69.25,145.52L69.25,145.52z"/>
	</g>
</g>
<g>
	<g>
		<path class="st0" d="M75.52,147.55c-0.64-0.22-1.35,0.11-1.72,0.65c-0.39,0.58-0.23,1.26,0.18,1.77c0.34,0.42,0.92,0.71,1.16,1.17
			c0.09,0.17,0.16,0.39,0.12,0.59c0.01-0.08-0.03,0.09-0.02,0.05c0.02-0.04-0.07,0.11-0.01,0.03c-0.01,0.02-0.04,0.04-0.06,0.06
			c0.03-0.03,0.05-0.02-0.01-0.01c0.06-0.01-0.01,0-0.05,0c-0.08,0-0.25-0.05-0.35-0.09c-0.14-0.05-0.32-0.14-0.48-0.18
			c-0.18-0.04-0.37-0.06-0.55-0.01c-0.21,0.05-0.33,0.2-0.45,0.36c-0.14,0.19,0.04,0.47,0.26,0.46c0.05,0,0.08,0.01-0.02-0.02
			c0.03,0.01,0.06,0.02,0.09,0.03c0.06,0.02,0.13,0.04,0.19,0.05c0.13,0.04,0.26,0.08,0.38,0.13c0.27,0.1,0.53,0.21,0.82,0.21
			c0.62,0.01,1.08-0.47,1.11-1.07c0.03-0.54-0.22-1.09-0.61-1.45c-0.21-0.19-0.43-0.36-0.64-0.55c-0.18-0.16-0.37-0.34-0.44-0.57
			c-0.08-0.24,0.01-0.43,0.18-0.59c0.13-0.12,0.37-0.22,0.52-0.16c0.26,0.1,0.55,0.04,0.67-0.24
			C75.94,147.9,75.78,147.64,75.52,147.55L75.52,147.55z"/>
	</g>
</g>
<g>
	<g>
		<path class="st0" d="M76.83,147.06c0.86,0.81,1.74,1.63,2.3,2.69c0.54,1.03,0.53,2.06,0.25,3.16c-0.1,0.41,0.45,0.77,0.74,0.41
			c0.89-1.09,0.65-2.65,0.1-3.85c-0.58-1.26-1.64-2.24-2.65-3.16C77.1,145.86,76.34,146.6,76.83,147.06L76.83,147.06z"/>
	</g>
</g>
<g>
	<g>
		<path class="st0" d="M86.88,147.37c-1.29-0.31-2.6,0.53-3.07,1.73c-0.48,1.21,0.22,2.54,1.35,3.09c0.66,0.32,1.41,0.39,2.07,0.04
			c0.44-0.23,0.15-0.86-0.31-0.77c-0.39,0.08-0.79,0.06-1.18-0.1c0.05,0.02-0.06-0.03-0.07-0.04c-0.06-0.03-0.11-0.05-0.16-0.09
			c-0.09-0.05-0.18-0.11-0.22-0.15c-0.09-0.07-0.17-0.15-0.25-0.23c-0.04-0.04-0.07-0.08-0.1-0.12c-0.04-0.04-0.01-0.01,0,0
			c-0.02-0.03-0.04-0.06-0.06-0.08c-0.22-0.33-0.34-0.71-0.25-1.11c0.09-0.43,0.35-0.8,0.7-1.06c0.37-0.28,0.85-0.43,1.33-0.33
			C87.16,148.27,87.4,147.5,86.88,147.37L86.88,147.37z"/>
	</g>
</g>
<g>
	<g>
		<path class="st0" d="M84.94,150.49c0.05-0.01,0.1-0.02,0.15-0.03c0.02,0,0.18-0.04,0.07-0.01c0.08-0.02,0.18-0.02,0.26-0.02
			c0.09,0,0.18,0,0.27,0c0.05,0,0.1,0.01,0.15,0.01c0.03,0,0.05,0,0.08,0.01c-0.05-0.01-0.06-0.01-0.02,0
			c0.18,0.03,0.36,0.07,0.54,0.11c0.2,0.05,0.39,0.12,0.6,0.13c0.24,0.01,0.48-0.31,0.31-0.52c-0.09-0.12-0.18-0.2-0.3-0.28
			c-0.08-0.05-0.18-0.1-0.27-0.13c-0.22-0.09-0.44-0.15-0.67-0.19c-0.47-0.07-0.93-0.06-1.39,0.04c-0.24,0.05-0.42,0.34-0.35,0.58
			C84.44,150.42,84.68,150.55,84.94,150.49L84.94,150.49z"/>
	</g>
</g>
<g>
	<g>
		<path class="st0" d="M102.72,141.67c0.7,0.4,0.72,1.38,0.58,2.08c-0.19,0.97-0.51,1.94-0.22,2.92c0.46,1.62,2.3,2.75,3.94,2.23
			c0.49-0.15,0.46-0.93-0.1-0.91c-1.41,0.03-2.77-1.09-2.77-2.55c0-0.9,0.28-1.77,0.18-2.67c-0.09-0.78-0.43-1.52-1.14-1.9
			C102.68,140.6,102.21,141.38,102.72,141.67L102.72,141.67z"/>
	</g>
</g>
<g>
	<g>
		<path class="st0" d="M102.63,157.18c1.28,0.19,2.68,0.36,3.83-0.36c0.94-0.59,1.56-1.69,1.19-2.8c-0.17-0.53-0.51-0.98-0.94-1.33
			c-0.21-0.18-0.44-0.33-0.69-0.46c-0.22-0.11-0.49-0.19-0.68-0.36c-0.43-0.37,0.11-1.24,0.34-1.62c0.31-0.52,0.72-0.97,1.13-1.42
			c0.3-0.33-0.07-0.8-0.46-0.59c-1,0.52-1.68,1.57-1.96,2.64c-0.13,0.51-0.16,1.07,0.25,1.47c0.35,0.34,0.86,0.41,1.28,0.65
			c0.96,0.56,1.48,1.85,0.58,2.7c-0.95,0.89-2.42,0.65-3.59,0.47C102.27,156.08,101.96,157.08,102.63,157.18L102.63,157.18z"/>
	</g>
</g>
<g>
	<g>
		<path class="st0" d="M23,139.54c-1.58,0.36-2.67,2.04-2.32,3.63c0.17,0.81,0.94,1.65,0.74,2.51c-0.09,0.37-0.38,0.67-0.67,0.89
			c-0.34,0.27-0.81,0.43-1.06,0.8c-0.18,0.28,0.05,0.68,0.38,0.66c0.43-0.03,0.78-0.33,1.11-0.59c0.31-0.25,0.61-0.53,0.82-0.87
			c0.5-0.77,0.39-1.62,0.05-2.42c-0.32-0.76-0.68-1.45-0.36-2.28c0.26-0.68,0.84-1.18,1.56-1.31
			C23.93,140.44,23.69,139.38,23,139.54L23,139.54z"/>
	</g>
</g>
<g>
	<g>
		<path class="st0" d="M23.53,155.98c-0.99-0.23-2.01-0.62-2.84-1.23c-0.46-0.34-0.37-0.72-0.1-1.18c0.28-0.47,0.64-0.9,0.95-1.35
			c0.52-0.73,1.35-1.62,0.95-2.59c-0.19-0.46-0.6-0.81-0.94-1.17c-0.38-0.4-0.76-0.93-1.28-1.15c-0.3-0.13-0.82,0.11-0.67,0.51
			c0.21,0.56,0.69,0.95,1.1,1.37c0.32,0.32,0.95,0.74,0.75,1.25c-0.19,0.48-0.59,0.92-0.89,1.34c-0.33,0.46-0.69,0.92-0.96,1.42
			c-0.5,0.94-0.32,1.81,0.55,2.43c0.92,0.65,1.99,1.08,3.07,1.34C23.88,157.12,24.19,156.13,23.53,155.98L23.53,155.98z"/>
	</g>
</g>
<g>
	<g>
		<path class="st1" d="M45.53,69.09c0.58,4.03-0.57,8.02-2.05,11.72c-1.33,3.33-2.88,6.61-4.84,9.63c-1.97,3.03-4.38,5.75-7.32,7.87
			c-3.06,2.21-6.47,3.89-9.69,5.85c-6,3.66-11.63,8.13-15.74,13.89c-4.1,5.76-6.52,12.96-5.72,20.07c0.35,3.13,1.34,6.5,3.73,8.7
			c2.52,2.31,6.1,2.57,9.35,2.24c0.86-0.09,1.7-0.25,2.54-0.43c0.48-0.1,0.42-0.89-0.1-0.86c-3.3,0.21-6.9,0.9-9.9-0.9
			c-2.86-1.71-3.99-5.15-4.45-8.28c-1.02-7.05,1.42-14.3,5.46-20.04c4.05-5.74,9.69-10.18,15.67-13.77
			c3.17-1.91,6.52-3.55,9.53-5.74c2.8-2.03,5.16-4.56,7.09-7.42c2.17-3.21,3.84-6.75,5.22-10.37c1.5-3.93,2.6-8.13,1.93-12.35
			C46.15,68.45,45.47,68.65,45.53,69.09L45.53,69.09z"/>
	</g>
</g>
<g>
	<g>
		<path class="st1" d="M45.25,68.81c-0.37,0.22-0.72,0.47-1.06,0.74c-0.15,0.12-0.29,0.25-0.43,0.38c-0.1,0.09-0.17,0.21-0.25,0.32
			c-0.08,0.11-0.12,0.23-0.16,0.35c-0.06,0.18,0.03,0.4,0.17,0.51c0.17,0.12,0.36,0.11,0.54,0.03c0.06-0.03,0.13-0.05,0.18-0.09
			c0.06-0.04,0.11-0.08,0.16-0.12c0.16-0.11,0.29-0.25,0.43-0.37c0.21-0.19,0.43-0.38,0.65-0.55c-0.04,0.03-0.08,0.06-0.13,0.1
			c0.14-0.11,0.29-0.21,0.44-0.31c0.13-0.09,0.23-0.2,0.27-0.35c0.04-0.13,0.03-0.31-0.05-0.43C45.87,68.75,45.53,68.65,45.25,68.81
			L45.25,68.81z"/>
	</g>
</g>
<g>
	<g>
		<path class="st1" d="M45.69,69.88c0.32,0.52,0.73,0.95,1.23,1.31c0.21,0.15,0.44,0.27,0.68,0.37c0.15,0.06,0.31,0.12,0.47,0.17
			c0.16,0.05,0.32,0.06,0.49,0.06c0.47,0,0.7-0.67,0.26-0.91c-0.05-0.03-0.1-0.06-0.15-0.08c-0.04-0.02-0.08-0.04-0.13-0.06
			c-0.03-0.01-0.07-0.03-0.1-0.04c0.02,0.01,0.04,0.02,0.06,0.02c-0.1-0.06-0.22-0.1-0.33-0.15c-0.11-0.06-0.21-0.12-0.31-0.18
			c-0.05-0.03-0.1-0.07-0.15-0.1c-0.03-0.02-0.06-0.04-0.09-0.06c-0.02-0.01-0.1-0.08-0.03-0.02c0.08,0.06-0.02-0.01-0.03-0.02
			c-0.02-0.02-0.05-0.04-0.07-0.06c-0.05-0.04-0.09-0.08-0.14-0.12c-0.09-0.08-0.18-0.16-0.26-0.25c-0.04-0.04-0.08-0.09-0.12-0.13
			c-0.02-0.02-0.04-0.05-0.06-0.07c-0.07-0.08,0.06,0.08,0.02,0.02c-0.07-0.1-0.15-0.21-0.21-0.31c-0.16-0.27-0.54-0.38-0.82-0.2
			C45.66,69.24,45.51,69.59,45.69,69.88L45.69,69.88z"/>
	</g>
</g>
<g>
	<g>
		<path class="st1" d="M62.78,162.18c-0.07,1.09-0.11,2.17-0.1,3.26c0,0.54,0.01,1.09,0.05,1.63c0.04,0.52,0.03,1.12,0.22,1.61
			c0.14,0.36,0.78,0.47,0.86-0.01c0.09-0.53,0-1.08-0.02-1.61c-0.03-0.54-0.07-1.09-0.09-1.63c-0.04-1.09-0.03-2.17,0.02-3.26
			C63.76,161.56,62.82,161.59,62.78,162.18L62.78,162.18z"/>
	</g>
</g>
<g>
	<g>
		<path class="st1" d="M149.44,161.26c0.12,1.28,0.23,2.57,0.36,3.85c0.06,0.58,0.08,1.23,0.25,1.78c0.15,0.47,0.59,0.84,1.08,0.59
			c0.34-0.17,0.19-0.68-0.18-0.69c0.13,0,0.13,0.14,0.07-0.05c-0.02-0.09-0.03-0.15-0.03-0.24c-0.01-0.23-0.02-0.47-0.04-0.7
			c-0.04-0.51-0.08-1.01-0.13-1.52c-0.1-1.01-0.2-2.02-0.3-3.04c-0.03-0.29-0.22-0.53-0.53-0.53
			C149.73,160.72,149.41,160.97,149.44,161.26L149.44,161.26z"/>
	</g>
</g>
<g>
	<g>
		<path class="st1" d="M105.97,169.68c0.04,0.48,0.07,0.96,0.09,1.43c0.02,0.48-0.01,0.96,0,1.44c0.01,0.48,0.01,0.96,0.01,1.44
			c0,0.47-0.02,0.98,0.1,1.44c0.12,0.46,0.72,0.38,0.86-0.01c0.17-0.44,0.18-0.97,0.19-1.44c0.01-0.5,0-1-0.03-1.5
			c-0.03-0.49-0.12-0.97-0.17-1.45c-0.06-0.49-0.13-0.98-0.22-1.47C106.72,169.1,105.93,169.22,105.97,169.68L105.97,169.68z"/>
	</g>
</g>
<g>
	<g>
		<path class="st1" d="M62.64,161.77c-0.25,0.26-0.51,0.52-0.76,0.78c-0.27,0.27-0.55,0.56-0.7,0.92c-0.06,0.13-0.07,0.29,0.05,0.4
			c0.12,0.11,0.26,0.11,0.41,0.05c0.36-0.16,0.65-0.44,0.92-0.71c0.26-0.25,0.52-0.51,0.78-0.76c0.18-0.18,0.2-0.51,0-0.69
			C63.14,161.58,62.83,161.57,62.64,161.77L62.64,161.77z"/>
	</g>
</g>
<g>
	<g>
		<path class="st1" d="M63.12,162.93c0.3,0.33,0.62,0.66,0.95,0.96c0.17,0.15,0.33,0.29,0.51,0.43c0.13,0.09,0.24,0.18,0.39,0.24
			c0.09,0.04,0.18,0.09,0.27,0.11c0.09,0.02,0.18,0.02,0.27,0.03c0.18,0.02,0.37-0.12,0.46-0.27c0.1-0.17,0.08-0.34,0.01-0.51
			c-0.2-0.44-0.64-0.7-1-0.99c-0.34-0.27-0.68-0.56-0.99-0.87c-0.23-0.22-0.64-0.22-0.86,0.02
			C62.89,162.34,62.89,162.68,63.12,162.93L63.12,162.93z"/>
	</g>
</g>
<g>
	<g>
		<path class="st1" d="M149.36,160.9c-0.31,0.31-0.62,0.62-0.95,0.91c-0.16,0.15-0.32,0.29-0.48,0.43
			c-0.18,0.16-0.38,0.32-0.49,0.54c-0.07,0.14-0.07,0.29,0.03,0.42c0.09,0.12,0.25,0.18,0.4,0.13c0.13-0.04,0.24-0.09,0.35-0.17
			c0.12-0.08,0.22-0.18,0.33-0.27c0.17-0.15,0.33-0.3,0.49-0.45c0.32-0.31,0.63-0.62,0.94-0.95c0.15-0.16,0.18-0.45,0-0.61
			C149.8,160.73,149.52,160.73,149.36,160.9L149.36,160.9z"/>
	</g>
</g>
<g>
	<g>
		<path class="st1" d="M149.58,161.68c0.3,0.32,0.61,0.65,0.96,0.91c0.2,0.15,0.4,0.31,0.61,0.45c0.09,0.06,0.18,0.11,0.28,0.17
			c0.12,0.07,0.26,0.11,0.4,0.16c0.18,0.07,0.44-0.06,0.53-0.23c0.1-0.18,0.08-0.41-0.07-0.56c-0.15-0.15-0.3-0.28-0.47-0.42
			c-0.17-0.14-0.34-0.27-0.51-0.41c-0.33-0.27-0.67-0.54-0.98-0.83c-0.2-0.19-0.55-0.19-0.75,0.02
			C149.38,161.16,149.37,161.46,149.58,161.68L149.58,161.68z"/>
	</g>
</g>
<g>
	<g>
		<path class="st1" d="M72.39,178.83c-0.01,1.1-0.02,2.2-0.02,3.3c0,0.55,0.01,1.1,0.02,1.65c0.01,0.54-0.01,1.11,0.14,1.63
			c0.12,0.43,0.75,0.41,0.86-0.01c0.15-0.53,0.15-1.09,0.17-1.64c0.02-0.55,0.04-1.1,0.05-1.65c0.02-1.1,0.03-2.2,0.04-3.3
			C73.67,178,72.4,178.03,72.39,178.83L72.39,178.83z"/>
	</g>
</g>
<g>
	<g>
		<path class="st1" d="M70.97,182.9c1.37,0.14,2.78,0.21,4.14-0.02c0.42-0.07,0.46-0.8,0.02-0.85c-1.32-0.16-2.66-0.21-3.96-0.39
			c-0.38-0.05-0.76,0.13-0.82,0.55C70.28,182.59,70.59,182.86,70.97,182.9L70.97,182.9z"/>
	</g>
</g>
<g>
	<g>
		<path class="st1" d="M75.13,179.91c0.03,0.9,0.1,1.8,0.21,2.69c0.05,0.43,0.11,0.86,0.19,1.29c0.08,0.45,0.14,0.92,0.36,1.33
			c0.24,0.47,0.97,0.21,0.98-0.27c0.02-0.5,0.16-1.06,0.36-1.52c0.05-0.11,0.14-0.32,0.27-0.36c0.17-0.04,0.37,0.18,0.45,0.3
			c0.62,0.82,0.37,2.05,0.48,3c0.04,0.37,0.62,0.31,0.7-0.01c0.18-0.72,0.19-1.5,0.09-2.23c-0.1-0.69-0.35-1.43-0.96-1.82
			c-0.61-0.39-1.33-0.18-1.72,0.39c-0.42,0.61-0.53,1.42-0.7,2.12c0.34,0.04,0.69,0.08,1.03,0.12c0.03-0.42-0.08-0.84-0.14-1.25
			c-0.07-0.43-0.14-0.86-0.19-1.29c-0.11-0.83-0.2-1.67-0.26-2.5C76.22,179.17,75.1,179.19,75.13,179.91L75.13,179.91z"/>
	</g>
</g>
<g>
	<g>
		<path class="st1" d="M80.19,184.98c0.49,0.24,1.02,0.48,1.58,0.46c0.5-0.02,1.01-0.24,1.28-0.68c0.25-0.41,0.23-0.93,0.04-1.36
			c-0.2-0.45-0.64-0.75-1.11-0.85c-1.03-0.21-2.02,0.4-2.42,1.35c-0.39,0.96,0.03,2.03,0.79,2.67c0.49,0.41,1.05,0.67,1.68,0.78
			c0.69,0.11,1.34,0.08,2.03-0.01c0.51-0.07,0.53-0.91,0.02-1c-0.45-0.07-0.83-0.12-1.26-0.18c-0.21-0.03-0.42-0.07-0.63-0.13
			c-0.09-0.02-0.18-0.05-0.27-0.08c-0.05-0.01-0.09-0.03-0.14-0.04c-0.01,0-0.22-0.09-0.08-0.03c-0.15-0.07-0.3-0.14-0.44-0.23
			c-0.04-0.03-0.08-0.05-0.12-0.08c0.02,0.02,0.08,0.07-0.01-0.01c-0.07-0.06-0.14-0.13-0.21-0.2c-0.03-0.03-0.15-0.18-0.08-0.09
			c-0.05-0.07-0.1-0.14-0.14-0.21c-0.04-0.07-0.08-0.15-0.11-0.22c0.01,0.03,0.03,0.09,0-0.02c-0.01-0.05-0.03-0.11-0.04-0.16
			c-0.05-0.23,0-0.51,0.14-0.75c0.13-0.23,0.33-0.43,0.6-0.54c0.5-0.2,1.29,0.11,1.21,0.75c-0.04,0.31-0.31,0.46-0.61,0.47
			c-0.44,0.02-0.84-0.21-1.21-0.41C80.14,183.91,79.66,184.72,80.19,184.98L80.19,184.98z"/>
	</g>
</g>
<g>
	<g>
		<path class="st1" d="M85.65,182.27c-0.54,0.22-1.01,0.49-1.45,0.87c-0.18,0.16-0.22,0.48-0.1,0.68c0.22,0.35,0.55,0.59,0.9,0.77
			c0.15,0.08,0.31,0.15,0.46,0.23c0.07,0.04,0.14,0.09,0.21,0.13c0.04,0.03,0.02,0.01-0.05-0.04c0.02,0.01,0.04,0.03,0.06,0.05
			c0.03,0.02,0.05,0.05,0.08,0.07c0.08,0.08,0,0.04-0.01-0.02c0,0.02,0.04,0.07,0.05,0.09c0.06,0.09-0.03-0.14,0,0.01
			c0.04,0.15,0.01-0.06,0.01,0.06c0,0.13,0.04-0.08-0.01,0.04c-0.02,0.05-0.06,0.13-0.01,0.05c-0.01,0.02-0.11,0.16-0.06,0.11
			c0.04-0.05-0.08,0.08-0.09,0.09c-0.08,0.09,0.08-0.04-0.04,0.03c-0.05,0.03-0.1,0.06-0.15,0.08c0.09-0.05-0.06,0.02-0.08,0.03
			c-0.08,0.02-0.15,0.04-0.23,0.06c-0.06,0.01-0.12,0.02-0.18,0.04c0,0-0.16,0.02-0.1,0.02c-0.09,0.01-0.17,0.02-0.26,0.04
			c-0.11,0.02,0.01,0.01,0.06,0.04c0.06,0.06,0.11,0.11,0.17,0.17c0.01,0.05,0.02,0.1,0.03,0.15c-0.04,0.09-0.08,0.18-0.12,0.28
			c0.01,0,0.01-0.01,0.02-0.01c0.16-0.14,0.14-0.39,0-0.53c-0.31-0.32-0.81,0-0.81,0.39c-0.01,0.47,0.49,0.56,0.85,0.55
			c0.61,0,1.27-0.13,1.71-0.59c0.43-0.44,0.61-1.1,0.32-1.67c-0.2-0.37-0.57-0.6-0.94-0.77c-0.18-0.08-0.36-0.16-0.54-0.26
			c-0.04-0.03-0.09-0.05-0.13-0.08c-0.01-0.01-0.07-0.05,0,0c0.07,0.05-0.02-0.02-0.03-0.03c-0.03-0.02-0.09-0.12-0.06-0.05
			c0.04,0.08-0.04-0.07-0.05-0.1c-0.07,0.26-0.15,0.52-0.22,0.78c0.18-0.13,0.36-0.25,0.55-0.36c0.09-0.05,0.17-0.1,0.26-0.14
			c0.05-0.03,0.11-0.05,0.16-0.08c0.12-0.06-0.06,0.02,0.07-0.03c0.29-0.11,0.55-0.4,0.44-0.73
			C86.3,182.41,85.96,182.15,85.65,182.27L85.65,182.27z"/>
	</g>
</g>
<g>
	<g>
		<path class="st1" d="M87.64,185.31c0.5,0.13,1.02,0.24,1.54,0.16c0.39-0.07,0.78-0.26,1.05-0.56c0.27-0.31,0.41-0.7,0.33-1.11
			c-0.07-0.36-0.33-0.66-0.64-0.86c-0.68-0.43-1.51-0.24-2.04,0.33c-0.59,0.64-0.84,1.68-0.41,2.47c0.25,0.47,0.69,0.79,1.18,0.96
			c0.54,0.18,1.09,0.18,1.64,0.12c0.25-0.02,0.46-0.17,0.5-0.43c0.03-0.22-0.11-0.5-0.35-0.53c-0.4-0.05-0.76-0.09-1.1-0.16
			c-0.09-0.02-0.18-0.04-0.26-0.07c-0.03-0.01-0.07-0.02-0.1-0.04c0.11,0.04,0,0-0.02-0.01c-0.14-0.07-0.28-0.13-0.41-0.22
			c-0.09-0.06-0.02-0.02-0.01,0c-0.03-0.03-0.06-0.05-0.09-0.08c-0.02-0.02-0.05-0.04-0.07-0.07c-0.02-0.02-0.08-0.1-0.02-0.02
			c-0.1-0.14-0.13-0.22-0.17-0.39c-0.05-0.28-0.01-0.52,0.1-0.78c0.17-0.4,0.57-0.76,1.06-0.63c0.42,0.11,0.74,0.58,0.44,0.96
			c-0.16,0.2-0.41,0.32-0.68,0.35c-0.42,0.04-0.83-0.05-1.23-0.15C87.37,184.42,87.13,185.18,87.64,185.31L87.64,185.31z"/>
	</g>
</g>
<g>
	<g>
		<path class="st1" d="M96.51,178.76c0.19,1.16,0.38,2.32,0.57,3.48c0.09,0.57,0.18,1.13,0.28,1.7c0.09,0.57,0.14,1.22,0.35,1.76
			c0.17,0.44,0.89,0.54,1.01-0.01c0.1-0.41,0.2-0.83,0.33-1.23c0.04-0.13,0.1-0.47,0.2-0.57c-0.02,0.02-0.03-0.03,0.05,0
			c0.07,0.02,0.12,0.11,0.16,0.17c0.45,0.67,0.48,1.51,0.74,2.24c0.17,0.47,0.83,0.38,0.87-0.12c0.05-0.63-0.18-1.28-0.4-1.86
			c-0.2-0.5-0.42-1.08-0.95-1.31c-0.48-0.21-1.02-0.03-1.26,0.43c-0.14,0.27-0.19,0.58-0.29,0.86c-0.12,0.34-0.25,0.67-0.4,1
			c0.33,0.08,0.65,0.16,0.98,0.24c0.02-0.58-0.14-1.2-0.23-1.77c-0.1-0.59-0.2-1.18-0.31-1.77c-0.2-1.18-0.41-2.36-0.61-3.54
			C97.47,177.77,96.4,178.08,96.51,178.76L96.51,178.76z"/>
	</g>
</g>
<g>
	<g>
		<path class="st1" d="M105.62,183.35c-0.58-0.36-1.2-0.69-1.9-0.65c-0.72,0.04-1.31,0.47-1.54,1.16c-0.2,0.59-0.09,1.3,0.27,1.81
			c0.42,0.59,1.13,0.97,1.85,0.72c0.7-0.24,1.24-0.9,1.24-1.65c-0.35,0.1-0.71,0.19-1.06,0.29c0.35,0.64,0.93,1.28,1.68,1.42
			c0.44,0.08,0.81-0.43,0.47-0.79c-0.2-0.21-0.43-0.4-0.64-0.6c-0.11-0.1-0.21-0.21-0.31-0.32c-0.01-0.02-0.15-0.19-0.08-0.1
			c-0.04-0.06-0.09-0.12-0.13-0.18c-0.13-0.2-0.39-0.33-0.63-0.25c-0.22,0.07-0.45,0.29-0.43,0.54c0,0.06,0.01,0.12,0,0.19
			c0.01-0.14-0.07,0.13,0,0c-0.01,0.02-0.12,0.19-0.04,0.08c-0.04,0.05-0.09,0.09-0.13,0.14c-0.05,0.04-0.05,0.04,0.01-0.01
			c-0.03,0.02-0.05,0.04-0.08,0.05c-0.04,0.02-0.16,0.05-0.02,0.02c-0.06,0.02-0.12,0.03-0.18,0.05c0.16-0.03-0.04-0.01-0.07-0.01
			c0.15,0-0.03-0.02-0.08-0.03c-0.07-0.02-0.06-0.02,0.01,0c-0.03-0.01-0.06-0.03-0.09-0.04c-0.02-0.01-0.15-0.11-0.04-0.02
			c-0.05-0.04-0.1-0.09-0.15-0.14c-0.02-0.02-0.05-0.05-0.07-0.08c0.05,0.06,0.05,0.06,0.01,0.01c-0.04-0.06-0.07-0.12-0.11-0.18
			c-0.02-0.03-0.03-0.06-0.04-0.09c0.03,0.07,0.03,0.08,0.01,0.01c-0.02-0.06-0.04-0.11-0.05-0.17c-0.01-0.03-0.03-0.2-0.02-0.07
			c-0.01-0.07-0.01-0.13-0.01-0.2c0-0.03,0-0.07,0.01-0.1c-0.01,0.06-0.01,0.06,0,0c0.02-0.06,0.03-0.12,0.05-0.19
			c-0.04,0.11,0.04-0.06,0.05-0.08c0.05-0.09-0.05,0.03,0.04-0.04c0.08-0.06,0.13-0.11,0.21-0.13c0.23-0.06,0.44-0.06,0.69,0.02
			c0.3,0.09,0.58,0.25,0.86,0.4C105.66,184.4,106.11,183.66,105.62,183.35L105.62,183.35z"/>
	</g>
</g>
<g>
	<g>
		<path class="st1" d="M106.26,183.83c0.52,0.85,1.14,1.68,1.91,2.33c0.21,0.18,0.45,0.35,0.72,0.41c0.37,0.08,0.75-0.06,0.95-0.38
			c0.14-0.22,0.17-0.5,0.22-0.76c0.05-0.26,0.09-0.53,0.11-0.8c0.02-0.31,0-0.62-0.04-0.93c-0.04-0.32-0.08-0.73-0.39-0.9
			c-0.19-0.11-0.42-0.02-0.53,0.15c-0.11,0.17-0.1,0.37-0.07,0.57c0.01,0.11,0.03,0.2,0.03,0.35c0.01,0.28,0.01,0.56-0.01,0.84
			c-0.01,0.07-0.01,0.14-0.02,0.21c0,0.03-0.01,0.07-0.01,0.1c0.01-0.04,0-0.03-0.01,0.03c-0.02,0.12-0.05,0.24-0.09,0.36
			c-0.02,0.07-0.05,0.13-0.07,0.2c-0.02,0.06-0.02,0.05,0,0c-0.03,0.05-0.03,0.05,0.01-0.01c0.08-0.06,0.15-0.09,0.25-0.07
			c-0.06-0.02-0.05-0.01,0.02,0.01c-0.03-0.01-0.05-0.03-0.07-0.04c-0.05-0.04-0.05-0.03,0.01,0.01c-0.02-0.02-0.04-0.04-0.07-0.06
			c-0.05-0.04-0.09-0.09-0.13-0.13c-0.09-0.1-0.18-0.2-0.28-0.3c-0.17-0.19-0.34-0.38-0.5-0.57c-0.09-0.1-0.17-0.21-0.26-0.31
			c-0.02-0.03-0.04-0.05-0.06-0.08c0.07,0.09,0.05,0.06-0.06-0.08c-0.04-0.06-0.04-0.05,0.01,0.01c-0.02-0.03-0.04-0.05-0.06-0.08
			c-0.16-0.22-0.32-0.44-0.47-0.66c-0.17-0.26-0.54-0.38-0.82-0.21C106.22,183.19,106.08,183.55,106.26,183.83L106.26,183.83z"/>
	</g>
</g>
<g>
	<g>
		<path class="st1" d="M111.56,184.99c0.95,0.56,2.27,0.83,3.03-0.18c0.26-0.36,0.4-0.85,0.25-1.28c-0.19-0.52-0.67-0.81-1.17-0.97
			c-1.06-0.35-2.05,0.24-2.39,1.27c-0.35,1.06,0.2,2.12,1.08,2.73c1.15,0.8,2.61,0.72,3.94,0.59c0.24-0.02,0.45-0.17,0.48-0.42
			c0.03-0.21-0.1-0.48-0.34-0.51c-0.92-0.12-1.85-0.11-2.74-0.4c-0.18-0.06-0.26-0.09-0.44-0.19c-0.15-0.08-0.33-0.2-0.4-0.26
			c-0.07-0.06-0.14-0.11-0.2-0.18c-0.04-0.04-0.08-0.08-0.11-0.12c-0.07-0.08,0.04,0.05-0.03-0.03c-0.05-0.07-0.1-0.15-0.14-0.22
			c-0.05-0.1-0.07-0.12-0.08-0.18c-0.14-0.44-0.02-1.13,0.49-1.34c0.47-0.19,1.65,0.13,1.34,0.83c-0.38,0.85-1.5,0.38-2.06,0.03
			C111.54,183.85,111.03,184.67,111.56,184.99L111.56,184.99z"/>
	</g>
</g>
<g>
	<g>
		<path class="st1" d="M125.02,184.89c1.01,0.46,2.16,0.6,3.24,0.28c0.46-0.14,0.98-0.35,1.23-0.8c0.25-0.45,0.13-0.99-0.27-1.3
			c-0.41-0.32-0.94-0.36-1.43-0.31c-0.5,0.05-1.01,0.18-1.45,0.45c-0.89,0.55-1.35,1.65-0.9,2.63c0.23,0.5,0.7,0.88,1.2,1.09
			c0.63,0.26,1.28,0.27,1.95,0.23c0.24-0.02,0.45-0.18,0.49-0.42c0.03-0.22-0.1-0.48-0.35-0.52c-0.42-0.06-0.83-0.12-1.24-0.22
			c-0.18-0.04-0.36-0.09-0.46-0.14c-0.08-0.04-0.16-0.08-0.24-0.12c-0.03-0.02-0.07-0.04-0.1-0.06c0,0-0.13-0.1-0.08-0.05
			c-0.24-0.2-0.39-0.39-0.42-0.69c-0.03-0.29,0.09-0.61,0.28-0.84c0.42-0.51,1.27-0.79,1.92-0.66c0.21,0.04,0.58,0.24,0.41,0.51
			c-0.13,0.22-0.49,0.3-0.74,0.35c-0.84,0.19-1.77,0.11-2.55-0.26c-0.24-0.11-0.54-0.05-0.68,0.19
			C124.72,184.44,124.78,184.77,125.02,184.89L125.02,184.89z"/>
	</g>
</g>
<g>
	<g>
		<path class="st1" d="M133,183.57c-0.68-0.27-1.46-0.56-2.19-0.25c-0.56,0.23-1.01,0.85-0.74,1.46c0.28,0.61,1.05,0.8,1.66,0.71
			c0.66-0.09,1.2-0.46,1.59-0.99c-0.28-0.07-0.55-0.14-0.83-0.21c-0.18,1.51-0.29,3.03-0.41,4.55c-0.06,0.76-0.12,1.52-0.18,2.27
			c-0.05,0.74-0.13,1.47,0.01,2.21c0.1,0.51,0.83,0.42,0.96-0.01c0.22-0.71,0.23-1.47,0.26-2.21c0.04-0.76,0.06-1.51,0.1-2.27
			c0.06-1.51,0.14-3.03,0.14-4.54c0-0.46-0.6-0.57-0.83-0.21c-0.28,0.44-1.05,0.78-1.54,0.45c-0.52-0.35,0.31-0.59,0.56-0.59
			c0.39,0,0.78,0.14,1.15,0.26C133.09,184.33,133.37,183.72,133,183.57L133,183.57z"/>
	</g>
</g>
<g>
	<g>
		<path class="st1" d="M130.36,189.59c0.68-0.04,1.36-0.09,2.04-0.13c0.33-0.02,0.67-0.04,1-0.06c0.37-0.02,0.73-0.06,1.07-0.22
			c0.31-0.15,0.19-0.56-0.08-0.66c-0.32-0.12-0.68-0.1-1.01-0.09c-0.33,0.01-0.67,0.03-1,0.04c-0.67,0.02-1.33,0.05-2,0.07
			c-0.28,0.01-0.54,0.24-0.54,0.53C129.83,189.35,130.08,189.61,130.36,189.59L130.36,189.59z"/>
	</g>
</g>
<g>
	<g>
		<path class="st1" d="M133.49,184.43c0.35,0.9,1.05,1.62,2.05,1.72c0.96,0.09,1.86-0.55,2.12-1.47c0.15-0.53,0.09-1.17-0.2-1.64
			c-0.23-0.38-0.77-0.26-0.91,0.13c-0.08,0.24-0.11,0.48-0.13,0.73c-0.01,0.08-0.02,0.12,0,0.02c-0.01,0.07-0.01,0.23-0.04,0.31
			c0.05-0.15,0-0.04-0.01,0.01c-0.01,0.06-0.02,0.12-0.04,0.18c-0.01,0.02-0.03,0.13-0.04,0.13c0.04-0.09,0.05-0.1,0.02-0.04
			c-0.01,0.02-0.02,0.04-0.03,0.06c-0.01,0.01-0.09,0.13-0.09,0.13c0.07-0.08,0.08-0.1,0.03-0.04c-0.01,0.01-0.02,0.02-0.03,0.03
			c-0.02,0.02-0.04,0.04-0.06,0.05c0.09-0.07,0.11-0.08,0.05-0.04c-0.03,0.02-0.07,0.04-0.1,0.06c-0.02,0.01-0.05,0.02-0.07,0.04
			c0.1-0.04,0.12-0.05,0.07-0.03c-0.05,0.01-0.09,0.03-0.14,0.04c-0.03,0.01-0.1,0.01-0.12,0.02c0.11-0.01,0.12-0.02,0.05-0.01
			c-0.03,0-0.05,0-0.08,0c-0.04,0-0.08,0-0.12,0c-0.13,0,0.15,0.03-0.01,0c-0.03,0-0.25-0.08-0.26-0.07
			c0.09,0.04,0.11,0.04,0.04,0.02c-0.03-0.01-0.05-0.02-0.08-0.04c-0.04-0.02-0.07-0.04-0.11-0.06c-0.02-0.01-0.05-0.03-0.07-0.05
			c-0.06-0.04-0.05-0.03,0.03,0.03c0,0-0.09-0.08-0.1-0.08c-0.02-0.01-0.21-0.22-0.21-0.22c0.06,0.08,0.07,0.09,0.04,0.05
			c-0.01-0.02-0.03-0.03-0.04-0.05c-0.03-0.05-0.06-0.1-0.09-0.14c-0.05-0.09-0.09-0.18-0.13-0.27c-0.13-0.29-0.54-0.36-0.8-0.25
			C133.62,183.79,133.37,184.13,133.49,184.43L133.49,184.43z"/>
	</g>
</g>
<g>
	<g>
		<path class="st1" d="M141.83,183.91c-0.5-0.36-1.05-0.74-1.69-0.67c-0.67,0.07-1.05,0.57-1.23,1.19
			c-0.17,0.58-0.15,1.27,0.37,1.67c0.55,0.42,1.32,0.35,1.9,0.03c0.63-0.35,1-0.95,1.09-1.65c0.06-0.52-0.8-0.6-0.91-0.11
			c-0.13,0.62,0.08,1.24,0.57,1.65c0.53,0.44,1.23,0.5,1.89,0.4c0.42-0.07,0.42-0.73,0.01-0.82c-0.57-0.12-1.69-0.31-1.57-1.12
			c-0.31,0-0.62,0.01-0.92,0.01c-0.05,0.39-0.41,0.72-0.73,0.84c-0.28,0.11-0.82,0.16-0.95-0.23c-0.13-0.38-0.02-1.06,0.38-1.25
			c0.54-0.25,1.14,0.14,1.58,0.42C141.84,184.42,142.04,184.07,141.83,183.91L141.83,183.91z"/>
	</g>
</g>
<g>
	<g>
		<path class="st1" d="M143.77,180.68c0.24,1.15,0.45,2.3,0.67,3.45c0.1,0.56,0.2,1.13,0.3,1.7c0.1,0.59,0.17,1.17,0.43,1.72
			c0.22,0.47,0.85,0.16,0.9-0.25c0.07-0.58-0.06-1.15-0.16-1.72c-0.1-0.59-0.21-1.17-0.33-1.76c-0.23-1.15-0.49-2.29-0.77-3.42
			C144.64,179.74,143.64,180.03,143.77,180.68L143.77,180.68z"/>
	</g>
</g>
<g>
	<g>
		<path class="st1" d="M63.26,198.25c0.1,1.96,0.19,3.93,0.46,5.88c0.07,0.52,0.87,0.36,0.89-0.12c0.07-1.92-0.04-3.85-0.14-5.77
			C64.44,197.47,63.23,197.49,63.26,198.25L63.26,198.25z"/>
	</g>
</g>
<g>
	<g>
		<path class="st1" d="M64.1,198.18c0.47-0.27,0.97-0.45,1.51-0.54c0.22-0.04,0.45-0.05,0.68-0.04c0.03,0,0.05,0,0.08,0.01
			c-0.01,0-0.05-0.01,0,0c0.05,0.01,0.1,0.02,0.15,0.03c0.06,0.01,0.12,0.03,0.17,0.05c-0.06-0.02,0.07,0.03,0.09,0.05
			c0.02,0.01,0.11,0.07,0.09,0.06c-0.02-0.01,0.06,0.06,0.08,0.08c0.04,0.04,0.01,0,0-0.01c0.02,0.02,0.03,0.05,0.05,0.08
			c0.04,0.06,0.04,0.07,0.05,0.13c0.06,0.21,0.04,0.43-0.01,0.6c-0.01,0.05-0.03,0.1-0.05,0.15c-0.03,0.08,0.01,0-0.03,0.07
			c-0.05,0.11-0.11,0.21-0.18,0.31c-0.05,0.07,0.01-0.01-0.05,0.06c-0.03,0.04-0.07,0.08-0.1,0.11c-0.04,0.04-0.07,0.07-0.11,0.11
			c-0.02,0.02-0.04,0.03-0.06,0.05c-0.07,0.06,0.06-0.04-0.01,0.01c-0.11,0.08-0.22,0.14-0.33,0.2c0,0-0.08,0.04-0.03,0.02
			c0.04-0.02-0.05,0.02-0.06,0.02c-0.06,0.02-0.11,0.04-0.17,0.05c-0.06,0.02-0.12,0.03-0.18,0.04c-0.06,0.01-0.01,0,0,0
			c-0.13,0.02-0.17,0.03-0.12,0.02c0.02,0,0.02,0-0.01,0c-0.15,0.01-0.3,0.03-0.45,0.06c-0.36,0.08-0.44,0.6-0.12,0.78
			c0.56,0.31,1.31,0.07,1.82-0.24c0.53-0.33,0.95-0.82,1.16-1.42c0.22-0.64,0.16-1.42-0.33-1.92c-0.43-0.45-1.12-0.57-1.72-0.52
			c-0.81,0.07-1.61,0.32-2.31,0.74c-0.22,0.13-0.32,0.43-0.19,0.66C63.57,198.25,63.88,198.31,64.1,198.18L64.1,198.18z"/>
	</g>
</g>
<g>
	<g>
		<path class="st1" d="M70.04,199.51c0.08,0.03-0.04-0.02-0.05-0.03c-0.01-0.01-0.11-0.07-0.05-0.03c-0.07-0.05-0.13-0.12-0.19-0.18
			c0.05,0.06-0.03-0.04-0.03-0.05c-0.02-0.04-0.05-0.08-0.07-0.12c0,0-0.06-0.13-0.03-0.05c-0.02-0.04-0.03-0.08-0.04-0.13
			c-0.12-0.41-0.1-0.84-0.07-1.27c0-0.04,0-0.08,0.01-0.12c0,0,0.02-0.14,0-0.07c0.01-0.03,0.01-0.06,0.02-0.09
			c0,0.01-0.01,0.01-0.01,0.02c0.03-0.04,0.03-0.05,0-0.02c0.01-0.01,0.02-0.02,0.03-0.03c-0.09,0.06,0.08-0.03-0.02,0.01
			c0.04-0.02,0.09-0.03,0.13-0.04c0.14-0.03-0.09,0.01,0.08-0.01c0.06-0.01,0.11-0.01,0.17-0.02c0.46-0.05,0.91,0.01,1.37,0.06
			c0.36,0.04,0.52-0.52,0.19-0.68c-0.55-0.27-1.23-0.34-1.84-0.25c-0.27,0.04-0.53,0.12-0.72,0.32c-0.22,0.21-0.28,0.51-0.32,0.8
			c-0.07,0.54-0.11,1.15,0.08,1.67c0.17,0.48,0.5,0.95,0.99,1.15c0.26,0.1,0.55,0.04,0.67-0.24
			C70.45,199.85,70.3,199.6,70.04,199.51L70.04,199.51z"/>
	</g>
</g>
<g>
	<g>
		<path class="st1" d="M72.94,197.64c-0.4,0.69-0.48,1.53-0.12,2.25c0.32,0.65,1.06,1.13,1.79,1.06c0.78-0.07,1.45-0.66,1.57-1.44
			c0.11-0.73-0.33-1.34-0.9-1.74c-0.29-0.2-0.61-0.34-0.93-0.46c-0.46-0.17-1.21-0.04-1.24,0.55c-0.01,0.22,0.19,0.41,0.41,0.41
			c0.02,0,0.24-0.02,0.23-0.03c0,0-0.13,0.01-0.03,0.01c0.1,0-0.03-0.01-0.03-0.01c0.02-0.01,0.16,0.03,0.18,0.05
			c0-0.01-0.12-0.05-0.03-0.01c0.06,0.03,0.13,0.05,0.2,0.07c0.11,0.04-0.09-0.04-0.01-0.01c0.03,0.01,0.06,0.02,0.08,0.03
			c0.04,0.02,0.09,0.04,0.13,0.06c0.11,0.05,0.22,0.11,0.32,0.17c0.05,0.03,0.09,0.06,0.14,0.09c0.07,0.04-0.1-0.08-0.01-0.01
			c0.02,0.02,0.04,0.03,0.06,0.04c0.04,0.03,0.08,0.07,0.12,0.11c0.04,0.04,0.08,0.11,0.13,0.14c-0.07-0.05-0.06-0.08-0.03-0.03
			c0.01,0.02,0.03,0.05,0.04,0.07c0.02,0.03,0.04,0.11,0.07,0.13c-0.06-0.05-0.03-0.1-0.02-0.04c0.01,0.03,0.01,0.05,0.02,0.08
			c0.03,0.1-0.03,0,0-0.02c-0.01,0,0,0.1,0,0.1c0,0.02-0.01,0.06,0,0.07c-0.02-0.06,0.02-0.1,0.01-0.04
			c-0.01,0.03-0.01,0.06-0.02,0.08c-0.03,0.09-0.03,0,0.01-0.02c-0.02,0.01-0.05,0.1-0.07,0.12c-0.01,0.02-0.08,0.09-0.01,0.03
			c0.07-0.07-0.02,0.02-0.03,0.04c-0.03,0.03-0.1,0.07-0.12,0.11c0.04-0.08,0.1-0.07,0.03-0.02c-0.02,0.02-0.05,0.03-0.08,0.05
			c-0.02,0.01-0.04,0.02-0.06,0.03c-0.09,0.05,0.04-0.02,0.05-0.02c-0.04,0-0.15,0.04-0.19,0.05c-0.08,0.02,0.15-0.01,0.03,0
			c-0.02,0-0.05,0-0.07,0c-0.02,0-0.05,0-0.07,0c-0.13,0,0.11,0.02,0.03,0c-0.05-0.01-0.11-0.02-0.16-0.03
			c-0.02-0.01-0.05-0.01-0.07-0.02c-0.12-0.03,0.1,0.05,0,0c-0.06-0.03-0.11-0.05-0.16-0.09c-0.02-0.01-0.04-0.03-0.06-0.04
			c-0.11-0.07,0.08,0.07,0.02,0.01c-0.04-0.04-0.08-0.07-0.12-0.11c-0.02-0.02-0.03-0.04-0.05-0.05c-0.09-0.09,0.06,0.1,0,0
			c-0.04-0.06-0.08-0.11-0.11-0.17c-0.01-0.02-0.04-0.06-0.04-0.09c0.01,0.02,0.02,0.04,0.02,0.06c-0.01-0.03-0.02-0.05-0.03-0.08
			c-0.02-0.07-0.04-0.13-0.05-0.2c0-0.02-0.01-0.06-0.01-0.08c0,0.13,0,0,0-0.03c0-0.08,0-0.17,0.01-0.25c0-0.02,0-0.1,0,0.01
			c0-0.04,0.02-0.09,0.02-0.12c0.02-0.07,0.04-0.14,0.06-0.2c0.01-0.03,0.02-0.07,0.04-0.1c0.01-0.03,0.01-0.03-0.01,0.03
			c0.01-0.03,0.02-0.05,0.04-0.08c0.12-0.24,0.08-0.56-0.18-0.69C73.4,197.31,73.09,197.39,72.94,197.64L72.94,197.64z"/>
	</g>
</g>
<g>
	<g>
		<path class="st1" d="M76.62,194.64c0.07,0.84,0.14,1.68,0.22,2.51c0.04,0.41,0.07,0.82,0.11,1.23c0.04,0.43,0.06,0.89,0.18,1.31
			c0.32-0.09,0.63-0.17,0.95-0.26c-0.16-0.43-0.26-0.99,0.01-1.4c0.27-0.4,0.74-0.26,1.11-0.07c0.38,0.2,0.51,0.55,0.22,0.91
			c-0.28,0.35-0.84,0.43-1.25,0.5c-0.34,0.06-0.25,0.54,0.06,0.56c0.72,0.07,1.48-0.14,1.87-0.79c0.39-0.65,0.17-1.39-0.46-1.77
			c-0.63-0.38-1.45-0.49-2.01,0.07c-0.6,0.59-0.48,1.38-0.51,2.14c-0.02,0.64,0.92,0.59,0.98-0.01c0.04-0.41-0.02-0.83-0.05-1.23
			c-0.03-0.41-0.08-0.82-0.12-1.23c-0.08-0.82-0.16-1.64-0.25-2.46c-0.03-0.28-0.21-0.52-0.52-0.51
			C76.9,194.12,76.6,194.35,76.62,194.64L76.62,194.64z"/>
	</g>
</g>
<g>
	<g>
		<path class="st1" d="M84.45,197.51c-0.56-0.56-1.34-1.02-2.15-0.72c-0.8,0.3-1.05,1.15-0.94,1.93c0.1,0.68,0.54,1.43,1.27,1.56
			c0.83,0.15,1.38-0.49,1.88-1.05c-0.28-0.03-0.56-0.06-0.84-0.09c0.65,0.99,1.88,1.41,2.99,0.93c0.41-0.18,0.2-0.79-0.2-0.79
			c-0.74,0-1.44-0.27-1.94-0.79c-0.24-0.25-0.68-0.16-0.84,0.13c-0.1,0.18-0.22,0.33-0.39,0.47c-0.12,0.1-0.22,0.14-0.36,0.13
			c-0.02,0-0.09-0.03-0.12-0.06c0.04,0.03-0.06-0.06-0.07-0.07c-0.12-0.12,0.02,0.04-0.04-0.05c-0.13-0.19-0.17-0.29-0.22-0.52
			c-0.03-0.14-0.04-0.35-0.02-0.48c0.03-0.14,0.07-0.25,0.22-0.3c0.38-0.14,0.81,0.22,1.07,0.47
			C84.2,198.61,84.89,197.95,84.45,197.51L84.45,197.51z"/>
	</g>
</g>
<g>
	<g>
		<path class="st1" d="M86.25,195.84c0.12,0.72,0.24,1.43,0.36,2.15c0.12,0.7,0.17,1.46,0.41,2.14c0.35-0.15,0.71-0.29,1.06-0.44
			c-0.07-0.12-0.1-0.16-0.11-0.29c-0.01-0.12,0-0.24,0.02-0.35c0.05-0.24,0.17-0.45,0.36-0.6c0.31-0.23,0.77-0.25,1.03,0.08
			c0.24,0.32,0.13,0.66-0.17,0.85c-0.21,0.13-0.39,0.2-0.62,0.26c-0.11,0.03-0.2,0.06-0.26,0.06c-0.04,0-0.07,0-0.11,0
			c0.02,0,0.02,0-0.01-0.01c-0.1-0.02-0.04-0.04,0.01,0.04c-0.16-0.24-0.6-0.23-0.67,0.1c-0.07,0.37,0.13,0.67,0.5,0.77
			c0.31,0.08,0.65,0.01,0.94-0.08c0.63-0.2,1.26-0.62,1.41-1.31c0.15-0.66-0.19-1.37-0.8-1.69c-0.65-0.34-1.45-0.16-1.99,0.31
			c-0.67,0.58-0.72,1.49-0.61,2.31c0.04,0.28,0.37,0.44,0.62,0.41c0.27-0.04,0.53-0.27,0.51-0.56c-0.03-0.75-0.25-1.51-0.41-2.24
			c-0.15-0.72-0.31-1.45-0.46-2.17c-0.06-0.28-0.38-0.44-0.64-0.36C86.35,195.28,86.2,195.56,86.25,195.84L86.25,195.84z"/>
	</g>
</g>
<g>
	<g>
		<path class="st1" d="M91.76,197.86c0.03,0.43,0.07,0.87,0.18,1.29c0.1,0.41,0.22,0.83,0.45,1.19c0.11,0.18,0.34,0.28,0.54,0.22
			c0.2-0.06,0.38-0.24,0.37-0.46c-0.01-0.22-0.03-0.43-0.06-0.65c-0.01-0.1-0.03-0.2-0.04-0.3c-0.01-0.04-0.01-0.09-0.02-0.13
			c-0.02-0.12,0.01,0.12,0-0.04c-0.01-0.13-0.03-0.26-0.04-0.4c0-0.04-0.04-0.17,0-0.01c-0.01-0.05-0.01-0.1-0.01-0.15
			c-0.02-0.19-0.03-0.39-0.04-0.58c-0.01-0.34-0.28-0.66-0.64-0.64C92.1,197.23,91.73,197.5,91.76,197.86L91.76,197.86z"/>
	</g>
</g>
<g>
	<g>
		<path class="st1" d="M91.45,195.91c0.01,0.05,0.03,0.11,0.06,0.15c0.02,0.05,0.06,0.09,0.1,0.13c0.03,0.04,0.09,0.07,0.13,0.1
			c0.02,0.01,0.03,0.02,0.05,0.03c0.05,0.02,0.1,0.04,0.15,0.06c0.05,0.01,0.11,0.02,0.16,0.02c0.05,0,0.11-0.01,0.16-0.02
			c0.05-0.01,0.11-0.04,0.16-0.06c-0.04,0.01-0.07,0.03-0.11,0.04c0.04-0.02,0.09-0.03,0.13-0.05c0.01,0,0.02-0.01,0.03-0.02
			c0.04-0.03,0.08-0.05,0.11-0.09c0.04-0.03,0.06-0.08,0.09-0.11c0.01-0.01,0.01-0.02,0.02-0.03c0,0,0-0.01,0.01-0.01
			c0.02-0.04,0.04-0.08,0.05-0.12c0-0.01,0.01-0.02,0.01-0.03c0.01-0.05,0.02-0.09,0.02-0.14c0-0.01,0-0.02,0-0.03
			c0-0.05-0.01-0.1-0.02-0.15c0-0.01-0.01-0.02-0.01-0.03c-0.02-0.05-0.04-0.1-0.06-0.14c-0.03-0.06-0.07-0.11-0.11-0.15
			c-0.03-0.03-0.06-0.06-0.1-0.08c-0.02-0.02-0.05-0.04-0.08-0.05c-0.01,0-0.01-0.01-0.02-0.01c-0.04-0.02-0.09-0.04-0.13-0.05
			c-0.01,0-0.02-0.01-0.03-0.01c-0.05-0.01-0.09-0.01-0.14-0.02c0,0,0,0-0.01,0c-0.02,0-0.05,0-0.07,0.01
			c-0.02,0-0.05,0.01-0.07,0.01c-0.09,0.02-0.17,0.07-0.23,0.13c-0.06,0.06-0.11,0.14-0.13,0.22c-0.01,0.05-0.02,0.1-0.02,0.16
			c0,0.01,0,0.03,0,0.04c0,0.06,0.01,0.13,0.02,0.19c0.02,0.09,0.07,0.18,0.13,0.25c0.04,0.04,0.08,0.07,0.13,0.1
			c0.06,0.03,0.12,0.05,0.19,0.05c0.05,0,0.1-0.01,0.15-0.03c0.05-0.02,0.09-0.04,0.13-0.08c0.05-0.05,0.08-0.1,0.1-0.17
			c0-0.01,0.01-0.02,0.01-0.02c-0.01,0.03-0.03,0.06-0.04,0.09c0.01-0.01,0.01-0.03,0.02-0.04c0.03-0.05,0.04-0.1,0.06-0.15
			c-0.01,0.03-0.03,0.07-0.04,0.1c0.01-0.03,0.03-0.05,0.04-0.07c-0.03,0.03-0.05,0.07-0.08,0.1c0.01-0.02,0.03-0.03,0.05-0.05
			c-0.12,0.05-0.24,0.1-0.36,0.15c0.05,0,0.1-0.01,0.15-0.02c-0.04,0.01-0.09,0.01-0.13,0.02c0.02,0,0.03,0,0.05,0
			c-0.04,0-0.08-0.01-0.13-0.01c0.02,0,0.03,0.01,0.05,0.01c-0.04-0.02-0.08-0.03-0.12-0.05c0.02,0.01,0.04,0.02,0.06,0.03
			c-0.03-0.02-0.07-0.05-0.1-0.07c0.02,0.01,0.04,0.03,0.05,0.05c-0.03-0.03-0.05-0.07-0.08-0.1c0.02,0.02,0.03,0.05,0.04,0.07
			c-0.02-0.04-0.03-0.08-0.05-0.11c0.01,0.02,0.01,0.04,0.02,0.06c0-0.04-0.01-0.08-0.01-0.12c0,0.02,0,0.03,0,0.05
			c0.01-0.04,0.01-0.07,0.02-0.11c0,0.02-0.01,0.03-0.01,0.05c0.01-0.03,0.03-0.07,0.04-0.1c-0.01,0.01-0.01,0.03-0.02,0.04
			c0.02-0.03,0.05-0.06,0.07-0.09c-0.01,0.01-0.02,0.02-0.03,0.03c0.03-0.02,0.06-0.05,0.09-0.07c-0.01,0.01-0.02,0.01-0.03,0.02
			c0.04-0.01,0.07-0.03,0.11-0.04c-0.02,0.01-0.04,0.01-0.06,0.02c0.04-0.01,0.07-0.01,0.11-0.02c-0.02,0-0.05,0-0.07,0
			c0.04,0,0.07,0.01,0.11,0.01c-0.02,0-0.05-0.01-0.07-0.02c0.03,0.01,0.07,0.03,0.1,0.04c-0.02-0.01-0.04-0.02-0.06-0.03
			c0.03,0.02,0.06,0.04,0.09,0.06c-0.02-0.01-0.03-0.03-0.04-0.04c0.02,0.03,0.05,0.06,0.07,0.09c-0.01-0.01-0.02-0.03-0.03-0.04
			c0.01,0.03,0.03,0.07,0.04,0.1c0-0.01-0.01-0.02-0.01-0.03c-0.01-0.06-0.04-0.1-0.08-0.15c-0.03-0.05-0.07-0.08-0.12-0.11
			c-0.05-0.03-0.1-0.04-0.15-0.05c-0.05-0.01-0.11-0.01-0.16,0.01c-0.04,0.01-0.07,0.03-0.11,0.04c-0.07,0.04-0.12,0.09-0.16,0.16
			c-0.01,0.03-0.03,0.07-0.04,0.1C91.44,195.77,91.44,195.84,91.45,195.91L91.45,195.91z"/>
	</g>
</g>
<g>
	<g>
		<path class="st1" d="M93.7,195.32c0.05,0.94,0.14,1.89,0.29,2.83c0.15,0.93,0.34,1.83,0.72,2.7c0.2,0.44,0.93,0.2,0.91-0.25
			c-0.04-0.91-0.21-1.79-0.33-2.69c-0.12-0.86-0.21-1.72-0.26-2.59c-0.02-0.36-0.28-0.65-0.66-0.65
			C94.05,194.66,93.68,194.96,93.7,195.32L93.7,195.32z"/>
	</g>
</g>
<g>
	<g>
		<path class="st1" d="M97.08,198.41c0.08,0.38,0.16,0.76,0.26,1.14c0.05,0.19,0.1,0.37,0.17,0.55c0.08,0.21,0.16,0.43,0.29,0.61
			c0.1,0.14,0.24,0.22,0.42,0.2c0.16-0.02,0.33-0.14,0.36-0.31c0.1-0.44,0.03-0.9-0.05-1.34c-0.07-0.39-0.15-0.78-0.24-1.17
			c-0.07-0.32-0.45-0.53-0.76-0.43C97.21,197.76,97,198.07,97.08,198.41L97.08,198.41z"/>
	</g>
</g>
<g>
	<g>
		<path class="st1" d="M96.75,196.56c0.06,0.12,0.18,0.23,0.29,0.29c0.05,0.02,0.1,0.04,0.15,0.06c0.01,0,0.03,0.01,0.04,0.01
			c0.07,0.01,0.13,0.02,0.2,0.02c0.27,0,0.55-0.15,0.69-0.39c0.05-0.08,0.07-0.16,0.07-0.25c0-0.09-0.02-0.18-0.07-0.26
			c-0.04-0.06-0.09-0.13-0.14-0.19c-0.05-0.06-0.11-0.1-0.18-0.14c-0.03-0.02-0.06-0.04-0.09-0.05c-0.11-0.05-0.18-0.08-0.3-0.08
			c-0.05,0-0.1,0-0.15,0.02c-0.1,0.03-0.18,0.08-0.26,0.15c-0.03,0.04-0.07,0.08-0.1,0.12c-0.04,0.06-0.07,0.13-0.08,0.2
			c-0.01,0.04-0.02,0.1-0.02,0.15c0.01,0.05,0.01,0.09,0.02,0.14c0,0,0,0.01,0,0.01c0.01,0.05,0.04,0.11,0.06,0.16
			c0.02,0.05,0.08,0.11,0.1,0.13c0.06,0.07,0.15,0.12,0.23,0.14c0.1,0.02,0.18,0.03,0.28,0c0.04-0.02,0.07-0.03,0.11-0.05
			c0.05-0.03,0.1-0.07,0.13-0.12c0.03-0.03,0.05-0.06,0.06-0.1c0.03-0.05,0.04-0.1,0.04-0.16c0,0,0-0.01,0-0.01
			c-0.01,0.04-0.01,0.08-0.02,0.11c0-0.01,0-0.02,0.01-0.02c-0.02,0.04-0.03,0.08-0.05,0.11c0.02-0.04,0.04-0.08,0.05-0.12
			c0.01-0.03,0.02-0.1,0.02-0.13c0-0.01,0-0.02,0-0.03c-0.01,0.04-0.01,0.08-0.02,0.13c0-0.01,0.01-0.03,0.01-0.04
			c-0.02,0.04-0.04,0.08-0.05,0.12c0.01-0.02,0.02-0.05,0.04-0.07c-0.03,0.04-0.06,0.07-0.09,0.11c0.01-0.01,0.01-0.02,0.02-0.02
			c-0.04,0.03-0.08,0.06-0.12,0.09c0.01,0,0.01-0.01,0.02-0.01c-0.14,0.02-0.28,0.04-0.42,0.06c0.06,0.01,0.12,0.01,0.18,0.02
			c-0.05-0.01-0.09-0.01-0.14-0.02c0.03,0,0.06,0.01,0.09,0.02c-0.04-0.02-0.08-0.03-0.13-0.05c0.03,0.01,0.06,0.03,0.09,0.05
			c-0.04-0.03-0.07-0.05-0.11-0.08c0.01,0.01,0.03,0.02,0.04,0.04c-0.03-0.04-0.06-0.07-0.08-0.11c0.01,0.01,0.01,0.02,0.02,0.03
			c0-0.17,0-0.34,0.01-0.51c-0.01,0.01-0.01,0.02-0.02,0.03c0.03-0.04,0.06-0.07,0.08-0.11c-0.01,0.01-0.02,0.03-0.04,0.04
			c0.04-0.03,0.07-0.06,0.11-0.09c-0.01,0.01-0.03,0.02-0.04,0.02c0.04-0.02,0.09-0.04,0.13-0.05c-0.02,0.01-0.05,0.02-0.07,0.02
			c0.04-0.01,0.09-0.01,0.13-0.02c-0.03,0-0.05,0-0.08,0c0.04,0.01,0.09,0.01,0.13,0.02c-0.02,0-0.05-0.01-0.07-0.02
			c0.04,0.02,0.08,0.03,0.12,0.05c-0.02-0.01-0.04-0.02-0.06-0.03c0.04,0.03,0.07,0.05,0.11,0.08c-0.02-0.01-0.03-0.03-0.05-0.04
			c0.03,0.04,0.06,0.07,0.09,0.11c-0.01-0.01-0.02-0.03-0.03-0.05c-0.03-0.06-0.08-0.11-0.14-0.15c-0.05-0.05-0.11-0.08-0.18-0.09
			c-0.07-0.02-0.14-0.02-0.21-0.01c-0.07,0-0.14,0.03-0.2,0.07c-0.04,0.03-0.08,0.06-0.12,0.09c-0.07,0.07-0.11,0.15-0.14,0.24
			c-0.01,0.04-0.01,0.09-0.02,0.13C96.68,196.38,96.71,196.47,96.75,196.56L96.75,196.56z"/>
	</g>
</g>
<g>
	<g>
		<path class="st1" d="M100.16,195.12c0.07,0.84,0.16,1.69,0.27,2.53c0.06,0.41,0.12,0.81,0.19,1.22c0.07,0.39,0.11,0.91,0.38,1.22
			c0.2,0.22,0.54,0.06,0.62-0.18c0.07-0.2,0.02-0.42,0-0.63c-0.02-0.19-0.05-0.38-0.07-0.57c-0.06-0.41-0.11-0.81-0.17-1.22
			c-0.1-0.79-0.19-1.58-0.26-2.37c-0.02-0.26-0.2-0.47-0.47-0.47C100.41,194.64,100.14,194.86,100.16,195.12L100.16,195.12z"/>
	</g>
</g>
<g>
	<g>
		<path class="st1" d="M100.03,197.65c0.52-0.06,1.03-0.12,1.55-0.18c0.54-0.07,1.07-0.13,1.6-0.27c0.2-0.05,0.35-0.26,0.32-0.47
			c-0.03-0.22-0.2-0.35-0.42-0.36c-1-0.07-2.03,0.07-3.03,0.15c-0.3,0.02-0.6,0.25-0.59,0.57
			C99.47,197.37,99.71,197.68,100.03,197.65L100.03,197.65z"/>
	</g>
</g>
<g>
	<g>
		<path class="st1" d="M104.59,197.6c0.02,0.57,0.08,1.14,0.2,1.7c0.12,0.54,0.29,1.11,0.61,1.57c0.11,0.16,0.31,0.27,0.52,0.21
			c0.18-0.06,0.37-0.24,0.35-0.44c-0.04-0.54-0.18-1.06-0.27-1.59c-0.04-0.25-0.07-0.5-0.1-0.76c0.01,0.12,0-0.04-0.01-0.06
			c-0.01-0.07-0.01-0.15-0.02-0.22c-0.01-0.13-0.02-0.26-0.02-0.39c-0.01-0.33-0.27-0.63-0.62-0.61
			C104.91,196.99,104.58,197.24,104.59,197.6L104.59,197.6z"/>
	</g>
</g>
<g>
	<g>
		<path class="st1" d="M104.82,195.52c0.05,0,0.09,0.01,0.14,0.01c0.02,0,0.05,0,0.07,0.01c0.01,0,0.02,0,0.03,0
			c0.01,0,0.01,0,0.02,0c0.06,0,0.1-0.01,0.15-0.03c0.03-0.01,0.06-0.03,0.08-0.05c0.01-0.01,0.03-0.02,0.04-0.03
			c0,0,0.01-0.01,0.01-0.01c0.01-0.01,0.01-0.01,0.02-0.02c0.03-0.03,0.06-0.07,0.08-0.11c0.02-0.04,0.04-0.08,0.05-0.12
			c0.01-0.04,0.02-0.09,0.02-0.13c0,0.03-0.01,0.06-0.01,0.09c0.01-0.05,0.02-0.1,0.02-0.16c0-0.05-0.01-0.11-0.02-0.16
			c-0.02-0.05-0.04-0.1-0.07-0.14c-0.03-0.04-0.06-0.09-0.1-0.12c-0.04-0.03-0.08-0.07-0.13-0.09c-0.05-0.02-0.1-0.04-0.15-0.05
			c-0.04-0.01-0.09-0.01-0.13-0.01c-0.01,0-0.01,0-0.02,0c-0.09,0.01-0.12,0.01-0.21,0.06c-0.01,0.01-0.02,0.01-0.03,0.02
			c-0.03,0.02-0.07,0.04-0.09,0.07c-0.05,0.04-0.09,0.11-0.1,0.17c-0.02,0.05-0.02,0.09-0.01,0.14c0,0.05,0.02,0.1,0.04,0.14
			c0.02,0.03,0.04,0.05,0.06,0.08c0.05,0.04,0.1,0.08,0.16,0.09c-0.15-0.11-0.21-0.14-0.17-0.1c0,0,0,0,0,0c0,0,0,0,0,0
			c0.05,0.05,0.07,0.06,0.12,0.08c0.05,0.02,0.07,0.03,0.14,0.03c0.03,0,0.07-0.01,0.1-0.01c0,0,0,0,0,0c0,0,0.01,0,0.01,0
			c0.01,0,0.02,0,0.02,0c-0.03,0-0.07,0.01-0.1,0.01c0.04-0.01,0.09-0.01,0.13-0.02c0.01,0,0.03-0.01,0.04-0.01
			c-0.03,0-0.07,0.01-0.1,0.01c0.02,0,0.04,0,0.06,0c-0.03,0-0.06-0.01-0.09-0.01c0.02,0,0.04,0.01,0.06,0.02
			c-0.03-0.01-0.06-0.02-0.09-0.03c0.02,0.01,0.03,0.02,0.05,0.03c-0.02-0.02-0.05-0.04-0.07-0.05c0.01,0.01,0.02,0.01,0.02,0.02
			c-0.02-0.02-0.04-0.05-0.06-0.07c0.01,0.01,0.02,0.03,0.03,0.05c-0.01-0.03-0.02-0.06-0.03-0.09c0.01,0.02,0.01,0.04,0.02,0.06
			c0-0.03-0.01-0.06-0.01-0.09c0,0.02,0,0.04,0,0.07c0-0.03,0.01-0.06,0.01-0.09c0,0.01-0.01,0.03-0.01,0.04
			c0.01-0.03,0.02-0.05,0.04-0.08c-0.01,0.02-0.02,0.04-0.03,0.05c0.02-0.02,0.04-0.05,0.06-0.07c-0.01,0.01-0.02,0.03-0.04,0.04
			c0.03-0.02,0.05-0.04,0.08-0.06c0,0-0.01,0.01-0.01,0.01c0.09-0.01,0.18-0.03,0.27-0.04c-0.09-0.02-0.18-0.04-0.27-0.06
			c-0.07-0.02-0.13-0.02-0.19,0c-0.03,0.01-0.06,0.03-0.1,0.04c-0.06,0.03-0.11,0.08-0.14,0.14c-0.03,0.04-0.04,0.09-0.05,0.14
			c-0.01,0.05-0.01,0.1,0,0.14c0.01,0.05,0.03,0.09,0.07,0.13c0.03,0.04,0.06,0.07,0.11,0.1
			C104.7,195.51,104.76,195.52,104.82,195.52L104.82,195.52z"/>
	</g>
</g>
<g>
	<g>
		<path class="st1" d="M107.94,199.12c0.47,0.19,0.97,0.33,1.47,0.19c0.39-0.11,0.77-0.37,0.95-0.75c0.33-0.71-0.11-1.49-0.81-1.75
			c-0.76-0.28-1.57,0.21-1.9,0.9c-0.41,0.83-0.17,1.73,0.39,2.43c0.31,0.39,0.72,0.7,1.16,0.92c0.26,0.13,0.54,0.24,0.81,0.33
			c0.28,0.1,0.57,0.11,0.86,0.14c0.56,0.06,0.82-0.82,0.31-1.07c-0.34-0.16-0.67-0.29-1.03-0.41c-0.05-0.02-0.18-0.06-0.18-0.06
			c0,0-0.13-0.05-0.17-0.07c-0.17-0.07-0.33-0.15-0.48-0.25c-0.41-0.25-0.79-0.64-0.89-1.16c-0.04-0.18-0.02-0.43,0.08-0.64
			c0.09-0.2,0.25-0.38,0.45-0.47c0.41-0.18,0.92,0.2,0.94,0.62c0.02,0.27-0.26,0.46-0.5,0.51c-0.33,0.08-0.71-0.01-1.02-0.14
			c-0.21-0.08-0.45-0.05-0.58,0.16C107.69,198.74,107.73,199.04,107.94,199.12L107.94,199.12z"/>
	</g>
</g>
<g>
	<g>
		<path class="st1" d="M113.41,196.16c-0.41,0.19-0.83,0.37-1.24,0.57c-0.18,0.08-0.34,0.34-0.32,0.54c0.05,0.48,0.28,0.88,0.64,1.2
			c0.28,0.25,0.61,0.45,0.89,0.7c0.06,0.06,0.11,0.12,0.17,0.18c-0.11-0.11-0.01-0.01,0.01,0.02c0.02,0.04,0.04,0.08,0.06,0.12
			c-0.06-0.09-0.02-0.06,0,0.01c0.02,0.07,0.01,0.1,0.01,0.01c0,0.03,0,0.07,0,0.1c0.01-0.04,0.01-0.04,0,0
			c-0.01,0.03-0.01,0.06-0.02,0.08c0.02-0.04,0.01-0.04-0.02,0.02c-0.06,0.09,0.03-0.02-0.05,0.07c-0.04,0.04-0.08,0.08-0.13,0.12
			c0.08-0.06-0.05,0.03-0.07,0.04c-0.08,0.04-0.1,0.05-0.17,0.08c-0.32,0.1-0.67,0.12-0.95,0.31c-0.37,0.24-0.31,0.75,0.11,0.89
			c0.37,0.13,0.83,0.02,1.19-0.11c0.33-0.13,0.63-0.31,0.86-0.59c0.4-0.49,0.51-1.15,0.18-1.71c-0.22-0.39-0.58-0.65-0.92-0.93
			c-0.16-0.13-0.3-0.26-0.44-0.41c-0.04-0.05-0.04-0.04,0.02,0.03c-0.02-0.02-0.03-0.04-0.05-0.07c-0.02-0.03-0.04-0.07-0.06-0.1
			c-0.03-0.06-0.02-0.05,0.01,0.04c-0.01-0.02-0.01-0.05-0.02-0.08c-0.01-0.06-0.01-0.05,0,0.04c0-0.03,0-0.05-0.01-0.08
			c-0.11,0.18-0.21,0.36-0.32,0.54c0.41-0.19,0.82-0.38,1.23-0.58c0.29-0.14,0.41-0.57,0.24-0.84
			C114.06,196.06,113.73,196.02,113.41,196.16L113.41,196.16z"/>
	</g>
</g>
<g>
	<g>
		<path class="st1" d="M122.59,194.76c0,1.13,0,2.26,0.01,3.39c0.01,1.13-0.06,2.29,0.18,3.39c0.11,0.51,0.95,0.51,1.04-0.01
			c0.2-1.12,0.11-2.26,0.09-3.39c-0.02-1.13-0.05-2.26-0.08-3.39C123.82,193.95,122.59,193.98,122.59,194.76L122.59,194.76z"/>
	</g>
</g>
<g>
	<g>
		<path class="st1" d="M123.14,198.86c0.04-0.02,0.08-0.05,0.13-0.07c0.08-0.04-0.02,0,0.06-0.03c0.1-0.04,0.21-0.07,0.32-0.09
			c0.02,0,0.13-0.02,0.07-0.01c0.05-0.01,0.09-0.01,0.14-0.01c0.06,0,0.11,0,0.17,0c0.02,0,0.05,0,0.07,0c0.02,0,0.07,0.01,0.02,0
			c0.09,0.01,0.19,0.03,0.28,0.05c0.05,0.01,0.09,0.03,0.14,0.04c0.01,0,0.08,0.03,0.02,0.01c0.03,0.01,0.06,0.02,0.08,0.04
			c0.08,0.04,0.15,0.08,0.23,0.13c0.06,0.04-0.01-0.02,0.05,0.04c0.04,0.04,0.08,0.08,0.12,0.12c0.05,0.06,0-0.02,0.03,0.05
			c0.02,0.04,0.04,0.07,0.06,0.11c-0.03-0.06,0.01,0.04,0.01,0.06c0.01,0.05,0.01,0.04,0.01,0.1c0,0.02-0.01,0.05-0.02,0.1
			c0,0.01-0.04,0.11-0.02,0.08c-0.02,0.04-0.04,0.09-0.07,0.13c-0.01,0.02-0.03,0.04-0.04,0.06c-0.04,0.07,0.03-0.04-0.02,0.02
			c-0.07,0.08-0.14,0.16-0.22,0.23c-0.04,0.03-0.07,0.06-0.11,0.09c0.02-0.02,0.08-0.06-0.02,0.02c0.02-0.01-0.13,0.1-0.08,0.06
			c0.04-0.03-0.02,0.01-0.02,0.02c-0.02,0.01-0.04,0.03-0.06,0.04c-0.05,0.03-0.09,0.06-0.14,0.09c-0.09,0.06-0.18,0.11-0.28,0.16
			c-0.05,0.03-0.1,0.05-0.15,0.08c-0.02,0.01-0.04,0.02-0.07,0.03c-0.02,0.01-0.12,0.05-0.03,0.01c-0.11,0.04-0.21,0.08-0.32,0.12
			c-0.25,0.08-0.5,0.14-0.75,0.26c-0.33,0.16-0.23,0.62,0.09,0.72c0.55,0.17,1.18-0.06,1.67-0.31c0.49-0.25,0.95-0.66,1.23-1.14
			c0.29-0.49,0.4-1.09,0.11-1.61c-0.26-0.47-0.77-0.76-1.28-0.88c-0.62-0.14-1.29-0.03-1.85,0.29c-0.2,0.12-0.31,0.41-0.18,0.62
			C122.65,198.91,122.92,198.98,123.14,198.86L123.14,198.86z"/>
	</g>
</g>
<g>
	<g>
		<path class="st1" d="M126.12,198.71c0.13,0.38,0.29,0.74,0.52,1.07c0.12,0.17,0.24,0.34,0.39,0.49c0.15,0.15,0.31,0.28,0.48,0.41
			c0.14,0.1,0.38,0.04,0.49-0.07c0.12-0.13,0.16-0.32,0.07-0.48c-0.32-0.53-0.65-1.06-0.88-1.63c0.02,0.04,0.03,0.09,0.05,0.13
			c-0.03-0.07-0.05-0.13-0.08-0.2c-0.05-0.13-0.12-0.25-0.25-0.32c-0.11-0.06-0.27-0.08-0.4-0.05
			C126.26,198.14,126.02,198.43,126.12,198.71L126.12,198.71z"/>
	</g>
</g>
<g>
	<g>
		<path class="st1" d="M128.16,197.65c-0.3,1.33-0.57,2.69-0.66,4.06c-0.08,1.34-0.04,2.79,0.6,4c0.33,0.63,1.19,0.15,1.1-0.46
			c-0.17-1.24-0.36-2.43-0.31-3.7c0.05-1.27,0.24-2.52,0.41-3.77C129.39,197.13,128.3,197.03,128.16,197.65L128.16,197.65z"/>
	</g>
</g>
<g>
	<g>
		<path class="st1" d="M138.47,197.09c-0.46,0.66-0.91,1.48-0.69,2.31c0.2,0.74,0.89,1.36,1.69,1.2c0.73-0.14,1.2-0.87,1.26-1.57
			c0.08-0.85-0.48-1.59-0.98-2.22c-0.34-0.42-0.68-0.84-1.03-1.26c-0.18-0.22-0.36-0.44-0.56-0.64c-0.21-0.21-0.38-0.43-0.67-0.52
			c-0.33-0.1-0.57,0.23-0.53,0.52c0.03,0.25,0.22,0.45,0.37,0.64c0.15,0.21,0.32,0.41,0.49,0.61c0.3,0.35,0.6,0.7,0.9,1.05
			c0.43,0.5,1.15,1.17,1.04,1.9c-0.03,0.21-0.14,0.47-0.34,0.58c-0.22,0.11-0.44-0.04-0.57-0.22c-0.46-0.63,0.04-1.42,0.4-1.96
			c0.13-0.2,0.04-0.49-0.16-0.6C138.86,196.79,138.61,196.9,138.47,197.09L138.47,197.09z"/>
	</g>
</g>
<g>
	<g>
		<path class="st1" d="M141.6,199.26c0.55,0.18,1.11,0.34,1.7,0.26c0.48-0.07,0.93-0.33,1.2-0.75c0.27-0.41,0.26-0.95-0.03-1.35
			c-0.27-0.38-0.7-0.62-1.16-0.68c-0.45-0.06-0.93,0.01-1.31,0.27c-0.35,0.25-0.6,0.6-0.73,1.01c-0.25,0.84,0.03,1.8,0.72,2.35
			c0.9,0.73,2.16,0.76,3.18,0.24c0.41-0.21,0.14-0.84-0.29-0.72c-0.09,0.03-0.19,0.05-0.28,0.06c-0.1,0.02-0.12,0.02-0.24,0.04
			c-0.15,0.02,0.08,0-0.07,0.01c-0.04,0-0.08,0.01-0.12,0.01c-0.1,0.01-0.21,0.01-0.31,0c-0.04,0-0.08,0-0.12-0.01
			c-0.02,0-0.12-0.01-0.04,0c-0.09-0.01-0.17-0.02-0.26-0.04c-0.09-0.02-0.17-0.04-0.25-0.07c-0.01,0-0.15-0.05-0.06-0.02
			c-0.04-0.02-0.08-0.03-0.12-0.05c0.05,0.02,0.04,0.02-0.01-0.01c-0.08-0.04-0.16-0.07-0.23-0.12c-0.03-0.02-0.07-0.04-0.1-0.06
			c-0.12-0.08,0.06,0.06-0.05-0.04c-0.06-0.05-0.11-0.1-0.16-0.15c-0.03-0.03-0.06-0.06-0.08-0.09c0.07,0.09-0.02-0.03-0.03-0.05
			c-0.04-0.06-0.08-0.13-0.11-0.2c-0.02-0.04-0.03-0.08-0.05-0.11c-0.01-0.02-0.03-0.08,0,0c-0.03-0.08-0.05-0.16-0.07-0.24
			c-0.01-0.03-0.01-0.05-0.02-0.08c0-0.02-0.02-0.17-0.02-0.09c-0.01-0.07-0.01-0.14-0.01-0.21c0-0.04,0-0.08,0.01-0.12
			c0,0,0.02-0.13,0.01-0.06c0.02-0.15,0.06-0.27,0.11-0.36c0.13-0.24,0.35-0.43,0.65-0.51c0.3-0.08,0.64-0.02,0.89,0.16
			c0.24,0.17,0.44,0.47,0.35,0.78c-0.1,0.32-0.44,0.54-0.76,0.59c-0.51,0.09-1.04-0.1-1.51-0.25
			C141.37,198.47,141.17,199.12,141.6,199.26L141.6,199.26z"/>
	</g>
</g>
<g>
	<g>
		<path class="st1" d="M148.12,195.51c-0.36-0.48-0.94-0.6-1.49-0.37c-0.59,0.25-0.86,0.84-0.91,1.45
			c-0.03,0.29,0.01,0.58,0.05,0.87c0.03,0.3,0.07,0.6,0.14,0.89c0.14,0.63,0.34,1.24,0.64,1.82c0.25,0.48,0.95,0.13,0.87-0.36
			c-0.16-0.9-0.37-1.79-0.47-2.69c-0.02-0.19-0.03-0.38-0.02-0.56c0.01-0.1,0.01-0.09,0.04-0.2c0.04-0.16-0.02,0.01,0.03-0.07
			c0.01-0.01,0.07-0.12,0.03-0.06c-0.05,0.06,0.04-0.04,0.05-0.05c-0.06,0.06-0.03,0,0,0.01c0.01-0.01,0.03-0.02,0.04-0.02
			c-0.06,0.02-0.07,0.02-0.03,0.01c0.03-0.01,0.06-0.02,0.1-0.03c0.03-0.01,0.03-0.01,0,0c-0.04,0.01-0.03,0.01,0.02,0
			c-0.02,0-0.03-0.01-0.05-0.01c0.02,0,0.03,0.01,0.05,0.01c-0.01-0.01-0.03-0.01-0.04-0.02c0.01,0.01,0.03,0.01,0.04,0.02
			c-0.04-0.04-0.05-0.04-0.02-0.01c0.02,0.02,0.03,0.03,0.05,0.05c0.18,0.21,0.53,0.18,0.72,0.03
			C148.15,196.06,148.28,195.74,148.12,195.51L148.12,195.51z"/>
	</g>
</g>
<g>
	<g>
		<path class="st1" d="M145.86,198.93c0.47-0.06,0.93-0.14,1.38-0.25c0.45-0.11,0.89-0.28,1.3-0.51c0.2-0.11,0.28-0.36,0.2-0.56
			c-0.09-0.22-0.31-0.29-0.53-0.26c-0.83,0.13-1.64,0.36-2.47,0.48c-0.13,0.02-0.3,0.16-0.36,0.27c-0.06,0.11-0.08,0.22-0.07,0.35
			C145.34,198.7,145.58,198.97,145.86,198.93L145.86,198.93z"/>
	</g>
</g>
<g>
	<g>
		<path class="st1" d="M149.28,198.96c-0.03,0.59,0.06,1.19,0.38,1.7c0.13,0.2,0.37,0.28,0.59,0.19c0.1-0.04,0.19-0.11,0.24-0.2
			c0.06-0.12,0.07-0.22,0.05-0.35c0-0.02,0-0.04-0.01-0.05c0,0.04,0.01,0.08,0.01,0.12c-0.02-0.18-0.04-0.36-0.06-0.53
			c0.01,0.05,0.01,0.09,0.02,0.14c-0.04-0.34-0.05-0.68-0.02-1.02c0.02-0.15-0.07-0.33-0.17-0.42c-0.1-0.1-0.27-0.17-0.42-0.17
			C149.56,198.38,149.29,198.63,149.28,198.96L149.28,198.96z"/>
	</g>
</g>
<g>
	<g>
		<path class="st1" d="M150.27,197.18c0.04-0.05,0.08-0.1,0.12-0.15c0.02-0.02,0.03-0.05,0.04-0.07c0.02-0.04,0.04-0.08,0.05-0.13
			c0.01-0.04,0.02-0.1,0.02-0.14c0-0.01,0-0.03,0-0.04c0-0.04-0.01-0.08-0.01-0.12c0-0.01,0-0.01,0-0.02
			c-0.01-0.04-0.03-0.08-0.05-0.12c0,0,0-0.01-0.01-0.01c-0.01-0.02-0.03-0.04-0.03-0.04c-0.01-0.01-0.02-0.03-0.04-0.05
			c-0.01-0.01-0.01-0.01-0.02-0.02c-0.02-0.02-0.07-0.05-0.1-0.07c-0.04-0.02-0.07-0.03-0.11-0.04c0,0-0.01,0-0.01,0c0,0,0,0-0.01,0
			s0,0-0.01,0c-0.03,0-0.07-0.01-0.1-0.01c-0.02,0-0.08,0.01-0.11,0.01c0,0,0,0,0,0c0,0-0.01,0-0.01,0
			c-0.02,0.01-0.05,0.02-0.07,0.03c-0.02,0.01-0.05,0.02-0.07,0.03c-0.03,0.02-0.07,0.05-0.1,0.08c-0.03,0.03-0.05,0.06-0.07,0.09
			c-0.02,0.03-0.03,0.06-0.04,0.09c0,0,0,0,0,0.01c0,0.03-0.01,0.06-0.01,0.09c0,0.03,0,0.06,0.01,0.09
			c0.01,0.05,0.03,0.09,0.06,0.12c0.03,0.04,0.06,0.07,0.1,0.09c0.03,0.01,0.06,0.02,0.08,0.03c0.06,0.02,0.12,0.01,0.18,0
			c0.08-0.02,0.11-0.05,0.17-0.1c-0.03,0.02-0.05,0.04-0.08,0.06c0,0,0.01-0.01,0.01-0.01c-0.03,0.01-0.06,0.03-0.09,0.04
			c0.01,0,0.01,0,0.02,0c-0.03,0-0.06,0.01-0.1,0.01c0.01,0,0.01,0,0.02,0c-0.03,0-0.06-0.01-0.1-0.01c0.01,0,0.02,0,0.03,0.01
			c-0.03-0.01-0.06-0.02-0.09-0.04c0,0,0.01,0,0.01,0c0.02,0.01,0.03,0.01,0.06,0.02c0.02,0.01,0.05,0.02,0.07,0.03
			c-0.03-0.01-0.06-0.02-0.09-0.04c0.01,0,0.02,0.01,0.03,0.02c-0.03-0.02-0.05-0.04-0.08-0.06c0.01,0.01,0.02,0.01,0.02,0.02
			c-0.02-0.03-0.04-0.06-0.06-0.08c0.01,0.01,0.01,0.01,0.01,0.02c-0.01-0.03-0.03-0.07-0.04-0.1c0,0.01,0.01,0.02,0.01,0.03
			c0-0.03-0.01-0.07-0.01-0.1c0,0.02,0,0.03,0,0.05c0.01-0.03,0.01-0.07,0.02-0.1c0,0.02-0.01,0.04-0.02,0.06
			c0.01-0.03,0.03-0.06,0.04-0.1c-0.01,0.03-0.03,0.06-0.05,0.09c0.02-0.03,0.04-0.06,0.07-0.08c-0.02,0.02-0.04,0.04-0.05,0.06
			c-0.04,0.04-0.07,0.08-0.09,0.13c-0.02,0.05-0.04,0.1-0.04,0.15c0,0.05,0.01,0.11,0.03,0.15c0.02,0.05,0.04,0.1,0.09,0.13
			c0.03,0.02,0.06,0.04,0.08,0.06c0.06,0.03,0.13,0.05,0.2,0.05c0.04,0,0.07-0.01,0.11-0.01
			C150.15,197.27,150.22,197.24,150.27,197.18L150.27,197.18z"/>
	</g>
</g>
<g>
	<g>
		<path class="st1" d="M152.15,200.02c-0.07-0.24-0.14-0.49-0.14-0.74c0-0.09,0.02-0.16,0.05-0.25c-0.02,0.06,0.04-0.07,0.04-0.08
			c0.01-0.02,0.03-0.04,0.04-0.06c-0.02,0.03-0.02,0.03,0.01-0.01c0.01-0.01,0.11-0.09,0.07-0.07c-0.06,0.04,0.13-0.06,0.01-0.01
			c0.02-0.01,0.16-0.04,0.07-0.02c0.05-0.01,0.06,0,0.12,0.02c0.05,0.02,0.13,0.07,0.17,0.1c0.08,0.06,0.15,0.14,0.21,0.21
			c-0.07-0.09,0.02,0.04,0.03,0.06c0.03,0.04,0.05,0.08,0.07,0.13c0.02,0.03,0.03,0.07,0.05,0.1c0.02,0.05,0.02,0.05,0-0.01
			c0.01,0.02,0.02,0.05,0.03,0.07c0.06,0.18,0.1,0.37,0.13,0.56c0,0.02,0.03,0.19,0.01,0.07c0.01,0.05,0.01,0.11,0.02,0.16
			c-0.01-0.06-0.01-0.06,0-0.01c0.01,0.09,0.02,0.19,0.02,0.28c0.01,0.23,0.05,0.46,0.1,0.69c0.09,0.4,0.68,0.37,0.78-0.01
			c0.2-0.77,0.1-1.71-0.34-2.39c-0.24-0.38-0.62-0.72-1.07-0.82c-0.49-0.11-0.97,0.14-1.21,0.58c-0.29,0.51-0.19,1.11-0.05,1.65
			C151.48,200.73,152.28,200.5,152.15,200.02L152.15,200.02z"/>
	</g>
</g>
<g>
	<g>
		<path class="st1" d="M154.65,199.34c0.05,0.21,0.09,0.43,0.15,0.63c0.03,0.1,0.06,0.21,0.09,0.31c0.04,0.15,0.12,0.27,0.19,0.41
			c0.1,0.19,0.33,0.28,0.54,0.25c0.1-0.01,0.19-0.05,0.27-0.11c0.09-0.07,0.18-0.17,0.2-0.29c0.03-0.14,0.07-0.29,0.07-0.44
			c0-0.11,0-0.22-0.01-0.32c-0.01-0.22-0.04-0.43-0.05-0.65c0-0.13-0.03-0.25-0.09-0.36c-0.04-0.05-0.08-0.1-0.12-0.15
			c-0.15-0.16-0.39-0.22-0.6-0.19c-0.2,0.03-0.37,0.12-0.49,0.28C154.65,198.91,154.6,199.12,154.65,199.34L154.65,199.34z"/>
	</g>
</g>
<g>
	<g>
		<path class="st1" d="M154.47,196.9c0.01,0.02,0.02,0.04,0.02,0.06c0-0.04-0.01-0.08-0.01-0.11
			C154.48,196.86,154.48,196.88,154.47,196.9c0.01,0.1,0.02,0.19,0.07,0.28c0.04,0.07,0.1,0.12,0.15,0.18
			c0.03,0.03,0.05,0.05,0.08,0.08c0.07,0.07,0.14,0.1,0.22,0.13c0.01,0,0.03,0.01,0.04,0.01c0.05,0.01,0.1,0.02,0.15,0
			c0.05,0,0.1-0.02,0.15-0.05c0.03-0.02,0.06-0.04,0.08-0.06c0.05-0.05,0.08-0.11,0.1-0.17c0-0.01,0-0.03,0.01-0.04
			c0.01-0.04,0.02-0.09,0.02-0.13c0-0.04-0.01-0.08-0.01-0.11c0-0.01,0-0.01,0-0.02c-0.01-0.04-0.02-0.07-0.03-0.11
			c-0.02-0.07-0.04-0.16-0.08-0.22c-0.03-0.06-0.08-0.11-0.13-0.14c-0.02-0.02-0.04-0.03-0.06-0.04c-0.01,0-0.02-0.01-0.03-0.01
			c-0.01-0.01-0.03-0.02-0.04-0.02c0.03,0.02,0.06,0.05,0.09,0.07c-0.02-0.01-0.03-0.03-0.04-0.05c-0.03-0.02-0.06-0.04-0.09-0.07
			c-0.05-0.03-0.1-0.05-0.16-0.05c-0.04-0.01-0.08-0.01-0.11,0c-0.06,0-0.12,0.02-0.17,0.05c-0.03,0.02-0.06,0.05-0.09,0.07
			c-0.02,0.03-0.05,0.06-0.07,0.09c-0.03,0.05-0.05,0.1-0.05,0.16C154.46,196.79,154.46,196.85,154.47,196.9L154.47,196.9z"/>
	</g>
</g>
<g>
	<g>
		<path class="st1" d="M158.08,196.13c0,0.75,0.01,1.5,0.04,2.25c0.03,0.75,0.05,1.53,0.24,2.26c0.12,0.46,0.76,0.32,0.8-0.11
			c0.07-0.73-0.01-1.47-0.04-2.2c-0.03-0.73-0.04-1.47-0.04-2.2C159.09,195.47,158.09,195.5,158.08,196.13L158.08,196.13z"/>
	</g>
</g>
<g>
	<g>
		<path class="st1" d="M157.79,198.28c0.82,0,1.64,0.02,2.45-0.13c0.36-0.07,0.38-0.64,0.01-0.71c-0.8-0.16-1.63-0.13-2.44-0.13
			c-0.26,0-0.52,0.23-0.51,0.5C157.31,198.06,157.52,198.28,157.79,198.28L157.79,198.28z"/>
	</g>
</g>
<g>
	<g>
		<path class="st1" d="M161.04,198.87c0.02,0.37,0.04,0.73,0.08,1.1c0.04,0.39,0.06,0.79,0.19,1.16c0.06,0.17,0.21,0.32,0.41,0.31
			c0.18-0.01,0.38-0.13,0.42-0.32c0.09-0.38,0.08-0.77,0.09-1.16c0-0.37-0.02-0.73-0.03-1.1c-0.01-0.3-0.25-0.57-0.56-0.56
			C161.33,198.31,161.02,198.55,161.04,198.87L161.04,198.87z"/>
	</g>
</g>
<g>
	<g>
		<path class="st1" d="M161.22,196.71c0.03,0.13,0.12,0.25,0.24,0.31c0.04,0.02,0.09,0.04,0.14,0.05c0.1,0.02,0.16,0.02,0.26,0
			c0.05-0.01,0.1-0.03,0.14-0.06c0.02-0.01,0.05-0.04,0.06-0.04c0.01,0,0.04-0.03,0.05-0.04c0,0,0,0,0.01-0.01
			c0.02-0.03,0.05-0.06,0.07-0.09c0,0,0-0.01,0.01-0.01c0.06-0.1,0.07-0.22,0.05-0.33c-0.01-0.03-0.04-0.09-0.05-0.13
			c-0.01-0.02-0.02-0.04-0.03-0.06c-0.02-0.04-0.04-0.07-0.06-0.11c-0.03-0.04-0.07-0.1-0.11-0.13c-0.04-0.03-0.07-0.06-0.11-0.08
			c-0.01-0.01-0.02-0.01-0.03-0.02c-0.01,0-0.02-0.01-0.03-0.01c-0.04-0.02-0.08-0.04-0.13-0.05c-0.03-0.01-0.06-0.01-0.08-0.01
			c-0.07-0.01-0.13-0.01-0.2,0.01c-0.11,0.04-0.2,0.08-0.28,0.17c-0.03,0.03-0.06,0.07-0.08,0.1c0,0.01-0.01,0.01-0.01,0.02
			c-0.02,0.04-0.04,0.08-0.05,0.11c0,0.01,0,0.02-0.01,0.02c-0.01,0.03-0.01,0.07-0.02,0.1c0,0,0,0.01,0,0.01
			c0,0.03,0.01,0.07,0.01,0.1c0.01,0.04,0.03,0.07,0.04,0.11c0.02,0.04,0.05,0.08,0.08,0.11c0.04,0.04,0.09,0.07,0.15,0.08
			c0.04,0.01,0.09,0.01,0.13,0c0.05,0,0.09-0.02,0.13-0.04c0.05-0.03,0.1-0.07,0.13-0.13c0-0.01,0.01-0.02,0.01-0.02
			c-0.02,0.03-0.04,0.05-0.06,0.08c0.01-0.01,0.01-0.01,0.02-0.02c-0.03,0.02-0.05,0.04-0.08,0.06c0.04-0.02,0.07-0.05,0.1-0.08
			c-0.03,0.02-0.06,0.04-0.08,0.06c0.01-0.01,0.02-0.01,0.03-0.02c-0.03,0.01-0.07,0.03-0.1,0.04c0.01,0,0.03-0.01,0.04-0.01
			c-0.04,0.01-0.07,0.01-0.11,0.02c0.02,0,0.03,0,0.05,0c-0.04,0-0.08-0.01-0.11-0.01c0.02,0,0.03,0.01,0.05,0.01
			c-0.04-0.01-0.07-0.03-0.11-0.04c0,0,0.01,0,0.01,0c0.05,0.03,0.11,0.05,0.17,0.05c0.03,0,0.05,0.01,0.08,0.01
			c-0.04,0-0.08-0.01-0.12-0.01c0.01,0,0.03,0.01,0.04,0.01c-0.04-0.01-0.07-0.03-0.11-0.04c0.02,0.01,0.04,0.02,0.07,0.04
			c-0.03-0.02-0.06-0.05-0.1-0.07c0.04,0.03,0.07,0.06,0.1,0.1c-0.02-0.03-0.05-0.06-0.07-0.09c0.03,0.03,0.05,0.07,0.07,0.11
			c-0.01-0.11-0.03-0.22-0.04-0.33c0,0,0,0,0,0c0.01-0.03,0.03-0.07,0.04-0.1c0,0.01-0.01,0.01-0.01,0.02
			c0.02-0.03,0.05-0.06,0.07-0.09c0,0.01-0.01,0.01-0.02,0.02c0.03-0.02,0.06-0.05,0.09-0.07c-0.01,0-0.01,0.01-0.02,0.01
			c0.04-0.02,0.07-0.03,0.11-0.05c-0.01,0-0.02,0.01-0.03,0.01c0.04-0.01,0.08-0.01,0.11-0.02c-0.01,0-0.02,0-0.03,0
			c0.04,0,0.07,0.01,0.11,0.01c-0.01,0-0.02,0-0.03-0.01c0.03,0.01,0.07,0.03,0.1,0.04c-0.01,0-0.01-0.01-0.02-0.01
			c0.03,0.02,0.06,0.04,0.09,0.06c-0.01,0-0.01-0.01-0.02-0.02c0.02,0.03,0.05,0.06,0.07,0.09c0-0.01-0.01-0.01-0.01-0.02
			c-0.03-0.05-0.06-0.09-0.11-0.12c-0.04-0.04-0.09-0.06-0.14-0.07c-0.04,0-0.07-0.01-0.11-0.01c-0.06,0-0.11,0.01-0.16,0.04
			c-0.04,0.01-0.07,0.03-0.1,0.06c-0.05,0.03-0.09,0.07-0.11,0.12C161.22,196.5,161.19,196.6,161.22,196.71L161.22,196.71z"/>
	</g>
</g>
<g>
	<g>
		<path class="st1" d="M164.63,197.92c-0.32,0.17-0.55,0.49-0.65,0.84c-0.1,0.37-0.05,0.74,0.11,1.09c0.28,0.61,1.01,1.09,1.69,1.06
			c0.42-0.02,0.82-0.24,1.01-0.63c0.18-0.38,0.2-0.83,0.11-1.24c-0.17-0.74-0.78-1.3-1.54-1.37c-0.4-0.03-0.79,0.13-1.09,0.4
			c-0.29,0.26-0.5,0.69-0.37,1.09c0.11,0.35,0.61,0.35,0.72-0.01c0.01-0.02,0.04-0.11,0-0.02c0.02-0.04,0.04-0.08,0.05-0.12
			c0.01-0.02,0.01-0.07,0.03-0.08c-0.04,0.04-0.03,0.06-0.01,0.02c0.03-0.04,0.05-0.08,0.08-0.13c0.06-0.09-0.07,0.07,0,0
			c0.02-0.02,0.04-0.04,0.06-0.06c0.03-0.03,0.1-0.06,0,0c0.02-0.01,0.03-0.02,0.05-0.03c0.01-0.01,0.13-0.06,0.13-0.07
			c-0.02,0.01-0.04,0.02-0.06,0.02c0.02-0.01,0.04-0.01,0.06-0.02c0.02-0.01,0.04-0.01,0.06-0.02c0.04-0.01,0.12,0,0-0.01
			c0.03,0,0.06-0.01,0.09-0.01c0.01,0,0.09,0,0.09,0c0,0-0.12-0.02-0.03,0c0.05,0.01,0.1,0.02,0.15,0.04c0.1,0.03-0.1-0.05,0,0
			c0.02,0.01,0.04,0.02,0.06,0.03c0.01,0,0.17,0.09,0.16,0.1c-0.02-0.01-0.03-0.03-0.05-0.04c0.02,0.01,0.03,0.03,0.05,0.04
			c0.02,0.01,0.03,0.03,0.05,0.04c0.04,0.04,0.08,0.07,0.11,0.12c0.01,0.01,0.01,0.02,0.02,0.02c0.03,0.04,0.03,0.03-0.02-0.03
			c0,0,0.04,0.06,0.04,0.05c0.04,0.05,0.06,0.11,0.09,0.17c0.05,0.09-0.02-0.07,0,0c0.01,0.03,0.02,0.06,0.03,0.09
			c0.02,0.06,0.03,0.13,0.04,0.19c0.02,0.12,0-0.06,0,0.01c0,0.03,0,0.06,0,0.1c0,0.03,0,0.06,0,0.1c0,0.02,0,0.04-0.01,0.06
			c0.01-0.06,0.01-0.06,0-0.01c-0.01,0.04-0.02,0.14-0.05,0.17c0.01-0.02,0.01-0.03,0.02-0.05c-0.01,0.02-0.02,0.03-0.02,0.05
			c0,0.01-0.01,0.01-0.01,0.02c-0.03,0.05-0.02,0.04,0.02-0.02c0,0.02-0.05,0.05-0.06,0.06c-0.04,0.05,0.11-0.06,0.02-0.02
			c-0.02,0.01-0.1,0.06-0.02,0.01c0.09-0.06-0.05,0.01-0.05,0.01c0.04-0.03,0.11-0.01,0.04-0.01c-0.03,0-0.06,0-0.09,0
			c-0.09,0,0.03,0,0.04,0.01c-0.01-0.01-0.08-0.01-0.09-0.02c-0.03-0.01-0.13-0.06-0.15-0.05c0.03-0.01,0.1,0.04,0.03,0.01
			c-0.04-0.02-0.08-0.04-0.11-0.06c-0.03-0.02-0.11-0.09-0.14-0.09c0.03,0,0.08,0.07,0.03,0.02c-0.02-0.02-0.05-0.04-0.07-0.06
			c-0.04-0.04-0.08-0.07-0.12-0.11c-0.02-0.02-0.03-0.03-0.05-0.05c-0.01-0.02-0.03-0.03-0.04-0.05c-0.04-0.04-0.03-0.03,0.02,0.03
			c0-0.04-0.08-0.12-0.09-0.15c-0.01-0.01-0.03-0.07-0.04-0.07c0.03,0.08,0.03,0.09,0.01,0.04c0-0.01-0.01-0.02-0.01-0.03
			c-0.01-0.03-0.02-0.06-0.03-0.09c0-0.01-0.01-0.03-0.01-0.04c-0.01-0.04,0-0.02,0,0.05c0.01-0.05,0-0.13,0-0.18
			c0-0.11-0.03,0.11,0,0.01c0.01-0.03,0.01-0.06,0.02-0.09c0.01-0.02,0.02-0.05,0.02-0.07c0.01-0.03,0.01-0.02-0.02,0.05
			c0.01-0.02,0.02-0.04,0.03-0.05c0.01-0.02,0.02-0.03,0.03-0.05c0.03-0.04,0.02-0.03-0.03,0.03c0.01-0.02,0.03-0.03,0.04-0.04
			c0.01-0.01,0.03-0.03,0.04-0.04c0.04-0.03,0.03-0.03-0.04,0.02c0.02-0.01,0.03-0.02,0.05-0.03c0.21-0.13,0.33-0.43,0.19-0.65
			C165.15,197.86,164.87,197.79,164.63,197.92L164.63,197.92z"/>
	</g>
</g>
<g>
	<g>
		<path class="st1" d="M168.45,200.49c0-0.01,0.01-0.01,0.01-0.02c-0.05,0.05-0.11,0.1-0.16,0.16c0,0,0.01,0,0.01,0
			c-0.11,0.02-0.21,0.03-0.32,0.05c0,0,0.01,0,0.01,0c-0.06-0.03-0.12-0.07-0.19-0.1c-0.08-0.09-0.11-0.19-0.08-0.3
			c0.04-0.06,0.07-0.12,0.11-0.19c0,0-0.01,0.01-0.01,0.01c0.07-0.04,0.13-0.08,0.2-0.11c0.02,0,0.04-0.01,0.06-0.01
			c0.07,0.02,0.14,0.03,0.21,0.05c0.05,0.03,0.09,0.08,0.1,0.14c-0.01-0.02-0.01-0.04-0.02-0.06c-0.01-0.07-0.02-0.14-0.03-0.21
			c-0.02-0.12-0.03-0.24-0.04-0.36c-0.01-0.12-0.02-0.23-0.02-0.35c0-0.1,0-0.26,0.01-0.32c0.02-0.12,0.04-0.2,0.09-0.28
			c0-0.01,0.08-0.1,0.02-0.04c0.03-0.04,0.07-0.08,0.11-0.11c-0.07,0.06,0.05-0.02,0.07-0.03c-0.05,0.02-0.05,0.02,0,0.01
			c-0.05,0-0.05,0.01,0,0c0.05,0,0.05,0,0.01,0c0.03,0.01,0.06,0.01,0.08,0.02c-0.06-0.02,0.06,0.04,0.07,0.04
			c0.04,0.03,0.09,0.05,0.13,0.08c-0.07-0.05,0.06,0.05,0.07,0.06c0.08,0.07,0.17,0.14,0.24,0.22c0.07,0.07,0.13,0.14,0.2,0.21
			c0.01,0.02,0.12,0.16,0.05,0.06c0.03,0.04,0.06,0.09,0.1,0.13c0.24,0.35,0.43,0.72,0.63,1.09c0.18,0.34,0.78,0.18,0.76-0.21
			c-0.03-0.58-0.29-1.11-0.66-1.55c-0.15-0.18-0.33-0.35-0.52-0.5c-0.24-0.18-0.48-0.36-0.77-0.45c-0.63-0.21-1.23,0.24-1.43,0.82
			c-0.1,0.28-0.1,0.59-0.09,0.89c0.02,0.32,0.04,0.64,0.09,0.96c0.03,0.19,0.12,0.36,0.29,0.45c0.24,0.13,0.56,0.04,0.67-0.22
			c0.08-0.18,0.05-0.4-0.1-0.55c-0.22-0.22-0.55-0.13-0.71,0.11c-0.12,0.18-0.05,0.47,0.15,0.57
			C168.08,200.76,168.32,200.69,168.45,200.49L168.45,200.49z"/>
	</g>
</g>
<g>
	<g>
		<path class="st1" d="M139.25,203.52c8.59,0.03,17.18,0,25.77-0.36c2.44-0.1,4.91-0.16,7.34-0.42c0.41-0.04,0.46-0.65,0.01-0.66
			c-2.15-0.03-4.31,0.09-6.47,0.15c-2.16,0.06-4.31,0.13-6.47,0.19c-4.27,0.12-8.55,0.28-12.82,0.34c-2.45,0.03-4.9,0.06-7.35,0.07
			C138.81,202.83,138.79,203.52,139.25,203.52L139.25,203.52z"/>
	</g>
</g>
<g>
	<g>
		<path class="st1" d="M123.25,203.89c2.74,0.12,5.51,0.26,8.25,0.09c0.4-0.02,0.43-0.61,0.01-0.63c-2.75-0.1-5.5-0.02-8.25-0.07
			C122.88,203.28,122.86,203.87,123.25,203.89L123.25,203.89z"/>
	</g>
</g>
<g>
	<g>
		<path class="st1" d="M173.74,195.25c0.18,0.88,0.36,1.76,0.54,2.64c0.18,0.88,0.38,1.79,0.72,2.62c0.2,0.47,0.98,0.2,0.96-0.26
			c-0.03-0.9-0.24-1.81-0.44-2.69c-0.2-0.87-0.4-1.75-0.6-2.62C174.75,194.18,173.59,194.51,173.74,195.25L173.74,195.25z"/>
	</g>
</g>
<g>
	<g>
		<path class="st1" d="M196.23,204.55c0.16,0.01,0.33-0.07,0.44-0.18c0.09-0.09,0.16-0.21,0.19-0.33c0.01-0.06,0.03-0.12,0.02-0.19
			c-0.01-0.1-0.02-0.17-0.06-0.26c-0.01-0.02-0.02-0.03-0.03-0.04c-0.03-0.04-0.05-0.08-0.09-0.1c-0.05-0.04-0.07-0.06-0.12-0.08
			c-0.07-0.03-0.14-0.03-0.22-0.01c-0.02,0-0.05,0.01-0.07,0.02c-0.11,0.04-0.2,0.09-0.28,0.17c-0.08,0.08-0.13,0.17-0.17,0.28
			c0.01-0.03,0.02-0.05,0.04-0.08c-0.05,0.1-0.08,0.18-0.08,0.29c0,0,0,0.01,0,0.01c0,0.06,0.01,0.14,0.05,0.19
			c0.02,0.03,0.05,0.07,0.08,0.1c0.04,0.04,0.08,0.07,0.13,0.1c-0.03-0.02-0.05-0.04-0.08-0.06c0.03,0.03,0.07,0.06,0.11,0.07
			c0.04,0.02,0.08,0.03,0.12,0.05c0.02,0.01,0.05,0.01,0.07,0.02c0.05,0.01,0.11,0.02,0.17,0.01c0.06-0.01,0.12-0.01,0.17-0.03
			c0.06-0.02,0.11-0.04,0.16-0.06c0.02-0.01,0.04-0.02,0.06-0.04c0.1-0.07,0.17-0.14,0.24-0.24c0.07-0.11,0.07-0.27,0-0.39
			c-0.07-0.12-0.2-0.19-0.34-0.19c-0.09,0-0.17-0.01-0.26-0.02c-0.04,0-0.08-0.01-0.12-0.01c-0.08,0-0.18,0.01-0.25,0.06
			c-0.02,0.01-0.03,0.02-0.05,0.03c-0.06,0.03-0.1,0.08-0.13,0.13c-0.03,0.04-0.04,0.08-0.04,0.13c-0.01,0.04-0.01,0.09,0,0.14
			c0.02,0.06,0.05,0.12,0.09,0.16c0.01,0.01,0.02,0.02,0.04,0.03c0.04,0.04,0.08,0.06,0.13,0.08c0.02,0.01,0.04,0.02,0.06,0.02
			c0.04,0.01,0.08,0.01,0.12,0.01c0.04,0,0.08,0,0.13,0c0.09,0,0.17-0.01,0.26,0c-0.09-0.22-0.18-0.44-0.27-0.66
			c-0.02,0.02-0.04,0.04-0.06,0.06c0.03-0.02,0.06-0.04,0.09-0.07c-0.03,0.02-0.06,0.04-0.09,0.05c0.03-0.01,0.07-0.03,0.1-0.04
			c-0.03,0.01-0.07,0.02-0.1,0.03c0.03,0,0.07-0.01,0.1-0.01c-0.05,0.01-0.1,0.01-0.15,0c0.03,0,0.07,0.01,0.1,0.01
			c-0.05-0.01-0.09-0.02-0.14-0.04c0.03,0.01,0.06,0.02,0.09,0.04c-0.01,0-0.02-0.01-0.03-0.02c0.05,0.05,0.09,0.09,0.14,0.14
			c0,0,0,0,0-0.01c0.01,0.03,0.02,0.06,0.04,0.09c-0.01-0.02-0.01-0.05-0.02-0.07c0,0.03,0.01,0.06,0.01,0.09c0-0.02,0-0.04,0-0.06
			c0,0.03-0.01,0.06-0.01,0.09c0-0.02,0.01-0.05,0.02-0.07c-0.01,0.03-0.02,0.05-0.03,0.08c0.01-0.03,0.03-0.05,0.05-0.08
			c-0.02,0.02-0.04,0.05-0.05,0.07c0.02-0.02,0.04-0.04,0.06-0.06c-0.02,0.02-0.05,0.04-0.07,0.05c0.02-0.01,0.04-0.03,0.06-0.04
			c-0.03,0.01-0.05,0.02-0.08,0.03c0.01,0,0.03-0.01,0.04-0.01c-0.03,0-0.06,0.01-0.08,0.01c0,0,0.01,0,0.01,0
			c-0.08-0.03-0.15-0.06-0.23-0.09c0.01,0.01,0.03,0.03,0.04,0.04c-0.02-0.02-0.04-0.05-0.05-0.07c0.01,0.01,0.02,0.03,0.03,0.05
			c-0.01-0.03-0.02-0.05-0.03-0.08c0.01,0.02,0.01,0.04,0.02,0.07c0-0.03-0.01-0.06-0.01-0.08c0,0.03,0,0.05,0,0.08
			c0-0.03,0.01-0.06,0.01-0.08c0,0.03-0.01,0.06-0.03,0.09c0.01-0.03,0.02-0.05,0.03-0.08c-0.01,0.03-0.03,0.05-0.05,0.08
			c0.02-0.02,0.04-0.05,0.05-0.07c-0.01,0.01-0.03,0.03-0.04,0.04c0.03-0.02,0.05-0.04,0.08-0.06c-0.02,0.01-0.04,0.03-0.06,0.04
			c0.03-0.01,0.06-0.02,0.09-0.04c-0.02,0.01-0.04,0.01-0.06,0.02c0.03,0,0.06-0.01,0.09-0.01c-0.02,0-0.04,0-0.05,0
			c0.03,0,0.06,0.01,0.09,0.01c-0.01,0-0.03,0-0.04-0.01c-0.1-0.03-0.2,0-0.29,0.04c-0.06,0.03-0.11,0.08-0.14,0.14
			c-0.03,0.04-0.04,0.09-0.05,0.14c-0.01,0.05-0.01,0.09,0,0.14c0.01,0.05,0.03,0.09,0.07,0.13c0.03,0.04,0.06,0.07,0.11,0.1
			C196.1,204.53,196.16,204.55,196.23,204.55L196.23,204.55z"/>
	</g>
</g>
<g>
	<g>
		<path class="st1" d="M163.22,94.36c1.34,0.18,2.69,0.37,4.04,0.43c0.66,0.03,1.32,0.07,1.98,0.06c0.65-0.01,1.49,0.1,2.07-0.22
			c0.4-0.22,0.27-0.73-0.1-0.87c-0.3-0.11-0.64-0.06-0.96-0.04c-0.33,0.03-0.66,0.05-0.99,0.07c-0.64,0.03-1.27,0.07-1.91,0.07
			c-1.32,0-2.63-0.02-3.94-0.18C162.98,93.63,162.76,94.3,163.22,94.36L163.22,94.36z"/>
	</g>
</g>
<g>
	<g>
		<path class="st1" d="M171.47,93.08c0.17,0,0.18-0.26,0.01-0.26C171.31,92.82,171.3,93.08,171.47,93.08L171.47,93.08z"/>
	</g>
</g>
<g>
	<g>
		<path class="st0" d="M91.39,152.33c0.88-2.17,1.85-4.3,3.02-6.33c-0.12,0.07-0.25,0.14-0.37,0.22c0.25,0,0.35,1.46,0.38,1.64
			c0.1,0.73,0.18,1.46,0.22,2.2c0.09,1.43,0.05,2.86,0.08,4.29c0.01,0.54,0.85,0.67,0.96,0.11c0.34-1.73,0.27-3.54,0.05-5.29
			c-0.11-0.85-0.25-1.71-0.47-2.54c-0.16-0.6-0.48-1.28-1.21-1.24c-0.14,0.01-0.31,0.08-0.37,0.22c-1.03,2.17-2.07,4.34-3,6.55
			C90.49,152.59,91.21,152.75,91.39,152.33L91.39,152.33z"/>
	</g>
</g>
<g>
	<g>
		<path class="st0" d="M92.79,151.41c0.29,0.08,0.59,0.15,0.88,0.23c0.29,0.08,0.59,0.13,0.89,0.19c0.24,0.05,0.47-0.06,0.57-0.29
			c0.08-0.2,0.03-0.49-0.19-0.58c-0.31-0.13-0.63-0.26-0.95-0.37c-0.29-0.1-0.59-0.2-0.88-0.3c-0.14-0.05-0.33,0-0.45,0.06
			c-0.13,0.07-0.25,0.21-0.28,0.36C92.31,151.01,92.47,151.32,92.79,151.41L92.79,151.41z"/>
	</g>
</g>
<g>
	<g>
		<path class="st0" d="M148.43,153c0.54-2.37,1.33-4.66,2.36-6.86c-0.23,0-0.46,0.01-0.69,0.01c0.79,1.31,1.4,2.76,1.89,4.21
			c0.25,0.72,0.46,1.46,0.65,2.2c0.19,0.74,0.32,1.49,0.64,2.19c0.22,0.49,0.96,0.2,0.97-0.27c0.03-0.81-0.22-1.62-0.47-2.39
			c-0.23-0.73-0.5-1.44-0.8-2.15c-0.61-1.47-1.39-2.83-2.19-4.2c-0.14-0.24-0.56-0.26-0.69,0.01c-1.09,2.24-1.96,4.6-2.58,7.01
			C147.37,153.37,148.29,153.58,148.43,153L148.43,153z"/>
	</g>
</g>
<g>
	<g>
		<path class="st0" d="M149.83,151.83c0.28-0.02,0.55-0.04,0.83-0.05c0.33-0.02,0.65-0.08,0.97-0.14c0.06-0.02,0.11-0.05,0.17-0.07
			c0.08-0.04,0.15-0.1,0.2-0.18c0.09-0.11,0.15-0.25,0.15-0.4c0-0.12-0.03-0.23-0.09-0.33c-0.07-0.14-0.25-0.28-0.4-0.3
			c-0.32-0.06-0.64-0.12-0.96-0.14c-0.28-0.02-0.55-0.04-0.83-0.05c-0.21-0.01-0.47,0.11-0.61,0.26c-0.14,0.14-0.26,0.38-0.25,0.58
			c0.01,0.22,0.08,0.44,0.24,0.59C149.4,151.74,149.61,151.84,149.83,151.83L149.83,151.83z"/>
	</g>
</g>
<g>
	<g>
		<path class="st1" d="M158.04,147.52c5.58-6.47,13.33-10.57,21.2-13.61c4.48-1.73,9.06-3.19,13.6-4.75
			c4.05-1.39,8.16-2.81,11.92-4.89c3.34-1.84,6.46-4.33,8.35-7.7c2.13-3.81,2.65-8.31,2.87-12.6c0.41-8.21-1.19-17.23-7.84-22.75
			c-3.19-2.65-7.09-3.79-11.18-3.97c-4.42-0.2-8.83,0.49-13.25,0.46c-1.1-0.01-2.19-0.05-3.29-0.14c-0.49-0.04-0.64,0.78-0.13,0.87
			c8.23,1.48,17.3-2.34,24.98,2.08c7.29,4.2,9.76,13.03,9.72,20.93c-0.02,4.3-0.39,8.95-2.09,12.95c-1.55,3.63-4.44,6.33-7.8,8.3
			c-3.54,2.08-7.45,3.46-11.31,4.81c-4.42,1.55-8.89,2.95-13.28,4.58c-7.74,2.86-15.4,6.48-21.36,12.32
			c-0.71,0.7-1.4,1.43-2.05,2.19C156.52,147.26,157.47,148.18,158.04,147.52L158.04,147.52z"/>
	</g>
</g>
<g>
	<g>
		<path class="st1" d="M181.02,78.09c0.47-0.33,0.95-0.65,1.42-0.98c0.23-0.16,0.46-0.33,0.69-0.5c0.25-0.18,0.52-0.35,0.72-0.59
			c0.11-0.12,0.15-0.29,0.06-0.44c-0.08-0.14-0.26-0.21-0.41-0.17c-0.29,0.09-0.54,0.24-0.8,0.39c-0.25,0.15-0.51,0.29-0.76,0.44
			c-0.49,0.3-0.98,0.6-1.47,0.89c-0.25,0.15-0.39,0.5-0.22,0.76C180.4,78.14,180.76,78.26,181.02,78.09L181.02,78.09z"/>
	</g>
</g>
<g>
	<g>
		<path class="st1" d="M180.31,79.17c0.34,0.49,0.7,0.97,1.08,1.43c0.17,0.21,0.36,0.4,0.55,0.59c0.1,0.1,0.21,0.19,0.32,0.29
			c0.14,0.12,0.28,0.21,0.44,0.29c0.46,0.22,0.95-0.24,0.72-0.71c-0.03-0.06-0.05-0.12-0.09-0.18c-0.05-0.09-0.13-0.17-0.19-0.25
			c-0.09-0.11-0.17-0.21-0.26-0.32c-0.18-0.2-0.35-0.41-0.53-0.62c-0.17-0.2-0.34-0.4-0.51-0.6c-0.04-0.05-0.08-0.1-0.13-0.16
			c-0.02-0.03-0.05-0.06-0.07-0.09c-0.06-0.07,0.07,0.1,0.02,0.03c-0.09-0.11-0.17-0.23-0.26-0.34c-0.1-0.14-0.21-0.24-0.38-0.29
			c-0.15-0.04-0.35-0.02-0.48,0.07C180.29,78.48,180.11,78.88,180.31,79.17L180.31,79.17z"/>
	</g>
</g>
<g>
	<g>
		<path class="st1" d="M63.81,169.1c5.69,0.04,11.39-0.05,17.09-0.11c5.65-0.05,11.31-0.04,16.96-0.07
			c11.35-0.06,22.7-0.13,34.05-0.2c3.16-0.02,6.32-0.02,9.48-0.03c3.24-0.01,6.5,0.1,9.73-0.12c0.52-0.03,0.55-0.78,0.02-0.81
			c-2.82-0.16-5.66-0.04-8.48-0.02c-2.87,0.02-5.74,0.05-8.61,0.07c-5.65,0.05-11.31,0.07-16.96,0.1
			c-11.35,0.07-22.7,0.13-34.05,0.23c-6.4,0.05-12.81-0.01-19.21,0.11C63.29,168.28,63.26,169.09,63.81,169.1L63.81,169.1z"/>
	</g>
</g>
<g>
	<g>
		<path class="st0" d="M166.33,92.86c1.23,1.33,3.06,1.86,4.83,1.85c0.94-0.01,1.86-0.18,2.67-0.67c0.75-0.44,1.58-1.17,2.01-1.94
			c0.48-0.87-0.61-1.55-1.3-0.96c-0.53,0.45-0.89,1.04-1.48,1.43c-0.6,0.4-1.22,0.49-1.93,0.47c-1.32-0.03-2.69-0.38-3.65-1.33
			C166.76,91,165.64,92.11,166.33,92.86L166.33,92.86z"/>
	</g>
</g>
<g>
	<g>
		<path class="st0" d="M167.24,60.13c1.44-0.99,3.22-1.69,4.99-1.5c0.77,0.08,1.52,0.35,2.18,0.76c0.72,0.44,1.12,1.09,1.68,1.7
			c0.53,0.57,1.59-0.05,1.36-0.79c-0.31-0.98-1.21-1.77-2.05-2.31c-0.84-0.55-1.82-0.88-2.82-1.01c-2.3-0.29-4.48,0.56-6.25,1.99
			C165.68,59.52,166.54,60.62,167.24,60.13L167.24,60.13z"/>
	</g>
</g>
</svg>
