<?xml version="1.0" encoding="utf-8"?>
<!-- Generator: Adobe Illustrator 26.0.2, SVG Export Plug-In . SVG Version: 6.00 Build 0)  -->
<svg version="1.1" id="Layer_1" xmlns="http://www.w3.org/2000/svg" xmlns:xlink="http://www.w3.org/1999/xlink" x="0px" y="0px"
	 viewBox="0 0 324.1 86.59" style="enable-background:new 0 0 324.1 86.59;" xml:space="preserve">
<style type="text/css">
	.st0{fill:none;stroke:#FD46FC;stroke-miterlimit:10;}
	.st1{fill:#486AFB;}
	.st2{fill:none;stroke:#486AFB;stroke-miterlimit:10;}
	.st3{fill:#FD46FC;}
</style>
<line class="st0" x1="264.9" y1="80.09" x2="274.4" y2="61.09"/>
<line class="st0" x1="191.9" y1="74.53" x2="198.4" y2="61.53"/>
<line class="st0" x1="207.88" y1="80.09" x2="198.38" y2="61.09"/>
<circle class="st1" cx="207.88" cy="80.09" r="2.2"/>
<path class="st1" d="M189.18,82.3c-0.05,0.18-0.05,0.2-0.2,0.37c-0.44,0.55-0.84,0.7-1.12,0.7c-0.5,0-0.64-0.55-0.64-0.93
	c0-0.5,0.32-1.72,0.55-2.18c0.31-0.59,0.76-0.95,1.15-0.95c0.65,0,0.78,0.81,0.78,0.87c0,0.06-0.02,0.12-0.03,0.17L189.18,82.3
	 M191.25,76.7c0-0.01,0-0.11-0.13-0.11c-0.15,0-1.09,0.09-1.26,0.11c-0.08,0.01-0.14,0.06-0.14,0.19c0,0.12,0.09,0.12,0.24,0.12
	c0.48,0,0.5,0.07,0.5,0.17l-0.03,0.2l-0.6,2.35c-0.18-0.37-0.47-0.64-0.91-0.64c-1.16,0-2.39,1.46-2.39,2.91
	c0,0.93,0.55,1.59,1.32,1.59c0.2,0,0.7-0.04,1.29-0.75c0.08,0.42,0.43,0.75,0.9,0.75c0.35,0,0.58-0.23,0.73-0.55
	c0.17-0.36,0.3-0.96,0.3-0.98c0-0.1-0.09-0.1-0.12-0.1c-0.1,0-0.11,0.04-0.14,0.18c-0.17,0.65-0.35,1.23-0.75,1.23
	c-0.27,0-0.3-0.26-0.3-0.46c0-0.24,0.02-0.31,0.06-0.48L191.25,76.7z"/>
<path class="st2" d="M190.59,85.86h-3.41c-3.17,0-5.76-2.59-5.76-5.76v0c0-3.17,2.59-5.76,5.76-5.76h3.41
	c3.17,0,5.76,2.59,5.76,5.76v0C196.35,83.26,193.76,85.86,190.59,85.86z"/>
<line class="st0" x1="160.4" y1="61.4" x2="141.4" y2="42.4"/>
<line class="st0" x1="150.9" y1="80.4" x2="160.4" y2="61.4"/>
<line class="st0" x1="169.9" y1="80.4" x2="160.4" y2="61.4"/>
<circle class="st1" cx="160.4" cy="61.4" r="2.2"/>
<circle class="st1" cx="141.4" cy="42.4" r="2.2"/>
<path class="st0" d="M219.1,19.59h-3.41c-3.17,0-5.76-2.59-5.76-5.76v0c0-3.17,2.59-5.76,5.76-5.76h3.41c3.17,0,5.76,2.59,5.76,5.76
	v0C224.87,17,222.27,19.59,219.1,19.59z"/>
<path class="st0" d="M142,19.59h-3.41c-3.17,0-5.76-2.59-5.76-5.76v0c0-3.17,2.59-5.76,5.76-5.76H142c3.17,0,5.76,2.59,5.76,5.76v0
	C147.76,17,145.17,19.59,142,19.59z"/>
<line class="st0" x1="224.58" y1="15.62" x2="255.4" y2="23.33"/>
<path class="st0" d="M224.58,15.62"/>
<line class="st0" x1="179.4" y1="4.33" x2="210.22" y2="12.03"/>
<line class="st0" x1="133.18" y1="15.8" x2="102.85" y2="23.33"/>
<line class="st0" x1="179.4" y1="4.33" x2="147.54" y2="12.23"/>
<line class="st0" x1="71.84" y1="39.06" x2="102.85" y2="23.33"/>
<line class="st0" x1="141.4" y1="42.33" x2="103.4" y2="23.19"/>
<line class="st0" x1="223.83" y1="39.11" x2="255.4" y2="23.33"/>
<line class="st0" x1="293.4" y1="42.33" x2="255.4" y2="23.33"/>
<line class="st0" x1="36.9" y1="80.33" x2="46.4" y2="61.33"/>
<line class="st0" x1="55.9" y1="80.33" x2="46.4" y2="61.33"/>
<line class="st0" x1="74.63" y1="80.33" x2="81.36" y2="66.85"/>
<path class="st0" d="M84.13,61.33"/>
<line class="st0" x1="93.63" y1="80.33" x2="86.86" y2="66.8"/>
<line class="st0" x1="46.4" y1="61.33" x2="60.57" y2="47.16"/>
<line class="st0" x1="79.38" y1="56.3" x2="70.23" y2="47.16"/>
<line class="st0" x1="122.4" y1="61.33" x2="141.4" y2="42.33"/>
<line class="st0" x1="198.4" y1="61.33" x2="212.59" y2="47.13"/>
<line class="st0" x1="236.4" y1="61.33" x2="222.11" y2="47.04"/>
<line class="st0" x1="274.4" y1="61.33" x2="293.4" y2="42.33"/>
<line class="st0" x1="312.4" y1="61.33" x2="293.4" y2="42.33"/>
<line class="st0" x1="112.9" y1="80.33" x2="122.4" y2="61.33"/>
<line class="st0" x1="131.9" y1="80.33" x2="122.4" y2="61.33"/>
<line class="st0" x1="207.9" y1="80.53" x2="198.4" y2="61.53"/>
<line class="st0" x1="226.9" y1="80.33" x2="236.4" y2="61.33"/>
<line class="st0" x1="245.9" y1="80.33" x2="236.4" y2="61.33"/>
<line class="st0" x1="283.9" y1="80.33" x2="274.4" y2="61.33"/>
<line class="st0" x1="302.9" y1="80.33" x2="312.4" y2="61.33"/>
<line class="st0" x1="321.9" y1="80.33" x2="312.4" y2="61.33"/>
<circle class="st1" cx="36.9" cy="80.33" r="2.2"/>
<circle class="st1" cx="55.9" cy="80.33" r="2.2"/>
<circle class="st1" cx="74.9" cy="80.33" r="2.2"/>
<circle class="st1" cx="93.9" cy="80.33" r="2.2"/>
<circle class="st1" cx="112.9" cy="80.33" r="2.2"/>
<circle class="st1" cx="131.9" cy="80.33" r="2.2"/>
<circle class="st1" cx="150.9" cy="80.33" r="2.2"/>
<circle class="st1" cx="169.9" cy="80.33" r="2.2"/>
<circle class="st1" cx="207.9" cy="80.33" r="2.2"/>
<circle class="st1" cx="226.9" cy="80.33" r="2.2"/>
<circle class="st1" cx="245.9" cy="80.33" r="2.2"/>
<circle class="st1" cx="283.9" cy="80.33" r="2.2"/>
<circle class="st1" cx="302.9" cy="80.33" r="2.2"/>
<circle class="st1" cx="321.9" cy="80.33" r="2.2"/>
<circle class="st1" cx="46.4" cy="61.33" r="2.2"/>
<circle class="st1" cx="122.4" cy="61.33" r="2.2"/>
<circle class="st1" cx="198.4" cy="61.33" r="2.2"/>
<circle class="st1" cx="312.4" cy="61.33" r="2.2"/>
<circle class="st1" cx="236.4" cy="61.33" r="2.2"/>
<circle class="st1" cx="274.4" cy="61.33" r="2.2"/>
<circle class="st1" cx="179.4" cy="4.33" r="2.2"/>
<circle class="st1" cx="293.4" cy="42.33" r="2.2"/>
<circle class="st1" cx="103.4" cy="23.33" r="2.2"/>
<circle class="st1" cx="255.4" cy="23.33" r="2.2"/>
<circle class="st1" cx="141.4" cy="42.33" r="2.2"/>
<path class="st1" d="M65.67,43.17c-0.05,0.18-0.05,0.2-0.2,0.37c-0.44,0.55-0.84,0.7-1.12,0.7c-0.5,0-0.64-0.55-0.64-0.93
	c0-0.5,0.32-1.72,0.55-2.17c0.31-0.59,0.76-0.95,1.15-0.95c0.65,0,0.78,0.81,0.78,0.87c0,0.06-0.02,0.12-0.03,0.17L65.67,43.17
	 M66.31,40.59c-0.18-0.37-0.47-0.64-0.91-0.64c-1.16,0-2.39,1.46-2.39,2.91c0,0.93,0.55,1.59,1.32,1.59c0.2,0,0.7-0.04,1.29-0.75
	c0.08,0.42,0.43,0.75,0.9,0.75c0.35,0,0.58-0.23,0.73-0.55c0.17-0.36,0.3-0.96,0.3-0.98c0-0.1-0.09-0.1-0.12-0.1
	c-0.1,0-0.11,0.04-0.14,0.18c-0.17,0.65-0.35,1.23-0.75,1.23c-0.27,0-0.3-0.26-0.3-0.46c0-0.22,0.02-0.3,0.13-0.74
	c0.11-0.42,0.13-0.52,0.22-0.89l0.36-1.39c0.07-0.28,0.07-0.3,0.07-0.34c0-0.17-0.12-0.27-0.29-0.27
	C66.49,40.16,66.34,40.38,66.31,40.59z"/>
<path class="st1" d="M83.86,61.45c0.06-0.22,0.06-0.24,0.15-0.35c0.49-0.65,0.93-0.79,1.19-0.79c0.36,0,0.63,0.3,0.63,0.93
	c0,0.59-0.33,1.73-0.51,2.11c-0.33,0.67-0.78,1.02-1.17,1.02c-0.34,0-0.67-0.27-0.67-1c0-0.19,0-0.38,0.16-1L83.86,61.45
	 M84.79,57.7c0-0.01,0-0.11-0.13-0.11c-0.23,0-0.95,0.08-1.21,0.1c-0.08,0.01-0.19,0.02-0.19,0.2C83.26,58,83.35,58,83.5,58
	c0.48,0,0.5,0.07,0.5,0.17c0,0.07-0.09,0.41-0.14,0.62l-0.81,3.24c-0.12,0.5-0.16,0.65-0.16,1c0,0.94,0.53,1.56,1.26,1.56
	c1.17,0,2.39-1.48,2.39-2.91c0-0.9-0.53-1.59-1.32-1.59c-0.46,0-0.86,0.29-1.16,0.6L84.79,57.7z"/>
<path class="st1" d="M218.88,40.81c-0.16,0-0.3,0-0.44,0.14c-0.16,0.15-0.18,0.32-0.18,0.39c0,0.24,0.18,0.35,0.37,0.35
	c0.29,0,0.56-0.24,0.56-0.64c0-0.49-0.47-0.85-1.17-0.85c-1.34,0-2.66,1.42-2.66,2.82c0,0.89,0.57,1.68,1.61,1.68
	c1.42,0,2.25-1.05,2.25-1.17c0-0.06-0.06-0.13-0.12-0.13c-0.05,0-0.07,0.02-0.13,0.1c-0.78,0.98-1.87,0.98-1.99,0.98
	c-0.62,0-0.89-0.49-0.89-1.08c0-0.41,0.2-1.37,0.54-1.99c0.31-0.57,0.85-0.99,1.4-0.99C218.36,40.41,218.74,40.54,218.88,40.81"/>
<path class="st3" d="M140.29,17.23c-0.39,0-0.97-0.25-1.15-1.2c-0.11-0.6-0.11-1.51-0.11-2.1c0-0.64,0-1.29,0.08-1.83
	c0.19-1.18,0.93-1.27,1.18-1.27c0.33,0,0.98,0.18,1.17,1.16c0.1,0.56,0.1,1.31,0.1,1.94c0,0.75,0,1.42-0.11,2.06
	C141.3,16.93,140.74,17.23,140.29,17.23 M142.39,14.05c0-0.8-0.05-1.59-0.4-2.33c-0.46-0.95-1.27-1.11-1.69-1.11
	c-0.6,0-1.32,0.26-1.73,1.18c-0.32,0.69-0.37,1.46-0.37,2.26c0,0.74,0.04,1.64,0.45,2.39c0.43,0.8,1.15,1,1.64,1
	c0.54,0,1.29-0.21,1.73-1.15C142.34,15.61,142.39,14.84,142.39,14.05z"/>
<path class="st3" d="M217.82,10.69c0-0.24,0-0.26-0.23-0.26c-0.62,0.64-1.49,0.64-1.81,0.64v0.31c0.2,0,0.78,0,1.3-0.26v5.15
	c0,0.36-0.03,0.48-0.93,0.48h-0.32v0.31c0.35-0.03,1.21-0.03,1.61-0.03c0.4,0,1.26,0,1.61,0.03v-0.31h-0.32
	c-0.89,0-0.92-0.11-0.92-0.48V10.69"/>
<path class="st3" d="M1.9,4.63c0.02-0.11,0.45-2.32,1.01-3.48c0.27-0.54,0.48-0.93,0.8-0.93c0.34,0,0.34,0.36,0.34,0.52
	C4.05,2.39,2.38,4.13,1.9,4.63 M0.49,6.02c-0.02,0.03-0.05,0.06-0.05,0.1c0,0.05,0.06,0.13,0.12,0.13c0.05,0,0.08-0.03,0.36-0.31
	C1,5.87,1.2,5.68,1.28,5.6c0.1,0.78,0.39,1.52,1.11,1.52c0.4,0,0.75-0.23,0.95-0.38c0.14-0.1,0.61-0.49,0.61-0.59
	c0-0.03-0.03-0.12-0.12-0.12c-0.03,0-0.04,0.01-0.13,0.09C3.06,6.75,2.7,6.9,2.41,6.9C1.96,6.9,1.8,6.39,1.8,5.61
	c0-0.06,0.02-0.52,0.05-0.57C1.87,5.02,1.87,5,2.07,4.8c0.8-0.8,2.21-2.48,2.21-4.02C4.29,0.61,4.29,0,3.7,0
	C2.88,0,2.14,1.64,2.04,1.87C1.56,2.95,1.26,4.11,1.26,5.29L0.49,6.02z"/>
<path class="st3" d="M14.07,5.68c0.14,0,0.33,0,0.33-0.2c0-0.2-0.19-0.2-0.34-0.2H8.13c-0.15,0-0.34,0-0.34,0.2
	c0,0.2,0.19,0.2,0.33,0.2H14.07 M14.06,3.75c0.15,0,0.34,0,0.34-0.2c0-0.2-0.19-0.2-0.33-0.2H8.12c-0.14,0-0.33,0-0.33,0.2
	c0,0.2,0.19,0.2,0.34,0.2H14.06z"/>
<path class="st3" d="M20.31,7c-0.39,0-0.97-0.25-1.15-1.2c-0.11-0.6-0.11-1.51-0.11-2.1c0-0.64,0-1.29,0.08-1.83
	c0.19-1.18,0.93-1.27,1.18-1.27c0.33,0,0.98,0.18,1.17,1.16c0.1,0.56,0.1,1.31,0.1,1.94c0,0.75,0,1.42-0.11,2.06
	C21.32,6.7,20.75,7,20.31,7 M22.4,3.83c0-0.8-0.05-1.59-0.4-2.33c-0.46-0.95-1.27-1.11-1.69-1.11c-0.6,0-1.32,0.26-1.73,1.18
	c-0.32,0.69-0.37,1.46-0.37,2.26c0,0.74,0.04,1.64,0.45,2.39c0.43,0.8,1.15,1,1.64,1c0.54,0,1.29-0.21,1.73-1.15
	C22.35,5.38,22.4,4.61,22.4,3.83z"/>
<path class="st3" d="M1.77,23.04c0.02-0.11,0.45-2.32,1.01-3.48c0.27-0.54,0.48-0.93,0.8-0.93c0.34,0,0.34,0.36,0.34,0.52
	C3.92,20.8,2.25,22.54,1.77,23.04 M0.36,24.43c-0.02,0.03-0.05,0.06-0.05,0.1c0,0.05,0.06,0.13,0.12,0.13
	c0.05,0,0.08-0.03,0.36-0.31c0.08-0.07,0.28-0.26,0.36-0.34c0.1,0.78,0.39,1.52,1.11,1.52c0.4,0,0.75-0.23,0.95-0.38
	c0.14-0.1,0.61-0.49,0.61-0.59c0-0.03-0.03-0.12-0.12-0.12c-0.03,0-0.04,0.01-0.13,0.09c-0.64,0.63-1,0.77-1.29,0.77
	c-0.45,0-0.61-0.52-0.61-1.29c0-0.06,0.02-0.52,0.05-0.57c0.02-0.03,0.02-0.05,0.22-0.25c0.8-0.8,2.21-2.48,2.21-4.02
	c0-0.17,0-0.77-0.59-0.77c-0.82,0-1.56,1.64-1.66,1.87c-0.48,1.08-0.79,2.25-0.79,3.43L0.36,24.43z"/>
<path class="st3" d="M13.94,24.09c0.14,0,0.33,0,0.33-0.2c0-0.2-0.19-0.2-0.34-0.2H8c-0.15,0-0.34,0-0.34,0.2
	c0,0.2,0.19,0.2,0.33,0.2H13.94 M13.93,22.16c0.15,0,0.34,0,0.34-0.2c0-0.2-0.19-0.2-0.33-0.2H7.99c-0.14,0-0.33,0-0.33,0.2
	c0,0.2,0.19,0.2,0.34,0.2H13.93z"/>
<path class="st3" d="M20.63,19.05c0-0.24,0-0.26-0.23-0.26c-0.62,0.64-1.49,0.64-1.81,0.64v0.31c0.2,0,0.78,0,1.3-0.26v5.15
	c0,0.36-0.03,0.48-0.92,0.48h-0.32v0.31c0.35-0.03,1.21-0.03,1.61-0.03c0.4,0,1.26,0,1.61,0.03V25.1h-0.32
	c-0.89,0-0.92-0.11-0.92-0.48V19.05"/>
<path class="st3" d="M1.63,42.2c0.02-0.11,0.45-2.32,1.01-3.48c0.27-0.54,0.48-0.93,0.8-0.93c0.34,0,0.34,0.36,0.34,0.52
	C3.77,39.97,2.1,41.71,1.63,42.2 M0.22,43.6c-0.02,0.03-0.05,0.06-0.05,0.1c0,0.05,0.06,0.13,0.12,0.13c0.05,0,0.08-0.03,0.36-0.31
	c0.08-0.07,0.28-0.26,0.36-0.34c0.1,0.78,0.39,1.52,1.11,1.52c0.4,0,0.75-0.23,0.95-0.38c0.14-0.1,0.61-0.49,0.61-0.59
	c0-0.03-0.03-0.12-0.12-0.12c-0.03,0-0.04,0.01-0.13,0.09c-0.64,0.62-1,0.77-1.29,0.77c-0.45,0-0.61-0.52-0.61-1.29
	c0-0.06,0.02-0.52,0.05-0.57c0.02-0.03,0.02-0.05,0.22-0.25c0.8-0.8,2.21-2.48,2.21-4.02c0-0.17,0-0.78-0.59-0.78
	c-0.82,0-1.56,1.64-1.66,1.87c-0.48,1.08-0.79,2.25-0.79,3.43L0.22,43.6z"/>
<path class="st3" d="M13.79,43.26c0.14,0,0.33,0,0.33-0.2c0-0.2-0.19-0.2-0.34-0.2H7.85c-0.15,0-0.34,0-0.34,0.2
	c0,0.2,0.19,0.2,0.33,0.2H13.79 M13.78,41.33c0.15,0,0.34,0,0.34-0.2c0-0.2-0.19-0.2-0.33-0.2H7.84c-0.14,0-0.33,0-0.33,0.2
	c0,0.2,0.19,0.2,0.34,0.2H13.78z"/>
<path class="st3" d="M18.82,43.81l1.05-1.02c1.55-1.37,2.15-1.91,2.15-2.9c0-1.13-0.9-1.93-2.11-1.93c-1.12,0-1.86,0.91-1.86,1.8
	c0,0.56,0.5,0.56,0.53,0.56c0.17,0,0.52-0.12,0.52-0.53c0-0.26-0.18-0.52-0.53-0.52c-0.08,0-0.1,0-0.13,0.01
	c0.23-0.65,0.76-1.01,1.34-1.01c0.9,0,1.33,0.8,1.33,1.62c0,0.8-0.5,1.58-1.04,2.2l-1.91,2.13c-0.11,0.11-0.11,0.13-0.11,0.37h3.69
	l0.28-1.73h-0.25c-0.05,0.3-0.12,0.73-0.22,0.88c-0.07,0.08-0.73,0.08-0.94,0.08H18.82"/>
<path class="st3" d="M1.46,61.09c0.02-0.11,0.45-2.32,1.01-3.48c0.27-0.54,0.48-0.93,0.8-0.93c0.34,0,0.34,0.36,0.34,0.52
	C3.61,58.85,1.94,60.59,1.46,61.09 M0.05,62.48C0.03,62.51,0,62.54,0,62.58c0,0.05,0.06,0.13,0.12,0.13c0.05,0,0.08-0.03,0.36-0.31
	c0.08-0.07,0.28-0.26,0.36-0.34c0.1,0.78,0.39,1.52,1.11,1.52c0.4,0,0.75-0.23,0.95-0.38c0.14-0.1,0.61-0.49,0.61-0.59
	c0-0.03-0.03-0.12-0.12-0.12c-0.03,0-0.04,0.01-0.13,0.09c-0.64,0.63-1,0.77-1.29,0.77c-0.45,0-0.61-0.52-0.61-1.29
	c0-0.06,0.02-0.52,0.05-0.57c0.02-0.03,0.02-0.05,0.22-0.25c0.8-0.8,2.21-2.48,2.21-4.02c0-0.17,0-0.77-0.59-0.77
	c-0.82,0-1.56,1.64-1.66,1.87c-0.48,1.08-0.79,2.25-0.79,3.43L0.05,62.48z"/>
<path class="st3" d="M13.63,62.14c0.14,0,0.33,0,0.33-0.2c0-0.2-0.19-0.2-0.34-0.2H7.68c-0.15,0-0.34,0-0.34,0.2
	c0,0.2,0.19,0.2,0.33,0.2H13.63 M13.62,60.21c0.15,0,0.34,0,0.34-0.2c0-0.2-0.19-0.2-0.33-0.2H7.68c-0.14,0-0.33,0-0.33,0.2
	c0,0.2,0.19,0.2,0.34,0.2H13.62z"/>
<path class="st3" d="M20.27,59.96c0.81-0.27,1.39-0.96,1.39-1.75c0-0.81-0.88-1.37-1.83-1.37c-1,0-1.76,0.6-1.76,1.35
	c0,0.33,0.22,0.52,0.51,0.52c0.31,0,0.51-0.22,0.51-0.51c0-0.5-0.47-0.5-0.62-0.5c0.31-0.49,0.96-0.62,1.32-0.62
	c0.41,0,0.95,0.22,0.95,1.11c0,0.12-0.02,0.7-0.28,1.13c-0.3,0.48-0.64,0.51-0.88,0.52c-0.08,0.01-0.32,0.03-0.39,0.03
	c-0.08,0.01-0.15,0.02-0.15,0.12c0,0.11,0.07,0.11,0.24,0.11h0.44c0.81,0,1.18,0.68,1.18,1.65c0,1.35-0.69,1.64-1.12,1.64
	c-0.43,0-1.17-0.17-1.52-0.75c0.35,0.05,0.66-0.17,0.66-0.55c0-0.36-0.27-0.56-0.56-0.56c-0.24,0-0.56,0.14-0.56,0.58
	c0,0.9,0.92,1.56,2.01,1.56c1.21,0,2.12-0.9,2.12-1.92C21.93,60.95,21.3,60.17,20.27,59.96"/>
<path class="st3" d="M1.52,80.58c0.02-0.11,0.45-2.32,1.01-3.48c0.27-0.54,0.48-0.93,0.8-0.93c0.34,0,0.34,0.36,0.34,0.52
	C3.66,78.34,1.99,80.08,1.52,80.58 M0.11,81.97c-0.02,0.03-0.05,0.06-0.05,0.1c0,0.05,0.06,0.13,0.12,0.13
	c0.05,0,0.08-0.03,0.36-0.31c0.08-0.07,0.28-0.26,0.36-0.34c0.1,0.78,0.39,1.52,1.11,1.52c0.4,0,0.75-0.23,0.95-0.38
	c0.14-0.1,0.61-0.49,0.61-0.59c0-0.03-0.03-0.12-0.12-0.12c-0.03,0-0.04,0.01-0.13,0.09c-0.64,0.62-1,0.77-1.29,0.77
	c-0.45,0-0.61-0.52-0.61-1.29c0-0.06,0.02-0.52,0.05-0.57c0.02-0.03,0.02-0.05,0.22-0.25c0.8-0.8,2.21-2.48,2.21-4.02
	c0-0.17,0-0.78-0.59-0.78c-0.82,0-1.56,1.64-1.66,1.87c-0.48,1.08-0.79,2.25-0.79,3.43L0.11,81.97z"/>
<path class="st3" d="M13.68,81.63c0.14,0,0.33,0,0.33-0.2c0-0.2-0.19-0.2-0.34-0.2H7.74c-0.15,0-0.34,0-0.34,0.2
	c0,0.2,0.19,0.2,0.33,0.2H13.68 M13.67,79.7c0.15,0,0.34,0,0.34-0.2c0-0.2-0.19-0.2-0.33-0.2H7.73c-0.14,0-0.33,0-0.33,0.2
	c0,0.2,0.19,0.2,0.34,0.2H13.67z"/>
<path class="st3" d="M20.43,81H18l2.42-3.7V81z M20.37,81.31v0.86c0,0.36-0.02,0.47-0.75,0.47H19.4v0.31
	c0.41-0.03,0.92-0.03,1.34-0.03c0.42,0,0.94,0,1.35,0.03v-0.31h-0.21c-0.74,0-0.75-0.11-0.75-0.47v-0.86h0.99V81h-0.99v-4.52
	c0-0.2,0-0.26-0.16-0.26c-0.09,0-0.12,0-0.2,0.12L17.73,81v0.31H20.37z"/>
<path class="st2" d="M67.1,48.09h-3.41c-3.17,0-5.76-2.59-5.76-5.76v0c0-3.17,2.59-5.76,5.76-5.76h3.41c3.17,0,5.76,2.59,5.76,5.76
	v0C72.87,45.5,70.27,48.09,67.1,48.09z"/>
<path class="st2" d="M218.99,47.97h-3.41c-3.17,0-5.76-2.59-5.76-5.76v0c0-3.17,2.59-5.76,5.76-5.76h3.41
	c3.17,0,5.76,2.59,5.76,5.76v0C224.75,45.38,222.16,47.97,218.99,47.97z"/>
<path class="st2" d="M86.1,66.85h-3.41c-3.17,0-5.76-2.59-5.76-5.76v0c0-3.17,2.59-5.76,5.76-5.76h3.41c3.17,0,5.76,2.59,5.76,5.76
	v0C91.87,64.26,89.27,66.85,86.1,66.85"/>
<circle class="st1" cx="264.9" cy="80.09" r="2.2"/>
</svg>
