<?xml version="1.0" encoding="utf-8" standalone="no"?>
<!DOCTYPE svg PUBLIC "-//W3C//DTD SVG 1.1//EN"
  "http://www.w3.org/Graphics/SVG/1.1/DTD/svg11.dtd">
<svg xmlns:xlink="http://www.w3.org/1999/xlink" width="279.711875pt" height="204.1425pt" viewBox="0 0 279.711875 204.1425" xmlns="http://www.w3.org/2000/svg" version="1.1">
 <metadata>
  <rdf:RDF xmlns:dc="http://purl.org/dc/elements/1.1/" xmlns:cc="http://creativecommons.org/ns#" xmlns:rdf="http://www.w3.org/1999/02/22-rdf-syntax-ns#">
   <cc:Work>
    <dc:type rdf:resource="http://purl.org/dc/dcmitype/StillImage"/>
    <dc:date>2024-01-17T23:52:37.790963</dc:date>
    <dc:format>image/svg+xml</dc:format>
    <dc:creator>
     <cc:Agent>
      <dc:title>Matplotlib v3.8.2, https://matplotlib.org/</dc:title>
     </cc:Agent>
    </dc:creator>
   </cc:Work>
  </rdf:RDF>
 </metadata>
 <defs>
  <style type="text/css">*{stroke-linejoin: round; stroke-linecap: butt}</style>
 </defs>
 <g id="figure_1">
  <g id="patch_1">
   <path d="M 0 204.1425 
L 279.711875 204.1425 
L 279.711875 0 
L 0 0 
z
" style="fill: #ffffff"/>
  </g>
  <g id="axes_1">
   <g id="patch_2">
    <path d="M 39.971875 166.48 
L 272.511875 166.48 
L 272.511875 7.2 
L 39.971875 7.2 
z
" style="fill: #ffffff"/>
   </g>
   <g id="PathCollection_1">
    <defs>
     <path id="m42d412c72a" d="M 0 2 
C 0.530406 2 1.03916 1.789267 1.414214 1.414214 
C 1.789267 1.03916 2 0.530406 2 0 
C 2 -0.530406 1.789267 -1.03916 1.414214 -1.414214 
C 1.03916 -1.789267 0.530406 -2 0 -2 
C -0.530406 -2 -1.03916 -1.789267 -1.414214 -1.414214 
C -1.789267 -1.03916 -2 -0.530406 -2 0 
C -2 0.530406 -1.789267 1.03916 -1.414214 1.414214 
C -1.03916 1.789267 -0.530406 2 0 2 
z
" style="stroke: #486afb; stroke-width: 0.2"/>
    </defs>
    <g clip-path="url(#p18aa24f158)">
     <use xlink:href="#m42d412c72a" x="156.241875" y="86.84" style="fill: #486afb; stroke: #486afb; stroke-width: 0.2"/>
    </g>
   </g>
   <g id="matplotlib.axis_1">
    <g id="xtick_1">
     <g id="line2d_1">
      <path d="M 69.039375 166.48 
L 69.039375 7.2 
" clip-path="url(#p18aa24f158)" style="fill: none; stroke-dasharray: 2.22,0.96; stroke-dashoffset: 0; stroke: #6c6066; stroke-opacity: 0.4; stroke-width: 0.6"/>
     </g>
     <g id="line2d_2">
      <defs>
       <path id="m5af0d29616" d="M 0 0 
L 0 3.5 
" style="stroke: #000000; stroke-width: 0.8"/>
      </defs>
      <g>
       <use xlink:href="#m5af0d29616" x="69.039375" y="166.48" style="stroke: #000000; stroke-width: 0.8"/>
      </g>
     </g>
     <g id="text_1">
      <!-- −2 -->
      <g transform="translate(63.019062 181.131562) scale(0.1 -0.1)">
       <defs>
        <path id="DejaVuSansMono-2212" d="M 275 2272 
L 3578 2272 
L 3578 1741 
L 275 1741 
L 275 2272 
z
" transform="scale(0.015625)"/>
        <path id="DejaVuSansMono-32" d="M 1166 531 
L 3309 531 
L 3309 0 
L 475 0 
L 475 531 
Q 1059 1147 1496 1619 
Q 1934 2091 2100 2284 
Q 2413 2666 2522 2902 
Q 2631 3138 2631 3384 
Q 2631 3775 2401 3997 
Q 2172 4219 1772 4219 
Q 1488 4219 1175 4116 
Q 863 4013 513 3803 
L 513 4441 
Q 834 4594 1145 4672 
Q 1456 4750 1759 4750 
Q 2444 4750 2861 4386 
Q 3278 4022 3278 3431 
Q 3278 3131 3139 2831 
Q 3000 2531 2688 2169 
Q 2513 1966 2180 1606 
Q 1847 1247 1166 531 
z
" transform="scale(0.015625)"/>
       </defs>
       <use xlink:href="#DejaVuSansMono-2212"/>
       <use xlink:href="#DejaVuSansMono-32" x="60.205078"/>
      </g>
     </g>
    </g>
    <g id="xtick_2">
     <g id="line2d_3">
      <path d="M 127.174375 166.48 
L 127.174375 7.2 
" clip-path="url(#p18aa24f158)" style="fill: none; stroke-dasharray: 2.22,0.96; stroke-dashoffset: 0; stroke: #6c6066; stroke-opacity: 0.4; stroke-width: 0.6"/>
     </g>
     <g id="line2d_4">
      <g>
       <use xlink:href="#m5af0d29616" x="127.174375" y="166.48" style="stroke: #000000; stroke-width: 0.8"/>
      </g>
     </g>
     <g id="text_2">
      <!-- 0 -->
      <g transform="translate(124.164219 181.131562) scale(0.1 -0.1)">
       <defs>
        <path id="DejaVuSansMono-30" d="M 1509 2344 
Q 1509 2516 1629 2641 
Q 1750 2766 1919 2766 
Q 2094 2766 2219 2641 
Q 2344 2516 2344 2344 
Q 2344 2169 2220 2047 
Q 2097 1925 1919 1925 
Q 1744 1925 1626 2044 
Q 1509 2163 1509 2344 
z
M 1925 4250 
Q 1484 4250 1267 3775 
Q 1050 3300 1050 2328 
Q 1050 1359 1267 884 
Q 1484 409 1925 409 
Q 2369 409 2586 884 
Q 2803 1359 2803 2328 
Q 2803 3300 2586 3775 
Q 2369 4250 1925 4250 
z
M 1925 4750 
Q 2672 4750 3055 4137 
Q 3438 3525 3438 2328 
Q 3438 1134 3055 521 
Q 2672 -91 1925 -91 
Q 1178 -91 797 521 
Q 416 1134 416 2328 
Q 416 3525 797 4137 
Q 1178 4750 1925 4750 
z
" transform="scale(0.015625)"/>
       </defs>
       <use xlink:href="#DejaVuSansMono-30"/>
      </g>
     </g>
    </g>
    <g id="xtick_3">
     <g id="line2d_5">
      <path d="M 185.309375 166.48 
L 185.309375 7.2 
" clip-path="url(#p18aa24f158)" style="fill: none; stroke-dasharray: 2.22,0.96; stroke-dashoffset: 0; stroke: #6c6066; stroke-opacity: 0.4; stroke-width: 0.6"/>
     </g>
     <g id="line2d_6">
      <g>
       <use xlink:href="#m5af0d29616" x="185.309375" y="166.48" style="stroke: #000000; stroke-width: 0.8"/>
      </g>
     </g>
     <g id="text_3">
      <!-- 2 -->
      <g transform="translate(182.299219 181.131562) scale(0.1 -0.1)">
       <use xlink:href="#DejaVuSansMono-32"/>
      </g>
     </g>
    </g>
    <g id="xtick_4">
     <g id="line2d_7">
      <path d="M 243.444375 166.48 
L 243.444375 7.2 
" clip-path="url(#p18aa24f158)" style="fill: none; stroke-dasharray: 2.22,0.96; stroke-dashoffset: 0; stroke: #6c6066; stroke-opacity: 0.4; stroke-width: 0.6"/>
     </g>
     <g id="line2d_8">
      <g>
       <use xlink:href="#m5af0d29616" x="243.444375" y="166.48" style="stroke: #000000; stroke-width: 0.8"/>
      </g>
     </g>
     <g id="text_4">
      <!-- 4 -->
      <g transform="translate(240.434219 181.131562) scale(0.1 -0.1)">
       <defs>
        <path id="DejaVuSansMono-34" d="M 2297 4091 
L 825 1625 
L 2297 1625 
L 2297 4091 
z
M 2194 4666 
L 2925 4666 
L 2925 1625 
L 3547 1625 
L 3547 1113 
L 2925 1113 
L 2925 0 
L 2297 0 
L 2297 1113 
L 319 1113 
L 319 1709 
L 2194 4666 
z
" transform="scale(0.015625)"/>
       </defs>
       <use xlink:href="#DejaVuSansMono-34"/>
      </g>
     </g>
    </g>
    <g id="text_5">
     <!-- $x$ -->
     <g transform="translate(153.241875 194.862812) scale(0.1 -0.1)">
      <defs>
       <path id="DejaVuSans-Oblique-78" d="M 3841 3500 
L 2234 1784 
L 3219 0 
L 2559 0 
L 1819 1388 
L 531 0 
L -166 0 
L 1556 1844 
L 641 3500 
L 1300 3500 
L 1972 2234 
L 3144 3500 
L 3841 3500 
z
" transform="scale(0.015625)"/>
      </defs>
      <use xlink:href="#DejaVuSans-Oblique-78" transform="translate(0 0.3125)"/>
     </g>
    </g>
   </g>
   <g id="matplotlib.axis_2">
    <g id="ytick_1">
     <g id="line2d_9">
      <path d="M 39.971875 146.57 
L 272.511875 146.57 
" clip-path="url(#p18aa24f158)" style="fill: none; stroke-dasharray: 2.22,0.96; stroke-dashoffset: 0; stroke: #6c6066; stroke-opacity: 0.4; stroke-width: 0.6"/>
     </g>
     <g id="line2d_10">
      <defs>
       <path id="m75f5d15a27" d="M 0 0 
L -3.5 0 
" style="stroke: #000000; stroke-width: 0.8"/>
      </defs>
      <g>
       <use xlink:href="#m75f5d15a27" x="39.971875" y="146.57" style="stroke: #000000; stroke-width: 0.8"/>
      </g>
     </g>
     <g id="text_6">
      <!-- −2 -->
      <g transform="translate(20.93125 150.395781) scale(0.1 -0.1)">
       <use xlink:href="#DejaVuSansMono-2212"/>
       <use xlink:href="#DejaVuSansMono-32" x="60.205078"/>
      </g>
     </g>
    </g>
    <g id="ytick_2">
     <g id="line2d_11">
      <path d="M 39.971875 106.75 
L 272.511875 106.75 
" clip-path="url(#p18aa24f158)" style="fill: none; stroke-dasharray: 2.22,0.96; stroke-dashoffset: 0; stroke: #6c6066; stroke-opacity: 0.4; stroke-width: 0.6"/>
     </g>
     <g id="line2d_12">
      <g>
       <use xlink:href="#m75f5d15a27" x="39.971875" y="106.75" style="stroke: #000000; stroke-width: 0.8"/>
      </g>
     </g>
     <g id="text_7">
      <!-- 0 -->
      <g transform="translate(26.951562 110.575781) scale(0.1 -0.1)">
       <use xlink:href="#DejaVuSansMono-30"/>
      </g>
     </g>
    </g>
    <g id="ytick_3">
     <g id="line2d_13">
      <path d="M 39.971875 66.93 
L 272.511875 66.93 
" clip-path="url(#p18aa24f158)" style="fill: none; stroke-dasharray: 2.22,0.96; stroke-dashoffset: 0; stroke: #6c6066; stroke-opacity: 0.4; stroke-width: 0.6"/>
     </g>
     <g id="line2d_14">
      <g>
       <use xlink:href="#m75f5d15a27" x="39.971875" y="66.93" style="stroke: #000000; stroke-width: 0.8"/>
      </g>
     </g>
     <g id="text_8">
      <!-- 2 -->
      <g transform="translate(26.951562 70.755781) scale(0.1 -0.1)">
       <use xlink:href="#DejaVuSansMono-32"/>
      </g>
     </g>
    </g>
    <g id="ytick_4">
     <g id="line2d_15">
      <path d="M 39.971875 27.11 
L 272.511875 27.11 
" clip-path="url(#p18aa24f158)" style="fill: none; stroke-dasharray: 2.22,0.96; stroke-dashoffset: 0; stroke: #6c6066; stroke-opacity: 0.4; stroke-width: 0.6"/>
     </g>
     <g id="line2d_16">
      <g>
       <use xlink:href="#m75f5d15a27" x="39.971875" y="27.11" style="stroke: #000000; stroke-width: 0.8"/>
      </g>
     </g>
     <g id="text_9">
      <!-- 4 -->
      <g transform="translate(26.951562 30.935781) scale(0.1 -0.1)">
       <use xlink:href="#DejaVuSansMono-34"/>
      </g>
     </g>
    </g>
    <g id="text_10">
     <!-- $y$ -->
     <g transform="translate(14.83125 89.84) rotate(-90) scale(0.1 -0.1)">
      <defs>
       <path id="DejaVuSans-Oblique-79" d="M 1588 -325 
Q 1188 -997 936 -1164 
Q 684 -1331 294 -1331 
L -159 -1331 
L -63 -850 
L 269 -850 
Q 509 -850 678 -719 
Q 847 -588 1056 -206 
L 1234 128 
L 459 3500 
L 1069 3500 
L 1650 819 
L 3256 3500 
L 3859 3500 
L 1588 -325 
z
" transform="scale(0.015625)"/>
      </defs>
      <use xlink:href="#DejaVuSans-Oblique-79" transform="translate(0 0.3125)"/>
     </g>
    </g>
   </g>
   <g id="QuadContourSet_1">
    <path clip-path="url(#p18aa24f158)" style="fill: none; stroke: #486afb; stroke-width: 2"/>
    <path d="M 109.533457 83.538681 
L 108.017934 87.644444 
L 106.360964 92.471111 
L 104.077567 100.515556 
L 102.659734 106.951111 
L 101.847583 111.777778 
L 101.285689 116.604444 
L 100.963364 121.431111 
L 100.907431 126.257778 
L 101.167726 131.084444 
L 101.529528 134.302222 
L 102.078687 137.52 
L 102.850522 140.737778 
L 103.869089 143.955556 
L 105.190743 147.173333 
L 105.995738 148.782222 
L 106.908565 150.391111 
L 108.089653 152.187075 
L 109.173264 153.608889 
L 110.585072 155.217778 
L 112.787431 157.26685 
L 115.136319 158.963114 
L 117.485208 160.259611 
L 119.834097 161.233155 
L 122.182986 161.925419 
L 124.531875 162.380404 
L 126.880764 162.616332 
L 129.229653 162.657684 
L 131.578542 162.521607 
L 133.927431 162.218941 
L 136.659957 161.653333 
L 138.625208 161.15955 
L 141.95289 160.044444 
L 143.322986 159.543656 
L 148.020764 157.412505 
L 152.718542 154.788392 
L 157.416319 151.687038 
L 162.114097 148.117694 
L 165.131309 145.564444 
L 169.160764 141.845878 
L 171.872341 139.128889 
L 174.887432 135.911111 
L 179.030004 131.084444 
L 182.81313 126.257778 
L 187.382191 119.822222 
L 191.480674 113.386667 
L 195.120093 106.951111 
L 196.824807 103.733333 
L 200.649093 95.688889 
L 203.30296 89.253333 
L 205.608706 82.817778 
L 207.562905 76.382222 
L 208.781832 71.555556 
L 210.123462 65.12 
L 210.850757 60.293333 
L 211.330774 55.466667 
L 211.57291 50.64 
L 211.524548 45.813333 
L 211.156689 40.986667 
L 210.705047 37.768889 
L 210.049576 34.551111 
L 209.091875 31.159123 
L 207.999837 28.115556 
L 206.488012 24.897778 
L 205.575185 23.288889 
L 204.394097 21.492925 
L 203.310486 20.071111 
L 201.898678 18.462222 
L 199.696319 16.41315 
L 197.347431 14.716886 
L 194.998542 13.420389 
L 192.649653 12.446845 
L 190.300764 11.754581 
L 187.951875 11.299596 
L 185.602986 11.063668 
L 183.254097 11.022316 
L 180.905208 11.158393 
L 178.556319 11.461059 
L 175.823793 12.026667 
L 173.858542 12.52045 
L 170.53086 13.635556 
L 169.160764 14.136344 
L 164.462986 16.267495 
L 159.765208 18.891608 
L 155.067431 21.992962 
L 150.369653 25.562306 
L 147.352441 28.115556 
L 143.322986 31.834122 
L 140.611409 34.551111 
L 137.596318 37.768889 
L 133.453746 42.595556 
L 129.67062 47.422222 
L 125.101559 53.857778 
L 121.003076 60.293333 
L 117.634323 66.230719 
L 117.634323 66.230719 
" clip-path="url(#p18aa24f158)" style="fill: none; stroke: #486afb; stroke-width: 2"/>
    <path d="M 189.732408 96.843661 
L 192.362605 90.862222 
L 194.764969 84.426667 
L 196.735836 77.991111 
L 197.90853 73.164444 
L 198.816291 68.337778 
L 199.421559 63.511111 
L 199.712999 58.684444 
L 199.696319 55.047617 
L 199.536852 52.248889 
L 199.156413 49.031111 
L 198.533413 45.813333 
L 197.616823 42.595556 
L 197.026019 40.986667 
L 195.508812 37.768889 
L 194.534195 36.16 
L 192.649653 33.680192 
L 191.945156 32.942222 
L 190.182191 31.333333 
L 187.796522 29.724444 
L 185.602986 28.661504 
L 183.254097 27.896472 
L 180.905208 27.443129 
L 178.556319 27.26165 
L 176.207431 27.318952 
L 173.858542 27.592175 
L 171.340249 28.115556 
L 169.160764 28.715421 
L 166.396311 29.724444 
L 164.462986 30.533481 
L 162.114097 31.686893 
L 159.765208 32.99705 
L 157.275108 34.551111 
L 154.937735 36.16 
L 150.800385 39.377778 
L 148.020764 41.795703 
L 145.492472 44.204444 
L 142.37853 47.422222 
L 138.625208 51.725508 
L 135.66157 55.466667 
L 132.198884 60.293333 
L 129.091818 65.12 
L 126.880764 68.883726 
L 125.396632 71.555556 
L 122.222647 77.991111 
L 119.476448 84.426667 
L 117.718781 89.253333 
L 115.747914 95.688889 
L 114.57522 100.515556 
L 113.667459 105.342222 
L 113.062191 110.168889 
L 112.770751 114.995556 
L 112.787431 118.632383 
L 112.946898 121.431111 
L 113.327337 124.648889 
L 113.950337 127.866667 
L 114.866927 131.084444 
L 115.457731 132.693333 
L 116.974938 135.911111 
L 117.949555 137.52 
L 119.834097 139.999808 
L 120.538594 140.737778 
L 122.301559 142.346667 
L 124.687228 143.955556 
L 126.880764 145.018496 
L 129.229653 145.783528 
L 131.578542 146.236871 
L 133.927431 146.41835 
L 136.276319 146.361048 
L 138.625208 146.087825 
L 141.143501 145.564444 
L 143.322986 144.964579 
L 146.087439 143.955556 
L 148.020764 143.146519 
L 150.369653 141.993107 
L 152.718542 140.68295 
L 155.208642 139.128889 
L 157.546015 137.52 
L 161.683365 134.302222 
L 164.462986 131.884297 
L 166.991278 129.475556 
L 170.10522 126.257778 
L 173.858542 121.954492 
L 176.82218 118.213333 
L 180.195635 113.515673 
L 180.195635 113.515673 
" clip-path="url(#p18aa24f158)" style="fill: none; stroke: #486afb; stroke-width: 2"/>
    <path d="M 137.398258 65.12718 
L 134.28499 69.946667 
L 132.41621 73.164444 
L 129.909768 77.991111 
L 127.729277 82.817778 
L 125.862961 87.644444 
L 124.314671 92.471111 
L 123.448218 95.688889 
L 122.736061 98.906667 
L 122.177551 102.124444 
L 121.772714 105.342222 
L 121.548153 108.56 
L 121.52104 111.777778 
L 121.71779 114.995556 
L 122.182986 118.245899 
L 122.972616 121.431111 
L 123.521574 123.04 
L 124.531875 125.359902 
L 125.023144 126.257778 
L 126.880764 128.957627 
L 127.351412 129.475556 
L 129.229653 131.244056 
L 131.578542 132.747483 
L 133.927431 133.700572 
L 136.276319 134.233906 
L 138.625208 134.420032 
L 141.021642 134.302222 
L 143.322986 133.94049 
L 145.671875 133.334702 
L 148.020764 132.508027 
L 151.116473 131.084444 
L 153.997122 129.475556 
L 156.475035 127.866667 
L 158.679833 126.257778 
L 160.687381 124.648889 
L 162.543092 123.04 
L 165.876179 119.822222 
L 168.843689 116.604444 
L 171.509653 113.394439 
L 173.94394 110.168889 
L 176.207431 106.882794 
L 178.556319 103.131683 
L 180.905208 98.960816 
L 182.573982 95.688889 
L 184.754473 90.862222 
L 186.620789 86.035556 
L 188.169079 81.208889 
L 189.035532 77.991111 
L 189.747689 74.773333 
L 190.306199 71.555556 
L 190.711036 68.337778 
L 190.935597 65.12 
L 190.96271 61.902222 
L 190.76596 58.684444 
L 190.300764 55.434101 
L 189.511134 52.248889 
L 188.962176 50.64 
L 187.951875 48.320098 
L 187.460606 47.422222 
L 185.602986 44.722373 
L 185.132338 44.204444 
L 183.254097 42.435944 
L 180.905208 40.932517 
L 178.556319 39.979428 
L 176.207431 39.446094 
L 173.858542 39.259968 
L 171.462108 39.377778 
L 169.160764 39.73951 
L 166.811875 40.345298 
L 164.462986 41.171973 
L 161.367277 42.595556 
L 158.486628 44.204444 
L 156.008715 45.813333 
L 153.803917 47.422222 
L 151.796369 49.031111 
L 150.171418 50.428215 
L 150.171418 50.428215 
" clip-path="url(#p18aa24f158)" style="fill: none; stroke: #486afb; stroke-width: 2"/>
    <path d="M 129.443683 106.686986 
L 129.450598 106.951111 
L 129.57075 108.56 
L 129.777889 110.168889 
L 130.082767 111.777778 
L 130.498282 113.386667 
L 131.039901 114.995556 
L 131.578542 116.272647 
L 131.744952 116.604444 
L 132.71775 118.213333 
L 133.927431 119.813624 
L 133.935888 119.822222 
L 135.793522 121.431111 
L 136.276319 121.785919 
L 138.625208 122.924452 
L 139.07434 123.04 
L 140.974097 123.478954 
L 143.322986 123.593287 
L 145.671875 123.344376 
L 146.920289 123.04 
L 148.020764 122.778611 
L 150.369653 121.928725 
L 151.412237 121.431111 
L 152.718542 120.815716 
L 154.427153 119.822222 
L 155.067431 119.452348 
L 156.876324 118.213333 
L 157.416319 117.843459 
L 158.989115 116.604444 
L 159.765208 115.989049 
L 160.881579 114.995556 
L 162.114097 113.884281 
L 162.616019 113.386667 
L 164.208787 111.777778 
L 164.462986 111.516388 
L 165.671797 110.168889 
L 166.811875 108.864376 
L 167.061275 108.56 
L 168.344488 106.951111 
L 169.160764 105.895509 
L 169.566761 105.342222 
L 170.708756 103.733333 
L 171.509653 102.563398 
L 171.79808 102.124444 
L 172.816157 100.515556 
L 173.791209 98.906667 
L 173.858542 98.791119 
L 174.701172 97.297778 
L 175.565459 95.688889 
L 176.207431 94.434807 
L 176.385195 94.08 
L 177.149886 92.471111 
L 177.871797 90.862222 
L 178.552907 89.253333 
L 178.556319 89.244735 
L 179.18195 87.644444 
L 179.767489 86.035556 
L 180.310509 84.426667 
L 180.811464 82.817778 
L 180.905208 82.485981 
L 181.262997 81.208889 
L 181.667054 79.6 
L 182.024438 77.991111 
L 182.333958 76.382222 
L 182.593809 74.773333 
L 182.801521 73.164444 
L 182.953872 71.555556 
L 183.0468 69.946667 
L 183.075273 68.337778 
L 183.033152 66.728889 
L 182.913 65.12 
L 182.705861 63.511111 
L 182.400983 61.902222 
L 181.985468 60.293333 
L 181.443849 58.684444 
L 180.905208 57.407353 
L 180.738798 57.075556 
L 179.766 55.466667 
L 178.556319 53.866376 
L 178.547862 53.857778 
L 176.690228 52.248889 
L 176.207431 51.894081 
L 173.858542 50.755548 
L 173.40941 50.64 
L 171.509653 50.201046 
L 169.160764 50.086713 
L 166.811875 50.335624 
L 165.563461 50.64 
L 164.462986 50.901389 
L 162.114097 51.751275 
L 161.071513 52.248889 
L 159.765208 52.864284 
L 158.056597 53.857778 
L 157.416319 54.227652 
L 155.607426 55.466667 
L 155.067431 55.836541 
L 153.494635 57.075556 
L 152.718542 57.690951 
L 151.602171 58.684444 
L 150.369653 59.795719 
L 149.867731 60.293333 
L 148.274963 61.902222 
L 148.020764 62.163612 
L 146.811953 63.511111 
L 145.671875 64.815624 
L 145.422475 65.12 
L 144.139262 66.728889 
L 143.322986 67.784491 
L 142.916989 68.337778 
L 141.774994 69.946667 
L 140.974097 71.116602 
L 140.68567 71.555556 
L 139.667593 73.164444 
L 138.692541 74.773333 
L 138.625208 74.888881 
L 137.782578 76.382222 
L 136.918291 77.991111 
L 136.276319 79.245193 
L 136.098555 79.6 
L 135.333864 81.208889 
L 134.611953 82.817778 
L 133.930843 84.426667 
L 133.927431 84.435265 
L 133.3018 86.035556 
L 132.716261 87.644444 
L 132.54875 88.140755 
" clip-path="url(#p18aa24f158)" style="fill: none; stroke: #486afb; stroke-width: 2"/>
    <path d="M 169.863537 92.358541 
L 170.588633 90.862222 
L 171.323462 89.253333 
L 171.509653 88.811091 
L 171.968167 87.644444 
L 172.545607 86.035556 
L 173.069472 84.426667 
L 173.537151 82.817778 
L 173.858542 81.541327 
L 173.93719 81.208889 
L 174.24616 79.6 
L 174.4856 77.991111 
L 174.649175 76.382222 
L 174.728864 74.773333 
L 174.714614 73.164444 
L 174.593897 71.555556 
L 174.351135 69.946667 
L 173.966943 68.337778 
L 173.858542 68.005339 
L 173.323973 66.728889 
L 172.397349 65.12 
L 171.509653 63.953353 
L 171.001041 63.511111 
L 169.160764 62.250599 
L 168.081155 61.902222 
L 166.811875 61.559427 
L 164.462986 61.521653 
L 162.497948 61.902222 
L 162.114097 61.975121 
L 159.765208 62.858744 
L 158.544643 63.511111 
L 157.416319 64.110251 
L 155.942142 65.12 
L 155.067431 65.71914 
L 153.857363 66.728889 
L 152.718542 67.685411 
L 152.05488 68.337778 
L 150.441093 69.946667 
L 150.369653 70.019565 
L 149.053143 71.555556 
L 148.020764 72.783875 
L 147.733588 73.164444 
L 146.564614 74.773333 
L 145.671875 76.039427 
L 145.451144 76.382222 
L 144.464909 77.991111 
L 143.51699 79.6 
L 143.322986 79.948377 
L 142.674762 81.208889 
L 141.895117 82.817778 
L 141.160288 84.426667 
L 140.974097 84.868909 
L 140.515583 86.035556 
L 139.938143 87.644444 
L 139.414278 89.253333 
L 138.946599 90.862222 
L 138.625208 92.138673 
L 138.54656 92.471111 
L 138.23759 94.08 
L 137.99815 95.688889 
L 137.834575 97.297778 
L 137.754886 98.906667 
L 137.769136 100.515556 
L 137.889853 102.124444 
L 138.132615 103.733333 
L 138.516807 105.342222 
L 138.625208 105.674661 
L 139.159777 106.951111 
L 140.086401 108.56 
L 140.974097 109.726647 
L 141.482709 110.168889 
L 143.322986 111.429401 
L 144.402595 111.777778 
L 145.671875 112.120573 
L 148.020764 112.158347 
L 149.985802 111.777778 
L 150.369653 111.704879 
L 152.718542 110.821256 
L 153.939107 110.168889 
L 155.067431 109.569749 
L 156.541608 108.56 
L 157.416319 107.96086 
L 157.934765 107.52824 
" clip-path="url(#p18aa24f158)" style="fill: none; stroke: #486afb; stroke-width: 2"/>
    <path d="M 152.718542 94.846302 
L 155.067431 94.49757 
L 155.67706 94.08 
L 157.416319 92.888682 
L 157.783291 92.471111 
L 159.104994 90.862222 
L 159.765208 90.019636 
L 160.180077 89.253333 
L 160.921235 87.644444 
L 161.542535 86.035556 
L 161.993383 84.426667 
L 162.114097 83.34472 
L 162.154985 82.817778 
L 162.114097 82.290835 
L 161.939351 81.208889 
L 160.883967 79.6 
L 159.765208 78.833698 
L 157.416319 79.18243 
L 156.80669 79.6 
L 155.067431 80.791318 
L 154.700459 81.208889 
L 153.378756 82.817778 
L 152.718542 83.660364 
L 152.303673 84.426667 
L 151.562515 86.035556 
L 150.941215 87.644444 
L 150.490367 89.253333 
L 150.369653 90.33528 
L 150.328765 90.862222 
L 150.369653 91.389165 
L 150.544399 92.471111 
L 151.599783 94.08 
L 152.718542 94.846302 
z
" clip-path="url(#p18aa24f158)" style="fill: none; stroke: #486afb; stroke-width: 2"/>
    <path clip-path="url(#p18aa24f158)" style="fill: none; stroke: #486afb; stroke-width: 2"/>
   </g>
   <g id="patch_3">
    <path d="M 39.971875 166.48 
L 39.971875 7.2 
" style="fill: none; stroke: #000000; stroke-width: 0.6; stroke-linejoin: miter; stroke-linecap: square"/>
   </g>
   <g id="patch_4">
    <path d="M 39.971875 166.48 
L 272.511875 166.48 
" style="fill: none; stroke: #000000; stroke-width: 0.6; stroke-linejoin: miter; stroke-linecap: square"/>
   </g>
   <g id="text_11">
    <g clip-path="url(#p18aa24f158)">
     <!-- 0.015 -->
     <g style="fill: #486afb" transform="translate(110.623276 86.721705) rotate(-66.872694) scale(0.08 -0.08)">
      <defs>
       <path id="DejaVuSansMono-2e" d="M 1528 953 
L 2316 953 
L 2316 0 
L 1528 0 
L 1528 953 
z
" transform="scale(0.015625)"/>
       <path id="DejaVuSansMono-31" d="M 844 531 
L 1825 531 
L 1825 4097 
L 769 3859 
L 769 4434 
L 1819 4666 
L 2450 4666 
L 2450 531 
L 3419 531 
L 3419 0 
L 844 0 
L 844 531 
z
" transform="scale(0.015625)"/>
       <path id="DejaVuSansMono-35" d="M 647 4666 
L 3009 4666 
L 3009 4134 
L 1222 4134 
L 1222 2988 
Q 1356 3038 1492 3061 
Q 1628 3084 1766 3084 
Q 2491 3084 2916 2656 
Q 3341 2228 3341 1497 
Q 3341 759 2895 334 
Q 2450 -91 1678 -91 
Q 1306 -91 998 -41 
Q 691 9 447 109 
L 447 750 
Q 734 594 1025 517 
Q 1316 441 1619 441 
Q 2141 441 2423 716 
Q 2706 991 2706 1497 
Q 2706 1997 2414 2275 
Q 2122 2553 1600 2553 
Q 1347 2553 1106 2495 
Q 866 2438 647 2322 
L 647 4666 
z
" transform="scale(0.015625)"/>
      </defs>
      <use xlink:href="#DejaVuSansMono-30"/>
      <use xlink:href="#DejaVuSansMono-2e" x="60.205078"/>
      <use xlink:href="#DejaVuSansMono-30" x="120.410156"/>
      <use xlink:href="#DejaVuSansMono-31" x="180.615234"/>
      <use xlink:href="#DejaVuSansMono-35" x="240.820312"/>
     </g>
    </g>
   </g>
   <g id="text_12">
    <g clip-path="url(#p18aa24f158)">
     <!-- 0.030 -->
     <g style="fill: #486afb" transform="translate(181.665772 117.035513) rotate(-62.246027) scale(0.08 -0.08)">
      <defs>
       <path id="DejaVuSansMono-33" d="M 2425 2497 
Q 2884 2375 3128 2064 
Q 3372 1753 3372 1288 
Q 3372 644 2939 276 
Q 2506 -91 1741 -91 
Q 1419 -91 1084 -31 
Q 750 28 428 141 
L 428 769 
Q 747 603 1056 522 
Q 1366 441 1672 441 
Q 2191 441 2469 675 
Q 2747 909 2747 1350 
Q 2747 1756 2469 1995 
Q 2191 2234 1716 2234 
L 1234 2234 
L 1234 2753 
L 1716 2753 
Q 2150 2753 2394 2943 
Q 2638 3134 2638 3475 
Q 2638 3834 2411 4026 
Q 2184 4219 1766 4219 
Q 1488 4219 1191 4156 
Q 894 4094 569 3969 
L 569 4550 
Q 947 4650 1242 4700 
Q 1538 4750 1766 4750 
Q 2447 4750 2855 4408 
Q 3263 4066 3263 3500 
Q 3263 3116 3048 2859 
Q 2834 2603 2425 2497 
z
" transform="scale(0.015625)"/>
      </defs>
      <use xlink:href="#DejaVuSansMono-30"/>
      <use xlink:href="#DejaVuSansMono-2e" x="60.205078"/>
      <use xlink:href="#DejaVuSansMono-30" x="120.410156"/>
      <use xlink:href="#DejaVuSansMono-33" x="180.615234"/>
      <use xlink:href="#DejaVuSansMono-30" x="240.820312"/>
     </g>
    </g>
   </g>
   <g id="text_13">
    <g clip-path="url(#p18aa24f158)">
     <!-- 0.045 -->
     <g style="fill: #486afb" transform="translate(137.5632 68.243251) rotate(-51.454629) scale(0.08 -0.08)">
      <use xlink:href="#DejaVuSansMono-30"/>
      <use xlink:href="#DejaVuSansMono-2e" x="60.205078"/>
      <use xlink:href="#DejaVuSansMono-30" x="120.410156"/>
      <use xlink:href="#DejaVuSansMono-34" x="180.615234"/>
      <use xlink:href="#DejaVuSansMono-35" x="240.820312"/>
     </g>
    </g>
   </g>
   <g id="text_14">
    <g clip-path="url(#p18aa24f158)">
     <!-- 0.060 -->
     <g style="fill: #486afb" transform="translate(130.47874 109.53852) rotate(-81.052449) scale(0.08 -0.08)">
      <defs>
       <path id="DejaVuSansMono-36" d="M 3097 4563 
L 3097 3981 
Q 2900 4097 2678 4158 
Q 2456 4219 2216 4219 
Q 1616 4219 1306 3767 
Q 997 3316 997 2438 
Q 1147 2750 1412 2917 
Q 1678 3084 2022 3084 
Q 2697 3084 3067 2670 
Q 3438 2256 3438 1497 
Q 3438 741 3056 325 
Q 2675 -91 1984 -91 
Q 1172 -91 794 492 
Q 416 1075 416 2328 
Q 416 3509 870 4129 
Q 1325 4750 2188 4750 
Q 2419 4750 2650 4701 
Q 2881 4653 3097 4563 
z
M 1972 2591 
Q 1569 2591 1337 2300 
Q 1106 2009 1106 1497 
Q 1106 984 1337 693 
Q 1569 403 1972 403 
Q 2391 403 2603 679 
Q 2816 956 2816 1497 
Q 2816 2041 2603 2316 
Q 2391 2591 1972 2591 
z
" transform="scale(0.015625)"/>
      </defs>
      <use xlink:href="#DejaVuSansMono-30"/>
      <use xlink:href="#DejaVuSansMono-2e" x="60.205078"/>
      <use xlink:href="#DejaVuSansMono-30" x="120.410156"/>
      <use xlink:href="#DejaVuSansMono-36" x="180.615234"/>
      <use xlink:href="#DejaVuSansMono-30" x="240.820312"/>
     </g>
    </g>
   </g>
   <g id="text_15">
    <g clip-path="url(#p18aa24f158)">
     <!-- 0.075 -->
     <g style="fill: #486afb" transform="translate(159.555141 111.604096) rotate(-54.409843) scale(0.08 -0.08)">
      <defs>
       <path id="DejaVuSansMono-37" d="M 434 4666 
L 3372 4666 
L 3372 4397 
L 1703 0 
L 1044 0 
L 2669 4134 
L 434 4134 
L 434 4666 
z
" transform="scale(0.015625)"/>
      </defs>
      <use xlink:href="#DejaVuSansMono-30"/>
      <use xlink:href="#DejaVuSansMono-2e" x="60.205078"/>
      <use xlink:href="#DejaVuSansMono-30" x="120.410156"/>
      <use xlink:href="#DejaVuSansMono-37" x="180.615234"/>
      <use xlink:href="#DejaVuSansMono-35" x="240.820312"/>
     </g>
    </g>
   </g>
  </g>
 </g>
 <defs>
  <clipPath id="p18aa24f158">
   <rect x="39.971875" y="7.2" width="232.54" height="159.28"/>
  </clipPath>
 </defs>
</svg>