<?xml version="1.0" encoding="utf-8" standalone="no"?>
<!DOCTYPE svg PUBLIC "-//W3C//DTD SVG 1.1//EN"
  "http://www.w3.org/Graphics/SVG/1.1/DTD/svg11.dtd">
<svg xmlns:xlink="http://www.w3.org/1999/xlink" width="352.402812pt" height="352.1025pt" viewBox="0 0 352.402812 352.1025" xmlns="http://www.w3.org/2000/svg" version="1.1">
 <metadata>
  <rdf:RDF xmlns:dc="http://purl.org/dc/elements/1.1/" xmlns:cc="http://creativecommons.org/ns#" xmlns:rdf="http://www.w3.org/1999/02/22-rdf-syntax-ns#">
   <cc:Work>
    <dc:type rdf:resource="http://purl.org/dc/dcmitype/StillImage"/>
    <dc:date>2023-12-16T14:58:41.359177</dc:date>
    <dc:format>image/svg+xml</dc:format>
    <dc:creator>
     <cc:Agent>
      <dc:title>Matplotlib v3.8.2, https://matplotlib.org/</dc:title>
     </cc:Agent>
    </dc:creator>
   </cc:Work>
  </rdf:RDF>
 </metadata>
 <defs>
  <style type="text/css">*{stroke-linejoin: round; stroke-linecap: butt}</style>
 </defs>
 <g id="figure_1">
  <g id="patch_1">
   <path d="M 0 352.1025 
L 352.402812 352.1025 
L 352.402812 0 
L 0 0 
z
" style="fill: #ffffff"/>
  </g>
  <g id="axes_1">
   <g id="patch_2">
    <path d="M 45.992188 314.44 
L 333.162188 314.44 
L 333.162188 7.2 
L 45.992188 7.2 
z
" style="fill: #ffffff"/>
   </g>
   <g id="matplotlib.axis_1">
    <g id="xtick_1">
     <g id="line2d_1">
      <path d="M 72.098551 314.44 
L 72.098551 7.2 
" clip-path="url(#pcf0f061ea9)" style="fill: none; stroke-dasharray: 2.22,0.96; stroke-dashoffset: 0; stroke: #6c6066; stroke-opacity: 0.4; stroke-width: 0.6"/>
     </g>
     <g id="line2d_2">
      <defs>
       <path id="md11f71794f" d="M 0 0 
L 0 3.5 
" style="stroke: #000000; stroke-width: 0.8"/>
      </defs>
      <g>
       <use xlink:href="#md11f71794f" x="72.098551" y="314.44" style="stroke: #000000; stroke-width: 0.8"/>
      </g>
     </g>
     <g id="text_1">
      <!-- 500 -->
      <g transform="translate(63.068082 329.091563) scale(0.1 -0.1)">
       <defs>
        <path id="DejaVuSansMono-35" d="M 647 4666 
L 3009 4666 
L 3009 4134 
L 1222 4134 
L 1222 2988 
Q 1356 3038 1492 3061 
Q 1628 3084 1766 3084 
Q 2491 3084 2916 2656 
Q 3341 2228 3341 1497 
Q 3341 759 2895 334 
Q 2450 -91 1678 -91 
Q 1306 -91 998 -41 
Q 691 9 447 109 
L 447 750 
Q 734 594 1025 517 
Q 1316 441 1619 441 
Q 2141 441 2423 716 
Q 2706 991 2706 1497 
Q 2706 1997 2414 2275 
Q 2122 2553 1600 2553 
Q 1347 2553 1106 2495 
Q 866 2438 647 2322 
L 647 4666 
z
" transform="scale(0.015625)"/>
        <path id="DejaVuSansMono-30" d="M 1509 2344 
Q 1509 2516 1629 2641 
Q 1750 2766 1919 2766 
Q 2094 2766 2219 2641 
Q 2344 2516 2344 2344 
Q 2344 2169 2220 2047 
Q 2097 1925 1919 1925 
Q 1744 1925 1626 2044 
Q 1509 2163 1509 2344 
z
M 1925 4250 
Q 1484 4250 1267 3775 
Q 1050 3300 1050 2328 
Q 1050 1359 1267 884 
Q 1484 409 1925 409 
Q 2369 409 2586 884 
Q 2803 1359 2803 2328 
Q 2803 3300 2586 3775 
Q 2369 4250 1925 4250 
z
M 1925 4750 
Q 2672 4750 3055 4137 
Q 3438 3525 3438 2328 
Q 3438 1134 3055 521 
Q 2672 -91 1925 -91 
Q 1178 -91 797 521 
Q 416 1134 416 2328 
Q 416 3525 797 4137 
Q 1178 4750 1925 4750 
z
" transform="scale(0.015625)"/>
       </defs>
       <use xlink:href="#DejaVuSansMono-35"/>
       <use xlink:href="#DejaVuSansMono-30" x="60.205078"/>
       <use xlink:href="#DejaVuSansMono-30" x="120.410156"/>
      </g>
     </g>
    </g>
    <g id="xtick_2">
     <g id="line2d_3">
      <path d="M 124.311278 314.44 
L 124.311278 7.2 
" clip-path="url(#pcf0f061ea9)" style="fill: none; stroke-dasharray: 2.22,0.96; stroke-dashoffset: 0; stroke: #6c6066; stroke-opacity: 0.4; stroke-width: 0.6"/>
     </g>
     <g id="line2d_4">
      <g>
       <use xlink:href="#md11f71794f" x="124.311278" y="314.44" style="stroke: #000000; stroke-width: 0.8"/>
      </g>
     </g>
     <g id="text_2">
      <!-- 1000 -->
      <g transform="translate(112.270653 329.091563) scale(0.1 -0.1)">
       <defs>
        <path id="DejaVuSansMono-31" d="M 844 531 
L 1825 531 
L 1825 4097 
L 769 3859 
L 769 4434 
L 1819 4666 
L 2450 4666 
L 2450 531 
L 3419 531 
L 3419 0 
L 844 0 
L 844 531 
z
" transform="scale(0.015625)"/>
       </defs>
       <use xlink:href="#DejaVuSansMono-31"/>
       <use xlink:href="#DejaVuSansMono-30" x="60.205078"/>
       <use xlink:href="#DejaVuSansMono-30" x="120.410156"/>
       <use xlink:href="#DejaVuSansMono-30" x="180.615234"/>
      </g>
     </g>
    </g>
    <g id="xtick_3">
     <g id="line2d_5">
      <path d="M 176.524006 314.44 
L 176.524006 7.2 
" clip-path="url(#pcf0f061ea9)" style="fill: none; stroke-dasharray: 2.22,0.96; stroke-dashoffset: 0; stroke: #6c6066; stroke-opacity: 0.4; stroke-width: 0.6"/>
     </g>
     <g id="line2d_6">
      <g>
       <use xlink:href="#md11f71794f" x="176.524006" y="314.44" style="stroke: #000000; stroke-width: 0.8"/>
      </g>
     </g>
     <g id="text_3">
      <!-- 1500 -->
      <g transform="translate(164.483381 329.091563) scale(0.1 -0.1)">
       <use xlink:href="#DejaVuSansMono-31"/>
       <use xlink:href="#DejaVuSansMono-35" x="60.205078"/>
       <use xlink:href="#DejaVuSansMono-30" x="120.410156"/>
       <use xlink:href="#DejaVuSansMono-30" x="180.615234"/>
      </g>
     </g>
    </g>
    <g id="xtick_4">
     <g id="line2d_7">
      <path d="M 228.736733 314.44 
L 228.736733 7.2 
" clip-path="url(#pcf0f061ea9)" style="fill: none; stroke-dasharray: 2.22,0.96; stroke-dashoffset: 0; stroke: #6c6066; stroke-opacity: 0.4; stroke-width: 0.6"/>
     </g>
     <g id="line2d_8">
      <g>
       <use xlink:href="#md11f71794f" x="228.736733" y="314.44" style="stroke: #000000; stroke-width: 0.8"/>
      </g>
     </g>
     <g id="text_4">
      <!-- 2000 -->
      <g transform="translate(216.696108 329.091563) scale(0.1 -0.1)">
       <defs>
        <path id="DejaVuSansMono-32" d="M 1166 531 
L 3309 531 
L 3309 0 
L 475 0 
L 475 531 
Q 1059 1147 1496 1619 
Q 1934 2091 2100 2284 
Q 2413 2666 2522 2902 
Q 2631 3138 2631 3384 
Q 2631 3775 2401 3997 
Q 2172 4219 1772 4219 
Q 1488 4219 1175 4116 
Q 863 4013 513 3803 
L 513 4441 
Q 834 4594 1145 4672 
Q 1456 4750 1759 4750 
Q 2444 4750 2861 4386 
Q 3278 4022 3278 3431 
Q 3278 3131 3139 2831 
Q 3000 2531 2688 2169 
Q 2513 1966 2180 1606 
Q 1847 1247 1166 531 
z
" transform="scale(0.015625)"/>
       </defs>
       <use xlink:href="#DejaVuSansMono-32"/>
       <use xlink:href="#DejaVuSansMono-30" x="60.205078"/>
       <use xlink:href="#DejaVuSansMono-30" x="120.410156"/>
       <use xlink:href="#DejaVuSansMono-30" x="180.615234"/>
      </g>
     </g>
    </g>
    <g id="xtick_5">
     <g id="line2d_9">
      <path d="M 280.94946 314.44 
L 280.94946 7.2 
" clip-path="url(#pcf0f061ea9)" style="fill: none; stroke-dasharray: 2.22,0.96; stroke-dashoffset: 0; stroke: #6c6066; stroke-opacity: 0.4; stroke-width: 0.6"/>
     </g>
     <g id="line2d_10">
      <g>
       <use xlink:href="#md11f71794f" x="280.94946" y="314.44" style="stroke: #000000; stroke-width: 0.8"/>
      </g>
     </g>
     <g id="text_5">
      <!-- 2500 -->
      <g transform="translate(268.908835 329.091563) scale(0.1 -0.1)">
       <use xlink:href="#DejaVuSansMono-32"/>
       <use xlink:href="#DejaVuSansMono-35" x="60.205078"/>
       <use xlink:href="#DejaVuSansMono-30" x="120.410156"/>
       <use xlink:href="#DejaVuSansMono-30" x="180.615234"/>
      </g>
     </g>
    </g>
    <g id="xtick_6">
     <g id="line2d_11">
      <path d="M 333.162187 314.44 
L 333.162187 7.2 
" clip-path="url(#pcf0f061ea9)" style="fill: none; stroke-dasharray: 2.22,0.96; stroke-dashoffset: 0; stroke: #6c6066; stroke-opacity: 0.4; stroke-width: 0.6"/>
     </g>
     <g id="line2d_12">
      <g>
       <use xlink:href="#md11f71794f" x="333.162187" y="314.44" style="stroke: #000000; stroke-width: 0.8"/>
      </g>
     </g>
     <g id="text_6">
      <!-- 3000 -->
      <g transform="translate(321.121562 329.091563) scale(0.1 -0.1)">
       <defs>
        <path id="DejaVuSansMono-33" d="M 2425 2497 
Q 2884 2375 3128 2064 
Q 3372 1753 3372 1288 
Q 3372 644 2939 276 
Q 2506 -91 1741 -91 
Q 1419 -91 1084 -31 
Q 750 28 428 141 
L 428 769 
Q 747 603 1056 522 
Q 1366 441 1672 441 
Q 2191 441 2469 675 
Q 2747 909 2747 1350 
Q 2747 1756 2469 1995 
Q 2191 2234 1716 2234 
L 1234 2234 
L 1234 2753 
L 1716 2753 
Q 2150 2753 2394 2943 
Q 2638 3134 2638 3475 
Q 2638 3834 2411 4026 
Q 2184 4219 1766 4219 
Q 1488 4219 1191 4156 
Q 894 4094 569 3969 
L 569 4550 
Q 947 4650 1242 4700 
Q 1538 4750 1766 4750 
Q 2447 4750 2855 4408 
Q 3263 4066 3263 3500 
Q 3263 3116 3048 2859 
Q 2834 2603 2425 2497 
z
" transform="scale(0.015625)"/>
       </defs>
       <use xlink:href="#DejaVuSansMono-33"/>
       <use xlink:href="#DejaVuSansMono-30" x="60.205078"/>
       <use xlink:href="#DejaVuSansMono-30" x="120.410156"/>
       <use xlink:href="#DejaVuSansMono-30" x="180.615234"/>
      </g>
     </g>
    </g>
    <g id="text_7">
     <!-- area -->
     <g transform="translate(177.536563 342.822812) scale(0.1 -0.1)">
      <defs>
       <path id="DejaVuSansMono-61" d="M 2194 1759 
L 2003 1759 
Q 1500 1759 1245 1582 
Q 991 1406 991 1056 
Q 991 741 1181 566 
Q 1372 391 1709 391 
Q 2184 391 2456 720 
Q 2728 1050 2731 1631 
L 2731 1759 
L 2194 1759 
z
M 3309 1997 
L 3309 0 
L 2731 0 
L 2731 519 
Q 2547 206 2267 57 
Q 1988 -91 1588 -91 
Q 1053 -91 734 211 
Q 416 513 416 1019 
Q 416 1603 808 1906 
Q 1200 2209 1959 2209 
L 2731 2209 
L 2731 2300 
Q 2728 2719 2518 2908 
Q 2309 3097 1850 3097 
Q 1556 3097 1256 3012 
Q 956 2928 672 2766 
L 672 3341 
Q 991 3463 1283 3523 
Q 1575 3584 1850 3584 
Q 2284 3584 2592 3456 
Q 2900 3328 3091 3072 
Q 3209 2916 3259 2686 
Q 3309 2456 3309 1997 
z
" transform="scale(0.015625)"/>
       <path id="DejaVuSansMono-72" d="M 3609 2778 
Q 3425 2922 3234 2987 
Q 3044 3053 2816 3053 
Q 2278 3053 1993 2715 
Q 1709 2378 1709 1741 
L 1709 0 
L 1131 0 
L 1131 3500 
L 1709 3500 
L 1709 2816 
Q 1853 3188 2151 3386 
Q 2450 3584 2859 3584 
Q 3072 3584 3256 3531 
Q 3441 3478 3609 3366 
L 3609 2778 
z
" transform="scale(0.015625)"/>
       <path id="DejaVuSansMono-65" d="M 3475 1894 
L 3475 1613 
L 984 1613 
L 984 1594 
Q 984 1022 1282 709 
Q 1581 397 2125 397 
Q 2400 397 2700 484 
Q 3000 572 3341 750 
L 3341 178 
Q 3013 44 2708 -23 
Q 2403 -91 2119 -91 
Q 1303 -91 843 398 
Q 384 888 384 1747 
Q 384 2584 834 3084 
Q 1284 3584 2034 3584 
Q 2703 3584 3089 3131 
Q 3475 2678 3475 1894 
z
M 2900 2063 
Q 2888 2569 2661 2833 
Q 2434 3097 2009 3097 
Q 1594 3097 1325 2822 
Q 1056 2547 1006 2059 
L 2900 2063 
z
" transform="scale(0.015625)"/>
      </defs>
      <use xlink:href="#DejaVuSansMono-61"/>
      <use xlink:href="#DejaVuSansMono-72" x="60.205078"/>
      <use xlink:href="#DejaVuSansMono-65" x="120.410156"/>
      <use xlink:href="#DejaVuSansMono-61" x="180.615234"/>
     </g>
    </g>
   </g>
   <g id="matplotlib.axis_2">
    <g id="ytick_1">
     <g id="line2d_13">
      <path d="M 45.992188 283.716 
L 333.162188 283.716 
" clip-path="url(#pcf0f061ea9)" style="fill: none; stroke-dasharray: 2.22,0.96; stroke-dashoffset: 0; stroke: #6c6066; stroke-opacity: 0.4; stroke-width: 0.6"/>
     </g>
     <g id="line2d_14">
      <defs>
       <path id="m2e884b78c5" d="M 0 0 
L -3.5 0 
" style="stroke: #000000; stroke-width: 0.8"/>
      </defs>
      <g>
       <use xlink:href="#m2e884b78c5" x="45.992188" y="283.716" style="stroke: #000000; stroke-width: 0.8"/>
      </g>
     </g>
     <g id="text_8">
      <!-- 0 -->
      <g transform="translate(32.971875 287.541781) scale(0.1 -0.1)">
       <use xlink:href="#DejaVuSansMono-30"/>
      </g>
     </g>
    </g>
    <g id="ytick_2">
     <g id="line2d_15">
      <path d="M 45.992188 222.268 
L 333.162188 222.268 
" clip-path="url(#pcf0f061ea9)" style="fill: none; stroke-dasharray: 2.22,0.96; stroke-dashoffset: 0; stroke: #6c6066; stroke-opacity: 0.4; stroke-width: 0.6"/>
     </g>
     <g id="line2d_16">
      <g>
       <use xlink:href="#m2e884b78c5" x="45.992188" y="222.268" style="stroke: #000000; stroke-width: 0.8"/>
      </g>
     </g>
     <g id="text_9">
      <!-- 100 -->
      <g transform="translate(20.93125 226.093781) scale(0.1 -0.1)">
       <use xlink:href="#DejaVuSansMono-31"/>
       <use xlink:href="#DejaVuSansMono-30" x="60.205078"/>
       <use xlink:href="#DejaVuSansMono-30" x="120.410156"/>
      </g>
     </g>
    </g>
    <g id="ytick_3">
     <g id="line2d_17">
      <path d="M 45.992188 160.82 
L 333.162188 160.82 
" clip-path="url(#pcf0f061ea9)" style="fill: none; stroke-dasharray: 2.22,0.96; stroke-dashoffset: 0; stroke: #6c6066; stroke-opacity: 0.4; stroke-width: 0.6"/>
     </g>
     <g id="line2d_18">
      <g>
       <use xlink:href="#m2e884b78c5" x="45.992188" y="160.82" style="stroke: #000000; stroke-width: 0.8"/>
      </g>
     </g>
     <g id="text_10">
      <!-- 200 -->
      <g transform="translate(20.93125 164.645781) scale(0.1 -0.1)">
       <use xlink:href="#DejaVuSansMono-32"/>
       <use xlink:href="#DejaVuSansMono-30" x="60.205078"/>
       <use xlink:href="#DejaVuSansMono-30" x="120.410156"/>
      </g>
     </g>
    </g>
    <g id="ytick_4">
     <g id="line2d_19">
      <path d="M 45.992188 99.372 
L 333.162188 99.372 
" clip-path="url(#pcf0f061ea9)" style="fill: none; stroke-dasharray: 2.22,0.96; stroke-dashoffset: 0; stroke: #6c6066; stroke-opacity: 0.4; stroke-width: 0.6"/>
     </g>
     <g id="line2d_20">
      <g>
       <use xlink:href="#m2e884b78c5" x="45.992188" y="99.372" style="stroke: #000000; stroke-width: 0.8"/>
      </g>
     </g>
     <g id="text_11">
      <!-- 300 -->
      <g transform="translate(20.93125 103.197781) scale(0.1 -0.1)">
       <use xlink:href="#DejaVuSansMono-33"/>
       <use xlink:href="#DejaVuSansMono-30" x="60.205078"/>
       <use xlink:href="#DejaVuSansMono-30" x="120.410156"/>
      </g>
     </g>
    </g>
    <g id="ytick_5">
     <g id="line2d_21">
      <path d="M 45.992188 37.924 
L 333.162188 37.924 
" clip-path="url(#pcf0f061ea9)" style="fill: none; stroke-dasharray: 2.22,0.96; stroke-dashoffset: 0; stroke: #6c6066; stroke-opacity: 0.4; stroke-width: 0.6"/>
     </g>
     <g id="line2d_22">
      <g>
       <use xlink:href="#m2e884b78c5" x="45.992188" y="37.924" style="stroke: #000000; stroke-width: 0.8"/>
      </g>
     </g>
     <g id="text_12">
      <!-- 400 -->
      <g transform="translate(20.93125 41.749781) scale(0.1 -0.1)">
       <defs>
        <path id="DejaVuSansMono-34" d="M 2297 4091 
L 825 1625 
L 2297 1625 
L 2297 4091 
z
M 2194 4666 
L 2925 4666 
L 2925 1625 
L 3547 1625 
L 3547 1113 
L 2925 1113 
L 2925 0 
L 2297 0 
L 2297 1113 
L 319 1113 
L 319 1709 
L 2194 4666 
z
" transform="scale(0.015625)"/>
       </defs>
       <use xlink:href="#DejaVuSansMono-34"/>
       <use xlink:href="#DejaVuSansMono-30" x="60.205078"/>
       <use xlink:href="#DejaVuSansMono-30" x="120.410156"/>
      </g>
     </g>
    </g>
    <g id="text_13">
     <!-- price -->
     <g transform="translate(14.851563 175.870781) rotate(-90) scale(0.1 -0.1)">
      <defs>
       <path id="DejaVuSansMono-70" d="M 1172 441 
L 1172 -1331 
L 594 -1331 
L 594 3500 
L 1172 3500 
L 1172 3053 
Q 1316 3313 1555 3448 
Q 1794 3584 2106 3584 
Q 2741 3584 3102 3093 
Q 3463 2603 3463 1734 
Q 3463 881 3100 395 
Q 2738 -91 2106 -91 
Q 1788 -91 1548 45 
Q 1309 181 1172 441 
z
M 2859 1747 
Q 2859 2416 2648 2756 
Q 2438 3097 2022 3097 
Q 1603 3097 1387 2755 
Q 1172 2413 1172 1747 
Q 1172 1084 1387 740 
Q 1603 397 2022 397 
Q 2438 397 2648 737 
Q 2859 1078 2859 1747 
z
" transform="scale(0.015625)"/>
       <path id="DejaVuSansMono-69" d="M 800 3500 
L 2272 3500 
L 2272 447 
L 3413 447 
L 3413 0 
L 556 0 
L 556 447 
L 1697 447 
L 1697 3053 
L 800 3053 
L 800 3500 
z
M 1697 4863 
L 2272 4863 
L 2272 4134 
L 1697 4134 
L 1697 4863 
z
" transform="scale(0.015625)"/>
       <path id="DejaVuSansMono-63" d="M 3316 178 
Q 3084 44 2839 -23 
Q 2594 -91 2338 -91 
Q 1525 -91 1067 396 
Q 609 884 609 1747 
Q 609 2609 1067 3096 
Q 1525 3584 2338 3584 
Q 2591 3584 2831 3518 
Q 3072 3453 3316 3316 
L 3316 2713 
Q 3088 2916 2858 3006 
Q 2628 3097 2338 3097 
Q 1797 3097 1506 2747 
Q 1216 2397 1216 1747 
Q 1216 1100 1508 748 
Q 1800 397 2338 397 
Q 2638 397 2875 489 
Q 3113 581 3316 775 
L 3316 178 
z
" transform="scale(0.015625)"/>
      </defs>
      <use xlink:href="#DejaVuSansMono-70"/>
      <use xlink:href="#DejaVuSansMono-72" x="60.205078"/>
      <use xlink:href="#DejaVuSansMono-69" x="120.410156"/>
      <use xlink:href="#DejaVuSansMono-63" x="180.615234"/>
      <use xlink:href="#DejaVuSansMono-65" x="240.820312"/>
     </g>
    </g>
   </g>
   <g id="QuadContourSet_1">
    <path d="M 86.640407 266.682563 
L 89.846534 266.834697 
L 93.05266 266.736269 
L 95.466634 266.492465 
L 96.258787 266.43096 
L 99.464913 266.075297 
L 102.67104 265.676021 
L 105.877166 265.298766 
L 109.083292 264.980183 
L 112.289419 264.675215 
L 115.495545 264.260294 
L 117.696359 263.809374 
L 118.701672 263.649291 
L 121.907798 262.875279 
L 125.113925 261.81392 
L 126.737227 261.126282 
L 128.320051 260.573004 
L 131.526178 259.206765 
L 133.063244 258.443191 
L 134.732304 257.730616 
L 137.938431 256.172666 
L 138.752619 255.760099 
L 141.144557 254.693887 
L 144.350684 253.107388 
L 144.416783 253.077008 
L 147.55681 251.809932 
L 150.762937 250.394063 
L 150.763309 250.393916 
L 153.969063 249.299867 
L 157.175189 248.126798 
L 158.355094 247.710825 
L 160.381316 247.101765 
L 163.587442 246.140523 
L 166.793569 245.141942 
L 167.228492 245.027733 
L 169.999695 244.410759 
L 173.205822 243.780771 
L 176.411948 243.25469 
L 179.618075 242.820448 
L 182.824201 242.399239 
L 183.168229 242.344642 
L 186.030328 241.951833 
L 189.236454 241.357757 
L 192.442581 240.609276 
L 195.648707 239.713378 
L 195.805275 239.66155 
L 198.854834 238.733358 
L 202.06096 237.577692 
L 203.454387 236.978459 
L 205.267087 236.24859 
L 208.473213 234.714807 
L 209.224012 234.295367 
L 211.679339 232.986627 
L 213.914533 231.612276 
L 214.885466 231.033196 
L 218.041685 228.929184 
L 218.091592 228.896413 
L 221.297719 226.668036 
L 221.894183 226.246092 
L 224.503845 224.366619 
L 225.651788 223.563001 
L 227.709972 222.068532 
L 229.480413 220.879909 
L 230.916098 219.85963 
L 233.581085 218.196818 
L 234.122225 217.830998 
L 237.328351 216.15839 
L 239.145712 215.513726 
L 240.534478 214.955727 
L 243.740604 214.414366 
L 246.946731 214.486429 
L 250.152857 214.679142 
L 253.358984 214.449892 
L 256.56511 213.685046 
L 258.728367 212.830635 
L 259.771236 212.401328 
L 262.977363 210.656722 
L 263.754055 210.147543 
L 266.183489 208.476726 
L 267.512846 207.464452 
L 269.389616 205.93956 
L 270.751097 204.78136 
L 272.595742 203.085738 
L 273.666405 202.098269 
L 275.801869 199.947239 
L 276.342641 199.415177 
L 278.78188 196.732086 
L 279.007995 196.439924 
L 280.912417 194.048994 
L 282.214122 192.156011 
L 282.762466 191.365903 
L 284.273056 188.682811 
L 285.420248 186.302897 
L 285.558029 185.99972 
L 286.752336 183.316628 
L 287.976957 180.633537 
L 288.626375 179.365918 
L 289.273856 177.950445 
L 290.578043 175.267354 
L 291.832501 172.638628 
L 291.856419 172.584262 
L 292.977376 169.901171 
L 293.868564 167.218079 
L 294.430306 164.534988 
L 294.424431 161.851896 
L 293.439009 159.168805 
L 291.832501 157.16032 
L 290.554022 156.485713 
L 288.626375 155.443959 
L 285.420248 155.144186 
L 282.214122 156.092222 
L 281.532514 156.485713 
L 279.007995 157.675182 
L 276.741601 159.168805 
L 275.801869 159.781725 
L 272.595742 161.761577 
L 271.960396 159.168805 
L 272.595742 157.612762 
L 273.340457 156.485713 
L 275.266387 153.802622 
L 275.801869 153.124276 
L 277.973063 151.11953 
L 279.007995 150.197635 
L 281.598611 148.436439 
L 282.214122 148.076534 
L 285.420248 146.64457 
L 286.87709 145.753347 
L 288.626375 145.038482 
L 291.832501 143.118242 
L 291.88674 143.070256 
L 295.038628 141.125666 
L 295.944521 140.387164 
L 298.244754 138.911267 
L 299.776345 137.704073 
L 301.450881 136.570893 
L 303.411735 135.020981 
L 304.657007 134.116136 
L 306.83289 132.33789 
L 307.863134 131.518729 
L 310.013628 129.654798 
L 311.06926 128.720138 
L 312.933811 126.971707 
L 314.275386 125.630085 
L 315.579209 124.288615 
L 317.481513 122.118875 
L 317.932472 121.605524 
L 319.935549 118.922432 
L 320.687639 117.678097 
L 321.590968 116.239341 
L 322.752059 113.556249 
L 323.258218 110.873158 
L 322.459104 108.190066 
L 320.687639 106.600609 
L 318.11884 105.506975 
L 317.481513 105.278217 
L 314.275386 104.259969 
L 311.876844 102.823883 
L 311.06926 100.802142 
L 310.935239 100.140792 
L 311.06926 98.935011 
L 311.227162 97.4577 
L 311.868449 94.774609 
L 312.525692 92.091517 
L 313.050498 89.408426 
L 313.275462 86.725334 
L 312.93684 84.042243 
L 311.724163 81.359151 
L 311.06926 80.458204 
L 309.820341 78.67606 
L 308.183261 75.992968 
L 307.863134 75.256602 
L 307.251278 73.309877 
L 306.639049 70.626785 
L 306.083922 67.943694 
L 305.482204 65.260602 
L 304.871873 62.577511 
L 304.657007 61.247002 
L 304.440473 59.894419 
L 304.374376 57.211328 
L 304.657007 54.975516 
L 304.71373 54.528236 
L 305.377248 51.845145 
L 306.240624 49.162053 
L 307.235388 46.478962 
L 307.863134 44.805014 
L 308.226674 43.79587 
L 308.952264 41.112779 
L 309.312347 38.429687 
L 308.903546 35.746596 
L 307.863134 34.071244 
L 305.986496 33.063504 
L 304.657007 32.550105 
L 301.450881 32.356892 
L 298.244754 32.943087 
L 297.947759 33.063504 
L 295.038628 34.224842 
L 292.712686 35.746596 
L 291.832501 36.281408 
L 289.17561 38.429687 
L 288.626375 38.819663 
L 285.942255 41.112779 
L 285.420248 41.491187 
L 282.626929 43.79587 
L 282.214122 44.082689 
L 279.087519 46.478962 
L 279.007995 46.53096 
L 275.801869 48.708521 
L 275.153787 49.162053 
L 272.595742 50.732275 
L 270.832473 51.845145 
L 269.389616 52.661624 
L 266.183489 54.488268 
L 266.106351 54.528236 
L 262.977363 55.990998 
L 260.197079 57.211328 
L 259.771236 57.382848 
L 256.56511 58.515544 
L 253.358984 59.468605 
L 251.556627 59.894419 
L 250.152857 60.203866 
L 246.946731 60.648965 
L 243.740604 60.625282 
L 241.374263 59.894419 
L 240.534478 59.360587 
L 239.322811 57.211328 
L 238.992439 54.528236 
L 239.068326 51.845145 
L 239.222239 49.162053 
L 239.353489 46.478962 
L 239.488606 43.79587 
L 239.698894 41.112779 
L 240.017824 38.429687 
L 240.421909 35.746596 
L 240.534478 35.006566 
L 240.855227 33.063504 
L 241.127676 30.380413 
L 240.99583 27.697321 
L 240.534478 26.345225 
L 239.654205 25.01423 
L 237.328351 23.630233 
L 234.122225 23.188318 
L 230.916098 23.421846 
L 227.709972 24.151823 
L 225.561698 25.01423 
L 224.503845 25.371362 
L 221.297719 26.949437 
L 220.163062 27.697321 
L 218.091592 28.877202 
L 215.984191 30.380413 
L 214.885466 31.081596 
L 212.273907 33.063504 
L 211.679339 33.482234 
L 208.866813 35.746596 
L 208.473213 36.052291 
L 205.705385 38.429687 
L 205.267087 38.808132 
L 202.778208 41.112779 
L 202.06096 41.810211 
L 200.097004 43.79587 
L 198.854834 45.176801 
L 197.6912 46.478962 
L 195.648707 49.11587 
L 195.611925 49.162053 
L 193.711954 51.845145 
L 192.442581 54.068286 
L 192.161645 54.528236 
L 190.820512 57.211328 
L 189.790348 59.894419 
L 189.236454 61.747009 
L 188.963204 62.577511 
L 188.274911 65.260602 
L 187.61994 67.943694 
L 186.814187 70.626785 
L 186.030328 72.552946 
L 185.713656 73.309877 
L 184.228935 75.992968 
L 182.824201 78.285432 
L 182.577258 78.67606 
L 180.650415 81.359151 
L 179.618075 82.805338 
L 178.689764 84.042243 
L 176.747224 86.725334 
L 176.411948 87.193962 
L 174.703646 89.408426 
L 173.205822 91.596863 
L 172.830066 92.091517 
L 170.896705 94.774609 
L 169.999695 96.169979 
L 169.063729 97.4577 
L 167.318876 100.140792 
L 166.793569 101.016496 
L 165.55394 102.823883 
L 163.948544 105.506975 
L 163.587442 106.14289 
L 162.252298 108.190066 
L 160.724841 110.873158 
L 160.381316 111.492387 
L 159.065816 113.556249 
L 157.544798 116.239341 
L 157.175189 116.894699 
L 155.864256 118.922432 
L 154.296691 121.605524 
L 153.969063 122.160672 
L 152.536724 124.288615 
L 150.912285 126.971707 
L 150.762937 127.211954 
L 149.044161 129.654798 
L 147.55681 132.024831 
L 147.332176 132.33789 
L 145.415769 135.020981 
L 144.350684 136.653512 
L 143.572935 137.704073 
L 141.696096 140.387164 
L 141.144557 141.201506 
L 139.717394 143.070256 
L 137.938431 145.669584 
L 137.872991 145.753347 
L 135.735798 148.436439 
L 134.732304 149.802373 
L 133.639553 151.11953 
L 131.57146 153.802622 
L 131.526178 153.858167 
L 129.155462 156.485713 
L 128.320051 157.450437 
L 126.68888 159.168805 
L 125.113925 160.867588 
L 124.131615 161.851896 
L 121.907798 164.094137 
L 121.448123 164.534988 
L 118.701672 167.148546 
L 118.626674 167.218079 
L 115.627245 169.901171 
L 115.495545 170.014473 
L 112.554655 172.584262 
L 112.289419 172.810237 
L 109.472808 175.267354 
L 109.083292 175.603498 
L 106.422144 177.950445 
L 105.877166 178.436504 
L 103.439038 180.633537 
L 102.67104 181.353416 
L 100.556839 183.316628 
L 99.464913 184.406602 
L 97.810688 185.99972 
L 96.258787 187.665673 
L 95.244991 188.682811 
L 93.05266 191.230737 
L 92.923692 191.365903 
L 90.48815 194.048994 
L 89.846534 194.896334 
L 88.234551 196.732086 
L 86.640407 199.034661 
L 86.322298 199.415177 
L 84.284774 202.098269 
L 83.434281 203.524962 
L 82.486864 204.78136 
L 80.825716 207.464452 
L 80.228154 208.63576 
L 79.210966 210.147543 
L 77.749221 212.830635 
L 77.022028 214.46933 
L 76.39153 215.513726 
L 74.997664 218.196818 
L 73.888549 220.879909 
L 73.815901 221.06386 
L 72.476001 223.563001 
L 71.271003 226.246092 
L 70.609775 227.852651 
L 70.017484 228.929184 
L 68.659383 231.612276 
L 67.475207 234.295367 
L 67.403648 234.465882 
L 66.047993 236.978459 
L 64.824011 239.66155 
L 64.197522 241.241383 
L 63.640616 242.344642 
L 62.545671 245.027733 
L 61.709433 247.710825 
L 61.153625 250.393916 
L 61.000158 253.077008 
L 61.507037 255.760099 
L 63.080269 258.443191 
L 64.197522 259.563558 
L 66.188858 261.126282 
L 67.403648 261.879815 
L 70.609775 263.406955 
L 71.761657 263.809374 
L 73.815901 264.473084 
L 77.022028 265.256045 
L 80.228154 265.860857 
L 83.434281 266.332892 
L 85.007341 266.492465 
L 86.640407 266.682563 
z
" clip-path="url(#pcf0f061ea9)" style="fill: none; stroke: #486afb; stroke-width: 2"/>
    <path d="M 102.67104 247.839553 
L 105.186788 247.710825 
L 105.877166 247.680655 
L 109.083292 247.312701 
L 112.289419 246.808467 
L 115.495545 246.240703 
L 118.701672 245.663237 
L 121.907798 245.098683 
L 122.313441 245.027733 
L 125.113925 244.590141 
L 128.320051 244.003999 
L 131.526178 243.246244 
L 134.437321 242.344642 
L 134.732304 242.26344 
L 137.938431 241.165733 
L 141.144557 239.833247 
L 141.512935 239.66155 
L 144.350684 238.462345 
L 147.455377 236.978459 
L 147.55681 236.934015 
L 150.762937 235.477022 
L 153.172625 234.295367 
L 153.969063 233.931662 
L 157.175189 232.450651 
L 158.93147 231.612276 
L 160.381316 230.960742 
L 163.587442 229.501539 
L 164.848638 228.929184 
L 166.793569 228.095326 
L 169.999695 226.704848 
L 171.079953 226.246092 
L 173.205822 225.395745 
L 176.411948 224.103037 
L 177.750971 223.563001 
L 179.618075 222.855705 
L 182.824201 221.604 
L 184.569211 220.879909 
L 186.030328 220.307062 
L 189.236454 218.947904 
L 190.825431 218.196818 
L 192.442581 217.461481 
L 195.648707 215.812777 
L 196.181794 215.513726 
L 198.854834 214.030556 
L 200.784917 212.830635 
L 202.06096 212.023361 
L 204.794755 210.147543 
L 205.267087 209.807685 
L 208.373675 207.464452 
L 208.473213 207.383277 
L 211.617524 204.78136 
L 211.679339 204.724373 
L 214.567632 202.098269 
L 214.885466 201.767141 
L 217.225283 199.415177 
L 218.091592 198.392059 
L 219.568935 196.732086 
L 221.297719 194.402092 
L 221.574744 194.048994 
L 223.33711 191.365903 
L 224.503845 189.135434 
L 224.758404 188.682811 
L 225.925354 185.99972 
L 226.80725 183.316628 
L 227.477506 180.633537 
L 227.709972 179.573154 
L 228.093576 177.950445 
L 228.828398 175.267354 
L 229.756466 172.584262 
L 230.869212 169.901171 
L 230.916098 169.810229 
L 232.33898 167.218079 
L 233.89364 164.534988 
L 234.122225 164.168799 
L 235.67897 161.851896 
L 237.328351 159.363646 
L 237.467442 159.168805 
L 239.392093 156.485713 
L 240.534478 154.789865 
L 241.266549 153.802622 
L 243.112193 151.11953 
L 243.740604 150.088 
L 244.873303 148.436439 
L 246.471762 145.753347 
L 246.946731 144.765114 
L 247.882635 143.070256 
L 249.026106 140.387164 
L 249.796976 137.704073 
L 250.137073 135.020981 
L 249.991035 132.33789 
L 249.292527 129.654798 
L 247.968893 126.971707 
L 246.946731 125.548178 
L 245.910117 124.288615 
L 243.740604 122.398842 
L 242.348675 121.605524 
L 240.534478 120.812105 
L 237.328351 120.060784 
L 234.122225 119.7014 
L 230.916098 119.496453 
L 227.709972 119.316659 
L 224.503845 119.090065 
L 222.90923 118.922432 
L 221.297719 118.729594 
L 218.091592 118.081827 
L 214.885466 116.956519 
L 213.547837 116.239341 
L 211.679339 115.005363 
L 209.870929 113.556249 
L 208.473213 112.333488 
L 206.730074 110.873158 
L 205.267087 109.583171 
L 203.398479 108.190066 
L 202.06096 107.054504 
L 199.669253 105.506975 
L 198.854834 104.905111 
L 195.648707 103.749285 
L 192.442581 104.090532 
L 189.638611 105.506975 
L 189.236454 105.683699 
L 186.030328 108.190066 
L 186.030328 108.190066 
L 183.345818 110.873158 
L 182.824201 111.344507 
L 180.927827 113.556249 
L 179.618075 114.964716 
L 178.628813 116.239341 
L 176.411948 118.918676 
L 176.409207 118.922432 
L 174.333001 121.605524 
L 173.205822 122.969597 
L 172.218249 124.288615 
L 170.090094 126.971707 
L 169.999695 127.07592 
L 167.932023 129.654798 
L 166.793569 130.990979 
L 165.7066 132.33789 
L 163.587442 134.833315 
L 163.433854 135.020981 
L 161.079674 137.704073 
L 160.381316 138.457003 
L 158.664878 140.387164 
L 157.175189 142.002832 
L 156.222423 143.070256 
L 153.969063 145.539371 
L 153.778073 145.753347 
L 151.28477 148.436439 
L 150.762937 148.981444 
L 148.76776 151.11953 
L 147.55681 152.402052 
L 146.24968 153.802622 
L 144.350684 155.822186 
L 143.725141 156.485713 
L 141.17046 159.168805 
L 141.144557 159.194296 
L 138.44994 161.851896 
L 137.938431 162.339164 
L 135.622549 164.534988 
L 134.732304 165.343642 
L 132.657336 167.218079 
L 131.526178 168.189135 
L 129.532519 169.901171 
L 128.320051 170.885048 
L 126.250724 172.584262 
L 125.113925 173.465351 
L 122.849468 175.267354 
L 121.907798 175.97805 
L 119.396983 177.950445 
L 118.701672 178.47434 
L 115.973126 180.633537 
L 115.495545 181.002455 
L 112.647536 183.316628 
L 112.289419 183.607365 
L 109.468165 185.99972 
L 109.083292 186.335059 
L 106.463352 188.682811 
L 105.877166 189.239965 
L 103.652179 191.365903 
L 102.67104 192.39515 
L 101.057031 194.048994 
L 99.464913 195.906289 
L 98.715742 196.732086 
L 96.580122 199.415177 
L 96.258787 199.870549 
L 94.519958 202.098269 
L 93.05266 204.44007 
L 92.807071 204.78136 
L 91.105342 207.464452 
L 89.846534 209.995919 
L 89.756136 210.147543 
L 88.368896 212.830635 
L 87.274129 215.513726 
L 86.640407 217.390899 
L 86.302671 218.196818 
L 85.375261 220.879909 
L 84.625366 223.563001 
L 84.015791 226.246092 
L 83.541307 228.929184 
L 83.434281 229.944342 
L 83.216101 231.612276 
L 83.173389 234.295367 
L 83.434281 236.199783 
L 83.55553 236.978459 
L 84.584675 239.66155 
L 86.619124 242.344642 
L 86.640407 242.365379 
L 89.846534 244.720467 
L 90.451904 245.027733 
L 93.05266 246.202466 
L 96.258787 247.150101 
L 99.464913 247.672127 
L 100.213637 247.710825 
L 102.67104 247.839553 
z
" clip-path="url(#pcf0f061ea9)" style="fill: none; stroke: #486afb; stroke-width: 2"/>
    <path d="M 99.464913 234.580802 
L 102.67104 235.789303 
L 105.877166 236.408213 
L 109.083292 236.601566 
L 112.289419 236.462645 
L 115.495545 236.068439 
L 118.701672 235.493043 
L 121.907798 234.805287 
L 124.150514 234.295367 
L 125.113925 234.087142 
L 128.320051 233.401742 
L 131.526178 232.701761 
L 134.732304 231.956551 
L 136.033544 231.612276 
L 137.938431 231.134812 
L 141.144557 230.185635 
L 144.350684 229.07395 
L 144.708141 228.929184 
L 147.55681 227.843242 
L 150.762937 226.474751 
L 151.250194 226.246092 
L 153.969063 225.027988 
L 156.977253 223.563001 
L 157.175189 223.469679 
L 160.381316 221.889049 
L 162.32708 220.879909 
L 163.587442 220.235834 
L 166.793569 218.563122 
L 167.503794 218.196818 
L 169.999695 216.908459 
L 172.694481 215.513726 
L 173.205822 215.244699 
L 176.411948 213.642475 
L 178.074104 212.830635 
L 179.618075 212.051457 
L 182.824201 210.45703 
L 183.453683 210.147543 
L 186.030328 208.811377 
L 188.500554 207.464452 
L 189.236454 207.02869 
L 192.442581 205.016537 
L 192.793052 204.78136 
L 195.648707 202.62519 
L 196.299199 202.098269 
L 198.854834 199.678968 
L 199.120236 199.415177 
L 201.383317 196.732086 
L 202.06096 195.741953 
L 203.200626 194.048994 
L 204.669196 191.365903 
L 205.267087 190.096109 
L 205.939818 188.682811 
L 207.135237 185.99972 
L 208.284203 183.316628 
L 208.473213 182.912646 
L 209.571946 180.633537 
L 210.895119 177.950445 
L 211.679339 176.420129 
L 212.300597 175.267354 
L 213.771902 172.584262 
L 214.885466 170.499511 
L 215.228567 169.901171 
L 216.709081 167.218079 
L 218.074687 164.534988 
L 218.091592 164.49738 
L 219.401638 161.851896 
L 220.544859 159.168805 
L 221.297719 156.998737 
L 221.49647 156.485713 
L 222.201647 153.802622 
L 222.549954 151.11953 
L 222.411983 148.436439 
L 221.563067 145.753347 
L 221.297719 145.315233 
L 219.473188 143.070256 
L 218.091592 142.00604 
L 214.885466 140.387164 
L 214.885466 140.387164 
L 211.679339 139.476751 
L 208.473213 138.899756 
L 205.267087 138.468623 
L 202.06096 138.029573 
L 200.148238 137.704073 
L 198.854834 137.449452 
L 195.648707 136.675132 
L 192.442581 135.909918 
L 189.236454 135.472277 
L 186.030328 135.621888 
L 182.824201 136.407512 
L 179.703265 137.704073 
L 179.618075 137.735661 
L 176.411948 139.434953 
L 174.960982 140.387164 
L 173.205822 141.423805 
L 170.85557 143.070256 
L 169.999695 143.612373 
L 167.080684 145.753347 
L 166.793569 145.944728 
L 163.587442 148.388993 
L 163.531899 148.436439 
L 160.381316 150.927109 
L 160.162088 151.11953 
L 157.175189 153.561338 
L 156.907206 153.802622 
L 153.969063 156.277999 
L 153.74287 156.485713 
L 150.762937 159.052466 
L 150.637454 159.168805 
L 147.55681 161.848123 
L 147.552724 161.851896 
L 144.443954 164.534988 
L 144.350684 164.60905 
L 141.266517 167.218079 
L 141.144557 167.312981 
L 137.988646 169.901171 
L 137.938431 169.939112 
L 134.732304 172.461066 
L 134.579758 172.584262 
L 131.526178 174.885771 
L 131.035236 175.267354 
L 128.320051 177.249019 
L 127.393796 177.950445 
L 125.113925 179.588917 
L 123.723276 180.633537 
L 121.907798 181.947693 
L 120.108905 183.316628 
L 118.701672 184.369283 
L 116.63154 185.99972 
L 115.495545 186.900661 
L 113.351347 188.682811 
L 112.289419 189.596694 
L 110.304525 191.365903 
L 109.083292 192.528465 
L 107.511864 194.048994 
L 105.877166 195.795661 
L 104.993098 196.732086 
L 102.764717 199.415177 
L 102.67104 199.541058 
L 100.678322 202.098269 
L 99.464913 203.983834 
L 98.909137 204.78136 
L 97.332366 207.464452 
L 96.258787 209.736342 
L 96.039595 210.147543 
L 94.889501 212.830635 
L 94.019056 215.513726 
L 93.385244 218.196818 
L 93.05266 220.447599 
L 92.97788 220.879909 
L 92.84573 223.563001 
L 93.05266 225.869743 
L 93.091576 226.246092 
L 93.893331 228.929184 
L 95.558442 231.612276 
L 96.258787 232.371752 
L 98.969657 234.295367 
L 99.464913 234.580802 
z
" clip-path="url(#pcf0f061ea9)" style="fill: none; stroke: #486afb; stroke-width: 2"/>
    <path d="M 105.877166 227.642815 
L 109.083292 228.439709 
L 112.289419 228.669435 
L 115.495545 228.505475 
L 118.701672 228.039222 
L 121.907798 227.333399 
L 125.113925 226.441836 
L 125.765701 226.246092 
L 128.320051 225.506068 
L 131.526178 224.523521 
L 134.628542 223.563001 
L 134.732304 223.531061 
L 137.938431 222.631088 
L 141.144557 221.735371 
L 144.178303 220.879909 
L 144.350684 220.831181 
L 147.55681 219.848482 
L 150.762937 218.746999 
L 152.157311 218.196818 
L 153.969063 217.485814 
L 157.175189 216.075209 
L 158.325392 215.513726 
L 160.381316 214.504677 
L 163.57095 212.830635 
L 163.587442 212.821815 
L 166.793569 210.999747 
L 168.252175 210.147543 
L 169.999695 209.08635 
L 172.634379 207.464452 
L 173.205822 207.092778 
L 176.411948 205.005331 
L 176.760708 204.78136 
L 179.618075 202.787167 
L 180.605903 202.098269 
L 182.824201 200.386165 
L 184.066687 199.415177 
L 186.030328 197.691297 
L 187.092772 196.732086 
L 189.236454 194.538754 
L 189.696235 194.048994 
L 191.961141 191.365903 
L 192.442581 190.747766 
L 193.981311 188.682811 
L 195.648707 186.255642 
L 195.817924 185.99972 
L 197.558018 183.316628 
L 198.854834 181.228094 
L 199.216291 180.633537 
L 200.808505 177.950445 
L 202.06096 175.727604 
L 202.321335 175.267354 
L 203.72586 172.584262 
L 204.983198 169.901171 
L 205.267087 169.157846 
L 206.040141 167.218079 
L 206.815858 164.534988 
L 207.216674 161.851896 
L 207.062695 159.168805 
L 206.00588 156.485713 
L 205.267087 155.581901 
L 202.822687 153.802622 
L 202.06096 153.431119 
L 198.854834 152.490382 
L 195.648707 151.977387 
L 192.442581 151.688649 
L 189.236454 151.554093 
L 186.030328 151.580307 
L 182.824201 151.809072 
L 179.618075 152.284813 
L 176.411948 153.034627 
L 174.014439 153.802622 
L 173.205822 154.034585 
L 169.999695 155.214265 
L 167.159517 156.485713 
L 166.793569 156.633196 
L 163.587442 158.194565 
L 161.889476 159.168805 
L 160.381316 159.947125 
L 157.215392 161.851896 
L 157.175189 161.87364 
L 153.969063 163.898584 
L 153.083728 164.534988 
L 150.762937 166.035575 
L 149.133539 167.218079 
L 147.55681 168.248167 
L 145.270301 169.901171 
L 144.350684 170.501542 
L 141.429117 172.584262 
L 141.144557 172.768619 
L 137.938431 175.006149 
L 137.584686 175.267354 
L 134.732304 177.21599 
L 133.713035 177.950445 
L 131.526178 179.42745 
L 129.830198 180.633537 
L 128.320051 181.657015 
L 125.995108 183.316628 
L 125.113925 183.928232 
L 122.282663 185.99972 
L 121.907798 186.272676 
L 118.766085 188.682811 
L 118.701672 188.733298 
L 115.501105 191.365903 
L 115.495545 191.370712 
L 112.519328 194.048994 
L 112.289419 194.273524 
L 109.833439 196.732086 
L 109.083292 197.574529 
L 107.450909 199.415177 
L 105.877166 201.47519 
L 105.390556 202.098269 
L 103.607349 204.78136 
L 102.67104 206.506304 
L 102.12019 207.464452 
L 100.919974 210.147543 
L 100.040248 212.830635 
L 99.476295 215.513726 
L 99.464913 215.695528 
L 99.293051 218.196818 
L 99.464913 219.791798 
L 99.61161 220.879909 
L 100.72942 223.563001 
L 102.67104 225.856526 
L 103.232874 226.246092 
L 105.877166 227.642815 
z
" clip-path="url(#pcf0f061ea9)" style="fill: none; stroke: #486afb; stroke-width: 2"/>
    <path d="M 109.083292 222.286718 
L 112.289419 223.095147 
L 115.495545 223.21473 
L 118.701672 222.891748 
L 121.907798 222.238074 
L 125.113925 221.311173 
L 126.349884 220.879909 
L 128.320051 220.215364 
L 131.526178 218.993367 
L 133.489583 218.196818 
L 134.732304 217.690407 
L 137.938431 216.385921 
L 140.117255 215.513726 
L 141.144557 215.088293 
L 144.350684 213.862812 
L 147.150847 212.830635 
L 147.55681 212.673827 
L 150.762937 211.519967 
L 153.969063 210.321213 
L 154.400116 210.147543 
L 157.175189 208.991478 
L 160.381316 207.523107 
L 160.494853 207.464452 
L 163.587442 205.809111 
L 165.36036 204.78136 
L 166.793569 203.915145 
L 169.594012 202.098269 
L 169.999695 201.822293 
L 173.205822 199.497501 
L 173.31482 199.415177 
L 176.411948 196.913682 
L 176.629004 196.732086 
L 179.614299 194.048994 
L 179.618075 194.0454 
L 182.29419 191.365903 
L 182.824201 190.804132 
L 184.728131 188.682811 
L 186.030328 187.149228 
L 186.959746 185.99972 
L 189.015463 183.316628 
L 189.236454 183.008684 
L 190.877824 180.633537 
L 192.442581 178.179625 
L 192.584612 177.950445 
L 194.038701 175.267354 
L 195.246054 172.584262 
L 195.648707 171.249654 
L 196.061673 169.901171 
L 196.30524 167.218079 
L 195.648707 164.534988 
L 195.648707 164.534988 
L 192.641848 161.851896 
L 192.442581 161.753874 
L 189.236454 160.81004 
L 186.030328 160.411106 
L 182.824201 160.380548 
L 179.618075 160.646307 
L 176.411948 161.173723 
L 173.56961 161.851896 
L 173.205822 161.933213 
L 169.999695 162.838934 
L 166.793569 163.907021 
L 165.159479 164.534988 
L 163.587442 165.09992 
L 160.381316 166.402889 
L 158.625768 167.218079 
L 157.175189 167.838506 
L 153.969063 169.39423 
L 153.065005 169.901171 
L 150.762937 171.070374 
L 148.094415 172.584262 
L 147.55681 172.861289 
L 144.350684 174.722998 
L 143.504335 175.267354 
L 141.144557 176.653537 
L 139.112816 177.950445 
L 137.938431 178.644416 
L 134.816073 180.633537 
L 134.732304 180.683823 
L 131.526178 182.75144 
L 130.700018 183.316628 
L 128.320051 184.891537 
L 126.738075 185.99972 
L 125.113925 187.126888 
L 122.99273 188.682811 
L 121.907798 189.49255 
L 119.52625 191.365903 
L 118.701672 192.045411 
L 116.381354 194.048994 
L 115.495545 194.875875 
L 113.578229 196.732086 
L 112.289419 198.12657 
L 111.122906 199.415177 
L 109.083292 202.0216 
L 109.023261 202.098269 
L 107.270927 204.78136 
L 105.877166 207.442186 
L 105.865146 207.464452 
L 104.845396 210.147543 
L 104.24861 212.830635 
L 104.160571 215.513726 
L 104.790229 218.196818 
L 105.877166 220.007975 
L 106.775877 220.879909 
L 109.083292 222.286718 
z
" clip-path="url(#pcf0f061ea9)" style="fill: none; stroke: #486afb; stroke-width: 2"/>
    <path clip-path="url(#pcf0f061ea9)" style="fill: none; stroke: #486afb; stroke-width: 2"/>
   </g>
   <g id="QuadContourSet_2">
    <path d="M 99.464913 297.711066 
L 100.701398 297.643008 
L 102.67104 297.560538 
L 105.877166 296.808147 
L 109.083292 295.850115 
L 111.971335 294.86092 
L 112.289419 294.768775 
L 115.495545 293.745826 
L 118.701672 292.685776 
L 120.458579 292.078833 
L 121.907798 291.648452 
L 125.113925 290.646508 
L 128.320051 289.480599 
L 128.75907 289.296746 
L 131.526178 288.291596 
L 134.732304 286.823288 
L 135.302499 286.514659 
L 137.938431 285.236359 
L 140.449919 283.732572 
L 141.144557 283.351929 
L 144.350684 281.292575 
L 144.826693 280.950485 
L 147.55681 279.07416 
L 148.729969 278.168398 
L 150.762937 276.636237 
L 152.281053 275.386311 
L 153.969063 274.00463 
L 155.57874 272.604224 
L 157.175189 271.203824 
L 158.696936 269.822136 
L 160.381316 268.267139 
L 161.698036 267.040049 
L 163.587442 265.246374 
L 164.642674 264.257962 
L 166.793569 262.214581 
L 167.597156 261.475875 
L 169.999695 259.256651 
L 170.638518 258.693788 
L 173.205822 256.448816 
L 173.85397 255.911701 
L 176.411948 253.836057 
L 177.326556 253.129614 
L 179.618075 251.418427 
L 181.098023 250.347527 
L 182.824201 249.152374 
L 185.11837 247.56544 
L 186.030328 246.965693 
L 189.229569 244.783352 
L 189.236454 244.778892 
L 192.442581 242.733653 
L 193.479147 242.001265 
L 195.648707 240.522936 
L 197.34888 239.219178 
L 198.854834 238.092355 
L 200.829193 236.437091 
L 202.06096 235.412572 
L 203.982304 233.655004 
L 205.267087 232.466519 
L 206.876743 230.872917 
L 208.473213 229.244761 
L 209.56441 228.09083 
L 211.679339 225.753661 
L 212.080697 225.308743 
L 214.561551 222.526656 
L 214.885466 222.153803 
L 217.073572 219.744568 
L 218.091592 218.553897 
L 219.553973 216.962481 
L 221.297719 214.96374 
L 222.049173 214.180394 
L 224.503845 211.51261 
L 224.621399 211.398307 
L 227.435691 208.61622 
L 227.709972 208.335509 
L 230.441029 205.834133 
L 230.916098 205.380202 
L 233.622338 203.052046 
L 234.122225 202.599728 
L 236.953549 200.269959 
L 237.328351 199.941638 
L 240.37595 197.487872 
L 240.534478 197.350512 
L 243.740604 194.789767 
L 243.855462 194.705785 
L 246.946731 192.233723 
L 247.35284 191.923697 
L 250.152857 189.628861 
L 250.755324 189.14161 
L 253.358984 186.958604 
L 254.058418 186.359523 
L 256.56511 184.223094 
L 257.285188 183.577436 
L 259.771236 181.429651 
L 260.455934 180.795349 
L 262.977363 178.57479 
L 263.567591 178.013262 
L 266.183489 175.63255 
L 266.592802 175.231175 
L 269.389616 172.552684 
L 269.491018 172.449088 
L 272.239724 169.667001 
L 272.595742 169.291933 
L 274.805066 166.884913 
L 275.801869 165.723429 
L 277.17028 164.102826 
L 279.007995 161.740738 
L 279.33584 161.320739 
L 281.377345 158.538652 
L 282.214122 157.321632 
L 283.318864 155.756565 
L 285.20699 152.974478 
L 285.420248 152.671652 
L 287.21317 150.192391 
L 288.626375 148.265679 
L 289.275294 147.410304 
L 291.475099 144.628217 
L 291.832501 144.20169 
L 293.849585 141.846129 
L 295.038628 140.448558 
L 296.252597 139.064042 
L 298.244754 136.708291 
L 298.619777 136.281955 
L 301.001614 133.499868 
L 301.450881 132.942138 
L 303.332937 130.717781 
L 304.657007 128.95581 
L 305.472562 127.935694 
L 307.461024 125.153607 
L 307.863134 124.528766 
L 309.368477 122.37152 
L 310.975481 119.589433 
L 311.06926 119.409478 
L 312.572071 116.807345 
L 313.865343 114.025258 
L 314.275386 112.989929 
L 315.063127 111.243171 
L 316.084197 108.461084 
L 316.886601 105.678997 
L 317.481513 103.019228 
L 317.514016 102.89691 
L 318.006616 100.114823 
L 318.229614 97.332736 
L 318.15462 94.550649 
L 317.816246 91.768561 
L 317.481513 89.068613 
L 317.472431 88.986474 
L 317.481513 88.66555 
L 317.562162 86.204387 
L 318.289402 83.4223 
L 319.45625 80.640213 
L 320.687639 78.143549 
L 320.840962 77.858126 
L 322.485945 75.076039 
L 323.893766 72.385447 
L 323.946266 72.293952 
L 325.434823 69.511865 
L 326.593919 66.729777 
L 327.099892 65.191279 
L 327.554994 63.94769 
L 328.258083 61.165603 
L 328.642685 58.383516 
L 328.72653 55.601429 
L 328.518893 52.819342 
L 328.020276 50.037255 
L 327.173066 47.255168 
L 327.099892 47.089124 
L 325.55075 44.473081 
L 323.893766 42.964495 
L 320.687639 41.703173 
L 320.577098 41.690994 
L 317.481513 41.410407 
L 314.275386 41.531247 
L 312.810629 41.690994 
L 311.06926 41.859401 
L 307.863134 42.253506 
L 304.657007 42.658045 
L 301.450881 43.011835 
L 298.244754 43.239056 
L 295.038628 43.250952 
L 291.832501 43.018995 
L 288.626375 42.749722 
L 285.420248 42.860949 
L 282.214122 43.552174 
L 279.722444 44.473081 
L 279.007995 44.691766 
L 275.801869 46.05191 
L 273.358551 47.255168 
L 272.595742 47.582025 
L 269.389616 49.127817 
L 267.640094 50.037255 
L 266.183489 50.718995 
L 262.977363 52.305252 
L 261.970744 52.819342 
L 259.771236 53.862717 
L 256.56511 55.43736 
L 256.207882 55.601429 
L 253.358984 56.864769 
L 250.152857 58.239459 
L 249.708599 58.383516 
L 246.946731 59.287295 
L 243.740604 59.982757 
L 240.534478 60.177566 
L 237.328351 59.953728 
L 234.122225 59.687541 
L 230.916098 59.647619 
L 227.709972 59.860179 
L 224.503845 60.274756 
L 221.297719 60.87087 
L 220.022259 61.165603 
L 218.091592 61.543461 
L 214.885466 62.388979 
L 211.679339 63.557642 
L 210.820043 63.94769 
L 208.473213 64.848983 
L 205.267087 66.361082 
L 204.57842 66.729777 
L 202.06096 67.910382 
L 199.008612 69.511865 
L 198.854834 69.583016 
L 195.648707 71.244297 
L 193.78252 72.293952 
L 192.442581 72.977599 
L 189.236454 74.77067 
L 188.73516 75.076039 
L 186.030328 76.594537 
L 183.963625 77.858126 
L 182.824201 78.503563 
L 179.618075 80.477681 
L 179.3681 80.640213 
L 176.411948 82.455645 
L 174.931425 83.4223 
L 173.205822 84.493919 
L 170.606034 86.204387 
L 169.999695 86.586449 
L 166.793569 88.679395 
L 166.326252 88.986474 
L 163.587442 90.752304 
L 162.077702 91.768561 
L 160.381316 92.895124 
L 158.009661 94.550649 
L 157.175189 95.127567 
L 154.155942 97.332736 
L 153.969063 97.468139 
L 150.762937 99.861291 
L 150.439009 100.114823 
L 147.55681 102.35295 
L 146.895532 102.89691 
L 144.350684 104.955947 
L 143.496146 105.678997 
L 141.144557 107.617007 
L 140.152721 108.461084 
L 137.938431 110.280829 
L 136.794985 111.243171 
L 134.732304 112.911102 
L 133.384855 114.025258 
L 131.526178 115.501648 
L 129.926764 116.807345 
L 128.320051 118.073826 
L 126.464896 119.589433 
L 125.113925 120.665808 
L 123.062995 122.37152 
L 121.907798 123.321939 
L 119.779027 125.153607 
L 118.701672 126.087422 
L 116.652531 127.935694 
L 115.495545 129.010275 
L 113.708671 130.717781 
L 112.289419 132.151014 
L 110.97005 133.499868 
L 109.083292 135.600967 
L 108.467478 136.281955 
L 106.170053 139.064042 
L 105.877166 139.452149 
L 104.002312 141.846129 
L 102.67104 143.879717 
L 102.149963 144.628217 
L 100.406542 147.410304 
L 99.464913 149.220458 
L 98.906884 150.192391 
L 97.469074 152.974478 
L 96.299546 155.756565 
L 96.258787 155.855301 
L 94.986331 158.538652 
L 93.840751 161.320739 
L 93.05266 163.375374 
L 92.724673 164.102826 
L 91.455039 166.884913 
L 90.284396 169.667001 
L 89.846534 170.701047 
L 88.974058 172.449088 
L 87.657076 175.231175 
L 86.640407 177.548949 
L 86.399107 178.013262 
L 85.032588 180.795349 
L 83.843472 183.577436 
L 83.434281 184.660394 
L 82.669455 186.359523 
L 81.611675 189.14161 
L 80.727956 191.923697 
L 80.228154 193.797678 
L 79.935894 194.705785 
L 79.156851 197.487872 
L 78.443835 200.269959 
L 77.775325 203.052046 
L 77.163644 205.834133 
L 77.022028 206.552449 
L 76.502799 208.61622 
L 75.907471 211.398307 
L 75.443682 214.180394 
L 75.085699 216.962481 
L 74.767349 219.744568 
L 74.421456 222.526656 
L 74.011109 225.308743 
L 73.815901 226.36242 
L 73.392201 228.09083 
L 72.648363 230.872917 
L 71.915782 233.655004 
L 71.209327 236.437091 
L 70.609775 238.9476 
L 70.526474 239.219178 
L 69.8442 242.001265 
L 69.41844 244.783352 
L 69.408416 247.56544 
L 70.188942 250.347527 
L 70.609775 250.997455 
L 72.22274 253.129614 
L 73.815901 254.632771 
L 74.803913 255.911701 
L 76.614924 258.693788 
L 77.022028 259.566409 
L 77.598352 261.475875 
L 78.212632 264.257962 
L 78.738204 267.040049 
L 79.340195 269.822136 
L 80.228154 272.604224 
L 80.228154 272.604224 
L 81.523632 275.386311 
L 83.434281 277.95851 
L 83.605502 278.168398 
L 86.195782 280.950485 
L 86.640407 281.419582 
L 88.859098 283.732572 
L 89.846534 284.90694 
L 91.320904 286.514659 
L 93.05266 288.949689 
L 93.354813 289.296746 
L 94.932414 292.078833 
L 96.099936 294.86092 
L 96.258787 295.246488 
L 99.27728 297.643008 
L 99.464913 297.711066 
z
" clip-path="url(#pcf0f061ea9)" style="fill: none; stroke: #fd46fc; stroke-width: 2"/>
    <path d="M 105.877166 261.541395 
L 109.083292 262.308662 
L 112.289419 262.550262 
L 115.495545 262.39663 
L 118.701672 261.96027 
L 121.223945 261.475875 
L 121.907798 261.349156 
L 125.113925 260.665728 
L 128.320051 259.920202 
L 131.526178 259.100431 
L 132.913017 258.693788 
L 134.732304 258.183594 
L 137.938431 257.106915 
L 140.838933 255.911701 
L 141.144557 255.793164 
L 144.350684 254.288077 
L 146.425795 253.129614 
L 147.55681 252.539549 
L 150.762937 250.602455 
L 151.13642 250.347527 
L 153.969063 248.534794 
L 155.336438 247.56544 
L 157.175189 246.334791 
L 159.308576 244.783352 
L 160.381316 244.039478 
L 163.134368 242.001265 
L 163.587442 241.677479 
L 166.793569 239.27334 
L 166.864065 239.219178 
L 169.999695 236.853842 
L 170.542597 236.437091 
L 173.205822 234.402093 
L 174.177135 233.655004 
L 176.411948 231.920253 
L 177.762589 230.872917 
L 179.618075 229.401302 
L 181.277569 228.09083 
L 182.824201 226.825944 
L 184.684683 225.308743 
L 186.030328 224.159749 
L 187.937857 222.526656 
L 189.236454 221.352587 
L 190.997256 219.744568 
L 192.442581 218.343638 
L 193.844777 216.962481 
L 195.648707 215.075622 
L 196.489619 214.180394 
L 198.854834 211.518898 
L 198.960628 211.398307 
L 201.347679 208.61622 
L 202.06096 207.76661 
L 203.674356 205.834133 
L 205.267087 203.896808 
L 205.968876 203.052046 
L 208.27303 200.269959 
L 208.473213 200.031626 
L 210.665515 197.487872 
L 211.679339 196.295129 
L 213.091222 194.705785 
L 214.885466 192.632899 
L 215.536549 191.923697 
L 217.992632 189.14161 
L 218.091592 189.024221 
L 220.497467 186.359523 
L 221.297719 185.397946 
L 222.925227 183.577436 
L 224.503845 181.62524 
L 225.222467 180.795349 
L 227.381273 178.013262 
L 227.709972 177.537538 
L 229.412776 175.231175 
L 230.916098 172.8951 
L 231.221593 172.449088 
L 232.927428 169.667001 
L 234.122225 167.450805 
L 234.448908 166.884913 
L 235.91097 164.102826 
L 237.204625 161.320739 
L 237.328351 161.023939 
L 238.467198 158.538652 
L 239.566868 155.756565 
L 240.47928 152.974478 
L 240.534478 152.770143 
L 241.327043 150.192391 
L 242.031474 147.410304 
L 242.651993 144.628217 
L 243.262872 141.846129 
L 243.740604 139.837068 
L 243.952509 139.064042 
L 244.800952 136.281955 
L 245.685013 133.499868 
L 246.573813 130.717781 
L 246.946731 129.502361 
L 247.522244 127.935694 
L 248.447288 125.153607 
L 249.238326 122.37152 
L 249.877397 119.589433 
L 250.152857 117.954323 
L 250.38278 116.807345 
L 250.670543 114.025258 
L 250.59772 111.243171 
L 250.152857 109.309319 
L 249.893515 108.461084 
L 247.503158 105.678997 
L 246.946731 105.336804 
L 243.740604 104.333767 
L 240.534478 103.983034 
L 237.328351 103.870559 
L 234.122225 103.792131 
L 230.916098 103.669282 
L 227.709972 103.522243 
L 224.503845 103.412209 
L 221.297719 103.363364 
L 218.091592 103.329598 
L 214.885466 103.20945 
L 211.837343 102.89691 
L 211.679339 102.878059 
L 208.473213 102.216691 
L 205.267087 101.406121 
L 202.06096 100.782176 
L 198.854834 100.615805 
L 195.648707 100.960552 
L 192.442581 101.733553 
L 189.236454 102.842884 
L 189.116912 102.89691 
L 186.030328 104.218832 
L 183.06896 105.678997 
L 182.824201 105.795194 
L 179.618075 107.521635 
L 178.023973 108.461084 
L 176.411948 109.395943 
L 173.459049 111.243171 
L 173.205822 111.401373 
L 169.999695 113.507401 
L 169.242251 114.025258 
L 166.793569 115.727623 
L 165.280306 116.807345 
L 163.587442 118.049667 
L 161.500949 119.589433 
L 160.381316 120.447423 
L 157.829465 122.37152 
L 157.175189 122.8875 
L 154.19153 125.153607 
L 153.969063 125.331078 
L 150.762937 127.739234 
L 150.48733 127.935694 
L 147.55681 130.090798 
L 146.66103 130.717781 
L 144.350684 132.378076 
L 142.728869 133.499868 
L 141.144557 134.618218 
L 138.754522 136.281955 
L 137.938431 136.858618 
L 134.880155 139.064042 
L 134.732304 139.172013 
L 131.526178 141.661747 
L 131.30714 141.846129 
L 128.320051 144.404122 
L 128.080394 144.628217 
L 125.202031 147.410304 
L 125.113925 147.498884 
L 122.698296 150.192391 
L 121.907798 151.12062 
L 120.467253 152.974478 
L 118.701672 155.407693 
L 118.465775 155.756565 
L 116.724759 158.538652 
L 115.495545 160.658487 
L 115.130592 161.320739 
L 113.668782 164.102826 
L 112.307473 166.884913 
L 112.289419 166.921605 
L 110.955275 169.667001 
L 109.667873 172.449088 
L 109.083292 173.734428 
L 108.384209 175.231175 
L 107.097678 178.013262 
L 105.914584 180.795349 
L 105.877166 180.880986 
L 104.621249 183.577436 
L 103.440201 186.359523 
L 102.67104 188.283995 
L 102.296261 189.14161 
L 101.115993 191.923697 
L 100.047923 194.705785 
L 99.464913 196.305082 
L 98.985671 197.487872 
L 97.919122 200.269959 
L 96.945167 203.052046 
L 96.258787 205.134388 
L 96.00011 205.834133 
L 95.02488 208.61622 
L 94.143731 211.398307 
L 93.346274 214.180394 
L 93.05266 215.332057 
L 92.58487 216.962481 
L 91.933731 219.744568 
L 91.451069 222.526656 
L 91.167138 225.308743 
L 91.121459 228.09083 
L 91.338004 230.872917 
L 91.789583 233.655004 
L 92.389199 236.437091 
L 93.036942 239.219178 
L 93.05266 239.286786 
L 93.585434 242.001265 
L 94.162045 244.783352 
L 94.82808 247.56544 
L 95.654666 250.347527 
L 96.258787 251.975036 
L 96.747742 253.129614 
L 98.314114 255.911701 
L 99.464913 257.446324 
L 100.82327 258.693788 
L 102.67104 260.107405 
L 105.725332 261.475875 
L 105.877166 261.541395 
z
" clip-path="url(#pcf0f061ea9)" style="fill: none; stroke: #fd46fc; stroke-width: 2"/>
    <path d="M 112.289419 243.835315 
L 115.495545 244.36268 
L 118.701672 244.067473 
L 121.907798 243.283552 
L 125.113925 242.163919 
L 125.518762 242.001265 
L 128.320051 240.888655 
L 131.526178 239.488092 
L 132.159031 239.219178 
L 134.732304 238.10113 
L 137.938431 236.720714 
L 138.663828 236.437091 
L 141.144557 235.43296 
L 144.350684 234.184891 
L 145.738003 233.655004 
L 147.55681 232.945993 
L 150.762937 231.626669 
L 152.411362 230.872917 
L 153.969063 230.160186 
L 157.175189 228.495607 
L 157.857917 228.09083 
L 160.381316 226.599675 
L 162.332523 225.308743 
L 163.587442 224.481819 
L 166.259594 222.526656 
L 166.793569 222.138397 
L 169.795115 219.744568 
L 169.999695 219.583017 
L 173.070014 216.962481 
L 173.205822 216.848226 
L 176.18357 214.180394 
L 176.411948 213.979576 
L 179.203428 211.398307 
L 179.618075 211.022993 
L 182.16877 208.61622 
L 182.824201 208.010679 
L 185.094264 205.834133 
L 186.030328 204.951769 
L 187.974892 203.052046 
L 189.236454 201.830595 
L 190.792457 200.269959 
L 192.442581 198.610774 
L 193.522881 197.487872 
L 195.648707 195.241411 
L 196.141746 194.705785 
L 198.631792 191.923697 
L 198.854834 191.663296 
L 200.988826 189.14161 
L 202.06096 187.785808 
L 203.189851 186.359523 
L 205.22163 183.577436 
L 205.267087 183.510171 
L 207.139925 180.795349 
L 208.473213 178.652385 
L 208.884526 178.013262 
L 210.52827 175.231175 
L 211.679339 173.071048 
L 212.02708 172.449088 
L 213.466237 169.667001 
L 214.771364 166.884913 
L 214.885466 166.627135 
L 216.066231 164.102826 
L 217.2674 161.320739 
L 218.091592 159.282979 
L 218.408749 158.538652 
L 219.533675 155.756565 
L 220.569598 152.974478 
L 221.297719 150.862993 
L 221.539192 150.192391 
L 222.431593 147.410304 
L 223.186876 144.628217 
L 223.782195 141.846129 
L 224.164717 139.064042 
L 224.235781 136.281955 
L 223.832156 133.499868 
L 222.703422 130.717781 
L 221.297719 128.846977 
L 220.4736 127.935694 
L 218.091592 126.095432 
L 216.570528 125.153607 
L 214.885466 124.351739 
L 211.679339 123.370366 
L 208.473213 122.999536 
L 205.267087 123.084798 
L 202.06096 123.477818 
L 198.854834 124.086482 
L 195.648707 124.869906 
L 194.599912 125.153607 
L 192.442581 125.70151 
L 189.236454 126.59042 
L 186.030328 127.613329 
L 185.078608 127.935694 
L 182.824201 128.666781 
L 179.618075 129.889476 
L 177.788024 130.717781 
L 176.411948 131.316169 
L 173.205822 132.978235 
L 172.350237 133.499868 
L 169.999695 134.864999 
L 167.896408 136.281955 
L 166.793569 136.989008 
L 163.903366 139.064042 
L 163.587442 139.279285 
L 160.381316 141.65409 
L 160.139756 141.846129 
L 157.175189 144.058527 
L 156.452115 144.628217 
L 153.969063 146.46629 
L 152.74833 147.410304 
L 150.762937 148.859079 
L 149.008022 150.192391 
L 147.55681 151.241314 
L 145.260365 152.974478 
L 144.350684 153.635347 
L 141.574105 155.756565 
L 141.144557 156.077088 
L 138.034054 158.538652 
L 137.938431 158.613776 
L 134.732304 161.302304 
L 134.711632 161.320739 
L 131.648438 164.102826 
L 131.526178 164.21667 
L 128.848782 166.884913 
L 128.320051 167.433537 
L 126.297021 169.667001 
L 125.113925 171.04512 
L 123.969874 172.449088 
L 121.907798 175.151473 
L 121.849309 175.231175 
L 119.891662 178.013262 
L 118.701672 179.833286 
L 118.088507 180.795349 
L 116.433772 183.577436 
L 115.495545 185.264026 
L 114.895401 186.359523 
L 113.481709 189.14161 
L 112.289419 191.645694 
L 112.157995 191.923697 
L 110.93172 194.705785 
L 109.780855 197.487872 
L 109.083292 199.266998 
L 108.69305 200.269959 
L 107.693362 203.052046 
L 106.776445 205.834133 
L 105.95691 208.61622 
L 105.877166 208.954073 
L 105.300963 211.398307 
L 104.828757 214.180394 
L 104.565046 216.962481 
L 104.516027 219.744568 
L 104.643958 222.526656 
L 104.874125 225.308743 
L 105.140895 228.09083 
L 105.43317 230.872917 
L 105.803644 233.655004 
L 105.877166 234.038305 
L 106.410669 236.437091 
L 107.459491 239.219178 
L 109.083292 241.773759 
L 109.334877 242.001265 
L 112.289419 243.835315 
z
" clip-path="url(#pcf0f061ea9)" style="fill: none; stroke: #fd46fc; stroke-width: 2"/>
    <path d="M 125.113925 225.396835 
L 125.670475 225.308743 
L 128.320051 224.844153 
L 131.526178 223.326557 
L 132.845473 222.526656 
L 134.732304 221.280559 
L 136.925726 219.744568 
L 137.938431 218.99058 
L 140.765157 216.962481 
L 141.144557 216.684105 
L 144.350684 214.536872 
L 144.972376 214.180394 
L 147.55681 212.711146 
L 150.481436 211.398307 
L 150.762937 211.276512 
L 153.969063 210.029162 
L 157.175189 208.905802 
L 157.916326 208.61622 
L 160.381316 207.708828 
L 163.587442 206.342359 
L 164.54962 205.834133 
L 166.793569 204.721551 
L 169.611493 203.052046 
L 169.999695 202.833736 
L 173.205822 200.694764 
L 173.765715 200.269959 
L 176.411948 198.317833 
L 177.428807 197.487872 
L 179.618075 195.715518 
L 180.76869 194.705785 
L 182.824201 192.878612 
L 183.831787 191.923697 
L 186.030328 189.767794 
L 186.637488 189.14161 
L 189.191846 186.359523 
L 189.236454 186.307932 
L 191.49307 183.577436 
L 192.442581 182.334308 
L 193.58251 180.795349 
L 195.461912 178.013262 
L 195.648707 177.710605 
L 197.145485 175.231175 
L 198.675401 172.449088 
L 198.854834 172.089148 
L 200.04526 169.667001 
L 201.292519 166.884913 
L 202.06096 165.026769 
L 202.44026 164.102826 
L 203.445984 161.320739 
L 204.353017 158.538652 
L 205.140896 155.756565 
L 205.267087 155.162219 
L 205.72692 152.974478 
L 206.101327 150.192391 
L 206.213522 147.410304 
L 205.985554 144.628217 
L 205.290202 141.846129 
L 205.267087 141.796203 
L 203.591505 139.064042 
L 202.06096 137.79705 
L 198.854834 136.749436 
L 195.648707 136.868713 
L 192.442581 137.60543 
L 189.236454 138.721553 
L 188.47342 139.064042 
L 186.030328 140.174874 
L 182.826864 141.846129 
L 182.824201 141.847558 
L 179.618075 143.73768 
L 178.203849 144.628217 
L 176.411948 145.801126 
L 174.035855 147.410304 
L 173.205822 147.999015 
L 170.120843 150.192391 
L 169.999695 150.283083 
L 166.793569 152.602416 
L 166.258794 152.974478 
L 163.587442 154.904018 
L 162.333042 155.756565 
L 160.381316 157.134615 
L 158.234465 158.538652 
L 157.175189 159.260042 
L 153.969063 161.276173 
L 153.896354 161.320739 
L 150.762937 163.282861 
L 149.442906 164.102826 
L 147.55681 165.309465 
L 145.157647 166.884913 
L 144.350684 167.43553 
L 141.271835 169.667001 
L 141.144557 169.76361 
L 137.938431 172.42131 
L 137.908074 172.449088 
L 135.025622 175.231175 
L 134.732304 175.530151 
L 132.544078 178.013262 
L 131.526178 179.230176 
L 130.346134 180.795349 
L 128.34931 183.577436 
L 128.320051 183.62199 
L 126.707758 186.359523 
L 125.113925 189.14161 
L 125.113925 189.14161 
L 123.820269 191.923697 
L 122.588045 194.705785 
L 121.907798 196.384047 
L 121.505532 197.487872 
L 120.664657 200.269959 
L 119.998063 203.052046 
L 119.572995 205.834133 
L 119.4622 208.61622 
L 119.680508 211.398307 
L 120.119895 214.180394 
L 120.609119 216.962481 
L 121.090762 219.744568 
L 121.74447 222.526656 
L 121.907798 222.907871 
L 124.857076 225.308743 
L 125.113925 225.396835 
z
" clip-path="url(#pcf0f061ea9)" style="fill: none; stroke: #fd46fc; stroke-width: 2"/>
    <path d="M 166.793569 186.72926 
L 169.999695 186.756832 
L 171.046812 186.359523 
L 173.205822 185.43035 
L 176.067864 183.577436 
L 176.411948 183.322133 
L 178.910254 180.795349 
L 179.618075 179.981204 
L 180.951809 178.013262 
L 182.594717 175.231175 
L 182.824201 174.622856 
L 183.4359 172.449088 
L 183.816229 169.667001 
L 183.953022 166.884913 
L 184.107251 164.102826 
L 184.344268 161.320739 
L 184.09033 158.538652 
L 182.824201 157.525066 
L 180.017727 158.538652 
L 179.618075 158.699284 
L 176.74931 161.320739 
L 176.411948 161.634648 
L 174.567199 164.102826 
L 173.205822 165.834787 
L 172.526412 166.884913 
L 170.746214 169.667001 
L 169.999695 170.72571 
L 168.995609 172.449088 
L 167.290526 175.231175 
L 166.793569 176.089151 
L 165.812049 178.013262 
L 164.767179 180.795349 
L 164.463288 183.577436 
L 166.054226 186.359523 
L 166.793569 186.72926 
z
" clip-path="url(#pcf0f061ea9)" style="fill: none; stroke: #fd46fc; stroke-width: 2"/>
    <path clip-path="url(#pcf0f061ea9)" style="fill: none; stroke: #fd46fc; stroke-width: 2"/>
   </g>
   <g id="patch_3">
    <path d="M 45.992188 314.44 
L 45.992188 7.2 
" style="fill: none; stroke: #000000; stroke-width: 0.6; stroke-linejoin: miter; stroke-linecap: square"/>
   </g>
   <g id="patch_4">
    <path d="M 45.992188 314.44 
L 333.162187 314.44 
" style="fill: none; stroke: #000000; stroke-width: 0.6; stroke-linejoin: miter; stroke-linecap: square"/>
   </g>
   <g id="legend_1">
    <g id="patch_5">
     <path d="M 52.992188 44.6625 
L 193.357813 44.6625 
Q 195.357813 44.6625 195.357813 42.6625 
L 195.357813 14.2 
Q 195.357813 12.2 193.357813 12.2 
L 52.992188 12.2 
Q 50.992188 12.2 50.992188 14.2 
L 50.992188 42.6625 
Q 50.992188 44.6625 52.992188 44.6625 
z
" style="fill: #ffffff; opacity: 0.8; stroke: #333333; stroke-width: 0.2; stroke-linejoin: miter"/>
    </g>
    <g id="line2d_23">
     <path d="M 54.992188 20.351562 
L 64.992188 20.351562 
L 74.992188 20.351562 
" style="fill: none; stroke: #486afb; stroke-width: 2; stroke-linecap: square"/>
    </g>
    <g id="text_14">
     <!-- true data PDF -->
     <g transform="translate(82.992188 23.851562) scale(0.1 -0.1)">
      <defs>
       <path id="DejaVuSansMono-74" d="M 1919 4494 
L 1919 3500 
L 3225 3500 
L 3225 3053 
L 1919 3053 
L 1919 1153 
Q 1919 766 2066 612 
Q 2213 459 2578 459 
L 3225 459 
L 3225 0 
L 2522 0 
Q 1875 0 1609 259 
Q 1344 519 1344 1153 
L 1344 3053 
L 409 3053 
L 409 3500 
L 1344 3500 
L 1344 4494 
L 1919 4494 
z
" transform="scale(0.015625)"/>
       <path id="DejaVuSansMono-75" d="M 609 1325 
L 609 3494 
L 1184 3494 
L 1184 1325 
Q 1184 853 1351 631 
Q 1519 409 1869 409 
Q 2275 409 2490 695 
Q 2706 981 2706 1516 
L 2706 3494 
L 3284 3494 
L 3284 0 
L 2706 0 
L 2706 525 
Q 2553 222 2289 65 
Q 2025 -91 1672 -91 
Q 1134 -91 871 261 
Q 609 613 609 1325 
z
" transform="scale(0.015625)"/>
       <path id="DejaVuSansMono-20" transform="scale(0.015625)"/>
       <path id="DejaVuSansMono-64" d="M 2681 3053 
L 2681 4863 
L 3256 4863 
L 3256 0 
L 2681 0 
L 2681 441 
Q 2538 181 2298 45 
Q 2059 -91 1747 -91 
Q 1113 -91 748 401 
Q 384 894 384 1759 
Q 384 2613 750 3098 
Q 1116 3584 1747 3584 
Q 2063 3584 2303 3448 
Q 2544 3313 2681 3053 
z
M 991 1747 
Q 991 1078 1203 737 
Q 1416 397 1831 397 
Q 2247 397 2464 740 
Q 2681 1084 2681 1747 
Q 2681 2413 2464 2755 
Q 2247 3097 1831 3097 
Q 1416 3097 1203 2756 
Q 991 2416 991 1747 
z
" transform="scale(0.015625)"/>
       <path id="DejaVuSansMono-50" d="M 1247 4147 
L 1247 2394 
L 1978 2394 
Q 2416 2394 2661 2625 
Q 2906 2856 2906 3272 
Q 2906 3688 2662 3917 
Q 2419 4147 1978 4147 
L 1247 4147 
z
M 616 4666 
L 1978 4666 
Q 2759 4666 3162 4311 
Q 3566 3956 3566 3272 
Q 3566 2581 3164 2228 
Q 2763 1875 1978 1875 
L 1247 1875 
L 1247 0 
L 616 0 
L 616 4666 
z
" transform="scale(0.015625)"/>
       <path id="DejaVuSansMono-44" d="M 1363 519 
Q 2159 519 2475 911 
Q 2791 1303 2791 2328 
Q 2791 3363 2477 3755 
Q 2163 4147 1363 4147 
L 1063 4147 
L 1063 519 
L 1363 519 
z
M 1375 4666 
Q 2444 4666 2950 4097 
Q 3456 3528 3456 2328 
Q 3456 1134 2950 567 
Q 2444 0 1375 0 
L 428 0 
L 428 4666 
L 1375 4666 
z
" transform="scale(0.015625)"/>
       <path id="DejaVuSansMono-46" d="M 728 4666 
L 3475 4666 
L 3475 4134 
L 1363 4134 
L 1363 2759 
L 3278 2759 
L 3278 2228 
L 1363 2228 
L 1363 0 
L 728 0 
L 728 4666 
z
" transform="scale(0.015625)"/>
      </defs>
      <use xlink:href="#DejaVuSansMono-74"/>
      <use xlink:href="#DejaVuSansMono-72" x="60.205078"/>
      <use xlink:href="#DejaVuSansMono-75" x="120.410156"/>
      <use xlink:href="#DejaVuSansMono-65" x="180.615234"/>
      <use xlink:href="#DejaVuSansMono-20" x="240.820312"/>
      <use xlink:href="#DejaVuSansMono-64" x="301.025391"/>
      <use xlink:href="#DejaVuSansMono-61" x="361.230469"/>
      <use xlink:href="#DejaVuSansMono-74" x="421.435547"/>
      <use xlink:href="#DejaVuSansMono-61" x="481.640625"/>
      <use xlink:href="#DejaVuSansMono-20" x="541.845703"/>
      <use xlink:href="#DejaVuSansMono-50" x="602.050781"/>
      <use xlink:href="#DejaVuSansMono-44" x="662.255859"/>
      <use xlink:href="#DejaVuSansMono-46" x="722.460938"/>
     </g>
    </g>
    <g id="line2d_24">
     <path d="M 54.992188 35.082812 
L 64.992188 35.082812 
L 74.992188 35.082812 
" style="fill: none; stroke: #fd46fc; stroke-width: 2; stroke-linecap: square"/>
    </g>
    <g id="text_15">
     <!-- simulated data PDF -->
     <g transform="translate(82.992188 38.582812) scale(0.1 -0.1)">
      <defs>
       <path id="DejaVuSansMono-73" d="M 3041 3378 
L 3041 2816 
Q 2794 2959 2544 3031 
Q 2294 3103 2034 3103 
Q 1644 3103 1451 2976 
Q 1259 2850 1259 2591 
Q 1259 2356 1403 2240 
Q 1547 2125 2119 2016 
L 2350 1972 
Q 2778 1891 2998 1647 
Q 3219 1403 3219 1013 
Q 3219 494 2850 201 
Q 2481 -91 1825 -91 
Q 1566 -91 1281 -36 
Q 997 19 666 128 
L 666 722 
Q 988 556 1281 473 
Q 1575 391 1838 391 
Q 2219 391 2428 545 
Q 2638 700 2638 978 
Q 2638 1378 1872 1531 
L 1847 1538 
L 1631 1581 
Q 1134 1678 906 1908 
Q 678 2138 678 2534 
Q 678 3038 1018 3311 
Q 1359 3584 1991 3584 
Q 2272 3584 2531 3532 
Q 2791 3481 3041 3378 
z
" transform="scale(0.015625)"/>
       <path id="DejaVuSansMono-6d" d="M 2113 3144 
Q 2219 3369 2383 3476 
Q 2547 3584 2778 3584 
Q 3200 3584 3373 3257 
Q 3547 2931 3547 2028 
L 3547 0 
L 3022 0 
L 3022 2003 
Q 3022 2744 2939 2923 
Q 2856 3103 2638 3103 
Q 2388 3103 2295 2911 
Q 2203 2719 2203 2003 
L 2203 0 
L 1678 0 
L 1678 2003 
Q 1678 2753 1589 2928 
Q 1500 3103 1269 3103 
Q 1041 3103 952 2911 
Q 863 2719 863 2003 
L 863 0 
L 341 0 
L 341 3500 
L 863 3500 
L 863 3200 
Q 966 3388 1120 3486 
Q 1275 3584 1472 3584 
Q 1709 3584 1867 3475 
Q 2025 3366 2113 3144 
z
" transform="scale(0.015625)"/>
       <path id="DejaVuSansMono-6c" d="M 1997 1269 
Q 1997 881 2139 684 
Q 2281 488 2559 488 
L 3231 488 
L 3231 0 
L 2503 0 
Q 1988 0 1705 331 
Q 1422 663 1422 1269 
L 1422 4447 
L 500 4447 
L 500 4897 
L 1997 4897 
L 1997 1269 
z
" transform="scale(0.015625)"/>
      </defs>
      <use xlink:href="#DejaVuSansMono-73"/>
      <use xlink:href="#DejaVuSansMono-69" x="60.205078"/>
      <use xlink:href="#DejaVuSansMono-6d" x="120.410156"/>
      <use xlink:href="#DejaVuSansMono-75" x="180.615234"/>
      <use xlink:href="#DejaVuSansMono-6c" x="240.820312"/>
      <use xlink:href="#DejaVuSansMono-61" x="301.025391"/>
      <use xlink:href="#DejaVuSansMono-74" x="361.230469"/>
      <use xlink:href="#DejaVuSansMono-65" x="421.435547"/>
      <use xlink:href="#DejaVuSansMono-64" x="481.640625"/>
      <use xlink:href="#DejaVuSansMono-20" x="541.845703"/>
      <use xlink:href="#DejaVuSansMono-64" x="602.050781"/>
      <use xlink:href="#DejaVuSansMono-61" x="662.255859"/>
      <use xlink:href="#DejaVuSansMono-74" x="722.460938"/>
      <use xlink:href="#DejaVuSansMono-61" x="782.666016"/>
      <use xlink:href="#DejaVuSansMono-20" x="842.871094"/>
      <use xlink:href="#DejaVuSansMono-50" x="903.076172"/>
      <use xlink:href="#DejaVuSansMono-44" x="963.28125"/>
      <use xlink:href="#DejaVuSansMono-46" x="1023.486328"/>
     </g>
    </g>
   </g>
  </g>
 </g>
 <defs>
  <clipPath id="pcf0f061ea9">
   <rect x="45.992188" y="7.2" width="287.17" height="307.24"/>
  </clipPath>
 </defs>
</svg>