<?xml version="1.0" encoding="utf-8" standalone="no"?>
<!DOCTYPE svg PUBLIC "-//W3C//DTD SVG 1.1//EN"
  "http://www.w3.org/Graphics/SVG/1.1/DTD/svg11.dtd">
<svg xmlns:xlink="http://www.w3.org/1999/xlink" width="352.402812pt" height="279.968281pt" viewBox="0 0 352.402812 279.968281" xmlns="http://www.w3.org/2000/svg" version="1.1">
 <metadata>
  <rdf:RDF xmlns:dc="http://purl.org/dc/elements/1.1/" xmlns:cc="http://creativecommons.org/ns#" xmlns:rdf="http://www.w3.org/1999/02/22-rdf-syntax-ns#">
   <cc:Work>
    <dc:type rdf:resource="http://purl.org/dc/dcmitype/StillImage"/>
    <dc:date>2024-02-12T10:36:58.545373</dc:date>
    <dc:format>image/svg+xml</dc:format>
    <dc:creator>
     <cc:Agent>
      <dc:title>Matplotlib v3.8.2, https://matplotlib.org/</dc:title>
     </cc:Agent>
    </dc:creator>
   </cc:Work>
  </rdf:RDF>
 </metadata>
 <defs>
  <style type="text/css">*{stroke-linejoin: round; stroke-linecap: butt}</style>
 </defs>
 <g id="figure_1">
  <g id="patch_1">
   <path d="M 0 279.968281 
L 352.402812 279.968281 
L 352.402812 0 
L 0 0 
z
" style="fill: #ffffff"/>
  </g>
  <g id="axes_1">
   <g id="patch_2">
    <path d="M 45.992188 242.305781 
L 333.162188 242.305781 
L 333.162188 11.025781 
L 45.992188 11.025781 
z
" style="fill: #ffffff"/>
   </g>
   <g id="matplotlib.axis_1">
    <g id="xtick_1">
     <g id="line2d_1">
      <path d="M 91.334819 242.305781 
L 91.334819 11.025781 
" clip-path="url(#p66139f924a)" style="fill: none; stroke-dasharray: 2.22,0.96; stroke-dashoffset: 0; stroke: #6c6066; stroke-opacity: 0.4; stroke-width: 0.6"/>
     </g>
     <g id="line2d_2">
      <defs>
       <path id="m0b589cfbd1" d="M 0 0 
L 0 3.5 
" style="stroke: #000000; stroke-width: 0.8"/>
      </defs>
      <g>
       <use xlink:href="#m0b589cfbd1" x="91.334819" y="242.305781" style="stroke: #000000; stroke-width: 0.8"/>
      </g>
     </g>
     <g id="text_1">
      <!-- 1000 -->
      <g transform="translate(79.294194 256.957344) scale(0.1 -0.1)">
       <defs>
        <path id="DejaVuSansMono-31" d="M 844 531 
L 1825 531 
L 1825 4097 
L 769 3859 
L 769 4434 
L 1819 4666 
L 2450 4666 
L 2450 531 
L 3419 531 
L 3419 0 
L 844 0 
L 844 531 
z
" transform="scale(0.015625)"/>
        <path id="DejaVuSansMono-30" d="M 1509 2344 
Q 1509 2516 1629 2641 
Q 1750 2766 1919 2766 
Q 2094 2766 2219 2641 
Q 2344 2516 2344 2344 
Q 2344 2169 2220 2047 
Q 2097 1925 1919 1925 
Q 1744 1925 1626 2044 
Q 1509 2163 1509 2344 
z
M 1925 4250 
Q 1484 4250 1267 3775 
Q 1050 3300 1050 2328 
Q 1050 1359 1267 884 
Q 1484 409 1925 409 
Q 2369 409 2586 884 
Q 2803 1359 2803 2328 
Q 2803 3300 2586 3775 
Q 2369 4250 1925 4250 
z
M 1925 4750 
Q 2672 4750 3055 4137 
Q 3438 3525 3438 2328 
Q 3438 1134 3055 521 
Q 2672 -91 1925 -91 
Q 1178 -91 797 521 
Q 416 1134 416 2328 
Q 416 3525 797 4137 
Q 1178 4750 1925 4750 
z
" transform="scale(0.015625)"/>
       </defs>
       <use xlink:href="#DejaVuSansMono-31"/>
       <use xlink:href="#DejaVuSansMono-30" x="60.205078"/>
       <use xlink:href="#DejaVuSansMono-30" x="120.410156"/>
       <use xlink:href="#DejaVuSansMono-30" x="180.615234"/>
      </g>
     </g>
    </g>
    <g id="xtick_2">
     <g id="line2d_3">
      <path d="M 151.791661 242.305781 
L 151.791661 11.025781 
" clip-path="url(#p66139f924a)" style="fill: none; stroke-dasharray: 2.22,0.96; stroke-dashoffset: 0; stroke: #6c6066; stroke-opacity: 0.4; stroke-width: 0.6"/>
     </g>
     <g id="line2d_4">
      <g>
       <use xlink:href="#m0b589cfbd1" x="151.791661" y="242.305781" style="stroke: #000000; stroke-width: 0.8"/>
      </g>
     </g>
     <g id="text_2">
      <!-- 2000 -->
      <g transform="translate(139.751036 256.957344) scale(0.1 -0.1)">
       <defs>
        <path id="DejaVuSansMono-32" d="M 1166 531 
L 3309 531 
L 3309 0 
L 475 0 
L 475 531 
Q 1059 1147 1496 1619 
Q 1934 2091 2100 2284 
Q 2413 2666 2522 2902 
Q 2631 3138 2631 3384 
Q 2631 3775 2401 3997 
Q 2172 4219 1772 4219 
Q 1488 4219 1175 4116 
Q 863 4013 513 3803 
L 513 4441 
Q 834 4594 1145 4672 
Q 1456 4750 1759 4750 
Q 2444 4750 2861 4386 
Q 3278 4022 3278 3431 
Q 3278 3131 3139 2831 
Q 3000 2531 2688 2169 
Q 2513 1966 2180 1606 
Q 1847 1247 1166 531 
z
" transform="scale(0.015625)"/>
       </defs>
       <use xlink:href="#DejaVuSansMono-32"/>
       <use xlink:href="#DejaVuSansMono-30" x="60.205078"/>
       <use xlink:href="#DejaVuSansMono-30" x="120.410156"/>
       <use xlink:href="#DejaVuSansMono-30" x="180.615234"/>
      </g>
     </g>
    </g>
    <g id="xtick_3">
     <g id="line2d_5">
      <path d="M 212.248503 242.305781 
L 212.248503 11.025781 
" clip-path="url(#p66139f924a)" style="fill: none; stroke-dasharray: 2.22,0.96; stroke-dashoffset: 0; stroke: #6c6066; stroke-opacity: 0.4; stroke-width: 0.6"/>
     </g>
     <g id="line2d_6">
      <g>
       <use xlink:href="#m0b589cfbd1" x="212.248503" y="242.305781" style="stroke: #000000; stroke-width: 0.8"/>
      </g>
     </g>
     <g id="text_3">
      <!-- 3000 -->
      <g transform="translate(200.207878 256.957344) scale(0.1 -0.1)">
       <defs>
        <path id="DejaVuSansMono-33" d="M 2425 2497 
Q 2884 2375 3128 2064 
Q 3372 1753 3372 1288 
Q 3372 644 2939 276 
Q 2506 -91 1741 -91 
Q 1419 -91 1084 -31 
Q 750 28 428 141 
L 428 769 
Q 747 603 1056 522 
Q 1366 441 1672 441 
Q 2191 441 2469 675 
Q 2747 909 2747 1350 
Q 2747 1756 2469 1995 
Q 2191 2234 1716 2234 
L 1234 2234 
L 1234 2753 
L 1716 2753 
Q 2150 2753 2394 2943 
Q 2638 3134 2638 3475 
Q 2638 3834 2411 4026 
Q 2184 4219 1766 4219 
Q 1488 4219 1191 4156 
Q 894 4094 569 3969 
L 569 4550 
Q 947 4650 1242 4700 
Q 1538 4750 1766 4750 
Q 2447 4750 2855 4408 
Q 3263 4066 3263 3500 
Q 3263 3116 3048 2859 
Q 2834 2603 2425 2497 
z
" transform="scale(0.015625)"/>
       </defs>
       <use xlink:href="#DejaVuSansMono-33"/>
       <use xlink:href="#DejaVuSansMono-30" x="60.205078"/>
       <use xlink:href="#DejaVuSansMono-30" x="120.410156"/>
       <use xlink:href="#DejaVuSansMono-30" x="180.615234"/>
      </g>
     </g>
    </g>
    <g id="xtick_4">
     <g id="line2d_7">
      <path d="M 272.705345 242.305781 
L 272.705345 11.025781 
" clip-path="url(#p66139f924a)" style="fill: none; stroke-dasharray: 2.22,0.96; stroke-dashoffset: 0; stroke: #6c6066; stroke-opacity: 0.4; stroke-width: 0.6"/>
     </g>
     <g id="line2d_8">
      <g>
       <use xlink:href="#m0b589cfbd1" x="272.705345" y="242.305781" style="stroke: #000000; stroke-width: 0.8"/>
      </g>
     </g>
     <g id="text_4">
      <!-- 4000 -->
      <g transform="translate(260.66472 256.957344) scale(0.1 -0.1)">
       <defs>
        <path id="DejaVuSansMono-34" d="M 2297 4091 
L 825 1625 
L 2297 1625 
L 2297 4091 
z
M 2194 4666 
L 2925 4666 
L 2925 1625 
L 3547 1625 
L 3547 1113 
L 2925 1113 
L 2925 0 
L 2297 0 
L 2297 1113 
L 319 1113 
L 319 1709 
L 2194 4666 
z
" transform="scale(0.015625)"/>
       </defs>
       <use xlink:href="#DejaVuSansMono-34"/>
       <use xlink:href="#DejaVuSansMono-30" x="60.205078"/>
       <use xlink:href="#DejaVuSansMono-30" x="120.410156"/>
       <use xlink:href="#DejaVuSansMono-30" x="180.615234"/>
      </g>
     </g>
    </g>
    <g id="xtick_5">
     <g id="line2d_9">
      <path d="M 333.162188 242.305781 
L 333.162188 11.025781 
" clip-path="url(#p66139f924a)" style="fill: none; stroke-dasharray: 2.22,0.96; stroke-dashoffset: 0; stroke: #6c6066; stroke-opacity: 0.4; stroke-width: 0.6"/>
     </g>
     <g id="line2d_10">
      <g>
       <use xlink:href="#m0b589cfbd1" x="333.162188" y="242.305781" style="stroke: #000000; stroke-width: 0.8"/>
      </g>
     </g>
     <g id="text_5">
      <!-- 5000 -->
      <g transform="translate(321.121563 256.957344) scale(0.1 -0.1)">
       <defs>
        <path id="DejaVuSansMono-35" d="M 647 4666 
L 3009 4666 
L 3009 4134 
L 1222 4134 
L 1222 2988 
Q 1356 3038 1492 3061 
Q 1628 3084 1766 3084 
Q 2491 3084 2916 2656 
Q 3341 2228 3341 1497 
Q 3341 759 2895 334 
Q 2450 -91 1678 -91 
Q 1306 -91 998 -41 
Q 691 9 447 109 
L 447 750 
Q 734 594 1025 517 
Q 1316 441 1619 441 
Q 2141 441 2423 716 
Q 2706 991 2706 1497 
Q 2706 1997 2414 2275 
Q 2122 2553 1600 2553 
Q 1347 2553 1106 2495 
Q 866 2438 647 2322 
L 647 4666 
z
" transform="scale(0.015625)"/>
       </defs>
       <use xlink:href="#DejaVuSansMono-35"/>
       <use xlink:href="#DejaVuSansMono-30" x="60.205078"/>
       <use xlink:href="#DejaVuSansMono-30" x="120.410156"/>
       <use xlink:href="#DejaVuSansMono-30" x="180.615234"/>
      </g>
     </g>
    </g>
    <g id="text_6">
     <!-- area -->
     <g transform="translate(177.536563 270.688594) scale(0.1 -0.1)">
      <defs>
       <path id="DejaVuSansMono-61" d="M 2194 1759 
L 2003 1759 
Q 1500 1759 1245 1582 
Q 991 1406 991 1056 
Q 991 741 1181 566 
Q 1372 391 1709 391 
Q 2184 391 2456 720 
Q 2728 1050 2731 1631 
L 2731 1759 
L 2194 1759 
z
M 3309 1997 
L 3309 0 
L 2731 0 
L 2731 519 
Q 2547 206 2267 57 
Q 1988 -91 1588 -91 
Q 1053 -91 734 211 
Q 416 513 416 1019 
Q 416 1603 808 1906 
Q 1200 2209 1959 2209 
L 2731 2209 
L 2731 2300 
Q 2728 2719 2518 2908 
Q 2309 3097 1850 3097 
Q 1556 3097 1256 3012 
Q 956 2928 672 2766 
L 672 3341 
Q 991 3463 1283 3523 
Q 1575 3584 1850 3584 
Q 2284 3584 2592 3456 
Q 2900 3328 3091 3072 
Q 3209 2916 3259 2686 
Q 3309 2456 3309 1997 
z
" transform="scale(0.015625)"/>
       <path id="DejaVuSansMono-72" d="M 3609 2778 
Q 3425 2922 3234 2987 
Q 3044 3053 2816 3053 
Q 2278 3053 1993 2715 
Q 1709 2378 1709 1741 
L 1709 0 
L 1131 0 
L 1131 3500 
L 1709 3500 
L 1709 2816 
Q 1853 3188 2151 3386 
Q 2450 3584 2859 3584 
Q 3072 3584 3256 3531 
Q 3441 3478 3609 3366 
L 3609 2778 
z
" transform="scale(0.015625)"/>
       <path id="DejaVuSansMono-65" d="M 3475 1894 
L 3475 1613 
L 984 1613 
L 984 1594 
Q 984 1022 1282 709 
Q 1581 397 2125 397 
Q 2400 397 2700 484 
Q 3000 572 3341 750 
L 3341 178 
Q 3013 44 2708 -23 
Q 2403 -91 2119 -91 
Q 1303 -91 843 398 
Q 384 888 384 1747 
Q 384 2584 834 3084 
Q 1284 3584 2034 3584 
Q 2703 3584 3089 3131 
Q 3475 2678 3475 1894 
z
M 2900 2063 
Q 2888 2569 2661 2833 
Q 2434 3097 2009 3097 
Q 1594 3097 1325 2822 
Q 1056 2547 1006 2059 
L 2900 2063 
z
" transform="scale(0.015625)"/>
      </defs>
      <use xlink:href="#DejaVuSansMono-61"/>
      <use xlink:href="#DejaVuSansMono-72" x="60.205078"/>
      <use xlink:href="#DejaVuSansMono-65" x="120.410156"/>
      <use xlink:href="#DejaVuSansMono-61" x="180.615234"/>
     </g>
    </g>
   </g>
   <g id="matplotlib.axis_2">
    <g id="ytick_1">
     <g id="line2d_11">
      <path d="M 45.992188 228.701075 
L 333.162188 228.701075 
" clip-path="url(#p66139f924a)" style="fill: none; stroke-dasharray: 2.22,0.96; stroke-dashoffset: 0; stroke: #6c6066; stroke-opacity: 0.4; stroke-width: 0.6"/>
     </g>
     <g id="line2d_12">
      <defs>
       <path id="m612f38dab4" d="M 0 0 
L -3.5 0 
" style="stroke: #000000; stroke-width: 0.8"/>
      </defs>
      <g>
       <use xlink:href="#m612f38dab4" x="45.992188" y="228.701075" style="stroke: #000000; stroke-width: 0.8"/>
      </g>
     </g>
     <g id="text_7">
      <!-- 0 -->
      <g transform="translate(32.971875 232.526857) scale(0.1 -0.1)">
       <use xlink:href="#DejaVuSansMono-30"/>
      </g>
     </g>
    </g>
    <g id="ytick_2">
     <g id="line2d_13">
      <path d="M 45.992188 201.491664 
L 333.162188 201.491664 
" clip-path="url(#p66139f924a)" style="fill: none; stroke-dasharray: 2.22,0.96; stroke-dashoffset: 0; stroke: #6c6066; stroke-opacity: 0.4; stroke-width: 0.6"/>
     </g>
     <g id="line2d_14">
      <g>
       <use xlink:href="#m612f38dab4" x="45.992188" y="201.491664" style="stroke: #000000; stroke-width: 0.8"/>
      </g>
     </g>
     <g id="text_8">
      <!-- 100 -->
      <g transform="translate(20.93125 205.317445) scale(0.1 -0.1)">
       <use xlink:href="#DejaVuSansMono-31"/>
       <use xlink:href="#DejaVuSansMono-30" x="60.205078"/>
       <use xlink:href="#DejaVuSansMono-30" x="120.410156"/>
      </g>
     </g>
    </g>
    <g id="ytick_3">
     <g id="line2d_15">
      <path d="M 45.992188 174.282252 
L 333.162188 174.282252 
" clip-path="url(#p66139f924a)" style="fill: none; stroke-dasharray: 2.22,0.96; stroke-dashoffset: 0; stroke: #6c6066; stroke-opacity: 0.4; stroke-width: 0.6"/>
     </g>
     <g id="line2d_16">
      <g>
       <use xlink:href="#m612f38dab4" x="45.992188" y="174.282252" style="stroke: #000000; stroke-width: 0.8"/>
      </g>
     </g>
     <g id="text_9">
      <!-- 200 -->
      <g transform="translate(20.93125 178.108033) scale(0.1 -0.1)">
       <use xlink:href="#DejaVuSansMono-32"/>
       <use xlink:href="#DejaVuSansMono-30" x="60.205078"/>
       <use xlink:href="#DejaVuSansMono-30" x="120.410156"/>
      </g>
     </g>
    </g>
    <g id="ytick_4">
     <g id="line2d_17">
      <path d="M 45.992188 147.07284 
L 333.162188 147.07284 
" clip-path="url(#p66139f924a)" style="fill: none; stroke-dasharray: 2.22,0.96; stroke-dashoffset: 0; stroke: #6c6066; stroke-opacity: 0.4; stroke-width: 0.6"/>
     </g>
     <g id="line2d_18">
      <g>
       <use xlink:href="#m612f38dab4" x="45.992188" y="147.07284" style="stroke: #000000; stroke-width: 0.8"/>
      </g>
     </g>
     <g id="text_10">
      <!-- 300 -->
      <g transform="translate(20.93125 150.898621) scale(0.1 -0.1)">
       <use xlink:href="#DejaVuSansMono-33"/>
       <use xlink:href="#DejaVuSansMono-30" x="60.205078"/>
       <use xlink:href="#DejaVuSansMono-30" x="120.410156"/>
      </g>
     </g>
    </g>
    <g id="ytick_5">
     <g id="line2d_19">
      <path d="M 45.992188 119.863428 
L 333.162188 119.863428 
" clip-path="url(#p66139f924a)" style="fill: none; stroke-dasharray: 2.22,0.96; stroke-dashoffset: 0; stroke: #6c6066; stroke-opacity: 0.4; stroke-width: 0.6"/>
     </g>
     <g id="line2d_20">
      <g>
       <use xlink:href="#m612f38dab4" x="45.992188" y="119.863428" style="stroke: #000000; stroke-width: 0.8"/>
      </g>
     </g>
     <g id="text_11">
      <!-- 400 -->
      <g transform="translate(20.93125 123.68921) scale(0.1 -0.1)">
       <use xlink:href="#DejaVuSansMono-34"/>
       <use xlink:href="#DejaVuSansMono-30" x="60.205078"/>
       <use xlink:href="#DejaVuSansMono-30" x="120.410156"/>
      </g>
     </g>
    </g>
    <g id="ytick_6">
     <g id="line2d_21">
      <path d="M 45.992188 92.654017 
L 333.162188 92.654017 
" clip-path="url(#p66139f924a)" style="fill: none; stroke-dasharray: 2.22,0.96; stroke-dashoffset: 0; stroke: #6c6066; stroke-opacity: 0.4; stroke-width: 0.6"/>
     </g>
     <g id="line2d_22">
      <g>
       <use xlink:href="#m612f38dab4" x="45.992188" y="92.654017" style="stroke: #000000; stroke-width: 0.8"/>
      </g>
     </g>
     <g id="text_12">
      <!-- 500 -->
      <g transform="translate(20.93125 96.479798) scale(0.1 -0.1)">
       <use xlink:href="#DejaVuSansMono-35"/>
       <use xlink:href="#DejaVuSansMono-30" x="60.205078"/>
       <use xlink:href="#DejaVuSansMono-30" x="120.410156"/>
      </g>
     </g>
    </g>
    <g id="ytick_7">
     <g id="line2d_23">
      <path d="M 45.992188 65.444605 
L 333.162188 65.444605 
" clip-path="url(#p66139f924a)" style="fill: none; stroke-dasharray: 2.22,0.96; stroke-dashoffset: 0; stroke: #6c6066; stroke-opacity: 0.4; stroke-width: 0.6"/>
     </g>
     <g id="line2d_24">
      <g>
       <use xlink:href="#m612f38dab4" x="45.992188" y="65.444605" style="stroke: #000000; stroke-width: 0.8"/>
      </g>
     </g>
     <g id="text_13">
      <!-- 600 -->
      <g transform="translate(20.93125 69.270386) scale(0.1 -0.1)">
       <defs>
        <path id="DejaVuSansMono-36" d="M 3097 4563 
L 3097 3981 
Q 2900 4097 2678 4158 
Q 2456 4219 2216 4219 
Q 1616 4219 1306 3767 
Q 997 3316 997 2438 
Q 1147 2750 1412 2917 
Q 1678 3084 2022 3084 
Q 2697 3084 3067 2670 
Q 3438 2256 3438 1497 
Q 3438 741 3056 325 
Q 2675 -91 1984 -91 
Q 1172 -91 794 492 
Q 416 1075 416 2328 
Q 416 3509 870 4129 
Q 1325 4750 2188 4750 
Q 2419 4750 2650 4701 
Q 2881 4653 3097 4563 
z
M 1972 2591 
Q 1569 2591 1337 2300 
Q 1106 2009 1106 1497 
Q 1106 984 1337 693 
Q 1569 403 1972 403 
Q 2391 403 2603 679 
Q 2816 956 2816 1497 
Q 2816 2041 2603 2316 
Q 2391 2591 1972 2591 
z
" transform="scale(0.015625)"/>
       </defs>
       <use xlink:href="#DejaVuSansMono-36"/>
       <use xlink:href="#DejaVuSansMono-30" x="60.205078"/>
       <use xlink:href="#DejaVuSansMono-30" x="120.410156"/>
      </g>
     </g>
    </g>
    <g id="ytick_8">
     <g id="line2d_25">
      <path d="M 45.992188 38.235193 
L 333.162188 38.235193 
" clip-path="url(#p66139f924a)" style="fill: none; stroke-dasharray: 2.22,0.96; stroke-dashoffset: 0; stroke: #6c6066; stroke-opacity: 0.4; stroke-width: 0.6"/>
     </g>
     <g id="line2d_26">
      <g>
       <use xlink:href="#m612f38dab4" x="45.992188" y="38.235193" style="stroke: #000000; stroke-width: 0.8"/>
      </g>
     </g>
     <g id="text_14">
      <!-- 700 -->
      <g transform="translate(20.93125 42.060974) scale(0.1 -0.1)">
       <defs>
        <path id="DejaVuSansMono-37" d="M 434 4666 
L 3372 4666 
L 3372 4397 
L 1703 0 
L 1044 0 
L 2669 4134 
L 434 4134 
L 434 4666 
z
" transform="scale(0.015625)"/>
       </defs>
       <use xlink:href="#DejaVuSansMono-37"/>
       <use xlink:href="#DejaVuSansMono-30" x="60.205078"/>
       <use xlink:href="#DejaVuSansMono-30" x="120.410156"/>
      </g>
     </g>
    </g>
    <g id="ytick_9">
     <g id="line2d_27">
      <path d="M 45.992188 11.025781 
L 333.162188 11.025781 
" clip-path="url(#p66139f924a)" style="fill: none; stroke-dasharray: 2.22,0.96; stroke-dashoffset: 0; stroke: #6c6066; stroke-opacity: 0.4; stroke-width: 0.6"/>
     </g>
     <g id="line2d_28">
      <g>
       <use xlink:href="#m612f38dab4" x="45.992188" y="11.025781" style="stroke: #000000; stroke-width: 0.8"/>
      </g>
     </g>
     <g id="text_15">
      <!-- 800 -->
      <g transform="translate(20.93125 14.851562) scale(0.1 -0.1)">
       <defs>
        <path id="DejaVuSansMono-38" d="M 1925 2216 
Q 1503 2216 1273 1980 
Q 1044 1744 1044 1313 
Q 1044 881 1276 642 
Q 1509 403 1925 403 
Q 2350 403 2579 639 
Q 2809 875 2809 1313 
Q 2809 1741 2576 1978 
Q 2344 2216 1925 2216 
z
M 1375 2478 
Q 972 2581 745 2862 
Q 519 3144 519 3541 
Q 519 4097 897 4423 
Q 1275 4750 1925 4750 
Q 2578 4750 2956 4423 
Q 3334 4097 3334 3541 
Q 3334 3144 3107 2862 
Q 2881 2581 2478 2478 
Q 2947 2375 3195 2062 
Q 3444 1750 3444 1253 
Q 3444 622 3041 265 
Q 2638 -91 1925 -91 
Q 1213 -91 811 264 
Q 409 619 409 1247 
Q 409 1747 657 2061 
Q 906 2375 1375 2478 
z
M 1147 3481 
Q 1147 3106 1347 2909 
Q 1547 2713 1925 2713 
Q 2306 2713 2506 2909 
Q 2706 3106 2706 3481 
Q 2706 3863 2507 4063 
Q 2309 4263 1925 4263 
Q 1547 4263 1347 4061 
Q 1147 3859 1147 3481 
z
" transform="scale(0.015625)"/>
       </defs>
       <use xlink:href="#DejaVuSansMono-38"/>
       <use xlink:href="#DejaVuSansMono-30" x="60.205078"/>
       <use xlink:href="#DejaVuSansMono-30" x="120.410156"/>
      </g>
     </g>
    </g>
    <g id="text_16">
     <!-- price -->
     <g transform="translate(14.851563 141.716562) rotate(-90) scale(0.1 -0.1)">
      <defs>
       <path id="DejaVuSansMono-70" d="M 1172 441 
L 1172 -1331 
L 594 -1331 
L 594 3500 
L 1172 3500 
L 1172 3053 
Q 1316 3313 1555 3448 
Q 1794 3584 2106 3584 
Q 2741 3584 3102 3093 
Q 3463 2603 3463 1734 
Q 3463 881 3100 395 
Q 2738 -91 2106 -91 
Q 1788 -91 1548 45 
Q 1309 181 1172 441 
z
M 2859 1747 
Q 2859 2416 2648 2756 
Q 2438 3097 2022 3097 
Q 1603 3097 1387 2755 
Q 1172 2413 1172 1747 
Q 1172 1084 1387 740 
Q 1603 397 2022 397 
Q 2438 397 2648 737 
Q 2859 1078 2859 1747 
z
" transform="scale(0.015625)"/>
       <path id="DejaVuSansMono-69" d="M 800 3500 
L 2272 3500 
L 2272 447 
L 3413 447 
L 3413 0 
L 556 0 
L 556 447 
L 1697 447 
L 1697 3053 
L 800 3053 
L 800 3500 
z
M 1697 4863 
L 2272 4863 
L 2272 4134 
L 1697 4134 
L 1697 4863 
z
" transform="scale(0.015625)"/>
       <path id="DejaVuSansMono-63" d="M 3316 178 
Q 3084 44 2839 -23 
Q 2594 -91 2338 -91 
Q 1525 -91 1067 396 
Q 609 884 609 1747 
Q 609 2609 1067 3096 
Q 1525 3584 2338 3584 
Q 2591 3584 2831 3518 
Q 3072 3453 3316 3316 
L 3316 2713 
Q 3088 2916 2858 3006 
Q 2628 3097 2338 3097 
Q 1797 3097 1506 2747 
Q 1216 2397 1216 1747 
Q 1216 1100 1508 748 
Q 1800 397 2338 397 
Q 2638 397 2875 489 
Q 3113 581 3316 775 
L 3316 178 
z
" transform="scale(0.015625)"/>
      </defs>
      <use xlink:href="#DejaVuSansMono-70"/>
      <use xlink:href="#DejaVuSansMono-72" x="60.205078"/>
      <use xlink:href="#DejaVuSansMono-69" x="120.410156"/>
      <use xlink:href="#DejaVuSansMono-63" x="180.615234"/>
      <use xlink:href="#DejaVuSansMono-65" x="240.820312"/>
     </g>
    </g>
   </g>
   <g id="QuadContourSet_1">
    <path d="M 69.525367 221.158604 
L 71.381546 221.225969 
L 73.237724 221.182385 
L 74.635288 221.074428 
L 75.093903 221.047193 
L 76.950081 220.889704 
L 78.80626 220.712903 
L 80.662438 220.545853 
L 82.518617 220.404783 
L 84.374795 220.269742 
L 86.230974 220.086014 
L 87.505129 219.886344 
L 88.087152 219.815459 
L 89.943331 219.472724 
L 91.799509 219.00275 
L 92.739316 218.698261 
L 93.655688 218.453267 
L 95.511866 217.848292 
L 96.401746 217.510178 
L 97.368045 217.194647 
L 99.224223 216.504781 
L 99.695595 216.322094 
L 101.080402 215.849972 
L 102.93658 215.147464 
L 102.974848 215.134011 
L 104.792758 214.572945 
L 106.648937 213.945993 
L 106.649153 213.945928 
L 108.505115 213.461479 
L 110.361294 212.942039 
L 111.044396 212.757845 
L 112.217472 212.488151 
L 114.073651 212.062509 
L 115.929829 211.620333 
L 116.181627 211.569761 
L 117.786008 211.296563 
L 119.642186 211.017602 
L 121.498365 210.784651 
L 123.354543 210.592367 
L 125.210722 210.405854 
L 125.409896 210.381678 
L 127.0669 210.207741 
L 128.923079 209.944682 
L 130.779257 209.613251 
L 132.635436 209.216544 
L 132.72608 209.193595 
L 134.491614 208.782588 
L 136.347793 208.270854 
L 137.154514 208.005511 
L 138.203971 207.682323 
L 140.06015 207.003158 
L 140.494823 206.817428 
L 141.916328 206.237913 
L 143.210387 205.629345 
L 143.772507 205.372926 
L 145.599791 204.441262 
L 145.628685 204.42675 
L 147.484864 203.440017 
L 147.830185 203.253178 
L 149.341042 202.42094 
L 150.00564 202.065095 
L 151.197221 201.403338 
L 152.222213 200.877012 
L 153.053399 200.425228 
L 154.596286 199.688928 
L 154.909577 199.526942 
L 156.765756 198.786305 
L 157.817912 198.500845 
L 158.621934 198.253761 
L 160.478113 198.014044 
L 162.334291 198.045954 
L 164.19047 198.131288 
L 166.046648 198.029775 
L 167.902827 197.691099 
L 169.155239 197.312762 
L 169.759005 197.122663 
L 171.615184 196.350145 
L 172.064848 196.124679 
L 173.471362 195.384834 
L 174.24099 194.936595 
L 175.327541 194.261367 
L 176.115767 193.748512 
L 177.183719 192.997684 
L 177.803577 192.560429 
L 179.039898 191.607944 
L 179.352976 191.372346 
L 180.765167 190.184262 
L 180.896076 190.054892 
L 181.998636 188.996179 
L 182.752255 188.157959 
L 183.069717 187.808096 
L 183.944269 186.620012 
L 184.608433 185.566177 
L 184.688201 185.431929 
L 185.379642 184.243846 
L 186.088633 183.055763 
L 186.464612 182.494456 
L 186.839469 181.867679 
L 187.594525 180.679596 
L 188.32079 179.515586 
L 188.334638 179.491513 
L 188.983612 178.303429 
L 189.499563 177.115346 
L 189.824782 175.927263 
L 189.821381 174.73918 
L 189.250874 173.551096 
L 188.32079 172.661731 
L 187.580618 172.363013 
L 186.464612 171.90172 
L 184.608433 171.768979 
L 182.752255 172.188774 
L 182.35764 172.363013 
L 180.896076 172.889714 
L 179.583953 173.551096 
L 179.039898 173.8225 
L 177.183719 174.699186 
L 176.815887 173.551096 
L 177.183719 172.862075 
L 177.61487 172.363013 
L 178.729882 171.17493 
L 179.039898 170.874556 
L 180.296905 169.986846 
L 180.896076 169.578628 
L 182.395907 168.798763 
L 182.752255 168.639396 
L 184.608433 168.005317 
L 185.451868 167.61068 
L 186.464612 167.294135 
L 188.32079 166.443845 
L 188.352191 166.422597 
L 190.176969 165.561525 
L 190.701433 165.234513 
L 192.033147 164.58098 
L 192.919858 164.04643 
L 193.889326 163.544653 
L 195.024557 162.858347 
L 195.745504 162.457678 
L 197.005226 161.670263 
L 197.601683 161.307536 
L 198.846706 160.48218 
L 199.457861 160.068309 
L 200.537338 159.294097 
L 201.31404 158.700021 
L 202.068884 158.106014 
L 203.170218 157.145244 
L 203.4313 156.91793 
L 204.590976 155.729847 
L 205.026396 155.178851 
L 205.549376 154.541764 
L 206.221587 153.353681 
L 206.514626 152.165597 
L 206.051981 150.977514 
L 205.026396 150.273696 
L 203.539197 149.789431 
L 203.170218 149.688136 
L 201.31404 149.237252 
L 199.92541 148.601347 
L 199.457861 147.706113 
L 199.38027 147.413264 
L 199.457861 146.87934 
L 199.549278 146.225181 
L 199.92055 145.037098 
L 200.301058 143.849014 
L 200.604893 142.660931 
L 200.735136 141.472848 
L 200.539091 140.284764 
L 199.837016 139.096681 
L 199.457861 138.697738 
L 198.734803 137.908598 
L 197.78702 136.720515 
L 197.601683 136.394449 
L 197.247451 135.532431 
L 196.893002 134.344348 
L 196.571613 133.156265 
L 196.22325 131.968181 
L 195.8699 130.780098 
L 195.745504 130.190944 
L 195.620142 129.592015 
L 195.581875 128.403932 
L 195.745504 127.413905 
L 195.778343 127.215848 
L 196.162486 126.027765 
L 196.662335 124.839682 
L 197.238251 123.651598 
L 197.601683 122.910368 
L 197.812153 122.463515 
L 198.232232 121.275432 
L 198.440701 120.087349 
L 198.204026 118.899265 
L 197.601683 118.157413 
L 196.515208 117.711182 
L 195.745504 117.483847 
L 193.889326 117.398291 
L 192.033147 117.657861 
L 191.861202 117.711182 
L 190.176969 118.225427 
L 188.830371 118.899265 
L 188.32079 119.136082 
L 186.78259 120.087349 
L 186.464612 120.260031 
L 184.910648 121.275432 
L 184.608433 121.442992 
L 182.991248 122.463515 
L 182.752255 122.59052 
L 180.942116 123.651598 
L 180.896076 123.674624 
L 179.039898 124.638856 
L 178.664693 124.839682 
L 177.183719 125.534982 
L 176.162879 126.027765 
L 175.327541 126.389305 
L 173.471362 127.19815 
L 173.426703 127.215848 
L 171.615184 127.863565 
L 170.005546 128.403932 
L 169.759005 128.479881 
L 167.902827 128.981444 
L 166.046648 129.403462 
L 165.003179 129.592015 
L 164.19047 129.729039 
L 162.334291 129.92613 
L 160.478113 129.915644 
L 159.108126 129.592015 
L 158.621934 129.355632 
L 157.920443 128.403932 
L 157.729175 127.215848 
L 157.77311 126.027765 
L 157.862217 124.839682 
L 157.938204 123.651598 
L 158.01643 122.463515 
L 158.138176 121.275432 
L 158.322819 120.087349 
L 158.556763 118.899265 
L 158.621934 118.571577 
L 158.807632 117.711182 
L 158.965365 116.523099 
L 158.889033 115.335016 
L 158.621934 114.736302 
L 158.112303 114.146932 
L 156.765756 113.534093 
L 154.909577 113.338411 
L 153.053399 113.441819 
L 151.197221 113.765055 
L 149.953483 114.146932 
L 149.341042 114.305072 
L 147.484864 115.003849 
L 146.827957 115.335016 
L 145.628685 115.857471 
L 144.408611 116.523099 
L 143.772507 116.833585 
L 142.260552 117.711182 
L 141.916328 117.896597 
L 140.288024 118.899265 
L 140.06015 119.034628 
L 138.457723 120.087349 
L 138.203971 120.254925 
L 136.763041 121.275432 
L 136.347793 121.584257 
L 135.210766 122.463515 
L 134.491614 123.074997 
L 133.817932 123.651598 
L 132.635436 124.819232 
L 132.614141 124.839682 
L 131.514157 126.027765 
L 130.779257 127.01218 
L 130.61661 127.215848 
L 129.840165 128.403932 
L 129.243754 129.592015 
L 128.923079 130.412349 
L 128.764881 130.780098 
L 128.366396 131.968181 
L 127.987202 133.156265 
L 127.520714 134.344348 
L 127.0669 135.197259 
L 126.883564 135.532431 
L 126.023989 136.720515 
L 125.210722 137.735626 
L 125.067755 137.908598 
L 123.952214 139.096681 
L 123.354543 139.737058 
L 122.8171 140.284764 
L 121.692472 141.472848 
L 121.498365 141.680358 
L 120.509347 142.660931 
L 119.642186 143.629979 
L 119.424644 143.849014 
L 118.305329 145.037098 
L 117.786008 145.654973 
L 117.244133 146.225181 
L 116.233955 147.413264 
L 115.929829 147.801029 
L 115.212149 148.601347 
L 114.28271 149.789431 
L 114.073651 150.071017 
L 113.300672 150.977514 
L 112.416355 152.165597 
L 112.217472 152.439794 
L 111.455867 153.353681 
L 110.575278 154.541764 
L 110.361294 154.831959 
L 109.602332 155.729847 
L 108.694795 156.91793 
L 108.505115 157.163752 
L 107.675866 158.106014 
L 106.735402 159.294097 
L 106.648937 159.400479 
L 105.653857 160.48218 
L 104.792758 161.53164 
L 104.662707 161.670263 
L 103.553208 162.858347 
L 102.93658 163.581238 
L 102.486305 164.04643 
L 101.399714 165.234513 
L 101.080402 165.595107 
L 100.254149 166.422597 
L 99.224223 167.573589 
L 99.186337 167.61068 
L 97.949015 168.798763 
L 97.368045 169.403604 
L 96.735399 169.986846 
L 95.538082 171.17493 
L 95.511866 171.199525 
L 94.139347 172.363013 
L 93.655688 172.790196 
L 92.711325 173.551096 
L 91.799509 174.303324 
L 91.230803 174.73918 
L 89.943331 175.732052 
L 89.677203 175.927263 
L 88.087152 177.084557 
L 88.043732 177.115346 
L 86.307221 178.303429 
L 86.230974 178.3536 
L 84.528353 179.491513 
L 84.374795 179.591575 
L 82.744126 180.679596 
L 82.518617 180.828442 
L 80.977952 181.867679 
L 80.662438 182.082908 
L 79.250891 183.055763 
L 78.80626 183.374528 
L 77.582249 184.243846 
L 76.950081 184.72649 
L 75.992372 185.431929 
L 75.093903 186.169619 
L 74.506968 186.620012 
L 73.237724 187.748244 
L 73.163059 187.808096 
L 71.753008 188.996179 
L 71.381546 189.371384 
L 70.448292 190.184262 
L 69.525367 191.203851 
L 69.341199 191.372346 
L 68.161579 192.560429 
L 67.669189 193.192174 
L 67.120685 193.748512 
L 66.158967 194.936595 
L 65.81301 195.455255 
L 65.224112 196.124679 
L 64.377838 197.312762 
L 63.956832 198.038382 
L 63.591807 198.500845 
L 62.784832 199.688928 
L 62.142713 200.877012 
L 62.100653 200.958466 
L 61.324921 202.065095 
L 60.627291 203.253178 
L 60.244475 203.964569 
L 59.90157 204.441262 
L 59.1153 205.629345 
L 58.429725 206.817428 
L 58.388296 206.892933 
L 57.603443 208.005511 
L 56.894822 209.193595 
L 56.532118 209.893151 
L 56.209698 210.381678 
L 55.575783 211.569761 
L 55.091645 212.757845 
L 54.769862 213.945928 
L 54.681012 215.134011 
L 54.974469 216.322094 
L 55.885287 217.510178 
L 56.532118 218.006281 
L 57.684997 218.698261 
L 58.388296 219.031928 
L 60.244475 219.708152 
L 60.911354 219.886344 
L 62.100653 220.180238 
L 63.956832 220.526936 
L 65.81301 220.794749 
L 67.669189 221.003768 
L 68.579908 221.074428 
L 69.525367 221.158604 
z
" clip-path="url(#p66139f924a)" style="fill: none; stroke: #486afb; stroke-width: 2"/>
    <path d="M 78.80626 212.814846 
L 80.262746 212.757845 
L 80.662438 212.744486 
L 82.518617 212.581554 
L 84.374795 212.358277 
L 86.230974 212.106869 
L 88.087152 211.851165 
L 89.943331 211.601178 
L 90.178176 211.569761 
L 91.799509 211.375994 
L 93.655688 211.116448 
L 95.511866 210.780911 
L 97.197265 210.381678 
L 97.368045 210.345722 
L 99.224223 209.859653 
L 101.080402 209.269623 
L 101.293673 209.193595 
L 102.93658 208.662582 
L 104.734034 208.005511 
L 104.792758 207.985832 
L 106.648937 207.34067 
L 108.04402 206.817428 
L 108.505115 206.656378 
L 110.361294 206.000581 
L 111.378088 205.629345 
L 112.217472 205.340843 
L 114.073651 204.694702 
L 114.803817 204.441262 
L 115.929829 204.072026 
L 117.786008 203.456317 
L 118.41142 203.253178 
L 119.642186 202.876641 
L 121.498365 202.304225 
L 122.273589 202.065095 
L 123.354543 201.751902 
L 125.210722 201.197642 
L 126.220991 200.877012 
L 127.0669 200.623353 
L 128.923079 200.021512 
L 129.843013 199.688928 
L 130.779257 199.363318 
L 132.635436 198.633266 
L 132.944065 198.500845 
L 134.491614 197.844091 
L 135.609031 197.312762 
L 136.347793 196.955298 
L 137.930516 196.124679 
L 138.203971 195.974188 
L 140.002523 194.936595 
L 140.06015 194.900651 
L 141.88054 193.748512 
L 141.916328 193.723278 
L 143.588498 192.560429 
L 143.772507 192.413804 
L 145.127138 191.372346 
L 145.628685 190.919305 
L 146.483989 190.184262 
L 147.484864 189.152532 
L 147.645246 188.996179 
L 148.665564 187.808096 
L 149.341042 186.820435 
L 149.488418 186.620012 
L 150.164021 185.431929 
L 150.674592 184.243846 
L 151.062635 183.055763 
L 151.197221 182.586221 
L 151.419307 181.867679 
L 151.844731 180.679596 
L 152.382033 179.491513 
L 153.026255 178.303429 
L 153.053399 178.26316 
L 153.877173 177.115346 
L 154.777239 175.927263 
L 154.909577 175.765113 
L 155.810851 174.73918 
L 156.765756 173.637373 
L 156.846282 173.551096 
L 157.960554 172.363013 
L 158.621934 171.612085 
L 159.045765 171.17493 
L 160.114296 169.986846 
L 160.478113 169.530081 
L 161.133886 168.798763 
L 162.059309 167.61068 
L 162.334291 167.173086 
L 162.876131 166.422597 
L 163.53814 165.234513 
L 163.984433 164.04643 
L 164.181332 162.858347 
L 164.096784 161.670263 
L 163.692384 160.48218 
L 162.926069 159.294097 
L 162.334291 158.663753 
L 161.734147 158.106014 
L 160.478113 157.269214 
L 159.672259 156.91793 
L 158.621934 156.566601 
L 156.765756 156.233913 
L 154.909577 156.074777 
L 153.053399 155.984026 
L 151.197221 155.904412 
L 149.341042 155.804076 
L 148.417843 155.729847 
L 147.484864 155.644457 
L 145.628685 155.357624 
L 143.772507 154.859333 
L 142.99809 154.541764 
L 141.916328 153.995354 
L 140.869354 153.353681 
L 140.06015 152.812237 
L 139.050964 152.165597 
L 138.203971 151.594386 
L 137.122146 150.977514 
L 136.347793 150.474683 
L 134.96312 149.789431 
L 134.491614 149.522923 
L 132.635436 149.011119 
L 130.779257 149.162224 
L 129.155906 149.789431 
L 128.923079 149.867685 
L 127.0669 150.977514 
L 127.0669 150.977514 
L 125.51271 152.165597 
L 125.210722 152.374312 
L 124.112821 153.353681 
L 123.354543 153.977355 
L 122.781813 154.541764 
L 121.498365 155.728184 
L 121.496778 155.729847 
L 120.294764 156.91793 
L 119.642186 157.521947 
L 119.070433 158.106014 
L 117.838344 159.294097 
L 117.786008 159.340243 
L 116.588935 160.48218 
L 115.929829 161.073846 
L 115.300532 161.670263 
L 114.073651 162.775247 
L 113.984731 162.858347 
L 112.621785 164.04643 
L 112.217472 164.37983 
L 111.223745 165.234513 
L 110.361294 165.949937 
L 109.809693 166.422597 
L 108.505115 167.51593 
L 108.394542 167.61068 
L 106.951051 168.798763 
L 106.648937 169.040093 
L 105.493835 169.986846 
L 104.792758 170.554752 
L 104.035999 171.17493 
L 102.93658 172.069201 
L 102.574424 172.363013 
L 101.095398 173.551096 
L 101.080402 173.562384 
L 99.52036 174.73918 
L 99.224223 174.954944 
L 97.883449 175.927263 
L 97.368045 176.285338 
L 96.166747 177.115346 
L 95.511866 177.545333 
L 94.357643 178.303429 
L 93.655688 178.739094 
L 92.457656 179.491513 
L 91.799509 179.881662 
L 90.488508 180.679596 
L 89.943331 180.994295 
L 88.489701 181.867679 
L 88.087152 182.099662 
L 86.507468 183.055763 
L 86.230974 183.219121 
L 84.582126 184.243846 
L 84.374795 184.372585 
L 82.741438 185.431929 
L 82.518617 185.580419 
L 81.001809 186.620012 
L 80.662438 186.866722 
L 79.374288 187.808096 
L 78.80626 188.26385 
L 77.871834 188.996179 
L 76.950081 189.818596 
L 76.516351 190.184262 
L 75.279939 191.372346 
L 75.093903 191.573986 
L 74.087213 192.560429 
L 73.237724 193.597387 
L 73.095541 193.748512 
L 72.11033 194.936595 
L 71.381546 196.057539 
L 71.32921 196.124679 
L 70.526071 197.312762 
L 69.892259 198.500845 
L 69.525367 199.332065 
L 69.329836 199.688928 
L 68.792914 200.877012 
L 68.358764 202.065095 
L 68.005853 203.253178 
L 67.731151 204.441262 
L 67.669189 204.890778 
L 67.542874 205.629345 
L 67.518146 206.817428 
L 67.669189 207.660711 
L 67.739386 208.005511 
L 68.335207 209.193595 
L 69.513045 210.381678 
L 69.525367 210.390861 
L 71.381546 211.433703 
L 71.732023 211.569761 
L 73.237724 212.089937 
L 75.093903 212.509554 
L 76.950081 212.740709 
L 77.383553 212.757845 
L 78.80626 212.814846 
z
" clip-path="url(#p66139f924a)" style="fill: none; stroke: #486afb; stroke-width: 2"/>
    <path d="M 76.950081 206.94382 
L 78.80626 207.478949 
L 80.662438 207.753004 
L 82.518617 207.838622 
L 84.374795 207.777107 
L 86.230974 207.602552 
L 88.087152 207.347764 
L 89.943331 207.043222 
L 91.241745 206.817428 
L 91.799509 206.725225 
L 93.655688 206.421728 
L 95.511866 206.111773 
L 97.368045 205.781791 
L 98.121394 205.629345 
L 99.224223 205.417922 
L 101.080402 204.997623 
L 102.93658 204.505364 
L 103.143529 204.441262 
L 104.792758 203.960402 
L 106.648937 203.354429 
L 106.931033 203.253178 
L 108.505115 202.713797 
L 110.246699 202.065095 
L 110.361294 202.023772 
L 112.217472 201.323863 
L 113.343967 200.877012 
L 114.073651 200.591813 
L 115.929829 199.851129 
L 116.341013 199.688928 
L 117.786008 199.118438 
L 119.346147 198.500845 
L 119.642186 198.381719 
L 121.498365 197.672248 
L 122.460666 197.312762 
L 123.354543 196.967739 
L 125.210722 196.26172 
L 125.575158 196.124679 
L 127.0669 195.533019 
L 128.497031 194.936595 
L 128.923079 194.743638 
L 130.779257 193.852649 
L 130.982162 193.748512 
L 132.635436 192.793752 
L 133.012037 192.560429 
L 134.491614 191.489153 
L 134.645268 191.372346 
L 135.955473 190.184262 
L 136.347793 189.745827 
L 137.007599 188.996179 
L 137.857824 187.808096 
L 138.203971 187.245826 
L 138.593447 186.620012 
L 139.285532 185.431929 
L 139.950723 184.243846 
L 140.06015 184.064961 
L 140.696258 183.055763 
L 141.462305 181.867679 
L 141.916328 181.190049 
L 142.276004 180.679596 
L 143.127812 179.491513 
L 143.772507 178.568377 
L 143.971144 178.303429 
L 144.828284 177.115346 
L 145.618898 175.927263 
L 145.628685 175.91061 
L 146.387132 174.73918 
L 147.048997 173.551096 
L 147.484864 172.590182 
L 147.59993 172.363013 
L 148.00819 171.17493 
L 148.209842 169.986846 
L 148.129964 168.798763 
L 147.638486 167.61068 
L 147.484864 167.416681 
L 146.428556 166.422597 
L 145.628685 165.951358 
L 143.772507 165.234513 
L 143.772507 165.234513 
L 141.916328 164.831379 
L 140.06015 164.575883 
L 138.203971 164.384976 
L 136.347793 164.190563 
L 135.240427 164.04643 
L 134.491614 163.933683 
L 132.635436 163.590811 
L 130.779257 163.251971 
L 128.923079 163.058182 
L 127.0669 163.124431 
L 125.210722 163.472308 
L 123.403864 164.04643 
L 123.354543 164.060417 
L 121.498365 164.81287 
L 120.658332 165.234513 
L 119.642186 165.693542 
L 118.281514 166.422597 
L 117.786008 166.662648 
L 116.096054 167.61068 
L 115.929829 167.695424 
L 114.073651 168.777754 
L 114.041494 168.798763 
L 112.217472 169.901642 
L 112.090551 169.986846 
L 110.361294 171.068088 
L 110.206146 171.17493 
L 108.505115 172.271036 
L 108.374162 172.363013 
L 106.648937 173.499581 
L 106.576289 173.551096 
L 104.792758 174.737509 
L 104.790393 174.73918 
L 102.990579 175.927263 
L 102.93658 175.960058 
L 101.15101 177.115346 
L 101.080402 177.157369 
L 99.253295 178.303429 
L 99.224223 178.32023 
L 97.368045 179.436961 
L 97.279728 179.491513 
L 95.511866 180.51063 
L 95.227637 180.679596 
L 93.655688 181.557085 
L 93.119434 181.867679 
L 91.799509 182.593201 
L 90.994396 183.055763 
L 89.943331 183.637676 
L 88.901866 184.243846 
L 88.087152 184.709965 
L 86.888655 185.431929 
L 86.230974 185.830869 
L 84.989596 186.620012 
L 84.374795 187.024683 
L 83.225646 187.808096 
L 82.518617 188.322883 
L 81.608843 188.996179 
L 80.662438 189.76961 
L 80.150609 190.184262 
L 78.860494 191.372346 
L 78.80626 191.428086 
L 77.652581 192.560429 
L 76.950081 193.395364 
L 76.628316 193.748512 
L 75.715449 194.936595 
L 75.093903 195.942597 
L 74.967003 196.124679 
L 74.301158 197.312762 
L 73.797217 198.500845 
L 73.430273 199.688928 
L 73.237724 200.685583 
L 73.194431 200.877012 
L 73.117923 202.065095 
L 73.237724 203.086529 
L 73.260254 203.253178 
L 73.724428 204.441262 
L 74.68844 205.629345 
L 75.093903 205.965644 
L 76.663354 206.817428 
L 76.950081 206.94382 
z
" clip-path="url(#p66139f924a)" style="fill: none; stroke: #486afb; stroke-width: 2"/>
    <path d="M 80.662438 203.871652 
L 82.518617 204.22452 
L 84.374795 204.326244 
L 86.230974 204.253642 
L 88.087152 204.047183 
L 89.943331 203.734642 
L 91.799509 203.339854 
L 92.176853 203.253178 
L 93.655688 202.925492 
L 95.511866 202.490417 
L 97.307972 202.065095 
L 97.368045 202.050952 
L 99.224223 201.65244 
L 101.080402 201.255813 
L 102.83678 200.877012 
L 102.93658 200.855434 
L 104.792758 200.420292 
L 106.648937 199.932551 
L 107.456206 199.688928 
L 108.505115 199.374093 
L 110.361294 198.749472 
L 111.027201 198.500845 
L 112.217472 198.054034 
L 114.064103 197.312762 
L 114.073651 197.308856 
L 115.929829 196.502038 
L 116.774286 196.124679 
L 117.786008 195.654778 
L 119.311351 194.936595 
L 119.642186 194.772016 
L 121.498365 193.847687 
L 121.700278 193.748512 
L 123.354543 192.865476 
L 123.926444 192.560429 
L 125.210722 191.802303 
L 125.930056 191.372346 
L 127.0669 190.609005 
L 127.681999 190.184262 
L 128.923079 189.213046 
L 129.189267 188.996179 
L 130.500529 187.808096 
L 130.779257 187.534382 
L 131.670101 186.620012 
L 132.635436 185.545252 
L 132.733404 185.431929 
L 133.740826 184.243846 
L 134.491614 183.319034 
L 134.700879 183.055763 
L 135.622687 181.867679 
L 136.347793 180.883397 
L 136.498536 180.679596 
L 137.311682 179.491513 
L 138.039615 178.303429 
L 138.203971 177.974282 
L 138.651529 177.115346 
L 139.100628 175.927263 
L 139.33268 174.73918 
L 139.243534 173.551096 
L 138.631694 172.363013 
L 138.203971 171.962802 
L 136.788793 171.17493 
L 136.347793 171.010427 
L 134.491614 170.593865 
L 132.635436 170.366709 
L 130.779257 170.238854 
L 128.923079 170.179272 
L 127.0669 170.19088 
L 125.210722 170.292178 
L 123.354543 170.502838 
L 121.498365 170.834858 
L 120.110333 171.17493 
L 119.642186 171.277644 
L 117.786008 171.800011 
L 116.141694 172.363013 
L 115.929829 172.428319 
L 114.073651 173.119699 
L 113.090618 173.551096 
L 112.217472 173.895739 
L 110.384569 174.73918 
L 110.361294 174.748808 
L 108.505115 175.645461 
L 107.992553 175.927263 
L 106.648937 176.591729 
L 105.705601 177.115346 
L 104.792758 177.571473 
L 103.46899 178.303429 
L 102.93658 178.569276 
L 101.245147 179.491513 
L 101.080402 179.573146 
L 99.224223 180.563933 
L 99.019423 180.679596 
L 97.368045 181.54246 
L 96.777941 181.867679 
L 95.511866 182.521703 
L 94.529983 183.055763 
L 93.655688 183.508963 
L 92.309668 184.243846 
L 91.799509 184.514666 
L 90.160357 185.431929 
L 89.943331 185.552795 
L 88.124444 186.620012 
L 88.087152 186.642368 
L 86.234192 187.808096 
L 86.230974 187.810225 
L 84.5079 188.996179 
L 84.374795 189.095602 
L 82.952912 190.184262 
L 82.518617 190.557299 
L 81.573553 191.372346 
L 80.662438 192.284527 
L 80.380716 192.560429 
L 79.348333 193.748512 
L 78.80626 194.512324 
L 78.487347 194.936595 
L 77.792485 196.124679 
L 77.28317 197.312762 
L 76.956671 198.500845 
L 76.950081 198.581347 
L 76.850582 199.688928 
L 76.950081 200.395192 
L 77.035011 200.877012 
L 77.682164 202.065095 
L 78.80626 203.080677 
L 79.131532 203.253178 
L 80.662438 203.871652 
z
" clip-path="url(#p66139f924a)" style="fill: none; stroke: #486afb; stroke-width: 2"/>
    <path d="M 82.518617 201.499952 
L 84.374795 201.857928 
L 86.230974 201.910879 
L 88.087152 201.767862 
L 89.943331 201.478412 
L 91.799509 201.067977 
L 92.515064 200.877012 
L 93.655688 200.582748 
L 95.511866 200.041644 
L 96.648574 199.688928 
L 97.368045 199.464688 
L 99.224223 198.887056 
L 100.485648 198.500845 
L 101.080402 198.312462 
L 102.93658 197.769814 
L 104.557727 197.312762 
L 104.792758 197.243327 
L 106.648937 196.732393 
L 108.505115 196.20158 
L 108.754672 196.124679 
L 110.361294 195.612768 
L 112.217472 194.962568 
L 112.283205 194.936595 
L 114.073651 194.203604 
L 115.100077 193.748512 
L 115.929829 193.364949 
L 117.551139 192.560429 
L 117.786008 192.438226 
L 119.642186 191.408799 
L 119.705291 191.372346 
L 121.498365 190.264674 
L 121.624029 190.184262 
L 123.352357 188.996179 
L 123.354543 188.994587 
L 124.903873 187.808096 
L 125.210722 187.559341 
L 126.312997 186.620012 
L 127.0669 185.940936 
L 127.604984 185.431929 
L 128.795136 184.243846 
L 128.923079 184.107487 
L 129.873345 183.055763 
L 130.779257 181.969161 
L 130.861486 181.867679 
L 131.703327 180.679596 
L 132.402321 179.491513 
L 132.635436 178.900543 
L 132.874521 178.303429 
L 133.015534 177.115346 
L 132.635436 175.927263 
L 132.635436 175.927263 
L 130.894623 174.73918 
L 130.779257 174.695775 
L 128.923079 174.277841 
L 127.0669 174.101192 
L 125.210722 174.087661 
L 123.354543 174.20534 
L 121.498365 174.438882 
L 119.852801 174.73918 
L 119.642186 174.775187 
L 117.786008 175.176244 
L 115.929829 175.649197 
L 114.983777 175.927263 
L 114.073651 176.177417 
L 112.217472 176.754376 
L 111.201102 177.115346 
L 110.361294 177.390073 
L 108.505115 178.078954 
L 107.981713 178.303429 
L 106.648937 178.821157 
L 105.104003 179.491513 
L 104.792758 179.614181 
L 102.93658 180.438553 
L 102.446589 180.679596 
L 101.080402 181.293403 
L 99.90413 181.867679 
L 99.224223 182.174972 
L 97.416542 183.055763 
L 97.368045 183.078029 
L 95.511866 183.993578 
L 95.033563 184.243846 
L 93.655688 184.941221 
L 92.739807 185.431929 
L 91.799509 185.931043 
L 90.571449 186.620012 
L 89.943331 186.978568 
L 88.564539 187.808096 
L 88.087152 188.108984 
L 86.74381 188.996179 
L 86.230974 189.362325 
L 85.120949 190.184262 
L 84.374795 190.801745 
L 83.699446 191.372346 
L 82.518617 192.52648 
L 82.483862 192.560429 
L 81.469353 193.748512 
L 80.662438 194.926736 
L 80.655479 194.936595 
L 80.065098 196.124679 
L 79.71959 197.312762 
L 79.66862 198.500845 
L 80.033159 199.688928 
L 80.662438 200.490916 
L 81.182745 200.877012 
L 82.518617 201.499952 
z
" clip-path="url(#p66139f924a)" style="fill: none; stroke: #486afb; stroke-width: 2"/>
    <path clip-path="url(#p66139f924a)" style="fill: none; stroke: #486afb; stroke-width: 2"/>
   </g>
   <g id="QuadContourSet_2">
    <path d="M 76.950081 234.898145 
L 77.665941 234.868008 
L 78.80626 234.83149 
L 80.662438 234.498329 
L 82.518617 234.074108 
L 84.190641 233.636089 
L 84.374795 233.595287 
L 86.230974 233.142321 
L 88.087152 232.672927 
L 89.104309 232.40417 
L 89.943331 232.213596 
L 91.799509 231.769931 
L 93.655688 231.253662 
L 93.909856 231.172251 
L 95.511866 230.727167 
L 97.368045 230.076995 
L 97.698157 229.940332 
L 99.224223 229.374296 
L 100.678243 228.708414 
L 101.080402 228.539863 
L 102.93658 227.627974 
L 103.212164 227.476495 
L 104.792758 226.645651 
L 105.471956 226.244576 
L 106.648937 225.566129 
L 107.527847 225.012657 
L 108.505115 224.400843 
L 109.437034 223.780738 
L 110.361294 223.160635 
L 111.242305 222.548819 
L 112.217472 221.86026 
L 112.979784 221.3169 
L 114.073651 220.522653 
L 114.684575 220.084981 
L 115.929829 219.180164 
L 116.395064 218.853062 
L 117.786008 217.870381 
L 118.155852 217.621143 
L 119.642186 216.627061 
L 120.01743 216.389224 
L 121.498365 215.470121 
L 122.027874 215.157305 
L 123.354543 214.399585 
L 124.211356 213.925386 
L 125.210722 213.396168 
L 126.538925 212.693468 
L 127.0669 212.427897 
L 128.919092 211.461549 
L 128.923079 211.459573 
L 130.779257 210.553934 
L 131.379374 210.22963 
L 132.635436 209.57502 
L 133.619746 208.997711 
L 134.491614 208.498749 
L 135.634664 207.765792 
L 136.347793 207.312131 
L 137.46015 206.533873 
L 138.203971 206.007607 
L 139.135878 205.301954 
L 140.06015 204.581 
L 140.691895 204.070035 
L 141.916328 203.035128 
L 142.148693 202.838116 
L 143.584977 201.606197 
L 143.772507 201.441097 
L 145.039305 200.374278 
L 145.628685 199.847044 
L 146.475326 199.142359 
L 147.484864 198.257309 
L 147.919916 197.910441 
L 149.341042 196.729135 
L 149.409099 196.678522 
L 151.038426 195.446603 
L 151.197221 195.322303 
L 152.778359 194.214684 
L 153.053399 194.013681 
L 154.62017 192.982765 
L 154.909577 192.782477 
L 156.548765 191.750846 
L 156.765756 191.605464 
L 158.530155 190.518927 
L 158.621934 190.458104 
L 160.478113 189.324196 
L 160.54461 189.287008 
L 162.334291 188.19237 
L 162.569407 188.055089 
L 164.19047 187.038927 
L 164.539267 186.82317 
L 166.046648 185.856527 
L 166.451584 185.591251 
L 167.902827 184.645232 
L 168.319714 184.359332 
L 169.759005 183.408285 
L 170.155409 183.127414 
L 171.615184 182.144141 
L 171.956895 181.895495 
L 173.471362 180.841306 
L 173.708333 180.663576 
L 175.327541 179.477529 
L 175.386247 179.431657 
L 176.977603 178.199738 
L 177.183719 178.033656 
L 178.462802 176.967819 
L 179.039898 176.453509 
L 179.832136 175.7359 
L 180.896076 174.689958 
L 181.085881 174.503981 
L 182.267805 173.272062 
L 182.752255 172.733161 
L 183.391842 172.040143 
L 184.484968 170.808224 
L 184.608433 170.674132 
L 185.64644 169.576305 
L 186.464612 168.72315 
L 186.840302 168.344386 
L 188.113873 167.112468 
L 188.32079 166.9236 
L 189.488575 165.880549 
L 190.176969 165.261698 
L 190.879793 164.64863 
L 192.033147 163.605494 
L 192.250266 163.416711 
L 193.629224 162.184792 
L 193.889326 161.937827 
L 194.978937 160.952873 
L 195.745504 160.172665 
L 196.217667 159.720954 
L 197.368883 158.489035 
L 197.601683 158.212353 
L 198.473197 157.257116 
L 199.403568 156.025197 
L 199.457861 155.945513 
L 200.32791 154.793278 
L 201.076646 153.561359 
L 201.31404 153.102911 
L 201.7701 152.329441 
L 202.361245 151.097522 
L 202.825795 149.865603 
L 203.170218 148.687847 
L 203.189036 148.633684 
L 203.474225 147.401765 
L 203.603329 146.169846 
L 203.559911 144.937927 
L 203.364011 143.706008 
L 203.170218 142.510461 
L 203.16496 142.474089 
L 203.170218 142.331983 
L 203.21691 141.24217 
L 203.637943 140.010251 
L 204.313487 138.778332 
L 205.026396 137.6728 
L 205.115162 137.546414 
L 206.067521 136.314495 
L 206.882575 135.12309 
L 206.91297 135.082576 
L 207.774766 133.850657 
L 208.445822 132.618738 
L 208.738753 131.937485 
L 209.002233 131.386819 
L 209.409285 130.1549 
L 209.631949 128.922981 
L 209.680491 127.691062 
L 209.56028 126.459143 
L 209.271607 125.227224 
L 208.781117 123.995305 
L 208.738753 123.921781 
L 207.841882 122.763387 
L 206.882575 122.095379 
L 205.026396 121.536861 
L 204.962399 121.531468 
L 203.170218 121.407223 
L 201.31404 121.460731 
L 200.466022 121.531468 
L 199.457861 121.606039 
L 197.601683 121.78055 
L 195.745504 121.959682 
L 193.889326 122.116341 
L 192.033147 122.216956 
L 190.176969 122.222223 
L 188.32079 122.119512 
L 186.464612 122.000277 
L 184.608433 122.049528 
L 182.752255 122.355606 
L 181.309704 122.763387 
L 180.896076 122.860221 
L 179.039898 123.462498 
L 177.625346 123.995305 
L 177.183719 124.140039 
L 175.327541 124.824522 
L 174.31466 125.227224 
L 173.471362 125.529101 
L 171.615184 126.231502 
L 171.032405 126.459143 
L 169.759005 126.921154 
L 167.902827 127.618412 
L 167.696011 127.691062 
L 166.046648 128.250474 
L 164.19047 128.859192 
L 163.933268 128.922981 
L 162.334291 129.323178 
L 160.478113 129.631131 
L 158.621934 129.717393 
L 156.765756 129.618277 
L 154.909577 129.500408 
L 153.053399 129.482731 
L 151.197221 129.576853 
L 149.341042 129.760429 
L 147.484864 130.024391 
L 146.746439 130.1549 
L 145.628685 130.322217 
L 143.772507 130.696615 
L 141.916328 131.214104 
L 141.418841 131.386819 
L 140.06015 131.785915 
L 138.203971 132.455478 
L 137.805269 132.618738 
L 136.347793 133.141514 
L 134.580644 133.850657 
L 134.491614 133.882163 
L 132.635436 134.617785 
L 131.555012 135.082576 
L 130.779257 135.385297 
L 128.923079 136.179276 
L 128.632856 136.314495 
L 127.0669 136.986891 
L 125.870388 137.546414 
L 125.210722 137.832216 
L 123.354543 138.706363 
L 123.209821 138.778332 
L 121.498365 139.582213 
L 120.64122 140.010251 
L 119.642186 140.484768 
L 118.137046 141.24217 
L 117.786008 141.411349 
L 115.929829 142.338113 
L 115.659278 142.474089 
L 114.073651 143.256005 
L 113.19959 143.706008 
L 112.217472 144.204854 
L 110.844409 144.937927 
L 110.361294 145.193389 
L 108.613309 146.169846 
L 108.505115 146.229803 
L 106.648937 147.2895 
L 106.4614 147.401765 
L 104.792758 148.392816 
L 104.409914 148.633684 
L 102.93658 149.545433 
L 102.441848 149.865603 
L 101.080402 150.723761 
L 100.50618 151.097522 
L 99.224223 151.903312 
L 98.562228 152.329441 
L 97.368045 153.068007 
L 96.587942 153.561359 
L 95.511866 154.21511 
L 94.58589 154.793278 
L 93.655688 155.354081 
L 92.581651 156.025197 
L 91.799509 156.501821 
L 90.612128 157.257116 
L 89.943331 157.677966 
L 88.710884 158.489035 
L 88.087152 158.902532 
L 86.900807 159.720954 
L 86.230974 160.196783 
L 85.196467 160.952873 
L 84.374795 161.587514 
L 83.61095 162.184792 
L 82.518617 163.115167 
L 82.162093 163.416711 
L 80.832005 164.64863 
L 80.662438 164.820485 
L 79.576996 165.880549 
L 78.80626 166.781029 
L 78.504584 167.112468 
L 77.495235 168.344386 
L 76.950081 169.14593 
L 76.627012 169.576305 
L 75.794596 170.808224 
L 75.117501 172.040143 
L 75.093903 172.083864 
L 74.357218 173.272062 
L 73.693987 174.503981 
L 73.237724 175.413781 
L 73.047837 175.7359 
L 72.312786 176.967819 
L 71.635045 178.199738 
L 71.381546 178.657617 
L 70.876428 179.431657 
L 70.113965 180.663576 
L 69.525367 181.689895 
L 69.385667 181.895495 
L 68.594525 183.127414 
L 67.906089 184.359332 
L 67.669189 184.83887 
L 67.226395 185.591251 
L 66.613996 186.82317 
L 66.102369 188.055089 
L 65.81301 188.884895 
L 65.643807 189.287008 
L 65.192782 190.518927 
L 64.779984 191.750846 
L 64.392951 192.982765 
L 64.03882 194.214684 
L 63.956832 194.532757 
L 63.656226 195.446603 
L 63.311562 196.678522 
L 63.043053 197.910441 
L 62.835799 199.142359 
L 62.651492 200.374278 
L 62.451238 201.606197 
L 62.213668 202.838116 
L 62.100653 203.304689 
L 61.855353 204.070035 
L 61.42471 205.301954 
L 61.000584 206.533873 
L 60.591584 207.765792 
L 60.244475 208.877455 
L 60.196248 208.997711 
L 59.801247 210.22963 
L 59.554755 211.461549 
L 59.548951 212.693468 
L 60.000835 213.925386 
L 60.244475 214.213177 
L 61.178297 215.157305 
L 62.100653 215.822909 
L 62.67266 216.389224 
L 63.72114 217.621143 
L 63.956832 218.007543 
L 64.290494 218.853062 
L 64.646129 220.084981 
L 64.950407 221.3169 
L 65.298929 222.548819 
L 65.81301 223.780738 
L 65.81301 223.780738 
L 66.563024 225.012657 
L 67.669189 226.151637 
L 67.768317 226.244576 
L 69.267953 227.476495 
L 69.525367 227.684212 
L 70.809873 228.708414 
L 71.381546 229.228428 
L 72.235129 229.940332 
L 73.237724 231.018573 
L 73.412655 231.172251 
L 74.326003 232.40417 
L 75.001937 233.636089 
L 75.093903 233.80682 
L 76.841451 234.868008 
L 76.950081 234.898145 
z
" clip-path="url(#p66139f924a)" style="fill: none; stroke: #fd46fc; stroke-width: 2"/>
    <path d="M 80.662438 218.882075 
L 82.518617 219.221823 
L 84.374795 219.328805 
L 86.230974 219.260776 
L 88.087152 219.067554 
L 89.547416 218.853062 
L 89.943331 218.79695 
L 91.799509 218.494326 
L 93.655688 218.164204 
L 95.511866 217.801207 
L 96.314773 217.621143 
L 97.368045 217.395227 
L 99.224223 216.91847 
L 100.903461 216.389224 
L 101.080402 216.336736 
L 102.93658 215.670277 
L 104.137961 215.157305 
L 104.792758 214.896022 
L 106.648937 214.03827 
L 106.865164 213.925386 
L 108.505115 213.122702 
L 109.296754 212.693468 
L 110.361294 212.148532 
L 111.596412 211.461549 
L 112.217472 211.132158 
L 113.811345 210.22963 
L 114.073651 210.086256 
L 115.929829 209.021694 
L 115.970643 208.997711 
L 117.786008 207.950331 
L 118.10032 207.765792 
L 119.642186 206.864687 
L 120.204526 206.533873 
L 121.498365 205.765719 
L 122.280315 205.301954 
L 123.354543 204.650317 
L 124.315303 204.070035 
L 125.210722 203.509939 
L 126.287843 202.838116 
L 127.0669 202.329338 
L 128.171259 201.606197 
L 128.923079 201.086315 
L 129.942491 200.374278 
L 130.779257 199.753941 
L 131.591055 199.142359 
L 132.635436 198.306851 
L 133.122279 197.910441 
L 134.491614 196.73192 
L 134.552864 196.678522 
L 135.934841 195.446603 
L 136.347793 195.070392 
L 137.281864 194.214684 
L 138.203971 193.356829 
L 138.61027 192.982765 
L 139.944254 191.750846 
L 140.06015 191.645311 
L 141.329377 190.518927 
L 141.916328 189.990776 
L 142.733734 189.287008 
L 143.772507 188.369126 
L 144.149449 188.055089 
L 145.571392 186.82317 
L 145.628685 186.77119 
L 147.02156 185.591251 
L 147.484864 185.165461 
L 148.427105 184.359332 
L 149.341042 183.494893 
L 149.757086 183.127414 
L 151.006921 181.895495 
L 151.197221 181.684842 
L 152.183055 180.663576 
L 153.053399 179.629153 
L 153.230264 179.431657 
L 154.217853 178.199738 
L 154.909577 177.218398 
L 155.09871 176.967819 
L 155.945167 175.7359 
L 156.694125 174.503981 
L 156.765756 174.372557 
L 157.425088 173.272062 
L 158.061739 172.040143 
L 158.589978 170.808224 
L 158.621934 170.717744 
L 159.080788 169.576305 
L 159.488617 168.344386 
L 159.847865 167.112468 
L 160.201531 165.880549 
L 160.478113 164.990929 
L 160.600795 164.64863 
L 161.091998 163.416711 
L 161.603823 162.184792 
L 162.118392 160.952873 
L 162.334291 160.41468 
L 162.667483 159.720954 
L 163.203035 158.489035 
L 163.661005 157.257116 
L 164.030993 156.025197 
L 164.19047 155.301165 
L 164.323583 154.793278 
L 164.490183 153.561359 
L 164.448022 152.329441 
L 164.19047 151.473123 
L 164.040324 151.097522 
L 162.656434 149.865603 
L 162.334291 149.714079 
L 160.478113 149.26993 
L 158.621934 149.114624 
L 156.765756 149.064819 
L 154.909577 149.030091 
L 153.053399 148.975693 
L 151.197221 148.910584 
L 149.341042 148.86186 
L 147.484864 148.840231 
L 145.628685 148.82528 
L 143.772507 148.772078 
L 142.007804 148.633684 
L 141.916328 148.625336 
L 140.06015 148.33248 
L 138.203971 147.973557 
L 136.347793 147.697272 
L 134.491614 147.623602 
L 132.635436 147.776257 
L 130.779257 148.118545 
L 128.923079 148.609761 
L 128.85387 148.633684 
L 127.0669 149.219036 
L 125.352424 149.865603 
L 125.210722 149.917055 
L 123.354543 150.68153 
L 122.431642 151.097522 
L 121.498365 151.511481 
L 119.788792 152.329441 
L 119.642186 152.399493 
L 117.786008 153.33205 
L 117.347488 153.561359 
L 115.929829 154.315173 
L 115.05373 154.793278 
L 114.073651 155.343383 
L 112.865681 156.025197 
L 112.217472 156.405119 
L 110.740085 157.257116 
L 110.361294 157.485594 
L 108.633912 158.489035 
L 108.505115 158.56762 
L 106.648937 159.633961 
L 106.489375 159.720954 
L 104.792758 160.675242 
L 104.274149 160.952873 
L 102.93658 161.688058 
L 101.997634 162.184792 
L 101.080402 162.680001 
L 99.696697 163.416711 
L 99.224223 163.672059 
L 97.453642 164.64863 
L 97.368045 164.69644 
L 95.511866 165.798904 
L 95.385055 165.880549 
L 93.655688 167.013238 
L 93.516939 167.112468 
L 91.850518 168.344386 
L 91.799509 168.38361 
L 90.400987 169.576305 
L 89.943331 169.987329 
L 89.109331 170.808224 
L 88.087152 171.885662 
L 87.95058 172.040143 
L 86.942624 173.272062 
L 86.230974 174.210733 
L 86.019685 174.503981 
L 85.173374 175.7359 
L 84.385248 176.967819 
L 84.374795 176.984066 
L 83.602396 178.199738 
L 82.857058 179.431657 
L 82.518617 180.00081 
L 82.113884 180.663576 
L 81.36905 181.895495 
L 80.684101 183.127414 
L 80.662438 183.165334 
L 79.935328 184.359332 
L 79.251564 185.591251 
L 78.80626 186.443415 
L 78.589283 186.82317 
L 77.90597 188.055089 
L 77.287613 189.287008 
L 76.950081 189.995183 
L 76.672625 190.518927 
L 76.05515 191.750846 
L 75.491281 192.982765 
L 75.093903 193.904834 
L 74.944143 194.214684 
L 74.379536 195.446603 
L 73.869397 196.678522 
L 73.407711 197.910441 
L 73.237724 198.420401 
L 72.966898 199.142359 
L 72.589923 200.374278 
L 72.310487 201.606197 
L 72.146106 202.838116 
L 72.11966 204.070035 
L 72.245029 205.301954 
L 72.506469 206.533873 
L 72.853615 207.765792 
L 73.228624 208.997711 
L 73.237724 209.027648 
L 73.546173 210.22963 
L 73.879999 211.461549 
L 74.265599 212.693468 
L 74.744148 213.925386 
L 75.093903 214.646054 
L 75.376982 215.157305 
L 76.283829 216.389224 
L 76.950081 217.068762 
L 77.736499 217.621143 
L 78.80626 218.247098 
L 80.574534 218.853062 
L 80.662438 218.882075 
z
" clip-path="url(#p66139f924a)" style="fill: none; stroke: #fd46fc; stroke-width: 2"/>
    <path d="M 84.374795 211.041754 
L 86.230974 211.275273 
L 88.087152 211.144554 
L 89.943331 210.797431 
L 91.799509 210.301653 
L 92.033888 210.22963 
L 93.655688 209.736962 
L 95.511866 209.116787 
L 95.878255 208.997711 
L 97.368045 208.502635 
L 99.224223 207.891381 
L 99.64419 207.765792 
L 101.080402 207.321159 
L 102.93658 206.768509 
L 103.739765 206.533873 
L 104.792758 206.21992 
L 106.648937 205.635718 
L 107.603288 205.301954 
L 108.505115 204.986354 
L 110.361294 204.249272 
L 110.756557 204.070035 
L 112.217472 203.409746 
L 113.347118 202.838116 
L 114.073651 202.471951 
L 115.620686 201.606197 
L 115.929829 201.434275 
L 117.667566 200.374278 
L 117.786008 200.302743 
L 119.563561 199.142359 
L 119.642186 199.091767 
L 121.366146 197.910441 
L 121.498365 197.821517 
L 123.114485 196.678522 
L 123.354543 196.512331 
L 124.831262 195.446603 
L 125.210722 195.178467 
L 126.524969 194.214684 
L 127.0669 193.82397 
L 128.192701 192.982765 
L 128.923079 192.441902 
L 129.823922 191.750846 
L 130.779257 191.016153 
L 131.404694 190.518927 
L 132.635436 189.524186 
L 132.920879 189.287008 
L 134.362485 188.055089 
L 134.491614 187.939782 
L 135.727083 186.82317 
L 136.347793 186.222816 
L 137.001361 185.591251 
L 138.177654 184.359332 
L 138.203971 184.329547 
L 139.288246 183.127414 
L 140.06015 182.178501 
L 140.298278 181.895495 
L 141.249919 180.663576 
L 141.916328 179.707063 
L 142.117652 179.431657 
L 142.950848 178.199738 
L 143.706447 176.967819 
L 143.772507 176.853674 
L 144.456107 175.7359 
L 145.151521 174.503981 
L 145.628685 173.601653 
L 145.812302 173.272062 
L 146.463575 172.040143 
L 147.06332 170.808224 
L 147.484864 169.873251 
L 147.624664 169.576305 
L 148.141317 168.344386 
L 148.578586 167.112468 
L 148.923244 165.880549 
L 149.144705 164.64863 
L 149.185847 163.416711 
L 148.952169 162.184792 
L 148.298692 160.952873 
L 147.484864 160.124474 
L 147.007742 159.720954 
L 145.628685 158.906079 
L 144.748069 158.489035 
L 143.772507 158.133965 
L 141.916328 157.699409 
L 140.06015 157.535204 
L 138.203971 157.572959 
L 136.347793 157.746989 
L 134.491614 158.016508 
L 132.635436 158.363411 
L 132.028238 158.489035 
L 130.779257 158.731649 
L 128.923079 159.125261 
L 127.0669 159.578209 
L 126.515904 159.720954 
L 125.210722 160.044682 
L 123.354543 160.586096 
L 122.29504 160.952873 
L 121.498365 161.217841 
L 119.642186 161.953811 
L 119.146848 162.184792 
L 117.786008 162.789277 
L 116.568315 163.416711 
L 115.929829 163.729796 
L 114.256554 164.64863 
L 114.073651 164.74394 
L 112.217472 165.795513 
L 112.077622 165.880549 
L 110.361294 166.860207 
L 109.942672 167.112468 
L 108.505115 167.926374 
L 107.798375 168.344386 
L 106.648937 168.98591 
L 105.632934 169.576305 
L 104.792758 170.040773 
L 103.463238 170.808224 
L 102.93658 171.10086 
L 101.329087 172.040143 
L 101.080402 172.182072 
L 99.279584 173.272062 
L 99.224223 173.305327 
L 97.368045 174.495818 
L 97.356077 174.503981 
L 95.582648 175.7359 
L 95.511866 175.78631 
L 93.961795 176.967819 
L 93.655688 177.210751 
L 92.484459 178.199738 
L 91.799509 178.809975 
L 91.137164 179.431657 
L 89.943331 180.628283 
L 89.909469 180.663576 
L 88.776094 181.895495 
L 88.087152 182.701409 
L 87.732162 183.127414 
L 86.774157 184.359332 
L 86.230974 185.106161 
L 85.883522 185.591251 
L 85.065068 186.82317 
L 84.374795 187.931988 
L 84.298708 188.055089 
L 83.588759 189.287008 
L 82.922469 190.518927 
L 82.518617 191.306731 
L 82.292687 191.750846 
L 81.71392 192.982765 
L 81.183074 194.214684 
L 80.708606 195.446603 
L 80.662438 195.596205 
L 80.328847 196.678522 
L 80.055464 197.910441 
L 79.90279 199.142359 
L 79.87441 200.374278 
L 79.948475 201.606197 
L 80.08173 202.838116 
L 80.236176 204.070035 
L 80.405388 205.301954 
L 80.619873 206.533873 
L 80.662438 206.7036 
L 80.971308 207.765792 
L 81.578521 208.997711 
L 82.518617 210.128889 
L 82.664271 210.22963 
L 84.374795 211.041754 
z
" clip-path="url(#p66139f924a)" style="fill: none; stroke: #fd46fc; stroke-width: 2"/>
    <path d="M 91.799509 202.877124 
L 92.121722 202.838116 
L 93.655688 202.632394 
L 95.511866 201.960397 
L 96.275668 201.606197 
L 97.368045 201.054421 
L 98.637921 200.374278 
L 99.224223 200.040409 
L 100.860749 199.142359 
L 101.080402 199.019093 
L 102.93658 198.06829 
L 103.296507 197.910441 
L 104.792758 197.259852 
L 106.485963 196.678522 
L 106.648937 196.62459 
L 108.505115 196.072259 
L 110.361294 195.574831 
L 110.790373 195.446603 
L 112.217472 195.044806 
L 114.073651 194.439728 
L 114.630701 194.214684 
L 115.929829 193.722028 
L 117.561259 192.982765 
L 117.786008 192.886096 
L 119.642186 191.938951 
L 119.966335 191.750846 
L 121.498365 190.886437 
L 122.087072 190.518927 
L 123.354543 189.734122 
L 124.020689 189.287008 
L 125.210722 188.477929 
L 125.794061 188.055089 
L 127.0669 187.100447 
L 127.418414 186.82317 
L 128.897253 185.591251 
L 128.923079 185.568407 
L 130.229541 184.359332 
L 130.779257 183.80887 
L 131.439216 183.127414 
L 132.527291 181.895495 
L 132.635436 181.761477 
L 133.501991 180.663576 
L 134.387732 179.431657 
L 134.491614 179.272274 
L 135.180809 178.199738 
L 135.902906 176.967819 
L 136.347793 176.145025 
L 136.567387 175.7359 
L 137.149649 174.503981 
L 137.674773 173.272062 
L 138.130913 172.040143 
L 138.203971 171.776965 
L 138.470191 170.808224 
L 138.686953 169.576305 
L 138.751907 168.344386 
L 138.619926 167.112468 
L 138.217354 165.880549 
L 138.203971 165.858441 
L 137.233898 164.64863 
L 136.347793 164.087601 
L 134.491614 163.623713 
L 132.635436 163.676529 
L 130.779257 164.002751 
L 128.923079 164.496974 
L 128.481322 164.64863 
L 127.0669 165.14051 
L 125.212263 165.880549 
L 125.210722 165.881181 
L 123.354543 166.718135 
L 122.535781 167.112468 
L 121.498365 167.631836 
L 120.122732 168.344386 
L 119.642186 168.60507 
L 117.856146 169.576305 
L 117.786008 169.616464 
L 115.929829 170.643474 
L 115.620223 170.808224 
L 114.073651 171.662632 
L 113.347419 172.040143 
L 112.217472 172.650349 
L 110.974559 173.272062 
L 110.361294 173.591496 
L 108.505115 174.484247 
L 108.463021 174.503981 
L 106.648937 175.372816 
L 105.884709 175.7359 
L 104.792758 176.270204 
L 103.403769 176.967819 
L 102.93658 177.211634 
L 101.154089 178.199738 
L 101.080402 178.242517 
L 99.224223 179.419357 
L 99.206648 179.431657 
L 97.53786 180.663576 
L 97.368045 180.795964 
L 96.101177 181.895495 
L 95.511866 182.434349 
L 94.828683 183.127414 
L 93.672627 184.359332 
L 93.655688 184.379061 
L 92.722255 185.591251 
L 91.799509 186.82317 
L 91.799509 186.82317 
L 91.050551 188.055089 
L 90.337157 189.287008 
L 89.943331 190.030149 
L 89.710439 190.518927 
L 89.223617 191.750846 
L 88.837694 192.982765 
L 88.591602 194.214684 
L 88.527458 195.446603 
L 88.653847 196.678522 
L 88.908229 197.910441 
L 89.191464 199.142359 
L 89.470309 200.374278 
L 89.848772 201.606197 
L 89.943331 201.775001 
L 91.650807 202.838116 
L 91.799509 202.877124 
z
" clip-path="url(#p66139f924a)" style="fill: none; stroke: #fd46fc; stroke-width: 2"/>
    <path d="M 115.929829 185.754972 
L 117.786008 185.767181 
L 118.392233 185.591251 
L 119.642186 185.17981 
L 121.299158 184.359332 
L 121.498365 184.246283 
L 122.944752 183.127414 
L 123.354543 182.766907 
L 124.126705 181.895495 
L 125.077862 180.663576 
L 125.210722 180.39421 
L 125.564863 179.431657 
L 125.785053 178.199738 
L 125.86425 176.967819 
L 125.95354 175.7359 
L 126.090761 174.503981 
L 125.943744 173.272062 
L 125.210722 172.823242 
L 123.585921 173.272062 
L 123.354543 173.343191 
L 121.69368 174.503981 
L 121.498365 174.642981 
L 120.430352 175.7359 
L 119.642186 176.502819 
L 119.248844 176.967819 
L 118.218203 178.199738 
L 117.786008 178.668538 
L 117.204695 179.431657 
L 116.217541 180.663576 
L 115.929829 181.043491 
L 115.361581 181.895495 
L 114.756656 183.127414 
L 114.580719 184.359332 
L 115.501789 185.591251 
L 115.929829 185.754972 
z
" clip-path="url(#p66139f924a)" style="fill: none; stroke: #fd46fc; stroke-width: 2"/>
    <path clip-path="url(#p66139f924a)" style="fill: none; stroke: #fd46fc; stroke-width: 2"/>
   </g>
   <g id="patch_3">
    <path d="M 45.992188 242.305781 
L 45.992188 11.025781 
" style="fill: none; stroke: #000000; stroke-width: 0.6; stroke-linejoin: miter; stroke-linecap: square"/>
   </g>
   <g id="patch_4">
    <path d="M 45.992188 242.305781 
L 333.162188 242.305781 
" style="fill: none; stroke: #000000; stroke-width: 0.6; stroke-linejoin: miter; stroke-linecap: square"/>
   </g>
   <g id="legend_1">
    <g id="patch_5">
     <path d="M 52.992188 48.488281 
L 193.357813 48.488281 
Q 195.357813 48.488281 195.357813 46.488281 
L 195.357813 18.025781 
Q 195.357813 16.025781 193.357813 16.025781 
L 52.992188 16.025781 
Q 50.992188 16.025781 50.992188 18.025781 
L 50.992188 46.488281 
Q 50.992188 48.488281 52.992188 48.488281 
z
" style="fill: #ffffff; opacity: 0.8; stroke: #333333; stroke-width: 0.2; stroke-linejoin: miter"/>
    </g>
    <g id="line2d_29">
     <path d="M 54.992188 24.177344 
L 64.992188 24.177344 
L 74.992188 24.177344 
" style="fill: none; stroke: #486afb; stroke-width: 2; stroke-linecap: square"/>
    </g>
    <g id="text_17">
     <!-- true data PDF -->
     <g transform="translate(82.992188 27.677344) scale(0.1 -0.1)">
      <defs>
       <path id="DejaVuSansMono-74" d="M 1919 4494 
L 1919 3500 
L 3225 3500 
L 3225 3053 
L 1919 3053 
L 1919 1153 
Q 1919 766 2066 612 
Q 2213 459 2578 459 
L 3225 459 
L 3225 0 
L 2522 0 
Q 1875 0 1609 259 
Q 1344 519 1344 1153 
L 1344 3053 
L 409 3053 
L 409 3500 
L 1344 3500 
L 1344 4494 
L 1919 4494 
z
" transform="scale(0.015625)"/>
       <path id="DejaVuSansMono-75" d="M 609 1325 
L 609 3494 
L 1184 3494 
L 1184 1325 
Q 1184 853 1351 631 
Q 1519 409 1869 409 
Q 2275 409 2490 695 
Q 2706 981 2706 1516 
L 2706 3494 
L 3284 3494 
L 3284 0 
L 2706 0 
L 2706 525 
Q 2553 222 2289 65 
Q 2025 -91 1672 -91 
Q 1134 -91 871 261 
Q 609 613 609 1325 
z
" transform="scale(0.015625)"/>
       <path id="DejaVuSansMono-20" transform="scale(0.015625)"/>
       <path id="DejaVuSansMono-64" d="M 2681 3053 
L 2681 4863 
L 3256 4863 
L 3256 0 
L 2681 0 
L 2681 441 
Q 2538 181 2298 45 
Q 2059 -91 1747 -91 
Q 1113 -91 748 401 
Q 384 894 384 1759 
Q 384 2613 750 3098 
Q 1116 3584 1747 3584 
Q 2063 3584 2303 3448 
Q 2544 3313 2681 3053 
z
M 991 1747 
Q 991 1078 1203 737 
Q 1416 397 1831 397 
Q 2247 397 2464 740 
Q 2681 1084 2681 1747 
Q 2681 2413 2464 2755 
Q 2247 3097 1831 3097 
Q 1416 3097 1203 2756 
Q 991 2416 991 1747 
z
" transform="scale(0.015625)"/>
       <path id="DejaVuSansMono-50" d="M 1247 4147 
L 1247 2394 
L 1978 2394 
Q 2416 2394 2661 2625 
Q 2906 2856 2906 3272 
Q 2906 3688 2662 3917 
Q 2419 4147 1978 4147 
L 1247 4147 
z
M 616 4666 
L 1978 4666 
Q 2759 4666 3162 4311 
Q 3566 3956 3566 3272 
Q 3566 2581 3164 2228 
Q 2763 1875 1978 1875 
L 1247 1875 
L 1247 0 
L 616 0 
L 616 4666 
z
" transform="scale(0.015625)"/>
       <path id="DejaVuSansMono-44" d="M 1363 519 
Q 2159 519 2475 911 
Q 2791 1303 2791 2328 
Q 2791 3363 2477 3755 
Q 2163 4147 1363 4147 
L 1063 4147 
L 1063 519 
L 1363 519 
z
M 1375 4666 
Q 2444 4666 2950 4097 
Q 3456 3528 3456 2328 
Q 3456 1134 2950 567 
Q 2444 0 1375 0 
L 428 0 
L 428 4666 
L 1375 4666 
z
" transform="scale(0.015625)"/>
       <path id="DejaVuSansMono-46" d="M 728 4666 
L 3475 4666 
L 3475 4134 
L 1363 4134 
L 1363 2759 
L 3278 2759 
L 3278 2228 
L 1363 2228 
L 1363 0 
L 728 0 
L 728 4666 
z
" transform="scale(0.015625)"/>
      </defs>
      <use xlink:href="#DejaVuSansMono-74"/>
      <use xlink:href="#DejaVuSansMono-72" x="60.205078"/>
      <use xlink:href="#DejaVuSansMono-75" x="120.410156"/>
      <use xlink:href="#DejaVuSansMono-65" x="180.615234"/>
      <use xlink:href="#DejaVuSansMono-20" x="240.820312"/>
      <use xlink:href="#DejaVuSansMono-64" x="301.025391"/>
      <use xlink:href="#DejaVuSansMono-61" x="361.230469"/>
      <use xlink:href="#DejaVuSansMono-74" x="421.435547"/>
      <use xlink:href="#DejaVuSansMono-61" x="481.640625"/>
      <use xlink:href="#DejaVuSansMono-20" x="541.845703"/>
      <use xlink:href="#DejaVuSansMono-50" x="602.050781"/>
      <use xlink:href="#DejaVuSansMono-44" x="662.255859"/>
      <use xlink:href="#DejaVuSansMono-46" x="722.460938"/>
     </g>
    </g>
    <g id="line2d_30">
     <path d="M 54.992188 38.908594 
L 64.992188 38.908594 
L 74.992188 38.908594 
" style="fill: none; stroke: #fd46fc; stroke-width: 2; stroke-linecap: square"/>
    </g>
    <g id="text_18">
     <!-- simulated data PDF -->
     <g transform="translate(82.992188 42.408594) scale(0.1 -0.1)">
      <defs>
       <path id="DejaVuSansMono-73" d="M 3041 3378 
L 3041 2816 
Q 2794 2959 2544 3031 
Q 2294 3103 2034 3103 
Q 1644 3103 1451 2976 
Q 1259 2850 1259 2591 
Q 1259 2356 1403 2240 
Q 1547 2125 2119 2016 
L 2350 1972 
Q 2778 1891 2998 1647 
Q 3219 1403 3219 1013 
Q 3219 494 2850 201 
Q 2481 -91 1825 -91 
Q 1566 -91 1281 -36 
Q 997 19 666 128 
L 666 722 
Q 988 556 1281 473 
Q 1575 391 1838 391 
Q 2219 391 2428 545 
Q 2638 700 2638 978 
Q 2638 1378 1872 1531 
L 1847 1538 
L 1631 1581 
Q 1134 1678 906 1908 
Q 678 2138 678 2534 
Q 678 3038 1018 3311 
Q 1359 3584 1991 3584 
Q 2272 3584 2531 3532 
Q 2791 3481 3041 3378 
z
" transform="scale(0.015625)"/>
       <path id="DejaVuSansMono-6d" d="M 2113 3144 
Q 2219 3369 2383 3476 
Q 2547 3584 2778 3584 
Q 3200 3584 3373 3257 
Q 3547 2931 3547 2028 
L 3547 0 
L 3022 0 
L 3022 2003 
Q 3022 2744 2939 2923 
Q 2856 3103 2638 3103 
Q 2388 3103 2295 2911 
Q 2203 2719 2203 2003 
L 2203 0 
L 1678 0 
L 1678 2003 
Q 1678 2753 1589 2928 
Q 1500 3103 1269 3103 
Q 1041 3103 952 2911 
Q 863 2719 863 2003 
L 863 0 
L 341 0 
L 341 3500 
L 863 3500 
L 863 3200 
Q 966 3388 1120 3486 
Q 1275 3584 1472 3584 
Q 1709 3584 1867 3475 
Q 2025 3366 2113 3144 
z
" transform="scale(0.015625)"/>
       <path id="DejaVuSansMono-6c" d="M 1997 1269 
Q 1997 881 2139 684 
Q 2281 488 2559 488 
L 3231 488 
L 3231 0 
L 2503 0 
Q 1988 0 1705 331 
Q 1422 663 1422 1269 
L 1422 4447 
L 500 4447 
L 500 4897 
L 1997 4897 
L 1997 1269 
z
" transform="scale(0.015625)"/>
      </defs>
      <use xlink:href="#DejaVuSansMono-73"/>
      <use xlink:href="#DejaVuSansMono-69" x="60.205078"/>
      <use xlink:href="#DejaVuSansMono-6d" x="120.410156"/>
      <use xlink:href="#DejaVuSansMono-75" x="180.615234"/>
      <use xlink:href="#DejaVuSansMono-6c" x="240.820312"/>
      <use xlink:href="#DejaVuSansMono-61" x="301.025391"/>
      <use xlink:href="#DejaVuSansMono-74" x="361.230469"/>
      <use xlink:href="#DejaVuSansMono-65" x="421.435547"/>
      <use xlink:href="#DejaVuSansMono-64" x="481.640625"/>
      <use xlink:href="#DejaVuSansMono-20" x="541.845703"/>
      <use xlink:href="#DejaVuSansMono-64" x="602.050781"/>
      <use xlink:href="#DejaVuSansMono-61" x="662.255859"/>
      <use xlink:href="#DejaVuSansMono-74" x="722.460938"/>
      <use xlink:href="#DejaVuSansMono-61" x="782.666016"/>
      <use xlink:href="#DejaVuSansMono-20" x="842.871094"/>
      <use xlink:href="#DejaVuSansMono-50" x="903.076172"/>
      <use xlink:href="#DejaVuSansMono-44" x="963.28125"/>
      <use xlink:href="#DejaVuSansMono-46" x="1023.486328"/>
     </g>
    </g>
   </g>
  </g>
 </g>
 <defs>
  <clipPath id="p66139f924a">
   <rect x="45.992188" y="11.025781" width="287.17" height="231.28"/>
  </clipPath>
 </defs>
</svg>