<?xml version="1.0" encoding="utf-8" standalone="no"?>
<!DOCTYPE svg PUBLIC "-//W3C//DTD SVG 1.1//EN"
  "http://www.w3.org/Graphics/SVG/1.1/DTD/svg11.dtd">
<svg xmlns:xlink="http://www.w3.org/1999/xlink" width="453.222187pt" height="334.688281pt" viewBox="0 0 453.222187 334.688281" xmlns="http://www.w3.org/2000/svg" version="1.1">
 <metadata>
  <rdf:RDF xmlns:dc="http://purl.org/dc/elements/1.1/" xmlns:cc="http://creativecommons.org/ns#" xmlns:rdf="http://www.w3.org/1999/02/22-rdf-syntax-ns#">
   <cc:Work>
    <dc:type rdf:resource="http://purl.org/dc/dcmitype/StillImage"/>
    <dc:date>2023-11-02T17:54:14.602806</dc:date>
    <dc:format>image/svg+xml</dc:format>
    <dc:creator>
     <cc:Agent>
      <dc:title>Matplotlib v3.8.0, https://matplotlib.org/</dc:title>
     </cc:Agent>
    </dc:creator>
   </cc:Work>
  </rdf:RDF>
 </metadata>
 <defs>
  <style type="text/css">*{stroke-linejoin: round; stroke-linecap: butt}</style>
 </defs>
 <g id="figure_1">
  <g id="patch_1">
   <path d="M 0 334.688281 
L 453.222187 334.688281 
L 453.222187 0 
L 0 0 
z
" style="fill: #ffffff"/>
  </g>
  <g id="axes_1">
   <g id="patch_2">
    <path d="M 45.992188 297.025781 
L 446.022187 297.025781 
L 446.022187 11.025781 
L 45.992188 11.025781 
z
" style="fill: #ffffff"/>
   </g>
   <g id="matplotlib.axis_1">
    <g id="xtick_1">
     <g id="line2d_1">
      <path d="M 63.589472 297.025781 
L 63.589472 11.025781 
" clip-path="url(#p538b248746)" style="fill: none; stroke-dasharray: 2.22,0.96; stroke-dashoffset: 0; stroke: #6c6066; stroke-opacity: 0.4; stroke-width: 0.6"/>
     </g>
     <g id="line2d_2">
      <defs>
       <path id="m04a1868528" d="M 0 0 
L 0 3.5 
" style="stroke: #000000; stroke-width: 0.8"/>
      </defs>
      <g>
       <use xlink:href="#m04a1868528" x="63.589472" y="297.025781" style="stroke: #000000; stroke-width: 0.8"/>
      </g>
     </g>
     <g id="text_1">
      <!-- 0 -->
      <g transform="translate(60.579316 311.677344) scale(0.1 -0.1)">
       <defs>
        <path id="DejaVuSansMono-30" d="M 1509 2344 
Q 1509 2516 1629 2641 
Q 1750 2766 1919 2766 
Q 2094 2766 2219 2641 
Q 2344 2516 2344 2344 
Q 2344 2169 2220 2047 
Q 2097 1925 1919 1925 
Q 1744 1925 1626 2044 
Q 1509 2163 1509 2344 
z
M 1925 4250 
Q 1484 4250 1267 3775 
Q 1050 3300 1050 2328 
Q 1050 1359 1267 884 
Q 1484 409 1925 409 
Q 2369 409 2586 884 
Q 2803 1359 2803 2328 
Q 2803 3300 2586 3775 
Q 2369 4250 1925 4250 
z
M 1925 4750 
Q 2672 4750 3055 4137 
Q 3438 3525 3438 2328 
Q 3438 1134 3055 521 
Q 2672 -91 1925 -91 
Q 1178 -91 797 521 
Q 416 1134 416 2328 
Q 416 3525 797 4137 
Q 1178 4750 1925 4750 
z
" transform="scale(0.015625)"/>
       </defs>
       <use xlink:href="#DejaVuSansMono-30"/>
      </g>
     </g>
    </g>
    <g id="xtick_2">
     <g id="line2d_3">
      <path d="M 135.04037 297.025781 
L 135.04037 11.025781 
" clip-path="url(#p538b248746)" style="fill: none; stroke-dasharray: 2.22,0.96; stroke-dashoffset: 0; stroke: #6c6066; stroke-opacity: 0.4; stroke-width: 0.6"/>
     </g>
     <g id="line2d_4">
      <g>
       <use xlink:href="#m04a1868528" x="135.04037" y="297.025781" style="stroke: #000000; stroke-width: 0.8"/>
      </g>
     </g>
     <g id="text_2">
      <!-- 100 -->
      <g transform="translate(126.009901 311.677344) scale(0.1 -0.1)">
       <defs>
        <path id="DejaVuSansMono-31" d="M 844 531 
L 1825 531 
L 1825 4097 
L 769 3859 
L 769 4434 
L 1819 4666 
L 2450 4666 
L 2450 531 
L 3419 531 
L 3419 0 
L 844 0 
L 844 531 
z
" transform="scale(0.015625)"/>
       </defs>
       <use xlink:href="#DejaVuSansMono-31"/>
       <use xlink:href="#DejaVuSansMono-30" x="60.205078"/>
       <use xlink:href="#DejaVuSansMono-30" x="120.410156"/>
      </g>
     </g>
    </g>
    <g id="xtick_3">
     <g id="line2d_5">
      <path d="M 206.491268 297.025781 
L 206.491268 11.025781 
" clip-path="url(#p538b248746)" style="fill: none; stroke-dasharray: 2.22,0.96; stroke-dashoffset: 0; stroke: #6c6066; stroke-opacity: 0.4; stroke-width: 0.6"/>
     </g>
     <g id="line2d_6">
      <g>
       <use xlink:href="#m04a1868528" x="206.491268" y="297.025781" style="stroke: #000000; stroke-width: 0.8"/>
      </g>
     </g>
     <g id="text_3">
      <!-- 200 -->
      <g transform="translate(197.4608 311.677344) scale(0.1 -0.1)">
       <defs>
        <path id="DejaVuSansMono-32" d="M 1166 531 
L 3309 531 
L 3309 0 
L 475 0 
L 475 531 
Q 1059 1147 1496 1619 
Q 1934 2091 2100 2284 
Q 2413 2666 2522 2902 
Q 2631 3138 2631 3384 
Q 2631 3775 2401 3997 
Q 2172 4219 1772 4219 
Q 1488 4219 1175 4116 
Q 863 4013 513 3803 
L 513 4441 
Q 834 4594 1145 4672 
Q 1456 4750 1759 4750 
Q 2444 4750 2861 4386 
Q 3278 4022 3278 3431 
Q 3278 3131 3139 2831 
Q 3000 2531 2688 2169 
Q 2513 1966 2180 1606 
Q 1847 1247 1166 531 
z
" transform="scale(0.015625)"/>
       </defs>
       <use xlink:href="#DejaVuSansMono-32"/>
       <use xlink:href="#DejaVuSansMono-30" x="60.205078"/>
       <use xlink:href="#DejaVuSansMono-30" x="120.410156"/>
      </g>
     </g>
    </g>
    <g id="xtick_4">
     <g id="line2d_7">
      <path d="M 277.942166 297.025781 
L 277.942166 11.025781 
" clip-path="url(#p538b248746)" style="fill: none; stroke-dasharray: 2.22,0.96; stroke-dashoffset: 0; stroke: #6c6066; stroke-opacity: 0.4; stroke-width: 0.6"/>
     </g>
     <g id="line2d_8">
      <g>
       <use xlink:href="#m04a1868528" x="277.942166" y="297.025781" style="stroke: #000000; stroke-width: 0.8"/>
      </g>
     </g>
     <g id="text_4">
      <!-- 300 -->
      <g transform="translate(268.911698 311.677344) scale(0.1 -0.1)">
       <defs>
        <path id="DejaVuSansMono-33" d="M 2425 2497 
Q 2884 2375 3128 2064 
Q 3372 1753 3372 1288 
Q 3372 644 2939 276 
Q 2506 -91 1741 -91 
Q 1419 -91 1084 -31 
Q 750 28 428 141 
L 428 769 
Q 747 603 1056 522 
Q 1366 441 1672 441 
Q 2191 441 2469 675 
Q 2747 909 2747 1350 
Q 2747 1756 2469 1995 
Q 2191 2234 1716 2234 
L 1234 2234 
L 1234 2753 
L 1716 2753 
Q 2150 2753 2394 2943 
Q 2638 3134 2638 3475 
Q 2638 3834 2411 4026 
Q 2184 4219 1766 4219 
Q 1488 4219 1191 4156 
Q 894 4094 569 3969 
L 569 4550 
Q 947 4650 1242 4700 
Q 1538 4750 1766 4750 
Q 2447 4750 2855 4408 
Q 3263 4066 3263 3500 
Q 3263 3116 3048 2859 
Q 2834 2603 2425 2497 
z
" transform="scale(0.015625)"/>
       </defs>
       <use xlink:href="#DejaVuSansMono-33"/>
       <use xlink:href="#DejaVuSansMono-30" x="60.205078"/>
       <use xlink:href="#DejaVuSansMono-30" x="120.410156"/>
      </g>
     </g>
    </g>
    <g id="xtick_5">
     <g id="line2d_9">
      <path d="M 349.393065 297.025781 
L 349.393065 11.025781 
" clip-path="url(#p538b248746)" style="fill: none; stroke-dasharray: 2.22,0.96; stroke-dashoffset: 0; stroke: #6c6066; stroke-opacity: 0.4; stroke-width: 0.6"/>
     </g>
     <g id="line2d_10">
      <g>
       <use xlink:href="#m04a1868528" x="349.393065" y="297.025781" style="stroke: #000000; stroke-width: 0.8"/>
      </g>
     </g>
     <g id="text_5">
      <!-- 400 -->
      <g transform="translate(340.362596 311.677344) scale(0.1 -0.1)">
       <defs>
        <path id="DejaVuSansMono-34" d="M 2297 4091 
L 825 1625 
L 2297 1625 
L 2297 4091 
z
M 2194 4666 
L 2925 4666 
L 2925 1625 
L 3547 1625 
L 3547 1113 
L 2925 1113 
L 2925 0 
L 2297 0 
L 2297 1113 
L 319 1113 
L 319 1709 
L 2194 4666 
z
" transform="scale(0.015625)"/>
       </defs>
       <use xlink:href="#DejaVuSansMono-34"/>
       <use xlink:href="#DejaVuSansMono-30" x="60.205078"/>
       <use xlink:href="#DejaVuSansMono-30" x="120.410156"/>
      </g>
     </g>
    </g>
    <g id="xtick_6">
     <g id="line2d_11">
      <path d="M 420.843963 297.025781 
L 420.843963 11.025781 
" clip-path="url(#p538b248746)" style="fill: none; stroke-dasharray: 2.22,0.96; stroke-dashoffset: 0; stroke: #6c6066; stroke-opacity: 0.4; stroke-width: 0.6"/>
     </g>
     <g id="line2d_12">
      <g>
       <use xlink:href="#m04a1868528" x="420.843963" y="297.025781" style="stroke: #000000; stroke-width: 0.8"/>
      </g>
     </g>
     <g id="text_6">
      <!-- 500 -->
      <g transform="translate(411.813494 311.677344) scale(0.1 -0.1)">
       <defs>
        <path id="DejaVuSansMono-35" d="M 647 4666 
L 3009 4666 
L 3009 4134 
L 1222 4134 
L 1222 2988 
Q 1356 3038 1492 3061 
Q 1628 3084 1766 3084 
Q 2491 3084 2916 2656 
Q 3341 2228 3341 1497 
Q 3341 759 2895 334 
Q 2450 -91 1678 -91 
Q 1306 -91 998 -41 
Q 691 9 447 109 
L 447 750 
Q 734 594 1025 517 
Q 1316 441 1619 441 
Q 2141 441 2423 716 
Q 2706 991 2706 1497 
Q 2706 1997 2414 2275 
Q 2122 2553 1600 2553 
Q 1347 2553 1106 2495 
Q 866 2438 647 2322 
L 647 4666 
z
" transform="scale(0.015625)"/>
       </defs>
       <use xlink:href="#DejaVuSansMono-35"/>
       <use xlink:href="#DejaVuSansMono-30" x="60.205078"/>
       <use xlink:href="#DejaVuSansMono-30" x="120.410156"/>
      </g>
     </g>
    </g>
    <g id="text_7">
     <!-- $x=$price -->
     <g transform="translate(221.857187 325.388281) scale(0.1 -0.1)">
      <defs>
       <path id="DejaVuSans-Oblique-78" d="M 3841 3500 
L 2234 1784 
L 3219 0 
L 2559 0 
L 1819 1388 
L 531 0 
L -166 0 
L 1556 1844 
L 641 3500 
L 1300 3500 
L 1972 2234 
L 3144 3500 
L 3841 3500 
z
" transform="scale(0.015625)"/>
       <path id="DejaVuSans-3d" d="M 678 2906 
L 4684 2906 
L 4684 2381 
L 678 2381 
L 678 2906 
z
M 678 1631 
L 4684 1631 
L 4684 1100 
L 678 1100 
L 678 1631 
z
" transform="scale(0.015625)"/>
       <path id="DejaVuSansMono-70" d="M 1172 441 
L 1172 -1331 
L 594 -1331 
L 594 3500 
L 1172 3500 
L 1172 3053 
Q 1316 3313 1555 3448 
Q 1794 3584 2106 3584 
Q 2741 3584 3102 3093 
Q 3463 2603 3463 1734 
Q 3463 881 3100 395 
Q 2738 -91 2106 -91 
Q 1788 -91 1548 45 
Q 1309 181 1172 441 
z
M 2859 1747 
Q 2859 2416 2648 2756 
Q 2438 3097 2022 3097 
Q 1603 3097 1387 2755 
Q 1172 2413 1172 1747 
Q 1172 1084 1387 740 
Q 1603 397 2022 397 
Q 2438 397 2648 737 
Q 2859 1078 2859 1747 
z
" transform="scale(0.015625)"/>
       <path id="DejaVuSansMono-72" d="M 3609 2778 
Q 3425 2922 3234 2987 
Q 3044 3053 2816 3053 
Q 2278 3053 1993 2715 
Q 1709 2378 1709 1741 
L 1709 0 
L 1131 0 
L 1131 3500 
L 1709 3500 
L 1709 2816 
Q 1853 3188 2151 3386 
Q 2450 3584 2859 3584 
Q 3072 3584 3256 3531 
Q 3441 3478 3609 3366 
L 3609 2778 
z
" transform="scale(0.015625)"/>
       <path id="DejaVuSansMono-69" d="M 800 3500 
L 2272 3500 
L 2272 447 
L 3413 447 
L 3413 0 
L 556 0 
L 556 447 
L 1697 447 
L 1697 3053 
L 800 3053 
L 800 3500 
z
M 1697 4863 
L 2272 4863 
L 2272 4134 
L 1697 4134 
L 1697 4863 
z
" transform="scale(0.015625)"/>
       <path id="DejaVuSansMono-63" d="M 3316 178 
Q 3084 44 2839 -23 
Q 2594 -91 2338 -91 
Q 1525 -91 1067 396 
Q 609 884 609 1747 
Q 609 2609 1067 3096 
Q 1525 3584 2338 3584 
Q 2591 3584 2831 3518 
Q 3072 3453 3316 3316 
L 3316 2713 
Q 3088 2916 2858 3006 
Q 2628 3097 2338 3097 
Q 1797 3097 1506 2747 
Q 1216 2397 1216 1747 
Q 1216 1100 1508 748 
Q 1800 397 2338 397 
Q 2638 397 2875 489 
Q 3113 581 3316 775 
L 3316 178 
z
" transform="scale(0.015625)"/>
       <path id="DejaVuSansMono-65" d="M 3475 1894 
L 3475 1613 
L 984 1613 
L 984 1594 
Q 984 1022 1282 709 
Q 1581 397 2125 397 
Q 2400 397 2700 484 
Q 3000 572 3341 750 
L 3341 178 
Q 3013 44 2708 -23 
Q 2403 -91 2119 -91 
Q 1303 -91 843 398 
Q 384 888 384 1747 
Q 384 2584 834 3084 
Q 1284 3584 2034 3584 
Q 2703 3584 3089 3131 
Q 3475 2678 3475 1894 
z
M 2900 2063 
Q 2888 2569 2661 2833 
Q 2434 3097 2009 3097 
Q 1594 3097 1325 2822 
Q 1056 2547 1006 2059 
L 2900 2063 
z
" transform="scale(0.015625)"/>
      </defs>
      <use xlink:href="#DejaVuSans-Oblique-78" transform="translate(0 0.015625)"/>
      <use xlink:href="#DejaVuSans-3d" transform="translate(78.662109 0.015625)"/>
      <use xlink:href="#DejaVuSansMono-70" transform="translate(181.933594 0.015625)"/>
      <use xlink:href="#DejaVuSansMono-72" transform="translate(242.138672 0.015625)"/>
      <use xlink:href="#DejaVuSansMono-69" transform="translate(302.34375 0.015625)"/>
      <use xlink:href="#DejaVuSansMono-63" transform="translate(362.548828 0.015625)"/>
      <use xlink:href="#DejaVuSansMono-65" transform="translate(422.753906 0.015625)"/>
     </g>
    </g>
   </g>
   <g id="matplotlib.axis_2">
    <g id="ytick_1">
     <g id="line2d_13">
      <path d="M 45.992188 297.025781 
L 446.022187 297.025781 
" clip-path="url(#p538b248746)" style="fill: none; stroke-dasharray: 2.22,0.96; stroke-dashoffset: 0; stroke: #6c6066; stroke-opacity: 0.4; stroke-width: 0.6"/>
     </g>
     <g id="line2d_14">
      <defs>
       <path id="md62dc901c1" d="M 0 0 
L -3.5 0 
" style="stroke: #000000; stroke-width: 0.8"/>
      </defs>
      <g>
       <use xlink:href="#md62dc901c1" x="45.992188" y="297.025781" style="stroke: #000000; stroke-width: 0.8"/>
      </g>
     </g>
     <g id="text_8">
      <!-- 0.0 -->
      <g transform="translate(20.93125 300.851562) scale(0.1 -0.1)">
       <defs>
        <path id="DejaVuSansMono-2e" d="M 1528 953 
L 2316 953 
L 2316 0 
L 1528 0 
L 1528 953 
z
" transform="scale(0.015625)"/>
       </defs>
       <use xlink:href="#DejaVuSansMono-30"/>
       <use xlink:href="#DejaVuSansMono-2e" x="60.205078"/>
       <use xlink:href="#DejaVuSansMono-30" x="120.410156"/>
      </g>
     </g>
    </g>
    <g id="ytick_2">
     <g id="line2d_15">
      <path d="M 45.992188 239.825781 
L 446.022187 239.825781 
" clip-path="url(#p538b248746)" style="fill: none; stroke-dasharray: 2.22,0.96; stroke-dashoffset: 0; stroke: #6c6066; stroke-opacity: 0.4; stroke-width: 0.6"/>
     </g>
     <g id="line2d_16">
      <g>
       <use xlink:href="#md62dc901c1" x="45.992188" y="239.825781" style="stroke: #000000; stroke-width: 0.8"/>
      </g>
     </g>
     <g id="text_9">
      <!-- 0.2 -->
      <g transform="translate(20.93125 243.651562) scale(0.1 -0.1)">
       <use xlink:href="#DejaVuSansMono-30"/>
       <use xlink:href="#DejaVuSansMono-2e" x="60.205078"/>
       <use xlink:href="#DejaVuSansMono-32" x="120.410156"/>
      </g>
     </g>
    </g>
    <g id="ytick_3">
     <g id="line2d_17">
      <path d="M 45.992188 182.625781 
L 446.022187 182.625781 
" clip-path="url(#p538b248746)" style="fill: none; stroke-dasharray: 2.22,0.96; stroke-dashoffset: 0; stroke: #6c6066; stroke-opacity: 0.4; stroke-width: 0.6"/>
     </g>
     <g id="line2d_18">
      <g>
       <use xlink:href="#md62dc901c1" x="45.992188" y="182.625781" style="stroke: #000000; stroke-width: 0.8"/>
      </g>
     </g>
     <g id="text_10">
      <!-- 0.4 -->
      <g transform="translate(20.93125 186.451562) scale(0.1 -0.1)">
       <use xlink:href="#DejaVuSansMono-30"/>
       <use xlink:href="#DejaVuSansMono-2e" x="60.205078"/>
       <use xlink:href="#DejaVuSansMono-34" x="120.410156"/>
      </g>
     </g>
    </g>
    <g id="ytick_4">
     <g id="line2d_19">
      <path d="M 45.992188 125.425781 
L 446.022187 125.425781 
" clip-path="url(#p538b248746)" style="fill: none; stroke-dasharray: 2.22,0.96; stroke-dashoffset: 0; stroke: #6c6066; stroke-opacity: 0.4; stroke-width: 0.6"/>
     </g>
     <g id="line2d_20">
      <g>
       <use xlink:href="#md62dc901c1" x="45.992188" y="125.425781" style="stroke: #000000; stroke-width: 0.8"/>
      </g>
     </g>
     <g id="text_11">
      <!-- 0.6 -->
      <g transform="translate(20.93125 129.251562) scale(0.1 -0.1)">
       <defs>
        <path id="DejaVuSansMono-36" d="M 3097 4563 
L 3097 3981 
Q 2900 4097 2678 4158 
Q 2456 4219 2216 4219 
Q 1616 4219 1306 3767 
Q 997 3316 997 2438 
Q 1147 2750 1412 2917 
Q 1678 3084 2022 3084 
Q 2697 3084 3067 2670 
Q 3438 2256 3438 1497 
Q 3438 741 3056 325 
Q 2675 -91 1984 -91 
Q 1172 -91 794 492 
Q 416 1075 416 2328 
Q 416 3509 870 4129 
Q 1325 4750 2188 4750 
Q 2419 4750 2650 4701 
Q 2881 4653 3097 4563 
z
M 1972 2591 
Q 1569 2591 1337 2300 
Q 1106 2009 1106 1497 
Q 1106 984 1337 693 
Q 1569 403 1972 403 
Q 2391 403 2603 679 
Q 2816 956 2816 1497 
Q 2816 2041 2603 2316 
Q 2391 2591 1972 2591 
z
" transform="scale(0.015625)"/>
       </defs>
       <use xlink:href="#DejaVuSansMono-30"/>
       <use xlink:href="#DejaVuSansMono-2e" x="60.205078"/>
       <use xlink:href="#DejaVuSansMono-36" x="120.410156"/>
      </g>
     </g>
    </g>
    <g id="ytick_5">
     <g id="line2d_21">
      <path d="M 45.992188 68.225781 
L 446.022187 68.225781 
" clip-path="url(#p538b248746)" style="fill: none; stroke-dasharray: 2.22,0.96; stroke-dashoffset: 0; stroke: #6c6066; stroke-opacity: 0.4; stroke-width: 0.6"/>
     </g>
     <g id="line2d_22">
      <g>
       <use xlink:href="#md62dc901c1" x="45.992188" y="68.225781" style="stroke: #000000; stroke-width: 0.8"/>
      </g>
     </g>
     <g id="text_12">
      <!-- 0.8 -->
      <g transform="translate(20.93125 72.051562) scale(0.1 -0.1)">
       <defs>
        <path id="DejaVuSansMono-38" d="M 1925 2216 
Q 1503 2216 1273 1980 
Q 1044 1744 1044 1313 
Q 1044 881 1276 642 
Q 1509 403 1925 403 
Q 2350 403 2579 639 
Q 2809 875 2809 1313 
Q 2809 1741 2576 1978 
Q 2344 2216 1925 2216 
z
M 1375 2478 
Q 972 2581 745 2862 
Q 519 3144 519 3541 
Q 519 4097 897 4423 
Q 1275 4750 1925 4750 
Q 2578 4750 2956 4423 
Q 3334 4097 3334 3541 
Q 3334 3144 3107 2862 
Q 2881 2581 2478 2478 
Q 2947 2375 3195 2062 
Q 3444 1750 3444 1253 
Q 3444 622 3041 265 
Q 2638 -91 1925 -91 
Q 1213 -91 811 264 
Q 409 619 409 1247 
Q 409 1747 657 2061 
Q 906 2375 1375 2478 
z
M 1147 3481 
Q 1147 3106 1347 2909 
Q 1547 2713 1925 2713 
Q 2306 2713 2506 2909 
Q 2706 3106 2706 3481 
Q 2706 3863 2507 4063 
Q 2309 4263 1925 4263 
Q 1547 4263 1347 4061 
Q 1147 3859 1147 3481 
z
" transform="scale(0.015625)"/>
       </defs>
       <use xlink:href="#DejaVuSansMono-30"/>
       <use xlink:href="#DejaVuSansMono-2e" x="60.205078"/>
       <use xlink:href="#DejaVuSansMono-38" x="120.410156"/>
      </g>
     </g>
    </g>
    <g id="ytick_6">
     <g id="line2d_23">
      <path d="M 45.992188 11.025781 
L 446.022187 11.025781 
" clip-path="url(#p538b248746)" style="fill: none; stroke-dasharray: 2.22,0.96; stroke-dashoffset: 0; stroke: #6c6066; stroke-opacity: 0.4; stroke-width: 0.6"/>
     </g>
     <g id="line2d_24">
      <g>
       <use xlink:href="#md62dc901c1" x="45.992188" y="11.025781" style="stroke: #000000; stroke-width: 0.8"/>
      </g>
     </g>
     <g id="text_13">
      <!-- 1.0 -->
      <g transform="translate(20.93125 14.851562) scale(0.1 -0.1)">
       <use xlink:href="#DejaVuSansMono-31"/>
       <use xlink:href="#DejaVuSansMono-2e" x="60.205078"/>
       <use xlink:href="#DejaVuSansMono-30" x="120.410156"/>
      </g>
     </g>
    </g>
    <g id="text_14">
     <!-- accumulated probability -->
     <g transform="translate(14.851563 223.259375) rotate(-90) scale(0.1 -0.1)">
      <defs>
       <path id="DejaVuSansMono-61" d="M 2194 1759 
L 2003 1759 
Q 1500 1759 1245 1582 
Q 991 1406 991 1056 
Q 991 741 1181 566 
Q 1372 391 1709 391 
Q 2184 391 2456 720 
Q 2728 1050 2731 1631 
L 2731 1759 
L 2194 1759 
z
M 3309 1997 
L 3309 0 
L 2731 0 
L 2731 519 
Q 2547 206 2267 57 
Q 1988 -91 1588 -91 
Q 1053 -91 734 211 
Q 416 513 416 1019 
Q 416 1603 808 1906 
Q 1200 2209 1959 2209 
L 2731 2209 
L 2731 2300 
Q 2728 2719 2518 2908 
Q 2309 3097 1850 3097 
Q 1556 3097 1256 3012 
Q 956 2928 672 2766 
L 672 3341 
Q 991 3463 1283 3523 
Q 1575 3584 1850 3584 
Q 2284 3584 2592 3456 
Q 2900 3328 3091 3072 
Q 3209 2916 3259 2686 
Q 3309 2456 3309 1997 
z
" transform="scale(0.015625)"/>
       <path id="DejaVuSansMono-75" d="M 609 1325 
L 609 3494 
L 1184 3494 
L 1184 1325 
Q 1184 853 1351 631 
Q 1519 409 1869 409 
Q 2275 409 2490 695 
Q 2706 981 2706 1516 
L 2706 3494 
L 3284 3494 
L 3284 0 
L 2706 0 
L 2706 525 
Q 2553 222 2289 65 
Q 2025 -91 1672 -91 
Q 1134 -91 871 261 
Q 609 613 609 1325 
z
" transform="scale(0.015625)"/>
       <path id="DejaVuSansMono-6d" d="M 2113 3144 
Q 2219 3369 2383 3476 
Q 2547 3584 2778 3584 
Q 3200 3584 3373 3257 
Q 3547 2931 3547 2028 
L 3547 0 
L 3022 0 
L 3022 2003 
Q 3022 2744 2939 2923 
Q 2856 3103 2638 3103 
Q 2388 3103 2295 2911 
Q 2203 2719 2203 2003 
L 2203 0 
L 1678 0 
L 1678 2003 
Q 1678 2753 1589 2928 
Q 1500 3103 1269 3103 
Q 1041 3103 952 2911 
Q 863 2719 863 2003 
L 863 0 
L 341 0 
L 341 3500 
L 863 3500 
L 863 3200 
Q 966 3388 1120 3486 
Q 1275 3584 1472 3584 
Q 1709 3584 1867 3475 
Q 2025 3366 2113 3144 
z
" transform="scale(0.015625)"/>
       <path id="DejaVuSansMono-6c" d="M 1997 1269 
Q 1997 881 2139 684 
Q 2281 488 2559 488 
L 3231 488 
L 3231 0 
L 2503 0 
Q 1988 0 1705 331 
Q 1422 663 1422 1269 
L 1422 4447 
L 500 4447 
L 500 4897 
L 1997 4897 
L 1997 1269 
z
" transform="scale(0.015625)"/>
       <path id="DejaVuSansMono-74" d="M 1919 4494 
L 1919 3500 
L 3225 3500 
L 3225 3053 
L 1919 3053 
L 1919 1153 
Q 1919 766 2066 612 
Q 2213 459 2578 459 
L 3225 459 
L 3225 0 
L 2522 0 
Q 1875 0 1609 259 
Q 1344 519 1344 1153 
L 1344 3053 
L 409 3053 
L 409 3500 
L 1344 3500 
L 1344 4494 
L 1919 4494 
z
" transform="scale(0.015625)"/>
       <path id="DejaVuSansMono-64" d="M 2681 3053 
L 2681 4863 
L 3256 4863 
L 3256 0 
L 2681 0 
L 2681 441 
Q 2538 181 2298 45 
Q 2059 -91 1747 -91 
Q 1113 -91 748 401 
Q 384 894 384 1759 
Q 384 2613 750 3098 
Q 1116 3584 1747 3584 
Q 2063 3584 2303 3448 
Q 2544 3313 2681 3053 
z
M 991 1747 
Q 991 1078 1203 737 
Q 1416 397 1831 397 
Q 2247 397 2464 740 
Q 2681 1084 2681 1747 
Q 2681 2413 2464 2755 
Q 2247 3097 1831 3097 
Q 1416 3097 1203 2756 
Q 991 2416 991 1747 
z
" transform="scale(0.015625)"/>
       <path id="DejaVuSansMono-20" transform="scale(0.015625)"/>
       <path id="DejaVuSansMono-6f" d="M 1925 3097 
Q 1488 3097 1263 2756 
Q 1038 2416 1038 1747 
Q 1038 1081 1263 739 
Q 1488 397 1925 397 
Q 2366 397 2591 739 
Q 2816 1081 2816 1747 
Q 2816 2416 2591 2756 
Q 2366 3097 1925 3097 
z
M 1925 3584 
Q 2653 3584 3039 3112 
Q 3425 2641 3425 1747 
Q 3425 850 3040 379 
Q 2656 -91 1925 -91 
Q 1197 -91 812 379 
Q 428 850 428 1747 
Q 428 2641 812 3112 
Q 1197 3584 1925 3584 
z
" transform="scale(0.015625)"/>
       <path id="DejaVuSansMono-62" d="M 2869 1747 
Q 2869 2416 2656 2756 
Q 2444 3097 2028 3097 
Q 1609 3097 1393 2755 
Q 1178 2413 1178 1747 
Q 1178 1084 1393 740 
Q 1609 397 2028 397 
Q 2444 397 2656 737 
Q 2869 1078 2869 1747 
z
M 1178 3053 
Q 1316 3309 1558 3446 
Q 1800 3584 2119 3584 
Q 2750 3584 3112 3098 
Q 3475 2613 3475 1759 
Q 3475 894 3111 401 
Q 2747 -91 2113 -91 
Q 1800 -91 1561 45 
Q 1322 181 1178 441 
L 1178 0 
L 603 0 
L 603 4863 
L 1178 4863 
L 1178 3053 
z
" transform="scale(0.015625)"/>
       <path id="DejaVuSansMono-79" d="M 2681 1125 
Q 2538 759 2316 163 
Q 2006 -663 1900 -844 
Q 1756 -1088 1540 -1209 
Q 1325 -1331 1038 -1331 
L 575 -1331 
L 575 -850 
L 916 -850 
Q 1169 -850 1312 -703 
Q 1456 -556 1678 56 
L 325 3500 
L 934 3500 
L 1972 763 
L 2994 3500 
L 3603 3500 
L 2681 1125 
z
" transform="scale(0.015625)"/>
      </defs>
      <use xlink:href="#DejaVuSansMono-61"/>
      <use xlink:href="#DejaVuSansMono-63" x="60.205078"/>
      <use xlink:href="#DejaVuSansMono-63" x="120.410156"/>
      <use xlink:href="#DejaVuSansMono-75" x="180.615234"/>
      <use xlink:href="#DejaVuSansMono-6d" x="240.820312"/>
      <use xlink:href="#DejaVuSansMono-75" x="301.025391"/>
      <use xlink:href="#DejaVuSansMono-6c" x="361.230469"/>
      <use xlink:href="#DejaVuSansMono-61" x="421.435547"/>
      <use xlink:href="#DejaVuSansMono-74" x="481.640625"/>
      <use xlink:href="#DejaVuSansMono-65" x="541.845703"/>
      <use xlink:href="#DejaVuSansMono-64" x="602.050781"/>
      <use xlink:href="#DejaVuSansMono-20" x="662.255859"/>
      <use xlink:href="#DejaVuSansMono-70" x="722.460938"/>
      <use xlink:href="#DejaVuSansMono-72" x="782.666016"/>
      <use xlink:href="#DejaVuSansMono-6f" x="842.871094"/>
      <use xlink:href="#DejaVuSansMono-62" x="903.076172"/>
      <use xlink:href="#DejaVuSansMono-61" x="963.28125"/>
      <use xlink:href="#DejaVuSansMono-62" x="1023.486328"/>
      <use xlink:href="#DejaVuSansMono-69" x="1083.691406"/>
      <use xlink:href="#DejaVuSansMono-6c" x="1143.896484"/>
      <use xlink:href="#DejaVuSansMono-69" x="1204.101562"/>
      <use xlink:href="#DejaVuSansMono-74" x="1264.306641"/>
      <use xlink:href="#DejaVuSansMono-79" x="1324.511719"/>
     </g>
    </g>
   </g>
   <g id="line2d_25">
    <path d="M 64.175369 297.025781 
L 64.175369 296.953777 
L 71.191848 296.881773 
L 71.206138 296.737765 
L 77.279464 296.665761 
L 77.38664 296.305741 
L 77.443801 296.233737 
L 77.500962 296.089729 
L 77.608138 296.017725 
L 77.608138 295.945721 
L 77.886797 295.873717 
L 77.993973 295.729709 
L 78.486984 295.657705 
L 78.55129 295.441693 
L 81.545083 295.369689 
L 81.623679 295.225681 
L 81.880902 295.153677 
L 81.988078 295.009668 
L 82.938375 294.937664 
L 82.938375 294.86566 
L 83.181308 294.793656 
L 83.238469 294.577644 
L 83.424241 294.50564 
L 83.424241 294.433636 
L 83.595723 294.361632 
L 83.595723 294.289628 
L 83.810076 294.217624 
L 83.902962 294.073616 
L 84.403119 294.001612 
L 84.467424 293.857604 
L 85.024741 293.7856 
L 85.024741 293.713596 
L 85.389141 293.641592 
L 85.424866 293.497584 
L 85.689235 293.42558 
L 85.703525 293.281572 
L 86.196536 293.209568 
L 86.289422 292.993556 
L 86.46805 292.921552 
L 86.46805 292.849548 
L 86.760998 292.777544 
L 86.825304 292.489527 
L 87.139688 292.417523 
L 87.225429 292.129507 
L 87.589829 292.057503 
L 87.668425 291.913495 
L 88.247177 291.841491 
L 88.247177 291.769487 
L 88.668737 291.697483 
L 88.775914 291.481471 
L 88.861655 291.409467 
L 88.8688 291.265459 
L 89.011702 291.265459 
L 89.011702 291.193455 
L 89.118878 290.905439 
L 89.333231 290.833435 
L 89.397536 290.617423 
L 89.71192 290.545419 
L 89.811952 290.257403 
L 89.840532 290.185399 
L 89.926273 290.041391 
L 89.969144 289.969386 
L 90.040594 289.825378 
L 90.319253 289.753374 
L 90.319253 289.68137 
L 90.783684 289.609366 
L 90.86228 289.249346 
L 91.048052 289.177342 
L 91.155228 288.817322 
L 91.31242 288.745318 
L 91.412452 288.457302 
L 91.491048 288.385298 
L 91.548208 288.169286 
L 91.683965 288.097282 
L 91.755416 287.88127 
L 91.984059 287.809266 
L 92.062655 287.449245 
L 92.176976 287.377241 
L 92.241282 287.161229 
L 92.341313 287.089225 
L 92.4342 286.801209 
L 92.49136 286.729205 
L 92.584246 286.225177 
L 92.627117 286.153173 
L 92.727148 285.937161 
L 92.741438 285.937161 
L 92.741438 285.865157 
L 92.805744 285.577141 
L 93.091548 285.505137 
L 93.127273 285.361129 
L 93.62743 285.289125 
L 93.734606 285.073113 
L 93.748896 285.001109 
L 93.791767 284.8571 
L 94.041845 284.785096 
L 94.134731 284.641088 
L 94.306213 284.569084 
L 94.413389 284.209064 
L 95.035012 284.13706 
L 95.127898 283.921048 
L 95.356541 283.849044 
L 95.463718 283.705036 
L 95.585184 283.633032 
L 95.69236 283.129004 
L 95.749521 283.057 
L 95.856698 282.624976 
L 95.885278 282.624976 
L 95.885278 282.552972 
L 95.985309 281.904935 
L 96.021035 281.832931 
L 96.128211 281.400907 
L 96.135356 281.400907 
L 96.135356 281.328903 
L 96.242532 280.608863 
L 96.278258 280.536859 
L 96.371144 280.032831 
L 96.414015 279.960827 
L 96.514046 279.600806 
L 96.699818 279.528802 
L 96.699818 279.456798 
L 96.992767 279.384794 
L 97.085653 279.096778 
L 97.192829 279.024774 
L 97.214265 278.880766 
L 97.357166 278.808762 
L 97.464343 278.664754 
L 97.62868 278.59275 
L 97.650115 278.448742 
L 97.793017 278.376738 
L 97.878758 278.160726 
L 98.085966 278.088722 
L 98.185997 277.656698 
L 98.378914 277.584694 
L 98.478946 277.368682 
L 98.643283 277.296678 
L 98.721879 277.008661 
L 98.800475 276.936657 
L 98.886216 276.792649 
L 99.000537 276.720645 
L 99.086278 276.432629 
L 99.143439 276.360625 
L 99.2006 276.144613 
L 99.329211 276.072609 
L 99.436388 275.424573 
L 99.464968 275.352569 
L 99.564999 274.560524 
L 99.59358 274.48852 
L 99.700756 273.552468 
L 99.729336 273.480464 
L 99.822222 272.760424 
L 99.886528 272.68842 
L 99.993705 272.112387 
L 100.122316 272.040383 
L 100.229493 271.392347 
L 100.429555 271.320343 
L 100.515296 271.104331 
L 100.622472 271.032327 
L 100.715359 270.888319 
L 100.915421 270.816315 
L 100.958292 270.528299 
L 101.101193 270.456295 
L 101.101193 270.384291 
L 101.365562 270.312287 
L 101.422723 270.096275 
L 101.679946 270.024271 
L 101.779977 269.808259 
L 101.865718 269.808259 
L 101.865718 269.736255 
L 101.865718 269.664251 
L 102.108651 269.592247 
L 102.201537 269.30423 
L 102.458761 269.232226 
L 102.565937 268.94421 
L 102.680258 268.872206 
L 102.758854 268.656194 
L 103.023223 268.58419 
L 103.108964 268.152166 
L 103.166124 268.080162 
L 103.273301 267.648138 
L 103.309026 267.576134 
L 103.416203 267.072106 
L 103.444783 267.000101 
L 103.509089 266.784089 
L 103.587685 266.784089 
L 103.587685 266.712085 
L 103.587685 266.640081 
L 103.887779 266.568077 
L 103.97352 266.280061 
L 104.116421 266.208057 
L 104.173582 266.064049 
L 104.259323 266.064049 
L 104.259323 265.992045 
L 104.259323 265.920041 
L 104.402225 265.848037 
L 104.452241 265.560021 
L 104.78806 265.488017 
L 104.888091 265.127997 
L 105.016703 265.055993 
L 105.095299 264.911985 
L 105.188185 264.839981 
L 105.2382 264.695973 
L 105.381102 264.623969 
L 105.381102 264.551965 
L 105.674051 264.479961 
L 105.724067 264.335952 
L 105.902694 264.263948 
L 105.988435 263.975932 
L 106.138482 263.903928 
L 106.231368 263.75992 
L 106.324254 263.687916 
L 106.35998 263.471904 
L 106.495736 263.3999 
L 106.588622 262.67986 
L 106.695799 262.607856 
L 106.76725 262.103828 
L 106.831556 262.103828 
L 106.831556 262.031824 
L 106.938732 261.599799 
L 106.967312 261.527795 
L 107.067343 261.023767 
L 107.103069 260.951763 
L 107.103069 260.879759 
L 107.310277 260.807755 
L 107.417453 260.447735 
L 107.481759 260.375731 
L 107.517484 260.231723 
L 107.746127 260.159719 
L 107.810433 259.871703 
L 107.94619 259.799699 
L 107.98906 259.583687 
L 108.103382 259.511683 
L 108.196268 259.151662 
L 108.332024 259.079658 
L 108.38204 258.791642 
L 108.546377 258.719638 
L 108.632118 258.503626 
L 108.74644 258.431622 
L 108.74644 258.359618 
L 108.960792 258.287614 
L 108.960792 258.21561 
L 109.110839 258.143606 
L 109.218016 257.927594 
L 109.432368 257.85559 
L 109.510964 257.639578 
L 109.57527 257.567574 
L 109.653866 257.279558 
L 109.868219 257.207554 
L 109.868219 257.207554 
L 109.889654 257.063546 
L 110.053991 256.991542 
L 110.154022 256.415509 
L 110.196893 256.343505 
L 110.261199 255.983485 
L 110.36123 255.911481 
L 110.446971 255.119437 
L 110.496987 255.047433 
L 110.589873 254.543405 
L 110.625598 254.471401 
L 110.704194 254.11138 
L 110.7685 254.039376 
L 110.7685 253.967372 
L 110.918547 253.895368 
L 110.997143 253.535348 
L 111.182915 253.463344 
L 111.261511 253.319336 
L 111.497299 253.247332 
L 111.604476 252.959316 
L 111.661636 252.887312 
L 111.761667 252.599296 
L 111.918859 252.527292 
L 111.968875 252.383284 
L 112.197518 252.31128 
L 112.247534 252.167272 
L 112.369 252.095268 
L 112.447596 251.735248 
L 112.690529 251.663243 
L 112.711964 251.519235 
L 112.883447 251.447231 
L 112.919172 251.303223 
L 113.054929 251.303223 
L 113.054929 251.231219 
L 113.15496 251.015207 
L 113.283572 250.943203 
L 113.383603 250.655187 
L 113.497924 250.583183 
L 113.605101 250.223163 
L 113.633681 250.151159 
L 113.705132 249.791139 
L 113.769438 249.719135 
L 113.876614 249.431119 
L 113.890904 249.431119 
L 113.890904 249.359115 
L 113.9695 248.855086 
L 114.040951 248.783082 
L 114.140982 247.84703 
L 114.205288 247.775026 
L 114.276739 247.415006 
L 114.36248 247.343002 
L 114.405351 246.982982 
L 114.612558 246.910978 
L 114.719735 246.76697 
L 114.75546 246.694966 
L 114.855491 246.334945 
L 115.11986 246.262941 
L 115.227036 245.830917 
L 115.305632 245.758913 
L 115.412808 245.254885 
L 115.534275 245.182881 
L 115.641451 244.822861 
L 115.705757 244.750857 
L 115.805788 244.390837 
L 115.862949 244.318833 
L 115.912965 244.174825 
L 116.020141 244.174825 
L 116.020141 244.102821 
L 116.113027 243.958812 
L 116.2988 243.886808 
L 116.363105 243.7428 
L 116.556023 243.670796 
L 116.620329 243.526788 
L 116.713215 243.454784 
L 116.806101 243.166768 
L 116.877552 243.094764 
L 116.898987 242.878752 
L 117.1705 242.806748 
L 117.270532 241.870696 
L 117.320547 241.798692 
L 117.427724 241.006647 
L 117.463449 240.934643 
L 117.56348 240.358611 
L 117.642076 240.286607 
L 117.742108 239.638571 
L 117.777833 239.566567 
L 117.885009 238.486506 
L 117.920735 238.414502 
L 118.027911 237.83847 
L 118.056492 237.766466 
L 118.092217 237.47845 
L 118.227974 237.406446 
L 118.33515 237.046426 
L 118.356585 236.974422 
L 118.420891 236.470394 
L 118.499487 236.39839 
L 118.606664 235.678349 
L 118.670969 235.606345 
L 118.749565 235.318329 
L 118.806726 235.318329 
L 118.806726 235.246325 
L 118.913902 235.030313 
L 119.056804 234.958309 
L 119.156835 234.526285 
L 119.221141 234.454281 
L 119.285447 234.238269 
L 119.399769 234.166265 
L 119.399769 234.094261 
L 119.606976 234.022257 
L 119.635556 233.878249 
L 119.864199 233.806244 
L 119.957086 233.518228 
L 120.078552 233.446224 
L 120.150003 233.086204 
L 120.214309 233.0142 
L 120.31434 232.510172 
L 120.335775 232.438168 
L 120.435807 231.862136 
L 120.450097 231.862136 
L 120.450097 231.790132 
L 120.550128 231.430112 
L 120.70732 231.358108 
L 120.764481 230.926083 
L 120.843077 230.854079 
L 120.943108 230.134039 
L 120.957398 230.134039 
L 120.957398 230.062035 
L 121.057429 229.341995 
L 121.08601 229.269991 
L 121.178896 228.693958 
L 121.221766 228.621954 
L 121.314653 228.333938 
L 121.386103 228.261934 
L 121.471845 227.685902 
L 121.650472 227.613898 
L 121.721923 227.181874 
L 121.91484 227.10987 
L 122.007726 226.821854 
L 122.193499 226.74985 
L 122.300675 226.533838 
L 122.357836 226.533838 
L 122.357836 226.461834 
L 122.400706 226.317826 
L 122.565043 226.245822 
L 122.67222 225.957805 
L 122.722235 225.885801 
L 122.72938 225.741793 
L 122.886572 225.669789 
L 122.886572 225.597785 
L 123.07949 225.525781 
L 123.13665 225.309769 
L 123.243827 225.309769 
L 123.243827 225.237765 
L 123.336713 225.021753 
L 123.401019 224.949749 
L 123.50105 224.517725 
L 123.586791 224.445721 
L 123.679677 224.013697 
L 123.736838 224.013697 
L 123.736838 223.941693 
L 123.736838 223.869689 
L 123.944046 223.797685 
L 124.036932 223.437664 
L 124.101238 223.36566 
L 124.172689 223.221652 
L 124.222704 223.149648 
L 124.308445 222.717624 
L 124.379896 222.64562 
L 124.487072 222.069588 
L 124.537088 221.997584 
L 124.644264 221.493556 
L 124.672845 221.421552 
L 124.780021 220.845519 
L 124.808601 220.845519 
L 124.808601 220.773515 
L 124.915778 220.413495 
L 124.944358 220.341491 
L 125.051535 219.981471 
L 125.065825 219.981471 
L 125.065825 219.909467 
L 125.173001 219.621451 
L 125.237307 219.549447 
L 125.344483 219.045419 
L 125.45166 218.973415 
L 125.558836 218.757403 
L 125.623142 218.685399 
L 125.644577 218.469386 
L 125.758898 218.397382 
L 125.84464 217.82135 
L 125.951816 217.749346 
L 126.016122 217.533334 
L 126.094718 217.46133 
L 126.187604 217.173314 
L 126.25191 217.10131 
L 126.28049 216.813294 
L 126.401957 216.74129 
L 126.401957 216.669286 
L 126.544858 216.669286 
L 126.544858 216.597282 
L 126.64489 216.309266 
L 126.666325 216.309266 
L 126.666325 216.237262 
L 126.694905 216.02125 
L 126.880678 215.949245 
L 126.973564 215.733233 
L 127.09503 215.661229 
L 127.130756 215.445217 
L 127.245077 215.373213 
L 127.316528 215.085197 
L 127.359399 215.085197 
L 127.359399 215.013193 
L 127.430849 214.653173 
L 127.480865 214.581169 
L 127.573751 214.077141 
L 127.609477 214.005137 
L 127.702363 213.285096 
L 127.788104 213.213092 
L 127.830974 212.853072 
L 127.959586 212.781068 
L 128.038182 212.421048 
L 128.088198 212.421048 
L 128.088198 212.349044 
L 128.195374 211.773012 
L 128.238245 211.701008 
L 128.331131 211.124976 
L 128.366856 211.052972 
L 128.474033 210.476939 
L 128.516903 210.404935 
L 128.624079 209.828903 
L 128.745546 209.756899 
L 128.745546 209.684895 
L 128.995624 209.612891 
L 129.07422 209.396879 
L 129.124236 209.324875 
L 129.202832 209.108863 
L 129.245702 209.108863 
L 129.245702 209.036859 
L 129.352879 208.892851 
L 129.381459 208.820847 
L 129.488635 208.460827 
L 129.617247 208.388823 
L 129.660117 208.17281 
L 129.767294 208.100806 
L 129.867325 207.740786 
L 129.910196 207.740786 
L 129.910196 207.668782 
L 130.017372 207.45277 
L 130.045952 207.45277 
L 130.045952 207.380766 
L 130.131693 207.164754 
L 130.367481 207.09275 
L 130.453222 206.660726 
L 130.524673 206.588722 
L 130.603269 206.37271 
L 130.710446 206.300706 
L 130.817622 206.084694 
L 130.939089 206.01269 
L 131.031975 205.652669 
L 131.096281 205.580665 
L 131.189167 205.292649 
L 131.296343 205.220645 
L 131.389229 204.860625 
L 131.48926 204.788621 
L 131.553566 204.068581 
L 131.660743 203.996577 
L 131.767919 203.708561 
L 131.803644 203.636557 
L 131.86795 202.98852 
L 131.960836 202.98852 
L 131.960836 202.916516 
L 132.032287 202.484492 
L 132.096593 202.412488 
L 132.203769 201.764452 
L 132.332381 201.692448 
L 132.353816 201.54844 
L 132.589604 201.476436 
L 132.689636 201.18842 
L 132.732506 201.18842 
L 132.732506 201.116416 
L 132.839682 200.756396 
L 133.154066 200.684392 
L 133.225517 200.468379 
L 133.282678 200.396375 
L 133.389854 200.180363 
L 133.432725 200.108359 
L 133.489886 199.820343 
L 133.561337 199.748339 
L 133.625642 199.604331 
L 133.782834 199.532327 
L 133.87572 199.244311 
L 133.961462 199.172307 
L 133.997187 198.884291 
L 134.125799 198.812287 
L 134.22583 198.308259 
L 134.2687 198.236255 
L 134.375877 197.732226 
L 134.397312 197.660222 
L 134.490198 197.012186 
L 134.540214 196.940182 
L 134.640245 196.292146 
L 134.654535 196.292146 
L 134.654535 196.220142 
L 134.740276 195.788118 
L 134.797437 195.716114 
L 134.897468 194.780061 
L 134.933194 194.708057 
L 135.04037 194.348037 
L 135.05466 194.276033 
L 135.140401 193.483989 
L 135.168982 193.483989 
L 135.168982 193.411985 
L 135.269013 192.187916 
L 135.311884 192.115912 
L 135.41906 190.747836 
L 135.440495 190.675832 
L 135.547671 189.595771 
L 135.604832 189.595771 
L 135.604832 189.523767 
L 135.704863 188.731723 
L 135.719154 188.731723 
L 135.719154 188.659719 
L 135.79775 187.939679 
L 135.912071 187.867675 
L 135.940651 187.723666 
L 136.047828 187.651662 
L 136.126424 187.507654 
L 136.20502 187.43565 
L 136.312196 186.859618 
L 136.326486 186.787614 
L 136.433663 186.571602 
L 136.469388 186.499598 
L 136.555129 185.99557 
L 136.683741 185.923566 
L 136.762337 185.419538 
L 136.869513 185.347534 
L 136.969544 185.059517 
L 137.012415 184.987513 
L 137.112446 184.483485 
L 137.205332 184.411481 
L 137.262493 184.123465 
L 137.355379 184.051461 
L 137.45541 183.691441 
L 137.505426 183.619437 
L 137.505426 183.547433 
L 137.769794 183.475429 
L 137.8341 183.115409 
L 137.948422 183.043405 
L 138.048453 182.755389 
L 138.134194 182.683384 
L 138.22708 182.467372 
L 138.291386 182.395368 
L 138.398562 182.035348 
L 138.527174 181.963344 
L 138.527174 181.89134 
L 138.677221 181.819336 
L 138.784397 181.53132 
L 138.812978 181.459316 
L 138.920154 181.099296 
L 138.97017 181.027292 
L 138.991605 180.739276 
L 139.113071 180.667272 
L 139.205957 180.523264 
L 139.234538 180.45126 
L 139.327424 180.091239 
L 139.363149 180.019235 
L 139.470326 179.443203 
L 139.527487 179.371199 
L 139.634663 178.939175 
L 139.720404 178.867171 
L 139.82758 178.435147 
L 139.899031 178.363143 
L 139.999062 178.075127 
L 140.041933 178.075127 
L 140.041933 178.003123 
L 140.041933 177.931119 
L 140.184835 177.859115 
L 140.284866 177.643102 
L 140.327737 177.571098 
L 140.399187 177.211078 
L 140.499219 177.139074 
L 140.59925 176.779054 
L 140.727862 176.779054 
L 140.727862 176.70705 
L 140.827893 176.34703 
L 140.985085 176.275026 
L 141.02081 176.131018 
L 141.213728 176.059014 
L 141.242308 175.915006 
L 141.3995 175.843002 
L 141.492386 175.482982 
L 141.549547 175.410978 
L 141.620998 175.050957 
L 141.721029 174.978953 
L 141.785335 174.690937 
L 141.942527 174.618933 
L 142.042558 174.186909 
L 142.15688 174.114905 
L 142.264056 173.538873 
L 142.278346 173.466869 
L 142.364087 173.034845 
L 142.435538 172.962841 
L 142.542714 172.530816 
L 142.57844 172.530816 
L 142.57844 172.458812 
L 142.685616 171.88278 
L 142.721342 171.810776 
L 142.757067 171.594764 
L 142.871389 171.52276 
L 142.978565 171.090736 
L 143.028581 171.018732 
L 143.128612 170.658712 
L 143.292949 170.586708 
L 143.292949 170.514704 
L 143.500156 170.4427 
L 143.571607 170.010676 
L 143.650203 169.938671 
L 143.750235 169.722659 
L 143.950297 169.650655 
L 144.021748 169.362639 
L 144.093199 169.290635 
L 144.200375 168.570595 
L 144.300407 168.498591 
L 144.364712 168.354583 
L 144.479034 168.282579 
L 144.514759 168.138571 
L 144.657661 168.066567 
L 144.764837 167.778551 
L 144.857724 167.706547 
L 144.922029 167.490535 
L 145.029206 167.41853 
L 145.136382 166.986506 
L 145.293574 166.914502 
L 145.336445 166.554482 
L 145.472201 166.482478 
L 145.557942 166.266466 
L 145.607958 166.194462 
L 145.650828 166.050454 
L 145.758005 165.97845 
L 145.850891 165.61843 
L 145.900907 165.546426 
L 145.986648 165.114402 
L 146.058099 165.042398 
L 146.165275 164.394361 
L 146.17242 164.394361 
L 146.17242 164.322357 
L 146.265306 163.818329 
L 146.336757 163.746325 
L 146.415353 163.314301 
L 146.508239 163.242297 
L 146.59398 163.098289 
L 146.679721 163.026285 
L 146.765463 162.810273 
L 146.9298 162.738269 
L 146.994105 162.306244 
L 147.101282 162.23424 
L 147.144152 161.946224 
L 147.294199 161.87422 
L 147.33707 161.730212 
L 147.501407 161.658208 
L 147.572858 161.5142 
L 147.722905 161.442196 
L 147.722905 161.370192 
L 147.880097 161.298188 
L 147.972983 161.082176 
L 148.008708 161.010172 
L 148.051579 160.722156 
L 148.187335 160.650152 
L 148.294512 160.43414 
L 148.323092 160.362136 
L 148.380253 160.218128 
L 148.594605 160.146124 
L 148.666056 159.570091 
L 148.773233 159.498087 
L 148.873264 158.850051 
L 148.894699 158.778047 
L 148.908989 158.634039 
L 149.044746 158.562035 
L 149.137632 158.274019 
L 149.187648 158.202015 
L 149.287679 157.841995 
L 149.323405 157.769991 
L 149.430581 157.193958 
L 149.502032 157.121954 
L 149.594918 156.761934 
L 149.652079 156.68993 
L 149.759255 156.113898 
L 149.78069 156.113898 
L 149.78069 156.041894 
L 149.880722 155.465862 
L 149.959318 155.393858 
L 150.045059 154.817826 
L 150.123655 154.745822 
L 150.223686 154.385801 
L 150.380878 154.313797 
L 150.473764 153.953777 
L 150.609521 153.881773 
L 150.702407 153.521753 
L 150.795293 153.449749 
L 150.838164 153.305741 
L 150.995356 153.233737 
L 151.081097 152.801713 
L 151.116822 152.729709 
L 151.195418 152.513697 
L 151.35261 152.441693 
L 151.445496 152.081672 
L 151.545528 152.009668 
L 151.602688 151.86566 
L 151.71701 151.793656 
L 151.788461 151.50564 
L 151.852766 151.50564 
L 151.852766 151.433636 
L 151.959943 151.217624 
L 152.038539 151.14562 
L 152.038539 151.073616 
L 152.210021 151.001612 
L 152.317197 150.7856 
L 152.431519 150.713596 
L 152.431519 150.641592 
L 152.595856 150.569588 
L 152.695887 150.353576 
L 152.838789 150.281572 
L 152.93882 149.633536 
L 152.981691 149.561532 
L 153.088867 148.481471 
L 153.103157 148.409467 
L 153.210334 147.761431 
L 153.224624 147.689427 
L 153.3318 147.041391 
L 153.338945 147.041391 
L 153.338945 146.969386 
L 153.446121 146.033334 
L 153.474702 145.96133 
L 153.581878 145.169286 
L 153.610459 145.097282 
L 153.703345 144.809266 
L 153.73907 144.809266 
L 153.73907 144.737262 
L 153.73907 144.665258 
L 153.903407 144.593254 
L 153.989148 144.305237 
L 154.024874 144.233233 
L 154.096325 144.017221 
L 154.167776 143.945217 
L 154.232081 143.729205 
L 154.317822 143.657201 
L 154.410709 143.441189 
L 154.48216 143.369185 
L 154.546465 143.225177 
L 154.639351 143.153173 
L 154.703657 142.793153 
L 154.789398 142.721149 
L 154.860849 142.433133 
L 155.039477 142.361129 
L 155.139508 142.001109 
L 155.239539 142.001109 
L 155.239539 141.929105 
L 155.32528 141.641088 
L 155.368151 141.569084 
L 155.453892 141.209064 
L 155.546778 141.13706 
L 155.625374 140.921048 
L 155.711115 140.849044 
L 155.796856 140.633032 
L 155.839727 140.633032 
L 155.839727 140.561028 
L 155.911177 140.201008 
L 155.982628 140.129004 
L 155.982628 140.057 
L 156.12553 139.984996 
L 156.168401 139.69698 
L 156.282722 139.624976 
L 156.282722 139.480968 
L 156.425624 139.408964 
L 156.51851 139.120947 
L 156.575671 139.048943 
L 156.675702 138.616919 
L 156.711428 138.544915 
L 156.804314 138.112891 
L 156.982941 138.040887 
L 157.075827 137.464855 
L 157.154423 137.392851 
L 157.247309 137.032831 
L 157.354486 136.960827 
L 157.447372 136.67281 
L 157.511678 136.600806 
L 157.533113 136.456798 
L 157.633144 136.384794 
L 157.72603 135.880766 
L 157.797481 135.808762 
L 157.797481 135.736758 
L 157.954673 135.664754 
L 157.954673 135.59275 
L 158.183316 135.520746 
L 158.247622 135.376738 
L 158.311928 135.304734 
L 158.411959 134.656698 
L 158.569151 134.584694 
L 158.569151 134.51269 
L 158.833519 134.440686 
L 158.869245 134.224673 
L 159.176484 134.152669 
L 159.255079 133.864653 
L 159.347966 133.792649 
L 159.347966 133.720645 
L 159.569463 133.648641 
L 159.569463 133.576637 
L 159.733801 133.504633 
L 159.755236 133.360625 
L 159.926718 133.288621 
L 159.962443 133.144613 
L 160.062475 133.072609 
L 160.169651 132.784593 
L 160.198231 132.712589 
L 160.298263 132.280565 
L 160.312553 132.280565 
L 160.312553 132.208561 
L 160.412584 131.560524 
L 160.448309 131.48852 
L 160.448309 131.416516 
L 160.641227 131.344512 
L 160.748403 130.984492 
L 160.769839 130.984492 
L 160.769839 130.912488 
L 160.819854 130.696476 
L 160.91274 130.624472 
L 160.941321 130.480464 
L 161.098513 130.40846 
L 161.162818 130.264452 
L 161.355736 130.192448 
L 161.398606 130.04844 
L 162.141696 129.976436 
L 162.213147 129.832428 
L 162.398919 129.760424 
L 162.506095 129.544412 
L 162.648997 129.472408 
L 162.741883 129.184392 
L 162.827624 129.112387 
L 162.913365 128.968379 
L 163.034832 128.896375 
L 163.120573 128.464351 
L 163.306345 128.392347 
L 163.392087 128.248339 
L 163.456392 128.248339 
L 163.456392 128.176335 
L 163.492118 128.032327 
L 163.585004 127.960323 
L 163.6636 127.744311 
L 163.792212 127.672307 
L 163.892243 127.312287 
L 163.977984 127.240283 
L 164.04229 126.808259 
L 164.170901 126.736255 
L 164.278078 126.448238 
L 164.506721 126.376234 
L 164.506721 126.30423 
L 164.849685 126.232226 
L 164.949716 125.872206 
L 165.078328 125.800202 
L 165.078328 125.728198 
L 165.428437 125.656194 
L 165.428437 125.58419 
L 165.728531 125.512186 
L 165.728531 125.440182 
L 165.885723 125.368178 
L 165.978609 125.22417 
L 166.085785 125.152166 
L 166.178672 124.936154 
L 166.257268 124.86415 
L 166.292993 124.720142 
L 166.521636 124.648138 
L 166.521636 124.576134 
L 166.721698 124.50413 
L 166.82173 124.216114 
L 167.121823 124.14411 
L 167.193274 123.928097 
L 167.386192 123.856093 
L 167.493368 123.640081 
L 167.62198 123.568077 
L 167.63627 123.352065 
L 167.757736 123.280061 
L 167.864913 122.992045 
L 167.964944 122.920041 
L 168.000669 122.776033 
L 168.243602 122.704029 
L 168.350779 122.344009 
L 168.429375 122.272005 
L 168.429375 122.200001 
L 168.708033 122.127997 
L 168.779484 121.983989 
L 168.879515 121.911985 
L 168.979547 121.551965 
L 169.158174 121.479961 
L 169.165319 121.335952 
L 169.451123 121.263948 
L 169.472558 121.11994 
L 169.686911 121.047936 
L 169.686911 120.975932 
L 169.965569 120.975932 
L 169.965569 120.903928 
L 170.058455 120.471904 
L 170.108471 120.471904 
L 170.108471 120.3999 
L 170.187067 119.967876 
L 170.294243 119.895872 
L 170.337114 119.67986 
L 170.44429 119.607856 
L 170.551466 119.103828 
L 170.608627 119.031824 
L 170.708658 118.455791 
L 170.772964 118.383787 
L 170.86585 117.591743 
L 170.887286 117.591743 
L 170.887286 117.519739 
L 170.994462 116.727695 
L 171.008752 116.727695 
L 171.008752 116.655691 
L 171.101638 115.93565 
L 171.144509 115.93565 
L 171.144509 115.863646 
L 171.24454 115.359618 
L 171.287411 115.287614 
L 171.394587 114.423566 
L 171.423167 114.351562 
L 171.451748 114.063546 
L 171.866163 113.991542 
L 171.873308 113.847534 
L 172.116241 113.775529 
L 172.166257 113.559517 
L 172.537801 113.487513 
L 172.537801 113.415509 
L 172.780735 113.343505 
L 172.780735 113.271501 
L 173.130844 113.199497 
L 173.202295 112.983485 
L 173.352342 112.911481 
L 173.438083 112.767473 
L 173.509534 112.695469 
L 173.559549 112.551461 
L 173.752467 112.479457 
L 173.773902 112.335449 
L 174.059706 112.263445 
L 174.166882 111.975429 
L 174.266913 111.903425 
L 174.266913 111.831421 
L 174.531282 111.759417 
L 174.531282 111.687413 
L 174.745634 111.615409 
L 174.802795 111.471401 
L 174.938552 111.399397 
L 175.045728 111.255389 
L 175.117179 111.183384 
L 175.210065 110.895368 
L 175.402982 110.823364 
L 175.438708 110.679356 
L 175.538739 110.607352 
L 175.560174 110.39134 
L 175.688786 110.39134 
L 175.688786 110.319336 
L 175.688786 110.247332 
L 175.903139 110.175328 
L 175.903139 110.103324 
L 176.088911 110.03132 
L 176.146072 109.887312 
L 176.231813 109.887312 
L 176.231813 109.815308 
L 176.281829 109.599296 
L 176.42473 109.527292 
L 176.460456 109.31128 
L 176.610503 109.239276 
L 176.610503 109.167272 
L 176.932032 109.095268 
L 176.932032 109.023264 
L 177.089224 108.95126 
L 177.103514 108.807252 
L 177.303576 108.735248 
L 177.410753 108.375227 
L 177.517929 108.303223 
L 177.517929 108.231219 
L 177.839458 108.159215 
L 177.918054 107.727191 
L 177.975215 107.655187 
L 178.018085 107.439175 
L 178.168132 107.367171 
L 178.218148 107.079155 
L 178.38963 107.007151 
L 178.411065 106.863143 
L 178.832626 106.791139 
L 178.832626 106.719135 
L 179.039833 106.647131 
L 179.039833 106.575127 
L 179.211315 106.503123 
L 179.282766 106.215107 
L 179.332782 106.215107 
L 179.332782 106.143102 
L 179.332782 106.071098 
L 179.825793 105.999094 
L 179.868664 105.783082 
L 179.96155 105.711078 
L 179.968695 105.56707 
L 180.240208 105.495066 
L 180.240208 105.423062 
L 180.36882 105.351058 
L 180.425981 105.063042 
L 180.79038 104.991038 
L 180.79038 104.919034 
L 181.226231 104.84703 
L 181.247666 104.703022 
L 181.504889 104.631018 
L 181.597775 104.343002 
L 181.733532 104.270998 
L 181.804983 104.054986 
L 181.890724 103.982982 
L 181.962175 103.76697 
L 182.026481 103.694966 
L 182.090787 103.550957 
L 182.147947 103.550957 
L 182.147947 103.478953 
L 182.147947 103.406949 
L 182.519492 103.334945 
L 182.519492 103.262941 
L 183.155405 103.190937 
L 183.262581 102.902921 
L 183.727012 102.830917 
L 183.727012 102.686909 
L 184.134282 102.614905 
L 184.177153 102.470897 
L 184.320055 102.398893 
L 184.377215 102.182881 
L 184.491537 102.110877 
L 184.598713 101.966869 
L 184.72018 101.894865 
L 184.813066 101.678853 
L 184.848791 101.606849 
L 184.920242 101.390837 
L 184.984548 101.318833 
L 185.084579 101.102821 
L 185.17032 101.030816 
L 185.241771 100.886808 
L 185.356093 100.814804 
L 185.441834 100.598792 
L 185.491849 100.526788 
L 185.599026 100.166768 
L 185.634751 100.094764 
L 185.734782 99.734744 
L 186.099182 99.66274 
L 186.206358 99.518732 
L 186.413566 99.446728 
L 186.477872 99.30272 
L 186.913722 99.230716 
L 186.999463 99.086708 
L 187.10664 99.014704 
L 187.13522 98.870696 
L 187.649666 98.798692 
L 187.699682 98.654684 
L 187.864019 98.654684 
L 187.864019 98.58268 
L 187.864019 98.510676 
L 188.199838 98.438671 
L 188.292725 98.150655 
L 188.528512 98.078651 
L 188.635689 97.862639 
L 188.742865 97.790635 
L 188.778591 97.358611 
L 188.864332 97.358611 
L 188.864332 97.286607 
L 188.971508 96.782579 
L 189.135845 96.710575 
L 189.243021 96.278551 
L 189.321617 96.206547 
L 189.321617 96.134543 
L 189.786048 96.062539 
L 189.786048 95.990535 
L 190.043272 95.990535 
L 190.043272 95.91853 
L 190.043272 95.846526 
L 190.221899 95.774522 
L 190.221899 95.702518 
L 190.557718 95.630514 
L 190.614879 95.486506 
L 191.586611 95.414502 
L 191.643772 95.126486 
L 191.715223 95.054482 
L 191.800964 94.766466 
L 191.87956 94.694462 
L 191.90814 94.47845 
L 192.079622 94.406446 
L 192.122493 94.190434 
L 192.293975 94.11843 
L 192.358281 93.974422 
L 192.465457 93.902418 
L 192.529763 93.542398 
L 192.686955 93.470394 
L 192.758406 93.254381 
L 193.094225 93.182377 
L 193.172821 92.894361 
L 193.637252 92.822357 
L 193.637252 92.750353 
L 194.044522 92.678349 
L 194.123118 92.462337 
L 194.523243 92.390333 
L 194.523243 92.318329 
L 194.787611 92.246325 
L 194.787611 92.174321 
L 194.937658 92.102317 
L 194.937658 92.030313 
L 195.137721 91.958309 
L 195.209171 91.814301 
L 195.995131 91.742297 
L 196.059437 91.598289 
L 196.223774 91.526285 
L 196.28808 91.310273 
L 196.631044 91.238269 
L 196.631044 91.166265 
L 196.881122 91.166265 
L 196.881122 91.094261 
L 196.881122 91.022257 
L 197.216942 90.950253 
L 197.216942 90.878249 
L 197.581341 90.806244 
L 197.581341 90.73424 
L 198.202964 90.662236 
L 198.26727 90.518228 
L 198.624524 90.446224 
L 198.724556 90.086204 
L 198.881748 90.0142 
L 198.953199 89.65418 
L 199.024649 89.582176 
L 199.117536 89.29416 
L 199.224712 89.222156 
L 199.253292 89.078148 
L 199.424774 89.006144 
L 199.517661 88.790132 
L 199.667707 88.718128 
L 199.753449 88.286104 
L 199.910641 88.214099 
L 199.982091 87.854079 
L 200.296475 87.782075 
L 200.296475 87.710071 
L 200.818067 87.638067 
L 200.818067 87.566063 
L 201.361094 87.494059 
L 201.389674 87.350051 
L 201.789799 87.278047 
L 201.896976 86.846023 
L 202.189924 86.774019 
L 202.189924 86.702015 
L 202.454293 86.630011 
L 202.454293 86.558007 
L 202.611485 86.486003 
L 202.611485 86.413999 
L 202.968739 86.341995 
L 203.061625 85.909971 
L 203.125931 85.837967 
L 203.211672 85.477946 
L 203.333139 85.405942 
L 203.333139 85.333938 
L 203.554636 85.261934 
L 203.554636 85.18993 
L 203.711828 85.117926 
L 203.797569 84.973918 
L 204.133389 84.901914 
L 204.211985 84.613898 
L 204.554949 84.541894 
L 204.647835 84.397886 
L 204.912203 84.325882 
L 205.01938 84.037866 
L 205.219442 83.965862 
L 205.326619 83.821854 
L 205.405215 83.74985 
L 205.46952 83.605842 
L 205.791049 83.605842 
L 205.791049 83.533838 
L 205.898226 83.245822 
L 205.919661 83.173818 
L 205.976822 82.741793 
L 206.076853 82.669789 
L 206.162594 82.381773 
L 206.219755 82.309769 
L 206.305496 82.093757 
L 206.376947 82.021753 
L 206.462688 81.589729 
L 206.491268 81.589729 
L 206.491268 81.517725 
L 206.584154 80.725681 
L 206.61988 80.725681 
L 206.61988 80.653677 
L 206.698476 79.64562 
L 206.769927 79.573616 
L 206.869958 78.92558 
L 206.884248 78.92558 
L 206.884248 78.853576 
L 206.991425 78.20554 
L 207.02715 78.133536 
L 207.134326 77.557503 
L 207.141471 77.557503 
L 207.141471 77.485499 
L 207.170052 77.125479 
L 207.584467 77.053475 
L 207.620192 76.909467 
L 207.884561 76.837463 
L 207.884561 76.765459 
L 208.441878 76.693455 
L 208.520474 76.549447 
L 208.684811 76.477443 
L 208.684811 76.405439 
L 209.142097 76.333435 
L 209.142097 76.261431 
L 209.263563 76.261431 
L 209.263563 76.189427 
L 209.363594 76.045419 
L 209.620818 75.973415 
L 209.620818 75.829407 
L 209.913766 75.757403 
L 209.913766 75.685399 
L 210.120974 75.613395 
L 210.120974 75.541391 
L 210.764032 75.469386 
L 210.806903 75.325378 
L 211.085561 75.253374 
L 211.085561 75.18137 
L 211.40709 75.109366 
L 211.471396 74.965358 
L 211.564282 74.893354 
L 211.564282 74.82135 
L 211.81436 74.749346 
L 211.850086 74.605338 
L 212.071583 74.533334 
L 212.071583 74.46133 
L 212.457418 74.389326 
L 212.536014 74.245318 
L 213.200508 74.173314 
L 213.200508 74.10131 
L 213.707809 74.029306 
L 213.814985 73.813294 
L 213.922162 73.74129 
L 213.957887 73.597282 
L 214.20082 73.525278 
L 214.20082 73.453274 
L 214.572365 73.38127 
L 214.650961 73.237262 
L 215.036796 73.165258 
L 215.036796 73.093254 
L 215.186843 73.02125 
L 215.186843 72.949245 
L 215.915642 72.877241 
L 215.915642 72.805237 
L 216.272896 72.733233 
L 216.272896 72.661229 
L 216.687311 72.589225 
L 216.715892 72.445217 
L 217.158887 72.373213 
L 217.244628 72.157201 
L 217.287499 72.085197 
L 217.287499 72.013193 
L 217.537577 71.941189 
L 217.616173 71.797181 
L 217.7948 71.725177 
L 217.7948 71.653173 
L 218.630776 71.581169 
L 218.630776 71.509165 
L 219.095207 71.437161 
L 219.095207 71.365157 
L 219.595363 71.293153 
L 219.659669 71.149145 
L 220.374178 71.077141 
L 220.452774 70.933133 
L 220.838609 70.861129 
L 220.838609 70.789125 
L 221.174428 70.717121 
L 221.188718 70.573113 
L 221.31733 70.573113 
L 221.31733 70.501109 
L 221.410216 70.285096 
L 221.696019 70.213092 
L 221.696019 70.141088 
L 221.860356 70.141088 
L 221.860356 70.069084 
L 221.860356 69.99708 
L 222.239046 69.925076 
L 222.303352 69.709064 
L 222.753493 69.63706 
L 222.796363 69.493052 
L 222.982136 69.421048 
L 222.982136 69.349044 
L 223.33939 69.27704 
L 223.33939 69.205036 
L 223.653774 69.133032 
L 223.653774 69.061028 
L 223.810966 68.989024 
L 223.882417 68.845016 
L 224.132495 68.773012 
L 224.211091 68.557 
L 224.48975 68.484996 
L 224.596926 67.908964 
L 224.604071 67.908964 
L 224.604071 67.836959 
L 224.704102 67.548943 
L 224.782698 67.476939 
L 224.861294 67.044915 
L 224.93989 66.972911 
L 225.025631 66.828903 
L 225.061357 66.828903 
L 225.061357 66.756899 
L 225.161388 66.612891 
L 225.825881 66.540887 
L 225.825881 66.468883 
L 226.976241 66.396879 
L 226.983386 66.252871 
L 227.254899 66.180867 
L 227.254899 66.108863 
L 227.669314 66.036859 
L 227.74791 65.748843 
L 227.833652 65.676839 
L 227.855087 65.532831 
L 228.1266 65.460827 
L 228.190906 65.244814 
L 228.605321 65.17281 
L 228.605321 65.100806 
L 229.112623 65.028802 
L 229.112623 64.956798 
L 229.819987 64.884794 
L 229.819987 64.81279 
L 230.162951 64.740786 
L 230.270127 64.596778 
L 230.720268 64.524774 
L 230.770283 64.308762 
L 231.470502 64.236758 
L 231.484792 64.09275 
L 232.09927 64.020746 
L 232.09927 63.948742 
L 232.47796 63.876738 
L 232.499395 63.660726 
L 232.792344 63.588722 
L 232.792344 63.516718 
L 233.592594 63.444714 
L 233.6569 63.300706 
L 234.06417 63.228702 
L 234.06417 63.156698 
L 234.321393 63.084694 
L 234.399989 62.940686 
L 234.535746 62.868682 
L 234.642922 62.652669 
L 234.692938 62.580665 
L 234.778679 62.436657 
L 235.378866 62.364653 
L 235.393157 62.220645 
L 235.521768 62.148641 
L 235.521768 62.076637 
L 235.728976 62.004633 
L 235.750411 61.788621 
L 236.693563 61.716617 
L 236.707853 61.500605 
L 237.458088 61.428601 
L 237.565264 61.212589 
L 237.851067 61.140585 
L 237.851067 61.068581 
L 238.422675 60.996577 
L 238.422675 60.924573 
L 238.8228 60.852569 
L 238.8228 60.780565 
L 239.473003 60.708561 
L 239.473003 60.636557 
L 239.944579 60.564553 
L 239.944579 60.492549 
L 240.787699 60.420545 
L 240.837715 60.276537 
L 241.459338 60.204533 
L 241.523644 60.060524 
L 241.737996 59.98852 
L 241.737996 59.916516 
L 242.159557 59.844512 
L 242.252443 59.484492 
L 242.288168 59.412488 
L 242.395345 58.260424 
L 242.423925 58.18842 
L 242.502521 57.900404 
L 242.573972 57.8284 
L 242.659713 57.036355 
L 242.702583 56.964351 
L 242.774034 55.956295 
L 242.881211 55.884291 
L 242.916936 55.308259 
L 243.524269 55.236255 
L 243.552849 55.092247 
L 244.431695 55.020242 
L 244.431695 54.948238 
L 244.83182 54.876234 
L 244.931851 54.660222 
L 245.303396 54.588218 
L 245.303396 54.516214 
L 245.660651 54.44421 
L 245.660651 54.372206 
L 246.003615 54.300202 
L 246.089356 54.08419 
L 246.153662 54.08419 
L 246.153662 54.012186 
L 246.203677 53.868178 
L 246.425175 53.796174 
L 246.518061 53.652166 
L 246.832445 53.580162 
L 246.832445 53.508158 
L 247.482649 53.436154 
L 247.504084 53.292146 
L 247.98995 53.220142 
L 248.089981 53.00413 
L 248.490106 52.932126 
L 248.490106 52.860122 
L 248.733039 52.788118 
L 248.733039 52.716114 
L 248.947392 52.64411 
L 248.947392 52.572106 
L 249.21176 52.500101 
L 249.311792 52.356093 
L 249.654756 52.284089 
L 249.654756 52.140081 
L 250.126332 52.068077 
L 250.126332 51.996073 
L 250.469296 51.924069 
L 250.469296 51.852065 
L 251.033758 51.780061 
L 251.033758 51.708057 
L 251.683961 51.636053 
L 251.683961 51.564049 
L 252.512792 51.492045 
L 252.512792 51.420041 
L 252.962932 51.348037 
L 252.962932 51.276033 
L 253.570265 51.204029 
L 253.620281 50.988017 
L 254.463401 50.916013 
L 254.470546 50.772005 
L 254.749205 50.700001 
L 254.749205 50.627997 
L 255.099314 50.555993 
L 255.142185 50.339981 
L 255.485149 50.267977 
L 255.506584 50.123969 
L 256.149642 50.051965 
L 256.149642 49.979961 
L 256.542622 49.907956 
L 256.642654 49.763948 
L 256.756975 49.691944 
L 256.806991 49.547936 
L 256.957038 49.475932 
L 256.985618 49.331924 
L 257.428614 49.25992 
L 257.500064 49.115912 
L 257.835884 49.043908 
L 257.921625 48.8999 
L 258.586118 48.827896 
L 258.586118 48.755892 
L 259.393513 48.683888 
L 259.479254 48.467876 
L 259.722187 48.395872 
L 259.722187 48.323868 
L 260.293795 48.251864 
L 260.400971 47.963848 
L 260.486712 47.891844 
L 260.593888 47.675832 
L 260.629614 47.603828 
L 260.629614 47.531824 
L 262.151518 47.45982 
L 262.230114 47.315811 
L 262.858882 47.243807 
L 262.858882 47.171803 
L 263.037509 47.099799 
L 263.037509 47.027795 
L 263.394764 46.955791 
L 263.437634 46.811783 
L 263.709148 46.739779 
L 263.802034 46.451763 
L 264.002096 46.379759 
L 264.052112 46.235751 
L 264.295045 46.163747 
L 264.309335 46.019739 
L 264.688025 45.947735 
L 264.688025 45.875731 
L 264.888087 45.803727 
L 264.888087 45.731723 
L 265.195326 45.659719 
L 265.216761 45.515711 
L 265.381099 45.443707 
L 265.381099 45.371703 
L 266.202784 45.299699 
L 266.29567 45.155691 
L 266.960163 45.083687 
L 266.974454 44.939679 
L 267.303128 44.867675 
L 267.303128 44.79567 
L 267.581786 44.723666 
L 267.653237 44.579658 
L 267.924751 44.507654 
L 267.924751 44.43565 
L 269.718168 44.363646 
L 269.718168 44.291642 
L 270.089713 44.219638 
L 270.154019 44.07563 
L 270.511273 44.003626 
L 270.525563 43.787614 
L 270.975704 43.71561 
L 271.08288 43.571602 
L 271.154331 43.499598 
L 271.154331 43.427594 
L 271.483005 43.35559 
L 271.483005 43.283586 
L 272.597639 43.211582 
L 272.661945 42.99557 
L 273.183537 42.923566 
L 273.233552 42.779558 
L 274.383912 42.707554 
L 274.383912 42.63555 
L 274.67686 42.563546 
L 274.755456 42.419538 
L 274.941229 42.347534 
L 274.976954 42.203525 
L 275.312773 42.131521 
L 275.312773 42.059517 
L 276.463133 41.987513 
L 276.513148 41.771501 
L 276.941854 41.699497 
L 276.984724 41.555489 
L 277.277673 41.483485 
L 277.327689 41.339477 
L 277.449155 41.267473 
L 277.449155 41.195469 
L 277.892151 41.123465 
L 277.992182 40.835449 
L 278.027908 40.763445 
L 278.135084 40.043405 
L 278.156519 39.971401 
L 278.25655 39.683384 
L 278.349437 39.61138 
L 278.435178 39.323364 
L 278.478048 39.25136 
L 278.563789 38.89134 
L 278.64953 38.819336 
L 278.64953 38.747332 
L 280.064258 38.675328 
L 280.064258 38.603324 
L 280.900234 38.53132 
L 281.00741 38.387312 
L 281.600452 38.315308 
L 281.614743 38.1713 
L 282.350687 38.099296 
L 282.407848 37.955288 
L 282.822263 37.883284 
L 282.822263 37.81128 
L 283.515336 37.739276 
L 283.515336 37.667272 
L 284.465633 37.595268 
L 284.465633 37.523264 
L 284.794308 37.45126 
L 284.794308 37.379256 
L 285.758895 37.307252 
L 285.758895 37.235248 
L 287.280799 37.163243 
L 287.280799 37.091239 
L 287.852406 37.019235 
L 287.852406 36.947231 
L 288.445448 36.875227 
L 288.445448 36.803223 
L 288.93846 36.731219 
L 288.93846 36.659215 
L 291.817931 36.587211 
L 291.910817 36.443203 
L 292.360958 36.371199 
L 292.403828 36.227191 
L 292.539585 36.155187 
L 292.632471 36.011179 
L 292.92542 35.939175 
L 292.98258 35.795167 
L 293.389851 35.723163 
L 293.425576 35.579155 
L 293.897152 35.579155 
L 293.897152 35.507151 
L 293.897152 35.435147 
L 295.097527 35.363143 
L 295.183268 35.219135 
L 295.840616 35.147131 
L 295.940648 34.859115 
L 296.133565 34.787111 
L 296.219306 34.355086 
L 296.376498 34.283082 
L 296.483675 34.06707 
L 296.497965 34.06707 
L 296.497965 33.995066 
L 296.605141 33.851058 
L 296.805204 33.779054 
L 296.805204 33.70705 
L 299.098777 33.635046 
L 299.113068 33.491038 
L 299.491757 33.419034 
L 299.491757 33.34703 
L 300.227702 33.275026 
L 300.227702 33.203022 
L 300.627827 33.131018 
L 300.627827 33.059014 
L 300.949356 32.98701 
L 301.027952 32.843002 
L 302.06399 32.770998 
L 302.06399 32.698994 
L 302.749918 32.62699 
L 302.749918 32.554986 
L 303.885988 32.482982 
L 303.885988 32.410978 
L 304.50761 32.338974 
L 304.50761 32.26697 
L 304.779124 32.194966 
L 304.779124 32.122962 
L 306.47251 32.050957 
L 306.47251 31.978953 
L 307.001247 31.906949 
L 307.001247 31.834945 
L 307.901528 31.762941 
L 307.901528 31.690937 
L 308.608892 31.618933 
L 308.694633 31.474925 
L 308.83039 31.402921 
L 308.83039 31.330917 
L 310.209392 31.258913 
L 310.287988 31.114905 
L 311.24543 31.042901 
L 311.24543 30.970897 
L 311.752731 30.898893 
L 311.752731 30.826889 
L 313.017412 30.754885 
L 313.017412 30.682881 
L 313.596165 30.610877 
L 313.681906 30.394865 
L 313.767647 30.322861 
L 313.860533 30.034845 
L 313.896258 29.962841 
L 313.896258 29.890837 
L 314.032015 29.818833 
L 314.067741 29.674825 
L 314.189207 29.602821 
L 314.282093 29.098792 
L 314.346399 29.026788 
L 314.367834 28.810776 
L 316.547087 28.738772 
L 316.547087 28.666768 
L 316.947212 28.594764 
L 316.947212 28.52276 
L 317.568835 28.450756 
L 317.568835 28.378752 
L 317.940379 28.306748 
L 317.940379 28.234744 
L 318.554857 28.16274 
L 318.554857 27.946728 
L 319.548024 27.874724 
L 319.548024 27.80272 
L 320.148212 27.730716 
L 320.148212 27.658712 
L 321.355732 27.586708 
L 321.355732 27.514704 
L 322.877636 27.4427 
L 322.877636 27.370696 
L 324.120882 27.298692 
L 324.120882 27.226688 
L 324.821101 27.154684 
L 324.821101 27.08268 
L 327.943505 27.010676 
L 327.943505 26.938671 
L 328.772335 26.866667 
L 328.772335 26.794663 
L 329.672617 26.722659 
L 329.672617 26.650655 
L 330.708655 26.578651 
L 330.708655 26.506647 
L 331.101635 26.434643 
L 331.101635 26.362639 
L 331.566066 26.290635 
L 331.623226 26.146627 
L 331.837579 26.074623 
L 331.93761 25.786607 
L 332.166253 25.714603 
L 332.166253 25.642599 
L 333.238017 25.570595 
L 333.238017 25.498591 
L 335.102885 25.426587 
L 335.102885 25.354583 
L 335.86741 25.282579 
L 335.86741 25.210575 
L 336.774836 25.138571 
L 336.774836 25.066567 
L 338.925508 24.994563 
L 338.925508 24.922559 
L 339.132716 24.850555 
L 339.132716 24.778551 
L 339.904385 24.706547 
L 339.904385 24.634543 
L 341.84785 24.562539 
L 341.84785 24.490535 
L 342.626665 24.41853 
L 342.719551 24.274522 
L 344.520113 24.202518 
L 344.520113 24.130514 
L 346.249225 24.05851 
L 346.284951 23.914502 
L 346.535029 23.842498 
L 346.535029 23.770494 
L 348.106948 23.69849 
L 348.106948 23.626486 
L 349.057245 23.554482 
L 349.142986 23.410474 
L 349.293033 23.33847 
L 349.40021 22.97845 
L 349.407355 22.97845 
L 349.407355 22.906446 
L 349.493096 22.61843 
L 349.550257 22.546426 
L 349.643143 22.330414 
L 349.700303 22.25841 
L 349.800335 21.970394 
L 349.83606 21.89839 
L 349.914656 21.538369 
L 349.971817 21.538369 
L 349.971817 21.466365 
L 350.057558 21.178349 
L 353.101366 21.106345 
L 353.101366 21.034341 
L 354.458933 20.962337 
L 354.458933 20.890333 
L 357.352695 20.818329 
L 357.352695 20.746325 
L 357.931447 20.674321 
L 357.931447 20.602317 
L 358.56736 20.530313 
L 358.56736 20.458309 
L 359.953507 20.386305 
L 359.960652 20.242297 
L 360.889514 20.170293 
L 360.889514 20.098289 
L 362.91872 20.026285 
L 362.91872 19.954281 
L 364.640686 19.882277 
L 364.640686 19.810273 
L 366.141155 19.738269 
L 366.191171 19.522257 
L 367.348675 19.450253 
L 367.412981 19.23424 
L 369.363591 19.162236 
L 369.363591 19.090232 
L 370.256727 19.018228 
L 370.256727 18.946224 
L 372.12874 18.87422 
L 372.12874 18.802216 
L 374.222252 18.730212 
L 374.222252 18.658208 
L 376.344343 18.586204 
L 376.344343 18.5142 
L 376.8445 18.442196 
L 376.8445 18.370192 
L 377.451832 18.298188 
L 377.451832 18.226184 
L 381.138699 18.15418 
L 381.231585 18.010172 
L 382.832085 17.938168 
L 382.910681 17.79416 
L 385.189965 17.722156 
L 385.19711 17.578148 
L 385.361447 17.506144 
L 385.461478 17.218128 
L 385.582945 17.146124 
L 385.582945 17.07412 
L 386.240293 17.002116 
L 386.240293 16.930112 
L 389.598485 16.858108 
L 389.598485 16.786104 
L 390.048626 16.714099 
L 390.048626 16.642095 
L 394.242793 16.570091 
L 394.242793 16.498087 
L 394.957302 16.498087 
L 394.957302 16.426083 
L 394.957302 16.354079 
L 398.951408 16.282075 
L 398.951408 16.210071 
L 400.773405 16.138067 
L 400.773405 16.066063 
L 403.309912 15.994059 
L 403.309912 15.922055 
L 403.681457 15.850051 
L 403.681457 15.778047 
L 405.91787 15.706043 
L 405.91787 15.634039 
L 406.539493 15.562035 
L 406.568073 15.418027 
L 406.746701 15.346023 
L 406.746701 15.274019 
L 407.282582 15.202015 
L 407.339743 15.058007 
L 407.582676 14.986003 
L 407.582676 14.913999 
L 407.889915 14.841995 
L 407.889915 14.769991 
L 409.354658 14.697987 
L 409.354658 14.625983 
L 411.526766 14.553979 
L 411.533911 14.409971 
L 412.748576 14.337967 
L 412.748576 14.265963 
L 415.963866 14.193958 
L 415.963866 14.121954 
L 416.835567 14.04995 
L 416.864148 13.905942 
L 417.500061 13.833938 
L 417.500061 13.761934 
L 417.714413 13.68993 
L 417.714413 13.617926 
L 420.165179 13.545922 
L 420.165179 13.473918 
L 420.336661 13.401914 
L 420.336661 13.32991 
L 420.836818 13.257906 
L 420.943994 12.96989 
L 421.001155 12.897886 
L 421.101186 12.60987 
L 421.165492 12.537866 
L 421.244088 12.105842 
L 421.294103 12.033838 
L 421.372699 11.817826 
L 421.501311 11.745822 
L 421.508456 11.601813 
L 423.81632 11.529809 
L 423.81632 11.457805 
L 426.18849 11.385801 
L 426.18849 11.313797 
L 427.546057 11.241793 
L 427.617508 11.097785 
L 427.839006 11.097785 
L 427.839006 11.025781 
" clip-path="url(#p538b248746)" style="fill: none; stroke: #486afb; stroke-width: 2; stroke-linecap: square"/>
   </g>
   <g id="patch_3">
    <path d="M 45.992188 297.025781 
L 45.992188 11.025781 
" style="fill: none; stroke: #000000; stroke-width: 0.6; stroke-linejoin: miter; stroke-linecap: square"/>
   </g>
   <g id="patch_4">
    <path d="M 45.992188 297.025781 
L 446.022187 297.025781 
" style="fill: none; stroke: #000000; stroke-width: 0.6; stroke-linejoin: miter; stroke-linecap: square"/>
   </g>
  </g>
 </g>
 <defs>
  <clipPath id="p538b248746">
   <rect x="45.992188" y="11.025781" width="400.03" height="286"/>
  </clipPath>
 </defs>
</svg>