<?xml version="1.0" encoding="utf-8" standalone="no"?>
<!DOCTYPE svg PUBLIC "-//W3C//DTD SVG 1.1//EN"
  "http://www.w3.org/Graphics/SVG/1.1/DTD/svg11.dtd">
<svg xmlns:xlink="http://www.w3.org/1999/xlink" width="856.431875pt" height="639.22pt" viewBox="0 0 856.431875 639.22" xmlns="http://www.w3.org/2000/svg" version="1.1">
 <metadata>
  <rdf:RDF xmlns:dc="http://purl.org/dc/elements/1.1/" xmlns:cc="http://creativecommons.org/ns#" xmlns:rdf="http://www.w3.org/1999/02/22-rdf-syntax-ns#">
   <cc:Work>
    <dc:type rdf:resource="http://purl.org/dc/dcmitype/StillImage"/>
    <dc:date>2023-12-03T10:41:23.008118</dc:date>
    <dc:format>image/svg+xml</dc:format>
    <dc:creator>
     <cc:Agent>
      <dc:title>Matplotlib v3.8.2, https://matplotlib.org/</dc:title>
     </cc:Agent>
    </dc:creator>
   </cc:Work>
  </rdf:RDF>
 </metadata>
 <defs>
  <style type="text/css">*{stroke-linejoin: round; stroke-linecap: butt}</style>
 </defs>
 <g id="figure_1">
  <g id="patch_1">
   <path d="M 0 639.22 
L 856.431875 639.22 
L 856.431875 0 
L 0 0 
z
" style="fill: #ffffff"/>
  </g>
  <g id="axes_1">
   <g id="patch_2">
    <path d="M 39.971875 282.941875 
L 422.631875 282.941875 
L 422.631875 22.381875 
L 39.971875 22.381875 
z
" style="fill: #ffffff"/>
   </g>
   <g id="matplotlib.axis_1">
    <g id="xtick_1">
     <g id="line2d_1">
      <path d="M 57.365511 282.941875 
L 57.365511 22.381875 
" clip-path="url(#p4804d78a61)" style="fill: none; stroke-dasharray: 2.22,0.96; stroke-dashoffset: 0; stroke: #6c6066; stroke-opacity: 0.4; stroke-width: 0.6"/>
     </g>
     <g id="line2d_2">
      <defs>
       <path id="m78a17055f8" d="M 0 0 
L 0 3.5 
" style="stroke: #000000; stroke-width: 0.8"/>
      </defs>
      <g>
       <use xlink:href="#m78a17055f8" x="57.365511" y="282.941875" style="stroke: #000000; stroke-width: 0.8"/>
      </g>
     </g>
     <g id="text_1">
      <!-- 0 -->
      <g transform="translate(54.355355 297.593438) scale(0.1 -0.1)">
       <defs>
        <path id="DejaVuSansMono-30" d="M 1509 2344 
Q 1509 2516 1629 2641 
Q 1750 2766 1919 2766 
Q 2094 2766 2219 2641 
Q 2344 2516 2344 2344 
Q 2344 2169 2220 2047 
Q 2097 1925 1919 1925 
Q 1744 1925 1626 2044 
Q 1509 2163 1509 2344 
z
M 1925 4250 
Q 1484 4250 1267 3775 
Q 1050 3300 1050 2328 
Q 1050 1359 1267 884 
Q 1484 409 1925 409 
Q 2369 409 2586 884 
Q 2803 1359 2803 2328 
Q 2803 3300 2586 3775 
Q 2369 4250 1925 4250 
z
M 1925 4750 
Q 2672 4750 3055 4137 
Q 3438 3525 3438 2328 
Q 3438 1134 3055 521 
Q 2672 -91 1925 -91 
Q 1178 -91 797 521 
Q 416 1134 416 2328 
Q 416 3525 797 4137 
Q 1178 4750 1925 4750 
z
" transform="scale(0.015625)"/>
       </defs>
       <use xlink:href="#DejaVuSansMono-30"/>
      </g>
     </g>
    </g>
    <g id="xtick_2">
     <g id="line2d_3">
      <path d="M 134.670562 282.941875 
L 134.670562 22.381875 
" clip-path="url(#p4804d78a61)" style="fill: none; stroke-dasharray: 2.22,0.96; stroke-dashoffset: 0; stroke: #6c6066; stroke-opacity: 0.4; stroke-width: 0.6"/>
     </g>
     <g id="line2d_4">
      <g>
       <use xlink:href="#m78a17055f8" x="134.670562" y="282.941875" style="stroke: #000000; stroke-width: 0.8"/>
      </g>
     </g>
     <g id="text_2">
      <!-- 2 -->
      <g transform="translate(131.660406 297.593438) scale(0.1 -0.1)">
       <defs>
        <path id="DejaVuSansMono-32" d="M 1166 531 
L 3309 531 
L 3309 0 
L 475 0 
L 475 531 
Q 1059 1147 1496 1619 
Q 1934 2091 2100 2284 
Q 2413 2666 2522 2902 
Q 2631 3138 2631 3384 
Q 2631 3775 2401 3997 
Q 2172 4219 1772 4219 
Q 1488 4219 1175 4116 
Q 863 4013 513 3803 
L 513 4441 
Q 834 4594 1145 4672 
Q 1456 4750 1759 4750 
Q 2444 4750 2861 4386 
Q 3278 4022 3278 3431 
Q 3278 3131 3139 2831 
Q 3000 2531 2688 2169 
Q 2513 1966 2180 1606 
Q 1847 1247 1166 531 
z
" transform="scale(0.015625)"/>
       </defs>
       <use xlink:href="#DejaVuSansMono-32"/>
      </g>
     </g>
    </g>
    <g id="xtick_3">
     <g id="line2d_5">
      <path d="M 211.975612 282.941875 
L 211.975612 22.381875 
" clip-path="url(#p4804d78a61)" style="fill: none; stroke-dasharray: 2.22,0.96; stroke-dashoffset: 0; stroke: #6c6066; stroke-opacity: 0.4; stroke-width: 0.6"/>
     </g>
     <g id="line2d_6">
      <g>
       <use xlink:href="#m78a17055f8" x="211.975612" y="282.941875" style="stroke: #000000; stroke-width: 0.8"/>
      </g>
     </g>
     <g id="text_3">
      <!-- 4 -->
      <g transform="translate(208.965456 297.593438) scale(0.1 -0.1)">
       <defs>
        <path id="DejaVuSansMono-34" d="M 2297 4091 
L 825 1625 
L 2297 1625 
L 2297 4091 
z
M 2194 4666 
L 2925 4666 
L 2925 1625 
L 3547 1625 
L 3547 1113 
L 2925 1113 
L 2925 0 
L 2297 0 
L 2297 1113 
L 319 1113 
L 319 1709 
L 2194 4666 
z
" transform="scale(0.015625)"/>
       </defs>
       <use xlink:href="#DejaVuSansMono-34"/>
      </g>
     </g>
    </g>
    <g id="xtick_4">
     <g id="line2d_7">
      <path d="M 289.280663 282.941875 
L 289.280663 22.381875 
" clip-path="url(#p4804d78a61)" style="fill: none; stroke-dasharray: 2.22,0.96; stroke-dashoffset: 0; stroke: #6c6066; stroke-opacity: 0.4; stroke-width: 0.6"/>
     </g>
     <g id="line2d_8">
      <g>
       <use xlink:href="#m78a17055f8" x="289.280663" y="282.941875" style="stroke: #000000; stroke-width: 0.8"/>
      </g>
     </g>
     <g id="text_4">
      <!-- 6 -->
      <g transform="translate(286.270507 297.593438) scale(0.1 -0.1)">
       <defs>
        <path id="DejaVuSansMono-36" d="M 3097 4563 
L 3097 3981 
Q 2900 4097 2678 4158 
Q 2456 4219 2216 4219 
Q 1616 4219 1306 3767 
Q 997 3316 997 2438 
Q 1147 2750 1412 2917 
Q 1678 3084 2022 3084 
Q 2697 3084 3067 2670 
Q 3438 2256 3438 1497 
Q 3438 741 3056 325 
Q 2675 -91 1984 -91 
Q 1172 -91 794 492 
Q 416 1075 416 2328 
Q 416 3509 870 4129 
Q 1325 4750 2188 4750 
Q 2419 4750 2650 4701 
Q 2881 4653 3097 4563 
z
M 1972 2591 
Q 1569 2591 1337 2300 
Q 1106 2009 1106 1497 
Q 1106 984 1337 693 
Q 1569 403 1972 403 
Q 2391 403 2603 679 
Q 2816 956 2816 1497 
Q 2816 2041 2603 2316 
Q 2391 2591 1972 2591 
z
" transform="scale(0.015625)"/>
       </defs>
       <use xlink:href="#DejaVuSansMono-36"/>
      </g>
     </g>
    </g>
    <g id="xtick_5">
     <g id="line2d_9">
      <path d="M 366.585713 282.941875 
L 366.585713 22.381875 
" clip-path="url(#p4804d78a61)" style="fill: none; stroke-dasharray: 2.22,0.96; stroke-dashoffset: 0; stroke: #6c6066; stroke-opacity: 0.4; stroke-width: 0.6"/>
     </g>
     <g id="line2d_10">
      <g>
       <use xlink:href="#m78a17055f8" x="366.585713" y="282.941875" style="stroke: #000000; stroke-width: 0.8"/>
      </g>
     </g>
     <g id="text_5">
      <!-- 8 -->
      <g transform="translate(363.575557 297.593438) scale(0.1 -0.1)">
       <defs>
        <path id="DejaVuSansMono-38" d="M 1925 2216 
Q 1503 2216 1273 1980 
Q 1044 1744 1044 1313 
Q 1044 881 1276 642 
Q 1509 403 1925 403 
Q 2350 403 2579 639 
Q 2809 875 2809 1313 
Q 2809 1741 2576 1978 
Q 2344 2216 1925 2216 
z
M 1375 2478 
Q 972 2581 745 2862 
Q 519 3144 519 3541 
Q 519 4097 897 4423 
Q 1275 4750 1925 4750 
Q 2578 4750 2956 4423 
Q 3334 4097 3334 3541 
Q 3334 3144 3107 2862 
Q 2881 2581 2478 2478 
Q 2947 2375 3195 2062 
Q 3444 1750 3444 1253 
Q 3444 622 3041 265 
Q 2638 -91 1925 -91 
Q 1213 -91 811 264 
Q 409 619 409 1247 
Q 409 1747 657 2061 
Q 906 2375 1375 2478 
z
M 1147 3481 
Q 1147 3106 1347 2909 
Q 1547 2713 1925 2713 
Q 2306 2713 2506 2909 
Q 2706 3106 2706 3481 
Q 2706 3863 2507 4063 
Q 2309 4263 1925 4263 
Q 1547 4263 1347 4061 
Q 1147 3859 1147 3481 
z
" transform="scale(0.015625)"/>
       </defs>
       <use xlink:href="#DejaVuSansMono-38"/>
      </g>
     </g>
    </g>
    <g id="text_6">
     <!-- gradient steps -->
     <g transform="translate(189.159687 311.271563) scale(0.1 -0.1)">
      <defs>
       <path id="DejaVuSansMono-67" d="M 2681 1778 
Q 2681 2425 2470 2761 
Q 2259 3097 1856 3097 
Q 1434 3097 1212 2761 
Q 991 2425 991 1778 
Q 991 1131 1214 792 
Q 1438 453 1863 453 
Q 2259 453 2470 793 
Q 2681 1134 2681 1778 
z
M 3256 225 
Q 3256 -563 2884 -969 
Q 2513 -1375 1791 -1375 
Q 1553 -1375 1293 -1331 
Q 1034 -1288 775 -1203 
L 775 -634 
Q 1081 -778 1331 -847 
Q 1581 -916 1791 -916 
Q 2256 -916 2468 -662 
Q 2681 -409 2681 141 
L 2681 166 
L 2681 556 
Q 2544 263 2306 119 
Q 2069 -25 1728 -25 
Q 1116 -25 750 465 
Q 384 956 384 1778 
Q 384 2603 750 3093 
Q 1116 3584 1728 3584 
Q 2066 3584 2300 3450 
Q 2534 3316 2681 3034 
L 2681 3488 
L 3256 3488 
L 3256 225 
z
" transform="scale(0.015625)"/>
       <path id="DejaVuSansMono-72" d="M 3609 2778 
Q 3425 2922 3234 2987 
Q 3044 3053 2816 3053 
Q 2278 3053 1993 2715 
Q 1709 2378 1709 1741 
L 1709 0 
L 1131 0 
L 1131 3500 
L 1709 3500 
L 1709 2816 
Q 1853 3188 2151 3386 
Q 2450 3584 2859 3584 
Q 3072 3584 3256 3531 
Q 3441 3478 3609 3366 
L 3609 2778 
z
" transform="scale(0.015625)"/>
       <path id="DejaVuSansMono-61" d="M 2194 1759 
L 2003 1759 
Q 1500 1759 1245 1582 
Q 991 1406 991 1056 
Q 991 741 1181 566 
Q 1372 391 1709 391 
Q 2184 391 2456 720 
Q 2728 1050 2731 1631 
L 2731 1759 
L 2194 1759 
z
M 3309 1997 
L 3309 0 
L 2731 0 
L 2731 519 
Q 2547 206 2267 57 
Q 1988 -91 1588 -91 
Q 1053 -91 734 211 
Q 416 513 416 1019 
Q 416 1603 808 1906 
Q 1200 2209 1959 2209 
L 2731 2209 
L 2731 2300 
Q 2728 2719 2518 2908 
Q 2309 3097 1850 3097 
Q 1556 3097 1256 3012 
Q 956 2928 672 2766 
L 672 3341 
Q 991 3463 1283 3523 
Q 1575 3584 1850 3584 
Q 2284 3584 2592 3456 
Q 2900 3328 3091 3072 
Q 3209 2916 3259 2686 
Q 3309 2456 3309 1997 
z
" transform="scale(0.015625)"/>
       <path id="DejaVuSansMono-64" d="M 2681 3053 
L 2681 4863 
L 3256 4863 
L 3256 0 
L 2681 0 
L 2681 441 
Q 2538 181 2298 45 
Q 2059 -91 1747 -91 
Q 1113 -91 748 401 
Q 384 894 384 1759 
Q 384 2613 750 3098 
Q 1116 3584 1747 3584 
Q 2063 3584 2303 3448 
Q 2544 3313 2681 3053 
z
M 991 1747 
Q 991 1078 1203 737 
Q 1416 397 1831 397 
Q 2247 397 2464 740 
Q 2681 1084 2681 1747 
Q 2681 2413 2464 2755 
Q 2247 3097 1831 3097 
Q 1416 3097 1203 2756 
Q 991 2416 991 1747 
z
" transform="scale(0.015625)"/>
       <path id="DejaVuSansMono-69" d="M 800 3500 
L 2272 3500 
L 2272 447 
L 3413 447 
L 3413 0 
L 556 0 
L 556 447 
L 1697 447 
L 1697 3053 
L 800 3053 
L 800 3500 
z
M 1697 4863 
L 2272 4863 
L 2272 4134 
L 1697 4134 
L 1697 4863 
z
" transform="scale(0.015625)"/>
       <path id="DejaVuSansMono-65" d="M 3475 1894 
L 3475 1613 
L 984 1613 
L 984 1594 
Q 984 1022 1282 709 
Q 1581 397 2125 397 
Q 2400 397 2700 484 
Q 3000 572 3341 750 
L 3341 178 
Q 3013 44 2708 -23 
Q 2403 -91 2119 -91 
Q 1303 -91 843 398 
Q 384 888 384 1747 
Q 384 2584 834 3084 
Q 1284 3584 2034 3584 
Q 2703 3584 3089 3131 
Q 3475 2678 3475 1894 
z
M 2900 2063 
Q 2888 2569 2661 2833 
Q 2434 3097 2009 3097 
Q 1594 3097 1325 2822 
Q 1056 2547 1006 2059 
L 2900 2063 
z
" transform="scale(0.015625)"/>
       <path id="DejaVuSansMono-6e" d="M 3284 2169 
L 3284 0 
L 2706 0 
L 2706 2169 
Q 2706 2641 2540 2862 
Q 2375 3084 2022 3084 
Q 1619 3084 1401 2798 
Q 1184 2513 1184 1978 
L 1184 0 
L 609 0 
L 609 3500 
L 1184 3500 
L 1184 2975 
Q 1338 3275 1600 3429 
Q 1863 3584 2222 3584 
Q 2756 3584 3020 3232 
Q 3284 2881 3284 2169 
z
" transform="scale(0.015625)"/>
       <path id="DejaVuSansMono-74" d="M 1919 4494 
L 1919 3500 
L 3225 3500 
L 3225 3053 
L 1919 3053 
L 1919 1153 
Q 1919 766 2066 612 
Q 2213 459 2578 459 
L 3225 459 
L 3225 0 
L 2522 0 
Q 1875 0 1609 259 
Q 1344 519 1344 1153 
L 1344 3053 
L 409 3053 
L 409 3500 
L 1344 3500 
L 1344 4494 
L 1919 4494 
z
" transform="scale(0.015625)"/>
       <path id="DejaVuSansMono-20" transform="scale(0.015625)"/>
       <path id="DejaVuSansMono-73" d="M 3041 3378 
L 3041 2816 
Q 2794 2959 2544 3031 
Q 2294 3103 2034 3103 
Q 1644 3103 1451 2976 
Q 1259 2850 1259 2591 
Q 1259 2356 1403 2240 
Q 1547 2125 2119 2016 
L 2350 1972 
Q 2778 1891 2998 1647 
Q 3219 1403 3219 1013 
Q 3219 494 2850 201 
Q 2481 -91 1825 -91 
Q 1566 -91 1281 -36 
Q 997 19 666 128 
L 666 722 
Q 988 556 1281 473 
Q 1575 391 1838 391 
Q 2219 391 2428 545 
Q 2638 700 2638 978 
Q 2638 1378 1872 1531 
L 1847 1538 
L 1631 1581 
Q 1134 1678 906 1908 
Q 678 2138 678 2534 
Q 678 3038 1018 3311 
Q 1359 3584 1991 3584 
Q 2272 3584 2531 3532 
Q 2791 3481 3041 3378 
z
" transform="scale(0.015625)"/>
       <path id="DejaVuSansMono-70" d="M 1172 441 
L 1172 -1331 
L 594 -1331 
L 594 3500 
L 1172 3500 
L 1172 3053 
Q 1316 3313 1555 3448 
Q 1794 3584 2106 3584 
Q 2741 3584 3102 3093 
Q 3463 2603 3463 1734 
Q 3463 881 3100 395 
Q 2738 -91 2106 -91 
Q 1788 -91 1548 45 
Q 1309 181 1172 441 
z
M 2859 1747 
Q 2859 2416 2648 2756 
Q 2438 3097 2022 3097 
Q 1603 3097 1387 2755 
Q 1172 2413 1172 1747 
Q 1172 1084 1387 740 
Q 1603 397 2022 397 
Q 2438 397 2648 737 
Q 2859 1078 2859 1747 
z
" transform="scale(0.015625)"/>
      </defs>
      <use xlink:href="#DejaVuSansMono-67"/>
      <use xlink:href="#DejaVuSansMono-72" x="60.205078"/>
      <use xlink:href="#DejaVuSansMono-61" x="120.410156"/>
      <use xlink:href="#DejaVuSansMono-64" x="180.615234"/>
      <use xlink:href="#DejaVuSansMono-69" x="240.820312"/>
      <use xlink:href="#DejaVuSansMono-65" x="301.025391"/>
      <use xlink:href="#DejaVuSansMono-6e" x="361.230469"/>
      <use xlink:href="#DejaVuSansMono-74" x="421.435547"/>
      <use xlink:href="#DejaVuSansMono-20" x="481.640625"/>
      <use xlink:href="#DejaVuSansMono-73" x="541.845703"/>
      <use xlink:href="#DejaVuSansMono-74" x="602.050781"/>
      <use xlink:href="#DejaVuSansMono-65" x="662.255859"/>
      <use xlink:href="#DejaVuSansMono-70" x="722.460938"/>
      <use xlink:href="#DejaVuSansMono-73" x="782.666016"/>
     </g>
    </g>
   </g>
   <g id="matplotlib.axis_2">
    <g id="ytick_1">
     <g id="line2d_11">
      <path d="M 39.971875 278.192494 
L 422.631875 278.192494 
" clip-path="url(#p4804d78a61)" style="fill: none; stroke-dasharray: 2.22,0.96; stroke-dashoffset: 0; stroke: #6c6066; stroke-opacity: 0.4; stroke-width: 0.6"/>
     </g>
     <g id="line2d_12">
      <defs>
       <path id="m7da44d42ba" d="M 0 0 
L -3.5 0 
" style="stroke: #000000; stroke-width: 0.8"/>
      </defs>
      <g>
       <use xlink:href="#m7da44d42ba" x="39.971875" y="278.192494" style="stroke: #000000; stroke-width: 0.8"/>
      </g>
     </g>
     <g id="text_7">
      <!-- 0 -->
      <g transform="translate(26.951563 282.018276) scale(0.1 -0.1)">
       <use xlink:href="#DejaVuSansMono-30"/>
      </g>
     </g>
    </g>
    <g id="ytick_2">
     <g id="line2d_13">
      <path d="M 39.971875 246.535163 
L 422.631875 246.535163 
" clip-path="url(#p4804d78a61)" style="fill: none; stroke-dasharray: 2.22,0.96; stroke-dashoffset: 0; stroke: #6c6066; stroke-opacity: 0.4; stroke-width: 0.6"/>
     </g>
     <g id="line2d_14">
      <g>
       <use xlink:href="#m7da44d42ba" x="39.971875" y="246.535163" style="stroke: #000000; stroke-width: 0.8"/>
      </g>
     </g>
     <g id="text_8">
      <!-- 1 -->
      <g transform="translate(26.951563 250.360945) scale(0.1 -0.1)">
       <defs>
        <path id="DejaVuSansMono-31" d="M 844 531 
L 1825 531 
L 1825 4097 
L 769 3859 
L 769 4434 
L 1819 4666 
L 2450 4666 
L 2450 531 
L 3419 531 
L 3419 0 
L 844 0 
L 844 531 
z
" transform="scale(0.015625)"/>
       </defs>
       <use xlink:href="#DejaVuSansMono-31"/>
      </g>
     </g>
    </g>
    <g id="ytick_3">
     <g id="line2d_15">
      <path d="M 39.971875 214.877832 
L 422.631875 214.877832 
" clip-path="url(#p4804d78a61)" style="fill: none; stroke-dasharray: 2.22,0.96; stroke-dashoffset: 0; stroke: #6c6066; stroke-opacity: 0.4; stroke-width: 0.6"/>
     </g>
     <g id="line2d_16">
      <g>
       <use xlink:href="#m7da44d42ba" x="39.971875" y="214.877832" style="stroke: #000000; stroke-width: 0.8"/>
      </g>
     </g>
     <g id="text_9">
      <!-- 2 -->
      <g transform="translate(26.951563 218.703613) scale(0.1 -0.1)">
       <use xlink:href="#DejaVuSansMono-32"/>
      </g>
     </g>
    </g>
    <g id="ytick_4">
     <g id="line2d_17">
      <path d="M 39.971875 183.220501 
L 422.631875 183.220501 
" clip-path="url(#p4804d78a61)" style="fill: none; stroke-dasharray: 2.22,0.96; stroke-dashoffset: 0; stroke: #6c6066; stroke-opacity: 0.4; stroke-width: 0.6"/>
     </g>
     <g id="line2d_18">
      <g>
       <use xlink:href="#m7da44d42ba" x="39.971875" y="183.220501" style="stroke: #000000; stroke-width: 0.8"/>
      </g>
     </g>
     <g id="text_10">
      <!-- 3 -->
      <g transform="translate(26.951563 187.046282) scale(0.1 -0.1)">
       <defs>
        <path id="DejaVuSansMono-33" d="M 2425 2497 
Q 2884 2375 3128 2064 
Q 3372 1753 3372 1288 
Q 3372 644 2939 276 
Q 2506 -91 1741 -91 
Q 1419 -91 1084 -31 
Q 750 28 428 141 
L 428 769 
Q 747 603 1056 522 
Q 1366 441 1672 441 
Q 2191 441 2469 675 
Q 2747 909 2747 1350 
Q 2747 1756 2469 1995 
Q 2191 2234 1716 2234 
L 1234 2234 
L 1234 2753 
L 1716 2753 
Q 2150 2753 2394 2943 
Q 2638 3134 2638 3475 
Q 2638 3834 2411 4026 
Q 2184 4219 1766 4219 
Q 1488 4219 1191 4156 
Q 894 4094 569 3969 
L 569 4550 
Q 947 4650 1242 4700 
Q 1538 4750 1766 4750 
Q 2447 4750 2855 4408 
Q 3263 4066 3263 3500 
Q 3263 3116 3048 2859 
Q 2834 2603 2425 2497 
z
" transform="scale(0.015625)"/>
       </defs>
       <use xlink:href="#DejaVuSansMono-33"/>
      </g>
     </g>
    </g>
    <g id="ytick_5">
     <g id="line2d_19">
      <path d="M 39.971875 151.56317 
L 422.631875 151.56317 
" clip-path="url(#p4804d78a61)" style="fill: none; stroke-dasharray: 2.22,0.96; stroke-dashoffset: 0; stroke: #6c6066; stroke-opacity: 0.4; stroke-width: 0.6"/>
     </g>
     <g id="line2d_20">
      <g>
       <use xlink:href="#m7da44d42ba" x="39.971875" y="151.56317" style="stroke: #000000; stroke-width: 0.8"/>
      </g>
     </g>
     <g id="text_11">
      <!-- 4 -->
      <g transform="translate(26.951563 155.388951) scale(0.1 -0.1)">
       <use xlink:href="#DejaVuSansMono-34"/>
      </g>
     </g>
    </g>
    <g id="ytick_6">
     <g id="line2d_21">
      <path d="M 39.971875 119.905838 
L 422.631875 119.905838 
" clip-path="url(#p4804d78a61)" style="fill: none; stroke-dasharray: 2.22,0.96; stroke-dashoffset: 0; stroke: #6c6066; stroke-opacity: 0.4; stroke-width: 0.6"/>
     </g>
     <g id="line2d_22">
      <g>
       <use xlink:href="#m7da44d42ba" x="39.971875" y="119.905838" style="stroke: #000000; stroke-width: 0.8"/>
      </g>
     </g>
     <g id="text_12">
      <!-- 5 -->
      <g transform="translate(26.951563 123.73162) scale(0.1 -0.1)">
       <defs>
        <path id="DejaVuSansMono-35" d="M 647 4666 
L 3009 4666 
L 3009 4134 
L 1222 4134 
L 1222 2988 
Q 1356 3038 1492 3061 
Q 1628 3084 1766 3084 
Q 2491 3084 2916 2656 
Q 3341 2228 3341 1497 
Q 3341 759 2895 334 
Q 2450 -91 1678 -91 
Q 1306 -91 998 -41 
Q 691 9 447 109 
L 447 750 
Q 734 594 1025 517 
Q 1316 441 1619 441 
Q 2141 441 2423 716 
Q 2706 991 2706 1497 
Q 2706 1997 2414 2275 
Q 2122 2553 1600 2553 
Q 1347 2553 1106 2495 
Q 866 2438 647 2322 
L 647 4666 
z
" transform="scale(0.015625)"/>
       </defs>
       <use xlink:href="#DejaVuSansMono-35"/>
      </g>
     </g>
    </g>
    <g id="ytick_7">
     <g id="line2d_23">
      <path d="M 39.971875 88.248507 
L 422.631875 88.248507 
" clip-path="url(#p4804d78a61)" style="fill: none; stroke-dasharray: 2.22,0.96; stroke-dashoffset: 0; stroke: #6c6066; stroke-opacity: 0.4; stroke-width: 0.6"/>
     </g>
     <g id="line2d_24">
      <g>
       <use xlink:href="#m7da44d42ba" x="39.971875" y="88.248507" style="stroke: #000000; stroke-width: 0.8"/>
      </g>
     </g>
     <g id="text_13">
      <!-- 6 -->
      <g transform="translate(26.951563 92.074288) scale(0.1 -0.1)">
       <use xlink:href="#DejaVuSansMono-36"/>
      </g>
     </g>
    </g>
    <g id="ytick_8">
     <g id="line2d_25">
      <path d="M 39.971875 56.591176 
L 422.631875 56.591176 
" clip-path="url(#p4804d78a61)" style="fill: none; stroke-dasharray: 2.22,0.96; stroke-dashoffset: 0; stroke: #6c6066; stroke-opacity: 0.4; stroke-width: 0.6"/>
     </g>
     <g id="line2d_26">
      <g>
       <use xlink:href="#m7da44d42ba" x="39.971875" y="56.591176" style="stroke: #000000; stroke-width: 0.8"/>
      </g>
     </g>
     <g id="text_14">
      <!-- 7 -->
      <g transform="translate(26.951563 60.416957) scale(0.1 -0.1)">
       <defs>
        <path id="DejaVuSansMono-37" d="M 434 4666 
L 3372 4666 
L 3372 4397 
L 1703 0 
L 1044 0 
L 2669 4134 
L 434 4134 
L 434 4666 
z
" transform="scale(0.015625)"/>
       </defs>
       <use xlink:href="#DejaVuSansMono-37"/>
      </g>
     </g>
    </g>
    <g id="ytick_9">
     <g id="line2d_27">
      <path d="M 39.971875 24.933845 
L 422.631875 24.933845 
" clip-path="url(#p4804d78a61)" style="fill: none; stroke-dasharray: 2.22,0.96; stroke-dashoffset: 0; stroke: #6c6066; stroke-opacity: 0.4; stroke-width: 0.6"/>
     </g>
     <g id="line2d_28">
      <g>
       <use xlink:href="#m7da44d42ba" x="39.971875" y="24.933845" style="stroke: #000000; stroke-width: 0.8"/>
      </g>
     </g>
     <g id="text_15">
      <!-- 8 -->
      <g transform="translate(26.951563 28.759626) scale(0.1 -0.1)">
       <use xlink:href="#DejaVuSansMono-38"/>
      </g>
     </g>
    </g>
    <g id="text_16">
     <!-- objective -->
     <g transform="translate(20.871875 179.753281) rotate(-90) scale(0.1 -0.1)">
      <defs>
       <path id="DejaVuSansMono-6f" d="M 1925 3097 
Q 1488 3097 1263 2756 
Q 1038 2416 1038 1747 
Q 1038 1081 1263 739 
Q 1488 397 1925 397 
Q 2366 397 2591 739 
Q 2816 1081 2816 1747 
Q 2816 2416 2591 2756 
Q 2366 3097 1925 3097 
z
M 1925 3584 
Q 2653 3584 3039 3112 
Q 3425 2641 3425 1747 
Q 3425 850 3040 379 
Q 2656 -91 1925 -91 
Q 1197 -91 812 379 
Q 428 850 428 1747 
Q 428 2641 812 3112 
Q 1197 3584 1925 3584 
z
" transform="scale(0.015625)"/>
       <path id="DejaVuSansMono-62" d="M 2869 1747 
Q 2869 2416 2656 2756 
Q 2444 3097 2028 3097 
Q 1609 3097 1393 2755 
Q 1178 2413 1178 1747 
Q 1178 1084 1393 740 
Q 1609 397 2028 397 
Q 2444 397 2656 737 
Q 2869 1078 2869 1747 
z
M 1178 3053 
Q 1316 3309 1558 3446 
Q 1800 3584 2119 3584 
Q 2750 3584 3112 3098 
Q 3475 2613 3475 1759 
Q 3475 894 3111 401 
Q 2747 -91 2113 -91 
Q 1800 -91 1561 45 
Q 1322 181 1178 441 
L 1178 0 
L 603 0 
L 603 4863 
L 1178 4863 
L 1178 3053 
z
" transform="scale(0.015625)"/>
       <path id="DejaVuSansMono-6a" d="M 1875 -63 
L 1875 3053 
L 884 3053 
L 884 3500 
L 2450 3500 
L 2450 -63 
Q 2450 -672 2170 -1001 
Q 1891 -1331 1375 -1331 
L 581 -1331 
L 581 -844 
L 1313 -844 
Q 1594 -844 1734 -648 
Q 1875 -453 1875 -63 
z
M 1875 4863 
L 2450 4863 
L 2450 4134 
L 1875 4134 
L 1875 4863 
z
" transform="scale(0.015625)"/>
       <path id="DejaVuSansMono-63" d="M 3316 178 
Q 3084 44 2839 -23 
Q 2594 -91 2338 -91 
Q 1525 -91 1067 396 
Q 609 884 609 1747 
Q 609 2609 1067 3096 
Q 1525 3584 2338 3584 
Q 2591 3584 2831 3518 
Q 3072 3453 3316 3316 
L 3316 2713 
Q 3088 2916 2858 3006 
Q 2628 3097 2338 3097 
Q 1797 3097 1506 2747 
Q 1216 2397 1216 1747 
Q 1216 1100 1508 748 
Q 1800 397 2338 397 
Q 2638 397 2875 489 
Q 3113 581 3316 775 
L 3316 178 
z
" transform="scale(0.015625)"/>
       <path id="DejaVuSansMono-76" d="M 313 3500 
L 909 3500 
L 1925 563 
L 2944 3500 
L 3541 3500 
L 2297 0 
L 1556 0 
L 313 3500 
z
" transform="scale(0.015625)"/>
      </defs>
      <use xlink:href="#DejaVuSansMono-6f"/>
      <use xlink:href="#DejaVuSansMono-62" x="60.205078"/>
      <use xlink:href="#DejaVuSansMono-6a" x="120.410156"/>
      <use xlink:href="#DejaVuSansMono-65" x="180.615234"/>
      <use xlink:href="#DejaVuSansMono-63" x="240.820312"/>
      <use xlink:href="#DejaVuSansMono-74" x="301.025391"/>
      <use xlink:href="#DejaVuSansMono-69" x="361.230469"/>
      <use xlink:href="#DejaVuSansMono-76" x="421.435547"/>
      <use xlink:href="#DejaVuSansMono-65" x="481.640625"/>
     </g>
    </g>
   </g>
   <g id="line2d_29">
    <path d="M 57.365511 142.061587 
L 96.018037 34.225511 
L 134.670562 132.922836 
L 173.323087 111.325361 
L 211.975612 179.039991 
L 250.628138 250.560263 
L 289.280663 271.098239 
L 327.933188 167.010503 
L 366.585713 202.040786 
L 405.238239 269.048119 
" clip-path="url(#p4804d78a61)" style="fill: none; stroke: #486afb; stroke-width: 2; stroke-linecap: square"/>
   </g>
   <g id="patch_3">
    <path d="M 39.971875 282.941875 
L 39.971875 22.381875 
" style="fill: none; stroke: #000000; stroke-width: 0.6; stroke-linejoin: miter; stroke-linecap: square"/>
   </g>
   <g id="patch_4">
    <path d="M 39.971875 282.941875 
L 422.631875 282.941875 
" style="fill: none; stroke: #000000; stroke-width: 0.6; stroke-linejoin: miter; stroke-linecap: square"/>
   </g>
   <g id="text_17">
    <!-- $\alpha=0.1$ -->
    <g transform="translate(210.421875 16.381875) scale(0.12 -0.12)">
     <defs>
      <path id="DejaVuSans-Oblique-3b1" d="M 2619 1628 
L 2622 2350 
Q 2625 3088 2069 3091 
Q 1653 3094 1394 2747 
Q 1069 2319 959 1747 
Q 825 1059 994 731 
Q 1169 397 1547 397 
Q 1966 397 2319 1063 
L 2619 1628 
z
M 2166 3578 
Q 3141 3594 3128 2584 
Q 3128 2584 3616 3500 
L 4128 3500 
L 3119 1603 
L 3109 919 
Q 3109 766 3194 638 
Q 3291 488 3391 488 
L 3669 488 
L 3575 0 
L 3228 0 
Q 2934 0 2722 263 
Q 2622 394 2619 669 
Q 2416 334 2066 50 
Q 1900 -81 1453 -78 
Q 722 -72 456 397 
Q 184 884 353 1747 
Q 534 2675 1009 3097 
Q 1544 3569 2166 3578 
z
" transform="scale(0.015625)"/>
      <path id="DejaVuSans-3d" d="M 678 2906 
L 4684 2906 
L 4684 2381 
L 678 2381 
L 678 2906 
z
M 678 1631 
L 4684 1631 
L 4684 1100 
L 678 1100 
L 678 1631 
z
" transform="scale(0.015625)"/>
      <path id="DejaVuSans-30" d="M 2034 4250 
Q 1547 4250 1301 3770 
Q 1056 3291 1056 2328 
Q 1056 1369 1301 889 
Q 1547 409 2034 409 
Q 2525 409 2770 889 
Q 3016 1369 3016 2328 
Q 3016 3291 2770 3770 
Q 2525 4250 2034 4250 
z
M 2034 4750 
Q 2819 4750 3233 4129 
Q 3647 3509 3647 2328 
Q 3647 1150 3233 529 
Q 2819 -91 2034 -91 
Q 1250 -91 836 529 
Q 422 1150 422 2328 
Q 422 3509 836 4129 
Q 1250 4750 2034 4750 
z
" transform="scale(0.015625)"/>
      <path id="DejaVuSans-2e" d="M 684 794 
L 1344 794 
L 1344 0 
L 684 0 
L 684 794 
z
" transform="scale(0.015625)"/>
      <path id="DejaVuSans-31" d="M 794 531 
L 1825 531 
L 1825 4091 
L 703 3866 
L 703 4441 
L 1819 4666 
L 2450 4666 
L 2450 531 
L 3481 531 
L 3481 0 
L 794 0 
L 794 531 
z
" transform="scale(0.015625)"/>
     </defs>
     <use xlink:href="#DejaVuSans-Oblique-3b1" transform="translate(0 0.78125)"/>
     <use xlink:href="#DejaVuSans-3d" transform="translate(85.400391 0.78125)"/>
     <use xlink:href="#DejaVuSans-30" transform="translate(188.671875 0.78125)"/>
     <use xlink:href="#DejaVuSans-2e" transform="translate(252.294922 0.78125)"/>
     <use xlink:href="#DejaVuSans-31" transform="translate(284.082031 0.78125)"/>
    </g>
   </g>
  </g>
  <g id="axes_2">
   <g id="patch_5">
    <path d="M 466.571875 282.941875 
L 849.231875 282.941875 
L 849.231875 22.381875 
L 466.571875 22.381875 
z
" style="fill: #ffffff"/>
   </g>
   <g id="matplotlib.axis_3">
    <g id="xtick_6">
     <g id="line2d_30">
      <path d="M 483.965511 282.941875 
L 483.965511 22.381875 
" clip-path="url(#p2ce25f0e11)" style="fill: none; stroke-dasharray: 2.22,0.96; stroke-dashoffset: 0; stroke: #6c6066; stroke-opacity: 0.4; stroke-width: 0.6"/>
     </g>
     <g id="line2d_31">
      <g>
       <use xlink:href="#m78a17055f8" x="483.965511" y="282.941875" style="stroke: #000000; stroke-width: 0.8"/>
      </g>
     </g>
     <g id="text_18">
      <!-- 0 -->
      <g transform="translate(480.955355 297.593438) scale(0.1 -0.1)">
       <use xlink:href="#DejaVuSansMono-30"/>
      </g>
     </g>
    </g>
    <g id="xtick_7">
     <g id="line2d_32">
      <path d="M 554.24283 282.941875 
L 554.24283 22.381875 
" clip-path="url(#p2ce25f0e11)" style="fill: none; stroke-dasharray: 2.22,0.96; stroke-dashoffset: 0; stroke: #6c6066; stroke-opacity: 0.4; stroke-width: 0.6"/>
     </g>
     <g id="line2d_33">
      <g>
       <use xlink:href="#m78a17055f8" x="554.24283" y="282.941875" style="stroke: #000000; stroke-width: 0.8"/>
      </g>
     </g>
     <g id="text_19">
      <!-- 20 -->
      <g transform="translate(548.222518 297.593438) scale(0.1 -0.1)">
       <use xlink:href="#DejaVuSansMono-32"/>
       <use xlink:href="#DejaVuSansMono-30" x="60.205078"/>
      </g>
     </g>
    </g>
    <g id="xtick_8">
     <g id="line2d_34">
      <path d="M 624.520149 282.941875 
L 624.520149 22.381875 
" clip-path="url(#p2ce25f0e11)" style="fill: none; stroke-dasharray: 2.22,0.96; stroke-dashoffset: 0; stroke: #6c6066; stroke-opacity: 0.4; stroke-width: 0.6"/>
     </g>
     <g id="line2d_35">
      <g>
       <use xlink:href="#m78a17055f8" x="624.520149" y="282.941875" style="stroke: #000000; stroke-width: 0.8"/>
      </g>
     </g>
     <g id="text_20">
      <!-- 40 -->
      <g transform="translate(618.499836 297.593438) scale(0.1 -0.1)">
       <use xlink:href="#DejaVuSansMono-34"/>
       <use xlink:href="#DejaVuSansMono-30" x="60.205078"/>
      </g>
     </g>
    </g>
    <g id="xtick_9">
     <g id="line2d_36">
      <path d="M 694.797467 282.941875 
L 694.797467 22.381875 
" clip-path="url(#p2ce25f0e11)" style="fill: none; stroke-dasharray: 2.22,0.96; stroke-dashoffset: 0; stroke: #6c6066; stroke-opacity: 0.4; stroke-width: 0.6"/>
     </g>
     <g id="line2d_37">
      <g>
       <use xlink:href="#m78a17055f8" x="694.797467" y="282.941875" style="stroke: #000000; stroke-width: 0.8"/>
      </g>
     </g>
     <g id="text_21">
      <!-- 60 -->
      <g transform="translate(688.777155 297.593438) scale(0.1 -0.1)">
       <use xlink:href="#DejaVuSansMono-36"/>
       <use xlink:href="#DejaVuSansMono-30" x="60.205078"/>
      </g>
     </g>
    </g>
    <g id="xtick_10">
     <g id="line2d_38">
      <path d="M 765.074786 282.941875 
L 765.074786 22.381875 
" clip-path="url(#p2ce25f0e11)" style="fill: none; stroke-dasharray: 2.22,0.96; stroke-dashoffset: 0; stroke: #6c6066; stroke-opacity: 0.4; stroke-width: 0.6"/>
     </g>
     <g id="line2d_39">
      <g>
       <use xlink:href="#m78a17055f8" x="765.074786" y="282.941875" style="stroke: #000000; stroke-width: 0.8"/>
      </g>
     </g>
     <g id="text_22">
      <!-- 80 -->
      <g transform="translate(759.054473 297.593438) scale(0.1 -0.1)">
       <use xlink:href="#DejaVuSansMono-38"/>
       <use xlink:href="#DejaVuSansMono-30" x="60.205078"/>
      </g>
     </g>
    </g>
    <g id="xtick_11">
     <g id="line2d_40">
      <path d="M 835.352105 282.941875 
L 835.352105 22.381875 
" clip-path="url(#p2ce25f0e11)" style="fill: none; stroke-dasharray: 2.22,0.96; stroke-dashoffset: 0; stroke: #6c6066; stroke-opacity: 0.4; stroke-width: 0.6"/>
     </g>
     <g id="line2d_41">
      <g>
       <use xlink:href="#m78a17055f8" x="835.352105" y="282.941875" style="stroke: #000000; stroke-width: 0.8"/>
      </g>
     </g>
     <g id="text_23">
      <!-- 100 -->
      <g transform="translate(826.321636 297.593438) scale(0.1 -0.1)">
       <use xlink:href="#DejaVuSansMono-31"/>
       <use xlink:href="#DejaVuSansMono-30" x="60.205078"/>
       <use xlink:href="#DejaVuSansMono-30" x="120.410156"/>
      </g>
     </g>
    </g>
    <g id="text_24">
     <!-- gradient steps -->
     <g transform="translate(615.759688 311.271563) scale(0.1 -0.1)">
      <use xlink:href="#DejaVuSansMono-67"/>
      <use xlink:href="#DejaVuSansMono-72" x="60.205078"/>
      <use xlink:href="#DejaVuSansMono-61" x="120.410156"/>
      <use xlink:href="#DejaVuSansMono-64" x="180.615234"/>
      <use xlink:href="#DejaVuSansMono-69" x="240.820312"/>
      <use xlink:href="#DejaVuSansMono-65" x="301.025391"/>
      <use xlink:href="#DejaVuSansMono-6e" x="361.230469"/>
      <use xlink:href="#DejaVuSansMono-74" x="421.435547"/>
      <use xlink:href="#DejaVuSansMono-20" x="481.640625"/>
      <use xlink:href="#DejaVuSansMono-73" x="541.845703"/>
      <use xlink:href="#DejaVuSansMono-74" x="602.050781"/>
      <use xlink:href="#DejaVuSansMono-65" x="662.255859"/>
      <use xlink:href="#DejaVuSansMono-70" x="722.460938"/>
      <use xlink:href="#DejaVuSansMono-73" x="782.666016"/>
     </g>
    </g>
   </g>
   <g id="matplotlib.axis_4">
    <g id="ytick_10">
     <g id="line2d_42">
      <path d="M 466.571875 271.299889 
L 849.231875 271.299889 
" clip-path="url(#p2ce25f0e11)" style="fill: none; stroke-dasharray: 2.22,0.96; stroke-dashoffset: 0; stroke: #6c6066; stroke-opacity: 0.4; stroke-width: 0.6"/>
     </g>
     <g id="line2d_43">
      <g>
       <use xlink:href="#m7da44d42ba" x="466.571875" y="271.299889" style="stroke: #000000; stroke-width: 0.8"/>
      </g>
     </g>
     <g id="text_25">
      <!-- 0 -->
      <g transform="translate(453.551563 275.125671) scale(0.1 -0.1)">
       <use xlink:href="#DejaVuSansMono-30"/>
      </g>
     </g>
    </g>
    <g id="ytick_11">
     <g id="line2d_44">
      <path d="M 466.571875 235.467801 
L 849.231875 235.467801 
" clip-path="url(#p2ce25f0e11)" style="fill: none; stroke-dasharray: 2.22,0.96; stroke-dashoffset: 0; stroke: #6c6066; stroke-opacity: 0.4; stroke-width: 0.6"/>
     </g>
     <g id="line2d_45">
      <g>
       <use xlink:href="#m7da44d42ba" x="466.571875" y="235.467801" style="stroke: #000000; stroke-width: 0.8"/>
      </g>
     </g>
     <g id="text_26">
      <!-- 2 -->
      <g transform="translate(453.551563 239.293583) scale(0.1 -0.1)">
       <use xlink:href="#DejaVuSansMono-32"/>
      </g>
     </g>
    </g>
    <g id="ytick_12">
     <g id="line2d_46">
      <path d="M 466.571875 199.635713 
L 849.231875 199.635713 
" clip-path="url(#p2ce25f0e11)" style="fill: none; stroke-dasharray: 2.22,0.96; stroke-dashoffset: 0; stroke: #6c6066; stroke-opacity: 0.4; stroke-width: 0.6"/>
     </g>
     <g id="line2d_47">
      <g>
       <use xlink:href="#m7da44d42ba" x="466.571875" y="199.635713" style="stroke: #000000; stroke-width: 0.8"/>
      </g>
     </g>
     <g id="text_27">
      <!-- 4 -->
      <g transform="translate(453.551563 203.461495) scale(0.1 -0.1)">
       <use xlink:href="#DejaVuSansMono-34"/>
      </g>
     </g>
    </g>
    <g id="ytick_13">
     <g id="line2d_48">
      <path d="M 466.571875 163.803625 
L 849.231875 163.803625 
" clip-path="url(#p2ce25f0e11)" style="fill: none; stroke-dasharray: 2.22,0.96; stroke-dashoffset: 0; stroke: #6c6066; stroke-opacity: 0.4; stroke-width: 0.6"/>
     </g>
     <g id="line2d_49">
      <g>
       <use xlink:href="#m7da44d42ba" x="466.571875" y="163.803625" style="stroke: #000000; stroke-width: 0.8"/>
      </g>
     </g>
     <g id="text_28">
      <!-- 6 -->
      <g transform="translate(453.551563 167.629407) scale(0.1 -0.1)">
       <use xlink:href="#DejaVuSansMono-36"/>
      </g>
     </g>
    </g>
    <g id="ytick_14">
     <g id="line2d_50">
      <path d="M 466.571875 127.971538 
L 849.231875 127.971538 
" clip-path="url(#p2ce25f0e11)" style="fill: none; stroke-dasharray: 2.22,0.96; stroke-dashoffset: 0; stroke: #6c6066; stroke-opacity: 0.4; stroke-width: 0.6"/>
     </g>
     <g id="line2d_51">
      <g>
       <use xlink:href="#m7da44d42ba" x="466.571875" y="127.971538" style="stroke: #000000; stroke-width: 0.8"/>
      </g>
     </g>
     <g id="text_29">
      <!-- 8 -->
      <g transform="translate(453.551563 131.797319) scale(0.1 -0.1)">
       <use xlink:href="#DejaVuSansMono-38"/>
      </g>
     </g>
    </g>
    <g id="ytick_15">
     <g id="line2d_52">
      <path d="M 466.571875 92.13945 
L 849.231875 92.13945 
" clip-path="url(#p2ce25f0e11)" style="fill: none; stroke-dasharray: 2.22,0.96; stroke-dashoffset: 0; stroke: #6c6066; stroke-opacity: 0.4; stroke-width: 0.6"/>
     </g>
     <g id="line2d_53">
      <g>
       <use xlink:href="#m7da44d42ba" x="466.571875" y="92.13945" style="stroke: #000000; stroke-width: 0.8"/>
      </g>
     </g>
     <g id="text_30">
      <!-- 10 -->
      <g transform="translate(447.53125 95.965231) scale(0.1 -0.1)">
       <use xlink:href="#DejaVuSansMono-31"/>
       <use xlink:href="#DejaVuSansMono-30" x="60.205078"/>
      </g>
     </g>
    </g>
    <g id="ytick_16">
     <g id="line2d_54">
      <path d="M 466.571875 56.307362 
L 849.231875 56.307362 
" clip-path="url(#p2ce25f0e11)" style="fill: none; stroke-dasharray: 2.22,0.96; stroke-dashoffset: 0; stroke: #6c6066; stroke-opacity: 0.4; stroke-width: 0.6"/>
     </g>
     <g id="line2d_55">
      <g>
       <use xlink:href="#m7da44d42ba" x="466.571875" y="56.307362" style="stroke: #000000; stroke-width: 0.8"/>
      </g>
     </g>
     <g id="text_31">
      <!-- 12 -->
      <g transform="translate(447.53125 60.133143) scale(0.1 -0.1)">
       <use xlink:href="#DejaVuSansMono-31"/>
       <use xlink:href="#DejaVuSansMono-32" x="60.205078"/>
      </g>
     </g>
    </g>
    <g id="text_32">
     <!-- objective -->
     <g transform="translate(441.451563 179.753281) rotate(-90) scale(0.1 -0.1)">
      <use xlink:href="#DejaVuSansMono-6f"/>
      <use xlink:href="#DejaVuSansMono-62" x="60.205078"/>
      <use xlink:href="#DejaVuSansMono-6a" x="120.410156"/>
      <use xlink:href="#DejaVuSansMono-65" x="180.615234"/>
      <use xlink:href="#DejaVuSansMono-63" x="240.820312"/>
      <use xlink:href="#DejaVuSansMono-74" x="301.025391"/>
      <use xlink:href="#DejaVuSansMono-69" x="361.230469"/>
      <use xlink:href="#DejaVuSansMono-76" x="421.435547"/>
      <use xlink:href="#DejaVuSansMono-65" x="481.640625"/>
     </g>
    </g>
   </g>
   <g id="line2d_56">
    <path d="M 483.965511 194.258419 
L 487.479377 133.230032 
L 490.993243 189.086466 
L 494.507109 176.863663 
L 498.020975 215.185853 
L 501.534841 255.661797 
L 505.048707 267.28499 
L 508.562573 208.377926 
L 512.076439 228.202847 
L 515.590305 266.124752 
L 519.104171 146.16599 
L 522.618037 232.533931 
L 526.131903 249.305488 
L 529.645768 216.231846 
L 533.159634 214.682814 
L 536.6735 265.283222 
L 540.187366 252.210013 
L 543.701232 235.429217 
L 547.215098 252.622291 
L 550.728964 256.215678 
L 554.24283 236.051284 
L 557.756696 266.273258 
L 561.270562 264.1413 
L 564.784428 111.730321 
L 568.298294 232.056973 
L 571.81216 258.696867 
L 575.326026 183.963916 
L 578.839892 125.558967 
L 582.353757 268.803131 
L 585.867623 242.345088 
L 589.381489 250.627634 
L 592.895355 223.651237 
L 596.409221 228.120385 
L 599.923087 209.416904 
L 603.436953 266.335528 
L 606.950819 234.393451 
L 610.464685 34.225511 
L 613.978551 147.199142 
L 617.492417 215.781875 
L 621.006283 229.233752 
L 624.520149 240.442383 
L 628.034015 234.936715 
L 631.547881 230.946562 
L 635.061746 198.77525 
L 638.575612 270.770208 
L 642.089478 217.4318 
L 645.603344 198.008667 
L 649.11721 219.544882 
L 652.631076 194.153135 
L 656.144942 185.33175 
L 659.658808 254.160398 
L 663.172674 218.316449 
L 666.68654 220.261741 
L 670.200406 231.90565 
L 673.714272 253.010987 
L 677.228138 241.270438 
L 680.742004 251.400936 
L 684.255869 214.204113 
L 687.769735 217.324291 
L 691.283601 224.952183 
L 694.797467 230.966856 
L 698.311333 264.751221 
L 701.825199 120.044216 
L 705.339065 235.013021 
L 708.852931 251.90228 
L 712.366797 264.01533 
L 715.880663 261.1897 
L 719.394529 238.142852 
L 722.908395 246.129307 
L 726.422261 202.155883 
L 729.936127 244.5908 
L 733.449993 266.308524 
L 736.963858 263.261559 
L 740.477724 265.642267 
L 743.99159 264.426696 
L 747.505456 233.26433 
L 751.019322 261.960709 
L 754.533188 260.526643 
L 758.047054 253.533196 
L 761.56092 271.098239 
L 765.074786 262.341819 
L 768.588652 246.843408 
L 772.102518 210.227104 
L 775.616384 266.555499 
L 779.13025 219.993126 
L 782.644116 264.213694 
L 786.157982 261.505064 
L 789.671847 231.379288 
L 793.185713 255.119014 
L 796.699579 117.206851 
L 800.213445 220.433567 
L 803.727311 243.867801 
L 807.241177 104.994001 
L 810.755043 270.657523 
L 814.268909 206.686285 
L 817.782775 270.33474 
L 821.296641 243.854326 
L 824.810507 190.898136 
L 828.324373 258.346292 
L 831.838239 222.148615 
" clip-path="url(#p2ce25f0e11)" style="fill: none; stroke: #486afb; stroke-width: 2; stroke-linecap: square"/>
   </g>
   <g id="patch_6">
    <path d="M 466.571875 282.941875 
L 466.571875 22.381875 
" style="fill: none; stroke: #000000; stroke-width: 0.6; stroke-linejoin: miter; stroke-linecap: square"/>
   </g>
   <g id="patch_7">
    <path d="M 466.571875 282.941875 
L 849.231875 282.941875 
" style="fill: none; stroke: #000000; stroke-width: 0.6; stroke-linejoin: miter; stroke-linecap: square"/>
   </g>
   <g id="text_33">
    <!-- $\alpha=0.1$ -->
    <g transform="translate(637.021875 16.381875) scale(0.12 -0.12)">
     <use xlink:href="#DejaVuSans-Oblique-3b1" transform="translate(0 0.78125)"/>
     <use xlink:href="#DejaVuSans-3d" transform="translate(85.400391 0.78125)"/>
     <use xlink:href="#DejaVuSans-30" transform="translate(188.671875 0.78125)"/>
     <use xlink:href="#DejaVuSans-2e" transform="translate(252.294922 0.78125)"/>
     <use xlink:href="#DejaVuSans-31" transform="translate(284.082031 0.78125)"/>
    </g>
   </g>
  </g>
  <g id="axes_3">
   <g id="patch_8">
    <path d="M 39.971875 601.541875 
L 422.631875 601.541875 
L 422.631875 340.981875 
L 39.971875 340.981875 
z
" style="fill: #ffffff"/>
   </g>
   <g id="matplotlib.axis_5">
    <g id="xtick_12">
     <g id="line2d_57">
      <path d="M 57.365511 601.541875 
L 57.365511 340.981875 
" clip-path="url(#pa94efdaf3b)" style="fill: none; stroke-dasharray: 2.22,0.96; stroke-dashoffset: 0; stroke: #6c6066; stroke-opacity: 0.4; stroke-width: 0.6"/>
     </g>
     <g id="line2d_58">
      <g>
       <use xlink:href="#m78a17055f8" x="57.365511" y="601.541875" style="stroke: #000000; stroke-width: 0.8"/>
      </g>
     </g>
     <g id="text_34">
      <!-- 0 -->
      <g transform="translate(54.355355 616.193438) scale(0.1 -0.1)">
       <use xlink:href="#DejaVuSansMono-30"/>
      </g>
     </g>
    </g>
    <g id="xtick_13">
     <g id="line2d_59">
      <path d="M 101.400034 601.541875 
L 101.400034 340.981875 
" clip-path="url(#pa94efdaf3b)" style="fill: none; stroke-dasharray: 2.22,0.96; stroke-dashoffset: 0; stroke: #6c6066; stroke-opacity: 0.4; stroke-width: 0.6"/>
     </g>
     <g id="line2d_60">
      <g>
       <use xlink:href="#m78a17055f8" x="101.400034" y="601.541875" style="stroke: #000000; stroke-width: 0.8"/>
      </g>
     </g>
     <g id="text_35">
      <!-- 10 -->
      <g transform="translate(95.379721 616.193438) scale(0.1 -0.1)">
       <use xlink:href="#DejaVuSansMono-31"/>
       <use xlink:href="#DejaVuSansMono-30" x="60.205078"/>
      </g>
     </g>
    </g>
    <g id="xtick_14">
     <g id="line2d_61">
      <path d="M 145.434556 601.541875 
L 145.434556 340.981875 
" clip-path="url(#pa94efdaf3b)" style="fill: none; stroke-dasharray: 2.22,0.96; stroke-dashoffset: 0; stroke: #6c6066; stroke-opacity: 0.4; stroke-width: 0.6"/>
     </g>
     <g id="line2d_62">
      <g>
       <use xlink:href="#m78a17055f8" x="145.434556" y="601.541875" style="stroke: #000000; stroke-width: 0.8"/>
      </g>
     </g>
     <g id="text_36">
      <!-- 20 -->
      <g transform="translate(139.414244 616.193438) scale(0.1 -0.1)">
       <use xlink:href="#DejaVuSansMono-32"/>
       <use xlink:href="#DejaVuSansMono-30" x="60.205078"/>
      </g>
     </g>
    </g>
    <g id="xtick_15">
     <g id="line2d_63">
      <path d="M 189.469079 601.541875 
L 189.469079 340.981875 
" clip-path="url(#pa94efdaf3b)" style="fill: none; stroke-dasharray: 2.22,0.96; stroke-dashoffset: 0; stroke: #6c6066; stroke-opacity: 0.4; stroke-width: 0.6"/>
     </g>
     <g id="line2d_64">
      <g>
       <use xlink:href="#m78a17055f8" x="189.469079" y="601.541875" style="stroke: #000000; stroke-width: 0.8"/>
      </g>
     </g>
     <g id="text_37">
      <!-- 30 -->
      <g transform="translate(183.448766 616.193438) scale(0.1 -0.1)">
       <use xlink:href="#DejaVuSansMono-33"/>
       <use xlink:href="#DejaVuSansMono-30" x="60.205078"/>
      </g>
     </g>
    </g>
    <g id="xtick_16">
     <g id="line2d_65">
      <path d="M 233.503601 601.541875 
L 233.503601 340.981875 
" clip-path="url(#pa94efdaf3b)" style="fill: none; stroke-dasharray: 2.22,0.96; stroke-dashoffset: 0; stroke: #6c6066; stroke-opacity: 0.4; stroke-width: 0.6"/>
     </g>
     <g id="line2d_66">
      <g>
       <use xlink:href="#m78a17055f8" x="233.503601" y="601.541875" style="stroke: #000000; stroke-width: 0.8"/>
      </g>
     </g>
     <g id="text_38">
      <!-- 40 -->
      <g transform="translate(227.483289 616.193438) scale(0.1 -0.1)">
       <use xlink:href="#DejaVuSansMono-34"/>
       <use xlink:href="#DejaVuSansMono-30" x="60.205078"/>
      </g>
     </g>
    </g>
    <g id="xtick_17">
     <g id="line2d_67">
      <path d="M 277.538124 601.541875 
L 277.538124 340.981875 
" clip-path="url(#pa94efdaf3b)" style="fill: none; stroke-dasharray: 2.22,0.96; stroke-dashoffset: 0; stroke: #6c6066; stroke-opacity: 0.4; stroke-width: 0.6"/>
     </g>
     <g id="line2d_68">
      <g>
       <use xlink:href="#m78a17055f8" x="277.538124" y="601.541875" style="stroke: #000000; stroke-width: 0.8"/>
      </g>
     </g>
     <g id="text_39">
      <!-- 50 -->
      <g transform="translate(271.517811 616.193438) scale(0.1 -0.1)">
       <use xlink:href="#DejaVuSansMono-35"/>
       <use xlink:href="#DejaVuSansMono-30" x="60.205078"/>
      </g>
     </g>
    </g>
    <g id="xtick_18">
     <g id="line2d_69">
      <path d="M 321.572646 601.541875 
L 321.572646 340.981875 
" clip-path="url(#pa94efdaf3b)" style="fill: none; stroke-dasharray: 2.22,0.96; stroke-dashoffset: 0; stroke: #6c6066; stroke-opacity: 0.4; stroke-width: 0.6"/>
     </g>
     <g id="line2d_70">
      <g>
       <use xlink:href="#m78a17055f8" x="321.572646" y="601.541875" style="stroke: #000000; stroke-width: 0.8"/>
      </g>
     </g>
     <g id="text_40">
      <!-- 60 -->
      <g transform="translate(315.552334 616.193438) scale(0.1 -0.1)">
       <use xlink:href="#DejaVuSansMono-36"/>
       <use xlink:href="#DejaVuSansMono-30" x="60.205078"/>
      </g>
     </g>
    </g>
    <g id="xtick_19">
     <g id="line2d_71">
      <path d="M 365.607168 601.541875 
L 365.607168 340.981875 
" clip-path="url(#pa94efdaf3b)" style="fill: none; stroke-dasharray: 2.22,0.96; stroke-dashoffset: 0; stroke: #6c6066; stroke-opacity: 0.4; stroke-width: 0.6"/>
     </g>
     <g id="line2d_72">
      <g>
       <use xlink:href="#m78a17055f8" x="365.607168" y="601.541875" style="stroke: #000000; stroke-width: 0.8"/>
      </g>
     </g>
     <g id="text_41">
      <!-- 70 -->
      <g transform="translate(359.586856 616.193438) scale(0.1 -0.1)">
       <use xlink:href="#DejaVuSansMono-37"/>
       <use xlink:href="#DejaVuSansMono-30" x="60.205078"/>
      </g>
     </g>
    </g>
    <g id="xtick_20">
     <g id="line2d_73">
      <path d="M 409.641691 601.541875 
L 409.641691 340.981875 
" clip-path="url(#pa94efdaf3b)" style="fill: none; stroke-dasharray: 2.22,0.96; stroke-dashoffset: 0; stroke: #6c6066; stroke-opacity: 0.4; stroke-width: 0.6"/>
     </g>
     <g id="line2d_74">
      <g>
       <use xlink:href="#m78a17055f8" x="409.641691" y="601.541875" style="stroke: #000000; stroke-width: 0.8"/>
      </g>
     </g>
     <g id="text_42">
      <!-- 80 -->
      <g transform="translate(403.621378 616.193438) scale(0.1 -0.1)">
       <use xlink:href="#DejaVuSansMono-38"/>
       <use xlink:href="#DejaVuSansMono-30" x="60.205078"/>
      </g>
     </g>
    </g>
    <g id="text_43">
     <!-- gradient steps -->
     <g transform="translate(189.159687 629.871562) scale(0.1 -0.1)">
      <use xlink:href="#DejaVuSansMono-67"/>
      <use xlink:href="#DejaVuSansMono-72" x="60.205078"/>
      <use xlink:href="#DejaVuSansMono-61" x="120.410156"/>
      <use xlink:href="#DejaVuSansMono-64" x="180.615234"/>
      <use xlink:href="#DejaVuSansMono-69" x="240.820312"/>
      <use xlink:href="#DejaVuSansMono-65" x="301.025391"/>
      <use xlink:href="#DejaVuSansMono-6e" x="361.230469"/>
      <use xlink:href="#DejaVuSansMono-74" x="421.435547"/>
      <use xlink:href="#DejaVuSansMono-20" x="481.640625"/>
      <use xlink:href="#DejaVuSansMono-73" x="541.845703"/>
      <use xlink:href="#DejaVuSansMono-74" x="602.050781"/>
      <use xlink:href="#DejaVuSansMono-65" x="662.255859"/>
      <use xlink:href="#DejaVuSansMono-70" x="722.460938"/>
      <use xlink:href="#DejaVuSansMono-73" x="782.666016"/>
     </g>
    </g>
   </g>
   <g id="matplotlib.axis_6">
    <g id="ytick_17">
     <g id="line2d_75">
      <path d="M 39.971875 589.903816 
L 422.631875 589.903816 
" clip-path="url(#pa94efdaf3b)" style="fill: none; stroke-dasharray: 2.22,0.96; stroke-dashoffset: 0; stroke: #6c6066; stroke-opacity: 0.4; stroke-width: 0.6"/>
     </g>
     <g id="line2d_76">
      <g>
       <use xlink:href="#m7da44d42ba" x="39.971875" y="589.903816" style="stroke: #000000; stroke-width: 0.8"/>
      </g>
     </g>
     <g id="text_44">
      <!-- 0 -->
      <g transform="translate(26.951563 593.729597) scale(0.1 -0.1)">
       <use xlink:href="#DejaVuSansMono-30"/>
      </g>
     </g>
    </g>
    <g id="ytick_18">
     <g id="line2d_77">
      <path d="M 39.971875 549.132242 
L 422.631875 549.132242 
" clip-path="url(#pa94efdaf3b)" style="fill: none; stroke-dasharray: 2.22,0.96; stroke-dashoffset: 0; stroke: #6c6066; stroke-opacity: 0.4; stroke-width: 0.6"/>
     </g>
     <g id="line2d_78">
      <g>
       <use xlink:href="#m7da44d42ba" x="39.971875" y="549.132242" style="stroke: #000000; stroke-width: 0.8"/>
      </g>
     </g>
     <g id="text_45">
      <!-- 2 -->
      <g transform="translate(26.951563 552.958024) scale(0.1 -0.1)">
       <use xlink:href="#DejaVuSansMono-32"/>
      </g>
     </g>
    </g>
    <g id="ytick_19">
     <g id="line2d_79">
      <path d="M 39.971875 508.360669 
L 422.631875 508.360669 
" clip-path="url(#pa94efdaf3b)" style="fill: none; stroke-dasharray: 2.22,0.96; stroke-dashoffset: 0; stroke: #6c6066; stroke-opacity: 0.4; stroke-width: 0.6"/>
     </g>
     <g id="line2d_80">
      <g>
       <use xlink:href="#m7da44d42ba" x="39.971875" y="508.360669" style="stroke: #000000; stroke-width: 0.8"/>
      </g>
     </g>
     <g id="text_46">
      <!-- 4 -->
      <g transform="translate(26.951563 512.18645) scale(0.1 -0.1)">
       <use xlink:href="#DejaVuSansMono-34"/>
      </g>
     </g>
    </g>
    <g id="ytick_20">
     <g id="line2d_81">
      <path d="M 39.971875 467.589095 
L 422.631875 467.589095 
" clip-path="url(#pa94efdaf3b)" style="fill: none; stroke-dasharray: 2.22,0.96; stroke-dashoffset: 0; stroke: #6c6066; stroke-opacity: 0.4; stroke-width: 0.6"/>
     </g>
     <g id="line2d_82">
      <g>
       <use xlink:href="#m7da44d42ba" x="39.971875" y="467.589095" style="stroke: #000000; stroke-width: 0.8"/>
      </g>
     </g>
     <g id="text_47">
      <!-- 6 -->
      <g transform="translate(26.951563 471.414876) scale(0.1 -0.1)">
       <use xlink:href="#DejaVuSansMono-36"/>
      </g>
     </g>
    </g>
    <g id="ytick_21">
     <g id="line2d_83">
      <path d="M 39.971875 426.817521 
L 422.631875 426.817521 
" clip-path="url(#pa94efdaf3b)" style="fill: none; stroke-dasharray: 2.22,0.96; stroke-dashoffset: 0; stroke: #6c6066; stroke-opacity: 0.4; stroke-width: 0.6"/>
     </g>
     <g id="line2d_84">
      <g>
       <use xlink:href="#m7da44d42ba" x="39.971875" y="426.817521" style="stroke: #000000; stroke-width: 0.8"/>
      </g>
     </g>
     <g id="text_48">
      <!-- 8 -->
      <g transform="translate(26.951563 430.643303) scale(0.1 -0.1)">
       <use xlink:href="#DejaVuSansMono-38"/>
      </g>
     </g>
    </g>
    <g id="ytick_22">
     <g id="line2d_85">
      <path d="M 39.971875 386.045948 
L 422.631875 386.045948 
" clip-path="url(#pa94efdaf3b)" style="fill: none; stroke-dasharray: 2.22,0.96; stroke-dashoffset: 0; stroke: #6c6066; stroke-opacity: 0.4; stroke-width: 0.6"/>
     </g>
     <g id="line2d_86">
      <g>
       <use xlink:href="#m7da44d42ba" x="39.971875" y="386.045948" style="stroke: #000000; stroke-width: 0.8"/>
      </g>
     </g>
     <g id="text_49">
      <!-- 10 -->
      <g transform="translate(20.93125 389.871729) scale(0.1 -0.1)">
       <use xlink:href="#DejaVuSansMono-31"/>
       <use xlink:href="#DejaVuSansMono-30" x="60.205078"/>
      </g>
     </g>
    </g>
    <g id="ytick_23">
     <g id="line2d_87">
      <path d="M 39.971875 345.274374 
L 422.631875 345.274374 
" clip-path="url(#pa94efdaf3b)" style="fill: none; stroke-dasharray: 2.22,0.96; stroke-dashoffset: 0; stroke: #6c6066; stroke-opacity: 0.4; stroke-width: 0.6"/>
     </g>
     <g id="line2d_88">
      <g>
       <use xlink:href="#m7da44d42ba" x="39.971875" y="345.274374" style="stroke: #000000; stroke-width: 0.8"/>
      </g>
     </g>
     <g id="text_50">
      <!-- 12 -->
      <g transform="translate(20.93125 349.100155) scale(0.1 -0.1)">
       <use xlink:href="#DejaVuSansMono-31"/>
       <use xlink:href="#DejaVuSansMono-32" x="60.205078"/>
      </g>
     </g>
    </g>
    <g id="text_51">
     <!-- objective -->
     <g transform="translate(14.851563 498.353281) rotate(-90) scale(0.1 -0.1)">
      <use xlink:href="#DejaVuSansMono-6f"/>
      <use xlink:href="#DejaVuSansMono-62" x="60.205078"/>
      <use xlink:href="#DejaVuSansMono-6a" x="120.410156"/>
      <use xlink:href="#DejaVuSansMono-65" x="180.615234"/>
      <use xlink:href="#DejaVuSansMono-63" x="240.820312"/>
      <use xlink:href="#DejaVuSansMono-74" x="301.025391"/>
      <use xlink:href="#DejaVuSansMono-69" x="361.230469"/>
      <use xlink:href="#DejaVuSansMono-76" x="421.435547"/>
      <use xlink:href="#DejaVuSansMono-65" x="481.640625"/>
     </g>
    </g>
   </g>
   <g id="line2d_89">
    <path d="M 57.365511 502.24211 
L 61.768964 400.83576 
L 66.172416 444.373836 
L 70.575868 423.893185 
L 74.97932 551.841404 
L 79.382773 530.640203 
L 83.786225 556.196232 
L 88.189677 469.629966 
L 92.593129 458.494009 
L 96.996582 551.324618 
L 101.400034 517.280758 
L 105.803486 561.856013 
L 110.206938 541.646015 
L 114.610391 556.342992 
L 119.013843 502.560793 
L 123.417295 562.191496 
L 127.820747 582.019297 
L 132.2242 542.297472 
L 136.627652 541.656207 
L 141.031104 581.937214 
L 145.434556 524.408884 
L 149.838008 587.990801 
L 154.241461 563.38068 
L 158.644913 363.336622 
L 163.048365 573.788436 
L 167.451817 588.680168 
L 171.85527 518.543666 
L 176.258722 411.726153 
L 180.662174 587.746673 
L 185.065626 553.625026 
L 189.469079 581.708805 
L 193.872531 541.311564 
L 198.275983 538.79992 
L 202.679435 509.924258 
L 207.082888 586.355726 
L 211.48634 534.087718 
L 215.889792 352.825511 
L 220.293244 400.864592 
L 224.696697 463.483149 
L 229.100149 571.549189 
L 233.503601 582.582297 
L 237.907053 566.661983 
L 242.310506 557.577893 
L 246.713958 525.156231 
L 251.11741 589.698239 
L 255.520862 527.397776 
L 259.924315 525.740718 
L 264.327767 531.41924 
L 268.731219 481.661763 
L 273.134671 532.406703 
L 277.538124 564.043416 
L 281.941576 535.519101 
L 286.345028 542.712696 
L 290.74848 544.864286 
L 295.151933 576.912319 
L 299.555385 546.141051 
L 303.958837 560.55392 
L 308.362289 545.132082 
L 312.765742 515.489233 
L 317.169194 556.704085 
L 321.572646 538.024495 
L 325.976098 573.691267 
L 330.37955 443.921852 
L 334.783003 548.313429 
L 339.186455 552.876933 
L 343.589907 581.769173 
L 347.993359 570.211664 
L 352.396812 561.563159 
L 356.800264 556.004185 
L 361.203716 533.5172 
L 365.607168 559.188434 
L 370.010621 584.122839 
L 374.414073 573.61555 
L 378.817525 586.733461 
L 383.220977 586.946388 
L 387.62443 540.973906 
L 392.027882 586.247802 
L 396.431334 576.375638 
L 400.834786 568.870837 
L 405.238239 589.481714 
" clip-path="url(#pa94efdaf3b)" style="fill: none; stroke: #486afb; stroke-width: 2; stroke-linecap: square"/>
   </g>
   <g id="patch_9">
    <path d="M 39.971875 601.541875 
L 39.971875 340.981875 
" style="fill: none; stroke: #000000; stroke-width: 0.6; stroke-linejoin: miter; stroke-linecap: square"/>
   </g>
   <g id="patch_10">
    <path d="M 39.971875 601.541875 
L 422.631875 601.541875 
" style="fill: none; stroke: #000000; stroke-width: 0.6; stroke-linejoin: miter; stroke-linecap: square"/>
   </g>
   <g id="text_52">
    <!-- $\alpha=0.03$ -->
    <g transform="translate(206.581875 334.981875) scale(0.12 -0.12)">
     <defs>
      <path id="DejaVuSans-33" d="M 2597 2516 
Q 3050 2419 3304 2112 
Q 3559 1806 3559 1356 
Q 3559 666 3084 287 
Q 2609 -91 1734 -91 
Q 1441 -91 1130 -33 
Q 819 25 488 141 
L 488 750 
Q 750 597 1062 519 
Q 1375 441 1716 441 
Q 2309 441 2620 675 
Q 2931 909 2931 1356 
Q 2931 1769 2642 2001 
Q 2353 2234 1838 2234 
L 1294 2234 
L 1294 2753 
L 1863 2753 
Q 2328 2753 2575 2939 
Q 2822 3125 2822 3475 
Q 2822 3834 2567 4026 
Q 2313 4219 1838 4219 
Q 1578 4219 1281 4162 
Q 984 4106 628 3988 
L 628 4550 
Q 988 4650 1302 4700 
Q 1616 4750 1894 4750 
Q 2613 4750 3031 4423 
Q 3450 4097 3450 3541 
Q 3450 3153 3228 2886 
Q 3006 2619 2597 2516 
z
" transform="scale(0.015625)"/>
     </defs>
     <use xlink:href="#DejaVuSans-Oblique-3b1" transform="translate(0 0.78125)"/>
     <use xlink:href="#DejaVuSans-3d" transform="translate(85.400391 0.78125)"/>
     <use xlink:href="#DejaVuSans-30" transform="translate(188.671875 0.78125)"/>
     <use xlink:href="#DejaVuSans-2e" transform="translate(252.294922 0.78125)"/>
     <use xlink:href="#DejaVuSans-30" transform="translate(284.082031 0.78125)"/>
     <use xlink:href="#DejaVuSans-33" transform="translate(347.705078 0.78125)"/>
    </g>
   </g>
  </g>
  <g id="axes_4">
   <g id="patch_11">
    <path d="M 466.571875 601.541875 
L 849.231875 601.541875 
L 849.231875 340.981875 
L 466.571875 340.981875 
z
" style="fill: #ffffff"/>
   </g>
   <g id="matplotlib.axis_7">
    <g id="xtick_21">
     <g id="line2d_90">
      <path d="M 483.965511 601.541875 
L 483.965511 340.981875 
" clip-path="url(#p04911bc3e9)" style="fill: none; stroke-dasharray: 2.22,0.96; stroke-dashoffset: 0; stroke: #6c6066; stroke-opacity: 0.4; stroke-width: 0.6"/>
     </g>
     <g id="line2d_91">
      <g>
       <use xlink:href="#m78a17055f8" x="483.965511" y="601.541875" style="stroke: #000000; stroke-width: 0.8"/>
      </g>
     </g>
     <g id="text_53">
      <!-- 0 -->
      <g transform="translate(480.955355 616.193438) scale(0.1 -0.1)">
       <use xlink:href="#DejaVuSansMono-30"/>
      </g>
     </g>
    </g>
    <g id="xtick_22">
     <g id="line2d_92">
      <path d="M 527.723087 601.541875 
L 527.723087 340.981875 
" clip-path="url(#p04911bc3e9)" style="fill: none; stroke-dasharray: 2.22,0.96; stroke-dashoffset: 0; stroke: #6c6066; stroke-opacity: 0.4; stroke-width: 0.6"/>
     </g>
     <g id="line2d_93">
      <g>
       <use xlink:href="#m78a17055f8" x="527.723087" y="601.541875" style="stroke: #000000; stroke-width: 0.8"/>
      </g>
     </g>
     <g id="text_54">
      <!-- 20 -->
      <g transform="translate(521.702775 616.193438) scale(0.1 -0.1)">
       <use xlink:href="#DejaVuSansMono-32"/>
       <use xlink:href="#DejaVuSansMono-30" x="60.205078"/>
      </g>
     </g>
    </g>
    <g id="xtick_23">
     <g id="line2d_94">
      <path d="M 571.480663 601.541875 
L 571.480663 340.981875 
" clip-path="url(#p04911bc3e9)" style="fill: none; stroke-dasharray: 2.22,0.96; stroke-dashoffset: 0; stroke: #6c6066; stroke-opacity: 0.4; stroke-width: 0.6"/>
     </g>
     <g id="line2d_95">
      <g>
       <use xlink:href="#m78a17055f8" x="571.480663" y="601.541875" style="stroke: #000000; stroke-width: 0.8"/>
      </g>
     </g>
     <g id="text_55">
      <!-- 40 -->
      <g transform="translate(565.46035 616.193438) scale(0.1 -0.1)">
       <use xlink:href="#DejaVuSansMono-34"/>
       <use xlink:href="#DejaVuSansMono-30" x="60.205078"/>
      </g>
     </g>
    </g>
    <g id="xtick_24">
     <g id="line2d_96">
      <path d="M 615.238239 601.541875 
L 615.238239 340.981875 
" clip-path="url(#p04911bc3e9)" style="fill: none; stroke-dasharray: 2.22,0.96; stroke-dashoffset: 0; stroke: #6c6066; stroke-opacity: 0.4; stroke-width: 0.6"/>
     </g>
     <g id="line2d_97">
      <g>
       <use xlink:href="#m78a17055f8" x="615.238239" y="601.541875" style="stroke: #000000; stroke-width: 0.8"/>
      </g>
     </g>
     <g id="text_56">
      <!-- 60 -->
      <g transform="translate(609.217926 616.193438) scale(0.1 -0.1)">
       <use xlink:href="#DejaVuSansMono-36"/>
       <use xlink:href="#DejaVuSansMono-30" x="60.205078"/>
      </g>
     </g>
    </g>
    <g id="xtick_25">
     <g id="line2d_98">
      <path d="M 658.995814 601.541875 
L 658.995814 340.981875 
" clip-path="url(#p04911bc3e9)" style="fill: none; stroke-dasharray: 2.22,0.96; stroke-dashoffset: 0; stroke: #6c6066; stroke-opacity: 0.4; stroke-width: 0.6"/>
     </g>
     <g id="line2d_99">
      <g>
       <use xlink:href="#m78a17055f8" x="658.995814" y="601.541875" style="stroke: #000000; stroke-width: 0.8"/>
      </g>
     </g>
     <g id="text_57">
      <!-- 80 -->
      <g transform="translate(652.975502 616.193438) scale(0.1 -0.1)">
       <use xlink:href="#DejaVuSansMono-38"/>
       <use xlink:href="#DejaVuSansMono-30" x="60.205078"/>
      </g>
     </g>
    </g>
    <g id="xtick_26">
     <g id="line2d_100">
      <path d="M 702.75339 601.541875 
L 702.75339 340.981875 
" clip-path="url(#p04911bc3e9)" style="fill: none; stroke-dasharray: 2.22,0.96; stroke-dashoffset: 0; stroke: #6c6066; stroke-opacity: 0.4; stroke-width: 0.6"/>
     </g>
     <g id="line2d_101">
      <g>
       <use xlink:href="#m78a17055f8" x="702.75339" y="601.541875" style="stroke: #000000; stroke-width: 0.8"/>
      </g>
     </g>
     <g id="text_58">
      <!-- 100 -->
      <g transform="translate(693.722921 616.193438) scale(0.1 -0.1)">
       <use xlink:href="#DejaVuSansMono-31"/>
       <use xlink:href="#DejaVuSansMono-30" x="60.205078"/>
       <use xlink:href="#DejaVuSansMono-30" x="120.410156"/>
      </g>
     </g>
    </g>
    <g id="xtick_27">
     <g id="line2d_102">
      <path d="M 746.510966 601.541875 
L 746.510966 340.981875 
" clip-path="url(#p04911bc3e9)" style="fill: none; stroke-dasharray: 2.22,0.96; stroke-dashoffset: 0; stroke: #6c6066; stroke-opacity: 0.4; stroke-width: 0.6"/>
     </g>
     <g id="line2d_103">
      <g>
       <use xlink:href="#m78a17055f8" x="746.510966" y="601.541875" style="stroke: #000000; stroke-width: 0.8"/>
      </g>
     </g>
     <g id="text_59">
      <!-- 120 -->
      <g transform="translate(737.480497 616.193438) scale(0.1 -0.1)">
       <use xlink:href="#DejaVuSansMono-31"/>
       <use xlink:href="#DejaVuSansMono-32" x="60.205078"/>
       <use xlink:href="#DejaVuSansMono-30" x="120.410156"/>
      </g>
     </g>
    </g>
    <g id="xtick_28">
     <g id="line2d_104">
      <path d="M 790.268542 601.541875 
L 790.268542 340.981875 
" clip-path="url(#p04911bc3e9)" style="fill: none; stroke-dasharray: 2.22,0.96; stroke-dashoffset: 0; stroke: #6c6066; stroke-opacity: 0.4; stroke-width: 0.6"/>
     </g>
     <g id="line2d_105">
      <g>
       <use xlink:href="#m78a17055f8" x="790.268542" y="601.541875" style="stroke: #000000; stroke-width: 0.8"/>
      </g>
     </g>
     <g id="text_60">
      <!-- 140 -->
      <g transform="translate(781.238073 616.193438) scale(0.1 -0.1)">
       <use xlink:href="#DejaVuSansMono-31"/>
       <use xlink:href="#DejaVuSansMono-34" x="60.205078"/>
       <use xlink:href="#DejaVuSansMono-30" x="120.410156"/>
      </g>
     </g>
    </g>
    <g id="xtick_29">
     <g id="line2d_106">
      <path d="M 834.026117 601.541875 
L 834.026117 340.981875 
" clip-path="url(#p04911bc3e9)" style="fill: none; stroke-dasharray: 2.22,0.96; stroke-dashoffset: 0; stroke: #6c6066; stroke-opacity: 0.4; stroke-width: 0.6"/>
     </g>
     <g id="line2d_107">
      <g>
       <use xlink:href="#m78a17055f8" x="834.026117" y="601.541875" style="stroke: #000000; stroke-width: 0.8"/>
      </g>
     </g>
     <g id="text_61">
      <!-- 160 -->
      <g transform="translate(824.995649 616.193438) scale(0.1 -0.1)">
       <use xlink:href="#DejaVuSansMono-31"/>
       <use xlink:href="#DejaVuSansMono-36" x="60.205078"/>
       <use xlink:href="#DejaVuSansMono-30" x="120.410156"/>
      </g>
     </g>
    </g>
    <g id="text_62">
     <!-- gradient steps -->
     <g transform="translate(615.759688 629.871562) scale(0.1 -0.1)">
      <use xlink:href="#DejaVuSansMono-67"/>
      <use xlink:href="#DejaVuSansMono-72" x="60.205078"/>
      <use xlink:href="#DejaVuSansMono-61" x="120.410156"/>
      <use xlink:href="#DejaVuSansMono-64" x="180.615234"/>
      <use xlink:href="#DejaVuSansMono-69" x="240.820312"/>
      <use xlink:href="#DejaVuSansMono-65" x="301.025391"/>
      <use xlink:href="#DejaVuSansMono-6e" x="361.230469"/>
      <use xlink:href="#DejaVuSansMono-74" x="421.435547"/>
      <use xlink:href="#DejaVuSansMono-20" x="481.640625"/>
      <use xlink:href="#DejaVuSansMono-73" x="541.845703"/>
      <use xlink:href="#DejaVuSansMono-74" x="602.050781"/>
      <use xlink:href="#DejaVuSansMono-65" x="662.255859"/>
      <use xlink:href="#DejaVuSansMono-70" x="722.460938"/>
      <use xlink:href="#DejaVuSansMono-73" x="782.666016"/>
     </g>
    </g>
   </g>
   <g id="matplotlib.axis_8">
    <g id="ytick_24">
     <g id="line2d_108">
      <path d="M 466.571875 589.903816 
L 849.231875 589.903816 
" clip-path="url(#p04911bc3e9)" style="fill: none; stroke-dasharray: 2.22,0.96; stroke-dashoffset: 0; stroke: #6c6066; stroke-opacity: 0.4; stroke-width: 0.6"/>
     </g>
     <g id="line2d_109">
      <g>
       <use xlink:href="#m7da44d42ba" x="466.571875" y="589.903816" style="stroke: #000000; stroke-width: 0.8"/>
      </g>
     </g>
     <g id="text_63">
      <!-- 0 -->
      <g transform="translate(453.551563 593.729597) scale(0.1 -0.1)">
       <use xlink:href="#DejaVuSansMono-30"/>
      </g>
     </g>
    </g>
    <g id="ytick_25">
     <g id="line2d_110">
      <path d="M 466.571875 549.132242 
L 849.231875 549.132242 
" clip-path="url(#p04911bc3e9)" style="fill: none; stroke-dasharray: 2.22,0.96; stroke-dashoffset: 0; stroke: #6c6066; stroke-opacity: 0.4; stroke-width: 0.6"/>
     </g>
     <g id="line2d_111">
      <g>
       <use xlink:href="#m7da44d42ba" x="466.571875" y="549.132242" style="stroke: #000000; stroke-width: 0.8"/>
      </g>
     </g>
     <g id="text_64">
      <!-- 2 -->
      <g transform="translate(453.551563 552.958024) scale(0.1 -0.1)">
       <use xlink:href="#DejaVuSansMono-32"/>
      </g>
     </g>
    </g>
    <g id="ytick_26">
     <g id="line2d_112">
      <path d="M 466.571875 508.360669 
L 849.231875 508.360669 
" clip-path="url(#p04911bc3e9)" style="fill: none; stroke-dasharray: 2.22,0.96; stroke-dashoffset: 0; stroke: #6c6066; stroke-opacity: 0.4; stroke-width: 0.6"/>
     </g>
     <g id="line2d_113">
      <g>
       <use xlink:href="#m7da44d42ba" x="466.571875" y="508.360669" style="stroke: #000000; stroke-width: 0.8"/>
      </g>
     </g>
     <g id="text_65">
      <!-- 4 -->
      <g transform="translate(453.551563 512.18645) scale(0.1 -0.1)">
       <use xlink:href="#DejaVuSansMono-34"/>
      </g>
     </g>
    </g>
    <g id="ytick_27">
     <g id="line2d_114">
      <path d="M 466.571875 467.589095 
L 849.231875 467.589095 
" clip-path="url(#p04911bc3e9)" style="fill: none; stroke-dasharray: 2.22,0.96; stroke-dashoffset: 0; stroke: #6c6066; stroke-opacity: 0.4; stroke-width: 0.6"/>
     </g>
     <g id="line2d_115">
      <g>
       <use xlink:href="#m7da44d42ba" x="466.571875" y="467.589095" style="stroke: #000000; stroke-width: 0.8"/>
      </g>
     </g>
     <g id="text_66">
      <!-- 6 -->
      <g transform="translate(453.551563 471.414876) scale(0.1 -0.1)">
       <use xlink:href="#DejaVuSansMono-36"/>
      </g>
     </g>
    </g>
    <g id="ytick_28">
     <g id="line2d_116">
      <path d="M 466.571875 426.817521 
L 849.231875 426.817521 
" clip-path="url(#p04911bc3e9)" style="fill: none; stroke-dasharray: 2.22,0.96; stroke-dashoffset: 0; stroke: #6c6066; stroke-opacity: 0.4; stroke-width: 0.6"/>
     </g>
     <g id="line2d_117">
      <g>
       <use xlink:href="#m7da44d42ba" x="466.571875" y="426.817521" style="stroke: #000000; stroke-width: 0.8"/>
      </g>
     </g>
     <g id="text_67">
      <!-- 8 -->
      <g transform="translate(453.551563 430.643303) scale(0.1 -0.1)">
       <use xlink:href="#DejaVuSansMono-38"/>
      </g>
     </g>
    </g>
    <g id="ytick_29">
     <g id="line2d_118">
      <path d="M 466.571875 386.045948 
L 849.231875 386.045948 
" clip-path="url(#p04911bc3e9)" style="fill: none; stroke-dasharray: 2.22,0.96; stroke-dashoffset: 0; stroke: #6c6066; stroke-opacity: 0.4; stroke-width: 0.6"/>
     </g>
     <g id="line2d_119">
      <g>
       <use xlink:href="#m7da44d42ba" x="466.571875" y="386.045948" style="stroke: #000000; stroke-width: 0.8"/>
      </g>
     </g>
     <g id="text_68">
      <!-- 10 -->
      <g transform="translate(447.53125 389.871729) scale(0.1 -0.1)">
       <use xlink:href="#DejaVuSansMono-31"/>
       <use xlink:href="#DejaVuSansMono-30" x="60.205078"/>
      </g>
     </g>
    </g>
    <g id="ytick_30">
     <g id="line2d_120">
      <path d="M 466.571875 345.274374 
L 849.231875 345.274374 
" clip-path="url(#p04911bc3e9)" style="fill: none; stroke-dasharray: 2.22,0.96; stroke-dashoffset: 0; stroke: #6c6066; stroke-opacity: 0.4; stroke-width: 0.6"/>
     </g>
     <g id="line2d_121">
      <g>
       <use xlink:href="#m7da44d42ba" x="466.571875" y="345.274374" style="stroke: #000000; stroke-width: 0.8"/>
      </g>
     </g>
     <g id="text_69">
      <!-- 12 -->
      <g transform="translate(447.53125 349.100155) scale(0.1 -0.1)">
       <use xlink:href="#DejaVuSansMono-31"/>
       <use xlink:href="#DejaVuSansMono-32" x="60.205078"/>
      </g>
     </g>
    </g>
    <g id="text_70">
     <!-- objective -->
     <g transform="translate(441.451563 498.353281) rotate(-90) scale(0.1 -0.1)">
      <use xlink:href="#DejaVuSansMono-6f"/>
      <use xlink:href="#DejaVuSansMono-62" x="60.205078"/>
      <use xlink:href="#DejaVuSansMono-6a" x="120.410156"/>
      <use xlink:href="#DejaVuSansMono-65" x="180.615234"/>
      <use xlink:href="#DejaVuSansMono-63" x="240.820312"/>
      <use xlink:href="#DejaVuSansMono-74" x="301.025391"/>
      <use xlink:href="#DejaVuSansMono-69" x="361.230469"/>
      <use xlink:href="#DejaVuSansMono-76" x="421.435547"/>
      <use xlink:href="#DejaVuSansMono-65" x="481.640625"/>
     </g>
    </g>
   </g>
   <g id="line2d_122">
    <path d="M 483.965511 502.24211 
L 486.15339 400.83576 
L 488.341269 444.373836 
L 490.529148 423.893185 
L 492.717027 551.841404 
L 494.904905 530.640203 
L 497.092784 556.196232 
L 499.280663 469.629966 
L 501.468542 458.494009 
L 503.65642 551.324618 
L 505.844299 517.280758 
L 508.032178 561.856013 
L 510.220057 541.646015 
L 512.407936 556.342992 
L 514.595814 502.560793 
L 516.783693 562.191496 
L 518.971572 582.019297 
L 521.159451 542.297472 
L 523.34733 541.656207 
L 525.535208 581.937214 
L 527.723087 524.408884 
L 529.910966 587.990801 
L 532.098845 563.38068 
L 534.286723 363.336622 
L 536.474602 573.788436 
L 538.662481 588.680168 
L 540.85036 518.543666 
L 543.038239 411.726153 
L 545.226117 587.746673 
L 547.413996 553.625026 
L 549.601875 581.708805 
L 551.789754 541.311564 
L 553.977633 538.79992 
L 556.165511 509.924258 
L 558.35339 586.355726 
L 560.541269 534.087718 
L 562.729148 352.825511 
L 564.917027 400.864592 
L 567.104905 463.483149 
L 569.292784 571.549189 
L 571.480663 582.582297 
L 573.668542 566.661983 
L 575.85642 557.577893 
L 578.044299 525.156231 
L 580.232178 589.698239 
L 582.420057 527.397776 
L 584.607936 525.740718 
L 586.795814 531.41924 
L 588.983693 481.661763 
L 591.171572 532.406703 
L 593.359451 564.043416 
L 595.54733 535.519101 
L 597.735208 542.712696 
L 599.923087 544.864286 
L 602.110966 576.912319 
L 604.298845 546.141051 
L 606.486723 560.55392 
L 608.674602 545.132082 
L 610.862481 515.489233 
L 613.05036 556.704085 
L 615.238239 538.024495 
L 617.426117 573.691267 
L 619.613996 443.921852 
L 621.801875 548.313429 
L 623.989754 552.876933 
L 626.177633 581.769173 
L 628.365511 570.211664 
L 630.55339 561.563159 
L 632.741269 556.004185 
L 634.929148 533.5172 
L 639.304905 584.122839 
L 641.492784 573.61555 
L 643.680663 586.733461 
L 645.868542 586.946388 
L 648.05642 540.973906 
L 650.244299 586.247802 
L 652.432178 576.375638 
L 654.620057 568.870837 
L 656.807936 589.481714 
L 658.995814 584.317994 
L 661.183693 559.58348 
L 663.371572 521.035544 
L 665.559451 580.291454 
L 667.74733 548.126014 
L 669.935208 580.152006 
L 672.123087 583.542329 
L 674.310966 539.99734 
L 676.498845 568.754225 
L 678.686723 398.229116 
L 680.874602 486.605779 
L 683.062481 507.674679 
L 685.25036 496.127196 
L 687.438239 583.101232 
L 689.626117 521.121125 
L 691.813996 585.35042 
L 694.001875 557.997495 
L 696.189754 522.908008 
L 698.377633 574.799366 
L 700.565511 537.159178 
L 702.75339 564.25226 
L 704.941269 565.609464 
L 707.129148 564.430346 
L 709.317027 582.284433 
L 711.504905 557.722686 
L 713.692784 474.031285 
L 715.880663 555.863725 
L 718.068542 534.134839 
L 720.25642 556.911063 
L 722.444299 539.676382 
L 724.632178 547.385841 
L 726.820057 580.19386 
L 729.007936 451.202725 
L 731.195814 413.975193 
L 733.383693 561.549983 
L 735.571572 582.700553 
L 737.759451 560.556007 
L 739.94733 545.057908 
L 742.135208 553.253472 
L 744.323087 572.26037 
L 746.510966 553.669297 
L 748.698845 552.354971 
L 750.886723 583.709079 
L 753.074602 566.082707 
L 755.262481 546.702475 
L 757.45036 545.009703 
L 759.638239 581.857781 
L 761.826117 559.116894 
L 764.013996 587.647375 
L 766.201875 528.021554 
L 768.389754 507.441528 
L 770.577633 569.482046 
L 772.765511 532.168191 
L 774.95339 581.86479 
L 777.141269 563.268564 
L 779.329148 565.320276 
L 781.517027 583.208735 
L 783.704905 573.463634 
L 785.892784 517.362271 
L 788.080663 587.824231 
L 790.268542 528.92693 
L 792.45642 527.717762 
L 794.644299 580.341093 
L 796.832178 573.341103 
L 799.020057 586.460284 
L 801.207936 524.999261 
L 803.395814 580.781639 
L 805.583693 547.924688 
L 807.771572 565.918381 
L 809.959451 501.538953 
L 812.14733 491.472195 
L 814.335208 580.511581 
L 816.523087 560.712693 
L 818.710966 561.977273 
L 820.898845 514.483748 
L 823.086723 522.979018 
L 825.274602 567.843772 
L 827.462481 465.133831 
L 829.65036 538.320621 
L 831.838239 539.270626 
L 831.838239 539.270626 
" clip-path="url(#p04911bc3e9)" style="fill: none; stroke: #486afb; stroke-width: 2; stroke-linecap: square"/>
   </g>
   <g id="patch_12">
    <path d="M 466.571875 601.541875 
L 466.571875 340.981875 
" style="fill: none; stroke: #000000; stroke-width: 0.6; stroke-linejoin: miter; stroke-linecap: square"/>
   </g>
   <g id="patch_13">
    <path d="M 466.571875 601.541875 
L 849.231875 601.541875 
" style="fill: none; stroke: #000000; stroke-width: 0.6; stroke-linejoin: miter; stroke-linecap: square"/>
   </g>
   <g id="text_71">
    <!-- $\alpha=0.03$ -->
    <g transform="translate(633.181875 334.981875) scale(0.12 -0.12)">
     <use xlink:href="#DejaVuSans-Oblique-3b1" transform="translate(0 0.78125)"/>
     <use xlink:href="#DejaVuSans-3d" transform="translate(85.400391 0.78125)"/>
     <use xlink:href="#DejaVuSans-30" transform="translate(188.671875 0.78125)"/>
     <use xlink:href="#DejaVuSans-2e" transform="translate(252.294922 0.78125)"/>
     <use xlink:href="#DejaVuSans-30" transform="translate(284.082031 0.78125)"/>
     <use xlink:href="#DejaVuSans-33" transform="translate(347.705078 0.78125)"/>
    </g>
   </g>
  </g>
 </g>
 <defs>
  <clipPath id="p4804d78a61">
   <rect x="39.971875" y="22.381875" width="382.66" height="260.56"/>
  </clipPath>
  <clipPath id="p2ce25f0e11">
   <rect x="466.571875" y="22.381875" width="382.66" height="260.56"/>
  </clipPath>
  <clipPath id="pa94efdaf3b">
   <rect x="39.971875" y="340.981875" width="382.66" height="260.56"/>
  </clipPath>
  <clipPath id="p04911bc3e9">
   <rect x="466.571875" y="340.981875" width="382.66" height="260.56"/>
  </clipPath>
 </defs>
</svg>