<?xml version="1.0" encoding="utf-8" standalone="no"?>
<!DOCTYPE svg PUBLIC "-//W3C//DTD SVG 1.1//EN"
  "http://www.w3.org/Graphics/SVG/1.1/DTD/svg11.dtd">
<svg xmlns:xlink="http://www.w3.org/1999/xlink" width="712.8pt" height="205.2225pt" viewBox="0 0 712.8 205.2225" xmlns="http://www.w3.org/2000/svg" version="1.1">
 <metadata>
  <rdf:RDF xmlns:dc="http://purl.org/dc/elements/1.1/" xmlns:cc="http://creativecommons.org/ns#" xmlns:rdf="http://www.w3.org/1999/02/22-rdf-syntax-ns#">
   <cc:Work>
    <dc:type rdf:resource="http://purl.org/dc/dcmitype/StillImage"/>
    <dc:date>2023-11-02T17:54:23.262150</dc:date>
    <dc:format>image/svg+xml</dc:format>
    <dc:creator>
     <cc:Agent>
      <dc:title>Matplotlib v3.8.0, https://matplotlib.org/</dc:title>
     </cc:Agent>
    </dc:creator>
   </cc:Work>
  </rdf:RDF>
 </metadata>
 <defs>
  <style type="text/css">*{stroke-linejoin: round; stroke-linecap: butt}</style>
 </defs>
 <g id="figure_1">
  <g id="patch_1">
   <path d="M 0 205.2225 
L 712.8 205.2225 
L 712.8 0 
L 0 0 
z
" style="fill: #ffffff"/>
  </g>
  <g id="axes_1">
   <g id="patch_2">
    <path d="M 10.7 167.56 
L 705.6 167.56 
L 705.6 7.2 
L 10.7 7.2 
z
" style="fill: #ffffff"/>
   </g>
   <g id="PolyCollection_1">
    <defs>
     <path id="m35d9e82edc" d="M 42.286364 -117.825724 
L 42.286364 -117.859276 
L 48.667447 -117.872319 
L 55.048531 -117.890912 
L 61.429614 -117.914398 
L 67.810698 -117.940397 
L 74.191781 -117.965122 
L 80.572865 -117.984498 
L 86.953949 -117.995632 
L 93.335032 -117.997877 
L 99.716116 -117.992906 
L 106.097199 -117.983826 
L 112.478283 -117.973932 
L 118.859366 -117.965793 
L 125.24045 -117.960989 
L 131.621534 -117.960365 
L 138.002617 -117.964411 
L 144.383701 -117.973445 
L 150.764784 -117.987532 
L 157.145868 -118.006247 
L 163.526951 -118.028557 
L 169.908035 -118.053091 
L 176.289118 -118.078875 
L 182.670202 -118.106299 
L 189.051286 -118.138017 
L 195.432369 -118.179684 
L 201.813453 -118.241094 
L 208.194536 -118.339209 
L 214.57562 -118.505728 
L 220.956703 -118.803124 
L 227.337787 -119.352686 
L 233.718871 -120.372722 
L 240.099954 -122.211128 
L 246.481038 -125.337156 
L 252.862121 -130.247712 
L 259.243205 -137.267273 
L 265.624288 -146.287188 
L 272.005372 -156.569878 
L 278.386455 -166.770047 
L 284.767539 -175.245132 
L 291.148623 -180.564352 
L 297.529706 -181.9865 
L 303.91079 -179.672204 
L 310.291873 -174.541796 
L 316.672957 -167.88354 
L 323.05404 -160.925524 
L 329.435124 -154.551138 
L 335.816208 -149.215067 
L 342.197291 -145.005343 
L 348.578375 -141.762257 
L 354.959458 -139.197336 
L 361.340542 -136.99965 
L 367.721625 -134.929227 
L 374.102709 -132.882026 
L 380.483792 -130.902036 
L 386.864876 -129.134901 
L 393.24596 -127.749692 
L 399.627043 -126.870626 
L 406.008127 -126.546891 
L 412.38921 -126.761251 
L 418.770294 -127.457446 
L 425.151377 -128.560016 
L 431.532461 -129.966733 
L 437.913545 -131.513228 
L 444.294628 -132.938267 
L 450.675712 -133.896384 
L 457.056795 -134.046345 
L 463.437879 -133.188899 
L 469.818962 -131.376286 
L 476.200046 -128.918208 
L 482.581129 -126.270942 
L 488.962213 -123.870167 
L 495.343297 -121.996258 
L 501.72438 -120.728189 
L 508.105464 -119.983243 
L 514.486547 -119.59932 
L 520.867631 -119.412909 
L 527.248714 -119.306187 
L 533.629798 -119.219819 
L 540.010882 -119.141714 
L 546.391965 -119.085374 
L 552.773049 -119.068619 
L 559.154132 -119.098436 
L 565.535216 -119.16374 
L 571.916299 -119.236084 
L 578.297383 -119.277807 
L 584.678466 -119.255359 
L 591.05955 -119.152611 
L 597.440634 -118.977551 
L 603.821717 -118.758545 
L 610.202801 -118.532269 
L 616.583884 -118.330083 
L 622.964968 -118.169566 
L 629.346051 -118.05375 
L 635.727135 -117.975914 
L 642.108219 -117.925773 
L 648.489302 -117.893928 
L 654.870386 -117.873642 
L 661.251469 -117.860715 
L 667.632553 -117.852633 
L 674.013636 -117.847792 
L 674.013636 -117.837208 
L 674.013636 -117.837208 
L 667.632553 -117.832367 
L 661.251469 -117.824285 
L 654.870386 -117.811358 
L 648.489302 -117.791072 
L 642.108219 -117.759227 
L 635.727135 -117.709086 
L 629.346051 -117.63125 
L 622.964968 -117.515434 
L 616.583884 -117.354917 
L 610.202801 -117.152731 
L 603.821717 -116.926455 
L 597.440634 -116.707449 
L 591.05955 -116.532389 
L 584.678466 -116.429641 
L 578.297383 -116.407193 
L 571.916299 -116.448916 
L 565.535216 -116.52126 
L 559.154132 -116.586564 
L 552.773049 -116.616381 
L 546.391965 -116.599626 
L 540.010882 -116.543286 
L 533.629798 -116.465181 
L 527.248714 -116.378813 
L 520.867631 -116.272091 
L 514.486547 -116.08568 
L 508.105464 -115.701757 
L 501.72438 -114.956811 
L 495.343297 -113.688742 
L 488.962213 -111.814833 
L 482.581129 -109.414058 
L 476.200046 -106.766792 
L 469.818962 -104.308714 
L 463.437879 -102.496101 
L 457.056795 -101.638655 
L 450.675712 -101.788616 
L 444.294628 -102.746733 
L 437.913545 -104.171772 
L 431.532461 -105.718267 
L 425.151377 -107.124984 
L 418.770294 -108.227554 
L 412.38921 -108.923749 
L 406.008127 -109.138109 
L 399.627043 -108.814374 
L 393.24596 -107.935308 
L 386.864876 -106.550099 
L 380.483792 -104.782964 
L 374.102709 -102.802974 
L 367.721625 -100.755773 
L 361.340542 -98.68535 
L 354.959458 -96.487664 
L 348.578375 -93.922743 
L 342.197291 -90.679657 
L 335.816208 -86.469933 
L 329.435124 -81.133862 
L 323.05404 -74.759476 
L 316.672957 -67.80146 
L 310.291873 -61.143204 
L 303.91079 -56.012796 
L 297.529706 -53.6985 
L 291.148623 -55.120648 
L 284.767539 -60.439868 
L 278.386455 -68.914953 
L 272.005372 -79.115122 
L 265.624288 -89.397812 
L 259.243205 -98.417727 
L 252.862121 -105.437288 
L 246.481038 -110.347844 
L 240.099954 -113.473872 
L 233.718871 -115.312278 
L 227.337787 -116.332314 
L 220.956703 -116.881876 
L 214.57562 -117.179272 
L 208.194536 -117.345791 
L 201.813453 -117.443906 
L 195.432369 -117.505316 
L 189.051286 -117.546983 
L 182.670202 -117.578701 
L 176.289118 -117.606125 
L 169.908035 -117.631909 
L 163.526951 -117.656443 
L 157.145868 -117.678753 
L 150.764784 -117.697468 
L 144.383701 -117.711555 
L 138.002617 -117.720589 
L 131.621534 -117.724635 
L 125.24045 -117.724011 
L 118.859366 -117.719207 
L 112.478283 -117.711068 
L 106.097199 -117.701174 
L 99.716116 -117.692094 
L 93.335032 -117.687123 
L 86.953949 -117.689368 
L 80.572865 -117.700502 
L 74.191781 -117.719878 
L 67.810698 -117.744603 
L 61.429614 -117.770602 
L 55.048531 -117.794088 
L 48.667447 -117.812681 
L 42.286364 -117.825724 
z
" style="stroke: #616161; stroke-width: 0.25"/>
    </defs>
    <g clip-path="url(#p7add770565)">
     <use xlink:href="#m35d9e82edc" x="0" y="205.2225" style="fill: #5e78e5; stroke: #616161; stroke-width: 0.25"/>
    </g>
   </g>
   <g id="matplotlib.axis_1">
    <g id="xtick_1">
     <g id="line2d_1">
      <path d="M 36.893535 167.56 
L 36.893535 7.2 
" clip-path="url(#p7add770565)" style="fill: none; stroke-dasharray: 2.22,0.96; stroke-dashoffset: 0; stroke: #6c6066; stroke-opacity: 0.4; stroke-width: 0.6"/>
     </g>
     <g id="line2d_2">
      <defs>
       <path id="m26b9177fcf" d="M 0 0 
L 0 3.5 
" style="stroke: #000000; stroke-width: 0.8"/>
      </defs>
      <g>
       <use xlink:href="#m26b9177fcf" x="36.893535" y="167.56" style="stroke: #000000; stroke-width: 0.8"/>
      </g>
     </g>
     <g id="text_1">
      <!-- −15 -->
      <g transform="translate(27.863066 182.211562) scale(0.1 -0.1)">
       <defs>
        <path id="DejaVuSansMono-2212" d="M 275 2272 
L 3578 2272 
L 3578 1741 
L 275 1741 
L 275 2272 
z
" transform="scale(0.015625)"/>
        <path id="DejaVuSansMono-31" d="M 844 531 
L 1825 531 
L 1825 4097 
L 769 3859 
L 769 4434 
L 1819 4666 
L 2450 4666 
L 2450 531 
L 3419 531 
L 3419 0 
L 844 0 
L 844 531 
z
" transform="scale(0.015625)"/>
        <path id="DejaVuSansMono-35" d="M 647 4666 
L 3009 4666 
L 3009 4134 
L 1222 4134 
L 1222 2988 
Q 1356 3038 1492 3061 
Q 1628 3084 1766 3084 
Q 2491 3084 2916 2656 
Q 3341 2228 3341 1497 
Q 3341 759 2895 334 
Q 2450 -91 1678 -91 
Q 1306 -91 998 -41 
Q 691 9 447 109 
L 447 750 
Q 734 594 1025 517 
Q 1316 441 1619 441 
Q 2141 441 2423 716 
Q 2706 991 2706 1497 
Q 2706 1997 2414 2275 
Q 2122 2553 1600 2553 
Q 1347 2553 1106 2495 
Q 866 2438 647 2322 
L 647 4666 
z
" transform="scale(0.015625)"/>
       </defs>
       <use xlink:href="#DejaVuSansMono-2212"/>
       <use xlink:href="#DejaVuSansMono-31" x="60.205078"/>
       <use xlink:href="#DejaVuSansMono-35" x="120.410156"/>
      </g>
     </g>
    </g>
    <g id="xtick_2">
     <g id="line2d_3">
      <path d="M 115.248771 167.56 
L 115.248771 7.2 
" clip-path="url(#p7add770565)" style="fill: none; stroke-dasharray: 2.22,0.96; stroke-dashoffset: 0; stroke: #6c6066; stroke-opacity: 0.4; stroke-width: 0.6"/>
     </g>
     <g id="line2d_4">
      <g>
       <use xlink:href="#m26b9177fcf" x="115.248771" y="167.56" style="stroke: #000000; stroke-width: 0.8"/>
      </g>
     </g>
     <g id="text_2">
      <!-- −10 -->
      <g transform="translate(106.218302 182.211562) scale(0.1 -0.1)">
       <defs>
        <path id="DejaVuSansMono-30" d="M 1509 2344 
Q 1509 2516 1629 2641 
Q 1750 2766 1919 2766 
Q 2094 2766 2219 2641 
Q 2344 2516 2344 2344 
Q 2344 2169 2220 2047 
Q 2097 1925 1919 1925 
Q 1744 1925 1626 2044 
Q 1509 2163 1509 2344 
z
M 1925 4250 
Q 1484 4250 1267 3775 
Q 1050 3300 1050 2328 
Q 1050 1359 1267 884 
Q 1484 409 1925 409 
Q 2369 409 2586 884 
Q 2803 1359 2803 2328 
Q 2803 3300 2586 3775 
Q 2369 4250 1925 4250 
z
M 1925 4750 
Q 2672 4750 3055 4137 
Q 3438 3525 3438 2328 
Q 3438 1134 3055 521 
Q 2672 -91 1925 -91 
Q 1178 -91 797 521 
Q 416 1134 416 2328 
Q 416 3525 797 4137 
Q 1178 4750 1925 4750 
z
" transform="scale(0.015625)"/>
       </defs>
       <use xlink:href="#DejaVuSansMono-2212"/>
       <use xlink:href="#DejaVuSansMono-31" x="60.205078"/>
       <use xlink:href="#DejaVuSansMono-30" x="120.410156"/>
      </g>
     </g>
    </g>
    <g id="xtick_3">
     <g id="line2d_5">
      <path d="M 193.604006 167.56 
L 193.604006 7.2 
" clip-path="url(#p7add770565)" style="fill: none; stroke-dasharray: 2.22,0.96; stroke-dashoffset: 0; stroke: #6c6066; stroke-opacity: 0.4; stroke-width: 0.6"/>
     </g>
     <g id="line2d_6">
      <g>
       <use xlink:href="#m26b9177fcf" x="193.604006" y="167.56" style="stroke: #000000; stroke-width: 0.8"/>
      </g>
     </g>
     <g id="text_3">
      <!-- −5 -->
      <g transform="translate(187.583693 182.211562) scale(0.1 -0.1)">
       <use xlink:href="#DejaVuSansMono-2212"/>
       <use xlink:href="#DejaVuSansMono-35" x="60.205078"/>
      </g>
     </g>
    </g>
    <g id="xtick_4">
     <g id="line2d_7">
      <path d="M 271.959241 167.56 
L 271.959241 7.2 
" clip-path="url(#p7add770565)" style="fill: none; stroke-dasharray: 2.22,0.96; stroke-dashoffset: 0; stroke: #6c6066; stroke-opacity: 0.4; stroke-width: 0.6"/>
     </g>
     <g id="line2d_8">
      <g>
       <use xlink:href="#m26b9177fcf" x="271.959241" y="167.56" style="stroke: #000000; stroke-width: 0.8"/>
      </g>
     </g>
     <g id="text_4">
      <!-- 0 -->
      <g transform="translate(268.949085 182.211562) scale(0.1 -0.1)">
       <use xlink:href="#DejaVuSansMono-30"/>
      </g>
     </g>
    </g>
    <g id="xtick_5">
     <g id="line2d_9">
      <path d="M 350.314476 167.56 
L 350.314476 7.2 
" clip-path="url(#p7add770565)" style="fill: none; stroke-dasharray: 2.22,0.96; stroke-dashoffset: 0; stroke: #6c6066; stroke-opacity: 0.4; stroke-width: 0.6"/>
     </g>
     <g id="line2d_10">
      <g>
       <use xlink:href="#m26b9177fcf" x="350.314476" y="167.56" style="stroke: #000000; stroke-width: 0.8"/>
      </g>
     </g>
     <g id="text_5">
      <!-- 5 -->
      <g transform="translate(347.30432 182.211562) scale(0.1 -0.1)">
       <use xlink:href="#DejaVuSansMono-35"/>
      </g>
     </g>
    </g>
    <g id="xtick_6">
     <g id="line2d_11">
      <path d="M 428.669712 167.56 
L 428.669712 7.2 
" clip-path="url(#p7add770565)" style="fill: none; stroke-dasharray: 2.22,0.96; stroke-dashoffset: 0; stroke: #6c6066; stroke-opacity: 0.4; stroke-width: 0.6"/>
     </g>
     <g id="line2d_12">
      <g>
       <use xlink:href="#m26b9177fcf" x="428.669712" y="167.56" style="stroke: #000000; stroke-width: 0.8"/>
      </g>
     </g>
     <g id="text_6">
      <!-- 10 -->
      <g transform="translate(422.649399 182.211562) scale(0.1 -0.1)">
       <use xlink:href="#DejaVuSansMono-31"/>
       <use xlink:href="#DejaVuSansMono-30" x="60.205078"/>
      </g>
     </g>
    </g>
    <g id="xtick_7">
     <g id="line2d_13">
      <path d="M 507.024947 167.56 
L 507.024947 7.2 
" clip-path="url(#p7add770565)" style="fill: none; stroke-dasharray: 2.22,0.96; stroke-dashoffset: 0; stroke: #6c6066; stroke-opacity: 0.4; stroke-width: 0.6"/>
     </g>
     <g id="line2d_14">
      <g>
       <use xlink:href="#m26b9177fcf" x="507.024947" y="167.56" style="stroke: #000000; stroke-width: 0.8"/>
      </g>
     </g>
     <g id="text_7">
      <!-- 15 -->
      <g transform="translate(501.004635 182.211562) scale(0.1 -0.1)">
       <use xlink:href="#DejaVuSansMono-31"/>
       <use xlink:href="#DejaVuSansMono-35" x="60.205078"/>
      </g>
     </g>
    </g>
    <g id="xtick_8">
     <g id="line2d_15">
      <path d="M 585.380182 167.56 
L 585.380182 7.2 
" clip-path="url(#p7add770565)" style="fill: none; stroke-dasharray: 2.22,0.96; stroke-dashoffset: 0; stroke: #6c6066; stroke-opacity: 0.4; stroke-width: 0.6"/>
     </g>
     <g id="line2d_16">
      <g>
       <use xlink:href="#m26b9177fcf" x="585.380182" y="167.56" style="stroke: #000000; stroke-width: 0.8"/>
      </g>
     </g>
     <g id="text_8">
      <!-- 20 -->
      <g transform="translate(579.35987 182.211562) scale(0.1 -0.1)">
       <defs>
        <path id="DejaVuSansMono-32" d="M 1166 531 
L 3309 531 
L 3309 0 
L 475 0 
L 475 531 
Q 1059 1147 1496 1619 
Q 1934 2091 2100 2284 
Q 2413 2666 2522 2902 
Q 2631 3138 2631 3384 
Q 2631 3775 2401 3997 
Q 2172 4219 1772 4219 
Q 1488 4219 1175 4116 
Q 863 4013 513 3803 
L 513 4441 
Q 834 4594 1145 4672 
Q 1456 4750 1759 4750 
Q 2444 4750 2861 4386 
Q 3278 4022 3278 3431 
Q 3278 3131 3139 2831 
Q 3000 2531 2688 2169 
Q 2513 1966 2180 1606 
Q 1847 1247 1166 531 
z
" transform="scale(0.015625)"/>
       </defs>
       <use xlink:href="#DejaVuSansMono-32"/>
       <use xlink:href="#DejaVuSansMono-30" x="60.205078"/>
      </g>
     </g>
    </g>
    <g id="xtick_9">
     <g id="line2d_17">
      <path d="M 663.735418 167.56 
L 663.735418 7.2 
" clip-path="url(#p7add770565)" style="fill: none; stroke-dasharray: 2.22,0.96; stroke-dashoffset: 0; stroke: #6c6066; stroke-opacity: 0.4; stroke-width: 0.6"/>
     </g>
     <g id="line2d_18">
      <g>
       <use xlink:href="#m26b9177fcf" x="663.735418" y="167.56" style="stroke: #000000; stroke-width: 0.8"/>
      </g>
     </g>
     <g id="text_9">
      <!-- 25 -->
      <g transform="translate(657.715105 182.211562) scale(0.1 -0.1)">
       <use xlink:href="#DejaVuSansMono-32"/>
       <use xlink:href="#DejaVuSansMono-35" x="60.205078"/>
      </g>
     </g>
    </g>
    <g id="text_10">
     <!-- $x=$quantity -->
     <g transform="translate(324.95 195.9225) scale(0.1 -0.1)">
      <defs>
       <path id="DejaVuSans-Oblique-78" d="M 3841 3500 
L 2234 1784 
L 3219 0 
L 2559 0 
L 1819 1388 
L 531 0 
L -166 0 
L 1556 1844 
L 641 3500 
L 1300 3500 
L 1972 2234 
L 3144 3500 
L 3841 3500 
z
" transform="scale(0.015625)"/>
       <path id="DejaVuSans-3d" d="M 678 2906 
L 4684 2906 
L 4684 2381 
L 678 2381 
L 678 2906 
z
M 678 1631 
L 4684 1631 
L 4684 1100 
L 678 1100 
L 678 1631 
z
" transform="scale(0.015625)"/>
       <path id="DejaVuSansMono-71" d="M 1038 1734 
Q 1038 1066 1248 725 
Q 1459 384 1875 384 
Q 2291 384 2505 726 
Q 2719 1069 2719 1734 
Q 2719 2400 2505 2742 
Q 2291 3084 1875 3084 
Q 1459 3084 1248 2743 
Q 1038 2403 1038 1734 
z
M 2719 434 
Q 2578 175 2339 36 
Q 2100 -103 1784 -103 
Q 1156 -103 792 383 
Q 428 869 428 1722 
Q 428 2591 790 3081 
Q 1153 3572 1784 3572 
Q 2097 3572 2336 3436 
Q 2575 3300 2719 3041 
L 2719 3488 
L 3297 3488 
L 3297 -1344 
L 2719 -1344 
L 2719 434 
z
" transform="scale(0.015625)"/>
       <path id="DejaVuSansMono-75" d="M 609 1325 
L 609 3494 
L 1184 3494 
L 1184 1325 
Q 1184 853 1351 631 
Q 1519 409 1869 409 
Q 2275 409 2490 695 
Q 2706 981 2706 1516 
L 2706 3494 
L 3284 3494 
L 3284 0 
L 2706 0 
L 2706 525 
Q 2553 222 2289 65 
Q 2025 -91 1672 -91 
Q 1134 -91 871 261 
Q 609 613 609 1325 
z
" transform="scale(0.015625)"/>
       <path id="DejaVuSansMono-61" d="M 2194 1759 
L 2003 1759 
Q 1500 1759 1245 1582 
Q 991 1406 991 1056 
Q 991 741 1181 566 
Q 1372 391 1709 391 
Q 2184 391 2456 720 
Q 2728 1050 2731 1631 
L 2731 1759 
L 2194 1759 
z
M 3309 1997 
L 3309 0 
L 2731 0 
L 2731 519 
Q 2547 206 2267 57 
Q 1988 -91 1588 -91 
Q 1053 -91 734 211 
Q 416 513 416 1019 
Q 416 1603 808 1906 
Q 1200 2209 1959 2209 
L 2731 2209 
L 2731 2300 
Q 2728 2719 2518 2908 
Q 2309 3097 1850 3097 
Q 1556 3097 1256 3012 
Q 956 2928 672 2766 
L 672 3341 
Q 991 3463 1283 3523 
Q 1575 3584 1850 3584 
Q 2284 3584 2592 3456 
Q 2900 3328 3091 3072 
Q 3209 2916 3259 2686 
Q 3309 2456 3309 1997 
z
" transform="scale(0.015625)"/>
       <path id="DejaVuSansMono-6e" d="M 3284 2169 
L 3284 0 
L 2706 0 
L 2706 2169 
Q 2706 2641 2540 2862 
Q 2375 3084 2022 3084 
Q 1619 3084 1401 2798 
Q 1184 2513 1184 1978 
L 1184 0 
L 609 0 
L 609 3500 
L 1184 3500 
L 1184 2975 
Q 1338 3275 1600 3429 
Q 1863 3584 2222 3584 
Q 2756 3584 3020 3232 
Q 3284 2881 3284 2169 
z
" transform="scale(0.015625)"/>
       <path id="DejaVuSansMono-74" d="M 1919 4494 
L 1919 3500 
L 3225 3500 
L 3225 3053 
L 1919 3053 
L 1919 1153 
Q 1919 766 2066 612 
Q 2213 459 2578 459 
L 3225 459 
L 3225 0 
L 2522 0 
Q 1875 0 1609 259 
Q 1344 519 1344 1153 
L 1344 3053 
L 409 3053 
L 409 3500 
L 1344 3500 
L 1344 4494 
L 1919 4494 
z
" transform="scale(0.015625)"/>
       <path id="DejaVuSansMono-69" d="M 800 3500 
L 2272 3500 
L 2272 447 
L 3413 447 
L 3413 0 
L 556 0 
L 556 447 
L 1697 447 
L 1697 3053 
L 800 3053 
L 800 3500 
z
M 1697 4863 
L 2272 4863 
L 2272 4134 
L 1697 4134 
L 1697 4863 
z
" transform="scale(0.015625)"/>
       <path id="DejaVuSansMono-79" d="M 2681 1125 
Q 2538 759 2316 163 
Q 2006 -663 1900 -844 
Q 1756 -1088 1540 -1209 
Q 1325 -1331 1038 -1331 
L 575 -1331 
L 575 -850 
L 916 -850 
Q 1169 -850 1312 -703 
Q 1456 -556 1678 56 
L 325 3500 
L 934 3500 
L 1972 763 
L 2994 3500 
L 3603 3500 
L 2681 1125 
z
" transform="scale(0.015625)"/>
      </defs>
      <use xlink:href="#DejaVuSans-Oblique-78" transform="translate(0 0.015625)"/>
      <use xlink:href="#DejaVuSans-3d" transform="translate(78.662109 0.015625)"/>
      <use xlink:href="#DejaVuSansMono-71" transform="translate(181.933594 0.015625)"/>
      <use xlink:href="#DejaVuSansMono-75" transform="translate(242.138672 0.015625)"/>
      <use xlink:href="#DejaVuSansMono-61" transform="translate(302.34375 0.015625)"/>
      <use xlink:href="#DejaVuSansMono-6e" transform="translate(362.548828 0.015625)"/>
      <use xlink:href="#DejaVuSansMono-74" transform="translate(422.753906 0.015625)"/>
      <use xlink:href="#DejaVuSansMono-69" transform="translate(482.958984 0.015625)"/>
      <use xlink:href="#DejaVuSansMono-74" transform="translate(543.164062 0.015625)"/>
      <use xlink:href="#DejaVuSansMono-79" transform="translate(603.369141 0.015625)"/>
     </g>
    </g>
   </g>
   <g id="matplotlib.axis_2">
    <g id="ytick_1">
     <g id="line2d_19">
      <defs>
       <path id="me510438c5f" d="M 0 0 
L -3.5 0 
" style="stroke: #000000; stroke-width: 0.8"/>
      </defs>
      <g>
       <use xlink:href="#me510438c5f" x="10.7" y="87.38" style="stroke: #000000; stroke-width: 0.8"/>
      </g>
     </g>
    </g>
   </g>
   <g id="line2d_20">
    <path d="M 177.932959 87.38 
L 475.682853 87.38 
" clip-path="url(#p7add770565)" style="fill: none; stroke: #616161; stroke-width: 0.375; stroke-linecap: square"/>
   </g>
   <g id="line2d_21">
    <path d="M 287.630288 87.38 
L 365.985524 87.38 
" clip-path="url(#p7add770565)" style="fill: none; stroke: #616161; stroke-width: 1.125; stroke-linecap: square"/>
   </g>
   <g id="line2d_22">
    <path d="M 303.301335 87.38 
" clip-path="url(#p7add770565)" style="fill: none; stroke: #616161; stroke-width: 2; stroke-linecap: square"/>
    <defs>
     <path id="m2107ba737f" d="M 0 0.46875 
L 0 -0.46875 
" style="stroke: #ffffff; stroke-width: 0.225"/>
    </defs>
    <g clip-path="url(#p7add770565)">
     <use xlink:href="#m2107ba737f" x="303.301335" y="87.38" style="fill: #ffffff; stroke: #ffffff; stroke-width: 0.225"/>
    </g>
   </g>
   <g id="patch_3">
    <path d="M 10.7 167.56 
L 10.7 7.2 
" style="fill: none; stroke: #000000; stroke-width: 0.6; stroke-linejoin: miter; stroke-linecap: square"/>
   </g>
   <g id="patch_4">
    <path d="M 10.7 167.56 
L 705.6 167.56 
" style="fill: none; stroke: #000000; stroke-width: 0.6; stroke-linejoin: miter; stroke-linecap: square"/>
   </g>
  </g>
 </g>
 <defs>
  <clipPath id="p7add770565">
   <rect x="10.7" y="7.2" width="694.9" height="160.36"/>
  </clipPath>
 </defs>
</svg>