<?xml version="1.0" encoding="utf-8" standalone="no"?>
<!DOCTYPE svg PUBLIC "-//W3C//DTD SVG 1.1//EN"
  "http://www.w3.org/Graphics/SVG/1.1/DTD/svg11.dtd">
<svg xmlns:xlink="http://www.w3.org/1999/xlink" width="279.711875pt" height="208.1025pt" viewBox="0 0 279.711875 208.1025" xmlns="http://www.w3.org/2000/svg" version="1.1">
 <metadata>
  <rdf:RDF xmlns:dc="http://purl.org/dc/elements/1.1/" xmlns:cc="http://creativecommons.org/ns#" xmlns:rdf="http://www.w3.org/1999/02/22-rdf-syntax-ns#">
   <cc:Work>
    <dc:type rdf:resource="http://purl.org/dc/dcmitype/StillImage"/>
    <dc:date>2024-01-17T23:50:52.581483</dc:date>
    <dc:format>image/svg+xml</dc:format>
    <dc:creator>
     <cc:Agent>
      <dc:title>Matplotlib v3.8.2, https://matplotlib.org/</dc:title>
     </cc:Agent>
    </dc:creator>
   </cc:Work>
  </rdf:RDF>
 </metadata>
 <defs>
  <style type="text/css">*{stroke-linejoin: round; stroke-linecap: butt}</style>
 </defs>
 <g id="figure_1">
  <g id="patch_1">
   <path d="M 0 208.1025 
L 279.711875 208.1025 
L 279.711875 0 
L 0 0 
z
" style="fill: #ffffff"/>
  </g>
  <g id="axes_1">
   <g id="patch_2">
    <path d="M 39.971875 170.44 
L 272.511875 170.44 
L 272.511875 7.2 
L 39.971875 7.2 
z
" style="fill: #ffffff"/>
   </g>
   <g id="PathCollection_1">
    <defs>
     <path id="m83f355d598" d="M 0 2 
C 0.530406 2 1.03916 1.789267 1.414214 1.414214 
C 1.789267 1.03916 2 0.530406 2 0 
C 2 -0.530406 1.789267 -1.03916 1.414214 -1.414214 
C 1.03916 -1.789267 0.530406 -2 0 -2 
C -0.530406 -2 -1.03916 -1.789267 -1.414214 -1.414214 
C -1.789267 -1.03916 -2 -0.530406 -2 0 
C -2 0.530406 -1.789267 1.03916 -1.414214 1.414214 
C -1.03916 1.789267 -0.530406 2 0 2 
z
" style="stroke: #486afb; stroke-width: 0.2"/>
    </defs>
    <g clip-path="url(#pe80a8b6e95)">
     <use xlink:href="#m83f355d598" x="156.241875" y="88.82" style="fill: #486afb; stroke: #486afb; stroke-width: 0.2"/>
    </g>
   </g>
   <g id="matplotlib.axis_1">
    <g id="xtick_1">
     <g id="line2d_1">
      <path d="M 59.350208 170.44 
L 59.350208 7.2 
" clip-path="url(#pe80a8b6e95)" style="fill: none; stroke-dasharray: 2.22,0.96; stroke-dashoffset: 0; stroke: #6c6066; stroke-opacity: 0.4; stroke-width: 0.6"/>
     </g>
     <g id="line2d_2">
      <defs>
       <path id="mf6392e1504" d="M 0 0 
L 0 3.5 
" style="stroke: #000000; stroke-width: 0.8"/>
      </defs>
      <g>
       <use xlink:href="#mf6392e1504" x="59.350208" y="170.44" style="stroke: #000000; stroke-width: 0.8"/>
      </g>
     </g>
     <g id="text_1">
      <!-- −4 -->
      <g transform="translate(53.329896 185.091562) scale(0.1 -0.1)">
       <defs>
        <path id="DejaVuSansMono-2212" d="M 275 2272 
L 3578 2272 
L 3578 1741 
L 275 1741 
L 275 2272 
z
" transform="scale(0.015625)"/>
        <path id="DejaVuSansMono-34" d="M 2297 4091 
L 825 1625 
L 2297 1625 
L 2297 4091 
z
M 2194 4666 
L 2925 4666 
L 2925 1625 
L 3547 1625 
L 3547 1113 
L 2925 1113 
L 2925 0 
L 2297 0 
L 2297 1113 
L 319 1113 
L 319 1709 
L 2194 4666 
z
" transform="scale(0.015625)"/>
       </defs>
       <use xlink:href="#DejaVuSansMono-2212"/>
       <use xlink:href="#DejaVuSansMono-34" x="60.205078"/>
      </g>
     </g>
    </g>
    <g id="xtick_2">
     <g id="line2d_3">
      <path d="M 98.106875 170.44 
L 98.106875 7.2 
" clip-path="url(#pe80a8b6e95)" style="fill: none; stroke-dasharray: 2.22,0.96; stroke-dashoffset: 0; stroke: #6c6066; stroke-opacity: 0.4; stroke-width: 0.6"/>
     </g>
     <g id="line2d_4">
      <g>
       <use xlink:href="#mf6392e1504" x="98.106875" y="170.44" style="stroke: #000000; stroke-width: 0.8"/>
      </g>
     </g>
     <g id="text_2">
      <!-- −2 -->
      <g transform="translate(92.086562 185.091562) scale(0.1 -0.1)">
       <defs>
        <path id="DejaVuSansMono-32" d="M 1166 531 
L 3309 531 
L 3309 0 
L 475 0 
L 475 531 
Q 1059 1147 1496 1619 
Q 1934 2091 2100 2284 
Q 2413 2666 2522 2902 
Q 2631 3138 2631 3384 
Q 2631 3775 2401 3997 
Q 2172 4219 1772 4219 
Q 1488 4219 1175 4116 
Q 863 4013 513 3803 
L 513 4441 
Q 834 4594 1145 4672 
Q 1456 4750 1759 4750 
Q 2444 4750 2861 4386 
Q 3278 4022 3278 3431 
Q 3278 3131 3139 2831 
Q 3000 2531 2688 2169 
Q 2513 1966 2180 1606 
Q 1847 1247 1166 531 
z
" transform="scale(0.015625)"/>
       </defs>
       <use xlink:href="#DejaVuSansMono-2212"/>
       <use xlink:href="#DejaVuSansMono-32" x="60.205078"/>
      </g>
     </g>
    </g>
    <g id="xtick_3">
     <g id="line2d_5">
      <path d="M 136.863542 170.44 
L 136.863542 7.2 
" clip-path="url(#pe80a8b6e95)" style="fill: none; stroke-dasharray: 2.22,0.96; stroke-dashoffset: 0; stroke: #6c6066; stroke-opacity: 0.4; stroke-width: 0.6"/>
     </g>
     <g id="line2d_6">
      <g>
       <use xlink:href="#mf6392e1504" x="136.863542" y="170.44" style="stroke: #000000; stroke-width: 0.8"/>
      </g>
     </g>
     <g id="text_3">
      <!-- 0 -->
      <g transform="translate(133.853385 185.091562) scale(0.1 -0.1)">
       <defs>
        <path id="DejaVuSansMono-30" d="M 1509 2344 
Q 1509 2516 1629 2641 
Q 1750 2766 1919 2766 
Q 2094 2766 2219 2641 
Q 2344 2516 2344 2344 
Q 2344 2169 2220 2047 
Q 2097 1925 1919 1925 
Q 1744 1925 1626 2044 
Q 1509 2163 1509 2344 
z
M 1925 4250 
Q 1484 4250 1267 3775 
Q 1050 3300 1050 2328 
Q 1050 1359 1267 884 
Q 1484 409 1925 409 
Q 2369 409 2586 884 
Q 2803 1359 2803 2328 
Q 2803 3300 2586 3775 
Q 2369 4250 1925 4250 
z
M 1925 4750 
Q 2672 4750 3055 4137 
Q 3438 3525 3438 2328 
Q 3438 1134 3055 521 
Q 2672 -91 1925 -91 
Q 1178 -91 797 521 
Q 416 1134 416 2328 
Q 416 3525 797 4137 
Q 1178 4750 1925 4750 
z
" transform="scale(0.015625)"/>
       </defs>
       <use xlink:href="#DejaVuSansMono-30"/>
      </g>
     </g>
    </g>
    <g id="xtick_4">
     <g id="line2d_7">
      <path d="M 175.620208 170.44 
L 175.620208 7.2 
" clip-path="url(#pe80a8b6e95)" style="fill: none; stroke-dasharray: 2.22,0.96; stroke-dashoffset: 0; stroke: #6c6066; stroke-opacity: 0.4; stroke-width: 0.6"/>
     </g>
     <g id="line2d_8">
      <g>
       <use xlink:href="#mf6392e1504" x="175.620208" y="170.44" style="stroke: #000000; stroke-width: 0.8"/>
      </g>
     </g>
     <g id="text_4">
      <!-- 2 -->
      <g transform="translate(172.610052 185.091562) scale(0.1 -0.1)">
       <use xlink:href="#DejaVuSansMono-32"/>
      </g>
     </g>
    </g>
    <g id="xtick_5">
     <g id="line2d_9">
      <path d="M 214.376875 170.44 
L 214.376875 7.2 
" clip-path="url(#pe80a8b6e95)" style="fill: none; stroke-dasharray: 2.22,0.96; stroke-dashoffset: 0; stroke: #6c6066; stroke-opacity: 0.4; stroke-width: 0.6"/>
     </g>
     <g id="line2d_10">
      <g>
       <use xlink:href="#mf6392e1504" x="214.376875" y="170.44" style="stroke: #000000; stroke-width: 0.8"/>
      </g>
     </g>
     <g id="text_5">
      <!-- 4 -->
      <g transform="translate(211.366719 185.091562) scale(0.1 -0.1)">
       <use xlink:href="#DejaVuSansMono-34"/>
      </g>
     </g>
    </g>
    <g id="xtick_6">
     <g id="line2d_11">
      <path d="M 253.133542 170.44 
L 253.133542 7.2 
" clip-path="url(#pe80a8b6e95)" style="fill: none; stroke-dasharray: 2.22,0.96; stroke-dashoffset: 0; stroke: #6c6066; stroke-opacity: 0.4; stroke-width: 0.6"/>
     </g>
     <g id="line2d_12">
      <g>
       <use xlink:href="#mf6392e1504" x="253.133542" y="170.44" style="stroke: #000000; stroke-width: 0.8"/>
      </g>
     </g>
     <g id="text_6">
      <!-- 6 -->
      <g transform="translate(250.123385 185.091562) scale(0.1 -0.1)">
       <defs>
        <path id="DejaVuSansMono-36" d="M 3097 4563 
L 3097 3981 
Q 2900 4097 2678 4158 
Q 2456 4219 2216 4219 
Q 1616 4219 1306 3767 
Q 997 3316 997 2438 
Q 1147 2750 1412 2917 
Q 1678 3084 2022 3084 
Q 2697 3084 3067 2670 
Q 3438 2256 3438 1497 
Q 3438 741 3056 325 
Q 2675 -91 1984 -91 
Q 1172 -91 794 492 
Q 416 1075 416 2328 
Q 416 3509 870 4129 
Q 1325 4750 2188 4750 
Q 2419 4750 2650 4701 
Q 2881 4653 3097 4563 
z
M 1972 2591 
Q 1569 2591 1337 2300 
Q 1106 2009 1106 1497 
Q 1106 984 1337 693 
Q 1569 403 1972 403 
Q 2391 403 2603 679 
Q 2816 956 2816 1497 
Q 2816 2041 2603 2316 
Q 2391 2591 1972 2591 
z
" transform="scale(0.015625)"/>
       </defs>
       <use xlink:href="#DejaVuSansMono-36"/>
      </g>
     </g>
    </g>
    <g id="text_7">
     <!-- $x$ -->
     <g transform="translate(153.241875 198.822812) scale(0.1 -0.1)">
      <defs>
       <path id="DejaVuSans-Oblique-78" d="M 3841 3500 
L 2234 1784 
L 3219 0 
L 2559 0 
L 1819 1388 
L 531 0 
L -166 0 
L 1556 1844 
L 641 3500 
L 1300 3500 
L 1972 2234 
L 3144 3500 
L 3841 3500 
z
" transform="scale(0.015625)"/>
      </defs>
      <use xlink:href="#DejaVuSans-Oblique-78" transform="translate(0 0.3125)"/>
     </g>
    </g>
   </g>
   <g id="matplotlib.axis_2">
    <g id="ytick_1">
     <g id="line2d_13">
      <path d="M 39.971875 156.836667 
L 272.511875 156.836667 
" clip-path="url(#pe80a8b6e95)" style="fill: none; stroke-dasharray: 2.22,0.96; stroke-dashoffset: 0; stroke: #6c6066; stroke-opacity: 0.4; stroke-width: 0.6"/>
     </g>
     <g id="line2d_14">
      <defs>
       <path id="mcd0ce06509" d="M 0 0 
L -3.5 0 
" style="stroke: #000000; stroke-width: 0.8"/>
      </defs>
      <g>
       <use xlink:href="#mcd0ce06509" x="39.971875" y="156.836667" style="stroke: #000000; stroke-width: 0.8"/>
      </g>
     </g>
     <g id="text_8">
      <!-- −4 -->
      <g transform="translate(20.93125 160.662448) scale(0.1 -0.1)">
       <use xlink:href="#DejaVuSansMono-2212"/>
       <use xlink:href="#DejaVuSansMono-34" x="60.205078"/>
      </g>
     </g>
    </g>
    <g id="ytick_2">
     <g id="line2d_15">
      <path d="M 39.971875 129.63 
L 272.511875 129.63 
" clip-path="url(#pe80a8b6e95)" style="fill: none; stroke-dasharray: 2.22,0.96; stroke-dashoffset: 0; stroke: #6c6066; stroke-opacity: 0.4; stroke-width: 0.6"/>
     </g>
     <g id="line2d_16">
      <g>
       <use xlink:href="#mcd0ce06509" x="39.971875" y="129.63" style="stroke: #000000; stroke-width: 0.8"/>
      </g>
     </g>
     <g id="text_9">
      <!-- −2 -->
      <g transform="translate(20.93125 133.455781) scale(0.1 -0.1)">
       <use xlink:href="#DejaVuSansMono-2212"/>
       <use xlink:href="#DejaVuSansMono-32" x="60.205078"/>
      </g>
     </g>
    </g>
    <g id="ytick_3">
     <g id="line2d_17">
      <path d="M 39.971875 102.423333 
L 272.511875 102.423333 
" clip-path="url(#pe80a8b6e95)" style="fill: none; stroke-dasharray: 2.22,0.96; stroke-dashoffset: 0; stroke: #6c6066; stroke-opacity: 0.4; stroke-width: 0.6"/>
     </g>
     <g id="line2d_18">
      <g>
       <use xlink:href="#mcd0ce06509" x="39.971875" y="102.423333" style="stroke: #000000; stroke-width: 0.8"/>
      </g>
     </g>
     <g id="text_10">
      <!-- 0 -->
      <g transform="translate(26.951562 106.249115) scale(0.1 -0.1)">
       <use xlink:href="#DejaVuSansMono-30"/>
      </g>
     </g>
    </g>
    <g id="ytick_4">
     <g id="line2d_19">
      <path d="M 39.971875 75.216667 
L 272.511875 75.216667 
" clip-path="url(#pe80a8b6e95)" style="fill: none; stroke-dasharray: 2.22,0.96; stroke-dashoffset: 0; stroke: #6c6066; stroke-opacity: 0.4; stroke-width: 0.6"/>
     </g>
     <g id="line2d_20">
      <g>
       <use xlink:href="#mcd0ce06509" x="39.971875" y="75.216667" style="stroke: #000000; stroke-width: 0.8"/>
      </g>
     </g>
     <g id="text_11">
      <!-- 2 -->
      <g transform="translate(26.951562 79.042448) scale(0.1 -0.1)">
       <use xlink:href="#DejaVuSansMono-32"/>
      </g>
     </g>
    </g>
    <g id="ytick_5">
     <g id="line2d_21">
      <path d="M 39.971875 48.01 
L 272.511875 48.01 
" clip-path="url(#pe80a8b6e95)" style="fill: none; stroke-dasharray: 2.22,0.96; stroke-dashoffset: 0; stroke: #6c6066; stroke-opacity: 0.4; stroke-width: 0.6"/>
     </g>
     <g id="line2d_22">
      <g>
       <use xlink:href="#mcd0ce06509" x="39.971875" y="48.01" style="stroke: #000000; stroke-width: 0.8"/>
      </g>
     </g>
     <g id="text_12">
      <!-- 4 -->
      <g transform="translate(26.951562 51.835781) scale(0.1 -0.1)">
       <use xlink:href="#DejaVuSansMono-34"/>
      </g>
     </g>
    </g>
    <g id="ytick_6">
     <g id="line2d_23">
      <path d="M 39.971875 20.803333 
L 272.511875 20.803333 
" clip-path="url(#pe80a8b6e95)" style="fill: none; stroke-dasharray: 2.22,0.96; stroke-dashoffset: 0; stroke: #6c6066; stroke-opacity: 0.4; stroke-width: 0.6"/>
     </g>
     <g id="line2d_24">
      <g>
       <use xlink:href="#mcd0ce06509" x="39.971875" y="20.803333" style="stroke: #000000; stroke-width: 0.8"/>
      </g>
     </g>
     <g id="text_13">
      <!-- 6 -->
      <g transform="translate(26.951562 24.629115) scale(0.1 -0.1)">
       <use xlink:href="#DejaVuSansMono-36"/>
      </g>
     </g>
    </g>
    <g id="text_14">
     <!-- $y$ -->
     <g transform="translate(14.83125 91.82) rotate(-90) scale(0.1 -0.1)">
      <defs>
       <path id="DejaVuSans-Oblique-79" d="M 1588 -325 
Q 1188 -997 936 -1164 
Q 684 -1331 294 -1331 
L -159 -1331 
L -63 -850 
L 269 -850 
Q 509 -850 678 -719 
Q 847 -588 1056 -206 
L 1234 128 
L 459 3500 
L 1069 3500 
L 1650 819 
L 3256 3500 
L 3859 3500 
L 1588 -325 
z
" transform="scale(0.015625)"/>
      </defs>
      <use xlink:href="#DejaVuSans-Oblique-79" transform="translate(0 0.3125)"/>
     </g>
    </g>
   </g>
   <g id="QuadContourSet_1">
    <path clip-path="url(#pe80a8b6e95)" style="fill: none; stroke: #486afb; stroke-width: 2"/>
    <path d="M 124.531875 154.025 
L 122.182986 152.920556 
L 119.834097 151.399914 
L 117.485208 149.34126 
L 115.77323 147.355556 
L 114.59216 145.706667 
L 112.723309 142.408889 
L 111.383905 139.111111 
L 110.361576 135.813333 
L 109.661981 132.515556 
L 109.182098 129.217778 
L 108.898998 125.92 
L 108.792839 122.622222 
L 108.846358 119.324444 
L 109.19354 114.377778 
L 109.823046 109.431111 
L 110.714492 104.484444 
L 111.868576 99.537778 
L 113.243921 94.591111 
L 115.136319 88.825889 
L 117.347642 83.048889 
L 118.763156 79.751111 
L 121.06212 74.804444 
L 123.603194 69.857778 
L 125.439604 66.56 
L 128.421653 61.613333 
L 130.575566 58.315556 
L 132.871886 55.017778 
L 135.32522 51.72 
L 137.952241 48.422222 
L 140.974097 44.893723 
L 145.671875 39.977641 
L 150.369653 35.676192 
L 155.067431 31.948269 
L 157.439622 30.284444 
L 160.038215 28.635556 
L 162.971902 26.986667 
L 166.374721 25.337778 
L 166.811875 25.137641 
L 170.799303 23.688889 
L 171.509653 23.458167 
L 173.858542 22.867615 
L 176.207431 22.448951 
L 178.556319 22.21908 
L 180.905208 22.197203 
L 183.254097 22.405214 
L 185.602986 22.868192 
L 188.120924 23.688889 
L 190.300764 24.719444 
L 192.649653 26.240086 
L 194.998542 28.29874 
L 196.71052 30.284444 
L 197.89159 31.933333 
L 199.760441 35.231111 
L 201.099845 38.528889 
L 202.122174 41.826667 
L 202.821769 45.124444 
L 203.301652 48.422222 
L 203.584752 51.72 
L 203.690911 55.017778 
L 203.637392 58.315556 
L 203.29021 63.262222 
L 202.660704 68.208889 
L 201.769258 73.155556 
L 200.615174 78.102222 
L 199.239829 83.048889 
L 197.347431 88.814111 
L 195.136108 94.591111 
L 194.490377 96.11991 
M 191.383489 102.913163 
L 188.880556 107.782222 
L 187.044146 111.08 
L 184.062097 116.026667 
L 181.908184 119.324444 
L 179.611864 122.622222 
L 177.15853 125.92 
L 174.531509 129.217778 
L 171.509653 132.746277 
L 166.811875 137.662359 
L 162.114097 141.963808 
L 157.416319 145.691731 
L 155.044128 147.355556 
L 152.445535 149.004444 
L 149.511848 150.653333 
L 146.109029 152.302222 
L 145.671875 152.502359 
L 141.684447 153.951111 
L 140.974097 154.181833 
L 138.625208 154.772385 
L 136.276319 155.191049 
L 133.927431 155.42092 
L 131.578542 155.442797 
L 129.229653 155.234786 
L 126.880764 154.771808 
L 124.531875 154.025 
L 124.531875 154.025 
" clip-path="url(#pe80a8b6e95)" style="fill: none; stroke: #486afb; stroke-width: 2"/>
    <path d="M 98.124317 170.44 
L 96.023016 167.142222 
L 94.347649 163.844444 
L 93.635663 162.195556 
L 92.427405 158.897778 
L 91.442108 155.6 
L 90.680711 152.302222 
L 90.084097 149.004444 
L 89.470594 144.057778 
L 89.168048 139.111111 
L 89.13266 134.164444 
L 89.332097 129.217778 
L 89.759235 124.271111 
L 90.38506 119.324444 
L 91.19104 114.377778 
L 92.182387 109.431111 
L 93.766152 102.835556 
L 95.158841 97.888889 
L 97.25734 91.293333 
L 99.641999 84.697778 
L 102.312817 78.102222 
L 104.506092 73.155556 
L 106.866527 68.208889 
L 109.399374 63.262222 
L 110.470132 61.251594 
M 115.759176 52.147962 
L 119.197666 46.773333 
L 122.592999 41.826667 
L 126.880764 36.037029 
L 131.578542 30.222389 
L 136.276319 24.912538 
L 140.974097 20.059633 
L 145.895117 15.444444 
L 150.369653 11.638676 
L 155.067431 8.0411 
L 156.265601 7.2 
M 214.359433 7.2 
L 216.460734 10.497778 
L 218.136101 13.795556 
L 218.848087 15.444444 
L 220.056345 18.742222 
L 221.041642 22.04 
L 221.803039 25.337778 
L 222.399653 28.635556 
L 223.013156 33.582222 
L 223.315702 38.528889 
L 223.35109 43.475556 
L 223.151653 48.422222 
L 222.724515 53.368889 
L 222.09869 58.315556 
L 221.29271 63.262222 
L 220.301363 68.208889 
L 218.717598 74.804444 
L 217.324909 79.751111 
L 215.22641 86.346667 
L 212.841751 92.942222 
L 210.170933 99.537778 
L 207.977658 104.484444 
L 205.617223 109.431111 
L 203.084376 114.377778 
L 202.013618 116.388406 
M 196.724574 125.492038 
L 193.286084 130.866667 
L 189.890751 135.813333 
L 185.602986 141.602971 
L 180.905208 147.417611 
L 176.207431 152.727462 
L 171.509653 157.580367 
L 166.588633 162.195556 
L 162.114097 166.001324 
L 157.416319 169.5989 
L 156.218149 170.44 
L 156.218149 170.44 
" clip-path="url(#pe80a8b6e95)" style="fill: none; stroke: #486afb; stroke-width: 2"/>
    <path d="M 76.839587 170.44 
L 75.721898 165.493333 
L 74.917682 160.546667 
L 74.395196 155.6 
L 74.109538 150.653333 
L 74.040505 145.706667 
L 74.170128 140.76 
L 74.482372 135.813333 
L 75.15818 129.217778 
L 75.865513 124.271111 
L 77.032535 117.675556 
L 78.459708 111.08 
L 80.124743 104.484444 
L 82.251875 97.185 
L 84.600764 90.074134 
L 84.766262 89.604443 
M 88.468454 79.829645 
L 90.569232 74.804444 
L 93.532146 68.208889 
L 96.345208 62.395562 
L 100.210038 55.017778 
L 103.391875 49.35083 
L 107.947415 41.826667 
L 111.163693 36.88 
L 115.136319 31.106926 
L 119.834097 24.753481 
L 124.623531 18.742222 
L 129.229653 13.370787 
L 133.927431 8.276358 
L 134.976532 7.2 
M 235.644163 7.2 
L 236.761852 12.146667 
L 237.566068 17.093333 
L 238.088554 22.04 
L 238.374212 26.986667 
L 238.443245 31.933333 
L 238.313622 36.88 
L 238.001378 41.826667 
L 237.32557 48.422222 
L 236.618237 53.368889 
L 235.451215 59.964444 
L 234.024042 66.56 
L 232.359007 73.155556 
L 230.231875 80.455 
L 227.882986 87.565866 
L 227.717488 88.035557 
M 224.015296 97.810355 
L 221.914518 102.835556 
L 218.951604 109.431111 
L 216.138542 115.244438 
L 212.273712 122.622222 
L 209.091875 128.28917 
L 204.536335 135.813333 
L 201.320057 140.76 
L 197.347431 146.533074 
L 192.649653 152.886519 
L 187.860219 158.897778 
L 183.254097 164.269213 
L 178.556319 169.363642 
L 177.507218 170.44 
L 177.507218 170.44 
" clip-path="url(#pe80a8b6e95)" style="fill: none; stroke: #486afb; stroke-width: 2"/>
    <path d="M 62.188006 170.44 
L 61.693923 165.493333 
L 61.406746 160.546667 
L 61.310892 155.6 
L 61.392304 150.653333 
L 61.754802 144.057778 
L 62.383065 137.462222 
L 63.253381 130.866667 
L 64.371067 124.271111 
L 65.809653 117.186641 
L 67.261809 111.08 
L 69.025595 104.484444 
L 70.992896 97.888889 
L 73.742415 89.644444 
L 76.167074 83.048889 
L 78.793789 76.453333 
L 81.622558 69.857778 
L 84.654936 63.262222 
L 88.063103 56.375447 
M 93.020703 47.107186 
L 96.345208 41.316116 
L 101.092116 33.582222 
L 105.740764 26.532876 
L 110.438542 19.871644 
L 115.136319 13.630017 
L 120.319427 7.2 
M 250.295744 7.2 
L 250.789827 12.146667 
L 251.077004 17.093333 
L 251.172858 22.04 
L 251.091446 26.986667 
L 250.728948 33.582222 
L 250.100685 40.177778 
L 249.230369 46.773333 
L 248.112683 53.368889 
L 246.674097 60.453359 
L 245.221941 66.56 
L 243.458155 73.155556 
L 241.490854 79.751111 
L 238.741335 87.995556 
L 236.316676 94.591111 
L 233.689961 101.186667 
L 230.861192 107.782222 
L 227.828814 114.377778 
L 224.420647 121.264553 
M 219.463047 130.532814 
L 216.138542 136.323884 
L 211.391634 144.057778 
L 206.742986 151.107124 
L 202.045208 157.768356 
L 197.347431 164.009983 
L 192.164323 170.44 
L 192.164323 170.44 
" clip-path="url(#pe80a8b6e95)" style="fill: none; stroke: #486afb; stroke-width: 2"/>
    <path d="M 50.277513 170.44 
L 50.110736 163.844444 
L 50.224945 157.248889 
L 50.596476 150.653333 
L 51.204254 144.057778 
L 52.037989 137.462222 
L 53.090732 130.866667 
L 54.33931 124.271111 
L 56.180908 116.026667 
L 57.872712 109.431111 
L 59.745781 102.835556 
L 62.343541 94.591111 
L 64.62489 87.995556 
L 67.086345 81.4 
L 69.727907 74.804444 
L 72.856319 67.514061 
L 76.346179 59.964444 
L 79.902986 52.750556 
L 83.930628 45.124444 
L 85.971014 41.445016 
M 91.289597 32.355902 
L 94.636454 26.986667 
L 98.959949 20.391111 
L 103.542529 13.795556 
L 108.408204 7.2 
M 262.206237 7.2 
L 262.373014 13.795556 
L 262.258805 20.391111 
L 261.887274 26.986667 
L 261.279496 33.582222 
L 260.445761 40.177778 
L 259.393018 46.773333 
L 258.14444 53.368889 
L 256.302842 61.613333 
L 254.611038 68.208889 
L 252.737969 74.804444 
L 250.140209 83.048889 
L 247.85886 89.644444 
L 245.397405 96.24 
L 242.755843 102.835556 
L 239.627431 110.125939 
L 236.137571 117.675556 
L 232.580764 124.889444 
L 228.553122 132.515556 
L 226.512736 136.194984 
M 221.194153 145.284098 
L 217.847296 150.653333 
L 213.523801 157.248889 
L 208.941221 163.844444 
L 204.075546 170.44 
L 204.075546 170.44 
" clip-path="url(#pe80a8b6e95)" style="fill: none; stroke: #486afb; stroke-width: 2"/>
    <path d="M 39.971875 170.44 
L 40.096733 163.844444 
L 40.458376 157.248889 
L 41.038878 150.653333 
L 41.822077 144.057778 
L 42.804996 137.462222 
L 44.298038 129.217778 
L 45.700359 122.622222 
L 47.694631 114.377778 
L 49.956385 106.133333 
L 52.480914 97.888889 
L 55.263621 89.644444 
L 58.300017 81.4 
L 61.111875 74.321437 
L 64.423878 66.56 
L 68.186757 58.315556 
L 72.856319 48.837908 
L 76.55457 41.826667 
L 80.217635 35.231111 
L 85.365858 26.517705 
M 91.006257 17.60238 
L 94.659627 12.146667 
L 98.112767 7.2 
M 272.511875 7.2 
L 272.387017 13.795556 
L 272.025374 20.391111 
L 271.444872 26.986667 
L 270.661673 33.582222 
L 269.678754 40.177778 
L 268.185712 48.422222 
L 266.783391 55.017778 
L 264.789119 63.262222 
L 262.527365 71.506667 
L 260.002836 79.751111 
L 257.220129 87.995556 
L 254.183733 96.24 
L 251.371875 103.318563 
L 248.059872 111.08 
L 244.296993 119.324444 
L 239.627431 128.802092 
L 235.92918 135.813333 
L 232.266115 142.408889 
L 227.117892 151.122295 
M 221.477493 160.03762 
L 217.824123 165.493333 
L 214.370983 170.44 
L 214.370983 170.44 
" clip-path="url(#pe80a8b6e95)" style="fill: none; stroke: #486afb; stroke-width: 2"/>
    <path d="M 39.971875 112.725986 
L 42.33283 104.484444 
L 44.937663 96.24 
L 47.781612 87.995556 
L 50.860811 79.751111 
L 54.173804 71.506667 
L 58.475741 61.613333 
L 60.088185 58.107529 
M 64.649063 48.659882 
L 68.158542 41.812719 
L 72.856319 33.177414 
L 77.554097 25.052065 
L 82.4333 17.093333 
L 87.798358 8.848889 
L 88.907356 7.2 
M 272.511875 64.914014 
L 270.15092 73.155556 
L 267.546087 81.4 
L 264.702138 89.644444 
L 261.622939 97.888889 
L 258.309946 106.133333 
L 254.008009 116.026667 
L 252.395565 119.532471 
M 247.834687 128.980118 
L 244.325208 135.827281 
L 239.627431 144.462586 
L 234.929653 152.587935 
L 230.05045 160.546667 
L 224.685392 168.791111 
L 223.576394 170.44 
L 223.576394 170.44 
" clip-path="url(#pe80a8b6e95)" style="fill: none; stroke: #486afb; stroke-width: 2"/>
    <path d="M 39.971875 88.824164 
L 40.269222 87.995556 
L 40.868318 86.346667 
L 41.473211 84.697778 
L 42.083815 83.048889 
L 42.320764 82.416815 
L 42.707763 81.4 
L 43.342085 79.751111 
L 43.981848 78.102222 
L 44.626972 76.453333 
L 44.669653 76.345636 
L 45.289747 74.804444 
L 45.958568 73.155556 
L 46.632484 71.506667 
L 47.018542 70.571101 
L 47.317409 69.857778 
L 48.015176 68.208889 
L 48.71777 66.56 
L 49.367431 65.046209 
L 49.426304 64.911111 
L 50.152897 63.262222 
L 50.884048 61.613333 
L 51.619688 59.964444 
L 51.716319 59.750089 
L 52.372982 58.315556 
L 53.132561 56.666667 
L 53.896363 55.017778 
L 54.065208 54.656684 
L 54.676708 53.368889 
L 55.464579 51.72 
L 56.256403 50.071111 
L 56.414097 49.745673 
L 57.06538 48.422222 
L 57.881394 46.773333 
L 58.701094 45.124444 
L 58.762986 45.001079 
L 59.540327 43.475556 
L 60.38433 41.826667 
L 61.111875 40.412062 
L 61.234278 40.177778 
L 62.102909 38.528889 
L 62.974734 36.88 
L 63.460764 35.966193 
L 63.857957 35.231111 
L 64.754512 33.582222 
L 65.653985 31.933333 
L 65.809653 31.650106 
L 66.572259 30.284444 
L 67.496554 28.635556 
L 68.158542 27.459754 
L 68.429202 26.986667 
L 69.378641 25.337778 
L 70.330481 23.688889 
L 70.507431 23.384437 
L 71.301533 22.04 
L 71.55636 21.609955 
M 77.044054 12.6103 
L 77.333688 12.146667 
L 77.554097 11.795894 
L 78.383405 10.497778 
L 79.43939 8.848889 
L 79.902986 8.128132 
L 80.510058 7.2 
M 272.511875 88.815836 
L 272.214528 89.644444 
L 271.615432 91.293333 
L 271.010539 92.942222 
L 270.399935 94.591111 
L 270.162986 95.223185 
L 269.775987 96.24 
L 269.141665 97.888889 
L 268.501902 99.537778 
L 267.856778 101.186667 
L 267.814097 101.294364 
L 267.194003 102.835556 
L 266.525182 104.484444 
L 265.851266 106.133333 
L 265.465208 107.068899 
L 265.166341 107.782222 
L 264.468574 109.431111 
L 263.76598 111.08 
L 263.116319 112.593791 
L 263.057446 112.728889 
L 262.330853 114.377778 
L 261.599702 116.026667 
L 260.864062 117.675556 
L 260.767431 117.889911 
L 260.110768 119.324444 
L 259.351189 120.973333 
L 258.587387 122.622222 
L 258.418542 122.983316 
L 257.807042 124.271111 
L 257.019171 125.92 
L 256.227347 127.568889 
L 256.069653 127.894327 
L 255.41837 129.217778 
L 254.602356 130.866667 
L 253.782656 132.515556 
L 253.720764 132.638921 
L 252.943423 134.164444 
L 252.09942 135.813333 
L 251.371875 137.227938 
L 251.249472 137.462222 
L 250.380841 139.111111 
L 249.509016 140.76 
L 249.022986 141.673807 
L 248.625793 142.408889 
L 247.729238 144.057778 
L 246.829765 145.706667 
L 246.674097 145.989894 
L 245.911491 147.355556 
L 244.987196 149.004444 
L 244.325208 150.180246 
L 244.054548 150.653333 
L 243.105109 152.302222 
L 242.153269 153.951111 
L 241.976319 154.255563 
L 241.182217 155.6 
L 240.92739 156.030045 
M 235.439696 165.0297 
L 235.150062 165.493333 
L 234.929653 165.844106 
L 234.100345 167.142222 
L 233.04436 168.791111 
L 232.580764 169.511868 
L 231.973692 170.44 
" clip-path="url(#pe80a8b6e95)" style="fill: none; stroke: #486afb; stroke-width: 2"/>
    <path d="M 272.511875 107.160482 
L 272.253639 107.782222 
L 271.56204 109.431111 
L 270.865831 111.08 
L 270.165078 112.728889 
L 270.162986 112.733758 
L 269.446292 114.377778 
L 268.723095 116.026667 
L 267.99559 117.675556 
L 267.814097 118.083058 
L 267.253179 119.324444 
L 266.503106 120.973333 
L 265.748962 122.622222 
L 265.465208 123.237502 
L 264.981572 124.271111 
L 264.204742 125.92 
L 264.100655 126.139849 
M 259.492233 135.567094 
L 259.368291 135.813333 
L 258.534986 137.462222 
L 258.418542 137.690767 
L 257.684151 139.111111 
L 256.827848 140.76 
L 256.069653 142.213844 
L 255.966413 142.408889 
L 255.086821 144.057778 
L 254.204316 145.706667 
L 253.720764 146.605203 
L 253.310886 147.355556 
L 252.405005 149.004444 
L 251.496459 150.653333 
L 251.371875 150.877824 
L 250.569437 152.302222 
L 249.637435 153.951111 
L 249.022986 155.033519 
L 248.696503 155.6 
L 247.74076 157.248889 
L 246.782815 158.897778 
L 246.674097 159.083657 
L 245.805279 160.546667 
L 244.823525 162.195556 
L 244.325208 163.028744 
L 243.829787 163.844444 
L 242.823942 165.493333 
L 241.976319 166.879338 
L 241.813032 167.142222 
L 240.782809 168.791111 
L 239.751096 170.44 
M 39.971875 70.479518 
L 40.230111 69.857778 
L 40.92171 68.208889 
L 41.617919 66.56 
L 42.318672 64.911111 
L 42.320764 64.906242 
L 43.037458 63.262222 
L 43.760655 61.613333 
L 44.48816 59.964444 
L 44.669653 59.556942 
L 45.230571 58.315556 
L 45.980644 56.666667 
L 46.734788 55.017778 
L 47.018542 54.402498 
L 47.502178 53.368889 
L 48.279008 51.72 
L 48.383095 51.500151 
M 52.991517 42.072906 
L 53.115459 41.826667 
L 53.948764 40.177778 
L 54.065208 39.949233 
L 54.799599 38.528889 
L 55.655902 36.88 
L 56.414097 35.426156 
L 56.517337 35.231111 
L 57.396929 33.582222 
L 58.279434 31.933333 
L 58.762986 31.034797 
L 59.172864 30.284444 
L 60.078745 28.635556 
L 60.987291 26.986667 
L 61.111875 26.762176 
L 61.914313 25.337778 
L 62.846315 23.688889 
L 63.460764 22.606481 
L 63.787247 22.04 
L 64.74299 20.391111 
L 65.700935 18.742222 
L 65.809653 18.556343 
L 66.678471 17.093333 
L 67.660225 15.444444 
L 68.158542 14.611256 
L 68.653963 13.795556 
L 69.659808 12.146667 
L 70.507431 10.760662 
L 70.670718 10.497778 
L 71.700941 8.848889 
L 72.732654 7.2 
" clip-path="url(#pe80a8b6e95)" style="fill: none; stroke: #486afb; stroke-width: 2"/>
    <path d="M 272.511875 122.628069 
L 271.753211 124.271111 
L 270.988053 125.92 
L 270.219167 127.568889 
L 270.162986 127.688291 
L 269.433366 129.217778 
L 268.642958 130.866667 
L 267.849035 132.515556 
L 267.814097 132.587487 
L 267.037492 134.164444 
L 266.221952 135.813333 
L 265.465208 137.336645 
L 265.401948 137.462222 
L 264.564527 139.111111 
L 263.723979 140.76 
L 263.116319 141.946136 
L 262.875904 142.408889 
L 262.013387 144.057778 
L 261.147962 145.706667 
L 260.767431 146.427407 
L 260.270443 147.355556 
L 259.382968 149.004444 
L 258.492804 150.653333 
L 258.418542 150.789898 
L 257.584435 152.302222 
L 256.672146 153.951111 
L 256.069653 155.03538 
L 255.751398 155.6 
L 254.816725 157.248889 
L 254.596769 157.635978 
M 249.279734 166.726199 
L 249.031476 167.142222 
L 249.022986 167.156356 
L 248.026575 168.791111 
L 247.019858 170.44 
M 39.971875 55.011931 
L 40.730539 53.368889 
L 41.495697 51.72 
L 42.264583 50.071111 
L 42.320764 49.951709 
L 43.050384 48.422222 
L 43.840792 46.773333 
L 44.634715 45.124444 
L 44.669653 45.052513 
L 45.446258 43.475556 
L 46.261798 41.826667 
L 47.018542 40.303355 
L 47.081802 40.177778 
L 47.919223 38.528889 
L 48.759771 36.88 
L 49.367431 35.693864 
L 49.607846 35.231111 
L 50.470363 33.582222 
L 51.335788 31.933333 
L 51.716319 31.212593 
L 52.213307 30.284444 
L 53.100782 28.635556 
L 53.990946 26.986667 
L 54.065208 26.850102 
L 54.899315 25.337778 
L 55.811604 23.688889 
L 56.414097 22.60462 
L 56.732352 22.04 
L 57.667025 20.391111 
L 57.886981 20.004022 
M 63.204016 10.913801 
L 63.452274 10.497778 
L 63.460764 10.483644 
L 64.457175 8.848889 
L 65.463892 7.2 
" clip-path="url(#pe80a8b6e95)" style="fill: none; stroke: #486afb; stroke-width: 2"/>
    <path d="M 272.511875 136.250499 
L 271.910981 137.462222 
L 271.08919 139.111111 
L 270.956228 139.376891 
M 266.144867 148.713789 
L 265.991616 149.004444 
L 265.465208 149.997974 
L 265.113273 150.653333 
L 264.222804 152.302222 
L 263.329795 153.951111 
L 263.116319 154.342843 
L 262.421906 155.6 
L 261.507755 157.248889 
L 260.767431 158.579676 
L 260.588039 158.897778 
L 259.652511 160.546667 
L 258.714816 162.195556 
L 258.418542 162.713745 
L 257.763148 163.844444 
L 256.804016 165.493333 
L 256.069653 166.751878 
L 255.838715 167.142222 
L 254.857914 168.791111 
L 253.875332 170.44 
M 39.971875 41.389501 
L 40.572769 40.177778 
L 41.39456 38.528889 
L 41.527522 38.263109 
M 46.338883 28.926211 
L 46.492134 28.635556 
L 47.018542 27.642026 
L 47.370477 26.986667 
L 48.260946 25.337778 
L 49.153955 23.688889 
L 49.367431 23.297157 
L 50.061844 22.04 
L 50.975995 20.391111 
L 51.716319 19.060324 
L 51.895711 18.742222 
L 52.831239 17.093333 
L 53.768934 15.444444 
L 54.065208 14.926255 
L 54.720602 13.795556 
L 55.679734 12.146667 
L 56.414097 10.888122 
L 56.645035 10.497778 
L 57.625836 8.848889 
L 58.608418 7.2 
" clip-path="url(#pe80a8b6e95)" style="fill: none; stroke: #486afb; stroke-width: 2"/>
    <path d="M 272.511875 148.568116 
L 272.2833 149.004444 
L 271.414134 150.653333 
L 271.248526 150.966569 
M 266.234894 160.208553 
L 266.047357 160.546667 
L 265.465208 161.592026 
L 265.124697 162.195556 
L 264.189695 163.844444 
L 263.252616 165.493333 
L 263.116319 165.731754 
L 262.299371 167.142222 
L 261.341803 168.791111 
L 260.767431 169.776477 
L 260.375515 170.44 
M 39.971875 29.071884 
L 40.20045 28.635556 
L 41.069616 26.986667 
L 41.235224 26.673431 
M 46.248856 17.431447 
L 46.436393 17.093333 
L 47.018542 16.047974 
L 47.359053 15.444444 
L 48.294055 13.795556 
L 49.231134 12.146667 
L 49.367431 11.908246 
L 50.184379 10.497778 
L 51.141947 8.848889 
L 51.716319 7.863523 
L 52.108235 7.2 
" clip-path="url(#pe80a8b6e95)" style="fill: none; stroke: #486afb; stroke-width: 2"/>
    <path d="M 272.511875 159.89491 
L 272.153289 160.546667 
L 271.958961 160.898128 
M 266.789766 170.063768 
L 266.572277 170.44 
M 39.971875 17.74509 
L 40.330461 17.093333 
L 40.524789 16.741872 
M 45.693984 7.576232 
L 45.911473 7.2 
" clip-path="url(#pe80a8b6e95)" style="fill: none; stroke: #486afb; stroke-width: 2"/>
    <path clip-path="url(#pe80a8b6e95)" style="fill: none; stroke: #486afb; stroke-width: 2"/>
   </g>
   <g id="patch_3">
    <path d="M 39.971875 170.44 
L 39.971875 7.2 
" style="fill: none; stroke: #000000; stroke-width: 0.6; stroke-linejoin: miter; stroke-linecap: square"/>
   </g>
   <g id="patch_4">
    <path d="M 39.971875 170.44 
L 272.511875 170.44 
" style="fill: none; stroke: #000000; stroke-width: 0.6; stroke-linejoin: miter; stroke-linecap: square"/>
   </g>
   <g id="text_15">
    <g clip-path="url(#pe80a8b6e95)">
     <!-- 6 -->
     <g style="fill: #486afb" transform="translate(194.092074 102.628051) rotate(-66.858157) scale(0.08 -0.08)">
      <use xlink:href="#DejaVuSansMono-36"/>
     </g>
    </g>
   </g>
   <g id="text_16">
    <g clip-path="url(#pe80a8b6e95)">
     <!-- 12 -->
     <g style="fill: #486afb" transform="translate(112.699588 61.961986) rotate(-61.375388) scale(0.08 -0.08)">
      <defs>
       <path id="DejaVuSansMono-31" d="M 844 531 
L 1825 531 
L 1825 4097 
L 769 3859 
L 769 4434 
L 1819 4666 
L 2450 4666 
L 2450 531 
L 3419 531 
L 3419 0 
L 844 0 
L 844 531 
z
" transform="scale(0.015625)"/>
      </defs>
      <use xlink:href="#DejaVuSansMono-31"/>
      <use xlink:href="#DejaVuSansMono-32" x="60.205078"/>
     </g>
    </g>
   </g>
   <g id="text_17">
    <g clip-path="url(#pe80a8b6e95)">
     <!-- 12 -->
     <g style="fill: #486afb" transform="translate(199.082223 126.268653) rotate(-61.375388) scale(0.08 -0.08)">
      <use xlink:href="#DejaVuSansMono-31"/>
      <use xlink:href="#DejaVuSansMono-32" x="60.205078"/>
     </g>
    </g>
   </g>
   <g id="text_18">
    <g clip-path="url(#pe80a8b6e95)">
     <!-- 18 -->
     <g style="fill: #486afb" transform="translate(87.044425 89.982575) rotate(-70.402869) scale(0.08 -0.08)">
      <defs>
       <path id="DejaVuSansMono-38" d="M 1925 2216 
Q 1503 2216 1273 1980 
Q 1044 1744 1044 1313 
Q 1044 881 1276 642 
Q 1509 403 1925 403 
Q 2350 403 2579 639 
Q 2809 875 2809 1313 
Q 2809 1741 2576 1978 
Q 2344 2216 1925 2216 
z
M 1375 2478 
Q 972 2581 745 2862 
Q 519 3144 519 3541 
Q 519 4097 897 4423 
Q 1275 4750 1925 4750 
Q 2578 4750 2956 4423 
Q 3334 4097 3334 3541 
Q 3334 3144 3107 2862 
Q 2881 2581 2478 2478 
Q 2947 2375 3195 2062 
Q 3444 1750 3444 1253 
Q 3444 622 3041 265 
Q 2638 -91 1925 -91 
Q 1213 -91 811 264 
Q 409 619 409 1247 
Q 409 1747 657 2061 
Q 906 2375 1375 2478 
z
M 1147 3481 
Q 1147 3106 1347 2909 
Q 1547 2713 1925 2713 
Q 2306 2713 2506 2909 
Q 2706 3106 2706 3481 
Q 2706 3863 2507 4063 
Q 2309 4263 1925 4263 
Q 1547 4263 1347 4061 
Q 1147 3859 1147 3481 
z
" transform="scale(0.015625)"/>
      </defs>
      <use xlink:href="#DejaVuSansMono-31"/>
      <use xlink:href="#DejaVuSansMono-38" x="60.205078"/>
     </g>
    </g>
   </g>
   <g id="text_19">
    <g clip-path="url(#pe80a8b6e95)">
     <!-- 18 -->
     <g style="fill: #486afb" transform="translate(226.407838 98.22702) rotate(-70.402869) scale(0.08 -0.08)">
      <use xlink:href="#DejaVuSansMono-31"/>
      <use xlink:href="#DejaVuSansMono-38" x="60.205078"/>
     </g>
    </g>
   </g>
   <g id="text_20">
    <g clip-path="url(#pe80a8b6e95)">
     <!-- 24 -->
     <g style="fill: #486afb" transform="translate(90.319459 57.023967) rotate(-63.250214) scale(0.08 -0.08)">
      <use xlink:href="#DejaVuSansMono-32"/>
      <use xlink:href="#DejaVuSansMono-34" x="60.205078"/>
     </g>
    </g>
   </g>
   <g id="text_21">
    <g clip-path="url(#pe80a8b6e95)">
     <!-- 24 -->
     <g style="fill: #486afb" transform="translate(221.809211 131.223967) rotate(-63.250214) scale(0.08 -0.08)">
      <use xlink:href="#DejaVuSansMono-32"/>
      <use xlink:href="#DejaVuSansMono-34" x="60.205078"/>
     </g>
    </g>
   </g>
   <g id="text_22">
    <g clip-path="url(#pe80a8b6e95)">
     <!-- 30 -->
     <g style="fill: #486afb" transform="translate(88.212771 42.17345) rotate(-61.081593) scale(0.08 -0.08)">
      <defs>
       <path id="DejaVuSansMono-33" d="M 2425 2497 
Q 2884 2375 3128 2064 
Q 3372 1753 3372 1288 
Q 3372 644 2939 276 
Q 2506 -91 1741 -91 
Q 1419 -91 1084 -31 
Q 750 28 428 141 
L 428 769 
Q 747 603 1056 522 
Q 1366 441 1672 441 
Q 2191 441 2469 675 
Q 2747 909 2747 1350 
Q 2747 1756 2469 1995 
Q 2191 2234 1716 2234 
L 1234 2234 
L 1234 2753 
L 1716 2753 
Q 2150 2753 2394 2943 
Q 2638 3134 2638 3475 
Q 2638 3834 2411 4026 
Q 2184 4219 1766 4219 
Q 1488 4219 1191 4156 
Q 894 4094 569 3969 
L 569 4550 
Q 947 4650 1242 4700 
Q 1538 4750 1766 4750 
Q 2447 4750 2855 4408 
Q 3263 4066 3263 3500 
Q 3263 3116 3048 2859 
Q 2834 2603 2425 2497 
z
" transform="scale(0.015625)"/>
      </defs>
      <use xlink:href="#DejaVuSansMono-33"/>
      <use xlink:href="#DejaVuSansMono-30" x="60.205078"/>
     </g>
    </g>
   </g>
   <g id="text_23">
    <g clip-path="url(#pe80a8b6e95)">
     <!-- 30 -->
     <g style="fill: #486afb" transform="translate(223.514743 146.05345) rotate(-61.081593) scale(0.08 -0.08)">
      <use xlink:href="#DejaVuSansMono-33"/>
      <use xlink:href="#DejaVuSansMono-30" x="60.205078"/>
     </g>
    </g>
   </g>
   <g id="text_24">
    <g clip-path="url(#pe80a8b6e95)">
     <!-- 36 -->
     <g style="fill: #486afb" transform="translate(87.598654 27.318182) rotate(-59.200119) scale(0.08 -0.08)">
      <use xlink:href="#DejaVuSansMono-33"/>
      <use xlink:href="#DejaVuSansMono-36" x="60.205078"/>
     </g>
    </g>
   </g>
   <g id="text_25">
    <g clip-path="url(#pe80a8b6e95)">
     <!-- 36 -->
     <g style="fill: #486afb" transform="translate(223.781679 160.878182) rotate(-59.200119) scale(0.08 -0.08)">
      <use xlink:href="#DejaVuSansMono-33"/>
      <use xlink:href="#DejaVuSansMono-36" x="60.205078"/>
     </g>
    </g>
   </g>
   <g id="text_26">
    <g clip-path="url(#pe80a8b6e95)">
     <!-- 42 -->
     <g style="fill: #486afb" transform="translate(62.368357 58.675716) rotate(-65.537855) scale(0.08 -0.08)">
      <use xlink:href="#DejaVuSansMono-34"/>
      <use xlink:href="#DejaVuSansMono-32" x="60.205078"/>
     </g>
    </g>
   </g>
   <g id="text_27">
    <g clip-path="url(#pe80a8b6e95)">
     <!-- 42 -->
     <g style="fill: #486afb" transform="translate(250.184025 129.577938) rotate(-65.537855) scale(0.08 -0.08)">
      <use xlink:href="#DejaVuSansMono-34"/>
      <use xlink:href="#DejaVuSansMono-32" x="60.205078"/>
     </g>
    </g>
   </g>
   <g id="text_28">
    <g clip-path="url(#pe80a8b6e95)">
     <!-- 48 -->
     <g style="fill: #486afb" transform="translate(73.800158 22.379505) rotate(-60.097079) scale(0.08 -0.08)">
      <use xlink:href="#DejaVuSansMono-34"/>
      <use xlink:href="#DejaVuSansMono-38" x="60.205078"/>
     </g>
    </g>
   </g>
   <g id="text_29">
    <g clip-path="url(#pe80a8b6e95)">
     <!-- 48 -->
     <g style="fill: #486afb" transform="translate(237.745562 165.832839) rotate(-60.097079) scale(0.08 -0.08)">
      <use xlink:href="#DejaVuSansMono-34"/>
      <use xlink:href="#DejaVuSansMono-38" x="60.205078"/>
     </g>
    </g>
   </g>
   <g id="text_30">
    <g clip-path="url(#pe80a8b6e95)">
     <!-- 54 -->
     <g style="fill: #486afb" transform="translate(261.835427 136.173598) rotate(-65.259863) scale(0.08 -0.08)">
      <defs>
       <path id="DejaVuSansMono-35" d="M 647 4666 
L 3009 4666 
L 3009 4134 
L 1222 4134 
L 1222 2988 
Q 1356 3038 1492 3061 
Q 1628 3084 1766 3084 
Q 2491 3084 2916 2656 
Q 3341 2228 3341 1497 
Q 3341 759 2895 334 
Q 2450 -91 1678 -91 
Q 1306 -91 998 -41 
Q 691 9 447 109 
L 447 750 
Q 734 594 1025 517 
Q 1316 441 1619 441 
Q 2141 441 2423 716 
Q 2706 991 2706 1497 
Q 2706 1997 2414 2275 
Q 2122 2553 1600 2553 
Q 1347 2553 1106 2495 
Q 866 2438 647 2322 
L 647 4666 
z
" transform="scale(0.015625)"/>
      </defs>
      <use xlink:href="#DejaVuSansMono-35"/>
      <use xlink:href="#DejaVuSansMono-34" x="60.205078"/>
     </g>
    </g>
   </g>
   <g id="text_31">
    <g clip-path="url(#pe80a8b6e95)">
     <!-- 54 -->
     <g style="fill: #486afb" transform="translate(50.665458 52.080264) rotate(-65.259863) scale(0.08 -0.08)">
      <use xlink:href="#DejaVuSansMono-35"/>
      <use xlink:href="#DejaVuSansMono-34" x="60.205078"/>
     </g>
    </g>
   </g>
   <g id="text_32">
    <g clip-path="url(#pe80a8b6e95)">
     <!-- 60 -->
     <g style="fill: #486afb" transform="translate(251.590377 167.489174) rotate(-61.107096) scale(0.08 -0.08)">
      <use xlink:href="#DejaVuSansMono-36"/>
      <use xlink:href="#DejaVuSansMono-30" x="60.205078"/>
     </g>
    </g>
   </g>
   <g id="text_33">
    <g clip-path="url(#pe80a8b6e95)">
     <!-- 60 -->
     <g style="fill: #486afb" transform="translate(60.14185 20.738063) rotate(-61.107096) scale(0.08 -0.08)">
      <use xlink:href="#DejaVuSansMono-36"/>
      <use xlink:href="#DejaVuSansMono-30" x="60.205078"/>
     </g>
    </g>
   </g>
   <g id="text_34">
    <g clip-path="url(#pe80a8b6e95)">
     <!-- 66 -->
     <g style="fill: #486afb" transform="translate(268.477696 149.363773) rotate(-64.087113) scale(0.08 -0.08)">
      <use xlink:href="#DejaVuSansMono-36"/>
      <use xlink:href="#DejaVuSansMono-36" x="60.205078"/>
     </g>
    </g>
   </g>
   <g id="text_35">
    <g clip-path="url(#pe80a8b6e95)">
     <!-- 66 -->
     <g style="fill: #486afb" transform="translate(43.805953 38.888217) rotate(-64.087113) scale(0.08 -0.08)">
      <use xlink:href="#DejaVuSansMono-36"/>
      <use xlink:href="#DejaVuSansMono-36" x="60.205078"/>
     </g>
    </g>
   </g>
   <g id="text_36">
    <g clip-path="url(#pe80a8b6e95)">
     <!-- 72 -->
     <g style="fill: #486afb" transform="translate(268.558492 160.902819) rotate(-62.909771) scale(0.08 -0.08)">
      <defs>
       <path id="DejaVuSansMono-37" d="M 434 4666 
L 3372 4666 
L 3372 4397 
L 1703 0 
L 1044 0 
L 2669 4134 
L 434 4134 
L 434 4666 
z
" transform="scale(0.015625)"/>
      </defs>
      <use xlink:href="#DejaVuSansMono-37"/>
      <use xlink:href="#DejaVuSansMono-32" x="60.205078"/>
     </g>
    </g>
   </g>
   <g id="text_37">
    <g clip-path="url(#pe80a8b6e95)">
     <!-- 72 -->
     <g style="fill: #486afb" transform="translate(43.507154 27.342819) rotate(-62.909771) scale(0.08 -0.08)">
      <use xlink:href="#DejaVuSansMono-37"/>
      <use xlink:href="#DejaVuSansMono-32" x="60.205078"/>
     </g>
    </g>
   </g>
   <g id="text_38">
    <g clip-path="url(#pe80a8b6e95)">
     <!-- 78 -->
     <g style="fill: #486afb" transform="translate(269.110146 170.792399) rotate(-62.046112) scale(0.08 -0.08)">
      <use xlink:href="#DejaVuSansMono-37"/>
      <use xlink:href="#DejaVuSansMono-38" x="60.205078"/>
     </g>
    </g>
   </g>
   <g id="text_39">
    <g clip-path="url(#pe80a8b6e95)">
     <!-- 78 -->
     <g style="fill: #486afb" transform="translate(42.795687 17.445732) rotate(-62.046112) scale(0.08 -0.08)">
      <use xlink:href="#DejaVuSansMono-37"/>
      <use xlink:href="#DejaVuSansMono-38" x="60.205078"/>
     </g>
    </g>
   </g>
  </g>
 </g>
 <defs>
  <clipPath id="pe80a8b6e95">
   <rect x="39.971875" y="7.2" width="232.54" height="163.24"/>
  </clipPath>
 </defs>
</svg>