<?xml version="1.0" encoding="utf-8" standalone="no"?>
<!DOCTYPE svg PUBLIC "-//W3C//DTD SVG 1.1//EN"
  "http://www.w3.org/Graphics/SVG/1.1/DTD/svg11.dtd">
<svg xmlns:xlink="http://www.w3.org/1999/xlink" width="712.422187pt" height="284.438125pt" viewBox="0 0 712.422187 284.438125" xmlns="http://www.w3.org/2000/svg" version="1.1">
 <metadata>
  <rdf:RDF xmlns:dc="http://purl.org/dc/elements/1.1/" xmlns:cc="http://creativecommons.org/ns#" xmlns:rdf="http://www.w3.org/1999/02/22-rdf-syntax-ns#">
   <cc:Work>
    <dc:type rdf:resource="http://purl.org/dc/dcmitype/StillImage"/>
    <dc:date>2024-03-24T11:19:47.847829</dc:date>
    <dc:format>image/svg+xml</dc:format>
    <dc:creator>
     <cc:Agent>
      <dc:title>Matplotlib v3.8.3, https://matplotlib.org/</dc:title>
     </cc:Agent>
    </dc:creator>
   </cc:Work>
  </rdf:RDF>
 </metadata>
 <defs>
  <style type="text/css">*{stroke-linejoin: round; stroke-linecap: butt}</style>
 </defs>
 <g id="figure_1">
  <g id="patch_1">
   <path d="M 0 284.438125 
L 712.422187 284.438125 
L 712.422187 0 
L 0 0 
z
" style="fill: #ffffff"/>
  </g>
  <g id="axes_1">
   <g id="patch_2">
    <path d="M 45.992188 246.76 
L 368.457187 246.76 
L 368.457187 54.144 
L 45.992188 54.144 
z
" style="fill: #ffffff"/>
   </g>
   <g id="matplotlib.axis_1">
    <g id="xtick_1">
     <g id="line2d_1">
      <path d="M 57.658361 246.76 
L 57.658361 54.144 
" clip-path="url(#pe7fa062a3e)" style="fill: none; stroke-dasharray: 2.22,0.96; stroke-dashoffset: 0; stroke: #6c6066; stroke-opacity: 0.4; stroke-width: 0.6"/>
     </g>
     <g id="line2d_2">
      <defs>
       <path id="m7bc6172375" d="M 0 0 
L 0 3.5 
" style="stroke: #000000; stroke-width: 0.8"/>
      </defs>
      <g>
       <use xlink:href="#m7bc6172375" x="57.658361" y="246.76" style="stroke: #000000; stroke-width: 0.8"/>
      </g>
     </g>
     <g id="text_1">
      <!-- 0.0 -->
      <g transform="translate(48.627892 261.411562) scale(0.1 -0.1)">
       <defs>
        <path id="DejaVuSansMono-30" d="M 1509 2344 
Q 1509 2516 1629 2641 
Q 1750 2766 1919 2766 
Q 2094 2766 2219 2641 
Q 2344 2516 2344 2344 
Q 2344 2169 2220 2047 
Q 2097 1925 1919 1925 
Q 1744 1925 1626 2044 
Q 1509 2163 1509 2344 
z
M 1925 4250 
Q 1484 4250 1267 3775 
Q 1050 3300 1050 2328 
Q 1050 1359 1267 884 
Q 1484 409 1925 409 
Q 2369 409 2586 884 
Q 2803 1359 2803 2328 
Q 2803 3300 2586 3775 
Q 2369 4250 1925 4250 
z
M 1925 4750 
Q 2672 4750 3055 4137 
Q 3438 3525 3438 2328 
Q 3438 1134 3055 521 
Q 2672 -91 1925 -91 
Q 1178 -91 797 521 
Q 416 1134 416 2328 
Q 416 3525 797 4137 
Q 1178 4750 1925 4750 
z
" transform="scale(0.015625)"/>
        <path id="DejaVuSansMono-2e" d="M 1528 953 
L 2316 953 
L 2316 0 
L 1528 0 
L 1528 953 
z
" transform="scale(0.015625)"/>
       </defs>
       <use xlink:href="#DejaVuSansMono-30"/>
       <use xlink:href="#DejaVuSansMono-2e" x="60.205078"/>
       <use xlink:href="#DejaVuSansMono-30" x="120.410156"/>
      </g>
     </g>
    </g>
    <g id="xtick_2">
     <g id="line2d_3">
      <path d="M 117.484892 246.76 
L 117.484892 54.144 
" clip-path="url(#pe7fa062a3e)" style="fill: none; stroke-dasharray: 2.22,0.96; stroke-dashoffset: 0; stroke: #6c6066; stroke-opacity: 0.4; stroke-width: 0.6"/>
     </g>
     <g id="line2d_4">
      <g>
       <use xlink:href="#m7bc6172375" x="117.484892" y="246.76" style="stroke: #000000; stroke-width: 0.8"/>
      </g>
     </g>
     <g id="text_2">
      <!-- 0.2 -->
      <g transform="translate(108.454423 261.411562) scale(0.1 -0.1)">
       <defs>
        <path id="DejaVuSansMono-32" d="M 1166 531 
L 3309 531 
L 3309 0 
L 475 0 
L 475 531 
Q 1059 1147 1496 1619 
Q 1934 2091 2100 2284 
Q 2413 2666 2522 2902 
Q 2631 3138 2631 3384 
Q 2631 3775 2401 3997 
Q 2172 4219 1772 4219 
Q 1488 4219 1175 4116 
Q 863 4013 513 3803 
L 513 4441 
Q 834 4594 1145 4672 
Q 1456 4750 1759 4750 
Q 2444 4750 2861 4386 
Q 3278 4022 3278 3431 
Q 3278 3131 3139 2831 
Q 3000 2531 2688 2169 
Q 2513 1966 2180 1606 
Q 1847 1247 1166 531 
z
" transform="scale(0.015625)"/>
       </defs>
       <use xlink:href="#DejaVuSansMono-30"/>
       <use xlink:href="#DejaVuSansMono-2e" x="60.205078"/>
       <use xlink:href="#DejaVuSansMono-32" x="120.410156"/>
      </g>
     </g>
    </g>
    <g id="xtick_3">
     <g id="line2d_5">
      <path d="M 177.311422 246.76 
L 177.311422 54.144 
" clip-path="url(#pe7fa062a3e)" style="fill: none; stroke-dasharray: 2.22,0.96; stroke-dashoffset: 0; stroke: #6c6066; stroke-opacity: 0.4; stroke-width: 0.6"/>
     </g>
     <g id="line2d_6">
      <g>
       <use xlink:href="#m7bc6172375" x="177.311422" y="246.76" style="stroke: #000000; stroke-width: 0.8"/>
      </g>
     </g>
     <g id="text_3">
      <!-- 0.4 -->
      <g transform="translate(168.280953 261.411562) scale(0.1 -0.1)">
       <defs>
        <path id="DejaVuSansMono-34" d="M 2297 4091 
L 825 1625 
L 2297 1625 
L 2297 4091 
z
M 2194 4666 
L 2925 4666 
L 2925 1625 
L 3547 1625 
L 3547 1113 
L 2925 1113 
L 2925 0 
L 2297 0 
L 2297 1113 
L 319 1113 
L 319 1709 
L 2194 4666 
z
" transform="scale(0.015625)"/>
       </defs>
       <use xlink:href="#DejaVuSansMono-30"/>
       <use xlink:href="#DejaVuSansMono-2e" x="60.205078"/>
       <use xlink:href="#DejaVuSansMono-34" x="120.410156"/>
      </g>
     </g>
    </g>
    <g id="xtick_4">
     <g id="line2d_7">
      <path d="M 237.137953 246.76 
L 237.137953 54.144 
" clip-path="url(#pe7fa062a3e)" style="fill: none; stroke-dasharray: 2.22,0.96; stroke-dashoffset: 0; stroke: #6c6066; stroke-opacity: 0.4; stroke-width: 0.6"/>
     </g>
     <g id="line2d_8">
      <g>
       <use xlink:href="#m7bc6172375" x="237.137953" y="246.76" style="stroke: #000000; stroke-width: 0.8"/>
      </g>
     </g>
     <g id="text_4">
      <!-- 0.6 -->
      <g transform="translate(228.107484 261.411562) scale(0.1 -0.1)">
       <defs>
        <path id="DejaVuSansMono-36" d="M 3097 4563 
L 3097 3981 
Q 2900 4097 2678 4158 
Q 2456 4219 2216 4219 
Q 1616 4219 1306 3767 
Q 997 3316 997 2438 
Q 1147 2750 1412 2917 
Q 1678 3084 2022 3084 
Q 2697 3084 3067 2670 
Q 3438 2256 3438 1497 
Q 3438 741 3056 325 
Q 2675 -91 1984 -91 
Q 1172 -91 794 492 
Q 416 1075 416 2328 
Q 416 3509 870 4129 
Q 1325 4750 2188 4750 
Q 2419 4750 2650 4701 
Q 2881 4653 3097 4563 
z
M 1972 2591 
Q 1569 2591 1337 2300 
Q 1106 2009 1106 1497 
Q 1106 984 1337 693 
Q 1569 403 1972 403 
Q 2391 403 2603 679 
Q 2816 956 2816 1497 
Q 2816 2041 2603 2316 
Q 2391 2591 1972 2591 
z
" transform="scale(0.015625)"/>
       </defs>
       <use xlink:href="#DejaVuSansMono-30"/>
       <use xlink:href="#DejaVuSansMono-2e" x="60.205078"/>
       <use xlink:href="#DejaVuSansMono-36" x="120.410156"/>
      </g>
     </g>
    </g>
    <g id="xtick_5">
     <g id="line2d_9">
      <path d="M 296.964483 246.76 
L 296.964483 54.144 
" clip-path="url(#pe7fa062a3e)" style="fill: none; stroke-dasharray: 2.22,0.96; stroke-dashoffset: 0; stroke: #6c6066; stroke-opacity: 0.4; stroke-width: 0.6"/>
     </g>
     <g id="line2d_10">
      <g>
       <use xlink:href="#m7bc6172375" x="296.964483" y="246.76" style="stroke: #000000; stroke-width: 0.8"/>
      </g>
     </g>
     <g id="text_5">
      <!-- 0.8 -->
      <g transform="translate(287.934015 261.411562) scale(0.1 -0.1)">
       <defs>
        <path id="DejaVuSansMono-38" d="M 1925 2216 
Q 1503 2216 1273 1980 
Q 1044 1744 1044 1313 
Q 1044 881 1276 642 
Q 1509 403 1925 403 
Q 2350 403 2579 639 
Q 2809 875 2809 1313 
Q 2809 1741 2576 1978 
Q 2344 2216 1925 2216 
z
M 1375 2478 
Q 972 2581 745 2862 
Q 519 3144 519 3541 
Q 519 4097 897 4423 
Q 1275 4750 1925 4750 
Q 2578 4750 2956 4423 
Q 3334 4097 3334 3541 
Q 3334 3144 3107 2862 
Q 2881 2581 2478 2478 
Q 2947 2375 3195 2062 
Q 3444 1750 3444 1253 
Q 3444 622 3041 265 
Q 2638 -91 1925 -91 
Q 1213 -91 811 264 
Q 409 619 409 1247 
Q 409 1747 657 2061 
Q 906 2375 1375 2478 
z
M 1147 3481 
Q 1147 3106 1347 2909 
Q 1547 2713 1925 2713 
Q 2306 2713 2506 2909 
Q 2706 3106 2706 3481 
Q 2706 3863 2507 4063 
Q 2309 4263 1925 4263 
Q 1547 4263 1347 4061 
Q 1147 3859 1147 3481 
z
" transform="scale(0.015625)"/>
       </defs>
       <use xlink:href="#DejaVuSansMono-30"/>
       <use xlink:href="#DejaVuSansMono-2e" x="60.205078"/>
       <use xlink:href="#DejaVuSansMono-38" x="120.410156"/>
      </g>
     </g>
    </g>
    <g id="xtick_6">
     <g id="line2d_11">
      <path d="M 356.791014 246.76 
L 356.791014 54.144 
" clip-path="url(#pe7fa062a3e)" style="fill: none; stroke-dasharray: 2.22,0.96; stroke-dashoffset: 0; stroke: #6c6066; stroke-opacity: 0.4; stroke-width: 0.6"/>
     </g>
     <g id="line2d_12">
      <g>
       <use xlink:href="#m7bc6172375" x="356.791014" y="246.76" style="stroke: #000000; stroke-width: 0.8"/>
      </g>
     </g>
     <g id="text_6">
      <!-- 1.0 -->
      <g transform="translate(347.760545 261.411562) scale(0.1 -0.1)">
       <defs>
        <path id="DejaVuSansMono-31" d="M 844 531 
L 1825 531 
L 1825 4097 
L 769 3859 
L 769 4434 
L 1819 4666 
L 2450 4666 
L 2450 531 
L 3419 531 
L 3419 0 
L 844 0 
L 844 531 
z
" transform="scale(0.015625)"/>
       </defs>
       <use xlink:href="#DejaVuSansMono-31"/>
       <use xlink:href="#DejaVuSansMono-2e" x="60.205078"/>
       <use xlink:href="#DejaVuSansMono-30" x="120.410156"/>
      </g>
     </g>
    </g>
    <g id="text_7">
     <!-- $\theta$ -->
     <g transform="translate(204.124687 275.142812) scale(0.1 -0.1)">
      <defs>
       <path id="DejaVuSans-Oblique-3b8" d="M 2913 2219 
L 925 2219 
Q 791 1284 928 888 
Q 1100 400 1566 400 
Q 2034 400 2391 891 
Q 2703 1322 2913 2219 
z
M 3009 2750 
Q 3094 3638 2984 3950 
Q 2813 4444 2353 4444 
Q 1875 4444 1525 3956 
Q 1250 3563 1034 2750 
L 3009 2750 
z
M 2444 4913 
Q 3194 4913 3494 4250 
Q 3794 3591 3566 2422 
Q 3341 1256 2781 594 
Q 2225 -72 1475 -72 
Q 722 -72 425 594 
Q 128 1256 353 2422 
Q 581 3591 1134 4250 
Q 1691 4913 2444 4913 
z
" transform="scale(0.015625)"/>
      </defs>
      <use xlink:href="#DejaVuSans-Oblique-3b8" transform="translate(0 0.234375)"/>
     </g>
    </g>
   </g>
   <g id="matplotlib.axis_2">
    <g id="ytick_1">
     <g id="line2d_13">
      <path d="M 45.992188 232.012919 
L 368.457187 232.012919 
" clip-path="url(#pe7fa062a3e)" style="fill: none; stroke-dasharray: 2.22,0.96; stroke-dashoffset: 0; stroke: #6c6066; stroke-opacity: 0.4; stroke-width: 0.6"/>
     </g>
     <g id="line2d_14">
      <defs>
       <path id="me74cdd74b9" d="M 0 0 
L -3.5 0 
" style="stroke: #000000; stroke-width: 0.8"/>
      </defs>
      <g>
       <use xlink:href="#me74cdd74b9" x="45.992188" y="232.012919" style="stroke: #000000; stroke-width: 0.8"/>
      </g>
     </g>
     <g id="text_8">
      <!-- 0.5 -->
      <g transform="translate(20.93125 235.8387) scale(0.1 -0.1)">
       <defs>
        <path id="DejaVuSansMono-35" d="M 647 4666 
L 3009 4666 
L 3009 4134 
L 1222 4134 
L 1222 2988 
Q 1356 3038 1492 3061 
Q 1628 3084 1766 3084 
Q 2491 3084 2916 2656 
Q 3341 2228 3341 1497 
Q 3341 759 2895 334 
Q 2450 -91 1678 -91 
Q 1306 -91 998 -41 
Q 691 9 447 109 
L 447 750 
Q 734 594 1025 517 
Q 1316 441 1619 441 
Q 2141 441 2423 716 
Q 2706 991 2706 1497 
Q 2706 1997 2414 2275 
Q 2122 2553 1600 2553 
Q 1347 2553 1106 2495 
Q 866 2438 647 2322 
L 647 4666 
z
" transform="scale(0.015625)"/>
       </defs>
       <use xlink:href="#DejaVuSansMono-30"/>
       <use xlink:href="#DejaVuSansMono-2e" x="60.205078"/>
       <use xlink:href="#DejaVuSansMono-35" x="120.410156"/>
      </g>
     </g>
    </g>
    <g id="ytick_2">
     <g id="line2d_15">
      <path d="M 45.992188 199.902276 
L 368.457187 199.902276 
" clip-path="url(#pe7fa062a3e)" style="fill: none; stroke-dasharray: 2.22,0.96; stroke-dashoffset: 0; stroke: #6c6066; stroke-opacity: 0.4; stroke-width: 0.6"/>
     </g>
     <g id="line2d_16">
      <g>
       <use xlink:href="#me74cdd74b9" x="45.992188" y="199.902276" style="stroke: #000000; stroke-width: 0.8"/>
      </g>
     </g>
     <g id="text_9">
      <!-- 1.0 -->
      <g transform="translate(20.93125 203.728057) scale(0.1 -0.1)">
       <use xlink:href="#DejaVuSansMono-31"/>
       <use xlink:href="#DejaVuSansMono-2e" x="60.205078"/>
       <use xlink:href="#DejaVuSansMono-30" x="120.410156"/>
      </g>
     </g>
    </g>
    <g id="ytick_3">
     <g id="line2d_17">
      <path d="M 45.992188 167.791633 
L 368.457187 167.791633 
" clip-path="url(#pe7fa062a3e)" style="fill: none; stroke-dasharray: 2.22,0.96; stroke-dashoffset: 0; stroke: #6c6066; stroke-opacity: 0.4; stroke-width: 0.6"/>
     </g>
     <g id="line2d_18">
      <g>
       <use xlink:href="#me74cdd74b9" x="45.992188" y="167.791633" style="stroke: #000000; stroke-width: 0.8"/>
      </g>
     </g>
     <g id="text_10">
      <!-- 1.5 -->
      <g transform="translate(20.93125 171.617414) scale(0.1 -0.1)">
       <use xlink:href="#DejaVuSansMono-31"/>
       <use xlink:href="#DejaVuSansMono-2e" x="60.205078"/>
       <use xlink:href="#DejaVuSansMono-35" x="120.410156"/>
      </g>
     </g>
    </g>
    <g id="ytick_4">
     <g id="line2d_19">
      <path d="M 45.992188 135.68099 
L 368.457187 135.68099 
" clip-path="url(#pe7fa062a3e)" style="fill: none; stroke-dasharray: 2.22,0.96; stroke-dashoffset: 0; stroke: #6c6066; stroke-opacity: 0.4; stroke-width: 0.6"/>
     </g>
     <g id="line2d_20">
      <g>
       <use xlink:href="#me74cdd74b9" x="45.992188" y="135.68099" style="stroke: #000000; stroke-width: 0.8"/>
      </g>
     </g>
     <g id="text_11">
      <!-- 2.0 -->
      <g transform="translate(20.93125 139.506771) scale(0.1 -0.1)">
       <use xlink:href="#DejaVuSansMono-32"/>
       <use xlink:href="#DejaVuSansMono-2e" x="60.205078"/>
       <use xlink:href="#DejaVuSansMono-30" x="120.410156"/>
      </g>
     </g>
    </g>
    <g id="ytick_5">
     <g id="line2d_21">
      <path d="M 45.992188 103.570347 
L 368.457187 103.570347 
" clip-path="url(#pe7fa062a3e)" style="fill: none; stroke-dasharray: 2.22,0.96; stroke-dashoffset: 0; stroke: #6c6066; stroke-opacity: 0.4; stroke-width: 0.6"/>
     </g>
     <g id="line2d_22">
      <g>
       <use xlink:href="#me74cdd74b9" x="45.992188" y="103.570347" style="stroke: #000000; stroke-width: 0.8"/>
      </g>
     </g>
     <g id="text_12">
      <!-- 2.5 -->
      <g transform="translate(20.93125 107.396128) scale(0.1 -0.1)">
       <use xlink:href="#DejaVuSansMono-32"/>
       <use xlink:href="#DejaVuSansMono-2e" x="60.205078"/>
       <use xlink:href="#DejaVuSansMono-35" x="120.410156"/>
      </g>
     </g>
    </g>
    <g id="ytick_6">
     <g id="line2d_23">
      <path d="M 45.992188 71.459704 
L 368.457187 71.459704 
" clip-path="url(#pe7fa062a3e)" style="fill: none; stroke-dasharray: 2.22,0.96; stroke-dashoffset: 0; stroke: #6c6066; stroke-opacity: 0.4; stroke-width: 0.6"/>
     </g>
     <g id="line2d_24">
      <g>
       <use xlink:href="#me74cdd74b9" x="45.992188" y="71.459704" style="stroke: #000000; stroke-width: 0.8"/>
      </g>
     </g>
     <g id="text_13">
      <!-- 3.0 -->
      <g transform="translate(20.93125 75.285485) scale(0.1 -0.1)">
       <defs>
        <path id="DejaVuSansMono-33" d="M 2425 2497 
Q 2884 2375 3128 2064 
Q 3372 1753 3372 1288 
Q 3372 644 2939 276 
Q 2506 -91 1741 -91 
Q 1419 -91 1084 -31 
Q 750 28 428 141 
L 428 769 
Q 747 603 1056 522 
Q 1366 441 1672 441 
Q 2191 441 2469 675 
Q 2747 909 2747 1350 
Q 2747 1756 2469 1995 
Q 2191 2234 1716 2234 
L 1234 2234 
L 1234 2753 
L 1716 2753 
Q 2150 2753 2394 2943 
Q 2638 3134 2638 3475 
Q 2638 3834 2411 4026 
Q 2184 4219 1766 4219 
Q 1488 4219 1191 4156 
Q 894 4094 569 3969 
L 569 4550 
Q 947 4650 1242 4700 
Q 1538 4750 1766 4750 
Q 2447 4750 2855 4408 
Q 3263 4066 3263 3500 
Q 3263 3116 3048 2859 
Q 2834 2603 2425 2497 
z
" transform="scale(0.015625)"/>
       </defs>
       <use xlink:href="#DejaVuSansMono-33"/>
       <use xlink:href="#DejaVuSansMono-2e" x="60.205078"/>
       <use xlink:href="#DejaVuSansMono-30" x="120.410156"/>
      </g>
     </g>
    </g>
    <g id="text_14">
     <!-- cross entropy -->
     <g transform="translate(14.851563 189.584031) rotate(-90) scale(0.1 -0.1)">
      <defs>
       <path id="DejaVuSansMono-63" d="M 3316 178 
Q 3084 44 2839 -23 
Q 2594 -91 2338 -91 
Q 1525 -91 1067 396 
Q 609 884 609 1747 
Q 609 2609 1067 3096 
Q 1525 3584 2338 3584 
Q 2591 3584 2831 3518 
Q 3072 3453 3316 3316 
L 3316 2713 
Q 3088 2916 2858 3006 
Q 2628 3097 2338 3097 
Q 1797 3097 1506 2747 
Q 1216 2397 1216 1747 
Q 1216 1100 1508 748 
Q 1800 397 2338 397 
Q 2638 397 2875 489 
Q 3113 581 3316 775 
L 3316 178 
z
" transform="scale(0.015625)"/>
       <path id="DejaVuSansMono-72" d="M 3609 2778 
Q 3425 2922 3234 2987 
Q 3044 3053 2816 3053 
Q 2278 3053 1993 2715 
Q 1709 2378 1709 1741 
L 1709 0 
L 1131 0 
L 1131 3500 
L 1709 3500 
L 1709 2816 
Q 1853 3188 2151 3386 
Q 2450 3584 2859 3584 
Q 3072 3584 3256 3531 
Q 3441 3478 3609 3366 
L 3609 2778 
z
" transform="scale(0.015625)"/>
       <path id="DejaVuSansMono-6f" d="M 1925 3097 
Q 1488 3097 1263 2756 
Q 1038 2416 1038 1747 
Q 1038 1081 1263 739 
Q 1488 397 1925 397 
Q 2366 397 2591 739 
Q 2816 1081 2816 1747 
Q 2816 2416 2591 2756 
Q 2366 3097 1925 3097 
z
M 1925 3584 
Q 2653 3584 3039 3112 
Q 3425 2641 3425 1747 
Q 3425 850 3040 379 
Q 2656 -91 1925 -91 
Q 1197 -91 812 379 
Q 428 850 428 1747 
Q 428 2641 812 3112 
Q 1197 3584 1925 3584 
z
" transform="scale(0.015625)"/>
       <path id="DejaVuSansMono-73" d="M 3041 3378 
L 3041 2816 
Q 2794 2959 2544 3031 
Q 2294 3103 2034 3103 
Q 1644 3103 1451 2976 
Q 1259 2850 1259 2591 
Q 1259 2356 1403 2240 
Q 1547 2125 2119 2016 
L 2350 1972 
Q 2778 1891 2998 1647 
Q 3219 1403 3219 1013 
Q 3219 494 2850 201 
Q 2481 -91 1825 -91 
Q 1566 -91 1281 -36 
Q 997 19 666 128 
L 666 722 
Q 988 556 1281 473 
Q 1575 391 1838 391 
Q 2219 391 2428 545 
Q 2638 700 2638 978 
Q 2638 1378 1872 1531 
L 1847 1538 
L 1631 1581 
Q 1134 1678 906 1908 
Q 678 2138 678 2534 
Q 678 3038 1018 3311 
Q 1359 3584 1991 3584 
Q 2272 3584 2531 3532 
Q 2791 3481 3041 3378 
z
" transform="scale(0.015625)"/>
       <path id="DejaVuSansMono-20" transform="scale(0.015625)"/>
       <path id="DejaVuSansMono-65" d="M 3475 1894 
L 3475 1613 
L 984 1613 
L 984 1594 
Q 984 1022 1282 709 
Q 1581 397 2125 397 
Q 2400 397 2700 484 
Q 3000 572 3341 750 
L 3341 178 
Q 3013 44 2708 -23 
Q 2403 -91 2119 -91 
Q 1303 -91 843 398 
Q 384 888 384 1747 
Q 384 2584 834 3084 
Q 1284 3584 2034 3584 
Q 2703 3584 3089 3131 
Q 3475 2678 3475 1894 
z
M 2900 2063 
Q 2888 2569 2661 2833 
Q 2434 3097 2009 3097 
Q 1594 3097 1325 2822 
Q 1056 2547 1006 2059 
L 2900 2063 
z
" transform="scale(0.015625)"/>
       <path id="DejaVuSansMono-6e" d="M 3284 2169 
L 3284 0 
L 2706 0 
L 2706 2169 
Q 2706 2641 2540 2862 
Q 2375 3084 2022 3084 
Q 1619 3084 1401 2798 
Q 1184 2513 1184 1978 
L 1184 0 
L 609 0 
L 609 3500 
L 1184 3500 
L 1184 2975 
Q 1338 3275 1600 3429 
Q 1863 3584 2222 3584 
Q 2756 3584 3020 3232 
Q 3284 2881 3284 2169 
z
" transform="scale(0.015625)"/>
       <path id="DejaVuSansMono-74" d="M 1919 4494 
L 1919 3500 
L 3225 3500 
L 3225 3053 
L 1919 3053 
L 1919 1153 
Q 1919 766 2066 612 
Q 2213 459 2578 459 
L 3225 459 
L 3225 0 
L 2522 0 
Q 1875 0 1609 259 
Q 1344 519 1344 1153 
L 1344 3053 
L 409 3053 
L 409 3500 
L 1344 3500 
L 1344 4494 
L 1919 4494 
z
" transform="scale(0.015625)"/>
       <path id="DejaVuSansMono-70" d="M 1172 441 
L 1172 -1331 
L 594 -1331 
L 594 3500 
L 1172 3500 
L 1172 3053 
Q 1316 3313 1555 3448 
Q 1794 3584 2106 3584 
Q 2741 3584 3102 3093 
Q 3463 2603 3463 1734 
Q 3463 881 3100 395 
Q 2738 -91 2106 -91 
Q 1788 -91 1548 45 
Q 1309 181 1172 441 
z
M 2859 1747 
Q 2859 2416 2648 2756 
Q 2438 3097 2022 3097 
Q 1603 3097 1387 2755 
Q 1172 2413 1172 1747 
Q 1172 1084 1387 740 
Q 1603 397 2022 397 
Q 2438 397 2648 737 
Q 2859 1078 2859 1747 
z
" transform="scale(0.015625)"/>
       <path id="DejaVuSansMono-79" d="M 2681 1125 
Q 2538 759 2316 163 
Q 2006 -663 1900 -844 
Q 1756 -1088 1540 -1209 
Q 1325 -1331 1038 -1331 
L 575 -1331 
L 575 -850 
L 916 -850 
Q 1169 -850 1312 -703 
Q 1456 -556 1678 56 
L 325 3500 
L 934 3500 
L 1972 763 
L 2994 3500 
L 3603 3500 
L 2681 1125 
z
" transform="scale(0.015625)"/>
      </defs>
      <use xlink:href="#DejaVuSansMono-63"/>
      <use xlink:href="#DejaVuSansMono-72" x="60.205078"/>
      <use xlink:href="#DejaVuSansMono-6f" x="120.410156"/>
      <use xlink:href="#DejaVuSansMono-73" x="180.615234"/>
      <use xlink:href="#DejaVuSansMono-73" x="240.820312"/>
      <use xlink:href="#DejaVuSansMono-20" x="301.025391"/>
      <use xlink:href="#DejaVuSansMono-65" x="361.230469"/>
      <use xlink:href="#DejaVuSansMono-6e" x="421.435547"/>
      <use xlink:href="#DejaVuSansMono-74" x="481.640625"/>
      <use xlink:href="#DejaVuSansMono-72" x="541.845703"/>
      <use xlink:href="#DejaVuSansMono-6f" x="602.050781"/>
      <use xlink:href="#DejaVuSansMono-70" x="662.255859"/>
      <use xlink:href="#DejaVuSansMono-79" x="722.460938"/>
     </g>
    </g>
   </g>
   <g id="line2d_25">
    <path d="M 60.649688 62.899273 
L 62.122803 80.275505 
L 63.595919 92.61948 
L 65.069034 102.189815 
L 66.54215 109.999792 
L 68.015265 116.592196 
L 69.488381 122.291926 
L 70.961497 127.308965 
L 72.434612 131.786902 
L 73.907728 135.828273 
L 75.380843 139.508855 
L 78.327074 146.005222 
L 81.273306 151.60321 
L 84.219537 156.514066 
L 87.165768 160.882123 
L 90.111999 164.810368 
L 93.05823 168.374866 
L 96.004461 171.633389 
L 98.950693 174.630843 
L 101.896924 177.402824 
L 106.31627 181.199321 
L 110.735617 184.627841 
L 115.154964 187.746058 
L 119.574311 190.598746 
L 123.993657 193.221343 
L 129.88612 196.40871 
L 135.778582 199.290709 
L 141.671044 201.909028 
L 147.563507 204.296647 
L 153.455969 206.480034 
L 160.821547 208.954422 
L 168.187125 211.176649 
L 175.552703 213.173203 
L 182.91828 214.965041 
L 191.756974 216.868101 
L 200.595667 218.522026 
L 209.434361 219.942748 
L 218.273054 221.141042 
L 227.111748 222.123019 
L 235.950441 222.890292 
L 244.789135 223.439808 
L 253.627828 223.763325 
L 262.466522 223.846399 
L 269.8321 223.716125 
L 277.197677 223.385099 
L 284.563255 222.827992 
L 291.928833 222.009821 
L 297.821296 221.134969 
L 303.713758 220.027405 
L 308.133105 219.016131 
L 312.552451 217.82087 
L 316.971798 216.406165 
L 321.391145 214.72382 
L 324.337376 213.421228 
L 327.283607 211.943071 
L 330.229838 210.253592 
L 333.176069 208.304343 
L 336.122301 206.027391 
L 339.068532 203.323262 
L 340.541647 201.766023 
L 342.014763 200.037837 
L 343.487878 198.103001 
L 344.960994 195.913204 
L 346.43411 193.400786 
L 347.907225 190.466798 
L 349.380341 186.958138 
L 350.853456 182.619017 
L 352.326572 176.971922 
L 353.799688 168.952454 
L 353.799688 168.952454 
" clip-path="url(#pe7fa062a3e)" style="fill: none; stroke: #486afb; stroke-width: 2; stroke-linecap: square"/>
   </g>
   <g id="line2d_26">
    <path d="M 72.614994 119.007694 
L 188.353907 119.007694 
L 188.353907 212.983819 
L 222.47234 212.983819 
L 222.47234 224.200718 
L 242.214627 224.200718 
L 242.214627 225.455228 
L 252.331446 225.455228 
L 252.331446 226.541532 
L 257.365482 226.541532 
L 257.365482 226.978225 
L 260.046016 226.978225 
L 260.046016 221.256361 
L 256.235793 221.256361 
L 256.235793 237.811585 
L 262.5694 237.811585 
L 262.5694 221.117225 
L 259.373997 221.117225 
L 259.373997 232.975567 
L 266.08973 232.975567 
L 266.08973 207.525264 
" clip-path="url(#pe7fa062a3e)" style="fill: none; stroke: #fd46fc; stroke-width: 2; stroke-linecap: square"/>
   </g>
   <g id="patch_3">
    <path d="M 45.992188 246.76 
L 45.992188 54.144 
" style="fill: none; stroke: #000000; stroke-width: 0.6; stroke-linejoin: miter; stroke-linecap: square"/>
   </g>
   <g id="patch_4">
    <path d="M 45.992188 246.76 
L 368.457188 246.76 
" style="fill: none; stroke: #000000; stroke-width: 0.6; stroke-linejoin: miter; stroke-linecap: square"/>
   </g>
   <g id="PathCollection_1">
    <defs>
     <path id="m26c2644999" d="M 0 3.354102 
C 0.889518 3.354102 1.742724 3.000693 2.371708 2.371708 
C 3.000693 1.742724 3.354102 0.889518 3.354102 0 
C 3.354102 -0.889518 3.000693 -1.742724 2.371708 -2.371708 
C 1.742724 -3.000693 0.889518 -3.354102 0 -3.354102 
C -0.889518 -3.354102 -1.742724 -3.000693 -2.371708 -2.371708 
C -3.000693 -1.742724 -3.354102 -0.889518 -3.354102 0 
C -3.354102 0.889518 -3.000693 1.742724 -2.371708 2.371708 
C -1.742724 3.000693 -0.889518 3.354102 0 3.354102 
z
" style="stroke: #fd46fc; stroke-width: 0.2"/>
    </defs>
    <g clip-path="url(#pe7fa062a3e)">
     <use xlink:href="#m26c2644999" x="72.614994" y="119.007694" style="fill: #fd46fc; stroke: #fd46fc; stroke-width: 0.2"/>
     <use xlink:href="#m26c2644999" x="188.353907" y="212.983819" style="fill: #fd46fc; stroke: #fd46fc; stroke-width: 0.2"/>
     <use xlink:href="#m26c2644999" x="222.47234" y="224.200718" style="fill: #fd46fc; stroke: #fd46fc; stroke-width: 0.2"/>
     <use xlink:href="#m26c2644999" x="242.214627" y="225.455228" style="fill: #fd46fc; stroke: #fd46fc; stroke-width: 0.2"/>
     <use xlink:href="#m26c2644999" x="252.331446" y="226.541532" style="fill: #fd46fc; stroke: #fd46fc; stroke-width: 0.2"/>
     <use xlink:href="#m26c2644999" x="257.365482" y="226.978225" style="fill: #fd46fc; stroke: #fd46fc; stroke-width: 0.2"/>
     <use xlink:href="#m26c2644999" x="260.046016" y="221.256361" style="fill: #fd46fc; stroke: #fd46fc; stroke-width: 0.2"/>
     <use xlink:href="#m26c2644999" x="256.235793" y="237.811585" style="fill: #fd46fc; stroke: #fd46fc; stroke-width: 0.2"/>
     <use xlink:href="#m26c2644999" x="262.5694" y="221.117225" style="fill: #fd46fc; stroke: #fd46fc; stroke-width: 0.2"/>
     <use xlink:href="#m26c2644999" x="259.373997" y="232.975567" style="fill: #fd46fc; stroke: #fd46fc; stroke-width: 0.2"/>
     <use xlink:href="#m26c2644999" x="266.08973" y="207.525264" style="fill: #fd46fc; stroke: #fd46fc; stroke-width: 0.2"/>
    </g>
   </g>
  </g>
  <g id="axes_2">
   <g id="patch_5">
    <path d="M 382.757187 246.76 
L 705.222188 246.76 
L 705.222188 54.144 
L 382.757187 54.144 
z
" style="fill: #ffffff"/>
   </g>
   <g id="matplotlib.axis_3">
    <g id="xtick_7">
     <g id="line2d_27">
      <path d="M 397.414688 246.76 
L 397.414688 54.144 
" clip-path="url(#p0080ea7b3a)" style="fill: none; stroke-dasharray: 2.22,0.96; stroke-dashoffset: 0; stroke: #6c6066; stroke-opacity: 0.4; stroke-width: 0.6"/>
     </g>
     <g id="line2d_28">
      <g>
       <use xlink:href="#m7bc6172375" x="397.414688" y="246.76" style="stroke: #000000; stroke-width: 0.8"/>
      </g>
     </g>
     <g id="text_15">
      <!-- 0 -->
      <g transform="translate(394.404531 261.411562) scale(0.1 -0.1)">
       <use xlink:href="#DejaVuSansMono-30"/>
      </g>
     </g>
    </g>
    <g id="xtick_8">
     <g id="line2d_29">
      <path d="M 434.058438 246.76 
L 434.058438 54.144 
" clip-path="url(#p0080ea7b3a)" style="fill: none; stroke-dasharray: 2.22,0.96; stroke-dashoffset: 0; stroke: #6c6066; stroke-opacity: 0.4; stroke-width: 0.6"/>
     </g>
     <g id="line2d_30">
      <g>
       <use xlink:href="#m7bc6172375" x="434.058438" y="246.76" style="stroke: #000000; stroke-width: 0.8"/>
      </g>
     </g>
     <g id="text_16">
      <!-- 20 -->
      <g transform="translate(428.038125 261.411562) scale(0.1 -0.1)">
       <use xlink:href="#DejaVuSansMono-32"/>
       <use xlink:href="#DejaVuSansMono-30" x="60.205078"/>
      </g>
     </g>
    </g>
    <g id="xtick_9">
     <g id="line2d_31">
      <path d="M 470.702188 246.76 
L 470.702188 54.144 
" clip-path="url(#p0080ea7b3a)" style="fill: none; stroke-dasharray: 2.22,0.96; stroke-dashoffset: 0; stroke: #6c6066; stroke-opacity: 0.4; stroke-width: 0.6"/>
     </g>
     <g id="line2d_32">
      <g>
       <use xlink:href="#m7bc6172375" x="470.702188" y="246.76" style="stroke: #000000; stroke-width: 0.8"/>
      </g>
     </g>
     <g id="text_17">
      <!-- 40 -->
      <g transform="translate(464.681875 261.411562) scale(0.1 -0.1)">
       <use xlink:href="#DejaVuSansMono-34"/>
       <use xlink:href="#DejaVuSansMono-30" x="60.205078"/>
      </g>
     </g>
    </g>
    <g id="xtick_10">
     <g id="line2d_33">
      <path d="M 507.345938 246.76 
L 507.345938 54.144 
" clip-path="url(#p0080ea7b3a)" style="fill: none; stroke-dasharray: 2.22,0.96; stroke-dashoffset: 0; stroke: #6c6066; stroke-opacity: 0.4; stroke-width: 0.6"/>
     </g>
     <g id="line2d_34">
      <g>
       <use xlink:href="#m7bc6172375" x="507.345938" y="246.76" style="stroke: #000000; stroke-width: 0.8"/>
      </g>
     </g>
     <g id="text_18">
      <!-- 60 -->
      <g transform="translate(501.325625 261.411562) scale(0.1 -0.1)">
       <use xlink:href="#DejaVuSansMono-36"/>
       <use xlink:href="#DejaVuSansMono-30" x="60.205078"/>
      </g>
     </g>
    </g>
    <g id="xtick_11">
     <g id="line2d_35">
      <path d="M 543.989688 246.76 
L 543.989688 54.144 
" clip-path="url(#p0080ea7b3a)" style="fill: none; stroke-dasharray: 2.22,0.96; stroke-dashoffset: 0; stroke: #6c6066; stroke-opacity: 0.4; stroke-width: 0.6"/>
     </g>
     <g id="line2d_36">
      <g>
       <use xlink:href="#m7bc6172375" x="543.989688" y="246.76" style="stroke: #000000; stroke-width: 0.8"/>
      </g>
     </g>
     <g id="text_19">
      <!-- 80 -->
      <g transform="translate(537.969375 261.411562) scale(0.1 -0.1)">
       <use xlink:href="#DejaVuSansMono-38"/>
       <use xlink:href="#DejaVuSansMono-30" x="60.205078"/>
      </g>
     </g>
    </g>
    <g id="xtick_12">
     <g id="line2d_37">
      <path d="M 580.633438 246.76 
L 580.633438 54.144 
" clip-path="url(#p0080ea7b3a)" style="fill: none; stroke-dasharray: 2.22,0.96; stroke-dashoffset: 0; stroke: #6c6066; stroke-opacity: 0.4; stroke-width: 0.6"/>
     </g>
     <g id="line2d_38">
      <g>
       <use xlink:href="#m7bc6172375" x="580.633438" y="246.76" style="stroke: #000000; stroke-width: 0.8"/>
      </g>
     </g>
     <g id="text_20">
      <!-- 100 -->
      <g transform="translate(571.602969 261.411562) scale(0.1 -0.1)">
       <use xlink:href="#DejaVuSansMono-31"/>
       <use xlink:href="#DejaVuSansMono-30" x="60.205078"/>
       <use xlink:href="#DejaVuSansMono-30" x="120.410156"/>
      </g>
     </g>
    </g>
    <g id="xtick_13">
     <g id="line2d_39">
      <path d="M 617.277188 246.76 
L 617.277188 54.144 
" clip-path="url(#p0080ea7b3a)" style="fill: none; stroke-dasharray: 2.22,0.96; stroke-dashoffset: 0; stroke: #6c6066; stroke-opacity: 0.4; stroke-width: 0.6"/>
     </g>
     <g id="line2d_40">
      <g>
       <use xlink:href="#m7bc6172375" x="617.277188" y="246.76" style="stroke: #000000; stroke-width: 0.8"/>
      </g>
     </g>
     <g id="text_21">
      <!-- 120 -->
      <g transform="translate(608.246719 261.411562) scale(0.1 -0.1)">
       <use xlink:href="#DejaVuSansMono-31"/>
       <use xlink:href="#DejaVuSansMono-32" x="60.205078"/>
       <use xlink:href="#DejaVuSansMono-30" x="120.410156"/>
      </g>
     </g>
    </g>
    <g id="xtick_14">
     <g id="line2d_41">
      <path d="M 653.920938 246.76 
L 653.920938 54.144 
" clip-path="url(#p0080ea7b3a)" style="fill: none; stroke-dasharray: 2.22,0.96; stroke-dashoffset: 0; stroke: #6c6066; stroke-opacity: 0.4; stroke-width: 0.6"/>
     </g>
     <g id="line2d_42">
      <g>
       <use xlink:href="#m7bc6172375" x="653.920938" y="246.76" style="stroke: #000000; stroke-width: 0.8"/>
      </g>
     </g>
     <g id="text_22">
      <!-- 140 -->
      <g transform="translate(644.890469 261.411562) scale(0.1 -0.1)">
       <use xlink:href="#DejaVuSansMono-31"/>
       <use xlink:href="#DejaVuSansMono-34" x="60.205078"/>
       <use xlink:href="#DejaVuSansMono-30" x="120.410156"/>
      </g>
     </g>
    </g>
    <g id="xtick_15">
     <g id="line2d_43">
      <path d="M 690.564687 246.76 
L 690.564687 54.144 
" clip-path="url(#p0080ea7b3a)" style="fill: none; stroke-dasharray: 2.22,0.96; stroke-dashoffset: 0; stroke: #6c6066; stroke-opacity: 0.4; stroke-width: 0.6"/>
     </g>
     <g id="line2d_44">
      <g>
       <use xlink:href="#m7bc6172375" x="690.564687" y="246.76" style="stroke: #000000; stroke-width: 0.8"/>
      </g>
     </g>
     <g id="text_23">
      <!-- 160 -->
      <g transform="translate(681.534219 261.411562) scale(0.1 -0.1)">
       <use xlink:href="#DejaVuSansMono-31"/>
       <use xlink:href="#DejaVuSansMono-36" x="60.205078"/>
       <use xlink:href="#DejaVuSansMono-30" x="120.410156"/>
      </g>
     </g>
    </g>
    <g id="text_24">
     <!-- gradient steps -->
     <g transform="translate(501.8475 275.089687) scale(0.1 -0.1)">
      <defs>
       <path id="DejaVuSansMono-67" d="M 2681 1778 
Q 2681 2425 2470 2761 
Q 2259 3097 1856 3097 
Q 1434 3097 1212 2761 
Q 991 2425 991 1778 
Q 991 1131 1214 792 
Q 1438 453 1863 453 
Q 2259 453 2470 793 
Q 2681 1134 2681 1778 
z
M 3256 225 
Q 3256 -563 2884 -969 
Q 2513 -1375 1791 -1375 
Q 1553 -1375 1293 -1331 
Q 1034 -1288 775 -1203 
L 775 -634 
Q 1081 -778 1331 -847 
Q 1581 -916 1791 -916 
Q 2256 -916 2468 -662 
Q 2681 -409 2681 141 
L 2681 166 
L 2681 556 
Q 2544 263 2306 119 
Q 2069 -25 1728 -25 
Q 1116 -25 750 465 
Q 384 956 384 1778 
Q 384 2603 750 3093 
Q 1116 3584 1728 3584 
Q 2066 3584 2300 3450 
Q 2534 3316 2681 3034 
L 2681 3488 
L 3256 3488 
L 3256 225 
z
" transform="scale(0.015625)"/>
       <path id="DejaVuSansMono-61" d="M 2194 1759 
L 2003 1759 
Q 1500 1759 1245 1582 
Q 991 1406 991 1056 
Q 991 741 1181 566 
Q 1372 391 1709 391 
Q 2184 391 2456 720 
Q 2728 1050 2731 1631 
L 2731 1759 
L 2194 1759 
z
M 3309 1997 
L 3309 0 
L 2731 0 
L 2731 519 
Q 2547 206 2267 57 
Q 1988 -91 1588 -91 
Q 1053 -91 734 211 
Q 416 513 416 1019 
Q 416 1603 808 1906 
Q 1200 2209 1959 2209 
L 2731 2209 
L 2731 2300 
Q 2728 2719 2518 2908 
Q 2309 3097 1850 3097 
Q 1556 3097 1256 3012 
Q 956 2928 672 2766 
L 672 3341 
Q 991 3463 1283 3523 
Q 1575 3584 1850 3584 
Q 2284 3584 2592 3456 
Q 2900 3328 3091 3072 
Q 3209 2916 3259 2686 
Q 3309 2456 3309 1997 
z
" transform="scale(0.015625)"/>
       <path id="DejaVuSansMono-64" d="M 2681 3053 
L 2681 4863 
L 3256 4863 
L 3256 0 
L 2681 0 
L 2681 441 
Q 2538 181 2298 45 
Q 2059 -91 1747 -91 
Q 1113 -91 748 401 
Q 384 894 384 1759 
Q 384 2613 750 3098 
Q 1116 3584 1747 3584 
Q 2063 3584 2303 3448 
Q 2544 3313 2681 3053 
z
M 991 1747 
Q 991 1078 1203 737 
Q 1416 397 1831 397 
Q 2247 397 2464 740 
Q 2681 1084 2681 1747 
Q 2681 2413 2464 2755 
Q 2247 3097 1831 3097 
Q 1416 3097 1203 2756 
Q 991 2416 991 1747 
z
" transform="scale(0.015625)"/>
       <path id="DejaVuSansMono-69" d="M 800 3500 
L 2272 3500 
L 2272 447 
L 3413 447 
L 3413 0 
L 556 0 
L 556 447 
L 1697 447 
L 1697 3053 
L 800 3053 
L 800 3500 
z
M 1697 4863 
L 2272 4863 
L 2272 4134 
L 1697 4134 
L 1697 4863 
z
" transform="scale(0.015625)"/>
      </defs>
      <use xlink:href="#DejaVuSansMono-67"/>
      <use xlink:href="#DejaVuSansMono-72" x="60.205078"/>
      <use xlink:href="#DejaVuSansMono-61" x="120.410156"/>
      <use xlink:href="#DejaVuSansMono-64" x="180.615234"/>
      <use xlink:href="#DejaVuSansMono-69" x="240.820312"/>
      <use xlink:href="#DejaVuSansMono-65" x="301.025391"/>
      <use xlink:href="#DejaVuSansMono-6e" x="361.230469"/>
      <use xlink:href="#DejaVuSansMono-74" x="421.435547"/>
      <use xlink:href="#DejaVuSansMono-20" x="481.640625"/>
      <use xlink:href="#DejaVuSansMono-73" x="541.845703"/>
      <use xlink:href="#DejaVuSansMono-74" x="602.050781"/>
      <use xlink:href="#DejaVuSansMono-65" x="662.255859"/>
      <use xlink:href="#DejaVuSansMono-70" x="722.460938"/>
      <use xlink:href="#DejaVuSansMono-73" x="782.666016"/>
     </g>
    </g>
   </g>
   <g id="matplotlib.axis_4">
    <g id="ytick_7">
     <g id="line2d_45">
      <path d="M 382.757187 232.012919 
L 705.222188 232.012919 
" clip-path="url(#p0080ea7b3a)" style="fill: none; stroke-dasharray: 2.22,0.96; stroke-dashoffset: 0; stroke: #6c6066; stroke-opacity: 0.4; stroke-width: 0.6"/>
     </g>
     <g id="line2d_46">
      <g>
       <use xlink:href="#me74cdd74b9" x="382.757187" y="232.012919" style="stroke: #000000; stroke-width: 0.8"/>
      </g>
     </g>
    </g>
    <g id="ytick_8">
     <g id="line2d_47">
      <path d="M 382.757187 199.902276 
L 705.222188 199.902276 
" clip-path="url(#p0080ea7b3a)" style="fill: none; stroke-dasharray: 2.22,0.96; stroke-dashoffset: 0; stroke: #6c6066; stroke-opacity: 0.4; stroke-width: 0.6"/>
     </g>
     <g id="line2d_48">
      <g>
       <use xlink:href="#me74cdd74b9" x="382.757187" y="199.902276" style="stroke: #000000; stroke-width: 0.8"/>
      </g>
     </g>
    </g>
    <g id="ytick_9">
     <g id="line2d_49">
      <path d="M 382.757187 167.791633 
L 705.222188 167.791633 
" clip-path="url(#p0080ea7b3a)" style="fill: none; stroke-dasharray: 2.22,0.96; stroke-dashoffset: 0; stroke: #6c6066; stroke-opacity: 0.4; stroke-width: 0.6"/>
     </g>
     <g id="line2d_50">
      <g>
       <use xlink:href="#me74cdd74b9" x="382.757187" y="167.791633" style="stroke: #000000; stroke-width: 0.8"/>
      </g>
     </g>
    </g>
    <g id="ytick_10">
     <g id="line2d_51">
      <path d="M 382.757187 135.68099 
L 705.222188 135.68099 
" clip-path="url(#p0080ea7b3a)" style="fill: none; stroke-dasharray: 2.22,0.96; stroke-dashoffset: 0; stroke: #6c6066; stroke-opacity: 0.4; stroke-width: 0.6"/>
     </g>
     <g id="line2d_52">
      <g>
       <use xlink:href="#me74cdd74b9" x="382.757187" y="135.68099" style="stroke: #000000; stroke-width: 0.8"/>
      </g>
     </g>
    </g>
    <g id="ytick_11">
     <g id="line2d_53">
      <path d="M 382.757187 103.570347 
L 705.222188 103.570347 
" clip-path="url(#p0080ea7b3a)" style="fill: none; stroke-dasharray: 2.22,0.96; stroke-dashoffset: 0; stroke: #6c6066; stroke-opacity: 0.4; stroke-width: 0.6"/>
     </g>
     <g id="line2d_54">
      <g>
       <use xlink:href="#me74cdd74b9" x="382.757187" y="103.570347" style="stroke: #000000; stroke-width: 0.8"/>
      </g>
     </g>
    </g>
    <g id="ytick_12">
     <g id="line2d_55">
      <path d="M 382.757187 71.459704 
L 705.222188 71.459704 
" clip-path="url(#p0080ea7b3a)" style="fill: none; stroke-dasharray: 2.22,0.96; stroke-dashoffset: 0; stroke: #6c6066; stroke-opacity: 0.4; stroke-width: 0.6"/>
     </g>
     <g id="line2d_56">
      <g>
       <use xlink:href="#me74cdd74b9" x="382.757187" y="71.459704" style="stroke: #000000; stroke-width: 0.8"/>
      </g>
     </g>
    </g>
   </g>
   <g id="line2d_57">
    <path d="M 397.414688 119.007694 
L 399.246875 182.435551 
L 401.079063 189.561507 
L 402.91125 186.273475 
L 404.743438 227.712866 
L 406.575625 199.145349 
L 408.407813 208.483062 
L 410.24 215.551749 
L 412.072188 193.997201 
L 415.736562 214.255068 
L 417.56875 224.913092 
L 419.400937 210.950645 
L 421.233125 212.368387 
L 423.065313 216.212875 
L 424.8975 216.654648 
L 426.729688 212.983819 
L 428.561875 217.88645 
L 430.394063 218.182863 
L 432.22625 217.431035 
L 434.058438 218.236338 
L 435.890625 219.285953 
L 439.555 219.722171 
L 441.387188 218.883037 
L 443.219375 220.061773 
L 445.051563 220.807381 
L 446.88375 222.26571 
L 448.715937 218.005945 
L 450.548125 220.595132 
L 452.380313 221.943306 
L 454.2125 220.854701 
L 456.044688 224.200718 
L 457.876875 221.145831 
L 459.709063 225.483791 
L 461.54125 221.356464 
L 463.373438 216.131177 
L 465.205625 223.616908 
L 468.87 224.256203 
L 470.702188 218.465782 
L 472.534375 227.288074 
L 474.366563 221.562098 
L 476.19875 224.903549 
L 478.030938 218.058058 
L 479.863125 218.188383 
L 481.695312 228.037604 
L 483.5275 225.239947 
L 487.191875 225.654986 
L 489.024063 221.635866 
L 490.85625 221.635969 
L 492.688438 225.831796 
L 494.520625 221.628294 
L 500.017188 221.63035 
L 501.849375 217.299532 
L 503.681563 225.773635 
L 505.51375 221.631578 
L 507.345938 221.632049 
L 509.178125 225.932833 
L 511.010313 230.575199 
L 512.8425 226.411786 
L 516.506875 226.661567 
L 518.339063 210.867633 
L 520.17125 216.718485 
L 522.003438 221.604787 
L 523.835625 221.607547 
L 525.667813 230.776519 
L 527.5 231.438376 
L 529.332188 216.179825 
L 532.996562 237.083336 
L 534.82875 209.841882 
L 536.660938 231.999552 
L 538.493125 221.377353 
L 540.325312 226.935778 
L 542.1575 221.353877 
L 543.989688 226.978225 
L 545.821875 227.064988 
L 547.654063 215.4178 
L 549.48625 232.535391 
L 551.318438 215.345993 
L 553.150625 226.992974 
L 556.815 227.157531 
L 558.647187 233.239668 
L 560.479375 221.064978 
L 562.311563 227.352612 
L 564.14375 214.716914 
L 565.975938 215.194175 
L 567.808125 209.895357 
L 569.640313 231.963673 
L 571.4725 232.553236 
L 573.304688 221.256361 
L 575.136875 227.130123 
L 576.969063 221.239629 
L 580.633438 221.308968 
L 582.465625 232.766342 
L 584.297813 227.25456 
L 586.13 202.634078 
L 587.962188 226.871224 
L 589.794375 226.96624 
L 591.626563 215.621937 
L 593.45875 232.304554 
L 595.290938 221.314151 
L 597.123125 221.343426 
L 598.955312 232.622626 
L 600.7875 209.30633 
L 602.619688 237.811585 
L 604.451875 221.220283 
L 606.284063 221.258578 
L 608.11625 227.127031 
L 609.948438 221.241704 
L 611.780625 221.277924 
L 613.612813 215.521892 
L 615.445 226.914809 
L 617.277188 227.006471 
L 619.109375 209.765389 
L 620.941563 237.338493 
L 622.77375 227.128405 
L 624.605937 221.240778 
L 626.438125 227.151441 
L 630.1025 227.292081 
L 633.766875 215.031995 
L 635.599063 227.121354 
L 639.263438 227.266569 
L 641.095625 233.522808 
L 642.927813 207.925098 
L 644.76 221.238699 
L 646.592188 215.396184 
L 648.424375 226.971148 
L 650.256563 227.058458 
L 652.08875 221.285384 
L 653.920938 232.859513 
L 655.753125 221.176994 
L 657.585313 215.206956 
L 659.4175 227.051514 
L 661.249688 232.975567 
L 663.081875 214.964927 
L 664.914062 215.413019 
L 666.74625 210.232939 
L 668.578438 231.732847 
L 670.410625 221.426086 
L 672.242813 226.837891 
L 674.075 238.004727 
L 675.907188 227.271484 
L 677.739375 233.535893 
L 679.571563 227.497957 
L 681.40375 214.277385 
L 683.235938 233.664977 
L 685.068125 220.920368 
L 686.900313 233.96911 
L 690.564687 207.525264 
L 690.564687 207.525264 
" clip-path="url(#p0080ea7b3a)" style="fill: none; stroke: #fd46fc; stroke-opacity: 0.45; stroke-width: 2; stroke-linecap: square"/>
   </g>
   <g id="patch_6">
    <path d="M 382.757187 246.76 
L 382.757187 54.144 
" style="fill: none; stroke: #000000; stroke-width: 0.6; stroke-linejoin: miter; stroke-linecap: square"/>
   </g>
   <g id="patch_7">
    <path d="M 382.757187 246.76 
L 705.222188 246.76 
" style="fill: none; stroke: #000000; stroke-width: 0.6; stroke-linejoin: miter; stroke-linecap: square"/>
   </g>
   <g id="PathCollection_2">
    <defs>
     <path id="mba021290f7" d="M 0 3.535534 
C 0.937635 3.535534 1.836992 3.163008 2.5 2.5 
C 3.163008 1.836992 3.535534 0.937635 3.535534 0 
C 3.535534 -0.937635 3.163008 -1.836992 2.5 -2.5 
C 1.836992 -3.163008 0.937635 -3.535534 0 -3.535534 
C -0.937635 -3.535534 -1.836992 -3.163008 -2.5 -2.5 
C -3.163008 -1.836992 -3.535534 -0.937635 -3.535534 0 
C -3.535534 0.937635 -3.163008 1.836992 -2.5 2.5 
C -1.836992 3.163008 -0.937635 3.535534 0 3.535534 
z
" style="stroke: #fd46fc; stroke-width: 0.2"/>
    </defs>
    <g clip-path="url(#p0080ea7b3a)">
     <use xlink:href="#mba021290f7" x="397.414688" y="119.007694" style="fill: #fd46fc; stroke: #fd46fc; stroke-width: 0.2"/>
     <use xlink:href="#mba021290f7" x="426.729688" y="212.983819" style="fill: #fd46fc; stroke: #fd46fc; stroke-width: 0.2"/>
     <use xlink:href="#mba021290f7" x="456.044688" y="224.200718" style="fill: #fd46fc; stroke: #fd46fc; stroke-width: 0.2"/>
     <use xlink:href="#mba021290f7" x="485.359688" y="225.455228" style="fill: #fd46fc; stroke: #fd46fc; stroke-width: 0.2"/>
     <use xlink:href="#mba021290f7" x="514.674688" y="226.541532" style="fill: #fd46fc; stroke: #fd46fc; stroke-width: 0.2"/>
     <use xlink:href="#mba021290f7" x="543.989688" y="226.978225" style="fill: #fd46fc; stroke: #fd46fc; stroke-width: 0.2"/>
     <use xlink:href="#mba021290f7" x="573.304688" y="221.256361" style="fill: #fd46fc; stroke: #fd46fc; stroke-width: 0.2"/>
     <use xlink:href="#mba021290f7" x="602.619688" y="237.811585" style="fill: #fd46fc; stroke: #fd46fc; stroke-width: 0.2"/>
     <use xlink:href="#mba021290f7" x="631.934688" y="221.117225" style="fill: #fd46fc; stroke: #fd46fc; stroke-width: 0.2"/>
     <use xlink:href="#mba021290f7" x="661.249688" y="232.975567" style="fill: #fd46fc; stroke: #fd46fc; stroke-width: 0.2"/>
     <use xlink:href="#mba021290f7" x="690.564687" y="207.525264" style="fill: #fd46fc; stroke: #fd46fc; stroke-width: 0.2"/>
    </g>
   </g>
  </g>
  <g id="text_25">
   <!-- stochastic gradient descent for univariate Bernoulli model -->
   <g transform="translate(146.515312 16.381875) scale(0.12 -0.12)">
    <defs>
     <path id="DejaVuSansMono-68" d="M 3284 2169 
L 3284 0 
L 2706 0 
L 2706 2169 
Q 2706 2641 2540 2862 
Q 2375 3084 2022 3084 
Q 1619 3084 1401 2798 
Q 1184 2513 1184 1978 
L 1184 0 
L 609 0 
L 609 4863 
L 1184 4863 
L 1184 2975 
Q 1338 3275 1600 3429 
Q 1863 3584 2222 3584 
Q 2756 3584 3020 3232 
Q 3284 2881 3284 2169 
z
" transform="scale(0.015625)"/>
     <path id="DejaVuSansMono-66" d="M 3322 4863 
L 3322 4384 
L 2669 4384 
Q 2359 4384 2239 4257 
Q 2119 4131 2119 3809 
L 2119 3500 
L 3322 3500 
L 3322 3053 
L 2119 3053 
L 2119 0 
L 1544 0 
L 1544 3053 
L 609 3053 
L 609 3500 
L 1544 3500 
L 1544 3744 
Q 1544 4319 1808 4591 
Q 2072 4863 2631 4863 
L 3322 4863 
z
" transform="scale(0.015625)"/>
     <path id="DejaVuSansMono-75" d="M 609 1325 
L 609 3494 
L 1184 3494 
L 1184 1325 
Q 1184 853 1351 631 
Q 1519 409 1869 409 
Q 2275 409 2490 695 
Q 2706 981 2706 1516 
L 2706 3494 
L 3284 3494 
L 3284 0 
L 2706 0 
L 2706 525 
Q 2553 222 2289 65 
Q 2025 -91 1672 -91 
Q 1134 -91 871 261 
Q 609 613 609 1325 
z
" transform="scale(0.015625)"/>
     <path id="DejaVuSansMono-76" d="M 313 3500 
L 909 3500 
L 1925 563 
L 2944 3500 
L 3541 3500 
L 2297 0 
L 1556 0 
L 313 3500 
z
" transform="scale(0.015625)"/>
     <path id="DejaVuSansMono-42" d="M 1153 2228 
L 1153 519 
L 1900 519 
Q 2450 519 2684 711 
Q 2919 903 2919 1344 
Q 2919 1800 2672 2014 
Q 2425 2228 1900 2228 
L 1153 2228 
z
M 1153 4147 
L 1153 2741 
L 1888 2741 
Q 2344 2741 2548 2916 
Q 2753 3091 2753 3481 
Q 2753 3834 2551 3990 
Q 2350 4147 1888 4147 
L 1153 4147 
z
M 519 4666 
L 1900 4666 
Q 2616 4666 3003 4356 
Q 3391 4047 3391 3481 
Q 3391 3053 3186 2806 
Q 2981 2559 2572 2497 
Q 3031 2428 3292 2104 
Q 3553 1781 3553 1281 
Q 3553 647 3137 323 
Q 2722 0 1900 0 
L 519 0 
L 519 4666 
z
" transform="scale(0.015625)"/>
     <path id="DejaVuSansMono-6c" d="M 1997 1269 
Q 1997 881 2139 684 
Q 2281 488 2559 488 
L 3231 488 
L 3231 0 
L 2503 0 
Q 1988 0 1705 331 
Q 1422 663 1422 1269 
L 1422 4447 
L 500 4447 
L 500 4897 
L 1997 4897 
L 1997 1269 
z
" transform="scale(0.015625)"/>
     <path id="DejaVuSansMono-6d" d="M 2113 3144 
Q 2219 3369 2383 3476 
Q 2547 3584 2778 3584 
Q 3200 3584 3373 3257 
Q 3547 2931 3547 2028 
L 3547 0 
L 3022 0 
L 3022 2003 
Q 3022 2744 2939 2923 
Q 2856 3103 2638 3103 
Q 2388 3103 2295 2911 
Q 2203 2719 2203 2003 
L 2203 0 
L 1678 0 
L 1678 2003 
Q 1678 2753 1589 2928 
Q 1500 3103 1269 3103 
Q 1041 3103 952 2911 
Q 863 2719 863 2003 
L 863 0 
L 341 0 
L 341 3500 
L 863 3500 
L 863 3200 
Q 966 3388 1120 3486 
Q 1275 3584 1472 3584 
Q 1709 3584 1867 3475 
Q 2025 3366 2113 3144 
z
" transform="scale(0.015625)"/>
    </defs>
    <use xlink:href="#DejaVuSansMono-73"/>
    <use xlink:href="#DejaVuSansMono-74" x="60.205078"/>
    <use xlink:href="#DejaVuSansMono-6f" x="120.410156"/>
    <use xlink:href="#DejaVuSansMono-63" x="180.615234"/>
    <use xlink:href="#DejaVuSansMono-68" x="240.820312"/>
    <use xlink:href="#DejaVuSansMono-61" x="301.025391"/>
    <use xlink:href="#DejaVuSansMono-73" x="361.230469"/>
    <use xlink:href="#DejaVuSansMono-74" x="421.435547"/>
    <use xlink:href="#DejaVuSansMono-69" x="481.640625"/>
    <use xlink:href="#DejaVuSansMono-63" x="541.845703"/>
    <use xlink:href="#DejaVuSansMono-20" x="602.050781"/>
    <use xlink:href="#DejaVuSansMono-67" x="662.255859"/>
    <use xlink:href="#DejaVuSansMono-72" x="722.460938"/>
    <use xlink:href="#DejaVuSansMono-61" x="782.666016"/>
    <use xlink:href="#DejaVuSansMono-64" x="842.871094"/>
    <use xlink:href="#DejaVuSansMono-69" x="903.076172"/>
    <use xlink:href="#DejaVuSansMono-65" x="963.28125"/>
    <use xlink:href="#DejaVuSansMono-6e" x="1023.486328"/>
    <use xlink:href="#DejaVuSansMono-74" x="1083.691406"/>
    <use xlink:href="#DejaVuSansMono-20" x="1143.896484"/>
    <use xlink:href="#DejaVuSansMono-64" x="1204.101562"/>
    <use xlink:href="#DejaVuSansMono-65" x="1264.306641"/>
    <use xlink:href="#DejaVuSansMono-73" x="1324.511719"/>
    <use xlink:href="#DejaVuSansMono-63" x="1384.716797"/>
    <use xlink:href="#DejaVuSansMono-65" x="1444.921875"/>
    <use xlink:href="#DejaVuSansMono-6e" x="1505.126953"/>
    <use xlink:href="#DejaVuSansMono-74" x="1565.332031"/>
    <use xlink:href="#DejaVuSansMono-20" x="1625.537109"/>
    <use xlink:href="#DejaVuSansMono-66" x="1685.742188"/>
    <use xlink:href="#DejaVuSansMono-6f" x="1745.947266"/>
    <use xlink:href="#DejaVuSansMono-72" x="1806.152344"/>
    <use xlink:href="#DejaVuSansMono-20" x="1866.357422"/>
    <use xlink:href="#DejaVuSansMono-75" x="1926.5625"/>
    <use xlink:href="#DejaVuSansMono-6e" x="1986.767578"/>
    <use xlink:href="#DejaVuSansMono-69" x="2046.972656"/>
    <use xlink:href="#DejaVuSansMono-76" x="2107.177734"/>
    <use xlink:href="#DejaVuSansMono-61" x="2167.382812"/>
    <use xlink:href="#DejaVuSansMono-72" x="2227.587891"/>
    <use xlink:href="#DejaVuSansMono-69" x="2287.792969"/>
    <use xlink:href="#DejaVuSansMono-61" x="2347.998047"/>
    <use xlink:href="#DejaVuSansMono-74" x="2408.203125"/>
    <use xlink:href="#DejaVuSansMono-65" x="2468.408203"/>
    <use xlink:href="#DejaVuSansMono-20" x="2528.613281"/>
    <use xlink:href="#DejaVuSansMono-42" x="2588.818359"/>
    <use xlink:href="#DejaVuSansMono-65" x="2649.023438"/>
    <use xlink:href="#DejaVuSansMono-72" x="2709.228516"/>
    <use xlink:href="#DejaVuSansMono-6e" x="2769.433594"/>
    <use xlink:href="#DejaVuSansMono-6f" x="2829.638672"/>
    <use xlink:href="#DejaVuSansMono-75" x="2889.84375"/>
    <use xlink:href="#DejaVuSansMono-6c" x="2950.048828"/>
    <use xlink:href="#DejaVuSansMono-6c" x="3010.253906"/>
    <use xlink:href="#DejaVuSansMono-69" x="3070.458984"/>
    <use xlink:href="#DejaVuSansMono-20" x="3130.664062"/>
    <use xlink:href="#DejaVuSansMono-6d" x="3190.869141"/>
    <use xlink:href="#DejaVuSansMono-6f" x="3251.074219"/>
    <use xlink:href="#DejaVuSansMono-64" x="3311.279297"/>
    <use xlink:href="#DejaVuSansMono-65" x="3371.484375"/>
    <use xlink:href="#DejaVuSansMono-6c" x="3431.689453"/>
   </g>
   <!-- $k=$8, $\alpha =$0.01, $\beta=$0, $N = $10 -->
   <g transform="translate(260.202187 30.048) scale(0.12 -0.12)">
    <defs>
     <path id="DejaVuSans-Oblique-6b" d="M 1172 4863 
L 1747 4863 
L 1197 2028 
L 3169 3500 
L 3916 3500 
L 1716 1825 
L 3322 0 
L 2625 0 
L 1131 1709 
L 800 0 
L 225 0 
L 1172 4863 
z
" transform="scale(0.015625)"/>
     <path id="DejaVuSans-3d" d="M 678 2906 
L 4684 2906 
L 4684 2381 
L 678 2381 
L 678 2906 
z
M 678 1631 
L 4684 1631 
L 4684 1100 
L 678 1100 
L 678 1631 
z
" transform="scale(0.015625)"/>
     <path id="DejaVuSansMono-2c" d="M 1569 947 
L 2356 947 
L 2356 300 
L 1741 -897 
L 1259 -897 
L 1569 300 
L 1569 947 
z
" transform="scale(0.015625)"/>
     <path id="DejaVuSans-Oblique-3b1" d="M 2619 1628 
L 2622 2350 
Q 2625 3088 2069 3091 
Q 1653 3094 1394 2747 
Q 1069 2319 959 1747 
Q 825 1059 994 731 
Q 1169 397 1547 397 
Q 1966 397 2319 1063 
L 2619 1628 
z
M 2166 3578 
Q 3141 3594 3128 2584 
Q 3128 2584 3616 3500 
L 4128 3500 
L 3119 1603 
L 3109 919 
Q 3109 766 3194 638 
Q 3291 488 3391 488 
L 3669 488 
L 3575 0 
L 3228 0 
Q 2934 0 2722 263 
Q 2622 394 2619 669 
Q 2416 334 2066 50 
Q 1900 -81 1453 -78 
Q 722 -72 456 397 
Q 184 884 353 1747 
Q 534 2675 1009 3097 
Q 1544 3569 2166 3578 
z
" transform="scale(0.015625)"/>
     <path id="DejaVuSans-Oblique-3b2" d="M 872 216 
L 572 -1331 
L -6 -1331 
L 928 3478 
Q 1206 4903 2538 4903 
Q 3888 4903 3659 3700 
Q 3503 2844 2894 2531 
Q 3713 2250 3553 1416 
Q 3272 -69 1759 -66 
Q 1097 -63 872 216 
z
M 1019 966 
Q 1259 422 1875 425 
Q 2775 425 2966 1406 
Q 3138 2288 1675 2219 
L 1778 2750 
Q 2909 2731 3106 3750 
Q 3241 4438 2509 4434 
Q 1691 4434 1503 3459 
L 1019 966 
z
" transform="scale(0.015625)"/>
     <path id="DejaVuSans-Oblique-4e" d="M 1081 4666 
L 1931 4666 
L 3219 666 
L 4000 4666 
L 4616 4666 
L 3706 0 
L 2853 0 
L 1569 4025 
L 788 0 
L 172 0 
L 1081 4666 
z
" transform="scale(0.015625)"/>
    </defs>
    <use xlink:href="#DejaVuSans-Oblique-6b" transform="translate(0 0.390625)"/>
    <use xlink:href="#DejaVuSans-3d" transform="translate(77.392578 0.390625)"/>
    <use xlink:href="#DejaVuSansMono-38" transform="translate(180.664062 0.390625)"/>
    <use xlink:href="#DejaVuSansMono-2c" transform="translate(240.869141 0.390625)"/>
    <use xlink:href="#DejaVuSansMono-20" transform="translate(301.074219 0.390625)"/>
    <use xlink:href="#DejaVuSans-Oblique-3b1" transform="translate(361.279297 0.390625)"/>
    <use xlink:href="#DejaVuSans-3d" transform="translate(446.679688 0.390625)"/>
    <use xlink:href="#DejaVuSansMono-30" transform="translate(549.951172 0.390625)"/>
    <use xlink:href="#DejaVuSansMono-2e" transform="translate(610.15625 0.390625)"/>
    <use xlink:href="#DejaVuSansMono-30" transform="translate(670.361328 0.390625)"/>
    <use xlink:href="#DejaVuSansMono-31" transform="translate(730.566406 0.390625)"/>
    <use xlink:href="#DejaVuSansMono-2c" transform="translate(790.771484 0.390625)"/>
    <use xlink:href="#DejaVuSansMono-20" transform="translate(850.976562 0.390625)"/>
    <use xlink:href="#DejaVuSans-Oblique-3b2" transform="translate(911.181641 0.390625)"/>
    <use xlink:href="#DejaVuSans-3d" transform="translate(994.482422 0.390625)"/>
    <use xlink:href="#DejaVuSansMono-30" transform="translate(1097.753906 0.390625)"/>
    <use xlink:href="#DejaVuSansMono-2c" transform="translate(1157.958984 0.390625)"/>
    <use xlink:href="#DejaVuSansMono-20" transform="translate(1218.164062 0.390625)"/>
    <use xlink:href="#DejaVuSans-Oblique-4e" transform="translate(1278.369141 0.390625)"/>
    <use xlink:href="#DejaVuSans-3d" transform="translate(1372.65625 0.390625)"/>
    <use xlink:href="#DejaVuSansMono-31" transform="translate(1475.927734 0.390625)"/>
    <use xlink:href="#DejaVuSansMono-30" transform="translate(1536.132812 0.390625)"/>
   </g>
  </g>
 </g>
 <defs>
  <clipPath id="pe7fa062a3e">
   <rect x="45.992188" y="54.144" width="322.465" height="192.616"/>
  </clipPath>
  <clipPath id="p0080ea7b3a">
   <rect x="382.757187" y="54.144" width="322.465" height="192.616"/>
  </clipPath>
 </defs>
</svg>