<?xml version="1.0" encoding="utf-8" standalone="no"?>
<!DOCTYPE svg PUBLIC "-//W3C//DTD SVG 1.1//EN"
  "http://www.w3.org/Graphics/SVG/1.1/DTD/svg11.dtd">
<svg xmlns:xlink="http://www.w3.org/1999/xlink" width="577.66125pt" height="349.764375pt" viewBox="0 0 577.66125 349.764375" xmlns="http://www.w3.org/2000/svg" version="1.1">
 <metadata>
  <rdf:RDF xmlns:dc="http://purl.org/dc/elements/1.1/" xmlns:cc="http://creativecommons.org/ns#" xmlns:rdf="http://www.w3.org/1999/02/22-rdf-syntax-ns#">
   <cc:Work>
    <dc:type rdf:resource="http://purl.org/dc/dcmitype/StillImage"/>
    <dc:date>2024-02-06T17:30:30.233101</dc:date>
    <dc:format>image/svg+xml</dc:format>
    <dc:creator>
     <cc:Agent>
      <dc:title>Matplotlib v3.8.2, https://matplotlib.org/</dc:title>
     </cc:Agent>
    </dc:creator>
   </cc:Work>
  </rdf:RDF>
 </metadata>
 <defs>
  <style type="text/css">*{stroke-linejoin: round; stroke-linecap: butt}</style>
 </defs>
 <g id="figure_1">
  <g id="patch_1">
   <path d="M 0 349.764375 
L 577.66125 349.764375 
L 577.66125 0 
L 0 0 
z
" style="fill: #ffffff"/>
  </g>
  <g id="axes_1">
   <g id="patch_2">
    <path d="M 52.08125 137.501875 
L 287.86125 137.501875 
L 287.86125 22.381875 
L 52.08125 22.381875 
z
" style="fill: #ffffff"/>
   </g>
   <g id="matplotlib.axis_1">
    <g id="xtick_1">
     <g id="line2d_1">
      <path d="M 89.591705 137.501875 
L 89.591705 22.381875 
" clip-path="url(#p5c6a522b46)" style="fill: none; stroke-dasharray: 2.22,0.96; stroke-dashoffset: 0; stroke: #6c6066; stroke-opacity: 0.4; stroke-width: 0.6"/>
     </g>
     <g id="line2d_2">
      <defs>
       <path id="m3382970c0f" d="M 0 0 
L 0 3.5 
" style="stroke: #000000; stroke-width: 0.8"/>
      </defs>
      <g>
       <use xlink:href="#m3382970c0f" x="89.591705" y="137.501875" style="stroke: #000000; stroke-width: 0.8"/>
      </g>
     </g>
     <g id="text_1">
      <!-- 0 -->
      <g transform="translate(86.581548 152.153437) scale(0.1 -0.1)">
       <defs>
        <path id="DejaVuSansMono-30" d="M 1509 2344 
Q 1509 2516 1629 2641 
Q 1750 2766 1919 2766 
Q 2094 2766 2219 2641 
Q 2344 2516 2344 2344 
Q 2344 2169 2220 2047 
Q 2097 1925 1919 1925 
Q 1744 1925 1626 2044 
Q 1509 2163 1509 2344 
z
M 1925 4250 
Q 1484 4250 1267 3775 
Q 1050 3300 1050 2328 
Q 1050 1359 1267 884 
Q 1484 409 1925 409 
Q 2369 409 2586 884 
Q 2803 1359 2803 2328 
Q 2803 3300 2586 3775 
Q 2369 4250 1925 4250 
z
M 1925 4750 
Q 2672 4750 3055 4137 
Q 3438 3525 3438 2328 
Q 3438 1134 3055 521 
Q 2672 -91 1925 -91 
Q 1178 -91 797 521 
Q 416 1134 416 2328 
Q 416 3525 797 4137 
Q 1178 4750 1925 4750 
z
" transform="scale(0.015625)"/>
       </defs>
       <use xlink:href="#DejaVuSansMono-30"/>
      </g>
     </g>
    </g>
    <g id="xtick_2">
     <g id="line2d_3">
      <path d="M 143.178068 137.501875 
L 143.178068 22.381875 
" clip-path="url(#p5c6a522b46)" style="fill: none; stroke-dasharray: 2.22,0.96; stroke-dashoffset: 0; stroke: #6c6066; stroke-opacity: 0.4; stroke-width: 0.6"/>
     </g>
     <g id="line2d_4">
      <g>
       <use xlink:href="#m3382970c0f" x="143.178068" y="137.501875" style="stroke: #000000; stroke-width: 0.8"/>
      </g>
     </g>
     <g id="text_2">
      <!-- 1 -->
      <g transform="translate(140.167912 152.153437) scale(0.1 -0.1)">
       <defs>
        <path id="DejaVuSansMono-31" d="M 844 531 
L 1825 531 
L 1825 4097 
L 769 3859 
L 769 4434 
L 1819 4666 
L 2450 4666 
L 2450 531 
L 3419 531 
L 3419 0 
L 844 0 
L 844 531 
z
" transform="scale(0.015625)"/>
       </defs>
       <use xlink:href="#DejaVuSansMono-31"/>
      </g>
     </g>
    </g>
    <g id="xtick_3">
     <g id="line2d_5">
      <path d="M 196.764432 137.501875 
L 196.764432 22.381875 
" clip-path="url(#p5c6a522b46)" style="fill: none; stroke-dasharray: 2.22,0.96; stroke-dashoffset: 0; stroke: #6c6066; stroke-opacity: 0.4; stroke-width: 0.6"/>
     </g>
     <g id="line2d_6">
      <g>
       <use xlink:href="#m3382970c0f" x="196.764432" y="137.501875" style="stroke: #000000; stroke-width: 0.8"/>
      </g>
     </g>
     <g id="text_3">
      <!-- 2 -->
      <g transform="translate(193.754276 152.153437) scale(0.1 -0.1)">
       <defs>
        <path id="DejaVuSansMono-32" d="M 1166 531 
L 3309 531 
L 3309 0 
L 475 0 
L 475 531 
Q 1059 1147 1496 1619 
Q 1934 2091 2100 2284 
Q 2413 2666 2522 2902 
Q 2631 3138 2631 3384 
Q 2631 3775 2401 3997 
Q 2172 4219 1772 4219 
Q 1488 4219 1175 4116 
Q 863 4013 513 3803 
L 513 4441 
Q 834 4594 1145 4672 
Q 1456 4750 1759 4750 
Q 2444 4750 2861 4386 
Q 3278 4022 3278 3431 
Q 3278 3131 3139 2831 
Q 3000 2531 2688 2169 
Q 2513 1966 2180 1606 
Q 1847 1247 1166 531 
z
" transform="scale(0.015625)"/>
       </defs>
       <use xlink:href="#DejaVuSansMono-32"/>
      </g>
     </g>
    </g>
    <g id="xtick_4">
     <g id="line2d_7">
      <path d="M 250.350795 137.501875 
L 250.350795 22.381875 
" clip-path="url(#p5c6a522b46)" style="fill: none; stroke-dasharray: 2.22,0.96; stroke-dashoffset: 0; stroke: #6c6066; stroke-opacity: 0.4; stroke-width: 0.6"/>
     </g>
     <g id="line2d_8">
      <g>
       <use xlink:href="#m3382970c0f" x="250.350795" y="137.501875" style="stroke: #000000; stroke-width: 0.8"/>
      </g>
     </g>
     <g id="text_4">
      <!-- 3 -->
      <g transform="translate(247.340639 152.153437) scale(0.1 -0.1)">
       <defs>
        <path id="DejaVuSansMono-33" d="M 2425 2497 
Q 2884 2375 3128 2064 
Q 3372 1753 3372 1288 
Q 3372 644 2939 276 
Q 2506 -91 1741 -91 
Q 1419 -91 1084 -31 
Q 750 28 428 141 
L 428 769 
Q 747 603 1056 522 
Q 1366 441 1672 441 
Q 2191 441 2469 675 
Q 2747 909 2747 1350 
Q 2747 1756 2469 1995 
Q 2191 2234 1716 2234 
L 1234 2234 
L 1234 2753 
L 1716 2753 
Q 2150 2753 2394 2943 
Q 2638 3134 2638 3475 
Q 2638 3834 2411 4026 
Q 2184 4219 1766 4219 
Q 1488 4219 1191 4156 
Q 894 4094 569 3969 
L 569 4550 
Q 947 4650 1242 4700 
Q 1538 4750 1766 4750 
Q 2447 4750 2855 4408 
Q 3263 4066 3263 3500 
Q 3263 3116 3048 2859 
Q 2834 2603 2425 2497 
z
" transform="scale(0.015625)"/>
       </defs>
       <use xlink:href="#DejaVuSansMono-33"/>
      </g>
     </g>
    </g>
    <g id="text_5">
     <!-- $\theta$ -->
     <g transform="translate(166.87125 165.884687) scale(0.1 -0.1)">
      <defs>
       <path id="DejaVuSans-Oblique-3b8" d="M 2913 2219 
L 925 2219 
Q 791 1284 928 888 
Q 1100 400 1566 400 
Q 2034 400 2391 891 
Q 2703 1322 2913 2219 
z
M 3009 2750 
Q 3094 3638 2984 3950 
Q 2813 4444 2353 4444 
Q 1875 4444 1525 3956 
Q 1250 3563 1034 2750 
L 3009 2750 
z
M 2444 4913 
Q 3194 4913 3494 4250 
Q 3794 3591 3566 2422 
Q 3341 1256 2781 594 
Q 2225 -72 1475 -72 
Q 722 -72 425 594 
Q 128 1256 353 2422 
Q 581 3591 1134 4250 
Q 1691 4913 2444 4913 
z
" transform="scale(0.015625)"/>
      </defs>
      <use xlink:href="#DejaVuSans-Oblique-3b8" transform="translate(0 0.234375)"/>
     </g>
    </g>
   </g>
   <g id="matplotlib.axis_2">
    <g id="ytick_1">
     <g id="line2d_9">
      <path d="M 52.08125 135.545961 
L 287.86125 135.545961 
" clip-path="url(#p5c6a522b46)" style="fill: none; stroke-dasharray: 2.22,0.96; stroke-dashoffset: 0; stroke: #6c6066; stroke-opacity: 0.4; stroke-width: 0.6"/>
     </g>
     <g id="line2d_10">
      <defs>
       <path id="m73a542ea95" d="M 0 0 
L -3.5 0 
" style="stroke: #000000; stroke-width: 0.8"/>
      </defs>
      <g>
       <use xlink:href="#m73a542ea95" x="52.08125" y="135.545961" style="stroke: #000000; stroke-width: 0.8"/>
      </g>
     </g>
     <g id="text_6">
      <!-- 0.0 -->
      <g transform="translate(27.020313 139.371743) scale(0.1 -0.1)">
       <defs>
        <path id="DejaVuSansMono-2e" d="M 1528 953 
L 2316 953 
L 2316 0 
L 1528 0 
L 1528 953 
z
" transform="scale(0.015625)"/>
       </defs>
       <use xlink:href="#DejaVuSansMono-30"/>
       <use xlink:href="#DejaVuSansMono-2e" x="60.205078"/>
       <use xlink:href="#DejaVuSansMono-30" x="120.410156"/>
      </g>
     </g>
    </g>
    <g id="ytick_2">
     <g id="line2d_11">
      <path d="M 52.08125 111.154694 
L 287.86125 111.154694 
" clip-path="url(#p5c6a522b46)" style="fill: none; stroke-dasharray: 2.22,0.96; stroke-dashoffset: 0; stroke: #6c6066; stroke-opacity: 0.4; stroke-width: 0.6"/>
     </g>
     <g id="line2d_12">
      <g>
       <use xlink:href="#m73a542ea95" x="52.08125" y="111.154694" style="stroke: #000000; stroke-width: 0.8"/>
      </g>
     </g>
     <g id="text_7">
      <!-- 2.5 -->
      <g transform="translate(27.020313 114.980475) scale(0.1 -0.1)">
       <defs>
        <path id="DejaVuSansMono-35" d="M 647 4666 
L 3009 4666 
L 3009 4134 
L 1222 4134 
L 1222 2988 
Q 1356 3038 1492 3061 
Q 1628 3084 1766 3084 
Q 2491 3084 2916 2656 
Q 3341 2228 3341 1497 
Q 3341 759 2895 334 
Q 2450 -91 1678 -91 
Q 1306 -91 998 -41 
Q 691 9 447 109 
L 447 750 
Q 734 594 1025 517 
Q 1316 441 1619 441 
Q 2141 441 2423 716 
Q 2706 991 2706 1497 
Q 2706 1997 2414 2275 
Q 2122 2553 1600 2553 
Q 1347 2553 1106 2495 
Q 866 2438 647 2322 
L 647 4666 
z
" transform="scale(0.015625)"/>
       </defs>
       <use xlink:href="#DejaVuSansMono-32"/>
       <use xlink:href="#DejaVuSansMono-2e" x="60.205078"/>
       <use xlink:href="#DejaVuSansMono-35" x="120.410156"/>
      </g>
     </g>
    </g>
    <g id="ytick_3">
     <g id="line2d_13">
      <path d="M 52.08125 86.763426 
L 287.86125 86.763426 
" clip-path="url(#p5c6a522b46)" style="fill: none; stroke-dasharray: 2.22,0.96; stroke-dashoffset: 0; stroke: #6c6066; stroke-opacity: 0.4; stroke-width: 0.6"/>
     </g>
     <g id="line2d_14">
      <g>
       <use xlink:href="#m73a542ea95" x="52.08125" y="86.763426" style="stroke: #000000; stroke-width: 0.8"/>
      </g>
     </g>
     <g id="text_8">
      <!-- 5.0 -->
      <g transform="translate(27.020313 90.589207) scale(0.1 -0.1)">
       <use xlink:href="#DejaVuSansMono-35"/>
       <use xlink:href="#DejaVuSansMono-2e" x="60.205078"/>
       <use xlink:href="#DejaVuSansMono-30" x="120.410156"/>
      </g>
     </g>
    </g>
    <g id="ytick_4">
     <g id="line2d_15">
      <path d="M 52.08125 62.372159 
L 287.86125 62.372159 
" clip-path="url(#p5c6a522b46)" style="fill: none; stroke-dasharray: 2.22,0.96; stroke-dashoffset: 0; stroke: #6c6066; stroke-opacity: 0.4; stroke-width: 0.6"/>
     </g>
     <g id="line2d_16">
      <g>
       <use xlink:href="#m73a542ea95" x="52.08125" y="62.372159" style="stroke: #000000; stroke-width: 0.8"/>
      </g>
     </g>
     <g id="text_9">
      <!-- 7.5 -->
      <g transform="translate(27.020313 66.19794) scale(0.1 -0.1)">
       <defs>
        <path id="DejaVuSansMono-37" d="M 434 4666 
L 3372 4666 
L 3372 4397 
L 1703 0 
L 1044 0 
L 2669 4134 
L 434 4134 
L 434 4666 
z
" transform="scale(0.015625)"/>
       </defs>
       <use xlink:href="#DejaVuSansMono-37"/>
       <use xlink:href="#DejaVuSansMono-2e" x="60.205078"/>
       <use xlink:href="#DejaVuSansMono-35" x="120.410156"/>
      </g>
     </g>
    </g>
    <g id="ytick_5">
     <g id="line2d_17">
      <path d="M 52.08125 37.980891 
L 287.86125 37.980891 
" clip-path="url(#p5c6a522b46)" style="fill: none; stroke-dasharray: 2.22,0.96; stroke-dashoffset: 0; stroke: #6c6066; stroke-opacity: 0.4; stroke-width: 0.6"/>
     </g>
     <g id="line2d_18">
      <g>
       <use xlink:href="#m73a542ea95" x="52.08125" y="37.980891" style="stroke: #000000; stroke-width: 0.8"/>
      </g>
     </g>
     <g id="text_10">
      <!-- 10.0 -->
      <g transform="translate(21 41.806672) scale(0.1 -0.1)">
       <use xlink:href="#DejaVuSansMono-31"/>
       <use xlink:href="#DejaVuSansMono-30" x="60.205078"/>
       <use xlink:href="#DejaVuSansMono-2e" x="120.410156"/>
       <use xlink:href="#DejaVuSansMono-30" x="180.615234"/>
      </g>
     </g>
    </g>
    <g id="text_11">
     <!-- $J(\theta)$ -->
     <g transform="translate(14.9 88.391875) rotate(-90) scale(0.1 -0.1)">
      <defs>
       <path id="DejaVuSans-Oblique-4a" d="M 1069 4666 
L 1703 4666 
L 856 325 
Q 691 -522 298 -901 
Q -94 -1281 -800 -1281 
L -1050 -1281 
L -947 -750 
L -750 -750 
Q -328 -750 -109 -509 
Q 109 -269 225 325 
L 1069 4666 
z
" transform="scale(0.015625)"/>
       <path id="DejaVuSans-28" d="M 1984 4856 
Q 1566 4138 1362 3434 
Q 1159 2731 1159 2009 
Q 1159 1288 1364 580 
Q 1569 -128 1984 -844 
L 1484 -844 
Q 1016 -109 783 600 
Q 550 1309 550 2009 
Q 550 2706 781 3412 
Q 1013 4119 1484 4856 
L 1984 4856 
z
" transform="scale(0.015625)"/>
       <path id="DejaVuSans-29" d="M 513 4856 
L 1013 4856 
Q 1481 4119 1714 3412 
Q 1947 2706 1947 2009 
Q 1947 1309 1714 600 
Q 1481 -109 1013 -844 
L 513 -844 
Q 928 -128 1133 580 
Q 1338 1288 1338 2009 
Q 1338 2731 1133 3434 
Q 928 4138 513 4856 
z
" transform="scale(0.015625)"/>
      </defs>
      <use xlink:href="#DejaVuSans-Oblique-4a" transform="translate(0 0.234375)"/>
      <use xlink:href="#DejaVuSans-28" transform="translate(29.492188 0.234375)"/>
      <use xlink:href="#DejaVuSans-Oblique-3b8" transform="translate(68.505859 0.234375)"/>
      <use xlink:href="#DejaVuSans-29" transform="translate(129.6875 0.234375)"/>
     </g>
    </g>
   </g>
   <g id="line2d_19">
    <path d="M 62.798523 27.614602 
L 65.666021 39.033829 
L 68.533519 49.322369 
L 71.401015 58.549104 
L 73.551639 64.812704 
L 75.702262 70.544276 
L 77.852885 75.770766 
L 80.003509 80.518486 
L 82.154132 84.813159 
L 84.304756 88.679908 
L 86.455379 92.143212 
L 88.606002 95.22698 
L 90.756625 97.954499 
L 92.907248 100.348445 
L 95.057871 102.430892 
L 97.208494 104.223307 
L 99.359117 105.746545 
L 101.50974 107.020858 
L 103.660363 108.065885 
L 105.81099 108.900664 
L 107.961613 109.543624 
L 110.829109 110.133224 
L 113.696608 110.453981 
L 116.564101 110.544531 
L 120.148474 110.389752 
L 123.732847 110.000006 
L 128.034093 109.310275 
L 134.485965 108.025692 
L 143.805331 106.163604 
L 148.823456 105.378483 
L 153.124702 104.914825 
L 157.425949 104.690083 
L 161.010321 104.709576 
L 164.594694 104.932308 
L 168.17906 105.367611 
L 171.76344 106.020249 
L 175.347806 106.890148 
L 178.932179 107.972619 
L 182.516551 109.258337 
L 186.817798 111.049329 
L 191.119044 113.079308 
L 196.137169 115.691657 
L 203.305915 119.713745 
L 213.342153 125.354505 
L 217.643406 127.539376 
L 221.227772 129.148092 
L 224.812139 130.495537 
L 227.679645 131.338732 
L 230.547138 131.932677 
L 232.697757 132.190841 
L 234.84839 132.269148 
L 236.99901 132.149454 
L 239.14963 131.813207 
L 241.300262 131.241313 
L 243.450882 130.413731 
L 245.601502 129.310121 
L 247.752122 127.909436 
L 249.902742 126.189884 
L 252.053374 124.129266 
L 254.203994 121.704784 
L 256.354614 118.892806 
L 258.505247 115.669345 
L 260.655866 112.009594 
L 262.806486 107.888283 
L 264.957119 103.279414 
L 267.107739 98.156842 
L 269.258358 92.492839 
L 271.408978 86.260051 
L 273.559611 79.430154 
L 275.710231 71.973801 
L 277.143977 66.64063 
L 277.143977 66.64063 
" clip-path="url(#p5c6a522b46)" style="fill: none; stroke: #486afb; stroke-width: 2; stroke-linecap: square"/>
   </g>
   <g id="line2d_20">
    <path d="M 62.798523 27.614602 
L 75.123386 27.614602 
L 75.123386 69.052318 
L 82.802811 69.052318 
L 82.802811 86.023404 
L 88.206588 86.023404 
L 88.206588 94.681888 
L 92.268841 94.681888 
L 92.268841 99.671301 
L 95.454724 99.671301 
L 95.454724 102.78284 
L 98.028566 102.78284 
L 98.028566 104.834782 
L 100.154236 104.834782 
L 100.154236 106.245624 
L 101.93987 106.245624 
L 101.93987 107.247591 
" clip-path="url(#p5c6a522b46)" style="fill: none; stroke: #fd46fc; stroke-width: 2; stroke-linecap: square"/>
   </g>
   <g id="PathCollection_1">
    <defs>
     <path id="m13ffa66cfd" d="M 0 2.738613 
C 0.726289 2.738613 1.422928 2.450055 1.936492 1.936492 
C 2.450055 1.422928 2.738613 0.726289 2.738613 0 
C 2.738613 -0.726289 2.450055 -1.422928 1.936492 -1.936492 
C 1.422928 -2.450055 0.726289 -2.738613 0 -2.738613 
C -0.726289 -2.738613 -1.422928 -2.450055 -1.936492 -1.936492 
C -2.450055 -1.422928 -2.738613 -0.726289 -2.738613 0 
C -2.738613 0.726289 -2.450055 1.422928 -1.936492 1.936492 
C -1.422928 2.450055 -0.726289 2.738613 0 2.738613 
z
" style="stroke: #fd46fc; stroke-width: 0.2"/>
    </defs>
    <g clip-path="url(#p5c6a522b46)">
     <use xlink:href="#m13ffa66cfd" x="62.798523" y="27.614602" style="fill: #fd46fc; stroke: #fd46fc; stroke-width: 0.2"/>
     <use xlink:href="#m13ffa66cfd" x="75.123386" y="69.052318" style="fill: #fd46fc; stroke: #fd46fc; stroke-width: 0.2"/>
     <use xlink:href="#m13ffa66cfd" x="82.802811" y="86.023404" style="fill: #fd46fc; stroke: #fd46fc; stroke-width: 0.2"/>
     <use xlink:href="#m13ffa66cfd" x="88.206588" y="94.681888" style="fill: #fd46fc; stroke: #fd46fc; stroke-width: 0.2"/>
     <use xlink:href="#m13ffa66cfd" x="92.268841" y="99.671301" style="fill: #fd46fc; stroke: #fd46fc; stroke-width: 0.2"/>
     <use xlink:href="#m13ffa66cfd" x="95.454724" y="102.78284" style="fill: #fd46fc; stroke: #fd46fc; stroke-width: 0.2"/>
     <use xlink:href="#m13ffa66cfd" x="98.028566" y="104.834782" style="fill: #fd46fc; stroke: #fd46fc; stroke-width: 0.2"/>
     <use xlink:href="#m13ffa66cfd" x="100.154236" y="106.245624" style="fill: #fd46fc; stroke: #fd46fc; stroke-width: 0.2"/>
     <use xlink:href="#m13ffa66cfd" x="101.93987" y="107.247591" style="fill: #fd46fc; stroke: #fd46fc; stroke-width: 0.2"/>
    </g>
   </g>
   <g id="PathCollection_2">
    <defs>
     <path id="m1ccad19293" d="M 0 5 
C 1.326016 5 2.597899 4.473168 3.535534 3.535534 
C 4.473168 2.597899 5 1.326016 5 0 
C 5 -1.326016 4.473168 -2.597899 3.535534 -3.535534 
C 2.597899 -4.473168 1.326016 -5 0 -5 
C -1.326016 -5 -2.597899 -4.473168 -3.535534 -3.535534 
C -4.473168 -2.597899 -5 -1.326016 -5 0 
C -5 1.326016 -4.473168 2.597899 -3.535534 3.535534 
C -2.597899 4.473168 -1.326016 5 0 5 
z
" style="stroke: #fd46fc; stroke-width: 0.2"/>
    </defs>
    <g clip-path="url(#p5c6a522b46)">
     <use xlink:href="#m1ccad19293" x="62.798523" y="27.614602" style="fill: #fd46fc; stroke: #fd46fc; stroke-width: 0.2"/>
    </g>
   </g>
   <g id="patch_3">
    <path d="M 52.08125 137.501875 
L 52.08125 22.381875 
" style="fill: none; stroke: #000000; stroke-width: 0.6; stroke-linejoin: miter; stroke-linecap: square"/>
   </g>
   <g id="patch_4">
    <path d="M 52.08125 137.501875 
L 287.86125 137.501875 
" style="fill: none; stroke: #000000; stroke-width: 0.6; stroke-linejoin: miter; stroke-linecap: square"/>
   </g>
   <g id="text_12">
    <!-- $\alpha=0.01$, $N=8$ -->
    <g transform="translate(122.39125 16.381875) scale(0.12 -0.12)">
     <defs>
      <path id="DejaVuSans-Oblique-3b1" d="M 2619 1628 
L 2622 2350 
Q 2625 3088 2069 3091 
Q 1653 3094 1394 2747 
Q 1069 2319 959 1747 
Q 825 1059 994 731 
Q 1169 397 1547 397 
Q 1966 397 2319 1063 
L 2619 1628 
z
M 2166 3578 
Q 3141 3594 3128 2584 
Q 3128 2584 3616 3500 
L 4128 3500 
L 3119 1603 
L 3109 919 
Q 3109 766 3194 638 
Q 3291 488 3391 488 
L 3669 488 
L 3575 0 
L 3228 0 
Q 2934 0 2722 263 
Q 2622 394 2619 669 
Q 2416 334 2066 50 
Q 1900 -81 1453 -78 
Q 722 -72 456 397 
Q 184 884 353 1747 
Q 534 2675 1009 3097 
Q 1544 3569 2166 3578 
z
" transform="scale(0.015625)"/>
      <path id="DejaVuSans-3d" d="M 678 2906 
L 4684 2906 
L 4684 2381 
L 678 2381 
L 678 2906 
z
M 678 1631 
L 4684 1631 
L 4684 1100 
L 678 1100 
L 678 1631 
z
" transform="scale(0.015625)"/>
      <path id="DejaVuSans-30" d="M 2034 4250 
Q 1547 4250 1301 3770 
Q 1056 3291 1056 2328 
Q 1056 1369 1301 889 
Q 1547 409 2034 409 
Q 2525 409 2770 889 
Q 3016 1369 3016 2328 
Q 3016 3291 2770 3770 
Q 2525 4250 2034 4250 
z
M 2034 4750 
Q 2819 4750 3233 4129 
Q 3647 3509 3647 2328 
Q 3647 1150 3233 529 
Q 2819 -91 2034 -91 
Q 1250 -91 836 529 
Q 422 1150 422 2328 
Q 422 3509 836 4129 
Q 1250 4750 2034 4750 
z
" transform="scale(0.015625)"/>
      <path id="DejaVuSans-2e" d="M 684 794 
L 1344 794 
L 1344 0 
L 684 0 
L 684 794 
z
" transform="scale(0.015625)"/>
      <path id="DejaVuSans-31" d="M 794 531 
L 1825 531 
L 1825 4091 
L 703 3866 
L 703 4441 
L 1819 4666 
L 2450 4666 
L 2450 531 
L 3481 531 
L 3481 0 
L 794 0 
L 794 531 
z
" transform="scale(0.015625)"/>
      <path id="DejaVuSansMono-2c" d="M 1569 947 
L 2356 947 
L 2356 300 
L 1741 -897 
L 1259 -897 
L 1569 300 
L 1569 947 
z
" transform="scale(0.015625)"/>
      <path id="DejaVuSansMono-20" transform="scale(0.015625)"/>
      <path id="DejaVuSans-Oblique-4e" d="M 1081 4666 
L 1931 4666 
L 3219 666 
L 4000 4666 
L 4616 4666 
L 3706 0 
L 2853 0 
L 1569 4025 
L 788 0 
L 172 0 
L 1081 4666 
z
" transform="scale(0.015625)"/>
      <path id="DejaVuSans-38" d="M 2034 2216 
Q 1584 2216 1326 1975 
Q 1069 1734 1069 1313 
Q 1069 891 1326 650 
Q 1584 409 2034 409 
Q 2484 409 2743 651 
Q 3003 894 3003 1313 
Q 3003 1734 2745 1975 
Q 2488 2216 2034 2216 
z
M 1403 2484 
Q 997 2584 770 2862 
Q 544 3141 544 3541 
Q 544 4100 942 4425 
Q 1341 4750 2034 4750 
Q 2731 4750 3128 4425 
Q 3525 4100 3525 3541 
Q 3525 3141 3298 2862 
Q 3072 2584 2669 2484 
Q 3125 2378 3379 2068 
Q 3634 1759 3634 1313 
Q 3634 634 3220 271 
Q 2806 -91 2034 -91 
Q 1263 -91 848 271 
Q 434 634 434 1313 
Q 434 1759 690 2068 
Q 947 2378 1403 2484 
z
M 1172 3481 
Q 1172 3119 1398 2916 
Q 1625 2713 2034 2713 
Q 2441 2713 2670 2916 
Q 2900 3119 2900 3481 
Q 2900 3844 2670 4047 
Q 2441 4250 2034 4250 
Q 1625 4250 1398 4047 
Q 1172 3844 1172 3481 
z
" transform="scale(0.015625)"/>
     </defs>
     <use xlink:href="#DejaVuSans-Oblique-3b1" transform="translate(0 0.78125)"/>
     <use xlink:href="#DejaVuSans-3d" transform="translate(85.400391 0.78125)"/>
     <use xlink:href="#DejaVuSans-30" transform="translate(188.671875 0.78125)"/>
     <use xlink:href="#DejaVuSans-2e" transform="translate(252.294922 0.78125)"/>
     <use xlink:href="#DejaVuSans-30" transform="translate(284.082031 0.78125)"/>
     <use xlink:href="#DejaVuSans-31" transform="translate(347.705078 0.78125)"/>
     <use xlink:href="#DejaVuSansMono-2c" transform="translate(411.328125 0.78125)"/>
     <use xlink:href="#DejaVuSansMono-20" transform="translate(471.533203 0.78125)"/>
     <use xlink:href="#DejaVuSans-Oblique-4e" transform="translate(531.738281 0.78125)"/>
     <use xlink:href="#DejaVuSans-3d" transform="translate(626.025391 0.78125)"/>
     <use xlink:href="#DejaVuSans-38" transform="translate(729.296875 0.78125)"/>
    </g>
   </g>
  </g>
  <g id="axes_2">
   <g id="patch_5">
    <path d="M 334.68125 137.501875 
L 570.46125 137.501875 
L 570.46125 22.381875 
L 334.68125 22.381875 
z
" style="fill: #ffffff"/>
   </g>
   <g id="matplotlib.axis_3">
    <g id="xtick_5">
     <g id="line2d_21">
      <path d="M 372.191705 137.501875 
L 372.191705 22.381875 
" clip-path="url(#pd42a003171)" style="fill: none; stroke-dasharray: 2.22,0.96; stroke-dashoffset: 0; stroke: #6c6066; stroke-opacity: 0.4; stroke-width: 0.6"/>
     </g>
     <g id="line2d_22">
      <g>
       <use xlink:href="#m3382970c0f" x="372.191705" y="137.501875" style="stroke: #000000; stroke-width: 0.8"/>
      </g>
     </g>
     <g id="text_13">
      <!-- 0 -->
      <g transform="translate(369.181548 152.153437) scale(0.1 -0.1)">
       <use xlink:href="#DejaVuSansMono-30"/>
      </g>
     </g>
    </g>
    <g id="xtick_6">
     <g id="line2d_23">
      <path d="M 425.778068 137.501875 
L 425.778068 22.381875 
" clip-path="url(#pd42a003171)" style="fill: none; stroke-dasharray: 2.22,0.96; stroke-dashoffset: 0; stroke: #6c6066; stroke-opacity: 0.4; stroke-width: 0.6"/>
     </g>
     <g id="line2d_24">
      <g>
       <use xlink:href="#m3382970c0f" x="425.778068" y="137.501875" style="stroke: #000000; stroke-width: 0.8"/>
      </g>
     </g>
     <g id="text_14">
      <!-- 1 -->
      <g transform="translate(422.767912 152.153437) scale(0.1 -0.1)">
       <use xlink:href="#DejaVuSansMono-31"/>
      </g>
     </g>
    </g>
    <g id="xtick_7">
     <g id="line2d_25">
      <path d="M 479.364432 137.501875 
L 479.364432 22.381875 
" clip-path="url(#pd42a003171)" style="fill: none; stroke-dasharray: 2.22,0.96; stroke-dashoffset: 0; stroke: #6c6066; stroke-opacity: 0.4; stroke-width: 0.6"/>
     </g>
     <g id="line2d_26">
      <g>
       <use xlink:href="#m3382970c0f" x="479.364432" y="137.501875" style="stroke: #000000; stroke-width: 0.8"/>
      </g>
     </g>
     <g id="text_15">
      <!-- 2 -->
      <g transform="translate(476.354276 152.153437) scale(0.1 -0.1)">
       <use xlink:href="#DejaVuSansMono-32"/>
      </g>
     </g>
    </g>
    <g id="xtick_8">
     <g id="line2d_27">
      <path d="M 532.950795 137.501875 
L 532.950795 22.381875 
" clip-path="url(#pd42a003171)" style="fill: none; stroke-dasharray: 2.22,0.96; stroke-dashoffset: 0; stroke: #6c6066; stroke-opacity: 0.4; stroke-width: 0.6"/>
     </g>
     <g id="line2d_28">
      <g>
       <use xlink:href="#m3382970c0f" x="532.950795" y="137.501875" style="stroke: #000000; stroke-width: 0.8"/>
      </g>
     </g>
     <g id="text_16">
      <!-- 3 -->
      <g transform="translate(529.940639 152.153437) scale(0.1 -0.1)">
       <use xlink:href="#DejaVuSansMono-33"/>
      </g>
     </g>
    </g>
    <g id="text_17">
     <!-- $\theta$ -->
     <g transform="translate(449.47125 165.884687) scale(0.1 -0.1)">
      <use xlink:href="#DejaVuSans-Oblique-3b8" transform="translate(0 0.234375)"/>
     </g>
    </g>
   </g>
   <g id="matplotlib.axis_4">
    <g id="ytick_6">
     <g id="line2d_29">
      <path d="M 334.68125 135.545961 
L 570.46125 135.545961 
" clip-path="url(#pd42a003171)" style="fill: none; stroke-dasharray: 2.22,0.96; stroke-dashoffset: 0; stroke: #6c6066; stroke-opacity: 0.4; stroke-width: 0.6"/>
     </g>
     <g id="line2d_30">
      <g>
       <use xlink:href="#m73a542ea95" x="334.68125" y="135.545961" style="stroke: #000000; stroke-width: 0.8"/>
      </g>
     </g>
     <g id="text_18">
      <!-- 0.0 -->
      <g transform="translate(309.620313 139.371743) scale(0.1 -0.1)">
       <use xlink:href="#DejaVuSansMono-30"/>
       <use xlink:href="#DejaVuSansMono-2e" x="60.205078"/>
       <use xlink:href="#DejaVuSansMono-30" x="120.410156"/>
      </g>
     </g>
    </g>
    <g id="ytick_7">
     <g id="line2d_31">
      <path d="M 334.68125 111.154694 
L 570.46125 111.154694 
" clip-path="url(#pd42a003171)" style="fill: none; stroke-dasharray: 2.22,0.96; stroke-dashoffset: 0; stroke: #6c6066; stroke-opacity: 0.4; stroke-width: 0.6"/>
     </g>
     <g id="line2d_32">
      <g>
       <use xlink:href="#m73a542ea95" x="334.68125" y="111.154694" style="stroke: #000000; stroke-width: 0.8"/>
      </g>
     </g>
     <g id="text_19">
      <!-- 2.5 -->
      <g transform="translate(309.620313 114.980475) scale(0.1 -0.1)">
       <use xlink:href="#DejaVuSansMono-32"/>
       <use xlink:href="#DejaVuSansMono-2e" x="60.205078"/>
       <use xlink:href="#DejaVuSansMono-35" x="120.410156"/>
      </g>
     </g>
    </g>
    <g id="ytick_8">
     <g id="line2d_33">
      <path d="M 334.68125 86.763426 
L 570.46125 86.763426 
" clip-path="url(#pd42a003171)" style="fill: none; stroke-dasharray: 2.22,0.96; stroke-dashoffset: 0; stroke: #6c6066; stroke-opacity: 0.4; stroke-width: 0.6"/>
     </g>
     <g id="line2d_34">
      <g>
       <use xlink:href="#m73a542ea95" x="334.68125" y="86.763426" style="stroke: #000000; stroke-width: 0.8"/>
      </g>
     </g>
     <g id="text_20">
      <!-- 5.0 -->
      <g transform="translate(309.620313 90.589207) scale(0.1 -0.1)">
       <use xlink:href="#DejaVuSansMono-35"/>
       <use xlink:href="#DejaVuSansMono-2e" x="60.205078"/>
       <use xlink:href="#DejaVuSansMono-30" x="120.410156"/>
      </g>
     </g>
    </g>
    <g id="ytick_9">
     <g id="line2d_35">
      <path d="M 334.68125 62.372159 
L 570.46125 62.372159 
" clip-path="url(#pd42a003171)" style="fill: none; stroke-dasharray: 2.22,0.96; stroke-dashoffset: 0; stroke: #6c6066; stroke-opacity: 0.4; stroke-width: 0.6"/>
     </g>
     <g id="line2d_36">
      <g>
       <use xlink:href="#m73a542ea95" x="334.68125" y="62.372159" style="stroke: #000000; stroke-width: 0.8"/>
      </g>
     </g>
     <g id="text_21">
      <!-- 7.5 -->
      <g transform="translate(309.620313 66.19794) scale(0.1 -0.1)">
       <use xlink:href="#DejaVuSansMono-37"/>
       <use xlink:href="#DejaVuSansMono-2e" x="60.205078"/>
       <use xlink:href="#DejaVuSansMono-35" x="120.410156"/>
      </g>
     </g>
    </g>
    <g id="ytick_10">
     <g id="line2d_37">
      <path d="M 334.68125 37.980891 
L 570.46125 37.980891 
" clip-path="url(#pd42a003171)" style="fill: none; stroke-dasharray: 2.22,0.96; stroke-dashoffset: 0; stroke: #6c6066; stroke-opacity: 0.4; stroke-width: 0.6"/>
     </g>
     <g id="line2d_38">
      <g>
       <use xlink:href="#m73a542ea95" x="334.68125" y="37.980891" style="stroke: #000000; stroke-width: 0.8"/>
      </g>
     </g>
     <g id="text_22">
      <!-- 10.0 -->
      <g transform="translate(303.6 41.806672) scale(0.1 -0.1)">
       <use xlink:href="#DejaVuSansMono-31"/>
       <use xlink:href="#DejaVuSansMono-30" x="60.205078"/>
       <use xlink:href="#DejaVuSansMono-2e" x="120.410156"/>
       <use xlink:href="#DejaVuSansMono-30" x="180.615234"/>
      </g>
     </g>
    </g>
    <g id="text_23">
     <!-- $J(\theta)$ -->
     <g transform="translate(297.5 88.391875) rotate(-90) scale(0.1 -0.1)">
      <use xlink:href="#DejaVuSans-Oblique-4a" transform="translate(0 0.234375)"/>
      <use xlink:href="#DejaVuSans-28" transform="translate(29.492188 0.234375)"/>
      <use xlink:href="#DejaVuSans-Oblique-3b8" transform="translate(68.505859 0.234375)"/>
      <use xlink:href="#DejaVuSans-29" transform="translate(129.6875 0.234375)"/>
     </g>
    </g>
   </g>
   <g id="line2d_39">
    <path d="M 345.398523 27.614602 
L 348.266021 39.033829 
L 351.133519 49.322369 
L 354.001015 58.549104 
L 356.151639 64.812704 
L 358.302262 70.544276 
L 360.452885 75.770766 
L 362.603509 80.518486 
L 364.754132 84.813159 
L 366.904756 88.679908 
L 369.055379 92.143212 
L 371.206002 95.22698 
L 373.356625 97.954499 
L 375.507248 100.348445 
L 377.657871 102.430892 
L 379.808494 104.223307 
L 381.959117 105.746545 
L 384.10974 107.020858 
L 386.260363 108.065885 
L 388.41099 108.900664 
L 390.561613 109.543624 
L 393.429109 110.133224 
L 396.296608 110.453981 
L 399.164101 110.544531 
L 402.748474 110.389752 
L 406.332847 110.000006 
L 410.634093 109.310275 
L 417.085965 108.025692 
L 426.405331 106.163604 
L 431.423456 105.378483 
L 435.724702 104.914825 
L 440.025949 104.690083 
L 443.610321 104.709576 
L 447.194694 104.932308 
L 450.77906 105.367611 
L 454.36344 106.020249 
L 457.947806 106.890148 
L 461.532179 107.972619 
L 465.116551 109.258337 
L 469.417798 111.049329 
L 473.719044 113.079308 
L 478.737169 115.691657 
L 485.905915 119.713745 
L 495.942153 125.354505 
L 500.243406 127.539376 
L 503.827772 129.148092 
L 507.412139 130.495537 
L 510.279645 131.338732 
L 513.147138 131.932677 
L 515.297757 132.190841 
L 517.44839 132.269148 
L 519.59901 132.149454 
L 521.74963 131.813207 
L 523.900262 131.241313 
L 526.050882 130.413731 
L 528.201502 129.310121 
L 530.352122 127.909436 
L 532.502742 126.189884 
L 534.653374 124.129266 
L 536.803994 121.704784 
L 538.954614 118.892806 
L 541.105247 115.669345 
L 543.255866 112.009594 
L 545.406486 107.888283 
L 547.557119 103.279414 
L 549.707739 98.156842 
L 551.858358 92.492839 
L 554.008978 86.260051 
L 556.159611 79.430154 
L 558.310231 71.973801 
L 559.743977 66.64063 
L 559.743977 66.64063 
" clip-path="url(#pd42a003171)" style="fill: none; stroke: #486afb; stroke-width: 2; stroke-linecap: square"/>
   </g>
   <g id="line2d_40">
    <path d="M 557.064662 76.370098 
L 546.931747 76.370098 
L 546.931747 104.671483 
L 540.48197 104.671483 
L 540.48197 116.647232 
L 535.949319 116.647232 
L 535.949319 122.713339 
L 532.579755 122.713339 
L 532.579755 126.12211 
L 529.981606 126.12211 
L 529.981606 128.172866 
L 527.926256 128.172866 
L 527.926256 129.467498 
L 526.2693 129.467498 
L 526.2693 130.314564 
" clip-path="url(#pd42a003171)" style="fill: none; stroke: #fd46fc; stroke-width: 2; stroke-linecap: square"/>
   </g>
   <g id="PathCollection_3">
    <g clip-path="url(#pd42a003171)">
     <use xlink:href="#m13ffa66cfd" x="557.064662" y="76.370098" style="fill: #fd46fc; stroke: #fd46fc; stroke-width: 0.2"/>
     <use xlink:href="#m13ffa66cfd" x="546.931747" y="104.671483" style="fill: #fd46fc; stroke: #fd46fc; stroke-width: 0.2"/>
     <use xlink:href="#m13ffa66cfd" x="540.48197" y="116.647232" style="fill: #fd46fc; stroke: #fd46fc; stroke-width: 0.2"/>
     <use xlink:href="#m13ffa66cfd" x="535.949319" y="122.713339" style="fill: #fd46fc; stroke: #fd46fc; stroke-width: 0.2"/>
     <use xlink:href="#m13ffa66cfd" x="532.579755" y="126.12211" style="fill: #fd46fc; stroke: #fd46fc; stroke-width: 0.2"/>
     <use xlink:href="#m13ffa66cfd" x="529.981606" y="128.172866" style="fill: #fd46fc; stroke: #fd46fc; stroke-width: 0.2"/>
     <use xlink:href="#m13ffa66cfd" x="527.926256" y="129.467498" style="fill: #fd46fc; stroke: #fd46fc; stroke-width: 0.2"/>
     <use xlink:href="#m13ffa66cfd" x="526.2693" y="130.314564" style="fill: #fd46fc; stroke: #fd46fc; stroke-width: 0.2"/>
    </g>
   </g>
   <g id="PathCollection_4">
    <g clip-path="url(#pd42a003171)">
     <use xlink:href="#m1ccad19293" x="557.064662" y="76.370098" style="fill: #fd46fc; stroke: #fd46fc; stroke-width: 0.2"/>
    </g>
   </g>
   <g id="patch_6">
    <path d="M 334.68125 137.501875 
L 334.68125 22.381875 
" style="fill: none; stroke: #000000; stroke-width: 0.6; stroke-linejoin: miter; stroke-linecap: square"/>
   </g>
   <g id="patch_7">
    <path d="M 334.68125 137.501875 
L 570.46125 137.501875 
" style="fill: none; stroke: #000000; stroke-width: 0.6; stroke-linejoin: miter; stroke-linecap: square"/>
   </g>
   <g id="text_24">
    <!-- $\alpha=0.01$, $N=7$ -->
    <g transform="translate(404.99125 16.381875) scale(0.12 -0.12)">
     <defs>
      <path id="DejaVuSans-37" d="M 525 4666 
L 3525 4666 
L 3525 4397 
L 1831 0 
L 1172 0 
L 2766 4134 
L 525 4134 
L 525 4666 
z
" transform="scale(0.015625)"/>
     </defs>
     <use xlink:href="#DejaVuSans-Oblique-3b1" transform="translate(0 0.78125)"/>
     <use xlink:href="#DejaVuSans-3d" transform="translate(85.400391 0.78125)"/>
     <use xlink:href="#DejaVuSans-30" transform="translate(188.671875 0.78125)"/>
     <use xlink:href="#DejaVuSans-2e" transform="translate(252.294922 0.78125)"/>
     <use xlink:href="#DejaVuSans-30" transform="translate(284.082031 0.78125)"/>
     <use xlink:href="#DejaVuSans-31" transform="translate(347.705078 0.78125)"/>
     <use xlink:href="#DejaVuSansMono-2c" transform="translate(411.328125 0.78125)"/>
     <use xlink:href="#DejaVuSansMono-20" transform="translate(471.533203 0.78125)"/>
     <use xlink:href="#DejaVuSans-Oblique-4e" transform="translate(531.738281 0.78125)"/>
     <use xlink:href="#DejaVuSans-3d" transform="translate(626.025391 0.78125)"/>
     <use xlink:href="#DejaVuSans-37" transform="translate(729.296875 0.78125)"/>
    </g>
   </g>
  </g>
  <g id="axes_3">
   <g id="patch_8">
    <path d="M 52.08125 312.101875 
L 287.86125 312.101875 
L 287.86125 196.981875 
L 52.08125 196.981875 
z
" style="fill: #ffffff"/>
   </g>
   <g id="matplotlib.axis_5">
    <g id="xtick_9">
     <g id="line2d_41">
      <path d="M 89.591705 312.101875 
L 89.591705 196.981875 
" clip-path="url(#p0f937385ec)" style="fill: none; stroke-dasharray: 2.22,0.96; stroke-dashoffset: 0; stroke: #6c6066; stroke-opacity: 0.4; stroke-width: 0.6"/>
     </g>
     <g id="line2d_42">
      <g>
       <use xlink:href="#m3382970c0f" x="89.591705" y="312.101875" style="stroke: #000000; stroke-width: 0.8"/>
      </g>
     </g>
     <g id="text_25">
      <!-- 0 -->
      <g transform="translate(86.581548 326.753437) scale(0.1 -0.1)">
       <use xlink:href="#DejaVuSansMono-30"/>
      </g>
     </g>
    </g>
    <g id="xtick_10">
     <g id="line2d_43">
      <path d="M 143.178068 312.101875 
L 143.178068 196.981875 
" clip-path="url(#p0f937385ec)" style="fill: none; stroke-dasharray: 2.22,0.96; stroke-dashoffset: 0; stroke: #6c6066; stroke-opacity: 0.4; stroke-width: 0.6"/>
     </g>
     <g id="line2d_44">
      <g>
       <use xlink:href="#m3382970c0f" x="143.178068" y="312.101875" style="stroke: #000000; stroke-width: 0.8"/>
      </g>
     </g>
     <g id="text_26">
      <!-- 1 -->
      <g transform="translate(140.167912 326.753437) scale(0.1 -0.1)">
       <use xlink:href="#DejaVuSansMono-31"/>
      </g>
     </g>
    </g>
    <g id="xtick_11">
     <g id="line2d_45">
      <path d="M 196.764432 312.101875 
L 196.764432 196.981875 
" clip-path="url(#p0f937385ec)" style="fill: none; stroke-dasharray: 2.22,0.96; stroke-dashoffset: 0; stroke: #6c6066; stroke-opacity: 0.4; stroke-width: 0.6"/>
     </g>
     <g id="line2d_46">
      <g>
       <use xlink:href="#m3382970c0f" x="196.764432" y="312.101875" style="stroke: #000000; stroke-width: 0.8"/>
      </g>
     </g>
     <g id="text_27">
      <!-- 2 -->
      <g transform="translate(193.754276 326.753437) scale(0.1 -0.1)">
       <use xlink:href="#DejaVuSansMono-32"/>
      </g>
     </g>
    </g>
    <g id="xtick_12">
     <g id="line2d_47">
      <path d="M 250.350795 312.101875 
L 250.350795 196.981875 
" clip-path="url(#p0f937385ec)" style="fill: none; stroke-dasharray: 2.22,0.96; stroke-dashoffset: 0; stroke: #6c6066; stroke-opacity: 0.4; stroke-width: 0.6"/>
     </g>
     <g id="line2d_48">
      <g>
       <use xlink:href="#m3382970c0f" x="250.350795" y="312.101875" style="stroke: #000000; stroke-width: 0.8"/>
      </g>
     </g>
     <g id="text_28">
      <!-- 3 -->
      <g transform="translate(247.340639 326.753437) scale(0.1 -0.1)">
       <use xlink:href="#DejaVuSansMono-33"/>
      </g>
     </g>
    </g>
    <g id="text_29">
     <!-- $\theta$ -->
     <g transform="translate(166.87125 340.484687) scale(0.1 -0.1)">
      <use xlink:href="#DejaVuSans-Oblique-3b8" transform="translate(0 0.234375)"/>
     </g>
    </g>
   </g>
   <g id="matplotlib.axis_6">
    <g id="ytick_11">
     <g id="line2d_49">
      <path d="M 52.08125 310.145961 
L 287.86125 310.145961 
" clip-path="url(#p0f937385ec)" style="fill: none; stroke-dasharray: 2.22,0.96; stroke-dashoffset: 0; stroke: #6c6066; stroke-opacity: 0.4; stroke-width: 0.6"/>
     </g>
     <g id="line2d_50">
      <g>
       <use xlink:href="#m73a542ea95" x="52.08125" y="310.145961" style="stroke: #000000; stroke-width: 0.8"/>
      </g>
     </g>
     <g id="text_30">
      <!-- 0.0 -->
      <g transform="translate(27.020313 313.971743) scale(0.1 -0.1)">
       <use xlink:href="#DejaVuSansMono-30"/>
       <use xlink:href="#DejaVuSansMono-2e" x="60.205078"/>
       <use xlink:href="#DejaVuSansMono-30" x="120.410156"/>
      </g>
     </g>
    </g>
    <g id="ytick_12">
     <g id="line2d_51">
      <path d="M 52.08125 285.754694 
L 287.86125 285.754694 
" clip-path="url(#p0f937385ec)" style="fill: none; stroke-dasharray: 2.22,0.96; stroke-dashoffset: 0; stroke: #6c6066; stroke-opacity: 0.4; stroke-width: 0.6"/>
     </g>
     <g id="line2d_52">
      <g>
       <use xlink:href="#m73a542ea95" x="52.08125" y="285.754694" style="stroke: #000000; stroke-width: 0.8"/>
      </g>
     </g>
     <g id="text_31">
      <!-- 2.5 -->
      <g transform="translate(27.020313 289.580475) scale(0.1 -0.1)">
       <use xlink:href="#DejaVuSansMono-32"/>
       <use xlink:href="#DejaVuSansMono-2e" x="60.205078"/>
       <use xlink:href="#DejaVuSansMono-35" x="120.410156"/>
      </g>
     </g>
    </g>
    <g id="ytick_13">
     <g id="line2d_53">
      <path d="M 52.08125 261.363426 
L 287.86125 261.363426 
" clip-path="url(#p0f937385ec)" style="fill: none; stroke-dasharray: 2.22,0.96; stroke-dashoffset: 0; stroke: #6c6066; stroke-opacity: 0.4; stroke-width: 0.6"/>
     </g>
     <g id="line2d_54">
      <g>
       <use xlink:href="#m73a542ea95" x="52.08125" y="261.363426" style="stroke: #000000; stroke-width: 0.8"/>
      </g>
     </g>
     <g id="text_32">
      <!-- 5.0 -->
      <g transform="translate(27.020313 265.189207) scale(0.1 -0.1)">
       <use xlink:href="#DejaVuSansMono-35"/>
       <use xlink:href="#DejaVuSansMono-2e" x="60.205078"/>
       <use xlink:href="#DejaVuSansMono-30" x="120.410156"/>
      </g>
     </g>
    </g>
    <g id="ytick_14">
     <g id="line2d_55">
      <path d="M 52.08125 236.972159 
L 287.86125 236.972159 
" clip-path="url(#p0f937385ec)" style="fill: none; stroke-dasharray: 2.22,0.96; stroke-dashoffset: 0; stroke: #6c6066; stroke-opacity: 0.4; stroke-width: 0.6"/>
     </g>
     <g id="line2d_56">
      <g>
       <use xlink:href="#m73a542ea95" x="52.08125" y="236.972159" style="stroke: #000000; stroke-width: 0.8"/>
      </g>
     </g>
     <g id="text_33">
      <!-- 7.5 -->
      <g transform="translate(27.020313 240.79794) scale(0.1 -0.1)">
       <use xlink:href="#DejaVuSansMono-37"/>
       <use xlink:href="#DejaVuSansMono-2e" x="60.205078"/>
       <use xlink:href="#DejaVuSansMono-35" x="120.410156"/>
      </g>
     </g>
    </g>
    <g id="ytick_15">
     <g id="line2d_57">
      <path d="M 52.08125 212.580891 
L 287.86125 212.580891 
" clip-path="url(#p0f937385ec)" style="fill: none; stroke-dasharray: 2.22,0.96; stroke-dashoffset: 0; stroke: #6c6066; stroke-opacity: 0.4; stroke-width: 0.6"/>
     </g>
     <g id="line2d_58">
      <g>
       <use xlink:href="#m73a542ea95" x="52.08125" y="212.580891" style="stroke: #000000; stroke-width: 0.8"/>
      </g>
     </g>
     <g id="text_34">
      <!-- 10.0 -->
      <g transform="translate(21 216.406672) scale(0.1 -0.1)">
       <use xlink:href="#DejaVuSansMono-31"/>
       <use xlink:href="#DejaVuSansMono-30" x="60.205078"/>
       <use xlink:href="#DejaVuSansMono-2e" x="120.410156"/>
       <use xlink:href="#DejaVuSansMono-30" x="180.615234"/>
      </g>
     </g>
    </g>
    <g id="text_35">
     <!-- $J(\theta)$ -->
     <g transform="translate(14.9 262.991875) rotate(-90) scale(0.1 -0.1)">
      <use xlink:href="#DejaVuSans-Oblique-4a" transform="translate(0 0.234375)"/>
      <use xlink:href="#DejaVuSans-28" transform="translate(29.492188 0.234375)"/>
      <use xlink:href="#DejaVuSans-Oblique-3b8" transform="translate(68.505859 0.234375)"/>
      <use xlink:href="#DejaVuSans-29" transform="translate(129.6875 0.234375)"/>
     </g>
    </g>
   </g>
   <g id="line2d_59">
    <path d="M 62.798523 202.214602 
L 65.666021 213.633829 
L 68.533519 223.922369 
L 71.401015 233.149104 
L 73.551639 239.412704 
L 75.702262 245.144276 
L 77.852885 250.370766 
L 80.003509 255.118486 
L 82.154132 259.413159 
L 84.304756 263.279908 
L 86.455379 266.743212 
L 88.606002 269.82698 
L 90.756625 272.554499 
L 92.907248 274.948445 
L 95.057871 277.030892 
L 97.208494 278.823307 
L 99.359117 280.346545 
L 101.50974 281.620858 
L 103.660363 282.665885 
L 105.81099 283.500664 
L 107.961613 284.143624 
L 110.829109 284.733224 
L 113.696608 285.053981 
L 116.564101 285.144531 
L 120.148474 284.989752 
L 123.732847 284.600006 
L 128.034093 283.910275 
L 134.485965 282.625692 
L 143.805331 280.763604 
L 148.823456 279.978483 
L 153.124702 279.514825 
L 157.425949 279.290083 
L 161.010321 279.309576 
L 164.594694 279.532308 
L 168.17906 279.967611 
L 171.76344 280.620249 
L 175.347806 281.490148 
L 178.932179 282.572619 
L 182.516551 283.858337 
L 186.817798 285.649329 
L 191.119044 287.679308 
L 196.137169 290.291657 
L 203.305915 294.313745 
L 213.342153 299.954505 
L 217.643406 302.139376 
L 221.227772 303.748092 
L 224.812139 305.095537 
L 227.679645 305.938732 
L 230.547138 306.532677 
L 232.697757 306.790841 
L 234.84839 306.869148 
L 236.99901 306.749454 
L 239.14963 306.413207 
L 241.300262 305.841313 
L 243.450882 305.013731 
L 245.601502 303.910121 
L 247.752122 302.509436 
L 249.902742 300.789884 
L 252.053374 298.729266 
L 254.203994 296.304784 
L 256.354614 293.492806 
L 258.505247 290.269345 
L 260.655866 286.609594 
L 262.806486 282.488283 
L 264.957119 277.879414 
L 267.107739 272.756842 
L 269.258358 267.092839 
L 271.408978 260.860051 
L 273.559611 254.030154 
L 275.710231 246.573801 
L 277.143977 241.24063 
L 277.143977 241.24063 
" clip-path="url(#p0f937385ec)" style="fill: none; stroke: #486afb; stroke-width: 2; stroke-linecap: square"/>
   </g>
   <g id="line2d_60">
    <path d="M 62.798523 202.214602 
L 186.047157 202.214602 
L 186.047157 285.309779 
L 198.865021 285.309779 
L 198.865021 291.794097 
L 215.310371 291.794097 
L 215.310371 300.982711 
L 230.355741 300.982711 
L 230.355741 306.501656 
L 235.23563 306.501656 
L 235.23563 306.86269 
" clip-path="url(#p0f937385ec)" style="fill: none; stroke: #fd46fc; stroke-width: 2; stroke-linecap: square"/>
   </g>
   <g id="PathCollection_5">
    <g clip-path="url(#p0f937385ec)">
     <use xlink:href="#m13ffa66cfd" x="62.798523" y="202.214602" style="fill: #fd46fc; stroke: #fd46fc; stroke-width: 0.2"/>
     <use xlink:href="#m13ffa66cfd" x="186.047157" y="285.309779" style="fill: #fd46fc; stroke: #fd46fc; stroke-width: 0.2"/>
     <use xlink:href="#m13ffa66cfd" x="198.865021" y="291.794097" style="fill: #fd46fc; stroke: #fd46fc; stroke-width: 0.2"/>
     <use xlink:href="#m13ffa66cfd" x="215.310371" y="300.982711" style="fill: #fd46fc; stroke: #fd46fc; stroke-width: 0.2"/>
     <use xlink:href="#m13ffa66cfd" x="230.355741" y="306.501656" style="fill: #fd46fc; stroke: #fd46fc; stroke-width: 0.2"/>
     <use xlink:href="#m13ffa66cfd" x="235.23563" y="306.86269" style="fill: #fd46fc; stroke: #fd46fc; stroke-width: 0.2"/>
    </g>
   </g>
   <g id="PathCollection_6">
    <g clip-path="url(#p0f937385ec)">
     <use xlink:href="#m1ccad19293" x="62.798523" y="202.214602" style="fill: #fd46fc; stroke: #fd46fc; stroke-width: 0.2"/>
    </g>
   </g>
   <g id="patch_9">
    <path d="M 52.08125 312.101875 
L 52.08125 196.981875 
" style="fill: none; stroke: #000000; stroke-width: 0.6; stroke-linejoin: miter; stroke-linecap: square"/>
   </g>
   <g id="patch_10">
    <path d="M 52.08125 312.101875 
L 287.86125 312.101875 
" style="fill: none; stroke: #000000; stroke-width: 0.6; stroke-linejoin: miter; stroke-linecap: square"/>
   </g>
   <g id="text_36">
    <!-- $\alpha=0.1$, $N=5$ -->
    <g transform="translate(126.17125 190.981875) scale(0.12 -0.12)">
     <defs>
      <path id="DejaVuSans-35" d="M 691 4666 
L 3169 4666 
L 3169 4134 
L 1269 4134 
L 1269 2991 
Q 1406 3038 1543 3061 
Q 1681 3084 1819 3084 
Q 2600 3084 3056 2656 
Q 3513 2228 3513 1497 
Q 3513 744 3044 326 
Q 2575 -91 1722 -91 
Q 1428 -91 1123 -41 
Q 819 9 494 109 
L 494 744 
Q 775 591 1075 516 
Q 1375 441 1709 441 
Q 2250 441 2565 725 
Q 2881 1009 2881 1497 
Q 2881 1984 2565 2268 
Q 2250 2553 1709 2553 
Q 1456 2553 1204 2497 
Q 953 2441 691 2322 
L 691 4666 
z
" transform="scale(0.015625)"/>
     </defs>
     <use xlink:href="#DejaVuSans-Oblique-3b1" transform="translate(0 0.78125)"/>
     <use xlink:href="#DejaVuSans-3d" transform="translate(85.400391 0.78125)"/>
     <use xlink:href="#DejaVuSans-30" transform="translate(188.671875 0.78125)"/>
     <use xlink:href="#DejaVuSans-2e" transform="translate(252.294922 0.78125)"/>
     <use xlink:href="#DejaVuSans-31" transform="translate(284.082031 0.78125)"/>
     <use xlink:href="#DejaVuSansMono-2c" transform="translate(347.705078 0.78125)"/>
     <use xlink:href="#DejaVuSansMono-20" transform="translate(407.910156 0.78125)"/>
     <use xlink:href="#DejaVuSans-Oblique-4e" transform="translate(468.115234 0.78125)"/>
     <use xlink:href="#DejaVuSans-3d" transform="translate(562.402344 0.78125)"/>
     <use xlink:href="#DejaVuSans-35" transform="translate(665.673828 0.78125)"/>
    </g>
   </g>
  </g>
  <g id="axes_4">
   <g id="patch_11">
    <path d="M 334.68125 312.101875 
L 570.46125 312.101875 
L 570.46125 196.981875 
L 334.68125 196.981875 
z
" style="fill: #ffffff"/>
   </g>
   <g id="matplotlib.axis_7">
    <g id="xtick_13">
     <g id="line2d_61">
      <path d="M 372.191705 312.101875 
L 372.191705 196.981875 
" clip-path="url(#pd8ba03c05b)" style="fill: none; stroke-dasharray: 2.22,0.96; stroke-dashoffset: 0; stroke: #6c6066; stroke-opacity: 0.4; stroke-width: 0.6"/>
     </g>
     <g id="line2d_62">
      <g>
       <use xlink:href="#m3382970c0f" x="372.191705" y="312.101875" style="stroke: #000000; stroke-width: 0.8"/>
      </g>
     </g>
     <g id="text_37">
      <!-- 0 -->
      <g transform="translate(369.181548 326.753437) scale(0.1 -0.1)">
       <use xlink:href="#DejaVuSansMono-30"/>
      </g>
     </g>
    </g>
    <g id="xtick_14">
     <g id="line2d_63">
      <path d="M 425.778068 312.101875 
L 425.778068 196.981875 
" clip-path="url(#pd8ba03c05b)" style="fill: none; stroke-dasharray: 2.22,0.96; stroke-dashoffset: 0; stroke: #6c6066; stroke-opacity: 0.4; stroke-width: 0.6"/>
     </g>
     <g id="line2d_64">
      <g>
       <use xlink:href="#m3382970c0f" x="425.778068" y="312.101875" style="stroke: #000000; stroke-width: 0.8"/>
      </g>
     </g>
     <g id="text_38">
      <!-- 1 -->
      <g transform="translate(422.767912 326.753437) scale(0.1 -0.1)">
       <use xlink:href="#DejaVuSansMono-31"/>
      </g>
     </g>
    </g>
    <g id="xtick_15">
     <g id="line2d_65">
      <path d="M 479.364432 312.101875 
L 479.364432 196.981875 
" clip-path="url(#pd8ba03c05b)" style="fill: none; stroke-dasharray: 2.22,0.96; stroke-dashoffset: 0; stroke: #6c6066; stroke-opacity: 0.4; stroke-width: 0.6"/>
     </g>
     <g id="line2d_66">
      <g>
       <use xlink:href="#m3382970c0f" x="479.364432" y="312.101875" style="stroke: #000000; stroke-width: 0.8"/>
      </g>
     </g>
     <g id="text_39">
      <!-- 2 -->
      <g transform="translate(476.354276 326.753437) scale(0.1 -0.1)">
       <use xlink:href="#DejaVuSansMono-32"/>
      </g>
     </g>
    </g>
    <g id="xtick_16">
     <g id="line2d_67">
      <path d="M 532.950795 312.101875 
L 532.950795 196.981875 
" clip-path="url(#pd8ba03c05b)" style="fill: none; stroke-dasharray: 2.22,0.96; stroke-dashoffset: 0; stroke: #6c6066; stroke-opacity: 0.4; stroke-width: 0.6"/>
     </g>
     <g id="line2d_68">
      <g>
       <use xlink:href="#m3382970c0f" x="532.950795" y="312.101875" style="stroke: #000000; stroke-width: 0.8"/>
      </g>
     </g>
     <g id="text_40">
      <!-- 3 -->
      <g transform="translate(529.940639 326.753437) scale(0.1 -0.1)">
       <use xlink:href="#DejaVuSansMono-33"/>
      </g>
     </g>
    </g>
    <g id="text_41">
     <!-- $\theta$ -->
     <g transform="translate(449.47125 340.484687) scale(0.1 -0.1)">
      <use xlink:href="#DejaVuSans-Oblique-3b8" transform="translate(0 0.234375)"/>
     </g>
    </g>
   </g>
   <g id="matplotlib.axis_8">
    <g id="ytick_16">
     <g id="line2d_69">
      <path d="M 334.68125 310.145961 
L 570.46125 310.145961 
" clip-path="url(#pd8ba03c05b)" style="fill: none; stroke-dasharray: 2.22,0.96; stroke-dashoffset: 0; stroke: #6c6066; stroke-opacity: 0.4; stroke-width: 0.6"/>
     </g>
     <g id="line2d_70">
      <g>
       <use xlink:href="#m73a542ea95" x="334.68125" y="310.145961" style="stroke: #000000; stroke-width: 0.8"/>
      </g>
     </g>
     <g id="text_42">
      <!-- 0.0 -->
      <g transform="translate(309.620313 313.971743) scale(0.1 -0.1)">
       <use xlink:href="#DejaVuSansMono-30"/>
       <use xlink:href="#DejaVuSansMono-2e" x="60.205078"/>
       <use xlink:href="#DejaVuSansMono-30" x="120.410156"/>
      </g>
     </g>
    </g>
    <g id="ytick_17">
     <g id="line2d_71">
      <path d="M 334.68125 285.754694 
L 570.46125 285.754694 
" clip-path="url(#pd8ba03c05b)" style="fill: none; stroke-dasharray: 2.22,0.96; stroke-dashoffset: 0; stroke: #6c6066; stroke-opacity: 0.4; stroke-width: 0.6"/>
     </g>
     <g id="line2d_72">
      <g>
       <use xlink:href="#m73a542ea95" x="334.68125" y="285.754694" style="stroke: #000000; stroke-width: 0.8"/>
      </g>
     </g>
     <g id="text_43">
      <!-- 2.5 -->
      <g transform="translate(309.620313 289.580475) scale(0.1 -0.1)">
       <use xlink:href="#DejaVuSansMono-32"/>
       <use xlink:href="#DejaVuSansMono-2e" x="60.205078"/>
       <use xlink:href="#DejaVuSansMono-35" x="120.410156"/>
      </g>
     </g>
    </g>
    <g id="ytick_18">
     <g id="line2d_73">
      <path d="M 334.68125 261.363426 
L 570.46125 261.363426 
" clip-path="url(#pd8ba03c05b)" style="fill: none; stroke-dasharray: 2.22,0.96; stroke-dashoffset: 0; stroke: #6c6066; stroke-opacity: 0.4; stroke-width: 0.6"/>
     </g>
     <g id="line2d_74">
      <g>
       <use xlink:href="#m73a542ea95" x="334.68125" y="261.363426" style="stroke: #000000; stroke-width: 0.8"/>
      </g>
     </g>
     <g id="text_44">
      <!-- 5.0 -->
      <g transform="translate(309.620313 265.189207) scale(0.1 -0.1)">
       <use xlink:href="#DejaVuSansMono-35"/>
       <use xlink:href="#DejaVuSansMono-2e" x="60.205078"/>
       <use xlink:href="#DejaVuSansMono-30" x="120.410156"/>
      </g>
     </g>
    </g>
    <g id="ytick_19">
     <g id="line2d_75">
      <path d="M 334.68125 236.972159 
L 570.46125 236.972159 
" clip-path="url(#pd8ba03c05b)" style="fill: none; stroke-dasharray: 2.22,0.96; stroke-dashoffset: 0; stroke: #6c6066; stroke-opacity: 0.4; stroke-width: 0.6"/>
     </g>
     <g id="line2d_76">
      <g>
       <use xlink:href="#m73a542ea95" x="334.68125" y="236.972159" style="stroke: #000000; stroke-width: 0.8"/>
      </g>
     </g>
     <g id="text_45">
      <!-- 7.5 -->
      <g transform="translate(309.620313 240.79794) scale(0.1 -0.1)">
       <use xlink:href="#DejaVuSansMono-37"/>
       <use xlink:href="#DejaVuSansMono-2e" x="60.205078"/>
       <use xlink:href="#DejaVuSansMono-35" x="120.410156"/>
      </g>
     </g>
    </g>
    <g id="ytick_20">
     <g id="line2d_77">
      <path d="M 334.68125 212.580891 
L 570.46125 212.580891 
" clip-path="url(#pd8ba03c05b)" style="fill: none; stroke-dasharray: 2.22,0.96; stroke-dashoffset: 0; stroke: #6c6066; stroke-opacity: 0.4; stroke-width: 0.6"/>
     </g>
     <g id="line2d_78">
      <g>
       <use xlink:href="#m73a542ea95" x="334.68125" y="212.580891" style="stroke: #000000; stroke-width: 0.8"/>
      </g>
     </g>
     <g id="text_46">
      <!-- 10.0 -->
      <g transform="translate(303.6 216.406672) scale(0.1 -0.1)">
       <use xlink:href="#DejaVuSansMono-31"/>
       <use xlink:href="#DejaVuSansMono-30" x="60.205078"/>
       <use xlink:href="#DejaVuSansMono-2e" x="120.410156"/>
       <use xlink:href="#DejaVuSansMono-30" x="180.615234"/>
      </g>
     </g>
    </g>
    <g id="text_47">
     <!-- $J(\theta)$ -->
     <g transform="translate(297.5 262.991875) rotate(-90) scale(0.1 -0.1)">
      <use xlink:href="#DejaVuSans-Oblique-4a" transform="translate(0 0.234375)"/>
      <use xlink:href="#DejaVuSans-28" transform="translate(29.492188 0.234375)"/>
      <use xlink:href="#DejaVuSans-Oblique-3b8" transform="translate(68.505859 0.234375)"/>
      <use xlink:href="#DejaVuSans-29" transform="translate(129.6875 0.234375)"/>
     </g>
    </g>
   </g>
   <g id="line2d_79">
    <path d="M 345.398523 202.214602 
L 348.266021 213.633829 
L 351.133519 223.922369 
L 354.001015 233.149104 
L 356.151639 239.412704 
L 358.302262 245.144276 
L 360.452885 250.370766 
L 362.603509 255.118486 
L 364.754132 259.413159 
L 366.904756 263.279908 
L 369.055379 266.743212 
L 371.206002 269.82698 
L 373.356625 272.554499 
L 375.507248 274.948445 
L 377.657871 277.030892 
L 379.808494 278.823307 
L 381.959117 280.346545 
L 384.10974 281.620858 
L 386.260363 282.665885 
L 388.41099 283.500664 
L 390.561613 284.143624 
L 393.429109 284.733224 
L 396.296608 285.053981 
L 399.164101 285.144531 
L 402.748474 284.989752 
L 406.332847 284.600006 
L 410.634093 283.910275 
L 417.085965 282.625692 
L 426.405331 280.763604 
L 431.423456 279.978483 
L 435.724702 279.514825 
L 440.025949 279.290083 
L 443.610321 279.309576 
L 447.194694 279.532308 
L 450.77906 279.967611 
L 454.36344 280.620249 
L 457.947806 281.490148 
L 461.532179 282.572619 
L 465.116551 283.858337 
L 469.417798 285.649329 
L 473.719044 287.679308 
L 478.737169 290.291657 
L 485.905915 294.313745 
L 495.942153 299.954505 
L 500.243406 302.139376 
L 503.827772 303.748092 
L 507.412139 305.095537 
L 510.279645 305.938732 
L 513.147138 306.532677 
L 515.297757 306.790841 
L 517.44839 306.869148 
L 519.59901 306.749454 
L 521.74963 306.413207 
L 523.900262 305.841313 
L 526.050882 305.013731 
L 528.201502 303.910121 
L 530.352122 302.509436 
L 532.502742 300.789884 
L 534.653374 298.729266 
L 536.803994 296.304784 
L 538.954614 293.492806 
L 541.105247 290.269345 
L 543.255866 286.609594 
L 545.406486 282.488283 
L 547.557119 277.879414 
L 549.707739 272.756842 
L 551.858358 267.092839 
L 554.008978 260.860051 
L 556.159611 254.030154 
L 558.310231 246.573801 
L 559.743977 241.24063 
L 559.743977 241.24063 
" clip-path="url(#pd8ba03c05b)" style="fill: none; stroke: #486afb; stroke-width: 2; stroke-linecap: square"/>
   </g>
   <g id="line2d_80">
    <path d="M 557.064662 250.970098 
L 354.406384 250.970098 
L 354.406384 234.371677 
L 530.500681 234.371677 
L 530.500681 302.401038 
L 487.29561 302.401038 
L 487.29561 295.110836 
L 521.072285 295.110836 
L 521.072285 306.543657 
L 510.738903 306.543657 
L 510.738903 306.051614 
" clip-path="url(#pd8ba03c05b)" style="fill: none; stroke: #fd46fc; stroke-width: 2; stroke-linecap: square"/>
   </g>
   <g id="PathCollection_7">
    <g clip-path="url(#pd8ba03c05b)">
     <use xlink:href="#m13ffa66cfd" x="557.064662" y="250.970098" style="fill: #fd46fc; stroke: #fd46fc; stroke-width: 0.2"/>
     <use xlink:href="#m13ffa66cfd" x="354.406384" y="234.371677" style="fill: #fd46fc; stroke: #fd46fc; stroke-width: 0.2"/>
     <use xlink:href="#m13ffa66cfd" x="530.500681" y="302.401038" style="fill: #fd46fc; stroke: #fd46fc; stroke-width: 0.2"/>
     <use xlink:href="#m13ffa66cfd" x="487.29561" y="295.110836" style="fill: #fd46fc; stroke: #fd46fc; stroke-width: 0.2"/>
     <use xlink:href="#m13ffa66cfd" x="521.072285" y="306.543657" style="fill: #fd46fc; stroke: #fd46fc; stroke-width: 0.2"/>
     <use xlink:href="#m13ffa66cfd" x="510.738903" y="306.051614" style="fill: #fd46fc; stroke: #fd46fc; stroke-width: 0.2"/>
    </g>
   </g>
   <g id="PathCollection_8">
    <g clip-path="url(#pd8ba03c05b)">
     <use xlink:href="#m1ccad19293" x="557.064662" y="250.970098" style="fill: #fd46fc; stroke: #fd46fc; stroke-width: 0.2"/>
    </g>
   </g>
   <g id="patch_12">
    <path d="M 334.68125 312.101875 
L 334.68125 196.981875 
" style="fill: none; stroke: #000000; stroke-width: 0.6; stroke-linejoin: miter; stroke-linecap: square"/>
   </g>
   <g id="patch_13">
    <path d="M 334.68125 312.101875 
L 570.46125 312.101875 
" style="fill: none; stroke: #000000; stroke-width: 0.6; stroke-linejoin: miter; stroke-linecap: square"/>
   </g>
   <g id="text_48">
    <!-- $\alpha=0.2$, $N=5$ -->
    <g transform="translate(409.13125 190.981875) scale(0.12 -0.12)">
     <defs>
      <path id="DejaVuSans-32" d="M 1228 531 
L 3431 531 
L 3431 0 
L 469 0 
L 469 531 
Q 828 903 1448 1529 
Q 2069 2156 2228 2338 
Q 2531 2678 2651 2914 
Q 2772 3150 2772 3378 
Q 2772 3750 2511 3984 
Q 2250 4219 1831 4219 
Q 1534 4219 1204 4116 
Q 875 4013 500 3803 
L 500 4441 
Q 881 4594 1212 4672 
Q 1544 4750 1819 4750 
Q 2544 4750 2975 4387 
Q 3406 4025 3406 3419 
Q 3406 3131 3298 2873 
Q 3191 2616 2906 2266 
Q 2828 2175 2409 1742 
Q 1991 1309 1228 531 
z
" transform="scale(0.015625)"/>
     </defs>
     <use xlink:href="#DejaVuSans-Oblique-3b1" transform="translate(0 0.78125)"/>
     <use xlink:href="#DejaVuSans-3d" transform="translate(85.400391 0.78125)"/>
     <use xlink:href="#DejaVuSans-30" transform="translate(188.671875 0.78125)"/>
     <use xlink:href="#DejaVuSans-2e" transform="translate(252.294922 0.78125)"/>
     <use xlink:href="#DejaVuSans-32" transform="translate(278.582031 0.78125)"/>
     <use xlink:href="#DejaVuSansMono-2c" transform="translate(342.205078 0.78125)"/>
     <use xlink:href="#DejaVuSansMono-20" transform="translate(402.410156 0.78125)"/>
     <use xlink:href="#DejaVuSans-Oblique-4e" transform="translate(462.615234 0.78125)"/>
     <use xlink:href="#DejaVuSans-3d" transform="translate(556.902344 0.78125)"/>
     <use xlink:href="#DejaVuSans-35" transform="translate(660.173828 0.78125)"/>
    </g>
   </g>
  </g>
 </g>
 <defs>
  <clipPath id="p5c6a522b46">
   <rect x="52.08125" y="22.381875" width="235.78" height="115.12"/>
  </clipPath>
  <clipPath id="pd42a003171">
   <rect x="334.68125" y="22.381875" width="235.78" height="115.12"/>
  </clipPath>
  <clipPath id="p0f937385ec">
   <rect x="52.08125" y="196.981875" width="235.78" height="115.12"/>
  </clipPath>
  <clipPath id="pd8ba03c05b">
   <rect x="334.68125" y="196.981875" width="235.78" height="115.12"/>
  </clipPath>
 </defs>
</svg>