<?xml version="1.0" encoding="utf-8" standalone="no"?>
<!DOCTYPE svg PUBLIC "-//W3C//DTD SVG 1.1//EN"
  "http://www.w3.org/Graphics/SVG/1.1/DTD/svg11.dtd">
<svg xmlns:xlink="http://www.w3.org/1999/xlink" width="349.9645pt" height="277.6545pt" viewBox="0 0 349.9645 277.6545" xmlns="http://www.w3.org/2000/svg" version="1.1">
 <metadata>
  <rdf:RDF xmlns:dc="http://purl.org/dc/elements/1.1/" xmlns:cc="http://creativecommons.org/ns#" xmlns:rdf="http://www.w3.org/1999/02/22-rdf-syntax-ns#">
   <cc:Work>
    <dc:type rdf:resource="http://purl.org/dc/dcmitype/StillImage"/>
    <dc:date>2024-02-04T11:28:59.293843</dc:date>
    <dc:format>image/svg+xml</dc:format>
    <dc:creator>
     <cc:Agent>
      <dc:title>Matplotlib v3.8.2, https://matplotlib.org/</dc:title>
     </cc:Agent>
    </dc:creator>
   </cc:Work>
  </rdf:RDF>
 </metadata>
 <defs>
  <style type="text/css">*{stroke-linejoin: round; stroke-linecap: butt}</style>
 </defs>
 <g id="figure_1">
  <g id="patch_1">
   <path d="M 0 277.6545 
L 349.9645 277.6545 
L 349.9645 0 
L 0 0 
z
" style="fill: #ffffff"/>
  </g>
  <g id="axes_1">
   <g id="patch_2">
    <path d="M 52.0125 239.992 
L 342.7645 239.992 
L 342.7645 7.2 
L 52.0125 7.2 
z
" style="fill: #ffffff"/>
   </g>
   <g id="matplotlib.axis_1">
    <g id="xtick_1">
     <g id="line2d_1">
      <path d="M 52.0125 239.992 
L 52.0125 7.2 
" clip-path="url(#pb380d4dbeb)" style="fill: none; stroke-dasharray: 2.22,0.96; stroke-dashoffset: 0; stroke: #6c6066; stroke-opacity: 0.4; stroke-width: 0.6"/>
     </g>
     <g id="line2d_2">
      <defs>
       <path id="mb723ec4c16" d="M 0 0 
L 0 3.5 
" style="stroke: #000000; stroke-width: 0.8"/>
      </defs>
      <g>
       <use xlink:href="#mb723ec4c16" x="52.0125" y="239.992" style="stroke: #000000; stroke-width: 0.8"/>
      </g>
     </g>
     <g id="text_1">
      <!-- −0.50 -->
      <g transform="translate(36.961719 254.643562) scale(0.1 -0.1)">
       <defs>
        <path id="DejaVuSansMono-2212" d="M 275 2272 
L 3578 2272 
L 3578 1741 
L 275 1741 
L 275 2272 
z
" transform="scale(0.015625)"/>
        <path id="DejaVuSansMono-30" d="M 1509 2344 
Q 1509 2516 1629 2641 
Q 1750 2766 1919 2766 
Q 2094 2766 2219 2641 
Q 2344 2516 2344 2344 
Q 2344 2169 2220 2047 
Q 2097 1925 1919 1925 
Q 1744 1925 1626 2044 
Q 1509 2163 1509 2344 
z
M 1925 4250 
Q 1484 4250 1267 3775 
Q 1050 3300 1050 2328 
Q 1050 1359 1267 884 
Q 1484 409 1925 409 
Q 2369 409 2586 884 
Q 2803 1359 2803 2328 
Q 2803 3300 2586 3775 
Q 2369 4250 1925 4250 
z
M 1925 4750 
Q 2672 4750 3055 4137 
Q 3438 3525 3438 2328 
Q 3438 1134 3055 521 
Q 2672 -91 1925 -91 
Q 1178 -91 797 521 
Q 416 1134 416 2328 
Q 416 3525 797 4137 
Q 1178 4750 1925 4750 
z
" transform="scale(0.015625)"/>
        <path id="DejaVuSansMono-2e" d="M 1528 953 
L 2316 953 
L 2316 0 
L 1528 0 
L 1528 953 
z
" transform="scale(0.015625)"/>
        <path id="DejaVuSansMono-35" d="M 647 4666 
L 3009 4666 
L 3009 4134 
L 1222 4134 
L 1222 2988 
Q 1356 3038 1492 3061 
Q 1628 3084 1766 3084 
Q 2491 3084 2916 2656 
Q 3341 2228 3341 1497 
Q 3341 759 2895 334 
Q 2450 -91 1678 -91 
Q 1306 -91 998 -41 
Q 691 9 447 109 
L 447 750 
Q 734 594 1025 517 
Q 1316 441 1619 441 
Q 2141 441 2423 716 
Q 2706 991 2706 1497 
Q 2706 1997 2414 2275 
Q 2122 2553 1600 2553 
Q 1347 2553 1106 2495 
Q 866 2438 647 2322 
L 647 4666 
z
" transform="scale(0.015625)"/>
       </defs>
       <use xlink:href="#DejaVuSansMono-2212"/>
       <use xlink:href="#DejaVuSansMono-30" x="60.205078"/>
       <use xlink:href="#DejaVuSansMono-2e" x="120.410156"/>
       <use xlink:href="#DejaVuSansMono-35" x="180.615234"/>
       <use xlink:href="#DejaVuSansMono-30" x="240.820312"/>
      </g>
     </g>
    </g>
    <g id="xtick_2">
     <g id="line2d_3">
      <path d="M 88.539133 239.992 
L 88.539133 7.2 
" clip-path="url(#pb380d4dbeb)" style="fill: none; stroke-dasharray: 2.22,0.96; stroke-dashoffset: 0; stroke: #6c6066; stroke-opacity: 0.4; stroke-width: 0.6"/>
     </g>
     <g id="line2d_4">
      <g>
       <use xlink:href="#mb723ec4c16" x="88.539133" y="239.992" style="stroke: #000000; stroke-width: 0.8"/>
      </g>
     </g>
     <g id="text_2">
      <!-- −0.25 -->
      <g transform="translate(73.488352 254.643562) scale(0.1 -0.1)">
       <defs>
        <path id="DejaVuSansMono-32" d="M 1166 531 
L 3309 531 
L 3309 0 
L 475 0 
L 475 531 
Q 1059 1147 1496 1619 
Q 1934 2091 2100 2284 
Q 2413 2666 2522 2902 
Q 2631 3138 2631 3384 
Q 2631 3775 2401 3997 
Q 2172 4219 1772 4219 
Q 1488 4219 1175 4116 
Q 863 4013 513 3803 
L 513 4441 
Q 834 4594 1145 4672 
Q 1456 4750 1759 4750 
Q 2444 4750 2861 4386 
Q 3278 4022 3278 3431 
Q 3278 3131 3139 2831 
Q 3000 2531 2688 2169 
Q 2513 1966 2180 1606 
Q 1847 1247 1166 531 
z
" transform="scale(0.015625)"/>
       </defs>
       <use xlink:href="#DejaVuSansMono-2212"/>
       <use xlink:href="#DejaVuSansMono-30" x="60.205078"/>
       <use xlink:href="#DejaVuSansMono-2e" x="120.410156"/>
       <use xlink:href="#DejaVuSansMono-32" x="180.615234"/>
       <use xlink:href="#DejaVuSansMono-35" x="240.820312"/>
      </g>
     </g>
    </g>
    <g id="xtick_3">
     <g id="line2d_5">
      <path d="M 125.065766 239.992 
L 125.065766 7.2 
" clip-path="url(#pb380d4dbeb)" style="fill: none; stroke-dasharray: 2.22,0.96; stroke-dashoffset: 0; stroke: #6c6066; stroke-opacity: 0.4; stroke-width: 0.6"/>
     </g>
     <g id="line2d_6">
      <g>
       <use xlink:href="#mb723ec4c16" x="125.065766" y="239.992" style="stroke: #000000; stroke-width: 0.8"/>
      </g>
     </g>
     <g id="text_3">
      <!-- 0.00 -->
      <g transform="translate(113.025141 254.643562) scale(0.1 -0.1)">
       <use xlink:href="#DejaVuSansMono-30"/>
       <use xlink:href="#DejaVuSansMono-2e" x="60.205078"/>
       <use xlink:href="#DejaVuSansMono-30" x="120.410156"/>
       <use xlink:href="#DejaVuSansMono-30" x="180.615234"/>
      </g>
     </g>
    </g>
    <g id="xtick_4">
     <g id="line2d_7">
      <path d="M 161.592399 239.992 
L 161.592399 7.2 
" clip-path="url(#pb380d4dbeb)" style="fill: none; stroke-dasharray: 2.22,0.96; stroke-dashoffset: 0; stroke: #6c6066; stroke-opacity: 0.4; stroke-width: 0.6"/>
     </g>
     <g id="line2d_8">
      <g>
       <use xlink:href="#mb723ec4c16" x="161.592399" y="239.992" style="stroke: #000000; stroke-width: 0.8"/>
      </g>
     </g>
     <g id="text_4">
      <!-- 0.25 -->
      <g transform="translate(149.551774 254.643562) scale(0.1 -0.1)">
       <use xlink:href="#DejaVuSansMono-30"/>
       <use xlink:href="#DejaVuSansMono-2e" x="60.205078"/>
       <use xlink:href="#DejaVuSansMono-32" x="120.410156"/>
       <use xlink:href="#DejaVuSansMono-35" x="180.615234"/>
      </g>
     </g>
    </g>
    <g id="xtick_5">
     <g id="line2d_9">
      <path d="M 198.119033 239.992 
L 198.119033 7.2 
" clip-path="url(#pb380d4dbeb)" style="fill: none; stroke-dasharray: 2.22,0.96; stroke-dashoffset: 0; stroke: #6c6066; stroke-opacity: 0.4; stroke-width: 0.6"/>
     </g>
     <g id="line2d_10">
      <g>
       <use xlink:href="#mb723ec4c16" x="198.119033" y="239.992" style="stroke: #000000; stroke-width: 0.8"/>
      </g>
     </g>
     <g id="text_5">
      <!-- 0.50 -->
      <g transform="translate(186.078408 254.643562) scale(0.1 -0.1)">
       <use xlink:href="#DejaVuSansMono-30"/>
       <use xlink:href="#DejaVuSansMono-2e" x="60.205078"/>
       <use xlink:href="#DejaVuSansMono-35" x="120.410156"/>
       <use xlink:href="#DejaVuSansMono-30" x="180.615234"/>
      </g>
     </g>
    </g>
    <g id="xtick_6">
     <g id="line2d_11">
      <path d="M 234.645666 239.992 
L 234.645666 7.2 
" clip-path="url(#pb380d4dbeb)" style="fill: none; stroke-dasharray: 2.22,0.96; stroke-dashoffset: 0; stroke: #6c6066; stroke-opacity: 0.4; stroke-width: 0.6"/>
     </g>
     <g id="line2d_12">
      <g>
       <use xlink:href="#mb723ec4c16" x="234.645666" y="239.992" style="stroke: #000000; stroke-width: 0.8"/>
      </g>
     </g>
     <g id="text_6">
      <!-- 0.75 -->
      <g transform="translate(222.605041 254.643562) scale(0.1 -0.1)">
       <defs>
        <path id="DejaVuSansMono-37" d="M 434 4666 
L 3372 4666 
L 3372 4397 
L 1703 0 
L 1044 0 
L 2669 4134 
L 434 4134 
L 434 4666 
z
" transform="scale(0.015625)"/>
       </defs>
       <use xlink:href="#DejaVuSansMono-30"/>
       <use xlink:href="#DejaVuSansMono-2e" x="60.205078"/>
       <use xlink:href="#DejaVuSansMono-37" x="120.410156"/>
       <use xlink:href="#DejaVuSansMono-35" x="180.615234"/>
      </g>
     </g>
    </g>
    <g id="xtick_7">
     <g id="line2d_13">
      <path d="M 271.172299 239.992 
L 271.172299 7.2 
" clip-path="url(#pb380d4dbeb)" style="fill: none; stroke-dasharray: 2.22,0.96; stroke-dashoffset: 0; stroke: #6c6066; stroke-opacity: 0.4; stroke-width: 0.6"/>
     </g>
     <g id="line2d_14">
      <g>
       <use xlink:href="#mb723ec4c16" x="271.172299" y="239.992" style="stroke: #000000; stroke-width: 0.8"/>
      </g>
     </g>
     <g id="text_7">
      <!-- 1.00 -->
      <g transform="translate(259.131674 254.643562) scale(0.1 -0.1)">
       <defs>
        <path id="DejaVuSansMono-31" d="M 844 531 
L 1825 531 
L 1825 4097 
L 769 3859 
L 769 4434 
L 1819 4666 
L 2450 4666 
L 2450 531 
L 3419 531 
L 3419 0 
L 844 0 
L 844 531 
z
" transform="scale(0.015625)"/>
       </defs>
       <use xlink:href="#DejaVuSansMono-31"/>
       <use xlink:href="#DejaVuSansMono-2e" x="60.205078"/>
       <use xlink:href="#DejaVuSansMono-30" x="120.410156"/>
       <use xlink:href="#DejaVuSansMono-30" x="180.615234"/>
      </g>
     </g>
    </g>
    <g id="xtick_8">
     <g id="line2d_15">
      <path d="M 307.698932 239.992 
L 307.698932 7.2 
" clip-path="url(#pb380d4dbeb)" style="fill: none; stroke-dasharray: 2.22,0.96; stroke-dashoffset: 0; stroke: #6c6066; stroke-opacity: 0.4; stroke-width: 0.6"/>
     </g>
     <g id="line2d_16">
      <g>
       <use xlink:href="#mb723ec4c16" x="307.698932" y="239.992" style="stroke: #000000; stroke-width: 0.8"/>
      </g>
     </g>
     <g id="text_8">
      <!-- 1.25 -->
      <g transform="translate(295.658307 254.643562) scale(0.1 -0.1)">
       <use xlink:href="#DejaVuSansMono-31"/>
       <use xlink:href="#DejaVuSansMono-2e" x="60.205078"/>
       <use xlink:href="#DejaVuSansMono-32" x="120.410156"/>
       <use xlink:href="#DejaVuSansMono-35" x="180.615234"/>
      </g>
     </g>
    </g>
    <g id="text_9">
     <!-- $\theta_1$ -->
     <g transform="translate(191.9385 268.374812) scale(0.1 -0.1)">
      <defs>
       <path id="DejaVuSans-Oblique-3b8" d="M 2913 2219 
L 925 2219 
Q 791 1284 928 888 
Q 1100 400 1566 400 
Q 2034 400 2391 891 
Q 2703 1322 2913 2219 
z
M 3009 2750 
Q 3094 3638 2984 3950 
Q 2813 4444 2353 4444 
Q 1875 4444 1525 3956 
Q 1250 3563 1034 2750 
L 3009 2750 
z
M 2444 4913 
Q 3194 4913 3494 4250 
Q 3794 3591 3566 2422 
Q 3341 1256 2781 594 
Q 2225 -72 1475 -72 
Q 722 -72 425 594 
Q 128 1256 353 2422 
Q 581 3591 1134 4250 
Q 1691 4913 2444 4913 
z
" transform="scale(0.015625)"/>
       <path id="DejaVuSans-31" d="M 794 531 
L 1825 531 
L 1825 4091 
L 703 3866 
L 703 4441 
L 1819 4666 
L 2450 4666 
L 2450 531 
L 3481 531 
L 3481 0 
L 794 0 
L 794 531 
z
" transform="scale(0.015625)"/>
      </defs>
      <use xlink:href="#DejaVuSans-Oblique-3b8" transform="translate(0 0.234375)"/>
      <use xlink:href="#DejaVuSans-31" transform="translate(61.181641 -16.171875) scale(0.7)"/>
     </g>
    </g>
   </g>
   <g id="matplotlib.axis_2">
    <g id="ytick_1">
     <g id="line2d_17">
      <path d="M 52.0125 225.350994 
L 342.7645 225.350994 
" clip-path="url(#pb380d4dbeb)" style="fill: none; stroke-dasharray: 2.22,0.96; stroke-dashoffset: 0; stroke: #6c6066; stroke-opacity: 0.4; stroke-width: 0.6"/>
     </g>
     <g id="line2d_18">
      <defs>
       <path id="mb9542fbb07" d="M 0 0 
L -3.5 0 
" style="stroke: #000000; stroke-width: 0.8"/>
      </defs>
      <g>
       <use xlink:href="#mb9542fbb07" x="52.0125" y="225.350994" style="stroke: #000000; stroke-width: 0.8"/>
      </g>
     </g>
     <g id="text_10">
      <!-- −0.2 -->
      <g transform="translate(20.93125 229.176775) scale(0.1 -0.1)">
       <use xlink:href="#DejaVuSansMono-2212"/>
       <use xlink:href="#DejaVuSansMono-30" x="60.205078"/>
       <use xlink:href="#DejaVuSansMono-2e" x="120.410156"/>
       <use xlink:href="#DejaVuSansMono-32" x="180.615234"/>
      </g>
     </g>
    </g>
    <g id="ytick_2">
     <g id="line2d_19">
      <path d="M 52.0125 196.068981 
L 342.7645 196.068981 
" clip-path="url(#pb380d4dbeb)" style="fill: none; stroke-dasharray: 2.22,0.96; stroke-dashoffset: 0; stroke: #6c6066; stroke-opacity: 0.4; stroke-width: 0.6"/>
     </g>
     <g id="line2d_20">
      <g>
       <use xlink:href="#mb9542fbb07" x="52.0125" y="196.068981" style="stroke: #000000; stroke-width: 0.8"/>
      </g>
     </g>
     <g id="text_11">
      <!-- 0.0 -->
      <g transform="translate(26.951563 199.894762) scale(0.1 -0.1)">
       <use xlink:href="#DejaVuSansMono-30"/>
       <use xlink:href="#DejaVuSansMono-2e" x="60.205078"/>
       <use xlink:href="#DejaVuSansMono-30" x="120.410156"/>
      </g>
     </g>
    </g>
    <g id="ytick_3">
     <g id="line2d_21">
      <path d="M 52.0125 166.786969 
L 342.7645 166.786969 
" clip-path="url(#pb380d4dbeb)" style="fill: none; stroke-dasharray: 2.22,0.96; stroke-dashoffset: 0; stroke: #6c6066; stroke-opacity: 0.4; stroke-width: 0.6"/>
     </g>
     <g id="line2d_22">
      <g>
       <use xlink:href="#mb9542fbb07" x="52.0125" y="166.786969" style="stroke: #000000; stroke-width: 0.8"/>
      </g>
     </g>
     <g id="text_12">
      <!-- 0.2 -->
      <g transform="translate(26.951563 170.61275) scale(0.1 -0.1)">
       <use xlink:href="#DejaVuSansMono-30"/>
       <use xlink:href="#DejaVuSansMono-2e" x="60.205078"/>
       <use xlink:href="#DejaVuSansMono-32" x="120.410156"/>
      </g>
     </g>
    </g>
    <g id="ytick_4">
     <g id="line2d_23">
      <path d="M 52.0125 137.504956 
L 342.7645 137.504956 
" clip-path="url(#pb380d4dbeb)" style="fill: none; stroke-dasharray: 2.22,0.96; stroke-dashoffset: 0; stroke: #6c6066; stroke-opacity: 0.4; stroke-width: 0.6"/>
     </g>
     <g id="line2d_24">
      <g>
       <use xlink:href="#mb9542fbb07" x="52.0125" y="137.504956" style="stroke: #000000; stroke-width: 0.8"/>
      </g>
     </g>
     <g id="text_13">
      <!-- 0.4 -->
      <g transform="translate(26.951563 141.330737) scale(0.1 -0.1)">
       <defs>
        <path id="DejaVuSansMono-34" d="M 2297 4091 
L 825 1625 
L 2297 1625 
L 2297 4091 
z
M 2194 4666 
L 2925 4666 
L 2925 1625 
L 3547 1625 
L 3547 1113 
L 2925 1113 
L 2925 0 
L 2297 0 
L 2297 1113 
L 319 1113 
L 319 1709 
L 2194 4666 
z
" transform="scale(0.015625)"/>
       </defs>
       <use xlink:href="#DejaVuSansMono-30"/>
       <use xlink:href="#DejaVuSansMono-2e" x="60.205078"/>
       <use xlink:href="#DejaVuSansMono-34" x="120.410156"/>
      </g>
     </g>
    </g>
    <g id="ytick_5">
     <g id="line2d_25">
      <path d="M 52.0125 108.222943 
L 342.7645 108.222943 
" clip-path="url(#pb380d4dbeb)" style="fill: none; stroke-dasharray: 2.22,0.96; stroke-dashoffset: 0; stroke: #6c6066; stroke-opacity: 0.4; stroke-width: 0.6"/>
     </g>
     <g id="line2d_26">
      <g>
       <use xlink:href="#mb9542fbb07" x="52.0125" y="108.222943" style="stroke: #000000; stroke-width: 0.8"/>
      </g>
     </g>
     <g id="text_14">
      <!-- 0.6 -->
      <g transform="translate(26.951563 112.048725) scale(0.1 -0.1)">
       <defs>
        <path id="DejaVuSansMono-36" d="M 3097 4563 
L 3097 3981 
Q 2900 4097 2678 4158 
Q 2456 4219 2216 4219 
Q 1616 4219 1306 3767 
Q 997 3316 997 2438 
Q 1147 2750 1412 2917 
Q 1678 3084 2022 3084 
Q 2697 3084 3067 2670 
Q 3438 2256 3438 1497 
Q 3438 741 3056 325 
Q 2675 -91 1984 -91 
Q 1172 -91 794 492 
Q 416 1075 416 2328 
Q 416 3509 870 4129 
Q 1325 4750 2188 4750 
Q 2419 4750 2650 4701 
Q 2881 4653 3097 4563 
z
M 1972 2591 
Q 1569 2591 1337 2300 
Q 1106 2009 1106 1497 
Q 1106 984 1337 693 
Q 1569 403 1972 403 
Q 2391 403 2603 679 
Q 2816 956 2816 1497 
Q 2816 2041 2603 2316 
Q 2391 2591 1972 2591 
z
" transform="scale(0.015625)"/>
       </defs>
       <use xlink:href="#DejaVuSansMono-30"/>
       <use xlink:href="#DejaVuSansMono-2e" x="60.205078"/>
       <use xlink:href="#DejaVuSansMono-36" x="120.410156"/>
      </g>
     </g>
    </g>
    <g id="ytick_6">
     <g id="line2d_27">
      <path d="M 52.0125 78.940931 
L 342.7645 78.940931 
" clip-path="url(#pb380d4dbeb)" style="fill: none; stroke-dasharray: 2.22,0.96; stroke-dashoffset: 0; stroke: #6c6066; stroke-opacity: 0.4; stroke-width: 0.6"/>
     </g>
     <g id="line2d_28">
      <g>
       <use xlink:href="#mb9542fbb07" x="52.0125" y="78.940931" style="stroke: #000000; stroke-width: 0.8"/>
      </g>
     </g>
     <g id="text_15">
      <!-- 0.8 -->
      <g transform="translate(26.951563 82.766712) scale(0.1 -0.1)">
       <defs>
        <path id="DejaVuSansMono-38" d="M 1925 2216 
Q 1503 2216 1273 1980 
Q 1044 1744 1044 1313 
Q 1044 881 1276 642 
Q 1509 403 1925 403 
Q 2350 403 2579 639 
Q 2809 875 2809 1313 
Q 2809 1741 2576 1978 
Q 2344 2216 1925 2216 
z
M 1375 2478 
Q 972 2581 745 2862 
Q 519 3144 519 3541 
Q 519 4097 897 4423 
Q 1275 4750 1925 4750 
Q 2578 4750 2956 4423 
Q 3334 4097 3334 3541 
Q 3334 3144 3107 2862 
Q 2881 2581 2478 2478 
Q 2947 2375 3195 2062 
Q 3444 1750 3444 1253 
Q 3444 622 3041 265 
Q 2638 -91 1925 -91 
Q 1213 -91 811 264 
Q 409 619 409 1247 
Q 409 1747 657 2061 
Q 906 2375 1375 2478 
z
M 1147 3481 
Q 1147 3106 1347 2909 
Q 1547 2713 1925 2713 
Q 2306 2713 2506 2909 
Q 2706 3106 2706 3481 
Q 2706 3863 2507 4063 
Q 2309 4263 1925 4263 
Q 1547 4263 1347 4061 
Q 1147 3859 1147 3481 
z
" transform="scale(0.015625)"/>
       </defs>
       <use xlink:href="#DejaVuSansMono-30"/>
       <use xlink:href="#DejaVuSansMono-2e" x="60.205078"/>
       <use xlink:href="#DejaVuSansMono-38" x="120.410156"/>
      </g>
     </g>
    </g>
    <g id="ytick_7">
     <g id="line2d_29">
      <path d="M 52.0125 49.658918 
L 342.7645 49.658918 
" clip-path="url(#pb380d4dbeb)" style="fill: none; stroke-dasharray: 2.22,0.96; stroke-dashoffset: 0; stroke: #6c6066; stroke-opacity: 0.4; stroke-width: 0.6"/>
     </g>
     <g id="line2d_30">
      <g>
       <use xlink:href="#mb9542fbb07" x="52.0125" y="49.658918" style="stroke: #000000; stroke-width: 0.8"/>
      </g>
     </g>
     <g id="text_16">
      <!-- 1.0 -->
      <g transform="translate(26.951563 53.484699) scale(0.1 -0.1)">
       <use xlink:href="#DejaVuSansMono-31"/>
       <use xlink:href="#DejaVuSansMono-2e" x="60.205078"/>
       <use xlink:href="#DejaVuSansMono-30" x="120.410156"/>
      </g>
     </g>
    </g>
    <g id="ytick_8">
     <g id="line2d_31">
      <path d="M 52.0125 20.376906 
L 342.7645 20.376906 
" clip-path="url(#pb380d4dbeb)" style="fill: none; stroke-dasharray: 2.22,0.96; stroke-dashoffset: 0; stroke: #6c6066; stroke-opacity: 0.4; stroke-width: 0.6"/>
     </g>
     <g id="line2d_32">
      <g>
       <use xlink:href="#mb9542fbb07" x="52.0125" y="20.376906" style="stroke: #000000; stroke-width: 0.8"/>
      </g>
     </g>
     <g id="text_17">
      <!-- 1.2 -->
      <g transform="translate(26.951563 24.202687) scale(0.1 -0.1)">
       <use xlink:href="#DejaVuSansMono-31"/>
       <use xlink:href="#DejaVuSansMono-2e" x="60.205078"/>
       <use xlink:href="#DejaVuSansMono-32" x="120.410156"/>
      </g>
     </g>
    </g>
    <g id="text_18">
     <!-- $\theta_2$ -->
     <g transform="translate(14.851563 129.046) rotate(-90) scale(0.1 -0.1)">
      <defs>
       <path id="DejaVuSans-32" d="M 1228 531 
L 3431 531 
L 3431 0 
L 469 0 
L 469 531 
Q 828 903 1448 1529 
Q 2069 2156 2228 2338 
Q 2531 2678 2651 2914 
Q 2772 3150 2772 3378 
Q 2772 3750 2511 3984 
Q 2250 4219 1831 4219 
Q 1534 4219 1204 4116 
Q 875 4013 500 3803 
L 500 4441 
Q 881 4594 1212 4672 
Q 1544 4750 1819 4750 
Q 2544 4750 2975 4387 
Q 3406 4025 3406 3419 
Q 3406 3131 3298 2873 
Q 3191 2616 2906 2266 
Q 2828 2175 2409 1742 
Q 1991 1309 1228 531 
z
" transform="scale(0.015625)"/>
      </defs>
      <use xlink:href="#DejaVuSans-Oblique-3b8" transform="translate(0 0.234375)"/>
      <use xlink:href="#DejaVuSans-32" transform="translate(61.181641 -16.171875) scale(0.7)"/>
     </g>
    </g>
   </g>
   <g id="QuadContourSet_1">
    <path d="M 125.065766 196.068981 
L 125.065766 196.068981 
L 125.065766 196.068981 
L 125.065766 196.068981 
L 125.065766 196.068981 
z
M 271.172299 49.658918 
L 271.172299 49.658918 
L 271.172299 49.658918 
L 271.172299 49.658918 
L 271.172299 49.658918 
z
" clip-path="url(#pb380d4dbeb)" style="fill: none; stroke: #486afb; stroke-width: 2"/>
    <path d="M 82.303691 196.068981 
L 82.694872 197.038421 
L 82.898707 197.533082 
L 83.997143 198.997182 
L 84.155937 199.141594 
L 85.617003 200.442741 
L 85.638324 200.461283 
L 87.078068 201.398656 
L 87.905511 201.925384 
L 88.539133 202.244721 
L 90.000198 202.960092 
L 90.902951 203.389484 
L 91.461264 203.607197 
L 92.922329 204.157216 
L 94.383394 204.68962 
L 94.85173 204.853585 
L 95.84446 205.145409 
L 97.305525 205.557426 
L 98.76659 205.952361 
L 100.181256 206.317686 
L 100.227656 206.327933 
L 101.688721 206.633289 
L 103.149786 206.92262 
L 104.610852 207.195616 
L 106.071917 207.451974 
L 107.532982 207.691412 
L 108.128515 207.781786 
L 108.994048 207.895563 
L 110.455113 208.07217 
L 111.916178 208.233436 
L 113.377244 208.379202 
L 114.838309 208.509321 
L 116.299374 208.623665 
L 117.76044 208.722121 
L 119.221505 208.804591 
L 120.68257 208.870994 
L 122.143636 208.921269 
L 123.604701 208.955367 
L 125.065766 208.973261 
L 126.526832 208.974941 
L 127.987897 208.960414 
L 129.448962 208.929706 
L 130.910028 208.882861 
L 132.371093 208.81994 
L 133.832158 208.741025 
L 135.293224 208.646213 
L 136.754289 208.53562 
L 138.215354 208.40938 
L 139.67642 208.267645 
L 141.137485 208.110582 
L 142.59855 207.938375 
L 143.820824 207.781786 
L 144.059616 207.746361 
L 145.520681 207.51244 
L 146.981746 207.261907 
L 148.442812 206.995084 
L 149.903877 206.712313 
L 151.364942 206.413954 
L 151.812653 206.317686 
L 152.826008 206.062168 
L 154.287073 205.676443 
L 155.748138 205.274326 
L 157.209204 204.856373 
L 157.218566 204.853585 
L 158.670269 204.338203 
L 160.131334 203.803003 
L 161.226518 203.389484 
L 161.592399 203.220792 
L 163.053465 202.527309 
L 164.29341 201.925384 
L 164.51453 201.789947 
L 165.975595 200.873998 
L 166.621842 200.461283 
L 167.436661 199.772654 
L 168.340583 198.997182 
L 168.897726 198.309251 
L 169.518133 197.533082 
L 170.201307 196.068981 
L 170.358791 194.951355 
L 170.407092 194.604881 
L 170.358791 194.329027 
L 170.139856 193.14078 
L 169.393621 191.676679 
L 168.897726 191.077101 
L 168.143416 190.212579 
L 167.436661 189.619008 
L 166.340949 188.748478 
L 165.975595 188.516408 
L 164.51453 187.635416 
L 163.899134 187.284377 
L 163.053465 186.877235 
L 161.592399 186.211583 
L 160.683326 185.820277 
L 160.131334 185.612549 
L 158.670269 185.091362 
L 157.209204 184.600936 
L 156.436358 184.356176 
L 155.748138 184.160638 
L 154.287073 183.769057 
L 152.826008 183.401991 
L 151.364942 183.058711 
L 150.607001 182.892075 
L 149.903877 182.750659 
L 148.442812 182.476339 
L 146.981746 182.222065 
L 145.520681 181.987398 
L 144.059616 181.771938 
L 142.59855 181.57532 
L 141.390867 181.427975 
L 141.137485 181.399255 
L 139.67642 181.24995 
L 138.215354 181.117375 
L 136.754289 181.00132 
L 135.293224 180.901602 
L 133.832158 180.818059 
L 132.371093 180.750554 
L 130.910028 180.698972 
L 129.448962 180.663218 
L 127.987897 180.64322 
L 126.526832 180.638927 
L 125.065766 180.650305 
L 123.604701 180.677344 
L 122.143636 180.720051 
L 120.68257 180.778454 
L 119.221505 180.852598 
L 117.76044 180.942549 
L 116.299374 181.048392 
L 114.838309 181.170231 
L 113.377244 181.308188 
L 112.242607 181.427975 
L 111.916178 181.464896 
L 110.455113 181.647929 
L 108.994048 181.848872 
L 107.532982 182.067966 
L 106.071917 182.305476 
L 104.610852 182.561691 
L 103.149786 182.836928 
L 102.87611 182.892075 
L 101.688721 183.152527 
L 100.227656 183.494692 
L 98.76659 183.859091 
L 97.305525 184.246248 
L 96.913632 184.356176 
L 95.84446 184.688864 
L 94.383394 185.170255 
L 92.922329 185.679549 
L 92.539192 185.820277 
L 91.461264 186.270328 
L 90.000198 186.914525 
L 89.204146 187.284377 
L 88.539133 187.64727 
L 87.078068 188.488182 
L 86.648301 188.748478 
L 85.617003 189.519003 
L 84.737271 190.212579 
L 84.155937 190.823244 
L 83.385712 191.676679 
L 82.694872 192.861639 
L 82.540522 193.14078 
L 82.187262 194.604881 
L 82.303691 196.068981 
z
M 225.830971 51.123019 
L 225.879274 51.398888 
L 226.098207 52.587119 
L 226.84444 54.05122 
L 227.340339 54.6508 
L 228.094656 55.515321 
L 228.801405 56.108883 
L 229.897119 56.979421 
L 230.26247 57.211491 
L 231.723535 58.092485 
L 232.33893 58.443522 
L 233.184601 58.850665 
L 234.645666 59.516316 
L 235.554738 59.907623 
L 236.106731 60.115351 
L 237.567796 60.636538 
L 239.028862 61.126965 
L 239.801699 61.371723 
L 240.489927 61.567265 
L 241.950992 61.958846 
L 243.412058 62.325912 
L 244.873123 62.669194 
L 245.631041 62.835824 
L 246.334188 62.977243 
L 247.795254 63.251562 
L 249.256319 63.505835 
L 250.717384 63.7405 
L 252.17845 63.955959 
L 253.639515 64.152577 
L 254.847231 64.299925 
L 255.10058 64.328641 
L 256.561646 64.477945 
L 258.022711 64.610521 
L 259.483776 64.726576 
L 260.944842 64.826294 
L 262.405907 64.909837 
L 263.866972 64.977342 
L 265.328038 65.028925 
L 266.789103 65.064679 
L 268.250168 65.084677 
L 269.711234 65.08897 
L 271.172299 65.077591 
L 272.633364 65.050552 
L 274.09443 65.007846 
L 275.555495 64.949443 
L 277.01656 64.875298 
L 278.477626 64.785347 
L 279.938691 64.679504 
L 281.399756 64.557664 
L 282.860822 64.419707 
L 283.995428 64.299925 
L 284.321887 64.263 
L 285.782952 64.079968 
L 287.244018 63.879026 
L 288.705083 63.659933 
L 290.166148 63.422424 
L 291.627214 63.16621 
L 293.088279 62.890976 
L 293.361977 62.835824 
L 294.549344 62.575377 
L 296.01041 62.233212 
L 297.471475 61.868813 
L 298.93254 61.481652 
L 299.324434 61.371723 
L 300.393606 61.039036 
L 301.854671 60.557644 
L 303.315736 60.04835 
L 303.698872 59.907623 
L 304.776802 59.457571 
L 306.237867 58.813374 
L 307.033919 58.443522 
L 307.698932 58.080628 
L 309.159997 57.239716 
L 309.589761 56.979421 
L 310.621063 56.208895 
L 311.500793 55.515321 
L 312.082128 54.90466 
L 312.852363 54.05122 
L 313.543193 52.866272 
L 313.697549 52.587119 
L 314.05081 51.123019 
L 313.934379 49.658918 
L 313.543193 48.689467 
L 313.339363 48.194818 
L 312.240927 46.730717 
L 312.082128 46.5863 
L 310.621063 45.285152 
L 310.599749 45.266616 
L 309.159997 44.329239 
L 308.332563 43.802516 
L 307.698932 43.483173 
L 306.237867 42.767802 
L 305.335126 42.338415 
L 304.776802 42.120698 
L 303.315736 41.570677 
L 301.854671 41.038273 
L 301.386355 40.874314 
L 300.393606 40.582488 
L 298.93254 40.170476 
L 297.471475 39.77554 
L 296.056785 39.410214 
L 296.01041 39.399972 
L 294.549344 39.094617 
L 293.088279 38.805285 
L 291.627214 38.53229 
L 290.166148 38.275932 
L 288.705083 38.036494 
L 288.109501 37.946113 
L 287.244018 37.832343 
L 285.782952 37.655735 
L 284.321887 37.494468 
L 282.860822 37.348703 
L 281.399756 37.218584 
L 279.938691 37.104239 
L 278.477626 37.005783 
L 277.01656 36.923314 
L 275.555495 36.856909 
L 274.09443 36.806636 
L 272.633364 36.772537 
L 271.172299 36.754643 
L 269.711234 36.752963 
L 268.250168 36.76749 
L 266.789103 36.798198 
L 265.328038 36.845044 
L 263.866972 36.907963 
L 262.405907 36.986879 
L 260.944842 37.081691 
L 259.483776 37.192284 
L 258.022711 37.318524 
L 256.561646 37.46026 
L 255.10058 37.617324 
L 253.639515 37.78953 
L 252.417284 37.946113 
L 252.17845 37.981545 
L 250.717384 38.215465 
L 249.256319 38.465998 
L 247.795254 38.732823 
L 246.334188 39.015594 
L 244.873123 39.313952 
L 244.425443 39.410214 
L 243.412058 39.665736 
L 241.950992 40.051457 
L 240.489927 40.45357 
L 239.028862 40.871521 
L 239.019479 40.874314 
L 237.567796 41.38969 
L 236.106731 41.92489 
L 235.011532 42.338415 
L 234.645666 42.5071 
L 233.184601 43.200586 
L 231.944644 43.802516 
L 231.723535 43.937946 
L 230.26247 44.853895 
L 229.616218 45.266616 
L 228.801405 45.955247 
L 227.897483 46.730717 
L 227.340339 47.418647 
L 226.71993 48.194818 
L 226.036758 49.658918 
L 225.879274 50.77653 
L 225.830971 51.123019 
" clip-path="url(#pb380d4dbeb)" style="fill: none; stroke: #486afb; stroke-width: 2"/>
    <path d="M 65.070291 194.604881 
L 65.162088 195.041699 
L 65.380669 196.068981 
L 66.027738 197.533082 
L 66.623153 198.416033 
L 67.019753 198.997182 
L 68.084219 200.14636 
L 68.379444 200.461283 
L 69.545284 201.436301 
L 70.137177 201.925384 
L 71.006349 202.511284 
L 72.325074 203.389484 
L 72.467415 203.468981 
L 73.92848 204.26907 
L 75.010873 204.853585 
L 75.389545 205.028368 
L 76.850611 205.688504 
L 78.26583 206.317686 
L 78.311676 206.335368 
L 79.772741 206.884289 
L 81.233807 207.42233 
L 82.23319 207.781786 
L 82.694872 207.92746 
L 84.155937 208.375545 
L 85.617003 208.812418 
L 87.078068 209.237734 
L 87.107052 209.245887 
L 88.539133 209.602374 
L 90.000198 209.954914 
L 91.461264 210.296067 
L 92.922329 210.625577 
L 93.312032 210.709987 
L 94.383394 210.916905 
L 95.84446 211.187767 
L 97.305525 211.447462 
L 98.76659 211.695799 
L 100.227656 211.932603 
L 101.688721 212.157698 
L 101.80142 212.174088 
L 103.149786 212.349972 
L 104.610852 212.529667 
L 106.071917 212.6984 
L 107.532982 212.85606 
L 108.994048 213.002539 
L 110.455113 213.137737 
L 111.916178 213.261562 
L 113.377244 213.37393 
L 114.838309 213.474764 
L 116.299374 213.563997 
L 117.696923 213.638189 
L 117.76044 213.641227 
L 119.221505 213.700429 
L 120.68257 213.749056 
L 122.143636 213.78708 
L 123.604701 213.814484 
L 125.065766 213.831254 
L 126.526832 213.837388 
L 127.987897 213.832888 
L 129.448962 213.817766 
L 130.910028 213.792041 
L 132.371093 213.755738 
L 133.832158 213.708892 
L 135.293224 213.651545 
L 135.581127 213.638189 
L 136.754289 213.577621 
L 138.215354 213.49064 
L 139.67642 213.392184 
L 141.137485 213.282338 
L 142.59855 213.161197 
L 144.059616 213.028866 
L 145.520681 212.885457 
L 146.981746 212.731091 
L 148.442812 212.565897 
L 149.903877 212.390011 
L 151.364942 212.203581 
L 151.583624 212.174088 
L 152.826008 211.986828 
L 154.287073 211.755217 
L 155.748138 211.512475 
L 157.209204 211.258811 
L 158.670269 210.994449 
L 160.131334 210.719614 
L 160.180556 210.709987 
L 161.592399 210.399655 
L 163.053465 210.067474 
L 164.51453 209.7246 
L 165.975595 209.371345 
L 166.478946 209.245887 
L 167.436661 208.975731 
L 168.897726 208.552411 
L 170.358791 208.118906 
L 171.468723 207.781786 
L 171.819857 207.660034 
L 173.280922 207.141397 
L 174.741987 206.613328 
L 175.54426 206.317686 
L 176.203053 206.037754 
L 177.664118 205.406106 
L 178.925326 204.853585 
L 179.125183 204.75128 
L 180.586249 203.991419 
L 181.733077 203.389484 
L 182.047314 203.193577 
L 183.508379 202.272607 
L 184.054602 201.925384 
L 184.969445 201.220032 
L 185.948667 200.461283 
L 186.43051 199.993889 
L 187.454031 198.997182 
L 187.891575 198.438357 
L 188.598356 197.533082 
L 189.352641 196.166347 
L 189.406276 196.068981 
L 189.880372 194.604881 
L 190.037207 193.14078 
L 189.876802 191.676679 
L 189.398678 190.212579 
L 189.352641 190.126223 
L 188.585414 188.748478 
L 187.891575 187.850922 
L 187.433594 187.284377 
L 186.43051 186.300939 
L 185.9172 185.820277 
L 184.969445 185.07676 
L 184.006456 184.356176 
L 183.508379 184.032347 
L 182.047314 183.123995 
L 181.65749 182.892075 
L 180.586249 182.322772 
L 179.125183 181.582971 
L 178.805947 181.427975 
L 177.664118 180.922646 
L 176.203053 180.306059 
L 175.354316 179.963874 
L 174.741987 179.735345 
L 173.280922 179.213116 
L 171.819857 178.71621 
L 171.154169 178.499774 
L 170.358791 178.257269 
L 168.897726 177.831737 
L 167.436661 177.427234 
L 165.975595 177.043049 
L 165.946264 177.035673 
L 164.51453 176.694364 
L 163.053465 176.364029 
L 161.592399 176.051194 
L 160.131334 175.755369 
L 159.172055 175.571572 
L 158.670269 175.479645 
L 157.209204 175.226235 
L 155.748138 174.987917 
L 154.287073 174.764344 
L 152.826008 174.555201 
L 151.364942 174.360194 
L 149.903877 174.179047 
L 149.281663 174.107472 
L 148.442812 174.014487 
L 146.981746 173.8651 
L 145.520681 173.728459 
L 144.059616 173.604369 
L 142.59855 173.492662 
L 141.137485 173.393181 
L 139.67642 173.305781 
L 138.215354 173.230338 
L 136.754289 173.166731 
L 135.293224 173.114862 
L 133.832158 173.074642 
L 132.371093 173.045992 
L 130.910028 173.02885 
L 129.448962 173.023162 
L 127.987897 173.028886 
L 126.526832 173.045991 
L 125.065766 173.07446 
L 123.604701 173.11428 
L 122.143636 173.165458 
L 120.68257 173.228002 
L 119.221505 173.301937 
L 117.76044 173.387295 
L 116.299374 173.48412 
L 114.838309 173.592463 
L 113.377244 173.712387 
L 111.916178 173.843967 
L 110.455113 173.987285 
L 109.323676 174.107472 
L 108.994048 174.143632 
L 107.532982 174.316486 
L 106.071917 174.50187 
L 104.610852 174.699926 
L 103.149786 174.910805 
L 101.688721 175.134669 
L 100.227656 175.371691 
L 99.061303 175.571572 
L 98.76659 175.624154 
L 97.305525 175.899104 
L 95.84446 176.188533 
L 94.383394 176.492692 
L 92.922329 176.811851 
L 91.944334 177.035673 
L 91.461264 177.151783 
L 90.000198 177.519347 
L 88.539133 177.903863 
L 87.078068 178.305713 
L 86.401757 178.499774 
L 85.617003 178.738639 
L 84.155937 179.202583 
L 82.694872 179.686669 
L 81.891596 179.963874 
L 81.233807 180.20746 
L 79.772741 180.770983 
L 78.311676 181.358606 
L 78.14566 181.427975 
L 76.850611 182.01704 
L 75.389545 182.710153 
L 75.020582 182.892075 
L 73.92848 183.488462 
L 72.467415 184.320994 
L 72.407957 184.356176 
L 71.006349 185.295926 
L 70.256677 185.820277 
L 69.545284 186.400876 
L 68.507679 187.284377 
L 68.084219 187.72337 
L 67.136472 188.748478 
L 66.623153 189.471566 
L 66.118965 190.212579 
L 65.439454 191.676679 
L 65.162088 192.828312 
L 65.089991 193.14078 
L 65.070291 194.604881 
z
M 206.839389 55.515321 
L 206.885425 55.601672 
L 207.652652 56.979421 
L 208.34649 57.876978 
L 208.804474 58.443522 
L 209.807555 59.426955 
L 210.320869 59.907623 
L 211.268621 60.651141 
L 212.231599 61.371723 
L 212.729686 61.695561 
L 214.190751 62.603908 
L 214.580571 62.835824 
L 215.651817 63.405126 
L 217.112882 64.144923 
L 217.43213 64.299925 
L 218.573947 64.80525 
L 220.035013 65.421835 
L 220.883755 65.764025 
L 221.496078 65.992555 
L 222.957143 66.514783 
L 224.418209 67.011689 
L 225.083898 67.228126 
L 225.879274 67.470629 
L 227.340339 67.896162 
L 228.801405 68.300663 
L 230.26247 68.684852 
L 230.291793 68.692226 
L 231.723535 69.033538 
L 233.184601 69.363871 
L 234.645666 69.676705 
L 236.106731 69.972532 
L 237.066 70.156327 
L 237.567796 70.248257 
L 239.028862 70.501666 
L 240.489927 70.739986 
L 241.950992 70.963559 
L 243.412058 71.172701 
L 244.873123 71.367709 
L 246.334188 71.548858 
L 246.956358 71.620428 
L 247.795254 71.713417 
L 249.256319 71.862802 
L 250.717384 71.999443 
L 252.17845 72.123532 
L 253.639515 72.235238 
L 255.10058 72.334719 
L 256.561646 72.422119 
L 258.022711 72.497562 
L 259.483776 72.561169 
L 260.944842 72.613036 
L 262.405907 72.653257 
L 263.866972 72.681906 
L 265.328038 72.699048 
L 266.789103 72.704736 
L 268.250168 72.699012 
L 269.711234 72.681907 
L 271.172299 72.653439 
L 272.633364 72.613618 
L 274.09443 72.562441 
L 275.555495 72.499897 
L 277.01656 72.425963 
L 278.477626 72.340605 
L 279.938691 72.243782 
L 281.399756 72.135438 
L 282.860822 72.015514 
L 284.321887 71.883935 
L 285.782952 71.740618 
L 286.914433 71.620428 
L 287.244018 71.584272 
L 288.705083 71.411418 
L 290.166148 71.226034 
L 291.627214 71.027977 
L 293.088279 70.817098 
L 294.549344 70.593234 
L 296.01041 70.356211 
L 297.176773 70.156327 
L 297.471475 70.103747 
L 298.93254 69.828797 
L 300.393606 69.539367 
L 301.854671 69.235206 
L 303.315736 68.916047 
L 304.29373 68.692226 
L 304.776802 68.576116 
L 306.237867 68.208552 
L 307.698932 67.824036 
L 309.159997 67.422185 
L 309.836305 67.228126 
L 310.621063 66.98926 
L 312.082128 66.525317 
L 313.543193 66.041231 
L 314.34647 65.764025 
L 315.004259 65.520439 
L 316.465324 64.956916 
L 317.926389 64.369286 
L 318.092388 64.299925 
L 319.387455 63.710856 
L 320.84852 63.017747 
L 321.217488 62.835824 
L 322.309585 62.239439 
L 323.770651 61.406909 
L 323.830115 61.371723 
L 325.231716 60.431975 
L 325.981388 59.907623 
L 326.692781 59.327024 
L 327.730386 58.443522 
L 328.153847 58.004529 
L 329.101596 56.979421 
L 329.614912 56.256337 
L 330.119103 55.515321 
L 330.798619 54.05122 
L 331.075977 52.899612 
L 331.148079 52.587119 
L 331.167779 51.123019 
L 331.075977 50.686174 
L 330.857403 49.658918 
L 330.210331 48.194818 
L 329.614912 47.311861 
L 329.218314 46.730717 
L 328.153847 45.581537 
L 327.858624 45.266616 
L 326.692781 44.291594 
L 326.100896 43.802516 
L 325.231716 43.21661 
L 323.913002 42.338415 
L 323.770651 42.258913 
L 322.309585 41.458825 
L 321.227204 40.874314 
L 320.84852 40.699527 
L 319.387455 40.039398 
L 317.972214 39.410214 
L 317.926389 39.39254 
L 316.465324 38.843615 
L 315.004259 38.305574 
L 314.004862 37.946113 
L 313.543193 37.800444 
L 312.082128 37.352357 
L 310.621063 36.915485 
L 309.159997 36.49017 
L 309.130999 36.482013 
L 307.698932 36.125529 
L 306.237867 35.772989 
L 304.776802 35.431836 
L 303.315736 35.102325 
L 302.926019 35.017912 
L 301.854671 34.810999 
L 300.393606 34.540135 
L 298.93254 34.280442 
L 297.471475 34.032101 
L 296.01041 33.795298 
L 294.549344 33.570204 
L 294.436631 33.553811 
L 293.088279 33.377929 
L 291.627214 33.198234 
L 290.166148 33.0295 
L 288.705083 32.871841 
L 287.244018 32.725362 
L 285.782952 32.590164 
L 284.321887 32.466339 
L 282.860822 32.353971 
L 281.399756 32.253136 
L 279.938691 32.163902 
L 278.541124 32.089711 
L 278.477626 32.086674 
L 277.01656 32.027471 
L 275.555495 31.978844 
L 274.09443 31.940819 
L 272.633364 31.913416 
L 271.172299 31.896646 
L 269.711234 31.890512 
L 268.250168 31.895011 
L 266.789103 31.910134 
L 265.328038 31.935859 
L 263.866972 31.972162 
L 262.405907 32.019008 
L 260.944842 32.076355 
L 260.656958 32.089711 
L 259.483776 32.15028 
L 258.022711 32.23726 
L 256.561646 32.335717 
L 255.10058 32.445562 
L 253.639515 32.566703 
L 252.17845 32.699034 
L 250.717384 32.842443 
L 249.256319 32.99681 
L 247.795254 33.162005 
L 246.334188 33.33789 
L 244.873123 33.524321 
L 244.654457 33.553811 
L 243.412058 33.741074 
L 241.950992 33.972684 
L 240.489927 34.215426 
L 239.028862 34.469091 
L 237.567796 34.733453 
L 236.106731 35.008288 
L 236.057524 35.017912 
L 234.645666 35.328248 
L 233.184601 35.660428 
L 231.723535 36.003301 
L 230.26247 36.356556 
L 229.759129 36.482013 
L 228.801405 36.752174 
L 227.340339 37.175493 
L 225.879274 37.608998 
L 224.769361 37.946113 
L 224.418209 38.067872 
L 222.957143 38.586507 
L 221.496078 39.114576 
L 220.693823 39.410214 
L 220.035013 39.690153 
L 218.573947 40.321793 
L 217.312723 40.874314 
L 217.112882 40.976611 
L 215.651817 41.736473 
L 214.504976 42.338415 
L 214.190751 42.534315 
L 212.729686 43.455284 
L 212.183456 43.802516 
L 211.268621 44.507867 
L 210.289401 45.266616 
L 209.807555 45.734015 
L 208.784036 46.730717 
L 208.34649 47.289543 
L 207.63971 48.194818 
L 206.885425 49.561553 
L 206.83179 49.658918 
L 206.357693 51.123019 
L 206.200858 52.587119 
L 206.361261 54.05122 
L 206.839389 55.515321 
z
" clip-path="url(#pb380d4dbeb)" style="fill: none; stroke: #486afb; stroke-width: 2"/>
    <path d="M 342.7645 48.105901 
L 341.843905 46.730717 
L 341.303435 46.105183 
L 340.573036 45.266616 
L 339.842369 44.587594 
L 338.990796 43.802516 
L 338.381304 43.333885 
L 337.076284 42.338415 
L 336.920239 42.236956 
L 335.459173 41.299284 
L 334.790652 40.874314 
L 333.998108 40.438318 
L 332.537043 39.643504 
L 332.102072 39.410214 
L 331.075977 38.928087 
L 329.614912 38.250197 
L 328.949329 37.946113 
L 328.153847 37.624508 
L 326.692781 37.043565 
L 325.26047 36.482013 
L 325.231716 36.471952 
L 323.770651 35.972271 
L 322.309585 35.480963 
L 320.907434 35.017912 
L 320.84852 35.000435 
L 319.387455 34.577957 
L 317.926389 34.164164 
L 316.465324 33.759297 
L 315.704526 33.553811 
L 315.004259 33.383019 
L 313.543193 33.036374 
L 312.082128 32.698661 
L 310.621063 32.370074 
L 309.337276 32.089711 
L 309.159997 32.054584 
L 307.698932 31.774978 
L 306.237867 31.504291 
L 304.776802 31.242672 
L 303.315736 30.990271 
L 301.854671 30.747231 
L 301.092393 30.62561 
L 300.393606 30.524081 
L 298.93254 30.321032 
L 297.471475 30.126922 
L 296.01041 29.941862 
L 294.549344 29.765948 
L 293.088279 29.599278 
L 291.627214 29.441941 
L 290.166148 29.294028 
L 288.767131 29.161509 
L 288.705083 29.156141 
L 287.244018 29.038799 
L 285.782952 28.930276 
L 284.321887 28.830625 
L 282.860822 28.739895 
L 281.399756 28.658132 
L 279.938691 28.585375 
L 278.477626 28.52166 
L 277.01656 28.467017 
L 275.555495 28.42147 
L 274.09443 28.385039 
L 272.633364 28.357739 
L 271.172299 28.339578 
L 269.711234 28.33056 
L 268.250168 28.330683 
L 266.789103 28.339941 
L 265.328038 28.358321 
L 263.866972 28.385803 
L 262.405907 28.422366 
L 260.944842 28.467978 
L 259.483776 28.522608 
L 258.022711 28.586213 
L 256.561646 28.65875 
L 255.10058 28.740165 
L 253.639515 28.830405 
L 252.17845 28.929408 
L 250.717384 29.037106 
L 249.256319 29.153429 
L 249.161819 29.161509 
L 247.795254 29.289755 
L 246.334188 29.436137 
L 244.873123 29.591677 
L 243.412058 29.75627 
L 241.950992 29.929802 
L 240.489927 30.112154 
L 239.028862 30.303205 
L 237.567796 30.502823 
L 236.706075 30.62561 
L 236.106731 30.719629 
L 234.645666 30.95811 
L 233.184601 31.205469 
L 231.723535 31.461528 
L 230.26247 31.726114 
L 228.801405 31.99904 
L 228.330906 32.089711 
L 227.340339 32.300591 
L 225.879274 32.620537 
L 224.418209 32.948864 
L 222.957143 33.285335 
L 221.818958 33.553811 
L 221.496078 33.638316 
L 220.035013 34.030049 
L 218.573947 34.429688 
L 217.112882 34.83694 
L 216.476653 35.017912 
L 215.651817 35.279439 
L 214.190751 35.751017 
L 212.729686 36.229574 
L 211.971442 36.482013 
L 211.268621 36.744319 
L 209.807555 37.29761 
L 208.34649 37.856749 
L 208.116479 37.946113 
L 206.885425 38.485659 
L 205.424359 39.131293 
L 204.79983 39.410214 
L 203.963294 39.835121 
L 202.502229 40.582434 
L 201.936114 40.874314 
L 201.041163 41.404139 
L 199.580098 42.271626 
L 199.468513 42.338415 
L 198.119033 43.276373 
L 197.362663 43.802516 
L 196.657967 44.381004 
L 195.57917 45.266616 
L 195.196902 45.644778 
L 194.098348 46.730717 
L 193.735837 47.174928 
L 192.902296 48.194818 
L 192.274771 49.18595 
L 191.974658 49.658918 
L 191.309018 51.123019 
L 190.89352 52.587119 
L 190.813706 53.298839 
L 190.729019 54.05122 
L 190.810723 55.515321 
L 190.813706 55.528992 
L 191.142804 56.979421 
L 191.724129 58.443522 
L 192.274771 59.421095 
L 192.560167 59.907623 
L 193.661194 61.371723 
L 193.735837 61.45406 
L 195.042275 62.835824 
L 195.196902 62.976462 
L 196.657967 64.250428 
L 196.717118 64.299925 
L 198.119033 65.341477 
L 198.713725 65.764025 
L 199.580098 66.322044 
L 201.041163 67.221038 
L 201.053111 67.228126 
L 202.502229 68.021209 
L 203.788307 68.692226 
L 203.963294 68.777515 
L 205.424359 69.464481 
L 206.885425 70.119478 
L 206.970622 70.156327 
L 208.34649 70.71897 
L 209.807555 71.289726 
L 210.690467 71.620428 
L 211.268621 71.82703 
L 212.729686 72.329024 
L 214.190751 72.808416 
L 215.068649 73.084528 
L 215.651817 73.260938 
L 217.112882 73.685469 
L 218.573947 74.090674 
L 220.035013 74.477237 
L 220.316 74.548629 
L 221.496078 74.839068 
L 222.957143 75.182364 
L 224.418209 75.509291 
L 225.879274 75.82036 
L 226.827214 76.01273 
L 227.340339 76.114199 
L 228.801405 76.389949 
L 230.26247 76.651458 
L 231.723535 76.8991 
L 233.184601 77.133229 
L 234.645666 77.354178 
L 235.504505 77.47683 
L 236.106731 77.561087 
L 237.567796 77.753904 
L 239.028862 77.934578 
L 240.489927 78.103356 
L 241.950992 78.260471 
L 243.412058 78.406139 
L 244.873123 78.540564 
L 246.334188 78.663935 
L 247.795254 78.776427 
L 249.256319 78.878202 
L 250.259547 78.940931 
L 250.717384 78.969108 
L 252.17845 79.049025 
L 253.639515 79.118735 
L 255.10058 79.178358 
L 256.561646 79.227998 
L 258.022711 79.26775 
L 259.483776 79.297704 
L 260.944842 79.317932 
L 262.405907 79.328509 
L 263.866972 79.329489 
L 265.328038 79.320926 
L 266.789103 79.302862 
L 268.250168 79.275332 
L 269.711234 79.238365 
L 271.172299 79.191979 
L 272.633364 79.136184 
L 274.09443 79.070989 
L 275.555495 78.996388 
L 276.518935 78.940931 
L 277.01656 78.912013 
L 278.477626 78.81736 
L 279.938691 78.713103 
L 281.399756 78.599202 
L 282.860822 78.475616 
L 284.321887 78.342296 
L 285.782952 78.199182 
L 287.244018 78.046209 
L 288.705083 77.883309 
L 290.166148 77.710402 
L 291.627214 77.527401 
L 292.009187 77.47683 
L 293.088279 77.331658 
L 294.549344 77.124469 
L 296.01041 76.906615 
L 297.471475 76.677978 
L 298.93254 76.438416 
L 300.393606 76.187797 
L 301.370221 76.01273 
L 301.854671 75.923982 
L 303.315736 75.644445 
L 304.776802 75.352981 
L 306.237867 75.049398 
L 307.698932 74.733493 
L 308.521267 74.548629 
L 309.159997 74.401004 
L 310.621063 74.050045 
L 312.082128 73.685543 
L 313.543193 73.30723 
L 314.372616 73.084528 
L 315.004259 72.909044 
L 316.465324 72.488203 
L 317.926389 72.051895 
L 319.320792 71.620428 
L 319.387455 71.598937 
L 320.84852 71.111462 
L 322.309585 70.606357 
L 323.566714 70.156327 
L 323.770651 70.079656 
L 325.231716 69.511594 
L 326.692781 68.923016 
L 327.246874 68.692226 
L 328.153847 68.291707 
L 329.614912 67.623651 
L 330.450763 67.228126 
L 331.075977 66.911101 
L 332.537043 66.144153 
L 333.236603 65.764025 
L 333.998108 65.314782 
L 335.459173 64.421184 
L 335.650924 64.299925 
L 336.920239 63.413901 
L 337.718508 62.835824 
L 338.381304 62.295351 
L 339.472832 61.371723 
L 339.842369 61.010065 
L 340.927706 59.907623 
L 341.303435 59.449109 
L 342.097267 58.443522 
L 342.7645 57.36685 
M 53.414524 197.533082 
L 53.473565 197.621998 
L 54.394158 198.997182 
L 54.934631 199.622719 
L 55.665028 200.461283 
L 56.395696 201.140306 
L 57.247269 201.925384 
L 57.856761 202.394014 
L 59.161781 203.389484 
L 59.317827 203.490943 
L 60.778892 204.428614 
L 61.447424 204.853585 
L 62.239957 205.289574 
L 63.701023 206.084396 
L 64.135987 206.317686 
L 65.162088 206.799816 
L 66.623153 207.477706 
L 67.288725 207.781786 
L 68.084219 208.103396 
L 69.545284 208.684339 
L 70.977586 209.245887 
L 71.006349 209.255951 
L 72.467415 209.75563 
L 73.92848 210.24694 
L 75.330617 210.709987 
L 75.389545 210.727468 
L 76.850611 211.149946 
L 78.311676 211.563739 
L 79.772741 211.968602 
L 80.533539 212.174088 
L 81.233807 212.34488 
L 82.694872 212.691526 
L 84.155937 213.029238 
L 85.617003 213.357826 
L 86.900786 213.638189 
L 87.078068 213.673317 
L 88.539133 213.952922 
L 90.000198 214.223609 
L 91.461264 214.485228 
L 92.922329 214.737629 
L 94.383394 214.98067 
L 95.145666 215.102289 
L 95.84446 215.203819 
L 97.305525 215.406868 
L 98.76659 215.600976 
L 100.227656 215.786036 
L 101.688721 215.96195 
L 103.149786 216.12862 
L 104.610852 216.285956 
L 106.071917 216.43387 
L 107.470952 216.56639 
L 107.532982 216.571757 
L 108.994048 216.689099 
L 110.455113 216.797622 
L 111.916178 216.897273 
L 113.377244 216.988003 
L 114.838309 217.069766 
L 116.299374 217.142522 
L 117.76044 217.206237 
L 119.221505 217.26088 
L 120.68257 217.306427 
L 122.143636 217.342858 
L 123.604701 217.370158 
L 125.065766 217.388319 
L 126.526832 217.397337 
L 127.987897 217.397213 
L 129.448962 217.387956 
L 130.910028 217.369576 
L 132.371093 217.342094 
L 133.832158 217.305531 
L 135.293224 217.259919 
L 136.754289 217.205289 
L 138.215354 217.141684 
L 139.67642 217.069148 
L 141.137485 216.987733 
L 142.59855 216.897492 
L 144.059616 216.79849 
L 145.520681 216.690791 
L 146.981746 216.574469 
L 147.076237 216.56639 
L 148.442812 216.438144 
L 149.903877 216.291762 
L 151.364942 216.136221 
L 152.826008 215.971628 
L 154.287073 215.798096 
L 155.748138 215.615744 
L 157.209204 215.424694 
L 158.670269 215.225077 
L 159.53199 215.102289 
L 160.131334 215.008271 
L 161.592399 214.769789 
L 163.053465 214.522431 
L 164.51453 214.26637 
L 165.975595 214.001785 
L 167.436661 213.728861 
L 167.907168 213.638189 
L 168.897726 213.427309 
L 170.358791 213.107364 
L 171.819857 212.779037 
L 173.280922 212.442565 
L 174.419108 212.174088 
L 174.741987 212.089583 
L 176.203053 211.697854 
L 177.664118 211.298213 
L 179.125183 210.890962 
L 179.761424 210.709987 
L 180.586249 210.448464 
L 182.047314 209.976885 
L 183.508379 209.498326 
L 184.266631 209.245887 
L 184.969445 208.983584 
L 186.43051 208.430297 
L 187.891575 207.871156 
L 188.121599 207.781786 
L 189.352641 207.242245 
L 190.813706 206.596613 
L 191.43825 206.317686 
L 192.274771 205.89278 
L 193.735837 205.145463 
L 194.301943 204.853585 
L 195.196902 204.323758 
L 196.657967 203.456269 
L 196.769545 203.389484 
L 198.119033 202.451521 
L 198.875397 201.925384 
L 199.580098 201.346891 
L 200.658891 200.461283 
L 201.041163 200.083119 
L 202.139712 198.997182 
L 202.502229 198.552966 
L 203.335766 197.533082 
L 203.963294 196.541936 
L 204.2634 196.068981 
L 204.929045 194.604881 
L 205.344541 193.14078 
L 205.424359 192.42903 
L 205.509043 191.676679 
L 205.427345 190.212579 
L 205.424359 190.198892 
L 205.095259 188.748478 
L 204.513934 187.284377 
L 203.963294 186.306819 
L 203.677889 185.820277 
L 202.576871 184.356176 
L 202.502229 184.273839 
L 201.195794 182.892075 
L 201.041163 182.751433 
L 199.580098 181.477465 
L 199.520956 181.427975 
L 198.119033 180.386418 
L 197.524345 179.963874 
L 196.657967 179.405853 
L 195.196902 178.506859 
L 195.184959 178.499774 
L 193.735837 177.706686 
L 192.449764 177.035673 
L 192.274771 176.950382 
L 190.813706 176.263419 
L 189.352641 175.608421 
L 189.267443 175.571572 
L 187.891575 175.008933 
L 186.43051 174.438175 
L 185.547589 174.107472 
L 184.969445 173.900872 
L 183.508379 173.398879 
L 182.047314 172.919481 
L 181.169426 172.643371 
L 180.586249 172.466959 
L 179.125183 172.042428 
L 177.664118 171.637222 
L 176.203053 171.250656 
L 175.922087 171.17927 
L 174.741987 170.888828 
L 173.280922 170.545535 
L 171.819857 170.218607 
L 170.358791 169.907539 
L 169.410851 169.71517 
L 168.897726 169.613701 
L 167.436661 169.337949 
L 165.975595 169.076442 
L 164.51453 168.828799 
L 163.053465 168.594671 
L 161.592399 168.373721 
L 160.73356 168.251069 
L 160.131334 168.166813 
L 158.670269 167.973995 
L 157.209204 167.793321 
L 155.748138 167.624545 
L 154.287073 167.46743 
L 152.826008 167.321762 
L 151.364942 167.187338 
L 149.903877 167.063967 
L 148.442812 166.951475 
L 146.981746 166.849701 
L 145.978467 166.786969 
L 145.520681 166.758795 
L 144.059616 166.678878 
L 142.59855 166.609167 
L 141.137485 166.549544 
L 139.67642 166.499904 
L 138.215354 166.460151 
L 136.754289 166.430198 
L 135.293224 166.409969 
L 133.832158 166.399393 
L 132.371093 166.398413 
L 130.910028 166.406976 
L 129.448962 166.42504 
L 127.987897 166.452569 
L 126.526832 166.489537 
L 125.065766 166.535923 
L 123.604701 166.591716 
L 122.143636 166.656913 
L 120.68257 166.731514 
L 119.719181 166.786969 
L 119.221505 166.81589 
L 117.76044 166.910542 
L 116.299374 167.014799 
L 114.838309 167.128699 
L 113.377244 167.252284 
L 111.916178 167.385605 
L 110.455113 167.528719 
L 108.994048 167.681691 
L 107.532982 167.844591 
L 106.071917 168.017498 
L 104.610852 168.200498 
L 104.228881 168.251069 
L 103.149786 168.396243 
L 101.688721 168.603431 
L 100.227656 168.821284 
L 98.76659 169.049923 
L 97.305525 169.289482 
L 95.84446 169.540101 
L 94.867836 169.71517 
L 94.383394 169.803916 
L 92.922329 170.083453 
L 91.461264 170.374916 
L 90.000198 170.678499 
L 88.539133 170.994403 
L 87.716782 171.17927 
L 87.078068 171.326892 
L 85.617003 171.677851 
L 84.155937 172.042355 
L 82.694872 172.420667 
L 81.865443 172.643371 
L 81.233807 172.818855 
L 79.772741 173.239698 
L 78.311676 173.676005 
L 76.917284 174.107472 
L 76.850611 174.128966 
L 75.389545 174.61644 
L 73.92848 175.121543 
L 72.671355 175.571572 
L 72.467415 175.648245 
L 71.006349 176.216306 
L 69.545284 176.804884 
L 68.991192 177.035673 
L 68.084219 177.436191 
L 66.623153 178.10425 
L 65.787304 178.499774 
L 65.162088 178.816799 
L 63.701023 179.583747 
L 63.001464 179.963874 
L 62.239957 180.413119 
L 60.778892 181.306709 
L 60.58713 181.427975 
L 59.317827 182.313989 
L 58.519553 182.892075 
L 57.856761 183.432549 
L 56.765233 184.356176 
L 56.395696 184.717834 
L 55.310359 185.820277 
L 54.934631 186.278788 
L 54.140796 187.284377 
L 53.473565 188.361043 
L 53.242286 188.748478 
L 52.614863 190.212579 
L 52.246531 191.676679 
L 52.140449 193.14078 
L 52.298916 194.604881 
L 52.723391 196.068981 
L 53.414524 197.533082 
z
" clip-path="url(#pb380d4dbeb)" style="fill: none; stroke: #486afb; stroke-width: 2"/>
    <path d="M 52.0125 205.729601 
L 53.473565 206.578989 
L 56.395696 208.080348 
L 60.778892 209.992821 
L 63.701023 211.107078 
L 68.084219 212.573627 
L 73.92848 214.228751 
L 79.772741 215.614432 
L 85.617003 216.779711 
L 93.396262 218.030491 
L 100.227656 218.86283 
L 107.532982 219.55332 
L 114.838309 220.001752 
L 122.143636 220.25405 
L 129.448962 220.307893 
L 136.754289 220.163419 
L 144.059616 219.823289 
L 151.364942 219.274934 
L 158.670269 218.49929 
L 164.51453 217.71743 
L 171.819857 216.511316 
L 179.125183 214.999861 
L 186.43051 213.12583 
L 190.813706 211.804907 
L 195.196902 210.289057 
L 199.580098 208.533368 
L 202.502229 207.199548 
L 205.424359 205.692264 
L 208.34649 203.959509 
L 209.807555 202.985111 
L 211.276514 201.925384 
L 213.030855 200.461283 
L 214.534576 198.997182 
L 215.80081 197.533082 
L 217.112882 195.574154 
L 217.654909 194.604881 
L 218.26141 193.14078 
L 218.660914 191.676679 
L 218.85402 190.212579 
L 218.846171 188.748478 
L 218.573947 187.05002 
L 218.224781 185.820277 
L 217.112882 183.463021 
L 216.783798 182.892075 
L 215.651817 181.314394 
L 214.190751 179.66658 
L 212.729686 178.27137 
L 209.807555 175.966254 
L 208.34649 174.976811 
L 205.424359 173.223906 
L 202.502229 171.703768 
L 199.580098 170.362704 
L 195.196902 168.612513 
L 190.813706 167.115144 
L 186.43051 165.823604 
L 180.586249 164.367747 
L 174.741987 163.171263 
L 168.897726 162.199453 
L 163.053465 161.427312 
L 155.748138 160.714997 
L 148.442812 160.25865 
L 141.137485 160.039648 
L 133.832158 160.044167 
L 126.526832 160.26359 
L 119.221505 160.693731 
L 111.916178 161.335092 
L 104.610852 162.192144 
L 97.305525 163.277623 
L 90.000198 164.609212 
L 84.155937 165.871543 
L 78.311676 167.333818 
L 72.467415 169.0301 
L 68.084219 170.485883 
L 63.701023 172.134169 
L 59.317827 174.021053 
L 56.173384 175.571572 
L 53.473565 177.074609 
L 52.0125 177.982524 
M 342.7645 39.148915 
L 339.842369 37.647557 
L 335.459173 35.735084 
L 332.537043 34.620821 
L 328.153847 33.154274 
L 322.309585 31.49915 
L 316.465324 30.113464 
L 310.621063 28.948186 
L 302.841823 27.697409 
L 296.01041 26.865066 
L 288.705083 26.174575 
L 281.399756 25.726144 
L 274.09443 25.473845 
L 266.789103 25.420002 
L 259.483776 25.564476 
L 252.17845 25.904607 
L 244.873123 26.452962 
L 237.567796 27.228607 
L 231.723535 28.010466 
L 224.418209 29.216582 
L 217.112882 30.728038 
L 209.807555 32.602071 
L 205.424359 33.922995 
L 201.041163 35.438847 
L 196.657967 37.194535 
L 193.735837 38.528357 
L 190.813706 40.035636 
L 187.891575 41.768387 
L 186.43051 42.74279 
L 184.961556 43.802516 
L 183.207207 45.266616 
L 181.703485 46.730717 
L 180.437256 48.194818 
L 179.125183 50.153745 
L 178.583156 51.123019 
L 177.976651 52.587119 
L 177.577148 54.05122 
L 177.384046 55.515321 
L 177.391894 56.979421 
L 177.664118 58.67787 
L 178.013285 59.907623 
L 179.125183 62.264874 
L 179.454273 62.835824 
L 180.586249 64.413497 
L 182.047314 66.061317 
L 183.508379 67.456529 
L 186.43051 69.761639 
L 187.891575 70.751094 
L 190.813706 72.504001 
L 193.735837 74.024128 
L 196.657967 75.365194 
L 201.041163 77.115387 
L 205.424359 78.612755 
L 209.807555 79.904295 
L 215.651817 81.360148 
L 221.496078 82.55663 
L 227.340339 83.528442 
L 233.184601 84.300582 
L 240.489927 85.012899 
L 247.795254 85.46925 
L 255.10058 85.68825 
L 262.405907 85.683731 
L 269.711234 85.464308 
L 277.01656 85.034168 
L 284.321887 84.392801 
L 291.627214 83.535752 
L 298.93254 82.450271 
L 306.237867 81.118686 
L 312.082128 79.85636 
L 317.926389 78.394079 
L 323.770651 76.6978 
L 328.153847 75.242015 
L 332.537043 73.593731 
L 336.920239 71.706848 
L 340.064681 70.156327 
L 342.7645 68.65329 
L 342.7645 68.65329 
" clip-path="url(#pb380d4dbeb)" style="fill: none; stroke: #486afb; stroke-width: 2"/>
    <path d="M 52.0125 210.614541 
L 54.934631 211.789201 
L 57.856761 212.860658 
L 62.239957 214.302812 
L 66.623153 215.573986 
L 72.467415 217.042114 
L 78.311676 218.297384 
L 85.617003 219.604952 
L 94.383394 220.836685 
L 100.227656 221.470186 
L 108.994048 222.193965 
L 116.299374 222.583061 
L 125.065766 222.800725 
L 133.832158 222.766789 
L 142.59855 222.483087 
L 149.903877 222.030907 
L 158.670269 221.249847 
L 165.975595 220.37012 
L 173.280922 219.281687 
L 180.586249 217.945881 
L 187.891575 216.320386 
L 193.735837 214.786215 
L 199.580098 212.996743 
L 203.963294 211.458419 
L 208.34649 209.711279 
L 211.268621 208.39871 
L 214.190751 206.945236 
L 217.112882 205.315874 
L 218.573947 204.417774 
L 221.496078 202.401429 
L 222.957143 201.250133 
L 224.418209 199.976875 
L 225.879274 198.528382 
L 227.340339 196.82135 
L 227.926677 196.068981 
L 228.875691 194.604881 
L 229.636431 193.14078 
L 230.26247 191.530963 
L 230.629238 190.212579 
L 230.865486 188.748478 
L 230.932674 187.284377 
L 230.831901 185.820277 
L 230.564252 184.356176 
L 230.128893 182.892075 
L 229.522049 181.427975 
L 228.748088 179.963874 
L 227.340339 177.89533 
L 225.879274 176.143756 
L 224.418209 174.647564 
L 222.957143 173.327085 
L 221.496078 172.135474 
L 218.573947 170.041825 
L 215.651817 168.231641 
L 212.729686 166.638078 
L 208.34649 164.554093 
L 203.963294 162.760212 
L 199.580098 161.202207 
L 195.196902 159.842547 
L 189.352641 158.294986 
L 183.508379 157.00974 
L 177.664118 155.956001 
L 171.511105 155.074164 
L 165.975595 154.45203 
L 158.670269 153.872738 
L 151.364942 153.539455 
L 144.059616 153.431301 
L 136.754289 153.536597 
L 129.448962 153.841535 
L 122.143636 154.339957 
L 114.444971 155.074164 
L 107.532982 155.908802 
L 100.227656 156.982902 
L 92.922329 158.260954 
L 85.617003 159.759259 
L 78.311676 161.503535 
L 72.467415 163.100994 
L 66.623153 164.90844 
L 60.778892 166.968659 
L 56.395696 168.722265 
L 52.0125 170.697563 
M 342.7645 34.518754 
L 338.381304 32.867245 
L 333.998108 31.425087 
L 329.614912 30.153912 
L 323.770651 28.685784 
L 317.926389 27.430514 
L 310.621063 26.122944 
L 301.854671 24.891209 
L 296.01041 24.257706 
L 287.244018 23.533926 
L 279.938691 23.14483 
L 271.172299 22.927169 
L 262.405907 22.961105 
L 253.639515 23.244804 
L 246.334188 23.696985 
L 237.567796 24.478047 
L 230.26247 25.357774 
L 222.957143 26.446206 
L 215.651817 27.782014 
L 208.34649 29.407512 
L 202.502229 30.941686 
L 196.657967 32.731158 
L 192.274771 34.26948 
L 187.891575 36.016624 
L 184.969445 37.329198 
L 182.047314 38.782669 
L 179.125183 40.412023 
L 177.664118 41.310121 
L 174.741987 43.326459 
L 173.280922 44.477758 
L 171.819857 45.751024 
L 170.358791 47.199514 
L 168.897726 48.906549 
L 168.31139 49.658918 
L 167.362379 51.123019 
L 166.601636 52.587119 
L 165.975595 54.196938 
L 165.608833 55.515321 
L 165.372587 56.979421 
L 165.305391 58.443522 
L 165.406159 59.907623 
L 165.673803 61.371723 
L 166.109173 62.835824 
L 166.716019 64.299925 
L 167.48999 65.764025 
L 168.897726 67.832569 
L 170.358791 69.584148 
L 171.819857 71.08034 
L 173.280922 72.400828 
L 174.741987 73.592436 
L 177.664118 75.686073 
L 180.586249 77.496258 
L 183.508379 79.089822 
L 187.891575 81.173806 
L 192.274771 82.967686 
L 196.657967 84.525691 
L 201.041163 85.885348 
L 206.885425 87.432913 
L 212.729686 88.718165 
L 218.573947 89.771902 
L 224.72693 90.653736 
L 230.26247 91.275874 
L 237.567796 91.855162 
L 244.873123 92.188441 
L 252.17845 92.296599 
L 259.483776 92.191306 
L 266.789103 91.886363 
L 274.09443 91.387942 
L 281.79314 90.653736 
L 288.705083 89.8191 
L 296.01041 88.745004 
L 303.315736 87.466946 
L 310.621063 85.968639 
L 317.926389 84.224358 
L 323.770651 82.6269 
L 329.614912 80.81946 
L 335.459173 78.759243 
L 339.842369 77.005634 
L 342.7645 75.718492 
L 342.7645 75.718492 
" clip-path="url(#pb380d4dbeb)" style="fill: none; stroke: #486afb; stroke-width: 2"/>
    <path d="M 52.0125 214.178133 
L 56.395696 215.628321 
L 62.239957 217.314723 
L 68.084219 218.768218 
L 73.92848 220.024261 
L 81.233807 221.353444 
L 88.539133 222.454247 
L 97.305525 223.476077 
L 104.610852 224.12776 
L 113.377244 224.663745 
L 122.143636 224.963282 
L 130.910028 225.023264 
L 139.67642 224.844035 
L 148.442812 224.429494 
L 157.209204 223.779419 
L 165.975595 222.854743 
L 173.280922 221.877878 
L 180.586249 220.697719 
L 187.891575 219.28139 
L 195.196902 217.593951 
L 201.041163 216.025456 
L 206.885425 214.225422 
L 211.268621 212.69544 
L 215.651817 210.983147 
L 218.573947 209.709498 
L 221.496078 208.320408 
L 224.418209 206.791053 
L 227.340339 205.091179 
L 228.801405 204.146925 
L 231.723535 202.082867 
L 233.184601 200.900392 
L 234.645666 199.608149 
L 236.106731 198.16631 
L 237.567796 196.517347 
L 237.946094 196.068981 
L 239.028862 194.569144 
L 240.489927 191.973364 
L 240.640752 191.676679 
L 241.22387 190.212579 
L 241.659497 188.748478 
L 241.950992 187.26523 
L 242.092456 185.820277 
L 242.094626 184.356176 
L 241.950992 182.858207 
L 241.678321 181.427975 
L 241.261167 179.963874 
L 240.489927 178.029442 
L 240.012698 177.035673 
L 239.028862 175.33762 
L 237.567796 173.262607 
L 235.817718 171.17927 
L 233.184601 168.573807 
L 231.088984 166.786969 
L 228.801405 165.04535 
L 225.879274 163.062924 
L 222.314726 160.930566 
L 218.573947 158.95197 
L 214.190751 156.916449 
L 209.645482 155.074164 
L 205.424359 153.567575 
L 200.878845 152.145962 
L 196.657967 150.987366 
L 190.813706 149.628492 
L 184.969445 148.523672 
L 179.125183 147.655912 
L 173.280922 146.989315 
L 167.436661 146.522718 
L 160.131334 146.182696 
L 152.826008 146.086304 
L 145.520681 146.214919 
L 136.754289 146.630693 
L 127.987897 147.314211 
L 119.221505 148.246617 
L 110.455113 149.419762 
L 101.688721 150.830594 
L 92.922329 152.48801 
L 85.617003 154.07198 
L 78.311676 155.858851 
L 70.57714 158.002365 
L 63.701023 160.161521 
L 57.399767 162.394667 
L 52.0125 164.545222 
M 342.7645 31.044824 
L 338.381304 29.652687 
L 333.998108 28.413172 
L 328.153847 26.959679 
L 322.309585 25.703635 
L 315.004259 24.374448 
L 307.698932 23.273643 
L 298.93254 22.251826 
L 291.627214 21.600145 
L 282.860822 21.064162 
L 274.09443 20.764623 
L 265.328038 20.704642 
L 256.561646 20.883871 
L 247.795254 21.298412 
L 239.028862 21.948488 
L 230.26247 22.873152 
L 222.957143 23.850012 
L 215.651817 25.030174 
L 208.34649 26.446508 
L 201.041163 28.133946 
L 195.196902 29.702443 
L 189.352641 31.502477 
L 184.969445 33.032465 
L 180.586249 34.744755 
L 177.664118 36.018405 
L 174.741987 37.40749 
L 171.819857 38.936849 
L 168.897726 40.636719 
L 167.436661 41.580975 
L 164.51453 43.645032 
L 163.053465 44.827507 
L 161.592399 46.11975 
L 160.131334 47.561589 
L 158.670269 49.210553 
L 158.291972 49.658918 
L 157.209204 51.158756 
L 155.748138 53.754535 
L 155.597313 54.05122 
L 155.014203 55.515321 
L 154.578573 56.979421 
L 154.287073 58.462668 
L 154.145604 59.907623 
L 154.143434 61.371723 
L 154.287073 62.869692 
L 154.559744 64.299925 
L 154.976904 65.764025 
L 155.748138 67.698457 
L 156.225368 68.692226 
L 157.209204 70.390279 
L 158.670269 72.465296 
L 160.420347 74.548629 
L 163.053465 77.154092 
L 165.149066 78.940931 
L 167.436661 80.682547 
L 170.358791 82.664966 
L 173.923339 84.797333 
L 177.664118 86.775929 
L 182.047314 88.811454 
L 186.592582 90.653736 
L 190.813706 92.160325 
L 195.35922 93.581937 
L 199.580098 94.740533 
L 205.424359 96.099407 
L 211.268621 97.204227 
L 217.112882 98.071988 
L 222.957143 98.73858 
L 228.801405 99.205182 
L 236.106731 99.545207 
L 243.412058 99.641594 
L 250.717384 99.512983 
L 259.483776 99.097206 
L 268.250168 98.413689 
L 277.01656 97.481282 
L 285.782952 96.308138 
L 294.549344 94.897305 
L 303.315736 93.239888 
L 310.621063 91.655918 
L 317.926389 89.869052 
L 325.660925 87.725535 
L 332.537043 85.56638 
L 338.838284 83.333233 
L 342.7645 81.793043 
L 342.7645 81.793043 
" clip-path="url(#pb380d4dbeb)" style="fill: none; stroke: #486afb; stroke-width: 2"/>
    <path d="M 52.0125 217.098667 
L 57.856761 218.770746 
L 63.701023 220.227165 
L 69.545284 221.49853 
L 76.850611 222.859782 
L 84.155937 224.002621 
L 92.922329 225.09723 
L 100.227656 225.807157 
L 108.994048 226.440143 
L 117.76044 226.847791 
L 126.526832 227.01826 
L 135.293224 226.975229 
L 144.059616 226.713662 
L 152.826008 226.218789 
L 161.592399 225.510082 
L 168.897726 224.721333 
L 177.664118 223.55102 
L 186.43051 222.095785 
L 193.735837 220.643284 
L 201.041163 218.938754 
L 206.885425 217.372715 
L 212.729686 215.596877 
L 217.112882 214.102449 
L 221.496078 212.448326 
L 224.418209 211.232138 
L 227.340339 209.921408 
L 230.26247 208.497762 
L 233.184601 206.939408 
L 236.106731 205.22053 
L 238.908674 203.389484 
L 242.719352 200.461283 
L 245.828475 197.533082 
L 248.299361 194.604881 
L 249.313403 193.14078 
L 250.717384 190.608372 
L 250.917344 190.212579 
L 251.517193 188.748478 
L 252.17845 186.484209 
L 252.33619 185.820277 
L 252.558188 184.356176 
L 252.660349 182.892075 
L 252.644671 181.427975 
L 252.51324 179.963874 
L 252.17845 178.12425 
L 251.437526 175.571572 
L 250.167509 172.643371 
L 248.462498 169.71517 
L 246.328061 166.786969 
L 243.755972 163.858767 
L 241.950992 162.050096 
L 239.028862 159.430158 
L 235.363966 156.538264 
L 233.184601 154.972905 
L 228.801405 152.119346 
L 224.418209 149.578526 
L 220.035013 147.314291 
L 215.651817 145.297048 
L 209.807555 142.965998 
L 205.424359 141.473939 
L 201.041163 140.200364 
L 196.657967 139.13278 
L 190.813706 138.007743 
L 184.969445 137.220743 
L 179.125183 136.71737 
L 173.280922 136.4755 
L 167.436661 136.448807 
L 160.131334 136.667534 
L 152.826008 137.123373 
L 144.059616 137.91862 
L 135.139325 138.969057 
L 126.526832 140.166983 
L 115.896405 141.897258 
L 107.532982 143.435661 
L 98.76659 145.225189 
L 90.000198 147.210599 
L 81.233807 149.412724 
L 72.467415 151.861108 
L 65.162088 154.125194 
L 57.856761 156.634649 
L 52.0125 158.859086 
M 342.7645 28.18791 
L 338.381304 26.957151 
L 332.537043 25.500729 
L 326.692781 24.229362 
L 319.387455 22.868112 
L 312.082128 21.725283 
L 303.315736 20.630676 
L 296.01041 19.920748 
L 287.244018 19.287762 
L 278.477626 18.880115 
L 269.711234 18.709644 
L 260.944842 18.752676 
L 252.17845 19.014244 
L 243.412058 19.509116 
L 234.645666 20.217823 
L 227.340339 21.006572 
L 218.573947 22.176883 
L 209.807555 23.632105 
L 202.502229 25.084611 
L 195.196902 26.789142 
L 189.352641 28.355184 
L 183.508379 30.131023 
L 179.125183 31.62545 
L 174.741987 33.27957 
L 171.819857 34.495762 
L 168.897726 35.806494 
L 165.975595 37.230138 
L 163.053465 38.788495 
L 160.131334 40.507366 
L 157.329392 42.338415 
L 153.518713 45.266616 
L 150.40959 48.194818 
L 147.93871 51.123019 
L 146.924662 52.587119 
L 145.520681 55.119534 
L 145.320725 55.515321 
L 144.720877 56.979421 
L 144.059616 59.243669 
L 143.901867 59.907623 
L 143.679872 61.371723 
L 143.577718 62.835824 
L 143.593394 64.299925 
L 143.724831 65.764025 
L 144.059616 67.60365 
L 144.800539 70.156327 
L 146.070551 73.084528 
L 147.775574 76.01273 
L 149.910005 78.940931 
L 152.482103 81.869132 
L 154.287073 83.677792 
L 157.209204 86.297742 
L 160.874071 89.189635 
L 163.053465 90.754995 
L 167.436661 93.608553 
L 171.819857 96.149374 
L 176.203053 98.413601 
L 180.586249 100.430844 
L 186.43051 102.761894 
L 190.813706 104.25396 
L 195.196902 105.527535 
L 199.580098 106.595119 
L 205.424359 107.720166 
L 211.268621 108.507169 
L 217.112882 109.010539 
L 222.957143 109.252411 
L 228.801405 109.2791 
L 236.106731 109.060376 
L 243.412058 108.604534 
L 252.17845 107.809289 
L 261.098741 106.758843 
L 269.711234 105.560917 
L 280.34166 103.830642 
L 288.705083 102.292239 
L 297.471475 100.502712 
L 306.237867 98.5173 
L 315.004259 96.315178 
L 323.770651 93.866791 
L 331.075977 91.602706 
L 338.381304 89.093255 
L 342.7645 87.445616 
L 342.7645 87.445616 
" clip-path="url(#pb380d4dbeb)" style="fill: none; stroke: #486afb; stroke-width: 2"/>
    <path d="M 52.0125 219.61457 
L 59.317827 221.474866 
L 66.623153 223.065395 
L 73.92848 224.419083 
L 81.233807 225.566428 
L 91.10378 226.815094 
L 98.76659 227.551326 
L 107.532982 228.200262 
L 114.838309 228.560072 
L 123.604701 228.800229 
L 132.371093 228.836312 
L 141.137485 228.66896 
L 150.306076 228.279195 
L 158.670269 227.702244 
L 168.280953 226.815094 
L 176.203053 225.853603 
L 183.508379 224.795597 
L 190.813706 223.553702 
L 199.580098 221.782462 
L 206.885425 220.052606 
L 212.729686 218.476567 
L 218.573947 216.708738 
L 223.325064 215.102289 
L 230.26247 212.416999 
L 234.172185 210.709987 
L 240.034924 207.781786 
L 245.012273 204.853585 
L 249.256319 201.898126 
L 252.751292 198.997182 
L 255.671917 196.068981 
L 258.037547 193.14078 
L 259.885976 190.212579 
L 261.258487 187.284377 
L 262.183701 184.356176 
L 262.687439 181.427975 
L 262.793763 178.499774 
L 262.525955 175.571572 
L 261.900959 172.643371 
L 260.944842 169.714843 
L 259.483776 166.406512 
L 258.022711 163.708315 
L 256.280219 160.930566 
L 253.639515 157.234177 
L 250.717384 153.583667 
L 245.642458 147.75366 
L 239.343329 140.433157 
L 237.233542 137.504956 
L 236.106731 135.468374 
L 235.670618 134.576755 
L 235.194546 133.112654 
L 234.992784 131.648553 
L 235.124254 130.184453 
L 235.661308 128.720352 
L 236.67484 127.256252 
L 238.23541 125.792151 
L 240.489927 124.281897 
L 243.412058 122.771548 
L 247.795254 120.968632 
L 252.17845 119.436709 
L 258.022711 117.629711 
L 265.401259 115.543447 
L 310.621063 103.52644 
L 320.84852 100.483428 
L 329.614912 97.664872 
L 337.136821 95.046038 
L 342.7645 92.938499 
M 342.7645 25.723429 
L 336.920239 24.253029 
L 329.614912 22.662501 
L 322.309585 21.308824 
L 315.004259 20.161477 
L 305.134226 18.912805 
L 297.471475 18.176577 
L 288.705083 17.527641 
L 281.399756 17.167831 
L 272.633364 16.927674 
L 263.866972 16.89159 
L 255.10058 17.058943 
L 245.932039 17.448704 
L 237.567796 18.02566 
L 227.957171 18.912805 
L 220.035013 19.874303 
L 212.729686 20.932308 
L 205.424359 22.1742 
L 196.657967 23.945428 
L 189.352641 25.675289 
L 183.508379 27.251329 
L 177.664118 29.01916 
L 172.912995 30.62561 
L 165.975595 33.310903 
L 162.06588 35.017912 
L 156.203149 37.946113 
L 151.225788 40.874314 
L 146.981746 43.829773 
L 143.486773 46.730717 
L 140.566148 49.658918 
L 138.200514 52.587119 
L 136.352095 55.515321 
L 134.979578 58.443522 
L 134.054355 61.371723 
L 133.550628 64.299925 
L 133.444302 67.228126 
L 133.71211 70.156327 
L 134.337089 73.084528 
L 135.293224 76.013056 
L 136.754289 79.321388 
L 138.215354 82.019585 
L 139.957846 84.797333 
L 142.59855 88.493743 
L 145.520681 92.144253 
L 150.595612 97.974239 
L 156.894736 105.294742 
L 159.0045 108.222943 
L 160.131334 110.259547 
L 160.567448 111.151145 
L 161.04352 112.615245 
L 161.245281 114.079346 
L 161.113812 115.543447 
L 160.576838 117.007547 
L 159.563302 118.471648 
L 158.002668 119.935748 
L 155.748138 121.446002 
L 152.826008 122.956351 
L 148.442812 124.759262 
L 144.059616 126.291173 
L 138.215354 128.09817 
L 130.836807 130.184453 
L 85.617003 142.201466 
L 75.389545 145.244472 
L 66.623153 148.063032 
L 59.101232 150.681862 
L 52.0125 153.361409 
L 52.0125 153.361409 
" clip-path="url(#pb380d4dbeb)" style="fill: none; stroke: #486afb; stroke-width: 2"/>
    <path d="M 52.0125 221.822834 
L 57.856761 223.226542 
L 65.162088 224.758004 
L 72.467415 226.069086 
L 79.772741 227.187226 
L 88.539133 228.299025 
L 98.76659 229.280303 
L 107.532982 229.898779 
L 116.299374 230.298351 
L 125.065766 230.503953 
L 133.832158 230.514268 
L 142.59855 230.330209 
L 152.826008 229.874182 
L 161.592399 229.252614 
L 171.833707 228.279195 
L 182.047314 226.990264 
L 189.352641 225.86602 
L 196.657967 224.565268 
L 203.963294 223.066871 
L 211.268621 221.349552 
L 217.112882 219.795883 
L 222.957143 218.066789 
L 227.526673 216.56639 
L 234.645666 213.923556 
L 239.028862 212.095875 
L 245.057332 209.245887 
L 250.384749 206.317686 
L 255.10058 203.288975 
L 258.874519 200.461283 
L 262.405907 197.322683 
L 264.984135 194.604881 
L 267.280368 191.676679 
L 269.125754 188.748478 
L 270.553925 185.820277 
L 271.595462 182.892075 
L 272.27786 179.963874 
L 272.633364 176.934293 
L 272.67338 174.107472 
L 272.438121 171.17927 
L 271.952318 168.251069 
L 271.172299 165.044787 
L 269.861562 160.930566 
L 268.200712 156.538264 
L 265.328038 149.196076 
L 264.370203 146.28956 
L 263.661577 143.361358 
L 263.438956 141.897258 
L 263.329279 140.433157 
L 263.351334 138.969057 
L 263.525894 137.504956 
L 263.875546 136.040855 
L 264.415381 134.576755 
L 265.328038 132.889531 
L 266.789103 130.930192 
L 268.250168 129.403104 
L 269.711234 128.123819 
L 271.172299 126.998777 
L 274.09443 125.083522 
L 277.01656 123.430407 
L 279.938691 121.953636 
L 284.348929 119.935748 
L 291.627214 116.981734 
L 301.854671 113.225367 
L 316.465324 108.114355 
L 329.614912 103.444153 
L 339.842369 99.589558 
L 342.7645 98.434486 
M 342.7645 23.532104 
L 336.920239 22.172478 
L 331.075977 20.969901 
L 323.770651 19.658819 
L 316.465324 18.540678 
L 307.698932 17.428878 
L 297.471475 16.447598 
L 288.705083 15.829123 
L 279.938691 15.429551 
L 271.172299 15.223949 
L 262.405907 15.213634 
L 253.639515 15.397693 
L 243.412058 15.853718 
L 234.645666 16.475289 
L 224.404373 17.448704 
L 214.190751 18.737641 
L 206.885425 19.861884 
L 199.580098 21.162637 
L 192.274771 22.661022 
L 184.969445 24.378341 
L 179.125183 25.932011 
L 173.280922 27.661105 
L 168.711386 29.161509 
L 161.592399 31.804344 
L 157.209204 33.632028 
L 151.18074 36.482013 
L 145.853324 39.410214 
L 141.137485 42.438924 
L 137.363544 45.266616 
L 133.832158 48.405216 
L 131.25393 51.123019 
L 128.957697 54.05122 
L 127.112314 56.979421 
L 125.68414 59.907623 
L 124.642611 62.835824 
L 123.960205 65.764025 
L 123.604701 68.793607 
L 123.564676 71.620428 
L 123.799945 74.548629 
L 124.285748 77.47683 
L 125.065766 80.683105 
L 126.376514 84.797333 
L 128.037353 89.189635 
L 130.910028 96.531823 
L 131.867879 99.43834 
L 132.576489 102.366541 
L 132.79911 103.830642 
L 132.908786 105.294742 
L 132.886732 106.758843 
L 132.712145 108.222943 
L 132.362497 109.687044 
L 131.822692 111.151145 
L 130.910028 112.838368 
L 129.448962 114.797707 
L 127.987897 116.324807 
L 126.526832 117.604109 
L 125.065766 118.729136 
L 122.143636 120.644378 
L 119.221505 122.297493 
L 116.299374 123.774263 
L 111.889113 125.792151 
L 104.610852 128.746157 
L 94.383394 132.502533 
L 79.772741 137.613556 
L 66.623153 142.283747 
L 56.395696 146.138335 
L 52.0125 147.883099 
L 52.0125 147.883099 
" clip-path="url(#pb380d4dbeb)" style="fill: none; stroke: #486afb; stroke-width: 2"/>
    <path d="M 52.0125 223.833467 
L 57.856761 225.143572 
L 63.701023 226.308671 
L 71.006349 227.587491 
L 78.311676 228.685044 
L 87.078068 229.784951 
L 97.305525 230.768478 
L 106.071917 231.397188 
L 116.299374 231.870158 
L 126.526832 232.090432 
L 136.754289 232.05634 
L 146.981746 231.769963 
L 157.209204 231.237176 
L 165.975595 230.552441 
L 174.741987 229.686374 
L 184.969445 228.394012 
L 192.274771 227.275344 
L 199.580098 225.990664 
L 206.885425 224.521113 
L 214.190751 222.847808 
L 220.035013 221.343407 
L 225.879274 219.678359 
L 231.11599 218.030491 
L 237.567796 215.746147 
L 242.933502 213.638189 
L 249.464879 210.709987 
L 255.129428 207.781786 
L 260.047366 204.853585 
L 264.315746 201.925384 
L 268.250168 198.777266 
L 271.172299 196.068981 
L 271.172299 196.068981 
L 273.863732 193.14078 
L 276.12236 190.212579 
L 277.984937 187.284377 
L 279.483031 184.356176 
L 280.646775 181.427975 
L 281.507596 178.499774 
L 282.089952 175.571572 
L 282.428422 172.643371 
L 282.552623 169.71517 
L 282.495849 166.786969 
L 282.154811 162.394667 
L 280.887948 150.681862 
L 280.822981 147.75366 
L 281.016405 144.825459 
L 281.563667 141.897258 
L 281.99962 140.433157 
L 282.860822 138.350422 
L 283.270177 137.504956 
L 284.321887 135.763309 
L 285.782952 133.80464 
L 287.244018 132.170993 
L 288.705083 130.75505 
L 290.166148 129.491079 
L 291.627214 128.336725 
L 294.549344 126.28121 
L 297.671192 124.32805 
L 303.001215 121.399849 
L 309.159997 118.393946 
L 317.926389 114.492397 
L 326.692781 110.796317 
L 342.7645 104.06796 
M 342.7645 21.557528 
L 335.459173 19.985821 
L 326.692781 18.380266 
L 317.926389 17.04286 
L 309.159997 15.942951 
L 298.93254 14.959423 
L 290.166148 14.330713 
L 279.938691 13.857742 
L 269.711234 13.637468 
L 259.483776 13.67156 
L 249.256319 13.957938 
L 239.028862 14.490725 
L 230.26247 15.175459 
L 221.496078 16.041527 
L 211.268621 17.333892 
L 203.963294 18.45256 
L 196.657967 19.73724 
L 189.352641 21.206793 
L 182.047314 22.880086 
L 176.203053 24.384486 
L 170.358791 26.049539 
L 165.122068 27.697409 
L 158.670269 29.981752 
L 153.304563 32.089711 
L 146.773187 35.017912 
L 141.108638 37.946113 
L 136.190693 40.874314 
L 131.92232 43.802516 
L 127.987897 46.950634 
L 125.065766 49.658918 
L 125.065766 49.658918 
L 122.374334 52.587119 
L 120.115705 55.515321 
L 118.253128 58.443522 
L 116.755034 61.371723 
L 115.591291 64.299925 
L 114.73047 67.228126 
L 114.148113 70.156327 
L 113.809632 73.084528 
L 113.685442 76.01273 
L 113.742217 78.940931 
L 114.083265 83.333233 
L 115.350117 95.046038 
L 115.415107 97.974239 
L 115.22166 100.90244 
L 114.674398 103.830642 
L 114.238445 105.294742 
L 113.377244 107.377478 
L 112.967879 108.222943 
L 111.916178 109.96457 
L 110.455113 111.923249 
L 108.994048 113.556907 
L 107.532982 114.97285 
L 106.071917 116.236834 
L 104.610852 117.391198 
L 101.688721 119.446702 
L 98.566889 121.399849 
L 93.236851 124.32805 
L 87.078068 127.333938 
L 78.311676 131.235501 
L 69.545284 134.931573 
L 52.0125 142.286867 
L 52.0125 142.286867 
" clip-path="url(#pb380d4dbeb)" style="fill: none; stroke: #486afb; stroke-width: 2"/>
   </g>
   <g id="patch_3">
    <path d="M 52.0125 239.992 
L 52.0125 7.2 
" style="fill: none; stroke: #000000; stroke-width: 0.6; stroke-linejoin: miter; stroke-linecap: square"/>
   </g>
   <g id="patch_4">
    <path d="M 52.0125 239.992 
L 342.7645 239.992 
" style="fill: none; stroke: #000000; stroke-width: 0.6; stroke-linejoin: miter; stroke-linecap: square"/>
   </g>
  </g>
 </g>
 <defs>
  <clipPath id="pb380d4dbeb">
   <rect x="52.0125" y="7.2" width="290.752" height="232.792"/>
  </clipPath>
 </defs>
</svg>