<?xml version="1.0" encoding="utf-8" standalone="no"?>
<!DOCTYPE svg PUBLIC "-//W3C//DTD SVG 1.1//EN"
  "http://www.w3.org/Graphics/SVG/1.1/DTD/svg11.dtd">
<svg xmlns:xlink="http://www.w3.org/1999/xlink" width="279.711875pt" height="208.1025pt" viewBox="0 0 279.711875 208.1025" xmlns="http://www.w3.org/2000/svg" version="1.1">
 <metadata>
  <rdf:RDF xmlns:dc="http://purl.org/dc/elements/1.1/" xmlns:cc="http://creativecommons.org/ns#" xmlns:rdf="http://www.w3.org/1999/02/22-rdf-syntax-ns#">
   <cc:Work>
    <dc:type rdf:resource="http://purl.org/dc/dcmitype/StillImage"/>
    <dc:date>2024-03-26T06:38:22.120854</dc:date>
    <dc:format>image/svg+xml</dc:format>
    <dc:creator>
     <cc:Agent>
      <dc:title>Matplotlib v3.8.3, https://matplotlib.org/</dc:title>
     </cc:Agent>
    </dc:creator>
   </cc:Work>
  </rdf:RDF>
 </metadata>
 <defs>
  <style type="text/css">*{stroke-linejoin: round; stroke-linecap: butt}</style>
 </defs>
 <g id="figure_1">
  <g id="patch_1">
   <path d="M 0 208.1025 
L 279.711875 208.1025 
L 279.711875 0 
L 0 0 
z
" style="fill: #ffffff"/>
  </g>
  <g id="axes_1">
   <g id="patch_2">
    <path d="M 39.971875 170.44 
L 272.511875 170.44 
L 272.511875 7.2 
L 39.971875 7.2 
z
" style="fill: #ffffff"/>
   </g>
   <g id="PathCollection_1">
    <defs>
     <path id="m129a6e8f60" d="M 0 2 
C 0.530406 2 1.03916 1.789267 1.414214 1.414214 
C 1.789267 1.03916 2 0.530406 2 0 
C 2 -0.530406 1.789267 -1.03916 1.414214 -1.414214 
C 1.03916 -1.789267 0.530406 -2 0 -2 
C -0.530406 -2 -1.03916 -1.789267 -1.414214 -1.414214 
C -1.789267 -1.03916 -2 -0.530406 -2 0 
C -2 0.530406 -1.789267 1.03916 -1.414214 1.414214 
C -1.03916 1.789267 -0.530406 2 0 2 
z
" style="stroke: #486afb; stroke-width: 0.2"/>
    </defs>
    <g clip-path="url(#p6fc2d8e2ad)">
     <use xlink:href="#m129a6e8f60" x="158.212553" y="87.43661" style="fill: #486afb; stroke: #486afb; stroke-width: 0.2"/>
    </g>
   </g>
   <g id="matplotlib.axis_1">
    <g id="xtick_1">
     <g id="line2d_1">
      <path d="M 39.971875 170.44 
L 39.971875 7.2 
" clip-path="url(#p6fc2d8e2ad)" style="fill: none; stroke-dasharray: 2.22,0.96; stroke-dashoffset: 0; stroke: #6c6066; stroke-opacity: 0.4; stroke-width: 0.6"/>
     </g>
     <g id="line2d_2">
      <defs>
       <path id="m9677e2774e" d="M 0 0 
L 0 3.5 
" style="stroke: #000000; stroke-width: 0.8"/>
      </defs>
      <g>
       <use xlink:href="#m9677e2774e" x="39.971875" y="170.44" style="stroke: #000000; stroke-width: 0.8"/>
      </g>
     </g>
     <g id="text_1">
      <!-- −2 -->
      <g transform="translate(33.951562 185.091563) scale(0.1 -0.1)">
       <defs>
        <path id="DejaVuSansMono-2212" d="M 275 2272 
L 3578 2272 
L 3578 1741 
L 275 1741 
L 275 2272 
z
" transform="scale(0.015625)"/>
        <path id="DejaVuSansMono-32" d="M 1166 531 
L 3309 531 
L 3309 0 
L 475 0 
L 475 531 
Q 1059 1147 1496 1619 
Q 1934 2091 2100 2284 
Q 2413 2666 2522 2902 
Q 2631 3138 2631 3384 
Q 2631 3775 2401 3997 
Q 2172 4219 1772 4219 
Q 1488 4219 1175 4116 
Q 863 4013 513 3803 
L 513 4441 
Q 834 4594 1145 4672 
Q 1456 4750 1759 4750 
Q 2444 4750 2861 4386 
Q 3278 4022 3278 3431 
Q 3278 3131 3139 2831 
Q 3000 2531 2688 2169 
Q 2513 1966 2180 1606 
Q 1847 1247 1166 531 
z
" transform="scale(0.015625)"/>
       </defs>
       <use xlink:href="#DejaVuSansMono-2212"/>
       <use xlink:href="#DejaVuSansMono-32" x="60.205078"/>
      </g>
     </g>
    </g>
    <g id="xtick_2">
     <g id="line2d_3">
      <path d="M 79.385434 170.44 
L 79.385434 7.2 
" clip-path="url(#p6fc2d8e2ad)" style="fill: none; stroke-dasharray: 2.22,0.96; stroke-dashoffset: 0; stroke: #6c6066; stroke-opacity: 0.4; stroke-width: 0.6"/>
     </g>
     <g id="line2d_4">
      <g>
       <use xlink:href="#m9677e2774e" x="79.385434" y="170.44" style="stroke: #000000; stroke-width: 0.8"/>
      </g>
     </g>
     <g id="text_2">
      <!-- −1 -->
      <g transform="translate(73.365122 185.091563) scale(0.1 -0.1)">
       <defs>
        <path id="DejaVuSansMono-31" d="M 844 531 
L 1825 531 
L 1825 4097 
L 769 3859 
L 769 4434 
L 1819 4666 
L 2450 4666 
L 2450 531 
L 3419 531 
L 3419 0 
L 844 0 
L 844 531 
z
" transform="scale(0.015625)"/>
       </defs>
       <use xlink:href="#DejaVuSansMono-2212"/>
       <use xlink:href="#DejaVuSansMono-31" x="60.205078"/>
      </g>
     </g>
    </g>
    <g id="xtick_3">
     <g id="line2d_5">
      <path d="M 118.798994 170.44 
L 118.798994 7.2 
" clip-path="url(#p6fc2d8e2ad)" style="fill: none; stroke-dasharray: 2.22,0.96; stroke-dashoffset: 0; stroke: #6c6066; stroke-opacity: 0.4; stroke-width: 0.6"/>
     </g>
     <g id="line2d_6">
      <g>
       <use xlink:href="#m9677e2774e" x="118.798994" y="170.44" style="stroke: #000000; stroke-width: 0.8"/>
      </g>
     </g>
     <g id="text_3">
      <!-- 0 -->
      <g transform="translate(115.788837 185.091563) scale(0.1 -0.1)">
       <defs>
        <path id="DejaVuSansMono-30" d="M 1509 2344 
Q 1509 2516 1629 2641 
Q 1750 2766 1919 2766 
Q 2094 2766 2219 2641 
Q 2344 2516 2344 2344 
Q 2344 2169 2220 2047 
Q 2097 1925 1919 1925 
Q 1744 1925 1626 2044 
Q 1509 2163 1509 2344 
z
M 1925 4250 
Q 1484 4250 1267 3775 
Q 1050 3300 1050 2328 
Q 1050 1359 1267 884 
Q 1484 409 1925 409 
Q 2369 409 2586 884 
Q 2803 1359 2803 2328 
Q 2803 3300 2586 3775 
Q 2369 4250 1925 4250 
z
M 1925 4750 
Q 2672 4750 3055 4137 
Q 3438 3525 3438 2328 
Q 3438 1134 3055 521 
Q 2672 -91 1925 -91 
Q 1178 -91 797 521 
Q 416 1134 416 2328 
Q 416 3525 797 4137 
Q 1178 4750 1925 4750 
z
" transform="scale(0.015625)"/>
       </defs>
       <use xlink:href="#DejaVuSansMono-30"/>
      </g>
     </g>
    </g>
    <g id="xtick_4">
     <g id="line2d_7">
      <path d="M 158.212553 170.44 
L 158.212553 7.2 
" clip-path="url(#p6fc2d8e2ad)" style="fill: none; stroke-dasharray: 2.22,0.96; stroke-dashoffset: 0; stroke: #6c6066; stroke-opacity: 0.4; stroke-width: 0.6"/>
     </g>
     <g id="line2d_8">
      <g>
       <use xlink:href="#m9677e2774e" x="158.212553" y="170.44" style="stroke: #000000; stroke-width: 0.8"/>
      </g>
     </g>
     <g id="text_4">
      <!-- 1 -->
      <g transform="translate(155.202397 185.091563) scale(0.1 -0.1)">
       <use xlink:href="#DejaVuSansMono-31"/>
      </g>
     </g>
    </g>
    <g id="xtick_5">
     <g id="line2d_9">
      <path d="M 197.626112 170.44 
L 197.626112 7.2 
" clip-path="url(#p6fc2d8e2ad)" style="fill: none; stroke-dasharray: 2.22,0.96; stroke-dashoffset: 0; stroke: #6c6066; stroke-opacity: 0.4; stroke-width: 0.6"/>
     </g>
     <g id="line2d_10">
      <g>
       <use xlink:href="#m9677e2774e" x="197.626112" y="170.44" style="stroke: #000000; stroke-width: 0.8"/>
      </g>
     </g>
     <g id="text_5">
      <!-- 2 -->
      <g transform="translate(194.615956 185.091563) scale(0.1 -0.1)">
       <use xlink:href="#DejaVuSansMono-32"/>
      </g>
     </g>
    </g>
    <g id="xtick_6">
     <g id="line2d_11">
      <path d="M 237.039672 170.44 
L 237.039672 7.2 
" clip-path="url(#p6fc2d8e2ad)" style="fill: none; stroke-dasharray: 2.22,0.96; stroke-dashoffset: 0; stroke: #6c6066; stroke-opacity: 0.4; stroke-width: 0.6"/>
     </g>
     <g id="line2d_12">
      <g>
       <use xlink:href="#m9677e2774e" x="237.039672" y="170.44" style="stroke: #000000; stroke-width: 0.8"/>
      </g>
     </g>
     <g id="text_6">
      <!-- 3 -->
      <g transform="translate(234.029515 185.091563) scale(0.1 -0.1)">
       <defs>
        <path id="DejaVuSansMono-33" d="M 2425 2497 
Q 2884 2375 3128 2064 
Q 3372 1753 3372 1288 
Q 3372 644 2939 276 
Q 2506 -91 1741 -91 
Q 1419 -91 1084 -31 
Q 750 28 428 141 
L 428 769 
Q 747 603 1056 522 
Q 1366 441 1672 441 
Q 2191 441 2469 675 
Q 2747 909 2747 1350 
Q 2747 1756 2469 1995 
Q 2191 2234 1716 2234 
L 1234 2234 
L 1234 2753 
L 1716 2753 
Q 2150 2753 2394 2943 
Q 2638 3134 2638 3475 
Q 2638 3834 2411 4026 
Q 2184 4219 1766 4219 
Q 1488 4219 1191 4156 
Q 894 4094 569 3969 
L 569 4550 
Q 947 4650 1242 4700 
Q 1538 4750 1766 4750 
Q 2447 4750 2855 4408 
Q 3263 4066 3263 3500 
Q 3263 3116 3048 2859 
Q 2834 2603 2425 2497 
z
" transform="scale(0.015625)"/>
       </defs>
       <use xlink:href="#DejaVuSansMono-33"/>
      </g>
     </g>
    </g>
    <g id="text_7">
     <!-- $x$ -->
     <g transform="translate(153.241875 198.822813) scale(0.1 -0.1)">
      <defs>
       <path id="DejaVuSans-Oblique-78" d="M 3841 3500 
L 2234 1784 
L 3219 0 
L 2559 0 
L 1819 1388 
L 531 0 
L -166 0 
L 1556 1844 
L 641 3500 
L 1300 3500 
L 1972 2234 
L 3144 3500 
L 3841 3500 
z
" transform="scale(0.015625)"/>
      </defs>
      <use xlink:href="#DejaVuSans-Oblique-78" transform="translate(0 0.3125)"/>
     </g>
    </g>
   </g>
   <g id="matplotlib.axis_2">
    <g id="ytick_1">
     <g id="line2d_13">
      <path d="M 39.971875 170.44 
L 272.511875 170.44 
" clip-path="url(#p6fc2d8e2ad)" style="fill: none; stroke-dasharray: 2.22,0.96; stroke-dashoffset: 0; stroke: #6c6066; stroke-opacity: 0.4; stroke-width: 0.6"/>
     </g>
     <g id="line2d_14">
      <defs>
       <path id="m2196dd6bbb" d="M 0 0 
L -3.5 0 
" style="stroke: #000000; stroke-width: 0.8"/>
      </defs>
      <g>
       <use xlink:href="#m2196dd6bbb" x="39.971875" y="170.44" style="stroke: #000000; stroke-width: 0.8"/>
      </g>
     </g>
     <g id="text_8">
      <!-- −2 -->
      <g transform="translate(20.93125 174.265781) scale(0.1 -0.1)">
       <use xlink:href="#DejaVuSansMono-2212"/>
       <use xlink:href="#DejaVuSansMono-32" x="60.205078"/>
      </g>
     </g>
    </g>
    <g id="ytick_2">
     <g id="line2d_15">
      <path d="M 39.971875 142.772203 
L 272.511875 142.772203 
" clip-path="url(#p6fc2d8e2ad)" style="fill: none; stroke-dasharray: 2.22,0.96; stroke-dashoffset: 0; stroke: #6c6066; stroke-opacity: 0.4; stroke-width: 0.6"/>
     </g>
     <g id="line2d_16">
      <g>
       <use xlink:href="#m2196dd6bbb" x="39.971875" y="142.772203" style="stroke: #000000; stroke-width: 0.8"/>
      </g>
     </g>
     <g id="text_9">
      <!-- −1 -->
      <g transform="translate(20.93125 146.597985) scale(0.1 -0.1)">
       <use xlink:href="#DejaVuSansMono-2212"/>
       <use xlink:href="#DejaVuSansMono-31" x="60.205078"/>
      </g>
     </g>
    </g>
    <g id="ytick_3">
     <g id="line2d_17">
      <path d="M 39.971875 115.104407 
L 272.511875 115.104407 
" clip-path="url(#p6fc2d8e2ad)" style="fill: none; stroke-dasharray: 2.22,0.96; stroke-dashoffset: 0; stroke: #6c6066; stroke-opacity: 0.4; stroke-width: 0.6"/>
     </g>
     <g id="line2d_18">
      <g>
       <use xlink:href="#m2196dd6bbb" x="39.971875" y="115.104407" style="stroke: #000000; stroke-width: 0.8"/>
      </g>
     </g>
     <g id="text_10">
      <!-- 0 -->
      <g transform="translate(26.951562 118.930188) scale(0.1 -0.1)">
       <use xlink:href="#DejaVuSansMono-30"/>
      </g>
     </g>
    </g>
    <g id="ytick_4">
     <g id="line2d_19">
      <path d="M 39.971875 87.43661 
L 272.511875 87.43661 
" clip-path="url(#p6fc2d8e2ad)" style="fill: none; stroke-dasharray: 2.22,0.96; stroke-dashoffset: 0; stroke: #6c6066; stroke-opacity: 0.4; stroke-width: 0.6"/>
     </g>
     <g id="line2d_20">
      <g>
       <use xlink:href="#m2196dd6bbb" x="39.971875" y="87.43661" style="stroke: #000000; stroke-width: 0.8"/>
      </g>
     </g>
     <g id="text_11">
      <!-- 1 -->
      <g transform="translate(26.951562 91.262391) scale(0.1 -0.1)">
       <use xlink:href="#DejaVuSansMono-31"/>
      </g>
     </g>
    </g>
    <g id="ytick_5">
     <g id="line2d_21">
      <path d="M 39.971875 59.768814 
L 272.511875 59.768814 
" clip-path="url(#p6fc2d8e2ad)" style="fill: none; stroke-dasharray: 2.22,0.96; stroke-dashoffset: 0; stroke: #6c6066; stroke-opacity: 0.4; stroke-width: 0.6"/>
     </g>
     <g id="line2d_22">
      <g>
       <use xlink:href="#m2196dd6bbb" x="39.971875" y="59.768814" style="stroke: #000000; stroke-width: 0.8"/>
      </g>
     </g>
     <g id="text_12">
      <!-- 2 -->
      <g transform="translate(26.951562 63.594595) scale(0.1 -0.1)">
       <use xlink:href="#DejaVuSansMono-32"/>
      </g>
     </g>
    </g>
    <g id="ytick_6">
     <g id="line2d_23">
      <path d="M 39.971875 32.101017 
L 272.511875 32.101017 
" clip-path="url(#p6fc2d8e2ad)" style="fill: none; stroke-dasharray: 2.22,0.96; stroke-dashoffset: 0; stroke: #6c6066; stroke-opacity: 0.4; stroke-width: 0.6"/>
     </g>
     <g id="line2d_24">
      <g>
       <use xlink:href="#m2196dd6bbb" x="39.971875" y="32.101017" style="stroke: #000000; stroke-width: 0.8"/>
      </g>
     </g>
     <g id="text_13">
      <!-- 3 -->
      <g transform="translate(26.951562 35.926798) scale(0.1 -0.1)">
       <use xlink:href="#DejaVuSansMono-33"/>
      </g>
     </g>
    </g>
    <g id="text_14">
     <!-- $y$ -->
     <g transform="translate(14.83125 91.82) rotate(-90) scale(0.1 -0.1)">
      <defs>
       <path id="DejaVuSans-Oblique-79" d="M 1588 -325 
Q 1188 -997 936 -1164 
Q 684 -1331 294 -1331 
L -159 -1331 
L -63 -850 
L 269 -850 
Q 509 -850 678 -719 
Q 847 -588 1056 -206 
L 1234 128 
L 459 3500 
L 1069 3500 
L 1650 819 
L 3256 3500 
L 3859 3500 
L 1588 -325 
z
" transform="scale(0.015625)"/>
      </defs>
      <use xlink:href="#DejaVuSans-Oblique-79" transform="translate(0 0.3125)"/>
     </g>
    </g>
   </g>
   <g id="QuadContourSet_1">
    <path clip-path="url(#p6fc2d8e2ad)" style="fill: none; stroke: #486afb; stroke-width: 2"/>
    <path d="M 158.918684 31.881633 
L 166.095265 32.022789 
L 173.977977 32.422968 
L 181.860689 33.098317 
L 189.7434 34.102371 
L 197.626112 35.419823 
L 201.567468 36.183451 
L 209.45018 38.03416 
L 213.391536 39.072305 
L 221.274248 41.515442 
L 229.15696 44.448896 
L 233.098316 46.15338 
L 238.441097 48.701695 
L 243.514286 51.468475 
L 247.949498 54.235254 
L 251.850673 57.002034 
L 255.283269 59.768814 
L 258.28182 62.535593 
L 260.854251 65.302373 
L 263.137111 68.069153 
L 265.017987 70.835932 
L 266.639027 73.602712 
L 267.900595 76.369492 
L 268.873275 79.136271 
L 269.598506 81.903051 
L 270.025021 84.669831 
L 270.165777 87.43661 
L 270.025021 90.20339 
L 269.598506 92.970169 
L 268.570519 96.557623 
L 267.900595 98.503729 
L 266.639027 101.270508 
L 264.629163 104.594465 
L 263.137111 106.804068 
L 260.687807 109.748785 
L 258.28182 112.337627 
L 255.283269 115.104407 
L 251.850673 117.871186 
L 247.949498 120.637966 
L 243.514286 123.404746 
L 238.441097 126.171525 
L 237.039672 126.881582 
L 232.597239 128.938305 
L 229.15696 130.424325 
L 221.274248 133.357779 
L 213.391536 135.800916 
L 205.508824 137.806106 
L 201.567468 138.689769 
L 193.684756 140.126056 
L 185.802044 141.317468 
L 177.919333 142.15052 
L 170.036621 142.678758 
L 162.153909 142.961381 
L 154.271197 142.961381 
L 146.388485 142.678758 
L 138.505773 142.15052 
L 130.623061 141.317468 
L 122.74035 140.126056 
L 114.857638 138.689769 
L 106.974926 136.839061 
L 103.03357 135.800916 
L 95.150858 133.357779 
L 87.268146 130.424325 
L 83.32679 128.719841 
L 77.984009 126.171525 
L 72.91082 123.404746 
L 68.475608 120.637966 
L 64.574433 117.871186 
L 61.141837 115.104407 
L 58.143286 112.337627 
L 55.570855 109.570847 
L 53.287995 106.804068 
L 51.407119 104.037288 
L 49.786079 101.270508 
L 48.52451 98.503729 
L 47.551831 95.736949 
L 46.8266 92.970169 
L 46.400085 90.20339 
L 46.259329 87.43661 
L 46.400085 84.669831 
L 46.8266 81.903051 
L 47.854587 78.315597 
L 48.52451 76.369492 
L 49.786079 73.602712 
L 51.795943 70.278755 
L 53.287995 68.069153 
L 55.737299 65.124436 
L 58.143286 62.535593 
L 61.141837 59.768814 
L 64.574433 57.002034 
L 68.475608 54.235254 
L 72.91082 51.468475 
L 77.984009 48.701695 
L 79.385434 47.991638 
L 83.827867 45.934915 
L 87.268146 44.448896 
L 95.150858 41.515442 
L 103.03357 39.072305 
L 110.916282 37.067114 
L 114.857638 36.183451 
L 122.74035 34.747165 
L 130.623061 33.555752 
L 138.434204 32.729521 
L 138.434204 32.729521 
" clip-path="url(#p6fc2d8e2ad)" style="fill: none; stroke: #486afb; stroke-width: 2"/>
    <path d="M 167.702375 132.189486 
L 162.153909 132.411451 
L 154.271197 132.411451 
L 146.388485 132.058262 
L 138.505773 131.365098 
L 130.623061 130.323615 
L 123.231232 128.938305 
L 118.798994 127.975203 
L 112.118548 126.171525 
L 110.916282 125.825933 
L 106.974926 124.569066 
L 103.03357 123.135104 
L 97.039792 120.637966 
L 95.150858 119.761216 
L 91.209502 117.736051 
L 86.731295 115.104407 
L 82.711555 112.337627 
L 79.300272 109.570847 
L 76.383174 106.804068 
L 73.942411 104.037288 
L 71.502722 100.490495 
L 70.332299 98.503729 
L 69.098515 95.736949 
L 68.243308 92.970169 
L 67.740352 90.20339 
L 67.57437 87.43661 
L 67.740352 84.669831 
L 68.243308 81.903051 
L 69.098515 79.136271 
L 70.332299 76.369492 
L 71.953366 73.602712 
L 73.942411 70.835932 
L 76.383174 68.069153 
L 79.385434 65.2309 
L 83.32679 62.092886 
L 87.268146 59.434769 
L 91.457322 57.002034 
L 97.039792 54.235254 
L 99.092214 53.320872 
L 103.765974 51.468475 
L 106.974926 50.304155 
L 114.857638 47.905692 
L 118.798994 46.898017 
L 126.681706 45.232988 
L 134.564417 43.977719 
L 142.447129 43.129846 
L 150.329841 42.593388 
L 158.212553 42.418116 
L 166.095265 42.593388 
L 174.35088 43.168136 
L 181.860689 43.977719 
L 189.7434 45.232988 
L 197.626112 46.898017 
L 204.306558 48.701695 
L 205.508824 49.047288 
L 209.45018 50.304155 
L 213.391536 51.738116 
L 219.385313 54.235254 
L 221.274248 55.112005 
L 225.215604 57.137169 
L 229.693811 59.768814 
L 233.713551 62.535593 
L 237.124834 65.302373 
L 240.041932 68.069153 
L 242.482695 70.835932 
L 244.922383 74.382726 
L 246.092806 76.369492 
L 247.326591 79.136271 
L 248.181798 81.903051 
L 248.684754 84.669831 
L 248.850736 87.43661 
L 248.684754 90.20339 
L 248.181798 92.970169 
L 247.326591 95.736949 
L 246.092806 98.503729 
L 244.47174 101.270508 
L 242.482695 104.037288 
L 240.041932 106.804068 
L 237.039672 109.64232 
L 233.098316 112.780335 
L 229.15696 115.438452 
L 224.967784 117.871186 
L 219.385313 120.637966 
L 217.332892 121.552348 
L 212.659132 123.404746 
L 209.45018 124.569066 
L 201.567468 126.967529 
L 197.626112 127.975203 
L 189.7434 129.640232 
L 188.059217 129.932249 
L 188.059217 129.932249 
" clip-path="url(#p6fc2d8e2ad)" style="fill: none; stroke: #486afb; stroke-width: 2"/>
    <path d="M 101.758749 112.29704 
L 99.092214 110.710521 
L 97.31818 109.570847 
L 95.150858 107.996711 
L 93.600628 106.804068 
L 91.209502 104.65466 
L 90.548889 104.037288 
L 88.066717 101.270508 
L 87.268146 100.156808 
L 86.095325 98.503729 
L 84.601311 95.736949 
L 83.565723 92.970169 
L 83.32679 91.894611 
L 82.940686 90.20339 
L 82.731007 87.43661 
L 82.940686 84.669831 
L 83.32679 82.97861 
L 83.565723 81.903051 
L 84.601311 79.136271 
L 86.095325 76.369492 
L 87.268146 74.716413 
L 88.066717 73.602712 
L 90.548889 70.835932 
L 91.209502 70.21856 
L 93.600628 68.069153 
L 95.150858 66.87651 
L 97.31818 65.302373 
L 99.092214 64.1627 
L 101.826966 62.535593 
L 103.03357 61.881973 
L 106.974926 59.93192 
L 107.33396 59.768814 
L 110.916282 58.240247 
L 114.215737 57.002034 
L 114.857638 56.770255 
L 118.798994 55.479488 
L 122.74035 54.36863 
L 123.273694 54.235254 
L 126.681706 53.388078 
L 130.623061 52.552619 
L 134.564417 51.853468 
L 137.183459 51.468475 
L 138.505773 51.269091 
L 142.447129 50.786075 
L 146.388485 50.417838 
L 150.329841 50.158729 
L 154.271197 50.004811 
L 158.212553 49.953761 
L 162.153909 50.004811 
L 166.095265 50.158729 
L 170.036621 50.417838 
L 173.977977 50.786075 
L 177.919333 51.269091 
L 179.241647 51.468475 
L 181.860689 51.853468 
L 185.802044 52.552619 
L 189.7434 53.388078 
L 193.151412 54.235254 
L 193.684756 54.36863 
L 197.626112 55.479488 
L 201.567468 56.770255 
L 202.209369 57.002034 
L 205.508824 58.240247 
L 209.091146 59.768814 
L 209.45018 59.93192 
L 213.391536 61.881973 
L 214.59814 62.535593 
L 217.332892 64.1627 
L 219.106926 65.302373 
L 221.274248 66.87651 
L 222.824478 68.069153 
L 225.215604 70.21856 
L 225.876217 70.835932 
L 228.358389 73.602712 
L 229.15696 74.716413 
L 230.329781 76.369492 
L 231.823795 79.136271 
L 232.859383 81.903051 
L 233.098316 82.97861 
L 233.48442 84.669831 
L 233.694099 87.43661 
L 233.48442 90.20339 
L 233.098316 91.894611 
L 232.859383 92.970169 
L 231.823795 95.736949 
L 230.329781 98.503729 
L 229.15696 100.156808 
L 228.358389 101.270508 
L 225.876217 104.037288 
L 225.215604 104.65466 
L 222.824478 106.804068 
L 221.274248 107.996711 
L 219.106926 109.570847 
L 217.332892 110.710521 
L 214.59814 112.337627 
L 213.391536 112.991248 
L 209.45018 114.9413 
L 209.091146 115.104407 
L 205.508824 116.632973 
L 202.209369 117.871186 
L 201.567468 118.102965 
L 197.626112 119.393732 
L 193.684756 120.50459 
L 193.151412 120.637966 
L 189.7434 121.485142 
L 185.802044 122.320602 
L 181.860689 123.019752 
L 179.241647 123.404746 
L 177.919333 123.60413 
L 173.977977 124.087145 
L 170.036621 124.455382 
L 166.095265 124.714491 
L 162.153909 124.868409 
L 158.212553 124.919459 
L 154.271197 124.868409 
L 150.329841 124.714491 
L 146.388485 124.455382 
L 142.447129 124.087145 
L 138.505773 123.60413 
L 137.183459 123.404746 
L 134.564417 123.019752 
L 130.623061 122.320602 
L 126.681706 121.485142 
L 123.273694 120.637966 
L 122.74035 120.50459 
L 120.565524 119.891623 
" clip-path="url(#p6fc2d8e2ad)" style="fill: none; stroke: #486afb; stroke-width: 2"/>
    <path d="M 124.323824 61.38789 
L 126.681706 60.644074 
L 129.93351 59.768814 
L 130.623061 59.590074 
L 134.564417 58.708161 
L 138.505773 57.98399 
L 142.447129 57.406122 
L 146.057006 57.002034 
L 146.388485 56.964875 
L 150.329841 56.648957 
L 154.271197 56.461294 
L 158.212553 56.399051 
L 162.153909 56.461294 
L 166.095265 56.648957 
L 170.036621 56.964875 
L 170.3681 57.002034 
L 173.977977 57.406122 
L 177.919333 57.98399 
L 181.860689 58.708161 
L 185.802044 59.590074 
L 186.491596 59.768814 
L 189.7434 60.644074 
L 193.684756 61.887413 
L 195.488625 62.535593 
L 197.626112 63.358355 
L 201.567468 65.083739 
L 202.021659 65.302373 
L 205.508824 67.1626 
L 207.048971 68.069153 
L 209.45018 69.687892 
L 211.026973 70.835932 
L 213.391536 72.885975 
L 214.172831 73.602712 
L 216.618347 76.369492 
L 217.332892 77.428366 
L 218.455023 79.136271 
L 219.732246 81.903051 
L 220.483393 84.669831 
L 220.731282 87.43661 
L 220.483393 90.20339 
L 219.732246 92.970169 
L 218.455023 95.736949 
L 217.332892 97.444854 
L 216.618347 98.503729 
L 214.172831 101.270508 
L 213.391536 101.987245 
L 211.026973 104.037288 
L 209.45018 105.185328 
L 207.048971 106.804068 
L 205.508824 107.71062 
L 202.021659 109.570847 
L 201.567468 109.789481 
L 197.626112 111.514865 
L 195.488625 112.337627 
L 193.684756 112.985808 
L 189.7434 114.229146 
L 186.491596 115.104407 
L 185.802044 115.283146 
L 181.860689 116.16506 
L 177.919333 116.88923 
L 173.977977 117.467099 
L 170.3681 117.871186 
L 170.036621 117.908345 
L 166.095265 118.224263 
L 162.153909 118.411927 
L 158.212553 118.474169 
L 154.271197 118.411927 
L 150.329841 118.224263 
L 146.388485 117.908345 
L 146.057006 117.871186 
L 142.447129 117.467099 
L 138.505773 116.88923 
L 134.564417 116.16506 
L 130.623061 115.283146 
L 129.93351 115.104407 
L 126.681706 114.229146 
L 122.74035 112.985808 
L 120.936481 112.337627 
L 118.798994 111.514865 
L 114.857638 109.789481 
L 114.403447 109.570847 
L 110.916282 107.71062 
L 109.376135 106.804068 
L 106.974926 105.185328 
L 105.398133 104.037288 
L 103.03357 101.987245 
L 102.252275 101.270508 
L 99.806759 98.503729 
L 99.092214 97.444854 
L 97.970083 95.736949 
L 96.69286 92.970169 
L 95.941713 90.20339 
L 95.693824 87.43661 
L 95.941713 84.669831 
L 96.69286 81.903051 
L 97.970083 79.136271 
L 99.092214 77.428366 
L 99.806759 76.369492 
L 102.252275 73.602712 
L 103.03357 72.885975 
L 105.398133 70.835932 
L 106.207875 70.246371 
" clip-path="url(#p6fc2d8e2ad)" style="fill: none; stroke: #486afb; stroke-width: 2"/>
    <path d="M 200.891189 100.508819 
L 199.964657 101.270508 
L 197.626112 102.839459 
L 195.642861 104.037288 
L 193.684756 105.050522 
L 189.820711 106.804068 
L 189.7434 106.83532 
L 185.802044 108.243495 
L 181.860689 109.421921 
L 181.26807 109.570847 
L 177.919333 110.353362 
L 173.977977 111.091372 
L 170.036621 111.654009 
L 166.095265 112.049907 
L 162.153909 112.285081 
L 159.500897 112.337627 
L 158.212553 112.362544 
L 156.924209 112.337627 
L 154.271197 112.285081 
L 150.329841 112.049907 
L 146.388485 111.654009 
L 142.447129 111.091372 
L 138.505773 110.353362 
L 135.157036 109.570847 
L 134.564417 109.421921 
L 130.623061 108.243495 
L 126.681706 106.83532 
L 126.604395 106.804068 
L 122.74035 105.050522 
L 120.782245 104.037288 
L 118.798994 102.839459 
L 116.460449 101.270508 
L 114.857638 99.952859 
L 113.232036 98.503729 
L 110.916282 95.802604 
L 110.863187 95.736949 
L 109.258336 92.970169 
L 108.314508 90.20339 
L 108.003032 87.43661 
L 108.314508 84.669831 
L 109.258336 81.903051 
L 110.863187 79.136271 
L 110.916282 79.070616 
L 113.232036 76.369492 
L 114.857638 74.920362 
L 116.460449 73.602712 
L 118.798994 72.033762 
L 120.782245 70.835932 
L 122.74035 69.822699 
L 126.604395 68.069153 
L 126.681706 68.0379 
L 130.623061 66.629725 
L 134.564417 65.4513 
L 135.157036 65.302373 
L 138.505773 64.519858 
L 142.447129 63.781848 
L 146.388485 63.219211 
L 150.329841 62.823314 
L 154.271197 62.58814 
L 156.924209 62.535593 
L 158.212553 62.510676 
L 159.500897 62.535593 
L 162.153909 62.58814 
L 166.095265 62.823314 
L 170.036621 63.219211 
L 173.977977 63.781848 
L 177.919333 64.519858 
L 181.26807 65.302373 
L 181.860689 65.4513 
L 185.802044 66.629725 
L 189.7434 68.0379 
L 189.820711 68.069153 
L 193.684756 69.822699 
L 195.642861 70.835932 
L 197.626112 72.033762 
L 199.964657 73.602712 
L 201.567468 74.920362 
L 203.19307 76.369492 
L 205.508824 79.070616 
L 205.561919 79.136271 
L 207.16677 81.903051 
L 207.723885 83.536203 
" clip-path="url(#p6fc2d8e2ad)" style="fill: none; stroke: #486afb; stroke-width: 2"/>
    <path d="M 151.910038 105.612844 
L 150.329841 105.485479 
L 146.388485 104.950693 
L 142.447129 104.190673 
L 141.829081 104.037288 
L 138.505773 103.098394 
L 134.564417 101.707847 
L 133.521817 101.270508 
L 130.623061 99.810083 
L 128.398237 98.503729 
L 126.681706 97.211052 
L 124.94592 95.736949 
L 122.74035 93.081609 
L 122.655858 92.970169 
L 121.392194 90.20339 
L 120.975167 87.43661 
L 121.392194 84.669831 
L 122.655858 81.903051 
L 122.74035 81.791612 
L 124.94592 79.136271 
L 126.681706 77.662168 
L 128.398237 76.369492 
L 130.623061 75.063137 
L 133.521817 73.602712 
L 134.564417 73.165373 
L 138.505773 71.774826 
L 141.829081 70.835932 
L 142.447129 70.682548 
L 146.388485 69.922528 
L 150.329841 69.387742 
L 154.271197 69.070064 
L 158.212553 68.9647 
L 162.153909 69.070064 
L 166.095265 69.387742 
L 170.036621 69.922528 
L 173.977977 70.682548 
L 174.596025 70.835932 
L 177.919333 71.774826 
L 181.860689 73.165373 
L 182.903289 73.602712 
L 185.802044 75.063137 
L 188.026869 76.369492 
L 189.7434 77.662168 
L 191.479186 79.136271 
L 193.684756 81.791612 
L 193.769248 81.903051 
L 195.032912 84.669831 
L 195.449939 87.43661 
L 195.032912 90.20339 
L 193.769248 92.970169 
L 193.684756 93.081609 
L 191.479186 95.736949 
L 189.7434 97.211052 
L 188.026869 98.503729 
L 185.802044 99.810083 
L 182.903289 101.270508 
L 181.860689 101.707847 
L 177.919333 103.098394 
L 174.596025 104.037288 
L 173.977977 104.190673 
L 172.307424 104.512809 
" clip-path="url(#p6fc2d8e2ad)" style="fill: none; stroke: #486afb; stroke-width: 2"/>
    <path d="M 175.436962 81.783723 
L 175.625599 81.903051 
L 177.919333 84.327409 
L 178.187062 84.669831 
L 178.910422 87.43661 
L 178.187062 90.20339 
L 177.919333 90.545811 
L 175.625599 92.970169 
L 173.977977 94.012415 
L 170.455247 95.736949 
L 170.036621 95.88517 
L 166.095265 96.882599 
L 162.153909 97.475099 
L 158.212553 97.671614 
L 154.271197 97.475099 
L 150.329841 96.882599 
L 146.388485 95.88517 
L 145.969859 95.736949 
L 142.447129 94.012415 
L 140.799507 92.970169 
L 138.505773 90.545811 
L 138.238044 90.20339 
L 137.514684 87.43661 
L 138.238044 84.669831 
L 138.505773 84.327409 
L 140.799507 81.903051 
L 142.447129 80.860806 
L 145.969859 79.136271 
L 146.388485 78.98805 
L 150.329841 77.990621 
L 154.271197 77.398121 
L 155.898216 77.316998 
" clip-path="url(#p6fc2d8e2ad)" style="fill: none; stroke: #486afb; stroke-width: 2"/>
    <path clip-path="url(#p6fc2d8e2ad)" style="fill: none; stroke: #486afb; stroke-width: 2"/>
   </g>
   <g id="patch_3">
    <path d="M 39.971875 170.44 
L 39.971875 7.2 
" style="fill: none; stroke: #000000; stroke-width: 0.6; stroke-linejoin: miter; stroke-linecap: square"/>
   </g>
   <g id="patch_4">
    <path d="M 39.971875 170.44 
L 272.511875 170.44 
" style="fill: none; stroke: #000000; stroke-width: 0.6; stroke-linejoin: miter; stroke-linecap: square"/>
   </g>
   <g id="text_15">
    <g clip-path="url(#p6fc2d8e2ad)">
     <!-- 0.015 -->
     <g style="fill: #486afb" transform="translate(136.73699 34.860922) rotate(-2.53876) scale(0.08 -0.08)">
      <defs>
       <path id="DejaVuSansMono-2e" d="M 1528 953 
L 2316 953 
L 2316 0 
L 1528 0 
L 1528 953 
z
" transform="scale(0.015625)"/>
       <path id="DejaVuSansMono-35" d="M 647 4666 
L 3009 4666 
L 3009 4134 
L 1222 4134 
L 1222 2988 
Q 1356 3038 1492 3061 
Q 1628 3084 1766 3084 
Q 2491 3084 2916 2656 
Q 3341 2228 3341 1497 
Q 3341 759 2895 334 
Q 2450 -91 1678 -91 
Q 1306 -91 998 -41 
Q 691 9 447 109 
L 447 750 
Q 734 594 1025 517 
Q 1316 441 1619 441 
Q 2141 441 2423 716 
Q 2706 991 2706 1497 
Q 2706 1997 2414 2275 
Q 2122 2553 1600 2553 
Q 1347 2553 1106 2495 
Q 866 2438 647 2322 
L 647 4666 
z
" transform="scale(0.015625)"/>
      </defs>
      <use xlink:href="#DejaVuSansMono-30"/>
      <use xlink:href="#DejaVuSansMono-2e" x="60.205078"/>
      <use xlink:href="#DejaVuSansMono-30" x="120.410156"/>
      <use xlink:href="#DejaVuSansMono-31" x="180.615234"/>
      <use xlink:href="#DejaVuSansMono-35" x="240.820312"/>
     </g>
    </g>
   </g>
   <g id="text_16">
    <g clip-path="url(#p6fc2d8e2ad)">
     <!-- 0.030 -->
     <g style="fill: #486afb" transform="translate(166.218185 134.974407) rotate(-6.655884) scale(0.08 -0.08)">
      <use xlink:href="#DejaVuSansMono-30"/>
      <use xlink:href="#DejaVuSansMono-2e" x="60.205078"/>
      <use xlink:href="#DejaVuSansMono-30" x="120.410156"/>
      <use xlink:href="#DejaVuSansMono-33" x="180.615234"/>
      <use xlink:href="#DejaVuSansMono-30" x="240.820312"/>
     </g>
    </g>
   </g>
   <g id="text_17">
    <g clip-path="url(#p6fc2d8e2ad)">
     <!-- 0.045 -->
     <g style="fill: #486afb" transform="translate(98.971776 113.936168) rotate(-336.790307) scale(0.08 -0.08)">
      <defs>
       <path id="DejaVuSansMono-34" d="M 2297 4091 
L 825 1625 
L 2297 1625 
L 2297 4091 
z
M 2194 4666 
L 2925 4666 
L 2925 1625 
L 3547 1625 
L 3547 1113 
L 2925 1113 
L 2925 0 
L 2297 0 
L 2297 1113 
L 319 1113 
L 319 1709 
L 2194 4666 
z
" transform="scale(0.015625)"/>
      </defs>
      <use xlink:href="#DejaVuSansMono-30"/>
      <use xlink:href="#DejaVuSansMono-2e" x="60.205078"/>
      <use xlink:href="#DejaVuSansMono-30" x="120.410156"/>
      <use xlink:href="#DejaVuSansMono-34" x="180.615234"/>
      <use xlink:href="#DejaVuSansMono-35" x="240.820312"/>
     </g>
    </g>
   </g>
   <g id="text_18">
    <g clip-path="url(#p6fc2d8e2ad)">
     <!-- 0.060 -->
     <g style="fill: #486afb" transform="translate(105.182448 72.589382) rotate(-27.316048) scale(0.08 -0.08)">
      <defs>
       <path id="DejaVuSansMono-36" d="M 3097 4563 
L 3097 3981 
Q 2900 4097 2678 4158 
Q 2456 4219 2216 4219 
Q 1616 4219 1306 3767 
Q 997 3316 997 2438 
Q 1147 2750 1412 2917 
Q 1678 3084 2022 3084 
Q 2697 3084 3067 2670 
Q 3438 2256 3438 1497 
Q 3438 741 3056 325 
Q 2675 -91 1984 -91 
Q 1172 -91 794 492 
Q 416 1075 416 2328 
Q 416 3509 870 4129 
Q 1325 4750 2188 4750 
Q 2419 4750 2650 4701 
Q 2881 4653 3097 4563 
z
M 1972 2591 
Q 1569 2591 1337 2300 
Q 1106 2009 1106 1497 
Q 1106 984 1337 693 
Q 1569 403 1972 403 
Q 2391 403 2603 679 
Q 2816 956 2816 1497 
Q 2816 2041 2603 2316 
Q 2391 2591 1972 2591 
z
" transform="scale(0.015625)"/>
      </defs>
      <use xlink:href="#DejaVuSansMono-30"/>
      <use xlink:href="#DejaVuSansMono-2e" x="60.205078"/>
      <use xlink:href="#DejaVuSansMono-30" x="120.410156"/>
      <use xlink:href="#DejaVuSansMono-36" x="180.615234"/>
      <use xlink:href="#DejaVuSansMono-30" x="240.820312"/>
     </g>
    </g>
   </g>
   <g id="text_19">
    <g clip-path="url(#p6fc2d8e2ad)">
     <!-- 0.075 -->
     <g style="fill: #486afb" transform="translate(204.804988 104.985408) rotate(-68.392508) scale(0.08 -0.08)">
      <defs>
       <path id="DejaVuSansMono-37" d="M 434 4666 
L 3372 4666 
L 3372 4397 
L 1703 0 
L 1044 0 
L 2669 4134 
L 434 4134 
L 434 4666 
z
" transform="scale(0.015625)"/>
      </defs>
      <use xlink:href="#DejaVuSansMono-30"/>
      <use xlink:href="#DejaVuSansMono-2e" x="60.205078"/>
      <use xlink:href="#DejaVuSansMono-30" x="120.410156"/>
      <use xlink:href="#DejaVuSansMono-37" x="180.615234"/>
      <use xlink:href="#DejaVuSansMono-35" x="240.820312"/>
     </g>
    </g>
   </g>
   <g id="text_20">
    <g clip-path="url(#p6fc2d8e2ad)">
     <!-- 0.090 -->
     <g style="fill: #486afb" transform="translate(150.259695 108.713768) rotate(-3.263634) scale(0.08 -0.08)">
      <defs>
       <path id="DejaVuSansMono-39" d="M 1863 2069 
Q 2266 2069 2495 2359 
Q 2725 2650 2725 3163 
Q 2725 3675 2495 3965 
Q 2266 4256 1863 4256 
Q 1444 4256 1231 3979 
Q 1019 3703 1019 3163 
Q 1019 2619 1230 2344 
Q 1441 2069 1863 2069 
z
M 738 97 
L 738 678 
Q 934 563 1156 502 
Q 1378 441 1619 441 
Q 2219 441 2526 892 
Q 2834 1344 2834 2222 
Q 2688 1909 2422 1742 
Q 2156 1575 1813 1575 
Q 1138 1575 767 1990 
Q 397 2406 397 3169 
Q 397 3922 776 4336 
Q 1156 4750 1850 4750 
Q 2663 4750 3041 4165 
Q 3419 3581 3419 2328 
Q 3419 1150 2964 529 
Q 2509 -91 1644 -91 
Q 1416 -91 1184 -42 
Q 953 6 738 97 
z
" transform="scale(0.015625)"/>
      </defs>
      <use xlink:href="#DejaVuSansMono-30"/>
      <use xlink:href="#DejaVuSansMono-2e" x="60.205078"/>
      <use xlink:href="#DejaVuSansMono-30" x="120.410156"/>
      <use xlink:href="#DejaVuSansMono-39" x="180.615234"/>
      <use xlink:href="#DejaVuSansMono-30" x="240.820312"/>
     </g>
    </g>
   </g>
   <g id="text_21">
    <g clip-path="url(#p6fc2d8e2ad)">
     <!-- 0.105 -->
     <g style="fill: #486afb" transform="translate(153.86542 77.378352) rotate(-346.647066) scale(0.08 -0.08)">
      <use xlink:href="#DejaVuSansMono-30"/>
      <use xlink:href="#DejaVuSansMono-2e" x="60.205078"/>
      <use xlink:href="#DejaVuSansMono-31" x="120.410156"/>
      <use xlink:href="#DejaVuSansMono-30" x="180.615234"/>
      <use xlink:href="#DejaVuSansMono-35" x="240.820312"/>
     </g>
    </g>
   </g>
  </g>
 </g>
 <defs>
  <clipPath id="p6fc2d8e2ad">
   <rect x="39.971875" y="7.2" width="232.54" height="163.24"/>
  </clipPath>
 </defs>
</svg>