<?xml version="1.0" encoding="utf-8" standalone="no"?>
<!DOCTYPE svg PUBLIC "-//W3C//DTD SVG 1.1//EN"
  "http://www.w3.org/Graphics/SVG/1.1/DTD/svg11.dtd">
<svg xmlns:xlink="http://www.w3.org/1999/xlink" width="568.790312pt" height="207.553125pt" viewBox="0 0 568.790312 207.553125" xmlns="http://www.w3.org/2000/svg" version="1.1">
 <metadata>
  <rdf:RDF xmlns:dc="http://purl.org/dc/elements/1.1/" xmlns:cc="http://creativecommons.org/ns#" xmlns:rdf="http://www.w3.org/1999/02/22-rdf-syntax-ns#">
   <cc:Work>
    <dc:type rdf:resource="http://purl.org/dc/dcmitype/StillImage"/>
    <dc:date>2024-03-27T05:56:00.981033</dc:date>
    <dc:format>image/svg+xml</dc:format>
    <dc:creator>
     <cc:Agent>
      <dc:title>Matplotlib v3.8.3, https://matplotlib.org/</dc:title>
     </cc:Agent>
    </dc:creator>
   </cc:Work>
  </rdf:RDF>
 </metadata>
 <defs>
  <style type="text/css">*{stroke-linejoin: round; stroke-linecap: butt}</style>
 </defs>
 <g id="figure_1">
  <g id="patch_1">
   <path d="M 0 207.553125 
L 568.790312 207.553125 
L 568.790312 0 
L 0 0 
z
" style="fill: #ffffff"/>
  </g>
  <g id="axes_1">
   <g id="patch_2">
    <path d="M 20.220313 183.621875 
L 283.755313 183.621875 
L 283.755313 22.381875 
L 20.220313 22.381875 
z
" style="fill: #ffffff"/>
   </g>
   <g id="matplotlib.axis_1">
    <g id="xtick_1">
     <g id="line2d_1">
      <path d="M 32.199176 183.621875 
L 32.199176 22.381875 
" clip-path="url(#pdbf6f2a1c2)" style="fill: none; stroke-dasharray: 2.22,0.96; stroke-dashoffset: 0; stroke: #6c6066; stroke-opacity: 0.4; stroke-width: 0.6"/>
     </g>
     <g id="line2d_2">
      <defs>
       <path id="m7b9a31312d" d="M 0 0 
L 0 3.5 
" style="stroke: #000000; stroke-width: 0.8"/>
      </defs>
      <g>
       <use xlink:href="#m7b9a31312d" x="32.199176" y="183.621875" style="stroke: #000000; stroke-width: 0.8"/>
      </g>
     </g>
     <g id="text_1">
      <!-- −2 -->
      <g transform="translate(26.178864 198.273437) scale(0.1 -0.1)">
       <defs>
        <path id="DejaVuSansMono-2212" d="M 275 2272 
L 3578 2272 
L 3578 1741 
L 275 1741 
L 275 2272 
z
" transform="scale(0.015625)"/>
        <path id="DejaVuSansMono-32" d="M 1166 531 
L 3309 531 
L 3309 0 
L 475 0 
L 475 531 
Q 1059 1147 1496 1619 
Q 1934 2091 2100 2284 
Q 2413 2666 2522 2902 
Q 2631 3138 2631 3384 
Q 2631 3775 2401 3997 
Q 2172 4219 1772 4219 
Q 1488 4219 1175 4116 
Q 863 4013 513 3803 
L 513 4441 
Q 834 4594 1145 4672 
Q 1456 4750 1759 4750 
Q 2444 4750 2861 4386 
Q 3278 4022 3278 3431 
Q 3278 3131 3139 2831 
Q 3000 2531 2688 2169 
Q 2513 1966 2180 1606 
Q 1847 1247 1166 531 
z
" transform="scale(0.015625)"/>
       </defs>
       <use xlink:href="#DejaVuSansMono-2212"/>
       <use xlink:href="#DejaVuSansMono-32" x="60.205078"/>
      </g>
     </g>
    </g>
    <g id="xtick_2">
     <g id="line2d_3">
      <path d="M 92.093494 183.621875 
L 92.093494 22.381875 
" clip-path="url(#pdbf6f2a1c2)" style="fill: none; stroke-dasharray: 2.22,0.96; stroke-dashoffset: 0; stroke: #6c6066; stroke-opacity: 0.4; stroke-width: 0.6"/>
     </g>
     <g id="line2d_4">
      <g>
       <use xlink:href="#m7b9a31312d" x="92.093494" y="183.621875" style="stroke: #000000; stroke-width: 0.8"/>
      </g>
     </g>
     <g id="text_2">
      <!-- −1 -->
      <g transform="translate(86.073182 198.273437) scale(0.1 -0.1)">
       <defs>
        <path id="DejaVuSansMono-31" d="M 844 531 
L 1825 531 
L 1825 4097 
L 769 3859 
L 769 4434 
L 1819 4666 
L 2450 4666 
L 2450 531 
L 3419 531 
L 3419 0 
L 844 0 
L 844 531 
z
" transform="scale(0.015625)"/>
       </defs>
       <use xlink:href="#DejaVuSansMono-2212"/>
       <use xlink:href="#DejaVuSansMono-31" x="60.205078"/>
      </g>
     </g>
    </g>
    <g id="xtick_3">
     <g id="line2d_5">
      <path d="M 151.987813 183.621875 
L 151.987813 22.381875 
" clip-path="url(#pdbf6f2a1c2)" style="fill: none; stroke-dasharray: 2.22,0.96; stroke-dashoffset: 0; stroke: #6c6066; stroke-opacity: 0.4; stroke-width: 0.6"/>
     </g>
     <g id="line2d_6">
      <g>
       <use xlink:href="#m7b9a31312d" x="151.987813" y="183.621875" style="stroke: #000000; stroke-width: 0.8"/>
      </g>
     </g>
     <g id="text_3">
      <!-- 0 -->
      <g transform="translate(148.977656 198.273437) scale(0.1 -0.1)">
       <defs>
        <path id="DejaVuSansMono-30" d="M 1509 2344 
Q 1509 2516 1629 2641 
Q 1750 2766 1919 2766 
Q 2094 2766 2219 2641 
Q 2344 2516 2344 2344 
Q 2344 2169 2220 2047 
Q 2097 1925 1919 1925 
Q 1744 1925 1626 2044 
Q 1509 2163 1509 2344 
z
M 1925 4250 
Q 1484 4250 1267 3775 
Q 1050 3300 1050 2328 
Q 1050 1359 1267 884 
Q 1484 409 1925 409 
Q 2369 409 2586 884 
Q 2803 1359 2803 2328 
Q 2803 3300 2586 3775 
Q 2369 4250 1925 4250 
z
M 1925 4750 
Q 2672 4750 3055 4137 
Q 3438 3525 3438 2328 
Q 3438 1134 3055 521 
Q 2672 -91 1925 -91 
Q 1178 -91 797 521 
Q 416 1134 416 2328 
Q 416 3525 797 4137 
Q 1178 4750 1925 4750 
z
" transform="scale(0.015625)"/>
       </defs>
       <use xlink:href="#DejaVuSansMono-30"/>
      </g>
     </g>
    </g>
    <g id="xtick_4">
     <g id="line2d_7">
      <path d="M 211.882131 183.621875 
L 211.882131 22.381875 
" clip-path="url(#pdbf6f2a1c2)" style="fill: none; stroke-dasharray: 2.22,0.96; stroke-dashoffset: 0; stroke: #6c6066; stroke-opacity: 0.4; stroke-width: 0.6"/>
     </g>
     <g id="line2d_8">
      <g>
       <use xlink:href="#m7b9a31312d" x="211.882131" y="183.621875" style="stroke: #000000; stroke-width: 0.8"/>
      </g>
     </g>
     <g id="text_4">
      <!-- 1 -->
      <g transform="translate(208.871974 198.273437) scale(0.1 -0.1)">
       <use xlink:href="#DejaVuSansMono-31"/>
      </g>
     </g>
    </g>
    <g id="xtick_5">
     <g id="line2d_9">
      <path d="M 271.776449 183.621875 
L 271.776449 22.381875 
" clip-path="url(#pdbf6f2a1c2)" style="fill: none; stroke-dasharray: 2.22,0.96; stroke-dashoffset: 0; stroke: #6c6066; stroke-opacity: 0.4; stroke-width: 0.6"/>
     </g>
     <g id="line2d_10">
      <g>
       <use xlink:href="#m7b9a31312d" x="271.776449" y="183.621875" style="stroke: #000000; stroke-width: 0.8"/>
      </g>
     </g>
     <g id="text_5">
      <!-- 2 -->
      <g transform="translate(268.766293 198.273437) scale(0.1 -0.1)">
       <use xlink:href="#DejaVuSansMono-32"/>
      </g>
     </g>
    </g>
   </g>
   <g id="matplotlib.axis_2">
    <g id="ytick_1">
     <g id="line2d_11">
      <path d="M 20.220313 176.292784 
L 283.755313 176.292784 
" clip-path="url(#pdbf6f2a1c2)" style="fill: none; stroke-dasharray: 2.22,0.96; stroke-dashoffset: 0; stroke: #6c6066; stroke-opacity: 0.4; stroke-width: 0.6"/>
     </g>
     <g id="line2d_12">
      <defs>
       <path id="m2add5ffca0" d="M 0 0 
L -3.5 0 
" style="stroke: #000000; stroke-width: 0.8"/>
      </defs>
      <g>
       <use xlink:href="#m2add5ffca0" x="20.220313" y="176.292784" style="stroke: #000000; stroke-width: 0.8"/>
      </g>
     </g>
     <g id="text_6">
      <!-- 0 -->
      <g transform="translate(7.2 180.118565) scale(0.1 -0.1)">
       <use xlink:href="#DejaVuSansMono-30"/>
      </g>
     </g>
    </g>
    <g id="ytick_2">
     <g id="line2d_13">
      <path d="M 20.220313 139.64733 
L 283.755313 139.64733 
" clip-path="url(#pdbf6f2a1c2)" style="fill: none; stroke-dasharray: 2.22,0.96; stroke-dashoffset: 0; stroke: #6c6066; stroke-opacity: 0.4; stroke-width: 0.6"/>
     </g>
     <g id="line2d_14">
      <g>
       <use xlink:href="#m2add5ffca0" x="20.220313" y="139.64733" style="stroke: #000000; stroke-width: 0.8"/>
      </g>
     </g>
     <g id="text_7">
      <!-- 2 -->
      <g transform="translate(7.2 143.473111) scale(0.1 -0.1)">
       <use xlink:href="#DejaVuSansMono-32"/>
      </g>
     </g>
    </g>
    <g id="ytick_3">
     <g id="line2d_15">
      <path d="M 20.220313 103.001875 
L 283.755313 103.001875 
" clip-path="url(#pdbf6f2a1c2)" style="fill: none; stroke-dasharray: 2.22,0.96; stroke-dashoffset: 0; stroke: #6c6066; stroke-opacity: 0.4; stroke-width: 0.6"/>
     </g>
     <g id="line2d_16">
      <g>
       <use xlink:href="#m2add5ffca0" x="20.220313" y="103.001875" style="stroke: #000000; stroke-width: 0.8"/>
      </g>
     </g>
     <g id="text_8">
      <!-- 4 -->
      <g transform="translate(7.2 106.827656) scale(0.1 -0.1)">
       <defs>
        <path id="DejaVuSansMono-34" d="M 2297 4091 
L 825 1625 
L 2297 1625 
L 2297 4091 
z
M 2194 4666 
L 2925 4666 
L 2925 1625 
L 3547 1625 
L 3547 1113 
L 2925 1113 
L 2925 0 
L 2297 0 
L 2297 1113 
L 319 1113 
L 319 1709 
L 2194 4666 
z
" transform="scale(0.015625)"/>
       </defs>
       <use xlink:href="#DejaVuSansMono-34"/>
      </g>
     </g>
    </g>
    <g id="ytick_4">
     <g id="line2d_17">
      <path d="M 20.220313 66.35642 
L 283.755313 66.35642 
" clip-path="url(#pdbf6f2a1c2)" style="fill: none; stroke-dasharray: 2.22,0.96; stroke-dashoffset: 0; stroke: #6c6066; stroke-opacity: 0.4; stroke-width: 0.6"/>
     </g>
     <g id="line2d_18">
      <g>
       <use xlink:href="#m2add5ffca0" x="20.220313" y="66.35642" style="stroke: #000000; stroke-width: 0.8"/>
      </g>
     </g>
     <g id="text_9">
      <!-- 6 -->
      <g transform="translate(7.2 70.182202) scale(0.1 -0.1)">
       <defs>
        <path id="DejaVuSansMono-36" d="M 3097 4563 
L 3097 3981 
Q 2900 4097 2678 4158 
Q 2456 4219 2216 4219 
Q 1616 4219 1306 3767 
Q 997 3316 997 2438 
Q 1147 2750 1412 2917 
Q 1678 3084 2022 3084 
Q 2697 3084 3067 2670 
Q 3438 2256 3438 1497 
Q 3438 741 3056 325 
Q 2675 -91 1984 -91 
Q 1172 -91 794 492 
Q 416 1075 416 2328 
Q 416 3509 870 4129 
Q 1325 4750 2188 4750 
Q 2419 4750 2650 4701 
Q 2881 4653 3097 4563 
z
M 1972 2591 
Q 1569 2591 1337 2300 
Q 1106 2009 1106 1497 
Q 1106 984 1337 693 
Q 1569 403 1972 403 
Q 2391 403 2603 679 
Q 2816 956 2816 1497 
Q 2816 2041 2603 2316 
Q 2391 2591 1972 2591 
z
" transform="scale(0.015625)"/>
       </defs>
       <use xlink:href="#DejaVuSansMono-36"/>
      </g>
     </g>
    </g>
    <g id="ytick_5">
     <g id="line2d_19">
      <path d="M 20.220313 29.710966 
L 283.755313 29.710966 
" clip-path="url(#pdbf6f2a1c2)" style="fill: none; stroke-dasharray: 2.22,0.96; stroke-dashoffset: 0; stroke: #6c6066; stroke-opacity: 0.4; stroke-width: 0.6"/>
     </g>
     <g id="line2d_20">
      <g>
       <use xlink:href="#m2add5ffca0" x="20.220313" y="29.710966" style="stroke: #000000; stroke-width: 0.8"/>
      </g>
     </g>
     <g id="text_10">
      <!-- 8 -->
      <g transform="translate(7.2 33.536747) scale(0.1 -0.1)">
       <defs>
        <path id="DejaVuSansMono-38" d="M 1925 2216 
Q 1503 2216 1273 1980 
Q 1044 1744 1044 1313 
Q 1044 881 1276 642 
Q 1509 403 1925 403 
Q 2350 403 2579 639 
Q 2809 875 2809 1313 
Q 2809 1741 2576 1978 
Q 2344 2216 1925 2216 
z
M 1375 2478 
Q 972 2581 745 2862 
Q 519 3144 519 3541 
Q 519 4097 897 4423 
Q 1275 4750 1925 4750 
Q 2578 4750 2956 4423 
Q 3334 4097 3334 3541 
Q 3334 3144 3107 2862 
Q 2881 2581 2478 2478 
Q 2947 2375 3195 2062 
Q 3444 1750 3444 1253 
Q 3444 622 3041 265 
Q 2638 -91 1925 -91 
Q 1213 -91 811 264 
Q 409 619 409 1247 
Q 409 1747 657 2061 
Q 906 2375 1375 2478 
z
M 1147 3481 
Q 1147 3106 1347 2909 
Q 1547 2713 1925 2713 
Q 2306 2713 2506 2909 
Q 2706 3106 2706 3481 
Q 2706 3863 2507 4063 
Q 2309 4263 1925 4263 
Q 1547 4263 1347 4061 
Q 1147 3859 1147 3481 
z
" transform="scale(0.015625)"/>
       </defs>
       <use xlink:href="#DejaVuSansMono-38"/>
      </g>
     </g>
    </g>
   </g>
   <g id="line2d_21">
    <path d="M 32.199176 29.710966 
L 37.088508 35.571797 
L 41.97784 41.188426 
L 46.867172 46.560854 
L 51.756505 51.689081 
L 56.645837 56.573107 
L 61.535169 61.212931 
L 66.424501 65.608554 
L 71.313833 69.759976 
L 76.203165 73.667196 
L 81.092497 77.330215 
L 85.981829 80.749033 
L 90.871161 83.92365 
L 95.760493 86.854065 
L 100.649825 89.540279 
L 105.539158 91.982292 
L 110.42849 94.180104 
L 115.317822 96.133714 
L 120.207154 97.843123 
L 125.096486 99.308331 
L 129.985818 100.529337 
L 134.87515 101.506142 
L 139.764482 102.238746 
L 144.653814 102.727149 
L 149.543146 102.97135 
L 154.432479 102.97135 
L 159.321811 102.727149 
L 164.211143 102.238746 
L 169.100475 101.506142 
L 173.989807 100.529337 
L 178.879139 99.308331 
L 183.768471 97.843123 
L 188.657803 96.133714 
L 193.547135 94.180104 
L 198.436467 91.982292 
L 203.3258 89.540279 
L 208.215132 86.854065 
L 213.104464 83.92365 
L 217.993796 80.749033 
L 222.883128 77.330215 
L 227.77246 73.667196 
L 232.661792 69.759976 
L 237.551124 65.608554 
L 242.440456 61.212931 
L 247.329788 56.573107 
L 252.21912 51.689081 
L 257.108453 46.560854 
L 261.997785 41.188426 
L 266.887117 35.571797 
L 271.776449 29.710966 
" clip-path="url(#pdbf6f2a1c2)" style="fill: none; stroke: #486afb; stroke-width: 2; stroke-linecap: square"/>
   </g>
   <g id="patch_3">
    <path d="M 20.220313 183.621875 
L 20.220313 22.381875 
" style="fill: none; stroke: #000000; stroke-width: 0.6; stroke-linejoin: miter; stroke-linecap: square"/>
   </g>
   <g id="patch_4">
    <path d="M 20.220313 183.621875 
L 283.755313 183.621875 
" style="fill: none; stroke: #000000; stroke-width: 0.6; stroke-linejoin: miter; stroke-linecap: square"/>
   </g>
   <g id="PathCollection_1">
    <defs>
     <path id="ma5dcd489bb" d="M 0 3.535534 
C 0.937635 3.535534 1.836992 3.163008 2.5 2.5 
C 3.163008 1.836992 3.535534 0.937635 3.535534 0 
C 3.535534 -0.937635 3.163008 -1.836992 2.5 -2.5 
C 1.836992 -3.163008 0.937635 -3.535534 0 -3.535534 
C -0.937635 -3.535534 -1.836992 -3.163008 -2.5 -2.5 
C -3.163008 -1.836992 -3.535534 -0.937635 -3.535534 0 
C -3.535534 0.937635 -3.163008 1.836992 -2.5 2.5 
C -1.836992 3.163008 -0.937635 3.535534 0 3.535534 
z
" style="stroke: #fd46fc; stroke-width: 0.2"/>
    </defs>
    <g clip-path="url(#pdbf6f2a1c2)">
     <use xlink:href="#ma5dcd489bb" x="151.987813" y="103.001875" style="fill: #fd46fc; stroke: #fd46fc; stroke-width: 0.2"/>
    </g>
   </g>
   <g id="text_11">
    <g id="patch_5">
     <path d="M 102.337813 130.274602 
L 201.637813 130.274602 
L 201.637813 112.374602 
L 102.337813 112.374602 
z
" style="fill: #ffffff; stroke: #a99ea3; stroke-width: 0.2; stroke-linejoin: miter"/>
    </g>
    <!-- $J '(0) = 0$, $J ''(0)&gt;0$ -->
    <g transform="translate(106.337813 124.174602) scale(0.1 -0.1)">
     <defs>
      <path id="DejaVuSans-Oblique-4a" d="M 1069 4666 
L 1703 4666 
L 856 325 
Q 691 -522 298 -901 
Q -94 -1281 -800 -1281 
L -1050 -1281 
L -947 -750 
L -750 -750 
Q -328 -750 -109 -509 
Q 109 -269 225 325 
L 1069 4666 
z
" transform="scale(0.015625)"/>
      <path id="Cmsy10-30" d="M 225 347 
Q 184 359 184 409 
L 966 3316 
Q 1003 3434 1093 3506 
Q 1184 3578 1300 3578 
Q 1450 3578 1564 3479 
Q 1678 3381 1678 3231 
Q 1678 3166 1644 3084 
L 488 319 
Q 466 275 428 275 
Q 394 275 320 306 
Q 247 338 225 347 
z
" transform="scale(0.015625)"/>
      <path id="DejaVuSans-28" d="M 1984 4856 
Q 1566 4138 1362 3434 
Q 1159 2731 1159 2009 
Q 1159 1288 1364 580 
Q 1569 -128 1984 -844 
L 1484 -844 
Q 1016 -109 783 600 
Q 550 1309 550 2009 
Q 550 2706 781 3412 
Q 1013 4119 1484 4856 
L 1984 4856 
z
" transform="scale(0.015625)"/>
      <path id="DejaVuSans-30" d="M 2034 4250 
Q 1547 4250 1301 3770 
Q 1056 3291 1056 2328 
Q 1056 1369 1301 889 
Q 1547 409 2034 409 
Q 2525 409 2770 889 
Q 3016 1369 3016 2328 
Q 3016 3291 2770 3770 
Q 2525 4250 2034 4250 
z
M 2034 4750 
Q 2819 4750 3233 4129 
Q 3647 3509 3647 2328 
Q 3647 1150 3233 529 
Q 2819 -91 2034 -91 
Q 1250 -91 836 529 
Q 422 1150 422 2328 
Q 422 3509 836 4129 
Q 1250 4750 2034 4750 
z
" transform="scale(0.015625)"/>
      <path id="DejaVuSans-29" d="M 513 4856 
L 1013 4856 
Q 1481 4119 1714 3412 
Q 1947 2706 1947 2009 
Q 1947 1309 1714 600 
Q 1481 -109 1013 -844 
L 513 -844 
Q 928 -128 1133 580 
Q 1338 1288 1338 2009 
Q 1338 2731 1133 3434 
Q 928 4138 513 4856 
z
" transform="scale(0.015625)"/>
      <path id="DejaVuSans-3d" d="M 678 2906 
L 4684 2906 
L 4684 2381 
L 678 2381 
L 678 2906 
z
M 678 1631 
L 4684 1631 
L 4684 1100 
L 678 1100 
L 678 1631 
z
" transform="scale(0.015625)"/>
      <path id="DejaVuSansMono-2c" d="M 1569 947 
L 2356 947 
L 2356 300 
L 1741 -897 
L 1259 -897 
L 1569 300 
L 1569 947 
z
" transform="scale(0.015625)"/>
      <path id="DejaVuSansMono-20" transform="scale(0.015625)"/>
      <path id="DejaVuSans-3e" d="M 678 3150 
L 678 3719 
L 4684 2266 
L 4684 1747 
L 678 294 
L 678 863 
L 3897 2003 
L 678 3150 
z
" transform="scale(0.015625)"/>
     </defs>
     <use xlink:href="#DejaVuSans-Oblique-4a" transform="translate(0 0.584375)"/>
     <use xlink:href="#Cmsy10-30" transform="translate(36.508958 38.865625) scale(0.7)"/>
     <use xlink:href="#DejaVuSans-28" transform="translate(58.486497 0.584375)"/>
     <use xlink:href="#DejaVuSans-30" transform="translate(97.500169 0.584375)"/>
     <use xlink:href="#DejaVuSans-29" transform="translate(161.123216 0.584375)"/>
     <use xlink:href="#DejaVuSans-3d" transform="translate(219.61931 0.584375)"/>
     <use xlink:href="#DejaVuSans-30" transform="translate(322.890794 0.584375)"/>
     <use xlink:href="#DejaVuSansMono-2c" transform="translate(386.513841 0.584375)"/>
     <use xlink:href="#DejaVuSansMono-20" transform="translate(446.718919 0.584375)"/>
     <use xlink:href="#DejaVuSans-Oblique-4a" transform="translate(506.923997 0.584375)"/>
     <use xlink:href="#Cmsy10-30" transform="translate(543.432956 38.865625) scale(0.7)"/>
     <use xlink:href="#Cmsy10-30" transform="translate(562.67612 38.865625) scale(0.7)"/>
     <use xlink:href="#DejaVuSans-28" transform="translate(584.653659 0.584375)"/>
     <use xlink:href="#DejaVuSans-30" transform="translate(623.667331 0.584375)"/>
     <use xlink:href="#DejaVuSans-29" transform="translate(687.290378 0.584375)"/>
     <use xlink:href="#DejaVuSans-3e" transform="translate(745.786471 0.584375)"/>
     <use xlink:href="#DejaVuSans-30" transform="translate(849.057956 0.584375)"/>
    </g>
   </g>
   <g id="text_12">
    <!-- convex $\Rightarrow$ minimizer -->
    <g transform="translate(83.167813 16.381875) scale(0.12 -0.12)">
     <defs>
      <path id="DejaVuSansMono-63" d="M 3316 178 
Q 3084 44 2839 -23 
Q 2594 -91 2338 -91 
Q 1525 -91 1067 396 
Q 609 884 609 1747 
Q 609 2609 1067 3096 
Q 1525 3584 2338 3584 
Q 2591 3584 2831 3518 
Q 3072 3453 3316 3316 
L 3316 2713 
Q 3088 2916 2858 3006 
Q 2628 3097 2338 3097 
Q 1797 3097 1506 2747 
Q 1216 2397 1216 1747 
Q 1216 1100 1508 748 
Q 1800 397 2338 397 
Q 2638 397 2875 489 
Q 3113 581 3316 775 
L 3316 178 
z
" transform="scale(0.015625)"/>
      <path id="DejaVuSansMono-6f" d="M 1925 3097 
Q 1488 3097 1263 2756 
Q 1038 2416 1038 1747 
Q 1038 1081 1263 739 
Q 1488 397 1925 397 
Q 2366 397 2591 739 
Q 2816 1081 2816 1747 
Q 2816 2416 2591 2756 
Q 2366 3097 1925 3097 
z
M 1925 3584 
Q 2653 3584 3039 3112 
Q 3425 2641 3425 1747 
Q 3425 850 3040 379 
Q 2656 -91 1925 -91 
Q 1197 -91 812 379 
Q 428 850 428 1747 
Q 428 2641 812 3112 
Q 1197 3584 1925 3584 
z
" transform="scale(0.015625)"/>
      <path id="DejaVuSansMono-6e" d="M 3284 2169 
L 3284 0 
L 2706 0 
L 2706 2169 
Q 2706 2641 2540 2862 
Q 2375 3084 2022 3084 
Q 1619 3084 1401 2798 
Q 1184 2513 1184 1978 
L 1184 0 
L 609 0 
L 609 3500 
L 1184 3500 
L 1184 2975 
Q 1338 3275 1600 3429 
Q 1863 3584 2222 3584 
Q 2756 3584 3020 3232 
Q 3284 2881 3284 2169 
z
" transform="scale(0.015625)"/>
      <path id="DejaVuSansMono-76" d="M 313 3500 
L 909 3500 
L 1925 563 
L 2944 3500 
L 3541 3500 
L 2297 0 
L 1556 0 
L 313 3500 
z
" transform="scale(0.015625)"/>
      <path id="DejaVuSansMono-65" d="M 3475 1894 
L 3475 1613 
L 984 1613 
L 984 1594 
Q 984 1022 1282 709 
Q 1581 397 2125 397 
Q 2400 397 2700 484 
Q 3000 572 3341 750 
L 3341 178 
Q 3013 44 2708 -23 
Q 2403 -91 2119 -91 
Q 1303 -91 843 398 
Q 384 888 384 1747 
Q 384 2584 834 3084 
Q 1284 3584 2034 3584 
Q 2703 3584 3089 3131 
Q 3475 2678 3475 1894 
z
M 2900 2063 
Q 2888 2569 2661 2833 
Q 2434 3097 2009 3097 
Q 1594 3097 1325 2822 
Q 1056 2547 1006 2059 
L 2900 2063 
z
" transform="scale(0.015625)"/>
      <path id="DejaVuSansMono-78" d="M 3494 3500 
L 2241 1825 
L 3616 0 
L 2950 0 
L 1925 1403 
L 903 0 
L 238 0 
L 1613 1825 
L 359 3500 
L 997 3500 
L 1925 2234 
L 2847 3500 
L 3494 3500 
z
" transform="scale(0.015625)"/>
      <path id="DejaVuSans-21d2" d="M 4113 1678 
L 4441 2006 
L 4113 2334 
L 366 2334 
L 366 2709 
L 3738 2709 
L 3447 3000 
L 3822 3375 
L 5050 2147 
L 5050 1866 
L 3822 638 
L 3447 1013 
L 3738 1303 
L 366 1303 
L 366 1678 
L 4113 1678 
z
" transform="scale(0.015625)"/>
      <path id="DejaVuSansMono-6d" d="M 2113 3144 
Q 2219 3369 2383 3476 
Q 2547 3584 2778 3584 
Q 3200 3584 3373 3257 
Q 3547 2931 3547 2028 
L 3547 0 
L 3022 0 
L 3022 2003 
Q 3022 2744 2939 2923 
Q 2856 3103 2638 3103 
Q 2388 3103 2295 2911 
Q 2203 2719 2203 2003 
L 2203 0 
L 1678 0 
L 1678 2003 
Q 1678 2753 1589 2928 
Q 1500 3103 1269 3103 
Q 1041 3103 952 2911 
Q 863 2719 863 2003 
L 863 0 
L 341 0 
L 341 3500 
L 863 3500 
L 863 3200 
Q 966 3388 1120 3486 
Q 1275 3584 1472 3584 
Q 1709 3584 1867 3475 
Q 2025 3366 2113 3144 
z
" transform="scale(0.015625)"/>
      <path id="DejaVuSansMono-69" d="M 800 3500 
L 2272 3500 
L 2272 447 
L 3413 447 
L 3413 0 
L 556 0 
L 556 447 
L 1697 447 
L 1697 3053 
L 800 3053 
L 800 3500 
z
M 1697 4863 
L 2272 4863 
L 2272 4134 
L 1697 4134 
L 1697 4863 
z
" transform="scale(0.015625)"/>
      <path id="DejaVuSansMono-7a" d="M 709 3506 
L 3250 3506 
L 3250 2981 
L 1241 469 
L 3250 469 
L 3250 0 
L 634 0 
L 634 531 
L 2644 3047 
L 709 3047 
L 709 3506 
z
" transform="scale(0.015625)"/>
      <path id="DejaVuSansMono-72" d="M 3609 2778 
Q 3425 2922 3234 2987 
Q 3044 3053 2816 3053 
Q 2278 3053 1993 2715 
Q 1709 2378 1709 1741 
L 1709 0 
L 1131 0 
L 1131 3500 
L 1709 3500 
L 1709 2816 
Q 1853 3188 2151 3386 
Q 2450 3584 2859 3584 
Q 3072 3584 3256 3531 
Q 3441 3478 3609 3366 
L 3609 2778 
z
" transform="scale(0.015625)"/>
     </defs>
     <use xlink:href="#DejaVuSansMono-63" transform="translate(0 0.015625)"/>
     <use xlink:href="#DejaVuSansMono-6f" transform="translate(60.205078 0.015625)"/>
     <use xlink:href="#DejaVuSansMono-6e" transform="translate(120.410156 0.015625)"/>
     <use xlink:href="#DejaVuSansMono-76" transform="translate(180.615234 0.015625)"/>
     <use xlink:href="#DejaVuSansMono-65" transform="translate(240.820312 0.015625)"/>
     <use xlink:href="#DejaVuSansMono-78" transform="translate(301.025391 0.015625)"/>
     <use xlink:href="#DejaVuSansMono-20" transform="translate(361.230469 0.015625)"/>
     <use xlink:href="#DejaVuSans-21d2" transform="translate(440.917969 0.015625)"/>
     <use xlink:href="#DejaVuSansMono-20" transform="translate(544.189453 0.015625)"/>
     <use xlink:href="#DejaVuSansMono-6d" transform="translate(604.394531 0.015625)"/>
     <use xlink:href="#DejaVuSansMono-69" transform="translate(664.599609 0.015625)"/>
     <use xlink:href="#DejaVuSansMono-6e" transform="translate(724.804688 0.015625)"/>
     <use xlink:href="#DejaVuSansMono-69" transform="translate(785.009766 0.015625)"/>
     <use xlink:href="#DejaVuSansMono-6d" transform="translate(845.214844 0.015625)"/>
     <use xlink:href="#DejaVuSansMono-69" transform="translate(905.419922 0.015625)"/>
     <use xlink:href="#DejaVuSansMono-7a" transform="translate(965.625 0.015625)"/>
     <use xlink:href="#DejaVuSansMono-65" transform="translate(1025.830078 0.015625)"/>
     <use xlink:href="#DejaVuSansMono-72" transform="translate(1086.035156 0.015625)"/>
    </g>
   </g>
  </g>
  <g id="axes_2">
   <g id="patch_6">
    <path d="M 298.055312 183.621875 
L 561.590312 183.621875 
L 561.590312 22.381875 
L 298.055312 22.381875 
z
" style="fill: #ffffff"/>
   </g>
   <g id="matplotlib.axis_3">
    <g id="xtick_6">
     <g id="line2d_22">
      <path d="M 310.034176 183.621875 
L 310.034176 22.381875 
" clip-path="url(#p1399aabc35)" style="fill: none; stroke-dasharray: 2.22,0.96; stroke-dashoffset: 0; stroke: #6c6066; stroke-opacity: 0.4; stroke-width: 0.6"/>
     </g>
     <g id="line2d_23">
      <g>
       <use xlink:href="#m7b9a31312d" x="310.034176" y="183.621875" style="stroke: #000000; stroke-width: 0.8"/>
      </g>
     </g>
     <g id="text_13">
      <!-- −2 -->
      <g transform="translate(304.013864 198.273437) scale(0.1 -0.1)">
       <use xlink:href="#DejaVuSansMono-2212"/>
       <use xlink:href="#DejaVuSansMono-32" x="60.205078"/>
      </g>
     </g>
    </g>
    <g id="xtick_7">
     <g id="line2d_24">
      <path d="M 369.928494 183.621875 
L 369.928494 22.381875 
" clip-path="url(#p1399aabc35)" style="fill: none; stroke-dasharray: 2.22,0.96; stroke-dashoffset: 0; stroke: #6c6066; stroke-opacity: 0.4; stroke-width: 0.6"/>
     </g>
     <g id="line2d_25">
      <g>
       <use xlink:href="#m7b9a31312d" x="369.928494" y="183.621875" style="stroke: #000000; stroke-width: 0.8"/>
      </g>
     </g>
     <g id="text_14">
      <!-- −1 -->
      <g transform="translate(363.908182 198.273437) scale(0.1 -0.1)">
       <use xlink:href="#DejaVuSansMono-2212"/>
       <use xlink:href="#DejaVuSansMono-31" x="60.205078"/>
      </g>
     </g>
    </g>
    <g id="xtick_8">
     <g id="line2d_26">
      <path d="M 429.822812 183.621875 
L 429.822812 22.381875 
" clip-path="url(#p1399aabc35)" style="fill: none; stroke-dasharray: 2.22,0.96; stroke-dashoffset: 0; stroke: #6c6066; stroke-opacity: 0.4; stroke-width: 0.6"/>
     </g>
     <g id="line2d_27">
      <g>
       <use xlink:href="#m7b9a31312d" x="429.822812" y="183.621875" style="stroke: #000000; stroke-width: 0.8"/>
      </g>
     </g>
     <g id="text_15">
      <!-- 0 -->
      <g transform="translate(426.812656 198.273437) scale(0.1 -0.1)">
       <use xlink:href="#DejaVuSansMono-30"/>
      </g>
     </g>
    </g>
    <g id="xtick_9">
     <g id="line2d_28">
      <path d="M 489.717131 183.621875 
L 489.717131 22.381875 
" clip-path="url(#p1399aabc35)" style="fill: none; stroke-dasharray: 2.22,0.96; stroke-dashoffset: 0; stroke: #6c6066; stroke-opacity: 0.4; stroke-width: 0.6"/>
     </g>
     <g id="line2d_29">
      <g>
       <use xlink:href="#m7b9a31312d" x="489.717131" y="183.621875" style="stroke: #000000; stroke-width: 0.8"/>
      </g>
     </g>
     <g id="text_16">
      <!-- 1 -->
      <g transform="translate(486.706974 198.273437) scale(0.1 -0.1)">
       <use xlink:href="#DejaVuSansMono-31"/>
      </g>
     </g>
    </g>
    <g id="xtick_10">
     <g id="line2d_30">
      <path d="M 549.611449 183.621875 
L 549.611449 22.381875 
" clip-path="url(#p1399aabc35)" style="fill: none; stroke-dasharray: 2.22,0.96; stroke-dashoffset: 0; stroke: #6c6066; stroke-opacity: 0.4; stroke-width: 0.6"/>
     </g>
     <g id="line2d_31">
      <g>
       <use xlink:href="#m7b9a31312d" x="549.611449" y="183.621875" style="stroke: #000000; stroke-width: 0.8"/>
      </g>
     </g>
     <g id="text_17">
      <!-- 2 -->
      <g transform="translate(546.601293 198.273437) scale(0.1 -0.1)">
       <use xlink:href="#DejaVuSansMono-32"/>
      </g>
     </g>
    </g>
   </g>
   <g id="matplotlib.axis_4">
    <g id="ytick_6">
     <g id="line2d_32">
      <path d="M 298.055312 176.292784 
L 561.590312 176.292784 
" clip-path="url(#p1399aabc35)" style="fill: none; stroke-dasharray: 2.22,0.96; stroke-dashoffset: 0; stroke: #6c6066; stroke-opacity: 0.4; stroke-width: 0.6"/>
     </g>
     <g id="line2d_33">
      <g>
       <use xlink:href="#m2add5ffca0" x="298.055312" y="176.292784" style="stroke: #000000; stroke-width: 0.8"/>
      </g>
     </g>
    </g>
    <g id="ytick_7">
     <g id="line2d_34">
      <path d="M 298.055312 139.64733 
L 561.590312 139.64733 
" clip-path="url(#p1399aabc35)" style="fill: none; stroke-dasharray: 2.22,0.96; stroke-dashoffset: 0; stroke: #6c6066; stroke-opacity: 0.4; stroke-width: 0.6"/>
     </g>
     <g id="line2d_35">
      <g>
       <use xlink:href="#m2add5ffca0" x="298.055312" y="139.64733" style="stroke: #000000; stroke-width: 0.8"/>
      </g>
     </g>
    </g>
    <g id="ytick_8">
     <g id="line2d_36">
      <path d="M 298.055312 103.001875 
L 561.590312 103.001875 
" clip-path="url(#p1399aabc35)" style="fill: none; stroke-dasharray: 2.22,0.96; stroke-dashoffset: 0; stroke: #6c6066; stroke-opacity: 0.4; stroke-width: 0.6"/>
     </g>
     <g id="line2d_37">
      <g>
       <use xlink:href="#m2add5ffca0" x="298.055312" y="103.001875" style="stroke: #000000; stroke-width: 0.8"/>
      </g>
     </g>
    </g>
    <g id="ytick_9">
     <g id="line2d_38">
      <path d="M 298.055312 66.35642 
L 561.590312 66.35642 
" clip-path="url(#p1399aabc35)" style="fill: none; stroke-dasharray: 2.22,0.96; stroke-dashoffset: 0; stroke: #6c6066; stroke-opacity: 0.4; stroke-width: 0.6"/>
     </g>
     <g id="line2d_39">
      <g>
       <use xlink:href="#m2add5ffca0" x="298.055312" y="66.35642" style="stroke: #000000; stroke-width: 0.8"/>
      </g>
     </g>
    </g>
    <g id="ytick_10">
     <g id="line2d_40">
      <path d="M 298.055312 29.710966 
L 561.590312 29.710966 
" clip-path="url(#p1399aabc35)" style="fill: none; stroke-dasharray: 2.22,0.96; stroke-dashoffset: 0; stroke: #6c6066; stroke-opacity: 0.4; stroke-width: 0.6"/>
     </g>
     <g id="line2d_41">
      <g>
       <use xlink:href="#m2add5ffca0" x="298.055312" y="29.710966" style="stroke: #000000; stroke-width: 0.8"/>
      </g>
     </g>
    </g>
   </g>
   <g id="line2d_42">
    <path d="M 310.034176 176.292784 
L 314.923508 170.431953 
L 319.81284 164.815324 
L 324.702172 159.442896 
L 329.591505 154.314669 
L 334.480837 149.430643 
L 339.370169 144.790819 
L 344.259501 140.395196 
L 349.148833 136.243774 
L 354.038165 132.336554 
L 358.927497 128.673535 
L 363.816829 125.254717 
L 368.706161 122.0801 
L 373.595493 119.149685 
L 378.484825 116.463471 
L 383.374158 114.021458 
L 388.26349 111.823646 
L 393.152822 109.870036 
L 398.042154 108.160627 
L 402.931486 106.695419 
L 407.820818 105.474413 
L 412.71015 104.497608 
L 417.599482 103.765004 
L 422.488814 103.276601 
L 427.378146 103.0324 
L 432.267479 103.0324 
L 437.156811 103.276601 
L 442.046143 103.765004 
L 446.935475 104.497608 
L 451.824807 105.474413 
L 456.714139 106.695419 
L 461.603471 108.160627 
L 466.492803 109.870036 
L 471.382135 111.823646 
L 476.271467 114.021458 
L 481.1608 116.463471 
L 486.050132 119.149685 
L 490.939464 122.0801 
L 495.828796 125.254717 
L 500.718128 128.673535 
L 505.60746 132.336554 
L 510.496792 136.243774 
L 515.386124 140.395196 
L 520.275456 144.790819 
L 525.164788 149.430643 
L 530.05412 154.314669 
L 534.943453 159.442896 
L 539.832785 164.815324 
L 544.722117 170.431953 
L 549.611449 176.292784 
" clip-path="url(#p1399aabc35)" style="fill: none; stroke: #486afb; stroke-width: 2; stroke-linecap: square"/>
   </g>
   <g id="patch_7">
    <path d="M 298.055312 183.621875 
L 298.055312 22.381875 
" style="fill: none; stroke: #000000; stroke-width: 0.6; stroke-linejoin: miter; stroke-linecap: square"/>
   </g>
   <g id="patch_8">
    <path d="M 298.055313 183.621875 
L 561.590312 183.621875 
" style="fill: none; stroke: #000000; stroke-width: 0.6; stroke-linejoin: miter; stroke-linecap: square"/>
   </g>
   <g id="PathCollection_2">
    <g clip-path="url(#p1399aabc35)">
     <use xlink:href="#ma5dcd489bb" x="429.822812" y="103.001875" style="fill: #fd46fc; stroke: #fd46fc; stroke-width: 0.2"/>
    </g>
   </g>
   <g id="text_18">
    <g id="patch_9">
     <path d="M 380.172812 93.629148 
L 479.472812 93.629148 
L 479.472812 75.729148 
L 380.172812 75.729148 
z
" style="fill: #ffffff; stroke: #a99ea3; stroke-width: 0.2; stroke-linejoin: miter"/>
    </g>
    <!-- $J '(0) = 0$, $J ''(0)&lt;0$ -->
    <g transform="translate(384.172812 87.529148) scale(0.1 -0.1)">
     <defs>
      <path id="DejaVuSans-3c" d="M 4684 3150 
L 1459 2003 
L 4684 863 
L 4684 294 
L 678 1747 
L 678 2266 
L 4684 3719 
L 4684 3150 
z
" transform="scale(0.015625)"/>
     </defs>
     <use xlink:href="#DejaVuSans-Oblique-4a" transform="translate(0 0.584375)"/>
     <use xlink:href="#Cmsy10-30" transform="translate(36.508958 38.865625) scale(0.7)"/>
     <use xlink:href="#DejaVuSans-28" transform="translate(58.486497 0.584375)"/>
     <use xlink:href="#DejaVuSans-30" transform="translate(97.500169 0.584375)"/>
     <use xlink:href="#DejaVuSans-29" transform="translate(161.123216 0.584375)"/>
     <use xlink:href="#DejaVuSans-3d" transform="translate(219.61931 0.584375)"/>
     <use xlink:href="#DejaVuSans-30" transform="translate(322.890794 0.584375)"/>
     <use xlink:href="#DejaVuSansMono-2c" transform="translate(386.513841 0.584375)"/>
     <use xlink:href="#DejaVuSansMono-20" transform="translate(446.718919 0.584375)"/>
     <use xlink:href="#DejaVuSans-Oblique-4a" transform="translate(506.923997 0.584375)"/>
     <use xlink:href="#Cmsy10-30" transform="translate(543.432956 38.865625) scale(0.7)"/>
     <use xlink:href="#Cmsy10-30" transform="translate(562.67612 38.865625) scale(0.7)"/>
     <use xlink:href="#DejaVuSans-28" transform="translate(584.653659 0.584375)"/>
     <use xlink:href="#DejaVuSans-30" transform="translate(623.667331 0.584375)"/>
     <use xlink:href="#DejaVuSans-29" transform="translate(687.290378 0.584375)"/>
     <use xlink:href="#DejaVuSans-3c" transform="translate(745.786471 0.584375)"/>
     <use xlink:href="#DejaVuSans-30" transform="translate(849.057956 0.584375)"/>
    </g>
   </g>
   <g id="text_19">
    <!-- concave $\Rightarrow$ maximizer -->
    <g transform="translate(357.402812 16.381875) scale(0.12 -0.12)">
     <defs>
      <path id="DejaVuSansMono-61" d="M 2194 1759 
L 2003 1759 
Q 1500 1759 1245 1582 
Q 991 1406 991 1056 
Q 991 741 1181 566 
Q 1372 391 1709 391 
Q 2184 391 2456 720 
Q 2728 1050 2731 1631 
L 2731 1759 
L 2194 1759 
z
M 3309 1997 
L 3309 0 
L 2731 0 
L 2731 519 
Q 2547 206 2267 57 
Q 1988 -91 1588 -91 
Q 1053 -91 734 211 
Q 416 513 416 1019 
Q 416 1603 808 1906 
Q 1200 2209 1959 2209 
L 2731 2209 
L 2731 2300 
Q 2728 2719 2518 2908 
Q 2309 3097 1850 3097 
Q 1556 3097 1256 3012 
Q 956 2928 672 2766 
L 672 3341 
Q 991 3463 1283 3523 
Q 1575 3584 1850 3584 
Q 2284 3584 2592 3456 
Q 2900 3328 3091 3072 
Q 3209 2916 3259 2686 
Q 3309 2456 3309 1997 
z
" transform="scale(0.015625)"/>
     </defs>
     <use xlink:href="#DejaVuSansMono-63" transform="translate(0 0.015625)"/>
     <use xlink:href="#DejaVuSansMono-6f" transform="translate(60.205078 0.015625)"/>
     <use xlink:href="#DejaVuSansMono-6e" transform="translate(120.410156 0.015625)"/>
     <use xlink:href="#DejaVuSansMono-63" transform="translate(180.615234 0.015625)"/>
     <use xlink:href="#DejaVuSansMono-61" transform="translate(240.820312 0.015625)"/>
     <use xlink:href="#DejaVuSansMono-76" transform="translate(301.025391 0.015625)"/>
     <use xlink:href="#DejaVuSansMono-65" transform="translate(361.230469 0.015625)"/>
     <use xlink:href="#DejaVuSansMono-20" transform="translate(421.435547 0.015625)"/>
     <use xlink:href="#DejaVuSans-21d2" transform="translate(501.123047 0.015625)"/>
     <use xlink:href="#DejaVuSansMono-20" transform="translate(604.394531 0.015625)"/>
     <use xlink:href="#DejaVuSansMono-6d" transform="translate(664.599609 0.015625)"/>
     <use xlink:href="#DejaVuSansMono-61" transform="translate(724.804688 0.015625)"/>
     <use xlink:href="#DejaVuSansMono-78" transform="translate(785.009766 0.015625)"/>
     <use xlink:href="#DejaVuSansMono-69" transform="translate(845.214844 0.015625)"/>
     <use xlink:href="#DejaVuSansMono-6d" transform="translate(905.419922 0.015625)"/>
     <use xlink:href="#DejaVuSansMono-69" transform="translate(965.625 0.015625)"/>
     <use xlink:href="#DejaVuSansMono-7a" transform="translate(1025.830078 0.015625)"/>
     <use xlink:href="#DejaVuSansMono-65" transform="translate(1086.035156 0.015625)"/>
     <use xlink:href="#DejaVuSansMono-72" transform="translate(1146.240234 0.015625)"/>
    </g>
   </g>
  </g>
 </g>
 <defs>
  <clipPath id="pdbf6f2a1c2">
   <rect x="20.220313" y="22.381875" width="263.535" height="161.24"/>
  </clipPath>
  <clipPath id="p1399aabc35">
   <rect x="298.055312" y="22.381875" width="263.535" height="161.24"/>
  </clipPath>
 </defs>
</svg>