<?xml version="1.0" encoding="utf-8" standalone="no"?>
<!DOCTYPE svg PUBLIC "-//W3C//DTD SVG 1.1//EN"
  "http://www.w3.org/Graphics/SVG/1.1/DTD/svg11.dtd">
<svg xmlns:xlink="http://www.w3.org/1999/xlink" width="450.351875pt" height="336.9825pt" viewBox="0 0 450.351875 336.9825" xmlns="http://www.w3.org/2000/svg" version="1.1">
 <metadata>
  <rdf:RDF xmlns:dc="http://purl.org/dc/elements/1.1/" xmlns:cc="http://creativecommons.org/ns#" xmlns:rdf="http://www.w3.org/1999/02/22-rdf-syntax-ns#">
   <cc:Work>
    <dc:type rdf:resource="http://purl.org/dc/dcmitype/StillImage"/>
    <dc:date>2023-12-02T08:03:17.943466</dc:date>
    <dc:format>image/svg+xml</dc:format>
    <dc:creator>
     <cc:Agent>
      <dc:title>Matplotlib v3.8.2, https://matplotlib.org/</dc:title>
     </cc:Agent>
    </dc:creator>
   </cc:Work>
  </rdf:RDF>
 </metadata>
 <defs>
  <style type="text/css">*{stroke-linejoin: round; stroke-linecap: butt}</style>
 </defs>
 <g id="figure_1">
  <g id="patch_1">
   <path d="M 0 336.9825 
L 450.351875 336.9825 
L 450.351875 0 
L 0 0 
z
" style="fill: #ffffff"/>
  </g>
  <g id="axes_1">
   <g id="patch_2">
    <path d="M 39.971875 299.32 
L 443.151875 299.32 
L 443.151875 7.2 
L 39.971875 7.2 
z
" style="fill: #ffffff"/>
   </g>
   <g id="matplotlib.axis_1">
    <g id="xtick_1">
     <g id="line2d_1">
      <path d="M 58.298239 299.32 
L 58.298239 7.2 
" clip-path="url(#p2b823ab769)" style="fill: none; stroke-dasharray: 2.22,0.96; stroke-dashoffset: 0; stroke: #6c6066; stroke-opacity: 0.4; stroke-width: 0.6"/>
     </g>
     <g id="line2d_2">
      <defs>
       <path id="m4f1be338c3" d="M 0 0 
L 0 3.5 
" style="stroke: #000000; stroke-width: 0.8"/>
      </defs>
      <g>
       <use xlink:href="#m4f1be338c3" x="58.298239" y="299.32" style="stroke: #000000; stroke-width: 0.8"/>
      </g>
     </g>
     <g id="text_1">
      <!-- −0.5 -->
      <g transform="translate(46.257614 313.971562) scale(0.1 -0.1)">
       <defs>
        <path id="DejaVuSansMono-2212" d="M 275 2272 
L 3578 2272 
L 3578 1741 
L 275 1741 
L 275 2272 
z
" transform="scale(0.015625)"/>
        <path id="DejaVuSansMono-30" d="M 1509 2344 
Q 1509 2516 1629 2641 
Q 1750 2766 1919 2766 
Q 2094 2766 2219 2641 
Q 2344 2516 2344 2344 
Q 2344 2169 2220 2047 
Q 2097 1925 1919 1925 
Q 1744 1925 1626 2044 
Q 1509 2163 1509 2344 
z
M 1925 4250 
Q 1484 4250 1267 3775 
Q 1050 3300 1050 2328 
Q 1050 1359 1267 884 
Q 1484 409 1925 409 
Q 2369 409 2586 884 
Q 2803 1359 2803 2328 
Q 2803 3300 2586 3775 
Q 2369 4250 1925 4250 
z
M 1925 4750 
Q 2672 4750 3055 4137 
Q 3438 3525 3438 2328 
Q 3438 1134 3055 521 
Q 2672 -91 1925 -91 
Q 1178 -91 797 521 
Q 416 1134 416 2328 
Q 416 3525 797 4137 
Q 1178 4750 1925 4750 
z
" transform="scale(0.015625)"/>
        <path id="DejaVuSansMono-2e" d="M 1528 953 
L 2316 953 
L 2316 0 
L 1528 0 
L 1528 953 
z
" transform="scale(0.015625)"/>
        <path id="DejaVuSansMono-35" d="M 647 4666 
L 3009 4666 
L 3009 4134 
L 1222 4134 
L 1222 2988 
Q 1356 3038 1492 3061 
Q 1628 3084 1766 3084 
Q 2491 3084 2916 2656 
Q 3341 2228 3341 1497 
Q 3341 759 2895 334 
Q 2450 -91 1678 -91 
Q 1306 -91 998 -41 
Q 691 9 447 109 
L 447 750 
Q 734 594 1025 517 
Q 1316 441 1619 441 
Q 2141 441 2423 716 
Q 2706 991 2706 1497 
Q 2706 1997 2414 2275 
Q 2122 2553 1600 2553 
Q 1347 2553 1106 2495 
Q 866 2438 647 2322 
L 647 4666 
z
" transform="scale(0.015625)"/>
       </defs>
       <use xlink:href="#DejaVuSansMono-2212"/>
       <use xlink:href="#DejaVuSansMono-30" x="60.205078"/>
       <use xlink:href="#DejaVuSansMono-2e" x="120.410156"/>
       <use xlink:href="#DejaVuSansMono-35" x="180.615234"/>
      </g>
     </g>
    </g>
    <g id="xtick_2">
     <g id="line2d_3">
      <path d="M 104.114148 299.32 
L 104.114148 7.2 
" clip-path="url(#p2b823ab769)" style="fill: none; stroke-dasharray: 2.22,0.96; stroke-dashoffset: 0; stroke: #6c6066; stroke-opacity: 0.4; stroke-width: 0.6"/>
     </g>
     <g id="line2d_4">
      <g>
       <use xlink:href="#m4f1be338c3" x="104.114148" y="299.32" style="stroke: #000000; stroke-width: 0.8"/>
      </g>
     </g>
     <g id="text_2">
      <!-- 0.0 -->
      <g transform="translate(95.083679 313.971562) scale(0.1 -0.1)">
       <use xlink:href="#DejaVuSansMono-30"/>
       <use xlink:href="#DejaVuSansMono-2e" x="60.205078"/>
       <use xlink:href="#DejaVuSansMono-30" x="120.410156"/>
      </g>
     </g>
    </g>
    <g id="xtick_3">
     <g id="line2d_5">
      <path d="M 149.930057 299.32 
L 149.930057 7.2 
" clip-path="url(#p2b823ab769)" style="fill: none; stroke-dasharray: 2.22,0.96; stroke-dashoffset: 0; stroke: #6c6066; stroke-opacity: 0.4; stroke-width: 0.6"/>
     </g>
     <g id="line2d_6">
      <g>
       <use xlink:href="#m4f1be338c3" x="149.930057" y="299.32" style="stroke: #000000; stroke-width: 0.8"/>
      </g>
     </g>
     <g id="text_3">
      <!-- 0.5 -->
      <g transform="translate(140.899588 313.971562) scale(0.1 -0.1)">
       <use xlink:href="#DejaVuSansMono-30"/>
       <use xlink:href="#DejaVuSansMono-2e" x="60.205078"/>
       <use xlink:href="#DejaVuSansMono-35" x="120.410156"/>
      </g>
     </g>
    </g>
    <g id="xtick_4">
     <g id="line2d_7">
      <path d="M 195.745966 299.32 
L 195.745966 7.2 
" clip-path="url(#p2b823ab769)" style="fill: none; stroke-dasharray: 2.22,0.96; stroke-dashoffset: 0; stroke: #6c6066; stroke-opacity: 0.4; stroke-width: 0.6"/>
     </g>
     <g id="line2d_8">
      <g>
       <use xlink:href="#m4f1be338c3" x="195.745966" y="299.32" style="stroke: #000000; stroke-width: 0.8"/>
      </g>
     </g>
     <g id="text_4">
      <!-- 1.0 -->
      <g transform="translate(186.715497 313.971562) scale(0.1 -0.1)">
       <defs>
        <path id="DejaVuSansMono-31" d="M 844 531 
L 1825 531 
L 1825 4097 
L 769 3859 
L 769 4434 
L 1819 4666 
L 2450 4666 
L 2450 531 
L 3419 531 
L 3419 0 
L 844 0 
L 844 531 
z
" transform="scale(0.015625)"/>
       </defs>
       <use xlink:href="#DejaVuSansMono-31"/>
       <use xlink:href="#DejaVuSansMono-2e" x="60.205078"/>
       <use xlink:href="#DejaVuSansMono-30" x="120.410156"/>
      </g>
     </g>
    </g>
    <g id="xtick_5">
     <g id="line2d_9">
      <path d="M 241.561875 299.32 
L 241.561875 7.2 
" clip-path="url(#p2b823ab769)" style="fill: none; stroke-dasharray: 2.22,0.96; stroke-dashoffset: 0; stroke: #6c6066; stroke-opacity: 0.4; stroke-width: 0.6"/>
     </g>
     <g id="line2d_10">
      <g>
       <use xlink:href="#m4f1be338c3" x="241.561875" y="299.32" style="stroke: #000000; stroke-width: 0.8"/>
      </g>
     </g>
     <g id="text_5">
      <!-- 1.5 -->
      <g transform="translate(232.531406 313.971562) scale(0.1 -0.1)">
       <use xlink:href="#DejaVuSansMono-31"/>
       <use xlink:href="#DejaVuSansMono-2e" x="60.205078"/>
       <use xlink:href="#DejaVuSansMono-35" x="120.410156"/>
      </g>
     </g>
    </g>
    <g id="xtick_6">
     <g id="line2d_11">
      <path d="M 287.377784 299.32 
L 287.377784 7.2 
" clip-path="url(#p2b823ab769)" style="fill: none; stroke-dasharray: 2.22,0.96; stroke-dashoffset: 0; stroke: #6c6066; stroke-opacity: 0.4; stroke-width: 0.6"/>
     </g>
     <g id="line2d_12">
      <g>
       <use xlink:href="#m4f1be338c3" x="287.377784" y="299.32" style="stroke: #000000; stroke-width: 0.8"/>
      </g>
     </g>
     <g id="text_6">
      <!-- 2.0 -->
      <g transform="translate(278.347315 313.971562) scale(0.1 -0.1)">
       <defs>
        <path id="DejaVuSansMono-32" d="M 1166 531 
L 3309 531 
L 3309 0 
L 475 0 
L 475 531 
Q 1059 1147 1496 1619 
Q 1934 2091 2100 2284 
Q 2413 2666 2522 2902 
Q 2631 3138 2631 3384 
Q 2631 3775 2401 3997 
Q 2172 4219 1772 4219 
Q 1488 4219 1175 4116 
Q 863 4013 513 3803 
L 513 4441 
Q 834 4594 1145 4672 
Q 1456 4750 1759 4750 
Q 2444 4750 2861 4386 
Q 3278 4022 3278 3431 
Q 3278 3131 3139 2831 
Q 3000 2531 2688 2169 
Q 2513 1966 2180 1606 
Q 1847 1247 1166 531 
z
" transform="scale(0.015625)"/>
       </defs>
       <use xlink:href="#DejaVuSansMono-32"/>
       <use xlink:href="#DejaVuSansMono-2e" x="60.205078"/>
       <use xlink:href="#DejaVuSansMono-30" x="120.410156"/>
      </g>
     </g>
    </g>
    <g id="xtick_7">
     <g id="line2d_13">
      <path d="M 333.193693 299.32 
L 333.193693 7.2 
" clip-path="url(#p2b823ab769)" style="fill: none; stroke-dasharray: 2.22,0.96; stroke-dashoffset: 0; stroke: #6c6066; stroke-opacity: 0.4; stroke-width: 0.6"/>
     </g>
     <g id="line2d_14">
      <g>
       <use xlink:href="#m4f1be338c3" x="333.193693" y="299.32" style="stroke: #000000; stroke-width: 0.8"/>
      </g>
     </g>
     <g id="text_7">
      <!-- 2.5 -->
      <g transform="translate(324.163224 313.971562) scale(0.1 -0.1)">
       <use xlink:href="#DejaVuSansMono-32"/>
       <use xlink:href="#DejaVuSansMono-2e" x="60.205078"/>
       <use xlink:href="#DejaVuSansMono-35" x="120.410156"/>
      </g>
     </g>
    </g>
    <g id="xtick_8">
     <g id="line2d_15">
      <path d="M 379.009602 299.32 
L 379.009602 7.2 
" clip-path="url(#p2b823ab769)" style="fill: none; stroke-dasharray: 2.22,0.96; stroke-dashoffset: 0; stroke: #6c6066; stroke-opacity: 0.4; stroke-width: 0.6"/>
     </g>
     <g id="line2d_16">
      <g>
       <use xlink:href="#m4f1be338c3" x="379.009602" y="299.32" style="stroke: #000000; stroke-width: 0.8"/>
      </g>
     </g>
     <g id="text_8">
      <!-- 3.0 -->
      <g transform="translate(369.979134 313.971562) scale(0.1 -0.1)">
       <defs>
        <path id="DejaVuSansMono-33" d="M 2425 2497 
Q 2884 2375 3128 2064 
Q 3372 1753 3372 1288 
Q 3372 644 2939 276 
Q 2506 -91 1741 -91 
Q 1419 -91 1084 -31 
Q 750 28 428 141 
L 428 769 
Q 747 603 1056 522 
Q 1366 441 1672 441 
Q 2191 441 2469 675 
Q 2747 909 2747 1350 
Q 2747 1756 2469 1995 
Q 2191 2234 1716 2234 
L 1234 2234 
L 1234 2753 
L 1716 2753 
Q 2150 2753 2394 2943 
Q 2638 3134 2638 3475 
Q 2638 3834 2411 4026 
Q 2184 4219 1766 4219 
Q 1488 4219 1191 4156 
Q 894 4094 569 3969 
L 569 4550 
Q 947 4650 1242 4700 
Q 1538 4750 1766 4750 
Q 2447 4750 2855 4408 
Q 3263 4066 3263 3500 
Q 3263 3116 3048 2859 
Q 2834 2603 2425 2497 
z
" transform="scale(0.015625)"/>
       </defs>
       <use xlink:href="#DejaVuSansMono-33"/>
       <use xlink:href="#DejaVuSansMono-2e" x="60.205078"/>
       <use xlink:href="#DejaVuSansMono-30" x="120.410156"/>
      </g>
     </g>
    </g>
    <g id="xtick_9">
     <g id="line2d_17">
      <path d="M 424.825511 299.32 
L 424.825511 7.2 
" clip-path="url(#p2b823ab769)" style="fill: none; stroke-dasharray: 2.22,0.96; stroke-dashoffset: 0; stroke: #6c6066; stroke-opacity: 0.4; stroke-width: 0.6"/>
     </g>
     <g id="line2d_18">
      <g>
       <use xlink:href="#m4f1be338c3" x="424.825511" y="299.32" style="stroke: #000000; stroke-width: 0.8"/>
      </g>
     </g>
     <g id="text_9">
      <!-- 3.5 -->
      <g transform="translate(415.795043 313.971562) scale(0.1 -0.1)">
       <use xlink:href="#DejaVuSansMono-33"/>
       <use xlink:href="#DejaVuSansMono-2e" x="60.205078"/>
       <use xlink:href="#DejaVuSansMono-35" x="120.410156"/>
      </g>
     </g>
    </g>
    <g id="text_10">
     <!-- $	heta$ -->
     <g transform="translate(230.261875 327.702812) scale(0.1 -0.1)">
      <defs>
       <path id="DejaVuSans-Oblique-68" d="M 3566 2113 
L 3156 0 
L 2578 0 
L 2988 2091 
Q 3016 2238 3031 2350 
Q 3047 2463 3047 2528 
Q 3047 2791 2881 2937 
Q 2716 3084 2419 3084 
Q 1956 3084 1617 2771 
Q 1278 2459 1178 1941 
L 800 0 
L 225 0 
L 1172 4863 
L 1747 4863 
L 1375 2950 
Q 1594 3244 1934 3414 
Q 2275 3584 2650 3584 
Q 3113 3584 3367 3334 
Q 3622 3084 3622 2631 
Q 3622 2519 3608 2391 
Q 3594 2263 3566 2113 
z
" transform="scale(0.015625)"/>
       <path id="DejaVuSans-Oblique-65" d="M 3078 2063 
Q 3088 2113 3092 2166 
Q 3097 2219 3097 2272 
Q 3097 2653 2873 2875 
Q 2650 3097 2266 3097 
Q 1838 3097 1509 2826 
Q 1181 2556 1013 2059 
L 3078 2063 
z
M 3578 1613 
L 903 1613 
Q 884 1494 878 1425 
Q 872 1356 872 1306 
Q 872 872 1139 634 
Q 1406 397 1894 397 
Q 2269 397 2603 481 
Q 2938 566 3225 728 
L 3116 159 
Q 2806 34 2476 -28 
Q 2147 -91 1806 -91 
Q 1078 -91 686 257 
Q 294 606 294 1247 
Q 294 1794 489 2264 
Q 684 2734 1063 3103 
Q 1306 3334 1642 3459 
Q 1978 3584 2356 3584 
Q 2950 3584 3301 3228 
Q 3653 2872 3653 2272 
Q 3653 2128 3634 1964 
Q 3616 1800 3578 1613 
z
" transform="scale(0.015625)"/>
       <path id="DejaVuSans-Oblique-74" d="M 2706 3500 
L 2619 3053 
L 1472 3053 
L 1100 1153 
Q 1081 1047 1072 975 
Q 1063 903 1063 863 
Q 1063 663 1183 572 
Q 1303 481 1569 481 
L 2150 481 
L 2053 0 
L 1503 0 
Q 991 0 739 200 
Q 488 400 488 806 
Q 488 878 497 964 
Q 506 1050 525 1153 
L 897 3053 
L 409 3053 
L 500 3500 
L 978 3500 
L 1172 4494 
L 1747 4494 
L 1556 3500 
L 2706 3500 
z
" transform="scale(0.015625)"/>
       <path id="DejaVuSans-Oblique-61" d="M 3438 1997 
L 3047 0 
L 2472 0 
L 2578 531 
Q 2325 219 2001 64 
Q 1678 -91 1281 -91 
Q 834 -91 548 182 
Q 263 456 263 884 
Q 263 1497 752 1853 
Q 1241 2209 2100 2209 
L 2900 2209 
L 2931 2363 
Q 2938 2388 2941 2417 
Q 2944 2447 2944 2509 
Q 2944 2788 2717 2942 
Q 2491 3097 2081 3097 
Q 1800 3097 1504 3025 
Q 1209 2953 897 2809 
L 997 3341 
Q 1322 3463 1633 3523 
Q 1944 3584 2234 3584 
Q 2853 3584 3176 3315 
Q 3500 3047 3500 2534 
Q 3500 2431 3484 2292 
Q 3469 2153 3438 1997 
z
M 2816 1759 
L 2241 1759 
Q 1534 1759 1195 1570 
Q 856 1381 856 984 
Q 856 709 1029 553 
Q 1203 397 1509 397 
Q 1978 397 2328 733 
Q 2678 1069 2791 1631 
L 2816 1759 
z
" transform="scale(0.015625)"/>
      </defs>
      <use xlink:href="#DejaVuSans-Oblique-68" transform="translate(0 0.015625)"/>
      <use xlink:href="#DejaVuSans-Oblique-65" transform="translate(63.378906 0.015625)"/>
      <use xlink:href="#DejaVuSans-Oblique-74" transform="translate(124.902344 0.015625)"/>
      <use xlink:href="#DejaVuSans-Oblique-61" transform="translate(164.111328 0.015625)"/>
     </g>
    </g>
   </g>
   <g id="matplotlib.axis_2">
    <g id="ytick_1">
     <g id="line2d_19">
      <path d="M 39.971875 294.356818 
L 443.151875 294.356818 
" clip-path="url(#p2b823ab769)" style="fill: none; stroke-dasharray: 2.22,0.96; stroke-dashoffset: 0; stroke: #6c6066; stroke-opacity: 0.4; stroke-width: 0.6"/>
     </g>
     <g id="line2d_20">
      <defs>
       <path id="m22eacdd956" d="M 0 0 
L -3.5 0 
" style="stroke: #000000; stroke-width: 0.8"/>
      </defs>
      <g>
       <use xlink:href="#m22eacdd956" x="39.971875" y="294.356818" style="stroke: #000000; stroke-width: 0.8"/>
      </g>
     </g>
     <g id="text_11">
      <!-- 0 -->
      <g transform="translate(26.951563 298.182599) scale(0.1 -0.1)">
       <use xlink:href="#DejaVuSansMono-30"/>
      </g>
     </g>
    </g>
    <g id="ytick_2">
     <g id="line2d_21">
      <path d="M 39.971875 244.842036 
L 443.151875 244.842036 
" clip-path="url(#p2b823ab769)" style="fill: none; stroke-dasharray: 2.22,0.96; stroke-dashoffset: 0; stroke: #6c6066; stroke-opacity: 0.4; stroke-width: 0.6"/>
     </g>
     <g id="line2d_22">
      <g>
       <use xlink:href="#m22eacdd956" x="39.971875" y="244.842036" style="stroke: #000000; stroke-width: 0.8"/>
      </g>
     </g>
     <g id="text_12">
      <!-- 2 -->
      <g transform="translate(26.951563 248.667818) scale(0.1 -0.1)">
       <use xlink:href="#DejaVuSansMono-32"/>
      </g>
     </g>
    </g>
    <g id="ytick_3">
     <g id="line2d_23">
      <path d="M 39.971875 195.327255 
L 443.151875 195.327255 
" clip-path="url(#p2b823ab769)" style="fill: none; stroke-dasharray: 2.22,0.96; stroke-dashoffset: 0; stroke: #6c6066; stroke-opacity: 0.4; stroke-width: 0.6"/>
     </g>
     <g id="line2d_24">
      <g>
       <use xlink:href="#m22eacdd956" x="39.971875" y="195.327255" style="stroke: #000000; stroke-width: 0.8"/>
      </g>
     </g>
     <g id="text_13">
      <!-- 4 -->
      <g transform="translate(26.951563 199.153036) scale(0.1 -0.1)">
       <defs>
        <path id="DejaVuSansMono-34" d="M 2297 4091 
L 825 1625 
L 2297 1625 
L 2297 4091 
z
M 2194 4666 
L 2925 4666 
L 2925 1625 
L 3547 1625 
L 3547 1113 
L 2925 1113 
L 2925 0 
L 2297 0 
L 2297 1113 
L 319 1113 
L 319 1709 
L 2194 4666 
z
" transform="scale(0.015625)"/>
       </defs>
       <use xlink:href="#DejaVuSansMono-34"/>
      </g>
     </g>
    </g>
    <g id="ytick_4">
     <g id="line2d_25">
      <path d="M 39.971875 145.812473 
L 443.151875 145.812473 
" clip-path="url(#p2b823ab769)" style="fill: none; stroke-dasharray: 2.22,0.96; stroke-dashoffset: 0; stroke: #6c6066; stroke-opacity: 0.4; stroke-width: 0.6"/>
     </g>
     <g id="line2d_26">
      <g>
       <use xlink:href="#m22eacdd956" x="39.971875" y="145.812473" style="stroke: #000000; stroke-width: 0.8"/>
      </g>
     </g>
     <g id="text_14">
      <!-- 6 -->
      <g transform="translate(26.951563 149.638254) scale(0.1 -0.1)">
       <defs>
        <path id="DejaVuSansMono-36" d="M 3097 4563 
L 3097 3981 
Q 2900 4097 2678 4158 
Q 2456 4219 2216 4219 
Q 1616 4219 1306 3767 
Q 997 3316 997 2438 
Q 1147 2750 1412 2917 
Q 1678 3084 2022 3084 
Q 2697 3084 3067 2670 
Q 3438 2256 3438 1497 
Q 3438 741 3056 325 
Q 2675 -91 1984 -91 
Q 1172 -91 794 492 
Q 416 1075 416 2328 
Q 416 3509 870 4129 
Q 1325 4750 2188 4750 
Q 2419 4750 2650 4701 
Q 2881 4653 3097 4563 
z
M 1972 2591 
Q 1569 2591 1337 2300 
Q 1106 2009 1106 1497 
Q 1106 984 1337 693 
Q 1569 403 1972 403 
Q 2391 403 2603 679 
Q 2816 956 2816 1497 
Q 2816 2041 2603 2316 
Q 2391 2591 1972 2591 
z
" transform="scale(0.015625)"/>
       </defs>
       <use xlink:href="#DejaVuSansMono-36"/>
      </g>
     </g>
    </g>
    <g id="ytick_5">
     <g id="line2d_27">
      <path d="M 39.971875 96.297691 
L 443.151875 96.297691 
" clip-path="url(#p2b823ab769)" style="fill: none; stroke-dasharray: 2.22,0.96; stroke-dashoffset: 0; stroke: #6c6066; stroke-opacity: 0.4; stroke-width: 0.6"/>
     </g>
     <g id="line2d_28">
      <g>
       <use xlink:href="#m22eacdd956" x="39.971875" y="96.297691" style="stroke: #000000; stroke-width: 0.8"/>
      </g>
     </g>
     <g id="text_15">
      <!-- 8 -->
      <g transform="translate(26.951563 100.123473) scale(0.1 -0.1)">
       <defs>
        <path id="DejaVuSansMono-38" d="M 1925 2216 
Q 1503 2216 1273 1980 
Q 1044 1744 1044 1313 
Q 1044 881 1276 642 
Q 1509 403 1925 403 
Q 2350 403 2579 639 
Q 2809 875 2809 1313 
Q 2809 1741 2576 1978 
Q 2344 2216 1925 2216 
z
M 1375 2478 
Q 972 2581 745 2862 
Q 519 3144 519 3541 
Q 519 4097 897 4423 
Q 1275 4750 1925 4750 
Q 2578 4750 2956 4423 
Q 3334 4097 3334 3541 
Q 3334 3144 3107 2862 
Q 2881 2581 2478 2478 
Q 2947 2375 3195 2062 
Q 3444 1750 3444 1253 
Q 3444 622 3041 265 
Q 2638 -91 1925 -91 
Q 1213 -91 811 264 
Q 409 619 409 1247 
Q 409 1747 657 2061 
Q 906 2375 1375 2478 
z
M 1147 3481 
Q 1147 3106 1347 2909 
Q 1547 2713 1925 2713 
Q 2306 2713 2506 2909 
Q 2706 3106 2706 3481 
Q 2706 3863 2507 4063 
Q 2309 4263 1925 4263 
Q 1547 4263 1347 4061 
Q 1147 3859 1147 3481 
z
" transform="scale(0.015625)"/>
       </defs>
       <use xlink:href="#DejaVuSansMono-38"/>
      </g>
     </g>
    </g>
    <g id="ytick_6">
     <g id="line2d_29">
      <path d="M 39.971875 46.78291 
L 443.151875 46.78291 
" clip-path="url(#p2b823ab769)" style="fill: none; stroke-dasharray: 2.22,0.96; stroke-dashoffset: 0; stroke: #6c6066; stroke-opacity: 0.4; stroke-width: 0.6"/>
     </g>
     <g id="line2d_30">
      <g>
       <use xlink:href="#m22eacdd956" x="39.971875" y="46.78291" style="stroke: #000000; stroke-width: 0.8"/>
      </g>
     </g>
     <g id="text_16">
      <!-- 10 -->
      <g transform="translate(20.93125 50.608691) scale(0.1 -0.1)">
       <use xlink:href="#DejaVuSansMono-31"/>
       <use xlink:href="#DejaVuSansMono-30" x="60.205078"/>
      </g>
     </g>
    </g>
    <g id="text_17">
     <!-- $J(	heta)$ -->
     <g transform="translate(14.83125 169.91) rotate(-90) scale(0.1 -0.1)">
      <defs>
       <path id="DejaVuSans-Oblique-4a" d="M 1069 4666 
L 1703 4666 
L 856 325 
Q 691 -522 298 -901 
Q -94 -1281 -800 -1281 
L -1050 -1281 
L -947 -750 
L -750 -750 
Q -328 -750 -109 -509 
Q 109 -269 225 325 
L 1069 4666 
z
" transform="scale(0.015625)"/>
       <path id="DejaVuSans-28" d="M 1984 4856 
Q 1566 4138 1362 3434 
Q 1159 2731 1159 2009 
Q 1159 1288 1364 580 
Q 1569 -128 1984 -844 
L 1484 -844 
Q 1016 -109 783 600 
Q 550 1309 550 2009 
Q 550 2706 781 3412 
Q 1013 4119 1484 4856 
L 1984 4856 
z
" transform="scale(0.015625)"/>
       <path id="DejaVuSans-29" d="M 513 4856 
L 1013 4856 
Q 1481 4119 1714 3412 
Q 1947 2706 1947 2009 
Q 1947 1309 1714 600 
Q 1481 -109 1013 -844 
L 513 -844 
Q 928 -128 1133 580 
Q 1338 1288 1338 2009 
Q 1338 2731 1133 3434 
Q 928 4138 513 4856 
z
" transform="scale(0.015625)"/>
      </defs>
      <use xlink:href="#DejaVuSans-Oblique-4a" transform="translate(0 0.015625)"/>
      <use xlink:href="#DejaVuSans-28" transform="translate(29.492188 0.015625)"/>
      <use xlink:href="#DejaVuSans-Oblique-68" transform="translate(68.505859 0.015625)"/>
      <use xlink:href="#DejaVuSans-Oblique-65" transform="translate(131.884766 0.015625)"/>
      <use xlink:href="#DejaVuSans-Oblique-74" transform="translate(193.408203 0.015625)"/>
      <use xlink:href="#DejaVuSans-Oblique-61" transform="translate(232.617188 0.015625)"/>
      <use xlink:href="#DejaVuSans-29" transform="translate(293.896484 0.015625)"/>
     </g>
    </g>
   </g>
   <g id="line2d_31">
    <path d="M 58.298239 20.478182 
L 61.975769 42.486533 
L 65.6533 62.85608 
L 69.330831 81.661361 
L 73.008361 98.975286 
L 76.685895 114.869335 
L 80.363426 129.413348 
L 84.040956 142.675702 
L 86.492645 150.838272 
L 88.944332 158.48035 
L 91.396018 165.621011 
L 93.847707 172.27911 
L 96.299393 178.473109 
L 98.751082 184.221212 
L 101.202768 189.541304 
L 103.654457 194.450975 
L 106.106143 198.967502 
L 108.557832 203.107867 
L 111.009516 206.888726 
L 113.461205 210.326466 
L 115.912894 213.437148 
L 118.364583 216.236514 
L 120.816266 218.740022 
L 123.267955 220.962832 
L 125.719644 222.919781 
L 128.171328 224.625409 
L 130.623017 226.093957 
L 133.074705 227.339352 
L 135.526394 228.375209 
L 137.978078 229.214868 
L 140.429767 229.871334 
L 142.881456 230.357333 
L 145.333145 230.685265 
L 149.010676 230.90718 
L 152.688206 230.840179 
L 156.365731 230.522281 
L 160.043268 229.989965 
L 164.946646 229.006872 
L 169.850013 227.783081 
L 175.979232 226.026697 
L 196.818575 219.798321 
L 202.947794 218.314874 
L 207.851172 217.3527 
L 212.75455 216.62951 
L 217.657917 216.176236 
L 221.335453 216.029426 
L 225.012979 216.058514 
L 228.690515 216.271292 
L 232.368051 216.673874 
L 236.045576 217.270866 
L 239.723112 218.065453 
L 243.400638 219.059053 
L 247.078174 220.25169 
L 250.755699 221.641946 
L 254.433235 223.226564 
L 258.110771 225.000987 
L 263.014138 227.651287 
L 267.917516 230.609115 
L 272.820894 233.850457 
L 277.724261 237.3471 
L 283.853481 242.024904 
L 291.208542 247.986599 
L 302.24114 257.3126 
L 312.047896 265.536511 
L 318.177104 270.407236 
L 323.080493 274.039899 
L 327.98386 277.353348 
L 331.661386 279.579108 
L 335.338911 281.541234 
L 339.016458 283.20124 
L 341.468141 284.120727 
L 343.919825 284.87598 
L 346.371508 285.4542 
L 348.823192 285.843112 
L 351.274875 286.02888 
L 353.726581 285.998422 
L 356.178264 285.738093 
L 358.629948 285.233301 
L 361.081631 284.469926 
L 363.533337 283.433662 
L 365.98502 282.108736 
L 368.436704 280.480509 
L 370.888387 278.533211 
L 373.340071 276.250643 
L 375.791754 273.616988 
L 378.243438 270.615528 
L 380.695143 267.22917 
L 383.146826 263.441387 
L 385.59851 259.23447 
L 388.050193 254.590335 
L 390.501899 249.491366 
L 392.953582 243.919386 
L 395.405266 237.854985 
L 397.856949 231.279889 
L 400.308633 224.174738 
L 402.760316 216.519367 
L 405.212022 208.295126 
L 407.663705 199.480953 
L 410.115389 190.055788 
L 412.567072 180.00027 
L 415.018756 169.292536 
L 418.696303 151.961494 
L 422.373828 133.040805 
L 424.825511 119.507745 
L 424.825511 119.507745 
" clip-path="url(#p2b823ab769)" style="fill: none; stroke: #486afb; stroke-width: 2; stroke-linecap: square"/>
   </g>
   <g id="patch_3">
    <path d="M 39.971875 299.32 
L 39.971875 7.2 
" style="fill: none; stroke: #000000; stroke-width: 0.6; stroke-linejoin: miter; stroke-linecap: square"/>
   </g>
   <g id="patch_4">
    <path d="M 39.971875 299.32 
L 443.151875 299.32 
" style="fill: none; stroke: #000000; stroke-width: 0.6; stroke-linejoin: miter; stroke-linecap: square"/>
   </g>
  </g>
 </g>
 <defs>
  <clipPath id="p2b823ab769">
   <rect x="39.971875" y="7.2" width="403.18" height="292.12"/>
  </clipPath>
 </defs>
</svg>