<?xml version="1.0" encoding="utf-8" standalone="no"?>
<!DOCTYPE svg PUBLIC "-//W3C//DTD SVG 1.1//EN"
  "http://www.w3.org/Graphics/SVG/1.1/DTD/svg11.dtd">
<svg xmlns:xlink="http://www.w3.org/1999/xlink" width="279.711875pt" height="279.968281pt" viewBox="0 0 279.711875 279.968281" xmlns="http://www.w3.org/2000/svg" version="1.1">
 <metadata>
  <rdf:RDF xmlns:dc="http://purl.org/dc/elements/1.1/" xmlns:cc="http://creativecommons.org/ns#" xmlns:rdf="http://www.w3.org/1999/02/22-rdf-syntax-ns#">
   <cc:Work>
    <dc:type rdf:resource="http://purl.org/dc/dcmitype/StillImage"/>
    <dc:date>2024-03-27T05:56:01.055453</dc:date>
    <dc:format>image/svg+xml</dc:format>
    <dc:creator>
     <cc:Agent>
      <dc:title>Matplotlib v3.8.3, https://matplotlib.org/</dc:title>
     </cc:Agent>
    </dc:creator>
   </cc:Work>
  </rdf:RDF>
 </metadata>
 <defs>
  <style type="text/css">*{stroke-linejoin: round; stroke-linecap: butt}</style>
 </defs>
 <g id="figure_1">
  <g id="patch_1">
   <path d="M 0 279.968281 
L 279.711875 279.968281 
L 279.711875 0 
L 0 0 
z
" style="fill: #ffffff"/>
  </g>
  <g id="axes_1">
   <g id="patch_2">
    <path d="M 39.971875 242.305781 
L 272.511875 242.305781 
L 272.511875 11.025781 
L 39.971875 11.025781 
z
" style="fill: #ffffff"/>
   </g>
   <g id="patch_3">
    <path d="M 155.510487 163.66348 
L 164.780564 164.49117 
L 163.606635 167.126538 
L 187.154989 177.245038 
L 187.143191 177.271524 
L 163.594837 167.153024 
L 162.420908 169.788392 
z
" clip-path="url(#p423f71f0e8)" style="fill: #fd46fc; stroke: #fd46fc; stroke-width: 2; stroke-linejoin: miter"/>
   </g>
   <g id="matplotlib.axis_1">
    <g id="xtick_1">
     <g id="line2d_1">
      <path d="M 39.971875 242.305781 
L 39.971875 11.025781 
" clip-path="url(#p423f71f0e8)" style="fill: none; stroke-dasharray: 2.22,0.96; stroke-dashoffset: 0; stroke: #6c6066; stroke-opacity: 0.4; stroke-width: 0.6"/>
     </g>
     <g id="line2d_2">
      <defs>
       <path id="mc3b4edf323" d="M 0 0 
L 0 3.5 
" style="stroke: #000000; stroke-width: 0.8"/>
      </defs>
      <g>
       <use xlink:href="#mc3b4edf323" x="39.971875" y="242.305781" style="stroke: #000000; stroke-width: 0.8"/>
      </g>
     </g>
     <g id="text_1">
      <!-- −4 -->
      <g transform="translate(33.951562 256.957344) scale(0.1 -0.1)">
       <defs>
        <path id="DejaVuSansMono-2212" d="M 275 2272 
L 3578 2272 
L 3578 1741 
L 275 1741 
L 275 2272 
z
" transform="scale(0.015625)"/>
        <path id="DejaVuSansMono-34" d="M 2297 4091 
L 825 1625 
L 2297 1625 
L 2297 4091 
z
M 2194 4666 
L 2925 4666 
L 2925 1625 
L 3547 1625 
L 3547 1113 
L 2925 1113 
L 2925 0 
L 2297 0 
L 2297 1113 
L 319 1113 
L 319 1709 
L 2194 4666 
z
" transform="scale(0.015625)"/>
       </defs>
       <use xlink:href="#DejaVuSansMono-2212"/>
       <use xlink:href="#DejaVuSansMono-34" x="60.205078"/>
      </g>
     </g>
    </g>
    <g id="xtick_2">
     <g id="line2d_3">
      <path d="M 98.842761 242.305781 
L 98.842761 11.025781 
" clip-path="url(#p423f71f0e8)" style="fill: none; stroke-dasharray: 2.22,0.96; stroke-dashoffset: 0; stroke: #6c6066; stroke-opacity: 0.4; stroke-width: 0.6"/>
     </g>
     <g id="line2d_4">
      <g>
       <use xlink:href="#mc3b4edf323" x="98.842761" y="242.305781" style="stroke: #000000; stroke-width: 0.8"/>
      </g>
     </g>
     <g id="text_2">
      <!-- −2 -->
      <g transform="translate(92.822449 256.957344) scale(0.1 -0.1)">
       <defs>
        <path id="DejaVuSansMono-32" d="M 1166 531 
L 3309 531 
L 3309 0 
L 475 0 
L 475 531 
Q 1059 1147 1496 1619 
Q 1934 2091 2100 2284 
Q 2413 2666 2522 2902 
Q 2631 3138 2631 3384 
Q 2631 3775 2401 3997 
Q 2172 4219 1772 4219 
Q 1488 4219 1175 4116 
Q 863 4013 513 3803 
L 513 4441 
Q 834 4594 1145 4672 
Q 1456 4750 1759 4750 
Q 2444 4750 2861 4386 
Q 3278 4022 3278 3431 
Q 3278 3131 3139 2831 
Q 3000 2531 2688 2169 
Q 2513 1966 2180 1606 
Q 1847 1247 1166 531 
z
" transform="scale(0.015625)"/>
       </defs>
       <use xlink:href="#DejaVuSansMono-2212"/>
       <use xlink:href="#DejaVuSansMono-32" x="60.205078"/>
      </g>
     </g>
    </g>
    <g id="xtick_3">
     <g id="line2d_5">
      <path d="M 157.713647 242.305781 
L 157.713647 11.025781 
" clip-path="url(#p423f71f0e8)" style="fill: none; stroke-dasharray: 2.22,0.96; stroke-dashoffset: 0; stroke: #6c6066; stroke-opacity: 0.4; stroke-width: 0.6"/>
     </g>
     <g id="line2d_6">
      <g>
       <use xlink:href="#mc3b4edf323" x="157.713647" y="242.305781" style="stroke: #000000; stroke-width: 0.8"/>
      </g>
     </g>
     <g id="text_3">
      <!-- 0 -->
      <g transform="translate(154.703491 256.957344) scale(0.1 -0.1)">
       <defs>
        <path id="DejaVuSansMono-30" d="M 1509 2344 
Q 1509 2516 1629 2641 
Q 1750 2766 1919 2766 
Q 2094 2766 2219 2641 
Q 2344 2516 2344 2344 
Q 2344 2169 2220 2047 
Q 2097 1925 1919 1925 
Q 1744 1925 1626 2044 
Q 1509 2163 1509 2344 
z
M 1925 4250 
Q 1484 4250 1267 3775 
Q 1050 3300 1050 2328 
Q 1050 1359 1267 884 
Q 1484 409 1925 409 
Q 2369 409 2586 884 
Q 2803 1359 2803 2328 
Q 2803 3300 2586 3775 
Q 2369 4250 1925 4250 
z
M 1925 4750 
Q 2672 4750 3055 4137 
Q 3438 3525 3438 2328 
Q 3438 1134 3055 521 
Q 2672 -91 1925 -91 
Q 1178 -91 797 521 
Q 416 1134 416 2328 
Q 416 3525 797 4137 
Q 1178 4750 1925 4750 
z
" transform="scale(0.015625)"/>
       </defs>
       <use xlink:href="#DejaVuSansMono-30"/>
      </g>
     </g>
    </g>
    <g id="xtick_4">
     <g id="line2d_7">
      <path d="M 216.584533 242.305781 
L 216.584533 11.025781 
" clip-path="url(#p423f71f0e8)" style="fill: none; stroke-dasharray: 2.22,0.96; stroke-dashoffset: 0; stroke: #6c6066; stroke-opacity: 0.4; stroke-width: 0.6"/>
     </g>
     <g id="line2d_8">
      <g>
       <use xlink:href="#mc3b4edf323" x="216.584533" y="242.305781" style="stroke: #000000; stroke-width: 0.8"/>
      </g>
     </g>
     <g id="text_4">
      <!-- 2 -->
      <g transform="translate(213.574377 256.957344) scale(0.1 -0.1)">
       <use xlink:href="#DejaVuSansMono-32"/>
      </g>
     </g>
    </g>
    <g id="text_5">
     <!-- $x$ -->
     <g transform="translate(153.241875 270.688594) scale(0.1 -0.1)">
      <defs>
       <path id="DejaVuSans-Oblique-78" d="M 3841 3500 
L 2234 1784 
L 3219 0 
L 2559 0 
L 1819 1388 
L 531 0 
L -166 0 
L 1556 1844 
L 641 3500 
L 1300 3500 
L 1972 2234 
L 3144 3500 
L 3841 3500 
z
" transform="scale(0.015625)"/>
      </defs>
      <use xlink:href="#DejaVuSans-Oblique-78" transform="translate(0 0.3125)"/>
     </g>
    </g>
   </g>
   <g id="matplotlib.axis_2">
    <g id="ytick_1">
     <g id="line2d_9">
      <path d="M 39.971875 242.305781 
L 272.511875 242.305781 
" clip-path="url(#p423f71f0e8)" style="fill: none; stroke-dasharray: 2.22,0.96; stroke-dashoffset: 0; stroke: #6c6066; stroke-opacity: 0.4; stroke-width: 0.6"/>
     </g>
     <g id="line2d_10">
      <defs>
       <path id="m2ecb52fa0c" d="M 0 0 
L -3.5 0 
" style="stroke: #000000; stroke-width: 0.8"/>
      </defs>
      <g>
       <use xlink:href="#m2ecb52fa0c" x="39.971875" y="242.305781" style="stroke: #000000; stroke-width: 0.8"/>
      </g>
     </g>
     <g id="text_6">
      <!-- −4 -->
      <g transform="translate(20.93125 246.131562) scale(0.1 -0.1)">
       <use xlink:href="#DejaVuSansMono-2212"/>
       <use xlink:href="#DejaVuSansMono-34" x="60.205078"/>
      </g>
     </g>
    </g>
    <g id="ytick_2">
     <g id="line2d_11">
      <path d="M 39.971875 213.395781 
L 272.511875 213.395781 
" clip-path="url(#p423f71f0e8)" style="fill: none; stroke-dasharray: 2.22,0.96; stroke-dashoffset: 0; stroke: #6c6066; stroke-opacity: 0.4; stroke-width: 0.6"/>
     </g>
     <g id="line2d_12">
      <g>
       <use xlink:href="#m2ecb52fa0c" x="39.971875" y="213.395781" style="stroke: #000000; stroke-width: 0.8"/>
      </g>
     </g>
     <g id="text_7">
      <!-- −3 -->
      <g transform="translate(20.93125 217.221562) scale(0.1 -0.1)">
       <defs>
        <path id="DejaVuSansMono-33" d="M 2425 2497 
Q 2884 2375 3128 2064 
Q 3372 1753 3372 1288 
Q 3372 644 2939 276 
Q 2506 -91 1741 -91 
Q 1419 -91 1084 -31 
Q 750 28 428 141 
L 428 769 
Q 747 603 1056 522 
Q 1366 441 1672 441 
Q 2191 441 2469 675 
Q 2747 909 2747 1350 
Q 2747 1756 2469 1995 
Q 2191 2234 1716 2234 
L 1234 2234 
L 1234 2753 
L 1716 2753 
Q 2150 2753 2394 2943 
Q 2638 3134 2638 3475 
Q 2638 3834 2411 4026 
Q 2184 4219 1766 4219 
Q 1488 4219 1191 4156 
Q 894 4094 569 3969 
L 569 4550 
Q 947 4650 1242 4700 
Q 1538 4750 1766 4750 
Q 2447 4750 2855 4408 
Q 3263 4066 3263 3500 
Q 3263 3116 3048 2859 
Q 2834 2603 2425 2497 
z
" transform="scale(0.015625)"/>
       </defs>
       <use xlink:href="#DejaVuSansMono-2212"/>
       <use xlink:href="#DejaVuSansMono-33" x="60.205078"/>
      </g>
     </g>
    </g>
    <g id="ytick_3">
     <g id="line2d_13">
      <path d="M 39.971875 184.485781 
L 272.511875 184.485781 
" clip-path="url(#p423f71f0e8)" style="fill: none; stroke-dasharray: 2.22,0.96; stroke-dashoffset: 0; stroke: #6c6066; stroke-opacity: 0.4; stroke-width: 0.6"/>
     </g>
     <g id="line2d_14">
      <g>
       <use xlink:href="#m2ecb52fa0c" x="39.971875" y="184.485781" style="stroke: #000000; stroke-width: 0.8"/>
      </g>
     </g>
     <g id="text_8">
      <!-- −2 -->
      <g transform="translate(20.93125 188.311562) scale(0.1 -0.1)">
       <use xlink:href="#DejaVuSansMono-2212"/>
       <use xlink:href="#DejaVuSansMono-32" x="60.205078"/>
      </g>
     </g>
    </g>
    <g id="ytick_4">
     <g id="line2d_15">
      <path d="M 39.971875 155.575781 
L 272.511875 155.575781 
" clip-path="url(#p423f71f0e8)" style="fill: none; stroke-dasharray: 2.22,0.96; stroke-dashoffset: 0; stroke: #6c6066; stroke-opacity: 0.4; stroke-width: 0.6"/>
     </g>
     <g id="line2d_16">
      <g>
       <use xlink:href="#m2ecb52fa0c" x="39.971875" y="155.575781" style="stroke: #000000; stroke-width: 0.8"/>
      </g>
     </g>
     <g id="text_9">
      <!-- −1 -->
      <g transform="translate(20.93125 159.401562) scale(0.1 -0.1)">
       <defs>
        <path id="DejaVuSansMono-31" d="M 844 531 
L 1825 531 
L 1825 4097 
L 769 3859 
L 769 4434 
L 1819 4666 
L 2450 4666 
L 2450 531 
L 3419 531 
L 3419 0 
L 844 0 
L 844 531 
z
" transform="scale(0.015625)"/>
       </defs>
       <use xlink:href="#DejaVuSansMono-2212"/>
       <use xlink:href="#DejaVuSansMono-31" x="60.205078"/>
      </g>
     </g>
    </g>
    <g id="ytick_5">
     <g id="line2d_17">
      <path d="M 39.971875 126.665781 
L 272.511875 126.665781 
" clip-path="url(#p423f71f0e8)" style="fill: none; stroke-dasharray: 2.22,0.96; stroke-dashoffset: 0; stroke: #6c6066; stroke-opacity: 0.4; stroke-width: 0.6"/>
     </g>
     <g id="line2d_18">
      <g>
       <use xlink:href="#m2ecb52fa0c" x="39.971875" y="126.665781" style="stroke: #000000; stroke-width: 0.8"/>
      </g>
     </g>
     <g id="text_10">
      <!-- 0 -->
      <g transform="translate(26.951562 130.491562) scale(0.1 -0.1)">
       <use xlink:href="#DejaVuSansMono-30"/>
      </g>
     </g>
    </g>
    <g id="ytick_6">
     <g id="line2d_19">
      <path d="M 39.971875 97.755781 
L 272.511875 97.755781 
" clip-path="url(#p423f71f0e8)" style="fill: none; stroke-dasharray: 2.22,0.96; stroke-dashoffset: 0; stroke: #6c6066; stroke-opacity: 0.4; stroke-width: 0.6"/>
     </g>
     <g id="line2d_20">
      <g>
       <use xlink:href="#m2ecb52fa0c" x="39.971875" y="97.755781" style="stroke: #000000; stroke-width: 0.8"/>
      </g>
     </g>
     <g id="text_11">
      <!-- 1 -->
      <g transform="translate(26.951562 101.581562) scale(0.1 -0.1)">
       <use xlink:href="#DejaVuSansMono-31"/>
      </g>
     </g>
    </g>
    <g id="ytick_7">
     <g id="line2d_21">
      <path d="M 39.971875 68.845781 
L 272.511875 68.845781 
" clip-path="url(#p423f71f0e8)" style="fill: none; stroke-dasharray: 2.22,0.96; stroke-dashoffset: 0; stroke: #6c6066; stroke-opacity: 0.4; stroke-width: 0.6"/>
     </g>
     <g id="line2d_22">
      <g>
       <use xlink:href="#m2ecb52fa0c" x="39.971875" y="68.845781" style="stroke: #000000; stroke-width: 0.8"/>
      </g>
     </g>
     <g id="text_12">
      <!-- 2 -->
      <g transform="translate(26.951562 72.671562) scale(0.1 -0.1)">
       <use xlink:href="#DejaVuSansMono-32"/>
      </g>
     </g>
    </g>
    <g id="ytick_8">
     <g id="line2d_23">
      <path d="M 39.971875 39.935781 
L 272.511875 39.935781 
" clip-path="url(#p423f71f0e8)" style="fill: none; stroke-dasharray: 2.22,0.96; stroke-dashoffset: 0; stroke: #6c6066; stroke-opacity: 0.4; stroke-width: 0.6"/>
     </g>
     <g id="line2d_24">
      <g>
       <use xlink:href="#m2ecb52fa0c" x="39.971875" y="39.935781" style="stroke: #000000; stroke-width: 0.8"/>
      </g>
     </g>
     <g id="text_13">
      <!-- 3 -->
      <g transform="translate(26.951562 43.761562) scale(0.1 -0.1)">
       <use xlink:href="#DejaVuSansMono-33"/>
      </g>
     </g>
    </g>
    <g id="ytick_9">
     <g id="line2d_25">
      <path d="M 39.971875 11.025781 
L 272.511875 11.025781 
" clip-path="url(#p423f71f0e8)" style="fill: none; stroke-dasharray: 2.22,0.96; stroke-dashoffset: 0; stroke: #6c6066; stroke-opacity: 0.4; stroke-width: 0.6"/>
     </g>
     <g id="line2d_26">
      <g>
       <use xlink:href="#m2ecb52fa0c" x="39.971875" y="11.025781" style="stroke: #000000; stroke-width: 0.8"/>
      </g>
     </g>
     <g id="text_14">
      <!-- 4 -->
      <g transform="translate(26.951562 14.851562) scale(0.1 -0.1)">
       <use xlink:href="#DejaVuSansMono-34"/>
      </g>
     </g>
    </g>
    <g id="text_15">
     <!-- $y$ -->
     <g transform="translate(14.83125 129.665781) rotate(-90) scale(0.1 -0.1)">
      <defs>
       <path id="DejaVuSans-Oblique-79" d="M 1588 -325 
Q 1188 -997 936 -1164 
Q 684 -1331 294 -1331 
L -159 -1331 
L -63 -850 
L 269 -850 
Q 509 -850 678 -719 
Q 847 -588 1056 -206 
L 1234 128 
L 459 3500 
L 1069 3500 
L 1650 819 
L 3256 3500 
L 3859 3500 
L 1588 -325 
z
" transform="scale(0.015625)"/>
      </defs>
      <use xlink:href="#DejaVuSans-Oblique-79" transform="translate(0 0.3125)"/>
     </g>
    </g>
   </g>
   <g id="QuadContourSet_1">
    <path clip-path="url(#p423f71f0e8)" style="fill: none; stroke: #486afb; stroke-width: 2"/>
    <path d="M 40.903376 242.305781 
L 40.16749 239.414781 
L 39.971875 238.626327 
M 39.971875 14.705236 
L 40.16749 13.916781 
" clip-path="url(#p423f71f0e8)" style="fill: none; stroke: #486afb; stroke-width: 2"/>
    <path d="M 39.971875 50.190649 
L 40.24201 48.608781 
L 40.754336 45.717781 
L 41.285292 42.826781 
L 41.834878 39.935781 
L 42.403094 37.044781 
L 42.915419 34.520892 
L 42.991875 34.153781 
L 43.613078 31.262781 
L 44.253394 28.371781 
L 44.912824 25.480781 
L 45.591369 22.589781 
L 45.858964 21.480905 
L 46.300495 19.698781 
L 47.036381 16.807781 
L 47.791891 13.916781 
M 48.567024 242.305781 
L 47.791891 239.414781 
L 47.036381 236.523781 
L 46.300495 233.632781 
L 45.858964 231.850658 
L 45.591369 230.741781 
L 44.912824 227.850781 
L 44.253394 224.959781 
L 43.613078 222.068781 
L 42.991875 219.177781 
L 42.915419 218.81067 
L 42.403094 216.286781 
L 41.834878 213.395781 
L 41.285292 210.504781 
L 40.754336 207.613781 
L 40.24201 204.722781 
L 39.971875 203.140913 
M 267.635403 13.916781 
L 268.390913 16.807781 
L 269.126799 19.698781 
L 269.568331 21.480905 
L 269.835926 22.589781 
L 270.51447 25.480781 
L 271.1739 28.371781 
L 271.814217 31.262781 
L 272.435419 34.153781 
L 272.511875 34.520892 
M 272.511875 218.81067 
L 272.435419 219.177781 
L 271.814217 222.068781 
L 271.1739 224.959781 
L 270.51447 227.850781 
L 269.835926 230.741781 
L 269.568331 231.850658 
L 269.126799 233.632781 
L 268.390913 236.523781 
L 267.635403 239.414781 
L 266.86027 242.305781 
" clip-path="url(#p423f71f0e8)" style="fill: none; stroke: #486afb; stroke-width: 2"/>
    <path d="M 56.8226 242.305781 
L 54.368294 233.632781 
L 51.746052 223.233811 
L 50.183554 216.286781 
L 48.410035 207.613781 
L 46.849957 198.940781 
L 45.476685 190.267781 
L 44.301179 181.594781 
L 43.297698 172.921781 
L 42.477614 164.248781 
L 41.834878 155.575781 
L 41.359812 146.902781 
L 41.052417 138.229781 
L 40.912691 129.556781 
L 40.940636 120.883781 
L 41.136252 112.210781 
L 41.499537 103.537781 
L 42.030493 94.864781 
L 42.915419 84.197988 
L 43.613078 77.518781 
L 44.6739 68.845781 
L 45.908023 60.172781 
L 47.350359 51.499781 
L 48.973879 42.826781 
L 50.818634 34.153781 
L 52.875793 25.480781 
L 55.158857 16.807781 
L 55.980063 13.916781 
M 259.447231 13.916781 
L 261.815615 22.589781 
L 263.953419 31.262781 
L 265.858658 39.935781 
L 267.556909 48.608781 
L 269.058116 57.281781 
L 270.361559 65.954781 
L 271.479723 74.627781 
L 272.511875 84.197988 
M 272.511875 169.133574 
L 271.814217 175.812781 
L 270.753394 184.485781 
L 269.519272 193.158781 
L 268.076935 201.831781 
L 266.453416 210.504781 
L 264.60866 219.177781 
L 262.551501 227.850781 
L 260.268437 236.523781 
L 258.604695 242.305781 
L 258.604695 242.305781 
" clip-path="url(#p423f71f0e8)" style="fill: none; stroke: #486afb; stroke-width: 2"/>
    <path d="M 65.809653 242.305781 
L 63.123983 233.632781 
L 60.576685 224.44199 
L 58.566728 216.286781 
L 56.651959 207.613781 
L 54.689597 197.465781 
L 53.487304 190.267781 
L 52.212459 181.594781 
L 51.141214 172.921781 
L 50.264199 164.248781 
L 49.568636 155.575781 
L 49.054524 146.902781 
L 48.724013 138.229781 
L 48.576836 129.556781 
L 48.606272 120.883781 
L 48.812589 112.210781 
L 49.205733 103.537781 
L 49.780329 94.864781 
L 50.536376 86.191781 
L 51.746052 75.288581 
L 52.616678 68.845781 
L 53.95371 60.172781 
L 55.500138 51.499781 
L 57.633141 41.111781 
L 59.25868 34.153781 
L 61.493712 25.480781 
L 63.987459 16.807781 
L 64.886875 13.916781 
M 250.540419 13.916781 
L 253.129768 22.589781 
L 255.454695 31.262781 
L 257.794153 41.111781 
L 259.361911 48.608781 
L 260.986448 57.281781 
L 262.385668 65.954781 
L 263.681242 75.288581 
L 264.59858 83.300781 
L 265.415111 91.973781 
L 266.05019 100.646781 
L 266.503819 109.319781 
L 266.771964 117.992781 
L 266.86027 126.665781 
L 266.771964 135.338781 
L 266.503819 144.011781 
L 266.05019 152.684781 
L 265.415111 161.357781 
L 264.59858 170.030781 
L 263.598325 178.703781 
L 262.385668 187.376781 
L 260.737698 197.465781 
L 259.361911 204.722781 
L 257.530552 213.395781 
L 255.454695 222.068781 
L 253.933582 227.850781 
L 251.439836 236.523781 
L 249.617642 242.305781 
L 249.617642 242.305781 
" clip-path="url(#p423f71f0e8)" style="fill: none; stroke: #486afb; stroke-width: 2"/>
    <path d="M 75.776078 242.305781 
L 73.745173 236.523781 
L 71.851957 230.741781 
L 69.274617 222.068781 
L 66.994577 213.395781 
L 65.622761 207.613781 
L 63.520229 197.701781 
L 62.161671 190.267781 
L 60.576685 180.266484 
L 59.610148 172.921781 
L 58.654595 164.248781 
L 57.896742 155.575781 
L 57.345185 146.902781 
L 56.99324 138.229781 
L 56.833265 129.556781 
L 56.86526 120.883781 
L 57.089225 112.210781 
L 57.633141 101.497075 
L 58.127393 94.864781 
L 58.951146 86.191781 
L 59.9726 77.518781 
L 61.210679 68.845781 
L 62.67113 60.172781 
L 64.361242 51.499781 
L 66.463774 42.091781 
L 68.490476 34.153781 
L 70.105786 28.371781 
L 72.776902 19.698781 
L 74.739265 13.916781 
M 240.68803 13.916781 
L 243.575338 22.589781 
L 246.152677 31.262781 
L 248.432717 39.935781 
L 249.804533 45.717781 
L 251.907065 55.629781 
L 253.265624 63.063781 
L 254.850609 73.065079 
L 255.817146 80.409781 
L 256.7727 89.082781 
L 257.530552 97.755781 
L 258.082109 106.428781 
L 258.434054 115.101781 
L 258.59403 123.774781 
L 258.562035 132.447781 
L 258.338069 141.120781 
L 257.794153 151.834487 
L 257.299902 158.466781 
L 256.476149 167.139781 
L 255.454695 175.812781 
L 254.216615 184.485781 
L 252.756164 193.158781 
L 251.066052 201.831781 
L 248.963521 211.239781 
L 246.936818 219.177781 
L 245.321508 224.959781 
L 242.650393 233.632781 
L 239.651217 242.305781 
L 239.651217 242.305781 
" clip-path="url(#p423f71f0e8)" style="fill: none; stroke: #486afb; stroke-width: 2"/>
    <path d="M 87.131212 242.305781 
L 85.942228 239.414781 
L 83.677736 233.632781 
L 80.62611 224.959781 
L 77.930217 216.286781 
L 75.294407 206.562509 
L 73.499877 198.940781 
L 71.702285 190.267781 
L 70.168149 181.594781 
L 68.876515 172.921781 
L 67.826973 164.248781 
L 66.994577 155.575781 
L 66.382009 146.902781 
L 65.996544 138.229781 
L 65.821334 129.556781 
L 65.856376 120.883781 
L 66.101671 112.210781 
L 66.560283 103.537781 
L 67.247915 94.864781 
L 68.152693 86.191781 
L 69.407318 76.610181 
L 70.654583 68.845781 
L 72.350862 59.742207 
L 74.158302 51.499781 
L 76.324647 42.826781 
L 78.793337 34.153781 
L 81.59994 25.480781 
L 84.785835 16.807781 
L 85.942228 13.916781 
M 229.485067 13.916781 
L 231.749558 19.698781 
L 234.801185 28.371781 
L 237.497078 37.044781 
L 240.132888 46.769054 
L 241.927417 54.390781 
L 243.72501 63.063781 
L 245.259145 71.736781 
L 246.550779 80.409781 
L 247.600322 89.082781 
L 248.432717 97.755781 
L 249.045286 106.428781 
L 249.43075 115.101781 
L 249.605961 123.774781 
L 249.570919 132.447781 
L 249.325623 141.120781 
L 248.867011 149.793781 
L 248.17938 158.466781 
L 247.274602 167.139781 
L 246.019976 176.721381 
L 244.772712 184.485781 
L 243.076432 193.589356 
L 241.268992 201.831781 
L 239.102647 210.504781 
L 236.633958 219.177781 
L 233.827354 227.850781 
L 230.641459 236.523781 
L 228.296082 242.305781 
L 228.296082 242.305781 
" clip-path="url(#p423f71f0e8)" style="fill: none; stroke: #486afb; stroke-width: 2"/>
    <path d="M 100.729648 242.305781 
L 97.837648 236.523781 
L 95.214672 230.741781 
L 92.824848 224.959781 
L 89.652014 216.286781 
L 86.888367 207.613781 
L 84.500492 198.940781 
L 83.100571 193.158781 
L 81.181495 184.189268 
L 79.695838 175.812781 
L 78.404567 167.139781 
L 77.702761 161.357781 
L 76.859837 152.684781 
L 76.257748 144.011781 
L 75.896495 135.338781 
L 75.776078 126.665781 
L 75.896495 117.992781 
L 76.257748 109.319781 
L 76.859837 100.646781 
L 77.702761 91.973781 
L 78.807221 83.300781 
L 80.181801 74.627781 
L 81.830806 65.954781 
L 83.77874 57.281781 
L 85.266414 51.499781 
L 87.068584 45.10915 
L 89.652014 37.044781 
L 91.729196 31.262781 
L 93.999604 25.480781 
L 96.491515 19.698781 
L 99.239007 13.916781 
M 216.188287 13.916781 
L 217.589646 16.807781 
L 220.212623 22.589781 
L 222.602446 28.371781 
L 225.775281 37.044781 
L 228.538927 45.717781 
L 230.926803 54.390781 
L 232.326724 60.172781 
L 234.245799 69.142294 
L 235.731456 77.518781 
L 237.022728 86.191781 
L 237.724533 91.973781 
L 238.567457 100.646781 
L 239.169546 109.319781 
L 239.530799 117.992781 
L 239.651217 126.665781 
L 239.530799 135.338781 
L 239.169546 144.011781 
L 238.567457 152.684781 
L 237.724533 161.357781 
L 236.620073 170.030781 
L 235.245493 178.703781 
L 233.596488 187.376781 
L 231.648554 196.049781 
L 230.16088 201.831781 
L 228.35871 208.222413 
L 225.775281 216.286781 
L 223.698099 222.068781 
L 221.42769 227.850781 
L 218.935779 233.632781 
L 216.188287 239.414781 
L 214.697646 242.305781 
L 214.697646 242.305781 
" clip-path="url(#p423f71f0e8)" style="fill: none; stroke: #486afb; stroke-width: 2"/>
    <path d="M 118.79345 242.305781 
L 116.504027 239.227054 
L 112.824597 233.632781 
L 109.47966 227.850781 
L 106.517002 222.068781 
L 103.874631 216.286781 
L 101.503272 210.504781 
L 98.842761 203.140913 
L 96.617154 196.049781 
L 95.009308 190.267781 
L 92.906613 181.594781 
L 91.189546 172.921781 
L 89.777271 164.248781 
L 88.696928 155.575781 
L 87.898413 146.902781 
L 87.381727 138.229781 
L 87.14687 129.556781 
L 87.193841 120.883781 
L 87.522641 112.210781 
L 88.13327 103.537781 
L 89.025728 94.864781 
L 90.208364 86.191781 
L 91.729196 77.518781 
L 92.955672 71.514397 
L 95.009308 63.063781 
L 96.617154 57.281781 
L 98.842761 50.190649 
L 101.503272 42.826781 
L 102.661413 39.935781 
L 105.150356 34.153781 
L 107.940989 28.371781 
L 111.091704 22.589781 
L 114.676999 16.807781 
L 116.640302 13.916781 
M 198.786992 13.916781 
L 200.750295 16.807781 
L 202.602698 19.698781 
L 205.947634 25.480781 
L 208.910293 31.262781 
L 211.552664 37.044781 
L 213.924022 42.826781 
L 216.584533 50.190649 
L 218.81014 57.281781 
L 220.417986 63.063781 
L 222.520681 71.736781 
L 224.237748 80.409781 
L 225.650023 89.082781 
L 226.730367 97.755781 
L 227.528881 106.428781 
L 228.045567 115.101781 
L 228.280425 123.774781 
L 228.233453 132.447781 
L 227.904653 141.120781 
L 227.294024 149.793781 
L 226.401567 158.466781 
L 225.21893 167.139781 
L 223.698099 175.812781 
L 222.471622 181.817166 
L 220.417986 190.267781 
L 218.81014 196.049781 
L 216.584533 203.140913 
L 213.924022 210.504781 
L 212.765881 213.395781 
L 210.276938 219.177781 
L 207.486305 224.959781 
L 204.335591 230.741781 
L 200.750295 236.523781 
L 198.786992 239.414781 
L 196.633844 242.305781 
L 196.633844 242.305781 
" clip-path="url(#p423f71f0e8)" style="fill: none; stroke: #486afb; stroke-width: 2"/>
    <path d="M 101.654223 146.902781 
L 101.408928 144.011781 
L 101.20137 141.120781 
L 101.03155 138.229781 
L 100.899468 135.338781 
L 100.805124 132.447781 
L 100.748517 129.556781 
L 100.729648 126.665781 
L 100.748517 123.774781 
L 100.805124 120.883781 
L 100.899468 117.992781 
L 101.03155 115.101781 
L 101.20137 112.210781 
L 101.408928 109.319781 
L 101.654223 106.428781 
L 101.786305 105.079648 
L 101.945416 103.537781 
L 102.283526 100.646781 
L 102.661413 97.755781 
L 103.079078 94.864781 
L 103.536521 91.973781 
L 104.033741 89.082781 
L 104.570739 86.191781 
L 104.72985 85.394264 
L 105.171381 83.300781 
L 105.823166 80.409781 
L 106.517002 77.518781 
L 107.252888 74.627781 
L 107.673394 73.065079 
L 108.052487 71.736781 
L 108.92217 68.845781 
L 109.836453 65.954781 
L 110.616938 63.601642 
L 110.806844 63.063781 
L 111.875066 60.172781 
L 112.990764 57.281781 
L 113.560483 55.865781 
L 114.194867 54.390781 
L 115.489012 51.499781 
L 116.504027 49.317894 
L 116.858342 48.608781 
L 118.35737 45.717781 
L 119.447571 43.689009 
L 119.947974 42.826781 
L 121.684665 39.935781 
L 122.391116 38.798339 
L 123.574932 37.044781 
L 125.33466 34.520892 
L 125.614997 34.153781 
L 127.89274 31.262781 
L 128.278204 30.788139 
L 130.447131 28.371781 
L 131.221748 27.53381 
L 133.342832 25.480781 
L 134.165293 24.707133 
L 136.716364 22.589781 
L 137.108837 22.272959 
L 140.052381 20.213617 
L 140.922065 19.698781 
L 142.995926 18.503835 
L 145.93947 17.116155 
L 146.780483 16.807781 
L 148.883014 16.056872 
L 151.826559 15.305963 
L 154.770103 14.855418 
L 157.713647 14.705236 
L 160.657191 14.855418 
L 163.600736 15.305963 
L 166.54428 16.056872 
L 168.646812 16.807781 
L 169.487824 17.116155 
L 172.431369 18.503835 
L 174.505229 19.698781 
L 175.374913 20.213617 
L 178.318457 22.272959 
L 178.71093 22.589781 
L 181.262002 24.707133 
L 182.084462 25.480781 
L 184.205546 27.53381 
L 184.980163 28.371781 
L 187.14909 30.788139 
L 187.534554 31.262781 
L 189.812297 34.153781 
L 190.092634 34.520892 
L 191.852362 37.044781 
L 193.036179 38.798339 
L 193.742629 39.935781 
L 195.479321 42.826781 
L 195.979723 43.689009 
L 197.069925 45.717781 
L 198.568952 48.608781 
L 198.923267 49.317894 
L 199.938283 51.499781 
L 201.232427 54.390781 
L 201.866812 55.865781 
L 202.43653 57.281781 
L 203.552228 60.172781 
L 204.62045 63.063781 
L 204.810356 63.601642 
L 205.590841 65.954781 
L 206.505124 68.845781 
L 207.374807 71.736781 
L 207.7539 73.065079 
L 208.174407 74.627781 
L 208.910293 77.518781 
L 209.604128 80.409781 
L 210.255913 83.300781 
L 210.697445 85.394264 
L 210.856555 86.191781 
L 211.393553 89.082781 
L 211.890773 91.973781 
L 212.348216 94.864781 
L 212.765881 97.755781 
L 213.143769 100.646781 
L 213.481878 103.537781 
L 213.640989 105.079648 
L 213.773071 106.428781 
L 214.018366 109.319781 
L 214.225924 112.210781 
L 214.395744 115.101781 
L 214.527826 117.992781 
L 214.62217 120.883781 
L 214.678777 123.774781 
L 214.697646 126.665781 
L 214.678777 129.556781 
L 214.62217 132.447781 
L 214.527826 135.338781 
L 214.395744 138.229781 
L 214.225924 141.120781 
L 214.018366 144.011781 
L 213.773071 146.902781 
L 213.640989 148.251915 
L 213.481878 149.793781 
L 213.143769 152.684781 
L 212.765881 155.575781 
L 212.348216 158.466781 
L 211.890773 161.357781 
L 211.393553 164.248781 
L 210.856555 167.139781 
L 210.697445 167.937298 
L 210.255913 170.030781 
L 209.604128 172.921781 
L 208.910293 175.812781 
L 208.174407 178.703781 
L 207.7539 180.266484 
L 207.374807 181.594781 
L 206.505124 184.485781 
L 205.590841 187.376781 
L 204.810356 189.729921 
L 204.62045 190.267781 
L 203.552228 193.158781 
L 202.43653 196.049781 
L 201.866812 197.465781 
L 201.232427 198.940781 
L 199.938283 201.831781 
L 198.923267 204.013668 
L 198.568952 204.722781 
L 197.069925 207.613781 
L 195.979723 209.642553 
L 195.479321 210.504781 
L 193.742629 213.395781 
L 193.036179 214.533224 
L 191.852362 216.286781 
L 190.092634 218.81067 
L 189.812297 219.177781 
L 187.534554 222.068781 
L 187.14909 222.543423 
L 184.980163 224.959781 
L 184.205546 225.797752 
L 182.084462 227.850781 
L 181.262002 228.624429 
L 178.71093 230.741781 
L 178.318457 231.058603 
L 175.374913 233.117946 
L 174.505229 233.632781 
L 172.431369 234.827728 
L 169.487824 236.215408 
L 168.646812 236.523781 
L 166.54428 237.27469 
L 163.600736 238.025599 
L 160.657191 238.476145 
L 157.713647 238.626327 
L 154.770103 238.476145 
L 151.826559 238.025599 
L 148.883014 237.27469 
L 146.780483 236.523781 
L 145.93947 236.215408 
L 142.995926 234.827728 
L 140.922065 233.632781 
L 140.052381 233.117946 
L 137.108837 231.058603 
L 136.716364 230.741781 
L 134.165293 228.624429 
L 133.342832 227.850781 
L 131.221748 225.797752 
L 130.447131 224.959781 
L 128.278204 222.543423 
L 127.89274 222.068781 
L 125.614997 219.177781 
L 125.33466 218.81067 
L 123.574932 216.286781 
L 122.391116 214.533224 
L 121.684665 213.395781 
L 119.947974 210.504781 
L 119.447571 209.642553 
L 118.35737 207.613781 
L 116.858342 204.722781 
L 116.504027 204.013668 
L 115.489012 201.831781 
L 114.194867 198.940781 
L 113.560483 197.465781 
L 112.990764 196.049781 
L 111.875066 193.158781 
L 110.806844 190.267781 
L 110.616938 189.729921 
L 109.836453 187.376781 
L 108.92217 184.485781 
L 108.052487 181.594781 
L 107.673394 180.266484 
L 107.252888 178.703781 
L 106.517002 175.812781 
L 105.823166 172.921781 
L 105.171381 170.030781 
L 104.72985 167.937298 
L 104.570739 167.139781 
L 104.033741 164.248781 
L 103.536521 161.357781 
L 103.079078 158.466781 
L 102.661413 155.575781 
L 102.283526 152.684781 
L 101.945416 149.793781 
L 101.786305 148.251915 
L 101.654223 146.902781 
z
" clip-path="url(#p423f71f0e8)" style="fill: none; stroke: #486afb; stroke-width: 2"/>
    <path d="M 119.229531 138.229781 
L 119.038746 135.338781 
L 118.90247 132.447781 
L 118.820705 129.556781 
L 118.79345 126.665781 
L 118.820705 123.774781 
L 118.90247 120.883781 
L 119.038746 117.992781 
L 119.229531 115.101781 
L 119.447571 112.532003 
L 119.477007 112.210781 
L 119.800797 109.319781 
L 120.183457 106.428781 
L 120.624989 103.537781 
L 121.125391 100.646781 
L 121.684665 97.755781 
L 122.302809 94.864781 
L 122.391116 94.487694 
L 123.031016 91.973781 
L 123.830893 89.082781 
L 124.694759 86.191781 
L 125.33466 84.197988 
L 125.65004 83.300781 
L 126.736348 80.409781 
L 127.89274 77.518781 
L 128.278204 76.610181 
L 129.207744 74.627781 
L 130.640786 71.736781 
L 131.221748 70.624858 
L 132.260646 68.845781 
L 134.03543 65.954781 
L 134.165293 65.753084 
L 136.127656 63.063781 
L 137.108837 61.778892 
L 138.524003 60.172781 
L 140.052381 58.511994 
L 141.390356 57.281781 
L 142.995926 55.865781 
L 145.040054 54.390781 
L 145.93947 53.767232 
L 148.883014 52.180017 
L 150.649141 51.499781 
L 151.826559 51.063404 
L 154.770103 50.408838 
L 157.713647 50.190649 
L 160.657191 50.408838 
L 163.600736 51.063404 
L 164.778153 51.499781 
L 166.54428 52.180017 
L 169.487824 53.767232 
L 170.387241 54.390781 
L 172.431369 55.865781 
L 174.036938 57.281781 
L 175.374913 58.511994 
L 176.903292 60.172781 
L 178.318457 61.778892 
L 179.299639 63.063781 
L 181.262002 65.753084 
L 181.391864 65.954781 
L 183.166648 68.845781 
L 184.205546 70.624858 
L 184.786509 71.736781 
L 186.21955 74.627781 
L 187.14909 76.610181 
L 187.534554 77.518781 
L 188.690947 80.409781 
L 189.777255 83.300781 
L 190.092634 84.197988 
L 190.732535 86.191781 
L 191.596402 89.082781 
L 192.396278 91.973781 
L 193.036179 94.487694 
L 193.124485 94.864781 
L 193.742629 97.755781 
L 194.301903 100.646781 
L 194.802305 103.537781 
L 195.243837 106.428781 
L 195.626498 109.319781 
L 195.950288 112.210781 
L 195.979723 112.532003 
L 196.197763 115.101781 
L 196.388549 117.992781 
L 196.524824 120.883781 
L 196.606589 123.774781 
L 196.633844 126.665781 
L 196.606589 129.556781 
L 196.524824 132.447781 
L 196.388549 135.338781 
L 196.197763 138.229781 
L 195.979723 140.799559 
L 195.950288 141.120781 
L 195.626498 144.011781 
L 195.243837 146.902781 
L 194.802305 149.793781 
L 194.301903 152.684781 
L 193.742629 155.575781 
L 193.124485 158.466781 
L 193.036179 158.843868 
L 192.396278 161.357781 
L 191.596402 164.248781 
L 190.732535 167.139781 
L 190.092634 169.133574 
L 189.777255 170.030781 
L 188.690947 172.921781 
L 187.534554 175.812781 
L 187.14909 176.721381 
L 186.21955 178.703781 
L 184.786509 181.594781 
L 184.205546 182.706704 
L 183.166648 184.485781 
L 181.391864 187.376781 
L 181.262002 187.578479 
L 179.299639 190.267781 
L 178.318457 191.55267 
L 176.903292 193.158781 
L 175.374913 194.819568 
L 174.036938 196.049781 
L 172.431369 197.465781 
L 170.387241 198.940781 
L 169.487824 199.56433 
L 166.54428 201.151546 
L 164.778153 201.831781 
L 163.600736 202.268159 
L 160.657191 202.922725 
L 157.713647 203.140913 
L 154.770103 202.922725 
L 151.826559 202.268159 
L 150.649141 201.831781 
L 148.883014 201.151546 
L 145.93947 199.56433 
L 145.040054 198.940781 
L 142.995926 197.465781 
L 141.390356 196.049781 
L 140.052381 194.819568 
L 138.524003 193.158781 
L 137.108837 191.55267 
L 136.127656 190.267781 
L 134.165293 187.578479 
L 134.03543 187.376781 
L 132.260646 184.485781 
L 131.221748 182.706704 
L 130.640786 181.594781 
L 129.207744 178.703781 
L 128.278204 176.721381 
L 127.89274 175.812781 
L 126.736348 172.921781 
L 125.65004 170.030781 
L 125.33466 169.133574 
L 124.694759 167.139781 
L 123.830893 164.248781 
L 123.031016 161.357781 
L 122.391116 158.843868 
L 122.302809 158.466781 
L 121.684665 155.575781 
L 121.125391 152.684781 
L 120.624989 149.793781 
L 120.183457 146.902781 
L 119.800797 144.011781 
L 119.477007 141.120781 
L 119.447571 140.799559 
L 119.229531 138.229781 
z
" clip-path="url(#p423f71f0e8)" style="fill: none; stroke: #486afb; stroke-width: 2"/>
    <path clip-path="url(#p423f71f0e8)" style="fill: none; stroke: #486afb; stroke-width: 2"/>
   </g>
   <g id="line2d_27">
    <path d="M 157.713647 243.338281 
L 158.915094 240.641138 
L 160.11654 237.943996 
L 161.317987 235.246853 
L 162.519434 232.54971 
L 163.72088 229.852567 
L 164.922327 227.155424 
L 166.123774 224.458281 
L 167.32522 221.761138 
L 168.526667 219.063996 
L 169.728114 216.366853 
L 170.92956 213.66971 
L 172.131007 210.972567 
L 173.332454 208.275424 
L 174.5339 205.578281 
L 175.735347 202.881138 
L 176.936794 200.183996 
L 178.13824 197.486853 
L 179.339687 194.78971 
L 180.541134 192.092567 
L 181.74258 189.395424 
L 182.944027 186.698281 
L 184.145474 184.001138 
L 185.34692 181.303996 
L 186.548367 178.606853 
L 187.749814 175.90971 
L 188.95126 173.212567 
L 190.152707 170.515424 
L 191.354153 167.818281 
L 192.5556 165.121138 
L 193.757047 162.423996 
L 194.958493 159.726853 
L 196.15994 157.02971 
L 197.361387 154.332567 
L 198.562833 151.635424 
L 199.76428 148.938281 
L 200.965727 146.241138 
L 202.167173 143.543996 
L 203.36862 140.846853 
L 204.570067 138.14971 
L 205.771513 135.452567 
L 206.97296 132.755424 
L 208.174407 130.058281 
L 209.375853 127.361138 
L 210.5773 124.663996 
L 211.778747 121.966853 
L 212.980193 119.26971 
L 214.18164 116.572567 
L 215.383087 113.875424 
L 216.584533 111.178281 
" clip-path="url(#p423f71f0e8)" style="fill: none; stroke: #fd46fc; stroke-width: 2; stroke-linecap: square"/>
   </g>
   <g id="patch_4">
    <path d="M 39.971875 242.305781 
L 39.971875 11.025781 
" style="fill: none; stroke: #000000; stroke-width: 0.6; stroke-linejoin: miter; stroke-linecap: square"/>
   </g>
   <g id="patch_5">
    <path d="M 39.971875 242.305781 
L 272.511875 242.305781 
" style="fill: none; stroke: #000000; stroke-width: 0.6; stroke-linejoin: miter; stroke-linecap: square"/>
   </g>
  </g>
 </g>
 <defs>
  <clipPath id="p423f71f0e8">
   <rect x="39.971875" y="11.025781" width="232.54" height="231.28"/>
  </clipPath>
 </defs>
</svg>