<?xml version="1.0" encoding="utf-8" standalone="no"?>
<!DOCTYPE svg PUBLIC "-//W3C//DTD SVG 1.1//EN"
  "http://www.w3.org/Graphics/SVG/1.1/DTD/svg11.dtd">
<svg xmlns:xlink="http://www.w3.org/1999/xlink" width="352.441562pt" height="206.46pt" viewBox="0 0 352.441562 206.46" xmlns="http://www.w3.org/2000/svg" version="1.1">
 <metadata>
  <rdf:RDF xmlns:dc="http://purl.org/dc/elements/1.1/" xmlns:cc="http://creativecommons.org/ns#" xmlns:rdf="http://www.w3.org/1999/02/22-rdf-syntax-ns#">
   <cc:Work>
    <dc:type rdf:resource="http://purl.org/dc/dcmitype/StillImage"/>
    <dc:date>2023-12-03T17:40:19.551210</dc:date>
    <dc:format>image/svg+xml</dc:format>
    <dc:creator>
     <cc:Agent>
      <dc:title>Matplotlib v3.8.2, https://matplotlib.org/</dc:title>
     </cc:Agent>
    </dc:creator>
   </cc:Work>
  </rdf:RDF>
 </metadata>
 <defs>
  <style type="text/css">*{stroke-linejoin: round; stroke-linecap: butt}</style>
 </defs>
 <g id="figure_1">
  <g id="patch_1">
   <path d="M 0 206.46 
L 352.441562 206.46 
L 352.441562 0 
L 0 0 
z
" style="fill: #ffffff"/>
  </g>
  <g id="axes_1">
   <g id="patch_2">
    <path d="M 33.951563 168.7975 
L 170.641562 168.7975 
L 170.641562 22.3575 
L 33.951563 22.3575 
z
" style="fill: #ffffff"/>
   </g>
   <g id="matplotlib.axis_1">
    <g id="xtick_1">
     <g id="line2d_1">
      <path d="M 40.164744 168.7975 
L 40.164744 22.3575 
" clip-path="url(#p0cf87386cd)" style="fill: none; stroke-dasharray: 2.22,0.96; stroke-dashoffset: 0; stroke: #6c6066; stroke-opacity: 0.4; stroke-width: 0.6"/>
     </g>
     <g id="line2d_2">
      <defs>
       <path id="md91dc1564d" d="M 0 0 
L 0 3.5 
" style="stroke: #000000; stroke-width: 0.8"/>
      </defs>
      <g>
       <use xlink:href="#md91dc1564d" x="40.164744" y="168.7975" style="stroke: #000000; stroke-width: 0.8"/>
      </g>
     </g>
     <g id="text_1">
      <!-- 0 -->
      <g transform="translate(37.154588 183.449062) scale(0.1 -0.1)">
       <defs>
        <path id="DejaVuSansMono-30" d="M 1509 2344 
Q 1509 2516 1629 2641 
Q 1750 2766 1919 2766 
Q 2094 2766 2219 2641 
Q 2344 2516 2344 2344 
Q 2344 2169 2220 2047 
Q 2097 1925 1919 1925 
Q 1744 1925 1626 2044 
Q 1509 2163 1509 2344 
z
M 1925 4250 
Q 1484 4250 1267 3775 
Q 1050 3300 1050 2328 
Q 1050 1359 1267 884 
Q 1484 409 1925 409 
Q 2369 409 2586 884 
Q 2803 1359 2803 2328 
Q 2803 3300 2586 3775 
Q 2369 4250 1925 4250 
z
M 1925 4750 
Q 2672 4750 3055 4137 
Q 3438 3525 3438 2328 
Q 3438 1134 3055 521 
Q 2672 -91 1925 -91 
Q 1178 -91 797 521 
Q 416 1134 416 2328 
Q 416 3525 797 4137 
Q 1178 4750 1925 4750 
z
" transform="scale(0.015625)"/>
       </defs>
       <use xlink:href="#DejaVuSansMono-30"/>
      </g>
     </g>
    </g>
    <g id="xtick_2">
     <g id="line2d_3">
      <path d="M 96.648215 168.7975 
L 96.648215 22.3575 
" clip-path="url(#p0cf87386cd)" style="fill: none; stroke-dasharray: 2.22,0.96; stroke-dashoffset: 0; stroke: #6c6066; stroke-opacity: 0.4; stroke-width: 0.6"/>
     </g>
     <g id="line2d_4">
      <g>
       <use xlink:href="#md91dc1564d" x="96.648215" y="168.7975" style="stroke: #000000; stroke-width: 0.8"/>
      </g>
     </g>
     <g id="text_2">
      <!-- 5 -->
      <g transform="translate(93.638059 183.449062) scale(0.1 -0.1)">
       <defs>
        <path id="DejaVuSansMono-35" d="M 647 4666 
L 3009 4666 
L 3009 4134 
L 1222 4134 
L 1222 2988 
Q 1356 3038 1492 3061 
Q 1628 3084 1766 3084 
Q 2491 3084 2916 2656 
Q 3341 2228 3341 1497 
Q 3341 759 2895 334 
Q 2450 -91 1678 -91 
Q 1306 -91 998 -41 
Q 691 9 447 109 
L 447 750 
Q 734 594 1025 517 
Q 1316 441 1619 441 
Q 2141 441 2423 716 
Q 2706 991 2706 1497 
Q 2706 1997 2414 2275 
Q 2122 2553 1600 2553 
Q 1347 2553 1106 2495 
Q 866 2438 647 2322 
L 647 4666 
z
" transform="scale(0.015625)"/>
       </defs>
       <use xlink:href="#DejaVuSansMono-35"/>
      </g>
     </g>
    </g>
    <g id="xtick_3">
     <g id="line2d_5">
      <path d="M 153.131686 168.7975 
L 153.131686 22.3575 
" clip-path="url(#p0cf87386cd)" style="fill: none; stroke-dasharray: 2.22,0.96; stroke-dashoffset: 0; stroke: #6c6066; stroke-opacity: 0.4; stroke-width: 0.6"/>
     </g>
     <g id="line2d_6">
      <g>
       <use xlink:href="#md91dc1564d" x="153.131686" y="168.7975" style="stroke: #000000; stroke-width: 0.8"/>
      </g>
     </g>
     <g id="text_3">
      <!-- 10 -->
      <g transform="translate(147.111374 183.449062) scale(0.1 -0.1)">
       <defs>
        <path id="DejaVuSansMono-31" d="M 844 531 
L 1825 531 
L 1825 4097 
L 769 3859 
L 769 4434 
L 1819 4666 
L 2450 4666 
L 2450 531 
L 3419 531 
L 3419 0 
L 844 0 
L 844 531 
z
" transform="scale(0.015625)"/>
       </defs>
       <use xlink:href="#DejaVuSansMono-31"/>
       <use xlink:href="#DejaVuSansMono-30" x="60.205078"/>
      </g>
     </g>
    </g>
    <g id="text_4">
     <!-- epochs -->
     <g transform="translate(84.235625 197.180312) scale(0.1 -0.1)">
      <defs>
       <path id="DejaVuSansMono-65" d="M 3475 1894 
L 3475 1613 
L 984 1613 
L 984 1594 
Q 984 1022 1282 709 
Q 1581 397 2125 397 
Q 2400 397 2700 484 
Q 3000 572 3341 750 
L 3341 178 
Q 3013 44 2708 -23 
Q 2403 -91 2119 -91 
Q 1303 -91 843 398 
Q 384 888 384 1747 
Q 384 2584 834 3084 
Q 1284 3584 2034 3584 
Q 2703 3584 3089 3131 
Q 3475 2678 3475 1894 
z
M 2900 2063 
Q 2888 2569 2661 2833 
Q 2434 3097 2009 3097 
Q 1594 3097 1325 2822 
Q 1056 2547 1006 2059 
L 2900 2063 
z
" transform="scale(0.015625)"/>
       <path id="DejaVuSansMono-70" d="M 1172 441 
L 1172 -1331 
L 594 -1331 
L 594 3500 
L 1172 3500 
L 1172 3053 
Q 1316 3313 1555 3448 
Q 1794 3584 2106 3584 
Q 2741 3584 3102 3093 
Q 3463 2603 3463 1734 
Q 3463 881 3100 395 
Q 2738 -91 2106 -91 
Q 1788 -91 1548 45 
Q 1309 181 1172 441 
z
M 2859 1747 
Q 2859 2416 2648 2756 
Q 2438 3097 2022 3097 
Q 1603 3097 1387 2755 
Q 1172 2413 1172 1747 
Q 1172 1084 1387 740 
Q 1603 397 2022 397 
Q 2438 397 2648 737 
Q 2859 1078 2859 1747 
z
" transform="scale(0.015625)"/>
       <path id="DejaVuSansMono-6f" d="M 1925 3097 
Q 1488 3097 1263 2756 
Q 1038 2416 1038 1747 
Q 1038 1081 1263 739 
Q 1488 397 1925 397 
Q 2366 397 2591 739 
Q 2816 1081 2816 1747 
Q 2816 2416 2591 2756 
Q 2366 3097 1925 3097 
z
M 1925 3584 
Q 2653 3584 3039 3112 
Q 3425 2641 3425 1747 
Q 3425 850 3040 379 
Q 2656 -91 1925 -91 
Q 1197 -91 812 379 
Q 428 850 428 1747 
Q 428 2641 812 3112 
Q 1197 3584 1925 3584 
z
" transform="scale(0.015625)"/>
       <path id="DejaVuSansMono-63" d="M 3316 178 
Q 3084 44 2839 -23 
Q 2594 -91 2338 -91 
Q 1525 -91 1067 396 
Q 609 884 609 1747 
Q 609 2609 1067 3096 
Q 1525 3584 2338 3584 
Q 2591 3584 2831 3518 
Q 3072 3453 3316 3316 
L 3316 2713 
Q 3088 2916 2858 3006 
Q 2628 3097 2338 3097 
Q 1797 3097 1506 2747 
Q 1216 2397 1216 1747 
Q 1216 1100 1508 748 
Q 1800 397 2338 397 
Q 2638 397 2875 489 
Q 3113 581 3316 775 
L 3316 178 
z
" transform="scale(0.015625)"/>
       <path id="DejaVuSansMono-68" d="M 3284 2169 
L 3284 0 
L 2706 0 
L 2706 2169 
Q 2706 2641 2540 2862 
Q 2375 3084 2022 3084 
Q 1619 3084 1401 2798 
Q 1184 2513 1184 1978 
L 1184 0 
L 609 0 
L 609 4863 
L 1184 4863 
L 1184 2975 
Q 1338 3275 1600 3429 
Q 1863 3584 2222 3584 
Q 2756 3584 3020 3232 
Q 3284 2881 3284 2169 
z
" transform="scale(0.015625)"/>
       <path id="DejaVuSansMono-73" d="M 3041 3378 
L 3041 2816 
Q 2794 2959 2544 3031 
Q 2294 3103 2034 3103 
Q 1644 3103 1451 2976 
Q 1259 2850 1259 2591 
Q 1259 2356 1403 2240 
Q 1547 2125 2119 2016 
L 2350 1972 
Q 2778 1891 2998 1647 
Q 3219 1403 3219 1013 
Q 3219 494 2850 201 
Q 2481 -91 1825 -91 
Q 1566 -91 1281 -36 
Q 997 19 666 128 
L 666 722 
Q 988 556 1281 473 
Q 1575 391 1838 391 
Q 2219 391 2428 545 
Q 2638 700 2638 978 
Q 2638 1378 1872 1531 
L 1847 1538 
L 1631 1581 
Q 1134 1678 906 1908 
Q 678 2138 678 2534 
Q 678 3038 1018 3311 
Q 1359 3584 1991 3584 
Q 2272 3584 2531 3532 
Q 2791 3481 3041 3378 
z
" transform="scale(0.015625)"/>
      </defs>
      <use xlink:href="#DejaVuSansMono-65"/>
      <use xlink:href="#DejaVuSansMono-70" x="60.205078"/>
      <use xlink:href="#DejaVuSansMono-6f" x="120.410156"/>
      <use xlink:href="#DejaVuSansMono-63" x="180.615234"/>
      <use xlink:href="#DejaVuSansMono-68" x="240.820312"/>
      <use xlink:href="#DejaVuSansMono-73" x="301.025391"/>
     </g>
    </g>
   </g>
   <g id="matplotlib.axis_2">
    <g id="ytick_1">
     <g id="line2d_7">
      <path d="M 33.951563 161.69732 
L 170.641562 161.69732 
" clip-path="url(#p0cf87386cd)" style="fill: none; stroke-dasharray: 2.22,0.96; stroke-dashoffset: 0; stroke: #6c6066; stroke-opacity: 0.4; stroke-width: 0.6"/>
     </g>
     <g id="line2d_8">
      <defs>
       <path id="m95966ac5e1" d="M 0 0 
L -3.5 0 
" style="stroke: #000000; stroke-width: 0.8"/>
      </defs>
      <g>
       <use xlink:href="#m95966ac5e1" x="33.951563" y="161.69732" style="stroke: #000000; stroke-width: 0.8"/>
      </g>
     </g>
     <g id="text_5">
      <!-- 2 -->
      <g transform="translate(20.93125 165.523101) scale(0.1 -0.1)">
       <defs>
        <path id="DejaVuSansMono-32" d="M 1166 531 
L 3309 531 
L 3309 0 
L 475 0 
L 475 531 
Q 1059 1147 1496 1619 
Q 1934 2091 2100 2284 
Q 2413 2666 2522 2902 
Q 2631 3138 2631 3384 
Q 2631 3775 2401 3997 
Q 2172 4219 1772 4219 
Q 1488 4219 1175 4116 
Q 863 4013 513 3803 
L 513 4441 
Q 834 4594 1145 4672 
Q 1456 4750 1759 4750 
Q 2444 4750 2861 4386 
Q 3278 4022 3278 3431 
Q 3278 3131 3139 2831 
Q 3000 2531 2688 2169 
Q 2513 1966 2180 1606 
Q 1847 1247 1166 531 
z
" transform="scale(0.015625)"/>
       </defs>
       <use xlink:href="#DejaVuSansMono-32"/>
      </g>
     </g>
    </g>
    <g id="ytick_2">
     <g id="line2d_9">
      <path d="M 33.951563 131.944253 
L 170.641562 131.944253 
" clip-path="url(#p0cf87386cd)" style="fill: none; stroke-dasharray: 2.22,0.96; stroke-dashoffset: 0; stroke: #6c6066; stroke-opacity: 0.4; stroke-width: 0.6"/>
     </g>
     <g id="line2d_10">
      <g>
       <use xlink:href="#m95966ac5e1" x="33.951563" y="131.944253" style="stroke: #000000; stroke-width: 0.8"/>
      </g>
     </g>
     <g id="text_6">
      <!-- 3 -->
      <g transform="translate(20.93125 135.770034) scale(0.1 -0.1)">
       <defs>
        <path id="DejaVuSansMono-33" d="M 2425 2497 
Q 2884 2375 3128 2064 
Q 3372 1753 3372 1288 
Q 3372 644 2939 276 
Q 2506 -91 1741 -91 
Q 1419 -91 1084 -31 
Q 750 28 428 141 
L 428 769 
Q 747 603 1056 522 
Q 1366 441 1672 441 
Q 2191 441 2469 675 
Q 2747 909 2747 1350 
Q 2747 1756 2469 1995 
Q 2191 2234 1716 2234 
L 1234 2234 
L 1234 2753 
L 1716 2753 
Q 2150 2753 2394 2943 
Q 2638 3134 2638 3475 
Q 2638 3834 2411 4026 
Q 2184 4219 1766 4219 
Q 1488 4219 1191 4156 
Q 894 4094 569 3969 
L 569 4550 
Q 947 4650 1242 4700 
Q 1538 4750 1766 4750 
Q 2447 4750 2855 4408 
Q 3263 4066 3263 3500 
Q 3263 3116 3048 2859 
Q 2834 2603 2425 2497 
z
" transform="scale(0.015625)"/>
       </defs>
       <use xlink:href="#DejaVuSansMono-33"/>
      </g>
     </g>
    </g>
    <g id="ytick_3">
     <g id="line2d_11">
      <path d="M 33.951563 102.191186 
L 170.641562 102.191186 
" clip-path="url(#p0cf87386cd)" style="fill: none; stroke-dasharray: 2.22,0.96; stroke-dashoffset: 0; stroke: #6c6066; stroke-opacity: 0.4; stroke-width: 0.6"/>
     </g>
     <g id="line2d_12">
      <g>
       <use xlink:href="#m95966ac5e1" x="33.951563" y="102.191186" style="stroke: #000000; stroke-width: 0.8"/>
      </g>
     </g>
     <g id="text_7">
      <!-- 4 -->
      <g transform="translate(20.93125 106.016968) scale(0.1 -0.1)">
       <defs>
        <path id="DejaVuSansMono-34" d="M 2297 4091 
L 825 1625 
L 2297 1625 
L 2297 4091 
z
M 2194 4666 
L 2925 4666 
L 2925 1625 
L 3547 1625 
L 3547 1113 
L 2925 1113 
L 2925 0 
L 2297 0 
L 2297 1113 
L 319 1113 
L 319 1709 
L 2194 4666 
z
" transform="scale(0.015625)"/>
       </defs>
       <use xlink:href="#DejaVuSansMono-34"/>
      </g>
     </g>
    </g>
    <g id="ytick_4">
     <g id="line2d_13">
      <path d="M 33.951563 72.438119 
L 170.641562 72.438119 
" clip-path="url(#p0cf87386cd)" style="fill: none; stroke-dasharray: 2.22,0.96; stroke-dashoffset: 0; stroke: #6c6066; stroke-opacity: 0.4; stroke-width: 0.6"/>
     </g>
     <g id="line2d_14">
      <g>
       <use xlink:href="#m95966ac5e1" x="33.951563" y="72.438119" style="stroke: #000000; stroke-width: 0.8"/>
      </g>
     </g>
     <g id="text_8">
      <!-- 5 -->
      <g transform="translate(20.93125 76.263901) scale(0.1 -0.1)">
       <use xlink:href="#DejaVuSansMono-35"/>
      </g>
     </g>
    </g>
    <g id="ytick_5">
     <g id="line2d_15">
      <path d="M 33.951563 42.685052 
L 170.641562 42.685052 
" clip-path="url(#p0cf87386cd)" style="fill: none; stroke-dasharray: 2.22,0.96; stroke-dashoffset: 0; stroke: #6c6066; stroke-opacity: 0.4; stroke-width: 0.6"/>
     </g>
     <g id="line2d_16">
      <g>
       <use xlink:href="#m95966ac5e1" x="33.951563" y="42.685052" style="stroke: #000000; stroke-width: 0.8"/>
      </g>
     </g>
     <g id="text_9">
      <!-- 6 -->
      <g transform="translate(20.93125 46.510834) scale(0.1 -0.1)">
       <defs>
        <path id="DejaVuSansMono-36" d="M 3097 4563 
L 3097 3981 
Q 2900 4097 2678 4158 
Q 2456 4219 2216 4219 
Q 1616 4219 1306 3767 
Q 997 3316 997 2438 
Q 1147 2750 1412 2917 
Q 1678 3084 2022 3084 
Q 2697 3084 3067 2670 
Q 3438 2256 3438 1497 
Q 3438 741 3056 325 
Q 2675 -91 1984 -91 
Q 1172 -91 794 492 
Q 416 1075 416 2328 
Q 416 3509 870 4129 
Q 1325 4750 2188 4750 
Q 2419 4750 2650 4701 
Q 2881 4653 3097 4563 
z
M 1972 2591 
Q 1569 2591 1337 2300 
Q 1106 2009 1106 1497 
Q 1106 984 1337 693 
Q 1569 403 1972 403 
Q 2391 403 2603 679 
Q 2816 956 2816 1497 
Q 2816 2041 2603 2316 
Q 2391 2591 1972 2591 
z
" transform="scale(0.015625)"/>
       </defs>
       <use xlink:href="#DejaVuSansMono-36"/>
      </g>
     </g>
    </g>
    <g id="text_10">
     <!-- objective -->
     <g transform="translate(14.851562 122.668906) rotate(-90) scale(0.1 -0.1)">
      <defs>
       <path id="DejaVuSansMono-62" d="M 2869 1747 
Q 2869 2416 2656 2756 
Q 2444 3097 2028 3097 
Q 1609 3097 1393 2755 
Q 1178 2413 1178 1747 
Q 1178 1084 1393 740 
Q 1609 397 2028 397 
Q 2444 397 2656 737 
Q 2869 1078 2869 1747 
z
M 1178 3053 
Q 1316 3309 1558 3446 
Q 1800 3584 2119 3584 
Q 2750 3584 3112 3098 
Q 3475 2613 3475 1759 
Q 3475 894 3111 401 
Q 2747 -91 2113 -91 
Q 1800 -91 1561 45 
Q 1322 181 1178 441 
L 1178 0 
L 603 0 
L 603 4863 
L 1178 4863 
L 1178 3053 
z
" transform="scale(0.015625)"/>
       <path id="DejaVuSansMono-6a" d="M 1875 -63 
L 1875 3053 
L 884 3053 
L 884 3500 
L 2450 3500 
L 2450 -63 
Q 2450 -672 2170 -1001 
Q 1891 -1331 1375 -1331 
L 581 -1331 
L 581 -844 
L 1313 -844 
Q 1594 -844 1734 -648 
Q 1875 -453 1875 -63 
z
M 1875 4863 
L 2450 4863 
L 2450 4134 
L 1875 4134 
L 1875 4863 
z
" transform="scale(0.015625)"/>
       <path id="DejaVuSansMono-74" d="M 1919 4494 
L 1919 3500 
L 3225 3500 
L 3225 3053 
L 1919 3053 
L 1919 1153 
Q 1919 766 2066 612 
Q 2213 459 2578 459 
L 3225 459 
L 3225 0 
L 2522 0 
Q 1875 0 1609 259 
Q 1344 519 1344 1153 
L 1344 3053 
L 409 3053 
L 409 3500 
L 1344 3500 
L 1344 4494 
L 1919 4494 
z
" transform="scale(0.015625)"/>
       <path id="DejaVuSansMono-69" d="M 800 3500 
L 2272 3500 
L 2272 447 
L 3413 447 
L 3413 0 
L 556 0 
L 556 447 
L 1697 447 
L 1697 3053 
L 800 3053 
L 800 3500 
z
M 1697 4863 
L 2272 4863 
L 2272 4134 
L 1697 4134 
L 1697 4863 
z
" transform="scale(0.015625)"/>
       <path id="DejaVuSansMono-76" d="M 313 3500 
L 909 3500 
L 1925 563 
L 2944 3500 
L 3541 3500 
L 2297 0 
L 1556 0 
L 313 3500 
z
" transform="scale(0.015625)"/>
      </defs>
      <use xlink:href="#DejaVuSansMono-6f"/>
      <use xlink:href="#DejaVuSansMono-62" x="60.205078"/>
      <use xlink:href="#DejaVuSansMono-6a" x="120.410156"/>
      <use xlink:href="#DejaVuSansMono-65" x="180.615234"/>
      <use xlink:href="#DejaVuSansMono-63" x="240.820312"/>
      <use xlink:href="#DejaVuSansMono-74" x="301.025391"/>
      <use xlink:href="#DejaVuSansMono-69" x="361.230469"/>
      <use xlink:href="#DejaVuSansMono-76" x="421.435547"/>
      <use xlink:href="#DejaVuSansMono-65" x="481.640625"/>
     </g>
    </g>
   </g>
   <g id="line2d_17">
    <path d="M 40.164744 29.013864 
L 51.461439 77.295959 
L 62.758133 108.196472 
L 74.054827 127.972812 
L 85.351521 140.629668 
L 96.648215 148.730059 
L 107.94491 153.914307 
L 119.241604 157.232222 
L 130.538298 159.355695 
L 141.834992 160.71471 
L 153.131686 161.584488 
L 164.428381 162.141136 
" clip-path="url(#p0cf87386cd)" style="fill: none; stroke: #486afb; stroke-width: 2; stroke-linecap: square"/>
   </g>
   <g id="patch_3">
    <path d="M 33.951563 168.7975 
L 33.951563 22.3575 
" style="fill: none; stroke: #000000; stroke-width: 0.6; stroke-linejoin: miter; stroke-linecap: square"/>
   </g>
   <g id="patch_4">
    <path d="M 33.951563 168.7975 
L 170.641562 168.7975 
" style="fill: none; stroke: #000000; stroke-width: 0.6; stroke-linejoin: miter; stroke-linecap: square"/>
   </g>
   <g id="text_11">
    <!-- $\alpha=0.1$, $\gamma=1$ -->
    <g transform="translate(59.456562 16.3575) scale(0.12 -0.12)">
     <defs>
      <path id="DejaVuSans-Oblique-3b1" d="M 2619 1628 
L 2622 2350 
Q 2625 3088 2069 3091 
Q 1653 3094 1394 2747 
Q 1069 2319 959 1747 
Q 825 1059 994 731 
Q 1169 397 1547 397 
Q 1966 397 2319 1063 
L 2619 1628 
z
M 2166 3578 
Q 3141 3594 3128 2584 
Q 3128 2584 3616 3500 
L 4128 3500 
L 3119 1603 
L 3109 919 
Q 3109 766 3194 638 
Q 3291 488 3391 488 
L 3669 488 
L 3575 0 
L 3228 0 
Q 2934 0 2722 263 
Q 2622 394 2619 669 
Q 2416 334 2066 50 
Q 1900 -81 1453 -78 
Q 722 -72 456 397 
Q 184 884 353 1747 
Q 534 2675 1009 3097 
Q 1544 3569 2166 3578 
z
" transform="scale(0.015625)"/>
      <path id="DejaVuSans-3d" d="M 678 2906 
L 4684 2906 
L 4684 2381 
L 678 2381 
L 678 2906 
z
M 678 1631 
L 4684 1631 
L 4684 1100 
L 678 1100 
L 678 1631 
z
" transform="scale(0.015625)"/>
      <path id="DejaVuSans-30" d="M 2034 4250 
Q 1547 4250 1301 3770 
Q 1056 3291 1056 2328 
Q 1056 1369 1301 889 
Q 1547 409 2034 409 
Q 2525 409 2770 889 
Q 3016 1369 3016 2328 
Q 3016 3291 2770 3770 
Q 2525 4250 2034 4250 
z
M 2034 4750 
Q 2819 4750 3233 4129 
Q 3647 3509 3647 2328 
Q 3647 1150 3233 529 
Q 2819 -91 2034 -91 
Q 1250 -91 836 529 
Q 422 1150 422 2328 
Q 422 3509 836 4129 
Q 1250 4750 2034 4750 
z
" transform="scale(0.015625)"/>
      <path id="DejaVuSans-2e" d="M 684 794 
L 1344 794 
L 1344 0 
L 684 0 
L 684 794 
z
" transform="scale(0.015625)"/>
      <path id="DejaVuSans-31" d="M 794 531 
L 1825 531 
L 1825 4091 
L 703 3866 
L 703 4441 
L 1819 4666 
L 2450 4666 
L 2450 531 
L 3481 531 
L 3481 0 
L 794 0 
L 794 531 
z
" transform="scale(0.015625)"/>
      <path id="DejaVuSansMono-2c" d="M 1569 947 
L 2356 947 
L 2356 300 
L 1741 -897 
L 1259 -897 
L 1569 300 
L 1569 947 
z
" transform="scale(0.015625)"/>
      <path id="DejaVuSansMono-20" transform="scale(0.015625)"/>
      <path id="DejaVuSans-Oblique-3b3" d="M 1491 2950 
L 1838 788 
L 3456 3500 
L 4066 3500 
L 1972 0 
L 1713 -1331 
L 1138 -1331 
L 1397 0 
L 988 2613 
Q 925 3006 628 3006 
L 475 3006 
L 569 3500 
L 788 3500 
Q 1403 3500 1491 2950 
z
" transform="scale(0.015625)"/>
     </defs>
     <use xlink:href="#DejaVuSans-Oblique-3b1" transform="translate(0 0.78125)"/>
     <use xlink:href="#DejaVuSans-3d" transform="translate(85.400391 0.78125)"/>
     <use xlink:href="#DejaVuSans-30" transform="translate(188.671875 0.78125)"/>
     <use xlink:href="#DejaVuSans-2e" transform="translate(252.294922 0.78125)"/>
     <use xlink:href="#DejaVuSans-31" transform="translate(284.082031 0.78125)"/>
     <use xlink:href="#DejaVuSansMono-2c" transform="translate(347.705078 0.78125)"/>
     <use xlink:href="#DejaVuSansMono-20" transform="translate(407.910156 0.78125)"/>
     <use xlink:href="#DejaVuSans-Oblique-3b3" transform="translate(468.115234 0.78125)"/>
     <use xlink:href="#DejaVuSans-3d" transform="translate(546.777344 0.78125)"/>
     <use xlink:href="#DejaVuSans-31" transform="translate(650.048828 0.78125)"/>
    </g>
   </g>
  </g>
  <g id="axes_2">
   <g id="patch_5">
    <path d="M 208.551562 168.7975 
L 345.241562 168.7975 
L 345.241562 22.3575 
L 208.551562 22.3575 
z
" style="fill: #ffffff"/>
   </g>
   <g id="matplotlib.axis_3">
    <g id="xtick_4">
     <g id="line2d_18">
      <path d="M 214.764744 168.7975 
L 214.764744 22.3575 
" clip-path="url(#pbe54fe1708)" style="fill: none; stroke-dasharray: 2.22,0.96; stroke-dashoffset: 0; stroke: #6c6066; stroke-opacity: 0.4; stroke-width: 0.6"/>
     </g>
     <g id="line2d_19">
      <g>
       <use xlink:href="#md91dc1564d" x="214.764744" y="168.7975" style="stroke: #000000; stroke-width: 0.8"/>
      </g>
     </g>
     <g id="text_12">
      <!-- 0 -->
      <g transform="translate(211.754588 183.449062) scale(0.1 -0.1)">
       <use xlink:href="#DejaVuSansMono-30"/>
      </g>
     </g>
    </g>
    <g id="xtick_5">
     <g id="line2d_20">
      <path d="M 265.484596 168.7975 
L 265.484596 22.3575 
" clip-path="url(#pbe54fe1708)" style="fill: none; stroke-dasharray: 2.22,0.96; stroke-dashoffset: 0; stroke: #6c6066; stroke-opacity: 0.4; stroke-width: 0.6"/>
     </g>
     <g id="line2d_21">
      <g>
       <use xlink:href="#md91dc1564d" x="265.484596" y="168.7975" style="stroke: #000000; stroke-width: 0.8"/>
      </g>
     </g>
     <g id="text_13">
      <!-- 20 -->
      <g transform="translate(259.464283 183.449062) scale(0.1 -0.1)">
       <use xlink:href="#DejaVuSansMono-32"/>
       <use xlink:href="#DejaVuSansMono-30" x="60.205078"/>
      </g>
     </g>
    </g>
    <g id="xtick_6">
     <g id="line2d_22">
      <path d="M 316.204447 168.7975 
L 316.204447 22.3575 
" clip-path="url(#pbe54fe1708)" style="fill: none; stroke-dasharray: 2.22,0.96; stroke-dashoffset: 0; stroke: #6c6066; stroke-opacity: 0.4; stroke-width: 0.6"/>
     </g>
     <g id="line2d_23">
      <g>
       <use xlink:href="#md91dc1564d" x="316.204447" y="168.7975" style="stroke: #000000; stroke-width: 0.8"/>
      </g>
     </g>
     <g id="text_14">
      <!-- 40 -->
      <g transform="translate(310.184135 183.449062) scale(0.1 -0.1)">
       <use xlink:href="#DejaVuSansMono-34"/>
       <use xlink:href="#DejaVuSansMono-30" x="60.205078"/>
      </g>
     </g>
    </g>
    <g id="text_15">
     <!-- epochs -->
     <g transform="translate(258.835625 197.180312) scale(0.1 -0.1)">
      <use xlink:href="#DejaVuSansMono-65"/>
      <use xlink:href="#DejaVuSansMono-70" x="60.205078"/>
      <use xlink:href="#DejaVuSansMono-6f" x="120.410156"/>
      <use xlink:href="#DejaVuSansMono-63" x="180.615234"/>
      <use xlink:href="#DejaVuSansMono-68" x="240.820312"/>
      <use xlink:href="#DejaVuSansMono-73" x="301.025391"/>
     </g>
    </g>
   </g>
   <g id="matplotlib.axis_4">
    <g id="ytick_6">
     <g id="line2d_24">
      <path d="M 208.551562 161.025288 
L 345.241562 161.025288 
" clip-path="url(#pbe54fe1708)" style="fill: none; stroke-dasharray: 2.22,0.96; stroke-dashoffset: 0; stroke: #6c6066; stroke-opacity: 0.4; stroke-width: 0.6"/>
     </g>
     <g id="line2d_25">
      <g>
       <use xlink:href="#m95966ac5e1" x="208.551562" y="161.025288" style="stroke: #000000; stroke-width: 0.8"/>
      </g>
     </g>
     <g id="text_16">
      <!-- 2 -->
      <g transform="translate(195.53125 164.851069) scale(0.1 -0.1)">
       <use xlink:href="#DejaVuSansMono-32"/>
      </g>
     </g>
    </g>
    <g id="ytick_7">
     <g id="line2d_26">
      <path d="M 208.551562 131.422918 
L 345.241562 131.422918 
" clip-path="url(#pbe54fe1708)" style="fill: none; stroke-dasharray: 2.22,0.96; stroke-dashoffset: 0; stroke: #6c6066; stroke-opacity: 0.4; stroke-width: 0.6"/>
     </g>
     <g id="line2d_27">
      <g>
       <use xlink:href="#m95966ac5e1" x="208.551562" y="131.422918" style="stroke: #000000; stroke-width: 0.8"/>
      </g>
     </g>
     <g id="text_17">
      <!-- 3 -->
      <g transform="translate(195.53125 135.248699) scale(0.1 -0.1)">
       <use xlink:href="#DejaVuSansMono-33"/>
      </g>
     </g>
    </g>
    <g id="ytick_8">
     <g id="line2d_28">
      <path d="M 208.551562 101.820548 
L 345.241562 101.820548 
" clip-path="url(#pbe54fe1708)" style="fill: none; stroke-dasharray: 2.22,0.96; stroke-dashoffset: 0; stroke: #6c6066; stroke-opacity: 0.4; stroke-width: 0.6"/>
     </g>
     <g id="line2d_29">
      <g>
       <use xlink:href="#m95966ac5e1" x="208.551562" y="101.820548" style="stroke: #000000; stroke-width: 0.8"/>
      </g>
     </g>
     <g id="text_18">
      <!-- 4 -->
      <g transform="translate(195.53125 105.64633) scale(0.1 -0.1)">
       <use xlink:href="#DejaVuSansMono-34"/>
      </g>
     </g>
    </g>
    <g id="ytick_9">
     <g id="line2d_30">
      <path d="M 208.551562 72.218179 
L 345.241562 72.218179 
" clip-path="url(#pbe54fe1708)" style="fill: none; stroke-dasharray: 2.22,0.96; stroke-dashoffset: 0; stroke: #6c6066; stroke-opacity: 0.4; stroke-width: 0.6"/>
     </g>
     <g id="line2d_31">
      <g>
       <use xlink:href="#m95966ac5e1" x="208.551562" y="72.218179" style="stroke: #000000; stroke-width: 0.8"/>
      </g>
     </g>
     <g id="text_19">
      <!-- 5 -->
      <g transform="translate(195.53125 76.04396) scale(0.1 -0.1)">
       <use xlink:href="#DejaVuSansMono-35"/>
      </g>
     </g>
    </g>
    <g id="ytick_10">
     <g id="line2d_32">
      <path d="M 208.551562 42.615809 
L 345.241562 42.615809 
" clip-path="url(#pbe54fe1708)" style="fill: none; stroke-dasharray: 2.22,0.96; stroke-dashoffset: 0; stroke: #6c6066; stroke-opacity: 0.4; stroke-width: 0.6"/>
     </g>
     <g id="line2d_33">
      <g>
       <use xlink:href="#m95966ac5e1" x="208.551562" y="42.615809" style="stroke: #000000; stroke-width: 0.8"/>
      </g>
     </g>
     <g id="text_20">
      <!-- 6 -->
      <g transform="translate(195.53125 46.44159) scale(0.1 -0.1)">
       <use xlink:href="#DejaVuSansMono-36"/>
      </g>
     </g>
    </g>
    <g id="text_21">
     <!-- objective -->
     <g transform="translate(189.451562 122.668906) rotate(-90) scale(0.1 -0.1)">
      <use xlink:href="#DejaVuSansMono-6f"/>
      <use xlink:href="#DejaVuSansMono-62" x="60.205078"/>
      <use xlink:href="#DejaVuSansMono-6a" x="120.410156"/>
      <use xlink:href="#DejaVuSansMono-65" x="180.615234"/>
      <use xlink:href="#DejaVuSansMono-63" x="240.820312"/>
      <use xlink:href="#DejaVuSansMono-74" x="301.025391"/>
      <use xlink:href="#DejaVuSansMono-69" x="361.230469"/>
      <use xlink:href="#DejaVuSansMono-76" x="421.435547"/>
      <use xlink:href="#DejaVuSansMono-65" x="481.640625"/>
     </g>
    </g>
   </g>
   <g id="line2d_34">
    <path d="M 214.764744 29.013864 
L 217.300737 44.545992 
L 219.836729 58.270192 
L 222.372722 70.396883 
L 224.908715 81.112051 
L 227.444707 90.579944 
L 229.9807 98.945798 
L 232.516692 106.33785 
L 235.052685 112.869478 
L 237.588678 118.640823 
L 240.12467 123.740382 
L 242.660663 128.24635 
L 245.196655 132.227827 
L 247.732648 135.745849 
L 250.26864 138.854381 
L 252.804633 141.601083 
L 255.340626 144.028075 
L 257.876618 146.172553 
L 260.412611 148.067412 
L 262.948603 149.741716 
L 265.484596 151.221127 
L 268.020588 152.528344 
L 270.556581 153.683388 
L 273.092574 154.703995 
L 275.628566 155.6058 
L 278.164559 156.402628 
L 280.700551 157.106709 
L 283.236544 157.728843 
L 285.772537 158.278565 
L 288.308529 158.764279 
L 290.844522 159.193476 
L 293.380514 159.572696 
L 295.916507 159.907791 
L 298.452499 160.203864 
L 300.988492 160.465488 
L 303.524485 160.696657 
L 306.060477 160.900916 
L 308.59647 161.081397 
L 311.132462 161.24087 
L 313.668455 161.381782 
L 316.204447 161.506295 
L 318.74044 161.616311 
L 321.276433 161.713518 
L 323.812425 161.799414 
L 326.348418 161.87531 
L 328.88441 161.942383 
L 331.420403 162.001636 
L 333.956396 162.053991 
L 336.492388 162.100258 
L 339.028381 162.141136 
" clip-path="url(#pbe54fe1708)" style="fill: none; stroke: #486afb; stroke-width: 2; stroke-linecap: square"/>
   </g>
   <g id="patch_6">
    <path d="M 208.551562 168.7975 
L 208.551562 22.3575 
" style="fill: none; stroke: #000000; stroke-width: 0.6; stroke-linejoin: miter; stroke-linecap: square"/>
   </g>
   <g id="patch_7">
    <path d="M 208.551562 168.7975 
L 345.241562 168.7975 
" style="fill: none; stroke: #000000; stroke-width: 0.6; stroke-linejoin: miter; stroke-linecap: square"/>
   </g>
   <g id="text_22">
    <!-- $\alpha=0.03$, $\gamma=1$ -->
    <g transform="translate(230.216562 16.3575) scale(0.12 -0.12)">
     <defs>
      <path id="DejaVuSans-33" d="M 2597 2516 
Q 3050 2419 3304 2112 
Q 3559 1806 3559 1356 
Q 3559 666 3084 287 
Q 2609 -91 1734 -91 
Q 1441 -91 1130 -33 
Q 819 25 488 141 
L 488 750 
Q 750 597 1062 519 
Q 1375 441 1716 441 
Q 2309 441 2620 675 
Q 2931 909 2931 1356 
Q 2931 1769 2642 2001 
Q 2353 2234 1838 2234 
L 1294 2234 
L 1294 2753 
L 1863 2753 
Q 2328 2753 2575 2939 
Q 2822 3125 2822 3475 
Q 2822 3834 2567 4026 
Q 2313 4219 1838 4219 
Q 1578 4219 1281 4162 
Q 984 4106 628 3988 
L 628 4550 
Q 988 4650 1302 4700 
Q 1616 4750 1894 4750 
Q 2613 4750 3031 4423 
Q 3450 4097 3450 3541 
Q 3450 3153 3228 2886 
Q 3006 2619 2597 2516 
z
" transform="scale(0.015625)"/>
     </defs>
     <use xlink:href="#DejaVuSans-Oblique-3b1" transform="translate(0 0.78125)"/>
     <use xlink:href="#DejaVuSans-3d" transform="translate(85.400391 0.78125)"/>
     <use xlink:href="#DejaVuSans-30" transform="translate(188.671875 0.78125)"/>
     <use xlink:href="#DejaVuSans-2e" transform="translate(252.294922 0.78125)"/>
     <use xlink:href="#DejaVuSans-30" transform="translate(284.082031 0.78125)"/>
     <use xlink:href="#DejaVuSans-33" transform="translate(347.705078 0.78125)"/>
     <use xlink:href="#DejaVuSansMono-2c" transform="translate(411.328125 0.78125)"/>
     <use xlink:href="#DejaVuSansMono-20" transform="translate(471.533203 0.78125)"/>
     <use xlink:href="#DejaVuSans-Oblique-3b3" transform="translate(531.738281 0.78125)"/>
     <use xlink:href="#DejaVuSans-3d" transform="translate(610.400391 0.78125)"/>
     <use xlink:href="#DejaVuSans-31" transform="translate(713.671875 0.78125)"/>
    </g>
   </g>
  </g>
 </g>
 <defs>
  <clipPath id="p0cf87386cd">
   <rect x="33.951563" y="22.3575" width="136.69" height="146.44"/>
  </clipPath>
  <clipPath id="pbe54fe1708">
   <rect x="208.551562" y="22.3575" width="136.69" height="146.44"/>
  </clipPath>
 </defs>
</svg>