<?xml version="1.0" encoding="utf-8" standalone="no"?>
<!DOCTYPE svg PUBLIC "-//W3C//DTD SVG 1.1//EN"
  "http://www.w3.org/Graphics/SVG/1.1/DTD/svg11.dtd">
<svg xmlns:xlink="http://www.w3.org/1999/xlink" width="709.620625pt" height="493.1025pt" viewBox="0 0 709.620625 493.1025" xmlns="http://www.w3.org/2000/svg" version="1.1">
 <metadata>
  <rdf:RDF xmlns:dc="http://purl.org/dc/elements/1.1/" xmlns:cc="http://creativecommons.org/ns#" xmlns:rdf="http://www.w3.org/1999/02/22-rdf-syntax-ns#">
   <cc:Work>
    <dc:type rdf:resource="http://purl.org/dc/dcmitype/StillImage"/>
    <dc:date>2023-12-02T09:46:05.838259</dc:date>
    <dc:format>image/svg+xml</dc:format>
    <dc:creator>
     <cc:Agent>
      <dc:title>Matplotlib v3.8.2, https://matplotlib.org/</dc:title>
     </cc:Agent>
    </dc:creator>
   </cc:Work>
  </rdf:RDF>
 </metadata>
 <defs>
  <style type="text/css">*{stroke-linejoin: round; stroke-linecap: butt}</style>
 </defs>
 <g id="figure_1">
  <g id="patch_1">
   <path d="M 0 493.1025 
L 709.620625 493.1025 
L 709.620625 0 
L 0 0 
z
" style="fill: #ffffff"/>
  </g>
  <g id="axes_1">
   <g id="patch_2">
    <path d="M 40.040625 208.84 
L 347.820625 208.84 
L 347.820625 22.44 
L 40.040625 22.44 
z
" style="fill: #ffffff"/>
   </g>
   <g id="matplotlib.axis_1">
    <g id="xtick_1">
     <g id="line2d_1">
      <path d="M 54.030625 208.84 
L 54.030625 22.44 
" clip-path="url(#pd090d6e750)" style="fill: none; stroke-dasharray: 2.22,0.96; stroke-dashoffset: 0; stroke: #6c6066; stroke-opacity: 0.4; stroke-width: 0.6"/>
     </g>
     <g id="line2d_2">
      <defs>
       <path id="m3886958fb2" d="M 0 0 
L 0 3.5 
" style="stroke: #000000; stroke-width: 0.8"/>
      </defs>
      <g>
       <use xlink:href="#m3886958fb2" x="54.030625" y="208.84" style="stroke: #000000; stroke-width: 0.8"/>
      </g>
     </g>
     <g id="text_1">
      <!-- −0.5 -->
      <g transform="translate(41.99 223.491562) scale(0.1 -0.1)">
       <defs>
        <path id="DejaVuSansMono-2212" d="M 275 2272 
L 3578 2272 
L 3578 1741 
L 275 1741 
L 275 2272 
z
" transform="scale(0.015625)"/>
        <path id="DejaVuSansMono-30" d="M 1509 2344 
Q 1509 2516 1629 2641 
Q 1750 2766 1919 2766 
Q 2094 2766 2219 2641 
Q 2344 2516 2344 2344 
Q 2344 2169 2220 2047 
Q 2097 1925 1919 1925 
Q 1744 1925 1626 2044 
Q 1509 2163 1509 2344 
z
M 1925 4250 
Q 1484 4250 1267 3775 
Q 1050 3300 1050 2328 
Q 1050 1359 1267 884 
Q 1484 409 1925 409 
Q 2369 409 2586 884 
Q 2803 1359 2803 2328 
Q 2803 3300 2586 3775 
Q 2369 4250 1925 4250 
z
M 1925 4750 
Q 2672 4750 3055 4137 
Q 3438 3525 3438 2328 
Q 3438 1134 3055 521 
Q 2672 -91 1925 -91 
Q 1178 -91 797 521 
Q 416 1134 416 2328 
Q 416 3525 797 4137 
Q 1178 4750 1925 4750 
z
" transform="scale(0.015625)"/>
        <path id="DejaVuSansMono-2e" d="M 1528 953 
L 2316 953 
L 2316 0 
L 1528 0 
L 1528 953 
z
" transform="scale(0.015625)"/>
        <path id="DejaVuSansMono-35" d="M 647 4666 
L 3009 4666 
L 3009 4134 
L 1222 4134 
L 1222 2988 
Q 1356 3038 1492 3061 
Q 1628 3084 1766 3084 
Q 2491 3084 2916 2656 
Q 3341 2228 3341 1497 
Q 3341 759 2895 334 
Q 2450 -91 1678 -91 
Q 1306 -91 998 -41 
Q 691 9 447 109 
L 447 750 
Q 734 594 1025 517 
Q 1316 441 1619 441 
Q 2141 441 2423 716 
Q 2706 991 2706 1497 
Q 2706 1997 2414 2275 
Q 2122 2553 1600 2553 
Q 1347 2553 1106 2495 
Q 866 2438 647 2322 
L 647 4666 
z
" transform="scale(0.015625)"/>
       </defs>
       <use xlink:href="#DejaVuSansMono-2212"/>
       <use xlink:href="#DejaVuSansMono-30" x="60.205078"/>
       <use xlink:href="#DejaVuSansMono-2e" x="120.410156"/>
       <use xlink:href="#DejaVuSansMono-35" x="180.615234"/>
      </g>
     </g>
    </g>
    <g id="xtick_2">
     <g id="line2d_3">
      <path d="M 89.005625 208.84 
L 89.005625 22.44 
" clip-path="url(#pd090d6e750)" style="fill: none; stroke-dasharray: 2.22,0.96; stroke-dashoffset: 0; stroke: #6c6066; stroke-opacity: 0.4; stroke-width: 0.6"/>
     </g>
     <g id="line2d_4">
      <g>
       <use xlink:href="#m3886958fb2" x="89.005625" y="208.84" style="stroke: #000000; stroke-width: 0.8"/>
      </g>
     </g>
     <g id="text_2">
      <!-- 0.0 -->
      <g transform="translate(79.975156 223.491562) scale(0.1 -0.1)">
       <use xlink:href="#DejaVuSansMono-30"/>
       <use xlink:href="#DejaVuSansMono-2e" x="60.205078"/>
       <use xlink:href="#DejaVuSansMono-30" x="120.410156"/>
      </g>
     </g>
    </g>
    <g id="xtick_3">
     <g id="line2d_5">
      <path d="M 123.980625 208.84 
L 123.980625 22.44 
" clip-path="url(#pd090d6e750)" style="fill: none; stroke-dasharray: 2.22,0.96; stroke-dashoffset: 0; stroke: #6c6066; stroke-opacity: 0.4; stroke-width: 0.6"/>
     </g>
     <g id="line2d_6">
      <g>
       <use xlink:href="#m3886958fb2" x="123.980625" y="208.84" style="stroke: #000000; stroke-width: 0.8"/>
      </g>
     </g>
     <g id="text_3">
      <!-- 0.5 -->
      <g transform="translate(114.950156 223.491562) scale(0.1 -0.1)">
       <use xlink:href="#DejaVuSansMono-30"/>
       <use xlink:href="#DejaVuSansMono-2e" x="60.205078"/>
       <use xlink:href="#DejaVuSansMono-35" x="120.410156"/>
      </g>
     </g>
    </g>
    <g id="xtick_4">
     <g id="line2d_7">
      <path d="M 158.955625 208.84 
L 158.955625 22.44 
" clip-path="url(#pd090d6e750)" style="fill: none; stroke-dasharray: 2.22,0.96; stroke-dashoffset: 0; stroke: #6c6066; stroke-opacity: 0.4; stroke-width: 0.6"/>
     </g>
     <g id="line2d_8">
      <g>
       <use xlink:href="#m3886958fb2" x="158.955625" y="208.84" style="stroke: #000000; stroke-width: 0.8"/>
      </g>
     </g>
     <g id="text_4">
      <!-- 1.0 -->
      <g transform="translate(149.925156 223.491562) scale(0.1 -0.1)">
       <defs>
        <path id="DejaVuSansMono-31" d="M 844 531 
L 1825 531 
L 1825 4097 
L 769 3859 
L 769 4434 
L 1819 4666 
L 2450 4666 
L 2450 531 
L 3419 531 
L 3419 0 
L 844 0 
L 844 531 
z
" transform="scale(0.015625)"/>
       </defs>
       <use xlink:href="#DejaVuSansMono-31"/>
       <use xlink:href="#DejaVuSansMono-2e" x="60.205078"/>
       <use xlink:href="#DejaVuSansMono-30" x="120.410156"/>
      </g>
     </g>
    </g>
    <g id="xtick_5">
     <g id="line2d_9">
      <path d="M 193.930625 208.84 
L 193.930625 22.44 
" clip-path="url(#pd090d6e750)" style="fill: none; stroke-dasharray: 2.22,0.96; stroke-dashoffset: 0; stroke: #6c6066; stroke-opacity: 0.4; stroke-width: 0.6"/>
     </g>
     <g id="line2d_10">
      <g>
       <use xlink:href="#m3886958fb2" x="193.930625" y="208.84" style="stroke: #000000; stroke-width: 0.8"/>
      </g>
     </g>
     <g id="text_5">
      <!-- 1.5 -->
      <g transform="translate(184.900156 223.491562) scale(0.1 -0.1)">
       <use xlink:href="#DejaVuSansMono-31"/>
       <use xlink:href="#DejaVuSansMono-2e" x="60.205078"/>
       <use xlink:href="#DejaVuSansMono-35" x="120.410156"/>
      </g>
     </g>
    </g>
    <g id="xtick_6">
     <g id="line2d_11">
      <path d="M 228.905625 208.84 
L 228.905625 22.44 
" clip-path="url(#pd090d6e750)" style="fill: none; stroke-dasharray: 2.22,0.96; stroke-dashoffset: 0; stroke: #6c6066; stroke-opacity: 0.4; stroke-width: 0.6"/>
     </g>
     <g id="line2d_12">
      <g>
       <use xlink:href="#m3886958fb2" x="228.905625" y="208.84" style="stroke: #000000; stroke-width: 0.8"/>
      </g>
     </g>
     <g id="text_6">
      <!-- 2.0 -->
      <g transform="translate(219.875156 223.491562) scale(0.1 -0.1)">
       <defs>
        <path id="DejaVuSansMono-32" d="M 1166 531 
L 3309 531 
L 3309 0 
L 475 0 
L 475 531 
Q 1059 1147 1496 1619 
Q 1934 2091 2100 2284 
Q 2413 2666 2522 2902 
Q 2631 3138 2631 3384 
Q 2631 3775 2401 3997 
Q 2172 4219 1772 4219 
Q 1488 4219 1175 4116 
Q 863 4013 513 3803 
L 513 4441 
Q 834 4594 1145 4672 
Q 1456 4750 1759 4750 
Q 2444 4750 2861 4386 
Q 3278 4022 3278 3431 
Q 3278 3131 3139 2831 
Q 3000 2531 2688 2169 
Q 2513 1966 2180 1606 
Q 1847 1247 1166 531 
z
" transform="scale(0.015625)"/>
       </defs>
       <use xlink:href="#DejaVuSansMono-32"/>
       <use xlink:href="#DejaVuSansMono-2e" x="60.205078"/>
       <use xlink:href="#DejaVuSansMono-30" x="120.410156"/>
      </g>
     </g>
    </g>
    <g id="xtick_7">
     <g id="line2d_13">
      <path d="M 263.880625 208.84 
L 263.880625 22.44 
" clip-path="url(#pd090d6e750)" style="fill: none; stroke-dasharray: 2.22,0.96; stroke-dashoffset: 0; stroke: #6c6066; stroke-opacity: 0.4; stroke-width: 0.6"/>
     </g>
     <g id="line2d_14">
      <g>
       <use xlink:href="#m3886958fb2" x="263.880625" y="208.84" style="stroke: #000000; stroke-width: 0.8"/>
      </g>
     </g>
     <g id="text_7">
      <!-- 2.5 -->
      <g transform="translate(254.850156 223.491562) scale(0.1 -0.1)">
       <use xlink:href="#DejaVuSansMono-32"/>
       <use xlink:href="#DejaVuSansMono-2e" x="60.205078"/>
       <use xlink:href="#DejaVuSansMono-35" x="120.410156"/>
      </g>
     </g>
    </g>
    <g id="xtick_8">
     <g id="line2d_15">
      <path d="M 298.855625 208.84 
L 298.855625 22.44 
" clip-path="url(#pd090d6e750)" style="fill: none; stroke-dasharray: 2.22,0.96; stroke-dashoffset: 0; stroke: #6c6066; stroke-opacity: 0.4; stroke-width: 0.6"/>
     </g>
     <g id="line2d_16">
      <g>
       <use xlink:href="#m3886958fb2" x="298.855625" y="208.84" style="stroke: #000000; stroke-width: 0.8"/>
      </g>
     </g>
     <g id="text_8">
      <!-- 3.0 -->
      <g transform="translate(289.825156 223.491562) scale(0.1 -0.1)">
       <defs>
        <path id="DejaVuSansMono-33" d="M 2425 2497 
Q 2884 2375 3128 2064 
Q 3372 1753 3372 1288 
Q 3372 644 2939 276 
Q 2506 -91 1741 -91 
Q 1419 -91 1084 -31 
Q 750 28 428 141 
L 428 769 
Q 747 603 1056 522 
Q 1366 441 1672 441 
Q 2191 441 2469 675 
Q 2747 909 2747 1350 
Q 2747 1756 2469 1995 
Q 2191 2234 1716 2234 
L 1234 2234 
L 1234 2753 
L 1716 2753 
Q 2150 2753 2394 2943 
Q 2638 3134 2638 3475 
Q 2638 3834 2411 4026 
Q 2184 4219 1766 4219 
Q 1488 4219 1191 4156 
Q 894 4094 569 3969 
L 569 4550 
Q 947 4650 1242 4700 
Q 1538 4750 1766 4750 
Q 2447 4750 2855 4408 
Q 3263 4066 3263 3500 
Q 3263 3116 3048 2859 
Q 2834 2603 2425 2497 
z
" transform="scale(0.015625)"/>
       </defs>
       <use xlink:href="#DejaVuSansMono-33"/>
       <use xlink:href="#DejaVuSansMono-2e" x="60.205078"/>
       <use xlink:href="#DejaVuSansMono-30" x="120.410156"/>
      </g>
     </g>
    </g>
    <g id="xtick_9">
     <g id="line2d_17">
      <path d="M 333.830625 208.84 
L 333.830625 22.44 
" clip-path="url(#pd090d6e750)" style="fill: none; stroke-dasharray: 2.22,0.96; stroke-dashoffset: 0; stroke: #6c6066; stroke-opacity: 0.4; stroke-width: 0.6"/>
     </g>
     <g id="line2d_18">
      <g>
       <use xlink:href="#m3886958fb2" x="333.830625" y="208.84" style="stroke: #000000; stroke-width: 0.8"/>
      </g>
     </g>
     <g id="text_9">
      <!-- 3.5 -->
      <g transform="translate(324.800156 223.491562) scale(0.1 -0.1)">
       <use xlink:href="#DejaVuSansMono-33"/>
       <use xlink:href="#DejaVuSansMono-2e" x="60.205078"/>
       <use xlink:href="#DejaVuSansMono-35" x="120.410156"/>
      </g>
     </g>
    </g>
    <g id="text_10">
     <!-- $\theta$ -->
     <g transform="translate(190.830625 237.222812) scale(0.1 -0.1)">
      <defs>
       <path id="DejaVuSans-Oblique-3b8" d="M 2913 2219 
L 925 2219 
Q 791 1284 928 888 
Q 1100 400 1566 400 
Q 2034 400 2391 891 
Q 2703 1322 2913 2219 
z
M 3009 2750 
Q 3094 3638 2984 3950 
Q 2813 4444 2353 4444 
Q 1875 4444 1525 3956 
Q 1250 3563 1034 2750 
L 3009 2750 
z
M 2444 4913 
Q 3194 4913 3494 4250 
Q 3794 3591 3566 2422 
Q 3341 1256 2781 594 
Q 2225 -72 1475 -72 
Q 722 -72 425 594 
Q 128 1256 353 2422 
Q 581 3591 1134 4250 
Q 1691 4913 2444 4913 
z
" transform="scale(0.015625)"/>
      </defs>
      <use xlink:href="#DejaVuSans-Oblique-3b8" transform="translate(0 0.234375)"/>
     </g>
    </g>
   </g>
   <g id="matplotlib.axis_2">
    <g id="ytick_1">
     <g id="line2d_19">
      <path d="M 40.040625 205.673024 
L 347.820625 205.673024 
" clip-path="url(#pd090d6e750)" style="fill: none; stroke-dasharray: 2.22,0.96; stroke-dashoffset: 0; stroke: #6c6066; stroke-opacity: 0.4; stroke-width: 0.6"/>
     </g>
     <g id="line2d_20">
      <defs>
       <path id="m7e774decaa" d="M 0 0 
L -3.5 0 
" style="stroke: #000000; stroke-width: 0.8"/>
      </defs>
      <g>
       <use xlink:href="#m7e774decaa" x="40.040625" y="205.673024" style="stroke: #000000; stroke-width: 0.8"/>
      </g>
     </g>
     <g id="text_11">
      <!-- 0 -->
      <g transform="translate(27.020312 209.498805) scale(0.1 -0.1)">
       <use xlink:href="#DejaVuSansMono-30"/>
      </g>
     </g>
    </g>
    <g id="ytick_2">
     <g id="line2d_21">
      <path d="M 40.040625 174.077942 
L 347.820625 174.077942 
" clip-path="url(#pd090d6e750)" style="fill: none; stroke-dasharray: 2.22,0.96; stroke-dashoffset: 0; stroke: #6c6066; stroke-opacity: 0.4; stroke-width: 0.6"/>
     </g>
     <g id="line2d_22">
      <g>
       <use xlink:href="#m7e774decaa" x="40.040625" y="174.077942" style="stroke: #000000; stroke-width: 0.8"/>
      </g>
     </g>
     <g id="text_12">
      <!-- 2 -->
      <g transform="translate(27.020312 177.903723) scale(0.1 -0.1)">
       <use xlink:href="#DejaVuSansMono-32"/>
      </g>
     </g>
    </g>
    <g id="ytick_3">
     <g id="line2d_23">
      <path d="M 40.040625 142.48286 
L 347.820625 142.48286 
" clip-path="url(#pd090d6e750)" style="fill: none; stroke-dasharray: 2.22,0.96; stroke-dashoffset: 0; stroke: #6c6066; stroke-opacity: 0.4; stroke-width: 0.6"/>
     </g>
     <g id="line2d_24">
      <g>
       <use xlink:href="#m7e774decaa" x="40.040625" y="142.48286" style="stroke: #000000; stroke-width: 0.8"/>
      </g>
     </g>
     <g id="text_13">
      <!-- 4 -->
      <g transform="translate(27.020312 146.308641) scale(0.1 -0.1)">
       <defs>
        <path id="DejaVuSansMono-34" d="M 2297 4091 
L 825 1625 
L 2297 1625 
L 2297 4091 
z
M 2194 4666 
L 2925 4666 
L 2925 1625 
L 3547 1625 
L 3547 1113 
L 2925 1113 
L 2925 0 
L 2297 0 
L 2297 1113 
L 319 1113 
L 319 1709 
L 2194 4666 
z
" transform="scale(0.015625)"/>
       </defs>
       <use xlink:href="#DejaVuSansMono-34"/>
      </g>
     </g>
    </g>
    <g id="ytick_4">
     <g id="line2d_25">
      <path d="M 40.040625 110.887778 
L 347.820625 110.887778 
" clip-path="url(#pd090d6e750)" style="fill: none; stroke-dasharray: 2.22,0.96; stroke-dashoffset: 0; stroke: #6c6066; stroke-opacity: 0.4; stroke-width: 0.6"/>
     </g>
     <g id="line2d_26">
      <g>
       <use xlink:href="#m7e774decaa" x="40.040625" y="110.887778" style="stroke: #000000; stroke-width: 0.8"/>
      </g>
     </g>
     <g id="text_14">
      <!-- 6 -->
      <g transform="translate(27.020312 114.713559) scale(0.1 -0.1)">
       <defs>
        <path id="DejaVuSansMono-36" d="M 3097 4563 
L 3097 3981 
Q 2900 4097 2678 4158 
Q 2456 4219 2216 4219 
Q 1616 4219 1306 3767 
Q 997 3316 997 2438 
Q 1147 2750 1412 2917 
Q 1678 3084 2022 3084 
Q 2697 3084 3067 2670 
Q 3438 2256 3438 1497 
Q 3438 741 3056 325 
Q 2675 -91 1984 -91 
Q 1172 -91 794 492 
Q 416 1075 416 2328 
Q 416 3509 870 4129 
Q 1325 4750 2188 4750 
Q 2419 4750 2650 4701 
Q 2881 4653 3097 4563 
z
M 1972 2591 
Q 1569 2591 1337 2300 
Q 1106 2009 1106 1497 
Q 1106 984 1337 693 
Q 1569 403 1972 403 
Q 2391 403 2603 679 
Q 2816 956 2816 1497 
Q 2816 2041 2603 2316 
Q 2391 2591 1972 2591 
z
" transform="scale(0.015625)"/>
       </defs>
       <use xlink:href="#DejaVuSansMono-36"/>
      </g>
     </g>
    </g>
    <g id="ytick_5">
     <g id="line2d_27">
      <path d="M 40.040625 79.292696 
L 347.820625 79.292696 
" clip-path="url(#pd090d6e750)" style="fill: none; stroke-dasharray: 2.22,0.96; stroke-dashoffset: 0; stroke: #6c6066; stroke-opacity: 0.4; stroke-width: 0.6"/>
     </g>
     <g id="line2d_28">
      <g>
       <use xlink:href="#m7e774decaa" x="40.040625" y="79.292696" style="stroke: #000000; stroke-width: 0.8"/>
      </g>
     </g>
     <g id="text_15">
      <!-- 8 -->
      <g transform="translate(27.020312 83.118478) scale(0.1 -0.1)">
       <defs>
        <path id="DejaVuSansMono-38" d="M 1925 2216 
Q 1503 2216 1273 1980 
Q 1044 1744 1044 1313 
Q 1044 881 1276 642 
Q 1509 403 1925 403 
Q 2350 403 2579 639 
Q 2809 875 2809 1313 
Q 2809 1741 2576 1978 
Q 2344 2216 1925 2216 
z
M 1375 2478 
Q 972 2581 745 2862 
Q 519 3144 519 3541 
Q 519 4097 897 4423 
Q 1275 4750 1925 4750 
Q 2578 4750 2956 4423 
Q 3334 4097 3334 3541 
Q 3334 3144 3107 2862 
Q 2881 2581 2478 2478 
Q 2947 2375 3195 2062 
Q 3444 1750 3444 1253 
Q 3444 622 3041 265 
Q 2638 -91 1925 -91 
Q 1213 -91 811 264 
Q 409 619 409 1247 
Q 409 1747 657 2061 
Q 906 2375 1375 2478 
z
M 1147 3481 
Q 1147 3106 1347 2909 
Q 1547 2713 1925 2713 
Q 2306 2713 2506 2909 
Q 2706 3106 2706 3481 
Q 2706 3863 2507 4063 
Q 2309 4263 1925 4263 
Q 1547 4263 1347 4061 
Q 1147 3859 1147 3481 
z
" transform="scale(0.015625)"/>
       </defs>
       <use xlink:href="#DejaVuSansMono-38"/>
      </g>
     </g>
    </g>
    <g id="ytick_6">
     <g id="line2d_29">
      <path d="M 40.040625 47.697615 
L 347.820625 47.697615 
" clip-path="url(#pd090d6e750)" style="fill: none; stroke-dasharray: 2.22,0.96; stroke-dashoffset: 0; stroke: #6c6066; stroke-opacity: 0.4; stroke-width: 0.6"/>
     </g>
     <g id="line2d_30">
      <g>
       <use xlink:href="#m7e774decaa" x="40.040625" y="47.697615" style="stroke: #000000; stroke-width: 0.8"/>
      </g>
     </g>
     <g id="text_16">
      <!-- 10 -->
      <g transform="translate(21 51.523396) scale(0.1 -0.1)">
       <use xlink:href="#DejaVuSansMono-31"/>
       <use xlink:href="#DejaVuSansMono-30" x="60.205078"/>
      </g>
     </g>
    </g>
    <g id="text_17">
     <!-- $J(\theta)$ -->
     <g transform="translate(14.9 124.09) rotate(-90) scale(0.1 -0.1)">
      <defs>
       <path id="DejaVuSans-Oblique-4a" d="M 1069 4666 
L 1703 4666 
L 856 325 
Q 691 -522 298 -901 
Q -94 -1281 -800 -1281 
L -1050 -1281 
L -947 -750 
L -750 -750 
Q -328 -750 -109 -509 
Q 109 -269 225 325 
L 1069 4666 
z
" transform="scale(0.015625)"/>
       <path id="DejaVuSans-28" d="M 1984 4856 
Q 1566 4138 1362 3434 
Q 1159 2731 1159 2009 
Q 1159 1288 1364 580 
Q 1569 -128 1984 -844 
L 1484 -844 
Q 1016 -109 783 600 
Q 550 1309 550 2009 
Q 550 2706 781 3412 
Q 1013 4119 1484 4856 
L 1984 4856 
z
" transform="scale(0.015625)"/>
       <path id="DejaVuSans-29" d="M 513 4856 
L 1013 4856 
Q 1481 4119 1714 3412 
Q 1947 2706 1947 2009 
Q 1947 1309 1714 600 
Q 1481 -109 1013 -844 
L 513 -844 
Q 928 -128 1133 580 
Q 1338 1288 1338 2009 
Q 1338 2731 1133 3434 
Q 928 4138 513 4856 
z
" transform="scale(0.015625)"/>
      </defs>
      <use xlink:href="#DejaVuSans-Oblique-4a" transform="translate(0 0.234375)"/>
      <use xlink:href="#DejaVuSans-28" transform="translate(29.492188 0.234375)"/>
      <use xlink:href="#DejaVuSans-Oblique-3b8" transform="translate(68.505859 0.234375)"/>
      <use xlink:href="#DejaVuSans-29" transform="translate(129.6875 0.234375)"/>
     </g>
    </g>
   </g>
   <g id="line2d_31">
    <path d="M 54.030625 30.912727 
L 56.837983 44.956122 
L 59.64534 57.953807 
L 62.452698 69.953343 
L 65.260055 81.001253 
L 68.067415 91.14315 
L 70.874772 100.423596 
L 73.68213 108.886223 
L 76.489487 116.573637 
L 79.296845 123.527486 
L 82.104204 129.788448 
L 84.911562 135.396161 
L 87.718919 140.389337 
L 90.526277 144.80568 
L 93.333634 148.68191 
L 96.140992 152.053766 
L 98.948349 154.956009 
L 101.755707 157.422405 
L 104.563064 159.485748 
L 107.370422 161.177834 
L 110.177784 162.529492 
L 112.985141 163.570559 
L 115.792499 164.329886 
L 118.599856 164.83534 
L 121.407214 165.113819 
L 124.214567 165.191207 
L 127.957713 165.024535 
L 131.700859 164.600925 
L 136.37979 163.790899 
L 141.994505 162.534678 
L 152.28815 159.901049 
L 159.774434 158.097699 
L 165.389149 156.984532 
L 170.06808 156.286048 
L 174.74701 155.841654 
L 178.490157 155.69279 
L 182.233303 155.743366 
L 185.976441 156.004741 
L 189.719587 156.484945 
L 193.462733 157.189146 
L 197.205879 158.119243 
L 200.949017 159.274105 
L 204.692163 160.649363 
L 208.435309 162.237711 
L 212.178455 164.028647 
L 216.857386 166.531257 
L 221.536308 169.295468 
L 227.151031 172.899623 
L 233.701539 177.390952 
L 251.48146 189.785631 
L 256.160399 192.708921 
L 259.903537 194.823212 
L 263.646675 196.680603 
L 266.454045 197.871216 
L 269.261398 198.860762 
L 272.068751 199.623358 
L 274.876105 200.132097 
L 277.683458 200.359017 
L 280.490828 200.275523 
L 282.362397 200.032362 
L 284.233966 199.629023 
L 286.105535 199.056225 
L 287.977104 198.303964 
L 289.848689 197.36302 
L 291.720258 196.223269 
L 293.591827 194.875129 
L 295.463396 193.308114 
L 297.334982 191.511679 
L 299.20655 189.474735 
L 301.078119 187.187338 
L 302.949688 184.637919 
L 304.821257 181.815389 
L 306.692826 178.708568 
L 308.564412 175.305375 
L 311.371765 169.619547 
L 314.179118 163.199988 
L 316.986472 156.005419 
L 319.793842 147.993234 
L 322.601195 139.119169 
L 325.408548 129.339566 
L 328.215902 118.608171 
L 331.023272 106.878522 
L 333.830625 94.102891 
L 333.830625 94.102891 
" clip-path="url(#pd090d6e750)" style="fill: none; stroke: #486afb; stroke-width: 2; stroke-linecap: square"/>
   </g>
   <g id="line2d_32">
    <path d="M 61.025625 63.975405 
L 74.271357 63.975405 
L 74.271357 110.562577 
L 82.994199 110.562577 
L 82.994199 131.635075 
L 89.307979 131.635075 
L 89.307979 142.957607 
L 94.138196 142.957607 
L 94.138196 149.698273 
L 97.972213 149.698273 
L 97.972213 153.998007 
L 101.09706 153.998007 
L 101.09706 156.881136 
L 103.695211 156.881136 
L 103.695211 158.889003 
" clip-path="url(#pd090d6e750)" style="fill: none; stroke: #fd46fc; stroke-width: 2; stroke-linecap: square"/>
   </g>
   <g id="PathCollection_1">
    <defs>
     <path id="mf75ed7d7d3" d="M 0 2 
C 0.530406 2 1.03916 1.789267 1.414214 1.414214 
C 1.789267 1.03916 2 0.530406 2 0 
C 2 -0.530406 1.789267 -1.03916 1.414214 -1.414214 
C 1.03916 -1.789267 0.530406 -2 0 -2 
C -0.530406 -2 -1.03916 -1.789267 -1.414214 -1.414214 
C -1.789267 -1.03916 -2 -0.530406 -2 0 
C -2 0.530406 -1.789267 1.03916 -1.414214 1.414214 
C -1.03916 1.789267 -0.530406 2 0 2 
z
" style="stroke: #fd46fc; stroke-width: 0.2"/>
    </defs>
    <g clip-path="url(#pd090d6e750)">
     <use xlink:href="#mf75ed7d7d3" x="61.025625" y="63.975405" style="fill: #fd46fc; stroke: #fd46fc; stroke-width: 0.2"/>
     <use xlink:href="#mf75ed7d7d3" x="74.271357" y="110.562577" style="fill: #fd46fc; stroke: #fd46fc; stroke-width: 0.2"/>
     <use xlink:href="#mf75ed7d7d3" x="82.994199" y="131.635075" style="fill: #fd46fc; stroke: #fd46fc; stroke-width: 0.2"/>
     <use xlink:href="#mf75ed7d7d3" x="89.307979" y="142.957607" style="fill: #fd46fc; stroke: #fd46fc; stroke-width: 0.2"/>
     <use xlink:href="#mf75ed7d7d3" x="94.138196" y="149.698273" style="fill: #fd46fc; stroke: #fd46fc; stroke-width: 0.2"/>
     <use xlink:href="#mf75ed7d7d3" x="97.972213" y="153.998007" style="fill: #fd46fc; stroke: #fd46fc; stroke-width: 0.2"/>
     <use xlink:href="#mf75ed7d7d3" x="101.09706" y="156.881136" style="fill: #fd46fc; stroke: #fd46fc; stroke-width: 0.2"/>
     <use xlink:href="#mf75ed7d7d3" x="103.695211" y="158.889003" style="fill: #fd46fc; stroke: #fd46fc; stroke-width: 0.2"/>
    </g>
   </g>
   <g id="PathCollection_2">
    <defs>
     <path id="m8308446451" d="M 0 5 
C 1.326016 5 2.597899 4.473168 3.535534 3.535534 
C 4.473168 2.597899 5 1.326016 5 0 
C 5 -1.326016 4.473168 -2.597899 3.535534 -3.535534 
C 2.597899 -4.473168 1.326016 -5 0 -5 
C -1.326016 -5 -2.597899 -4.473168 -3.535534 -3.535534 
C -4.473168 -2.597899 -5 -1.326016 -5 0 
C -5 1.326016 -4.473168 2.597899 -3.535534 3.535534 
C -2.597899 4.473168 -1.326016 5 0 5 
z
" style="stroke: #fd46fc; stroke-width: 0.2"/>
    </defs>
    <g clip-path="url(#pd090d6e750)">
     <use xlink:href="#m8308446451" x="61.025625" y="63.975405" style="fill: #fd46fc; stroke: #fd46fc; stroke-width: 0.2"/>
    </g>
   </g>
   <g id="patch_3">
    <path d="M 40.040625 208.84 
L 40.040625 22.44 
" style="fill: none; stroke: #000000; stroke-width: 0.6; stroke-linejoin: miter; stroke-linecap: square"/>
   </g>
   <g id="patch_4">
    <path d="M 40.040625 208.84 
L 347.820625 208.84 
" style="fill: none; stroke: #000000; stroke-width: 0.6; stroke-linejoin: miter; stroke-linecap: square"/>
   </g>
   <g id="text_18">
    <!-- learning rate$=0.01$, number of steps$=7$ -->
    <g transform="translate(53.650625 16.44) scale(0.12 -0.12)">
     <defs>
      <path id="DejaVuSansMono-6c" d="M 1997 1269 
Q 1997 881 2139 684 
Q 2281 488 2559 488 
L 3231 488 
L 3231 0 
L 2503 0 
Q 1988 0 1705 331 
Q 1422 663 1422 1269 
L 1422 4447 
L 500 4447 
L 500 4897 
L 1997 4897 
L 1997 1269 
z
" transform="scale(0.015625)"/>
      <path id="DejaVuSansMono-65" d="M 3475 1894 
L 3475 1613 
L 984 1613 
L 984 1594 
Q 984 1022 1282 709 
Q 1581 397 2125 397 
Q 2400 397 2700 484 
Q 3000 572 3341 750 
L 3341 178 
Q 3013 44 2708 -23 
Q 2403 -91 2119 -91 
Q 1303 -91 843 398 
Q 384 888 384 1747 
Q 384 2584 834 3084 
Q 1284 3584 2034 3584 
Q 2703 3584 3089 3131 
Q 3475 2678 3475 1894 
z
M 2900 2063 
Q 2888 2569 2661 2833 
Q 2434 3097 2009 3097 
Q 1594 3097 1325 2822 
Q 1056 2547 1006 2059 
L 2900 2063 
z
" transform="scale(0.015625)"/>
      <path id="DejaVuSansMono-61" d="M 2194 1759 
L 2003 1759 
Q 1500 1759 1245 1582 
Q 991 1406 991 1056 
Q 991 741 1181 566 
Q 1372 391 1709 391 
Q 2184 391 2456 720 
Q 2728 1050 2731 1631 
L 2731 1759 
L 2194 1759 
z
M 3309 1997 
L 3309 0 
L 2731 0 
L 2731 519 
Q 2547 206 2267 57 
Q 1988 -91 1588 -91 
Q 1053 -91 734 211 
Q 416 513 416 1019 
Q 416 1603 808 1906 
Q 1200 2209 1959 2209 
L 2731 2209 
L 2731 2300 
Q 2728 2719 2518 2908 
Q 2309 3097 1850 3097 
Q 1556 3097 1256 3012 
Q 956 2928 672 2766 
L 672 3341 
Q 991 3463 1283 3523 
Q 1575 3584 1850 3584 
Q 2284 3584 2592 3456 
Q 2900 3328 3091 3072 
Q 3209 2916 3259 2686 
Q 3309 2456 3309 1997 
z
" transform="scale(0.015625)"/>
      <path id="DejaVuSansMono-72" d="M 3609 2778 
Q 3425 2922 3234 2987 
Q 3044 3053 2816 3053 
Q 2278 3053 1993 2715 
Q 1709 2378 1709 1741 
L 1709 0 
L 1131 0 
L 1131 3500 
L 1709 3500 
L 1709 2816 
Q 1853 3188 2151 3386 
Q 2450 3584 2859 3584 
Q 3072 3584 3256 3531 
Q 3441 3478 3609 3366 
L 3609 2778 
z
" transform="scale(0.015625)"/>
      <path id="DejaVuSansMono-6e" d="M 3284 2169 
L 3284 0 
L 2706 0 
L 2706 2169 
Q 2706 2641 2540 2862 
Q 2375 3084 2022 3084 
Q 1619 3084 1401 2798 
Q 1184 2513 1184 1978 
L 1184 0 
L 609 0 
L 609 3500 
L 1184 3500 
L 1184 2975 
Q 1338 3275 1600 3429 
Q 1863 3584 2222 3584 
Q 2756 3584 3020 3232 
Q 3284 2881 3284 2169 
z
" transform="scale(0.015625)"/>
      <path id="DejaVuSansMono-69" d="M 800 3500 
L 2272 3500 
L 2272 447 
L 3413 447 
L 3413 0 
L 556 0 
L 556 447 
L 1697 447 
L 1697 3053 
L 800 3053 
L 800 3500 
z
M 1697 4863 
L 2272 4863 
L 2272 4134 
L 1697 4134 
L 1697 4863 
z
" transform="scale(0.015625)"/>
      <path id="DejaVuSansMono-67" d="M 2681 1778 
Q 2681 2425 2470 2761 
Q 2259 3097 1856 3097 
Q 1434 3097 1212 2761 
Q 991 2425 991 1778 
Q 991 1131 1214 792 
Q 1438 453 1863 453 
Q 2259 453 2470 793 
Q 2681 1134 2681 1778 
z
M 3256 225 
Q 3256 -563 2884 -969 
Q 2513 -1375 1791 -1375 
Q 1553 -1375 1293 -1331 
Q 1034 -1288 775 -1203 
L 775 -634 
Q 1081 -778 1331 -847 
Q 1581 -916 1791 -916 
Q 2256 -916 2468 -662 
Q 2681 -409 2681 141 
L 2681 166 
L 2681 556 
Q 2544 263 2306 119 
Q 2069 -25 1728 -25 
Q 1116 -25 750 465 
Q 384 956 384 1778 
Q 384 2603 750 3093 
Q 1116 3584 1728 3584 
Q 2066 3584 2300 3450 
Q 2534 3316 2681 3034 
L 2681 3488 
L 3256 3488 
L 3256 225 
z
" transform="scale(0.015625)"/>
      <path id="DejaVuSansMono-20" transform="scale(0.015625)"/>
      <path id="DejaVuSansMono-74" d="M 1919 4494 
L 1919 3500 
L 3225 3500 
L 3225 3053 
L 1919 3053 
L 1919 1153 
Q 1919 766 2066 612 
Q 2213 459 2578 459 
L 3225 459 
L 3225 0 
L 2522 0 
Q 1875 0 1609 259 
Q 1344 519 1344 1153 
L 1344 3053 
L 409 3053 
L 409 3500 
L 1344 3500 
L 1344 4494 
L 1919 4494 
z
" transform="scale(0.015625)"/>
      <path id="DejaVuSans-3d" d="M 678 2906 
L 4684 2906 
L 4684 2381 
L 678 2381 
L 678 2906 
z
M 678 1631 
L 4684 1631 
L 4684 1100 
L 678 1100 
L 678 1631 
z
" transform="scale(0.015625)"/>
      <path id="DejaVuSans-30" d="M 2034 4250 
Q 1547 4250 1301 3770 
Q 1056 3291 1056 2328 
Q 1056 1369 1301 889 
Q 1547 409 2034 409 
Q 2525 409 2770 889 
Q 3016 1369 3016 2328 
Q 3016 3291 2770 3770 
Q 2525 4250 2034 4250 
z
M 2034 4750 
Q 2819 4750 3233 4129 
Q 3647 3509 3647 2328 
Q 3647 1150 3233 529 
Q 2819 -91 2034 -91 
Q 1250 -91 836 529 
Q 422 1150 422 2328 
Q 422 3509 836 4129 
Q 1250 4750 2034 4750 
z
" transform="scale(0.015625)"/>
      <path id="DejaVuSans-2e" d="M 684 794 
L 1344 794 
L 1344 0 
L 684 0 
L 684 794 
z
" transform="scale(0.015625)"/>
      <path id="DejaVuSans-31" d="M 794 531 
L 1825 531 
L 1825 4091 
L 703 3866 
L 703 4441 
L 1819 4666 
L 2450 4666 
L 2450 531 
L 3481 531 
L 3481 0 
L 794 0 
L 794 531 
z
" transform="scale(0.015625)"/>
      <path id="DejaVuSansMono-2c" d="M 1569 947 
L 2356 947 
L 2356 300 
L 1741 -897 
L 1259 -897 
L 1569 300 
L 1569 947 
z
" transform="scale(0.015625)"/>
      <path id="DejaVuSansMono-75" d="M 609 1325 
L 609 3494 
L 1184 3494 
L 1184 1325 
Q 1184 853 1351 631 
Q 1519 409 1869 409 
Q 2275 409 2490 695 
Q 2706 981 2706 1516 
L 2706 3494 
L 3284 3494 
L 3284 0 
L 2706 0 
L 2706 525 
Q 2553 222 2289 65 
Q 2025 -91 1672 -91 
Q 1134 -91 871 261 
Q 609 613 609 1325 
z
" transform="scale(0.015625)"/>
      <path id="DejaVuSansMono-6d" d="M 2113 3144 
Q 2219 3369 2383 3476 
Q 2547 3584 2778 3584 
Q 3200 3584 3373 3257 
Q 3547 2931 3547 2028 
L 3547 0 
L 3022 0 
L 3022 2003 
Q 3022 2744 2939 2923 
Q 2856 3103 2638 3103 
Q 2388 3103 2295 2911 
Q 2203 2719 2203 2003 
L 2203 0 
L 1678 0 
L 1678 2003 
Q 1678 2753 1589 2928 
Q 1500 3103 1269 3103 
Q 1041 3103 952 2911 
Q 863 2719 863 2003 
L 863 0 
L 341 0 
L 341 3500 
L 863 3500 
L 863 3200 
Q 966 3388 1120 3486 
Q 1275 3584 1472 3584 
Q 1709 3584 1867 3475 
Q 2025 3366 2113 3144 
z
" transform="scale(0.015625)"/>
      <path id="DejaVuSansMono-62" d="M 2869 1747 
Q 2869 2416 2656 2756 
Q 2444 3097 2028 3097 
Q 1609 3097 1393 2755 
Q 1178 2413 1178 1747 
Q 1178 1084 1393 740 
Q 1609 397 2028 397 
Q 2444 397 2656 737 
Q 2869 1078 2869 1747 
z
M 1178 3053 
Q 1316 3309 1558 3446 
Q 1800 3584 2119 3584 
Q 2750 3584 3112 3098 
Q 3475 2613 3475 1759 
Q 3475 894 3111 401 
Q 2747 -91 2113 -91 
Q 1800 -91 1561 45 
Q 1322 181 1178 441 
L 1178 0 
L 603 0 
L 603 4863 
L 1178 4863 
L 1178 3053 
z
" transform="scale(0.015625)"/>
      <path id="DejaVuSansMono-6f" d="M 1925 3097 
Q 1488 3097 1263 2756 
Q 1038 2416 1038 1747 
Q 1038 1081 1263 739 
Q 1488 397 1925 397 
Q 2366 397 2591 739 
Q 2816 1081 2816 1747 
Q 2816 2416 2591 2756 
Q 2366 3097 1925 3097 
z
M 1925 3584 
Q 2653 3584 3039 3112 
Q 3425 2641 3425 1747 
Q 3425 850 3040 379 
Q 2656 -91 1925 -91 
Q 1197 -91 812 379 
Q 428 850 428 1747 
Q 428 2641 812 3112 
Q 1197 3584 1925 3584 
z
" transform="scale(0.015625)"/>
      <path id="DejaVuSansMono-66" d="M 3322 4863 
L 3322 4384 
L 2669 4384 
Q 2359 4384 2239 4257 
Q 2119 4131 2119 3809 
L 2119 3500 
L 3322 3500 
L 3322 3053 
L 2119 3053 
L 2119 0 
L 1544 0 
L 1544 3053 
L 609 3053 
L 609 3500 
L 1544 3500 
L 1544 3744 
Q 1544 4319 1808 4591 
Q 2072 4863 2631 4863 
L 3322 4863 
z
" transform="scale(0.015625)"/>
      <path id="DejaVuSansMono-73" d="M 3041 3378 
L 3041 2816 
Q 2794 2959 2544 3031 
Q 2294 3103 2034 3103 
Q 1644 3103 1451 2976 
Q 1259 2850 1259 2591 
Q 1259 2356 1403 2240 
Q 1547 2125 2119 2016 
L 2350 1972 
Q 2778 1891 2998 1647 
Q 3219 1403 3219 1013 
Q 3219 494 2850 201 
Q 2481 -91 1825 -91 
Q 1566 -91 1281 -36 
Q 997 19 666 128 
L 666 722 
Q 988 556 1281 473 
Q 1575 391 1838 391 
Q 2219 391 2428 545 
Q 2638 700 2638 978 
Q 2638 1378 1872 1531 
L 1847 1538 
L 1631 1581 
Q 1134 1678 906 1908 
Q 678 2138 678 2534 
Q 678 3038 1018 3311 
Q 1359 3584 1991 3584 
Q 2272 3584 2531 3532 
Q 2791 3481 3041 3378 
z
" transform="scale(0.015625)"/>
      <path id="DejaVuSansMono-70" d="M 1172 441 
L 1172 -1331 
L 594 -1331 
L 594 3500 
L 1172 3500 
L 1172 3053 
Q 1316 3313 1555 3448 
Q 1794 3584 2106 3584 
Q 2741 3584 3102 3093 
Q 3463 2603 3463 1734 
Q 3463 881 3100 395 
Q 2738 -91 2106 -91 
Q 1788 -91 1548 45 
Q 1309 181 1172 441 
z
M 2859 1747 
Q 2859 2416 2648 2756 
Q 2438 3097 2022 3097 
Q 1603 3097 1387 2755 
Q 1172 2413 1172 1747 
Q 1172 1084 1387 740 
Q 1603 397 2022 397 
Q 2438 397 2648 737 
Q 2859 1078 2859 1747 
z
" transform="scale(0.015625)"/>
      <path id="DejaVuSans-37" d="M 525 4666 
L 3525 4666 
L 3525 4397 
L 1831 0 
L 1172 0 
L 2766 4134 
L 525 4134 
L 525 4666 
z
" transform="scale(0.015625)"/>
     </defs>
     <use xlink:href="#DejaVuSansMono-6c" transform="translate(0 0.484375)"/>
     <use xlink:href="#DejaVuSansMono-65" transform="translate(60.205078 0.484375)"/>
     <use xlink:href="#DejaVuSansMono-61" transform="translate(120.410156 0.484375)"/>
     <use xlink:href="#DejaVuSansMono-72" transform="translate(180.615234 0.484375)"/>
     <use xlink:href="#DejaVuSansMono-6e" transform="translate(240.820312 0.484375)"/>
     <use xlink:href="#DejaVuSansMono-69" transform="translate(301.025391 0.484375)"/>
     <use xlink:href="#DejaVuSansMono-6e" transform="translate(361.230469 0.484375)"/>
     <use xlink:href="#DejaVuSansMono-67" transform="translate(421.435547 0.484375)"/>
     <use xlink:href="#DejaVuSansMono-20" transform="translate(481.640625 0.484375)"/>
     <use xlink:href="#DejaVuSansMono-72" transform="translate(541.845703 0.484375)"/>
     <use xlink:href="#DejaVuSansMono-61" transform="translate(602.050781 0.484375)"/>
     <use xlink:href="#DejaVuSansMono-74" transform="translate(662.255859 0.484375)"/>
     <use xlink:href="#DejaVuSansMono-65" transform="translate(722.460938 0.484375)"/>
     <use xlink:href="#DejaVuSans-3d" transform="translate(802.148438 0.484375)"/>
     <use xlink:href="#DejaVuSans-30" transform="translate(905.419922 0.484375)"/>
     <use xlink:href="#DejaVuSans-2e" transform="translate(969.042969 0.484375)"/>
     <use xlink:href="#DejaVuSans-30" transform="translate(1000.830078 0.484375)"/>
     <use xlink:href="#DejaVuSans-31" transform="translate(1064.453125 0.484375)"/>
     <use xlink:href="#DejaVuSansMono-2c" transform="translate(1128.076172 0.484375)"/>
     <use xlink:href="#DejaVuSansMono-20" transform="translate(1188.28125 0.484375)"/>
     <use xlink:href="#DejaVuSansMono-6e" transform="translate(1248.486328 0.484375)"/>
     <use xlink:href="#DejaVuSansMono-75" transform="translate(1308.691406 0.484375)"/>
     <use xlink:href="#DejaVuSansMono-6d" transform="translate(1368.896484 0.484375)"/>
     <use xlink:href="#DejaVuSansMono-62" transform="translate(1429.101562 0.484375)"/>
     <use xlink:href="#DejaVuSansMono-65" transform="translate(1489.306641 0.484375)"/>
     <use xlink:href="#DejaVuSansMono-72" transform="translate(1549.511719 0.484375)"/>
     <use xlink:href="#DejaVuSansMono-20" transform="translate(1609.716797 0.484375)"/>
     <use xlink:href="#DejaVuSansMono-6f" transform="translate(1669.921875 0.484375)"/>
     <use xlink:href="#DejaVuSansMono-66" transform="translate(1730.126953 0.484375)"/>
     <use xlink:href="#DejaVuSansMono-20" transform="translate(1790.332031 0.484375)"/>
     <use xlink:href="#DejaVuSansMono-73" transform="translate(1850.537109 0.484375)"/>
     <use xlink:href="#DejaVuSansMono-74" transform="translate(1910.742188 0.484375)"/>
     <use xlink:href="#DejaVuSansMono-65" transform="translate(1970.947266 0.484375)"/>
     <use xlink:href="#DejaVuSansMono-70" transform="translate(2031.152344 0.484375)"/>
     <use xlink:href="#DejaVuSansMono-73" transform="translate(2091.357422 0.484375)"/>
     <use xlink:href="#DejaVuSans-3d" transform="translate(2171.044922 0.484375)"/>
     <use xlink:href="#DejaVuSans-37" transform="translate(2274.316406 0.484375)"/>
    </g>
   </g>
  </g>
  <g id="axes_2">
   <g id="patch_5">
    <path d="M 394.640625 208.84 
L 702.420625 208.84 
L 702.420625 22.44 
L 394.640625 22.44 
z
" style="fill: #ffffff"/>
   </g>
   <g id="matplotlib.axis_3">
    <g id="xtick_10">
     <g id="line2d_33">
      <path d="M 408.630625 208.84 
L 408.630625 22.44 
" clip-path="url(#p5fe6034ce2)" style="fill: none; stroke-dasharray: 2.22,0.96; stroke-dashoffset: 0; stroke: #6c6066; stroke-opacity: 0.4; stroke-width: 0.6"/>
     </g>
     <g id="line2d_34">
      <g>
       <use xlink:href="#m3886958fb2" x="408.630625" y="208.84" style="stroke: #000000; stroke-width: 0.8"/>
      </g>
     </g>
     <g id="text_19">
      <!-- −0.5 -->
      <g transform="translate(396.59 223.491562) scale(0.1 -0.1)">
       <use xlink:href="#DejaVuSansMono-2212"/>
       <use xlink:href="#DejaVuSansMono-30" x="60.205078"/>
       <use xlink:href="#DejaVuSansMono-2e" x="120.410156"/>
       <use xlink:href="#DejaVuSansMono-35" x="180.615234"/>
      </g>
     </g>
    </g>
    <g id="xtick_11">
     <g id="line2d_35">
      <path d="M 443.605625 208.84 
L 443.605625 22.44 
" clip-path="url(#p5fe6034ce2)" style="fill: none; stroke-dasharray: 2.22,0.96; stroke-dashoffset: 0; stroke: #6c6066; stroke-opacity: 0.4; stroke-width: 0.6"/>
     </g>
     <g id="line2d_36">
      <g>
       <use xlink:href="#m3886958fb2" x="443.605625" y="208.84" style="stroke: #000000; stroke-width: 0.8"/>
      </g>
     </g>
     <g id="text_20">
      <!-- 0.0 -->
      <g transform="translate(434.575156 223.491562) scale(0.1 -0.1)">
       <use xlink:href="#DejaVuSansMono-30"/>
       <use xlink:href="#DejaVuSansMono-2e" x="60.205078"/>
       <use xlink:href="#DejaVuSansMono-30" x="120.410156"/>
      </g>
     </g>
    </g>
    <g id="xtick_12">
     <g id="line2d_37">
      <path d="M 478.580625 208.84 
L 478.580625 22.44 
" clip-path="url(#p5fe6034ce2)" style="fill: none; stroke-dasharray: 2.22,0.96; stroke-dashoffset: 0; stroke: #6c6066; stroke-opacity: 0.4; stroke-width: 0.6"/>
     </g>
     <g id="line2d_38">
      <g>
       <use xlink:href="#m3886958fb2" x="478.580625" y="208.84" style="stroke: #000000; stroke-width: 0.8"/>
      </g>
     </g>
     <g id="text_21">
      <!-- 0.5 -->
      <g transform="translate(469.550156 223.491562) scale(0.1 -0.1)">
       <use xlink:href="#DejaVuSansMono-30"/>
       <use xlink:href="#DejaVuSansMono-2e" x="60.205078"/>
       <use xlink:href="#DejaVuSansMono-35" x="120.410156"/>
      </g>
     </g>
    </g>
    <g id="xtick_13">
     <g id="line2d_39">
      <path d="M 513.555625 208.84 
L 513.555625 22.44 
" clip-path="url(#p5fe6034ce2)" style="fill: none; stroke-dasharray: 2.22,0.96; stroke-dashoffset: 0; stroke: #6c6066; stroke-opacity: 0.4; stroke-width: 0.6"/>
     </g>
     <g id="line2d_40">
      <g>
       <use xlink:href="#m3886958fb2" x="513.555625" y="208.84" style="stroke: #000000; stroke-width: 0.8"/>
      </g>
     </g>
     <g id="text_22">
      <!-- 1.0 -->
      <g transform="translate(504.525156 223.491562) scale(0.1 -0.1)">
       <use xlink:href="#DejaVuSansMono-31"/>
       <use xlink:href="#DejaVuSansMono-2e" x="60.205078"/>
       <use xlink:href="#DejaVuSansMono-30" x="120.410156"/>
      </g>
     </g>
    </g>
    <g id="xtick_14">
     <g id="line2d_41">
      <path d="M 548.530625 208.84 
L 548.530625 22.44 
" clip-path="url(#p5fe6034ce2)" style="fill: none; stroke-dasharray: 2.22,0.96; stroke-dashoffset: 0; stroke: #6c6066; stroke-opacity: 0.4; stroke-width: 0.6"/>
     </g>
     <g id="line2d_42">
      <g>
       <use xlink:href="#m3886958fb2" x="548.530625" y="208.84" style="stroke: #000000; stroke-width: 0.8"/>
      </g>
     </g>
     <g id="text_23">
      <!-- 1.5 -->
      <g transform="translate(539.500156 223.491562) scale(0.1 -0.1)">
       <use xlink:href="#DejaVuSansMono-31"/>
       <use xlink:href="#DejaVuSansMono-2e" x="60.205078"/>
       <use xlink:href="#DejaVuSansMono-35" x="120.410156"/>
      </g>
     </g>
    </g>
    <g id="xtick_15">
     <g id="line2d_43">
      <path d="M 583.505625 208.84 
L 583.505625 22.44 
" clip-path="url(#p5fe6034ce2)" style="fill: none; stroke-dasharray: 2.22,0.96; stroke-dashoffset: 0; stroke: #6c6066; stroke-opacity: 0.4; stroke-width: 0.6"/>
     </g>
     <g id="line2d_44">
      <g>
       <use xlink:href="#m3886958fb2" x="583.505625" y="208.84" style="stroke: #000000; stroke-width: 0.8"/>
      </g>
     </g>
     <g id="text_24">
      <!-- 2.0 -->
      <g transform="translate(574.475156 223.491562) scale(0.1 -0.1)">
       <use xlink:href="#DejaVuSansMono-32"/>
       <use xlink:href="#DejaVuSansMono-2e" x="60.205078"/>
       <use xlink:href="#DejaVuSansMono-30" x="120.410156"/>
      </g>
     </g>
    </g>
    <g id="xtick_16">
     <g id="line2d_45">
      <path d="M 618.480625 208.84 
L 618.480625 22.44 
" clip-path="url(#p5fe6034ce2)" style="fill: none; stroke-dasharray: 2.22,0.96; stroke-dashoffset: 0; stroke: #6c6066; stroke-opacity: 0.4; stroke-width: 0.6"/>
     </g>
     <g id="line2d_46">
      <g>
       <use xlink:href="#m3886958fb2" x="618.480625" y="208.84" style="stroke: #000000; stroke-width: 0.8"/>
      </g>
     </g>
     <g id="text_25">
      <!-- 2.5 -->
      <g transform="translate(609.450156 223.491562) scale(0.1 -0.1)">
       <use xlink:href="#DejaVuSansMono-32"/>
       <use xlink:href="#DejaVuSansMono-2e" x="60.205078"/>
       <use xlink:href="#DejaVuSansMono-35" x="120.410156"/>
      </g>
     </g>
    </g>
    <g id="xtick_17">
     <g id="line2d_47">
      <path d="M 653.455625 208.84 
L 653.455625 22.44 
" clip-path="url(#p5fe6034ce2)" style="fill: none; stroke-dasharray: 2.22,0.96; stroke-dashoffset: 0; stroke: #6c6066; stroke-opacity: 0.4; stroke-width: 0.6"/>
     </g>
     <g id="line2d_48">
      <g>
       <use xlink:href="#m3886958fb2" x="653.455625" y="208.84" style="stroke: #000000; stroke-width: 0.8"/>
      </g>
     </g>
     <g id="text_26">
      <!-- 3.0 -->
      <g transform="translate(644.425156 223.491562) scale(0.1 -0.1)">
       <use xlink:href="#DejaVuSansMono-33"/>
       <use xlink:href="#DejaVuSansMono-2e" x="60.205078"/>
       <use xlink:href="#DejaVuSansMono-30" x="120.410156"/>
      </g>
     </g>
    </g>
    <g id="xtick_18">
     <g id="line2d_49">
      <path d="M 688.430625 208.84 
L 688.430625 22.44 
" clip-path="url(#p5fe6034ce2)" style="fill: none; stroke-dasharray: 2.22,0.96; stroke-dashoffset: 0; stroke: #6c6066; stroke-opacity: 0.4; stroke-width: 0.6"/>
     </g>
     <g id="line2d_50">
      <g>
       <use xlink:href="#m3886958fb2" x="688.430625" y="208.84" style="stroke: #000000; stroke-width: 0.8"/>
      </g>
     </g>
     <g id="text_27">
      <!-- 3.5 -->
      <g transform="translate(679.400156 223.491562) scale(0.1 -0.1)">
       <use xlink:href="#DejaVuSansMono-33"/>
       <use xlink:href="#DejaVuSansMono-2e" x="60.205078"/>
       <use xlink:href="#DejaVuSansMono-35" x="120.410156"/>
      </g>
     </g>
    </g>
    <g id="text_28">
     <!-- $\theta$ -->
     <g transform="translate(545.430625 237.222812) scale(0.1 -0.1)">
      <use xlink:href="#DejaVuSans-Oblique-3b8" transform="translate(0 0.234375)"/>
     </g>
    </g>
   </g>
   <g id="matplotlib.axis_4">
    <g id="ytick_7">
     <g id="line2d_51">
      <path d="M 394.640625 205.673024 
L 702.420625 205.673024 
" clip-path="url(#p5fe6034ce2)" style="fill: none; stroke-dasharray: 2.22,0.96; stroke-dashoffset: 0; stroke: #6c6066; stroke-opacity: 0.4; stroke-width: 0.6"/>
     </g>
     <g id="line2d_52">
      <g>
       <use xlink:href="#m7e774decaa" x="394.640625" y="205.673024" style="stroke: #000000; stroke-width: 0.8"/>
      </g>
     </g>
     <g id="text_29">
      <!-- 0 -->
      <g transform="translate(381.620312 209.498805) scale(0.1 -0.1)">
       <use xlink:href="#DejaVuSansMono-30"/>
      </g>
     </g>
    </g>
    <g id="ytick_8">
     <g id="line2d_53">
      <path d="M 394.640625 174.077942 
L 702.420625 174.077942 
" clip-path="url(#p5fe6034ce2)" style="fill: none; stroke-dasharray: 2.22,0.96; stroke-dashoffset: 0; stroke: #6c6066; stroke-opacity: 0.4; stroke-width: 0.6"/>
     </g>
     <g id="line2d_54">
      <g>
       <use xlink:href="#m7e774decaa" x="394.640625" y="174.077942" style="stroke: #000000; stroke-width: 0.8"/>
      </g>
     </g>
     <g id="text_30">
      <!-- 2 -->
      <g transform="translate(381.620312 177.903723) scale(0.1 -0.1)">
       <use xlink:href="#DejaVuSansMono-32"/>
      </g>
     </g>
    </g>
    <g id="ytick_9">
     <g id="line2d_55">
      <path d="M 394.640625 142.48286 
L 702.420625 142.48286 
" clip-path="url(#p5fe6034ce2)" style="fill: none; stroke-dasharray: 2.22,0.96; stroke-dashoffset: 0; stroke: #6c6066; stroke-opacity: 0.4; stroke-width: 0.6"/>
     </g>
     <g id="line2d_56">
      <g>
       <use xlink:href="#m7e774decaa" x="394.640625" y="142.48286" style="stroke: #000000; stroke-width: 0.8"/>
      </g>
     </g>
     <g id="text_31">
      <!-- 4 -->
      <g transform="translate(381.620312 146.308641) scale(0.1 -0.1)">
       <use xlink:href="#DejaVuSansMono-34"/>
      </g>
     </g>
    </g>
    <g id="ytick_10">
     <g id="line2d_57">
      <path d="M 394.640625 110.887778 
L 702.420625 110.887778 
" clip-path="url(#p5fe6034ce2)" style="fill: none; stroke-dasharray: 2.22,0.96; stroke-dashoffset: 0; stroke: #6c6066; stroke-opacity: 0.4; stroke-width: 0.6"/>
     </g>
     <g id="line2d_58">
      <g>
       <use xlink:href="#m7e774decaa" x="394.640625" y="110.887778" style="stroke: #000000; stroke-width: 0.8"/>
      </g>
     </g>
     <g id="text_32">
      <!-- 6 -->
      <g transform="translate(381.620312 114.713559) scale(0.1 -0.1)">
       <use xlink:href="#DejaVuSansMono-36"/>
      </g>
     </g>
    </g>
    <g id="ytick_11">
     <g id="line2d_59">
      <path d="M 394.640625 79.292696 
L 702.420625 79.292696 
" clip-path="url(#p5fe6034ce2)" style="fill: none; stroke-dasharray: 2.22,0.96; stroke-dashoffset: 0; stroke: #6c6066; stroke-opacity: 0.4; stroke-width: 0.6"/>
     </g>
     <g id="line2d_60">
      <g>
       <use xlink:href="#m7e774decaa" x="394.640625" y="79.292696" style="stroke: #000000; stroke-width: 0.8"/>
      </g>
     </g>
     <g id="text_33">
      <!-- 8 -->
      <g transform="translate(381.620312 83.118478) scale(0.1 -0.1)">
       <use xlink:href="#DejaVuSansMono-38"/>
      </g>
     </g>
    </g>
    <g id="ytick_12">
     <g id="line2d_61">
      <path d="M 394.640625 47.697615 
L 702.420625 47.697615 
" clip-path="url(#p5fe6034ce2)" style="fill: none; stroke-dasharray: 2.22,0.96; stroke-dashoffset: 0; stroke: #6c6066; stroke-opacity: 0.4; stroke-width: 0.6"/>
     </g>
     <g id="line2d_62">
      <g>
       <use xlink:href="#m7e774decaa" x="394.640625" y="47.697615" style="stroke: #000000; stroke-width: 0.8"/>
      </g>
     </g>
     <g id="text_34">
      <!-- 10 -->
      <g transform="translate(375.6 51.523396) scale(0.1 -0.1)">
       <use xlink:href="#DejaVuSansMono-31"/>
       <use xlink:href="#DejaVuSansMono-30" x="60.205078"/>
      </g>
     </g>
    </g>
    <g id="text_35">
     <!-- $J(\theta)$ -->
     <g transform="translate(369.5 124.09) rotate(-90) scale(0.1 -0.1)">
      <use xlink:href="#DejaVuSans-Oblique-4a" transform="translate(0 0.234375)"/>
      <use xlink:href="#DejaVuSans-28" transform="translate(29.492188 0.234375)"/>
      <use xlink:href="#DejaVuSans-Oblique-3b8" transform="translate(68.505859 0.234375)"/>
      <use xlink:href="#DejaVuSans-29" transform="translate(129.6875 0.234375)"/>
     </g>
    </g>
   </g>
   <g id="line2d_63">
    <path d="M 408.630625 30.912727 
L 411.437983 44.956122 
L 414.24534 57.953807 
L 417.052698 69.953343 
L 419.860055 81.001253 
L 422.667415 91.14315 
L 425.474772 100.423596 
L 428.28213 108.886223 
L 431.089487 116.573637 
L 433.896845 123.527486 
L 436.704204 129.788448 
L 439.511562 135.396161 
L 442.318919 140.389337 
L 445.126277 144.80568 
L 447.933634 148.68191 
L 450.740992 152.053766 
L 453.548349 154.956009 
L 456.355707 157.422405 
L 459.163064 159.485748 
L 461.970422 161.177834 
L 464.777784 162.529492 
L 467.585141 163.570559 
L 470.392499 164.329886 
L 473.199856 164.83534 
L 476.007214 165.113819 
L 478.814567 165.191207 
L 482.557713 165.024535 
L 486.300859 164.600925 
L 490.97979 163.790899 
L 496.594505 162.534678 
L 506.88815 159.901049 
L 514.374434 158.097699 
L 519.989149 156.984532 
L 524.66808 156.286048 
L 529.34701 155.841654 
L 533.090157 155.69279 
L 536.833303 155.743366 
L 540.576441 156.004741 
L 544.319587 156.484945 
L 548.062733 157.189146 
L 551.805879 158.119243 
L 555.549017 159.274105 
L 559.292163 160.649363 
L 563.035309 162.237711 
L 566.778455 164.028647 
L 571.457386 166.531257 
L 576.136308 169.295468 
L 581.751031 172.899623 
L 588.301539 177.390952 
L 606.08146 189.785631 
L 610.760399 192.708921 
L 614.503537 194.823212 
L 618.246675 196.680603 
L 621.054045 197.871216 
L 623.861398 198.860762 
L 626.668751 199.623358 
L 629.476105 200.132097 
L 632.283458 200.359017 
L 635.090828 200.275523 
L 636.962397 200.032362 
L 638.833966 199.629023 
L 640.705535 199.056225 
L 642.577104 198.303964 
L 644.448689 197.36302 
L 646.320258 196.223269 
L 648.191827 194.875129 
L 650.063396 193.308114 
L 651.934982 191.511679 
L 653.80655 189.474735 
L 655.678119 187.187338 
L 657.549688 184.637919 
L 659.421257 181.815389 
L 661.292826 178.708568 
L 663.164412 175.305375 
L 665.971765 169.619547 
L 668.779118 163.199988 
L 671.586472 156.005419 
L 674.393842 147.993234 
L 677.201195 139.119169 
L 680.008548 129.339566 
L 682.815902 118.608171 
L 685.623272 106.878522 
L 688.430625 94.102891 
L 688.430625 94.102891 
" clip-path="url(#p5fe6034ce2)" style="fill: none; stroke: #486afb; stroke-width: 2; stroke-linecap: square"/>
   </g>
   <g id="line2d_64">
    <path d="M 674.440622 147.852309 
L 665.117683 147.852309 
L 665.117683 171.425323 
L 658.691588 171.425323 
L 658.691588 182.949113 
L 653.970456 182.949113 
L 653.970456 189.284756 
L 650.359003 189.284756 
L 650.359003 193.039764 
L 647.518328 193.039764 
L 647.518328 195.385073 
L 645.23803 195.385073 
L 645.23803 196.907222 
" clip-path="url(#p5fe6034ce2)" style="fill: none; stroke: #fd46fc; stroke-width: 2; stroke-linecap: square"/>
   </g>
   <g id="PathCollection_3">
    <g clip-path="url(#p5fe6034ce2)">
     <use xlink:href="#mf75ed7d7d3" x="674.440622" y="147.852309" style="fill: #fd46fc; stroke: #fd46fc; stroke-width: 0.2"/>
     <use xlink:href="#mf75ed7d7d3" x="665.117683" y="171.425323" style="fill: #fd46fc; stroke: #fd46fc; stroke-width: 0.2"/>
     <use xlink:href="#mf75ed7d7d3" x="658.691588" y="182.949113" style="fill: #fd46fc; stroke: #fd46fc; stroke-width: 0.2"/>
     <use xlink:href="#mf75ed7d7d3" x="653.970456" y="189.284756" style="fill: #fd46fc; stroke: #fd46fc; stroke-width: 0.2"/>
     <use xlink:href="#mf75ed7d7d3" x="650.359003" y="193.039764" style="fill: #fd46fc; stroke: #fd46fc; stroke-width: 0.2"/>
     <use xlink:href="#mf75ed7d7d3" x="647.518328" y="195.385073" style="fill: #fd46fc; stroke: #fd46fc; stroke-width: 0.2"/>
     <use xlink:href="#mf75ed7d7d3" x="645.23803" y="196.907222" style="fill: #fd46fc; stroke: #fd46fc; stroke-width: 0.2"/>
    </g>
   </g>
   <g id="PathCollection_4">
    <g clip-path="url(#p5fe6034ce2)">
     <use xlink:href="#m8308446451" x="674.440622" y="147.852309" style="fill: #fd46fc; stroke: #fd46fc; stroke-width: 0.2"/>
    </g>
   </g>
   <g id="patch_6">
    <path d="M 394.640625 208.84 
L 394.640625 22.44 
" style="fill: none; stroke: #000000; stroke-width: 0.6; stroke-linejoin: miter; stroke-linecap: square"/>
   </g>
   <g id="patch_7">
    <path d="M 394.640625 208.84 
L 702.420625 208.84 
" style="fill: none; stroke: #000000; stroke-width: 0.6; stroke-linejoin: miter; stroke-linecap: square"/>
   </g>
   <g id="text_36">
    <!-- learning rate$=0.01$, number of steps$=6$ -->
    <g transform="translate(408.250625 16.44) scale(0.12 -0.12)">
     <defs>
      <path id="DejaVuSans-36" d="M 2113 2584 
Q 1688 2584 1439 2293 
Q 1191 2003 1191 1497 
Q 1191 994 1439 701 
Q 1688 409 2113 409 
Q 2538 409 2786 701 
Q 3034 994 3034 1497 
Q 3034 2003 2786 2293 
Q 2538 2584 2113 2584 
z
M 3366 4563 
L 3366 3988 
Q 3128 4100 2886 4159 
Q 2644 4219 2406 4219 
Q 1781 4219 1451 3797 
Q 1122 3375 1075 2522 
Q 1259 2794 1537 2939 
Q 1816 3084 2150 3084 
Q 2853 3084 3261 2657 
Q 3669 2231 3669 1497 
Q 3669 778 3244 343 
Q 2819 -91 2113 -91 
Q 1303 -91 875 529 
Q 447 1150 447 2328 
Q 447 3434 972 4092 
Q 1497 4750 2381 4750 
Q 2619 4750 2861 4703 
Q 3103 4656 3366 4563 
z
" transform="scale(0.015625)"/>
     </defs>
     <use xlink:href="#DejaVuSansMono-6c" transform="translate(0 0.484375)"/>
     <use xlink:href="#DejaVuSansMono-65" transform="translate(60.205078 0.484375)"/>
     <use xlink:href="#DejaVuSansMono-61" transform="translate(120.410156 0.484375)"/>
     <use xlink:href="#DejaVuSansMono-72" transform="translate(180.615234 0.484375)"/>
     <use xlink:href="#DejaVuSansMono-6e" transform="translate(240.820312 0.484375)"/>
     <use xlink:href="#DejaVuSansMono-69" transform="translate(301.025391 0.484375)"/>
     <use xlink:href="#DejaVuSansMono-6e" transform="translate(361.230469 0.484375)"/>
     <use xlink:href="#DejaVuSansMono-67" transform="translate(421.435547 0.484375)"/>
     <use xlink:href="#DejaVuSansMono-20" transform="translate(481.640625 0.484375)"/>
     <use xlink:href="#DejaVuSansMono-72" transform="translate(541.845703 0.484375)"/>
     <use xlink:href="#DejaVuSansMono-61" transform="translate(602.050781 0.484375)"/>
     <use xlink:href="#DejaVuSansMono-74" transform="translate(662.255859 0.484375)"/>
     <use xlink:href="#DejaVuSansMono-65" transform="translate(722.460938 0.484375)"/>
     <use xlink:href="#DejaVuSans-3d" transform="translate(802.148438 0.484375)"/>
     <use xlink:href="#DejaVuSans-30" transform="translate(905.419922 0.484375)"/>
     <use xlink:href="#DejaVuSans-2e" transform="translate(969.042969 0.484375)"/>
     <use xlink:href="#DejaVuSans-30" transform="translate(1000.830078 0.484375)"/>
     <use xlink:href="#DejaVuSans-31" transform="translate(1064.453125 0.484375)"/>
     <use xlink:href="#DejaVuSansMono-2c" transform="translate(1128.076172 0.484375)"/>
     <use xlink:href="#DejaVuSansMono-20" transform="translate(1188.28125 0.484375)"/>
     <use xlink:href="#DejaVuSansMono-6e" transform="translate(1248.486328 0.484375)"/>
     <use xlink:href="#DejaVuSansMono-75" transform="translate(1308.691406 0.484375)"/>
     <use xlink:href="#DejaVuSansMono-6d" transform="translate(1368.896484 0.484375)"/>
     <use xlink:href="#DejaVuSansMono-62" transform="translate(1429.101562 0.484375)"/>
     <use xlink:href="#DejaVuSansMono-65" transform="translate(1489.306641 0.484375)"/>
     <use xlink:href="#DejaVuSansMono-72" transform="translate(1549.511719 0.484375)"/>
     <use xlink:href="#DejaVuSansMono-20" transform="translate(1609.716797 0.484375)"/>
     <use xlink:href="#DejaVuSansMono-6f" transform="translate(1669.921875 0.484375)"/>
     <use xlink:href="#DejaVuSansMono-66" transform="translate(1730.126953 0.484375)"/>
     <use xlink:href="#DejaVuSansMono-20" transform="translate(1790.332031 0.484375)"/>
     <use xlink:href="#DejaVuSansMono-73" transform="translate(1850.537109 0.484375)"/>
     <use xlink:href="#DejaVuSansMono-74" transform="translate(1910.742188 0.484375)"/>
     <use xlink:href="#DejaVuSansMono-65" transform="translate(1970.947266 0.484375)"/>
     <use xlink:href="#DejaVuSansMono-70" transform="translate(2031.152344 0.484375)"/>
     <use xlink:href="#DejaVuSansMono-73" transform="translate(2091.357422 0.484375)"/>
     <use xlink:href="#DejaVuSans-3d" transform="translate(2171.044922 0.484375)"/>
     <use xlink:href="#DejaVuSans-36" transform="translate(2274.316406 0.484375)"/>
    </g>
   </g>
  </g>
  <g id="axes_3">
   <g id="patch_8">
    <path d="M 40.040625 455.44 
L 347.820625 455.44 
L 347.820625 269.04 
L 40.040625 269.04 
z
" style="fill: #ffffff"/>
   </g>
   <g id="matplotlib.axis_5">
    <g id="xtick_19">
     <g id="line2d_65">
      <path d="M 54.030625 455.44 
L 54.030625 269.04 
" clip-path="url(#pc14a1acebe)" style="fill: none; stroke-dasharray: 2.22,0.96; stroke-dashoffset: 0; stroke: #6c6066; stroke-opacity: 0.4; stroke-width: 0.6"/>
     </g>
     <g id="line2d_66">
      <g>
       <use xlink:href="#m3886958fb2" x="54.030625" y="455.44" style="stroke: #000000; stroke-width: 0.8"/>
      </g>
     </g>
     <g id="text_37">
      <!-- −0.5 -->
      <g transform="translate(41.99 470.091563) scale(0.1 -0.1)">
       <use xlink:href="#DejaVuSansMono-2212"/>
       <use xlink:href="#DejaVuSansMono-30" x="60.205078"/>
       <use xlink:href="#DejaVuSansMono-2e" x="120.410156"/>
       <use xlink:href="#DejaVuSansMono-35" x="180.615234"/>
      </g>
     </g>
    </g>
    <g id="xtick_20">
     <g id="line2d_67">
      <path d="M 89.005625 455.44 
L 89.005625 269.04 
" clip-path="url(#pc14a1acebe)" style="fill: none; stroke-dasharray: 2.22,0.96; stroke-dashoffset: 0; stroke: #6c6066; stroke-opacity: 0.4; stroke-width: 0.6"/>
     </g>
     <g id="line2d_68">
      <g>
       <use xlink:href="#m3886958fb2" x="89.005625" y="455.44" style="stroke: #000000; stroke-width: 0.8"/>
      </g>
     </g>
     <g id="text_38">
      <!-- 0.0 -->
      <g transform="translate(79.975156 470.091563) scale(0.1 -0.1)">
       <use xlink:href="#DejaVuSansMono-30"/>
       <use xlink:href="#DejaVuSansMono-2e" x="60.205078"/>
       <use xlink:href="#DejaVuSansMono-30" x="120.410156"/>
      </g>
     </g>
    </g>
    <g id="xtick_21">
     <g id="line2d_69">
      <path d="M 123.980625 455.44 
L 123.980625 269.04 
" clip-path="url(#pc14a1acebe)" style="fill: none; stroke-dasharray: 2.22,0.96; stroke-dashoffset: 0; stroke: #6c6066; stroke-opacity: 0.4; stroke-width: 0.6"/>
     </g>
     <g id="line2d_70">
      <g>
       <use xlink:href="#m3886958fb2" x="123.980625" y="455.44" style="stroke: #000000; stroke-width: 0.8"/>
      </g>
     </g>
     <g id="text_39">
      <!-- 0.5 -->
      <g transform="translate(114.950156 470.091563) scale(0.1 -0.1)">
       <use xlink:href="#DejaVuSansMono-30"/>
       <use xlink:href="#DejaVuSansMono-2e" x="60.205078"/>
       <use xlink:href="#DejaVuSansMono-35" x="120.410156"/>
      </g>
     </g>
    </g>
    <g id="xtick_22">
     <g id="line2d_71">
      <path d="M 158.955625 455.44 
L 158.955625 269.04 
" clip-path="url(#pc14a1acebe)" style="fill: none; stroke-dasharray: 2.22,0.96; stroke-dashoffset: 0; stroke: #6c6066; stroke-opacity: 0.4; stroke-width: 0.6"/>
     </g>
     <g id="line2d_72">
      <g>
       <use xlink:href="#m3886958fb2" x="158.955625" y="455.44" style="stroke: #000000; stroke-width: 0.8"/>
      </g>
     </g>
     <g id="text_40">
      <!-- 1.0 -->
      <g transform="translate(149.925156 470.091563) scale(0.1 -0.1)">
       <use xlink:href="#DejaVuSansMono-31"/>
       <use xlink:href="#DejaVuSansMono-2e" x="60.205078"/>
       <use xlink:href="#DejaVuSansMono-30" x="120.410156"/>
      </g>
     </g>
    </g>
    <g id="xtick_23">
     <g id="line2d_73">
      <path d="M 193.930625 455.44 
L 193.930625 269.04 
" clip-path="url(#pc14a1acebe)" style="fill: none; stroke-dasharray: 2.22,0.96; stroke-dashoffset: 0; stroke: #6c6066; stroke-opacity: 0.4; stroke-width: 0.6"/>
     </g>
     <g id="line2d_74">
      <g>
       <use xlink:href="#m3886958fb2" x="193.930625" y="455.44" style="stroke: #000000; stroke-width: 0.8"/>
      </g>
     </g>
     <g id="text_41">
      <!-- 1.5 -->
      <g transform="translate(184.900156 470.091563) scale(0.1 -0.1)">
       <use xlink:href="#DejaVuSansMono-31"/>
       <use xlink:href="#DejaVuSansMono-2e" x="60.205078"/>
       <use xlink:href="#DejaVuSansMono-35" x="120.410156"/>
      </g>
     </g>
    </g>
    <g id="xtick_24">
     <g id="line2d_75">
      <path d="M 228.905625 455.44 
L 228.905625 269.04 
" clip-path="url(#pc14a1acebe)" style="fill: none; stroke-dasharray: 2.22,0.96; stroke-dashoffset: 0; stroke: #6c6066; stroke-opacity: 0.4; stroke-width: 0.6"/>
     </g>
     <g id="line2d_76">
      <g>
       <use xlink:href="#m3886958fb2" x="228.905625" y="455.44" style="stroke: #000000; stroke-width: 0.8"/>
      </g>
     </g>
     <g id="text_42">
      <!-- 2.0 -->
      <g transform="translate(219.875156 470.091563) scale(0.1 -0.1)">
       <use xlink:href="#DejaVuSansMono-32"/>
       <use xlink:href="#DejaVuSansMono-2e" x="60.205078"/>
       <use xlink:href="#DejaVuSansMono-30" x="120.410156"/>
      </g>
     </g>
    </g>
    <g id="xtick_25">
     <g id="line2d_77">
      <path d="M 263.880625 455.44 
L 263.880625 269.04 
" clip-path="url(#pc14a1acebe)" style="fill: none; stroke-dasharray: 2.22,0.96; stroke-dashoffset: 0; stroke: #6c6066; stroke-opacity: 0.4; stroke-width: 0.6"/>
     </g>
     <g id="line2d_78">
      <g>
       <use xlink:href="#m3886958fb2" x="263.880625" y="455.44" style="stroke: #000000; stroke-width: 0.8"/>
      </g>
     </g>
     <g id="text_43">
      <!-- 2.5 -->
      <g transform="translate(254.850156 470.091563) scale(0.1 -0.1)">
       <use xlink:href="#DejaVuSansMono-32"/>
       <use xlink:href="#DejaVuSansMono-2e" x="60.205078"/>
       <use xlink:href="#DejaVuSansMono-35" x="120.410156"/>
      </g>
     </g>
    </g>
    <g id="xtick_26">
     <g id="line2d_79">
      <path d="M 298.855625 455.44 
L 298.855625 269.04 
" clip-path="url(#pc14a1acebe)" style="fill: none; stroke-dasharray: 2.22,0.96; stroke-dashoffset: 0; stroke: #6c6066; stroke-opacity: 0.4; stroke-width: 0.6"/>
     </g>
     <g id="line2d_80">
      <g>
       <use xlink:href="#m3886958fb2" x="298.855625" y="455.44" style="stroke: #000000; stroke-width: 0.8"/>
      </g>
     </g>
     <g id="text_44">
      <!-- 3.0 -->
      <g transform="translate(289.825156 470.091563) scale(0.1 -0.1)">
       <use xlink:href="#DejaVuSansMono-33"/>
       <use xlink:href="#DejaVuSansMono-2e" x="60.205078"/>
       <use xlink:href="#DejaVuSansMono-30" x="120.410156"/>
      </g>
     </g>
    </g>
    <g id="xtick_27">
     <g id="line2d_81">
      <path d="M 333.830625 455.44 
L 333.830625 269.04 
" clip-path="url(#pc14a1acebe)" style="fill: none; stroke-dasharray: 2.22,0.96; stroke-dashoffset: 0; stroke: #6c6066; stroke-opacity: 0.4; stroke-width: 0.6"/>
     </g>
     <g id="line2d_82">
      <g>
       <use xlink:href="#m3886958fb2" x="333.830625" y="455.44" style="stroke: #000000; stroke-width: 0.8"/>
      </g>
     </g>
     <g id="text_45">
      <!-- 3.5 -->
      <g transform="translate(324.800156 470.091563) scale(0.1 -0.1)">
       <use xlink:href="#DejaVuSansMono-33"/>
       <use xlink:href="#DejaVuSansMono-2e" x="60.205078"/>
       <use xlink:href="#DejaVuSansMono-35" x="120.410156"/>
      </g>
     </g>
    </g>
    <g id="text_46">
     <!-- $\theta$ -->
     <g transform="translate(190.830625 483.822812) scale(0.1 -0.1)">
      <use xlink:href="#DejaVuSans-Oblique-3b8" transform="translate(0 0.234375)"/>
     </g>
    </g>
   </g>
   <g id="matplotlib.axis_6">
    <g id="ytick_13">
     <g id="line2d_83">
      <path d="M 40.040625 452.273024 
L 347.820625 452.273024 
" clip-path="url(#pc14a1acebe)" style="fill: none; stroke-dasharray: 2.22,0.96; stroke-dashoffset: 0; stroke: #6c6066; stroke-opacity: 0.4; stroke-width: 0.6"/>
     </g>
     <g id="line2d_84">
      <g>
       <use xlink:href="#m7e774decaa" x="40.040625" y="452.273024" style="stroke: #000000; stroke-width: 0.8"/>
      </g>
     </g>
     <g id="text_47">
      <!-- 0 -->
      <g transform="translate(27.020312 456.098805) scale(0.1 -0.1)">
       <use xlink:href="#DejaVuSansMono-30"/>
      </g>
     </g>
    </g>
    <g id="ytick_14">
     <g id="line2d_85">
      <path d="M 40.040625 420.677942 
L 347.820625 420.677942 
" clip-path="url(#pc14a1acebe)" style="fill: none; stroke-dasharray: 2.22,0.96; stroke-dashoffset: 0; stroke: #6c6066; stroke-opacity: 0.4; stroke-width: 0.6"/>
     </g>
     <g id="line2d_86">
      <g>
       <use xlink:href="#m7e774decaa" x="40.040625" y="420.677942" style="stroke: #000000; stroke-width: 0.8"/>
      </g>
     </g>
     <g id="text_48">
      <!-- 2 -->
      <g transform="translate(27.020312 424.503723) scale(0.1 -0.1)">
       <use xlink:href="#DejaVuSansMono-32"/>
      </g>
     </g>
    </g>
    <g id="ytick_15">
     <g id="line2d_87">
      <path d="M 40.040625 389.08286 
L 347.820625 389.08286 
" clip-path="url(#pc14a1acebe)" style="fill: none; stroke-dasharray: 2.22,0.96; stroke-dashoffset: 0; stroke: #6c6066; stroke-opacity: 0.4; stroke-width: 0.6"/>
     </g>
     <g id="line2d_88">
      <g>
       <use xlink:href="#m7e774decaa" x="40.040625" y="389.08286" style="stroke: #000000; stroke-width: 0.8"/>
      </g>
     </g>
     <g id="text_49">
      <!-- 4 -->
      <g transform="translate(27.020312 392.908641) scale(0.1 -0.1)">
       <use xlink:href="#DejaVuSansMono-34"/>
      </g>
     </g>
    </g>
    <g id="ytick_16">
     <g id="line2d_89">
      <path d="M 40.040625 357.487778 
L 347.820625 357.487778 
" clip-path="url(#pc14a1acebe)" style="fill: none; stroke-dasharray: 2.22,0.96; stroke-dashoffset: 0; stroke: #6c6066; stroke-opacity: 0.4; stroke-width: 0.6"/>
     </g>
     <g id="line2d_90">
      <g>
       <use xlink:href="#m7e774decaa" x="40.040625" y="357.487778" style="stroke: #000000; stroke-width: 0.8"/>
      </g>
     </g>
     <g id="text_50">
      <!-- 6 -->
      <g transform="translate(27.020312 361.313559) scale(0.1 -0.1)">
       <use xlink:href="#DejaVuSansMono-36"/>
      </g>
     </g>
    </g>
    <g id="ytick_17">
     <g id="line2d_91">
      <path d="M 40.040625 325.892696 
L 347.820625 325.892696 
" clip-path="url(#pc14a1acebe)" style="fill: none; stroke-dasharray: 2.22,0.96; stroke-dashoffset: 0; stroke: #6c6066; stroke-opacity: 0.4; stroke-width: 0.6"/>
     </g>
     <g id="line2d_92">
      <g>
       <use xlink:href="#m7e774decaa" x="40.040625" y="325.892696" style="stroke: #000000; stroke-width: 0.8"/>
      </g>
     </g>
     <g id="text_51">
      <!-- 8 -->
      <g transform="translate(27.020312 329.718478) scale(0.1 -0.1)">
       <use xlink:href="#DejaVuSansMono-38"/>
      </g>
     </g>
    </g>
    <g id="ytick_18">
     <g id="line2d_93">
      <path d="M 40.040625 294.297615 
L 347.820625 294.297615 
" clip-path="url(#pc14a1acebe)" style="fill: none; stroke-dasharray: 2.22,0.96; stroke-dashoffset: 0; stroke: #6c6066; stroke-opacity: 0.4; stroke-width: 0.6"/>
     </g>
     <g id="line2d_94">
      <g>
       <use xlink:href="#m7e774decaa" x="40.040625" y="294.297615" style="stroke: #000000; stroke-width: 0.8"/>
      </g>
     </g>
     <g id="text_52">
      <!-- 10 -->
      <g transform="translate(21 298.123396) scale(0.1 -0.1)">
       <use xlink:href="#DejaVuSansMono-31"/>
       <use xlink:href="#DejaVuSansMono-30" x="60.205078"/>
      </g>
     </g>
    </g>
    <g id="text_53">
     <!-- $J(\theta)$ -->
     <g transform="translate(14.9 370.69) rotate(-90) scale(0.1 -0.1)">
      <use xlink:href="#DejaVuSans-Oblique-4a" transform="translate(0 0.234375)"/>
      <use xlink:href="#DejaVuSans-28" transform="translate(29.492188 0.234375)"/>
      <use xlink:href="#DejaVuSans-Oblique-3b8" transform="translate(68.505859 0.234375)"/>
      <use xlink:href="#DejaVuSans-29" transform="translate(129.6875 0.234375)"/>
     </g>
    </g>
   </g>
   <g id="line2d_95">
    <path d="M 54.030625 277.512727 
L 56.837983 291.556122 
L 59.64534 304.553807 
L 62.452698 316.553343 
L 65.260055 327.601253 
L 68.067415 337.74315 
L 70.874772 347.023596 
L 73.68213 355.486223 
L 76.489487 363.173637 
L 79.296845 370.127486 
L 82.104204 376.388448 
L 84.911562 381.996161 
L 87.718919 386.989337 
L 90.526277 391.40568 
L 93.333634 395.28191 
L 96.140992 398.653766 
L 98.948349 401.556009 
L 101.755707 404.022405 
L 104.563064 406.085748 
L 107.370422 407.777834 
L 110.177784 409.129492 
L 112.985141 410.170559 
L 115.792499 410.929886 
L 118.599856 411.43534 
L 121.407214 411.713819 
L 124.214567 411.791207 
L 127.957713 411.624535 
L 131.700859 411.200925 
L 136.37979 410.390899 
L 141.994505 409.134678 
L 152.28815 406.501049 
L 159.774434 404.697699 
L 165.389149 403.584532 
L 170.06808 402.886048 
L 174.74701 402.441654 
L 178.490157 402.29279 
L 182.233303 402.343366 
L 185.976441 402.604741 
L 189.719587 403.084945 
L 193.462733 403.789146 
L 197.205879 404.719243 
L 200.949017 405.874105 
L 204.692163 407.249363 
L 208.435309 408.837711 
L 212.178455 410.628647 
L 216.857386 413.131257 
L 221.536308 415.895468 
L 227.151031 419.499623 
L 233.701539 423.990952 
L 251.48146 436.385631 
L 256.160399 439.308921 
L 259.903537 441.423212 
L 263.646675 443.280603 
L 266.454045 444.471216 
L 269.261398 445.460762 
L 272.068751 446.223358 
L 274.876105 446.732097 
L 277.683458 446.959017 
L 280.490828 446.875523 
L 282.362397 446.632362 
L 284.233966 446.229023 
L 286.105535 445.656225 
L 287.977104 444.903964 
L 289.848689 443.96302 
L 291.720258 442.823269 
L 293.591827 441.475129 
L 295.463396 439.908114 
L 297.334982 438.111679 
L 299.20655 436.074735 
L 301.078119 433.787338 
L 302.949688 431.237919 
L 304.821257 428.415389 
L 306.692826 425.308568 
L 308.564412 421.905375 
L 311.371765 416.219547 
L 314.179118 409.799988 
L 316.986472 402.605419 
L 319.793842 394.593234 
L 322.601195 385.719169 
L 325.408548 375.939566 
L 328.215902 365.208171 
L 331.023272 353.478522 
L 333.830625 340.702891 
L 333.830625 340.702891 
" clip-path="url(#pc14a1acebe)" style="fill: none; stroke: #486afb; stroke-width: 2; stroke-linecap: square"/>
   </g>
   <g id="line2d_96">
    <path d="M 57.528126 294.846488 
L 203.790075 294.846488 
L 203.790075 406.898076 
L 215.63646 406.898076 
L 215.63646 412.451477 
L 232.648379 412.451477 
L 232.648379 423.254073 
L 254.257493 423.254073 
L 254.257493 438.152658 
L 273.467917 438.152658 
L 273.467917 446.51039 
" clip-path="url(#pc14a1acebe)" style="fill: none; stroke: #fd46fc; stroke-width: 2; stroke-linecap: square"/>
   </g>
   <g id="PathCollection_5">
    <g clip-path="url(#pc14a1acebe)">
     <use xlink:href="#mf75ed7d7d3" x="57.528126" y="294.846488" style="fill: #fd46fc; stroke: #fd46fc; stroke-width: 0.2"/>
     <use xlink:href="#mf75ed7d7d3" x="203.790075" y="406.898076" style="fill: #fd46fc; stroke: #fd46fc; stroke-width: 0.2"/>
     <use xlink:href="#mf75ed7d7d3" x="215.63646" y="412.451477" style="fill: #fd46fc; stroke: #fd46fc; stroke-width: 0.2"/>
     <use xlink:href="#mf75ed7d7d3" x="232.648379" y="423.254073" style="fill: #fd46fc; stroke: #fd46fc; stroke-width: 0.2"/>
     <use xlink:href="#mf75ed7d7d3" x="254.257493" y="438.152658" style="fill: #fd46fc; stroke: #fd46fc; stroke-width: 0.2"/>
     <use xlink:href="#mf75ed7d7d3" x="273.467917" y="446.51039" style="fill: #fd46fc; stroke: #fd46fc; stroke-width: 0.2"/>
    </g>
   </g>
   <g id="PathCollection_6">
    <g clip-path="url(#pc14a1acebe)">
     <use xlink:href="#m8308446451" x="57.528126" y="294.846488" style="fill: #fd46fc; stroke: #fd46fc; stroke-width: 0.2"/>
    </g>
   </g>
   <g id="patch_9">
    <path d="M 40.040625 455.44 
L 40.040625 269.04 
" style="fill: none; stroke: #000000; stroke-width: 0.6; stroke-linejoin: miter; stroke-linecap: square"/>
   </g>
   <g id="patch_10">
    <path d="M 40.040625 455.44 
L 347.820625 455.44 
" style="fill: none; stroke: #000000; stroke-width: 0.6; stroke-linejoin: miter; stroke-linecap: square"/>
   </g>
   <g id="text_54">
    <!-- learning rate$=0.1$, number of steps$=5$ -->
    <g transform="translate(57.430625 263.04) scale(0.12 -0.12)">
     <defs>
      <path id="DejaVuSans-35" d="M 691 4666 
L 3169 4666 
L 3169 4134 
L 1269 4134 
L 1269 2991 
Q 1406 3038 1543 3061 
Q 1681 3084 1819 3084 
Q 2600 3084 3056 2656 
Q 3513 2228 3513 1497 
Q 3513 744 3044 326 
Q 2575 -91 1722 -91 
Q 1428 -91 1123 -41 
Q 819 9 494 109 
L 494 744 
Q 775 591 1075 516 
Q 1375 441 1709 441 
Q 2250 441 2565 725 
Q 2881 1009 2881 1497 
Q 2881 1984 2565 2268 
Q 2250 2553 1709 2553 
Q 1456 2553 1204 2497 
Q 953 2441 691 2322 
L 691 4666 
z
" transform="scale(0.015625)"/>
     </defs>
     <use xlink:href="#DejaVuSansMono-6c" transform="translate(0 0.484375)"/>
     <use xlink:href="#DejaVuSansMono-65" transform="translate(60.205078 0.484375)"/>
     <use xlink:href="#DejaVuSansMono-61" transform="translate(120.410156 0.484375)"/>
     <use xlink:href="#DejaVuSansMono-72" transform="translate(180.615234 0.484375)"/>
     <use xlink:href="#DejaVuSansMono-6e" transform="translate(240.820312 0.484375)"/>
     <use xlink:href="#DejaVuSansMono-69" transform="translate(301.025391 0.484375)"/>
     <use xlink:href="#DejaVuSansMono-6e" transform="translate(361.230469 0.484375)"/>
     <use xlink:href="#DejaVuSansMono-67" transform="translate(421.435547 0.484375)"/>
     <use xlink:href="#DejaVuSansMono-20" transform="translate(481.640625 0.484375)"/>
     <use xlink:href="#DejaVuSansMono-72" transform="translate(541.845703 0.484375)"/>
     <use xlink:href="#DejaVuSansMono-61" transform="translate(602.050781 0.484375)"/>
     <use xlink:href="#DejaVuSansMono-74" transform="translate(662.255859 0.484375)"/>
     <use xlink:href="#DejaVuSansMono-65" transform="translate(722.460938 0.484375)"/>
     <use xlink:href="#DejaVuSans-3d" transform="translate(802.148438 0.484375)"/>
     <use xlink:href="#DejaVuSans-30" transform="translate(905.419922 0.484375)"/>
     <use xlink:href="#DejaVuSans-2e" transform="translate(969.042969 0.484375)"/>
     <use xlink:href="#DejaVuSans-31" transform="translate(1000.830078 0.484375)"/>
     <use xlink:href="#DejaVuSansMono-2c" transform="translate(1064.453125 0.484375)"/>
     <use xlink:href="#DejaVuSansMono-20" transform="translate(1124.658203 0.484375)"/>
     <use xlink:href="#DejaVuSansMono-6e" transform="translate(1184.863281 0.484375)"/>
     <use xlink:href="#DejaVuSansMono-75" transform="translate(1245.068359 0.484375)"/>
     <use xlink:href="#DejaVuSansMono-6d" transform="translate(1305.273438 0.484375)"/>
     <use xlink:href="#DejaVuSansMono-62" transform="translate(1365.478516 0.484375)"/>
     <use xlink:href="#DejaVuSansMono-65" transform="translate(1425.683594 0.484375)"/>
     <use xlink:href="#DejaVuSansMono-72" transform="translate(1485.888672 0.484375)"/>
     <use xlink:href="#DejaVuSansMono-20" transform="translate(1546.09375 0.484375)"/>
     <use xlink:href="#DejaVuSansMono-6f" transform="translate(1606.298828 0.484375)"/>
     <use xlink:href="#DejaVuSansMono-66" transform="translate(1666.503906 0.484375)"/>
     <use xlink:href="#DejaVuSansMono-20" transform="translate(1726.708984 0.484375)"/>
     <use xlink:href="#DejaVuSansMono-73" transform="translate(1786.914062 0.484375)"/>
     <use xlink:href="#DejaVuSansMono-74" transform="translate(1847.119141 0.484375)"/>
     <use xlink:href="#DejaVuSansMono-65" transform="translate(1907.324219 0.484375)"/>
     <use xlink:href="#DejaVuSansMono-70" transform="translate(1967.529297 0.484375)"/>
     <use xlink:href="#DejaVuSansMono-73" transform="translate(2027.734375 0.484375)"/>
     <use xlink:href="#DejaVuSans-3d" transform="translate(2107.421875 0.484375)"/>
     <use xlink:href="#DejaVuSans-35" transform="translate(2210.693359 0.484375)"/>
    </g>
   </g>
  </g>
  <g id="axes_4">
   <g id="patch_11">
    <path d="M 394.640625 455.44 
L 702.420625 455.44 
L 702.420625 269.04 
L 394.640625 269.04 
z
" style="fill: #ffffff"/>
   </g>
   <g id="matplotlib.axis_7">
    <g id="xtick_28">
     <g id="line2d_97">
      <path d="M 408.630625 455.44 
L 408.630625 269.04 
" clip-path="url(#p7d4f240b53)" style="fill: none; stroke-dasharray: 2.22,0.96; stroke-dashoffset: 0; stroke: #6c6066; stroke-opacity: 0.4; stroke-width: 0.6"/>
     </g>
     <g id="line2d_98">
      <g>
       <use xlink:href="#m3886958fb2" x="408.630625" y="455.44" style="stroke: #000000; stroke-width: 0.8"/>
      </g>
     </g>
     <g id="text_55">
      <!-- −0.5 -->
      <g transform="translate(396.59 470.091563) scale(0.1 -0.1)">
       <use xlink:href="#DejaVuSansMono-2212"/>
       <use xlink:href="#DejaVuSansMono-30" x="60.205078"/>
       <use xlink:href="#DejaVuSansMono-2e" x="120.410156"/>
       <use xlink:href="#DejaVuSansMono-35" x="180.615234"/>
      </g>
     </g>
    </g>
    <g id="xtick_29">
     <g id="line2d_99">
      <path d="M 443.605625 455.44 
L 443.605625 269.04 
" clip-path="url(#p7d4f240b53)" style="fill: none; stroke-dasharray: 2.22,0.96; stroke-dashoffset: 0; stroke: #6c6066; stroke-opacity: 0.4; stroke-width: 0.6"/>
     </g>
     <g id="line2d_100">
      <g>
       <use xlink:href="#m3886958fb2" x="443.605625" y="455.44" style="stroke: #000000; stroke-width: 0.8"/>
      </g>
     </g>
     <g id="text_56">
      <!-- 0.0 -->
      <g transform="translate(434.575156 470.091563) scale(0.1 -0.1)">
       <use xlink:href="#DejaVuSansMono-30"/>
       <use xlink:href="#DejaVuSansMono-2e" x="60.205078"/>
       <use xlink:href="#DejaVuSansMono-30" x="120.410156"/>
      </g>
     </g>
    </g>
    <g id="xtick_30">
     <g id="line2d_101">
      <path d="M 478.580625 455.44 
L 478.580625 269.04 
" clip-path="url(#p7d4f240b53)" style="fill: none; stroke-dasharray: 2.22,0.96; stroke-dashoffset: 0; stroke: #6c6066; stroke-opacity: 0.4; stroke-width: 0.6"/>
     </g>
     <g id="line2d_102">
      <g>
       <use xlink:href="#m3886958fb2" x="478.580625" y="455.44" style="stroke: #000000; stroke-width: 0.8"/>
      </g>
     </g>
     <g id="text_57">
      <!-- 0.5 -->
      <g transform="translate(469.550156 470.091563) scale(0.1 -0.1)">
       <use xlink:href="#DejaVuSansMono-30"/>
       <use xlink:href="#DejaVuSansMono-2e" x="60.205078"/>
       <use xlink:href="#DejaVuSansMono-35" x="120.410156"/>
      </g>
     </g>
    </g>
    <g id="xtick_31">
     <g id="line2d_103">
      <path d="M 513.555625 455.44 
L 513.555625 269.04 
" clip-path="url(#p7d4f240b53)" style="fill: none; stroke-dasharray: 2.22,0.96; stroke-dashoffset: 0; stroke: #6c6066; stroke-opacity: 0.4; stroke-width: 0.6"/>
     </g>
     <g id="line2d_104">
      <g>
       <use xlink:href="#m3886958fb2" x="513.555625" y="455.44" style="stroke: #000000; stroke-width: 0.8"/>
      </g>
     </g>
     <g id="text_58">
      <!-- 1.0 -->
      <g transform="translate(504.525156 470.091563) scale(0.1 -0.1)">
       <use xlink:href="#DejaVuSansMono-31"/>
       <use xlink:href="#DejaVuSansMono-2e" x="60.205078"/>
       <use xlink:href="#DejaVuSansMono-30" x="120.410156"/>
      </g>
     </g>
    </g>
    <g id="xtick_32">
     <g id="line2d_105">
      <path d="M 548.530625 455.44 
L 548.530625 269.04 
" clip-path="url(#p7d4f240b53)" style="fill: none; stroke-dasharray: 2.22,0.96; stroke-dashoffset: 0; stroke: #6c6066; stroke-opacity: 0.4; stroke-width: 0.6"/>
     </g>
     <g id="line2d_106">
      <g>
       <use xlink:href="#m3886958fb2" x="548.530625" y="455.44" style="stroke: #000000; stroke-width: 0.8"/>
      </g>
     </g>
     <g id="text_59">
      <!-- 1.5 -->
      <g transform="translate(539.500156 470.091563) scale(0.1 -0.1)">
       <use xlink:href="#DejaVuSansMono-31"/>
       <use xlink:href="#DejaVuSansMono-2e" x="60.205078"/>
       <use xlink:href="#DejaVuSansMono-35" x="120.410156"/>
      </g>
     </g>
    </g>
    <g id="xtick_33">
     <g id="line2d_107">
      <path d="M 583.505625 455.44 
L 583.505625 269.04 
" clip-path="url(#p7d4f240b53)" style="fill: none; stroke-dasharray: 2.22,0.96; stroke-dashoffset: 0; stroke: #6c6066; stroke-opacity: 0.4; stroke-width: 0.6"/>
     </g>
     <g id="line2d_108">
      <g>
       <use xlink:href="#m3886958fb2" x="583.505625" y="455.44" style="stroke: #000000; stroke-width: 0.8"/>
      </g>
     </g>
     <g id="text_60">
      <!-- 2.0 -->
      <g transform="translate(574.475156 470.091563) scale(0.1 -0.1)">
       <use xlink:href="#DejaVuSansMono-32"/>
       <use xlink:href="#DejaVuSansMono-2e" x="60.205078"/>
       <use xlink:href="#DejaVuSansMono-30" x="120.410156"/>
      </g>
     </g>
    </g>
    <g id="xtick_34">
     <g id="line2d_109">
      <path d="M 618.480625 455.44 
L 618.480625 269.04 
" clip-path="url(#p7d4f240b53)" style="fill: none; stroke-dasharray: 2.22,0.96; stroke-dashoffset: 0; stroke: #6c6066; stroke-opacity: 0.4; stroke-width: 0.6"/>
     </g>
     <g id="line2d_110">
      <g>
       <use xlink:href="#m3886958fb2" x="618.480625" y="455.44" style="stroke: #000000; stroke-width: 0.8"/>
      </g>
     </g>
     <g id="text_61">
      <!-- 2.5 -->
      <g transform="translate(609.450156 470.091563) scale(0.1 -0.1)">
       <use xlink:href="#DejaVuSansMono-32"/>
       <use xlink:href="#DejaVuSansMono-2e" x="60.205078"/>
       <use xlink:href="#DejaVuSansMono-35" x="120.410156"/>
      </g>
     </g>
    </g>
    <g id="xtick_35">
     <g id="line2d_111">
      <path d="M 653.455625 455.44 
L 653.455625 269.04 
" clip-path="url(#p7d4f240b53)" style="fill: none; stroke-dasharray: 2.22,0.96; stroke-dashoffset: 0; stroke: #6c6066; stroke-opacity: 0.4; stroke-width: 0.6"/>
     </g>
     <g id="line2d_112">
      <g>
       <use xlink:href="#m3886958fb2" x="653.455625" y="455.44" style="stroke: #000000; stroke-width: 0.8"/>
      </g>
     </g>
     <g id="text_62">
      <!-- 3.0 -->
      <g transform="translate(644.425156 470.091563) scale(0.1 -0.1)">
       <use xlink:href="#DejaVuSansMono-33"/>
       <use xlink:href="#DejaVuSansMono-2e" x="60.205078"/>
       <use xlink:href="#DejaVuSansMono-30" x="120.410156"/>
      </g>
     </g>
    </g>
    <g id="xtick_36">
     <g id="line2d_113">
      <path d="M 688.430625 455.44 
L 688.430625 269.04 
" clip-path="url(#p7d4f240b53)" style="fill: none; stroke-dasharray: 2.22,0.96; stroke-dashoffset: 0; stroke: #6c6066; stroke-opacity: 0.4; stroke-width: 0.6"/>
     </g>
     <g id="line2d_114">
      <g>
       <use xlink:href="#m3886958fb2" x="688.430625" y="455.44" style="stroke: #000000; stroke-width: 0.8"/>
      </g>
     </g>
     <g id="text_63">
      <!-- 3.5 -->
      <g transform="translate(679.400156 470.091563) scale(0.1 -0.1)">
       <use xlink:href="#DejaVuSansMono-33"/>
       <use xlink:href="#DejaVuSansMono-2e" x="60.205078"/>
       <use xlink:href="#DejaVuSansMono-35" x="120.410156"/>
      </g>
     </g>
    </g>
    <g id="text_64">
     <!-- $\theta$ -->
     <g transform="translate(545.430625 483.822812) scale(0.1 -0.1)">
      <use xlink:href="#DejaVuSans-Oblique-3b8" transform="translate(0 0.234375)"/>
     </g>
    </g>
   </g>
   <g id="matplotlib.axis_8">
    <g id="ytick_19">
     <g id="line2d_115">
      <path d="M 394.640625 452.273024 
L 702.420625 452.273024 
" clip-path="url(#p7d4f240b53)" style="fill: none; stroke-dasharray: 2.22,0.96; stroke-dashoffset: 0; stroke: #6c6066; stroke-opacity: 0.4; stroke-width: 0.6"/>
     </g>
     <g id="line2d_116">
      <g>
       <use xlink:href="#m7e774decaa" x="394.640625" y="452.273024" style="stroke: #000000; stroke-width: 0.8"/>
      </g>
     </g>
     <g id="text_65">
      <!-- 0 -->
      <g transform="translate(381.620312 456.098805) scale(0.1 -0.1)">
       <use xlink:href="#DejaVuSansMono-30"/>
      </g>
     </g>
    </g>
    <g id="ytick_20">
     <g id="line2d_117">
      <path d="M 394.640625 420.677942 
L 702.420625 420.677942 
" clip-path="url(#p7d4f240b53)" style="fill: none; stroke-dasharray: 2.22,0.96; stroke-dashoffset: 0; stroke: #6c6066; stroke-opacity: 0.4; stroke-width: 0.6"/>
     </g>
     <g id="line2d_118">
      <g>
       <use xlink:href="#m7e774decaa" x="394.640625" y="420.677942" style="stroke: #000000; stroke-width: 0.8"/>
      </g>
     </g>
     <g id="text_66">
      <!-- 2 -->
      <g transform="translate(381.620312 424.503723) scale(0.1 -0.1)">
       <use xlink:href="#DejaVuSansMono-32"/>
      </g>
     </g>
    </g>
    <g id="ytick_21">
     <g id="line2d_119">
      <path d="M 394.640625 389.08286 
L 702.420625 389.08286 
" clip-path="url(#p7d4f240b53)" style="fill: none; stroke-dasharray: 2.22,0.96; stroke-dashoffset: 0; stroke: #6c6066; stroke-opacity: 0.4; stroke-width: 0.6"/>
     </g>
     <g id="line2d_120">
      <g>
       <use xlink:href="#m7e774decaa" x="394.640625" y="389.08286" style="stroke: #000000; stroke-width: 0.8"/>
      </g>
     </g>
     <g id="text_67">
      <!-- 4 -->
      <g transform="translate(381.620312 392.908641) scale(0.1 -0.1)">
       <use xlink:href="#DejaVuSansMono-34"/>
      </g>
     </g>
    </g>
    <g id="ytick_22">
     <g id="line2d_121">
      <path d="M 394.640625 357.487778 
L 702.420625 357.487778 
" clip-path="url(#p7d4f240b53)" style="fill: none; stroke-dasharray: 2.22,0.96; stroke-dashoffset: 0; stroke: #6c6066; stroke-opacity: 0.4; stroke-width: 0.6"/>
     </g>
     <g id="line2d_122">
      <g>
       <use xlink:href="#m7e774decaa" x="394.640625" y="357.487778" style="stroke: #000000; stroke-width: 0.8"/>
      </g>
     </g>
     <g id="text_68">
      <!-- 6 -->
      <g transform="translate(381.620312 361.313559) scale(0.1 -0.1)">
       <use xlink:href="#DejaVuSansMono-36"/>
      </g>
     </g>
    </g>
    <g id="ytick_23">
     <g id="line2d_123">
      <path d="M 394.640625 325.892696 
L 702.420625 325.892696 
" clip-path="url(#p7d4f240b53)" style="fill: none; stroke-dasharray: 2.22,0.96; stroke-dashoffset: 0; stroke: #6c6066; stroke-opacity: 0.4; stroke-width: 0.6"/>
     </g>
     <g id="line2d_124">
      <g>
       <use xlink:href="#m7e774decaa" x="394.640625" y="325.892696" style="stroke: #000000; stroke-width: 0.8"/>
      </g>
     </g>
     <g id="text_69">
      <!-- 8 -->
      <g transform="translate(381.620312 329.718478) scale(0.1 -0.1)">
       <use xlink:href="#DejaVuSansMono-38"/>
      </g>
     </g>
    </g>
    <g id="ytick_24">
     <g id="line2d_125">
      <path d="M 394.640625 294.297615 
L 702.420625 294.297615 
" clip-path="url(#p7d4f240b53)" style="fill: none; stroke-dasharray: 2.22,0.96; stroke-dashoffset: 0; stroke: #6c6066; stroke-opacity: 0.4; stroke-width: 0.6"/>
     </g>
     <g id="line2d_126">
      <g>
       <use xlink:href="#m7e774decaa" x="394.640625" y="294.297615" style="stroke: #000000; stroke-width: 0.8"/>
      </g>
     </g>
     <g id="text_70">
      <!-- 10 -->
      <g transform="translate(375.6 298.123396) scale(0.1 -0.1)">
       <use xlink:href="#DejaVuSansMono-31"/>
       <use xlink:href="#DejaVuSansMono-30" x="60.205078"/>
      </g>
     </g>
    </g>
    <g id="text_71">
     <!-- $J(\theta)$ -->
     <g transform="translate(369.5 370.69) rotate(-90) scale(0.1 -0.1)">
      <use xlink:href="#DejaVuSans-Oblique-4a" transform="translate(0 0.234375)"/>
      <use xlink:href="#DejaVuSans-28" transform="translate(29.492188 0.234375)"/>
      <use xlink:href="#DejaVuSans-Oblique-3b8" transform="translate(68.505859 0.234375)"/>
      <use xlink:href="#DejaVuSans-29" transform="translate(129.6875 0.234375)"/>
     </g>
    </g>
   </g>
   <g id="line2d_127">
    <path d="M 408.630625 277.512727 
L 411.437983 291.556122 
L 414.24534 304.553807 
L 417.052698 316.553343 
L 419.860055 327.601253 
L 422.667415 337.74315 
L 425.474772 347.023596 
L 428.28213 355.486223 
L 431.089487 363.173637 
L 433.896845 370.127486 
L 436.704204 376.388448 
L 439.511562 381.996161 
L 442.318919 386.989337 
L 445.126277 391.40568 
L 447.933634 395.28191 
L 450.740992 398.653766 
L 453.548349 401.556009 
L 456.355707 404.022405 
L 459.163064 406.085748 
L 461.970422 407.777834 
L 464.777784 409.129492 
L 467.585141 410.170559 
L 470.392499 410.929886 
L 473.199856 411.43534 
L 476.007214 411.713819 
L 478.814567 411.791207 
L 482.557713 411.624535 
L 486.300859 411.200925 
L 490.97979 410.390899 
L 496.594505 409.134678 
L 506.88815 406.501049 
L 514.374434 404.697699 
L 519.989149 403.584532 
L 524.66808 402.886048 
L 529.34701 402.441654 
L 533.090157 402.29279 
L 536.833303 402.343366 
L 540.576441 402.604741 
L 544.319587 403.084945 
L 548.062733 403.789146 
L 551.805879 404.719243 
L 555.549017 405.874105 
L 559.292163 407.249363 
L 563.035309 408.837711 
L 566.778455 410.628647 
L 571.457386 413.131257 
L 576.136308 415.895468 
L 581.751031 419.499623 
L 588.301539 423.990952 
L 606.08146 436.385631 
L 610.760399 439.308921 
L 614.503537 441.423212 
L 618.246675 443.280603 
L 621.054045 444.471216 
L 623.861398 445.460762 
L 626.668751 446.223358 
L 629.476105 446.732097 
L 632.283458 446.959017 
L 635.090828 446.875523 
L 636.962397 446.632362 
L 638.833966 446.229023 
L 640.705535 445.656225 
L 642.577104 444.903964 
L 644.448689 443.96302 
L 646.320258 442.823269 
L 648.191827 441.475129 
L 650.063396 439.908114 
L 651.934982 438.111679 
L 653.80655 436.074735 
L 655.678119 433.787338 
L 657.549688 431.237919 
L 659.421257 428.415389 
L 661.292826 425.308568 
L 663.164412 421.905375 
L 665.971765 416.219547 
L 668.779118 409.799988 
L 671.586472 402.605419 
L 674.393842 394.593234 
L 677.201195 385.719169 
L 680.008548 375.939566 
L 682.815902 365.208171 
L 685.623272 353.478522 
L 688.430625 340.702891 
L 688.430625 340.702891 
" clip-path="url(#p7d4f240b53)" style="fill: none; stroke: #486afb; stroke-width: 2; stroke-linecap: square"/>
   </g>
   <g id="line2d_128">
    <path d="M 684.933128 356.456651 
L 420.389212 356.456651 
L 420.389212 329.58082 
L 650.257321 329.58082 
L 650.257321 439.732599 
L 593.858742 439.732599 
L 593.858742 427.92845 
L 637.949781 427.92845 
L 637.949781 446.440244 
L 624.4609 446.440244 
L 624.4609 445.643539 
" clip-path="url(#p7d4f240b53)" style="fill: none; stroke: #fd46fc; stroke-width: 2; stroke-linecap: square"/>
   </g>
   <g id="PathCollection_7">
    <g clip-path="url(#p7d4f240b53)">
     <use xlink:href="#mf75ed7d7d3" x="684.933128" y="356.456651" style="fill: #fd46fc; stroke: #fd46fc; stroke-width: 0.2"/>
     <use xlink:href="#mf75ed7d7d3" x="420.389212" y="329.58082" style="fill: #fd46fc; stroke: #fd46fc; stroke-width: 0.2"/>
     <use xlink:href="#mf75ed7d7d3" x="650.257321" y="439.732599" style="fill: #fd46fc; stroke: #fd46fc; stroke-width: 0.2"/>
     <use xlink:href="#mf75ed7d7d3" x="593.858742" y="427.92845" style="fill: #fd46fc; stroke: #fd46fc; stroke-width: 0.2"/>
     <use xlink:href="#mf75ed7d7d3" x="637.949781" y="446.440244" style="fill: #fd46fc; stroke: #fd46fc; stroke-width: 0.2"/>
     <use xlink:href="#mf75ed7d7d3" x="624.4609" y="445.643539" style="fill: #fd46fc; stroke: #fd46fc; stroke-width: 0.2"/>
    </g>
   </g>
   <g id="PathCollection_8">
    <g clip-path="url(#p7d4f240b53)">
     <use xlink:href="#m8308446451" x="684.933128" y="356.456651" style="fill: #fd46fc; stroke: #fd46fc; stroke-width: 0.2"/>
    </g>
   </g>
   <g id="patch_12">
    <path d="M 394.640625 455.44 
L 394.640625 269.04 
" style="fill: none; stroke: #000000; stroke-width: 0.6; stroke-linejoin: miter; stroke-linecap: square"/>
   </g>
   <g id="patch_13">
    <path d="M 394.640625 455.44 
L 702.420625 455.44 
" style="fill: none; stroke: #000000; stroke-width: 0.6; stroke-linejoin: miter; stroke-linecap: square"/>
   </g>
   <g id="text_72">
    <!-- learning rate$=0.2$, number of steps$=5$ -->
    <g transform="translate(412.390625 263.04) scale(0.12 -0.12)">
     <defs>
      <path id="DejaVuSans-32" d="M 1228 531 
L 3431 531 
L 3431 0 
L 469 0 
L 469 531 
Q 828 903 1448 1529 
Q 2069 2156 2228 2338 
Q 2531 2678 2651 2914 
Q 2772 3150 2772 3378 
Q 2772 3750 2511 3984 
Q 2250 4219 1831 4219 
Q 1534 4219 1204 4116 
Q 875 4013 500 3803 
L 500 4441 
Q 881 4594 1212 4672 
Q 1544 4750 1819 4750 
Q 2544 4750 2975 4387 
Q 3406 4025 3406 3419 
Q 3406 3131 3298 2873 
Q 3191 2616 2906 2266 
Q 2828 2175 2409 1742 
Q 1991 1309 1228 531 
z
" transform="scale(0.015625)"/>
     </defs>
     <use xlink:href="#DejaVuSansMono-6c" transform="translate(0 0.484375)"/>
     <use xlink:href="#DejaVuSansMono-65" transform="translate(60.205078 0.484375)"/>
     <use xlink:href="#DejaVuSansMono-61" transform="translate(120.410156 0.484375)"/>
     <use xlink:href="#DejaVuSansMono-72" transform="translate(180.615234 0.484375)"/>
     <use xlink:href="#DejaVuSansMono-6e" transform="translate(240.820312 0.484375)"/>
     <use xlink:href="#DejaVuSansMono-69" transform="translate(301.025391 0.484375)"/>
     <use xlink:href="#DejaVuSansMono-6e" transform="translate(361.230469 0.484375)"/>
     <use xlink:href="#DejaVuSansMono-67" transform="translate(421.435547 0.484375)"/>
     <use xlink:href="#DejaVuSansMono-20" transform="translate(481.640625 0.484375)"/>
     <use xlink:href="#DejaVuSansMono-72" transform="translate(541.845703 0.484375)"/>
     <use xlink:href="#DejaVuSansMono-61" transform="translate(602.050781 0.484375)"/>
     <use xlink:href="#DejaVuSansMono-74" transform="translate(662.255859 0.484375)"/>
     <use xlink:href="#DejaVuSansMono-65" transform="translate(722.460938 0.484375)"/>
     <use xlink:href="#DejaVuSans-3d" transform="translate(802.148438 0.484375)"/>
     <use xlink:href="#DejaVuSans-30" transform="translate(905.419922 0.484375)"/>
     <use xlink:href="#DejaVuSans-2e" transform="translate(969.042969 0.484375)"/>
     <use xlink:href="#DejaVuSans-32" transform="translate(995.330078 0.484375)"/>
     <use xlink:href="#DejaVuSansMono-2c" transform="translate(1058.953125 0.484375)"/>
     <use xlink:href="#DejaVuSansMono-20" transform="translate(1119.158203 0.484375)"/>
     <use xlink:href="#DejaVuSansMono-6e" transform="translate(1179.363281 0.484375)"/>
     <use xlink:href="#DejaVuSansMono-75" transform="translate(1239.568359 0.484375)"/>
     <use xlink:href="#DejaVuSansMono-6d" transform="translate(1299.773438 0.484375)"/>
     <use xlink:href="#DejaVuSansMono-62" transform="translate(1359.978516 0.484375)"/>
     <use xlink:href="#DejaVuSansMono-65" transform="translate(1420.183594 0.484375)"/>
     <use xlink:href="#DejaVuSansMono-72" transform="translate(1480.388672 0.484375)"/>
     <use xlink:href="#DejaVuSansMono-20" transform="translate(1540.59375 0.484375)"/>
     <use xlink:href="#DejaVuSansMono-6f" transform="translate(1600.798828 0.484375)"/>
     <use xlink:href="#DejaVuSansMono-66" transform="translate(1661.003906 0.484375)"/>
     <use xlink:href="#DejaVuSansMono-20" transform="translate(1721.208984 0.484375)"/>
     <use xlink:href="#DejaVuSansMono-73" transform="translate(1781.414062 0.484375)"/>
     <use xlink:href="#DejaVuSansMono-74" transform="translate(1841.619141 0.484375)"/>
     <use xlink:href="#DejaVuSansMono-65" transform="translate(1901.824219 0.484375)"/>
     <use xlink:href="#DejaVuSansMono-70" transform="translate(1962.029297 0.484375)"/>
     <use xlink:href="#DejaVuSansMono-73" transform="translate(2022.234375 0.484375)"/>
     <use xlink:href="#DejaVuSans-3d" transform="translate(2101.921875 0.484375)"/>
     <use xlink:href="#DejaVuSans-35" transform="translate(2205.193359 0.484375)"/>
    </g>
   </g>
  </g>
 </g>
 <defs>
  <clipPath id="pd090d6e750">
   <rect x="40.040625" y="22.44" width="307.78" height="186.4"/>
  </clipPath>
  <clipPath id="p5fe6034ce2">
   <rect x="394.640625" y="22.44" width="307.78" height="186.4"/>
  </clipPath>
  <clipPath id="pc14a1acebe">
   <rect x="40.040625" y="269.04" width="307.78" height="186.4"/>
  </clipPath>
  <clipPath id="p7d4f240b53">
   <rect x="394.640625" y="269.04" width="307.78" height="186.4"/>
  </clipPath>
 </defs>
</svg>