<?xml version="1.0" encoding="utf-8" standalone="no"?>
<!DOCTYPE svg PUBLIC "-//W3C//DTD SVG 1.1//EN"
  "http://www.w3.org/Graphics/SVG/1.1/DTD/svg11.dtd">
<svg xmlns:xlink="http://www.w3.org/1999/xlink" width="712.422187pt" height="280.037031pt" viewBox="0 0 712.422187 280.037031" xmlns="http://www.w3.org/2000/svg" version="1.1">
 <metadata>
  <rdf:RDF xmlns:dc="http://purl.org/dc/elements/1.1/" xmlns:cc="http://creativecommons.org/ns#" xmlns:rdf="http://www.w3.org/1999/02/22-rdf-syntax-ns#">
   <cc:Work>
    <dc:type rdf:resource="http://purl.org/dc/dcmitype/StillImage"/>
    <dc:date>2023-11-15T19:46:31.728511</dc:date>
    <dc:format>image/svg+xml</dc:format>
    <dc:creator>
     <cc:Agent>
      <dc:title>Matplotlib v3.8.0, https://matplotlib.org/</dc:title>
     </cc:Agent>
    </dc:creator>
   </cc:Work>
  </rdf:RDF>
 </metadata>
 <defs>
  <style type="text/css">*{stroke-linejoin: round; stroke-linecap: butt}</style>
 </defs>
 <g id="figure_1">
  <g id="patch_1">
   <path d="M 0 280.037031 
L 712.422187 280.037031 
L 712.422187 0 
L 0 0 
z
" style="fill: #ffffff"/>
  </g>
  <g id="axes_1">
   <g id="patch_2">
    <path d="M 45.992188 242.305781 
L 350.622187 242.305781 
L 350.622187 11.025781 
L 45.992188 11.025781 
z
" style="fill: #ffffff"/>
   </g>
   <g id="matplotlib.axis_1">
    <g id="xtick_1">
     <g id="line2d_1">
      <path d="M 53.475947 242.305781 
L 53.475947 11.025781 
" clip-path="url(#p034d9e908e)" style="fill: none; stroke-dasharray: 2.22,0.96; stroke-dashoffset: 0; stroke: #6c6066; stroke-opacity: 0.4; stroke-width: 0.6"/>
     </g>
     <g id="line2d_2">
      <defs>
       <path id="ma17ec15c26" d="M 0 0 
L 0 3.5 
" style="stroke: #000000; stroke-width: 0.8"/>
      </defs>
      <g>
       <use xlink:href="#ma17ec15c26" x="53.475947" y="242.305781" style="stroke: #000000; stroke-width: 0.8"/>
      </g>
     </g>
     <g id="text_1">
      <!-- −2 -->
      <g transform="translate(47.455634 256.957344) scale(0.1 -0.1)">
       <defs>
        <path id="DejaVuSansMono-2212" d="M 275 2272 
L 3578 2272 
L 3578 1741 
L 275 1741 
L 275 2272 
z
" transform="scale(0.015625)"/>
        <path id="DejaVuSansMono-32" d="M 1166 531 
L 3309 531 
L 3309 0 
L 475 0 
L 475 531 
Q 1059 1147 1496 1619 
Q 1934 2091 2100 2284 
Q 2413 2666 2522 2902 
Q 2631 3138 2631 3384 
Q 2631 3775 2401 3997 
Q 2172 4219 1772 4219 
Q 1488 4219 1175 4116 
Q 863 4013 513 3803 
L 513 4441 
Q 834 4594 1145 4672 
Q 1456 4750 1759 4750 
Q 2444 4750 2861 4386 
Q 3278 4022 3278 3431 
Q 3278 3131 3139 2831 
Q 3000 2531 2688 2169 
Q 2513 1966 2180 1606 
Q 1847 1247 1166 531 
z
" transform="scale(0.015625)"/>
       </defs>
       <use xlink:href="#DejaVuSansMono-2212"/>
       <use xlink:href="#DejaVuSansMono-32" x="60.205078"/>
      </g>
     </g>
    </g>
    <g id="xtick_2">
     <g id="line2d_3">
      <path d="M 108.665868 242.305781 
L 108.665868 11.025781 
" clip-path="url(#p034d9e908e)" style="fill: none; stroke-dasharray: 2.22,0.96; stroke-dashoffset: 0; stroke: #6c6066; stroke-opacity: 0.4; stroke-width: 0.6"/>
     </g>
     <g id="line2d_4">
      <g>
       <use xlink:href="#ma17ec15c26" x="108.665868" y="242.305781" style="stroke: #000000; stroke-width: 0.8"/>
      </g>
     </g>
     <g id="text_2">
      <!-- 0 -->
      <g transform="translate(105.655712 256.957344) scale(0.1 -0.1)">
       <defs>
        <path id="DejaVuSansMono-30" d="M 1509 2344 
Q 1509 2516 1629 2641 
Q 1750 2766 1919 2766 
Q 2094 2766 2219 2641 
Q 2344 2516 2344 2344 
Q 2344 2169 2220 2047 
Q 2097 1925 1919 1925 
Q 1744 1925 1626 2044 
Q 1509 2163 1509 2344 
z
M 1925 4250 
Q 1484 4250 1267 3775 
Q 1050 3300 1050 2328 
Q 1050 1359 1267 884 
Q 1484 409 1925 409 
Q 2369 409 2586 884 
Q 2803 1359 2803 2328 
Q 2803 3300 2586 3775 
Q 2369 4250 1925 4250 
z
M 1925 4750 
Q 2672 4750 3055 4137 
Q 3438 3525 3438 2328 
Q 3438 1134 3055 521 
Q 2672 -91 1925 -91 
Q 1178 -91 797 521 
Q 416 1134 416 2328 
Q 416 3525 797 4137 
Q 1178 4750 1925 4750 
z
" transform="scale(0.015625)"/>
       </defs>
       <use xlink:href="#DejaVuSansMono-30"/>
      </g>
     </g>
    </g>
    <g id="xtick_3">
     <g id="line2d_5">
      <path d="M 163.85579 242.305781 
L 163.85579 11.025781 
" clip-path="url(#p034d9e908e)" style="fill: none; stroke-dasharray: 2.22,0.96; stroke-dashoffset: 0; stroke: #6c6066; stroke-opacity: 0.4; stroke-width: 0.6"/>
     </g>
     <g id="line2d_6">
      <g>
       <use xlink:href="#ma17ec15c26" x="163.85579" y="242.305781" style="stroke: #000000; stroke-width: 0.8"/>
      </g>
     </g>
     <g id="text_3">
      <!-- 2 -->
      <g transform="translate(160.845633 256.957344) scale(0.1 -0.1)">
       <use xlink:href="#DejaVuSansMono-32"/>
      </g>
     </g>
    </g>
    <g id="xtick_4">
     <g id="line2d_7">
      <path d="M 219.045711 242.305781 
L 219.045711 11.025781 
" clip-path="url(#p034d9e908e)" style="fill: none; stroke-dasharray: 2.22,0.96; stroke-dashoffset: 0; stroke: #6c6066; stroke-opacity: 0.4; stroke-width: 0.6"/>
     </g>
     <g id="line2d_8">
      <g>
       <use xlink:href="#ma17ec15c26" x="219.045711" y="242.305781" style="stroke: #000000; stroke-width: 0.8"/>
      </g>
     </g>
     <g id="text_4">
      <!-- 4 -->
      <g transform="translate(216.035555 256.957344) scale(0.1 -0.1)">
       <defs>
        <path id="DejaVuSansMono-34" d="M 2297 4091 
L 825 1625 
L 2297 1625 
L 2297 4091 
z
M 2194 4666 
L 2925 4666 
L 2925 1625 
L 3547 1625 
L 3547 1113 
L 2925 1113 
L 2925 0 
L 2297 0 
L 2297 1113 
L 319 1113 
L 319 1709 
L 2194 4666 
z
" transform="scale(0.015625)"/>
       </defs>
       <use xlink:href="#DejaVuSansMono-34"/>
      </g>
     </g>
    </g>
    <g id="xtick_5">
     <g id="line2d_9">
      <path d="M 274.235632 242.305781 
L 274.235632 11.025781 
" clip-path="url(#p034d9e908e)" style="fill: none; stroke-dasharray: 2.22,0.96; stroke-dashoffset: 0; stroke: #6c6066; stroke-opacity: 0.4; stroke-width: 0.6"/>
     </g>
     <g id="line2d_10">
      <g>
       <use xlink:href="#ma17ec15c26" x="274.235632" y="242.305781" style="stroke: #000000; stroke-width: 0.8"/>
      </g>
     </g>
     <g id="text_5">
      <!-- 6 -->
      <g transform="translate(271.225476 256.957344) scale(0.1 -0.1)">
       <defs>
        <path id="DejaVuSansMono-36" d="M 3097 4563 
L 3097 3981 
Q 2900 4097 2678 4158 
Q 2456 4219 2216 4219 
Q 1616 4219 1306 3767 
Q 997 3316 997 2438 
Q 1147 2750 1412 2917 
Q 1678 3084 2022 3084 
Q 2697 3084 3067 2670 
Q 3438 2256 3438 1497 
Q 3438 741 3056 325 
Q 2675 -91 1984 -91 
Q 1172 -91 794 492 
Q 416 1075 416 2328 
Q 416 3509 870 4129 
Q 1325 4750 2188 4750 
Q 2419 4750 2650 4701 
Q 2881 4653 3097 4563 
z
M 1972 2591 
Q 1569 2591 1337 2300 
Q 1106 2009 1106 1497 
Q 1106 984 1337 693 
Q 1569 403 1972 403 
Q 2391 403 2603 679 
Q 2816 956 2816 1497 
Q 2816 2041 2603 2316 
Q 2391 2591 1972 2591 
z
" transform="scale(0.015625)"/>
       </defs>
       <use xlink:href="#DejaVuSansMono-36"/>
      </g>
     </g>
    </g>
    <g id="xtick_6">
     <g id="line2d_11">
      <path d="M 329.425554 242.305781 
L 329.425554 11.025781 
" clip-path="url(#p034d9e908e)" style="fill: none; stroke-dasharray: 2.22,0.96; stroke-dashoffset: 0; stroke: #6c6066; stroke-opacity: 0.4; stroke-width: 0.6"/>
     </g>
     <g id="line2d_12">
      <g>
       <use xlink:href="#ma17ec15c26" x="329.425554" y="242.305781" style="stroke: #000000; stroke-width: 0.8"/>
      </g>
     </g>
     <g id="text_6">
      <!-- 8 -->
      <g transform="translate(326.415398 256.957344) scale(0.1 -0.1)">
       <defs>
        <path id="DejaVuSansMono-38" d="M 1925 2216 
Q 1503 2216 1273 1980 
Q 1044 1744 1044 1313 
Q 1044 881 1276 642 
Q 1509 403 1925 403 
Q 2350 403 2579 639 
Q 2809 875 2809 1313 
Q 2809 1741 2576 1978 
Q 2344 2216 1925 2216 
z
M 1375 2478 
Q 972 2581 745 2862 
Q 519 3144 519 3541 
Q 519 4097 897 4423 
Q 1275 4750 1925 4750 
Q 2578 4750 2956 4423 
Q 3334 4097 3334 3541 
Q 3334 3144 3107 2862 
Q 2881 2581 2478 2478 
Q 2947 2375 3195 2062 
Q 3444 1750 3444 1253 
Q 3444 622 3041 265 
Q 2638 -91 1925 -91 
Q 1213 -91 811 264 
Q 409 619 409 1247 
Q 409 1747 657 2061 
Q 906 2375 1375 2478 
z
M 1147 3481 
Q 1147 3106 1347 2909 
Q 1547 2713 1925 2713 
Q 2306 2713 2506 2909 
Q 2706 3106 2706 3481 
Q 2706 3863 2507 4063 
Q 2309 4263 1925 4263 
Q 1547 4263 1347 4061 
Q 1147 3859 1147 3481 
z
" transform="scale(0.015625)"/>
       </defs>
       <use xlink:href="#DejaVuSansMono-38"/>
      </g>
     </g>
    </g>
    <g id="text_7">
     <!-- log price -->
     <g transform="translate(171.215781 270.688594) scale(0.1 -0.1)">
      <defs>
       <path id="DejaVuSansMono-6c" d="M 1997 1269 
Q 1997 881 2139 684 
Q 2281 488 2559 488 
L 3231 488 
L 3231 0 
L 2503 0 
Q 1988 0 1705 331 
Q 1422 663 1422 1269 
L 1422 4447 
L 500 4447 
L 500 4897 
L 1997 4897 
L 1997 1269 
z
" transform="scale(0.015625)"/>
       <path id="DejaVuSansMono-6f" d="M 1925 3097 
Q 1488 3097 1263 2756 
Q 1038 2416 1038 1747 
Q 1038 1081 1263 739 
Q 1488 397 1925 397 
Q 2366 397 2591 739 
Q 2816 1081 2816 1747 
Q 2816 2416 2591 2756 
Q 2366 3097 1925 3097 
z
M 1925 3584 
Q 2653 3584 3039 3112 
Q 3425 2641 3425 1747 
Q 3425 850 3040 379 
Q 2656 -91 1925 -91 
Q 1197 -91 812 379 
Q 428 850 428 1747 
Q 428 2641 812 3112 
Q 1197 3584 1925 3584 
z
" transform="scale(0.015625)"/>
       <path id="DejaVuSansMono-67" d="M 2681 1778 
Q 2681 2425 2470 2761 
Q 2259 3097 1856 3097 
Q 1434 3097 1212 2761 
Q 991 2425 991 1778 
Q 991 1131 1214 792 
Q 1438 453 1863 453 
Q 2259 453 2470 793 
Q 2681 1134 2681 1778 
z
M 3256 225 
Q 3256 -563 2884 -969 
Q 2513 -1375 1791 -1375 
Q 1553 -1375 1293 -1331 
Q 1034 -1288 775 -1203 
L 775 -634 
Q 1081 -778 1331 -847 
Q 1581 -916 1791 -916 
Q 2256 -916 2468 -662 
Q 2681 -409 2681 141 
L 2681 166 
L 2681 556 
Q 2544 263 2306 119 
Q 2069 -25 1728 -25 
Q 1116 -25 750 465 
Q 384 956 384 1778 
Q 384 2603 750 3093 
Q 1116 3584 1728 3584 
Q 2066 3584 2300 3450 
Q 2534 3316 2681 3034 
L 2681 3488 
L 3256 3488 
L 3256 225 
z
" transform="scale(0.015625)"/>
       <path id="DejaVuSansMono-20" transform="scale(0.015625)"/>
       <path id="DejaVuSansMono-70" d="M 1172 441 
L 1172 -1331 
L 594 -1331 
L 594 3500 
L 1172 3500 
L 1172 3053 
Q 1316 3313 1555 3448 
Q 1794 3584 2106 3584 
Q 2741 3584 3102 3093 
Q 3463 2603 3463 1734 
Q 3463 881 3100 395 
Q 2738 -91 2106 -91 
Q 1788 -91 1548 45 
Q 1309 181 1172 441 
z
M 2859 1747 
Q 2859 2416 2648 2756 
Q 2438 3097 2022 3097 
Q 1603 3097 1387 2755 
Q 1172 2413 1172 1747 
Q 1172 1084 1387 740 
Q 1603 397 2022 397 
Q 2438 397 2648 737 
Q 2859 1078 2859 1747 
z
" transform="scale(0.015625)"/>
       <path id="DejaVuSansMono-72" d="M 3609 2778 
Q 3425 2922 3234 2987 
Q 3044 3053 2816 3053 
Q 2278 3053 1993 2715 
Q 1709 2378 1709 1741 
L 1709 0 
L 1131 0 
L 1131 3500 
L 1709 3500 
L 1709 2816 
Q 1853 3188 2151 3386 
Q 2450 3584 2859 3584 
Q 3072 3584 3256 3531 
Q 3441 3478 3609 3366 
L 3609 2778 
z
" transform="scale(0.015625)"/>
       <path id="DejaVuSansMono-69" d="M 800 3500 
L 2272 3500 
L 2272 447 
L 3413 447 
L 3413 0 
L 556 0 
L 556 447 
L 1697 447 
L 1697 3053 
L 800 3053 
L 800 3500 
z
M 1697 4863 
L 2272 4863 
L 2272 4134 
L 1697 4134 
L 1697 4863 
z
" transform="scale(0.015625)"/>
       <path id="DejaVuSansMono-63" d="M 3316 178 
Q 3084 44 2839 -23 
Q 2594 -91 2338 -91 
Q 1525 -91 1067 396 
Q 609 884 609 1747 
Q 609 2609 1067 3096 
Q 1525 3584 2338 3584 
Q 2591 3584 2831 3518 
Q 3072 3453 3316 3316 
L 3316 2713 
Q 3088 2916 2858 3006 
Q 2628 3097 2338 3097 
Q 1797 3097 1506 2747 
Q 1216 2397 1216 1747 
Q 1216 1100 1508 748 
Q 1800 397 2338 397 
Q 2638 397 2875 489 
Q 3113 581 3316 775 
L 3316 178 
z
" transform="scale(0.015625)"/>
       <path id="DejaVuSansMono-65" d="M 3475 1894 
L 3475 1613 
L 984 1613 
L 984 1594 
Q 984 1022 1282 709 
Q 1581 397 2125 397 
Q 2400 397 2700 484 
Q 3000 572 3341 750 
L 3341 178 
Q 3013 44 2708 -23 
Q 2403 -91 2119 -91 
Q 1303 -91 843 398 
Q 384 888 384 1747 
Q 384 2584 834 3084 
Q 1284 3584 2034 3584 
Q 2703 3584 3089 3131 
Q 3475 2678 3475 1894 
z
M 2900 2063 
Q 2888 2569 2661 2833 
Q 2434 3097 2009 3097 
Q 1594 3097 1325 2822 
Q 1056 2547 1006 2059 
L 2900 2063 
z
" transform="scale(0.015625)"/>
      </defs>
      <use xlink:href="#DejaVuSansMono-6c"/>
      <use xlink:href="#DejaVuSansMono-6f" x="60.205078"/>
      <use xlink:href="#DejaVuSansMono-67" x="120.410156"/>
      <use xlink:href="#DejaVuSansMono-20" x="180.615234"/>
      <use xlink:href="#DejaVuSansMono-70" x="240.820312"/>
      <use xlink:href="#DejaVuSansMono-72" x="301.025391"/>
      <use xlink:href="#DejaVuSansMono-69" x="361.230469"/>
      <use xlink:href="#DejaVuSansMono-63" x="421.435547"/>
      <use xlink:href="#DejaVuSansMono-65" x="481.640625"/>
     </g>
    </g>
   </g>
   <g id="matplotlib.axis_2">
    <g id="ytick_1">
     <g id="line2d_13">
      <path d="M 45.992188 242.305781 
L 350.622187 242.305781 
" clip-path="url(#p034d9e908e)" style="fill: none; stroke-dasharray: 2.22,0.96; stroke-dashoffset: 0; stroke: #6c6066; stroke-opacity: 0.4; stroke-width: 0.6"/>
     </g>
     <g id="line2d_14">
      <defs>
       <path id="md73059f900" d="M 0 0 
L -3.5 0 
" style="stroke: #000000; stroke-width: 0.8"/>
      </defs>
      <g>
       <use xlink:href="#md73059f900" x="45.992188" y="242.305781" style="stroke: #000000; stroke-width: 0.8"/>
      </g>
     </g>
     <g id="text_8">
      <!-- 0.0 -->
      <g transform="translate(20.93125 246.131562) scale(0.1 -0.1)">
       <defs>
        <path id="DejaVuSansMono-2e" d="M 1528 953 
L 2316 953 
L 2316 0 
L 1528 0 
L 1528 953 
z
" transform="scale(0.015625)"/>
       </defs>
       <use xlink:href="#DejaVuSansMono-30"/>
       <use xlink:href="#DejaVuSansMono-2e" x="60.205078"/>
       <use xlink:href="#DejaVuSansMono-30" x="120.410156"/>
      </g>
     </g>
    </g>
    <g id="ytick_2">
     <g id="line2d_15">
      <path d="M 45.992188 196.049781 
L 350.622187 196.049781 
" clip-path="url(#p034d9e908e)" style="fill: none; stroke-dasharray: 2.22,0.96; stroke-dashoffset: 0; stroke: #6c6066; stroke-opacity: 0.4; stroke-width: 0.6"/>
     </g>
     <g id="line2d_16">
      <g>
       <use xlink:href="#md73059f900" x="45.992188" y="196.049781" style="stroke: #000000; stroke-width: 0.8"/>
      </g>
     </g>
     <g id="text_9">
      <!-- 0.2 -->
      <g transform="translate(20.93125 199.875562) scale(0.1 -0.1)">
       <use xlink:href="#DejaVuSansMono-30"/>
       <use xlink:href="#DejaVuSansMono-2e" x="60.205078"/>
       <use xlink:href="#DejaVuSansMono-32" x="120.410156"/>
      </g>
     </g>
    </g>
    <g id="ytick_3">
     <g id="line2d_17">
      <path d="M 45.992188 149.793781 
L 350.622187 149.793781 
" clip-path="url(#p034d9e908e)" style="fill: none; stroke-dasharray: 2.22,0.96; stroke-dashoffset: 0; stroke: #6c6066; stroke-opacity: 0.4; stroke-width: 0.6"/>
     </g>
     <g id="line2d_18">
      <g>
       <use xlink:href="#md73059f900" x="45.992188" y="149.793781" style="stroke: #000000; stroke-width: 0.8"/>
      </g>
     </g>
     <g id="text_10">
      <!-- 0.4 -->
      <g transform="translate(20.93125 153.619562) scale(0.1 -0.1)">
       <use xlink:href="#DejaVuSansMono-30"/>
       <use xlink:href="#DejaVuSansMono-2e" x="60.205078"/>
       <use xlink:href="#DejaVuSansMono-34" x="120.410156"/>
      </g>
     </g>
    </g>
    <g id="ytick_4">
     <g id="line2d_19">
      <path d="M 45.992188 103.537781 
L 350.622187 103.537781 
" clip-path="url(#p034d9e908e)" style="fill: none; stroke-dasharray: 2.22,0.96; stroke-dashoffset: 0; stroke: #6c6066; stroke-opacity: 0.4; stroke-width: 0.6"/>
     </g>
     <g id="line2d_20">
      <g>
       <use xlink:href="#md73059f900" x="45.992188" y="103.537781" style="stroke: #000000; stroke-width: 0.8"/>
      </g>
     </g>
     <g id="text_11">
      <!-- 0.6 -->
      <g transform="translate(20.93125 107.363562) scale(0.1 -0.1)">
       <use xlink:href="#DejaVuSansMono-30"/>
       <use xlink:href="#DejaVuSansMono-2e" x="60.205078"/>
       <use xlink:href="#DejaVuSansMono-36" x="120.410156"/>
      </g>
     </g>
    </g>
    <g id="ytick_5">
     <g id="line2d_21">
      <path d="M 45.992188 57.281781 
L 350.622187 57.281781 
" clip-path="url(#p034d9e908e)" style="fill: none; stroke-dasharray: 2.22,0.96; stroke-dashoffset: 0; stroke: #6c6066; stroke-opacity: 0.4; stroke-width: 0.6"/>
     </g>
     <g id="line2d_22">
      <g>
       <use xlink:href="#md73059f900" x="45.992188" y="57.281781" style="stroke: #000000; stroke-width: 0.8"/>
      </g>
     </g>
     <g id="text_12">
      <!-- 0.8 -->
      <g transform="translate(20.93125 61.107562) scale(0.1 -0.1)">
       <use xlink:href="#DejaVuSansMono-30"/>
       <use xlink:href="#DejaVuSansMono-2e" x="60.205078"/>
       <use xlink:href="#DejaVuSansMono-38" x="120.410156"/>
      </g>
     </g>
    </g>
    <g id="ytick_6">
     <g id="line2d_23">
      <path d="M 45.992188 11.025781 
L 350.622187 11.025781 
" clip-path="url(#p034d9e908e)" style="fill: none; stroke-dasharray: 2.22,0.96; stroke-dashoffset: 0; stroke: #6c6066; stroke-opacity: 0.4; stroke-width: 0.6"/>
     </g>
     <g id="line2d_24">
      <g>
       <use xlink:href="#md73059f900" x="45.992188" y="11.025781" style="stroke: #000000; stroke-width: 0.8"/>
      </g>
     </g>
     <g id="text_13">
      <!-- 1.0 -->
      <g transform="translate(20.93125 14.851562) scale(0.1 -0.1)">
       <defs>
        <path id="DejaVuSansMono-31" d="M 844 531 
L 1825 531 
L 1825 4097 
L 769 3859 
L 769 4434 
L 1819 4666 
L 2450 4666 
L 2450 531 
L 3419 531 
L 3419 0 
L 844 0 
L 844 531 
z
" transform="scale(0.015625)"/>
       </defs>
       <use xlink:href="#DejaVuSansMono-31"/>
       <use xlink:href="#DejaVuSansMono-2e" x="60.205078"/>
       <use xlink:href="#DejaVuSansMono-30" x="120.410156"/>
      </g>
     </g>
    </g>
    <g id="text_14">
     <!-- probability -->
     <g transform="translate(14.851563 159.7775) rotate(-90) scale(0.1 -0.1)">
      <defs>
       <path id="DejaVuSansMono-62" d="M 2869 1747 
Q 2869 2416 2656 2756 
Q 2444 3097 2028 3097 
Q 1609 3097 1393 2755 
Q 1178 2413 1178 1747 
Q 1178 1084 1393 740 
Q 1609 397 2028 397 
Q 2444 397 2656 737 
Q 2869 1078 2869 1747 
z
M 1178 3053 
Q 1316 3309 1558 3446 
Q 1800 3584 2119 3584 
Q 2750 3584 3112 3098 
Q 3475 2613 3475 1759 
Q 3475 894 3111 401 
Q 2747 -91 2113 -91 
Q 1800 -91 1561 45 
Q 1322 181 1178 441 
L 1178 0 
L 603 0 
L 603 4863 
L 1178 4863 
L 1178 3053 
z
" transform="scale(0.015625)"/>
       <path id="DejaVuSansMono-61" d="M 2194 1759 
L 2003 1759 
Q 1500 1759 1245 1582 
Q 991 1406 991 1056 
Q 991 741 1181 566 
Q 1372 391 1709 391 
Q 2184 391 2456 720 
Q 2728 1050 2731 1631 
L 2731 1759 
L 2194 1759 
z
M 3309 1997 
L 3309 0 
L 2731 0 
L 2731 519 
Q 2547 206 2267 57 
Q 1988 -91 1588 -91 
Q 1053 -91 734 211 
Q 416 513 416 1019 
Q 416 1603 808 1906 
Q 1200 2209 1959 2209 
L 2731 2209 
L 2731 2300 
Q 2728 2719 2518 2908 
Q 2309 3097 1850 3097 
Q 1556 3097 1256 3012 
Q 956 2928 672 2766 
L 672 3341 
Q 991 3463 1283 3523 
Q 1575 3584 1850 3584 
Q 2284 3584 2592 3456 
Q 2900 3328 3091 3072 
Q 3209 2916 3259 2686 
Q 3309 2456 3309 1997 
z
" transform="scale(0.015625)"/>
       <path id="DejaVuSansMono-74" d="M 1919 4494 
L 1919 3500 
L 3225 3500 
L 3225 3053 
L 1919 3053 
L 1919 1153 
Q 1919 766 2066 612 
Q 2213 459 2578 459 
L 3225 459 
L 3225 0 
L 2522 0 
Q 1875 0 1609 259 
Q 1344 519 1344 1153 
L 1344 3053 
L 409 3053 
L 409 3500 
L 1344 3500 
L 1344 4494 
L 1919 4494 
z
" transform="scale(0.015625)"/>
       <path id="DejaVuSansMono-79" d="M 2681 1125 
Q 2538 759 2316 163 
Q 2006 -663 1900 -844 
Q 1756 -1088 1540 -1209 
Q 1325 -1331 1038 -1331 
L 575 -1331 
L 575 -850 
L 916 -850 
Q 1169 -850 1312 -703 
Q 1456 -556 1678 56 
L 325 3500 
L 934 3500 
L 1972 763 
L 2994 3500 
L 3603 3500 
L 2681 1125 
z
" transform="scale(0.015625)"/>
      </defs>
      <use xlink:href="#DejaVuSansMono-70"/>
      <use xlink:href="#DejaVuSansMono-72" x="60.205078"/>
      <use xlink:href="#DejaVuSansMono-6f" x="120.410156"/>
      <use xlink:href="#DejaVuSansMono-62" x="180.615234"/>
      <use xlink:href="#DejaVuSansMono-61" x="240.820312"/>
      <use xlink:href="#DejaVuSansMono-62" x="301.025391"/>
      <use xlink:href="#DejaVuSansMono-69" x="361.230469"/>
      <use xlink:href="#DejaVuSansMono-6c" x="421.435547"/>
      <use xlink:href="#DejaVuSansMono-69" x="481.640625"/>
      <use xlink:href="#DejaVuSansMono-74" x="541.845703"/>
      <use xlink:href="#DejaVuSansMono-79" x="602.050781"/>
     </g>
    </g>
   </g>
   <g id="line2d_25">
    <path d="M 68.110217 242.305781 
L 68.110217 242.288305 
L 145.72217 242.183448 
L 145.72217 242.165972 
L 166.79659 242.061114 
L 166.79659 242.043638 
L 175.990258 241.938781 
L 175.990258 241.921305 
L 178.626899 241.8514 
L 178.626899 241.816448 
L 178.626899 241.798972 
L 180.731193 241.694114 
L 180.731193 241.676638 
L 185.054352 241.571781 
L 185.123556 241.536829 
L 186.977833 241.431971 
L 186.977833 241.414495 
L 188.654568 241.309638 
L 188.654568 241.292162 
L 189.742709 241.204781 
L 189.742709 241.187305 
L 189.801111 241.152352 
L 190.99984 241.047495 
L 190.99984 241.030019 
L 191.919986 240.925162 
L 191.919986 240.907685 
L 193.354326 240.802828 
L 193.354326 240.785352 
L 194.03822 240.697971 
L 194.03822 240.680495 
L 194.125644 240.593114 
L 195.488035 240.488257 
L 195.523618 240.453304 
L 196.098412 240.348447 
L 196.098412 240.330971 
L 196.661476 240.226114 
L 196.661476 240.208638 
L 197.168647 240.10378 
L 197.168647 240.086304 
L 197.885154 239.981447 
L 197.972067 239.929018 
L 198.338425 239.824161 
L 198.434593 239.771733 
L 199.233589 239.666875 
L 199.285352 239.614447 
L 199.726552 239.50959 
L 199.746903 239.474637 
L 200.240853 239.36978 
L 200.240853 239.334828 
L 200.931503 239.22997 
L 200.970452 239.195018 
L 201.251196 239.090161 
L 201.270452 239.037732 
L 201.709689 238.932875 
L 201.813697 238.897923 
L 202.132717 238.793066 
L 202.197942 238.740637 
L 202.714268 238.63578 
L 202.778135 238.565875 
L 203.568669 238.461018 
L 203.674736 238.373637 
L 204.121025 238.26878 
L 204.224994 238.163922 
L 204.671052 238.059065 
L 204.781449 238.006637 
L 204.925151 237.901779 
L 205.026139 237.796922 
L 205.185285 237.692065 
L 205.293648 237.604684 
L 205.558588 237.499827 
L 205.558588 237.464874 
L 205.80468 237.39497 
L 205.80468 237.360017 
L 205.910642 237.25516 
L 205.975648 237.167779 
L 205.975648 237.150303 
L 206.064782 237.080398 
L 206.234151 236.975541 
L 206.274324 236.923112 
L 206.410477 236.818255 
L 206.514143 236.695922 
L 206.680784 236.591065 
L 206.791322 236.52116 
L 206.987617 236.416303 
L 207.050137 236.346398 
L 207.298812 236.241541 
L 207.39149 236.206588 
L 207.621834 236.101731 
L 207.682935 235.979398 
L 208.001517 235.874541 
L 208.076831 235.822112 
L 208.338822 235.717255 
L 208.442926 235.612398 
L 208.701481 235.50754 
L 208.767577 235.437636 
L 208.986759 235.332778 
L 209.073947 235.245397 
L 209.41997 235.14054 
L 209.484369 235.053159 
L 209.683766 234.948302 
L 209.782927 234.843445 
L 209.952092 234.738588 
L 210.050294 234.616254 
L 210.217833 234.511397 
L 210.322031 234.371588 
L 210.418928 234.26673 
L 210.529253 234.144397 
L 210.680233 234.03954 
L 210.769062 233.917206 
L 210.891585 233.812349 
L 210.993274 233.585159 
L 211.114808 233.497778 
L 211.114808 233.480301 
L 211.21568 233.39292 
L 211.33624 233.288063 
L 211.409658 233.200682 
L 211.516099 233.113301 
L 211.516099 233.095825 
L 211.562539 233.02592 
L 211.793571 232.921063 
L 211.885445 232.851158 
L 212.06828 232.746301 
L 212.178699 232.606492 
L 212.269302 232.501634 
L 212.340281 232.379301 
L 212.513734 232.274444 
L 212.622388 232.117158 
L 212.781401 232.012301 
L 212.870049 231.942396 
L 213.008781 231.837539 
L 213.115507 231.715205 
L 213.21558 231.627824 
L 213.21558 231.610348 
L 213.321511 231.435586 
L 213.495103 231.330729 
L 213.593811 231.121015 
L 213.692167 231.033634 
L 213.692167 231.016158 
L 213.8024 230.858872 
L 213.912195 230.754015 
L 213.985149 230.596729 
L 214.178756 230.491872 
L 214.287066 230.334586 
L 214.353047 230.229729 
L 214.454708 230.072443 
L 214.555996 229.967586 
L 214.64506 229.8103 
L 214.828219 229.705443 
L 214.928148 229.618062 
L 215.016021 229.513205 
L 215.103615 229.233585 
L 215.243189 229.128728 
L 215.335848 229.006395 
L 215.433958 228.901538 
L 215.520238 228.814157 
L 215.674864 228.709299 
L 215.771778 228.499585 
L 215.925005 228.394728 
L 216.026686 228.150061 
L 216.111134 228.045204 
L 216.217733 227.800537 
L 216.268084 227.69568 
L 216.374079 227.520918 
L 216.440814 227.416061 
L 216.551682 227.153918 
L 216.606949 227.049061 
L 216.717153 226.839346 
L 216.805 226.751965 
L 216.805 226.734489 
L 216.908956 226.612156 
L 217.050581 226.507299 
L 217.159031 226.262632 
L 217.256272 226.175251 
L 217.256272 226.157775 
L 217.358546 226.035441 
L 217.406859 225.94806 
L 217.406859 225.930584 
L 217.476496 225.843203 
L 217.577958 225.755822 
L 217.577958 225.738346 
L 217.684359 225.458727 
L 217.769185 225.35387 
L 217.880125 225.179108 
L 217.959095 225.109203 
L 217.959095 225.07425 
L 218.037841 224.916965 
L 218.168585 224.812107 
L 218.277934 224.584917 
L 218.350594 224.497536 
L 218.350594 224.48006 
L 218.443733 224.305298 
L 218.577714 224.20044 
L 218.685457 224.025678 
L 218.746836 223.920821 
L 218.853922 223.746059 
L 218.925082 223.641202 
L 218.985931 223.501393 
L 219.147542 223.414012 
L 219.147542 223.396535 
L 219.253087 223.012059 
L 219.323226 222.907202 
L 219.428103 222.540202 
L 219.492827 222.435344 
L 219.602016 222.243106 
L 219.70584 222.138249 
L 219.804359 221.841154 
L 219.887824 221.736297 
L 219.99058 221.509106 
L 220.126996 221.404249 
L 220.224025 221.089677 
L 220.344833 220.98482 
L 220.450709 220.775106 
L 220.517873 220.670249 
L 220.613539 220.443058 
L 220.661249 220.338201 
L 220.765919 220.198391 
L 220.822845 220.093534 
L 220.931627 219.901296 
L 220.97879 219.796439 
L 221.086959 219.516819 
L 221.147911 219.446915 
L 221.147911 219.411962 
L 221.250756 219.219724 
L 221.292718 219.114867 
L 221.399666 218.887676 
L 221.441403 218.782819 
L 221.552394 218.64301 
L 221.630743 218.538152 
L 221.731806 218.36339 
L 221.805076 218.258533 
L 221.914616 217.961438 
L 222.023723 217.874057 
L 222.023723 217.856581 
L 222.12788 217.594438 
L 222.191089 217.489581 
L 222.281136 217.297342 
L 222.335024 217.209961 
L 222.335024 217.192485 
L 222.433545 216.947818 
L 222.496058 216.842961 
L 222.594007 216.598294 
L 222.682752 216.493437 
L 222.788869 216.283723 
L 222.841775 216.178866 
L 222.947284 215.88177 
L 223.004267 215.776913 
L 223.11352 215.549723 
L 223.148389 215.462342 
L 223.148389 215.444865 
L 223.226685 215.130294 
L 223.317751 215.025437 
L 223.425771 214.571056 
L 223.455942 214.466198 
L 223.533371 214.326389 
L 223.602015 214.221532 
L 223.700393 213.872008 
L 223.751582 213.76715 
L 223.862166 213.452579 
L 223.929998 213.365198 
L 223.929998 213.347722 
L 224.039871 212.893341 
L 224.069377 212.80596 
L 224.069377 212.788483 
L 224.178698 212.52634 
L 224.254128 212.421483 
L 224.358552 212.141864 
L 224.416857 212.037007 
L 224.516523 211.670007 
L 224.570359 211.56515 
L 224.673595 211.180673 
L 224.760016 211.075816 
L 224.866639 210.69134 
L 224.932049 210.586482 
L 225.038012 210.18453 
L 225.070534 210.079673 
L 225.180014 209.922387 
L 225.220452 209.81753 
L 225.317262 209.555387 
L 225.36152 209.45053 
L 225.453831 209.153434 
L 225.517866 209.048577 
L 225.621607 208.734006 
L 225.64947 208.646625 
L 225.64947 208.629148 
L 225.756681 208.332053 
L 225.804198 208.227196 
L 225.914751 207.965053 
L 225.981658 207.877672 
L 225.981658 207.860196 
L 226.091504 207.528148 
L 226.118898 207.423291 
L 226.2282 207.178624 
L 226.278801 207.073767 
L 226.383599 206.846576 
L 226.430049 206.741719 
L 226.530423 206.427147 
L 226.588165 206.32229 
L 226.691797 206.025195 
L 226.749203 205.920338 
L 226.85985 205.693147 
L 226.897902 205.605766 
L 226.897902 205.58829 
L 227.007955 205.151385 
L 227.042021 205.046528 
L 227.147734 204.679528 
L 227.21172 204.592147 
L 227.21172 204.57467 
L 227.320532 204.20767 
L 227.39159 204.102813 
L 227.477364 203.700861 
L 227.533161 203.596003 
L 227.63331 203.211527 
L 227.670311 203.124146 
L 227.670311 203.10667 
L 227.781016 202.669765 
L 227.817819 202.564908 
L 227.927934 202.145479 
L 227.946244 202.040622 
L 228.05585 201.638669 
L 228.066787 201.551288 
L 228.066787 201.533812 
L 228.175915 201.044479 
L 228.212196 200.939621 
L 228.31714 200.590097 
L 228.364055 200.48524 
L 228.468425 199.995907 
L 228.497147 199.891049 
L 228.60459 199.471621 
L 228.651019 199.366764 
L 228.761421 198.999763 
L 228.79339 198.894906 
L 228.903225 198.562858 
L 228.927966 198.475477 
L 228.927966 198.458001 
L 229.037267 198.091001 
L 229.051339 198.00362 
L 229.051339 197.986144 
L 229.15665 197.531763 
L 229.184665 197.426906 
L 229.289469 197.094858 
L 229.320833 196.990001 
L 229.428592 196.605524 
L 229.470192 196.518143 
L 229.470192 196.500667 
L 229.577371 196.081238 
L 229.618748 195.976381 
L 229.728784 195.556952 
L 229.783638 195.452095 
L 229.882784 195.032667 
L 229.923705 194.962762 
L 229.923705 194.927809 
L 230.02914 194.455952 
L 230.049501 194.351095 
L 230.151077 193.931666 
L 230.178101 193.844285 
L 230.178101 193.826809 
L 230.285934 193.389904 
L 230.309466 193.337475 
L 230.309466 193.285047 
L 230.420134 192.918047 
L 230.446896 192.848142 
L 230.446896 192.813189 
L 230.550355 192.498618 
L 230.583646 192.411237 
L 230.583646 192.393761 
L 230.679963 192.009284 
L 230.756115 191.904427 
L 230.858422 191.380141 
L 230.888054 191.275284 
L 230.99643 190.733522 
L 231.029188 190.628665 
L 231.140274 190.156807 
L 231.18263 190.05195 
L 231.293101 189.667474 
L 231.322269 189.580093 
L 231.322269 189.562617 
L 231.419275 189.160664 
L 231.457982 189.055807 
L 231.564148 188.706283 
L 231.593031 188.601426 
L 231.701875 188.112092 
L 231.721038 188.024711 
L 231.721038 188.007235 
L 231.829378 187.430521 
L 231.864339 187.325663 
L 231.975283 186.871282 
L 232.000579 186.783901 
L 232.000579 186.766425 
L 232.101533 186.32952 
L 232.129859 186.224663 
L 232.23661 185.717853 
L 232.292958 185.612996 
L 232.3835 185.106186 
L 232.439549 185.001329 
L 232.548209 184.546948 
L 232.576082 184.477043 
L 232.576082 184.442091 
L 232.684206 183.882852 
L 232.705781 183.777995 
L 232.816468 183.410995 
L 232.853265 183.306138 
L 232.963364 182.572138 
L 233.012156 182.484757 
L 233.012156 182.46728 
L 233.121624 181.925518 
L 233.154986 181.820661 
L 233.257851 181.401232 
L 233.294065 181.296375 
L 233.402422 180.579851 
L 233.423442 180.474994 
L 233.531294 180.038089 
L 233.567151 179.950708 
L 233.567151 179.933232 
L 233.674443 179.566232 
L 233.713085 179.461374 
L 233.816854 179.006993 
L 233.849386 178.902136 
L 233.958533 178.412803 
L 233.990899 178.307945 
L 234.09363 177.836088 
L 234.140466 177.731231 
L 234.251383 177.206945 
L 234.277587 177.102088 
L 234.385057 176.507897 
L 234.405342 176.420516 
L 234.405342 176.40304 
L 234.494997 175.878754 
L 234.538274 175.791373 
L 234.538274 175.773897 
L 234.647607 175.249611 
L 234.6677 175.16223 
L 234.6677 175.144754 
L 234.776522 174.602991 
L 234.807943 174.498134 
L 234.910527 173.868991 
L 234.944637 173.78161 
L 234.944637 173.764134 
L 235.046715 173.187419 
L 235.080657 173.082562 
L 235.190681 172.470895 
L 235.210383 172.366038 
L 235.319892 171.614562 
L 235.339502 171.509704 
L 235.448501 170.898038 
L 235.462445 170.79318 
L 235.57096 170.286371 
L 235.60149 170.19899 
L 235.60149 170.181513 
L 235.712225 169.412561 
L 235.739839 169.307704 
L 235.836272 168.661084 
L 235.874751 168.556227 
L 235.984396 167.927084 
L 236.033595 167.822227 
L 236.142612 167.228036 
L 236.164364 167.123179 
L 236.272867 166.581417 
L 236.297221 166.494036 
L 236.297221 166.47656 
L 236.407898 165.882369 
L 236.445589 165.777512 
L 236.555674 165.270702 
L 236.587811 165.165845 
L 236.697331 164.519225 
L 236.710657 164.431844 
L 236.710657 164.414368 
L 236.819691 163.872606 
L 236.856824 163.767749 
L 236.965284 163.103653 
L 236.99431 163.016272 
L 236.99431 162.998796 
L 237.104858 162.422082 
L 237.12324 162.352177 
L 237.12324 162.317225 
L 237.222814 161.967701 
L 237.259408 161.88032 
L 237.259408 161.862843 
L 237.368902 161.303605 
L 237.389709 161.198748 
L 237.498688 160.587081 
L 237.521984 160.482224 
L 237.630443 159.888033 
L 237.676795 159.783176 
L 237.784648 159.433652 
L 237.812826 159.346271 
L 237.812826 159.328795 
L 237.9227 158.856937 
L 237.937997 158.769556 
L 237.937997 158.75208 
L 238.044836 158.105461 
L 238.065139 158.000604 
L 238.174015 157.563699 
L 238.196749 157.458842 
L 238.307623 157.074365 
L 238.335272 156.986984 
L 238.335272 156.969508 
L 238.445592 156.532603 
L 238.475602 156.427746 
L 238.56544 156.008317 
L 238.610249 155.90346 
L 238.716999 155.39665 
L 238.754141 155.291793 
L 238.862802 154.750031 
L 238.887438 154.645174 
L 238.990671 154.033507 
L 239.017644 153.92865 
L 239.127716 153.264554 
L 239.149677 153.159697 
L 239.259225 152.513078 
L 239.288364 152.425697 
L 239.288364 152.40822 
L 239.397364 151.848982 
L 239.421527 151.761601 
L 239.421527 151.744125 
L 239.532409 151.394601 
L 239.554051 151.289744 
L 239.659613 150.730505 
L 239.67637 150.643124 
L 239.67637 150.625648 
L 239.786234 150.136315 
L 239.81006 150.031458 
L 239.919394 149.454743 
L 239.943105 149.349886 
L 240.049554 148.8256 
L 240.068435 148.720743 
L 240.179102 147.969266 
L 240.207287 147.881885 
L 240.207287 147.864409 
L 240.3174 147.392552 
L 240.345443 147.305171 
L 240.345443 147.287695 
L 240.455007 146.903218 
L 240.480587 146.815837 
L 240.480587 146.798361 
L 240.582671 146.151742 
L 240.615073 146.064361 
L 240.615073 146.046884 
L 240.725877 145.400265 
L 240.741999 145.295408 
L 240.850003 144.386646 
L 240.87522 144.281789 
L 240.969006 143.635169 
L 241.014641 143.530312 
L 241.123856 143.023502 
L 241.151092 142.918645 
L 241.25525 142.359407 
L 241.293643 142.25455 
L 241.40401 141.642883 
L 241.417494 141.538025 
L 241.527367 140.838978 
L 241.538554 140.751597 
L 241.538554 140.73412 
L 241.647947 140.244787 
L 241.665766 140.13993 
L 241.774657 139.475834 
L 241.801259 139.388453 
L 241.801259 139.370977 
L 241.911825 138.602024 
L 241.949317 138.497167 
L 242.057097 138.095215 
L 242.092199 137.990357 
L 242.19724 137.291309 
L 242.219073 137.186452 
L 242.330154 136.574785 
L 242.356226 136.487404 
L 242.356226 136.469928 
L 242.460268 135.928166 
L 242.492701 135.823309 
L 242.602689 135.211642 
L 242.626354 135.106785 
L 242.733669 134.547546 
L 242.761503 134.442689 
L 242.870426 133.935879 
L 242.900252 133.831022 
L 243.002266 133.446546 
L 243.048897 133.341689 
L 243.158804 132.834879 
L 243.192533 132.730022 
L 243.295574 132.328069 
L 243.341713 132.240688 
L 243.341713 132.223212 
L 243.450462 131.489212 
L 243.483837 131.384355 
L 243.592028 130.790164 
L 243.608635 130.685307 
L 243.710137 129.828973 
L 243.751459 129.724116 
L 243.856551 129.234782 
L 243.881221 129.129925 
L 243.985821 128.535734 
L 244.0206 128.430877 
L 244.130784 127.836686 
L 244.165381 127.731829 
L 244.272964 127.22502 
L 244.313452 127.137639 
L 244.313452 127.120162 
L 244.42046 126.560924 
L 244.454696 126.456067 
L 244.561159 125.774495 
L 244.583204 125.669638 
L 244.687177 125.092923 
L 244.733041 124.988066 
L 244.842407 124.323971 
L 244.868194 124.219114 
L 244.977026 123.572494 
L 245.004661 123.467637 
L 245.110992 123.013256 
L 245.13653 122.943351 
L 245.13653 122.908399 
L 245.244311 122.314208 
L 245.259953 122.209351 
L 245.369202 121.685065 
L 245.392556 121.580208 
L 245.501282 120.951065 
L 245.538074 120.846207 
L 245.646229 120.129683 
L 245.675127 120.024826 
L 245.776993 119.587921 
L 245.803838 119.50054 
L 245.803838 119.483064 
L 245.909049 118.871397 
L 245.970079 118.76654 
L 246.078455 118.207302 
L 246.110695 118.102444 
L 246.220409 117.578158 
L 246.25437 117.473301 
L 246.365394 116.809206 
L 246.38229 116.704349 
L 246.487193 116.14511 
L 246.50962 116.040253 
L 246.619624 115.568396 
L 246.636365 115.481015 
L 246.636365 115.463539 
L 246.742161 114.764491 
L 246.769934 114.659633 
L 246.88075 114.152824 
L 246.904702 114.065443 
L 246.904702 114.047967 
L 247.014979 113.418823 
L 247.05164 113.313966 
L 247.161333 112.632395 
L 247.177749 112.527537 
L 247.285126 111.741108 
L 247.319617 111.653727 
L 247.319617 111.636251 
L 247.426444 111.111965 
L 247.462563 111.007108 
L 247.563446 110.517775 
L 247.59759 110.412917 
L 247.706927 109.766298 
L 247.73196 109.71387 
L 247.73196 109.661441 
L 247.842546 109.119679 
L 247.863899 109.032298 
L 247.863899 109.014822 
L 247.972188 108.490536 
L 247.993441 108.385678 
L 248.097696 107.791488 
L 248.132948 107.704107 
L 248.132948 107.686631 
L 248.219124 107.162345 
L 248.285771 107.057487 
L 248.39242 106.533202 
L 248.418582 106.428344 
L 248.526456 105.85163 
L 248.561165 105.746773 
L 248.671939 105.222487 
L 248.703015 105.11763 
L 248.813223 104.24382 
L 248.833838 104.138962 
L 248.941815 103.719534 
L 248.974296 103.614677 
L 249.078322 103.00301 
L 249.110644 102.898152 
L 249.219239 102.199105 
L 249.263234 102.094247 
L 249.369547 101.832104 
L 249.408258 101.727247 
L 249.508988 101.25539 
L 249.540809 101.150533 
L 249.651062 100.696152 
L 249.674393 100.591294 
L 249.784114 100.01458 
L 249.800701 99.909723 
L 249.911574 99.402913 
L 249.928084 99.298056 
L 250.038447 98.878627 
L 250.053239 98.791246 
L 250.053239 98.77377 
L 250.159831 98.441722 
L 250.1811 98.336865 
L 250.285571 97.812579 
L 250.324645 97.707722 
L 250.435058 97.16596 
L 250.456116 97.078579 
L 250.456116 97.061102 
L 250.553099 96.484388 
L 250.628832 96.379531 
L 250.733228 96.030007 
L 250.768473 95.92515 
L 250.873937 95.505721 
L 250.901037 95.400864 
L 251.007585 94.963959 
L 251.040896 94.859101 
L 251.151643 94.387244 
L 251.176894 94.282387 
L 251.287098 93.845482 
L 251.304375 93.740625 
L 251.412508 93.198863 
L 251.451582 93.094006 
L 251.559141 92.464862 
L 251.591793 92.377481 
L 251.591793 92.360005 
L 251.68797 91.905624 
L 251.729749 91.818243 
L 251.729749 91.800767 
L 251.83623 91.293957 
L 251.862402 91.1891 
L 251.969907 90.68229 
L 252.014323 90.577433 
L 252.122763 90.210433 
L 252.142572 90.105576 
L 252.252028 89.633718 
L 252.276292 89.528861 
L 252.38069 88.987099 
L 252.415401 88.882242 
L 252.523782 88.532718 
L 252.556814 88.427861 
L 252.664642 87.956003 
L 252.69004 87.868622 
L 252.69004 87.851146 
L 252.783959 87.379289 
L 252.827084 87.274432 
L 252.935344 86.697717 
L 252.948661 86.59286 
L 253.059393 86.173431 
L 253.08443 86.068574 
L 253.194619 85.474383 
L 253.212209 85.369526 
L 253.31897 84.792812 
L 253.36564 84.687954 
L 253.474714 83.884049 
L 253.496477 83.779192 
L 253.605036 83.23743 
L 253.631027 83.132573 
L 253.741934 82.485954 
L 253.772105 82.381096 
L 253.882447 81.769429 
L 253.901033 81.664572 
L 253.996624 81.210191 
L 254.027939 81.105334 
L 254.133015 80.616 
L 254.159929 80.528619 
L 254.159929 80.511143 
L 254.270145 79.916952 
L 254.289881 79.812095 
L 254.400984 79.200428 
L 254.430442 79.095571 
L 254.532602 78.518857 
L 254.575871 78.413999 
L 254.684441 77.679999 
L 254.716374 77.575142 
L 254.820247 77.103285 
L 254.856166 77.015904 
L 254.856166 76.998427 
L 254.965016 76.561523 
L 254.998 76.456665 
L 255.104925 75.949856 
L 255.128175 75.844998 
L 255.233236 75.495474 
L 255.276781 75.390617 
L 255.383988 74.91876 
L 255.404297 74.831379 
L 255.404297 74.813903 
L 255.512359 74.359522 
L 255.539308 74.272141 
L 255.539308 74.254664 
L 255.645502 73.765331 
L 255.695099 73.660474 
L 255.803364 73.17114 
L 255.827366 73.066283 
L 255.933787 72.541997 
L 255.968285 72.43714 
L 256.070202 71.895378 
L 256.109808 71.790521 
L 256.21909 71.388568 
L 256.232228 71.283711 
L 256.342335 70.899234 
L 256.37502 70.794377 
L 256.478052 70.32252 
L 256.501474 70.217663 
L 256.607924 69.745805 
L 256.646766 69.640948 
L 256.755235 69.291424 
L 256.800305 69.186567 
L 256.910736 68.854519 
L 256.983686 68.749662 
L 257.092114 68.277805 
L 257.132824 68.172948 
L 257.231804 67.70109 
L 257.269779 67.613709 
L 257.269779 67.596233 
L 257.380871 67.194281 
L 257.412349 67.089423 
L 257.520363 66.722423 
L 257.545422 66.635042 
L 257.545422 66.617566 
L 257.654165 66.215614 
L 257.682841 66.128233 
L 257.682841 66.110756 
L 257.791045 65.72628 
L 257.841891 65.621423 
L 257.949473 65.236946 
L 257.998796 65.132089 
L 258.108225 64.747613 
L 258.148689 64.642756 
L 258.251423 64.223327 
L 258.277047 64.135946 
L 258.277047 64.11847 
L 258.376874 63.699041 
L 258.41816 63.594184 
L 258.523524 63.297088 
L 258.56097 63.209708 
L 258.56097 63.192231 
L 258.663386 62.807755 
L 258.719853 62.702898 
L 258.812114 62.37085 
L 258.875439 62.265993 
L 258.986208 61.951421 
L 259.006408 61.846564 
L 259.113103 61.409659 
L 259.140304 61.304802 
L 259.250016 60.99023 
L 259.326438 60.885373 
L 259.435415 60.378563 
L 259.486824 60.273706 
L 259.592844 59.74942 
L 259.628868 59.662039 
L 259.628868 59.644563 
L 259.734345 59.260087 
L 259.754005 59.15523 
L 259.854399 58.735801 
L 259.896984 58.630944 
L 260.006026 58.28142 
L 260.027783 58.176563 
L 260.13745 57.827039 
L 260.198947 57.722181 
L 260.306804 57.197896 
L 260.327193 57.093038 
L 260.437934 56.67361 
L 260.453718 56.586229 
L 260.453718 56.568752 
L 260.553849 56.131847 
L 260.604339 56.02699 
L 260.708393 55.607562 
L 260.746336 55.502704 
L 260.85319 55.013371 
L 260.880949 54.908514 
L 260.989494 54.611418 
L 261.018221 54.506561 
L 261.120729 54.209466 
L 261.166898 54.104609 
L 261.274327 53.562846 
L 261.313686 53.457989 
L 261.422722 53.073513 
L 261.454263 52.968656 
L 261.556249 52.514275 
L 261.600615 52.409417 
L 261.706372 51.955036 
L 261.771996 51.850179 
L 261.882451 51.448226 
L 261.895291 51.360845 
L 261.895291 51.343369 
L 262.005255 50.923941 
L 262.035072 50.819083 
L 262.142361 50.347226 
L 262.199553 50.242369 
L 262.31042 49.787988 
L 262.357799 49.683131 
L 262.463843 49.31613 
L 262.549639 49.211273 
L 262.647664 48.879225 
L 262.688232 48.774368 
L 262.798192 48.424844 
L 262.851976 48.319987 
L 262.962317 48.005416 
L 263.018863 47.900558 
L 263.129562 47.690844 
L 263.196994 47.585987 
L 263.303934 47.34132 
L 263.350653 47.236463 
L 263.455989 46.83451 
L 263.511534 46.729653 
L 263.608217 46.450034 
L 263.661449 46.345177 
L 263.743607 46.013129 
L 263.858418 45.908272 
L 263.943965 45.750986 
L 264.002502 45.646129 
L 264.112294 45.401462 
L 264.138934 45.296605 
L 264.232465 44.99951 
L 264.278621 44.894652 
L 264.389277 44.649986 
L 264.434196 44.545128 
L 264.544232 44.160652 
L 264.5724 44.055795 
L 264.682854 43.566461 
L 264.705085 43.461604 
L 264.815972 43.042175 
L 264.849632 42.972271 
L 264.849632 42.937318 
L 264.959941 42.60527 
L 265.00203 42.500413 
L 265.112685 42.220794 
L 265.126009 42.115937 
L 265.237117 41.888746 
L 265.285409 41.801365 
L 265.285409 41.783889 
L 265.395877 41.416889 
L 265.443892 41.312032 
L 265.554667 40.875127 
L 265.620171 40.77027 
L 265.72093 40.473174 
L 265.756295 40.368317 
L 265.860266 40.088698 
L 265.890826 39.983841 
L 266.000746 39.686745 
L 266.013649 39.581888 
L 266.117574 39.267317 
L 266.172597 39.179936 
L 266.172597 39.16246 
L 266.274102 39.02265 
L 266.361589 38.917793 
L 266.462402 38.568269 
L 266.521266 38.463412 
L 266.626004 38.096411 
L 266.653027 37.991554 
L 266.745605 37.694459 
L 266.818192 37.607078 
L 266.818192 37.589602 
L 266.921811 37.257554 
L 266.992158 37.152697 
L 267.091583 36.925506 
L 267.150006 36.820649 
L 267.256794 36.575982 
L 267.275285 36.471125 
L 267.362293 36.243934 
L 267.449902 36.139077 
L 267.559023 35.894411 
L 267.612118 35.789553 
L 267.715403 35.474982 
L 267.812261 35.370125 
L 267.899315 35.038077 
L 268.003248 34.93322 
L 268.105937 34.653601 
L 268.161401 34.548743 
L 268.269448 34.339029 
L 268.338139 34.234172 
L 268.447185 33.884648 
L 268.552441 33.779791 
L 268.663156 33.517648 
L 268.712499 33.41279 
L 268.821744 33.168124 
L 268.890736 33.063267 
L 268.995143 32.801124 
L 269.045548 32.696266 
L 269.140324 32.469076 
L 269.215911 32.364219 
L 269.319915 32.137028 
L 269.396642 32.032171 
L 269.504028 31.857409 
L 269.542164 31.752552 
L 269.653024 31.420504 
L 269.735275 31.315647 
L 269.827715 31.088456 
L 269.876623 30.983599 
L 269.97418 30.634075 
L 270.070597 30.546694 
L 270.070597 30.529218 
L 270.178567 30.232122 
L 270.231603 30.127265 
L 270.341309 29.882599 
L 270.426248 29.777741 
L 270.532056 29.46317 
L 270.596907 29.358313 
L 270.691177 29.026265 
L 270.740909 28.921408 
L 270.846292 28.659265 
L 270.873348 28.554408 
L 270.984385 28.309741 
L 271.021298 28.204884 
L 271.122556 27.995169 
L 271.202837 27.890312 
L 271.304193 27.645645 
L 271.353592 27.540788 
L 271.463474 27.313597 
L 271.524666 27.20874 
L 271.594756 27.086407 
L 271.718674 26.98155 
L 271.827861 26.719407 
L 271.903886 26.61455 
L 272.013085 26.404835 
L 272.093777 26.299978 
L 272.201493 26.177645 
L 272.323455 26.072787 
L 272.43393 25.880549 
L 272.467497 25.775692 
L 272.576671 25.496073 
L 272.646317 25.391216 
L 272.74396 25.164025 
L 272.814626 25.059168 
L 272.921721 24.831977 
L 272.964013 24.72712 
L 273.06625 24.552358 
L 273.145348 24.447501 
L 273.256132 24.202834 
L 273.334688 24.097977 
L 273.439788 23.85331 
L 273.529055 23.748453 
L 273.634816 23.398929 
L 273.708818 23.294072 
L 273.818061 22.962024 
L 273.861083 22.857167 
L 273.968344 22.525119 
L 274.027678 22.420262 
L 274.131549 22.210548 
L 274.1638 22.123167 
L 274.1638 22.105691 
L 274.269894 21.808595 
L 274.317674 21.703738 
L 274.417744 21.37169 
L 274.501197 21.266833 
L 274.607354 21.022166 
L 274.712431 20.917309 
L 274.799021 20.742547 
L 274.904708 20.63769 
L 275.007331 20.462928 
L 275.14666 20.358071 
L 275.249048 20.200785 
L 275.311615 20.095928 
L 275.386509 20.026023 
L 275.490627 19.938642 
L 275.490627 19.921166 
L 275.587191 19.728928 
L 275.711961 19.624071 
L 275.807755 19.431832 
L 275.940538 19.326975 
L 276.038746 19.187166 
L 276.172975 19.082308 
L 276.228394 18.959975 
L 276.392088 18.855118 
L 276.491226 18.697832 
L 276.610101 18.592975 
L 276.710963 18.435689 
L 276.785276 18.330832 
L 276.861878 18.225975 
L 276.935166 18.121118 
L 277.019394 18.033737 
L 277.108296 17.928879 
L 277.206128 17.806546 
L 277.338478 17.701689 
L 277.448896 17.509451 
L 277.529144 17.404593 
L 277.638803 17.28226 
L 277.725735 17.177403 
L 277.824409 17.055069 
L 277.911957 16.950212 
L 278.009372 16.740498 
L 278.083844 16.635641 
L 278.131995 16.54826 
L 278.313734 16.443403 
L 278.397393 16.303593 
L 278.594926 16.198736 
L 278.701602 16.04145 
L 278.778293 15.936593 
L 278.887154 15.779307 
L 278.916611 15.67445 
L 279.007097 15.464735 
L 279.123083 15.359878 
L 279.219748 15.115212 
L 279.267099 15.010354 
L 279.375188 14.695783 
L 279.431907 14.590926 
L 279.542739 14.258878 
L 279.591229 14.154021 
L 279.691323 13.839449 
L 279.747957 13.734592 
L 279.853624 13.437497 
L 279.877051 13.332639 
L 279.986113 13.122925 
L 280.026069 13.018068 
L 280.136754 12.616115 
L 280.183662 12.511258 
L 280.282183 12.266591 
L 280.390206 12.161734 
L 280.48254 11.81221 
L 280.551724 11.707353 
L 280.648942 11.515115 
L 280.774977 11.410258 
L 280.881092 11.322877 
L 281.031752 11.218019 
L 281.131558 11.165591 
L 281.516184 11.060734 
L 281.585448 11.025781 
L 281.585448 11.025781 
" clip-path="url(#p034d9e908e)" style="fill: none; stroke: #486afb; stroke-width: 2; stroke-linecap: square"/>
   </g>
   <g id="line2d_26">
    <path d="M 68.110217 242.305781 
L 73.59318 242.305781 
L 79.076142 242.305781 
L 84.559104 242.305781 
L 90.042067 242.305781 
L 95.525029 242.305781 
L 101.007991 242.305781 
L 106.490953 242.305781 
L 111.973916 242.305781 
L 117.456878 242.305781 
L 122.93984 242.305781 
L 128.422803 242.305781 
L 133.905765 242.305781 
L 139.388727 242.30578 
L 144.871689 242.305774 
L 150.354652 242.305742 
L 155.837614 242.305601 
L 161.320576 242.305015 
L 166.803539 242.302792 
L 172.286501 242.295075 
L 177.769463 242.270542 
L 183.252425 242.199134 
L 188.735388 242.008831 
L 194.21835 241.544482 
L 199.701312 240.507075 
L 205.184275 238.384998 
L 210.667237 234.410503 
L 216.150199 227.594761 
L 221.633161 216.892982 
L 227.116124 201.507479 
L 232.599086 181.25486 
L 238.082048 156.845012 
L 243.565011 129.907101 
L 249.047973 102.687742 
L 254.530935 77.504765 
L 260.013897 56.1718 
L 265.49686 39.625154 
L 270.979822 27.873942 
L 276.462784 20.232622 
L 281.945746 15.683096 
L 287.428709 13.202965 
L 292.911671 11.965045 
L 298.394633 11.399305 
L 303.877596 11.162577 
L 309.360558 11.071882 
L 314.84352 11.040068 
L 320.326482 11.029851 
L 325.809445 11.026846 
L 331.292407 11.026037 
L 336.775369 11.025838 
" clip-path="url(#p034d9e908e)" style="fill: none; stroke: #fd46fc; stroke-width: 2; stroke-linecap: square"/>
   </g>
   <g id="patch_3">
    <path d="M 45.992188 242.305781 
L 45.992188 11.025781 
" style="fill: none; stroke: #000000; stroke-width: 0.6; stroke-linejoin: miter; stroke-linecap: square"/>
   </g>
   <g id="patch_4">
    <path d="M 45.992188 242.305781 
L 350.622187 242.305781 
" style="fill: none; stroke: #000000; stroke-width: 0.6; stroke-linejoin: miter; stroke-linecap: square"/>
   </g>
   <g id="legend_1">
    <g id="patch_5">
     <path d="M 52.992188 48.488281 
L 145.195312 48.488281 
Q 147.195312 48.488281 147.195312 46.488281 
L 147.195312 18.025781 
Q 147.195312 16.025781 145.195312 16.025781 
L 52.992188 16.025781 
Q 50.992188 16.025781 50.992188 18.025781 
L 50.992188 46.488281 
Q 50.992188 48.488281 52.992188 48.488281 
z
" style="fill: #ffffff; opacity: 0.8; stroke: #333333; stroke-width: 0.2; stroke-linejoin: miter"/>
    </g>
    <g id="line2d_27">
     <path d="M 54.992188 24.177344 
L 64.992188 24.177344 
L 64.992188 24.177344 
L 74.992188 24.177344 
L 74.992188 24.177344 
" style="fill: none; stroke: #486afb; stroke-width: 2; stroke-linecap: square"/>
    </g>
    <g id="text_15">
     <!-- ECDF -->
     <g transform="translate(82.992188 27.677344) scale(0.1 -0.1)">
      <defs>
       <path id="DejaVuSansMono-45" d="M 616 4666 
L 3384 4666 
L 3384 4134 
L 1247 4134 
L 1247 2753 
L 3291 2753 
L 3291 2222 
L 1247 2222 
L 1247 531 
L 3444 531 
L 3444 0 
L 616 0 
L 616 4666 
z
" transform="scale(0.015625)"/>
       <path id="DejaVuSansMono-43" d="M 3353 166 
Q 3113 38 2859 -26 
Q 2606 -91 2322 -91 
Q 1425 -91 929 543 
Q 434 1178 434 2328 
Q 434 3472 932 4111 
Q 1431 4750 2322 4750 
Q 2606 4750 2859 4686 
Q 3113 4622 3353 4494 
L 3353 3847 
Q 3122 4038 2856 4138 
Q 2591 4238 2322 4238 
Q 1706 4238 1400 3763 
Q 1094 3288 1094 2328 
Q 1094 1372 1400 897 
Q 1706 422 2322 422 
Q 2597 422 2861 522 
Q 3125 622 3353 813 
L 3353 166 
z
" transform="scale(0.015625)"/>
       <path id="DejaVuSansMono-44" d="M 1363 519 
Q 2159 519 2475 911 
Q 2791 1303 2791 2328 
Q 2791 3363 2477 3755 
Q 2163 4147 1363 4147 
L 1063 4147 
L 1063 519 
L 1363 519 
z
M 1375 4666 
Q 2444 4666 2950 4097 
Q 3456 3528 3456 2328 
Q 3456 1134 2950 567 
Q 2444 0 1375 0 
L 428 0 
L 428 4666 
L 1375 4666 
z
" transform="scale(0.015625)"/>
       <path id="DejaVuSansMono-46" d="M 728 4666 
L 3475 4666 
L 3475 4134 
L 1363 4134 
L 1363 2759 
L 3278 2759 
L 3278 2228 
L 1363 2228 
L 1363 0 
L 728 0 
L 728 4666 
z
" transform="scale(0.015625)"/>
      </defs>
      <use xlink:href="#DejaVuSansMono-45"/>
      <use xlink:href="#DejaVuSansMono-43" x="60.205078"/>
      <use xlink:href="#DejaVuSansMono-44" x="120.410156"/>
      <use xlink:href="#DejaVuSansMono-46" x="180.615234"/>
     </g>
    </g>
    <g id="line2d_28">
     <path d="M 54.992188 38.908594 
L 64.992188 38.908594 
L 74.992188 38.908594 
" style="fill: none; stroke: #fd46fc; stroke-width: 2; stroke-linecap: square"/>
    </g>
    <g id="text_16">
     <!-- normal CDF -->
     <g transform="translate(82.992188 42.408594) scale(0.1 -0.1)">
      <defs>
       <path id="DejaVuSansMono-6e" d="M 3284 2169 
L 3284 0 
L 2706 0 
L 2706 2169 
Q 2706 2641 2540 2862 
Q 2375 3084 2022 3084 
Q 1619 3084 1401 2798 
Q 1184 2513 1184 1978 
L 1184 0 
L 609 0 
L 609 3500 
L 1184 3500 
L 1184 2975 
Q 1338 3275 1600 3429 
Q 1863 3584 2222 3584 
Q 2756 3584 3020 3232 
Q 3284 2881 3284 2169 
z
" transform="scale(0.015625)"/>
       <path id="DejaVuSansMono-6d" d="M 2113 3144 
Q 2219 3369 2383 3476 
Q 2547 3584 2778 3584 
Q 3200 3584 3373 3257 
Q 3547 2931 3547 2028 
L 3547 0 
L 3022 0 
L 3022 2003 
Q 3022 2744 2939 2923 
Q 2856 3103 2638 3103 
Q 2388 3103 2295 2911 
Q 2203 2719 2203 2003 
L 2203 0 
L 1678 0 
L 1678 2003 
Q 1678 2753 1589 2928 
Q 1500 3103 1269 3103 
Q 1041 3103 952 2911 
Q 863 2719 863 2003 
L 863 0 
L 341 0 
L 341 3500 
L 863 3500 
L 863 3200 
Q 966 3388 1120 3486 
Q 1275 3584 1472 3584 
Q 1709 3584 1867 3475 
Q 2025 3366 2113 3144 
z
" transform="scale(0.015625)"/>
      </defs>
      <use xlink:href="#DejaVuSansMono-6e"/>
      <use xlink:href="#DejaVuSansMono-6f" x="60.205078"/>
      <use xlink:href="#DejaVuSansMono-72" x="120.410156"/>
      <use xlink:href="#DejaVuSansMono-6d" x="180.615234"/>
      <use xlink:href="#DejaVuSansMono-61" x="240.820312"/>
      <use xlink:href="#DejaVuSansMono-6c" x="301.025391"/>
      <use xlink:href="#DejaVuSansMono-20" x="361.230469"/>
      <use xlink:href="#DejaVuSansMono-43" x="421.435547"/>
      <use xlink:href="#DejaVuSansMono-44" x="481.640625"/>
      <use xlink:href="#DejaVuSansMono-46" x="541.845703"/>
     </g>
    </g>
   </g>
  </g>
  <g id="axes_2">
   <g id="patch_6">
    <path d="M 400.592187 242.305781 
L 705.222188 242.305781 
L 705.222188 11.025781 
L 400.592187 11.025781 
z
" style="fill: #ffffff"/>
   </g>
   <g id="matplotlib.axis_3">
    <g id="xtick_7">
     <g id="line2d_29">
      <path d="M 408.075947 242.305781 
L 408.075947 11.025781 
" clip-path="url(#p570757933c)" style="fill: none; stroke-dasharray: 2.22,0.96; stroke-dashoffset: 0; stroke: #6c6066; stroke-opacity: 0.4; stroke-width: 0.6"/>
     </g>
     <g id="line2d_30">
      <g>
       <use xlink:href="#ma17ec15c26" x="408.075947" y="242.305781" style="stroke: #000000; stroke-width: 0.8"/>
      </g>
     </g>
     <g id="text_17">
      <!-- −2 -->
      <g transform="translate(402.055634 256.957344) scale(0.1 -0.1)">
       <use xlink:href="#DejaVuSansMono-2212"/>
       <use xlink:href="#DejaVuSansMono-32" x="60.205078"/>
      </g>
     </g>
    </g>
    <g id="xtick_8">
     <g id="line2d_31">
      <path d="M 463.265868 242.305781 
L 463.265868 11.025781 
" clip-path="url(#p570757933c)" style="fill: none; stroke-dasharray: 2.22,0.96; stroke-dashoffset: 0; stroke: #6c6066; stroke-opacity: 0.4; stroke-width: 0.6"/>
     </g>
     <g id="line2d_32">
      <g>
       <use xlink:href="#ma17ec15c26" x="463.265868" y="242.305781" style="stroke: #000000; stroke-width: 0.8"/>
      </g>
     </g>
     <g id="text_18">
      <!-- 0 -->
      <g transform="translate(460.255712 256.957344) scale(0.1 -0.1)">
       <use xlink:href="#DejaVuSansMono-30"/>
      </g>
     </g>
    </g>
    <g id="xtick_9">
     <g id="line2d_33">
      <path d="M 518.45579 242.305781 
L 518.45579 11.025781 
" clip-path="url(#p570757933c)" style="fill: none; stroke-dasharray: 2.22,0.96; stroke-dashoffset: 0; stroke: #6c6066; stroke-opacity: 0.4; stroke-width: 0.6"/>
     </g>
     <g id="line2d_34">
      <g>
       <use xlink:href="#ma17ec15c26" x="518.45579" y="242.305781" style="stroke: #000000; stroke-width: 0.8"/>
      </g>
     </g>
     <g id="text_19">
      <!-- 2 -->
      <g transform="translate(515.445633 256.957344) scale(0.1 -0.1)">
       <use xlink:href="#DejaVuSansMono-32"/>
      </g>
     </g>
    </g>
    <g id="xtick_10">
     <g id="line2d_35">
      <path d="M 573.645711 242.305781 
L 573.645711 11.025781 
" clip-path="url(#p570757933c)" style="fill: none; stroke-dasharray: 2.22,0.96; stroke-dashoffset: 0; stroke: #6c6066; stroke-opacity: 0.4; stroke-width: 0.6"/>
     </g>
     <g id="line2d_36">
      <g>
       <use xlink:href="#ma17ec15c26" x="573.645711" y="242.305781" style="stroke: #000000; stroke-width: 0.8"/>
      </g>
     </g>
     <g id="text_20">
      <!-- 4 -->
      <g transform="translate(570.635555 256.957344) scale(0.1 -0.1)">
       <use xlink:href="#DejaVuSansMono-34"/>
      </g>
     </g>
    </g>
    <g id="xtick_11">
     <g id="line2d_37">
      <path d="M 628.835632 242.305781 
L 628.835632 11.025781 
" clip-path="url(#p570757933c)" style="fill: none; stroke-dasharray: 2.22,0.96; stroke-dashoffset: 0; stroke: #6c6066; stroke-opacity: 0.4; stroke-width: 0.6"/>
     </g>
     <g id="line2d_38">
      <g>
       <use xlink:href="#ma17ec15c26" x="628.835632" y="242.305781" style="stroke: #000000; stroke-width: 0.8"/>
      </g>
     </g>
     <g id="text_21">
      <!-- 6 -->
      <g transform="translate(625.825476 256.957344) scale(0.1 -0.1)">
       <use xlink:href="#DejaVuSansMono-36"/>
      </g>
     </g>
    </g>
    <g id="xtick_12">
     <g id="line2d_39">
      <path d="M 684.025554 242.305781 
L 684.025554 11.025781 
" clip-path="url(#p570757933c)" style="fill: none; stroke-dasharray: 2.22,0.96; stroke-dashoffset: 0; stroke: #6c6066; stroke-opacity: 0.4; stroke-width: 0.6"/>
     </g>
     <g id="line2d_40">
      <g>
       <use xlink:href="#ma17ec15c26" x="684.025554" y="242.305781" style="stroke: #000000; stroke-width: 0.8"/>
      </g>
     </g>
     <g id="text_22">
      <!-- 8 -->
      <g transform="translate(681.015398 256.957344) scale(0.1 -0.1)">
       <use xlink:href="#DejaVuSansMono-38"/>
      </g>
     </g>
    </g>
    <g id="text_23">
     <!-- log price -->
     <g transform="translate(525.815781 270.688594) scale(0.1 -0.1)">
      <use xlink:href="#DejaVuSansMono-6c"/>
      <use xlink:href="#DejaVuSansMono-6f" x="60.205078"/>
      <use xlink:href="#DejaVuSansMono-67" x="120.410156"/>
      <use xlink:href="#DejaVuSansMono-20" x="180.615234"/>
      <use xlink:href="#DejaVuSansMono-70" x="240.820312"/>
      <use xlink:href="#DejaVuSansMono-72" x="301.025391"/>
      <use xlink:href="#DejaVuSansMono-69" x="361.230469"/>
      <use xlink:href="#DejaVuSansMono-63" x="421.435547"/>
      <use xlink:href="#DejaVuSansMono-65" x="481.640625"/>
     </g>
    </g>
   </g>
   <g id="matplotlib.axis_4">
    <g id="ytick_7">
     <g id="line2d_41">
      <path d="M 400.592187 242.305781 
L 705.222188 242.305781 
" clip-path="url(#p570757933c)" style="fill: none; stroke-dasharray: 2.22,0.96; stroke-dashoffset: 0; stroke: #6c6066; stroke-opacity: 0.4; stroke-width: 0.6"/>
     </g>
     <g id="line2d_42">
      <g>
       <use xlink:href="#md73059f900" x="400.592187" y="242.305781" style="stroke: #000000; stroke-width: 0.8"/>
      </g>
     </g>
     <g id="text_24">
      <!-- 0.0 -->
      <g transform="translate(375.53125 246.131562) scale(0.1 -0.1)">
       <use xlink:href="#DejaVuSansMono-30"/>
       <use xlink:href="#DejaVuSansMono-2e" x="60.205078"/>
       <use xlink:href="#DejaVuSansMono-30" x="120.410156"/>
      </g>
     </g>
    </g>
    <g id="ytick_8">
     <g id="line2d_43">
      <path d="M 400.592187 205.476052 
L 705.222188 205.476052 
" clip-path="url(#p570757933c)" style="fill: none; stroke-dasharray: 2.22,0.96; stroke-dashoffset: 0; stroke: #6c6066; stroke-opacity: 0.4; stroke-width: 0.6"/>
     </g>
     <g id="line2d_44">
      <g>
       <use xlink:href="#md73059f900" x="400.592187" y="205.476052" style="stroke: #000000; stroke-width: 0.8"/>
      </g>
     </g>
     <g id="text_25">
      <!-- 0.1 -->
      <g transform="translate(375.53125 209.301833) scale(0.1 -0.1)">
       <use xlink:href="#DejaVuSansMono-30"/>
       <use xlink:href="#DejaVuSansMono-2e" x="60.205078"/>
       <use xlink:href="#DejaVuSansMono-31" x="120.410156"/>
      </g>
     </g>
    </g>
    <g id="ytick_9">
     <g id="line2d_45">
      <path d="M 400.592187 168.646322 
L 705.222188 168.646322 
" clip-path="url(#p570757933c)" style="fill: none; stroke-dasharray: 2.22,0.96; stroke-dashoffset: 0; stroke: #6c6066; stroke-opacity: 0.4; stroke-width: 0.6"/>
     </g>
     <g id="line2d_46">
      <g>
       <use xlink:href="#md73059f900" x="400.592187" y="168.646322" style="stroke: #000000; stroke-width: 0.8"/>
      </g>
     </g>
     <g id="text_26">
      <!-- 0.2 -->
      <g transform="translate(375.53125 172.472103) scale(0.1 -0.1)">
       <use xlink:href="#DejaVuSansMono-30"/>
       <use xlink:href="#DejaVuSansMono-2e" x="60.205078"/>
       <use xlink:href="#DejaVuSansMono-32" x="120.410156"/>
      </g>
     </g>
    </g>
    <g id="ytick_10">
     <g id="line2d_47">
      <path d="M 400.592187 131.816592 
L 705.222188 131.816592 
" clip-path="url(#p570757933c)" style="fill: none; stroke-dasharray: 2.22,0.96; stroke-dashoffset: 0; stroke: #6c6066; stroke-opacity: 0.4; stroke-width: 0.6"/>
     </g>
     <g id="line2d_48">
      <g>
       <use xlink:href="#md73059f900" x="400.592187" y="131.816592" style="stroke: #000000; stroke-width: 0.8"/>
      </g>
     </g>
     <g id="text_27">
      <!-- 0.3 -->
      <g transform="translate(375.53125 135.642374) scale(0.1 -0.1)">
       <defs>
        <path id="DejaVuSansMono-33" d="M 2425 2497 
Q 2884 2375 3128 2064 
Q 3372 1753 3372 1288 
Q 3372 644 2939 276 
Q 2506 -91 1741 -91 
Q 1419 -91 1084 -31 
Q 750 28 428 141 
L 428 769 
Q 747 603 1056 522 
Q 1366 441 1672 441 
Q 2191 441 2469 675 
Q 2747 909 2747 1350 
Q 2747 1756 2469 1995 
Q 2191 2234 1716 2234 
L 1234 2234 
L 1234 2753 
L 1716 2753 
Q 2150 2753 2394 2943 
Q 2638 3134 2638 3475 
Q 2638 3834 2411 4026 
Q 2184 4219 1766 4219 
Q 1488 4219 1191 4156 
Q 894 4094 569 3969 
L 569 4550 
Q 947 4650 1242 4700 
Q 1538 4750 1766 4750 
Q 2447 4750 2855 4408 
Q 3263 4066 3263 3500 
Q 3263 3116 3048 2859 
Q 2834 2603 2425 2497 
z
" transform="scale(0.015625)"/>
       </defs>
       <use xlink:href="#DejaVuSansMono-30"/>
       <use xlink:href="#DejaVuSansMono-2e" x="60.205078"/>
       <use xlink:href="#DejaVuSansMono-33" x="120.410156"/>
      </g>
     </g>
    </g>
    <g id="ytick_11">
     <g id="line2d_49">
      <path d="M 400.592187 94.986863 
L 705.222188 94.986863 
" clip-path="url(#p570757933c)" style="fill: none; stroke-dasharray: 2.22,0.96; stroke-dashoffset: 0; stroke: #6c6066; stroke-opacity: 0.4; stroke-width: 0.6"/>
     </g>
     <g id="line2d_50">
      <g>
       <use xlink:href="#md73059f900" x="400.592187" y="94.986863" style="stroke: #000000; stroke-width: 0.8"/>
      </g>
     </g>
     <g id="text_28">
      <!-- 0.4 -->
      <g transform="translate(375.53125 98.812644) scale(0.1 -0.1)">
       <use xlink:href="#DejaVuSansMono-30"/>
       <use xlink:href="#DejaVuSansMono-2e" x="60.205078"/>
       <use xlink:href="#DejaVuSansMono-34" x="120.410156"/>
      </g>
     </g>
    </g>
    <g id="ytick_12">
     <g id="line2d_51">
      <path d="M 400.592187 58.157133 
L 705.222188 58.157133 
" clip-path="url(#p570757933c)" style="fill: none; stroke-dasharray: 2.22,0.96; stroke-dashoffset: 0; stroke: #6c6066; stroke-opacity: 0.4; stroke-width: 0.6"/>
     </g>
     <g id="line2d_52">
      <g>
       <use xlink:href="#md73059f900" x="400.592187" y="58.157133" style="stroke: #000000; stroke-width: 0.8"/>
      </g>
     </g>
     <g id="text_29">
      <!-- 0.5 -->
      <g transform="translate(375.53125 61.982914) scale(0.1 -0.1)">
       <defs>
        <path id="DejaVuSansMono-35" d="M 647 4666 
L 3009 4666 
L 3009 4134 
L 1222 4134 
L 1222 2988 
Q 1356 3038 1492 3061 
Q 1628 3084 1766 3084 
Q 2491 3084 2916 2656 
Q 3341 2228 3341 1497 
Q 3341 759 2895 334 
Q 2450 -91 1678 -91 
Q 1306 -91 998 -41 
Q 691 9 447 109 
L 447 750 
Q 734 594 1025 517 
Q 1316 441 1619 441 
Q 2141 441 2423 716 
Q 2706 991 2706 1497 
Q 2706 1997 2414 2275 
Q 2122 2553 1600 2553 
Q 1347 2553 1106 2495 
Q 866 2438 647 2322 
L 647 4666 
z
" transform="scale(0.015625)"/>
       </defs>
       <use xlink:href="#DejaVuSansMono-30"/>
       <use xlink:href="#DejaVuSansMono-2e" x="60.205078"/>
       <use xlink:href="#DejaVuSansMono-35" x="120.410156"/>
      </g>
     </g>
    </g>
    <g id="ytick_13">
     <g id="line2d_53">
      <path d="M 400.592187 21.327403 
L 705.222188 21.327403 
" clip-path="url(#p570757933c)" style="fill: none; stroke-dasharray: 2.22,0.96; stroke-dashoffset: 0; stroke: #6c6066; stroke-opacity: 0.4; stroke-width: 0.6"/>
     </g>
     <g id="line2d_54">
      <g>
       <use xlink:href="#md73059f900" x="400.592187" y="21.327403" style="stroke: #000000; stroke-width: 0.8"/>
      </g>
     </g>
     <g id="text_30">
      <!-- 0.6 -->
      <g transform="translate(375.53125 25.153185) scale(0.1 -0.1)">
       <use xlink:href="#DejaVuSansMono-30"/>
       <use xlink:href="#DejaVuSansMono-2e" x="60.205078"/>
       <use xlink:href="#DejaVuSansMono-36" x="120.410156"/>
      </g>
     </g>
    </g>
    <g id="text_31">
     <!-- probability density -->
     <g transform="translate(369.451562 183.85875) rotate(-90) scale(0.1 -0.1)">
      <defs>
       <path id="DejaVuSansMono-64" d="M 2681 3053 
L 2681 4863 
L 3256 4863 
L 3256 0 
L 2681 0 
L 2681 441 
Q 2538 181 2298 45 
Q 2059 -91 1747 -91 
Q 1113 -91 748 401 
Q 384 894 384 1759 
Q 384 2613 750 3098 
Q 1116 3584 1747 3584 
Q 2063 3584 2303 3448 
Q 2544 3313 2681 3053 
z
M 991 1747 
Q 991 1078 1203 737 
Q 1416 397 1831 397 
Q 2247 397 2464 740 
Q 2681 1084 2681 1747 
Q 2681 2413 2464 2755 
Q 2247 3097 1831 3097 
Q 1416 3097 1203 2756 
Q 991 2416 991 1747 
z
" transform="scale(0.015625)"/>
       <path id="DejaVuSansMono-73" d="M 3041 3378 
L 3041 2816 
Q 2794 2959 2544 3031 
Q 2294 3103 2034 3103 
Q 1644 3103 1451 2976 
Q 1259 2850 1259 2591 
Q 1259 2356 1403 2240 
Q 1547 2125 2119 2016 
L 2350 1972 
Q 2778 1891 2998 1647 
Q 3219 1403 3219 1013 
Q 3219 494 2850 201 
Q 2481 -91 1825 -91 
Q 1566 -91 1281 -36 
Q 997 19 666 128 
L 666 722 
Q 988 556 1281 473 
Q 1575 391 1838 391 
Q 2219 391 2428 545 
Q 2638 700 2638 978 
Q 2638 1378 1872 1531 
L 1847 1538 
L 1631 1581 
Q 1134 1678 906 1908 
Q 678 2138 678 2534 
Q 678 3038 1018 3311 
Q 1359 3584 1991 3584 
Q 2272 3584 2531 3532 
Q 2791 3481 3041 3378 
z
" transform="scale(0.015625)"/>
      </defs>
      <use xlink:href="#DejaVuSansMono-70"/>
      <use xlink:href="#DejaVuSansMono-72" x="60.205078"/>
      <use xlink:href="#DejaVuSansMono-6f" x="120.410156"/>
      <use xlink:href="#DejaVuSansMono-62" x="180.615234"/>
      <use xlink:href="#DejaVuSansMono-61" x="240.820312"/>
      <use xlink:href="#DejaVuSansMono-62" x="301.025391"/>
      <use xlink:href="#DejaVuSansMono-69" x="361.230469"/>
      <use xlink:href="#DejaVuSansMono-6c" x="421.435547"/>
      <use xlink:href="#DejaVuSansMono-69" x="481.640625"/>
      <use xlink:href="#DejaVuSansMono-74" x="541.845703"/>
      <use xlink:href="#DejaVuSansMono-79" x="602.050781"/>
      <use xlink:href="#DejaVuSansMono-20" x="662.255859"/>
      <use xlink:href="#DejaVuSansMono-64" x="722.460938"/>
      <use xlink:href="#DejaVuSansMono-65" x="782.666016"/>
      <use xlink:href="#DejaVuSansMono-6e" x="842.871094"/>
      <use xlink:href="#DejaVuSansMono-73" x="903.076172"/>
      <use xlink:href="#DejaVuSansMono-69" x="963.28125"/>
      <use xlink:href="#DejaVuSansMono-74" x="1023.486328"/>
      <use xlink:href="#DejaVuSansMono-79" x="1083.691406"/>
     </g>
    </g>
   </g>
   <g id="line2d_55">
    <path d="M 414.439006 242.304547 
L 460.67371 242.305776 
L 483.791062 242.204804 
L 503.440812 242.100582 
L 510.376017 242.193978 
L 525.402296 241.710428 
L 528.869899 241.285113 
L 533.493369 240.473316 
L 538.11684 240.155955 
L 540.428575 239.463493 
L 545.052045 237.543732 
L 547.363781 236.392913 
L 549.675516 234.782896 
L 551.987251 232.808558 
L 554.298986 230.549437 
L 555.454854 229.084828 
L 556.610721 227.18717 
L 557.766589 224.791072 
L 560.078324 219.06643 
L 562.39006 213.101501 
L 563.545927 209.797071 
L 564.701795 206.028019 
L 565.857662 201.762143 
L 568.169398 192.031043 
L 571.637 175.758925 
L 573.948736 163.874891 
L 575.104603 157.097077 
L 576.260471 149.552557 
L 578.572206 132.361369 
L 580.883941 112.789216 
L 587.819147 50.033231 
L 588.975014 41.815629 
L 590.130882 35.633257 
L 591.28675 31.460176 
L 592.442617 28.612898 
L 593.598485 26.313233 
L 594.754353 24.278854 
L 595.91022 22.747596 
L 597.066088 22.039115 
L 598.221955 22.257902 
L 599.377823 23.419096 
L 600.533691 25.657984 
L 601.689558 29.104492 
L 605.157161 41.993311 
L 607.468896 48.275039 
L 608.624764 52.81913 
L 609.780631 59.418196 
L 613.248234 83.580118 
L 617.871705 111.180198 
L 620.18344 125.488648 
L 622.495175 138.277681 
L 623.651043 143.771914 
L 629.430381 168.01687 
L 632.897984 181.918681 
L 634.053851 188.997534 
L 635.209719 198.835469 
L 637.521454 221.804219 
L 638.677322 230.839212 
L 639.833189 236.784264 
L 640.989057 240.029028 
L 642.144924 241.504707 
L 643.300792 242.065845 
L 644.45666 242.244707 
L 644.45666 242.244707 
" clip-path="url(#p570757933c)" style="fill: none; stroke: #486afb; stroke-width: 2; stroke-linecap: square"/>
   </g>
   <g id="line2d_56">
    <path d="M 422.710217 242.305781 
L 428.19318 242.305781 
L 433.676142 242.305781 
L 439.159104 242.305781 
L 444.642067 242.305781 
L 450.125029 242.305781 
L 455.607991 242.305781 
L 461.090953 242.305781 
L 466.573916 242.305781 
L 472.056878 242.305781 
L 477.53984 242.305781 
L 483.022803 242.305781 
L 488.505765 242.305778 
L 493.988727 242.305762 
L 499.471689 242.305678 
L 504.954652 242.305289 
L 510.437614 242.303627 
L 515.920576 242.297159 
L 521.403539 242.274201 
L 526.886501 242.19994 
L 532.369463 241.981204 
L 537.852425 241.395 
L 543.335388 239.967267 
L 548.81835 236.811681 
L 554.301312 230.494858 
L 559.784275 219.072973 
L 565.267237 200.489041 
L 570.750199 173.435908 
L 576.233161 138.519725 
L 581.716124 99.192689 
L 587.199086 61.733808 
L 592.682048 33.831759 
L 598.165011 22.071879 
L 603.647973 29.419818 
L 609.130935 54.010037 
L 614.613897 89.912926 
L 620.09686 129.451163 
L 625.579822 165.833387 
L 631.062784 194.890245 
L 636.545746 215.404853 
L 642.028709 228.340667 
L 647.511671 235.672134 
L 652.994633 239.422475 
L 658.477596 241.159055 
L 663.960558 241.88847 
L 669.44352 242.166821 
L 674.926482 242.263441 
L 680.409445 242.293977 
L 685.892407 242.30277 
L 691.375369 242.305078 
" clip-path="url(#p570757933c)" style="fill: none; stroke: #fd46fc; stroke-width: 2; stroke-linecap: square"/>
   </g>
   <g id="patch_7">
    <path d="M 400.592187 242.305781 
L 400.592187 11.025781 
" style="fill: none; stroke: #000000; stroke-width: 0.6; stroke-linejoin: miter; stroke-linecap: square"/>
   </g>
   <g id="patch_8">
    <path d="M 400.592187 242.305781 
L 705.222188 242.305781 
" style="fill: none; stroke: #000000; stroke-width: 0.6; stroke-linejoin: miter; stroke-linecap: square"/>
   </g>
   <g id="legend_2">
    <g id="patch_9">
     <path d="M 407.592187 48.488281 
L 547.957813 48.488281 
Q 549.957813 48.488281 549.957813 46.488281 
L 549.957813 18.025781 
Q 549.957813 16.025781 547.957813 16.025781 
L 407.592187 16.025781 
Q 405.592187 16.025781 405.592187 18.025781 
L 405.592187 46.488281 
Q 405.592187 48.488281 407.592187 48.488281 
z
" style="fill: #ffffff; opacity: 0.8; stroke: #333333; stroke-width: 0.2; stroke-linejoin: miter"/>
    </g>
    <g id="line2d_57">
     <path d="M 409.592187 24.177344 
L 419.592187 24.177344 
L 429.592187 24.177344 
" style="fill: none; stroke: #486afb; stroke-width: 2; stroke-linecap: square"/>
    </g>
    <g id="text_32">
     <!-- estimated data PDF -->
     <g transform="translate(437.592187 27.677344) scale(0.1 -0.1)">
      <defs>
       <path id="DejaVuSansMono-50" d="M 1247 4147 
L 1247 2394 
L 1978 2394 
Q 2416 2394 2661 2625 
Q 2906 2856 2906 3272 
Q 2906 3688 2662 3917 
Q 2419 4147 1978 4147 
L 1247 4147 
z
M 616 4666 
L 1978 4666 
Q 2759 4666 3162 4311 
Q 3566 3956 3566 3272 
Q 3566 2581 3164 2228 
Q 2763 1875 1978 1875 
L 1247 1875 
L 1247 0 
L 616 0 
L 616 4666 
z
" transform="scale(0.015625)"/>
      </defs>
      <use xlink:href="#DejaVuSansMono-65"/>
      <use xlink:href="#DejaVuSansMono-73" x="60.205078"/>
      <use xlink:href="#DejaVuSansMono-74" x="120.410156"/>
      <use xlink:href="#DejaVuSansMono-69" x="180.615234"/>
      <use xlink:href="#DejaVuSansMono-6d" x="240.820312"/>
      <use xlink:href="#DejaVuSansMono-61" x="301.025391"/>
      <use xlink:href="#DejaVuSansMono-74" x="361.230469"/>
      <use xlink:href="#DejaVuSansMono-65" x="421.435547"/>
      <use xlink:href="#DejaVuSansMono-64" x="481.640625"/>
      <use xlink:href="#DejaVuSansMono-20" x="541.845703"/>
      <use xlink:href="#DejaVuSansMono-64" x="602.050781"/>
      <use xlink:href="#DejaVuSansMono-61" x="662.255859"/>
      <use xlink:href="#DejaVuSansMono-74" x="722.460938"/>
      <use xlink:href="#DejaVuSansMono-61" x="782.666016"/>
      <use xlink:href="#DejaVuSansMono-20" x="842.871094"/>
      <use xlink:href="#DejaVuSansMono-50" x="903.076172"/>
      <use xlink:href="#DejaVuSansMono-44" x="963.28125"/>
      <use xlink:href="#DejaVuSansMono-46" x="1023.486328"/>
     </g>
    </g>
    <g id="line2d_58">
     <path d="M 409.592187 38.908594 
L 419.592187 38.908594 
L 429.592187 38.908594 
" style="fill: none; stroke: #fd46fc; stroke-width: 2; stroke-linecap: square"/>
    </g>
    <g id="text_33">
     <!-- normal PDF -->
     <g transform="translate(437.592187 42.408594) scale(0.1 -0.1)">
      <use xlink:href="#DejaVuSansMono-6e"/>
      <use xlink:href="#DejaVuSansMono-6f" x="60.205078"/>
      <use xlink:href="#DejaVuSansMono-72" x="120.410156"/>
      <use xlink:href="#DejaVuSansMono-6d" x="180.615234"/>
      <use xlink:href="#DejaVuSansMono-61" x="240.820312"/>
      <use xlink:href="#DejaVuSansMono-6c" x="301.025391"/>
      <use xlink:href="#DejaVuSansMono-20" x="361.230469"/>
      <use xlink:href="#DejaVuSansMono-50" x="421.435547"/>
      <use xlink:href="#DejaVuSansMono-44" x="481.640625"/>
      <use xlink:href="#DejaVuSansMono-46" x="541.845703"/>
     </g>
    </g>
   </g>
  </g>
 </g>
 <defs>
  <clipPath id="p034d9e908e">
   <rect x="45.992188" y="11.025781" width="304.63" height="231.28"/>
  </clipPath>
  <clipPath id="p570757933c">
   <rect x="400.592187" y="11.025781" width="304.63" height="231.28"/>
  </clipPath>
 </defs>
</svg>