<?xml version="1.0" encoding="utf-8" standalone="no"?>
<!DOCTYPE svg PUBLIC "-//W3C//DTD SVG 1.1//EN"
  "http://www.w3.org/Graphics/SVG/1.1/DTD/svg11.dtd">
<svg xmlns:xlink="http://www.w3.org/1999/xlink" width="349.945125pt" height="277.6545pt" viewBox="0 0 349.945125 277.6545" xmlns="http://www.w3.org/2000/svg" version="1.1">
 <metadata>
  <rdf:RDF xmlns:dc="http://purl.org/dc/elements/1.1/" xmlns:cc="http://creativecommons.org/ns#" xmlns:rdf="http://www.w3.org/1999/02/22-rdf-syntax-ns#">
   <cc:Work>
    <dc:type rdf:resource="http://purl.org/dc/dcmitype/StillImage"/>
    <dc:date>2024-01-14T15:39:37.766238</dc:date>
    <dc:format>image/svg+xml</dc:format>
    <dc:creator>
     <cc:Agent>
      <dc:title>Matplotlib v3.8.2, https://matplotlib.org/</dc:title>
     </cc:Agent>
    </dc:creator>
   </cc:Work>
  </rdf:RDF>
 </metadata>
 <defs>
  <style type="text/css">*{stroke-linejoin: round; stroke-linecap: butt}</style>
 </defs>
 <g id="figure_1">
  <g id="patch_1">
   <path d="M 0 277.6545 
L 349.945125 277.6545 
L 349.945125 0 
L 0 0 
z
" style="fill: #ffffff"/>
  </g>
  <g id="axes_1">
   <g id="patch_2">
    <path d="M 52.0125 239.992 
L 330.7045 239.992 
L 330.7045 7.2 
L 52.0125 7.2 
z
" style="fill: #ffffff"/>
   </g>
   <g id="matplotlib.axis_1">
    <g id="xtick_1">
     <g id="line2d_1">
      <path d="M 52.0125 239.992 
L 52.0125 7.2 
" clip-path="url(#pced190b524)" style="fill: none; stroke-dasharray: 2.22,0.96; stroke-dashoffset: 0; stroke: #6c6066; stroke-opacity: 0.4; stroke-width: 0.6"/>
     </g>
     <g id="line2d_2">
      <defs>
       <path id="me265fffcf7" d="M 0 0 
L 0 3.5 
" style="stroke: #000000; stroke-width: 0.8"/>
      </defs>
      <g>
       <use xlink:href="#me265fffcf7" x="52.0125" y="239.992" style="stroke: #000000; stroke-width: 0.8"/>
      </g>
     </g>
     <g id="text_1">
      <!-- −0.50 -->
      <g transform="translate(36.961719 254.643562) scale(0.1 -0.1)">
       <defs>
        <path id="DejaVuSansMono-2212" d="M 275 2272 
L 3578 2272 
L 3578 1741 
L 275 1741 
L 275 2272 
z
" transform="scale(0.015625)"/>
        <path id="DejaVuSansMono-30" d="M 1509 2344 
Q 1509 2516 1629 2641 
Q 1750 2766 1919 2766 
Q 2094 2766 2219 2641 
Q 2344 2516 2344 2344 
Q 2344 2169 2220 2047 
Q 2097 1925 1919 1925 
Q 1744 1925 1626 2044 
Q 1509 2163 1509 2344 
z
M 1925 4250 
Q 1484 4250 1267 3775 
Q 1050 3300 1050 2328 
Q 1050 1359 1267 884 
Q 1484 409 1925 409 
Q 2369 409 2586 884 
Q 2803 1359 2803 2328 
Q 2803 3300 2586 3775 
Q 2369 4250 1925 4250 
z
M 1925 4750 
Q 2672 4750 3055 4137 
Q 3438 3525 3438 2328 
Q 3438 1134 3055 521 
Q 2672 -91 1925 -91 
Q 1178 -91 797 521 
Q 416 1134 416 2328 
Q 416 3525 797 4137 
Q 1178 4750 1925 4750 
z
" transform="scale(0.015625)"/>
        <path id="DejaVuSansMono-2e" d="M 1528 953 
L 2316 953 
L 2316 0 
L 1528 0 
L 1528 953 
z
" transform="scale(0.015625)"/>
        <path id="DejaVuSansMono-35" d="M 647 4666 
L 3009 4666 
L 3009 4134 
L 1222 4134 
L 1222 2988 
Q 1356 3038 1492 3061 
Q 1628 3084 1766 3084 
Q 2491 3084 2916 2656 
Q 3341 2228 3341 1497 
Q 3341 759 2895 334 
Q 2450 -91 1678 -91 
Q 1306 -91 998 -41 
Q 691 9 447 109 
L 447 750 
Q 734 594 1025 517 
Q 1316 441 1619 441 
Q 2141 441 2423 716 
Q 2706 991 2706 1497 
Q 2706 1997 2414 2275 
Q 2122 2553 1600 2553 
Q 1347 2553 1106 2495 
Q 866 2438 647 2322 
L 647 4666 
z
" transform="scale(0.015625)"/>
       </defs>
       <use xlink:href="#DejaVuSansMono-2212"/>
       <use xlink:href="#DejaVuSansMono-30" x="60.205078"/>
       <use xlink:href="#DejaVuSansMono-2e" x="120.410156"/>
       <use xlink:href="#DejaVuSansMono-35" x="180.615234"/>
       <use xlink:href="#DejaVuSansMono-30" x="240.820312"/>
      </g>
     </g>
    </g>
    <g id="xtick_2">
     <g id="line2d_3">
      <path d="M 86.849 239.992 
L 86.849 7.2 
" clip-path="url(#pced190b524)" style="fill: none; stroke-dasharray: 2.22,0.96; stroke-dashoffset: 0; stroke: #6c6066; stroke-opacity: 0.4; stroke-width: 0.6"/>
     </g>
     <g id="line2d_4">
      <g>
       <use xlink:href="#me265fffcf7" x="86.849" y="239.992" style="stroke: #000000; stroke-width: 0.8"/>
      </g>
     </g>
     <g id="text_2">
      <!-- −0.25 -->
      <g transform="translate(71.798219 254.643562) scale(0.1 -0.1)">
       <defs>
        <path id="DejaVuSansMono-32" d="M 1166 531 
L 3309 531 
L 3309 0 
L 475 0 
L 475 531 
Q 1059 1147 1496 1619 
Q 1934 2091 2100 2284 
Q 2413 2666 2522 2902 
Q 2631 3138 2631 3384 
Q 2631 3775 2401 3997 
Q 2172 4219 1772 4219 
Q 1488 4219 1175 4116 
Q 863 4013 513 3803 
L 513 4441 
Q 834 4594 1145 4672 
Q 1456 4750 1759 4750 
Q 2444 4750 2861 4386 
Q 3278 4022 3278 3431 
Q 3278 3131 3139 2831 
Q 3000 2531 2688 2169 
Q 2513 1966 2180 1606 
Q 1847 1247 1166 531 
z
" transform="scale(0.015625)"/>
       </defs>
       <use xlink:href="#DejaVuSansMono-2212"/>
       <use xlink:href="#DejaVuSansMono-30" x="60.205078"/>
       <use xlink:href="#DejaVuSansMono-2e" x="120.410156"/>
       <use xlink:href="#DejaVuSansMono-32" x="180.615234"/>
       <use xlink:href="#DejaVuSansMono-35" x="240.820312"/>
      </g>
     </g>
    </g>
    <g id="xtick_3">
     <g id="line2d_5">
      <path d="M 121.6855 239.992 
L 121.6855 7.2 
" clip-path="url(#pced190b524)" style="fill: none; stroke-dasharray: 2.22,0.96; stroke-dashoffset: 0; stroke: #6c6066; stroke-opacity: 0.4; stroke-width: 0.6"/>
     </g>
     <g id="line2d_6">
      <g>
       <use xlink:href="#me265fffcf7" x="121.6855" y="239.992" style="stroke: #000000; stroke-width: 0.8"/>
      </g>
     </g>
     <g id="text_3">
      <!-- 0.00 -->
      <g transform="translate(109.644875 254.643562) scale(0.1 -0.1)">
       <use xlink:href="#DejaVuSansMono-30"/>
       <use xlink:href="#DejaVuSansMono-2e" x="60.205078"/>
       <use xlink:href="#DejaVuSansMono-30" x="120.410156"/>
       <use xlink:href="#DejaVuSansMono-30" x="180.615234"/>
      </g>
     </g>
    </g>
    <g id="xtick_4">
     <g id="line2d_7">
      <path d="M 156.522 239.992 
L 156.522 7.2 
" clip-path="url(#pced190b524)" style="fill: none; stroke-dasharray: 2.22,0.96; stroke-dashoffset: 0; stroke: #6c6066; stroke-opacity: 0.4; stroke-width: 0.6"/>
     </g>
     <g id="line2d_8">
      <g>
       <use xlink:href="#me265fffcf7" x="156.522" y="239.992" style="stroke: #000000; stroke-width: 0.8"/>
      </g>
     </g>
     <g id="text_4">
      <!-- 0.25 -->
      <g transform="translate(144.481375 254.643562) scale(0.1 -0.1)">
       <use xlink:href="#DejaVuSansMono-30"/>
       <use xlink:href="#DejaVuSansMono-2e" x="60.205078"/>
       <use xlink:href="#DejaVuSansMono-32" x="120.410156"/>
       <use xlink:href="#DejaVuSansMono-35" x="180.615234"/>
      </g>
     </g>
    </g>
    <g id="xtick_5">
     <g id="line2d_9">
      <path d="M 191.3585 239.992 
L 191.3585 7.2 
" clip-path="url(#pced190b524)" style="fill: none; stroke-dasharray: 2.22,0.96; stroke-dashoffset: 0; stroke: #6c6066; stroke-opacity: 0.4; stroke-width: 0.6"/>
     </g>
     <g id="line2d_10">
      <g>
       <use xlink:href="#me265fffcf7" x="191.3585" y="239.992" style="stroke: #000000; stroke-width: 0.8"/>
      </g>
     </g>
     <g id="text_5">
      <!-- 0.50 -->
      <g transform="translate(179.317875 254.643562) scale(0.1 -0.1)">
       <use xlink:href="#DejaVuSansMono-30"/>
       <use xlink:href="#DejaVuSansMono-2e" x="60.205078"/>
       <use xlink:href="#DejaVuSansMono-35" x="120.410156"/>
       <use xlink:href="#DejaVuSansMono-30" x="180.615234"/>
      </g>
     </g>
    </g>
    <g id="xtick_6">
     <g id="line2d_11">
      <path d="M 226.195 239.992 
L 226.195 7.2 
" clip-path="url(#pced190b524)" style="fill: none; stroke-dasharray: 2.22,0.96; stroke-dashoffset: 0; stroke: #6c6066; stroke-opacity: 0.4; stroke-width: 0.6"/>
     </g>
     <g id="line2d_12">
      <g>
       <use xlink:href="#me265fffcf7" x="226.195" y="239.992" style="stroke: #000000; stroke-width: 0.8"/>
      </g>
     </g>
     <g id="text_6">
      <!-- 0.75 -->
      <g transform="translate(214.154375 254.643562) scale(0.1 -0.1)">
       <defs>
        <path id="DejaVuSansMono-37" d="M 434 4666 
L 3372 4666 
L 3372 4397 
L 1703 0 
L 1044 0 
L 2669 4134 
L 434 4134 
L 434 4666 
z
" transform="scale(0.015625)"/>
       </defs>
       <use xlink:href="#DejaVuSansMono-30"/>
       <use xlink:href="#DejaVuSansMono-2e" x="60.205078"/>
       <use xlink:href="#DejaVuSansMono-37" x="120.410156"/>
       <use xlink:href="#DejaVuSansMono-35" x="180.615234"/>
      </g>
     </g>
    </g>
    <g id="xtick_7">
     <g id="line2d_13">
      <path d="M 261.0315 239.992 
L 261.0315 7.2 
" clip-path="url(#pced190b524)" style="fill: none; stroke-dasharray: 2.22,0.96; stroke-dashoffset: 0; stroke: #6c6066; stroke-opacity: 0.4; stroke-width: 0.6"/>
     </g>
     <g id="line2d_14">
      <g>
       <use xlink:href="#me265fffcf7" x="261.0315" y="239.992" style="stroke: #000000; stroke-width: 0.8"/>
      </g>
     </g>
     <g id="text_7">
      <!-- 1.00 -->
      <g transform="translate(248.990875 254.643562) scale(0.1 -0.1)">
       <defs>
        <path id="DejaVuSansMono-31" d="M 844 531 
L 1825 531 
L 1825 4097 
L 769 3859 
L 769 4434 
L 1819 4666 
L 2450 4666 
L 2450 531 
L 3419 531 
L 3419 0 
L 844 0 
L 844 531 
z
" transform="scale(0.015625)"/>
       </defs>
       <use xlink:href="#DejaVuSansMono-31"/>
       <use xlink:href="#DejaVuSansMono-2e" x="60.205078"/>
       <use xlink:href="#DejaVuSansMono-30" x="120.410156"/>
       <use xlink:href="#DejaVuSansMono-30" x="180.615234"/>
      </g>
     </g>
    </g>
    <g id="xtick_8">
     <g id="line2d_15">
      <path d="M 295.868 239.992 
L 295.868 7.2 
" clip-path="url(#pced190b524)" style="fill: none; stroke-dasharray: 2.22,0.96; stroke-dashoffset: 0; stroke: #6c6066; stroke-opacity: 0.4; stroke-width: 0.6"/>
     </g>
     <g id="line2d_16">
      <g>
       <use xlink:href="#me265fffcf7" x="295.868" y="239.992" style="stroke: #000000; stroke-width: 0.8"/>
      </g>
     </g>
     <g id="text_8">
      <!-- 1.25 -->
      <g transform="translate(283.827375 254.643562) scale(0.1 -0.1)">
       <use xlink:href="#DejaVuSansMono-31"/>
       <use xlink:href="#DejaVuSansMono-2e" x="60.205078"/>
       <use xlink:href="#DejaVuSansMono-32" x="120.410156"/>
       <use xlink:href="#DejaVuSansMono-35" x="180.615234"/>
      </g>
     </g>
    </g>
    <g id="xtick_9">
     <g id="line2d_17">
      <path d="M 330.7045 239.992 
L 330.7045 7.2 
" clip-path="url(#pced190b524)" style="fill: none; stroke-dasharray: 2.22,0.96; stroke-dashoffset: 0; stroke: #6c6066; stroke-opacity: 0.4; stroke-width: 0.6"/>
     </g>
     <g id="line2d_18">
      <g>
       <use xlink:href="#me265fffcf7" x="330.7045" y="239.992" style="stroke: #000000; stroke-width: 0.8"/>
      </g>
     </g>
     <g id="text_9">
      <!-- 1.50 -->
      <g transform="translate(318.663875 254.643562) scale(0.1 -0.1)">
       <use xlink:href="#DejaVuSansMono-31"/>
       <use xlink:href="#DejaVuSansMono-2e" x="60.205078"/>
       <use xlink:href="#DejaVuSansMono-35" x="120.410156"/>
       <use xlink:href="#DejaVuSansMono-30" x="180.615234"/>
      </g>
     </g>
    </g>
    <g id="text_10">
     <!-- $\theta_1$ -->
     <g transform="translate(185.9085 268.374812) scale(0.1 -0.1)">
      <defs>
       <path id="DejaVuSans-Oblique-3b8" d="M 2913 2219 
L 925 2219 
Q 791 1284 928 888 
Q 1100 400 1566 400 
Q 2034 400 2391 891 
Q 2703 1322 2913 2219 
z
M 3009 2750 
Q 3094 3638 2984 3950 
Q 2813 4444 2353 4444 
Q 1875 4444 1525 3956 
Q 1250 3563 1034 2750 
L 3009 2750 
z
M 2444 4913 
Q 3194 4913 3494 4250 
Q 3794 3591 3566 2422 
Q 3341 1256 2781 594 
Q 2225 -72 1475 -72 
Q 722 -72 425 594 
Q 128 1256 353 2422 
Q 581 3591 1134 4250 
Q 1691 4913 2444 4913 
z
" transform="scale(0.015625)"/>
       <path id="DejaVuSans-31" d="M 794 531 
L 1825 531 
L 1825 4091 
L 703 3866 
L 703 4441 
L 1819 4666 
L 2450 4666 
L 2450 531 
L 3481 531 
L 3481 0 
L 794 0 
L 794 531 
z
" transform="scale(0.015625)"/>
      </defs>
      <use xlink:href="#DejaVuSans-Oblique-3b8" transform="translate(0 0.234375)"/>
      <use xlink:href="#DejaVuSans-31" transform="translate(61.181641 -16.171875) scale(0.7)"/>
     </g>
    </g>
   </g>
   <g id="matplotlib.axis_2">
    <g id="ytick_1">
     <g id="line2d_19">
      <path d="M 52.0125 232.232267 
L 330.7045 232.232267 
" clip-path="url(#pced190b524)" style="fill: none; stroke-dasharray: 2.22,0.96; stroke-dashoffset: 0; stroke: #6c6066; stroke-opacity: 0.4; stroke-width: 0.6"/>
     </g>
     <g id="line2d_20">
      <defs>
       <path id="m139692f5af" d="M 0 0 
L -3.5 0 
" style="stroke: #000000; stroke-width: 0.8"/>
      </defs>
      <g>
       <use xlink:href="#m139692f5af" x="52.0125" y="232.232267" style="stroke: #000000; stroke-width: 0.8"/>
      </g>
     </g>
     <g id="text_11">
      <!-- −0.2 -->
      <g transform="translate(20.93125 236.058048) scale(0.1 -0.1)">
       <use xlink:href="#DejaVuSansMono-2212"/>
       <use xlink:href="#DejaVuSansMono-30" x="60.205078"/>
       <use xlink:href="#DejaVuSansMono-2e" x="120.410156"/>
       <use xlink:href="#DejaVuSansMono-32" x="180.615234"/>
      </g>
     </g>
    </g>
    <g id="ytick_2">
     <g id="line2d_21">
      <path d="M 52.0125 201.193333 
L 330.7045 201.193333 
" clip-path="url(#pced190b524)" style="fill: none; stroke-dasharray: 2.22,0.96; stroke-dashoffset: 0; stroke: #6c6066; stroke-opacity: 0.4; stroke-width: 0.6"/>
     </g>
     <g id="line2d_22">
      <g>
       <use xlink:href="#m139692f5af" x="52.0125" y="201.193333" style="stroke: #000000; stroke-width: 0.8"/>
      </g>
     </g>
     <g id="text_12">
      <!-- 0.0 -->
      <g transform="translate(26.951563 205.019115) scale(0.1 -0.1)">
       <use xlink:href="#DejaVuSansMono-30"/>
       <use xlink:href="#DejaVuSansMono-2e" x="60.205078"/>
       <use xlink:href="#DejaVuSansMono-30" x="120.410156"/>
      </g>
     </g>
    </g>
    <g id="ytick_3">
     <g id="line2d_23">
      <path d="M 52.0125 170.1544 
L 330.7045 170.1544 
" clip-path="url(#pced190b524)" style="fill: none; stroke-dasharray: 2.22,0.96; stroke-dashoffset: 0; stroke: #6c6066; stroke-opacity: 0.4; stroke-width: 0.6"/>
     </g>
     <g id="line2d_24">
      <g>
       <use xlink:href="#m139692f5af" x="52.0125" y="170.1544" style="stroke: #000000; stroke-width: 0.8"/>
      </g>
     </g>
     <g id="text_13">
      <!-- 0.2 -->
      <g transform="translate(26.951563 173.980181) scale(0.1 -0.1)">
       <use xlink:href="#DejaVuSansMono-30"/>
       <use xlink:href="#DejaVuSansMono-2e" x="60.205078"/>
       <use xlink:href="#DejaVuSansMono-32" x="120.410156"/>
      </g>
     </g>
    </g>
    <g id="ytick_4">
     <g id="line2d_25">
      <path d="M 52.0125 139.115467 
L 330.7045 139.115467 
" clip-path="url(#pced190b524)" style="fill: none; stroke-dasharray: 2.22,0.96; stroke-dashoffset: 0; stroke: #6c6066; stroke-opacity: 0.4; stroke-width: 0.6"/>
     </g>
     <g id="line2d_26">
      <g>
       <use xlink:href="#m139692f5af" x="52.0125" y="139.115467" style="stroke: #000000; stroke-width: 0.8"/>
      </g>
     </g>
     <g id="text_14">
      <!-- 0.4 -->
      <g transform="translate(26.951563 142.941248) scale(0.1 -0.1)">
       <defs>
        <path id="DejaVuSansMono-34" d="M 2297 4091 
L 825 1625 
L 2297 1625 
L 2297 4091 
z
M 2194 4666 
L 2925 4666 
L 2925 1625 
L 3547 1625 
L 3547 1113 
L 2925 1113 
L 2925 0 
L 2297 0 
L 2297 1113 
L 319 1113 
L 319 1709 
L 2194 4666 
z
" transform="scale(0.015625)"/>
       </defs>
       <use xlink:href="#DejaVuSansMono-30"/>
       <use xlink:href="#DejaVuSansMono-2e" x="60.205078"/>
       <use xlink:href="#DejaVuSansMono-34" x="120.410156"/>
      </g>
     </g>
    </g>
    <g id="ytick_5">
     <g id="line2d_27">
      <path d="M 52.0125 108.076533 
L 330.7045 108.076533 
" clip-path="url(#pced190b524)" style="fill: none; stroke-dasharray: 2.22,0.96; stroke-dashoffset: 0; stroke: #6c6066; stroke-opacity: 0.4; stroke-width: 0.6"/>
     </g>
     <g id="line2d_28">
      <g>
       <use xlink:href="#m139692f5af" x="52.0125" y="108.076533" style="stroke: #000000; stroke-width: 0.8"/>
      </g>
     </g>
     <g id="text_15">
      <!-- 0.6 -->
      <g transform="translate(26.951563 111.902315) scale(0.1 -0.1)">
       <defs>
        <path id="DejaVuSansMono-36" d="M 3097 4563 
L 3097 3981 
Q 2900 4097 2678 4158 
Q 2456 4219 2216 4219 
Q 1616 4219 1306 3767 
Q 997 3316 997 2438 
Q 1147 2750 1412 2917 
Q 1678 3084 2022 3084 
Q 2697 3084 3067 2670 
Q 3438 2256 3438 1497 
Q 3438 741 3056 325 
Q 2675 -91 1984 -91 
Q 1172 -91 794 492 
Q 416 1075 416 2328 
Q 416 3509 870 4129 
Q 1325 4750 2188 4750 
Q 2419 4750 2650 4701 
Q 2881 4653 3097 4563 
z
M 1972 2591 
Q 1569 2591 1337 2300 
Q 1106 2009 1106 1497 
Q 1106 984 1337 693 
Q 1569 403 1972 403 
Q 2391 403 2603 679 
Q 2816 956 2816 1497 
Q 2816 2041 2603 2316 
Q 2391 2591 1972 2591 
z
" transform="scale(0.015625)"/>
       </defs>
       <use xlink:href="#DejaVuSansMono-30"/>
       <use xlink:href="#DejaVuSansMono-2e" x="60.205078"/>
       <use xlink:href="#DejaVuSansMono-36" x="120.410156"/>
      </g>
     </g>
    </g>
    <g id="ytick_6">
     <g id="line2d_29">
      <path d="M 52.0125 77.0376 
L 330.7045 77.0376 
" clip-path="url(#pced190b524)" style="fill: none; stroke-dasharray: 2.22,0.96; stroke-dashoffset: 0; stroke: #6c6066; stroke-opacity: 0.4; stroke-width: 0.6"/>
     </g>
     <g id="line2d_30">
      <g>
       <use xlink:href="#m139692f5af" x="52.0125" y="77.0376" style="stroke: #000000; stroke-width: 0.8"/>
      </g>
     </g>
     <g id="text_16">
      <!-- 0.8 -->
      <g transform="translate(26.951563 80.863381) scale(0.1 -0.1)">
       <defs>
        <path id="DejaVuSansMono-38" d="M 1925 2216 
Q 1503 2216 1273 1980 
Q 1044 1744 1044 1313 
Q 1044 881 1276 642 
Q 1509 403 1925 403 
Q 2350 403 2579 639 
Q 2809 875 2809 1313 
Q 2809 1741 2576 1978 
Q 2344 2216 1925 2216 
z
M 1375 2478 
Q 972 2581 745 2862 
Q 519 3144 519 3541 
Q 519 4097 897 4423 
Q 1275 4750 1925 4750 
Q 2578 4750 2956 4423 
Q 3334 4097 3334 3541 
Q 3334 3144 3107 2862 
Q 2881 2581 2478 2478 
Q 2947 2375 3195 2062 
Q 3444 1750 3444 1253 
Q 3444 622 3041 265 
Q 2638 -91 1925 -91 
Q 1213 -91 811 264 
Q 409 619 409 1247 
Q 409 1747 657 2061 
Q 906 2375 1375 2478 
z
M 1147 3481 
Q 1147 3106 1347 2909 
Q 1547 2713 1925 2713 
Q 2306 2713 2506 2909 
Q 2706 3106 2706 3481 
Q 2706 3863 2507 4063 
Q 2309 4263 1925 4263 
Q 1547 4263 1347 4061 
Q 1147 3859 1147 3481 
z
" transform="scale(0.015625)"/>
       </defs>
       <use xlink:href="#DejaVuSansMono-30"/>
       <use xlink:href="#DejaVuSansMono-2e" x="60.205078"/>
       <use xlink:href="#DejaVuSansMono-38" x="120.410156"/>
      </g>
     </g>
    </g>
    <g id="ytick_7">
     <g id="line2d_31">
      <path d="M 52.0125 45.998667 
L 330.7045 45.998667 
" clip-path="url(#pced190b524)" style="fill: none; stroke-dasharray: 2.22,0.96; stroke-dashoffset: 0; stroke: #6c6066; stroke-opacity: 0.4; stroke-width: 0.6"/>
     </g>
     <g id="line2d_32">
      <g>
       <use xlink:href="#m139692f5af" x="52.0125" y="45.998667" style="stroke: #000000; stroke-width: 0.8"/>
      </g>
     </g>
     <g id="text_17">
      <!-- 1.0 -->
      <g transform="translate(26.951563 49.824448) scale(0.1 -0.1)">
       <use xlink:href="#DejaVuSansMono-31"/>
       <use xlink:href="#DejaVuSansMono-2e" x="60.205078"/>
       <use xlink:href="#DejaVuSansMono-30" x="120.410156"/>
      </g>
     </g>
    </g>
    <g id="ytick_8">
     <g id="line2d_33">
      <path d="M 52.0125 14.959733 
L 330.7045 14.959733 
" clip-path="url(#pced190b524)" style="fill: none; stroke-dasharray: 2.22,0.96; stroke-dashoffset: 0; stroke: #6c6066; stroke-opacity: 0.4; stroke-width: 0.6"/>
     </g>
     <g id="line2d_34">
      <g>
       <use xlink:href="#m139692f5af" x="52.0125" y="14.959733" style="stroke: #000000; stroke-width: 0.8"/>
      </g>
     </g>
     <g id="text_18">
      <!-- 1.2 -->
      <g transform="translate(26.951563 18.785515) scale(0.1 -0.1)">
       <use xlink:href="#DejaVuSansMono-31"/>
       <use xlink:href="#DejaVuSansMono-2e" x="60.205078"/>
       <use xlink:href="#DejaVuSansMono-32" x="120.410156"/>
      </g>
     </g>
    </g>
    <g id="text_19">
     <!-- $\theta_2$ -->
     <g transform="translate(14.851563 129.046) rotate(-90) scale(0.1 -0.1)">
      <defs>
       <path id="DejaVuSans-32" d="M 1228 531 
L 3431 531 
L 3431 0 
L 469 0 
L 469 531 
Q 828 903 1448 1529 
Q 2069 2156 2228 2338 
Q 2531 2678 2651 2914 
Q 2772 3150 2772 3378 
Q 2772 3750 2511 3984 
Q 2250 4219 1831 4219 
Q 1534 4219 1204 4116 
Q 875 4013 500 3803 
L 500 4441 
Q 881 4594 1212 4672 
Q 1544 4750 1819 4750 
Q 2544 4750 2975 4387 
Q 3406 4025 3406 3419 
Q 3406 3131 3298 2873 
Q 3191 2616 2906 2266 
Q 2828 2175 2409 1742 
Q 1991 1309 1228 531 
z
" transform="scale(0.015625)"/>
      </defs>
      <use xlink:href="#DejaVuSans-Oblique-3b8" transform="translate(0 0.234375)"/>
      <use xlink:href="#DejaVuSans-32" transform="translate(61.181641 -16.171875) scale(0.7)"/>
     </g>
    </g>
   </g>
   <g id="QuadContourSet_1">
    <path clip-path="url(#pced190b524)" style="fill: none; stroke: #486afb; stroke-width: 2"/>
    <path d="M 81.373798 202.55811 
L 81.422209 202.640296 
L 82.079124 203.72792 
L 82.822669 204.619888 
L 83.060335 204.897727 
L 84.223134 205.955152 
L 84.350056 206.067537 
L 85.623594 206.984266 
L 85.984999 207.237346 
L 87.024059 207.846911 
L 88.006695 208.407156 
L 88.424519 208.611132 
L 89.824983 209.272251 
L 90.492751 209.576963 
L 91.225444 209.867703 
L 92.625908 210.403117 
L 93.560086 210.746773 
L 94.026369 210.897796 
L 95.426833 211.33168 
L 96.827293 211.747269 
L 97.426861 211.916583 
L 98.227754 212.117604 
L 99.628218 212.450966 
L 101.028679 212.7666 
L 102.429143 213.06415 
L 102.541192 213.08639 
L 103.829604 213.315412 
L 105.230068 213.54741 
L 106.630528 213.762304 
L 108.030993 213.95987 
L 109.431453 214.139895 
L 110.435987 214.2562 
L 110.831918 214.297512 
L 112.232378 214.427188 
L 113.632843 214.540607 
L 115.033303 214.637659 
L 116.433767 214.718251 
L 117.834228 214.782308 
L 119.234688 214.829773 
L 120.635153 214.860604 
L 122.035617 214.874777 
L 123.436078 214.872287 
L 124.836538 214.853149 
L 126.236998 214.817391 
L 127.637467 214.765064 
L 129.037927 214.696235 
L 130.438388 214.610988 
L 131.838848 214.509427 
L 133.239317 214.391673 
L 134.639777 214.257865 
L 134.655343 214.2562 
L 136.040237 214.091399 
L 137.440698 213.907301 
L 138.841166 213.705991 
L 140.241627 213.487723 
L 141.642087 213.252764 
L 142.568507 213.08639 
L 143.042547 212.991074 
L 144.443008 212.691245 
L 145.843476 212.37395 
L 147.243937 212.039612 
L 147.733951 211.916583 
L 148.644397 211.658785 
L 150.044857 211.243901 
L 151.445326 210.811739 
L 151.647312 210.746773 
L 152.845786 210.308128 
L 154.246247 209.777608 
L 154.7579 209.576963 
L 155.646707 209.175676 
L 157.047176 208.52468 
L 157.292462 208.407156 
L 158.447636 207.760744 
L 159.360683 207.237346 
L 159.848096 206.904361 
L 161.046095 206.067537 
L 161.248557 205.894324 
L 162.389861 204.897727 
L 162.649025 204.609495 
L 163.426922 203.72792 
L 164.049486 202.772958 
L 164.187152 202.55811 
L 164.673024 201.3883 
L 164.9042 200.218493 
L 164.880771 199.048683 
L 164.602405 197.878873 
L 164.068361 196.709064 
L 164.049486 196.680697 
L 163.252866 195.539254 
L 162.649025 194.882156 
L 162.154068 194.369444 
L 161.248557 193.606594 
L 160.740198 193.199639 
L 159.848096 192.593388 
L 158.973675 192.029829 
L 158.447636 191.733428 
L 157.047176 190.985167 
L 156.800415 190.86002 
L 155.646707 190.336599 
L 154.246247 189.737395 
L 154.130002 189.69021 
L 152.845786 189.215845 
L 151.445326 188.729066 
L 150.808731 188.5204 
L 150.044857 188.289496 
L 148.644397 187.89106 
L 147.243937 187.518234 
L 146.571633 187.35059 
L 145.843476 187.181259 
L 144.443008 186.877086 
L 143.042547 186.594915 
L 141.642087 186.33424 
L 140.747055 186.180781 
L 140.241627 186.099198 
L 138.841166 185.891816 
L 137.440698 185.703553 
L 136.040237 185.534103 
L 134.639777 185.383191 
L 133.239317 185.250571 
L 131.838848 185.136024 
L 130.438388 185.039361 
L 129.935985 185.010976 
L 129.037927 184.962796 
L 127.637467 184.904321 
L 126.236998 184.8625 
L 124.836538 184.837249 
L 123.436078 184.828509 
L 122.035617 184.836239 
L 120.635153 184.860422 
L 119.234688 184.901057 
L 117.834228 184.958167 
L 116.830299 185.010976 
L 116.433767 185.03283 
L 115.033303 185.127537 
L 113.632843 185.239759 
L 112.232378 185.369616 
L 110.831918 185.517244 
L 109.431453 185.682805 
L 108.030993 185.866482 
L 106.630528 186.068484 
L 105.917555 186.180781 
L 105.230068 186.295257 
L 103.829604 186.548459 
L 102.429143 186.821978 
L 101.028679 187.116161 
L 99.986955 187.35059 
L 99.628218 187.436734 
L 98.227754 187.795842 
L 96.827293 188.178554 
L 95.650291 188.5204 
L 95.426833 188.590402 
L 94.026369 189.055333 
L 92.625908 189.548059 
L 92.243197 189.69021 
L 91.225444 190.103462 
L 89.824983 190.704397 
L 89.480617 190.86002 
L 88.424519 191.390253 
L 87.217186 192.029829 
L 87.024059 192.145754 
L 85.623594 193.030787 
L 85.369555 193.199639 
L 84.223134 194.088123 
L 83.878062 194.369444 
L 82.822669 195.412257 
L 82.700394 195.539254 
L 81.820865 196.709064 
L 81.422209 197.459553 
L 81.210241 197.878873 
L 80.867876 199.048683 
L 80.780469 200.218493 
L 80.948998 201.3883 
L 81.373798 202.55811 
M 218.648639 50.482936 
L 218.667514 50.511303 
L 219.46413 51.652742 
L 220.067975 52.309844 
L 220.562932 52.822556 
L 221.468443 53.585406 
L 221.976802 53.992361 
L 222.868904 54.598612 
L 223.743315 55.162166 
L 224.269364 55.458574 
L 225.669824 56.206833 
L 225.916585 56.33198 
L 227.070293 56.8554 
L 228.470753 57.454605 
L 228.587011 57.501795 
L 229.871214 57.976154 
L 231.271674 58.462934 
L 231.908269 58.6716 
L 232.672143 58.902504 
L 234.072603 59.30094 
L 235.473063 59.673766 
L 236.145349 59.841405 
L 236.873524 60.010741 
L 238.273992 60.314913 
L 239.674453 60.597085 
L 241.074913 60.85776 
L 241.969945 61.011219 
L 242.475373 61.092802 
L 243.875834 61.300184 
L 245.276302 61.488447 
L 246.676763 61.657897 
L 248.077223 61.808809 
L 249.477683 61.941429 
L 250.878152 62.055976 
L 252.278612 62.152639 
L 252.781015 62.181024 
L 253.679073 62.229204 
L 255.079533 62.287679 
L 256.480002 62.3295 
L 257.880462 62.354751 
L 259.280922 62.363491 
L 260.681383 62.355761 
L 262.081851 62.331578 
L 263.482304 62.290943 
L 264.882772 62.233833 
L 265.886707 62.181024 
L 266.283241 62.15917 
L 267.683693 62.064463 
L 269.084162 61.95224 
L 270.484614 61.822385 
L 271.885082 61.674756 
L 273.285551 61.509195 
L 274.686003 61.325518 
L 276.086472 61.123516 
L 276.799445 61.011219 
L 277.486924 60.896744 
L 278.887392 60.643541 
L 280.287861 60.370021 
L 281.68833 60.075836 
L 282.730061 59.841405 
L 283.088782 59.755265 
L 284.48925 59.396158 
L 285.889702 59.013448 
L 287.066712 58.6716 
L 287.290171 58.601598 
L 288.69064 58.136663 
L 290.091092 57.64394 
L 290.473788 57.501795 
L 291.49156 57.088534 
L 292.892012 56.487604 
L 293.236383 56.33198 
L 294.292481 55.801747 
L 295.499822 55.162166 
L 295.69295 55.046241 
L 297.093402 54.161215 
L 297.347444 53.992361 
L 298.49387 53.103875 
L 298.838939 52.822556 
L 299.894322 51.779752 
L 300.01661 51.652742 
L 300.896135 50.482936 
L 301.294791 49.732446 
L 301.506755 49.313131 
L 301.849124 48.143317 
L 301.936532 46.973503 
L 301.768002 45.803707 
L 301.343204 44.633893 
L 301.294791 44.551703 
L 300.637875 43.464078 
L 299.894322 42.572103 
L 299.656672 42.294282 
L 298.49387 41.236853 
L 298.366948 41.124468 
L 297.093402 40.207732 
L 296.732 39.954654 
L 295.69295 39.345093 
L 294.710297 38.784839 
L 294.292481 38.580867 
L 292.892012 37.919748 
L 292.224262 37.615043 
L 291.49156 37.324301 
L 290.091092 36.788883 
L 289.15692 36.445229 
L 288.69064 36.294207 
L 287.290171 35.860321 
L 285.889702 35.444731 
L 285.29013 35.275415 
L 284.48925 35.074396 
L 283.088782 34.741034 
L 281.68833 34.425402 
L 280.287861 34.12785 
L 280.175766 34.1056 
L 278.887392 33.876586 
L 277.486924 33.644588 
L 276.086472 33.429695 
L 274.686003 33.23213 
L 273.285551 33.052105 
L 272.281053 32.935805 
L 271.885082 32.894488 
L 270.484614 32.764811 
L 269.084162 32.651394 
L 267.683693 32.554342 
L 266.283241 32.47375 
L 264.882772 32.409692 
L 263.482304 32.362227 
L 262.081851 32.331397 
L 260.681383 32.317223 
L 259.280922 32.319713 
L 257.880462 32.338851 
L 256.480002 32.374609 
L 255.079533 32.426936 
L 253.679073 32.495766 
L 252.278612 32.581012 
L 250.878152 32.682573 
L 249.477683 32.800327 
L 248.077223 32.934136 
L 248.061618 32.935805 
L 246.676763 33.100602 
L 245.276302 33.284699 
L 243.875834 33.486008 
L 242.475373 33.704277 
L 241.074913 33.939235 
L 240.14854 34.1056 
L 239.674453 34.200926 
L 238.273992 34.500755 
L 236.873524 34.81805 
L 235.473063 35.152388 
L 234.983057 35.275415 
L 234.072603 35.533215 
L 232.672143 35.948099 
L 231.271674 36.380262 
L 231.069681 36.445229 
L 229.871214 36.883872 
L 228.470753 37.414393 
L 227.959084 37.615043 
L 227.070293 38.016324 
L 225.669824 38.66732 
L 225.424546 38.784839 
L 224.269364 39.431256 
L 223.356317 39.954654 
L 222.868904 40.287639 
L 221.670899 41.124468 
L 221.468443 41.297676 
L 220.327131 42.294282 
L 220.067975 42.582505 
L 219.290078 43.464078 
L 218.667514 44.419042 
L 218.529847 44.633893 
L 218.043976 45.803707 
L 217.8128 46.973503 
L 217.836229 48.143317 
L 218.114598 49.313131 
L 218.648639 50.482936 
z
" clip-path="url(#pced190b524)" style="fill: none; stroke: #486afb; stroke-width: 2"/>
    <path d="M 64.538689 200.218493 
L 64.61666 200.544781 
L 64.821552 201.3883 
L 65.287966 202.55811 
L 65.935559 203.72792 
L 66.017124 203.841798 
L 66.785631 204.897727 
L 67.417585 205.606595 
L 67.835253 206.067537 
L 68.818049 206.978949 
L 69.101342 207.237346 
L 70.218509 208.111867 
L 70.602156 208.407156 
L 71.61897 209.089739 
L 72.357395 209.576963 
L 73.019434 209.962812 
L 74.388489 210.746773 
L 74.419899 210.762825 
L 75.820359 211.461765 
L 76.749169 211.916583 
L 77.22082 212.124279 
L 78.621284 212.726438 
L 79.47778 213.08639 
L 80.021749 213.293328 
L 81.422209 213.812126 
L 82.650637 214.2562 
L 82.822669 214.312815 
L 84.223134 214.759436 
L 85.623594 215.193958 
L 86.395555 215.42601 
L 87.024059 215.598776 
L 88.424519 215.970693 
L 89.824983 216.33044 
L 90.896381 216.595819 
L 91.225444 216.670656 
L 92.625908 216.976204 
L 94.026369 217.269732 
L 95.426833 217.551029 
L 96.545622 217.765627 
L 96.827293 217.815398 
L 98.227754 218.050371 
L 99.628218 218.273477 
L 101.028679 218.484561 
L 102.429143 218.683472 
L 103.829604 218.870068 
L 104.356329 218.935437 
L 105.230068 219.035581 
L 106.630528 219.184296 
L 108.030993 219.321294 
L 109.431453 219.446484 
L 110.831918 219.559781 
L 112.232378 219.661113 
L 113.632843 219.750411 
L 115.033303 219.827619 
L 116.433767 219.892685 
L 117.834228 219.945571 
L 119.234688 219.986245 
L 120.635153 220.014682 
L 122.035617 220.030872 
L 123.436078 220.034811 
L 124.836538 220.026502 
L 126.236998 220.005962 
L 127.637467 219.973216 
L 129.037927 219.928297 
L 130.438388 219.871249 
L 131.838848 219.802124 
L 133.239317 219.720987 
L 134.639777 219.627906 
L 136.040237 219.522967 
L 137.440698 219.406254 
L 138.841166 219.277871 
L 140.241627 219.137924 
L 141.642087 218.986531 
L 142.081621 218.935437 
L 143.042547 218.814177 
L 144.443008 218.6253 
L 145.843476 218.424483 
L 147.243937 218.211902 
L 148.644397 217.987739 
L 149.964815 217.765627 
L 150.044857 217.75097 
L 151.445326 217.481977 
L 152.845786 217.201139 
L 154.246247 216.908702 
L 155.646707 216.604924 
L 155.687099 216.595819 
L 157.047176 216.26118 
L 158.447636 215.904974 
L 159.848096 215.537494 
L 160.259675 215.42601 
L 161.248557 215.13252 
L 162.649025 214.705095 
L 164.049486 214.266769 
L 164.082324 214.2562 
L 165.449946 213.771974 
L 166.850407 213.26545 
L 167.334127 213.08639 
L 168.250867 212.711155 
L 169.651336 212.126807 
L 170.145231 211.916583 
L 171.051796 211.487439 
L 172.452256 210.814103 
L 172.589721 210.746773 
L 173.852717 210.054285 
L 174.712132 209.576963 
L 175.253185 209.237561 
L 176.561372 208.407156 
L 176.653646 208.340285 
L 178.054106 207.313393 
L 178.156687 207.237346 
L 179.454566 206.126697 
L 179.52306 206.067537 
L 180.675063 204.897727 
L 180.855035 204.677721 
L 181.625681 203.72792 
L 182.255495 202.765557 
L 182.390264 202.55811 
L 182.9666 201.3883 
L 183.368717 200.218493 
L 183.596899 199.048683 
L 183.651252 197.878873 
L 183.531737 196.709064 
L 183.238145 195.539254 
L 182.770085 194.369444 
L 182.255495 193.430296 
L 182.124131 193.199639 
L 181.287017 192.029829 
L 180.855035 191.52843 
L 180.255709 190.86002 
L 179.454566 190.091871 
L 179.018159 189.69021 
L 178.054106 188.907158 
L 177.557531 188.5204 
L 176.653646 187.886909 
L 175.854669 187.35059 
L 175.253185 186.981761 
L 173.887623 186.180781 
L 173.852717 186.161851 
L 172.452256 185.431125 
L 171.60884 185.010976 
L 171.051796 184.75163 
L 169.651336 184.127134 
L 168.980739 183.841166 
L 168.250867 183.547697 
L 166.850407 183.00925 
L 165.929403 182.671356 
L 165.449946 182.504281 
L 164.049486 182.037235 
L 162.649025 181.593302 
L 162.346279 181.501546 
L 161.248557 181.18342 
L 159.848096 180.797447 
L 158.447636 180.431443 
L 158.046976 180.331737 
L 157.047176 180.092484 
L 155.646707 179.774762 
L 154.246247 179.474678 
L 152.845786 179.191772 
L 152.689663 179.161927 
L 151.445326 178.932025 
L 150.044857 178.688958 
L 148.644397 178.461418 
L 147.243937 178.249074 
L 145.843476 178.051625 
L 145.389365 177.992117 
L 144.443008 177.871718 
L 143.042547 177.707235 
L 141.642087 177.556534 
L 140.241627 177.419404 
L 138.841166 177.295657 
L 137.440698 177.185112 
L 136.040237 177.087613 
L 134.639777 177.003018 
L 133.239317 176.931194 
L 131.838848 176.872028 
L 130.438388 176.825423 
L 130.31118 176.822312 
L 129.037927 176.791943 
L 127.637467 176.77067 
L 126.236998 176.761477 
L 124.836538 176.764313 
L 123.436078 176.779142 
L 122.035617 176.805942 
L 121.445012 176.822312 
L 120.635153 176.845185 
L 119.234688 176.897005 
L 117.834228 176.961059 
L 116.433767 177.037365 
L 115.033303 177.125959 
L 113.632843 177.226887 
L 112.232378 177.340206 
L 110.831918 177.465978 
L 109.431453 177.604289 
L 108.030993 177.755221 
L 106.630528 177.91888 
L 106.04986 177.992117 
L 105.230068 178.09806 
L 103.829604 178.292489 
L 102.429143 178.500413 
L 101.028679 178.721992 
L 99.628218 178.957394 
L 98.479869 179.161927 
L 98.227754 179.208153 
L 96.827293 179.479739 
L 95.426833 179.766282 
L 94.026369 180.068026 
L 92.862025 180.331737 
L 92.625908 180.387063 
L 91.225444 180.731532 
L 89.824983 181.092743 
L 88.424519 181.471035 
L 88.31644 181.501546 
L 87.024059 181.881157 
L 85.623594 182.311223 
L 84.500604 182.671356 
L 84.223134 182.764459 
L 82.822669 183.254496 
L 81.422209 183.765927 
L 81.224249 183.841166 
L 80.021749 184.322753 
L 78.621284 184.907605 
L 78.383239 185.010976 
L 77.22082 185.546963 
L 75.902006 186.180781 
L 75.820359 186.222794 
L 74.419899 186.97197 
L 73.740041 187.35059 
L 73.019434 187.785004 
L 71.847763 188.5204 
L 71.61897 188.67778 
L 70.218509 189.680479 
L 70.20543 189.69021 
L 68.818049 190.840897 
L 68.795881 190.86002 
L 67.602567 192.029829 
L 67.417585 192.241417 
L 66.612217 193.199639 
L 66.017124 194.058671 
L 65.810101 194.369444 
L 65.199307 195.539254 
L 64.765002 196.709064 
L 64.61666 197.38357 
L 64.511942 197.878873 
L 64.437575 199.048683 
L 64.538689 200.218493 
z
M 199.946915 52.822556 
L 200.461505 53.761704 
L 200.592869 53.992361 
L 201.429977 55.162166 
L 201.861965 55.66357 
L 202.461291 56.33198 
L 203.262434 57.100127 
L 203.698851 57.501795 
L 204.662894 58.284841 
L 205.159469 58.6716 
L 206.063354 59.305092 
L 206.86232 59.841405 
L 207.463815 60.21024 
L 208.829377 61.011219 
L 208.864283 61.030149 
L 210.264744 61.760875 
L 211.10816 62.181024 
L 211.665204 62.44037 
L 213.065664 63.064868 
L 213.736245 63.35083 
L 214.466133 63.644303 
L 215.866593 64.18275 
L 216.787597 64.520644 
L 217.267054 64.687718 
L 218.667514 65.154765 
L 220.067975 65.598696 
L 220.370743 65.690458 
L 221.468443 66.008578 
L 222.868904 66.394553 
L 224.269364 66.760556 
L 224.670024 66.860263 
L 225.669824 67.099516 
L 227.070293 67.417238 
L 228.470753 67.717323 
L 229.871214 68.000228 
L 230.027315 68.030068 
L 231.271674 68.259975 
L 232.672143 68.503041 
L 234.072603 68.730582 
L 235.473063 68.942926 
L 236.873524 69.140375 
L 237.327635 69.199883 
L 238.273992 69.320282 
L 239.674453 69.484765 
L 241.074913 69.635466 
L 242.475373 69.772596 
L 243.875834 69.896343 
L 245.276302 70.006888 
L 246.676763 70.104387 
L 248.077223 70.188982 
L 249.477683 70.260806 
L 250.878152 70.319972 
L 252.278612 70.366577 
L 252.40582 70.369688 
L 253.679073 70.400057 
L 255.079533 70.42133 
L 256.480002 70.430523 
L 257.880462 70.427687 
L 259.280922 70.412858 
L 260.681383 70.386058 
L 261.27199 70.369688 
L 262.081851 70.346815 
L 263.482304 70.294995 
L 264.882772 70.230941 
L 266.283241 70.154635 
L 267.683693 70.066041 
L 269.084162 69.965113 
L 270.484614 69.851794 
L 271.885082 69.726022 
L 273.285551 69.587711 
L 274.686003 69.43678 
L 276.086472 69.27312 
L 276.667142 69.199883 
L 277.486924 69.093941 
L 278.887392 68.899511 
L 280.287861 68.691587 
L 281.68833 68.470008 
L 283.088782 68.234606 
L 284.237156 68.030068 
L 284.48925 67.983846 
L 285.889702 67.712262 
L 287.290171 67.425718 
L 288.69064 67.123973 
L 289.854975 66.860263 
L 290.091092 66.804937 
L 291.49156 66.460467 
L 292.892012 66.099258 
L 294.292481 65.720964 
L 294.40054 65.690458 
L 295.69295 65.31084 
L 297.093402 64.880777 
L 298.216399 64.520644 
L 298.49387 64.427541 
L 299.894322 63.937507 
L 301.294791 63.426074 
L 301.492765 63.35083 
L 302.69526 62.869245 
L 304.095712 62.284396 
L 304.33376 62.181024 
L 305.49618 61.645037 
L 306.81499 61.011219 
L 306.896633 60.969209 
L 308.297101 60.220031 
L 308.976969 59.841405 
L 309.69757 59.406996 
L 310.869237 58.6716 
L 311.098022 58.514225 
L 312.498491 57.511519 
L 312.511562 57.501795 
L 313.898959 56.351096 
L 313.92112 56.33198 
L 315.114437 55.162166 
L 315.299411 54.950588 
L 316.104784 53.992361 
L 316.69988 53.133322 
L 316.906898 52.822556 
L 317.517695 51.652742 
L 317.952 50.482936 
L 318.100332 49.808471 
L 318.205056 49.313131 
L 318.279426 48.143317 
L 318.178314 46.973503 
L 318.100332 46.647172 
L 317.895449 45.803707 
L 317.429034 44.633893 
L 316.781439 43.464078 
L 316.69988 43.350209 
L 315.931374 42.294282 
L 315.299411 41.585402 
L 314.881748 41.124468 
L 313.898959 40.213061 
L 313.615656 39.954654 
L 312.498491 39.080131 
L 312.11484 38.784839 
L 311.098022 38.102255 
L 310.359614 37.615043 
L 309.69757 37.229192 
L 308.328515 36.445229 
L 308.297101 36.429176 
L 306.896633 35.730231 
L 305.967828 35.275415 
L 305.49618 35.067719 
L 304.095712 34.46556 
L 303.2392 34.1056 
L 302.69526 33.898674 
L 301.294791 33.379873 
L 300.066375 32.935805 
L 299.894322 32.879183 
L 298.49387 32.432565 
L 297.093402 31.998042 
L 296.321444 31.76599 
L 295.69295 31.593226 
L 294.292481 31.221307 
L 292.892012 30.861559 
L 291.820602 30.596176 
L 291.49156 30.521344 
L 290.091092 30.215796 
L 288.69064 29.92227 
L 287.290171 29.640972 
L 286.171411 29.42638 
L 285.889702 29.376602 
L 284.48925 29.141631 
L 283.088782 28.918523 
L 281.68833 28.707441 
L 280.287861 28.508529 
L 278.887392 28.321932 
L 278.360694 28.256566 
L 277.486924 28.156417 
L 276.086472 28.007703 
L 274.686003 27.870705 
L 273.285551 27.745517 
L 271.885082 27.632219 
L 270.484614 27.530886 
L 269.084162 27.441588 
L 267.683693 27.364381 
L 266.283241 27.299314 
L 264.882772 27.246429 
L 263.482304 27.205755 
L 262.081851 27.177317 
L 260.681383 27.161128 
L 259.280922 27.157189 
L 257.880462 27.165498 
L 256.480002 27.186038 
L 255.079533 27.218784 
L 253.679073 27.263702 
L 252.278612 27.320751 
L 250.878152 27.389875 
L 249.477683 27.471013 
L 248.077223 27.564093 
L 246.676763 27.669033 
L 245.276302 27.785745 
L 243.875834 27.914128 
L 242.475373 28.054076 
L 241.074913 28.205468 
L 240.635358 28.256566 
L 239.674453 28.377824 
L 238.273992 28.5667 
L 236.873524 28.767517 
L 235.473063 28.980098 
L 234.072603 29.204262 
L 232.752158 29.42638 
L 232.672143 29.441032 
L 231.271674 29.710023 
L 229.871214 29.990862 
L 228.470753 30.283298 
L 227.070293 30.587075 
L 227.029917 30.596176 
L 225.669824 30.93082 
L 224.269364 31.287026 
L 222.868904 31.654506 
L 222.457325 31.76599 
L 221.468443 32.05948 
L 220.067975 32.486905 
L 218.667514 32.925231 
L 218.634663 32.935805 
L 217.267054 33.420025 
L 215.866593 33.926548 
L 215.382893 34.1056 
L 214.466133 34.480845 
L 213.065664 35.065194 
L 212.571776 35.275415 
L 211.665204 35.704562 
L 210.264744 36.377897 
L 210.127275 36.445229 
L 208.864283 37.137716 
L 208.00486 37.615043 
L 207.463815 37.95444 
L 206.155632 38.784839 
L 206.063354 38.851713 
L 204.662894 39.878606 
L 204.560313 39.954654 
L 203.262434 41.065304 
L 203.193937 41.124468 
L 202.041933 42.294282 
L 201.861965 42.514282 
L 201.091319 43.464078 
L 200.461505 44.426444 
L 200.326736 44.633893 
L 199.7504 45.803707 
L 199.348283 46.973503 
L 199.120101 48.143317 
L 199.065751 49.313131 
L 199.185263 50.482936 
L 199.478851 51.652742 
L 199.946915 52.822556 
z
" clip-path="url(#pced190b524)" style="fill: none; stroke: #486afb; stroke-width: 2"/>
    <path d="M 53.256734 202.55811 
L 53.41296 202.840267 
L 53.910521 203.72792 
L 54.715871 204.897727 
L 54.813425 205.016198 
L 55.689715 206.067537 
L 56.213885 206.608253 
L 56.831254 207.237346 
L 57.61435 207.934315 
L 58.152251 208.407156 
L 59.01481 209.077705 
L 59.665146 209.576963 
L 60.415275 210.091394 
L 61.383168 210.746773 
L 61.815735 211.010617 
L 63.216199 211.85325 
L 63.323208 211.916583 
L 64.61666 212.610426 
L 65.516086 213.08639 
L 66.017124 213.328181 
L 67.417585 213.992595 
L 67.982925 214.2562 
L 68.818049 214.612951 
L 70.218509 215.20085 
L 70.765547 215.42601 
L 71.61897 215.749155 
L 73.019434 216.269069 
L 73.917705 216.595819 
L 74.419899 216.764492 
L 75.820359 217.223843 
L 77.22082 217.673746 
L 77.514494 217.765627 
L 78.621284 218.086285 
L 80.021749 218.482101 
L 81.422209 218.868224 
L 81.673487 218.935437 
L 82.822669 219.220851 
L 84.223134 219.558805 
L 85.623594 219.887002 
L 86.585367 220.105246 
L 87.024059 220.197909 
L 88.424519 220.483316 
L 89.824983 220.759041 
L 91.225444 221.024928 
L 92.594446 221.275054 
L 92.625908 221.280415 
L 94.026369 221.508705 
L 95.426833 221.727368 
L 96.827293 221.936285 
L 98.227754 222.13534 
L 99.628218 222.324423 
L 100.571465 222.444863 
L 101.028679 222.499399 
L 102.429143 222.65659 
L 103.829604 222.804178 
L 105.230068 222.942086 
L 106.630528 223.070239 
L 108.030993 223.188572 
L 109.431453 223.297021 
L 110.831918 223.395529 
L 112.232378 223.484045 
L 113.632843 223.562524 
L 114.701037 223.614673 
L 115.033303 223.62984 
L 116.433767 223.684231 
L 117.834228 223.729158 
L 119.234688 223.764599 
L 120.635153 223.790543 
L 122.035617 223.806981 
L 123.436078 223.813913 
L 124.836538 223.81134 
L 126.236998 223.799273 
L 127.637467 223.777726 
L 129.037927 223.74672 
L 130.438388 223.706279 
L 131.838848 223.656436 
L 132.826828 223.614673 
L 133.239317 223.595979 
L 134.639777 223.522537 
L 136.040237 223.439164 
L 137.440698 223.345917 
L 138.841166 223.242865 
L 140.241627 223.130081 
L 141.642087 223.007643 
L 143.042547 222.875634 
L 144.443008 222.734147 
L 145.843476 222.583276 
L 147.053687 222.444863 
L 147.243937 222.42151 
L 148.644397 222.239654 
L 150.044857 222.04811 
L 151.445326 221.84701 
L 152.845786 221.636498 
L 154.246247 221.416714 
L 155.112391 221.275054 
L 155.646707 221.181123 
L 157.047176 220.925084 
L 158.447636 220.659661 
L 159.848096 220.385042 
L 161.229595 220.105246 
L 161.248557 220.101111 
L 162.649025 219.785511 
L 164.049486 219.460774 
L 165.449946 219.127133 
L 166.23315 218.935437 
L 166.850407 218.772421 
L 168.250867 218.392959 
L 169.651336 218.004876 
L 170.495277 217.765627 
L 171.051796 217.594992 
L 172.452256 217.156092 
L 173.852717 216.709087 
L 174.200327 216.595819 
L 175.253185 216.223866 
L 176.653646 215.720829 
L 177.460907 215.42601 
L 178.054106 215.190385 
L 179.454566 214.625278 
L 180.356814 214.2562 
L 180.855035 214.033777 
L 182.255495 213.39994 
L 182.939954 213.08639 
L 183.655956 212.727094 
L 185.056416 212.017253 
L 185.2526 211.916583 
L 186.456876 211.236906 
L 187.318715 210.746773 
L 187.857345 210.407958 
L 189.169324 209.576963 
L 189.257805 209.514571 
L 190.658266 208.51956 
L 190.815446 208.407156 
L 192.058734 207.411478 
L 192.275051 207.237346 
L 193.459195 206.160608 
L 193.561086 206.067537 
L 194.680599 204.897727 
L 194.859655 204.680459 
L 195.641746 203.72792 
L 196.260124 202.83955 
L 196.45541 202.55811 
L 197.120412 201.3883 
L 197.648171 200.218493 
L 197.660584 200.180789 
L 198.032489 199.048683 
L 198.282429 197.878873 
L 198.398432 196.709064 
L 198.380659 195.539254 
L 198.229187 194.369444 
L 197.944005 193.199639 
L 197.660584 192.40404 
L 197.522599 192.029829 
L 196.959734 190.86002 
L 196.260124 189.690234 
L 196.260109 189.69021 
L 195.408023 188.5204 
L 194.859655 187.868853 
L 194.407276 187.35059 
L 193.459195 186.38708 
L 193.248508 186.180781 
L 192.058734 185.128027 
L 191.921324 185.010976 
L 190.658266 184.02459 
L 190.414083 183.841166 
L 189.257805 183.035593 
L 188.713763 182.671356 
L 187.857345 182.134481 
L 186.805616 181.501546 
L 186.456876 181.303458 
L 185.056416 180.537813 
L 184.664479 180.331737 
L 183.655956 179.82739 
L 182.265729 179.161927 
L 182.255495 179.157241 
L 180.855035 178.53782 
L 179.563481 177.992117 
L 179.454566 177.947848 
L 178.054106 177.398685 
L 176.653646 176.874374 
L 176.509299 176.822312 
L 175.253185 176.384149 
L 173.852717 175.917308 
L 173.023493 175.652502 
L 172.452256 175.475334 
L 171.051796 175.058598 
L 169.651336 174.661208 
L 168.994214 174.482693 
L 168.250867 174.285777 
L 166.850407 173.930999 
L 165.449946 173.593385 
L 164.227325 173.312883 
L 164.049486 173.272958 
L 162.649025 172.972267 
L 161.248557 172.687031 
L 159.848096 172.416837 
L 158.447636 172.161292 
L 158.342568 172.143073 
L 157.047176 171.922514 
L 155.646707 171.69772 
L 154.246247 171.486392 
L 152.845786 171.288233 
L 151.445326 171.102964 
L 150.394779 170.973264 
L 150.044857 170.930719 
L 148.644397 170.771939 
L 147.243937 170.625225 
L 145.843476 170.490371 
L 144.443008 170.367185 
L 143.042547 170.255484 
L 141.642087 170.15511 
L 140.241627 170.065902 
L 138.841166 169.987731 
L 137.440698 169.920457 
L 136.040237 169.863972 
L 134.639777 169.818166 
L 134.056367 169.803454 
L 133.239317 169.783102 
L 131.838848 169.758577 
L 130.438388 169.7444 
L 129.037927 169.740499 
L 127.637467 169.746819 
L 126.236998 169.763313 
L 124.836538 169.789937 
L 124.322357 169.803454 
L 123.436078 169.826861 
L 122.035617 169.874065 
L 120.635153 169.931427 
L 119.234688 169.998945 
L 117.834228 170.076619 
L 116.433767 170.164463 
L 115.033303 170.262496 
L 113.632843 170.370747 
L 112.232378 170.48925 
L 110.831918 170.618045 
L 109.431453 170.757187 
L 108.030993 170.906729 
L 107.449439 170.973264 
L 106.630528 171.067833 
L 105.230068 171.240411 
L 103.829604 171.423784 
L 102.429143 171.618042 
L 101.028679 171.823291 
L 99.628218 172.039635 
L 98.992166 172.143073 
L 98.227754 172.269 
L 96.827293 172.511429 
L 95.426833 172.765577 
L 94.026369 173.031601 
L 92.625908 173.309656 
L 92.610354 173.312883 
L 91.225444 173.604932 
L 89.824983 173.912963 
L 88.424519 174.233901 
L 87.381588 174.482693 
L 87.024059 174.569688 
L 85.623594 174.924227 
L 84.223134 175.292763 
L 82.906978 175.652502 
L 82.822669 175.676092 
L 81.422209 176.082833 
L 80.021749 176.504925 
L 79.006172 176.822312 
L 78.621284 176.945941 
L 77.22082 177.412112 
L 75.820359 177.895343 
L 75.54936 177.992117 
L 74.419899 178.408512 
L 73.019434 178.943387 
L 72.466404 179.161927 
L 71.61897 179.509227 
L 70.218509 180.103445 
L 69.698295 180.331737 
L 68.818049 180.734424 
L 67.417585 181.397752 
L 67.20552 181.501546 
L 66.017124 182.111479 
L 64.9636 182.671356 
L 64.61666 182.865882 
L 63.216199 183.678196 
L 62.944427 183.841166 
L 61.815735 184.560947 
L 61.133921 185.010976 
L 60.415275 185.519735 
L 59.513098 186.180781 
L 59.01481 186.5764 
L 58.072664 187.35059 
L 57.61435 187.763814 
L 56.803522 188.5204 
L 56.213885 189.133658 
L 55.696794 189.69021 
L 54.813425 190.771873 
L 54.743856 190.86002 
L 53.949364 192.029829 
L 53.41296 192.985564 
L 53.296869 193.199639 
L 52.795213 194.369444 
L 52.433153 195.539254 
L 52.21218 196.709064 
L 52.133507 197.878873 
L 52.198071 199.048683 
L 52.406552 200.218493 
L 52.759371 201.3883 
L 53.256734 202.55811 
z
M 184.772995 53.992361 
L 185.056416 54.787963 
L 185.194397 55.162166 
L 185.757266 56.33198 
L 186.456876 57.501753 
L 186.456902 57.501795 
L 187.308977 58.6716 
L 187.857345 59.323147 
L 188.309719 59.841405 
L 189.257805 60.804921 
L 189.468492 61.011219 
L 190.658266 62.063973 
L 190.795676 62.181024 
L 192.058734 63.167412 
L 192.302908 63.35083 
L 193.459195 64.156407 
L 194.003237 64.520644 
L 194.859655 65.057517 
L 195.911395 65.690458 
L 196.260124 65.888541 
L 197.660584 66.654187 
L 198.052521 66.860263 
L 199.061044 67.364609 
L 200.451256 68.030068 
L 200.461505 68.034761 
L 201.861965 68.65418 
L 203.153519 69.199883 
L 203.262434 69.244152 
L 204.662894 69.793315 
L 206.063354 70.317626 
L 206.207701 70.369688 
L 207.463815 70.807852 
L 208.864283 71.274693 
L 209.693487 71.539493 
L 210.264744 71.716667 
L 211.665204 72.133402 
L 213.065664 72.530791 
L 213.722786 72.709307 
L 214.466133 72.906222 
L 215.866593 73.261 
L 217.267054 73.598615 
L 218.489707 73.879122 
L 218.667514 73.919039 
L 220.067975 74.219732 
L 221.468443 74.504969 
L 222.868904 74.775163 
L 224.269364 75.030708 
L 224.374432 75.048927 
L 225.669824 75.269486 
L 227.070293 75.49428 
L 228.470753 75.705609 
L 229.871214 75.903767 
L 231.271674 76.089035 
L 232.322181 76.218732 
L 232.672143 76.261282 
L 234.072603 76.420061 
L 235.473063 76.566776 
L 236.873524 76.701629 
L 238.273992 76.824816 
L 239.674453 76.936515 
L 241.074913 77.036891 
L 242.475373 77.126097 
L 243.875834 77.20427 
L 245.276302 77.271543 
L 246.676763 77.328028 
L 248.077223 77.373834 
L 248.660633 77.388546 
L 249.477683 77.408898 
L 250.878152 77.433423 
L 252.278612 77.4476 
L 253.679073 77.451501 
L 255.079533 77.445181 
L 256.480002 77.428687 
L 257.880462 77.402063 
L 258.394643 77.388546 
L 259.280922 77.365139 
L 260.681383 77.317935 
L 262.081851 77.260572 
L 263.482304 77.193054 
L 264.882772 77.115381 
L 266.283241 77.027537 
L 267.683693 76.929504 
L 269.084162 76.821253 
L 270.484614 76.70275 
L 271.885082 76.573954 
L 273.285551 76.434812 
L 274.686003 76.285273 
L 275.267607 76.218732 
L 276.086472 76.124167 
L 277.486924 75.951589 
L 278.887392 75.768216 
L 280.287861 75.573956 
L 281.68833 75.368708 
L 283.088782 75.152365 
L 283.724836 75.048927 
L 284.48925 74.923 
L 285.889702 74.680571 
L 287.290171 74.426421 
L 288.69064 74.160397 
L 290.091092 73.882343 
L 290.106624 73.879122 
L 291.49156 73.587068 
L 292.892012 73.279037 
L 294.292481 72.958099 
L 295.335413 72.709307 
L 295.69295 72.62231 
L 297.093402 72.267773 
L 298.49387 71.899239 
L 299.810038 71.539493 
L 299.894322 71.51591 
L 301.294791 71.109167 
L 302.69526 70.687072 
L 303.710825 70.369688 
L 304.095712 70.246059 
L 305.49618 69.779888 
L 306.896633 69.296659 
L 307.167637 69.199883 
L 308.297101 68.783488 
L 309.69757 68.248612 
L 310.250611 68.030068 
L 311.098022 67.68278 
L 312.498491 67.088555 
L 313.018706 66.860263 
L 313.898959 66.457572 
L 315.299411 65.794247 
L 315.511465 65.690458 
L 316.69988 65.080518 
L 317.753402 64.520644 
L 318.100332 64.326124 
L 319.500801 63.513805 
L 319.772585 63.35083 
L 320.901269 62.631052 
L 321.583077 62.181024 
L 322.301721 61.672266 
L 323.203902 61.011219 
L 323.70219 60.615601 
L 324.644344 59.841405 
L 325.102659 59.42818 
L 325.913475 58.6716 
L 326.503111 58.058341 
L 327.020196 57.501795 
L 327.903579 56.42012 
L 327.973143 56.33198 
L 328.76764 55.162166 
L 329.304031 54.206447 
L 329.420128 53.992361 
L 329.921784 52.822556 
L 330.283851 51.652742 
L 330.50482 50.482936 
L 330.583493 49.313131 
L 330.518929 48.143317 
L 330.310447 46.973503 
L 329.957627 45.803707 
L 329.460263 44.633893 
L 329.304031 44.351725 
L 328.806478 43.464078 
L 328.001133 42.294282 
L 327.903579 42.175811 
L 327.027287 41.124468 
L 326.503111 40.583745 
L 325.885745 39.954654 
L 325.102659 39.257692 
L 324.564744 38.784839 
L 323.70219 38.114295 
L 323.051862 37.615043 
L 322.301721 37.100605 
L 321.333835 36.445229 
L 320.901269 36.181385 
L 319.500801 35.338751 
L 319.393786 35.275415 
L 318.100332 34.581569 
L 317.200899 34.1056 
L 316.69988 33.863819 
L 315.299411 33.199403 
L 314.734086 32.935805 
L 313.898959 32.579053 
L 312.498491 31.99115 
L 311.951452 31.76599 
L 311.098022 31.442842 
L 309.69757 30.922932 
L 308.799284 30.596176 
L 308.297101 30.427506 
L 306.896633 29.968155 
L 305.49618 29.518255 
L 305.202523 29.42638 
L 304.095712 29.105715 
L 302.69526 28.709902 
L 301.294791 28.323776 
L 301.043523 28.256566 
L 299.894322 27.971148 
L 298.49387 27.633196 
L 297.093402 27.304996 
L 296.131628 27.086751 
L 295.69295 26.994092 
L 294.292481 26.708684 
L 292.892012 26.432958 
L 291.49156 26.167073 
L 290.122498 25.916937 
L 290.091092 25.911585 
L 288.69064 25.683297 
L 287.290171 25.464633 
L 285.889702 25.255715 
L 284.48925 25.056662 
L 283.088782 24.867579 
L 282.145557 24.747141 
L 281.68833 24.692604 
L 280.287861 24.535412 
L 278.887392 24.387823 
L 277.486924 24.249915 
L 276.086472 24.121762 
L 274.686003 24.003428 
L 273.285551 23.89498 
L 271.885082 23.796472 
L 270.484614 23.707954 
L 269.084162 23.629476 
L 268.015961 23.577327 
L 267.683693 23.56216 
L 266.283241 23.507769 
L 264.882772 23.462842 
L 263.482304 23.427401 
L 262.081851 23.401457 
L 260.681383 23.385019 
L 259.280922 23.378087 
L 257.880462 23.38066 
L 256.480002 23.392727 
L 255.079533 23.414274 
L 253.679073 23.44528 
L 252.278612 23.485721 
L 250.878152 23.535564 
L 249.890172 23.577327 
L 249.477683 23.596021 
L 248.077223 23.669464 
L 246.676763 23.752837 
L 245.276302 23.846084 
L 243.875834 23.949135 
L 242.475373 24.06192 
L 241.074913 24.184358 
L 239.674453 24.316367 
L 238.273992 24.457854 
L 236.873524 24.608726 
L 235.663291 24.747141 
L 235.473063 24.770491 
L 234.072603 24.952347 
L 232.672143 25.143891 
L 231.271674 25.344991 
L 229.871214 25.555503 
L 228.470753 25.775286 
L 227.604664 25.916937 
L 227.070293 26.010877 
L 225.669824 26.266916 
L 224.269364 26.532339 
L 222.868904 26.806958 
L 221.48741 27.086751 
L 221.468443 27.090888 
L 220.067975 27.406489 
L 218.667514 27.731225 
L 217.267054 28.064867 
L 216.483844 28.256566 
L 215.866593 28.419581 
L 214.466133 28.799041 
L 213.065664 29.187125 
L 212.221703 29.42638 
L 211.665204 29.597008 
L 210.264744 30.035908 
L 208.864283 30.482912 
L 208.516684 30.596176 
L 207.463815 30.968133 
L 206.063354 31.471171 
L 205.256093 31.76599 
L 204.662894 32.001615 
L 203.262434 32.566722 
L 202.360176 32.935805 
L 201.861965 33.158223 
L 200.461505 33.792058 
L 199.777061 34.1056 
L 199.061044 34.464904 
L 197.660584 35.174748 
L 197.464407 35.275415 
L 196.260124 35.955095 
L 195.39828 36.445229 
L 194.859655 36.784042 
L 193.547669 37.615043 
L 193.459195 37.677431 
L 192.058734 38.672436 
L 191.901555 38.784839 
L 190.658266 39.780522 
L 190.441949 39.954654 
L 189.257805 41.031396 
L 189.155914 41.124468 
L 188.036398 42.294282 
L 187.857345 42.511546 
L 187.075257 43.464078 
L 186.456876 44.352452 
L 186.26159 44.633893 
L 185.596588 45.803707 
L 185.068829 46.973503 
L 185.056416 47.011206 
L 184.684511 48.143317 
L 184.434571 49.313131 
L 184.318568 50.482936 
L 184.336338 51.652742 
L 184.487813 52.822556 
L 184.772995 53.992361 
z
" clip-path="url(#pced190b524)" style="fill: none; stroke: #486afb; stroke-width: 2"/>
    <path d="M 52.0125 211.444638 
L 54.649806 213.08639 
L 57.61435 214.662191 
L 60.415275 215.980711 
L 64.61666 217.716041 
L 68.023383 218.935437 
L 73.019434 220.481579 
L 78.621284 221.949905 
L 84.223134 223.178497 
L 89.824983 224.198412 
L 95.426833 225.037789 
L 102.429143 225.852564 
L 108.030993 226.323448 
L 115.033303 226.714588 
L 122.035617 226.891344 
L 129.037927 226.852331 
L 136.040237 226.59894 
L 143.042547 226.135371 
L 148.644397 225.595705 
L 155.646707 224.715322 
L 162.649025 223.569601 
L 169.651336 222.123778 
L 175.253185 220.72679 
L 180.855035 219.081786 
L 185.056416 217.643399 
L 189.257805 215.985944 
L 193.105399 214.2562 
L 196.260124 212.607505 
L 199.393331 210.746773 
L 202.682542 208.407156 
L 205.358548 206.067537 
L 207.484776 203.72792 
L 209.098348 201.3883 
L 210.23697 199.048683 
L 210.915447 196.709064 
L 211.153234 194.369444 
L 210.953182 192.029829 
L 210.317097 189.69021 
L 209.829217 188.5204 
L 208.515098 186.180781 
L 206.724416 183.841166 
L 204.662894 181.722249 
L 203.072518 180.331737 
L 199.909941 177.992117 
L 197.660584 176.569056 
L 193.852669 174.482693 
L 190.658266 172.976385 
L 186.456876 171.255871 
L 182.255495 169.776582 
L 178.054106 168.499662 
L 172.452256 167.062212 
L 166.850407 165.885927 
L 161.248557 164.938513 
L 155.646707 164.196112 
L 148.644397 163.529368 
L 141.642087 163.129601 
L 134.639777 162.97814 
L 127.637467 163.06219 
L 120.635153 163.374277 
L 113.186789 163.95441 
L 106.630528 164.676194 
L 99.628218 165.675873 
L 92.625908 166.925332 
L 87.024059 168.120716 
L 81.422209 169.509544 
L 75.820359 171.118884 
L 70.218509 172.990522 
L 66.017124 174.59954 
L 61.815735 176.433103 
L 58.653285 177.992117 
L 54.813425 180.166352 
L 52.747707 181.501546 
L 52.0125 182.017083 
M 330.7045 35.747362 
L 328.067181 34.1056 
L 325.102659 32.529814 
L 322.301721 31.211287 
L 318.100332 29.475955 
L 314.693623 28.256566 
L 309.69757 26.710422 
L 304.095712 25.242096 
L 298.49387 24.013504 
L 292.892012 22.993587 
L 287.290171 22.154211 
L 280.287861 21.339435 
L 274.686003 20.86855 
L 267.683693 20.477412 
L 260.681383 20.300656 
L 253.679073 20.339669 
L 246.676763 20.593059 
L 239.674453 21.056628 
L 234.072603 21.596294 
L 227.070293 22.47668 
L 220.067975 23.622399 
L 213.065664 25.068223 
L 207.463815 26.46521 
L 201.861965 28.110215 
L 197.660584 29.548601 
L 193.459195 31.206056 
L 189.611595 32.935805 
L 186.456876 34.584493 
L 183.323667 36.445229 
L 180.03446 38.784839 
L 177.358452 41.124468 
L 175.232227 43.464078 
L 173.618652 45.803707 
L 172.48003 48.143317 
L 171.801553 50.482936 
L 171.563766 52.822556 
L 171.763813 55.162166 
L 172.399909 57.501795 
L 172.887783 58.6716 
L 174.201902 61.011219 
L 175.992575 63.35083 
L 178.054106 65.469749 
L 179.644482 66.860263 
L 182.807059 69.199883 
L 185.056416 70.622945 
L 188.864331 72.709307 
L 192.058734 74.215615 
L 196.260124 75.936129 
L 200.461505 77.415418 
L 204.662894 78.692338 
L 210.264744 80.129791 
L 215.866593 81.306072 
L 221.468443 82.253486 
L 227.070293 82.995888 
L 234.072603 83.662634 
L 241.074913 84.0624 
L 248.077223 84.213862 
L 255.079533 84.129811 
L 262.081851 83.817723 
L 269.530211 83.23759 
L 276.086472 82.515807 
L 283.088782 81.516126 
L 290.091092 80.26667 
L 295.69295 79.071282 
L 301.294791 77.682456 
L 306.896633 76.07312 
L 312.498491 74.201478 
L 316.69988 72.59246 
L 320.901269 70.758895 
L 324.063714 69.199883 
L 327.903579 67.025646 
L 329.969283 65.690458 
L 330.7045 65.174917 
L 330.7045 65.174917 
" clip-path="url(#pced190b524)" style="fill: none; stroke: #486afb; stroke-width: 2"/>
    <path d="M 52.0125 216.615767 
L 56.213885 218.452927 
L 60.524215 220.105246 
L 66.017124 221.895218 
L 71.61897 223.460497 
L 75.820359 224.473365 
L 81.422209 225.649284 
L 87.024059 226.641164 
L 94.026369 227.653807 
L 101.028679 228.439734 
L 108.030993 229.002268 
L 115.033303 229.372432 
L 122.035617 229.542203 
L 129.037927 229.520997 
L 136.040237 229.306119 
L 143.042547 228.895388 
L 150.083829 228.29391 
L 158.447636 227.287912 
L 164.049486 226.431699 
L 169.651336 225.421419 
L 175.253185 224.237816 
L 180.855035 222.860786 
L 186.456876 221.269414 
L 192.058734 219.396489 
L 196.347331 217.765627 
L 201.861965 215.307722 
L 206.092635 213.08639 
L 209.874709 210.746773 
L 213.068849 208.407156 
L 215.866593 205.931499 
L 217.917354 203.72792 
L 219.661038 201.3883 
L 220.988543 199.048683 
L 221.921129 196.709064 
L 222.473385 194.369444 
L 222.655752 192.029829 
L 222.471895 189.69021 
L 221.925243 187.35059 
L 221.012641 185.010976 
L 219.726761 182.671356 
L 218.053294 180.331737 
L 215.866593 177.882251 
L 213.46014 175.652502 
L 211.665204 174.202587 
L 208.779341 172.143073 
L 204.952574 169.803454 
L 201.861965 168.158308 
L 197.660584 166.197787 
L 193.459195 164.498204 
L 188.536813 162.7846 
L 183.655956 161.331708 
L 178.054106 159.932416 
L 172.452256 158.784435 
L 166.850407 157.861366 
L 161.248557 157.141482 
L 154.246247 156.501426 
L 147.243937 156.127506 
L 140.241627 155.998063 
L 133.239317 156.095925 
L 126.236998 156.409623 
L 119.200248 156.935552 
L 112.232378 157.656308 
L 105.230068 158.584694 
L 98.227754 159.721072 
L 91.225444 161.075552 
L 84.223134 162.665112 
L 77.22082 164.517375 
L 71.371993 166.294029 
L 66.017124 168.136771 
L 61.68684 169.803454 
L 56.3176 172.143073 
L 53.41296 173.564945 
L 52.0125 174.29575 
M 330.7045 30.57623 
L 326.503111 28.739072 
L 322.192782 27.086751 
L 316.69988 25.296784 
L 311.098022 23.731502 
L 306.896633 22.718634 
L 301.294791 21.542714 
L 295.69295 20.550838 
L 288.69064 19.538194 
L 281.68833 18.752266 
L 274.686003 18.18973 
L 267.683693 17.819568 
L 260.681383 17.649795 
L 253.679073 17.671001 
L 246.676763 17.885881 
L 239.674453 18.296612 
L 232.633195 18.898088 
L 224.269364 19.904088 
L 218.667514 20.7603 
L 213.065664 21.77058 
L 207.463815 22.954183 
L 201.861965 24.331215 
L 196.260124 25.922586 
L 190.658266 27.795509 
L 186.369659 29.42638 
L 180.855035 31.884278 
L 176.624374 34.1056 
L 172.842291 36.445229 
L 169.648156 38.784839 
L 166.850407 41.260506 
L 164.799651 43.464078 
L 163.055962 45.803707 
L 161.728457 48.143317 
L 160.795871 50.482936 
L 160.243615 52.822556 
L 160.061243 55.162166 
L 160.245105 57.501795 
L 160.791751 59.841405 
L 161.704359 62.181024 
L 162.990239 64.520644 
L 164.663706 66.860263 
L 166.850407 69.309749 
L 169.25685 71.539493 
L 171.051796 72.989413 
L 173.937659 75.048927 
L 177.764426 77.388546 
L 180.855035 79.033694 
L 185.056416 80.994213 
L 189.257805 82.693796 
L 194.180152 84.407395 
L 199.061044 85.860292 
L 204.662894 87.259584 
L 210.264744 88.407565 
L 215.866593 89.330634 
L 221.468443 90.050518 
L 228.470753 90.690574 
L 235.473063 91.064494 
L 242.475373 91.193937 
L 249.477683 91.096075 
L 256.480002 90.782377 
L 263.516744 90.256448 
L 270.484614 89.535692 
L 277.486924 88.607306 
L 284.48925 87.470927 
L 291.49156 86.116448 
L 298.49387 84.526888 
L 305.49618 82.674625 
L 311.345015 80.897971 
L 316.69988 79.055228 
L 321.030163 77.388546 
L 326.399402 75.048927 
L 329.304031 73.627059 
L 330.7045 72.896249 
L 330.7045 72.896249 
" clip-path="url(#pced190b524)" style="fill: none; stroke: #486afb; stroke-width: 2"/>
    <path d="M 52.0125 220.397949 
L 57.677473 222.444863 
L 63.216199 224.143594 
L 68.818049 225.634963 
L 74.419899 226.921957 
L 80.021749 228.026308 
L 85.623594 228.968361 
L 92.625908 229.942918 
L 99.628218 230.71268 
L 108.030993 231.365895 
L 116.433767 231.764874 
L 123.436078 231.894666 
L 131.838848 231.822522 
L 138.841166 231.563422 
L 147.243937 231.020453 
L 154.246247 230.367842 
L 162.649025 229.327395 
L 169.651336 228.229102 
L 176.653646 226.894924 
L 183.655956 225.3033 
L 190.011181 223.614673 
L 196.260124 221.662036 
L 200.661399 220.105246 
L 206.411314 217.765627 
L 211.665204 215.256259 
L 215.866593 212.919465 
L 219.257724 210.746773 
L 222.404501 208.407156 
L 225.08561 206.067537 
L 227.342542 203.72792 
L 229.203946 201.3883 
L 230.697154 199.048683 
L 231.840797 196.709064 
L 232.672143 194.287601 
L 233.138263 192.029829 
L 233.312926 189.69021 
L 233.181694 187.35059 
L 232.672143 184.729625 
L 232.0138 182.671356 
L 230.979007 180.331737 
L 229.638655 177.992117 
L 227.98531 175.652502 
L 225.669824 172.946221 
L 223.69652 170.973264 
L 221.022272 168.633649 
L 217.95427 166.294029 
L 214.466133 163.964454 
L 211.665204 162.296824 
L 207.463815 160.072135 
L 203.210432 158.105366 
L 199.061044 156.416407 
L 193.86827 154.595941 
L 190.014264 153.426127 
L 185.580329 152.256322 
L 180.855035 151.198642 
L 175.253185 150.181176 
L 169.651336 149.396935 
L 164.049486 148.829219 
L 157.047176 148.384966 
L 150.044857 148.214264 
L 143.042547 148.288668 
L 136.040237 148.586263 
L 129.037927 149.085461 
L 120.826684 149.916702 
L 115.033303 150.64895 
L 106.630528 151.930736 
L 98.227754 153.469547 
L 91.225444 154.953493 
L 84.223134 156.635687 
L 77.22082 158.534376 
L 70.218509 160.678157 
L 64.103512 162.7846 
L 59.01481 164.732728 
L 53.41296 167.128814 
L 52.0125 167.776151 
M 330.7045 26.794053 
L 325.039535 24.747141 
L 319.500801 23.048406 
L 313.898959 21.557038 
L 308.297101 20.270042 
L 302.69526 19.165694 
L 297.093402 18.223637 
L 290.091092 17.249081 
L 283.088782 16.47932 
L 274.686003 15.826104 
L 266.283241 15.427126 
L 259.280922 15.297333 
L 250.878152 15.369478 
L 243.875834 15.628578 
L 235.473063 16.171547 
L 228.470753 16.824158 
L 220.067975 17.864605 
L 213.065664 18.962898 
L 206.063354 20.297076 
L 199.061044 21.888699 
L 192.705819 23.577327 
L 186.456876 25.529965 
L 182.055609 27.086751 
L 176.305677 29.42638 
L 171.051796 31.935741 
L 166.850407 34.272529 
L 163.459274 36.445229 
L 160.312499 38.784839 
L 157.631383 41.124468 
L 155.374458 43.464078 
L 153.513054 45.803707 
L 152.019846 48.143317 
L 150.876203 50.482936 
L 150.044857 52.904399 
L 149.578732 55.162166 
L 149.404074 57.501795 
L 149.535301 59.841405 
L 150.044857 62.462378 
L 150.7032 64.520644 
L 151.737993 66.860263 
L 153.078345 69.199883 
L 154.731683 71.539493 
L 157.047176 74.245772 
L 159.020472 76.218732 
L 161.694728 78.558351 
L 164.76273 80.897971 
L 168.250867 83.227546 
L 171.051796 84.895184 
L 175.253185 87.119865 
L 179.506568 89.086634 
L 183.655956 90.775593 
L 188.84873 92.596059 
L 192.702736 93.765873 
L 197.136671 94.935678 
L 201.861965 95.993358 
L 207.463815 97.010824 
L 213.065664 97.795065 
L 218.667514 98.362781 
L 225.669824 98.807034 
L 232.672143 98.977736 
L 239.674453 98.903332 
L 246.676763 98.605737 
L 253.679073 98.106539 
L 261.89032 97.275298 
L 267.683693 96.543052 
L 276.086472 95.261264 
L 284.48925 93.722453 
L 291.49156 92.238507 
L 298.49387 90.55631 
L 305.49618 88.657624 
L 312.498491 86.513843 
L 318.613508 84.407395 
L 323.70219 82.459271 
L 329.304031 80.06319 
L 330.7045 79.415853 
L 330.7045 79.415853 
" clip-path="url(#pced190b524)" style="fill: none; stroke: #486afb; stroke-width: 2"/>
    <path d="M 52.0125 223.49631 
L 56.213885 224.856737 
L 63.216199 226.823922 
L 68.818049 228.1782 
L 74.974438 229.463717 
L 82.822669 230.826824 
L 91.225444 231.990705 
L 99.628218 232.875683 
L 106.630528 233.407443 
L 115.033303 233.82536 
L 123.436078 234.005599 
L 131.838848 233.946959 
L 140.241627 233.651491 
L 148.644397 233.124522 
L 155.646707 232.489955 
L 164.049486 231.497695 
L 172.452256 230.226174 
L 179.454566 228.936268 
L 186.456876 227.416688 
L 192.299434 225.954293 
L 199.061044 223.989933 
L 203.771913 222.444863 
L 210.264744 220.00181 
L 215.866593 217.549107 
L 220.120194 215.42601 
L 224.269364 213.062175 
L 227.82075 210.746773 
L 231.271674 208.140179 
L 234.072603 205.670345 
L 235.99006 203.72792 
L 237.962826 201.3883 
L 239.674453 198.929499 
L 241.074913 196.396964 
L 241.955277 194.369444 
L 242.699035 192.029829 
L 243.167289 189.69021 
L 243.372352 187.35059 
L 243.320705 185.010976 
L 243.019208 182.671356 
L 242.475206 180.331737 
L 241.686651 177.992117 
L 240.663493 175.652502 
L 239.405512 173.312883 
L 237.912715 170.973264 
L 236.18535 168.633649 
L 234.072603 166.123938 
L 231.271674 163.211607 
L 228.249222 160.444985 
L 225.407176 158.105366 
L 221.468443 155.186906 
L 216.988407 152.256322 
L 212.980305 149.916702 
L 208.864283 147.763872 
L 204.662894 145.813488 
L 200.339547 144.067659 
L 196.260124 142.631603 
L 192.058734 141.380529 
L 187.857345 140.351045 
L 183.655956 139.528718 
L 178.054106 138.725476 
L 173.852717 138.335785 
L 168.250867 138.047185 
L 162.649025 137.995201 
L 157.047176 138.146395 
L 150.044857 138.562499 
L 143.042547 139.200495 
L 134.639777 140.200532 
L 126.236998 141.425503 
L 116.433767 143.106974 
L 108.030993 144.752154 
L 98.227754 146.915142 
L 89.824983 148.990011 
L 81.422209 151.28959 
L 74.342289 153.426127 
L 67.281815 155.765746 
L 60.415275 158.278086 
L 54.813425 160.536944 
L 52.0125 161.74966 
M 330.7045 23.69569 
L 326.503111 22.335263 
L 319.500801 20.368079 
L 313.898959 19.013802 
L 307.742521 17.728274 
L 299.894322 16.365175 
L 291.49156 15.201295 
L 283.088782 14.316316 
L 276.086472 13.784556 
L 267.683693 13.36664 
L 259.280922 13.186401 
L 250.878152 13.245041 
L 242.475373 13.540508 
L 234.072603 14.067476 
L 227.070293 14.702044 
L 218.667514 15.694305 
L 210.264744 16.965826 
L 203.262434 18.255731 
L 196.260124 19.775313 
L 190.417525 21.237717 
L 183.655956 23.202067 
L 178.945083 24.747141 
L 172.452256 27.190188 
L 166.850407 29.642893 
L 162.596806 31.76599 
L 158.447636 34.12982 
L 154.89625 36.445229 
L 151.445326 39.051817 
L 148.644397 41.521658 
L 146.72694 43.464078 
L 144.754174 45.803707 
L 143.042547 48.262502 
L 141.642087 50.795032 
L 140.761723 52.822556 
L 140.017961 55.162166 
L 139.549711 57.501795 
L 139.344643 59.841405 
L 139.396295 62.181024 
L 139.697792 64.520644 
L 140.241794 66.860263 
L 141.030349 69.199883 
L 142.053504 71.539493 
L 143.311498 73.879122 
L 144.80428 76.218732 
L 146.53165 78.558351 
L 148.644397 81.068062 
L 151.445326 83.9804 
L 154.467778 86.747015 
L 157.309824 89.086634 
L 161.248557 92.005094 
L 165.728593 94.935678 
L 169.736695 97.275298 
L 173.852717 99.428128 
L 178.054106 101.378512 
L 182.377453 103.124341 
L 186.456876 104.560397 
L 190.658266 105.811471 
L 194.859655 106.840955 
L 199.061044 107.663282 
L 204.662894 108.466524 
L 208.864283 108.856215 
L 214.466133 109.144815 
L 220.067975 109.196799 
L 225.669824 109.045605 
L 232.672143 108.629501 
L 239.674453 107.991505 
L 248.077223 106.991468 
L 256.480002 105.766497 
L 266.283241 104.085026 
L 274.686003 102.439846 
L 284.48925 100.276858 
L 292.892012 98.201989 
L 301.294791 95.90241 
L 308.374711 93.765873 
L 315.435182 91.426254 
L 322.301721 88.913917 
L 327.903579 86.655056 
L 330.7045 85.442341 
L 330.7045 85.442341 
" clip-path="url(#pced190b524)" style="fill: none; stroke: #486afb; stroke-width: 2"/>
    <path d="M 52.0125 226.151412 
L 59.01481 228.142135 
L 64.61666 229.520229 
L 71.61897 231.001392 
L 78.621284 232.256696 
L 85.623594 233.306119 
L 94.026369 234.316239 
L 102.429143 235.069922 
L 110.831918 235.586089 
L 119.234688 235.872478 
L 127.637467 235.938488 
L 136.040237 235.784462 
L 144.443008 235.413512 
L 152.845786 234.806939 
L 161.248557 233.97435 
L 169.651336 232.892593 
L 178.054106 231.539973 
L 185.056416 230.192383 
L 192.058734 228.625264 
L 197.936292 227.1241 
L 204.662894 225.149753 
L 209.338139 223.614673 
L 215.866593 221.180106 
L 221.468443 218.779094 
L 225.971666 216.595819 
L 230.243281 214.2562 
L 234.072603 211.881311 
L 237.353393 209.576963 
L 240.288307 207.237346 
L 242.858848 204.897727 
L 245.276302 202.342115 
L 247.011888 200.218493 
L 248.637397 197.878873 
L 249.986665 195.539254 
L 251.074762 193.199639 
L 251.912344 190.86002 
L 252.513514 188.5204 
L 252.886456 186.180781 
L 253.042981 183.841166 
L 252.991329 181.501546 
L 252.740347 179.161927 
L 252.278612 176.735146 
L 251.672531 174.482693 
L 250.875031 172.143073 
L 249.367265 168.633649 
L 247.517915 165.12422 
L 245.276302 161.473651 
L 242.475373 157.440559 
L 238.273992 151.961395 
L 232.02535 144.067659 
L 229.548884 140.558225 
L 228.167006 138.218615 
L 227.127917 135.878995 
L 226.568815 133.539376 
L 226.529196 132.369561 
L 226.684696 131.199756 
L 227.070293 130.023325 
L 227.692184 128.860137 
L 228.608824 127.690332 
L 229.871214 126.490519 
L 231.382407 125.350712 
L 234.072603 123.759356 
L 236.873524 122.38945 
L 239.674453 121.197034 
L 244.154676 119.501668 
L 252.278612 116.83552 
L 263.482304 113.498283 
L 290.091092 105.756526 
L 302.69526 101.789872 
L 311.098022 98.93658 
L 319.500801 95.854108 
L 326.503111 93.063301 
L 330.7045 91.268675 
M 330.7045 21.040587 
L 323.70219 19.049865 
L 318.100332 17.671766 
L 311.098022 16.190606 
L 304.095712 14.935302 
L 297.093402 13.88588 
L 288.69064 12.875763 
L 280.287861 12.122078 
L 271.885082 11.605911 
L 263.482304 11.319522 
L 255.079533 11.253512 
L 246.676763 11.407538 
L 238.273992 11.778489 
L 231.271674 12.268065 
L 222.868904 13.058103 
L 213.619605 14.218849 
L 206.063354 15.402744 
L 197.660584 16.999617 
L 190.658266 18.566736 
L 184.780704 20.067902 
L 178.054106 22.042246 
L 173.378861 23.577327 
L 166.850407 26.011897 
L 161.248557 28.412905 
L 156.745339 30.596176 
L 152.473712 32.935805 
L 148.644397 35.310692 
L 145.363602 37.615043 
L 142.428693 39.954654 
L 139.858152 42.294282 
L 137.440698 44.849888 
L 135.705112 46.973503 
L 134.079603 49.313131 
L 132.73033 51.652742 
L 131.642238 53.992361 
L 130.804656 56.33198 
L 130.203486 58.6716 
L 129.830544 61.011219 
L 129.67401 63.35083 
L 129.72568 65.690458 
L 129.976643 68.030068 
L 130.438388 70.456857 
L 131.044469 72.709307 
L 131.841969 75.048927 
L 133.349735 78.558351 
L 135.199096 82.067785 
L 137.440698 85.718349 
L 140.241627 89.751441 
L 144.443008 95.230605 
L 150.69165 103.124341 
L 153.168116 106.633775 
L 154.549994 108.973385 
L 155.589083 111.313005 
L 156.148185 113.652624 
L 156.187804 114.822439 
L 156.032304 115.992244 
L 155.646707 117.168675 
L 155.024816 118.331863 
L 154.108176 119.501668 
L 152.845786 120.701481 
L 151.334593 121.841288 
L 148.644397 123.432644 
L 145.843476 124.80255 
L 143.042547 125.994966 
L 138.562324 127.690332 
L 130.438388 130.35648 
L 119.234688 133.693717 
L 92.625908 141.435474 
L 80.021749 145.402128 
L 71.61897 148.25543 
L 63.216199 151.337892 
L 56.213885 154.128699 
L 52.0125 155.923325 
L 52.0125 155.923325 
" clip-path="url(#pced190b524)" style="fill: none; stroke: #486afb; stroke-width: 2"/>
    <path d="M 52.0125 228.501182 
L 59.01481 230.341155 
L 65.433964 231.803337 
L 73.019434 233.271853 
L 81.422209 234.621548 
L 89.824983 235.706536 
L 98.227754 236.55032 
L 106.630528 237.153804 
L 115.033303 237.547482 
L 123.436078 237.724388 
L 131.838848 237.692102 
L 140.241627 237.447435 
L 148.644397 236.99219 
L 157.047176 236.327587 
L 166.475026 235.312763 
L 174.946258 234.142956 
L 182.255495 232.924101 
L 190.658266 231.256866 
L 198.385812 229.463717 
L 206.063354 227.377648 
L 211.665204 225.647446 
L 217.552149 223.614673 
L 224.269364 220.956617 
L 228.808468 218.935437 
L 234.072603 216.285605 
L 238.273992 213.897126 
L 241.417856 211.916583 
L 245.276302 209.168995 
L 248.077223 206.916383 
L 250.878152 204.361321 
L 252.64617 202.55811 
L 255.079533 199.693598 
L 256.480002 197.802727 
L 257.932498 195.539254 
L 259.280922 193.019662 
L 260.236126 190.86002 
L 261.064053 188.5204 
L 261.691106 186.180781 
L 262.129942 183.841166 
L 262.387611 181.501546 
L 262.478151 179.161927 
L 262.412136 176.822312 
L 262.044544 173.312883 
L 261.386728 169.803454 
L 260.4905 166.294029 
L 259.010128 161.61479 
L 254.629494 148.746888 
L 254.069349 146.407278 
L 253.679073 143.932245 
L 253.545315 141.728039 
L 253.700394 139.38842 
L 254.219401 137.0488 
L 255.079533 134.931795 
L 255.849546 133.539376 
L 256.656405 132.369561 
L 257.880462 130.904752 
L 259.280922 129.490743 
L 261.378099 127.690332 
L 264.703165 125.350712 
L 268.664667 123.011102 
L 273.285551 120.643598 
L 278.887392 118.078774 
L 286.656586 114.822439 
L 307.636277 106.633775 
L 316.69988 103.037651 
L 325.102659 99.538315 
L 330.7045 97.075713 
M 330.7045 18.690816 
L 323.70219 16.850845 
L 317.283034 15.388663 
L 309.69757 13.920146 
L 301.294791 12.570452 
L 292.892012 11.485463 
L 284.48925 10.641681 
L 276.086472 10.038196 
L 267.683693 9.644517 
L 259.280922 9.467611 
L 250.878152 9.499897 
L 242.475373 9.744564 
L 234.072603 10.19981 
L 225.669824 10.864413 
L 216.241948 11.879239 
L 207.770693 13.049053 
L 200.461505 14.267898 
L 192.058734 15.935134 
L 184.331215 17.728274 
L 176.653646 19.814353 
L 171.051796 21.54455 
L 165.164851 23.577327 
L 158.447636 26.235386 
L 153.908526 28.256566 
L 148.644397 30.906395 
L 144.443008 33.294873 
L 141.299151 35.275415 
L 137.440698 38.023009 
L 134.639777 40.275616 
L 131.838848 42.830683 
L 130.07083 44.633893 
L 127.637467 47.498399 
L 126.236998 49.389278 
L 124.784502 51.652742 
L 123.436078 54.172337 
L 122.480874 56.33198 
L 121.652948 58.6716 
L 121.025897 61.011219 
L 120.587053 63.35083 
L 120.329399 65.690458 
L 120.238841 68.030068 
L 120.304865 70.369688 
L 120.67247 73.879122 
L 121.330274 77.388546 
L 122.2265 80.897971 
L 123.706872 85.57721 
L 128.087506 98.445112 
L 128.647651 100.784722 
L 129.037927 103.259755 
L 129.171685 105.463961 
L 129.016606 107.80358 
L 128.497599 110.1432 
L 127.637467 112.260205 
L 126.867454 113.652624 
L 126.060595 114.822439 
L 124.836538 116.287248 
L 123.436078 117.701257 
L 121.338903 119.501668 
L 118.013834 121.841288 
L 114.052335 124.180898 
L 109.431453 126.548402 
L 103.829604 129.113226 
L 96.060414 132.369561 
L 75.080719 140.558225 
L 66.017124 144.154349 
L 57.61435 147.653679 
L 52.0125 150.116287 
L 52.0125 150.116287 
" clip-path="url(#pced190b524)" style="fill: none; stroke: #486afb; stroke-width: 2"/>
    <path d="M 52.0125 230.625317 
L 57.61435 232.020774 
L 64.61666 233.552382 
L 71.61897 234.873111 
L 78.621284 235.999407 
L 85.623594 236.947777 
L 94.026369 237.869512 
L 102.429143 238.564213 
L 110.831918 239.046847 
L 119.234688 239.321266 
L 127.637467 239.397175 
L 136.040237 239.274803 
L 144.443008 238.956566 
L 152.845786 238.429294 
L 161.753236 237.652383 
L 171.051796 236.574193 
L 178.054106 235.575194 
L 185.056416 234.409372 
L 192.507963 232.973146 
L 200.461505 231.179661 
L 207.463815 229.375131 
L 215.073339 227.1241 
L 221.973877 224.784483 
L 228.470753 222.273058 
L 234.072603 219.823743 
L 238.316354 217.765627 
L 242.66071 215.42601 
L 246.676763 213.015369 
L 250.878152 210.169321 
L 253.679073 208.050378 
L 256.480002 205.696301 
L 259.280922 203.039955 
L 260.854719 201.3883 
L 262.84969 199.048683 
L 264.882772 196.297833 
L 266.283241 194.115243 
L 267.683693 191.565663 
L 268.571858 189.69021 
L 269.505997 187.35059 
L 270.484614 184.2122 
L 270.865085 182.671356 
L 271.485808 179.161927 
L 271.811958 175.652502 
L 271.885082 172.1352 
L 271.753289 168.633649 
L 271.353696 163.95441 
L 270.317063 153.426127 
L 270.237525 149.916702 
L 270.353508 147.577083 
L 270.647836 145.237464 
L 271.161109 142.897844 
L 271.941534 140.558225 
L 273.024883 138.218615 
L 274.457749 135.878995 
L 276.276121 133.539376 
L 278.5084 131.199756 
L 281.175144 128.860137 
L 284.48925 126.379247 
L 288.69064 123.645413 
L 292.892012 121.201353 
L 297.093402 118.947669 
L 302.975492 115.992244 
L 313.898959 110.842367 
L 330.7045 103.006478 
M 330.7045 16.566683 
L 325.102659 15.171227 
L 318.100332 13.639616 
L 311.098022 12.318886 
L 304.095712 11.192593 
L 297.093402 10.244222 
L 288.69064 9.322487 
L 280.287861 8.627787 
L 271.885082 8.145152 
L 263.482304 7.870734 
L 255.079533 7.794825 
L 246.676763 7.917197 
L 238.273992 8.235434 
L 229.871214 8.762707 
L 220.963829 9.53961 
L 211.665204 10.617806 
L 204.662894 11.616806 
L 197.660584 12.78263 
L 190.209046 14.218849 
L 182.255495 16.012339 
L 175.253185 17.816867 
L 167.643654 20.067902 
L 160.743127 22.407512 
L 154.246247 24.918943 
L 148.644397 27.368258 
L 144.400639 29.42638 
L 140.05629 31.76599 
L 136.040237 34.176626 
L 131.838848 37.022681 
L 129.037927 39.141623 
L 126.236998 41.495701 
L 123.436078 44.152046 
L 121.862282 45.803707 
L 119.867307 48.143317 
L 117.834228 50.894166 
L 116.433767 53.076757 
L 115.033303 55.626335 
L 114.145143 57.501795 
L 113.211003 59.841405 
L 112.232378 62.979778 
L 111.851909 64.520644 
L 111.231181 68.030068 
L 110.905033 71.539493 
L 110.831918 75.056803 
L 110.96371 78.558351 
L 111.363301 83.23759 
L 112.39993 93.765873 
L 112.479469 97.275298 
L 112.363484 99.614917 
L 112.069156 101.954536 
L 111.555887 104.294156 
L 110.775467 106.633775 
L 109.692121 108.973385 
L 108.259249 111.313005 
L 106.440878 113.652624 
L 104.208595 115.992244 
L 101.541862 118.331863 
L 98.227754 120.812753 
L 94.026369 123.546576 
L 89.824983 125.990647 
L 85.623594 128.244331 
L 79.741517 131.199756 
L 68.818049 136.349624 
L 52.0125 144.185522 
L 52.0125 144.185522 
" clip-path="url(#pced190b524)" style="fill: none; stroke: #486afb; stroke-width: 2"/>
   </g>
   <g id="patch_3">
    <path d="M 52.0125 239.992 
L 52.0125 7.2 
" style="fill: none; stroke: #000000; stroke-width: 0.6; stroke-linejoin: miter; stroke-linecap: square"/>
   </g>
   <g id="patch_4">
    <path d="M 52.0125 239.992 
L 330.7045 239.992 
" style="fill: none; stroke: #000000; stroke-width: 0.6; stroke-linejoin: miter; stroke-linecap: square"/>
   </g>
  </g>
 </g>
 <defs>
  <clipPath id="pced190b524">
   <rect x="52.0125" y="7.2" width="278.692" height="232.792"/>
  </clipPath>
 </defs>
</svg>