<?xml version="1.0" encoding="utf-8" standalone="no"?>
<!DOCTYPE svg PUBLIC "-//W3C//DTD SVG 1.1//EN"
  "http://www.w3.org/Graphics/SVG/1.1/DTD/svg11.dtd">
<svg xmlns:xlink="http://www.w3.org/1999/xlink" width="349.620625pt" height="207.329863pt" viewBox="0 0 349.620625 207.329863" xmlns="http://www.w3.org/2000/svg" version="1.1">
 <metadata>
  <rdf:RDF xmlns:dc="http://purl.org/dc/elements/1.1/" xmlns:cc="http://creativecommons.org/ns#" xmlns:rdf="http://www.w3.org/1999/02/22-rdf-syntax-ns#">
   <cc:Work>
    <dc:type rdf:resource="http://purl.org/dc/dcmitype/StillImage"/>
    <dc:date>2023-12-03T11:07:57.953234</dc:date>
    <dc:format>image/svg+xml</dc:format>
    <dc:creator>
     <cc:Agent>
      <dc:title>Matplotlib v3.8.2, https://matplotlib.org/</dc:title>
     </cc:Agent>
    </dc:creator>
   </cc:Work>
  </rdf:RDF>
 </metadata>
 <defs>
  <style type="text/css">*{stroke-linejoin: round; stroke-linecap: butt}</style>
 </defs>
 <g id="figure_1">
  <g id="patch_1">
   <path d="M 0 207.329863 
L 349.620625 207.329863 
L 349.620625 0 
L 0 0 
z
" style="fill: #ffffff"/>
  </g>
  <g id="axes_1">
   <g id="patch_2">
    <path d="M 40.040625 169.667363 
L 342.420625 169.667363 
L 342.420625 8.446243 
L 40.040625 8.446243 
z
" style="fill: #ffffff"/>
   </g>
   <g id="matplotlib.axis_1">
    <g id="xtick_1">
     <g id="line2d_1">
      <path d="M 60.199292 169.667363 
L 60.199292 8.446243 
" clip-path="url(#p25cb1dbafb)" style="fill: none; stroke-dasharray: 2.22,0.96; stroke-dashoffset: 0; stroke: #6c6066; stroke-opacity: 0.4; stroke-width: 0.6"/>
     </g>
     <g id="line2d_2">
      <defs>
       <path id="mf2ddab8a02" d="M 0 0 
L 0 3.5 
" style="stroke: #000000; stroke-width: 0.8"/>
      </defs>
      <g>
       <use xlink:href="#mf2ddab8a02" x="60.199292" y="169.667363" style="stroke: #000000; stroke-width: 0.8"/>
      </g>
     </g>
     <g id="text_1">
      <!-- −0.5 -->
      <g transform="translate(48.158667 184.318926) scale(0.1 -0.1)">
       <defs>
        <path id="DejaVuSansMono-2212" d="M 275 2272 
L 3578 2272 
L 3578 1741 
L 275 1741 
L 275 2272 
z
" transform="scale(0.015625)"/>
        <path id="DejaVuSansMono-30" d="M 1509 2344 
Q 1509 2516 1629 2641 
Q 1750 2766 1919 2766 
Q 2094 2766 2219 2641 
Q 2344 2516 2344 2344 
Q 2344 2169 2220 2047 
Q 2097 1925 1919 1925 
Q 1744 1925 1626 2044 
Q 1509 2163 1509 2344 
z
M 1925 4250 
Q 1484 4250 1267 3775 
Q 1050 3300 1050 2328 
Q 1050 1359 1267 884 
Q 1484 409 1925 409 
Q 2369 409 2586 884 
Q 2803 1359 2803 2328 
Q 2803 3300 2586 3775 
Q 2369 4250 1925 4250 
z
M 1925 4750 
Q 2672 4750 3055 4137 
Q 3438 3525 3438 2328 
Q 3438 1134 3055 521 
Q 2672 -91 1925 -91 
Q 1178 -91 797 521 
Q 416 1134 416 2328 
Q 416 3525 797 4137 
Q 1178 4750 1925 4750 
z
" transform="scale(0.015625)"/>
        <path id="DejaVuSansMono-2e" d="M 1528 953 
L 2316 953 
L 2316 0 
L 1528 0 
L 1528 953 
z
" transform="scale(0.015625)"/>
        <path id="DejaVuSansMono-35" d="M 647 4666 
L 3009 4666 
L 3009 4134 
L 1222 4134 
L 1222 2988 
Q 1356 3038 1492 3061 
Q 1628 3084 1766 3084 
Q 2491 3084 2916 2656 
Q 3341 2228 3341 1497 
Q 3341 759 2895 334 
Q 2450 -91 1678 -91 
Q 1306 -91 998 -41 
Q 691 9 447 109 
L 447 750 
Q 734 594 1025 517 
Q 1316 441 1619 441 
Q 2141 441 2423 716 
Q 2706 991 2706 1497 
Q 2706 1997 2414 2275 
Q 2122 2553 1600 2553 
Q 1347 2553 1106 2495 
Q 866 2438 647 2322 
L 647 4666 
z
" transform="scale(0.015625)"/>
       </defs>
       <use xlink:href="#DejaVuSansMono-2212"/>
       <use xlink:href="#DejaVuSansMono-30" x="60.205078"/>
       <use xlink:href="#DejaVuSansMono-2e" x="120.410156"/>
       <use xlink:href="#DejaVuSansMono-35" x="180.615234"/>
      </g>
     </g>
    </g>
    <g id="xtick_2">
     <g id="line2d_3">
      <path d="M 93.797069 169.667363 
L 93.797069 8.446243 
" clip-path="url(#p25cb1dbafb)" style="fill: none; stroke-dasharray: 2.22,0.96; stroke-dashoffset: 0; stroke: #6c6066; stroke-opacity: 0.4; stroke-width: 0.6"/>
     </g>
     <g id="line2d_4">
      <g>
       <use xlink:href="#mf2ddab8a02" x="93.797069" y="169.667363" style="stroke: #000000; stroke-width: 0.8"/>
      </g>
     </g>
     <g id="text_2">
      <!-- 0.0 -->
      <g transform="translate(84.766601 184.318926) scale(0.1 -0.1)">
       <use xlink:href="#DejaVuSansMono-30"/>
       <use xlink:href="#DejaVuSansMono-2e" x="60.205078"/>
       <use xlink:href="#DejaVuSansMono-30" x="120.410156"/>
      </g>
     </g>
    </g>
    <g id="xtick_3">
     <g id="line2d_5">
      <path d="M 127.394847 169.667363 
L 127.394847 8.446243 
" clip-path="url(#p25cb1dbafb)" style="fill: none; stroke-dasharray: 2.22,0.96; stroke-dashoffset: 0; stroke: #6c6066; stroke-opacity: 0.4; stroke-width: 0.6"/>
     </g>
     <g id="line2d_6">
      <g>
       <use xlink:href="#mf2ddab8a02" x="127.394847" y="169.667363" style="stroke: #000000; stroke-width: 0.8"/>
      </g>
     </g>
     <g id="text_3">
      <!-- 0.5 -->
      <g transform="translate(118.364378 184.318926) scale(0.1 -0.1)">
       <use xlink:href="#DejaVuSansMono-30"/>
       <use xlink:href="#DejaVuSansMono-2e" x="60.205078"/>
       <use xlink:href="#DejaVuSansMono-35" x="120.410156"/>
      </g>
     </g>
    </g>
    <g id="xtick_4">
     <g id="line2d_7">
      <path d="M 160.992625 169.667363 
L 160.992625 8.446243 
" clip-path="url(#p25cb1dbafb)" style="fill: none; stroke-dasharray: 2.22,0.96; stroke-dashoffset: 0; stroke: #6c6066; stroke-opacity: 0.4; stroke-width: 0.6"/>
     </g>
     <g id="line2d_8">
      <g>
       <use xlink:href="#mf2ddab8a02" x="160.992625" y="169.667363" style="stroke: #000000; stroke-width: 0.8"/>
      </g>
     </g>
     <g id="text_4">
      <!-- 1.0 -->
      <g transform="translate(151.962156 184.318926) scale(0.1 -0.1)">
       <defs>
        <path id="DejaVuSansMono-31" d="M 844 531 
L 1825 531 
L 1825 4097 
L 769 3859 
L 769 4434 
L 1819 4666 
L 2450 4666 
L 2450 531 
L 3419 531 
L 3419 0 
L 844 0 
L 844 531 
z
" transform="scale(0.015625)"/>
       </defs>
       <use xlink:href="#DejaVuSansMono-31"/>
       <use xlink:href="#DejaVuSansMono-2e" x="60.205078"/>
       <use xlink:href="#DejaVuSansMono-30" x="120.410156"/>
      </g>
     </g>
    </g>
    <g id="xtick_5">
     <g id="line2d_9">
      <path d="M 194.590403 169.667363 
L 194.590403 8.446243 
" clip-path="url(#p25cb1dbafb)" style="fill: none; stroke-dasharray: 2.22,0.96; stroke-dashoffset: 0; stroke: #6c6066; stroke-opacity: 0.4; stroke-width: 0.6"/>
     </g>
     <g id="line2d_10">
      <g>
       <use xlink:href="#mf2ddab8a02" x="194.590403" y="169.667363" style="stroke: #000000; stroke-width: 0.8"/>
      </g>
     </g>
     <g id="text_5">
      <!-- 1.5 -->
      <g transform="translate(185.559934 184.318926) scale(0.1 -0.1)">
       <use xlink:href="#DejaVuSansMono-31"/>
       <use xlink:href="#DejaVuSansMono-2e" x="60.205078"/>
       <use xlink:href="#DejaVuSansMono-35" x="120.410156"/>
      </g>
     </g>
    </g>
    <g id="xtick_6">
     <g id="line2d_11">
      <path d="M 228.188181 169.667363 
L 228.188181 8.446243 
" clip-path="url(#p25cb1dbafb)" style="fill: none; stroke-dasharray: 2.22,0.96; stroke-dashoffset: 0; stroke: #6c6066; stroke-opacity: 0.4; stroke-width: 0.6"/>
     </g>
     <g id="line2d_12">
      <g>
       <use xlink:href="#mf2ddab8a02" x="228.188181" y="169.667363" style="stroke: #000000; stroke-width: 0.8"/>
      </g>
     </g>
     <g id="text_6">
      <!-- 2.0 -->
      <g transform="translate(219.157712 184.318926) scale(0.1 -0.1)">
       <defs>
        <path id="DejaVuSansMono-32" d="M 1166 531 
L 3309 531 
L 3309 0 
L 475 0 
L 475 531 
Q 1059 1147 1496 1619 
Q 1934 2091 2100 2284 
Q 2413 2666 2522 2902 
Q 2631 3138 2631 3384 
Q 2631 3775 2401 3997 
Q 2172 4219 1772 4219 
Q 1488 4219 1175 4116 
Q 863 4013 513 3803 
L 513 4441 
Q 834 4594 1145 4672 
Q 1456 4750 1759 4750 
Q 2444 4750 2861 4386 
Q 3278 4022 3278 3431 
Q 3278 3131 3139 2831 
Q 3000 2531 2688 2169 
Q 2513 1966 2180 1606 
Q 1847 1247 1166 531 
z
" transform="scale(0.015625)"/>
       </defs>
       <use xlink:href="#DejaVuSansMono-32"/>
       <use xlink:href="#DejaVuSansMono-2e" x="60.205078"/>
       <use xlink:href="#DejaVuSansMono-30" x="120.410156"/>
      </g>
     </g>
    </g>
    <g id="xtick_7">
     <g id="line2d_13">
      <path d="M 261.785958 169.667363 
L 261.785958 8.446243 
" clip-path="url(#p25cb1dbafb)" style="fill: none; stroke-dasharray: 2.22,0.96; stroke-dashoffset: 0; stroke: #6c6066; stroke-opacity: 0.4; stroke-width: 0.6"/>
     </g>
     <g id="line2d_14">
      <g>
       <use xlink:href="#mf2ddab8a02" x="261.785958" y="169.667363" style="stroke: #000000; stroke-width: 0.8"/>
      </g>
     </g>
     <g id="text_7">
      <!-- 2.5 -->
      <g transform="translate(252.75549 184.318926) scale(0.1 -0.1)">
       <use xlink:href="#DejaVuSansMono-32"/>
       <use xlink:href="#DejaVuSansMono-2e" x="60.205078"/>
       <use xlink:href="#DejaVuSansMono-35" x="120.410156"/>
      </g>
     </g>
    </g>
    <g id="xtick_8">
     <g id="line2d_15">
      <path d="M 295.383736 169.667363 
L 295.383736 8.446243 
" clip-path="url(#p25cb1dbafb)" style="fill: none; stroke-dasharray: 2.22,0.96; stroke-dashoffset: 0; stroke: #6c6066; stroke-opacity: 0.4; stroke-width: 0.6"/>
     </g>
     <g id="line2d_16">
      <g>
       <use xlink:href="#mf2ddab8a02" x="295.383736" y="169.667363" style="stroke: #000000; stroke-width: 0.8"/>
      </g>
     </g>
     <g id="text_8">
      <!-- 3.0 -->
      <g transform="translate(286.353267 184.318926) scale(0.1 -0.1)">
       <defs>
        <path id="DejaVuSansMono-33" d="M 2425 2497 
Q 2884 2375 3128 2064 
Q 3372 1753 3372 1288 
Q 3372 644 2939 276 
Q 2506 -91 1741 -91 
Q 1419 -91 1084 -31 
Q 750 28 428 141 
L 428 769 
Q 747 603 1056 522 
Q 1366 441 1672 441 
Q 2191 441 2469 675 
Q 2747 909 2747 1350 
Q 2747 1756 2469 1995 
Q 2191 2234 1716 2234 
L 1234 2234 
L 1234 2753 
L 1716 2753 
Q 2150 2753 2394 2943 
Q 2638 3134 2638 3475 
Q 2638 3834 2411 4026 
Q 2184 4219 1766 4219 
Q 1488 4219 1191 4156 
Q 894 4094 569 3969 
L 569 4550 
Q 947 4650 1242 4700 
Q 1538 4750 1766 4750 
Q 2447 4750 2855 4408 
Q 3263 4066 3263 3500 
Q 3263 3116 3048 2859 
Q 2834 2603 2425 2497 
z
" transform="scale(0.015625)"/>
       </defs>
       <use xlink:href="#DejaVuSansMono-33"/>
       <use xlink:href="#DejaVuSansMono-2e" x="60.205078"/>
       <use xlink:href="#DejaVuSansMono-30" x="120.410156"/>
      </g>
     </g>
    </g>
    <g id="xtick_9">
     <g id="line2d_17">
      <path d="M 328.981514 169.667363 
L 328.981514 8.446243 
" clip-path="url(#p25cb1dbafb)" style="fill: none; stroke-dasharray: 2.22,0.96; stroke-dashoffset: 0; stroke: #6c6066; stroke-opacity: 0.4; stroke-width: 0.6"/>
     </g>
     <g id="line2d_18">
      <g>
       <use xlink:href="#mf2ddab8a02" x="328.981514" y="169.667363" style="stroke: #000000; stroke-width: 0.8"/>
      </g>
     </g>
     <g id="text_9">
      <!-- 3.5 -->
      <g transform="translate(319.951045 184.318926) scale(0.1 -0.1)">
       <use xlink:href="#DejaVuSansMono-33"/>
       <use xlink:href="#DejaVuSansMono-2e" x="60.205078"/>
       <use xlink:href="#DejaVuSansMono-35" x="120.410156"/>
      </g>
     </g>
    </g>
    <g id="text_10">
     <!-- $\theta$ -->
     <g transform="translate(188.130625 198.050176) scale(0.1 -0.1)">
      <defs>
       <path id="DejaVuSans-Oblique-3b8" d="M 2913 2219 
L 925 2219 
Q 791 1284 928 888 
Q 1100 400 1566 400 
Q 2034 400 2391 891 
Q 2703 1322 2913 2219 
z
M 3009 2750 
Q 3094 3638 2984 3950 
Q 2813 4444 2353 4444 
Q 1875 4444 1525 3956 
Q 1250 3563 1034 2750 
L 3009 2750 
z
M 2444 4913 
Q 3194 4913 3494 4250 
Q 3794 3591 3566 2422 
Q 3341 1256 2781 594 
Q 2225 -72 1475 -72 
Q 722 -72 425 594 
Q 128 1256 353 2422 
Q 581 3591 1134 4250 
Q 1691 4913 2444 4913 
z
" transform="scale(0.015625)"/>
      </defs>
      <use xlink:href="#DejaVuSans-Oblique-3b8" transform="translate(0 0.234375)"/>
     </g>
    </g>
   </g>
   <g id="matplotlib.axis_2">
    <g id="ytick_1">
     <g id="line2d_19">
      <path d="M 40.040625 165.798056 
L 342.420625 165.798056 
" clip-path="url(#p25cb1dbafb)" style="fill: none; stroke-dasharray: 2.22,0.96; stroke-dashoffset: 0; stroke: #6c6066; stroke-opacity: 0.4; stroke-width: 0.6"/>
     </g>
     <g id="line2d_20">
      <defs>
       <path id="mfd7ae1bcf7" d="M 0 0 
L -3.5 0 
" style="stroke: #000000; stroke-width: 0.8"/>
      </defs>
      <g>
       <use xlink:href="#mfd7ae1bcf7" x="40.040625" y="165.798056" style="stroke: #000000; stroke-width: 0.8"/>
      </g>
     </g>
     <g id="text_11">
      <!-- 0 -->
      <g transform="translate(27.020312 169.623838) scale(0.1 -0.1)">
       <use xlink:href="#DejaVuSansMono-30"/>
      </g>
     </g>
    </g>
    <g id="ytick_2">
     <g id="line2d_21">
      <path d="M 40.040625 140.002677 
L 342.420625 140.002677 
" clip-path="url(#p25cb1dbafb)" style="fill: none; stroke-dasharray: 2.22,0.96; stroke-dashoffset: 0; stroke: #6c6066; stroke-opacity: 0.4; stroke-width: 0.6"/>
     </g>
     <g id="line2d_22">
      <g>
       <use xlink:href="#mfd7ae1bcf7" x="40.040625" y="140.002677" style="stroke: #000000; stroke-width: 0.8"/>
      </g>
     </g>
     <g id="text_12">
      <!-- 2 -->
      <g transform="translate(27.020312 143.828458) scale(0.1 -0.1)">
       <use xlink:href="#DejaVuSansMono-32"/>
      </g>
     </g>
    </g>
    <g id="ytick_3">
     <g id="line2d_23">
      <path d="M 40.040625 114.207298 
L 342.420625 114.207298 
" clip-path="url(#p25cb1dbafb)" style="fill: none; stroke-dasharray: 2.22,0.96; stroke-dashoffset: 0; stroke: #6c6066; stroke-opacity: 0.4; stroke-width: 0.6"/>
     </g>
     <g id="line2d_24">
      <g>
       <use xlink:href="#mfd7ae1bcf7" x="40.040625" y="114.207298" style="stroke: #000000; stroke-width: 0.8"/>
      </g>
     </g>
     <g id="text_13">
      <!-- 4 -->
      <g transform="translate(27.020312 118.033079) scale(0.1 -0.1)">
       <defs>
        <path id="DejaVuSansMono-34" d="M 2297 4091 
L 825 1625 
L 2297 1625 
L 2297 4091 
z
M 2194 4666 
L 2925 4666 
L 2925 1625 
L 3547 1625 
L 3547 1113 
L 2925 1113 
L 2925 0 
L 2297 0 
L 2297 1113 
L 319 1113 
L 319 1709 
L 2194 4666 
z
" transform="scale(0.015625)"/>
       </defs>
       <use xlink:href="#DejaVuSansMono-34"/>
      </g>
     </g>
    </g>
    <g id="ytick_4">
     <g id="line2d_25">
      <path d="M 40.040625 88.411919 
L 342.420625 88.411919 
" clip-path="url(#p25cb1dbafb)" style="fill: none; stroke-dasharray: 2.22,0.96; stroke-dashoffset: 0; stroke: #6c6066; stroke-opacity: 0.4; stroke-width: 0.6"/>
     </g>
     <g id="line2d_26">
      <g>
       <use xlink:href="#mfd7ae1bcf7" x="40.040625" y="88.411919" style="stroke: #000000; stroke-width: 0.8"/>
      </g>
     </g>
     <g id="text_14">
      <!-- 6 -->
      <g transform="translate(27.020312 92.2377) scale(0.1 -0.1)">
       <defs>
        <path id="DejaVuSansMono-36" d="M 3097 4563 
L 3097 3981 
Q 2900 4097 2678 4158 
Q 2456 4219 2216 4219 
Q 1616 4219 1306 3767 
Q 997 3316 997 2438 
Q 1147 2750 1412 2917 
Q 1678 3084 2022 3084 
Q 2697 3084 3067 2670 
Q 3438 2256 3438 1497 
Q 3438 741 3056 325 
Q 2675 -91 1984 -91 
Q 1172 -91 794 492 
Q 416 1075 416 2328 
Q 416 3509 870 4129 
Q 1325 4750 2188 4750 
Q 2419 4750 2650 4701 
Q 2881 4653 3097 4563 
z
M 1972 2591 
Q 1569 2591 1337 2300 
Q 1106 2009 1106 1497 
Q 1106 984 1337 693 
Q 1569 403 1972 403 
Q 2391 403 2603 679 
Q 2816 956 2816 1497 
Q 2816 2041 2603 2316 
Q 2391 2591 1972 2591 
z
" transform="scale(0.015625)"/>
       </defs>
       <use xlink:href="#DejaVuSansMono-36"/>
      </g>
     </g>
    </g>
    <g id="ytick_5">
     <g id="line2d_27">
      <path d="M 40.040625 62.61654 
L 342.420625 62.61654 
" clip-path="url(#p25cb1dbafb)" style="fill: none; stroke-dasharray: 2.22,0.96; stroke-dashoffset: 0; stroke: #6c6066; stroke-opacity: 0.4; stroke-width: 0.6"/>
     </g>
     <g id="line2d_28">
      <g>
       <use xlink:href="#mfd7ae1bcf7" x="40.040625" y="62.61654" style="stroke: #000000; stroke-width: 0.8"/>
      </g>
     </g>
     <g id="text_15">
      <!-- 8 -->
      <g transform="translate(27.020312 66.442321) scale(0.1 -0.1)">
       <defs>
        <path id="DejaVuSansMono-38" d="M 1925 2216 
Q 1503 2216 1273 1980 
Q 1044 1744 1044 1313 
Q 1044 881 1276 642 
Q 1509 403 1925 403 
Q 2350 403 2579 639 
Q 2809 875 2809 1313 
Q 2809 1741 2576 1978 
Q 2344 2216 1925 2216 
z
M 1375 2478 
Q 972 2581 745 2862 
Q 519 3144 519 3541 
Q 519 4097 897 4423 
Q 1275 4750 1925 4750 
Q 2578 4750 2956 4423 
Q 3334 4097 3334 3541 
Q 3334 3144 3107 2862 
Q 2881 2581 2478 2478 
Q 2947 2375 3195 2062 
Q 3444 1750 3444 1253 
Q 3444 622 3041 265 
Q 2638 -91 1925 -91 
Q 1213 -91 811 264 
Q 409 619 409 1247 
Q 409 1747 657 2061 
Q 906 2375 1375 2478 
z
M 1147 3481 
Q 1147 3106 1347 2909 
Q 1547 2713 1925 2713 
Q 2306 2713 2506 2909 
Q 2706 3106 2706 3481 
Q 2706 3863 2507 4063 
Q 2309 4263 1925 4263 
Q 1547 4263 1347 4061 
Q 1147 3859 1147 3481 
z
" transform="scale(0.015625)"/>
       </defs>
       <use xlink:href="#DejaVuSansMono-38"/>
      </g>
     </g>
    </g>
    <g id="ytick_6">
     <g id="line2d_29">
      <path d="M 40.040625 36.82116 
L 342.420625 36.82116 
" clip-path="url(#p25cb1dbafb)" style="fill: none; stroke-dasharray: 2.22,0.96; stroke-dashoffset: 0; stroke: #6c6066; stroke-opacity: 0.4; stroke-width: 0.6"/>
     </g>
     <g id="line2d_30">
      <g>
       <use xlink:href="#mfd7ae1bcf7" x="40.040625" y="36.82116" style="stroke: #000000; stroke-width: 0.8"/>
      </g>
     </g>
     <g id="text_16">
      <!-- 10 -->
      <g transform="translate(21 40.646942) scale(0.1 -0.1)">
       <use xlink:href="#DejaVuSansMono-31"/>
       <use xlink:href="#DejaVuSansMono-30" x="60.205078"/>
      </g>
     </g>
    </g>
    <g id="ytick_7">
     <g id="line2d_31">
      <path d="M 40.040625 11.025781 
L 342.420625 11.025781 
" clip-path="url(#p25cb1dbafb)" style="fill: none; stroke-dasharray: 2.22,0.96; stroke-dashoffset: 0; stroke: #6c6066; stroke-opacity: 0.4; stroke-width: 0.6"/>
     </g>
     <g id="line2d_32">
      <g>
       <use xlink:href="#mfd7ae1bcf7" x="40.040625" y="11.025781" style="stroke: #000000; stroke-width: 0.8"/>
      </g>
     </g>
     <g id="text_17">
      <!-- 12 -->
      <g transform="translate(21 14.851562) scale(0.1 -0.1)">
       <use xlink:href="#DejaVuSansMono-31"/>
       <use xlink:href="#DejaVuSansMono-32" x="60.205078"/>
      </g>
     </g>
    </g>
    <g id="text_18">
     <!-- $J(\theta)$ -->
     <g transform="translate(14.9 97.506803) rotate(-90) scale(0.1 -0.1)">
      <defs>
       <path id="DejaVuSans-Oblique-4a" d="M 1069 4666 
L 1703 4666 
L 856 325 
Q 691 -522 298 -901 
Q -94 -1281 -800 -1281 
L -1050 -1281 
L -947 -750 
L -750 -750 
Q -328 -750 -109 -509 
Q 109 -269 225 325 
L 1069 4666 
z
" transform="scale(0.015625)"/>
       <path id="DejaVuSans-28" d="M 1984 4856 
Q 1566 4138 1362 3434 
Q 1159 2731 1159 2009 
Q 1159 1288 1364 580 
Q 1569 -128 1984 -844 
L 1484 -844 
Q 1016 -109 783 600 
Q 550 1309 550 2009 
Q 550 2706 781 3412 
Q 1013 4119 1484 4856 
L 1984 4856 
z
" transform="scale(0.015625)"/>
       <path id="DejaVuSans-29" d="M 513 4856 
L 1013 4856 
Q 1481 4119 1714 3412 
Q 1947 2706 1947 2009 
Q 1947 1309 1714 600 
Q 1481 -109 1013 -844 
L 513 -844 
Q 928 -128 1133 580 
Q 1338 1288 1338 2009 
Q 1338 2731 1133 3434 
Q 928 4138 513 4856 
z
" transform="scale(0.015625)"/>
      </defs>
      <use xlink:href="#DejaVuSans-Oblique-4a" transform="translate(0 0.234375)"/>
      <use xlink:href="#DejaVuSans-28" transform="translate(29.492188 0.234375)"/>
      <use xlink:href="#DejaVuSans-Oblique-3b8" transform="translate(68.505859 0.234375)"/>
      <use xlink:href="#DejaVuSans-29" transform="translate(129.6875 0.234375)"/>
     </g>
    </g>
   </g>
   <g id="line2d_33">
    <path d="M 60.199292 23.117365 
L 62.896103 34.582906 
L 65.592914 45.194691 
L 68.289725 54.99155 
L 70.986537 64.011468 
L 73.68335 72.291683 
L 76.380161 79.868578 
L 79.076972 86.777776 
L 81.773784 93.054062 
L 84.470595 98.731438 
L 87.167408 103.843117 
L 89.86422 108.421458 
L 92.561031 112.498069 
L 95.257842 116.103733 
L 97.954653 119.268429 
L 100.651465 122.021335 
L 103.348276 124.390833 
L 106.045087 126.404488 
L 108.741898 128.089077 
L 111.43871 129.470558 
L 114.135525 130.574101 
L 116.832336 131.424066 
L 119.529147 132.044008 
L 122.225959 132.45668 
L 124.92277 132.68404 
L 128.518521 132.735344 
L 132.114264 132.542612 
L 136.608951 132.027384 
L 141.103637 131.284591 
L 147.396196 130.007465 
L 162.678128 126.789986 
L 168.071758 125.917927 
L 172.566437 125.386564 
L 177.061124 125.06885 
L 181.55581 124.992023 
L 186.050497 125.177141 
L 189.646248 125.524068 
L 193.241999 126.053063 
L 196.83775 126.766314 
L 200.433493 127.663515 
L 204.92818 129.039095 
L 209.422867 130.686313 
L 213.917553 132.587849 
L 218.41224 134.719989 
L 223.805863 137.541015 
L 230.098421 141.112487 
L 239.98673 147.04235 
L 248.077168 151.817359 
L 253.470783 154.754498 
L 257.965477 156.939874 
L 261.56122 158.456316 
L 265.156963 159.717037 
L 267.853787 160.46543 
L 270.550594 161.021448 
L 273.247401 161.362729 
L 275.944224 161.466247 
L 278.641032 161.308018 
L 281.337839 160.863513 
L 284.034662 160.107494 
L 286.731469 159.013466 
L 288.529341 158.082931 
L 290.327212 156.98226 
L 292.125084 155.702893 
L 293.922972 154.236217 
L 295.720843 152.573182 
L 297.518715 150.705668 
L 300.215522 147.500606 
L 302.912329 143.78329 
L 305.609152 139.52201 
L 308.30596 134.683974 
L 311.002767 129.235775 
L 313.69959 123.143046 
L 316.396397 116.371222 
L 319.093205 108.883651 
L 321.790012 100.644168 
L 324.486835 91.615333 
L 327.183642 81.75835 
L 328.981514 74.708124 
L 328.981514 74.708124 
" clip-path="url(#p25cb1dbafb)" style="fill: none; stroke: #486afb; stroke-width: 2; stroke-linecap: square"/>
   </g>
   <g id="line2d_34">
    <path d="M 66.918847 50.11094 
L 66.918847 165.798056 
" clip-path="url(#p25cb1dbafb)" style="fill: none; stroke-dasharray: 7.4,3.2; stroke-dashoffset: 0; stroke: #fd46fc; stroke-width: 2"/>
   </g>
   <g id="line2d_35">
    <path d="M 60.199292 23.117365 
L 62.896103 34.582906 
L 65.592914 45.194691 
L 68.289725 54.99155 
L 70.986537 64.011468 
L 73.68335 72.291683 
L 76.380161 79.868578 
L 79.076972 86.777776 
L 81.773784 93.054062 
L 84.470595 98.731438 
L 87.167408 103.843117 
L 89.86422 108.421458 
L 92.561031 112.498069 
L 95.257842 116.103733 
L 97.954653 119.268429 
L 100.651465 122.021335 
L 103.348276 124.390833 
L 106.045087 126.404488 
L 108.741898 128.089077 
L 111.43871 129.470558 
L 114.135525 130.574101 
L 116.832336 131.424066 
L 119.529147 132.044008 
L 122.225959 132.45668 
L 124.92277 132.68404 
L 128.518521 132.735344 
L 132.114264 132.542612 
L 136.608951 132.027384 
L 141.103637 131.284591 
L 147.396196 130.007465 
L 162.678128 126.789986 
L 168.071758 125.917927 
L 172.566437 125.386564 
L 177.061124 125.06885 
L 181.55581 124.992023 
L 186.050497 125.177141 
L 189.646248 125.524068 
L 193.241999 126.053063 
L 196.83775 126.766314 
L 200.433493 127.663515 
L 204.92818 129.039095 
L 209.422867 130.686313 
L 213.917553 132.587849 
L 218.41224 134.719989 
L 223.805863 137.541015 
L 230.098421 141.112487 
L 239.98673 147.04235 
L 248.077168 151.817359 
L 253.470783 154.754498 
L 257.965477 156.939874 
L 261.56122 158.456316 
L 265.156963 159.717037 
L 267.853787 160.46543 
L 270.550594 161.021448 
L 273.247401 161.362729 
L 275.944224 161.466247 
L 278.641032 161.308018 
L 281.337839 160.863513 
L 284.034662 160.107494 
L 286.731469 159.013466 
L 288.529341 158.082931 
L 290.327212 156.98226 
L 292.125084 155.702893 
L 293.922972 154.236217 
L 295.720843 152.573182 
L 297.518715 150.705668 
L 300.215522 147.500606 
L 302.912329 143.78329 
L 305.609152 139.52201 
L 308.30596 134.683974 
L 311.002767 129.235775 
L 313.69959 123.143046 
L 316.396397 116.371222 
L 319.093205 108.883651 
L 321.790012 100.644168 
L 324.486835 91.615333 
L 327.183642 81.75835 
L 328.981514 74.708124 
L 328.981514 74.708124 
" clip-path="url(#p25cb1dbafb)" style="fill: none; stroke: #486afb; stroke-width: 2; stroke-linecap: square"/>
   </g>
   <g id="line2d_36">
    <path d="M 280.46373 208.329863 
L 328.981514 84.211132 
L 328.981514 84.211132 
" clip-path="url(#p25cb1dbafb)" style="fill: none; stroke: #fd46fc; stroke-width: 2; stroke-linecap: square"/>
   </g>
   <g id="line2d_37">
    <path d="M 315.542403 118.591223 
L 315.542403 165.798056 
" clip-path="url(#p25cb1dbafb)" style="fill: none; stroke-dasharray: 7.4,3.2; stroke-dashoffset: 0; stroke: #fd46fc; stroke-width: 2"/>
   </g>
   <g id="patch_3">
    <path d="M 40.040625 169.667363 
L 40.040625 8.446243 
" style="fill: none; stroke: #000000; stroke-width: 0.6; stroke-linejoin: miter; stroke-linecap: square"/>
   </g>
   <g id="patch_4">
    <path d="M 40.040625 169.667363 
L 342.420625 169.667363 
" style="fill: none; stroke: #000000; stroke-width: 0.6; stroke-linejoin: miter; stroke-linecap: square"/>
   </g>
   <g id="text_19">
    <g id="patch_5">
     <path d="M 44.029736 166.925068 
L 62.929736 166.925068 
L 62.929736 149.193818 
L 44.029736 149.193818 
z
" style="fill: #ffffff; stroke: #a99ea3; stroke-width: 0.2; stroke-linejoin: miter"/>
    </g>
    <!-- $\theta_0$ -->
    <g transform="translate(48.029736 160.84538) scale(0.1 -0.1)">
     <defs>
      <path id="DejaVuSans-30" d="M 2034 4250 
Q 1547 4250 1301 3770 
Q 1056 3291 1056 2328 
Q 1056 1369 1301 889 
Q 1547 409 2034 409 
Q 2525 409 2770 889 
Q 3016 1369 3016 2328 
Q 3016 3291 2770 3770 
Q 2525 4250 2034 4250 
z
M 2034 4750 
Q 2819 4750 3233 4129 
Q 3647 3509 3647 2328 
Q 3647 1150 3233 529 
Q 2819 -91 2034 -91 
Q 1250 -91 836 529 
Q 422 1150 422 2328 
Q 422 3509 836 4129 
Q 1250 4750 2034 4750 
z
" transform="scale(0.015625)"/>
     </defs>
     <use xlink:href="#DejaVuSans-Oblique-3b8" transform="translate(0 0.234375)"/>
     <use xlink:href="#DejaVuSans-30" transform="translate(61.181641 -16.171875) scale(0.7)"/>
    </g>
   </g>
   <g id="text_20">
    <g id="patch_6">
     <path d="M 68.197069 59.06094 
L 119.397069 59.06094 
L 119.397069 41.16094 
L 68.197069 41.16094 
z
" style="fill: #ffffff; stroke: #a99ea3; stroke-width: 0.2; stroke-linejoin: miter"/>
    </g>
    <!-- $J'(\theta_0)&lt;0$ -->
    <g transform="translate(72.197069 52.96094) scale(0.1 -0.1)">
     <defs>
      <path id="Cmsy10-30" d="M 225 347 
Q 184 359 184 409 
L 966 3316 
Q 1003 3434 1093 3506 
Q 1184 3578 1300 3578 
Q 1450 3578 1564 3479 
Q 1678 3381 1678 3231 
Q 1678 3166 1644 3084 
L 488 319 
Q 466 275 428 275 
Q 394 275 320 306 
Q 247 338 225 347 
z
" transform="scale(0.015625)"/>
      <path id="DejaVuSans-3c" d="M 4684 3150 
L 1459 2003 
L 4684 863 
L 4684 294 
L 678 1747 
L 678 2266 
L 4684 3719 
L 4684 3150 
z
" transform="scale(0.015625)"/>
     </defs>
     <use xlink:href="#DejaVuSans-Oblique-4a" transform="translate(0 0.584375)"/>
     <use xlink:href="#Cmsy10-30" transform="translate(36.508958 38.865625) scale(0.7)"/>
     <use xlink:href="#DejaVuSans-28" transform="translate(58.486497 0.584375)"/>
     <use xlink:href="#DejaVuSans-Oblique-3b8" transform="translate(97.500169 0.584375)"/>
     <use xlink:href="#DejaVuSans-30" transform="translate(158.68181 -15.821875) scale(0.7)"/>
     <use xlink:href="#DejaVuSans-29" transform="translate(205.952318 0.584375)"/>
     <use xlink:href="#DejaVuSans-3c" transform="translate(264.448411 0.584375)"/>
     <use xlink:href="#DejaVuSans-30" transform="translate(367.719896 0.584375)"/>
    </g>
   </g>
   <g id="text_21">
    <g id="patch_7">
     <path d="M 319.531514 166.925068 
L 338.431514 166.925068 
L 338.431514 149.193818 
L 319.531514 149.193818 
z
" style="fill: #ffffff; stroke: #a99ea3; stroke-width: 0.2; stroke-linejoin: miter"/>
    </g>
    <!-- $\theta_0$ -->
    <g transform="translate(323.531514 160.84538) scale(0.1 -0.1)">
     <use xlink:href="#DejaVuSans-Oblique-3b8" transform="translate(0 0.234375)"/>
     <use xlink:href="#DejaVuSans-30" transform="translate(61.181641 -16.171875) scale(0.7)"/>
    </g>
   </g>
   <g id="text_22">
    <g id="patch_8">
     <path d="M 263.064181 127.541223 
L 314.264181 127.541223 
L 314.264181 109.641223 
L 263.064181 109.641223 
z
" style="fill: #ffffff; stroke: #a99ea3; stroke-width: 0.2; stroke-linejoin: miter"/>
    </g>
    <!-- $J'(\theta_0)&gt;0$ -->
    <g transform="translate(267.064181 121.441223) scale(0.1 -0.1)">
     <defs>
      <path id="DejaVuSans-3e" d="M 678 3150 
L 678 3719 
L 4684 2266 
L 4684 1747 
L 678 294 
L 678 863 
L 3897 2003 
L 678 3150 
z
" transform="scale(0.015625)"/>
     </defs>
     <use xlink:href="#DejaVuSans-Oblique-4a" transform="translate(0 0.584375)"/>
     <use xlink:href="#Cmsy10-30" transform="translate(36.508958 38.865625) scale(0.7)"/>
     <use xlink:href="#DejaVuSans-28" transform="translate(58.486497 0.584375)"/>
     <use xlink:href="#DejaVuSans-Oblique-3b8" transform="translate(97.500169 0.584375)"/>
     <use xlink:href="#DejaVuSans-30" transform="translate(158.68181 -15.821875) scale(0.7)"/>
     <use xlink:href="#DejaVuSans-29" transform="translate(205.952318 0.584375)"/>
     <use xlink:href="#DejaVuSans-3e" transform="translate(264.448411 0.584375)"/>
     <use xlink:href="#DejaVuSans-30" transform="translate(367.719896 0.584375)"/>
    </g>
   </g>
   <g id="line2d_38">
    <path d="M 60.199292 25.687885 
L 110.449862 208.329863 
L 110.449862 208.329863 
" clip-path="url(#p25cb1dbafb)" style="fill: none; stroke: #fd46fc; stroke-width: 2; stroke-linecap: square"/>
   </g>
   <g id="PathCollection_1">
    <defs>
     <path id="m2faa5c84fb" d="M 0 5 
C 1.326016 5 2.597899 4.473168 3.535534 3.535534 
C 4.473168 2.597899 5 1.326016 5 0 
C 5 -1.326016 4.473168 -2.597899 3.535534 -3.535534 
C 2.597899 -4.473168 1.326016 -5 0 -5 
C -1.326016 -5 -2.597899 -4.473168 -3.535534 -3.535534 
C -4.473168 -2.597899 -5 -1.326016 -5 0 
C -5 1.326016 -4.473168 2.597899 -3.535534 3.535534 
C -2.597899 4.473168 -1.326016 5 0 5 
z
" style="stroke: #fd46fc; stroke-width: 0.2"/>
    </defs>
    <g clip-path="url(#p25cb1dbafb)">
     <use xlink:href="#m2faa5c84fb" x="315.542403" y="118.591223" style="fill: #fd46fc; stroke: #fd46fc; stroke-width: 0.2"/>
    </g>
   </g>
   <g id="PathCollection_2">
    <g clip-path="url(#p25cb1dbafb)">
     <use xlink:href="#m2faa5c84fb" x="315.542403" y="165.798056" style="fill: #fd46fc; stroke: #fd46fc; stroke-width: 0.2"/>
    </g>
   </g>
   <g id="PathCollection_3">
    <g clip-path="url(#p25cb1dbafb)">
     <use xlink:href="#m2faa5c84fb" x="66.918847" y="50.11094" style="fill: #fd46fc; stroke: #fd46fc; stroke-width: 0.2"/>
    </g>
   </g>
   <g id="PathCollection_4">
    <g clip-path="url(#p25cb1dbafb)">
     <use xlink:href="#m2faa5c84fb" x="66.918847" y="165.798056" style="fill: #fd46fc; stroke: #fd46fc; stroke-width: 0.2"/>
    </g>
   </g>
  </g>
 </g>
 <defs>
  <clipPath id="p25cb1dbafb">
   <rect x="40.040625" y="8.446243" width="302.38" height="161.22112"/>
  </clipPath>
 </defs>
</svg>