<?xml version="1.0" encoding="utf-8" standalone="no"?>
<!DOCTYPE svg PUBLIC "-//W3C//DTD SVG 1.1//EN"
  "http://www.w3.org/Graphics/SVG/1.1/DTD/svg11.dtd">
<svg xmlns:xlink="http://www.w3.org/1999/xlink" width="453.202812pt" height="337.7025pt" viewBox="0 0 453.202812 337.7025" xmlns="http://www.w3.org/2000/svg" version="1.1">
 <metadata>
  <rdf:RDF xmlns:dc="http://purl.org/dc/elements/1.1/" xmlns:cc="http://creativecommons.org/ns#" xmlns:rdf="http://www.w3.org/1999/02/22-rdf-syntax-ns#">
   <cc:Work>
    <dc:type rdf:resource="http://purl.org/dc/dcmitype/StillImage"/>
    <dc:date>2023-11-15T19:07:56.326779</dc:date>
    <dc:format>image/svg+xml</dc:format>
    <dc:creator>
     <cc:Agent>
      <dc:title>Matplotlib v3.8.0, https://matplotlib.org/</dc:title>
     </cc:Agent>
    </dc:creator>
   </cc:Work>
  </rdf:RDF>
 </metadata>
 <defs>
  <style type="text/css">*{stroke-linejoin: round; stroke-linecap: butt}</style>
 </defs>
 <g id="figure_1">
  <g id="patch_1">
   <path d="M 0 337.7025 
L 453.202812 337.7025 
L 453.202812 0 
L 0 0 
z
" style="fill: #ffffff"/>
  </g>
  <g id="axes_1">
   <g id="patch_2">
    <path d="M 58.032813 300.04 
L 446.002813 300.04 
L 446.002813 7.2 
L 58.032813 7.2 
z
" style="fill: #ffffff"/>
   </g>
   <g id="patch_3">
    <path d="M 75.667812 300.04 
L 79.194812 300.04 
L 79.194812 294.386718 
L 75.667812 294.386718 
z
" clip-path="url(#p0c45dc71b3)" style="fill: #486afb; stroke: #000000; stroke-width: 0.2; stroke-linejoin: miter"/>
   </g>
   <g id="patch_4">
    <path d="M 79.194812 300.04 
L 82.721812 300.04 
L 82.721812 295.014861 
L 79.194812 295.014861 
z
" clip-path="url(#p0c45dc71b3)" style="fill: #486afb; stroke: #000000; stroke-width: 0.2; stroke-linejoin: miter"/>
   </g>
   <g id="patch_5">
    <path d="M 82.721812 300.04 
L 86.248812 300.04 
L 86.248812 293.130433 
L 82.721812 293.130433 
z
" clip-path="url(#p0c45dc71b3)" style="fill: #486afb; stroke: #000000; stroke-width: 0.2; stroke-linejoin: miter"/>
   </g>
   <g id="patch_6">
    <path d="M 86.248812 300.04 
L 89.775813 300.04 
L 89.775813 281.195727 
L 86.248812 281.195727 
z
" clip-path="url(#p0c45dc71b3)" style="fill: #486afb; stroke: #000000; stroke-width: 0.2; stroke-linejoin: miter"/>
   </g>
   <g id="patch_7">
    <path d="M 89.775813 300.04 
L 93.302813 300.04 
L 93.302813 269.889163 
L 89.775813 269.889163 
z
" clip-path="url(#p0c45dc71b3)" style="fill: #486afb; stroke: #000000; stroke-width: 0.2; stroke-linejoin: miter"/>
   </g>
   <g id="patch_8">
    <path d="M 93.302813 300.04 
L 96.829813 300.04 
L 96.829813 254.813745 
L 93.302813 254.813745 
z
" clip-path="url(#p0c45dc71b3)" style="fill: #486afb; stroke: #000000; stroke-width: 0.2; stroke-linejoin: miter"/>
   </g>
   <g id="patch_9">
    <path d="M 96.829813 300.04 
L 100.356813 300.04 
L 100.356813 236.597615 
L 96.829813 236.597615 
z
" clip-path="url(#p0c45dc71b3)" style="fill: #486afb; stroke: #000000; stroke-width: 0.2; stroke-linejoin: miter"/>
   </g>
   <g id="patch_10">
    <path d="M 100.356813 300.04 
L 103.883813 300.04 
L 103.883813 210.843775 
L 100.356813 210.843775 
z
" clip-path="url(#p0c45dc71b3)" style="fill: #486afb; stroke: #000000; stroke-width: 0.2; stroke-linejoin: miter"/>
   </g>
   <g id="patch_11">
    <path d="M 103.883813 300.04 
L 107.410813 300.04 
L 107.410813 181.949224 
L 103.883813 181.949224 
z
" clip-path="url(#p0c45dc71b3)" style="fill: #486afb; stroke: #000000; stroke-width: 0.2; stroke-linejoin: miter"/>
   </g>
   <g id="patch_12">
    <path d="M 107.410813 300.04 
L 110.937813 300.04 
L 110.937813 156.823526 
L 107.410813 156.823526 
z
" clip-path="url(#p0c45dc71b3)" style="fill: #486afb; stroke: #000000; stroke-width: 0.2; stroke-linejoin: miter"/>
   </g>
   <g id="patch_13">
    <path d="M 110.937813 300.04 
L 114.464813 300.04 
L 114.464813 146.773248 
L 110.937813 146.773248 
z
" clip-path="url(#p0c45dc71b3)" style="fill: #486afb; stroke: #000000; stroke-width: 0.2; stroke-linejoin: miter"/>
   </g>
   <g id="patch_14">
    <path d="M 114.464812 300.04 
L 117.991812 300.04 
L 117.991812 122.903835 
L 114.464812 122.903835 
z
" clip-path="url(#p0c45dc71b3)" style="fill: #486afb; stroke: #000000; stroke-width: 0.2; stroke-linejoin: miter"/>
   </g>
   <g id="patch_15">
    <path d="M 117.991813 300.04 
L 121.518813 300.04 
L 121.518813 109.084702 
L 117.991813 109.084702 
z
" clip-path="url(#p0c45dc71b3)" style="fill: #486afb; stroke: #000000; stroke-width: 0.2; stroke-linejoin: miter"/>
   </g>
   <g id="patch_16">
    <path d="M 121.518812 300.04 
L 125.045812 300.04 
L 125.045812 92.752999 
L 121.518812 92.752999 
z
" clip-path="url(#p0c45dc71b3)" style="fill: #486afb; stroke: #000000; stroke-width: 0.2; stroke-linejoin: miter"/>
   </g>
   <g id="patch_17">
    <path d="M 125.045812 300.04 
L 128.572812 300.04 
L 128.572812 75.165011 
L 125.045812 75.165011 
z
" clip-path="url(#p0c45dc71b3)" style="fill: #486afb; stroke: #000000; stroke-width: 0.2; stroke-linejoin: miter"/>
   </g>
   <g id="patch_18">
    <path d="M 128.572812 300.04 
L 132.099812 300.04 
L 132.099812 66.371017 
L 128.572812 66.371017 
z
" clip-path="url(#p0c45dc71b3)" style="fill: #486afb; stroke: #000000; stroke-width: 0.2; stroke-linejoin: miter"/>
   </g>
   <g id="patch_19">
    <path d="M 132.099812 300.04 
L 135.626812 300.04 
L 135.626812 58.833308 
L 132.099812 58.833308 
z
" clip-path="url(#p0c45dc71b3)" style="fill: #486afb; stroke: #000000; stroke-width: 0.2; stroke-linejoin: miter"/>
   </g>
   <g id="patch_20">
    <path d="M 135.626812 300.04 
L 139.153813 300.04 
L 139.153813 41.24532 
L 135.626812 41.24532 
z
" clip-path="url(#p0c45dc71b3)" style="fill: #486afb; stroke: #000000; stroke-width: 0.2; stroke-linejoin: miter"/>
   </g>
   <g id="patch_21">
    <path d="M 139.153813 300.04 
L 142.680813 300.04 
L 142.680813 50.039314 
L 139.153813 50.039314 
z
" clip-path="url(#p0c45dc71b3)" style="fill: #486afb; stroke: #000000; stroke-width: 0.2; stroke-linejoin: miter"/>
   </g>
   <g id="patch_22">
    <path d="M 142.680813 300.04 
L 146.207812 300.04 
L 146.207812 21.144762 
L 142.680813 21.144762 
z
" clip-path="url(#p0c45dc71b3)" style="fill: #486afb; stroke: #000000; stroke-width: 0.2; stroke-linejoin: miter"/>
   </g>
   <g id="patch_23">
    <path d="M 146.207812 300.04 
L 149.734812 300.04 
L 149.734812 61.97402 
L 146.207812 61.97402 
z
" clip-path="url(#p0c45dc71b3)" style="fill: #486afb; stroke: #000000; stroke-width: 0.2; stroke-linejoin: miter"/>
   </g>
   <g id="patch_24">
    <path d="M 149.734812 300.04 
L 153.261812 300.04 
L 153.261812 83.959005 
L 149.734812 83.959005 
z
" clip-path="url(#p0c45dc71b3)" style="fill: #486afb; stroke: #000000; stroke-width: 0.2; stroke-linejoin: miter"/>
   </g>
   <g id="patch_25">
    <path d="M 153.261812 300.04 
L 156.788813 300.04 
L 156.788813 72.652441 
L 153.261812 72.652441 
z
" clip-path="url(#p0c45dc71b3)" style="fill: #486afb; stroke: #000000; stroke-width: 0.2; stroke-linejoin: miter"/>
   </g>
   <g id="patch_26">
    <path d="M 156.788813 300.04 
L 160.315812 300.04 
L 160.315812 62.602162 
L 156.788813 62.602162 
z
" clip-path="url(#p0c45dc71b3)" style="fill: #486afb; stroke: #000000; stroke-width: 0.2; stroke-linejoin: miter"/>
   </g>
   <g id="patch_27">
    <path d="M 160.315812 300.04 
L 163.842812 300.04 
L 163.842812 84.587147 
L 160.315812 84.587147 
z
" clip-path="url(#p0c45dc71b3)" style="fill: #486afb; stroke: #000000; stroke-width: 0.2; stroke-linejoin: miter"/>
   </g>
   <g id="patch_28">
    <path d="M 163.842813 300.04 
L 167.369813 300.04 
L 167.369813 109.712844 
L 163.842813 109.712844 
z
" clip-path="url(#p0c45dc71b3)" style="fill: #486afb; stroke: #000000; stroke-width: 0.2; stroke-linejoin: miter"/>
   </g>
   <g id="patch_29">
    <path d="M 167.369812 300.04 
L 170.896813 300.04 
L 170.896813 105.315847 
L 167.369812 105.315847 
z
" clip-path="url(#p0c45dc71b3)" style="fill: #486afb; stroke: #000000; stroke-width: 0.2; stroke-linejoin: miter"/>
   </g>
   <g id="patch_30">
    <path d="M 170.896813 300.04 
L 174.423812 300.04 
L 174.423812 119.763123 
L 170.896813 119.763123 
z
" clip-path="url(#p0c45dc71b3)" style="fill: #486afb; stroke: #000000; stroke-width: 0.2; stroke-linejoin: miter"/>
   </g>
   <g id="patch_31">
    <path d="M 174.423812 300.04 
L 177.950813 300.04 
L 177.950813 122.903835 
L 174.423812 122.903835 
z
" clip-path="url(#p0c45dc71b3)" style="fill: #486afb; stroke: #000000; stroke-width: 0.2; stroke-linejoin: miter"/>
   </g>
   <g id="patch_32">
    <path d="M 177.950813 300.04 
L 181.477813 300.04 
L 181.477813 117.250553 
L 177.950813 117.250553 
z
" clip-path="url(#p0c45dc71b3)" style="fill: #486afb; stroke: #000000; stroke-width: 0.2; stroke-linejoin: miter"/>
   </g>
   <g id="patch_33">
    <path d="M 181.477812 300.04 
L 185.004813 300.04 
L 185.004813 132.954114 
L 181.477812 132.954114 
z
" clip-path="url(#p0c45dc71b3)" style="fill: #486afb; stroke: #000000; stroke-width: 0.2; stroke-linejoin: miter"/>
   </g>
   <g id="patch_34">
    <path d="M 185.004813 300.04 
L 188.531813 300.04 
L 188.531813 163.104951 
L 185.004813 163.104951 
z
" clip-path="url(#p0c45dc71b3)" style="fill: #486afb; stroke: #000000; stroke-width: 0.2; stroke-linejoin: miter"/>
   </g>
   <g id="patch_35">
    <path d="M 188.531813 300.04 
L 192.058812 300.04 
L 192.058812 160.592381 
L 188.531813 160.592381 
z
" clip-path="url(#p0c45dc71b3)" style="fill: #486afb; stroke: #000000; stroke-width: 0.2; stroke-linejoin: miter"/>
   </g>
   <g id="patch_36">
    <path d="M 192.058812 300.04 
L 195.585813 300.04 
L 195.585813 179.436654 
L 192.058812 179.436654 
z
" clip-path="url(#p0c45dc71b3)" style="fill: #486afb; stroke: #000000; stroke-width: 0.2; stroke-linejoin: miter"/>
   </g>
   <g id="patch_37">
    <path d="M 195.585812 300.04 
L 199.112812 300.04 
L 199.112812 175.667799 
L 195.585812 175.667799 
z
" clip-path="url(#p0c45dc71b3)" style="fill: #486afb; stroke: #000000; stroke-width: 0.2; stroke-linejoin: miter"/>
   </g>
   <g id="patch_38">
    <path d="M 199.112812 300.04 
L 202.639813 300.04 
L 202.639813 176.295942 
L 199.112812 176.295942 
z
" clip-path="url(#p0c45dc71b3)" style="fill: #486afb; stroke: #000000; stroke-width: 0.2; stroke-linejoin: miter"/>
   </g>
   <g id="patch_39">
    <path d="M 202.639813 300.04 
L 206.166812 300.04 
L 206.166812 154.939099 
L 202.639813 154.939099 
z
" clip-path="url(#p0c45dc71b3)" style="fill: #486afb; stroke: #000000; stroke-width: 0.2; stroke-linejoin: miter"/>
   </g>
   <g id="patch_40">
    <path d="M 206.166812 300.04 
L 209.693813 300.04 
L 209.693813 166.873805 
L 206.166812 166.873805 
z
" clip-path="url(#p0c45dc71b3)" style="fill: #486afb; stroke: #000000; stroke-width: 0.2; stroke-linejoin: miter"/>
   </g>
   <g id="patch_41">
    <path d="M 209.693812 300.04 
L 213.220812 300.04 
L 213.220812 185.718078 
L 209.693812 185.718078 
z
" clip-path="url(#p0c45dc71b3)" style="fill: #486afb; stroke: #000000; stroke-width: 0.2; stroke-linejoin: miter"/>
   </g>
   <g id="patch_42">
    <path d="M 213.220812 300.04 
L 216.747812 300.04 
L 216.747812 191.999502 
L 213.220812 191.999502 
z
" clip-path="url(#p0c45dc71b3)" style="fill: #486afb; stroke: #000000; stroke-width: 0.2; stroke-linejoin: miter"/>
   </g>
   <g id="patch_43">
    <path d="M 216.747813 300.04 
L 220.274812 300.04 
L 220.274812 198.909069 
L 216.747813 198.909069 
z
" clip-path="url(#p0c45dc71b3)" style="fill: #486afb; stroke: #000000; stroke-width: 0.2; stroke-linejoin: miter"/>
   </g>
   <g id="patch_44">
    <path d="M 220.274812 300.04 
L 223.801812 300.04 
L 223.801812 219.009627 
L 220.274812 219.009627 
z
" clip-path="url(#p0c45dc71b3)" style="fill: #486afb; stroke: #000000; stroke-width: 0.2; stroke-linejoin: miter"/>
   </g>
   <g id="patch_45">
    <path d="M 223.801812 300.04 
L 227.328812 300.04 
L 227.328812 219.009627 
L 223.801812 219.009627 
z
" clip-path="url(#p0c45dc71b3)" style="fill: #486afb; stroke: #000000; stroke-width: 0.2; stroke-linejoin: miter"/>
   </g>
   <g id="patch_46">
    <path d="M 227.328813 300.04 
L 230.855813 300.04 
L 230.855813 222.778481 
L 227.328813 222.778481 
z
" clip-path="url(#p0c45dc71b3)" style="fill: #486afb; stroke: #000000; stroke-width: 0.2; stroke-linejoin: miter"/>
   </g>
   <g id="patch_47">
    <path d="M 230.855813 300.04 
L 234.382813 300.04 
L 234.382813 232.200618 
L 230.855813 232.200618 
z
" clip-path="url(#p0c45dc71b3)" style="fill: #486afb; stroke: #000000; stroke-width: 0.2; stroke-linejoin: miter"/>
   </g>
   <g id="patch_48">
    <path d="M 234.382812 300.04 
L 237.909812 300.04 
L 237.909812 213.356345 
L 234.382812 213.356345 
z
" clip-path="url(#p0c45dc71b3)" style="fill: #486afb; stroke: #000000; stroke-width: 0.2; stroke-linejoin: miter"/>
   </g>
   <g id="patch_49">
    <path d="M 237.909812 300.04 
L 241.436813 300.04 
L 241.436813 219.009627 
L 237.909812 219.009627 
z
" clip-path="url(#p0c45dc71b3)" style="fill: #486afb; stroke: #000000; stroke-width: 0.2; stroke-linejoin: miter"/>
   </g>
   <g id="patch_50">
    <path d="M 241.436813 300.04 
L 244.963813 300.04 
L 244.963813 227.803621 
L 241.436813 227.803621 
z
" clip-path="url(#p0c45dc71b3)" style="fill: #486afb; stroke: #000000; stroke-width: 0.2; stroke-linejoin: miter"/>
   </g>
   <g id="patch_51">
    <path d="M 244.963813 300.04 
L 248.490813 300.04 
L 248.490813 220.265912 
L 244.963813 220.265912 
z
" clip-path="url(#p0c45dc71b3)" style="fill: #486afb; stroke: #000000; stroke-width: 0.2; stroke-linejoin: miter"/>
   </g>
   <g id="patch_52">
    <path d="M 248.490813 300.04 
L 252.017813 300.04 
L 252.017813 227.175478 
L 248.490813 227.175478 
z
" clip-path="url(#p0c45dc71b3)" style="fill: #486afb; stroke: #000000; stroke-width: 0.2; stroke-linejoin: miter"/>
   </g>
   <g id="patch_53">
    <path d="M 252.017812 300.04 
L 255.544813 300.04 
L 255.544813 241.622754 
L 252.017812 241.622754 
z
" clip-path="url(#p0c45dc71b3)" style="fill: #486afb; stroke: #000000; stroke-width: 0.2; stroke-linejoin: miter"/>
   </g>
   <g id="patch_54">
    <path d="M 255.544812 300.04 
L 259.071812 300.04 
L 259.071812 257.954457 
L 255.544812 257.954457 
z
" clip-path="url(#p0c45dc71b3)" style="fill: #486afb; stroke: #000000; stroke-width: 0.2; stroke-linejoin: miter"/>
   </g>
   <g id="patch_55">
    <path d="M 259.071813 300.04 
L 262.598813 300.04 
L 262.598813 250.416748 
L 259.071813 250.416748 
z
" clip-path="url(#p0c45dc71b3)" style="fill: #486afb; stroke: #000000; stroke-width: 0.2; stroke-linejoin: miter"/>
   </g>
   <g id="patch_56">
    <path d="M 262.598812 300.04 
L 266.125812 300.04 
L 266.125812 256.07003 
L 262.598812 256.07003 
z
" clip-path="url(#p0c45dc71b3)" style="fill: #486afb; stroke: #000000; stroke-width: 0.2; stroke-linejoin: miter"/>
   </g>
   <g id="patch_57">
    <path d="M 266.125812 300.04 
L 269.652812 300.04 
L 269.652812 232.200618 
L 266.125812 232.200618 
z
" clip-path="url(#p0c45dc71b3)" style="fill: #486afb; stroke: #000000; stroke-width: 0.2; stroke-linejoin: miter"/>
   </g>
   <g id="patch_58">
    <path d="M 269.652812 300.04 
L 273.179812 300.04 
L 273.179812 250.416748 
L 269.652812 250.416748 
z
" clip-path="url(#p0c45dc71b3)" style="fill: #486afb; stroke: #000000; stroke-width: 0.2; stroke-linejoin: miter"/>
   </g>
   <g id="patch_59">
    <path d="M 273.179812 300.04 
L 276.706812 300.04 
L 276.706812 247.276036 
L 273.179812 247.276036 
z
" clip-path="url(#p0c45dc71b3)" style="fill: #486afb; stroke: #000000; stroke-width: 0.2; stroke-linejoin: miter"/>
   </g>
   <g id="patch_60">
    <path d="M 276.706813 300.04 
L 280.233812 300.04 
L 280.233812 262.351454 
L 276.706813 262.351454 
z
" clip-path="url(#p0c45dc71b3)" style="fill: #486afb; stroke: #000000; stroke-width: 0.2; stroke-linejoin: miter"/>
   </g>
   <g id="patch_61">
    <path d="M 280.233812 300.04 
L 283.760812 300.04 
L 283.760812 250.416748 
L 280.233812 250.416748 
z
" clip-path="url(#p0c45dc71b3)" style="fill: #486afb; stroke: #000000; stroke-width: 0.2; stroke-linejoin: miter"/>
   </g>
   <g id="patch_62">
    <path d="M 283.760812 300.04 
L 287.287812 300.04 
L 287.287812 257.954457 
L 283.760812 257.954457 
z
" clip-path="url(#p0c45dc71b3)" style="fill: #486afb; stroke: #000000; stroke-width: 0.2; stroke-linejoin: miter"/>
   </g>
   <g id="patch_63">
    <path d="M 287.287812 300.04 
L 290.814812 300.04 
L 290.814812 267.376594 
L 287.287812 267.376594 
z
" clip-path="url(#p0c45dc71b3)" style="fill: #486afb; stroke: #000000; stroke-width: 0.2; stroke-linejoin: miter"/>
   </g>
   <g id="patch_64">
    <path d="M 290.814812 300.04 
L 294.341812 300.04 
L 294.341812 263.607739 
L 290.814812 263.607739 
z
" clip-path="url(#p0c45dc71b3)" style="fill: #486afb; stroke: #000000; stroke-width: 0.2; stroke-linejoin: miter"/>
   </g>
   <g id="patch_65">
    <path d="M 294.341813 300.04 
L 297.868812 300.04 
L 297.868812 266.120309 
L 294.341813 266.120309 
z
" clip-path="url(#p0c45dc71b3)" style="fill: #486afb; stroke: #000000; stroke-width: 0.2; stroke-linejoin: miter"/>
   </g>
   <g id="patch_66">
    <path d="M 297.868812 300.04 
L 301.395812 300.04 
L 301.395812 266.748451 
L 297.868812 266.748451 
z
" clip-path="url(#p0c45dc71b3)" style="fill: #486afb; stroke: #000000; stroke-width: 0.2; stroke-linejoin: miter"/>
   </g>
   <g id="patch_67">
    <path d="M 301.395812 300.04 
L 304.922812 300.04 
L 304.922812 268.632879 
L 301.395812 268.632879 
z
" clip-path="url(#p0c45dc71b3)" style="fill: #486afb; stroke: #000000; stroke-width: 0.2; stroke-linejoin: miter"/>
   </g>
   <g id="patch_68">
    <path d="M 304.922812 300.04 
L 308.449812 300.04 
L 308.449812 264.864024 
L 304.922812 264.864024 
z
" clip-path="url(#p0c45dc71b3)" style="fill: #486afb; stroke: #000000; stroke-width: 0.2; stroke-linejoin: miter"/>
   </g>
   <g id="patch_69">
    <path d="M 308.449813 300.04 
L 311.976812 300.04 
L 311.976812 268.004736 
L 308.449813 268.004736 
z
" clip-path="url(#p0c45dc71b3)" style="fill: #486afb; stroke: #000000; stroke-width: 0.2; stroke-linejoin: miter"/>
   </g>
   <g id="patch_70">
    <path d="M 311.976812 300.04 
L 315.503812 300.04 
L 315.503812 261.723312 
L 311.976812 261.723312 
z
" clip-path="url(#p0c45dc71b3)" style="fill: #486afb; stroke: #000000; stroke-width: 0.2; stroke-linejoin: miter"/>
   </g>
   <g id="patch_71">
    <path d="M 315.503812 300.04 
L 319.030812 300.04 
L 319.030812 268.632879 
L 315.503812 268.632879 
z
" clip-path="url(#p0c45dc71b3)" style="fill: #486afb; stroke: #000000; stroke-width: 0.2; stroke-linejoin: miter"/>
   </g>
   <g id="patch_72">
    <path d="M 319.030812 300.04 
L 322.557812 300.04 
L 322.557812 274.28616 
L 319.030812 274.28616 
z
" clip-path="url(#p0c45dc71b3)" style="fill: #486afb; stroke: #000000; stroke-width: 0.2; stroke-linejoin: miter"/>
   </g>
   <g id="patch_73">
    <path d="M 322.557812 300.04 
L 326.084812 300.04 
L 326.084812 274.914303 
L 322.557812 274.914303 
z
" clip-path="url(#p0c45dc71b3)" style="fill: #486afb; stroke: #000000; stroke-width: 0.2; stroke-linejoin: miter"/>
   </g>
   <g id="patch_74">
    <path d="M 326.084812 300.04 
L 329.611812 300.04 
L 329.611812 281.195727 
L 326.084812 281.195727 
z
" clip-path="url(#p0c45dc71b3)" style="fill: #486afb; stroke: #000000; stroke-width: 0.2; stroke-linejoin: miter"/>
   </g>
   <g id="patch_75">
    <path d="M 329.611812 300.04 
L 333.138812 300.04 
L 333.138812 271.145448 
L 329.611812 271.145448 
z
" clip-path="url(#p0c45dc71b3)" style="fill: #486afb; stroke: #000000; stroke-width: 0.2; stroke-linejoin: miter"/>
   </g>
   <g id="patch_76">
    <path d="M 333.138812 300.04 
L 336.665812 300.04 
L 336.665812 274.914303 
L 333.138812 274.914303 
z
" clip-path="url(#p0c45dc71b3)" style="fill: #486afb; stroke: #000000; stroke-width: 0.2; stroke-linejoin: miter"/>
   </g>
   <g id="patch_77">
    <path d="M 336.665812 300.04 
L 340.192812 300.04 
L 340.192812 271.773591 
L 336.665812 271.773591 
z
" clip-path="url(#p0c45dc71b3)" style="fill: #486afb; stroke: #000000; stroke-width: 0.2; stroke-linejoin: miter"/>
   </g>
   <g id="patch_78">
    <path d="M 340.192812 300.04 
L 343.719812 300.04 
L 343.719812 266.120309 
L 340.192812 266.120309 
z
" clip-path="url(#p0c45dc71b3)" style="fill: #486afb; stroke: #000000; stroke-width: 0.2; stroke-linejoin: miter"/>
   </g>
   <g id="patch_79">
    <path d="M 343.719812 300.04 
L 347.246812 300.04 
L 347.246812 268.632879 
L 343.719812 268.632879 
z
" clip-path="url(#p0c45dc71b3)" style="fill: #486afb; stroke: #000000; stroke-width: 0.2; stroke-linejoin: miter"/>
   </g>
   <g id="patch_80">
    <path d="M 347.246812 300.04 
L 350.773812 300.04 
L 350.773812 271.145448 
L 347.246812 271.145448 
z
" clip-path="url(#p0c45dc71b3)" style="fill: #486afb; stroke: #000000; stroke-width: 0.2; stroke-linejoin: miter"/>
   </g>
   <g id="patch_81">
    <path d="M 350.773812 300.04 
L 354.300812 300.04 
L 354.300812 283.080154 
L 350.773812 283.080154 
z
" clip-path="url(#p0c45dc71b3)" style="fill: #486afb; stroke: #000000; stroke-width: 0.2; stroke-linejoin: miter"/>
   </g>
   <g id="patch_82">
    <path d="M 354.300813 300.04 
L 357.827812 300.04 
L 357.827812 285.592724 
L 354.300813 285.592724 
z
" clip-path="url(#p0c45dc71b3)" style="fill: #486afb; stroke: #000000; stroke-width: 0.2; stroke-linejoin: miter"/>
   </g>
   <g id="patch_83">
    <path d="M 357.827812 300.04 
L 361.354812 300.04 
L 361.354812 283.708297 
L 357.827812 283.708297 
z
" clip-path="url(#p0c45dc71b3)" style="fill: #486afb; stroke: #000000; stroke-width: 0.2; stroke-linejoin: miter"/>
   </g>
   <g id="patch_84">
    <path d="M 361.354812 300.04 
L 364.881812 300.04 
L 364.881812 284.964582 
L 361.354812 284.964582 
z
" clip-path="url(#p0c45dc71b3)" style="fill: #486afb; stroke: #000000; stroke-width: 0.2; stroke-linejoin: miter"/>
   </g>
   <g id="patch_85">
    <path d="M 364.881812 300.04 
L 368.408812 300.04 
L 368.408812 287.477151 
L 364.881812 287.477151 
z
" clip-path="url(#p0c45dc71b3)" style="fill: #486afb; stroke: #000000; stroke-width: 0.2; stroke-linejoin: miter"/>
   </g>
   <g id="patch_86">
    <path d="M 368.408812 300.04 
L 371.935812 300.04 
L 371.935812 284.964582 
L 368.408812 284.964582 
z
" clip-path="url(#p0c45dc71b3)" style="fill: #486afb; stroke: #000000; stroke-width: 0.2; stroke-linejoin: miter"/>
   </g>
   <g id="patch_87">
    <path d="M 371.935812 300.04 
L 375.462812 300.04 
L 375.462812 285.592724 
L 371.935812 285.592724 
z
" clip-path="url(#p0c45dc71b3)" style="fill: #486afb; stroke: #000000; stroke-width: 0.2; stroke-linejoin: miter"/>
   </g>
   <g id="patch_88">
    <path d="M 375.462812 300.04 
L 378.989812 300.04 
L 378.989812 286.220867 
L 375.462812 286.220867 
z
" clip-path="url(#p0c45dc71b3)" style="fill: #486afb; stroke: #000000; stroke-width: 0.2; stroke-linejoin: miter"/>
   </g>
   <g id="patch_89">
    <path d="M 378.989812 300.04 
L 382.516812 300.04 
L 382.516812 283.708297 
L 378.989812 283.708297 
z
" clip-path="url(#p0c45dc71b3)" style="fill: #486afb; stroke: #000000; stroke-width: 0.2; stroke-linejoin: miter"/>
   </g>
   <g id="patch_90">
    <path d="M 382.516812 300.04 
L 386.043812 300.04 
L 386.043812 284.336439 
L 382.516812 284.336439 
z
" clip-path="url(#p0c45dc71b3)" style="fill: #486afb; stroke: #000000; stroke-width: 0.2; stroke-linejoin: miter"/>
   </g>
   <g id="patch_91">
    <path d="M 386.043813 300.04 
L 389.570812 300.04 
L 389.570812 287.477151 
L 386.043813 287.477151 
z
" clip-path="url(#p0c45dc71b3)" style="fill: #486afb; stroke: #000000; stroke-width: 0.2; stroke-linejoin: miter"/>
   </g>
   <g id="patch_92">
    <path d="M 389.570812 300.04 
L 393.097812 300.04 
L 393.097812 291.874148 
L 389.570812 291.874148 
z
" clip-path="url(#p0c45dc71b3)" style="fill: #486afb; stroke: #000000; stroke-width: 0.2; stroke-linejoin: miter"/>
   </g>
   <g id="patch_93">
    <path d="M 393.097812 300.04 
L 396.624812 300.04 
L 396.624812 279.939442 
L 393.097812 279.939442 
z
" clip-path="url(#p0c45dc71b3)" style="fill: #486afb; stroke: #000000; stroke-width: 0.2; stroke-linejoin: miter"/>
   </g>
   <g id="patch_94">
    <path d="M 396.624812 300.04 
L 400.151812 300.04 
L 400.151812 278.055015 
L 396.624812 278.055015 
z
" clip-path="url(#p0c45dc71b3)" style="fill: #486afb; stroke: #000000; stroke-width: 0.2; stroke-linejoin: miter"/>
   </g>
   <g id="patch_95">
    <path d="M 400.151812 300.04 
L 403.678812 300.04 
L 403.678812 272.401733 
L 400.151812 272.401733 
z
" clip-path="url(#p0c45dc71b3)" style="fill: #486afb; stroke: #000000; stroke-width: 0.2; stroke-linejoin: miter"/>
   </g>
   <g id="patch_96">
    <path d="M 403.678812 300.04 
L 407.205812 300.04 
L 407.205812 269.889163 
L 403.678812 269.889163 
z
" clip-path="url(#p0c45dc71b3)" style="fill: #486afb; stroke: #000000; stroke-width: 0.2; stroke-linejoin: miter"/>
   </g>
   <g id="patch_97">
    <path d="M 407.205812 300.04 
L 410.732812 300.04 
L 410.732812 271.145448 
L 407.205812 271.145448 
z
" clip-path="url(#p0c45dc71b3)" style="fill: #486afb; stroke: #000000; stroke-width: 0.2; stroke-linejoin: miter"/>
   </g>
   <g id="patch_98">
    <path d="M 410.732812 300.04 
L 414.259812 300.04 
L 414.259812 277.426873 
L 410.732812 277.426873 
z
" clip-path="url(#p0c45dc71b3)" style="fill: #486afb; stroke: #000000; stroke-width: 0.2; stroke-linejoin: miter"/>
   </g>
   <g id="patch_99">
    <path d="M 414.259812 300.04 
L 417.786812 300.04 
L 417.786812 281.195727 
L 414.259812 281.195727 
z
" clip-path="url(#p0c45dc71b3)" style="fill: #486afb; stroke: #000000; stroke-width: 0.2; stroke-linejoin: miter"/>
   </g>
   <g id="patch_100">
    <path d="M 417.786812 300.04 
L 421.313812 300.04 
L 421.313812 293.758576 
L 417.786812 293.758576 
z
" clip-path="url(#p0c45dc71b3)" style="fill: #486afb; stroke: #000000; stroke-width: 0.2; stroke-linejoin: miter"/>
   </g>
   <g id="patch_101">
    <path d="M 421.313812 300.04 
L 424.840812 300.04 
L 424.840812 295.014861 
L 421.313812 295.014861 
z
" clip-path="url(#p0c45dc71b3)" style="fill: #486afb; stroke: #000000; stroke-width: 0.2; stroke-linejoin: miter"/>
   </g>
   <g id="patch_102">
    <path d="M 424.840812 300.04 
L 428.367812 300.04 
L 428.367812 296.899288 
L 424.840812 296.899288 
z
" clip-path="url(#p0c45dc71b3)" style="fill: #486afb; stroke: #000000; stroke-width: 0.2; stroke-linejoin: miter"/>
   </g>
   <g id="matplotlib.axis_1">
    <g id="xtick_1">
     <g id="line2d_1">
      <path d="M 78.142107 300.04 
L 78.142107 7.2 
" clip-path="url(#p0c45dc71b3)" style="fill: none; stroke-dasharray: 2.22,0.96; stroke-dashoffset: 0; stroke: #6c6066; stroke-opacity: 0.4; stroke-width: 0.6"/>
     </g>
     <g id="line2d_2">
      <defs>
       <path id="m22c4c80b1a" d="M 0 0 
L 0 3.5 
" style="stroke: #000000; stroke-width: 0.8"/>
      </defs>
      <g>
       <use xlink:href="#m22c4c80b1a" x="78.142107" y="300.04" style="stroke: #000000; stroke-width: 0.8"/>
      </g>
     </g>
     <g id="text_1">
      <!-- 0 -->
      <g transform="translate(75.13195 314.691562) scale(0.1 -0.1)">
       <defs>
        <path id="DejaVuSansMono-30" d="M 1509 2344 
Q 1509 2516 1629 2641 
Q 1750 2766 1919 2766 
Q 2094 2766 2219 2641 
Q 2344 2516 2344 2344 
Q 2344 2169 2220 2047 
Q 2097 1925 1919 1925 
Q 1744 1925 1626 2044 
Q 1509 2163 1509 2344 
z
M 1925 4250 
Q 1484 4250 1267 3775 
Q 1050 3300 1050 2328 
Q 1050 1359 1267 884 
Q 1484 409 1925 409 
Q 2369 409 2586 884 
Q 2803 1359 2803 2328 
Q 2803 3300 2586 3775 
Q 2369 4250 1925 4250 
z
M 1925 4750 
Q 2672 4750 3055 4137 
Q 3438 3525 3438 2328 
Q 3438 1134 3055 521 
Q 2672 -91 1925 -91 
Q 1178 -91 797 521 
Q 416 1134 416 2328 
Q 416 3525 797 4137 
Q 1178 4750 1925 4750 
z
" transform="scale(0.015625)"/>
       </defs>
       <use xlink:href="#DejaVuSansMono-30"/>
      </g>
     </g>
    </g>
    <g id="xtick_2">
     <g id="line2d_3">
      <path d="M 144.655392 300.04 
L 144.655392 7.2 
" clip-path="url(#p0c45dc71b3)" style="fill: none; stroke-dasharray: 2.22,0.96; stroke-dashoffset: 0; stroke: #6c6066; stroke-opacity: 0.4; stroke-width: 0.6"/>
     </g>
     <g id="line2d_4">
      <g>
       <use xlink:href="#m22c4c80b1a" x="144.655392" y="300.04" style="stroke: #000000; stroke-width: 0.8"/>
      </g>
     </g>
     <g id="text_2">
      <!-- 100 -->
      <g transform="translate(135.624924 314.691562) scale(0.1 -0.1)">
       <defs>
        <path id="DejaVuSansMono-31" d="M 844 531 
L 1825 531 
L 1825 4097 
L 769 3859 
L 769 4434 
L 1819 4666 
L 2450 4666 
L 2450 531 
L 3419 531 
L 3419 0 
L 844 0 
L 844 531 
z
" transform="scale(0.015625)"/>
       </defs>
       <use xlink:href="#DejaVuSansMono-31"/>
       <use xlink:href="#DejaVuSansMono-30" x="60.205078"/>
       <use xlink:href="#DejaVuSansMono-30" x="120.410156"/>
      </g>
     </g>
    </g>
    <g id="xtick_3">
     <g id="line2d_5">
      <path d="M 211.168678 300.04 
L 211.168678 7.2 
" clip-path="url(#p0c45dc71b3)" style="fill: none; stroke-dasharray: 2.22,0.96; stroke-dashoffset: 0; stroke: #6c6066; stroke-opacity: 0.4; stroke-width: 0.6"/>
     </g>
     <g id="line2d_6">
      <g>
       <use xlink:href="#m22c4c80b1a" x="211.168678" y="300.04" style="stroke: #000000; stroke-width: 0.8"/>
      </g>
     </g>
     <g id="text_3">
      <!-- 200 -->
      <g transform="translate(202.138209 314.691562) scale(0.1 -0.1)">
       <defs>
        <path id="DejaVuSansMono-32" d="M 1166 531 
L 3309 531 
L 3309 0 
L 475 0 
L 475 531 
Q 1059 1147 1496 1619 
Q 1934 2091 2100 2284 
Q 2413 2666 2522 2902 
Q 2631 3138 2631 3384 
Q 2631 3775 2401 3997 
Q 2172 4219 1772 4219 
Q 1488 4219 1175 4116 
Q 863 4013 513 3803 
L 513 4441 
Q 834 4594 1145 4672 
Q 1456 4750 1759 4750 
Q 2444 4750 2861 4386 
Q 3278 4022 3278 3431 
Q 3278 3131 3139 2831 
Q 3000 2531 2688 2169 
Q 2513 1966 2180 1606 
Q 1847 1247 1166 531 
z
" transform="scale(0.015625)"/>
       </defs>
       <use xlink:href="#DejaVuSansMono-32"/>
       <use xlink:href="#DejaVuSansMono-30" x="60.205078"/>
       <use xlink:href="#DejaVuSansMono-30" x="120.410156"/>
      </g>
     </g>
    </g>
    <g id="xtick_4">
     <g id="line2d_7">
      <path d="M 277.681964 300.04 
L 277.681964 7.2 
" clip-path="url(#p0c45dc71b3)" style="fill: none; stroke-dasharray: 2.22,0.96; stroke-dashoffset: 0; stroke: #6c6066; stroke-opacity: 0.4; stroke-width: 0.6"/>
     </g>
     <g id="line2d_8">
      <g>
       <use xlink:href="#m22c4c80b1a" x="277.681964" y="300.04" style="stroke: #000000; stroke-width: 0.8"/>
      </g>
     </g>
     <g id="text_4">
      <!-- 300 -->
      <g transform="translate(268.651495 314.691562) scale(0.1 -0.1)">
       <defs>
        <path id="DejaVuSansMono-33" d="M 2425 2497 
Q 2884 2375 3128 2064 
Q 3372 1753 3372 1288 
Q 3372 644 2939 276 
Q 2506 -91 1741 -91 
Q 1419 -91 1084 -31 
Q 750 28 428 141 
L 428 769 
Q 747 603 1056 522 
Q 1366 441 1672 441 
Q 2191 441 2469 675 
Q 2747 909 2747 1350 
Q 2747 1756 2469 1995 
Q 2191 2234 1716 2234 
L 1234 2234 
L 1234 2753 
L 1716 2753 
Q 2150 2753 2394 2943 
Q 2638 3134 2638 3475 
Q 2638 3834 2411 4026 
Q 2184 4219 1766 4219 
Q 1488 4219 1191 4156 
Q 894 4094 569 3969 
L 569 4550 
Q 947 4650 1242 4700 
Q 1538 4750 1766 4750 
Q 2447 4750 2855 4408 
Q 3263 4066 3263 3500 
Q 3263 3116 3048 2859 
Q 2834 2603 2425 2497 
z
" transform="scale(0.015625)"/>
       </defs>
       <use xlink:href="#DejaVuSansMono-33"/>
       <use xlink:href="#DejaVuSansMono-30" x="60.205078"/>
       <use xlink:href="#DejaVuSansMono-30" x="120.410156"/>
      </g>
     </g>
    </g>
    <g id="xtick_5">
     <g id="line2d_9">
      <path d="M 344.195249 300.04 
L 344.195249 7.2 
" clip-path="url(#p0c45dc71b3)" style="fill: none; stroke-dasharray: 2.22,0.96; stroke-dashoffset: 0; stroke: #6c6066; stroke-opacity: 0.4; stroke-width: 0.6"/>
     </g>
     <g id="line2d_10">
      <g>
       <use xlink:href="#m22c4c80b1a" x="344.195249" y="300.04" style="stroke: #000000; stroke-width: 0.8"/>
      </g>
     </g>
     <g id="text_5">
      <!-- 400 -->
      <g transform="translate(335.164781 314.691562) scale(0.1 -0.1)">
       <defs>
        <path id="DejaVuSansMono-34" d="M 2297 4091 
L 825 1625 
L 2297 1625 
L 2297 4091 
z
M 2194 4666 
L 2925 4666 
L 2925 1625 
L 3547 1625 
L 3547 1113 
L 2925 1113 
L 2925 0 
L 2297 0 
L 2297 1113 
L 319 1113 
L 319 1709 
L 2194 4666 
z
" transform="scale(0.015625)"/>
       </defs>
       <use xlink:href="#DejaVuSansMono-34"/>
       <use xlink:href="#DejaVuSansMono-30" x="60.205078"/>
       <use xlink:href="#DejaVuSansMono-30" x="120.410156"/>
      </g>
     </g>
    </g>
    <g id="xtick_6">
     <g id="line2d_11">
      <path d="M 410.708535 300.04 
L 410.708535 7.2 
" clip-path="url(#p0c45dc71b3)" style="fill: none; stroke-dasharray: 2.22,0.96; stroke-dashoffset: 0; stroke: #6c6066; stroke-opacity: 0.4; stroke-width: 0.6"/>
     </g>
     <g id="line2d_12">
      <g>
       <use xlink:href="#m22c4c80b1a" x="410.708535" y="300.04" style="stroke: #000000; stroke-width: 0.8"/>
      </g>
     </g>
     <g id="text_6">
      <!-- 500 -->
      <g transform="translate(401.678066 314.691562) scale(0.1 -0.1)">
       <defs>
        <path id="DejaVuSansMono-35" d="M 647 4666 
L 3009 4666 
L 3009 4134 
L 1222 4134 
L 1222 2988 
Q 1356 3038 1492 3061 
Q 1628 3084 1766 3084 
Q 2491 3084 2916 2656 
Q 3341 2228 3341 1497 
Q 3341 759 2895 334 
Q 2450 -91 1678 -91 
Q 1306 -91 998 -41 
Q 691 9 447 109 
L 447 750 
Q 734 594 1025 517 
Q 1316 441 1619 441 
Q 2141 441 2423 716 
Q 2706 991 2706 1497 
Q 2706 1997 2414 2275 
Q 2122 2553 1600 2553 
Q 1347 2553 1106 2495 
Q 866 2438 647 2322 
L 647 4666 
z
" transform="scale(0.015625)"/>
       </defs>
       <use xlink:href="#DejaVuSansMono-35"/>
       <use xlink:href="#DejaVuSansMono-30" x="60.205078"/>
       <use xlink:href="#DejaVuSansMono-30" x="120.410156"/>
      </g>
     </g>
    </g>
    <g id="text_7">
     <!-- price -->
     <g transform="translate(236.967031 328.422812) scale(0.1 -0.1)">
      <defs>
       <path id="DejaVuSansMono-70" d="M 1172 441 
L 1172 -1331 
L 594 -1331 
L 594 3500 
L 1172 3500 
L 1172 3053 
Q 1316 3313 1555 3448 
Q 1794 3584 2106 3584 
Q 2741 3584 3102 3093 
Q 3463 2603 3463 1734 
Q 3463 881 3100 395 
Q 2738 -91 2106 -91 
Q 1788 -91 1548 45 
Q 1309 181 1172 441 
z
M 2859 1747 
Q 2859 2416 2648 2756 
Q 2438 3097 2022 3097 
Q 1603 3097 1387 2755 
Q 1172 2413 1172 1747 
Q 1172 1084 1387 740 
Q 1603 397 2022 397 
Q 2438 397 2648 737 
Q 2859 1078 2859 1747 
z
" transform="scale(0.015625)"/>
       <path id="DejaVuSansMono-72" d="M 3609 2778 
Q 3425 2922 3234 2987 
Q 3044 3053 2816 3053 
Q 2278 3053 1993 2715 
Q 1709 2378 1709 1741 
L 1709 0 
L 1131 0 
L 1131 3500 
L 1709 3500 
L 1709 2816 
Q 1853 3188 2151 3386 
Q 2450 3584 2859 3584 
Q 3072 3584 3256 3531 
Q 3441 3478 3609 3366 
L 3609 2778 
z
" transform="scale(0.015625)"/>
       <path id="DejaVuSansMono-69" d="M 800 3500 
L 2272 3500 
L 2272 447 
L 3413 447 
L 3413 0 
L 556 0 
L 556 447 
L 1697 447 
L 1697 3053 
L 800 3053 
L 800 3500 
z
M 1697 4863 
L 2272 4863 
L 2272 4134 
L 1697 4134 
L 1697 4863 
z
" transform="scale(0.015625)"/>
       <path id="DejaVuSansMono-63" d="M 3316 178 
Q 3084 44 2839 -23 
Q 2594 -91 2338 -91 
Q 1525 -91 1067 396 
Q 609 884 609 1747 
Q 609 2609 1067 3096 
Q 1525 3584 2338 3584 
Q 2591 3584 2831 3518 
Q 3072 3453 3316 3316 
L 3316 2713 
Q 3088 2916 2858 3006 
Q 2628 3097 2338 3097 
Q 1797 3097 1506 2747 
Q 1216 2397 1216 1747 
Q 1216 1100 1508 748 
Q 1800 397 2338 397 
Q 2638 397 2875 489 
Q 3113 581 3316 775 
L 3316 178 
z
" transform="scale(0.015625)"/>
       <path id="DejaVuSansMono-65" d="M 3475 1894 
L 3475 1613 
L 984 1613 
L 984 1594 
Q 984 1022 1282 709 
Q 1581 397 2125 397 
Q 2400 397 2700 484 
Q 3000 572 3341 750 
L 3341 178 
Q 3013 44 2708 -23 
Q 2403 -91 2119 -91 
Q 1303 -91 843 398 
Q 384 888 384 1747 
Q 384 2584 834 3084 
Q 1284 3584 2034 3584 
Q 2703 3584 3089 3131 
Q 3475 2678 3475 1894 
z
M 2900 2063 
Q 2888 2569 2661 2833 
Q 2434 3097 2009 3097 
Q 1594 3097 1325 2822 
Q 1056 2547 1006 2059 
L 2900 2063 
z
" transform="scale(0.015625)"/>
      </defs>
      <use xlink:href="#DejaVuSansMono-70"/>
      <use xlink:href="#DejaVuSansMono-72" x="60.205078"/>
      <use xlink:href="#DejaVuSansMono-69" x="120.410156"/>
      <use xlink:href="#DejaVuSansMono-63" x="180.615234"/>
      <use xlink:href="#DejaVuSansMono-65" x="240.820312"/>
     </g>
    </g>
   </g>
   <g id="matplotlib.axis_2">
    <g id="ytick_1">
     <g id="line2d_13">
      <path d="M 58.032813 300.04 
L 446.002813 300.04 
" clip-path="url(#p0c45dc71b3)" style="fill: none; stroke-dasharray: 2.22,0.96; stroke-dashoffset: 0; stroke: #6c6066; stroke-opacity: 0.4; stroke-width: 0.6"/>
     </g>
     <g id="line2d_14">
      <defs>
       <path id="m992c448fb5" d="M 0 0 
L -3.5 0 
" style="stroke: #000000; stroke-width: 0.8"/>
      </defs>
      <g>
       <use xlink:href="#m992c448fb5" x="58.032813" y="300.04" style="stroke: #000000; stroke-width: 0.8"/>
      </g>
     </g>
     <g id="text_8">
      <!-- 0.000 -->
      <g transform="translate(20.93125 303.865781) scale(0.1 -0.1)">
       <defs>
        <path id="DejaVuSansMono-2e" d="M 1528 953 
L 2316 953 
L 2316 0 
L 1528 0 
L 1528 953 
z
" transform="scale(0.015625)"/>
       </defs>
       <use xlink:href="#DejaVuSansMono-30"/>
       <use xlink:href="#DejaVuSansMono-2e" x="60.205078"/>
       <use xlink:href="#DejaVuSansMono-30" x="120.410156"/>
       <use xlink:href="#DejaVuSansMono-30" x="180.615234"/>
       <use xlink:href="#DejaVuSansMono-30" x="240.820312"/>
      </g>
     </g>
    </g>
    <g id="ytick_2">
     <g id="line2d_15">
      <path d="M 58.032813 255.942866 
L 446.002813 255.942866 
" clip-path="url(#p0c45dc71b3)" style="fill: none; stroke-dasharray: 2.22,0.96; stroke-dashoffset: 0; stroke: #6c6066; stroke-opacity: 0.4; stroke-width: 0.6"/>
     </g>
     <g id="line2d_16">
      <g>
       <use xlink:href="#m992c448fb5" x="58.032813" y="255.942866" style="stroke: #000000; stroke-width: 0.8"/>
      </g>
     </g>
     <g id="text_9">
      <!-- 0.001 -->
      <g transform="translate(20.93125 259.768647) scale(0.1 -0.1)">
       <use xlink:href="#DejaVuSansMono-30"/>
       <use xlink:href="#DejaVuSansMono-2e" x="60.205078"/>
       <use xlink:href="#DejaVuSansMono-30" x="120.410156"/>
       <use xlink:href="#DejaVuSansMono-30" x="180.615234"/>
       <use xlink:href="#DejaVuSansMono-31" x="240.820312"/>
      </g>
     </g>
    </g>
    <g id="ytick_3">
     <g id="line2d_17">
      <path d="M 58.032813 211.845731 
L 446.002813 211.845731 
" clip-path="url(#p0c45dc71b3)" style="fill: none; stroke-dasharray: 2.22,0.96; stroke-dashoffset: 0; stroke: #6c6066; stroke-opacity: 0.4; stroke-width: 0.6"/>
     </g>
     <g id="line2d_18">
      <g>
       <use xlink:href="#m992c448fb5" x="58.032813" y="211.845731" style="stroke: #000000; stroke-width: 0.8"/>
      </g>
     </g>
     <g id="text_10">
      <!-- 0.002 -->
      <g transform="translate(20.93125 215.671512) scale(0.1 -0.1)">
       <use xlink:href="#DejaVuSansMono-30"/>
       <use xlink:href="#DejaVuSansMono-2e" x="60.205078"/>
       <use xlink:href="#DejaVuSansMono-30" x="120.410156"/>
       <use xlink:href="#DejaVuSansMono-30" x="180.615234"/>
       <use xlink:href="#DejaVuSansMono-32" x="240.820312"/>
      </g>
     </g>
    </g>
    <g id="ytick_4">
     <g id="line2d_19">
      <path d="M 58.032813 167.748597 
L 446.002813 167.748597 
" clip-path="url(#p0c45dc71b3)" style="fill: none; stroke-dasharray: 2.22,0.96; stroke-dashoffset: 0; stroke: #6c6066; stroke-opacity: 0.4; stroke-width: 0.6"/>
     </g>
     <g id="line2d_20">
      <g>
       <use xlink:href="#m992c448fb5" x="58.032813" y="167.748597" style="stroke: #000000; stroke-width: 0.8"/>
      </g>
     </g>
     <g id="text_11">
      <!-- 0.003 -->
      <g transform="translate(20.93125 171.574378) scale(0.1 -0.1)">
       <use xlink:href="#DejaVuSansMono-30"/>
       <use xlink:href="#DejaVuSansMono-2e" x="60.205078"/>
       <use xlink:href="#DejaVuSansMono-30" x="120.410156"/>
       <use xlink:href="#DejaVuSansMono-30" x="180.615234"/>
       <use xlink:href="#DejaVuSansMono-33" x="240.820312"/>
      </g>
     </g>
    </g>
    <g id="ytick_5">
     <g id="line2d_21">
      <path d="M 58.032813 123.651462 
L 446.002813 123.651462 
" clip-path="url(#p0c45dc71b3)" style="fill: none; stroke-dasharray: 2.22,0.96; stroke-dashoffset: 0; stroke: #6c6066; stroke-opacity: 0.4; stroke-width: 0.6"/>
     </g>
     <g id="line2d_22">
      <g>
       <use xlink:href="#m992c448fb5" x="58.032813" y="123.651462" style="stroke: #000000; stroke-width: 0.8"/>
      </g>
     </g>
     <g id="text_12">
      <!-- 0.004 -->
      <g transform="translate(20.93125 127.477243) scale(0.1 -0.1)">
       <use xlink:href="#DejaVuSansMono-30"/>
       <use xlink:href="#DejaVuSansMono-2e" x="60.205078"/>
       <use xlink:href="#DejaVuSansMono-30" x="120.410156"/>
       <use xlink:href="#DejaVuSansMono-30" x="180.615234"/>
       <use xlink:href="#DejaVuSansMono-34" x="240.820312"/>
      </g>
     </g>
    </g>
    <g id="ytick_6">
     <g id="line2d_23">
      <path d="M 58.032813 79.554328 
L 446.002813 79.554328 
" clip-path="url(#p0c45dc71b3)" style="fill: none; stroke-dasharray: 2.22,0.96; stroke-dashoffset: 0; stroke: #6c6066; stroke-opacity: 0.4; stroke-width: 0.6"/>
     </g>
     <g id="line2d_24">
      <g>
       <use xlink:href="#m992c448fb5" x="58.032813" y="79.554328" style="stroke: #000000; stroke-width: 0.8"/>
      </g>
     </g>
     <g id="text_13">
      <!-- 0.005 -->
      <g transform="translate(20.93125 83.380109) scale(0.1 -0.1)">
       <use xlink:href="#DejaVuSansMono-30"/>
       <use xlink:href="#DejaVuSansMono-2e" x="60.205078"/>
       <use xlink:href="#DejaVuSansMono-30" x="120.410156"/>
       <use xlink:href="#DejaVuSansMono-30" x="180.615234"/>
       <use xlink:href="#DejaVuSansMono-35" x="240.820312"/>
      </g>
     </g>
    </g>
    <g id="ytick_7">
     <g id="line2d_25">
      <path d="M 58.032813 35.457193 
L 446.002813 35.457193 
" clip-path="url(#p0c45dc71b3)" style="fill: none; stroke-dasharray: 2.22,0.96; stroke-dashoffset: 0; stroke: #6c6066; stroke-opacity: 0.4; stroke-width: 0.6"/>
     </g>
     <g id="line2d_26">
      <g>
       <use xlink:href="#m992c448fb5" x="58.032813" y="35.457193" style="stroke: #000000; stroke-width: 0.8"/>
      </g>
     </g>
     <g id="text_14">
      <!-- 0.006 -->
      <g transform="translate(20.93125 39.282975) scale(0.1 -0.1)">
       <defs>
        <path id="DejaVuSansMono-36" d="M 3097 4563 
L 3097 3981 
Q 2900 4097 2678 4158 
Q 2456 4219 2216 4219 
Q 1616 4219 1306 3767 
Q 997 3316 997 2438 
Q 1147 2750 1412 2917 
Q 1678 3084 2022 3084 
Q 2697 3084 3067 2670 
Q 3438 2256 3438 1497 
Q 3438 741 3056 325 
Q 2675 -91 1984 -91 
Q 1172 -91 794 492 
Q 416 1075 416 2328 
Q 416 3509 870 4129 
Q 1325 4750 2188 4750 
Q 2419 4750 2650 4701 
Q 2881 4653 3097 4563 
z
M 1972 2591 
Q 1569 2591 1337 2300 
Q 1106 2009 1106 1497 
Q 1106 984 1337 693 
Q 1569 403 1972 403 
Q 2391 403 2603 679 
Q 2816 956 2816 1497 
Q 2816 2041 2603 2316 
Q 2391 2591 1972 2591 
z
" transform="scale(0.015625)"/>
       </defs>
       <use xlink:href="#DejaVuSansMono-30"/>
       <use xlink:href="#DejaVuSansMono-2e" x="60.205078"/>
       <use xlink:href="#DejaVuSansMono-30" x="120.410156"/>
       <use xlink:href="#DejaVuSansMono-30" x="180.615234"/>
       <use xlink:href="#DejaVuSansMono-36" x="240.820312"/>
      </g>
     </g>
    </g>
    <g id="text_15">
     <!-- probability -->
     <g transform="translate(14.851563 186.731719) rotate(-90) scale(0.1 -0.1)">
      <defs>
       <path id="DejaVuSansMono-6f" d="M 1925 3097 
Q 1488 3097 1263 2756 
Q 1038 2416 1038 1747 
Q 1038 1081 1263 739 
Q 1488 397 1925 397 
Q 2366 397 2591 739 
Q 2816 1081 2816 1747 
Q 2816 2416 2591 2756 
Q 2366 3097 1925 3097 
z
M 1925 3584 
Q 2653 3584 3039 3112 
Q 3425 2641 3425 1747 
Q 3425 850 3040 379 
Q 2656 -91 1925 -91 
Q 1197 -91 812 379 
Q 428 850 428 1747 
Q 428 2641 812 3112 
Q 1197 3584 1925 3584 
z
" transform="scale(0.015625)"/>
       <path id="DejaVuSansMono-62" d="M 2869 1747 
Q 2869 2416 2656 2756 
Q 2444 3097 2028 3097 
Q 1609 3097 1393 2755 
Q 1178 2413 1178 1747 
Q 1178 1084 1393 740 
Q 1609 397 2028 397 
Q 2444 397 2656 737 
Q 2869 1078 2869 1747 
z
M 1178 3053 
Q 1316 3309 1558 3446 
Q 1800 3584 2119 3584 
Q 2750 3584 3112 3098 
Q 3475 2613 3475 1759 
Q 3475 894 3111 401 
Q 2747 -91 2113 -91 
Q 1800 -91 1561 45 
Q 1322 181 1178 441 
L 1178 0 
L 603 0 
L 603 4863 
L 1178 4863 
L 1178 3053 
z
" transform="scale(0.015625)"/>
       <path id="DejaVuSansMono-61" d="M 2194 1759 
L 2003 1759 
Q 1500 1759 1245 1582 
Q 991 1406 991 1056 
Q 991 741 1181 566 
Q 1372 391 1709 391 
Q 2184 391 2456 720 
Q 2728 1050 2731 1631 
L 2731 1759 
L 2194 1759 
z
M 3309 1997 
L 3309 0 
L 2731 0 
L 2731 519 
Q 2547 206 2267 57 
Q 1988 -91 1588 -91 
Q 1053 -91 734 211 
Q 416 513 416 1019 
Q 416 1603 808 1906 
Q 1200 2209 1959 2209 
L 2731 2209 
L 2731 2300 
Q 2728 2719 2518 2908 
Q 2309 3097 1850 3097 
Q 1556 3097 1256 3012 
Q 956 2928 672 2766 
L 672 3341 
Q 991 3463 1283 3523 
Q 1575 3584 1850 3584 
Q 2284 3584 2592 3456 
Q 2900 3328 3091 3072 
Q 3209 2916 3259 2686 
Q 3309 2456 3309 1997 
z
" transform="scale(0.015625)"/>
       <path id="DejaVuSansMono-6c" d="M 1997 1269 
Q 1997 881 2139 684 
Q 2281 488 2559 488 
L 3231 488 
L 3231 0 
L 2503 0 
Q 1988 0 1705 331 
Q 1422 663 1422 1269 
L 1422 4447 
L 500 4447 
L 500 4897 
L 1997 4897 
L 1997 1269 
z
" transform="scale(0.015625)"/>
       <path id="DejaVuSansMono-74" d="M 1919 4494 
L 1919 3500 
L 3225 3500 
L 3225 3053 
L 1919 3053 
L 1919 1153 
Q 1919 766 2066 612 
Q 2213 459 2578 459 
L 3225 459 
L 3225 0 
L 2522 0 
Q 1875 0 1609 259 
Q 1344 519 1344 1153 
L 1344 3053 
L 409 3053 
L 409 3500 
L 1344 3500 
L 1344 4494 
L 1919 4494 
z
" transform="scale(0.015625)"/>
       <path id="DejaVuSansMono-79" d="M 2681 1125 
Q 2538 759 2316 163 
Q 2006 -663 1900 -844 
Q 1756 -1088 1540 -1209 
Q 1325 -1331 1038 -1331 
L 575 -1331 
L 575 -850 
L 916 -850 
Q 1169 -850 1312 -703 
Q 1456 -556 1678 56 
L 325 3500 
L 934 3500 
L 1972 763 
L 2994 3500 
L 3603 3500 
L 2681 1125 
z
" transform="scale(0.015625)"/>
      </defs>
      <use xlink:href="#DejaVuSansMono-70"/>
      <use xlink:href="#DejaVuSansMono-72" x="60.205078"/>
      <use xlink:href="#DejaVuSansMono-6f" x="120.410156"/>
      <use xlink:href="#DejaVuSansMono-62" x="180.615234"/>
      <use xlink:href="#DejaVuSansMono-61" x="240.820312"/>
      <use xlink:href="#DejaVuSansMono-62" x="301.025391"/>
      <use xlink:href="#DejaVuSansMono-69" x="361.230469"/>
      <use xlink:href="#DejaVuSansMono-6c" x="421.435547"/>
      <use xlink:href="#DejaVuSansMono-69" x="481.640625"/>
      <use xlink:href="#DejaVuSansMono-74" x="541.845703"/>
      <use xlink:href="#DejaVuSansMono-79" x="602.050781"/>
     </g>
    </g>
   </g>
   <g id="patch_103">
    <path d="M 58.032813 300.04 
L 58.032813 7.2 
" style="fill: none; stroke: #000000; stroke-width: 0.6; stroke-linejoin: miter; stroke-linecap: square"/>
   </g>
   <g id="patch_104">
    <path d="M 58.032813 300.04 
L 446.002812 300.04 
" style="fill: none; stroke: #000000; stroke-width: 0.6; stroke-linejoin: miter; stroke-linecap: square"/>
   </g>
  </g>
 </g>
 <defs>
  <clipPath id="p0c45dc71b3">
   <rect x="58.032813" y="7.2" width="387.97" height="292.84"/>
  </clipPath>
 </defs>
</svg>