<?xml version="1.0" encoding="utf-8" standalone="no"?>
<!DOCTYPE svg PUBLIC "-//W3C//DTD SVG 1.1//EN"
  "http://www.w3.org/Graphics/SVG/1.1/DTD/svg11.dtd">
<svg xmlns:xlink="http://www.w3.org/1999/xlink" width="453.202812pt" height="337.7025pt" viewBox="0 0 453.202812 337.7025" xmlns="http://www.w3.org/2000/svg" version="1.1">
 <metadata>
  <rdf:RDF xmlns:dc="http://purl.org/dc/elements/1.1/" xmlns:cc="http://creativecommons.org/ns#" xmlns:rdf="http://www.w3.org/1999/02/22-rdf-syntax-ns#">
   <cc:Work>
    <dc:type rdf:resource="http://purl.org/dc/dcmitype/StillImage"/>
    <dc:date>2023-12-05T12:11:15.940753</dc:date>
    <dc:format>image/svg+xml</dc:format>
    <dc:creator>
     <cc:Agent>
      <dc:title>Matplotlib v3.8.2, https://matplotlib.org/</dc:title>
     </cc:Agent>
    </dc:creator>
   </cc:Work>
  </rdf:RDF>
 </metadata>
 <defs>
  <style type="text/css">*{stroke-linejoin: round; stroke-linecap: butt}</style>
 </defs>
 <g id="figure_1">
  <g id="patch_1">
   <path d="M 0 337.7025 
L 453.202812 337.7025 
L 453.202812 0 
L 0 0 
z
" style="fill: #ffffff"/>
  </g>
  <g id="axes_1">
   <g id="patch_2">
    <path d="M 45.992188 300.04 
L 433.962187 300.04 
L 433.962187 7.2 
L 45.992188 7.2 
z
" style="fill: #ffffff"/>
   </g>
   <g id="matplotlib.axis_1">
    <g id="xtick_1">
     <g id="line2d_1">
      <path d="M 81.262188 300.04 
L 81.262188 7.2 
" clip-path="url(#p91860127a2)" style="fill: none; stroke-dasharray: 2.22,0.96; stroke-dashoffset: 0; stroke: #6c6066; stroke-opacity: 0.4; stroke-width: 0.6"/>
     </g>
     <g id="line2d_2">
      <defs>
       <path id="m101c894a6f" d="M 0 0 
L 0 3.5 
" style="stroke: #000000; stroke-width: 0.8"/>
      </defs>
      <g>
       <use xlink:href="#m101c894a6f" x="81.262188" y="300.04" style="stroke: #000000; stroke-width: 0.8"/>
      </g>
     </g>
     <g id="text_1">
      <!-- 500 -->
      <g transform="translate(72.231719 314.691562) scale(0.1 -0.1)">
       <defs>
        <path id="DejaVuSansMono-35" d="M 647 4666 
L 3009 4666 
L 3009 4134 
L 1222 4134 
L 1222 2988 
Q 1356 3038 1492 3061 
Q 1628 3084 1766 3084 
Q 2491 3084 2916 2656 
Q 3341 2228 3341 1497 
Q 3341 759 2895 334 
Q 2450 -91 1678 -91 
Q 1306 -91 998 -41 
Q 691 9 447 109 
L 447 750 
Q 734 594 1025 517 
Q 1316 441 1619 441 
Q 2141 441 2423 716 
Q 2706 991 2706 1497 
Q 2706 1997 2414 2275 
Q 2122 2553 1600 2553 
Q 1347 2553 1106 2495 
Q 866 2438 647 2322 
L 647 4666 
z
" transform="scale(0.015625)"/>
        <path id="DejaVuSansMono-30" d="M 1509 2344 
Q 1509 2516 1629 2641 
Q 1750 2766 1919 2766 
Q 2094 2766 2219 2641 
Q 2344 2516 2344 2344 
Q 2344 2169 2220 2047 
Q 2097 1925 1919 1925 
Q 1744 1925 1626 2044 
Q 1509 2163 1509 2344 
z
M 1925 4250 
Q 1484 4250 1267 3775 
Q 1050 3300 1050 2328 
Q 1050 1359 1267 884 
Q 1484 409 1925 409 
Q 2369 409 2586 884 
Q 2803 1359 2803 2328 
Q 2803 3300 2586 3775 
Q 2369 4250 1925 4250 
z
M 1925 4750 
Q 2672 4750 3055 4137 
Q 3438 3525 3438 2328 
Q 3438 1134 3055 521 
Q 2672 -91 1925 -91 
Q 1178 -91 797 521 
Q 416 1134 416 2328 
Q 416 3525 797 4137 
Q 1178 4750 1925 4750 
z
" transform="scale(0.015625)"/>
       </defs>
       <use xlink:href="#DejaVuSansMono-35"/>
       <use xlink:href="#DejaVuSansMono-30" x="60.205078"/>
       <use xlink:href="#DejaVuSansMono-30" x="120.410156"/>
      </g>
     </g>
    </g>
    <g id="xtick_2">
     <g id="line2d_3">
      <path d="M 151.802188 300.04 
L 151.802188 7.2 
" clip-path="url(#p91860127a2)" style="fill: none; stroke-dasharray: 2.22,0.96; stroke-dashoffset: 0; stroke: #6c6066; stroke-opacity: 0.4; stroke-width: 0.6"/>
     </g>
     <g id="line2d_4">
      <g>
       <use xlink:href="#m101c894a6f" x="151.802188" y="300.04" style="stroke: #000000; stroke-width: 0.8"/>
      </g>
     </g>
     <g id="text_2">
      <!-- 1000 -->
      <g transform="translate(139.761562 314.691562) scale(0.1 -0.1)">
       <defs>
        <path id="DejaVuSansMono-31" d="M 844 531 
L 1825 531 
L 1825 4097 
L 769 3859 
L 769 4434 
L 1819 4666 
L 2450 4666 
L 2450 531 
L 3419 531 
L 3419 0 
L 844 0 
L 844 531 
z
" transform="scale(0.015625)"/>
       </defs>
       <use xlink:href="#DejaVuSansMono-31"/>
       <use xlink:href="#DejaVuSansMono-30" x="60.205078"/>
       <use xlink:href="#DejaVuSansMono-30" x="120.410156"/>
       <use xlink:href="#DejaVuSansMono-30" x="180.615234"/>
      </g>
     </g>
    </g>
    <g id="xtick_3">
     <g id="line2d_5">
      <path d="M 222.342187 300.04 
L 222.342187 7.2 
" clip-path="url(#p91860127a2)" style="fill: none; stroke-dasharray: 2.22,0.96; stroke-dashoffset: 0; stroke: #6c6066; stroke-opacity: 0.4; stroke-width: 0.6"/>
     </g>
     <g id="line2d_6">
      <g>
       <use xlink:href="#m101c894a6f" x="222.342187" y="300.04" style="stroke: #000000; stroke-width: 0.8"/>
      </g>
     </g>
     <g id="text_3">
      <!-- 1500 -->
      <g transform="translate(210.301562 314.691562) scale(0.1 -0.1)">
       <use xlink:href="#DejaVuSansMono-31"/>
       <use xlink:href="#DejaVuSansMono-35" x="60.205078"/>
       <use xlink:href="#DejaVuSansMono-30" x="120.410156"/>
       <use xlink:href="#DejaVuSansMono-30" x="180.615234"/>
      </g>
     </g>
    </g>
    <g id="xtick_4">
     <g id="line2d_7">
      <path d="M 292.882187 300.04 
L 292.882187 7.2 
" clip-path="url(#p91860127a2)" style="fill: none; stroke-dasharray: 2.22,0.96; stroke-dashoffset: 0; stroke: #6c6066; stroke-opacity: 0.4; stroke-width: 0.6"/>
     </g>
     <g id="line2d_8">
      <g>
       <use xlink:href="#m101c894a6f" x="292.882187" y="300.04" style="stroke: #000000; stroke-width: 0.8"/>
      </g>
     </g>
     <g id="text_4">
      <!-- 2000 -->
      <g transform="translate(280.841563 314.691562) scale(0.1 -0.1)">
       <defs>
        <path id="DejaVuSansMono-32" d="M 1166 531 
L 3309 531 
L 3309 0 
L 475 0 
L 475 531 
Q 1059 1147 1496 1619 
Q 1934 2091 2100 2284 
Q 2413 2666 2522 2902 
Q 2631 3138 2631 3384 
Q 2631 3775 2401 3997 
Q 2172 4219 1772 4219 
Q 1488 4219 1175 4116 
Q 863 4013 513 3803 
L 513 4441 
Q 834 4594 1145 4672 
Q 1456 4750 1759 4750 
Q 2444 4750 2861 4386 
Q 3278 4022 3278 3431 
Q 3278 3131 3139 2831 
Q 3000 2531 2688 2169 
Q 2513 1966 2180 1606 
Q 1847 1247 1166 531 
z
" transform="scale(0.015625)"/>
       </defs>
       <use xlink:href="#DejaVuSansMono-32"/>
       <use xlink:href="#DejaVuSansMono-30" x="60.205078"/>
       <use xlink:href="#DejaVuSansMono-30" x="120.410156"/>
       <use xlink:href="#DejaVuSansMono-30" x="180.615234"/>
      </g>
     </g>
    </g>
    <g id="xtick_5">
     <g id="line2d_9">
      <path d="M 363.422187 300.04 
L 363.422187 7.2 
" clip-path="url(#p91860127a2)" style="fill: none; stroke-dasharray: 2.22,0.96; stroke-dashoffset: 0; stroke: #6c6066; stroke-opacity: 0.4; stroke-width: 0.6"/>
     </g>
     <g id="line2d_10">
      <g>
       <use xlink:href="#m101c894a6f" x="363.422187" y="300.04" style="stroke: #000000; stroke-width: 0.8"/>
      </g>
     </g>
     <g id="text_5">
      <!-- 2500 -->
      <g transform="translate(351.381562 314.691562) scale(0.1 -0.1)">
       <use xlink:href="#DejaVuSansMono-32"/>
       <use xlink:href="#DejaVuSansMono-35" x="60.205078"/>
       <use xlink:href="#DejaVuSansMono-30" x="120.410156"/>
       <use xlink:href="#DejaVuSansMono-30" x="180.615234"/>
      </g>
     </g>
    </g>
    <g id="xtick_6">
     <g id="line2d_11">
      <path d="M 433.962187 300.04 
L 433.962187 7.2 
" clip-path="url(#p91860127a2)" style="fill: none; stroke-dasharray: 2.22,0.96; stroke-dashoffset: 0; stroke: #6c6066; stroke-opacity: 0.4; stroke-width: 0.6"/>
     </g>
     <g id="line2d_12">
      <g>
       <use xlink:href="#m101c894a6f" x="433.962187" y="300.04" style="stroke: #000000; stroke-width: 0.8"/>
      </g>
     </g>
     <g id="text_6">
      <!-- 3000 -->
      <g transform="translate(421.921562 314.691562) scale(0.1 -0.1)">
       <defs>
        <path id="DejaVuSansMono-33" d="M 2425 2497 
Q 2884 2375 3128 2064 
Q 3372 1753 3372 1288 
Q 3372 644 2939 276 
Q 2506 -91 1741 -91 
Q 1419 -91 1084 -31 
Q 750 28 428 141 
L 428 769 
Q 747 603 1056 522 
Q 1366 441 1672 441 
Q 2191 441 2469 675 
Q 2747 909 2747 1350 
Q 2747 1756 2469 1995 
Q 2191 2234 1716 2234 
L 1234 2234 
L 1234 2753 
L 1716 2753 
Q 2150 2753 2394 2943 
Q 2638 3134 2638 3475 
Q 2638 3834 2411 4026 
Q 2184 4219 1766 4219 
Q 1488 4219 1191 4156 
Q 894 4094 569 3969 
L 569 4550 
Q 947 4650 1242 4700 
Q 1538 4750 1766 4750 
Q 2447 4750 2855 4408 
Q 3263 4066 3263 3500 
Q 3263 3116 3048 2859 
Q 2834 2603 2425 2497 
z
" transform="scale(0.015625)"/>
       </defs>
       <use xlink:href="#DejaVuSansMono-33"/>
       <use xlink:href="#DejaVuSansMono-30" x="60.205078"/>
       <use xlink:href="#DejaVuSansMono-30" x="120.410156"/>
       <use xlink:href="#DejaVuSansMono-30" x="180.615234"/>
      </g>
     </g>
    </g>
    <g id="text_7">
     <!-- area -->
     <g transform="translate(227.936562 328.422812) scale(0.1 -0.1)">
      <defs>
       <path id="DejaVuSansMono-61" d="M 2194 1759 
L 2003 1759 
Q 1500 1759 1245 1582 
Q 991 1406 991 1056 
Q 991 741 1181 566 
Q 1372 391 1709 391 
Q 2184 391 2456 720 
Q 2728 1050 2731 1631 
L 2731 1759 
L 2194 1759 
z
M 3309 1997 
L 3309 0 
L 2731 0 
L 2731 519 
Q 2547 206 2267 57 
Q 1988 -91 1588 -91 
Q 1053 -91 734 211 
Q 416 513 416 1019 
Q 416 1603 808 1906 
Q 1200 2209 1959 2209 
L 2731 2209 
L 2731 2300 
Q 2728 2719 2518 2908 
Q 2309 3097 1850 3097 
Q 1556 3097 1256 3012 
Q 956 2928 672 2766 
L 672 3341 
Q 991 3463 1283 3523 
Q 1575 3584 1850 3584 
Q 2284 3584 2592 3456 
Q 2900 3328 3091 3072 
Q 3209 2916 3259 2686 
Q 3309 2456 3309 1997 
z
" transform="scale(0.015625)"/>
       <path id="DejaVuSansMono-72" d="M 3609 2778 
Q 3425 2922 3234 2987 
Q 3044 3053 2816 3053 
Q 2278 3053 1993 2715 
Q 1709 2378 1709 1741 
L 1709 0 
L 1131 0 
L 1131 3500 
L 1709 3500 
L 1709 2816 
Q 1853 3188 2151 3386 
Q 2450 3584 2859 3584 
Q 3072 3584 3256 3531 
Q 3441 3478 3609 3366 
L 3609 2778 
z
" transform="scale(0.015625)"/>
       <path id="DejaVuSansMono-65" d="M 3475 1894 
L 3475 1613 
L 984 1613 
L 984 1594 
Q 984 1022 1282 709 
Q 1581 397 2125 397 
Q 2400 397 2700 484 
Q 3000 572 3341 750 
L 3341 178 
Q 3013 44 2708 -23 
Q 2403 -91 2119 -91 
Q 1303 -91 843 398 
Q 384 888 384 1747 
Q 384 2584 834 3084 
Q 1284 3584 2034 3584 
Q 2703 3584 3089 3131 
Q 3475 2678 3475 1894 
z
M 2900 2063 
Q 2888 2569 2661 2833 
Q 2434 3097 2009 3097 
Q 1594 3097 1325 2822 
Q 1056 2547 1006 2059 
L 2900 2063 
z
" transform="scale(0.015625)"/>
      </defs>
      <use xlink:href="#DejaVuSansMono-61"/>
      <use xlink:href="#DejaVuSansMono-72" x="60.205078"/>
      <use xlink:href="#DejaVuSansMono-65" x="120.410156"/>
      <use xlink:href="#DejaVuSansMono-61" x="180.615234"/>
     </g>
    </g>
   </g>
   <g id="matplotlib.axis_2">
    <g id="ytick_1">
     <g id="line2d_13">
      <path d="M 45.992188 270.756 
L 433.962187 270.756 
" clip-path="url(#p91860127a2)" style="fill: none; stroke-dasharray: 2.22,0.96; stroke-dashoffset: 0; stroke: #6c6066; stroke-opacity: 0.4; stroke-width: 0.6"/>
     </g>
     <g id="line2d_14">
      <defs>
       <path id="m46edf86ee1" d="M 0 0 
L -3.5 0 
" style="stroke: #000000; stroke-width: 0.8"/>
      </defs>
      <g>
       <use xlink:href="#m46edf86ee1" x="45.992188" y="270.756" style="stroke: #000000; stroke-width: 0.8"/>
      </g>
     </g>
     <g id="text_8">
      <!-- 0 -->
      <g transform="translate(32.971875 274.581781) scale(0.1 -0.1)">
       <use xlink:href="#DejaVuSansMono-30"/>
      </g>
     </g>
    </g>
    <g id="ytick_2">
     <g id="line2d_15">
      <path d="M 45.992188 212.188 
L 433.962187 212.188 
" clip-path="url(#p91860127a2)" style="fill: none; stroke-dasharray: 2.22,0.96; stroke-dashoffset: 0; stroke: #6c6066; stroke-opacity: 0.4; stroke-width: 0.6"/>
     </g>
     <g id="line2d_16">
      <g>
       <use xlink:href="#m46edf86ee1" x="45.992188" y="212.188" style="stroke: #000000; stroke-width: 0.8"/>
      </g>
     </g>
     <g id="text_9">
      <!-- 100 -->
      <g transform="translate(20.93125 216.013781) scale(0.1 -0.1)">
       <use xlink:href="#DejaVuSansMono-31"/>
       <use xlink:href="#DejaVuSansMono-30" x="60.205078"/>
       <use xlink:href="#DejaVuSansMono-30" x="120.410156"/>
      </g>
     </g>
    </g>
    <g id="ytick_3">
     <g id="line2d_17">
      <path d="M 45.992188 153.62 
L 433.962187 153.62 
" clip-path="url(#p91860127a2)" style="fill: none; stroke-dasharray: 2.22,0.96; stroke-dashoffset: 0; stroke: #6c6066; stroke-opacity: 0.4; stroke-width: 0.6"/>
     </g>
     <g id="line2d_18">
      <g>
       <use xlink:href="#m46edf86ee1" x="45.992188" y="153.62" style="stroke: #000000; stroke-width: 0.8"/>
      </g>
     </g>
     <g id="text_10">
      <!-- 200 -->
      <g transform="translate(20.93125 157.445781) scale(0.1 -0.1)">
       <use xlink:href="#DejaVuSansMono-32"/>
       <use xlink:href="#DejaVuSansMono-30" x="60.205078"/>
       <use xlink:href="#DejaVuSansMono-30" x="120.410156"/>
      </g>
     </g>
    </g>
    <g id="ytick_4">
     <g id="line2d_19">
      <path d="M 45.992188 95.052 
L 433.962187 95.052 
" clip-path="url(#p91860127a2)" style="fill: none; stroke-dasharray: 2.22,0.96; stroke-dashoffset: 0; stroke: #6c6066; stroke-opacity: 0.4; stroke-width: 0.6"/>
     </g>
     <g id="line2d_20">
      <g>
       <use xlink:href="#m46edf86ee1" x="45.992188" y="95.052" style="stroke: #000000; stroke-width: 0.8"/>
      </g>
     </g>
     <g id="text_11">
      <!-- 300 -->
      <g transform="translate(20.93125 98.877781) scale(0.1 -0.1)">
       <use xlink:href="#DejaVuSansMono-33"/>
       <use xlink:href="#DejaVuSansMono-30" x="60.205078"/>
       <use xlink:href="#DejaVuSansMono-30" x="120.410156"/>
      </g>
     </g>
    </g>
    <g id="ytick_5">
     <g id="line2d_21">
      <path d="M 45.992188 36.484 
L 433.962187 36.484 
" clip-path="url(#p91860127a2)" style="fill: none; stroke-dasharray: 2.22,0.96; stroke-dashoffset: 0; stroke: #6c6066; stroke-opacity: 0.4; stroke-width: 0.6"/>
     </g>
     <g id="line2d_22">
      <g>
       <use xlink:href="#m46edf86ee1" x="45.992188" y="36.484" style="stroke: #000000; stroke-width: 0.8"/>
      </g>
     </g>
     <g id="text_12">
      <!-- 400 -->
      <g transform="translate(20.93125 40.309781) scale(0.1 -0.1)">
       <defs>
        <path id="DejaVuSansMono-34" d="M 2297 4091 
L 825 1625 
L 2297 1625 
L 2297 4091 
z
M 2194 4666 
L 2925 4666 
L 2925 1625 
L 3547 1625 
L 3547 1113 
L 2925 1113 
L 2925 0 
L 2297 0 
L 2297 1113 
L 319 1113 
L 319 1709 
L 2194 4666 
z
" transform="scale(0.015625)"/>
       </defs>
       <use xlink:href="#DejaVuSansMono-34"/>
       <use xlink:href="#DejaVuSansMono-30" x="60.205078"/>
       <use xlink:href="#DejaVuSansMono-30" x="120.410156"/>
      </g>
     </g>
    </g>
    <g id="text_13">
     <!-- price -->
     <g transform="translate(14.851563 168.670781) rotate(-90) scale(0.1 -0.1)">
      <defs>
       <path id="DejaVuSansMono-70" d="M 1172 441 
L 1172 -1331 
L 594 -1331 
L 594 3500 
L 1172 3500 
L 1172 3053 
Q 1316 3313 1555 3448 
Q 1794 3584 2106 3584 
Q 2741 3584 3102 3093 
Q 3463 2603 3463 1734 
Q 3463 881 3100 395 
Q 2738 -91 2106 -91 
Q 1788 -91 1548 45 
Q 1309 181 1172 441 
z
M 2859 1747 
Q 2859 2416 2648 2756 
Q 2438 3097 2022 3097 
Q 1603 3097 1387 2755 
Q 1172 2413 1172 1747 
Q 1172 1084 1387 740 
Q 1603 397 2022 397 
Q 2438 397 2648 737 
Q 2859 1078 2859 1747 
z
" transform="scale(0.015625)"/>
       <path id="DejaVuSansMono-69" d="M 800 3500 
L 2272 3500 
L 2272 447 
L 3413 447 
L 3413 0 
L 556 0 
L 556 447 
L 1697 447 
L 1697 3053 
L 800 3053 
L 800 3500 
z
M 1697 4863 
L 2272 4863 
L 2272 4134 
L 1697 4134 
L 1697 4863 
z
" transform="scale(0.015625)"/>
       <path id="DejaVuSansMono-63" d="M 3316 178 
Q 3084 44 2839 -23 
Q 2594 -91 2338 -91 
Q 1525 -91 1067 396 
Q 609 884 609 1747 
Q 609 2609 1067 3096 
Q 1525 3584 2338 3584 
Q 2591 3584 2831 3518 
Q 3072 3453 3316 3316 
L 3316 2713 
Q 3088 2916 2858 3006 
Q 2628 3097 2338 3097 
Q 1797 3097 1506 2747 
Q 1216 2397 1216 1747 
Q 1216 1100 1508 748 
Q 1800 397 2338 397 
Q 2638 397 2875 489 
Q 3113 581 3316 775 
L 3316 178 
z
" transform="scale(0.015625)"/>
      </defs>
      <use xlink:href="#DejaVuSansMono-70"/>
      <use xlink:href="#DejaVuSansMono-72" x="60.205078"/>
      <use xlink:href="#DejaVuSansMono-69" x="120.410156"/>
      <use xlink:href="#DejaVuSansMono-63" x="180.615234"/>
      <use xlink:href="#DejaVuSansMono-65" x="240.820312"/>
     </g>
    </g>
   </g>
   <g id="QuadContourSet_1">
    <path d="M 100.908404 254.520901 
L 105.239918 254.665905 
L 109.571432 254.572091 
L 112.832738 254.339713 
L 113.902946 254.281091 
L 118.23446 253.942097 
L 122.565974 253.561535 
L 126.897488 253.201961 
L 131.229002 252.89831 
L 135.560516 252.607635 
L 139.89203 252.212162 
L 142.865355 251.782375 
L 144.223544 251.629796 
L 148.555058 250.892061 
L 152.886572 249.880446 
L 155.079672 249.225037 
L 157.218086 248.69769 
L 161.5496 247.395486 
L 163.626194 246.667699 
L 165.881114 245.988522 
L 170.212628 244.503591 
L 171.312606 244.110361 
L 174.544142 243.094121 
L 178.875656 241.58198 
L 178.964958 241.553023 
L 183.20717 240.345335 
L 187.538684 238.995826 
L 187.539188 238.995685 
L 191.870198 237.952913 
L 196.201712 236.834824 
L 197.795777 236.438347 
L 200.533226 235.857834 
L 204.864741 234.941644 
L 209.196255 233.989865 
L 209.78384 233.881009 
L 213.527769 233.292953 
L 217.859283 232.692492 
L 222.190797 232.191067 
L 226.522311 231.777178 
L 230.853825 231.37571 
L 231.318611 231.323671 
L 235.185339 230.949274 
L 239.516853 230.383041 
L 243.848367 229.66964 
L 248.179881 228.815732 
L 248.391406 228.766333 
L 252.511395 227.881645 
L 256.842909 226.780144 
L 258.725445 226.208996 
L 261.174423 225.513335 
L 265.505937 224.051439 
L 266.520276 223.651658 
L 269.837451 222.404257 
L 272.857223 221.09432 
L 274.168965 220.542381 
L 278.433054 218.536982 
L 278.500479 218.505746 
L 282.831993 216.381811 
L 283.637823 215.979644 
L 287.163507 214.188259 
L 288.714391 213.422306 
L 291.495021 211.997881 
L 293.886908 210.864968 
L 295.826535 209.892508 
L 299.426963 208.30763 
L 300.158049 207.958955 
L 304.489563 206.364741 
L 306.944839 205.750292 
L 308.821077 205.218445 
L 313.152591 204.702457 
L 317.484106 204.771142 
L 321.81562 204.954823 
L 326.147134 204.736318 
L 330.478648 204.00732 
L 333.401232 203.192954 
L 334.810162 202.783768 
L 339.141676 201.12093 
L 340.190996 200.635616 
L 343.47319 199.043108 
L 345.269166 198.078278 
L 347.804704 196.624856 
L 349.644081 195.52094 
L 352.136218 193.90479 
L 353.582696 192.963602 
L 356.467732 190.913388 
L 357.198321 190.406264 
L 360.493761 187.848926 
L 360.799246 187.570458 
L 363.372141 185.291588 
L 365.13076 183.487327 
L 365.871579 182.73425 
L 367.912404 180.176912 
L 369.462274 177.908542 
L 369.648418 177.619574 
L 371.26194 175.062236 
L 372.916418 172.504898 
L 373.793788 171.296691 
L 374.668543 169.94756 
L 376.430514 167.390222 
L 378.125302 164.884702 
L 378.157616 164.832884 
L 379.672041 162.275546 
L 380.876046 159.718209 
L 381.634966 157.160871 
L 381.62703 154.603533 
L 380.295713 152.046195 
L 378.125302 150.131845 
L 376.398062 149.488857 
L 373.793788 148.495928 
L 369.462274 148.210205 
L 365.13076 149.113808 
L 364.2099 149.488857 
L 360.799246 150.622576 
L 357.737321 152.046195 
L 356.467732 152.630387 
L 352.136218 154.517447 
L 351.277857 152.046195 
L 352.136218 150.563082 
L 353.142336 149.488857 
L 355.744289 146.931519 
L 356.467732 146.284966 
L 359.401041 144.374181 
L 360.799246 143.495493 
L 364.299198 141.816843 
L 365.13076 141.473806 
L 369.462274 140.108956 
L 371.430484 139.259505 
L 373.793788 138.578144 
L 378.125302 136.747904 
L 378.198579 136.702167 
L 382.456816 134.848717 
L 383.680688 134.144829 
L 386.78833 132.738106 
L 388.857527 131.587491 
L 391.119844 130.507422 
L 393.768982 129.030153 
L 395.451358 128.167717 
L 398.391002 126.472815 
L 399.782872 125.692047 
L 402.688216 123.915477 
L 404.114386 123.024623 
L 406.633416 121.358139 
L 408.4459 120.079397 
L 410.207379 118.800801 
L 412.777414 116.732754 
L 413.386666 116.243463 
L 416.092845 113.686125 
L 417.108928 112.50011 
L 418.329335 111.128787 
L 419.897983 108.571449 
L 420.58181 106.014111 
L 419.502197 103.456773 
L 417.108928 101.941812 
L 413.638451 100.899435 
L 412.777414 100.681399 
L 408.4459 99.710875 
L 405.205442 98.342097 
L 404.114386 96.415113 
L 403.933322 95.784759 
L 404.114386 94.635492 
L 404.327714 93.227422 
L 405.1941 90.670084 
L 406.082042 88.112746 
L 406.791061 85.555408 
L 407.094991 82.99807 
L 406.637508 80.440732 
L 404.999168 77.883394 
L 404.114386 77.024673 
L 402.427082 75.326056 
L 400.215369 72.768718 
L 399.782872 72.066864 
L 398.956249 70.21138 
L 398.12912 67.654042 
L 397.379137 65.096704 
L 396.566209 62.539366 
L 395.741645 59.982028 
L 395.451358 58.713879 
L 395.158818 57.42469 
L 395.06952 54.867352 
L 395.451358 52.73633 
L 395.527991 52.310014 
L 396.424412 49.752676 
L 397.590842 47.195338 
L 398.93478 44.638 
L 399.782872 43.042509 
L 400.274019 42.080662 
L 401.254301 39.523324 
L 401.740777 36.965986 
L 401.188481 34.408648 
L 399.782872 32.811818 
L 397.247513 31.85131 
L 395.451358 31.361974 
L 391.119844 31.177816 
L 386.78833 31.736537 
L 386.387086 31.85131 
L 382.456816 32.958218 
L 379.314442 34.408648 
L 378.125302 34.918394 
L 374.535811 36.965986 
L 373.793788 37.337684 
L 370.167511 39.523324 
L 369.462274 39.883996 
L 365.688467 42.080662 
L 365.13076 42.354038 
L 360.906684 44.638 
L 360.799246 44.687562 
L 356.467732 46.763062 
L 355.592166 47.195338 
L 352.136218 48.691965 
L 349.754021 49.752676 
L 347.804704 50.530888 
L 343.47319 52.271919 
L 343.368975 52.310014 
L 339.141676 53.704218 
L 335.38548 54.867352 
L 334.810162 55.030833 
L 330.478648 56.110441 
L 326.147134 57.018833 
L 323.712129 57.42469 
L 321.81562 57.719633 
L 317.484106 58.14387 
L 313.152591 58.121298 
L 309.955637 57.42469 
L 308.821077 56.915878 
L 307.184101 54.867352 
L 306.737765 52.310014 
L 306.840289 49.752676 
L 307.048228 47.195338 
L 307.225548 44.638 
L 307.408093 42.080662 
L 307.692194 39.523324 
L 308.123072 36.965986 
L 308.668996 34.408648 
L 308.821077 33.703303 
L 309.254414 31.85131 
L 309.622495 29.293972 
L 309.444369 26.736635 
L 308.821077 25.447909 
L 307.631819 24.179297 
L 304.489563 22.860166 
L 300.158049 22.438963 
L 295.826535 22.661546 
L 291.495021 23.35731 
L 288.592678 24.179297 
L 287.163507 24.51969 
L 282.831993 26.023802 
L 281.299059 26.736635 
L 278.500479 27.861215 
L 275.653356 29.293972 
L 274.168965 29.962292 
L 270.640719 31.85131 
L 269.837451 32.250415 
L 266.037696 34.408648 
L 265.505937 34.700016 
L 261.76657 36.965986 
L 261.174423 37.326694 
L 257.811919 39.523324 
L 256.842909 40.188068 
L 254.189582 42.080662 
L 252.511395 43.396871 
L 250.939313 44.638 
L 248.179881 47.15132 
L 248.130188 47.195338 
L 245.563305 49.752676 
L 243.848367 51.871621 
L 243.46882 52.310014 
L 241.656934 54.867352 
L 240.265169 57.42469 
L 239.516853 59.19045 
L 239.147689 59.982028 
L 238.217797 62.539366 
L 237.332924 65.096704 
L 236.244342 67.654042 
L 235.185339 69.489926 
L 234.757512 70.21138 
L 232.751636 72.768718 
L 230.853825 74.953736 
L 230.520201 75.326056 
L 227.917014 77.883394 
L 226.522311 79.261799 
L 225.268152 80.440732 
L 222.643758 82.99807 
L 222.190797 83.444734 
L 219.88286 85.555408 
L 217.859283 87.641275 
L 217.351633 88.112746 
L 214.739639 90.670084 
L 213.527769 92.000054 
L 212.263267 93.227422 
L 209.905951 95.784759 
L 209.196255 96.61942 
L 207.521502 98.342097 
L 205.352594 100.899435 
L 204.864741 101.505546 
L 203.060945 103.456773 
L 200.997332 106.014111 
L 200.533226 106.604317 
L 198.755971 108.571449 
L 196.701057 111.128787 
L 196.201712 111.753429 
L 194.430626 113.686125 
L 192.312828 116.243463 
L 191.870198 116.772592 
L 189.935091 118.800801 
L 187.740456 121.358139 
L 187.538684 121.587126 
L 185.216599 123.915477 
L 183.20717 126.174429 
L 182.903687 126.472815 
L 180.314598 129.030153 
L 178.875656 130.586169 
L 177.82491 131.587491 
L 175.289278 134.144829 
L 174.544142 134.921003 
L 172.616029 136.702167 
L 170.212628 139.179667 
L 170.124218 139.259505 
L 167.236847 141.816843 
L 165.881114 143.118757 
L 164.404795 144.374181 
L 161.610777 146.931519 
L 161.5496 146.98446 
L 158.346736 149.488857 
L 157.218086 150.408365 
L 155.014354 152.046195 
L 152.886572 153.665358 
L 151.55946 154.603533 
L 148.555058 156.740682 
L 147.934031 157.160871 
L 144.223544 159.651934 
L 144.122221 159.718209 
L 140.069958 162.275546 
L 139.89203 162.383538 
L 135.918853 164.832884 
L 135.560516 165.048268 
L 131.755242 167.390222 
L 131.229002 167.710612 
L 127.63376 169.94756 
L 126.897488 170.410838 
L 123.603549 172.504898 
L 122.565974 173.191037 
L 119.709665 175.062236 
L 118.23446 176.101124 
L 115.999583 177.619574 
L 113.902946 179.207446 
L 112.533296 180.176912 
L 109.571432 182.605419 
L 109.397194 182.73425 
L 106.106749 185.291588 
L 105.239918 186.099214 
L 103.06211 187.848926 
L 100.908404 190.043582 
L 100.478635 190.406264 
L 97.725915 192.963602 
L 96.57689 194.323428 
L 95.296919 195.52094 
L 93.052688 198.078278 
L 92.245376 199.194688 
L 90.871143 200.635616 
L 88.896308 203.192954 
L 87.913862 204.754845 
L 87.062052 205.750292 
L 85.178923 208.30763 
L 83.680496 210.864968 
L 83.582347 211.040297 
L 81.772126 213.422306 
L 80.14416 215.979644 
L 79.250833 217.510905 
L 78.450642 218.536982 
L 76.615831 221.09432 
L 75.015995 223.651658 
L 74.919319 223.81418 
L 73.087813 226.208996 
L 71.4342 228.766333 
L 70.587805 230.272122 
L 69.835418 231.323671 
L 68.356136 233.881009 
L 67.226368 236.438347 
L 66.475466 238.995685 
L 66.26813 241.553023 
L 66.952928 244.110361 
L 69.078383 246.667699 
L 70.587805 247.735556 
L 73.278123 249.225037 
L 74.919319 249.943253 
L 79.250833 251.398818 
L 80.807039 251.782375 
L 83.582347 252.414978 
L 87.913862 253.161242 
L 92.245376 253.737708 
L 96.57689 254.187619 
L 98.702113 254.339713 
L 100.908404 254.520901 
z
" clip-path="url(#p91860127a2)" style="fill: none; stroke: #486afb; stroke-width: 2"/>
    <path d="M 122.565974 236.561043 
L 125.964779 236.438347 
L 126.897488 236.409592 
L 131.229002 236.058884 
L 135.560516 235.578283 
L 139.89203 235.037129 
L 144.223544 234.486728 
L 148.555058 233.948634 
L 149.103086 233.881009 
L 152.886572 233.463927 
L 157.218086 232.905256 
L 161.5496 232.183017 
L 165.482588 231.323671 
L 165.881114 231.246276 
L 170.212628 230.200017 
L 174.544142 228.929983 
L 175.041825 228.766333 
L 178.875656 227.623334 
L 183.070134 226.208996 
L 183.20717 226.166635 
L 187.538684 224.77793 
L 190.794202 223.651658 
L 191.870198 223.304999 
L 196.201712 221.893402 
L 198.574467 221.09432 
L 200.533226 220.473323 
L 204.864741 219.082511 
L 206.568631 218.536982 
L 209.196255 217.742206 
L 213.527769 216.416898 
L 214.987209 215.979644 
L 217.859283 215.169151 
L 222.190797 213.937031 
L 223.999832 213.422306 
L 226.522311 212.74816 
L 230.853825 211.555121 
L 233.211354 210.864968 
L 235.185339 210.318969 
L 239.516853 209.023513 
L 241.66358 208.30763 
L 243.848367 207.606757 
L 248.179881 206.035326 
L 248.900087 205.750292 
L 252.511395 204.336636 
L 255.11896 203.192954 
L 256.842909 202.423516 
L 260.536298 200.635616 
L 261.174423 200.311686 
L 265.37146 198.078278 
L 265.505937 198.000907 
L 269.753937 195.52094 
L 269.837451 195.466623 
L 273.739568 192.963602 
L 274.168965 192.647993 
L 277.330086 190.406264 
L 278.500479 189.431098 
L 280.496386 187.848926 
L 282.831993 185.628137 
L 283.206257 185.291588 
L 285.587235 182.73425 
L 287.163507 180.608321 
L 287.507419 180.176912 
L 289.083982 177.619574 
L 290.275433 175.062236 
L 291.180958 172.504898 
L 291.495021 171.494214 
L 292.013274 169.94756 
L 293.006029 167.390222 
L 294.259859 164.832884 
L 295.763192 162.275546 
L 295.826535 162.188867 
L 297.748865 159.718209 
L 299.849228 157.160871 
L 300.158049 156.811845 
L 302.26123 154.603533 
L 304.489563 152.231904 
L 304.677477 152.046195 
L 307.277702 149.488857 
L 308.821077 147.872491 
L 309.810114 146.931519 
L 312.303601 144.374181 
L 313.152591 143.390997 
L 314.682881 141.816843 
L 316.842417 139.259505 
L 317.484106 138.317589 
L 318.748523 136.702167 
L 320.293366 134.144829 
L 321.33482 131.587491 
L 321.794295 129.030153 
L 321.596997 126.472815 
L 320.653304 123.915477 
L 318.865058 121.358139 
L 317.484106 120.001329 
L 316.083628 118.800801 
L 313.152591 116.999599 
L 311.272079 116.243463 
L 308.821077 115.48723 
L 304.489563 114.771123 
L 300.158049 114.428583 
L 295.826535 114.233242 
L 291.495021 114.061875 
L 287.163507 113.845901 
L 285.009163 113.686125 
L 282.831993 113.502325 
L 278.500479 112.884918 
L 274.168965 111.812352 
L 272.361813 111.128787 
L 269.837451 109.952645 
L 267.394268 108.571449 
L 265.505937 107.405997 
L 263.150937 106.014111 
L 261.174423 104.784584 
L 258.649912 103.456773 
L 256.842909 102.374434 
L 253.611685 100.899435 
L 252.511395 100.32578 
L 248.179881 99.224126 
L 243.848367 99.54938 
L 240.060171 100.899435 
L 239.516853 101.067877 
L 235.185339 103.456773 
L 235.185339 103.456773 
L 231.558535 106.014111 
L 230.853825 106.463369 
L 228.291801 108.571449 
L 226.522311 109.913902 
L 225.185807 111.128787 
L 222.190797 113.682545 
L 222.187093 113.686125 
L 219.382115 116.243463 
L 217.859283 117.543604 
L 216.52506 118.800801 
L 213.649898 121.358139 
L 213.527769 121.457468 
L 210.73432 123.915477 
L 209.196255 125.189032 
L 207.727748 126.472815 
L 204.864741 128.851282 
L 204.657241 129.030153 
L 201.476716 131.587491 
L 200.533226 132.305132 
L 198.214299 134.144829 
L 196.201712 135.684772 
L 194.914514 136.702167 
L 191.870198 139.055557 
L 191.612168 139.259505 
L 188.243687 141.816843 
L 187.538684 142.336304 
L 184.843178 144.374181 
L 183.20717 145.596592 
L 181.441223 146.931519 
L 178.875656 148.856428 
L 178.030541 149.488857 
L 174.579138 152.046195 
L 174.544142 152.070491 
L 170.903683 154.603533 
L 170.212628 155.067963 
L 167.083845 157.160871 
L 165.881114 157.931624 
L 163.077808 159.718209 
L 161.5496 160.643752 
L 158.856144 162.275546 
L 157.218086 163.21331 
L 154.422401 164.832884 
L 152.886572 165.672677 
L 149.827265 167.390222 
L 148.555058 168.067609 
L 145.162918 169.94756 
L 144.223544 170.4469 
L 140.537247 172.504898 
L 139.89203 172.856525 
L 136.044336 175.062236 
L 135.560516 175.339346 
L 131.748969 177.619574 
L 131.229002 177.939197 
L 127.689432 180.176912 
L 126.897488 180.707953 
L 123.891504 182.73425 
L 122.565974 183.715258 
L 120.38543 185.291588 
L 118.23446 187.061833 
L 117.222321 187.848926 
L 114.337074 190.406264 
L 113.902946 190.840293 
L 111.553769 192.963602 
L 109.571432 195.195646 
L 109.239638 195.52094 
L 106.940582 198.078278 
L 105.239918 200.491097 
L 105.117789 200.635616 
L 103.243611 203.192954 
L 101.764569 205.750292 
L 100.908404 207.539483 
L 100.452118 208.30763 
L 99.199177 210.864968 
L 98.186059 213.422306 
L 97.362517 215.979644 
L 96.721483 218.536982 
L 96.57689 219.504561 
L 96.282126 221.09432 
L 96.224422 223.651658 
L 96.57689 225.466816 
L 96.740699 226.208996 
L 98.131086 228.766333 
L 100.87965 231.323671 
L 100.908404 231.343437 
L 105.239918 233.588145 
L 106.05778 233.881009 
L 109.571432 235.000684 
L 113.902946 235.903904 
L 118.23446 236.401464 
L 119.245994 236.438347 
L 122.565974 236.561043 
z
" clip-path="url(#p91860127a2)" style="fill: none; stroke: #486afb; stroke-width: 2"/>
    <path d="M 118.23446 223.923714 
L 122.565974 225.075575 
L 126.897488 225.665477 
L 131.229002 225.849768 
L 135.560516 225.717358 
L 139.89203 225.341628 
L 144.223544 224.7932 
L 148.555058 224.137678 
L 151.584992 223.651658 
L 152.886572 223.453192 
L 157.218086 222.799916 
L 161.5496 222.132742 
L 165.881114 221.422459 
L 167.639104 221.09432 
L 170.212628 220.639234 
L 174.544142 219.734544 
L 178.875656 218.674962 
L 179.358586 218.536982 
L 183.20717 217.501937 
L 187.538684 216.197585 
L 188.196974 215.979644 
L 191.870198 214.81863 
L 195.934297 213.422306 
L 196.201712 213.333358 
L 200.533226 211.82681 
L 203.161976 210.864968 
L 204.864741 210.25108 
L 209.196255 208.656765 
L 210.155777 208.30763 
L 213.527769 207.079655 
L 217.168456 205.750292 
L 217.859283 205.493873 
L 222.190797 203.966744 
L 224.436389 203.192954 
L 226.522311 202.450295 
L 230.853825 200.930597 
L 231.704261 200.635616 
L 235.185339 199.362074 
L 238.522643 198.078278 
L 239.516853 197.662939 
L 243.848367 195.745094 
L 244.321858 195.52094 
L 248.179881 193.465827 
L 249.058704 192.963602 
L 252.511395 190.657691 
L 252.869957 190.406264 
L 255.927406 187.848926 
L 256.842909 186.905199 
L 258.382611 185.291588 
L 260.366666 182.73425 
L 261.174423 181.52397 
L 262.08329 180.176912 
L 263.698316 177.619574 
L 265.250582 175.062236 
L 265.505937 174.677188 
L 266.990337 172.504898 
L 268.77796 169.94756 
L 269.837451 168.488968 
L 270.676777 167.390222 
L 272.664528 164.832884 
L 274.168965 162.845843 
L 274.632498 162.275546 
L 276.63269 159.718209 
L 278.47764 157.160871 
L 278.500479 157.125025 
L 280.270365 154.603533 
L 281.814871 152.046195 
L 282.831993 149.977835 
L 283.100509 149.488857 
L 284.053211 146.931519 
L 284.523777 144.374181 
L 284.337378 141.816843 
L 283.190482 139.259505 
L 282.831993 138.841924 
L 280.36703 136.702167 
L 278.500479 135.68783 
L 274.168965 134.144829 
L 274.168965 134.144829 
L 269.837451 133.277085 
L 265.505937 132.727133 
L 261.174423 132.316208 
L 256.842909 131.897735 
L 254.258799 131.587491 
L 252.511395 131.344804 
L 248.179881 130.606776 
L 243.848367 129.877426 
L 239.516853 129.460296 
L 235.185339 129.602896 
L 230.853825 130.351699 
L 226.637404 131.587491 
L 226.522311 131.617599 
L 222.190797 133.237247 
L 220.230525 134.144829 
L 217.859283 135.132883 
L 214.684065 136.702167 
L 213.527769 137.218876 
L 209.58415 139.259505 
L 209.196255 139.441915 
L 204.864741 141.77162 
L 204.789701 141.816843 
L 200.533226 144.190778 
L 200.237047 144.374181 
L 196.201712 146.701544 
L 195.839664 146.931519 
L 191.870198 149.290878 
L 191.564609 149.488857 
L 187.538684 151.935309 
L 187.369156 152.046195 
L 183.20717 154.599936 
L 183.201651 154.603533 
L 179.001666 157.160871 
L 178.875656 157.231461 
L 174.708911 159.718209 
L 174.544142 159.808662 
L 170.28047 162.275546 
L 170.212628 162.31171 
L 165.881114 164.715462 
L 165.675022 164.832884 
L 161.5496 167.026524 
L 160.886332 167.390222 
L 157.218086 169.279009 
L 155.966704 169.94756 
L 152.886572 171.509239 
L 151.007789 172.504898 
L 148.555058 173.757461 
L 146.124733 175.062236 
L 144.223544 176.065554 
L 141.426772 177.619574 
L 139.89203 178.478289 
L 136.995193 180.176912 
L 135.560516 181.047962 
L 132.878901 182.73425 
L 131.229002 183.842324 
L 129.105984 185.291588 
L 126.897488 186.95639 
L 125.703101 187.848926 
L 122.692534 190.406264 
L 122.565974 190.526245 
L 119.873789 192.963602 
L 118.23446 194.760793 
L 117.4836 195.52094 
L 115.353364 198.078278 
L 113.902946 200.243687 
L 113.606816 200.635616 
L 112.053025 203.192954 
L 110.877044 205.750292 
L 110.020757 208.30763 
L 109.571432 210.452919 
L 109.470404 210.864968 
L 109.291867 213.422306 
L 109.571432 215.620933 
L 109.624007 215.979644 
L 110.707187 218.536982 
L 112.956772 221.09432 
L 113.902946 221.8182 
L 117.565364 223.651658 
L 118.23446 223.923714 
z
" clip-path="url(#p91860127a2)" style="fill: none; stroke: #486afb; stroke-width: 2"/>
    <path d="M 126.897488 217.310903 
L 131.229002 218.070448 
L 135.560516 218.289406 
L 139.89203 218.133131 
L 144.223544 217.688731 
L 148.555058 217.01599 
L 152.886572 216.166212 
L 153.76713 215.979644 
L 157.218086 215.274303 
L 161.5496 214.337807 
L 165.74093 213.422306 
L 165.881114 213.391863 
L 170.212628 212.53407 
L 174.544142 211.680335 
L 178.642767 210.864968 
L 178.875656 210.818523 
L 183.20717 209.881883 
L 187.538684 208.832024 
L 189.4225 208.30763 
L 191.870198 207.629949 
L 196.201712 206.285458 
L 197.75565 205.750292 
L 200.533226 204.788536 
L 204.84246 203.192954 
L 204.864741 203.184547 
L 209.196255 201.447878 
L 211.166849 200.635616 
L 213.527769 199.624159 
L 217.087257 198.078278 
L 217.859283 197.724023 
L 222.190797 195.734413 
L 222.661975 195.52094 
L 226.522311 193.620212 
L 227.856879 192.963602 
L 230.853825 191.331743 
L 232.532438 190.406264 
L 235.185339 188.76318 
L 236.620713 187.848926 
L 239.516853 185.758393 
L 240.138022 185.291588 
L 243.197936 182.73425 
L 243.848367 182.145084 
L 245.92721 180.176912 
L 248.179881 177.863501 
L 248.408495 177.619574 
L 250.759382 175.062236 
L 252.511395 173.071589 
L 252.999729 172.504898 
L 255.150828 169.94756 
L 256.842909 167.828901 
L 257.194678 167.390222 
L 259.092209 164.832884 
L 260.790886 162.275546 
L 261.174423 161.56706 
L 262.218829 159.718209 
L 263.266832 157.160871 
L 263.808338 154.603533 
L 263.600311 152.046195 
L 262.172542 149.488857 
L 261.174423 148.627405 
L 257.872012 146.931519 
L 256.842909 146.577427 
L 252.511395 145.680782 
L 248.179881 145.191831 
L 243.848367 144.916625 
L 239.516853 144.788376 
L 235.185339 144.813362 
L 230.853825 145.031404 
L 226.522311 145.484848 
L 222.190797 146.199519 
L 218.951733 146.931519 
L 217.859283 147.15261 
L 213.527769 148.277 
L 209.690654 149.488857 
L 209.196255 149.629427 
L 204.864741 151.117616 
L 202.570769 152.046195 
L 200.533226 152.788035 
L 196.256027 154.603533 
L 196.201712 154.624257 
L 191.870198 156.554294 
L 190.6741 157.160871 
L 187.538684 158.591127 
L 185.337349 159.718209 
L 183.20717 160.700017 
L 180.11807 162.275546 
L 178.875656 162.847779 
L 174.928586 164.832884 
L 174.544142 165.0086 
L 170.212628 167.14126 
L 169.734715 167.390222 
L 165.881114 169.247528 
L 164.504069 169.94756 
L 161.5496 171.355339 
L 159.258312 172.504898 
L 157.218086 173.480408 
L 154.077061 175.062236 
L 152.886572 175.645175 
L 149.061504 177.619574 
L 148.555058 177.879737 
L 144.310568 180.176912 
L 144.223544 180.225032 
L 139.899541 182.73425 
L 139.89203 182.738834 
L 135.871125 185.291588 
L 135.560516 185.505594 
L 132.242458 187.848926 
L 131.229002 188.651884 
L 129.023634 190.406264 
L 126.897488 192.369726 
L 126.240072 192.963602 
L 123.830938 195.52094 
L 122.565974 197.165038 
L 121.82177 198.078278 
L 120.200264 200.635616 
L 119.011744 203.192954 
L 118.249837 205.750292 
L 118.23446 205.923572 
L 118.002272 208.30763 
L 118.23446 209.827854 
L 118.432649 210.864968 
L 119.942823 213.422306 
L 122.565974 215.608335 
L 123.325018 215.979644 
L 126.897488 217.310903 
z
" clip-path="url(#p91860127a2)" style="fill: none; stroke: #486afb; stroke-width: 2"/>
    <path d="M 131.229002 212.205841 
L 135.560516 212.97638 
L 139.89203 213.090358 
L 144.223544 212.782514 
L 148.555058 212.159476 
L 152.886572 211.276018 
L 154.556367 210.864968 
L 157.218086 210.231569 
L 161.5496 209.066846 
L 164.202184 208.30763 
L 165.881114 207.824953 
L 170.212628 206.581607 
L 173.156245 205.750292 
L 174.544142 205.344798 
L 178.875656 204.176753 
L 182.658709 203.192954 
L 183.20717 203.043495 
L 187.538684 201.943715 
L 191.870198 200.801146 
L 192.452556 200.635616 
L 196.201712 199.533734 
L 200.533226 198.134184 
L 200.686617 198.078278 
L 204.864741 196.500521 
L 207.259973 195.52094 
L 209.196255 194.695323 
L 212.979686 192.963602 
L 213.527769 192.700561 
L 217.859283 190.484729 
L 218.006541 190.406264 
L 222.190797 188.022011 
L 222.484041 187.848926 
L 226.51721 185.291588 
L 226.522311 185.288162 
L 230.137773 182.73425 
L 230.853825 182.198809 
L 233.426056 180.176912 
L 235.185339 178.715206 
L 236.440993 177.619574 
L 239.218291 175.062236 
L 239.516853 174.768725 
L 241.734362 172.504898 
L 243.848367 170.165998 
L 244.040254 169.94756 
L 246.004744 167.390222 
L 247.635892 164.832884 
L 248.179881 163.560827 
L 248.737803 162.275546 
L 249.066864 159.718209 
L 248.179881 157.160871 
L 248.179881 157.160871 
L 244.117579 154.603533 
L 243.848367 154.510104 
L 239.516853 153.610506 
L 235.185339 153.23027 
L 230.853825 153.201145 
L 226.522311 153.454448 
L 222.190797 153.957144 
L 218.350765 154.603533 
L 217.859283 154.681038 
L 213.527769 155.544309 
L 209.196255 156.562336 
L 206.98858 157.160871 
L 204.864741 157.699325 
L 200.533226 158.941225 
L 198.161461 159.718209 
L 196.201712 160.309556 
L 191.870198 161.792365 
L 190.648806 162.275546 
L 187.538684 163.38995 
L 183.933481 164.832884 
L 183.20717 165.096927 
L 178.875656 166.87138 
L 177.73223 167.390222 
L 174.544142 168.711437 
L 171.799236 169.94756 
L 170.212628 170.609005 
L 165.994287 172.504898 
L 165.881114 172.552827 
L 161.5496 174.523538 
L 160.433449 175.062236 
L 157.218086 176.563331 
L 155.080818 177.619574 
L 152.886572 178.693913 
L 150.020813 180.176912 
L 148.555058 180.9487 
L 145.337558 182.73425 
L 144.223544 183.38191 
L 141.088768 185.291588 
L 139.89203 186.079714 
L 137.301714 187.848926 
L 135.560516 189.178052 
L 133.984544 190.406264 
L 131.229002 192.890527 
L 131.147898 192.963602 
L 128.780475 195.52094 
L 126.897488 198.057055 
L 126.881249 198.078278 
L 125.503555 200.635616 
L 124.69729 203.192954 
L 124.578348 205.750292 
L 125.429024 208.30763 
L 126.897488 210.0339 
L 128.111657 210.864968 
L 131.229002 212.205841 
z
" clip-path="url(#p91860127a2)" style="fill: none; stroke: #486afb; stroke-width: 2"/>
    <path clip-path="url(#p91860127a2)" style="fill: none; stroke: #486afb; stroke-width: 2"/>
   </g>
   <g id="QuadContourSet_2">
    <path d="M 118.23446 284.095133 
L 119.904965 284.030264 
L 122.565974 283.95166 
L 126.897488 283.234532 
L 131.229002 282.321402 
L 135.130781 281.37857 
L 135.560516 281.290744 
L 139.89203 280.315739 
L 144.223544 279.305373 
L 146.597146 278.726877 
L 148.555058 278.316667 
L 152.886572 277.361682 
L 157.218086 276.250419 
L 157.811205 276.075183 
L 161.5496 275.117143 
L 165.881114 273.717653 
L 166.651453 273.423489 
L 170.212628 272.205101 
L 173.605678 270.771795 
L 174.544142 270.408992 
L 178.875656 268.446159 
L 179.51875 268.120102 
L 183.20717 266.331718 
L 184.792121 265.468408 
L 187.538684 264.008058 
L 189.589678 262.816714 
L 191.870198 261.499792 
L 194.044891 260.16502 
L 196.201712 258.830255 
L 198.25761 257.513327 
L 200.533226 256.03121 
L 202.31213 254.861633 
L 204.864741 253.152025 
L 206.290371 252.209939 
L 209.196255 250.262329 
L 210.28191 249.558245 
L 213.527769 247.443033 
L 214.390825 246.906551 
L 217.859283 244.766799 
L 218.734938 244.254858 
L 222.190797 242.276497 
L 223.426442 241.603164 
L 226.522311 239.972179 
L 228.521738 238.95147 
L 230.853825 237.812333 
L 233.953273 236.299776 
L 235.185339 235.728139 
L 239.507551 233.648083 
L 239.516853 233.643831 
L 243.848367 231.69445 
L 245.24878 230.996389 
L 248.179881 229.587347 
L 250.476834 228.344695 
L 252.511395 227.270685 
L 255.178778 225.693001 
L 256.842909 224.7165 
L 259.438667 223.041308 
L 261.174423 221.908526 
L 263.349088 220.389614 
L 265.505937 218.837768 
L 266.980157 217.73792 
L 269.837451 215.510292 
L 270.379689 215.086226 
L 273.731353 212.434533 
L 274.168965 212.079156 
L 277.125122 209.782839 
L 278.500479 208.647973 
L 280.476172 207.131145 
L 282.831993 205.226083 
L 283.847217 204.479451 
L 287.163507 201.936703 
L 287.322323 201.827758 
L 291.124465 199.176064 
L 291.495021 198.90851 
L 295.184712 196.52437 
L 295.826535 196.091714 
L 299.482697 193.872676 
L 300.158049 193.441558 
L 303.983201 191.220983 
L 304.489563 190.90805 
L 308.606905 188.569289 
L 308.821077 188.438367 
L 313.152591 185.997641 
L 313.307766 185.917595 
L 317.484106 183.561396 
L 318.032764 183.265901 
L 321.81562 181.078622 
L 322.62956 180.614208 
L 326.147134 178.533517 
L 327.092077 177.962514 
L 330.478648 175.926216 
L 331.451482 175.31082 
L 334.810162 173.2637 
L 335.735196 172.659126 
L 339.141676 170.542643 
L 339.93908 170.007433 
L 343.47319 167.738302 
L 344.026175 167.355739 
L 347.804704 164.802786 
L 347.941699 164.704045 
L 351.655233 162.052351 
L 352.136218 161.694862 
L 355.12104 159.400658 
L 356.467732 158.293611 
L 358.316471 156.748964 
L 360.799246 154.497584 
L 361.242167 154.09727 
L 364.000264 151.445576 
L 365.13076 150.285596 
L 366.623279 148.793883 
L 369.174159 146.142189 
L 369.462274 145.853556 
L 371.884532 143.490495 
L 373.793788 141.654086 
L 374.670485 140.838801 
L 377.642448 138.187108 
L 378.125302 137.780572 
L 380.850405 135.535414 
L 382.456816 134.203345 
L 384.096903 132.88372 
L 386.78833 130.63838 
L 387.29499 130.232026 
L 390.51288 127.580333 
L 391.119844 127.048742 
L 393.662524 124.928639 
L 395.451358 123.249249 
L 396.553182 122.276945 
L 399.239618 119.625251 
L 399.782872 119.029696 
L 401.816609 116.973558 
L 403.987689 114.321864 
L 404.114386 114.150343 
L 406.144701 111.67017 
L 407.891927 109.018476 
L 408.4459 108.031671 
L 409.510147 106.366783 
L 410.889624 103.715089 
L 411.973681 101.063395 
L 412.777414 98.528286 
L 412.821327 98.411701 
L 413.486835 95.760008 
L 413.788107 93.108314 
L 413.686789 90.45662 
L 413.229643 87.804926 
L 412.777414 85.231522 
L 412.765144 85.153232 
L 412.777414 84.84735 
L 412.886373 82.501539 
L 413.868882 79.849845 
L 415.445307 77.198151 
L 417.108928 74.818503 
L 417.316069 74.546457 
L 419.53846 71.894764 
L 421.440442 69.330277 
L 421.51137 69.24307 
L 423.522428 66.591376 
L 425.088381 63.939682 
L 425.771956 62.473292 
L 426.386804 61.287989 
L 427.336685 58.636295 
L 427.856287 55.984601 
L 427.969563 53.332907 
L 427.689043 50.681214 
L 427.015406 48.02952 
L 425.870815 45.377826 
L 425.771956 45.219565 
L 423.679047 42.726132 
L 421.440442 41.288253 
L 417.108928 40.086048 
L 416.959585 40.074439 
L 412.777414 39.807003 
L 408.4459 39.922179 
L 406.466997 40.074439 
L 404.114386 40.234953 
L 399.782872 40.610587 
L 395.451358 40.996166 
L 391.119844 41.333374 
L 386.78833 41.549945 
L 382.456816 41.561283 
L 378.125302 41.340198 
L 373.793788 41.083546 
L 369.462274 41.189559 
L 365.13076 41.848388 
L 361.764474 42.726132 
L 360.799246 42.934569 
L 356.467732 44.230964 
L 353.166782 45.377826 
L 352.136218 45.689364 
L 347.804704 47.162707 
L 345.441079 48.02952 
L 343.47319 48.679308 
L 339.141676 50.191218 
L 337.781722 50.681214 
L 334.810162 51.675687 
L 330.478648 53.176528 
L 329.996028 53.332907 
L 326.147134 54.537036 
L 321.81562 55.847296 
L 321.215421 55.984601 
L 317.484106 56.846021 
L 313.152591 57.508887 
L 308.821077 57.694566 
L 304.489563 57.481219 
L 300.158049 57.227508 
L 295.826535 57.189457 
L 291.495021 57.392054 
L 287.163507 57.787201 
L 282.831993 58.355376 
L 281.108832 58.636295 
L 278.500479 58.996443 
L 274.168965 59.802332 
L 269.837451 60.916222 
L 268.676531 61.287989 
L 265.505937 62.147039 
L 261.174423 63.588267 
L 260.244026 63.939682 
L 256.842909 65.064953 
L 252.719151 66.591376 
L 252.511395 66.659193 
L 248.179881 68.242612 
L 245.658641 69.24307 
L 243.848367 69.894675 
L 239.516853 71.603707 
L 238.839599 71.894764 
L 235.185339 73.342091 
L 232.393199 74.546457 
L 230.853825 75.161644 
L 226.522311 77.043237 
L 226.184592 77.198151 
L 222.190797 78.928495 
L 220.190592 79.849845 
L 217.859283 80.871238 
L 214.34694 82.501539 
L 213.527769 82.865693 
L 209.196255 84.860546 
L 208.564904 85.153232 
L 204.864741 86.8363 
L 202.825063 87.804926 
L 200.533226 88.878688 
L 197.329093 90.45662 
L 196.201712 91.006499 
L 192.122674 93.108314 
L 191.870198 93.237371 
L 187.538684 95.518359 
L 187.101054 95.760008 
L 183.20717 97.893237 
L 182.313777 98.411701 
L 178.875656 100.374234 
L 177.721166 101.063395 
L 174.544142 102.910572 
L 173.20416 103.715089 
L 170.212628 105.449545 
L 168.667819 106.366783 
L 165.881114 107.956539 
L 164.060694 109.018476 
L 161.5496 110.425669 
L 159.388774 111.67017 
L 157.218086 112.877292 
L 154.71175 114.321864 
L 152.886572 115.347791 
L 150.115742 116.973558 
L 148.555058 117.879432 
L 145.679064 119.625251 
L 144.223544 120.515299 
L 141.45513 122.276945 
L 139.89203 123.301162 
L 137.477942 124.928639 
L 135.560516 126.294698 
L 133.778033 127.580333 
L 131.229002 129.582955 
L 130.39703 130.232026 
L 127.293182 132.88372 
L 126.897488 133.253636 
L 124.364538 135.535414 
L 122.565974 137.473689 
L 121.861993 138.187108 
L 119.506611 140.838801 
L 118.23446 142.564116 
L 117.480556 143.490495 
L 115.538058 146.142189 
L 113.958013 148.793883 
L 113.902946 148.887991 
L 112.183844 151.445576 
L 110.636151 154.09727 
L 109.571432 156.055607 
L 109.128317 156.748964 
L 107.413027 159.400658 
L 105.831475 162.052351 
L 105.239918 163.037933 
L 104.061193 164.704045 
L 102.281935 167.355739 
L 100.908404 169.564881 
L 100.582404 170.007433 
L 98.736222 172.659126 
L 97.129712 175.31082 
L 96.57689 176.343021 
L 95.543601 177.962514 
L 94.114529 180.614208 
L 92.920613 183.265901 
L 92.245376 185.05205 
L 91.850528 185.917595 
L 90.798033 188.569289 
L 89.83474 191.220983 
L 88.931575 193.872676 
L 88.105187 196.52437 
L 87.913862 197.209019 
L 87.212377 199.176064 
L 86.408083 201.827758 
L 85.781498 204.479451 
L 85.297858 207.131145 
L 84.867765 209.782839 
L 84.400459 212.434533 
L 83.846075 215.086226 
L 83.582347 216.090519 
L 83.009923 217.73792 
L 82.00499 220.389614 
L 81.015264 223.041308 
L 80.060835 225.693001 
L 79.250833 228.085845 
L 79.138293 228.344695 
L 78.216532 230.996389 
L 77.641326 233.648083 
L 77.627783 236.299776 
L 78.682284 238.95147 
L 79.250833 239.570938 
L 81.429968 241.603164 
L 83.582347 243.03587 
L 84.917162 244.254858 
L 87.363859 246.906551 
L 87.913862 247.738273 
L 88.692483 249.558245 
L 89.522382 252.209939 
L 90.232435 254.861633 
L 91.045732 257.513327 
L 92.245376 260.16502 
L 92.245376 260.16502 
L 93.995582 262.816714 
L 96.57689 265.268357 
L 96.808211 265.468408 
L 100.30771 268.120102 
L 100.908404 268.567212 
L 103.905881 270.771795 
L 105.239918 271.891122 
L 107.231809 273.423489 
L 109.571432 275.744392 
L 109.979644 276.075183 
L 112.111001 278.726877 
L 113.688337 281.37857 
L 113.902946 281.746067 
L 117.980965 284.030264 
L 118.23446 284.095133 
z
" clip-path="url(#p91860127a2)" style="fill: none; stroke: #fd46fc; stroke-width: 2"/>
    <path d="M 126.897488 249.620694 
L 131.229002 250.352 
L 135.560516 250.582276 
L 139.89203 250.435845 
L 144.223544 250.019937 
L 147.631165 249.558245 
L 148.555058 249.437465 
L 152.886572 248.786069 
L 157.218086 248.075485 
L 161.5496 247.294136 
L 163.423236 246.906551 
L 165.881114 246.420269 
L 170.212628 245.394054 
L 174.131241 244.254858 
L 174.544142 244.141876 
L 178.875656 242.707331 
L 181.679156 241.603164 
L 183.20717 241.040755 
L 187.538684 239.19445 
L 188.043264 238.95147 
L 191.870198 237.223699 
L 193.717538 236.299776 
L 196.201712 235.126807 
L 199.083942 233.648083 
L 200.533226 232.939073 
L 204.252631 230.996389 
L 204.864741 230.687778 
L 209.196255 228.396319 
L 209.291496 228.344695 
L 213.527769 226.090219 
L 214.261235 225.693001 
L 217.859283 223.753381 
L 219.171538 223.041308 
L 222.190797 221.387863 
L 224.015528 220.389614 
L 226.522311 218.986972 
L 228.764307 217.73792 
L 230.853825 216.532318 
L 233.367357 215.086226 
L 235.185339 213.991085 
L 237.762433 212.434533 
L 239.516853 211.315492 
L 241.895717 209.782839 
L 243.848367 208.447569 
L 245.742751 207.131145 
L 248.179881 205.33272 
L 249.315962 204.479451 
L 252.511395 201.942696 
L 252.654325 201.827758 
L 255.879258 199.176064 
L 256.842909 198.366274 
L 259.022625 196.52437 
L 261.174423 194.677845 
L 262.122548 193.872676 
L 265.235488 191.220983 
L 265.505937 190.99382 
L 268.467763 188.569289 
L 269.837451 187.432449 
L 271.744921 185.917595 
L 274.168965 183.941863 
L 275.048586 183.265901 
L 278.366782 180.614208 
L 278.500479 180.50232 
L 281.750844 177.962514 
L 282.831993 177.046005 
L 285.030775 175.31082 
L 287.163507 173.450121 
L 288.134374 172.659126 
L 291.050946 170.007433 
L 291.495021 169.554006 
L 293.79553 167.355739 
L 295.826535 165.129153 
L 296.239262 164.704045 
L 298.543865 162.052351 
L 300.158049 159.940026 
L 300.599402 159.400658 
L 302.574665 156.748964 
L 304.322407 154.09727 
L 304.489563 153.814381 
L 306.028159 151.445576 
L 307.513825 148.793883 
L 308.746505 146.142189 
L 308.821077 145.947431 
L 309.891843 143.490495 
L 310.843537 140.838801 
L 311.681866 138.187108 
L 312.50717 135.535414 
L 313.152591 133.620515 
L 313.438877 132.88372 
L 314.585133 130.232026 
L 315.77951 127.580333 
L 316.980289 124.928639 
L 317.484106 123.770184 
L 318.26163 122.276945 
L 319.511376 119.625251 
L 320.580078 116.973558 
L 321.443469 114.321864 
L 321.81562 112.76339 
L 322.126248 111.67017 
L 322.515019 109.018476 
L 322.416635 106.366783 
L 321.81562 104.523568 
L 321.465245 103.715089 
L 318.235846 101.063395 
L 317.484106 100.737241 
L 313.152591 99.781215 
L 308.821077 99.44692 
L 304.489563 99.339716 
L 300.158049 99.264965 
L 295.826535 99.147873 
L 291.495021 99.007726 
L 287.163507 98.902849 
L 282.831993 98.856293 
L 278.500479 98.82411 
L 274.168965 98.709593 
L 270.050915 98.411701 
L 269.837451 98.393734 
L 265.505937 97.763364 
L 261.174423 96.990784 
L 256.842909 96.396083 
L 252.511395 96.237509 
L 248.179881 96.566098 
L 243.848367 97.30287 
L 239.516853 98.360207 
L 239.35535 98.411701 
L 235.185339 99.671667 
L 231.184497 101.063395 
L 230.853825 101.174146 
L 226.522311 102.819671 
L 224.368661 103.715089 
L 222.190797 104.606132 
L 218.201396 106.366783 
L 217.859283 106.51757 
L 213.527769 108.52489 
L 212.504453 109.018476 
L 209.196255 110.641053 
L 207.151818 111.67017 
L 204.864741 112.854265 
L 202.045864 114.321864 
L 200.533226 115.139642 
L 197.085646 116.973558 
L 196.201712 117.465354 
L 192.170754 119.625251 
L 191.870198 119.794405 
L 187.538684 122.089693 
L 187.166337 122.276945 
L 183.20717 124.331042 
L 181.996961 124.928639 
L 178.875656 126.511118 
L 176.684565 127.580333 
L 174.544142 128.646266 
L 171.315177 130.232026 
L 170.212628 130.781662 
L 166.080862 132.88372 
L 165.881114 132.98663 
L 161.5496 135.359674 
L 161.253678 135.535414 
L 157.218086 137.973516 
L 156.894306 138.187108 
L 153.005605 140.838801 
L 152.886572 140.92323 
L 149.623029 143.490495 
L 148.555058 144.37522 
L 146.608865 146.142189 
L 144.223544 148.461362 
L 143.904844 148.793883 
L 141.552712 151.445576 
L 139.89203 153.466057 
L 139.398973 154.09727 
L 137.424052 156.748964 
L 135.584907 159.400658 
L 135.560516 159.435629 
L 133.758072 162.052351 
L 132.018777 164.704045 
L 131.229002 165.929143 
L 130.284532 167.355739 
L 128.546414 170.007433 
L 126.94804 172.659126 
L 126.897488 172.740749 
L 125.200729 175.31082 
L 123.60512 177.962514 
L 122.565974 179.796788 
L 122.059644 180.614208 
L 120.465088 183.265901 
L 119.022113 185.917595 
L 118.23446 187.441936 
L 117.586998 188.569289 
L 116.146078 191.220983 
L 114.830254 193.872676 
L 113.902946 195.857422 
L 113.553471 196.52437 
L 112.235924 199.176064 
L 111.045481 201.827758 
L 109.968107 204.479451 
L 109.571432 205.577137 
L 108.939442 207.131145 
L 108.059745 209.782839 
L 107.407663 212.434533 
L 107.02407 215.086226 
L 106.962356 217.73792 
L 107.254911 220.389614 
L 107.865 223.041308 
L 108.675089 225.693001 
L 109.550196 228.344695 
L 109.571432 228.409134 
L 110.291216 230.996389 
L 111.070223 233.648083 
L 111.970044 236.299776 
L 113.086771 238.95147 
L 113.902946 240.5027 
L 114.56353 241.603164 
L 116.679717 244.254858 
L 118.23446 245.717555 
L 120.069616 246.906551 
L 122.565974 248.253914 
L 126.692358 249.558245 
L 126.897488 249.620694 
z
" clip-path="url(#p91860127a2)" style="fill: none; stroke: #fd46fc; stroke-width: 2"/>
    <path d="M 135.560516 232.744478 
L 139.89203 233.247127 
L 144.223544 232.965756 
L 148.555058 232.218576 
L 152.886572 231.151419 
L 153.433511 230.996389 
L 157.218086 229.935926 
L 161.5496 228.601005 
L 162.404593 228.344695 
L 165.881114 227.279049 
L 170.212628 225.963331 
L 171.192648 225.693001 
L 174.544142 224.735933 
L 178.875656 223.546359 
L 180.749941 223.041308 
L 183.20717 222.365527 
L 187.538684 221.108038 
L 189.765726 220.389614 
L 191.870198 219.710288 
L 196.201712 218.123726 
L 197.124086 217.73792 
L 200.533226 216.316654 
L 203.169329 215.086226 
L 204.864741 214.29806 
L 208.474849 212.434533 
L 209.196255 212.064471 
L 213.251378 209.782839 
L 213.527769 209.628859 
L 217.675805 207.131145 
L 217.859283 207.022245 
L 221.882255 204.479451 
L 222.190797 204.288045 
L 225.962119 201.827758 
L 226.522311 201.470035 
L 229.96833 199.176064 
L 230.853825 198.598904 
L 233.920706 196.52437 
L 235.185339 195.683362 
L 237.812468 193.872676 
L 239.516853 192.708474 
L 241.61903 191.220983 
L 243.848367 189.639563 
L 245.307865 188.569289 
L 248.179881 186.428118 
L 248.845982 185.917595 
L 252.210064 183.265901 
L 252.511395 183.017704 
L 255.394443 180.614208 
L 256.842909 179.321951 
L 258.368054 177.962514 
L 261.113011 175.31082 
L 261.174423 175.246708 
L 263.704649 172.659126 
L 265.505937 170.616601 
L 266.061626 170.007433 
L 268.282343 167.355739 
L 269.837451 165.296855 
L 270.307253 164.704045 
L 272.25157 162.052351 
L 274.014812 159.400658 
L 274.168965 159.154961 
L 275.764192 156.748964 
L 277.386985 154.09727 
L 278.500479 152.155018 
L 278.928961 151.445576 
L 280.44875 148.793883 
L 281.848293 146.142189 
L 282.831993 144.129667 
L 283.158226 143.490495 
L 284.36387 140.838801 
L 285.384266 138.187108 
L 286.188549 135.535414 
L 286.705341 132.88372 
L 286.80135 130.232026 
L 286.256048 127.580333 
L 284.731115 124.928639 
L 282.831993 123.145518 
L 281.718599 122.276945 
L 278.500479 120.522934 
L 276.445504 119.625251 
L 274.168965 118.860966 
L 269.837451 117.925589 
L 265.505937 117.572139 
L 261.174423 117.653405 
L 256.842909 118.028005 
L 252.511395 118.608141 
L 248.179881 119.354847 
L 246.762946 119.625251 
L 243.848367 120.147475 
L 239.516853 120.994722 
L 235.185339 121.969689 
L 233.899554 122.276945 
L 230.853825 122.973767 
L 226.522311 124.139155 
L 224.04989 124.928639 
L 222.190797 125.498981 
L 217.859283 127.083148 
L 216.703378 127.580333 
L 213.527769 128.881481 
L 210.686202 130.232026 
L 209.196255 130.90594 
L 205.291557 132.88372 
L 204.864741 133.088875 
L 200.533226 135.352375 
L 200.206877 135.535414 
L 196.201712 137.644118 
L 195.224831 138.187108 
L 191.870198 139.939033 
L 190.220974 140.838801 
L 187.538684 142.219674 
L 185.167775 143.490495 
L 183.20717 144.490257 
L 180.104647 146.142189 
L 178.875656 146.772084 
L 175.124466 148.793883 
L 174.544142 149.099383 
L 170.341816 151.445576 
L 170.212628 151.517179 
L 165.881114 154.079699 
L 165.853186 154.09727 
L 161.714775 156.748964 
L 161.5496 156.857472 
L 157.932408 159.400658 
L 157.218086 159.923568 
L 154.484948 162.052351 
L 152.886572 163.36588 
L 151.340947 164.704045 
L 148.555058 167.279773 
L 148.476039 167.355739 
L 145.831234 170.007433 
L 144.223544 171.742155 
L 143.395152 172.659126 
L 141.159585 175.31082 
L 139.89203 176.918361 
L 139.081228 177.962514 
L 137.171314 180.614208 
L 135.560516 183.000927 
L 135.382961 183.265901 
L 133.726249 185.917595 
L 132.171417 188.569289 
L 131.229002 190.26503 
L 130.701779 191.220983 
L 129.35119 193.872676 
L 128.112425 196.52437 
L 127.005224 199.176064 
L 126.897488 199.498082 
L 126.119031 201.827758 
L 125.481075 204.479451 
L 125.124798 207.131145 
L 125.058573 209.782839 
L 125.231409 212.434533 
L 125.542368 215.086226 
L 125.902778 217.73792 
L 126.297644 220.389614 
L 126.798159 223.041308 
L 126.897488 223.406644 
L 127.618257 225.693001 
L 129.035227 228.344695 
L 131.229002 230.779546 
L 131.568895 230.996389 
L 135.560516 232.744478 
z
" clip-path="url(#p91860127a2)" style="fill: none; stroke: #fd46fc; stroke-width: 2"/>
    <path d="M 152.886572 215.17019 
L 153.638478 215.086226 
L 157.218086 214.643411 
L 161.5496 213.196944 
L 163.331983 212.434533 
L 165.881114 211.246839 
L 168.844453 209.782839 
L 170.212628 209.064189 
L 174.031568 207.131145 
L 174.544142 206.865816 
L 178.875656 204.819221 
L 179.71557 204.479451 
L 183.20717 203.079065 
L 187.158374 201.827758 
L 187.538684 201.711671 
L 191.870198 200.522783 
L 196.201712 199.452074 
L 197.202997 199.176064 
L 200.533226 198.3112 
L 204.864741 197.008776 
L 206.164654 196.52437 
L 209.196255 195.463933 
L 213.003302 193.872676 
L 213.527769 193.664598 
L 217.859283 191.625877 
L 218.615705 191.220983 
L 222.190797 189.360351 
L 223.564585 188.569289 
L 226.522311 186.880004 
L 228.076805 185.917595 
L 230.853825 184.17606 
L 232.215085 183.265901 
L 235.185339 181.211043 
L 236.00562 180.614208 
L 239.456587 177.962514 
L 239.516853 177.913341 
L 242.565568 175.31082 
L 243.848367 174.125956 
L 245.388424 172.659126 
L 247.927519 170.007433 
L 248.179881 169.718961 
L 250.202045 167.355739 
L 252.268979 164.704045 
L 252.511395 164.360975 
L 254.119675 162.052351 
L 255.804736 159.400658 
L 256.842909 157.629602 
L 257.355347 156.748964 
L 258.714092 154.09727 
L 259.939505 151.445576 
L 261.003938 148.793883 
L 261.174423 148.227393 
L 261.795664 146.142189 
L 262.301492 143.490495 
L 262.453068 140.838801 
L 262.145081 138.187108 
L 261.205652 135.535414 
L 261.174423 135.487827 
L 258.910694 132.88372 
L 256.842909 131.67611 
L 252.511395 130.677597 
L 248.179881 130.791283 
L 243.848367 131.493471 
L 239.516853 132.557282 
L 238.485985 132.88372 
L 235.185339 133.942489 
L 230.857422 135.535414 
L 230.853825 135.536776 
L 226.522311 137.33831 
L 224.611676 138.187108 
L 222.190797 139.305044 
L 218.980667 140.838801 
L 217.859283 141.39992 
L 213.691441 143.490495 
L 213.527769 143.576937 
L 209.196255 145.787565 
L 208.473768 146.142189 
L 204.864741 147.981293 
L 203.170032 148.793883 
L 200.533226 150.107345 
L 197.632806 151.445576 
L 196.201712 152.133155 
L 191.870198 154.054792 
L 191.771967 154.09727 
L 187.538684 155.96743 
L 185.755307 156.748964 
L 183.20717 157.899048 
L 179.965873 159.400658 
L 178.875656 159.925467 
L 174.716096 162.052351 
L 174.544142 162.144433 
L 170.212628 164.67757 
L 170.171616 164.704045 
L 166.27739 167.355739 
L 165.881114 167.640703 
L 162.924795 170.007433 
L 161.5496 171.167312 
L 159.955347 172.659126 
L 157.257615 175.31082 
L 157.218086 175.353286 
L 155.039859 177.962514 
L 152.886572 180.614208 
L 152.886572 180.614208 
L 151.138828 183.265901 
L 149.474079 185.917595 
L 148.555058 187.517199 
L 148.011591 188.569289 
L 146.87556 191.220983 
L 145.974983 193.872676 
L 145.400712 196.52437 
L 145.251026 199.176064 
L 145.545963 201.827758 
L 146.13958 204.479451 
L 146.800528 207.131145 
L 147.451232 209.782839 
L 148.3344 212.434533 
L 148.555058 212.797881 
L 152.539566 215.086226 
L 152.886572 215.17019 
z
" clip-path="url(#p91860127a2)" style="fill: none; stroke: #fd46fc; stroke-width: 2"/>
    <path d="M 209.196255 178.314922 
L 213.527769 178.341201 
L 214.942435 177.962514 
L 217.859283 177.07689 
L 221.725934 175.31082 
L 222.190797 175.067483 
L 225.566036 172.659126 
L 226.522311 171.88314 
L 228.324201 170.007433 
L 230.543789 167.355739 
L 230.853825 166.775931 
L 231.680237 164.704045 
L 232.194065 162.052351 
L 232.378875 159.400658 
L 232.58724 156.748964 
L 232.907453 154.09727 
L 232.564379 151.445576 
L 230.853825 150.479496 
L 227.062245 151.445576 
L 226.522311 151.59868 
L 222.646576 154.09727 
L 222.190797 154.396467 
L 219.698518 156.748964 
L 217.859283 158.399749 
L 216.941392 159.400658 
L 214.536323 162.052351 
L 213.527769 163.06144 
L 212.171237 164.704045 
L 209.86765 167.355739 
L 209.196255 168.173503 
L 207.870209 170.007433 
L 206.458578 172.659126 
L 206.048018 175.31082 
L 208.197394 177.962514 
L 209.196255 178.314922 
z
" clip-path="url(#p91860127a2)" style="fill: none; stroke: #fd46fc; stroke-width: 2"/>
    <path clip-path="url(#p91860127a2)" style="fill: none; stroke: #fd46fc; stroke-width: 2"/>
   </g>
   <g id="patch_3">
    <path d="M 45.992188 300.04 
L 45.992188 7.2 
" style="fill: none; stroke: #000000; stroke-width: 0.6; stroke-linejoin: miter; stroke-linecap: square"/>
   </g>
   <g id="patch_4">
    <path d="M 45.992188 300.04 
L 433.962187 300.04 
" style="fill: none; stroke: #000000; stroke-width: 0.6; stroke-linejoin: miter; stroke-linecap: square"/>
   </g>
   <g id="legend_1">
    <g id="patch_5">
     <path d="M 52.992188 44.73125 
L 193.357813 44.73125 
Q 195.357813 44.73125 195.357813 42.73125 
L 195.357813 14.2 
Q 195.357813 12.2 193.357813 12.2 
L 52.992188 12.2 
Q 50.992188 12.2 50.992188 14.2 
L 50.992188 42.73125 
Q 50.992188 44.73125 52.992188 44.73125 
z
" style="fill: #ffffff; opacity: 0.8; stroke: #333333; stroke-width: 0.2; stroke-linejoin: miter"/>
    </g>
    <g id="line2d_23">
     <path d="M 54.992188 20.351562 
L 64.992188 20.351562 
L 74.992188 20.351562 
" style="fill: none; stroke: #486afb; stroke-width: 2; stroke-linecap: square"/>
    </g>
    <g id="text_14">
     <!-- true data PDF -->
     <g transform="translate(82.992188 23.851562) scale(0.1 -0.1)">
      <defs>
       <path id="DejaVuSansMono-74" d="M 1919 4494 
L 1919 3500 
L 3225 3500 
L 3225 3053 
L 1919 3053 
L 1919 1153 
Q 1919 766 2066 612 
Q 2213 459 2578 459 
L 3225 459 
L 3225 0 
L 2522 0 
Q 1875 0 1609 259 
Q 1344 519 1344 1153 
L 1344 3053 
L 409 3053 
L 409 3500 
L 1344 3500 
L 1344 4494 
L 1919 4494 
z
" transform="scale(0.015625)"/>
       <path id="DejaVuSansMono-75" d="M 609 1325 
L 609 3494 
L 1184 3494 
L 1184 1325 
Q 1184 853 1351 631 
Q 1519 409 1869 409 
Q 2275 409 2490 695 
Q 2706 981 2706 1516 
L 2706 3494 
L 3284 3494 
L 3284 0 
L 2706 0 
L 2706 525 
Q 2553 222 2289 65 
Q 2025 -91 1672 -91 
Q 1134 -91 871 261 
Q 609 613 609 1325 
z
" transform="scale(0.015625)"/>
       <path id="DejaVuSansMono-20" transform="scale(0.015625)"/>
       <path id="DejaVuSansMono-64" d="M 2681 3053 
L 2681 4863 
L 3256 4863 
L 3256 0 
L 2681 0 
L 2681 441 
Q 2538 181 2298 45 
Q 2059 -91 1747 -91 
Q 1113 -91 748 401 
Q 384 894 384 1759 
Q 384 2613 750 3098 
Q 1116 3584 1747 3584 
Q 2063 3584 2303 3448 
Q 2544 3313 2681 3053 
z
M 991 1747 
Q 991 1078 1203 737 
Q 1416 397 1831 397 
Q 2247 397 2464 740 
Q 2681 1084 2681 1747 
Q 2681 2413 2464 2755 
Q 2247 3097 1831 3097 
Q 1416 3097 1203 2756 
Q 991 2416 991 1747 
z
" transform="scale(0.015625)"/>
       <path id="DejaVuSansMono-50" d="M 1247 4147 
L 1247 2394 
L 1978 2394 
Q 2416 2394 2661 2625 
Q 2906 2856 2906 3272 
Q 2906 3688 2662 3917 
Q 2419 4147 1978 4147 
L 1247 4147 
z
M 616 4666 
L 1978 4666 
Q 2759 4666 3162 4311 
Q 3566 3956 3566 3272 
Q 3566 2581 3164 2228 
Q 2763 1875 1978 1875 
L 1247 1875 
L 1247 0 
L 616 0 
L 616 4666 
z
" transform="scale(0.015625)"/>
       <path id="DejaVuSansMono-44" d="M 1363 519 
Q 2159 519 2475 911 
Q 2791 1303 2791 2328 
Q 2791 3363 2477 3755 
Q 2163 4147 1363 4147 
L 1063 4147 
L 1063 519 
L 1363 519 
z
M 1375 4666 
Q 2444 4666 2950 4097 
Q 3456 3528 3456 2328 
Q 3456 1134 2950 567 
Q 2444 0 1375 0 
L 428 0 
L 428 4666 
L 1375 4666 
z
" transform="scale(0.015625)"/>
       <path id="DejaVuSansMono-46" d="M 728 4666 
L 3475 4666 
L 3475 4134 
L 1363 4134 
L 1363 2759 
L 3278 2759 
L 3278 2228 
L 1363 2228 
L 1363 0 
L 728 0 
L 728 4666 
z
" transform="scale(0.015625)"/>
      </defs>
      <use xlink:href="#DejaVuSansMono-74"/>
      <use xlink:href="#DejaVuSansMono-72" x="60.205078"/>
      <use xlink:href="#DejaVuSansMono-75" x="120.410156"/>
      <use xlink:href="#DejaVuSansMono-65" x="180.615234"/>
      <use xlink:href="#DejaVuSansMono-20" x="240.820312"/>
      <use xlink:href="#DejaVuSansMono-64" x="301.025391"/>
      <use xlink:href="#DejaVuSansMono-61" x="361.230469"/>
      <use xlink:href="#DejaVuSansMono-74" x="421.435547"/>
      <use xlink:href="#DejaVuSansMono-61" x="481.640625"/>
      <use xlink:href="#DejaVuSansMono-20" x="541.845703"/>
      <use xlink:href="#DejaVuSansMono-50" x="602.050781"/>
      <use xlink:href="#DejaVuSansMono-44" x="662.255859"/>
      <use xlink:href="#DejaVuSansMono-46" x="722.460938"/>
     </g>
    </g>
    <g id="line2d_24">
     <path d="M 54.992188 35.082812 
L 64.992188 35.082812 
L 74.992188 35.082812 
" style="fill: none; stroke: #fd46fc; stroke-width: 2; stroke-linecap: square"/>
    </g>
    <g id="text_15">
     <!-- generated data PDF -->
     <g transform="translate(82.992188 38.582812) scale(0.1 -0.1)">
      <defs>
       <path id="DejaVuSansMono-67" d="M 2681 1778 
Q 2681 2425 2470 2761 
Q 2259 3097 1856 3097 
Q 1434 3097 1212 2761 
Q 991 2425 991 1778 
Q 991 1131 1214 792 
Q 1438 453 1863 453 
Q 2259 453 2470 793 
Q 2681 1134 2681 1778 
z
M 3256 225 
Q 3256 -563 2884 -969 
Q 2513 -1375 1791 -1375 
Q 1553 -1375 1293 -1331 
Q 1034 -1288 775 -1203 
L 775 -634 
Q 1081 -778 1331 -847 
Q 1581 -916 1791 -916 
Q 2256 -916 2468 -662 
Q 2681 -409 2681 141 
L 2681 166 
L 2681 556 
Q 2544 263 2306 119 
Q 2069 -25 1728 -25 
Q 1116 -25 750 465 
Q 384 956 384 1778 
Q 384 2603 750 3093 
Q 1116 3584 1728 3584 
Q 2066 3584 2300 3450 
Q 2534 3316 2681 3034 
L 2681 3488 
L 3256 3488 
L 3256 225 
z
" transform="scale(0.015625)"/>
       <path id="DejaVuSansMono-6e" d="M 3284 2169 
L 3284 0 
L 2706 0 
L 2706 2169 
Q 2706 2641 2540 2862 
Q 2375 3084 2022 3084 
Q 1619 3084 1401 2798 
Q 1184 2513 1184 1978 
L 1184 0 
L 609 0 
L 609 3500 
L 1184 3500 
L 1184 2975 
Q 1338 3275 1600 3429 
Q 1863 3584 2222 3584 
Q 2756 3584 3020 3232 
Q 3284 2881 3284 2169 
z
" transform="scale(0.015625)"/>
      </defs>
      <use xlink:href="#DejaVuSansMono-67"/>
      <use xlink:href="#DejaVuSansMono-65" x="60.205078"/>
      <use xlink:href="#DejaVuSansMono-6e" x="120.410156"/>
      <use xlink:href="#DejaVuSansMono-65" x="180.615234"/>
      <use xlink:href="#DejaVuSansMono-72" x="240.820312"/>
      <use xlink:href="#DejaVuSansMono-61" x="301.025391"/>
      <use xlink:href="#DejaVuSansMono-74" x="361.230469"/>
      <use xlink:href="#DejaVuSansMono-65" x="421.435547"/>
      <use xlink:href="#DejaVuSansMono-64" x="481.640625"/>
      <use xlink:href="#DejaVuSansMono-20" x="541.845703"/>
      <use xlink:href="#DejaVuSansMono-64" x="602.050781"/>
      <use xlink:href="#DejaVuSansMono-61" x="662.255859"/>
      <use xlink:href="#DejaVuSansMono-74" x="722.460938"/>
      <use xlink:href="#DejaVuSansMono-61" x="782.666016"/>
      <use xlink:href="#DejaVuSansMono-20" x="842.871094"/>
      <use xlink:href="#DejaVuSansMono-50" x="903.076172"/>
      <use xlink:href="#DejaVuSansMono-44" x="963.28125"/>
      <use xlink:href="#DejaVuSansMono-46" x="1023.486328"/>
     </g>
    </g>
   </g>
  </g>
 </g>
 <defs>
  <clipPath id="p91860127a2">
   <rect x="45.992188" y="7.2" width="387.97" height="292.84"/>
  </clipPath>
 </defs>
</svg>