<?xml version="1.0" encoding="utf-8" standalone="no"?>
<!DOCTYPE svg PUBLIC "-//W3C//DTD SVG 1.1//EN"
  "http://www.w3.org/Graphics/SVG/1.1/DTD/svg11.dtd">
<svg xmlns:xlink="http://www.w3.org/1999/xlink" width="856.393125pt" height="424.1025pt" viewBox="0 0 856.393125 424.1025" xmlns="http://www.w3.org/2000/svg" version="1.1">
 <metadata>
  <rdf:RDF xmlns:dc="http://purl.org/dc/elements/1.1/" xmlns:cc="http://creativecommons.org/ns#" xmlns:rdf="http://www.w3.org/1999/02/22-rdf-syntax-ns#">
   <cc:Work>
    <dc:type rdf:resource="http://purl.org/dc/dcmitype/StillImage"/>
    <dc:date>2024-01-17T17:44:40.226716</dc:date>
    <dc:format>image/svg+xml</dc:format>
    <dc:creator>
     <cc:Agent>
      <dc:title>Matplotlib v3.8.2, https://matplotlib.org/</dc:title>
     </cc:Agent>
    </dc:creator>
   </cc:Work>
  </rdf:RDF>
 </metadata>
 <defs>
  <style type="text/css">*{stroke-linejoin: round; stroke-linecap: butt}</style>
 </defs>
 <g id="figure_1">
  <g id="patch_1">
   <path d="M 0 424.1025 
L 856.393125 424.1025 
L 856.393125 0 
L 0 0 
z
" style="fill: #ffffff"/>
  </g>
  <g id="axes_1">
   <g id="patch_2">
    <path d="M 64.053125 386.44 
L 849.193125 386.44 
L 849.193125 7.2 
L 64.053125 7.2 
z
" style="fill: #ffffff"/>
   </g>
   <g id="patch_3">
    <path d="M 105.406098 386.44 
L 111.070888 386.44 
L 111.070888 386.44 
L 105.406098 386.44 
z
" clip-path="url(#p6f49d9749a)" style="fill: #fd46fc; stroke: #000000; stroke-width: 0.2; stroke-linejoin: miter"/>
   </g>
   <g id="patch_4">
    <path d="M 116.735679 386.44 
L 122.40047 386.44 
L 122.40047 379.103512 
L 116.735679 379.103512 
z
" clip-path="url(#p6f49d9749a)" style="fill: #fd46fc; stroke: #000000; stroke-width: 0.2; stroke-linejoin: miter"/>
   </g>
   <g id="patch_5">
    <path d="M 128.065261 386.44 
L 133.730051 386.44 
L 133.730051 348.628869 
L 128.065261 348.628869 
z
" clip-path="url(#p6f49d9749a)" style="fill: #fd46fc; stroke: #000000; stroke-width: 0.2; stroke-linejoin: miter"/>
   </g>
   <g id="patch_6">
    <path d="M 139.394842 386.44 
L 145.059633 386.44 
L 145.059633 299.530833 
L 139.394842 299.530833 
z
" clip-path="url(#p6f49d9749a)" style="fill: #fd46fc; stroke: #000000; stroke-width: 0.2; stroke-linejoin: miter"/>
   </g>
   <g id="patch_7">
    <path d="M 150.724424 386.44 
L 156.389214 386.44 
L 156.389214 232.938095 
L 150.724424 232.938095 
z
" clip-path="url(#p6f49d9749a)" style="fill: #fd46fc; stroke: #000000; stroke-width: 0.2; stroke-linejoin: miter"/>
   </g>
   <g id="patch_8">
    <path d="M 162.054005 386.44 
L 167.718796 386.44 
L 167.718796 180.453988 
L 162.054005 180.453988 
z
" clip-path="url(#p6f49d9749a)" style="fill: #fd46fc; stroke: #000000; stroke-width: 0.2; stroke-linejoin: miter"/>
   </g>
   <g id="patch_9">
    <path d="M 173.383587 386.44 
L 179.048378 386.44 
L 179.048378 114.425595 
L 173.383587 114.425595 
z
" clip-path="url(#p6f49d9749a)" style="fill: #fd46fc; stroke: #000000; stroke-width: 0.2; stroke-linejoin: miter"/>
   </g>
   <g id="patch_10">
    <path d="M 184.713168 386.44 
L 190.377959 386.44 
L 190.377959 97.495238 
L 184.713168 97.495238 
z
" clip-path="url(#p6f49d9749a)" style="fill: #fd46fc; stroke: #000000; stroke-width: 0.2; stroke-linejoin: miter"/>
   </g>
   <g id="patch_11">
    <path d="M 196.04275 386.44 
L 201.707541 386.44 
L 201.707541 70.406667 
L 196.04275 70.406667 
z
" clip-path="url(#p6f49d9749a)" style="fill: #fd46fc; stroke: #000000; stroke-width: 0.2; stroke-linejoin: miter"/>
   </g>
   <g id="patch_12">
    <path d="M 207.372331 386.44 
L 213.037122 386.44 
L 213.037122 44.446786 
L 207.372331 44.446786 
z
" clip-path="url(#p6f49d9749a)" style="fill: #fd46fc; stroke: #000000; stroke-width: 0.2; stroke-linejoin: miter"/>
   </g>
   <g id="patch_13">
    <path d="M 218.701913 386.44 
L 224.366704 386.44 
L 224.366704 60.248452 
L 218.701913 60.248452 
z
" clip-path="url(#p6f49d9749a)" style="fill: #fd46fc; stroke: #000000; stroke-width: 0.2; stroke-linejoin: miter"/>
   </g>
   <g id="patch_14">
    <path d="M 230.031494 386.44 
L 235.696285 386.44 
L 235.696285 42.189405 
L 230.031494 42.189405 
z
" clip-path="url(#p6f49d9749a)" style="fill: #fd46fc; stroke: #000000; stroke-width: 0.2; stroke-linejoin: miter"/>
   </g>
   <g id="patch_15">
    <path d="M 241.361076 386.44 
L 247.025867 386.44 
L 247.025867 67.020595 
L 241.361076 67.020595 
z
" clip-path="url(#p6f49d9749a)" style="fill: #fd46fc; stroke: #000000; stroke-width: 0.2; stroke-linejoin: miter"/>
   </g>
   <g id="patch_16">
    <path d="M 252.690657 386.44 
L 258.355448 386.44 
L 258.355448 76.050119 
L 252.690657 76.050119 
z
" clip-path="url(#p6f49d9749a)" style="fill: #fd46fc; stroke: #000000; stroke-width: 0.2; stroke-linejoin: miter"/>
   </g>
   <g id="patch_17">
    <path d="M 264.020239 386.44 
L 269.68503 386.44 
L 269.68503 81.693571 
L 264.020239 81.693571 
z
" clip-path="url(#p6f49d9749a)" style="fill: #fd46fc; stroke: #000000; stroke-width: 0.2; stroke-linejoin: miter"/>
   </g>
   <g id="patch_18">
    <path d="M 275.349821 386.44 
L 281.014611 386.44 
L 281.014611 99.752619 
L 275.349821 99.752619 
z
" clip-path="url(#p6f49d9749a)" style="fill: #fd46fc; stroke: #000000; stroke-width: 0.2; stroke-linejoin: miter"/>
   </g>
   <g id="patch_19">
    <path d="M 286.679402 386.44 
L 292.344193 386.44 
L 292.344193 102.574345 
L 286.679402 102.574345 
z
" clip-path="url(#p6f49d9749a)" style="fill: #fd46fc; stroke: #000000; stroke-width: 0.2; stroke-linejoin: miter"/>
   </g>
   <g id="patch_20">
    <path d="M 298.008984 386.44 
L 303.673774 386.44 
L 303.673774 144.900238 
L 298.008984 144.900238 
z
" clip-path="url(#p6f49d9749a)" style="fill: #fd46fc; stroke: #000000; stroke-width: 0.2; stroke-linejoin: miter"/>
   </g>
   <g id="patch_21">
    <path d="M 309.338565 386.44 
L 315.003356 386.44 
L 315.003356 151.108036 
L 309.338565 151.108036 
z
" clip-path="url(#p6f49d9749a)" style="fill: #fd46fc; stroke: #000000; stroke-width: 0.2; stroke-linejoin: miter"/>
   </g>
   <g id="patch_22">
    <path d="M 320.668147 386.44 
L 326.332937 386.44 
L 326.332937 163.523631 
L 320.668147 163.523631 
z
" clip-path="url(#p6f49d9749a)" style="fill: #fd46fc; stroke: #000000; stroke-width: 0.2; stroke-linejoin: miter"/>
   </g>
   <g id="patch_23">
    <path d="M 331.997728 386.44 
L 337.662519 386.44 
L 337.662519 178.196607 
L 331.997728 178.196607 
z
" clip-path="url(#p6f49d9749a)" style="fill: #fd46fc; stroke: #000000; stroke-width: 0.2; stroke-linejoin: miter"/>
   </g>
   <g id="patch_24">
    <path d="M 343.32731 386.44 
L 348.9921 386.44 
L 348.9921 198.513036 
L 343.32731 198.513036 
z
" clip-path="url(#p6f49d9749a)" style="fill: #fd46fc; stroke: #000000; stroke-width: 0.2; stroke-linejoin: miter"/>
   </g>
   <g id="patch_25">
    <path d="M 354.656891 386.44 
L 360.321682 386.44 
L 360.321682 203.027798 
L 354.656891 203.027798 
z
" clip-path="url(#p6f49d9749a)" style="fill: #fd46fc; stroke: #000000; stroke-width: 0.2; stroke-linejoin: miter"/>
   </g>
   <g id="patch_26">
    <path d="M 365.986473 386.44 
L 371.651264 386.44 
L 371.651264 213.186012 
L 365.986473 213.186012 
z
" clip-path="url(#p6f49d9749a)" style="fill: #fd46fc; stroke: #000000; stroke-width: 0.2; stroke-linejoin: miter"/>
   </g>
   <g id="patch_27">
    <path d="M 377.316054 386.44 
L 382.980845 386.44 
L 382.980845 240.274583 
L 377.316054 240.274583 
z
" clip-path="url(#p6f49d9749a)" style="fill: #fd46fc; stroke: #000000; stroke-width: 0.2; stroke-linejoin: miter"/>
   </g>
   <g id="patch_28">
    <path d="M 388.645636 386.44 
L 394.310427 386.44 
L 394.310427 248.739762 
L 388.645636 248.739762 
z
" clip-path="url(#p6f49d9749a)" style="fill: #fd46fc; stroke: #000000; stroke-width: 0.2; stroke-linejoin: miter"/>
   </g>
   <g id="patch_29">
    <path d="M 399.975217 386.44 
L 405.640008 386.44 
L 405.640008 247.046726 
L 399.975217 247.046726 
z
" clip-path="url(#p6f49d9749a)" style="fill: #fd46fc; stroke: #000000; stroke-width: 0.2; stroke-linejoin: miter"/>
   </g>
   <g id="patch_30">
    <path d="M 411.304799 386.44 
L 416.96959 386.44 
L 416.96959 277.521369 
L 411.304799 277.521369 
z
" clip-path="url(#p6f49d9749a)" style="fill: #fd46fc; stroke: #000000; stroke-width: 0.2; stroke-linejoin: miter"/>
   </g>
   <g id="patch_31">
    <path d="M 422.63438 386.44 
L 428.299171 386.44 
L 428.299171 274.699643 
L 422.63438 274.699643 
z
" clip-path="url(#p6f49d9749a)" style="fill: #fd46fc; stroke: #000000; stroke-width: 0.2; stroke-linejoin: miter"/>
   </g>
   <g id="patch_32">
    <path d="M 433.963962 386.44 
L 439.628753 386.44 
L 439.628753 286.550893 
L 433.963962 286.550893 
z
" clip-path="url(#p6f49d9749a)" style="fill: #fd46fc; stroke: #000000; stroke-width: 0.2; stroke-linejoin: miter"/>
   </g>
   <g id="patch_33">
    <path d="M 445.293543 386.44 
L 450.958334 386.44 
L 450.958334 300.659524 
L 445.293543 300.659524 
z
" clip-path="url(#p6f49d9749a)" style="fill: #fd46fc; stroke: #000000; stroke-width: 0.2; stroke-linejoin: miter"/>
   </g>
   <g id="patch_34">
    <path d="M 456.623125 386.44 
L 462.287916 386.44 
L 462.287916 291.065655 
L 456.623125 291.065655 
z
" clip-path="url(#p6f49d9749a)" style="fill: #fd46fc; stroke: #000000; stroke-width: 0.2; stroke-linejoin: miter"/>
   </g>
   <g id="patch_35">
    <path d="M 467.952707 386.44 
L 473.617497 386.44 
L 473.617497 322.104643 
L 467.952707 322.104643 
z
" clip-path="url(#p6f49d9749a)" style="fill: #fd46fc; stroke: #000000; stroke-width: 0.2; stroke-linejoin: miter"/>
   </g>
   <g id="patch_36">
    <path d="M 479.282288 386.44 
L 484.947079 386.44 
L 484.947079 305.174286 
L 479.282288 305.174286 
z
" clip-path="url(#p6f49d9749a)" style="fill: #fd46fc; stroke: #000000; stroke-width: 0.2; stroke-linejoin: miter"/>
   </g>
   <g id="patch_37">
    <path d="M 490.61187 386.44 
L 496.27666 386.44 
L 496.27666 311.946429 
L 490.61187 311.946429 
z
" clip-path="url(#p6f49d9749a)" style="fill: #fd46fc; stroke: #000000; stroke-width: 0.2; stroke-linejoin: miter"/>
   </g>
   <g id="patch_38">
    <path d="M 501.941451 386.44 
L 507.606242 386.44 
L 507.606242 329.441131 
L 501.941451 329.441131 
z
" clip-path="url(#p6f49d9749a)" style="fill: #fd46fc; stroke: #000000; stroke-width: 0.2; stroke-linejoin: miter"/>
   </g>
   <g id="patch_39">
    <path d="M 513.271033 386.44 
L 518.935823 386.44 
L 518.935823 310.253393 
L 513.271033 310.253393 
z
" clip-path="url(#p6f49d9749a)" style="fill: #fd46fc; stroke: #000000; stroke-width: 0.2; stroke-linejoin: miter"/>
   </g>
   <g id="patch_40">
    <path d="M 524.600614 386.44 
L 530.265405 386.44 
L 530.265405 331.698512 
L 524.600614 331.698512 
z
" clip-path="url(#p6f49d9749a)" style="fill: #fd46fc; stroke: #000000; stroke-width: 0.2; stroke-linejoin: miter"/>
   </g>
   <g id="patch_41">
    <path d="M 535.930196 386.44 
L 541.594986 386.44 
L 541.594986 335.648929 
L 535.930196 335.648929 
z
" clip-path="url(#p6f49d9749a)" style="fill: #fd46fc; stroke: #000000; stroke-width: 0.2; stroke-linejoin: miter"/>
   </g>
   <g id="patch_42">
    <path d="M 547.259777 386.44 
L 552.924568 386.44 
L 552.924568 336.777619 
L 547.259777 336.777619 
z
" clip-path="url(#p6f49d9749a)" style="fill: #fd46fc; stroke: #000000; stroke-width: 0.2; stroke-linejoin: miter"/>
   </g>
   <g id="patch_43">
    <path d="M 558.589359 386.44 
L 564.25415 386.44 
L 564.25415 343.549762 
L 558.589359 343.549762 
z
" clip-path="url(#p6f49d9749a)" style="fill: #fd46fc; stroke: #000000; stroke-width: 0.2; stroke-linejoin: miter"/>
   </g>
   <g id="patch_44">
    <path d="M 569.91894 386.44 
L 575.583731 386.44 
L 575.583731 341.292381 
L 569.91894 341.292381 
z
" clip-path="url(#p6f49d9749a)" style="fill: #fd46fc; stroke: #000000; stroke-width: 0.2; stroke-linejoin: miter"/>
   </g>
   <g id="patch_45">
    <path d="M 581.248522 386.44 
L 586.913313 386.44 
L 586.913313 351.450595 
L 581.248522 351.450595 
z
" clip-path="url(#p6f49d9749a)" style="fill: #fd46fc; stroke: #000000; stroke-width: 0.2; stroke-linejoin: miter"/>
   </g>
   <g id="patch_46">
    <path d="M 592.578103 386.44 
L 598.242894 386.44 
L 598.242894 350.321905 
L 592.578103 350.321905 
z
" clip-path="url(#p6f49d9749a)" style="fill: #fd46fc; stroke: #000000; stroke-width: 0.2; stroke-linejoin: miter"/>
   </g>
   <g id="patch_47">
    <path d="M 603.907685 386.44 
L 609.572476 386.44 
L 609.572476 357.094048 
L 603.907685 357.094048 
z
" clip-path="url(#p6f49d9749a)" style="fill: #fd46fc; stroke: #000000; stroke-width: 0.2; stroke-linejoin: miter"/>
   </g>
   <g id="patch_48">
    <path d="M 615.237266 386.44 
L 620.902057 386.44 
L 620.902057 353.707976 
L 615.237266 353.707976 
z
" clip-path="url(#p6f49d9749a)" style="fill: #fd46fc; stroke: #000000; stroke-width: 0.2; stroke-linejoin: miter"/>
   </g>
   <g id="patch_49">
    <path d="M 626.566848 386.44 
L 632.231639 386.44 
L 632.231639 352.01494 
L 626.566848 352.01494 
z
" clip-path="url(#p6f49d9749a)" style="fill: #fd46fc; stroke: #000000; stroke-width: 0.2; stroke-linejoin: miter"/>
   </g>
   <g id="patch_50">
    <path d="M 637.896429 386.44 
L 643.56122 386.44 
L 643.56122 361.044464 
L 637.896429 361.044464 
z
" clip-path="url(#p6f49d9749a)" style="fill: #fd46fc; stroke: #000000; stroke-width: 0.2; stroke-linejoin: miter"/>
   </g>
   <g id="patch_51">
    <path d="M 649.226011 386.44 
L 654.890802 386.44 
L 654.890802 352.01494 
L 649.226011 352.01494 
z
" clip-path="url(#p6f49d9749a)" style="fill: #fd46fc; stroke: #000000; stroke-width: 0.2; stroke-linejoin: miter"/>
   </g>
   <g id="patch_52">
    <path d="M 660.555593 386.44 
L 666.220383 386.44 
L 666.220383 359.915774 
L 660.555593 359.915774 
z
" clip-path="url(#p6f49d9749a)" style="fill: #fd46fc; stroke: #000000; stroke-width: 0.2; stroke-linejoin: miter"/>
   </g>
   <g id="patch_53">
    <path d="M 671.885174 386.44 
L 677.549965 386.44 
L 677.549965 364.430536 
L 671.885174 364.430536 
z
" clip-path="url(#p6f49d9749a)" style="fill: #fd46fc; stroke: #000000; stroke-width: 0.2; stroke-linejoin: miter"/>
   </g>
   <g id="patch_54">
    <path d="M 683.214756 386.44 
L 688.879546 386.44 
L 688.879546 362.173155 
L 683.214756 362.173155 
z
" clip-path="url(#p6f49d9749a)" style="fill: #fd46fc; stroke: #000000; stroke-width: 0.2; stroke-linejoin: miter"/>
   </g>
   <g id="patch_55">
    <path d="M 694.544337 386.44 
L 700.209128 386.44 
L 700.209128 370.073988 
L 694.544337 370.073988 
z
" clip-path="url(#p6f49d9749a)" style="fill: #fd46fc; stroke: #000000; stroke-width: 0.2; stroke-linejoin: miter"/>
   </g>
   <g id="patch_56">
    <path d="M 705.873919 386.44 
L 711.538709 386.44 
L 711.538709 367.252262 
L 705.873919 367.252262 
z
" clip-path="url(#p6f49d9749a)" style="fill: #fd46fc; stroke: #000000; stroke-width: 0.2; stroke-linejoin: miter"/>
   </g>
   <g id="patch_57">
    <path d="M 717.2035 386.44 
L 722.868291 386.44 
L 722.868291 375.153095 
L 717.2035 375.153095 
z
" clip-path="url(#p6f49d9749a)" style="fill: #fd46fc; stroke: #000000; stroke-width: 0.2; stroke-linejoin: miter"/>
   </g>
   <g id="patch_58">
    <path d="M 728.533082 386.44 
L 734.197872 386.44 
L 734.197872 370.638333 
L 728.533082 370.638333 
z
" clip-path="url(#p6f49d9749a)" style="fill: #fd46fc; stroke: #000000; stroke-width: 0.2; stroke-linejoin: miter"/>
   </g>
   <g id="patch_59">
    <path d="M 739.862663 386.44 
L 745.527454 386.44 
L 745.527454 376.281786 
L 739.862663 376.281786 
z
" clip-path="url(#p6f49d9749a)" style="fill: #fd46fc; stroke: #000000; stroke-width: 0.2; stroke-linejoin: miter"/>
   </g>
   <g id="patch_60">
    <path d="M 751.192245 386.44 
L 756.857036 386.44 
L 756.857036 373.46006 
L 751.192245 373.46006 
z
" clip-path="url(#p6f49d9749a)" style="fill: #fd46fc; stroke: #000000; stroke-width: 0.2; stroke-linejoin: miter"/>
   </g>
   <g id="patch_61">
    <path d="M 762.521826 386.44 
L 768.186617 386.44 
L 768.186617 372.895714 
L 762.521826 372.895714 
z
" clip-path="url(#p6f49d9749a)" style="fill: #fd46fc; stroke: #000000; stroke-width: 0.2; stroke-linejoin: miter"/>
   </g>
   <g id="patch_62">
    <path d="M 773.851408 386.44 
L 779.516199 386.44 
L 779.516199 372.895714 
L 773.851408 372.895714 
z
" clip-path="url(#p6f49d9749a)" style="fill: #fd46fc; stroke: #000000; stroke-width: 0.2; stroke-linejoin: miter"/>
   </g>
   <g id="patch_63">
    <path d="M 785.180989 386.44 
L 790.84578 386.44 
L 790.84578 377.974821 
L 785.180989 377.974821 
z
" clip-path="url(#p6f49d9749a)" style="fill: #fd46fc; stroke: #000000; stroke-width: 0.2; stroke-linejoin: miter"/>
   </g>
   <g id="patch_64">
    <path d="M 796.510571 386.44 
L 802.175362 386.44 
L 802.175362 375.153095 
L 796.510571 375.153095 
z
" clip-path="url(#p6f49d9749a)" style="fill: #fd46fc; stroke: #000000; stroke-width: 0.2; stroke-linejoin: miter"/>
   </g>
   <g id="patch_65">
    <path d="M 807.840152 386.44 
L 813.504943 386.44 
L 813.504943 377.410476 
L 807.840152 377.410476 
z
" clip-path="url(#p6f49d9749a)" style="fill: #fd46fc; stroke: #000000; stroke-width: 0.2; stroke-linejoin: miter"/>
   </g>
   <g id="patch_66">
    <path d="M 99.741307 386.44 
L 105.406098 386.44 
L 105.406098 378.539167 
L 99.741307 378.539167 
z
" clip-path="url(#p6f49d9749a)" style="fill: #486afb; stroke: #000000; stroke-width: 0.2; stroke-linejoin: miter"/>
   </g>
   <g id="patch_67">
    <path d="M 111.070888 386.44 
L 116.735679 386.44 
L 116.735679 364.994881 
L 111.070888 364.994881 
z
" clip-path="url(#p6f49d9749a)" style="fill: #486afb; stroke: #000000; stroke-width: 0.2; stroke-linejoin: miter"/>
   </g>
   <g id="patch_68">
    <path d="M 122.40047 386.44 
L 128.065261 386.44 
L 128.065261 331.698512 
L 122.40047 331.698512 
z
" clip-path="url(#p6f49d9749a)" style="fill: #486afb; stroke: #000000; stroke-width: 0.2; stroke-linejoin: miter"/>
   </g>
   <g id="patch_69">
    <path d="M 133.730051 386.44 
L 139.394842 386.44 
L 139.394842 304.60994 
L 133.730051 304.60994 
z
" clip-path="url(#p6f49d9749a)" style="fill: #486afb; stroke: #000000; stroke-width: 0.2; stroke-linejoin: miter"/>
   </g>
   <g id="patch_70">
    <path d="M 145.059633 386.44 
L 150.724424 386.44 
L 150.724424 247.046726 
L 145.059633 247.046726 
z
" clip-path="url(#p6f49d9749a)" style="fill: #486afb; stroke: #000000; stroke-width: 0.2; stroke-linejoin: miter"/>
   </g>
   <g id="patch_71">
    <path d="M 156.389214 386.44 
L 162.054005 386.44 
L 162.054005 195.69131 
L 156.389214 195.69131 
z
" clip-path="url(#p6f49d9749a)" style="fill: #486afb; stroke: #000000; stroke-width: 0.2; stroke-linejoin: miter"/>
   </g>
   <g id="patch_72">
    <path d="M 167.718796 386.44 
L 173.383587 386.44 
L 173.383587 166.345357 
L 167.718796 166.345357 
z
" clip-path="url(#p6f49d9749a)" style="fill: #486afb; stroke: #000000; stroke-width: 0.2; stroke-linejoin: miter"/>
   </g>
   <g id="patch_73">
    <path d="M 179.048378 386.44 
L 184.713168 386.44 
L 184.713168 153.929762 
L 179.048378 153.929762 
z
" clip-path="url(#p6f49d9749a)" style="fill: #486afb; stroke: #000000; stroke-width: 0.2; stroke-linejoin: miter"/>
   </g>
   <g id="patch_74">
    <path d="M 190.377959 386.44 
L 196.04275 386.44 
L 196.04275 80.564881 
L 190.377959 80.564881 
z
" clip-path="url(#p6f49d9749a)" style="fill: #486afb; stroke: #000000; stroke-width: 0.2; stroke-linejoin: miter"/>
   </g>
   <g id="patch_75">
    <path d="M 201.707541 386.44 
L 207.372331 386.44 
L 207.372331 56.298036 
L 201.707541 56.298036 
z
" clip-path="url(#p6f49d9749a)" style="fill: #486afb; stroke: #000000; stroke-width: 0.2; stroke-linejoin: miter"/>
   </g>
   <g id="patch_76">
    <path d="M 213.037122 386.44 
L 218.701913 386.44 
L 218.701913 25.259048 
L 213.037122 25.259048 
z
" clip-path="url(#p6f49d9749a)" style="fill: #486afb; stroke: #000000; stroke-width: 0.2; stroke-linejoin: miter"/>
   </g>
   <g id="patch_77">
    <path d="M 224.366704 386.44 
L 230.031494 386.44 
L 230.031494 32.595536 
L 224.366704 32.595536 
z
" clip-path="url(#p6f49d9749a)" style="fill: #486afb; stroke: #000000; stroke-width: 0.2; stroke-linejoin: miter"/>
   </g>
   <g id="patch_78">
    <path d="M 235.696285 386.44 
L 241.361076 386.44 
L 241.361076 26.952083 
L 235.696285 26.952083 
z
" clip-path="url(#p6f49d9749a)" style="fill: #486afb; stroke: #000000; stroke-width: 0.2; stroke-linejoin: miter"/>
   </g>
   <g id="patch_79">
    <path d="M 247.025867 386.44 
L 252.690657 386.44 
L 252.690657 75.485774 
L 247.025867 75.485774 
z
" clip-path="url(#p6f49d9749a)" style="fill: #486afb; stroke: #000000; stroke-width: 0.2; stroke-linejoin: miter"/>
   </g>
   <g id="patch_80">
    <path d="M 258.355448 386.44 
L 264.020239 386.44 
L 264.020239 94.673512 
L 258.355448 94.673512 
z
" clip-path="url(#p6f49d9749a)" style="fill: #486afb; stroke: #000000; stroke-width: 0.2; stroke-linejoin: miter"/>
   </g>
   <g id="patch_81">
    <path d="M 269.68503 386.44 
L 275.349821 386.44 
L 275.349821 86.772679 
L 269.68503 86.772679 
z
" clip-path="url(#p6f49d9749a)" style="fill: #486afb; stroke: #000000; stroke-width: 0.2; stroke-linejoin: miter"/>
   </g>
   <g id="patch_82">
    <path d="M 281.014611 386.44 
L 286.679402 386.44 
L 286.679402 123.455119 
L 281.014611 123.455119 
z
" clip-path="url(#p6f49d9749a)" style="fill: #486afb; stroke: #000000; stroke-width: 0.2; stroke-linejoin: miter"/>
   </g>
   <g id="patch_83">
    <path d="M 292.344193 386.44 
L 298.008984 386.44 
L 298.008984 115.554286 
L 292.344193 115.554286 
z
" clip-path="url(#p6f49d9749a)" style="fill: #486afb; stroke: #000000; stroke-width: 0.2; stroke-linejoin: miter"/>
   </g>
   <g id="patch_84">
    <path d="M 303.673774 386.44 
L 309.338565 386.44 
L 309.338565 154.494107 
L 303.673774 154.494107 
z
" clip-path="url(#p6f49d9749a)" style="fill: #486afb; stroke: #000000; stroke-width: 0.2; stroke-linejoin: miter"/>
   </g>
   <g id="patch_85">
    <path d="M 315.003356 386.44 
L 320.668147 386.44 
L 320.668147 181.018333 
L 315.003356 181.018333 
z
" clip-path="url(#p6f49d9749a)" style="fill: #486afb; stroke: #000000; stroke-width: 0.2; stroke-linejoin: miter"/>
   </g>
   <g id="patch_86">
    <path d="M 326.332937 386.44 
L 331.997728 386.44 
L 331.997728 199.641726 
L 326.332937 199.641726 
z
" clip-path="url(#p6f49d9749a)" style="fill: #486afb; stroke: #000000; stroke-width: 0.2; stroke-linejoin: miter"/>
   </g>
   <g id="patch_87">
    <path d="M 337.662519 386.44 
L 343.32731 386.44 
L 343.32731 201.334762 
L 337.662519 201.334762 
z
" clip-path="url(#p6f49d9749a)" style="fill: #486afb; stroke: #000000; stroke-width: 0.2; stroke-linejoin: miter"/>
   </g>
   <g id="patch_88">
    <path d="M 348.9921 386.44 
L 354.656891 386.44 
L 354.656891 195.126964 
L 348.9921 195.126964 
z
" clip-path="url(#p6f49d9749a)" style="fill: #486afb; stroke: #000000; stroke-width: 0.2; stroke-linejoin: miter"/>
   </g>
   <g id="patch_89">
    <path d="M 360.321682 386.44 
L 365.986473 386.44 
L 365.986473 209.235595 
L 360.321682 209.235595 
z
" clip-path="url(#p6f49d9749a)" style="fill: #486afb; stroke: #000000; stroke-width: 0.2; stroke-linejoin: miter"/>
   </g>
   <g id="patch_90">
    <path d="M 371.651264 386.44 
L 377.316054 386.44 
L 377.316054 225.037262 
L 371.651264 225.037262 
z
" clip-path="url(#p6f49d9749a)" style="fill: #486afb; stroke: #000000; stroke-width: 0.2; stroke-linejoin: miter"/>
   </g>
   <g id="patch_91">
    <path d="M 382.980845 386.44 
L 388.645636 386.44 
L 388.645636 252.690179 
L 382.980845 252.690179 
z
" clip-path="url(#p6f49d9749a)" style="fill: #486afb; stroke: #000000; stroke-width: 0.2; stroke-linejoin: miter"/>
   </g>
   <g id="patch_92">
    <path d="M 394.310427 386.44 
L 399.975217 386.44 
L 399.975217 265.670119 
L 394.310427 265.670119 
z
" clip-path="url(#p6f49d9749a)" style="fill: #486afb; stroke: #000000; stroke-width: 0.2; stroke-linejoin: miter"/>
   </g>
   <g id="patch_93">
    <path d="M 405.640008 386.44 
L 411.304799 386.44 
L 411.304799 274.135298 
L 405.640008 274.135298 
z
" clip-path="url(#p6f49d9749a)" style="fill: #486afb; stroke: #000000; stroke-width: 0.2; stroke-linejoin: miter"/>
   </g>
   <g id="patch_94">
    <path d="M 416.96959 386.44 
L 422.63438 386.44 
L 422.63438 270.749226 
L 416.96959 270.749226 
z
" clip-path="url(#p6f49d9749a)" style="fill: #486afb; stroke: #000000; stroke-width: 0.2; stroke-linejoin: miter"/>
   </g>
   <g id="patch_95">
    <path d="M 428.299171 386.44 
L 433.963962 386.44 
L 433.963962 284.857857 
L 428.299171 284.857857 
z
" clip-path="url(#p6f49d9749a)" style="fill: #486afb; stroke: #000000; stroke-width: 0.2; stroke-linejoin: miter"/>
   </g>
   <g id="patch_96">
    <path d="M 439.628753 386.44 
L 445.293543 386.44 
L 445.293543 285.986548 
L 439.628753 285.986548 
z
" clip-path="url(#p6f49d9749a)" style="fill: #486afb; stroke: #000000; stroke-width: 0.2; stroke-linejoin: miter"/>
   </g>
   <g id="patch_97">
    <path d="M 450.958334 386.44 
L 456.623125 386.44 
L 456.623125 292.194345 
L 450.958334 292.194345 
z
" clip-path="url(#p6f49d9749a)" style="fill: #486afb; stroke: #000000; stroke-width: 0.2; stroke-linejoin: miter"/>
   </g>
   <g id="patch_98">
    <path d="M 462.287916 386.44 
L 467.952707 386.44 
L 467.952707 313.075119 
L 462.287916 313.075119 
z
" clip-path="url(#p6f49d9749a)" style="fill: #486afb; stroke: #000000; stroke-width: 0.2; stroke-linejoin: miter"/>
   </g>
   <g id="patch_99">
    <path d="M 473.617497 386.44 
L 479.282288 386.44 
L 479.282288 320.411607 
L 473.617497 320.411607 
z
" clip-path="url(#p6f49d9749a)" style="fill: #486afb; stroke: #000000; stroke-width: 0.2; stroke-linejoin: miter"/>
   </g>
   <g id="patch_100">
    <path d="M 484.947079 386.44 
L 490.61187 386.44 
L 490.61187 311.946429 
L 484.947079 311.946429 
z
" clip-path="url(#p6f49d9749a)" style="fill: #486afb; stroke: #000000; stroke-width: 0.2; stroke-linejoin: miter"/>
   </g>
   <g id="patch_101">
    <path d="M 496.27666 386.44 
L 501.941451 386.44 
L 501.941451 315.3325 
L 496.27666 315.3325 
z
" clip-path="url(#p6f49d9749a)" style="fill: #486afb; stroke: #000000; stroke-width: 0.2; stroke-linejoin: miter"/>
   </g>
   <g id="patch_102">
    <path d="M 507.606242 386.44 
L 513.271033 386.44 
L 513.271033 308.560357 
L 507.606242 308.560357 
z
" clip-path="url(#p6f49d9749a)" style="fill: #486afb; stroke: #000000; stroke-width: 0.2; stroke-linejoin: miter"/>
   </g>
   <g id="patch_103">
    <path d="M 518.935823 386.44 
L 524.600614 386.44 
L 524.600614 321.540298 
L 518.935823 321.540298 
z
" clip-path="url(#p6f49d9749a)" style="fill: #486afb; stroke: #000000; stroke-width: 0.2; stroke-linejoin: miter"/>
   </g>
   <g id="patch_104">
    <path d="M 530.265405 386.44 
L 535.930196 386.44 
L 535.930196 334.520238 
L 530.265405 334.520238 
z
" clip-path="url(#p6f49d9749a)" style="fill: #486afb; stroke: #000000; stroke-width: 0.2; stroke-linejoin: miter"/>
   </g>
   <g id="patch_105">
    <path d="M 541.594986 386.44 
L 547.259777 386.44 
L 547.259777 349.193214 
L 541.594986 349.193214 
z
" clip-path="url(#p6f49d9749a)" style="fill: #486afb; stroke: #000000; stroke-width: 0.2; stroke-linejoin: miter"/>
   </g>
   <g id="patch_106">
    <path d="M 552.924568 386.44 
L 558.589359 386.44 
L 558.589359 345.807143 
L 552.924568 345.807143 
z
" clip-path="url(#p6f49d9749a)" style="fill: #486afb; stroke: #000000; stroke-width: 0.2; stroke-linejoin: miter"/>
   </g>
   <g id="patch_107">
    <path d="M 564.25415 386.44 
L 569.91894 386.44 
L 569.91894 332.827202 
L 564.25415 332.827202 
z
" clip-path="url(#p6f49d9749a)" style="fill: #486afb; stroke: #000000; stroke-width: 0.2; stroke-linejoin: miter"/>
   </g>
   <g id="patch_108">
    <path d="M 575.583731 386.44 
L 581.248522 386.44 
L 581.248522 341.856726 
L 575.583731 341.856726 
z
" clip-path="url(#p6f49d9749a)" style="fill: #486afb; stroke: #000000; stroke-width: 0.2; stroke-linejoin: miter"/>
   </g>
   <g id="patch_109">
    <path d="M 586.913313 386.44 
L 592.578103 386.44 
L 592.578103 340.728036 
L 586.913313 340.728036 
z
" clip-path="url(#p6f49d9749a)" style="fill: #486afb; stroke: #000000; stroke-width: 0.2; stroke-linejoin: miter"/>
   </g>
   <g id="patch_110">
    <path d="M 598.242894 386.44 
L 603.907685 386.44 
L 603.907685 344.678452 
L 598.242894 344.678452 
z
" clip-path="url(#p6f49d9749a)" style="fill: #486afb; stroke: #000000; stroke-width: 0.2; stroke-linejoin: miter"/>
   </g>
   <g id="patch_111">
    <path d="M 609.572476 386.44 
L 615.237266 386.44 
L 615.237266 357.658393 
L 609.572476 357.658393 
z
" clip-path="url(#p6f49d9749a)" style="fill: #486afb; stroke: #000000; stroke-width: 0.2; stroke-linejoin: miter"/>
   </g>
   <g id="patch_112">
    <path d="M 620.902057 386.44 
L 626.566848 386.44 
L 626.566848 348.064524 
L 620.902057 348.064524 
z
" clip-path="url(#p6f49d9749a)" style="fill: #486afb; stroke: #000000; stroke-width: 0.2; stroke-linejoin: miter"/>
   </g>
   <g id="patch_113">
    <path d="M 632.231639 386.44 
L 637.896429 386.44 
L 637.896429 350.321905 
L 632.231639 350.321905 
z
" clip-path="url(#p6f49d9749a)" style="fill: #486afb; stroke: #000000; stroke-width: 0.2; stroke-linejoin: miter"/>
   </g>
   <g id="patch_114">
    <path d="M 643.56122 386.44 
L 649.226011 386.44 
L 649.226011 344.114107 
L 643.56122 344.114107 
z
" clip-path="url(#p6f49d9749a)" style="fill: #486afb; stroke: #000000; stroke-width: 0.2; stroke-linejoin: miter"/>
   </g>
   <g id="patch_115">
    <path d="M 654.890802 386.44 
L 660.555593 386.44 
L 660.555593 349.75756 
L 654.890802 349.75756 
z
" clip-path="url(#p6f49d9749a)" style="fill: #486afb; stroke: #000000; stroke-width: 0.2; stroke-linejoin: miter"/>
   </g>
   <g id="patch_116">
    <path d="M 666.220383 386.44 
L 671.885174 386.44 
L 671.885174 358.787083 
L 666.220383 358.787083 
z
" clip-path="url(#p6f49d9749a)" style="fill: #486afb; stroke: #000000; stroke-width: 0.2; stroke-linejoin: miter"/>
   </g>
   <g id="patch_117">
    <path d="M 677.549965 386.44 
L 683.214756 386.44 
L 683.214756 365.559226 
L 677.549965 365.559226 
z
" clip-path="url(#p6f49d9749a)" style="fill: #486afb; stroke: #000000; stroke-width: 0.2; stroke-linejoin: miter"/>
   </g>
   <g id="patch_118">
    <path d="M 688.879546 386.44 
L 694.544337 386.44 
L 694.544337 359.915774 
L 688.879546 359.915774 
z
" clip-path="url(#p6f49d9749a)" style="fill: #486afb; stroke: #000000; stroke-width: 0.2; stroke-linejoin: miter"/>
   </g>
   <g id="patch_119">
    <path d="M 700.209128 386.44 
L 705.873919 386.44 
L 705.873919 368.380952 
L 700.209128 368.380952 
z
" clip-path="url(#p6f49d9749a)" style="fill: #486afb; stroke: #000000; stroke-width: 0.2; stroke-linejoin: miter"/>
   </g>
   <g id="patch_120">
    <path d="M 711.538709 386.44 
L 717.2035 386.44 
L 717.2035 368.380952 
L 711.538709 368.380952 
z
" clip-path="url(#p6f49d9749a)" style="fill: #486afb; stroke: #000000; stroke-width: 0.2; stroke-linejoin: miter"/>
   </g>
   <g id="patch_121">
    <path d="M 722.868291 386.44 
L 728.533082 386.44 
L 728.533082 365.559226 
L 722.868291 365.559226 
z
" clip-path="url(#p6f49d9749a)" style="fill: #486afb; stroke: #000000; stroke-width: 0.2; stroke-linejoin: miter"/>
   </g>
   <g id="patch_122">
    <path d="M 734.197872 386.44 
L 739.862663 386.44 
L 739.862663 363.301845 
L 734.197872 363.301845 
z
" clip-path="url(#p6f49d9749a)" style="fill: #486afb; stroke: #000000; stroke-width: 0.2; stroke-linejoin: miter"/>
   </g>
   <g id="patch_123">
    <path d="M 745.527454 386.44 
L 751.192245 386.44 
L 751.192245 358.787083 
L 745.527454 358.787083 
z
" clip-path="url(#p6f49d9749a)" style="fill: #486afb; stroke: #000000; stroke-width: 0.2; stroke-linejoin: miter"/>
   </g>
   <g id="patch_124">
    <path d="M 756.857036 386.44 
L 762.521826 386.44 
L 762.521826 360.480119 
L 756.857036 360.480119 
z
" clip-path="url(#p6f49d9749a)" style="fill: #486afb; stroke: #000000; stroke-width: 0.2; stroke-linejoin: miter"/>
   </g>
   <g id="patch_125">
    <path d="M 768.186617 386.44 
L 773.851408 386.44 
L 773.851408 352.579286 
L 768.186617 352.579286 
z
" clip-path="url(#p6f49d9749a)" style="fill: #486afb; stroke: #000000; stroke-width: 0.2; stroke-linejoin: miter"/>
   </g>
   <g id="patch_126">
    <path d="M 779.516199 386.44 
L 785.180989 386.44 
L 785.180989 345.807143 
L 779.516199 345.807143 
z
" clip-path="url(#p6f49d9749a)" style="fill: #486afb; stroke: #000000; stroke-width: 0.2; stroke-linejoin: miter"/>
   </g>
   <g id="patch_127">
    <path d="M 790.84578 386.44 
L 796.510571 386.44 
L 796.510571 349.193214 
L 790.84578 349.193214 
z
" clip-path="url(#p6f49d9749a)" style="fill: #486afb; stroke: #000000; stroke-width: 0.2; stroke-linejoin: miter"/>
   </g>
   <g id="patch_128">
    <path d="M 802.175362 386.44 
L 807.840152 386.44 
L 807.840152 366.687917 
L 802.175362 366.687917 
z
" clip-path="url(#p6f49d9749a)" style="fill: #486afb; stroke: #000000; stroke-width: 0.2; stroke-linejoin: miter"/>
   </g>
   <g id="matplotlib.axis_1">
    <g id="xtick_1">
     <g id="line2d_1">
      <path d="M 99.478878 386.44 
L 99.478878 7.2 
" clip-path="url(#p6f49d9749a)" style="fill: none; stroke-dasharray: 2.22,0.96; stroke-dashoffset: 0; stroke: #6c6066; stroke-opacity: 0.4; stroke-width: 0.6"/>
     </g>
     <g id="line2d_2">
      <defs>
       <path id="m04060c208f" d="M 0 0 
L 0 3.5 
" style="stroke: #000000; stroke-width: 0.8"/>
      </defs>
      <g>
       <use xlink:href="#m04060c208f" x="99.478878" y="386.44" style="stroke: #000000; stroke-width: 0.8"/>
      </g>
     </g>
     <g id="text_1">
      <!-- 0 -->
      <g transform="translate(96.468722 401.091562) scale(0.1 -0.1)">
       <defs>
        <path id="DejaVuSansMono-30" d="M 1509 2344 
Q 1509 2516 1629 2641 
Q 1750 2766 1919 2766 
Q 2094 2766 2219 2641 
Q 2344 2516 2344 2344 
Q 2344 2169 2220 2047 
Q 2097 1925 1919 1925 
Q 1744 1925 1626 2044 
Q 1509 2163 1509 2344 
z
M 1925 4250 
Q 1484 4250 1267 3775 
Q 1050 3300 1050 2328 
Q 1050 1359 1267 884 
Q 1484 409 1925 409 
Q 2369 409 2586 884 
Q 2803 1359 2803 2328 
Q 2803 3300 2586 3775 
Q 2369 4250 1925 4250 
z
M 1925 4750 
Q 2672 4750 3055 4137 
Q 3438 3525 3438 2328 
Q 3438 1134 3055 521 
Q 2672 -91 1925 -91 
Q 1178 -91 797 521 
Q 416 1134 416 2328 
Q 416 3525 797 4137 
Q 1178 4750 1925 4750 
z
" transform="scale(0.015625)"/>
       </defs>
       <use xlink:href="#DejaVuSansMono-30"/>
      </g>
     </g>
    </g>
    <g id="xtick_2">
     <g id="line2d_3">
      <path d="M 237.599055 386.44 
L 237.599055 7.2 
" clip-path="url(#p6f49d9749a)" style="fill: none; stroke-dasharray: 2.22,0.96; stroke-dashoffset: 0; stroke: #6c6066; stroke-opacity: 0.4; stroke-width: 0.6"/>
     </g>
     <g id="line2d_4">
      <g>
       <use xlink:href="#m04060c208f" x="237.599055" y="386.44" style="stroke: #000000; stroke-width: 0.8"/>
      </g>
     </g>
     <g id="text_2">
      <!-- 100 -->
      <g transform="translate(228.568586 401.091562) scale(0.1 -0.1)">
       <defs>
        <path id="DejaVuSansMono-31" d="M 844 531 
L 1825 531 
L 1825 4097 
L 769 3859 
L 769 4434 
L 1819 4666 
L 2450 4666 
L 2450 531 
L 3419 531 
L 3419 0 
L 844 0 
L 844 531 
z
" transform="scale(0.015625)"/>
       </defs>
       <use xlink:href="#DejaVuSansMono-31"/>
       <use xlink:href="#DejaVuSansMono-30" x="60.205078"/>
       <use xlink:href="#DejaVuSansMono-30" x="120.410156"/>
      </g>
     </g>
    </g>
    <g id="xtick_3">
     <g id="line2d_5">
      <path d="M 375.719232 386.44 
L 375.719232 7.2 
" clip-path="url(#p6f49d9749a)" style="fill: none; stroke-dasharray: 2.22,0.96; stroke-dashoffset: 0; stroke: #6c6066; stroke-opacity: 0.4; stroke-width: 0.6"/>
     </g>
     <g id="line2d_6">
      <g>
       <use xlink:href="#m04060c208f" x="375.719232" y="386.44" style="stroke: #000000; stroke-width: 0.8"/>
      </g>
     </g>
     <g id="text_3">
      <!-- 200 -->
      <g transform="translate(366.688763 401.091562) scale(0.1 -0.1)">
       <defs>
        <path id="DejaVuSansMono-32" d="M 1166 531 
L 3309 531 
L 3309 0 
L 475 0 
L 475 531 
Q 1059 1147 1496 1619 
Q 1934 2091 2100 2284 
Q 2413 2666 2522 2902 
Q 2631 3138 2631 3384 
Q 2631 3775 2401 3997 
Q 2172 4219 1772 4219 
Q 1488 4219 1175 4116 
Q 863 4013 513 3803 
L 513 4441 
Q 834 4594 1145 4672 
Q 1456 4750 1759 4750 
Q 2444 4750 2861 4386 
Q 3278 4022 3278 3431 
Q 3278 3131 3139 2831 
Q 3000 2531 2688 2169 
Q 2513 1966 2180 1606 
Q 1847 1247 1166 531 
z
" transform="scale(0.015625)"/>
       </defs>
       <use xlink:href="#DejaVuSansMono-32"/>
       <use xlink:href="#DejaVuSansMono-30" x="60.205078"/>
       <use xlink:href="#DejaVuSansMono-30" x="120.410156"/>
      </g>
     </g>
    </g>
    <g id="xtick_4">
     <g id="line2d_7">
      <path d="M 513.839408 386.44 
L 513.839408 7.2 
" clip-path="url(#p6f49d9749a)" style="fill: none; stroke-dasharray: 2.22,0.96; stroke-dashoffset: 0; stroke: #6c6066; stroke-opacity: 0.4; stroke-width: 0.6"/>
     </g>
     <g id="line2d_8">
      <g>
       <use xlink:href="#m04060c208f" x="513.839408" y="386.44" style="stroke: #000000; stroke-width: 0.8"/>
      </g>
     </g>
     <g id="text_4">
      <!-- 300 -->
      <g transform="translate(504.808939 401.091562) scale(0.1 -0.1)">
       <defs>
        <path id="DejaVuSansMono-33" d="M 2425 2497 
Q 2884 2375 3128 2064 
Q 3372 1753 3372 1288 
Q 3372 644 2939 276 
Q 2506 -91 1741 -91 
Q 1419 -91 1084 -31 
Q 750 28 428 141 
L 428 769 
Q 747 603 1056 522 
Q 1366 441 1672 441 
Q 2191 441 2469 675 
Q 2747 909 2747 1350 
Q 2747 1756 2469 1995 
Q 2191 2234 1716 2234 
L 1234 2234 
L 1234 2753 
L 1716 2753 
Q 2150 2753 2394 2943 
Q 2638 3134 2638 3475 
Q 2638 3834 2411 4026 
Q 2184 4219 1766 4219 
Q 1488 4219 1191 4156 
Q 894 4094 569 3969 
L 569 4550 
Q 947 4650 1242 4700 
Q 1538 4750 1766 4750 
Q 2447 4750 2855 4408 
Q 3263 4066 3263 3500 
Q 3263 3116 3048 2859 
Q 2834 2603 2425 2497 
z
" transform="scale(0.015625)"/>
       </defs>
       <use xlink:href="#DejaVuSansMono-33"/>
       <use xlink:href="#DejaVuSansMono-30" x="60.205078"/>
       <use xlink:href="#DejaVuSansMono-30" x="120.410156"/>
      </g>
     </g>
    </g>
    <g id="xtick_5">
     <g id="line2d_9">
      <path d="M 651.959585 386.44 
L 651.959585 7.2 
" clip-path="url(#p6f49d9749a)" style="fill: none; stroke-dasharray: 2.22,0.96; stroke-dashoffset: 0; stroke: #6c6066; stroke-opacity: 0.4; stroke-width: 0.6"/>
     </g>
     <g id="line2d_10">
      <g>
       <use xlink:href="#m04060c208f" x="651.959585" y="386.44" style="stroke: #000000; stroke-width: 0.8"/>
      </g>
     </g>
     <g id="text_5">
      <!-- 400 -->
      <g transform="translate(642.929116 401.091562) scale(0.1 -0.1)">
       <defs>
        <path id="DejaVuSansMono-34" d="M 2297 4091 
L 825 1625 
L 2297 1625 
L 2297 4091 
z
M 2194 4666 
L 2925 4666 
L 2925 1625 
L 3547 1625 
L 3547 1113 
L 2925 1113 
L 2925 0 
L 2297 0 
L 2297 1113 
L 319 1113 
L 319 1709 
L 2194 4666 
z
" transform="scale(0.015625)"/>
       </defs>
       <use xlink:href="#DejaVuSansMono-34"/>
       <use xlink:href="#DejaVuSansMono-30" x="60.205078"/>
       <use xlink:href="#DejaVuSansMono-30" x="120.410156"/>
      </g>
     </g>
    </g>
    <g id="xtick_6">
     <g id="line2d_11">
      <path d="M 790.079761 386.44 
L 790.079761 7.2 
" clip-path="url(#p6f49d9749a)" style="fill: none; stroke-dasharray: 2.22,0.96; stroke-dashoffset: 0; stroke: #6c6066; stroke-opacity: 0.4; stroke-width: 0.6"/>
     </g>
     <g id="line2d_12">
      <g>
       <use xlink:href="#m04060c208f" x="790.079761" y="386.44" style="stroke: #000000; stroke-width: 0.8"/>
      </g>
     </g>
     <g id="text_6">
      <!-- 500 -->
      <g transform="translate(781.049292 401.091562) scale(0.1 -0.1)">
       <defs>
        <path id="DejaVuSansMono-35" d="M 647 4666 
L 3009 4666 
L 3009 4134 
L 1222 4134 
L 1222 2988 
Q 1356 3038 1492 3061 
Q 1628 3084 1766 3084 
Q 2491 3084 2916 2656 
Q 3341 2228 3341 1497 
Q 3341 759 2895 334 
Q 2450 -91 1678 -91 
Q 1306 -91 998 -41 
Q 691 9 447 109 
L 447 750 
Q 734 594 1025 517 
Q 1316 441 1619 441 
Q 2141 441 2423 716 
Q 2706 991 2706 1497 
Q 2706 1997 2414 2275 
Q 2122 2553 1600 2553 
Q 1347 2553 1106 2495 
Q 866 2438 647 2322 
L 647 4666 
z
" transform="scale(0.015625)"/>
       </defs>
       <use xlink:href="#DejaVuSansMono-35"/>
       <use xlink:href="#DejaVuSansMono-30" x="60.205078"/>
       <use xlink:href="#DejaVuSansMono-30" x="120.410156"/>
      </g>
     </g>
    </g>
    <g id="text_7">
     <!-- price -->
     <g transform="translate(441.572344 414.822812) scale(0.1 -0.1)">
      <defs>
       <path id="DejaVuSansMono-70" d="M 1172 441 
L 1172 -1331 
L 594 -1331 
L 594 3500 
L 1172 3500 
L 1172 3053 
Q 1316 3313 1555 3448 
Q 1794 3584 2106 3584 
Q 2741 3584 3102 3093 
Q 3463 2603 3463 1734 
Q 3463 881 3100 395 
Q 2738 -91 2106 -91 
Q 1788 -91 1548 45 
Q 1309 181 1172 441 
z
M 2859 1747 
Q 2859 2416 2648 2756 
Q 2438 3097 2022 3097 
Q 1603 3097 1387 2755 
Q 1172 2413 1172 1747 
Q 1172 1084 1387 740 
Q 1603 397 2022 397 
Q 2438 397 2648 737 
Q 2859 1078 2859 1747 
z
" transform="scale(0.015625)"/>
       <path id="DejaVuSansMono-72" d="M 3609 2778 
Q 3425 2922 3234 2987 
Q 3044 3053 2816 3053 
Q 2278 3053 1993 2715 
Q 1709 2378 1709 1741 
L 1709 0 
L 1131 0 
L 1131 3500 
L 1709 3500 
L 1709 2816 
Q 1853 3188 2151 3386 
Q 2450 3584 2859 3584 
Q 3072 3584 3256 3531 
Q 3441 3478 3609 3366 
L 3609 2778 
z
" transform="scale(0.015625)"/>
       <path id="DejaVuSansMono-69" d="M 800 3500 
L 2272 3500 
L 2272 447 
L 3413 447 
L 3413 0 
L 556 0 
L 556 447 
L 1697 447 
L 1697 3053 
L 800 3053 
L 800 3500 
z
M 1697 4863 
L 2272 4863 
L 2272 4134 
L 1697 4134 
L 1697 4863 
z
" transform="scale(0.015625)"/>
       <path id="DejaVuSansMono-63" d="M 3316 178 
Q 3084 44 2839 -23 
Q 2594 -91 2338 -91 
Q 1525 -91 1067 396 
Q 609 884 609 1747 
Q 609 2609 1067 3096 
Q 1525 3584 2338 3584 
Q 2591 3584 2831 3518 
Q 3072 3453 3316 3316 
L 3316 2713 
Q 3088 2916 2858 3006 
Q 2628 3097 2338 3097 
Q 1797 3097 1506 2747 
Q 1216 2397 1216 1747 
Q 1216 1100 1508 748 
Q 1800 397 2338 397 
Q 2638 397 2875 489 
Q 3113 581 3316 775 
L 3316 178 
z
" transform="scale(0.015625)"/>
       <path id="DejaVuSansMono-65" d="M 3475 1894 
L 3475 1613 
L 984 1613 
L 984 1594 
Q 984 1022 1282 709 
Q 1581 397 2125 397 
Q 2400 397 2700 484 
Q 3000 572 3341 750 
L 3341 178 
Q 3013 44 2708 -23 
Q 2403 -91 2119 -91 
Q 1303 -91 843 398 
Q 384 888 384 1747 
Q 384 2584 834 3084 
Q 1284 3584 2034 3584 
Q 2703 3584 3089 3131 
Q 3475 2678 3475 1894 
z
M 2900 2063 
Q 2888 2569 2661 2833 
Q 2434 3097 2009 3097 
Q 1594 3097 1325 2822 
Q 1056 2547 1006 2059 
L 2900 2063 
z
" transform="scale(0.015625)"/>
      </defs>
      <use xlink:href="#DejaVuSansMono-70"/>
      <use xlink:href="#DejaVuSansMono-72" x="60.205078"/>
      <use xlink:href="#DejaVuSansMono-69" x="120.410156"/>
      <use xlink:href="#DejaVuSansMono-63" x="180.615234"/>
      <use xlink:href="#DejaVuSansMono-65" x="240.820312"/>
     </g>
    </g>
   </g>
   <g id="matplotlib.axis_2">
    <g id="ytick_1">
     <g id="line2d_13">
      <path d="M 64.053125 386.44 
L 849.193125 386.44 
" clip-path="url(#p6f49d9749a)" style="fill: none; stroke-dasharray: 2.22,0.96; stroke-dashoffset: 0; stroke: #6c6066; stroke-opacity: 0.4; stroke-width: 0.6"/>
     </g>
     <g id="line2d_14">
      <defs>
       <path id="mf87657a05a" d="M 0 0 
L -3.5 0 
" style="stroke: #000000; stroke-width: 0.8"/>
      </defs>
      <g>
       <use xlink:href="#mf87657a05a" x="64.053125" y="386.44" style="stroke: #000000; stroke-width: 0.8"/>
      </g>
     </g>
     <g id="text_8">
      <!-- 0.0000 -->
      <g transform="translate(20.93125 390.265781) scale(0.1 -0.1)">
       <defs>
        <path id="DejaVuSansMono-2e" d="M 1528 953 
L 2316 953 
L 2316 0 
L 1528 0 
L 1528 953 
z
" transform="scale(0.015625)"/>
       </defs>
       <use xlink:href="#DejaVuSansMono-30"/>
       <use xlink:href="#DejaVuSansMono-2e" x="60.205078"/>
       <use xlink:href="#DejaVuSansMono-30" x="120.410156"/>
       <use xlink:href="#DejaVuSansMono-30" x="180.615234"/>
       <use xlink:href="#DejaVuSansMono-30" x="240.820312"/>
       <use xlink:href="#DejaVuSansMono-30" x="301.025391"/>
      </g>
     </g>
    </g>
    <g id="ytick_2">
     <g id="line2d_15">
      <path d="M 64.053125 325.816602 
L 849.193125 325.816602 
" clip-path="url(#p6f49d9749a)" style="fill: none; stroke-dasharray: 2.22,0.96; stroke-dashoffset: 0; stroke: #6c6066; stroke-opacity: 0.4; stroke-width: 0.6"/>
     </g>
     <g id="line2d_16">
      <g>
       <use xlink:href="#mf87657a05a" x="64.053125" y="325.816602" style="stroke: #000000; stroke-width: 0.8"/>
      </g>
     </g>
     <g id="text_9">
      <!-- 0.0005 -->
      <g transform="translate(20.93125 329.642383) scale(0.1 -0.1)">
       <use xlink:href="#DejaVuSansMono-30"/>
       <use xlink:href="#DejaVuSansMono-2e" x="60.205078"/>
       <use xlink:href="#DejaVuSansMono-30" x="120.410156"/>
       <use xlink:href="#DejaVuSansMono-30" x="180.615234"/>
       <use xlink:href="#DejaVuSansMono-30" x="240.820312"/>
       <use xlink:href="#DejaVuSansMono-35" x="301.025391"/>
      </g>
     </g>
    </g>
    <g id="ytick_3">
     <g id="line2d_17">
      <path d="M 64.053125 265.193204 
L 849.193125 265.193204 
" clip-path="url(#p6f49d9749a)" style="fill: none; stroke-dasharray: 2.22,0.96; stroke-dashoffset: 0; stroke: #6c6066; stroke-opacity: 0.4; stroke-width: 0.6"/>
     </g>
     <g id="line2d_18">
      <g>
       <use xlink:href="#mf87657a05a" x="64.053125" y="265.193204" style="stroke: #000000; stroke-width: 0.8"/>
      </g>
     </g>
     <g id="text_10">
      <!-- 0.0010 -->
      <g transform="translate(20.93125 269.018985) scale(0.1 -0.1)">
       <use xlink:href="#DejaVuSansMono-30"/>
       <use xlink:href="#DejaVuSansMono-2e" x="60.205078"/>
       <use xlink:href="#DejaVuSansMono-30" x="120.410156"/>
       <use xlink:href="#DejaVuSansMono-30" x="180.615234"/>
       <use xlink:href="#DejaVuSansMono-31" x="240.820312"/>
       <use xlink:href="#DejaVuSansMono-30" x="301.025391"/>
      </g>
     </g>
    </g>
    <g id="ytick_4">
     <g id="line2d_19">
      <path d="M 64.053125 204.569806 
L 849.193125 204.569806 
" clip-path="url(#p6f49d9749a)" style="fill: none; stroke-dasharray: 2.22,0.96; stroke-dashoffset: 0; stroke: #6c6066; stroke-opacity: 0.4; stroke-width: 0.6"/>
     </g>
     <g id="line2d_20">
      <g>
       <use xlink:href="#mf87657a05a" x="64.053125" y="204.569806" style="stroke: #000000; stroke-width: 0.8"/>
      </g>
     </g>
     <g id="text_11">
      <!-- 0.0015 -->
      <g transform="translate(20.93125 208.395587) scale(0.1 -0.1)">
       <use xlink:href="#DejaVuSansMono-30"/>
       <use xlink:href="#DejaVuSansMono-2e" x="60.205078"/>
       <use xlink:href="#DejaVuSansMono-30" x="120.410156"/>
       <use xlink:href="#DejaVuSansMono-30" x="180.615234"/>
       <use xlink:href="#DejaVuSansMono-31" x="240.820312"/>
       <use xlink:href="#DejaVuSansMono-35" x="301.025391"/>
      </g>
     </g>
    </g>
    <g id="ytick_5">
     <g id="line2d_21">
      <path d="M 64.053125 143.946408 
L 849.193125 143.946408 
" clip-path="url(#p6f49d9749a)" style="fill: none; stroke-dasharray: 2.22,0.96; stroke-dashoffset: 0; stroke: #6c6066; stroke-opacity: 0.4; stroke-width: 0.6"/>
     </g>
     <g id="line2d_22">
      <g>
       <use xlink:href="#mf87657a05a" x="64.053125" y="143.946408" style="stroke: #000000; stroke-width: 0.8"/>
      </g>
     </g>
     <g id="text_12">
      <!-- 0.0020 -->
      <g transform="translate(20.93125 147.772189) scale(0.1 -0.1)">
       <use xlink:href="#DejaVuSansMono-30"/>
       <use xlink:href="#DejaVuSansMono-2e" x="60.205078"/>
       <use xlink:href="#DejaVuSansMono-30" x="120.410156"/>
       <use xlink:href="#DejaVuSansMono-30" x="180.615234"/>
       <use xlink:href="#DejaVuSansMono-32" x="240.820312"/>
       <use xlink:href="#DejaVuSansMono-30" x="301.025391"/>
      </g>
     </g>
    </g>
    <g id="ytick_6">
     <g id="line2d_23">
      <path d="M 64.053125 83.32301 
L 849.193125 83.32301 
" clip-path="url(#p6f49d9749a)" style="fill: none; stroke-dasharray: 2.22,0.96; stroke-dashoffset: 0; stroke: #6c6066; stroke-opacity: 0.4; stroke-width: 0.6"/>
     </g>
     <g id="line2d_24">
      <g>
       <use xlink:href="#mf87657a05a" x="64.053125" y="83.32301" style="stroke: #000000; stroke-width: 0.8"/>
      </g>
     </g>
     <g id="text_13">
      <!-- 0.0025 -->
      <g transform="translate(20.93125 87.148791) scale(0.1 -0.1)">
       <use xlink:href="#DejaVuSansMono-30"/>
       <use xlink:href="#DejaVuSansMono-2e" x="60.205078"/>
       <use xlink:href="#DejaVuSansMono-30" x="120.410156"/>
       <use xlink:href="#DejaVuSansMono-30" x="180.615234"/>
       <use xlink:href="#DejaVuSansMono-32" x="240.820312"/>
       <use xlink:href="#DejaVuSansMono-35" x="301.025391"/>
      </g>
     </g>
    </g>
    <g id="ytick_7">
     <g id="line2d_25">
      <path d="M 64.053125 22.699612 
L 849.193125 22.699612 
" clip-path="url(#p6f49d9749a)" style="fill: none; stroke-dasharray: 2.22,0.96; stroke-dashoffset: 0; stroke: #6c6066; stroke-opacity: 0.4; stroke-width: 0.6"/>
     </g>
     <g id="line2d_26">
      <g>
       <use xlink:href="#mf87657a05a" x="64.053125" y="22.699612" style="stroke: #000000; stroke-width: 0.8"/>
      </g>
     </g>
     <g id="text_14">
      <!-- 0.0030 -->
      <g transform="translate(20.93125 26.525393) scale(0.1 -0.1)">
       <use xlink:href="#DejaVuSansMono-30"/>
       <use xlink:href="#DejaVuSansMono-2e" x="60.205078"/>
       <use xlink:href="#DejaVuSansMono-30" x="120.410156"/>
       <use xlink:href="#DejaVuSansMono-30" x="180.615234"/>
       <use xlink:href="#DejaVuSansMono-33" x="240.820312"/>
       <use xlink:href="#DejaVuSansMono-30" x="301.025391"/>
      </g>
     </g>
    </g>
    <g id="text_15">
     <!-- probability -->
     <g transform="translate(14.851563 229.931719) rotate(-90) scale(0.1 -0.1)">
      <defs>
       <path id="DejaVuSansMono-6f" d="M 1925 3097 
Q 1488 3097 1263 2756 
Q 1038 2416 1038 1747 
Q 1038 1081 1263 739 
Q 1488 397 1925 397 
Q 2366 397 2591 739 
Q 2816 1081 2816 1747 
Q 2816 2416 2591 2756 
Q 2366 3097 1925 3097 
z
M 1925 3584 
Q 2653 3584 3039 3112 
Q 3425 2641 3425 1747 
Q 3425 850 3040 379 
Q 2656 -91 1925 -91 
Q 1197 -91 812 379 
Q 428 850 428 1747 
Q 428 2641 812 3112 
Q 1197 3584 1925 3584 
z
" transform="scale(0.015625)"/>
       <path id="DejaVuSansMono-62" d="M 2869 1747 
Q 2869 2416 2656 2756 
Q 2444 3097 2028 3097 
Q 1609 3097 1393 2755 
Q 1178 2413 1178 1747 
Q 1178 1084 1393 740 
Q 1609 397 2028 397 
Q 2444 397 2656 737 
Q 2869 1078 2869 1747 
z
M 1178 3053 
Q 1316 3309 1558 3446 
Q 1800 3584 2119 3584 
Q 2750 3584 3112 3098 
Q 3475 2613 3475 1759 
Q 3475 894 3111 401 
Q 2747 -91 2113 -91 
Q 1800 -91 1561 45 
Q 1322 181 1178 441 
L 1178 0 
L 603 0 
L 603 4863 
L 1178 4863 
L 1178 3053 
z
" transform="scale(0.015625)"/>
       <path id="DejaVuSansMono-61" d="M 2194 1759 
L 2003 1759 
Q 1500 1759 1245 1582 
Q 991 1406 991 1056 
Q 991 741 1181 566 
Q 1372 391 1709 391 
Q 2184 391 2456 720 
Q 2728 1050 2731 1631 
L 2731 1759 
L 2194 1759 
z
M 3309 1997 
L 3309 0 
L 2731 0 
L 2731 519 
Q 2547 206 2267 57 
Q 1988 -91 1588 -91 
Q 1053 -91 734 211 
Q 416 513 416 1019 
Q 416 1603 808 1906 
Q 1200 2209 1959 2209 
L 2731 2209 
L 2731 2300 
Q 2728 2719 2518 2908 
Q 2309 3097 1850 3097 
Q 1556 3097 1256 3012 
Q 956 2928 672 2766 
L 672 3341 
Q 991 3463 1283 3523 
Q 1575 3584 1850 3584 
Q 2284 3584 2592 3456 
Q 2900 3328 3091 3072 
Q 3209 2916 3259 2686 
Q 3309 2456 3309 1997 
z
" transform="scale(0.015625)"/>
       <path id="DejaVuSansMono-6c" d="M 1997 1269 
Q 1997 881 2139 684 
Q 2281 488 2559 488 
L 3231 488 
L 3231 0 
L 2503 0 
Q 1988 0 1705 331 
Q 1422 663 1422 1269 
L 1422 4447 
L 500 4447 
L 500 4897 
L 1997 4897 
L 1997 1269 
z
" transform="scale(0.015625)"/>
       <path id="DejaVuSansMono-74" d="M 1919 4494 
L 1919 3500 
L 3225 3500 
L 3225 3053 
L 1919 3053 
L 1919 1153 
Q 1919 766 2066 612 
Q 2213 459 2578 459 
L 3225 459 
L 3225 0 
L 2522 0 
Q 1875 0 1609 259 
Q 1344 519 1344 1153 
L 1344 3053 
L 409 3053 
L 409 3500 
L 1344 3500 
L 1344 4494 
L 1919 4494 
z
" transform="scale(0.015625)"/>
       <path id="DejaVuSansMono-79" d="M 2681 1125 
Q 2538 759 2316 163 
Q 2006 -663 1900 -844 
Q 1756 -1088 1540 -1209 
Q 1325 -1331 1038 -1331 
L 575 -1331 
L 575 -850 
L 916 -850 
Q 1169 -850 1312 -703 
Q 1456 -556 1678 56 
L 325 3500 
L 934 3500 
L 1972 763 
L 2994 3500 
L 3603 3500 
L 2681 1125 
z
" transform="scale(0.015625)"/>
      </defs>
      <use xlink:href="#DejaVuSansMono-70"/>
      <use xlink:href="#DejaVuSansMono-72" x="60.205078"/>
      <use xlink:href="#DejaVuSansMono-6f" x="120.410156"/>
      <use xlink:href="#DejaVuSansMono-62" x="180.615234"/>
      <use xlink:href="#DejaVuSansMono-61" x="240.820312"/>
      <use xlink:href="#DejaVuSansMono-62" x="301.025391"/>
      <use xlink:href="#DejaVuSansMono-69" x="361.230469"/>
      <use xlink:href="#DejaVuSansMono-6c" x="421.435547"/>
      <use xlink:href="#DejaVuSansMono-69" x="481.640625"/>
      <use xlink:href="#DejaVuSansMono-74" x="541.845703"/>
      <use xlink:href="#DejaVuSansMono-79" x="602.050781"/>
     </g>
    </g>
   </g>
   <g id="patch_129">
    <path d="M 64.053125 386.44 
L 64.053125 7.2 
" style="fill: none; stroke: #000000; stroke-width: 0.6; stroke-linejoin: miter; stroke-linecap: square"/>
   </g>
   <g id="patch_130">
    <path d="M 64.053125 386.44 
L 849.193125 386.44 
" style="fill: none; stroke: #000000; stroke-width: 0.6; stroke-linejoin: miter; stroke-linecap: square"/>
   </g>
   <g id="legend_1">
    <g id="patch_131">
     <path d="M 756.010312 59.39375 
L 842.193125 59.39375 
Q 844.193125 59.39375 844.193125 57.39375 
L 844.193125 14.2 
Q 844.193125 12.2 842.193125 12.2 
L 756.010312 12.2 
Q 754.010312 12.2 754.010312 14.2 
L 754.010312 57.39375 
Q 754.010312 59.39375 756.010312 59.39375 
z
" style="fill: #ffffff; opacity: 0.8; stroke: #333333; stroke-width: 0.2; stroke-linejoin: miter"/>
    </g>
    <g id="text_16">
     <!-- data type -->
     <g transform="translate(772.010312 23.851562) scale(0.1 -0.1)">
      <defs>
       <path id="DejaVuSansMono-64" d="M 2681 3053 
L 2681 4863 
L 3256 4863 
L 3256 0 
L 2681 0 
L 2681 441 
Q 2538 181 2298 45 
Q 2059 -91 1747 -91 
Q 1113 -91 748 401 
Q 384 894 384 1759 
Q 384 2613 750 3098 
Q 1116 3584 1747 3584 
Q 2063 3584 2303 3448 
Q 2544 3313 2681 3053 
z
M 991 1747 
Q 991 1078 1203 737 
Q 1416 397 1831 397 
Q 2247 397 2464 740 
Q 2681 1084 2681 1747 
Q 2681 2413 2464 2755 
Q 2247 3097 1831 3097 
Q 1416 3097 1203 2756 
Q 991 2416 991 1747 
z
" transform="scale(0.015625)"/>
       <path id="DejaVuSansMono-20" transform="scale(0.015625)"/>
      </defs>
      <use xlink:href="#DejaVuSansMono-64"/>
      <use xlink:href="#DejaVuSansMono-61" x="60.205078"/>
      <use xlink:href="#DejaVuSansMono-74" x="120.410156"/>
      <use xlink:href="#DejaVuSansMono-61" x="180.615234"/>
      <use xlink:href="#DejaVuSansMono-20" x="240.820312"/>
      <use xlink:href="#DejaVuSansMono-74" x="301.025391"/>
      <use xlink:href="#DejaVuSansMono-79" x="361.230469"/>
      <use xlink:href="#DejaVuSansMono-70" x="421.435547"/>
      <use xlink:href="#DejaVuSansMono-65" x="481.640625"/>
     </g>
    </g>
    <g id="patch_132">
     <path d="M 758.010312 38.582812 
L 778.010312 38.582812 
L 778.010312 31.582812 
L 758.010312 31.582812 
z
" style="fill: #486afb; stroke: #000000; stroke-width: 0.2; stroke-linejoin: miter"/>
    </g>
    <g id="text_17">
     <!-- true -->
     <g transform="translate(786.010312 38.582812) scale(0.1 -0.1)">
      <defs>
       <path id="DejaVuSansMono-75" d="M 609 1325 
L 609 3494 
L 1184 3494 
L 1184 1325 
Q 1184 853 1351 631 
Q 1519 409 1869 409 
Q 2275 409 2490 695 
Q 2706 981 2706 1516 
L 2706 3494 
L 3284 3494 
L 3284 0 
L 2706 0 
L 2706 525 
Q 2553 222 2289 65 
Q 2025 -91 1672 -91 
Q 1134 -91 871 261 
Q 609 613 609 1325 
z
" transform="scale(0.015625)"/>
      </defs>
      <use xlink:href="#DejaVuSansMono-74"/>
      <use xlink:href="#DejaVuSansMono-72" x="60.205078"/>
      <use xlink:href="#DejaVuSansMono-75" x="120.410156"/>
      <use xlink:href="#DejaVuSansMono-65" x="180.615234"/>
     </g>
    </g>
    <g id="patch_133">
     <path d="M 758.010312 53.314062 
L 778.010312 53.314062 
L 778.010312 46.314062 
L 758.010312 46.314062 
z
" style="fill: #fd46fc; stroke: #000000; stroke-width: 0.2; stroke-linejoin: miter"/>
    </g>
    <g id="text_18">
     <!-- simulated -->
     <g transform="translate(786.010312 53.314062) scale(0.1 -0.1)">
      <defs>
       <path id="DejaVuSansMono-73" d="M 3041 3378 
L 3041 2816 
Q 2794 2959 2544 3031 
Q 2294 3103 2034 3103 
Q 1644 3103 1451 2976 
Q 1259 2850 1259 2591 
Q 1259 2356 1403 2240 
Q 1547 2125 2119 2016 
L 2350 1972 
Q 2778 1891 2998 1647 
Q 3219 1403 3219 1013 
Q 3219 494 2850 201 
Q 2481 -91 1825 -91 
Q 1566 -91 1281 -36 
Q 997 19 666 128 
L 666 722 
Q 988 556 1281 473 
Q 1575 391 1838 391 
Q 2219 391 2428 545 
Q 2638 700 2638 978 
Q 2638 1378 1872 1531 
L 1847 1538 
L 1631 1581 
Q 1134 1678 906 1908 
Q 678 2138 678 2534 
Q 678 3038 1018 3311 
Q 1359 3584 1991 3584 
Q 2272 3584 2531 3532 
Q 2791 3481 3041 3378 
z
" transform="scale(0.015625)"/>
       <path id="DejaVuSansMono-6d" d="M 2113 3144 
Q 2219 3369 2383 3476 
Q 2547 3584 2778 3584 
Q 3200 3584 3373 3257 
Q 3547 2931 3547 2028 
L 3547 0 
L 3022 0 
L 3022 2003 
Q 3022 2744 2939 2923 
Q 2856 3103 2638 3103 
Q 2388 3103 2295 2911 
Q 2203 2719 2203 2003 
L 2203 0 
L 1678 0 
L 1678 2003 
Q 1678 2753 1589 2928 
Q 1500 3103 1269 3103 
Q 1041 3103 952 2911 
Q 863 2719 863 2003 
L 863 0 
L 341 0 
L 341 3500 
L 863 3500 
L 863 3200 
Q 966 3388 1120 3486 
Q 1275 3584 1472 3584 
Q 1709 3584 1867 3475 
Q 2025 3366 2113 3144 
z
" transform="scale(0.015625)"/>
      </defs>
      <use xlink:href="#DejaVuSansMono-73"/>
      <use xlink:href="#DejaVuSansMono-69" x="60.205078"/>
      <use xlink:href="#DejaVuSansMono-6d" x="120.410156"/>
      <use xlink:href="#DejaVuSansMono-75" x="180.615234"/>
      <use xlink:href="#DejaVuSansMono-6c" x="240.820312"/>
      <use xlink:href="#DejaVuSansMono-61" x="301.025391"/>
      <use xlink:href="#DejaVuSansMono-74" x="361.230469"/>
      <use xlink:href="#DejaVuSansMono-65" x="421.435547"/>
      <use xlink:href="#DejaVuSansMono-64" x="481.640625"/>
     </g>
    </g>
   </g>
  </g>
 </g>
 <defs>
  <clipPath id="p6f49d9749a">
   <rect x="64.053125" y="7.2" width="785.14" height="379.24"/>
  </clipPath>
 </defs>
</svg>