<?xml version="1.0" encoding="utf-8" standalone="no"?>
<!DOCTYPE svg PUBLIC "-//W3C//DTD SVG 1.1//EN"
  "http://www.w3.org/Graphics/SVG/1.1/DTD/svg11.dtd">
<svg xmlns:xlink="http://www.w3.org/1999/xlink" width="713.440534pt" height="280.1295pt" viewBox="0 0 713.440534 280.1295" xmlns="http://www.w3.org/2000/svg" version="1.1">
 <metadata>
  <rdf:RDF xmlns:dc="http://purl.org/dc/elements/1.1/" xmlns:cc="http://creativecommons.org/ns#" xmlns:rdf="http://www.w3.org/1999/02/22-rdf-syntax-ns#">
   <cc:Work>
    <dc:type rdf:resource="http://purl.org/dc/dcmitype/StillImage"/>
    <dc:date>2023-11-15T19:46:34.231573</dc:date>
    <dc:format>image/svg+xml</dc:format>
    <dc:creator>
     <cc:Agent>
      <dc:title>Matplotlib v3.8.0, https://matplotlib.org/</dc:title>
     </cc:Agent>
    </dc:creator>
   </cc:Work>
  </rdf:RDF>
 </metadata>
 <defs>
  <style type="text/css">*{stroke-linejoin: round; stroke-linecap: butt}</style>
 </defs>
 <g id="figure_1">
  <g id="patch_1">
   <path d="M 0 280.1295 
L 713.440534 280.1295 
L 713.440534 0 
L 0 0 
z
" style="fill: #ffffff"/>
  </g>
  <g id="axes_1">
   <g id="patch_2">
    <path d="M 16.751123 242.724 
L 706.240534 242.724 
L 706.240534 7.2 
L 16.751123 7.2 
z
" style="fill: #ffffff"/>
   </g>
   <g id="PolyCollection_1">
    <defs>
     <path id="md596df7fc2" d="M 48.09155 -155.007349 
L 48.09155 -155.327651 
L 54.42295 -155.45072 
L 60.75435 -155.653015 
L 67.085749 -155.974697 
L 73.417149 -156.46968 
L 79.748548 -157.206868 
L 86.079948 -158.269761 
L 92.411347 -159.753717 
L 98.742747 -161.76036 
L 105.074146 -164.389042 
L 111.405546 -167.725838 
L 117.736945 -171.831204 
L 124.068345 -176.727955 
L 130.399745 -182.391466 
L 136.731144 -188.743877 
L 143.062544 -195.653539 
L 149.393943 -202.940149 
L 155.725343 -210.385126 
L 162.056742 -217.746047 
L 168.388142 -224.773513 
L 174.719541 -231.228633 
L 181.050941 -236.899471 
L 187.382341 -241.614958 
L 193.71374 -245.255141 
L 200.04514 -247.756918 
L 206.376539 -249.114846 
L 212.707939 -249.3771 
L 219.039338 -248.637255 
L 225.370738 -247.023046 
L 231.702137 -244.683609 
L 238.033537 -241.77674 
L 244.364937 -238.457411 
L 250.696336 -234.868432 
L 257.027736 -231.133642 
L 263.359135 -227.35378 
L 269.690535 -223.605002 
L 276.021934 -219.939898 
L 282.353334 -216.390743 
L 288.684733 -212.974392 
L 295.016133 -209.697916 
L 301.347532 -206.56387 
L 307.678932 -203.574151 
L 314.010332 -200.731808 
L 320.341731 -198.040869 
L 326.673131 -195.504811 
L 333.00453 -193.124715 
L 339.33593 -190.898024 
L 345.667329 -188.818413 
L 351.998729 -186.876733 
L 358.330128 -185.062529 
L 364.661528 -183.36554 
L 370.992928 -181.776714 
L 377.324327 -180.288641 
L 383.655727 -178.895516 
L 389.987126 -177.592907 
L 396.318526 -176.377495 
L 402.649925 -175.246824 
L 408.981325 -174.198992 
L 415.312724 -173.232208 
L 421.644124 -172.344231 
L 427.975524 -171.531785 
L 434.306923 -170.790107 
L 440.638323 -170.112701 
L 446.969722 -169.491326 
L 453.301122 -168.916187 
L 459.632521 -168.376298 
L 465.963921 -167.860084 
L 472.29532 -167.356314 
L 478.62672 -166.855414 
L 484.958119 -166.351069 
L 491.289519 -165.841805 
L 497.620919 -165.332088 
L 503.952318 -164.832468 
L 510.283718 -164.358434 
L 516.615117 -163.927961 
L 522.946517 -163.558075 
L 529.277916 -163.261012 
L 535.609316 -163.040719 
L 541.940715 -162.890418 
L 548.272115 -162.791837 
L 554.603515 -162.716458 
L 560.934914 -162.628805 
L 567.266314 -162.491418 
L 573.597713 -162.270719 
L 579.929113 -161.94273 
L 586.260512 -161.497425 
L 592.591912 -160.940762 
L 598.923311 -160.293854 
L 605.254711 -159.589454 
L 611.586111 -158.866531 
L 617.91751 -158.164153 
L 624.24891 -157.516002 
L 630.580309 -156.946513 
L 636.911709 -156.469179 
L 643.243108 -156.086946 
L 649.574508 -155.794189 
L 655.905907 -155.579522 
L 662.237307 -155.428715 
L 668.568706 -155.32715 
L 674.900106 -155.261545 
L 674.900106 -155.073455 
L 674.900106 -155.073455 
L 668.568706 -155.00785 
L 662.237307 -154.906285 
L 655.905907 -154.755478 
L 649.574508 -154.540811 
L 643.243108 -154.248054 
L 636.911709 -153.865821 
L 630.580309 -153.388487 
L 624.24891 -152.818998 
L 617.91751 -152.170847 
L 611.586111 -151.468469 
L 605.254711 -150.745546 
L 598.923311 -150.041146 
L 592.591912 -149.394238 
L 586.260512 -148.837575 
L 579.929113 -148.39227 
L 573.597713 -148.064281 
L 567.266314 -147.843582 
L 560.934914 -147.706195 
L 554.603515 -147.618542 
L 548.272115 -147.543163 
L 541.940715 -147.444582 
L 535.609316 -147.294281 
L 529.277916 -147.073988 
L 522.946517 -146.776925 
L 516.615117 -146.407039 
L 510.283718 -145.976566 
L 503.952318 -145.502532 
L 497.620919 -145.002912 
L 491.289519 -144.493195 
L 484.958119 -143.983931 
L 478.62672 -143.479586 
L 472.29532 -142.978686 
L 465.963921 -142.474916 
L 459.632521 -141.958702 
L 453.301122 -141.418813 
L 446.969722 -140.843674 
L 440.638323 -140.222299 
L 434.306923 -139.544893 
L 427.975524 -138.803215 
L 421.644124 -137.990769 
L 415.312724 -137.102792 
L 408.981325 -136.136008 
L 402.649925 -135.088176 
L 396.318526 -133.957505 
L 389.987126 -132.742093 
L 383.655727 -131.439484 
L 377.324327 -130.046359 
L 370.992928 -128.558286 
L 364.661528 -126.96946 
L 358.330128 -125.272471 
L 351.998729 -123.458267 
L 345.667329 -121.516587 
L 339.33593 -119.436976 
L 333.00453 -117.210285 
L 326.673131 -114.830189 
L 320.341731 -112.294131 
L 314.010332 -109.603192 
L 307.678932 -106.760849 
L 301.347532 -103.77113 
L 295.016133 -100.637084 
L 288.684733 -97.360608 
L 282.353334 -93.944257 
L 276.021934 -90.395102 
L 269.690535 -86.729998 
L 263.359135 -82.98122 
L 257.027736 -79.201358 
L 250.696336 -75.466568 
L 244.364937 -71.877589 
L 238.033537 -68.55826 
L 231.702137 -65.651391 
L 225.370738 -63.311954 
L 219.039338 -61.697745 
L 212.707939 -60.9579 
L 206.376539 -61.220154 
L 200.04514 -62.578082 
L 193.71374 -65.079859 
L 187.382341 -68.720042 
L 181.050941 -73.435529 
L 174.719541 -79.106367 
L 168.388142 -85.561487 
L 162.056742 -92.588953 
L 155.725343 -99.949874 
L 149.393943 -107.394851 
L 143.062544 -114.681461 
L 136.731144 -121.591123 
L 130.399745 -127.943534 
L 124.068345 -133.607045 
L 117.736945 -138.503796 
L 111.405546 -142.609162 
L 105.074146 -145.945958 
L 98.742747 -148.57464 
L 92.411347 -150.581283 
L 86.079948 -152.065239 
L 79.748548 -153.128132 
L 73.417149 -153.86532 
L 67.085749 -154.360303 
L 60.75435 -154.681985 
L 54.42295 -154.88428 
L 48.09155 -155.007349 
z
" style="stroke: #616161"/>
    </defs>
    <g clip-path="url(#pb7f639f695)">
     <use xlink:href="#md596df7fc2" x="0" y="280.1295" style="fill: #5e78e5; stroke: #616161"/>
    </g>
   </g>
   <g id="matplotlib.axis_1">
    <g id="xtick_1">
     <g id="line2d_1">
      <path d="M 17.79575 242.724 
L 17.79575 7.2 
" clip-path="url(#pb7f639f695)" style="fill: none; stroke-dasharray: 2.96,1.28; stroke-dashoffset: 0; stroke: #6c6066; stroke-opacity: 0.4; stroke-width: 0.8"/>
     </g>
     <g id="line2d_2">
      <defs>
       <path id="mbc9753a8aa" d="M 0 0 
L 0 4.8 
" style="stroke: #000000"/>
      </defs>
      <g>
       <use xlink:href="#mbc9753a8aa" x="17.79575" y="242.724" style="stroke: #000000"/>
      </g>
     </g>
     <g id="text_1">
      <!-- −100 -->
      <g transform="translate(7.2 257.757375) scale(0.088 -0.088)">
       <defs>
        <path id="DejaVuSansMono-2212" d="M 275 2272 
L 3578 2272 
L 3578 1741 
L 275 1741 
L 275 2272 
z
" transform="scale(0.015625)"/>
        <path id="DejaVuSansMono-31" d="M 844 531 
L 1825 531 
L 1825 4097 
L 769 3859 
L 769 4434 
L 1819 4666 
L 2450 4666 
L 2450 531 
L 3419 531 
L 3419 0 
L 844 0 
L 844 531 
z
" transform="scale(0.015625)"/>
        <path id="DejaVuSansMono-30" d="M 1509 2344 
Q 1509 2516 1629 2641 
Q 1750 2766 1919 2766 
Q 2094 2766 2219 2641 
Q 2344 2516 2344 2344 
Q 2344 2169 2220 2047 
Q 2097 1925 1919 1925 
Q 1744 1925 1626 2044 
Q 1509 2163 1509 2344 
z
M 1925 4250 
Q 1484 4250 1267 3775 
Q 1050 3300 1050 2328 
Q 1050 1359 1267 884 
Q 1484 409 1925 409 
Q 2369 409 2586 884 
Q 2803 1359 2803 2328 
Q 2803 3300 2586 3775 
Q 2369 4250 1925 4250 
z
M 1925 4750 
Q 2672 4750 3055 4137 
Q 3438 3525 3438 2328 
Q 3438 1134 3055 521 
Q 2672 -91 1925 -91 
Q 1178 -91 797 521 
Q 416 1134 416 2328 
Q 416 3525 797 4137 
Q 1178 4750 1925 4750 
z
" transform="scale(0.015625)"/>
       </defs>
       <use xlink:href="#DejaVuSansMono-2212"/>
       <use xlink:href="#DejaVuSansMono-31" x="60.205078"/>
       <use xlink:href="#DejaVuSansMono-30" x="120.410156"/>
       <use xlink:href="#DejaVuSansMono-30" x="180.615234"/>
      </g>
     </g>
    </g>
    <g id="xtick_2">
     <g id="line2d_3">
      <path d="M 112.894204 242.724 
L 112.894204 7.2 
" clip-path="url(#pb7f639f695)" style="fill: none; stroke-dasharray: 2.96,1.28; stroke-dashoffset: 0; stroke: #6c6066; stroke-opacity: 0.4; stroke-width: 0.8"/>
     </g>
     <g id="line2d_4">
      <g>
       <use xlink:href="#mbc9753a8aa" x="112.894204" y="242.724" style="stroke: #000000"/>
      </g>
     </g>
     <g id="text_2">
      <!-- 0 -->
      <g transform="translate(110.245267 257.757375) scale(0.088 -0.088)">
       <use xlink:href="#DejaVuSansMono-30"/>
      </g>
     </g>
    </g>
    <g id="xtick_3">
     <g id="line2d_5">
      <path d="M 207.992658 242.724 
L 207.992658 7.2 
" clip-path="url(#pb7f639f695)" style="fill: none; stroke-dasharray: 2.96,1.28; stroke-dashoffset: 0; stroke: #6c6066; stroke-opacity: 0.4; stroke-width: 0.8"/>
     </g>
     <g id="line2d_6">
      <g>
       <use xlink:href="#mbc9753a8aa" x="207.992658" y="242.724" style="stroke: #000000"/>
      </g>
     </g>
     <g id="text_3">
      <!-- 100 -->
      <g transform="translate(200.045846 257.757375) scale(0.088 -0.088)">
       <use xlink:href="#DejaVuSansMono-31"/>
       <use xlink:href="#DejaVuSansMono-30" x="60.205078"/>
       <use xlink:href="#DejaVuSansMono-30" x="120.410156"/>
      </g>
     </g>
    </g>
    <g id="xtick_4">
     <g id="line2d_7">
      <path d="M 303.091113 242.724 
L 303.091113 7.2 
" clip-path="url(#pb7f639f695)" style="fill: none; stroke-dasharray: 2.96,1.28; stroke-dashoffset: 0; stroke: #6c6066; stroke-opacity: 0.4; stroke-width: 0.8"/>
     </g>
     <g id="line2d_8">
      <g>
       <use xlink:href="#mbc9753a8aa" x="303.091113" y="242.724" style="stroke: #000000"/>
      </g>
     </g>
     <g id="text_4">
      <!-- 200 -->
      <g transform="translate(295.1443 257.757375) scale(0.088 -0.088)">
       <defs>
        <path id="DejaVuSansMono-32" d="M 1166 531 
L 3309 531 
L 3309 0 
L 475 0 
L 475 531 
Q 1059 1147 1496 1619 
Q 1934 2091 2100 2284 
Q 2413 2666 2522 2902 
Q 2631 3138 2631 3384 
Q 2631 3775 2401 3997 
Q 2172 4219 1772 4219 
Q 1488 4219 1175 4116 
Q 863 4013 513 3803 
L 513 4441 
Q 834 4594 1145 4672 
Q 1456 4750 1759 4750 
Q 2444 4750 2861 4386 
Q 3278 4022 3278 3431 
Q 3278 3131 3139 2831 
Q 3000 2531 2688 2169 
Q 2513 1966 2180 1606 
Q 1847 1247 1166 531 
z
" transform="scale(0.015625)"/>
       </defs>
       <use xlink:href="#DejaVuSansMono-32"/>
       <use xlink:href="#DejaVuSansMono-30" x="60.205078"/>
       <use xlink:href="#DejaVuSansMono-30" x="120.410156"/>
      </g>
     </g>
    </g>
    <g id="xtick_5">
     <g id="line2d_9">
      <path d="M 398.189567 242.724 
L 398.189567 7.2 
" clip-path="url(#pb7f639f695)" style="fill: none; stroke-dasharray: 2.96,1.28; stroke-dashoffset: 0; stroke: #6c6066; stroke-opacity: 0.4; stroke-width: 0.8"/>
     </g>
     <g id="line2d_10">
      <g>
       <use xlink:href="#mbc9753a8aa" x="398.189567" y="242.724" style="stroke: #000000"/>
      </g>
     </g>
     <g id="text_5">
      <!-- 300 -->
      <g transform="translate(390.242754 257.757375) scale(0.088 -0.088)">
       <defs>
        <path id="DejaVuSansMono-33" d="M 2425 2497 
Q 2884 2375 3128 2064 
Q 3372 1753 3372 1288 
Q 3372 644 2939 276 
Q 2506 -91 1741 -91 
Q 1419 -91 1084 -31 
Q 750 28 428 141 
L 428 769 
Q 747 603 1056 522 
Q 1366 441 1672 441 
Q 2191 441 2469 675 
Q 2747 909 2747 1350 
Q 2747 1756 2469 1995 
Q 2191 2234 1716 2234 
L 1234 2234 
L 1234 2753 
L 1716 2753 
Q 2150 2753 2394 2943 
Q 2638 3134 2638 3475 
Q 2638 3834 2411 4026 
Q 2184 4219 1766 4219 
Q 1488 4219 1191 4156 
Q 894 4094 569 3969 
L 569 4550 
Q 947 4650 1242 4700 
Q 1538 4750 1766 4750 
Q 2447 4750 2855 4408 
Q 3263 4066 3263 3500 
Q 3263 3116 3048 2859 
Q 2834 2603 2425 2497 
z
" transform="scale(0.015625)"/>
       </defs>
       <use xlink:href="#DejaVuSansMono-33"/>
       <use xlink:href="#DejaVuSansMono-30" x="60.205078"/>
       <use xlink:href="#DejaVuSansMono-30" x="120.410156"/>
      </g>
     </g>
    </g>
    <g id="xtick_6">
     <g id="line2d_11">
      <path d="M 493.288021 242.724 
L 493.288021 7.2 
" clip-path="url(#pb7f639f695)" style="fill: none; stroke-dasharray: 2.96,1.28; stroke-dashoffset: 0; stroke: #6c6066; stroke-opacity: 0.4; stroke-width: 0.8"/>
     </g>
     <g id="line2d_12">
      <g>
       <use xlink:href="#mbc9753a8aa" x="493.288021" y="242.724" style="stroke: #000000"/>
      </g>
     </g>
     <g id="text_6">
      <!-- 400 -->
      <g transform="translate(485.341208 257.757375) scale(0.088 -0.088)">
       <defs>
        <path id="DejaVuSansMono-34" d="M 2297 4091 
L 825 1625 
L 2297 1625 
L 2297 4091 
z
M 2194 4666 
L 2925 4666 
L 2925 1625 
L 3547 1625 
L 3547 1113 
L 2925 1113 
L 2925 0 
L 2297 0 
L 2297 1113 
L 319 1113 
L 319 1709 
L 2194 4666 
z
" transform="scale(0.015625)"/>
       </defs>
       <use xlink:href="#DejaVuSansMono-34"/>
       <use xlink:href="#DejaVuSansMono-30" x="60.205078"/>
       <use xlink:href="#DejaVuSansMono-30" x="120.410156"/>
      </g>
     </g>
    </g>
    <g id="xtick_7">
     <g id="line2d_13">
      <path d="M 588.386475 242.724 
L 588.386475 7.2 
" clip-path="url(#pb7f639f695)" style="fill: none; stroke-dasharray: 2.96,1.28; stroke-dashoffset: 0; stroke: #6c6066; stroke-opacity: 0.4; stroke-width: 0.8"/>
     </g>
     <g id="line2d_14">
      <g>
       <use xlink:href="#mbc9753a8aa" x="588.386475" y="242.724" style="stroke: #000000"/>
      </g>
     </g>
     <g id="text_7">
      <!-- 500 -->
      <g transform="translate(580.439663 257.757375) scale(0.088 -0.088)">
       <defs>
        <path id="DejaVuSansMono-35" d="M 647 4666 
L 3009 4666 
L 3009 4134 
L 1222 4134 
L 1222 2988 
Q 1356 3038 1492 3061 
Q 1628 3084 1766 3084 
Q 2491 3084 2916 2656 
Q 3341 2228 3341 1497 
Q 3341 759 2895 334 
Q 2450 -91 1678 -91 
Q 1306 -91 998 -41 
Q 691 9 447 109 
L 447 750 
Q 734 594 1025 517 
Q 1316 441 1619 441 
Q 2141 441 2423 716 
Q 2706 991 2706 1497 
Q 2706 1997 2414 2275 
Q 2122 2553 1600 2553 
Q 1347 2553 1106 2495 
Q 866 2438 647 2322 
L 647 4666 
z
" transform="scale(0.015625)"/>
       </defs>
       <use xlink:href="#DejaVuSansMono-35"/>
       <use xlink:href="#DejaVuSansMono-30" x="60.205078"/>
       <use xlink:href="#DejaVuSansMono-30" x="120.410156"/>
      </g>
     </g>
    </g>
    <g id="xtick_8">
     <g id="line2d_15">
      <path d="M 683.484929 242.724 
L 683.484929 7.2 
" clip-path="url(#pb7f639f695)" style="fill: none; stroke-dasharray: 2.96,1.28; stroke-dashoffset: 0; stroke: #6c6066; stroke-opacity: 0.4; stroke-width: 0.8"/>
     </g>
     <g id="line2d_16">
      <g>
       <use xlink:href="#mbc9753a8aa" x="683.484929" y="242.724" style="stroke: #000000"/>
      </g>
     </g>
     <g id="text_8">
      <!-- 600 -->
      <g transform="translate(675.538117 257.757375) scale(0.088 -0.088)">
       <defs>
        <path id="DejaVuSansMono-36" d="M 3097 4563 
L 3097 3981 
Q 2900 4097 2678 4158 
Q 2456 4219 2216 4219 
Q 1616 4219 1306 3767 
Q 997 3316 997 2438 
Q 1147 2750 1412 2917 
Q 1678 3084 2022 3084 
Q 2697 3084 3067 2670 
Q 3438 2256 3438 1497 
Q 3438 741 3056 325 
Q 2675 -91 1984 -91 
Q 1172 -91 794 492 
Q 416 1075 416 2328 
Q 416 3509 870 4129 
Q 1325 4750 2188 4750 
Q 2419 4750 2650 4701 
Q 2881 4653 3097 4563 
z
M 1972 2591 
Q 1569 2591 1337 2300 
Q 1106 2009 1106 1497 
Q 1106 984 1337 693 
Q 1569 403 1972 403 
Q 2391 403 2603 679 
Q 2816 956 2816 1497 
Q 2816 2041 2603 2316 
Q 2391 2591 1972 2591 
z
" transform="scale(0.015625)"/>
       </defs>
       <use xlink:href="#DejaVuSansMono-36"/>
       <use xlink:href="#DejaVuSansMono-30" x="60.205078"/>
       <use xlink:href="#DejaVuSansMono-30" x="120.410156"/>
      </g>
     </g>
    </g>
    <g id="text_9">
     <!-- quantity -->
     <g transform="translate(338.377828 270.9135) scale(0.096 -0.096)">
      <defs>
       <path id="DejaVuSansMono-71" d="M 1038 1734 
Q 1038 1066 1248 725 
Q 1459 384 1875 384 
Q 2291 384 2505 726 
Q 2719 1069 2719 1734 
Q 2719 2400 2505 2742 
Q 2291 3084 1875 3084 
Q 1459 3084 1248 2743 
Q 1038 2403 1038 1734 
z
M 2719 434 
Q 2578 175 2339 36 
Q 2100 -103 1784 -103 
Q 1156 -103 792 383 
Q 428 869 428 1722 
Q 428 2591 790 3081 
Q 1153 3572 1784 3572 
Q 2097 3572 2336 3436 
Q 2575 3300 2719 3041 
L 2719 3488 
L 3297 3488 
L 3297 -1344 
L 2719 -1344 
L 2719 434 
z
" transform="scale(0.015625)"/>
       <path id="DejaVuSansMono-75" d="M 609 1325 
L 609 3494 
L 1184 3494 
L 1184 1325 
Q 1184 853 1351 631 
Q 1519 409 1869 409 
Q 2275 409 2490 695 
Q 2706 981 2706 1516 
L 2706 3494 
L 3284 3494 
L 3284 0 
L 2706 0 
L 2706 525 
Q 2553 222 2289 65 
Q 2025 -91 1672 -91 
Q 1134 -91 871 261 
Q 609 613 609 1325 
z
" transform="scale(0.015625)"/>
       <path id="DejaVuSansMono-61" d="M 2194 1759 
L 2003 1759 
Q 1500 1759 1245 1582 
Q 991 1406 991 1056 
Q 991 741 1181 566 
Q 1372 391 1709 391 
Q 2184 391 2456 720 
Q 2728 1050 2731 1631 
L 2731 1759 
L 2194 1759 
z
M 3309 1997 
L 3309 0 
L 2731 0 
L 2731 519 
Q 2547 206 2267 57 
Q 1988 -91 1588 -91 
Q 1053 -91 734 211 
Q 416 513 416 1019 
Q 416 1603 808 1906 
Q 1200 2209 1959 2209 
L 2731 2209 
L 2731 2300 
Q 2728 2719 2518 2908 
Q 2309 3097 1850 3097 
Q 1556 3097 1256 3012 
Q 956 2928 672 2766 
L 672 3341 
Q 991 3463 1283 3523 
Q 1575 3584 1850 3584 
Q 2284 3584 2592 3456 
Q 2900 3328 3091 3072 
Q 3209 2916 3259 2686 
Q 3309 2456 3309 1997 
z
" transform="scale(0.015625)"/>
       <path id="DejaVuSansMono-6e" d="M 3284 2169 
L 3284 0 
L 2706 0 
L 2706 2169 
Q 2706 2641 2540 2862 
Q 2375 3084 2022 3084 
Q 1619 3084 1401 2798 
Q 1184 2513 1184 1978 
L 1184 0 
L 609 0 
L 609 3500 
L 1184 3500 
L 1184 2975 
Q 1338 3275 1600 3429 
Q 1863 3584 2222 3584 
Q 2756 3584 3020 3232 
Q 3284 2881 3284 2169 
z
" transform="scale(0.015625)"/>
       <path id="DejaVuSansMono-74" d="M 1919 4494 
L 1919 3500 
L 3225 3500 
L 3225 3053 
L 1919 3053 
L 1919 1153 
Q 1919 766 2066 612 
Q 2213 459 2578 459 
L 3225 459 
L 3225 0 
L 2522 0 
Q 1875 0 1609 259 
Q 1344 519 1344 1153 
L 1344 3053 
L 409 3053 
L 409 3500 
L 1344 3500 
L 1344 4494 
L 1919 4494 
z
" transform="scale(0.015625)"/>
       <path id="DejaVuSansMono-69" d="M 800 3500 
L 2272 3500 
L 2272 447 
L 3413 447 
L 3413 0 
L 556 0 
L 556 447 
L 1697 447 
L 1697 3053 
L 800 3053 
L 800 3500 
z
M 1697 4863 
L 2272 4863 
L 2272 4134 
L 1697 4134 
L 1697 4863 
z
" transform="scale(0.015625)"/>
       <path id="DejaVuSansMono-79" d="M 2681 1125 
Q 2538 759 2316 163 
Q 2006 -663 1900 -844 
Q 1756 -1088 1540 -1209 
Q 1325 -1331 1038 -1331 
L 575 -1331 
L 575 -850 
L 916 -850 
Q 1169 -850 1312 -703 
Q 1456 -556 1678 56 
L 325 3500 
L 934 3500 
L 1972 763 
L 2994 3500 
L 3603 3500 
L 2681 1125 
z
" transform="scale(0.015625)"/>
      </defs>
      <use xlink:href="#DejaVuSansMono-71"/>
      <use xlink:href="#DejaVuSansMono-75" x="60.205078"/>
      <use xlink:href="#DejaVuSansMono-61" x="120.410156"/>
      <use xlink:href="#DejaVuSansMono-6e" x="180.615234"/>
      <use xlink:href="#DejaVuSansMono-74" x="240.820312"/>
      <use xlink:href="#DejaVuSansMono-69" x="301.025391"/>
      <use xlink:href="#DejaVuSansMono-74" x="361.230469"/>
      <use xlink:href="#DejaVuSansMono-79" x="421.435547"/>
     </g>
    </g>
   </g>
   <g id="matplotlib.axis_2">
    <g id="ytick_1">
     <g id="line2d_17">
      <defs>
       <path id="mef33855b67" d="M 0 0 
L -4.8 0 
" style="stroke: #000000"/>
      </defs>
      <g>
       <use xlink:href="#mef33855b67" x="16.751123" y="124.962" style="stroke: #000000"/>
      </g>
     </g>
    </g>
   </g>
   <g id="line2d_18">
    <path d="M 109.356542 124.962 
L 497.691079 124.962 
" clip-path="url(#pb7f639f695)" style="fill: none; stroke: #616161; stroke-width: 1.5; stroke-linecap: square"/>
   </g>
   <g id="line2d_19">
    <path d="M 197.603152 124.962 
L 317.655441 124.962 
" clip-path="url(#pb7f639f695)" style="fill: none; stroke: #616161; stroke-width: 4.5; stroke-linecap: square"/>
   </g>
   <g id="line2d_20">
    <path d="M 243.036439 124.962 
" clip-path="url(#pb7f639f695)" style="fill: none; stroke: #616161; stroke-width: 1.2; stroke-linecap: square"/>
    <defs>
     <path id="m15da9ee5cd" d="M 0 1.875 
L 0 -1.875 
" style="stroke: #ffffff; stroke-width: 0.9"/>
    </defs>
    <g clip-path="url(#pb7f639f695)">
     <use xlink:href="#m15da9ee5cd" x="243.036439" y="124.962" style="fill: #ffffff; stroke: #ffffff; stroke-width: 0.9"/>
    </g>
   </g>
   <g id="patch_3">
    <path d="M 16.751123 242.724 
L 16.751123 7.2 
" style="fill: none; stroke: #000000; stroke-linejoin: miter; stroke-linecap: square"/>
   </g>
   <g id="patch_4">
    <path d="M 16.751123 242.724 
L 706.240534 242.724 
" style="fill: none; stroke: #000000; stroke-linejoin: miter; stroke-linecap: square"/>
   </g>
  </g>
 </g>
 <defs>
  <clipPath id="pb7f639f695">
   <rect x="16.751123" y="7.2" width="689.489411" height="235.524"/>
  </clipPath>
 </defs>
</svg>