<?xml version="1.0" encoding="utf-8" standalone="no"?>
<!DOCTYPE svg PUBLIC "-//W3C//DTD SVG 1.1//EN"
  "http://www.w3.org/Graphics/SVG/1.1/DTD/svg11.dtd">
<svg xmlns:xlink="http://www.w3.org/1999/xlink" width="452.623431pt" height="337.7025pt" viewBox="0 0 452.623431 337.7025" xmlns="http://www.w3.org/2000/svg" version="1.1">
 <metadata>
  <rdf:RDF xmlns:dc="http://purl.org/dc/elements/1.1/" xmlns:cc="http://creativecommons.org/ns#" xmlns:rdf="http://www.w3.org/1999/02/22-rdf-syntax-ns#">
   <cc:Work>
    <dc:type rdf:resource="http://purl.org/dc/dcmitype/StillImage"/>
    <dc:date>2023-11-15T19:46:31.331334</dc:date>
    <dc:format>image/svg+xml</dc:format>
    <dc:creator>
     <cc:Agent>
      <dc:title>Matplotlib v3.8.0, https://matplotlib.org/</dc:title>
     </cc:Agent>
    </dc:creator>
   </cc:Work>
  </rdf:RDF>
 </metadata>
 <defs>
  <style type="text/css">*{stroke-linejoin: round; stroke-linecap: butt}</style>
 </defs>
 <g id="figure_1">
  <g id="patch_1">
   <path d="M 0 337.7025 
L 452.623431 337.7025 
L 452.623431 0 
L 0 0 
z
" style="fill: #ffffff"/>
  </g>
  <g id="axes_1">
   <g id="patch_2">
    <path d="M 58.032813 300.04 
L 443.960165 300.04 
L 443.960165 7.2 
L 58.032813 7.2 
z
" style="fill: #ffffff"/>
   </g>
   <g id="matplotlib.axis_1">
    <g id="xtick_1">
     <g id="line2d_1">
      <path d="M 58.032813 300.04 
L 58.032813 7.2 
" clip-path="url(#p4787dae073)" style="fill: none; stroke-dasharray: 2.22,0.96; stroke-dashoffset: 0; stroke: #6c6066; stroke-opacity: 0.4; stroke-width: 0.6"/>
     </g>
     <g id="line2d_2">
      <defs>
       <path id="md083295503" d="M 0 0 
L 0 3.5 
" style="stroke: #000000; stroke-width: 0.8"/>
      </defs>
      <g>
       <use xlink:href="#md083295503" x="58.032813" y="300.04" style="stroke: #000000; stroke-width: 0.8"/>
      </g>
     </g>
     <g id="text_1">
      <!-- 0 -->
      <g transform="translate(55.022656 314.691562) scale(0.1 -0.1)">
       <defs>
        <path id="DejaVuSansMono-30" d="M 1509 2344 
Q 1509 2516 1629 2641 
Q 1750 2766 1919 2766 
Q 2094 2766 2219 2641 
Q 2344 2516 2344 2344 
Q 2344 2169 2220 2047 
Q 2097 1925 1919 1925 
Q 1744 1925 1626 2044 
Q 1509 2163 1509 2344 
z
M 1925 4250 
Q 1484 4250 1267 3775 
Q 1050 3300 1050 2328 
Q 1050 1359 1267 884 
Q 1484 409 1925 409 
Q 2369 409 2586 884 
Q 2803 1359 2803 2328 
Q 2803 3300 2586 3775 
Q 2369 4250 1925 4250 
z
M 1925 4750 
Q 2672 4750 3055 4137 
Q 3438 3525 3438 2328 
Q 3438 1134 3055 521 
Q 2672 -91 1925 -91 
Q 1178 -91 797 521 
Q 416 1134 416 2328 
Q 416 3525 797 4137 
Q 1178 4750 1925 4750 
z
" transform="scale(0.015625)"/>
       </defs>
       <use xlink:href="#DejaVuSansMono-30"/>
      </g>
     </g>
    </g>
    <g id="xtick_2">
     <g id="line2d_3">
      <path d="M 133.704842 300.04 
L 133.704842 7.2 
" clip-path="url(#p4787dae073)" style="fill: none; stroke-dasharray: 2.22,0.96; stroke-dashoffset: 0; stroke: #6c6066; stroke-opacity: 0.4; stroke-width: 0.6"/>
     </g>
     <g id="line2d_4">
      <g>
       <use xlink:href="#md083295503" x="133.704842" y="300.04" style="stroke: #000000; stroke-width: 0.8"/>
      </g>
     </g>
     <g id="text_2">
      <!-- 100 -->
      <g transform="translate(124.674374 314.691562) scale(0.1 -0.1)">
       <defs>
        <path id="DejaVuSansMono-31" d="M 844 531 
L 1825 531 
L 1825 4097 
L 769 3859 
L 769 4434 
L 1819 4666 
L 2450 4666 
L 2450 531 
L 3419 531 
L 3419 0 
L 844 0 
L 844 531 
z
" transform="scale(0.015625)"/>
       </defs>
       <use xlink:href="#DejaVuSansMono-31"/>
       <use xlink:href="#DejaVuSansMono-30" x="60.205078"/>
       <use xlink:href="#DejaVuSansMono-30" x="120.410156"/>
      </g>
     </g>
    </g>
    <g id="xtick_3">
     <g id="line2d_5">
      <path d="M 209.376872 300.04 
L 209.376872 7.2 
" clip-path="url(#p4787dae073)" style="fill: none; stroke-dasharray: 2.22,0.96; stroke-dashoffset: 0; stroke: #6c6066; stroke-opacity: 0.4; stroke-width: 0.6"/>
     </g>
     <g id="line2d_6">
      <g>
       <use xlink:href="#md083295503" x="209.376872" y="300.04" style="stroke: #000000; stroke-width: 0.8"/>
      </g>
     </g>
     <g id="text_3">
      <!-- 200 -->
      <g transform="translate(200.346404 314.691562) scale(0.1 -0.1)">
       <defs>
        <path id="DejaVuSansMono-32" d="M 1166 531 
L 3309 531 
L 3309 0 
L 475 0 
L 475 531 
Q 1059 1147 1496 1619 
Q 1934 2091 2100 2284 
Q 2413 2666 2522 2902 
Q 2631 3138 2631 3384 
Q 2631 3775 2401 3997 
Q 2172 4219 1772 4219 
Q 1488 4219 1175 4116 
Q 863 4013 513 3803 
L 513 4441 
Q 834 4594 1145 4672 
Q 1456 4750 1759 4750 
Q 2444 4750 2861 4386 
Q 3278 4022 3278 3431 
Q 3278 3131 3139 2831 
Q 3000 2531 2688 2169 
Q 2513 1966 2180 1606 
Q 1847 1247 1166 531 
z
" transform="scale(0.015625)"/>
       </defs>
       <use xlink:href="#DejaVuSansMono-32"/>
       <use xlink:href="#DejaVuSansMono-30" x="60.205078"/>
       <use xlink:href="#DejaVuSansMono-30" x="120.410156"/>
      </g>
     </g>
    </g>
    <g id="xtick_4">
     <g id="line2d_7">
      <path d="M 285.048902 300.04 
L 285.048902 7.2 
" clip-path="url(#p4787dae073)" style="fill: none; stroke-dasharray: 2.22,0.96; stroke-dashoffset: 0; stroke: #6c6066; stroke-opacity: 0.4; stroke-width: 0.6"/>
     </g>
     <g id="line2d_8">
      <g>
       <use xlink:href="#md083295503" x="285.048902" y="300.04" style="stroke: #000000; stroke-width: 0.8"/>
      </g>
     </g>
     <g id="text_4">
      <!-- 300 -->
      <g transform="translate(276.018434 314.691562) scale(0.1 -0.1)">
       <defs>
        <path id="DejaVuSansMono-33" d="M 2425 2497 
Q 2884 2375 3128 2064 
Q 3372 1753 3372 1288 
Q 3372 644 2939 276 
Q 2506 -91 1741 -91 
Q 1419 -91 1084 -31 
Q 750 28 428 141 
L 428 769 
Q 747 603 1056 522 
Q 1366 441 1672 441 
Q 2191 441 2469 675 
Q 2747 909 2747 1350 
Q 2747 1756 2469 1995 
Q 2191 2234 1716 2234 
L 1234 2234 
L 1234 2753 
L 1716 2753 
Q 2150 2753 2394 2943 
Q 2638 3134 2638 3475 
Q 2638 3834 2411 4026 
Q 2184 4219 1766 4219 
Q 1488 4219 1191 4156 
Q 894 4094 569 3969 
L 569 4550 
Q 947 4650 1242 4700 
Q 1538 4750 1766 4750 
Q 2447 4750 2855 4408 
Q 3263 4066 3263 3500 
Q 3263 3116 3048 2859 
Q 2834 2603 2425 2497 
z
" transform="scale(0.015625)"/>
       </defs>
       <use xlink:href="#DejaVuSansMono-33"/>
       <use xlink:href="#DejaVuSansMono-30" x="60.205078"/>
       <use xlink:href="#DejaVuSansMono-30" x="120.410156"/>
      </g>
     </g>
    </g>
    <g id="xtick_5">
     <g id="line2d_9">
      <path d="M 360.720932 300.04 
L 360.720932 7.2 
" clip-path="url(#p4787dae073)" style="fill: none; stroke-dasharray: 2.22,0.96; stroke-dashoffset: 0; stroke: #6c6066; stroke-opacity: 0.4; stroke-width: 0.6"/>
     </g>
     <g id="line2d_10">
      <g>
       <use xlink:href="#md083295503" x="360.720932" y="300.04" style="stroke: #000000; stroke-width: 0.8"/>
      </g>
     </g>
     <g id="text_5">
      <!-- 400 -->
      <g transform="translate(351.690464 314.691562) scale(0.1 -0.1)">
       <defs>
        <path id="DejaVuSansMono-34" d="M 2297 4091 
L 825 1625 
L 2297 1625 
L 2297 4091 
z
M 2194 4666 
L 2925 4666 
L 2925 1625 
L 3547 1625 
L 3547 1113 
L 2925 1113 
L 2925 0 
L 2297 0 
L 2297 1113 
L 319 1113 
L 319 1709 
L 2194 4666 
z
" transform="scale(0.015625)"/>
       </defs>
       <use xlink:href="#DejaVuSansMono-34"/>
       <use xlink:href="#DejaVuSansMono-30" x="60.205078"/>
       <use xlink:href="#DejaVuSansMono-30" x="120.410156"/>
      </g>
     </g>
    </g>
    <g id="xtick_6">
     <g id="line2d_11">
      <path d="M 436.392962 300.04 
L 436.392962 7.2 
" clip-path="url(#p4787dae073)" style="fill: none; stroke-dasharray: 2.22,0.96; stroke-dashoffset: 0; stroke: #6c6066; stroke-opacity: 0.4; stroke-width: 0.6"/>
     </g>
     <g id="line2d_12">
      <g>
       <use xlink:href="#md083295503" x="436.392962" y="300.04" style="stroke: #000000; stroke-width: 0.8"/>
      </g>
     </g>
     <g id="text_6">
      <!-- 500 -->
      <g transform="translate(427.362494 314.691562) scale(0.1 -0.1)">
       <defs>
        <path id="DejaVuSansMono-35" d="M 647 4666 
L 3009 4666 
L 3009 4134 
L 1222 4134 
L 1222 2988 
Q 1356 3038 1492 3061 
Q 1628 3084 1766 3084 
Q 2491 3084 2916 2656 
Q 3341 2228 3341 1497 
Q 3341 759 2895 334 
Q 2450 -91 1678 -91 
Q 1306 -91 998 -41 
Q 691 9 447 109 
L 447 750 
Q 734 594 1025 517 
Q 1316 441 1619 441 
Q 2141 441 2423 716 
Q 2706 991 2706 1497 
Q 2706 1997 2414 2275 
Q 2122 2553 1600 2553 
Q 1347 2553 1106 2495 
Q 866 2438 647 2322 
L 647 4666 
z
" transform="scale(0.015625)"/>
       </defs>
       <use xlink:href="#DejaVuSansMono-35"/>
       <use xlink:href="#DejaVuSansMono-30" x="60.205078"/>
       <use xlink:href="#DejaVuSansMono-30" x="120.410156"/>
      </g>
     </g>
    </g>
    <g id="text_7">
     <!-- price -->
     <g transform="translate(235.945708 328.422812) scale(0.1 -0.1)">
      <defs>
       <path id="DejaVuSansMono-70" d="M 1172 441 
L 1172 -1331 
L 594 -1331 
L 594 3500 
L 1172 3500 
L 1172 3053 
Q 1316 3313 1555 3448 
Q 1794 3584 2106 3584 
Q 2741 3584 3102 3093 
Q 3463 2603 3463 1734 
Q 3463 881 3100 395 
Q 2738 -91 2106 -91 
Q 1788 -91 1548 45 
Q 1309 181 1172 441 
z
M 2859 1747 
Q 2859 2416 2648 2756 
Q 2438 3097 2022 3097 
Q 1603 3097 1387 2755 
Q 1172 2413 1172 1747 
Q 1172 1084 1387 740 
Q 1603 397 2022 397 
Q 2438 397 2648 737 
Q 2859 1078 2859 1747 
z
" transform="scale(0.015625)"/>
       <path id="DejaVuSansMono-72" d="M 3609 2778 
Q 3425 2922 3234 2987 
Q 3044 3053 2816 3053 
Q 2278 3053 1993 2715 
Q 1709 2378 1709 1741 
L 1709 0 
L 1131 0 
L 1131 3500 
L 1709 3500 
L 1709 2816 
Q 1853 3188 2151 3386 
Q 2450 3584 2859 3584 
Q 3072 3584 3256 3531 
Q 3441 3478 3609 3366 
L 3609 2778 
z
" transform="scale(0.015625)"/>
       <path id="DejaVuSansMono-69" d="M 800 3500 
L 2272 3500 
L 2272 447 
L 3413 447 
L 3413 0 
L 556 0 
L 556 447 
L 1697 447 
L 1697 3053 
L 800 3053 
L 800 3500 
z
M 1697 4863 
L 2272 4863 
L 2272 4134 
L 1697 4134 
L 1697 4863 
z
" transform="scale(0.015625)"/>
       <path id="DejaVuSansMono-63" d="M 3316 178 
Q 3084 44 2839 -23 
Q 2594 -91 2338 -91 
Q 1525 -91 1067 396 
Q 609 884 609 1747 
Q 609 2609 1067 3096 
Q 1525 3584 2338 3584 
Q 2591 3584 2831 3518 
Q 3072 3453 3316 3316 
L 3316 2713 
Q 3088 2916 2858 3006 
Q 2628 3097 2338 3097 
Q 1797 3097 1506 2747 
Q 1216 2397 1216 1747 
Q 1216 1100 1508 748 
Q 1800 397 2338 397 
Q 2638 397 2875 489 
Q 3113 581 3316 775 
L 3316 178 
z
" transform="scale(0.015625)"/>
       <path id="DejaVuSansMono-65" d="M 3475 1894 
L 3475 1613 
L 984 1613 
L 984 1594 
Q 984 1022 1282 709 
Q 1581 397 2125 397 
Q 2400 397 2700 484 
Q 3000 572 3341 750 
L 3341 178 
Q 3013 44 2708 -23 
Q 2403 -91 2119 -91 
Q 1303 -91 843 398 
Q 384 888 384 1747 
Q 384 2584 834 3084 
Q 1284 3584 2034 3584 
Q 2703 3584 3089 3131 
Q 3475 2678 3475 1894 
z
M 2900 2063 
Q 2888 2569 2661 2833 
Q 2434 3097 2009 3097 
Q 1594 3097 1325 2822 
Q 1056 2547 1006 2059 
L 2900 2063 
z
" transform="scale(0.015625)"/>
      </defs>
      <use xlink:href="#DejaVuSansMono-70"/>
      <use xlink:href="#DejaVuSansMono-72" x="60.205078"/>
      <use xlink:href="#DejaVuSansMono-69" x="120.410156"/>
      <use xlink:href="#DejaVuSansMono-63" x="180.615234"/>
      <use xlink:href="#DejaVuSansMono-65" x="240.820312"/>
     </g>
    </g>
   </g>
   <g id="matplotlib.axis_2">
    <g id="ytick_1">
     <g id="line2d_13">
      <path d="M 58.032813 300.04 
L 443.960165 300.04 
" clip-path="url(#p4787dae073)" style="fill: none; stroke-dasharray: 2.22,0.96; stroke-dashoffset: 0; stroke: #6c6066; stroke-opacity: 0.4; stroke-width: 0.6"/>
     </g>
     <g id="line2d_14">
      <defs>
       <path id="mce042c3a80" d="M 0 0 
L -3.5 0 
" style="stroke: #000000; stroke-width: 0.8"/>
      </defs>
      <g>
       <use xlink:href="#mce042c3a80" x="58.032813" y="300.04" style="stroke: #000000; stroke-width: 0.8"/>
      </g>
     </g>
     <g id="text_8">
      <!-- 0.000 -->
      <g transform="translate(20.93125 303.865781) scale(0.1 -0.1)">
       <defs>
        <path id="DejaVuSansMono-2e" d="M 1528 953 
L 2316 953 
L 2316 0 
L 1528 0 
L 1528 953 
z
" transform="scale(0.015625)"/>
       </defs>
       <use xlink:href="#DejaVuSansMono-30"/>
       <use xlink:href="#DejaVuSansMono-2e" x="60.205078"/>
       <use xlink:href="#DejaVuSansMono-30" x="120.410156"/>
       <use xlink:href="#DejaVuSansMono-30" x="180.615234"/>
       <use xlink:href="#DejaVuSansMono-30" x="240.820312"/>
      </g>
     </g>
    </g>
    <g id="ytick_2">
     <g id="line2d_15">
      <path d="M 58.032813 248.862786 
L 443.960165 248.862786 
" clip-path="url(#p4787dae073)" style="fill: none; stroke-dasharray: 2.22,0.96; stroke-dashoffset: 0; stroke: #6c6066; stroke-opacity: 0.4; stroke-width: 0.6"/>
     </g>
     <g id="line2d_16">
      <g>
       <use xlink:href="#mce042c3a80" x="58.032813" y="248.862786" style="stroke: #000000; stroke-width: 0.8"/>
      </g>
     </g>
     <g id="text_9">
      <!-- 0.001 -->
      <g transform="translate(20.93125 252.688567) scale(0.1 -0.1)">
       <use xlink:href="#DejaVuSansMono-30"/>
       <use xlink:href="#DejaVuSansMono-2e" x="60.205078"/>
       <use xlink:href="#DejaVuSansMono-30" x="120.410156"/>
       <use xlink:href="#DejaVuSansMono-30" x="180.615234"/>
       <use xlink:href="#DejaVuSansMono-31" x="240.820312"/>
      </g>
     </g>
    </g>
    <g id="ytick_3">
     <g id="line2d_17">
      <path d="M 58.032813 197.685572 
L 443.960165 197.685572 
" clip-path="url(#p4787dae073)" style="fill: none; stroke-dasharray: 2.22,0.96; stroke-dashoffset: 0; stroke: #6c6066; stroke-opacity: 0.4; stroke-width: 0.6"/>
     </g>
     <g id="line2d_18">
      <g>
       <use xlink:href="#mce042c3a80" x="58.032813" y="197.685572" style="stroke: #000000; stroke-width: 0.8"/>
      </g>
     </g>
     <g id="text_10">
      <!-- 0.002 -->
      <g transform="translate(20.93125 201.511354) scale(0.1 -0.1)">
       <use xlink:href="#DejaVuSansMono-30"/>
       <use xlink:href="#DejaVuSansMono-2e" x="60.205078"/>
       <use xlink:href="#DejaVuSansMono-30" x="120.410156"/>
       <use xlink:href="#DejaVuSansMono-30" x="180.615234"/>
       <use xlink:href="#DejaVuSansMono-32" x="240.820312"/>
      </g>
     </g>
    </g>
    <g id="ytick_4">
     <g id="line2d_19">
      <path d="M 58.032813 146.508359 
L 443.960165 146.508359 
" clip-path="url(#p4787dae073)" style="fill: none; stroke-dasharray: 2.22,0.96; stroke-dashoffset: 0; stroke: #6c6066; stroke-opacity: 0.4; stroke-width: 0.6"/>
     </g>
     <g id="line2d_20">
      <g>
       <use xlink:href="#mce042c3a80" x="58.032813" y="146.508359" style="stroke: #000000; stroke-width: 0.8"/>
      </g>
     </g>
     <g id="text_11">
      <!-- 0.003 -->
      <g transform="translate(20.93125 150.33414) scale(0.1 -0.1)">
       <use xlink:href="#DejaVuSansMono-30"/>
       <use xlink:href="#DejaVuSansMono-2e" x="60.205078"/>
       <use xlink:href="#DejaVuSansMono-30" x="120.410156"/>
       <use xlink:href="#DejaVuSansMono-30" x="180.615234"/>
       <use xlink:href="#DejaVuSansMono-33" x="240.820312"/>
      </g>
     </g>
    </g>
    <g id="ytick_5">
     <g id="line2d_21">
      <path d="M 58.032813 95.331145 
L 443.960165 95.331145 
" clip-path="url(#p4787dae073)" style="fill: none; stroke-dasharray: 2.22,0.96; stroke-dashoffset: 0; stroke: #6c6066; stroke-opacity: 0.4; stroke-width: 0.6"/>
     </g>
     <g id="line2d_22">
      <g>
       <use xlink:href="#mce042c3a80" x="58.032813" y="95.331145" style="stroke: #000000; stroke-width: 0.8"/>
      </g>
     </g>
     <g id="text_12">
      <!-- 0.004 -->
      <g transform="translate(20.93125 99.156926) scale(0.1 -0.1)">
       <use xlink:href="#DejaVuSansMono-30"/>
       <use xlink:href="#DejaVuSansMono-2e" x="60.205078"/>
       <use xlink:href="#DejaVuSansMono-30" x="120.410156"/>
       <use xlink:href="#DejaVuSansMono-30" x="180.615234"/>
       <use xlink:href="#DejaVuSansMono-34" x="240.820312"/>
      </g>
     </g>
    </g>
    <g id="ytick_6">
     <g id="line2d_23">
      <path d="M 58.032813 44.153931 
L 443.960165 44.153931 
" clip-path="url(#p4787dae073)" style="fill: none; stroke-dasharray: 2.22,0.96; stroke-dashoffset: 0; stroke: #6c6066; stroke-opacity: 0.4; stroke-width: 0.6"/>
     </g>
     <g id="line2d_24">
      <g>
       <use xlink:href="#mce042c3a80" x="58.032813" y="44.153931" style="stroke: #000000; stroke-width: 0.8"/>
      </g>
     </g>
     <g id="text_13">
      <!-- 0.005 -->
      <g transform="translate(20.93125 47.979712) scale(0.1 -0.1)">
       <use xlink:href="#DejaVuSansMono-30"/>
       <use xlink:href="#DejaVuSansMono-2e" x="60.205078"/>
       <use xlink:href="#DejaVuSansMono-30" x="120.410156"/>
       <use xlink:href="#DejaVuSansMono-30" x="180.615234"/>
       <use xlink:href="#DejaVuSansMono-35" x="240.820312"/>
      </g>
     </g>
    </g>
    <g id="text_14">
     <!-- probability density -->
     <g transform="translate(14.851563 210.812969) rotate(-90) scale(0.1 -0.1)">
      <defs>
       <path id="DejaVuSansMono-6f" d="M 1925 3097 
Q 1488 3097 1263 2756 
Q 1038 2416 1038 1747 
Q 1038 1081 1263 739 
Q 1488 397 1925 397 
Q 2366 397 2591 739 
Q 2816 1081 2816 1747 
Q 2816 2416 2591 2756 
Q 2366 3097 1925 3097 
z
M 1925 3584 
Q 2653 3584 3039 3112 
Q 3425 2641 3425 1747 
Q 3425 850 3040 379 
Q 2656 -91 1925 -91 
Q 1197 -91 812 379 
Q 428 850 428 1747 
Q 428 2641 812 3112 
Q 1197 3584 1925 3584 
z
" transform="scale(0.015625)"/>
       <path id="DejaVuSansMono-62" d="M 2869 1747 
Q 2869 2416 2656 2756 
Q 2444 3097 2028 3097 
Q 1609 3097 1393 2755 
Q 1178 2413 1178 1747 
Q 1178 1084 1393 740 
Q 1609 397 2028 397 
Q 2444 397 2656 737 
Q 2869 1078 2869 1747 
z
M 1178 3053 
Q 1316 3309 1558 3446 
Q 1800 3584 2119 3584 
Q 2750 3584 3112 3098 
Q 3475 2613 3475 1759 
Q 3475 894 3111 401 
Q 2747 -91 2113 -91 
Q 1800 -91 1561 45 
Q 1322 181 1178 441 
L 1178 0 
L 603 0 
L 603 4863 
L 1178 4863 
L 1178 3053 
z
" transform="scale(0.015625)"/>
       <path id="DejaVuSansMono-61" d="M 2194 1759 
L 2003 1759 
Q 1500 1759 1245 1582 
Q 991 1406 991 1056 
Q 991 741 1181 566 
Q 1372 391 1709 391 
Q 2184 391 2456 720 
Q 2728 1050 2731 1631 
L 2731 1759 
L 2194 1759 
z
M 3309 1997 
L 3309 0 
L 2731 0 
L 2731 519 
Q 2547 206 2267 57 
Q 1988 -91 1588 -91 
Q 1053 -91 734 211 
Q 416 513 416 1019 
Q 416 1603 808 1906 
Q 1200 2209 1959 2209 
L 2731 2209 
L 2731 2300 
Q 2728 2719 2518 2908 
Q 2309 3097 1850 3097 
Q 1556 3097 1256 3012 
Q 956 2928 672 2766 
L 672 3341 
Q 991 3463 1283 3523 
Q 1575 3584 1850 3584 
Q 2284 3584 2592 3456 
Q 2900 3328 3091 3072 
Q 3209 2916 3259 2686 
Q 3309 2456 3309 1997 
z
" transform="scale(0.015625)"/>
       <path id="DejaVuSansMono-6c" d="M 1997 1269 
Q 1997 881 2139 684 
Q 2281 488 2559 488 
L 3231 488 
L 3231 0 
L 2503 0 
Q 1988 0 1705 331 
Q 1422 663 1422 1269 
L 1422 4447 
L 500 4447 
L 500 4897 
L 1997 4897 
L 1997 1269 
z
" transform="scale(0.015625)"/>
       <path id="DejaVuSansMono-74" d="M 1919 4494 
L 1919 3500 
L 3225 3500 
L 3225 3053 
L 1919 3053 
L 1919 1153 
Q 1919 766 2066 612 
Q 2213 459 2578 459 
L 3225 459 
L 3225 0 
L 2522 0 
Q 1875 0 1609 259 
Q 1344 519 1344 1153 
L 1344 3053 
L 409 3053 
L 409 3500 
L 1344 3500 
L 1344 4494 
L 1919 4494 
z
" transform="scale(0.015625)"/>
       <path id="DejaVuSansMono-79" d="M 2681 1125 
Q 2538 759 2316 163 
Q 2006 -663 1900 -844 
Q 1756 -1088 1540 -1209 
Q 1325 -1331 1038 -1331 
L 575 -1331 
L 575 -850 
L 916 -850 
Q 1169 -850 1312 -703 
Q 1456 -556 1678 56 
L 325 3500 
L 934 3500 
L 1972 763 
L 2994 3500 
L 3603 3500 
L 2681 1125 
z
" transform="scale(0.015625)"/>
       <path id="DejaVuSansMono-20" transform="scale(0.015625)"/>
       <path id="DejaVuSansMono-64" d="M 2681 3053 
L 2681 4863 
L 3256 4863 
L 3256 0 
L 2681 0 
L 2681 441 
Q 2538 181 2298 45 
Q 2059 -91 1747 -91 
Q 1113 -91 748 401 
Q 384 894 384 1759 
Q 384 2613 750 3098 
Q 1116 3584 1747 3584 
Q 2063 3584 2303 3448 
Q 2544 3313 2681 3053 
z
M 991 1747 
Q 991 1078 1203 737 
Q 1416 397 1831 397 
Q 2247 397 2464 740 
Q 2681 1084 2681 1747 
Q 2681 2413 2464 2755 
Q 2247 3097 1831 3097 
Q 1416 3097 1203 2756 
Q 991 2416 991 1747 
z
" transform="scale(0.015625)"/>
       <path id="DejaVuSansMono-6e" d="M 3284 2169 
L 3284 0 
L 2706 0 
L 2706 2169 
Q 2706 2641 2540 2862 
Q 2375 3084 2022 3084 
Q 1619 3084 1401 2798 
Q 1184 2513 1184 1978 
L 1184 0 
L 609 0 
L 609 3500 
L 1184 3500 
L 1184 2975 
Q 1338 3275 1600 3429 
Q 1863 3584 2222 3584 
Q 2756 3584 3020 3232 
Q 3284 2881 3284 2169 
z
" transform="scale(0.015625)"/>
       <path id="DejaVuSansMono-73" d="M 3041 3378 
L 3041 2816 
Q 2794 2959 2544 3031 
Q 2294 3103 2034 3103 
Q 1644 3103 1451 2976 
Q 1259 2850 1259 2591 
Q 1259 2356 1403 2240 
Q 1547 2125 2119 2016 
L 2350 1972 
Q 2778 1891 2998 1647 
Q 3219 1403 3219 1013 
Q 3219 494 2850 201 
Q 2481 -91 1825 -91 
Q 1566 -91 1281 -36 
Q 997 19 666 128 
L 666 722 
Q 988 556 1281 473 
Q 1575 391 1838 391 
Q 2219 391 2428 545 
Q 2638 700 2638 978 
Q 2638 1378 1872 1531 
L 1847 1538 
L 1631 1581 
Q 1134 1678 906 1908 
Q 678 2138 678 2534 
Q 678 3038 1018 3311 
Q 1359 3584 1991 3584 
Q 2272 3584 2531 3532 
Q 2791 3481 3041 3378 
z
" transform="scale(0.015625)"/>
      </defs>
      <use xlink:href="#DejaVuSansMono-70"/>
      <use xlink:href="#DejaVuSansMono-72" x="60.205078"/>
      <use xlink:href="#DejaVuSansMono-6f" x="120.410156"/>
      <use xlink:href="#DejaVuSansMono-62" x="180.615234"/>
      <use xlink:href="#DejaVuSansMono-61" x="240.820312"/>
      <use xlink:href="#DejaVuSansMono-62" x="301.025391"/>
      <use xlink:href="#DejaVuSansMono-69" x="361.230469"/>
      <use xlink:href="#DejaVuSansMono-6c" x="421.435547"/>
      <use xlink:href="#DejaVuSansMono-69" x="481.640625"/>
      <use xlink:href="#DejaVuSansMono-74" x="541.845703"/>
      <use xlink:href="#DejaVuSansMono-79" x="602.050781"/>
      <use xlink:href="#DejaVuSansMono-20" x="662.255859"/>
      <use xlink:href="#DejaVuSansMono-64" x="722.460938"/>
      <use xlink:href="#DejaVuSansMono-65" x="782.666016"/>
      <use xlink:href="#DejaVuSansMono-6e" x="842.871094"/>
      <use xlink:href="#DejaVuSansMono-73" x="903.076172"/>
      <use xlink:href="#DejaVuSansMono-69" x="963.28125"/>
      <use xlink:href="#DejaVuSansMono-74" x="1023.486328"/>
      <use xlink:href="#DejaVuSansMono-79" x="1083.691406"/>
     </g>
    </g>
   </g>
   <g id="line2d_25">
    <path d="M 18.694239 300.030643 
L 28.228173 299.939601 
L 32.99514 299.764824 
L 37.762107 299.36182 
L 40.145591 299.013382 
L 42.529074 298.520247 
L 44.912558 297.836782 
L 47.296041 296.907777 
L 49.679525 295.667798 
L 52.063008 294.041031 
L 54.446492 291.941911 
L 56.829975 289.276842 
L 59.213459 285.947304 
L 61.596942 281.854475 
L 63.980426 276.905297 
L 66.363909 271.019678 
L 68.747393 264.138188 
L 71.130876 256.229442 
L 73.51436 247.296174 
L 75.897843 237.379036 
L 78.281327 226.557321 
L 80.66481 214.946128 
L 85.431778 189.953724 
L 97.349195 124.89059 
L 102.116162 100.703155 
L 104.499646 89.367588 
L 106.883129 78.62572 
L 109.266613 68.545941 
L 111.650096 59.204142 
L 114.03358 50.685306 
L 116.417063 43.081903 
L 118.800547 36.489108 
L 121.18403 30.997279 
L 123.567514 26.682511 
L 125.950997 23.596536 
L 128.334481 21.757643 
L 130.717965 21.144473 
L 133.101448 21.694312 
L 135.484932 23.306745 
L 137.868415 25.852368 
L 140.251899 29.18502 
L 142.635382 33.155144 
L 145.018866 37.621745 
L 147.402349 42.461055 
L 152.169316 52.873135 
L 159.319767 69.449371 
L 166.470217 86.661072 
L 178.387635 115.993058 
L 180.771119 121.528121 
L 183.154602 126.755221 
L 185.538086 131.5996 
L 187.921569 136.018525 
L 190.305053 140.01308 
L 192.688536 143.633037 
L 197.455503 150.160451 
L 202.22247 156.633114 
L 204.605954 160.15509 
L 206.989437 163.961129 
L 209.372921 168.057258 
L 214.139888 176.890783 
L 218.906855 185.852198 
L 221.290339 190.066314 
L 223.673822 193.960364 
L 226.057306 197.466925 
L 228.440789 200.558796 
L 230.824273 203.250215 
L 233.207756 205.593116 
L 235.59124 207.669105 
L 245.125174 215.294754 
L 247.508657 217.435142 
L 252.275624 222.16198 
L 259.426075 229.559736 
L 261.809559 231.806769 
L 264.193042 233.846563 
L 266.576526 235.660621 
L 268.960009 237.262163 
L 273.726976 240.007189 
L 280.877427 243.876081 
L 285.644394 246.761392 
L 297.561811 254.375543 
L 299.945295 255.682025 
L 302.328778 256.849612 
L 304.712262 257.869346 
L 307.095746 258.744686 
L 311.862713 260.135603 
L 323.78013 263.068536 
L 328.547097 264.558021 
L 335.697548 266.845255 
L 338.081031 267.465951 
L 340.464515 267.963187 
L 342.847998 268.328806 
L 347.614965 268.738714 
L 352.381933 269.024924 
L 354.765416 269.271459 
L 357.1489 269.661689 
L 359.532383 270.233433 
L 361.915867 271.002638 
L 364.29935 271.961148 
L 369.066317 274.305381 
L 376.216768 278.054179 
L 378.600251 279.145672 
L 380.983735 280.096204 
L 383.367218 280.890732 
L 385.750702 281.527679 
L 388.134185 282.015512 
L 390.517669 282.36838 
L 395.284636 282.727501 
L 400.051603 282.676294 
L 402.435087 282.490692 
L 404.81857 282.183745 
L 407.202054 281.743197 
L 409.585537 281.162278 
L 414.352504 279.615058 
L 421.502955 276.949491 
L 423.886438 276.256707 
L 426.269922 275.807072 
L 428.653405 275.678781 
L 431.036889 275.929994 
L 433.420372 276.591094 
L 435.803856 277.660398 
L 438.187339 279.103947 
L 440.570823 280.85934 
L 445.33779 284.959 
L 450.104757 289.205647 
L 453.623431 292.016476 
L 453.623431 292.016476 
" clip-path="url(#p4787dae073)" style="fill: none; stroke: #486afb; stroke-width: 2; stroke-linecap: square"/>
   </g>
   <g id="line2d_26">
    <path d="M 55.217813 246.047485 
L 63.406917 237.00446 
L 71.59602 227.190655 
L 79.785124 216.699889 
L 87.974227 205.662006 
L 96.163331 194.242437 
L 104.352434 182.6398 
L 112.541538 171.081416 
L 120.730641 159.816784 
L 128.919745 149.109211 
L 137.108848 139.225942 
L 145.297952 130.427275 
L 153.487055 122.955276 
L 161.676159 117.022754 
L 169.865263 112.803212 
L 178.054366 110.42242 
L 186.24347 109.95219 
L 194.432573 111.406778 
L 202.621677 114.742164 
L 210.81078 119.858265 
L 218.999884 126.603928 
L 227.188987 134.78434 
L 235.378091 144.170369 
L 243.567194 154.509198 
L 251.756298 165.535571 
L 259.945401 176.98295 
L 268.134505 188.593955 
L 276.323609 200.129513 
L 284.512712 211.376323 
L 292.701816 222.152342 
L 300.890919 232.310197 
L 309.080023 241.738568 
L 317.269126 250.361682 
L 325.45823 258.137224 
L 333.647333 265.05298 
L 341.836437 271.122592 
L 350.02554 276.380802 
L 358.214644 280.878525 
L 366.403747 284.678059 
L 374.592851 287.848659 
L 382.781955 290.462655 
L 390.971058 292.592216 
L 399.160162 294.306798 
L 407.349265 295.671266 
L 415.538369 296.744644 
L 423.727472 297.579422 
L 431.916576 298.221303 
L 440.105679 298.709326 
L 448.294783 299.076234 
L 453.623431 299.253742 
" clip-path="url(#p4787dae073)" style="fill: none; stroke: #fd46fc; stroke-width: 2; stroke-linecap: square"/>
   </g>
   <g id="patch_3">
    <path d="M 58.032813 300.04 
L 58.032813 7.2 
" style="fill: none; stroke: #000000; stroke-width: 0.6; stroke-linejoin: miter; stroke-linecap: square"/>
   </g>
   <g id="patch_4">
    <path d="M 58.032813 300.04 
L 443.960165 300.04 
" style="fill: none; stroke: #000000; stroke-width: 0.6; stroke-linejoin: miter; stroke-linecap: square"/>
   </g>
   <g id="legend_1">
    <g id="patch_5">
     <path d="M 296.59454 44.6625 
L 436.960165 44.6625 
Q 438.960165 44.6625 438.960165 42.6625 
L 438.960165 14.2 
Q 438.960165 12.2 436.960165 12.2 
L 296.59454 12.2 
Q 294.59454 12.2 294.59454 14.2 
L 294.59454 42.6625 
Q 294.59454 44.6625 296.59454 44.6625 
z
" style="fill: #ffffff; opacity: 0.8; stroke: #333333; stroke-width: 0.2; stroke-linejoin: miter"/>
    </g>
    <g id="line2d_27">
     <path d="M 298.59454 20.351562 
L 308.59454 20.351562 
L 318.59454 20.351562 
" style="fill: none; stroke: #486afb; stroke-width: 2; stroke-linecap: square"/>
    </g>
    <g id="text_15">
     <!-- estimated data PDF -->
     <g transform="translate(326.59454 23.851562) scale(0.1 -0.1)">
      <defs>
       <path id="DejaVuSansMono-6d" d="M 2113 3144 
Q 2219 3369 2383 3476 
Q 2547 3584 2778 3584 
Q 3200 3584 3373 3257 
Q 3547 2931 3547 2028 
L 3547 0 
L 3022 0 
L 3022 2003 
Q 3022 2744 2939 2923 
Q 2856 3103 2638 3103 
Q 2388 3103 2295 2911 
Q 2203 2719 2203 2003 
L 2203 0 
L 1678 0 
L 1678 2003 
Q 1678 2753 1589 2928 
Q 1500 3103 1269 3103 
Q 1041 3103 952 2911 
Q 863 2719 863 2003 
L 863 0 
L 341 0 
L 341 3500 
L 863 3500 
L 863 3200 
Q 966 3388 1120 3486 
Q 1275 3584 1472 3584 
Q 1709 3584 1867 3475 
Q 2025 3366 2113 3144 
z
" transform="scale(0.015625)"/>
       <path id="DejaVuSansMono-50" d="M 1247 4147 
L 1247 2394 
L 1978 2394 
Q 2416 2394 2661 2625 
Q 2906 2856 2906 3272 
Q 2906 3688 2662 3917 
Q 2419 4147 1978 4147 
L 1247 4147 
z
M 616 4666 
L 1978 4666 
Q 2759 4666 3162 4311 
Q 3566 3956 3566 3272 
Q 3566 2581 3164 2228 
Q 2763 1875 1978 1875 
L 1247 1875 
L 1247 0 
L 616 0 
L 616 4666 
z
" transform="scale(0.015625)"/>
       <path id="DejaVuSansMono-44" d="M 1363 519 
Q 2159 519 2475 911 
Q 2791 1303 2791 2328 
Q 2791 3363 2477 3755 
Q 2163 4147 1363 4147 
L 1063 4147 
L 1063 519 
L 1363 519 
z
M 1375 4666 
Q 2444 4666 2950 4097 
Q 3456 3528 3456 2328 
Q 3456 1134 2950 567 
Q 2444 0 1375 0 
L 428 0 
L 428 4666 
L 1375 4666 
z
" transform="scale(0.015625)"/>
       <path id="DejaVuSansMono-46" d="M 728 4666 
L 3475 4666 
L 3475 4134 
L 1363 4134 
L 1363 2759 
L 3278 2759 
L 3278 2228 
L 1363 2228 
L 1363 0 
L 728 0 
L 728 4666 
z
" transform="scale(0.015625)"/>
      </defs>
      <use xlink:href="#DejaVuSansMono-65"/>
      <use xlink:href="#DejaVuSansMono-73" x="60.205078"/>
      <use xlink:href="#DejaVuSansMono-74" x="120.410156"/>
      <use xlink:href="#DejaVuSansMono-69" x="180.615234"/>
      <use xlink:href="#DejaVuSansMono-6d" x="240.820312"/>
      <use xlink:href="#DejaVuSansMono-61" x="301.025391"/>
      <use xlink:href="#DejaVuSansMono-74" x="361.230469"/>
      <use xlink:href="#DejaVuSansMono-65" x="421.435547"/>
      <use xlink:href="#DejaVuSansMono-64" x="481.640625"/>
      <use xlink:href="#DejaVuSansMono-20" x="541.845703"/>
      <use xlink:href="#DejaVuSansMono-64" x="602.050781"/>
      <use xlink:href="#DejaVuSansMono-61" x="662.255859"/>
      <use xlink:href="#DejaVuSansMono-74" x="722.460938"/>
      <use xlink:href="#DejaVuSansMono-61" x="782.666016"/>
      <use xlink:href="#DejaVuSansMono-20" x="842.871094"/>
      <use xlink:href="#DejaVuSansMono-50" x="903.076172"/>
      <use xlink:href="#DejaVuSansMono-44" x="963.28125"/>
      <use xlink:href="#DejaVuSansMono-46" x="1023.486328"/>
     </g>
    </g>
    <g id="line2d_28">
     <path d="M 298.59454 35.082812 
L 308.59454 35.082812 
L 318.59454 35.082812 
" style="fill: none; stroke: #fd46fc; stroke-width: 2; stroke-linecap: square"/>
    </g>
    <g id="text_16">
     <!-- normal PDF -->
     <g transform="translate(326.59454 38.582812) scale(0.1 -0.1)">
      <use xlink:href="#DejaVuSansMono-6e"/>
      <use xlink:href="#DejaVuSansMono-6f" x="60.205078"/>
      <use xlink:href="#DejaVuSansMono-72" x="120.410156"/>
      <use xlink:href="#DejaVuSansMono-6d" x="180.615234"/>
      <use xlink:href="#DejaVuSansMono-61" x="240.820312"/>
      <use xlink:href="#DejaVuSansMono-6c" x="301.025391"/>
      <use xlink:href="#DejaVuSansMono-20" x="361.230469"/>
      <use xlink:href="#DejaVuSansMono-50" x="421.435547"/>
      <use xlink:href="#DejaVuSansMono-44" x="481.640625"/>
      <use xlink:href="#DejaVuSansMono-46" x="541.845703"/>
     </g>
    </g>
   </g>
  </g>
 </g>
 <defs>
  <clipPath id="p4787dae073">
   <rect x="58.032813" y="7.2" width="385.927353" height="292.84"/>
  </clipPath>
 </defs>
</svg>