<svg id="Layer_1" data-name="Layer 1" xmlns="http://www.w3.org/2000/svg" viewBox="0 0 132.26 155.75"><defs><style>.cls-1{fill:#486afb;}.cls-2{fill:#fd46fc;}</style></defs><path class="cls-1" d="M2.47,44.83c.07,1.67.11,3.34.17,5a25,25,0,0,0,.4,5c.17.72,1.11.45,1.2-.16a24.62,24.62,0,0,0,0-4.93C4.1,48.1,4,46.46,3.93,44.82c0-.94-1.5-.91-1.46,0Z"/><path class="cls-1" d="M1,64c.68-.36,2.27-1.08,2.71,0s-.57,2.13-.94,3a2.92,2.92,0,0,0,.35,3.31c1,1,2.25.38,3.33-.06a.59.59,0,0,0,0-1.14c-.64-.22-1.17.15-1.8.18-.35,0-.49-.21-.59-.48-.36-1,.63-2.19.93-3.17a2.6,2.6,0,0,0-1-3.23,3.87,3.87,0,0,0-3.65.47A.64.64,0,0,0,1,64Z"/><path class="cls-1" d="M2.86,83.28a2.62,2.62,0,0,1,2.91.11l-.13-1L4.27,83.62a3.54,3.54,0,0,0-1.12,1.31c-.4,1.2,1,1.82,1.71,2.49.22.2.87.69.8,1s-.55.53-.8.64a4.64,4.64,0,0,1-1.43.27,3.57,3.57,0,0,0-1.63.22.6.6,0,0,0-.14.94,2.74,2.74,0,0,0,1.74.35,5.3,5.3,0,0,0,1.72-.28c1-.38,2.25-1.33,1.93-2.61a3.57,3.57,0,0,0-1-1.44,15.1,15.1,0,0,0-1.35-1.17s-.15-.11-.17-.16,0,.11,0,0a4.61,4.61,0,0,1,.57-.6l1.4-1.4a.65.65,0,0,0-.13-1,4,4,0,0,0-4.15,0c-.64.41-.07,1.41.58,1Z"/><path class="cls-1" d="M4.32,102.6a35.51,35.51,0,0,1-.38,3.72c-.1.6-.19,1.2-.29,1.8a4.45,4.45,0,0,0-.14,1.95.49.49,0,0,0,.81.2,3.77,3.77,0,0,0,.76-1.79c.16-.65.29-1.32.39-2,.18-1.3.3-2.6.36-3.91,0-1-1.47-.93-1.51,0Z"/><path class="cls-1" d="M3.85,106a5.38,5.38,0,0,0-1.69-.18,5.31,5.31,0,0,0-.89.13,2.48,2.48,0,0,0-.35.13l-.31.13c.1,0-.09,0-.1,0l.74,1A5.46,5.46,0,0,0,1.7,106,8.15,8.15,0,0,0,2,104.91c.07-.41.12-.83.15-1.25s.12-1.08-.3-1.4a.74.74,0,0,0-1,0,1,1,0,0,0-.3.78v.54a10,10,0,0,1-.08,1.09s0,.27,0,.15c0,.09,0,.17,0,.26s-.06.35-.1.53c-.08.35-.2.7-.26,1.07a.65.65,0,0,0,.23.69.7.7,0,0,0,.75,0c-.07,0,0,0,.07,0l.18,0s.11,0,0,0l.29,0h.07l.15,0,.36,0a5,5,0,0,1,.67,0c.23,0-.07,0,.07,0l.18,0,.36.08a.77.77,0,0,0,.92-.53.72.72,0,0,0-.51-.89Z"/><path class="cls-1" d="M3.25,120.48a5.88,5.88,0,0,0-1.29.85,1.8,1.8,0,0,0-.83,1.51c.13,1.06,1.4,1.57,2.27,1.87.69.25,1.62.47,2,1.19s-.8,1-1.29,1.14a1.87,1.87,0,0,1-1.28-.11,4.14,4.14,0,0,1-1-.81.51.51,0,0,0-.83.24c-.33,1.11.82,2.06,1.81,2.24a4.16,4.16,0,0,0,3.32-1,2.1,2.1,0,0,0,.24-2.85,3.42,3.42,0,0,0-1.23-1.07c-.43-.22-.91-.37-1.35-.55a5.91,5.91,0,0,1-.71-.36,1.68,1.68,0,0,1-.21-.18l-.14-.14s0,.36,0,.37.48-.45.56-.51a5.24,5.24,0,0,1,.76-.45.82.82,0,0,0,.32-1.12.84.84,0,0,0-1.13-.28Z"/><path class="cls-1" d="M4.89,121.68a10.14,10.14,0,0,0,1.46,0,8.08,8.08,0,0,0,.86-.11,1.91,1.91,0,0,0,.52-.14l.33-.15a.71.71,0,0,0,.33-.77.7.7,0,0,0-.66-.5H7.61l-.25,0L7,120l-.7,0a9.49,9.49,0,0,1-1.41,0,.92.92,0,0,0-.61.26.85.85,0,0,0-.25.58.77.77,0,0,0,.24.59,1,1,0,0,0,.59.23Z"/><path class="cls-1" d="M1.69,139.72a10.41,10.41,0,0,0-.08,4.71,4.37,4.37,0,0,0,2.69,3.06,2.59,2.59,0,0,0,2.16-.2,2.2,2.2,0,0,0,1-1.74,2.34,2.34,0,0,0-2.37-2.14,3.11,3.11,0,0,0-2,.63,5.65,5.65,0,0,0-.95.81A1.82,1.82,0,0,0,1.51,146a.63.63,0,0,0,.8.61c.56-.15.86-.72,1.25-1.11a3.08,3.08,0,0,1,1.07-.76c.57-.2,1.43,0,1.5.66a.79.79,0,0,1-.43.68,1.21,1.21,0,0,1-1.17,0,3.24,3.24,0,0,1-1.65-2.17,9.23,9.23,0,0,1,0-3.88.62.62,0,0,0-.43-.75.65.65,0,0,0-.78.44Z"/><path class="cls-1" d="M21.75,25.61c.11,1.09.2,2.19.33,3.28A15.73,15.73,0,0,0,22.65,32a.57.57,0,0,0,1.12-.15,14.88,14.88,0,0,0-.07-3.13c-.09-1.05-.21-2.09-.32-3.14a.8.8,0,0,0-.8-.79.83.83,0,0,0-.83.81Z"/><path class="cls-1" d="M40.53,26.7c.45-.3,1.1-.79,1.63-.65a.56.56,0,0,1,.37.27s0,0,0,.12a1.48,1.48,0,0,1-.17.41l-2.28,4.4a.79.79,0,0,0,.29,1.09A4.81,4.81,0,0,0,45,32.2a.69.69,0,0,0,.3-.85.67.67,0,0,0-.8-.39,4.58,4.58,0,0,1-3.32,0L41.47,32l1.4-2.81.67-1.35a3.52,3.52,0,0,0,.52-1.45,1.87,1.87,0,0,0-1.59-1.79,3.53,3.53,0,0,0-2.64.85.74.74,0,0,0-.28,1,.73.73,0,0,0,1,.25Z"/><path class="cls-1" d="M59.88,26a8.38,8.38,0,0,1,3.92.07l-.3-1.15a9.47,9.47,0,0,1-3.26,2.19.77.77,0,0,0,0,1.33,20.82,20.82,0,0,1,1.91,1.07c.31.19.62.39.92.61a2.44,2.44,0,0,1,.32.26.15.15,0,0,1,0,.08s0,.07-.1.18l-.22.2a2.4,2.4,0,0,1-.74.34,10.19,10.19,0,0,1-2,.23.75.75,0,0,0-.67.5.67.67,0,0,0,.31.75,3.7,3.7,0,0,0,2.9,0A3,3,0,0,0,65,30.85c.29-1.12-.59-1.77-1.41-2.31A21.84,21.84,0,0,0,61,27.12v1.33a10.7,10.7,0,0,0,3.48-2.55.69.69,0,0,0-.3-1.15,9.93,9.93,0,0,0-4.6.05.63.63,0,0,0,.3,1.22Z"/><path class="cls-1" d="M81.62,26.9c-.37,1.29-.71,2.58-1,3.88-.15.64-.3,1.28-.43,1.92-.06.33-.14.67-.18,1a1.23,1.23,0,0,0,.22,1.08.6.6,0,0,0,.73.08c.6-.36.63-1.23.76-1.85s.27-1.28.41-1.92c.29-1.29.6-2.56.93-3.83a.73.73,0,0,0-1.42-.36Z"/><path class="cls-1" d="M80.64,29.83l-1.72-.27-.77-.12a3.74,3.74,0,0,1-.74-.15c.2.08-.07-.06,0,0l0,0c-.07-.07-.06-.07,0,0s-.07-.17,0,0l0-.13,0-.13c0,.15,0,0,0,0s0-.32,0-.47c0-.56,0-1.11,0-1.66a3.36,3.36,0,0,0-.1-.9.64.64,0,0,0-.95-.46,1.18,1.18,0,0,0-.44.87,7.61,7.61,0,0,0-.09,1c0,.56,0,1.12,0,1.67a1.81,1.81,0,0,0,.56,1.53,3.84,3.84,0,0,0,1.89.54l1.9.3a.88.88,0,0,0,1-.6.83.83,0,0,0-.58-1Z"/><path class="cls-1" d="M98.59,25.21a1.22,1.22,0,0,0-1.14,1.31,2,2,0,0,0,1.15,1.56,2.93,2.93,0,0,1,.65.47c.07.08,0-.07,0,0l.06.08c.07.11,0,0,0,.07s0,0,0,0,0,.11,0,.05,0,0,0,0,0,0,0,.06l-.06.08s.06-.07,0,0a.75.75,0,0,1-.15.16.8.8,0,0,1-.13.13h0l-.1.07a1.9,1.9,0,0,1-.34.2,1.63,1.63,0,0,0-.19.09c.15-.08,0,0-.1,0a3.28,3.28,0,0,1-.45.11h-.08c-.14,0,0,0,0,0h-.55s-.15,0,0,0l-.48-.08a.57.57,0,0,0-.6.25.51.51,0,0,0,.08.63,3,3,0,0,0,3.78-.24,1.94,1.94,0,0,0,.75-2c-.27-.75-1-1.06-1.59-1.43a1.14,1.14,0,0,1-.34-.26s-.07-.07,0,0-.05-.08-.05-.09,0,0,0-.07,0,.08,0,0,0-.12,0-.06,0,0,0,0,0,.08,0,0,0-.1,0,0,0,0,0,0,0,0,0,0-.19,0-.07,0a.62.62,0,0,0,.59-.58.57.57,0,0,0-.57-.56Z"/><path class="cls-1" d="M99,26.43a11.09,11.09,0,0,0,2.63-.41,8.32,8.32,0,0,0,1.29-.48,5.44,5.44,0,0,0,1.16-.74c.51-.42,0-1.24-.62-1.07s-1.47.51-2.23.7a9.32,9.32,0,0,1-2.19.34.88.88,0,0,0-.86.84.82.82,0,0,0,.82.82Z"/><path class="cls-1" d="M116.6,25.61a9.17,9.17,0,0,0,.4,5,4.43,4.43,0,0,0,3.13,2.65,3.71,3.71,0,0,0,2.23-.27,2.79,2.79,0,0,0,1.45-1.67,2,2,0,0,0-.42-2,3,3,0,0,0-1.88-.81,4.33,4.33,0,0,0-2.34.5c-.68.35-1.73,1.11-1.69,2a.65.65,0,0,0,1,.55c.46-.23.73-.79,1.14-1.09a3,3,0,0,1,1.31-.56c.61-.1,2,.18,1.58,1.05a1.57,1.57,0,0,1-.2.25.65.65,0,0,1-.19.14,1.87,1.87,0,0,1-.31.17l-.16.08-.08,0a2.1,2.1,0,0,1-1.24.05,2.36,2.36,0,0,1-1.1-.63,3.82,3.82,0,0,1-.85-1.29,8.42,8.42,0,0,1-.22-4.15.75.75,0,0,0-.76-.75.81.81,0,0,0-.78.77Z"/><path class="cls-1" d="M11.8,38.67q23.48.45,46.93.3t46.68-.46q6.5-.09,13-.23c4.4-.09,8.83-.32,13.23-.15.83,0,.86-1.35,0-1.28-3.89.32-7.82.3-11.73.36l-11.73.17q-11.73.18-23.46.27c-15.56.15-31.12.09-46.68.05l-26.22,0a.51.51,0,0,0,0,1Z"/><path class="cls-1" d="M12.09,36.35c0,7.75.28,15.49.31,23.23s.1,15.49.22,23.23,0,15.49.06,23.23-.08,15.48-.09,23.23c0,4.33.06,8.65.1,13,0,2.12.07,4.24.1,6.36s-.07,4.42.11,6.62a.54.54,0,0,0,1.07,0c.16-2,.07-4,.07-6s0-3.83.07-5.75c.06-3.83.09-7.66.05-11.49s-.06-7.83-.1-11.74-.16-7.66-.2-11.49c-.15-15.48-.14-31-.2-46.45,0-8.66.15-17.32,0-26a.78.78,0,0,0-1.55,0Z"/><path class="cls-2" d="M16.57,44.81a7.84,7.84,0,0,0-1.07,4,6.68,6.68,0,0,0,.32,2,3.78,3.78,0,0,0,1.06,1.85.57.57,0,0,0,.94-.54,17.74,17.74,0,0,0-.53-1.71,8.31,8.31,0,0,1-.24-1.65,6.31,6.31,0,0,1,.72-3.3.69.69,0,0,0-1.2-.66Z"/><path class="cls-2" d="M19.72,46.48c.11,1,.23,2,.41,3.05A6.52,6.52,0,0,0,21,52.44c.22.29.76.1.83-.23a4.48,4.48,0,0,0-.09-1.59c-.09-.47-.19-.93-.28-1.4q-.29-1.45-.51-2.91c-.11-.7-1.33-.53-1.25.17Z"/><path class="cls-2" d="M23.15,52.7l.17.64.08.31a2.09,2.09,0,0,0,.19.4.47.47,0,0,0,.52.2.48.48,0,0,0,.35-.44,2.07,2.07,0,0,0,0-.43l-.09-.32-.16-.64a.52.52,0,0,0-.65-.37.55.55,0,0,0-.39.65Z"/><path class="cls-2" d="M24.71,47.39c.21.82.42,1.63.64,2.44.11.4.22.79.34,1.19a4.89,4.89,0,0,0,.47,1.22A.44.44,0,0,0,27,52a5.19,5.19,0,0,0-.21-1.24c-.1-.41-.22-.82-.34-1.24-.22-.8-.47-1.61-.7-2.41a.52.52,0,0,0-1,.26Z"/><path class="cls-2" d="M26.24,45.87A4.5,4.5,0,0,1,28,48.73a7,7,0,0,1-.62,3.78.36.36,0,0,0,.61.34,5.69,5.69,0,0,0-1.09-7.8.52.52,0,1,0-.63.82Z"/><path class="cls-2" d="M37.05,45.17a11.06,11.06,0,0,0-1.59,4.67c-.05,1.3.37,3.24,1.71,3.8.53.23,1.28-.3.91-.9a9.35,9.35,0,0,1-.93-1.47,4,4,0,0,1-.27-1.56,9.5,9.5,0,0,1,1.23-4,.6.6,0,0,0-1.06-.58Z"/><path class="cls-2" d="M38.59,47.88c.12,1,.24,1.92.37,2.87.06.48.13,1,.2,1.44a4.56,4.56,0,0,0,.35,1.41.51.51,0,0,0,.92-.13,4.73,4.73,0,0,0-.06-1.5c-.07-.49-.13-1-.21-1.48-.15-1-.31-1.94-.46-2.91a.57.57,0,0,0-.69-.4.6.6,0,0,0-.42.7Z"/><path class="cls-2" d="M41.82,53.28l.08.43a1.17,1.17,0,0,0,.05.2l.08.21a.39.39,0,0,0,.19.26.52.52,0,0,0,.27,0,.44.44,0,0,0,.38-.42v-.22c0-.11,0-.22,0-.33L42.8,53a.31.31,0,0,0-.09-.18.35.35,0,0,0-.14-.13.5.5,0,0,0-.38,0,.55.55,0,0,0-.32.24.53.53,0,0,0,0,.37Z"/><path class="cls-2" d="M43,47.62a8.34,8.34,0,0,1,1.09-.29c.21,0,.53,0,.6.27s-.2.64-.35.86a9.34,9.34,0,0,0-.57,1,2.52,2.52,0,0,0-.31,1.17,1.35,1.35,0,0,0,.65,1.08,3.42,3.42,0,0,0,1.1.33,3.23,3.23,0,0,0,1.31.07.47.47,0,0,0,.13-.86,6.86,6.86,0,0,0-1.29-.38,4,4,0,0,1-.43-.16l-.18-.09c-.07,0-.08,0,0,0l-.09-.09c0,.05,0,0,0,0v-.17a2.09,2.09,0,0,1,.16-.54,7.6,7.6,0,0,1,.49-1c.35-.68.54-1.59-.25-2s-1.47,0-2.2.19a.37.37,0,0,0,.19.72Z"/><path class="cls-2" d="M45.38,45.86a4.23,4.23,0,0,1,1.82,3.33,4,4,0,0,1-.45,2c-.37.73-.93,1.38-1.25,2.13a.51.51,0,0,0,.81.6,5.82,5.82,0,0,0,1.61-2.35A5.42,5.42,0,0,0,48.29,49a5.64,5.64,0,0,0-2.36-4.08c-.55-.38-1.12.54-.55.94Z"/><path class="cls-2" d="M55.13,45.54a10.26,10.26,0,0,0-1.05,4.8c.05,1.26.3,3.39,1.82,3.71a.39.39,0,0,0,.3-.71A2.19,2.19,0,0,1,55.44,52a9.61,9.61,0,0,1-.26-2A9,9,0,0,1,56,46c.26-.57-.57-1-.84-.46Z"/><path class="cls-2" d="M57.63,47.35c0,1,.1,2,.18,2.94a12.54,12.54,0,0,0,.4,2.93.46.46,0,0,0,.89-.12A12.59,12.59,0,0,0,59,50.16c-.08-1-.2-2-.32-2.95-.07-.6-1.09-.44-1.06.14Z"/><path class="cls-2" d="M60.52,52.92c0,.18.07.36.11.53l.06.26a2.55,2.55,0,0,0,.14.35l.07.09.09.07a.45.45,0,0,0,.28,0,.47.47,0,0,0,.22-.09.38.38,0,0,0,.16-.23,1.57,1.57,0,0,0,.05-.37V53.3l0-.53a.57.57,0,0,0-.07-.29l-.1-.12a.56.56,0,0,0-.48-.15.6.6,0,0,0-.39.22.61.61,0,0,0-.11.49Z"/><path class="cls-2" d="M62.06,48c.29-.06,1.26-.22,1.06.38a2.53,2.53,0,0,1-.43.65c-.22.28-.44.55-.65.83s.07.52.31.55c.48.06,1.34.25,1.36.86a.7.7,0,0,1-.27.57c-.24.16-.57.11-.83.22a.39.39,0,0,0-.09.62,1.25,1.25,0,0,0,1.45,0,1.48,1.48,0,0,0,.7-1.29,1.6,1.6,0,0,0-.75-1.21,3.89,3.89,0,0,0-1.45-.45l.16.62c.31-.35.61-.7.91-1.06A1.63,1.63,0,0,0,64,48a1.12,1.12,0,0,0-.75-.9,2.39,2.39,0,0,0-1.4,0,.42.42,0,0,0,.21.82Z"/><path class="cls-2" d="M64.28,46.81a9.48,9.48,0,0,1,1.64,3.93,5.75,5.75,0,0,1-.87,3.72c-.23.39.3.73.6.45A4.91,4.91,0,0,0,67,50.79a9.76,9.76,0,0,0-1.82-4.47c-.35-.5-1.19,0-.86.49Z"/><path class="cls-2" d="M74.57,44.89A10.4,10.4,0,0,0,74,49.1c.08,1.24.34,2.78,1.37,3.6.38.3,1-.09.74-.56a6.61,6.61,0,0,1-.89-3.25,9.71,9.71,0,0,1,.52-3.71c.25-.74-.9-1-1.15-.29Z"/><path class="cls-2" d="M77,47.09c0,.83.07,1.67.12,2.5a10.8,10.8,0,0,0,.36,2.53A.55.55,0,0,0,78.54,52a14.26,14.26,0,0,0-.13-2.44c-.08-.82-.14-1.63-.19-2.45a.61.61,0,0,0-.61-.6.63.63,0,0,0-.62.61Z"/><path class="cls-2" d="M79.61,52.64l0,.51a.49.49,0,0,1,0,.12.72.72,0,0,0,0,.22l0,.06.08.24.06.14a.41.41,0,0,0,.15.17.64.64,0,0,0,.35.12.85.85,0,0,0,.31-.09.37.37,0,0,0,.17-.16.36.36,0,0,0,.11-.2l0-.23a1.42,1.42,0,0,0,0-.2,1.34,1.34,0,0,0,0-.2l0-.51a.47.47,0,0,0-.05-.26.51.51,0,0,0-.15-.23.69.69,0,0,0-.49-.19.73.73,0,0,0-.5.21l-.11.14a.61.61,0,0,0-.1.34Z"/><path class="cls-2" d="M82.44,47.55a14.06,14.06,0,0,0-.29,3.71.53.53,0,0,0,.52.4.59.59,0,0,0,.54-.41,7.73,7.73,0,0,0,.43-1.89c.08-.61.15-1.21.21-1.82a.67.67,0,0,0-.69-.69.75.75,0,0,0-.72.7Z"/><path class="cls-2" d="M81.91,49.43l-.14,0-.07,0s0,0,0,0l-.12-.06-.06,0s0,0,0,0l-.09-.09c.05,0,0,0,0,0l0,0c0,.06,0,0,0,0a.15.15,0,0,1,0-.07h0v-.07h0s0,0,0-.07,0-.1,0-.15,0-.2.07-.3a2,2,0,0,0,.11-.69.32.32,0,0,0-.28-.32.33.33,0,0,0-.36.24,2.88,2.88,0,0,0-.3,1.49,1.08,1.08,0,0,0,.47.64,2.7,2.7,0,0,0,.66.27.33.33,0,0,0,.37-.21.3.3,0,0,0-.21-.36Z"/><path class="cls-2" d="M83.51,45.47a6.81,6.81,0,0,1,.72,8c-.2.37.31.79.6.44a6.86,6.86,0,0,0,1.54-4.75,7,7,0,0,0-2.06-4.5c-.5-.51-1.27.27-.8.8Z"/><path class="cls-2" d="M93.38,44.36a12.8,12.8,0,0,0-1.33,5.55,5.15,5.15,0,0,0,2.08,4.14c.48.29.9-.36.58-.75a6.2,6.2,0,0,1-1.56-3.68,10.75,10.75,0,0,1,1.14-4.9.49.49,0,1,0-.91-.36Z"/><path class="cls-2" d="M96.07,46.81a28.23,28.23,0,0,0,.58,4.94c.13.54.86.36.91-.12a26.87,26.87,0,0,0-.1-4.83.69.69,0,0,0-.68-.68.73.73,0,0,0-.71.69Z"/><path class="cls-2" d="M98.76,52.14l.1.59c0,.1,0,.2,0,.3a2.27,2.27,0,0,0,.16.39l.09.11.11.09a.56.56,0,0,0,.79-.34,1.47,1.47,0,0,0,.07-.41c0-.11,0-.21,0-.31l0-.61a.76.76,0,0,0-.08-.33l-.11-.14a.65.65,0,0,0-.56-.17.62.62,0,0,0-.45.26.65.65,0,0,0-.13.57Z"/><path class="cls-2" d="M100.52,46.41a1.38,1.38,0,0,0-.54.76,1.2,1.2,0,0,0,.22.95c.37.49,1,.66,1.33,1.13a1.3,1.3,0,0,1,.25.53.69.69,0,0,1-.1.47.55.55,0,0,1-.35.22,6.35,6.35,0,0,1-.77-.12.49.49,0,0,0-.42.71c.34.68,1.43.58,2,.22a1.74,1.74,0,0,0,.79-1.74,2.52,2.52,0,0,0-1-1.47,3.83,3.83,0,0,1-.7-.51s-.08-.13-.06-.09c-.07-.19,0,0,0,0l.06-.06h0l.1-.07a.6.6,0,0,0,.19-.88.63.63,0,0,0-.91,0Z"/><path class="cls-2" d="M101.12,47.55a7.24,7.24,0,0,0,1.14-.13,5.84,5.84,0,0,0,.93-.27.59.59,0,0,0,.44-.62.57.57,0,0,0-.56-.49l-1-.06c-.32,0-.64,0-1-.06a.9.9,0,0,0-.6.25.83.83,0,0,0-.24.58.76.76,0,0,0,.24.58.8.8,0,0,0,.57.22Z"/><path class="cls-2" d="M103.41,44.65a12.42,12.42,0,0,1,1.66,4.45c.24,1.67-.67,2.93-1.42,4.32-.19.35.3.75.56.42a7.72,7.72,0,0,0,2-4.64,9.73,9.73,0,0,0-1.78-5.13c-.39-.6-1.37,0-1,.58Z"/><path class="cls-2" d="M113.3,45.39c-.94,2.4-1,5.62.76,7.68.31.37,1,0,.86-.5a15.39,15.39,0,0,1-1-3.43,7.35,7.35,0,0,1,.39-3.51c.23-.62-.75-.83-1-.24Z"/><path class="cls-2" d="M115.68,47a14.56,14.56,0,0,0,.74,5.21.5.5,0,0,0,.56.23.53.53,0,0,0,.38-.49,18,18,0,0,0-.21-2.54c-.1-.81-.2-1.61-.26-2.42a.59.59,0,0,0-.59-.58.62.62,0,0,0-.62.59Z"/><path class="cls-2" d="M118.05,53.09l0,.33a.17.17,0,0,0,0,.07.77.77,0,0,0,.1.23l.06.14.1.12.12.09.14.06a.41.41,0,0,0,.22,0,.24.24,0,0,0,.15,0,.25.25,0,0,0,.14-.08.27.27,0,0,0,.11-.1.56.56,0,0,0,.11-.2l0-.16,0-.15a.62.62,0,0,0,0-.13v0l0-.33a.7.7,0,0,0-.09-.35l-.11-.14a.63.63,0,0,0-.31-.17.46.46,0,0,0-.26,0,.53.53,0,0,0-.27.08.61.61,0,0,0-.2.19.76.76,0,0,0-.13.23.73.73,0,0,0,0,.36Z"/><path class="cls-2" d="M121.14,46.82A4.64,4.64,0,0,0,121.8,52a3.42,3.42,0,0,0,1,.84,1,1,0,0,0,1.28-.42,3.57,3.57,0,0,0,.4-1.35,1.57,1.57,0,0,0-.24-1.3,1.39,1.39,0,0,0-1.45-.22,1.74,1.74,0,0,0-1.09,1c-.15.42.42.64.7.39a1.77,1.77,0,0,1,.81-.52c.09,0,.23-.06.28,0s0,.36,0,.47a2.86,2.86,0,0,1-.27,1l0,0a.09.09,0,0,1,.11,0s-.17-.07-.18-.08a2.3,2.3,0,0,1-.41-.36,3.91,3.91,0,0,1-.75-4.22.45.45,0,0,0-.16-.61.48.48,0,0,0-.63.18Z"/><path class="cls-2" d="M123,46A6.48,6.48,0,0,1,124.24,50a10.81,10.81,0,0,1-.24,2.34,21.89,21.89,0,0,0-.5,2.38c0,.58.78.7,1,.26a7.64,7.64,0,0,0,.84-2.56,10.8,10.8,0,0,0,.18-2.72,7.22,7.22,0,0,0-1.81-4.38c-.45-.5-1.15.23-.75.74Z"/><path class="cls-2" d="M17.94,62.32a9.06,9.06,0,0,0,.32,9.51c.26.42.83,0,.66-.37a14.12,14.12,0,0,1-1.26-4.52,7.13,7.13,0,0,1,1-4.21c.29-.47-.44-.86-.73-.41Z"/><path class="cls-2" d="M20.19,65.78a6.26,6.26,0,0,1,1.22-.08c.32.06.34.3.26.59a7.17,7.17,0,0,1-.5,1.14l-.56,1.19c-.33.7-.89,1.59-.28,2.31a2.54,2.54,0,0,0,2.56.5.53.53,0,0,0-.12-1.05,6.83,6.83,0,0,1-1.19-.17c-.07,0-.34,0-.39-.14s0-.18,0-.24a7,7,0,0,1,.45-1.15l.54-1.26c.28-.66.71-1.48.2-2.15s-1.44-.38-2.2-.36c-.56,0-.6.88,0,.87Z"/><path class="cls-2" d="M24.58,71.29l0,.42a2.8,2.8,0,0,0,0,.41.32.32,0,0,0,.29.32.34.34,0,0,0,.37-.24l0-.21a2.74,2.74,0,0,0,.05-.28l0-.42a.38.38,0,0,0-.1-.27.39.39,0,0,0-.27-.1.39.39,0,0,0-.27.11.43.43,0,0,0-.11.26Z"/><path class="cls-2" d="M25.75,65.32a35.31,35.31,0,0,1,.73,5.61.4.4,0,0,0,.79,0A16.14,16.14,0,0,0,26.9,65c-.17-.73-1.32-.41-1.15.31Z"/><path class="cls-2" d="M27.06,63.43a8,8,0,0,1,1.87,6c0,.42.64.48.72.08a7.78,7.78,0,0,0-2-6.7c-.35-.38-.94.2-.59.59Z"/><path class="cls-2" d="M36.4,63.62a7.58,7.58,0,0,0,1.43,8.14c.35.33,1-.12.72-.55a8.16,8.16,0,0,1-1.44-7.41c.16-.46-.54-.6-.71-.18Z"/><path class="cls-2" d="M39,66.42c.32-.12,1.26-.48,1.21.18a7.36,7.36,0,0,1-.73,1.94,2.31,2.31,0,0,0,.12,2.08,1.4,1.4,0,0,0,1.76.51.44.44,0,0,0-.21-.82.86.86,0,0,1-.75-.94,6.69,6.69,0,0,1,.64-2,1.51,1.51,0,0,0-.37-1.88,2.05,2.05,0,0,0-2,.12c-.44.2-.15,1,.32.78Z"/><path class="cls-2" d="M42.58,71.84l.16.3.09.15.11.14a.37.37,0,0,0,.12.13.35.35,0,0,0,.15.07h.11a.32.32,0,0,0,.17,0l.1-.06a.37.37,0,0,0,.12-.13l0-.11a.41.41,0,0,0,0-.22l0-.18a1.24,1.24,0,0,0,0-.16l-.11-.33a.49.49,0,0,0-.14-.24l-.11-.08a.48.48,0,0,0-.26-.07.36.36,0,0,0-.21,0,.45.45,0,0,0-.19.11.42.42,0,0,0-.11.18.35.35,0,0,0-.05.2.5.5,0,0,0,.07.27Z"/><path class="cls-2" d="M43.16,66.49a3.06,3.06,0,0,1,1-.12c.17,0,.49,0,.56.22s-.08.57-.18.77-.32.57-.46.87a2,2,0,0,0,0,2,1.19,1.19,0,0,0,1.72.22.38.38,0,0,0-.36-.64.39.39,0,0,1-.15,0s-.08,0,0,0a.5.5,0,0,1-.24-.19s-.11-.13-.06-.06-.09-.15,0-.06a.93.93,0,0,1-.07-.43,6.74,6.74,0,0,1,.65-1.75,1.27,1.27,0,0,0-.53-1.7,3.13,3.13,0,0,0-2,0,.41.41,0,0,0,.2.8Z"/><path class="cls-2" d="M45.71,64.69A4.11,4.11,0,0,1,47.47,67a6.09,6.09,0,0,1,.27,1.75c0,.64-.08,1.27-.06,1.91a.48.48,0,0,0,.94.11,6.47,6.47,0,0,0,.14-2.15,7.39,7.39,0,0,0-.4-2,5.07,5.07,0,0,0-2.17-2.71c-.51-.29-1,.5-.48.8Z"/><path class="cls-2" d="M55.32,64.92a5.88,5.88,0,0,0,0,6.35.44.44,0,0,0,.75-.44,5.85,5.85,0,0,1-.05-5.5.42.42,0,0,0-.73-.41Z"/><path class="cls-2" d="M57.82,67.28a2.2,2.2,0,0,1,1-.18s.16,0,.15,0-.11-.06-.06-.07a1.9,1.9,0,0,1-.12.36c-.3.67-.64,1.32-.91,2A1.75,1.75,0,0,0,58,71.28a1.89,1.89,0,0,0,1.87.38c.42-.1.49-.8,0-.88a5.8,5.8,0,0,1-.85-.15.46.46,0,0,1-.37-.35,1.54,1.54,0,0,1,.13-.79c.13-.34.29-.67.45-1,.26-.57.87-1.44.37-2s-1.57-.34-2.18-.1a.53.53,0,0,0-.35.69.52.52,0,0,0,.73.24Z"/><path class="cls-2" d="M60.94,72.56v.07l0-.15a5.43,5.43,0,0,1,0,.57,2.45,2.45,0,0,1,0,.27,2.62,2.62,0,0,0,0,.28.48.48,0,0,0,.34.45.5.5,0,0,0,.53-.23,1.66,1.66,0,0,0,.18-.38c0-.13,0-.27.07-.41a2.58,2.58,0,0,0,0-.62.49.49,0,0,0-.08-.29L61.9,72a.54.54,0,0,0-.47-.14.52.52,0,0,0-.38.22.45.45,0,0,0-.11.19.57.57,0,0,0,0,.29Z"/><path class="cls-2" d="M63.13,66.9a3.41,3.41,0,0,1,1,0l-.29-.38c0,.39-.47.72-.67,1A1.27,1.27,0,0,0,63,68.93c.16.31.48.47.68.75a.2.2,0,0,1,0,.26.37.37,0,0,1-.32.15c-.34-.07-.59.4-.25.59a.92.92,0,0,0,1.26-.47A1.14,1.14,0,0,0,64,69a1.34,1.34,0,0,1-.33-.42.63.63,0,0,1,.11-.54c.28-.47.74-.78.86-1.34a.39.39,0,0,0-.28-.48A3.52,3.52,0,0,0,63.15,66a.46.46,0,0,0-.44.44.42.42,0,0,0,.42.42Z"/><path class="cls-2" d="M65.39,65.05a7.24,7.24,0,0,1,1.32,6.51c-.11.45.57.75.76.3A7.28,7.28,0,0,0,66,64.4c-.38-.43-1,.21-.65.65Z"/><path class="cls-2" d="M74.65,64.88A5.5,5.5,0,0,0,75.4,71a.55.55,0,0,0,.85-.65A6.11,6.11,0,0,1,75.38,68a4.49,4.49,0,0,1,.43-2.48.67.67,0,0,0-.24-.9.71.71,0,0,0-.92.26Z"/><path class="cls-2" d="M77.67,66.48c.31,0,.63-.15,1-.13,0,0,0,0,0,0l.11,0,.07,0c-.06,0,0,.06,0,0s0,0,0,.06a5,5,0,0,1-.31,1c-.11.31-.23.61-.37.91-.27.59-.57,1.31-.07,1.88a1.13,1.13,0,0,0,.92.37c.17,0,.33,0,.5,0-.12,0,.06,0,.07,0s.2,0,.12,0a.51.51,0,0,0,.5-.84,1.19,1.19,0,0,0-.94-.34H79c-.08,0-.08,0,0,0l-.1,0c-.11,0,0,0,0,0s0,.07,0,0h0v-.06c0-.07,0-.08,0,0a.19.19,0,0,1,0-.08,2.52,2.52,0,0,1,.12-.39q.19-.53.36-1c.21-.63.65-1.52.09-2.09a1.22,1.22,0,0,0-.89-.33,8.26,8.26,0,0,0-1,.2.51.51,0,0,0-.49.47.47.47,0,0,0,.48.47Z"/><path class="cls-2" d="M80.46,71.32c0,.22,0,.43,0,.65a6.2,6.2,0,0,0,.08.74.34.34,0,0,0,.16.23A.45.45,0,0,0,81,73a.47.47,0,0,0,.43-.33,2.8,2.8,0,0,0,.09-.31l.06-.32c0-.25.08-.51.12-.76a.56.56,0,0,0-.18-.42.58.58,0,0,0-.84,0,.58.58,0,0,0-.18.41Z"/><path class="cls-2" d="M83.24,66.58a17.71,17.71,0,0,0-.24,1.8,7.3,7.3,0,0,0,0,.81,1.69,1.69,0,0,0,.31,1,.49.49,0,0,0,.68,0,1.85,1.85,0,0,0,.33-1c0-.27.07-.54.1-.81s0-.55.08-.82,0-.25,0-.37l0-.19s0-.27,0-.14a.79.79,0,0,0-.06-.52.77.77,0,0,0-.42-.31.72.72,0,0,0-.86.5Z"/><path class="cls-2" d="M82.82,68.39a1.32,1.32,0,0,1-.71-.09,1.6,1.6,0,0,1-.32-.2L81.64,68l0,0-.06-.09-.11-.19,0-.1c0,.06,0,0,0,0a1.42,1.42,0,0,1-.05-.22.36.36,0,0,1,0-.1v-.05a1.62,1.62,0,0,1,0-.22v-.06a.37.37,0,0,1,0-.07s0-.22,0-.14,0-.06,0-.07a.83.83,0,0,0,0-.35.36.36,0,0,0-.52-.21,1.18,1.18,0,0,0-.33,1.23,2,2,0,0,0,.48,1,2.19,2.19,0,0,0,2,.67.29.29,0,0,0,.21-.35.29.29,0,0,0-.34-.2Z"/><path class="cls-2" d="M84.84,65.42a5.52,5.52,0,0,1,1.57,3.38,8.65,8.65,0,0,1-1.34,3.77.41.41,0,0,0,.71.39,8.1,8.1,0,0,0,1.76-4.3,6.18,6.18,0,0,0-1.87-4.06c-.48-.56-1.29.26-.83.82Z"/><path class="cls-2" d="M93.19,63.58a5.92,5.92,0,0,0-1,3.52,6.24,6.24,0,0,0,1.37,3.64.49.49,0,0,0,.63,0,.48.48,0,0,0,.13-.61c-.86-1.91-1.38-4.14-.12-6a.58.58,0,0,0-.21-.8.63.63,0,0,0-.83.23Z"/><path class="cls-2" d="M95.85,66.22a1.19,1.19,0,0,1,.73-.46.87.87,0,0,1,.36,0,.29.29,0,0,1,.14.07.6.6,0,0,1,0,.36,3.39,3.39,0,0,1-.11.43,11.54,11.54,0,0,1-.44,1.16c-.3.7-.75,1.62-.39,2.36a1.33,1.33,0,0,0,1,.65,2.93,2.93,0,0,0,1.38-.05.52.52,0,0,0,0-1c-.41-.11-.83-.18-1.24-.28,0,0-.09-.06,0,0s0,.13,0,0a1.34,1.34,0,0,0,0-.2l.09-.26a14.82,14.82,0,0,0,.8-2.44,1.94,1.94,0,0,0-.12-1.32,1.36,1.36,0,0,0-1.11-.68,2.27,2.27,0,0,0-2,1.07c-.3.46.41,1,.77.57Z"/><path class="cls-2" d="M99.19,71.56c0,.13,0,.26,0,.38s0,.37.06.56,0,.24.06.36a.85.85,0,0,0,0,.17,1.94,1.94,0,0,0,.13.3.52.52,0,0,0,.49.27.58.58,0,0,0,.5-.29,1.79,1.79,0,0,0,.19-.45,5.12,5.12,0,0,0,.1-.54,1.63,1.63,0,0,0,0-.38c0-.13,0-.26,0-.39a.83.83,0,0,0-.23-.56.82.82,0,0,0-.55-.22.84.84,0,0,0-.58.24.79.79,0,0,0-.24.55Z"/><path class="cls-2" d="M102.42,65.05a1.48,1.48,0,0,0-1,1.24c0,.6.59,1,1,1.4.2.19.41.38.6.59a2.18,2.18,0,0,1,.22.26.83.83,0,0,1,.09.16s0,0,0,0v0a.27.27,0,0,1,.14-.23l-.05,0c.06,0,.06,0,0,0l-.09,0a3.41,3.41,0,0,1-.46.1,7.42,7.42,0,0,0-.92.17.48.48,0,0,0,0,.93,2.9,2.9,0,0,0,1.06,0,3.19,3.19,0,0,0,1-.25,1,1,0,0,0,.49-1,1.57,1.57,0,0,0-.52-.82c-.42-.4-.92-.71-1.37-1.08-.12-.1-.37-.25-.29-.43s.37-.31.55-.4a.4.4,0,0,0,.16-.55.41.41,0,0,0-.56-.14Z"/><path class="cls-2" d="M102.63,66.09a5.18,5.18,0,0,0,1.69-.51.5.5,0,0,0,.23-.39.41.41,0,0,0-.23-.38,1.7,1.7,0,0,0-.45-.15,3.47,3.47,0,0,0-.55-.08l-.86,0a.82.82,0,0,0-.81.9.75.75,0,0,0,.3.52.82.82,0,0,0,.68.13Z"/><path class="cls-2" d="M104.41,63.55a6.84,6.84,0,0,1,1.19,4.37,8.46,8.46,0,0,1-.48,2.38c-.28.78-.7,1.47-1,2.22-.21.48.36,1,.76.56a8.14,8.14,0,0,0,1.93-5.17,7.23,7.23,0,0,0-1.72-4.85c-.29-.33-.9.13-.64.49Z"/><path class="cls-2" d="M112.1,64.38a8.73,8.73,0,0,0-.89,4,4,4,0,0,0,2.21,3.13.41.41,0,0,0,.5-.64,10.56,10.56,0,0,1-1-1.27,3.47,3.47,0,0,1-.49-1.46,7,7,0,0,1,.83-3.37.6.6,0,1,0-1.11-.43Z"/><path class="cls-2" d="M114.82,66.47a1.11,1.11,0,0,1,.68,0c-.06,0,.06.07,0,0s0,0,0,.08a.7.7,0,0,1-.09.24c-.3.6-.65,1.19-.91,1.81a1.45,1.45,0,0,0,.42,1.72,2.11,2.11,0,0,0,.92.4l.45.06.29,0,.22,0h.05a.66.66,0,0,0,.6-.45.61.61,0,0,0-.28-.67,1.28,1.28,0,0,0-.49-.22l-.45-.07-.23-.05s-.17-.06-.06,0a.8.8,0,0,0-.16-.08c-.13-.05,0,.06,0,0l-.08-.09,0,0c0-.07,0-.07,0,0l0-.07c0,.08,0-.1,0,0a1.66,1.66,0,0,1,.06-.21c.11-.32.26-.64.39-1,.25-.59.68-1.3.29-1.92a1.73,1.73,0,0,0-1.76-.61.58.58,0,0,0-.56.63.54.54,0,0,0,.68.45Z"/><path class="cls-2" d="M117.64,71.87l.07.4c0,.13.06.26.09.39a.4.4,0,0,0,.44.29.42.42,0,0,0,.24-.12l.07-.08a.76.76,0,0,0,.06-.2c0-.14,0-.27,0-.41l0-.41a.56.56,0,0,0-.15-.37.51.51,0,0,0-.23-.12.45.45,0,0,0-.2,0,.55.55,0,0,0-.35.2.51.51,0,0,0-.09.18.46.46,0,0,0,0,.26Z"/><path class="cls-2" d="M119.74,65.22A4.08,4.08,0,0,0,119,68a3.83,3.83,0,0,0,1.19,2.42c.69.65,1.84,1.22,2.72.6a1.81,1.81,0,0,0,.71-1.18,2,2,0,0,0-.18-1.41,1.53,1.53,0,0,0-1.65-.51,3,3,0,0,0-1.62.67.47.47,0,0,0-.08.56.49.49,0,0,0,.53.21c.44-.08.86-.25,1.3-.29a.93.93,0,0,1,.55,0s0,0,0,0a.72.72,0,0,1,0,.2,1,1,0,0,1,0,.35.54.54,0,0,1-.07.13c0,.06,0,.08,0,0s-.08.1-.14.12a1.44,1.44,0,0,1-.83-.24,2.41,2.41,0,0,1-1.08-1.65,2.85,2.85,0,0,1,.59-2.18.66.66,0,0,0-.24-.92.74.74,0,0,0-1,.27Z"/><path class="cls-2" d="M122.56,64.21c.93,1.08,2,2.29,2,3.81s-.94,3.1-1.12,4.71c-.06.53.79.72,1,.25a10.87,10.87,0,0,0,1.24-5.29,7.93,7.93,0,0,0-2.25-4.37c-.5-.61-1.42.28-.89.89Z"/><path class="cls-2" d="M16.61,82.74c-.74,2.57-1.17,6,1.05,8,.36.32,1.06-.13.74-.56A7,7,0,0,1,17.05,87a10.32,10.32,0,0,1,.41-4c.15-.55-.7-.75-.85-.21Z"/><path class="cls-2" d="M20.73,84.36c-.17.13-.07,0,0,.15s-.12.34-.21.45A2.62,2.62,0,0,0,19.86,86a.36.36,0,0,0,.26.46c.55.09,1.12.14,1.66.26.14,0,.37.08.39.26s-.2.44-.32.59a3.55,3.55,0,0,1-2.3,1.21.32.32,0,0,0-.24.35.31.31,0,0,0,.31.27,3.27,3.27,0,0,0,3.05-1.66,1,1,0,0,0-.33-1.55,4.2,4.2,0,0,0-.86-.23l-1.15-.24.27.47a2.2,2.2,0,0,1,.56-.79,1.46,1.46,0,0,0,.4-1,1,1,0,0,0-.49-.76.82.82,0,0,0-.95.11.42.42,0,0,0,0,.6.46.46,0,0,0,.62,0Z"/><path class="cls-2" d="M23.24,91.05l.07.57a.71.71,0,0,0,0,.14l0,.13.08.28a.54.54,0,0,0,.61.39.52.52,0,0,0,.33-.16l.09-.11a.56.56,0,0,0,.08-.27l0-.3a.59.59,0,0,0,0-.13s0-.1,0-.15l0-.57a.63.63,0,0,0-.09-.33l-.1-.14a.63.63,0,0,0-.55-.17.62.62,0,0,0-.45.26.48.48,0,0,0-.12.22.56.56,0,0,0,0,.34Z"/><path class="cls-2" d="M25.28,85.35l.16,2.55a15.88,15.88,0,0,0,.25,2.58.49.49,0,0,0,.53.35.52.52,0,0,0,.44-.48,16.18,16.18,0,0,0,0-2.51l-.12-2.5a.6.6,0,0,0-.6-.6.63.63,0,0,0-.62.61Z"/><path class="cls-2" d="M26.79,82.87a5.94,5.94,0,0,1,1.4,1.34,4.2,4.2,0,0,1,.61,1.68A11.87,11.87,0,0,1,28.37,90a.38.38,0,0,0,.74.18,9.9,9.9,0,0,0,.6-4.57,5.32,5.32,0,0,0-2.25-3.44c-.46-.35-1.14.3-.67.67Z"/><path class="cls-2" d="M35.75,82.84c-1.3,2.61-1.44,6.18.39,8.58a.66.66,0,0,0,1.14-.66A8.46,8.46,0,0,1,37,83.51a.69.69,0,0,0-.25-.94.73.73,0,0,0-1,.27Z"/><path class="cls-2" d="M38.74,86a1.19,1.19,0,0,1,.83,0l-.36-.62a6.17,6.17,0,0,1-.64,1,1.86,1.86,0,0,0-.29,1.35,1.58,1.58,0,0,0,.66.9,2.38,2.38,0,0,1,.68.54l.1-.64-.84.88a5.76,5.76,0,0,0-.85.93c-.22.33.15.87.54.7a4.89,4.89,0,0,0,2-1.88.53.53,0,0,0-.08-.65,3.3,3.3,0,0,0-.74-.6c-.17-.12-.37-.25-.42-.42s.14-.59.29-.81a4.85,4.85,0,0,0,.59-1,.52.52,0,0,0-.36-.63,2,2,0,0,0-1.36,0,.55.55,0,0,0-.39.64.51.51,0,0,0,.64.36Z"/><path class="cls-2" d="M41.49,90.77v.54a1.9,1.9,0,0,0,0,.4l.05.25.06.14a.31.31,0,0,0,.15.15.55.55,0,0,0,.33.12,1,1,0,0,0,.29-.08A.61.61,0,0,0,42.7,92a3.76,3.76,0,0,0,.1-.66l0-.53a.68.68,0,0,0-.19-.47.67.67,0,0,0-.47-.18.74.74,0,0,0-.48.2.68.68,0,0,0-.19.46Z"/><path class="cls-2" d="M43.09,86A1.89,1.89,0,0,1,44,86a.35.35,0,0,1,.22.44,9.25,9.25,0,0,1-.8,1.93,1.35,1.35,0,0,0,.74,1.85,4.27,4.27,0,0,0,1.13.07,9.39,9.39,0,0,0,1.19-.07.46.46,0,0,0,.45-.38.42.42,0,0,0-.32-.47,9.21,9.21,0,0,0-1.14-.23l-.66-.08-.23,0-.09,0c.1.06-.09,0,0,0s0-.07,0,0l0-.08a1,1,0,0,1,0-.26c.1-.33.3-.64.42-1a2.39,2.39,0,0,0,.15-2.08,2,2,0,0,0-2-.68.54.54,0,0,0-.51.5.5.5,0,0,0,.49.5Z"/><path class="cls-2" d="M46.87,84.38a3.55,3.55,0,0,1,1.34,2.34,10.81,10.81,0,0,1-.28,3.62.45.45,0,0,0,.88.22c.86-2.42,1-5.6-1.3-7.26a.65.65,0,0,0-.86.25.61.61,0,0,0,.22.83Z"/><path class="cls-2" d="M55.39,83.44c-.74,2.41-1.26,5.67,1.2,7.31.38.26.79-.32.49-.64-1.63-1.76-1.23-4.3-.63-6.4.19-.69-.85-.93-1.06-.27Z"/><path class="cls-2" d="M58.39,85.47c-.12,0,.26,0,.14,0,.11,0,0,.06,0,0s0-.14-.05,0c0-.06,0,.09,0,.09l-.07.14c-.07.12-.13.25-.19.38a1.11,1.11,0,0,0,.44,1.39c.17.12.37.21.54.34,0,0,.11.14.09.09a.49.49,0,0,1,0,.29,5.93,5.93,0,0,1-.43.78c-.18.32-.35.63-.5,1a.45.45,0,0,0,.72.53,4.32,4.32,0,0,0,.77-1,4.22,4.22,0,0,0,.49-1.11A1.31,1.31,0,0,0,60,87.2a2.58,2.58,0,0,0-.67-.51,1.77,1.77,0,0,1-.23-.16s0,0,0,0,0,0,0-.08a4.23,4.23,0,0,1,.34-.6,1,1,0,0,0,0-1,1.18,1.18,0,0,0-1-.46.52.52,0,0,0,0,1Z"/><path class="cls-2" d="M60.38,91.15l.09.45a3.36,3.36,0,0,0,.14.45.47.47,0,0,0,.24.31.58.58,0,0,0,.32.06.54.54,0,0,0,.3-.15l.09-.11a.55.55,0,0,0,.07-.25,3.71,3.71,0,0,0,0-.47V91a.61.61,0,0,0-.18-.45.64.64,0,0,0-.29-.16.42.42,0,0,0-.25,0,.46.46,0,0,0-.24.08.52.52,0,0,0-.19.17.48.48,0,0,0-.12.22.62.62,0,0,0,0,.33Z"/><path class="cls-2" d="M62.35,85.45c.16,0,.51,0,.62.19s-.17.48-.29.6a2,2,0,0,0-.61.8c-.1.34.26.65.51.83s.87.48.65,1-.91.76-1.36,1.13a.37.37,0,0,0,.26.63,2.25,2.25,0,0,0,2.13-1.82,1.38,1.38,0,0,0-.49-1.21c-.27-.24-.69-.37-.87-.69v.44a3.18,3.18,0,0,1,.62-.7,1.36,1.36,0,0,0,.39-1c-.08-.74-.81-1-1.44-1-.47,0-.61.77-.12.84Z"/><path class="cls-2" d="M64.46,84.39a3.16,3.16,0,0,1,1.62,2.71,13.75,13.75,0,0,1-.91,4.37.48.48,0,0,0,.89.35,8.33,8.33,0,0,0,1.19-5A4.28,4.28,0,0,0,65,83.49c-.59-.27-1.14.6-.53.9Z"/><path class="cls-2" d="M74.36,83.85A7.23,7.23,0,0,0,75,91.52a.62.62,0,0,0,1-.74,7.5,7.5,0,0,1-.21-6.18.76.76,0,0,0-.28-1,.81.81,0,0,0-1.08.3Z"/><path class="cls-2" d="M77.27,86c.16,0,.23,0,.3.13l.08-.6a13,13,0,0,1-1.09,1.25.48.48,0,0,0-.13.47,1.11,1.11,0,0,0,.82.69c.15,0,.3.07.45.12a.33.33,0,0,1,.13.07s0,0,0,0a.59.59,0,0,1-.08.27,1.43,1.43,0,0,1-.34.37,3.43,3.43,0,0,0-.93.93c-.2.36.23.86.6.59a13,13,0,0,0,1.24-.85,1.63,1.63,0,0,0,.5-1.37,1.16,1.16,0,0,0-.79-.93,4.68,4.68,0,0,0-.53-.17s-.1,0,0,0l-.1,0s0,0,0,0l0,0-.08.58c.38-.4.76-.8,1.12-1.23a.51.51,0,0,0,.08-.6A1.22,1.22,0,0,0,77.29,85a.55.55,0,0,0-.53.52.51.51,0,0,0,.51.52Z"/><path class="cls-2" d="M79,91l.08.42a3.34,3.34,0,0,0,.1.4.38.38,0,0,0,.42.27A.39.39,0,0,0,80,91.7a3,3,0,0,0,0-.42l0-.41a.5.5,0,0,0-.06-.24l-.08-.09a.42.42,0,0,0-.38-.12.49.49,0,0,0-.32.18A.46.46,0,0,0,79,91Z"/><path class="cls-2" d="M81.9,86.39a13.52,13.52,0,0,0,0,3.76.4.4,0,0,0,.46.3.44.44,0,0,0,.38-.41c.06-.61,0-1.22,0-1.83s0-1.22.08-1.83a.5.5,0,0,0-.5-.49.52.52,0,0,0-.51.5Z"/><path class="cls-2" d="M82.42,88.09a6,6,0,0,0-1-.3l-.59-.08-.27,0h-.2l.1,0a.12.12,0,0,1,0,.07s0,0,0,0,0-.12,0,0a.37.37,0,0,0,0-.11,4.86,4.86,0,0,1,0-.54c0-.17,0-.34.06-.5q0,.06,0,0l0-.11a.57.57,0,0,1,0-.13c0-.09,0-.18,0-.27a.38.38,0,0,0-.28-.36.4.4,0,0,0-.44.18,2.39,2.39,0,0,0-.36,1.25,3.71,3.71,0,0,0,0,.58,1,1,0,0,0,.24.7.8.8,0,0,0,.34.18l.11,0,.16,0c.05,0,.06,0,0,0s0,0,0,0h.09l.14,0,.27,0,.59.14.26.08.13,0L82,89c-.05,0-.05,0,0,0a.54.54,0,0,0,.73-.26.46.46,0,0,0,0-.38.51.51,0,0,0-.34-.3Z"/><path class="cls-2" d="M82.65,84.71a4,4,0,0,1,2.16,3.18c0,1.56-.79,2.91-1.35,4.31-.22.56.6.76.9.35a8.17,8.17,0,0,0,1.74-5,4.41,4.41,0,0,0-.8-2.33,7.55,7.55,0,0,0-1.93-1.72c-.74-.49-1.47.71-.72,1.22Z"/><path class="cls-2" d="M92.57,82.65c-.43,2.22-.84,5,.56,7a.34.34,0,0,0,.59-.34,8,8,0,0,1-.92-3,14.7,14.7,0,0,1,.23-3.5c0-.3-.41-.41-.46-.11Z"/><path class="cls-2" d="M94.76,85.25a4,4,0,0,1,.92,0l-.56-.32s0-.07,0-.07.09-.09,0,0a1.08,1.08,0,0,0-.18.29,1.84,1.84,0,0,0-.28.64A1.73,1.73,0,0,0,95,87.21a4.5,4.5,0,0,1,.31.45c0-.07,0-.08,0,0a1.66,1.66,0,0,0-.16.21,14.42,14.42,0,0,0-1,1.25c-.22.32.2.66.51.49a5.52,5.52,0,0,0,1.4-1,1.24,1.24,0,0,0,.38-.85,1.55,1.55,0,0,0-.29-.76c-.24-.33-.5-.64-.31-1.05.09-.2.28-.37.39-.58a1.13,1.13,0,0,0,0-1,.63.63,0,0,0-.56-.31,4.84,4.84,0,0,0-1.26,0,.69.69,0,0,0-.5.82.68.68,0,0,0,.82.46Z"/><path class="cls-2" d="M97.71,89.39c0,.32,0,.64.07,1,0,.13,0,.27,0,.41a2.85,2.85,0,0,0,.11.39.51.51,0,0,0,.57.37.48.48,0,0,0,.31-.15A.65.65,0,0,0,99,91a2.87,2.87,0,0,0,0-.41l0-.4a7.35,7.35,0,0,0-.07-.82.61.61,0,0,0-.17-.43.68.68,0,0,0-.43-.17.64.64,0,0,0-.62.61Z"/><path class="cls-2" d="M100.1,84.57a1.59,1.59,0,0,0,.45,1.44,3.87,3.87,0,0,1,.78,1,2,2,0,0,1,.07.29v.12c0,.18,0,0,0,.08a.63.63,0,0,1-.1.25.84.84,0,0,1-.15.18,1.41,1.41,0,0,1-.44.27,2.4,2.4,0,0,0-.86.43.52.52,0,0,0,.23.88,2.27,2.27,0,0,0,1.83-.66,1.87,1.87,0,0,0,.69-1.58,2.43,2.43,0,0,0-.86-1.47c-.23-.23-.8-.64-.72-1a.47.47,0,0,0-.91-.22Z"/><path class="cls-2" d="M100.6,85.22c.41,0,.82,0,1.22-.11a4.89,4.89,0,0,0,.53-.09l.27-.07a1.87,1.87,0,0,0,.39-.22.42.42,0,0,0-.09-.66,1.76,1.76,0,0,0-.41-.1h-.24l-.55,0c-.37,0-.73,0-1.1,0a.65.65,0,0,0-.63.62.61.61,0,0,0,.61.61Z"/><path class="cls-2" d="M103,83.2c2.09,2,1.19,5,.52,7.38-.12.44.55.72.75.3,1.22-2.62,1.62-6.1-.65-8.31-.39-.38-1,.24-.62.63Z"/><path class="cls-2" d="M112.46,83.46A5,5,0,0,0,111.37,87a4.17,4.17,0,0,0,1.77,3.12c.41.28.83-.32.52-.66a4.86,4.86,0,0,1-1.28-2.59,3.83,3.83,0,0,1,.79-2.83c.32-.41-.39-.93-.71-.53Z"/><path class="cls-2" d="M115,85.23a1.1,1.1,0,0,1,1,.13L115.8,85s0,.05,0,0l0,.07-.18.23a.9.9,0,0,0-.16.63,1.21,1.21,0,0,0,.36.65,2.38,2.38,0,0,1,.42.42.69.69,0,0,1,.09.44.81.81,0,0,1-.13.37.9.9,0,0,1-.35.29l0,0-.13,0a.7.7,0,0,0-.4.29.38.38,0,0,0,0,.4c.26.4.78.27,1.14.1a1.57,1.57,0,0,0,.74-.72,1.67,1.67,0,0,0-.34-1.88c-.13-.12-.57-.36-.51-.58,0,.06.08-.1,0-.05l.09-.11a1.18,1.18,0,0,0,.24-.42c.14-.48-.34-.7-.73-.8a2,2,0,0,0-1.07.05.43.43,0,0,0-.3.51.41.41,0,0,0,.5.29Z"/><path class="cls-2" d="M117.16,90.24l0,.4c0,.1,0,.21,0,.31l0,.19,0,.11a.3.3,0,0,0,.12.13.48.48,0,0,0,.28.1.73.73,0,0,0,.24-.07.37.37,0,0,0,.13-.12.51.51,0,0,0,.09-.16c0-.17.07-.33.09-.5l0-.4a.42.42,0,0,0,0-.22.39.39,0,0,0-.12-.19.55.55,0,0,0-.4-.16.62.62,0,0,0-.42.18l-.09.12a.54.54,0,0,0-.08.28Z"/><path class="cls-2" d="M119.81,85a4.5,4.5,0,0,0,.67,4.31,2,2,0,0,0,1,.64,1.48,1.48,0,0,0,1.27-.35c.55-.45,1-1.63.36-2.19a1.48,1.48,0,0,0-1.36-.15,2.76,2.76,0,0,0-1.3.7c-.29.28,0,.87.42.71s.72-.29,1.1-.39c.13,0,.3-.07.4-.09s0,0,0,0a.87.87,0,0,1-.18.39l-.08.08s-.19.14-.1.09l-.11.06c.06,0,.06,0,0,0l-.12,0h0c.09,0-.16-.06-.09,0l-.17-.1a2.7,2.7,0,0,1-.82-1.55,4,4,0,0,1,.08-1.89.51.51,0,0,0-1-.24Z"/><path class="cls-2" d="M122.31,84.36a7.52,7.52,0,0,1,1.51,3.22,7,7,0,0,1-.63,3.37c-.17.46.51.79.81.45a4.68,4.68,0,0,0,1-3.87,8.79,8.79,0,0,0-1.73-3.71c-.38-.53-1.3,0-.92.54Z"/><path class="cls-2" d="M17.69,101.34a7.4,7.4,0,0,0,.51,7.39.54.54,0,0,0,.94-.54,7.62,7.62,0,0,1-.37-6.26.63.63,0,0,0-.22-.84.65.65,0,0,0-.86.25Z"/><path class="cls-2" d="M21.47,103.22a18.52,18.52,0,0,0,.43,3.56.53.53,0,0,0,.58.38.57.57,0,0,0,.48-.53,18.62,18.62,0,0,0,0-3.42.71.71,0,0,0-.71-.71.75.75,0,0,0-.74.72Z"/><path class="cls-2" d="M22,105.36a5,5,0,0,0-1.16,0h-.16l-.11,0s-.12,0,0,0l-.1,0c-.06,0,0,0,0,0s-.09-.09-.05,0,0,0,0-.06,0,0,0,0l0-.12c0,.1,0,0,0,0v-.14l0-.58a8.66,8.66,0,0,0-.1-1.25.44.44,0,0,0-.42-.32.48.48,0,0,0-.43.33,3.06,3.06,0,0,0-.13,1.38,2.41,2.41,0,0,0,.42,1.33,1.4,1.4,0,0,0,1,.42,6.33,6.33,0,0,1,1.15,0,.42.42,0,0,0,.48-.28.38.38,0,0,0-.27-.47Z"/><path class="cls-2" d="M24.07,108.29l.07.57s0,.1,0,.14a.5.5,0,0,0,0,.13l.08.28a.55.55,0,0,0,.6.39.6.6,0,0,0,.33-.16.59.59,0,0,0,.16-.38l0-.29s0-.09,0-.14,0-.1,0-.14l0-.57a.62.62,0,0,0-.08-.33l-.11-.13a.6.6,0,0,0-.53-.16.59.59,0,0,0-.43.25.43.43,0,0,0-.12.22.69.69,0,0,0,0,.32Z"/><path class="cls-2" d="M25.57,103.61a18.2,18.2,0,0,0,1.36,4.51c.22.47,1,.13.84-.35-.36-1.49-.74-3-1-4.49a.61.61,0,0,0-.77-.43.65.65,0,0,0-.46.76Z"/><path class="cls-2" d="M27.39,102.23c1.52,1.62,1.16,3.88,1.15,5.9a.47.47,0,0,0,.93.1c.39-2.26.36-5-1.33-6.74-.45-.48-1.2.25-.75.74Z"/><path class="cls-2" d="M16.82,122.28a10.53,10.53,0,0,0,.34,3.4,8.78,8.78,0,0,0,.62,1.64,6.27,6.27,0,0,0,1,1.46.67.67,0,0,0,.89,0,.68.68,0,0,0,.19-.87,11.1,11.1,0,0,1-1.41-5.69.8.8,0,0,0-.8-.79.85.85,0,0,0-.82.81Z"/><path class="cls-2" d="M20.5,122.73a2.59,2.59,0,0,0,.57,1.45,7.4,7.4,0,0,1,.87,1.28,1.42,1.42,0,0,1-.15,1.28,1.1,1.1,0,0,1-.46.39c.06,0-.12,0-.12,0-.16,0,0,0-.12,0a2.7,2.7,0,0,0-.41,0,.54.54,0,0,0-.47.78,1.05,1.05,0,0,0,1.23.44,2.11,2.11,0,0,0,1-.55,2.45,2.45,0,0,0,.69-2,3.28,3.28,0,0,0-.91-1.72,2.69,2.69,0,0,1-.85-1.35.42.42,0,0,0-.42-.41.44.44,0,0,0-.44.42Z"/><path class="cls-2" d="M21.59,123.38c.47-.2.95-.39,1.41-.61a5.2,5.2,0,0,0,1.23-.77.47.47,0,0,0-.33-.8,4.81,4.81,0,0,0-1.4.26c-.43.13-.86.28-1.28.43a.83.83,0,0,0-.49.37.74.74,0,0,0-.09.58.78.78,0,0,0,.36.47.81.81,0,0,0,.59.07Z"/><path class="cls-2" d="M24.06,128c.05.23.08.47.15.69a3.37,3.37,0,0,0,.1.34,3.25,3.25,0,0,0,.18.43l.08.1a.37.37,0,0,0,.17.1.44.44,0,0,0,.32,0,.56.56,0,0,0,.24-.13.53.53,0,0,0,.15-.36,2,2,0,0,0,0-.35c0-.11,0-.23,0-.35,0-.28-.07-.56-.11-.83a.6.6,0,0,0-.31-.4.65.65,0,0,0-.49-.06.69.69,0,0,0-.49.8Z"/><path class="cls-2" d="M25.63,123.64a10.09,10.09,0,0,0,1,4.15c.29.55,1.12.15,1-.42s-.28-1.27-.41-1.9a12.11,12.11,0,0,1-.25-1.84.66.66,0,0,0-.66-.65.7.7,0,0,0-.68.66Z"/><path class="cls-2" d="M27.25,122a8.43,8.43,0,0,1,1.58,3.61,10.9,10.9,0,0,1-.19,3.94c-.1.5.63.85.86.34a9.14,9.14,0,0,0-1.14-8.53c-.46-.65-1.58,0-1.11.64Z"/><path class="cls-2" d="M16.79,139.46a9.35,9.35,0,0,0,.61,8.29c.32.5,1.28.17,1-.43a10.81,10.81,0,0,1-.42-7.55.61.61,0,0,0-.44-.77.67.67,0,0,0-.79.46Z"/><path class="cls-2" d="M19.31,140.71a10,10,0,0,0,0,3.5,5.87,5.87,0,0,0,1.28,3,1.69,1.69,0,0,0,1.56.5,2.14,2.14,0,0,0,1.3-1,1.94,1.94,0,0,0,.24-1.45,1.32,1.32,0,0,0-1.14-.93,3.28,3.28,0,0,0-1.86.19c-.5.25-1,.93-.63,1.48a.46.46,0,0,0,.79,0,1.26,1.26,0,0,1,.24-.46.81.81,0,0,1,.5-.16c.18,0,.79-.07.92.13s-.23.61-.38.74-.19.15-.27.14a.5.5,0,0,1-.23-.16,3.08,3.08,0,0,1-.51-.95,10.65,10.65,0,0,1-.44-1.49,9,9,0,0,1-.07-2.93c.1-.74-1.18-.87-1.3-.15Z"/><path class="cls-2" d="M23.76,148.59l.09.44a1.42,1.42,0,0,0,.07.22l.08.21a.53.53,0,0,0,.11.21.39.39,0,0,0,.17.14l.13.06a.6.6,0,0,0,.23,0,.34.34,0,0,0,.14,0,.37.37,0,0,0,.2-.12l.1-.12a.69.69,0,0,0,.08-.28l0-.24s0-.07,0-.11a.4.4,0,0,0,0-.11v-.46a.74.74,0,0,0-.09-.36l-.12-.15a.67.67,0,0,0-.32-.17.87.87,0,0,0-.55.07.58.58,0,0,0-.21.2.58.58,0,0,0-.14.24.77.77,0,0,0,0,.37Z"/><path class="cls-2" d="M24.71,142.53c.16.74.32,1.47.5,2.2a10.32,10.32,0,0,0,.72,2.18c.2.41.84.18.85-.24a11,11,0,0,0-.25-2.29c-.14-.74-.3-1.48-.46-2.21a.68.68,0,0,0-.84-.48.72.72,0,0,0-.52.84Z"/><path class="cls-2" d="M26.15,140.6a7.93,7.93,0,0,1,.57,8.32c-.24.49.4,1,.8.58a7.88,7.88,0,0,0,0-9.7.8.8,0,0,0-1.08-.27.79.79,0,0,0-.31,1.07Z"/><path class="cls-2" d="M35.25,101.79a6,6,0,0,0-.85,3.36,4.72,4.72,0,0,0,1.29,3.28.59.59,0,0,0,.92-.71,6.75,6.75,0,0,1-.86-2.62,4.72,4.72,0,0,1,.64-2.68c.45-.74-.7-1.35-1.14-.63Z"/><path class="cls-2" d="M38.9,103.91a23.08,23.08,0,0,0,.36,3,.5.5,0,0,0,.55.36.53.53,0,0,0,.45-.5,13.64,13.64,0,0,0,0-1.43c0-.47-.07-.95-.11-1.43a.6.6,0,0,0-.61-.6.65.65,0,0,0-.64.62Z"/><path class="cls-2" d="M39.89,104.94a7.28,7.28,0,0,0-1.32,0,5.46,5.46,0,0,0-1.39.29.6.6,0,0,0-.16.08c.22-.06.36,0,.41.11s0,0,0,0,0-.18,0-.27,0-.42-.07-.62,0-.46-.07-.68,0-.58-.32-.75a.38.38,0,0,0-.44.07,1,1,0,0,0-.15.84l.07.74c0,.25,0,.5.06.75a.73.73,0,0,0,.47.71,1.66,1.66,0,0,0,.8,0l.18,0H38l.36,0a12.39,12.39,0,0,1,1.49-.07.59.59,0,0,0,.59-.57.56.56,0,0,0-.56-.56Z"/><path class="cls-2" d="M41.49,107.7l.15.84a7.21,7.21,0,0,0,.22.83.41.41,0,0,0,.45.3.44.44,0,0,0,.38-.41,8.23,8.23,0,0,0,0-.86c0-.28,0-.57-.07-.85a.59.59,0,0,0-.16-.4A.5.5,0,0,0,42,107a.57.57,0,0,0-.49.69Z"/><path class="cls-2" d="M42.87,104.32c.05,0,.05,0,0,0h.23a.76.76,0,0,1,.3,0c-.14,0,0,0,.05,0l.06,0c.06,0,.05,0,0,0l.06,0c.05,0,0,0,0,0l0,0s0,0,0,0l0,.06s0,0,0,0,0,.06,0,0v.09h0l0,.09,0,.09c0-.06,0-.06,0,0a7.86,7.86,0,0,0-.36.71,1.27,1.27,0,0,0,.42,1.63,2.72,2.72,0,0,0,1,.24l.43,0a1.62,1.62,0,0,0,.54,0,.58.58,0,0,0,.41-.47.54.54,0,0,0-.26-.55,4.46,4.46,0,0,0-1.4-.37l-.12,0,0,0s-.07,0,0,0-.09-.1,0,0,0,0,0,0,0,0,0,0l0-.11s0,.12,0,.06,0,0,0-.06,0,.09,0,0a.57.57,0,0,1,0-.14s0-.14,0-.07l0-.06c.05-.1.09-.19.13-.29a2,2,0,0,0,.21-.76A1.12,1.12,0,0,0,44,103.4a2.48,2.48,0,0,0-1.35-.08.54.54,0,0,0-.39.64.52.52,0,0,0,.64.36Z"/><path class="cls-2" d="M45.52,103.23A7.52,7.52,0,0,1,46.58,106a9.66,9.66,0,0,1,0,2.94.51.51,0,0,0,.45.51.55.55,0,0,0,.58-.39,8.07,8.07,0,0,0-.8-6.55c-.47-.82-1.8,0-1.31.75Z"/><path class="cls-2" d="M36.8,140.81a.13.13,0,1,0,0-.25c-.16,0-.17.25,0,.25Z"/><path class="cls-2" d="M35.58,142.32c-.79,2.2-.56,5.12,1.23,6.78a.62.62,0,0,0,1-.74,10.84,10.84,0,0,1-.86-2.84,6.06,6.06,0,0,1,.31-2.78.82.82,0,0,0-.59-1,.89.89,0,0,0-1.06.61Z"/><path class="cls-2" d="M35.24,120.83a8.79,8.79,0,0,0-1.2,4,4.31,4.31,0,0,0,1.38,3.42c.34.28,1-.09.69-.52a4.88,4.88,0,0,1-.85-3,9.26,9.26,0,0,1,1-3.41c.31-.67-.65-1.2-1-.54Z"/><path class="cls-2" d="M38,122.45a1.27,1.27,0,0,0,.15,1.36c.28.39.74.63,1,1a1.41,1.41,0,0,1,.15.51,1.3,1.3,0,0,1-.08.51c0,.05-.05.09-.07.13l0,0s-.14.13-.05.06-.14.08-.07,0-.08,0-.1,0-.05,0-.08,0,.1,0-.07,0a1,1,0,0,0-.24,0,.51.51,0,0,0-.5.62.87.87,0,0,0,.91.64,1.34,1.34,0,0,0,.91-.42,2.11,2.11,0,0,0,.48-1.72,2.19,2.19,0,0,0-.86-1.4c-.27-.21-1.07-.64-.82-1.09a.34.34,0,0,0-.6-.33Z"/><path class="cls-2" d="M38.82,123.38A5.2,5.2,0,0,0,41,122a.55.55,0,0,0,.09-.63.53.53,0,0,0-.59-.23l-.5.13c-.18,0-.35.14-.52.2-.34.12-.68.26-1,.36a.9.9,0,0,0-.5.38.84.84,0,0,0-.08.6.77.77,0,0,0,.37.48.83.83,0,0,0,.6.07Z"/><path class="cls-2" d="M41,127.69c.05.21.09.43.16.64s.07.21.1.32a2.06,2.06,0,0,0,.21.42.57.57,0,0,0,.58.27.53.53,0,0,0,.29-.12.5.5,0,0,0,.22-.31,2.22,2.22,0,0,0,.07-.45c0-.11,0-.22,0-.33s-.05-.44-.08-.66a.66.66,0,0,0-.1-.38l-.12-.17a.85.85,0,0,0-.35-.19.81.81,0,0,0-.82.3.51.51,0,0,0-.14.26.77.77,0,0,0,0,.4Z"/><path class="cls-2" d="M42.49,123.21a7,7,0,0,0,.91-.2.49.49,0,0,1,.21,0c.06,0,.06,0,0,0l.08,0s0,0,0,0l0,0c.05,0,0,.1,0,0a.73.73,0,0,1-.07.19,3.17,3.17,0,0,1-.17.38c-.14.31-.3.61-.44.92a2,2,0,0,0-.21,1.19,1.45,1.45,0,0,0,.57.86,2,2,0,0,0,2.09.06.48.48,0,0,0-.1-.88c-.31-.07-.54-.09-.87-.16-.08,0-.09,0,0,0l-.22-.08c.15.07,0,0,0,0s-.06,0,0,0l-.08-.07-.07-.08,0,.06s-.12-.23,0-.07c0-.07,0-.09,0,0v-.07c0-.07,0-.09,0,0l0-.14.06-.2c.1-.32.22-.64.33-1a2,2,0,0,0,.2-1,.91.91,0,0,0-.55-.68,1.51,1.51,0,0,0-.89-.09c-.29.06-.57.21-.87.25a.46.46,0,0,0-.34.49.43.43,0,0,0,.44.38Z"/><path class="cls-2" d="M45.12,121.74c1.8,1.54,1.5,4,1,6.07a.49.49,0,0,0,.9.35,6.35,6.35,0,0,0,.82-4.13,5,5,0,0,0-1.78-3.2.67.67,0,0,0-.9,0,.63.63,0,0,0,0,.89Z"/><path class="cls-2" d="M38.52,142.82c-.68,1.76-.4,4.25,1.51,5.13a2,2,0,0,0,1.54.11,2.05,2.05,0,0,0,1.08-.95,1.82,1.82,0,0,0,.17-1.37,1.27,1.27,0,0,0-1.19-.87,2.86,2.86,0,0,0-1.45.33,2.45,2.45,0,0,0-.65.47,1.12,1.12,0,0,0-.41.79.48.48,0,0,0,.61.46,2.86,2.86,0,0,0,.84-.67,1.88,1.88,0,0,1,.68-.33.58.58,0,0,1,.29,0,.2.2,0,0,1,.11.08.54.54,0,0,1,0,.2s0,.16,0,.09,0,.16,0,.09a.22.22,0,0,1-.05.08s-.08.12,0,.05l-.13.13h0l-.07.05-.2.11c.12-.06,0,0-.09,0s.1,0,0,0h-.2a1.18,1.18,0,0,1-.45-.2l-.08-.06h0l-.18-.16a1,1,0,0,1-.14-.15l-.09-.1c0,.06,0,0,0,0a3,3,0,0,1-.24-.38l-.11-.21,0-.05s0-.12,0-.11a3.41,3.41,0,0,1,.12-2.25.58.58,0,0,0-.41-.72.63.63,0,0,0-.74.43Z"/><path class="cls-2" d="M42.76,148.51a7.34,7.34,0,0,1,0,.94,3,3,0,0,0,0,1,.46.46,0,0,0,.77.2,1,1,0,0,0,.19-.27,1.79,1.79,0,0,0,.13-.32,4.12,4.12,0,0,0,.12-.59,6.28,6.28,0,0,0,0-1,.67.67,0,0,0-.18-.46.68.68,0,0,0-.92,0,.61.61,0,0,0-.19.45Z"/><path class="cls-2" d="M43.6,144.18A4,4,0,0,0,44,144a1.13,1.13,0,0,1,.28-.12h.11s0,0,0,0,0,.08,0,0a.94.94,0,0,1,0,.16c0-.07,0,.12,0,.15a1,1,0,0,1,0,.17c0-.1,0,.08,0,.1a1.17,1.17,0,0,1,0,.2c-.08.26-.18.52-.27.77a2.13,2.13,0,0,0-.18.9,1.21,1.21,0,0,0,.57.95,2.37,2.37,0,0,0,1.81.15.59.59,0,0,0,.28-1,1.47,1.47,0,0,0-1.07-.36h-.08l-.14,0-.09,0,0,0c-.1-.06-.08-.05,0,0s0,0,0,0,0,0,0,0h0V146a.49.49,0,0,1,0-.12h0a1.16,1.16,0,0,1,0-.18c.06-.28.15-.56.21-.84a1.7,1.7,0,0,0-.49-1.83,1.16,1.16,0,0,0-.91-.12c-.27.07-.54.25-.75.31a.51.51,0,0,0-.36.59.48.48,0,0,0,.59.33Z"/><path class="cls-2" d="M45.54,142.43a4.08,4.08,0,0,1,1.5,2.65,25.35,25.35,0,0,1-.43,3.58.67.67,0,0,0,1.24.31,7.92,7.92,0,0,0,.7-4.21,5.62,5.62,0,0,0-.51-1.83,6.67,6.67,0,0,0-1.31-1.69c-.73-.75-2,.44-1.19,1.19Z"/><path class="cls-2" d="M54.42,103.13a6.73,6.73,0,0,0,.77,5.28c.21.31.76.13.65-.27a10.22,10.22,0,0,1-.39-4.75.53.53,0,0,0-.37-.65.56.56,0,0,0-.66.39Z"/><path class="cls-2" d="M58.45,104a20.1,20.1,0,0,0,0,3.2c.06.43.77.38.84,0a21.34,21.34,0,0,0,.23-3.2.54.54,0,0,0-.54-.53.57.57,0,0,0-.55.54Z"/><path class="cls-2" d="M58.8,105.5l-1.12-.06-.54,0h0s0,0,0,0a.22.22,0,0,1,.13.1l0,.06s0,0,0,0,0,0,0-.07c0-.36.06-.72.09-1.07a4.94,4.94,0,0,0,0-1.15.35.35,0,0,0-.31-.27.37.37,0,0,0-.38.19,3.24,3.24,0,0,0-.38,1.33,4.46,4.46,0,0,0-.05.63,2.3,2.3,0,0,0,0,.64.79.79,0,0,0,.49.53,1.89,1.89,0,0,0,.67.06l1.32,0a.48.48,0,0,0,.48-.46.45.45,0,0,0-.46-.46Z"/><path class="cls-2" d="M60.5,108.06c0,.18.07.37.11.55s0,.19.07.28a2,2,0,0,0,.14.34l.06.08a.26.26,0,0,0,.13.08.4.4,0,0,0,.56-.37,1.29,1.29,0,0,0,0-.28l0-.28c0-.22-.06-.44-.1-.66a.43.43,0,0,0-.22-.29.48.48,0,0,0-.37,0,.51.51,0,0,0-.36.59Z"/><path class="cls-2" d="M61.87,104.54c.46-.05.93-.08,1.38-.17l-.3,0a.26.26,0,0,1-.12-.25s0,0,0,0,0,0,0,0a2,2,0,0,0-.11.2.86.86,0,0,0,0,.63,1.39,1.39,0,0,0,.33.54c.12.13.27.23.39.37,0-.06.09.16,0,.08s0,.06,0,0v0s0,.14,0,0a.49.49,0,0,1,0,.11s0,0,0,0-.1.12,0,0l-.1.1c.06,0,0,0,0,0l-.11.06-.23.13h0l-.14,0a1.16,1.16,0,0,0-.39.22.44.44,0,0,0,.09.7,1.13,1.13,0,0,0,.85,0,1.46,1.46,0,0,0,.71-.41,1.41,1.41,0,0,0,.35-1.38,1.48,1.48,0,0,0-.43-.59,2.6,2.6,0,0,1-.47-.38.4.4,0,0,1-.07-.15s0,0,0,0l.06-.1a.66.66,0,0,0,.11-.68c-.18-.33-.52-.25-.83-.21s-.64.08-1,.13a.41.41,0,0,0-.3.43.38.38,0,0,0,.39.34Z"/><path class="cls-2" d="M64.41,103.42a2.74,2.74,0,0,1,1.09,2,3.12,3.12,0,0,1-.78,2.22c-.37.41.18.91.6.57a3.35,3.35,0,0,0,1.21-2.83A3.71,3.71,0,0,0,65,102.66c-.42-.31-1,.43-.58.76Z"/><path class="cls-2" d="M74.1,103.3a6,6,0,0,0-.44,2.82,5.84,5.84,0,0,0,.32,1.42,4.5,4.5,0,0,0,.78,1.36.55.55,0,0,0,.72,0,.55.55,0,0,0,.15-.69,5.88,5.88,0,0,1-.31-4.63.62.62,0,0,0-.44-.76.67.67,0,0,0-.78.46Z"/><path class="cls-2" d="M78.27,104.06c0,1.06-.08,2.12,0,3.18a.51.51,0,0,0,.46.51.54.54,0,0,0,.59-.39,8.64,8.64,0,0,0,.39-3.32.7.7,0,0,0-.71-.7.76.76,0,0,0-.73.72Z"/><path class="cls-2" d="M78.51,105.71c-.57-.06-1.17-.09-1.7-.19l.3.53c.11-.4.18-.8.25-1.21a6.25,6.25,0,0,0,.11-1.29.37.37,0,0,0-.33-.37.41.41,0,0,0-.42.28,6,6,0,0,0-.31,1.2c-.07.43-.14.86-.17,1.29a.43.43,0,0,0,.44.43c.6,0,1.21.09,1.81.13a.42.42,0,0,0,.42-.4.41.41,0,0,0-.4-.4Z"/><path class="cls-2" d="M80.05,108.43c0,.24-.06.48-.08.71s0,.24,0,.36a1.79,1.79,0,0,0,0,.46.58.58,0,0,0,.14.24.54.54,0,0,0,.3.13.51.51,0,0,0,.27,0,.55.55,0,0,0,.26-.22,2.26,2.26,0,0,0,.17-.43c0-.12.05-.23.07-.35s.08-.47.12-.71a.69.69,0,0,0,0-.32l-.07-.16a.58.58,0,0,0-.47-.3.63.63,0,0,0-.48.13.67.67,0,0,0-.26.5Z"/><path class="cls-2" d="M83,105.15c0,.44,0,.88,0,1.32a6.43,6.43,0,0,0,.14,1.39.49.49,0,0,0,.48.37.55.55,0,0,0,.5-.38,6.52,6.52,0,0,0,.24-1.39c0-.44,0-.88.07-1.32a.68.68,0,0,0-.69-.68.74.74,0,0,0-.71.69Z"/><path class="cls-2" d="M83.27,105.94l-.4,0h-.21a1.09,1.09,0,0,0-.18,0c.08,0,.09,0,0,0h-.06l-.08,0-.19,0c-.08,0,0,0,0,0l-.1,0-.07,0,0,0,0,0a1.36,1.36,0,0,0-.12-.12c.07.09.06.08,0,0s0,0,0,0,0,.08,0,0,0,.08,0,0,0-.1,0-.15a1.5,1.5,0,0,1,0-.24c0-.18-.06-.37-.1-.56a2.54,2.54,0,0,0-.22-.6.39.39,0,0,0-.43-.18.43.43,0,0,0-.29.37,4.79,4.79,0,0,0,.14,1.31,2.34,2.34,0,0,0,.2.58,1.05,1.05,0,0,0,.39.42,2.73,2.73,0,0,0,1.8.32.49.49,0,0,0,.49-.47.46.46,0,0,0-.47-.46Z"/><path class="cls-2" d="M84.38,103.32c1.42,1.65.78,4.08.51,6-.08.63.88.66,1.06.13.74-2.31,1.08-5.07-.67-7a.64.64,0,0,0-.89,0,.62.62,0,0,0,0,.87Z"/><path class="cls-2" d="M93.27,102.75a9.14,9.14,0,0,0-.88,3.32,8.87,8.87,0,0,0,.06,1.71,6.2,6.2,0,0,0,.51,1.67.62.62,0,0,0,.77.24.63.63,0,0,0,.38-.72,9.14,9.14,0,0,1,.34-5.57.67.67,0,1,0-1.18-.65Z"/><path class="cls-2" d="M96.7,105c-.08.55-.18,1.09-.25,1.64a7.77,7.77,0,0,0-.1,1.52.52.52,0,0,0,.39.5.55.55,0,0,0,.61-.25c.06-.15.14-.3.19-.46l.09-.34c.07-.25.12-.5.18-.75.11-.5.2-1,.29-1.51a.72.72,0,0,0-.06-.54.74.74,0,0,0-.44-.33.77.77,0,0,0-.9.52Z"/><path class="cls-2" d="M97.23,106.51l-.84-.24-.4-.11a1.68,1.68,0,0,1-.38-.12l.23.56a5.62,5.62,0,0,0,.21-1.58,3.93,3.93,0,0,0-.33-1.58.4.4,0,0,0-.73.2c0,.48,0,1,0,1.42s-.08,1-.12,1.42a.48.48,0,0,0,.49.49,2.62,2.62,0,0,1,.38.09l.41.1.84.21a.45.45,0,0,0,.25-.86Z"/><path class="cls-2" d="M99.05,108.63a5.45,5.45,0,0,0,.06,1.07,3.71,3.71,0,0,0,.33,1,.5.5,0,0,0,.55.22.55.55,0,0,0,.38-.47l.09-.9q0-.45.09-.9a.75.75,0,0,0-.22-.53.77.77,0,0,0-.52-.2.78.78,0,0,0-.76.74Z"/><path class="cls-2" d="M101.54,105l.72.93.36.47a1.88,1.88,0,0,1,.16.23l.06.09,0,.06s0,0,0,0l0,.1c0,.1,0-.07,0,0s0-.06,0,0,0,0,0,0h0c0-.1,0,0,0,0s.08-.06,0,0l-.05,0-.11.06s.15-.06,0,0l-.26.08-.15,0c.08,0,0,0,0,0h-.27s-.17,0,0,0l-.14,0,.33.81a1.85,1.85,0,0,0,.18-.44.41.41,0,0,0-.16-.46.44.44,0,0,0-.49,0,1.41,1.41,0,0,0-.29.18.6.6,0,0,0-.29.55.56.56,0,0,0,.41.47,2.83,2.83,0,0,0,1.5-.06,1.61,1.61,0,0,0,.66-.4,1,1,0,0,0,.25-.89,2.73,2.73,0,0,0-.84-1.15l-1-1.06a.38.38,0,0,0-.51,0,.37.37,0,0,0-.1.49Z"/><path class="cls-2" d="M102.49,105.1c.43-.13.85-.25,1.27-.39a.38.38,0,0,0,.28-.41.34.34,0,0,0-.36-.32q-.71.09-1.41.21a.5.5,0,0,0-.3.23.43.43,0,0,0,0,.35.47.47,0,0,0,.57.33Z"/><path class="cls-2" d="M103.6,103.78a5.12,5.12,0,0,1-.14,5.16.53.53,0,0,0,.85.62,5.38,5.38,0,0,0,.41-6.42c-.43-.69-1.54,0-1.12.64Z"/><path class="cls-2" d="M54.06,122.39a9.37,9.37,0,0,0,.73,6c.31.59,1.25.17,1.09-.45a14,14,0,0,1-.45-5.43c.06-.34-.29-.64-.6-.67a.71.71,0,0,0-.77.51Z"/><path class="cls-2" d="M56.79,123.46a2.68,2.68,0,0,0,.35,1,3.68,3.68,0,0,0,.34.44l.16.17.07.08,0,0,0,0,.06.09,0,0s0,0,0,0,0,.12,0,.05,0,0,0,0v0a.14.14,0,0,1,0,.06s0,0,0,0-.08.12,0,0,0,0,0,0a.87.87,0,0,0-.1.08s.1-.06,0,0l-.11,0h0l-.14,0-.23.07-.14,0c-.09,0,0,0,.08,0l.22.12a.31.31,0,0,1,.09.22l-.06.22v0l-.16.16h0a.41.41,0,0,0,.09-.64.52.52,0,0,0-.83.52c.1.4.51.47.85.44a2.15,2.15,0,0,0,.93-.25,1.37,1.37,0,0,0,.6-.74,1.09,1.09,0,0,0-.09-.88,1.82,1.82,0,0,0-.52-.55,1.51,1.51,0,0,1-.23-.21,1.16,1.16,0,0,1-.18-.24,1.57,1.57,0,0,1-.22-.63.41.41,0,0,0-.5-.29.43.43,0,0,0-.31.5Z"/><path class="cls-2" d="M58.09,123.82a2.4,2.4,0,0,1,.27-.16c.09-.06.19-.1.29-.16l.27-.15a2.53,2.53,0,0,0,.27-.18.61.61,0,0,0,.26-.29.63.63,0,0,0,0-.38.71.71,0,0,0-.16-.28.6.6,0,0,0-.42-.16l-.17,0a1.16,1.16,0,0,0-.32,0l-.33.06a2.14,2.14,0,0,0-.47.2,1.82,1.82,0,0,0-.31.16.82.82,0,0,0-.37.47.75.75,0,0,0,.07.59.77.77,0,0,0,.47.36.82.82,0,0,0,.61-.09Z"/><path class="cls-2" d="M59.05,128.16l.08.5a.52.52,0,0,0,0,.11,1.88,1.88,0,0,0,.12.3l.09.22.12.15.14.1.17.07a.53.53,0,0,0,.28,0,.41.41,0,0,0,.18-.05.42.42,0,0,0,.17-.1.33.33,0,0,0,.13-.13.56.56,0,0,0,.13-.24l0-.24a1.55,1.55,0,0,1,0-.21.92.92,0,0,0,0-.16v-.06l0-.51a.78.78,0,0,0-.11-.42l-.14-.18a.89.89,0,0,0-.38-.21.58.58,0,0,0-.32,0,.75.75,0,0,0-.33.1,1,1,0,0,0-.41.52.94.94,0,0,0,0,.44Z"/><path class="cls-2" d="M61.33,123.62a3.22,3.22,0,0,1,.78-.08c.15,0,.29,0,.44,0l.35.05-.25-1a11.27,11.27,0,0,1-.92,1,.53.53,0,0,0-.09.63,1.79,1.79,0,0,0,.81.68,2.87,2.87,0,0,1,.39.2l.09.06c-.06,0-.06-.06,0,0s.08.06.07.07l0,0,0,0c0-.06,0-.07,0,0s0,.07,0,0,0,.15,0,.06,0,0,0,.06.07-.1,0,0l-.06.11c0,.06.09-.09,0,0s-.13.11,0,.05,0,0-.06,0l-.13.08-.05,0,.05,0c-.05,0-.17.07-.24.1s-.17.08,0,0l-.19.08a.8.8,0,0,0-.32.28.43.43,0,0,0,0,.45c.32.56,1.24.37,1.67.07a1.57,1.57,0,0,0,.68-1.57,1.46,1.46,0,0,0-.89-1l-.48-.19-.22-.12s0,0,0,0,0,0,0,0a.08.08,0,0,1,0,0c0,.06,0,.07,0,0l-.09.64a11.23,11.23,0,0,1,1-1,.57.57,0,0,0,.15-.54.56.56,0,0,0-.4-.4,3.82,3.82,0,0,0-2.17,0,.61.61,0,0,0-.43.71.58.58,0,0,0,.71.4Z"/><path class="cls-2" d="M64.07,121.94a3.6,3.6,0,0,1,1.33,1.21,3.12,3.12,0,0,1,.38,1.5,13.24,13.24,0,0,1-1,3.89c-.22.72.78,1,1.15.45a7.55,7.55,0,0,0,1.43-4.64,4.61,4.61,0,0,0-.65-2.1,5.5,5.5,0,0,0-1.88-1.64.77.77,0,0,0-.78,1.33Z"/><path class="cls-2" d="M74.12,121.89a7.94,7.94,0,0,0,.41,6.07.64.64,0,0,0,1.17-.48,12.19,12.19,0,0,1-.45-2.61,7.53,7.53,0,0,1,.34-2.62.74.74,0,0,0-.53-.91.8.8,0,0,0-.94.55Z"/><path class="cls-2" d="M77,122.93a1.22,1.22,0,0,0-.07.88,2,2,0,0,0,.42.71,4.69,4.69,0,0,0,.47.42l.24.23s.09.13,0,0a1,1,0,0,1,.08.14s0,0,0,.06,0-.08,0,0,0-.09,0,0v0a.29.29,0,0,1,0,.09c0-.07,0-.08,0,0s0,.1-.07.12.06-.07,0,0l0,0-.07.07q.12-.09,0,0l-.13.07c-.11.07.13,0,0,0a1.74,1.74,0,0,1-.22,0h-.48a.91.91,0,0,0-.68.14.57.57,0,0,0-.21.75,1.1,1.1,0,0,0,1.08.49,2.09,2.09,0,0,0,1-.24,1.69,1.69,0,0,0,.93-1.44,1.78,1.78,0,0,0-.8-1.36,3.16,3.16,0,0,1-.55-.48c.06.07,0-.06,0-.08s-.07-.17,0-.08a.29.29,0,0,1,0-.09h0v0l0-.09a.48.48,0,0,0-.29-.58.53.53,0,0,0-.64.22Z"/><path class="cls-2" d="M77.89,123.59l.75-.24.37-.11a1.93,1.93,0,0,0,.49-.26.64.64,0,0,0,.3-.69.74.74,0,0,0-.16-.27.59.59,0,0,0-.43-.17H79a.91.91,0,0,0-.33,0l-.39.08-.77.17a.83.83,0,0,0-.49.37.76.76,0,0,0-.08.57.72.72,0,0,0,.36.46.77.77,0,0,0,.58.07Z"/><path class="cls-2" d="M79.63,127.84c0,.25.05.51.07.76l.06.4a1.54,1.54,0,0,0,.17.45.6.6,0,0,0,.54.3.63.63,0,0,0,.33-.09.59.59,0,0,0,.24-.23l.06-.14c0-.07.07-.16.09-.22a1.57,1.57,0,0,0,0-.23c0-.12,0-.23,0-.34s0-.45.07-.68a.71.71,0,0,0-.07-.32.57.57,0,0,0-.18-.28.89.89,0,0,0-.6-.24.93.93,0,0,0-.62.27l-.13.17a.79.79,0,0,0-.12.42Z"/><path class="cls-2" d="M83.12,123.06c-.06.61-.12,1.22-.16,1.83a9.1,9.1,0,0,0,0,.91c0,.33,0,.65.08,1a.55.55,0,0,0,.53.41.61.61,0,0,0,.56-.42,17.26,17.26,0,0,0,.5-3.72.7.7,0,0,0-.72-.72.77.77,0,0,0-.75.73Z"/><path class="cls-2" d="M82.71,124.79l-.06,0,.17-.07a1.39,1.39,0,0,1-.35.09l.18,0a2.16,2.16,0,0,1-.36,0l.17,0a1.62,1.62,0,0,1-.38-.09l.16.06a1.48,1.48,0,0,1-.35-.19l.14.1a1,1,0,0,1-.26-.25l.1.14a1.32,1.32,0,0,1-.18-.33l.06.16a1.72,1.72,0,0,1-.1-.39l0,.16c0-.06,0-.13,0-.19s0-.06,0-.06,0,.16,0,.05a.13.13,0,0,0,0-.06,2.44,2.44,0,0,1,0-.27.49.49,0,0,1,0-.12v0c0-.07,0,0,0,0a2.44,2.44,0,0,0,.06-.26.41.41,0,0,0-.6-.45,1.66,1.66,0,0,0-.65,2,1.91,1.91,0,0,0,.61.9,2,2,0,0,0,1,.45,2.24,2.24,0,0,0,.58,0,2.16,2.16,0,0,0,.74-.21.73.73,0,0,0,.33-.42.65.65,0,0,0-.48-.82.78.78,0,0,0-.52.07Z"/><path class="cls-2" d="M84.72,121.09a3.85,3.85,0,0,1,1.3,3.18,15.85,15.85,0,0,1-1.16,4.3.58.58,0,0,0,1.06.42,10,10,0,0,0,1.45-4.91,4.89,4.89,0,0,0-1.79-3.85.63.63,0,0,0-.85,0,.6.6,0,0,0,0,.84Z"/><path class="cls-2" d="M93.29,121.47a7.87,7.87,0,0,0-1.2,4.4,4.66,4.66,0,0,0,2,3.59c.46.3.85-.35.56-.72a5.53,5.53,0,0,1-1.13-3.05,6.57,6.57,0,0,1,.9-3.62.63.63,0,0,0-1.1-.6Z"/><path class="cls-2" d="M95.92,123.87l.53,1.23.27.61a1.81,1.81,0,0,1,.06.2s0,.12,0,.06,0,.14,0,0,0,.13,0,.07,0,0,0,.06,0,0,0,0a.6.6,0,0,1-.08.08c-.1.1.09,0,0,0l-.1.06-.11.06c.11-.06,0,0,0,0l-.15,0c-.16,0,.09,0-.09,0l-.3,0a1.64,1.64,0,0,0-.76.11.44.44,0,0,0-.1.68,1.39,1.39,0,0,0,.9.29,2.39,2.39,0,0,0,.8-.07,1.58,1.58,0,0,0,1.1-1.07,2.12,2.12,0,0,0-.4-1.51l-.77-1.42a.4.4,0,0,0-.56-.14.43.43,0,0,0-.16.55Z"/><path class="cls-2" d="M96.68,124.06a6.8,6.8,0,0,0,1.1-.38l.44-.23a3.07,3.07,0,0,0,.5-.39.57.57,0,0,0-.56-1c-.16,0-.32.07-.47.12l-.44.15c-.31.09-.61.2-.92.27a.81.81,0,0,0-.47.36.72.72,0,0,0,.82,1.06Z"/><path class="cls-2" d="M98.77,127.84a5,5,0,0,0,.07.86,1.68,1.68,0,0,0,.09.32,1,1,0,0,0,.13.3l.19.24a.52.52,0,0,0,.27.15.55.55,0,0,0,.31,0,.66.66,0,0,0,.29-.17.61.61,0,0,0,.16-.27,2.9,2.9,0,0,0,.06-.41v-.3a5.87,5.87,0,0,1,0-.59l0,.2s0-.09,0-.14a.72.72,0,0,0,0-.41l-.08-.2a.72.72,0,0,0-.3-.3.61.61,0,0,0-.3-.08.65.65,0,0,0-.31,0,.64.64,0,0,0-.29.16.49.49,0,0,0-.22.23.93.93,0,0,0-.12.4Z"/><path class="cls-2" d="M100.73,123.27a2.52,2.52,0,0,0,.58,1.06l.18.21s.09.12,0,.06a.44.44,0,0,1,.08.11,1.88,1.88,0,0,1,.16.23.67.67,0,0,1,.06.12s.06.14,0,0a1.34,1.34,0,0,1,.07.27c0-.08,0,.07,0,.08s0,.16,0,.07,0,.1,0,.15-.07.16,0,.07l-.08.14c-.05.09,0,0,0,.05a.57.57,0,0,1-.11.11c.08-.07,0,0,0,0l-.07,0-.11,0-.07,0s0,0,0,0h-.15a1.18,1.18,0,0,0-.42,0,.5.5,0,0,0-.24.82,1.07,1.07,0,0,0,1,.22,1.89,1.89,0,0,0,.83-.4,1.74,1.74,0,0,0,.57-1.64,2.58,2.58,0,0,0-.77-1.22l-.23-.24-.09-.11s0,0,0,0l-.06-.08a.9.9,0,0,1-.2-.5.45.45,0,0,0-.55-.31.46.46,0,0,0-.32.54Z"/><path class="cls-2" d="M101.07,124.1c.74-.09,1.48-.17,2.21-.33a.44.44,0,0,0,.32-.48.42.42,0,0,0-.42-.37c-.69,0-1.39,0-2.08.08a.59.59,0,0,0-.57.56.53.53,0,0,0,.54.54Z"/><path class="cls-2" d="M103.05,122.48a4.14,4.14,0,0,1,1.2,3.13,9.07,9.07,0,0,1-1.67,3.14c-.37.57.46,1.12.91.67a6.63,6.63,0,0,0,2.22-3.8,5.8,5.8,0,0,0-1.63-4.17.73.73,0,0,0-1,0,.72.72,0,0,0,0,1Z"/><path class="cls-2" d="M54.48,142.07a8.22,8.22,0,0,0,1.16,5.69c.36.54,1.35.21,1.14-.47a11.93,11.93,0,0,1-.58-5.23.82.82,0,0,0-.84-.84.91.91,0,0,0-.88.85Z"/><path class="cls-2" d="M58.38,141.66a8.67,8.67,0,0,0,0,2.92,2.77,2.77,0,0,0,1.1,2,1.55,1.55,0,0,0,2.1-.68,1.72,1.72,0,0,0-.47-2.3,1.35,1.35,0,0,0-2,1.53.45.45,0,0,0,.42.32.48.48,0,0,0,.45-.33,2.83,2.83,0,0,1,.14-.44c.06-.11.12-.2.21-.21s.32.16.35.41c0-.07,0,.12,0,.15s0,.07,0,0l0,.11a.7.7,0,0,1-.15.28c.06-.08-.08.08-.1.09s0,0,0,0l-.09.06h0a.23.23,0,0,1-.11,0c.14,0-.14,0,0,0s-.21-.06-.14,0-.18-.11-.13-.07a1,1,0,0,1-.27-.31,3.12,3.12,0,0,1-.32-.87,7.15,7.15,0,0,1-.08-2.65c.07-.5-.79-.59-.88-.1Z"/><path class="cls-2" d="M61.4,148l.08.39s0,.06,0,.09a2.44,2.44,0,0,0,.1.24l.08.18.09.12.12.08.13.06a.41.41,0,0,0,.22,0,.28.28,0,0,0,.15,0,.33.33,0,0,0,.13-.07l.11-.11a.5.5,0,0,0,.1-.19l0-.19c0-.08,0-.17,0-.25a.38.38,0,0,0,0-.1v-.4a.7.7,0,0,0-.09-.35l-.11-.15a.73.73,0,0,0-.31-.17.61.61,0,0,0-.27,0,.5.5,0,0,0-.26.08.55.55,0,0,0-.21.19.58.58,0,0,0-.13.23.73.73,0,0,0,0,.36Z"/><path class="cls-2" d="M63.37,142.58c-.06,0,0,0,0,0s.07,0,0,0,.08,0,0,0,.09.07,0,0l-.16-.26c0-.13,0,.09,0,0a.56.56,0,0,1,0,.12c0,.09.06-.11,0,0l-.07.15a1.68,1.68,0,0,0-.22.72,1.08,1.08,0,0,0,.27.69,2.77,2.77,0,0,0,.42.36l.23.18.08.1c-.06-.09,0,.07,0,.07s0,0,0,0,0,.1,0,.1,0,0,0,0l0,.12c0-.05,0,0,0,0l-.09.13c0,.08.1-.07,0,0s-.17.14-.07.07l-.11.07c-.21.14-.44.22-.64.36s-.55.62-.22.94.76.14,1.07,0A2.28,2.28,0,0,0,65,145.54a1.47,1.47,0,0,0-.23-1.53,2.73,2.73,0,0,0-.47-.37l-.13-.08c-.1-.08,0,0,0,0s-.11-.13-.05,0-.07-.12,0,0c0-.09,0,0,0-.06s0-.07,0,0v-.05c.09-.15-.06.08,0-.07l.08-.14a2,2,0,0,0,.3-.77.82.82,0,0,0-.66-.85,1.29,1.29,0,0,0-1,.09.6.6,0,0,0-.22.8.6.6,0,0,0,.8.2Z"/><path class="cls-2" d="M65.08,140.43a4.74,4.74,0,0,1,1.16,3c.07,1.41-.31,2.79-.36,4.19,0,.51.79.74,1,.25,1.17-2.66,1.4-6.26-.7-8.54-.65-.71-1.76.38-1.1,1.09Z"/><path class="cls-2" d="M73.92,141.17c-.86,2.33-2,5.41-.54,7.73a.71.71,0,0,0,1.28-.53,8.31,8.31,0,0,1-.19-3.33,17.66,17.66,0,0,1,1.08-3.47.82.82,0,0,0-.59-1,.89.89,0,0,0-1,.61Z"/><path class="cls-2" d="M76.83,142.64a6.15,6.15,0,0,0,0,2.7c.18.8.54,1.85,1.49,2a1.94,1.94,0,0,0,1.29-.42,2.12,2.12,0,0,0,.88-.9,1.21,1.21,0,0,0-1.11-1.54,1.54,1.54,0,0,0-1.2.45,1.63,1.63,0,0,0-.57,1.24c0,.31.45.32.64.16a4.14,4.14,0,0,0,.46-.69.86.86,0,0,1,.48-.36.51.51,0,0,1,.42.17.24.24,0,0,1,.07.13v0a.35.35,0,0,1,0,.08,1.91,1.91,0,0,1-.62.45,1.36,1.36,0,0,1-.33.14.52.52,0,0,1-.25,0l0,0s0,0,0,0l-.06-.06c-.07-.07,0,.05,0,0a1.78,1.78,0,0,1-.19-.36,4.6,4.6,0,0,1-.26-2.88.5.5,0,0,0-1-.24Z"/><path class="cls-2" d="M79.8,148.14v.22a.91.91,0,0,0,0,.23c0,.08,0,.15,0,.23a.85.85,0,0,0,0,.23l0,.11a.49.49,0,0,0,.14.23.53.53,0,0,0,.29.14h.13a.28.28,0,0,0,.13,0,.51.51,0,0,0,.26-.22A1.82,1.82,0,0,0,81,149l.07-.22c0-.07,0-.15,0-.22l0-.23a.65.65,0,0,0,0-.34l-.07-.17a.64.64,0,0,0-.25-.24.45.45,0,0,0-.25-.07.62.62,0,0,0-.51.14.66.66,0,0,0-.18.19.69.69,0,0,0-.09.34Z"/><path class="cls-2" d="M82.55,143.76c0,.94,0,1.89.11,2.82a.52.52,0,0,0,.45.39.58.58,0,0,0,.55-.27,6.37,6.37,0,0,0,.53-3,.79.79,0,0,0-.8-.79.84.84,0,0,0-.84.81Z"/><path class="cls-2" d="M82.19,144.34a.58.58,0,0,1-.18,0l.2,0H82l.19,0a1.11,1.11,0,0,1-.26-.07l.17.06a1.17,1.17,0,0,1-.27-.15l.15.11a1,1,0,0,1-.19-.17l.11.14a1.11,1.11,0,0,1-.17-.3l.07.17a2.37,2.37,0,0,1-.14-.64v.18c0-.13,0-.25,0-.37s0-.06,0-.09,0,0,0,.06,0-.08,0-.11a2,2,0,0,0-.1-.48.49.49,0,0,0-.88-.1,2.22,2.22,0,0,0,0,2.28,2.1,2.1,0,0,0,.76.75,1.57,1.57,0,0,0,1.2.13.83.83,0,0,0,.48-.36.77.77,0,0,0,.08-.56.75.75,0,0,0-.35-.45.72.72,0,0,0-.57-.07Z"/><path class="cls-2" d="M83.76,141.86a5.09,5.09,0,0,1,1.15,2.73c.18,1.21,0,2.43.06,3.65a.58.58,0,0,0,1.14.13c.61-2.48.44-5.53-1.33-7.53-.59-.67-1.63.34-1,1Z"/><path class="cls-2" d="M93.68,140.68c-1.42,2.21-1.41,5.61.67,7.42.41.36,1.13-.12.81-.62a5.72,5.72,0,0,1-.27-6.14c.49-.76-.73-1.41-1.21-.66Z"/><path class="cls-2" d="M95.77,142.6a4.13,4.13,0,0,0,0,2.46,2.6,2.6,0,0,0,1.41,1.6,2.18,2.18,0,0,0,2.21-.29,1.43,1.43,0,0,0,.54-1,.83.83,0,0,0-.73-.93,4.13,4.13,0,0,0-1.36.1,2.54,2.54,0,0,0-1.32.57.43.43,0,0,0,.31.74,2.57,2.57,0,0,0,.47-.08l.46-.14a4,4,0,0,1,.8-.14,2.15,2.15,0,0,1,.44,0l-.12-.08a.41.41,0,0,1,0-.09s0-.15,0-.1a.14.14,0,0,0,0,.06c0-.09,0-.05,0,0s0,0,0,0l0,.05a1.27,1.27,0,0,0-.12.1s.12-.07,0,0l-.08.05-.08,0s.16-.06,0,0l-.15.05a.9.9,0,0,0-.16,0H98c-.09,0,.12,0,0,0H98l-.16,0c-.08,0,.11.05,0,0l-.1,0-.15-.09-.06,0s.09.08,0,0l-.25-.26c-.07-.07.07.1,0,0l0-.06-.09-.15-.08-.15s0-.07,0-.09,0,.11,0,0a3.25,3.25,0,0,1-.11-.42s0-.08,0-.12,0,.14,0,0a2.18,2.18,0,0,1,0-.25,2.7,2.7,0,0,1,0-.49c0,.11,0,0,0,0l0-.15c0-.09,0-.18.07-.27a.65.65,0,0,0-.46-.8.72.72,0,0,0-.84.48Z"/><path class="cls-2" d="M99.52,148l.07.4s0,.06,0,.09a1.73,1.73,0,0,0,.1.24l.08.18.09.12.12.08.13.06a.41.41,0,0,0,.22,0,.28.28,0,0,0,.15,0,.33.33,0,0,0,.13-.07.38.38,0,0,0,.11-.11.5.5,0,0,0,.1-.19l0-.19a1.09,1.09,0,0,0,0-.25.38.38,0,0,0,0-.1l0-.4a.56.56,0,0,0-.08-.34l-.11-.15a.73.73,0,0,0-.3-.16.5.5,0,0,0-.27,0,.46.46,0,0,0-.25.08.55.55,0,0,0-.21.19.46.46,0,0,0-.12.23.78.78,0,0,0,0,.34Z"/><path class="cls-2" d="M101.35,143.34a1.35,1.35,0,0,1,.26.15l0,0,.1.08.22.21s.13.13,0,0a.67.67,0,0,1,.07.11c0,.06.15.19.15.27s0-.09,0-.05,0,0,0,.06l0,.13c0,.07,0,.06,0,0a.19.19,0,0,1,0,.08v.11a.13.13,0,0,0,0,.06c0,.05,0,0,0-.06l0,.14,0,.13c0,.12.06-.12,0,0s-.09.14-.13.22l0-.06,0,.06-.08.08,0,0,.07-.05a.41.41,0,0,0-.11.07.75.75,0,0,0-.13.06c.06-.05.14-.05,0,0l-.09,0h.08s-.13,0-.17,0,.07,0,0,0h-.15s-.1,0-.13,0a.73.73,0,0,0-.36,0,.52.52,0,0,0-.38.61,1,1,0,0,0,.69.65,1.71,1.71,0,0,0,.84,0,1.79,1.79,0,0,0,1.1-.78,2.14,2.14,0,0,0-.09-2.41,2.81,2.81,0,0,0-1.11-.94.62.62,0,0,0-.81.23.57.57,0,0,0,.21.79Z"/><path class="cls-2" d="M101.91,143l.54-.25c.18-.08.35-.17.53-.24l-.16.07c.15-.07.3-.12.44-.2l.3-.16a.59.59,0,0,0,.28-.64.56.56,0,0,0-.55-.42,5.59,5.59,0,0,0-.59.08,2.38,2.38,0,0,0-.45.15,6.08,6.08,0,0,0-1,.47.73.73,0,0,0-.32.41.67.67,0,0,0,.06.5.69.69,0,0,0,.92.23Z"/><path class="cls-2" d="M103.67,140.48c.71,1.12,1.53,2.38,1.38,3.77a28.89,28.89,0,0,1-1.29,4.22.61.61,0,0,0,1.12.44,10,10,0,0,0,1.09-2.34,10.54,10.54,0,0,0,.62-2.41,7.63,7.63,0,0,0-1.51-4.5c-.53-.87-2,0-1.41.82Z"/><path class="cls-2" d="M111.25,103.08a5.78,5.78,0,0,0,.69,5.81.59.59,0,0,0,1-.56,11,11,0,0,1-.61-2.42,5.62,5.62,0,0,1,.33-2.48.69.69,0,0,0-.5-.87.76.76,0,0,0-.89.52Z"/><path class="cls-2" d="M115.65,104.54a25.39,25.39,0,0,0-.08,2.62.44.44,0,0,0,.38.42.45.45,0,0,0,.48-.32,27.5,27.5,0,0,0,.34-2.73.54.54,0,0,0-.55-.54.59.59,0,0,0-.57.55Z"/><path class="cls-2" d="M115.08,105.74a2,2,0,0,1-.23.06s-.11,0-.06,0h-.22l-.13,0s-.11-.05,0,0l.19.74a3.33,3.33,0,0,0,.33-.86,4.66,4.66,0,0,0,.14-.91,3.24,3.24,0,0,0-.34-1.76.48.48,0,0,0-.54-.22.5.5,0,0,0-.37.47c0,.51,0,1-.06,1.52l0,.36a1.79,1.79,0,0,1,0,.23s0,.18,0,.06l0,.26s0,.08,0,.11,0,0,0,0a3.85,3.85,0,0,0-.08.47c0,.32.27.51.54.54-.1,0,.07,0,.07,0l.17,0a1.9,1.9,0,0,0,.34,0,2.09,2.09,0,0,0,.65-.13.54.54,0,0,0,.38-.63.51.51,0,0,0-.63-.36Z"/><path class="cls-2" d="M116.89,108.55l.13.56,0,.13c0,.09.08.19.12.29l.11.24.1.13a.41.41,0,0,0,.2.12.58.58,0,0,0,.39,0,.68.68,0,0,0,.28-.17.61.61,0,0,0,.19-.42v-.29a.81.81,0,0,0,0-.22l0-.22-.07-.57a.66.66,0,0,0-.14-.26.55.55,0,0,0-.21-.19.78.78,0,0,0-.56-.06.79.79,0,0,0-.47.35.81.81,0,0,0-.08.55Z"/><path class="cls-2" d="M118.81,104.68a5.19,5.19,0,0,0,.56,2,2.36,2.36,0,0,0,1.57,1.17,1.68,1.68,0,0,0,1.16-.2,1.21,1.21,0,0,0,.59-1,1.46,1.46,0,0,0-1.48-1.35,1.87,1.87,0,0,0-1.17.49,1.78,1.78,0,0,0-.39.47,1.58,1.58,0,0,0-.19.65.49.49,0,0,0,.32.47.56.56,0,0,0,.59-.12c.16-.15.31-.31.46-.48l.11-.11.06-.06,0,0a.6.6,0,0,0,.13-.09l.07,0c-.09,0-.12,0-.07,0l.06,0,.15,0h-.05c.06,0,0,0-.06,0l.14,0s-.13-.07,0,0l.08,0c.07,0-.11-.1,0,0a.12.12,0,0,0,0,0s0,0,.05,0-.09-.13,0,0,0,.1.07.11,0-.15,0,0,0,0,0,.07,0-.13,0-.06,0,.1,0,0,0,0,0,0,.07-.12,0-.06.08-.1,0,0,.12-.07,0,0l-.08,0c-.12.06.11,0,0,0l-.08,0-.07,0c-.08,0,.13,0,0,0h-.15s-.11,0,0,0h0l-.15,0h0l-.07,0-.14-.07-.07,0c-.11-.06.1.09,0,0a1.7,1.7,0,0,1-.24-.22l0-.06c-.07-.07,0,0,0,0s-.08-.11-.11-.17a2.58,2.58,0,0,1-.19-.37c-.05-.1,0,0,0,0a.5.5,0,0,1-.05-.13l-.06-.2a9,9,0,0,1-.21-.9.51.51,0,0,0-.63-.36.56.56,0,0,0-.39.64Z"/><path class="cls-2" d="M121.72,103.75c.78.54,1.72,1.17,1.71,2.16a5.87,5.87,0,0,1-.44,1.79c-.2.59-.45,1.18-.71,1.76a.63.63,0,0,0,1.1.6,9.26,9.26,0,0,0,1.12-2,5.35,5.35,0,0,0,.53-2.35c-.1-1.56-1.27-2.51-2.48-3.32a.84.84,0,0,0-1.12.32.79.79,0,0,0,.29,1.09Z"/><path class="cls-2" d="M111.75,121.72a8.12,8.12,0,0,0,.14,4.66,3.38,3.38,0,0,0,2.92,2.19.59.59,0,0,0,.58-.51.56.56,0,0,0-.41-.62,2.56,2.56,0,0,1-1-.73,4,4,0,0,1-.36-.51c-.06-.1-.11-.21-.16-.31s0-.11-.08-.16,0,.17,0-.09a7.65,7.65,0,0,1-.06-3.53.78.78,0,0,0-.54-1,.82.82,0,0,0-1,.56Z"/><path class="cls-2" d="M115.36,123.16c.15.14.3.27.44.42l.2.22c.1.13,0-.07,0,.06l.08.12c.06.09.1.17.15.26,0-.08,0,0,0,.05l0,.12,0,.14a.15.15,0,0,1,0,.07c0-.06,0-.07,0,0v.14s0,.17,0,.09,0,.05,0,.07a.65.65,0,0,1,0,.13c0,.13.06-.08,0,0a.41.41,0,0,0-.07.11c.06-.08.08-.1,0-.06l0,0,0,0s0,0,.07,0a.82.82,0,0,0-.2.12l.08,0,0,0-.11,0h-.08s.15,0,0,0a.78.78,0,0,0-.22,0,.88.88,0,0,0-.42.11.55.55,0,0,0-.28.46.76.76,0,0,0,.7.76,1.59,1.59,0,0,0,.91-.13,1.63,1.63,0,0,0,.92-1.32c.14-1.11-.75-1.94-1.54-2.55a.45.45,0,0,0-.62,0,.44.44,0,0,0,0,.61Z"/><path class="cls-2" d="M116.21,123.13l.62-.21a2.81,2.81,0,0,0,.47-.21l.27-.18.16-.12a.78.78,0,0,0,.16-.24.73.73,0,0,0,0-.46.92.92,0,0,0-.19-.33.58.58,0,0,0-.24-.14.63.63,0,0,0-.27-.06l-.32,0a1.84,1.84,0,0,0-.33,0l-.16.05-.62.2a1,1,0,0,0-.53.41.83.83,0,0,0-.1.63.84.84,0,0,0,1,.6Z"/><path class="cls-2" d="M117.63,127.45l0,.46a2.2,2.2,0,0,0,0,.37l.06.22,0,.14a.57.57,0,0,0,.15.16.53.53,0,0,0,.34.11.74.74,0,0,0,.29-.08.61.61,0,0,0,.27-.34l.06-.23a2.23,2.23,0,0,0,0-.36l0-.46a.47.47,0,0,0-.05-.26.57.57,0,0,0-.15-.23.45.45,0,0,0-.22-.13.43.43,0,0,0-.25,0,.69.69,0,0,0-.5.21.64.64,0,0,0-.21.47Z"/><path class="cls-2" d="M120.15,121.87a6.7,6.7,0,0,0-.14,2.6,5.14,5.14,0,0,0,.91,2.39,1.49,1.49,0,0,0,1.16.66,1.52,1.52,0,0,0,1.23-.81,1.72,1.72,0,0,0-.22-2.44,1.35,1.35,0,0,0-1.47,0,2.17,2.17,0,0,0-.61.56,1.38,1.38,0,0,0-.26.78.58.58,0,0,0,1,.39c.05-.07.12-.14.18-.21s.16-.22.14-.18a1.14,1.14,0,0,1,.15-.16.52.52,0,0,1,.11-.1l0,0s.09-.07,0,0l-.07,0,0,0s0,0,0,0,0,0,0,0c0-.11,0,.08,0,.08s0,.13,0,.11a.43.43,0,0,1,0,.13,1.88,1.88,0,0,1-.22.33.6.6,0,0,1-.08.08l0,0h.15c-.08,0-.08,0,0,0l0,0s0,0,0,0L122,126c.08.1,0-.06,0-.08a1.82,1.82,0,0,1-.15-.27l-.11-.22s-.09-.22,0-.13a5.89,5.89,0,0,1-.31-1.09,5,5,0,0,1,0-2,.64.64,0,0,0-.45-.78.67.67,0,0,0-.81.46Z"/><path class="cls-2" d="M122.92,121.52a4.41,4.41,0,0,1,1.19,2.34,28,28,0,0,1,.31,3.29.68.68,0,0,0,.59.66.69.69,0,0,0,.75-.5,10.1,10.1,0,0,0,0-4,5.93,5.93,0,0,0-1.62-3.06c-.77-.75-2,.46-1.23,1.22Z"/><path class="cls-2" d="M112.51,140.09c-1.29,2.69-1.35,6.16.56,8.58.34.43,1-.13.75-.57a8.92,8.92,0,0,1-.49-7.56c.25-.55-.56-1-.82-.45Z"/><path class="cls-2" d="M114.4,142.52c-.05,1.4,0,3.1,1.19,4a1.47,1.47,0,0,0,2.15-.08,1,1,0,0,0,.17-.55.71.71,0,0,0-.38-.55,1.72,1.72,0,0,0-.84-.28,1.42,1.42,0,0,0-1.62,1.13c0,.43.51.55.78.31,0,0,.05,0,0,0l.09-.07.06-.07s.13-.11,0,0l.14-.1c.16-.12-.07,0,0,0l.1-.05c.06,0-.09,0,0,0l.14,0h.25c.06,0,0,0,0,0l.14,0c-.07,0,0,0,0,0l0,0,.1.09-.14-.35s0,0,0,0,0,0,0,0l-.06,0a.84.84,0,0,1-.48-.16,2.05,2.05,0,0,1-.68-.75,5.18,5.18,0,0,1-.41-2.59c0-.55-.83-.52-.85,0Z"/><path class="cls-2" d="M118.73,148l.07.31a1.77,1.77,0,0,0,.15.38l.07.09a.42.42,0,0,0,.14.09.23.23,0,0,0,.11,0,.47.47,0,0,0,.17,0,.72.72,0,0,0,.21-.12.42.42,0,0,0,.09-.14.33.33,0,0,0,0-.17v-.15s0-.05,0-.07a.22.22,0,0,0,0-.08l0-.3a.48.48,0,0,0-.07-.26l-.08-.11a.51.51,0,0,0-.23-.12.34.34,0,0,0-.2,0,.36.36,0,0,0-.2.06.41.41,0,0,0-.15.14.4.4,0,0,0-.1.18.46.46,0,0,0,0,.26Z"/><path class="cls-2" d="M120.42,142.31a7.53,7.53,0,0,0,.39,2.45,2.72,2.72,0,0,0,1.43,1.79,1.55,1.55,0,0,0,2-.78,1.3,1.3,0,0,0-.85-1.79,1.83,1.83,0,0,0-2.16,1.12.47.47,0,0,0,.69.52,2,2,0,0,0,.37-.27.69.69,0,0,1,.13-.11l.06-.06s0,0,0,0l.15-.09s.1,0,0,0l.09,0,.08,0s.1,0,0,0,0,0,0,0a.33.33,0,0,0,.1,0c-.09,0,0,0,0,0l.1,0h0l.13.07s0,0,0,0l.07.06c-.06-.06,0,0,0,.05s0,.08,0,.05v0a.19.19,0,0,0,0,.07c0-.05,0,0,0,0l0,0,0,.05-.06.05s.07,0,0,0-.13.07-.09.06,0,0,0,0l-.11,0c.09,0-.12,0-.07,0h0l-.08,0-.13,0-.15-.08a1.33,1.33,0,0,1-.46-.48,2.72,2.72,0,0,1-.29-.7,6.64,6.64,0,0,1-.29-2,.54.54,0,0,0-1.07,0Z"/><path class="cls-2" d="M123.29,141.15a3.86,3.86,0,0,1,1.53,2.9,16.51,16.51,0,0,1-.62,4.63.66.66,0,0,0,.38.77.7.7,0,0,0,.84-.29,10.81,10.81,0,0,0,1.08-5.53,5.43,5.43,0,0,0-2.33-4c-.9-.6-1.8.87-.88,1.48Z"/><path class="cls-2" d="M36,1.47A5,5,0,0,0,34,2.9a2,2,0,0,0,.13,2.26c.37.6,1.09,1.28.78,2.06s-1.3.91-2,.89c-.46,0-.51.61-.11.76a2.27,2.27,0,0,0,2.48-.56,2.07,2.07,0,0,0,.4-2.23c-.32-.74-1.23-1.41-1.22-2.26,0-.48.42-.8.78-1.06a6.92,6.92,0,0,1,1.22-.68c.44-.18.08-.8-.36-.61Z"/><path class="cls-2" d="M42.24,4.38C41.71,3.7,41,3,40.08,3.11S38.72,4.23,38.44,5s-.57,1.94.15,2.56a1.81,1.81,0,0,0,2.28,0,3.24,3.24,0,0,0,.91-1.1c.24-.46.36-1,.64-1.46l-.9-.35a2.8,2.8,0,0,0,1.7,3.74.53.53,0,0,0,.41-1,3,3,0,0,1-1-1.09,1.92,1.92,0,0,1-.13-1.44c.18-.61-.81-.84-.95-.24a5.87,5.87,0,0,1-.46,1.23,2.19,2.19,0,0,1-.66.87c-.45.33-1.26.31-1.34-.34a3.06,3.06,0,0,1,.18-1.27,2.88,2.88,0,0,1,.57-1.08c.68-.71,1.47.2,1.89.73.23.28.76-.11.54-.41Z"/><path class="cls-2" d="M46,7.9a2.12,2.12,0,0,1,.06-1A2.09,2.09,0,0,1,46.4,6c.37-.43.61,1,.68,1.11a.49.49,0,0,0,.94,0A6.89,6.89,0,0,1,48.56,6c.06-.09.06-.12.15-.11s.22.13.29.2a5.48,5.48,0,0,1,.8,2.07.6.6,0,0,0,.56.43.62.62,0,0,0,.58-.44,2.08,2.08,0,0,0,0-1,3.68,3.68,0,0,0-.33-.83A3.16,3.16,0,0,0,49.47,5.1a1.21,1.21,0,0,0-1.53.15,2.67,2.67,0,0,0-.39.7c-.13.29-.27.56-.42.84H48a4.61,4.61,0,0,0-.6-1.29,1,1,0,0,0-1.3-.23,2,2,0,0,0-.74,1.12,4.58,4.58,0,0,0-.18.73c0,.26,0,.54-.07.8a.45.45,0,0,0,.44.57A.48.48,0,0,0,46,7.9Z"/><path class="cls-2" d="M51.16,6.73c0,1.4,0,2.79,0,4.18,0,.69-.07,1.37-.08,2.05A5.17,5.17,0,0,0,51.32,15c.16.37.72.28.89,0a4.64,4.64,0,0,0,.43-2c0-.71,0-1.42.06-2.13,0-1.39,0-2.79,0-4.18a.75.75,0,0,0-1.5,0Z"/><path class="cls-2" d="M51.79,7.18c.37-.22.68-.51,1.06-.71L53,6.41l.06,0,.12,0h.3s0,0,0,0l.07,0,.12,0c.06,0-.06,0,0,0l0,0,0,0c.05,0,0-.05,0,0l.07.06s0-.06,0,0l0,.06s0,.08,0,0,0,0,0,0,0,0,0,.06,0-.06,0,0,0,.08,0,.12,0-.06,0,0,0,0,0,.08-.06.14,0,.07l-.06.12-.08.13a.21.21,0,0,0,0,.06c-.08.11,0,0,0,0a3.57,3.57,0,0,1-.43.44l0,0-.14.1a3.07,3.07,0,0,1-.31.17l-.29.14-.08,0c-.08,0,.15-.06,0,0a.67.67,0,0,0-.25.19.42.42,0,0,0,.18.71.91.91,0,0,0,.49,0,3.23,3.23,0,0,0,.42-.2,4.19,4.19,0,0,0,.66-.47,2.79,2.79,0,0,0,.92-1.27,1.24,1.24,0,0,0-.47-1.46,1.65,1.65,0,0,0-1.34-.13,6.66,6.66,0,0,0-1.47.88A.45.45,0,0,0,51.2,7a.44.44,0,0,0,.59.14Z"/><path class="cls-2" d="M54.39.73c.19,1.21.35,2.43.46,3.66s.21,2.44.42,3.66c.1.59,1,.4,1-.14a22.6,22.6,0,0,0-.22-3.76c-.15-1.25-.33-2.49-.53-3.73-.12-.74-1.25-.41-1.14.31Z"/><path class="cls-2" d="M58.13,7.52a3,3,0,0,0,2.94-.71,1.61,1.61,0,0,0,.41-1.32,1.45,1.45,0,0,0-.72-1.06,1.81,1.81,0,0,0-1.6.13,2.52,2.52,0,0,0-1.1,1A2,2,0,0,0,59,8.24a4,4,0,0,0,1.86.48,14.45,14.45,0,0,0,2.08,0,.5.5,0,0,0,.48-.42A.45.45,0,0,0,63,7.74a24.8,24.8,0,0,0-2.63-.37,2.28,2.28,0,0,1-1-.33,1.15,1.15,0,0,1-.48-.64c-.12-.55.53-1.08,1-1.24s.92.52.65,1c-.43.74-1.5.68-2.22.57a.44.44,0,0,0-.52.3.41.41,0,0,0,.3.5Z"/><path class="cls-2" d="M75.32,4.79a2.11,2.11,0,0,0-1.47,1.45.44.44,0,0,0,.11.44,4.28,4.28,0,0,1,1,.9.94.94,0,0,1,.13,1,1.13,1.13,0,0,1-.79.42,7.43,7.43,0,0,1-1.49,0c-.41,0-.66.64-.24.82,1.11.47,2.72.5,3.36-.73a1.9,1.9,0,0,0,0-1.72A3.62,3.62,0,0,0,74.62,6l.11.44a1.17,1.17,0,0,1,.8-.84.43.43,0,1,0-.21-.84Z"/><path class="cls-2" d="M77.28,7.12l.58,3.81a13.28,13.28,0,0,0,.86,3.71c.22.46.83.16.88-.24a13.4,13.4,0,0,0-.37-3.83l-.65-3.8a.67.67,0,0,0-.81-.46.7.7,0,0,0-.49.81Z"/><path class="cls-2" d="M78,7.22c.25-.42.58-1,1.11-1.1a1,1,0,0,1,1.06.72,1.79,1.79,0,0,1-.36,1.61,2,2,0,0,1-.58.56.74.74,0,0,1-.62.06.46.46,0,0,0-.52.08.41.41,0,0,0-.07.5,1.1,1.1,0,0,0,1,.48,1.78,1.78,0,0,0,1-.52,3.29,3.29,0,0,0,1-1.79A2.12,2.12,0,0,0,80.6,6a1.65,1.65,0,0,0-1.7-.48A3.07,3.07,0,0,0,77.42,6.9c-.23.37.37.69.59.32Z"/><path class="cls-2" d="M85.47,6.43a2.43,2.43,0,0,0-1.91-.69,1.77,1.77,0,0,0-1.22,1.4,2.12,2.12,0,0,0,.14,1.79,1.49,1.49,0,0,0,2.08.16A3.17,3.17,0,0,0,85.9,7.21l-1.2-.14A3.19,3.19,0,0,0,85.08,9a2.69,2.69,0,0,0,1.52,1.27.56.56,0,0,0,.54-.92,2.85,2.85,0,0,1-.23-.26l-.13-.14s-.11-.14,0,0a2.5,2.5,0,0,0-.18-.24c-.1-.13,0,.08,0-.05a3.79,3.79,0,0,1-.2-.34,3.07,3.07,0,0,1-.17-.31.36.36,0,0,1,0-.09c0,.07,0,.08,0,0l-.06-.17c0-.12-.06-.23-.09-.35s0-.12,0-.18,0-.21,0-.11a.61.61,0,0,0-.59-.6.65.65,0,0,0-.63.61q0,.1,0,0a.23.23,0,0,1,0,.11.9.9,0,0,1-.08.23c0-.09,0,.08,0,.08l-.12.2a1.65,1.65,0,0,1-.47.44.86.86,0,0,1-.39.15h-.1l-.07,0c-.06,0-.06,0,0,0l-.07-.07c.07.07,0,0,0,0s0-.06,0,0a.36.36,0,0,1,0-.09c0-.06,0-.12,0-.18V7.78a1.47,1.47,0,0,1,0-.21,3.11,3.11,0,0,1,0-.32,1.33,1.33,0,0,1,.28-.64c.42-.4,1.15.12,1.51.36s.74-.3.43-.54Z"/><path class="cls-2" d="M91.5,6a2.81,2.81,0,0,0-1.56-.21,1.92,1.92,0,0,0-1.14.93,2.26,2.26,0,0,0-.33,1.64,1.82,1.82,0,0,0,1,1.14,2.49,2.49,0,0,0,1,.23,3.53,3.53,0,0,0,1-.12.53.53,0,0,0,0-1l-.4,0c-.17,0-.35,0-.51,0l-.1,0-.2-.05-.17,0h0l-.07,0-.15-.08-.07,0,0,0-.12-.11,0-.06s0,0,0,0L89.61,8c0-.06,0,0,0,0l0-.09a.36.36,0,0,0,0-.1c0,.07,0,.07,0,0V7.69a.22.22,0,0,0,0-.08c0,.06,0,.06,0,0s0-.12,0-.18l.06-.16,0-.08h0a1.69,1.69,0,0,1,.17-.29c-.07.1,0,0,0-.06l.12-.11c-.09.08.05,0,.07,0l.08,0s0,0,0,0a.93.93,0,0,1,.32,0,3.08,3.08,0,0,1,.74.11.37.37,0,0,0,.44-.25A.34.34,0,0,0,91.5,6Z"/><path class="cls-2" d="M92.62,8a2.66,2.66,0,0,0,1.49.24,1.33,1.33,0,0,0,1-.83,1.17,1.17,0,0,0-.22-1.12,1.37,1.37,0,0,0-.9-.43A1.65,1.65,0,0,0,92.3,7.24a2.4,2.4,0,0,0,.85,2.51,3.25,3.25,0,0,0,2.93.14.51.51,0,0,0,.37-.53A.48.48,0,0,0,96,8.94c-.33,0-.67,0-1,0h-.28l-.1,0-.19-.05-.11,0s-.16,0-.06,0h0l-.09,0-.17-.1c-.08,0,.12.11,0,0l-.07-.06-.15-.15c-.07-.07.06.1,0,0a.41.41,0,0,1,0-.09s-.14-.24-.06-.09a1.76,1.76,0,0,1-.12-.45c0,.13,0,0,0-.09a.54.54,0,0,1,0-.18V7.38s0,.12,0,0l0-.13a1.09,1.09,0,0,1,0-.17s0,0,0,0l0-.08L93.68,7c.06-.1,0,0,0,0l.06-.07,0,0s0,0,0,0l.07,0c.06-.05,0,0,0,0s.12-.06.14,0-.11,0,0,0H94c-.12,0,0,0,0,0s0,0,0,0l.06,0,.06,0c-.07,0,0,0,0,0l0,0c.09.08,0-.06,0,0s0-.09,0,0a.19.19,0,0,0,0,.08c0-.11,0,0,0,0s.06-.13,0,0l0,.07,0,0s0,0,0,0l-.06.07c-.07.07.06,0,0,0l-.17.1c.12-.06,0,0,0,0h-.24A1.4,1.4,0,0,1,93.18,7a.57.57,0,0,0-.75.21.53.53,0,0,0,.19.73Z"/><path class="cls-2" d="M104.17,2.34a6.27,6.27,0,0,0-2.92,1.1,2.13,2.13,0,0,0-.32,2.7c.34.69,1.23,1.5.87,2.34s-1.42,1-2.2,1.2c-.51.12-.6,1,0,1.08a3.18,3.18,0,0,0,2.9-.95,2.54,2.54,0,0,0,.44-2.8,12.25,12.25,0,0,0-.73-1.19,1.7,1.7,0,0,1-.37-1.18c.09-.41.62-.6,1-.73a8,8,0,0,1,1.66-.46.57.57,0,1,0-.28-1.11Z"/><path class="cls-2" d="M31.73,13.87c2.49-.11,5-.2,7.49-.23s5,.07,7.5,0a.38.38,0,0,0,0-.76,72,72,0,0,0-7.49-.14c-2.51,0-5,.14-7.5.36-.46,0-.5.74,0,.72Z"/><path class="cls-2" d="M57.34,13.76c5.42-.27,10.88-.37,16.28-.91.45,0,.5-.71,0-.71-5.43,0-10.87.4-16.28.66-.62,0-.65,1,0,1Z"/><path class="cls-2" d="M84.67,13.11c5.19-.31,10.38-.29,15.58-.31a.41.41,0,0,0,0-.81,142.35,142.35,0,0,0-15.59.35c-.49,0-.52.8,0,.77Z"/><path class="cls-1" d="M15.76,56.73c14.57.26,29.14.24,43.71.38,7.25.07,14.49,0,21.74,0s14.65,0,22-.09c4.08,0,8.16-.11,12.24-.18s8.17,0,12.24-.19a.43.43,0,0,0,0-.85c-3.66-.05-7.33.11-11,.17s-7.33.07-11,.1q-10.87.08-21.74.21c-7.24.1-14.49.08-21.73,0s-14.66-.06-22-.11c-8.16-.07-16.32-.22-24.48-.33a.45.45,0,0,0,0,.89Z"/><path class="cls-1" d="M15.76,75.73c14.57.26,29.14.24,43.71.38,7.25.07,14.49,0,21.74,0s14.65,0,22-.09c4.08,0,8.16-.11,12.24-.18s8.17,0,12.24-.19a.43.43,0,0,0,0-.85c-3.66,0-7.33.11-11,.17s-7.33.07-11,.1q-10.87.08-21.74.21c-7.24.1-14.49.08-21.73,0s-14.66-.06-22-.11c-8.16-.07-16.32-.22-24.48-.33a.45.45,0,0,0,0,.89Z"/><path class="cls-1" d="M15.76,95.49c14.57.26,29.14.24,43.71.38,7.25.07,14.49,0,21.74,0s14.65,0,22-.09c4.08,0,8.16-.11,12.24-.17s8.17,0,12.24-.2a.43.43,0,0,0,0-.85c-3.66-.05-7.33.11-11,.17s-7.33.07-11,.1Q94.84,94.89,84,95c-7.24.09-14.49.07-21.73,0s-14.66-.05-22-.11c-8.16-.06-16.32-.22-24.48-.33a.45.45,0,0,0,0,.89Z"/><path class="cls-1" d="M15.76,113.49c14.57.26,29.14.24,43.71.38,7.25.07,14.49,0,21.74,0s14.65,0,22-.09c4.08,0,8.16-.11,12.24-.17s8.17,0,12.24-.2a.43.43,0,0,0,0-.85c-3.66-.05-7.33.11-11,.17s-7.33.07-11,.1q-10.87.07-21.74.22c-7.24.09-14.49.07-21.73,0s-14.66-.05-22-.11c-8.16-.06-16.32-.22-24.48-.33a.45.45,0,0,0,0,.89Z"/><path class="cls-1" d="M15.76,133c14.57.26,29.14.24,43.71.38,7.25.07,14.49,0,21.74,0s14.65,0,22-.09c4.08,0,8.16-.11,12.24-.17s8.17,0,12.24-.2a.43.43,0,0,0,0-.85c-3.66,0-7.33.11-11,.17s-7.33.07-11,.1q-10.87.08-21.74.22c-7.24.09-14.49.07-21.73,0s-14.66,0-22-.11c-8.16-.06-16.32-.22-24.48-.33a.45.45,0,0,0,0,.89Z"/><path class="cls-1" d="M31.08,41.52c.5,7.25.85,14.52.88,21.78,0,3.63-.09,7.26-.2,10.89s-.45,7.26-.34,10.88.72,7.14.72,10.73-.51,7-.72,10.57c-.42,7.18,0,14.4,0,21.58,0,4.06,0,8.11,0,12.17s0,8.28.16,12.41a.5.5,0,0,0,1,0c.1-3.63,0-7.28-.07-10.92s-.14-7.29-.17-10.93-.06-7.28-.09-10.92-.11-7.21,0-10.82.58-7.13.76-10.7a76.77,76.77,0,0,0-.49-10.61,70.91,70.91,0,0,1,0-10.71c.23-3.63.34-7.26.43-10.89a241.48,241.48,0,0,0-.57-24.51c-.06-.88-1.44-.85-1.38,0Z"/><path class="cls-1" d="M50,41.52c.49,7.25.85,14.52.88,21.78,0,3.63-.09,7.26-.21,10.89s-.44,7.26-.34,10.88S51,92.21,51,95.8s-.52,7-.72,10.57c-.42,7.18,0,14.4,0,21.58,0,4.06,0,8.11,0,12.17s0,8.28.16,12.41a.5.5,0,0,0,1,0c.09-3.63,0-7.28-.07-10.92s-.14-7.29-.18-10.93,0-7.28-.09-10.92-.1-7.21,0-10.82.57-7.13.76-10.7a76.78,76.78,0,0,0-.5-10.61,73.63,73.63,0,0,1,0-10.71c.24-3.63.35-7.26.43-10.89a241.47,241.47,0,0,0-.56-24.51c-.07-.88-1.44-.85-1.38,0Z"/><path class="cls-1" d="M69.67,41.52c.49,7.25.85,14.52.88,21.78,0,3.63-.09,7.26-.21,10.89S69.9,81.45,70,85.07s.72,7.14.73,10.73-.52,7-.72,10.57c-.42,7.18,0,14.4,0,21.58,0,4.06,0,8.11,0,12.17s0,8.28.16,12.41a.5.5,0,0,0,1,0c.09-3.63,0-7.28-.07-10.92S71,134.31,71,130.67s0-7.28-.09-10.92-.1-7.21,0-10.82.57-7.13.76-10.7a75.25,75.25,0,0,0-.5-10.61,72.24,72.24,0,0,1,0-10.71c.23-3.63.34-7.26.42-10.89a241.47,241.47,0,0,0-.56-24.51c-.07-.88-1.44-.85-1.38,0Z"/><path class="cls-1" d="M87.84,41.52c.5,7.25.85,14.52.88,21.78,0,3.63-.09,7.26-.2,10.89s-.45,7.26-.34,10.88.72,7.14.72,10.73-.51,7-.72,10.57c-.42,7.18,0,14.4,0,21.58,0,4.06,0,8.11,0,12.17s0,8.28.16,12.41a.5.5,0,0,0,1,0c.1-3.63,0-7.28-.07-10.92s-.14-7.29-.17-10.93-.06-7.28-.09-10.92-.1-7.21,0-10.82.58-7.13.76-10.7a76.77,76.77,0,0,0-.49-10.61,70.91,70.91,0,0,1,0-10.71c.23-3.63.34-7.26.43-10.89a241.48,241.48,0,0,0-.57-24.51c-.06-.88-1.44-.85-1.38,0Z"/><path class="cls-1" d="M107.14,41.52c.5,7.25.85,14.52.89,21.78,0,3.63-.09,7.26-.21,10.89s-.45,7.26-.34,10.88.72,7.14.72,10.73-.51,7-.72,10.57c-.42,7.18,0,14.4,0,21.58,0,4.06,0,8.11,0,12.17s0,8.28.16,12.41a.5.5,0,0,0,1,0c.1-3.63,0-7.28-.07-10.92s-.13-7.29-.17-10.93-.06-7.28-.09-10.92-.1-7.21,0-10.82.58-7.13.77-10.7a78.37,78.37,0,0,0-.5-10.61,70.91,70.91,0,0,1,0-10.71c.23-3.63.34-7.26.43-10.89a244.41,244.41,0,0,0-.56-24.51c-.07-.88-1.45-.85-1.39,0Z"/></svg>