<?xml version="1.0" encoding="utf-8" standalone="no"?>
<!DOCTYPE svg PUBLIC "-//W3C//DTD SVG 1.1//EN"
  "http://www.w3.org/Graphics/SVG/1.1/DTD/svg11.dtd">
<svg xmlns:xlink="http://www.w3.org/1999/xlink" width="453.222187pt" height="337.568281pt" viewBox="0 0 453.222187 337.568281" xmlns="http://www.w3.org/2000/svg" version="1.1">
 <metadata>
  <rdf:RDF xmlns:dc="http://purl.org/dc/elements/1.1/" xmlns:cc="http://creativecommons.org/ns#" xmlns:rdf="http://www.w3.org/1999/02/22-rdf-syntax-ns#">
   <cc:Work>
    <dc:type rdf:resource="http://purl.org/dc/dcmitype/StillImage"/>
    <dc:date>2024-03-26T06:46:51.190237</dc:date>
    <dc:format>image/svg+xml</dc:format>
    <dc:creator>
     <cc:Agent>
      <dc:title>Matplotlib v3.8.3, https://matplotlib.org/</dc:title>
     </cc:Agent>
    </dc:creator>
   </cc:Work>
  </rdf:RDF>
 </metadata>
 <defs>
  <style type="text/css">*{stroke-linejoin: round; stroke-linecap: butt}</style>
 </defs>
 <g id="figure_1">
  <g id="patch_1">
   <path d="M 0 337.568281 
L 453.222187 337.568281 
L 453.222187 0 
L 0 0 
z
" style="fill: #ffffff"/>
  </g>
  <g id="axes_1">
   <g id="patch_2">
    <path d="M 45.992188 299.905781 
L 446.022187 299.905781 
L 446.022187 11.025781 
L 45.992188 11.025781 
z
" style="fill: #ffffff"/>
   </g>
   <g id="matplotlib.axis_1">
    <g id="xtick_1">
     <g id="line2d_1">
      <path d="M 64.041662 299.905781 
L 64.041662 11.025781 
" clip-path="url(#pdfe444cd5b)" style="fill: none; stroke-dasharray: 2.22,0.96; stroke-dashoffset: 0; stroke: #6c6066; stroke-opacity: 0.4; stroke-width: 0.6"/>
     </g>
     <g id="line2d_2">
      <defs>
       <path id="m282e33f6f3" d="M 0 0 
L 0 3.5 
" style="stroke: #000000; stroke-width: 0.8"/>
      </defs>
      <g>
       <use xlink:href="#m282e33f6f3" x="64.041662" y="299.905781" style="stroke: #000000; stroke-width: 0.8"/>
      </g>
     </g>
     <g id="text_1">
      <!-- 0 -->
      <g transform="translate(61.031505 314.557344) scale(0.1 -0.1)">
       <defs>
        <path id="DejaVuSansMono-30" d="M 1509 2344 
Q 1509 2516 1629 2641 
Q 1750 2766 1919 2766 
Q 2094 2766 2219 2641 
Q 2344 2516 2344 2344 
Q 2344 2169 2220 2047 
Q 2097 1925 1919 1925 
Q 1744 1925 1626 2044 
Q 1509 2163 1509 2344 
z
M 1925 4250 
Q 1484 4250 1267 3775 
Q 1050 3300 1050 2328 
Q 1050 1359 1267 884 
Q 1484 409 1925 409 
Q 2369 409 2586 884 
Q 2803 1359 2803 2328 
Q 2803 3300 2586 3775 
Q 2369 4250 1925 4250 
z
M 1925 4750 
Q 2672 4750 3055 4137 
Q 3438 3525 3438 2328 
Q 3438 1134 3055 521 
Q 2672 -91 1925 -91 
Q 1178 -91 797 521 
Q 416 1134 416 2328 
Q 416 3525 797 4137 
Q 1178 4750 1925 4750 
z
" transform="scale(0.015625)"/>
       </defs>
       <use xlink:href="#DejaVuSansMono-30"/>
      </g>
     </g>
    </g>
    <g id="xtick_2">
     <g id="line2d_3">
      <path d="M 134.414097 299.905781 
L 134.414097 11.025781 
" clip-path="url(#pdfe444cd5b)" style="fill: none; stroke-dasharray: 2.22,0.96; stroke-dashoffset: 0; stroke: #6c6066; stroke-opacity: 0.4; stroke-width: 0.6"/>
     </g>
     <g id="line2d_4">
      <g>
       <use xlink:href="#m282e33f6f3" x="134.414097" y="299.905781" style="stroke: #000000; stroke-width: 0.8"/>
      </g>
     </g>
     <g id="text_2">
      <!-- 100 -->
      <g transform="translate(125.383629 314.557344) scale(0.1 -0.1)">
       <defs>
        <path id="DejaVuSansMono-31" d="M 844 531 
L 1825 531 
L 1825 4097 
L 769 3859 
L 769 4434 
L 1819 4666 
L 2450 4666 
L 2450 531 
L 3419 531 
L 3419 0 
L 844 0 
L 844 531 
z
" transform="scale(0.015625)"/>
       </defs>
       <use xlink:href="#DejaVuSansMono-31"/>
       <use xlink:href="#DejaVuSansMono-30" x="60.205078"/>
       <use xlink:href="#DejaVuSansMono-30" x="120.410156"/>
      </g>
     </g>
    </g>
    <g id="xtick_3">
     <g id="line2d_5">
      <path d="M 204.786533 299.905781 
L 204.786533 11.025781 
" clip-path="url(#pdfe444cd5b)" style="fill: none; stroke-dasharray: 2.22,0.96; stroke-dashoffset: 0; stroke: #6c6066; stroke-opacity: 0.4; stroke-width: 0.6"/>
     </g>
     <g id="line2d_6">
      <g>
       <use xlink:href="#m282e33f6f3" x="204.786533" y="299.905781" style="stroke: #000000; stroke-width: 0.8"/>
      </g>
     </g>
     <g id="text_3">
      <!-- 200 -->
      <g transform="translate(195.756064 314.557344) scale(0.1 -0.1)">
       <defs>
        <path id="DejaVuSansMono-32" d="M 1166 531 
L 3309 531 
L 3309 0 
L 475 0 
L 475 531 
Q 1059 1147 1496 1619 
Q 1934 2091 2100 2284 
Q 2413 2666 2522 2902 
Q 2631 3138 2631 3384 
Q 2631 3775 2401 3997 
Q 2172 4219 1772 4219 
Q 1488 4219 1175 4116 
Q 863 4013 513 3803 
L 513 4441 
Q 834 4594 1145 4672 
Q 1456 4750 1759 4750 
Q 2444 4750 2861 4386 
Q 3278 4022 3278 3431 
Q 3278 3131 3139 2831 
Q 3000 2531 2688 2169 
Q 2513 1966 2180 1606 
Q 1847 1247 1166 531 
z
" transform="scale(0.015625)"/>
       </defs>
       <use xlink:href="#DejaVuSansMono-32"/>
       <use xlink:href="#DejaVuSansMono-30" x="60.205078"/>
       <use xlink:href="#DejaVuSansMono-30" x="120.410156"/>
      </g>
     </g>
    </g>
    <g id="xtick_4">
     <g id="line2d_7">
      <path d="M 275.158969 299.905781 
L 275.158969 11.025781 
" clip-path="url(#pdfe444cd5b)" style="fill: none; stroke-dasharray: 2.22,0.96; stroke-dashoffset: 0; stroke: #6c6066; stroke-opacity: 0.4; stroke-width: 0.6"/>
     </g>
     <g id="line2d_8">
      <g>
       <use xlink:href="#m282e33f6f3" x="275.158969" y="299.905781" style="stroke: #000000; stroke-width: 0.8"/>
      </g>
     </g>
     <g id="text_4">
      <!-- 300 -->
      <g transform="translate(266.1285 314.557344) scale(0.1 -0.1)">
       <defs>
        <path id="DejaVuSansMono-33" d="M 2425 2497 
Q 2884 2375 3128 2064 
Q 3372 1753 3372 1288 
Q 3372 644 2939 276 
Q 2506 -91 1741 -91 
Q 1419 -91 1084 -31 
Q 750 28 428 141 
L 428 769 
Q 747 603 1056 522 
Q 1366 441 1672 441 
Q 2191 441 2469 675 
Q 2747 909 2747 1350 
Q 2747 1756 2469 1995 
Q 2191 2234 1716 2234 
L 1234 2234 
L 1234 2753 
L 1716 2753 
Q 2150 2753 2394 2943 
Q 2638 3134 2638 3475 
Q 2638 3834 2411 4026 
Q 2184 4219 1766 4219 
Q 1488 4219 1191 4156 
Q 894 4094 569 3969 
L 569 4550 
Q 947 4650 1242 4700 
Q 1538 4750 1766 4750 
Q 2447 4750 2855 4408 
Q 3263 4066 3263 3500 
Q 3263 3116 3048 2859 
Q 2834 2603 2425 2497 
z
" transform="scale(0.015625)"/>
       </defs>
       <use xlink:href="#DejaVuSansMono-33"/>
       <use xlink:href="#DejaVuSansMono-30" x="60.205078"/>
       <use xlink:href="#DejaVuSansMono-30" x="120.410156"/>
      </g>
     </g>
    </g>
    <g id="xtick_5">
     <g id="line2d_9">
      <path d="M 345.531405 299.905781 
L 345.531405 11.025781 
" clip-path="url(#pdfe444cd5b)" style="fill: none; stroke-dasharray: 2.22,0.96; stroke-dashoffset: 0; stroke: #6c6066; stroke-opacity: 0.4; stroke-width: 0.6"/>
     </g>
     <g id="line2d_10">
      <g>
       <use xlink:href="#m282e33f6f3" x="345.531405" y="299.905781" style="stroke: #000000; stroke-width: 0.8"/>
      </g>
     </g>
     <g id="text_5">
      <!-- 400 -->
      <g transform="translate(336.500936 314.557344) scale(0.1 -0.1)">
       <defs>
        <path id="DejaVuSansMono-34" d="M 2297 4091 
L 825 1625 
L 2297 1625 
L 2297 4091 
z
M 2194 4666 
L 2925 4666 
L 2925 1625 
L 3547 1625 
L 3547 1113 
L 2925 1113 
L 2925 0 
L 2297 0 
L 2297 1113 
L 319 1113 
L 319 1709 
L 2194 4666 
z
" transform="scale(0.015625)"/>
       </defs>
       <use xlink:href="#DejaVuSansMono-34"/>
       <use xlink:href="#DejaVuSansMono-30" x="60.205078"/>
       <use xlink:href="#DejaVuSansMono-30" x="120.410156"/>
      </g>
     </g>
    </g>
    <g id="xtick_6">
     <g id="line2d_11">
      <path d="M 415.903841 299.905781 
L 415.903841 11.025781 
" clip-path="url(#pdfe444cd5b)" style="fill: none; stroke-dasharray: 2.22,0.96; stroke-dashoffset: 0; stroke: #6c6066; stroke-opacity: 0.4; stroke-width: 0.6"/>
     </g>
     <g id="line2d_12">
      <g>
       <use xlink:href="#m282e33f6f3" x="415.903841" y="299.905781" style="stroke: #000000; stroke-width: 0.8"/>
      </g>
     </g>
     <g id="text_6">
      <!-- 500 -->
      <g transform="translate(406.873372 314.557344) scale(0.1 -0.1)">
       <defs>
        <path id="DejaVuSansMono-35" d="M 647 4666 
L 3009 4666 
L 3009 4134 
L 1222 4134 
L 1222 2988 
Q 1356 3038 1492 3061 
Q 1628 3084 1766 3084 
Q 2491 3084 2916 2656 
Q 3341 2228 3341 1497 
Q 3341 759 2895 334 
Q 2450 -91 1678 -91 
Q 1306 -91 998 -41 
Q 691 9 447 109 
L 447 750 
Q 734 594 1025 517 
Q 1316 441 1619 441 
Q 2141 441 2423 716 
Q 2706 991 2706 1497 
Q 2706 1997 2414 2275 
Q 2122 2553 1600 2553 
Q 1347 2553 1106 2495 
Q 866 2438 647 2322 
L 647 4666 
z
" transform="scale(0.015625)"/>
       </defs>
       <use xlink:href="#DejaVuSansMono-35"/>
       <use xlink:href="#DejaVuSansMono-30" x="60.205078"/>
       <use xlink:href="#DejaVuSansMono-30" x="120.410156"/>
      </g>
     </g>
    </g>
    <g id="text_7">
     <!-- price -->
     <g transform="translate(230.956406 328.288594) scale(0.1 -0.1)">
      <defs>
       <path id="DejaVuSansMono-70" d="M 1172 441 
L 1172 -1331 
L 594 -1331 
L 594 3500 
L 1172 3500 
L 1172 3053 
Q 1316 3313 1555 3448 
Q 1794 3584 2106 3584 
Q 2741 3584 3102 3093 
Q 3463 2603 3463 1734 
Q 3463 881 3100 395 
Q 2738 -91 2106 -91 
Q 1788 -91 1548 45 
Q 1309 181 1172 441 
z
M 2859 1747 
Q 2859 2416 2648 2756 
Q 2438 3097 2022 3097 
Q 1603 3097 1387 2755 
Q 1172 2413 1172 1747 
Q 1172 1084 1387 740 
Q 1603 397 2022 397 
Q 2438 397 2648 737 
Q 2859 1078 2859 1747 
z
" transform="scale(0.015625)"/>
       <path id="DejaVuSansMono-72" d="M 3609 2778 
Q 3425 2922 3234 2987 
Q 3044 3053 2816 3053 
Q 2278 3053 1993 2715 
Q 1709 2378 1709 1741 
L 1709 0 
L 1131 0 
L 1131 3500 
L 1709 3500 
L 1709 2816 
Q 1853 3188 2151 3386 
Q 2450 3584 2859 3584 
Q 3072 3584 3256 3531 
Q 3441 3478 3609 3366 
L 3609 2778 
z
" transform="scale(0.015625)"/>
       <path id="DejaVuSansMono-69" d="M 800 3500 
L 2272 3500 
L 2272 447 
L 3413 447 
L 3413 0 
L 556 0 
L 556 447 
L 1697 447 
L 1697 3053 
L 800 3053 
L 800 3500 
z
M 1697 4863 
L 2272 4863 
L 2272 4134 
L 1697 4134 
L 1697 4863 
z
" transform="scale(0.015625)"/>
       <path id="DejaVuSansMono-63" d="M 3316 178 
Q 3084 44 2839 -23 
Q 2594 -91 2338 -91 
Q 1525 -91 1067 396 
Q 609 884 609 1747 
Q 609 2609 1067 3096 
Q 1525 3584 2338 3584 
Q 2591 3584 2831 3518 
Q 3072 3453 3316 3316 
L 3316 2713 
Q 3088 2916 2858 3006 
Q 2628 3097 2338 3097 
Q 1797 3097 1506 2747 
Q 1216 2397 1216 1747 
Q 1216 1100 1508 748 
Q 1800 397 2338 397 
Q 2638 397 2875 489 
Q 3113 581 3316 775 
L 3316 178 
z
" transform="scale(0.015625)"/>
       <path id="DejaVuSansMono-65" d="M 3475 1894 
L 3475 1613 
L 984 1613 
L 984 1594 
Q 984 1022 1282 709 
Q 1581 397 2125 397 
Q 2400 397 2700 484 
Q 3000 572 3341 750 
L 3341 178 
Q 3013 44 2708 -23 
Q 2403 -91 2119 -91 
Q 1303 -91 843 398 
Q 384 888 384 1747 
Q 384 2584 834 3084 
Q 1284 3584 2034 3584 
Q 2703 3584 3089 3131 
Q 3475 2678 3475 1894 
z
M 2900 2063 
Q 2888 2569 2661 2833 
Q 2434 3097 2009 3097 
Q 1594 3097 1325 2822 
Q 1056 2547 1006 2059 
L 2900 2063 
z
" transform="scale(0.015625)"/>
      </defs>
      <use xlink:href="#DejaVuSansMono-70"/>
      <use xlink:href="#DejaVuSansMono-72" x="60.205078"/>
      <use xlink:href="#DejaVuSansMono-69" x="120.410156"/>
      <use xlink:href="#DejaVuSansMono-63" x="180.615234"/>
      <use xlink:href="#DejaVuSansMono-65" x="240.820312"/>
     </g>
    </g>
   </g>
   <g id="matplotlib.axis_2">
    <g id="ytick_1">
     <g id="line2d_13">
      <path d="M 45.992188 299.905781 
L 446.022187 299.905781 
" clip-path="url(#pdfe444cd5b)" style="fill: none; stroke-dasharray: 2.22,0.96; stroke-dashoffset: 0; stroke: #6c6066; stroke-opacity: 0.4; stroke-width: 0.6"/>
     </g>
     <g id="line2d_14">
      <defs>
       <path id="md1f3e08441" d="M 0 0 
L -3.5 0 
" style="stroke: #000000; stroke-width: 0.8"/>
      </defs>
      <g>
       <use xlink:href="#md1f3e08441" x="45.992188" y="299.905781" style="stroke: #000000; stroke-width: 0.8"/>
      </g>
     </g>
     <g id="text_8">
      <!-- 0.0 -->
      <g transform="translate(20.93125 303.731562) scale(0.1 -0.1)">
       <defs>
        <path id="DejaVuSansMono-2e" d="M 1528 953 
L 2316 953 
L 2316 0 
L 1528 0 
L 1528 953 
z
" transform="scale(0.015625)"/>
       </defs>
       <use xlink:href="#DejaVuSansMono-30"/>
       <use xlink:href="#DejaVuSansMono-2e" x="60.205078"/>
       <use xlink:href="#DejaVuSansMono-30" x="120.410156"/>
      </g>
     </g>
    </g>
    <g id="ytick_2">
     <g id="line2d_15">
      <path d="M 45.992188 242.129781 
L 446.022187 242.129781 
" clip-path="url(#pdfe444cd5b)" style="fill: none; stroke-dasharray: 2.22,0.96; stroke-dashoffset: 0; stroke: #6c6066; stroke-opacity: 0.4; stroke-width: 0.6"/>
     </g>
     <g id="line2d_16">
      <g>
       <use xlink:href="#md1f3e08441" x="45.992188" y="242.129781" style="stroke: #000000; stroke-width: 0.8"/>
      </g>
     </g>
     <g id="text_9">
      <!-- 0.2 -->
      <g transform="translate(20.93125 245.955562) scale(0.1 -0.1)">
       <use xlink:href="#DejaVuSansMono-30"/>
       <use xlink:href="#DejaVuSansMono-2e" x="60.205078"/>
       <use xlink:href="#DejaVuSansMono-32" x="120.410156"/>
      </g>
     </g>
    </g>
    <g id="ytick_3">
     <g id="line2d_17">
      <path d="M 45.992188 184.353781 
L 446.022187 184.353781 
" clip-path="url(#pdfe444cd5b)" style="fill: none; stroke-dasharray: 2.22,0.96; stroke-dashoffset: 0; stroke: #6c6066; stroke-opacity: 0.4; stroke-width: 0.6"/>
     </g>
     <g id="line2d_18">
      <g>
       <use xlink:href="#md1f3e08441" x="45.992188" y="184.353781" style="stroke: #000000; stroke-width: 0.8"/>
      </g>
     </g>
     <g id="text_10">
      <!-- 0.4 -->
      <g transform="translate(20.93125 188.179563) scale(0.1 -0.1)">
       <use xlink:href="#DejaVuSansMono-30"/>
       <use xlink:href="#DejaVuSansMono-2e" x="60.205078"/>
       <use xlink:href="#DejaVuSansMono-34" x="120.410156"/>
      </g>
     </g>
    </g>
    <g id="ytick_4">
     <g id="line2d_19">
      <path d="M 45.992188 126.577781 
L 446.022187 126.577781 
" clip-path="url(#pdfe444cd5b)" style="fill: none; stroke-dasharray: 2.22,0.96; stroke-dashoffset: 0; stroke: #6c6066; stroke-opacity: 0.4; stroke-width: 0.6"/>
     </g>
     <g id="line2d_20">
      <g>
       <use xlink:href="#md1f3e08441" x="45.992188" y="126.577781" style="stroke: #000000; stroke-width: 0.8"/>
      </g>
     </g>
     <g id="text_11">
      <!-- 0.6 -->
      <g transform="translate(20.93125 130.403562) scale(0.1 -0.1)">
       <defs>
        <path id="DejaVuSansMono-36" d="M 3097 4563 
L 3097 3981 
Q 2900 4097 2678 4158 
Q 2456 4219 2216 4219 
Q 1616 4219 1306 3767 
Q 997 3316 997 2438 
Q 1147 2750 1412 2917 
Q 1678 3084 2022 3084 
Q 2697 3084 3067 2670 
Q 3438 2256 3438 1497 
Q 3438 741 3056 325 
Q 2675 -91 1984 -91 
Q 1172 -91 794 492 
Q 416 1075 416 2328 
Q 416 3509 870 4129 
Q 1325 4750 2188 4750 
Q 2419 4750 2650 4701 
Q 2881 4653 3097 4563 
z
M 1972 2591 
Q 1569 2591 1337 2300 
Q 1106 2009 1106 1497 
Q 1106 984 1337 693 
Q 1569 403 1972 403 
Q 2391 403 2603 679 
Q 2816 956 2816 1497 
Q 2816 2041 2603 2316 
Q 2391 2591 1972 2591 
z
" transform="scale(0.015625)"/>
       </defs>
       <use xlink:href="#DejaVuSansMono-30"/>
       <use xlink:href="#DejaVuSansMono-2e" x="60.205078"/>
       <use xlink:href="#DejaVuSansMono-36" x="120.410156"/>
      </g>
     </g>
    </g>
    <g id="ytick_5">
     <g id="line2d_21">
      <path d="M 45.992188 68.801781 
L 446.022187 68.801781 
" clip-path="url(#pdfe444cd5b)" style="fill: none; stroke-dasharray: 2.22,0.96; stroke-dashoffset: 0; stroke: #6c6066; stroke-opacity: 0.4; stroke-width: 0.6"/>
     </g>
     <g id="line2d_22">
      <g>
       <use xlink:href="#md1f3e08441" x="45.992188" y="68.801781" style="stroke: #000000; stroke-width: 0.8"/>
      </g>
     </g>
     <g id="text_12">
      <!-- 0.8 -->
      <g transform="translate(20.93125 72.627563) scale(0.1 -0.1)">
       <defs>
        <path id="DejaVuSansMono-38" d="M 1925 2216 
Q 1503 2216 1273 1980 
Q 1044 1744 1044 1313 
Q 1044 881 1276 642 
Q 1509 403 1925 403 
Q 2350 403 2579 639 
Q 2809 875 2809 1313 
Q 2809 1741 2576 1978 
Q 2344 2216 1925 2216 
z
M 1375 2478 
Q 972 2581 745 2862 
Q 519 3144 519 3541 
Q 519 4097 897 4423 
Q 1275 4750 1925 4750 
Q 2578 4750 2956 4423 
Q 3334 4097 3334 3541 
Q 3334 3144 3107 2862 
Q 2881 2581 2478 2478 
Q 2947 2375 3195 2062 
Q 3444 1750 3444 1253 
Q 3444 622 3041 265 
Q 2638 -91 1925 -91 
Q 1213 -91 811 264 
Q 409 619 409 1247 
Q 409 1747 657 2061 
Q 906 2375 1375 2478 
z
M 1147 3481 
Q 1147 3106 1347 2909 
Q 1547 2713 1925 2713 
Q 2306 2713 2506 2909 
Q 2706 3106 2706 3481 
Q 2706 3863 2507 4063 
Q 2309 4263 1925 4263 
Q 1547 4263 1347 4061 
Q 1147 3859 1147 3481 
z
" transform="scale(0.015625)"/>
       </defs>
       <use xlink:href="#DejaVuSansMono-30"/>
       <use xlink:href="#DejaVuSansMono-2e" x="60.205078"/>
       <use xlink:href="#DejaVuSansMono-38" x="120.410156"/>
      </g>
     </g>
    </g>
    <g id="ytick_6">
     <g id="line2d_23">
      <path d="M 45.992188 11.025781 
L 446.022187 11.025781 
" clip-path="url(#pdfe444cd5b)" style="fill: none; stroke-dasharray: 2.22,0.96; stroke-dashoffset: 0; stroke: #6c6066; stroke-opacity: 0.4; stroke-width: 0.6"/>
     </g>
     <g id="line2d_24">
      <g>
       <use xlink:href="#md1f3e08441" x="45.992188" y="11.025781" style="stroke: #000000; stroke-width: 0.8"/>
      </g>
     </g>
     <g id="text_13">
      <!-- 1.0 -->
      <g transform="translate(20.93125 14.851562) scale(0.1 -0.1)">
       <use xlink:href="#DejaVuSansMono-31"/>
       <use xlink:href="#DejaVuSansMono-2e" x="60.205078"/>
       <use xlink:href="#DejaVuSansMono-30" x="120.410156"/>
      </g>
     </g>
    </g>
    <g id="text_14">
     <!-- probability -->
     <g transform="translate(14.851563 188.5775) rotate(-90) scale(0.1 -0.1)">
      <defs>
       <path id="DejaVuSansMono-6f" d="M 1925 3097 
Q 1488 3097 1263 2756 
Q 1038 2416 1038 1747 
Q 1038 1081 1263 739 
Q 1488 397 1925 397 
Q 2366 397 2591 739 
Q 2816 1081 2816 1747 
Q 2816 2416 2591 2756 
Q 2366 3097 1925 3097 
z
M 1925 3584 
Q 2653 3584 3039 3112 
Q 3425 2641 3425 1747 
Q 3425 850 3040 379 
Q 2656 -91 1925 -91 
Q 1197 -91 812 379 
Q 428 850 428 1747 
Q 428 2641 812 3112 
Q 1197 3584 1925 3584 
z
" transform="scale(0.015625)"/>
       <path id="DejaVuSansMono-62" d="M 2869 1747 
Q 2869 2416 2656 2756 
Q 2444 3097 2028 3097 
Q 1609 3097 1393 2755 
Q 1178 2413 1178 1747 
Q 1178 1084 1393 740 
Q 1609 397 2028 397 
Q 2444 397 2656 737 
Q 2869 1078 2869 1747 
z
M 1178 3053 
Q 1316 3309 1558 3446 
Q 1800 3584 2119 3584 
Q 2750 3584 3112 3098 
Q 3475 2613 3475 1759 
Q 3475 894 3111 401 
Q 2747 -91 2113 -91 
Q 1800 -91 1561 45 
Q 1322 181 1178 441 
L 1178 0 
L 603 0 
L 603 4863 
L 1178 4863 
L 1178 3053 
z
" transform="scale(0.015625)"/>
       <path id="DejaVuSansMono-61" d="M 2194 1759 
L 2003 1759 
Q 1500 1759 1245 1582 
Q 991 1406 991 1056 
Q 991 741 1181 566 
Q 1372 391 1709 391 
Q 2184 391 2456 720 
Q 2728 1050 2731 1631 
L 2731 1759 
L 2194 1759 
z
M 3309 1997 
L 3309 0 
L 2731 0 
L 2731 519 
Q 2547 206 2267 57 
Q 1988 -91 1588 -91 
Q 1053 -91 734 211 
Q 416 513 416 1019 
Q 416 1603 808 1906 
Q 1200 2209 1959 2209 
L 2731 2209 
L 2731 2300 
Q 2728 2719 2518 2908 
Q 2309 3097 1850 3097 
Q 1556 3097 1256 3012 
Q 956 2928 672 2766 
L 672 3341 
Q 991 3463 1283 3523 
Q 1575 3584 1850 3584 
Q 2284 3584 2592 3456 
Q 2900 3328 3091 3072 
Q 3209 2916 3259 2686 
Q 3309 2456 3309 1997 
z
" transform="scale(0.015625)"/>
       <path id="DejaVuSansMono-6c" d="M 1997 1269 
Q 1997 881 2139 684 
Q 2281 488 2559 488 
L 3231 488 
L 3231 0 
L 2503 0 
Q 1988 0 1705 331 
Q 1422 663 1422 1269 
L 1422 4447 
L 500 4447 
L 500 4897 
L 1997 4897 
L 1997 1269 
z
" transform="scale(0.015625)"/>
       <path id="DejaVuSansMono-74" d="M 1919 4494 
L 1919 3500 
L 3225 3500 
L 3225 3053 
L 1919 3053 
L 1919 1153 
Q 1919 766 2066 612 
Q 2213 459 2578 459 
L 3225 459 
L 3225 0 
L 2522 0 
Q 1875 0 1609 259 
Q 1344 519 1344 1153 
L 1344 3053 
L 409 3053 
L 409 3500 
L 1344 3500 
L 1344 4494 
L 1919 4494 
z
" transform="scale(0.015625)"/>
       <path id="DejaVuSansMono-79" d="M 2681 1125 
Q 2538 759 2316 163 
Q 2006 -663 1900 -844 
Q 1756 -1088 1540 -1209 
Q 1325 -1331 1038 -1331 
L 575 -1331 
L 575 -850 
L 916 -850 
Q 1169 -850 1312 -703 
Q 1456 -556 1678 56 
L 325 3500 
L 934 3500 
L 1972 763 
L 2994 3500 
L 3603 3500 
L 2681 1125 
z
" transform="scale(0.015625)"/>
      </defs>
      <use xlink:href="#DejaVuSansMono-70"/>
      <use xlink:href="#DejaVuSansMono-72" x="60.205078"/>
      <use xlink:href="#DejaVuSansMono-6f" x="120.410156"/>
      <use xlink:href="#DejaVuSansMono-62" x="180.615234"/>
      <use xlink:href="#DejaVuSansMono-61" x="240.820312"/>
      <use xlink:href="#DejaVuSansMono-62" x="301.025391"/>
      <use xlink:href="#DejaVuSansMono-69" x="361.230469"/>
      <use xlink:href="#DejaVuSansMono-6c" x="421.435547"/>
      <use xlink:href="#DejaVuSansMono-69" x="481.640625"/>
      <use xlink:href="#DejaVuSansMono-74" x="541.845703"/>
      <use xlink:href="#DejaVuSansMono-79" x="602.050781"/>
     </g>
    </g>
   </g>
   <g id="line2d_25">
    <path d="M 64.175369 299.905781 
L 64.175369 299.883984 
L 66.152835 299.774997 
L 66.152835 299.7532 
L 68.116226 299.644213 
L 68.116226 299.622416 
L 71.318172 299.513429 
L 71.325209 299.469835 
L 72.254125 299.360848 
L 72.254125 299.339051 
L 72.978961 299.230064 
L 72.993036 299.186469 
L 73.964175 299.077483 
L 74.006399 299.033888 
L 74.506043 298.924901 
L 74.506043 298.903104 
L 75.568667 298.794117 
L 75.568667 298.77232 
L 76.202019 298.663334 
L 76.244242 298.619739 
L 76.539806 298.510752 
L 76.539806 298.467158 
L 77.412424 298.358171 
L 77.412424 298.336374 
L 78.116149 298.227387 
L 78.158372 298.183792 
L 78.714315 298.074806 
L 78.742464 298.031211 
L 79.277294 297.922224 
L 79.326555 297.87863 
L 79.601007 297.769643 
L 79.692491 297.704251 
L 80.07954 297.595264 
L 80.163987 297.508075 
L 80.635482 297.399088 
L 80.698817 297.333696 
L 80.881786 297.22471 
L 80.97327 297.159318 
L 81.085866 297.050331 
L 81.170313 296.919547 
L 81.318095 296.832358 
L 81.318095 296.810561 
L 81.423653 296.723371 
L 81.627733 296.614385 
L 81.719218 296.527195 
L 81.91626 296.418209 
L 82.014782 296.352817 
L 82.19775 296.24383 
L 82.225899 296.200235 
L 82.697394 296.091249 
L 82.788879 295.982262 
L 83.140741 295.873275 
L 83.211113 295.786086 
L 83.351858 295.677099 
L 83.429268 295.633505 
L 83.738906 295.524518 
L 83.752981 295.480923 
L 84.252625 295.371937 
L 84.351147 295.241153 
L 84.695972 295.132166 
L 84.80153 294.979585 
L 84.984499 294.870598 
L 85.033759 294.805206 
L 85.301175 294.69622 
L 85.36451 294.60903 
L 85.779707 294.500044 
L 85.828968 294.456449 
L 86.10342 294.36926 
L 86.10342 294.347462 
L 86.173793 294.303868 
L 86.391947 294.216678 
L 86.391947 294.194881 
L 86.490469 294.0423 
L 86.729735 293.933313 
L 86.786033 293.846124 
L 87.046411 293.737137 
L 87.144932 293.649948 
L 87.243454 293.540961 
L 87.243454 293.497367 
L 87.468646 293.38838 
L 87.539018 293.279393 
L 87.665688 293.170407 
L 87.729024 293.083217 
L 87.919029 292.974231 
L 88.003476 292.865244 
L 88.137184 292.756257 
L 88.235705 292.625473 
L 88.45386 292.516487 
L 88.524232 292.451095 
L 88.756461 292.342108 
L 88.86202 292.233121 
L 89.002765 292.124135 
L 89.108323 292.036946 
L 89.312403 291.927959 
L 89.375739 291.862567 
L 89.615005 291.775378 
L 89.615005 291.75358 
L 89.706489 291.600999 
L 89.945755 291.492012 
L 90.023165 291.42662 
L 90.107612 291.339431 
L 90.107612 291.317634 
L 90.206133 291.208647 
L 90.325766 291.09966 
L 90.417251 290.968876 
L 90.543921 290.881687 
L 90.543921 290.85989 
L 90.579107 290.7727 
L 90.832448 290.663714 
L 90.930969 290.489335 
L 91.1069 290.380349 
L 91.212459 290.271362 
L 91.374316 290.162375 
L 91.472837 290.031591 
L 91.606545 289.922605 
L 91.705066 289.748226 
L 91.768401 289.639239 
L 91.866923 289.486658 
L 91.930258 289.377671 
L 92.028779 289.246887 
L 92.211748 289.137901 
L 92.310269 288.941725 
L 92.472126 288.832738 
L 92.56361 288.701954 
L 92.669169 288.592968 
L 92.746578 288.462184 
L 92.887323 288.353197 
L 92.978807 288.157021 
L 93.091403 288.048034 
L 93.196962 287.808264 
L 93.372893 287.699277 
L 93.478452 287.524898 
L 93.675494 287.415912 
L 93.766979 287.241533 
L 93.94291 287.132547 
L 93.985133 287.02356 
L 94.189213 286.914573 
L 94.287735 286.761992 
L 94.35107 286.653005 
L 94.456628 286.435032 
L 94.688857 286.326045 
L 94.794416 286.064477 
L 94.843677 285.977288 
L 94.843677 285.955491 
L 94.928124 285.781112 
L 95.104055 285.672125 
L 95.209613 285.454152 
L 95.315172 285.345166 
L 95.357396 285.257976 
L 95.49814 285.14899 
L 95.582587 284.996408 
L 95.772593 284.887422 
L 95.864077 284.756638 
L 95.997785 284.669448 
L 95.997785 284.647651 
L 96.089269 284.538664 
L 96.215939 284.429678 
L 96.321498 284.211704 
L 96.462243 284.102718 
L 96.553727 283.906542 
L 96.67336 283.797555 
L 96.778919 283.535987 
L 96.870403 283.427001 
L 96.975962 283.18723 
L 97.053371 283.078243 
L 97.15893 282.947459 
L 97.271526 282.838473 
L 97.377085 282.664094 
L 97.44042 282.555107 
L 97.517829 282.424323 
L 97.6445 282.315337 
L 97.707835 282.140958 
L 97.883766 282.031972 
L 97.954138 281.922985 
L 98.05266 281.813998 
L 98.158219 281.617822 
L 98.228591 281.508836 
L 98.291926 281.378052 
L 98.397485 281.290862 
L 98.397485 281.269065 
L 98.488969 281.051092 
L 98.566379 280.942105 
L 98.608602 280.876713 
L 98.79157 280.767726 
L 98.876017 280.636942 
L 99.009725 280.527956 
L 99.115284 280.288185 
L 99.213805 280.179199 
L 99.284178 280.113807 
L 99.361587 280.00482 
L 99.396773 279.852239 
L 99.551593 279.786847 
L 99.551593 279.743252 
L 99.63604 279.612468 
L 99.804934 279.503481 
L 99.910492 279.329103 
L 100.001976 279.220116 
L 100.107535 278.980345 
L 100.213094 278.871359 
L 100.318652 278.69698 
L 100.396062 278.587994 
L 100.494583 278.479007 
L 100.543844 278.37002 
L 100.635328 278.195642 
L 100.754961 278.086655 
L 100.853483 277.934074 
L 100.994228 277.846884 
L 100.994228 277.825087 
L 101.092749 277.694303 
L 101.163122 277.585316 
L 101.26868 277.410938 
L 101.317941 277.301951 
L 101.402388 277.214762 
L 101.507946 277.105775 
L 101.613505 276.953194 
L 101.669803 276.844207 
L 101.775362 276.604437 
L 101.923144 276.49545 
L 102.014628 276.255679 
L 102.077963 276.16849 
L 102.077963 276.146693 
L 102.183522 276.037706 
L 102.246857 275.928719 
L 102.352416 275.754341 
L 102.465012 275.645354 
L 102.57057 275.427381 
L 102.697241 275.318394 
L 102.802799 275.122218 
L 102.950581 275.013232 
L 103.05614 274.86065 
L 103.168736 274.751664 
L 103.274295 274.402906 
L 103.351704 274.29392 
L 103.457263 273.923365 
L 103.576896 273.814379 
L 103.675418 273.618203 
L 103.773939 273.509216 
L 103.865423 273.378432 
L 103.942833 273.269445 
L 104.048391 273.116864 
L 104.090615 273.029675 
L 104.090615 273.007877 
L 104.196174 272.855296 
L 104.28062 272.746309 
L 104.386179 272.571931 
L 104.491738 272.462944 
L 104.56211 272.244971 
L 104.681743 272.135984 
L 104.773228 272.0052 
L 104.92101 271.918011 
L 104.92101 271.896214 
L 105.012494 271.656443 
L 105.167313 271.547456 
L 105.265835 271.329483 
L 105.350281 271.220496 
L 105.37843 271.11151 
L 105.554362 271.002523 
L 105.65992 270.806347 
L 105.765479 270.697361 
L 105.849926 270.544779 
L 105.969559 270.435793 
L 106.075118 270.305009 
L 106.159565 270.217819 
L 106.159565 270.196022 
L 106.244011 270.065238 
L 106.328458 269.956251 
L 106.384756 269.825467 
L 106.525501 269.716481 
L 106.63106 269.345926 
L 106.715507 269.236939 
L 106.821065 269.084358 
L 106.926624 268.975372 
L 107.011071 268.779196 
L 107.088481 268.692006 
L 107.088481 268.670209 
L 107.179965 268.49583 
L 107.264412 268.408641 
L 107.264412 268.386844 
L 107.36997 268.190668 
L 107.419231 268.081681 
L 107.489604 267.907302 
L 107.581088 267.798316 
L 107.679609 267.536748 
L 107.714795 267.51495 
L 107.714795 267.427761 
L 107.813317 267.362369 
L 107.890726 267.253383 
L 107.996285 267.079004 
L 108.073695 266.970017 
L 108.179253 266.773841 
L 108.228514 266.664855 
L 108.327036 266.534071 
L 108.411482 266.425084 
L 108.510004 266.228908 
L 108.615563 266.141719 
L 108.615563 266.119921 
L 108.721121 265.923745 
L 108.847792 265.814759 
L 108.95335 265.378812 
L 109.03076 265.269826 
L 109.115207 265.139042 
L 109.220765 265.030055 
L 109.319287 264.833879 
L 109.417808 264.724892 
L 109.51633 264.594108 
L 109.579665 264.485122 
L 109.685224 264.267148 
L 109.783745 264.179959 
L 109.783745 264.158162 
L 109.854117 264.005581 
L 110.030048 263.896594 
L 110.12857 263.700418 
L 110.177831 263.613229 
L 110.177831 263.591431 
L 110.262278 263.43885 
L 110.318575 263.351661 
L 110.318575 263.329863 
L 110.424134 263.090093 
L 110.53673 262.981106 
L 110.642289 262.763133 
L 110.719698 262.654146 
L 110.81822 262.414376 
L 110.902667 262.327186 
L 110.902667 262.305389 
L 111.008225 262.087416 
L 111.099709 261.978429 
L 111.198231 261.716861 
L 111.22638 261.607874 
L 111.324901 261.455293 
L 111.360088 261.346306 
L 111.465646 261.084738 
L 111.50787 260.975752 
L 111.606391 260.757779 
L 111.697875 260.648792 
L 111.796397 260.321832 
L 111.859732 260.212845 
L 111.951216 260.103859 
L 112.063812 259.994872 
L 112.148259 259.820493 
L 112.197519 259.733304 
L 112.197519 259.711507 
L 112.296041 259.493533 
L 112.352339 259.384547 
L 112.457898 258.9486 
L 112.500121 258.839614 
L 112.60568 258.62164 
L 112.669015 258.512654 
L 112.774573 258.29468 
L 112.830871 258.185694 
L 112.908281 257.96772 
L 112.978654 257.858734 
L 113.084212 257.575369 
L 113.105324 257.466382 
L 113.203845 257.248409 
L 113.260143 257.139422 
L 113.358665 256.877854 
L 113.414963 256.768867 
L 113.506447 256.332921 
L 113.576819 256.245731 
L 113.576819 256.223934 
L 113.682378 256.09315 
L 113.717564 255.984164 
L 113.823123 255.831582 
L 113.851272 255.809785 
L 113.851272 255.722596 
L 113.935719 255.570014 
L 114.03424 255.461028 
L 114.132761 255.264852 
L 114.203134 255.155865 
L 114.301655 254.8725 
L 114.379065 254.78531 
L 114.379065 254.763513 
L 114.477586 254.567337 
L 114.576108 254.45835 
L 114.681666 254.240377 
L 114.737964 254.174985 
L 114.737964 254.131391 
L 114.836486 253.978809 
L 114.92797 253.869823 
L 115.033529 253.455673 
L 115.146125 253.346687 
L 115.251683 252.997929 
L 115.315018 252.888943 
L 115.392428 252.714564 
L 115.490949 252.605578 
L 115.596508 252.322212 
L 115.737253 252.213226 
L 115.828737 251.973455 
L 115.89911 251.886266 
L 115.89911 251.864468 
L 115.990594 251.755482 
L 116.060966 251.668292 
L 116.060966 251.646495 
L 116.131339 251.406724 
L 116.22986 251.297738 
L 116.335419 250.905386 
L 116.405791 250.796399 
L 116.483201 250.491237 
L 116.567648 250.38225 
L 116.673206 250.098885 
L 116.750616 249.989898 
L 116.849137 249.662938 
L 116.884324 249.575749 
L 116.884324 249.553951 
L 116.940622 249.444965 
L 117.053218 249.335978 
L 117.151739 249.096208 
L 117.208037 248.987221 
L 117.313596 248.660261 
L 117.383968 248.551274 
L 117.475452 248.246112 
L 117.559899 248.137125 
L 117.651383 247.984544 
L 117.771016 247.875557 
L 117.876575 247.635787 
L 117.93991 247.5268 
L 118.038432 247.221637 
L 118.122879 247.134448 
L 118.122879 247.112651 
L 118.228437 246.916475 
L 118.270661 246.807488 
L 118.376219 246.502325 
L 118.432517 246.393339 
L 118.531039 246.262555 
L 118.615486 246.153568 
L 118.721044 245.826608 
L 118.798454 245.717622 
L 118.904013 245.543243 
L 118.946236 245.477851 
L 118.946236 245.434256 
L 119.044757 245.063702 
L 119.136242 244.954715 
L 119.2418 244.627755 
L 119.326247 244.518768 
L 119.424769 244.34439 
L 119.459955 244.235403 
L 119.544402 243.886646 
L 119.642923 243.777659 
L 119.748482 243.603281 
L 119.776631 243.494294 
L 119.875152 243.254523 
L 119.994785 243.145537 
L 120.093307 242.840374 
L 120.163679 242.731388 
L 120.248126 242.426225 
L 120.332573 242.317238 
L 120.438132 242.012076 
L 120.501467 241.924886 
L 120.501467 241.903089 
L 120.599988 241.641521 
L 120.663324 241.532534 
L 120.74777 241.292764 
L 120.832217 241.183777 
L 120.937776 240.791425 
L 121.001111 240.704236 
L 121.001111 240.682439 
L 121.085558 240.442668 
L 121.155931 240.333681 
L 121.240377 240.028519 
L 121.324824 239.919532 
L 121.416309 239.679761 
L 121.521867 239.570775 
L 121.606314 239.309207 
L 121.704836 239.222018 
L 121.704836 239.20022 
L 121.810394 238.807868 
L 121.944102 238.698882 
L 122.035586 238.459111 
L 122.105958 238.350124 
L 122.190405 238.023164 
L 122.260778 237.957772 
L 122.260778 237.914178 
L 122.359299 237.739799 
L 122.401523 237.65261 
L 122.401523 237.630813 
L 122.493007 237.412839 
L 122.556342 237.303853 
L 122.640789 237.020487 
L 122.711161 236.933298 
L 122.711161 236.911501 
L 122.81672 236.540946 
L 122.94339 236.431959 
L 123.048949 236.192189 
L 123.09821 236.105 
L 123.09821 236.083202 
L 123.203768 235.756242 
L 123.267104 235.669053 
L 123.267104 235.647256 
L 123.365625 235.45108 
L 123.42896 235.342093 
L 123.527482 235.058728 
L 123.576742 234.971538 
L 123.576742 234.949741 
L 123.682301 234.688173 
L 123.717487 234.579187 
L 123.823046 234.077848 
L 123.900456 233.968861 
L 124.006014 233.707293 
L 124.062312 233.598307 
L 124.153796 233.336739 
L 124.224169 233.227752 
L 124.329727 232.900792 
L 124.4001 232.791806 
L 124.505659 232.486643 
L 124.561956 232.377656 
L 124.667515 232.050696 
L 124.758999 231.94171 
L 124.857521 231.701939 
L 124.93493 231.592952 
L 125.040489 231.396776 
L 125.103824 231.28779 
L 125.202346 231.048019 
L 125.244569 230.939033 
L 125.350128 230.546681 
L 125.378277 230.437694 
L 125.476798 230.132531 
L 125.540133 230.045342 
L 125.540133 230.023545 
L 125.638655 229.805571 
L 125.70199 229.696585 
L 125.807549 229.522206 
L 125.842735 229.41322 
L 125.948293 229.042665 
L 125.98348 228.933678 
L 126.067927 228.606718 
L 126.166448 228.497732 
L 126.243858 228.323353 
L 126.31423 228.257961 
L 126.31423 228.214366 
L 126.412752 227.974596 
L 126.490161 227.865609 
L 126.588683 227.516852 
L 126.630906 227.45146 
L 126.630906 227.407865 
L 126.736465 227.059108 
L 126.771651 226.950121 
L 126.87721 226.557769 
L 126.92647 226.492377 
L 126.92647 226.448783 
L 127.032029 226.317999 
L 127.060178 226.23081 
L 127.060178 226.209012 
L 127.165737 225.860255 
L 127.193886 225.751268 
L 127.28537 225.4897 
L 127.41204 225.402511 
L 127.41204 225.380714 
L 127.517599 225.16274 
L 127.566859 225.075551 
L 127.566859 225.053754 
L 127.672418 224.726794 
L 127.742791 224.617807 
L 127.8202 224.508821 
L 127.89761 224.421631 
L 127.89761 224.399834 
L 128.003169 224.072874 
L 128.059467 223.963887 
L 128.165025 223.789509 
L 128.221323 223.680522 
L 128.291696 223.462549 
L 128.38318 223.353562 
L 128.488738 223.179183 
L 128.559111 223.070197 
L 128.664669 222.547061 
L 128.71393 222.438074 
L 128.819489 222.111114 
L 128.882824 222.002128 
L 128.974308 221.718762 
L 129.065792 221.609776 
L 129.171351 221.370005 
L 129.227649 221.261019 
L 129.305059 221.064843 
L 129.368394 220.955856 
L 129.473952 220.628896 
L 129.523213 220.541707 
L 129.523213 220.519909 
L 129.628772 220.280139 
L 129.656921 220.192949 
L 129.656921 220.171152 
L 129.755442 219.974976 
L 129.818777 219.887787 
L 129.818777 219.86599 
L 129.924336 219.604422 
L 129.987671 219.495435 
L 130.09323 219.081286 
L 130.135453 218.972299 
L 130.241012 218.776123 
L 130.318422 218.688934 
L 130.318422 218.667136 
L 130.416943 218.383771 
L 130.487316 218.274784 
L 130.592874 218.056811 
L 130.649172 217.969622 
L 130.649172 217.947825 
L 130.754731 217.664459 
L 130.818066 217.555473 
L 130.90955 217.293905 
L 130.972885 217.184918 
L 131.078444 216.988742 
L 131.141779 216.879755 
L 131.247338 216.530998 
L 131.296599 216.422012 
L 131.388083 216.225836 
L 131.465492 216.116849 
L 131.571051 215.855281 
L 131.620312 215.746294 
L 131.72587 215.397537 
L 131.782168 215.310348 
L 131.782168 215.28855 
L 131.887727 215.026982 
L 131.936988 214.917996 
L 132.042546 214.503847 
L 132.08477 214.39486 
L 132.183291 214.176887 
L 132.246626 214.089697 
L 132.246626 214.0679 
L 132.345148 213.828129 
L 132.443669 213.719143 
L 132.549228 213.348588 
L 132.661824 213.239602 
L 132.760345 213.021628 
L 132.82368 212.934439 
L 132.82368 212.912642 
L 132.915165 212.629276 
L 132.9785 212.52029 
L 133.084058 212.062546 
L 133.168505 211.953559 
L 133.274064 211.713788 
L 133.302213 211.604802 
L 133.407772 211.168855 
L 133.471107 211.059869 
L 133.548517 210.754706 
L 133.654075 210.645719 
L 133.759634 210.384151 
L 133.815932 210.275165 
L 133.914453 209.970002 
L 134.012975 209.861016 
L 134.111496 209.57765 
L 134.195943 209.490461 
L 134.195943 209.468664 
L 134.28039 209.119906 
L 134.343725 209.01092 
L 134.449284 208.705757 
L 134.526693 208.59677 
L 134.61114 208.357 
L 134.709662 208.291608 
L 134.709662 208.248013 
L 134.794109 207.942851 
L 134.878556 207.833864 
L 134.984114 207.550499 
L 135.033375 207.441512 
L 135.138934 207.201741 
L 135.188194 207.092755 
L 135.286716 206.831187 
L 135.314865 206.7222 
L 135.420423 206.504227 
L 135.469684 206.39524 
L 135.575243 206.199064 
L 135.645615 206.090078 
L 135.744137 205.893902 
L 135.793397 205.806712 
L 135.793397 205.784915 
L 135.898956 205.436158 
L 135.934142 205.348968 
L 135.934142 205.327171 
L 136.039701 204.978414 
L 136.124148 204.869427 
L 136.222669 204.542467 
L 136.27193 204.455278 
L 136.27193 204.433481 
L 136.377488 204.237305 
L 136.412675 204.150115 
L 136.412675 204.128318 
L 136.518233 203.714169 
L 136.581568 203.605182 
L 136.68009 203.21283 
L 136.743425 203.103844 
L 136.848984 202.733289 
L 136.88417 202.624302 
L 136.975654 202.428126 
L 137.067138 202.31914 
L 137.172697 201.99218 
L 137.257144 201.883193 
L 137.362703 201.621625 
L 137.426038 201.534436 
L 137.426038 201.512639 
L 137.524559 201.251071 
L 137.566783 201.142084 
L 137.672341 200.836921 
L 137.728639 200.727935 
L 137.820123 200.422772 
L 137.862347 200.313785 
L 137.953831 200.052218 
L 138.052352 199.965028 
L 138.052352 199.943231 
L 138.150874 199.681663 
L 138.235321 199.572676 
L 138.340879 199.311108 
L 138.432364 199.202122 
L 138.537922 198.962351 
L 138.566071 198.853364 
L 138.67163 198.548202 
L 138.74904 198.439215 
L 138.854598 198.199445 
L 138.910896 198.112255 
L 138.910896 198.090458 
L 139.016455 197.785295 
L 139.051641 197.719903 
L 139.051641 197.676309 
L 139.1572 197.371146 
L 139.192386 197.262159 
L 139.297945 196.978794 
L 139.340168 196.869808 
L 139.438689 196.695429 
L 139.502025 196.586442 
L 139.607583 196.368469 
L 139.684993 196.259482 
L 139.790552 195.888928 
L 139.84685 195.779941 
L 139.931296 195.62736 
L 139.987594 195.518373 
L 140.065004 195.278602 
L 140.184637 195.169616 
L 140.290196 194.842656 
L 140.339457 194.733669 
L 140.445015 194.450304 
L 140.501313 194.363115 
L 140.501313 194.341317 
L 140.606872 194.014357 
L 140.627984 193.927168 
L 140.627984 193.905371 
L 140.719468 193.709195 
L 140.796877 193.600208 
L 140.902436 193.251451 
L 140.979846 193.142464 
L 141.078367 193.01168 
L 141.162814 192.902694 
L 141.268373 192.77191 
L 141.310596 192.68472 
L 141.310596 192.662923 
L 141.409118 192.401355 
L 141.465416 192.292368 
L 141.5569 192.096192 
L 141.613198 192.009003 
L 141.613198 191.987206 
L 141.704682 191.747435 
L 141.796166 191.638449 
L 141.901725 191.376881 
L 141.972097 191.267894 
L 142.077656 190.919137 
L 142.126916 190.81015 
L 142.232475 190.526785 
L 142.253587 190.417798 
L 142.338034 190.199825 
L 142.422481 190.090838 
L 142.513965 189.872865 
L 142.605449 189.785676 
L 142.605449 189.763878 
L 142.696933 189.5895 
L 142.795455 189.480513 
L 142.901013 189.327932 
L 142.978423 189.218945 
L 143.034721 189.000972 
L 143.210652 188.891985 
L 143.316211 188.60862 
L 143.365471 188.499633 
L 143.47103 188.259863 
L 143.506216 188.150876 
L 143.569551 187.911105 
L 143.682147 187.802119 
L 143.773631 187.431564 
L 143.844004 187.322577 
L 143.949563 187.06101 
L 143.991786 186.952023 
L 144.069196 186.777644 
L 144.195866 186.668658 
L 144.294387 186.428887 
L 144.343648 186.341698 
L 144.343648 186.3199 
L 144.44217 186.145522 
L 144.498468 186.036535 
L 144.596989 185.818562 
L 144.69551 185.731372 
L 144.69551 185.709575 
L 144.801069 185.448007 
L 144.885516 185.339021 
L 144.991075 185.164642 
L 145.040335 185.055655 
L 145.131819 184.837682 
L 145.188117 184.728695 
L 145.286639 184.576114 
L 145.420346 184.467127 
L 145.525905 184.292749 
L 145.58924 184.205559 
L 145.58924 184.183762 
L 145.66665 183.943991 
L 145.758134 183.835005 
L 145.856656 183.617032 
L 145.919991 183.529842 
L 145.919991 183.508045 
L 145.990363 183.355464 
L 146.102959 183.246477 
L 146.20148 183.028504 
L 146.264816 182.919517 
L 146.363337 182.679746 
L 146.447784 182.592557 
L 146.447784 182.57076 
L 146.546305 182.396381 
L 146.665939 182.287394 
L 146.771497 182.025827 
L 146.834832 181.91684 
L 146.940391 181.720664 
L 146.982614 181.611677 
L 147.074099 181.350109 
L 147.116322 181.241123 
L 147.221881 181.066744 
L 147.320402 180.957757 
L 147.418924 180.826973 
L 147.489296 180.739784 
L 147.489296 180.717987 
L 147.573743 180.500013 
L 147.644115 180.391027 
L 147.742637 180.064067 
L 147.805972 179.976878 
L 147.805972 179.95508 
L 147.911531 179.62812 
L 147.967829 179.519134 
L 148.06635 179.366552 
L 148.122648 179.257566 
L 148.228207 178.9742 
L 148.312654 178.887011 
L 148.312654 178.865214 
L 148.418212 178.669038 
L 148.488585 178.560051 
L 148.565994 178.40747 
L 148.67859 178.298483 
L 148.784149 177.949726 
L 148.847484 177.840739 
L 148.938968 177.557374 
L 149.03749 177.470185 
L 149.03749 177.448387 
L 149.143048 177.143225 
L 149.213421 177.034238 
L 149.311942 176.881657 
L 149.389352 176.77267 
L 149.49491 176.511102 
L 149.551208 176.402116 
L 149.656767 176.249534 
L 149.706028 176.184142 
L 149.706028 176.140548 
L 149.783437 176.009764 
L 149.846773 175.900777 
L 149.952331 175.617412 
L 150.043815 175.508425 
L 150.142337 175.268655 
L 150.198635 175.159668 
L 150.297156 174.941695 
L 150.395678 174.832708 
L 150.501236 174.440356 
L 150.620869 174.331369 
L 150.726428 173.982612 
L 150.810875 173.873626 
L 150.916434 173.699247 
L 150.95162 173.612058 
L 150.95162 173.59026 
L 151.050141 173.394084 
L 151.134588 173.285098 
L 151.23311 173.154314 
L 151.296445 173.067124 
L 151.296445 173.045327 
L 151.387929 172.849151 
L 151.43719 172.740164 
L 151.542748 172.478596 
L 151.669419 172.36961 
L 151.774977 172.020853 
L 151.84535 171.911866 
L 151.943871 171.737487 
L 151.993132 171.628501 
L 152.098691 171.236149 
L 152.169063 171.148959 
L 152.169063 171.127162 
L 152.274622 170.996378 
L 152.352031 170.909189 
L 152.352031 170.887391 
L 152.443516 170.669418 
L 152.527962 170.560432 
L 152.58426 170.364256 
L 152.689819 170.277066 
L 152.689819 170.255269 
L 152.78834 169.928309 
L 152.844638 169.862917 
L 152.844638 169.819322 
L 152.950197 169.557754 
L 153.034644 169.448768 
L 153.133165 169.012821 
L 153.210575 168.903835 
L 153.309096 168.729456 
L 153.372432 168.620469 
L 153.456879 168.489685 
L 153.499102 168.380699 
L 153.597623 168.140928 
L 153.639847 168.075536 
L 153.639847 168.031941 
L 153.745406 167.704981 
L 153.773555 167.595995 
L 153.879113 167.399819 
L 153.977635 167.290832 
L 154.076156 167.007467 
L 154.153566 166.89848 
L 154.252087 166.549723 
L 154.37172 166.440736 
L 154.477279 166.157371 
L 154.561726 166.048384 
L 154.667284 165.743222 
L 154.751731 165.634235 
L 154.850253 165.35087 
L 154.920625 165.263681 
L 154.920625 165.241883 
L 155.026184 165.045707 
L 155.13878 164.936721 
L 155.223227 164.784139 
L 155.307674 164.675153 
L 155.413232 164.391787 
L 155.476567 164.282801 
L 155.553977 164.217409 
L 155.62435 164.130219 
L 155.62435 164.108422 
L 155.729908 163.934044 
L 155.835467 163.825057 
L 155.926951 163.454502 
L 155.983249 163.345516 
L 156.08177 163.171137 
L 156.208441 163.06215 
L 156.313999 162.800582 
L 156.384372 162.691596 
L 156.468819 162.451825 
L 156.539191 162.342839 
L 156.637713 162.16846 
L 156.736234 162.059473 
L 156.834756 161.776108 
L 156.940314 161.667121 
L 157.031798 161.492743 
L 157.123282 161.383756 
L 157.228841 161.231175 
L 157.348474 161.122188 
L 157.446996 160.795228 
L 157.510331 160.708039 
L 157.510331 160.686242 
L 157.601815 160.577255 
L 157.679225 160.490066 
L 157.679225 160.468268 
L 157.763672 160.315687 
L 157.834044 160.228498 
L 157.834044 160.2067 
L 157.939603 159.945132 
L 158.031087 159.836146 
L 158.136646 159.421996 
L 158.270353 159.31301 
L 158.347763 159.182226 
L 158.467396 159.073239 
L 158.572955 158.768077 
L 158.678513 158.680887 
L 158.678513 158.65909 
L 158.769997 158.419319 
L 158.861482 158.310333 
L 158.960003 158.135954 
L 159.04445 158.048765 
L 159.04445 158.026967 
L 159.142971 157.787197 
L 159.192232 157.67821 
L 159.290754 157.460237 
L 159.347051 157.373048 
L 159.347051 157.35125 
L 159.438536 157.176872 
L 159.466685 157.089682 
L 159.466685 157.067885 
L 159.551132 156.871709 
L 159.663727 156.78452 
L 159.663727 156.762722 
L 159.762249 156.653736 
L 159.825584 156.544749 
L 159.931143 156.392168 
L 160.01559 156.283181 
L 160.121148 156.108802 
L 160.177446 156.021613 
L 160.177446 155.999816 
L 160.283005 155.847235 
L 160.339303 155.738248 
L 160.430787 155.520275 
L 160.571532 155.411288 
L 160.67709 155.258707 
L 160.733388 155.14972 
L 160.838947 154.909949 
L 160.993766 154.800963 
L 161.099325 154.582989 
L 161.155623 154.474003 
L 161.24007 154.212435 
L 161.303405 154.125246 
L 161.303405 154.103448 
L 161.373778 153.994462 
L 161.486374 153.885475 
L 161.577858 153.623907 
L 161.655267 153.51492 
L 161.753789 153.296947 
L 161.788975 153.231555 
L 161.788975 153.18796 
L 161.873422 153.035379 
L 161.922683 152.94819 
L 161.922683 152.926392 
L 162.028241 152.708419 
L 162.070465 152.599432 
L 162.168986 152.446851 
L 162.21121 152.359662 
L 162.21121 152.337865 
L 162.309731 152.163486 
L 162.387141 152.054499 
L 162.492699 151.836526 
L 162.584184 151.727539 
L 162.689742 151.531363 
L 162.816413 151.422377 
L 162.893822 151.226201 
L 162.971232 151.117214 
L 163.062716 150.877444 
L 163.196424 150.768457 
L 163.301982 150.528686 
L 163.379392 150.4197 
L 163.477913 150.158132 
L 163.534211 150.049145 
L 163.63977 149.831172 
L 163.674956 149.722185 
L 163.780515 149.526009 
L 163.850887 149.417022 
L 163.956446 149.220847 
L 163.998669 149.11186 
L 164.104228 148.959279 
L 164.139414 148.893887 
L 164.139414 148.850292 
L 164.230899 148.588724 
L 164.315345 148.479737 
L 164.40683 148.327156 
L 164.505351 148.218169 
L 164.603872 148.043791 
L 164.66017 147.934804 
L 164.765729 147.673236 
L 164.836101 147.56425 
L 164.927586 147.324479 
L 165.012033 147.215492 
L 165.117591 146.932127 
L 165.159815 146.844938 
L 165.159815 146.82314 
L 165.237224 146.605167 
L 165.335746 146.49618 
L 165.434267 146.25641 
L 165.560938 146.147423 
L 165.645384 146.038436 
L 165.715757 145.951247 
L 165.715757 145.92945 
L 165.821316 145.820463 
L 165.919837 145.711477 
L 166.018358 145.537098 
L 166.137992 145.428111 
L 166.222438 145.231935 
L 166.313923 145.122949 
L 166.39837 144.861381 
L 166.52504 144.774191 
L 166.52504 144.752394 
L 166.623561 144.556218 
L 166.679859 144.447231 
L 166.785418 144.033082 
L 166.834679 143.945893 
L 166.834679 143.924096 
L 166.940237 143.706122 
L 166.989498 143.597136 
L 167.095057 143.422757 
L 167.130243 143.31377 
L 167.228764 143.052202 
L 167.334323 142.943216 
L 167.439882 142.74704 
L 167.538403 142.638053 
L 167.636924 142.463675 
L 167.784707 142.354688 
L 167.890265 142.071323 
L 167.974712 141.962336 
L 168.080271 141.700768 
L 168.136569 141.591781 
L 168.242127 141.373808 
L 168.326574 141.264821 
L 168.418058 141.134037 
L 168.509543 141.025051 
L 168.615101 140.78528 
L 168.769921 140.676294 
L 168.861405 140.436523 
L 168.988075 140.327536 
L 169.093634 139.956982 
L 169.25549 139.847995 
L 169.354012 139.695414 
L 169.473645 139.586427 
L 169.572166 139.303062 
L 169.628464 139.194075 
L 169.712911 138.976102 
L 169.839582 138.867115 
L 169.881805 138.801723 
L 170.043662 138.692737 
L 170.142183 138.540155 
L 170.282928 138.431169 
L 170.374412 138.343979 
L 170.479971 138.234993 
L 170.585529 138.038817 
L 170.620716 137.951627 
L 170.620716 137.92983 
L 170.726274 137.711857 
L 170.775535 137.60287 
L 170.867019 137.515681 
L 170.979615 137.406694 
L 171.085174 137.210518 
L 171.204807 137.101532 
L 171.310366 136.905356 
L 171.359626 136.796369 
L 171.465185 136.643788 
L 171.570744 136.534801 
L 171.662228 136.360422 
L 171.767786 136.273233 
L 171.767786 136.251436 
L 171.831122 136.120652 
L 171.985941 136.011665 
L 172.049276 135.924476 
L 172.147798 135.815489 
L 172.253356 135.597516 
L 172.42225 135.488529 
L 172.527809 135.161569 
L 172.577069 135.052583 
L 172.675591 134.856407 
L 172.724852 134.74742 
L 172.816336 134.50765 
L 172.943006 134.398663 
L 173.041527 134.202487 
L 173.140049 134.0935 
L 173.245608 133.831932 
L 173.287831 133.722946 
L 173.379315 133.613959 
L 173.449688 133.504972 
L 173.548209 133.19981 
L 173.625619 133.11262 
L 173.625619 133.090823 
L 173.717103 132.960039 
L 173.822662 132.851053 
L 173.900071 132.654877 
L 173.998593 132.54589 
L 174.090077 132.371511 
L 174.174524 132.262525 
L 174.273045 132.044551 
L 174.343418 131.935565 
L 174.427864 131.848375 
L 174.519349 131.739389 
L 174.624907 131.586807 
L 174.758615 131.477821 
L 174.864174 131.281645 
L 174.927509 131.172658 
L 175.033067 130.976482 
L 175.096403 130.867496 
L 175.201961 130.802104 
L 175.335669 130.693117 
L 175.441228 130.475144 
L 175.596047 130.366157 
L 175.694568 130.104589 
L 175.821239 129.995602 
L 175.905686 129.843021 
L 176.067542 129.734034 
L 176.173101 129.559656 
L 176.222362 129.472467 
L 176.222362 129.450669 
L 176.32792 129.254493 
L 176.412367 129.145507 
L 176.503851 128.992925 
L 176.581261 128.883939 
L 176.637559 128.687763 
L 176.792378 128.578776 
L 176.8909 128.404397 
L 177.010533 128.317208 
L 177.010533 128.295411 
L 177.059794 128.230019 
L 177.228687 128.121032 
L 177.334246 127.946654 
L 177.383507 127.837667 
L 177.482028 127.685086 
L 177.552401 127.597896 
L 177.552401 127.576099 
L 177.650922 127.40172 
L 177.735369 127.336328 
L 177.735369 127.292734 
L 177.819816 127.096558 
L 177.946486 126.987571 
L 178.030933 126.856787 
L 178.108343 126.7478 
L 178.199827 126.617016 
L 178.291311 126.50803 
L 178.354646 126.355448 
L 178.502428 126.246462 
L 178.586875 126.050286 
L 178.650211 125.941299 
L 178.755769 125.745123 
L 178.840216 125.636137 
L 178.9317 125.418163 
L 179.093557 125.330974 
L 179.093557 125.309177 
L 179.093557 125.287379 
L 179.2906 125.178393 
L 179.389121 125.047609 
L 179.522829 124.960419 
L 179.522829 124.938622 
L 179.62135 124.829635 
L 179.769132 124.720649 
L 179.860616 124.568068 
L 179.987287 124.459081 
L 180.078771 124.175716 
L 180.149143 124.066729 
L 180.254702 123.89235 
L 180.325075 123.783364 
L 180.423596 123.543593 
L 180.606564 123.434606 
L 180.698048 123.260228 
L 180.768421 123.151241 
L 180.866942 123.042255 
L 180.965464 122.933268 
L 181.063985 122.758889 
L 181.120283 122.649903 
L 181.218805 122.584511 
L 181.394736 122.475524 
L 181.472145 122.388335 
L 181.619927 122.279348 
L 181.725486 122.170361 
L 181.845119 122.061375 
L 181.936603 121.756212 
L 182.02105 121.647225 
L 182.09846 121.451049 
L 182.295503 121.342063 
L 182.394024 121.233076 
L 182.485508 121.12409 
L 182.541806 121.0369 
L 182.640328 120.927914 
L 182.731812 120.775332 
L 182.872557 120.666346 
L 182.957004 120.426575 
L 183.175158 120.317588 
L 183.280717 120.165007 
L 183.365164 120.05602 
L 183.449611 119.903439 
L 183.611467 119.794452 
L 183.68184 119.663669 
L 183.794436 119.554682 
L 183.88592 119.402101 
L 184.09 119.293114 
L 184.195559 119.16233 
L 184.350378 119.053343 
L 184.441862 118.944357 
L 184.547421 118.83537 
L 184.645942 118.704586 
L 184.737426 118.595599 
L 184.842985 118.464815 
L 184.892246 118.399423 
L 184.892246 118.355829 
L 184.962618 118.18145 
L 185.089288 118.072464 
L 185.159661 117.963477 
L 185.286331 117.85449 
L 185.384853 117.61472 
L 185.532635 117.505733 
L 185.617082 117.353152 
L 185.743752 117.244165 
L 185.842274 117.091584 
L 185.92672 116.982597 
L 186.011167 116.830016 
L 186.109689 116.721029 
L 186.173024 116.590245 
L 186.36303 116.481259 
L 186.468588 116.328677 
L 186.602296 116.241488 
L 186.602296 116.219691 
L 186.679706 116.110704 
L 186.806376 116.001717 
L 186.911935 115.783744 
L 187.003419 115.674757 
L 187.108977 115.543973 
L 187.158238 115.434987 
L 187.235648 115.282405 
L 187.348244 115.173419 
L 187.453802 114.933648 
L 187.608622 114.824662 
L 187.693069 114.737472 
L 187.770478 114.628486 
L 187.876037 114.43231 
L 187.925298 114.323323 
L 188.030856 114.170742 
L 188.115303 114.061755 
L 188.19975 113.843782 
L 188.305309 113.756592 
L 188.305309 113.734795 
L 188.368644 113.582214 
L 188.586799 113.495024 
L 188.586799 113.473227 
L 188.68532 113.320646 
L 188.840139 113.211659 
L 188.931623 112.993686 
L 189.086443 112.884699 
L 189.17089 112.688523 
L 189.283486 112.601334 
L 189.283486 112.579537 
L 189.353858 112.47055 
L 189.417193 112.383361 
L 189.417193 112.361563 
L 189.522752 112.208982 
L 189.607199 112.099995 
L 189.691646 111.991009 
L 189.839428 111.903819 
L 189.839428 111.882022 
L 189.930912 111.664049 
L 190.078694 111.555062 
L 190.177216 111.402481 
L 190.339072 111.293494 
L 190.423519 111.206305 
L 190.515003 111.097318 
L 190.620562 110.879345 
L 190.838716 110.770358 
L 190.909089 110.661372 
L 191.099094 110.552385 
L 191.204653 110.334412 
L 191.36651 110.225425 
L 191.472068 109.963857 
L 191.549478 109.854871 
L 191.655037 109.680492 
L 191.718372 109.571505 
L 191.809856 109.397127 
L 191.943564 109.28814 
L 191.943564 109.266343 
L 192.189867 109.157356 
L 192.288389 109.091964 
L 192.38691 108.982977 
L 192.492469 108.873991 
L 192.598027 108.765004 
L 192.703586 108.612423 
L 192.788033 108.503436 
L 192.886554 108.30726 
L 193.069523 108.198274 
L 193.175081 108.023895 
L 193.351012 107.914908 
L 193.442497 107.718732 
L 193.512869 107.609746 
L 193.61139 107.457164 
L 193.667688 107.369975 
L 193.667688 107.348178 
L 193.76621 107.108407 
L 193.843619 106.99942 
L 193.935104 106.868636 
L 194.026588 106.75965 
L 194.132146 106.67246 
L 194.195482 106.563474 
L 194.30104 106.454487 
L 194.462897 106.345501 
L 194.561418 106.236514 
L 194.652902 106.127527 
L 194.758461 105.953149 
L 194.899206 105.844162 
L 194.997727 105.626189 
L 195.096249 105.517202 
L 195.201807 105.342823 
L 195.328478 105.233837 
L 195.405888 105.12485 
L 195.581819 105.015863 
L 195.68034 104.79789 
L 195.792936 104.688904 
L 195.891457 104.492728 
L 195.982942 104.383741 
L 196.081463 104.274754 
L 196.158873 104.165768 
L 196.264431 104.056781 
L 196.36999 103.947794 
L 196.426288 103.795213 
L 196.524809 103.686226 
L 196.630368 103.468253 
L 196.679629 103.402861 
L 196.679629 103.359266 
L 196.757038 103.272077 
L 196.883709 103.163091 
L 196.989267 103.032307 
L 197.228534 102.92332 
L 197.235571 102.879725 
L 197.460763 102.770739 
L 197.531135 102.661752 
L 197.622619 102.59636 
L 197.622619 102.552765 
L 197.728178 102.356589 
L 197.911146 102.247603 
L 198.016705 102.095021 
L 198.094115 102.007832 
L 198.094115 101.986035 
L 198.199673 101.789859 
L 198.277083 101.70267 
L 198.277083 101.680872 
L 198.354493 101.506494 
L 198.530424 101.397507 
L 198.607833 101.28852 
L 198.741541 101.179534 
L 198.8471 101.04875 
L 198.903398 100.983358 
L 198.903398 100.939763 
L 199.001919 100.765384 
L 199.17785 100.656398 
L 199.276372 100.39483 
L 199.367856 100.285843 
L 199.438228 100.133262 
L 199.550824 100.024275 
L 199.656383 99.980681 
L 199.705643 99.871694 
L 199.797128 99.719113 
L 199.94491 99.610126 
L 200.050468 99.435747 
L 200.177139 99.326761 
L 200.261586 99.239571 
L 200.381219 99.130585 
L 200.47974 98.912611 
L 200.578262 98.825422 
L 200.578262 98.803625 
L 200.641597 98.716435 
L 200.803453 98.607449 
L 200.909012 98.280489 
L 200.979384 98.171502 
L 201.084943 97.931732 
L 201.197539 97.822745 
L 201.289023 97.670164 
L 201.429768 97.561177 
L 201.528289 97.517582 
L 201.676072 97.408596 
L 201.774593 97.190622 
L 201.915338 97.081636 
L 202.020897 96.994446 
L 202.161641 96.88546 
L 202.260163 96.711081 
L 202.47128 96.602095 
L 202.54869 96.471311 
L 202.633137 96.362324 
L 202.738695 96.187945 
L 202.865366 96.078959 
L 202.970924 95.90458 
L 203.097595 95.795593 
L 203.189079 95.643012 
L 203.336861 95.534025 
L 203.44242 95.294255 
L 203.723909 95.185268 
L 203.801319 95.054484 
L 203.956139 94.945498 
L 204.05466 94.705727 
L 204.174293 94.59674 
L 204.272814 94.335172 
L 204.441708 94.226186 
L 204.526155 94.008212 
L 204.709124 93.899226 
L 204.79357 93.790239 
L 204.934315 93.70305 
L 204.934315 93.681252 
L 205.011725 93.528671 
L 205.173582 93.441482 
L 205.173582 93.419685 
L 205.272103 93.354293 
L 205.398773 93.245306 
L 205.497295 93.114522 
L 205.616928 93.005535 
L 205.701375 92.896549 
L 205.89138 92.787562 
L 205.989902 92.656778 
L 206.053237 92.591386 
L 206.053237 92.547791 
L 206.158796 92.351615 
L 206.278429 92.264426 
L 206.278429 92.242629 
L 206.369913 92.111845 
L 206.53177 92.002858 
L 206.623254 91.937466 
L 206.78511 91.850277 
L 206.78511 91.82848 
L 206.841408 91.719493 
L 207.024377 91.610506 
L 207.129935 91.327141 
L 207.369202 91.218154 
L 207.467723 91.08737 
L 207.587356 90.978384 
L 207.67884 90.869397 
L 207.83366 90.782208 
L 207.83366 90.76041 
L 207.896995 90.673221 
L 208.044777 90.564234 
L 208.143298 90.368058 
L 208.227745 90.259072 
L 208.269969 90.150085 
L 208.459974 90.041099 
L 208.516272 89.932112 
L 208.692203 89.823125 
L 208.797762 89.757733 
L 208.910358 89.648747 
L 208.973693 89.517963 
L 209.114438 89.408976 
L 209.18481 89.278192 
L 209.353704 89.169205 
L 209.459263 89.082016 
L 209.529635 88.994827 
L 209.529635 88.973029 
L 209.628157 88.798651 
L 209.74779 88.689664 
L 209.846311 88.515286 
L 209.937796 88.428096 
L 209.937796 88.406299 
L 210.043354 88.253718 
L 210.212248 88.144731 
L 210.296695 88.035744 
L 210.409291 87.926758 
L 210.416328 87.861366 
L 210.627445 87.752379 
L 210.697818 87.708784 
L 211.04968 87.599798 
L 211.141164 87.447216 
L 211.281909 87.33823 
L 211.338207 87.207446 
L 211.654883 87.098459 
L 211.753404 87.033067 
L 211.950447 86.924081 
L 212.056006 86.771499 
L 212.182676 86.662513 
L 212.27416 86.509931 
L 212.35157 86.400945 
L 212.450091 86.270161 
L 212.675283 86.182971 
L 212.675283 86.161174 
L 212.780842 86.03039 
L 212.879363 85.921403 
L 212.984922 85.834214 
L 213.097518 85.725227 
L 213.160853 85.638038 
L 213.386045 85.529051 
L 213.491604 85.311078 
L 213.780131 85.202092 
L 213.836428 85.158497 
L 214.026434 85.04951 
L 214.124955 84.962321 
L 214.230514 84.853334 
L 214.314961 84.787942 
L 214.512004 84.700753 
L 214.512004 84.678956 
L 214.596451 84.613564 
L 214.723121 84.504577 
L 214.82868 84.330198 
L 214.990536 84.221212 
L 215.082021 84.15582 
L 215.250914 84.046833 
L 215.250914 84.025036 
L 215.56759 83.937846 
L 215.56759 83.916049 
L 215.616851 83.850657 
L 215.778708 83.763468 
L 215.778708 83.74167 
L 215.792782 83.698076 
L 216.229091 83.589089 
L 216.320575 83.480103 
L 216.552805 83.371116 
L 216.658363 83.196737 
L 216.770959 83.087751 
L 216.876518 82.935169 
L 217.017263 82.826183 
L 217.122821 82.717196 
L 217.214305 82.608209 
L 217.30579 82.455628 
L 217.43246 82.346641 
L 217.495795 82.259452 
L 217.699875 82.150465 
L 217.798397 81.997884 
L 217.946179 81.888898 
L 218.037663 81.845303 
L 218.115073 81.736316 
L 218.19952 81.670924 
L 218.368413 81.561938 
L 218.424711 81.474748 
L 218.628791 81.365762 
L 218.685089 81.322167 
L 218.952505 81.21318 
L 219.036951 81.082396 
L 219.198808 80.995207 
L 219.198808 80.97341 
L 219.304367 80.842626 
L 219.381776 80.755436 
L 219.381776 80.733639 
L 219.487335 80.581058 
L 219.712527 80.472071 
L 219.789937 80.363085 
L 219.986979 80.254098 
L 220.022166 80.166909 
L 220.226246 80.057922 
L 220.331804 79.839949 
L 220.549959 79.730962 
L 220.641443 79.556583 
L 220.85256 79.447597 
L 220.958119 79.316813 
L 221.239609 79.229623 
L 221.239609 79.207826 
L 221.302944 79.120637 
L 221.521098 79.01165 
L 221.549247 78.968055 
L 221.732216 78.859069 
L 221.774439 78.793677 
L 222.041854 78.68469 
L 222.041854 78.662893 
L 222.252972 78.575704 
L 222.252972 78.553906 
L 222.35853 78.466717 
L 222.527424 78.35773 
L 222.604834 78.292338 
L 222.801877 78.183352 
L 222.907435 78.052568 
L 223.12559 77.943581 
L 223.231149 77.834594 
L 223.364856 77.725608 
L 223.470415 77.573026 
L 223.53375 77.46404 
L 223.590048 77.355053 
L 223.885612 77.246066 
L 223.991171 77.093485 
L 224.293772 76.984499 
L 224.392294 76.875512 
L 224.652672 76.788323 
L 224.652672 76.766525 
L 224.751193 76.679336 
L 224.83564 76.570349 
L 224.927124 76.461363 
L 225.096018 76.352376 
L 225.19454 76.286984 
L 225.370471 76.177997 
L 225.39862 76.090808 
L 225.666035 75.981821 
L 225.771594 75.872835 
L 225.912338 75.763848 
L 225.975674 75.654861 
L 226.229014 75.545875 
L 226.278275 75.458685 
L 226.552728 75.349699 
L 226.637175 75.26251 
L 226.90459 75.153523 
L 227.003111 75.000942 
L 227.207191 74.891955 
L 227.277564 74.782968 
L 227.509793 74.673982 
L 227.580165 74.586792 
L 227.671649 74.499603 
L 227.671649 74.477806 
L 227.749059 74.368819 
L 227.960176 74.259832 
L 228.023512 74.19444 
L 228.192405 74.107251 
L 228.192405 74.085454 
L 228.297964 73.95467 
L 228.61464 73.845683 
L 228.720199 73.671305 
L 228.839832 73.562318 
L 228.94539 73.409737 
L 229.079098 73.30075 
L 229.184657 73.148169 
L 229.339476 73.039182 
L 229.445035 72.908398 
L 229.578742 72.821209 
L 229.578742 72.799411 
L 229.578742 72.777614 
L 229.775785 72.668627 
L 229.83912 72.537843 
L 230.050238 72.428857 
L 230.057275 72.385262 
L 230.395063 72.276275 
L 230.493584 72.0801 
L 230.725813 71.971113 
L 230.824334 71.927518 
L 230.922856 71.818532 
L 231.007303 71.687748 
L 231.260644 71.578761 
L 231.366202 71.447977 
L 231.612506 71.33899 
L 231.689915 71.251801 
L 232.168448 71.142814 
L 232.196597 71.055625 
L 232.421789 70.946638 
L 232.499198 70.903044 
L 232.893284 70.794057 
L 232.991806 70.619678 
L 233.153662 70.510692 
L 233.224035 70.423503 
L 233.41404 70.336313 
L 233.41404 70.314516 
L 233.519599 70.183732 
L 233.681455 70.074745 
L 233.779977 69.943961 
L 233.948871 69.856772 
L 233.948871 69.834975 
L 234.047392 69.682393 
L 234.321845 69.573407 
L 234.427403 69.529812 
L 234.596297 69.420825 
L 234.694818 69.268244 
L 234.884824 69.159257 
L 234.990383 68.984879 
L 235.131128 68.875892 
L 235.236686 68.8105 
L 235.412617 68.701514 
L 235.475952 68.614324 
L 235.68707 68.505338 
L 235.757442 68.396351 
L 235.989671 68.287364 
L 236.038932 68.200175 
L 236.334496 68.091188 
L 236.433018 67.91681 
L 236.601911 67.807823 
L 236.651172 67.720634 
L 236.876364 67.611647 
L 236.960811 67.546255 
L 237.383045 67.437268 
L 237.481567 67.350079 
L 237.706759 67.241093 
L 237.784168 67.153903 
L 238.079733 67.044917 
L 238.16418 66.870538 
L 238.410483 66.761551 
L 238.480855 66.696159 
L 238.846792 66.587173 
L 238.889016 66.499983 
L 239.191617 66.390997 
L 239.276064 66.303807 
L 239.51533 66.194821 
L 239.557554 66.064037 
L 239.789783 65.95505 
L 239.853118 65.737077 
L 240.043124 65.62809 
L 240.12757 65.540901 
L 240.261278 65.431914 
L 240.345725 65.257536 
L 240.514619 65.192144 
L 240.514619 65.148549 
L 240.61314 65.06136 
L 240.866481 64.952373 
L 240.97204 64.865184 
L 241.218343 64.756197 
L 241.253529 64.690805 
L 241.520945 64.581818 
L 241.605392 64.451034 
L 241.774285 64.342048 
L 241.879844 64.211264 
L 242.154297 64.102277 
L 242.245781 64.036885 
L 242.414675 63.927899 
L 242.485047 63.818912 
L 242.970617 63.709925 
L 243.048027 63.622736 
L 243.146548 63.513749 
L 243.238032 63.382965 
L 243.505447 63.273979 
L 243.568783 63.208587 
L 243.85731 63.0996 
L 243.920645 62.990613 
L 244.089539 62.903424 
L 244.089539 62.881627 
L 244.181023 62.729045 
L 244.307693 62.620059 
L 244.413252 62.532869 
L 244.582146 62.423883 
L 244.687704 62.293099 
L 245.060678 62.184112 
L 245.145125 62.11872 
L 245.461801 62.009734 
L 245.546248 61.857152 
L 245.715142 61.748166 
L 245.813663 61.682774 
L 245.961445 61.573787 
L 246.059967 61.486598 
L 246.30627 61.377611 
L 246.30627 61.355814 
L 246.742579 61.246827 
L 246.784803 61.181435 
L 247.038144 61.072448 
L 247.143702 60.963462 
L 247.284447 60.854475 
L 247.326671 60.789083 
L 247.664458 60.680096 
L 247.748905 60.549313 
L 247.96706 60.440326 
L 248.009283 60.309542 
L 248.290773 60.200555 
L 248.382257 60.135163 
L 248.565226 60.026177 
L 248.628561 59.938987 
L 249.015609 59.830001 
L 249.107093 59.764609 
L 249.353397 59.655622 
L 249.430807 59.612027 
L 249.585626 59.503041 
L 249.585626 59.459446 
L 249.937488 59.350459 
L 249.9586 59.306865 
L 250.408983 59.197878 
L 250.507505 59.110689 
L 250.690473 59.001702 
L 250.767883 58.914513 
L 251.190117 58.805526 
L 251.281602 58.740134 
L 251.422346 58.631148 
L 251.527905 58.543958 
L 251.781246 58.434972 
L 251.781246 58.413174 
L 252.104959 58.304188 
L 252.20348 58.195201 
L 252.309039 58.086214 
L 252.3583 58.020822 
L 252.68905 57.911836 
L 252.794609 57.824646 
L 252.963503 57.71566 
L 252.963503 57.693862 
L 253.442035 57.584876 
L 253.53352 57.541281 
L 253.836121 57.432294 
L 253.934642 57.3887 
L 254.230207 57.279713 
L 254.230207 57.257916 
L 254.462436 57.148929 
L 254.511696 57.105335 
L 255.011341 56.996348 
L 255.053564 56.952753 
L 255.313942 56.843767 
L 255.419501 56.73478 
L 255.750251 56.647591 
L 255.750251 56.625793 
L 255.834698 56.560401 
L 256.172486 56.451415 
L 256.271007 56.364225 
L 256.580646 56.255239 
L 256.686205 56.189847 
L 257.066216 56.08086 
L 257.1577 56.015468 
L 257.699568 55.928279 
L 257.699568 55.906481 
L 257.699568 55.884684 
L 258.283659 55.775697 
L 258.375143 55.710306 
L 258.600335 55.601319 
L 258.705894 55.51413 
L 259.07183 55.405143 
L 259.156277 55.339751 
L 259.297022 55.252562 
L 259.297022 55.230764 
L 259.402581 55.165372 
L 259.515177 55.078183 
L 259.515177 55.056386 
L 259.599623 54.969196 
L 259.733331 54.882007 
L 259.733331 54.86021 
L 259.831853 54.729426 
L 260.162603 54.620439 
L 260.254087 54.53325 
L 260.542614 54.424263 
L 260.620024 54.380668 
L 260.964849 54.271682 
L 261.056333 54.184492 
L 261.218189 54.075506 
L 261.288562 54.010114 
L 261.541903 53.901127 
L 261.591163 53.813938 
L 261.87969 53.704951 
L 261.964137 53.661357 
L 262.386372 53.55237 
L 262.491931 53.399789 
L 262.801569 53.290802 
L 262.815644 53.247207 
L 263.047873 53.138221 
L 263.047873 53.094626 
L 263.519368 52.985639 
L 263.519368 52.963842 
L 263.885305 52.854855 
L 263.969752 52.789463 
L 264.539768 52.680477 
L 264.589029 52.615085 
L 264.729774 52.549693 
L 264.729774 52.506098 
L 264.835333 52.440706 
L 265.053487 52.33172 
L 265.152009 52.222733 
L 265.356089 52.113746 
L 265.461647 51.982962 
L 265.764249 51.873976 
L 265.764249 51.852178 
L 266.087962 51.743192 
L 266.179446 51.656002 
L 266.510197 51.547016 
L 266.559457 51.481624 
L 266.988729 51.372637 
L 267.094288 51.307245 
L 267.347629 51.198258 
L 267.389852 51.154664 
L 267.868385 51.045677 
L 267.966906 50.93669 
L 268.46655 50.827704 
L 268.550997 50.740515 
L 268.804338 50.631528 
L 268.804338 50.587933 
L 269.254722 50.478947 
L 269.353243 50.413555 
L 269.634733 50.304568 
L 269.705105 50.195581 
L 269.873999 50.086595 
L 269.873999 50.064797 
L 270.25401 49.955811 
L 270.338457 49.912216 
L 270.584761 49.803229 
L 270.619947 49.737837 
L 270.936623 49.628851 
L 271.028107 49.563459 
L 271.239224 49.454472 
L 271.344783 49.323688 
L 271.464416 49.214701 
L 271.562938 49.127512 
L 271.809241 49.018526 
L 271.879614 48.931336 
L 272.24555 48.82235 
L 272.351109 48.669768 
L 272.60445 48.560782 
L 272.660748 48.517187 
L 272.977424 48.4082 
L 273.082982 48.277416 
L 273.42077 48.16843 
L 273.526329 48.059443 
L 273.695222 47.950456 
L 273.800781 47.885064 
L 274.004861 47.776078 
L 274.03301 47.732483 
L 274.307463 47.645294 
L 274.307463 47.623496 
L 274.356723 47.579902 
L 274.624139 47.470915 
L 274.638213 47.427321 
L 274.905628 47.318334 
L 275.00415 47.18755 
L 275.356012 47.078563 
L 275.46157 46.969577 
L 275.623427 46.86059 
L 275.686762 46.773401 
L 276.017513 46.664414 
L 276.045662 46.620819 
L 276.446785 46.511833 
L 276.474934 46.446441 
L 276.805684 46.337454 
L 276.904205 46.20667 
L 277.32644 46.097683 
L 277.424961 46.010494 
L 277.819047 45.901508 
L 277.875345 45.857913 
L 278.128686 45.748926 
L 278.199058 45.683534 
L 278.529809 45.574548 
L 278.614256 45.509156 
L 278.776112 45.421966 
L 278.776112 45.400169 
L 278.825373 45.31298 
L 279.381315 45.203993 
L 279.381315 45.182196 
L 279.796513 45.073209 
L 279.895034 45.007817 
L 280.148375 44.89883 
L 280.225784 44.855236 
L 280.528386 44.746249 
L 280.577647 44.65906 
L 280.852099 44.550073 
L 280.894323 44.484681 
L 281.281371 44.375694 
L 281.379892 44.288505 
L 281.851388 44.179519 
L 281.865462 44.135924 
L 282.273622 44.026937 
L 282.343995 43.917951 
L 282.681782 43.808964 
L 282.773267 43.721775 
L 283.026607 43.612788 
L 283.132166 43.547396 
L 283.476991 43.438409 
L 283.568475 43.35122 
L 283.807741 43.242233 
L 283.878114 43.133247 
L 284.145529 43.02426 
L 284.24405 42.958868 
L 284.799993 42.849881 
L 284.905551 42.784489 
L 285.109631 42.675503 
L 285.151855 42.610111 
L 285.560015 42.501124 
L 285.560015 42.479327 
L 286.221516 42.37034 
L 286.270777 42.304948 
L 286.601527 42.195962 
L 286.601527 42.174164 
L 287.023762 42.065178 
L 287.08006 41.977988 
L 287.81897 41.869002 
L 287.840082 41.825407 
L 288.367875 41.71642 
L 288.473434 41.607434 
L 288.825296 41.498447 
L 288.825296 41.47665 
L 289.310866 41.367663 
L 289.317903 41.324068 
L 290.134223 41.215082 
L 290.141261 41.171487 
L 290.887208 41.0625 
L 290.887208 41.040703 
L 291.429076 40.931717 
L 291.492411 40.844527 
L 292.069465 40.735541 
L 292.069465 40.713743 
L 292.759115 40.604757 
L 292.801339 40.561162 
L 293.279871 40.452175 
L 293.343206 40.408581 
L 293.568398 40.299594 
L 293.568398 40.277797 
L 294.307309 40.16881 
L 294.40583 40.103418 
L 294.785841 39.994431 
L 294.785841 39.972634 
L 295.482528 39.863647 
L 295.482528 39.820053 
L 296.11588 39.711066 
L 296.11588 39.689269 
L 296.488854 39.580282 
L 296.488854 39.558485 
L 297.192579 39.449498 
L 297.284063 39.384106 
L 297.614813 39.27512 
L 297.713335 39.209728 
L 298.297426 39.100741 
L 298.346687 39.035349 
L 299.198193 38.926362 
L 299.268566 38.86097 
L 299.585241 38.751984 
L 299.627465 38.686592 
L 300.232668 38.577605 
L 300.232668 38.555808 
L 300.704163 38.446821 
L 300.78861 38.403226 
L 301.260105 38.29424 
L 301.323441 38.20705 
L 301.471223 38.098064 
L 301.576781 38.010874 
L 302.048277 37.901888 
L 302.139761 37.814698 
L 302.639405 37.705712 
L 302.639405 37.683915 
L 303.132012 37.574928 
L 303.237571 37.509536 
L 303.645731 37.400549 
L 303.744252 37.356955 
L 304.328344 37.269765 
L 304.328344 37.247968 
L 304.412791 37.204373 
L 304.546498 37.095387 
L 304.64502 36.9864 
L 305.222074 36.877413 
L 305.285409 36.812021 
L 305.503563 36.703035 
L 305.573936 36.65944 
L 306.031357 36.550453 
L 306.031357 36.528656 
L 306.390256 36.419669 
L 306.48174 36.376075 
L 306.882863 36.267088 
L 306.939161 36.201696 
L 307.45288 36.092709 
L 307.495103 36.049115 
L 307.98771 35.940128 
L 308.044008 35.874736 
L 308.438094 35.76575 
L 308.522541 35.700358 
L 309.36701 35.591371 
L 309.36701 35.569574 
L 309.641463 35.460587 
L 309.662574 35.416992 
L 310.225554 35.308006 
L 310.225554 35.286208 
L 310.781496 35.177222 
L 310.887055 35.090032 
L 311.428922 34.981046 
L 311.506332 34.915654 
L 312.013014 34.806667 
L 312.013014 34.78487 
L 312.357839 34.675883 
L 312.463397 34.545099 
L 312.913781 34.436112 
L 312.998228 34.392518 
L 313.624542 34.283531 
L 313.666766 34.239937 
L 314.173447 34.13095 
L 314.180485 34.087355 
L 314.799762 33.978369 
L 314.891246 33.869382 
L 315.383853 33.760395 
L 315.383853 33.738598 
L 315.693492 33.629611 
L 315.714604 33.586017 
L 315.904609 33.47703 
L 315.911647 33.433435 
L 316.376105 33.324449 
L 316.418328 33.259057 
L 317.164276 33.15007 
L 317.220574 33.084678 
L 317.424654 32.997489 
L 317.424654 32.975691 
L 317.424654 32.953894 
L 318.050969 32.844907 
L 318.050969 32.82311 
L 318.339496 32.714124 
L 318.367645 32.670529 
L 318.789879 32.561542 
L 318.860252 32.474353 
L 319.057294 32.365366 
L 319.141741 32.278177 
L 319.662497 32.16919 
L 319.683609 32.125596 
L 320.274738 32.016609 
L 320.366222 31.973014 
L 320.851792 31.864028 
L 320.851792 31.84223 
L 322.111458 31.733244 
L 322.188868 31.689649 
L 322.695549 31.580662 
L 322.695549 31.558865 
L 323.110747 31.493473 
L 323.110747 31.449878 
L 323.110747 31.428081 
L 323.610391 31.319094 
L 323.645577 31.253702 
L 324.363376 31.144716 
L 324.363376 31.122919 
L 325.179696 31.013932 
L 325.228957 30.926743 
L 325.996017 30.817756 
L 325.996017 30.795959 
L 326.995305 30.686972 
L 326.995305 30.665175 
L 327.649769 30.556188 
L 327.691992 30.490796 
L 328.15645 30.381809 
L 328.205711 30.316417 
L 328.817951 30.207431 
L 328.817951 30.185633 
L 330.091692 30.076647 
L 330.176139 29.989457 
L 330.626523 29.880471 
L 330.626523 29.858673 
L 331.32321 29.749687 
L 331.414694 29.684295 
L 331.865078 29.575308 
L 331.970636 29.509916 
L 332.406946 29.40093 
L 332.491392 29.335538 
L 332.969925 29.226551 
L 332.976962 29.182956 
L 333.744022 29.07397 
L 333.786245 29.008578 
L 334.011437 28.899591 
L 334.102921 28.855996 
L 334.989614 28.74701 
L 335.074061 28.681618 
L 335.946679 28.572631 
L 335.946679 28.550834 
L 336.580031 28.441847 
L 336.587068 28.398252 
L 337.227457 28.289266 
L 337.333016 28.245671 
L 337.523022 28.136684 
L 337.523022 28.114887 
L 337.98748 28.027698 
L 337.98748 28.0059 
L 338.008591 27.962306 
L 338.641943 27.853319 
L 338.740465 27.76613 
L 339.606046 27.657143 
L 339.662344 27.591751 
L 340.429403 27.482765 
L 340.506813 27.43917 
L 340.844601 27.330183 
L 340.950159 27.264791 
L 341.555362 27.155805 
L 341.604623 27.090413 
L 341.81574 26.981426 
L 341.843889 26.894237 
L 342.252049 26.78525 
L 342.287236 26.719858 
L 342.667247 26.610871 
L 342.765768 26.501885 
L 343.406157 26.392898 
L 343.504679 26.305709 
L 343.976174 26.196722 
L 344.060621 26.13133 
L 345.081021 26.022344 
L 345.18658 25.913357 
L 345.658075 25.80437 
L 345.658075 25.782573 
L 346.199943 25.673586 
L 346.199943 25.651789 
L 347.192194 25.542802 
L 347.22738 25.47741 
L 347.952217 25.368424 
L 347.973328 25.324829 
L 348.318153 25.215842 
L 348.318153 25.194045 
L 349.148548 25.085058 
L 349.247069 24.976072 
L 349.98598 24.867085 
L 349.98598 24.845288 
L 350.513773 24.736301 
L 350.548959 24.670909 
L 351.337131 24.561923 
L 351.337131 24.540125 
L 352.097153 24.431139 
L 352.097153 24.409341 
L 352.38568 24.300355 
L 352.477164 24.25676 
L 352.899399 24.147773 
L 352.99792 24.104179 
L 353.800166 23.995192 
L 353.828315 23.951597 
L 354.496853 23.842611 
L 354.595375 23.777219 
L 355.707259 23.668232 
L 355.777631 23.581043 
L 356.938777 23.472056 
L 357.009149 23.428461 
L 357.726948 23.319475 
L 357.726948 23.297677 
L 358.15622 23.188691 
L 358.247704 23.123299 
L 359.141434 23.014312 
L 359.141434 22.992515 
L 359.704413 22.883528 
L 359.795898 22.839934 
L 360.457398 22.730947 
L 360.457398 22.70915 
L 361.611506 22.600163 
L 361.639655 22.556568 
L 362.850061 22.447582 
L 362.850061 22.425784 
L 363.434152 22.316798 
L 363.434152 22.295 
L 364.74308 22.186014 
L 364.74308 22.164216 
L 365.904225 22.05523 
L 365.904225 22.033432 
L 366.340534 21.924446 
L 366.396832 21.859054 
L 367.360934 21.750067 
L 367.360934 21.72827 
L 367.916877 21.619283 
L 367.9591 21.575688 
L 368.754309 21.466702 
L 368.754309 21.444904 
L 369.683225 21.335918 
L 369.74656 21.292323 
L 371.04845 21.183337 
L 371.076599 21.139742 
L 371.625504 21.030755 
L 371.674765 20.987161 
L 372.568495 20.878174 
L 372.568495 20.856377 
L 373.715565 20.74739 
L 373.715565 20.725593 
L 375.756366 20.616606 
L 375.826738 20.573011 
L 376.713431 20.464025 
L 376.713431 20.442227 
L 377.909762 20.333241 
L 377.909762 20.311443 
L 379.542403 20.202457 
L 379.570552 20.115267 
L 380.992075 20.006281 
L 380.992075 19.984483 
L 381.702837 19.875497 
L 381.794321 19.810105 
L 382.681014 19.701118 
L 382.7162 19.657523 
L 383.546595 19.548537 
L 383.546595 19.52674 
L 385.017379 19.417753 
L 385.017379 19.395956 
L 385.699991 19.286969 
L 385.699991 19.265172 
L 386.565572 19.156185 
L 386.565572 19.134388 
L 387.804127 19.025401 
L 387.804127 19.003604 
L 388.880825 18.894617 
L 388.880825 18.87282 
L 389.985672 18.763833 
L 390.013821 18.720238 
L 391.238302 18.611252 
L 391.336823 18.54586 
L 392.061659 18.436873 
L 392.061659 18.415076 
L 392.969464 18.306089 
L 392.969464 18.262494 
L 393.314289 18.153508 
L 393.398736 18.088116 
L 394.081348 17.979129 
L 394.158758 17.89194 
L 395.263605 17.782953 
L 395.263605 17.761156 
L 395.81251 17.652169 
L 395.81251 17.630372 
L 396.565495 17.521385 
L 396.62883 17.477791 
L 397.255145 17.368804 
L 397.26922 17.325209 
L 398.050354 17.216223 
L 398.148875 17.172628 
L 399.324095 17.063641 
L 399.394467 17.020047 
L 400.513389 16.91106 
L 400.513389 16.889263 
L 401.17489 16.780276 
L 401.17489 16.758479 
L 402.153067 16.649492 
L 402.209365 16.605897 
L 402.779381 16.496911 
L 402.786419 16.453316 
L 403.680148 16.34433 
L 403.750521 16.278938 
L 404.236091 16.169951 
L 404.236091 16.148154 
L 405.143895 16.039167 
L 405.221305 15.973775 
L 405.988364 15.864788 
L 406.009476 15.821194 
L 406.488009 15.712207 
L 406.593567 15.668612 
L 407.226919 15.559626 
L 407.290254 15.494234 
L 407.81101 15.385247 
L 407.81101 15.36345 
L 408.29658 15.254463 
L 408.29658 15.232666 
L 408.810299 15.123679 
L 408.810299 15.101882 
L 409.408465 14.992895 
L 409.450688 14.9493 
L 410.147375 14.840314 
L 410.252934 14.796719 
L 411.118515 14.70953 
L 411.118515 14.687733 
L 411.118515 14.665935 
L 411.632234 14.556949 
L 411.681494 14.513354 
L 412.35707 14.404367 
L 412.455591 14.317178 
L 412.96931 14.208191 
L 413.053757 14.142799 
L 413.539327 14.033813 
L 413.58155 13.990218 
L 413.947487 13.881231 
L 414.010822 13.815839 
L 414.510466 13.706853 
L 414.510466 13.663258 
L 415.2916 13.554271 
L 415.2916 13.532474 
L 415.756058 13.423487 
L 415.833468 13.358095 
L 416.255703 13.249109 
L 416.255703 13.227311 
L 416.727198 13.118325 
L 416.804608 13.052933 
L 417.15647 12.943946 
L 417.205731 12.900352 
L 417.944641 12.791365 
L 418.015014 12.725973 
L 418.718738 12.616986 
L 418.810222 12.486202 
L 419.140973 12.377216 
L 419.246531 12.333621 
L 420.126187 12.224634 
L 420.224708 12.18104 
L 420.801762 12.072053 
L 420.900284 12.006661 
L 421.4703 11.897674 
L 421.4703 11.85408 
L 422.469589 11.745093 
L 422.497738 11.701498 
L 423.109978 11.592512 
L 423.152201 11.52712 
L 424.981885 11.418133 
L 425.017071 11.374539 
L 425.910801 11.265552 
L 426.002285 11.221957 
L 427.226765 11.112971 
L 427.247877 11.047579 
L 427.839006 11.047579 
L 427.839006 11.025781 
" clip-path="url(#pdfe444cd5b)" style="fill: none; stroke: #486afb; stroke-width: 2; stroke-linecap: square"/>
   </g>
   <g id="patch_3">
    <path d="M 45.992188 299.905781 
L 45.992188 11.025781 
" style="fill: none; stroke: #000000; stroke-width: 0.6; stroke-linejoin: miter; stroke-linecap: square"/>
   </g>
   <g id="patch_4">
    <path d="M 45.992188 299.905781 
L 446.022187 299.905781 
" style="fill: none; stroke: #000000; stroke-width: 0.6; stroke-linejoin: miter; stroke-linecap: square"/>
   </g>
  </g>
 </g>
 <defs>
  <clipPath id="pdfe444cd5b">
   <rect x="45.992188" y="11.025781" width="400.03" height="288.88"/>
  </clipPath>
 </defs>
</svg>