<?xml version="1.0" encoding="utf-8"?>
<!-- Generator: Adobe Illustrator 26.0.2, SVG Export Plug-In . SVG Version: 6.00 Build 0)  -->
<svg version="1.1" id="Layer_1" xmlns="http://www.w3.org/2000/svg" xmlns:xlink="http://www.w3.org/1999/xlink" x="0px" y="0px"
	 viewBox="0 0 71 56.25" style="enable-background:new 0 0 71 56.25;" xml:space="preserve">
<style type="text/css">
	.st0{fill:none;stroke:#486AFB;stroke-miterlimit:10;}
	.st1{fill:#486AFB;}
	.st2{fill:#FD46FC;}
</style>
<circle class="st0" cx="11.5" cy="44.75" r="11"/>
<circle class="st0" cx="59.5" cy="44.75" r="11"/>
<g>
	<g>
		<line class="st0" x1="24.5" y1="44.75" x2="42.98" y2="44.75"/>
		<g>
			<path class="st1" d="M46,44.75c-1.42,0.53-3.18,1.43-4.27,2.38l0.86-2.38l-0.86-2.38C42.82,43.32,44.58,44.22,46,44.75z"/>
		</g>
	</g>
</g>
<path class="st2" d="M12.2,44.41l1.16-1.29c0.13-0.14,0.19-0.21,1.01-0.21v-0.47c-0.35,0.02-0.86,0.03-0.91,0.03
	c-0.25,0-0.75-0.02-1.02-0.03v0.47c0.14,0,0.26,0.02,0.38,0.09c-0.04,0.06-0.04,0.08-0.08,0.12l-0.83,0.93l-0.97-1.14h0.4v-0.47
	c-0.26,0.01-0.88,0.03-1.2,0.03c-0.32,0-0.77-0.02-1.09-0.03v0.47h0.7l1.55,1.83l-1.3,1.46c-0.17,0.19-0.53,0.19-1,0.19v0.47
	c0.35-0.02,0.86-0.03,0.91-0.03c0.25,0,0.82,0.02,1.02,0.03v-0.47c-0.18,0-0.37-0.05-0.37-0.11c0-0.01,0-0.02,0.07-0.1l0.96-1.08
	l1.09,1.29h-0.39v0.47c0.26-0.01,0.86-0.03,1.19-0.03c0.32,0,0.76,0.02,1.09,0.03v-0.47h-0.7L12.2,44.41"/>
<path class="st2" d="M61.98,43.15c0.07-0.14,0.1-0.21,0.73-0.21v-0.47c-0.24,0.02-0.54,0.03-0.78,0.03c-0.25,0-0.7-0.02-0.9-0.03
	v0.47c0.02,0,0.47,0,0.47,0.12c0,0.01-0.04,0.11-0.05,0.12l-1.14,2.44l-1.26-2.68h0.54v-0.47c-0.33,0.02-1.22,0.03-1.23,0.03
	c-0.28,0-0.73-0.02-1.13-0.03v0.47h0.64l1.86,3.94l-0.23,0.48c-0.22,0.48-0.54,1.15-1.24,1.15c-0.14,0-0.16-0.01-0.24-0.04
	c0.09-0.04,0.32-0.18,0.32-0.53c0-0.33-0.24-0.57-0.58-0.57c-0.28,0-0.57,0.19-0.57,0.58c0,0.51,0.47,0.91,1.06,0.91
	c0.77,0,1.34-0.62,1.61-1.18L61.98,43.15"/>
<g>
	<g>
		<line class="st0" x1="59.06" y1="9.49" x2="59.06" y2="27.97"/>
		<g>
			<path class="st1" d="M59.06,30.99c-0.53-1.42-1.43-3.18-2.38-4.27l2.38,0.86l2.38-0.86C60.49,27.81,59.59,29.57,59.06,30.99z"/>
		</g>
	</g>
</g>
<path class="st2" d="M60.16,1.22V1.8c0,0.57,0.02,1.15,0.05,1.73c0.01,0.2,0.05,0.94,0.1,1.46H58.5c-0.16,0-0.31,0-0.57,0.16
	c0.7-1.07,1.27-2.11,1.33-2.22c0.5-0.88,0.77-1.46,0.89-1.71H60.16 M60.36,5.53c0.05,0.63,0.17,1.08,0.22,1.27
	c0.11,0.45,0.16,0.67,0.59,0.67c0.45,0,1.21-0.45,1.21-0.65c0-0.05-0.04-0.07-0.09-0.07c-0.13,0-0.34,0.11-0.37,0.13
	c-0.07,0.04-0.09,0.04-0.11,0.04c-0.28,0-0.34-0.27-0.46-0.86c-0.07-0.33-0.16-0.72-0.24-2.09c-0.07-1.01-0.11-2.03-0.11-3.04
	c0-0.24,0.01-0.5,0.01-0.73c0-0.16,0-0.2-0.11-0.2c-0.14,0-0.55,0.17-0.72,0.44l-0.07,0.11c-0.78,1.68-1.52,2.88-2.04,3.69
	c-0.59,0.9-1.62,2.52-2.16,2.52c-0.37,0-0.67-0.24-0.77-0.6c-0.01-0.02-0.03-0.08-0.07-0.08c-0.15,0-0.37,0.48-0.37,0.75
	c0,0.4,0.43,0.83,0.89,0.83c0.69,0,1.83-1.79,2.05-2.14H60.36z"/>
</svg>
