<?xml version="1.0" encoding="utf-8"?>
<!-- Generator: Adobe Illustrator 26.0.2, SVG Export Plug-In . SVG Version: 6.00 Build 0)  -->
<svg version="1.1" id="Layer_1" xmlns="http://www.w3.org/2000/svg" xmlns:xlink="http://www.w3.org/1999/xlink" x="0px" y="0px"
	 viewBox="0 0 75.38 67.56" style="enable-background:new 0 0 75.38 67.56;" xml:space="preserve">
<style type="text/css">
	.st0{fill:none;stroke:#486AFB;stroke-miterlimit:10;}
	.st1{fill:#486AFB;}
	.st2{fill:#FD46FC;}
</style>
<circle class="st0" cx="11.83" cy="29.83" r="11"/>
<circle class="st0" cx="60.83" cy="43.83" r="11"/>
<g>
	<g>
		<line class="st0" x1="24.83" y1="29.83" x2="43.57" y2="37.99"/>
		<g>
			<path class="st1" d="M46.33,39.2c-1.51-0.08-3.49,0.04-4.87,0.47l1.74-1.84l0.16-2.52C43.99,36.62,45.24,38.15,46.33,39.2z"/>
		</g>
	</g>
</g>
<path class="st2" d="M12.53,29.5l1.16-1.29c0.13-0.14,0.19-0.21,1.01-0.21v-0.47c-0.35,0.02-0.86,0.03-0.91,0.03
	c-0.25,0-0.75-0.02-1.02-0.03V28c0.14,0,0.26,0.02,0.38,0.09c-0.04,0.06-0.04,0.08-0.08,0.12l-0.83,0.93L11.26,28h0.4v-0.47
	c-0.26,0.01-0.88,0.03-1.2,0.03s-0.77-0.02-1.09-0.03V28h0.7l1.55,1.83l-1.3,1.46c-0.17,0.19-0.53,0.19-1,0.19v0.47
	c0.35-0.02,0.86-0.03,0.91-0.03c0.25,0,0.82,0.02,1.02,0.03v-0.47c-0.18,0-0.37-0.05-0.37-0.11c0-0.01,0-0.02,0.07-0.1l0.96-1.08
	l1.09,1.29h-0.39v0.47c0.26-0.01,0.86-0.03,1.19-0.03c0.32,0,0.76,0.02,1.09,0.03v-0.47h-0.7L12.53,29.5"/>
<path class="st2" d="M14.32,54.23c0.07-0.14,0.1-0.21,0.73-0.21v-0.47c-0.24,0.02-0.54,0.03-0.78,0.03c-0.25,0-0.7-0.02-0.9-0.03
	v0.47c0.02,0,0.47,0,0.47,0.12c0,0.01-0.04,0.11-0.05,0.12l-1.14,2.44l-1.26-2.68h0.54v-0.47c-0.33,0.02-1.22,0.03-1.23,0.03
	c-0.28,0-0.73-0.02-1.13-0.03v0.47h0.64l1.86,3.94l-0.23,0.48c-0.22,0.48-0.54,1.15-1.24,1.15c-0.14,0-0.16-0.01-0.24-0.04
	c0.09-0.04,0.32-0.18,0.32-0.53c0-0.33-0.24-0.57-0.58-0.57c-0.28,0-0.57,0.19-0.57,0.58c0,0.51,0.47,0.91,1.06,0.91
	c0.77,0,1.34-0.62,1.61-1.18L14.32,54.23"/>
<circle class="st0" cx="11.5" cy="56.06" r="11"/>
<g>
	<g>
		<line class="st0" x1="24.75" y1="52.74" x2="43.48" y2="44.58"/>
		<g>
			<path class="st1" d="M46.25,43.37c-1.09,1.05-2.35,2.58-2.97,3.89l-0.16-2.52l-1.74-1.84C42.76,43.34,44.74,43.46,46.25,43.37z"
				/>
		</g>
	</g>
</g>
<path class="st2" d="M62.79,42.54c0.08-0.11,0.1-0.13,0.1-0.22c0-0.21-0.14-0.21-0.32-0.21h-3.65l-0.12,1.74h0.47
	c0.06-1.02,0.37-1.38,1.39-1.38h0.84l-2.77,3.62c-0.09,0.11-0.09,0.13-0.09,0.22c0,0.22,0.13,0.22,0.32,0.22h3.78l0.18-2.01h-0.47
	c-0.09,1-0.25,1.61-1.56,1.61h-0.85L62.79,42.54"/>
<g>
	<g>
		<line class="st0" x1="71.7" y1="9.21" x2="63.54" y2="27.95"/>
		<g>
			<path class="st1" d="M62.33,30.71c0.08-1.51-0.04-3.49-0.47-4.87l1.84,1.74l2.52,0.16C64.91,28.37,63.38,29.62,62.33,30.71z"/>
		</g>
	</g>
</g>
<g>
	<g>
		<line class="st0" x1="48.78" y1="9.13" x2="56.95" y2="27.86"/>
		<g>
			<path class="st1" d="M58.15,30.63c-1.05-1.09-2.58-2.35-3.89-2.97l2.52-0.16l1.84-1.74C58.19,27.14,58.07,29.12,58.15,30.63z"/>
		</g>
	</g>
</g>
<path class="st2" d="M47.25,1.79l1.13,2.76h-2.27L47.25,1.79z M48.09,0.26C47.98,0,47.86,0,47.69,0c-0.28,0-0.32,0.08-0.39,0.26
	l-2.46,5.98C44.78,6.39,44.75,6.47,44,6.47h-0.21v0.47c0.38-0.01,0.85-0.03,1.16-0.03c0.39,0,0.94,0,1.31,0.03V6.47
	c-0.02,0-0.88,0-0.88-0.13c0-0.01,0.03-0.11,0.04-0.12l0.5-1.2h2.66l0.6,1.45h-0.94v0.47c0.38-0.03,1.32-0.03,1.75-0.03
	c0.4,0,1.27,0,1.62,0.03V6.47h-0.96L48.09,0.26z"/>
<path class="st2" d="M72.49,6.41h-1.83v-2.9h1.93c0.2,0,0.67,0,1,0.43c0.33,0.42,0.33,0.97,0.33,1.08
	C73.92,5.14,73.92,6.41,72.49,6.41 M73.34,3.32c1.07-0.19,1.72-0.78,1.72-1.55c0-0.91-0.86-1.71-2.46-1.71h-4.31v0.47h1.07v5.88
	h-1.07v0.47h4.61c1.65,0,2.48-0.87,2.48-1.85C75.38,4.07,74.53,3.41,73.34,3.32z M70.66,3.15V0.53h1.81c1,0,1.18,0.78,1.18,1.24
	c0,0.77-0.48,1.38-1.44,1.38H70.66z"/>
</svg>
