<?xml version="1.0" encoding="utf-8"?>
<!-- Generator: Adobe Illustrator 26.0.2, SVG Export Plug-In . SVG Version: 6.00 Build 0)  -->
<svg version="1.1" id="Layer_1" xmlns="http://www.w3.org/2000/svg" xmlns:xlink="http://www.w3.org/1999/xlink" x="0px" y="0px"
	 viewBox="0 0 71 23" style="enable-background:new 0 0 71 23;" xml:space="preserve">
<style type="text/css">
	.st0{fill:none;stroke:#486AFB;stroke-miterlimit:10;}
	.st1{fill:#486AFB;}
	.st2{fill:#FD46FC;}
</style>
<circle class="st0" cx="11.5" cy="11.5" r="11"/>
<circle class="st0" cx="59.5" cy="11.5" r="11"/>
<g>
	<g>
		<line class="st0" x1="24.5" y1="11.5" x2="42.98" y2="11.5"/>
		<g>
			<path class="st1" d="M46,11.5c-1.42,0.53-3.18,1.43-4.27,2.38l0.86-2.38l-0.86-2.38C42.82,10.07,44.58,10.97,46,11.5z"/>
		</g>
	</g>
</g>
<path class="st2" d="M36.39,5.29c-0.06,0.26-0.29,0.51-0.51,0.7c-0.21,0.18-0.52,0.36-0.8,0.36c-0.5,0-0.65-0.52-0.65-0.91
	c0-0.48,0.29-1.65,0.56-2.15c0.27-0.49,0.7-0.88,1.11-0.88c0.65,0,0.79,0.8,0.79,0.85c0,0.05-0.02,0.11-0.03,0.15L36.39,5.29
	 M37.68,2.82c0.01-0.06,0.03-0.11,0.03-0.18c0-0.17-0.12-0.27-0.29-0.27c-0.1,0-0.37,0.07-0.41,0.43c-0.18-0.37-0.53-0.63-0.92-0.63
	c-1.13,0-2.36,1.39-2.36,2.82c0,0.98,0.61,1.57,1.32,1.57c0.59,0,1.05-0.47,1.15-0.58L36.21,6c-0.21,0.88-0.33,1.29-0.33,1.31
	c-0.04,0.09-0.38,1.07-1.43,1.07c-0.19,0-0.52-0.01-0.79-0.1c0.3-0.09,0.41-0.35,0.41-0.52c0-0.16-0.11-0.35-0.38-0.35
	c-0.22,0-0.54,0.18-0.54,0.57c0,0.41,0.37,0.61,1.32,0.61c1.24,0,1.96-0.78,2.11-1.37L37.68,2.82z"/>
<path class="st2" d="M12.2,11.17l1.16-1.29c0.13-0.14,0.19-0.21,1.01-0.21V9.2c-0.35,0.02-0.86,0.03-0.91,0.03
	c-0.25,0-0.75-0.02-1.02-0.03v0.47c0.14,0,0.26,0.02,0.38,0.09c-0.04,0.06-0.04,0.08-0.08,0.12l-0.83,0.93l-0.97-1.14h0.4V9.2
	c-0.26,0.01-0.88,0.03-1.2,0.03c-0.32,0-0.77-0.02-1.09-0.03v0.47h0.7l1.55,1.83l-1.3,1.46c-0.17,0.19-0.53,0.19-1,0.19v0.47
	c0.35-0.02,0.86-0.03,0.91-0.03c0.25,0,0.82,0.02,1.02,0.03v-0.47c-0.18,0-0.37-0.05-0.37-0.11c0-0.01,0-0.02,0.07-0.1l0.96-1.08
	l1.09,1.29h-0.39v0.47c0.26-0.01,0.86-0.03,1.19-0.03c0.32,0,0.76,0.02,1.09,0.03v-0.47h-0.7L12.2,11.17"/>
<path class="st2" d="M61.98,9.91c0.07-0.14,0.1-0.21,0.73-0.21V9.23c-0.24,0.02-0.54,0.03-0.78,0.03c-0.25,0-0.7-0.02-0.9-0.03V9.7
	c0.02,0,0.47,0,0.47,0.12c0,0.01-0.04,0.11-0.05,0.12l-1.14,2.44L59.04,9.7h0.54V9.23c-0.33,0.02-1.22,0.03-1.23,0.03
	c-0.28,0-0.73-0.02-1.13-0.03V9.7h0.64l1.86,3.94l-0.23,0.48c-0.22,0.48-0.54,1.15-1.24,1.15c-0.14,0-0.16-0.01-0.24-0.04
	c0.09-0.04,0.32-0.18,0.32-0.53c0-0.33-0.24-0.57-0.58-0.57c-0.28,0-0.57,0.19-0.57,0.58c0,0.51,0.47,0.91,1.06,0.91
	c0.77,0,1.34-0.62,1.61-1.18L61.98,9.91"/>
</svg>
