<?xml version="1.0" encoding="utf-8"?>
<!-- Generator: Adobe Illustrator 26.0.2, SVG Export Plug-In . SVG Version: 6.00 Build 0)  -->
<svg version="1.1" id="Layer_1" xmlns="http://www.w3.org/2000/svg" xmlns:xlink="http://www.w3.org/1999/xlink" x="0px" y="0px"
	 viewBox="0 0 71 55.64" style="enable-background:new 0 0 71 55.64;" xml:space="preserve">
<style type="text/css">
	.st0{fill:none;stroke:#486AFB;stroke-miterlimit:10;}
	.st1{fill:#486AFB;}
	.st2{fill:#FD46FC;}
</style>
<circle class="st0" cx="11.5" cy="44.14" r="11"/>
<circle class="st0" cx="59.5" cy="44.14" r="11"/>
<g>
	<g>
		<line class="st0" x1="24.5" y1="44.14" x2="42.98" y2="44.14"/>
		<g>
			<path class="st1" d="M46,44.14c-1.42,0.53-3.18,1.43-4.27,2.38l0.86-2.38l-0.86-2.38C42.82,42.72,44.58,43.62,46,44.14z"/>
		</g>
	</g>
</g>
<path class="st2" d="M12.2,43.81l1.16-1.29c0.13-0.14,0.19-0.21,1.01-0.21v-0.47c-0.35,0.02-0.86,0.03-0.91,0.03
	c-0.25,0-0.75-0.02-1.02-0.03v0.47c0.14,0,0.26,0.02,0.38,0.09c-0.04,0.06-0.04,0.08-0.08,0.12l-0.83,0.93l-0.97-1.14h0.4v-0.47
	c-0.26,0.01-0.88,0.03-1.2,0.03c-0.32,0-0.77-0.02-1.09-0.03v0.47h0.7l1.55,1.83l-1.3,1.46c-0.17,0.19-0.53,0.19-1,0.19v0.47
	c0.35-0.02,0.86-0.03,0.91-0.03c0.25,0,0.82,0.02,1.02,0.03v-0.47c-0.18,0-0.37-0.05-0.37-0.11c0-0.01,0-0.02,0.07-0.1l0.96-1.08
	l1.09,1.29h-0.39v0.47c0.26-0.01,0.86-0.03,1.19-0.03c0.32,0,0.76,0.02,1.09,0.03v-0.47h-0.7L12.2,43.81"/>
<path class="st2" d="M61.98,42.55c0.07-0.14,0.1-0.21,0.73-0.21v-0.47c-0.24,0.02-0.54,0.03-0.78,0.03c-0.25,0-0.7-0.02-0.9-0.03
	v0.47c0.02,0,0.47,0,0.47,0.12c0,0.01-0.04,0.11-0.05,0.12l-1.14,2.44l-1.26-2.68h0.54v-0.47c-0.33,0.02-1.22,0.03-1.23,0.03
	c-0.28,0-0.73-0.02-1.13-0.03v0.47h0.64l1.86,3.94l-0.23,0.48c-0.22,0.48-0.54,1.15-1.24,1.15c-0.14,0-0.16-0.01-0.24-0.04
	c0.09-0.04,0.32-0.18,0.32-0.53c0-0.33-0.24-0.57-0.58-0.57c-0.28,0-0.57,0.19-0.57,0.58c0,0.51,0.47,0.91,1.06,0.91
	c0.77,0,1.34-0.62,1.61-1.18L61.98,42.55"/>
<g>
	<g>
		<line class="st0" x1="59.06" y1="8.89" x2="59.06" y2="27.37"/>
		<g>
			<path class="st1" d="M59.06,30.39c-0.53-1.42-1.43-3.18-2.38-4.27l2.38,0.86l2.38-0.86C60.49,27.21,59.59,28.97,59.06,30.39z"/>
		</g>
	</g>
</g>
<path class="st2" d="M58.46,1.79l1.13,2.76h-2.27L58.46,1.79z M59.31,0.26C59.2,0,59.08,0,58.91,0c-0.28,0-0.32,0.08-0.39,0.26
	l-2.46,5.98C56,6.39,55.97,6.47,55.21,6.47h-0.21v0.47c0.38-0.01,0.85-0.03,1.16-0.03c0.39,0,0.94,0,1.31,0.03V6.47
	c-0.02,0-0.88,0-0.88-0.13c0-0.01,0.03-0.11,0.04-0.12l0.5-1.2h2.66l0.6,1.45h-0.94v0.47c0.38-0.03,1.32-0.03,1.75-0.03
	c0.4,0,1.27,0,1.62,0.03V6.47h-0.96L59.31,0.26z"/>
</svg>
