<?xml version="1.0" encoding="utf-8"?>
<!-- Generator: Adobe Illustrator 26.0.2, SVG Export Plug-In . SVG Version: 6.00 Build 0)  -->
<svg version="1.1" id="Layer_1" xmlns="http://www.w3.org/2000/svg" xmlns:xlink="http://www.w3.org/1999/xlink" x="0px" y="0px"
	 viewBox="0 0 169.14 78.53" style="enable-background:new 0 0 169.14 78.53;" xml:space="preserve">
<style type="text/css">
	.st0{fill:#FD46FC;}
	.st1{fill:#486AFB;}
</style>
<g>
	<g>
		<path class="st0" d="M0.12,20.25c0.77,1.17,1.62,2.3,2.53,3.37c0.74,0.86,2.1,2.55,3.3,1.32c0.46-0.46,0.66-1.17,0.89-1.77
			c0.26-0.67,0.5-1.34,0.71-2.03c0.42-1.37,0.81-2.79,0.81-4.23c0-0.64-0.85-0.69-1.05-0.14c-0.42,1.12-0.68,2.29-1.03,3.43
			c-0.35,1.14-0.76,2.27-1.23,3.37c-0.04,0.09-0.08,0.17-0.12,0.26c-0.08,0.17-0.09,0.08-0.02,0.07c0.07-0.01-0.07-0.05-0.12-0.08
			c-0.09-0.06-0.16-0.14-0.24-0.21c-0.42-0.42-0.8-0.89-1.17-1.35c-0.72-0.88-1.39-1.8-2.01-2.76C0.88,18.74-0.4,19.47,0.12,20.25
			L0.12,20.25z"/>
	</g>
</g>
<g>
	<g>
		<path class="st0" d="M14.89,19.94c-0.71-0.94-2.04-2.21-3.28-1.35c-0.59,0.41-0.86,1.18-1.12,1.83c-0.3,0.77-0.54,1.56-0.7,2.37
			c-0.23,1.2-0.43,2.69,0.4,3.72c0.38,0.47,0.96,0.72,1.56,0.65c0.73-0.09,1.33-0.6,1.77-1.16c1.02-1.29,1.38-2.92,1.16-4.54
			c-0.08-0.58-1.09-0.46-1.02,0.13c0.25,2.18,2.82,3.86,4.82,2.62c0.46-0.29,0.18-1.09-0.38-0.92c-1.39,0.44-3.14-0.33-3.42-1.83
			c-0.34,0.09-0.67,0.17-1.01,0.26c0.28,1.32-0.17,2.73-1.1,3.69c-0.31,0.32-0.89,0.82-1.35,0.44c-0.31-0.26-0.43-0.79-0.47-1.17
			c-0.15-1.36,0.25-2.9,0.74-4.15c0.2-0.52,0.48-1.38,1.19-1.2c0.6,0.15,1.08,0.73,1.44,1.19C14.46,20.96,15.22,20.38,14.89,19.94
			L14.89,19.94z"/>
	</g>
</g>
<g>
	<g>
		<path class="st0" d="M21.45,25.32c-0.91-1.04-2.08-2.53-1.41-4c0.64-1.41,2.59-0.9,3.76-0.68c0.53,0.1,0.7-0.6,0.21-0.8
			c-1.24-0.49-2.86-0.83-4.03,0.03c-1.23,0.9-1.38,2.55-0.84,3.89c0.34,0.83,0.88,1.54,1.41,2.25c0.2,0.27,0.54,0.39,0.84,0.16
			C21.68,25.96,21.68,25.58,21.45,25.32L21.45,25.32z"/>
	</g>
</g>
<g>
	<g>
		<path class="st0" d="M25.68,22.36c0.06,0.68,0.09,1.38,0.19,2.06c0.05,0.31,0.1,0.61,0.15,0.92c0.05,0.31,0.14,0.6,0.22,0.9
			c0.09,0.34,0.42,0.55,0.76,0.51c0.37-0.05,0.57-0.33,0.61-0.68c0.08-0.62,0.12-1.23,0.12-1.85c0-0.62-0.05-1.24-0.08-1.85
			c-0.02-0.51-0.43-1.01-0.98-0.99C26.18,21.4,25.63,21.81,25.68,22.36L25.68,22.36z"/>
	</g>
</g>
<g>
	<g>
		<path class="st0" d="M27.16,27.8C27.16,27.8,27.16,27.79,27.16,27.8C27.15,27.79,27.15,27.8,27.16,27.8L27.16,27.8z"/>
	</g>
</g>
<g>
	<g>
		<path class="st0" d="M25.69,18.41c0.01,0.05,0.01,0.1,0.02,0.15c0.01,0.03,0.02,0.06,0.03,0.09c0.01,0.02,0.02,0.06,0.04,0.08
			c0,0,0,0.01,0.01,0.01c0.03,0.04,0.06,0.08,0.09,0.12c0.01,0.01,0.02,0.02,0.03,0.03c0.04,0.03,0.09,0.08,0.15,0.1
			c0.05,0.02,0.09,0.04,0.14,0.06c0.01,0,0.02,0.01,0.03,0.01c0.01,0,0.02,0,0.02,0c0.05,0.01,0.1,0.02,0.15,0.02
			c0.01,0,0.02,0,0.02,0c0.05,0,0.11-0.01,0.16-0.02c0.02,0,0.03-0.01,0.05-0.01c0.05-0.02,0.09-0.04,0.14-0.06c0,0,0.01,0,0.01,0
			c0.01,0,0.01-0.01,0.02-0.01c0,0,0.01,0,0.01-0.01c0.04-0.03,0.08-0.06,0.12-0.09c0.01-0.01,0.01-0.01,0.02-0.02
			c0.04-0.04,0.08-0.09,0.11-0.15c0.02-0.04,0.04-0.09,0.05-0.13c0,0,0-0.01,0-0.01c0.01-0.05,0.01-0.1,0.02-0.14
			c0-0.01,0-0.01,0-0.02c0-0.06-0.01-0.12-0.02-0.18c0,0,0-0.01,0-0.01c-0.02-0.04-0.04-0.09-0.06-0.14c0-0.01-0.01-0.02-0.01-0.02
			c-0.03-0.04-0.06-0.09-0.1-0.13c-0.01-0.01-0.01-0.01-0.02-0.02c-0.02-0.02-0.05-0.04-0.07-0.06c-0.02-0.02-0.05-0.04-0.08-0.06
			c-0.01-0.01-0.02-0.01-0.03-0.01c-0.05-0.02-0.1-0.04-0.15-0.06c-0.01,0-0.02-0.01-0.03-0.01c-0.03,0-0.05-0.01-0.08-0.01
			c-0.02,0-0.05-0.01-0.08-0.01c0,0-0.01,0-0.01,0c-0.02,0-0.11,0.01-0.13,0.02c0,0,0,0,0,0c-0.04,0.02-0.08,0.03-0.12,0.05
			c-0.03,0.01-0.05,0.04-0.07,0.05c-0.02,0.02-0.05,0.03-0.07,0.06c0,0-0.01,0.01-0.01,0.01c-0.01,0.01-0.07,0.09-0.07,0.1
			c-0.01,0.02-0.04,0.1-0.05,0.11c-0.02,0.06-0.02,0.12-0.01,0.18c0,0.06,0.02,0.12,0.05,0.17c0.03,0.03,0.05,0.07,0.08,0.1
			c0.06,0.06,0.13,0.1,0.21,0.12c0.02,0.01,0.04,0.01,0.06,0.01c0.02,0,0.04,0.01,0.06,0.01c0,0,0.01,0,0.01,0
			c-0.04-0.01-0.08-0.01-0.12-0.02c0.01,0,0.03,0.01,0.04,0.01c-0.04-0.02-0.08-0.03-0.12-0.05c0.05,0.02,0.06,0.04,0.13,0.05
			c0.05,0.01,0.1,0.01,0.14,0.02c-0.04-0.01-0.09-0.01-0.13-0.02c0.02,0,0.04,0.01,0.06,0.02c-0.04-0.02-0.08-0.03-0.12-0.05
			c0.02,0.01,0.04,0.02,0.06,0.03c-0.04-0.03-0.07-0.05-0.11-0.08c0.02,0.01,0.03,0.03,0.05,0.04c-0.03-0.04-0.06-0.07-0.08-0.11
			c0.01,0.02,0.02,0.03,0.03,0.05c-0.02-0.04-0.04-0.09-0.05-0.13c0.01,0.01,0.01,0.03,0.01,0.04c-0.01-0.04-0.01-0.09-0.02-0.13
			c0,0.01,0,0.02,0,0.04c0.01-0.04,0.01-0.09,0.02-0.13c0,0.02-0.01,0.03-0.01,0.05c0.02-0.04,0.03-0.08,0.05-0.12
			c0,0.01-0.01,0.02-0.02,0.03c0.03-0.04,0.05-0.07,0.08-0.11c-0.01,0.01-0.02,0.02-0.03,0.03c0.04-0.03,0.07-0.06,0.11-0.09
			c-0.01,0.01-0.03,0.02-0.04,0.02c0.04-0.02,0.09-0.04,0.13-0.05c-0.02,0.01-0.04,0.01-0.06,0.02c0.04-0.01,0.09-0.01,0.13-0.02
			c-0.02,0-0.05,0-0.07,0c0.04,0.01,0.09,0.01,0.13,0.02c-0.02,0-0.04-0.01-0.06-0.02c0.04,0.02,0.08,0.03,0.12,0.05
			c-0.02-0.01-0.03-0.02-0.05-0.03c0.04,0.03,0.07,0.05,0.11,0.08c-0.01-0.01-0.02-0.02-0.03-0.03c0.03,0.04,0.06,0.07,0.09,0.11
			c-0.01-0.01-0.01-0.02-0.02-0.03c0.02,0.04,0.04,0.09,0.05,0.13c-0.01-0.01-0.01-0.03-0.01-0.04c0.01,0.04,0.01,0.09,0.02,0.13
			c0,0,0,0,0,0c0-0.07-0.01-0.14-0.04-0.2c-0.02-0.07-0.06-0.13-0.11-0.17c-0.05-0.05-0.1-0.09-0.17-0.11
			c-0.06-0.03-0.12-0.04-0.19-0.04c-0.04,0.01-0.09,0.01-0.13,0.02c-0.09,0.02-0.17,0.07-0.24,0.14c-0.03,0.04-0.05,0.07-0.08,0.11
			C25.71,18.23,25.69,18.32,25.69,18.41L25.69,18.41z"/>
	</g>
</g>
<g>
	<g>
		<path class="st0" d="M34.46,22.02c-0.48-0.85-1.57-1.16-2.48-0.86c-1.08,0.37-1.71,1.47-1.87,2.55c-0.13,0.96,0.11,2.16,1.06,2.62
			c1.08,0.52,2.61-0.16,3.41-0.92c0.88-0.84,1.12-2.35,0.15-3.23c-0.24-0.22-0.61-0.12-0.7,0.19c-0.39,1.25,0.05,2.66,1.19,3.37
			c1.2,0.75,2.82,0.4,3.62-0.75c0.33-0.48-0.37-0.89-0.75-0.57c-0.62,0.52-1.63,0.72-2.36,0.32c-0.73-0.4-1.12-1.35-0.88-2.15
			c-0.23,0.06-0.47,0.13-0.7,0.19c0.82,0.72,0.12,1.82-0.63,2.24c-0.43,0.25-1,0.46-1.5,0.48c-0.45,0.02-0.75-0.25-0.92-0.65
			c-0.36-0.83-0.11-1.97,0.52-2.61c0.6-0.62,1.76-0.69,2.23,0.12C34.07,22.77,34.69,22.41,34.46,22.02L34.46,22.02z"/>
	</g>
</g>
<g>
	<g>
		<path class="st0" d="M38.37,18.64c0.21,1.17,0.42,2.35,0.63,3.52c0.21,1.17,0.32,2.45,0.78,3.55c0.15,0.35,0.65,0.46,0.97,0.32
			c0.36-0.15,0.55-0.52,0.46-0.91c-0.1-0.46,0-1.01,0.1-1.46c0.11-0.49,0.29-0.96,0.63-1.34c0.48-0.54,1.34-0.78,2.01-0.49
			c0.83,0.36,0.68,1.33,0.19,1.92c-0.74,0.89-1.99,0.97-3.02,1.3c-0.46,0.15-0.38,0.81,0.1,0.84c1.19,0.06,2.47-0.18,3.41-0.95
			c0.8-0.65,1.29-1.81,0.96-2.83c-0.3-0.94-1.17-1.46-2.11-1.51c-0.95-0.06-1.88,0.37-2.48,1.09c-0.41,0.48-0.7,1.05-0.89,1.65
			c-0.19,0.58-0.22,1.2-0.41,1.78c0.51,0.07,1.02,0.14,1.53,0.21c0.03-0.62-0.13-1.27-0.23-1.88c-0.1-0.58-0.2-1.15-0.3-1.73
			c-0.21-1.18-0.41-2.35-0.62-3.53c-0.08-0.47-0.65-0.75-1.08-0.63C38.51,17.69,38.29,18.17,38.37,18.64L38.37,18.64z"/>
	</g>
</g>
<g>
	<g>
		<path class="st0" d="M48.88,21.63C48.88,21.63,48.88,21.62,48.88,21.63C48.87,21.62,48.87,21.63,48.88,21.63L48.88,21.63z"/>
	</g>
</g>
<g>
	<g>
		<path class="st0" d="M48.16,18.17c-0.03,1.53,0.06,3.08,0.31,4.59c0.24,1.47,0.66,3.01,1.44,4.3c0.21,0.35,0.89,0.25,0.84-0.22
			c-0.17-1.45-0.51-2.87-0.74-4.31c-0.23-1.45-0.36-2.89-0.35-4.35C49.66,17.21,48.18,17.21,48.16,18.17L48.16,18.17z"/>
	</g>
</g>
<g>
	<g>
		<path class="st0" d="M52.75,24.64c1.12,0.38,2.55,0.27,3.29-0.77c0.57-0.8,0.3-2.09-0.54-2.61c-1.1-0.68-2.3,0.42-2.62,1.44
			c-0.36,1.13,0.01,2.51,0.94,3.26c1.16,0.93,3.01,1.05,4.2,0.1c0.3-0.24-0.03-0.68-0.35-0.61c-0.48,0.1-0.94,0.21-1.44,0.18
			c-0.43-0.02-0.87-0.11-1.24-0.28c-0.78-0.35-1.29-1.05-1.33-1.91c-0.02-0.4,0.06-0.79,0.27-1.13c0.2-0.32,0.58-0.67,0.99-0.61
			c0.66,0.1,0.88,1.09,0.63,1.6c-0.44,0.91-1.8,0.94-2.62,0.7C52.5,23.88,52.35,24.5,52.75,24.64L52.75,24.64z"/>
	</g>
</g>
<g>
	<g>
		<path class="st0" d="M62.31,20.58c-0.86,0.27-1.57,0.79-2.06,1.55c-0.09,0.14-0.1,0.38,0,0.53c0.36,0.51,0.71,1.04,1.06,1.56
			c0.17,0.26,0.35,0.52,0.52,0.79c0.14,0.21,0.31,0.43,0.41,0.67c0.15,0.37-0.11,0.7-0.45,0.86c-0.46,0.22-1.03,0.19-1.53,0.22
			c-0.51,0.03-0.69,0.83-0.13,0.94c0.73,0.15,1.47,0.21,2.16-0.11c0.61-0.28,1.09-0.87,1.13-1.55c0.05-0.74-0.49-1.35-0.89-1.91
			c-0.47-0.66-0.93-1.32-1.38-1.99c-0.03,0.21-0.05,0.42-0.08,0.64c0.39-0.51,0.9-0.88,1.52-1.04
			C63.34,21.52,63.03,20.36,62.31,20.58L62.31,20.58z"/>
	</g>
</g>
<g>
	<g>
		<path class="st0" d="M2.96,31.96c16.35,0.22,32.68,0.71,49.02,1.38c4.64,0.19,9.28,0.38,13.93,0.52c0.51,0.01,0.51-0.76,0-0.79
			c-16.31-1.05-32.67-1.35-49.01-1.75c-4.65-0.11-9.29-0.21-13.94-0.29C2.37,31.01,2.36,31.95,2.96,31.96L2.96,31.96z"/>
	</g>
</g>
<g>
	<g>
		<path class="st0" d="M128.86,17.08c0.19,1.94,0.39,3.89,0.6,5.83c0.2,1.9,0.29,3.94,0.93,5.76c0.16,0.47,1.01,0.62,1.1,0
			c0.27-1.89,0-3.85-0.16-5.75c-0.17-1.94-0.36-3.89-0.54-5.83c-0.05-0.51-0.4-0.96-0.95-0.96
			C129.34,16.13,128.81,16.57,128.86,17.08L128.86,17.08z"/>
	</g>
</g>
<g>
	<g>
		<path class="st0" d="M133.8,23.99c0.11,0.55,0.21,1.11,0.33,1.66c0.12,0.55,0.28,1.09,0.47,1.62c0.1,0.27,0.32,0.45,0.62,0.41
			c0.28-0.03,0.49-0.27,0.5-0.55c0.01-0.61-0.02-1.23-0.1-1.84c-0.08-0.57-0.16-1.15-0.24-1.72c-0.03-0.19-0.22-0.41-0.38-0.5
			c-0.17-0.1-0.42-0.14-0.61-0.08C133.94,23.13,133.72,23.54,133.8,23.99L133.8,23.99z"/>
	</g>
</g>
<g>
	<g>
		<path class="st0" d="M133.74,21.01c0.05,0,0.11,0,0.16-0.02c0.05-0.01,0.1-0.03,0.14-0.06c0.04-0.03,0.08-0.06,0.12-0.1
			c0.06-0.08,0.09-0.12,0.12-0.21c0.01-0.02,0.01-0.04,0.01-0.06c0.01-0.05,0.02-0.1,0.02-0.16c0-0.08-0.02-0.15-0.03-0.22
			c0,0.03,0.01,0.07,0.01,0.1c-0.01-0.13-0.03-0.22-0.09-0.33c0.01,0.04,0.03,0.07,0.04,0.11c-0.02-0.05-0.04-0.11-0.07-0.16
			c-0.08-0.12-0.18-0.2-0.32-0.25c-0.06-0.02-0.12-0.03-0.18-0.02c-0.11,0.01-0.21,0.03-0.31,0.08c-0.15,0.09-0.25,0.25-0.25,0.43
			c0,0.09,0.02,0.17,0.07,0.25c0.05,0.08,0.11,0.14,0.19,0.18c0.1,0.04,0.2,0.09,0.31,0.1c0.08,0.01,0.15,0.02,0.22,0.02
			c0.07,0,0.15-0.01,0.22-0.03c0.03-0.01,0.04-0.01,0.08-0.03c0.02-0.01,0.05-0.02,0.07-0.03c0.03-0.03,0.07-0.05,0.1-0.08
			c0.01-0.01,0.02-0.02,0.03-0.03c0.02-0.02,0.04-0.04,0.06-0.07c0.02-0.02,0.04-0.05,0.05-0.07c0.07-0.09,0.09-0.2,0.07-0.31
			c-0.01-0.06-0.05-0.11-0.09-0.16c0.02,0.02,0.04,0.05,0.05,0.07c-0.01-0.01-0.02-0.03-0.03-0.04c-0.04-0.05-0.09-0.09-0.15-0.11
			c-0.03-0.01-0.05-0.02-0.08-0.03c-0.03-0.01-0.06-0.02-0.09-0.03c0.04,0.01,0.07,0.03,0.11,0.04c-0.01,0-0.02-0.01-0.03-0.01
			c-0.09-0.04-0.16-0.07-0.26-0.07c-0.03,0-0.07,0-0.1-0.01c0.04,0.01,0.08,0.01,0.12,0.02c-0.09-0.01-0.19-0.03-0.28-0.07
			c0.04,0.02,0.08,0.03,0.12,0.05c-0.01,0-0.01-0.01-0.02-0.01c0,0.29,0,0.58,0,0.87c0.04-0.03,0.08-0.06,0.12-0.1
			c-0.04,0.03-0.07,0.05-0.11,0.08c0.01-0.01,0.02-0.02,0.04-0.02c-0.04,0.02-0.08,0.03-0.12,0.05c0.01,0,0.02-0.01,0.03-0.01
			c-0.04,0.01-0.08,0.01-0.12,0.02c0.01,0,0.01,0,0.02,0c0.05,0,0.09-0.01,0.14-0.01c-0.04,0.01-0.08,0.01-0.12,0.02
			c0.01,0,0.02,0,0.04,0c-0.04-0.01-0.08-0.01-0.12-0.02c0.01,0,0.03,0.01,0.04,0.01c-0.03-0.01-0.07-0.03-0.1-0.04
			c0.01,0,0.02,0.01,0.02,0.02c-0.03-0.02-0.06-0.04-0.09-0.07c0.02,0.02,0.04,0.04,0.06,0.06c-0.02-0.03-0.04-0.06-0.07-0.09
			c0,0,0.01,0.01,0.01,0.01c-0.01-0.03-0.03-0.07-0.04-0.1c0.01,0.03,0.02,0.07,0.03,0.1c0-0.03-0.01-0.07-0.01-0.1
			c0,0.03,0,0.06,0,0.09c0-0.03,0.01-0.07,0.01-0.1c0,0.02-0.01,0.03-0.01,0.05c0.01-0.03,0.03-0.06,0.04-0.09
			c-0.01,0.01-0.01,0.03-0.02,0.04c0.02-0.03,0.04-0.05,0.06-0.08c-0.01,0.01-0.02,0.02-0.02,0.02c0.03-0.02,0.06-0.04,0.08-0.06
			c-0.01,0.01-0.02,0.01-0.03,0.02c0.03-0.01,0.06-0.03,0.1-0.04c-0.01,0.01-0.03,0.01-0.04,0.01c0.03,0,0.07-0.01,0.1-0.01
			c-0.01,0-0.02,0-0.03,0c-0.1,0-0.21,0.04-0.28,0.12c-0.07,0.07-0.11,0.17-0.11,0.27c0,0.1,0.04,0.21,0.12,0.28
			C133.55,20.97,133.64,21,133.74,21.01L133.74,21.01z"/>
	</g>
</g>
<g>
	<g>
		<path class="st0" d="M138.41,26.72c-0.12-0.81-0.19-1.77,0.31-2.47c0.18-0.26,0.44-0.48,0.74-0.58c0.13-0.04,0.27-0.06,0.41-0.05
			c0.06,0.01,0.12,0.02,0.17,0.04c0.03,0.01,0.18,0.07,0.13,0.05c-0.06-0.02,0.09,0.05,0.12,0.06c0.02,0.01,0.17,0.11,0.11,0.07
			c-0.06-0.04,0.06,0.05,0.08,0.07c0.05,0.05,0.1,0.1,0.15,0.16c0.11,0.12-0.02-0.04,0.05,0.06c0.04,0.05,0.08,0.11,0.11,0.17
			c0.07,0.12,0.14,0.24,0.21,0.36c0.27,0.52,0.48,1.08,0.76,1.6c0.35,0.65,0.83,1.32,1.59,1.49c0.6,0.13,0.89-0.52,0.55-0.96
			c0.07,0.09-0.05-0.08-0.06-0.1c-0.06-0.09-0.14-0.17-0.21-0.25c-0.02-0.02-0.16-0.19-0.11-0.13c0.05,0.07-0.01-0.01-0.01-0.02
			c-0.03-0.05-0.07-0.1-0.1-0.15c-0.19-0.26-0.35-0.54-0.5-0.83c-0.3-0.57-0.57-1.18-0.95-1.7c-0.4-0.55-0.93-1.04-1.63-1.14
			c-0.99-0.15-1.9,0.36-2.46,1.16c-0.69,0.98-0.64,2.26-0.47,3.38c0.04,0.29,0.39,0.45,0.65,0.38
			C138.33,27.29,138.45,27.01,138.41,26.72L138.41,26.72z"/>
	</g>
</g>
<g>
	<g>
		<path class="st0" d="M145.4,20.99c0.15,1.35,0.29,2.7,0.46,4.05c0.17,1.31,0.28,2.65,0.65,3.93c0.2,0.69,1.17,0.54,1.21-0.15
			c0.08-1.3-0.08-2.61-0.19-3.91c-0.11-1.3-0.26-2.6-0.39-3.91c-0.05-0.47-0.36-0.87-0.87-0.88
			C145.85,20.12,145.35,20.52,145.4,20.99L145.4,20.99z"/>
	</g>
</g>
<g>
	<g>
		<path class="st0" d="M147.98,25.74C147.98,25.74,147.98,25.73,147.98,25.74C147.97,25.73,147.97,25.74,147.98,25.74L147.98,25.74z
			"/>
	</g>
</g>
<g>
	<g>
		<path class="st0" d="M148.13,25.33c0.72-0.81,1.57-1.53,2.37-2.16c0.77-0.61,1.74-1.19,2.51-1.91c0.34-0.32-0.03-0.79-0.42-0.72
			c-1.11,0.19-2.08,0.84-2.95,1.51c-0.89,0.69-1.67,1.55-2.36,2.44c-0.2,0.26-0.25,0.6,0.01,0.85
			C147.51,25.55,147.92,25.57,148.13,25.33L148.13,25.33z"/>
	</g>
</g>
<g>
	<g>
		<path class="st0" d="M147.79,27.39c0.67,0.43,1.34,0.87,2.01,1.3c0.32,0.21,0.65,0.43,0.98,0.62c0.37,0.21,0.94,0.42,1.37,0.37
			c0.36-0.04,0.72-0.35,0.59-0.76c-0.29-0.89-1.23-1.39-1.97-1.87c-0.69-0.44-1.37-0.87-2.06-1.31c-0.42-0.26-1.06-0.09-1.28,0.35
			C147.19,26.58,147.35,27.1,147.79,27.39L147.79,27.39z"/>
	</g>
</g>
<g>
	<g>
		<path class="st0" d="M130.12,34.28c9.39-0.29,18.79-0.17,28.18-0.44c0.41-0.01,0.42-0.62,0-0.64c-9.38-0.37-18.8-0.02-28.18,0.25
			C129.58,33.46,129.58,34.29,130.12,34.28L130.12,34.28z"/>
	</g>
</g>
<g>
	<g>
		<path class="st1" d="M19.79,51.42c1.37-1.64,2.73-3.28,4.1-4.91c0.67-0.81,1.34-1.62,2-2.44c0.32-0.4,0.64-0.8,0.95-1.2
			c0.32-0.41,0.76-0.86,0.84-1.38c0.05-0.33-0.22-0.75-0.6-0.61c-0.49,0.19-0.8,0.58-1.14,0.97c-0.33,0.39-0.66,0.78-0.98,1.17
			c-0.69,0.83-1.37,1.68-2.05,2.52c-1.33,1.67-2.66,3.35-3.99,5.02C18.42,51.16,19.28,52.03,19.79,51.42L19.79,51.42z"/>
	</g>
</g>
<g>
	<g>
		<path class="st1" d="M20.03,43.38c0.85,1.66,1.84,3.24,2.97,4.73c1.14,1.5,2.34,3,3.92,4.06c0.48,0.32,1.17-0.34,0.82-0.82
			c-1.07-1.45-2.34-2.73-3.4-4.18c-1.07-1.46-2.02-3.01-2.84-4.63C21.01,41.56,19.53,42.41,20.03,43.38L20.03,43.38z"/>
	</g>
</g>
<g>
	<g>
		<path class="st1" d="M57.78,42.24c-1.07,1.66-2.13,3.33-3.19,5c-0.51,0.81-1.02,1.62-1.54,2.42c-0.48,0.76-1.28,1.65-1.33,2.58
			c-0.02,0.36,0.39,0.54,0.68,0.39c0.44-0.23,0.69-0.64,0.96-1.04c0.28-0.42,0.56-0.85,0.84-1.28c0.53-0.8,1.05-1.6,1.58-2.4
			c1.09-1.65,2.18-3.31,3.25-4.97C59.54,42.17,58.29,41.46,57.78,42.24L57.78,42.24z"/>
	</g>
</g>
<g>
	<g>
		<path class="st1" d="M54.61,46.68c-0.3-1.11-0.6-2.21-0.91-3.31c-0.31-1.09-0.56-2.24-1.08-3.25c-0.18-0.35-0.77-0.2-0.75,0.2
			c0.04,1.14,0.39,2.25,0.67,3.35c0.27,1.11,0.56,2.22,0.85,3.33C53.58,47.79,54.82,47.47,54.61,46.68L54.61,46.68z"/>
	</g>
</g>
<g>
	<g>
		<path class="st0" d="M126.62,5.1c-1.56-0.47-3.43-0.06-4.43,1.28c-0.91,1.22-0.72,3.05,0.36,4.11c1.37,1.34,3.67,0.54,4.82-0.73
			c0.62-0.68,0.86-1.58,0.59-2.47c-0.31-0.99-0.98-1.89-1.5-2.78c-0.66-1.11-1.33-2.22-2.05-3.3c-0.28-0.42-0.55-0.89-1.02-1.11
			c-0.46-0.21-0.88-0.11-1.17,0.3c-0.24,0.35,0.16,0.8,0.54,0.7c-0.02,0.01,0.15,0.2,0.19,0.27c0.14,0.22,0.25,0.46,0.38,0.68
			c0.26,0.45,0.53,0.89,0.8,1.34c0.53,0.89,1.09,1.76,1.64,2.64c0.37,0.59,1.18,1.5,0.99,2.26c-0.17,0.69-1.15,1.11-1.76,1.28
			c-0.59,0.17-1.14,0.08-1.53-0.42c-0.29-0.38-0.42-0.92-0.33-1.39c0.25-1.37,2.02-1.72,3.15-1.42
			C127.1,6.56,127.42,5.34,126.62,5.1L126.62,5.1z"/>
	</g>
</g>
<g>
	<g>
		<path class="st0" d="M128.98,7.03c-0.18,0.75-0.28,1.52-0.25,2.29c0.01,0.4,0.05,0.82,0.14,1.22c0.1,0.43,0.32,1,0.8,1.11
			c0.3,0.07,0.57-0.09,0.71-0.35c0.12-0.22,0.12-0.51,0.13-0.76c0.02-0.36-0.01-0.71,0-1.07c0-0.36,0.04-0.72,0.07-1.07
			c0.02-0.24-0.03,0.19,0.01-0.05c0.02-0.09,0.03-0.19,0.05-0.28c0.03-0.19,0.08-0.37,0.12-0.56c0.12-0.47-0.16-1.02-0.65-1.13
			C129.63,6.27,129.1,6.53,128.98,7.03L128.98,7.03z"/>
	</g>
</g>
<g>
	<g>
		<path class="st0" d="M129.3,3.73c0.15,0.05,0.32,0,0.43-0.12c0.1-0.1,0.15-0.23,0.16-0.37c0.01-0.14-0.04-0.29-0.14-0.4
			c-0.11-0.12-0.28-0.18-0.44-0.17c-0.33,0.02-0.62,0.26-0.71,0.59c-0.06,0.23-0.01,0.48,0.11,0.68c0.12,0.19,0.29,0.35,0.49,0.44
			c0.22,0.1,0.47,0.15,0.71,0.07c0.13-0.05,0.25-0.11,0.35-0.21c0.1-0.1,0.17-0.22,0.21-0.35c0.07-0.2,0.06-0.44-0.01-0.64
			c-0.04-0.12-0.09-0.24-0.16-0.34c-0.05-0.07-0.1-0.14-0.16-0.2c-0.06-0.06-0.12-0.11-0.19-0.16c-0.13-0.1-0.32-0.14-0.48-0.14
			c-0.27-0.01-0.56,0.17-0.61,0.45c-0.02,0.09-0.02,0.17,0.02,0.26c0.03,0.08,0.09,0.16,0.17,0.2c0.02,0.01,0.03,0.02,0.05,0.03
			c0.09,0.06,0.19,0.06,0.29,0.07c-0.04-0.01-0.08-0.01-0.12-0.02c0.06,0.01,0.13,0.02,0.19,0.02c0.03,0,0.05,0,0.08,0
			c-0.04-0.01-0.08-0.01-0.13-0.02c0.08,0.01,0.17,0.04,0.25,0.07c-0.04-0.02-0.07-0.03-0.11-0.05c0.05,0.02,0.09,0.05,0.13,0.08
			c-0.03-0.02-0.06-0.05-0.09-0.07c0.06,0.05,0.11,0.1,0.16,0.16c-0.02-0.03-0.05-0.06-0.07-0.09c0.04,0.06,0.08,0.12,0.11,0.18
			c-0.01-0.03-0.03-0.06-0.04-0.1c0.02,0.04,0.03,0.08,0.03,0.13c0-0.03-0.01-0.06-0.01-0.1c0.01,0.05,0.01,0.09,0,0.14
			c0-0.03,0.01-0.06,0.01-0.09c0,0.04-0.01,0.07-0.02,0.1c0.01-0.03,0.02-0.06,0.03-0.09c-0.01,0.03-0.03,0.06-0.05,0.09
			c0.02-0.02,0.04-0.05,0.06-0.07c-0.03,0.04-0.06,0.07-0.1,0.1c0.03-0.02,0.05-0.04,0.08-0.06c-0.03,0.02-0.07,0.04-0.1,0.06
			c0.03-0.01,0.06-0.02,0.09-0.04c-0.04,0.02-0.09,0.03-0.13,0.03c0.03,0,0.06-0.01,0.09-0.01c-0.05,0.01-0.1,0-0.15,0
			c0.03,0,0.06,0.01,0.09,0.01c-0.06-0.01-0.12-0.03-0.18-0.05c0.03,0.01,0.06,0.02,0.08,0.03c-0.07-0.03-0.13-0.06-0.19-0.11
			c0.02,0.02,0.05,0.04,0.07,0.05c-0.06-0.04-0.11-0.09-0.15-0.15c0.02,0.02,0.04,0.05,0.06,0.07c-0.04-0.05-0.07-0.1-0.09-0.16
			c0.01,0.03,0.02,0.06,0.04,0.09c-0.02-0.04-0.03-0.09-0.03-0.13c0,0.03,0.01,0.06,0.01,0.09c0-0.04,0-0.08,0-0.12
			c0,0.03-0.01,0.06-0.01,0.09c0.01-0.04,0.02-0.08,0.03-0.12c-0.01,0.03-0.02,0.05-0.03,0.08c0.02-0.04,0.04-0.07,0.06-0.11
			c-0.02,0.02-0.04,0.05-0.05,0.07c0.04-0.05,0.07-0.09,0.12-0.12c-0.02,0.02-0.05,0.04-0.07,0.05c0.03-0.02,0.06-0.04,0.1-0.06
			c-0.03,0.01-0.05,0.02-0.08,0.03c0.03-0.01,0.06-0.02,0.09-0.02c-0.03,0-0.05,0.01-0.08,0.01c0.02,0,0.04,0,0.06,0
			c0.02,0,0.01,0-0.02,0c-0.03,0-0.04-0.01-0.02,0c0,0,0.03,0.01,0.03,0.01c0,0-0.07-0.03-0.04-0.01c0,0,0.01,0.01,0.02,0.01
			c-0.01,0-0.06-0.06-0.04-0.03c0,0.01,0.01,0.01,0.02,0.02c-0.02-0.02-0.03-0.04-0.05-0.06c0.01,0.01,0.02,0.03,0.02,0.04
			c-0.01-0.02-0.02-0.05-0.03-0.07c0.01,0.02,0.01,0.03,0.01,0.05c0,0.02,0,0.01,0-0.02c0-0.03,0-0.04,0-0.02c0,0.01,0,0.01,0,0.02
			c0,0,0,0.03,0,0.03c-0.01,0,0.02-0.08,0.01-0.04c-0.01,0.02-0.03,0.08,0,0.02c0.03-0.07-0.04,0.05,0.01-0.02
			c0.05-0.06-0.05,0.04,0.02-0.02c0.05-0.04,0.02-0.02,0.01-0.01c0,0,0.08-0.03,0.04-0.02c-0.03,0.01,0.08,0,0.04-0.01
			c-0.04,0,0.08,0.01,0.03,0c-0.14-0.03-0.31,0.05-0.34,0.2C129.07,3.54,129.15,3.68,129.3,3.73L129.3,3.73z"/>
	</g>
</g>
<g>
	<g>
		<path class="st0" d="M132.44,9.28c0.09,0.47,0.18,0.95,0.26,1.43c0.07,0.45,0.2,0.95,0.17,1.4c0.39-0.05,0.78-0.1,1.18-0.15
			c-0.08-0.36-0.3-0.69-0.46-1.02c-0.14-0.3-0.25-0.6-0.35-0.92c-0.2-0.65-0.33-1.35-0.32-2.03c0-0.23-0.04-0.7,0.12-0.89
			c0.14-0.17,0.6-0.05,0.78-0.03c0.74,0.1,1.47,0.32,2.22,0.35c0.4,0.01,0.46-0.49,0.18-0.69c-0.76-0.55-1.8-0.63-2.7-0.58
			c-0.36,0.02-0.74,0.08-1.02,0.34c-0.28,0.26-0.36,0.64-0.41,1.01c-0.12,0.85-0.14,1.69-0.01,2.53c0.07,0.41,0.16,0.81,0.3,1.2
			c0.15,0.45,0.33,0.97,0.69,1.3c0.5,0.46,1.25-0.12,0.94-0.72c-0.1-0.2-0.15-0.45-0.2-0.67c-0.06-0.22-0.12-0.45-0.17-0.67
			c-0.12-0.47-0.22-0.94-0.33-1.41C133.15,8.52,132.34,8.75,132.44,9.28L132.44,9.28z"/>
	</g>
</g>
<g>
	<g>
		<path class="st0" d="M137.9,10.07c1.17,0.82,2.87,0.69,3.66-0.58c0.31-0.5,0.43-1.17,0.22-1.74c-0.19-0.51-0.59-0.88-1.11-1.06
			c-0.94-0.33-2.16,0.06-2.65,0.95c-0.6,1.08-0.2,2.48,0.67,3.3c1.21,1.13,3.22,1.09,4.46,0.05c0.31-0.26-0.03-0.71-0.37-0.64
			c-0.96,0.2-2.05,0.44-2.96-0.01c-0.37-0.18-0.64-0.42-0.85-0.77c-0.19-0.32-0.31-0.7-0.28-1.1c0.07-0.72,0.68-1.15,1.39-1.11
			c0.72,0.04,1.15,0.66,0.86,1.36c-0.43,1.01-1.7,0.88-2.45,0.33c-0.25-0.19-0.66-0.03-0.8,0.22
			C137.51,9.57,137.64,9.89,137.9,10.07L137.9,10.07z"/>
	</g>
</g>
<g>
	<g>
		<path class="st0" d="M147.24,7.17c-0.95-0.82-2.59-0.4-3.08,0.75c-0.58,1.34,0.16,2.93,1.47,3.51c0.83,0.37,1.89,0.39,2.66-0.15
			c0.47-0.32,0.29-0.99-0.28-1.04c-0.03,0-0.07-0.01-0.1-0.01c0.02,0,0.12,0.02,0.01,0c-0.1-0.01-0.2-0.03-0.3-0.03
			c-0.14,0-0.28-0.01-0.43-0.02c-0.06-0.01-0.12-0.01-0.19-0.01c-0.03,0-0.08-0.02-0.11-0.01c0.02,0,0.17,0.03,0.04,0
			c-0.13-0.03-0.26-0.05-0.39-0.08c-0.13-0.03-0.26-0.06-0.38-0.11c-0.03-0.01-0.07-0.02-0.1-0.03c-0.02-0.01-0.1-0.04-0.01,0
			c0.1,0.04,0,0-0.03-0.02c-0.04-0.02-0.08-0.04-0.12-0.06c-0.05-0.03-0.1-0.06-0.15-0.09c-0.15-0.1,0.08,0.08-0.02-0.01
			c-0.1-0.08-0.19-0.17-0.27-0.26c0,0.01-0.06-0.07-0.06-0.07c0.01-0.01,0.1,0.15,0.03,0.03c-0.03-0.05-0.06-0.09-0.09-0.14
			c-0.03-0.05-0.05-0.09-0.08-0.14c0,0-0.04-0.07-0.04-0.08c-0.01,0.05,0.05,0.12,0.01,0.01c-0.01-0.03-0.09-0.33-0.08-0.33
			c0,0,0.01,0.12,0.01,0.05c0-0.03,0-0.06-0.01-0.09c0-0.07,0-0.14,0.01-0.2c0,0.11,0,0,0.01-0.05c0.01-0.05,0.03-0.1,0.05-0.15
			c0.01-0.04,0.05-0.08-0.01,0.02c0.01-0.02,0.02-0.05,0.04-0.07c0.03-0.05,0.06-0.09,0.09-0.14c-0.06,0.09-0.01,0.01,0.03-0.03
			c0.04-0.04,0.08-0.08,0.12-0.11c0.01-0.01,0.03-0.03,0.05-0.04c-0.09,0.08-0.05,0.03-0.02,0.01c0.05-0.03,0.09-0.06,0.14-0.09
			c0.02-0.01,0.05-0.03,0.07-0.04c0,0,0.12-0.05,0.05-0.02c-0.07,0.03,0.01,0,0.03-0.01c0.03-0.01,0.06-0.02,0.1-0.03
			c0.05-0.01,0.11-0.02,0.16-0.03c-0.09,0.02-0.04,0-0.01,0c0.03,0,0.07,0,0.1,0c0.02,0,0.04,0,0.06,0c0,0,0.12,0.01,0.06,0
			c-0.06-0.01,0.02,0,0.03,0.01c0.03,0.01,0.06,0.01,0.1,0.02c0.03,0.01,0.05,0.02,0.07,0.03c-0.04-0.01-0.05-0.03-0.01,0
			c0.03,0.02,0.18,0.12,0.1,0.05c0.2,0.16,0.48,0.19,0.67,0C147.41,7.67,147.43,7.34,147.24,7.17L147.24,7.17z"/>
	</g>
</g>
<g>
	<g>
		<path class="st0" d="M150.88,4.49c0.03,1.26,0.15,2.51,0.35,3.76c0.19,1.18,0.43,2.55,1.1,3.56c0.29,0.43,1.02,0.3,1.01-0.27
			c-0.02-1.19-0.42-2.38-0.64-3.54c-0.22-1.16-0.35-2.32-0.41-3.5C152.25,3.6,150.86,3.58,150.88,4.49L150.88,4.49z"/>
	</g>
</g>
<g>
	<g>
		<path class="st0" d="M150.5,8.76c0.76,0.07,1.52,0.14,2.28,0.21c0.77,0.07,1.55,0.15,2.32,0c0.2-0.04,0.35-0.25,0.35-0.45
			c0-0.22-0.15-0.38-0.35-0.46c-0.73-0.29-1.54-0.32-2.31-0.39c-0.76-0.06-1.52-0.13-2.28-0.19c-0.34-0.03-0.64,0.31-0.64,0.63
			C149.87,8.49,150.16,8.73,150.5,8.76L150.5,8.76z"/>
	</g>
</g>
<g>
	<g>
		<path class="st0" d="M157.23,9.65c1.28,0.56,3.03,1.18,4.11-0.1c0.38-0.45,0.62-1.07,0.44-1.66c-0.19-0.62-0.8-0.98-1.39-1.15
			c-1.24-0.36-2.58,0.3-3.08,1.48c-0.55,1.29,0,2.68,1.15,3.42c1.57,1.02,3.47,0.54,4.99-0.33c0.3-0.17,0.2-0.74-0.19-0.7
			c-1.12,0.11-2.32,0.45-3.44,0.26c-0.88-0.16-1.78-0.62-1.89-1.6c-0.12-0.98,0.54-1.83,1.52-1.95c0.47-0.06,1.03,0.04,1.36,0.41
			c0.26,0.29,0.22,0.66,0.03,0.97c-0.69,1.11-2.19,0.5-3.11,0.09c-0.24-0.11-0.53-0.06-0.67,0.18
			C156.92,9.19,156.98,9.55,157.23,9.65L157.23,9.65z"/>
	</g>
</g>
<g>
	<g>
		<path class="st0" d="M167.63,7.72c-0.88-0.56-2.1-0.21-2.71,0.58c-0.77,1-0.27,2.37,0.72,3.01c1.12,0.72,2.5,0.24,3.15-0.87
			c0.74-1.26,0.19-2.52-0.67-3.55c-0.56-0.67-1.17-1.31-1.79-1.93c-0.33-0.33-0.67-0.66-1.02-0.97c-0.32-0.28-0.68-0.61-1.1-0.74
			c-0.31-0.1-0.53,0.26-0.4,0.52c0.24,0.5,0.77,0.89,1.16,1.26c0.44,0.42,0.88,0.85,1.3,1.29c0.4,0.42,0.78,0.84,1.15,1.28
			c0.31,0.37,0.63,0.79,0.71,1.28c0.13,0.76-0.42,1.63-1.19,1.78c-0.82,0.16-1.77-0.62-1.64-1.49c0.13-0.88,1.26-1.32,1.98-0.85
			C167.66,8.56,168,7.96,167.63,7.72L167.63,7.72z"/>
	</g>
</g>
<g>
	<g>
		<path class="st0" d="M157.92,21.68c-0.59,0-1.18,0.09-1.74,0.3c-0.49,0.18-1.05,0.45-1.33,0.92c-0.62,1.02,0.41,2.04,1.09,2.71
			c0.33,0.33,0.72,0.66,0.97,1.05c0.07,0.11,0.25,0.35,0.21,0.48c-0.02,0.07-0.17,0.13-0.21,0.15c-0.48,0.22-1.02,0.34-1.53,0.45
			c-0.27,0.06-0.55,0.09-0.82,0.14c-0.15,0.03-0.32,0.05-0.46,0.1c-0.21,0.06-0.35,0.2-0.52,0.33c-0.34,0.27-0.21,0.89,0.15,1.07
			c0.34,0.17,0.61,0.2,0.98,0.15c0.31-0.03,0.61-0.11,0.9-0.19c0.57-0.16,1.14-0.38,1.68-0.64c0.45-0.21,0.88-0.56,1.03-1.04
			c0.17-0.53-0.02-1.08-0.32-1.52c-0.56-0.83-1.39-1.38-2.01-2.16c-0.06-0.08-0.19-0.21-0.21-0.32c0-0.03-0.01-0.09-0.02-0.06
			c0.04-0.14,0.39-0.24,0.51-0.29c0.52-0.22,1.05-0.35,1.62-0.35C158.74,22.95,158.75,21.67,157.92,21.68L157.92,21.68z"/>
	</g>
</g>
<g>
	<g>
		<path class="st1" d="M31.69,47.97c2.67,0.02,5.33,0.05,8,0.02c1.31-0.02,2.63-0.01,3.94-0.06c0.66-0.02,1.31-0.05,1.97-0.06
			c0.65-0.01,1.33,0.04,1.97-0.14c0.44-0.13,0.46-0.77,0-0.9c-0.6-0.17-1.23-0.12-1.84-0.13c-0.66-0.01-1.31-0.02-1.97-0.04
			c-1.35-0.04-2.71-0.03-4.06-0.03c-2.67-0.01-5.33,0.03-8,0.07C30.88,46.71,30.87,47.96,31.69,47.97L31.69,47.97z"/>
	</g>
</g>
<g>
	<g>
		<path class="st1" d="M46.83,46.6c-0.61-0.42-1.22-0.83-1.83-1.25c-0.31-0.21-0.61-0.42-0.92-0.62c-0.3-0.21-0.69-0.48-1.08-0.39
			c-0.19,0.04-0.26,0.23-0.24,0.41c0.06,0.39,0.52,0.66,0.81,0.87c0.3,0.21,0.61,0.42,0.91,0.63c0.61,0.42,1.21,0.84,1.82,1.26
			c0.23,0.16,0.58,0.03,0.71-0.19C47.17,47.05,47.06,46.76,46.83,46.6L46.83,46.6z"/>
	</g>
</g>
<g>
	<g>
		<path class="st1" d="M46.79,47.01c-0.7,0.22-1.38,0.51-2.03,0.86c-0.3,0.16-0.59,0.34-0.87,0.55c-0.17,0.13-0.34,0.25-0.49,0.4
			c-0.16,0.16-0.27,0.32-0.36,0.53c-0.13,0.32,0.24,0.56,0.51,0.52c0.35-0.06,0.64-0.29,0.93-0.47c0.28-0.17,0.57-0.34,0.86-0.5
			c0.28-0.16,0.57-0.3,0.86-0.43c0.07-0.03,0.15-0.06,0.22-0.09c-0.08,0.03,0.02-0.01,0.05-0.02c0.04-0.01,0.07-0.03,0.11-0.04
			c0.16-0.06,0.32-0.12,0.48-0.17c0.29-0.09,0.51-0.39,0.41-0.71C47.41,47.14,47.1,46.91,46.79,47.01L46.79,47.01z"/>
	</g>
</g>
<g>
	<g>
		<path class="st1" d="M24.82,61.65c-0.88,1.46-1.72,2.96-2.48,4.48c-0.38,0.75-0.74,1.51-1.07,2.29c-0.17,0.39-0.33,0.79-0.49,1.19
			c-0.14,0.37-0.34,0.74-0.23,1.14c0.07,0.25,0.35,0.36,0.57,0.24c0.36-0.2,0.5-0.61,0.67-0.96c0.19-0.39,0.38-0.78,0.58-1.16
			c0.37-0.72,0.73-1.45,1.1-2.17c0.78-1.49,1.61-2.95,2.5-4.38C26.42,61.59,25.26,60.92,24.82,61.65L24.82,61.65z"/>
	</g>
</g>
<g>
	<g>
		<path class="st1" d="M22.4,66.01c-0.7-0.64-1.3-1.37-1.78-2.19c-0.24-0.4-0.44-0.82-0.63-1.24c-0.09-0.21-0.18-0.43-0.25-0.64
			c-0.08-0.24-0.13-0.51-0.33-0.68c-0.17-0.15-0.39-0.07-0.47,0.13c-0.1,0.24,0,0.51,0.06,0.75c0.07,0.24,0.14,0.49,0.22,0.72
			c0.17,0.49,0.39,0.96,0.64,1.41c0.49,0.9,1.13,1.73,1.86,2.44C22.16,67.14,22.86,66.43,22.4,66.01L22.4,66.01z"/>
	</g>
</g>
<g>
	<g>
		<path class="st1" d="M28.68,67.7C28.69,67.7,28.69,67.69,28.68,67.7C28.68,67.69,28.68,67.7,28.68,67.7L28.68,67.7z"/>
	</g>
</g>
<g>
	<g>
		<path class="st1" d="M29.2,68.56c3.1-0.2,6.19-0.3,9.29-0.36c1.53-0.03,3.06,0.02,4.59,0.04c1.51,0.02,3.05,0.09,4.53-0.25
			c0.27-0.06,0.26-0.45,0-0.53c-1.42-0.41-2.93-0.41-4.41-0.43c-1.57-0.02-3.14,0.05-4.71,0.05c-3.1,0.01-6.2,0.13-9.29,0.28
			C28.43,67.4,28.43,68.61,29.2,68.56L29.2,68.56z"/>
	</g>
</g>
<g>
	<g>
		<path class="st1" d="M45.66,66.55c0.45,0.12,0.88,0.34,1.2,0.67c0.19,0.19,0.28,0.31,0.41,0.54c0.06,0.1,0.11,0.21,0.15,0.32
			c0.07,0.16,0.07,0.15,0.11,0.29c0.06-0.21,0.11-0.43,0.17-0.64c-0.44,0.52-0.86,1.02-1.39,1.46c-0.06,0.05-0.13,0.1-0.19,0.15
			c0.1-0.08-0.09,0.07-0.09,0.07c-0.06,0.05-0.13,0.09-0.2,0.14c0.13-0.1-0.36,0.28-0.19,0.15c-0.34,0.26-0.75,0.53-0.82,0.98
			c-0.05,0.31,0.09,0.59,0.4,0.69c0.81,0.25,1.65-0.61,2.16-1.13c0.26-0.26,0.5-0.53,0.73-0.81c0.25-0.3,0.61-0.66,0.72-1.05
			c0.1-0.36-0.19-0.84-0.4-1.12c-0.21-0.29-0.44-0.57-0.71-0.81c-0.52-0.45-1.1-0.81-1.77-1C45.25,65.25,44.95,66.36,45.66,66.55
			L45.66,66.55z"/>
	</g>
</g>
<g>
	<g>
		<path class="st1" d="M53.18,71.59c1.21-1.2,2.41-2.41,3.61-3.62c0.59-0.6,1.19-1.18,1.79-1.77c0.29-0.29,0.58-0.57,0.88-0.85
			c0.29-0.28,0.77-0.59,0.82-1.02c0.04-0.26-0.11-0.59-0.43-0.57c-0.45,0.04-0.71,0.36-1.02,0.66c-0.32,0.3-0.63,0.59-0.95,0.88
			c-0.64,0.59-1.27,1.17-1.92,1.75c-1.29,1.16-2.58,2.31-3.86,3.47C51.38,71.17,52.48,72.28,53.18,71.59L53.18,71.59z"/>
	</g>
</g>
<g>
	<g>
		<path class="st1" d="M53.13,64.05c0.32,1.99,1.49,3.71,2.54,5.37c1.04,1.65,1.95,3.26,2.4,5.17c0.12,0.52,0.93,0.53,1.05,0
			c0.46-2.05-0.66-4-1.82-5.61c-1.18-1.64-2.48-3.25-2.84-5.29C54.31,62.82,52.99,63.18,53.13,64.05L53.13,64.05z"/>
	</g>
</g>
<g>
	<g>
		<path class="st1" d="M123.47,45.69c0.01,1.58,0.02,3.16,0.02,4.74c0,0.77,0,1.55,0.01,2.32c0.01,0.79-0.02,1.63,0.17,2.4
			c0.05,0.22,0.25,0.44,0.48,0.48c0.12,0.02,0.22,0.03,0.35,0c0.23-0.05,0.43-0.26,0.48-0.48c0.18-0.78,0.14-1.61,0.14-2.4
			c0-0.77,0-1.55-0.01-2.32c-0.02-1.58-0.02-3.16-0.03-4.74C125.07,44.67,123.47,44.66,123.47,45.69L123.47,45.69z"/>
	</g>
</g>
<g>
	<g>
		<path class="st1" d="M124.88,45.79c0.27-0.55,0.81-0.96,1.43-1.03c0.63-0.07,1.28,0.28,1.59,0.81c0.69,1.15-0.22,2.6-1.38,3.01
			c-0.42,0.15-0.83,0.21-1.26,0.24c-0.47,0.03-1.17-0.08-1.51,0.3c-0.16,0.18-0.2,0.43-0.08,0.64c0.3,0.53,1.1,0.51,1.63,0.46
			c0.57-0.05,1.11-0.19,1.64-0.42c0.9-0.39,1.67-1.06,2.07-1.97c0.39-0.9,0.48-1.92-0.01-2.8c-0.49-0.88-1.51-1.47-2.52-1.45
			c-1.15,0.03-2.11,0.77-2.53,1.82C123.72,45.94,124.62,46.31,124.88,45.79L124.88,45.79z"/>
	</g>
</g>
<g>
	<g>
		<path class="st1" d="M134.13,40.46c-0.93,2.1-1.83,4.24-1.91,6.57c-0.06,1.79,0.38,4.2,2.04,5.21c0.42,0.26,0.9-0.26,0.66-0.67
			c-0.41-0.73-0.87-1.38-1.13-2.19c-0.26-0.81-0.36-1.66-0.32-2.51c0.11-2.01,0.98-3.95,1.76-5.78
			C135.54,40.35,134.46,39.71,134.13,40.46L134.13,40.46z"/>
	</g>
</g>
<g>
	<g>
		<path class="st1" d="M137.81,47.44c0.5,0.4,0.96,0.84,1.38,1.32c0.42,0.48,0.78,0.97,1.2,1.47c0.09,0.11,0.28,0.11,0.39,0.02
			c0.13-0.1,0.14-0.24,0.08-0.38c-0.26-0.62-0.65-1.15-1.08-1.66c-0.42-0.49-0.87-0.95-1.37-1.37c-0.18-0.15-0.43-0.17-0.6,0
			C137.66,46.99,137.63,47.3,137.81,47.44L137.81,47.44z"/>
	</g>
</g>
<g>
	<g>
		<path class="st1" d="M141.72,46.72c-0.69,1.52-1.24,3.09-1.59,4.72c-0.34,1.57-0.71,3.27-0.47,4.88c0.08,0.52,0.86,0.46,0.98,0
			c0.41-1.48,0.5-3.02,0.92-4.5c0.41-1.47,0.95-2.91,1.6-4.28c0.19-0.4,0.1-0.9-0.31-1.13C142.49,46.21,141.9,46.31,141.72,46.72
			L141.72,46.72z"/>
	</g>
</g>
<g>
	<g>
		<path class="st1" d="M146.21,43.16c0.22,1.71,0.44,3.42,0.67,5.13c0.11,0.84,0.21,1.68,0.34,2.51c0.12,0.85,0.22,1.76,0.53,2.57
			c0.11,0.28,0.47,0.23,0.51-0.06c0.11-0.86-0.01-1.77-0.08-2.62c-0.07-0.84-0.17-1.68-0.25-2.52c-0.17-1.72-0.36-3.43-0.54-5.15
			C147.28,42.17,146.1,42.31,146.21,43.16L146.21,43.16z"/>
	</g>
</g>
<g>
	<g>
		<path class="st1" d="M151.68,49.99c0.7-0.75,1.41-1.48,2.08-2.24c0.33-0.37,0.66-0.74,0.99-1.11c0.34-0.39,0.75-0.79,0.98-1.25
			c0.17-0.33-0.18-0.7-0.51-0.51c-0.44,0.25-0.82,0.66-1.18,1c-0.37,0.35-0.73,0.71-1.1,1.07c-0.73,0.71-1.43,1.45-2.15,2.18
			c-0.23,0.24-0.23,0.64,0.01,0.87C151.04,50.23,151.46,50.24,151.68,49.99L151.68,49.99z"/>
	</g>
</g>
<g>
	<g>
		<path class="st1" d="M151.27,46.76c0.87,0.66,1.67,1.38,2.46,2.13c0.79,0.75,1.52,1.59,2.39,2.23c0.14,0.1,0.37,0.05,0.48-0.07
			c0.13-0.13,0.14-0.32,0.06-0.48c-0.24-0.51-0.61-0.95-0.96-1.4c-0.34-0.43-0.74-0.82-1.13-1.2c-0.81-0.77-1.7-1.47-2.6-2.13
			C151.44,45.48,150.75,46.37,151.27,46.76L151.27,46.76z"/>
	</g>
</g>
<g>
	<g>
		<path class="st1" d="M157.48,41.72c1.45,1.99,2.67,4.28,3.3,6.67c0.31,1.18,0.26,2.21-0.46,3.22c-0.63,0.88-1.27,1.61-1.35,2.73
			c-0.05,0.72,0.93,0.73,1.16,0.16c0.42-1.04,1.38-1.77,1.9-2.74c0.63-1.16,0.63-2.52,0.33-3.78c-0.62-2.61-2.11-5.05-3.75-7.13
			C158.11,40.22,157,41.07,157.48,41.72L157.48,41.72z"/>
	</g>
</g>
<g>
	<g>
		<path class="st1" d="M123.88,66.9c0.25,1.93,0.44,3.86,0.6,5.8c0.07,0.94,0.13,1.89,0.22,2.83c0.08,0.91,0.07,1.9,0.28,2.79
			c0.07,0.28,0.48,0.28,0.55,0c0.22-0.88,0.2-1.88,0.24-2.79c0.04-0.98,0.02-1.96-0.01-2.94c-0.07-1.96-0.24-3.91-0.49-5.86
			C125.14,65.72,123.75,65.88,123.88,66.9L123.88,66.9z"/>
	</g>
</g>
<g>
	<g>
		<path class="st1" d="M124.31,67.1c1-1.51,3.12-1.85,4.54-0.73c0.66,0.52,1.19,1.37,0.89,2.22c-0.28,0.81-1.12,1.37-1.9,1.62
			c-1.1,0.35-2.21,0.19-3.27-0.18c-0.55-0.19-0.88,0.65-0.38,0.93c2.04,1.14,5.36,0.47,6.36-1.79c1.08-2.43-1.45-4.69-3.81-4.49
			c-1.31,0.11-2.47,0.89-3.11,2.03C123.38,67.16,124.03,67.52,124.31,67.1L124.31,67.1z"/>
	</g>
</g>
<g>
	<g>
		<path class="st1" d="M134.8,63.33c-1.21,1.53-1.78,3.49-1.43,5.43c0.32,1.75,1.5,3.41,3.14,4.14c0.45,0.2,0.96-0.34,0.56-0.74
			c-1.04-1-1.81-2.19-2.1-3.61c-0.29-1.41,0.05-2.98,0.93-4.14c0.25-0.33,0.32-0.77-0.01-1.09C135.62,63.05,135.06,63,134.8,63.33
			L134.8,63.33z"/>
	</g>
</g>
<g>
	<g>
		<path class="st1" d="M141.13,70.88c0.66-0.8,1.31-1.61,1.97-2.41c0.32-0.39,0.65-0.79,0.98-1.18c0.33-0.4,0.8-0.81,0.98-1.3
			c0.15-0.39-0.34-0.66-0.65-0.5c-0.24,0.12-0.41,0.34-0.59,0.53c-0.17,0.19-0.35,0.37-0.52,0.56c-0.35,0.37-0.69,0.75-1.03,1.13
			c-0.68,0.76-1.36,1.52-2.02,2.3c-0.21,0.26-0.25,0.62,0.01,0.87C140.48,71.1,140.91,71.14,141.13,70.88L141.13,70.88z"/>
	</g>
</g>
<g>
	<g>
		<path class="st1" d="M140.62,67.59c0.63,0.69,1.25,1.39,1.9,2.08c0.64,0.68,1.29,1.42,2.07,1.94c0.36,0.24,0.77-0.23,0.58-0.58
			c-0.23-0.42-0.54-0.78-0.85-1.16c-0.3-0.37-0.61-0.73-0.93-1.08c-0.62-0.7-1.27-1.38-1.91-2.07c-0.22-0.24-0.64-0.22-0.87,0.01
			C140.37,66.97,140.39,67.34,140.62,67.59L140.62,67.59z"/>
	</g>
</g>
<g>
	<g>
		<path class="st1" d="M147.7,64.86c0.1,1.72,0.2,3.43,0.29,5.15c0.1,1.67,0.1,3.42,0.48,5.05c0.09,0.38,0.73,0.42,0.79,0
			c0.26-1.65,0.14-3.38,0.11-5.05c-0.03-1.71-0.06-3.43-0.09-5.14C149.28,63.83,147.65,63.84,147.7,64.86L147.7,64.86z"/>
	</g>
</g>
<g>
	<g>
		<path class="st1" d="M151.67,68.45c0.39,0.6,0.82,1.17,1.27,1.72c0.45,0.54,0.93,1.04,1.52,1.42c0.34,0.22,0.75-0.22,0.55-0.55
			c-0.18-0.3-0.38-0.59-0.6-0.87c-0.05-0.07-0.11-0.13-0.16-0.2c-0.02-0.03-0.05-0.06-0.07-0.09c-0.02-0.03-0.05-0.06-0.01-0.02
			c-0.06-0.08-0.12-0.16-0.18-0.24c-0.03-0.04-0.07-0.09-0.1-0.13c-0.01-0.02-0.09-0.12-0.03-0.03c-0.4-0.52-0.79-1.06-1.15-1.61
			c-0.17-0.26-0.53-0.4-0.82-0.22C151.63,67.8,151.49,68.17,151.67,68.45L151.67,68.45z"/>
	</g>
</g>
<g>
	<g>
		<path class="st1" d="M155.77,68.35c-0.72,1.28-1.21,2.69-1.42,4.14c-0.21,1.49-0.18,3,0.46,4.39c0.24,0.52,1.04,0.25,1.04-0.28
			c0.01-1.27-0.09-2.56,0.12-3.82c0.21-1.27,0.63-2.48,1.28-3.59C157.81,68.24,156.31,67.38,155.77,68.35L155.77,68.35z"/>
	</g>
</g>
<g>
	<g>
		<path class="st1" d="M158,65.03c2.6,2.41,2.93,6.39,1.4,9.48c-0.26,0.53,0.45,0.92,0.79,0.45c2.33-3.22,1.35-8.04-1.5-10.62
			C158.22,63.92,157.54,64.6,158,65.03L158,65.03z"/>
	</g>
</g>
</svg>
