<?xml version="1.0" encoding="utf-8" standalone="no"?>
<!DOCTYPE svg PUBLIC "-//W3C//DTD SVG 1.1//EN"
  "http://www.w3.org/Graphics/SVG/1.1/DTD/svg11.dtd">
<svg xmlns:xlink="http://www.w3.org/1999/xlink" width="453.241562pt" height="336.9825pt" viewBox="0 0 453.241562 336.9825" xmlns="http://www.w3.org/2000/svg" version="1.1">
 <metadata>
  <rdf:RDF xmlns:dc="http://purl.org/dc/elements/1.1/" xmlns:cc="http://creativecommons.org/ns#" xmlns:rdf="http://www.w3.org/1999/02/22-rdf-syntax-ns#">
   <cc:Work>
    <dc:type rdf:resource="http://purl.org/dc/dcmitype/StillImage"/>
    <dc:date>2024-03-27T05:55:47.458062</dc:date>
    <dc:format>image/svg+xml</dc:format>
    <dc:creator>
     <cc:Agent>
      <dc:title>Matplotlib v3.8.3, https://matplotlib.org/</dc:title>
     </cc:Agent>
    </dc:creator>
   </cc:Work>
  </rdf:RDF>
 </metadata>
 <defs>
  <style type="text/css">*{stroke-linejoin: round; stroke-linecap: butt}</style>
 </defs>
 <g id="figure_1">
  <g id="patch_1">
   <path d="M 0 336.9825 
L 453.241562 336.9825 
L 453.241562 0 
L 0 0 
z
" style="fill: #ffffff"/>
  </g>
  <g id="axes_1">
   <g id="patch_2">
    <path d="M 33.951563 299.32 
L 446.041562 299.32 
L 446.041562 7.2 
L 33.951563 7.2 
z
" style="fill: #ffffff"/>
   </g>
   <g id="matplotlib.axis_1">
    <g id="xtick_1">
     <g id="line2d_1">
      <path d="M 52.682926 299.32 
L 52.682926 7.2 
" clip-path="url(#p1833105adc)" style="fill: none; stroke-dasharray: 2.22,0.96; stroke-dashoffset: 0; stroke: #6c6066; stroke-opacity: 0.4; stroke-width: 0.6"/>
     </g>
     <g id="line2d_2">
      <defs>
       <path id="m62daad0d08" d="M 0 0 
L 0 3.5 
" style="stroke: #000000; stroke-width: 0.8"/>
      </defs>
      <g>
       <use xlink:href="#m62daad0d08" x="52.682926" y="299.32" style="stroke: #000000; stroke-width: 0.8"/>
      </g>
     </g>
     <g id="text_1">
      <!-- 0.0 -->
      <g transform="translate(43.652457 313.971562) scale(0.1 -0.1)">
       <defs>
        <path id="DejaVuSansMono-30" d="M 1509 2344 
Q 1509 2516 1629 2641 
Q 1750 2766 1919 2766 
Q 2094 2766 2219 2641 
Q 2344 2516 2344 2344 
Q 2344 2169 2220 2047 
Q 2097 1925 1919 1925 
Q 1744 1925 1626 2044 
Q 1509 2163 1509 2344 
z
M 1925 4250 
Q 1484 4250 1267 3775 
Q 1050 3300 1050 2328 
Q 1050 1359 1267 884 
Q 1484 409 1925 409 
Q 2369 409 2586 884 
Q 2803 1359 2803 2328 
Q 2803 3300 2586 3775 
Q 2369 4250 1925 4250 
z
M 1925 4750 
Q 2672 4750 3055 4137 
Q 3438 3525 3438 2328 
Q 3438 1134 3055 521 
Q 2672 -91 1925 -91 
Q 1178 -91 797 521 
Q 416 1134 416 2328 
Q 416 3525 797 4137 
Q 1178 4750 1925 4750 
z
" transform="scale(0.015625)"/>
        <path id="DejaVuSansMono-2e" d="M 1528 953 
L 2316 953 
L 2316 0 
L 1528 0 
L 1528 953 
z
" transform="scale(0.015625)"/>
       </defs>
       <use xlink:href="#DejaVuSansMono-30"/>
       <use xlink:href="#DejaVuSansMono-2e" x="60.205078"/>
       <use xlink:href="#DejaVuSansMono-30" x="120.410156"/>
      </g>
     </g>
    </g>
    <g id="xtick_2">
     <g id="line2d_3">
      <path d="M 127.608381 299.32 
L 127.608381 7.2 
" clip-path="url(#p1833105adc)" style="fill: none; stroke-dasharray: 2.22,0.96; stroke-dashoffset: 0; stroke: #6c6066; stroke-opacity: 0.4; stroke-width: 0.6"/>
     </g>
     <g id="line2d_4">
      <g>
       <use xlink:href="#m62daad0d08" x="127.608381" y="299.32" style="stroke: #000000; stroke-width: 0.8"/>
      </g>
     </g>
     <g id="text_2">
      <!-- 0.2 -->
      <g transform="translate(118.577912 313.971562) scale(0.1 -0.1)">
       <defs>
        <path id="DejaVuSansMono-32" d="M 1166 531 
L 3309 531 
L 3309 0 
L 475 0 
L 475 531 
Q 1059 1147 1496 1619 
Q 1934 2091 2100 2284 
Q 2413 2666 2522 2902 
Q 2631 3138 2631 3384 
Q 2631 3775 2401 3997 
Q 2172 4219 1772 4219 
Q 1488 4219 1175 4116 
Q 863 4013 513 3803 
L 513 4441 
Q 834 4594 1145 4672 
Q 1456 4750 1759 4750 
Q 2444 4750 2861 4386 
Q 3278 4022 3278 3431 
Q 3278 3131 3139 2831 
Q 3000 2531 2688 2169 
Q 2513 1966 2180 1606 
Q 1847 1247 1166 531 
z
" transform="scale(0.015625)"/>
       </defs>
       <use xlink:href="#DejaVuSansMono-30"/>
       <use xlink:href="#DejaVuSansMono-2e" x="60.205078"/>
       <use xlink:href="#DejaVuSansMono-32" x="120.410156"/>
      </g>
     </g>
    </g>
    <g id="xtick_3">
     <g id="line2d_5">
      <path d="M 202.533835 299.32 
L 202.533835 7.2 
" clip-path="url(#p1833105adc)" style="fill: none; stroke-dasharray: 2.22,0.96; stroke-dashoffset: 0; stroke: #6c6066; stroke-opacity: 0.4; stroke-width: 0.6"/>
     </g>
     <g id="line2d_6">
      <g>
       <use xlink:href="#m62daad0d08" x="202.533835" y="299.32" style="stroke: #000000; stroke-width: 0.8"/>
      </g>
     </g>
     <g id="text_3">
      <!-- 0.4 -->
      <g transform="translate(193.503366 313.971562) scale(0.1 -0.1)">
       <defs>
        <path id="DejaVuSansMono-34" d="M 2297 4091 
L 825 1625 
L 2297 1625 
L 2297 4091 
z
M 2194 4666 
L 2925 4666 
L 2925 1625 
L 3547 1625 
L 3547 1113 
L 2925 1113 
L 2925 0 
L 2297 0 
L 2297 1113 
L 319 1113 
L 319 1709 
L 2194 4666 
z
" transform="scale(0.015625)"/>
       </defs>
       <use xlink:href="#DejaVuSansMono-30"/>
       <use xlink:href="#DejaVuSansMono-2e" x="60.205078"/>
       <use xlink:href="#DejaVuSansMono-34" x="120.410156"/>
      </g>
     </g>
    </g>
    <g id="xtick_4">
     <g id="line2d_7">
      <path d="M 277.45929 299.32 
L 277.45929 7.2 
" clip-path="url(#p1833105adc)" style="fill: none; stroke-dasharray: 2.22,0.96; stroke-dashoffset: 0; stroke: #6c6066; stroke-opacity: 0.4; stroke-width: 0.6"/>
     </g>
     <g id="line2d_8">
      <g>
       <use xlink:href="#m62daad0d08" x="277.45929" y="299.32" style="stroke: #000000; stroke-width: 0.8"/>
      </g>
     </g>
     <g id="text_4">
      <!-- 0.6 -->
      <g transform="translate(268.428821 313.971562) scale(0.1 -0.1)">
       <defs>
        <path id="DejaVuSansMono-36" d="M 3097 4563 
L 3097 3981 
Q 2900 4097 2678 4158 
Q 2456 4219 2216 4219 
Q 1616 4219 1306 3767 
Q 997 3316 997 2438 
Q 1147 2750 1412 2917 
Q 1678 3084 2022 3084 
Q 2697 3084 3067 2670 
Q 3438 2256 3438 1497 
Q 3438 741 3056 325 
Q 2675 -91 1984 -91 
Q 1172 -91 794 492 
Q 416 1075 416 2328 
Q 416 3509 870 4129 
Q 1325 4750 2188 4750 
Q 2419 4750 2650 4701 
Q 2881 4653 3097 4563 
z
M 1972 2591 
Q 1569 2591 1337 2300 
Q 1106 2009 1106 1497 
Q 1106 984 1337 693 
Q 1569 403 1972 403 
Q 2391 403 2603 679 
Q 2816 956 2816 1497 
Q 2816 2041 2603 2316 
Q 2391 2591 1972 2591 
z
" transform="scale(0.015625)"/>
       </defs>
       <use xlink:href="#DejaVuSansMono-30"/>
       <use xlink:href="#DejaVuSansMono-2e" x="60.205078"/>
       <use xlink:href="#DejaVuSansMono-36" x="120.410156"/>
      </g>
     </g>
    </g>
    <g id="xtick_5">
     <g id="line2d_9">
      <path d="M 352.384744 299.32 
L 352.384744 7.2 
" clip-path="url(#p1833105adc)" style="fill: none; stroke-dasharray: 2.22,0.96; stroke-dashoffset: 0; stroke: #6c6066; stroke-opacity: 0.4; stroke-width: 0.6"/>
     </g>
     <g id="line2d_10">
      <g>
       <use xlink:href="#m62daad0d08" x="352.384744" y="299.32" style="stroke: #000000; stroke-width: 0.8"/>
      </g>
     </g>
     <g id="text_5">
      <!-- 0.8 -->
      <g transform="translate(343.354276 313.971562) scale(0.1 -0.1)">
       <defs>
        <path id="DejaVuSansMono-38" d="M 1925 2216 
Q 1503 2216 1273 1980 
Q 1044 1744 1044 1313 
Q 1044 881 1276 642 
Q 1509 403 1925 403 
Q 2350 403 2579 639 
Q 2809 875 2809 1313 
Q 2809 1741 2576 1978 
Q 2344 2216 1925 2216 
z
M 1375 2478 
Q 972 2581 745 2862 
Q 519 3144 519 3541 
Q 519 4097 897 4423 
Q 1275 4750 1925 4750 
Q 2578 4750 2956 4423 
Q 3334 4097 3334 3541 
Q 3334 3144 3107 2862 
Q 2881 2581 2478 2478 
Q 2947 2375 3195 2062 
Q 3444 1750 3444 1253 
Q 3444 622 3041 265 
Q 2638 -91 1925 -91 
Q 1213 -91 811 264 
Q 409 619 409 1247 
Q 409 1747 657 2061 
Q 906 2375 1375 2478 
z
M 1147 3481 
Q 1147 3106 1347 2909 
Q 1547 2713 1925 2713 
Q 2306 2713 2506 2909 
Q 2706 3106 2706 3481 
Q 2706 3863 2507 4063 
Q 2309 4263 1925 4263 
Q 1547 4263 1347 4061 
Q 1147 3859 1147 3481 
z
" transform="scale(0.015625)"/>
       </defs>
       <use xlink:href="#DejaVuSansMono-30"/>
       <use xlink:href="#DejaVuSansMono-2e" x="60.205078"/>
       <use xlink:href="#DejaVuSansMono-38" x="120.410156"/>
      </g>
     </g>
    </g>
    <g id="xtick_6">
     <g id="line2d_11">
      <path d="M 427.310199 299.32 
L 427.310199 7.2 
" clip-path="url(#p1833105adc)" style="fill: none; stroke-dasharray: 2.22,0.96; stroke-dashoffset: 0; stroke: #6c6066; stroke-opacity: 0.4; stroke-width: 0.6"/>
     </g>
     <g id="line2d_12">
      <g>
       <use xlink:href="#m62daad0d08" x="427.310199" y="299.32" style="stroke: #000000; stroke-width: 0.8"/>
      </g>
     </g>
     <g id="text_6">
      <!-- 1.0 -->
      <g transform="translate(418.27973 313.971562) scale(0.1 -0.1)">
       <defs>
        <path id="DejaVuSansMono-31" d="M 844 531 
L 1825 531 
L 1825 4097 
L 769 3859 
L 769 4434 
L 1819 4666 
L 2450 4666 
L 2450 531 
L 3419 531 
L 3419 0 
L 844 0 
L 844 531 
z
" transform="scale(0.015625)"/>
       </defs>
       <use xlink:href="#DejaVuSansMono-31"/>
       <use xlink:href="#DejaVuSansMono-2e" x="60.205078"/>
       <use xlink:href="#DejaVuSansMono-30" x="120.410156"/>
      </g>
     </g>
    </g>
    <g id="text_7">
     <!-- $\theta$ -->
     <g transform="translate(236.896562 327.702812) scale(0.1 -0.1)">
      <defs>
       <path id="DejaVuSans-Oblique-3b8" d="M 2913 2219 
L 925 2219 
Q 791 1284 928 888 
Q 1100 400 1566 400 
Q 2034 400 2391 891 
Q 2703 1322 2913 2219 
z
M 3009 2750 
Q 3094 3638 2984 3950 
Q 2813 4444 2353 4444 
Q 1875 4444 1525 3956 
Q 1250 3563 1034 2750 
L 3009 2750 
z
M 2444 4913 
Q 3194 4913 3494 4250 
Q 3794 3591 3566 2422 
Q 3341 1256 2781 594 
Q 2225 -72 1475 -72 
Q 722 -72 425 594 
Q 128 1256 353 2422 
Q 581 3591 1134 4250 
Q 1691 4913 2444 4913 
z
" transform="scale(0.015625)"/>
      </defs>
      <use xlink:href="#DejaVuSans-Oblique-3b8" transform="translate(0 0.234375)"/>
     </g>
    </g>
   </g>
   <g id="matplotlib.axis_2">
    <g id="ytick_1">
     <g id="line2d_13">
      <path d="M 33.951563 286.041818 
L 446.041562 286.041818 
" clip-path="url(#p1833105adc)" style="fill: none; stroke-dasharray: 2.22,0.96; stroke-dashoffset: 0; stroke: #6c6066; stroke-opacity: 0.4; stroke-width: 0.6"/>
     </g>
     <g id="line2d_14">
      <defs>
       <path id="m2c6c06bedc" d="M 0 0 
L -3.5 0 
" style="stroke: #000000; stroke-width: 0.8"/>
      </defs>
      <g>
       <use xlink:href="#m2c6c06bedc" x="33.951563" y="286.041818" style="stroke: #000000; stroke-width: 0.8"/>
      </g>
     </g>
     <g id="text_8">
      <!-- 0 -->
      <g transform="translate(20.93125 289.867599) scale(0.1 -0.1)">
       <use xlink:href="#DejaVuSansMono-30"/>
      </g>
     </g>
    </g>
    <g id="ytick_2">
     <g id="line2d_15">
      <path d="M 33.951563 244.887354 
L 446.041562 244.887354 
" clip-path="url(#p1833105adc)" style="fill: none; stroke-dasharray: 2.22,0.96; stroke-dashoffset: 0; stroke: #6c6066; stroke-opacity: 0.4; stroke-width: 0.6"/>
     </g>
     <g id="line2d_16">
      <g>
       <use xlink:href="#m2c6c06bedc" x="33.951563" y="244.887354" style="stroke: #000000; stroke-width: 0.8"/>
      </g>
     </g>
     <g id="text_9">
      <!-- 1 -->
      <g transform="translate(20.93125 248.713135) scale(0.1 -0.1)">
       <use xlink:href="#DejaVuSansMono-31"/>
      </g>
     </g>
    </g>
    <g id="ytick_3">
     <g id="line2d_17">
      <path d="M 33.951563 203.73289 
L 446.041562 203.73289 
" clip-path="url(#p1833105adc)" style="fill: none; stroke-dasharray: 2.22,0.96; stroke-dashoffset: 0; stroke: #6c6066; stroke-opacity: 0.4; stroke-width: 0.6"/>
     </g>
     <g id="line2d_18">
      <g>
       <use xlink:href="#m2c6c06bedc" x="33.951563" y="203.73289" style="stroke: #000000; stroke-width: 0.8"/>
      </g>
     </g>
     <g id="text_10">
      <!-- 2 -->
      <g transform="translate(20.93125 207.558671) scale(0.1 -0.1)">
       <use xlink:href="#DejaVuSansMono-32"/>
      </g>
     </g>
    </g>
    <g id="ytick_4">
     <g id="line2d_19">
      <path d="M 33.951563 162.578425 
L 446.041562 162.578425 
" clip-path="url(#p1833105adc)" style="fill: none; stroke-dasharray: 2.22,0.96; stroke-dashoffset: 0; stroke: #6c6066; stroke-opacity: 0.4; stroke-width: 0.6"/>
     </g>
     <g id="line2d_20">
      <g>
       <use xlink:href="#m2c6c06bedc" x="33.951563" y="162.578425" style="stroke: #000000; stroke-width: 0.8"/>
      </g>
     </g>
     <g id="text_11">
      <!-- 3 -->
      <g transform="translate(20.93125 166.404207) scale(0.1 -0.1)">
       <defs>
        <path id="DejaVuSansMono-33" d="M 2425 2497 
Q 2884 2375 3128 2064 
Q 3372 1753 3372 1288 
Q 3372 644 2939 276 
Q 2506 -91 1741 -91 
Q 1419 -91 1084 -31 
Q 750 28 428 141 
L 428 769 
Q 747 603 1056 522 
Q 1366 441 1672 441 
Q 2191 441 2469 675 
Q 2747 909 2747 1350 
Q 2747 1756 2469 1995 
Q 2191 2234 1716 2234 
L 1234 2234 
L 1234 2753 
L 1716 2753 
Q 2150 2753 2394 2943 
Q 2638 3134 2638 3475 
Q 2638 3834 2411 4026 
Q 2184 4219 1766 4219 
Q 1488 4219 1191 4156 
Q 894 4094 569 3969 
L 569 4550 
Q 947 4650 1242 4700 
Q 1538 4750 1766 4750 
Q 2447 4750 2855 4408 
Q 3263 4066 3263 3500 
Q 3263 3116 3048 2859 
Q 2834 2603 2425 2497 
z
" transform="scale(0.015625)"/>
       </defs>
       <use xlink:href="#DejaVuSansMono-33"/>
      </g>
     </g>
    </g>
    <g id="ytick_5">
     <g id="line2d_21">
      <path d="M 33.951563 121.423961 
L 446.041562 121.423961 
" clip-path="url(#p1833105adc)" style="fill: none; stroke-dasharray: 2.22,0.96; stroke-dashoffset: 0; stroke: #6c6066; stroke-opacity: 0.4; stroke-width: 0.6"/>
     </g>
     <g id="line2d_22">
      <g>
       <use xlink:href="#m2c6c06bedc" x="33.951563" y="121.423961" style="stroke: #000000; stroke-width: 0.8"/>
      </g>
     </g>
     <g id="text_12">
      <!-- 4 -->
      <g transform="translate(20.93125 125.249742) scale(0.1 -0.1)">
       <use xlink:href="#DejaVuSansMono-34"/>
      </g>
     </g>
    </g>
    <g id="ytick_6">
     <g id="line2d_23">
      <path d="M 33.951563 80.269497 
L 446.041562 80.269497 
" clip-path="url(#p1833105adc)" style="fill: none; stroke-dasharray: 2.22,0.96; stroke-dashoffset: 0; stroke: #6c6066; stroke-opacity: 0.4; stroke-width: 0.6"/>
     </g>
     <g id="line2d_24">
      <g>
       <use xlink:href="#m2c6c06bedc" x="33.951563" y="80.269497" style="stroke: #000000; stroke-width: 0.8"/>
      </g>
     </g>
     <g id="text_13">
      <!-- 5 -->
      <g transform="translate(20.93125 84.095278) scale(0.1 -0.1)">
       <defs>
        <path id="DejaVuSansMono-35" d="M 647 4666 
L 3009 4666 
L 3009 4134 
L 1222 4134 
L 1222 2988 
Q 1356 3038 1492 3061 
Q 1628 3084 1766 3084 
Q 2491 3084 2916 2656 
Q 3341 2228 3341 1497 
Q 3341 759 2895 334 
Q 2450 -91 1678 -91 
Q 1306 -91 998 -41 
Q 691 9 447 109 
L 447 750 
Q 734 594 1025 517 
Q 1316 441 1619 441 
Q 2141 441 2423 716 
Q 2706 991 2706 1497 
Q 2706 1997 2414 2275 
Q 2122 2553 1600 2553 
Q 1347 2553 1106 2495 
Q 866 2438 647 2322 
L 647 4666 
z
" transform="scale(0.015625)"/>
       </defs>
       <use xlink:href="#DejaVuSansMono-35"/>
      </g>
     </g>
    </g>
    <g id="ytick_7">
     <g id="line2d_25">
      <path d="M 33.951563 39.115032 
L 446.041562 39.115032 
" clip-path="url(#p1833105adc)" style="fill: none; stroke-dasharray: 2.22,0.96; stroke-dashoffset: 0; stroke: #6c6066; stroke-opacity: 0.4; stroke-width: 0.6"/>
     </g>
     <g id="line2d_26">
      <g>
       <use xlink:href="#m2c6c06bedc" x="33.951563" y="39.115032" style="stroke: #000000; stroke-width: 0.8"/>
      </g>
     </g>
     <g id="text_14">
      <!-- 6 -->
      <g transform="translate(20.93125 42.940814) scale(0.1 -0.1)">
       <use xlink:href="#DejaVuSansMono-36"/>
      </g>
     </g>
    </g>
    <g id="text_15">
     <!-- probability density -->
     <g transform="translate(14.851562 210.452969) rotate(-90) scale(0.1 -0.1)">
      <defs>
       <path id="DejaVuSansMono-70" d="M 1172 441 
L 1172 -1331 
L 594 -1331 
L 594 3500 
L 1172 3500 
L 1172 3053 
Q 1316 3313 1555 3448 
Q 1794 3584 2106 3584 
Q 2741 3584 3102 3093 
Q 3463 2603 3463 1734 
Q 3463 881 3100 395 
Q 2738 -91 2106 -91 
Q 1788 -91 1548 45 
Q 1309 181 1172 441 
z
M 2859 1747 
Q 2859 2416 2648 2756 
Q 2438 3097 2022 3097 
Q 1603 3097 1387 2755 
Q 1172 2413 1172 1747 
Q 1172 1084 1387 740 
Q 1603 397 2022 397 
Q 2438 397 2648 737 
Q 2859 1078 2859 1747 
z
" transform="scale(0.015625)"/>
       <path id="DejaVuSansMono-72" d="M 3609 2778 
Q 3425 2922 3234 2987 
Q 3044 3053 2816 3053 
Q 2278 3053 1993 2715 
Q 1709 2378 1709 1741 
L 1709 0 
L 1131 0 
L 1131 3500 
L 1709 3500 
L 1709 2816 
Q 1853 3188 2151 3386 
Q 2450 3584 2859 3584 
Q 3072 3584 3256 3531 
Q 3441 3478 3609 3366 
L 3609 2778 
z
" transform="scale(0.015625)"/>
       <path id="DejaVuSansMono-6f" d="M 1925 3097 
Q 1488 3097 1263 2756 
Q 1038 2416 1038 1747 
Q 1038 1081 1263 739 
Q 1488 397 1925 397 
Q 2366 397 2591 739 
Q 2816 1081 2816 1747 
Q 2816 2416 2591 2756 
Q 2366 3097 1925 3097 
z
M 1925 3584 
Q 2653 3584 3039 3112 
Q 3425 2641 3425 1747 
Q 3425 850 3040 379 
Q 2656 -91 1925 -91 
Q 1197 -91 812 379 
Q 428 850 428 1747 
Q 428 2641 812 3112 
Q 1197 3584 1925 3584 
z
" transform="scale(0.015625)"/>
       <path id="DejaVuSansMono-62" d="M 2869 1747 
Q 2869 2416 2656 2756 
Q 2444 3097 2028 3097 
Q 1609 3097 1393 2755 
Q 1178 2413 1178 1747 
Q 1178 1084 1393 740 
Q 1609 397 2028 397 
Q 2444 397 2656 737 
Q 2869 1078 2869 1747 
z
M 1178 3053 
Q 1316 3309 1558 3446 
Q 1800 3584 2119 3584 
Q 2750 3584 3112 3098 
Q 3475 2613 3475 1759 
Q 3475 894 3111 401 
Q 2747 -91 2113 -91 
Q 1800 -91 1561 45 
Q 1322 181 1178 441 
L 1178 0 
L 603 0 
L 603 4863 
L 1178 4863 
L 1178 3053 
z
" transform="scale(0.015625)"/>
       <path id="DejaVuSansMono-61" d="M 2194 1759 
L 2003 1759 
Q 1500 1759 1245 1582 
Q 991 1406 991 1056 
Q 991 741 1181 566 
Q 1372 391 1709 391 
Q 2184 391 2456 720 
Q 2728 1050 2731 1631 
L 2731 1759 
L 2194 1759 
z
M 3309 1997 
L 3309 0 
L 2731 0 
L 2731 519 
Q 2547 206 2267 57 
Q 1988 -91 1588 -91 
Q 1053 -91 734 211 
Q 416 513 416 1019 
Q 416 1603 808 1906 
Q 1200 2209 1959 2209 
L 2731 2209 
L 2731 2300 
Q 2728 2719 2518 2908 
Q 2309 3097 1850 3097 
Q 1556 3097 1256 3012 
Q 956 2928 672 2766 
L 672 3341 
Q 991 3463 1283 3523 
Q 1575 3584 1850 3584 
Q 2284 3584 2592 3456 
Q 2900 3328 3091 3072 
Q 3209 2916 3259 2686 
Q 3309 2456 3309 1997 
z
" transform="scale(0.015625)"/>
       <path id="DejaVuSansMono-69" d="M 800 3500 
L 2272 3500 
L 2272 447 
L 3413 447 
L 3413 0 
L 556 0 
L 556 447 
L 1697 447 
L 1697 3053 
L 800 3053 
L 800 3500 
z
M 1697 4863 
L 2272 4863 
L 2272 4134 
L 1697 4134 
L 1697 4863 
z
" transform="scale(0.015625)"/>
       <path id="DejaVuSansMono-6c" d="M 1997 1269 
Q 1997 881 2139 684 
Q 2281 488 2559 488 
L 3231 488 
L 3231 0 
L 2503 0 
Q 1988 0 1705 331 
Q 1422 663 1422 1269 
L 1422 4447 
L 500 4447 
L 500 4897 
L 1997 4897 
L 1997 1269 
z
" transform="scale(0.015625)"/>
       <path id="DejaVuSansMono-74" d="M 1919 4494 
L 1919 3500 
L 3225 3500 
L 3225 3053 
L 1919 3053 
L 1919 1153 
Q 1919 766 2066 612 
Q 2213 459 2578 459 
L 3225 459 
L 3225 0 
L 2522 0 
Q 1875 0 1609 259 
Q 1344 519 1344 1153 
L 1344 3053 
L 409 3053 
L 409 3500 
L 1344 3500 
L 1344 4494 
L 1919 4494 
z
" transform="scale(0.015625)"/>
       <path id="DejaVuSansMono-79" d="M 2681 1125 
Q 2538 759 2316 163 
Q 2006 -663 1900 -844 
Q 1756 -1088 1540 -1209 
Q 1325 -1331 1038 -1331 
L 575 -1331 
L 575 -850 
L 916 -850 
Q 1169 -850 1312 -703 
Q 1456 -556 1678 56 
L 325 3500 
L 934 3500 
L 1972 763 
L 2994 3500 
L 3603 3500 
L 2681 1125 
z
" transform="scale(0.015625)"/>
       <path id="DejaVuSansMono-20" transform="scale(0.015625)"/>
       <path id="DejaVuSansMono-64" d="M 2681 3053 
L 2681 4863 
L 3256 4863 
L 3256 0 
L 2681 0 
L 2681 441 
Q 2538 181 2298 45 
Q 2059 -91 1747 -91 
Q 1113 -91 748 401 
Q 384 894 384 1759 
Q 384 2613 750 3098 
Q 1116 3584 1747 3584 
Q 2063 3584 2303 3448 
Q 2544 3313 2681 3053 
z
M 991 1747 
Q 991 1078 1203 737 
Q 1416 397 1831 397 
Q 2247 397 2464 740 
Q 2681 1084 2681 1747 
Q 2681 2413 2464 2755 
Q 2247 3097 1831 3097 
Q 1416 3097 1203 2756 
Q 991 2416 991 1747 
z
" transform="scale(0.015625)"/>
       <path id="DejaVuSansMono-65" d="M 3475 1894 
L 3475 1613 
L 984 1613 
L 984 1594 
Q 984 1022 1282 709 
Q 1581 397 2125 397 
Q 2400 397 2700 484 
Q 3000 572 3341 750 
L 3341 178 
Q 3013 44 2708 -23 
Q 2403 -91 2119 -91 
Q 1303 -91 843 398 
Q 384 888 384 1747 
Q 384 2584 834 3084 
Q 1284 3584 2034 3584 
Q 2703 3584 3089 3131 
Q 3475 2678 3475 1894 
z
M 2900 2063 
Q 2888 2569 2661 2833 
Q 2434 3097 2009 3097 
Q 1594 3097 1325 2822 
Q 1056 2547 1006 2059 
L 2900 2063 
z
" transform="scale(0.015625)"/>
       <path id="DejaVuSansMono-6e" d="M 3284 2169 
L 3284 0 
L 2706 0 
L 2706 2169 
Q 2706 2641 2540 2862 
Q 2375 3084 2022 3084 
Q 1619 3084 1401 2798 
Q 1184 2513 1184 1978 
L 1184 0 
L 609 0 
L 609 3500 
L 1184 3500 
L 1184 2975 
Q 1338 3275 1600 3429 
Q 1863 3584 2222 3584 
Q 2756 3584 3020 3232 
Q 3284 2881 3284 2169 
z
" transform="scale(0.015625)"/>
       <path id="DejaVuSansMono-73" d="M 3041 3378 
L 3041 2816 
Q 2794 2959 2544 3031 
Q 2294 3103 2034 3103 
Q 1644 3103 1451 2976 
Q 1259 2850 1259 2591 
Q 1259 2356 1403 2240 
Q 1547 2125 2119 2016 
L 2350 1972 
Q 2778 1891 2998 1647 
Q 3219 1403 3219 1013 
Q 3219 494 2850 201 
Q 2481 -91 1825 -91 
Q 1566 -91 1281 -36 
Q 997 19 666 128 
L 666 722 
Q 988 556 1281 473 
Q 1575 391 1838 391 
Q 2219 391 2428 545 
Q 2638 700 2638 978 
Q 2638 1378 1872 1531 
L 1847 1538 
L 1631 1581 
Q 1134 1678 906 1908 
Q 678 2138 678 2534 
Q 678 3038 1018 3311 
Q 1359 3584 1991 3584 
Q 2272 3584 2531 3532 
Q 2791 3481 3041 3378 
z
" transform="scale(0.015625)"/>
      </defs>
      <use xlink:href="#DejaVuSansMono-70"/>
      <use xlink:href="#DejaVuSansMono-72" x="60.205078"/>
      <use xlink:href="#DejaVuSansMono-6f" x="120.410156"/>
      <use xlink:href="#DejaVuSansMono-62" x="180.615234"/>
      <use xlink:href="#DejaVuSansMono-61" x="240.820312"/>
      <use xlink:href="#DejaVuSansMono-62" x="301.025391"/>
      <use xlink:href="#DejaVuSansMono-69" x="361.230469"/>
      <use xlink:href="#DejaVuSansMono-6c" x="421.435547"/>
      <use xlink:href="#DejaVuSansMono-69" x="481.640625"/>
      <use xlink:href="#DejaVuSansMono-74" x="541.845703"/>
      <use xlink:href="#DejaVuSansMono-79" x="602.050781"/>
      <use xlink:href="#DejaVuSansMono-20" x="662.255859"/>
      <use xlink:href="#DejaVuSansMono-64" x="722.460938"/>
      <use xlink:href="#DejaVuSansMono-65" x="782.666016"/>
      <use xlink:href="#DejaVuSansMono-6e" x="842.871094"/>
      <use xlink:href="#DejaVuSansMono-73" x="903.076172"/>
      <use xlink:href="#DejaVuSansMono-69" x="963.28125"/>
      <use xlink:href="#DejaVuSansMono-74" x="1023.486328"/>
      <use xlink:href="#DejaVuSansMono-79" x="1083.691406"/>
     </g>
    </g>
   </g>
   <g id="line2d_27">
    <path d="M 52.682926 286.041818 
L 233.71087 285.936019 
L 248.796532 285.717715 
L 258.85364 285.394246 
L 266.396471 284.981419 
L 273.939302 284.341323 
L 278.967856 283.737751 
L 283.99641 282.946553 
L 289.024964 281.918128 
L 294.053518 280.592403 
L 299.082072 278.8974 
L 301.596349 277.885325 
L 304.110626 276.74784 
L 306.624903 275.472003 
L 309.13918 274.043897 
L 311.653457 272.448616 
L 314.167734 270.67025 
L 316.682011 268.691888 
L 319.196288 266.495634 
L 321.710565 264.062637 
L 324.224842 261.373147 
L 326.739119 258.406592 
L 329.253396 255.141678 
L 331.767673 251.556532 
L 334.28195 247.628871 
L 336.796227 243.336229 
L 339.310504 238.656219 
L 341.824781 233.566862 
L 344.339058 228.04698 
L 346.853335 222.076662 
L 349.367612 215.637813 
L 351.881889 208.714805 
L 354.396166 201.295225 
L 356.910443 193.370754 
L 359.42472 184.938179 
L 361.938997 176.000551 
L 364.453274 166.568521 
L 369.481828 146.311202 
L 374.510382 124.46673 
L 389.596044 56.601996 
L 392.110321 46.63301 
L 394.624598 37.709902 
L 397.138875 30.185989 
L 399.653152 24.473859 
L 402.167429 21.052989 
L 404.681706 20.478182 
L 407.195983 23.388895 
L 409.71026 30.519542 
L 412.224537 42.710855 
L 414.738814 60.922405 
L 417.253091 86.246371 
L 419.767368 119.922686 
L 422.281645 163.355657 
L 424.795922 218.132199 
L 427.310199 286.041818 
L 427.310199 286.041818 
" clip-path="url(#p1833105adc)" style="fill: none; stroke: #486afb; stroke-width: 2; stroke-linecap: square"/>
   </g>
   <g id="line2d_28">
    <path d="M 52.682926 286.041818 
L 206.053823 285.933013 
L 221.139485 285.690467 
L 231.196593 285.325884 
L 238.739424 284.860319 
L 246.282255 284.142481 
L 251.310809 283.471173 
L 256.339363 282.599311 
L 261.367917 281.478844 
L 266.396471 280.053681 
L 271.425025 278.259307 
L 276.453579 276.022702 
L 278.967856 274.713486 
L 281.482133 273.262658 
L 283.99641 271.658929 
L 286.510687 269.890642 
L 289.024964 267.945836 
L 291.539241 265.812334 
L 294.053518 263.477832 
L 296.567795 260.930021 
L 299.082072 258.156716 
L 301.596349 255.14601 
L 304.110626 251.886449 
L 306.624903 248.367228 
L 309.13918 244.578415 
L 311.653457 240.511191 
L 314.167734 236.158125 
L 316.682011 231.513467 
L 319.196288 226.573473 
L 321.710565 221.336751 
L 324.224842 215.80463 
L 326.739119 209.981563 
L 331.767673 197.498515 
L 336.796227 184.001915 
L 341.824781 169.684307 
L 359.42472 118.226352 
L 361.938997 111.586151 
L 364.453274 105.386631 
L 366.967551 99.734682 
L 369.481828 94.74395 
L 371.996105 90.533932 
L 374.510382 87.228721 
L 377.024659 84.955389 
L 379.538936 83.841907 
L 382.053213 84.014558 
L 384.56749 85.594751 
L 387.081767 88.695166 
L 389.596044 93.415102 
L 392.110321 99.834967 
L 394.624598 108.009746 
L 397.138875 117.961347 
L 399.653152 129.669669 
L 402.167429 143.062234 
L 404.681706 158.002208 
L 407.195983 174.274617 
L 412.224537 209.469138 
L 417.253091 244.704829 
L 419.767368 260.441267 
L 422.281645 273.522822 
L 424.795922 282.600452 
L 427.310199 286.041818 
L 427.310199 286.041818 
" clip-path="url(#p1833105adc)" style="fill: none; stroke: #5576fb; stroke-width: 2; stroke-linecap: square"/>
   </g>
   <g id="line2d_29">
    <path d="M 52.682926 286.041818 
L 180.911053 285.943153 
L 195.996715 285.695233 
L 206.053823 285.309315 
L 213.596654 284.80965 
L 221.139485 284.035094 
L 226.168039 283.310441 
L 231.196593 282.371397 
L 236.225147 281.16977 
L 241.253701 279.650872 
L 246.282255 277.753803 
L 251.310809 275.412145 
L 253.825086 274.052604 
L 256.339363 272.555122 
L 258.85364 270.910454 
L 261.367917 269.109337 
L 263.882194 267.142576 
L 266.396471 265.001148 
L 268.910748 262.676316 
L 271.425025 260.159751 
L 273.939302 257.443674 
L 276.453579 254.521003 
L 278.967856 251.385513 
L 281.482133 248.032009 
L 283.99641 244.45651 
L 286.510687 240.656434 
L 289.024964 236.630804 
L 291.539241 232.380448 
L 296.567795 223.219178 
L 301.596349 213.223415 
L 306.624903 202.486292 
L 311.653457 191.149507 
L 319.196288 173.463379 
L 326.739119 155.785723 
L 331.767673 144.585249 
L 334.28195 139.313793 
L 336.796227 134.336476 
L 339.310504 129.712366 
L 341.824781 125.502179 
L 344.339058 121.767646 
L 346.853335 118.570768 
L 349.367612 115.972965 
L 351.881889 114.034126 
L 354.396166 112.811542 
L 356.910443 112.358737 
L 359.42472 112.724206 
L 361.938997 113.950049 
L 364.453274 116.07054 
L 366.967551 119.110624 
L 369.481828 123.084375 
L 371.996105 127.993448 
L 374.510382 133.825541 
L 377.024659 140.552929 
L 379.538936 148.13111 
L 382.053213 156.497621 
L 384.56749 165.571106 
L 387.081767 175.250715 
L 392.110321 195.926898 
L 399.653152 227.8744 
L 402.167429 238.03908 
L 404.681706 247.629935 
L 407.195983 256.448611 
L 409.71026 264.308992 
L 412.224537 271.048566 
L 414.738814 276.542422 
L 417.253091 280.720275 
L 419.767368 283.586971 
L 422.281645 285.246961 
L 424.795922 285.933307 
L 427.310199 286.041818 
L 427.310199 286.041818 
" clip-path="url(#p1833105adc)" style="fill: none; stroke: #6283fc; stroke-width: 2; stroke-linecap: square"/>
   </g>
   <g id="line2d_30">
    <path d="M 52.682926 286.041818 
L 160.796837 285.932975 
L 173.368222 285.705974 
L 183.42533 285.295225 
L 190.968161 284.751132 
L 195.996715 284.223765 
L 201.025269 283.523265 
L 206.053823 282.607459 
L 211.082377 281.428246 
L 216.110931 279.931914 
L 221.139485 278.05985 
L 226.168039 275.749671 
L 228.682316 274.410155 
L 231.196593 272.936862 
L 233.71087 271.32175 
L 236.225147 269.556943 
L 238.739424 267.634833 
L 241.253701 265.548183 
L 243.767978 263.290241 
L 246.282255 260.854864 
L 248.796532 258.236646 
L 251.310809 255.43105 
L 253.825086 252.434553 
L 256.339363 249.244782 
L 258.85364 245.860664 
L 263.882194 238.512473 
L 268.910748 230.412904 
L 273.939302 221.614749 
L 278.967856 212.204634 
L 283.99641 202.306183 
L 294.053518 181.734389 
L 301.596349 166.516662 
L 306.624903 156.985758 
L 309.13918 152.520546 
L 311.653457 148.309775 
L 314.167734 144.394912 
L 316.682011 140.817528 
L 319.196288 137.618829 
L 321.710565 134.839148 
L 324.224842 132.5174 
L 326.739119 130.690512 
L 329.253396 129.392822 
L 331.767673 128.655455 
L 334.28195 128.505701 
L 336.796227 128.966375 
L 339.310504 130.055193 
L 341.824781 131.784165 
L 344.339058 134.159017 
L 346.853335 137.178662 
L 349.367612 140.834725 
L 351.881889 145.111146 
L 354.396166 149.983872 
L 356.910443 155.420658 
L 359.42472 161.380994 
L 361.938997 167.816172 
L 364.453274 174.669509 
L 369.481828 189.366669 
L 377.024659 212.733463 
L 382.053213 228.191928 
L 387.081767 242.724996 
L 389.596044 249.433516 
L 392.110321 255.669752 
L 394.624598 261.37022 
L 397.138875 266.483624 
L 399.653152 270.973085 
L 402.167429 274.818156 
L 404.681706 278.016478 
L 407.195983 280.584915 
L 409.71026 282.559975 
L 412.224537 283.997284 
L 414.738814 284.969838 
L 417.253091 285.564714 
L 419.767368 285.877881 
L 424.795922 286.039435 
L 427.310199 286.041818 
L 427.310199 286.041818 
" clip-path="url(#p1833105adc)" style="fill: none; stroke: #6f90fc; stroke-width: 2; stroke-linecap: square"/>
   </g>
   <g id="line2d_31">
    <path d="M 52.682926 286.041818 
L 140.682621 285.945559 
L 153.254006 285.707653 
L 160.796837 285.397871 
L 168.339668 284.870458 
L 173.368222 284.345807 
L 178.396776 283.637377 
L 183.42533 282.699378 
L 188.453884 281.480214 
L 193.482438 279.92323 
L 198.510992 277.967923 
L 201.025269 276.821352 
L 203.539546 275.551661 
L 206.053823 274.151054 
L 208.5681 272.61191 
L 211.082377 270.926875 
L 213.596654 269.088975 
L 216.110931 267.091716 
L 218.625208 264.929206 
L 221.139485 262.596275 
L 223.653762 260.088592 
L 226.168039 257.402799 
L 228.682316 254.536628 
L 231.196593 251.489033 
L 236.225147 244.852213 
L 241.253701 237.512889 
L 246.282255 229.518367 
L 251.310809 220.945502 
L 256.339363 211.902604 
L 263.882194 197.773035 
L 273.939302 178.858604 
L 278.967856 169.871315 
L 283.99641 161.53057 
L 286.510687 157.684458 
L 289.024964 154.098304 
L 291.539241 150.804464 
L 294.053518 147.834474 
L 296.567795 145.218684 
L 299.082072 142.985869 
L 301.596349 141.162841 
L 304.110626 139.774059 
L 306.624903 138.841243 
L 309.13918 138.383 
L 311.653457 138.414463 
L 314.167734 138.946954 
L 316.682011 139.987675 
L 319.196288 141.539437 
L 321.710565 143.600424 
L 324.224842 146.164015 
L 326.739119 149.21865 
L 329.253396 152.747763 
L 331.767673 156.729779 
L 334.28195 161.138183 
L 336.796227 165.941657 
L 339.310504 171.104305 
L 341.824781 176.585953 
L 346.853335 188.326516 
L 351.881889 200.77284 
L 361.938997 226.063929 
L 366.967551 238.042556 
L 369.481828 243.688895 
L 371.996105 249.048563 
L 374.510382 254.084204 
L 377.024659 258.764291 
L 379.538936 263.063772 
L 382.053213 266.964603 
L 384.56749 270.456127 
L 387.081767 273.535307 
L 389.596044 276.206752 
L 392.110321 278.482548 
L 394.624598 280.381863 
L 397.138875 281.930315 
L 399.653152 283.159104 
L 402.167429 284.10392 
L 404.681706 284.803623 
L 407.195983 285.29875 
L 409.71026 285.629882 
L 414.738814 285.952486 
L 422.281645 286.040671 
L 427.310199 286.041818 
L 427.310199 286.041818 
" clip-path="url(#p1833105adc)" style="fill: none; stroke: #7d9cfd; stroke-width: 2; stroke-linecap: square"/>
   </g>
   <g id="line2d_32">
    <path d="M 52.682926 286.041818 
L 123.082682 285.953571 
L 135.654067 285.687579 
L 143.196898 285.319206 
L 150.739729 284.672792 
L 155.768283 284.019774 
L 160.796837 283.131574 
L 165.825391 281.95171 
L 170.853945 280.418544 
L 175.882499 278.467031 
L 178.396776 277.313695 
L 180.911053 276.03104 
L 183.42533 274.611101 
L 185.939607 273.046236 
L 188.453884 271.329237 
L 190.968161 269.45345 
L 193.482438 267.412901 
L 195.996715 265.20242 
L 198.510992 262.817769 
L 201.025269 260.255768 
L 203.539546 257.514418 
L 206.053823 254.593022 
L 208.5681 251.492295 
L 213.596654 244.76341 
L 218.625208 237.365519 
L 223.653762 229.364553 
L 228.682316 220.856079 
L 236.225147 207.424215 
L 248.796532 184.672678 
L 253.825086 176.038937 
L 258.85364 168.010574 
L 261.367917 164.295964 
L 263.882194 160.819239 
L 266.396471 157.608192 
L 268.910748 154.689587 
L 271.425025 152.088861 
L 273.939302 149.829816 
L 276.453579 147.934334 
L 278.967856 146.422084 
L 281.482133 145.31025 
L 283.99641 144.61328 
L 286.510687 144.342653 
L 289.024964 144.506666 
L 291.539241 145.110259 
L 294.053518 146.154871 
L 296.567795 147.638326 
L 299.082072 149.554765 
L 301.596349 151.894617 
L 304.110626 154.644614 
L 306.624903 157.787851 
L 309.13918 161.303895 
L 311.653457 165.168935 
L 314.167734 169.355988 
L 316.682011 173.835143 
L 321.710565 183.537263 
L 326.739119 193.989534 
L 336.796227 215.894821 
L 341.824781 226.713567 
L 346.853335 237.044971 
L 351.881889 246.631786 
L 354.396166 251.078705 
L 356.910443 255.265863 
L 359.42472 259.17659 
L 361.938997 262.798354 
L 364.453274 266.122863 
L 366.967551 269.146078 
L 369.481828 271.868155 
L 371.996105 274.293304 
L 374.510382 276.429567 
L 377.024659 278.288516 
L 379.538936 279.88488 
L 382.053213 281.236107 
L 384.56749 282.361863 
L 387.081767 283.28349 
L 389.596044 284.023428 
L 392.110321 284.604624 
L 394.624598 285.049939 
L 399.653152 285.620552 
L 404.681706 285.895888 
L 412.224537 286.025981 
L 427.310199 286.041818 
L 427.310199 286.041818 
" clip-path="url(#p1833105adc)" style="fill: none; stroke: #8aa9fd; stroke-width: 2; stroke-linecap: square"/>
   </g>
   <g id="line2d_33">
    <path d="M 52.682926 286.041818 
L 107.99702 285.954573 
L 118.054128 285.728195 
L 125.596959 285.336862 
L 130.625513 284.899621 
L 135.654067 284.262953 
L 140.682621 283.367224 
L 145.711175 282.14551 
L 150.739729 280.525595 
L 153.254006 279.542961 
L 155.768283 278.43273 
L 158.28256 277.185736 
L 160.796837 275.793119 
L 163.311114 274.246469 
L 165.825391 272.537968 
L 168.339668 270.660532 
L 170.853945 268.607959 
L 173.368222 266.375079 
L 175.882499 263.95789 
L 178.396776 261.353699 
L 180.911053 258.561249 
L 183.42533 255.580841 
L 185.939607 252.414436 
L 190.968161 245.540348 
L 195.996715 237.991076 
L 201.025269 229.849458 
L 206.053823 221.229311 
L 213.596654 207.72341 
L 223.653762 189.595212 
L 228.682316 180.946443 
L 233.71087 172.869777 
L 236.225147 169.115442 
L 238.739424 165.586515 
L 241.253701 162.308969 
L 243.767978 159.307581 
L 246.282255 156.605663 
L 248.796532 154.224804 
L 251.310809 152.184628 
L 253.825086 150.502554 
L 256.339363 149.193595 
L 258.85364 148.270157 
L 261.367917 147.741881 
L 263.882194 147.615498 
L 266.396471 147.894724 
L 268.910748 148.580181 
L 271.425025 149.669349 
L 273.939302 151.156557 
L 276.453579 153.033006 
L 278.967856 155.286829 
L 281.482133 157.903184 
L 283.99641 160.864386 
L 286.510687 164.150063 
L 289.024964 167.737359 
L 291.539241 171.601154 
L 294.053518 175.714315 
L 299.082072 184.571851 
L 304.110626 194.063775 
L 314.167734 213.914588 
L 321.710565 228.562629 
L 326.739119 237.78374 
L 331.767673 246.349763 
L 334.28195 250.340366 
L 336.796227 254.11651 
L 339.310504 257.667099 
L 341.824781 260.983923 
L 344.339058 264.061646 
L 346.853335 266.897751 
L 349.367612 269.492446 
L 351.881889 271.848529 
L 354.396166 273.97122 
L 356.910443 275.867949 
L 359.42472 277.548128 
L 361.938997 279.022886 
L 364.453274 280.304792 
L 366.967551 281.407558 
L 369.481828 282.345738 
L 371.996105 283.134424 
L 374.510382 283.788947 
L 379.538936 284.756304 
L 384.56749 285.36477 
L 389.596044 285.719048 
L 397.138875 285.959202 
L 409.71026 286.039196 
L 427.310199 286.041818 
L 427.310199 286.041818 
" clip-path="url(#p1833105adc)" style="fill: none; stroke: #97b6fd; stroke-width: 2; stroke-linecap: square"/>
   </g>
   <g id="line2d_34">
    <path d="M 52.682926 286.041818 
L 95.425635 285.943723 
L 102.968466 285.742301 
L 110.511297 285.282802 
L 115.539851 284.740577 
L 120.568405 283.927098 
L 125.596959 282.760124 
L 128.111236 282.016411 
L 130.625513 281.150637 
L 133.13979 280.151336 
L 135.654067 279.007216 
L 138.168344 277.707344 
L 140.682621 276.241339 
L 143.196898 274.599562 
L 145.711175 272.77331 
L 148.225452 270.755013 
L 150.739729 268.538416 
L 153.254006 266.118758 
L 155.768283 263.492936 
L 158.28256 260.659653 
L 160.796837 257.619553 
L 163.311114 254.375328 
L 165.825391 250.931808 
L 170.853945 243.477237 
L 175.882499 235.338922 
L 180.911053 226.635294 
L 188.453884 212.860025 
L 201.025269 189.610013 
L 206.053823 180.854306 
L 211.082377 172.755847 
L 213.596654 169.023103 
L 216.110931 165.536762 
L 218.625208 162.321693 
L 221.139485 159.401099 
L 223.653762 156.796274 
L 226.168039 154.526376 
L 228.682316 152.608226 
L 231.196593 151.056126 
L 233.71087 149.881706 
L 236.225147 149.093802 
L 238.739424 148.698356 
L 241.253701 148.698356 
L 243.767978 149.093802 
L 246.282255 149.881706 
L 248.796532 151.056126 
L 251.310809 152.608226 
L 253.825086 154.526376 
L 256.339363 156.796274 
L 258.85364 159.401099 
L 261.367917 162.321693 
L 263.882194 165.536762 
L 266.396471 169.023103 
L 268.910748 172.755847 
L 273.939302 180.854306 
L 278.967856 189.610013 
L 286.510687 203.469984 
L 296.567795 222.117699 
L 301.596349 231.049033 
L 306.624903 239.486959 
L 311.653457 247.296023 
L 316.682011 254.375328 
L 319.196288 257.619553 
L 321.710565 260.659653 
L 324.224842 263.492936 
L 326.739119 266.118758 
L 329.253396 268.538416 
L 331.767673 270.755013 
L 334.28195 272.77331 
L 336.796227 274.599562 
L 339.310504 276.241339 
L 341.824781 277.707344 
L 344.339058 279.007216 
L 346.853335 280.151336 
L 349.367612 281.150637 
L 351.881889 282.016411 
L 356.910443 283.393249 
L 361.938997 284.372682 
L 366.967551 285.040818 
L 371.996105 285.47522 
L 379.538936 285.83045 
L 389.596044 286.001171 
L 412.224537 286.041773 
L 427.310199 286.041818 
L 427.310199 286.041818 
" clip-path="url(#p1833105adc)" style="fill: none; stroke: #a5c2fe; stroke-width: 2; stroke-linecap: square"/>
   </g>
   <g id="line2d_35">
    <path d="M 52.682926 286.041818 
L 82.85425 285.959202 
L 90.397081 285.719048 
L 95.425635 285.36477 
L 100.454189 284.756304 
L 105.482743 283.788947 
L 107.99702 283.134424 
L 110.511297 282.345738 
L 113.025574 281.407558 
L 115.539851 280.304792 
L 118.054128 279.022886 
L 120.568405 277.548128 
L 123.082682 275.867949 
L 125.596959 273.97122 
L 128.111236 271.848529 
L 130.625513 269.492446 
L 133.13979 266.897751 
L 135.654067 264.061646 
L 138.168344 260.983923 
L 140.682621 257.667099 
L 143.196898 254.11651 
L 145.711175 250.340366 
L 150.739729 242.158645 
L 155.768283 233.244435 
L 160.796837 223.762539 
L 168.339668 208.924583 
L 175.882499 194.063775 
L 180.911053 184.571851 
L 185.939607 175.714315 
L 188.453884 171.601154 
L 190.968161 167.737359 
L 193.482438 164.150063 
L 195.996715 160.864386 
L 198.510992 157.903184 
L 201.025269 155.286829 
L 203.539546 153.033006 
L 206.053823 151.156557 
L 208.5681 149.669349 
L 211.082377 148.580181 
L 213.596654 147.894724 
L 216.110931 147.615498 
L 218.625208 147.741881 
L 221.139485 148.270157 
L 223.653762 149.193595 
L 226.168039 150.502554 
L 228.682316 152.184628 
L 231.196593 154.224804 
L 233.71087 156.605663 
L 236.225147 159.307581 
L 238.739424 162.308969 
L 241.253701 165.586515 
L 243.767978 169.115442 
L 248.796532 176.822626 
L 253.825086 185.213313 
L 258.85364 194.064277 
L 276.453579 225.5909 
L 281.482133 233.987916 
L 286.510687 241.845663 
L 291.539241 249.065754 
L 296.567795 255.580841 
L 299.082072 258.561249 
L 301.596349 261.353699 
L 304.110626 263.95789 
L 306.624903 266.375079 
L 309.13918 268.607959 
L 311.653457 270.660532 
L 314.167734 272.537968 
L 316.682011 274.246469 
L 319.196288 275.793119 
L 321.710565 277.185736 
L 324.224842 278.43273 
L 326.739119 279.542961 
L 331.767673 281.389978 
L 336.796227 282.801533 
L 341.824781 283.851502 
L 346.853335 284.609754 
L 351.881889 285.139766 
L 359.42472 285.625808 
L 366.967551 285.870981 
L 379.538936 286.014358 
L 414.738814 286.041818 
L 427.310199 286.041818 
L 427.310199 286.041818 
" clip-path="url(#p1833105adc)" style="fill: none; stroke: #b2cffe; stroke-width: 2; stroke-linecap: square"/>
   </g>
   <g id="line2d_36">
    <path d="M 52.682926 286.041818 
L 72.797142 285.964525 
L 77.825696 285.78622 
L 82.85425 285.381577 
L 85.368527 285.049939 
L 87.882804 284.604624 
L 90.397081 284.023428 
L 92.911358 283.28349 
L 95.425635 282.361863 
L 97.939912 281.236107 
L 100.454189 279.88488 
L 102.968466 278.288516 
L 105.482743 276.429567 
L 107.99702 274.293304 
L 110.511297 271.868155 
L 113.025574 269.146078 
L 115.539851 266.122863 
L 118.054128 262.798354 
L 120.568405 259.17659 
L 123.082682 255.265863 
L 125.596959 251.078705 
L 128.111236 246.631786 
L 133.13979 237.044971 
L 138.168344 226.713567 
L 145.711175 210.393337 
L 153.254006 193.989534 
L 158.28256 183.537263 
L 163.311114 173.835143 
L 165.825391 169.355988 
L 168.339668 165.168935 
L 170.853945 161.303895 
L 173.368222 157.787851 
L 175.882499 154.644614 
L 178.396776 151.894617 
L 180.911053 149.554765 
L 183.42533 147.638326 
L 185.939607 146.154871 
L 188.453884 145.110259 
L 190.968161 144.506666 
L 193.482438 144.342653 
L 195.996715 144.61328 
L 198.510992 145.31025 
L 201.025269 146.422084 
L 203.539546 147.934334 
L 206.053823 149.829816 
L 208.5681 152.088861 
L 211.082377 154.689587 
L 213.596654 157.608192 
L 216.110931 160.819239 
L 218.625208 164.295964 
L 221.139485 168.010574 
L 226.168039 176.038937 
L 231.196593 184.672678 
L 238.739424 198.258378 
L 248.796532 216.449589 
L 253.825086 225.166608 
L 258.85364 233.435151 
L 263.882194 241.144652 
L 268.910748 248.214474 
L 273.939302 254.593022 
L 276.453579 257.514418 
L 278.967856 260.255768 
L 281.482133 262.817769 
L 283.99641 265.20242 
L 286.510687 267.412901 
L 289.024964 269.45345 
L 291.539241 271.329237 
L 294.053518 273.046236 
L 296.567795 274.611101 
L 299.082072 276.03104 
L 301.596349 277.313695 
L 306.624903 279.49922 
L 311.653457 281.233299 
L 316.682011 282.581849 
L 321.710565 283.608465 
L 326.739119 284.372387 
L 331.767673 284.927053 
L 339.310504 285.467015 
L 346.853335 285.767645 
L 359.42472 285.977371 
L 382.053213 286.040105 
L 427.310199 286.041818 
L 427.310199 286.041818 
" clip-path="url(#p1833105adc)" style="fill: none; stroke: #bfdcff; stroke-width: 2; stroke-linecap: square"/>
   </g>
   <g id="line2d_37">
    <path d="M 52.682926 286.041818 
L 65.254311 285.952486 
L 70.282865 285.629882 
L 72.797142 285.29875 
L 75.311419 284.803623 
L 77.825696 284.10392 
L 80.339973 283.159104 
L 82.85425 281.930315 
L 85.368527 280.381863 
L 87.882804 278.482548 
L 90.397081 276.206752 
L 92.911358 273.535307 
L 95.425635 270.456127 
L 97.939912 266.964603 
L 100.454189 263.063772 
L 102.968466 258.764291 
L 105.482743 254.084204 
L 107.99702 249.048563 
L 110.511297 243.688895 
L 115.539851 232.151991 
L 120.568405 219.828528 
L 133.13979 188.326516 
L 138.168344 176.585953 
L 140.682621 171.104305 
L 143.196898 165.941657 
L 145.711175 161.138183 
L 148.225452 156.729779 
L 150.739729 152.747763 
L 153.254006 149.21865 
L 155.768283 146.164015 
L 158.28256 143.600424 
L 160.796837 141.539437 
L 163.311114 139.987675 
L 165.825391 138.946954 
L 168.339668 138.414463 
L 170.853945 138.383 
L 173.368222 138.841243 
L 175.882499 139.774059 
L 178.396776 141.162841 
L 180.911053 142.985869 
L 183.42533 145.218684 
L 185.939607 147.834474 
L 188.453884 150.804464 
L 190.968161 154.098304 
L 193.482438 157.684458 
L 195.996715 161.53057 
L 201.025269 169.871315 
L 206.053823 178.858604 
L 213.596654 193.000413 
L 223.653762 211.902604 
L 228.682316 220.945502 
L 233.71087 229.518367 
L 238.739424 237.512889 
L 243.767978 244.852213 
L 248.796532 251.489033 
L 251.310809 254.536628 
L 253.825086 257.402799 
L 256.339363 260.088592 
L 258.85364 262.596275 
L 261.367917 264.929206 
L 263.882194 267.091716 
L 266.396471 269.088975 
L 268.910748 270.926875 
L 271.425025 272.61191 
L 273.939302 274.151054 
L 276.453579 275.551661 
L 281.482133 277.967923 
L 286.510687 279.92323 
L 291.539241 281.480214 
L 296.567795 282.699378 
L 301.596349 283.637377 
L 306.624903 284.345807 
L 311.653457 284.870458 
L 319.196288 285.397871 
L 326.739119 285.707653 
L 339.310504 285.945559 
L 359.42472 286.034038 
L 427.310199 286.041818 
L 427.310199 286.041818 
" clip-path="url(#p1833105adc)" style="fill: none; stroke: #cce8ff; stroke-width: 2; stroke-linecap: square"/>
   </g>
   <g id="patch_3">
    <path d="M 33.951563 299.32 
L 33.951563 7.2 
" style="fill: none; stroke: #000000; stroke-width: 0.6; stroke-linejoin: miter; stroke-linecap: square"/>
   </g>
   <g id="patch_4">
    <path d="M 33.951562 299.32 
L 446.041562 299.32 
" style="fill: none; stroke: #000000; stroke-width: 0.6; stroke-linejoin: miter; stroke-linecap: square"/>
   </g>
   <g id="legend_1">
    <g id="patch_5">
     <path d="M 40.951563 177.24375 
L 103.951562 177.24375 
Q 105.951562 177.24375 105.951562 175.24375 
L 105.951562 14.2 
Q 105.951562 12.2 103.951562 12.2 
L 40.951563 12.2 
Q 38.951563 12.2 38.951563 14.2 
L 38.951563 175.24375 
Q 38.951563 177.24375 40.951563 177.24375 
z
" style="fill: #ffffff; opacity: 0.8; stroke: #333333; stroke-width: 0.2; stroke-linejoin: miter"/>
    </g>
    <g id="line2d_38">
     <path d="M 42.951563 20.351562 
L 52.951563 20.351562 
L 62.951563 20.351562 
" style="fill: none; stroke: #486afb; stroke-width: 2; stroke-linecap: square"/>
    </g>
    <g id="text_16">
     <!-- $x=10$ -->
     <g transform="translate(70.951562 23.851562) scale(0.1 -0.1)">
      <defs>
       <path id="DejaVuSans-Oblique-78" d="M 3841 3500 
L 2234 1784 
L 3219 0 
L 2559 0 
L 1819 1388 
L 531 0 
L -166 0 
L 1556 1844 
L 641 3500 
L 1300 3500 
L 1972 2234 
L 3144 3500 
L 3841 3500 
z
" transform="scale(0.015625)"/>
       <path id="DejaVuSans-3d" d="M 678 2906 
L 4684 2906 
L 4684 2381 
L 678 2381 
L 678 2906 
z
M 678 1631 
L 4684 1631 
L 4684 1100 
L 678 1100 
L 678 1631 
z
" transform="scale(0.015625)"/>
       <path id="DejaVuSans-31" d="M 794 531 
L 1825 531 
L 1825 4091 
L 703 3866 
L 703 4441 
L 1819 4666 
L 2450 4666 
L 2450 531 
L 3481 531 
L 3481 0 
L 794 0 
L 794 531 
z
" transform="scale(0.015625)"/>
       <path id="DejaVuSans-30" d="M 2034 4250 
Q 1547 4250 1301 3770 
Q 1056 3291 1056 2328 
Q 1056 1369 1301 889 
Q 1547 409 2034 409 
Q 2525 409 2770 889 
Q 3016 1369 3016 2328 
Q 3016 3291 2770 3770 
Q 2525 4250 2034 4250 
z
M 2034 4750 
Q 2819 4750 3233 4129 
Q 3647 3509 3647 2328 
Q 3647 1150 3233 529 
Q 2819 -91 2034 -91 
Q 1250 -91 836 529 
Q 422 1150 422 2328 
Q 422 3509 836 4129 
Q 1250 4750 2034 4750 
z
" transform="scale(0.015625)"/>
      </defs>
      <use xlink:href="#DejaVuSans-Oblique-78" transform="translate(0 0.78125)"/>
      <use xlink:href="#DejaVuSans-3d" transform="translate(78.662109 0.78125)"/>
      <use xlink:href="#DejaVuSans-31" transform="translate(181.933594 0.78125)"/>
      <use xlink:href="#DejaVuSans-30" transform="translate(245.556641 0.78125)"/>
     </g>
    </g>
    <g id="line2d_39">
     <path d="M 42.951563 35.082812 
L 52.951563 35.082812 
L 62.951563 35.082812 
" style="fill: none; stroke: #5576fb; stroke-width: 2; stroke-linecap: square"/>
    </g>
    <g id="text_17">
     <!-- $x=9$ -->
     <g transform="translate(70.951562 38.582812) scale(0.1 -0.1)">
      <defs>
       <path id="DejaVuSans-39" d="M 703 97 
L 703 672 
Q 941 559 1184 500 
Q 1428 441 1663 441 
Q 2288 441 2617 861 
Q 2947 1281 2994 2138 
Q 2813 1869 2534 1725 
Q 2256 1581 1919 1581 
Q 1219 1581 811 2004 
Q 403 2428 403 3163 
Q 403 3881 828 4315 
Q 1253 4750 1959 4750 
Q 2769 4750 3195 4129 
Q 3622 3509 3622 2328 
Q 3622 1225 3098 567 
Q 2575 -91 1691 -91 
Q 1453 -91 1209 -44 
Q 966 3 703 97 
z
M 1959 2075 
Q 2384 2075 2632 2365 
Q 2881 2656 2881 3163 
Q 2881 3666 2632 3958 
Q 2384 4250 1959 4250 
Q 1534 4250 1286 3958 
Q 1038 3666 1038 3163 
Q 1038 2656 1286 2365 
Q 1534 2075 1959 2075 
z
" transform="scale(0.015625)"/>
      </defs>
      <use xlink:href="#DejaVuSans-Oblique-78" transform="translate(0 0.78125)"/>
      <use xlink:href="#DejaVuSans-3d" transform="translate(78.662109 0.78125)"/>
      <use xlink:href="#DejaVuSans-39" transform="translate(181.933594 0.78125)"/>
     </g>
    </g>
    <g id="line2d_40">
     <path d="M 42.951563 49.814062 
L 52.951563 49.814062 
L 62.951563 49.814062 
" style="fill: none; stroke: #6283fc; stroke-width: 2; stroke-linecap: square"/>
    </g>
    <g id="text_18">
     <!-- $x=8$ -->
     <g transform="translate(70.951562 53.314062) scale(0.1 -0.1)">
      <defs>
       <path id="DejaVuSans-38" d="M 2034 2216 
Q 1584 2216 1326 1975 
Q 1069 1734 1069 1313 
Q 1069 891 1326 650 
Q 1584 409 2034 409 
Q 2484 409 2743 651 
Q 3003 894 3003 1313 
Q 3003 1734 2745 1975 
Q 2488 2216 2034 2216 
z
M 1403 2484 
Q 997 2584 770 2862 
Q 544 3141 544 3541 
Q 544 4100 942 4425 
Q 1341 4750 2034 4750 
Q 2731 4750 3128 4425 
Q 3525 4100 3525 3541 
Q 3525 3141 3298 2862 
Q 3072 2584 2669 2484 
Q 3125 2378 3379 2068 
Q 3634 1759 3634 1313 
Q 3634 634 3220 271 
Q 2806 -91 2034 -91 
Q 1263 -91 848 271 
Q 434 634 434 1313 
Q 434 1759 690 2068 
Q 947 2378 1403 2484 
z
M 1172 3481 
Q 1172 3119 1398 2916 
Q 1625 2713 2034 2713 
Q 2441 2713 2670 2916 
Q 2900 3119 2900 3481 
Q 2900 3844 2670 4047 
Q 2441 4250 2034 4250 
Q 1625 4250 1398 4047 
Q 1172 3844 1172 3481 
z
" transform="scale(0.015625)"/>
      </defs>
      <use xlink:href="#DejaVuSans-Oblique-78" transform="translate(0 0.78125)"/>
      <use xlink:href="#DejaVuSans-3d" transform="translate(78.662109 0.78125)"/>
      <use xlink:href="#DejaVuSans-38" transform="translate(181.933594 0.78125)"/>
     </g>
    </g>
    <g id="line2d_41">
     <path d="M 42.951563 64.545313 
L 52.951563 64.545313 
L 62.951563 64.545313 
" style="fill: none; stroke: #6f90fc; stroke-width: 2; stroke-linecap: square"/>
    </g>
    <g id="text_19">
     <!-- $x=7$ -->
     <g transform="translate(70.951562 68.045313) scale(0.1 -0.1)">
      <defs>
       <path id="DejaVuSans-37" d="M 525 4666 
L 3525 4666 
L 3525 4397 
L 1831 0 
L 1172 0 
L 2766 4134 
L 525 4134 
L 525 4666 
z
" transform="scale(0.015625)"/>
      </defs>
      <use xlink:href="#DejaVuSans-Oblique-78" transform="translate(0 0.09375)"/>
      <use xlink:href="#DejaVuSans-3d" transform="translate(78.662109 0.09375)"/>
      <use xlink:href="#DejaVuSans-37" transform="translate(181.933594 0.09375)"/>
     </g>
    </g>
    <g id="line2d_42">
     <path d="M 42.951563 79.276563 
L 52.951563 79.276563 
L 62.951563 79.276563 
" style="fill: none; stroke: #7d9cfd; stroke-width: 2; stroke-linecap: square"/>
    </g>
    <g id="text_20">
     <!-- $x=6$ -->
     <g transform="translate(70.951562 82.776563) scale(0.1 -0.1)">
      <defs>
       <path id="DejaVuSans-36" d="M 2113 2584 
Q 1688 2584 1439 2293 
Q 1191 2003 1191 1497 
Q 1191 994 1439 701 
Q 1688 409 2113 409 
Q 2538 409 2786 701 
Q 3034 994 3034 1497 
Q 3034 2003 2786 2293 
Q 2538 2584 2113 2584 
z
M 3366 4563 
L 3366 3988 
Q 3128 4100 2886 4159 
Q 2644 4219 2406 4219 
Q 1781 4219 1451 3797 
Q 1122 3375 1075 2522 
Q 1259 2794 1537 2939 
Q 1816 3084 2150 3084 
Q 2853 3084 3261 2657 
Q 3669 2231 3669 1497 
Q 3669 778 3244 343 
Q 2819 -91 2113 -91 
Q 1303 -91 875 529 
Q 447 1150 447 2328 
Q 447 3434 972 4092 
Q 1497 4750 2381 4750 
Q 2619 4750 2861 4703 
Q 3103 4656 3366 4563 
z
" transform="scale(0.015625)"/>
      </defs>
      <use xlink:href="#DejaVuSans-Oblique-78" transform="translate(0 0.78125)"/>
      <use xlink:href="#DejaVuSans-3d" transform="translate(78.662109 0.78125)"/>
      <use xlink:href="#DejaVuSans-36" transform="translate(181.933594 0.78125)"/>
     </g>
    </g>
    <g id="line2d_43">
     <path d="M 42.951563 94.007812 
L 52.951563 94.007812 
L 62.951563 94.007812 
" style="fill: none; stroke: #8aa9fd; stroke-width: 2; stroke-linecap: square"/>
    </g>
    <g id="text_21">
     <!-- $x=5$ -->
     <g transform="translate(70.951562 97.507812) scale(0.1 -0.1)">
      <defs>
       <path id="DejaVuSans-35" d="M 691 4666 
L 3169 4666 
L 3169 4134 
L 1269 4134 
L 1269 2991 
Q 1406 3038 1543 3061 
Q 1681 3084 1819 3084 
Q 2600 3084 3056 2656 
Q 3513 2228 3513 1497 
Q 3513 744 3044 326 
Q 2575 -91 1722 -91 
Q 1428 -91 1123 -41 
Q 819 9 494 109 
L 494 744 
Q 775 591 1075 516 
Q 1375 441 1709 441 
Q 2250 441 2565 725 
Q 2881 1009 2881 1497 
Q 2881 1984 2565 2268 
Q 2250 2553 1709 2553 
Q 1456 2553 1204 2497 
Q 953 2441 691 2322 
L 691 4666 
z
" transform="scale(0.015625)"/>
      </defs>
      <use xlink:href="#DejaVuSans-Oblique-78" transform="translate(0 0.09375)"/>
      <use xlink:href="#DejaVuSans-3d" transform="translate(78.662109 0.09375)"/>
      <use xlink:href="#DejaVuSans-35" transform="translate(181.933594 0.09375)"/>
     </g>
    </g>
    <g id="line2d_44">
     <path d="M 42.951563 108.739062 
L 52.951563 108.739062 
L 62.951563 108.739062 
" style="fill: none; stroke: #97b6fd; stroke-width: 2; stroke-linecap: square"/>
    </g>
    <g id="text_22">
     <!-- $x=4$ -->
     <g transform="translate(70.951562 112.239062) scale(0.1 -0.1)">
      <defs>
       <path id="DejaVuSans-34" d="M 2419 4116 
L 825 1625 
L 2419 1625 
L 2419 4116 
z
M 2253 4666 
L 3047 4666 
L 3047 1625 
L 3713 1625 
L 3713 1100 
L 3047 1100 
L 3047 0 
L 2419 0 
L 2419 1100 
L 313 1100 
L 313 1709 
L 2253 4666 
z
" transform="scale(0.015625)"/>
      </defs>
      <use xlink:href="#DejaVuSans-Oblique-78" transform="translate(0 0.09375)"/>
      <use xlink:href="#DejaVuSans-3d" transform="translate(78.662109 0.09375)"/>
      <use xlink:href="#DejaVuSans-34" transform="translate(181.933594 0.09375)"/>
     </g>
    </g>
    <g id="line2d_45">
     <path d="M 42.951563 123.470312 
L 52.951563 123.470312 
L 62.951563 123.470312 
" style="fill: none; stroke: #a5c2fe; stroke-width: 2; stroke-linecap: square"/>
    </g>
    <g id="text_23">
     <!-- $x=3$ -->
     <g transform="translate(70.951562 126.970312) scale(0.1 -0.1)">
      <defs>
       <path id="DejaVuSans-33" d="M 2597 2516 
Q 3050 2419 3304 2112 
Q 3559 1806 3559 1356 
Q 3559 666 3084 287 
Q 2609 -91 1734 -91 
Q 1441 -91 1130 -33 
Q 819 25 488 141 
L 488 750 
Q 750 597 1062 519 
Q 1375 441 1716 441 
Q 2309 441 2620 675 
Q 2931 909 2931 1356 
Q 2931 1769 2642 2001 
Q 2353 2234 1838 2234 
L 1294 2234 
L 1294 2753 
L 1863 2753 
Q 2328 2753 2575 2939 
Q 2822 3125 2822 3475 
Q 2822 3834 2567 4026 
Q 2313 4219 1838 4219 
Q 1578 4219 1281 4162 
Q 984 4106 628 3988 
L 628 4550 
Q 988 4650 1302 4700 
Q 1616 4750 1894 4750 
Q 2613 4750 3031 4423 
Q 3450 4097 3450 3541 
Q 3450 3153 3228 2886 
Q 3006 2619 2597 2516 
z
" transform="scale(0.015625)"/>
      </defs>
      <use xlink:href="#DejaVuSans-Oblique-78" transform="translate(0 0.78125)"/>
      <use xlink:href="#DejaVuSans-3d" transform="translate(78.662109 0.78125)"/>
      <use xlink:href="#DejaVuSans-33" transform="translate(181.933594 0.78125)"/>
     </g>
    </g>
    <g id="line2d_46">
     <path d="M 42.951563 138.201562 
L 52.951563 138.201562 
L 62.951563 138.201562 
" style="fill: none; stroke: #b2cffe; stroke-width: 2; stroke-linecap: square"/>
    </g>
    <g id="text_24">
     <!-- $x=2$ -->
     <g transform="translate(70.951562 141.701562) scale(0.1 -0.1)">
      <defs>
       <path id="DejaVuSans-32" d="M 1228 531 
L 3431 531 
L 3431 0 
L 469 0 
L 469 531 
Q 828 903 1448 1529 
Q 2069 2156 2228 2338 
Q 2531 2678 2651 2914 
Q 2772 3150 2772 3378 
Q 2772 3750 2511 3984 
Q 2250 4219 1831 4219 
Q 1534 4219 1204 4116 
Q 875 4013 500 3803 
L 500 4441 
Q 881 4594 1212 4672 
Q 1544 4750 1819 4750 
Q 2544 4750 2975 4387 
Q 3406 4025 3406 3419 
Q 3406 3131 3298 2873 
Q 3191 2616 2906 2266 
Q 2828 2175 2409 1742 
Q 1991 1309 1228 531 
z
" transform="scale(0.015625)"/>
      </defs>
      <use xlink:href="#DejaVuSans-Oblique-78" transform="translate(0 0.78125)"/>
      <use xlink:href="#DejaVuSans-3d" transform="translate(78.662109 0.78125)"/>
      <use xlink:href="#DejaVuSans-32" transform="translate(181.933594 0.78125)"/>
     </g>
    </g>
    <g id="line2d_47">
     <path d="M 42.951563 152.932813 
L 52.951563 152.932813 
L 62.951563 152.932813 
" style="fill: none; stroke: #bfdcff; stroke-width: 2; stroke-linecap: square"/>
    </g>
    <g id="text_25">
     <!-- $x=1$ -->
     <g transform="translate(70.951562 156.432813) scale(0.1 -0.1)">
      <use xlink:href="#DejaVuSans-Oblique-78" transform="translate(0 0.09375)"/>
      <use xlink:href="#DejaVuSans-3d" transform="translate(78.662109 0.09375)"/>
      <use xlink:href="#DejaVuSans-31" transform="translate(181.933594 0.09375)"/>
     </g>
    </g>
    <g id="line2d_48">
     <path d="M 42.951563 167.664062 
L 52.951563 167.664062 
L 62.951563 167.664062 
" style="fill: none; stroke: #cce8ff; stroke-width: 2; stroke-linecap: square"/>
    </g>
    <g id="text_26">
     <!-- $x=0$ -->
     <g transform="translate(70.951562 171.164062) scale(0.1 -0.1)">
      <use xlink:href="#DejaVuSans-Oblique-78" transform="translate(0 0.78125)"/>
      <use xlink:href="#DejaVuSans-3d" transform="translate(78.662109 0.78125)"/>
      <use xlink:href="#DejaVuSans-30" transform="translate(181.933594 0.78125)"/>
     </g>
    </g>
   </g>
  </g>
 </g>
 <defs>
  <clipPath id="p1833105adc">
   <rect x="33.951563" y="7.2" width="412.09" height="292.12"/>
  </clipPath>
 </defs>
</svg>