<?xml version="1.0" encoding="utf-8" standalone="no"?>
<!DOCTYPE svg PUBLIC "-//W3C//DTD SVG 1.1//EN"
  "http://www.w3.org/Graphics/SVG/1.1/DTD/svg11.dtd">
<svg xmlns:xlink="http://www.w3.org/1999/xlink" width="279.711875pt" height="208.1025pt" viewBox="0 0 279.711875 208.1025" xmlns="http://www.w3.org/2000/svg" version="1.1">
 <metadata>
  <rdf:RDF xmlns:dc="http://purl.org/dc/elements/1.1/" xmlns:cc="http://creativecommons.org/ns#" xmlns:rdf="http://www.w3.org/1999/02/22-rdf-syntax-ns#">
   <cc:Work>
    <dc:type rdf:resource="http://purl.org/dc/dcmitype/StillImage"/>
    <dc:date>2024-03-21T08:21:14.689851</dc:date>
    <dc:format>image/svg+xml</dc:format>
    <dc:creator>
     <cc:Agent>
      <dc:title>Matplotlib v3.8.3, https://matplotlib.org/</dc:title>
     </cc:Agent>
    </dc:creator>
   </cc:Work>
  </rdf:RDF>
 </metadata>
 <defs>
  <style type="text/css">*{stroke-linejoin: round; stroke-linecap: butt}</style>
 </defs>
 <g id="figure_1">
  <g id="patch_1">
   <path d="M 0 208.1025 
L 279.711875 208.1025 
L 279.711875 0 
L 0 0 
z
" style="fill: #ffffff"/>
  </g>
  <g id="axes_1">
   <g id="patch_2">
    <path d="M 39.971875 170.44 
L 272.511875 170.44 
L 272.511875 7.2 
L 39.971875 7.2 
z
" style="fill: #ffffff"/>
   </g>
   <g id="PathCollection_1">
    <defs>
     <path id="mdb8c24b727" d="M 0 2 
C 0.530406 2 1.03916 1.789267 1.414214 1.414214 
C 1.789267 1.03916 2 0.530406 2 0 
C 2 -0.530406 1.789267 -1.03916 1.414214 -1.414214 
C 1.03916 -1.789267 0.530406 -2 0 -2 
C -0.530406 -2 -1.03916 -1.789267 -1.414214 -1.414214 
C -1.789267 -1.03916 -2 -0.530406 -2 0 
C -2 0.530406 -1.789267 1.03916 -1.414214 1.414214 
C -1.03916 1.789267 -0.530406 2 0 2 
z
" style="stroke: #486afb; stroke-width: 0.2"/>
    </defs>
    <g clip-path="url(#pc2b64655bf)">
     <use xlink:href="#mdb8c24b727" x="157.218934" y="88.134118" style="fill: #486afb; stroke: #486afb; stroke-width: 0.2"/>
    </g>
   </g>
   <g id="matplotlib.axis_1">
    <g id="xtick_1">
     <g id="line2d_1">
      <path d="M 59.513051 170.44 
L 59.513051 7.2 
" clip-path="url(#pc2b64655bf)" style="fill: none; stroke-dasharray: 2.22,0.96; stroke-dashoffset: 0; stroke: #6c6066; stroke-opacity: 0.4; stroke-width: 0.6"/>
     </g>
     <g id="line2d_2">
      <defs>
       <path id="mf9be2667ea" d="M 0 0 
L 0 3.5 
" style="stroke: #000000; stroke-width: 0.8"/>
      </defs>
      <g>
       <use xlink:href="#mf9be2667ea" x="59.513051" y="170.44" style="stroke: #000000; stroke-width: 0.8"/>
      </g>
     </g>
     <g id="text_1">
      <!-- −4 -->
      <g transform="translate(53.492739 185.091562) scale(0.1 -0.1)">
       <defs>
        <path id="DejaVuSansMono-2212" d="M 275 2272 
L 3578 2272 
L 3578 1741 
L 275 1741 
L 275 2272 
z
" transform="scale(0.015625)"/>
        <path id="DejaVuSansMono-34" d="M 2297 4091 
L 825 1625 
L 2297 1625 
L 2297 4091 
z
M 2194 4666 
L 2925 4666 
L 2925 1625 
L 3547 1625 
L 3547 1113 
L 2925 1113 
L 2925 0 
L 2297 0 
L 2297 1113 
L 319 1113 
L 319 1709 
L 2194 4666 
z
" transform="scale(0.015625)"/>
       </defs>
       <use xlink:href="#DejaVuSansMono-2212"/>
       <use xlink:href="#DejaVuSansMono-34" x="60.205078"/>
      </g>
     </g>
    </g>
    <g id="xtick_2">
     <g id="line2d_3">
      <path d="M 98.595404 170.44 
L 98.595404 7.2 
" clip-path="url(#pc2b64655bf)" style="fill: none; stroke-dasharray: 2.22,0.96; stroke-dashoffset: 0; stroke: #6c6066; stroke-opacity: 0.4; stroke-width: 0.6"/>
     </g>
     <g id="line2d_4">
      <g>
       <use xlink:href="#mf9be2667ea" x="98.595404" y="170.44" style="stroke: #000000; stroke-width: 0.8"/>
      </g>
     </g>
     <g id="text_2">
      <!-- −2 -->
      <g transform="translate(92.575092 185.091562) scale(0.1 -0.1)">
       <defs>
        <path id="DejaVuSansMono-32" d="M 1166 531 
L 3309 531 
L 3309 0 
L 475 0 
L 475 531 
Q 1059 1147 1496 1619 
Q 1934 2091 2100 2284 
Q 2413 2666 2522 2902 
Q 2631 3138 2631 3384 
Q 2631 3775 2401 3997 
Q 2172 4219 1772 4219 
Q 1488 4219 1175 4116 
Q 863 4013 513 3803 
L 513 4441 
Q 834 4594 1145 4672 
Q 1456 4750 1759 4750 
Q 2444 4750 2861 4386 
Q 3278 4022 3278 3431 
Q 3278 3131 3139 2831 
Q 3000 2531 2688 2169 
Q 2513 1966 2180 1606 
Q 1847 1247 1166 531 
z
" transform="scale(0.015625)"/>
       </defs>
       <use xlink:href="#DejaVuSansMono-2212"/>
       <use xlink:href="#DejaVuSansMono-32" x="60.205078"/>
      </g>
     </g>
    </g>
    <g id="xtick_3">
     <g id="line2d_5">
      <path d="M 137.677757 170.44 
L 137.677757 7.2 
" clip-path="url(#pc2b64655bf)" style="fill: none; stroke-dasharray: 2.22,0.96; stroke-dashoffset: 0; stroke: #6c6066; stroke-opacity: 0.4; stroke-width: 0.6"/>
     </g>
     <g id="line2d_6">
      <g>
       <use xlink:href="#mf9be2667ea" x="137.677757" y="170.44" style="stroke: #000000; stroke-width: 0.8"/>
      </g>
     </g>
     <g id="text_3">
      <!-- 0 -->
      <g transform="translate(134.667601 185.091562) scale(0.1 -0.1)">
       <defs>
        <path id="DejaVuSansMono-30" d="M 1509 2344 
Q 1509 2516 1629 2641 
Q 1750 2766 1919 2766 
Q 2094 2766 2219 2641 
Q 2344 2516 2344 2344 
Q 2344 2169 2220 2047 
Q 2097 1925 1919 1925 
Q 1744 1925 1626 2044 
Q 1509 2163 1509 2344 
z
M 1925 4250 
Q 1484 4250 1267 3775 
Q 1050 3300 1050 2328 
Q 1050 1359 1267 884 
Q 1484 409 1925 409 
Q 2369 409 2586 884 
Q 2803 1359 2803 2328 
Q 2803 3300 2586 3775 
Q 2369 4250 1925 4250 
z
M 1925 4750 
Q 2672 4750 3055 4137 
Q 3438 3525 3438 2328 
Q 3438 1134 3055 521 
Q 2672 -91 1925 -91 
Q 1178 -91 797 521 
Q 416 1134 416 2328 
Q 416 3525 797 4137 
Q 1178 4750 1925 4750 
z
" transform="scale(0.015625)"/>
       </defs>
       <use xlink:href="#DejaVuSansMono-30"/>
      </g>
     </g>
    </g>
    <g id="xtick_4">
     <g id="line2d_7">
      <path d="M 176.76011 170.44 
L 176.76011 7.2 
" clip-path="url(#pc2b64655bf)" style="fill: none; stroke-dasharray: 2.22,0.96; stroke-dashoffset: 0; stroke: #6c6066; stroke-opacity: 0.4; stroke-width: 0.6"/>
     </g>
     <g id="line2d_8">
      <g>
       <use xlink:href="#mf9be2667ea" x="176.76011" y="170.44" style="stroke: #000000; stroke-width: 0.8"/>
      </g>
     </g>
     <g id="text_4">
      <!-- 2 -->
      <g transform="translate(173.749954 185.091562) scale(0.1 -0.1)">
       <use xlink:href="#DejaVuSansMono-32"/>
      </g>
     </g>
    </g>
    <g id="xtick_5">
     <g id="line2d_9">
      <path d="M 215.842463 170.44 
L 215.842463 7.2 
" clip-path="url(#pc2b64655bf)" style="fill: none; stroke-dasharray: 2.22,0.96; stroke-dashoffset: 0; stroke: #6c6066; stroke-opacity: 0.4; stroke-width: 0.6"/>
     </g>
     <g id="line2d_10">
      <g>
       <use xlink:href="#mf9be2667ea" x="215.842463" y="170.44" style="stroke: #000000; stroke-width: 0.8"/>
      </g>
     </g>
     <g id="text_5">
      <!-- 4 -->
      <g transform="translate(212.832307 185.091562) scale(0.1 -0.1)">
       <use xlink:href="#DejaVuSansMono-34"/>
      </g>
     </g>
    </g>
    <g id="xtick_6">
     <g id="line2d_11">
      <path d="M 254.924816 170.44 
L 254.924816 7.2 
" clip-path="url(#pc2b64655bf)" style="fill: none; stroke-dasharray: 2.22,0.96; stroke-dashoffset: 0; stroke: #6c6066; stroke-opacity: 0.4; stroke-width: 0.6"/>
     </g>
     <g id="line2d_12">
      <g>
       <use xlink:href="#mf9be2667ea" x="254.924816" y="170.44" style="stroke: #000000; stroke-width: 0.8"/>
      </g>
     </g>
     <g id="text_6">
      <!-- 6 -->
      <g transform="translate(251.91466 185.091562) scale(0.1 -0.1)">
       <defs>
        <path id="DejaVuSansMono-36" d="M 3097 4563 
L 3097 3981 
Q 2900 4097 2678 4158 
Q 2456 4219 2216 4219 
Q 1616 4219 1306 3767 
Q 997 3316 997 2438 
Q 1147 2750 1412 2917 
Q 1678 3084 2022 3084 
Q 2697 3084 3067 2670 
Q 3438 2256 3438 1497 
Q 3438 741 3056 325 
Q 2675 -91 1984 -91 
Q 1172 -91 794 492 
Q 416 1075 416 2328 
Q 416 3509 870 4129 
Q 1325 4750 2188 4750 
Q 2419 4750 2650 4701 
Q 2881 4653 3097 4563 
z
M 1972 2591 
Q 1569 2591 1337 2300 
Q 1106 2009 1106 1497 
Q 1106 984 1337 693 
Q 1569 403 1972 403 
Q 2391 403 2603 679 
Q 2816 956 2816 1497 
Q 2816 2041 2603 2316 
Q 2391 2591 1972 2591 
z
" transform="scale(0.015625)"/>
       </defs>
       <use xlink:href="#DejaVuSansMono-36"/>
      </g>
     </g>
    </g>
    <g id="text_7">
     <!-- $x$ -->
     <g transform="translate(153.241875 198.822812) scale(0.1 -0.1)">
      <defs>
       <path id="DejaVuSans-Oblique-78" d="M 3841 3500 
L 2234 1784 
L 3219 0 
L 2559 0 
L 1819 1388 
L 531 0 
L -166 0 
L 1556 1844 
L 641 3500 
L 1300 3500 
L 1972 2234 
L 3144 3500 
L 3841 3500 
z
" transform="scale(0.015625)"/>
      </defs>
      <use xlink:href="#DejaVuSans-Oblique-78" transform="translate(0 0.3125)"/>
     </g>
    </g>
   </g>
   <g id="matplotlib.axis_2">
    <g id="ytick_1">
     <g id="line2d_13">
      <path d="M 39.971875 156.722353 
L 272.511875 156.722353 
" clip-path="url(#pc2b64655bf)" style="fill: none; stroke-dasharray: 2.22,0.96; stroke-dashoffset: 0; stroke: #6c6066; stroke-opacity: 0.4; stroke-width: 0.6"/>
     </g>
     <g id="line2d_14">
      <defs>
       <path id="m888f29002d" d="M 0 0 
L -3.5 0 
" style="stroke: #000000; stroke-width: 0.8"/>
      </defs>
      <g>
       <use xlink:href="#m888f29002d" x="39.971875" y="156.722353" style="stroke: #000000; stroke-width: 0.8"/>
      </g>
     </g>
     <g id="text_8">
      <!-- −4 -->
      <g transform="translate(20.93125 160.548134) scale(0.1 -0.1)">
       <use xlink:href="#DejaVuSansMono-2212"/>
       <use xlink:href="#DejaVuSansMono-34" x="60.205078"/>
      </g>
     </g>
    </g>
    <g id="ytick_2">
     <g id="line2d_15">
      <path d="M 39.971875 129.287059 
L 272.511875 129.287059 
" clip-path="url(#pc2b64655bf)" style="fill: none; stroke-dasharray: 2.22,0.96; stroke-dashoffset: 0; stroke: #6c6066; stroke-opacity: 0.4; stroke-width: 0.6"/>
     </g>
     <g id="line2d_16">
      <g>
       <use xlink:href="#m888f29002d" x="39.971875" y="129.287059" style="stroke: #000000; stroke-width: 0.8"/>
      </g>
     </g>
     <g id="text_9">
      <!-- −2 -->
      <g transform="translate(20.93125 133.11284) scale(0.1 -0.1)">
       <use xlink:href="#DejaVuSansMono-2212"/>
       <use xlink:href="#DejaVuSansMono-32" x="60.205078"/>
      </g>
     </g>
    </g>
    <g id="ytick_3">
     <g id="line2d_17">
      <path d="M 39.971875 101.851765 
L 272.511875 101.851765 
" clip-path="url(#pc2b64655bf)" style="fill: none; stroke-dasharray: 2.22,0.96; stroke-dashoffset: 0; stroke: #6c6066; stroke-opacity: 0.4; stroke-width: 0.6"/>
     </g>
     <g id="line2d_18">
      <g>
       <use xlink:href="#m888f29002d" x="39.971875" y="101.851765" style="stroke: #000000; stroke-width: 0.8"/>
      </g>
     </g>
     <g id="text_10">
      <!-- 0 -->
      <g transform="translate(26.951562 105.677546) scale(0.1 -0.1)">
       <use xlink:href="#DejaVuSansMono-30"/>
      </g>
     </g>
    </g>
    <g id="ytick_4">
     <g id="line2d_19">
      <path d="M 39.971875 74.416471 
L 272.511875 74.416471 
" clip-path="url(#pc2b64655bf)" style="fill: none; stroke-dasharray: 2.22,0.96; stroke-dashoffset: 0; stroke: #6c6066; stroke-opacity: 0.4; stroke-width: 0.6"/>
     </g>
     <g id="line2d_20">
      <g>
       <use xlink:href="#m888f29002d" x="39.971875" y="74.416471" style="stroke: #000000; stroke-width: 0.8"/>
      </g>
     </g>
     <g id="text_11">
      <!-- 2 -->
      <g transform="translate(26.951562 78.242252) scale(0.1 -0.1)">
       <use xlink:href="#DejaVuSansMono-32"/>
      </g>
     </g>
    </g>
    <g id="ytick_5">
     <g id="line2d_21">
      <path d="M 39.971875 46.981176 
L 272.511875 46.981176 
" clip-path="url(#pc2b64655bf)" style="fill: none; stroke-dasharray: 2.22,0.96; stroke-dashoffset: 0; stroke: #6c6066; stroke-opacity: 0.4; stroke-width: 0.6"/>
     </g>
     <g id="line2d_22">
      <g>
       <use xlink:href="#m888f29002d" x="39.971875" y="46.981176" style="stroke: #000000; stroke-width: 0.8"/>
      </g>
     </g>
     <g id="text_12">
      <!-- 4 -->
      <g transform="translate(26.951562 50.806958) scale(0.1 -0.1)">
       <use xlink:href="#DejaVuSansMono-34"/>
      </g>
     </g>
    </g>
    <g id="ytick_6">
     <g id="line2d_23">
      <path d="M 39.971875 19.545882 
L 272.511875 19.545882 
" clip-path="url(#pc2b64655bf)" style="fill: none; stroke-dasharray: 2.22,0.96; stroke-dashoffset: 0; stroke: #6c6066; stroke-opacity: 0.4; stroke-width: 0.6"/>
     </g>
     <g id="line2d_24">
      <g>
       <use xlink:href="#m888f29002d" x="39.971875" y="19.545882" style="stroke: #000000; stroke-width: 0.8"/>
      </g>
     </g>
     <g id="text_13">
      <!-- 6 -->
      <g transform="translate(26.951562 23.371664) scale(0.1 -0.1)">
       <use xlink:href="#DejaVuSansMono-36"/>
      </g>
     </g>
    </g>
    <g id="text_14">
     <!-- $y$ -->
     <g transform="translate(14.83125 91.82) rotate(-90) scale(0.1 -0.1)">
      <defs>
       <path id="DejaVuSans-Oblique-79" d="M 1588 -325 
Q 1188 -997 936 -1164 
Q 684 -1331 294 -1331 
L -159 -1331 
L -63 -850 
L 269 -850 
Q 509 -850 678 -719 
Q 847 -588 1056 -206 
L 1234 128 
L 459 3500 
L 1069 3500 
L 1650 819 
L 3256 3500 
L 3859 3500 
L 1588 -325 
z
" transform="scale(0.015625)"/>
      </defs>
      <use xlink:href="#DejaVuSans-Oblique-79" transform="translate(0 0.3125)"/>
     </g>
    </g>
   </g>
   <g id="QuadContourSet_1">
    <path d="M 157.218934 88.134118 
L 157.218934 88.134118 
L 157.218934 88.134118 
L 157.218934 88.134118 
L 157.218934 88.134118 
z
" clip-path="url(#pc2b64655bf)" style="fill: none; stroke: #486afb; stroke-width: 2"/>
    <path d="M 110.201679 132.030588 
L 110.776071 134.774118 
L 111.533011 137.517647 
L 112.499703 140.261176 
L 113.759357 143.004706 
L 114.510607 144.376471 
L 116.357833 147.12 
L 118.136581 149.163649 
L 120.090699 150.924706 
L 122.044816 152.2942 
L 123.998934 153.349161 
L 125.953051 154.147656 
L 127.907169 154.715891 
L 129.861287 155.09214 
L 131.815404 155.292626 
L 133.769522 155.331797 
L 135.72364 155.222557 
L 137.677757 154.976471 
L 139.631875 154.603931 
L 142.020241 153.978824 
L 145.494228 152.788859 
L 149.402463 151.036967 
L 153.310699 148.879087 
L 157.218934 146.329218 
L 161.127169 143.392028 
L 165.035404 140.062849 
L 169.119831 136.145882 
L 172.970306 132.030588 
L 176.76011 127.541176 
L 180.668346 122.409444 
L 184.576581 116.682728 
L 187.77985 111.454118 
L 190.438934 106.709161 
L 191.92041 103.841483 
M 195.104908 97.080278 
L 197.117418 92.249412 
L 199.140505 86.762353 
L 200.887716 81.275294 
L 202.359051 75.788235 
L 203.526697 70.301176 
L 204.21308 66.185882 
L 204.699046 62.070588 
L 204.991968 57.955294 
L 205.068047 53.84 
L 204.899404 49.724706 
L 204.453166 45.609412 
L 203.973601 42.865882 
L 203.306302 40.122353 
L 202.16364 36.574686 
L 201.339845 34.635294 
L 199.927261 31.891765 
L 198.080035 29.148235 
L 196.301287 27.104586 
L 194.347169 25.343529 
L 192.393051 23.974035 
L 190.438934 22.919074 
L 188.484816 22.120579 
L 186.530699 21.552344 
L 184.576581 21.176095 
L 182.622463 20.975609 
L 180.668346 20.936438 
L 178.714228 21.045678 
L 176.76011 21.291765 
L 174.805993 21.664304 
L 172.417627 22.289412 
L 168.94364 23.479376 
L 165.035404 25.231269 
L 161.127169 27.389149 
L 157.218934 29.939017 
L 153.310699 32.876208 
L 149.402463 36.205386 
L 145.318037 40.122353 
L 141.467561 44.237647 
L 137.677757 48.727059 
L 133.769522 53.858791 
L 129.861287 59.585507 
L 126.658018 64.814118 
L 123.998934 69.559074 
L 121.533023 74.416471 
L 119.020586 79.903529 
L 117.320449 84.018824 
L 115.297363 89.505882 
L 113.550152 94.992941 
L 112.078816 100.48 
L 110.911171 105.967059 
L 110.224787 110.082353 
L 109.738822 114.197647 
L 109.4459 118.312941 
L 109.36982 122.428235 
L 109.538463 126.543529 
L 109.984702 130.658824 
L 110.201679 132.030588 
L 110.201679 132.030588 
" clip-path="url(#pc2b64655bf)" style="fill: none; stroke: #486afb; stroke-width: 2"/>
    <path d="M 155.312868 7.2 
L 153.310699 8.710094 
L 148.452173 12.687059 
L 145.358182 15.430588 
L 141.0742 19.545882 
L 137.11787 23.661176 
L 133.436906 27.776471 
L 129.861287 32.05537 
L 125.734873 37.378824 
L 121.798269 42.865882 
L 118.136581 48.367083 
L 115.842764 52.048614 
M 110.607249 61.179691 
L 108.001666 66.185882 
L 104.716636 73.044706 
L 102.317918 78.531765 
L 99.605032 85.390588 
L 97.650914 90.877647 
L 95.892208 96.364706 
L 94.328914 101.851765 
L 92.659156 108.710588 
L 91.569077 114.197647 
L 90.685476 119.684706 
L 90.04834 125.171765 
L 89.655773 130.658824 
L 89.536267 136.145882 
L 89.645546 140.261176 
L 89.942894 144.376471 
L 90.446318 148.491765 
L 91.194465 152.607059 
L 92.221259 156.722353 
L 93.083791 159.465882 
L 94.687169 163.550693 
L 96.060716 166.324706 
L 97.680381 169.068235 
L 98.595404 170.44 
M 157.218934 170.44 
L 161.127169 167.558141 
L 165.985695 163.581176 
L 169.079686 160.837647 
L 173.363668 156.722353 
L 177.319998 152.607059 
L 181.000961 148.491765 
L 184.576581 144.212866 
L 188.702994 138.889412 
L 192.639599 133.402353 
L 196.301287 127.901152 
L 200.483784 121.056471 
L 204.309829 114.197647 
L 207.790151 107.338824 
L 210.338365 101.851765 
L 211.812408 98.465096 
M 215.62543 88.72855 
L 217.246472 84.018824 
L 218.954272 78.531765 
L 220.465019 73.044706 
L 221.778711 67.557647 
L 222.868791 62.070588 
L 223.752392 56.583529 
L 224.389527 51.096471 
L 224.782095 45.609412 
L 224.901601 40.122353 
L 224.792322 36.007059 
L 224.494974 31.891765 
L 223.99155 27.776471 
L 223.243403 23.661176 
L 222.216609 19.545882 
L 221.354077 16.802353 
L 219.750699 12.717542 
L 218.377152 9.943529 
L 216.757487 7.2 
L 216.757487 7.2 
" clip-path="url(#pc2b64655bf)" style="fill: none; stroke: #486afb; stroke-width: 2"/>
    <path d="M 134.448811 7.2 
L 130.642934 11.315294 
L 127.049057 15.430588 
L 123.640679 19.545882 
L 119.365784 25.032941 
L 115.35807 30.52 
L 111.593248 36.007059 
L 108.049885 41.494118 
L 103.916509 48.352941 
L 100.081635 55.211765 
L 99.641415 56.037958 
M 94.900011 65.405942 
L 92.620058 70.301176 
L 89.654647 77.16 
L 86.870699 84.17916 
L 84.467662 90.877647 
L 82.251271 97.736471 
L 80.28559 104.595294 
L 78.575806 111.454118 
L 77.10011 118.46124 
L 75.968409 125.171765 
L 75.145993 131.508011 
L 74.718982 136.145882 
L 74.407605 141.632941 
L 74.322801 147.12 
L 74.486677 152.607059 
L 74.924307 158.094118 
L 75.460047 162.209412 
L 76.194762 166.324706 
L 77.138426 170.44 
M 178.675912 170.44 
L 181.283531 167.696471 
L 185.017554 163.581176 
L 189.678999 158.094118 
L 192.969676 153.978824 
L 197.107748 148.491765 
L 200.991169 143.004706 
L 204.642744 137.517647 
L 206.151088 135.154224 
M 211.558409 126.111989 
L 214.356233 121.056471 
L 217.911133 114.197647 
L 221.704816 106.217812 
L 224.210606 100.48 
L 226.978257 93.621176 
L 229.501072 86.762353 
L 231.475404 80.832109 
L 233.429522 74.320206 
L 235.38364 66.857767 
L 236.759779 60.698824 
L 237.805645 55.211765 
L 238.856834 48.352941 
L 239.484434 42.865882 
L 239.901618 37.378824 
L 240.102304 31.891765 
L 240.065706 26.404706 
L 239.768292 20.917647 
L 239.291875 16.279776 
L 238.754933 12.687059 
L 237.952943 8.571765 
L 237.639093 7.2 
L 237.639093 7.2 
" clip-path="url(#pc2b64655bf)" style="fill: none; stroke: #486afb; stroke-width: 2"/>
    <path d="M 119.855349 7.2 
L 115.482584 12.687059 
L 111.351076 18.174118 
L 107.441393 23.661176 
L 103.736139 29.148235 
L 99.372041 36.007059 
L 96.079478 41.494118 
L 93.997042 45.121082 
M 88.998764 54.37004 
L 86.502107 59.327059 
L 82.62136 67.557647 
L 79.054228 75.802377 
L 75.822418 84.018824 
L 73.191875 91.351837 
L 70.686006 99.108235 
L 68.699717 105.967059 
L 66.934046 112.825882 
L 65.375404 119.772265 
L 64.096784 126.543529 
L 63.038959 133.402353 
L 62.243806 140.261176 
L 61.801426 145.748235 
L 61.54639 151.235294 
L 61.49431 156.722353 
L 61.662581 162.209412 
L 62.070647 167.696471 
L 62.371313 170.44 
M 193.443025 170.44 
L 197.887237 164.952941 
L 202.081071 159.465882 
L 206.071875 153.940982 
L 210.701729 147.12 
L 215.065827 140.261176 
L 218.35839 134.774118 
L 222.238302 127.915294 
L 226.269924 120.270438 
M 230.846361 110.829716 
L 233.636429 104.595294 
L 237.035334 96.364706 
L 239.628989 89.505882 
L 242.454308 81.275294 
L 244.572645 74.416471 
L 246.470625 67.557647 
L 248.144263 60.698824 
L 249.589483 53.84 
L 250.796743 46.981176 
L 251.57839 41.494118 
L 252.321427 34.635294 
L 252.718346 29.148235 
L 252.924172 23.661176 
L 252.92287 18.174118 
L 252.69656 12.687059 
L 252.225239 7.2 
L 252.225239 7.2 
" clip-path="url(#pc2b64655bf)" style="fill: none; stroke: #486afb; stroke-width: 2"/>
    <path d="M 107.947253 7.2 
L 102.956423 14.058824 
L 98.595404 20.408627 
L 93.833646 27.776471 
L 90.724496 32.839272 
M 85.461644 41.957193 
L 82.006761 48.352941 
L 78.507915 55.211765 
L 74.584704 63.442353 
L 70.949782 71.672941 
L 67.599772 79.903529 
L 65.022436 86.762353 
L 62.185747 94.992941 
L 60.032764 101.851765 
L 58.0762 108.710588 
L 56.319225 115.569412 
L 54.765074 122.428235 
L 53.417054 129.287059 
L 52.29155 136.145882 
L 51.389192 143.004706 
L 50.730818 149.863529 
L 50.324046 156.722353 
L 50.195247 162.209412 
L 50.255419 167.696471 
L 50.360855 170.44 
M 205.453483 170.44 
L 209.98011 164.321098 
L 215.260881 156.722353 
L 218.864529 151.235294 
L 223.139697 144.376471 
L 227.171954 137.517647 
L 229.948504 132.547919 
M 234.835744 123.246317 
L 237.928173 116.941176 
L 241.706089 108.710588 
L 245.200267 100.48 
L 248.405921 92.249412 
L 251.016581 84.968507 
L 253.567219 77.16 
L 255.985029 68.929412 
L 257.782844 62.070588 
L 259.379364 55.211765 
L 260.787169 48.265382 
L 261.937927 41.494118 
L 262.888664 34.635294 
L 263.594809 27.776471 
L 264.053668 20.917647 
L 264.2276 15.430588 
L 264.215978 9.943529 
L 264.136207 7.2 
L 264.136207 7.2 
" clip-path="url(#pc2b64655bf)" style="fill: none; stroke: #486afb; stroke-width: 2"/>
    <path d="M 97.629142 7.2 
L 92.733051 14.344277 
L 88.699811 20.555929 
M 83.19635 29.546985 
L 79.472967 36.007059 
L 75.720444 42.865882 
L 72.166447 49.724706 
L 68.80226 56.583529 
L 65.011957 64.814118 
L 61.467169 73.079288 
L 58.215026 81.275294 
L 55.604816 88.347207 
L 52.880325 96.364706 
L 50.330596 104.595294 
L 48.403178 111.454118 
L 46.658023 118.312941 
L 45.097824 125.171765 
L 43.476648 133.402353 
L 42.344732 140.261176 
L 41.419926 147.12 
L 40.712383 153.978824 
L 40.230664 160.837647 
L 39.993587 167.696471 
L 39.971875 170.44 
M 215.842463 170.44 
L 221.513652 162.209412 
L 225.613051 155.910658 
L 230.18609 148.491765 
L 234.188355 141.632941 
L 237.982616 134.774118 
L 239.872011 131.214906 
M 244.598547 121.839812 
L 247.563674 115.569412 
L 251.223266 107.338824 
L 254.924816 98.344818 
L 257.762045 90.877647 
L 260.654365 82.647059 
L 262.86751 75.788235 
L 265.285416 67.557647 
L 267.445468 59.327059 
L 269.340044 51.096471 
L 270.961219 42.865882 
L 272.093136 36.007059 
L 272.511875 33.115231 
L 272.511875 33.115231 
" clip-path="url(#pc2b64655bf)" style="fill: none; stroke: #486afb; stroke-width: 2"/>
    <path d="M 88.392188 7.2 
L 82.962463 15.529113 
L 77.974321 23.661176 
L 73.984583 30.52 
L 70.187987 37.378824 
L 66.576559 44.237647 
L 62.479757 52.468235 
L 58.632818 60.698824 
L 55.029049 68.929412 
L 51.661995 77.16 
L 48.038087 86.762353 
L 47.549326 88.125459 
M 44.19851 98.012584 
L 41.747951 105.967059 
L 39.971875 112.2449 
M 225.119587 170.44 
L 229.659505 163.581176 
L 233.733929 157.114698 
M 239.129526 148.065745 
L 243.20011 140.82651 
L 247.861308 132.030588 
L 251.95811 123.8 
L 255.805049 115.569412 
L 259.408818 107.338824 
L 262.775873 99.108235 
L 266.399781 89.505882 
L 268.793864 82.647059 
L 271.447579 74.416471 
L 272.511875 70.905933 
L 272.511875 70.905933 
" clip-path="url(#pc2b64655bf)" style="fill: none; stroke: #486afb; stroke-width: 2"/>
    <path d="M 79.959246 7.2 
L 79.29465 8.227899 
M 73.719891 17.179974 
L 69.28364 24.703118 
L 64.508796 33.263529 
L 60.170039 41.494118 
L 56.072468 49.724706 
L 52.209951 57.955294 
L 48.576561 66.185882 
L 45.166571 74.416471 
L 41.925993 82.778748 
L 39.971875 88.134118 
M 233.590871 170.44 
L 239.291875 161.433754 
L 244.550623 152.607059 
L 249.062463 144.601223 
L 249.648061 143.522862 
M 254.548276 134.227123 
L 258.365399 126.543529 
L 262.227917 118.312941 
L 265.861307 110.082353 
L 269.271297 101.851765 
L 272.511875 93.489487 
L 272.511875 93.489487 
" clip-path="url(#pc2b64655bf)" style="fill: none; stroke: #486afb; stroke-width: 2"/>
    <path d="M 72.147722 7.2 
L 71.288295 8.571765 
L 71.237757 8.652854 
L 70.443637 9.943529 
L 69.600975 11.315294 
L 69.28364 11.833971 
L 68.768313 12.687059 
L 67.942254 14.058824 
L 67.329522 15.07903 
L 67.121028 15.430588 
L 66.31141 16.802353 
L 65.503205 18.174118 
L 65.375404 18.392193 
L 64.707748 19.545882 
L 63.915948 20.917647 
L 63.421287 21.777665 
L 63.130592 22.289412 
L 62.355036 23.661176 
L 61.581159 25.032941 
L 61.467169 25.236166 
L 60.819817 26.404706 
L 60.062142 27.776471 
L 59.513051 28.774118 
L 59.309664 29.148235 
L 58.568027 30.52 
L 57.828329 31.891765 
L 57.558934 32.393995 
L 57.098207 33.263529 
L 56.662049 34.090254 
M 51.874086 43.437795 
L 51.696581 43.793608 
L 51.47772 44.237647 
L 50.805849 45.609412 
L 50.136439 46.981176 
L 49.742463 47.792872 
L 49.473869 48.352941 
L 48.82012 49.724706 
L 48.168967 51.096471 
L 47.788346 51.902902 
L 47.524695 52.468235 
L 46.88914 53.84 
L 46.256317 55.211765 
L 45.834228 56.131955 
L 45.629548 56.583529 
L 45.012258 57.955294 
L 44.397835 59.327059 
L 43.88011 60.489127 
L 43.78779 60.698824 
L 43.188832 62.070588 
L 42.592874 63.442353 
L 41.999953 64.814118 
L 41.925993 64.986724 
L 41.41823 66.185882 
L 40.840801 67.557647 
L 40.266544 68.929412 
L 39.971875 69.638623 
M 241.429713 170.44 
L 242.290146 169.068235 
L 243.149573 167.696471 
L 243.20011 167.615381 
L 243.99423 166.324706 
L 244.836893 164.952941 
L 245.154228 164.434264 
L 245.669554 163.581176 
L 246.495614 162.209412 
L 247.108346 161.189205 
L 247.316839 160.837647 
L 248.126457 159.465882 
L 248.934662 158.094118 
L 249.062463 157.876042 
L 249.73012 156.722353 
L 250.521919 155.350588 
L 251.016581 154.49057 
L 251.307276 153.978824 
L 252.082832 152.607059 
L 252.856708 151.235294 
L 252.970699 151.03207 
L 253.61805 149.863529 
L 254.375725 148.491765 
L 254.924816 147.494118 
L 255.128204 147.12 
L 255.86984 145.748235 
L 256.609539 144.376471 
L 256.878934 143.87424 
L 257.339661 143.004706 
L 258.063368 141.632941 
L 258.784999 140.261176 
L 258.833051 140.169215 
L 259.493654 138.889412 
L 260.199345 137.517647 
L 260.787169 136.370635 
L 260.900963 136.145882 
L 261.590879 134.774118 
L 262.278469 133.402353 
L 262.741287 132.474628 
L 262.960148 132.030588 
L 263.632019 130.658824 
L 264.001642 129.901387 
M 268.475075 120.416563 
L 268.60364 120.136281 
L 268.80832 119.684706 
L 269.42561 118.312941 
L 270.040033 116.941176 
L 270.557757 115.779108 
L 270.650078 115.569412 
L 271.249036 114.197647 
L 271.844994 112.825882 
L 272.437914 111.454118 
L 272.511875 111.281511 
" clip-path="url(#pc2b64655bf)" style="fill: none; stroke: #486afb; stroke-width: 2"/>
    <path d="M 64.837826 7.2 
L 64.00437 8.571765 
L 63.421287 9.53395 
L 63.176049 9.943529 
L 62.358247 11.315294 
L 61.541724 12.687059 
L 61.467169 12.81297 
L 60.738252 14.058824 
L 59.937352 15.430588 
L 59.513051 16.159966 
L 59.143769 16.802353 
L 58.358346 18.174118 
L 57.574443 19.545882 
L 57.558934 19.573181 
L 56.804108 20.917647 
L 56.309861 21.799916 
M 51.288847 31.038317 
L 50.84024 31.891765 
L 50.121168 33.263529 
L 49.742463 33.989331 
L 49.40929 34.635294 
L 48.705278 36.007059 
L 48.003374 37.378824 
L 47.788346 37.801475 
L 47.311004 38.750588 
L 46.624111 40.122353 
L 45.93945 41.494118 
L 45.834228 41.706324 
L 45.265825 42.865882 
L 44.596123 44.237647 
L 43.928776 45.609412 
L 43.88011 45.710163 
L 43.27315 46.981176 
L 42.620707 48.352941 
L 41.970743 49.724706 
L 41.925993 49.819857 
L 41.332383 51.096471 
L 40.697267 52.468235 
L 40.064751 53.84 
L 39.971875 54.042924 
M 248.760608 170.44 
L 249.062463 169.950544 
L 249.358277 169.465036 
M 254.747714 160.412711 
L 254.924816 160.10827 
L 255.294098 159.465882 
L 256.079522 158.094118 
L 256.863425 156.722353 
L 256.878934 156.695054 
L 257.63376 155.350588 
L 258.402222 153.978824 
L 258.833051 153.206775 
L 259.163807 152.607059 
L 259.916976 151.235294 
L 260.668389 149.863529 
L 260.787169 149.645454 
L 261.408245 148.491765 
L 262.144406 147.12 
L 262.741287 146.004109 
L 262.876572 145.748235 
L 263.597628 144.376471 
L 264.316699 143.004706 
L 264.695404 142.278904 
L 265.028578 141.632941 
L 265.73259 140.261176 
L 266.434494 138.889412 
L 266.649522 138.46676 
L 267.126864 137.517647 
L 267.813757 136.145882 
L 268.498418 134.774118 
L 268.60364 134.561911 
L 269.172043 133.402353 
L 269.841745 132.030588 
L 270.509092 130.658824 
L 270.557757 130.558072 
L 271.164718 129.287059 
L 271.81716 127.915294 
L 272.467124 126.543529 
L 272.511875 126.448378 
" clip-path="url(#pc2b64655bf)" style="fill: none; stroke: #486afb; stroke-width: 2"/>
    <path d="M 57.944516 7.2 
L 57.558934 7.845168 
L 57.383289 8.14244 
M 52.115064 17.257894 
L 51.696581 17.998584 
L 51.598512 18.174118 
L 50.836186 19.545882 
L 50.075468 20.917647 
L 49.742463 21.520693 
L 49.32269 22.289412 
L 48.576531 23.661176 
L 47.832094 25.032941 
L 47.788346 25.114031 
L 47.099717 26.404706 
L 46.369801 27.776471 
L 45.834228 28.786526 
L 45.644543 29.148235 
L 44.929012 30.52 
L 44.215411 31.891765 
L 43.88011 32.539349 
L 43.509256 33.263529 
L 42.809998 34.635294 
L 42.112783 36.007059 
L 41.925993 36.376653 
L 41.425028 37.378824 
L 40.742111 38.750588 
L 40.061349 40.122353 
L 39.971875 40.303803 
M 255.670663 170.44 
L 256.493351 169.068235 
L 256.878934 168.423067 
L 257.308248 167.696471 
L 258.116046 166.324706 
L 258.833051 165.104657 
L 258.921207 164.952941 
L 259.714248 163.581176 
L 260.505895 162.209412 
L 260.787169 161.719956 
L 261.288506 160.837647 
L 262.065427 159.465882 
L 262.741287 158.269652 
L 262.839356 158.094118 
L 263.601682 156.722353 
L 264.085509 155.84989 
M 269.068184 146.593061 
L 269.508856 145.748235 
L 270.222457 144.376471 
L 270.557757 143.728886 
L 270.928612 143.004706 
L 271.627869 141.632941 
L 272.325084 140.261176 
L 272.511875 139.891582 
" clip-path="url(#pc2b64655bf)" style="fill: none; stroke: #486afb; stroke-width: 2"/>
    <path d="M 51.403816 7.2 
L 50.60624 8.571765 
L 49.809969 9.943529 
L 49.742463 10.060406 
L 49.025485 11.315294 
L 48.243366 12.687059 
L 47.788346 13.487772 
L 47.467312 14.058824 
L 46.699223 15.430588 
L 45.932637 16.802353 
L 45.834228 16.979355 
L 45.17706 18.174118 
L 44.424472 19.545882 
L 43.88011 20.541209 
L 43.676413 20.917647 
L 43.21936 21.766378 
M 262.227796 170.44 
L 262.741287 169.569806 
L 262.776334 169.509763 
M 267.999307 160.371206 
L 268.505231 159.465882 
L 268.60364 159.28888 
L 269.260807 158.094118 
L 270.013396 156.722353 
L 270.557757 155.727026 
L 270.761455 155.350588 
L 271.500169 153.978824 
L 272.237186 152.607059 
L 272.511875 152.09346 
" clip-path="url(#pc2b64655bf)" style="fill: none; stroke: #486afb; stroke-width: 2"/>
    <path d="M 45.168205 7.2 
L 44.648426 8.10715 
M 268.480653 170.44 
L 268.60364 170.228054 
L 269.269663 169.068235 
L 270.055658 167.696471 
L 270.557757 166.817591 
L 270.836437 166.324706 
L 271.608938 164.952941 
L 272.380023 163.581176 
L 272.511875 163.345499 
" clip-path="url(#pc2b64655bf)" style="fill: none; stroke: #486afb; stroke-width: 2"/>
    <path clip-path="url(#pc2b64655bf)" style="fill: none; stroke: #486afb; stroke-width: 2"/>
   </g>
   <g id="patch_3">
    <path d="M 39.971875 170.44 
L 39.971875 7.2 
" style="fill: none; stroke: #000000; stroke-width: 0.6; stroke-linejoin: miter; stroke-linecap: square"/>
   </g>
   <g id="patch_4">
    <path d="M 39.971875 170.44 
L 272.511875 170.44 
" style="fill: none; stroke: #000000; stroke-width: 0.6; stroke-linejoin: miter; stroke-linecap: square"/>
   </g>
   <g id="text_15">
    <g clip-path="url(#pc2b64655bf)">
     <!-- 6 -->
     <g style="fill: #486afb" transform="translate(194.61264 103.587265) rotate(-65.955543) scale(0.08 -0.08)">
      <use xlink:href="#DejaVuSansMono-36"/>
     </g>
    </g>
   </g>
   <g id="text_16">
    <g clip-path="url(#pc2b64655bf)">
     <!-- 12 -->
     <g style="fill: #486afb" transform="translate(112.837932 61.88039) rotate(-61.635897) scale(0.08 -0.08)">
      <defs>
       <path id="DejaVuSansMono-31" d="M 844 531 
L 1825 531 
L 1825 4097 
L 769 3859 
L 769 4434 
L 1819 4666 
L 2450 4666 
L 2450 531 
L 3419 531 
L 3419 0 
L 844 0 
L 844 531 
z
" transform="scale(0.015625)"/>
      </defs>
      <use xlink:href="#DejaVuSansMono-31"/>
      <use xlink:href="#DejaVuSansMono-32" x="60.205078"/>
     </g>
    </g>
   </g>
   <g id="text_17">
    <g clip-path="url(#pc2b64655bf)">
     <!-- 12 -->
     <g style="fill: #486afb" transform="translate(214.21278 98.911166) rotate(-69.747707) scale(0.08 -0.08)">
      <use xlink:href="#DejaVuSansMono-31"/>
      <use xlink:href="#DejaVuSansMono-32" x="60.205078"/>
     </g>
    </g>
   </g>
   <g id="text_18">
    <g clip-path="url(#pc2b64655bf)">
     <!-- 18 -->
     <g style="fill: #486afb" transform="translate(97.164502 66.005479) rotate(-64.576103) scale(0.08 -0.08)">
      <defs>
       <path id="DejaVuSansMono-38" d="M 1925 2216 
Q 1503 2216 1273 1980 
Q 1044 1744 1044 1313 
Q 1044 881 1276 642 
Q 1509 403 1925 403 
Q 2350 403 2579 639 
Q 2809 875 2809 1313 
Q 2809 1741 2576 1978 
Q 2344 2216 1925 2216 
z
M 1375 2478 
Q 972 2581 745 2862 
Q 519 3144 519 3541 
Q 519 4097 897 4423 
Q 1275 4750 1925 4750 
Q 2578 4750 2956 4423 
Q 3334 4097 3334 3541 
Q 3334 3144 3107 2862 
Q 2881 2581 2478 2478 
Q 2947 2375 3195 2062 
Q 3444 1750 3444 1253 
Q 3444 622 3041 265 
Q 2638 -91 1925 -91 
Q 1213 -91 811 264 
Q 409 619 409 1247 
Q 409 1747 657 2061 
Q 906 2375 1375 2478 
z
M 1147 3481 
Q 1147 3106 1347 2909 
Q 1547 2713 1925 2713 
Q 2306 2713 2506 2909 
Q 2706 3106 2706 3481 
Q 2706 3863 2507 4063 
Q 2309 4263 1925 4263 
Q 1547 4263 1347 4061 
Q 1147 3859 1147 3481 
z
" transform="scale(0.015625)"/>
      </defs>
      <use xlink:href="#DejaVuSansMono-31"/>
      <use xlink:href="#DejaVuSansMono-38" x="60.205078"/>
     </g>
    </g>
   </g>
   <g id="text_19">
    <g clip-path="url(#pc2b64655bf)">
     <!-- 18 -->
     <g style="fill: #486afb" transform="translate(208.479183 135.948795) rotate(-60.584559) scale(0.08 -0.08)">
      <use xlink:href="#DejaVuSansMono-31"/>
      <use xlink:href="#DejaVuSansMono-38" x="60.205078"/>
     </g>
    </g>
   </g>
   <g id="text_20">
    <g clip-path="url(#pc2b64655bf)">
     <!-- 24 -->
     <g style="fill: #486afb" transform="translate(91.25942 55.02806) rotate(-63.06147) scale(0.08 -0.08)">
      <use xlink:href="#DejaVuSansMono-32"/>
      <use xlink:href="#DejaVuSansMono-34" x="60.205078"/>
     </g>
    </g>
   </g>
   <g id="text_21">
    <g clip-path="url(#pc2b64655bf)">
     <!-- 24 -->
     <g style="fill: #486afb" transform="translate(228.630264 120.87628) rotate(-65.460781) scale(0.08 -0.08)">
      <use xlink:href="#DejaVuSansMono-32"/>
      <use xlink:href="#DejaVuSansMono-34" x="60.205078"/>
     </g>
    </g>
   </g>
   <g id="text_22">
    <g clip-path="url(#pc2b64655bf)">
     <!-- 30 -->
     <g style="fill: #486afb" transform="translate(87.709776 42.674509) rotate(-61.43563) scale(0.08 -0.08)">
      <defs>
       <path id="DejaVuSansMono-33" d="M 2425 2497 
Q 2884 2375 3128 2064 
Q 3372 1753 3372 1288 
Q 3372 644 2939 276 
Q 2506 -91 1741 -91 
Q 1419 -91 1084 -31 
Q 750 28 428 141 
L 428 769 
Q 747 603 1056 522 
Q 1366 441 1672 441 
Q 2191 441 2469 675 
Q 2747 909 2747 1350 
Q 2747 1756 2469 1995 
Q 2191 2234 1716 2234 
L 1234 2234 
L 1234 2753 
L 1716 2753 
Q 2150 2753 2394 2943 
Q 2638 3134 2638 3475 
Q 2638 3834 2411 4026 
Q 2184 4219 1766 4219 
Q 1488 4219 1191 4156 
Q 894 4094 569 3969 
L 569 4550 
Q 947 4650 1242 4700 
Q 1538 4750 1766 4750 
Q 2447 4750 2855 4408 
Q 3263 4066 3263 3500 
Q 3263 3116 3048 2859 
Q 2834 2603 2425 2497 
z
" transform="scale(0.015625)"/>
      </defs>
      <use xlink:href="#DejaVuSansMono-33"/>
      <use xlink:href="#DejaVuSansMono-30" x="60.205078"/>
     </g>
    </g>
   </g>
   <g id="text_23">
    <g clip-path="url(#pc2b64655bf)">
     <!-- 30 -->
     <g style="fill: #486afb" transform="translate(232.291463 133.220395) rotate(-63.659544) scale(0.08 -0.08)">
      <use xlink:href="#DejaVuSansMono-33"/>
      <use xlink:href="#DejaVuSansMono-30" x="60.205078"/>
     </g>
    </g>
   </g>
   <g id="text_24">
    <g clip-path="url(#pc2b64655bf)">
     <!-- 36 -->
     <g style="fill: #486afb" transform="translate(85.43844 30.318529) rotate(-60.026191) scale(0.08 -0.08)">
      <use xlink:href="#DejaVuSansMono-33"/>
      <use xlink:href="#DejaVuSansMono-36" x="60.205078"/>
     </g>
    </g>
   </g>
   <g id="text_25">
    <g clip-path="url(#pc2b64655bf)">
     <!-- 36 -->
     <g style="fill: #486afb" transform="translate(242.218721 131.850206) rotate(-64.598385) scale(0.08 -0.08)">
      <use xlink:href="#DejaVuSansMono-33"/>
      <use xlink:href="#DejaVuSansMono-36" x="60.205078"/>
     </g>
    </g>
   </g>
   <g id="text_26">
    <g clip-path="url(#pc2b64655bf)">
     <!-- 42 -->
     <g style="fill: #486afb" transform="translate(46.491985 98.323104) rotate(-72.287075) scale(0.08 -0.08)">
      <use xlink:href="#DejaVuSansMono-34"/>
      <use xlink:href="#DejaVuSansMono-32" x="60.205078"/>
     </g>
    </g>
   </g>
   <g id="text_27">
    <g clip-path="url(#pc2b64655bf)">
     <!-- 42 -->
     <g style="fill: #486afb" transform="translate(236.048852 157.897769) rotate(-60.685591) scale(0.08 -0.08)">
      <use xlink:href="#DejaVuSansMono-34"/>
      <use xlink:href="#DejaVuSansMono-32" x="60.205078"/>
     </g>
    </g>
   </g>
   <g id="text_28">
    <g clip-path="url(#pc2b64655bf)">
     <!-- 48 -->
     <g style="fill: #486afb" transform="translate(75.959899 17.96877) rotate(-59.578511) scale(0.08 -0.08)">
      <use xlink:href="#DejaVuSansMono-34"/>
      <use xlink:href="#DejaVuSansMono-38" x="60.205078"/>
     </g>
    </g>
   </g>
   <g id="text_29">
    <g clip-path="url(#pc2b64655bf)">
     <!-- 48 -->
     <g style="fill: #486afb" transform="translate(251.984205 144.194374) rotate(-63.60402) scale(0.08 -0.08)">
      <use xlink:href="#DejaVuSansMono-34"/>
      <use xlink:href="#DejaVuSansMono-38" x="60.205078"/>
     </g>
    </g>
   </g>
   <g id="text_30">
    <g clip-path="url(#pc2b64655bf)">
     <!-- 54 -->
     <g style="fill: #486afb" transform="translate(54.156353 44.05689) rotate(-64.280188) scale(0.08 -0.08)">
      <defs>
       <path id="DejaVuSansMono-35" d="M 647 4666 
L 3009 4666 
L 3009 4134 
L 1222 4134 
L 1222 2988 
Q 1356 3038 1492 3061 
Q 1628 3084 1766 3084 
Q 2491 3084 2916 2656 
Q 3341 2228 3341 1497 
Q 3341 759 2895 334 
Q 2450 -91 1678 -91 
Q 1306 -91 998 -41 
Q 691 9 447 109 
L 447 750 
Q 734 594 1025 517 
Q 1316 441 1619 441 
Q 2141 441 2423 716 
Q 2706 991 2706 1497 
Q 2706 1997 2414 2275 
Q 2122 2553 1600 2553 
Q 1347 2553 1106 2495 
Q 866 2438 647 2322 
L 647 4666 
z
" transform="scale(0.015625)"/>
      </defs>
      <use xlink:href="#DejaVuSansMono-35"/>
      <use xlink:href="#DejaVuSansMono-34" x="60.205078"/>
     </g>
    </g>
   </g>
   <g id="text_31">
    <g clip-path="url(#pc2b64655bf)">
     <!-- 54 -->
     <g style="fill: #486afb" transform="translate(266.352513 130.478044) rotate(-66.070109) scale(0.08 -0.08)">
      <use xlink:href="#DejaVuSansMono-35"/>
      <use xlink:href="#DejaVuSansMono-34" x="60.205078"/>
     </g>
    </g>
   </g>
   <g id="text_32">
    <g clip-path="url(#pc2b64655bf)">
     <!-- 60 -->
     <g style="fill: #486afb" transform="translate(53.559497 31.707488) rotate(-62.89973) scale(0.08 -0.08)">
      <use xlink:href="#DejaVuSansMono-36"/>
      <use xlink:href="#DejaVuSansMono-30" x="60.205078"/>
     </g>
    </g>
   </g>
   <g id="text_33">
    <g clip-path="url(#pc2b64655bf)">
     <!-- 60 -->
     <g style="fill: #486afb" transform="translate(251.668087 170.243899) rotate(-60.719818) scale(0.08 -0.08)">
      <use xlink:href="#DejaVuSansMono-36"/>
      <use xlink:href="#DejaVuSansMono-30" x="60.205078"/>
     </g>
    </g>
   </g>
   <g id="text_34">
    <g clip-path="url(#pc2b64655bf)">
     <!-- 66 -->
     <g style="fill: #486afb" transform="translate(54.377172 17.982676) rotate(-61.424314) scale(0.08 -0.08)">
      <use xlink:href="#DejaVuSansMono-36"/>
      <use xlink:href="#DejaVuSansMono-36" x="60.205078"/>
     </g>
    </g>
   </g>
   <g id="text_35">
    <g clip-path="url(#pc2b64655bf)">
     <!-- 66 -->
     <g style="fill: #486afb" transform="translate(266.415852 156.538833) rotate(-63.116466) scale(0.08 -0.08)">
      <use xlink:href="#DejaVuSansMono-36"/>
      <use xlink:href="#DejaVuSansMono-36" x="60.205078"/>
     </g>
    </g>
   </g>
   <g id="text_36">
    <g clip-path="url(#pc2b64655bf)">
     <!-- 72 -->
     <g style="fill: #486afb" transform="translate(40.599811 31.709555) rotate(-63.559812) scale(0.08 -0.08)">
      <defs>
       <path id="DejaVuSansMono-37" d="M 434 4666 
L 3372 4666 
L 3372 4397 
L 1703 0 
L 1044 0 
L 2669 4134 
L 434 4134 
L 434 4666 
z
" transform="scale(0.015625)"/>
      </defs>
      <use xlink:href="#DejaVuSansMono-37"/>
      <use xlink:href="#DejaVuSansMono-32" x="60.205078"/>
     </g>
    </g>
   </g>
   <g id="text_37">
    <g clip-path="url(#pc2b64655bf)">
     <!-- 72 -->
     <g style="fill: #486afb" transform="translate(265.089413 170.250042) rotate(-61.678293) scale(0.08 -0.08)">
      <use xlink:href="#DejaVuSansMono-37"/>
      <use xlink:href="#DejaVuSansMono-32" x="60.205078"/>
     </g>
    </g>
   </g>
   <g id="text_38">
    <g clip-path="url(#pc2b64655bf)">
     <!-- 78 -->
     <g style="fill: #486afb" transform="translate(41.789377 17.987202) rotate(-62.26764) scale(0.08 -0.08)">
      <use xlink:href="#DejaVuSansMono-37"/>
      <use xlink:href="#DejaVuSansMono-38" x="60.205078"/>
     </g>
    </g>
   </g>
  </g>
 </g>
 <defs>
  <clipPath id="pc2b64655bf">
   <rect x="39.971875" y="7.2" width="232.54" height="163.24"/>
  </clipPath>
 </defs>
</svg>