<?xml version="1.0" encoding="utf-8" standalone="no"?>
<!DOCTYPE svg PUBLIC "-//W3C//DTD SVG 1.1//EN"
  "http://www.w3.org/Graphics/SVG/1.1/DTD/svg11.dtd">
<svg xmlns:xlink="http://www.w3.org/1999/xlink" width="397.496449pt" height="239.963625pt" viewBox="0 0 397.496449 239.963625" xmlns="http://www.w3.org/2000/svg" version="1.1">
 <metadata>
  <rdf:RDF xmlns:dc="http://purl.org/dc/elements/1.1/" xmlns:cc="http://creativecommons.org/ns#" xmlns:rdf="http://www.w3.org/1999/02/22-rdf-syntax-ns#">
   <cc:Work>
    <dc:type rdf:resource="http://purl.org/dc/dcmitype/StillImage"/>
    <dc:date>2024-03-26T06:25:01.391348</dc:date>
    <dc:format>image/svg+xml</dc:format>
    <dc:creator>
     <cc:Agent>
      <dc:title>Matplotlib v3.8.3, https://matplotlib.org/</dc:title>
     </cc:Agent>
    </dc:creator>
   </cc:Work>
  </rdf:RDF>
 </metadata>
 <defs>
  <style type="text/css">*{stroke-linejoin: round; stroke-linecap: butt}</style>
 </defs>
 <g id="figure_1">
  <g id="patch_1">
   <path d="M 0 239.963625 
L 397.496449 239.963625 
L 397.496449 0 
L 0 0 
z
" style="fill: #ffffff"/>
  </g>
  <g id="axes_1">
   <g id="patch_2">
    <path d="M 45.992188 202.2855 
L 380.792188 202.2855 
L 380.792188 35.9655 
L 45.992188 35.9655 
z
" style="fill: #ffffff"/>
   </g>
   <g id="matplotlib.axis_1">
    <g id="xtick_1">
     <g id="line2d_1">
      <path d="M 61.210369 202.2855 
L 61.210369 35.9655 
" clip-path="url(#p2427b3f1d8)" style="fill: none; stroke-dasharray: 2.22,0.96; stroke-dashoffset: 0; stroke: #6c6066; stroke-opacity: 0.4; stroke-width: 0.6"/>
     </g>
     <g id="line2d_2">
      <defs>
       <path id="m3da578d513" d="M 0 0 
L 0 3.5 
" style="stroke: #000000; stroke-width: 0.8"/>
      </defs>
      <g>
       <use xlink:href="#m3da578d513" x="61.210369" y="202.2855" style="stroke: #000000; stroke-width: 0.8"/>
      </g>
     </g>
     <g id="text_1">
      <!-- 0 -->
      <g transform="translate(58.200213 216.937062) scale(0.1 -0.1)">
       <defs>
        <path id="DejaVuSansMono-30" d="M 1509 2344 
Q 1509 2516 1629 2641 
Q 1750 2766 1919 2766 
Q 2094 2766 2219 2641 
Q 2344 2516 2344 2344 
Q 2344 2169 2220 2047 
Q 2097 1925 1919 1925 
Q 1744 1925 1626 2044 
Q 1509 2163 1509 2344 
z
M 1925 4250 
Q 1484 4250 1267 3775 
Q 1050 3300 1050 2328 
Q 1050 1359 1267 884 
Q 1484 409 1925 409 
Q 2369 409 2586 884 
Q 2803 1359 2803 2328 
Q 2803 3300 2586 3775 
Q 2369 4250 1925 4250 
z
M 1925 4750 
Q 2672 4750 3055 4137 
Q 3438 3525 3438 2328 
Q 3438 1134 3055 521 
Q 2672 -91 1925 -91 
Q 1178 -91 797 521 
Q 416 1134 416 2328 
Q 416 3525 797 4137 
Q 1178 4750 1925 4750 
z
" transform="scale(0.015625)"/>
       </defs>
       <use xlink:href="#DejaVuSansMono-30"/>
      </g>
     </g>
    </g>
    <g id="xtick_2">
     <g id="line2d_3">
      <path d="M 100.841051 202.2855 
L 100.841051 35.9655 
" clip-path="url(#p2427b3f1d8)" style="fill: none; stroke-dasharray: 2.22,0.96; stroke-dashoffset: 0; stroke: #6c6066; stroke-opacity: 0.4; stroke-width: 0.6"/>
     </g>
     <g id="line2d_4">
      <g>
       <use xlink:href="#m3da578d513" x="100.841051" y="202.2855" style="stroke: #000000; stroke-width: 0.8"/>
      </g>
     </g>
     <g id="text_2">
      <!-- 250 -->
      <g transform="translate(91.810582 216.937062) scale(0.1 -0.1)">
       <defs>
        <path id="DejaVuSansMono-32" d="M 1166 531 
L 3309 531 
L 3309 0 
L 475 0 
L 475 531 
Q 1059 1147 1496 1619 
Q 1934 2091 2100 2284 
Q 2413 2666 2522 2902 
Q 2631 3138 2631 3384 
Q 2631 3775 2401 3997 
Q 2172 4219 1772 4219 
Q 1488 4219 1175 4116 
Q 863 4013 513 3803 
L 513 4441 
Q 834 4594 1145 4672 
Q 1456 4750 1759 4750 
Q 2444 4750 2861 4386 
Q 3278 4022 3278 3431 
Q 3278 3131 3139 2831 
Q 3000 2531 2688 2169 
Q 2513 1966 2180 1606 
Q 1847 1247 1166 531 
z
" transform="scale(0.015625)"/>
        <path id="DejaVuSansMono-35" d="M 647 4666 
L 3009 4666 
L 3009 4134 
L 1222 4134 
L 1222 2988 
Q 1356 3038 1492 3061 
Q 1628 3084 1766 3084 
Q 2491 3084 2916 2656 
Q 3341 2228 3341 1497 
Q 3341 759 2895 334 
Q 2450 -91 1678 -91 
Q 1306 -91 998 -41 
Q 691 9 447 109 
L 447 750 
Q 734 594 1025 517 
Q 1316 441 1619 441 
Q 2141 441 2423 716 
Q 2706 991 2706 1497 
Q 2706 1997 2414 2275 
Q 2122 2553 1600 2553 
Q 1347 2553 1106 2495 
Q 866 2438 647 2322 
L 647 4666 
z
" transform="scale(0.015625)"/>
       </defs>
       <use xlink:href="#DejaVuSansMono-32"/>
       <use xlink:href="#DejaVuSansMono-35" x="60.205078"/>
       <use xlink:href="#DejaVuSansMono-30" x="120.410156"/>
      </g>
     </g>
    </g>
    <g id="xtick_3">
     <g id="line2d_5">
      <path d="M 140.471733 202.2855 
L 140.471733 35.9655 
" clip-path="url(#p2427b3f1d8)" style="fill: none; stroke-dasharray: 2.22,0.96; stroke-dashoffset: 0; stroke: #6c6066; stroke-opacity: 0.4; stroke-width: 0.6"/>
     </g>
     <g id="line2d_6">
      <g>
       <use xlink:href="#m3da578d513" x="140.471733" y="202.2855" style="stroke: #000000; stroke-width: 0.8"/>
      </g>
     </g>
     <g id="text_3">
      <!-- 500 -->
      <g transform="translate(131.441264 216.937062) scale(0.1 -0.1)">
       <use xlink:href="#DejaVuSansMono-35"/>
       <use xlink:href="#DejaVuSansMono-30" x="60.205078"/>
       <use xlink:href="#DejaVuSansMono-30" x="120.410156"/>
      </g>
     </g>
    </g>
    <g id="xtick_4">
     <g id="line2d_7">
      <path d="M 180.102415 202.2855 
L 180.102415 35.9655 
" clip-path="url(#p2427b3f1d8)" style="fill: none; stroke-dasharray: 2.22,0.96; stroke-dashoffset: 0; stroke: #6c6066; stroke-opacity: 0.4; stroke-width: 0.6"/>
     </g>
     <g id="line2d_8">
      <g>
       <use xlink:href="#m3da578d513" x="180.102415" y="202.2855" style="stroke: #000000; stroke-width: 0.8"/>
      </g>
     </g>
     <g id="text_4">
      <!-- 750 -->
      <g transform="translate(171.071946 216.937062) scale(0.1 -0.1)">
       <defs>
        <path id="DejaVuSansMono-37" d="M 434 4666 
L 3372 4666 
L 3372 4397 
L 1703 0 
L 1044 0 
L 2669 4134 
L 434 4134 
L 434 4666 
z
" transform="scale(0.015625)"/>
       </defs>
       <use xlink:href="#DejaVuSansMono-37"/>
       <use xlink:href="#DejaVuSansMono-35" x="60.205078"/>
       <use xlink:href="#DejaVuSansMono-30" x="120.410156"/>
      </g>
     </g>
    </g>
    <g id="xtick_5">
     <g id="line2d_9">
      <path d="M 219.733097 202.2855 
L 219.733097 35.9655 
" clip-path="url(#p2427b3f1d8)" style="fill: none; stroke-dasharray: 2.22,0.96; stroke-dashoffset: 0; stroke: #6c6066; stroke-opacity: 0.4; stroke-width: 0.6"/>
     </g>
     <g id="line2d_10">
      <g>
       <use xlink:href="#m3da578d513" x="219.733097" y="202.2855" style="stroke: #000000; stroke-width: 0.8"/>
      </g>
     </g>
     <g id="text_5">
      <!-- 1000 -->
      <g transform="translate(207.692472 216.937062) scale(0.1 -0.1)">
       <defs>
        <path id="DejaVuSansMono-31" d="M 844 531 
L 1825 531 
L 1825 4097 
L 769 3859 
L 769 4434 
L 1819 4666 
L 2450 4666 
L 2450 531 
L 3419 531 
L 3419 0 
L 844 0 
L 844 531 
z
" transform="scale(0.015625)"/>
       </defs>
       <use xlink:href="#DejaVuSansMono-31"/>
       <use xlink:href="#DejaVuSansMono-30" x="60.205078"/>
       <use xlink:href="#DejaVuSansMono-30" x="120.410156"/>
       <use xlink:href="#DejaVuSansMono-30" x="180.615234"/>
      </g>
     </g>
    </g>
    <g id="xtick_6">
     <g id="line2d_11">
      <path d="M 259.363778 202.2855 
L 259.363778 35.9655 
" clip-path="url(#p2427b3f1d8)" style="fill: none; stroke-dasharray: 2.22,0.96; stroke-dashoffset: 0; stroke: #6c6066; stroke-opacity: 0.4; stroke-width: 0.6"/>
     </g>
     <g id="line2d_12">
      <g>
       <use xlink:href="#m3da578d513" x="259.363778" y="202.2855" style="stroke: #000000; stroke-width: 0.8"/>
      </g>
     </g>
     <g id="text_6">
      <!-- 1250 -->
      <g transform="translate(247.323153 216.937062) scale(0.1 -0.1)">
       <use xlink:href="#DejaVuSansMono-31"/>
       <use xlink:href="#DejaVuSansMono-32" x="60.205078"/>
       <use xlink:href="#DejaVuSansMono-35" x="120.410156"/>
       <use xlink:href="#DejaVuSansMono-30" x="180.615234"/>
      </g>
     </g>
    </g>
    <g id="xtick_7">
     <g id="line2d_13">
      <path d="M 298.99446 202.2855 
L 298.99446 35.9655 
" clip-path="url(#p2427b3f1d8)" style="fill: none; stroke-dasharray: 2.22,0.96; stroke-dashoffset: 0; stroke: #6c6066; stroke-opacity: 0.4; stroke-width: 0.6"/>
     </g>
     <g id="line2d_14">
      <g>
       <use xlink:href="#m3da578d513" x="298.99446" y="202.2855" style="stroke: #000000; stroke-width: 0.8"/>
      </g>
     </g>
     <g id="text_7">
      <!-- 1500 -->
      <g transform="translate(286.953835 216.937062) scale(0.1 -0.1)">
       <use xlink:href="#DejaVuSansMono-31"/>
       <use xlink:href="#DejaVuSansMono-35" x="60.205078"/>
       <use xlink:href="#DejaVuSansMono-30" x="120.410156"/>
       <use xlink:href="#DejaVuSansMono-30" x="180.615234"/>
      </g>
     </g>
    </g>
    <g id="xtick_8">
     <g id="line2d_15">
      <path d="M 338.625142 202.2855 
L 338.625142 35.9655 
" clip-path="url(#p2427b3f1d8)" style="fill: none; stroke-dasharray: 2.22,0.96; stroke-dashoffset: 0; stroke: #6c6066; stroke-opacity: 0.4; stroke-width: 0.6"/>
     </g>
     <g id="line2d_16">
      <g>
       <use xlink:href="#m3da578d513" x="338.625142" y="202.2855" style="stroke: #000000; stroke-width: 0.8"/>
      </g>
     </g>
     <g id="text_8">
      <!-- 1750 -->
      <g transform="translate(326.584517 216.937062) scale(0.1 -0.1)">
       <use xlink:href="#DejaVuSansMono-31"/>
       <use xlink:href="#DejaVuSansMono-37" x="60.205078"/>
       <use xlink:href="#DejaVuSansMono-35" x="120.410156"/>
       <use xlink:href="#DejaVuSansMono-30" x="180.615234"/>
      </g>
     </g>
    </g>
    <g id="xtick_9">
     <g id="line2d_17">
      <path d="M 378.255824 202.2855 
L 378.255824 35.9655 
" clip-path="url(#p2427b3f1d8)" style="fill: none; stroke-dasharray: 2.22,0.96; stroke-dashoffset: 0; stroke: #6c6066; stroke-opacity: 0.4; stroke-width: 0.6"/>
     </g>
     <g id="line2d_18">
      <g>
       <use xlink:href="#m3da578d513" x="378.255824" y="202.2855" style="stroke: #000000; stroke-width: 0.8"/>
      </g>
     </g>
     <g id="text_9">
      <!-- 2000 -->
      <g transform="translate(366.215199 216.937062) scale(0.1 -0.1)">
       <use xlink:href="#DejaVuSansMono-32"/>
       <use xlink:href="#DejaVuSansMono-30" x="60.205078"/>
       <use xlink:href="#DejaVuSansMono-30" x="120.410156"/>
       <use xlink:href="#DejaVuSansMono-30" x="180.615234"/>
      </g>
     </g>
    </g>
    <g id="text_10">
     <!-- gradient steps -->
     <g transform="translate(171.25 230.615188) scale(0.1 -0.1)">
      <defs>
       <path id="DejaVuSansMono-67" d="M 2681 1778 
Q 2681 2425 2470 2761 
Q 2259 3097 1856 3097 
Q 1434 3097 1212 2761 
Q 991 2425 991 1778 
Q 991 1131 1214 792 
Q 1438 453 1863 453 
Q 2259 453 2470 793 
Q 2681 1134 2681 1778 
z
M 3256 225 
Q 3256 -563 2884 -969 
Q 2513 -1375 1791 -1375 
Q 1553 -1375 1293 -1331 
Q 1034 -1288 775 -1203 
L 775 -634 
Q 1081 -778 1331 -847 
Q 1581 -916 1791 -916 
Q 2256 -916 2468 -662 
Q 2681 -409 2681 141 
L 2681 166 
L 2681 556 
Q 2544 263 2306 119 
Q 2069 -25 1728 -25 
Q 1116 -25 750 465 
Q 384 956 384 1778 
Q 384 2603 750 3093 
Q 1116 3584 1728 3584 
Q 2066 3584 2300 3450 
Q 2534 3316 2681 3034 
L 2681 3488 
L 3256 3488 
L 3256 225 
z
" transform="scale(0.015625)"/>
       <path id="DejaVuSansMono-72" d="M 3609 2778 
Q 3425 2922 3234 2987 
Q 3044 3053 2816 3053 
Q 2278 3053 1993 2715 
Q 1709 2378 1709 1741 
L 1709 0 
L 1131 0 
L 1131 3500 
L 1709 3500 
L 1709 2816 
Q 1853 3188 2151 3386 
Q 2450 3584 2859 3584 
Q 3072 3584 3256 3531 
Q 3441 3478 3609 3366 
L 3609 2778 
z
" transform="scale(0.015625)"/>
       <path id="DejaVuSansMono-61" d="M 2194 1759 
L 2003 1759 
Q 1500 1759 1245 1582 
Q 991 1406 991 1056 
Q 991 741 1181 566 
Q 1372 391 1709 391 
Q 2184 391 2456 720 
Q 2728 1050 2731 1631 
L 2731 1759 
L 2194 1759 
z
M 3309 1997 
L 3309 0 
L 2731 0 
L 2731 519 
Q 2547 206 2267 57 
Q 1988 -91 1588 -91 
Q 1053 -91 734 211 
Q 416 513 416 1019 
Q 416 1603 808 1906 
Q 1200 2209 1959 2209 
L 2731 2209 
L 2731 2300 
Q 2728 2719 2518 2908 
Q 2309 3097 1850 3097 
Q 1556 3097 1256 3012 
Q 956 2928 672 2766 
L 672 3341 
Q 991 3463 1283 3523 
Q 1575 3584 1850 3584 
Q 2284 3584 2592 3456 
Q 2900 3328 3091 3072 
Q 3209 2916 3259 2686 
Q 3309 2456 3309 1997 
z
" transform="scale(0.015625)"/>
       <path id="DejaVuSansMono-64" d="M 2681 3053 
L 2681 4863 
L 3256 4863 
L 3256 0 
L 2681 0 
L 2681 441 
Q 2538 181 2298 45 
Q 2059 -91 1747 -91 
Q 1113 -91 748 401 
Q 384 894 384 1759 
Q 384 2613 750 3098 
Q 1116 3584 1747 3584 
Q 2063 3584 2303 3448 
Q 2544 3313 2681 3053 
z
M 991 1747 
Q 991 1078 1203 737 
Q 1416 397 1831 397 
Q 2247 397 2464 740 
Q 2681 1084 2681 1747 
Q 2681 2413 2464 2755 
Q 2247 3097 1831 3097 
Q 1416 3097 1203 2756 
Q 991 2416 991 1747 
z
" transform="scale(0.015625)"/>
       <path id="DejaVuSansMono-69" d="M 800 3500 
L 2272 3500 
L 2272 447 
L 3413 447 
L 3413 0 
L 556 0 
L 556 447 
L 1697 447 
L 1697 3053 
L 800 3053 
L 800 3500 
z
M 1697 4863 
L 2272 4863 
L 2272 4134 
L 1697 4134 
L 1697 4863 
z
" transform="scale(0.015625)"/>
       <path id="DejaVuSansMono-65" d="M 3475 1894 
L 3475 1613 
L 984 1613 
L 984 1594 
Q 984 1022 1282 709 
Q 1581 397 2125 397 
Q 2400 397 2700 484 
Q 3000 572 3341 750 
L 3341 178 
Q 3013 44 2708 -23 
Q 2403 -91 2119 -91 
Q 1303 -91 843 398 
Q 384 888 384 1747 
Q 384 2584 834 3084 
Q 1284 3584 2034 3584 
Q 2703 3584 3089 3131 
Q 3475 2678 3475 1894 
z
M 2900 2063 
Q 2888 2569 2661 2833 
Q 2434 3097 2009 3097 
Q 1594 3097 1325 2822 
Q 1056 2547 1006 2059 
L 2900 2063 
z
" transform="scale(0.015625)"/>
       <path id="DejaVuSansMono-6e" d="M 3284 2169 
L 3284 0 
L 2706 0 
L 2706 2169 
Q 2706 2641 2540 2862 
Q 2375 3084 2022 3084 
Q 1619 3084 1401 2798 
Q 1184 2513 1184 1978 
L 1184 0 
L 609 0 
L 609 3500 
L 1184 3500 
L 1184 2975 
Q 1338 3275 1600 3429 
Q 1863 3584 2222 3584 
Q 2756 3584 3020 3232 
Q 3284 2881 3284 2169 
z
" transform="scale(0.015625)"/>
       <path id="DejaVuSansMono-74" d="M 1919 4494 
L 1919 3500 
L 3225 3500 
L 3225 3053 
L 1919 3053 
L 1919 1153 
Q 1919 766 2066 612 
Q 2213 459 2578 459 
L 3225 459 
L 3225 0 
L 2522 0 
Q 1875 0 1609 259 
Q 1344 519 1344 1153 
L 1344 3053 
L 409 3053 
L 409 3500 
L 1344 3500 
L 1344 4494 
L 1919 4494 
z
" transform="scale(0.015625)"/>
       <path id="DejaVuSansMono-20" transform="scale(0.015625)"/>
       <path id="DejaVuSansMono-73" d="M 3041 3378 
L 3041 2816 
Q 2794 2959 2544 3031 
Q 2294 3103 2034 3103 
Q 1644 3103 1451 2976 
Q 1259 2850 1259 2591 
Q 1259 2356 1403 2240 
Q 1547 2125 2119 2016 
L 2350 1972 
Q 2778 1891 2998 1647 
Q 3219 1403 3219 1013 
Q 3219 494 2850 201 
Q 2481 -91 1825 -91 
Q 1566 -91 1281 -36 
Q 997 19 666 128 
L 666 722 
Q 988 556 1281 473 
Q 1575 391 1838 391 
Q 2219 391 2428 545 
Q 2638 700 2638 978 
Q 2638 1378 1872 1531 
L 1847 1538 
L 1631 1581 
Q 1134 1678 906 1908 
Q 678 2138 678 2534 
Q 678 3038 1018 3311 
Q 1359 3584 1991 3584 
Q 2272 3584 2531 3532 
Q 2791 3481 3041 3378 
z
" transform="scale(0.015625)"/>
       <path id="DejaVuSansMono-70" d="M 1172 441 
L 1172 -1331 
L 594 -1331 
L 594 3500 
L 1172 3500 
L 1172 3053 
Q 1316 3313 1555 3448 
Q 1794 3584 2106 3584 
Q 2741 3584 3102 3093 
Q 3463 2603 3463 1734 
Q 3463 881 3100 395 
Q 2738 -91 2106 -91 
Q 1788 -91 1548 45 
Q 1309 181 1172 441 
z
M 2859 1747 
Q 2859 2416 2648 2756 
Q 2438 3097 2022 3097 
Q 1603 3097 1387 2755 
Q 1172 2413 1172 1747 
Q 1172 1084 1387 740 
Q 1603 397 2022 397 
Q 2438 397 2648 737 
Q 2859 1078 2859 1747 
z
" transform="scale(0.015625)"/>
      </defs>
      <use xlink:href="#DejaVuSansMono-67"/>
      <use xlink:href="#DejaVuSansMono-72" x="60.205078"/>
      <use xlink:href="#DejaVuSansMono-61" x="120.410156"/>
      <use xlink:href="#DejaVuSansMono-64" x="180.615234"/>
      <use xlink:href="#DejaVuSansMono-69" x="240.820312"/>
      <use xlink:href="#DejaVuSansMono-65" x="301.025391"/>
      <use xlink:href="#DejaVuSansMono-6e" x="361.230469"/>
      <use xlink:href="#DejaVuSansMono-74" x="421.435547"/>
      <use xlink:href="#DejaVuSansMono-20" x="481.640625"/>
      <use xlink:href="#DejaVuSansMono-73" x="541.845703"/>
      <use xlink:href="#DejaVuSansMono-74" x="602.050781"/>
      <use xlink:href="#DejaVuSansMono-65" x="662.255859"/>
      <use xlink:href="#DejaVuSansMono-70" x="722.460938"/>
      <use xlink:href="#DejaVuSansMono-73" x="782.666016"/>
     </g>
    </g>
   </g>
   <g id="matplotlib.axis_2">
    <g id="ytick_1">
     <g id="line2d_19">
      <path d="M 45.992188 196.328411 
L 380.792188 196.328411 
" clip-path="url(#p2427b3f1d8)" style="fill: none; stroke-dasharray: 2.22,0.96; stroke-dashoffset: 0; stroke: #6c6066; stroke-opacity: 0.4; stroke-width: 0.6"/>
     </g>
     <g id="line2d_20">
      <defs>
       <path id="m054604ac07" d="M 0 0 
L -3.5 0 
" style="stroke: #000000; stroke-width: 0.8"/>
      </defs>
      <g>
       <use xlink:href="#m054604ac07" x="45.992188" y="196.328411" style="stroke: #000000; stroke-width: 0.8"/>
      </g>
     </g>
     <g id="text_11">
      <!-- 0.0 -->
      <g transform="translate(20.93125 200.154193) scale(0.1 -0.1)">
       <defs>
        <path id="DejaVuSansMono-2e" d="M 1528 953 
L 2316 953 
L 2316 0 
L 1528 0 
L 1528 953 
z
" transform="scale(0.015625)"/>
       </defs>
       <use xlink:href="#DejaVuSansMono-30"/>
       <use xlink:href="#DejaVuSansMono-2e" x="60.205078"/>
       <use xlink:href="#DejaVuSansMono-30" x="120.410156"/>
      </g>
     </g>
    </g>
    <g id="ytick_2">
     <g id="line2d_21">
      <path d="M 45.992188 155.163248 
L 380.792188 155.163248 
" clip-path="url(#p2427b3f1d8)" style="fill: none; stroke-dasharray: 2.22,0.96; stroke-dashoffset: 0; stroke: #6c6066; stroke-opacity: 0.4; stroke-width: 0.6"/>
     </g>
     <g id="line2d_22">
      <g>
       <use xlink:href="#m054604ac07" x="45.992188" y="155.163248" style="stroke: #000000; stroke-width: 0.8"/>
      </g>
     </g>
     <g id="text_12">
      <!-- 0.2 -->
      <g transform="translate(20.93125 158.98903) scale(0.1 -0.1)">
       <use xlink:href="#DejaVuSansMono-30"/>
       <use xlink:href="#DejaVuSansMono-2e" x="60.205078"/>
       <use xlink:href="#DejaVuSansMono-32" x="120.410156"/>
      </g>
     </g>
    </g>
    <g id="ytick_3">
     <g id="line2d_23">
      <path d="M 45.992188 113.998086 
L 380.792188 113.998086 
" clip-path="url(#p2427b3f1d8)" style="fill: none; stroke-dasharray: 2.22,0.96; stroke-dashoffset: 0; stroke: #6c6066; stroke-opacity: 0.4; stroke-width: 0.6"/>
     </g>
     <g id="line2d_24">
      <g>
       <use xlink:href="#m054604ac07" x="45.992188" y="113.998086" style="stroke: #000000; stroke-width: 0.8"/>
      </g>
     </g>
     <g id="text_13">
      <!-- 0.4 -->
      <g transform="translate(20.93125 117.823867) scale(0.1 -0.1)">
       <defs>
        <path id="DejaVuSansMono-34" d="M 2297 4091 
L 825 1625 
L 2297 1625 
L 2297 4091 
z
M 2194 4666 
L 2925 4666 
L 2925 1625 
L 3547 1625 
L 3547 1113 
L 2925 1113 
L 2925 0 
L 2297 0 
L 2297 1113 
L 319 1113 
L 319 1709 
L 2194 4666 
z
" transform="scale(0.015625)"/>
       </defs>
       <use xlink:href="#DejaVuSansMono-30"/>
       <use xlink:href="#DejaVuSansMono-2e" x="60.205078"/>
       <use xlink:href="#DejaVuSansMono-34" x="120.410156"/>
      </g>
     </g>
    </g>
    <g id="ytick_4">
     <g id="line2d_25">
      <path d="M 45.992188 72.832923 
L 380.792188 72.832923 
" clip-path="url(#p2427b3f1d8)" style="fill: none; stroke-dasharray: 2.22,0.96; stroke-dashoffset: 0; stroke: #6c6066; stroke-opacity: 0.4; stroke-width: 0.6"/>
     </g>
     <g id="line2d_26">
      <g>
       <use xlink:href="#m054604ac07" x="45.992188" y="72.832923" style="stroke: #000000; stroke-width: 0.8"/>
      </g>
     </g>
     <g id="text_14">
      <!-- 0.6 -->
      <g transform="translate(20.93125 76.658704) scale(0.1 -0.1)">
       <defs>
        <path id="DejaVuSansMono-36" d="M 3097 4563 
L 3097 3981 
Q 2900 4097 2678 4158 
Q 2456 4219 2216 4219 
Q 1616 4219 1306 3767 
Q 997 3316 997 2438 
Q 1147 2750 1412 2917 
Q 1678 3084 2022 3084 
Q 2697 3084 3067 2670 
Q 3438 2256 3438 1497 
Q 3438 741 3056 325 
Q 2675 -91 1984 -91 
Q 1172 -91 794 492 
Q 416 1075 416 2328 
Q 416 3509 870 4129 
Q 1325 4750 2188 4750 
Q 2419 4750 2650 4701 
Q 2881 4653 3097 4563 
z
M 1972 2591 
Q 1569 2591 1337 2300 
Q 1106 2009 1106 1497 
Q 1106 984 1337 693 
Q 1569 403 1972 403 
Q 2391 403 2603 679 
Q 2816 956 2816 1497 
Q 2816 2041 2603 2316 
Q 2391 2591 1972 2591 
z
" transform="scale(0.015625)"/>
       </defs>
       <use xlink:href="#DejaVuSansMono-30"/>
       <use xlink:href="#DejaVuSansMono-2e" x="60.205078"/>
       <use xlink:href="#DejaVuSansMono-36" x="120.410156"/>
      </g>
     </g>
    </g>
    <g id="text_15">
     <!-- cross entropy -->
     <g transform="translate(14.851563 158.257531) rotate(-90) scale(0.1 -0.1)">
      <defs>
       <path id="DejaVuSansMono-63" d="M 3316 178 
Q 3084 44 2839 -23 
Q 2594 -91 2338 -91 
Q 1525 -91 1067 396 
Q 609 884 609 1747 
Q 609 2609 1067 3096 
Q 1525 3584 2338 3584 
Q 2591 3584 2831 3518 
Q 3072 3453 3316 3316 
L 3316 2713 
Q 3088 2916 2858 3006 
Q 2628 3097 2338 3097 
Q 1797 3097 1506 2747 
Q 1216 2397 1216 1747 
Q 1216 1100 1508 748 
Q 1800 397 2338 397 
Q 2638 397 2875 489 
Q 3113 581 3316 775 
L 3316 178 
z
" transform="scale(0.015625)"/>
       <path id="DejaVuSansMono-6f" d="M 1925 3097 
Q 1488 3097 1263 2756 
Q 1038 2416 1038 1747 
Q 1038 1081 1263 739 
Q 1488 397 1925 397 
Q 2366 397 2591 739 
Q 2816 1081 2816 1747 
Q 2816 2416 2591 2756 
Q 2366 3097 1925 3097 
z
M 1925 3584 
Q 2653 3584 3039 3112 
Q 3425 2641 3425 1747 
Q 3425 850 3040 379 
Q 2656 -91 1925 -91 
Q 1197 -91 812 379 
Q 428 850 428 1747 
Q 428 2641 812 3112 
Q 1197 3584 1925 3584 
z
" transform="scale(0.015625)"/>
       <path id="DejaVuSansMono-79" d="M 2681 1125 
Q 2538 759 2316 163 
Q 2006 -663 1900 -844 
Q 1756 -1088 1540 -1209 
Q 1325 -1331 1038 -1331 
L 575 -1331 
L 575 -850 
L 916 -850 
Q 1169 -850 1312 -703 
Q 1456 -556 1678 56 
L 325 3500 
L 934 3500 
L 1972 763 
L 2994 3500 
L 3603 3500 
L 2681 1125 
z
" transform="scale(0.015625)"/>
      </defs>
      <use xlink:href="#DejaVuSansMono-63"/>
      <use xlink:href="#DejaVuSansMono-72" x="60.205078"/>
      <use xlink:href="#DejaVuSansMono-6f" x="120.410156"/>
      <use xlink:href="#DejaVuSansMono-73" x="180.615234"/>
      <use xlink:href="#DejaVuSansMono-73" x="240.820312"/>
      <use xlink:href="#DejaVuSansMono-20" x="301.025391"/>
      <use xlink:href="#DejaVuSansMono-65" x="361.230469"/>
      <use xlink:href="#DejaVuSansMono-6e" x="421.435547"/>
      <use xlink:href="#DejaVuSansMono-74" x="481.640625"/>
      <use xlink:href="#DejaVuSansMono-72" x="541.845703"/>
      <use xlink:href="#DejaVuSansMono-6f" x="602.050781"/>
      <use xlink:href="#DejaVuSansMono-70" x="662.255859"/>
      <use xlink:href="#DejaVuSansMono-79" x="722.460938"/>
     </g>
    </g>
   </g>
   <g id="line2d_27">
    <path d="M 61.210369 43.892736 
L 61.368892 44.536901 
L 61.527415 48.640335 
L 61.685938 43.845847 
L 61.84446 50.281118 
L 62.002983 49.766161 
L 62.161506 46.116575 
L 62.320028 48.879282 
L 62.637074 49.431829 
L 62.795597 50.446873 
L 62.954119 49.328985 
L 63.112642 46.939439 
L 63.271165 50.528628 
L 63.429688 57.885263 
L 63.746733 46.758753 
L 63.905256 48.360584 
L 64.063778 55.70424 
L 64.222301 45.535027 
L 64.380824 54.788776 
L 64.539347 51.255579 
L 64.697869 52.886583 
L 64.856392 43.5255 
L 65.173438 52.818372 
L 65.33196 48.017787 
L 65.490483 53.885213 
L 65.649006 52.765558 
L 65.807528 49.583107 
L 65.966051 55.376704 
L 66.124574 50.528689 
L 66.441619 54.064659 
L 66.600142 50.320425 
L 66.758665 55.289404 
L 66.917188 54.049545 
L 67.07571 56.949435 
L 67.234233 51.346069 
L 67.551278 53.000334 
L 67.709801 51.803929 
L 68.026847 54.400881 
L 68.185369 50.128955 
L 68.343892 53.934801 
L 68.502415 54.604103 
L 68.81946 52.884252 
L 68.977983 54.212295 
L 69.136506 52.38771 
L 69.295028 54.458112 
L 69.453551 53.852199 
L 69.612074 54.225556 
L 69.770597 53.833171 
L 69.929119 54.064439 
L 70.087642 54.065948 
L 70.246165 52.989145 
L 70.404688 52.837216 
L 70.56321 53.901885 
L 70.721733 51.992675 
L 71.038778 53.906007 
L 71.197301 53.220204 
L 71.355824 53.687879 
L 71.514347 54.703574 
L 71.672869 52.465012 
L 71.831392 53.609878 
L 71.989915 53.113066 
L 72.148438 54.161529 
L 72.30696 54.046049 
L 72.624006 53.504728 
L 72.782528 54.557914 
L 72.941051 54.286235 
L 73.099574 54.357108 
L 73.258097 54.264962 
L 73.416619 53.73613 
L 73.575142 52.520673 
L 73.733665 54.231188 
L 73.892188 53.498127 
L 74.05071 54.524115 
L 74.209233 53.682923 
L 74.367756 54.42251 
L 74.526278 53.761476 
L 74.684801 54.075922 
L 74.843324 53.391431 
L 75.001847 54.069775 
L 75.160369 52.84973 
L 75.477415 53.948087 
L 75.635938 53.488497 
L 75.79446 53.498348 
L 76.111506 54.502903 
L 76.270028 53.367717 
L 76.587074 53.857842 
L 76.904119 53.942358 
L 77.062642 53.826276 
L 77.379688 54.216368 
L 77.53821 53.839109 
L 77.696733 54.524888 
L 77.855256 53.831454 
L 78.013778 54.088239 
L 78.330824 53.736878 
L 78.489347 53.849206 
L 78.647869 54.259134 
L 78.806392 53.823271 
L 78.964915 53.806746 
L 79.123438 53.616785 
L 79.28196 53.981003 
L 79.440483 53.69816 
L 79.599006 54.120848 
L 80.074574 53.93842 
L 80.233097 54.157456 
L 80.391619 53.826583 
L 80.550142 53.90651 
L 80.708665 54.26587 
L 81.02571 54.070732 
L 81.184233 54.263465 
L 81.659801 53.988449 
L 81.818324 53.891629 
L 81.976847 53.959791 
L 82.135369 54.196555 
L 82.293892 54.088496 
L 82.452415 54.259171 
L 82.76946 53.913884 
L 82.927983 54.136072 
L 83.086506 53.813567 
L 83.245028 54.251823 
L 83.403551 54.035903 
L 83.562074 54.27907 
L 83.879119 53.969004 
L 84.037642 54.158229 
L 84.196165 54.004913 
L 84.51321 54.140195 
L 84.671733 53.979138 
L 84.988778 54.154315 
L 85.147301 54.282137 
L 85.305824 53.871632 
L 85.464347 54.285008 
L 85.622869 54.291044 
L 85.781392 54.138636 
L 86.098438 54.202247 
L 86.25696 54.081958 
L 86.415483 54.49737 
L 86.732528 54.112235 
L 87.049574 54.520066 
L 87.208097 54.621487 
L 87.525142 54.000239 
L 87.683665 54.199916 
L 87.842188 54.204995 
L 88.00071 53.937524 
L 88.159233 54.319923 
L 88.476278 54.438998 
L 88.634801 54.672707 
L 88.793324 53.742693 
L 88.951847 54.020359 
L 89.110369 54.045963 
L 89.268892 54.619193 
L 89.74446 54.819655 
L 89.902983 53.888231 
L 90.220028 54.358261 
L 90.378551 53.93853 
L 90.695597 54.855306 
L 90.854119 54.264312 
L 91.171165 54.789561 
L 91.329688 54.252546 
L 91.48821 54.792972 
L 91.646733 54.016679 
L 91.805256 54.874531 
L 91.963778 54.477214 
L 92.122301 54.765859 
L 92.280824 54.059053 
L 92.439347 55.0045 
L 92.597869 54.198591 
L 92.914915 54.552577 
L 93.073438 54.126098 
L 93.23196 54.045447 
L 93.390483 54.703451 
L 93.707528 54.29124 
L 93.866051 54.951747 
L 94.024574 54.093845 
L 94.183097 55.081274 
L 94.341619 54.062439 
L 94.658665 54.688557 
L 94.817188 54.295559 
L 94.97571 55.115968 
L 95.451278 55.002426 
L 95.609801 55.642788 
L 95.768324 54.942828 
L 95.926847 54.921015 
L 96.085369 55.097885 
L 96.243892 54.127313 
L 96.402415 54.950569 
L 96.560938 54.655838 
L 96.71946 54.848927 
L 96.877983 53.913074 
L 97.036506 54.803522 
L 97.195028 54.098789 
L 97.512074 54.729374 
L 97.670597 54.676277 
L 97.829119 55.0528 
L 97.987642 54.607207 
L 98.304688 55.424243 
L 98.46321 54.5917 
L 98.621733 54.657715 
L 98.780256 55.046776 
L 98.938778 54.734134 
L 99.097301 55.374741 
L 99.255824 55.215095 
L 99.414347 55.451969 
L 99.572869 54.257589 
L 99.731392 55.315743 
L 99.889915 55.089935 
L 100.048438 55.223597 
L 100.20696 54.820992 
L 100.365483 55.743412 
L 100.524006 54.710297 
L 100.682528 55.881098 
L 100.841051 55.015774 
L 100.999574 55.624141 
L 101.316619 55.501017 
L 101.475142 54.941515 
L 101.633665 55.817904 
L 101.792188 55.535442 
L 101.95071 54.566968 
L 102.109233 54.771024 
L 102.267756 55.183578 
L 102.426278 54.956323 
L 102.584801 55.304125 
L 102.743324 54.077381 
L 103.060369 55.385979 
L 103.377415 53.853401 
L 103.535938 55.645095 
L 103.69446 55.684635 
L 103.852983 56.080063 
L 104.011506 56.10471 
L 104.328551 54.582094 
L 104.487074 54.993581 
L 104.645597 56.36293 
L 104.962642 54.882161 
L 105.121165 55.060418 
L 105.43821 56.335008 
L 105.596733 55.332661 
L 105.755256 56.23685 
L 105.913778 56.151096 
L 106.072301 55.380985 
L 106.230824 56.390718 
L 106.389347 56.173313 
L 106.547869 57.086642 
L 106.706392 54.996329 
L 106.864915 56.469271 
L 107.023438 54.932093 
L 107.18196 55.420391 
L 107.340483 55.473819 
L 107.499006 56.837218 
L 107.657528 55.740553 
L 107.816051 55.746884 
L 107.974574 55.261518 
L 108.133097 55.60629 
L 108.291619 56.271397 
L 108.450142 55.994774 
L 108.608665 53.950173 
L 108.767188 55.608548 
L 108.92571 55.862241 
L 109.084233 57.819162 
L 109.242756 57.862935 
L 109.718324 55.089285 
L 109.876847 56.058041 
L 110.035369 58.97415 
L 110.193892 56.446476 
L 110.352415 58.045964 
L 110.510938 55.770071 
L 110.66946 56.447139 
L 110.827983 57.984231 
L 110.986506 57.049335 
L 111.145028 57.987617 
L 111.303551 57.019081 
L 111.462074 58.13535 
L 111.620597 54.063752 
L 111.779119 56.03813 
L 111.937642 56.19163 
L 112.096165 58.017612 
L 112.254688 57.387482 
L 112.41321 56.2567 
L 112.571733 57.670129 
L 112.730256 56.578408 
L 112.888778 56.557675 
L 113.047301 57.602678 
L 113.205824 57.540933 
L 113.364347 55.004181 
L 113.522869 57.50192 
L 113.681392 56.969052 
L 113.839915 55.197589 
L 113.998438 56.407918 
L 114.15696 59.973245 
L 114.315483 56.471884 
L 114.474006 55.614731 
L 114.632528 56.371236 
L 114.791051 57.685783 
L 114.949574 56.66366 
L 115.108097 56.692821 
L 115.266619 57.139567 
L 115.583665 58.975327 
L 115.742188 58.047314 
L 115.90071 58.00862 
L 116.059233 56.49642 
L 116.217756 58.381266 
L 116.376278 55.281037 
L 116.534801 56.506382 
L 116.693324 56.75204 
L 117.010369 59.224531 
L 117.168892 57.006678 
L 117.327415 57.167919 
L 117.64446 59.88051 
L 117.802983 58.566037 
L 117.961506 59.64701 
L 118.120028 58.319054 
L 118.278551 59.41351 
L 118.437074 56.062875 
L 118.754119 57.341869 
L 118.912642 57.346997 
L 119.071165 60.563909 
L 119.229688 60.082727 
L 119.38821 56.845118 
L 119.546733 61.160498 
L 119.705256 58.210873 
L 119.863778 59.119552 
L 120.022301 57.425894 
L 120.180824 61.173232 
L 120.339347 60.47175 
L 120.497869 60.845157 
L 120.656392 58.002608 
L 120.814915 59.199001 
L 120.973438 58.594707 
L 121.13196 59.339128 
L 121.290483 62.022644 
L 121.449006 61.003036 
L 121.607528 58.605884 
L 121.766051 60.312816 
L 122.083097 54.981018 
L 122.241619 62.025895 
L 122.400142 59.604857 
L 122.717188 61.69674 
L 122.87571 61.469398 
L 123.034233 58.736957 
L 123.192756 60.673366 
L 123.351278 61.110984 
L 123.509801 58.604166 
L 123.668324 61.922695 
L 123.826847 61.472208 
L 123.985369 57.903592 
L 124.143892 58.387228 
L 124.302415 60.563639 
L 124.460938 57.474954 
L 124.777983 59.1825 
L 124.936506 63.484323 
L 125.253551 57.096518 
L 125.412074 61.294785 
L 125.570597 60.334703 
L 125.729119 61.837836 
L 125.887642 60.88601 
L 126.046165 64.784664 
L 126.204688 64.954051 
L 126.36321 64.064424 
L 126.521733 61.033044 
L 126.680256 61.841737 
L 126.838778 63.931609 
L 126.997301 64.229762 
L 127.155824 63.197089 
L 127.314347 58.432142 
L 127.472869 58.070734 
L 127.789915 64.494166 
L 127.948438 58.759984 
L 128.10696 63.670113 
L 128.265483 65.127424 
L 129.058097 57.554771 
L 129.375142 64.896636 
L 129.533665 64.808231 
L 129.692188 59.981183 
L 130.009233 64.302377 
L 130.167756 66.250146 
L 130.484801 63.807442 
L 130.643324 64.903162 
L 130.801847 64.970858 
L 130.960369 66.115847 
L 131.118892 65.34029 
L 131.277415 63.477564 
L 131.435938 59.444867 
L 131.752983 64.867008 
L 131.911506 62.145252 
L 132.070028 62.2095 
L 132.228551 67.973911 
L 132.545597 63.229194 
L 132.704119 65.355576 
L 133.021165 64.299544 
L 133.33821 68.263415 
L 133.496733 67.706882 
L 133.655256 63.949128 
L 133.972301 66.821279 
L 134.130824 65.12686 
L 134.289347 65.382664 
L 134.606392 67.248408 
L 134.764915 65.995864 
L 134.923438 70.070321 
L 135.08196 66.361946 
L 135.240483 66.371626 
L 135.399006 68.845086 
L 135.557528 65.894382 
L 135.716051 73.758748 
L 135.874574 64.325074 
L 136.033097 72.24937 
L 136.350142 66.477427 
L 136.508665 71.198969 
L 136.667188 66.174452 
L 136.82571 70.292633 
L 136.984233 70.885578 
L 137.301278 74.511498 
L 137.459801 66.423692 
L 137.776847 72.326537 
L 137.935369 67.751489 
L 138.093892 72.289818 
L 138.252415 68.254239 
L 138.410938 73.175862 
L 138.56946 73.039183 
L 138.727983 73.973232 
L 138.886506 70.497622 
L 139.045028 69.770143 
L 139.362074 78.246471 
L 139.520597 77.298926 
L 139.679119 74.352662 
L 139.837642 79.785709 
L 139.996165 58.558933 
L 140.154688 79.689281 
L 140.31321 71.929686 
L 140.471733 81.165609 
L 140.788778 67.941093 
L 140.947301 74.674763 
L 141.105824 68.940999 
L 141.264347 75.325798 
L 141.422869 74.322225 
L 141.581392 74.198954 
L 141.739915 72.658894 
L 141.898438 84.823181 
L 142.05696 74.746201 
L 142.215483 75.087035 
L 142.374006 71.047751 
L 142.532528 75.41078 
L 142.691051 71.562634 
L 142.849574 83.123904 
L 143.008097 72.064991 
L 143.483665 76.689921 
L 143.642188 83.59483 
L 143.959233 76.693504 
L 144.117756 80.757606 
L 144.434801 72.856571 
L 144.593324 77.590172 
L 144.751847 77.932148 
L 144.910369 83.227178 
L 145.227415 68.450713 
L 145.385938 87.769629 
L 145.54446 81.315318 
L 145.702983 88.057501 
L 146.020028 73.96835 
L 146.178551 80.975845 
L 146.495597 78.848629 
L 146.654119 83.329899 
L 146.812642 71.038624 
L 146.971165 86.533279 
L 147.129688 82.211876 
L 147.28821 89.141309 
L 147.446733 69.69597 
L 147.763778 80.415005 
L 147.922301 96.90023 
L 148.080824 79.030162 
L 148.239347 75.450112 
L 148.397869 86.70691 
L 148.556392 84.49778 
L 148.714915 89.36627 
L 148.873438 68.728146 
L 149.03196 82.931073 
L 149.190483 86.107806 
L 149.349006 79.604337 
L 149.507528 80.675569 
L 149.666051 92.427646 
L 149.824574 92.830312 
L 149.983097 81.554572 
L 150.141619 91.764735 
L 150.300142 88.292204 
L 150.458665 80.792031 
L 150.617188 67.690565 
L 150.77571 83.602375 
L 150.934233 85.890267 
L 151.092756 98.164551 
L 151.251278 80.743903 
L 151.409801 92.860369 
L 151.568324 82.2986 
L 151.726847 81.955042 
L 151.885369 79.646331 
L 152.202415 86.942324 
L 152.360938 95.417081 
L 152.51946 96.105982 
L 152.677983 90.869465 
L 152.836506 78.583256 
L 152.995028 86.817901 
L 153.153551 81.42394 
L 153.312074 87.934709 
L 153.470597 70.29278 
L 153.629119 87.768942 
L 153.787642 81.467774 
L 153.946165 93.113425 
L 154.104688 89.692849 
L 154.26321 89.016321 
L 154.421733 78.230596 
L 154.738778 89.491271 
L 154.897301 95.101949 
L 155.055824 92.279496 
L 155.214347 94.07801 
L 155.372869 99.783828 
L 155.531392 95.033167 
L 155.689915 95.574954 
L 155.848438 92.547752 
L 156.00696 93.257012 
L 156.165483 99.142104 
L 156.324006 93.04887 
L 156.482528 82.114565 
L 156.641051 82.84257 
L 156.958097 102.262318 
L 157.275142 82.510643 
L 157.433665 96.706209 
L 157.592188 79.353857 
L 158.226278 106.278667 
L 158.384801 86.592951 
L 158.543324 93.588663 
L 158.701847 106.061195 
L 158.860369 85.325575 
L 159.177415 104.512172 
L 159.335938 95.466313 
L 159.49446 108.076181 
L 159.652983 95.457824 
L 159.811506 103.157152 
L 159.970028 88.431215 
L 160.287074 98.269009 
L 160.445597 81.379014 
L 160.604119 96.945733 
L 160.762642 93.237836 
L 160.921165 105.260151 
L 161.079688 99.953736 
L 161.23821 108.931267 
L 161.396733 110.191386 
L 161.555256 98.326865 
L 161.713778 106.047565 
L 161.872301 94.245495 
L 162.030824 99.493231 
L 162.189347 91.256207 
L 162.664915 109.640159 
L 162.823438 95.610618 
L 162.98196 108.703747 
L 163.299006 97.056214 
L 163.457528 102.128822 
L 163.616051 91.267371 
L 163.774574 104.067445 
L 163.933097 83.718101 
L 164.091619 115.091718 
L 164.250142 99.923452 
L 164.408665 100.400586 
L 164.567188 111.233095 
L 164.72571 113.153568 
L 164.884233 111.01044 
L 165.201278 93.200063 
L 165.518324 115.993221 
L 165.676847 109.472576 
L 165.835369 95.821183 
L 165.993892 102.651434 
L 166.152415 94.19511 
L 166.310938 107.487634 
L 166.46946 94.366834 
L 166.786506 111.314556 
L 166.945028 110.713986 
L 167.103551 100.710725 
L 167.262074 110.47445 
L 167.420597 105.546287 
L 167.579119 106.024439 
L 167.737642 113.95068 
L 167.896165 109.012255 
L 168.054688 115.89664 
L 168.21321 107.362382 
L 168.371733 118.754057 
L 168.530256 104.384148 
L 168.688778 114.783254 
L 168.847301 115.482472 
L 169.005824 114.686366 
L 169.164347 103.016774 
L 169.322869 112.433542 
L 169.639915 108.017515 
L 169.798438 119.052419 
L 169.95696 112.044335 
L 170.274006 109.950967 
L 170.432528 110.057436 
L 170.591051 108.424045 
L 170.749574 110.495809 
L 170.908097 106.894382 
L 171.066619 126.721316 
L 171.225142 114.42214 
L 171.383665 121.056118 
L 171.542188 117.410495 
L 171.70071 120.984436 
L 171.859233 113.507848 
L 172.017756 116.190297 
L 172.176278 128.711582 
L 172.334801 104.119431 
L 172.493324 128.001181 
L 172.651847 125.758142 
L 172.968892 115.803788 
L 173.127415 114.061333 
L 173.285938 120.613796 
L 173.44446 121.831578 
L 173.602983 115.126174 
L 173.761506 115.450961 
L 173.920028 124.354172 
L 174.078551 118.24348 
L 174.237074 128.066313 
L 174.395597 123.481641 
L 174.554119 111.943791 
L 174.712642 125.10253 
L 174.871165 122.961752 
L 175.029688 122.542064 
L 175.18821 111.588529 
L 175.346733 115.021704 
L 175.663778 122.997036 
L 175.822301 127.438771 
L 175.980824 139.10994 
L 176.139347 122.955526 
L 176.297869 135.19998 
L 176.456392 114.144094 
L 176.614915 111.547271 
L 176.773438 116.407474 
L 176.93196 125.838369 
L 177.249006 119.107834 
L 177.407528 115.555768 
L 177.566051 135.349799 
L 177.724574 132.08614 
L 177.883097 125.86347 
L 178.041619 126.836594 
L 178.200142 116.976926 
L 178.517188 128.3071 
L 178.67571 129.876887 
L 178.834233 127.931983 
L 178.992756 134.411192 
L 179.151278 117.139577 
L 179.309801 136.71218 
L 179.468324 123.974895 
L 179.626847 123.494302 
L 179.785369 127.932081 
L 179.943892 124.941069 
L 180.260938 132.562697 
L 180.41946 113.965175 
L 180.577983 133.381819 
L 180.736506 136.074487 
L 180.895028 127.789923 
L 181.212074 139.689918 
L 181.370597 118.708763 
L 181.529119 130.477181 
L 181.687642 124.779841 
L 181.846165 123.763287 
L 182.004688 125.034626 
L 182.16321 138.939308 
L 182.321733 131.478908 
L 182.480256 138.5296 
L 182.638778 120.248633 
L 182.797301 132.113252 
L 182.955824 131.589665 
L 183.114347 140.440521 
L 183.272869 131.123567 
L 183.748438 127.03743 
L 183.90696 135.852617 
L 184.065483 132.137366 
L 184.224006 138.627917 
L 184.541051 130.622774 
L 184.699574 137.676397 
L 184.858097 129.496034 
L 185.016619 127.982325 
L 185.175142 124.422696 
L 185.333665 136.697826 
L 185.492188 134.815269 
L 185.65071 138.996643 
L 185.809233 128.67325 
L 185.967756 137.674901 
L 186.126278 121.849618 
L 186.284801 132.142009 
L 186.443324 128.364791 
L 186.601847 130.535786 
L 186.760369 138.730068 
L 187.077415 133.680193 
L 187.235938 136.665021 
L 187.39446 133.255168 
L 187.552983 137.012879 
L 187.711506 129.869238 
L 187.870028 140.565289 
L 188.028551 125.947869 
L 188.345597 141.488573 
L 188.662642 132.923185 
L 188.821165 132.732409 
L 188.979688 114.858286 
L 189.13821 137.740425 
L 189.296733 130.57026 
L 189.455256 142.58955 
L 189.613778 139.340287 
L 189.772301 131.222111 
L 189.930824 134.505933 
L 190.089347 146.290061 
L 190.247869 125.888135 
L 190.406392 136.421259 
L 190.564915 137.108326 
L 190.723438 120.334051 
L 191.040483 143.428355 
L 191.199006 132.064695 
L 191.357528 128.876246 
L 191.516051 133.850291 
L 191.674574 146.39499 
L 191.833097 127.90944 
L 191.991619 133.615957 
L 192.150142 134.494389 
L 192.308665 152.41713 
L 192.467188 145.415012 
L 192.62571 150.147291 
L 192.784233 123.363376 
L 192.942756 134.596319 
L 193.101278 130.902328 
L 193.259801 148.833201 
L 193.576847 132.528542 
L 193.735369 132.146266 
L 193.893892 142.972992 
L 194.052415 134.520244 
L 194.210938 138.393061 
L 194.36946 138.998845 
L 194.527983 141.364382 
L 194.686506 128.147203 
L 194.845028 136.267956 
L 195.003551 137.8552 
L 195.162074 144.393665 
L 195.479119 126.189724 
L 195.796165 148.548125 
L 196.11321 140.994945 
L 196.588778 133.613178 
L 196.747301 140.004253 
L 196.905824 139.512876 
L 197.064347 139.823359 
L 197.381392 133.872883 
L 197.539915 149.562265 
L 197.85696 136.664193 
L 198.015483 135.729211 
L 198.174006 136.924616 
L 198.332528 133.473854 
L 198.491051 151.772827 
L 198.649574 139.490376 
L 198.808097 145.129832 
L 199.125142 143.223201 
L 199.283665 148.942983 
L 199.442188 132.051402 
L 199.60071 134.711756 
L 199.759233 146.509906 
L 199.917756 147.833802 
L 200.076278 134.574469 
L 200.234801 136.533157 
L 200.393324 135.325514 
L 200.551847 143.814705 
L 200.710369 136.541708 
L 200.868892 148.858707 
L 201.027415 142.871362 
L 201.185938 129.48506 
L 201.34446 142.657945 
L 201.502983 143.447058 
L 201.820028 129.858712 
L 201.978551 139.78591 
L 202.137074 140.857676 
L 202.295597 132.526457 
L 202.612642 145.139091 
L 202.771165 152.870703 
L 202.929688 148.538118 
L 203.08821 133.043346 
L 203.246733 143.070658 
L 203.563778 146.621255 
L 203.722301 137.714386 
L 203.880824 136.279647 
L 204.039347 138.820674 
L 204.197869 133.260413 
L 204.356392 142.120918 
L 204.514915 142.411581 
L 204.673438 137.417079 
L 204.83196 142.889359 
L 204.990483 127.688748 
L 205.149006 149.853389 
L 205.307528 154.706777 
L 205.783097 133.373403 
L 205.941619 139.030037 
L 206.100142 148.891604 
L 206.417188 140.188288 
L 206.57571 148.619471 
L 206.734233 134.518361 
L 206.892756 135.624177 
L 207.051278 135.23116 
L 207.209801 147.985268 
L 207.526847 136.126295 
L 207.685369 138.223466 
L 207.843892 143.137962 
L 208.002415 132.95323 
L 208.160938 144.727702 
L 208.31946 137.708644 
L 208.477983 145.881435 
L 208.636506 135.335476 
L 208.795028 147.599989 
L 208.953551 146.233225 
L 209.112074 142.591132 
L 209.270597 157.141212 
L 209.429119 139.282357 
L 209.587642 155.060444 
L 209.746165 150.725874 
L 209.904688 154.489385 
L 210.06321 130.346145 
L 210.221733 154.012048 
L 210.380256 135.610694 
L 210.538778 157.247135 
L 210.697301 140.585513 
L 210.855824 146.284368 
L 211.014347 147.823644 
L 211.172869 146.200693 
L 211.489915 135.936494 
L 211.648438 151.451533 
L 211.80696 132.374135 
L 211.965483 141.130091 
L 212.124006 138.611754 
L 212.282528 130.233744 
L 212.441051 133.257714 
L 212.599574 156.985535 
L 212.758097 147.403029 
L 212.916619 153.801174 
L 213.075142 139.502846 
L 213.233665 135.491264 
L 213.392188 143.890915 
L 213.55071 144.121023 
L 213.709233 147.517142 
L 213.867756 144.78194 
L 214.026278 151.225035 
L 214.184801 145.217092 
L 214.343324 145.918758 
L 214.501847 147.427977 
L 214.660369 150.264891 
L 214.818892 142.503298 
L 214.977415 143.514214 
L 215.135938 152.722976 
L 215.29446 144.456919 
L 215.452983 149.950479 
L 215.770028 131.941891 
L 215.928551 149.456814 
L 216.087074 134.706058 
L 216.404119 146.049236 
L 216.562642 152.905063 
L 216.879688 142.343511 
L 217.03821 147.277498 
L 217.355256 139.613131 
L 217.513778 153.742259 
L 217.672301 143.903514 
L 217.830824 145.718489 
L 217.989347 152.539463 
L 218.147869 132.683839 
L 218.306392 147.240393 
L 218.464915 144.952057 
L 218.623438 144.315197 
L 218.78196 146.581828 
L 218.940483 134.283677 
L 219.257528 147.944329 
L 219.416051 145.534433 
L 219.574574 147.000728 
L 219.733097 145.551357 
L 219.891619 152.288483 
L 220.050142 145.648653 
L 220.208665 144.737775 
L 220.367188 157.946679 
L 220.52571 151.248111 
L 220.684233 160.54379 
L 221.001278 137.83189 
L 221.159801 142.691461 
L 221.318324 156.713884 
L 221.476847 151.204851 
L 221.635369 152.092668 
L 221.793892 148.292306 
L 221.952415 148.446217 
L 222.110938 149.909077 
L 222.26946 153.593415 
L 222.427983 150.715553 
L 222.745028 152.692336 
L 222.903551 142.229773 
L 223.220597 145.322304 
L 223.537642 151.358341 
L 223.696165 147.700812 
L 223.854688 153.210584 
L 224.171733 139.23767 
L 224.488778 157.805212 
L 224.647301 148.998328 
L 224.805824 146.932217 
L 224.964347 146.349531 
L 225.122869 157.81917 
L 225.281392 157.200216 
L 225.439915 147.051233 
L 225.75696 158.798188 
L 225.915483 145.759793 
L 226.074006 151.104663 
L 226.232528 152.015424 
L 226.391051 159.603661 
L 226.708097 151.115305 
L 226.866619 157.294494 
L 227.183665 149.576051 
L 227.342188 152.059286 
L 227.50071 147.15946 
L 227.817756 155.07688 
L 227.976278 153.574964 
L 228.134801 157.135164 
L 228.293324 144.64104 
L 228.451847 168.035428 
L 228.610369 151.291314 
L 228.768892 154.701747 
L 228.927415 155.53858 
L 229.085938 137.295213 
L 229.24446 147.604111 
L 229.402983 149.630586 
L 229.561506 137.03879 
L 229.720028 159.826574 
L 230.037074 154.874906 
L 230.195597 148.462423 
L 230.512642 155.458386 
L 230.671165 155.160095 
L 230.829688 157.311985 
L 230.98821 164.11021 
L 231.146733 156.426851 
L 231.305256 154.5203 
L 231.463778 158.337433 
L 231.780824 145.403667 
L 231.939347 160.343086 
L 232.097869 154.010601 
L 232.414915 170.233949 
L 232.573438 154.176144 
L 232.890483 161.261362 
L 233.049006 159.983328 
L 233.366051 137.347107 
L 233.841619 165.32252 
L 234.000142 164.448759 
L 234.158665 153.436965 
L 234.317188 156.208665 
L 234.47571 163.614177 
L 234.634233 152.07732 
L 234.792756 164.005421 
L 234.951278 159.74131 
L 235.268324 164.026611 
L 235.743892 149.84807 
L 236.060938 170.979628 
L 236.21946 158.245237 
L 236.377983 164.915738 
L 236.536506 136.047852 
L 236.695028 158.947014 
L 236.853551 152.6863 
L 237.012074 163.160343 
L 237.170597 164.457602 
L 237.329119 169.442038 
L 237.646165 160.94737 
L 237.804688 171.850109 
L 238.121733 160.359157 
L 238.280256 164.537375 
L 238.438778 157.96337 
L 238.597301 158.279975 
L 238.755824 160.18521 
L 238.914347 163.457764 
L 239.231392 143.422939 
L 239.865483 167.501284 
L 240.024006 160.805167 
L 240.341051 162.19604 
L 240.658097 152.06232 
L 240.816619 174.553516 
L 240.975142 162.672478 
L 241.133665 169.4305 
L 241.292188 160.941239 
L 241.45071 161.25966 
L 241.609233 168.540751 
L 241.767756 166.459581 
L 241.926278 166.632454 
L 242.243324 156.9844 
L 242.401847 162.542319 
L 242.560369 162.934272 
L 242.718892 167.534033 
L 242.877415 152.976982 
L 243.035938 158.388827 
L 243.19446 168.292884 
L 243.352983 155.70375 
L 243.511506 163.959575 
L 243.670028 162.067577 
L 243.828551 164.693558 
L 243.987074 163.973548 
L 244.145597 160.889237 
L 244.304119 155.519697 
L 244.462642 155.169032 
L 244.621165 166.966624 
L 244.779688 169.473301 
L 245.096733 170.394386 
L 245.255256 169.55001 
L 245.413778 161.635283 
L 245.572301 163.567294 
L 245.730824 169.449519 
L 245.889347 165.584642 
L 246.047869 166.848598 
L 246.206392 165.577054 
L 246.364915 180.712421 
L 246.523438 173.673934 
L 246.68196 158.528433 
L 246.999006 168.324687 
L 247.316051 156.688409 
L 247.474574 143.184274 
L 247.633097 156.759049 
L 247.791619 159.27477 
L 247.950142 157.603986 
L 248.108665 161.148028 
L 248.267188 178.774604 
L 248.42571 179.338313 
L 248.584233 166.953967 
L 248.742756 166.249651 
L 248.901278 166.316929 
L 249.059801 166.144405 
L 249.218324 145.486716 
L 249.376847 170.699316 
L 249.535369 164.062468 
L 250.16946 176.307557 
L 250.327983 170.416827 
L 250.486506 170.112377 
L 250.803551 177.961083 
L 250.962074 173.220677 
L 251.120597 175.440278 
L 251.279119 172.0149 
L 251.437642 161.588824 
L 251.754688 177.067175 
L 251.91321 177.716572 
L 252.071733 176.001664 
L 252.230256 171.054894 
L 252.388778 180.931978 
L 252.547301 174.104733 
L 252.705824 177.365974 
L 252.864347 177.045486 
L 253.022869 171.526435 
L 253.181392 170.800206 
L 253.339915 178.815371 
L 253.498438 179.845893 
L 253.815483 169.163161 
L 254.132528 177.710086 
L 254.291051 174.068931 
L 254.449574 178.752732 
L 254.766619 180.850591 
L 254.925142 181.529414 
L 255.242188 172.120435 
L 255.40071 178.719474 
L 255.559233 173.301135 
L 255.717756 179.443355 
L 256.034801 176.095888 
L 256.193324 180.042795 
L 256.351847 179.642265 
L 256.510369 183.09582 
L 256.668892 178.604771 
L 256.827415 178.287415 
L 256.985938 176.632262 
L 257.14446 181.33531 
L 257.302983 176.186088 
L 257.461506 180.953426 
L 257.620028 167.964137 
L 257.778551 167.293571 
L 257.937074 180.075791 
L 258.095597 179.654053 
L 258.254119 179.669594 
L 258.412642 179.864997 
L 258.571165 180.963783 
L 258.88821 163.989632 
L 259.046733 165.637288 
L 259.363778 183.430676 
L 259.522301 181.736625 
L 259.680824 160.55742 
L 259.839347 163.67745 
L 259.997869 176.23606 
L 260.156392 176.226406 
L 260.314915 175.415095 
L 260.473438 181.669108 
L 260.790483 181.185224 
L 260.949006 175.322275 
L 261.107528 176.814521 
L 261.266051 185.209064 
L 261.583097 170.887119 
L 261.741619 179.936959 
L 261.900142 182.5014 
L 262.058665 180.227441 
L 262.37571 184.014395 
L 262.692756 178.603301 
L 262.851278 183.482078 
L 263.009801 177.07641 
L 263.168324 183.374216 
L 263.326847 178.777096 
L 263.485369 188.086061 
L 263.643892 178.130579 
L 263.802415 175.984097 
L 263.960938 182.791264 
L 264.11946 181.274709 
L 264.277983 184.309629 
L 264.436506 177.412736 
L 264.595028 182.265315 
L 264.753551 183.393928 
L 264.912074 183.43938 
L 265.070597 181.694563 
L 265.229119 182.999227 
L 265.387642 182.813698 
L 265.704688 176.625898 
L 265.86321 177.26875 
L 266.021733 183.221107 
L 266.180256 182.884798 
L 266.338778 180.178657 
L 266.497301 187.46136 
L 266.655824 183.427003 
L 266.814347 175.677336 
L 266.972869 182.121282 
L 267.289915 182.588655 
L 267.448438 181.425011 
L 267.60696 182.997977 
L 267.765483 182.899867 
L 268.082528 178.422066 
L 268.241051 184.610548 
L 268.399574 183.903713 
L 268.558097 183.985974 
L 268.716619 179.57922 
L 268.875142 179.771915 
L 269.033665 177.392203 
L 269.192188 183.356642 
L 269.35071 182.83443 
L 269.509233 181.599729 
L 269.667756 185.208261 
L 269.984801 185.817576 
L 270.143324 184.568688 
L 270.301847 186.605461 
L 270.460369 179.34065 
L 270.618892 183.35599 
L 270.777415 180.739917 
L 270.935938 181.235237 
L 271.09446 184.919512 
L 271.252983 180.350099 
L 271.411506 187.74486 
L 271.570028 182.87868 
L 271.728551 187.121455 
L 271.887074 184.049377 
L 272.045597 183.584697 
L 272.204119 183.77377 
L 272.362642 182.483526 
L 272.521165 184.219264 
L 272.996733 168.230025 
L 273.313778 185.733413 
L 273.472301 189.413886 
L 273.789347 183.68804 
L 273.947869 174.655888 
L 274.106392 175.737549 
L 274.423438 187.519374 
L 274.58196 187.304937 
L 274.740483 185.635752 
L 274.899006 180.568518 
L 275.216051 183.921623 
L 275.374574 184.290196 
L 275.533097 188.429733 
L 276.167188 180.802828 
L 276.32571 182.630734 
L 276.484233 182.608001 
L 276.642756 183.204729 
L 276.801278 187.907436 
L 276.959801 185.593703 
L 277.118324 185.390345 
L 277.276847 187.448168 
L 277.752415 166.481556 
L 278.06946 186.104546 
L 278.227983 185.892919 
L 278.386506 187.587629 
L 278.545028 181.186213 
L 278.703551 188.174112 
L 278.862074 188.272003 
L 279.020597 182.685272 
L 279.179119 186.742518 
L 279.337642 187.457037 
L 279.496165 184.929165 
L 279.654688 187.481872 
L 279.81321 183.862924 
L 279.971733 183.952036 
L 280.130256 188.133861 
L 280.288778 183.73529 
L 280.447301 185.319762 
L 280.605824 183.524056 
L 280.922869 187.139802 
L 281.081392 186.054982 
L 281.239915 183.273141 
L 281.398438 187.431332 
L 281.715483 184.697762 
L 281.874006 186.201746 
L 282.191051 183.266701 
L 282.349574 185.209597 
L 282.508097 184.071148 
L 282.666619 181.937691 
L 282.825142 182.987678 
L 282.983665 188.632324 
L 283.142188 182.738077 
L 283.30071 189.353046 
L 283.459233 189.957574 
L 283.617756 183.879026 
L 283.776278 186.752458 
L 284.251847 181.41366 
L 284.410369 182.602822 
L 284.568892 167.61328 
L 284.727415 168.030913 
L 284.885938 186.369271 
L 285.04446 187.824097 
L 285.202983 187.78831 
L 285.361506 187.978221 
L 285.520028 190.975514 
L 285.837074 187.947063 
L 285.995597 187.876092 
L 286.154119 179.554655 
L 286.312642 186.934823 
L 286.629688 188.586844 
L 286.78821 183.85804 
L 286.946733 186.276259 
L 287.263778 181.636432 
L 287.422301 185.412364 
L 287.580824 185.353028 
L 287.897869 188.859699 
L 288.214915 180.448428 
L 288.373438 175.552477 
L 288.690483 186.107785 
L 288.849006 184.874069 
L 289.007528 184.61859 
L 289.166051 186.183207 
L 289.483097 190.673463 
L 289.641619 188.821669 
L 289.800142 185.321304 
L 289.958665 186.559118 
L 290.117188 184.51678 
L 290.27571 180.833891 
L 290.592756 188.51784 
L 290.751278 185.647014 
L 290.909801 189.09295 
L 291.068324 185.233517 
L 291.226847 191.640889 
L 291.385369 190.121484 
L 291.543892 186.623216 
L 291.702415 186.540196 
L 291.860938 189.322894 
L 292.01946 186.396778 
L 292.177983 191.060154 
L 292.336506 182.343767 
L 292.653551 189.442624 
L 292.812074 184.191229 
L 292.970597 189.406673 
L 293.287642 186.536306 
L 293.446165 186.902142 
L 293.604688 187.586182 
L 293.76321 185.265394 
L 293.921733 187.803965 
L 294.080256 185.937742 
L 294.238778 190.221332 
L 294.397301 181.436606 
L 294.555824 179.017117 
L 294.714347 180.013314 
L 294.872869 179.62854 
L 295.031392 187.432766 
L 295.189915 188.907449 
L 295.348438 187.466676 
L 295.50696 187.51508 
L 295.665483 184.128509 
L 295.824006 183.618888 
L 295.982528 179.723005 
L 296.141051 188.236703 
L 296.299574 185.533231 
L 296.458097 185.578674 
L 296.616619 192.218785 
L 296.775142 189.27656 
L 296.933665 189.354849 
L 297.092188 191.529297 
L 297.25071 190.304046 
L 297.409233 185.148567 
L 297.567756 188.640771 
L 297.726278 183.423528 
L 298.043324 189.047835 
L 298.201847 187.926814 
L 298.360369 187.986756 
L 298.518892 185.204345 
L 298.677415 189.783474 
L 298.835938 183.748007 
L 298.99446 187.203661 
L 299.152983 187.696697 
L 299.311506 189.2775 
L 299.470028 186.736563 
L 299.628551 190.914567 
L 299.787074 184.133096 
L 299.945597 189.943708 
L 300.104119 190.478493 
L 300.262642 189.932292 
L 300.421165 190.875467 
L 300.579688 186.049364 
L 300.896733 191.049793 
L 301.055256 191.668101 
L 301.372301 182.142362 
L 301.530824 181.973637 
L 301.689347 169.348334 
L 302.006392 188.155759 
L 302.164915 184.643585 
L 302.48196 192.718214 
L 302.640483 189.676477 
L 302.957528 191.180472 
L 303.274574 187.919008 
L 303.750142 183.577011 
L 304.067188 191.0289 
L 304.384233 183.305723 
L 304.542756 190.992663 
L 304.701278 187.525737 
L 305.018324 188.546232 
L 305.176847 185.560655 
L 305.493892 192.850512 
L 305.810938 184.286369 
L 305.96946 186.727154 
L 306.127983 193.023081 
L 306.286506 187.73949 
L 306.445028 191.470165 
L 306.603551 184.362659 
L 306.762074 188.436593 
L 306.920597 186.711588 
L 307.079119 189.781047 
L 307.237642 188.720197 
L 307.396165 190.077365 
L 307.554688 187.460818 
L 307.71321 191.970142 
L 307.871733 187.447903 
L 308.030256 190.292885 
L 308.188778 187.107283 
L 308.347301 191.000531 
L 308.505824 187.968381 
L 308.664347 189.919934 
L 308.981392 189.148014 
L 309.139915 190.188783 
L 309.298438 189.395333 
L 309.45696 192.01826 
L 309.615483 192.328077 
L 310.091051 186.009561 
L 310.249574 186.270621 
L 310.408097 190.326397 
L 310.725142 184.694928 
L 310.883665 183.630987 
L 311.042188 189.842516 
L 311.359233 191.321563 
L 311.517756 190.416651 
L 311.676278 188.073108 
L 311.834801 187.697757 
L 312.151847 190.958498 
L 312.310369 186.816229 
L 312.468892 186.463726 
L 312.785938 189.377445 
L 312.94446 188.030075 
L 313.102983 190.008307 
L 313.261506 188.189836 
L 313.578551 182.554417 
L 313.737074 189.401213 
L 313.895597 190.869634 
L 314.054119 187.198782 
L 314.371165 192.083253 
L 314.68821 185.464452 
L 314.846733 185.92546 
L 315.005256 188.065177 
L 315.163778 187.657327 
L 315.322301 190.783695 
L 315.480824 188.273573 
L 315.639347 192.016238 
L 315.797869 186.135793 
L 316.114915 191.728432 
L 316.273438 191.566287 
L 316.590483 190.887758 
L 316.749006 190.998034 
L 316.907528 192.216051 
L 317.224574 187.744689 
L 317.383097 190.745094 
L 317.541619 190.271573 
L 317.700142 191.344288 
L 317.858665 189.933947 
L 318.017188 186.216492 
L 318.17571 187.309444 
L 318.334233 191.470651 
L 318.492756 189.547136 
L 318.651278 190.377512 
L 318.809801 188.535302 
L 318.968324 189.087068 
L 319.126847 192.12895 
L 319.285369 190.362122 
L 319.443892 185.30503 
L 319.602415 189.582529 
L 319.760938 187.82447 
L 319.91946 188.851037 
L 320.077983 188.841935 
L 320.236506 187.401128 
L 320.395028 189.346377 
L 320.553551 187.472541 
L 320.712074 191.234844 
L 321.029119 193.433389 
L 321.187642 189.781687 
L 321.346165 189.579715 
L 321.504688 190.559547 
L 321.66321 192.295143 
L 321.821733 190.142497 
L 321.980256 189.59173 
L 322.138778 190.812755 
L 322.297301 188.633768 
L 322.455824 191.940351 
L 322.614347 190.144856 
L 322.931392 191.26271 
L 323.248438 186.836433 
L 323.40696 191.114514 
L 323.724006 188.167673 
L 324.041051 190.502046 
L 324.199574 190.907245 
L 324.358097 191.951403 
L 324.516619 189.677543 
L 324.675142 190.248117 
L 324.833665 180.208562 
L 325.15071 189.802962 
L 325.309233 189.528145 
L 325.467756 188.518304 
L 325.626278 191.323823 
L 325.784801 190.880335 
L 325.943324 191.940375 
L 326.260369 190.713149 
L 326.418892 191.001244 
L 326.735938 193.067049 
L 327.052983 187.698651 
L 327.211506 188.843289 
L 327.528551 191.692988 
L 327.687074 191.519308 
L 327.845597 186.71987 
L 328.162642 192.079131 
L 328.479688 185.864594 
L 328.796733 193.078463 
L 328.955256 193.450387 
L 329.272301 188.235455 
L 329.430824 192.769221 
L 329.589347 191.976214 
L 329.747869 187.665299 
L 329.906392 192.591454 
L 330.064915 191.351713 
L 330.223438 192.283278 
L 330.38196 187.524706 
L 330.540483 190.340103 
L 330.699006 190.660429 
L 330.857528 190.422461 
L 331.016051 189.810363 
L 331.174574 192.18995 
L 331.333097 191.260403 
L 331.491619 192.264688 
L 331.650142 186.768807 
L 331.967188 193.893476 
L 332.12571 191.095201 
L 332.284233 190.876595 
L 332.442756 188.676466 
L 332.601278 192.773123 
L 332.918324 189.066023 
L 333.076847 191.646871 
L 333.235369 188.213828 
L 333.393892 189.322255 
L 333.710938 192.899543 
L 333.86946 192.567459 
L 334.027983 191.01279 
L 334.186506 192.163858 
L 334.662074 180.098118 
L 334.820597 172.523638 
L 335.137642 190.733493 
L 335.296165 191.697134 
L 335.454688 187.977084 
L 335.771733 192.24208 
L 335.930256 192.939391 
L 336.088778 189.664772 
L 336.247301 193.569586 
L 336.405824 191.788899 
L 336.564347 188.587956 
L 336.722869 189.408404 
L 336.881392 186.07139 
L 337.039915 190.030219 
L 337.198438 190.259683 
L 337.35696 189.617573 
L 337.515483 190.853889 
L 337.674006 193.150074 
L 337.832528 192.798963 
L 337.991051 190.616896 
L 338.149574 192.744883 
L 338.308097 190.172299 
L 338.625142 192.529374 
L 338.783665 190.242224 
L 338.942188 191.230197 
L 339.10071 185.449437 
L 339.259233 191.211272 
L 339.417756 190.58718 
L 339.576278 193.442074 
L 339.734801 192.02277 
L 339.893324 193.589958 
L 340.051847 191.924456 
L 340.210369 192.840506 
L 340.368892 190.419096 
L 340.685938 193.901581 
L 340.84446 191.870414 
L 341.002983 184.36809 
L 341.161506 192.441532 
L 341.478551 188.947176 
L 341.637074 187.3017 
L 341.954119 192.235368 
L 342.112642 190.0234 
L 342.271165 191.119565 
L 342.429688 191.099247 
L 342.58821 194.24037 
L 342.905256 191.145299 
L 343.063778 192.476141 
L 343.222301 188.352225 
L 343.380824 191.881387 
L 343.539347 191.854136 
L 343.697869 192.098077 
L 343.856392 193.059981 
L 344.014915 190.571469 
L 344.173438 190.87701 
L 344.33196 186.956939 
L 344.490483 187.816752 
L 344.807528 191.6199 
L 344.966051 184.632891 
L 345.124574 192.497476 
L 345.283097 191.118344 
L 345.441619 191.731326 
L 345.600142 190.127901 
L 346.07571 193.12584 
L 346.234233 192.199897 
L 346.392756 192.233457 
L 346.551278 194.376262 
L 346.709801 193.752236 
L 346.868324 191.925053 
L 347.026847 193.270977 
L 347.185369 189.472113 
L 347.502415 193.618929 
L 347.81946 186.199912 
L 347.977983 185.958908 
L 348.136506 184.664175 
L 348.295028 192.019624 
L 348.612074 192.326217 
L 348.770597 193.000104 
L 348.929119 187.590866 
L 349.246165 190.243384 
L 349.404688 194.137317 
L 349.56321 192.030624 
L 349.721733 191.598525 
L 349.880256 191.564005 
L 350.038778 188.50232 
L 350.197301 192.424966 
L 350.355824 193.467356 
L 350.514347 188.818992 
L 350.672869 191.490673 
L 350.831392 191.817193 
L 350.989915 189.234393 
L 351.148438 188.579542 
L 351.30696 192.544769 
L 351.782528 187.303666 
L 352.099574 193.329416 
L 352.258097 193.179897 
L 352.416619 193.218537 
L 352.575142 188.273725 
L 352.733665 191.712544 
L 353.05071 192.596959 
L 353.367756 184.647148 
L 353.526278 192.367667 
L 353.684801 191.211897 
L 353.843324 194.7255 
L 354.160369 192.036363 
L 354.477415 189.513377 
L 354.635938 191.274311 
L 354.79446 190.042002 
L 354.952983 190.117517 
L 355.111506 193.597075 
L 355.270028 193.53492 
L 355.428551 191.64438 
L 355.587074 168.762041 
L 355.904119 186.470815 
L 356.062642 191.664223 
L 356.221165 186.214909 
L 356.379688 185.612721 
L 356.53821 183.643949 
L 356.696733 193.296853 
L 356.855256 188.681563 
L 357.013778 189.076838 
L 357.330824 194.133584 
L 357.647869 191.804172 
L 357.806392 192.875383 
L 357.964915 190.698265 
L 358.28196 194.136789 
L 358.440483 192.656829 
L 358.757528 183.366237 
L 358.916051 184.414411 
L 359.074574 191.352301 
L 359.233097 188.87414 
L 359.391619 194.344857 
L 359.550142 192.754945 
L 359.708665 186.738655 
L 359.867188 193.626514 
L 360.02571 192.837033 
L 360.184233 191.326882 
L 360.342756 192.165192 
L 360.659801 191.412736 
L 360.818324 186.912294 
L 360.976847 189.559045 
L 361.135369 189.668319 
L 361.293892 194.428958 
L 361.452415 187.727194 
L 361.610938 193.031222 
L 361.76946 193.361651 
L 361.927983 192.432197 
L 362.086506 193.353115 
L 362.245028 192.071918 
L 362.403551 191.945226 
L 362.720597 185.263335 
L 362.879119 192.481903 
L 363.196165 177.038903 
L 363.354688 189.869906 
L 363.51321 193.1649 
L 363.671733 193.632815 
L 363.830256 188.652783 
L 363.988778 187.538107 
L 364.147301 191.708706 
L 364.305824 187.598666 
L 364.464347 187.762875 
L 364.781392 193.567917 
L 364.939915 190.550842 
L 365.098438 193.170091 
L 365.25696 192.410782 
L 365.415483 192.807935 
L 365.574006 189.779982 
L 365.574006 189.779982 
" clip-path="url(#p2427b3f1d8)" style="fill: none; stroke: #486afb; stroke-opacity: 0.25; stroke-width: 2; stroke-linecap: square"/>
   </g>
   <g id="line2d_28">
    <path d="M 61.210369 43.892736 
L 65.014915 49.437104 
L 68.81946 52.795811 
L 72.624006 53.589881 
L 76.428551 53.833404 
L 80.233097 53.963422 
L 84.037642 54.075995 
L 87.842188 54.201695 
L 91.646733 54.364469 
L 95.451278 54.567753 
L 99.255824 54.821005 
L 103.060369 55.148773 
L 106.864915 55.62987 
L 110.66946 56.194096 
L 114.474006 56.884217 
L 118.278551 57.77404 
L 122.083097 58.868864 
L 125.887642 60.223553 
L 129.692188 62.096339 
L 133.496733 64.632391 
L 137.301278 68.170386 
L 141.105824 72.353784 
L 144.910369 76.741546 
L 148.714915 80.869909 
L 152.51946 84.975748 
L 156.324006 89.202331 
L 160.128551 93.451272 
L 163.933097 99.215327 
L 167.737642 105.525401 
L 171.542188 112.559629 
L 175.346733 119.254163 
L 179.151278 124.676205 
L 182.955824 129.072469 
L 186.760369 132.342765 
L 190.564915 134.418829 
L 194.36946 136.766271 
L 198.174006 138.39995 
L 201.978551 140.363888 
L 205.783097 141.440328 
L 209.587642 142.33098 
L 213.392188 143.526783 
L 217.196733 145.383814 
L 221.001278 146.448492 
L 224.805824 149.119522 
L 228.610369 153.2514 
L 232.414915 154.251453 
L 236.21946 157.45628 
L 240.024006 159.477542 
L 243.828551 162.538424 
L 247.633097 164.13117 
L 251.437642 168.472892 
L 255.242188 175.937207 
L 259.046733 176.550159 
L 262.851278 178.099776 
L 266.655824 181.459572 
L 270.460369 182.229992 
L 274.264915 181.724744 
L 278.06946 183.173053 
L 281.874006 185.671902 
L 285.678551 184.212672 
L 289.483097 185.191409 
L 293.287642 186.866576 
L 297.092188 186.013867 
L 300.896733 187.993905 
L 304.701278 186.521273 
L 308.505824 188.610474 
L 312.310369 188.936139 
L 316.114915 188.388049 
L 319.91946 189.712531 
L 323.724006 189.983318 
L 327.528551 189.909061 
L 331.333097 190.455641 
L 335.137642 189.136124 
L 338.942188 190.847052 
L 342.746733 190.987671 
L 346.551278 190.996029 
L 350.355824 190.824971 
L 354.160369 190.907665 
L 357.964915 189.076042 
L 361.76946 190.732176 
L 365.574006 189.931973 
" clip-path="url(#p2427b3f1d8)" style="fill: none; stroke: #fd46fc; stroke-width: 2; stroke-linecap: square"/>
    <defs>
     <path id="mbf0c5f86ba" d="M 0 2 
C 0.530406 2 1.03916 1.789267 1.414214 1.414214 
C 1.789267 1.03916 2 0.530406 2 0 
C 2 -0.530406 1.789267 -1.03916 1.414214 -1.414214 
C 1.03916 -1.789267 0.530406 -2 0 -2 
C -0.530406 -2 -1.03916 -1.789267 -1.414214 -1.414214 
C -1.789267 -1.03916 -2 -0.530406 -2 0 
C -2 0.530406 -1.789267 1.03916 -1.414214 1.414214 
C -1.03916 1.789267 -0.530406 2 0 2 
z
" style="stroke: #fd46fc"/>
    </defs>
    <g clip-path="url(#p2427b3f1d8)">
     <use xlink:href="#mbf0c5f86ba" x="61.210369" y="43.892736" style="fill: #fd46fc; stroke: #fd46fc"/>
     <use xlink:href="#mbf0c5f86ba" x="65.014915" y="49.437104" style="fill: #fd46fc; stroke: #fd46fc"/>
     <use xlink:href="#mbf0c5f86ba" x="68.81946" y="52.795811" style="fill: #fd46fc; stroke: #fd46fc"/>
     <use xlink:href="#mbf0c5f86ba" x="72.624006" y="53.589881" style="fill: #fd46fc; stroke: #fd46fc"/>
     <use xlink:href="#mbf0c5f86ba" x="76.428551" y="53.833404" style="fill: #fd46fc; stroke: #fd46fc"/>
     <use xlink:href="#mbf0c5f86ba" x="80.233097" y="53.963422" style="fill: #fd46fc; stroke: #fd46fc"/>
     <use xlink:href="#mbf0c5f86ba" x="84.037642" y="54.075995" style="fill: #fd46fc; stroke: #fd46fc"/>
     <use xlink:href="#mbf0c5f86ba" x="87.842188" y="54.201695" style="fill: #fd46fc; stroke: #fd46fc"/>
     <use xlink:href="#mbf0c5f86ba" x="91.646733" y="54.364469" style="fill: #fd46fc; stroke: #fd46fc"/>
     <use xlink:href="#mbf0c5f86ba" x="95.451278" y="54.567753" style="fill: #fd46fc; stroke: #fd46fc"/>
     <use xlink:href="#mbf0c5f86ba" x="99.255824" y="54.821005" style="fill: #fd46fc; stroke: #fd46fc"/>
     <use xlink:href="#mbf0c5f86ba" x="103.060369" y="55.148773" style="fill: #fd46fc; stroke: #fd46fc"/>
     <use xlink:href="#mbf0c5f86ba" x="106.864915" y="55.62987" style="fill: #fd46fc; stroke: #fd46fc"/>
     <use xlink:href="#mbf0c5f86ba" x="110.66946" y="56.194096" style="fill: #fd46fc; stroke: #fd46fc"/>
     <use xlink:href="#mbf0c5f86ba" x="114.474006" y="56.884217" style="fill: #fd46fc; stroke: #fd46fc"/>
     <use xlink:href="#mbf0c5f86ba" x="118.278551" y="57.77404" style="fill: #fd46fc; stroke: #fd46fc"/>
     <use xlink:href="#mbf0c5f86ba" x="122.083097" y="58.868864" style="fill: #fd46fc; stroke: #fd46fc"/>
     <use xlink:href="#mbf0c5f86ba" x="125.887642" y="60.223553" style="fill: #fd46fc; stroke: #fd46fc"/>
     <use xlink:href="#mbf0c5f86ba" x="129.692188" y="62.096339" style="fill: #fd46fc; stroke: #fd46fc"/>
     <use xlink:href="#mbf0c5f86ba" x="133.496733" y="64.632391" style="fill: #fd46fc; stroke: #fd46fc"/>
     <use xlink:href="#mbf0c5f86ba" x="137.301278" y="68.170386" style="fill: #fd46fc; stroke: #fd46fc"/>
     <use xlink:href="#mbf0c5f86ba" x="141.105824" y="72.353784" style="fill: #fd46fc; stroke: #fd46fc"/>
     <use xlink:href="#mbf0c5f86ba" x="144.910369" y="76.741546" style="fill: #fd46fc; stroke: #fd46fc"/>
     <use xlink:href="#mbf0c5f86ba" x="148.714915" y="80.869909" style="fill: #fd46fc; stroke: #fd46fc"/>
     <use xlink:href="#mbf0c5f86ba" x="152.51946" y="84.975748" style="fill: #fd46fc; stroke: #fd46fc"/>
     <use xlink:href="#mbf0c5f86ba" x="156.324006" y="89.202331" style="fill: #fd46fc; stroke: #fd46fc"/>
     <use xlink:href="#mbf0c5f86ba" x="160.128551" y="93.451272" style="fill: #fd46fc; stroke: #fd46fc"/>
     <use xlink:href="#mbf0c5f86ba" x="163.933097" y="99.215327" style="fill: #fd46fc; stroke: #fd46fc"/>
     <use xlink:href="#mbf0c5f86ba" x="167.737642" y="105.525401" style="fill: #fd46fc; stroke: #fd46fc"/>
     <use xlink:href="#mbf0c5f86ba" x="171.542188" y="112.559629" style="fill: #fd46fc; stroke: #fd46fc"/>
     <use xlink:href="#mbf0c5f86ba" x="175.346733" y="119.254163" style="fill: #fd46fc; stroke: #fd46fc"/>
     <use xlink:href="#mbf0c5f86ba" x="179.151278" y="124.676205" style="fill: #fd46fc; stroke: #fd46fc"/>
     <use xlink:href="#mbf0c5f86ba" x="182.955824" y="129.072469" style="fill: #fd46fc; stroke: #fd46fc"/>
     <use xlink:href="#mbf0c5f86ba" x="186.760369" y="132.342765" style="fill: #fd46fc; stroke: #fd46fc"/>
     <use xlink:href="#mbf0c5f86ba" x="190.564915" y="134.418829" style="fill: #fd46fc; stroke: #fd46fc"/>
     <use xlink:href="#mbf0c5f86ba" x="194.36946" y="136.766271" style="fill: #fd46fc; stroke: #fd46fc"/>
     <use xlink:href="#mbf0c5f86ba" x="198.174006" y="138.39995" style="fill: #fd46fc; stroke: #fd46fc"/>
     <use xlink:href="#mbf0c5f86ba" x="201.978551" y="140.363888" style="fill: #fd46fc; stroke: #fd46fc"/>
     <use xlink:href="#mbf0c5f86ba" x="205.783097" y="141.440328" style="fill: #fd46fc; stroke: #fd46fc"/>
     <use xlink:href="#mbf0c5f86ba" x="209.587642" y="142.33098" style="fill: #fd46fc; stroke: #fd46fc"/>
     <use xlink:href="#mbf0c5f86ba" x="213.392188" y="143.526783" style="fill: #fd46fc; stroke: #fd46fc"/>
     <use xlink:href="#mbf0c5f86ba" x="217.196733" y="145.383814" style="fill: #fd46fc; stroke: #fd46fc"/>
     <use xlink:href="#mbf0c5f86ba" x="221.001278" y="146.448492" style="fill: #fd46fc; stroke: #fd46fc"/>
     <use xlink:href="#mbf0c5f86ba" x="224.805824" y="149.119522" style="fill: #fd46fc; stroke: #fd46fc"/>
     <use xlink:href="#mbf0c5f86ba" x="228.610369" y="153.2514" style="fill: #fd46fc; stroke: #fd46fc"/>
     <use xlink:href="#mbf0c5f86ba" x="232.414915" y="154.251453" style="fill: #fd46fc; stroke: #fd46fc"/>
     <use xlink:href="#mbf0c5f86ba" x="236.21946" y="157.45628" style="fill: #fd46fc; stroke: #fd46fc"/>
     <use xlink:href="#mbf0c5f86ba" x="240.024006" y="159.477542" style="fill: #fd46fc; stroke: #fd46fc"/>
     <use xlink:href="#mbf0c5f86ba" x="243.828551" y="162.538424" style="fill: #fd46fc; stroke: #fd46fc"/>
     <use xlink:href="#mbf0c5f86ba" x="247.633097" y="164.13117" style="fill: #fd46fc; stroke: #fd46fc"/>
     <use xlink:href="#mbf0c5f86ba" x="251.437642" y="168.472892" style="fill: #fd46fc; stroke: #fd46fc"/>
     <use xlink:href="#mbf0c5f86ba" x="255.242188" y="175.937207" style="fill: #fd46fc; stroke: #fd46fc"/>
     <use xlink:href="#mbf0c5f86ba" x="259.046733" y="176.550159" style="fill: #fd46fc; stroke: #fd46fc"/>
     <use xlink:href="#mbf0c5f86ba" x="262.851278" y="178.099776" style="fill: #fd46fc; stroke: #fd46fc"/>
     <use xlink:href="#mbf0c5f86ba" x="266.655824" y="181.459572" style="fill: #fd46fc; stroke: #fd46fc"/>
     <use xlink:href="#mbf0c5f86ba" x="270.460369" y="182.229992" style="fill: #fd46fc; stroke: #fd46fc"/>
     <use xlink:href="#mbf0c5f86ba" x="274.264915" y="181.724744" style="fill: #fd46fc; stroke: #fd46fc"/>
     <use xlink:href="#mbf0c5f86ba" x="278.06946" y="183.173053" style="fill: #fd46fc; stroke: #fd46fc"/>
     <use xlink:href="#mbf0c5f86ba" x="281.874006" y="185.671902" style="fill: #fd46fc; stroke: #fd46fc"/>
     <use xlink:href="#mbf0c5f86ba" x="285.678551" y="184.212672" style="fill: #fd46fc; stroke: #fd46fc"/>
     <use xlink:href="#mbf0c5f86ba" x="289.483097" y="185.191409" style="fill: #fd46fc; stroke: #fd46fc"/>
     <use xlink:href="#mbf0c5f86ba" x="293.287642" y="186.866576" style="fill: #fd46fc; stroke: #fd46fc"/>
     <use xlink:href="#mbf0c5f86ba" x="297.092188" y="186.013867" style="fill: #fd46fc; stroke: #fd46fc"/>
     <use xlink:href="#mbf0c5f86ba" x="300.896733" y="187.993905" style="fill: #fd46fc; stroke: #fd46fc"/>
     <use xlink:href="#mbf0c5f86ba" x="304.701278" y="186.521273" style="fill: #fd46fc; stroke: #fd46fc"/>
     <use xlink:href="#mbf0c5f86ba" x="308.505824" y="188.610474" style="fill: #fd46fc; stroke: #fd46fc"/>
     <use xlink:href="#mbf0c5f86ba" x="312.310369" y="188.936139" style="fill: #fd46fc; stroke: #fd46fc"/>
     <use xlink:href="#mbf0c5f86ba" x="316.114915" y="188.388049" style="fill: #fd46fc; stroke: #fd46fc"/>
     <use xlink:href="#mbf0c5f86ba" x="319.91946" y="189.712531" style="fill: #fd46fc; stroke: #fd46fc"/>
     <use xlink:href="#mbf0c5f86ba" x="323.724006" y="189.983318" style="fill: #fd46fc; stroke: #fd46fc"/>
     <use xlink:href="#mbf0c5f86ba" x="327.528551" y="189.909061" style="fill: #fd46fc; stroke: #fd46fc"/>
     <use xlink:href="#mbf0c5f86ba" x="331.333097" y="190.455641" style="fill: #fd46fc; stroke: #fd46fc"/>
     <use xlink:href="#mbf0c5f86ba" x="335.137642" y="189.136124" style="fill: #fd46fc; stroke: #fd46fc"/>
     <use xlink:href="#mbf0c5f86ba" x="338.942188" y="190.847052" style="fill: #fd46fc; stroke: #fd46fc"/>
     <use xlink:href="#mbf0c5f86ba" x="342.746733" y="190.987671" style="fill: #fd46fc; stroke: #fd46fc"/>
     <use xlink:href="#mbf0c5f86ba" x="346.551278" y="190.996029" style="fill: #fd46fc; stroke: #fd46fc"/>
     <use xlink:href="#mbf0c5f86ba" x="350.355824" y="190.824971" style="fill: #fd46fc; stroke: #fd46fc"/>
     <use xlink:href="#mbf0c5f86ba" x="354.160369" y="190.907665" style="fill: #fd46fc; stroke: #fd46fc"/>
     <use xlink:href="#mbf0c5f86ba" x="357.964915" y="189.076042" style="fill: #fd46fc; stroke: #fd46fc"/>
     <use xlink:href="#mbf0c5f86ba" x="361.76946" y="190.732176" style="fill: #fd46fc; stroke: #fd46fc"/>
     <use xlink:href="#mbf0c5f86ba" x="365.574006" y="189.931973" style="fill: #fd46fc; stroke: #fd46fc"/>
    </g>
   </g>
   <g id="patch_3">
    <path d="M 45.992188 202.2855 
L 45.992188 35.9655 
" style="fill: none; stroke: #000000; stroke-width: 0.6; stroke-linejoin: miter; stroke-linecap: square"/>
   </g>
   <g id="patch_4">
    <path d="M 45.992188 202.2855 
L 380.792188 202.2855 
" style="fill: none; stroke: #000000; stroke-width: 0.6; stroke-linejoin: miter; stroke-linecap: square"/>
   </g>
   <g id="text_16">
    <!-- SGD for neural network model -->
    <g transform="translate(112.250938 16.381875) scale(0.12 -0.12)">
     <defs>
      <path id="DejaVuSansMono-53" d="M 3163 4506 
L 3163 3866 
Q 2875 4050 2586 4144 
Q 2297 4238 2003 4238 
Q 1556 4238 1297 4030 
Q 1038 3822 1038 3469 
Q 1038 3159 1208 2996 
Q 1378 2834 1844 2725 
L 2175 2650 
Q 2831 2497 3131 2169 
Q 3431 1841 3431 1275 
Q 3431 609 3018 259 
Q 2606 -91 1819 -91 
Q 1491 -91 1159 -20 
Q 828 50 494 191 
L 494 863 
Q 853 634 1173 528 
Q 1494 422 1819 422 
Q 2297 422 2562 636 
Q 2828 850 2828 1234 
Q 2828 1584 2645 1768 
Q 2463 1953 2009 2053 
L 1672 2131 
Q 1022 2278 728 2575 
Q 434 2872 434 3372 
Q 434 3997 854 4373 
Q 1275 4750 1972 4750 
Q 2241 4750 2537 4689 
Q 2834 4628 3163 4506 
z
" transform="scale(0.015625)"/>
      <path id="DejaVuSansMono-47" d="M 3450 384 
Q 3197 150 2880 29 
Q 2563 -91 2194 -91 
Q 1306 -91 812 545 
Q 319 1181 319 2328 
Q 319 3472 819 4111 
Q 1319 4750 2209 4750 
Q 2503 4750 2772 4667 
Q 3041 4584 3291 4416 
L 3291 3769 
Q 3038 4009 2772 4123 
Q 2506 4238 2209 4238 
Q 1594 4238 1286 3761 
Q 978 3284 978 2328 
Q 978 1356 1276 889 
Q 1575 422 2194 422 
Q 2403 422 2561 470 
Q 2719 519 2847 622 
L 2847 1875 
L 2169 1875 
L 2169 2394 
L 3450 2394 
L 3450 384 
z
" transform="scale(0.015625)"/>
      <path id="DejaVuSansMono-44" d="M 1363 519 
Q 2159 519 2475 911 
Q 2791 1303 2791 2328 
Q 2791 3363 2477 3755 
Q 2163 4147 1363 4147 
L 1063 4147 
L 1063 519 
L 1363 519 
z
M 1375 4666 
Q 2444 4666 2950 4097 
Q 3456 3528 3456 2328 
Q 3456 1134 2950 567 
Q 2444 0 1375 0 
L 428 0 
L 428 4666 
L 1375 4666 
z
" transform="scale(0.015625)"/>
      <path id="DejaVuSansMono-66" d="M 3322 4863 
L 3322 4384 
L 2669 4384 
Q 2359 4384 2239 4257 
Q 2119 4131 2119 3809 
L 2119 3500 
L 3322 3500 
L 3322 3053 
L 2119 3053 
L 2119 0 
L 1544 0 
L 1544 3053 
L 609 3053 
L 609 3500 
L 1544 3500 
L 1544 3744 
Q 1544 4319 1808 4591 
Q 2072 4863 2631 4863 
L 3322 4863 
z
" transform="scale(0.015625)"/>
      <path id="DejaVuSansMono-75" d="M 609 1325 
L 609 3494 
L 1184 3494 
L 1184 1325 
Q 1184 853 1351 631 
Q 1519 409 1869 409 
Q 2275 409 2490 695 
Q 2706 981 2706 1516 
L 2706 3494 
L 3284 3494 
L 3284 0 
L 2706 0 
L 2706 525 
Q 2553 222 2289 65 
Q 2025 -91 1672 -91 
Q 1134 -91 871 261 
Q 609 613 609 1325 
z
" transform="scale(0.015625)"/>
      <path id="DejaVuSansMono-6c" d="M 1997 1269 
Q 1997 881 2139 684 
Q 2281 488 2559 488 
L 3231 488 
L 3231 0 
L 2503 0 
Q 1988 0 1705 331 
Q 1422 663 1422 1269 
L 1422 4447 
L 500 4447 
L 500 4897 
L 1997 4897 
L 1997 1269 
z
" transform="scale(0.015625)"/>
      <path id="DejaVuSansMono-77" d="M 0 3500 
L 569 3500 
L 1178 672 
L 1678 2478 
L 2169 2478 
L 2675 672 
L 3284 3500 
L 3853 3500 
L 3034 0 
L 2484 0 
L 1925 1919 
L 1369 0 
L 819 0 
L 0 3500 
z
" transform="scale(0.015625)"/>
      <path id="DejaVuSansMono-6b" d="M 738 4863 
L 1331 4863 
L 1331 2047 
L 2841 3500 
L 3541 3500 
L 2163 2181 
L 3756 0 
L 3053 0 
L 1759 1806 
L 1331 1403 
L 1331 0 
L 738 0 
L 738 4863 
z
" transform="scale(0.015625)"/>
      <path id="DejaVuSansMono-6d" d="M 2113 3144 
Q 2219 3369 2383 3476 
Q 2547 3584 2778 3584 
Q 3200 3584 3373 3257 
Q 3547 2931 3547 2028 
L 3547 0 
L 3022 0 
L 3022 2003 
Q 3022 2744 2939 2923 
Q 2856 3103 2638 3103 
Q 2388 3103 2295 2911 
Q 2203 2719 2203 2003 
L 2203 0 
L 1678 0 
L 1678 2003 
Q 1678 2753 1589 2928 
Q 1500 3103 1269 3103 
Q 1041 3103 952 2911 
Q 863 2719 863 2003 
L 863 0 
L 341 0 
L 341 3500 
L 863 3500 
L 863 3200 
Q 966 3388 1120 3486 
Q 1275 3584 1472 3584 
Q 1709 3584 1867 3475 
Q 2025 3366 2113 3144 
z
" transform="scale(0.015625)"/>
     </defs>
     <use xlink:href="#DejaVuSansMono-53"/>
     <use xlink:href="#DejaVuSansMono-47" x="60.205078"/>
     <use xlink:href="#DejaVuSansMono-44" x="120.410156"/>
     <use xlink:href="#DejaVuSansMono-20" x="180.615234"/>
     <use xlink:href="#DejaVuSansMono-66" x="240.820312"/>
     <use xlink:href="#DejaVuSansMono-6f" x="301.025391"/>
     <use xlink:href="#DejaVuSansMono-72" x="361.230469"/>
     <use xlink:href="#DejaVuSansMono-20" x="421.435547"/>
     <use xlink:href="#DejaVuSansMono-6e" x="481.640625"/>
     <use xlink:href="#DejaVuSansMono-65" x="541.845703"/>
     <use xlink:href="#DejaVuSansMono-75" x="602.050781"/>
     <use xlink:href="#DejaVuSansMono-72" x="662.255859"/>
     <use xlink:href="#DejaVuSansMono-61" x="722.460938"/>
     <use xlink:href="#DejaVuSansMono-6c" x="782.666016"/>
     <use xlink:href="#DejaVuSansMono-20" x="842.871094"/>
     <use xlink:href="#DejaVuSansMono-6e" x="903.076172"/>
     <use xlink:href="#DejaVuSansMono-65" x="963.28125"/>
     <use xlink:href="#DejaVuSansMono-74" x="1023.486328"/>
     <use xlink:href="#DejaVuSansMono-77" x="1083.691406"/>
     <use xlink:href="#DejaVuSansMono-6f" x="1143.896484"/>
     <use xlink:href="#DejaVuSansMono-72" x="1204.101562"/>
     <use xlink:href="#DejaVuSansMono-6b" x="1264.306641"/>
     <use xlink:href="#DejaVuSansMono-20" x="1324.511719"/>
     <use xlink:href="#DejaVuSansMono-6d" x="1384.716797"/>
     <use xlink:href="#DejaVuSansMono-6f" x="1444.921875"/>
     <use xlink:href="#DejaVuSansMono-64" x="1505.126953"/>
     <use xlink:href="#DejaVuSansMono-65" x="1565.332031"/>
     <use xlink:href="#DejaVuSansMono-6c" x="1625.537109"/>
    </g>
    <!-- $\alpha=$0.1, $\beta=$0, $k=$128, $N=$80 -->
    <g transform="translate(113.972188 29.9655) scale(0.12 -0.12)">
     <defs>
      <path id="DejaVuSans-Oblique-3b1" d="M 2619 1628 
L 2622 2350 
Q 2625 3088 2069 3091 
Q 1653 3094 1394 2747 
Q 1069 2319 959 1747 
Q 825 1059 994 731 
Q 1169 397 1547 397 
Q 1966 397 2319 1063 
L 2619 1628 
z
M 2166 3578 
Q 3141 3594 3128 2584 
Q 3128 2584 3616 3500 
L 4128 3500 
L 3119 1603 
L 3109 919 
Q 3109 766 3194 638 
Q 3291 488 3391 488 
L 3669 488 
L 3575 0 
L 3228 0 
Q 2934 0 2722 263 
Q 2622 394 2619 669 
Q 2416 334 2066 50 
Q 1900 -81 1453 -78 
Q 722 -72 456 397 
Q 184 884 353 1747 
Q 534 2675 1009 3097 
Q 1544 3569 2166 3578 
z
" transform="scale(0.015625)"/>
      <path id="DejaVuSans-3d" d="M 678 2906 
L 4684 2906 
L 4684 2381 
L 678 2381 
L 678 2906 
z
M 678 1631 
L 4684 1631 
L 4684 1100 
L 678 1100 
L 678 1631 
z
" transform="scale(0.015625)"/>
      <path id="DejaVuSansMono-2c" d="M 1569 947 
L 2356 947 
L 2356 300 
L 1741 -897 
L 1259 -897 
L 1569 300 
L 1569 947 
z
" transform="scale(0.015625)"/>
      <path id="DejaVuSans-Oblique-3b2" d="M 872 216 
L 572 -1331 
L -6 -1331 
L 928 3478 
Q 1206 4903 2538 4903 
Q 3888 4903 3659 3700 
Q 3503 2844 2894 2531 
Q 3713 2250 3553 1416 
Q 3272 -69 1759 -66 
Q 1097 -63 872 216 
z
M 1019 966 
Q 1259 422 1875 425 
Q 2775 425 2966 1406 
Q 3138 2288 1675 2219 
L 1778 2750 
Q 2909 2731 3106 3750 
Q 3241 4438 2509 4434 
Q 1691 4434 1503 3459 
L 1019 966 
z
" transform="scale(0.015625)"/>
      <path id="DejaVuSans-Oblique-6b" d="M 1172 4863 
L 1747 4863 
L 1197 2028 
L 3169 3500 
L 3916 3500 
L 1716 1825 
L 3322 0 
L 2625 0 
L 1131 1709 
L 800 0 
L 225 0 
L 1172 4863 
z
" transform="scale(0.015625)"/>
      <path id="DejaVuSansMono-38" d="M 1925 2216 
Q 1503 2216 1273 1980 
Q 1044 1744 1044 1313 
Q 1044 881 1276 642 
Q 1509 403 1925 403 
Q 2350 403 2579 639 
Q 2809 875 2809 1313 
Q 2809 1741 2576 1978 
Q 2344 2216 1925 2216 
z
M 1375 2478 
Q 972 2581 745 2862 
Q 519 3144 519 3541 
Q 519 4097 897 4423 
Q 1275 4750 1925 4750 
Q 2578 4750 2956 4423 
Q 3334 4097 3334 3541 
Q 3334 3144 3107 2862 
Q 2881 2581 2478 2478 
Q 2947 2375 3195 2062 
Q 3444 1750 3444 1253 
Q 3444 622 3041 265 
Q 2638 -91 1925 -91 
Q 1213 -91 811 264 
Q 409 619 409 1247 
Q 409 1747 657 2061 
Q 906 2375 1375 2478 
z
M 1147 3481 
Q 1147 3106 1347 2909 
Q 1547 2713 1925 2713 
Q 2306 2713 2506 2909 
Q 2706 3106 2706 3481 
Q 2706 3863 2507 4063 
Q 2309 4263 1925 4263 
Q 1547 4263 1347 4061 
Q 1147 3859 1147 3481 
z
" transform="scale(0.015625)"/>
      <path id="DejaVuSans-Oblique-4e" d="M 1081 4666 
L 1931 4666 
L 3219 666 
L 4000 4666 
L 4616 4666 
L 3706 0 
L 2853 0 
L 1569 4025 
L 788 0 
L 172 0 
L 1081 4666 
z
" transform="scale(0.015625)"/>
     </defs>
     <use xlink:href="#DejaVuSans-Oblique-3b1" transform="translate(0 0.390625)"/>
     <use xlink:href="#DejaVuSans-3d" transform="translate(85.400391 0.390625)"/>
     <use xlink:href="#DejaVuSansMono-30" transform="translate(188.671875 0.390625)"/>
     <use xlink:href="#DejaVuSansMono-2e" transform="translate(248.876953 0.390625)"/>
     <use xlink:href="#DejaVuSansMono-31" transform="translate(309.082031 0.390625)"/>
     <use xlink:href="#DejaVuSansMono-2c" transform="translate(369.287109 0.390625)"/>
     <use xlink:href="#DejaVuSansMono-20" transform="translate(429.492188 0.390625)"/>
     <use xlink:href="#DejaVuSans-Oblique-3b2" transform="translate(489.697266 0.390625)"/>
     <use xlink:href="#DejaVuSans-3d" transform="translate(572.998047 0.390625)"/>
     <use xlink:href="#DejaVuSansMono-30" transform="translate(676.269531 0.390625)"/>
     <use xlink:href="#DejaVuSansMono-2c" transform="translate(736.474609 0.390625)"/>
     <use xlink:href="#DejaVuSansMono-20" transform="translate(796.679688 0.390625)"/>
     <use xlink:href="#DejaVuSans-Oblique-6b" transform="translate(856.884766 0.390625)"/>
     <use xlink:href="#DejaVuSans-3d" transform="translate(934.277344 0.390625)"/>
     <use xlink:href="#DejaVuSansMono-31" transform="translate(1037.548828 0.390625)"/>
     <use xlink:href="#DejaVuSansMono-32" transform="translate(1097.753906 0.390625)"/>
     <use xlink:href="#DejaVuSansMono-38" transform="translate(1157.958984 0.390625)"/>
     <use xlink:href="#DejaVuSansMono-2c" transform="translate(1218.164062 0.390625)"/>
     <use xlink:href="#DejaVuSansMono-20" transform="translate(1278.369141 0.390625)"/>
     <use xlink:href="#DejaVuSans-Oblique-4e" transform="translate(1338.574219 0.390625)"/>
     <use xlink:href="#DejaVuSans-3d" transform="translate(1432.861328 0.390625)"/>
     <use xlink:href="#DejaVuSansMono-38" transform="translate(1536.132812 0.390625)"/>
     <use xlink:href="#DejaVuSansMono-30" transform="translate(1596.337891 0.390625)"/>
    </g>
   </g>
   <g id="legend_1">
    <g id="patch_5">
     <path d="M 173.223437 73.428 
L 373.792188 73.428 
Q 375.792188 73.428 375.792188 71.428 
L 375.792188 42.9655 
Q 375.792188 40.9655 373.792188 40.9655 
L 173.223437 40.9655 
Q 171.223437 40.9655 171.223437 42.9655 
L 171.223437 71.428 
Q 171.223437 73.428 173.223437 73.428 
z
" style="fill: #ffffff; opacity: 0.8; stroke: #333333; stroke-width: 0.2; stroke-linejoin: miter"/>
    </g>
    <g id="line2d_29">
     <path d="M 175.223437 49.117063 
L 185.223437 49.117063 
L 195.223437 49.117063 
" style="fill: none; stroke: #486afb; stroke-opacity: 0.25; stroke-width: 2; stroke-linecap: square"/>
    </g>
    <g id="text_17">
     <!-- cross entropy per step -->
     <g transform="translate(203.223437 52.617063) scale(0.1 -0.1)">
      <use xlink:href="#DejaVuSansMono-63"/>
      <use xlink:href="#DejaVuSansMono-72" x="60.205078"/>
      <use xlink:href="#DejaVuSansMono-6f" x="120.410156"/>
      <use xlink:href="#DejaVuSansMono-73" x="180.615234"/>
      <use xlink:href="#DejaVuSansMono-73" x="240.820312"/>
      <use xlink:href="#DejaVuSansMono-20" x="301.025391"/>
      <use xlink:href="#DejaVuSansMono-65" x="361.230469"/>
      <use xlink:href="#DejaVuSansMono-6e" x="421.435547"/>
      <use xlink:href="#DejaVuSansMono-74" x="481.640625"/>
      <use xlink:href="#DejaVuSansMono-72" x="541.845703"/>
      <use xlink:href="#DejaVuSansMono-6f" x="602.050781"/>
      <use xlink:href="#DejaVuSansMono-70" x="662.255859"/>
      <use xlink:href="#DejaVuSansMono-79" x="722.460938"/>
      <use xlink:href="#DejaVuSansMono-20" x="782.666016"/>
      <use xlink:href="#DejaVuSansMono-70" x="842.871094"/>
      <use xlink:href="#DejaVuSansMono-65" x="903.076172"/>
      <use xlink:href="#DejaVuSansMono-72" x="963.28125"/>
      <use xlink:href="#DejaVuSansMono-20" x="1023.486328"/>
      <use xlink:href="#DejaVuSansMono-73" x="1083.691406"/>
      <use xlink:href="#DejaVuSansMono-74" x="1143.896484"/>
      <use xlink:href="#DejaVuSansMono-65" x="1204.101562"/>
      <use xlink:href="#DejaVuSansMono-70" x="1264.306641"/>
     </g>
    </g>
    <g id="line2d_30">
     <path d="M 175.223437 63.848312 
L 185.223437 63.848312 
L 195.223437 63.848312 
" style="fill: none; stroke: #fd46fc; stroke-width: 2; stroke-linecap: square"/>
     <g>
      <use xlink:href="#mbf0c5f86ba" x="185.223437" y="63.848312" style="fill: #fd46fc; stroke: #fd46fc"/>
     </g>
    </g>
    <g id="text_18">
     <!-- mean cross entropy per epoch -->
     <g transform="translate(203.223437 67.348312) scale(0.1 -0.1)">
      <defs>
       <path id="DejaVuSansMono-68" d="M 3284 2169 
L 3284 0 
L 2706 0 
L 2706 2169 
Q 2706 2641 2540 2862 
Q 2375 3084 2022 3084 
Q 1619 3084 1401 2798 
Q 1184 2513 1184 1978 
L 1184 0 
L 609 0 
L 609 4863 
L 1184 4863 
L 1184 2975 
Q 1338 3275 1600 3429 
Q 1863 3584 2222 3584 
Q 2756 3584 3020 3232 
Q 3284 2881 3284 2169 
z
" transform="scale(0.015625)"/>
      </defs>
      <use xlink:href="#DejaVuSansMono-6d"/>
      <use xlink:href="#DejaVuSansMono-65" x="60.205078"/>
      <use xlink:href="#DejaVuSansMono-61" x="120.410156"/>
      <use xlink:href="#DejaVuSansMono-6e" x="180.615234"/>
      <use xlink:href="#DejaVuSansMono-20" x="240.820312"/>
      <use xlink:href="#DejaVuSansMono-63" x="301.025391"/>
      <use xlink:href="#DejaVuSansMono-72" x="361.230469"/>
      <use xlink:href="#DejaVuSansMono-6f" x="421.435547"/>
      <use xlink:href="#DejaVuSansMono-73" x="481.640625"/>
      <use xlink:href="#DejaVuSansMono-73" x="541.845703"/>
      <use xlink:href="#DejaVuSansMono-20" x="602.050781"/>
      <use xlink:href="#DejaVuSansMono-65" x="662.255859"/>
      <use xlink:href="#DejaVuSansMono-6e" x="722.460938"/>
      <use xlink:href="#DejaVuSansMono-74" x="782.666016"/>
      <use xlink:href="#DejaVuSansMono-72" x="842.871094"/>
      <use xlink:href="#DejaVuSansMono-6f" x="903.076172"/>
      <use xlink:href="#DejaVuSansMono-70" x="963.28125"/>
      <use xlink:href="#DejaVuSansMono-79" x="1023.486328"/>
      <use xlink:href="#DejaVuSansMono-20" x="1083.691406"/>
      <use xlink:href="#DejaVuSansMono-70" x="1143.896484"/>
      <use xlink:href="#DejaVuSansMono-65" x="1204.101562"/>
      <use xlink:href="#DejaVuSansMono-72" x="1264.306641"/>
      <use xlink:href="#DejaVuSansMono-20" x="1324.511719"/>
      <use xlink:href="#DejaVuSansMono-65" x="1384.716797"/>
      <use xlink:href="#DejaVuSansMono-70" x="1444.921875"/>
      <use xlink:href="#DejaVuSansMono-6f" x="1505.126953"/>
      <use xlink:href="#DejaVuSansMono-63" x="1565.332031"/>
      <use xlink:href="#DejaVuSansMono-68" x="1625.537109"/>
     </g>
    </g>
   </g>
  </g>
 </g>
 <defs>
  <clipPath id="p2427b3f1d8">
   <rect x="45.992188" y="35.9655" width="334.8" height="166.32"/>
  </clipPath>
 </defs>
</svg>