<svg id="Layer_1" data-name="Layer 1" xmlns="http://www.w3.org/2000/svg" viewBox="0 0 212.11 79.83"><defs><style>.cls-1{fill:none;stroke:#486afb;stroke-miterlimit:10;}.cls-2{fill:#486afb;}.cls-3{fill:#fd46fc;}</style></defs><circle class="cls-1" cx="41.17" cy="60.22" r="11"/><line class="cls-1" x1="60.45" y1="22.37" x2="46.5" y2="45.77"/><path class="cls-2" d="M45,48.37a14.94,14.94,0,0,0,.15-4.89l1.6,2,2.48.48A15.22,15.22,0,0,0,45,48.37Z"/><circle class="cls-1" cx="98.95" cy="60.37" r="11"/><circle class="cls-1" cx="70.24" cy="11.72" r="11"/><line class="cls-1" x1="80.99" y1="22.72" x2="93.47" y2="44.74"/><path class="cls-2" d="M95,47.37a15.1,15.1,0,0,0-4.17-2.55l2.49-.43,1.65-1.91A14.87,14.87,0,0,0,95,47.37Z"/><circle class="cls-1" cx="135.04" cy="11.5" r="11"/><line class="cls-1" x1="86.79" y1="12.5" x2="117.93" y2="12.5"/><path class="cls-2" d="M121,12.5a15.2,15.2,0,0,0-4.27,2.38l.86-2.38-.86-2.38A15.2,15.2,0,0,0,121,12.5Z"/><path class="cls-1" d="M49.13,71.22c89.79,29.23,91.19-28.9,90.27-43"/><path class="cls-2" d="M139.11,25.18a14.9,14.9,0,0,0,2.76,4l-2.45-.64-2.28,1.08A15.31,15.31,0,0,0,139.11,25.18Z"/><path class="cls-3" d="M7.05,34.45a.1.1,0,0,0-.11-.1s0,0-.15.12l-.69.77a1.87,1.87,0,0,0-1.65-.89A4.78,4.78,0,0,0,0,38.85a2.6,2.6,0,0,0,2.71,2.72A3.26,3.26,0,0,0,4,41.34a2,2,0,0,0,.87-.61c.09.25.35.62.44.62s.07,0,.07,0a5.74,5.74,0,0,0,.17-.61l.19-.76c0-.17.09-.34.13-.51.11-.45.12-.47.69-.48,0,0,.16,0,.16-.2s0-.11-.13-.11l-1,0-1.39,0c-.09,0-.21,0-.21.2s.08.11.3.11c0,0,.3,0,.53,0S5,39,5,39.16a8,8,0,0,1-.21.91c-.28,1.09-1.57,1.2-1.92,1.2a1.92,1.92,0,0,1-2-2.09,5.64,5.64,0,0,1,1.15-3.24,3.39,3.39,0,0,1,2.48-1.28c1,0,1.6.77,1.6,1.92a3.72,3.72,0,0,1,0,.5c0,.1.11.1.15.1s.13,0,.18-.19l.62-2.54"/><path class="cls-3" d="M12.11,40.83a.53.53,0,1,0-.53.53.53.53,0,0,0,.53-.53m0-3.23a.53.53,0,1,0-.53.53A.53.53,0,0,0,12.11,37.6Z"/><line class="cls-1" x1="150.53" y1="12.79" x2="181.67" y2="12.79"/><path class="cls-2" d="M184.69,12.79a15.2,15.2,0,0,0-4.27,2.38l.86-2.38-.86-2.38A14.72,14.72,0,0,0,184.69,12.79Z"/><circle class="cls-1" cx="200.61" cy="12.74" r="11"/><path class="cls-3" d="M39.74,59.55l-.83-2,0-.13c0-.06.17-.25.59-.29.09,0,.19,0,.19-.19s-.12-.12-.15-.12c-.4,0-.83,0-1.25,0l-1.11,0c-.06,0-.18,0-.18.2s.1.11.23.11c.6,0,.66.1.74.32l1.18,2.77L37,62.5l-.13.11a2,2,0,0,1-1.46.72c-.13,0-.22,0-.22.2,0,0,0,.11.13.11l.94,0,1.11,0c.06,0,.18,0,.18-.2a.11.11,0,0,0-.12-.11c-.09,0-.4,0-.4-.31s.15-.32.27-.45l1-1.07.9-1,1,2.37a.75.75,0,0,1,0,.14c0,.08-.19.25-.58.29-.11,0-.2,0-.2.19s.11.12.15.12l1.26,0,1.1,0c.07,0,.19,0,.19-.19s-.1-.12-.18-.12c-.67,0-.69,0-.86-.44-.38-.92-1-2.47-1.28-3.07.68-.69,1.72-1.88,2-2.16a2.07,2.07,0,0,1,1.26-.5c.13,0,.22,0,.22-.2,0,0,0-.11-.13-.11l-.93,0-1.11,0c-.06,0-.19,0-.19.2s0,.1.12.11.4,0,.4.31a.55.55,0,0,1-.19.35l-1.61,1.73"/><path class="cls-3" d="M45.58,60.66c0-.19,0-.19-.21-.19a1.93,1.93,0,0,1-1.38.45v.25a2.29,2.29,0,0,0,1-.2v3.59c0,.23,0,.32-.7.32H44v.26l1.25,0,1.26,0v-.26h-.27c-.7,0-.7-.09-.7-.32v-3.9"/><path class="cls-3" d="M68.56,11.14l-.84-2c0-.08,0-.12,0-.13s.17-.25.59-.29c.1,0,.2,0,.2-.19s-.12-.12-.15-.12l-1.25,0-1.12,0c-.06,0-.18,0-.18.2s.1.11.23.11c.6,0,.66.1.75.32l1.17,2.77-2.1,2.25-.12.11a2,2,0,0,1-1.46.72c-.13,0-.22,0-.22.2,0,0,0,.11.13.11l.93,0,1.11,0c.06,0,.18,0,.18-.2a.11.11,0,0,0-.12-.11c-.09,0-.4,0-.4-.31s.15-.32.27-.45l1-1.07.89-1,1,2.37a.75.75,0,0,1,0,.14c0,.08-.19.25-.57.29-.11,0-.2,0-.2.19s.11.12.15.12l1.25,0,1.1,0c.07,0,.19,0,.19-.19s-.1-.12-.18-.12c-.66,0-.68,0-.85-.44-.39-.92-1.06-2.47-1.28-3.07.67-.69,1.71-1.88,2-2.15A2,2,0,0,1,72,8.75c.13,0,.22,0,.22-.2,0,0,0-.11-.13-.11l-.93,0c-.37,0-.75,0-1.1,0-.06,0-.19,0-.19.2s0,.1.12.11.39,0,.39.31a.55.55,0,0,1-.19.35l-1.6,1.73"/><path class="cls-3" d="M75.59,15.45h-.24a1.66,1.66,0,0,1-.18.64,3.88,3.88,0,0,1-.7,0H73.18c.73-.66,1-.85,1.4-1.18s1-.85,1-1.52a1.48,1.48,0,0,0-1.65-1.37,1.36,1.36,0,0,0-1.46,1.26.38.38,0,1,0,.75,0c0-.13,0-.38-.42-.38a1.11,1.11,0,0,1,1-.65,1.06,1.06,0,0,1,1.07,1.12,2.16,2.16,0,0,1-.66,1.35l-1.7,1.67c-.07.06-.07.08-.07.28h2.9l.21-1.28"/><path class="cls-3" d="M97.85,59.1l-.84-2L97,57c0-.06.17-.25.59-.29.1,0,.2,0,.2-.19s-.12-.11-.15-.11l-1.25,0-1.12,0c-.06,0-.17,0-.17.19s.1.11.22.11c.6,0,.66.1.75.32l1.17,2.77-2.09,2.26-.13.11a2,2,0,0,1-1.46.71c-.13,0-.22,0-.22.2,0,0,0,.11.13.11l.93,0,1.11,0c.06,0,.18,0,.18-.2a.11.11,0,0,0-.12-.11c-.09,0-.39,0-.39-.31a.79.79,0,0,1,.26-.44l1-1.08.89-1,1,2.38c0,.1,0,.11,0,.14s-.19.24-.57.28c-.11,0-.2,0-.2.19s.11.12.15.12l1.25,0,1.1,0c.07,0,.19,0,.19-.19s-.1-.12-.18-.12c-.66,0-.68,0-.85-.43-.39-.93-1-2.48-1.28-3.07.67-.7,1.72-1.88,2-2.16a2,2,0,0,1,1.26-.51c.13,0,.22,0,.22-.19,0,0,0-.11-.13-.11l-.93,0c-.37,0-.75,0-1.1,0-.06,0-.19,0-.19.19s.05.1.12.11.4,0,.4.31a.6.6,0,0,1-.19.36L97.85,59.1"/><path class="cls-3" d="M103.25,62.33c.55,0,.94.38.94,1.13s-.51,1.14-.91,1.14a1.54,1.54,0,0,1-1.2-.5.38.38,0,0,0,.41-.39.38.38,0,0,0-.39-.39.38.38,0,0,0-.39.41c0,.66.73,1.09,1.58,1.09a1.51,1.51,0,0,0,1.65-1.36,1.39,1.39,0,0,0-1.22-1.25,1.34,1.34,0,0,0,1-1.23c0-.55-.63-1-1.42-1s-1.37.38-1.37.94a.35.35,0,0,0,.36.38.35.35,0,0,0,.36-.36.36.36,0,0,0-.36-.37,1.33,1.33,0,0,1,1-.38A.7.7,0,0,1,104,61a1.31,1.31,0,0,1-.28.84.89.89,0,0,1-.78.3l-.22,0a.08.08,0,0,0-.07.09c0,.1.06.1.18.1h.38"/><path class="cls-3" d="M134.06,10.53l-.84-2a.63.63,0,0,1,0-.13c0-.06.16-.25.58-.29.1,0,.2,0,.2-.19s-.12-.11-.15-.11l-1.25,0-1.11,0c-.06,0-.18,0-.18.19s.1.11.23.11c.59,0,.65.1.74.32l1.17,2.77-2.09,2.26-.13.11a2,2,0,0,1-1.46.71c-.13,0-.22,0-.22.2,0,0,0,.11.13.11l.93,0,1.11,0c.06,0,.18,0,.18-.2a.11.11,0,0,0-.12-.11c-.09,0-.39,0-.39-.31s.15-.31.26-.44l1-1.08.89-1,1,2.38c0,.1.05.11.05.13s-.19.25-.58.29c-.11,0-.2,0-.2.19s.11.12.15.12l1.25,0,1.1,0c.07,0,.19,0,.19-.19s-.1-.12-.18-.12c-.66,0-.68,0-.85-.44-.39-.92-1.05-2.47-1.28-3.06.67-.7,1.72-1.88,2-2.16a2,2,0,0,1,1.27-.51c.12,0,.21,0,.21-.2,0,0,0-.1-.12-.1l-.94,0-1.1,0c-.06,0-.19,0-.19.19s0,.1.12.11.4,0,.4.31a.6.6,0,0,1-.19.36l-1.61,1.73"/><path class="cls-3" d="M139.93,12.13V14.7h-1.85ZM141.26,15V14.7h-.78V11.57c0-.15,0-.2-.15-.2s-.12,0-.19.1l-2.33,3.23V15h2.07v.57c0,.24,0,.33-.57.33h-.19v.25l1.06,0,1.06,0v-.25h-.19c-.57,0-.57-.09-.57-.33V15Z"/><path class="cls-3" d="M199.61,12.12l-.83-2-.05-.13c0-.06.17-.25.58-.29.1,0,.2,0,.2-.19s-.12-.11-.15-.11c-.4,0-.83,0-1.25,0l-1.11,0c-.06,0-.18,0-.18.19s.1.11.23.11c.6,0,.66.1.74.32L199,12.81l-2.1,2.26-.13.11a2,2,0,0,1-1.46.71c-.13,0-.22,0-.22.2,0,0,0,.11.13.11l.94,0,1.11,0c.06,0,.18,0,.18-.2a.11.11,0,0,0-.12-.11c-.09,0-.4,0-.4-.31s.15-.31.27-.44l1-1.08.9-1,1,2.38c0,.1,0,.11,0,.14s-.19.24-.58.28c-.11,0-.2,0-.2.19s.11.12.15.12l1.26,0,1.1,0c.07,0,.19,0,.19-.19s-.1-.12-.18-.12c-.67,0-.69,0-.86-.43-.38-.93-1-2.48-1.28-3.07.68-.7,1.72-1.88,2-2.16A2,2,0,0,1,203,9.72c.13,0,.22,0,.22-.19,0,0,0-.11-.13-.11l-.94,0-1.1,0c-.06,0-.19,0-.19.19s.05.1.12.11.4,0,.4.31a.6.6,0,0,1-.19.36l-1.61,1.73"/><path class="cls-3" d="M204.18,13.78a2.58,2.58,0,0,0,.69.09,1.67,1.67,0,0,0,1.47-.74c0-.08-.05-.1-.08-.1l-.06,0a2.73,2.73,0,0,1-1.06.21,2.94,2.94,0,0,1-1-.19L204,13c-.09,0-.09.08-.09.19V15.3c0,.12,0,.2.11.2s.07,0,.14-.1a1.2,1.2,0,0,1,1-.44.79.79,0,0,1,.65.39,1.89,1.89,0,0,1,.17.91,1.67,1.67,0,0,1-.21.93,1,1,0,0,1-.83.43,1.17,1.17,0,0,1-1.1-.72.35.35,0,1,0,0-.7.34.34,0,0,0-.35.38A1.35,1.35,0,0,0,205,17.84a1.62,1.62,0,0,0,1.68-1.55,1.5,1.5,0,0,0-2.46-1.18V13.78"/></svg>