<svg id="Layer_1" data-name="Layer 1" xmlns="http://www.w3.org/2000/svg" viewBox="0 0 212.11 83.82"><defs><style>.cls-1{fill:none;stroke:#486afb;stroke-miterlimit:10;}.cls-2{fill:#486afb;}.cls-3{fill:#fd46fc;}</style></defs><circle class="cls-1" cx="41.17" cy="60.22" r="11"/><line class="cls-1" x1="60.45" y1="22.37" x2="46.5" y2="45.77"/><path class="cls-2" d="M45,48.37a14.94,14.94,0,0,0,.15-4.89l1.6,2,2.48.48A15.22,15.22,0,0,0,45,48.37Z"/><path class="cls-3" d="M42.36,58.9c0-.54-.26-.7-.44-.7a.52.52,0,0,0-.48.48c0,.13.05.19.16.3a1.06,1.06,0,0,1,.33.81c0,.42-.6,2.69-1.77,2.69-.5,0-.73-.34-.73-.86A7,7,0,0,1,40,59.51a1.4,1.4,0,0,0,.11-.5.78.78,0,0,0-.81-.81c-.93,0-1.31,1.44-1.31,1.53s.1.1.12.1.11,0,.16-.18c.29-1,.71-1.23,1-1.23.08,0,.25,0,.25.32a2,2,0,0,1-.17.69,6.07,6.07,0,0,0-.57,2,1.19,1.19,0,0,0,1.33,1.23c1.67,0,2.24-3.29,2.24-3.8"/><path class="cls-3" d="M44.87,59.62c0-.19,0-.2-.22-.2a1.87,1.87,0,0,1-1.37.45v.26a2.29,2.29,0,0,0,1-.2v3.58c0,.24,0,.33-.71.33h-.26v.25l1.25,0,1.26,0v-.25h-.27c-.7,0-.7-.09-.7-.33V59.62"/><path class="cls-3" d="M70.69,10.31c0-.53-.25-.69-.43-.69a.53.53,0,0,0-.49.48c0,.13,0,.18.16.29a1.07,1.07,0,0,1,.34.82c0,.42-.61,2.69-1.77,2.69-.51,0-.74-.35-.74-.86a6.89,6.89,0,0,1,.58-2.11,1.23,1.23,0,0,0,.12-.5.79.79,0,0,0-.82-.81c-.93,0-1.31,1.44-1.31,1.53s.1.1.12.1.11,0,.16-.18c.29-1,.72-1.23,1-1.23.08,0,.25,0,.25.31a2.06,2.06,0,0,1-.17.7,6.16,6.16,0,0,0-.56,2,1.19,1.19,0,0,0,1.33,1.23c1.67,0,2.23-3.29,2.23-3.81"/><path class="cls-3" d="M74.39,14.23h-.23a1.66,1.66,0,0,1-.19.64,3.72,3.72,0,0,1-.69,0H72c.74-.65,1-.85,1.41-1.18a2,2,0,0,0,1-1.52,1.47,1.47,0,0,0-1.64-1.37,1.36,1.36,0,0,0-1.46,1.26.37.37,0,1,0,.74,0c0-.13,0-.37-.41-.37a1.11,1.11,0,0,1,1-.66,1.05,1.05,0,0,1,1.07,1.12,2.11,2.11,0,0,1-.66,1.35l-1.69,1.68c-.07.06-.07.07-.07.27h2.89l.21-1.28"/><path class="cls-3" d="M99.38,58c0-.54-.26-.7-.43-.7a.53.53,0,0,0-.49.48c0,.13.05.19.16.3a1.05,1.05,0,0,1,.34.81c0,.42-.61,2.69-1.77,2.69-.51,0-.74-.34-.74-.86A7,7,0,0,1,97,58.63a1.14,1.14,0,0,0,.12-.49.79.79,0,0,0-.82-.82c-.93,0-1.31,1.44-1.31,1.53s.1.1.12.1.11,0,.16-.18c.29-1,.71-1.23,1-1.23.08,0,.25,0,.25.32a1.94,1.94,0,0,1-.17.69,6.22,6.22,0,0,0-.56,2,1.19,1.19,0,0,0,1.33,1.23c1.67,0,2.23-3.28,2.23-3.8"/><path class="cls-3" d="M101.45,60.87c.55,0,.94.38.94,1.13s-.5,1.13-.91,1.13a1.56,1.56,0,0,1-1.2-.49.38.38,0,0,0,.41-.4.37.37,0,0,0-.38-.38.38.38,0,0,0-.4.41c0,.66.73,1.08,1.58,1.08A1.52,1.52,0,0,0,103.15,62a1.39,1.39,0,0,0-1.23-1.26,1.34,1.34,0,0,0,1-1.22c0-.56-.64-1-1.42-1s-1.38.37-1.38.94a.34.34,0,0,0,.37.37.35.35,0,0,0,.36-.36.36.36,0,0,0-.36-.36,1.33,1.33,0,0,1,1-.39.71.71,0,0,1,.76.77,1.36,1.36,0,0,1-.28.83.91.91,0,0,1-.79.3l-.22,0s-.07,0-.07.09.06.1.18.1h.38"/><path class="cls-3" d="M135.24,10.69c0-.53-.26-.69-.44-.69a.53.53,0,0,0-.49.47c0,.13.05.19.16.3a1.07,1.07,0,0,1,.34.82c0,.41-.6,2.69-1.77,2.69-.5,0-.73-.35-.73-.86a6.89,6.89,0,0,1,.58-2.11,1.4,1.4,0,0,0,.11-.5.78.78,0,0,0-.81-.81c-.93,0-1.31,1.44-1.31,1.53s.1.1.12.1.11,0,.16-.18c.28-1,.71-1.23,1-1.23.08,0,.25,0,.25.31a2.06,2.06,0,0,1-.17.7,6,6,0,0,0-.57,2A1.19,1.19,0,0,0,133,14.5c1.67,0,2.24-3.29,2.24-3.81"/><path class="cls-3" d="M137.78,11.91v2.57h-1.86Zm1.33,2.83v-.26h-.78V11.35c0-.15,0-.2-.16-.2s-.11,0-.18.1l-2.33,3.23v.26h2.07v.57c0,.24,0,.33-.57.33H137v.25c.35,0,.8,0,1.06,0s.71,0,1.06,0v-.25h-.19c-.57,0-.57-.09-.57-.33v-.57Z"/><circle class="cls-1" cx="98.95" cy="60.37" r="11"/><circle class="cls-1" cx="70.24" cy="11.72" r="11"/><line class="cls-1" x1="80.99" y1="22.72" x2="93.47" y2="44.74"/><path class="cls-2" d="M95,47.37a15.1,15.1,0,0,0-4.17-2.55l2.49-.43,1.65-1.91A14.87,14.87,0,0,0,95,47.37Z"/><circle class="cls-1" cx="135.04" cy="11.5" r="11"/><line class="cls-1" x1="86.79" y1="12.5" x2="117.93" y2="12.5"/><path class="cls-2" d="M121,12.5a15.2,15.2,0,0,0-4.27,2.38l.86-2.38-.86-2.38A15.2,15.2,0,0,0,121,12.5Z"/><path class="cls-1" d="M49.13,71.22c89.79,29.23,91.19-28.9,90.27-43"/><path class="cls-2" d="M139.11,25.18a14.9,14.9,0,0,0,2.76,4l-2.45-.64-2.28,1.08A15.31,15.31,0,0,0,139.11,25.18Z"/><path class="cls-3" d="M43.36,30.62C43.75,29.11,44.77,29,45,29a.66.66,0,0,1,.74.62c0,1-1.59,1-2,1h-.41m.47.21a4.4,4.4,0,0,0,1.52-.22,1.12,1.12,0,0,0,.74-1c0-.43-.37-.84-1.06-.84a2.7,2.7,0,0,0-2.6,2.7A1.62,1.62,0,0,0,44,33.24a2.64,2.64,0,0,0,2.25-1.17.13.13,0,0,0-.12-.13s-.06,0-.12.1a2.61,2.61,0,0,1-2,1c-.78,0-.87-.83-.87-1.15a5,5,0,0,1,.16-1Z"/><path class="cls-3" d="M49,30.16c0-.19,0-.2-.21-.2a1.93,1.93,0,0,1-1.38.45v.25a2.4,2.4,0,0,0,1-.19v3.58c0,.24,0,.33-.7.33h-.27v.25l1.25,0,1.26,0v-.25h-.27c-.7,0-.7-.09-.7-.33V30.16"/><path class="cls-3" d="M90.44,29.44c.38-1.51,1.41-1.66,1.67-1.66a.66.66,0,0,1,.73.63c0,1-1.59,1-2,1h-.4m.46.22a4.41,4.41,0,0,0,1.52-.23,1.13,1.13,0,0,0,.75-1c0-.44-.38-.84-1.06-.84a2.7,2.7,0,0,0-2.61,2.7,1.62,1.62,0,0,0,1.56,1.8,2.66,2.66,0,0,0,2.26-1.18.14.14,0,0,0-.12-.13s-.07,0-.13.1a2.58,2.58,0,0,1-2,1c-.77,0-.86-.84-.86-1.16a4.32,4.32,0,0,1,.16-1Z"/><path class="cls-3" d="M97.3,32.18h-.24c0,.15-.09.57-.19.64a3.72,3.72,0,0,1-.69,0H94.89c.73-.66,1-.85,1.4-1.18s1-.85,1-1.52a1.48,1.48,0,0,0-1.65-1.37,1.36,1.36,0,0,0-1.46,1.26.37.37,0,0,0,.37.39.36.36,0,0,0,.37-.37c0-.13,0-.38-.41-.38a1.11,1.11,0,0,1,1-.65,1.06,1.06,0,0,1,1.07,1.12A2.11,2.11,0,0,1,96,31.51l-1.69,1.67c-.07.06-.07.08-.07.28h2.9l.21-1.28"/><path class="cls-3" d="M99.87,5.89c.39-1.51,1.41-1.66,1.67-1.66a.66.66,0,0,1,.73.62c0,1-1.59,1-2,1h-.41m.47.21a4.43,4.43,0,0,0,1.52-.22,1.14,1.14,0,0,0,.74-1c0-.43-.38-.84-1.06-.84a2.7,2.7,0,0,0-2.61,2.7,1.62,1.62,0,0,0,1.56,1.8,2.66,2.66,0,0,0,2.26-1.17.14.14,0,0,0-.12-.13s-.07,0-.13.1a2.59,2.59,0,0,1-2,1c-.77,0-.86-.83-.86-1.15a4.37,4.37,0,0,1,.16-1Z"/><path class="cls-3" d="M105.1,7.55c.54,0,.94.38.94,1.13s-.51,1.14-.92,1.14a1.51,1.51,0,0,1-1.19-.5.39.39,0,1,0,0-.78.37.37,0,0,0-.39.41c0,.66.73,1.09,1.58,1.09a1.51,1.51,0,0,0,1.65-1.36,1.4,1.4,0,0,0-1.22-1.26,1.32,1.32,0,0,0,1-1.22c0-.55-.64-1-1.42-1s-1.38.38-1.38.94a.37.37,0,1,0,.73,0,.36.36,0,0,0-.36-.37,1.33,1.33,0,0,1,1-.38.7.7,0,0,1,.76.76,1.37,1.37,0,0,1-.28.84.89.89,0,0,1-.78.3l-.23,0a.09.09,0,0,0-.07.09c0,.1.07.1.19.1h.38"/><path class="cls-3" d="M113.94,79.81c.39-1.51,1.41-1.66,1.67-1.66a.65.65,0,0,1,.73.62c0,1-1.59,1-2,1h-.41m.47.21a4.43,4.43,0,0,0,1.52-.22,1.14,1.14,0,0,0,.74-1c0-.43-.38-.84-1.06-.84a2.7,2.7,0,0,0-2.61,2.7,1.62,1.62,0,0,0,1.56,1.8,2.66,2.66,0,0,0,2.26-1.17.14.14,0,0,0-.12-.13s-.07,0-.13.1a2.59,2.59,0,0,1-2,1c-.77,0-.86-.83-.86-1.15a4.37,4.37,0,0,1,.16-1Z"/><path class="cls-3" d="M119.64,79.84v2.57h-1.86ZM121,82.67v-.26h-.78V79.28c0-.15,0-.2-.16-.2s-.11,0-.18.1l-2.33,3.23v.26h2.07v.57c0,.24,0,.33-.57.33h-.19v.25l1,0,1.07,0v-.25h-.19c-.57,0-.57-.09-.57-.33v-.57Z"/><path class="cls-3" d="M164.61,5.27c.39-1.51,1.41-1.66,1.67-1.66a.65.65,0,0,1,.74.62c0,1-1.6,1-2,1h-.41m.47.21a4.65,4.65,0,0,0,1.52-.22,1.14,1.14,0,0,0,.74-1c0-.43-.37-.84-1.06-.84a2.7,2.7,0,0,0-2.6,2.7,1.61,1.61,0,0,0,1.56,1.8,2.64,2.64,0,0,0,2.25-1.17.14.14,0,0,0-.12-.13c-.05,0-.07,0-.13.1a2.58,2.58,0,0,1-2,1c-.78,0-.87-.83-.87-1.15a4.37,4.37,0,0,1,.16-1Z"/><path class="cls-3" d="M169,5.36a2.57,2.57,0,0,0,.68.09,1.7,1.7,0,0,0,1.48-.74c0-.08,0-.1-.09-.1l-.05,0a2.73,2.73,0,0,1-1.06.21,2.94,2.94,0,0,1-1-.19l-.09,0c-.09,0-.09.08-.09.19V6.87c0,.12,0,.21.11.21s.07,0,.14-.1a1.19,1.19,0,0,1,1-.44.73.73,0,0,1,.64.39,1.78,1.78,0,0,1,.17.91,1.67,1.67,0,0,1-.21.93,1,1,0,0,1-.82.42,1.15,1.15,0,0,1-1.1-.71.36.36,0,1,0-.31-.33,1.36,1.36,0,0,0,1.42,1.27,1.63,1.63,0,0,0,1.69-1.55A1.49,1.49,0,0,0,170,6.34a1.46,1.46,0,0,0-1,.35V5.36"/><path class="cls-3" d="M7.05,34.45a.1.1,0,0,0-.11-.1s0,0-.15.12l-.69.77a1.87,1.87,0,0,0-1.65-.89A4.78,4.78,0,0,0,0,38.85a2.6,2.6,0,0,0,2.71,2.72A3.26,3.26,0,0,0,4,41.34a2,2,0,0,0,.87-.61c.09.25.35.62.44.62s.07,0,.07,0a5.74,5.74,0,0,0,.17-.61l.19-.76c0-.17.09-.34.13-.51.11-.45.12-.47.69-.48,0,0,.16,0,.16-.2s0-.11-.13-.11l-1,0-1.39,0c-.09,0-.21,0-.21.2s.08.11.3.11c0,0,.3,0,.53,0S5,39,5,39.16a8,8,0,0,1-.21.91c-.28,1.09-1.57,1.2-1.92,1.2a1.92,1.92,0,0,1-2-2.09,5.64,5.64,0,0,1,1.15-3.24,3.39,3.39,0,0,1,2.48-1.28c1,0,1.6.77,1.6,1.92a3.72,3.72,0,0,1,0,.5c0,.1.11.1.15.1s.13,0,.18-.19l.62-2.54"/><path class="cls-3" d="M12.11,40.83a.53.53,0,1,0-.53.53.53.53,0,0,0,.53-.53m0-3.23a.53.53,0,1,0-.53.53A.53.53,0,0,0,12.11,37.6Z"/><line class="cls-1" x1="150.53" y1="12.79" x2="181.67" y2="12.79"/><path class="cls-2" d="M184.69,12.79a15.2,15.2,0,0,0-4.27,2.38l.86-2.38-.86-2.38A14.72,14.72,0,0,0,184.69,12.79Z"/><circle class="cls-1" cx="200.61" cy="12.74" r="11"/><path class="cls-3" d="M200.7,10.73c0-.54-.26-.7-.44-.7a.53.53,0,0,0-.49.48c0,.13,0,.19.16.3a1.05,1.05,0,0,1,.34.81c0,.42-.61,2.69-1.77,2.69-.5,0-.73-.34-.73-.86a7.21,7.21,0,0,1,.57-2.11,1.22,1.22,0,0,0,.12-.49.79.79,0,0,0-.81-.82c-.94,0-1.31,1.44-1.31,1.53s.1.1.12.1.11,0,.15-.18c.29-1,.72-1.23,1-1.23.08,0,.25,0,.25.32a2,2,0,0,1-.17.69,6.07,6.07,0,0,0-.57,2,1.19,1.19,0,0,0,1.33,1.23c1.67,0,2.24-3.29,2.24-3.8"/><path class="cls-3" d="M201.94,12a2.57,2.57,0,0,0,.68.09,1.67,1.67,0,0,0,1.48-.74.08.08,0,0,0-.09-.09.06.06,0,0,0,0,0,3.06,3.06,0,0,1-1.07.2,2.71,2.71,0,0,1-1-.19l-.09,0c-.1,0-.1.07-.1.18v2.08c0,.12,0,.2.12.2s.07,0,.14-.1a1.22,1.22,0,0,1,1-.44.75.75,0,0,1,.64.39,1.8,1.8,0,0,1,.17.91,1.7,1.7,0,0,1-.21.94,1,1,0,0,1-.82.42,1.18,1.18,0,0,1-1.11-.72.34.34,0,0,0,.4-.34.34.34,0,0,0-.35-.36.35.35,0,0,0-.35.38,1.35,1.35,0,0,0,1.42,1.26,1.62,1.62,0,0,0,1.69-1.55A1.5,1.5,0,0,0,202.92,13a1.46,1.46,0,0,0-1,.35V12"/></svg>