<svg id="Layer_1" data-name="Layer 1" xmlns="http://www.w3.org/2000/svg" viewBox="0 0 120.71 50"><defs><style>.cls-1,.cls-4{fill:#486afb;}.cls-1,.cls-3{stroke:#486afb;stroke-miterlimit:10;}.cls-1{opacity:0.2;}.cls-2{fill:#fd46fc;}.cls-3{fill:none;}</style></defs><circle class="cls-1" cx="73.5" cy="24.5" r="11"/><path class="cls-2" d="M72,23.3l.14-.14a1.89,1.89,0,0,1,1.3-.69c.11,0,.2,0,.2-.18s-.05-.12-.13-.12l-.81,0-1,0c-.06,0-.19,0-.19.19s.1.11.14.11.36,0,.36.23-.23.43-.26.48l-2.31,2.65-1.09-2.95a.53.53,0,0,1-.06-.17c0-.24.49-.24.58-.24s.24,0,.24-.19-.12-.11-.15-.11l-1.25,0-1.11,0c-.06,0-.19,0-.19.2s.1.1.23.1c.59,0,.64.09.72.34l1.23,3.27a1,1,0,0,1,0,.17s-.4,1.63-.45,1.81c-.13.54-.14.57-.93.58-.19,0-.27,0-.27.2s.12.11.14.11l1.25,0,1.27,0c.07,0,.19,0,.19-.2s-.09-.11-.28-.11a3.64,3.64,0,0,1-.38,0c-.21,0-.27,0-.27-.16s.09-.41.14-.62l.35-1.4a.56.56,0,0,1,.14-.31L72,23.3"/><path class="cls-2" d="M76.48,19.48A4.2,4.2,0,0,0,74.79,23a4.21,4.21,0,0,0,1.69,3.51s.14,0,.14-.08,0-.06-.07-.11A4.27,4.27,0,0,1,75.27,23a4.14,4.14,0,0,1,1.3-3.34s.05,0,.05-.09-.09-.08-.14-.08"/><path class="cls-2" d="M77.93,23.93a.82.82,0,0,0-.07.29.63.63,0,0,0,.67.6c.7,0,1-1,1-1.07a.1.1,0,0,0-.11-.1c-.1,0-.11.05-.13.12-.16.57-.47.85-.75.85s-.17-.09-.17-.24a1,1,0,0,1,.11-.45c.07-.19.15-.38.22-.56s.32-.81.35-.9a.85.85,0,0,0,0-.22.63.63,0,0,0-.67-.6c-.69,0-1,1-1,1.08s.1.09.12.09.11,0,.13-.11c.18-.61.49-.86.75-.86s.18,0,.18.24a1.83,1.83,0,0,1-.22.71l-.44,1.13m1.43-3.57a.27.27,0,0,0-.28-.27.41.41,0,0,0-.39.39.26.26,0,0,0,.28.26A.41.41,0,0,0,79.36,20.36Z"/><path class="cls-2" d="M80.52,19.48s-.14,0-.14.08,0,.06.07.11A4.18,4.18,0,0,1,81.72,23a4.27,4.27,0,0,1-1.21,3.27c-.12.11-.13.12-.13.16a.08.08,0,0,0,.09.08,3.1,3.1,0,0,0,1.22-1.34A4.67,4.67,0,0,0,82.2,23a4.2,4.2,0,0,0-1.68-3.51"/><circle class="cls-3" cx="73.5" cy="24.5" r="11"/><line class="cls-3" x1="35" y1="24.5" x2="56.98" y2="24.5"/><path class="cls-4" d="M60,24.5a15.2,15.2,0,0,0-4.27,2.38l.86-2.38-.86-2.38A15.2,15.2,0,0,0,60,24.5Z"/><rect class="cls-3" x="0.5" y="0.5" width="97" height="49" rx="12"/><path class="cls-2" d="M11.09,42.15c.12-.29.12-.31.22-.58a1.33,1.33,0,0,0,.13-.53.79.79,0,0,0-.82-.81c-.93,0-1.31,1.44-1.31,1.53s.1.1.12.1.11,0,.16-.18c.27-.93.66-1.23,1-1.23.08,0,.25,0,.25.31a1.5,1.5,0,0,1-.11.52c-.08.26-.52,1.41-.68,1.84a2.85,2.85,0,0,0-.23.79.79.79,0,0,0,.81.82c.94,0,1.3-1.44,1.3-1.53s-.08-.1-.12-.1-.09,0-.14.18c-.18.62-.51,1.23-1,1.23-.17,0-.24-.1-.24-.33a2.68,2.68,0,0,1,.29-1l.39-1m.76-3.74a.35.35,0,0,0-.37-.36.57.57,0,0,0-.54.53.36.36,0,0,0,.38.36A.57.57,0,0,0,11.85,38.41Z"/><path class="cls-2" d="M22,43.3c.14,0,.33,0,.33-.2s-.19-.2-.34-.2H16c-.15,0-.34,0-.34.2s.19.2.33.2H22m0-1.93c.15,0,.34,0,.34-.2S22.1,41,22,41H16c-.14,0-.33,0-.33.2s.19.2.34.2Z"/><path class="cls-2" d="M28.54,38.26c0-.24,0-.26-.22-.26a2.45,2.45,0,0,1-1.81.64V39a3,3,0,0,0,1.3-.26v5.14c0,.36,0,.48-.93.48h-.31v.31c.34,0,1.21,0,1.61,0s1.26,0,1.61,0v-.31h-.32c-.9,0-.93-.11-.93-.48V38.26"/><path class="cls-2" d="M32.74,44.61c0-.66-.25-1-.64-1a.5.5,0,0,0-.52.52.52.52,0,0,0,.52.53.53.53,0,0,0,.35-.13l0,0s0,0,0,.15a2.45,2.45,0,0,1-.67,1.66c-.11.11-.11.13-.11.16a.1.1,0,0,0,.1.11,2.38,2.38,0,0,0,.9-1.93"/><path class="cls-2" d="M37,44.09a.53.53,0,1,0-.53.53.53.53,0,0,0,.53-.53"/><path class="cls-2" d="M41.53,44.09a.53.53,0,1,0-.53.53.53.53,0,0,0,.53-.53"/><path class="cls-2" d="M45.93,44.09a.53.53,0,1,0-.53.53.53.53,0,0,0,.53-.53"/><path class="cls-2" d="M50.34,44.61c0-.66-.25-1-.64-1a.5.5,0,0,0-.52.52.52.52,0,0,0,.52.53.53.53,0,0,0,.35-.13l.05,0s0,0,0,.15a2.45,2.45,0,0,1-.67,1.66c-.11.11-.11.13-.11.16a.1.1,0,0,0,.1.11,2.38,2.38,0,0,0,.9-1.93"/><path class="cls-2" d="M53.7,44c0,.15-.09.38-.09.43a.27.27,0,0,0,.29.27.4.4,0,0,0,.36-.28s.13-.49.19-.74l.22-.89c.06-.22.12-.44.17-.66s.12-.46.13-.5a2,2,0,0,1,1.62-1.21c.45,0,.54.36.54.69A4,4,0,0,1,57,42l-.28,1.15-.2.75c0,.2-.13.54-.13.59a.27.27,0,0,0,.29.27c.31,0,.37-.25.44-.57.14-.55.51-2,.6-2.39a2,2,0,0,1,1.64-1.32c.43,0,.54.33.54.69a8.82,8.82,0,0,1-.62,2.23,1.32,1.32,0,0,0-.13.54.8.8,0,0,0,.82.82c.93,0,1.3-1.45,1.3-1.53s-.09-.1-.12-.1-.1,0-.15.18c-.15.53-.47,1.23-1,1.23-.17,0-.24-.1-.24-.33a1.86,1.86,0,0,1,.18-.7,8.79,8.79,0,0,0,.6-2.19,1,1,0,0,0-1.14-1.06,2,2,0,0,0-1.62,1,1,1,0,0,0-.32-.7,1.24,1.24,0,0,0-.81-.26,1.91,1.91,0,0,0-1.55.86.9.9,0,0,0-.92-.86.85.85,0,0,0-.73.56,4.36,4.36,0,0,0-.31,1c0,.1.1.1.12.1s.11,0,.17-.23c.17-.71.37-1.18.73-1.18.15,0,.3.08.3.45a3.22,3.22,0,0,1-.16.84L53.7,44"/><rect class="cls-3" x="11.5" y="14.5" width="20" height="20"/><path class="cls-2" d="M18.54,26.29,19.71,25c.12-.14.18-.21,1-.21v-.46c-.35,0-.86,0-.91,0l-1,0v.46a.71.71,0,0,1,.38.09.62.62,0,0,1-.08.12l-.83.93-1-1.14h.4v-.46l-1.2,0-1.09,0v.46h.7l1.55,1.83-1.3,1.46c-.17.19-.53.19-1,.19v.47l.91,0,1,0v-.47c-.18,0-.37-.05-.37-.11s0,0,.07-.1l1-1.08L19,28.27h-.39v.47l1.2,0,1.09,0v-.47h-.71l-1.67-2"/><path class="cls-2" d="M23.6,19.26a4.24,4.24,0,0,0-1.69,3.51,4.24,4.24,0,0,0,1.69,3.52c.06,0,.14,0,.14-.09s0-.05-.07-.1a4.32,4.32,0,0,1-1.28-3.32,4.18,4.18,0,0,1,1.3-3.35s0-.05,0-.08-.08-.09-.14-.09"/><path class="cls-2" d="M25.15,23.71a.89.89,0,0,0-.06.3.62.62,0,0,0,.66.6c.71,0,1-1,1-1.08s-.09-.09-.12-.09-.1,0-.13.12c-.16.56-.47.85-.74.85s-.18-.09-.18-.25a1.24,1.24,0,0,1,.11-.45c.07-.19.15-.38.23-.56s.31-.81.34-.89a.93.93,0,0,0,0-.23.62.62,0,0,0-.66-.59c-.7,0-1,.95-1,1.07s.09.09.12.09.1,0,.12-.11c.19-.6.5-.86.75-.86s.18.06.18.25a1.8,1.8,0,0,1-.22.7l-.44,1.13m1.43-3.57a.26.26,0,0,0-.28-.26.41.41,0,0,0-.39.38.27.27,0,0,0,.28.27A.42.42,0,0,0,26.58,20.14Z"/><path class="cls-2" d="M27.64,19.26c-.05,0-.14,0-.14.09s0,0,.07.1a4.22,4.22,0,0,1,1.28,3.32A4.27,4.27,0,0,1,27.63,26c-.12.12-.13.13-.13.16a.09.09,0,0,0,.1.09,3.17,3.17,0,0,0,1.21-1.35,4.66,4.66,0,0,0,.52-2.16,4.24,4.24,0,0,0-1.69-3.52"/><path class="cls-2" d="M119.24,23.27a3.12,3.12,0,0,0-.79-.08c-.32,0-1.12,0-1.12.54s.59.42.94.42a2.68,2.68,0,0,0,1.06-.19,1.12,1.12,0,0,1,.11.51,6.24,6.24,0,0,1-.56,2.08,1.65,1.65,0,0,1-1.42.81,1.53,1.53,0,0,1-1.7-1.45,2.59,2.59,0,0,1,.07-.5c.15-.59.46-1.89.58-2.33A3.08,3.08,0,0,1,119.12,21a.51.51,0,0,1,.58.56,5.53,5.53,0,0,1-.46,1.72m-.33.35a1,1,0,0,1-.63.17s-.48,0-.48-.08.49-.16.62-.16A1.21,1.21,0,0,1,118.91,23.62Zm-4.5,5.61a1.24,1.24,0,0,0,0,.16c0,.14.15.14.23.14s.2,0,.26-.23.63-2.54.64-2.56a2.21,2.21,0,0,0,2,1,3,3,0,0,0,3.11-2.82,1.54,1.54,0,0,0-.64-1.32,2.27,2.27,0,0,0,.76-1.63c0-.84-.61-1.32-1.55-1.32a3.49,3.49,0,0,0-3.24,2.54Z"/><line class="cls-3" x1="111.76" y1="24.56" x2="89.78" y2="24.56"/><path class="cls-4" d="M86.76,24.56A15,15,0,0,0,91,22.18l-.86,2.38L91,26.94A15.25,15.25,0,0,0,86.76,24.56Z"/></svg>