<?xml version="1.0" encoding="utf-8"?>
<!-- Generator: Adobe Illustrator 26.0.2, SVG Export Plug-In . SVG Version: 6.00 Build 0)  -->
<svg version="1.1" id="Layer_1" xmlns="http://www.w3.org/2000/svg" xmlns:xlink="http://www.w3.org/1999/xlink" x="0px" y="0px"
	 viewBox="0 0 71 23" style="enable-background:new 0 0 71 23;" xml:space="preserve">
<style type="text/css">
	.st0{fill:none;stroke:#486AFB;stroke-miterlimit:10;}
	.st1{fill:#486AFB;}
	.st2{fill:#FD46FC;}
</style>
<circle class="st0" cx="11.5" cy="11.5" r="11"/>
<circle class="st0" cx="59.5" cy="11.5" r="11"/>
<g>
	<g>
		<line class="st0" x1="24.5" y1="11.5" x2="42.98" y2="11.5"/>
		<g>
			<path class="st1" d="M46,11.5c-1.42,0.53-3.18,1.43-4.27,2.38l0.86-2.38l-0.86-2.38C42.82,10.07,44.58,10.97,46,11.5z"/>
		</g>
	</g>
</g>
<path class="st2" d="M11.72,10.73l1.67-2.2c0.11-0.14,0.12-0.15,0.47-0.18c0.24-0.03,0.3-0.03,0.58-0.03h0.29V7.86
	c-0.42,0.03-0.9,0.03-1.33,0.03c-0.39,0-1.15,0-1.51-0.03v0.47c0.18,0,0.57,0,0.91,0.11c-0.01,0.02-0.06,0.08-0.08,0.11l-1.31,1.74
	L9.98,8.33h0.82V7.86c-0.41,0.03-1.35,0.03-1.8,0.03c-0.4,0-1.26,0-1.61-0.03v0.47h0.97l2.2,3.05l-2.01,2.63
	c-0.09,0.12-0.11,0.14-0.43,0.17c-0.2,0.02-0.41,0.03-0.6,0.03H7.25v0.47c0.42-0.03,0.9-0.03,1.33-0.03c0.39,0,1.15,0,1.51,0.03
	v-0.47c-0.18,0-0.57,0-0.91-0.11c0.01-0.02,0.06-0.08,0.08-0.11l1.64-2.18l1.73,2.39H11.8v0.47c0.41-0.03,1.35-0.03,1.8-0.03
	c0.4,0,1.26,0,1.61,0.03v-0.47h-0.97L11.72,10.73"/>
<path class="st2" d="M61.72,10.01c0.07-0.14,0.1-0.21,0.73-0.21V9.33c-0.24,0.02-0.54,0.03-0.78,0.03c-0.25,0-0.7-0.02-0.9-0.03V9.8
	c0.02,0,0.47,0,0.47,0.12c0,0.01-0.04,0.11-0.05,0.12l-1.14,2.44L58.78,9.8h0.54V9.33c-0.33,0.02-1.22,0.03-1.23,0.03
	c-0.28,0-0.73-0.02-1.13-0.03V9.8h0.64l1.86,3.94l-0.23,0.48c-0.22,0.48-0.54,1.15-1.24,1.15c-0.14,0-0.16-0.01-0.24-0.04
	c0.09-0.04,0.32-0.18,0.32-0.53c0-0.33-0.24-0.57-0.58-0.57c-0.28,0-0.57,0.19-0.57,0.58c0,0.51,0.47,0.91,1.06,0.91
	c0.77,0,1.34-0.62,1.61-1.18L61.72,10.01"/>
</svg>
