<?xml version="1.0" encoding="utf-8"?>
<!-- Generator: Adobe Illustrator 26.0.2, SVG Export Plug-In . SVG Version: 6.00 Build 0)  -->
<svg version="1.1" id="Layer_1" xmlns="http://www.w3.org/2000/svg" xmlns:xlink="http://www.w3.org/1999/xlink" x="0px" y="0px"
	 viewBox="0 0 171.88 56.06" style="enable-background:new 0 0 171.88 56.06;" xml:space="preserve">
<style type="text/css">
	.st0{fill:#FD46FC;}
	.st1{fill:#486AFB;}
</style>
<g>
	<g>
		<path class="st0" d="M0.13,4.14c0.77,1.17,1.62,2.3,2.53,3.37c0.74,0.87,2.11,2.55,3.32,1.32c0.46-0.46,0.66-1.18,0.89-1.77
			c0.26-0.67,0.5-1.34,0.71-2.03C8,3.67,8.39,2.24,8.39,0.8c0-0.65-0.86-0.7-1.07-0.14C6.9,1.78,6.64,2.95,6.29,4.09
			C5.94,5.23,5.54,6.37,5.07,7.46C5.03,7.55,4.99,7.63,4.95,7.72C4.87,7.89,4.85,7.79,4.93,7.79c0.08,0-0.07-0.05-0.11-0.07
			C4.73,7.65,4.66,7.57,4.59,7.5c-0.42-0.42-0.8-0.89-1.17-1.35C2.69,5.28,2.02,4.35,1.41,3.4C0.89,2.61-0.4,3.34,0.13,4.14
			L0.13,4.14z"/>
	</g>
</g>
<g>
	<g>
		<path class="st0" d="M14.9,3.82c-0.71-0.94-2.04-2.21-3.28-1.35c-0.59,0.41-0.86,1.18-1.12,1.83c-0.3,0.77-0.55,1.56-0.7,2.37
			c-0.23,1.2-0.43,2.7,0.4,3.73c0.38,0.48,0.96,0.72,1.57,0.65c0.73-0.09,1.33-0.6,1.77-1.16c1.02-1.29,1.38-2.92,1.16-4.54
			c-0.08-0.58-1.1-0.46-1.03,0.13c0.25,2.17,2.83,3.89,4.83,2.62c0.46-0.29,0.18-1.09-0.38-0.92c-1.39,0.42-3.13-0.33-3.42-1.83
			c-0.34,0.09-0.68,0.18-1.02,0.26c0.28,1.31-0.17,2.73-1.1,3.69c-0.31,0.32-0.89,0.81-1.34,0.44c-0.31-0.26-0.43-0.79-0.47-1.17
			c-0.15-1.35,0.25-2.9,0.73-4.15c0.2-0.52,0.48-1.38,1.19-1.2c0.6,0.15,1.08,0.73,1.44,1.19C14.47,4.84,15.23,4.26,14.9,3.82
			L14.9,3.82z"/>
	</g>
</g>
<g>
	<g>
		<path class="st0" d="M21.47,9.2c-0.91-1.04-2.07-2.52-1.42-3.99c0.63-1.4,2.59-0.9,3.76-0.68c0.53,0.1,0.7-0.6,0.21-0.8
			c-1.25-0.5-2.85-0.84-4.03,0.03c-1.24,0.91-1.39,2.55-0.84,3.89c0.34,0.83,0.88,1.54,1.41,2.25c0.21,0.28,0.55,0.4,0.85,0.16
			C21.7,9.84,21.7,9.46,21.47,9.2L21.47,9.2z"/>
	</g>
</g>
<g>
	<g>
		<path class="st0" d="M25.68,6.24c0.06,0.68,0.09,1.38,0.19,2.06c0.05,0.31,0.1,0.61,0.15,0.92c0.05,0.31,0.14,0.6,0.22,0.9
			c0.09,0.34,0.42,0.56,0.77,0.52c0.38-0.05,0.57-0.34,0.62-0.69c0.08-0.62,0.12-1.23,0.12-1.85c0-0.62-0.05-1.24-0.08-1.85
			c-0.02-0.52-0.43-1.02-0.99-1C26.19,5.27,25.63,5.69,25.68,6.24L25.68,6.24z"/>
	</g>
</g>
<g>
	<g>
		<path class="st0" d="M27.17,11.68C27.17,11.68,27.17,11.67,27.17,11.68C27.16,11.67,27.16,11.68,27.17,11.68L27.17,11.68z"/>
	</g>
</g>
<g>
	<g>
		<path class="st0" d="M25.7,2.29c0,0.05,0.01,0.1,0.02,0.14c0,0,0,0.01,0,0.01c0.01,0.03,0.02,0.06,0.03,0.09
			c0.01,0.02,0.02,0.06,0.04,0.08c0,0,0,0.01,0.01,0.01c0.03,0.04,0.06,0.08,0.09,0.12c0.01,0.01,0.02,0.02,0.03,0.03
			c0.04,0.03,0.1,0.08,0.15,0.11c0.05,0.02,0.1,0.04,0.14,0.06c0.01,0,0.02,0.01,0.03,0.01c0.01,0,0.02,0,0.02,0
			c0.05,0.01,0.1,0.02,0.16,0.02c0.01,0,0.02,0,0.02,0c0.05,0,0.11-0.01,0.16-0.02c0.02,0,0.03-0.01,0.05-0.01
			c0.05-0.02,0.09-0.04,0.14-0.06c0,0,0.01,0,0.01,0c0.01,0,0.01-0.01,0.02-0.01c0,0,0.01,0,0.01-0.01
			c0.04-0.03,0.08-0.06,0.12-0.09c0.01-0.01,0.01-0.01,0.02-0.02c0.04-0.04,0.08-0.09,0.11-0.15c0.02-0.04,0.04-0.09,0.05-0.13
			c0,0,0-0.01,0-0.01c0.01-0.05,0.01-0.1,0.02-0.14c0-0.01,0-0.01,0-0.02c0-0.06-0.01-0.13-0.02-0.18c0,0,0-0.01,0-0.01
			c-0.02-0.04-0.04-0.09-0.06-0.14c0-0.01-0.01-0.02-0.01-0.02c-0.03-0.05-0.07-0.09-0.1-0.13c-0.01-0.01-0.01-0.01-0.02-0.02
			c-0.02-0.02-0.05-0.04-0.07-0.06c-0.02-0.02-0.05-0.04-0.08-0.06c-0.01-0.01-0.02-0.01-0.03-0.01c-0.05-0.02-0.1-0.04-0.15-0.06
			c-0.01,0-0.02-0.01-0.03-0.01c-0.03,0-0.05-0.01-0.08-0.01c-0.03,0-0.05-0.01-0.08-0.01c0,0-0.01,0-0.01,0
			c-0.02,0-0.11,0.01-0.14,0.02c-0.01,0-0.12,0.05-0.13,0.05c-0.04,0.03-0.09,0.06-0.12,0.1C26.01,1.75,26,1.75,26,1.76
			c-0.03,0.03-0.06,0.07-0.08,0.11c0,0,0,0,0,0c-0.01,0.01-0.04,0.1-0.05,0.11c-0.01,0.04-0.01,0.08-0.02,0.12
			c0,0.06,0.01,0.12,0.04,0.18c0.01,0.04,0.03,0.08,0.06,0.11c0.03,0.05,0.08,0.09,0.13,0.12c0.04,0.02,0.08,0.04,0.12,0.05
			c0.01,0,0.01,0,0.02,0.01c-0.04-0.02-0.08-0.03-0.12-0.05c0.01,0,0.01,0.01,0.02,0.01c0.04,0.02,0.07,0.04,0.13,0.05
			c0.06,0.02,0.09,0.01,0.14,0.02c-0.04-0.01-0.09-0.01-0.13-0.02c0.02,0,0.04,0.01,0.06,0.02c-0.04-0.02-0.08-0.03-0.12-0.05
			c0.02,0.01,0.04,0.02,0.06,0.03c-0.04-0.03-0.07-0.05-0.11-0.08c0.02,0.01,0.03,0.03,0.05,0.04c-0.03-0.04-0.06-0.07-0.09-0.11
			c0.01,0.02,0.02,0.03,0.03,0.05c-0.02-0.04-0.04-0.09-0.05-0.13c0.01,0.01,0.01,0.03,0.01,0.04c-0.01-0.05-0.01-0.09-0.02-0.14
			c0,0.01,0,0.02,0,0.04c0.01-0.04,0.01-0.09,0.02-0.13c0,0.02-0.01,0.03-0.01,0.05c0.02-0.04,0.03-0.08,0.05-0.13
			c0,0.01-0.01,0.02-0.02,0.03c0.03-0.04,0.06-0.07,0.08-0.11c-0.01,0.01-0.02,0.02-0.03,0.03c0.04-0.03,0.08-0.06,0.11-0.09
			c-0.01,0.01-0.03,0.02-0.04,0.02c0.04-0.02,0.09-0.04,0.13-0.05c-0.02,0.01-0.04,0.01-0.06,0.02c0.05-0.01,0.09-0.01,0.14-0.02
			c-0.02,0-0.05,0-0.07,0c0.04,0.01,0.09,0.01,0.13,0.02c-0.02,0-0.04-0.01-0.06-0.02c0.04,0.02,0.08,0.03,0.13,0.05
			c-0.02-0.01-0.03-0.02-0.05-0.03c0.04,0.03,0.07,0.06,0.11,0.08c-0.01-0.01-0.02-0.02-0.03-0.03c0.03,0.04,0.06,0.07,0.09,0.11
			C26.7,2.1,26.7,2.08,26.69,2.07c0.02,0.04,0.04,0.09,0.05,0.13c-0.01-0.01-0.01-0.03-0.01-0.04c0.01,0.05,0.01,0.09,0.02,0.14
			c0,0,0,0,0,0c0-0.07-0.01-0.14-0.04-0.2c-0.02-0.07-0.06-0.13-0.11-0.18c-0.05-0.05-0.11-0.09-0.17-0.11
			c-0.06-0.03-0.13-0.05-0.2-0.04c-0.05,0.01-0.09,0.01-0.14,0.02C26,1.81,25.92,1.85,25.85,1.92C25.82,1.96,25.79,2,25.76,2.03
			C25.72,2.11,25.7,2.2,25.7,2.29L25.7,2.29z"/>
	</g>
</g>
<g>
	<g>
		<path class="st0" d="M34.47,5.9c-0.48-0.85-1.57-1.16-2.48-0.86c-1.08,0.37-1.71,1.47-1.87,2.55c-0.13,0.96,0.11,2.16,1.05,2.62
			c1.08,0.53,2.61-0.15,3.41-0.92c0.88-0.84,1.12-2.35,0.15-3.23c-0.24-0.22-0.61-0.12-0.7,0.19c-0.39,1.26,0.05,2.66,1.18,3.38
			c1.2,0.75,2.84,0.41,3.62-0.76c0.32-0.48-0.37-0.88-0.75-0.57c-0.62,0.51-1.63,0.71-2.35,0.31c-0.73-0.4-1.13-1.35-0.89-2.14
			c-0.23,0.06-0.47,0.13-0.7,0.19c0.82,0.72,0.11,1.82-0.63,2.24c-0.43,0.25-1,0.46-1.5,0.48c-0.45,0.02-0.75-0.25-0.92-0.65
			C30.74,7.91,31,6.77,31.62,6.13c0.6-0.62,1.76-0.69,2.23,0.12C34.09,6.65,34.7,6.3,34.47,5.9L34.47,5.9z"/>
	</g>
</g>
<g>
	<g>
		<path class="st0" d="M38.38,2.53c0.21,1.17,0.42,2.35,0.63,3.52c0.21,1.17,0.32,2.45,0.78,3.56c0.15,0.36,0.66,0.47,0.98,0.33
			c0.36-0.16,0.55-0.53,0.47-0.92c-0.1-0.46,0-1,0.1-1.46c0.11-0.49,0.29-0.96,0.62-1.34c0.47-0.54,1.33-0.78,2-0.49
			c0.83,0.35,0.67,1.32,0.19,1.9c-0.73,0.88-1.99,0.98-3.01,1.31c-0.46,0.15-0.38,0.81,0.1,0.84c1.19,0.06,2.47-0.17,3.42-0.94
			c0.8-0.65,1.29-1.82,0.97-2.83c-0.3-0.94-1.17-1.46-2.12-1.52c-0.95-0.06-1.88,0.37-2.49,1.09c-0.41,0.48-0.7,1.05-0.9,1.65
			c-0.19,0.58-0.22,1.2-0.41,1.78c0.52,0.07,1.03,0.14,1.55,0.21c0.03-0.63-0.13-1.27-0.23-1.89c-0.1-0.58-0.2-1.15-0.3-1.73
			c-0.21-1.18-0.41-2.35-0.62-3.53c-0.08-0.48-0.65-0.76-1.09-0.64C38.52,1.56,38.29,2.05,38.38,2.53L38.38,2.53z"/>
	</g>
</g>
<g>
	<g>
		<path class="st0" d="M48.89,5.51C48.9,5.51,48.9,5.5,48.89,5.51C48.89,5.5,48.89,5.51,48.89,5.51L48.89,5.51z"/>
	</g>
</g>
<g>
	<g>
		<path class="st0" d="M48.16,2.05c-0.03,1.53,0.06,3.08,0.31,4.59c0.24,1.46,0.65,3.04,1.44,4.3c0.22,0.34,0.88,0.25,0.84-0.22
			c-0.14-1.45-0.5-2.88-0.73-4.31c-0.23-1.45-0.36-2.89-0.35-4.35C49.68,1.08,48.18,1.08,48.16,2.05L48.16,2.05z"/>
	</g>
</g>
<g>
	<g>
		<path class="st0" d="M52.76,8.52c1.12,0.38,2.55,0.27,3.29-0.77c0.57-0.8,0.3-2.09-0.54-2.61c-1.1-0.68-2.3,0.42-2.63,1.44
			c-0.36,1.13,0.01,2.51,0.94,3.26c1.16,0.94,3.01,1.05,4.21,0.1c0.3-0.24-0.03-0.68-0.35-0.61c-0.48,0.1-0.94,0.2-1.44,0.18
			c-0.42-0.02-0.87-0.12-1.24-0.28c-0.77-0.35-1.28-1.04-1.33-1.9c-0.02-0.4,0.06-0.79,0.27-1.13c0.2-0.32,0.58-0.67,0.99-0.61
			c0.66,0.1,0.88,1.09,0.63,1.6c-0.44,0.91-1.8,0.94-2.62,0.7C52.52,7.76,52.36,8.38,52.76,8.52L52.76,8.52z"/>
	</g>
</g>
<g>
	<g>
		<path class="st0" d="M62.32,4.46c-0.86,0.27-1.57,0.79-2.06,1.55c-0.09,0.14-0.1,0.39,0,0.53c0.36,0.51,0.71,1.04,1.06,1.56
			c0.17,0.26,0.35,0.52,0.52,0.79c0.14,0.21,0.31,0.43,0.41,0.67c0.15,0.37-0.11,0.69-0.45,0.85c-0.46,0.21-1.03,0.19-1.53,0.23
			c-0.51,0.04-0.69,0.82-0.13,0.94c0.73,0.16,1.47,0.21,2.17-0.1c0.61-0.28,1.09-0.87,1.14-1.56C63.5,9.18,62.97,8.57,62.57,8
			c-0.47-0.66-0.93-1.32-1.38-1.99c-0.03,0.21-0.05,0.43-0.08,0.64C61.5,6.14,62,5.77,62.62,5.61C63.36,5.41,63.05,4.23,62.32,4.46
			L62.32,4.46z"/>
	</g>
</g>
<g>
	<g>
		<path class="st0" d="M2.98,15.84c16.35,0.22,32.68,0.71,49.02,1.38c4.64,0.19,9.28,0.38,13.93,0.52c0.51,0.01,0.51-0.76,0-0.79
			c-16.31-1.05-32.67-1.35-49.01-1.75c-4.65-0.11-9.29-0.21-13.94-0.29C2.38,14.89,2.37,15.83,2.98,15.84L2.98,15.84z"/>
	</g>
</g>
<g>
	<g>
		<path class="st1" d="M50.83,33.21C50.83,33.21,50.83,33.21,50.83,33.21C50.82,33.21,50.82,33.21,50.83,33.21L50.83,33.21z"/>
	</g>
</g>
<g>
	<g>
		<path class="st1" d="M49.77,32.61c0.35,1.77,0.71,3.55,1.06,5.32c0.35,1.75,0.65,3.59,1.28,5.26c0.18,0.47,0.98,0.47,0.95-0.12
			c-0.11-1.8-0.58-3.61-0.97-5.36c-0.41-1.8-0.82-3.59-1.23-5.39C50.69,31.63,49.63,31.91,49.77,32.61L49.77,32.61z"/>
	</g>
</g>
<g>
	<g>
		<path class="st1" d="M52.25,32.96c0.76-0.14,1.52-0.18,2.32-0.2c0.81-0.02,1.61,0.04,2.42,0.02c0.25-0.01,0.48-0.17,0.55-0.42
			c0.06-0.22-0.04-0.54-0.26-0.63c-0.42-0.18-0.84-0.32-1.29-0.4c-0.46-0.08-0.94-0.1-1.4-0.11c-0.91-0.02-1.82,0.1-2.71,0.29
			c-0.39,0.08-0.66,0.54-0.54,0.92C51.46,32.83,51.84,33.03,52.25,32.96L52.25,32.96z"/>
	</g>
</g>
<g>
	<g>
		<path class="st1" d="M53.05,38.52c1.64,0.18,3.29,0.42,4.94,0.29c0.5-0.04,0.64-0.75,0.12-0.89c-1.64-0.46-3.36-0.55-5.05-0.69
			c-0.35-0.03-0.65,0.31-0.65,0.64C52.4,38.25,52.7,38.48,53.05,38.52L53.05,38.52z"/>
	</g>
</g>
<g>
	<g>
		<path class="st1" d="M18.91,42.21c0.07,0.52,0.09,1.17,0.09,1.74c0,0.61-0.08,1.21-0.09,1.81c-0.01,0.37,0.57,0.57,0.73,0.2
			c0.14-0.32,0.24-0.62,0.3-0.97c0.07-0.33,0.11-0.67,0.15-1c0.07-0.64,0.06-1.29,0-1.93c-0.03-0.36-0.29-0.64-0.67-0.59
			C19.03,41.52,18.86,41.86,18.91,42.21L18.91,42.21z"/>
	</g>
</g>
<g>
	<g>
		<path class="st1" d="M4.88,39.37c0.23,1.54,0.38,3.08,0.45,4.64c0.07,1.56,0.07,3.12,0.31,4.67c0.09,0.6,1,0.54,1.14,0
			c0.41-1.59,0.4-3.22,0.31-4.85c-0.09-1.64-0.27-3.28-0.52-4.9c-0.07-0.47-0.64-0.74-1.07-0.63C5.01,38.43,4.81,38.9,4.88,39.37
			L4.88,39.37z"/>
	</g>
</g>
<g>
	<g>
		<path class="st1" d="M5.19,38.01c0.79-0.61,1.76-0.98,2.76-1.04c0.92-0.05,2.03,0.08,2.75,0.71c0.31,0.27,0.51,0.65,0.27,1.04
			c-0.24,0.41-0.74,0.66-1.16,0.86c-0.51,0.25-1.06,0.44-1.61,0.57c-0.26,0.06-0.53,0.11-0.79,0.16c-0.29,0.05-0.63,0.05-0.88,0.23
			c-0.25,0.19-0.28,0.52,0,0.7c0.44,0.28,1.18,0.11,1.66,0.02c0.56-0.11,1.1-0.29,1.63-0.51c0.89-0.38,1.98-0.96,2.21-2
			c0.22-1-0.55-1.84-1.39-2.24c-0.88-0.42-1.91-0.58-2.89-0.47c-1.14,0.13-2.18,0.59-3.05,1.34C4.36,37.67,4.82,38.28,5.19,38.01
			L5.19,38.01z"/>
	</g>
</g>
<g>
	<g>
		<path class="st1" d="M5.98,33.72C5.98,33.72,5.98,33.72,5.98,33.72C5.97,33.72,5.97,33.72,5.98,33.72L5.98,33.72z"/>
	</g>
</g>
<g>
	<g>
		<path class="st1" d="M5.73,34.35c1.12,0.01,2.24,0.02,3.36,0.03c0.56,0.01,1.12,0.01,1.68,0.02c0.26,0,0.52,0.01,0.78,0.02
			c0.34,0.02,0.6-0.03,0.93-0.11c0.49-0.11,0.61-0.86,0.14-1.09c-0.29-0.14-0.56-0.4-0.83-0.59c-0.29-0.21-0.59-0.41-0.89-0.6
			c-0.6-0.38-1.19-0.74-1.88-0.95c-0.24-0.07-0.5,0.07-0.59,0.3c-0.1,0.25,0.01,0.47,0.21,0.63c0.53,0.4,1.11,0.69,1.68,1.04
			c0.27,0.17,0.54,0.34,0.8,0.52c0.26,0.18,0.58,0.35,0.79,0.59c0.19-0.33,0.38-0.67,0.57-1c-0.33-0.08-0.59-0.13-0.93-0.11
			c-0.26,0.01-0.52,0.01-0.78,0.01c-0.56,0-1.12,0-1.68,0c-1.12,0-2.24,0-3.36,0.01C4.91,33.07,4.9,34.35,5.73,34.35L5.73,34.35z"/>
	</g>
</g>
<g>
	<g>
		<path class="st1" d="M52.31,29.11c1.08-0.08,2.17-0.1,3.26-0.07c0.53,0.02,1.06,0.05,1.59,0.08c0.25,0.01,0.51,0.02,0.76,0.04
			c0.3,0.02,0.59,0.09,0.89,0.1c0.59,0.03,0.6-0.76,0.13-0.95c-0.17-0.06-0.36-0.23-0.51-0.33c-0.18-0.11-0.35-0.23-0.52-0.35
			c-0.33-0.24-0.64-0.51-0.92-0.79c-0.59-0.59-1.05-1.28-1.59-1.92c-0.31-0.36-1.02,0.03-0.84,0.48c0.19,0.47,0.4,0.84,0.73,1.23
			c0.3,0.36,0.63,0.7,0.98,1.01c0.34,0.31,0.71,0.59,1.09,0.85c0.19,0.13,0.38,0.25,0.57,0.36c0.21,0.12,0.45,0.2,0.65,0.33
			c0.12-0.29,0.24-0.59,0.36-0.88c-0.29-0.07-0.59-0.08-0.88-0.13c-0.25-0.04-0.5-0.08-0.75-0.12c-0.55-0.08-1.11-0.11-1.67-0.14
			c-1.11-0.05-2.22-0.03-3.32,0.05C51.59,28.04,51.59,29.17,52.31,29.11L52.31,29.11z"/>
	</g>
</g>
<g>
	<g>
		<path class="st0" d="M128.86,0.96c0.19,1.94,0.39,3.89,0.6,5.83c0.2,1.9,0.29,3.94,0.93,5.76c0.17,0.48,1.02,0.63,1.11,0
			c0.27-1.89,0-3.86-0.16-5.75c-0.17-1.94-0.36-3.89-0.54-5.83c-0.05-0.52-0.4-0.97-0.96-0.97C129.35,0,128.81,0.44,128.86,0.96
			L128.86,0.96z"/>
	</g>
</g>
<g>
	<g>
		<path class="st0" d="M133.81,7.87c0.11,0.55,0.21,1.11,0.33,1.66c0.12,0.55,0.28,1.09,0.47,1.62c0.1,0.27,0.33,0.46,0.63,0.42
			c0.28-0.04,0.5-0.27,0.5-0.56c0.01-0.61-0.02-1.23-0.11-1.84c-0.08-0.57-0.16-1.15-0.24-1.72c-0.03-0.2-0.22-0.41-0.39-0.51
			c-0.17-0.1-0.42-0.14-0.61-0.08C133.95,7.01,133.72,7.42,133.81,7.87L133.81,7.87z"/>
	</g>
</g>
<g>
	<g>
		<path class="st0" d="M133.76,4.89c0.05,0,0.11,0,0.16-0.02c0.05-0.01,0.1-0.03,0.14-0.06c0.04-0.03,0.08-0.06,0.12-0.1
			c0.06-0.08,0.09-0.12,0.12-0.21c0.01-0.02,0.01-0.04,0.01-0.06c0.01-0.05,0.02-0.1,0.02-0.16c0-0.08-0.02-0.15-0.03-0.22
			c0,0.03,0.01,0.07,0.01,0.1c-0.01-0.13-0.03-0.22-0.09-0.33c0.01,0.04,0.03,0.07,0.04,0.11c-0.02-0.05-0.04-0.11-0.07-0.16
			c-0.03-0.04-0.06-0.08-0.09-0.12c-0.06-0.07-0.14-0.1-0.23-0.13c-0.01,0-0.02-0.01-0.03-0.01c-0.04-0.01-0.09-0.02-0.13-0.02
			c-0.01,0-0.01,0-0.02,0c-0.11,0-0.22,0.03-0.31,0.08c-0.16,0.09-0.25,0.26-0.25,0.44c0,0.09,0.02,0.18,0.07,0.26
			c0.05,0.08,0.11,0.14,0.19,0.19c0.1,0.04,0.2,0.09,0.31,0.11c0.08,0.01,0.15,0.02,0.23,0.02c0.07-0.01,0.15-0.01,0.22-0.03
			c0.11-0.02,0.2-0.09,0.28-0.16c0.02-0.02,0.04-0.04,0.06-0.07c0.02-0.02,0.04-0.05,0.05-0.07c0.07-0.09,0.09-0.2,0.07-0.31
			c-0.01-0.06-0.05-0.11-0.09-0.16c0.02,0.02,0.04,0.05,0.05,0.07c-0.01-0.01-0.02-0.03-0.03-0.04c-0.04-0.05-0.09-0.09-0.15-0.11
			c-0.03-0.01-0.05-0.02-0.08-0.03c-0.03-0.01-0.06-0.02-0.09-0.03c0.04,0.01,0.07,0.03,0.11,0.04c-0.01,0-0.02-0.01-0.03-0.01
			c-0.08-0.04-0.11-0.05-0.19-0.06c-0.05-0.01-0.09-0.01-0.14-0.02c0.04,0.01,0.08,0.01,0.12,0.02c-0.05-0.01-0.1-0.02-0.15-0.03
			c-0.05-0.01-0.1-0.02-0.15-0.04c0.04,0.02,0.08,0.03,0.12,0.05c-0.01,0-0.01-0.01-0.02-0.01c0,0.29,0,0.59,0,0.88
			c0.05-0.03,0.09-0.07,0.13-0.1c-0.04,0.03-0.07,0.05-0.11,0.08c0.01-0.01,0.02-0.02,0.04-0.02c-0.04,0.02-0.08,0.03-0.12,0.05
			c0.01,0,0.02-0.01,0.03-0.01c-0.04,0.01-0.08,0.01-0.12,0.02c0.05-0.01,0.1-0.01,0.15-0.02c-0.04,0.01-0.08,0.01-0.12,0.02
			c0.01,0,0.02,0,0.04,0c-0.04-0.01-0.08-0.01-0.12-0.02c0.01,0,0.03,0.01,0.04,0.01c-0.03-0.01-0.07-0.03-0.1-0.04
			c0.01,0,0.02,0.01,0.02,0.02c-0.03-0.02-0.06-0.04-0.09-0.07c0.02,0.02,0.04,0.04,0.06,0.06c-0.02-0.03-0.04-0.06-0.07-0.09
			c0,0,0.01,0.01,0.01,0.01c-0.01-0.03-0.03-0.07-0.04-0.1c0.01,0.03,0.02,0.07,0.03,0.1c0-0.03-0.01-0.07-0.01-0.1
			c0,0.03,0,0.06,0,0.09c0-0.03,0.01-0.07,0.01-0.1c0,0.02-0.01,0.03-0.01,0.05c0.01-0.03,0.03-0.06,0.04-0.09
			c-0.01,0.01-0.01,0.03-0.02,0.04c0.02-0.03,0.04-0.05,0.06-0.08c-0.01,0.01-0.02,0.02-0.02,0.02c0.03-0.02,0.06-0.04,0.08-0.06
			c-0.01,0.01-0.02,0.01-0.03,0.02c0.03-0.01,0.06-0.03,0.1-0.04c-0.01,0.01-0.03,0.01-0.04,0.01c0.03,0,0.07-0.01,0.1-0.01
			c-0.01,0-0.02,0-0.03,0c-0.1,0-0.21,0.04-0.28,0.12c-0.07,0.07-0.11,0.17-0.11,0.27c0,0.1,0.04,0.21,0.12,0.28
			C133.56,4.85,133.65,4.88,133.76,4.89L133.76,4.89z"/>
	</g>
</g>
<g>
	<g>
		<path class="st0" d="M138.43,10.6c-0.12-0.8-0.19-1.77,0.31-2.47c0.18-0.26,0.44-0.48,0.74-0.58c0.13-0.04,0.26-0.06,0.4-0.05
			c0.06,0.01,0.12,0.02,0.17,0.04c0.03,0.01,0.18,0.07,0.13,0.05c-0.06-0.03,0.09,0.05,0.12,0.06c0.02,0.01,0.17,0.12,0.11,0.07
			c-0.06-0.05,0.06,0.05,0.07,0.07c0.05,0.05,0.1,0.1,0.15,0.16c0.12,0.13-0.02-0.05,0.05,0.05c0.04,0.05,0.08,0.11,0.11,0.17
			c0.07,0.12,0.14,0.24,0.21,0.36c0.27,0.52,0.48,1.08,0.76,1.6c0.35,0.65,0.83,1.33,1.59,1.49c0.6,0.13,0.9-0.53,0.56-0.97
			c0.07,0.1-0.04-0.08-0.06-0.1c-0.06-0.09-0.14-0.17-0.21-0.25c-0.02-0.02-0.17-0.2-0.11-0.13c0.06,0.07,0-0.01-0.01-0.02
			c-0.03-0.05-0.07-0.1-0.1-0.15c-0.19-0.26-0.35-0.54-0.5-0.83c-0.3-0.57-0.57-1.18-0.95-1.7c-0.4-0.55-0.93-1.04-1.63-1.15
			c-1-0.15-1.9,0.36-2.47,1.16c-0.69,0.98-0.64,2.26-0.47,3.39c0.04,0.29,0.4,0.46,0.66,0.39C138.35,11.18,138.47,10.89,138.43,10.6
			L138.43,10.6z"/>
	</g>
</g>
<g>
	<g>
		<path class="st0" d="M145.4,4.87c0.15,1.35,0.29,2.7,0.46,4.05c0.17,1.31,0.28,2.65,0.65,3.93c0.2,0.7,1.18,0.55,1.23-0.15
			c0.08-1.3-0.08-2.61-0.19-3.91c-0.11-1.3-0.26-2.6-0.39-3.91C147.11,4.41,146.8,4,146.29,4C145.86,4,145.35,4.4,145.4,4.87
			L145.4,4.87z"/>
	</g>
</g>
<g>
	<g>
		<path class="st0" d="M147.99,9.62C147.99,9.62,147.99,9.61,147.99,9.62C147.98,9.61,147.98,9.62,147.99,9.62L147.99,9.62z"/>
	</g>
</g>
<g>
	<g>
		<path class="st0" d="M148.15,9.21c0.36-0.4,0.73-0.78,1.13-1.14c0.42-0.38,0.84-0.7,1.24-1.02c0.36-0.28,0.76-0.56,1.17-0.86
			c0.46-0.34,0.93-0.64,1.33-1.05c0.33-0.33-0.02-0.78-0.42-0.72c-1.1,0.15-2.09,0.84-2.96,1.51c-0.89,0.69-1.68,1.55-2.36,2.44
			c-0.2,0.26-0.25,0.61,0.01,0.86C147.52,9.44,147.93,9.46,148.15,9.21L148.15,9.21z"/>
	</g>
</g>
<g>
	<g>
		<path class="st0" d="M147.8,11.28c0.67,0.43,1.34,0.87,2.01,1.3c0.32,0.21,0.65,0.43,0.98,0.62c0.37,0.21,0.94,0.42,1.38,0.38
			c0.36-0.04,0.73-0.36,0.6-0.77c-0.3-0.89-1.23-1.39-1.98-1.87c-0.69-0.44-1.37-0.87-2.06-1.31c-0.42-0.27-1.07-0.09-1.29,0.35
			C147.2,10.46,147.35,10.99,147.8,11.28L147.8,11.28z"/>
	</g>
</g>
<g>
	<g>
		<path class="st0" d="M130.13,18.16c9.39-0.29,18.79-0.17,28.18-0.44c0.41-0.01,0.42-0.62,0-0.64c-9.38-0.37-18.8-0.02-28.18,0.25
			C129.59,17.34,129.59,18.18,130.13,18.16L130.13,18.16z"/>
	</g>
</g>
<g>
	<g>
		<path class="st1" d="M124.38,35.48c0.22,2.86,0.39,5.71,0.83,8.54c0.12,0.77,1.3,0.57,1.31-0.16c0.07-2.79-0.14-5.58-0.3-8.37
			c-0.03-0.5-0.4-0.92-0.92-0.93C124.84,34.56,124.34,34.98,124.38,35.48L124.38,35.48z"/>
	</g>
</g>
<g>
	<g>
		<path class="st1" d="M126.97,34.51c1.62-0.02,3.27,0.04,4.87-0.24c0.46-0.08,0.47-0.84,0-0.92c-1.6-0.28-3.24-0.22-4.86-0.24
			c-0.38,0-0.7,0.32-0.7,0.7C126.28,34.18,126.59,34.51,126.97,34.51L126.97,34.51z"/>
	</g>
</g>
<g>
	<g>
		<path class="st1" d="M127.25,39.05c1.8,0.14,3.65,0.38,5.45,0.15c0.22-0.03,0.38-0.29,0.39-0.5c0-0.23-0.16-0.43-0.38-0.5
			c-0.89-0.27-1.81-0.35-2.73-0.47c-0.9-0.11-1.81-0.17-2.71-0.25c-0.42-0.04-0.79,0.38-0.79,0.78
			C126.47,38.71,126.83,39.02,127.25,39.05L127.25,39.05z"/>
	</g>
</g>
<g>
	<g>
		<path class="st1" d="M126.14,30.59c1.53,0.15,3.09,0.09,4.61-0.17c0.31-0.05,0.42-0.44,0.29-0.68c-0.29-0.53-0.57-1.08-0.86-1.61
			c-0.3-0.54-0.59-1.08-1.01-1.54c-0.26-0.28-0.76,0.01-0.65,0.38c0.17,0.6,0.49,1.13,0.79,1.66c0.3,0.53,0.62,1.05,0.92,1.57
			c0.1-0.23,0.19-0.46,0.29-0.68c-1.44,0.29-2.9,0.36-4.37,0.22c-0.23-0.02-0.43,0.21-0.43,0.43
			C125.71,30.41,125.91,30.56,126.14,30.59L126.14,30.59z"/>
	</g>
</g>
<g>
	<g>
		<path class="st1" d="M139.54,38.91c1.4,0.15,2.79,0.32,4.19,0.39c0.3,0.01,0.37-0.47,0.07-0.53c-1.41-0.27-2.84-0.44-4.26-0.63
			c-0.21-0.03-0.39,0.19-0.39,0.38C139.15,38.75,139.33,38.89,139.54,38.91L139.54,38.91z"/>
	</g>
</g>
<g>
	<g>
		<path class="st1" d="M140.37,41.53c0.65,0.04,1.3,0.08,1.96,0.12c0.32,0.02,0.64,0.04,0.96,0.06c0.35,0.02,0.75,0.11,0.99-0.22
			c0.07-0.09,0.05-0.22,0-0.32c-0.17-0.34-0.67-0.29-0.99-0.32c-0.32-0.03-0.64-0.06-0.96-0.09c-0.65-0.06-1.3-0.12-1.96-0.18
			c-0.25-0.02-0.47,0.23-0.47,0.47C139.9,41.33,140.12,41.52,140.37,41.53L140.37,41.53z"/>
	</g>
</g>
<g>
	<g>
		<path class="st1" d="M157.45,29.71c-1.72-0.83-3.96-0.52-4.94,1.26c-0.89,1.62-0.14,3.5,1.55,4.18c1.59,0.63,3.34-0.09,4.05-1.64
			c0.74-1.62,0.27-3.22-0.91-4.47c-1.15-1.21-2.7-2.1-3.38-3.69c-0.18-0.41-0.86-0.2-0.84,0.22c0.08,1.31,0.94,2.19,1.89,2.99
			c0.87,0.72,1.97,1.5,2.34,2.62c0.37,1.12-0.23,2.56-1.41,2.93c-1.08,0.33-2.48-0.48-2.59-1.64c-0.07-0.78,0.38-1.56,1.02-1.98
			c0.85-0.55,1.93-0.5,2.81-0.08C157.51,30.63,157.92,29.93,157.45,29.71L157.45,29.71z"/>
	</g>
</g>
<g>
	<g>
		<path class="st1" d="M159.63,32.51c0.13,1.63,0.25,3.25,0.38,4.88c0.06,0.78,0.12,1.57,0.21,2.35c0.08,0.78,0.1,1.63,0.6,2.28
			c0.16,0.21,0.51,0.11,0.63-0.09c0.36-0.65,0.26-1.47,0.23-2.18c-0.04-0.81-0.1-1.63-0.16-2.44c-0.12-1.6-0.24-3.19-0.36-4.79
			C161.07,31.55,159.55,31.54,159.63,32.51L159.63,32.51z"/>
	</g>
</g>
<g>
	<g>
		<path class="st1" d="M160.81,32.08c0.72-0.45,1.46-0.91,2.31-1.1c0.32-0.07,0.71-0.09,0.96-0.03c0.34,0.07,0.54,0.15,0.83,0.37
			c-0.08-0.06,0.09,0.08,0.11,0.1c0.05,0.05,0.1,0.1,0.15,0.16c0.06,0.07,0,0-0.01-0.01c0.03,0.04,0.05,0.08,0.08,0.12
			c0.02,0.04,0.1,0.2,0.09,0.17c0.07,0.18,0.08,0.46,0.01,0.64c-0.12,0.31-0.34,0.56-0.57,0.73c-0.25,0.19-0.61,0.33-0.96,0.42
			c-0.48,0.12-0.9,0.16-1.39,0.21c-0.1,0.01-0.2,0.01-0.3,0.02c-0.04,0-0.13,0.03-0.04,0.01c-0.03-0.01-0.05-0.01-0.08-0.02
			c0.06,0.03,0.12,0.07,0.17,0.1c-0.03-0.03-0.06-0.08-0.03-0.01c0.04,0.1-0.07-0.09-0.08-0.11c-0.09-0.11-0.19-0.2-0.33-0.25
			c-0.06-0.03-0.13-0.05-0.2-0.05c-0.15-0.02-0.14-0.02,0.05,0c0.1,0.06,0.2,0.11,0.3,0.17c0.02,0.02,0.03,0.05,0.05,0.07
			c0.03,0.1,0.05,0.19,0.08,0.29c0,0.01-0.01,0.02-0.01,0.02c0.04-0.28-0.13-0.65-0.47-0.61c-0.18,0.02-0.34,0.06-0.5,0.15
			c-0.23,0.12-0.42,0.43-0.4,0.69c0.13,1.63,2.07,1.21,3.15,0.96c1.08-0.24,2.13-0.79,2.69-1.77c0.54-0.94,0.46-2.07-0.25-2.9
			c-0.6-0.71-1.61-1.1-2.52-1.07c-1.31,0.04-2.46,0.74-3.53,1.44C159.47,31.42,160.1,32.52,160.81,32.08L160.81,32.08z"/>
	</g>
</g>
<g>
	<g>
		<path class="st1" d="M162.29,27.26c0.88-0.07,1.77-0.13,2.65-0.2c0.43-0.03,0.87-0.07,1.3-0.11c0.45-0.04,0.9-0.12,1.35-0.16
			c0.51-0.04,0.7-0.56,0.39-0.95c-0.47-0.6-1-1.14-1.51-1.7c-0.26-0.28-0.51-0.56-0.77-0.84c-0.12-0.13-0.23-0.25-0.35-0.38
			c-0.01-0.01-0.17-0.2-0.18-0.2c0,0.01,0.01,0.01,0.01,0.02c0.11,0.21,0.01,0.37-0.3,0.49c-0.08-0.02-0.16-0.04-0.24-0.06
			c0.01,0.01,0.03,0.01,0.04,0.02c0.33,0.14,0.84-0.11,0.69-0.53c-0.21-0.57-1.03-0.65-1.34-0.1c-0.38,0.66,0.22,1.23,0.65,1.65
			c0.83,0.82,1.64,1.68,2.53,2.43c0.13-0.32,0.26-0.63,0.39-0.95c-0.45,0.03-0.9,0.01-1.35,0.04c-0.43,0.02-0.87,0.05-1.3,0.09
			c-0.88,0.06-1.77,0.13-2.65,0.19c-0.34,0.02-0.63,0.27-0.63,0.63C161.66,26.94,161.95,27.28,162.29,27.26L162.29,27.26z"/>
	</g>
</g>
<g>
	<g>
		<path class="st1" d="M151.69,40.61c6.51,0.4,13.02,0.41,19.54,0.25c0.85-0.02,0.85-1.37,0.01-1.32
			c-6.5,0.39-13.04,0.32-19.54-0.02C150.99,39.48,150.99,40.57,151.69,40.61L151.69,40.61z"/>
	</g>
</g>
<g>
	<g>
		<path class="st1" d="M155.75,49.97c-1.2,0.36-2.59,0.89-2.88,2.26c-0.12,0.59-0.03,1.22,0.36,1.69c0.44,0.52,1.16,0.68,1.82,0.6
			c1.2-0.14,2.18-1.03,2.64-2.12c0.5-1.18,0.4-2.49-0.22-3.6c-0.36-0.64-0.86-1.2-1.43-1.65c-0.57-0.46-1.29-1.03-2.05-0.92
			c-0.31,0.05-0.47,0.48-0.3,0.73c0.29,0.45,0.78,0.61,1.21,0.9c0.39,0.26,0.74,0.58,1.04,0.93c0.54,0.63,0.97,1.52,0.85,2.37
			c-0.1,0.72-0.51,1.48-1.13,1.88c-0.51,0.32-1.62,0.56-1.69-0.3c-0.09-1.09,1.23-1.53,2.05-1.81
			C156.61,50.74,156.37,49.79,155.75,49.97L155.75,49.97z"/>
	</g>
</g>
<g>
	<g>
		<path class="st1" d="M162.19,48.98c0.04,1.1-0.4,2.15-0.54,3.23c-0.12,0.91-0.03,1.93,0.51,2.7c0.58,0.82,1.55,1.21,2.54,1.13
			c0.49-0.04,0.97-0.17,1.4-0.4c0.42-0.22,0.87-0.52,1-1c0.06-0.24-0.12-0.43-0.35-0.45c-0.4-0.04-0.77,0.14-1.14,0.25
			c-0.35,0.1-0.64,0.17-0.98,0.19c-0.64,0.03-1.14-0.19-1.43-0.74c-0.12-0.22-0.2-0.6-0.22-0.9c-0.02-0.37,0.02-0.71,0.08-1.06
			c0.18-0.97,0.49-1.94,0.43-2.94c-0.02-0.35-0.28-0.65-0.65-0.66C162.5,48.33,162.18,48.63,162.19,48.98L162.19,48.98z"/>
	</g>
</g>
<g>
	<g>
		<path class="st1" d="M162.27,51.91c0.43-0.1,0.85-0.19,1.29-0.25c0.12-0.02,0.13-0.02,0.05-0.01c0.07-0.01,0.13-0.01,0.2-0.02
			c0.08-0.01,0.17-0.02,0.25-0.03c-0.08,0.01-0.06,0.01,0.05-0.01c0.22-0.02,0.44-0.04,0.66-0.05c0.44-0.03,0.87-0.03,1.31-0.04
			c0.45-0.01,0.95-0.01,1.37-0.18c0.32-0.12,0.51-0.53,0.22-0.81c-0.73-0.68-1.95-0.78-2.89-0.82c-1.01-0.04-2.02,0.08-3.01,0.3
			c-0.5,0.11-0.86,0.71-0.71,1.21C161.23,51.72,161.73,52.04,162.27,51.91L162.27,51.91z"/>
	</g>
</g>
<g>
	<g>
		<path class="st1" d="M42.14,41.42c-0.05,0.7-0.16,1.36-0.34,2.07c-0.09,0.35-0.19,0.7-0.29,1.06c-0.1,0.36-0.19,0.75-0.16,1.12
			c0.03,0.41,0.45,0.56,0.76,0.31c0.61-0.5,0.86-1.44,1.03-2.17c0.18-0.78,0.28-1.58,0.32-2.38c0.02-0.35-0.31-0.68-0.66-0.66
			C42.43,40.78,42.17,41.06,42.14,41.42L42.14,41.42z"/>
	</g>
</g>
<g>
	<g>
		<path class="st1" d="M28.32,34.09c-0.51,2.15-0.93,4.51,0.21,6.53c0.51,0.9,1.3,1.62,2.29,1.93c1.05,0.33,2.26,0.11,3.21-0.4
			c0.5-0.27,0.3-1.15-0.29-1.11c-0.82,0.06-1.68,0.08-2.44-0.28c-0.31-0.14-0.44-0.25-0.68-0.48c-0.27-0.26-0.37-0.42-0.56-0.79
			c-0.31-0.6-0.43-1.34-0.4-2.08c0.03-0.96,0.27-1.9,0.49-2.83c0.12-0.5-0.17-1.03-0.67-1.16C29,33.28,28.44,33.59,28.32,34.09
			L28.32,34.09z"/>
	</g>
</g>
<g>
	<g>
		<path class="st1" d="M25.93,38.19c1.4,0.12,2.8,0.2,4.2,0.24c0.7,0.02,1.4,0.02,2.1,0.03c0.66,0.01,1.37,0.07,2.02-0.11
			c0.27-0.07,0.3-0.52,0-0.57c-0.66-0.12-1.35-0.03-2.02-0.01c-0.7,0.02-1.4,0.01-2.1,0c-1.4-0.02-2.8-0.09-4.2-0.2
			C25.53,37.54,25.53,38.16,25.93,38.19L25.93,38.19z"/>
	</g>
</g>
</svg>
