<?xml version="1.0" encoding="utf-8"?>
<!-- Generator: Adobe Illustrator 26.0.2, SVG Export Plug-In . SVG Version: 6.00 Build 0)  -->
<svg version="1.1" id="Layer_1" xmlns="http://www.w3.org/2000/svg" xmlns:xlink="http://www.w3.org/1999/xlink" x="0px" y="0px"
	 viewBox="0 0 122.56 52.18" style="enable-background:new 0 0 122.56 52.18;" xml:space="preserve">
<style type="text/css">
	.st0{opacity:0.4;fill:#486AFB;stroke:#486AFB;stroke-miterlimit:10;}
	.st1{fill:none;stroke:#486AFB;stroke-miterlimit:10;}
	.st2{fill:#486AFB;}
	.st3{fill:#FD46FC;}
</style>
<circle class="st0" cx="11.5" cy="40.31" r="11"/>
<circle class="st1" cx="11.5" cy="40.31" r="11"/>
<circle class="st1" cx="59.5" cy="40.31" r="11"/>
<g>
	<g>
		<line class="st1" x1="24.5" y1="40.31" x2="42.98" y2="40.31"/>
		<g>
			<path class="st2" d="M46,40.31c-1.42,0.53-3.18,1.43-4.27,2.38l0.86-2.38l-0.86-2.38C42.82,38.89,44.58,39.78,46,40.31z"/>
		</g>
	</g>
</g>
<path class="st3" d="M60.81,38.41c0.08-0.11,0.1-0.13,0.1-0.22c0-0.21-0.14-0.21-0.32-0.21h-3.65l-0.12,1.74h0.47
	c0.06-1.02,0.37-1.38,1.39-1.38h0.84l-2.77,3.62c-0.09,0.11-0.09,0.13-0.09,0.22c0,0.22,0.13,0.22,0.32,0.22h3.78l0.18-2.01h-0.47
	c-0.09,1-0.25,1.61-1.56,1.61h-0.85L60.81,38.41"/>
<circle class="st0" cx="109.76" cy="40.68" r="11"/>
<path class="st3" d="M112.27,38.48l0.14-0.14c0.3-0.3,0.63-0.64,1.3-0.69c0.11-0.01,0.2-0.01,0.2-0.19c0-0.08-0.05-0.12-0.13-0.12
	c-0.26,0-0.55,0.03-0.81,0.03c-0.33,0-0.68-0.03-0.99-0.03c-0.06,0-0.19,0-0.19,0.19c0,0.11,0.1,0.12,0.15,0.12
	c0.07,0,0.36,0.02,0.36,0.23c0,0.17-0.23,0.43-0.27,0.48l-2.3,2.65l-1.09-2.95c-0.06-0.14-0.06-0.16-0.06-0.17
	c0-0.24,0.49-0.24,0.59-0.24c0.14,0,0.24,0,0.24-0.2c0-0.11-0.12-0.11-0.15-0.11c-0.28,0-0.97,0.03-1.25,0.03
	c-0.25,0-0.86-0.03-1.11-0.03c-0.06,0-0.19,0-0.19,0.2c0,0.11,0.1,0.11,0.23,0.11c0.6,0,0.64,0.09,0.72,0.34l1.22,3.27
	c0.01,0.03,0.04,0.14,0.04,0.17c0,0.03-0.4,1.63-0.45,1.81c-0.13,0.55-0.14,0.58-0.93,0.59c-0.19,0-0.27,0-0.27,0.2
	c0,0.11,0.12,0.11,0.14,0.11c0.28,0,0.97-0.03,1.25-0.03c0.28,0,0.99,0.03,1.27,0.03c0.07,0,0.19,0,0.19-0.2
	c0-0.11-0.09-0.11-0.28-0.11c-0.02,0-0.21,0-0.38-0.02c-0.21-0.02-0.27-0.04-0.27-0.16c0-0.07,0.09-0.42,0.14-0.62l0.35-1.4
	c0.05-0.19,0.06-0.22,0.14-0.31L112.27,38.48"/>
<circle class="st1" cx="109.76" cy="40.68" r="11"/>
<g>
	<g>
		<line class="st1" x1="74.76" y1="40.68" x2="93.24" y2="40.68"/>
		<g>
			<path class="st2" d="M96.26,40.68c-1.42,0.53-3.18,1.43-4.27,2.38l0.86-2.38l-0.86-2.38C93.08,39.25,94.84,40.15,96.26,40.68z"/>
		</g>
	</g>
</g>
<g>
	<g>
		<line class="st1" x1="51.95" y1="9.8" x2="55.39" y2="24.88"/>
		<g>
			<path class="st2" d="M56.06,27.83c-0.83-1.27-2.1-2.78-3.27-3.64l2.51,0.31l2.13-1.37C56.74,24.41,56.26,26.33,56.06,27.83z"/>
		</g>
	</g>
</g>
<g>
	<g>
		<line class="st1" x1="65.9" y1="9.87" x2="62.46" y2="24.96"/>
		<g>
			<path class="st2" d="M61.79,27.9c-0.2-1.5-0.68-3.42-1.37-4.7l2.13,1.37l2.51-0.31C63.89,25.12,62.62,26.63,61.79,27.9z"/>
		</g>
	</g>
</g>
<g>
	<g>
		<line class="st1" x1="102.07" y1="10.03" x2="105.51" y2="25.12"/>
		<g>
			<path class="st2" d="M106.19,28.06c-0.83-1.27-2.1-2.78-3.27-3.64l2.51,0.31l2.13-1.37C106.87,24.64,106.38,26.56,106.19,28.06z"
				/>
		</g>
	</g>
</g>
<g>
	<g>
		<line class="st1" x1="116.03" y1="10.1" x2="112.58" y2="25.19"/>
		<g>
			<path class="st2" d="M111.91,28.13c-0.2-1.5-0.68-3.42-1.37-4.7l2.13,1.37l2.51-0.31C114.01,25.35,112.74,26.86,111.91,28.13z"/>
		</g>
	</g>
</g>
<path class="st3" d="M11.79,39.82l1.67-2.2c0.11-0.14,0.12-0.15,0.47-0.18c0.24-0.03,0.3-0.03,0.58-0.03h0.29v-0.47
	c-0.42,0.03-0.9,0.03-1.33,0.03c-0.39,0-1.15,0-1.51-0.03v0.47c0.18,0,0.57,0,0.91,0.11c-0.01,0.02-0.06,0.08-0.08,0.11l-1.31,1.74
	l-1.42-1.96h0.83v-0.47c-0.41,0.03-1.35,0.03-1.8,0.03c-0.4,0-1.26,0-1.61-0.03v0.47h0.97l2.2,3.05L8.64,43.1
	c-0.09,0.12-0.11,0.14-0.43,0.17c-0.2,0.02-0.41,0.03-0.6,0.03H7.32v0.47c0.42-0.03,0.9-0.03,1.33-0.03c0.39,0,1.15,0,1.51,0.03
	V43.3c-0.18,0-0.57,0-0.91-0.11c0.01-0.02,0.06-0.08,0.08-0.11l1.64-2.17l1.73,2.39h-0.82v0.47c0.41-0.03,1.35-0.03,1.8-0.03
	c0.4,0,1.26,0,1.61,0.03V43.3H14.3L11.79,39.82"/>
<path class="st3" d="M52.62,0.7c0.06-0.17,0.07-0.19,0.38-0.22c0.2-0.02,0.41-0.02,0.57-0.02V0c-0.27,0.01-0.62,0.03-1.06,0.03
	c-0.38,0-0.99,0-1.35-0.03v0.47c0.25,0,0.73,0,1.01,0.11l-1.71,4.44L48.7,0.47h0.95V0c-0.38,0.03-1.31,0.03-1.74,0.03
	c-0.39,0-1.17,0-1.52-0.03v0.47h0.85l0.41,1.05l-1.35,3.5l-1.76-4.55h0.95V0c-0.38,0.03-1.31,0.03-1.74,0.03
	c-0.39,0-1.17,0-1.52-0.03v0.47h0.85l2.38,6.17c0.06,0.16,0.1,0.26,0.35,0.26s0.29-0.1,0.35-0.26l1.73-4.47l1.73,4.47
	c0.06,0.16,0.1,0.26,0.35,0.26c0.25,0,0.29-0.1,0.35-0.26L52.62,0.7"/>
<path class="st3" d="M56.25,3.84c0-0.19-0.01-0.2-0.21-0.2c-0.45,0.44-1.09,0.45-1.38,0.45v0.25c0.17,0,0.63,0,1.02-0.2v3.59
	c0,0.23,0,0.32-0.7,0.32h-0.27v0.25c0.13-0.01,0.99-0.03,1.25-0.03c0.22,0,1.1,0.02,1.26,0.03V8.06h-0.27c-0.7,0-0.7-0.09-0.7-0.32
	V3.84"/>
<path class="st3" d="M65.66,5.91V3.42c0.27-0.35,0.74-0.64,1.29-0.64c1.21,0,1.21,1.2,1.21,1.9c0,0.47,0,1.01-0.26,1.4
	c-0.29,0.41-0.74,0.52-1.06,0.52C66.15,6.6,65.76,6.06,65.66,5.91 M65.61,2.91V0l-1.76,0.08v0.47c0.62,0,0.69,0,0.69,0.39v5.96H65
	l0.49-0.56c0.08,0.08,0.57,0.62,1.45,0.62c1.48,0,2.5-0.89,2.5-2.28c0-1.32-0.93-2.25-2.38-2.25C66.34,2.42,65.84,2.71,65.61,2.91z"
	/>
<path class="st3" d="M72.23,3.92c0-0.19-0.01-0.2-0.21-0.2c-0.45,0.44-1.09,0.45-1.38,0.45v0.25c0.17,0,0.63,0,1.02-0.2v3.59
	c0,0.23,0,0.32-0.7,0.32h-0.27v0.25c0.13-0.01,0.99-0.03,1.25-0.03c0.22,0,1.1,0.02,1.26,0.03V8.14h-0.27c-0.7,0-0.7-0.09-0.7-0.32
	V3.92"/>
<path class="st3" d="M101.15,3.18c0.05-0.13,0.09-0.21,0.67-0.21V2.5c-0.23,0.02-0.53,0.03-0.77,0.03c-0.27,0-0.73-0.02-0.95-0.03
	v0.47c0.09,0,0.58,0.01,0.58,0.12c0,0.03-0.03,0.09-0.04,0.12L99.6,5.75l-1.13-2.78h0.56V2.5c-0.32,0.01-0.83,0.03-1.13,0.03
	c-0.42,0-0.83-0.02-0.99-0.03v0.47h0.59c0.21,0.5,0.21,0.52,0.21,0.53c0,0.04-0.03,0.1-0.04,0.13l-0.79,1.91l-1.04-2.56h0.56V2.5
	c-0.41,0.02-0.81,0.03-1.22,0.03c-0.31,0-0.75-0.02-1.08-0.03v0.47h0.59l1.52,3.72c0.07,0.17,0.11,0.27,0.36,0.27
	c0.25,0,0.29-0.1,0.36-0.27l1.05-2.57L99,6.68c0.07,0.17,0.11,0.27,0.36,0.27c0.25,0,0.29-0.1,0.36-0.27L101.15,3.18"/>
<path class="st3" d="M105.68,7.13h-0.24c-0.02,0.15-0.09,0.57-0.18,0.64c-0.06,0.04-0.6,0.04-0.7,0.04h-1.29
	c0.74-0.65,0.98-0.85,1.41-1.18c0.52-0.42,1-0.85,1-1.52c0-0.85-0.75-1.37-1.65-1.37c-0.87,0-1.46,0.61-1.46,1.26
	c0,0.36,0.3,0.39,0.37,0.39c0.17,0,0.37-0.12,0.37-0.37c0-0.13-0.05-0.37-0.41-0.37c0.22-0.5,0.7-0.65,1.03-0.65
	c0.7,0,1.07,0.55,1.07,1.12c0,0.61-0.44,1.1-0.66,1.35l-1.7,1.67c-0.07,0.06-0.07,0.08-0.07,0.27h2.9L105.68,7.13"/>
<path class="st3" d="M116.06,4.03c0.06-0.22,0.06-0.24,0.15-0.35c0.49-0.65,0.93-0.79,1.19-0.79c0.36,0,0.63,0.3,0.63,0.93
	c0,0.59-0.33,1.73-0.51,2.11c-0.33,0.67-0.78,1.02-1.17,1.02c-0.34,0-0.67-0.27-0.67-1c0-0.19,0-0.38,0.16-1L116.06,4.03
	 M116.99,0.27c0-0.01,0-0.11-0.13-0.11c-0.23,0-0.95,0.08-1.21,0.1c-0.08,0.01-0.19,0.02-0.19,0.2c0,0.12,0.09,0.12,0.24,0.12
	c0.48,0,0.5,0.07,0.5,0.17c0,0.07-0.09,0.41-0.14,0.62l-0.81,3.24c-0.12,0.5-0.16,0.65-0.16,1c0,0.94,0.53,1.56,1.26,1.56
	c1.17,0,2.39-1.48,2.39-2.91c0-0.9-0.53-1.59-1.32-1.59c-0.46,0-0.86,0.29-1.16,0.6L116.99,0.27z"/>
<path class="st3" d="M122.56,7.28h-0.24c-0.02,0.15-0.09,0.57-0.18,0.64c-0.06,0.04-0.6,0.04-0.7,0.04h-1.29
	c0.74-0.65,0.98-0.85,1.41-1.18c0.52-0.42,1-0.85,1-1.52c0-0.85-0.75-1.37-1.65-1.37c-0.87,0-1.46,0.61-1.46,1.26
	c0,0.36,0.3,0.39,0.37,0.39c0.17,0,0.37-0.12,0.37-0.37c0-0.13-0.05-0.37-0.41-0.37c0.22-0.5,0.7-0.65,1.03-0.65
	c0.7,0,1.07,0.55,1.07,1.12c0,0.61-0.44,1.1-0.66,1.35l-1.7,1.67c-0.07,0.06-0.07,0.08-0.07,0.27h2.9L122.56,7.28"/>
</svg>
