<?xml version="1.0" encoding="utf-8"?>
<!-- Generator: Adobe Illustrator 26.0.2, SVG Export Plug-In . SVG Version: 6.00 Build 0)  -->
<svg version="1.1" id="Layer_1" xmlns="http://www.w3.org/2000/svg" xmlns:xlink="http://www.w3.org/1999/xlink" x="0px" y="0px"
	 viewBox="0 0 105.46 45.03" style="enable-background:new 0 0 105.46 45.03;" xml:space="preserve">
<style type="text/css">
	.st0{opacity:0.4;fill:#486AFB;stroke:#486AFB;stroke-miterlimit:10;}
	.st1{fill:none;stroke:#486AFB;stroke-miterlimit:10;}
	.st2{fill:#486AFB;}
	.st3{fill:#FD46FC;}
</style>
<circle class="st0" cx="11.5" cy="21.22" r="11"/>
<circle class="st1" cx="11.5" cy="21.22" r="11"/>
<circle class="st0" cx="59.5" cy="21.22" r="11"/>
<circle class="st1" cx="59.5" cy="21.22" r="11"/>
<g>
	<g>
		<line class="st1" x1="24.5" y1="21.22" x2="42.98" y2="21.22"/>
		<g>
			<path class="st2" d="M46,21.22c-1.42,0.53-3.18,1.43-4.27,2.38l0.86-2.38l-0.86-2.38C42.82,19.8,44.58,20.7,46,21.22z"/>
		</g>
	</g>
</g>
<path class="st3" d="M12.53,20.76l1.67-2.2c0.11-0.14,0.12-0.15,0.47-0.18c0.24-0.03,0.3-0.03,0.58-0.03h0.29v-0.47
	c-0.42,0.03-0.9,0.03-1.33,0.03c-0.39,0-1.15,0-1.51-0.03v0.47c0.18,0,0.57,0,0.91,0.11c-0.01,0.02-0.06,0.08-0.08,0.11l-1.31,1.74
	l-1.42-1.96h0.82v-0.47c-0.41,0.03-1.35,0.03-1.8,0.03c-0.4,0-1.26,0-1.61-0.03v0.47h0.97l2.2,3.05l-2.01,2.63
	c-0.09,0.12-0.11,0.14-0.43,0.17c-0.2,0.02-0.41,0.03-0.6,0.03H8.06v0.47c0.42-0.03,0.9-0.03,1.33-0.03c0.39,0,1.15,0,1.51,0.03
	v-0.47c-0.18,0-0.57,0-0.91-0.11c0.01-0.02,0.06-0.08,0.08-0.11l1.64-2.18l1.73,2.39h-0.82v0.47c0.41-0.03,1.35-0.03,1.8-0.03
	c0.4,0,1.26,0,1.61,0.03v-0.47h-0.97L12.53,20.76"/>
<path class="st3" d="M62.41,18.77l0.14-0.14c0.3-0.3,0.63-0.64,1.3-0.69c0.11-0.01,0.2-0.01,0.2-0.19c0-0.08-0.05-0.12-0.13-0.12
	c-0.26,0-0.55,0.03-0.81,0.03c-0.33,0-0.68-0.03-0.99-0.03c-0.06,0-0.19,0-0.19,0.19c0,0.11,0.1,0.12,0.15,0.12
	c0.07,0,0.36,0.02,0.36,0.23c0,0.17-0.23,0.43-0.27,0.48l-2.3,2.65l-1.09-2.95c-0.06-0.14-0.06-0.16-0.06-0.17
	c0-0.24,0.49-0.24,0.59-0.24c0.14,0,0.24,0,0.24-0.2c0-0.11-0.12-0.11-0.15-0.11c-0.28,0-0.97,0.03-1.25,0.03
	c-0.25,0-0.86-0.03-1.11-0.03c-0.06,0-0.19,0-0.19,0.2c0,0.11,0.1,0.11,0.23,0.11c0.6,0,0.64,0.09,0.72,0.34L59,21.55
	c0.01,0.03,0.04,0.14,0.04,0.17c0,0.03-0.4,1.63-0.45,1.81c-0.13,0.55-0.14,0.58-0.93,0.59c-0.19,0-0.27,0-0.27,0.2
	c0,0.11,0.12,0.11,0.14,0.11c0.28,0,0.97-0.03,1.25-0.03c0.28,0,0.99,0.03,1.27,0.03c0.07,0,0.19,0,0.19-0.2
	c0-0.11-0.09-0.11-0.28-0.11c-0.02,0-0.21,0-0.38-0.02c-0.21-0.02-0.27-0.04-0.27-0.16c0-0.07,0.09-0.42,0.14-0.62l0.35-1.4
	c0.05-0.19,0.06-0.22,0.14-0.31L62.41,18.77"/>
<path class="st3" d="M100.85,0.7c0.06-0.17,0.07-0.19,0.38-0.22c0.2-0.02,0.41-0.02,0.57-0.02V0c-0.27,0.01-0.62,0.03-1.06,0.03
	c-0.38,0-0.99,0-1.35-0.03v0.47c0.25,0,0.73,0,1.01,0.11l-1.71,4.44l-1.76-4.55h0.95V0c-0.38,0.03-1.31,0.03-1.74,0.03
	c-0.39,0-1.17,0-1.52-0.03v0.47h0.85l0.41,1.05l-1.35,3.5l-1.76-4.55h0.95V0c-0.38,0.03-1.31,0.03-1.74,0.03
	c-0.39,0-1.17,0-1.52-0.03v0.47h0.85l2.38,6.17c0.06,0.16,0.1,0.26,0.35,0.26c0.25,0,0.29-0.1,0.35-0.26l1.73-4.47l1.73,4.47
	c0.06,0.16,0.1,0.26,0.35,0.26c0.25,0,0.29-0.1,0.35-0.26L100.85,0.7"/>
<path class="st3" d="M95.36,18.21v-2.49c0.27-0.35,0.74-0.64,1.29-0.64c1.21,0,1.21,1.2,1.21,1.9c0,0.47,0,1.01-0.26,1.4
	c-0.29,0.41-0.74,0.52-1.06,0.52C95.84,18.89,95.46,18.36,95.36,18.21 M95.3,15.21V12.3l-1.76,0.08v0.47c0.62,0,0.69,0,0.69,0.39
	v5.96h0.47l0.49-0.56c0.08,0.08,0.57,0.62,1.45,0.62c1.48,0,2.5-0.89,2.5-2.28c0-1.32-0.93-2.25-2.38-2.25
	C96.03,14.72,95.54,15.01,95.3,15.21z"/>
<path class="st3" d="M99.13,26.96c0.05-0.13,0.09-0.21,0.68-0.21v-0.47c-0.23,0.02-0.53,0.03-0.77,0.03c-0.27,0-0.73-0.02-0.95-0.03
	v0.47c0.09,0,0.58,0.01,0.58,0.12c0,0.03-0.03,0.09-0.04,0.12l-1.04,2.54l-1.13-2.78h0.56v-0.47c-0.32,0.01-0.83,0.03-1.13,0.03
	c-0.42,0-0.83-0.02-0.99-0.03v0.47h0.59c0.21,0.5,0.21,0.52,0.21,0.53c0,0.04-0.03,0.1-0.04,0.13l-0.79,1.91l-1.04-2.56h0.56v-0.47
	c-0.41,0.02-0.81,0.03-1.22,0.03c-0.31,0-0.75-0.02-1.08-0.03v0.47h0.59l1.52,3.72c0.07,0.17,0.11,0.27,0.36,0.27
	s0.29-0.1,0.36-0.27l1.05-2.57l1.05,2.57c0.07,0.17,0.11,0.27,0.36,0.27c0.25,0,0.29-0.1,0.36-0.27L99.13,26.96"/>
<path class="st3" d="M95.09,40.5c0.06-0.22,0.06-0.24,0.15-0.35c0.49-0.65,0.93-0.79,1.19-0.79c0.36,0,0.63,0.3,0.63,0.93
	c0,0.59-0.33,1.73-0.51,2.11c-0.33,0.67-0.78,1.02-1.17,1.02c-0.34,0-0.67-0.27-0.67-1c0-0.19,0-0.38,0.16-1L95.09,40.5
	 M96.03,36.75c0-0.01,0-0.11-0.13-0.11c-0.23,0-0.95,0.08-1.21,0.1c-0.08,0.01-0.19,0.02-0.19,0.2c0,0.12,0.09,0.12,0.24,0.12
	c0.48,0,0.5,0.07,0.5,0.17c0,0.07-0.09,0.41-0.14,0.62l-0.81,3.24c-0.12,0.5-0.16,0.65-0.16,1c0,0.94,0.53,1.56,1.26,1.56
	c1.17,0,2.39-1.48,2.39-2.91c0-0.9-0.53-1.59-1.32-1.59c-0.46,0-0.86,0.29-1.16,0.6L96.03,36.75z"/>
<g>
	<g>
		<line class="st1" x1="89.2" y1="5.08" x2="74.64" y2="13.25"/>
		<g>
			<path class="st2" d="M72.01,14.73c0.98-1.15,2.08-2.8,2.56-4.17l0.41,2.49l1.91,1.65C75.48,14.41,73.51,14.49,72.01,14.73z"/>
		</g>
	</g>
</g>
<g>
	<g>
		<line class="st1" x1="88.86" y1="16.99" x2="75.6" y2="19.16"/>
		<g>
			<path class="st2" d="M72.62,19.65c1.32-0.75,2.91-1.92,3.83-3.04l-0.46,2.49l1.23,2.21C75.99,20.54,74.11,19.94,72.62,19.65z"/>
		</g>
	</g>
</g>
<g>
	<g>
		<line class="st1" x1="88.89" y1="38.55" x2="74.9" y2="30.17"/>
		<g>
			<path class="st2" d="M72.32,28.62c1.49,0.28,3.46,0.41,4.89,0.16l-1.96,1.6l-0.48,2.48C74.31,31.47,73.26,29.8,72.32,28.62z"/>
		</g>
	</g>
</g>
<g>
	<g>
		<line class="st1" x1="89.13" y1="28.62" x2="75.81" y2="24.58"/>
		<g>
			<path class="st2" d="M72.92,23.7c1.51-0.09,3.46-0.44,4.78-1.03l-1.51,2.03l0.13,2.52C75.55,25.99,74.13,24.62,72.92,23.7z"/>
		</g>
	</g>
</g>
<path class="st3" d="M104.49,3.84c0-0.19-0.01-0.2-0.21-0.2c-0.45,0.44-1.09,0.45-1.38,0.45v0.25c0.17,0,0.63,0,1.02-0.2v3.59
	c0,0.23,0,0.32-0.7,0.32h-0.27v0.25c0.13-0.01,0.99-0.03,1.25-0.03c0.22,0,1.1,0.02,1.26,0.03V8.06h-0.27c-0.7,0-0.7-0.09-0.7-0.32
	V3.84"/>
<path class="st3" d="M101.93,16.22c0-0.19-0.01-0.2-0.21-0.2c-0.45,0.44-1.09,0.45-1.38,0.45v0.25c0.17,0,0.63,0,1.02-0.2v3.59
	c0,0.23,0,0.32-0.7,0.32h-0.27v0.25c0.13-0.01,0.99-0.03,1.25-0.03c0.22,0,1.1,0.02,1.26,0.03v-0.25h-0.27c-0.7,0-0.7-0.09-0.7-0.32
	V16.22"/>
<path class="st3" d="M103.66,30.91h-0.24c-0.02,0.15-0.09,0.57-0.18,0.64c-0.06,0.04-0.6,0.04-0.7,0.04h-1.29
	c0.74-0.65,0.98-0.85,1.41-1.18c0.52-0.42,1-0.85,1-1.52c0-0.85-0.75-1.37-1.65-1.37c-0.87,0-1.46,0.61-1.46,1.26
	c0,0.36,0.3,0.39,0.37,0.39c0.17,0,0.37-0.12,0.37-0.37c0-0.13-0.05-0.37-0.41-0.37c0.22-0.5,0.7-0.65,1.03-0.65
	c0.7,0,1.07,0.55,1.07,1.12c0,0.61-0.44,1.1-0.66,1.35l-1.7,1.67c-0.07,0.06-0.07,0.08-0.07,0.27h2.9L103.66,30.91"/>
<path class="st3" d="M101.6,43.75h-0.24c-0.02,0.15-0.09,0.57-0.18,0.64c-0.06,0.04-0.6,0.04-0.7,0.04h-1.29
	c0.74-0.65,0.98-0.85,1.41-1.18c0.52-0.42,1-0.85,1-1.52c0-0.85-0.75-1.37-1.65-1.37c-0.87,0-1.46,0.61-1.46,1.26
	c0,0.36,0.3,0.39,0.37,0.39c0.17,0,0.37-0.12,0.37-0.37c0-0.13-0.05-0.37-0.41-0.37c0.22-0.5,0.7-0.65,1.03-0.65
	c0.7,0,1.07,0.55,1.07,1.12c0,0.61-0.44,1.1-0.66,1.35l-1.7,1.67c-0.07,0.06-0.07,0.08-0.07,0.27h2.9L101.6,43.75"/>
</svg>
