<?xml version="1.0" encoding="utf-8"?>
<!-- Generator: Adobe Illustrator 26.0.2, SVG Export Plug-In . SVG Version: 6.00 Build 0)  -->
<svg version="1.1" id="Layer_1" xmlns="http://www.w3.org/2000/svg" xmlns:xlink="http://www.w3.org/1999/xlink" x="0px" y="0px"
	 viewBox="0 0 121.26 51.33" style="enable-background:new 0 0 121.26 51.33;" xml:space="preserve">
<style type="text/css">
	.st0{opacity:0.4;fill:#486AFB;stroke:#486AFB;stroke-miterlimit:10;}
	.st1{fill:none;stroke:#486AFB;stroke-miterlimit:10;}
	.st2{fill:#486AFB;}
	.st3{fill:#FD46FC;}
</style>
<circle class="st0" cx="11.5" cy="39.47" r="11"/>
<circle class="st1" cx="11.5" cy="39.47" r="11"/>
<circle class="st1" cx="59.5" cy="39.47" r="11"/>
<g>
	<g>
		<line class="st1" x1="24.5" y1="39.47" x2="42.98" y2="39.47"/>
		<g>
			<path class="st2" d="M46,39.47c-1.42,0.53-3.18,1.43-4.27,2.38l0.86-2.38l-0.86-2.38C42.82,38.04,44.58,38.94,46,39.47z"/>
		</g>
	</g>
</g>
<path class="st3" d="M60.81,37.57c0.08-0.11,0.1-0.13,0.1-0.22c0-0.21-0.14-0.21-0.32-0.21h-3.65l-0.12,1.74h0.47
	c0.06-1.02,0.37-1.38,1.39-1.38h0.84l-2.77,3.62c-0.09,0.11-0.09,0.13-0.09,0.22c0,0.22,0.13,0.22,0.32,0.22h3.78l0.18-2.01h-0.47
	c-0.09,1-0.25,1.61-1.56,1.61h-0.85L60.81,37.57"/>
<circle class="st0" cx="109.76" cy="39.83" r="11"/>
<path class="st3" d="M112.27,37.63l0.14-0.14c0.3-0.3,0.63-0.64,1.3-0.69c0.11-0.01,0.2-0.01,0.2-0.19c0-0.08-0.05-0.12-0.13-0.12
	c-0.26,0-0.55,0.03-0.81,0.03c-0.33,0-0.68-0.03-0.99-0.03c-0.06,0-0.19,0-0.19,0.19c0,0.11,0.1,0.12,0.15,0.12
	c0.07,0,0.36,0.02,0.36,0.23c0,0.17-0.23,0.43-0.27,0.48l-2.3,2.65l-1.09-2.95c-0.06-0.14-0.06-0.16-0.06-0.17
	c0-0.24,0.49-0.24,0.59-0.24c0.14,0,0.24,0,0.24-0.2c0-0.11-0.12-0.11-0.15-0.11c-0.28,0-0.97,0.03-1.25,0.03
	c-0.25,0-0.86-0.03-1.11-0.03c-0.06,0-0.19,0-0.19,0.2c0,0.11,0.1,0.11,0.23,0.11c0.6,0,0.64,0.09,0.72,0.34l1.22,3.27
	c0.01,0.03,0.04,0.14,0.04,0.17c0,0.03-0.4,1.63-0.45,1.81c-0.13,0.55-0.14,0.58-0.93,0.59c-0.19,0-0.27,0-0.27,0.2
	c0,0.11,0.12,0.11,0.14,0.11c0.28,0,0.97-0.03,1.25-0.03c0.28,0,0.99,0.03,1.27,0.03c0.07,0,0.19,0,0.19-0.2
	c0-0.11-0.09-0.11-0.28-0.11c-0.02,0-0.21,0-0.38-0.02c-0.21-0.02-0.27-0.04-0.27-0.16c0-0.07,0.09-0.42,0.14-0.62l0.35-1.4
	c0.05-0.19,0.06-0.22,0.14-0.31L112.27,37.63"/>
<circle class="st1" cx="109.76" cy="39.83" r="11"/>
<g>
	<g>
		<line class="st1" x1="74.76" y1="39.83" x2="93.24" y2="39.83"/>
		<g>
			<path class="st2" d="M96.26,39.83c-1.42,0.53-3.18,1.43-4.27,2.38l0.86-2.38l-0.86-2.38C93.08,38.41,94.84,39.31,96.26,39.83z"/>
		</g>
	</g>
</g>
<g>
	<g>
		<line class="st1" x1="51.95" y1="8.95" x2="55.39" y2="24.04"/>
		<g>
			<path class="st2" d="M56.06,26.98c-0.83-1.27-2.1-2.78-3.27-3.64l2.51,0.31l2.13-1.37C56.74,23.56,56.26,25.48,56.06,26.98z"/>
		</g>
	</g>
</g>
<g>
	<g>
		<line class="st1" x1="65.9" y1="9.03" x2="62.46" y2="24.12"/>
		<g>
			<path class="st2" d="M61.79,27.06c-0.2-1.5-0.68-3.42-1.37-4.7l2.13,1.37l2.51-0.31C63.89,24.27,62.62,25.79,61.79,27.06z"/>
		</g>
	</g>
</g>
<g>
	<g>
		<line class="st1" x1="102.07" y1="9.19" x2="105.51" y2="24.27"/>
		<g>
			<path class="st2" d="M106.19,27.21c-0.83-1.27-2.1-2.78-3.27-3.64l2.51,0.31l2.13-1.37C106.87,23.8,106.38,25.71,106.19,27.21z"
				/>
		</g>
	</g>
</g>
<g>
	<g>
		<line class="st1" x1="116.03" y1="9.26" x2="112.58" y2="24.35"/>
		<g>
			<path class="st2" d="M111.91,27.29c-0.2-1.5-0.68-3.42-1.37-4.7l2.13,1.37l2.51-0.31C114.01,24.5,112.74,26.02,111.91,27.29z"/>
		</g>
	</g>
</g>
<path class="st3" d="M11.79,38.98l1.67-2.2c0.11-0.14,0.12-0.15,0.47-0.18c0.24-0.03,0.3-0.03,0.58-0.03h0.29v-0.47
	c-0.42,0.03-0.9,0.03-1.33,0.03c-0.39,0-1.15,0-1.51-0.03v0.47c0.18,0,0.57,0,0.91,0.11c-0.01,0.02-0.06,0.08-0.08,0.11l-1.31,1.74
	l-1.42-1.96h0.83v-0.47c-0.41,0.03-1.35,0.03-1.8,0.03c-0.4,0-1.26,0-1.61-0.03v0.47h0.97l2.2,3.05l-2.01,2.63
	c-0.09,0.12-0.11,0.14-0.43,0.17c-0.2,0.02-0.41,0.03-0.6,0.03H7.32v0.47c0.42-0.03,0.9-0.03,1.33-0.03c0.39,0,1.15,0,1.51,0.03
	v-0.47c-0.18,0-0.57,0-0.91-0.11c0.01-0.02,0.06-0.08,0.08-0.11l1.64-2.18l1.73,2.39h-0.82v0.47c0.41-0.03,1.35-0.03,1.8-0.03
	c0.4,0,1.26,0,1.61,0.03v-0.47H14.3L11.79,38.98"/>
<path class="st3" d="M48.58,5.79c0.13-0.81,0.22-1.65,0.22-2.49c0-0.29,0-1.4-0.34-2.12c-0.39-0.78-0.92-0.89-1.25-0.89
	c-0.34,0-0.69,0.28-0.69,0.42c0,0.07,0.05,0.07,0.18,0.08c0.43,0.04,0.85,0.25,1.12,1.05c0.21,0.62,0.24,1.38,0.24,1.81
	c0,1.5-0.35,3.23-0.41,3.46c-0.03,0.13-0.04,0.17-0.04,0.26c0,0.04,0,0.16,0.07,0.16c0.05,0,0.06-0.01,0.22-0.2
	c1.1-1.31,2.2-2.82,3.29-4.71c0.39-0.68,0.65-1.2,0.69-1.27c0.3,0.92,0.64,2.29,0.83,3.91c0.06,0.53,0.11,1.13,0.12,1.66
	c0,0.04,0.01,0.5,0.02,0.53c0,0.04,0.03,0.08,0.06,0.08c0.05,0,0.06-0.01,0.22-0.19c1.23-1.38,3.36-4.27,3.36-5.99
	c0-0.8-0.43-1.05-0.73-1.05c-0.27,0-0.42,0.61-0.42,0.75c0,0.14,0.05,0.15,0.12,0.16c0.14,0.02,0.6,0.09,0.6,0.74
	c0,1.13-2.43,4.19-2.49,4.19c-0.01,0-0.01-0.01-0.02-0.24c-0.11-2.14-0.68-4.41-1.09-5.5c-0.03-0.07-0.04-0.11-0.14-0.11
	c-0.19,0-0.62,0.25-0.62,0.43c0,0.04,0.04,0.13,0.06,0.18c-0.61,1.14-1.5,2.82-3.15,4.9H48.58"/>
<path class="st3" d="M116.49,3.86c0.06-0.22,0.06-0.24,0.15-0.35c0.49-0.65,0.93-0.79,1.19-0.79c0.36,0,0.63,0.3,0.63,0.93
	c0,0.59-0.33,1.73-0.51,2.11c-0.33,0.67-0.78,1.02-1.17,1.02c-0.34,0-0.67-0.27-0.67-1c0-0.19,0-0.38,0.16-1L116.49,3.86
	 M117.42,0.11c0-0.01,0-0.11-0.13-0.11c-0.23,0-0.95,0.08-1.21,0.1c-0.08,0.01-0.19,0.02-0.19,0.2c0,0.12,0.09,0.12,0.24,0.12
	c0.48,0,0.5,0.07,0.5,0.17c0,0.07-0.09,0.41-0.14,0.62l-0.81,3.24c-0.12,0.5-0.16,0.65-0.16,1c0,0.94,0.53,1.56,1.26,1.56
	c1.17,0,2.39-1.48,2.39-2.91c0-0.9-0.53-1.59-1.32-1.59c-0.46,0-0.86,0.29-1.16,0.6L117.42,0.11z"/>
<path class="st3" d="M66.57,6.34V3.85c0.27-0.35,0.74-0.64,1.29-0.64c1.21,0,1.21,1.2,1.21,1.9c0,0.47,0,1.01-0.26,1.4
	c-0.29,0.41-0.74,0.52-1.06,0.52C67.06,7.03,66.67,6.49,66.57,6.34 M66.51,3.34V0.43l-1.76,0.08v0.47c0.62,0,0.69,0,0.69,0.39v5.96
	h0.47l0.49-0.56c0.08,0.08,0.57,0.62,1.45,0.62c1.48,0,2.5-0.89,2.5-2.28c0-1.32-0.93-2.25-2.38-2.25
	C67.25,2.85,66.75,3.14,66.51,3.34z"/>
<path class="st3" d="M104.34,3.57c0.05-0.13,0.09-0.21,0.67-0.21V2.89c-0.23,0.02-0.53,0.03-0.77,0.03c-0.27,0-0.73-0.02-0.95-0.03
	v0.47c0.09,0,0.58,0.01,0.58,0.12c0,0.03-0.03,0.09-0.04,0.12l-1.04,2.54l-1.13-2.78h0.56V2.89c-0.32,0.01-0.83,0.03-1.13,0.03
	c-0.42,0-0.83-0.02-0.99-0.03v0.47h0.59c0.21,0.5,0.21,0.52,0.21,0.53c0,0.04-0.03,0.1-0.04,0.13l-0.79,1.91l-1.04-2.56h0.56V2.89
	c-0.41,0.02-0.81,0.03-1.22,0.03c-0.31,0-0.75-0.02-1.08-0.03v0.47h0.59l1.52,3.72c0.07,0.17,0.11,0.27,0.36,0.27
	c0.25,0,0.29-0.1,0.36-0.27l1.05-2.57l1.05,2.57c0.07,0.17,0.11,0.27,0.36,0.27c0.25,0,0.29-0.1,0.36-0.27L104.34,3.57"/>
</svg>
