<?xml version="1.0" encoding="utf-8"?>
<!-- Generator: Adobe Illustrator 26.0.2, SVG Export Plug-In . SVG Version: 6.00 Build 0)  -->
<svg version="1.1" id="Layer_1" xmlns="http://www.w3.org/2000/svg" xmlns:xlink="http://www.w3.org/1999/xlink" x="0px" y="0px"
	 viewBox="0 0 168.92 52.71" style="enable-background:new 0 0 168.92 52.71;" xml:space="preserve">
<style type="text/css">
	.st0{opacity:0.4;fill:#486AFB;stroke:#486AFB;stroke-miterlimit:10;}
	.st1{fill:none;stroke:#486AFB;stroke-miterlimit:10;}
	.st2{fill:#486AFB;}
	.st3{fill:#FD46FC;}
</style>
<circle class="st0" cx="11.5" cy="41.21" r="11"/>
<circle class="st1" cx="59" cy="40.67" r="11"/>
<circle class="st1" cx="107" cy="40.67" r="11"/>
<g>
	<g>
		<line class="st1" x1="72" y1="40.67" x2="90.48" y2="40.67"/>
		<g>
			<path class="st2" d="M93.5,40.67c-1.42,0.53-3.18,1.43-4.27,2.38l0.86-2.38l-0.86-2.38C90.32,39.25,92.08,40.15,93.5,40.67z"/>
		</g>
	</g>
</g>
<circle class="st0" cx="157.26" cy="41.04" r="11"/>
<path class="st3" d="M159.77,38.84l0.14-0.14c0.3-0.3,0.63-0.64,1.3-0.69c0.11-0.01,0.2-0.01,0.2-0.19c0-0.08-0.05-0.12-0.13-0.12
	c-0.26,0-0.55,0.03-0.81,0.03c-0.33,0-0.68-0.03-0.99-0.03c-0.06,0-0.19,0-0.19,0.19c0,0.11,0.1,0.12,0.15,0.12
	c0.07,0,0.36,0.02,0.36,0.23c0,0.17-0.23,0.43-0.27,0.48l-2.3,2.65l-1.09-2.95c-0.06-0.14-0.06-0.16-0.06-0.17
	c0-0.24,0.49-0.24,0.59-0.24c0.14,0,0.24,0,0.24-0.2c0-0.11-0.12-0.11-0.15-0.11c-0.28,0-0.97,0.03-1.25,0.03
	c-0.25,0-0.86-0.03-1.11-0.03c-0.06,0-0.19,0-0.19,0.2c0,0.11,0.1,0.11,0.23,0.11c0.6,0,0.64,0.09,0.73,0.34l1.22,3.27
	c0.01,0.03,0.04,0.14,0.04,0.17c0,0.03-0.4,1.63-0.45,1.81c-0.13,0.55-0.14,0.58-0.93,0.59c-0.19,0-0.27,0-0.27,0.2
	c0,0.11,0.12,0.11,0.14,0.11c0.28,0,0.97-0.03,1.25-0.03c0.28,0,0.99,0.03,1.27,0.03c0.07,0,0.19,0,0.19-0.2
	c0-0.11-0.09-0.11-0.28-0.11c-0.02,0-0.21,0-0.38-0.02c-0.21-0.02-0.27-0.04-0.27-0.16c0-0.07,0.09-0.42,0.14-0.62l0.35-1.4
	c0.05-0.19,0.06-0.22,0.14-0.31L159.77,38.84"/>
<circle class="st1" cx="157.26" cy="41.04" r="11"/>
<g>
	<g>
		<line class="st1" x1="122.26" y1="41.04" x2="140.74" y2="41.04"/>
		<g>
			<path class="st2" d="M143.76,41.04c-1.42,0.53-3.18,1.43-4.27,2.38l0.86-2.38l-0.86-2.38C140.58,39.61,142.34,40.51,143.76,41.04
				z"/>
		</g>
	</g>
</g>
<g>
	<g>
		<line class="st1" x1="99.45" y1="10.16" x2="102.89" y2="25.25"/>
		<g>
			<path class="st2" d="M103.56,28.19c-0.83-1.27-2.1-2.78-3.27-3.64l2.51,0.31l2.13-1.37C104.24,24.77,103.76,26.69,103.56,28.19z"
				/>
		</g>
	</g>
</g>
<g>
	<g>
		<line class="st1" x1="113.4" y1="10.23" x2="109.96" y2="25.32"/>
		<g>
			<path class="st2" d="M109.29,28.26c-0.2-1.5-0.68-3.42-1.37-4.7l2.13,1.37l2.51-0.31C111.39,25.48,110.12,27,109.29,28.26z"/>
		</g>
	</g>
</g>
<g>
	<g>
		<line class="st1" x1="149.57" y1="10.39" x2="153.01" y2="25.48"/>
		<g>
			<path class="st2" d="M153.69,28.42c-0.83-1.27-2.1-2.78-3.27-3.64l2.51,0.31l2.13-1.37C154.37,25,153.88,26.92,153.69,28.42z"/>
		</g>
	</g>
</g>
<g>
	<g>
		<line class="st1" x1="163.53" y1="10.47" x2="160.08" y2="25.55"/>
		<g>
			<path class="st2" d="M159.41,28.49c-0.2-1.5-0.68-3.42-1.37-4.7l2.13,1.37l2.51-0.31C161.51,25.71,160.24,27.23,159.41,28.49z"/>
		</g>
	</g>
</g>
<path class="st3" d="M11.99,40.46l1.67-2.2c0.11-0.14,0.12-0.15,0.47-0.18c0.24-0.03,0.3-0.03,0.58-0.03h0.29v-0.47
	c-0.42,0.03-0.9,0.03-1.33,0.03c-0.39,0-1.15,0-1.51-0.03v0.47c0.18,0,0.57,0,0.91,0.11c-0.01,0.02-0.06,0.08-0.08,0.11l-1.31,1.74
	l-1.42-1.96h0.82v-0.47c-0.41,0.03-1.35,0.03-1.8,0.03c-0.4,0-1.26,0-1.61-0.03v0.47h0.97l2.2,3.05l-2.01,2.63
	c-0.09,0.12-0.11,0.14-0.43,0.17c-0.2,0.02-0.41,0.03-0.6,0.03H7.52v0.47c0.42-0.03,0.9-0.03,1.33-0.03c0.39,0,1.15,0,1.51,0.03
	v-0.47c-0.18,0-0.57,0-0.91-0.11c0.01-0.02,0.06-0.08,0.08-0.11l1.64-2.18l1.73,2.39h-0.82v0.47c0.41-0.03,1.35-0.03,1.8-0.03
	c0.4,0,1.26,0,1.61,0.03v-0.47h-0.97L11.99,40.46"/>
<circle class="st1" cx="11.5" cy="41.21" r="11"/>
<g>
	<g>
		<line class="st1" x1="24.5" y1="41.21" x2="42.98" y2="41.21"/>
		<g>
			<path class="st2" d="M46,41.21c-1.42,0.53-3.18,1.43-4.27,2.38l0.86-2.38l-0.86-2.38C42.82,39.78,44.58,40.68,46,41.21z"/>
		</g>
	</g>
</g>
<g>
	<g>
		<line class="st1" x1="51.53" y1="9.87" x2="54.98" y2="24.96"/>
		<g>
			<path class="st2" d="M55.65,27.9c-0.83-1.27-2.1-2.78-3.27-3.64l2.51,0.31l2.13-1.37C56.33,24.48,55.85,26.4,55.65,27.9z"/>
		</g>
	</g>
</g>
<g>
	<g>
		<line class="st1" x1="65.49" y1="9.94" x2="62.05" y2="25.03"/>
		<g>
			<path class="st2" d="M61.38,27.97c-0.2-1.5-0.68-3.42-1.37-4.7l2.13,1.37l2.51-0.31C63.47,25.19,62.2,26.7,61.38,27.97z"/>
		</g>
	</g>
</g>
<path class="st3" d="M59.34,38.7c0.08-0.11,0.1-0.13,0.1-0.22c0-0.21-0.14-0.21-0.32-0.21h-3.65l-0.12,1.74h0.47
	c0.06-1.02,0.37-1.38,1.39-1.38h0.84l-2.77,3.62c-0.09,0.11-0.09,0.13-0.09,0.22c0,0.22,0.13,0.22,0.32,0.22h3.78l0.18-2.01H59
	c-0.09,1-0.25,1.61-1.56,1.61h-0.85L59.34,38.7"/>
<path class="st3" d="M62.33,39.71c0-0.19-0.01-0.2-0.21-0.2c-0.45,0.44-1.09,0.45-1.38,0.45v0.25c0.17,0,0.63,0,1.02-0.2v3.59
	c0,0.23,0,0.32-0.7,0.32h-0.27v0.25c0.13-0.01,0.99-0.03,1.25-0.03c0.22,0,1.1,0.02,1.26,0.03v-0.25h-0.27c-0.7,0-0.7-0.09-0.7-0.32
	V39.71"/>
<path class="st3" d="M107.86,37.95c0.08-0.11,0.1-0.13,0.1-0.22c0-0.21-0.14-0.21-0.32-0.21h-3.65l-0.12,1.74h0.47
	c0.06-1.02,0.37-1.38,1.39-1.38h0.84l-2.77,3.62c-0.09,0.11-0.09,0.13-0.09,0.22c0,0.22,0.13,0.22,0.32,0.22h3.77l0.18-2.01h-0.47
	c-0.09,1-0.25,1.61-1.56,1.61h-0.85L107.86,37.95"/>
<path class="st3" d="M112.05,42.15h-0.24c-0.02,0.15-0.09,0.57-0.18,0.64c-0.06,0.04-0.6,0.04-0.7,0.04h-1.29
	c0.74-0.65,0.98-0.85,1.41-1.18c0.52-0.42,1-0.85,1-1.52c0-0.85-0.75-1.37-1.65-1.37c-0.87,0-1.46,0.61-1.46,1.26
	c0,0.36,0.3,0.39,0.37,0.39c0.17,0,0.37-0.12,0.37-0.37c0-0.13-0.05-0.37-0.41-0.37c0.22-0.5,0.7-0.65,1.03-0.65
	c0.7,0,1.07,0.55,1.07,1.12c0,0.61-0.44,1.1-0.66,1.35l-1.7,1.67c-0.07,0.06-0.07,0.08-0.07,0.27h2.9L112.05,42.15"/>
<path class="st3" d="M53.16,0.9c0.06-0.17,0.07-0.19,0.38-0.22c0.2-0.02,0.41-0.02,0.57-0.02V0.2c-0.27,0.01-0.62,0.03-1.06,0.03
	c-0.38,0-0.99,0-1.35-0.03v0.47c0.25,0,0.73,0,1.01,0.11L51,5.21l-1.76-4.55h0.95V0.2c-0.38,0.03-1.31,0.03-1.74,0.03
	c-0.39,0-1.17,0-1.52-0.03v0.47h0.85l0.41,1.05l-1.35,3.5l-1.76-4.55h0.95V0.2c-0.38,0.03-1.31,0.03-1.74,0.03
	c-0.39,0-1.17,0-1.52-0.03v0.47h0.85l2.38,6.17c0.06,0.16,0.1,0.26,0.35,0.26c0.25,0,0.29-0.1,0.35-0.26l1.73-4.47l1.73,4.47
	c0.06,0.16,0.1,0.26,0.35,0.26c0.25,0,0.29-0.1,0.35-0.26L53.16,0.9"/>
<path class="st3" d="M56.8,4.04c0-0.19-0.01-0.2-0.21-0.2c-0.45,0.44-1.09,0.45-1.38,0.45v0.25c0.17,0,0.63,0,1.02-0.2v3.59
	c0,0.23,0,0.32-0.7,0.32h-0.27v0.25c0.13-0.01,0.99-0.03,1.25-0.03c0.22,0,1.1,0.02,1.26,0.03V8.26H57.5c-0.7,0-0.7-0.09-0.7-0.32
	V4.04"/>
<path class="st3" d="M102.17,1.25c0.06-0.17,0.07-0.19,0.38-0.22c0.2-0.02,0.41-0.02,0.57-0.02V0.55c-0.27,0.01-0.62,0.03-1.06,0.03
	c-0.38,0-0.99,0-1.35-0.03v0.47c0.25,0,0.72,0,1.01,0.11L100,5.57l-1.76-4.55h0.95V0.55c-0.38,0.03-1.31,0.03-1.74,0.03
	c-0.39,0-1.17,0-1.52-0.03v0.47h0.85l0.41,1.05l-1.35,3.5l-1.76-4.55h0.95V0.55c-0.38,0.03-1.31,0.03-1.74,0.03
	c-0.39,0-1.17,0-1.52-0.03v0.47h0.85l2.38,6.17c0.06,0.16,0.1,0.26,0.35,0.26s0.29-0.1,0.35-0.26l1.73-4.47l1.73,4.47
	c0.06,0.16,0.1,0.26,0.35,0.26c0.25,0,0.29-0.1,0.35-0.26L102.17,1.25"/>
<path class="st3" d="M107,7.58h-0.24c-0.02,0.15-0.09,0.57-0.18,0.64c-0.06,0.04-0.6,0.04-0.7,0.04h-1.29
	c0.74-0.65,0.98-0.85,1.41-1.18c0.52-0.42,1-0.85,1-1.52c0-0.85-0.75-1.37-1.65-1.37c-0.87,0-1.46,0.61-1.46,1.26
	c0,0.36,0.3,0.39,0.37,0.39c0.17,0,0.37-0.12,0.37-0.37c0-0.13-0.05-0.37-0.41-0.37c0.22-0.5,0.7-0.65,1.03-0.65
	c0.7,0,1.07,0.55,1.07,1.12c0,0.61-0.44,1.1-0.66,1.35l-1.7,1.67c-0.07,0.06-0.07,0.08-0.07,0.27h2.9L107,7.58"/>
<path class="st3" d="M65.25,5.91V3.42c0.27-0.35,0.74-0.64,1.29-0.64c1.21,0,1.21,1.2,1.21,1.9c0,0.47,0,1.01-0.26,1.4
	c-0.29,0.41-0.74,0.52-1.06,0.52C65.74,6.6,65.35,6.06,65.25,5.91 M65.19,2.91V0l-1.76,0.08v0.47c0.62,0,0.69,0,0.69,0.39v5.96h0.47
	l0.49-0.56c0.08,0.08,0.57,0.62,1.45,0.62c1.48,0,2.5-0.89,2.5-2.28c0-1.32-0.93-2.25-2.38-2.25C65.93,2.42,65.43,2.71,65.19,2.91z"
	/>
<path class="st3" d="M71.82,3.92c0-0.19-0.01-0.2-0.21-0.2c-0.45,0.44-1.09,0.45-1.38,0.45v0.25c0.17,0,0.63,0,1.02-0.2v3.59
	c0,0.23,0,0.32-0.7,0.32h-0.27v0.25c0.13-0.01,0.99-0.03,1.25-0.03c0.22,0,1.1,0.02,1.26,0.03V8.14h-0.27c-0.7,0-0.7-0.09-0.7-0.32
	V3.92"/>
<path class="st3" d="M114.93,6.4V3.91c0.27-0.35,0.74-0.64,1.29-0.64c1.21,0,1.21,1.2,1.21,1.9c0,0.47,0,1.01-0.26,1.4
	c-0.29,0.41-0.74,0.52-1.06,0.52C115.42,7.09,115.03,6.55,114.93,6.4 M114.87,3.4V0.49l-1.76,0.08v0.47c0.62,0,0.69,0,0.69,0.39
	v5.96h0.47l0.49-0.56c0.08,0.08,0.57,0.62,1.45,0.62c1.48,0,2.5-0.89,2.5-2.28c0-1.32-0.93-2.25-2.38-2.25
	C115.61,2.91,115.11,3.2,114.87,3.4z"/>
<path class="st3" d="M122.7,7.61h-0.24c-0.02,0.15-0.09,0.57-0.18,0.64c-0.06,0.04-0.6,0.04-0.7,0.04h-1.29
	c0.74-0.65,0.98-0.85,1.41-1.18c0.52-0.42,1-0.85,1-1.52c0-0.85-0.75-1.37-1.65-1.37c-0.87,0-1.46,0.61-1.46,1.26
	c0,0.36,0.3,0.39,0.37,0.39c0.17,0,0.37-0.12,0.37-0.37c0-0.13-0.05-0.37-0.41-0.37c0.22-0.5,0.7-0.65,1.03-0.65
	c0.7,0,1.07,0.55,1.07,1.12c0,0.61-0.44,1.1-0.66,1.35l-1.7,1.67c-0.07,0.06-0.07,0.08-0.07,0.27h2.9L122.7,7.61"/>
<path class="st3" d="M148.18,3.71c0.05-0.13,0.09-0.21,0.68-0.21V3.03c-0.23,0.02-0.53,0.03-0.77,0.03c-0.27,0-0.73-0.02-0.95-0.03
	V3.5c0.09,0,0.58,0.01,0.58,0.12c0,0.03-0.03,0.09-0.04,0.12l-1.04,2.54L145.5,3.5h0.56V3.03c-0.32,0.01-0.83,0.03-1.13,0.03
	c-0.42,0-0.83-0.02-0.99-0.03V3.5h0.59c0.21,0.5,0.21,0.52,0.21,0.53c0,0.04-0.03,0.1-0.04,0.13l-0.79,1.91l-1.04-2.56h0.56V3.03
	c-0.41,0.02-0.81,0.03-1.22,0.03c-0.31,0-0.75-0.02-1.08-0.03V3.5h0.59l1.52,3.72c0.07,0.17,0.11,0.27,0.36,0.27s0.29-0.1,0.36-0.27
	l1.05-2.57l1.05,2.57c0.07,0.17,0.11,0.27,0.36,0.27s0.29-0.1,0.36-0.27L148.18,3.71"/>
<path class="st3" d="M151.08,6.6c0.55,0,0.94,0.38,0.94,1.13c0,0.87-0.51,1.13-0.91,1.13c-0.28,0-0.9-0.08-1.2-0.49
	c0.33-0.01,0.41-0.25,0.41-0.39c0-0.22-0.17-0.39-0.39-0.39c-0.2,0-0.39,0.12-0.39,0.41c0,0.66,0.73,1.09,1.58,1.09
	c0.98,0,1.65-0.65,1.65-1.36c0-0.55-0.45-1.1-1.22-1.26c0.74-0.27,1-0.79,1-1.22c0-0.55-0.64-0.97-1.42-0.97
	c-0.78,0-1.38,0.38-1.38,0.94c0,0.24,0.15,0.37,0.37,0.37c0.22,0,0.36-0.16,0.36-0.36c0-0.2-0.14-0.35-0.36-0.37
	c0.25-0.31,0.73-0.39,0.99-0.39c0.32,0,0.76,0.15,0.76,0.77c0,0.3-0.1,0.62-0.28,0.84c-0.23,0.27-0.43,0.28-0.78,0.3
	c-0.18,0.01-0.19,0.01-0.23,0.02c-0.01,0-0.07,0.01-0.07,0.09c0,0.1,0.06,0.1,0.18,0.1H151.08"/>
<path class="st3" d="M162.44,4.86c0.06-0.22,0.06-0.24,0.15-0.35c0.49-0.65,0.93-0.79,1.19-0.79c0.36,0,0.63,0.3,0.63,0.93
	c0,0.59-0.33,1.73-0.51,2.11c-0.33,0.67-0.78,1.02-1.17,1.02c-0.34,0-0.67-0.27-0.67-1c0-0.19,0-0.38,0.16-1L162.44,4.86
	 M163.38,1.1c0-0.01,0-0.11-0.13-0.11c-0.23,0-0.95,0.08-1.21,0.1c-0.08,0.01-0.19,0.02-0.19,0.2c0,0.12,0.09,0.12,0.24,0.12
	c0.48,0,0.5,0.07,0.5,0.17c0,0.07-0.09,0.41-0.14,0.62l-0.81,3.24c-0.12,0.5-0.16,0.65-0.16,1c0,0.94,0.53,1.56,1.26,1.56
	c1.17,0,2.39-1.48,2.39-2.91c0-0.9-0.53-1.59-1.32-1.59c-0.46,0-0.86,0.29-1.16,0.6L163.38,1.1z"/>
<path class="st3" d="M167.22,7.04c0.55,0,0.94,0.38,0.94,1.13c0,0.87-0.51,1.13-0.91,1.13c-0.28,0-0.9-0.08-1.2-0.49
	c0.33-0.01,0.41-0.25,0.41-0.39c0-0.23-0.17-0.39-0.39-0.39c-0.2,0-0.39,0.12-0.39,0.41c0,0.66,0.73,1.09,1.58,1.09
	c0.98,0,1.65-0.65,1.65-1.36c0-0.55-0.45-1.1-1.22-1.26c0.74-0.27,1-0.79,1-1.22c0-0.55-0.64-0.97-1.42-0.97
	c-0.78,0-1.38,0.38-1.38,0.94c0,0.24,0.15,0.37,0.37,0.37c0.22,0,0.36-0.16,0.36-0.36c0-0.2-0.14-0.35-0.36-0.37
	c0.25-0.31,0.73-0.39,0.99-0.39c0.32,0,0.76,0.15,0.76,0.77c0,0.3-0.1,0.62-0.28,0.84c-0.23,0.27-0.43,0.28-0.78,0.3
	c-0.18,0.01-0.19,0.01-0.23,0.02c-0.01,0-0.07,0.01-0.07,0.09c0,0.1,0.06,0.1,0.18,0.1H167.22"/>
</svg>
