<?xml version="1.0" encoding="utf-8"?>
<!-- Generator: Adobe Illustrator 26.0.2, SVG Export Plug-In . SVG Version: 6.00 Build 0)  -->
<svg version="1.1" id="Layer_1" xmlns="http://www.w3.org/2000/svg" xmlns:xlink="http://www.w3.org/1999/xlink" x="0px" y="0px"
	 viewBox="0 0 219.04 137" style="enable-background:new 0 0 219.04 137;" xml:space="preserve">
<style type="text/css">
	.st0{fill:none;stroke:#486AFB;stroke-miterlimit:10;}
	.st1{fill:#486AFB;}
	.st2{opacity:0.4;fill:#486AFB;stroke:#486AFB;stroke-miterlimit:10;}
	.st3{fill:#FD46FC;}
</style>
<circle class="st0" cx="11.5" cy="30.5" r="11"/>
<circle class="st0" cx="11.5" cy="68.5" r="11"/>
<circle class="st0" cx="11.5" cy="106.5" r="11"/>
<circle class="st0" cx="87.74" cy="11.5" r="11"/>
<circle class="st0" cx="87.74" cy="49.5" r="11"/>
<circle class="st0" cx="87.74" cy="87.5" r="11"/>
<circle class="st0" cx="87.74" cy="125.5" r="11"/>
<circle class="st0" cx="207.54" cy="68.72" r="11"/>
<g>
	<g>
		<polyline class="st0" points="71.62,118.85 26.24,30.5 70.29,8.86 		"/>
		<g>
			<path class="st1" d="M73,121.53c-0.18-1.5-0.19-3.48,0.16-4.89l-1.72,1.85l-2.51,0.32C70.28,119.35,71.88,120.51,73,121.53z"/>
		</g>
		<g>
			<path class="st1" d="M73,7.53c-1.04,1.1-2.23,2.68-2.79,4.02l-0.28-2.51l-1.82-1.75C69.52,7.65,71.49,7.68,73,7.53z"/>
		</g>
	</g>
</g>
<g>
	<g>
		<polyline class="st0" points="71.09,123.17 26.24,68.5 71.09,13.83 		"/>
		<g>
			<path class="st1" d="M73,125.5c-0.49-1.43-0.92-3.36-0.87-4.81l-1.29,2.17l-2.38,0.84C69.88,123.94,71.69,124.74,73,125.5z"/>
		</g>
		<g>
			<path class="st1" d="M73,11.5c-0.49,1.43-0.92,3.36-0.87,4.81l-1.29-2.17l-2.38-0.84C69.88,13.06,71.69,12.26,73,11.5z"/>
		</g>
	</g>
</g>
<g>
	<g>
		<polyline class="st0" points="70.29,128.14 26.24,106.5 71.62,18.15 		"/>
		<g>
			<path class="st1" d="M73,129.47c-1.04-1.1-2.23-2.68-2.79-4.02l-0.28,2.51l-1.82,1.75C69.52,129.35,71.49,129.32,73,129.47z"/>
		</g>
		<g>
			<path class="st1" d="M73,15.47c-0.18,1.5-0.19,3.48,0.16,4.89l-1.72-1.85l-2.51-0.32C70.28,17.65,71.88,16.49,73,15.47z"/>
		</g>
	</g>
</g>
<g>
	<g>
		<line class="st0" x1="26.24" y1="30.5" x2="70.13" y2="44.61"/>
		<g>
			<path class="st1" d="M73,45.53c-1.51,0.07-3.47,0.38-4.8,0.96l1.55-2l-0.09-2.53C70.41,43.2,71.81,44.59,73,45.53z"/>
		</g>
	</g>
</g>
<g>
	<g>
		<line class="st0" x1="71" y1="81.27" x2="26.24" y2="30.5"/>
		<g>
			<path class="st1" d="M73,83.53c-0.54-1.41-1.03-3.33-1.04-4.78l-1.21,2.22l-2.35,0.93C69.83,82.09,71.67,82.81,73,83.53z"/>
		</g>
	</g>
</g>
<g>
	<g>
		<line class="st0" x1="70.2" y1="86.36" x2="26.24" y2="68.5"/>
		<g>
			<path class="st1" d="M73,87.5c-1.12-1.02-2.41-2.52-3.06-3.81l-0.1,2.53l-1.69,1.88C69.52,87.62,71.49,87.45,73,87.5z"/>
		</g>
	</g>
</g>
<g>
	<g>
		<line class="st0" x1="70.2" y1="50.64" x2="26.24" y2="68.5"/>
		<g>
			<path class="st1" d="M73,49.5c-1.51,0.05-3.48-0.12-4.85-0.59l1.69,1.88l0.1,2.53C70.59,52.02,71.88,50.52,73,49.5z"/>
		</g>
	</g>
</g>
<g>
	<g>
		<line class="st0" x1="71" y1="55.73" x2="26.24" y2="106.5"/>
		<g>
			<path class="st1" d="M73,53.47c-1.33,0.72-3.17,1.44-4.61,1.63l2.35,0.93l1.21,2.22C71.96,56.8,72.46,54.88,73,53.47z"/>
		</g>
	</g>
</g>
<g>
	<g>
		<line class="st0" x1="70.13" y1="92.39" x2="26.24" y2="106.5"/>
		<g>
			<path class="st1" d="M73,91.47c-1.51-0.07-3.47-0.38-4.8-0.96l1.55,2l-0.09,2.53C70.41,93.8,71.81,92.41,73,91.47z"/>
		</g>
	</g>
</g>
<circle class="st2" cx="11.5" cy="30.5" r="11"/>
<circle class="st2" cx="11.5" cy="68.5" r="11"/>
<circle class="st2" cx="11.5" cy="106.5" r="11"/>
<circle class="st2" cx="207.54" cy="68.72" r="11"/>
<path class="st3" d="M11.28,29.06l-0.83-1.98c-0.03-0.08-0.05-0.12-0.05-0.13c0-0.06,0.17-0.25,0.59-0.29
	c0.1-0.01,0.2-0.02,0.2-0.19c0-0.12-0.12-0.12-0.15-0.12c-0.41,0-0.83,0.03-1.25,0.03c-0.25,0-0.86-0.03-1.11-0.03
	c-0.06,0-0.18,0-0.18,0.2c0,0.11,0.1,0.11,0.23,0.11c0.6,0,0.66,0.1,0.75,0.32l1.17,2.77l-2.1,2.25l-0.13,0.11
	c-0.49,0.53-0.95,0.69-1.46,0.72c-0.13,0.01-0.22,0.01-0.22,0.2c0,0.01,0,0.11,0.13,0.11c0.3,0,0.63-0.03,0.93-0.03
	c0.37,0,0.75,0.03,1.11,0.03c0.06,0,0.18,0,0.18-0.2c0-0.1-0.1-0.11-0.12-0.11c-0.09-0.01-0.4-0.03-0.4-0.31
	c0-0.16,0.15-0.32,0.27-0.45l1.01-1.07l0.89-0.97l1,2.38c0.04,0.11,0.05,0.12,0.05,0.14c0,0.08-0.19,0.25-0.58,0.29
	c-0.11,0.01-0.2,0.02-0.2,0.19c0,0.12,0.11,0.12,0.15,0.12c0.28,0,0.98-0.03,1.25-0.03c0.25,0,0.85,0.03,1.1,0.03
	c0.07,0,0.19,0,0.19-0.19c0-0.12-0.1-0.12-0.18-0.12c-0.67-0.01-0.69-0.04-0.85-0.44c-0.39-0.92-1.05-2.47-1.28-3.07
	c0.67-0.7,1.72-1.88,2.04-2.16c0.29-0.24,0.67-0.48,1.26-0.51c0.13-0.01,0.22-0.01,0.22-0.2c0-0.01,0-0.11-0.13-0.11
	c-0.3,0-0.63,0.03-0.93,0.03c-0.37,0-0.75-0.03-1.1-0.03c-0.06,0-0.19,0-0.19,0.2c0,0.07,0.05,0.1,0.12,0.11
	c0.09,0.01,0.4,0.03,0.4,0.31c0,0.14-0.11,0.27-0.19,0.36L11.28,29.06"/>
<path class="st3" d="M17.12,30.17c0-0.19-0.01-0.2-0.21-0.2c-0.45,0.44-1.09,0.45-1.38,0.45v0.25c0.17,0,0.63,0,1.02-0.2v3.59
	c0,0.23,0,0.32-0.7,0.32h-0.27v0.25c0.13-0.01,0.99-0.03,1.25-0.03c0.22,0,1.1,0.02,1.26,0.03v-0.25h-0.27c-0.7,0-0.7-0.09-0.7-0.32
	V30.17"/>
<path class="st3" d="M11.28,67.81l-0.83-1.98c-0.03-0.08-0.05-0.12-0.05-0.13c0-0.06,0.17-0.25,0.59-0.29
	c0.1-0.01,0.2-0.02,0.2-0.19c0-0.12-0.12-0.12-0.15-0.12c-0.41,0-0.83,0.03-1.25,0.03c-0.25,0-0.86-0.03-1.11-0.03
	c-0.06,0-0.18,0-0.18,0.2c0,0.11,0.1,0.11,0.23,0.11c0.6,0,0.66,0.1,0.75,0.32l1.17,2.77l-2.1,2.25l-0.13,0.11
	c-0.49,0.53-0.95,0.69-1.46,0.72c-0.13,0.01-0.22,0.01-0.22,0.2c0,0.01,0,0.11,0.13,0.11c0.3,0,0.63-0.03,0.93-0.03
	c0.37,0,0.75,0.03,1.11,0.03c0.06,0,0.18,0,0.18-0.2c0-0.1-0.1-0.11-0.12-0.11c-0.09-0.01-0.4-0.03-0.4-0.31
	c0-0.16,0.15-0.32,0.27-0.45l1.01-1.07l0.89-0.97l1,2.38c0.04,0.11,0.05,0.12,0.05,0.14c0,0.08-0.19,0.25-0.58,0.29
	c-0.11,0.01-0.2,0.02-0.2,0.19c0,0.12,0.11,0.12,0.15,0.12c0.28,0,0.98-0.03,1.25-0.03c0.25,0,0.85,0.03,1.1,0.03
	c0.07,0,0.19,0,0.19-0.19c0-0.12-0.1-0.12-0.18-0.12c-0.67-0.01-0.69-0.04-0.85-0.44c-0.39-0.92-1.05-2.47-1.28-3.07
	c0.67-0.7,1.72-1.88,2.04-2.16c0.29-0.24,0.67-0.48,1.26-0.51c0.13-0.01,0.22-0.01,0.22-0.2c0-0.01,0-0.11-0.13-0.11
	c-0.3,0-0.63,0.03-0.93,0.03c-0.37,0-0.75-0.03-1.1-0.03c-0.06,0-0.19,0-0.19,0.2c0,0.07,0.05,0.1,0.12,0.11
	c0.09,0.01,0.4,0.03,0.4,0.31c0,0.14-0.11,0.27-0.19,0.36L11.28,67.81"/>
<path class="st3" d="M18.32,72.11h-0.24c-0.02,0.15-0.09,0.57-0.18,0.64c-0.06,0.04-0.6,0.04-0.7,0.04h-1.29
	c0.74-0.65,0.98-0.85,1.41-1.18c0.52-0.42,1-0.85,1-1.52c0-0.85-0.75-1.37-1.65-1.37c-0.87,0-1.46,0.61-1.46,1.26
	c0,0.36,0.3,0.39,0.37,0.39c0.17,0,0.37-0.12,0.37-0.37c0-0.13-0.05-0.37-0.41-0.37c0.22-0.5,0.7-0.65,1.03-0.65
	c0.7,0,1.07,0.55,1.07,1.12c0,0.61-0.44,1.1-0.66,1.35l-1.7,1.67c-0.07,0.06-0.07,0.08-0.07,0.27h2.9L18.32,72.11"/>
<path class="st3" d="M11.28,104.99l-0.83-1.98c-0.03-0.08-0.05-0.12-0.05-0.13c0-0.06,0.17-0.25,0.59-0.29
	c0.1-0.01,0.2-0.02,0.2-0.19c0-0.12-0.12-0.12-0.15-0.12c-0.41,0-0.83,0.03-1.25,0.03c-0.25,0-0.86-0.03-1.11-0.03
	c-0.06,0-0.18,0-0.18,0.2c0,0.11,0.1,0.11,0.23,0.11c0.6,0,0.66,0.1,0.75,0.32l1.17,2.77l-2.1,2.25l-0.13,0.11
	c-0.49,0.53-0.95,0.69-1.46,0.72c-0.13,0.01-0.22,0.01-0.22,0.2c0,0.01,0,0.11,0.13,0.11c0.3,0,0.63-0.03,0.93-0.03
	c0.37,0,0.75,0.03,1.11,0.03c0.06,0,0.18,0,0.18-0.2c0-0.1-0.1-0.11-0.12-0.11c-0.09-0.01-0.4-0.03-0.4-0.31
	c0-0.16,0.15-0.32,0.27-0.45l1.01-1.07l0.89-0.97l1,2.38c0.04,0.11,0.05,0.12,0.05,0.14c0,0.08-0.19,0.25-0.58,0.29
	c-0.11,0.01-0.2,0.02-0.2,0.19c0,0.12,0.11,0.12,0.15,0.12c0.28,0,0.98-0.03,1.25-0.03c0.25,0,0.85,0.03,1.1,0.03
	c0.07,0,0.19,0,0.19-0.19c0-0.12-0.1-0.12-0.18-0.12c-0.67-0.01-0.69-0.04-0.85-0.44c-0.39-0.92-1.05-2.47-1.28-3.07
	c0.67-0.7,1.72-1.88,2.04-2.16c0.29-0.24,0.67-0.48,1.26-0.51c0.13-0.01,0.22-0.01,0.22-0.2c0-0.01,0-0.11-0.13-0.11
	c-0.3,0-0.63,0.03-0.93,0.03c-0.37,0-0.75-0.03-1.1-0.03c-0.06,0-0.19,0-0.19,0.2c0,0.07,0.05,0.1,0.12,0.11
	c0.09,0.01,0.4,0.03,0.4,0.31c0,0.14-0.11,0.27-0.19,0.36L11.28,104.99"/>
<path class="st3" d="M16.68,108.22c0.55,0,0.94,0.38,0.94,1.13c0,0.87-0.51,1.13-0.91,1.13c-0.28,0-0.9-0.08-1.2-0.49
	c0.33-0.01,0.41-0.25,0.41-0.39c0-0.23-0.17-0.39-0.39-0.39c-0.2,0-0.39,0.12-0.39,0.41c0,0.66,0.73,1.09,1.58,1.09
	c0.98,0,1.65-0.65,1.65-1.36c0-0.55-0.45-1.1-1.22-1.26c0.74-0.27,1-0.79,1-1.22c0-0.55-0.64-0.97-1.42-0.97
	c-0.78,0-1.38,0.38-1.38,0.94c0,0.24,0.15,0.37,0.37,0.37c0.22,0,0.36-0.16,0.36-0.36c0-0.2-0.14-0.35-0.36-0.37
	c0.25-0.31,0.73-0.39,0.99-0.39c0.32,0,0.76,0.15,0.76,0.77c0,0.3-0.1,0.62-0.28,0.84c-0.23,0.27-0.43,0.28-0.78,0.3
	c-0.17,0.01-0.19,0.01-0.22,0.02c-0.01,0-0.07,0.01-0.07,0.09c0,0.1,0.06,0.1,0.18,0.1H16.68"/>
<path class="st3" d="M210.38,66.47l0.14-0.14c0.3-0.3,0.63-0.64,1.3-0.69c0.11-0.01,0.2-0.01,0.2-0.19c0-0.08-0.05-0.12-0.13-0.12
	c-0.26,0-0.55,0.03-0.81,0.03c-0.33,0-0.68-0.03-0.99-0.03c-0.06,0-0.19,0-0.19,0.19c0,0.11,0.1,0.12,0.15,0.12
	c0.07,0,0.36,0.02,0.36,0.23c0,0.17-0.23,0.43-0.27,0.48l-2.3,2.65l-1.09-2.95c-0.06-0.14-0.06-0.16-0.06-0.17
	c0-0.24,0.49-0.24,0.59-0.24c0.14,0,0.24,0,0.24-0.2c0-0.11-0.12-0.11-0.15-0.11c-0.28,0-0.97,0.03-1.25,0.03
	c-0.25,0-0.86-0.03-1.11-0.03c-0.06,0-0.19,0-0.19,0.2c0,0.11,0.1,0.11,0.23,0.11c0.6,0,0.64,0.09,0.73,0.34l1.22,3.27
	c0.01,0.03,0.04,0.14,0.04,0.17c0,0.03-0.4,1.63-0.45,1.81c-0.13,0.55-0.14,0.58-0.93,0.59c-0.19,0-0.27,0-0.27,0.2
	c0,0.11,0.12,0.11,0.14,0.11c0.28,0,0.97-0.03,1.25-0.03c0.28,0,0.99,0.03,1.27,0.03c0.07,0,0.19,0,0.19-0.2
	c0-0.11-0.09-0.11-0.28-0.11c-0.02,0-0.21,0-0.38-0.02c-0.21-0.02-0.27-0.04-0.27-0.16c0-0.07,0.09-0.42,0.14-0.62l0.35-1.4
	c0.05-0.19,0.06-0.22,0.14-0.31L210.38,66.47"/>
<circle class="st0" cx="152.85" cy="49.73" r="11"/>
<circle class="st0" cx="152.85" cy="87.72" r="11"/>
<g>
	<g>
		<polyline class="st0" points="136.8,79.5 102.48,11.5 135.92,41.66 		"/>
		<g>
			<path class="st1" d="M138.16,82.19c-0.17-1.5-0.16-3.48,0.2-4.89l-1.74,1.84l-2.51,0.3C135.45,80,137.05,81.16,138.16,82.19z"/>
		</g>
		<g>
			<path class="st1" d="M138.16,43.68c-1.41-0.56-3.32-1.07-4.77-1.1l2.23-1.19l0.95-2.34C136.75,40.49,137.46,42.33,138.16,43.68z"
				/>
		</g>
	</g>
</g>
<g>
	<g>
		<polyline class="st0" points="135.96,83.96 102.48,49.5 135.05,47.76 		"/>
		<g>
			<path class="st1" d="M138.06,86.12c-0.61-1.39-1.19-3.28-1.27-4.72l-1.11,2.27l-2.3,1.04C134.82,84.83,136.69,85.47,138.06,86.12
				z"/>
		</g>
		<g>
			<path class="st1" d="M138.06,47.6c-1.39,0.6-3.1,1.59-4.14,2.6l0.73-2.42l-0.99-2.33C134.81,46.35,136.61,47.15,138.06,47.6z"/>
		</g>
	</g>
</g>
<g>
	<g>
		<polyline class="st0" points="135.15,89.92 102.48,87.5 136.03,53.77 		"/>
		<g>
			<path class="st1" d="M138.16,90.15c-1.38-0.63-3.07-1.66-4.09-2.69l0.68,2.44l-1.03,2.31C134.88,91.33,136.71,90.57,138.16,90.15
				z"/>
		</g>
		<g>
			<path class="st1" d="M138.16,51.63c-0.63,1.38-1.23,3.26-1.33,4.71l-1.08-2.29l-2.29-1.07
				C134.91,52.88,136.79,52.26,138.16,51.63z"/>
		</g>
	</g>
</g>
<g>
	<g>
		<polyline class="st0" points="135.79,96.26 102.48,125.5 136.69,58.44 		"/>
		<g>
			<path class="st1" d="M138.06,94.27c-1.41,0.54-3.33,1.03-4.78,1.03l2.22,1.22l0.92,2.35C136.61,97.44,137.34,95.6,138.06,94.27z"
				/>
		</g>
		<g>
			<path class="st1" d="M138.06,55.75c-0.18,1.5-0.18,3.48,0.18,4.89l-1.73-1.85L134,58.48C135.34,57.94,136.94,56.78,138.06,55.75z
				"/>
		</g>
	</g>
</g>
<g>
	<g>
		<line class="st0" x1="165.88" y1="49.25" x2="189.18" y2="63.74"/>
		<g>
			<path class="st1" d="M191.74,65.33c-1.48-0.3-3.45-0.47-4.88-0.24l1.99-1.57l0.52-2.47C189.79,62.44,190.81,64.14,191.74,65.33z"
				/>
		</g>
	</g>
</g>
<g>
	<g>
		<line class="st0" x1="166.01" y1="88.47" x2="188.93" y2="73.75"/>
		<g>
			<path class="st1" d="M191.47,72.12c-0.91,1.21-1.91,2.92-2.31,4.31l-0.56-2.47l-2.01-1.54
				C188.02,72.64,189.99,72.44,191.47,72.12z"/>
		</g>
	</g>
</g>
<path class="st3" d="M81.8,14.51c0.54-0.58,0.82-0.82,1.18-1.13c0-0.01,0.62-0.54,0.97-0.9c0.94-0.92,1.16-1.4,1.16-1.44
	c0-0.1-0.09-0.1-0.11-0.1c-0.07,0-0.1,0.02-0.15,0.11c-0.3,0.48-0.51,0.64-0.75,0.64c-0.24,0-0.36-0.15-0.51-0.32
	c-0.19-0.23-0.36-0.43-0.69-0.43c-0.75,0-1.2,0.92-1.2,1.13c0,0.05,0.03,0.11,0.12,0.11s0.11-0.05,0.13-0.11
	c0.19-0.46,0.76-0.47,0.84-0.47c0.21,0,0.4,0.07,0.63,0.15c0.4,0.15,0.51,0.15,0.76,0.15c-0.36,0.43-1.19,1.14-1.38,1.3l-0.89,0.84
	c-0.68,0.66-1.02,1.23-1.02,1.3c0,0.1,0.1,0.1,0.12,0.1c0.08,0,0.1-0.02,0.16-0.13c0.23-0.35,0.53-0.62,0.85-0.62
	c0.23,0,0.33,0.09,0.58,0.38c0.17,0.21,0.35,0.37,0.63,0.37c0.98,0,1.56-1.26,1.56-1.53c0-0.05-0.04-0.1-0.12-0.1
	c-0.09,0-0.11,0.06-0.14,0.13c-0.23,0.65-0.86,0.83-1.19,0.83c-0.2,0-0.38-0.06-0.59-0.13c-0.34-0.13-0.49-0.17-0.7-0.17
	C82.04,14.48,81.89,14.48,81.8,14.51"/>
<polyline class="st3" points="87.61,11.99 87.61,11.65 86.87,11.65 86.87,5.31 87.61,5.31 87.61,4.96 86.53,4.96 86.53,11.99 
	87.61,11.99 "/>
<path class="st3" d="M90.23,5.77c0-0.19-0.01-0.2-0.21-0.2c-0.45,0.44-1.09,0.45-1.38,0.45v0.25c0.17,0,0.63,0,1.02-0.2v3.59
	c0,0.23,0,0.32-0.7,0.32h-0.27v0.25c0.13-0.01,0.99-0.03,1.25-0.03c0.22,0,1.1,0.02,1.26,0.03V9.98h-0.27c-0.7,0-0.7-0.09-0.7-0.32
	V5.77"/>
<polyline class="st3" points="93.18,4.96 92.1,4.96 92.1,5.31 92.84,5.31 92.84,11.65 92.1,11.65 92.1,11.99 93.18,11.99 
	93.18,4.96 "/>
<path class="st3" d="M87.43,13.57c0-0.19-0.01-0.2-0.21-0.2c-0.45,0.44-1.09,0.45-1.38,0.45v0.25c0.17,0,0.63,0,1.02-0.2v3.59
	c0,0.23,0,0.32-0.7,0.32h-0.27v0.25c0.13-0.01,0.99-0.03,1.25-0.03c0.22,0,1.1,0.02,1.26,0.03v-0.25h-0.27c-0.7,0-0.7-0.09-0.7-0.32
	V13.57"/>
<path class="st3" d="M81.29,52.74c0.54-0.58,0.82-0.82,1.18-1.13c0-0.01,0.62-0.54,0.97-0.9c0.94-0.92,1.16-1.4,1.16-1.44
	c0-0.1-0.09-0.1-0.11-0.1c-0.07,0-0.1,0.02-0.15,0.11c-0.3,0.48-0.51,0.64-0.75,0.64c-0.24,0-0.36-0.15-0.51-0.32
	c-0.19-0.23-0.36-0.43-0.69-0.43c-0.75,0-1.2,0.92-1.2,1.13c0,0.05,0.03,0.11,0.12,0.11c0.09,0,0.11-0.05,0.13-0.11
	c0.19-0.46,0.76-0.47,0.84-0.47c0.21,0,0.4,0.07,0.63,0.15c0.4,0.15,0.51,0.15,0.76,0.15c-0.36,0.43-1.19,1.14-1.38,1.3l-0.89,0.84
	c-0.68,0.66-1.02,1.23-1.02,1.3c0,0.1,0.1,0.1,0.12,0.1c0.08,0,0.1-0.02,0.16-0.13c0.23-0.35,0.53-0.62,0.85-0.62
	c0.23,0,0.33,0.09,0.58,0.38c0.17,0.21,0.35,0.37,0.63,0.37c0.98,0,1.56-1.26,1.56-1.53c0-0.05-0.04-0.1-0.12-0.1
	c-0.09,0-0.11,0.06-0.14,0.13C83.8,52.82,83.16,53,82.84,53c-0.2,0-0.38-0.06-0.59-0.13c-0.34-0.13-0.49-0.17-0.7-0.17
	C81.53,52.71,81.38,52.71,81.29,52.74"/>
<polyline class="st3" points="87.2,50.22 87.2,49.87 86.46,49.87 86.46,43.53 87.2,43.53 87.2,43.19 86.12,43.19 86.12,50.22 
	87.2,50.22 "/>
<path class="st3" d="M89.72,43.99c0-0.19-0.01-0.2-0.21-0.2c-0.45,0.44-1.09,0.45-1.38,0.45v0.25c0.17,0,0.63,0,1.02-0.2v3.59
	c0,0.23,0,0.32-0.7,0.32h-0.27v0.25c0.13-0.01,0.99-0.03,1.25-0.03c0.22,0,1.1,0.02,1.26,0.03v-0.25h-0.27c-0.7,0-0.7-0.09-0.7-0.32
	V43.99"/>
<polyline class="st3" points="92.67,43.19 91.59,43.19 91.59,43.53 92.33,43.53 92.33,49.87 91.59,49.87 91.59,50.22 92.67,50.22 
	92.67,43.19 "/>
<path class="st3" d="M88.21,54.98h-0.24c-0.02,0.15-0.09,0.57-0.18,0.64c-0.06,0.04-0.6,0.04-0.7,0.04H85.8
	c0.74-0.65,0.98-0.85,1.41-1.18c0.52-0.42,1-0.85,1-1.52c0-0.85-0.75-1.37-1.65-1.37c-0.87,0-1.46,0.61-1.46,1.26
	c0,0.36,0.3,0.39,0.37,0.39c0.17,0,0.37-0.12,0.37-0.37c0-0.13-0.05-0.37-0.41-0.37c0.22-0.5,0.7-0.65,1.03-0.65
	c0.7,0,1.07,0.55,1.07,1.12c0,0.61-0.44,1.1-0.66,1.35l-1.7,1.67c-0.07,0.06-0.07,0.08-0.07,0.27H88L88.21,54.98"/>
<path class="st3" d="M81.7,90.67c0.54-0.58,0.82-0.82,1.18-1.13c0-0.01,0.62-0.54,0.97-0.9c0.94-0.92,1.16-1.4,1.16-1.44
	c0-0.1-0.09-0.1-0.11-0.1c-0.07,0-0.1,0.02-0.15,0.11c-0.3,0.48-0.51,0.64-0.75,0.64c-0.24,0-0.36-0.15-0.51-0.32
	c-0.19-0.23-0.36-0.43-0.69-0.43c-0.75,0-1.2,0.92-1.2,1.13c0,0.05,0.03,0.11,0.12,0.11c0.09,0,0.11-0.05,0.13-0.11
	c0.19-0.46,0.76-0.47,0.84-0.47c0.21,0,0.4,0.07,0.63,0.15c0.4,0.15,0.51,0.15,0.76,0.15c-0.36,0.43-1.19,1.14-1.38,1.3l-0.89,0.84
	c-0.67,0.66-1.02,1.23-1.02,1.3c0,0.1,0.1,0.1,0.12,0.1c0.08,0,0.1-0.02,0.16-0.13c0.23-0.35,0.53-0.62,0.85-0.62
	c0.23,0,0.33,0.09,0.58,0.38c0.17,0.21,0.35,0.37,0.63,0.37c0.98,0,1.56-1.26,1.56-1.53c0-0.05-0.04-0.1-0.12-0.1
	c-0.09,0-0.11,0.06-0.14,0.13c-0.23,0.65-0.86,0.83-1.19,0.83c-0.2,0-0.38-0.06-0.59-0.13c-0.34-0.13-0.49-0.17-0.7-0.17
	C81.94,90.64,81.79,90.64,81.7,90.67"/>
<polyline class="st3" points="87.61,88.15 87.61,87.8 86.88,87.8 86.88,81.46 87.61,81.46 87.61,81.12 86.53,81.12 86.53,88.15 
	87.61,88.15 "/>
<path class="st3" d="M90.23,81.92c0-0.19-0.01-0.2-0.21-0.2c-0.45,0.44-1.09,0.45-1.38,0.45v0.25c0.17,0,0.63,0,1.02-0.2v3.59
	c0,0.23,0,0.32-0.7,0.32h-0.27v0.25c0.13-0.01,0.99-0.03,1.25-0.03c0.22,0,1.1,0.02,1.26,0.03v-0.25h-0.27c-0.7,0-0.7-0.09-0.7-0.32
	V81.92"/>
<polyline class="st3" points="93.08,81.12 92,81.12 92,81.46 92.74,81.46 92.74,87.8 92,87.8 92,88.15 93.08,88.15 93.08,81.12 "/>
<path class="st3" d="M86.99,91.84c0.55,0,0.94,0.38,0.94,1.13c0,0.87-0.51,1.13-0.91,1.13c-0.28,0-0.9-0.08-1.2-0.49
	c0.33-0.01,0.41-0.25,0.41-0.39c0-0.22-0.17-0.39-0.39-0.39c-0.2,0-0.39,0.12-0.39,0.41c0,0.66,0.73,1.09,1.58,1.09
	c0.98,0,1.65-0.65,1.65-1.36c0-0.55-0.45-1.1-1.22-1.26c0.74-0.27,1-0.79,1-1.22c0-0.55-0.64-0.97-1.42-0.97
	c-0.78,0-1.38,0.38-1.38,0.94c0,0.24,0.15,0.37,0.37,0.37c0.22,0,0.36-0.16,0.36-0.36c0-0.2-0.14-0.35-0.36-0.37
	c0.25-0.31,0.73-0.39,0.99-0.39c0.32,0,0.76,0.15,0.76,0.77c0,0.3-0.1,0.62-0.28,0.84c-0.23,0.27-0.43,0.28-0.78,0.3
	c-0.18,0.01-0.19,0.01-0.23,0.02c-0.01,0-0.07,0.01-0.07,0.09c0,0.1,0.06,0.1,0.18,0.1H86.99"/>
<path class="st3" d="M81.67,128.51c0.54-0.58,0.82-0.82,1.18-1.13c0-0.01,0.62-0.54,0.97-0.9c0.94-0.92,1.16-1.4,1.16-1.44
	c0-0.1-0.09-0.1-0.11-0.1c-0.07,0-0.1,0.02-0.15,0.11c-0.3,0.48-0.51,0.64-0.75,0.64c-0.24,0-0.36-0.15-0.51-0.32
	c-0.19-0.23-0.36-0.43-0.69-0.43c-0.75,0-1.2,0.92-1.2,1.13c0,0.05,0.03,0.11,0.12,0.11c0.09,0,0.11-0.05,0.13-0.11
	c0.19-0.46,0.76-0.47,0.84-0.47c0.21,0,0.4,0.07,0.63,0.15c0.4,0.15,0.51,0.15,0.76,0.15c-0.36,0.43-1.19,1.14-1.38,1.3l-0.89,0.84
	c-0.68,0.66-1.02,1.23-1.02,1.3c0,0.1,0.1,0.1,0.12,0.1c0.08,0,0.1-0.02,0.16-0.13c0.23-0.35,0.53-0.62,0.85-0.62
	c0.23,0,0.33,0.09,0.58,0.38c0.17,0.21,0.35,0.37,0.63,0.37c0.98,0,1.56-1.26,1.56-1.53c0-0.05-0.04-0.1-0.12-0.1
	c-0.09,0-0.11,0.06-0.14,0.13c-0.23,0.65-0.86,0.83-1.19,0.83c-0.2,0-0.38-0.06-0.59-0.13c-0.34-0.13-0.49-0.17-0.7-0.17
	C81.91,128.48,81.76,128.48,81.67,128.51"/>
<polyline class="st3" points="87.48,125.99 87.48,125.65 86.75,125.65 86.75,119.31 87.48,119.31 87.48,118.96 86.4,118.96 
	86.4,125.99 87.48,125.99 "/>
<path class="st3" d="M90.1,119.77c0-0.19-0.01-0.2-0.21-0.2c-0.45,0.44-1.09,0.45-1.38,0.45v0.25c0.17,0,0.63,0,1.02-0.2v3.59
	c0,0.23,0,0.32-0.7,0.32h-0.27v0.25c0.13-0.01,0.99-0.03,1.25-0.03c0.22,0,1.1,0.02,1.26,0.03v-0.25H90.8c-0.7,0-0.7-0.09-0.7-0.32
	V119.77"/>
<polyline class="st3" points="93.05,118.96 91.97,118.96 91.97,119.31 92.71,119.31 92.71,125.65 91.97,125.65 91.97,125.99 
	93.05,125.99 93.05,118.96 "/>
<path class="st3" d="M87.44,128.06v2.57h-1.86L87.44,128.06z M88.76,130.88v-0.25h-0.78v-3.13c0-0.15,0-0.2-0.15-0.2
	c-0.08,0-0.11,0-0.18,0.1l-2.33,3.23v0.25h2.07v0.58c0,0.24,0,0.32-0.57,0.32h-0.19v0.25c0.35-0.01,0.8-0.03,1.05-0.03
	c0.26,0,0.71,0.01,1.06,0.03v-0.25h-0.19c-0.57,0-0.57-0.08-0.57-0.32v-0.58H88.76z"/>
<path class="st3" d="M147.61,52.74c0.54-0.58,0.82-0.82,1.18-1.13c0-0.01,0.62-0.54,0.97-0.9c0.94-0.92,1.16-1.4,1.16-1.44
	c0-0.1-0.09-0.1-0.11-0.1c-0.07,0-0.1,0.02-0.15,0.11c-0.3,0.48-0.51,0.64-0.75,0.64c-0.24,0-0.36-0.15-0.51-0.32
	c-0.19-0.23-0.36-0.43-0.69-0.43c-0.75,0-1.2,0.92-1.2,1.13c0,0.05,0.03,0.11,0.12,0.11s0.11-0.05,0.13-0.11
	c0.19-0.46,0.76-0.47,0.84-0.47c0.21,0,0.4,0.07,0.63,0.15c0.4,0.15,0.51,0.15,0.76,0.15c-0.36,0.43-1.19,1.14-1.38,1.3l-0.89,0.84
	c-0.68,0.66-1.02,1.23-1.02,1.3c0,0.1,0.1,0.1,0.12,0.1c0.08,0,0.1-0.02,0.16-0.13c0.23-0.35,0.53-0.62,0.85-0.62
	c0.23,0,0.33,0.09,0.58,0.38c0.17,0.21,0.35,0.37,0.63,0.37c0.98,0,1.56-1.26,1.56-1.53c0-0.05-0.04-0.1-0.12-0.1
	c-0.09,0-0.11,0.06-0.14,0.13c-0.23,0.65-0.86,0.83-1.19,0.83c-0.2,0-0.38-0.06-0.59-0.13c-0.34-0.13-0.49-0.17-0.7-0.17
	C147.85,52.71,147.69,52.71,147.61,52.74"/>
<polyline class="st3" points="153.52,50.22 153.52,49.87 152.78,49.87 152.78,43.53 153.52,43.53 153.52,43.19 152.44,43.19 
	152.44,50.22 153.52,50.22 "/>
<path class="st3" d="M157.23,47.18h-0.24c-0.02,0.15-0.09,0.57-0.18,0.64c-0.06,0.04-0.6,0.04-0.7,0.04h-1.29
	c0.74-0.65,0.98-0.85,1.41-1.18c0.52-0.42,1-0.85,1-1.52c0-0.85-0.75-1.37-1.65-1.37c-0.87,0-1.46,0.61-1.46,1.26
	c0,0.36,0.3,0.39,0.37,0.39c0.17,0,0.37-0.12,0.37-0.37c0-0.13-0.05-0.37-0.41-0.37c0.22-0.5,0.7-0.65,1.03-0.65
	c0.7,0,1.07,0.55,1.07,1.12c0,0.61-0.44,1.1-0.66,1.35l-1.7,1.67c-0.07,0.06-0.07,0.08-0.07,0.27h2.9L157.23,47.18"/>
<polyline class="st3" points="158.99,43.19 157.91,43.19 157.91,43.53 158.65,43.53 158.65,49.87 157.91,49.87 157.91,50.22 
	158.99,50.22 158.99,43.19 "/>
<path class="st3" d="M153.34,51.79c0-0.19-0.01-0.2-0.21-0.2c-0.45,0.44-1.09,0.45-1.38,0.45v0.25c0.17,0,0.63,0,1.02-0.2v3.59
	c0,0.23,0,0.32-0.7,0.32h-0.27v0.25c0.13-0.01,0.99-0.03,1.25-0.03c0.22,0,1.1,0.02,1.26,0.03v-0.25h-0.27c-0.7,0-0.7-0.09-0.7-0.32
	V51.79"/>
<path class="st3" d="M147.19,90.74c0.54-0.57,0.82-0.82,1.18-1.13c0-0.01,0.62-0.54,0.97-0.9c0.94-0.92,1.16-1.4,1.16-1.44
	c0-0.1-0.09-0.1-0.11-0.1c-0.07,0-0.1,0.02-0.15,0.11c-0.3,0.48-0.51,0.64-0.75,0.64c-0.24,0-0.36-0.15-0.51-0.32
	c-0.19-0.23-0.36-0.43-0.69-0.43c-0.75,0-1.2,0.92-1.2,1.13c0,0.05,0.03,0.11,0.12,0.11c0.09,0,0.11-0.05,0.13-0.11
	c0.19-0.46,0.76-0.47,0.84-0.47c0.21,0,0.4,0.07,0.63,0.15c0.4,0.15,0.51,0.15,0.76,0.15c-0.36,0.43-1.19,1.14-1.38,1.3l-0.89,0.84
	c-0.68,0.66-1.02,1.23-1.02,1.3c0,0.1,0.1,0.1,0.12,0.1c0.08,0,0.1-0.02,0.16-0.13c0.23-0.35,0.53-0.62,0.85-0.62
	c0.23,0,0.33,0.09,0.58,0.38c0.17,0.21,0.35,0.37,0.63,0.37c0.98,0,1.56-1.26,1.56-1.53c0-0.05-0.04-0.1-0.12-0.1
	c-0.09,0-0.11,0.06-0.14,0.13c-0.23,0.65-0.86,0.83-1.19,0.83c-0.2,0-0.38-0.06-0.59-0.13c-0.34-0.13-0.49-0.17-0.7-0.17
	C147.44,90.71,147.28,90.71,147.19,90.74"/>
<polyline class="st3" points="153.11,88.22 153.11,87.87 152.37,87.87 152.37,81.53 153.11,81.53 153.11,81.19 152.03,81.19 
	152.03,88.22 153.11,88.22 "/>
<path class="st3" d="M156.92,85.18h-0.24c-0.02,0.15-0.09,0.57-0.18,0.64c-0.06,0.04-0.6,0.04-0.7,0.04h-1.29
	c0.74-0.65,0.98-0.85,1.41-1.18c0.52-0.42,1-0.85,1-1.52c0-0.85-0.75-1.37-1.65-1.37c-0.87,0-1.46,0.61-1.46,1.26
	c0,0.36,0.3,0.39,0.37,0.39c0.17,0,0.37-0.12,0.37-0.37c0-0.13-0.05-0.37-0.41-0.37c0.22-0.5,0.7-0.65,1.03-0.65
	c0.7,0,1.07,0.55,1.07,1.12c0,0.61-0.44,1.1-0.66,1.35l-1.7,1.67c-0.07,0.06-0.07,0.08-0.07,0.27h2.9L156.92,85.18"/>
<polyline class="st3" points="158.58,81.19 157.5,81.19 157.5,81.53 158.24,81.53 158.24,87.87 157.5,87.87 157.5,88.22 
	158.58,88.22 158.58,81.19 "/>
<path class="st3" d="M154.12,92.98h-0.24c-0.02,0.15-0.09,0.57-0.18,0.64c-0.06,0.04-0.6,0.04-0.7,0.04h-1.29
	c0.74-0.65,0.98-0.85,1.41-1.18c0.52-0.42,1-0.85,1-1.52c0-0.85-0.75-1.37-1.65-1.37c-0.87,0-1.46,0.61-1.46,1.26
	c0,0.36,0.3,0.39,0.37,0.39c0.17,0,0.37-0.12,0.37-0.37c0-0.13-0.05-0.37-0.41-0.37c0.22-0.5,0.7-0.65,1.03-0.65
	c0.7,0,1.07,0.55,1.07,1.12c0,0.61-0.44,1.1-0.66,1.35l-1.7,1.67c-0.07,0.06-0.07,0.08-0.07,0.27h2.9L154.12,92.98"/>
</svg>
