<?xml version="1.0" encoding="utf-8"?>
<!-- Generator: Adobe Illustrator 26.0.2, SVG Export Plug-In . SVG Version: 6.00 Build 0)  -->
<svg version="1.1" id="Layer_1" xmlns="http://www.w3.org/2000/svg" xmlns:xlink="http://www.w3.org/1999/xlink" x="0px" y="0px"
	 viewBox="0 0 162.25 44" style="enable-background:new 0 0 162.25 44;" xml:space="preserve">
<style type="text/css">
	.st0{fill:#FD46FC;}
	.st1{fill:#486AFB;}
</style>
<g>
	<g>
		<path class="st0" d="M0.12,4.13C0.89,5.3,1.74,6.43,2.65,7.5c0.74,0.86,2.11,2.55,3.31,1.32c0.46-0.46,0.66-1.18,0.89-1.77
			c0.26-0.67,0.5-1.34,0.71-2.03c0.42-1.37,0.81-2.79,0.81-4.23c0-0.64-0.85-0.7-1.06-0.14C6.9,1.77,6.64,2.94,6.29,4.09
			C5.94,5.23,5.53,6.36,5.06,7.46C5.02,7.54,4.98,7.63,4.94,7.71C4.86,7.89,4.85,7.79,4.92,7.78c0.08,0-0.07-0.05-0.11-0.07
			C4.72,7.65,4.65,7.57,4.57,7.5C4.16,7.08,3.78,6.61,3.4,6.15c-0.72-0.88-1.39-1.8-2.01-2.75C0.88,2.6-0.4,3.34,0.12,4.13
			L0.12,4.13z"/>
	</g>
</g>
<g>
	<g>
		<path class="st0" d="M14.89,3.82c-0.71-0.94-2.04-2.21-3.28-1.35c-0.59,0.41-0.86,1.18-1.12,1.83c-0.3,0.77-0.54,1.56-0.7,2.37
			c-0.23,1.2-0.43,2.7,0.4,3.73c0.38,0.47,0.96,0.72,1.57,0.65c0.73-0.09,1.33-0.6,1.77-1.16c1.02-1.29,1.38-2.92,1.16-4.54
			c-0.08-0.58-1.09-0.46-1.02,0.13c0.25,2.17,2.82,3.87,4.82,2.62C18.95,7.8,18.68,7,18.12,7.17c-1.39,0.43-3.13-0.33-3.42-1.83
			c-0.34,0.09-0.67,0.17-1.01,0.26c0.28,1.32-0.17,2.73-1.1,3.69c-0.31,0.32-0.89,0.81-1.35,0.44c-0.31-0.26-0.43-0.79-0.47-1.17
			c-0.15-1.35,0.25-2.9,0.73-4.15c0.2-0.52,0.48-1.38,1.19-1.2c0.6,0.15,1.08,0.73,1.44,1.19C14.47,4.83,15.22,4.25,14.89,3.82
			L14.89,3.82z"/>
	</g>
</g>
<g>
	<g>
		<path class="st0" d="M21.46,9.2c-0.91-1.04-2.08-2.53-1.42-3.99c0.63-1.4,2.59-0.9,3.76-0.68c0.53,0.1,0.7-0.6,0.21-0.8
			c-1.24-0.5-2.85-0.83-4.03,0.03c-1.23,0.9-1.39,2.55-0.84,3.89c0.34,0.83,0.88,1.54,1.41,2.25c0.21,0.28,0.55,0.39,0.85,0.16
			C21.69,9.83,21.69,9.46,21.46,9.2L21.46,9.2z"/>
	</g>
</g>
<g>
	<g>
		<path class="st0" d="M25.68,6.23c0.06,0.68,0.09,1.38,0.19,2.06c0.05,0.31,0.1,0.61,0.15,0.92c0.05,0.31,0.14,0.6,0.22,0.9
			c0.09,0.34,0.42,0.56,0.77,0.51c0.37-0.05,0.57-0.34,0.62-0.69c0.08-0.62,0.12-1.23,0.12-1.85c0-0.62-0.05-1.24-0.08-1.85
			c-0.02-0.52-0.43-1.01-0.98-0.99C26.18,5.27,25.63,5.68,25.68,6.23L25.68,6.23z"/>
	</g>
</g>
<g>
	<g>
		<path class="st0" d="M27.16,11.67C27.17,11.67,27.17,11.66,27.16,11.67C27.16,11.66,27.16,11.67,27.16,11.67L27.16,11.67z"/>
	</g>
</g>
<g>
	<g>
		<path class="st0" d="M25.69,2.28c0.01,0.05,0.01,0.1,0.02,0.16c0.01,0.03,0.02,0.06,0.03,0.09c0.01,0.02,0.02,0.06,0.04,0.08
			c0,0,0,0.01,0.01,0.01c0.03,0.04,0.06,0.08,0.09,0.12c0.01,0.01,0.02,0.02,0.03,0.03c0.04,0.03,0.1,0.08,0.15,0.11
			c0.05,0.02,0.09,0.04,0.14,0.06c0.01,0,0.02,0.01,0.03,0.01c0.01,0,0.02,0,0.02,0c0.05,0.01,0.1,0.02,0.16,0.02
			c0.01,0,0.02,0,0.02,0c0.05,0,0.11-0.01,0.16-0.02c0.02,0,0.03-0.01,0.05-0.01c0.05-0.02,0.09-0.04,0.14-0.06c0,0,0.01,0,0.01,0
			c0.01,0,0.01-0.01,0.02-0.01c0,0,0.01,0,0.01-0.01c0.04-0.03,0.08-0.06,0.12-0.09c0.01-0.01,0.01-0.01,0.02-0.02
			c0.04-0.04,0.08-0.09,0.11-0.15c0.02-0.04,0.04-0.09,0.05-0.13c0,0,0-0.01,0-0.01c0.01-0.05,0.01-0.1,0.02-0.14
			c0-0.01,0-0.01,0-0.02c0-0.06-0.01-0.12-0.02-0.18c0,0,0-0.01,0-0.01C27.09,2.05,27.07,2,27.05,1.96c0-0.01-0.01-0.02-0.01-0.02
			c-0.03-0.04-0.06-0.09-0.1-0.13c-0.01-0.01-0.01-0.01-0.02-0.02c-0.02-0.02-0.05-0.04-0.07-0.06c-0.02-0.02-0.05-0.04-0.08-0.06
			c-0.01-0.01-0.02-0.01-0.03-0.01c-0.05-0.02-0.1-0.04-0.15-0.06c-0.01,0-0.02-0.01-0.03-0.01c-0.03,0-0.05-0.01-0.08-0.01
			c-0.03,0-0.05-0.01-0.08-0.01c0,0-0.01,0-0.01,0c-0.02,0-0.11,0.01-0.13,0.02c0,0,0,0,0,0c-0.04,0.02-0.08,0.03-0.13,0.05
			c0,0-0.01,0.01-0.01,0.01c-0.04,0.03-0.08,0.06-0.11,0.09C26,1.74,26,1.75,25.99,1.75c0,0,0,0,0,0c-0.02,0.02-0.06,0.08-0.08,0.1
			c0,0,0,0,0,0c-0.01,0.01-0.04,0.1-0.05,0.11c-0.02,0.06-0.02,0.12-0.01,0.18c0,0.06,0.02,0.12,0.05,0.17
			c0.03,0.03,0.05,0.07,0.08,0.1c0.06,0.06,0.13,0.1,0.21,0.12c0.04,0.02,0.09,0.01,0.13,0.02c-0.04-0.01-0.08-0.01-0.12-0.02
			c0.01,0,0.02,0,0.03,0.01c-0.04-0.02-0.08-0.03-0.12-0.05c0.01,0,0.01,0.01,0.02,0.01c0,0,0,0,0,0c0.06,0.04,0.12,0.05,0.18,0.06
			c0.03,0,0.05,0.01,0.08,0.01c-0.04-0.01-0.09-0.01-0.13-0.02c0.02,0,0.04,0.01,0.06,0.02c-0.04-0.02-0.08-0.03-0.12-0.05
			c0.02,0.01,0.04,0.02,0.06,0.03c-0.04-0.03-0.07-0.05-0.11-0.08c0.02,0.01,0.03,0.03,0.05,0.04c-0.03-0.04-0.06-0.07-0.08-0.11
			c0.01,0.02,0.02,0.03,0.03,0.05c-0.02-0.04-0.04-0.09-0.05-0.13c0.01,0.01,0.01,0.03,0.01,0.04c-0.01-0.04-0.01-0.09-0.02-0.13
			c0,0.01,0,0.02,0,0.04c0.01-0.04,0.01-0.09,0.02-0.13c0,0.02-0.01,0.03-0.01,0.05c0.02-0.04,0.03-0.08,0.05-0.12
			c0,0.01-0.01,0.02-0.02,0.03c0.03-0.04,0.05-0.07,0.08-0.11c-0.01,0.01-0.02,0.02-0.03,0.03c0.04-0.03,0.07-0.06,0.11-0.09
			c-0.01,0.01-0.03,0.02-0.04,0.02c0.04-0.02,0.09-0.04,0.13-0.05c-0.02,0.01-0.04,0.01-0.06,0.02c0.05-0.01,0.09-0.01,0.14-0.02
			c-0.02,0-0.05,0-0.07,0c0.04,0.01,0.09,0.01,0.13,0.02c-0.02,0-0.04-0.01-0.06-0.02c0.04,0.02,0.08,0.03,0.12,0.05
			c-0.02-0.01-0.03-0.02-0.05-0.03c0.04,0.03,0.07,0.05,0.11,0.08C26.63,2.01,26.62,2,26.61,1.99c0.03,0.04,0.06,0.07,0.09,0.11
			c-0.01-0.01-0.01-0.02-0.02-0.03c0.02,0.04,0.04,0.09,0.05,0.13c-0.01-0.01-0.01-0.03-0.01-0.04c0.01,0.04,0.01,0.09,0.02,0.13
			c0,0,0,0,0,0c0-0.07-0.01-0.14-0.04-0.2c-0.02-0.07-0.06-0.13-0.11-0.18c-0.05-0.05-0.1-0.09-0.17-0.11
			c-0.06-0.03-0.13-0.05-0.19-0.04c-0.04,0.01-0.09,0.01-0.13,0.02c-0.09,0.02-0.17,0.07-0.24,0.14c-0.03,0.04-0.05,0.07-0.08,0.11
			C25.72,2.11,25.69,2.19,25.69,2.28L25.69,2.28z"/>
	</g>
</g>
<g>
	<g>
		<path class="st0" d="M34.46,5.89c-0.48-0.85-1.57-1.16-2.48-0.86C30.9,5.4,30.27,6.5,30.12,7.58c-0.13,0.96,0.11,2.16,1.06,2.62
			c1.08,0.52,2.61-0.16,3.41-0.92c0.88-0.84,1.12-2.35,0.15-3.23c-0.24-0.22-0.61-0.12-0.7,0.19c-0.39,1.25,0.05,2.66,1.19,3.37
			c1.2,0.75,2.83,0.4,3.62-0.75c0.33-0.48-0.37-0.89-0.75-0.57c-0.62,0.51-1.63,0.72-2.35,0.32c-0.73-0.4-1.13-1.35-0.89-2.15
			c-0.23,0.06-0.47,0.13-0.7,0.19c0.82,0.72,0.12,1.82-0.63,2.24c-0.43,0.25-1,0.46-1.5,0.48c-0.45,0.02-0.75-0.25-0.92-0.65
			c-0.36-0.83-0.11-1.97,0.52-2.61c0.6-0.62,1.76-0.69,2.23,0.12C34.08,6.64,34.69,6.29,34.46,5.89L34.46,5.89z"/>
	</g>
</g>
<g>
	<g>
		<path class="st0" d="M38.37,2.52c0.21,1.17,0.42,2.35,0.63,3.52c0.21,1.17,0.32,2.45,0.78,3.56c0.15,0.35,0.66,0.46,0.97,0.33
			c0.36-0.16,0.55-0.53,0.46-0.92c-0.1-0.46,0-1.01,0.1-1.46c0.11-0.49,0.29-0.96,0.62-1.34c0.47-0.54,1.33-0.78,2.01-0.49
			c0.83,0.36,0.67,1.32,0.19,1.91c-0.74,0.89-1.99,0.98-3.02,1.31c-0.46,0.15-0.38,0.81,0.1,0.84c1.19,0.06,2.47-0.18,3.41-0.94
			c0.8-0.65,1.29-1.81,0.97-2.83c-0.3-0.94-1.17-1.46-2.12-1.52c-0.95-0.06-1.88,0.37-2.48,1.09c-0.41,0.48-0.7,1.05-0.89,1.65
			C39.92,7.8,39.89,8.42,39.71,9c0.51,0.07,1.03,0.14,1.54,0.21c0.03-0.63-0.13-1.27-0.23-1.88c-0.1-0.58-0.2-1.15-0.3-1.73
			c-0.21-1.18-0.41-2.35-0.62-3.53c-0.08-0.47-0.65-0.75-1.09-0.64C38.51,1.56,38.29,2.04,38.37,2.52L38.37,2.52z"/>
	</g>
</g>
<g>
	<g>
		<path class="st0" d="M48.88,5.5C48.89,5.5,48.89,5.49,48.88,5.5C48.88,5.49,48.88,5.5,48.88,5.5L48.88,5.5z"/>
	</g>
</g>
<g>
	<g>
		<path class="st0" d="M48.16,2.04c-0.03,1.53,0.06,3.08,0.31,4.59c0.24,1.47,0.66,3.03,1.44,4.3c0.21,0.35,0.89,0.25,0.84-0.22
			c-0.16-1.45-0.51-2.87-0.73-4.31c-0.23-1.45-0.36-2.89-0.35-4.35C49.66,1.08,48.18,1.07,48.16,2.04L48.16,2.04z"/>
	</g>
</g>
<g>
	<g>
		<path class="st0" d="M52.75,8.51c1.12,0.38,2.55,0.27,3.29-0.77c0.57-0.8,0.3-2.09-0.54-2.61c-1.1-0.68-2.3,0.42-2.62,1.44
			c-0.36,1.13,0.01,2.51,0.94,3.26c1.16,0.94,3.01,1.05,4.2,0.1c0.3-0.24-0.03-0.68-0.35-0.61c-0.48,0.1-0.94,0.21-1.44,0.18
			c-0.42-0.02-0.87-0.11-1.24-0.28c-0.77-0.35-1.29-1.04-1.33-1.9c-0.02-0.4,0.06-0.79,0.27-1.13c0.2-0.32,0.58-0.67,0.99-0.61
			c0.66,0.1,0.88,1.09,0.63,1.6c-0.44,0.91-1.8,0.94-2.62,0.7C52.51,7.75,52.35,8.38,52.75,8.51L52.75,8.51z"/>
	</g>
</g>
<g>
	<g>
		<path class="st0" d="M62.32,4.45C61.45,4.72,60.75,5.25,60.25,6c-0.09,0.14-0.1,0.39,0,0.53c0.36,0.51,0.71,1.04,1.06,1.56
			c0.17,0.26,0.35,0.52,0.52,0.79c0.14,0.21,0.31,0.43,0.41,0.67c0.15,0.37-0.11,0.7-0.45,0.85c-0.46,0.21-1.03,0.19-1.53,0.22
			c-0.51,0.04-0.69,0.82-0.13,0.94c0.73,0.16,1.47,0.21,2.16-0.11c0.61-0.28,1.09-0.87,1.13-1.55c0.05-0.74-0.49-1.35-0.89-1.91
			C62.09,7.33,61.62,6.68,61.18,6c-0.03,0.21-0.05,0.43-0.08,0.64c0.39-0.51,0.9-0.88,1.52-1.04C63.35,5.4,63.04,4.23,62.32,4.45
			L62.32,4.45z"/>
	</g>
</g>
<g>
	<g>
		<path class="st0" d="M2.97,15.83c16.35,0.22,32.68,0.71,49.02,1.38c4.64,0.19,9.28,0.38,13.93,0.52c0.51,0.01,0.51-0.76,0-0.79
			c-16.31-1.05-32.67-1.35-49.01-1.75c-4.65-0.11-9.29-0.21-13.94-0.29C2.37,14.88,2.37,15.82,2.97,15.83L2.97,15.83z"/>
	</g>
</g>
<g>
	<g>
		<path class="st0" d="M128.86,0.96c0.19,1.94,0.39,3.89,0.6,5.83c0.2,1.9,0.29,3.94,0.93,5.76c0.17,0.47,1.01,0.63,1.1,0
			c0.27-1.89,0-3.85-0.16-5.75c-0.17-1.94-0.36-3.89-0.54-5.83c-0.05-0.52-0.4-0.96-0.96-0.97C129.35,0,128.8,0.44,128.86,0.96
			L128.86,0.96z"/>
	</g>
</g>
<g>
	<g>
		<path class="st0" d="M133.8,7.86c0.11,0.55,0.21,1.11,0.33,1.66c0.12,0.55,0.28,1.09,0.47,1.62c0.1,0.27,0.32,0.45,0.62,0.42
			c0.28-0.03,0.5-0.27,0.5-0.56c0.01-0.61-0.02-1.23-0.11-1.84c-0.08-0.57-0.16-1.15-0.24-1.72c-0.03-0.2-0.22-0.41-0.39-0.5
			c-0.17-0.1-0.42-0.14-0.61-0.08C133.95,7,133.72,7.41,133.8,7.86L133.8,7.86z"/>
	</g>
</g>
<g>
	<g>
		<path class="st0" d="M133.75,4.88c0.05,0,0.11,0,0.16-0.02c0.05-0.01,0.1-0.03,0.14-0.06c0.04-0.03,0.08-0.06,0.12-0.1
			c0.06-0.08,0.09-0.12,0.12-0.21c0.01-0.02,0.01-0.04,0.01-0.06c0.01-0.05,0.02-0.1,0.02-0.16c0-0.08-0.02-0.15-0.03-0.22
			c0,0.03,0.01,0.07,0.01,0.1c-0.01-0.13-0.03-0.22-0.09-0.33c0.01,0.04,0.03,0.07,0.04,0.11c-0.02-0.05-0.04-0.11-0.07-0.16
			c-0.08-0.12-0.18-0.2-0.32-0.25c-0.16-0.05-0.35-0.03-0.49,0.06c-0.15,0.09-0.25,0.26-0.25,0.43c0,0.09,0.02,0.18,0.07,0.25
			c0.05,0.08,0.11,0.14,0.19,0.19c0.1,0.04,0.2,0.09,0.31,0.11c0.08,0.01,0.15,0.02,0.22,0.02c0.07-0.01,0.15-0.01,0.22-0.03
			c0.03-0.01,0.04-0.01,0.08-0.03c0.02-0.01,0.05-0.02,0.07-0.03c0.03-0.03,0.07-0.05,0.1-0.08c0.01-0.01,0.02-0.02,0.03-0.03
			c0.02-0.02,0.04-0.04,0.06-0.07c0.02-0.02,0.04-0.05,0.05-0.07c0.07-0.09,0.09-0.2,0.07-0.31c-0.01-0.06-0.05-0.11-0.09-0.16
			c0.02,0.02,0.04,0.05,0.05,0.07c-0.01-0.01-0.02-0.03-0.03-0.04c-0.04-0.05-0.09-0.09-0.15-0.11c-0.03-0.01-0.05-0.02-0.08-0.03
			c-0.03-0.01-0.06-0.02-0.09-0.03c0.04,0.01,0.07,0.03,0.11,0.04c-0.01,0-0.02-0.01-0.03-0.01c-0.1-0.05-0.14-0.06-0.25-0.07
			c-0.03,0-0.06,0-0.09-0.01c0.04,0.01,0.08,0.01,0.12,0.02c-0.1-0.01-0.2-0.03-0.29-0.07c0.04,0.02,0.08,0.03,0.12,0.05
			c-0.01,0-0.01-0.01-0.02-0.01c0,0.29,0,0.58,0,0.87c0.04-0.03,0.09-0.07,0.13-0.1c-0.04,0.03-0.07,0.05-0.11,0.08
			c0.01-0.01,0.02-0.02,0.04-0.02c-0.04,0.02-0.08,0.03-0.12,0.05c0.01,0,0.02-0.01,0.03-0.01c-0.04,0.01-0.08,0.01-0.12,0.02
			c0.05-0.01,0.1-0.01,0.16-0.02c-0.04,0.01-0.08,0.01-0.12,0.02c0.01,0,0.02,0,0.04,0c-0.04-0.01-0.08-0.01-0.12-0.02
			c0.01,0,0.03,0.01,0.04,0.01c-0.03-0.01-0.07-0.03-0.1-0.04c0.01,0,0.02,0.01,0.02,0.02c-0.03-0.02-0.06-0.04-0.09-0.07
			c0.02,0.02,0.04,0.04,0.06,0.06c-0.02-0.03-0.04-0.06-0.07-0.09c0,0,0.01,0.01,0.01,0.01c-0.01-0.03-0.03-0.07-0.04-0.1
			c0.01,0.03,0.02,0.07,0.03,0.1c0-0.03-0.01-0.07-0.01-0.1c0,0.03,0,0.06,0,0.09c0-0.03,0.01-0.07,0.01-0.1
			c0,0.02-0.01,0.03-0.01,0.05c0.01-0.03,0.03-0.06,0.04-0.09c-0.01,0.01-0.01,0.03-0.02,0.04c0.02-0.03,0.04-0.05,0.06-0.08
			c-0.01,0.01-0.02,0.02-0.02,0.02c0.03-0.02,0.06-0.04,0.08-0.06c-0.01,0.01-0.02,0.01-0.03,0.02c0.03-0.01,0.06-0.03,0.1-0.04
			c-0.01,0.01-0.03,0.01-0.04,0.01c0.03,0,0.07-0.01,0.1-0.01c-0.01,0-0.02,0-0.03,0c-0.1,0-0.21,0.04-0.28,0.12
			c-0.07,0.07-0.11,0.17-0.11,0.27c0,0.1,0.04,0.21,0.12,0.28C133.56,4.84,133.64,4.87,133.75,4.88L133.75,4.88z"/>
	</g>
</g>
<g>
	<g>
		<path class="st0" d="M138.42,10.59c-0.12-0.8-0.19-1.77,0.31-2.47c0.18-0.26,0.44-0.48,0.74-0.58c0.13-0.04,0.27-0.06,0.41-0.05
			c0.06,0.01,0.12,0.02,0.17,0.04c0.03,0.01,0.18,0.07,0.13,0.05c-0.06-0.03,0.09,0.05,0.12,0.06c0.02,0.01,0.17,0.11,0.11,0.07
			c-0.06-0.05,0.06,0.05,0.08,0.07c0.05,0.05,0.1,0.1,0.15,0.16c0.11,0.12-0.02-0.05,0.05,0.05c0.04,0.05,0.08,0.11,0.11,0.17
			c0.07,0.12,0.14,0.24,0.21,0.36c0.27,0.52,0.48,1.08,0.76,1.6c0.35,0.65,0.83,1.32,1.59,1.49c0.6,0.13,0.89-0.53,0.55-0.96
			c0.07,0.09-0.05-0.08-0.06-0.1c-0.06-0.09-0.14-0.17-0.21-0.25c-0.02-0.02-0.16-0.2-0.11-0.13c0.06,0.07-0.01-0.01-0.01-0.02
			c-0.03-0.05-0.07-0.1-0.1-0.15c-0.19-0.26-0.35-0.54-0.5-0.83c-0.3-0.57-0.57-1.18-0.95-1.7c-0.4-0.55-0.93-1.04-1.63-1.15
			c-0.99-0.15-1.9,0.36-2.47,1.16c-0.69,0.98-0.64,2.26-0.47,3.39c0.04,0.29,0.4,0.45,0.66,0.39
			C138.34,11.17,138.46,10.88,138.42,10.59L138.42,10.59z"/>
	</g>
</g>
<g>
	<g>
		<path class="st0" d="M145.4,4.86c0.15,1.35,0.29,2.7,0.46,4.05c0.17,1.31,0.28,2.65,0.65,3.93c0.2,0.69,1.18,0.54,1.22-0.15
			c0.08-1.3-0.08-2.61-0.19-3.91c-0.11-1.3-0.26-2.6-0.39-3.91c-0.05-0.47-0.36-0.88-0.87-0.88C145.85,3.99,145.35,4.39,145.4,4.86
			L145.4,4.86z"/>
	</g>
</g>
<g>
	<g>
		<path class="st0" d="M147.98,9.61C147.98,9.61,147.98,9.61,147.98,9.61C147.97,9.61,147.97,9.61,147.98,9.61L147.98,9.61z"/>
	</g>
</g>
<g>
	<g>
		<path class="st0" d="M148.14,9.2c0.36-0.4,0.73-0.78,1.13-1.14c0.42-0.38,0.84-0.7,1.24-1.02c0.36-0.29,0.76-0.56,1.17-0.87
			c0.46-0.34,0.92-0.65,1.33-1.05c0.33-0.32-0.02-0.79-0.42-0.72c-1.1,0.17-2.09,0.84-2.96,1.51c-0.89,0.69-1.67,1.55-2.36,2.44
			c-0.2,0.26-0.25,0.61,0.01,0.86C147.51,9.43,147.92,9.45,148.14,9.2L148.14,9.2z"/>
	</g>
</g>
<g>
	<g>
		<path class="st0" d="M147.79,11.27c0.67,0.43,1.34,0.87,2.01,1.3c0.32,0.21,0.65,0.43,0.98,0.62c0.37,0.21,0.94,0.42,1.38,0.37
			c0.36-0.04,0.73-0.35,0.59-0.76c-0.29-0.89-1.23-1.39-1.97-1.87c-0.69-0.44-1.37-0.87-2.06-1.31c-0.42-0.27-1.06-0.09-1.29,0.35
			C147.19,10.45,147.35,10.98,147.79,11.27L147.79,11.27z"/>
	</g>
</g>
<g>
	<g>
		<path class="st0" d="M130.12,18.15c9.39-0.29,18.79-0.17,28.18-0.44c0.41-0.01,0.42-0.62,0-0.64c-9.38-0.37-18.8-0.02-28.18,0.25
			C129.59,17.33,129.58,18.17,130.12,18.15L130.12,18.15z"/>
	</g>
</g>
<g>
	<g>
		<path class="st1" d="M19.8,35.29c1.37-1.64,2.73-3.28,4.1-4.91c0.67-0.81,1.34-1.62,2-2.44c0.32-0.4,0.64-0.8,0.95-1.2
			c0.31-0.4,0.77-0.86,0.84-1.39c0.05-0.33-0.21-0.75-0.6-0.61c-0.5,0.17-0.81,0.58-1.14,0.97c-0.33,0.39-0.66,0.78-0.98,1.17
			c-0.69,0.83-1.37,1.68-2.05,2.52c-1.33,1.67-2.66,3.35-3.99,5.02C18.42,35.03,19.28,35.91,19.8,35.29L19.8,35.29z"/>
	</g>
</g>
<g>
	<g>
		<path class="st1" d="M20.03,27.26c0.85,1.66,1.84,3.24,2.97,4.73c1.14,1.5,2.34,3,3.92,4.06c0.48,0.32,1.18-0.34,0.82-0.83
			c-1.07-1.45-2.34-2.73-3.4-4.18c-1.07-1.46-2.02-3.01-2.84-4.63C21.01,25.43,19.53,26.28,20.03,27.26L20.03,27.26z"/>
	</g>
</g>
<g>
	<g>
		<path class="st1" d="M31.85,36.24c-0.04,0.61-0.1,1.06-0.23,1.67c-0.12,0.59-0.32,1.17-0.37,1.77c-0.03,0.34,0.46,0.54,0.68,0.28
			c0.41-0.5,0.64-1.16,0.81-1.79c0.17-0.63,0.27-1.28,0.33-1.93c0.03-0.32-0.3-0.62-0.61-0.61C32.12,35.64,31.87,35.9,31.85,36.24
			L31.85,36.24z"/>
	</g>
</g>
<g>
	<g>
		<path class="st1" d="M45.41,27.43c-1.07,1.66-2.13,3.33-3.19,5c-0.51,0.81-1.02,1.62-1.54,2.42c-0.27,0.43-0.55,0.86-0.82,1.29
			c-0.25,0.4-0.49,0.8-0.51,1.29c-0.01,0.36,0.38,0.54,0.68,0.39c0.44-0.22,0.7-0.64,0.96-1.03c0.28-0.42,0.56-0.85,0.84-1.28
			c0.53-0.8,1.05-1.6,1.58-2.4c1.09-1.65,2.18-3.31,3.25-4.97C47.17,27.36,45.91,26.65,45.41,27.43L45.41,27.43z"/>
	</g>
</g>
<g>
	<g>
		<path class="st1" d="M42.24,31.87c-0.3-1.11-0.6-2.21-0.91-3.31c-0.31-1.09-0.56-2.23-1.09-3.25c-0.18-0.35-0.77-0.2-0.75,0.2
			c0.04,1.14,0.39,2.25,0.66,3.35c0.27,1.11,0.56,2.22,0.85,3.33C41.21,32.99,42.45,32.66,42.24,31.87L42.24,31.87z"/>
	</g>
</g>
<g>
	<g>
		<path class="st1" d="M126.51,32.24c0.09,1.95,0.13,3.91,0.11,5.87c-0.01,0.98-0.02,1.96-0.04,2.93c-0.01,0.91-0.14,1.89,0.11,2.77
			c0.07,0.26,0.4,0.22,0.48,0c0.34-0.86,0.31-1.86,0.36-2.77c0.05-0.98,0.08-1.96,0.08-2.93c0.01-1.96-0.03-3.91-0.13-5.87
			C127.45,31.62,126.49,31.62,126.51,32.24L126.51,32.24z"/>
	</g>
</g>
<g>
	<g>
		<path class="st1" d="M127.02,32.92c1.17-0.71,2.84-1.04,3.84,0.12c0.37,0.43,0.57,1.01,0.38,1.57c-0.2,0.61-0.84,1.01-1.42,1.21
			c-0.44,0.15-0.89,0.22-1.35,0.26c-0.18,0.02-0.39,0.06-0.57,0.04c-0.05-0.01-0.1-0.02-0.12-0.03c-0.05-0.02-0.02,0.01,0,0.01
			c0,0-0.1-0.11-0.05-0.04c-0.14-0.18-0.44-0.3-0.62-0.08c-0.37,0.46-0.01,0.99,0.51,1.09c0.48,0.09,1.02-0.06,1.49-0.15
			c0.97-0.19,1.93-0.57,2.54-1.39c0.56-0.75,0.65-1.64,0.26-2.49c-0.37-0.81-1.18-1.41-2.05-1.58c-1.14-0.22-2.29,0.15-3.23,0.78
			C126.2,32.52,126.58,33.19,127.02,32.92L127.02,32.92z"/>
	</g>
</g>
<g>
	<g>
		<path class="st1" d="M137.7,27.1c-1.06,1.64-2,3.49-2,5.49c0,1.53,0.6,3.65,2.13,4.32c0.35,0.15,0.67-0.24,0.41-0.54
			c-0.49-0.55-0.97-1.06-1.27-1.74c-0.31-0.7-0.43-1.48-0.41-2.25c0.06-1.78,0.89-3.43,1.81-4.91
			C138.62,27.06,137.97,26.68,137.7,27.1L137.7,27.1z"/>
	</g>
</g>
<g>
	<g>
		<path class="st1" d="M141.33,36.37c0.8-0.71,1.61-1.41,2.41-2.12c0.39-0.35,0.78-0.71,1.16-1.07c0.19-0.18,0.38-0.36,0.57-0.54
			c0.22-0.21,0.5-0.43,0.55-0.74c0.06-0.32-0.15-0.7-0.52-0.68c-0.35,0.02-0.58,0.22-0.84,0.43c-0.22,0.18-0.43,0.36-0.65,0.53
			c-0.42,0.35-0.84,0.69-1.25,1.05c-0.82,0.71-1.63,1.44-2.45,2.16c-0.29,0.25-0.25,0.74,0.01,0.99
			C140.62,36.66,141.05,36.62,141.33,36.37L141.33,36.37z"/>
	</g>
</g>
<g>
	<g>
		<path class="st1" d="M140.63,32.78c0.5,1.02,1.12,1.97,1.83,2.86c0.34,0.42,0.69,0.83,1.08,1.21c0.4,0.4,0.9,0.91,1.48,0.99
			c0.36,0.05,0.78-0.22,0.64-0.64c-0.18-0.55-0.64-0.94-1.03-1.35c-0.38-0.39-0.74-0.79-1.07-1.21c-0.14-0.17-0.24-0.31-0.4-0.54
			c-0.15-0.22-0.3-0.43-0.44-0.66c-0.29-0.46-0.55-0.93-0.79-1.42c-0.17-0.35-0.7-0.48-1.02-0.27
			C140.54,31.99,140.45,32.4,140.63,32.78L140.63,32.78z"/>
	</g>
</g>
<g>
	<g>
		<path class="st1" d="M149.07,36.31c0.03,0.05,0.05,0.09,0.08,0.14c0.01,0.03,0.03,0.05,0.04,0.08c0.03,0.06,0.01-0.01-0.01-0.02
			c0.03,0.03,0.04,0.11,0.05,0.15c0.01,0.05,0.03,0.1,0.04,0.15c0.01,0.03,0.01,0.06,0.02,0.09c0,0.01,0.01,0.09,0,0.02
			c-0.01-0.08,0,0.03,0,0.04c0,0.02,0,0.05,0,0.07c0,0.11,0,0.22-0.01,0.33c-0.01,0.07,0.02-0.09,0-0.02
			c-0.01,0.03-0.01,0.06-0.02,0.09c-0.01,0.05-0.02,0.1-0.04,0.15c-0.01,0.05-0.03,0.1-0.04,0.15c-0.01,0.02-0.01,0.04-0.02,0.07
			c-0.01,0.01-0.05,0.11-0.01,0.04c0.03-0.06-0.01,0.01-0.01,0.02c-0.01,0.03-0.03,0.05-0.04,0.08c-0.02,0.05-0.04,0.1-0.06,0.15
			c-0.06,0.12-0.11,0.24-0.14,0.37c-0.08,0.25,0.19,0.56,0.45,0.46c0.17-0.07,0.3-0.13,0.42-0.27c0.1-0.11,0.19-0.24,0.26-0.37
			c0.14-0.28,0.21-0.56,0.25-0.87c0.06-0.54-0.07-1.12-0.36-1.58c-0.14-0.21-0.43-0.32-0.66-0.18
			C149.03,35.78,148.93,36.07,149.07,36.31L149.07,36.31z"/>
	</g>
</g>
<g>
	<g>
		<path class="st1" d="M152.46,32.7c0.43,0.66,0.86,1.32,1.3,1.97c0.43,0.66,0.86,1.38,1.52,1.84c0.21,0.15,0.46-0.1,0.41-0.32
			c-0.16-0.76-0.66-1.42-1.08-2.05c-0.43-0.64-0.86-1.29-1.3-1.93c-0.15-0.22-0.43-0.32-0.67-0.18
			C152.42,32.16,152.31,32.48,152.46,32.7L152.46,32.7z"/>
	</g>
</g>
<g>
	<g>
		<path class="st1" d="M155.63,33.19c-0.59,1.47-1.14,2.97-1.54,4.51c-0.2,0.75-0.38,1.51-0.53,2.28c-0.14,0.72-0.39,1.66-0.14,2.37
			c0.11,0.31,0.57,0.54,0.83,0.22c0.47-0.59,0.58-1.41,0.75-2.12c0.18-0.79,0.37-1.57,0.58-2.35c0.41-1.53,0.85-3.05,1.39-4.55
			c0.13-0.35-0.15-0.75-0.49-0.84C156.08,32.59,155.77,32.84,155.63,33.19L155.63,33.19z"/>
	</g>
</g>
<g>
	<g>
		<path class="st1" d="M158.56,27.93c0.94,1.68,2.76,3.3,2.33,5.4c-0.21,1.04-0.78,1.98-1.44,2.79c-0.7,0.86-1.58,1.64-2.05,2.66
			c-0.13,0.29,0.18,0.73,0.5,0.49c0.98-0.73,1.88-1.67,2.67-2.6c0.77-0.91,1.45-1.98,1.63-3.19c0.37-2.48-1.5-4.17-2.64-6.14
			C159.18,26.71,158.19,27.28,158.56,27.93L158.56,27.93z"/>
	</g>
</g>
</svg>
