<?xml version="1.0" encoding="utf-8"?>
<!-- Generator: Adobe Illustrator 26.0.2, SVG Export Plug-In . SVG Version: 6.00 Build 0)  -->
<svg version="1.1" id="Layer_1" xmlns="http://www.w3.org/2000/svg" xmlns:xlink="http://www.w3.org/1999/xlink" x="0px" y="0px"
	 viewBox="0 0 131.25 62.36" style="enable-background:new 0 0 131.25 62.36;" xml:space="preserve">
<style type="text/css">
	.st0{fill:none;stroke:#486AFB;stroke-miterlimit:10;}
	.st1{opacity:0.4;fill:#486AFB;stroke:#486AFB;stroke-miterlimit:10;}
	.st2{fill:#486AFB;}
	.st3{fill:#FD46FC;}
</style>
<path class="st0" d="M34.75,35.25"/>
<polyline class="st0" points="111.22,14.86 130.75,14.86 130.75,61.86 34.75,61.86 34.75,38.08 "/>
<line class="st0" x1="62.14" y1="14.86" x2="108.13" y2="14.86"/>
<polyline class="st0" points="34.75,35.25 34.75,14.86 59.09,14.86 "/>
<circle class="st1" cx="110" cy="36.88" r="11"/>
<circle class="st0" cx="110" cy="36.88" r="11"/>
<circle class="st1" cx="61" cy="36.88" r="11"/>
<g>
	<g>
		<line class="st0" x1="25.5" y1="36.72" x2="43.98" y2="36.72"/>
		<g>
			<path class="st2" d="M47,36.72c-1.42,0.53-3.18,1.43-4.27,2.38l0.86-2.38l-0.86-2.38C43.82,35.29,45.58,36.19,47,36.72z"/>
		</g>
	</g>
</g>
<circle class="st0" cx="11.5" cy="36.72" r="11"/>
<path class="st3" d="M11.98,36.3l1.67-2.2c0.11-0.14,0.12-0.15,0.47-0.18c0.24-0.03,0.3-0.03,0.58-0.03h0.29v-0.47
	c-0.42,0.03-0.9,0.03-1.33,0.03c-0.39,0-1.15,0-1.51-0.03v0.47c0.18,0,0.57,0,0.91,0.11c-0.01,0.02-0.06,0.08-0.08,0.11l-1.31,1.74
	l-1.42-1.96h0.83v-0.47c-0.41,0.03-1.35,0.03-1.8,0.03c-0.4,0-1.26,0-1.61-0.03v0.47h0.97l2.2,3.05l-2.01,2.63
	c-0.09,0.12-0.11,0.14-0.43,0.17c-0.2,0.02-0.41,0.03-0.6,0.03H7.51v0.47c0.42-0.03,0.9-0.03,1.33-0.03c0.39,0,1.15,0,1.51,0.03
	v-0.47c-0.18,0-0.57,0-0.91-0.11c0.01-0.02,0.06-0.08,0.08-0.11l1.64-2.17l1.73,2.39h-0.82v0.47c0.41-0.03,1.35-0.03,1.8-0.03
	c0.4,0,1.26,0,1.61,0.03v-0.47H14.5L11.98,36.3"/>
<circle class="st0" cx="61" cy="36.88" r="11"/>
<g>
	<g>
		<line class="st0" x1="74.66" y1="36.88" x2="93.14" y2="36.88"/>
		<g>
			<path class="st2" d="M96.16,36.88c-1.42,0.53-3.18,1.43-4.27,2.38l0.86-2.38l-0.86-2.38C92.98,35.45,94.74,36.35,96.16,36.88z"/>
		</g>
	</g>
</g>
<path class="st3" d="M59.41,7.24c-0.56,0-0.96-0.27-0.96-0.92c0-0.33,0.23-1.43,0.53-2.01c0.32-0.64,0.93-0.93,1.44-0.93
	c0.92,0,1.03,1.09,1.07,2.07c0.01,0.25,0.05,0.68,0.05,0.92c0,0.12-0.61,0.47-0.85,0.58C60.08,7.21,59.65,7.24,59.41,7.24
	 M62.65,5.89c0.93-1.07,1.15-2.2,1.15-2.23c0-0.14-0.15-0.14-0.24-0.14c-0.19,0-0.2,0.02-0.25,0.21c-0.19,0.67-0.49,1.21-0.71,1.52
	c-0.01-0.48-0.02-1.06-0.56-1.6c-0.52-0.53-1.16-0.63-1.63-0.63c-2.03,0-3.12,1.57-3.12,2.85c0,1.09,0.82,1.72,2.06,1.72
	c0.95,0,1.77-0.41,2.3-0.78c0.18,0.42,0.59,0.78,1.19,0.78c0.66,0,0.99-0.46,0.99-0.67c0-0.14-0.14-0.14-0.23-0.14
	c-0.13,0-0.18,0-0.23,0.13c-0.12,0.29-0.45,0.32-0.47,0.32C62.67,7.24,62.65,6.09,62.65,5.89z"/>
<path class="st3" d="M110.76,2.64c-0.33-0.08-0.61-0.08-0.79-0.08c-0.32,0-1.12,0-1.12,0.54c0,0.42,0.6,0.42,0.94,0.42
	c0.17,0,0.62,0,1.06-0.19c0.08,0.15,0.11,0.35,0.11,0.52c0,0.36-0.26,1.56-0.57,2.08c-0.31,0.49-0.8,0.81-1.42,0.81
	c-0.92,0-1.7-0.56-1.7-1.45c0-0.2,0.05-0.41,0.07-0.51c0.15-0.59,0.47-1.89,0.59-2.33c0.32-1.08,1.52-2.1,2.7-2.1
	c0.37,0,0.59,0.18,0.59,0.57C111.21,1.23,110.98,2.25,110.76,2.64 M110.42,2.99c-0.24,0.17-0.49,0.17-0.62,0.17
	c-0.04,0-0.48,0-0.48-0.08c0-0.16,0.49-0.16,0.62-0.16C110.11,2.92,110.23,2.92,110.42,2.99z M105.92,8.6
	c-0.01,0.02-0.04,0.15-0.04,0.16c0,0.14,0.15,0.14,0.24,0.14c0.2,0,0.2-0.02,0.26-0.23c0.03-0.16,0.62-2.54,0.63-2.56
	c0.42,0.7,1.18,0.98,1.98,0.98c2,0,3.11-1.52,3.11-2.82c0-0.7-0.31-1.07-0.64-1.32c0.36-0.3,0.76-0.94,0.76-1.63
	c0-0.85-0.62-1.32-1.55-1.32c-1.42,0-2.89,1.1-3.25,2.54L105.92,8.6z"/>
<g>
	<g>
		<line class="st0" x1="60.64" y1="8.88" x2="60.64" y2="20.84"/>
		<g>
			<path class="st2" d="M60.64,23.85c-0.53-1.42-1.43-3.18-2.38-4.27l2.38,0.86l2.38-0.86C62.06,20.67,61.16,22.43,60.64,23.85z"/>
		</g>
	</g>
</g>
<g>
	<g>
		<line class="st0" x1="109.64" y1="8.62" x2="109.64" y2="20.57"/>
		<g>
			<path class="st2" d="M109.64,23.59c-0.53-1.42-1.43-3.18-2.38-4.27l2.38,0.86l2.38-0.86C111.06,20.41,110.16,22.17,109.64,23.59z
				"/>
		</g>
	</g>
</g>
<path class="st3" d="M78.66,55.55c0.12-0.29,0.12-0.31,0.22-0.58c0.08-0.2,0.13-0.34,0.13-0.53c0-0.45-0.32-0.81-0.81-0.81
	c-0.93,0-1.31,1.44-1.31,1.53c0,0.1,0.1,0.1,0.12,0.1c0.1,0,0.11-0.02,0.16-0.18c0.27-0.93,0.67-1.23,1-1.23
	c0.08,0,0.25,0,0.25,0.32c0,0.21-0.07,0.42-0.11,0.52c-0.08,0.26-0.53,1.41-0.69,1.84c-0.1,0.26-0.23,0.59-0.23,0.8
	c0,0.47,0.34,0.81,0.81,0.81c0.93,0,1.3-1.44,1.3-1.53c0-0.1-0.09-0.1-0.12-0.1c-0.1,0-0.1,0.03-0.15,0.18
	c-0.18,0.62-0.51,1.23-1.01,1.23c-0.17,0-0.24-0.1-0.24-0.33c0-0.25,0.06-0.39,0.29-0.99L78.66,55.55 M79.41,51.81
	c0-0.2-0.14-0.36-0.37-0.36c-0.27,0-0.54,0.26-0.54,0.53c0,0.19,0.14,0.36,0.38,0.36C79.11,52.34,79.41,52.11,79.41,51.81z"/>
<path class="st3" d="M89.53,56.7c0.14,0,0.33,0,0.33-0.2c0-0.2-0.19-0.2-0.34-0.2h-5.93c-0.15,0-0.34,0-0.34,0.2
	c0,0.2,0.19,0.2,0.33,0.2H89.53 M89.52,54.77c0.15,0,0.34,0,0.34-0.2c0-0.2-0.19-0.2-0.33-0.2h-5.95c-0.14,0-0.33,0-0.33,0.2
	c0,0.2,0.19,0.2,0.34,0.2H89.52z"/>
<path class="st3" d="M96.11,51.66c0-0.24,0-0.26-0.23-0.26c-0.62,0.64-1.49,0.64-1.81,0.64v0.31c0.2,0,0.78,0,1.3-0.26v5.15
	c0,0.36-0.03,0.48-0.92,0.48h-0.32v0.31c0.35-0.03,1.21-0.03,1.61-0.03c0.4,0,1.26,0,1.61,0.03v-0.31h-0.32
	c-0.89,0-0.92-0.11-0.92-0.48V51.66"/>
<path class="st3" d="M100.31,58.01c0-0.66-0.25-1.04-0.64-1.04c-0.33,0-0.53,0.25-0.53,0.53c0,0.27,0.2,0.53,0.53,0.53
	c0.12,0,0.25-0.04,0.35-0.13c0.03-0.02,0.04-0.03,0.05-0.03c0.01,0,0.02,0.01,0.02,0.15c0,0.73-0.35,1.33-0.68,1.66
	c-0.11,0.11-0.11,0.13-0.11,0.16c0,0.07,0.05,0.11,0.1,0.11C99.51,59.94,100.31,59.17,100.31,58.01"/>
<path class="st3" d="M104.6,57.5c0-0.29-0.24-0.53-0.53-0.53c-0.29,0-0.53,0.24-0.53,0.53c0,0.29,0.24,0.53,0.53,0.53
	C104.36,58.02,104.6,57.78,104.6,57.5"/>
<path class="st3" d="M109.1,57.5c0-0.29-0.24-0.53-0.53-0.53c-0.29,0-0.53,0.24-0.53,0.53c0,0.29,0.24,0.53,0.53,0.53
	C108.86,58.02,109.1,57.78,109.1,57.5"/>
<path class="st3" d="M113.5,57.5c0-0.29-0.24-0.53-0.53-0.53c-0.29,0-0.53,0.24-0.53,0.53c0,0.29,0.24,0.53,0.53,0.53
	C113.26,58.02,113.5,57.78,113.5,57.5"/>
<path class="st3" d="M117.91,58.01c0-0.66-0.25-1.04-0.64-1.04c-0.33,0-0.53,0.25-0.53,0.53c0,0.27,0.2,0.53,0.53,0.53
	c0.12,0,0.25-0.04,0.35-0.13c0.03-0.02,0.04-0.03,0.05-0.03c0.01,0,0.02,0.01,0.02,0.15c0,0.73-0.35,1.33-0.68,1.66
	c-0.11,0.11-0.11,0.13-0.11,0.16c0,0.07,0.05,0.11,0.1,0.11C117.11,59.94,117.91,59.17,117.91,58.01"/>
<path class="st3" d="M121.26,57.44c-0.03,0.15-0.09,0.38-0.09,0.43c0,0.18,0.14,0.27,0.29,0.27c0.12,0,0.3-0.08,0.37-0.28
	c0.01-0.02,0.13-0.49,0.19-0.74l0.22-0.89c0.06-0.22,0.12-0.44,0.17-0.67c0.04-0.17,0.12-0.46,0.13-0.5
	c0.15-0.31,0.68-1.21,1.62-1.21c0.45,0,0.54,0.37,0.54,0.7c0,0.25-0.07,0.53-0.15,0.82l-0.28,1.15l-0.2,0.75
	c-0.04,0.2-0.13,0.54-0.13,0.59c0,0.18,0.14,0.27,0.29,0.27c0.31,0,0.37-0.25,0.45-0.57c0.14-0.56,0.51-2.01,0.6-2.4
	c0.03-0.13,0.56-1.32,1.64-1.32c0.43,0,0.54,0.34,0.54,0.7c0,0.57-0.42,1.7-0.62,2.22c-0.09,0.24-0.13,0.35-0.13,0.55
	c0,0.47,0.35,0.81,0.81,0.81c0.93,0,1.3-1.45,1.3-1.53c0-0.1-0.09-0.1-0.12-0.1c-0.1,0-0.1,0.03-0.15,0.18
	c-0.15,0.53-0.47,1.23-1.01,1.23c-0.17,0-0.24-0.1-0.24-0.33c0-0.25,0.09-0.49,0.18-0.7c0.19-0.52,0.61-1.62,0.61-2.19
	c0-0.65-0.4-1.06-1.14-1.06c-0.75,0-1.25,0.44-1.62,0.96c-0.01-0.13-0.04-0.47-0.32-0.71c-0.25-0.21-0.57-0.26-0.81-0.26
	c-0.9,0-1.38,0.64-1.55,0.86c-0.05-0.57-0.47-0.86-0.91-0.86c-0.46,0-0.65,0.39-0.74,0.57c-0.18,0.35-0.31,0.93-0.31,0.96
	c0,0.1,0.1,0.1,0.12,0.1c0.1,0,0.11-0.01,0.17-0.23c0.17-0.7,0.37-1.18,0.72-1.18c0.16,0,0.31,0.08,0.31,0.46
	c0,0.21-0.03,0.32-0.16,0.83L121.26,57.44"/>
<path class="st3" d="M63.5,34.13c0.09-0.14,0.17-0.14,0.39-0.17c0.17-0.02,0.35-0.03,0.52-0.03h0.21v-0.47
	c-0.4,0.01-0.85,0.03-1.13,0.03c-0.39,0-0.94,0-1.31-0.03v0.47c0.23,0,0.5,0,0.75,0.1c-0.02,0.04-0.02,0.06-0.07,0.12L61,36.88
	l-2.02-2.95h0.84v-0.47c-0.41,0.03-1.37,0.03-1.82,0.03c-0.4,0-1.29,0-1.64-0.03v0.47h0.97l2.47,3.62v2.25h-1.07v0.47
	c0.36-0.03,1.33-0.03,1.75-0.03c0.43,0,1.38,0,1.76,0.03v-0.47h-1.08v-2.25L63.5,34.13"/>
<path class="st3" d="M65.63,40.96c-0.03,0.09-0.06,0.17-0.06,0.3c0,0.33,0.28,0.6,0.67,0.6c0.7,0,1.01-0.97,1.01-1.08
	c0-0.09-0.09-0.09-0.11-0.09c-0.1,0-0.11,0.04-0.13,0.12c-0.16,0.56-0.47,0.85-0.75,0.85c-0.14,0-0.17-0.09-0.17-0.25
	c0-0.16,0.05-0.3,0.11-0.45c0.07-0.19,0.15-0.38,0.23-0.56c0.06-0.17,0.32-0.81,0.34-0.89c0.02-0.07,0.04-0.15,0.04-0.22
	c0-0.33-0.28-0.6-0.67-0.6c-0.7,0-1.02,0.96-1.02,1.08c0,0.09,0.1,0.09,0.12,0.09c0.1,0,0.1-0.04,0.13-0.11
	c0.18-0.6,0.49-0.86,0.75-0.86c0.11,0,0.18,0.06,0.18,0.25c0,0.16-0.04,0.27-0.22,0.7L65.63,40.96 M67.06,37.39
	c0-0.11-0.08-0.27-0.28-0.27c-0.19,0-0.39,0.18-0.39,0.39c0,0.12,0.09,0.27,0.28,0.27C66.87,37.77,67.06,37.57,67.06,37.39z"/>
<path class="st3" d="M112.15,34.07c0.08-0.12,0.08-0.13,0.08-0.24c0-0.25-0.11-0.25-0.32-0.25h-5.11l-0.12,2.39h0.47
	c0.08-1.32,0.75-1.93,2.14-1.93h1.29l-3.97,5.83c-0.08,0.12-0.08,0.15-0.08,0.26c0,0.26,0.1,0.26,0.32,0.26h5.28l0.18-2.82h-0.47
	c-0.08,1.1-0.22,2.32-2.25,2.32h-1.39L112.15,34.07"/>
<path class="st3" d="M113.64,41.07c-0.03,0.09-0.06,0.17-0.06,0.3c0,0.33,0.28,0.6,0.67,0.6c0.7,0,1.01-0.97,1.01-1.08
	c0-0.09-0.09-0.09-0.11-0.09c-0.1,0-0.11,0.04-0.13,0.12c-0.16,0.56-0.47,0.85-0.75,0.85c-0.14,0-0.18-0.09-0.18-0.25
	c0-0.16,0.05-0.3,0.11-0.45c0.07-0.19,0.15-0.38,0.22-0.56c0.06-0.17,0.32-0.81,0.34-0.89c0.02-0.07,0.04-0.15,0.04-0.22
	c0-0.33-0.28-0.6-0.67-0.6c-0.7,0-1.02,0.96-1.02,1.08c0,0.09,0.1,0.09,0.12,0.09c0.1,0,0.1-0.04,0.13-0.11
	c0.18-0.6,0.49-0.86,0.75-0.86c0.11,0,0.18,0.06,0.18,0.25c0,0.16-0.04,0.27-0.22,0.7L113.64,41.07 M115.07,37.5
	c0-0.11-0.08-0.27-0.28-0.27c-0.19,0-0.39,0.18-0.39,0.39c0,0.12,0.09,0.27,0.28,0.27C114.88,37.89,115.07,37.69,115.07,37.5z"/>
</svg>
