<?xml version="1.0" encoding="utf-8"?>
<!-- Generator: Adobe Illustrator 26.0.2, SVG Export Plug-In . SVG Version: 6.00 Build 0)  -->
<svg version="1.1" id="Layer_1" xmlns="http://www.w3.org/2000/svg" xmlns:xlink="http://www.w3.org/1999/xlink" x="0px" y="0px"
	 viewBox="0 0 140.14 38.52" style="enable-background:new 0 0 140.14 38.52;" xml:space="preserve">
<style type="text/css">
	.st0{fill:#486AFB;}
	.st1{fill:#FD46FC;}
</style>
<g>
	<g>
		<path class="st0" d="M0.36,34.24c18.17,0.16,36.34,0.21,54.51,0.05c18.08-0.17,36.15-0.46,54.22-0.95
			c10.19-0.27,20.4-0.46,30.58-1.1c0.59-0.04,0.64-0.93,0.02-0.92c-9.08,0.1-18.16,0.51-27.24,0.77
			c-9.08,0.26-18.17,0.48-27.25,0.68c-18.08,0.39-36.15,0.61-54.23,0.69c-10.2,0.04-20.4,0.09-30.6,0.04
			C-0.11,33.48-0.14,34.24,0.36,34.24L0.36,34.24z"/>
	</g>
</g>
<g>
	<g>
		<path class="st0" d="M1.32,33.56c0.27-0.2,0.56-0.39,0.84-0.57c0.14-0.09,0.28-0.18,0.42-0.28c0.1-0.07,0.2-0.13,0.29-0.2
			C2.89,32.5,3,32.4,2.89,32.49c0.03-0.03,0.07-0.05,0.1-0.08c0.17-0.13,0.27-0.31,0.18-0.52c-0.08-0.19-0.29-0.3-0.49-0.24
			C2,31.87,1.38,32.24,0.8,32.67c-0.12,0.09-0.21,0.18-0.25,0.32c-0.03,0.12-0.02,0.29,0.05,0.4C0.74,33.6,1.08,33.74,1.32,33.56
			L1.32,33.56z"/>
	</g>
</g>
<g>
	<g>
		<path class="st0" d="M0.35,34.98c0.77,0.67,1.46,1.43,2.22,2.12c0.17,0.15,0.42,0.16,0.6,0.02c0.17-0.13,0.24-0.38,0.13-0.58
			c-0.54-0.92-1.3-1.7-2.09-2.41c-0.23-0.21-0.62-0.22-0.84,0.02C0.15,34.38,0.1,34.76,0.35,34.98L0.35,34.98z"/>
	</g>
</g>
<g>
	<g>
		<path class="st0" d="M139.21,30.71c-0.3-0.21-0.6-0.41-0.9-0.62c-0.15-0.1-0.29-0.2-0.44-0.3c-0.18-0.11-0.35-0.23-0.56-0.27
			c-0.15-0.03-0.3,0.02-0.4,0.14c-0.09,0.12-0.11,0.28-0.03,0.41c0.06,0.1,0.13,0.18,0.22,0.26c0.07,0.06,0.15,0.12,0.22,0.17
			c0.17,0.13,0.34,0.25,0.51,0.37c0.3,0.21,0.61,0.42,0.91,0.64c0.09,0.06,0.25,0.07,0.35,0.04c0.11-0.03,0.23-0.12,0.29-0.22
			C139.5,31.09,139.42,30.85,139.21,30.71L139.21,30.71z"/>
	</g>
</g>
<g>
	<g>
		<path class="st0" d="M138.26,32.19c-0.41,0.38-0.8,0.79-1.16,1.22c-0.2,0.24-0.4,0.5-0.58,0.76c-0.16,0.24-0.29,0.48-0.41,0.74
			c-0.11,0.24-0.09,0.51,0.14,0.68c0.21,0.15,0.53,0.14,0.71-0.06c0.19-0.2,0.37-0.4,0.54-0.61c0.17-0.21,0.35-0.42,0.54-0.63
			c0.36-0.42,0.76-0.81,1.17-1.18c0.26-0.23,0.27-0.71,0.01-0.94C138.94,31.92,138.54,31.94,138.26,32.19L138.26,32.19z"/>
	</g>
</g>
<g>
	<g>
		<path class="st1" d="M64.91,30.57c0.08,1.2,0.17,2.4,0.24,3.61c0.08,1.18,0.08,2.47,0.43,3.6c0.19,0.6,0.98,0.43,1.05-0.14
			c0.14-1.19-0.09-2.45-0.23-3.63c-0.14-1.19-0.27-2.39-0.41-3.58C65.93,29.8,64.87,29.96,64.91,30.57L64.91,30.57z"/>
	</g>
</g>
<g>
	<g>
		<path class="st1" d="M64.13,21.33c-0.79,0.67-1.49,1.79-1.44,2.87c0.03,0.59,0.29,1.14,0.85,1.4c0.6,0.27,1.3,0.2,1.93,0.11
			c1.07-0.15,2.43-0.54,2.77-1.71c0.3-1.04-0.3-2.12-1.24-2.59c-0.53-0.26-1.14-0.38-1.73-0.34c-0.32,0.02-0.65,0.08-0.97,0.17
			c-0.16,0.05-0.32,0.11-0.48,0.17c-0.2,0.08-0.34,0.19-0.49,0.33c-0.14,0.13-0.15,0.36-0.04,0.51c0.13,0.17,0.32,0.17,0.51,0.09
			c0.42-0.18,0.79-0.41,1.26-0.48c0.4-0.06,0.82-0.04,1.21,0.09c0.68,0.22,1.26,0.82,1.16,1.58c-0.11,0.81-1.07,0.99-1.74,1.1
			c-0.45,0.07-0.94,0.1-1.39,0.04c-0.36-0.04-0.48-0.2-0.54-0.48c-0.07-0.34,0.05-0.79,0.2-1.15c0.18-0.42,0.46-0.8,0.79-1.12
			c0.17-0.16,0.17-0.45,0-0.61C64.58,21.14,64.31,21.18,64.13,21.33L64.13,21.33z"/>
	</g>
</g>
<g>
	<g>
		<path class="st1" d="M63.69,24c0.58-0.02,1.15-0.02,1.73,0.01c0.57,0.03,1.14,0.13,1.72,0.14c0.35,0.01,0.43-0.51,0.09-0.6
			c-0.57-0.16-1.18-0.18-1.76-0.21c-0.59-0.03-1.17-0.02-1.76,0.01C63.29,23.38,63.26,24.02,63.69,24L63.69,24z"/>
	</g>
</g>
<g>
	<g>
		<path class="st1" d="M64.35,19.43c0.17,0,0.18-0.26,0.01-0.26C64.19,19.17,64.18,19.43,64.35,19.43L64.35,19.43z"/>
	</g>
</g>
<g>
	<g>
		<path class="st1" d="M64.59,19.82c0.24-0.34,0.49-0.68,0.73-1.01c0.06-0.08,0.12-0.16,0.18-0.24c0.03-0.04,0.07-0.09,0.1-0.13
			c0.09-0.12-0.08,0.08,0,0c-0.14,0.13-0.36,0.15-0.51,0.04c-0.04-0.03-0.14-0.16-0.07-0.05c0.02,0.04,0.02,0.03,0-0.01
			c-0.02-0.05-0.02-0.05-0.01-0.01c0.01,0.03,0.02,0.07,0.02,0.1c0.07,0.35,0.18,0.7,0.38,1.01c0.1,0.17,0.22,0.33,0.36,0.46
			c0.08,0.08,0.18,0.18,0.28,0.23c0.1,0.05,0.21,0.09,0.32,0.13c0.18,0.06,0.4-0.04,0.51-0.18c0.11-0.14,0.15-0.36,0.04-0.52
			c-0.07-0.11-0.13-0.22-0.22-0.32c-0.01-0.01-0.09-0.11-0.1-0.11c0.01,0,0.09,0.11,0,0c-0.11-0.15-0.21-0.3-0.29-0.46
			c-0.02-0.04-0.04-0.09-0.06-0.13c-0.02-0.06-0.02-0.04,0.01,0.04c-0.01-0.02-0.02-0.05-0.03-0.07c-0.03-0.08-0.05-0.16-0.07-0.25
			c-0.06-0.23-0.12-0.44-0.28-0.63c-0.22-0.25-0.6-0.3-0.88-0.13c-0.24,0.14-0.36,0.41-0.5,0.64c-0.24,0.39-0.5,0.77-0.75,1.16
			c-0.14,0.21-0.06,0.54,0.17,0.65C64.17,20.13,64.43,20.04,64.59,19.82L64.59,19.82z"/>
	</g>
</g>
<g>
	<g>
		<path class="st1" d="M32.22,31.38c0.06,1.12,0.09,2.24,0.08,3.37c0,1.12-0.1,2.25-0.02,3.36c0.03,0.45,0.73,0.59,0.83,0.1
			c0.24-1.11,0.25-2.27,0.29-3.41c0.03-1.14,0.04-2.29,0.01-3.43C33.39,30.61,32.18,30.64,32.22,31.38L32.22,31.38z"/>
	</g>
</g>
<g>
	<g>
		<path class="st1" d="M31.75,23.1c-0.39,0.9-0.76,1.89-0.29,2.84c0.43,0.88,1.48,1.09,2.36,0.96c0.82-0.12,1.65-0.6,1.91-1.43
			c0.28-0.89-0.23-1.82-0.87-2.41c-0.74-0.68-1.99-1.26-2.96-0.72c-0.32,0.18-0.22,0.75,0.18,0.71c0.34-0.03,0.66-0.05,0.99,0.04
			c0.34,0.09,0.65,0.24,0.93,0.44c0.47,0.33,0.96,0.9,0.94,1.51c-0.02,0.57-0.55,0.88-1.06,1c-0.5,0.12-1.23,0.11-1.58-0.35
			c-0.5-0.68-0.09-1.61,0.18-2.29C32.66,22.97,31.93,22.69,31.75,23.1L31.75,23.1z"/>
	</g>
</g>
<g>
	<g>
		<path class="st1" d="M32.49,25.01c0.28,0,0.56,0,0.84-0.01c0.28,0,0.56-0.02,0.84-0.04c0.17-0.01,0.33-0.14,0.33-0.32
			c0-0.18-0.14-0.31-0.32-0.32c-0.28-0.02-0.56-0.04-0.84-0.04c-0.28,0-0.56,0-0.84-0.01c-0.19,0-0.38,0.17-0.38,0.37
			C32.13,24.85,32.28,25.01,32.49,25.01L32.49,25.01z"/>
	</g>
</g>
<g>
	<g>
		<path class="st1" d="M54.32,10.38c0.35,0.16,0.72,0.32,1.11,0.31c0.32-0.01,0.64-0.14,0.85-0.39c0.23-0.27,0.29-0.64,0.11-0.95
			c-0.16-0.3-0.46-0.49-0.8-0.53c-1.4-0.14-2.29,1.7-1.51,2.79c0.45,0.62,1.25,0.98,2.01,0.74c0.19-0.06,0.32-0.23,0.3-0.43
			c-0.02-0.18-0.19-0.36-0.38-0.34c-0.05,0.01-0.1,0.01-0.15,0.01c-0.02,0-0.17-0.01-0.08,0c-0.11-0.01-0.22-0.03-0.33-0.06
			c-0.03-0.01-0.05-0.01-0.08-0.02c-0.01,0-0.09-0.03-0.04-0.01c0.05,0.02-0.03-0.01-0.04-0.02c-0.02-0.01-0.05-0.02-0.07-0.03
			c-0.04-0.02-0.08-0.04-0.12-0.07c-0.02-0.01-0.04-0.03-0.07-0.04c0.07,0.05-0.03-0.02-0.03-0.03c-0.04-0.03-0.08-0.07-0.11-0.11
			c-0.02-0.02-0.1-0.13-0.05-0.06c-0.06-0.09-0.11-0.18-0.16-0.27c-0.04-0.07-0.01-0.02,0,0c-0.01-0.02-0.02-0.05-0.02-0.07
			c-0.01-0.05-0.02-0.1-0.04-0.15c-0.02-0.07-0.01-0.03,0-0.01c0-0.03,0-0.05-0.01-0.08c0-0.06,0-0.12,0-0.17
			c0.01-0.15,0.07-0.35,0.15-0.5c0.09-0.16,0.2-0.29,0.35-0.38c0.19-0.12,0.42-0.19,0.62-0.08c0.14,0.07,0.26,0.22,0.2,0.39
			c-0.06,0.17-0.28,0.25-0.43,0.27c-0.3,0.03-0.59-0.11-0.85-0.23c-0.16-0.07-0.34-0.03-0.43,0.12
			C54.13,10.09,54.16,10.31,54.32,10.38L54.32,10.38z"/>
	</g>
</g>
<g>
	<g>
		<path class="st1" d="M58.98,8.61c-0.76,0.2-1.24,1.03-1.04,1.79c0.05,0.19,0.17,0.35,0.19,0.55c0-0.03-0.01,0.07-0.01,0.07
			c0.01-0.06-0.02,0.05-0.03,0.06c0.03-0.06-0.03,0.04-0.04,0.05c-0.03,0.04-0.03,0.05-0.01,0.02c-0.01,0.02-0.03,0.03-0.04,0.05
			c-0.09,0.1-0.23,0.17-0.38,0.22c-0.21,0.06-0.42,0.11-0.63,0.18c-0.17,0.05-0.29,0.21-0.26,0.38c0.02,0.18,0.16,0.28,0.34,0.3
			c0.47,0.05,0.97-0.01,1.35-0.31c0.37-0.28,0.62-0.76,0.48-1.23c-0.05-0.18-0.2-0.4-0.24-0.53c-0.04-0.12-0.03-0.2,0.01-0.35
			c0-0.01,0.04-0.11,0.02-0.05c0.02-0.04,0.04-0.08,0.06-0.12c0.01-0.01,0.09-0.11,0.04-0.06c0.02-0.03,0.05-0.06,0.08-0.08
			c0.01-0.01,0.1-0.08,0.03-0.03C58.94,9.5,58.97,9.48,59,9.46c0.03-0.01,0.1-0.04,0.03-0.02c0.05-0.02,0.1-0.03,0.15-0.04
			c0.22-0.04,0.36-0.3,0.31-0.51C59.43,8.68,59.19,8.56,58.98,8.61L58.98,8.61z"/>
	</g>
</g>
<g>
	<g>
		<path class="st1" d="M60.26,8.48c0.04,0.61,0.07,1.22,0.12,1.82c0.05,0.62,0.08,1.25,0.24,1.86c0.05,0.18,0.22,0.31,0.41,0.31
			c0.17,0,0.39-0.13,0.42-0.32c0.1-0.62,0.09-1.24,0.08-1.86c-0.01-0.61-0.03-1.22-0.05-1.83c-0.01-0.32-0.26-0.61-0.6-0.6
			C60.58,7.89,60.24,8.14,60.26,8.48L60.26,8.48z"/>
	</g>
</g>
<g>
	<g>
		<path class="st1" d="M60.22,10.8c0.64-0.03,1.27-0.06,1.9-0.14c0.2-0.03,0.37-0.14,0.4-0.35c0.03-0.18-0.09-0.41-0.29-0.43
			c-0.66-0.09-1.32-0.13-1.99-0.15c-0.28-0.01-0.57,0.26-0.56,0.54C59.69,10.55,59.92,10.81,60.22,10.8L60.22,10.8z"/>
	</g>
</g>
<g>
	<g>
		<path class="st1" d="M62.68,10.92c0.02,0.14,0.05,0.28,0.07,0.42c0.01,0.07,0.03,0.13,0.05,0.2c0.02,0.07,0.04,0.14,0.07,0.2
			c0.03,0.1,0.1,0.21,0.2,0.26c0.09,0.04,0.17,0.06,0.27,0.05c0.22-0.03,0.37-0.2,0.39-0.42c0-0.07,0.01-0.14,0.01-0.21
			c0-0.07,0-0.14,0-0.21c-0.01-0.14-0.02-0.28-0.03-0.42c0-0.09-0.02-0.18-0.07-0.25c-0.03-0.04-0.06-0.07-0.08-0.11
			c-0.06-0.06-0.14-0.1-0.23-0.12c-0.07-0.02-0.13-0.02-0.2-0.01c-0.14,0.02-0.26,0.09-0.35,0.2c-0.05,0.05-0.08,0.11-0.09,0.17
			C62.66,10.75,62.66,10.83,62.68,10.92L62.68,10.92z"/>
	</g>
</g>
<g>
	<g>
		<path class="st1" d="M63.17,9.02c0.17,0,0.18-0.26,0.01-0.26C63.01,8.76,63,9.02,63.17,9.02L63.17,9.02z"/>
	</g>
</g>
<g>
	<g>
		<path class="st1" d="M63.59,9.17c0.02-0.04,0.04-0.08,0.05-0.12c0.01-0.04,0.01-0.07,0.02-0.11c0-0.01,0-0.01,0-0.02
			c0-0.04,0-0.09-0.02-0.13c-0.01-0.04-0.03-0.09-0.05-0.13c0.01,0.03,0.03,0.06,0.04,0.09c-0.01-0.04-0.03-0.08-0.05-0.11
			c0,0,0,0,0,0c-0.02-0.03-0.04-0.05-0.06-0.08c-0.04-0.04-0.08-0.06-0.12-0.08c-0.01-0.01-0.03-0.01-0.05-0.02
			c-0.03-0.01-0.07-0.01-0.1-0.01c-0.03,0-0.07,0.01-0.1,0.01c0,0-0.01,0-0.01,0c0,0-0.01,0-0.01,0c-0.03,0.01-0.06,0.03-0.09,0.04
			c-0.02,0.02-0.05,0.04-0.07,0.06c-0.03,0.03-0.06,0.07-0.07,0.11c-0.01,0.03-0.02,0.05-0.02,0.08c-0.01,0.04-0.01,0.09,0,0.13
			c0,0,0,0.01,0,0.01c0-0.03-0.01-0.06-0.01-0.09c0,0.01,0,0.02,0,0.02c0-0.03,0.01-0.06,0.01-0.1c0,0,0,0,0,0
			c-0.02,0.11-0.02,0.07-0.01,0.15c0,0.03,0.01,0.07,0.02,0.1C62.9,9,62.91,9.03,62.94,9.05c0.03,0.03,0.02,0.03,0.04,0.04
			c0.01,0.01,0.01,0.01,0.02,0.02c-0.02-0.03-0.04-0.05-0.06-0.08c0.01,0.01,0.01,0.02,0.01,0.03C62.93,9.03,62.92,9,62.91,8.97
			c0.01,0.01,0.01,0.03,0.01,0.04c0-0.03-0.01-0.06-0.01-0.1c0,0.01,0,0.02,0,0.04c0-0.03,0.01-0.06,0.01-0.09
			c0,0.01,0,0.02-0.01,0.03c0.01-0.03,0.03-0.06,0.04-0.09c0,0,0,0,0,0.01C62.92,8.85,62.9,8.9,62.9,8.95
			c-0.01,0.05-0.01,0.09,0,0.14c0.01,0.05,0.03,0.09,0.07,0.13c0.03,0.04,0.06,0.07,0.11,0.1c0.03,0.01,0.06,0.02,0.09,0.03
			c0.06,0.02,0.13,0.02,0.19,0c0.03-0.01,0.06-0.03,0.09-0.04C63.51,9.27,63.56,9.23,63.59,9.17L63.59,9.17z"/>
	</g>
</g>
<g>
	<g>
		<path class="st1" d="M64.53,11.14c-0.04-0.08-0.04-0.17-0.01-0.24c0.01-0.04,0.04-0.08,0.06-0.1c0.01-0.01,0.06-0.05,0.02-0.03
			c0,0,0.09-0.05,0.04-0.03c0.06-0.03,0.12,0,0.16,0.03c0.01,0.01,0.07,0.09,0.04,0.04c0,0.01,0.06,0.09,0.03,0.06
			c-0.02-0.04,0.01,0.08,0,0c0,0.02-0.01,0.12,0.01,0.05c-0.04,0.18,0.02,0.36,0.19,0.46c0.15,0.08,0.39,0.06,0.5-0.08
			c0.09-0.11,0.18-0.22,0.28-0.32c0.02-0.03,0.09-0.09,0.09-0.09c0.04-0.03,0.11-0.07,0.12-0.08c0.03-0.01,0.07-0.02,0.1-0.03
			c0.02-0.01,0.06,0,0.02,0c0.03,0,0.05,0,0.08,0c-0.08-0.01,0.04,0.02,0,0c-0.03-0.02,0.04,0.02,0.05,0.02
			c0.03,0.01,0.05,0.03,0.08,0.05c-0.03-0.02-0.04-0.04-0.01,0c0.01,0.01,0.07,0.09,0.03,0.03c-0.03-0.05,0.01,0.01,0.01,0.02
			c0.01,0.02,0.02,0.04,0.03,0.06c0.03,0.05,0.03,0.06,0.01,0c0.01,0.02,0.02,0.05,0.02,0.07c0.04,0.11,0.06,0.22,0.1,0.33
			c0.09,0.29,0.2,0.59,0.48,0.74c0.25,0.13,0.61-0.04,0.6-0.34c-0.01-0.28-0.12-0.56-0.21-0.82c-0.11-0.32-0.26-0.63-0.55-0.82
			c-0.33-0.22-0.74-0.19-1.08-0.01c-0.31,0.16-0.61,0.38-0.83,0.64c0.23,0.13,0.46,0.26,0.69,0.38c0.07-0.33-0.04-0.64-0.31-0.85
			c-0.24-0.19-0.56-0.27-0.86-0.16c-0.51,0.2-0.71,0.84-0.45,1.31C64.22,11.7,64.68,11.44,64.53,11.14L64.53,11.14z"/>
	</g>
</g>
<g>
	<g>
		<path class="st1" d="M69.89,10.28c-0.24-0.26-0.61-0.34-0.94-0.29c-0.37,0.06-0.66,0.32-0.8,0.66c-0.12,0.31-0.07,0.7,0.12,0.97
			c0.25,0.35,0.64,0.5,1.06,0.42c0.2-0.04,0.38-0.14,0.53-0.28c0.07-0.06,0.13-0.14,0.18-0.22c0.01-0.01,0.02-0.02,0.02-0.03
			c0.01-0.01,0.01-0.02,0.02-0.03c0.01-0.02,0.01-0.02-0.01,0.01c0,0-0.03,0.04,0,0c0.07-0.09,0.09-0.11,0.05-0.06
			c-0.02,0.03-0.02,0.03,0,0.01c-0.21,0-0.42,0.01-0.63,0.01c0.29,0.31,0.66,0.59,1.05,0.76c0.19,0.08,0.4,0.05,0.54-0.12
			c0.13-0.17,0.1-0.37-0.03-0.54c-0.07-0.09-0.13-0.17-0.22-0.24c-0.07-0.06-0.14-0.12-0.22-0.18c-0.18-0.14-0.37-0.28-0.57-0.38
			c-0.33-0.18-0.75,0.13-0.66,0.5c0.01,0.04,0.01,0.03,0-0.04c0,0.02,0,0.03,0,0.05c0.02-0.06,0.04-0.13,0.05-0.19
			c-0.01,0.03-0.03,0.05-0.05,0.08c-0.02,0.02-0.01,0.01,0.02-0.03c-0.01,0.01-0.03,0.02-0.04,0.04c0-0.01,0.09-0.06,0-0.01
			c-0.01,0-0.07,0.03-0.07,0.04c0.06-0.03,0.07-0.03,0.03-0.01c-0.01,0-0.03,0.01-0.04,0.01c-0.01,0-0.03,0.01-0.04,0.01
			c-0.05,0.01-0.04,0.01,0.03,0c-0.01-0.01-0.07,0-0.08,0c-0.08,0,0.09,0.02,0.01,0c-0.03-0.01-0.05-0.01-0.08-0.02
			c-0.08-0.02,0.09,0.05,0,0c-0.1-0.05,0.06,0.06,0,0c-0.02-0.02-0.04-0.04-0.06-0.05c-0.07-0.06,0.06,0.09,0.01,0.02
			c-0.02-0.03-0.03-0.05-0.05-0.08c-0.06-0.09,0.02,0.09,0,0.01c-0.01-0.03-0.01-0.05-0.02-0.08c0-0.01-0.01-0.07-0.02-0.08
			C69,10.97,69,10.98,69,10.93c0-0.01,0-0.02,0-0.03c0-0.01,0.01-0.13,0-0.05c-0.01,0.08,0.01-0.03,0.02-0.04
			c0.02-0.08-0.05,0.07,0,0.01c0.06-0.08,0,0-0.01,0c-0.01,0,0.11-0.08,0.03-0.04c-0.07,0.04,0.03-0.02,0.04-0.02
			c0.01,0,0.02-0.01,0.02-0.01c0.04-0.02,0.03-0.02-0.03,0.01c0,0,0.07-0.02,0.08-0.02c0.09-0.02,0-0.01,0,0c0-0.01,0.09,0,0.11,0
			c0.07,0-0.07-0.02,0.01,0c0.01,0,0.07,0.01,0.08,0.02c-0.05-0.02-0.05-0.02-0.02,0c0.01,0,0.02,0.01,0.02,0.01
			c0.02,0.01,0.03,0.02,0.04,0.03c-0.04-0.03-0.04-0.03-0.01-0.01c0.14,0.12,0.38,0.14,0.51-0.01
			C70.03,10.63,70.03,10.43,69.89,10.28L69.89,10.28z"/>
	</g>
</g>
<g>
	<g>
		<path class="st1" d="M71.31,9.37c0.17,0.73,0.34,1.46,0.57,2.17c0.07,0.22,0.26,0.35,0.5,0.32c0.21-0.03,0.42-0.22,0.41-0.45
			c-0.04-0.79-0.17-1.58-0.28-2.37c-0.02-0.15-0.16-0.3-0.29-0.37c-0.13-0.07-0.32-0.1-0.46-0.05C71.44,8.72,71.23,9.03,71.31,9.37
			L71.31,9.37z"/>
	</g>
</g>
<g>
	<g>
		<path class="st1" d="M71.8,10.02c0.53-0.04,1.05-0.08,1.58-0.13c0.13-0.01,0.27-0.11,0.27-0.26c0-0.14-0.11-0.26-0.26-0.25
			c-0.53,0.01-1.05,0.05-1.58,0.08c-0.15,0.01-0.3,0.12-0.29,0.28C71.52,9.88,71.64,10.03,71.8,10.02L71.8,10.02z"/>
	</g>
</g>
<g>
	<g>
		<path class="st1" d="M74.32,11.29c0.59,0.39,1.48,0.44,2.06-0.01c0.48-0.38,0.77-1.2,0.17-1.62c-0.58-0.41-1.38,0.06-1.7,0.59
			c-0.32,0.54-0.38,1.23-0.16,1.81c0.13,0.35,0.33,0.71,0.61,0.95c0.33,0.28,0.71,0.44,1.14,0.45c0.2,0,0.4-0.15,0.46-0.34
			c0.05-0.18-0.03-0.43-0.21-0.51c-0.1-0.04-0.18-0.1-0.27-0.15c-0.05-0.03-0.1-0.05-0.14-0.08c-0.01-0.01-0.05-0.03-0.06-0.04
			c0.02,0.01,0.03,0.03,0.05,0.04c-0.02-0.02-0.04-0.03-0.06-0.05c-0.08-0.06-0.15-0.13-0.22-0.2c-0.04-0.03-0.07-0.07-0.1-0.11
			c-0.01-0.01-0.09-0.1-0.03-0.03c0.06,0.06-0.01-0.02-0.02-0.03c-0.06-0.09-0.12-0.18-0.16-0.27c-0.01-0.02-0.04-0.06-0.04-0.08
			c0,0.01,0.04,0.12,0.01,0.02c-0.02-0.06-0.04-0.12-0.06-0.18c-0.03-0.1-0.06-0.19-0.07-0.29c0-0.02-0.01-0.05-0.01-0.07
			c0.01,0.1,0,0.03,0,0.01c0-0.06,0-0.12,0-0.18c0-0.02,0-0.05,0-0.07c0,0,0.02-0.11,0.01-0.06c-0.01,0.05,0.01-0.03,0.01-0.04
			c0.01-0.02,0.01-0.05,0.02-0.07c0.01-0.02,0.05-0.15,0.03-0.1c0.03-0.06,0.06-0.12,0.1-0.17c-0.02,0.03,0.06-0.07,0.07-0.08
			c0.01-0.01,0.1-0.09,0.08-0.07c0.09-0.07,0.16-0.11,0.26-0.13c0.12-0.03,0.28,0.05,0.3,0.22c0.03,0.18-0.08,0.36-0.2,0.48
			c-0.42,0.43-1.15,0.39-1.62,0.09C74.31,10.75,74.08,11.13,74.32,11.29L74.32,11.29z"/>
	</g>
</g>
<g>
	<g>
		<path class="st1" d="M56.81,2.26c0.04,0.84,0.04,1.68-0.03,2.52c-0.03,0.41-0.07,0.82-0.13,1.23c-0.05,0.39-0.21,0.85-0.14,1.23
			c0.04,0.21,0.33,0.21,0.43,0.05c0.2-0.34,0.21-0.85,0.25-1.24c0.05-0.41,0.09-0.82,0.12-1.23c0.06-0.86,0.06-1.71,0.01-2.57
			C57.3,1.92,56.79,1.93,56.81,2.26L56.81,2.26z"/>
	</g>
</g>
<g>
	<g>
		<path class="st1" d="M57.59,1.46c0.39-0.28,0.8,0.06,0.95,0.44c0.15,0.38,0.15,0.83,0.03,1.22c-0.24,0.79-0.89,1.38-1.68,1.61
			c-0.32,0.09-0.29,0.59,0.07,0.59c1.21-0.01,2.25-1.08,2.46-2.23c0.12-0.63,0.03-1.31-0.36-1.83c-0.41-0.54-1.22-0.83-1.82-0.39
			c-0.15,0.11-0.24,0.3-0.14,0.48C57.2,1.49,57.43,1.57,57.59,1.46L57.59,1.46z"/>
	</g>
</g>
<g>
	<g>
		<path class="st1" d="M61.19,1.26c-0.68,0.1-1.1,0.76-1.16,1.4c-0.07,0.69,0.38,1.33,1.01,1.59c0.72,0.29,1.54,0.19,2.14-0.29
			c0.31-0.25,0.52-0.63,0.52-1.03c0-0.35-0.14-0.7-0.35-0.98c-0.27-0.36-0.65-0.59-1.09-0.71c-0.47-0.13-0.94-0.11-1.42-0.04
			c-0.15,0.02-0.25,0.2-0.23,0.34c0.02,0.16,0.14,0.26,0.3,0.26c0.31,0.02,0.62,0.03,0.92,0.08c0.14,0.02,0.3,0.06,0.41,0.1
			c0.07,0.03,0.13,0.06,0.19,0.09c0.03,0.02,0.07,0.04,0.1,0.06c0.06,0.04-0.01-0.01,0.04,0.03c0.11,0.1,0.17,0.16,0.23,0.25
			c0.03,0.05,0.06,0.1,0.08,0.16c-0.03-0.06,0.01,0.04,0.02,0.05c0.01,0.03,0.02,0.07,0.03,0.1c0,0,0.02,0.12,0.01,0.05
			c0,0.03,0,0.07,0,0.1c0,0.02,0,0.05,0,0.07c-0.01,0.1,0.02-0.05-0.01,0.04c-0.01,0.03-0.02,0.06-0.02,0.08
			c-0.02,0.06,0.04-0.07-0.01,0.02c-0.02,0.03-0.04,0.07-0.06,0.1c0.04-0.05-0.03,0.04-0.04,0.04c-0.03,0.03-0.06,0.05-0.09,0.08
			c-0.09,0.08,0.06-0.03-0.04,0.03c-0.06,0.03-0.11,0.07-0.17,0.1c-0.03,0.01-0.06,0.03-0.09,0.04c-0.06,0.03,0.1-0.03-0.01,0
			c-0.07,0.02-0.13,0.05-0.2,0.06c-0.03,0.01-0.07,0.01-0.1,0.02c-0.11,0.02,0.08,0-0.03,0c-0.06,0-0.12,0.01-0.18,0.01
			c-0.06,0-0.12,0-0.18,0c-0.11,0,0.08,0.02-0.03,0c-0.03-0.01-0.07-0.01-0.1-0.02c-0.07-0.01-0.13-0.04-0.2-0.06
			c0.02,0.01,0.07,0.03,0,0c-0.03-0.01-0.06-0.03-0.09-0.04c-0.05-0.03-0.1-0.06-0.15-0.09c0.08,0.05-0.01-0.01-0.02-0.02
			c-0.03-0.02-0.05-0.05-0.07-0.07c-0.02-0.02-0.05-0.05-0.07-0.08c0.05,0.06,0.01,0.01-0.01-0.01c-0.03-0.05-0.05-0.1-0.08-0.15
			c0.05,0.1-0.01-0.04-0.02-0.07c-0.01-0.03-0.01-0.06-0.02-0.09c-0.02-0.09,0,0.08,0-0.02c0-0.06,0-0.12,0-0.18
			c0-0.02,0.02-0.12,0-0.02c0.01-0.04,0.02-0.08,0.03-0.12c0.01-0.02,0.01-0.04,0.02-0.06c0.01-0.02,0.06-0.14,0.01-0.04
			c0.03-0.05,0.05-0.11,0.09-0.16c0-0.01,0.05-0.09,0.02-0.03c-0.03,0.05,0.03-0.04,0.04-0.05c0.02-0.02,0.04-0.04,0.06-0.06
			c0.06-0.06-0.08,0.04,0,0c0.02-0.02,0.05-0.03,0.07-0.05c0.08-0.04,0.01-0.03,0-0.01c0.01-0.03,0.17-0.05,0.2-0.05
			c0.21-0.03,0.36-0.31,0.3-0.5C61.62,1.31,61.41,1.23,61.19,1.26L61.19,1.26z"/>
	</g>
</g>
<g>
	<g>
		<path class="st1" d="M64.56,2.5c0.01,0.31,0.01,0.62,0.02,0.92c0.01,0.15,0.01,0.3,0.02,0.45c0.01,0.18,0.04,0.35,0.06,0.53
			c0.02,0.19,0.24,0.29,0.41,0.27c0.2-0.03,0.31-0.18,0.34-0.37c0.08-0.6,0.08-1.2,0.09-1.81c0-0.24-0.21-0.47-0.46-0.46
			C64.79,2.04,64.55,2.24,64.56,2.5L64.56,2.5z"/>
	</g>
</g>
<g>
	<g>
		<path class="st1" d="M64.93,0.47C64.93,0.47,64.93,0.47,64.93,0.47c0.01-0.02,0.04-0.04,0.04-0.06c0,0,0,0,0,0c0,0,0,0,0,0
			c0,0,0,0,0,0C64.98,0.4,65,0.35,65,0.34c0.01-0.05,0.01-0.09,0-0.14c0,0-0.02-0.06-0.03-0.06c0,0,0,0,0,0c0,0,0,0,0,0
			c0,0-0.04-0.05-0.04-0.05c0,0,0,0,0,0c-0.01-0.01-0.02-0.02-0.03-0.02c-0.04-0.03-0.05-0.03-0.1-0.05c0,0-0.01,0-0.01,0
			C64.77,0,64.74,0,64.72,0c-0.01,0-0.01,0-0.02,0c-0.03,0-0.06,0-0.09,0.01c0,0,0,0,0,0c0,0,0,0,0,0c-0.01,0-0.06,0.02-0.07,0.03
			c-0.02,0.01-0.05,0.03-0.07,0.05c0,0,0,0,0,0c-0.01,0.01-0.04,0.05-0.04,0.06c0,0,0,0,0,0c0,0,0,0,0,0c0,0.01-0.03,0.06-0.03,0.06
			c0,0,0,0,0,0c0.01-0.03-0.01,0.05-0.01,0.07c0,0.01,0.01,0.07,0,0.03c0-0.01,0,0.02,0,0.04c0,0,0,0,0,0c0,0,0.02,0.06,0.03,0.07
			c0,0,0,0,0,0c0.01,0.02,0.03,0.04,0.04,0.06c0.02,0.03,0.05,0.04,0.09,0.05c0.02,0.01,0.04,0.02,0.07,0.02
			c0.03,0.01,0.07,0.01,0.1-0.01c0.04-0.01,0.09-0.04,0.12-0.07c0.01-0.02,0.03-0.04,0.04-0.06c0.02-0.03,0.03-0.06,0.03-0.1
			c0.01-0.02,0.01-0.04,0-0.07c0-0.04-0.01-0.07-0.03-0.1c0,0,0,0,0,0c0.01,0.02,0.02,0.04,0.03,0.07c0,0,0,0,0-0.01
			c0,0.02,0.01,0.05,0.01,0.07c0,0,0,0,0,0c0,0.02-0.01,0.04-0.01,0.07c0,0,0,0,0,0c-0.01,0.02-0.02,0.04-0.03,0.06c0,0,0,0,0,0
			c-0.01,0.02-0.03,0.04-0.04,0.06c0,0,0,0,0.01-0.01c-0.02,0.01-0.04,0.03-0.06,0.04c0.02-0.02,0.05-0.03,0.07-0.05
			c-0.02,0.01-0.04,0.03-0.06,0.04c0.01,0,0.01-0.01,0.02-0.01C64.8,0.5,64.78,0.5,64.76,0.51c0.01,0,0.02-0.01,0.03-0.01
			c-0.02,0-0.04,0.01-0.07,0.01c0.01,0,0.01,0,0.02,0c-0.02,0-0.04-0.01-0.07-0.01c0,0,0.01,0,0.01,0
			c-0.02-0.01-0.04-0.02-0.06-0.02c0,0,0,0,0.01,0c-0.02-0.01-0.03-0.03-0.05-0.04c0,0,0,0,0,0c-0.01-0.02-0.03-0.04-0.04-0.05
			c0,0,0,0,0,0c-0.01-0.02-0.02-0.04-0.02-0.06c0,0,0,0,0,0.01c0-0.02,0-0.04-0.01-0.06c0,0,0,0,0,0.01c0-0.02,0.01-0.04,0.01-0.06
			c0,0,0,0.01,0,0.01c0.01-0.02,0.02-0.04,0.03-0.06c0,0,0,0,0,0c-0.02,0.03-0.03,0.06-0.03,0.09c-0.01,0.03-0.01,0.06,0,0.09
			c0.01,0.02,0.02,0.04,0.02,0.06c0.02,0.03,0.04,0.05,0.07,0.07c0.02,0.01,0.03,0.02,0.05,0.03c0.03,0.01,0.06,0.02,0.09,0.02
			c0.02,0,0.04-0.01,0.06-0.01C64.86,0.53,64.89,0.5,64.93,0.47L64.93,0.47z"/>
	</g>
</g>
<g>
	<g>
		<path class="st1" d="M66.35,3.94c0.01-0.04,0.02-0.08,0.03-0.11c0.04-0.04,0.08-0.08,0.13-0.13c0.03-0.02,0.18-0.03,0.22-0.02
			c0.04,0.01,0.01,0.01,0,0c0.06,0.03,0.02,0.02,0.01,0.01c0,0,0.03,0.05,0.01,0.02c-0.02-0.03,0.01,0.03,0.01,0.03
			c0-0.02-0.01-0.04-0.01-0.05c0-0.02-0.01-0.05-0.01-0.07c-0.01-0.06,0,0.04,0-0.02c-0.01-0.17,0-0.27,0.05-0.42
			c0.01-0.03,0.02-0.07,0.03-0.1c0.01-0.02,0.01-0.03,0.02-0.05c0.02-0.06-0.02,0.04,0.01-0.02c0.03-0.08,0.07-0.15,0.12-0.22
			c0.01-0.01,0.02-0.03,0.03-0.04c0,0,0.04-0.05,0.01-0.02c-0.01,0.01,0.05-0.06,0.06-0.07c0.02-0.03,0.05-0.05,0.08-0.08
			c0.01-0.01,0.03-0.02,0.04-0.04c0.01-0.01,0.08-0.05,0.02-0.02c0.03-0.02,0.06-0.04,0.09-0.06c0.06-0.04-0.03,0.01,0.04-0.02
			c0.01,0,0.07-0.02,0.01-0.01c0.01,0,0.03,0,0.05,0c0.01,0,0.03,0,0.04,0c-0.03,0-0.05-0.01-0.01,0c0.02,0.01,0.04,0.01,0.05,0.02
			c-0.01,0-0.05-0.03-0.03-0.01c0.02,0.02,0.05,0.03,0.07,0.04c0.04,0.02-0.02-0.01-0.02-0.02c0.01,0.01,0.03,0.03,0.04,0.04
			c0.01,0.01,0.08,0.09,0.05,0.05c-0.03-0.04,0.03,0.05,0.04,0.06c0.02,0.03,0.03,0.05,0.05,0.08c0.02,0.03,0.03,0.09,0.01,0.02
			c0.01,0.04,0.03,0.08,0.04,0.12c0.01,0.03,0.02,0.06,0.02,0.09c0,0.02,0.01,0.04,0.01,0.06c0,0.01,0,0.06,0,0.01
			c0-0.05,0,0.05,0,0.07c0,0.06,0,0.11,0,0.17c0,0.47-0.04,0.93,0.21,1.35c0.21,0.35,0.76,0.11,0.67-0.28
			c-0.01-0.03-0.01-0.05-0.02-0.08c-0.02-0.13,0,0.03,0-0.04c0-0.04-0.01-0.07-0.01-0.11c-0.02-0.16,0,0.07-0.01-0.07
			c-0.01-0.13,0-0.25,0-0.37c0.01-0.26,0.02-0.52-0.02-0.78c-0.06-0.42-0.32-0.87-0.7-1.07c-0.49-0.24-1.01-0.02-1.34,0.37
			c-0.3,0.37-0.49,0.83-0.48,1.3c0,0.26,0.02,0.55,0.23,0.73c0.11,0.09,0.25,0.15,0.39,0.13c0.21-0.03,0.33-0.19,0.35-0.39
			c0.02-0.18-0.16-0.33-0.33-0.33C66.51,3.6,66.37,3.75,66.35,3.94L66.35,3.94z"/>
	</g>
</g>
<g>
	<g>
		<path class="st1" d="M69.99,0.93c0.02,1.2,0.03,2.4,0.18,3.59c0.02,0.19,0.25,0.3,0.42,0.28c0.21-0.03,0.32-0.18,0.35-0.38
			c0.15-1.16,0.15-2.33,0.18-3.5c0.01-0.3-0.26-0.57-0.56-0.55C70.27,0.38,69.98,0.62,69.99,0.93L69.99,0.93z"/>
	</g>
</g>
<g>
	<g>
		<path class="st1" d="M69.72,2.28c1.16,0.12,2.33,0.29,3.5,0.25c0.2-0.01,0.37-0.15,0.4-0.35c0.02-0.18-0.09-0.39-0.28-0.43
			c-1.18-0.21-2.4-0.2-3.6-0.24c-0.21-0.01-0.4,0.18-0.4,0.39C69.33,2.13,69.51,2.26,69.72,2.28L69.72,2.28z"/>
	</g>
</g>
<g>
	<g>
		<path class="st1" d="M23.67,1.34c0.09,0.16,0.17,0.32,0.26,0.47c0.09,0.16,0.19,0.31,0.28,0.46c0.1,0.15,0.28,0.21,0.44,0.14
			c0.07-0.03,0.14-0.08,0.18-0.15c0.04-0.08,0.07-0.18,0.04-0.26c-0.07-0.2-0.14-0.39-0.23-0.58c-0.08-0.17-0.15-0.33-0.23-0.5
			c-0.04-0.09-0.16-0.17-0.25-0.19c-0.1-0.03-0.23-0.01-0.32,0.05C23.64,0.89,23.56,1.13,23.67,1.34L23.67,1.34z"/>
	</g>
</g>
<g>
	<g>
		<path class="st1" d="M25.46,1.56c0.05,0.16,0.1,0.32,0.14,0.48c0.02,0.06,0.06,0.12,0.12,0.15c0.05,0.03,0.13,0.04,0.19,0.02
			c0.14-0.04,0.22-0.17,0.19-0.31c-0.03-0.16-0.07-0.33-0.1-0.49c-0.01-0.07-0.07-0.14-0.13-0.17c-0.06-0.03-0.14-0.04-0.21-0.02
			c-0.07,0.02-0.14,0.07-0.17,0.13C25.45,1.41,25.44,1.49,25.46,1.56L25.46,1.56z"/>
	</g>
</g>
<g>
	<g>
		<path class="st1" d="M28.09,2.18c0.03,0.17,0.05,0.34,0.07,0.5c0.01,0.08,0.02,0.16,0.03,0.23c0,0.04,0.01,0.08,0.01,0.12
			c-0.01-0.08-0.01-0.06,0.01,0.06c0.02,0.19,0.05,0.37,0.07,0.56c0.01,0.08,0.02,0.15,0.03,0.23c0,0.02,0.03,0.22,0.01,0.12
			c0.07,0.68,0.15,1.26,0.22,1.95c0.03,0.29,0.22,0.54,0.54,0.54c0.33,0,0.52-0.25,0.56-0.55c0.21-1.4,0.17-2.78-0.02-4.18
			c-0.06-0.41-0.59-0.66-0.96-0.55C28.24,1.35,28.02,1.73,28.09,2.18L28.09,2.18z"/>
	</g>
</g>
<g>
	<g>
		<path class="st1" d="M27.77,3.75c0.58-0.06,1.17-0.07,1.76-0.03c0.58,0.04,1.16,0.12,1.74,0.16c0.12,0.01,0.23-0.1,0.25-0.22
			c0.02-0.13-0.06-0.22-0.18-0.27c-1.11-0.42-2.4-0.41-3.56-0.29c-0.18,0.02-0.33,0.14-0.34,0.33C27.45,3.6,27.6,3.77,27.77,3.75
			L27.77,3.75z"/>
	</g>
</g>
<g>
	<g>
		<path class="st1" d="M32.32,5.69c-0.03-0.05-0.06-0.11-0.09-0.16c-0.03-0.05,0.03,0.1,0,0c-0.01-0.03-0.02-0.05-0.03-0.08
			c-0.02-0.06-0.03-0.12-0.04-0.18c-0.01-0.08,0,0.05,0,0c0-0.03,0-0.06,0-0.08c0-0.06,0-0.11,0.01-0.17c0.01-0.11-0.02,0.09,0-0.02
			c0.01-0.03,0.01-0.05,0.02-0.08c0.01-0.05,0.03-0.11,0.05-0.16c0.01-0.05-0.03,0.07,0,0c0.01-0.03,0.03-0.06,0.04-0.09
			c0.02-0.05,0.05-0.09,0.08-0.13c0,0,0.06-0.08,0.02-0.03c-0.04,0.05,0.02-0.02,0.03-0.03c0.04-0.04,0.08-0.08,0.12-0.12
			c0.05-0.04,0.02-0.04,0,0c0.01-0.01,0.05-0.04,0.06-0.05c0.05-0.03,0.1-0.06,0.15-0.09c0.01,0,0.09-0.04,0.04-0.02
			c-0.05,0.02,0.03-0.01,0.04-0.01c0.11-0.04,0.22-0.07,0.33-0.09c0.14-0.03,0.24-0.17,0.24-0.31c0-0.13-0.1-0.28-0.23-0.3
			c-0.18-0.03-0.34-0.03-0.52,0.01c-0.15,0.03-0.29,0.09-0.42,0.15c-0.28,0.14-0.52,0.36-0.7,0.61c-0.38,0.55-0.34,1.35,0.01,1.89
			c0.12,0.2,0.4,0.28,0.6,0.15C32.34,6.16,32.45,5.9,32.32,5.69L32.32,5.69z"/>
	</g>
</g>
<g>
	<g>
		<path class="st1" d="M33.38,5.21c-0.04,0.73,0.63,1.25,1.3,1.31c0.71,0.07,1.29-0.52,1.45-1.17c0.09-0.38,0.07-0.78-0.12-1.12
			c-0.07-0.13-0.24-0.17-0.37-0.12c-0.14,0.06-0.21,0.2-0.18,0.35c0,0.02,0.02,0.09,0.01,0.06c0-0.04,0,0.05,0.01,0.06
			c0,0.03,0.01,0.06,0.01,0.1c0.01,0.04,0-0.02,0-0.02c0,0.03,0.01,0.07,0.01,0.1c0,0.06,0,0.12-0.01,0.18
			c0,0.03-0.01,0.06-0.01,0.09c0,0.04,0-0.02,0-0.03c0,0.02-0.01,0.03-0.01,0.05c-0.01,0.06-0.03,0.12-0.05,0.17
			c-0.01,0.02-0.04,0.1-0.02,0.05c0.02-0.05,0,0,0,0c-0.01,0.02-0.02,0.04-0.03,0.06c-0.03,0.05-0.06,0.09-0.09,0.14
			c-0.04,0.06,0.05-0.05-0.01,0.01c-0.02,0.02-0.04,0.05-0.07,0.07c-0.02,0.02-0.04,0.04-0.06,0.06c-0.05,0.05,0.07-0.04,0,0
			c-0.02,0.02-0.05,0.03-0.07,0.05c-0.01,0.01-0.03,0.02-0.04,0.02c-0.01,0.01-0.07,0.03-0.01,0.01c0.07-0.03-0.02,0.01-0.04,0.01
			c-0.03,0.01-0.05,0.01-0.08,0.02c-0.09,0.02,0.07,0,0,0c-0.03,0-0.05,0-0.08,0c-0.03,0-0.05,0-0.08,0c-0.07,0,0.09,0.02,0,0
			c-0.06-0.01-0.11-0.03-0.17-0.04c-0.07-0.02,0.07,0.03,0.01,0c-0.02-0.01-0.05-0.02-0.07-0.04c-0.02-0.01-0.05-0.03-0.07-0.04
			c-0.01-0.01-0.02-0.01-0.03-0.02c-0.04-0.02,0.07,0.06,0.02,0.01c-0.05-0.04-0.09-0.08-0.13-0.13c-0.01-0.01-0.04-0.04,0,0.01
			c0.05,0.06,0,0-0.01-0.01c-0.01-0.02-0.03-0.04-0.04-0.07c-0.01-0.01-0.01-0.03-0.02-0.04c-0.02-0.04,0.03,0.08,0.02,0.04
			c-0.01-0.03-0.02-0.06-0.03-0.09c0-0.01,0-0.03-0.01-0.04c-0.01-0.04,0,0.08,0,0.04c0-0.03,0-0.07,0-0.1
			c0.01-0.22-0.19-0.42-0.41-0.41C33.58,4.81,33.4,4.98,33.38,5.21L33.38,5.21z"/>
	</g>
</g>
<g>
	<g>
		<path class="st1" d="M36.95,5.71c0.68-0.03,1.48-0.09,1.92-0.67c0.34-0.44,0.44-1.21-0.03-1.61c-0.28-0.24-0.68-0.3-1.03-0.18
			c-0.36,0.12-0.64,0.4-0.79,0.74c-0.28,0.62-0.2,1.38,0.2,1.93c0.22,0.31,0.5,0.57,0.84,0.74c0.37,0.19,0.73,0.24,1.13,0.18
			c0.17-0.03,0.29-0.23,0.27-0.38c-0.02-0.18-0.16-0.29-0.34-0.3c-0.09-0.01-0.16-0.02-0.28-0.05c-0.06-0.02-0.12-0.03-0.17-0.05
			c-0.03-0.01-0.05-0.02-0.08-0.03c0.05,0.02-0.02-0.01-0.03-0.02c-0.1-0.05-0.2-0.1-0.29-0.17c0.05,0.03-0.07-0.05-0.08-0.06
			c-0.05-0.04-0.1-0.09-0.15-0.14c-0.1-0.1-0.09-0.09-0.16-0.2c-0.06-0.1-0.13-0.2-0.17-0.31c0.02,0.06,0,0,0-0.01
			c-0.01-0.03-0.02-0.05-0.02-0.08c-0.02-0.06-0.03-0.11-0.04-0.17c0-0.03-0.01-0.05-0.01-0.08c-0.01-0.06,0,0.05,0-0.02
			c0-0.07,0-0.13,0-0.2c0.01-0.2,0.08-0.42,0.23-0.57c0.06-0.06,0.12-0.1,0.2-0.13c0.09-0.03,0.19-0.04,0.29-0.01
			c0.14,0.05,0.21,0.17,0.22,0.31c0.02,0.16-0.05,0.34-0.16,0.48c-0.3,0.39-0.98,0.43-1.46,0.46C36.58,5.14,36.56,5.72,36.95,5.71
			L36.95,5.71z"/>
	</g>
</g>
<g>
	<g>
		<path class="st1" d="M41.31,1.99c0.06-0.1,0.11-0.21,0.17-0.31c0.06-0.1,0.1-0.21,0.15-0.32c0.03-0.06,0.05-0.13,0.03-0.2
			c-0.02-0.06-0.06-0.13-0.12-0.16c-0.06-0.03-0.13-0.04-0.2-0.02C41.32,1,41.3,1.01,41.27,1.02c-0.04,0.02-0.07,0.06-0.1,0.1
			C41.1,1.21,41.03,1.3,40.97,1.4c-0.06,0.1-0.13,0.2-0.19,0.29c-0.04,0.06-0.05,0.16-0.03,0.23c0.02,0.07,0.08,0.15,0.14,0.19
			c0.07,0.04,0.16,0.05,0.23,0.03C41.2,2.12,41.27,2.07,41.31,1.99L41.31,1.99z"/>
	</g>
</g>
<g>
	<g>
		<path class="st1" d="M42.85,2.41C42.93,2.31,43,2.2,43.08,2.1c0.07-0.1,0.14-0.21,0.2-0.32c0.04-0.07,0.06-0.17,0.04-0.25
			c-0.02-0.07-0.06-0.13-0.12-0.18c-0.14-0.1-0.32-0.08-0.45,0.04c-0.09,0.09-0.19,0.17-0.28,0.27c-0.09,0.1-0.17,0.19-0.26,0.29
			c-0.05,0.05-0.09,0.11-0.11,0.18c-0.01,0.03-0.01,0.07-0.02,0.1c0,0.07,0.02,0.14,0.05,0.2c0.03,0.05,0.06,0.09,0.11,0.12
			c0.04,0.04,0.09,0.06,0.14,0.07c0.05,0.02,0.11,0.02,0.16,0.01c0.06,0,0.11-0.02,0.16-0.05C42.76,2.53,42.81,2.47,42.85,2.41
			L42.85,2.41z"/>
	</g>
</g>
<g>
	<g>
		<path class="st1" d="M26.5,11.41c0.14,0.3,0.32,0.58,0.52,0.85c0.22,0.29,0.5,0.65,0.92,0.54c0.35-0.09,0.51-0.43,0.65-0.73
			c0.16-0.34,0.34-0.67,0.45-1.03c0.04-0.12-0.03-0.25-0.15-0.3c-0.13-0.05-0.25,0.01-0.33,0.11c-0.19,0.25-0.33,0.53-0.48,0.81
			c-0.07,0.12-0.13,0.24-0.2,0.36c-0.02,0.02-0.03,0.05-0.05,0.07c-0.01,0.02-0.01,0.02,0.01-0.01c-0.01,0.01-0.02,0.02-0.03,0.03
			c-0.01,0.01-0.08,0.06-0.03,0.03c0.06-0.04-0.08,0.04-0.01,0.01c0.03-0.01,0.03-0.01,0,0c0.01,0,0.03,0,0.04-0.01
			c-0.08-0.01,0.04,0,0.03,0.01c0,0.01-0.08-0.06-0.03-0.01c-0.02-0.02-0.04-0.04-0.06-0.06c-0.11-0.12-0.15-0.17-0.23-0.28
			c-0.17-0.23-0.31-0.48-0.43-0.73c-0.08-0.16-0.32-0.21-0.47-0.12C26.46,11.05,26.41,11.23,26.5,11.41L26.5,11.41z"/>
	</g>
</g>
<g>
	<g>
		<path class="st1" d="M31.7,11.24c-0.4-0.78-1.66-0.79-2.04,0.01c-0.18,0.38-0.16,0.86,0.09,1.21c0.27,0.39,0.74,0.58,1.21,0.44
			c0.49-0.15,0.84-0.56,0.91-1.07c-0.19,0.08-0.37,0.16-0.56,0.24c0.37,0.38,0.77,0.74,1.19,1.07c0.26,0.21,0.6-0.12,0.38-0.38
			c-0.34-0.41-0.71-0.8-1.11-1.16c-0.21-0.19-0.54-0.04-0.56,0.24c0,0.05,0.01-0.01-0.01,0.04c0,0.01-0.03,0.08-0.01,0.04
			c-0.01,0.03-0.03,0.06-0.05,0.08c0,0-0.03,0.04-0.01,0.02c0.02-0.02-0.02,0.02-0.03,0.03c-0.02,0.02-0.05,0.04-0.07,0.06
			c-0.03,0.03,0,0,0.01-0.01c-0.01,0.01-0.03,0.02-0.04,0.03c-0.03,0.02-0.06,0.03-0.08,0.05c-0.04,0.02,0.01,0,0.01,0
			c-0.02,0.01-0.04,0.01-0.06,0.02c-0.03,0.01-0.06,0.02-0.09,0.02c-0.06,0.02,0.03,0-0.03,0c-0.03,0-0.06,0-0.09,0
			c0,0-0.06,0-0.02,0c0.04,0-0.02,0-0.03-0.01c-0.01,0-0.09-0.03-0.06-0.02c0.03,0.01-0.04-0.02-0.05-0.03
			c-0.01-0.01-0.03-0.02-0.04-0.02c0,0,0.05,0.04,0.02,0.01c-0.03-0.02-0.05-0.05-0.08-0.07c-0.05-0.05,0.02,0.04-0.01-0.02
			c-0.01-0.03-0.03-0.05-0.05-0.08c-0.01-0.03-0.03-0.08-0.01-0.02c-0.01-0.03-0.02-0.07-0.03-0.1c-0.01-0.03-0.02-0.07-0.02-0.11
			c0.01,0.06,0-0.01,0-0.03c0-0.03,0-0.06,0-0.09c0-0.01,0.01-0.05,0-0.02c-0.01,0.04,0.01-0.02,0.01-0.03
			c0.01-0.03,0.02-0.06,0.03-0.09c0.01-0.04,0,0.01,0,0.01c0.01-0.01,0.01-0.03,0.02-0.04c0.01-0.01,0.02-0.03,0.02-0.04
			c0,0-0.03,0.04-0.01,0.01c0.02-0.03,0.05-0.05,0.08-0.08c-0.04,0.04,0,0,0.03-0.02c0.03-0.02,0.05-0.03,0.08-0.04
			c-0.05,0.02,0.01,0,0.03-0.01c0.02-0.01,0.1-0.02,0.08-0.02c0.21-0.03,0.45,0.06,0.56,0.25C31.37,11.86,31.87,11.57,31.7,11.24
			L31.7,11.24z"/>
	</g>
</g>
<g>
	<g>
		<path class="st1" d="M32.77,10.54c0.23,0.76,0.45,1.51,0.74,2.25c0.08,0.2,0.27,0.35,0.49,0.28c0.22-0.07,0.33-0.27,0.3-0.49
			c-0.12-0.78-0.29-1.55-0.47-2.33c-0.06-0.28-0.39-0.46-0.66-0.38C32.9,9.96,32.68,10.24,32.77,10.54L32.77,10.54z"/>
	</g>
</g>
<g>
	<g>
		<path class="st1" d="M35.35,12.46c0.24,0.13,0.5,0.24,0.77,0.28c0.34,0.05,0.66,0.03,0.97-0.11c0.47-0.2,0.73-0.75,0.67-1.25
			c-0.04-0.26-0.19-0.49-0.42-0.62c-0.14-0.08-0.33-0.03-0.43,0.09c-0.1,0.13-0.09,0.3,0.02,0.43c0.04,0.05-0.05-0.07,0,0
			c0.01,0.02,0.02,0.04,0.03,0.06c-0.04-0.06-0.02-0.07-0.01-0.02c0.01,0.02,0.01,0.04,0.02,0.07c0.02,0.09,0-0.07,0-0.01
			c0,0.02,0,0.04,0,0.05c0,0.02,0,0.05-0.01,0.07c0-0.12,0.01-0.06,0-0.02c-0.01,0.05-0.03,0.09-0.04,0.13
			c-0.02,0.07,0.05-0.1,0.01-0.03c-0.01,0.02-0.02,0.04-0.04,0.07c-0.01,0.02-0.03,0.04-0.04,0.06c-0.04,0.06,0.07-0.09,0.02-0.03
			c-0.03,0.04-0.07,0.07-0.11,0.1c0.03-0.02,0.06-0.05,0.1-0.07c-0.06,0.04-0.12,0.08-0.18,0.11c0.04-0.02,0.08-0.03,0.12-0.05
			c-0.05,0.02-0.1,0.04-0.16,0.05c-0.02,0.01-0.05,0.01-0.07,0.01c-0.05,0.01,0.12-0.01,0.02-0.01c-0.06,0-0.11,0-0.17,0
			c-0.01,0-0.02,0-0.03,0c-0.05,0-0.03,0,0.04,0.01c-0.02-0.01-0.05-0.01-0.08-0.01c-0.05-0.01-0.1-0.02-0.15-0.04
			c-0.03-0.01-0.05-0.02-0.08-0.02c-0.02-0.01-0.03-0.01-0.05-0.02c0.02,0.01,0.04,0.02,0.06,0.02c-0.11-0.03-0.21-0.1-0.31-0.15
			c-0.22-0.13-0.55-0.04-0.67,0.19C35.06,12.03,35.11,12.33,35.35,12.46L35.35,12.46z"/>
	</g>
</g>
<g>
	<g>
		<path class="st1" d="M39.54,12.08c0.41,0.16,0.84,0.31,1.28,0.26c0.39-0.05,0.75-0.25,0.96-0.6c0.19-0.32,0.19-0.71-0.06-1.01
			c-0.23-0.28-0.6-0.42-0.95-0.49c-0.36-0.08-0.75-0.06-1.07,0.13c-0.26,0.16-0.46,0.4-0.59,0.68c-0.28,0.62-0.2,1.32,0.26,1.83
			c0.54,0.6,1.43,0.79,2.19,0.61c0.33-0.08,0.29-0.62-0.07-0.59c-0.5,0.04-0.98-0.04-1.38-0.31c-0.05-0.03-0.16-0.13-0.23-0.21
			c-0.08-0.08-0.12-0.15-0.19-0.28c-0.03-0.06-0.01-0.02,0-0.01c-0.01-0.03-0.02-0.06-0.03-0.09c-0.02-0.05-0.03-0.1-0.04-0.16
			c0-0.01-0.01-0.06,0-0.01c0-0.03-0.01-0.07-0.01-0.1c0-0.06,0-0.12,0.01-0.18c0.03-0.35,0.26-0.71,0.6-0.8
			c0.26-0.07,0.58,0.01,0.83,0.1c0.19,0.08,0.38,0.22,0.32,0.45c-0.06,0.23-0.29,0.39-0.5,0.41c-0.37,0.05-0.74-0.13-1.06-0.27
			c-0.19-0.08-0.4-0.02-0.49,0.17C39.23,11.84,39.35,12.01,39.54,12.08L39.54,12.08z"/>
	</g>
</g>
</svg>
