<svg id="Layer_1" data-name="Layer 1" xmlns="http://www.w3.org/2000/svg" viewBox="0 0 225.43 168.62"><defs><style>.cls-1{fill:#486afb;}.cls-2{fill:#fd46fc;}</style></defs><path class="cls-1" d="M114.31,55.8a15.36,15.36,0,0,0,1.42-12.66,20.47,20.47,0,0,0-8.27-11,36.83,36.83,0,0,0-14.22-5.21c-5.65-1-11.62-1.55-17.32-.63A30.3,30.3,0,0,0,50.73,58.49c.4,5.19,2.32,9.95,4.58,14.58s4.76,9,6,13.91a23.11,23.11,0,0,1,.72,7.9,38,38,0,0,1-2,8.8c-1.88,5.57-4.4,11-5.24,16.83-.68,4.71-.17,9.92,2.58,13.94,3,4.41,8.11,6.09,13.21,6.67,6,.69,12-.33,17.79-1.84a91.54,91.54,0,0,0,15.53-5.41,37.58,37.58,0,0,0,12.58-9.09c7.38-8.45,9.83-20,9-30.93a69,69,0,0,0-3.66-17.09,62.43,62.43,0,0,0-3.32-7.87c-1.26-2.49-2.87-4.91-3.7-7.61-.69-2.28-.73-5,.85-6.88.57-.69-.4-1.62-1-.94a8.45,8.45,0,0,0-1.6,6.6c.37,2.66,1.71,5,2.92,7.4A74.55,74.55,0,0,1,121.89,83c2.74,10.72,3.19,22.58-1.56,32.82a32.11,32.11,0,0,1-9.2,11.8,48.41,48.41,0,0,1-13.43,7.08,96.71,96.71,0,0,1-16.08,4.59c-5.45,1-11.4,1.25-16.68-.69a13.36,13.36,0,0,1-5.94-4.2,15.45,15.45,0,0,1-2.77-6.2c-1.15-5.28.19-10.6,1.94-15.59,1.87-5.37,4.22-10.64,5-16.32a24.41,24.41,0,0,0-.18-8,34.63,34.63,0,0,0-2.22-6.94c-1.92-4.54-4.46-8.78-6.34-13.34a30.6,30.6,0,0,1-2.29-14.76,28.68,28.68,0,0,1,5.26-14,29.08,29.08,0,0,1,10.77-8.94,31.37,31.37,0,0,1,15.12-2.92,59.13,59.13,0,0,1,15.52,2.49A25.89,25.89,0,0,1,111,37.46a17.91,17.91,0,0,1,4.27,11.92,12.16,12.16,0,0,1-1.82,5.94c-.35.57.54,1,.88.48Z"/><path class="cls-1" d="M40.89,6.71a4.76,4.76,0,0,0-4.13-2,4,4,0,0,0-3.85,3c-.32,2,1.67,3.29,3.16,4.18a28.89,28.89,0,0,1,2.59,1.63c.57.43,2,1.35.9,2a4.16,4.16,0,0,1-1.71.4,8.83,8.83,0,0,1-2,.08,3.42,3.42,0,0,1-2.58-1.49.55.55,0,0,0-1,.41c.57,2,2.87,2.64,4.74,2.51a6.94,6.94,0,0,0,3.27-.8,2,2,0,0,0,.92-2.29c-.32-.95-1.39-1.65-2.17-2.2s-1.72-1.08-2.6-1.6a5.16,5.16,0,0,1-2.13-1.82,1.84,1.84,0,0,1,.82-2.28,3.47,3.47,0,0,1,4.69,1c.42.63,1.48,0,1.06-.61Z"/><path class="cls-1" d="M74.61,57.29a1.08,1.08,0,0,0,1.25-.89,1,1,0,0,0-.22-.87,1.21,1.21,0,0,0-1-.31,1.9,1.9,0,0,0-1.29,3.05,2,2,0,0,0,.93.71,1.67,1.67,0,0,0,1,0,2,2,0,0,0,1.28-1.32A1.48,1.48,0,0,0,76,56a1.64,1.64,0,0,0-1.72,0,1.61,1.61,0,0,0-.67.87A1.43,1.43,0,0,0,73.78,58a1.74,1.74,0,0,0,.93.69,1.59,1.59,0,0,0,1.19-.11.68.68,0,0,0,.33-.76A3,3,0,0,0,74.74,56a.84.84,0,0,0-1,.15,1.54,1.54,0,0,0-.28,1.6,1.36,1.36,0,0,0,1.53.85,1.47,1.47,0,0,0,1.09-1.11,1.33,1.33,0,0,0-.12-.94,1.22,1.22,0,0,0-.25-.31,1,1,0,0,0-.6-.24,1.86,1.86,0,0,0-.33,0,1.66,1.66,0,0,0-1,.69,1.24,1.24,0,0,0-.21.45.86.86,0,0,0,.3.89.73.73,0,0,0,1,0l0,0-.17.12a1,1,0,0,0,.31-.26,1.28,1.28,0,0,0,.19-.39l-.08.2a.51.51,0,0,1,.09-.16l-.14.17a.75.75,0,0,1,.16-.15l-.18.14a.51.51,0,0,1,.16-.09l-.21.08.14,0-.22,0h.08l-.41-.1h0l-.17-.12a.46.46,0,0,1,.07.07l-.13-.17,0,.09-.09-.21a.35.35,0,0,1,0,.13l0-.21a.57.57,0,0,1,0,.13l0-.21a.75.75,0,0,1,0,.16l.08-.19a.64.64,0,0,1-.08.14l.13-.17-.11.12.18-.14-.12.07.21-.09a.23.23,0,0,1-.11,0l.22,0h-.11L75,57l-.14,0L75,57l-.12-.07.17.13a.8.8,0,0,1-.13-.13l.13.17a1.62,1.62,0,0,1-.1-.18l.08.2a1.6,1.6,0,0,1,0-.21l0,.21A.62.62,0,0,1,75,57c0-.12-.06.22,0,.07s0,0,0,0,0,0-.05.1A.61.61,0,0,1,75,57l-1.1.31a2.42,2.42,0,0,1,.39.21l.1.07,0,0a1.22,1.22,0,0,1,.17.15.93.93,0,0,1,.14.14l.08.09-.07-.08,0,.06a1.62,1.62,0,0,1,.1.18l.06.11c0,.12-.06-.15,0,0l.33-.76-.06,0c.11-.08.15-.05.08,0l-.06,0c-.1,0,.09,0,.08,0h0l-.08,0-.06,0c-.07,0,.14.07.07,0L75,57.41l-.06,0c-.07,0,.12.1.06,0l-.11-.1,0-.05,0,.07-.06-.11a.17.17,0,0,1,0-.06s.05.18,0,.07,0,0,0-.06,0,.13,0,.06,0-.18,0-.06,0,0,0,0-.06.1,0,0l0,0c0-.1-.11.11,0,0l.08-.09c.08-.07-.14.1,0,0A.53.53,0,0,1,75,57h0c-.11,0,0,0,0,0a.35.35,0,0,1,.11,0c.09,0-.06,0-.07,0h.18c-.13,0-.12,0-.07,0l.09,0,0,0c.07,0-.13-.06-.07,0s.14.1.06,0,0,0,0,.05.07.08,0,0,0,0,0,0l0,0c0,.07,0-.06,0-.07a.35.35,0,0,1,0,.11s0,0,0,.05,0-.15,0-.07,0,.18,0,.07,0,0,0,0,0,.08,0,.11.07-.13,0-.06l0,.05a.75.75,0,0,1-.07.12l0,.05s.12-.13.05-.06l-.09.09a.76.76,0,0,1-.09.09s.16-.11.07-.06l-.06.05-.11.06c-.13.06.15,0,0,0l-.12,0c-.16,0,.16,0,0,0h-.14c-.05,0-.07,0,.07,0h-.08a1.31,1.31,0,0,0-.28-.09c.09,0,.12,0,0,0l-.06,0-.13-.07-.06,0c.07,0,.08.07,0,0l-.12-.12c-.05,0,.07.1,0,0l0-.06-.07-.13,0-.07c0-.06,0,.11,0,0s0-.11,0-.17,0,0,0,0V57a.76.76,0,0,0,0-.15s0,.12,0,0a.64.64,0,0,0,0-.07.19.19,0,0,1,0-.07s0-.12,0,0,0,0,0,0l0-.07a.57.57,0,0,0,.08-.13c0-.06-.06.07,0,0l0,0,.14-.14s0,0,0,0,.06,0,.08-.06a.71.71,0,0,1,.15-.08c-.1,0,0,0,0,0l.11,0h.18c-.08,0,0,0,0,0h0l0,0c.05,0,.05,0,0,0s0,0,0,0-.06-.09,0,0l0,.05s0-.12,0,0,0,0,0,0,0,0,0,.05v.06s0-.11,0,0,0,0,0,.05,0-.05,0,0a.08.08,0,0,0,0,.05c0,.07,0,0,0,0l-.09.1s.09,0,0,0l0,0s.11,0,0,0-.12,0,0,0h-.05c.06,0,.07,0,0,0a.47.47,0,0,0-.57.33.44.44,0,0,0,.32.55Z"/><path class="cls-1" d="M100.54,74.36a1.56,1.56,0,0,0-1.14,1.79,1.45,1.45,0,1,0,2.74-.91,1.06,1.06,0,0,0-1.38-.65,1.76,1.76,0,0,0-.84.88,2.67,2.67,0,0,0-.27,1,1.26,1.26,0,0,0,.54,1.1,1.16,1.16,0,0,0,1.42-.14,1.23,1.23,0,0,0,.36-1.37,1.25,1.25,0,0,0-1-.76,1.37,1.37,0,0,0-1.32.51,1.41,1.41,0,0,0-.24,1.3,1.26,1.26,0,0,0,1.39.91,1.85,1.85,0,0,0,1.09-1,1.66,1.66,0,0,0,.18-1.34,1.21,1.21,0,0,0-.93-.8,1.15,1.15,0,0,0-1.36.7.85.85,0,0,0,.22.84.69.69,0,0,0,.93,0c.09-.09-.16.1-.08.06a1.84,1.84,0,0,0,.22-.17l-.17.13a1.57,1.57,0,0,0,.26-.19l-.17.13.1,0-.2.08.14,0-.2,0H101c.1,0-.19,0-.11,0h.06c.08,0-.1,0-.1,0l0,0c.11,0-.09-.06-.08-.07l0,0-.12-.15.08.13-.08-.17s0,.1,0,.11,0-.19,0,0,0,0,0,0l0,.11a.14.14,0,0,1,0,.06l0-.07a.25.25,0,0,0,0,.09l-.12.19c-.07.1.08-.09,0,0l-.06.08-.09.08.08-.06-.07,0,.1,0a.22.22,0,0,1,.16,0c.07,0,.07,0,0,0l.1,0s0,0,0,0h0l-.07-.08.12.14a.59.59,0,0,1-.1-.17l.07.18a1.33,1.33,0,0,1,0-.19c0-.13,0,.17,0,.05s0-.18,0,0,0,0,0,0-.06.09,0,0,.09-.13,0,0,0,0,0,0l-.16.12.13-.07-.18.07.08,0c.09,0,.09,0-.07,0h.09c.11,0-.17,0-.07,0l.09,0s-.2-.09-.06,0-.12-.11-.07,0a.46.46,0,0,1,.07.07l-.11-.15a.54.54,0,0,1,.07.13l-.07-.18s0,.07,0,.09v0s0-.19,0-.09.09-.15,0,0,.12-.13,0,0,.16-.1,0,0-.15,0,.07,0c-.12,0,.18,0,.06,0s0,0,.09,0h0c-.07,0,0,0,.08,0a.11.11,0,0,0-.06,0c-.07,0,.16.12.08,0s0-.06,0,.07,0,0,0,0,0,.16,0,0,0-.2,0,0a.65.65,0,0,1,0-.14V76.3c0,.17,0,.12,0,.07s0-.13,0-.2l.06-.16c0-.05.06-.09,0,.07a.36.36,0,0,0,0-.09s.05-.09.08-.14.06-.06.07-.09l-.06.07,0,0c0-.06.11-.06,0,0l.06,0-.11,0c.07,0,0,0-.07,0,.1,0-.07,0-.1,0s-.15-.12-.07,0l0,0,0-.06,0,.05c.08.14,0-.12,0,0l0,.14c0-.15,0-.1,0,0v.06c0,.08,0,.09,0,0s0,0,0,.07a.19.19,0,0,0,0,.07c0-.09,0-.12,0-.06a.05.05,0,0,1,0,0l0,.07c-.06.09.11-.11,0,0l0,0c-.08.08.14-.09,0,0l-.07,0s.16,0,0,0l-.09,0h0a.34.34,0,0,0-.1,0c.07,0,.12,0,.06,0l-.1,0c-.07,0-.08-.06,0,0a.61.61,0,0,0-.14-.07c-.1,0,.07.07,0,0a.6.6,0,0,0-.08-.08s-.08-.09,0,0,0,0,0-.05v0s0,0,0,.05,0-.08,0-.1v0q0-.09,0,0v-.1c0-.11,0,.11,0,0l0-.09c0-.12-.06.1,0,0a.41.41,0,0,1,0-.09l0,0s0,0,0,0a.5.5,0,0,1,.07-.08.27.27,0,0,0,.08-.07q-.1.08,0,0l0,0,.09-.05c-.07,0-.08,0,0,0l.07,0a.52.52,0,0,0,.37-.61.5.5,0,0,0-.61-.35Z"/><path class="cls-1" d="M74.69,86.84A.94.94,0,0,0,74,85.72a1.15,1.15,0,0,0-1.28.51,2.63,2.63,0,0,0-.32,1.29A2.54,2.54,0,0,0,72.62,89a1.5,1.5,0,0,0,1.29.75A1.33,1.33,0,0,0,75.05,89a3.11,3.11,0,0,0,.25-1.2,1.33,1.33,0,0,0-.54-1.23,1.21,1.21,0,0,0-1.55.55,2.4,2.4,0,0,0-.54,1.45,1.36,1.36,0,0,0,1,1.24A1.22,1.22,0,0,0,75,89.06a1.8,1.8,0,0,0,0-1.6,1.41,1.41,0,0,0-1.25-.73,1.24,1.24,0,0,0-1.2.88,1.2,1.2,0,0,0,.35,1.25,1,1,0,0,0,.92.19,1.46,1.46,0,0,0,.61-.39,1.54,1.54,0,0,0,.38-1.33,1.43,1.43,0,0,0-2.46-.51.86.86,0,0,0-.09,1,.61.61,0,0,0,.69.27s.11,0,0,0,.21,0,.14,0a1.63,1.63,0,0,0,.4-.24c-.25.19-.08.07,0,0l0,0c.14-.08,0,0-.08,0l.15,0c.06,0,.1,0-.1,0h.14c.08,0-.21,0-.09,0h.06c.11,0-.15-.08-.06,0s-.13-.11,0,0-.1-.15,0,0,0-.15,0-.07,0,.06,0,.07,0-.17,0-.08v.1c0-.12,0-.14,0-.07a.19.19,0,0,0,0,.07c0,.08.08-.15,0,0l0,.06c0,.08,0-.06.05-.06a.15.15,0,0,0-.05.06c-.06.06-.08,0,.05,0l-.08,0c.13-.09.14,0,.07,0s-.15,0,.06,0h.13c.1,0,.13,0,.07,0s.13.12.07,0,.08.13,0,0,0-.07,0,.06a.29.29,0,0,0,0-.09s0,.17,0,.08v-.06c0-.11,0,.12,0,.06a.24.24,0,0,0,0-.08c0,.12-.06.13,0,.08s-.09.11,0,0,0,0-.05,0l0,0c.07,0,0,0-.06,0l.07,0c.09,0,0,0-.07,0h.09c.08,0-.15,0,0,0h.07c.1,0,0,0,0,0a.22.22,0,0,0,.08,0s0,0-.06,0l0,0s0,.06.06.06-.07-.1,0,0l0,0h0v0a.24.24,0,0,1,0,.08.29.29,0,0,1,0,.09c0,.12,0,0,0,0a.41.41,0,0,1,0,.11s0,.16,0,.07a.43.43,0,1,0,0,.05s0,.08,0,.09,0-.11,0,0l0,.09c0,.08-.06,0,0,0s-.05.06-.05.06l.07-.05s0,0,0,0,.06,0,0,0H74c-.09,0,.16,0,0,0s0,0,0,0l-.06,0s.11.09,0,0L74,88.49s.09.14,0,.05l0-.07c0,.1,0,.12,0,0v-.07c0-.06,0,0,0,0v0a.17.17,0,0,1,0-.1c0-.13,0,0,0,0s0-.09,0-.12a.49.49,0,0,1,0-.11s-.06.13,0,0a.94.94,0,0,1,.12-.22,2.39,2.39,0,0,1,.13-.21.18.18,0,0,1,0-.07c.06-.09,0,0,0,0l.1-.13c0,.07-.06.09,0,.05l.07-.07s-.14.08,0,0l0,0h-.08c-.18,0,0,0-.09,0s.08.09-.09-.05c.06.05,0,0,0,0s0,0,0,0,0-.12,0,0a.29.29,0,0,1,0,.09s0,.07,0,.07,0-.1,0,0v0c0,.11,0,.22,0,.33s0-.1,0,0,0,.06,0,.09,0,.12,0,.18,0,.11,0,.16.07-.13,0,0a.21.21,0,0,1,0,.06l0,.06c-.06.1.08-.08,0,0l-.06.06c-.07.08.14-.08,0,0l-.06,0c.06-.07.13,0,0,0s0,0,0,0h-.08c.1,0,.1,0,0,0h0s0,0,0,0h0l-.07,0c-.11-.05.08.08,0,0l-.06-.06s0,0,0,0,0,0,0,0l0-.07s-.08-.16,0-.08,0-.06,0-.06l0-.15s0-.06,0-.09c0,.13,0,0,0,0a4.47,4.47,0,0,1,0-.52c0-.08,0-.16,0-.24s0-.06,0-.08,0-.06,0-.09v.06a.6.6,0,0,1,.06-.22v0s.05-.09.06-.11,0,0,0,0l0,0,0,0,0,0c-.09,0-.11,0,0,0h0c-.06,0-.13,0,0,0s-.07,0,0,0,0,0,0,0l.08,0c-.07,0-.1-.08-.05,0s-.07-.12,0,0l0-.09s0,0,0,0v0c0-.09,0-.11,0-.05a.57.57,0,0,0,.4.69.61.61,0,0,0,.72-.42Z"/><path class="cls-1" d="M92.21,46.27a1.15,1.15,0,0,0,1-.77,1.08,1.08,0,0,0,.07-.43,1.19,1.19,0,0,0-.11-.41,1.1,1.1,0,0,0-.17-.25.61.61,0,0,0-.59-.15,1.68,1.68,0,0,0-.81.43,1.72,1.72,0,0,0-.47.8,1.52,1.52,0,0,0,.09,1,1.51,1.51,0,0,0,.61.64,1.72,1.72,0,0,0,.86.22,1.59,1.59,0,0,0,1-.4A1.48,1.48,0,0,0,94,45.21a1.4,1.4,0,0,0-1.69-.71,2.1,2.1,0,0,0-1.4,1.65,1.51,1.51,0,0,0,.33,1.19,1.39,1.39,0,0,0,.93.4,1.3,1.3,0,0,0,.94-.34,1,1,0,0,0,.29-.48,1.42,1.42,0,0,0,0-.68,1.82,1.82,0,0,0-1.13-1.6,1.24,1.24,0,0,0-1.17.31,1.13,1.13,0,0,0-.35,1.11.78.78,0,0,0,.8.57.65.65,0,0,0,.66-.64v0l0,.17,0-.14a1.2,1.2,0,0,0,0-.33l0,.19v-.08l0,.19a.29.29,0,0,1,0-.09l-.08.18c0-.08.07-.16.11-.23l-.08.18.06-.11-.12.16a.93.93,0,0,1,.14-.14l-.16.13a.41.41,0,0,1,.11-.07l-.19.08.1,0-.19,0H92l-.19,0,.12,0L91.77,46a.61.61,0,0,1,.18.09l-.14-.1a1.21,1.21,0,0,1,.16.16L91.86,46a2,2,0,0,1,.21.38L92,46.21a2.2,2.2,0,0,1,.12.44l0-.17a.81.81,0,0,1,0,.16l0-.16,0,.12.06-.16a.26.26,0,0,1,0,.09l.11-.14a.3.3,0,0,1-.08.08l.14-.11-.1.06.17-.07-.13,0,.18,0h-.16l.18,0a.48.48,0,0,1-.18-.05l.16.07a.51.51,0,0,1-.16-.09l.15.11a.67.67,0,0,1-.15-.14l.12.15a.51.51,0,0,1-.09-.16l.07.18a1.6,1.6,0,0,1,0-.21l0,.18a1,1,0,0,1,0-.25l0,.17a1.71,1.71,0,0,1,.09-.3l-.07.17a1.49,1.49,0,0,1,.18-.3l-.11.14a1.54,1.54,0,0,1,.25-.26l-.15.11a1.43,1.43,0,0,1,.27-.15l-.18.07.21-.06-.18,0h.19l-.17,0,.14,0-.16-.06a.51.51,0,0,1,.16.09l-.14-.11a.86.86,0,0,1,.14.13l-.11-.14a1.59,1.59,0,0,1,.13.22l-.07-.17a1,1,0,0,1,.06.25l0-.18a1,1,0,0,1,0,.24l0-.18a.61.61,0,0,1,0,.18l.07-.17a1.09,1.09,0,0,1-.08.15l.11-.15a.68.68,0,0,1-.12.12l.15-.12a1,1,0,0,1-.17.1l.19-.08a.86.86,0,0,1-.25.07l.18,0h-.26l.18,0a1.22,1.22,0,0,1-.26-.06l.17.06a1,1,0,0,1-.21-.11l.14.1a.75.75,0,0,1-.16-.15l.11.14a.52.52,0,0,1-.1-.18l.06.17a1.6,1.6,0,0,1,0-.21l0,.17a1,1,0,0,1,0-.24l0,.16a.72.72,0,0,1,.07-.25l-.07.15a1.35,1.35,0,0,1,.15-.26l-.1.13a.81.81,0,0,1,.19-.18l-.14.1a.72.72,0,0,1,.19-.11l-.15.06.18,0-.58-.15v0l-.1-.13,0,.08L92,45.1l0,.1L92,45v.13l0-.16a.74.74,0,0,1,0,.14l.06-.15-.06.11.1-.13a.57.57,0,0,1-.11.11l.14-.11a.19.19,0,0,1-.09.05l.17-.07-.1,0,.17,0h-.07a.69.69,0,0,0-.67.66.63.63,0,0,0,.65.64Z"/><path class="cls-1" d="M100.54,107.43a1,1,0,0,0,.75.76.54.54,0,0,0,.58-.25,1,1,0,0,0-.93-1.45,1.61,1.61,0,0,0-1.39,1.31,1.88,1.88,0,0,0,0,1,1.5,1.5,0,0,0,.67.85,1.55,1.55,0,0,0,1.9-.22,1.48,1.48,0,0,0,.16-1.79,1.3,1.3,0,0,0-.85-.57,1.72,1.72,0,0,0-1.13.22,2.61,2.61,0,0,0-.77.71,1.77,1.77,0,0,0-.4,1.07,1.31,1.31,0,0,0,.41.93,1.58,1.58,0,0,0,.87.37,1.46,1.46,0,0,0,1.62-1.16,1.82,1.82,0,0,0-.14-1.15,1.74,1.74,0,0,0-.71-.76.82.82,0,0,0-.79,0,2.14,2.14,0,0,0-1,1.28,1.35,1.35,0,0,0,.12,1,1.23,1.23,0,0,0,.81.58,1.48,1.48,0,0,0,1.63-1,1.42,1.42,0,0,0-.67-1.66,1.89,1.89,0,0,0-.9-.24,1.51,1.51,0,0,0-.47.09,1.08,1.08,0,0,0-.63.5.66.66,0,0,0,.41,1l.09,0-.18-.07a1,1,0,0,0,.48.1h.18l-.21,0,.38,0-.21,0a1,1,0,0,1,.25.06l-.19-.08a1,1,0,0,1,.2.11l-.17-.13a.54.54,0,0,1,.15.15l-.13-.17a.71.71,0,0,1,.08.15l-.08-.21a.93.93,0,0,1,0,.13l0-.21a.43.43,0,0,1,0,.16l0-.21a.88.88,0,0,1-.05.15l.09-.19a1.1,1.1,0,0,1-.09.14l.14-.18-.15.16.18-.14-.14.08.21-.09-.12,0,.22,0h-.1l.21,0-.09,0,.19.07-.09,0,.17.12-.1-.09.13.17a.3.3,0,0,1-.06-.11l.08.2a.27.27,0,0,1,0-.12l0,.2a.75.75,0,0,1,0-.15l0,.2a1.82,1.82,0,0,1,.07-.25l-.08.2a1.73,1.73,0,0,1,.2-.32l-.13.16a2.13,2.13,0,0,1,.26-.26l-.17.13,0,0-.79,0,.18.1-.16-.12a1.62,1.62,0,0,1,.19.18l-.13-.16a1.28,1.28,0,0,1,.15.25l-.08-.18a1.29,1.29,0,0,1,.08.28l0-.19V109l0-.19a1.06,1.06,0,0,1-.06.19l.08-.18a.75.75,0,0,1-.09.15l.12-.16a.57.57,0,0,1-.11.11l.17-.12a.71.71,0,0,1-.15.08l.2-.08-.19,0,.21,0h-.25l.2,0a.8.8,0,0,1-.21,0l.19.07a.7.7,0,0,1-.17-.09l.17.12a.67.67,0,0,1-.15-.14l.13.16a.47.47,0,0,1-.07-.12l.08.19a.65.65,0,0,1,0-.13l0,.19a.38.38,0,0,1,0-.15l0,.19a.92.92,0,0,1,.08-.27l-.08.18a1.83,1.83,0,0,1,.23-.38l-.12.15a2.5,2.5,0,0,1,.32-.33l-.15.12a1.35,1.35,0,0,1,.26-.15l-.18.07a.79.79,0,0,1,.22-.06l-.18,0h.12c.12,0-.18,0,0,0s-.14-.08,0,0l.09.06-.14-.11a.63.63,0,0,1,.11.12l-.11-.15a.5.5,0,0,1,.08.14l-.07-.16a1.21,1.21,0,0,1,0,.18l0-.17a.57.57,0,0,1,0,.13c0,.07,0,.13,0-.06a.15.15,0,0,0,0,.07.14.14,0,0,0,0,.06c0,.1.07-.14,0-.07l-.08.12.11-.14-.12.12.15-.12-.18.1.17-.07-.2,0,.18,0H101c-.11,0,.15,0,.07,0l-.09,0-.07,0c-.12,0,.15.07,0,0l-.16-.1.14.11a1.26,1.26,0,0,1-.2-.2l.1.14-.09-.15a.25.25,0,0,1,0-.07c0-.07,0,.15,0,0s0-.11,0-.16,0,.11,0,.07a.11.11,0,0,1,0,0V108a.17.17,0,0,0,0-.1s0,.12,0,0a1,1,0,0,1,0-.17s0,0,0,0,0,0,0,.05l0-.06a.41.41,0,0,1,0-.09c.06-.08-.06.06,0,0l.06-.06c.07-.08-.08.05,0,0l.07,0c.08-.06-.09,0,0,0l.08,0s-.12,0,0,0h0s.12,0,0,0,0,0,0,0-.1-.09,0,0,0,0,0,0l0-.06a.08.08,0,0,1,0,0,.05.05,0,0,1,0,0l0-.08s0,.12,0,0,0,0,0,0l0-.08c0,.09.06-.1,0,0l.58-.24-.06,0h0c-.08,0,.08.06,0,0s0,0,0,0,0,0,0,0,0,0,0,0a.25.25,0,0,1,0-.07.49.49,0,0,0-.61-.34.52.52,0,0,0-.37.61Z"/><path class="cls-1" d="M73.28,122.75a1,1,0,0,0,1.2.91,1,1,0,0,0,.22-.09l.17-.13s.06,0,0,0,.06,0,.06,0l.13-.11a1.18,1.18,0,0,0,.31-.54,1.28,1.28,0,0,0-.22-1.12,1.31,1.31,0,0,0-1.15-.48,1.73,1.73,0,0,0-1.15.56,2.38,2.38,0,0,0-.51,1.13A2,2,0,0,0,73.1,125a1.46,1.46,0,0,0,1.24.08,1.63,1.63,0,0,0,.64-.39,1.72,1.72,0,0,0,.39-.61,2,2,0,0,0-.83-2.29,1,1,0,0,0-1,0,1.58,1.58,0,0,0-.53.56,2.88,2.88,0,0,0-.47,1.3,1.51,1.51,0,0,0,.52,1.26,1.35,1.35,0,0,0,1.56.17,1.57,1.57,0,0,0,.31-2.22,2.11,2.11,0,0,0-.8-.77,1.39,1.39,0,0,0-1.48,0,.86.86,0,0,0-.33,1,.67.67,0,0,0,.84.48c.13,0-.18,0-.11,0l.21,0,.22-.1-.2.09a.73.73,0,0,1,.2,0l-.22,0h.17l-.21,0a.83.83,0,0,1,.21.06l-.19-.08a1.43,1.43,0,0,1,.27.15l-.16-.12a1.18,1.18,0,0,1,.25.25l-.13-.16a1.25,1.25,0,0,1,.21.35l-.08-.19a1.81,1.81,0,0,1,.09.31l0-.19a.43.43,0,0,1,0,.16l0-.2a.88.88,0,0,1-.05.15l.08-.19a.41.41,0,0,1,0,.09l.13-.17a.38.38,0,0,1-.11.11l.18-.13-.1,0,.2-.08a.27.27,0,0,1-.12,0l.2,0h-.12l.2,0-.15,0,.19.07a.71.71,0,0,1-.15-.08l.16.12a.93.93,0,0,1-.14-.14l.12.16a.72.72,0,0,1-.12-.21l.08.19a.72.72,0,0,1,0-.21l0,.2a.49.49,0,0,1,0-.17.27.27,0,0,1,0-.09s0,.17,0,.07,0-.11,0-.17l0-.08s.06-.15,0,0,0,0,0,0l0-.08.08-.16.07-.13s.07-.09,0,0,0,0,0,0l-.16.12.06,0-.18.07q.1,0-.09,0a.48.48,0,0,1-.2,0c.12,0-.1-.1,0,0l.18.19-.12-.15a1.35,1.35,0,0,1,.19.33l-.07-.17a.57.57,0,0,1,0,.14.64.64,0,0,0,0,.07c0,.11,0-.07,0-.07v.22s0-.19,0,0a.25.25,0,0,1,0,.07c0,.08.08-.14,0-.08l-.07.11c0,.07.12-.12.06-.07l0,0a.52.52,0,0,1-.11.1l.16-.12-.21.16.16-.13a.71.71,0,0,1-.22.13l.19-.08a.79.79,0,0,1-.22.06l.2,0H73.8c-.09,0,.09,0,.1,0l-.19,0c.13,0,.17,0,.11,0h-.06c-.06,0,.14.07.09,0l-.13-.07.15.11a1.07,1.07,0,0,1-.19-.18l.12.15a.94.94,0,0,1-.14-.26l.07.17a1.29,1.29,0,0,1-.08-.26c0-.07,0-.2,0,0,0,0,0-.09,0-.14a2.83,2.83,0,0,1,0-.29c0-.12,0,.14,0,0a.83.83,0,0,0,0-.15.88.88,0,0,1,0-.15c0-.06,0,0,0,0a.43.43,0,0,1,0-.07.57.57,0,0,1,.08-.13c0-.06,0,0,0,0l0-.06s.07,0,.08-.08l0,0,.06,0,.07,0c-.1,0-.12,0-.06,0a.7.7,0,0,0,.14,0h0c-.1,0-.11,0,0,0h.07c.11,0-.14-.07,0,0s-.07-.08,0,0-.06-.12,0,0l0,.05c0,.06,0,0,0-.08a.36.36,0,0,0,0,.11c0-.12,0-.14,0-.08v.06c0,.1,0-.18,0,0s0,.06,0-.06l0,.05c0,.06,0,0,.06-.07s-.14.09.05,0l.1,0-.2.08,0,0a.59.59,0,0,1,.26-.07c-.07,0,0,0,.1,0-.07,0,0,0,.09,0-.09,0,.15.14,0,0l.12.14a.21.21,0,0,1,0-.06l.07.17c0-.07,0,0,0,.1a.69.69,0,0,0-.69-.69.73.73,0,0,0-.72.7Z"/><path class="cls-1" d="M84.65,101.35a1.79,1.79,0,0,0,.88.49,1.68,1.68,0,0,0,1.1-.15.62.62,0,0,0,.3-.67,1.35,1.35,0,0,0-1.34-1,1.92,1.92,0,0,0-1.43.59,1.74,1.74,0,0,0,.44,2.78,1.71,1.71,0,0,0,1.75-.24,1.55,1.55,0,0,0,.62-1.6,1.72,1.72,0,0,0-1.15-1.16,1.38,1.38,0,0,0-.83,0,1.63,1.63,0,0,0-.83.61,1.69,1.69,0,0,0-.08,1.82,1.77,1.77,0,0,0,.73.68,2.29,2.29,0,0,0,1,.23.76.76,0,0,0,.73-.55,2.17,2.17,0,0,0-1-2.46.8.8,0,0,0-.5-.08.75.75,0,0,0-.48.23l-.23.29a2,2,0,0,0-.21.28,1.17,1.17,0,0,0-.12.31.75.75,0,0,0,.28.81.82.82,0,0,0,.36.15.72.72,0,0,0,.5-.1,3.4,3.4,0,0,0,.28-.21,1.54,1.54,0,0,0,.21-.29l.19-.3-1.11.31a1.71,1.71,0,0,1,.23.13l-.17-.12a1.48,1.48,0,0,1,.25.25l-.12-.16a1.41,1.41,0,0,1,.19.34l-.07-.19a1.14,1.14,0,0,1,.07.32l0-.2a2.16,2.16,0,0,1,0,.36l0-.19,0,.16.73-.56h-.07l.19,0a1.32,1.32,0,0,1-.33-.08l.18.07a1.24,1.24,0,0,1-.3-.16l.16.12a2.16,2.16,0,0,1-.27-.25l.13.16a.76.76,0,0,1-.15-.26l.07.19a2.5,2.5,0,0,1-.07-.26l0,.19a1.22,1.22,0,0,1,0-.27l0,.19a1,1,0,0,1,.06-.23l-.07.18a1,1,0,0,1,.1-.18l-.12.15a.67.67,0,0,1,.15-.14l-.16.12a.38.38,0,0,1,.15-.09l-.19.07.17,0-.19,0h.21l-.19,0,.2,0-.17-.07a1.71,1.71,0,0,1,.23.13l-.15-.11a1.06,1.06,0,0,1,.15.15l-.12-.15a.88.88,0,0,1,.12.21l-.07-.18a1.46,1.46,0,0,1,0,.2l0-.19a1.09,1.09,0,0,1,0,.18l0-.18a1,1,0,0,1-.06.23l.07-.18a.88.88,0,0,1-.12.21l.12-.16a1,1,0,0,1-.18.17l.16-.12a.78.78,0,0,1-.18.11l.19-.08a.9.9,0,0,1-.27.07l.2,0a1.22,1.22,0,0,1-.27,0l.19,0a.66.66,0,0,1-.2-.06l.18.07a.7.7,0,0,1-.24-.13l.16.12a1.21,1.21,0,0,1-.2-.19l.12.15a1.64,1.64,0,0,1-.16-.26l.08.18a1.6,1.6,0,0,0-.1-.23l.07.17a1.37,1.37,0,0,1-.07-.29l0,.18a.81.81,0,0,1,0-.16s0-.05,0-.07,0,.17,0,.07,0-.09,0-.14-.07.15,0,0a.43.43,0,0,0,0-.07s.08-.09,0,.05l0-.05.12-.11c.09-.08-.11.07,0,0l.07,0a.61.61,0,0,0,.14-.07s-.15,0-.06,0l.07,0,.08,0c.1,0-.12,0,0,0h.16c.05,0,.11,0,0,0h.06l.08,0c.1,0,0,0,0,0l.08,0c.05,0,.06.07,0,0s.13.14.06,0,0,0,0,0l0-.09c0-.1,0-.12,0-.06l.62-.61a1.41,1.41,0,0,1-.2,0s.18,0,0,0l-.1,0-.08,0c-.12,0,.15.08,0,0l-.18-.1.15.11a2.18,2.18,0,0,1-.22-.21l.12.15-.06-.08a.77.77,0,1,0-1.21.93Z"/><path class="cls-1" d="M48,12.39c.45,0,.91,0,1.36,0a12.4,12.4,0,0,0,1.49-.2.67.67,0,0,0,.5-.62.64.64,0,0,0-.48-.62,14.78,14.78,0,0,0-1.47-.19c-.45,0-.92,0-1.37,0a.9.9,0,0,0-.88.85.85.85,0,0,0,.85.84Z"/><path class="cls-1" d="M47.35,14.92l2.11.13,1,.06a3.14,3.14,0,0,0,1.18-.1.74.74,0,0,0,.53-.6.69.69,0,0,0-.34-.71,5.69,5.69,0,0,0-2.33-.34l-2.14-.13a.88.88,0,0,0-.88.85.85.85,0,0,0,.84.84Z"/><path class="cls-1" d="M62.15,2.52a16.12,16.12,0,0,0-2.86.38c-.93.21-2.28.53-2.06,1.78a.74.74,0,0,0,.56.56,9.91,9.91,0,0,1,2,.79c.36.18.7.38,1,.59l.5.33s.22.16.09.07c.07.05.13.12.2.16l0,0c0,.08,0,.07,0,0a.37.37,0,0,1,0-.23c-.06.14.08-.1-.06.06s0,0,0,0L61.54,7l-.2.1-.15.07c.08,0,.07,0,0,0l-.52.16a4.51,4.51,0,0,1-.53.1h0l-.17,0h-.25a3.6,3.6,0,0,0-1.23.07.59.59,0,0,0-.28,1A1.69,1.69,0,0,0,59.25,9a4.82,4.82,0,0,0,1.2,0,4.22,4.22,0,0,0,2.32-.88A1.55,1.55,0,0,0,63.31,7a1.53,1.53,0,0,0-.63-1.15,11.79,11.79,0,0,0-2-1.21,14.44,14.44,0,0,0-2.47-.94l.57.56a.47.47,0,0,1-.13.44l0,0c-.08.06-.09.07,0,0l.09,0,0,0,.12,0,.26-.08c.33-.1.67-.19,1-.27a12.59,12.59,0,0,1,2-.28.79.79,0,0,0,.76-.75.73.73,0,0,0-.73-.73Z"/><path class="cls-1" d="M68.07,5.29c-.09-.8-.51-1.71-1.41-1.81s-1.67.79-2,1.6a3.3,3.3,0,0,0,0,2.56,2.07,2.07,0,0,0,2.53,1,2.94,2.94,0,0,0,1.86-2.79l-.08.3a1.2,1.2,0,0,0,.15-.37L67.8,5.65a3.54,3.54,0,0,0,.83,1.93,3.33,3.33,0,0,0,.74.66,1.58,1.58,0,0,0,1.06.35.7.7,0,0,0,.51-1.17,2.17,2.17,0,0,0-.37-.31c-.11-.06-.23-.11-.34-.18l-.13-.08c.1.06,0,0,0,0a2.27,2.27,0,0,1-.28-.26l-.13-.14s-.06-.09,0,0a2.92,2.92,0,0,1-.21-.32,2.17,2.17,0,0,1-.26-.59.7.7,0,0,0-1.36.18,1.76,1.76,0,0,0,.06.4V5.74a3.55,3.55,0,0,1-.2.63l-.11.21-.09.13,0,0a1.2,1.2,0,0,1-.22.23c-.07.06-.08.07,0,0l-.13.08s-.29.13-.15.08l-.29.08c.14,0-.15,0-.18,0h0l-.14,0c.12,0-.07,0-.08,0s-.08-.05,0,0l-.09-.08L66,7c.06.07.06.07,0,0a2.53,2.53,0,0,1-.12-.23c.06.15,0-.11,0-.14a2,2,0,0,1-.05-.26c0,.11,0-.14,0-.17a2.39,2.39,0,0,1,.07-.73,1.91,1.91,0,0,1,.38-.83A.5.5,0,0,1,67,4.45a1.32,1.32,0,0,1,.45.93c.06.37.7.28.66-.09Z"/><path class="cls-1" d="M72.38,8.36c0-.49,0-1,0-1.46a3.77,3.77,0,0,1,0-.67c0-.09,0-.31.12-.35s.37.16.44.26c.22.32.25.72.45,1.05a1.14,1.14,0,0,0,1.27.61,1.44,1.44,0,0,0,.94-1.35c0-.19,0-.38.05-.56a1.09,1.09,0,0,1,.09-.35l.1-.1s-.06,0,0,0,0,0,0,0c-.19-.12,0,.12,0,.2a7.38,7.38,0,0,1,.74,2.83.83.83,0,0,0,.82.82.87.87,0,0,0,.86-.83.94.94,0,0,0-.18-.59.61.61,0,0,0-.24-.21q.14.09,0,0a.62.62,0,0,0-.88,0c-.07.06-.06.06,0,0a.6.6,0,0,0-.25.22,1,1,0,0,0-.19.58h1.68a9.34,9.34,0,0,0-.92-3.32A1.72,1.72,0,0,0,76.1,4a1.59,1.59,0,0,0-1.43.73,3.9,3.9,0,0,0-.49,1.4,1.7,1.7,0,0,0-.1.32s0,.08,0,.07l.18-.08a.31.31,0,0,1,.44,0,.73.73,0,0,1-.1-.14c-.07-.11-.11-.23-.17-.34a1.8,1.8,0,0,0-2.52-1,2,2,0,0,0-.79,1.36,6.92,6.92,0,0,0-.22,2.07.76.76,0,0,0,.75.74.77.77,0,0,0,.77-.75Z"/><path class="cls-1" d="M77.74,6.8c.18,1.37.34,2.75.46,4.14a23.81,23.81,0,0,0,.43,4.13l.72-.89c-.17,0-.15,0,0,.09s.19.11.14,0a3.25,3.25,0,0,0,.06-.45c0-.3.1-.6.13-.91a11.13,11.13,0,0,0-.07-2.16c-.16-1.49-.59-3-.65-4.48a3.83,3.83,0,0,1,0-1.07c.08-.32.17-.37.49-.36a2.08,2.08,0,0,1,1.5.67c.43.52-.32,1.15-.67,1.5a15.31,15.31,0,0,1-1.49,1.29c-.5.4.14,1,.62.79,1.34-.56,3.77-2.37,2.87-4.09a2.9,2.9,0,0,0-2.07-1.42c-.72-.11-1.77,0-2.11.76a1.33,1.33,0,0,0,0,1,13,13,0,0,1,.38,1.49,21.91,21.91,0,0,1,.38,3.33,12,12,0,0,1-.3,3.22c-.15.69-.39,1.5.18,2.07a.74.74,0,0,0,1.2-.34,17.15,17.15,0,0,0-.12-4.35c-.13-1.46-.29-2.91-.48-4.36a.84.84,0,0,0-1-.59.89.89,0,0,0-.64,1Z"/><path class="cls-1" d="M82.41,1.06c.18,1.26.29,2.53.35,3.8,0,.62,0,1.24,0,1.86s-.07,1.35,0,2a.83.83,0,0,0,1.42.56,1.38,1.38,0,0,0,.42-.64A.66.66,0,0,0,84,7.82,1.48,1.48,0,0,0,83.2,8l1.21.9a21.4,21.4,0,0,0,.06-4.16c-.06-1.39-.2-2.78-.39-4.15A.85.85,0,0,0,83,0a.89.89,0,0,0-.63,1Z"/><path class="cls-1" d="M87.14,6.36a7.71,7.71,0,0,0,2.48.3,3.31,3.31,0,0,0,2-.65A1.55,1.55,0,0,0,92,4.11a3.32,3.32,0,0,0-1.61-1.37,2.55,2.55,0,0,0-2.19-.06,3.21,3.21,0,0,0-1.31,1.55,2.65,2.65,0,0,0-.28,2.27,2.68,2.68,0,0,0,1.76,1.42,10.47,10.47,0,0,0,2.67.3,11,11,0,0,0,3-.24.68.68,0,0,0-.15-1.33c-1.25,0-2.5.07-3.76,0-.67,0-2.23-.08-2.24-1.06a3.13,3.13,0,0,1,.49-1.3,1,1,0,0,1,.9-.66,2.38,2.38,0,0,1,1.31.56c.26.19.7.59.33.87a3.65,3.65,0,0,1-1.44.47,5.55,5.55,0,0,1-2.11,0,.45.45,0,0,0-.24.86Z"/><path class="cls-1" d="M62,15.17a4.46,4.46,0,0,0-2.2,1,.63.63,0,0,0,0,.88,16.83,16.83,0,0,1,1.5,1.3,2.18,2.18,0,0,1,.39.6.93.93,0,0,1,.07.32s0,.22,0,.1a.76.76,0,0,1-.06.2c0-.12,0,0,0,.07s0,0,0,0l-.15.15s-.12.09,0,0l-.18.11c-.17.1.13,0-.06,0L61,20c.14,0,0,0-.08,0h-.19c-.05,0-.05,0,0,0l-.11,0-.18,0-.1,0a3,3,0,0,1-.7-.39.57.57,0,0,0-.67-.08.58.58,0,0,0-.28.63,2.26,2.26,0,0,0,2.1,1.51A2.42,2.42,0,0,0,63,20.32a2.29,2.29,0,0,0-.34-2.53c-.54-.67-1.4-1-1.93-1.67l-.3,1c.35-.13.68-.32,1-.46a7.32,7.32,0,0,1,.9-.27.67.67,0,0,0,.49-.8.65.65,0,0,0-.8-.45Z"/><path class="cls-1" d="M63.6,18.43c.17,1.16.3,2.32.43,3.48.07.6.13,1.2.2,1.79a3.28,3.28,0,0,0,.46,1.76.56.56,0,0,0,.85-.13,3.34,3.34,0,0,0,.24-1.78c0-.62,0-1.24-.08-1.86-.09-1.24-.25-2.48-.43-3.71a.84.84,0,0,0-1-.59.89.89,0,0,0-.63,1Z"/><path class="cls-1" d="M64.64,17.07c0-.09.19-.15.32-.12a1.53,1.53,0,0,1,.63.5,3.31,3.31,0,0,1,.75,1.45,2.86,2.86,0,0,1,.06.35,1.8,1.8,0,0,1,0,.22v.1a.13.13,0,0,1,0-.05.18.18,0,0,1,.11-.1c-.06,0-.06,0,0,0h-.2a2.86,2.86,0,0,1-.42,0c-.59,0-1.32-.07-1.66.52a.36.36,0,0,0,.06.44.39.39,0,0,0,.45.05l.11,0,.16,0h.31l.18,0c-.06,0,0,0,0,0h.11a2.63,2.63,0,0,0,.49.05,1.35,1.35,0,0,0,.94-.21,1,1,0,0,0,.26-1,4,4,0,0,0-.64-1.67,3.17,3.17,0,0,0-1.39-1.25,1.13,1.13,0,0,0-1,.07.92.92,0,0,0-.44.94.37.37,0,0,0,.46.26.39.39,0,0,0,.29-.46Z"/><path class="cls-1" d="M72.59,17a5.67,5.67,0,0,0-2.32-.79,1.47,1.47,0,0,0-1.53,1.29c-.24,1.38.56,3.42,2.27,3a2.12,2.12,0,0,0,1.11-.72,2.75,2.75,0,0,0,.37-.62c.08-.2.14-.41.23-.6l-1.14-.45a1.88,1.88,0,0,0,.72,1.78,3.05,3.05,0,0,0,2,.74.65.65,0,0,0,.34-1.2c-.44-.28-.86-.37-1.31-.61l0,0-.11-.09a1.45,1.45,0,0,1-.21-.22c.05.06,0,0,0,0l-.09-.16s0-.12,0-.08,0-.13,0-.13a.62.62,0,0,0-.68-.44.66.66,0,0,0-.56.61,1.05,1.05,0,0,1-.34.76.56.56,0,0,1-.26.17l-.12,0h-.11a.49.49,0,0,1-.38-.28,1.69,1.69,0,0,1-.31-.7c0-.06,0-.13,0-.19s0-.19,0-.08a2.26,2.26,0,0,1,0-.45c0,.1.09-.25,0-.15l.06-.1s0,0,0,0h0c.05,0,.07,0,0,0a1.9,1.9,0,0,1,1,.06,4.06,4.06,0,0,1,1,.4c.47.24.91-.47.43-.74Z"/><path class="cls-1" d="M79.77,17a4,4,0,0,0-1.87.26,1.93,1.93,0,0,0-1.13,1.44,1.71,1.71,0,0,0,.85,1.71,9.93,9.93,0,0,0,1.55.81,5.38,5.38,0,0,0,2.25.56.66.66,0,0,0,.35-1.21,3.82,3.82,0,0,0-.54-.26l-.27-.1-.08,0c-.35-.13-.71-.25-1.06-.39l-.08,0-.23-.1-.42-.19-.44-.23-.18-.1s-.21-.14-.06,0L78.27,19l-.07-.08c.06.08.06.08,0,0s0,.15,0,0,0,.14,0-.05,0,.07,0-.05,0-.07,0-.11l0,.07a2,2,0,0,1,.12-.19c-.1.14,0,0,0,0l.08-.07c-.07.05-.08.06,0,0l.16-.09c-.13.07.07,0,.1,0l.22-.05s.21,0,.09,0l.27,0,.46,0a.66.66,0,0,0,.66-.64.63.63,0,0,0-.63-.63Z"/><path class="cls-1" d="M85.33,19.85a5.1,5.1,0,0,0,3.76-.24c.59-.27,1.28-.78,1-1.52s-.94-.88-1.52-1.07A3,3,0,0,0,86.8,17a2.24,2.24,0,0,0-1.25,1.22A7.25,7.25,0,0,0,85.06,20c-.12.73-.22,1.57.49,2a2.36,2.36,0,0,0,1.17.29l1.19.07,1.2,0a8,8,0,0,0,1.29-.15.71.71,0,0,0,.51-.75.68.68,0,0,0-.66-.58c-.28,0-.55-.07-.83-.08s-.55,0-.83,0c-.55,0-1.11,0-1.66,0h-.4s-.19,0-.07,0a.7.7,0,0,0-.14,0s.07,0,.07,0,0-.08,0,0,0,0,0,0,0,0,0-.1a9.76,9.76,0,0,1,.12-1.53c.09-.63.31-1.46,1.16-1.34a2.93,2.93,0,0,1,1.21.46,1.59,1.59,0,0,1,.13.13c0,.06.07-.34,0-.24s.13-.07,0,0l-.13.07-.35.17a4.07,4.07,0,0,1-2.84.12.69.69,0,0,0-.81.47.64.64,0,0,0,.45.78Z"/><path class="cls-2" d="M80.22,96.56c-7.76,4-12.28,11.77-14.55,19.93-1.18,4.2-2.54,9.51.64,13.15,2.91,3.34,7.94,4.46,12.18,3.91a14.61,14.61,0,0,0,6.56-2.4,8.53,8.53,0,0,0,2.3-2.3,8.28,8.28,0,0,0,1.07-3,7.68,7.68,0,0,1,.92-2.77,3.76,3.76,0,0,1,2.58-1.46c2.13-.42,4.3-.53,6.43-1,4.27-1,8.41-3,10.72-6.94a12.71,12.71,0,0,0,.3-12.35,13.18,13.18,0,0,0-4.18-4.6,13.89,13.89,0,0,0-6.49-2.17,46.72,46.72,0,0,0-15.63,1.15,34.07,34.07,0,0,0-3.86,1.11.63.63,0,0,0,.31,1.23,69.09,69.09,0,0,1,7.27-1.55A50,50,0,0,1,94.23,96a24.55,24.55,0,0,1,7.25.81,11.11,11.11,0,0,1,3.74,19,15.53,15.53,0,0,1-5.16,2.77,31.92,31.92,0,0,1-6.12,1.31c-1.89.22-4.06.32-5.5,1.74s-1.38,3.61-2,5.4A7.53,7.53,0,0,1,82.23,131a14,14,0,0,1-12.71-.37A7.51,7.51,0,0,1,65.93,126c-.54-2.23.08-4.68.56-6.86C68.16,111.49,72,103.94,78.27,99a23.58,23.58,0,0,1,2.43-1.65.48.48,0,0,0-.48-.83Z"/><path class="cls-2" d="M81.48,135.63c1.32,4.35,1.69,9,3.52,13.16a14,14,0,0,0,3.42,4.91,14.22,14.22,0,0,0,5.21,2.86,19.87,19.87,0,0,0,6.72.84.68.68,0,0,0,0-1.36c-3.69-.24-7.63-.75-10.61-3.13s-4.57-6.4-5.48-10.16c-.6-2.47-1.08-5-1.87-7.38-.19-.58-1.12-.33-.94.26Z"/><path class="cls-2" d="M106,159a48.83,48.83,0,0,1,.63-5.11c.15-.78.33-1.56.53-2.33a3.79,3.79,0,0,1,.89-2h-.86a5.15,5.15,0,0,1,1.08,2.76,27.77,27.77,0,0,1,.39,3.27c.07,1.05.15,2.09.26,3.13a8.42,8.42,0,0,0,.72,3.1.7.7,0,0,0,1.28-.35c-.05-1.1-.38-2.18-.52-3.28s-.23-2.31-.37-3.46a23,23,0,0,0-.59-3.3,5.37,5.37,0,0,0-1.39-2.73.62.62,0,0,0-.86,0,3.63,3.63,0,0,0-.86,1.91c-.19.94-.35,1.89-.49,2.83-.29,1.85-.55,3.7-.68,5.57,0,.54.8.52.84,0Z"/><path class="cls-2" d="M106.44,157.43c.46.12.92.26,1.39.36l.69.15a6.11,6.11,0,0,0,.86.08.72.72,0,0,0,.69-.53.68.68,0,0,0-.32-.78,6.51,6.51,0,0,0-.76-.34l-.7-.21c-.45-.14-.92-.25-1.38-.37a.89.89,0,0,0-1.06.61.84.84,0,0,0,.59,1Z"/><path class="cls-2" d="M113.38,157a15.38,15.38,0,0,0,3.58.2.64.64,0,0,0,.62-.54.6.6,0,0,0-.44-.66,15.43,15.43,0,0,0-3.51-.66,1,1,0,0,0-.65.09.84.84,0,0,0-.43.63.82.82,0,0,0,.16.62.86.86,0,0,0,.67.32Z"/><path class="cls-2" d="M114.09,160.17c.51,0,1,0,1.51,0,.25,0,.5,0,.75,0s.5,0,.75,0a.71.71,0,0,0,.67-.58.66.66,0,0,0-.47-.72,4.52,4.52,0,0,0-.72-.2c-.31-.05-.61-.09-.92-.12a11.16,11.16,0,0,0-1.53,0,.9.9,0,0,0-.88.85.83.83,0,0,0,.84.84Z"/><path class="cls-2" d="M122.9,164.84a4.27,4.27,0,0,0,3.92-.22,1.89,1.89,0,0,0,.89-1.49,1.58,1.58,0,0,0-.91-1.38c-1.21-.59-2.49.21-3.22,1.17a2.94,2.94,0,0,0-.69,1.83,3.21,3.21,0,0,0,.65,1.83,4.31,4.31,0,0,0,1.74,1.39,5.31,5.31,0,0,0,2.4.55.66.66,0,0,0,.2-1.28,3.83,3.83,0,0,0-.73-.22,7.38,7.38,0,0,1-.78-.19,4.24,4.24,0,0,1-1.24-.57,2.24,2.24,0,0,1-1-2c.11-.76.9-1.89,1.78-1.79a.9.9,0,0,1,.73.5.72.72,0,0,1-.33.78,2.86,2.86,0,0,1-1.35.51,4.91,4.91,0,0,1-1.87-.05.35.35,0,0,0-.19.67Z"/><path class="cls-2" d="M127.92,163.74c.42.75.87,1.49,1.34,2.21L130,167a7.37,7.37,0,0,0,.8,1,1.69,1.69,0,0,0,1.22.51,1.41,1.41,0,0,0,1.24-1,4.76,4.76,0,0,0,.23-1.24l.15-1.32c0-.5.11-1,.17-1.49,0-.25.05-.49.08-.74a1.16,1.16,0,0,0-.11-.86.57.57,0,0,0-.87-.1c-.38.33-.35,1-.43,1.49s-.16,1-.26,1.47-.19.91-.3,1.36l-.15.7c0,.09-.05.18-.07.26s0,0,0,0a.36.36,0,0,1,.11-.1.38.38,0,0,1,.26,0l-.07,0c.07,0,.07,0,0,0s0,0,0,0a3.12,3.12,0,0,1-.31-.35c-.28-.37-.55-.75-.82-1.13-.55-.79-1.07-1.6-1.57-2.43a.76.76,0,0,0-1.31.76Z"/><path class="cls-2" d="M136.37,165.09a6.38,6.38,0,0,0,2.31.46,2.58,2.58,0,0,0,1.85-.76,1.85,1.85,0,0,0,.35-2,2,2,0,0,0-1.27-1,2.94,2.94,0,0,0-3.23,1.44c-.79,1.16-1.21,2.86-.3,4.07,1.08,1.43,3.2,1.59,4.79,1.05a.64.64,0,0,0-.14-1.27c-1.06-.05-2.19.23-3.1-.3a1.33,1.33,0,0,1-.45-.38.93.93,0,0,1-.14-.22,1.45,1.45,0,0,1-.12-.35,2.67,2.67,0,0,1,.19-1.39c.26-.71.8-1.69,1.66-1.76a1.08,1.08,0,0,1,.94.38.73.73,0,0,1,0,.78,1.57,1.57,0,0,1-1.11.79,4.87,4.87,0,0,1-2-.32.43.43,0,0,0-.24.83Z"/><path class="cls-2" d="M144,167.94c-.07-1.05-.43-2-.6-3a2.33,2.33,0,0,1,.57-2.22,1,1,0,0,1,1.49.07,3.76,3.76,0,0,1,.92,2.19,8.16,8.16,0,0,1,.07,1.48,5.1,5.1,0,0,0,0,1.7c.17.53,1,.74,1.28.15a2.56,2.56,0,0,0,.24-.94c0-.29,0-.58,0-.87a11.49,11.49,0,0,0-.13-1.76,5.17,5.17,0,0,0-1.33-2.93,2.41,2.41,0,0,0-2.94-.47A3.23,3.23,0,0,0,142.1,164a28,28,0,0,0,.51,4,.66.66,0,0,0,.66.65.68.68,0,0,0,.68-.66Z"/><path class="cls-2" d="M149.17,158.59c.41,1.49.8,3,1.19,4.49.18.72.36,1.45.53,2.17a7,7,0,0,0,.7,2.31c.29.43,1.13.44,1.24-.17a6.56,6.56,0,0,0-.31-2.4c-.17-.75-.34-1.51-.52-2.26-.36-1.54-.75-3.07-1.16-4.59a.87.87,0,0,0-1.67.45Z"/><path class="cls-2" d="M147,160.94l4.3.34a38.3,38.3,0,0,0,4.29.28c.7,0,.94-1.11.19-1.27a32.06,32.06,0,0,0-4.37-.46c-1.46-.09-2.92-.18-4.38-.25a.68.68,0,0,0,0,1.36Z"/><path class="cls-2" d="M74.44,50.3a7.8,7.8,0,0,0-6.32,4.38,7.56,7.56,0,0,0,1.14,7.91c1.87,2.3,5.41,3.27,7.86,1.3a8.17,8.17,0,0,0,2.27-3.44,11.9,11.9,0,0,0,1-4.37,5.06,5.06,0,0,0-2.21-4.29,15.55,15.55,0,0,0-2.48-1.41,10,10,0,0,0-2.75-1c-.59-.08-1,.67-.44,1,1.23.74,2.65,1.2,3.91,1.9A4.39,4.39,0,0,1,78.88,55a7.12,7.12,0,0,1-.35,3.68,9.94,9.94,0,0,1-1.42,3.21,3.47,3.47,0,0,1-2.92,1.57A5,5,0,0,1,71,62.11a6.49,6.49,0,0,1-2-6.21,6.41,6.41,0,0,1,5.37-4.79c.51-.06.56-.86,0-.81Z"/><path class="cls-2" d="M66.38,62.7c-3.87,3.87-10,1.89-14.64,1.22A25,25,0,0,0,37.5,66.07a20.43,20.43,0,0,0-6.62,4.75.68.68,0,0,0,1,1,29.86,29.86,0,0,1,6-4.16,24.3,24.3,0,0,1,6.79-2.24,23.86,23.86,0,0,1,7.59,0c2.67.4,5.35,1.07,8.07,1a10.08,10.08,0,0,0,7-2.78.59.59,0,0,0-.85-.83Z"/><path class="cls-2" d="M.17,79a20.85,20.85,0,0,0,0,4.18,12.64,12.64,0,0,0,.39,2c.07.28.16.56.23.85a5.67,5.67,0,0,1,.06.72.4.4,0,0,0,.59.34,1.61,1.61,0,0,0,.68-1.61c0-.7-.16-1.4-.23-2.1A22.41,22.41,0,0,1,1.9,79a.84.84,0,0,0-.85-.84A.9.9,0,0,0,.17,79Z"/><path class="cls-2" d="M1.09,79.46a3.71,3.71,0,0,1,1.62-1.59c.42-.14,1.13-.09,1.35.37.3.63-.22,1.68-.49,2.23-.38.76-.85,1.46-1.21,2.23a1.11,1.11,0,0,0,.38,1.55c.37.2,1.35.08,1.39.6,0,.67-1.12,1.2-1.57,1.44a8.69,8.69,0,0,1-1.17.52,3.27,3.27,0,0,0-1.21.56.58.58,0,0,0,.25,1,4,4,0,0,0,2.37-.73,7,7,0,0,0,1.93-1.39,1.88,1.88,0,0,0,.47-1.87,1.5,1.5,0,0,0-1.36-1c-.14,0-.28,0-.42-.05s-.13,0-.11-.12c0-.34.43-.78.61-1.06A14.2,14.2,0,0,0,5.09,80c.53-1.33.49-3-1.16-3.44S1,77.68.18,79c-.38.58.54,1.06.91.5Z"/><path class="cls-2" d="M8.64,82c.49,0,1,0,1.49.06A10.61,10.61,0,0,0,11.62,82a.67.67,0,0,0,.63-.55.6.6,0,0,0-.45-.68,20.54,20.54,0,0,0-3.13-.46.85.85,0,0,0-.62.26.92.92,0,0,0-.26.59.85.85,0,0,0,.85.84Z"/><path class="cls-2" d="M8.64,85.73c.44.09.88.2,1.32.26s1,.12,1.46.14a.63.63,0,0,0,.61-.45.59.59,0,0,0-.28-.68q-.67-.3-1.35-.54c-.42-.15-.86-.25-1.29-.37a.89.89,0,0,0-1.06.61.83.83,0,0,0,.59,1Z"/><path class="cls-2" d="M17.42,79.83a3.8,3.8,0,0,0-1.49,1.56.73.73,0,0,0,.26,1c.9.37,2.25,1,1.67,2.18s-2.17,1.54-3.38,2a.48.48,0,0,0,0,.92A4,4,0,0,0,17.28,87,4.18,4.18,0,0,0,19.15,85a2.43,2.43,0,0,0-.25-2.44A5.65,5.65,0,0,0,17,81.1l.26,1a2.7,2.7,0,0,1,1-.95.76.76,0,1,0-.77-1.32Z"/><path class="cls-2" d="M21.06,83.67l.23,1c.08.31.21.62.32.92a.66.66,0,0,0,.31.4.69.69,0,0,0,1-.58,10.55,10.55,0,0,0-.12-1.13l-.19-1a.78.78,0,0,0-1-.55.83.83,0,0,0-.59,1Z"/><path class="cls-2" d="M20.57,79.81a.94.94,0,0,0-.06.15.52.52,0,0,0,0,.25.49.49,0,0,0,.08.23h0l-.07-.16a.06.06,0,0,1,0,0l0-.17a.06.06,0,0,1,0,.06l0-.17s0,0,0,.08l.07-.17c0,.06,0-.1-.08.17l0,.18h0v0l0-.17h0l0,.17v0l0-.18a.08.08,0,0,0,0,0l.07-.16s0,0,0,0l.11-.14s0,0,0,0l.14-.11h0l.16-.07h0l-.17.06-.13.11-.11.13a.48.48,0,0,0-.07.23.3.3,0,0,0,0,.16.3.3,0,0,0,.05.16.28.28,0,0,0,.08.15.4.4,0,0,0,.18.16.64.64,0,0,0,.19.08h0l.17,0h0a1.48,1.48,0,0,0,.19,0,.77.77,0,0,0,.35-.2l0,0,.12-.15h0a1.21,1.21,0,0,0,.08-.19.68.68,0,0,0,0-.4v0l-.07-.19,0,0a.79.79,0,0,0-.12-.15v0l-.15-.11-.16-.07-.17,0-.16,0a.66.66,0,0,0-.41.3Z"/><path class="cls-2" d="M25.25,86a6.46,6.46,0,0,1-.36-3l-.83.35a1.77,1.77,0,0,1,.52.44l.13.14c-.07-.08.05.08.05.08a1.63,1.63,0,0,1,.19.34,2,2,0,0,1,.11,1.22.63.63,0,0,0,.78.77,1.48,1.48,0,0,0,1.07-1.18l.09-.34.06-.19s.08-.18,0-.05l.07-.14.05-.09c-.05.07-.06.08,0,0s-.08,0,0,0,.19-.08,0,0l.16,0c.14,0-.11,0,0,0s.24,0,.13,0,.11,0,.14,0,.16.09,0,0l.16.09c.07,0,.06,0,0,0l.07.06s.16.19.07.06c.08.12.15.24.22.37s0-.07,0,.08.05.19.08.28a6.93,6.93,0,0,1,.16.91.56.56,0,0,0,.57.43.64.64,0,0,0,.59-.44,2.74,2.74,0,0,0-.25-2.35,2.14,2.14,0,0,0-2-1,1.75,1.75,0,0,0-1.57,1.36c-.06.26-.11.52-.19.77,0,0-.09.23,0,.09l-.07.12c.06-.07.07-.08,0,0s0,0,0,0-.05,0,0,0c-.07,0-.06,0,0,0l.61.8a3.05,3.05,0,0,0-.22-2.16,2.83,2.83,0,0,0-1.59-1.41.59.59,0,0,0-.72.55,16.26,16.26,0,0,0,0,1.71,17.42,17.42,0,0,0,.28,1.76.6.6,0,0,0,.73.41.62.62,0,0,0,.44-.73Z"/><path class="cls-2" d="M29.5,85.17c.17,1.22.28,2.44.35,3.67l.09,1.85a6.91,6.91,0,0,0,.22,1.92l1.11-.47a1.44,1.44,0,0,1,0-1c.12-.41-.43-.56-.65-.25a3.43,3.43,0,0,0-.51,1.52.56.56,0,0,0,.52.58.62.62,0,0,0,.67-.44,5.61,5.61,0,0,0,.26-1.92c0-.66,0-1.33,0-2-.07-1.32-.21-2.65-.39-4a.84.84,0,0,0-1-.59.89.89,0,0,0-.63,1Z"/><path class="cls-2" d="M30.61,84.9a1.51,1.51,0,0,1,.15-.28l.09-.14,0-.06c.07-.1,0,0,0,0,.15-.16.29-.33.46-.48l.13-.11c.11-.09-.16.11,0,0a2.9,2.9,0,0,1,.29-.19,2.49,2.49,0,0,1,.28-.15l.08,0-.1,0,.16-.05.13,0c.09,0-.17,0-.07,0h.06a.48.48,0,0,0,.12,0c-.13,0-.14,0-.07,0l.07,0s-.17-.09-.07,0,.08,0,0,0,0,0,0,0,.06.1,0-.06c0,0,0,.09,0,0h0s0,.13,0,0,0,0,0,0,0-.15,0-.07,0,.06,0,.08l-.06.18c0,.07,0-.06,0-.06s0,.07-.05.09l-.09.19a6,6,0,0,1-.37.6l-.13.17,0,0c-.06.07-.11.15-.16.22a.83.83,0,0,0-.11.15s.11-.14,0,0l-.06.08-.35.42h0l0,0-.15.18a.59.59,0,0,0-.06.78.63.63,0,0,0,.79.15A4.68,4.68,0,0,0,33,85.18a3.83,3.83,0,0,0,.82-1.81,1.35,1.35,0,0,0-.42-1.09,1.54,1.54,0,0,0-1-.36,2.93,2.93,0,0,0-1.68.64,4.59,4.59,0,0,0-1.38,1.59.76.76,0,0,0,.27,1,.83.83,0,0,0,1.08-.3Z"/><path class="cls-2" d="M34.15,79.42A16.11,16.11,0,0,0,36,85.68a.63.63,0,0,0,1.14-.48,39.49,39.49,0,0,1-1.23-5.79.86.86,0,0,0-.85-.84.9.9,0,0,0-.88.85Z"/><path class="cls-2" d="M39.58,84.53a2,2,0,0,0,2.52-1.36,2,2,0,0,0-1.71-2.4,2.44,2.44,0,0,0-2.52,2.1,3.49,3.49,0,0,0,2.72,4.21,2.66,2.66,0,0,0,2.12-.3A.71.71,0,0,0,43,86a.66.66,0,0,0-.66-.5,5.36,5.36,0,0,0-.69.06c-.15,0,0,0,0,0H41s.13,0,0,0l-.29-.07s-.27-.09-.15,0l-.29-.14-.13-.08-.07,0-.06,0-.11-.09-.2-.21,0-.06-.07-.1a2,2,0,0,1-.14-.25s-.12-.27-.08-.15a3.32,3.32,0,0,1-.16-.62c0,.11,0-.15,0-.18a2.62,2.62,0,0,1,0-.28,1.84,1.84,0,0,1,.11-.49s.06-.14,0-.08,0-.05,0-.05l.15-.24c.06-.11,0-.06,0,0l.09-.11.1-.1.08-.06a.62.62,0,0,1,.73-.1.93.93,0,0,1,.52.7A.68.68,0,0,1,41,83a.76.76,0,0,1-.27.31.84.84,0,0,1-.85.11.59.59,0,0,0-.71.4.55.55,0,0,0,.4.68Z"/><path class="cls-2" d="M16.11,96.65a3.94,3.94,0,0,0,2.18.42,1.81,1.81,0,0,0,1.38-1.14,1.36,1.36,0,0,0-.38-1.58,2.22,2.22,0,0,0-1.55-.43,3.06,3.06,0,0,0-2.52,1.7,3,3,0,0,0,.71,3.31,4.8,4.8,0,0,0,1.82,1.14,5,5,0,0,0,2.17.37.69.69,0,0,0,.65-.49.62.62,0,0,0-.3-.73,3.88,3.88,0,0,0-.72-.26l-.72-.16a5.09,5.09,0,0,1-1.24-.45,2.34,2.34,0,0,1-1.29-1.66,1.38,1.38,0,0,1,.14-.79,2,2,0,0,1,.6-.69,1.47,1.47,0,0,1,.88-.29c.24,0,.67.08.73.33a.3.3,0,0,1-.11.25.27.27,0,0,1-.08.07l-.09.06s-.1.05,0,0-.1,0-.12,0a2.52,2.52,0,0,1-1.36-.31.78.78,0,0,0-1,.28.72.72,0,0,0,.26,1Z"/><path class="cls-2" d="M20.79,97.47a14.15,14.15,0,0,1,1.31,1.26l.59.69c.11.15-.08-.1,0,.06l.12.16s.28.36.18.24,0,0,0,0l.1.12a.84.84,0,0,0,1,.33.86.86,0,0,0,.51-1c-.08-.34-.14-.68-.19-1,0-.1,0-.11,0,0s0-.11,0-.16a2,2,0,0,1,0-.25c0-.17,0-.35,0-.53,0-.35.05-.7.09-1s.05-.29.06-.53a1.46,1.46,0,0,0-.08-.62.58.58,0,0,0-1-.24,2.12,2.12,0,0,0-.52,1.28,11.49,11.49,0,0,0-.1,1.18,13.26,13.26,0,0,0,.1,2.44l1.55-.64A12.92,12.92,0,0,0,22,96.25a.89.89,0,0,0-1.22,0,.85.85,0,0,0,0,1.2Z"/><path class="cls-2" d="M26.33,99a4.55,4.55,0,0,0,2,.24,2.22,2.22,0,0,0,1.5-.89A1.64,1.64,0,0,0,30,96.7a2,2,0,0,0-1.13-1,1.86,1.86,0,0,0-1.48.08,2.2,2.2,0,0,0-1.05,1.27,2.71,2.71,0,0,0,.94,2.93,4.3,4.3,0,0,0,1.76.88,8.48,8.48,0,0,0,1.11.16l.55,0a3.55,3.55,0,0,0,.64-.1.66.66,0,0,0,.49-.62.63.63,0,0,0-.47-.61,8.22,8.22,0,0,0-1.4-.24,5.18,5.18,0,0,1-.66-.14l-.32-.1s-.13-.05,0,0l-.16-.07a3.24,3.24,0,0,1-.47-.28c-.11-.07.12.12,0,0l-.1-.09a2.28,2.28,0,0,1-.22-.22l0,0,0-.06-.13-.23s-.07-.15,0-.07,0,0,0-.06a2.13,2.13,0,0,1-.07-.27c0,.14,0-.07,0-.12s0-.27,0-.13l.06-.24a.36.36,0,0,0,0-.11c-.05.14,0,0,0,0a.36.36,0,0,1,.07-.1h0A1.29,1.29,0,0,1,28,97c-.1.09.07,0,.11-.06s-.13,0,0,0,.16,0,.08,0,0,0,.06,0h.11c.1,0-.07,0,0,0a.35.35,0,0,0,.11,0c.09,0-.07,0,0,0l.1,0s.12.07.06,0l.07.06.07.08c-.07-.08,0,0,0,0a.93.93,0,0,1,.05.1c0-.11,0,0,0,0a.43.43,0,0,1,0,.11c0-.13,0,0,0,0s0-.09,0,0-.06.13,0,0a.39.39,0,0,1-.06.11c.06-.1-.05,0-.06.07l-.09.09c-.09.09,0,0,0,0l-.11.07s-.14.06,0,0l-.13,0s-.18,0-.1,0a3.39,3.39,0,0,1-1.5-.25.71.71,0,0,0-.85.49.67.67,0,0,0,.47.83Z"/><path class="cls-2" d="M33.18,99.08,33,99,33,98.88c-.09-.09,0,0,0,.05s-.09-.13-.11-.16a.59.59,0,0,0,0-.08c-.07-.12,0,.11,0,0l-.06-.18a.29.29,0,0,0,0-.09c0-.09,0,.13,0,0s0-.34,0-.42,0,.13,0,0l0-.1a1.8,1.8,0,0,1,0-.19c0-.1,0,0,0,0s0-.09,0-.09l.11-.19c.1-.16-.09.1,0,0l.14-.14c.13-.13-.11.06,0,0l.22-.13c.11-.06,0,0,0,0s.1,0,.1,0l.21-.06c.07,0,.07,0,0,0h.47c.08,0-.06,0-.07,0l.22,0,.22,0s.09,0,.1,0-.11-.05-.06,0l.08,0a2.46,2.46,0,0,1,.39.22c.12.08-.12-.1,0,0l.18.18a.56.56,0,0,1,.15.16c0-.06-.09-.12,0,0l.07.11c.05.08.1.15.14.23l.05.12c.1.2-.05-.16,0,.05.28.78.28,1.63.55,2.41a.63.63,0,0,0,.6.45.65.65,0,0,0,.61-.46,4.16,4.16,0,0,0-1.95-4.87,3.16,3.16,0,0,0-2.64,0,2.63,2.63,0,0,0-1.41,1.82,2.55,2.55,0,0,0,.71,2.49.8.8,0,0,0,1.09,0,.75.75,0,0,0,0-1.07Z"/><path class="cls-2" d="M37.8,93.67a30,30,0,0,0,2,6.48c.3.67,1.31.16,1.18-.49-.44-2.16-1-4.28-1.49-6.44a.86.86,0,0,0-1-.59.88.88,0,0,0-.63,1Z"/><path class="cls-2" d="M37.55,96c.54.11,1.09.22,1.63.31l.82.14a7.73,7.73,0,0,0,1,.06.73.73,0,0,0,.72-.62.71.71,0,0,0-.51-.77c-.25-.09-.51-.2-.78-.27l-.77-.17c-.53-.12-1.07-.22-1.6-.32a.9.9,0,0,0-1.06.61.83.83,0,0,0,.59,1Z"/><path class="cls-1" d="M161.66,87.08c3.71.19,7.4-.18,11.1-.3s7.37-.07,11.06,0c7.29,0,14.57.19,21.86,0,4.17-.13,8.31-.53,12.45-1a.49.49,0,1,0-.11-1,96,96,0,0,1-11.1.89c-3.64.14-7.27.14-10.91.11-7.33-.06-14.67-.33-22,0-2,.09-4,.17-6,.29a57.81,57.81,0,0,1-6.31.17.46.46,0,0,0,0,.92Z"/><path class="cls-1" d="M163.17,80.64a2.34,2.34,0,0,0-2.48,2,7.79,7.79,0,0,0,0,2.21,25.59,25.59,0,0,1,.05,2.63,20.3,20.3,0,0,1-.25,2.58,3.44,3.44,0,0,0-.06,1.88c.53,1.38,2.33,1,3.2.24a.6.6,0,0,0-.58-1c-.36.12-.84.45-1.22.42s-.36-.62-.32-1a31.61,31.61,0,0,0,.32-3.5c0-1.13-.17-2.24-.24-3.36-.06-1,.19-2.47,1.48-2.35.46,0,.6-.76.12-.82Z"/><path class="cls-1" d="M216.83,82A1.47,1.47,0,0,1,218,83a7.09,7.09,0,0,1,.24,2.43c0,.89.05,1.79.09,2.69s.24,1.81.22,2.7l.72-.71c-.61,0-1.24,0-1.85,0a3.45,3.45,0,0,0-1.84.22.69.69,0,0,0,0,1.18c.52.33,1.32.13,1.91.1a18.08,18.08,0,0,0,1.94-.14.73.73,0,0,0,.52-.86,12.87,12.87,0,0,1-.06-1.65c0-.51-.05-1-.07-1.54,0-1.06,0-2.13-.11-3.19-.1-1.75-.85-3.61-2.82-3.8-1-.09-1,1.46,0,1.53Z"/><path class="cls-1" d="M153.42,85.49a3.61,3.61,0,0,0,.38,3,2.27,2.27,0,0,0,2.61.66,2.51,2.51,0,0,0,1.21-.92,2.38,2.38,0,0,0,.41-1.34,2.85,2.85,0,0,0-1.31-2.42,3.12,3.12,0,0,0-1.6-.45,3.41,3.41,0,0,0-.85.11,2,2,0,0,0-.49.17,2.07,2.07,0,0,0-.39.34.65.65,0,0,0-.11.78.67.67,0,0,0,.73.29l.14,0h0a2.22,2.22,0,0,0,.37-.09l.28-.08h.09c.08,0,.06,0,0,0h.52c.08,0,.06,0,0,0s.51.07.55.14-.14-.06,0,0l.1,0,.12.07,0,0q.09.06,0,0s.15.13.16.14l.09.1.06.06-.06-.08a1.64,1.64,0,0,0,.14.22l.06.11c0,.07,0,0,0,0a1,1,0,0,0,.08.25c0,.07,0,.19.05.25V87c0,.07,0,.06,0,0a.65.65,0,0,0,0,.2s0,.08,0,.12,0,.06,0,0a.3.3,0,0,1,0,.08c0,.06-.08.11-.11.18.07-.16.07-.1,0,0l-.08.09-.06,0c.13-.15.11-.08,0,0l-.21.11c.17-.11.13,0,.05,0l-.11,0-.19,0c.2-.06.12,0,.05,0h-.2c-.09,0-.22-.06,0,0l-.21,0-.09,0c-.08,0-.16-.09.05,0l-.17-.09-.09-.06c.22.13.08.06,0,0l0,0c-.06-.07,0,0,0,.07a.22.22,0,0,1,0-.08c-.05-.07-.08-.17-.14-.24l.05.12,0-.08a1.21,1.21,0,0,1-.05-.18s0-.08,0-.12c0-.2,0,.17,0,0a4.53,4.53,0,0,1,0-.64s0-.08,0-.12c0-.21,0,.16,0,0s.05-.23.07-.34a.84.84,0,0,0-.59-1,.91.91,0,0,0-1.07.62Z"/><path class="cls-1" d="M223,84.57c.16.63.29,1.27.48,1.89l.28.93c.09.31.23.61.35.92a.7.7,0,0,0,1.36-.19c0-.36-.06-.72-.12-1.08s-.14-.66-.2-1c-.14-.65-.32-1.29-.48-1.93a.85.85,0,0,0-1-.59.89.89,0,0,0-.63,1Z"/><path class="cls-1" d="M163.68,115.28c.14,1.09.22,2.19.26,3.29,0,.55,0,1.09,0,1.64a7,7,0,0,0,.05,1.71.55.55,0,0,0,1,.12,6,6,0,0,0,.3-1.84c0-.57.07-1.14.06-1.71a31.11,31.11,0,0,0-.25-3.6.73.73,0,0,0-.9-.51.78.78,0,0,0-.55.9Z"/><path class="cls-1" d="M164.71,114.49c.17-.2.33-.4.51-.58l.14-.13.06,0c.06,0,0,0,0,0s.11-.07.15-.1l.09-.05,0,0c-.08,0,.06,0,.09,0l.08,0c-.08,0,.06,0,.1,0H166c.14,0,0,0,0,0a.42.42,0,0,1,.15,0s.06,0,.06,0-.15-.08,0,0l.11.06s-.11-.1,0,0l.06.06s-.08-.12,0,0l0,.07c.05.07,0-.1,0,0a.19.19,0,0,0,0,.08s0,.13,0,0a.19.19,0,0,1,0,.08v.22l0,.38,0,.19c0-.14,0,.05,0,.1a2.37,2.37,0,0,1-.09.36l-.06.15c0,.12,0,0,0,0l0,.1-.09.16-.06.09c0,.06,0,0,0,0a1.54,1.54,0,0,1-.26.25s.05,0,.05,0-.07,0-.1.07a.8.8,0,0,1-.16.08l-.07,0c.09-.07.08,0,0,0l-.17,0c-.07,0,0,0,0,0-.17,0-.21,0-.12,0H165c.06,0,0,0,0,0l-.2,0c-.06,0,0,0,0,0l-.13,0a.45.45,0,0,0-.5.64,1.22,1.22,0,0,0,.85.55,2,2,0,0,0,1.13-.17,2.52,2.52,0,0,0,1.3-1.65,5.67,5.67,0,0,0,.18-1.08,2.35,2.35,0,0,0-.19-1.17,1.7,1.7,0,0,0-1.85-.78,3.1,3.1,0,0,0-1.79,1.35.62.62,0,0,0,0,.87.63.63,0,0,0,.89,0Z"/><path class="cls-1" d="M169.61,115.59a3.07,3.07,0,0,1-.26-.25l-.1-.12c.08.15,0,0-.05-.07a2.75,2.75,0,0,1-.17-.29s-.05-.1-.07-.16c0,.15,0,0,0,0a1.11,1.11,0,0,1-.08-.35c0,.15,0,0,0,0v-.16s0,0,0-.07,0-.06,0,0a.74.74,0,0,1,0-.14.88.88,0,0,1,.05-.15s0,0,0,0l0-.08a.75.75,0,0,0,.07-.12.35.35,0,0,0,.05-.08c-.05.07-.06.08,0,0s.12-.17.19-.19c-.08.06-.08.06,0,0l.07,0,0,0-.05,0s.1,0,.12,0l.08,0h.21c.07,0,.06,0,0,0h.09l.12,0,.07,0-.05,0a.54.54,0,0,0,.13.07l.1.06s.17.11.06,0a.54.54,0,0,0,.64.07.54.54,0,0,0,.26-.59,1.34,1.34,0,0,0-.5-.67,1.69,1.69,0,0,0-.61-.24,1.9,1.9,0,0,0-1.41.28,2.43,2.43,0,0,0-.84,2.72,3.48,3.48,0,0,0,.93,1.45.67.67,0,0,0,.93,0,.65.65,0,0,0,0-.91Z"/><path class="cls-1" d="M171.76,114.66a3.09,3.09,0,0,0,.38,1.49,1.44,1.44,0,0,0,1.65.64,1.67,1.67,0,0,0,1.16-1.47,1.91,1.91,0,0,0-.9-1.66,2,2,0,0,0-1.09-.31,2.87,2.87,0,0,0-.58.07,1.73,1.73,0,0,0-.56.24.59.59,0,0,0-.27.64.56.56,0,0,0,.54.42c.14,0,.27,0,.4,0a2.67,2.67,0,0,1,.4,0l-.17,0,.28,0-.17,0a2.17,2.17,0,0,1,.42.11l-.17-.07a1.58,1.58,0,0,1,.36.2l-.14-.11a1.18,1.18,0,0,1,.25.25l-.11-.15a1.92,1.92,0,0,1,.18.31l-.07-.17a1.29,1.29,0,0,1,.08.28l0-.17a1,1,0,0,1,0,.25l0-.17a.29.29,0,0,1,0,.09s-.05.15,0,0,0,0,0,0l-.06.09.11-.14a1.7,1.7,0,0,1-.19.19l.15-.11a1.71,1.71,0,0,1-.23.13l.17-.07-.19.05.17,0a.61.61,0,0,1-.19,0l.17,0-.17,0,.16.06a.87.87,0,0,1-.19-.1l.14.11a1.29,1.29,0,0,1-.16-.17l.11.14a1.14,1.14,0,0,1-.18-.3l.07.17a2.92,2.92,0,0,1-.15-.65l0,.17a2.64,2.64,0,0,1,0-.28.67.67,0,0,0-.2-.48.66.66,0,0,0-.48-.19.72.72,0,0,0-.7.68Z"/><path class="cls-1" d="M175.26,111.66c.13.77.25,1.6.33,2.33,0,.41.09.83.13,1.23a2.88,2.88,0,0,0,.34,1.29.52.52,0,0,0,.89,0,2.88,2.88,0,0,0,.26-1.39c0-.41,0-.82-.05-1.23-.07-.88-.18-1.76-.32-2.64a.8.8,0,0,0-1-.56.84.84,0,0,0-.6,1Z"/><path class="cls-1" d="M177.26,114.38l.22-.2s.06,0,.07-.06-.14.1,0,0l.15-.1.26-.14c-.15.09,0,0,0,0l.18,0h.06c.09,0-.13,0,0,0h.13l.16,0c.1,0-.14-.06,0,0l.11.07.05,0c.07,0-.11-.09-.05,0l.1.1s.08.09,0,0,0,0,0,0a.33.33,0,0,1,0,.06s0,.06,0-.06l0,.12s0-.06,0-.07,0,.06,0,.09,0-.09,0,0,0,.09,0,.13.06-.12,0,0l0,0a.21.21,0,0,1,0,.06c0,.09.07-.08,0,0l-.19.18c-.06.06.11-.07,0,0l-.05,0-.14.08-.14.07c-.1.05.14,0,0,0l-.31.1c-.24.06-.48.12-.72.2a2.62,2.62,0,0,0-.43.18,1.74,1.74,0,0,0-.37.3.48.48,0,0,0,.47.82c.47-.18,1-.26,1.47-.4a2.57,2.57,0,0,0,1.43-.94,1.46,1.46,0,0,0,0-1.65,1.85,1.85,0,0,0-1.53-.77,2.92,2.92,0,0,0-1.86.91.66.66,0,0,0,0,.94.7.7,0,0,0,1,0Z"/><path class="cls-1" d="M183,113.14a1.47,1.47,0,0,0-1.55.24,1.7,1.7,0,0,0-.6,1.37,2,2,0,0,0,.54,1.44A1,1,0,0,0,183,116a1.76,1.76,0,0,0,.22-.55.56.56,0,0,0,0-.12s0,0,0,0-.06.11,0,0l.06-.11s.12-.16,0,0l-1-.11,0,0-.08-.31a1.39,1.39,0,0,0,.27.73c.1.16.21.31.32.46a4.6,4.6,0,0,0,.46.53,2.1,2.1,0,0,0,.56.37.62.62,0,0,0,.72-.1.6.6,0,0,0,.11-.71,4.11,4.11,0,0,0-.39-.54l-.35-.4-.16-.2a.73.73,0,0,1-.08-.09c-.09-.11.08.11,0,0l-.17-.21s-.13-.12,0,0c-.06-.06-.11-.16-.16-.21a.75.75,0,0,0-.2-.15l.22.22,0,0a.64.64,0,0,0-.52-.29.67.67,0,0,0-.54.31,1.62,1.62,0,0,0-.1.18,2.29,2.29,0,0,0-.1.23v0c.05-.13.05-.11,0,.06a1.8,1.8,0,0,0-.08.21c.07-.2,0,0-.05.07v0l.05-.06s-.13.11,0,0,.06,0,0,0,0,0,.1,0c-.1,0,.17,0,.07,0h.07c.1,0,.13,0,.07,0l.08.06s0,0-.05,0,.09.14,0,0l-.06-.11c-.06-.12,0,.14,0,0s0-.11-.05-.17l0-.14s0-.2,0-.09v-.1s0-.12,0-.13,0,.1,0,0l0-.09a.14.14,0,0,1,0-.06s0,0,0,.06a.57.57,0,0,0,.08-.13l-.05.07s0,0,.05,0l0,0-.06,0,.12-.07c.1-.06-.14,0,0,0s-.09,0,0,0h0c.06,0,.05,0-.05,0a.57.57,0,0,0,.14,0,.64.64,0,0,0,.47-.06.63.63,0,0,0,.26-.3.6.6,0,0,0-.25-.76Z"/><path class="cls-1" d="M184.72,111.52l.44,2.38a14.48,14.48,0,0,0,.51,2.37.75.75,0,0,0,1,.49.77.77,0,0,0,.39-1.08,1.73,1.73,0,0,1,.18-1.6,1.08,1.08,0,0,1,.44-.33l.11,0s.18,0,.11,0,.17,0,.11,0l.09.05a.67.67,0,0,1,.15.14c-.07-.08,0,.07,0,.08s0,.06,0,.08,0,.1,0,0a.37.37,0,0,1-.12.2c-.11.11-.23.2-.35.3-.48.38-1.09.68-1.62,1a.55.55,0,0,0,.41,1,4.75,4.75,0,0,0,2-1.07,1.79,1.79,0,0,0,.87-1.82,1.69,1.69,0,0,0-1.58-1.21,2.07,2.07,0,0,0-1.67,1,2.78,2.78,0,0,0-.42,1.11,10,10,0,0,1-.21,1.22l1.51.18a15.94,15.94,0,0,0-.36-2.56l-.43-2.43a.85.85,0,0,0-1-.59.9.9,0,0,0-.64,1Z"/><path class="cls-1" d="M190.64,114.73l.18.74a5.53,5.53,0,0,0,.33.85l.11.15a.55.55,0,0,0,.23.14.73.73,0,0,0,1-.66v-.37a3.41,3.41,0,0,0-.05-.55l-.12-.75a1,1,0,0,0-.4-.52.89.89,0,0,0-1.18.34.86.86,0,0,0-.1.63Z"/><path class="cls-1" d="M191.7,111.73h0l0,.13v0l.07-.16a.52.52,0,0,0,0-.25.32.32,0,0,0,0-.16.41.41,0,0,0-.14-.21l0,0a.46.46,0,0,0-.21-.13.53.53,0,0,0-.25,0,.54.54,0,0,0-.25.06.55.55,0,0,0-.23.14l-.1.14a.71.71,0,0,0-.1.32l0,.17a.59.59,0,0,0,.18.29l0,0a.39.39,0,0,0,.21.13.43.43,0,0,0,.25,0l.17,0a.65.65,0,0,0,.31-.18h0l-.26.15h0a.58.58,0,0,0,.25-.15.49.49,0,0,0,.14-.23Z"/><path class="cls-1" d="M193.1,111.1c.17.93.33,1.86.47,2.8.07.46.17.91.25,1.37a3.6,3.6,0,0,0,.45,1.4.58.58,0,0,0,1-.15,3.54,3.54,0,0,0,.08-1.52c0-.5-.08-1-.15-1.49-.14-1-.29-1.91-.46-2.86a.85.85,0,0,0-1.05-.6.91.91,0,0,0-.63,1Z"/><path class="cls-1" d="M196.89,114.44c.07.35.13.7.22,1l.13.5a3.07,3.07,0,0,0,.29.64.71.71,0,0,0,.79.31.76.76,0,0,0,.55-.68l0-.27a1.89,1.89,0,0,0,0-.41l-.08-.54c-.06-.35-.15-.69-.22-1a.85.85,0,0,0-1-.59.89.89,0,0,0-.63,1Z"/><path class="cls-1" d="M197.83,111.69a.94.94,0,0,0,0-.44,1.33,1.33,0,0,0-.13-.33l0,.12v0l0-.12-.08-.11-.11-.07a.35.35,0,0,0-.18-.06.2.2,0,0,0-.13,0,.27.27,0,0,0-.12,0,.24.24,0,0,0-.12.07.29.29,0,0,0-.13.14.52.52,0,0,0-.06.13.42.42,0,0,0-.05.2v.06a2.91,2.91,0,0,0,0,.31,1,1,0,0,0,0,.16s0,.11.06.15l.05.07a.27.27,0,0,0,.11.1l.09.06.19.07a.57.57,0,0,0,.26,0,.5.5,0,0,0,.19-.1.35.35,0,0,0,.13-.14.45.45,0,0,0,.07-.25s0,0,0-.08v0a.11.11,0,0,0,0-.08.43.43,0,0,0-.06-.22s0,0,0,0a.7.7,0,0,1-.09-.17l.06.14a.69.69,0,0,1-.05-.13.44.44,0,0,0-.07-.19l0,0-.58.73h0l-.12,0,.07,0-.09-.07.07.07-.07-.09,0,.06,0-.11,0,.12v0a.21.21,0,0,0,0,.15.22.22,0,0,0,.08.13l.09.06a.25.25,0,0,0,.15,0,.17.17,0,0,0,.1,0,.43.43,0,0,0,.16,0,.44.44,0,0,0,.19-.25Z"/><path class="cls-1" d="M200.52,111.31a19.27,19.27,0,0,0,.63,5.08.54.54,0,0,0,1,0,19.63,19.63,0,0,0,.06-5.08.84.84,0,0,0-.84-.84.89.89,0,0,0-.88.85Z"/><path class="cls-1" d="M201.36,113.48l1,0c.35,0,.68,0,1-.07a.51.51,0,0,0,.5-.49.49.49,0,0,0-.48-.48c-.34,0-.67-.06-1-.07l-1,0a.6.6,0,0,0-.6.58.57.57,0,0,0,.57.57Z"/><path class="cls-1" d="M204.89,114.44c.08.37.14.75.22,1.12,0,.18.08.36.13.55a3.19,3.19,0,0,0,.28.66.73.73,0,0,0,.81.32.76.76,0,0,0,.55-.69l0-.31a2,2,0,0,0,0-.42l-.1-.56c-.06-.38-.14-.75-.21-1.12a.86.86,0,0,0-1-.59.9.9,0,0,0-.63,1Z"/><path class="cls-1" d="M205.72,111.68a.77.77,0,0,0,.07-.17.63.63,0,0,0,0-.19l0,.13,0-.19a1.23,1.23,0,0,0,0-.19v.13c0-.06,0-.13,0-.2v0c0-.06,0-.11-.07-.17l.06.14c0-.06-.05-.12-.08-.19l0,0a.51.51,0,0,0-.23-.23.72.72,0,0,0-.32-.08.63.63,0,0,0-.33.09.69.69,0,0,0-.24.24.56.56,0,0,0-.07.16h0a.43.43,0,0,0,0,.25.5.5,0,0,0,0,.12v.09a.49.49,0,0,0,.07.19.76.76,0,0,0,.11.14l.13.1a1,1,0,0,0,.16.06h0a.41.41,0,0,0,.22,0,.33.33,0,0,0,.14,0l.08,0h0l.07-.06a.52.52,0,0,0,.18-.18l.06-.16s0-.06,0-.09a.49.49,0,0,0,0-.24v-.15a.16.16,0,0,0,0-.09.36.36,0,0,0,0-.09l-.1-.13h0l-.31,1.07h0l-.16,0h.06l-.15,0h0l-.14,0,.06,0-.11-.08,0,0-.08-.11,0,.07-.05-.12s0,0,0,0v-.13a.22.22,0,0,1,0,.08l0-.13s0,0,0,0a.41.41,0,0,0,0,.19.32.32,0,0,0,.06.18l.08.1a.31.31,0,0,0,.15.1.27.27,0,0,0,.12,0,.4.4,0,0,0,.19,0l.13,0a.62.62,0,0,0,.18-.18Z"/><path class="cls-1" d="M208.83,115.51a2,2,0,0,0,2.45-.23,1.34,1.34,0,0,0,.32-1.16,1.43,1.43,0,0,0-.67-.87,1.6,1.6,0,0,0-2.16.58,2.14,2.14,0,0,0,.12,2.34,3.37,3.37,0,0,0,1.1,1,3.61,3.61,0,0,0,.76.32,3.15,3.15,0,0,0,.8.11.66.66,0,0,0,.63-.47.62.62,0,0,0-.29-.7,3.07,3.07,0,0,0-.39-.23l-.43-.18-.39-.19-.2-.11-.07,0c-.15-.09.12.1,0,0l-.29-.26-.06-.08c-.06-.06,0,0,0,0s-.11-.17-.13-.21l0-.1,0-.11a.65.65,0,0,1,0-.19s0,.11,0,0v-.11a.28.28,0,0,1,0-.09c0-.09,0,.11,0,0l0-.15c0-.12,0,0,0,0s0-.07,0-.08.08-.11.11-.17-.08.07,0,0l0,0,.06-.06h0l.08,0s.08,0,0,0l.08,0c.07,0,0,0,0,0a.11.11,0,0,0,.08,0c-.08,0,0,0,0,0s.19.06.09,0l.15.08h0s0,0,0,.05,0,0,0,0l0,.07s0,.08,0,0a.31.31,0,0,1,0,.08s0,.08,0,0,0,.07,0,0-.07.17,0,.09a.56.56,0,0,0,0,.08c0-.06,0,0,0,0a.46.46,0,0,0-.07.07c-.06,0,.1-.06,0,0l-.09,0a.84.84,0,0,1-.24.07s.05,0,0,0H210l-.18,0a1.89,1.89,0,0,1-.45-.17.54.54,0,0,0-.71.2.51.51,0,0,0,.18.7Z"/><path class="cls-1" d="M214.81,112.81l-.47.25a.77.77,0,0,0-.17,1.21,3.49,3.49,0,0,0,.35.32c.08.06-.06-.1,0,0l.06.09a1.59,1.59,0,0,1,.13.22s.08.17,0,.07,0,0,0,.05.05.14.07.22a.52.52,0,0,0,0,.11c0,.09,0-.1,0,0a2.53,2.53,0,0,1,0,.28,1.85,1.85,0,0,1,0,.23s0,.07,0,.11,0,.14,0,.05,0,.08,0,.08l0,.11a2.33,2.33,0,0,1-.07.25l0,.1c0,.1.06-.1,0,0l-.12.22c-.08.15-.19.28-.28.42s-.08.12,0,0l-.15.2a.76.76,0,0,0-.16.44.66.66,0,0,0,.52.67c.55.11,1-.41,1.26-.85a3.58,3.58,0,0,0,.43-2.1,4.06,4.06,0,0,0-.93-2.36l-.18,1.21.49-.2a.79.79,0,0,0,.31-1.09.8.8,0,0,0-1.09-.27Z"/><path class="cls-2" d="M109.28,95.36c3.06-10.75,11.25-19.31,21.16-24.16A56.79,56.79,0,0,1,148.68,66a77.67,77.67,0,0,1,9.52-.53,35.16,35.16,0,0,1,8.12.77,11.57,11.57,0,0,1,7,4.32c1.9,2.79,1.9,6.28,2.12,9.53a.61.61,0,0,0,1.21,0,19.84,19.84,0,0,0-1.52-8.92,10.92,10.92,0,0,0-5.8-5.21,24,24,0,0,0-7.91-1.57,70.64,70.64,0,0,0-9.65.2c-12.46,1-24.85,5.36-33.87,14.3a37.37,37.37,0,0,0-9.85,16.19c-.23.78,1,1.06,1.21.3Z"/><path class="cls-2" d="M175.25,85.05c-.05.81-.08,1.62-.07,2.43,0,.41,0,.82,0,1.22a9.47,9.47,0,0,0,.19,1.3.7.7,0,0,0,.78.51.74.74,0,0,0,.64-.7c0-.41.07-.81.06-1.22s0-.78,0-1.17c0-.79,0-1.59.08-2.38a.83.83,0,0,0-.84-.84.9.9,0,0,0-.88.85Z"/><path class="cls-2" d="M172.45,78.33l1.23,1.35a5.92,5.92,0,0,0,1.47,1.26.65.65,0,0,0,.77-.12.71.71,0,0,0,.16-.28.65.65,0,0,0-.05-.47,6,6,0,0,0-1.14-1.6c-.4-.46-.8-.91-1.21-1.36a.87.87,0,0,0-1.23,1.22Z"/><path class="cls-2" d="M176.86,80.34c.5-.49,1-1,1.53-1.42l.77-.66a3.28,3.28,0,0,0,.78-.84.55.55,0,0,0,0-.6.54.54,0,0,0-.58-.19,1.66,1.66,0,0,0-.35.13c-.07,0-.13.1-.2.15s-.33.26-.48.4a9,9,0,0,0-.78.73c-.5.49-1,1-1.45,1.52a.57.57,0,0,0,0,.8.6.6,0,0,0,.81,0Z"/><path class="cls-2" d="M169.61,95.37c.08,1,.15,2,.25,3,0,.52.11,1,.2,1.57a3.62,3.62,0,0,0,.43,1.48.47.47,0,0,0,.8,0,3.41,3.41,0,0,0,.24-1.49c0-.52,0-1,0-1.55,0-1-.11-2-.19-3a.85.85,0,0,0-.84-.84.89.89,0,0,0-.88.85Z"/><path class="cls-2" d="M170.34,95.26a3.41,3.41,0,0,1,1.51-.46,1.54,1.54,0,0,1,.67.14l.16.1c.08,0-.05-.05,0,0l.05,0,.12.12.06.07c0-.06,0,0,0,0a1.59,1.59,0,0,1,.15.29c0-.11,0,0,0,0s0,.13,0,.19,0,.17,0,.1,0,.23,0,.09,0,0,0,0v.24s0,.14,0,.06a1,1,0,0,1,0,.1,1.09,1.09,0,0,1,0,.17s-.05.09,0,0a.25.25,0,0,0,0,.07.86.86,0,0,1-.1.16.35.35,0,0,1-.05.08s.08-.09,0,0l-.12.11-.12.11c.11-.09-.05,0-.09,0l-.18.1-.08,0c.07,0,0,0,0,0a1.86,1.86,0,0,1-.39.1c.11,0,0,0,0,0l-.15,0h-.59a.45.45,0,0,0-.24.83,2.15,2.15,0,0,0,2,0,2.42,2.42,0,0,0,1.29-1.46,2.28,2.28,0,0,0-.25-1.87,2.13,2.13,0,0,0-1.76-1,4,4,0,0,0-2.24.75.34.34,0,0,0,.34.6Z"/><path class="cls-2" d="M175.61,95.17a6.25,6.25,0,0,0-1,3.91,3.19,3.19,0,0,0,.89,1.7,5.05,5.05,0,0,0,.71.59,3.88,3.88,0,0,0,.87.42.72.72,0,0,0,.79-.33.71.71,0,0,0-.1-.83c-.32-.35-.68-.64-1-1l-.12-.13c0,.06,0,0,0,0a1.83,1.83,0,0,1-.18-.3,1.55,1.55,0,0,1-.17-.55,3,3,0,0,1,.17-1.26A9.07,9.07,0,0,1,177.1,96a.84.84,0,0,0-.31-1.15.89.89,0,0,0-1.18.33Z"/><path class="cls-2" d="M178.44,99.54a.75.75,0,0,0,0,1.06.78.78,0,0,0,1.09,0c.42-.38.31-1.1.35-1.62a11,11,0,0,1,.24-1.61c.06-.28.13-.55.21-.82s.07-.27.12-.4.07-.14.07-.17,0,0-.05,0a.23.23,0,0,1-.18,0s0,0,0,0,.15.27.19.37c.18.53.38,1.05.57,1.57s.36,1,.55,1.57a7.22,7.22,0,0,0,.72,1.63.59.59,0,0,0,.64.25.6.6,0,0,0,.43-.54,13.46,13.46,0,0,0-1-3.2c-.21-.54-.4-1.08-.61-1.62a2,2,0,0,0-.79-1.15,1.1,1.1,0,0,0-1.44.36,4.2,4.2,0,0,0-.45,1.39q-.19.8-.36,1.59c-.06.28-.11.55-.17.83s-.05.27-.07.41a1.55,1.55,0,0,1,0,.21c0,.15,0,.14.08,0l.52-.21H179l.49.19,0,0,.19.32,0,0-.19.66,0,0a.7.7,0,0,0,0-1,.73.73,0,0,0-1,0Z"/><path class="cls-2" d="M179.93,99.76h.52a3.08,3.08,0,0,0,.68-.08l.16-.07a.55.55,0,0,0,.2-.17.68.68,0,0,0,.14-.38.63.63,0,0,0-.09-.33.37.37,0,0,0-.17-.18.42.42,0,0,0-.22-.11l-.24-.09-.11,0-.13,0-.51-.09a.82.82,0,0,0-.41,0l-.2.08a.86.86,0,0,0-.3.3.58.58,0,0,0-.09.29.61.61,0,0,0,0,.3.59.59,0,0,0,.15.28.57.57,0,0,0,.23.2.76.76,0,0,0,.39.1Z"/><path class="cls-2" d="M183.77,95.35A3.91,3.91,0,0,1,185.15,98a4.74,4.74,0,0,1-1.08,3.07c-.36.5.36,1.2.86.84,2.53-1.85,2.32-5.82.06-7.79a.9.9,0,0,0-1.22,0,.84.84,0,0,0,0,1.2Z"/><path class="cls-2" d="M83.09,57.82C91,63.23,101.62,60.9,110,58c9.48-3.28,18.24-8.26,27.45-12.2a87,87,0,0,1,14.69-4.88A79,79,0,0,1,168.25,39c5.22-.1,10.64.13,15.66,1.66a28.4,28.4,0,0,1,12.21,8.11,29.48,29.48,0,0,1,7.46,12.93c1.24,4.82,1.26,9.78,1.19,14.72,0,1.23,0,2.46-.05,3.7,0,.69,1,.65,1.07,0a74,74,0,0,0-.38-15A29.18,29.18,0,0,0,200,51.46a36.73,36.73,0,0,0-10.91-9.94c-4.51-2.53-9.7-3.35-14.8-3.66a79.13,79.13,0,0,0-31.72,4.67C133,46,124.14,51.05,114.75,54.91a69.47,69.47,0,0,1-14.3,4.43c-4.54.8-9.48.89-13.81-.92a16.25,16.25,0,0,1-2.94-1.64c-.62-.43-1.26.6-.61,1Z"/><path class="cls-2" d="M201.6,77.87c.53.56,1,1.15,1.52,1.75.12.14.23.29.35.44l.08.1,0,0,.18.25.78,1c.29.37,1,0,.83-.48a12.56,12.56,0,0,0-2.64-4.18.81.81,0,0,0-1.12,0,.77.77,0,0,0,0,1.09Z"/><path class="cls-2" d="M206.24,80.59c.37-.43.76-.83,1.15-1.24.19-.2.39-.39.59-.58s.39-.42.58-.63a.54.54,0,0,0,.05-.71.55.55,0,0,0-.71-.13,7.17,7.17,0,0,0-.79.57c-.21.19-.42.38-.62.58a15.19,15.19,0,0,0-1.15,1.26.7.7,0,0,0-.19.45.6.6,0,0,0,.18.45.66.66,0,0,0,.91,0Z"/><path class="cls-2" d="M203.89,84.36c.05.72.09,1.43.16,2.14a16.45,16.45,0,0,0,.3,2.22.64.64,0,0,0,.7.46.68.68,0,0,0,.58-.63,14.74,14.74,0,0,0,.06-2.1c0-.71,0-1.4-.07-2.11a.85.85,0,0,0-.85-.83.9.9,0,0,0-.88.85Z"/><path class="cls-2" d="M198.71,95.66a31.48,31.48,0,0,0,.76,5,.45.45,0,0,0,.87-.12,32.37,32.37,0,0,0-.15-4.92.73.73,0,0,0-.73-.72.75.75,0,0,0-.75.73Z"/><path class="cls-2" d="M200.06,96.31l.33-.18.17-.08.08,0c.07,0,.06,0,0,0s.12,0,.17-.07l.18,0s.13,0,.17,0-.09,0,0,0h.25a2.17,2.17,0,0,0,.24.07l0,0,.06,0s.09.07.12.07-.08-.06,0,0l.05,0,0,0,0,0,0,.06c0,.06,0,0,0,0s0,.12,0,.14,0,0,0,0v.14s0,0,0,0a.5.5,0,0,0,0,.13c0,.1.05-.1,0,0a.75.75,0,0,1-.07.12l0,.06,0,0s-.08.09-.1.12l-.11.1-.23.2-.12.1s0,0,0,0l-.07,0a1,1,0,0,0-.32.32.4.4,0,0,0,.35.6,1.22,1.22,0,0,0,.66-.23,3.36,3.36,0,0,0,.54-.39,1.84,1.84,0,0,0,.61-1.16,1.69,1.69,0,0,0-1.84-1.64,4.38,4.38,0,0,0-1.68.55.66.66,0,0,0-.25.89.66.66,0,0,0,.9.23Z"/><path class="cls-2" d="M203.54,95.56a5.58,5.58,0,0,0,.93,5.83.63.63,0,0,0,1-.75,5.93,5.93,0,0,1-.26-4.67.81.81,0,0,0-.59-1,.9.9,0,0,0-1.06.61Z"/><path class="cls-2" d="M206.23,97.28c.07.28.12.56.17.84l.06.43,0,.22s0,.23,0,.07c0,.17,0,.35.06.52l0,.22v.1c0-.07,0-.06,0,0a8.49,8.49,0,0,0,.13.92.5.5,0,0,0,.48.37.57.57,0,0,0,.5-.38,5,5,0,0,0,.33-1.85,11.24,11.24,0,0,0-.18-1.92.82.82,0,0,0-1-.57.86.86,0,0,0-.62,1Z"/><path class="cls-2" d="M207.85,97a2,2,0,0,1,.67-.24,1.72,1.72,0,0,1,.56,0s-.15-.15-.11-.15,0,0,0,0-.11.18-.17.25a2.38,2.38,0,0,1-.53.47.43.43,0,0,0,.1.79c.34.11.7.2,1,.34s.46.24.47.49a.86.86,0,0,1-.39.66,2.17,2.17,0,0,1-.34.24,2.87,2.87,0,0,0-.53.45.56.56,0,0,0-.1.67.58.58,0,0,0,.63.25,2.17,2.17,0,0,0,1.81-2.42c-.24-1-1.48-1.27-2.35-1.52l.09.79c.61-.35,1.77-1.25,1.16-2s-1.85-.3-2.48.08a.5.5,0,0,0,.5.86Z"/><path class="cls-2" d="M210.7,95.72a4.42,4.42,0,0,1,1.52,2.66,6.62,6.62,0,0,1-.62,3.24c-.21.64.62,1,1.05.58a4.83,4.83,0,0,0,1.17-4.15,5.81,5.81,0,0,0-1.89-3.56.89.89,0,0,0-1.22,0,.85.85,0,0,0,0,1.2Z"/><path class="cls-2" d="M142.31,57.34a14.52,14.52,0,0,0,1.23,5.78.64.64,0,0,0,.83.26.69.69,0,0,0,.42-.78,50.67,50.67,0,0,1-.76-5.27.83.83,0,0,0-.84-.84.89.89,0,0,0-.88.85Z"/><path class="cls-2" d="M143.39,56.75a2.58,2.58,0,0,1,1.75-.39,3.45,3.45,0,0,1,.43.12l.35.19a1.64,1.64,0,0,1,.3.29s.05.06,0,0,0,0,0,0l.12.2.09.18v0l0,.1c0,.07,0,.13.05.2s0,.07,0,.1,0,0,0,0a2.42,2.42,0,0,1,0,.38c0-.1,0,.07,0,.1l0,.1c0,.1,0,0,0,0a1.62,1.62,0,0,1-.1.18l-.06.08c0,.07.07-.06,0,0a.68.68,0,0,0-.12.12l-.08.07c-.11.11.11-.07,0,0a2.07,2.07,0,0,1-.32.19l-.09.05,0,0c.08,0,0,0,0,0l-.12.05a5.84,5.84,0,0,1-.94.22l-.1,0h-.07l-.34,0h-.15l-.27,0a.53.53,0,0,0-.51.51.5.5,0,0,0,.49.49c1.41.13,3.19-.05,3.86-1.51a2.63,2.63,0,0,0-1.85-3.57,3.52,3.52,0,0,0-2.66.51.4.4,0,1,0,.4.69Z"/><path class="cls-2" d="M160.84,29.65a58.15,58.15,0,0,0,.65,6.71c.14.69,1.16.48,1.19-.16a55.48,55.48,0,0,0-.32-6.57.76.76,0,0,0-.75-.74.8.8,0,0,0-.77.76Z"/><path class="cls-2" d="M161.84,30.36a6.13,6.13,0,0,1,2.28-.45,5,5,0,0,1,1.09.1,1.14,1.14,0,0,1,.35.13.5.5,0,0,1,.2.18c.24.48-.4,1.08-.74,1.39a3.82,3.82,0,0,1-.72.55l-.45.25a2,2,0,0,0-.34.2c-.06,0-.07.06,0,0l-.12.08a.57.57,0,0,0,.42,1,2.46,2.46,0,0,0,1-.4,6.45,6.45,0,0,0,.88-.68,3.87,3.87,0,0,0,1.16-1.72,1.5,1.5,0,0,0-.75-1.8,4,4,0,0,0-2-.25,7.82,7.82,0,0,0-2.52.61c-.42.18-.13.9.3.73Z"/><path class="cls-2" d="M123.9,149.19a2.83,2.83,0,0,0-4,.62,2.77,2.77,0,0,0-.31,2.23,2.64,2.64,0,0,0,1.54,1.72,4.32,4.32,0,0,0,2.77.16.62.62,0,0,0,.46-.57.58.58,0,0,0-.43-.56,9,9,0,0,0-1-.11l-.47-.05h-.08l-.25-.05-.44-.13c.13,0,0,0-.06,0l-.22-.12-.09-.06s.1.09,0,0l-.15-.13-.07-.07s-.08-.11,0,0,0,0,0,0a.41.41,0,0,1-.07-.11,1.51,1.51,0,0,1-.09-.18c0,.12,0,0,0-.06a1.17,1.17,0,0,1,0-.2s0-.07,0-.1,0,.15,0,0a2.67,2.67,0,0,1,0-.4s0-.12,0,0a.37.37,0,1,1,0-.05l.06-.23s.08-.21,0-.1c0,0,0-.11.08-.16l.06-.09,0,0c0,.05,0,0,0,0l.11-.12.14-.12c.07-.06-.07,0,0,0l.09,0,.16-.1.09,0c-.1,0,.06,0,.07,0a1.59,1.59,0,0,1,.8-.11,1.78,1.78,0,0,1,.81.3.45.45,0,0,0,.59-.13.43.43,0,0,0,0-.58Z"/><path class="cls-2" d="M124.88,150a2.8,2.8,0,0,0-.2,2.59,2.18,2.18,0,0,0,2,1.23,1.89,1.89,0,0,0,1.25-.51,2.05,2.05,0,0,0,.58-1.26,2.79,2.79,0,0,0-.71-2.24,1.77,1.77,0,0,0-1.3-.58,1.38,1.38,0,0,0-1.27.72.54.54,0,0,0,.14.7.58.58,0,0,0,.73-.06c-.15.12,0,0,.06,0l-.09,0,.07,0,.08,0c.11-.05.11-.05,0,0a.55.55,0,0,0,.17-.05c-.07.05-.13,0-.06,0h.23c.13,0-.12,0,0,0l.16,0c.13,0-.13-.06,0,0l.07,0,0,0q.09.06,0,0l.09.08s.13.15.14.15-.08-.12,0,0l.06.1s.09.19.1.19-.06-.16,0,0,0,.08,0,.12a1.17,1.17,0,0,1,0,.2.5.5,0,0,1,0,.12c0,.08,0,0,0-.05a1.41,1.41,0,0,0,0,.2.25.25,0,0,0,0,.08.28.28,0,0,1,0,.09c0,.07,0,.05,0-.05s0,.13,0,.17l0,.1c0,.1,0-.05,0-.06s-.06.12-.09.17l0,0c0,.06,0,0,0-.06s0,.07-.08.09l-.07.07c-.07.06.17-.12.06-.05s-.15.1-.16.09.21-.07.1,0l-.1,0h0l-.21,0c.28,0,.06,0,0,0h-.1c-.07,0-.09,0,.09,0l-.18,0-.07,0c-.12,0,.19.09,0,0l-.14-.08-.08,0c.16.08.12.09.07,0l-.13-.12s-.07-.06-.07-.08l.07.1s0-.05,0-.08-.07-.17-.13-.22.07.18,0,.06,0-.08,0-.12,0-.16,0-.25c0,.18,0,.09,0,0v-.15a1.94,1.94,0,0,1,0-.24c0-.1,0,.17,0,0l0-.13a2.41,2.41,0,0,1,.08-.25c0-.11,0,0,0,0a1,1,0,0,0,.08-.15.66.66,0,0,0-.24-.91.72.72,0,0,0-.94.26Z"/><path class="cls-2" d="M129.65,153.61c0-.39-.15-.74-.16-1.12a3,3,0,0,1,.15-1,1,1,0,0,1,.07-.17c0-.05,0-.06,0,0a.35.35,0,0,1-.36,0s0,0-.06,0l.07.11.15.27c.21.35.42.71.64,1a.67.67,0,0,0,1,.12c.27-.34.49-.73.74-1.09,0,0,.11-.14.12-.13l-.08,0a.41.41,0,0,1-.4-.16s0-.1,0,0l0,.11c0,.11,0,.22.08.33.11.4.2.81.32,1.2s.27,1.08.73,1.28a.59.59,0,0,0,.75-.21c.32-.49,0-1.24-.14-1.75l-.25-.73a3.91,3.91,0,0,0-.29-.81,1,1,0,0,0-.81-.51,1.1,1.1,0,0,0-.79.39c-.18.19-.29.38-.47.6s-.41.44-.58.68l1.15,0c-.32-.46-.68-.91-1-1.36a.9.9,0,0,0-.74-.41.93.93,0,0,0-.75.49,3.91,3.91,0,0,0-.42,1.5,3.27,3.27,0,0,0,.15,1.7c.24.52,1.16.25,1.12-.31Z"/><path class="cls-2" d="M133.15,154.9a16.36,16.36,0,0,0,1.15,3.76c.27.52,1.07.23,1.08-.3a16.7,16.7,0,0,0-.56-3.91.85.85,0,0,0-1-.6.9.9,0,0,0-.63,1.05Z"/><path class="cls-2" d="M134.11,152.44c.07-.14.13-.27.21-.41a2.53,2.53,0,0,1,.13-.22s.12-.22,0,0a1.45,1.45,0,0,1,.17-.18c.13-.14-.15.07,0,0l.1-.06c.09,0,.08,0,0,0a.45.45,0,0,1,.18-.05c-.12,0-.13,0,0,0s.08,0,0,0h.06c.09,0,.08,0,0,0l.09.05c.08.05.06,0,0,0s.1.11.1.11-.09-.13,0,0a.21.21,0,0,1,0,.06.43.43,0,0,0,0,.07c0,.08,0,.07,0-.05,0,0,.15.32.1.36,0-.12,0-.13,0-.05V152a1.62,1.62,0,0,1,0,.22c0,.06,0,.12,0,.18s0,.08,0,0a.36.36,0,0,1,0,.11c0,.14-.07.27-.11.4s-.05.21,0,0a.61.61,0,0,1-.11.21c-.06.12-.12.24-.19.36l-.1.15-.07.09c.07-.08.07-.08,0,0-.17.21-.35.41-.54.61a.59.59,0,0,0,.56,1,2.83,2.83,0,0,0,1.57-1.1,3.64,3.64,0,0,0,.67-1.84,2.58,2.58,0,0,0-.4-1.73,1.76,1.76,0,0,0-2-.67,3,3,0,0,0-1.64,1.73.81.81,0,0,0,.3,1.11.85.85,0,0,0,1.13-.32Z"/><path class="cls-2" d="M137.14,151.47a2.22,2.22,0,0,0,2.39,2.37,2.1,2.1,0,0,0,1.81-1.27,1.38,1.38,0,0,0-.12-1.19,2.7,2.7,0,0,0-.62-.69l-.81-.72a4.74,4.74,0,0,0-1-.69.61.61,0,0,0-.82.81,7.15,7.15,0,0,0,1.15,1.37c.18.18.36.35.52.54l.07.07,0,0,.07.12c.09.12-.05-.19,0,0s0-.16,0,0c0-.13,0-.16,0-.07l0-.11a.56.56,0,0,0,0,.08c.09-.11.11-.13,0-.07l-.1.11c-.12.12.19-.13,0,0l-.14.08c-.14.08.2-.06.05,0l-.17,0-.07,0,.11,0a1.15,1.15,0,0,0-.18,0h0c-.09,0-.06,0,.08,0l-.15,0-.07,0,.08,0a.67.67,0,0,1-.12-.06l-.07,0c.11.09.14.1.07.05a1.45,1.45,0,0,1-.21-.22l.14.18a1.68,1.68,0,0,1-.2-.34l.08.21c0-.11-.06-.21-.09-.32a1,1,0,1,0,0,.11v-.08a1.09,1.09,0,0,1,0-.18.83.83,0,0,0-.85-.84.9.9,0,0,0-.87.86Z"/><path class="cls-2" d="M142.93,151.94a.13.13,0,0,0,0-.26.13.13,0,0,0,0,.26Z"/><path class="cls-2" d="M141.63,151.67a2.52,2.52,0,0,0,2.89,1.72,2.35,2.35,0,0,0,1.47-1.07,2.22,2.22,0,0,0,.29-.9,1.49,1.49,0,0,0-.15-.85.54.54,0,0,0-.57-.27.61.61,0,0,0-.49.42s0,.12,0,.12,0-.09,0,.08l0,.05,0,.12c0-.09.05-.11,0,0l0,0-.13.22a.35.35,0,0,0-.05.08l.06-.09a.39.39,0,0,0-.08.1l-.19.19-.07,0,.1-.08s-.08.05-.11.07a2.53,2.53,0,0,1-.23.12c.22-.12.11-.05,0,0l-.15,0c-.09,0,.23,0,.05,0h-.13s-.2,0-.05,0,0,0,0,0l-.12,0s-.19-.06-.05,0,0,0,0,0l-.11-.06s-.17-.11,0,0,0,0,0,0l-.19-.18c-.06-.07.14.19,0,0a.41.41,0,0,1-.07-.11l-.06-.11c0-.06,0,0,0,.11l0-.09a.85.85,0,0,0-1-.59.89.89,0,0,0-.63,1Z"/><path class="cls-2" d="M147.87,152.5a2.15,2.15,0,0,1-.16-.75.79.79,0,0,1,0-.3c0,.08,0,0,0,0s.13-.17,0-.07l.09-.09c.05-.05.05,0,0,0l.07,0c.1-.07-.11,0,0,0l.09,0c-.09,0-.09,0,0,0s-.09,0,0,0l.09,0h0s.1.06.12.07.06,0,0,0l.08.06.11.12c.12.14,0-.09,0,0a3.07,3.07,0,0,1,.17.31c0,.07,0,.06,0,0a.36.36,0,0,1,0,.09c0,.05,0,.1.05.15s.07.23.11.35l.25.82c0,.14.08.28.13.41a1.24,1.24,0,0,0,.25.45,2.09,2.09,0,0,0,.14.17.64.64,0,0,0,.7.12.68.68,0,0,0,.42-.59,1.46,1.46,0,0,0,0-.51c0-.14-.08-.28-.13-.41l-.27-.76a4.86,4.86,0,0,0-.75-1.49,1.79,1.79,0,0,0-1.44-.61,1.54,1.54,0,0,0-1.28,1,3.12,3.12,0,0,0,0,1.79.52.52,0,0,0,.65.37.55.55,0,0,0,.4-.65Z"/><path class="cls-2" d="M153,150.57a1.82,1.82,0,0,0,.11,2.6,1.87,1.87,0,0,0,2.58-.34c.77-1,.27-2.26-.11-3.29a9.53,9.53,0,0,0-1.75-3.28.64.64,0,0,0-1.05.61,18.49,18.49,0,0,0,1.08,2.41c.18.38.35.77.5,1.17a4.82,4.82,0,0,1,.37,1.15.68.68,0,0,1-.18.65.69.69,0,0,1-.47.07.6.6,0,0,1-.25-.94c.52-.57-.31-1.37-.83-.81Z"/></svg>