<svg id="Layer_1" data-name="Layer 1" xmlns="http://www.w3.org/2000/svg" viewBox="0 0 234.81 185.58"><defs><style>.cls-1{fill:#486afb;}.cls-2{fill:#fd46fc;}</style></defs><path class="cls-1" d="M79.47,88.83a15.36,15.36,0,0,0,1.42-12.66,20.47,20.47,0,0,0-8.27-11A36.65,36.65,0,0,0,58.4,60c-5.65-1-11.62-1.56-17.31-.64a30.33,30.33,0,0,0-25.2,32.18c.4,5.19,2.32,10,4.58,14.58s4.77,9,6.06,13.9a23.19,23.19,0,0,1,.71,7.91,37.47,37.47,0,0,1-2,8.8c-1.88,5.57-4.4,11-5.25,16.83-.68,4.71-.17,9.92,2.59,13.93,3,4.42,8.11,6.09,13.2,6.68,6,.68,12-.33,17.79-1.85a90.64,90.64,0,0,0,15.53-5.4,37.58,37.58,0,0,0,12.58-9.09c7.38-8.45,9.83-20,9-30.93A69,69,0,0,0,87,109.79a62.43,62.43,0,0,0-3.32-7.87c-1.26-2.49-2.87-4.91-3.7-7.61-.69-2.28-.73-5,.85-6.89.56-.68-.4-1.61-1-.93a8.49,8.49,0,0,0-1.59,6.6c.37,2.66,1.7,5,2.91,7.4A73.57,73.57,0,0,1,87.05,116c2.75,10.72,3.19,22.58-1.56,32.82a32.22,32.22,0,0,1-9.2,11.81,48.45,48.45,0,0,1-13.42,7.07,96.14,96.14,0,0,1-16.09,4.59c-5.44,1-11.4,1.25-16.68-.69a13.28,13.28,0,0,1-5.94-4.2,15.45,15.45,0,0,1-2.77-6.2c-1.15-5.28.19-10.6,1.94-15.59,1.87-5.38,4.22-10.64,5-16.32a24.69,24.69,0,0,0-.18-8,34.63,34.63,0,0,0-2.22-6.94c-1.92-4.54-4.46-8.78-6.34-13.34A30.6,30.6,0,0,1,17.3,86.26a28.68,28.68,0,0,1,5.26-14A29,29,0,0,1,33.33,63.3a31.38,31.38,0,0,1,15.13-2.92A58.65,58.65,0,0,1,64,62.87a25.82,25.82,0,0,1,12.17,7.62,17.84,17.84,0,0,1,4.27,11.92,12.26,12.26,0,0,1-1.81,5.94c-.35.56.53,1,.87.48Z" transform="translate(0 0)"/><path class="cls-1" d="M20.63,174.91a4.75,4.75,0,0,0-4.13-2,3.92,3.92,0,0,0-3.84,3c-.33,2,1.67,3.28,3.16,4.17.87.53,1.77,1,2.58,1.63.58.43,2,1.35.9,2a4.33,4.33,0,0,1-1.71.4,8.76,8.76,0,0,1-2,.07A3.41,3.41,0,0,1,13,182.64c-.31-.48-1.15-.17-1,.41.56,2,2.86,2.64,4.73,2.51a7,7,0,0,0,3.28-.79,2,2,0,0,0,.91-2.29c-.32-.95-1.39-1.65-2.17-2.2s-1.72-1.08-2.6-1.6a5.19,5.19,0,0,1-2.13-1.83,1.84,1.84,0,0,1,.82-2.28,3.47,3.47,0,0,1,4.69,1c.42.63,1.48,0,1.06-.61Z" transform="translate(0 0)"/><path class="cls-1" d="M178.93,58.19c0,3.91,0,7.83,0,11.74s-.12,7.83-.09,11.75c.06,7.74-.08,15.49,0,23.23.2,15.58,0,31.16,0,46.73,0,4.33.09,8.66.1,13s-.12,8.84.06,13.25a.67.67,0,0,0,1.34,0c.13-3.92,0-7.84,0-11.75s0-7.83,0-11.74c0-7.75-.08-15.5-.11-23.24-.06-15.58-.19-31.15-.15-46.73,0-4.33-.09-8.66-.15-13s0-8.83-.07-13.24a.53.53,0,0,0-1.06,0Z" transform="translate(0 0)"/><path class="cls-1" d="M178,58.23c-.59.53-1.15,1.08-1.7,1.65-.28.3-.55.61-.8.93a3.87,3.87,0,0,0-.65,1.13.49.49,0,0,0,.72.54,4.6,4.6,0,0,0,1-.79c.28-.27.55-.55.82-.83.54-.56,1.11-1.1,1.69-1.61a.72.72,0,0,0,0-1,.76.76,0,0,0-1.06,0Z" transform="translate(0 0)"/><path class="cls-1" d="M179.68,59.9,181,61.3c.21.23.41.47.63.69l.34.32a2.33,2.33,0,0,0,.52.34.7.7,0,0,0,.82-.12.71.71,0,0,0,.12-.81,1.77,1.77,0,0,0-.21-.41l-.38-.49c-.2-.25-.42-.49-.63-.72l-1.27-1.41a.87.87,0,0,0-1.2,0,.86.86,0,0,0,0,1.19Z" transform="translate(0 0)"/><path class="cls-1" d="M175.51,175.52a9.65,9.65,0,0,0,1.54,2.12,5.27,5.27,0,0,0,2.19,1.51.6.6,0,0,0,.66-.28.58.58,0,0,0-.09-.68c-.11-.14,0,.05,0,0l-.15-.2-.21-.2-.42-.42c-.28-.28-.55-.56-.8-.86a2,2,0,0,1-.19-.22c-.1-.12.07.1,0,0a.76.76,0,0,1-.08-.11c-.12-.15-.22-.31-.33-.47a9.77,9.77,0,0,1-.63-1,.85.85,0,0,0-1.15-.29.86.86,0,0,0-.33,1.15Z" transform="translate(0 0)"/><path class="cls-1" d="M180.71,178.59c.59-.58,1.21-1.11,1.85-1.64a15.63,15.63,0,0,0,1.84-1.6.59.59,0,0,0,.1-.69.58.58,0,0,0-.64-.25,7.11,7.11,0,0,0-2.31,1.25,20.1,20.1,0,0,0-2,1.77.85.85,0,0,0,0,1.19.88.88,0,0,0,1.2,0Z" transform="translate(0 0)"/><path class="cls-1" d="M190.88,175.56c-.07,1.42-.1,2.85-.07,4.28,0,.71.05,1.42.1,2.14a7.76,7.76,0,0,0,.36,2.09c.15.4.87.52,1,0a23.12,23.12,0,0,0-.07-4.24c0-1.42,0-2.85,0-4.28,0-.84-1.26-.8-1.31,0Z" transform="translate(0 0)"/><path class="cls-1" d="M192.69,176.82a16.16,16.16,0,0,0,.93,6.8c.22.48.93.19.95-.26a29.52,29.52,0,0,0-.13-3.26c-.08-1.1-.11-2.2-.09-3.29s-1.64-1-1.66,0Z" transform="translate(0 0)"/><path class="cls-1" d="M192.16,176.06a2.72,2.72,0,0,1,4.34-.07,2.27,2.27,0,0,1,.15,2.32,2.38,2.38,0,0,1-.94.92,7.46,7.46,0,0,1-1.3.64.6.6,0,0,0-.17,1.08,9.18,9.18,0,0,0,1.26.5c.42.18.84.37,1.24.59a16.52,16.52,0,0,1,2.19,1.62c.42.34,1.2-.12.85-.65a7.16,7.16,0,0,0-2.29-2.09,5.6,5.6,0,0,0-2.93-1.07l.4,1a3.07,3.07,0,0,1,.87-.53,5.08,5.08,0,0,0,.81-.48,3.09,3.09,0,0,0,1.07-1.38,3.25,3.25,0,0,0-.36-3.16,3.52,3.52,0,0,0-2.91-1.45,4,4,0,0,0-3,1.68c-.31.43.4.95.74.54Z" transform="translate(0 0)"/><path class="cls-2" d="M98.25,119.27c9.46-2.86,19.43-5,29.36-3.93,9.31,1,18,4.76,27.11,6.71a51.19,51.19,0,0,0,7.59,1.08,22,22,0,0,0,7.59-.66c.61-.18.57-1.18-.13-1.15-2.26.11-4.52.26-6.78.18a45.08,45.08,0,0,1-6.75-.82c-4.56-.88-9-2.26-13.47-3.53a85.63,85.63,0,0,0-13.61-3,59.93,59.93,0,0,0-14.84.24A101.91,101.91,0,0,0,98,118.15c-.72.23-.45,1.34.28,1.12Z" transform="translate(0 0)"/><path class="cls-2" d="M169.66,120.76c-.27-.23-.54-.48-.83-.7l-.42-.33a6.58,6.58,0,0,0-.54-.38.52.52,0,0,0-.66.15.47.47,0,0,0-.12.3l0,.13a.48.48,0,0,0,.13.23c.11.14.22.29.34.42l.36.39c.25.26.51.5.76.75a.68.68,0,0,0,.47.19.71.71,0,0,0,.49-.21.72.72,0,0,0,.2-.46.66.66,0,0,0-.2-.48Z" transform="translate(0 0)"/><path class="cls-2" d="M168.1,122.17a6.4,6.4,0,0,0-1,1c-.17.22-.35.44-.5.67l-.18.29a2.87,2.87,0,0,0-.17.44.57.57,0,0,0,.26.64.64.64,0,0,0,.71-.1c.08-.08.18-.14.26-.22l.23-.25c.16-.16.31-.32.47-.47.33-.31.66-.61,1-.89a.83.83,0,0,0,.23-.54.75.75,0,0,0-.77-.76l-.2,0a.67.67,0,0,0-.36.21Z" transform="translate(0 0)"/><path class="cls-1" d="M12.81.73l.07,6.36,0,3.07c0,.94-.22,2.25.41,3,.27.33.76.13,1-.15a2.34,2.34,0,0,0,.26-1.48l0-1.41L14.46,7,14.33.72a.76.76,0,0,0-1.52,0Z" transform="translate(0 0)"/><path class="cls-1" d="M13.18,2.55a7.68,7.68,0,0,1,3.66.05A6.75,6.75,0,0,1,20,4.29a1.08,1.08,0,0,1,.35,1.18,1.83,1.83,0,0,1-1.18.9,14.55,14.55,0,0,1-2.07.4c-.75.13-1.5.26-2.24.41s-1.87.17-2,1a.75.75,0,0,0,1.44.36c.16-.41-.3-.79-.69-.68h0L14,8l-.05,0,.23.23,0,0v.35l0-.07L14,8.78c-.08.07-.4.08,0,.07l.24,0,.56-.07,1.25-.17c.75-.11,1.5-.23,2.24-.36A4.48,4.48,0,0,0,21.7,6.34c1.54-2.75-2.34-4.68-4.46-5.16a9.44,9.44,0,0,0-4.39.07.67.67,0,0,0,.33,1.3Z" transform="translate(0 0)"/><path class="cls-1" d="M26.74,12.68l.14.63a.57.57,0,0,0,.69.4A.6.6,0,0,0,28,13a17.58,17.58,0,0,1-.25-2.17,4.63,4.63,0,0,1,.25-2c0-.05.13-.16.13-.2h0c-.09,0-.11,0-.05,0l0,0c.11.26.28.48.38.74a3.18,3.18,0,0,1,.1,1.73l1.47.17a3,3,0,0,1,.64-2,3.26,3.26,0,0,1,.42-.41s.23-.11.12-.08-.07-.07,0,0,.08.07.09.1a2.44,2.44,0,0,1,.25.48A14.67,14.67,0,0,1,32.31,12c.09.45.17.91.24,1.36a3.91,3.91,0,0,0,.36,1.36A.62.62,0,0,0,34,14.52a3.78,3.78,0,0,0,0-1.86A12.4,12.4,0,0,0,33.71,11c-.15-.52-.32-1-.52-1.53a5.26,5.26,0,0,0-.77-1.51,1.47,1.47,0,0,0-1.51-.47,2.48,2.48,0,0,0-1.18.94,5.21,5.21,0,0,0-1.18,2.9.76.76,0,0,0,1.48.18,4.06,4.06,0,0,0-.4-2.78c-.38-.71-1.24-1.52-2.05-.89s-.72,1.61-.82,2.39a7.94,7.94,0,0,0,.12,3.11L28,13l-.24-.62a.52.52,0,0,0-1,.28Z" transform="translate(0 0)"/><path class="cls-1" d="M35.18,10.22a4.26,4.26,0,0,0,2,1.09,2.48,2.48,0,0,0,2.2-.64A2,2,0,0,0,40,8.72a2.21,2.21,0,0,0-1.19-1.28,2.38,2.38,0,0,0-1.85-.08,3.16,3.16,0,0,0-1.58,1.39,4.37,4.37,0,0,0-.21,4,2.68,2.68,0,0,0,1.91,1.42,3.84,3.84,0,0,0,2.71-.53.71.71,0,0,0,.33-.76.67.67,0,0,0-.65-.49,4.82,4.82,0,0,0-.93.11l-.4.08a2.25,2.25,0,0,1-.4,0H37.5a1.89,1.89,0,0,1-.41-.1c.08,0-.05,0-.05,0l-.15-.09c-.11-.07.12.12,0,0l-.15-.14c-.1-.09,0,0,0,0a1,1,0,0,1-.11-.17c-.05-.08-.09-.16-.13-.24s0,.09,0,0a1.09,1.09,0,0,1-.05-.17,3.59,3.59,0,0,1-.08-.35s0-.24,0-.09a.76.76,0,0,0,0-.15v-.36l0-.29c0-.22,0,.08,0-.06a2,2,0,0,1,.06-.26,1.71,1.71,0,0,1,.09-.3,1.43,1.43,0,0,1,.08-.22s0,.08,0-.05A3.27,3.27,0,0,1,36.92,9a1.61,1.61,0,0,1,.43-.38.81.81,0,0,1,.47-.15,1.1,1.1,0,0,1,.88.34s.07.13.09.16,0-.12,0,.06c0,0,0,.11,0,0a.56.56,0,0,1-.13.48c0-.08,0,0,0,0l-.12.12c.08-.06-.12.07-.1.06l-.2.11h0l-.25.07c-.13,0,.15,0-.07,0h-.26a2.65,2.65,0,0,1-1.44-.69.74.74,0,0,0-1,0,.68.68,0,0,0,0,1Z" transform="translate(0 0)"/><path class="cls-1" d="M45.6,8.93a2,2,0,0,0-1.86-1,2.52,2.52,0,0,0-2.08,1.21,4.24,4.24,0,0,0-.43,2.8,1.74,1.74,0,0,0,.69,1.37,1.48,1.48,0,0,0,1.47,0,2.54,2.54,0,0,0,1-1.11l.16-.3s.21-.29.1-.16c.06-.07.23-.19.08-.1l.11-.07c-.13.06,0,0,.06,0l-1-.56a4.09,4.09,0,0,0,3.5,3.11.68.68,0,0,0,.36-1.26c-.27-.16-.54-.32-.8-.49l-.2-.13,0,0a3.65,3.65,0,0,1-.36-.31,3,3,0,0,1-.3-.32c-.17-.19.08.13-.06-.08l-.14-.19c-.08-.14-.16-.28-.23-.42s-.08-.21,0-.12,0,0,0,0a1,1,0,0,1-.05-.16.83.83,0,0,0-1-.56,1.87,1.87,0,0,0-1.22.89,4.4,4.4,0,0,0-.3.52,1.74,1.74,0,0,1-.1.19s-.18.26-.08.15-.25.23-.11.12l-.12.08h0c-.16,0,.11,0,.15,0a.13.13,0,0,1,.07.08c0-.08-.05-.09,0,0a2.75,2.75,0,0,1-.16-1.12,2.46,2.46,0,0,1,.18-1,1.51,1.51,0,0,1,.27-.43s.22-.18.1-.09l.22-.14c.07,0,.07,0,0,0l.12,0,.19,0c.07,0,.08,0,0,0h.28a.73.73,0,0,1,.59.35c.36.6,1.24.07,1-.55Z" transform="translate(0 0)"/><path class="cls-1" d="M51.9,6.45a3.94,3.94,0,0,0-2,1.33A1.76,1.76,0,0,0,50.06,10a3.46,3.46,0,0,0,.79.57l.41.22.18.1c.05,0,.2.16.09.06l.15.14c.09.08,0-.08,0,0s.06.12,0,0a.24.24,0,0,1,0,.12c0,.09,0,0,0,0a.86.86,0,0,1,0,.16c0-.09,0,.1,0,.13s-.05.09-.07.12,0,0-.08.1l-.09.09c-.1.1.08-.05,0,0a3.3,3.3,0,0,1-1.21.45l-.64.15a3,3,0,0,0-.64.06.62.62,0,0,0-.44.56c0,.66.64.93,1.2.94a4.78,4.78,0,0,0,1.4-.24A3.06,3.06,0,0,0,53.29,12a2,2,0,0,0-.89-2.35c-.26-.17-.56-.3-.83-.45l-.21-.12c-.06,0-.15-.13-.06,0s-.17-.17-.11-.1-.09-.19,0,0c0,0,0-.09,0-.14s0,.05,0,0,0-.12,0,0,.06-.12,0,0l0-.09c.06-.11-.08.08,0,0l.22-.22c.07-.06,0,0,0,0l.14-.09a1.69,1.69,0,0,1,.29-.17l.26-.13c.13-.06-.1,0,0,0L52.28,8a.83.83,0,0,0,.59-1,.78.78,0,0,0-1-.55Z" transform="translate(0 0)"/><path class="cls-1" d="M54.34,9.14A7.66,7.66,0,0,0,55,11.4,3.31,3.31,0,0,0,56.81,13a2.52,2.52,0,0,0,3.26-2.47,2.72,2.72,0,0,0-.39-1.36,1.66,1.66,0,0,0-1.15-.9.51.51,0,0,0-.49.49.65.65,0,0,0,0,.24c0,.06,0,.11.07.17s0,0,0,0a2,2,0,0,1,.08.22s0-.08,0,0,.05.15.07.22a1.82,1.82,0,0,1,.11.38c0,.08,0,.16.05.23s0,0,0,0,0,.09,0,.13,0,.31,0,.4,0-.15,0-.06,0,.06,0,.09a1.87,1.87,0,0,1-.07.22c-.05.14.06-.11,0,0l-.09.15,0,.07c0,.08,0-.05,0-.05a1.33,1.33,0,0,0-.16.17.34.34,0,0,0-.06.06c-.06.06.06,0,.07,0s-.1.07-.15.09l-.07,0c-.08.05.06,0,.07,0l-.19.06s-.16,0,0,0,0,0,0,0h-.12l-.09,0a1.52,1.52,0,0,1-.2-.06c-.09,0,.05,0,.05,0l-.11-.06a.51.51,0,0,1-.16-.09l-.08,0c-.08,0,0,0,0,0a1.15,1.15,0,0,1-.17-.14L56.73,11l-.07-.06c-.12-.13,0,0,0,0s-.21-.32-.24-.37l-.11-.22s0-.12,0,0l0-.1c-.06-.15-.1-.31-.15-.47-.09-.34-.15-.69-.22-1a.79.79,0,0,0-1-.55.83.83,0,0,0-.59,1Z" transform="translate(0 0)"/><path class="cls-1" d="M64.2,12.29s-.13-.06-.15-.09l0,0,0,0a3.07,3.07,0,0,1-.25-.26c-.13-.13.07.13,0,0a1.4,1.4,0,0,0-.1-.16l-.08-.15c-.09-.16,0,.13,0,0s-.07-.23-.09-.34a.4.4,0,0,1,0-.18c0,.19,0,0,0,0a1.08,1.08,0,0,1,0-.36c-.08.17,0,0,0,0a1.17,1.17,0,0,1,.05-.2.36.36,0,0,1,0-.09c0,.09-.05.11,0,.05l.09-.16.1-.15c0-.05,0,0,0,.05l.06-.07c.08-.09.17-.17.26-.26s0,0-.06,0L64,9.79l.16-.1a2,2,0,0,1,.32-.18c.22-.11-.19.07.09,0l.16-.07-.06,0,.35-.1.17,0,.09,0h0a.65.65,0,0,0,.61-.45.61.61,0,0,0-.28-.68,2.58,2.58,0,0,0-2.25.13A3.13,3.13,0,0,0,62,10a3.26,3.26,0,0,0,1.4,3.77.86.86,0,0,0,1.15-.32.82.82,0,0,0-.3-1.13Z" transform="translate(0 0)"/><path class="cls-1" d="M66.73,12.19c1.5.2,3.07.34,4.31-.7a2.3,2.3,0,0,0,.45-3.16c-.94-1.28-2.63-.74-3.55.28a2.52,2.52,0,0,0-.72,1.87,2.66,2.66,0,0,0,1,1.78,3.62,3.62,0,0,0,2.28.8,5.14,5.14,0,0,0,2.76-.75c.48-.32.37-1.17-.29-1.14-1.08,0-2.22.65-3.29.24a1.9,1.9,0,0,1-.81-.61,1.06,1.06,0,0,1-.2-.47,1,1,0,0,1,.08-.55c.24-.55,1.21-1.49,1.83-1s.32,1.38-.21,1.79c-.9.7-2.2.53-3.25.39a.68.68,0,0,0-.79.46.62.62,0,0,0,.44.77Z" transform="translate(0 0)"/><path class="cls-1" d="M77.72,6.93A7.47,7.47,0,0,0,75,8.67.84.84,0,0,0,75.19,10a25.81,25.81,0,0,0,4.93,1.95l-.36-1.39-.2.18-.1.08s.15-.1,0,0a2.92,2.92,0,0,1-.48.29l0,0c.11,0,0,0,0,0a1.84,1.84,0,0,1-.25.09l-.26.06-.13,0c-.12,0,.2,0,0,0a4.7,4.7,0,0,1-.53,0c-.07,0-.29,0-.12,0l-.26,0c-.37-.06-.73-.16-1.1-.22a.67.67,0,0,0-.67.24.62.62,0,0,0-.06.69,2.3,2.3,0,0,0,1.3.9,3.69,3.69,0,0,0,1.44.11A4.41,4.41,0,0,0,81,11.71a.83.83,0,0,0-.36-1.4,22.05,22.05,0,0,1-4.53-1.8l.17,1.32.46-.43.13-.1c-.07.06-.06,0,0,0l.29-.2a4.37,4.37,0,0,1,.55-.32L78,8.64s.16-.08.07,0,.12,0,.11,0a.89.89,0,0,0,.63-1,.84.84,0,0,0-1-.59Z" transform="translate(0 0)"/><path class="cls-1" d="M.13,27.2c.21,2.66.31,5.32.27,8,0,.66-.06,1.32-.05,2s.15,1.14.79,1.28c1.24.28,1.29-1.71.13-1.46a.62.62,0,0,0-.46.58v0a.54.54,0,0,0,.41.53h0l-.44-.57q0,.2.15-.27l.5-.21H1.4l.49.19-.07-.08L2,37.7a83.83,83.83,0,0,0-.18-10.51C1.76,26.1,0,26.13.13,27.2Z" transform="translate(0 0)"/><path class="cls-1" d="M1.17,27.89a4,4,0,0,1,2.14-.19,3.38,3.38,0,0,1,1,.32l.22.12.1.07h0a2.22,2.22,0,0,1,.38.37c-.08-.11,0,.05,0,.09s.08.2,0,.08c0,0,0,.21,0,.09V29s0,.16,0,.09-.1.22,0,.08a2.39,2.39,0,0,1-.13.21c.08-.11,0,0-.07.07l-.22.2c-.08.06,0,0,0,0l-.1.07-.21.15-.56.36-1.14.72c-.43.26-.87.52-1.29.79-.2.13-.39.26-.59.37l-.08,0s.15,0,.15,0l-.15,0c-.25,0,.16,0,.22,0a.62.62,0,0,0-.81.23A.84.84,0,0,0,1,33.55a3.22,3.22,0,0,0,1.56-.65c1-.58,2-1.17,2.88-1.83a2.56,2.56,0,0,0,1.32-2.72,3.28,3.28,0,0,0-2.25-2,5.57,5.57,0,0,0-3.67.06.83.83,0,0,0-.59,1,.79.79,0,0,0,1,.55Z" transform="translate(0 0)"/><path class="cls-1" d="M9.51,31.42a11.52,11.52,0,0,0-.73-2.08,4.26,4.26,0,0,1-.25-.93c0,.13,0-.07,0-.1v-.24s0-.25,0-.12c0-.07,0-.14.05-.2l.06-.19c-.05.12,0,0,0-.07a.41.41,0,0,1,.07-.11h0a1.85,1.85,0,0,1,.14-.14c-.11.11,0,0,0,0s.12-.05,0,0l.17-.05c.15,0,0,0,.07,0h.15c.14,0-.08,0,0,0l.15,0c.06,0,.06,0,0,0l.08.05c.1,0,0-.05.05,0s.1.11,0,0a.45.45,0,0,1,.1.23.44.44,0,0,0,.84,0c.23-1.19-1.2-1.91-2.21-1.55-1.41.5-1.56,2.26-1.21,3.5a15,15,0,0,1,.68,2.35.81.81,0,0,0,1,.57.85.85,0,0,0,.61-1Z" transform="translate(0 0)"/><path class="cls-1" d="M11.36,28a7.55,7.55,0,0,0,.82,3.44c.73,1.23,2.53,2.19,3.69.89a2.82,2.82,0,0,0,.19-3.41A3.2,3.2,0,0,0,13,27.43,4,4,0,0,0,9.67,30a.49.49,0,0,0,.83.45,9.19,9.19,0,0,1,1-1.08,2.9,2.9,0,0,1,1.13-.58,2,2,0,0,1,1.16.06c-.12-.05,0,0,0,0L14,29c.05,0,.23.15.11.06a1.51,1.51,0,0,1,.23.21l.09.09c0,.05.12.14,0,0,.12.17.19.35.3.52s-.06-.18,0,0,0,.08,0,.12.05.22.08.33,0,.19,0,0a.49.49,0,0,0,0,.12c0,.1,0,.2,0,.3s0,.13,0,0l0,.14c0,.05,0,.1-.05.14s.09-.13,0,0l-.06.11s-.13.16,0,.07-.09.09-.09.08.14-.1,0,0c.16-.1,0,0,0,0s-.16,0,0,0l-.16-.05c.15.05,0,0-.06,0L14.05,31c.15.1,0,0-.07-.07l-.21-.23c.15.16,0-.08-.08-.14a2.21,2.21,0,0,1-.18-.34l-.06-.12c.09.19,0,0,0-.05a6.05,6.05,0,0,1-.2-.73c-.05-.25-.09-.51-.12-.76,0,0,0,.16,0,0a1.5,1.5,0,0,0,0-.2c0-.14,0-.27,0-.41a.85.85,0,0,0-.84-.84.9.9,0,0,0-.88.85Z" transform="translate(0 0)"/><path class="cls-1" d="M16.77,24.57q.32,1.77.48,3.57c.11,1.21.12,2.41.18,3.63a.79.79,0,0,0,.78.77.81.81,0,0,0,.8-.79,3.68,3.68,0,0,1,.79-2.95,1.73,1.73,0,0,1,2.32-.3A1.13,1.13,0,0,1,22,30.38c-.89.71-2.12.41-3.11.85a.59.59,0,0,0,0,1,4.35,4.35,0,0,0,3.67-.38A2.9,2.9,0,0,0,24.08,29a2.74,2.74,0,0,0-2.19-2.08A3.46,3.46,0,0,0,18.84,28a6,6,0,0,0-1.41,3.74l1.58,0a32.56,32.56,0,0,0-.28-3.82c-.15-1.25-.35-2.49-.6-3.73-.18-.87-1.52-.49-1.36.37Z" transform="translate(0 0)"/><path class="cls-1" d="M28.54,28.21a1.79,1.79,0,0,0-2.5-.47,2.54,2.54,0,0,0-.77,3,2.09,2.09,0,0,0,2.82,1.42,4.05,4.05,0,0,0,1.7-2.48H28.26c.5,1.78,2.71,3.32,4.54,2.68a.69.69,0,0,0,.5-.64.64.64,0,0,0-.48-.63,5.4,5.4,0,0,1-1.9-.58,3.13,3.13,0,0,1-1.2-1.43.81.81,0,0,0-1.45.2,2.9,2.9,0,0,1-.28.83,1.9,1.9,0,0,1-.44.6.32.32,0,0,1-.33.1.84.84,0,0,1-.52-.46,1.6,1.6,0,0,1-.05-1.62.62.62,0,0,1,1,0,.51.51,0,0,0,.89-.51Z" transform="translate(0 0)"/><path class="cls-1" d="M33.07,25.2A36.29,36.29,0,0,1,33.4,32a.84.84,0,0,0,1.64.2,8.64,8.64,0,0,1,1.14-3.37A2.26,2.26,0,0,1,38.63,28c.38.16.61.44.41.8a2.64,2.64,0,0,1-1,.9,3.57,3.57,0,0,1-1.32.45c-.57.06-1.14,0-1.69.08a.65.65,0,0,0-.31,1.07c.91.81,2.45.52,3.46.09a4,4,0,0,0,2.48-2.55c.25-1.4-1.14-2.34-2.4-2.38a4.12,4.12,0,0,0-3.07,1.51,9.14,9.14,0,0,0-1.78,3.9l1.64.2a39,39,0,0,0-.44-7.24.8.8,0,0,0-1-.55.83.83,0,0,0-.59,1Z" transform="translate(0 0)"/><path class="cls-1" d="M42.2,28.81v1.66c0,.27,0,.55,0,.82s0,.27,0,.41a2.45,2.45,0,0,0,.2.65.66.66,0,0,0,.68.32.74.74,0,0,0,.59-.5,2,2,0,0,0,.14-.55c0-.13,0-.25,0-.38a7.48,7.48,0,0,0,0-.82V28.79a.84.84,0,0,0-.84-.84.91.91,0,0,0-.88.86Z" transform="translate(0 0)"/><path class="cls-1" d="M42.55,25.14a.75.75,0,0,1,0,.15l0-.15a.79.79,0,0,1-.06.22l.06-.14a1.59,1.59,0,0,1-.13.22l.09-.12a1.14,1.14,0,0,1-.19.19l.13-.1a1.35,1.35,0,0,1-.26.15l.15-.06-.24.07.15,0H42l.15,0-.2-.05.13.05a.81.81,0,0,1-.18-.1l.12.09a1.45,1.45,0,0,1-.18-.17l.1.12a1.07,1.07,0,0,1-.13-.21l.06.14a1.32,1.32,0,0,1-.08-.3l0,.15a.88.88,0,0,1,0-.28l0,.15a2.17,2.17,0,0,1,.07-.24l-.06.15a.77.77,0,0,1,.1-.18l-.09.13a.67.67,0,0,1,.14-.15l-.13.1a1.13,1.13,0,0,1,.21-.12l-.15.06a.86.86,0,0,1,.23-.06l-.16,0a1.22,1.22,0,0,1,.27,0l-.16,0a1,1,0,0,1,.28.07l-.15-.06a1.23,1.23,0,0,1,.25.14l-.13-.1a1,1,0,0,1,.18.17l-.1-.12a1.18,1.18,0,0,1,.11.19l.55-.91a1.28,1.28,0,0,0-1.08.6A1.15,1.15,0,0,0,42,26a.52.52,0,0,0,.94-.39s0-.05,0-.08l0,.13a.66.66,0,0,1,0-.14l0,.13a.88.88,0,0,1,0-.15l-.06.13A1,1,0,0,1,43,25.4l-.09.12.13-.13-.13.1.16-.1-.15.07.16-.05-.16,0h0a.81.81,0,0,0,.31,0,.66.66,0,0,0,.29-.17.59.59,0,0,0,.16-.58,1.47,1.47,0,0,0-.6-.77,1.76,1.76,0,0,0-.81-.26,1.47,1.47,0,0,0-1.44.77A1.65,1.65,0,0,0,40.91,26a1.39,1.39,0,0,0,.6.55,1.5,1.5,0,0,0,1,.08,1.61,1.61,0,0,0,1.21-1.52.56.56,0,0,0-.57-.57.62.62,0,0,0-.6.58Z" transform="translate(0 0)"/><path class="cls-1" d="M45.42,25.4l.21,3.33a16.26,16.26,0,0,0,.19,1.71A4.53,4.53,0,0,0,46.3,32a.45.45,0,0,0,.81-.11,7.78,7.78,0,0,0,.24-3.26l-.21-3.27a.84.84,0,0,0-.84-.83.9.9,0,0,0-.88.85Z" transform="translate(0 0)"/><path class="cls-1" d="M49.11,30l.14.8a3.19,3.19,0,0,0,.33.89.57.57,0,0,0,.58.27.61.61,0,0,0,.5-.43,2.91,2.91,0,0,0,.09-.93l-.06-.82a.82.82,0,0,0-.1-.4l-.13-.16A.77.77,0,0,0,49.8,29a.81.81,0,0,0-.54.31.8.8,0,0,0-.15.68Z" transform="translate(0 0)"/><path class="cls-1" d="M49.47,26.92a.13.13,0,1,0,0-.25.13.13,0,1,0,0,.25Z" transform="translate(0 0)"/><path class="cls-1" d="M49.21,26.17c.17.23.34.46.52.68A.43.43,0,0,0,50,27a.6.6,0,0,0,.27.06.76.76,0,0,0,.51-.22,1.25,1.25,0,0,0,.15-.19l0-.06a1,1,0,0,0,.12-.45,1.11,1.11,0,0,0-.13-.57,2.27,2.27,0,0,0-.18-.25.76.76,0,0,0-.09-.09,1.77,1.77,0,0,0-.24-.17,1.43,1.43,0,0,0-.27-.09l-.22,0h-.07a1,1,0,0,0-.45.12,1.08,1.08,0,0,0-.24.18l-.14.18,0,.05a1.25,1.25,0,0,0-.1.27,1,1,0,0,0,0,.46,1.16,1.16,0,0,0,.1.28.39.39,0,0,0,.06.11,1.5,1.5,0,0,0,.2.24,1.24,1.24,0,0,0,.18.14l.06,0a1,1,0,0,0,.37.1l.22,0a1.09,1.09,0,0,0,.38-.21.61.61,0,0,0,.16-.55.65.65,0,0,0-.15-.27.66.66,0,0,0-.26-.14h0l.14.06a.1.1,0,0,1-.05,0l.13.1-.11-.09-.13-.08.14.1a.6.6,0,0,1-.08-.08l.11.14a.33.33,0,0,1-.07-.13l.07.17a.42.42,0,0,1,0-.15l0,.18,0-.28,0,.18a.21.21,0,0,1,0-.11l0,.18,0-.1-.07.17a.16.16,0,0,1,0-.07l-.11.14.06-.06-.15.11a.2.2,0,0,1,.08,0l-.17.07.08,0-.18,0H50l-.17,0,0,0-.15-.07.09.06-.14-.1a.35.35,0,0,1,.11.1l-.11-.14a.64.64,0,0,1,.08.14l-.07-.17a.74.74,0,0,1,0,.14l0-.18v.11l0-.17a.31.31,0,0,1,0,.08l.07-.17a.16.16,0,0,1,0,.07l.12-.15-.07.06,1.14.13c-.12-.19-.26-.36-.39-.54a.52.52,0,0,0-.19-.2.55.55,0,0,0-.24-.12.54.54,0,0,0-.28,0,.57.57,0,0,0-.28.08.78.78,0,0,0-.34.44l0,.18a.74.74,0,0,0,.09.36Z" transform="translate(0 0)"/><path class="cls-1" d="M53.42,26c0,1,.07,1.91.11,2.86,0,.47,0,.92.09,1.38s0,1.23.46,1.56a.57.57,0,0,0,.79,0,2.2,2.2,0,0,0,.38-1.55c0-.46,0-.92,0-1.38,0-1-.07-1.91-.11-2.86a.83.83,0,0,0-.84-.84.89.89,0,0,0-.87.85Z" transform="translate(0 0)"/><path class="cls-1" d="M53.46,28.77c.63,0,1.25-.07,1.88-.13.34,0,.69-.07,1-.12a3.65,3.65,0,0,0,1-.27.54.54,0,0,0,.27-.53.54.54,0,0,0-.39-.44,5.77,5.77,0,0,0-1.9-.13c-.61,0-1.22,0-1.84.07a.83.83,0,0,0-.8.78.76.76,0,0,0,.77.77Z" transform="translate(0 0)"/><path class="cls-1" d="M58.78,28a14.13,14.13,0,0,0,1.45,3.42c.2.33.55.77,1,.77a.64.64,0,0,0,.57-.39.88.88,0,0,0,0-.64c-.22-.61-.58-1.17-.84-1.76-.07-.15-.13-.3-.19-.45s-.1-.23,0-.1a2.77,2.77,0,0,1-.1-.26c-.13-.33-.24-.65-.34-1a.74.74,0,0,0-.91-.51.77.77,0,0,0-.55.91Z" transform="translate(0 0)"/><path class="cls-1" d="M63.09,28a34.26,34.26,0,0,0-2.57,12.82c0,1,1.32.86,1.44,0,.3-2.11.53-4.23,1-6.31a41.34,41.34,0,0,1,1.8-6.09c.39-1-1.27-1.41-1.65-.41Z" transform="translate(0 0)"/><path class="cls-1" d="M73.51,27.93a.13.13,0,0,0,0-.26.13.13,0,0,0,0,.26Z" transform="translate(0 0)"/><path class="cls-1" d="M73.68,25.2c-.05,1.25-.15,2.5-.31,3.74s-.41,2.46-.6,3.69l1.45.17a6.31,6.31,0,0,1,2-4.49L75.12,28a22.69,22.69,0,0,1,.8,2.82c.08.45.15.91.19,1.37a3.25,3.25,0,0,0,.28,1.52.67.67,0,0,0,1.14,0,2.55,2.55,0,0,0,.11-1.64c-.07-.52-.16-1-.27-1.55a13.14,13.14,0,0,0-1-3,.67.67,0,0,0-1-.12,10.3,10.3,0,0,0-2.56,5.4c-.1.84,1.27,1,1.45.17a29.89,29.89,0,0,0,.57-3.89q.19-1.95.21-3.9c0-.84-1.26-.8-1.29,0Z" transform="translate(0 0)"/><path class="cls-1" d="M79.73,31.25c1.34.4,3.12.23,3.91-1.08A2.29,2.29,0,0,0,83,27.06c-1.48-.82-2.93.58-3.6,1.78s-1.11,3.1.14,4.27a4.37,4.37,0,0,0,4.17.73.67.67,0,0,0-.15-1.31c-.47,0-1,0-1.41,0h-.21l-.33-.06-.31-.07-.17-.06a.75.75,0,1,0-.07,0l-.25-.13s-.18-.12-.09,0-.08-.07-.07-.07l-.19-.19c-.14-.15,0,.08,0,0l-.11-.18a.6.6,0,0,1-.09-.25,1.15,1.15,0,0,1,0-.31,2.39,2.39,0,0,1,.12-.8,4.55,4.55,0,0,1,.75-1.49A1.75,1.75,0,0,1,82,28a.53.53,0,0,1,.28,0,.29.29,0,0,1,.19.08c-.06,0,.12.13.1.1s.06.1,0,.09l.09.16c0-.07,0,.12,0,.16a.58.58,0,0,1,0,.23,1.17,1.17,0,0,1-.09.48,1.07,1.07,0,0,1-.36.44,1.41,1.41,0,0,1-.61.27A3,3,0,0,1,80.11,30a.68.68,0,0,0-.38,1.3Z" transform="translate(0 0)"/><path class="cls-1" d="M86.54,31.4l-.15-.15q-.08-.09,0,0l-.06-.08a1,1,0,0,1-.1-.17l-.05-.09c0-.07,0-.06,0,0-.07-.05-.1-.31-.11-.39s0-.06,0-.1c0,.11,0,.12,0,0a1.34,1.34,0,0,1,0-.2c0-.07,0-.13,0-.2s0-.07,0,0,0-.07,0-.1.07-.37.12-.38l0,0,0-.09a1.63,1.63,0,0,0,.11-.17l0,.05.07-.08.16-.15.08-.07,0,0,.18-.11L87,29l-.06,0,.1,0a3.31,3.31,0,0,1,.42-.12,2.26,2.26,0,0,1,.44-.08H88l.23,0,.46,0c.34,0,.68-.06,1-.11a.65.65,0,0,0,.48-.6.64.64,0,0,0-.46-.6,4.77,4.77,0,0,0-3.54.23,2.93,2.93,0,0,0-1.52,3.06,2.81,2.81,0,0,0,.89,1.66.74.74,0,0,0,1,0,.71.71,0,0,0,0-1Z" transform="translate(0 0)"/><path class="cls-1" d="M91.61,31a3.1,3.1,0,0,0,4-.33,2.4,2.4,0,0,0-.19-3.33,2.28,2.28,0,0,0-2.1-.32,3.3,3.3,0,0,0-1.75,1.54,4.52,4.52,0,0,0-.68,2.25A2.47,2.47,0,0,0,92,32.85a5.41,5.41,0,0,0,2.55.72,7.81,7.81,0,0,0,1.45,0,5.19,5.19,0,0,0,1.5-.34.72.72,0,0,0,.51-.74.65.65,0,0,0-.66-.57c-.37,0-.74,0-1.11.1a7.26,7.26,0,0,1-.93.06,6.74,6.74,0,0,1-1.85-.21,1.93,1.93,0,0,1-.58-.22,1.24,1.24,0,0,1-.46-.41,1.89,1.89,0,0,1,0-1.39,3.42,3.42,0,0,1,.72-1.42A1.31,1.31,0,0,1,94.38,28c.68.19.69,1.11.42,1.59a.85.85,0,0,1-.36.37,1.57,1.57,0,0,1-.69.23,2.48,2.48,0,0,1-1.47-.32A.65.65,0,0,0,91.61,31Z" transform="translate(0 0)"/><path class="cls-1" d="M154.85,6.71c-.07,1.44-.08,2.88,0,4.31a24.27,24.27,0,0,0,.42,4.34.82.82,0,0,0,1.6-.22c0-1.41-.26-2.81-.32-4.22s0-2.82,0-4.23c.06-1.1-1.66-1.05-1.71,0Z" transform="translate(0 0)"/><path class="cls-1" d="M155.36,7a4.07,4.07,0,0,1,2.42-.42,2.61,2.61,0,0,1,.95.39,2.08,2.08,0,0,1,.61.72,1.87,1.87,0,0,1,.21.8.76.76,0,0,1-.08.4,2.8,2.8,0,0,1-.18.33,2.59,2.59,0,0,1-.33.31l-.12.09-.28.17-.26.12c-.13.06,0,0-.11.05l-.6.19c-.49.14-1,.26-1.44.44a2.25,2.25,0,0,0-1.4,1,.49.49,0,0,0,.43.74,6.6,6.6,0,0,0,1.56-.34,14.58,14.58,0,0,0,1.48-.38,4.24,4.24,0,0,0,2.4-1.69c1.1-1.81-.32-4-2.23-4.43a5.37,5.37,0,0,0-3.55.63.52.52,0,1,0,.52.91Z" transform="translate(0 0)"/><path class="cls-1" d="M172.22,13.24a8.62,8.62,0,0,1-.12,2.91l1.19.14a24.5,24.5,0,0,1,0-2.71q0-.64.15-1.29c0-.24.09-.48.14-.72,0,0,.09-.31.1-.3l-.16.05s0,0,0,0l.13.17c.11.16.21.34.31.52a8.4,8.4,0,0,1,.5,1,10.63,10.63,0,0,1,.57,2.48c.1.74,1.24.51,1.26-.17a4.7,4.7,0,0,1,.73-2.33,4.43,4.43,0,0,1,.76-.91,1.25,1.25,0,0,1,.42-.3c-.08,0,0,0,0,.05a2.17,2.17,0,0,1,.19.88l.16,1.56a15.14,15.14,0,0,0,.44,3.16.68.68,0,0,0,1.32-.18,9.23,9.23,0,0,0-.17-2l-.27-2c-.12-.9-.15-2.33-1.23-2.66s-2,.93-2.47,1.67a7.06,7.06,0,0,0-1.16,3.06h1.27a7.54,7.54,0,0,0-.73-3.16c-.36-.79-1.1-2.33-2.19-2.06a1.29,1.29,0,0,0-.89,1,12.38,12.38,0,0,0-.33,1.63,14.65,14.65,0,0,0-.13,3.5.61.61,0,0,0,1.21,0,10.81,10.81,0,0,0-.08-3.31.51.51,0,0,0-.62-.35.53.53,0,0,0-.37.61Z" transform="translate(0 0)"/><path class="cls-1" d="M182.79,15.05a3,3,0,0,0,3.61-1.28,2.18,2.18,0,0,0,.09-1.88,2.05,2.05,0,0,0-1.27-1.09c-1.42-.41-2.36.93-2.65,2.14a3.66,3.66,0,0,0,.58,3.28,2.41,2.41,0,0,0,2.06.76,4.44,4.44,0,0,0,2.33-1.08.61.61,0,0,0-.58-1,12,12,0,0,1-1.53.53l-.16,0c-.23.06.07,0-.07,0h-.41l-.19,0h0l-.15-.08c-.16-.08.06.07,0,0a.48.48,0,0,0-.11-.09l-.08-.08s-.11-.15,0-.05,0-.06,0-.06l-.06-.1L184,14.8c-.09-.17,0,.08,0-.06a4.37,4.37,0,0,1-.12-.52c0-.14,0,0,0,0a1.15,1.15,0,0,0,0-.19v-.31l0-.31s0-.13,0,0a.77.77,0,0,1,0-.15,4.4,4.4,0,0,1,.18-.62s.06-.16,0-.07l.06-.13a2.75,2.75,0,0,1,.17-.29c-.05.07,0,0,0,0l.11-.11s.13-.1.05-.05.17-.09.08,0a.44.44,0,0,1,.37,0,1,1,0,0,1,.41.27.88.88,0,0,1,.12.91,1.32,1.32,0,0,1-.35.48,1.34,1.34,0,0,1-.51.29,2.41,2.41,0,0,1-1.5-.05.7.7,0,0,0-.82.48.65.65,0,0,0,.46.79Z" transform="translate(0 0)"/><path class="cls-1" d="M192.59,12a1.55,1.55,0,0,0-2.07-.91,2.33,2.33,0,0,0-1.34,2.57c.09,1.07.32,2.52,1.66,2.59a1.82,1.82,0,0,0,1.48-.67,3.53,3.53,0,0,0,.65-1.63l-1.52,0a3.69,3.69,0,0,0,4.64,2.69.66.66,0,0,0,.48-.69.6.6,0,0,0-.61-.53,2.57,2.57,0,0,1-1-.1l-.23-.07c.1,0-.16-.07-.18-.08a4.16,4.16,0,0,1-.47-.24l-.23-.16-.09-.07a3.68,3.68,0,0,1-.39-.4c.09.11,0-.06-.06-.09s-.12-.18-.17-.27a1.4,1.4,0,0,1-.16-.4.79.79,0,0,0-.75-.57.81.81,0,0,0-.77.58,2.72,2.72,0,0,1-.24.9s-.1.18-.06.1c-.09.15.05,0-.08.08l-.07,0c.06,0,.06,0,0,0s-.18,0-.07,0,0,0,0,0,0,0,0,0c0,.12-.05-.11-.05-.11s0-.06,0-.08a6.26,6.26,0,0,1-.19-.94,2.36,2.36,0,0,1,0-.75,1.21,1.21,0,0,1,.05-.18s.13-.22.07-.14.06-.05.07-.07-.06,0,0,0l.14-.08c-.13.06,0,0,.07,0s0,0,0,0h.16c-.12,0,.05,0,.06,0s0,0,0,0-.11,0,0,0l0,0c0,.06,0,.06,0,0,.26.73,1.42.44,1.21-.33Z" transform="translate(0 0)"/><path class="cls-1" d="M198.4,10a2.49,2.49,0,0,0-.82,2,2.56,2.56,0,0,0,1,1.94,2,2,0,0,1,.37.34c-.08-.1,0,.08.05.1-.05-.13,0,.11,0,0,0,0,0,.22,0,.09,0,0-.07.21,0,.1l-.11.19c.07-.11-.07.07-.09.1l-.09.08c.06,0,.07,0,0,0l-.26.14-.14,0-.27.07a3.32,3.32,0,0,0-1.18.37.55.55,0,0,0,0,.95,2.66,2.66,0,0,0,2.66-.26,2.17,2.17,0,0,0,1-2.23,2.19,2.19,0,0,0-.68-1.06l-.34-.33c-.07-.08-.07-.08,0,0l-.08-.12s-.1-.22,0-.05l-.06-.2,0-.14c0,.09,0,.09,0,0v-.21c0-.21,0,.13,0-.07a1.05,1.05,0,0,0,.06-.24l0,0a.83.83,0,0,1,.07-.13s.15-.2,0-.05a1.89,1.89,0,0,1,.2-.2.84.84,0,0,0,0-1.19.9.9,0,0,0-1.22,0Z" transform="translate(0 0)"/><path class="cls-1" d="M201.81,13.12a7.22,7.22,0,0,0,1,1.92,2.69,2.69,0,0,0,1.75,1,2.14,2.14,0,0,0,1.91-.67,2.55,2.55,0,0,0,.4-2.3,3.89,3.89,0,0,0-1.27-2.16.57.57,0,0,0-.66-.07.57.57,0,0,0-.26.61c.13.54.32,1.07.46,1.61,0,.14.07.28.1.42l0,.16s0,.07,0,.11,0-.16,0-.05,0,.24,0,.35,0,.09,0,0a.19.19,0,0,0,0,.08.19.19,0,0,0,0,.08s-.07.17,0,0,0,0,0,.07-.09.12,0,0,0,0,0,0a.9.9,0,0,0-.1.09c.1-.14.15-.1.08-.06l-.08.05c-.12.07.2-.06,0,0l-.15,0c-.14,0,.18,0,0,0h-.16a.9.9,0,0,0-.16,0,1.42,1.42,0,0,0-.16-.05l.09,0-.11-.05-.12-.07-.06,0c-.1-.05.14.12.06,0a2.33,2.33,0,0,1-.28-.26l-.06-.07c-.12-.14.08.12,0,0l-.12-.18a2.71,2.71,0,0,1-.21-.37c-.07-.13-.13-.27-.19-.41l-.08-.18c0-.11.07.16,0,.05l-.05-.13a.85.85,0,0,0-1-.59.94.94,0,0,0-.53.41.83.83,0,0,0-.1.63Z" transform="translate(0 0)"/><path class="cls-1" d="M209.89,15l-.07-.08c-.06-.07,0-.06,0,.05s-.08-.12-.09-.14,0-.09-.08-.14l-.05-.09h0c0,.14,0-.07,0-.1a.75.75,0,0,1,0-.16.75.75,0,0,1,0-.16s0-.07,0-.1c0,.12,0,.14,0,.05s0-.22,0-.33a.34.34,0,0,1,0-.1h0l0-.11a1.24,1.24,0,0,1,0-.16c.07-.19,0,0,0,0l.19-.33c.09-.15-.13.15,0,0l.12-.13.14-.13c.13-.12-.18.12,0,0l.31-.19c.06,0,.22-.09,0,0a1.66,1.66,0,0,0,.31-.14c-.21.13-.06,0,0,0l.18-.06.15,0c.16,0-.15,0,0,0l.37,0h.15c.08,0,.07,0,0,0l.1,0a.68.68,0,0,0,.78-.4.62.62,0,0,0-.26-.8,2.81,2.81,0,0,0-2-.23,3.08,3.08,0,0,0-1.73,1.25,3.23,3.23,0,0,0,.35,4,.87.87,0,0,0,1.21,0,.85.85,0,0,0,0-1.19Z" transform="translate(0 0)"/><path class="cls-1" d="M213.65,14.65a2.35,2.35,0,0,0,3.3,0,2.16,2.16,0,0,0-.2-2.9,1.31,1.31,0,0,0-1.89,0,2.55,2.55,0,0,0-.61,1.66A3.06,3.06,0,0,0,216,16.19a3.3,3.3,0,0,0,4-1.11c.33-.47-.34-1.13-.8-.78a3.36,3.36,0,0,1-.51.32l-.27.15h0l-.15.05a3.92,3.92,0,0,1-.59.15c.1,0-.15,0-.19,0h-.37L217,15l-.3-.07a4,4,0,0,1-.41-.21s-.28-.26-.32-.31l0,0-.08-.12c-.06-.1-.11-.21-.16-.31,0,.07,0-.11,0-.14a2.68,2.68,0,0,1-.07-.27,1.59,1.59,0,0,1,0-.49c0,.05,0-.16,0-.18a1.45,1.45,0,0,1,.06-.19.78.78,0,0,1,.12-.21l.05-.06c0-.07-.05,0,0,0,.69,0,.71.93.47,1.35a1,1,0,0,1-.78.46,1.36,1.36,0,0,1-1.06-.32c-.52-.48-1.34.31-.81.81Z" transform="translate(0 0)"/><path class="cls-1" d="M224.58,9.68a1.76,1.76,0,0,0-2.07,1.66c-.08,1,.71,1.68,1.36,2.29a1.39,1.39,0,0,1,.55.8.71.71,0,0,1-.34.61l-.1.07-.22.12a3.61,3.61,0,0,1-.53.14c-.46.08-.92.08-1.37.2a.59.59,0,0,0-.43.55.57.57,0,0,0,.41.54c1.61.63,4.13-.32,3.94-2.33a2.61,2.61,0,0,0-.47-1.23c-.21-.31-.54-.68-.73-.92a2.26,2.26,0,0,1-.32-.54c0,.12,0-.14,0-.13s0-.12,0,0V11.4c-.05.22.1-.22,0,0l0-.07c.05-.08.05-.08,0,0s.07-.07,0,0-.05,0,0,0a.26.26,0,0,1-.17.05c-.1,0-.1,0,0,0a.9.9,0,0,0,1.06-.61.82.82,0,0,0-.59-1Z" transform="translate(0 0)"/><path class="cls-1" d="M141.66,31.05l.31,5.11c.06.84.1,1.68.16,2.51a8.91,8.91,0,0,0,.32,2.58.71.71,0,0,0,1.35,0,8.91,8.91,0,0,0,0-2.58l-.15-2.51L143.38,31c-.07-1.1-1.78-1.06-1.72,0Z" transform="translate(0 0)"/><path class="cls-1" d="M143,30.36l.21-.18c.06-.06,0,0,0,0l.13-.09a1.38,1.38,0,0,1,.24-.14l.1-.05c-.09,0,0,0,.07,0a1.45,1.45,0,0,1,.26-.07c-.1,0,.09,0,.12,0s.06,0,0,0a.5.5,0,0,0,.13,0s.1,0,0,0l.06,0c.07,0,.11.08,0,0l.13.12c.08.07.1.14,0,0a1.74,1.74,0,0,1,.11.18s.08.21.06.1,0,.08,0,.12,0,.13,0,.19a.25.25,0,0,1,0,.08c0-.09,0-.09,0,0s0,.25,0,.37,0-.11,0,.06a1.42,1.42,0,0,1,0,.22c0,.07-.05.13-.07.19.06-.18,0,0,0,0a1.18,1.18,0,0,1-.11.19s-.09.12,0,0l-.1.11c-.11.12-.23.23-.36.35s-.1.08,0,0l0,0-.25.16a6.6,6.6,0,0,1-.91.48,2.14,2.14,0,0,0-1.07.69.68.68,0,0,0,.1.81,1,1,0,0,0,.91.14,6.39,6.39,0,0,0,2-1,3.87,3.87,0,0,0,1.44-1.78,3.12,3.12,0,0,0,0-1.91,2.27,2.27,0,0,0-1.55-1.52,3,3,0,0,0-2.71.95.74.74,0,0,0,0,1,.75.75,0,0,0,1,0Z" transform="translate(0 0)"/><path class="cls-1" d="M148.88,33.68a5,5,0,0,0-.34-1c0-.14-.11-.28-.17-.42l-.09-.2s-.08-.2-.05-.12a4,4,0,0,1-.23-.84c0,.13,0-.07,0-.08v-.19c0-.06,0-.12,0-.19,0,.15,0-.06,0-.09l0-.11.07-.13c.07-.13-.08.06,0,0s.18-.14,0,0l.16-.09c.15-.09-.13,0,0,0l.17-.06s.24,0,.14,0H149l.38,0h.07l.31,0,.43,0a.62.62,0,0,0,.33-1.14,3.52,3.52,0,0,0-2-.44A2.12,2.12,0,0,0,146.73,30a3,3,0,0,0,.11,2,11.26,11.26,0,0,1,.78,2,.63.63,0,0,0,.78.45.68.68,0,0,0,.48-.79Z" transform="translate(0 0)"/><path class="cls-1" d="M150.73,31.48a2.21,2.21,0,0,0,1.55,2.71,3.21,3.21,0,0,0,3.28-1.28,2.19,2.19,0,0,0-.12-3.12,3.25,3.25,0,0,0-3.51,0c-.94.44-2.25,1.43-1.82,2.63a.52.52,0,0,0,1,0,2.25,2.25,0,0,1,.08-.24s0-.06,0-.09,0,.06,0,0a1.18,1.18,0,0,1,.11-.19l.07-.11c0,.06,0,0,0,0a1.7,1.7,0,0,1,.19-.19l.1-.09h0c.15-.11.31-.2.47-.3a4.88,4.88,0,0,1,1-.43,2.72,2.72,0,0,1,.56-.09,1,1,0,0,1,.47.08c-.08,0,.1,0,.12.06s.2.13.12.06.13.12.19.19-.06-.08,0,0a1.09,1.09,0,0,1,.08.15c0-.13,0,.13,0,.08s0,.08,0,.09a.41.41,0,0,1,0,.11c0-.1,0,0,0,0s0,.1,0,.14l-.09.16a1.25,1.25,0,0,1-.29.35l-.1.09a1.81,1.81,0,0,1-.29.19l-.24.13c.13-.06-.08,0-.13,0l-.26.07c.13,0,0,0,0,0h-.34c-.12,0,.16,0-.05,0l-.11,0c-.09,0,.12.08,0,0s-.23-.16-.09,0c-.08-.07-.14-.14-.22-.2s.08.12,0,0l-.08-.14s-.07-.11,0,0,0,0,0-.07l0-.12c0,.05,0,.14,0,0s0,0,0,0a1.21,1.21,0,0,1,0-.18.83.83,0,0,0-.59-1,.92.92,0,0,0-1.06.62Z" transform="translate(0 0)"/><path class="cls-1" d="M155.84,27.27,156.3,30a19,19,0,0,0,.58,2.69.74.74,0,0,0,.89.51.77.77,0,0,0,.54-.89,1.61,1.61,0,0,1,.51-1.39.73.73,0,0,1,1.07.25,1.09,1.09,0,0,1-.09,1.36,1.9,1.9,0,0,1-.66.47,3.36,3.36,0,0,0-1.1.52.6.6,0,0,0,.12.93,1.76,1.76,0,0,0,1.71-.17,3.2,3.2,0,0,0,1.22-1.09,2.44,2.44,0,0,0-.25-3,2,2,0,0,0-2.66-.32,3.71,3.71,0,0,0-1.32,2.61l1.47,0a41.58,41.58,0,0,0-.82-5.65.84.84,0,0,0-1-.59.89.89,0,0,0-.63,1Z" transform="translate(0 0)"/><path class="cls-1" d="M166.11,28.77A3.15,3.15,0,0,0,163,31.46a3,3,0,0,0,.52,2.16,1.58,1.58,0,0,0,1.19.72,1.72,1.72,0,0,0,1.21-.48,2.62,2.62,0,0,0,.69-1.14l.09-.25s0-.07,0-.11.06-.15,0-.08,0-.05,0-.05l.07-.13s.07-.11,0,0S167,32,167,32l-1.35-.34a4.67,4.67,0,0,0,1.22,2.08,3,3,0,0,0,2.24,1,.71.71,0,0,0,.62-.41.64.64,0,0,0-.13-.71,8.13,8.13,0,0,0-.87-.57l-.19-.12h0l-.09-.07a3.47,3.47,0,0,1-.37-.3l-.3-.32h0l-.07-.09c0-.07-.1-.14-.14-.21a3.59,3.59,0,0,1-.21-.38,1.13,1.13,0,0,1-.09-.2c.06.16,0-.12,0-.15a.82.82,0,0,0-1.36-.34,2.94,2.94,0,0,0-.59,1l-.17.48s-.1.21,0,.1a2.12,2.12,0,0,1-.12.2c.08-.11-.07.06-.08.07s0,0-.08,0,.09,0,0,0h0a.15.15,0,0,1,.09,0s0,0,0,0,.06,0,0,0l-.05-.06c.1.12,0-.06,0-.09a2,2,0,0,1-.11-.21c.06.12,0-.11,0-.14s0-.16-.06-.23,0-.08,0-.12,0,.05,0,0a1,1,0,0,1,0-.24s0-.26,0-.17a1.36,1.36,0,0,1,.32-.74c-.08.1.07-.07.07-.07l.17-.16c.12-.11-.05,0,.08-.06l.19-.12a1.78,1.78,0,0,1,.72-.19.73.73,0,0,0,.71-.69.68.68,0,0,0-.68-.68Z" transform="translate(0 0)"/><path class="cls-1" d="M169.46,27.07l.54,3.28a33,33,0,0,0,.6,3.27.79.79,0,0,0,1.5,0,3.18,3.18,0,0,1,.7-1.71.87.87,0,0,1,.48-.2.43.43,0,0,1,.4.14c.16.29-.09.71-.42.9a2.26,2.26,0,0,1-.88.27,1.7,1.7,0,0,0-.46.06c.07,0,0,0,0,0,.18.21.15.08.08,0l.18.32v.26c.06-.38-.15-.84-.61-.8a.83.83,0,0,0-.79.6.93.93,0,0,0,.47,1,2.4,2.4,0,0,0,1.79,0,2.64,2.64,0,0,0,2.25-2.57,1.85,1.85,0,0,0-2.57-1.53,3.81,3.81,0,0,0-2.07,2.85l1.52.18c-.08-1.16-.28-2.29-.46-3.44l-.54-3.35a.84.84,0,0,0-1-.59.89.89,0,0,0-.63,1Z" transform="translate(0 0)"/><path class="cls-1" d="M177.06,31.48c.14.44.27.88.41,1.32.07.22.15.42.23.63a2.58,2.58,0,0,0,.21.48l.17.3a.7.7,0,0,0,.78.31.72.72,0,0,0,.54-.67,4.81,4.81,0,0,0-.1-.85c-.05-.21-.1-.43-.16-.65-.13-.44-.27-.88-.41-1.32a.85.85,0,0,0-1-.59.89.89,0,0,0-.63,1Z" transform="translate(0 0)"/><path class="cls-1" d="M177.32,26.77l-.15,0h0l-.14.06h0l-.13.1.12-.09h0l.14-.06a.84.84,0,0,0-.18.07l-.13.1-.1.13-.06.15a.77.77,0,0,0,0,.15v0s0,.07,0,.1,0,.06,0,.08l.06.15h0v0l.11.15,0,0a.53.53,0,0,0,.19.12.54.54,0,0,0,.22,0l.15,0h0l.15-.07.11-.08a.5.5,0,0,0,.13-.22h0l-.06.13h0a.69.69,0,0,0,.08-.28c0-.07,0-.13,0-.19v.09l0,.15,0-.16c0-.06,0-.12,0-.17l0,.15a.06.06,0,0,1,0,0,.22.22,0,0,0,0-.08.42.42,0,0,0,0-.15l0-.08-.1-.13-.13-.09h0l.12.09h0l.09.12h0l.05.14v.07l0,.13a0,0,0,0,0,0,0l-.05.11h0a.62.62,0,0,0,.07-.23.4.4,0,0,0-.07-.24.48.48,0,0,0-.42-.24Z" transform="translate(0 0)"/><path class="cls-1" d="M180.07,27.67a22.37,22.37,0,0,1,.69,3c.07.49.17,1,.25,1.45a6,6,0,0,0,.38,1.51.39.39,0,0,0,.67,0,4.27,4.27,0,0,0,.35-1.57,8.66,8.66,0,0,0,0-1.61,17.91,17.91,0,0,0-.66-3.24.86.86,0,0,0-1-.59.89.89,0,0,0-.63,1Z" transform="translate(0 0)"/><path class="cls-1" d="M184.49,32.07l.1.8,0,.21.06.18.13.38a.69.69,0,0,0,.34.44.7.7,0,0,0,.45.08.77.77,0,0,0,.66-.72l0-.4a1.49,1.49,0,0,0,0-.21,2.78,2.78,0,0,0-.05-.39l-.1-.82a.81.81,0,0,0-.39-.51.84.84,0,0,0-.64-.07.88.88,0,0,0-.54.4l-.08.2a.79.79,0,0,0,0,.43Z" transform="translate(0 0)"/><path class="cls-1" d="M185.16,27.24l-.14,0h-.16l-.14,0h0l-.14.06,0,0-.13.1h0l-.05.06,0,.06v0l-.07.16v0h0a1.11,1.11,0,0,0,0,.17v0h0a.45.45,0,0,0,.05.24.46.46,0,0,0,.09.15.5.5,0,0,0,.07.08l.14.11h0l.15.06h0l.16,0a.65.65,0,0,0,.31-.08.52.52,0,0,0,.19-.17.53.53,0,0,0,.11-.21.54.54,0,0,0,0-.31.66.66,0,0,0-.16-.28l.1.13,0,0,.06.15s0,0,0,0a.52.52,0,0,0-.06-.16l-.11-.13h0l.1.13,0-.05.06.15a0,0,0,0,1,0,0v0h0l-.06-.15.05.14s0,0,0,0l0,.14v0l0,.13a0,0,0,0,1,0,0l-.05.12s0,0,0,0l-.08.09h0a.57.57,0,0,0,.13-.21.33.33,0,0,0,0-.17.3.3,0,0,0-.06-.18.4.4,0,0,0-.17-.17Z" transform="translate(0 0)"/><path class="cls-1" d="M188.88,28.65a27.49,27.49,0,0,0,.33,2.73,8.73,8.73,0,0,0,.78,2.56c.26.51,1,.22,1-.28a15.32,15.32,0,0,0-.18-2.62c-.1-.78-.19-1.57-.26-2.4a.83.83,0,0,0-.84-.84.89.89,0,0,0-.87.85Z" transform="translate(0 0)"/><path class="cls-1" d="M189.11,30.69h1.1a10.46,10.46,0,0,0,1.11-.12.84.84,0,0,0,.52-.22.72.72,0,0,0,.2-.41.69.69,0,0,0-.51-.78,10.76,10.76,0,0,0-1.26-.13l-1.13,0a.89.89,0,0,0-.87.85.84.84,0,0,0,.84.84Z" transform="translate(0 0)"/><path class="cls-1" d="M193.39,31.08a6.65,6.65,0,0,0,.83,1.44c.15.19.31.37.47.55a5.37,5.37,0,0,0,.7.56.6.6,0,0,0,.41.07.66.66,0,0,0,.51-1c-.13-.19-.24-.39-.37-.58s-.26-.41-.38-.62a13.85,13.85,0,0,1-.66-1.27l.09.21,0,0a.77.77,0,0,0-.22-.38l-.18-.13a.81.81,0,0,0-.74,0,.84.84,0,0,0-.44,1.2Z" transform="translate(0 0)"/><path class="cls-1" d="M196.06,30.68a50.19,50.19,0,0,0-1.23,6.65,24.81,24.81,0,0,0-.1,6.72c.14.83,1.29.51,1.37-.18.24-2.14.19-4.3.43-6.43a45.51,45.51,0,0,1,1.18-6.35.85.85,0,0,0-1.65-.41Z" transform="translate(0 0)"/><path class="cls-1" d="M205.51,27.85q0,1.56.12,3.12a17.38,17.38,0,0,0,.37,3.15.78.78,0,0,0,1,.55,2.42,2.42,0,0,0,1.39-1.14c.15-.23.58-1.3,1-1.19.15,0,.24.4.29.53.13.36.25.72.35,1.08a21.63,21.63,0,0,0,.6,2.27.65.65,0,0,0,1.26-.17,7,7,0,0,0-.49-2.7c-.25-.75-.51-1.77-1.25-2.18a1.75,1.75,0,0,0-2.14.65,8.56,8.56,0,0,0-.63.94c-.13.2-.26.4-.51.38l.78.77c0-1-.17-2-.23-3s-.1-2-.11-3.05a.86.86,0,0,0-1.72,0Z" transform="translate(0 0)"/><path class="cls-1" d="M214.27,33.69c1.21.37,2.73.67,3.69-.42a1.67,1.67,0,0,0,.4-1.66,2,2,0,0,0-1.12-1.19,2.45,2.45,0,0,0-2.69.56,2.57,2.57,0,0,0,.11,3.27,5,5,0,0,0,3.9,1.67.61.61,0,0,0,.58-.44.55.55,0,0,0-.27-.64,4.89,4.89,0,0,0-.76-.27l-.77-.2a4.44,4.44,0,0,1-1.28-.58c-.17-.1.05.05,0,0l-.12-.1a2.39,2.39,0,0,1-.23-.22s-.12-.15-.07-.08-.06-.1-.06-.09a3.37,3.37,0,0,1-.19-.32l0-.11c0,.11,0-.08,0-.08s-.05-.2-.07-.29a1.36,1.36,0,0,1,0-.49s0-.08,0-.12-.05.08,0-.05a2.39,2.39,0,0,1,.13-.21s-.07.06,0,0l.11-.1.07-.07s0,0,0,0l.06,0a1.56,1.56,0,0,1,.35-.19,1.36,1.36,0,0,1,.48-.07.9.9,0,0,1,.85,1.33,1.27,1.27,0,0,1-.4.36,1.1,1.1,0,0,1-.22.11,1.87,1.87,0,0,1-.34.08,4.53,4.53,0,0,1-1.81-.32.53.53,0,0,0-.29,1Z" transform="translate(0 0)"/><path class="cls-1" d="M221.31,33.74c.17.21.05.06,0,0l-.08-.15a.45.45,0,0,0-.06-.12l0,.1,0-.07a3,3,0,0,1-.08-.32c0-.07,0-.21,0,0v-.14a1.58,1.58,0,0,1,0-.31c0-.06,0,0,0,.1a.44.44,0,0,1,0-.1l0-.13.05-.14c0-.15-.1.19,0,0s.11-.17.16-.26c-.09.17-.09.11,0,0l.1-.1.12-.11-.1.07a1.84,1.84,0,0,0,.22-.17c-.24.19,0,0,.09,0l.14-.08c.18-.08-.17.06,0,0l.26-.09.13,0h.09c-.12,0-.14,0-.06,0l.28,0h.13s.24,0,.06,0a.66.66,0,0,0,.75-.38.6.6,0,0,0-.25-.77,2.45,2.45,0,0,0-1.78-.25,2.78,2.78,0,0,0-2.11,2.79,3,3,0,0,0,.15.88,3.28,3.28,0,0,0,.55,1,.86.86,0,0,0,.59.23.88.88,0,0,0,.62-.26.87.87,0,0,0,.26-.59,1,1,0,0,0-.25-.6Z" transform="translate(0 0)"/><path class="cls-1" d="M224.46,33.5a3.18,3.18,0,0,0,3.35-.48,2.07,2.07,0,0,0,.08-2.72c-.89-.92-2.29-.3-2.82.68a2.42,2.42,0,0,0,1,3.13,4.39,4.39,0,0,0,2,.66,10.3,10.3,0,0,0,1.24.06c.42,0,.84-.07,1.26-.08a.7.7,0,0,0,.67-.58.64.64,0,0,0-.48-.72,11.22,11.22,0,0,0-1.64-.14,5.8,5.8,0,0,1-1.44-.12,2.73,2.73,0,0,1-.93-.42,1.35,1.35,0,0,1-.54-.75.51.51,0,0,1,0-.3,1,1,0,0,1,.19-.39.59.59,0,0,1,.56-.26c.21,0,.31.22.35.46a1.09,1.09,0,0,1-.19.74c-.52.73-1.69.5-2.4.26s-.89.76-.27,1Z" transform="translate(0 0)"/><path class="cls-2" d="M74.43,37.73l9.9-.12c3.3,0,6.61,0,9.9-.2a.42.42,0,0,0,0-.84c-3.3-.1-6.6.08-9.9.16l-9.9.25c-.48,0-.51.75,0,.75Z" transform="translate(0 0)"/><path class="cls-2" d="M205.72,39.21l14.37.27c4.79.09,9.58.24,14.37.19a.36.36,0,0,0,0-.71c-4.78-.2-9.58-.21-14.37-.27l-14.36-.19a.36.36,0,0,0,0,.71Z" transform="translate(0 0)"/><path class="cls-2" d="M219.31,46.85c.22,9.62,1.68,19.38-.14,28.93a32.86,32.86,0,0,1-4.44,11.72A29.58,29.58,0,0,1,205.94,96a95.22,95.22,0,0,1-12.28,6.47c-.58.27-.09,1.06.48.82,7.64-3.24,15.6-6.91,20.62-13.82,5.26-7.23,6.35-16.58,6.13-25.27-.15-5.81-.8-11.59-1-17.4a.3.3,0,0,0-.6,0Z" transform="translate(0 0)"/><path class="cls-2" d="M85.19,44.54a18.6,18.6,0,0,1,1,12.72,19.86,19.86,0,0,1-6.38,9.61c-.33.27.1.83.45.58a19.17,19.17,0,0,0,5.6-23.27c-.19-.41-.81,0-.62.36Z" transform="translate(0 0)"/><path class="cls-2" d="M79.28,63.91c0,1-.1,1.9-.15,2.85a.42.42,0,0,0,.38.43.48.48,0,0,0,.5-.32,8.77,8.77,0,0,0,.49-3,.58.58,0,0,0-.6-.59.63.63,0,0,0-.62.6Z" transform="translate(0 0)"/><path class="cls-2" d="M80.5,67.75a30.62,30.62,0,0,0,3.94-.69c.52-.14.48-1-.1-1a31.78,31.78,0,0,0-4.11.59.56.56,0,0,0-.4.67.55.55,0,0,0,.67.38Z" transform="translate(0 0)"/><path class="cls-2" d="M194.73,98.68c-.17.54-.34,1.08-.5,1.63l-.24.8c-.08.28-.12.57-.18.85a.49.49,0,0,0,.34.6.53.53,0,0,0,.62-.36c.11-.26.23-.52.31-.78s.18-.55.27-.83c.18-.54.34-1.08.51-1.63a.56.56,0,0,0-.41-.7.61.61,0,0,0-.72.42Z" transform="translate(0 0)"/><path class="cls-2" d="M195,104c1.64.21,3.29.39,4.94.49a.53.53,0,0,0,.16-1c-1.57-.31-3.14-.55-4.72-.78a.74.74,0,0,0-.86.5.65.65,0,0,0,.48.83Z" transform="translate(0 0)"/><path class="cls-2" d="M120.82,110.18q2.87-2.58,5.66-5.27c.91-.88,1.82-1.77,2.72-2.67l1.29-1.33a4.14,4.14,0,0,0,1.18-1.55.54.54,0,0,0-.68-.66,4,4,0,0,0-1.45,1.14l-1.31,1.32c-.92.93-1.84,1.85-2.77,2.76q-2.77,2.7-5.65,5.28c-.7.63.33,1.6,1,1Z" transform="translate(0 0)"/><path class="cls-2" d="M122.19,101.09q1.07,3.09,2.41,6.08a20.27,20.27,0,0,0,3.18,5.65.61.61,0,0,0,1-.58,16.42,16.42,0,0,0-1.29-2.91q-.72-1.38-1.38-2.79c-.9-1.91-1.71-3.87-2.44-5.85-.33-.9-1.81-.51-1.49.4Z" transform="translate(0 0)"/><path class="cls-1" d="M159.89,19.64q1-1,1.92-2.13c.32-.38.63-.76.93-1.15a3.38,3.38,0,0,0,.38-.6,2,2,0,0,0,.26-.71.32.32,0,0,0-.42-.31,2,2,0,0,0-.58.43,4,4,0,0,0-.48.52c-.3.36-.59.74-.88,1.1-.6.73-1.23,1.44-1.87,2.13a.54.54,0,0,0,0,.74.55.55,0,0,0,.75,0Z" transform="translate(0 0)"/><path class="cls-1" d="M159.05,15.64c.46.69.9,1.39,1.31,2.11a19,19,0,0,0,1.25,2.14.51.51,0,0,0,.64.2.5.5,0,0,0,.31-.59,9.14,9.14,0,0,0-1-2.4c-.39-.74-.81-1.47-1.26-2.18a.73.73,0,0,0-1.26.72Z" transform="translate(0 0)"/></svg>