<?xml version="1.0" encoding="utf-8"?>
<!-- Generator: Adobe Illustrator 26.0.2, SVG Export Plug-In . SVG Version: 6.00 Build 0)  -->
<svg version="1.1" id="Layer_1" xmlns="http://www.w3.org/2000/svg" xmlns:xlink="http://www.w3.org/1999/xlink" x="0px" y="0px"
	 viewBox="0 0 75.91 53.62" style="enable-background:new 0 0 75.91 53.62;" xml:space="preserve">
<style type="text/css">
	.st0{opacity:0.4;fill:#486AFB;stroke:#486AFB;stroke-miterlimit:10;}
	.st1{fill:none;stroke:#486AFB;stroke-miterlimit:10;}
	.st2{fill:#FD46FC;}
	.st3{fill:#486AFB;}
</style>
<circle class="st0" cx="11.5" cy="41.75" r="11"/>
<circle class="st1" cx="11.5" cy="41.75" r="11"/>
<circle class="st0" cx="61.76" cy="42.12" r="11"/>
<path class="st2" d="M64.33,39.86l0.14-0.14c0.3-0.3,0.63-0.64,1.3-0.69c0.11-0.01,0.2-0.01,0.2-0.19c0-0.08-0.05-0.12-0.13-0.12
	c-0.26,0-0.55,0.03-0.81,0.03c-0.33,0-0.68-0.03-0.99-0.03c-0.06,0-0.19,0-0.19,0.19c0,0.11,0.1,0.12,0.15,0.12
	c0.07,0,0.36,0.02,0.36,0.23c0,0.17-0.23,0.43-0.27,0.48l-2.3,2.65l-1.09-2.95c-0.06-0.14-0.06-0.16-0.06-0.17
	c0-0.24,0.49-0.24,0.59-0.24c0.14,0,0.24,0,0.24-0.2c0-0.11-0.12-0.11-0.15-0.11c-0.28,0-0.97,0.03-1.25,0.03
	c-0.25,0-0.86-0.03-1.11-0.03c-0.06,0-0.19,0-0.19,0.2c0,0.11,0.1,0.11,0.23,0.11c0.6,0,0.64,0.09,0.72,0.34l1.22,3.27
	c0.01,0.03,0.04,0.14,0.04,0.17c0,0.03-0.4,1.63-0.45,1.81c-0.13,0.55-0.14,0.58-0.93,0.59c-0.19,0-0.27,0-0.27,0.2
	c0,0.11,0.12,0.11,0.14,0.11c0.28,0,0.97-0.03,1.25-0.03c0.28,0,0.99,0.03,1.27,0.03c0.07,0,0.19,0,0.19-0.2
	c0-0.11-0.09-0.11-0.28-0.11c-0.02,0-0.21,0-0.38-0.02c-0.21-0.02-0.27-0.04-0.27-0.16c0-0.07,0.09-0.42,0.14-0.62l0.35-1.4
	c0.05-0.19,0.06-0.22,0.14-0.31L64.33,39.86"/>
<circle class="st1" cx="61.76" cy="42.12" r="11"/>
<g>
	<g>
		<line class="st1" x1="26.76" y1="42.12" x2="45.24" y2="42.12"/>
		<g>
			<path class="st3" d="M48.26,42.12c-1.42,0.53-3.18,1.43-4.27,2.38l0.86-2.38l-0.86-2.38C45.08,40.69,46.84,41.59,48.26,42.12z"/>
		</g>
	</g>
</g>
<g>
	<g>
		<line class="st1" x1="54.07" y1="11.47" x2="57.51" y2="26.56"/>
		<g>
			<path class="st3" d="M58.19,29.5c-0.83-1.27-2.1-2.78-3.27-3.64l2.51,0.31l2.13-1.37C58.87,26.08,58.38,28,58.19,29.5z"/>
		</g>
	</g>
</g>
<g>
	<g>
		<line class="st1" x1="68.03" y1="11.55" x2="64.58" y2="26.63"/>
		<g>
			<path class="st3" d="M63.91,29.57c-0.2-1.5-0.68-3.42-1.37-4.7l2.13,1.37l2.51-0.31C66.01,26.79,64.74,28.31,63.91,29.57z"/>
		</g>
	</g>
</g>
<g>
	<g>
		<line class="st1" x1="11.5" y1="26.15" x2="11.5" y2="12.28"/>
		<g>
			<path class="st3" d="M11.5,29.17c0.53-1.42,1.43-3.18,2.38-4.27l-2.38,0.86l-2.38-0.86C10.07,25.98,10.97,27.75,11.5,29.17z"/>
		</g>
	</g>
</g>
<path class="st2" d="M12.48,6.32c-0.62,2.66-1.45,2.93-1.8,2.93c-0.14,0-0.35-0.04-0.49-0.35c-0.12-0.27-0.12-0.65-0.12-0.66
	c0-0.57,0.22-1.49,0.33-1.92H12.48 M10.52,5.84c0.14-0.58,0.4-1.48,0.7-2c0.23-0.41,0.64-0.93,1.11-0.93c0.42,0,0.6,0.44,0.6,1.02
	c0,0.62-0.22,1.49-0.33,1.91H10.52z M13.99,4.66c0-1.75-1.03-2.11-1.64-2.11c-0.79,0-1.78,0.52-2.52,1.87
	C9.32,5.35,9.01,6.7,9.01,7.51c0,1.44,0.76,2.1,1.65,2.1c0.67,0,1.54-0.39,2.23-1.4C13.72,6.98,13.99,5.4,13.99,4.66z"/>
<path class="st2" d="M11.96,41.06l-0.83-1.98c-0.03-0.08-0.05-0.12-0.05-0.13c0-0.06,0.17-0.25,0.59-0.29
	c0.1-0.01,0.2-0.02,0.2-0.19c0-0.12-0.12-0.12-0.15-0.12c-0.41,0-0.83,0.03-1.25,0.03c-0.25,0-0.86-0.03-1.11-0.03
	c-0.06,0-0.18,0-0.18,0.2c0,0.11,0.1,0.11,0.23,0.11c0.6,0,0.66,0.1,0.75,0.32l1.17,2.77l-2.1,2.25l-0.13,0.11
	c-0.49,0.53-0.95,0.69-1.46,0.72c-0.13,0.01-0.22,0.01-0.22,0.2c0,0.01,0,0.11,0.13,0.11c0.3,0,0.63-0.03,0.93-0.03
	c0.37,0,0.75,0.03,1.11,0.03c0.06,0,0.18,0,0.18-0.2c0-0.1-0.1-0.11-0.12-0.11c-0.09-0.01-0.4-0.03-0.4-0.31
	c0-0.16,0.15-0.32,0.27-0.45l1.01-1.07l0.89-0.97l1,2.38c0.04,0.11,0.05,0.12,0.05,0.14c0,0.08-0.19,0.25-0.58,0.29
	c-0.11,0.01-0.2,0.02-0.2,0.19c0,0.12,0.11,0.12,0.15,0.12c0.28,0,0.98-0.03,1.25-0.03c0.25,0,0.85,0.03,1.1,0.03
	c0.07,0,0.19,0,0.19-0.19c0-0.12-0.1-0.12-0.18-0.12c-0.67-0.01-0.69-0.04-0.85-0.44c-0.39-0.92-1.05-2.47-1.28-3.07
	c0.67-0.7,1.72-1.88,2.04-2.16c0.29-0.24,0.67-0.48,1.26-0.51c0.13-0.01,0.22-0.01,0.22-0.2c0-0.01,0-0.11-0.13-0.11
	c-0.3,0-0.63,0.03-0.93,0.03c-0.37,0-0.75-0.03-1.1-0.03c-0.06,0-0.19,0-0.19,0.2c0,0.07,0.05,0.1,0.12,0.11
	c0.09,0.01,0.4,0.03,0.4,0.31c0,0.14-0.11,0.27-0.19,0.36L11.96,41.06"/>
<path class="st2" d="M52.41,5.68c0.06-0.26,0.17-0.68,0.17-0.75c0-0.21-0.16-0.44-0.47-0.44c-0.52,0-0.65,0.5-0.68,0.62l-1.32,5.27
	c-0.04,0.16-0.04,0.22-0.04,0.26c0,0.32,0.26,0.44,0.47,0.44c0.19,0,0.46-0.11,0.6-0.39c0.06-0.12,0.39-1.48,0.46-1.79
	c0.41,0.16,0.85,0.16,0.98,0.16c0.34,0,0.8-0.06,1.39-0.6c0.24,0.46,0.8,0.6,1.16,0.6c0.37,0,0.66-0.21,0.86-0.57
	c0.25-0.4,0.38-0.93,0.38-0.98c0-0.14-0.15-0.14-0.24-0.14c-0.11,0-0.15,0-0.2,0.05c-0.02,0.02-0.02,0.04-0.08,0.29
	c-0.2,0.8-0.43,0.99-0.67,0.99c-0.11,0-0.23-0.04-0.23-0.37c0-0.17,0.04-0.33,0.14-0.72l0.26-1.01c0.05-0.22,0.15-0.62,0.22-0.89
	c0.06-0.23,0.16-0.63,0.16-0.7c0-0.21-0.16-0.44-0.47-0.44c-0.2,0-0.55,0.12-0.66,0.53l-0.68,2.75c-0.04,0.18-0.21,0.35-0.39,0.5
	c-0.32,0.27-0.62,0.36-0.88,0.36c-0.67,0-0.74-0.49-0.74-0.78c0-0.27,0.06-0.51,0.1-0.69L52.41,5.68"/>
<path class="st2" d="M68.24,8.76c-0.49,0-0.88-0.36-0.88-1.07c0-0.3,0.12-1.11,0.47-1.7c0.42-0.68,1.01-0.82,1.35-0.82
	c0.83,0,0.91,0.65,0.91,0.96c0,0.47-0.2,1.28-0.54,1.79C69.16,8.5,68.62,8.76,68.24,8.76 M71.5,5.16c0.13,0,0.49,0,0.49-0.34
	c0-0.24-0.21-0.24-0.39-0.24h-2.27c-1.5,0-2.6,1.64-2.6,2.82c0,0.88,0.59,1.57,1.49,1.57c1.17,0,2.49-1.2,2.49-2.73
	c0-0.17,0-0.65-0.31-1.08H71.5z"/>
<path class="st2" d="M75.91,3.39h-0.24c-0.02,0.15-0.09,0.57-0.18,0.64c-0.06,0.04-0.6,0.04-0.7,0.04H73.5
	c0.74-0.65,0.98-0.85,1.41-1.18c0.52-0.42,1-0.85,1-1.52c0-0.85-0.75-1.37-1.65-1.37c-0.87,0-1.46,0.61-1.46,1.26
	c0,0.36,0.3,0.39,0.37,0.39c0.17,0,0.37-0.12,0.37-0.37c0-0.13-0.05-0.37-0.41-0.37c0.22-0.5,0.7-0.65,1.03-0.65
	c0.7,0,1.07,0.55,1.07,1.12c0,0.61-0.44,1.1-0.66,1.35l-1.7,1.67C72.8,4.46,72.8,4.47,72.8,4.67h2.9L75.91,3.39"/>
</svg>
