<svg id="Layer_1" data-name="Layer 1" xmlns="http://www.w3.org/2000/svg" viewBox="0 0 296.03 127.99"><defs><style>.cls-1{fill:#486afb;}.cls-2{fill:#f7dd1e;}.cls-3{fill:#f9f9d2;}.cls-4{fill:#fd46fc;}</style></defs><path class="cls-1" d="M3.66,66.69a36.16,36.16,0,0,1-1.38-4.62,44.15,44.15,0,0,1-.91-5.56,30.4,30.4,0,0,1-.1-6.33c.31-2.53,1.2-4.8,3.4-5.22,3.75-.71,5.52,5,6.58,8.48.17.55.32,1,.45,1.4.36,1,.71,2,1.08,2.92.27.7.55,1.38.83,2l.26-.15a5.87,5.87,0,0,1,2-.62,8.47,8.47,0,0,1,4,.47,12.31,12.31,0,0,1,3.89,2.35,15.51,15.51,0,0,1,1.75,1.82,4.94,4.94,0,0,1,.93,1.62,2.71,2.71,0,0,1,.11.74,2.45,2.45,0,0,1-.08.72,2.48,2.48,0,0,1-.48.89,2.2,2.2,0,0,1-.83.59c-1.12.47-2.34-.13-3.58-.73a10.62,10.62,0,0,0-1.66-.7,10.15,10.15,0,0,0-2.52-.39,20.31,20.31,0,0,0,4,3.83,30.88,30.88,0,0,0,7,3.69l1.29.47,1.36.47h0l.62.2c2.12.66,4.9,1.53,4.69,4.12a4.92,4.92,0,0,1-1.26,2.9A7.12,7.12,0,0,1,32.26,84l-.06,0h0a21.1,21.1,0,0,1-6.78.64A20.56,20.56,0,0,1,19,83a27.11,27.11,0,0,1-6.61-3.92,25.54,25.54,0,0,1-3.52-3.45,28.28,28.28,0,0,0,.88,3.18c.55,1.75,1,3.26.76,4.4,0,0,0,.12-.05.19a2.22,2.22,0,0,1-1.57,1.39,3.75,3.75,0,0,1-1.88,0l-.29-.08a8.7,8.7,0,0,1-1.82-.87A10.52,10.52,0,0,1,.58,78.14a11.75,11.75,0,0,1,0-7.23,10.08,10.08,0,0,1,1-2,7,7,0,0,1,2.15-2.23Z"/><path class="cls-2" d="M8.22,79.32C7.07,75.69,5.59,71,9.55,67.68a6.42,6.42,0,0,0-3.43-.35,5.12,5.12,0,0,0-3.3,2.41A7.74,7.74,0,0,0,2,71.41a10.14,10.14,0,0,0,0,6.26,9,9,0,0,0,3.63,4.92,7.6,7.6,0,0,0,1.49.72l.15,0a2.24,2.24,0,0,0,1.09,0,.73.73,0,0,0,.53-.4.18.18,0,0,1,0-.05,9.07,9.07,0,0,0-.73-3.56Z"/><path class="cls-2" d="M8.57,73.34a24.93,24.93,0,0,0,4.56,4.8,25.63,25.63,0,0,0,6.31,3.75,19.19,19.19,0,0,0,6.07,1.47,19.63,19.63,0,0,0,6.36-.6,5.75,5.75,0,0,0,2.38-1.51,5.81,5.81,0,0,0,.46-.62,22.6,22.6,0,0,1-13.18-2.5,25.12,25.12,0,0,1-10.26-9.81,5.76,5.76,0,0,0-2.7,5Z"/><path class="cls-3" d="M12.59,60.58c-.33-.76-.65-1.54-1-2.36s-.73-1.92-1.1-3c-.14-.39-.29-.89-.46-1.44-.93-3-2.5-8.13-5.16-7.62-1.5.29-2.14,2.1-2.39,4.14a29.38,29.38,0,0,0,.1,6.07,40.39,40.39,0,0,0,.89,5.39,34.83,34.83,0,0,0,1.28,4.33,5.82,5.82,0,0,1,1-.3,8,8,0,0,1,4.61.53c0-.45.07-.9.14-1.34a9.37,9.37,0,0,1,.76-2.6,6.83,6.83,0,0,1,.44-.8,6.36,6.36,0,0,1,.52-.7l.31-.33Z"/><path class="cls-2" d="M11.66,66.53a12,12,0,0,1,3.71-1.25,11.38,11.38,0,0,1,4.9.3,12,12,0,0,1,1.87.78c1,.49,2,1,2.56.71a1,1,0,0,0,.57-.66,1.5,1.5,0,0,0,.05-.37,2.3,2.3,0,0,0-.07-.42,4,4,0,0,0-.7-1.18,13.56,13.56,0,0,0-1.61-1.66,10.9,10.9,0,0,0-3.48-2.12A7.19,7.19,0,0,0,16,60.25a5,5,0,0,0-1.57.49,4.36,4.36,0,0,0-1.23,1c-.14.17-.28.36-.42.56a7,7,0,0,0-.36.66,8,8,0,0,0-.65,2.25,11.92,11.92,0,0,0-.13,1.34Z"/><path class="cls-2" d="M35.17,79.3l0-.22c.12-1.6-2.11-2.3-3.83-2.83l-.63-.2h0l-1.4-.48L28,75.08a32.22,32.22,0,0,1-7.32-3.84,21.35,21.35,0,0,1-4.8-4.78l-.34.05A10.71,10.71,0,0,0,12.3,67.6,23.82,23.82,0,0,0,22.1,77a21.27,21.27,0,0,0,13,2.29Z"/><path class="cls-1" d="M67.87,66.69a37.85,37.85,0,0,1-1.38-4.62,44.15,44.15,0,0,1-.91-5.56,31.11,31.11,0,0,1-.1-6.33c.31-2.53,1.2-4.8,3.4-5.22,3.76-.71,5.53,5,6.59,8.48.16.55.31,1,.44,1.4.36,1,.71,2,1.08,2.92.28.7.55,1.38.83,2l.26-.15a6,6,0,0,1,2-.62,8.47,8.47,0,0,1,4,.47A12.2,12.2,0,0,1,88,61.84a16.37,16.37,0,0,1,1.76,1.82,5.08,5.08,0,0,1,.92,1.62,2.71,2.71,0,0,1,.11.74,2.45,2.45,0,0,1-.08.72,2.21,2.21,0,0,1-.48.89,2.16,2.16,0,0,1-.82.59c-1.12.47-2.35-.13-3.59-.73a8.89,8.89,0,0,0-4.18-1.09,20.31,20.31,0,0,0,4,3.83,31,31,0,0,0,7.06,3.69l1.28.47c.45.16.9.32,1.37.47h0l.62.2c2.12.66,4.9,1.53,4.69,4.12a4.86,4.86,0,0,1-1.26,2.9A7.06,7.06,0,0,1,96.47,84l-.06,0h0a21.1,21.1,0,0,1-6.78.64A20.44,20.44,0,0,1,83.17,83a26.92,26.92,0,0,1-6.61-3.92A25.07,25.07,0,0,1,73,75.67c.23,1.11.57,2.19.88,3.18.56,1.75,1,3.26.76,4.4,0,0,0,.12,0,.19a2.2,2.2,0,0,1-1.57,1.39,3.75,3.75,0,0,1-1.88,0l-.28-.08a8.25,8.25,0,0,1-1.82-.87,10.49,10.49,0,0,1-4.28-5.77,11.68,11.68,0,0,1,0-7.23,9.51,9.51,0,0,1,.94-2,7.16,7.16,0,0,1,2.15-2.23Z"/><path class="cls-2" d="M72.43,79.32c-1.15-3.63-2.62-8.31,1.33-11.64a6.42,6.42,0,0,0-3.43-.35A5.12,5.12,0,0,0,67,69.74a7.74,7.74,0,0,0-.79,1.67,10.22,10.22,0,0,0,0,6.26,9,9,0,0,0,3.63,4.92,7.6,7.6,0,0,0,1.49.72l.15,0a2.24,2.24,0,0,0,1.09,0,.73.73,0,0,0,.53-.4.12.12,0,0,0,0-.05,9.07,9.07,0,0,0-.73-3.56Z"/><path class="cls-2" d="M72.78,73.34a24.93,24.93,0,0,0,4.56,4.8,25.82,25.82,0,0,0,6.31,3.75,19.25,19.25,0,0,0,6.08,1.47,19.68,19.68,0,0,0,6.36-.6,5.89,5.89,0,0,0,2.38-1.51,4.58,4.58,0,0,0,.45-.62,22.6,22.6,0,0,1-13.18-2.5,25.12,25.12,0,0,1-10.26-9.81,5.78,5.78,0,0,0-2.7,5Z"/><path class="cls-3" d="M76.81,60.58c-.34-.76-.66-1.54-1-2.36s-.73-1.92-1.09-3c-.14-.39-.29-.89-.46-1.44-.94-3-2.51-8.13-5.16-7.62-1.51.29-2.15,2.1-2.39,4.14a28.78,28.78,0,0,0,.09,6.07,43.9,43.9,0,0,0,.89,5.39A36.63,36.63,0,0,0,69,66.12a5.82,5.82,0,0,1,1-.3,8,8,0,0,1,4.61.53c0-.45.07-.9.14-1.34a9.37,9.37,0,0,1,.76-2.6,6.83,6.83,0,0,1,.44-.8,5.35,5.35,0,0,1,.53-.7,3.19,3.19,0,0,1,.31-.33Z"/><path class="cls-2" d="M75.87,66.53a12,12,0,0,1,3.71-1.25,11.43,11.43,0,0,1,4.91.3,12.27,12.27,0,0,1,1.86.78c1,.49,2,1,2.56.71a.92.92,0,0,0,.57-.66,1.14,1.14,0,0,0,0-.37,1.67,1.67,0,0,0-.07-.42,3.78,3.78,0,0,0-.7-1.18,13.56,13.56,0,0,0-1.61-1.66,10.85,10.85,0,0,0-3.47-2.12,7.25,7.25,0,0,0-3.45-.41,5,5,0,0,0-1.57.49,4.19,4.19,0,0,0-1.22,1,4.81,4.81,0,0,0-.42.56,5.32,5.32,0,0,0-.37.66A8.35,8.35,0,0,0,76,65.19c-.06.44-.11.89-.13,1.34Z"/><path class="cls-2" d="M99.39,79.3a1.8,1.8,0,0,1,0-.22c.13-1.6-2.11-2.3-3.82-2.83l-.64-.2h0l-1.39-.48c-.44-.15-.88-.32-1.32-.49a32.09,32.09,0,0,1-7.33-3.84,21.56,21.56,0,0,1-4.8-4.78l-.34.05a10.81,10.81,0,0,0-3.26,1.09A23.85,23.85,0,0,0,86.32,77a21.25,21.25,0,0,0,13,2.29Z"/><path class="cls-1" d="M132.08,68.11a39.86,39.86,0,0,1-1.38-4.63,43.7,43.7,0,0,1-.91-5.55,30.5,30.5,0,0,1-.09-6.33c.3-2.54,1.19-4.8,3.39-5.22,3.76-.72,5.53,5,6.59,8.48.17.54.32,1,.45,1.4.35,1,.71,2,1.07,2.92.28.7.56,1.38.84,2l.25-.14a6,6,0,0,1,2-.63,8.48,8.48,0,0,1,4,.48,12.2,12.2,0,0,1,3.89,2.35A15.52,15.52,0,0,1,154,65.08a4.8,4.8,0,0,1,.92,1.62,2.64,2.64,0,0,1,.11.73,2.38,2.38,0,0,1-.08.72,2.18,2.18,0,0,1-.48.9,2.25,2.25,0,0,1-.82.58c-1.12.48-2.35-.12-3.59-.73a12.3,12.3,0,0,0-1.65-.7,10.69,10.69,0,0,0-2.53-.38,20.38,20.38,0,0,0,4,3.83,31.06,31.06,0,0,0,7.05,3.68c.39.16.82.32,1.28.48l1.37.47h0l.62.19c2.13.67,4.9,1.54,4.7,4.13a4.89,4.89,0,0,1-1.27,2.89,7,7,0,0,1-2.92,1.88l-.06,0h0a21.35,21.35,0,0,1-6.77.64,20.5,20.5,0,0,1-6.47-1.57,27.24,27.24,0,0,1-6.61-3.92,26.8,26.8,0,0,1-3.53-3.45c.23,1.1.57,2.18.88,3.18.56,1.75,1,3.26.77,4.39l-.06.19a2.19,2.19,0,0,1-1.57,1.4,4,4,0,0,1-1.87,0l-.29-.08a9,9,0,0,1-1.82-.87A10.53,10.53,0,0,1,129,79.56a11.75,11.75,0,0,1,0-7.23,9.06,9.06,0,0,1,.94-2,7.16,7.16,0,0,1,2.15-2.23Z"/><path class="cls-2" d="M136.64,80.73C135.5,77.1,134,72.43,138,69.09a6.4,6.4,0,0,0-3.43-.34,5.11,5.11,0,0,0-3.3,2.41,8.39,8.39,0,0,0-.78,1.66,10.18,10.18,0,0,0,0,6.27A8.92,8.92,0,0,0,134.1,84a7,7,0,0,0,1.49.71l.15,0a2.24,2.24,0,0,0,1.09,0,.69.69,0,0,0,.53-.4.2.2,0,0,0,0,0,8.9,8.9,0,0,0-.73-3.57Z"/><path class="cls-2" d="M137,74.75a24.62,24.62,0,0,0,4.55,4.81,26.33,26.33,0,0,0,6.31,3.75,19.25,19.25,0,0,0,6.08,1.47,19.91,19.91,0,0,0,6.36-.6,5.83,5.83,0,0,0,2.38-1.52,3.6,3.6,0,0,0,.45-.62A22.52,22.52,0,0,1,150,79.55a25,25,0,0,1-10.25-9.81,5.75,5.75,0,0,0-2.7,5Z"/><path class="cls-3" d="M141,62c-.33-.75-.66-1.54-1-2.36s-.72-1.91-1.09-3c-.14-.4-.29-.89-.46-1.44-.94-3-2.5-8.13-5.16-7.62-1.5.28-2.15,2.09-2.39,4.14a29.36,29.36,0,0,0,.09,6.06,43.74,43.74,0,0,0,.89,5.4,36.63,36.63,0,0,0,1.28,4.33,5.85,5.85,0,0,1,1-.31,8.1,8.1,0,0,1,4.61.54c0-.45.08-.9.14-1.35a9.76,9.76,0,0,1,.76-2.59,6.11,6.11,0,0,1,.44-.8,5.35,5.35,0,0,1,.53-.7A3.28,3.28,0,0,1,141,62Z"/><path class="cls-2" d="M140.08,67.94a12.36,12.36,0,0,1,3.72-1.24,11.39,11.39,0,0,1,4.9.3,11.86,11.86,0,0,1,1.86.78c1,.48,2,1,2.56.71a1,1,0,0,0,.37-.27,1,1,0,0,0,.21-.39,1.5,1.5,0,0,0,0-.37,1.32,1.32,0,0,0-.07-.42,3.59,3.59,0,0,0-.7-1.18,14.51,14.51,0,0,0-1.6-1.67,11,11,0,0,0-3.48-2.11,7.24,7.24,0,0,0-3.45-.41,4.9,4.9,0,0,0-1.56.49,4.22,4.22,0,0,0-1.23,1,4.09,4.09,0,0,0-.42.56,5.14,5.14,0,0,0-.36.66,8,8,0,0,0-.65,2.25c-.07.44-.11.89-.14,1.33Z"/><path class="cls-2" d="M163.6,80.72a1.8,1.8,0,0,0,0-.22c.13-1.6-2.11-2.3-3.82-2.84l-.64-.2h0c-.48-.15-.94-.31-1.39-.47l-1.32-.5a31.91,31.91,0,0,1-7.33-3.84,21.51,21.51,0,0,1-4.8-4.77l-.33.05A10.63,10.63,0,0,0,140.73,69a23.76,23.76,0,0,0,9.8,9.42,21.32,21.32,0,0,0,13,2.29Z"/><path class="cls-1" d="M196.3,68.9a36.31,36.31,0,0,1-1.38-4.63,45.56,45.56,0,0,1-.92-5.55,30.5,30.5,0,0,1-.09-6.33c.3-2.54,1.2-4.8,3.4-5.22,3.75-.72,5.52,5,6.58,8.48.17.54.32,1,.45,1.4.35,1,.71,2,1.08,2.92.27.7.55,1.38.83,2l.26-.14a5.9,5.9,0,0,1,2-.63,8.52,8.52,0,0,1,4,.48,12.15,12.15,0,0,1,3.88,2.35,14.77,14.77,0,0,1,1.76,1.82,5,5,0,0,1,.93,1.62,3.68,3.68,0,0,1,.11.73,2.73,2.73,0,0,1-.09.72,2.29,2.29,0,0,1-.47.9,2.38,2.38,0,0,1-.83.58c-1.12.48-2.35-.12-3.59-.73a12.3,12.3,0,0,0-1.65-.7,10.69,10.69,0,0,0-2.52-.38,20.32,20.32,0,0,0,4,3.83,31.28,31.28,0,0,0,7.05,3.68q.6.24,1.29.48l1.36.47h0l.62.19c2.13.67,4.9,1.54,4.7,4.13a4.94,4.94,0,0,1-1.26,2.89,7,7,0,0,1-2.93,1.88l-.06,0h0a21.3,21.3,0,0,1-6.77.64,20.5,20.5,0,0,1-6.47-1.57A27.24,27.24,0,0,1,205,81.33a26.12,26.12,0,0,1-3.52-3.45,29.51,29.51,0,0,0,.88,3.18c.55,1.75,1,3.26.76,4.39a.82.82,0,0,1-.06.19,2.19,2.19,0,0,1-1.57,1.4,4,4,0,0,1-1.87,0l-.29-.08a9.23,9.23,0,0,1-1.82-.87,10.53,10.53,0,0,1-4.28-5.77,11.82,11.82,0,0,1,0-7.23,9.54,9.54,0,0,1,.94-2,7.09,7.09,0,0,1,2.16-2.23Z"/><path class="cls-2" d="M200.85,81.52c-1.14-3.63-2.62-8.3,1.33-11.64a6.39,6.39,0,0,0-3.43-.34,5.11,5.11,0,0,0-3.3,2.41,8.39,8.39,0,0,0-.78,1.66,10.18,10.18,0,0,0,0,6.27,8.94,8.94,0,0,0,3.63,4.92,7,7,0,0,0,1.49.71l.14,0a2.28,2.28,0,0,0,1.1,0,.69.69,0,0,0,.52-.4s0,0,0,0a9,9,0,0,0-.74-3.57Z"/><path class="cls-2" d="M201.21,75.54a25.23,25.23,0,0,0,4.55,4.81,26.2,26.2,0,0,0,6.32,3.75,19.19,19.19,0,0,0,6.07,1.47,19.91,19.91,0,0,0,6.36-.6,5.83,5.83,0,0,0,2.38-1.52,3.6,3.6,0,0,0,.45-.62,22.54,22.54,0,0,1-13.18-2.49,25.15,25.15,0,0,1-10.25-9.81,5.75,5.75,0,0,0-2.7,5Z"/><path class="cls-3" d="M205.23,62.78c-.33-.75-.65-1.54-1-2.36s-.72-1.91-1.09-3c-.14-.4-.29-.89-.46-1.44-.93-3-2.5-8.13-5.16-7.62-1.5.28-2.15,2.09-2.39,4.14a29.26,29.26,0,0,0,.1,6.06,41.92,41.92,0,0,0,.88,5.4,35.92,35.92,0,0,0,1.28,4.32,6.94,6.94,0,0,1,1-.3,8.11,8.11,0,0,1,4.61.54,12.36,12.36,0,0,1,.14-1.35,9.38,9.38,0,0,1,.75-2.59,7.55,7.55,0,0,1,.44-.8,6.42,6.42,0,0,1,.53-.7c.1-.12.2-.23.31-.34Z"/><path class="cls-2" d="M204.3,68.73A12.21,12.21,0,0,1,208,67.49a10.38,10.38,0,0,1,6.76,1.08c1,.48,2,1,2.56.71a1.14,1.14,0,0,0,.37-.27.92.92,0,0,0,.21-.39,1.5,1.5,0,0,0,0-.37,1.64,1.64,0,0,0-.06-.42,4,4,0,0,0-.7-1.18A14.51,14.51,0,0,0,215.58,65a11,11,0,0,0-3.48-2.11,7.24,7.24,0,0,0-3.45-.41,4.73,4.73,0,0,0-1.56.49,4.36,4.36,0,0,0-1.23,1,4.09,4.09,0,0,0-.42.56,5.14,5.14,0,0,0-.36.66,8,8,0,0,0-.65,2.25,12,12,0,0,0-.13,1.33Z"/><path class="cls-2" d="M227.81,81.51a1.8,1.8,0,0,0,0-.22c.13-1.6-2.11-2.3-3.82-2.84l-.64-.2h0c-.48-.15-.94-.31-1.39-.47l-1.32-.5a31.91,31.91,0,0,1-7.33-3.84,21.26,21.26,0,0,1-4.79-4.77l-.34,0a10.63,10.63,0,0,0-3.26,1.09,23.76,23.76,0,0,0,9.8,9.42,21.26,21.26,0,0,0,13,2.28Z"/><path class="cls-4" d="M5.89,116.26a3.52,3.52,0,0,0,5.33,2.36,3.2,3.2,0,0,0,1.63-2.85,2.12,2.12,0,0,0-.93-1.66,3.1,3.1,0,0,0-1.94-.35A6.28,6.28,0,0,0,6.1,115.5,1,1,0,0,0,6,116.67a1.78,1.78,0,0,0,1.13.78A1.33,1.33,0,0,0,8.45,117a.77.77,0,0,0-.53-1.29c.2,0,0,0-.09,0-.27,0-.31,0-.13,0l-.1,0c-.07,0,0,0,.07,0l-.12-.07c.11.09.13.09,0,0s-.07-.06,0,.06l-.15,1.16.24-.23s.3-.23.12-.1a5.36,5.36,0,0,1,.59-.38l.26-.14c.05,0,.35-.14.15-.07a6.75,6.75,0,0,1,.68-.21l.32-.07H10a5.77,5.77,0,0,1,.72,0s.16,0,0,0l.17,0s-.15-.07,0,0-.06,0,0,0l.06.06c.08.1-.08-.16,0,0a.3.3,0,0,0,.06.11c.06.07-.05-.19,0,0A1,1,0,0,1,11,116c0-.26,0,0,0,.08a.66.66,0,0,1,0,.14s0-.19,0,0-.06.19-.08.29.08-.12,0,0,0,.06,0,.08-.1.17-.15.26c.1-.16-.06.06-.1.1l-.25.23c-.1.09.12-.07,0,0a.57.57,0,0,0-.13.08l-.26.15-.07,0h0l-.36.11-.16,0H8.82l-.18,0-.14,0c-.21-.06.06,0-.06,0a2,2,0,0,1-.29-.15L8,117.18c-.18-.1.08.08-.08-.05l-.22-.2a2,2,0,0,1-.56-1,.67.67,0,0,0-.81-.47.67.67,0,0,0-.47.8Z"/><path class="cls-4" d="M15.33,118.86c-.12-.76-.55-3.41.7-3.56.57-.08,1,.48,1.21,1a5.07,5.07,0,0,1,.17,2.09.91.91,0,0,0,.65.86,5,5,0,0,0,4.13-.47c1.11-.65,3-2.54,1.7-3.85s-2.95,0-3.4,1.3a3.65,3.65,0,0,0,1,3.76,4.61,4.61,0,0,0,2,1.15,3.39,3.39,0,0,0,2.42-.27.81.81,0,0,0,.35-1,.84.84,0,0,0-1-.49,3.14,3.14,0,0,1-2.41-.72,1.67,1.67,0,0,1-.53-2c.07-.12.19-.14.24-.23,0,.08,0,0,0,0,.2,0,.11-.19-.28-.48l-.08.13a4.64,4.64,0,0,1-.95,1,3.67,3.67,0,0,1-2.83.52l.65.86a5.51,5.51,0,0,0-.82-3.13,2.56,2.56,0,0,0-2.38-1c-2.05.37-2.3,3.23-2.24,4.87a.81.81,0,1,0,1.6-.2Z"/><path class="cls-4" d="M29.77,118.81c-.15-1.43-.25-2.87-.31-4.3,0-.71,0-1.41-.05-2.12a7.71,7.71,0,0,0-.12-2.25.88.88,0,0,0-1.69,0,6.54,6.54,0,0,0-.16,2.25c0,.71,0,1.41,0,2.12.05,1.43.15,2.87.3,4.29a1,1,0,0,0,1,1,1,1,0,0,0,1-1Z"/><path class="cls-4" d="M29.7,122.56h-.05l-.28,0h-.05l-.3,0a1.34,1.34,0,0,0-.6.34,1.21,1.21,0,0,0-.28.36,1.31,1.31,0,0,0-.16.43,1.65,1.65,0,0,0,0,.7,2,2,0,0,0,.08.22.91.91,0,0,0,.11.22,3.4,3.4,0,0,0,.23.3,1.56,1.56,0,0,0,.2.16,2.3,2.3,0,0,0,.33.21,3.28,3.28,0,0,0,.5.17,1.1,1.1,0,0,0,.31,0,1,1,0,0,0,.48-.13l.1-.06a.74.74,0,0,0,.36-.47.79.79,0,0,0-.08-.58l-.06-.13-.15-.19-.11-.09a.51.51,0,0,0-.13-.09l-.08,0a1.81,1.81,0,0,1-.33-.2l.2.15a1.29,1.29,0,0,1-.17-.16l.16.2a.78.78,0,0,1-.11-.18l.1.25,0-.12,0,.25a.76.76,0,0,1,0-.15l0,.25a.83.83,0,0,1,0-.15l-.09.23a.54.54,0,0,1,.07-.13l-.15.2a.38.38,0,0,1,.09-.09l-.21.16.08-.05-.24.1.09,0-.26,0h.07l-.25,0h.07a.7.7,0,0,0,.38,0,.63.63,0,0,0,.37-.12,1,1,0,0,0,.46-.6.94.94,0,0,0-.1-.75l-.16-.21a1,1,0,0,0-.44-.25Z"/><path class="cls-4" d="M70.56,113.34c-.06,1.45-.15,2.91-.28,4.36-.06.71-.13,1.42-.2,2.14s-.41,1.7.17,2.3a.82.82,0,0,0,1,.12,1.3,1.3,0,0,0,.58-1.18c0-.39.07-.77.11-1.15.06-.71.11-1.43.16-2.14.1-1.48.16-3,.19-4.45a.85.85,0,0,0-1.7,0Z"/><path class="cls-4" d="M69.19,118.86c.74-.2,1.46-.4,2.18-.63a7.68,7.68,0,0,0,2.16-1,.57.57,0,0,0-.28-1.06,7.75,7.75,0,0,0-2.35.21c-.74.16-1.47.35-2.2.54a1,1,0,0,0-.71,1.21,1,1,0,0,0,1.2.71Z"/><path class="cls-4" d="M74.79,118.53a3.25,3.25,0,0,0,2.92,2.69,3,3,0,0,0,3.16-2.29.83.83,0,0,0-1.52-.62,2.39,2.39,0,0,0,0,2.57,2.22,2.22,0,0,0,2.82.77A2.9,2.9,0,0,0,83.86,119,3.31,3.31,0,0,0,82,116.1a.83.83,0,0,0-1.09.3,1.53,1.53,0,0,0-.23.66.5.5,0,0,0,.48.63,1.83,1.83,0,0,0,.85-.2l-1-.12a3.39,3.39,0,0,1,1,1.42,1.13,1.13,0,0,1-.43,1.22.76.76,0,0,1-.55.17c-.08,0,0,0-.13,0a1,1,0,0,1-.13-.09c.08.07,0,0-.05-.06s-.1-.12-.07-.07-.06-.11-.06-.12a.59.59,0,0,1-.08-.23c0-.13,0,.09,0,0s0-.18,0-.08c0-.08,0-.06,0,0l0,0s0,0-.06.06l-1.13-1.12a1.91,1.91,0,0,1-.66.78,1.59,1.59,0,0,1-.92.24A1.43,1.43,0,0,1,77,119a1.26,1.26,0,0,1-.44-.89.92.92,0,0,0-1.79.46Z"/><path class="cls-4" d="M85.3,118.38a3.62,3.62,0,0,0,.5,2.72,4,4,0,0,0,1,1.09,1.42,1.42,0,0,0,2-.24c.33-.45.61-.94.91-1.41a7.56,7.56,0,0,0,.79-1.45,2.26,2.26,0,0,0-1.22-2.82,3.72,3.72,0,0,0-3.59.53,1,1,0,0,0-.47.82,1,1,0,0,0,.82.94,1.69,1.69,0,0,0,1-.32l.26-.12.14-.07s-.19.07,0,0l.27-.08.11,0s.24,0,.11,0,0,0,.07,0h.14c.21,0-.13,0,0,0a1.41,1.41,0,0,1,.22.06s.14.08,0,0,0,0,0,0,.24.15.11.06.06.06.09.09-.05,0,0-.07a.53.53,0,0,0,.06.1.54.54,0,0,0,.06.11s-.08-.21,0-.06,0,0,0,0a.86.86,0,0,1,0,.16c0,.06,0,.14,0,0,0,0,0,.08,0,.12s-.1.27,0,.1a3.36,3.36,0,0,1-.16.33c-.22.39-.46.77-.7,1.16l-.32.53s-.13.27-.17.28.11-.14,0-.06,0,0,.07,0l.25-.06c.09,0,.06.08,0,0s.12.06,0,0-.15-.08-.23-.13-.19-.15-.07,0a1.71,1.71,0,0,1-.2-.18l-.09-.09s-.13-.16-.07-.07,0,0,0-.06l-.09-.14a1.83,1.83,0,0,1-.13-.24.61.61,0,0,1-.05-.12c0,.1,0,0,0,0a2.5,2.5,0,0,1-.07-.26l0-.13s0-.15,0,0a3,3,0,0,1,0-.6.67.67,0,0,0-.58-.67.66.66,0,0,0-.74.49Z"/><path class="cls-4" d="M91.94,113.56a44.68,44.68,0,0,0-.19,4.91c0,.78,0,1.57.09,2.36s0,2,1,2,.84-1.35.79-2-.13-1.58-.16-2.37a47.15,47.15,0,0,1,0-4.9.82.82,0,0,0-.81-.81.81.81,0,0,0-.81.8Z"/><path class="cls-4" d="M93.67,127.57l0-.09,0,0a1.12,1.12,0,0,0,.1-.22.9.9,0,0,0,0-.4.91.91,0,0,0-.21-.37.75.75,0,0,0-.35-.19.77.77,0,0,0-.4,0l-.1,0a.21.21,0,0,0-.1,0h0l0,0,0,0-.09.06a.81.81,0,0,0-.31.3,1,1,0,0,0-.11.41l0,.22a.86.86,0,0,0,.22.38.65.65,0,0,0,.27.17.67.67,0,0,0,.31.07.88.88,0,0,0,.42-.11.92.92,0,0,0,.31-.31Z"/><path class="cls-4" d="M130,113.55l-.11,3.33c0,1.11-.13,2.22-.1,3.33a1,1,0,0,0,1.93,0c.1-1.1.09-2.22.12-3.33l.11-3.33a1,1,0,1,0-2,0Z"/><path class="cls-4" d="M130.1,118.15c-.28,0,.05,0,.1,0l.21,0h.5c.32,0,.64,0,1,0l.25,0s.28,0,0,0l.66.07a2,2,0,0,0,1.15-.1.66.66,0,0,0,.23-.88c-.18-.44-.73-.63-1.14-.8a4.29,4.29,0,0,0-1-.24,8.81,8.81,0,0,0-2.46,0,1,1,0,0,0-.61.46,1,1,0,0,0-.09.74,1,1,0,0,0,.46.61,1.12,1.12,0,0,0,.74.1Z"/><path class="cls-4" d="M134.68,113.1a23.79,23.79,0,0,0,.31,3.57,28.51,28.51,0,0,0,.82,3.4,1,1,0,0,0,1.14.68,1,1,0,0,0,.68-1.15c0,.13,0-.35,0-.21,0-.06,0-.13,0-.19.08-.27,0,0,0-.09a.94.94,0,0,1,.12-.22l0,0a1.54,1.54,0,0,1,.17-.19s.17-.15.07-.07a1.24,1.24,0,0,1,1.37-.25c-.1,0,0,0,0,0l.21.12c.13.09-.14-.14.07.06l.14.13s.17.2.11.12l.1.14a3.72,3.72,0,0,1,.21.39c0,.07,0,.07,0,0l0,.1c0,.08.05.16.07.24a1.84,1.84,0,0,1,.05.25c0-.11,0,0,0,0a3,3,0,0,0,.19,1.23.86.86,0,0,0,1.33.17c.84-.74.4-2.29,0-3.13a3.59,3.59,0,0,0-2.25-1.83c-2.1-.5-4.47,1.47-3.92,3.68l1.82-.47a19.48,19.48,0,0,1-1.21-6.49.87.87,0,0,0-1.74,0Z"/><path class="cls-4" d="M144.8,119.9l-.18-.21-.09-.1.05.06-.28-.41c-.08-.14-.16-.27-.23-.41a1.56,1.56,0,0,1-.21-.43c.06.13.06.15,0,0l0-.1a1.43,1.43,0,0,1-.08-.22c-.05-.15-.09-.3-.13-.45a1.29,1.29,0,0,0,0-.19c.07.25,0,.14,0,.05a1.33,1.33,0,0,1,0-.2c0-.18-.06.23,0,0,0,0,0-.11,0-.16-.07.16-.08.19,0,.11a.35.35,0,0,1,0-.08s-.17.23,0,.08c-.16.11-.19.14-.1.08q-.27.1-.12.06h-.19c.09,0,.08,0-.05,0l.12.06c.14.09.27.19.4.29a7.3,7.3,0,0,0,2.11,1.13.66.66,0,0,0,.73-1,6.41,6.41,0,0,0-1.56-1.6,3.82,3.82,0,0,0-1-.68,1.64,1.64,0,0,0-1.4.06,1.91,1.91,0,0,0-.86,1.73,4.9,4.9,0,0,0,.54,1.93,7,7,0,0,0,1.24,1.85.94.94,0,0,0,1.32,0,1,1,0,0,0,0-1.32Z"/><path class="cls-4" d="M149.12,119.76a2.87,2.87,0,0,0,2.37-2.23,1.83,1.83,0,0,0-.37-1.3,1.52,1.52,0,0,0-1.54-.62c-1.07.18-1.67,1.33-1.92,2.28a7.41,7.41,0,0,0-.27,1.81,2,2,0,0,0,.68,1.67,2.19,2.19,0,0,0,1.64.45,2.49,2.49,0,0,0,1.68-.79.75.75,0,0,0,.15-.78.73.73,0,0,0-.66-.46,3,3,0,0,0-.6,0l-.47.1-.22,0-.11,0c-.18,0,.18,0,.05,0h-.31c-.1,0,.21,0,.07,0l-.1,0c-.13,0,.07,0,.09,0a.37.37,0,0,0-.11,0c-.09,0,.15.13.08,0l-.07-.06c-.09-.07.1.17,0,.07l-.06-.11c0-.09,0,.16,0,0a.35.35,0,0,1,0-.14c0,.14,0,.09,0,0v-.32c0-.22,0-.44,0-.66a.77.77,0,0,1,0-.15c0-.25,0,.08,0-.06l.06-.31a3.61,3.61,0,0,1,.12-.57.88.88,0,0,0,.05-.15c0-.1-.06.12,0,0s.07-.14.11-.22l.06-.1s.08-.13,0,0l0,0,.1-.1s.14-.1,0,0,0,0,0,0,.12-.06,0,0l0,0c.06,0,.06,0,0,0s0,0,0,0-.12,0,0,0h0c-.05,0-.05,0,0,0h0c0-.09,0,0,0,0s-.08-.13,0,0,.08.11,0,0,0,0,0,0,0-.15,0,0v.1c0,.17,0-.08,0,0a1.66,1.66,0,0,0-.06.21c0-.07.08-.15,0-.06a.91.91,0,0,0-.08.13s.16-.17,0-.06l-.13.13c-.11.1,0-.06,0,0s-.13.08-.13.09l-.11,0c-.13.07-.05,0,0,0-.09,0-.19.07-.29.1a6,6,0,0,1-.61.15,1,1,0,0,0-.71,1.21,1,1,0,0,0,1.21.71Z"/><path class="cls-4" d="M153.62,120.07a4.55,4.55,0,0,0,2.23-.08,2.5,2.5,0,0,0,1.46-1.28,2,2,0,0,0-.08-1.89,2.06,2.06,0,0,0-1.41-.87,2.67,2.67,0,0,0-2.88,2.06,3.49,3.49,0,0,0-.13,2,2.43,2.43,0,0,0,1.59,1.53,7.8,7.8,0,0,0,2.3.43,4.2,4.2,0,0,0,2.48-.54.64.64,0,0,0-.15-1.15,11.41,11.41,0,0,0-1.65-.18c-.26,0-.51,0-.77,0l-.67-.08-.73-.16-.29-.09s-.14-.08,0,0l-.17-.08-.13-.07c-.11-.06.11.11,0,0l-.1-.1c-.09-.09.08.14,0,0s0,.14,0,0,0-.09,0-.13c0,.13,0,0,0,0a1.22,1.22,0,0,1,0-.27c0-.11,0-.22,0-.33s0-.16,0,0l0-.16c0-.1,0-.2.08-.3a.88.88,0,0,1,.05-.15c0-.14,0,0,0,0s.08-.16.13-.24l.08-.12c-.08.12,0,0,0,0s.24-.22.1-.12l.28-.16c-.17.08,0,0,.1,0s.15,0,0,0h.13s.23,0,.15,0,.25.1.09,0c0,0,.22.14.1,0l.09.08c.1.09,0,0,0,0a.37.37,0,0,1,.05.11c-.06-.15,0,0,0,0s0,.08,0,0,0,.21,0,.09l0,.1c0,.07.05-.06,0,0l-.07.12c-.09.15.07,0-.06.07l-.1.1c-.11.11,0,0,0,0l-.12.07-.07,0a2.52,2.52,0,0,1-1.44,0A.91.91,0,0,0,153,119a.89.89,0,0,0,.62,1.07Z"/><path class="cls-4" d="M159.22,115.85l.38,2,.18,1a1.59,1.59,0,0,0,.72,1.21.82.82,0,0,0,.92-.13,1.66,1.66,0,0,0,.27-1.54l-.18-1-.37-2a1,1,0,0,0-1.21-.71,1,1,0,0,0-.71,1.21Z"/><path class="cls-4" d="M160.42,124.44a1.05,1.05,0,0,0,.06.24,1.69,1.69,0,0,0,.2.43,2.31,2.31,0,0,0,.31.39l.09.08a1.79,1.79,0,0,0,.28.2,2.23,2.23,0,0,0,.43.16,1.4,1.4,0,0,0,.54,0,.87.87,0,0,0,.37-.13c.06,0,.13-.09.18-.14a.79.79,0,0,0,.19-.33.7.7,0,0,0-.09-.58l0,0a1,1,0,0,0-.33-.32l.17.13-.11-.1-.13-.11-.11-.13-.13-.13.16.2a1.57,1.57,0,0,1-.18-.31l.1.24a1.1,1.1,0,0,1-.06-.26.7.7,0,0,0-.19-.35.64.64,0,0,0-.28-.26.77.77,0,0,0-.36-.12.82.82,0,0,0-.38,0l-.25.1a1,1,0,0,0-.36.37l-.1.23a1.06,1.06,0,0,0,0,.5Z"/><path class="cls-4" d="M160.88,115.42c-.1-.35-.19-.7-.26-1a7.15,7.15,0,0,1-.15-.91c0-.12,0-.25-.05-.38s0,.14,0-.11l0-.3,0-.2q0-.14,0,0c-.06-.44,0-1-.38-1.32a.67.67,0,0,0-.94,0,1.46,1.46,0,0,0-.23,1.3,8.37,8.37,0,0,0,.19,1.22,21,21,0,0,0,.59,2.1.69.69,0,0,0,.82.48.67.67,0,0,0,.48-.81Z"/><path class="cls-4" d="M202.36,112.25l-1.09-1a.74.74,0,0,0-.71-.19c-1.62.56-1.49,2.45-1.41,3.85l.17,2.85c0,.48.06.95.1,1.43s.07,1.16.62,1.49a.77.77,0,0,0,.9-.12,1.5,1.5,0,0,0,.33-1.36c0-.39-.05-.79-.09-1.18l-.22-2.43c-.06-.71-.17-1.43-.18-2.14,0-.39,0-.84.34-1h-.74c.41.26.8.54,1.2.82.6.41,1.33-.55.78-1Z"/><path class="cls-4" d="M198.92,117.78c1-.1,2.08-.2,3.12-.32a1.08,1.08,0,0,0,.71-.29,1,1,0,0,0-.7-1.68c-1,.09-2.08.21-3.12.32a1.05,1.05,0,0,0-.71.29,1,1,0,0,0,0,1.4,1,1,0,0,0,.69.28Z"/><path class="cls-4" d="M205.5,118h0s0,0,0,0Z"/><path class="cls-4" d="M204.39,117.5a2.5,2.5,0,0,0-.9,3.44,3.45,3.45,0,0,0,3.82,1.36,3.33,3.33,0,0,0,1.84-1,2.43,2.43,0,0,0,.51-2.31,4,4,0,0,0-2.9-2.66,3.62,3.62,0,0,0-2,0c-.73.25-1.68,1-1.27,1.87a.61.61,0,0,0,.54.32,1,1,0,0,0,.47-.12,1.12,1.12,0,0,0,.24-.19c.12-.13-.11.05,0,0a1.59,1.59,0,0,0,.22-.13c.09-.07-.2.06,0,0l.17-.06a1.22,1.22,0,0,1,.26-.06c.15,0,0,0,0,0a.86.86,0,0,0,.16,0h.34l.08,0,.31.08c.06,0,.23.12.28.1s-.21-.09-.06,0l.16.07a3,3,0,0,1,.3.18l.1.06c.18.11-.17-.15,0,0l.24.22c.05,0,.23.19.24.25s-.12-.15,0,0l.16.23s.18.27.16.3-.07-.21,0-.06,0,.13.05.19l0,.07h0v-.07s0,.09,0,.13,0,.23,0,.07,0,.12,0,.12.1-.2,0,0a.87.87,0,0,1-.08.14s.14-.17,0,0l-.11.11s.2-.14,0,0l-.14.08-.18.1c-.18.09.2-.07,0,0a6.17,6.17,0,0,1-.65.16c-.23,0,.22,0,0,0h-.54c-.23,0,.2,0,0,0l-.13,0a1.68,1.68,0,0,0-.32-.09l.12,0-.12,0-.12-.06s-.15-.08-.16-.11.13.1.08.05l-.08-.07s-.07-.09-.11-.12c.15.12.1.15,0,0l-.07-.14c-.09-.15.07.24,0,.05l0-.13c0-.11,0-.24,0,0,0-.1,0-.22,0-.32s0,.08,0,.09a1.18,1.18,0,0,0,0-.2l0-.1c-.07.16-.08.19,0,.1a.41.41,0,0,0,.05-.09c0-.08.1-.06-.06.08a.86.86,0,0,0,.13-.14s-.22.14-.08.07l.18-.1a1,1,0,0,0,.36-1.35,1,1,0,0,0-1.35-.36Z"/><path class="cls-4" d="M209.9,118.43a2.53,2.53,0,0,0,1.82,3.11,2.19,2.19,0,0,0,1.08,0,2.59,2.59,0,0,0,.95-.52,2.55,2.55,0,0,0,.84-1.48,2.1,2.1,0,0,0-.16-1.35,1,1,0,0,0-1.42-.31,1,1,0,0,0-.34,1,1.25,1.25,0,0,1,0,.19l0-.25a1.77,1.77,0,0,1,0,.46l0-.25a1.45,1.45,0,0,1-.12.42l.1-.23a1.72,1.72,0,0,1-.22.37l.15-.2a1.77,1.77,0,0,1-.3.31l.21-.16a1.92,1.92,0,0,1-.31.18l.23-.1a1.58,1.58,0,0,1-.31.09l.24,0a1.6,1.6,0,0,1-.31,0l.25,0a1,1,0,0,1-.34-.09l.23.1a2.27,2.27,0,0,1-.34-.19l.2.15a2.5,2.5,0,0,1-.33-.32l.16.2a2,2,0,0,1-.23-.4l.1.24a1.7,1.7,0,0,1-.1-.37l0,.24a2,2,0,0,1,0-.35l0,.24a2,2,0,0,1,.05-.24.94.94,0,0,0-.67-1.15,1,1,0,0,0-1.15.67Z"/><path class="cls-4" d="M217.59,119.11h0l.23.09a1.64,1.64,0,0,1-.29-.16l.21.15a1.54,1.54,0,0,1-.26-.25l.16.21a2.27,2.27,0,0,1-.19-.34l.1.24a1.82,1.82,0,0,1-.11-.4l0,.25a1.09,1.09,0,0,1,0-.36l0,.25a1.68,1.68,0,0,1,.09-.32l-.1.23a1.35,1.35,0,0,1,.15-.26l-.15.2a1.75,1.75,0,0,1,.23-.24l-.21.16a2,2,0,0,1,.32-.18l-.24.1a2.36,2.36,0,0,1,.38-.1l-.26,0a1.63,1.63,0,0,1,.54,0l-.24,0a2,2,0,0,1,.4.11l-.22-.09a2.15,2.15,0,0,0,.32.13,1.4,1.4,0,0,0,.5,0l-.21,0h.08a.75.75,0,0,0,.75-.74,1.17,1.17,0,0,0-.12-.58,1.44,1.44,0,0,0-.51-.47,1.62,1.62,0,0,0-.68-.27,2.39,2.39,0,0,0-1,0,2.34,2.34,0,0,0-.72.28,2.28,2.28,0,0,0-1,1.35,2,2,0,0,0-.06.74,2.68,2.68,0,0,0,.25,1,2.52,2.52,0,0,0,.46.66,2.4,2.4,0,0,0,.89.54,1,1,0,0,0,1.11-1.44l-.16-.21a.85.85,0,0,0-.44-.25Z"/><path class="cls-4" d="M224.12,119.52a26.56,26.56,0,0,1-.61-2.92c-.07-.5-.11-.8-.16-1.31a3.66,3.66,0,0,0-.3-1.75.91.91,0,0,0-1.56,0,3,3,0,0,0-.11,1.79c.05.55.12,1.11.2,1.65a28.22,28.22,0,0,0,.62,3,1,1,0,1,0,1.92-.5Z"/><path class="cls-4" d="M224.07,126.18a1.07,1.07,0,0,0,.49-.29,1.06,1.06,0,0,0,.27-.47,1.1,1.1,0,0,0,0-.54,1,1,0,0,0-.13-.29v0l-.17-.21s0,0,0,0a.84.84,0,0,0-.24-.18,1,1,0,0,0-.53-.14h0l-.26,0a.9.9,0,0,0-.27.11,1,1,0,0,0-.25.2,1.13,1.13,0,0,0-.27.49.69.69,0,0,0,0,.13.68.68,0,0,1,0,.14v0a2,2,0,0,0,.05.31,1,1,0,0,0,.14.3,1.12,1.12,0,0,0,.4.41,1,1,0,0,0,.29.11,1.35,1.35,0,0,0,.28,0h.07a1,1,0,0,0,.56-.16,2.47,2.47,0,0,0,.27-.21.86.86,0,0,0,.13-1,.52.52,0,0,0-.22-.24.58.58,0,0,0-.29-.15h0a.35.35,0,0,1-.11,0l.21.09a1.28,1.28,0,0,0-.27-.11l-.06,0,.22.09-.06,0,.2.15s0,0,0,0l.16.21c-.06-.09-.13-.17-.19-.25l.16.21s0,0,0-.06l.09.24s0,0,0-.06l0,.25v-.06l0,.25,0,0-.1.23s0,0,0,0l-.16.21,0,0-.2.16s0,0,0,0l-.25.1h0l-.26,0h0l-.25,0h0l-.24-.1,0,0-.21-.15,0,0-.16-.21s0,0,0,0l-.1-.25s0,0,0,0l0-.26v0l0-.25h0l.09-.23h0l.15-.2h0l.21-.16h0l.25-.1h0a.8.8,0,0,0-.35.19.7.7,0,0,0-.26.28.76.76,0,0,0-.11.36.81.81,0,0,0,0,.38l.11.25a1,1,0,0,0,.36.36l.24.1a1.06,1.06,0,0,0,.5,0Z"/><path class="cls-1" d="M15.91,92.93q0,3.6.19,7.2c.06,1.16.13,2.32.21,3.47,0,.58.08,1.16.13,1.74s0,1.33.69,1.66a.79.79,0,0,0,.76,0c.58-.42.59-.85.54-1.52l-.15-1.86c-.08-1.15-.15-2.31-.2-3.47q-.18-3.6-.19-7.2a1,1,0,0,0-2,0Z"/><path class="cls-1" d="M15.38,92.86c-.29.31-.58.62-.84,1A8.81,8.81,0,0,0,13.69,95a1.6,1.6,0,0,0-.23,1.1.81.81,0,0,0,.54.59.9.9,0,0,0,.7-.1,1.58,1.58,0,0,0,.57-.53c.18-.22.36-.45.53-.68l-.15.2a14.18,14.18,0,0,1,1.14-1.32,1,1,0,0,0,.28-.69,1.05,1.05,0,0,0-.29-.71,1,1,0,0,0-1.4,0Z"/><path class="cls-1" d="M17.3,94.65a7.79,7.79,0,0,0,.76.86,6.85,6.85,0,0,0,.9.71,4,4,0,0,0,1,.51,3.5,3.5,0,0,0,.46.14,2.22,2.22,0,0,0,.81,0,.79.79,0,0,0,.35-1.32,2.41,2.41,0,0,0-.54-.41c-.15-.08-.3-.17-.46-.24a6.17,6.17,0,0,1-.88-.55l.2.15a5.21,5.21,0,0,1-1-1l.16.21,0,0a1,1,0,0,0-.6-.46,1,1,0,0,0-.75.1,1,1,0,0,0-.46.6,1,1,0,0,0,.1.75Z"/><path class="cls-1" d="M81.48,93.75a53.71,53.71,0,0,1,.31,5.67c0,.93,0,1.86-.08,2.78a17.44,17.44,0,0,0,0,2.89.79.79,0,0,0,1.54.21,18.23,18.23,0,0,0,.54-5.76,53.14,53.14,0,0,0-.29-5.78,1,1,0,0,0-1-1,1,1,0,0,0-1,1Z"/><path class="cls-1" d="M80.51,93.87l-.83.93a6.42,6.42,0,0,0-.53.64l-.15.24a1.1,1.1,0,0,0-.16.66.89.89,0,0,0,.24.57.83.83,0,0,0,.55.23h.1a1.09,1.09,0,0,0,.46-.12,1.37,1.37,0,0,0,.24-.18l.24-.18a1.55,1.55,0,0,0,.21-.23l.21-.23.83-.93a1,1,0,0,0,.28-.69,1.05,1.05,0,0,0-.29-.71,1,1,0,0,0-1.4,0Z"/><path class="cls-1" d="M82.67,95.67a7.75,7.75,0,0,0,1.87,2,7.16,7.16,0,0,0,.95.59,2.94,2.94,0,0,0,1.48.3.79.79,0,0,0,.7-.48.74.74,0,0,0-.16-.83c-.16-.12-.31-.27-.49-.38s-.28-.16-.41-.25c-.28-.18-.58-.31-.85-.5l-.2-.14.08.06-.11-.09-.36-.31a6.78,6.78,0,0,1-.67-.74l.17.21a2.76,2.76,0,0,1-.28-.39,1,1,0,0,0-1.72,1Z"/><path class="cls-1" d="M144.38,95.24a31.11,31.11,0,0,1,.49,5.09c0,.87,0,1.73-.06,2.59a12.36,12.36,0,0,0,0,2.58.77.77,0,0,0,1.4.18,13.13,13.13,0,0,0,.63-5.44,36.09,36.09,0,0,0-.55-5.49,1,1,0,0,0-1.21-.71,1,1,0,0,0-.71,1.2Z"/><path class="cls-1" d="M143.6,95.31A22.41,22.41,0,0,0,142,96.9c-.1.12-.19.25-.28.38a.83.83,0,0,0,.68,1.32,1.27,1.27,0,0,0,.6-.21,5.64,5.64,0,0,0,.63-.46l.44-.36c.33-.28.65-.58,1-.87a1,1,0,0,0,.28-.69,1.05,1.05,0,0,0-.29-.71,1,1,0,0,0-.69-.28,1.08,1.08,0,0,0-.71.29Z"/><path class="cls-1" d="M146.51,96.73a10.43,10.43,0,0,0,1.66,1.37,6.85,6.85,0,0,0,.84.46,4.57,4.57,0,0,0,.62.22,1.85,1.85,0,0,0,.66.06.81.81,0,0,0,.7-.47.78.78,0,0,0-.17-.82,1.9,1.9,0,0,0-.19-.21,1.8,1.8,0,0,0-.4-.28l-.51-.31a11.41,11.41,0,0,1-1-.69l.21.16a9.67,9.67,0,0,1-1-.9,1,1,0,0,0-1.39,1.41Z"/><path class="cls-1" d="M210.18,97.1v4a21.09,21.09,0,0,0,.23,4,.78.78,0,0,0,1.5,0,20.93,20.93,0,0,0,.24-4v-4a1,1,0,0,0-2,0Z"/><path class="cls-1" d="M209.22,97l-1.47,1.3c-.25.22-.49.43-.72.66a2.12,2.12,0,0,0-.75,1,.79.79,0,0,0,.15.71.77.77,0,0,0,.63.32,2.08,2.08,0,0,0,.36,0,1.5,1.5,0,0,0,.4-.2,4.53,4.53,0,0,0,.55-.43c.26-.21.51-.43.76-.65l1.5-1.32a1,1,0,0,0,0-1.4,1,1,0,0,0-1.4,0Z"/><path class="cls-1" d="M212.54,99.05l1.49,1.17a9.73,9.73,0,0,0,.9.64,3.36,3.36,0,0,0,.49.27l.5.21a.74.74,0,0,0,.77-.28.71.71,0,0,0,.06-.81l-.25-.35a3.08,3.08,0,0,0-.42-.47,8.47,8.47,0,0,0-.7-.63l-1.45-1.16a1.13,1.13,0,0,0-.69-.29,1,1,0,0,0-1,1,.94.94,0,0,0,.3.71Z"/><path class="cls-4" d="M259.56,84.87A6.72,6.72,0,0,0,264.1,84a3.19,3.19,0,0,0,1.38-1.69,2.3,2.3,0,0,0-.38-2.12,2.18,2.18,0,0,0-1.83-.71,2.73,2.73,0,0,0-1.92,1.11,3.88,3.88,0,0,0-.29,4.15,3,3,0,0,0,1.9,1.41,2.68,2.68,0,0,0,1.29,0,1.91,1.91,0,0,0,1.1-.81c.36-.48-.26-1.3-.82-1.07a4.47,4.47,0,0,1-.63.16l-.13,0c.2,0,.06,0,0,0a.49.49,0,0,1-.17,0c-.06,0-.23,0,0,0l-.33-.07-.13,0c-.2-.06.15.09,0,0a2.26,2.26,0,0,1-.26-.16c-.11-.06.14.15,0,0l-.14-.15c-.12-.12,0,0,0,0a.94.94,0,0,1-.12-.18l-.08-.13,0-.09,0-.1c0-.05,0-.1,0-.15s0-.14,0-.21,0,.11,0-.08,0-.23,0-.34,0-.35,0-.2c0-.12.05-.25.08-.37l.06-.17,0-.11c0,.08,0,.08,0,0a2.69,2.69,0,0,1,.16-.29,1.3,1.3,0,0,1,.1-.15c-.08.11,0,0,0,0s.17-.18.26-.26,0,0,0,0l.21-.13c.11,0-.16,0,0,0l.13,0s.23,0,.09,0h.13a.8.8,0,0,1,.43.12.53.53,0,0,1,.23.28.77.77,0,0,1,0,.54,1.72,1.72,0,0,1-.81.92,5.33,5.33,0,0,1-3.52.67.74.74,0,0,0-.87.51.73.73,0,0,0,.5.88Z"/><path class="cls-4" d="M267.48,79.58a29.3,29.3,0,0,1,.57,3.6c.06.61.12,1.22.17,1.84a4.51,4.51,0,0,0,.39,1.93.61.61,0,0,0,1,0,3.88,3.88,0,0,0,.41-2,15.18,15.18,0,0,0-.06-1.91,33.06,33.06,0,0,0-.6-4,1,1,0,0,0-1.92.5Z"/><path class="cls-4" d="M268.21,83.29a5.94,5.94,0,0,0,4-.81.7.7,0,0,0-.34-1.31l-1.07.12c.22,0,0,0,0,0l-.26,0-.44,0a9.62,9.62,0,0,1-1.86,0,1,1,0,0,0-.7,1.7,1.16,1.16,0,0,0,.69.29Z"/><path class="cls-4" d="M276.42,81.24A3.55,3.55,0,0,0,274.85,85,3.34,3.34,0,0,0,278,87.52a3.27,3.27,0,0,0,1.12-.12,2.16,2.16,0,0,0,.71-.32,1.88,1.88,0,0,0,.46-.58.84.84,0,0,0-.93-1.22s-.24,0-.07,0l-.14,0a1.59,1.59,0,0,0-.47.14s-.12.06,0,0,0,0,0,0l-.32.08h-.07s.22,0,.12,0h-.2c-.11,0-.23,0-.33,0s.22,0,.12,0h-.1l-.17,0-.18,0c-.19-.06.17.08,0,0a2,2,0,0,1-.32-.17l-.12-.08c.24.14.09.07,0,0l-.12-.12s-.17-.2-.05,0,0,0,0-.07l-.08-.13s-.11-.24,0-.06,0,0,0-.09,0-.22-.07-.33,0,.23,0,.13v-.07a1.48,1.48,0,0,1,0-.21c0-.06,0-.12,0-.18s0,0,0-.07,0,.22,0,.12.05-.25.09-.37.09-.24,0-.08,0,0,.05-.09.14-.21.2-.33-.17.2-.06.09l.06-.08.15-.14s.2-.17.05,0,.06,0,.11-.06a1,1,0,1,0-1-1.72Z"/><path class="cls-4" d="M284.92,85.06l-.34,0a1.24,1.24,0,0,0-.38,0,.86.86,0,0,0-.28.11,2.31,2.31,0,0,0-.23.18.65.65,0,0,0-.17.27.67.67,0,0,0-.07.31l0,.22a.86.86,0,0,0,.22.38l.05,0a1,1,0,0,0,.4.23h0a1.58,1.58,0,0,0,.38,0l.34,0a.66.66,0,0,0,.34-.08.76.76,0,0,0,.49-.48.81.81,0,0,0,.08-.34l0-.23a1.1,1.1,0,0,0-.24-.42l-.19-.14a1,1,0,0,0-.44-.12Z"/><path class="cls-4" d="M288.46,86.63a1.3,1.3,0,0,0,1.15.67,1.4,1.4,0,0,0,.69-.16,1.3,1.3,0,0,0,.51-.48.53.53,0,0,0,0-.53,2,2,0,0,0-.49-.62,1.26,1.26,0,0,0-.9-.33,1.15,1.15,0,0,0-.92.53.85.85,0,0,0-.11.66.87.87,0,0,0,.55.54.79.79,0,0,0,.23.09,1,1,0,0,0,.24,0,.61.61,0,0,0,.19,0,1,1,0,0,0,.66-.3.43.43,0,0,0,.12-.37.4.4,0,0,0-.22-.33l-.32-.14.13,0-.35-.13.15.06-.35-.15.16.07a2,2,0,0,1-.25-.14l.31.4s0,0,0,0l0,.17V86.1l0,.16a.3.3,0,0,1,0-.1l-.06.15a.56.56,0,0,1,.05-.08l-.09.12a.3.3,0,0,1,.08-.08l-.12.1a.35.35,0,0,1,.12-.07l-.15.06a.42.42,0,0,1,.16,0h-.15l.09,0-.13,0,.2.11-.11-.08a3.77,3.77,0,0,1,.43.46l-.09-.65-.06.1.08-.11a.34.34,0,0,1-.12.12l.11-.08a.77.77,0,0,1-.18.1l.13-.05a1,1,0,0,1-.25.06h0a1.05,1.05,0,0,1-.24-.06l.12.05-.16-.09.1.08a.86.86,0,0,1-.13-.14l.08.11-.06-.09a.51.51,0,0,0-.69-.19.51.51,0,0,0-.18.69Z"/><path class="cls-4" d="M294.92,87.39a1.29,1.29,0,0,0,.93-.94,1.34,1.34,0,0,0,0-.66,1.25,1.25,0,0,0-.3-.61.6.6,0,0,0-.4-.17L295,85a.68.68,0,0,0-.26.15h0l.12-.09a1.26,1.26,0,0,0-.33.32,1,1,0,0,0-.13.28,1.43,1.43,0,0,0,0,.65,1.27,1.27,0,0,0,.29.58,1.18,1.18,0,0,0,.55.35.64.64,0,0,0,.47-.06.69.69,0,0,0,.29-.38.89.89,0,0,0,0-.51,1.18,1.18,0,0,0-.25-.45,1,1,0,0,0-.68-.31.67.67,0,0,0-.39.1l-.14.1-.09.13a.66.66,0,0,0-.08.39.67.67,0,0,0,.13.3.57.57,0,0,0,.33.22,2.13,2.13,0,0,0,.25,0l-.16,0,.08,0-.15-.06a.27.27,0,0,1,.1.06l-.13-.1a.6.6,0,0,1,.08.08l-.11-.13a.22.22,0,0,1,0,.08l-.06-.16a.44.44,0,0,1,0,.1l0-.16a.11.11,0,0,1,0,.08l0-.16a.09.09,0,0,0,0,0l.76-.44-.07,0,.15.06-.12-.07.13.1a.57.57,0,0,1-.11-.11l.1.13a.65.65,0,0,1-.09-.16l.06.15a.73.73,0,0,1-.05-.2l0,.16a.54.54,0,0,1,0-.18l0,.15a1.46,1.46,0,0,1,.05-.2l-.06.14a.41.41,0,0,1,.07-.11l-.09.11,0,0h-.8l.05.06-.09-.12a.71.71,0,0,1,.08.15l-.06-.14a.24.24,0,0,1,0,.12v-.15a1.48,1.48,0,0,1,0,.21l0-.15a1.17,1.17,0,0,1,0,.2l0-.13a.52.52,0,0,1-.11.19l.1-.12a1.21,1.21,0,0,1-.16.16l.13-.1-.14.08.15-.06-.14,0a.61.61,0,0,0-.37.28.64.64,0,0,0-.06.45.62.62,0,0,0,.74.43Z"/><path class="cls-4" d="M267.26,66.18l-2.31.55a.47.47,0,0,0,.11.92c4.76.23,9.52.34,14.28.3q3.54,0,7.08-.15c1.16,0,2.32-.09,3.47-.15a9.42,9.42,0,0,0,3.51-.53c.48-.22.3-.9-.13-1a10.22,10.22,0,0,0-3.49-.08q-1.8.12-3.6.21c-2.32.12-4.63.23-6.95.3-4.72.15-9.45.23-14.16.2l.11.93,2.31-.59a.45.45,0,0,0-.23-.87Z"/><path class="cls-4" d="M290.76,65.22a10.5,10.5,0,0,1,1.42,1.33c.09.11.19.22.28.34s.2.25.09.1l.11.16a3.71,3.71,0,0,1,.28.41l0-.06c0,.1,0,.12,0,.06s0-.2,0-.2.09-.08,0,0-.2.16-.09.08l-.11.07-.24.16-.92.6-1,.64c-.17.11-.34.21-.49.33a2.88,2.88,0,0,0-.48.51.88.88,0,0,0-.13,1,.83.83,0,0,0,.93.39,3.49,3.49,0,0,0,.77-.26c.19-.1.36-.24.53-.35l1.12-.73c.73-.48,1.68-.93,1.95-1.84s-.49-1.87-1.07-2.56a10.22,10.22,0,0,0-1.63-1.59,1,1,0,0,0-1.41,0,1,1,0,0,0,0,1.4Z"/><path class="cls-4" d="M77.23,2.26a11.83,11.83,0,0,0-4,9.49c.14,1.68.93,3.43,2.74,3.81,2,.44,3.93-.9,4.91-2.57a.74.74,0,0,0-1-1c-1,.59-2.29,2-3.61,1.6-1.06-.36-1.09-1.9-1-2.81a10.11,10.11,0,0,1,3.49-7.12c1-.85-.46-2.25-1.42-1.4Z"/><path class="cls-4" d="M84.05,6.88A17.68,17.68,0,0,0,83.72,13a3.69,3.69,0,0,0,1,2.49,2.42,2.42,0,0,0,2.69.23,6.05,6.05,0,0,0,3-4.26,6.76,6.76,0,0,0-1.1-5.15,4.75,4.75,0,0,0-2.39-2c-1-.28-2.68.4-2.24,1.7a.76.76,0,0,0,1.11.46c.16-.08.35-.27.54-.26s.64.39.85.6a4.74,4.74,0,0,1,.55,6c-.27.42-.88,1.25-1.47,1.22-.43,0-.44-.77-.48-1.11A15.6,15.6,0,0,1,86,7.39c.29-1.25-1.63-1.77-1.92-.51Z"/><path class="cls-4" d="M89.81,8.61A11.59,11.59,0,0,0,91.27,13c.72,1.18,2.23,2.31,3.6,1.39a2.76,2.76,0,0,0,1.07-1.85c.16-.81.26-1.64.35-2.46s.15-1.61.16-2.41a7.7,7.7,0,0,0-.27-2.62.75.75,0,0,0-1.43,0,22.09,22.09,0,0,0-.37,4.07c0,.64-.11,1.28-.2,1.91a6.72,6.72,0,0,1-.31,1.57c-.06.12,0,.08-.12.16.12-.09,0,.05,0,0a.1.1,0,0,1,.09,0l-.1,0c.09.07-.15-.09-.17-.1a2.77,2.77,0,0,1-.8-1.09,11.33,11.33,0,0,1-1-3.47,1,1,0,0,0-1.21-.71,1,1,0,0,0-.72,1.22Z"/><path class="cls-4" d="M96.61,13.07c.1.64.15,1.28.24,1.91.15,1,1.64.72,1.67-.21,0-1.62,0-3.24.12-4.85A2.34,2.34,0,0,1,99,8.55c0-.06.08-.11.14-.12h.08l.05,0a.33.33,0,0,1,.16.15A3.76,3.76,0,0,1,100,9.93c.19.73.37,1.46.53,2.19s.29,1.47.41,2.21,0,1.94.8,2.37a.84.84,0,0,0,1-.14c.59-.57.24-1.59.12-2.31s-.25-1.42-.41-2.13a17,17,0,0,0-1.12-3.91,2.2,2.2,0,0,0-2.76-1.36c-1.12.47-1.31,1.74-1.43,2.81a36.23,36.23,0,0,0-.26,5.1l1.66-.21c-.13-.62-.31-1.23-.44-1.85a.74.74,0,0,0-1.44.37Z"/><path class="cls-4" d="M104.38,1q.25,3.21.74,6.39c.15,1.05.33,2.1.53,3.15.17.9.19,2.34,1.11,2.82a.71.71,0,0,0,.85-.12c.66-.86.19-2,0-3s-.37-2-.52-3q-.48-3.09-.73-6.21c-.1-1.27-2.09-1.29-2,0Z"/><path class="cls-4" d="M102.46,8.71a31,31,0,0,1,4.2-.24c.68,0,1.37,0,2.06.09l1,.08a4,4,0,0,0,1.15-.07.81.81,0,0,0,.2-1.47A3.58,3.58,0,0,0,110,6.74l-1.19-.15c-.69-.07-1.38-.1-2.06-.11a30.63,30.63,0,0,0-4.28.24,1,1,0,0,0-1,1c0,.48.46,1.07,1,1Z"/><path class="cls-4" d="M118.43,8.64c-.9-.8-2.08-1.63-3.34-1.18A3.13,3.13,0,0,0,113.26,10a10.13,10.13,0,0,0,.12,3.88,2.43,2.43,0,0,0,.92,1.57,1.58,1.58,0,0,0,1.94-.28,8.86,8.86,0,0,0,1.22-1.69c.4-.62.77-1.25,1.12-1.9h-1.7l1.37,2.16c.22.34.43.69.66,1s.24.38.37.56a2.37,2.37,0,0,0,.66.56.79.79,0,0,0,.89-.07.84.84,0,0,0,.3-.84,6.4,6.4,0,0,0-1.21-2.27l-1.34-2.09a1,1,0,0,0-1.7,0,21.7,21.7,0,0,1-1.9,3.09c.1-.13-.11.12-.11.12s.36,0,.41,0,.16.19.06,0,0-.11,0,0l-.06-.17a7.91,7.91,0,0,1-.28-1.59,4.86,4.86,0,0,1,.4-2.74c.11-.16,0,0,.09-.11s.09-.08,0,0l.15-.1a.64.64,0,0,1,.4,0,3,3,0,0,1,1.26.73.81.81,0,0,0,1.12,0,.8.8,0,0,0,0-1.12Z"/><path class="cls-4" d="M119.42,3.06c.53,1.71,1,3.44,1.39,5.19.19.84.36,1.68.52,2.53a25.71,25.71,0,0,0,.49,2.76l1.76-.72c-.51-.8-.81-2.64.56-2.83a2.14,2.14,0,0,1,2.06,1.65,2,2,0,0,1-.71,2.22c-.83.64-1.71.42-2.65.57a.7.7,0,0,0-.31,1.17c1.12,1.28,3.42.4,4.42-.58a3.83,3.83,0,0,0,.61-4.55c-.77-1.46-2.62-2.53-4.24-1.79-1.91.88-1.92,3.1-1.5,4.86a1,1,0,0,0,1.88-.24,14.88,14.88,0,0,0-.4-2.8c-.16-.88-.34-1.76-.53-2.63-.4-1.79-.88-3.57-1.42-5.32-.38-1.22-2.31-.72-1.93.51Z"/><path class="cls-4" d="M127.19,4.3a49.94,49.94,0,0,1,1.17,5.4c.14.88.24,1.75.34,2.64a11.38,11.38,0,0,0,.46,2.79.74.74,0,0,0,1.42,0,8,8,0,0,0,.1-2.89c-.08-1-.21-1.9-.36-2.84a48.51,48.51,0,0,0-1.2-5.6,1,1,0,0,0-1.93.5Z"/><path class="cls-4" d="M131.65,8.44a11.52,11.52,0,0,0,1.84,2.7A2.67,2.67,0,0,0,136,12.27c1-.29,1.26-1.21,1.37-2.11.15-1.2.29-2.41.41-3.61L136,6.77A23.52,23.52,0,0,1,136,15c-.39,2.71-1.09,5.64-.52,8.36.2.95,1.52.67,1.59-.2.12-1.39.14-2.79.29-4.18s.38-2.87.57-4.3a20.87,20.87,0,0,0-.13-8.37.9.9,0,0,0-1.76.22,19.8,19.8,0,0,1-.19,2.31c-.06.36-.11.72-.19,1.07a2.42,2.42,0,0,0-.1.36c0,.17-.14,0,.08.05-.42-.1-.87-.79-1.12-1.1a9.93,9.93,0,0,1-1.1-1.78c-.56-1.16-2.28-.16-1.72,1Z"/><path class="cls-4" d="M153.3,9.59a17.73,17.73,0,0,1,0,2.06c0,.35,0,.69-.08,1a8.85,8.85,0,0,0,0,1,.83.83,0,0,0,.73.82.85.85,0,0,0,.92-.6,5.26,5.26,0,0,0,.32-1.16c0-.35.07-.71.08-1.06a16.48,16.48,0,0,0,0-2.11,1,1,0,0,0-2,0Z"/><path class="cls-4" d="M153.11,3.84a2.09,2.09,0,0,0,0,.25,4,4,0,0,0,.07.48,2.92,2.92,0,0,0,.18.46,3.69,3.69,0,0,0,.29.4.72.72,0,0,0,.32.2.69.69,0,0,0,.37.08l.25,0a1,1,0,0,0,.45-.26,2.92,2.92,0,0,0,.21-.28c0-.09.09-.21.13-.3a1.48,1.48,0,0,0,.07-.42,1.46,1.46,0,0,0,0-.42,1.33,1.33,0,0,0,0-.19,1.76,1.76,0,0,0-.45-.72,2.43,2.43,0,0,0-.25-.2,1,1,0,0,0-.51-.15H154a1,1,0,0,0-.44.12.64.64,0,0,0-.24.22.57.57,0,0,0-.14.28.86.86,0,0,0,.08.63,2.19,2.19,0,0,0,.2.25l-.15-.19a1.51,1.51,0,0,0,.22.28l.09.1-.15-.19a1.18,1.18,0,0,1,.11.19l-.1-.23a.83.83,0,0,1,.06.21l0-.24v.19l0-.24a.94.94,0,0,1,0,.16l.09-.23a.75.75,0,0,1-.07.12l.15-.2-.06.07,1.55.2a2.12,2.12,0,0,1-.11-.21l.11.25-.13-.3.1.24a1.16,1.16,0,0,1-.08-.32l0,.26a1.6,1.6,0,0,1,0-.31.69.69,0,0,0-.08-.38.81.81,0,0,0-.21-.34.86.86,0,0,0-.33-.2.67.67,0,0,0-.37-.08,1,1,0,0,0-.71.29l-.16.21a1,1,0,0,0-.13.49Z"/><path class="cls-4" d="M157.53,15.9l.05,0-.51-.87v.06l.13-.49,0,.05.61-.47h-.05l.74.1-.07,0,.37.36c.12.24,0-.26,0-.29,0-.21-.05-.42-.07-.62q-.06-.63-.09-1.26a13,13,0,0,1,0-2.16,5.16,5.16,0,0,1,.16-.7c.09-.28-.06.09.06-.16,0,0,.2-.34.12-.23,0,0,.29-.26.15-.17l.17-.1q-.13.06.06,0a.72.72,0,0,1,.46.1c1,.57,1.45,2,1.67,3.11a12.63,12.63,0,0,1,.2,1.94,8.8,8.8,0,0,0,.2,2.29.84.84,0,0,0,1.61,0,6.53,6.53,0,0,0,.17-2.29,16.44,16.44,0,0,0-.24-2.32,6.82,6.82,0,0,0-2-4A3,3,0,0,0,159.3,7a2.51,2.51,0,0,0-1.88,1.09c-.8,1.13-.75,2.65-.75,4a22.07,22.07,0,0,0,.19,2.93,1.21,1.21,0,0,0,1,1.18,1.09,1.09,0,0,0,1.22-1.1,1,1,0,0,0-.51-.87l0,0a1,1,0,0,0-1.36.37,1,1,0,0,0,.37,1.36Z"/><path class="cls-4" d="M169.93.91a2.22,2.22,0,0,0-2.69,1.47,12.45,12.45,0,0,0-.27,4l-.06,4.08,0,2a3.47,3.47,0,0,0,.26,2.1c.27.38.94.63,1.3.16.65-.86.43-2.16.45-3.2l.05-3.36L169,4.79c0-.29-.12-2.14.43-2,1.21.42,1.72-1.5.51-1.92Z"/><path class="cls-4" d="M166.64,10l2.93.12c.49,0,1,0,1.47,0a8.8,8.8,0,0,0,1.54-.23.73.73,0,0,0,0-1.39,11.68,11.68,0,0,0-3-.41L166.65,8a1,1,0,0,0,0,2Z"/><path class="cls-4" d="M174.49,10.21A25.42,25.42,0,0,0,174.8,13a6.51,6.51,0,0,0,.85,2.57.77.77,0,0,0,1.42-.38,5.11,5.11,0,0,0,0-.78c0-.09,0-.19,0-.28a1.23,1.23,0,0,0,0-.13c-.05-.47-.17-.94-.25-1.41,0-.21-.07-.41-.09-.61a2.7,2.7,0,0,1,0-.28c0,.19,0-.13,0-.17-.05-.42-.08-.85-.11-1.27a1,1,0,0,0-2,0Z"/><path class="cls-4" d="M174.09,5.13a1.05,1.05,0,0,0,.2.27h0l.21.16h0l0,0h0l.24.09h.05a1.58,1.58,0,0,0,.32,0,2.23,2.23,0,0,0,.27,0h.06l0,0a1,1,0,0,0,.24-.1h0c.07-.06.15-.11.21-.17h0l0,0v0l.16-.2,0,0v0c0-.08.07-.16.1-.23s0-.1,0-.13a.45.45,0,0,0,0-.23.68.68,0,0,0-.11-.34,1,1,0,0,0-.15-.2h0a2,2,0,0,0-.18-.13l-.2-.09-.21,0-.22,0,.22,0h0l.22,0c-.08,0,.1,0-.23,0a.84.84,0,0,0-.46.13,1.58,1.58,0,0,0-.22.16l.2-.15-.07,0,.23-.09-.1,0,.25,0-.28,0h0l.25,0h-.09l.25,0-.08,0,.23.09,0,0,.21.16,0,0,.17.21,0,0,.1.24h0a.92.92,0,0,0-.26-.46l-.21-.16a1,1,0,0,0-.48-.13.79.79,0,0,0-.38.08.77.77,0,0,0-.34.22.72.72,0,0,0-.2.32.81.81,0,0,0-.09.37,1,1,0,0,0,.14.51Z"/><path class="cls-4" d="M179.85,14a33.53,33.53,0,0,1-.32-4.36V9.11s0-.37,0-.39-.18.27-.19.18.25.08.24.08a2.26,2.26,0,0,1,.95.83,5.9,5.9,0,0,1,.82,2.93c.09,1.37-.1,3,.67,4.23a.77.77,0,0,0,1.42-.38,17.32,17.32,0,0,0-.13-1.9c0-.67-.06-1.35-.11-2a8.24,8.24,0,0,0-.86-3.29,4,4,0,0,0-2.44-2.09,1.6,1.6,0,0,0-1.69.51A2.51,2.51,0,0,0,178,9.59c.12,1.57.32,3.14.56,4.7a.7.7,0,0,0,.83.49.71.71,0,0,0,.48-.83Z"/><path class="cls-4" d="M185,11.29a19.46,19.46,0,0,0,.44,2.12c.09.34.19.69.31,1a2.21,2.21,0,0,0,.39.8,1.23,1.23,0,0,0,.65.42.76.76,0,0,0,.81-.34,1.29,1.29,0,0,0,.2-.74,2.22,2.22,0,0,0-.16-.71c-.09-.33-.19-.65-.28-1a18,18,0,0,1-.43-2.09,1,1,0,0,0-1.22-.71,1,1,0,0,0-.71,1.22Z"/><path class="cls-4" d="M186.22,5.64l-.18-.2-.19-.2a.77.77,0,0,0-.31-.19.72.72,0,0,0-.35-.08.67.67,0,0,0-.37.08.83.83,0,0,0-.32.2l-.15.2a1.1,1.1,0,0,0-.13.47l0,.25a1,1,0,0,0,.26.44l.21.17.21.17a.67.67,0,0,0,.3.19.65.65,0,0,0,.34.07.71.71,0,0,0,.35-.07.79.79,0,0,0,.31-.2l.14-.19a.89.89,0,0,0,.12-.45l0-.24a.89.89,0,0,0-.24-.42Z"/><path class="cls-4" d="M189.93,4.71a44.72,44.72,0,0,1,1.23,4.85c.17.82.29,1.65.43,2.47s.13,1.82.72,2.37a.7.7,0,0,0,1.09-.15c.47-.64.22-1.73.14-2.46-.11-.89-.26-1.77-.43-2.64a46.38,46.38,0,0,0-1.25-4.94c-.37-1.23-2.3-.73-1.93.5Z"/><path class="cls-4" d="M190.34,10c1.11,0,2.22,0,3.32-.07.55,0,1.09-.08,1.63-.15a3.65,3.65,0,0,0,1.84-.47.82.82,0,0,0-.2-1.48,3.71,3.71,0,0,0-1.69,0l-1.63.13c-1.08.07-2.17.09-3.26.07a1,1,0,1,0,0,2Z"/><path class="cls-4" d="M200,11.73a6.33,6.33,0,0,0,3,.51,3.09,3.09,0,0,0,2.2-1.39c1.05-1.76-1.25-3.07-2.77-2.93a3.26,3.26,0,0,0-2.93,3.37,4.51,4.51,0,0,0,2.85,4,7.17,7.17,0,0,0,3.07.54,13.26,13.26,0,0,0,1.87-.23,9.22,9.22,0,0,0,1.71-.55.85.85,0,0,0,.61-.91.82.82,0,0,0-.81-.72c-.84.1-1.66.22-2.49.35a7.43,7.43,0,0,1-1.94.07,3.41,3.41,0,0,1-2.72-1.66,2.25,2.25,0,0,1-.19-1.31,1.47,1.47,0,0,1,.27-.63.7.7,0,0,1,.33-.29l.17-.09c-.07,0-.07,0,0,0l.34-.08c-.13,0,.21,0,.24,0,.28,0-.11,0,.15,0a.9.9,0,0,1,.48.2c-.12-.09.13.14.15.17-.11-.15.08.17.09.21l-.1-.74a.67.67,0,0,1-.31.39,1.42,1.42,0,0,1-.64.24,5,5,0,0,1-2.15-.48,1,1,0,0,0-1.21.69,1,1,0,0,0,.7,1.21Z"/><path class="cls-4" d="M74.94,22.13c12.45.22,24.9.63,37.35.78,3.49,0,7,.12,10.46,0a.59.59,0,0,0,0-1.18c-6.21-.39-12.46-.35-18.68-.38L85.4,21.24,75,21.14a.5.5,0,0,0,0,1Z"/><path class="cls-4" d="M152.63,21.16q20.64.86,41.28,1.69c3.89.15,7.8.29,11.69.15a.66.66,0,0,0,0-1.32c-6.84-.81-13.77-.9-20.64-1.18l-20.64-.85-11.69-.48c-1.28-.05-1.29,1.94,0,2Z"/></svg>