<?xml version="1.0" encoding="utf-8"?>
<!-- Generator: Adobe Illustrator 26.0.2, SVG Export Plug-In . SVG Version: 6.00 Build 0)  -->
<svg version="1.1" id="Layer_1" xmlns="http://www.w3.org/2000/svg" xmlns:xlink="http://www.w3.org/1999/xlink" x="0px" y="0px"
	 viewBox="0 0 72.49 23.83" style="enable-background:new 0 0 72.49 23.83;" xml:space="preserve">
<style type="text/css">
	.st0{fill:none;stroke:#486AFB;stroke-miterlimit:10;}
	.st1{opacity:0.4;fill:#486AFB;stroke:#486AFB;stroke-miterlimit:10;enable-background:new    ;}
	.st2{fill:#486AFB;}
	.st3{fill:#FD46FC;}
</style>
<circle class="st0" cx="11.5" cy="11.5" r="11"/>
<circle class="st1" cx="60.99" cy="12.33" r="11"/>
<g>
	<g>
		<line class="st0" x1="25.49" y1="11.95" x2="43.98" y2="11.95"/>
		<g>
			<path class="st2" d="M46.99,11.95c-1.42,0.53-3.18,1.43-4.27,2.38l0.86-2.38l-0.86-2.38C43.81,10.52,45.58,11.42,46.99,11.95z"/>
		</g>
	</g>
</g>
<circle class="st0" cx="60.99" cy="12.33" r="11"/>
<path class="st3" d="M61.98,11.1l-0.83-1.98C61.11,9.04,61.09,9,61.09,8.99c0-0.06,0.17-0.25,0.59-0.29c0.1-0.01,0.2-0.02,0.2-0.19
	c0-0.12-0.12-0.12-0.15-0.12c-0.41,0-0.83,0.03-1.25,0.03c-0.25,0-0.86-0.03-1.11-0.03c-0.06,0-0.18,0-0.18,0.2
	c0,0.11,0.1,0.11,0.23,0.11c0.6,0,0.66,0.1,0.75,0.32l1.17,2.77l-2.1,2.25l-0.13,0.11c-0.49,0.53-0.95,0.69-1.46,0.72
	c-0.13,0.01-0.22,0.01-0.22,0.2c0,0.01,0,0.11,0.13,0.11c0.3,0,0.63-0.03,0.93-0.03c0.37,0,0.75,0.03,1.11,0.03
	c0.06,0,0.18,0,0.18-0.2c0-0.1-0.1-0.11-0.12-0.11c-0.09-0.01-0.4-0.03-0.4-0.31c0-0.16,0.15-0.32,0.27-0.45l1.01-1.07l0.89-0.97
	l1,2.38c0.04,0.11,0.05,0.12,0.05,0.14c0,0.08-0.19,0.25-0.58,0.29c-0.11,0.01-0.2,0.02-0.2,0.19c0,0.12,0.11,0.12,0.15,0.12
	c0.28,0,0.97-0.03,1.25-0.03c0.25,0,0.85,0.03,1.1,0.03c0.07,0,0.19,0,0.19-0.19c0-0.12-0.1-0.12-0.18-0.12
	c-0.67-0.01-0.69-0.04-0.85-0.44c-0.39-0.92-1.05-2.47-1.28-3.07c0.67-0.7,1.72-1.88,2.04-2.16c0.29-0.24,0.67-0.48,1.26-0.51
	c0.13-0.01,0.22-0.01,0.22-0.2c0-0.01,0-0.11-0.13-0.11c-0.3,0-0.63,0.03-0.93,0.03c-0.37,0-0.75-0.03-1.1-0.03
	c-0.06,0-0.19,0-0.19,0.2c0,0.07,0.05,0.1,0.12,0.11c0.09,0.01,0.4,0.03,0.4,0.31c0,0.14-0.11,0.27-0.19,0.36L61.98,11.1"/>
<path class="st3" d="M12.69,11.5c-0.11,0.46-0.32,1.3-0.7,2.02c-0.35,0.68-0.72,1.16-1.15,1.16c-0.33,0-0.54-0.29-0.54-1.21
	c0-0.42,0.06-0.99,0.32-1.97H12.69 M10.71,11.18c0.17-0.64,0.37-1.43,0.76-2.14C11.74,8.56,12.11,8,12.55,8
	c0.49,0,0.55,0.64,0.55,1.2c0,0.49-0.08,0.99-0.32,1.98H10.71z M13.76,9.82c0-0.65-0.18-2.04-1.19-2.04c-1.38,0-2.91,2.8-2.91,5.08
	c0,0.93,0.29,2.04,1.19,2.04C12.24,14.9,13.76,12.05,13.76,9.82z"/>
</svg>
