<svg id="Layer_1" data-name="Layer 1" xmlns="http://www.w3.org/2000/svg" viewBox="0 0 171.43 107.11"><defs><style>.cls-1{fill:#486afb;}.cls-2{fill:#fd46fc;}</style></defs><path class="cls-1" d="M.8,102.55q33-.33,66-.78c22.17-.28,44.34-.46,66.5-.77,12.44-.18,24.89-.58,37.33-.4.85,0,.89-1.35,0-1.31-11.07.42-22.17.35-33.25.46s-22.17.22-33.25.39-22.17.36-33.25.45-22,.12-33,.32c-12.38.23-24.75.35-37.12.52a.56.56,0,0,0,0,1.12Z"/><path class="cls-1" d="M1.28,102.22,3.44,101l1.07-.65a2.91,2.91,0,0,0,1.07-1,.62.62,0,0,0-.53-.93,3,3,0,0,0-1.36.46c-.37.2-.73.41-1.09.62L.44,100.77a.86.86,0,0,0-.33,1.16.87.87,0,0,0,1.17.29Z"/><path class="cls-1" d="M.68,103.65a13.22,13.22,0,0,0,1.44,1.55c.26.23.53.46.81.67s.37.27.56.39a2.08,2.08,0,0,0,.64.25.76.76,0,0,0,.76-.27.7.7,0,0,0,.06-.78,2.86,2.86,0,0,0-.42-.5l-.4-.33c-.27-.21-.54-.44-.8-.67a12.87,12.87,0,0,1-1.42-1.53.85.85,0,0,0-.6-.24,1,1,0,0,0-.62.26.91.91,0,0,0-.26.6,1,1,0,0,0,.25.6Z"/><path class="cls-1" d="M168.07,97.44A9.74,9.74,0,0,0,169,99a4.31,4.31,0,0,0,1.46,1.48.67.67,0,0,0,.73-.07.64.64,0,0,0,.25-.68,1.86,1.86,0,0,0-.22-.5l-.26-.37c-.17-.24-.33-.49-.49-.74a11.79,11.79,0,0,1-.85-1.56.85.85,0,0,0-.52-.39,1,1,0,0,0-.66.09.91.91,0,0,0-.4.52,1,1,0,0,0,.07.65Z"/><path class="cls-1" d="M169.48,100.73l-1.16,1.8a14.32,14.32,0,0,0-1,1.89.67.67,0,0,0,.17.86.69.69,0,0,0,.89-.08,14.73,14.73,0,0,0,1.41-1.82l1.19-1.83a.83.83,0,0,0-.31-1.15.9.9,0,0,0-1.18.33Z"/><path class="cls-2" d="M17.77,44.65c0,2-.11,4-.06,6s.09,4,.15,5.94c.12,4,.07,7.92.1,11.89.07,7.82,0,15.65.16,23.48,0,2.23.05,4.47,0,6.7a58.5,58.5,0,0,0-.05,6.62c.08.74,1.17.46,1.23-.17a45.62,45.62,0,0,0-.12-6c-.06-2-.07-4-.06-6q0-5.83,0-11.67c0-3.94-.07-7.88-.07-11.81S18.94,61.89,19,58c.05-2.24.12-4.46.11-6.69s-.07-4.46-.11-6.69a.63.63,0,0,0-1.25,0Z"/><path class="cls-2" d="M37.43,44.49a119.6,119.6,0,0,0-.54,12.12c0,4,.13,8.07.1,12.1Q36.9,80.85,37.13,93c0,2.23,0,4.46.06,6.7s0,4.64.15,6.94a.53.53,0,0,0,1.06,0c.1-2.07,0-4.13,0-6.2s-.06-4-.06-6q0-6.09-.1-12.16c-.1-8.07-.31-16.13-.36-24.2,0-4.53,0-9.1.45-13.61.05-.58-.85-.54-.9,0Z"/><path class="cls-2" d="M56.09,63.86c0,2.74-.08,5.47,0,8.21s0,5.38,0,8.08c-.08,5.42,0,10.85.06,16.28,0,1.49,0,3,0,4.47a22.09,22.09,0,0,0,.11,4.6.51.51,0,0,0,1,0,24,24,0,0,0,.1-4c0-1.36-.08-2.73-.07-4.1,0-2.69,0-5.38,0-8.08,0-5.42-.17-10.85-.14-16.28,0-3.06-.08-6.13-.08-9.2a.43.43,0,0,0-.86,0Z"/><path class="cls-2" d="M74.58,26.3c0,5.16,0,10.32.06,15.49s.23,10.32.26,15.49.15,10.32.2,15.49.05,10.32.17,15.49c.07,2.91.15,5.82.18,8.74,0,1.41,0,2.83,0,4.25s0,3,.09,4.49a.63.63,0,0,0,1.26,0c.12-2.57-.13-5.17-.21-7.74s-.11-5.16-.13-7.75c0-5.16-.17-10.32-.26-15.48s-.16-10.33-.17-15.49.06-10.33,0-15.5c-.07-5.83-.19-11.65-.23-17.48a.63.63,0,0,0-1.26,0Z"/><path class="cls-2" d="M94.3,26.11c0,5.15-.36,10.3-.2,15.46s.11,10.31.1,15.46c0,10.31.09,20.62.13,30.93,0,2.91,0,5.81.07,8.72s-.06,5.82,0,8.73a.66.66,0,0,0,1.31,0c0-2.57-.1-5.15-.11-7.73s0-5.15,0-7.73c0-5.15-.06-10.31-.08-15.46s0-10.31-.06-15.46-.18-10.31-.1-15.46c0-2.92.07-5.82,0-8.73S95,29,95,26.1a.36.36,0,0,0-.72,0Z"/><path class="cls-2" d="M112.66,83.06c-.21,3.91-.24,7.8-.17,11.72,0,2,.27,3.9.45,5.85a26.8,26.8,0,0,0,.92,5.7.5.5,0,0,0,1-.14,57.14,57.14,0,0,0-.51-5.82c-.2-1.9-.22-3.82-.34-5.73a73.68,73.68,0,0,1,.28-11.6c.1-1-1.55-1-1.6,0Z"/><path class="cls-2" d="M132.07,64c-.06,2.61-.18,5.22-.19,7.84s0,5.22-.07,7.84c-.16,5.22,0,10.46-.09,15.68,0,3-.09,6,.05,9a.56.56,0,0,0,1.12,0c.27-5.21.11-10.46.23-15.68,0-2.62.1-5.23.13-7.85s0-5.22.15-7.84c.17-3,.11-6,.17-9,0-1-1.48-.92-1.5,0Z"/><path class="cls-2" d="M150.89,64.27c-.06,5.31-.07,10.62-.06,15.94,0,2.66,0,5.31,0,8,0,1.33,0,2.66,0,4s.09,2.65.07,4,0,2.91,0,4.36a33.33,33.33,0,0,0,.13,4.47c.07.53.8.3.86-.12a28,28,0,0,0,.15-4c0-1.33.06-2.66.06-4,0-2.61.06-5.24.11-7.85.1-5.27.24-10.55.22-15.82l0-9a.77.77,0,0,0-1.54,0Z"/><path class="cls-2" d="M151.27,62.36c-3.13.24-6.26.31-9.4.37-1.53,0-3.06,0-4.58-.1-.78-.05-1.57-.06-2.35-.08a12.08,12.08,0,0,0-2.33.05c-.43.07-.38.66,0,.78a9.63,9.63,0,0,0,2.21.29c.78.07,1.56.12,2.34.14,1.57,0,3.14,0,4.71.07,3.13.09,6.26,0,9.39-.14.89,0,.93-1.45,0-1.38Z"/><path class="cls-2" d="M132.36,81c-4.9.16-9.81.35-14.72.42-2.41,0-4.82.08-7.23.15s-4.91,0-7.36,0c-2.79,0-5.59-.19-8.36-.07a.54.54,0,0,0,0,1.07c2.43.23,4.9.12,7.36.15s4.91.05,7.36,0,4.82,0,7.23-.08,4.91-.18,7.36-.15c2.79,0,5.57-.15,8.36-.22.81,0,.85-1.28,0-1.25Z"/><path class="cls-2" d="M93.93,24.77c-1.54.09-3.07.08-4.61.06s-3.16.07-4.73.06H80c-.75,0-1.5,0-2.25,0a9.3,9.3,0,0,0-2.36.07.45.45,0,0,0,0,.86,8.3,8.3,0,0,0,2.23.16c.74,0,1.49,0,2.24,0,1.58,0,3.16.06,4.73,0s3.08.07,4.61,0,3.16-.11,4.74-.09c.74,0,.77-1.19,0-1.15Z"/><path class="cls-2" d="M75.46,62.4c-3.22-.07-6.43-.07-9.65,0-1.56,0-3.13.06-4.7.13l-2.47.11a11.61,11.61,0,0,0-2.35.21.48.48,0,0,0,.11.94,13.07,13.07,0,0,0,2.34-.05c.79,0,1.57-.08,2.35-.1,1.61,0,3.22-.12,4.82-.1,3.18,0,6.36.1,9.53.26a.71.71,0,0,0,0-1.42Z"/><path class="cls-2" d="M55.34,81.13a80.78,80.78,0,0,0-8.8.18c-1.44.06-2.89.1-4.34.1-.74,0-1.48,0-2.23,0a11.8,11.8,0,0,0-2.22.17.41.41,0,0,0,0,.79,11.18,11.18,0,0,0,2.09.09c.74,0,1.48,0,2.23,0,1.48,0,3,0,4.46,0,2.93,0,5.86.14,8.79.19a.75.75,0,0,0,0-1.49Z"/><path class="cls-2" d="M36.9,43.23c-.78.08-1.53.21-2.3.32s-1.52.14-2.28.22c-1.56.16-3.13.19-4.7.23s-3.05.15-4.58.14a29.15,29.15,0,0,0-4.58.12.46.46,0,0,0,0,.88,20.68,20.68,0,0,0,4.45.06c1.57-.08,3.15-.06,4.71-.16s3-.27,4.58-.32c.74,0,1.48-.12,2.22-.15s1.65,0,2.47-.11.83-1.3,0-1.23Z"/><path class="cls-2" d="M19.42,53.17a42.83,42.83,0,0,1,3.4-3.73c.59-.57,1.18-1.13,1.79-1.68A18.51,18.51,0,0,0,26.46,46a.33.33,0,0,0-.41-.52A10.24,10.24,0,0,0,24,47c-.64.58-1.26,1.18-1.85,1.81a50,50,0,0,0-3.35,3.91c-.27.35.34.8.62.46Z"/><path class="cls-2" d="M19.1,56.64l-.19.86a.37.37,0,0,0,.63.35c2-2.06,4-4.18,5.92-6.28,1-1,1.9-2.06,2.84-3.09a34.63,34.63,0,0,0,2.81-3.25c.27-.39-.29-.7-.6-.45a31.92,31.92,0,0,0-2.92,3c-1,1.06-2,2.11-2.92,3.18-1.89,2.12-3.81,4.21-5.66,6.36l.63.35.17-.86a.37.37,0,0,0-.71-.18Z"/><path class="cls-2" d="M20.29,62c2.55-2.35,5.07-4.72,7.54-7.14q1.8-1.77,3.59-3.57a51.11,51.11,0,0,0,3.67-3.84.31.31,0,0,0-.45-.44c-1.3,1.13-2.47,2.44-3.68,3.66l-3.69,3.65c-2.48,2.42-5,4.81-7.5,7.17-.35.33.17.83.52.51Z"/><path class="cls-2" d="M20.47,67.76c4.44-3.93,9-7.79,13.26-11.87.29-.28-.13-.66-.43-.42-4.58,3.78-9,7.8-13.4,11.74-.4.35.18.9.57.55Z"/><path class="cls-2" d="M20.62,73.71c2.65-2.18,5.31-4.35,8-6.55s5.34-4.32,7.86-6.64c.28-.26-.1-.76-.42-.52-2.73,2-5.32,4.31-7.95,6.5s-5.31,4.47-8,6.7c-.37.31.15.8.52.51Z"/><path class="cls-2" d="M20.76,82.46C23.4,80,26,77.49,28.67,75s5.31-5,7.77-7.6a.35.35,0,0,0-.51-.49c-2.79,2.31-5.39,4.87-8,7.35s-5.27,5-7.9,7.48c-.51.49.26,1.22.76.74Z"/><path class="cls-2" d="M21,87.91c2.54-2,5.09-4.09,7.62-6.15l3.73-3.07c1.25-1,2.59-2.07,3.73-3.24a.26.26,0,0,0-.31-.4c-1.32.87-2.55,2-3.78,3s-2.56,2.08-3.83,3.14c-2.54,2.11-5.06,4.24-7.59,6.36-.3.25.13.65.43.41Z"/><path class="cls-2" d="M21.08,93.85c4.55-3.53,9.11-7,13.53-10.73.26-.22-.09-.67-.37-.46-4.61,3.48-9.09,7.15-13.58,10.79-.3.25.13.63.42.4Z"/><path class="cls-2" d="M23.76,97.93c3.73-3.4,7.69-6.49,11.67-9.6.23-.18-.07-.54-.31-.39a81,81,0,0,0-11.87,9.49c-.35.33.16.81.51.5Z"/><path class="cls-2" d="M29.51,98.94a18.22,18.22,0,0,1,2.15-1.77c.77-.54,1.59-1,2.37-1.48a.36.36,0,0,0,.16-.44.35.35,0,0,0-.41-.2,11.47,11.47,0,0,0-2.51,1.53,18.39,18.39,0,0,0-2.18,2,.29.29,0,0,0,.42.41Z"/><path class="cls-2" d="M57.47,69.08a25.31,25.31,0,0,0,5.23-3.91c.28-.28-.13-.64-.42-.41a49.1,49.1,0,0,1-5.18,3.68.37.37,0,0,0,.37.64Z"/><path class="cls-2" d="M58.34,73.82c1.52-1.39,3-2.83,4.41-4.34a36.5,36.5,0,0,0,4-4.65c.22-.33-.28-.68-.54-.4-1.38,1.48-2.61,3.12-4,4.62s-2.81,2.94-4.3,4.32c-.31.29.15.73.46.45Z"/><path class="cls-2" d="M58.88,77.7q3.36-3,6.65-6c2.2-2,4.44-4,6.5-6.17.25-.26-.13-.62-.4-.38-2.24,2-4.35,4.09-6.55,6.11s-4.42,4-6.68,6c-.34.29.15.76.48.46Z"/><path class="cls-2" d="M58.45,81.59C63,78.28,67.61,75.14,72,71.7c.26-.2-.08-.63-.34-.44-4.6,3.15-9,6.63-13.48,9.92-.26.18,0,.6.24.41Z"/><path class="cls-2" d="M59.18,88.18a39.49,39.49,0,0,0,3.57-2.63l4-3.12c2.63-2,5.36-4,7.86-6.23.26-.23-.09-.67-.37-.47-2.64,1.87-5.12,4-7.65,6l-3.75,3a36.22,36.22,0,0,1-3.9,3,.23.23,0,0,0,.23.4Z"/><path class="cls-2" d="M59.47,93.33c2.42-1.73,4.83-3.49,7.2-5.29a82.88,82.88,0,0,0,6.85-5.54c.29-.27-.1-.8-.43-.55-2.33,1.72-4.5,3.65-6.77,5.45s-4.71,3.68-7.13,5.44c-.3.22,0,.71.28.49Z"/><path class="cls-2" d="M58.76,98.94q3.91-2.39,7.63-5.08,1.78-1.29,3.52-2.64a20.77,20.77,0,0,0,3.51-3,.31.31,0,0,0-.37-.48,27.38,27.38,0,0,0-3.44,2.74q-1.81,1.45-3.67,2.87Q62.33,96,58.48,98.46c-.31.2,0,.68.28.48Z"/><path class="cls-2" d="M65.42,100.05a35.14,35.14,0,0,1,3.87-3.22c1.36-1,2.82-1.75,4.25-2.62.36-.21.06-.68-.31-.53a23.15,23.15,0,0,0-4.41,2.63,33.7,33.7,0,0,0-3.91,3.25c-.34.33.17.81.51.49Z"/><path class="cls-2" d="M95.92,88.7a82.78,82.78,0,0,0,7.75-6.1c.31-.28-.13-.66-.44-.42-2.56,2-5.06,4-7.7,5.85-.42.29,0,1,.39.67Z"/><path class="cls-2" d="M98.18,93.1,104,88.41c1.92-1.56,3.88-3.08,5.73-4.73.3-.27-.1-.8-.44-.56-2,1.46-3.91,3.06-5.84,4.6l-5.91,4.71c-.49.4.21,1.06.69.67Z"/><path class="cls-2" d="M98.42,96.67c2.11-1.39,4.16-2.88,6.17-4.42a66.26,66.26,0,0,0,5.92-4.92c.31-.29-.13-.67-.44-.43-2,1.53-3.87,3.16-5.85,4.69s-4.07,3-6.15,4.47c-.38.27,0,.87.35.61Z"/><path class="cls-2" d="M103.52,99.14c2.62-2.11,5.35-4.13,7.88-6.35.28-.24-.09-.73-.39-.51-2.75,2-5.34,4.24-8,6.36-.37.3.15.79.51.5Z"/><path class="cls-2" d="M134.75,69.33c1.74-1.6,3.52-3.16,5.21-4.81.26-.26-.12-.6-.39-.38-1.83,1.5-3.58,3.1-5.35,4.67-.37.32.17.85.53.52Z"/><path class="cls-2" d="M134.33,73.83c3.18-2.78,6.55-5.29,9.88-7.87.32-.25-.09-.78-.42-.55a107,107,0,0,0-9.87,8c-.28.26.13.65.41.4Z"/><path class="cls-2" d="M135.29,78.48q3.35-2.94,6.64-5.92c2.2-2,4.48-3.9,6.54-6,.39-.4-.19-.93-.6-.58-2.24,1.94-4.31,4.07-6.49,6.08s-4.4,4-6.64,5.92c-.38.34.18.87.55.54Z"/><path class="cls-2" d="M135.57,85.59c2.85-2.17,5.69-4.36,8.49-6.6q2.1-1.67,4.17-3.38c1.41-1.16,2.87-2.29,4.2-3.55.23-.22-.08-.63-.35-.44-1.42,1-2.76,2.14-4.12,3.22l-4.33,3.4c-2.85,2.25-5.7,4.48-8.58,6.69-.39.29.12,1,.52.66Z"/><path class="cls-2" d="M136.44,90q3.66-2.77,7.39-5.46c2.45-1.75,5-3.4,7.37-5.24.28-.21-.07-.63-.36-.46-2.59,1.53-5.05,3.34-7.5,5.09s-4.9,3.54-7.31,5.37c-.42.32,0,1,.41.7Z"/><path class="cls-2" d="M135.77,95.3q3.43-2.77,6.95-5.43c2.31-1.74,4.7-3.38,7-5.13.29-.22,0-.69-.28-.48-2.49,1.6-4.85,3.42-7.22,5.2s-4.64,3.54-6.92,5.37c-.35.28.14.74.48.47Z"/><path class="cls-2" d="M141.16,97.67c3.12-2.25,6.32-4.42,9.36-6.77.26-.21-.08-.64-.36-.45-3.18,2.09-6.24,4.4-9.35,6.61-.37.27,0,.88.35.61Z"/><path class="cls-2" d="M127.38,83.63l1.91,2.77c.63.91,1.23,1.85,1.91,2.72.2.25.61-.08.45-.35-.56-.94-1.22-1.83-1.85-2.73l-1.87-2.73c-.22-.32-.77,0-.55.32Z"/><path class="cls-2" d="M122.43,84c1.39,1.87,2.76,3.75,4.14,5.64l2,2.77a7.42,7.42,0,0,1,1.59,2.72c0,.25.49.19.47-.07a5.21,5.21,0,0,0-1.2-2.5c-.72-1-1.45-2-2.18-3q-2.17-2.94-4.34-5.9c-.21-.29-.71,0-.5.29Z"/><path class="cls-2" d="M117.6,84.16a81.7,81.7,0,0,1,5.67,7c1.74,2.41,3.31,4.93,4.92,7.43a.28.28,0,0,0,.49-.28,61.45,61.45,0,0,0-10.74-14.54c-.2-.21-.54.12-.34.34Z"/><path class="cls-2" d="M116.42,88.22c2.42,3.07,4.73,6.29,7.4,9.15.18.19.54-.07.39-.3-1.08-1.63-2.31-3.17-3.53-4.7s-2.49-3.11-3.74-4.67c-.28-.36-.8.16-.52.52Z"/><path class="cls-2" d="M115.61,92.28A58,58,0,0,1,119,97.11a.37.37,0,0,0,.65-.37,26.6,26.6,0,0,0-3.46-5c-.31-.38-.89.18-.57.57Z"/><path class="cls-2" d="M87.55,27.56c1.84,2.53,3.48,5.17,5.07,7.86a.28.28,0,0,0,.49-.28A69.75,69.75,0,0,0,88,27.29c-.2-.27-.67,0-.47.27Z"/><path class="cls-2" d="M82.35,28q3,4.17,5.66,8.54c1.79,2.92,3.43,5.92,5.24,8.82a.34.34,0,0,0,.58-.34,73.29,73.29,0,0,0-5-8.93Q86,31.73,83,27.59c-.27-.38-.91,0-.64.37Z"/><path class="cls-2" d="M78.08,29q3.77,5.1,7.32,10.35c2.38,3.5,4.62,7.08,7.06,10.54a.33.33,0,0,0,.57-.33c-2.08-3.67-4.49-7.17-6.9-10.64S81.25,32,78.72,28.62c-.27-.37-.92,0-.64.37Z"/><path class="cls-2" d="M78,39.94C82.75,45.82,87.13,52,91.63,58c.25.34.84,0,.6-.34A183.44,183.44,0,0,0,78.42,39.51c-.25-.3-.68.13-.44.43Z"/><path class="cls-2" d="M78.84,49.64q3.81,4.53,7.6,9.11c2.27,2.74,5,5.43,6,8.94.11.39.64.21.59-.16A9.54,9.54,0,0,0,90.85,63c-1.14-1.49-2.41-2.89-3.63-4.31q-4-4.68-8-9.4c-.21-.25-.59.12-.37.38Z"/><path class="cls-2" d="M77,57.63c2.35,3.14,4.76,6.24,7.16,9.34,1.16,1.5,2.31,3,3.5,4.49A47.29,47.29,0,0,0,91.48,76c.28.28.82-.1.59-.45-1-1.57-2.35-3-3.55-4.45s-2.46-3-3.67-4.51c-2.46-3.06-4.82-6.2-7.16-9.36-.29-.4-1,0-.69.4Z"/><path class="cls-2" d="M77.34,66.31a121,121,0,0,0,7.8,10.78c1.39,1.72,2.85,3.4,4.35,5,1.36,1.47,2.91,2.93,3.33,5,.06.33.62.26.6-.08-.13-1.93-1.41-3.39-2.65-4.76-1.53-1.69-3-3.41-4.49-5.18a119.73,119.73,0,0,1-8.18-11.2c-.3-.46-1.06,0-.76.44Z"/><path class="cls-2" d="M78.3,78a41.12,41.12,0,0,0,7,6.85c1.26,1,2.51,2.12,3.68,3.27a32.53,32.53,0,0,1,3.28,3.85c.25.33.8,0,.59-.34-1.58-2.83-4.29-5-6.72-7.06a42.49,42.49,0,0,1-7.13-7c-.31-.43-1.05,0-.74.42Z"/><path class="cls-2" d="M79.09,88.21c3.8,3.29,7.52,6.71,11.48,9.81.35.27.87-.2.52-.53-3.62-3.48-7.53-6.67-11.32-9.95-.45-.39-1.13.27-.68.67Z"/><path class="cls-2" d="M50.12,82.84c1.82,2.72,3.6,5.49,5.54,8.12.21.28.68,0,.5-.29-1.68-2.8-3.55-5.5-5.35-8.22-.28-.41-1,0-.69.39Z"/><path class="cls-2" d="M46.36,83.52c2.63,2.93,5.16,6,7.85,8.83.24.26.62-.13.39-.39-2.53-3-5.24-5.89-7.83-8.85-.24-.28-.66.13-.41.41Z"/><path class="cls-2" d="M43.82,85c1.51,1.6,3,3.24,4.37,4.93s2.75,3.43,4.17,5.11c.21.25.69-.1.49-.38a119.64,119.64,0,0,0-8.72-10c-.18-.21-.51.11-.31.31Z"/><path class="cls-2" d="M40.63,86.86a91.55,91.55,0,0,1,7.55,11.07.31.31,0,0,0,.53-.31,64.71,64.71,0,0,0-7.83-11c-.14-.17-.4.08-.25.25Z"/><path class="cls-2" d="M39.69,93.59c.93,1.33,1.83,2.69,2.87,3.94.26.3.74-.1.56-.43-.79-1.38-1.73-2.66-2.64-4a.46.46,0,0,0-.79.46Z"/><path class="cls-1" d="M23.54,101.8a1.09,1.09,0,0,0-.65-1.19.76.76,0,0,0-.83.39,2.11,2.11,0,0,0-.21.89,2.73,2.73,0,0,0,.09.9,1.54,1.54,0,0,0,.43.84,1,1,0,0,0,1.14.12,1.54,1.54,0,0,0,.61-.79,2,2,0,0,0,0-1.75,1.28,1.28,0,0,0-1.45-.6,1.56,1.56,0,0,0-.95,1.12,2.24,2.24,0,0,0,.08,1.61,1.11,1.11,0,0,0,1.76.32,1.66,1.66,0,0,0,.37-1,3.17,3.17,0,0,0,0-.87,3,3,0,0,0-.28-.81,1,1,0,0,0-.78-.64c-.74-.09-1.1.67-1.33,1.23a1.71,1.71,0,0,0,.25,1.85,1.26,1.26,0,0,0,1.86,0,1.69,1.69,0,0,0,.37-.84,5.27,5.27,0,0,0,.09-.89,1.81,1.81,0,0,0-.87-1.63,1.3,1.3,0,0,0-1.7.4,1.73,1.73,0,0,0-.2,1.37,1.8,1.8,0,0,0,1.22,1.29A1.35,1.35,0,0,0,23.6,103a1.25,1.25,0,0,0,.6-1,1,1,0,0,0-.49-.88.63.63,0,0,0-.89.68c0,.11,0-.15,0,0,0-.2,0-.11,0-.06s-.05.07,0,0l-.05.09a.56.56,0,0,0,0,.08l.08-.1-.05,0,.11-.08-.06,0s.23-.09.07,0,.18,0,0,0,.16,0,0,0h0l.06,0-.12-.06c-.13-.07.13.12,0,0l-.09-.08s-.1-.13,0,0l-.08-.1c.09.11.11.14.07.08s-.06-.11-.09-.16c.1.18,0,.13,0,.06l0-.09s0-.06,0-.09,0,.18,0,.06a1.08,1.08,0,0,1,0-.18c0-.12,0,.18,0,.06a.24.24,0,0,1,0-.08c0-.09,0,0,0,.06l0-.07c0-.1-.13.12-.05.06l0,0c.07-.09-.16.11-.07.05s-.15,0,0,0h0c.07,0,.05,0-.06,0h0l-.05,0,.1,0-.08,0,.06,0c.05,0,0,.07,0,0a.33.33,0,0,0,.06.1.16.16,0,0,0,0,.07c0-.1-.05-.12,0,0a.93.93,0,0,0,0,.13c0,.15,0-.14,0,0v.29a.34.34,0,0,0,0,.1c0,.17,0-.15,0,0a2.84,2.84,0,0,1-.06.31,1.42,1.42,0,0,1-.05.22s0,.07,0,.11c0-.16.06-.13,0-.06a.2.2,0,0,1,0,.08c0,.08-.09.08,0,0l-.07.08c.12-.09.14-.11.07-.06.13,0,.16-.06.09,0s.18,0,0,0,.18,0,.05,0,.14.08,0,0l-.06,0,.08.07-.06,0a.6.6,0,0,0-.08-.08c.11.07.07.09,0,0a.16.16,0,0,1,0-.07c0,.11.05.12,0,.06v0c0-.07,0-.06,0,0s0-.11,0-.14,0,.07,0,0l0-.12a1.4,1.4,0,0,1,.09-.29s0-.1.05-.15l0-.09c0,.08,0,.09,0,0a.54.54,0,0,1,.05-.11l0,0s0,0,0,0,0-.06,0,0l-.07,0,0,0a.31.31,0,0,1-.23,0l-.05,0,0,0s.14.24.15.27c0-.13,0,0,0,0a.76.76,0,0,1,0,.11l.06.25s0,.17,0,0a.57.57,0,0,1,0,.13c0,.11,0,.21,0,.32s0-.11,0,0a.29.29,0,0,1,0,.09.77.77,0,0,1-.07.26l0-.06a.25.25,0,0,1,0,.07l0-.06c.09-.06.1-.07.05,0l.09,0h.06c-.07,0-.05,0,.05,0h-.07l-.06,0,.08,0-.07,0,.07,0-.05,0,.05.07a.35.35,0,0,1-.05-.08l0,0c0-.06,0-.05,0,0s0-.1,0-.12,0-.09,0-.13,0,.09,0,0v-.06a1.92,1.92,0,0,1,0-.42v.07s0,0,0-.07l0-.1s.06-.2.06-.2-.05.11,0,0l0-.08c.05-.1-.09.09,0,0a.46.46,0,0,1,.07-.07c.07-.08-.11.06,0,0h0c.05,0,0,0,0,0s.09,0,.09,0h0c-.11,0,0,0,0,0s-.06,0,0,0,.11.08,0,0a.6.6,0,0,1,.08.08c-.08-.09,0,0,0,0l0,0s0,0,0,0l0,.07s0,.06,0,.09h0V102s0,.06,0,.1,0-.05,0,0-.06.22-.1.33c0-.11,0,0,0,0a.86.86,0,0,0-.07.1l.05-.06-.06.06s-.1.08-.11.11l.07,0-.07,0q.15,0,.06,0H23l.09,0h0c.13.07,0,0,0,0s.08.13,0,0a1.09,1.09,0,0,1-.08-.15s-.09-.15,0,0a1.27,1.27,0,0,1-.06-.18c0-.11-.05-.22-.07-.33s0,0,0,0a1.34,1.34,0,0,1,0-.2,1.82,1.82,0,0,1,0-.33c0-.15,0,.08,0,0a.19.19,0,0,1,0-.07.2.2,0,0,1,0,.09.27.27,0,0,1-.19.08l-.1,0s0,0,0,0l-.06,0s0,0,0,0l0,.06s0,0,0,0,0,.08,0,.09,0,.17,0,0a.89.89,0,0,1,0,.23c0,.24.23.47.46.46a.5.5,0,0,0,.48-.47Z"/><path class="cls-1" d="M27.31,101.68a.66.66,0,1,0-1.07-.74,2.2,2.2,0,0,0-.28,1.63,1.31,1.31,0,0,0,1.48.92,1.21,1.21,0,0,0,.8-.59,2,2,0,0,0,.23-.79,4.65,4.65,0,0,0-.16-1.7A.66.66,0,0,0,28,100a.77.77,0,0,0-.52-.06A1.93,1.93,0,0,0,26,101.37a1.86,1.86,0,0,0,.13,1.25,1.37,1.37,0,0,0,1.17.78,1.62,1.62,0,0,0,1.32-.74,1.9,1.9,0,0,0,.34-1.18,1.57,1.57,0,0,0-.23-.73,1.53,1.53,0,0,0-.51-.47,1.41,1.41,0,0,0-1.34,0,1.16,1.16,0,0,0-.52,1.35,1.19,1.19,0,0,0,.42.61.93.93,0,0,0,1,0,.63.63,0,0,0,0-1.1l-.05,0,.14.1a.12.12,0,0,1-.05,0l.11.15c-.06-.08-.12-.17-.19-.25l.12.15-.06-.11.07.19a.8.8,0,0,1,0-.15l0,.19a.85.85,0,0,1,0-.16l0,.19,0-.12-.07.18a.3.3,0,0,1,0-.08l-.12.16.06-.06-.16.12a.45.45,0,0,1,.12-.06l-.19.08a.17.17,0,0,1,.1,0l-.2,0h.16l-.19,0,.14,0-.18-.06a.55.55,0,0,1,.15.08l-.16-.12a.62.62,0,0,1,.14.14l-.12-.16a.83.83,0,0,1,.09.16l-.08-.19a.73.73,0,0,1,.05.2l0-.19a1,1,0,0,1,0,.24l0-.19a1.11,1.11,0,0,1-.08.3l.07-.18a1.11,1.11,0,0,1-.17.3l.12-.16a1.14,1.14,0,0,1-.19.19l.17-.13-.17.1.19-.08-.12,0,.2,0h-.16l.2,0-.12,0,.19.07-.14-.07.16.12a1.06,1.06,0,0,1-.15-.15l.13.16a1.2,1.2,0,0,1-.13-.21l.08.18a.89.89,0,0,1-.07-.28l0,.19a.88.88,0,0,1,0-.28l0,.19a1.09,1.09,0,0,1,.08-.31l-.07.18a1.13,1.13,0,0,1,.19-.32l-.12.15a1.25,1.25,0,0,1,.23-.23l-.16.12a2,2,0,0,1,.25-.14l-.18.07.14,0-.84-.48a3.21,3.21,0,0,1,.14.63l0-.18a3.05,3.05,0,0,1,0,.8l0-.17a2.5,2.5,0,0,1-.11.39l.07-.17a.77.77,0,0,1-.1.18l.11-.15a.34.34,0,0,1-.12.12l.16-.12a.3.3,0,0,1-.11.06l.19-.07-.11,0,.19,0h-.17l.18,0-.13,0,.16.07-.18-.1.14.1-.14-.14.1.14a1.62,1.62,0,0,1-.1-.18l.06.15a.5.5,0,0,1,0-.13s0,0,0-.06,0,0,0,.06a1.36,1.36,0,0,1,0-.28c0,.08,0,.09,0,0v0c0-.06,0-.11,0-.16s.06-.18.09-.27l-.15.24a.53.53,0,0,1-.43.12c-.19-.13-.25-.16-.18-.1a.41.41,0,0,1,0-.59.53.53,0,0,0,0,.76.56.56,0,0,0,.78,0Z"/><path class="cls-1" d="M32.1,102.91a1.84,1.84,0,0,0,.62-.25,2.17,2.17,0,0,0,.29-.24l.09-.09,0,0,.07-.09h0a1.48,1.48,0,0,0,.21-.3.64.64,0,0,0,0-.7,1.26,1.26,0,0,0-.46-.43,1.66,1.66,0,0,0-2.14.63,1.49,1.49,0,0,0,0,1.42,1.83,1.83,0,0,0,1.06.85,1.56,1.56,0,0,0,1.36-.17,1.74,1.74,0,0,0,.74-1.14,1.9,1.9,0,0,0-.2-1.3,1.46,1.46,0,0,0-1.29-.81c-1.14.09-1.4,1.4-1.27,2.32a1.58,1.58,0,0,0,.68,1.14,1.19,1.19,0,0,0,.73.18,1.7,1.7,0,0,0,1-.45,2.2,2.2,0,0,0,.71-1.22,1.88,1.88,0,0,0-1.43-2.29,1.76,1.76,0,0,0-1.54.41,1.55,1.55,0,0,0-.47,1.19,1.73,1.73,0,0,0,.19.74,2.18,2.18,0,0,0,.22.31,1.1,1.1,0,0,0,.47.29,1,1,0,0,0,.83-.09.68.68,0,0,0,.15-1l0,0,.11.15-.22-.3.13.17-.25-.33.13.18a1,1,0,0,1-.11-.2l.08.2a1.14,1.14,0,0,1-.06-.25l0,.21a1,1,0,0,1,0-.24l0,.21a1.21,1.21,0,0,1,0-.18l-.08.19a.51.51,0,0,1,.09-.16l-.13.17.12-.12-.18.14.17-.1-.21.09a.83.83,0,0,1,.21-.06l-.21,0a1,1,0,0,1,.24,0l-.2,0,.27.07-.2-.07a.89.89,0,0,1,.27.15l-.16-.13a1.21,1.21,0,0,1,.16.16l-.13-.17a1.59,1.59,0,0,1,.13.22l-.08-.2a1.77,1.77,0,0,1,.08.31l0-.21a1.45,1.45,0,0,1,0,.36l0-.21a1.66,1.66,0,0,1-.11.38l.08-.2a1.68,1.68,0,0,1-.21.37l.13-.17a1.36,1.36,0,0,1-.24.24l.18-.13a1.13,1.13,0,0,1-.21.12l.2-.08-.13,0,.2,0h-.14l.2,0a.23.23,0,0,1-.11,0l.19.08-.12-.07.17.12a.47.47,0,0,1-.1-.1l.13.17a.88.88,0,0,1-.12-.21l.08.19a1.23,1.23,0,0,1-.1-.42l0,.2a2,2,0,0,1,0-.55l0,.19a1.86,1.86,0,0,1,.1-.39l-.07.18a.54.54,0,0,1,.11-.18l-.12.15.09-.09-.17.13.09,0-.19.08a.38.38,0,0,1,.1,0l-.19,0a.14.14,0,0,1,.09,0l-.19,0,.14,0-.18-.07a.53.53,0,0,1,.15.08l-.15-.11.16.15-.12-.15a1.08,1.08,0,0,1,.11.18l-.07-.18a1.09,1.09,0,0,1,.07.3l0-.19a1.93,1.93,0,0,1,0,.34l0-.19a1,1,0,0,1-.08.29l.08-.18a1.59,1.59,0,0,1-.13.22l.13-.16a1.21,1.21,0,0,1-.16.16l.17-.14a.67.67,0,0,1-.18.11l.2-.08a1,1,0,0,1-.25.07l.21,0a1,1,0,0,1-.24,0l.2,0a1.22,1.22,0,0,1-.26-.06l.19.07a1.3,1.3,0,0,1-.26-.14l.16.11A1,1,0,0,1,32,102l.12.16a.88.88,0,0,1-.12-.21l.08.19a.84.84,0,0,1,0-.2l0,.18a.43.43,0,0,1,0-.16l0,.19a2.08,2.08,0,0,0,0-.23l0,.18a.83.83,0,0,1,0-.15l-.07.17a.51.51,0,0,1,.09-.16l-.11.15a.81.81,0,0,1,.16-.16L32,102a.94.94,0,0,1,.22-.12l-.17.07.25-.07-.18,0a.61.61,0,0,1,.19,0h0s-.17,0-.1,0l.1,0c.11,0-.14-.08-.05,0l.08,0c.05,0-.11-.09-.08-.06l0,0,.07.08-.1-.13v0l-.05-.46a.42.42,0,0,1,0,.06s.06-.13,0,0l0,.06c0,.07,0,0,0,0l-.09.09,0,0c-.08.07.1-.07,0,0l-.11.07s-.16.08-.06,0,0,0-.06,0-.22,0,0,0a.72.72,0,0,0-.44.18.6.6,0,0,0-.18.51.59.59,0,0,0,.23.4.66.66,0,0,0,.53.1Z"/><path class="cls-1" d="M46.58,101.81a2.05,2.05,0,0,0-.21-.77,2.23,2.23,0,0,0-.43-.59.52.52,0,0,0-.79.12,2.67,2.67,0,0,0-.43,1,1.83,1.83,0,0,0,0,.7,1.43,1.43,0,0,0,.32.56,1.31,1.31,0,0,0,1,.45,1,1,0,0,0,.61-.18,1.07,1.07,0,0,0,.31-.29,1.79,1.79,0,0,0,.22-.38,3.36,3.36,0,0,0,.2-.93,1.6,1.6,0,0,0-.37-1.12,1.5,1.5,0,0,0-2-.11,2.32,2.32,0,0,0-.5.49,2.53,2.53,0,0,0-.26.52,1.74,1.74,0,0,0,.79,2.12,1.5,1.5,0,0,0,2.07-.7,2,2,0,0,0,.23-1,2,2,0,0,0-.45-1.13,1.29,1.29,0,0,0-1-.45,1.64,1.64,0,0,0-1.05.47,1.41,1.41,0,0,0-.37,1.24,1.24,1.24,0,0,0,.12.32.57.57,0,0,0,.08.13,1.35,1.35,0,0,0,.5.45,1.4,1.4,0,0,0,1.2.07.86.86,0,0,0,.55-.62.62.62,0,0,0-.6-.78h0l.17,0-.16,0a1,1,0,0,0-.34,0l.19,0h-.16l.19,0a1.05,1.05,0,0,1-.24-.06l.18.07a.81.81,0,0,1-.18-.1l.16.12-.22-.16.17.12a.86.86,0,0,1-.14-.13l.13.17a1,1,0,0,1-.08-.14l.08.19a.75.75,0,0,1,0-.16l0,.2a.66.66,0,0,1,0-.14l0,.2a.74.74,0,0,1,0-.14l-.08.19a.64.64,0,0,1,.08-.14l-.12.16a.54.54,0,0,1,.15-.15l-.17.12a.7.7,0,0,1,.17-.09l-.19.08a.64.64,0,0,1,.18-.06l-.19,0H46l-.19,0,.14,0-.18-.07.14.07-.15-.11a.54.54,0,0,1,.15.15l-.11-.15a1.59,1.59,0,0,1,.13.22l-.07-.18a1.09,1.09,0,0,1,.07.3l0-.18a1.06,1.06,0,0,1,0,.31l0-.18a1.38,1.38,0,0,1-.08.29l.07-.17a1,1,0,0,1-.1.18l.12-.15a1.37,1.37,0,0,1-.17.17l.16-.12-.17.09.19-.08a.67.67,0,0,1-.19,0l.19,0h-.2l.2,0a1.34,1.34,0,0,1-.27-.07l.18.07-.2-.11.15.11a1.26,1.26,0,0,1-.2-.2l.12.16a1.06,1.06,0,0,1-.12-.2l.08.18a.89.89,0,0,1-.07-.28l0,.19a1.71,1.71,0,0,1,0-.32l0,.18a1.8,1.8,0,0,1,.1-.33l-.07.16a2.38,2.38,0,0,1,.18-.3l-.11.15a1.26,1.26,0,0,1,.2-.2l-.15.11a2,2,0,0,1,.25-.14l-.17.07a1.05,1.05,0,0,1,.24-.06l-.17,0h.21l-.17,0,.15,0-.16-.06a.34.34,0,0,1,.12.06l-.14-.1a.86.86,0,0,1,.14.13l-.11-.14a.56.56,0,0,1,.09.17l-.07-.17a.54.54,0,0,1,.05.21v-.17a1.53,1.53,0,0,1,0,.37l0-.17a3.45,3.45,0,0,1-.17.63l.07-.17a.94.94,0,0,1-.12.22l.11-.14-.08.08.15-.12-.1.07.17-.08-.13,0,.18,0a.33.33,0,0,1-.14,0l.17,0-.17,0,.16.06a.81.81,0,0,1-.18-.1l.14.1a.85.85,0,0,1-.17-.16l.11.13a.59.59,0,0,1-.1-.17l.06.15a1,1,0,0,1-.06-.23l0,.15a2.09,2.09,0,0,1,0-.25.22.22,0,0,1,0-.08h0s0,0,0-.07c0-.17.1-.33.15-.5l-.74.31.05,0c.07,0,0,0,0,0s.09.08.11.1l0,.05s.06.07,0,0,0,0,0,0l0,.06.06.12c0,.06,0,0,0,0s0,0,0,.06a1.27,1.27,0,0,1,.06.28.38.38,0,0,0,.2.26.52.52,0,0,0,.27,0,.45.45,0,0,0,.39-.43Z"/><path class="cls-1" d="M71.55,102.44a2.46,2.46,0,0,0,.68-.72,1.26,1.26,0,0,0,0-1.12,1,1,0,0,0-1-.54,1.33,1.33,0,0,0-1,.61,1.61,1.61,0,0,0-.18,1.25,4.13,4.13,0,0,0,.22.62,2,2,0,0,0,.32.52,1,1,0,0,0,.77.35,1.07,1.07,0,0,0,.89-.53,2.08,2.08,0,0,0,.21-.59,5.38,5.38,0,0,0,.12-.7c0-.17,0-.34.05-.52a1.51,1.51,0,0,0,0-.6,1,1,0,0,0-.73-.69,1.39,1.39,0,0,0-.89.14,2.19,2.19,0,0,0-.86.64,1.42,1.42,0,0,0-.28,1.25,1.56,1.56,0,0,0,1.83,1,1.45,1.45,0,0,0,1-1.8,1.6,1.6,0,0,0-.51-.83,1.49,1.49,0,0,0-.58-.31,1.51,1.51,0,0,0-.7,0,1.24,1.24,0,0,0-.5.21,1.75,1.75,0,0,0-.54.51,1.41,1.41,0,0,0-.24,1.18.89.89,0,0,0,.48.63.69.69,0,0,0,.49.05.65.65,0,0,0,.41-.31l.09-.17a1.61,1.61,0,0,0,.08-.38l0,.2a2,2,0,0,1,.1-.35l-.08.19a1.43,1.43,0,0,1,.15-.27l-.13.17a1.7,1.7,0,0,1,.19-.19l-.18.14a1.08,1.08,0,0,1,.18-.11l-.21.09.18,0-.21,0a.54.54,0,0,1,.18,0l-.21,0,.16,0-.19-.08.16.09-.16-.12.15.15-.13-.17a1.71,1.71,0,0,1,.13.23l-.08-.19a.9.9,0,0,1,.06.22l0-.19a1.41,1.41,0,0,1,0,.2l0-.19a.55.55,0,0,1,0,.17l.08-.18-.06.1.13-.16a.63.63,0,0,1-.12.11l.17-.13-.12.07.2-.08-.15,0,.2,0a.54.54,0,0,1-.18,0l.2,0a.79.79,0,0,1-.22-.06l.18.07a.81.81,0,0,1-.18-.1l.17.12a.8.8,0,0,1-.17-.15l.13.16a.69.69,0,0,1-.1-.17l.08.2a.83.83,0,0,1,0-.15l0,.2a.65.65,0,0,1,0-.14l0,.19a1.09,1.09,0,0,1,0-.17l-.07.18a.87.87,0,0,1,.11-.18l-.13.16a1.45,1.45,0,0,1,.22-.21l-.16.12a2.33,2.33,0,0,1,.41-.24l-.19.08.15,0-.19,0h.09l-.19,0h.06l-.18-.07.06,0-.16-.11a.2.2,0,0,1,.07.06l-.12-.16a.17.17,0,0,1,0,.05l-.07-.18,0,.12,0-.19a2.69,2.69,0,0,1-.06.63l0-.19c0,.2-.07.4-.11.59a3.18,3.18,0,0,1-.14.53l.08-.18,0,.07.12-.16a.34.34,0,0,1-.06.06l.16-.12,0,0,.19-.08,0,0,.19,0h0l.19,0h0l.18.07-.08,0,.15.11a.8.8,0,0,1-.13-.13l.12.15a2.82,2.82,0,0,1-.37-.63l.07.17a1.39,1.39,0,0,1-.09-.35l0,.17a1.13,1.13,0,0,1,0-.26l0,.17,0-.13s0,0,0,0,0,.07,0,0l0-.06s.07,0,0,0,0,0,0,0l.11-.1-.13.1.09-.06c.1-.06-.13,0,0,0s0,0-.07,0h0l.05,0s-.13-.08,0,0-.08-.08,0,0l0,0s0-.09,0-.05a.11.11,0,0,0,0,.06c0,.06,0,0,0,0l0,0s0,.1,0,0v.07s0,.08,0,0,0,0,0,0,0,0,0,.05,0,0,0,0a.74.74,0,0,0-.08.13l0,.05h0l-.11.11-.24.19a.44.44,0,0,0,0,.63.46.46,0,0,0,.63,0Z"/><path class="cls-1" d="M63.58,101.75a1.46,1.46,0,0,0-.76-1.7,1.35,1.35,0,0,0-1-.08,1.65,1.65,0,0,0-.84.67,1.58,1.58,0,0,0-.25.92,1.56,1.56,0,0,0,.46,1,1.76,1.76,0,0,0,2.05.3,1.93,1.93,0,0,0,1-1.74,1.81,1.81,0,0,0-.44-1.13,1.32,1.32,0,0,0-1.27-.39,1.74,1.74,0,0,0-1.22,1.7,1.62,1.62,0,0,0,.41,1.05,1.38,1.38,0,0,0,1,.43,1.55,1.55,0,0,0,1.55-1.43,1.33,1.33,0,0,0-.16-.65,1.19,1.19,0,0,0-.21-.29.43.43,0,0,0-.12-.11,2.13,2.13,0,0,0-.95-.44,1.91,1.91,0,0,0-.53,0,.88.88,0,0,0-.42.11.92.92,0,0,0-.31.31.81.81,0,0,0,0,.8,1.82,1.82,0,0,0,.54.53,1.2,1.2,0,0,0,.67.17.66.66,0,0,0,.59-.39.63.63,0,0,0-.13-.68l-.09-.1.11.14-.19-.26.12.15a.71.71,0,0,1-.13-.22l.08.19a.75.75,0,0,1,0-.16l-1,1a2.08,2.08,0,0,0,.36.06l-.21,0a2.31,2.31,0,0,1,.52.12l-.19-.08a1.71,1.71,0,0,1,.23.13l-.17-.13a.86.86,0,0,1,.14.13l-.14-.17a1.4,1.4,0,0,1,.1.16l-.08-.2,0,.13,0-.21a.53.53,0,0,1,0,.13l0-.21a.27.27,0,0,1,0,.12l.08-.2a.44.44,0,0,1-.08.15l.13-.17a.8.8,0,0,1-.13.13l.17-.13a1.18,1.18,0,0,1-.19.11l.21-.09-.25.1.21-.08-.19,0,.2,0a.48.48,0,0,1-.17,0l.21,0a.8.8,0,0,1-.15,0l.19.07-.12-.06.17.12a.71.71,0,0,1-.15-.15l.12.16a1,1,0,0,1-.1-.17l.08.19a1,1,0,0,1-.06-.23l0,.2a1.41,1.41,0,0,1,0-.29l0,.19a1.21,1.21,0,0,1,.08-.25l-.08.18a1,1,0,0,1,.13-.23l-.12.15a1,1,0,0,1,.18-.17l-.16.12.14-.08-.18.08.11,0-.18,0h.1l-.18,0,.13,0-.17-.06a.5.5,0,0,1,.14.08l-.15-.12a1.21,1.21,0,0,1,.16.16l-.11-.15a1.59,1.59,0,0,1,.13.22l-.08-.17a.89.89,0,0,1,.07.28l0-.19a1.41,1.41,0,0,1,0,.29l0-.19a1,1,0,0,1-.08.3l.07-.17a1.43,1.43,0,0,1-.15.27l.12-.16a1.26,1.26,0,0,1-.2.2l.16-.12a1.19,1.19,0,0,1-.22.12l.19-.08a.9.9,0,0,1-.27.07l.2,0a.82.82,0,0,1-.27,0l.19,0a1.09,1.09,0,0,1-.31-.08l.17.07a.76.76,0,0,1-.23-.13l.15.11a.73.73,0,0,1-.18-.17l.12.15a.74.74,0,0,1-.13-.21l.07.17a1.6,1.6,0,0,1-.05-.21l0,.18a1.55,1.55,0,0,1,0-.22l0,.17a1.25,1.25,0,0,1,.07-.26l-.06.16a.88.88,0,0,1,.12-.21l-.11.13a1.37,1.37,0,0,1,.17-.17l-.14.11.17-.1-.16.07a.59.59,0,0,1,.19,0l-.17,0h.18l-.16,0,.19,0-.14-.06a1.18,1.18,0,0,1,.19.11l-.12-.09a.93.93,0,0,1,.14.14l-.1-.12a1.2,1.2,0,0,1,.13.21l-.06-.14a.8.8,0,0,1,0,.21v-.15a1,1,0,0,1,0,.17l0-.16a1.09,1.09,0,0,1,0,.17.57.57,0,0,0,0,.46.62.62,0,0,0,.37.27.65.65,0,0,0,.77-.43Z"/><path class="cls-1" d="M79.68,101.71a1,1,0,0,0,.66-1.25A1.13,1.13,0,0,0,79,99.77,1.7,1.7,0,0,0,77.79,101a2,2,0,0,0,0,1.52,1.2,1.2,0,0,0,.76.65,1.4,1.4,0,0,0,.61,0,1.45,1.45,0,0,0,.57-.31l-.15.11a1.61,1.61,0,0,0,.7-1.09,3.13,3.13,0,0,0-.11-1.22,1.05,1.05,0,0,0-.37-.61.88.88,0,0,0-1,0,2,2,0,0,0-.77,1.06,2.36,2.36,0,0,0-.07,1.29.67.67,0,0,0,.28.4.82.82,0,0,0,.45.16,1.52,1.52,0,0,0,1.09-.41,1.44,1.44,0,0,0,.5-1,1.34,1.34,0,0,0-.22-.91,1,1,0,0,0-1.1-.5.55.55,0,0,0-.4.66.24.24,0,0,0,0,.08.88.88,0,0,0,.19.32l-.1-.13a1.28,1.28,0,0,1,.16.28l-.07-.17a1.4,1.4,0,0,1,.09.29l0-.18a.6.6,0,0,1,0,.19l0-.19a.6.6,0,0,1-.06.19l.08-.17-.09.14.12-.15a.77.77,0,0,1-.18.18l.17-.13a.82.82,0,0,1-.2.12l.19-.09a.86.86,0,0,1-.21.07l.2,0h-.15l.74.56c0-.11,0-.21-.07-.32l0,.2a2,2,0,0,1,0-.42l0,.19a1.62,1.62,0,0,1,.12-.43l-.07.17a1.87,1.87,0,0,1,.22-.39l-.11.14a.3.3,0,0,1,.08-.08l-.14.11,0,0-.17.07h.06l-.18,0h0l-.17,0h0l-.16-.06,0,0-.14-.1.06,0-.11-.14a.31.31,0,0,1,.05.1l-.06-.16a3.62,3.62,0,0,1,.12.59l0-.17a2.26,2.26,0,0,1,0,.45l0-.17a1.55,1.55,0,0,1-.07.23l.07-.16a.82.82,0,0,1-.12.2l.11-.14a.93.93,0,0,1-.14.14l.15-.11-.15.08.17-.07-.18,0,.18,0h-.13l.18,0-.16,0,.17.06-.12-.07.14.11a.47.47,0,0,1-.1-.1l.11.15a.92.92,0,0,1-.13-.24l.07.17a1.09,1.09,0,0,1-.07-.3v.17a2.75,2.75,0,0,1,0-.5l0,.15a2.49,2.49,0,0,1,.09-.37c0-.1-.06.12,0,0a.16.16,0,0,0,0-.07.35.35,0,0,0,.05-.08c0-.06-.09.1,0,0l.06-.06s.1,0,0,0l.08,0,0,0-.07,0s.05,0,.08,0,.11,0,0,0h0c.11,0-.06,0,0,0l.07,0,0,0,0,0h0s0,0,0,0,0,0,0,0l0,0s0-.15,0,0,0,0,0,.06,0-.15,0-.05v.06c0,.09,0-.12,0,0a.14.14,0,0,1,0,.06c0-.12,0-.1,0,0s0,0,0,0h0l.06,0,0,0s.15,0,0,0a.53.53,0,0,0-.39.64.51.51,0,0,0,.64.36Z"/><path class="cls-1" d="M82.57,101.42a.62.62,0,0,0-.3-1,.8.8,0,0,0-.91.48c-.07.15-.13.31-.19.47l-.09.22s0,.07,0,.09,0,0,0,0a1.19,1.19,0,0,0-.13.74.9.9,0,0,0,.44.57,1.47,1.47,0,0,0,1.7-.46,2.33,2.33,0,0,0,.55-1.43,1,1,0,0,0,0-.17,1,1,0,0,0,0-.17c0,.17,0,.07,0,0a2.29,2.29,0,0,0-.09-.44,1.87,1.87,0,0,0-.33-.68.58.58,0,0,0-.35-.26.62.62,0,0,0-.44.06,2.58,2.58,0,0,0-1.2,1.69,1.45,1.45,0,0,0,.31,1.37,1.51,1.51,0,0,0,1.33.29,2.11,2.11,0,0,0,1.69-1.38,1.59,1.59,0,0,0-.72-1.89,1.43,1.43,0,0,0-1.13-.07A1.19,1.19,0,0,0,82,100a.88.88,0,0,0,0,.82.53.53,0,0,0,.75.19,1.67,1.67,0,0,0,.24-.16s-.16.11-.07.06a1.24,1.24,0,0,0,.18-.14l.06-.06c-.12.13-.13.09-.06,0s.11,0,0,0h0l.08,0c.11,0-.17,0-.06,0h.07c.13,0-.07,0-.06,0l.08,0c-.14,0-.12-.06-.05,0h0c-.1-.08,0,0,0,0s0,0,0,0a.22.22,0,0,1,0,.08c0,.09,0-.14,0-.06s0,.06,0,.09,0,.06,0,.08c-.05-.14,0-.12,0,0v.1c0,.11,0-.14,0-.06l-.05.17c0,.11.08-.15,0,0a.3.3,0,0,0,0,.08c-.07.1,0,0,0,0s-.05.06-.07.08a1.07,1.07,0,0,1-.16.14l.16-.12a2.76,2.76,0,0,1-.44.25l.19-.08a2.72,2.72,0,0,1-.49.13l.19,0h-.14c-.07,0-.15,0,0,0l-.1,0,.08,0,0,0,.15.11a.47.47,0,0,1-.1-.1l.11.15,0-.1.07.18a.5.5,0,0,1,0-.13c0-.16,0,.14,0,0v-.23a.17.17,0,0,0,0-.07v.09s0-.09,0-.13,0-.15.07-.23-.06.13,0,0a.47.47,0,0,1,.05-.1,1.64,1.64,0,0,1,.14-.22c.06-.1-.09.1,0,0l.08-.09a1.54,1.54,0,0,1,.19-.17h-.82l.07.07c.09.08,0-.09,0,0l.11.19c0,.11,0-.11,0,0l0,.09s0,.06,0,.1,0-.06,0-.06a.43.43,0,0,0,0,0,1.34,1.34,0,0,1,0,.2c0,.09,0-.06,0-.06a.13.13,0,0,1,0,.06.52.52,0,0,1,0,.11l-.06.19,0,0c0,.07.06-.13,0-.07l0,.1-.1.17c-.08.1.09-.11,0,0l-.07.08-.15.13s0,0,0,0l.09-.07-.09.06-.09,0,0,0s.16-.07.11,0l-.13,0c.12,0,0,0,0,0h-.06c-.09,0,.08,0,.08,0H81.8s.17,0,.08,0,.13.07.05,0a.35.35,0,0,1,.19.29s0-.07,0,0,0,0,0,0c.05-.24.11-.48.16-.72,0,0,0-.09,0-.13s0,0,0,0,.09-.1,0,0a.33.33,0,0,1-.35.1.33.33,0,0,1-.07-.54.48.48,0,0,0,0,.67.5.5,0,0,0,.68,0Z"/><path class="cls-1" d="M85.59,100.81a1.83,1.83,0,0,0-.78,1.27,1.25,1.25,0,0,0,.91,1.21,1.42,1.42,0,0,0,1.46-.35,1.9,1.9,0,0,0,.54-1.37,2.61,2.61,0,0,0-.16-.84l-.12-.3,0-.08,0,0h0v0l0-.06-.09-.21a1.67,1.67,0,0,1-.08-.2.59.59,0,0,0-.32-.26.64.64,0,0,0-.41,0,1.73,1.73,0,0,0-1.15,1.21,1.41,1.41,0,0,0,.69,1.58,1.5,1.5,0,0,0,1.7-.23,1.22,1.22,0,0,0,.38-.9,1.41,1.41,0,0,0-.38-.91,1.16,1.16,0,0,0-1-.41.91.91,0,0,0-.7.41.68.68,0,0,0,.09.83L86,101a.71.71,0,0,0,.42.32,2.24,2.24,0,0,1,.24,0c.06,0-.22,0-.08,0l.09,0-.18-.07a2.18,2.18,0,0,0,.23.09l-.18-.07a.51.51,0,0,1,.16.09l-.16-.12a1.36,1.36,0,0,1,.12.12l-.12-.16a.83.83,0,0,1,.09.16l-.07-.18a.83.83,0,0,1,0,.15l0-.19v.13l0-.19a.56.56,0,0,1,0,.12l.08-.18a.2.2,0,0,1-.06.09l.13-.15-.11.11.16-.13-.13.07.19-.08a.48.48,0,0,1-.17,0l.2,0a.54.54,0,0,1-.18,0l.19,0a1.22,1.22,0,0,1-.26-.06l.18.07a.81.81,0,0,1-.18-.1l.15.12-.11-.11.12.15a1,1,0,0,1-.1-.17l.08.18a1.21,1.21,0,0,1,0-.18l0,.18V101s0-.12,0,0,0,0,0,0,0-.07,0-.11-.07.13,0,.07l0-.06,0-.06,0,.07s.07-.08.08-.1a.1.1,0,0,0,0,0c.08-.07-.11.07-.06,0s.21-.1,0,0l-.72-.29s.16.29.15.3,0-.1,0,0l0,.06s0,.09,0,.14.06.22.08.33v0c0,.07,0,.05,0,0a.86.86,0,0,0,0,.16c0,.05,0,.09,0,.14s0-.16,0,0,0,.18-.07.27c0-.12.06-.14,0-.08l0,0-.06.12c-.07.1.13-.15,0,0l-.09.09.15-.12a.71.71,0,0,1-.22.13l.18-.07-.1,0-.06,0,.13,0L86,102h0s.17,0,.09,0L86,102s.15.08.08,0l0,0,0,0s.13.11.07,0a.08.08,0,0,0,0,0c-.07-.07.08.12,0,.06l0,0s0,.13,0,.08a.19.19,0,0,0,0-.07c0-.06,0,.12,0,.05v-.07c0-.06,0,.11,0,0s0,0,0-.07,0-.09,0,0,0,0,0,0l0-.07a.83.83,0,0,0,.08-.12c0-.07-.06.08,0,0l0-.06.11-.13a.52.52,0,0,0,0-.74.55.55,0,0,0-.75,0Z"/><path class="cls-1" d="M89.78,100.31a1.52,1.52,0,0,0-1,1,1.43,1.43,0,0,0,.39,1.43,1.61,1.61,0,0,0,1.5.34,1.52,1.52,0,0,0,.76-.51,1.7,1.7,0,0,0,.34-.86,1.68,1.68,0,0,0-.08-.74,2.53,2.53,0,0,0-.33-.73.79.79,0,0,0-.47-.35.81.81,0,0,0-.61.08,3.72,3.72,0,0,0-.86.82,1.58,1.58,0,0,0-.29,1.21,1.51,1.51,0,0,0,.72,1,1.27,1.27,0,0,0,1.47-.18,2,2,0,0,0,.34-.51,5.9,5.9,0,0,0,.25-.63,2.12,2.12,0,0,0,.06-1.22,1.68,1.68,0,0,0-.76-1,1.43,1.43,0,0,0-1.39,0,1.64,1.64,0,0,0-.75,1,2.64,2.64,0,0,0-.11.56,1.82,1.82,0,0,0,0,.57.81.81,0,0,0,.57.56.84.84,0,0,0,.58-.07l-.18.07h0a1,1,0,0,0,.44-.3,1,1,0,0,0,.19-.56,2.91,2.91,0,0,1,0-.31l0,.2a1.63,1.63,0,0,1,.11-.42l-.08.19a.72.72,0,0,1,.11-.19l-.13.17a.43.43,0,0,1,.11-.12l-.17.13.12-.07-.2.09.15,0-.21,0h.15l-.21,0,.14,0-.19-.08a.51.51,0,0,1,.16.09l-.17-.12a.75.75,0,0,1,.16.15l-.13-.17a1.23,1.23,0,0,1,.14.25l-.08-.2a1.41,1.41,0,0,1,.06.22l0-.2a1.09,1.09,0,0,1,0,.31l0-.21a2.13,2.13,0,0,1-.15.49l.08-.19a2.31,2.31,0,0,1-.28.54l.14-.18a.6.6,0,0,1-.08.08l.18-.14a.21.21,0,0,1-.1.06l.21-.09-.09,0,.22,0a.17.17,0,0,1-.1,0l.21,0-.12,0,.2.07a.34.34,0,0,1-.12-.06l.17.13a1.06,1.06,0,0,1-.15-.15l.13.17a.7.7,0,0,1-.09-.17l.08.2a.75.75,0,0,1,0-.16l0,.21a.33.33,0,0,1,0-.14l0,.2a.83.83,0,0,1,.06-.21l-.08.19a1.17,1.17,0,0,1,.17-.28l-.13.17a3.55,3.55,0,0,1,.48-.47l-1.25-.14a2.06,2.06,0,0,1,.23.41l-.08-.19a1.32,1.32,0,0,1,.08.33l0-.2a1.82,1.82,0,0,1,0,.33l0-.2a1.52,1.52,0,0,1-.06.2l.08-.19a.81.81,0,0,1-.1.18l.13-.17a.81.81,0,0,1-.16.16l.17-.12-.14.07.2-.08a.66.66,0,0,1-.2.06l.2,0H90l.2,0a.83.83,0,0,1-.21-.06l.18.07a.51.51,0,0,1-.16-.09l.15.12a.8.8,0,0,1-.13-.13l.12.15a.86.86,0,0,1-.1-.16l.08.18a.76.76,0,0,1-.06-.2l0,.18a.74.74,0,0,1,0-.21l0,.17a2.41,2.41,0,0,1,.08-.25l-.07.16a1.09,1.09,0,0,1,.08-.15c0-.05-.13.13,0,0s0,0,.07-.06l-.14.11a.65.65,0,0,1,.16-.09.63.63,0,0,0,.3-.38.58.58,0,0,0,0-.39.61.61,0,0,0-.73-.36Z"/><path class="cls-1" d="M99.32,102.07a.83.83,0,0,0,.91-.4,1,1,0,0,0,0-.88,1.19,1.19,0,0,0-.53-.51,2.13,2.13,0,0,0-.35-.14.64.64,0,0,0-.6.1,1.35,1.35,0,0,0-.49.64,1.17,1.17,0,0,0-.09.52,1.81,1.81,0,0,0,.48,1.17,1.84,1.84,0,0,0,2.61-.1,1.68,1.68,0,0,0,.42-1.53,1.76,1.76,0,0,0-.83-1.14,1.14,1.14,0,0,0-.4-.15,1.62,1.62,0,0,0-.62,0,1.65,1.65,0,0,0-.79.4,1.78,1.78,0,0,0-.49.75,1.34,1.34,0,0,0-.06.44,1.07,1.07,0,0,0,.07.44l.08.2a.56.56,0,0,0,.22.24.81.81,0,0,0,.48.16c.22,0,.44,0,.66,0h.32a1.55,1.55,0,0,0,.47-.12.7.7,0,0,0,.5-.56.53.53,0,0,0,0-.33.55.55,0,0,0-.28-.32,1.68,1.68,0,0,0-.42-.17,2.92,2.92,0,0,0-.5,0c-.22,0-.45,0-.67,0l.7.39v0l.08.2a.94.94,0,0,1,0-.16l0,.2a1.09,1.09,0,0,1,0-.18l0,.2a.61.61,0,0,1,0-.18l-.08.19a.72.72,0,0,1,.12-.21l-.13.17a1,1,0,0,1,.17-.18l-.17.13.19-.1-.2.08a.53.53,0,0,1,.17,0l-.21,0h.17l-.2,0a.58.58,0,0,1,.19,0l-.18-.07.19.1-.16-.11a.66.66,0,0,1,.19.18l-.12-.16a1.35,1.35,0,0,1,.15.26l-.07-.18a1.29,1.29,0,0,1,0,.21l0-.19a1.93,1.93,0,0,1,0,.24l0-.18a.83.83,0,0,1-.06.21l.07-.18a.82.82,0,0,1-.12.2l.13-.16a1.89,1.89,0,0,1-.2.2l.16-.13a1.57,1.57,0,0,1-.31.18l.19-.08a1,1,0,0,1-.3.08l.2,0a.94.94,0,0,1-.29,0l.19,0-.22,0,.18.07a1.13,1.13,0,0,1-.21-.12l.15.11a1.48,1.48,0,0,1-.25-.25l.11.15a1.56,1.56,0,0,1-.16-.28l.07.17a.89.89,0,0,1-.07-.28l0,.17a.67.67,0,0,1,0-.2l0,.16a1,1,0,0,1,0-.16l-.06.15a.91.91,0,0,1,.07-.14l-.1.13.12-.11-.6.16.24.06h.05c.06,0-.12,0-.06,0l.11.06-.12-.09a.28.28,0,0,1,.09.1l-.09-.12a.35.35,0,0,1,0,.08l0-.14a.28.28,0,0,1,0,.09v-.15s0,.1,0,0,0,0,0,0,0-.07,0-.07,0,0,0,0l.1-.12-.06.06.12-.1,0,0,.15-.06h0l.16,0h-.06l.15,0h0a.62.62,0,0,0-.74.42.58.58,0,0,0,.41.71Z"/><path class="cls-1" d="M126.37,101.27a2.65,2.65,0,0,0,.69-.56l.12-.14a.6.6,0,0,0,.16-.39,1.24,1.24,0,0,0,0-.18.79.79,0,0,0-.24-.4,1,1,0,0,0-.77-.25,1.21,1.21,0,0,0-1.11,1.51,1.57,1.57,0,0,0,.1.28l.08.15a1.56,1.56,0,0,0,.32.36,1.71,1.71,0,0,0,.58.31,1.5,1.5,0,0,0,.56,0,1.41,1.41,0,0,0,.94-.57,1.66,1.66,0,0,0,.35-.93,1.71,1.71,0,0,0,0-.45c0-.1-.07-.19-.11-.29a.83.83,0,0,0-.07-.13A1.49,1.49,0,0,0,127,99a1.83,1.83,0,0,0-.93,0,1.72,1.72,0,0,0-.44.19,1.6,1.6,0,0,0-.37.31,1.75,1.75,0,0,0-.33.58,1.85,1.85,0,0,0-.08.47,1.81,1.81,0,0,0,.25.94,1.66,1.66,0,0,0,.31.38,1.94,1.94,0,0,0,.62.36,1.17,1.17,0,0,0,.74,0,1.36,1.36,0,0,0,.56-.35,1.47,1.47,0,0,0,.39-1,1.52,1.52,0,0,0-.43-1,1.83,1.83,0,0,0-.42-.31,1.18,1.18,0,0,0-.48-.19,1.86,1.86,0,0,0-.33,0,.8.8,0,0,0-.57.26.62.62,0,0,0-.17.28.58.58,0,0,0,0,.32,1,1,0,0,0,.08.22.77.77,0,0,0,.33.29l.39.16-.18-.07a1.59,1.59,0,0,1,.29.15l-.15-.11a1.07,1.07,0,0,1,.19.18l-.12-.15a.51.51,0,0,1,.09.16l-.07-.18a.83.83,0,0,1,0,.15l0-.19a1.28,1.28,0,0,1,0,.19l0-.2a1.21,1.21,0,0,1,0,.18l.08-.18a.57.57,0,0,1-.08.13l.12-.16-.09.1.17-.13-.1.06.2-.08-.12,0,.21,0h-.12l.21,0a1.41,1.41,0,0,1-.22-.06l.2.08-.2-.11.17.12a1.29,1.29,0,0,1-.17-.16l.13.17a1.3,1.3,0,0,1-.14-.26l.08.2a1.57,1.57,0,0,1-.08-.29l0,.2a1,1,0,0,1,0-.25l0,.2a.83.83,0,0,1,.06-.21l-.08.19a1,1,0,0,1,.1-.17l-.12.16a.67.67,0,0,1,.14-.15l-.16.13a.76.76,0,0,1,.19-.12l-.18.08a.86.86,0,0,1,.23-.06l-.19,0a.89.89,0,0,1,.23,0l-.19,0a.65.65,0,0,1,.2,0l-.17-.07.18.09-.16-.11a.67.67,0,0,1,.15.14l-.12-.15a1,1,0,0,1,.1.17l-.08-.18a.83.83,0,0,1,.06.21l0-.19a.89.89,0,0,1,0,.23l0-.19a2,2,0,0,1-.07.23l.08-.18a.78.78,0,0,1-.11.18l.12-.15a.86.86,0,0,1-.14.13l.17-.12-.14.08.19-.08-.19.05.2,0h-.17l.19,0-.23,0,.18.07a1.13,1.13,0,0,1-.21-.12l.16.11a.65.65,0,0,1-.17-.16l.11.15a.56.56,0,0,1-.09-.17l.07.17a.48.48,0,0,1,0-.17l0,.18v-.15l0,.17a.36.36,0,0,1,0-.1l-.06.16a.67.67,0,0,1,.06-.12l-.1.14a.57.57,0,0,1,.11-.11l-.14.1a1.4,1.4,0,0,1,.17-.09l-.15.06.15,0-.16,0h.13l-.15,0,.08,0-.13,0,.06,0-.11-.08.05,0-.09-.11a.25.25,0,0,1,0,.07l0-.13h0v-.24l0-.13a1.23,1.23,0,0,1-.14.25l.08-.1a1.27,1.27,0,0,1-.27.25l.11-.08-.21.14a.49.49,0,0,0-.19.67.51.51,0,0,0,.67.17Z"/><path class="cls-1" d="M137.6,101.1a.93.93,0,0,0,.7-.77,1,1,0,0,0,0-.53.89.89,0,0,0-.44-.53.74.74,0,0,0-.36-.06.61.61,0,0,0-.34.17,1.34,1.34,0,0,0-.45.67,1.68,1.68,0,0,0,.48,1.57,1.36,1.36,0,0,0,.34.25,1.56,1.56,0,0,0,.58.15,1.13,1.13,0,0,0,.45,0,1.43,1.43,0,0,0,.42-.19,1.78,1.78,0,0,0,.78-1.53,1.71,1.71,0,0,0-.15-.59,1.45,1.45,0,0,0-.25-.36l-.1-.09a2.2,2.2,0,0,0-.25-.17,1.72,1.72,0,0,0-.4-.14,1.88,1.88,0,0,0-.85.06,1.79,1.79,0,0,0-.76.45,1.66,1.66,0,0,0-.25.34,1.69,1.69,0,0,0-.17.58,1.42,1.42,0,0,0,.26.94,2,2,0,0,0,.22.27,1.86,1.86,0,0,0,.28.21l.13.08a2.13,2.13,0,0,0,.33.11,1.61,1.61,0,0,0,.69,0,1.44,1.44,0,0,0,.58-.32,1.27,1.27,0,0,0,.3-.35,1.59,1.59,0,0,0,.19-.42,1.8,1.8,0,0,0,.05-.46,1.5,1.5,0,0,0-.16-.62,1.65,1.65,0,0,0-.19-.27.9.9,0,0,0-.18-.15,1.11,1.11,0,0,0-.49-.23,1.59,1.59,0,0,0-1.09.16l-.19.13a.9.9,0,0,0-.18.16,1,1,0,0,0-.31.93.82.82,0,0,0,.43.56.66.66,0,0,0,.65,0l.28-.21L138,101a1,1,0,0,0,.31-.31l0,0,.05-.07-.13.16a.58.58,0,0,1,.14-.13l-.18.13a.56.56,0,0,1,.17-.09l-.2.08.17,0-.21,0a.54.54,0,0,1,.18,0l-.2,0,.14,0-.2-.07a.67.67,0,0,1,.12.06l-.17-.12.1.09-.13-.16.08.13-.08-.2a1.16,1.16,0,0,1,0,.18l0-.2a1.28,1.28,0,0,1,0,.19l0-.2a.83.83,0,0,1-.06.21l.08-.18a.83.83,0,0,1-.09.16l.12-.16a.8.8,0,0,1-.13.13l.17-.13a1.19,1.19,0,0,1-.15.09l.2-.08a.8.8,0,0,1-.15,0l.2,0H138l.19,0a.59.59,0,0,1-.19,0l.18.07a.56.56,0,0,1-.2-.11l.15.12a1.53,1.53,0,0,1-.18-.18l.13.16a.82.82,0,0,1-.12-.2l.07.18a1.42,1.42,0,0,1-.05-.22l0,.19a.48.48,0,0,1,0-.17l0,.19a.84.84,0,0,1,.05-.17l-.07.17a1,1,0,0,1,.1-.18l-.11.15a1.21,1.21,0,0,1,.16-.16l-.15.12a1,1,0,0,1,.22-.13l-.17.07a.79.79,0,0,1,.22-.06l-.18,0h.24l-.18,0a.46.46,0,0,1,.2,0l-.17-.07a.56.56,0,0,1,.17.09l-.15-.11a.8.8,0,0,1,.13.13l-.12-.15a.42.42,0,0,1,.1.17l-.07-.17a1.05,1.05,0,0,1,.05.19l0-.19a.87.87,0,0,1,0,.23l0-.18a1.25,1.25,0,0,1-.07.26l.07-.18a1.16,1.16,0,0,1-.14.24l.12-.16a1,1,0,0,1-.17.18l.16-.13a1.2,1.2,0,0,1-.21.13l.18-.08-.19,0,.2,0a.6.6,0,0,1-.19,0l.19,0a.47.47,0,0,1-.17,0l.17.07a.72.72,0,0,1-.19-.11l.15.11a.91.91,0,0,1-.17-.17l.11.15a1.35,1.35,0,0,1-.15-.26l.07.16a.83.83,0,0,1-.07-.27l0,.17a1.29,1.29,0,0,1,0-.34l0,.16A1.09,1.09,0,0,1,138,100l-.06.15a.34.34,0,0,1,.06-.12l-.09.12h0l-.57.16h.06l-.13,0,.07,0-.11-.09.07.07-.09-.11.06.11-.05-.13a.58.58,0,0,1,0,.14v-.13a.22.22,0,0,1,0,.1l.05-.12a.41.41,0,0,1-.05.09l.08-.1-.06.06.11-.09-.08.05.13-.06-.07,0a.51.51,0,0,0-.37.61.5.5,0,0,0,.23.3.62.62,0,0,0,.38,0Z"/><path class="cls-1" d="M145.64,101c.51-.34,1-1,.69-1.6a.87.87,0,0,0-.86-.48,1.47,1.47,0,0,0-.91.47,2.71,2.71,0,0,0-.41.59,3.09,3.09,0,0,0-.25.66,1.59,1.59,0,0,0,0,.81,1.24,1.24,0,0,0,.62.73,1.71,1.71,0,0,0,1.16.07,2.27,2.27,0,0,0,.79-.36,2,2,0,0,0,.67-.72,1.72,1.72,0,0,0,.21-.89,1.61,1.61,0,0,0-.26-.87,1.4,1.4,0,0,0-.28-.32,1.31,1.31,0,0,0-.49-.27,1.6,1.6,0,0,0-1.49.27,1.44,1.44,0,0,0-.55.78,1.48,1.48,0,0,0,.14,1.11,1.64,1.64,0,0,0,1.87.79.85.85,0,0,0,.55-.48.76.76,0,0,0,0-.7,3.06,3.06,0,0,0-.65-.74,2.17,2.17,0,0,0-.62-.37,1,1,0,0,0-.65,0,.65.65,0,0,0-.45.74,1.19,1.19,0,0,0,.29.51l-.12-.16a2.37,2.37,0,0,0,.29.34,2.09,2.09,0,0,1,.2.22,4.09,4.09,0,0,1,.39.44l-.13-.17,0,0,.51-1.18a.48.48,0,0,1-.17,0l.21,0a.54.54,0,0,1-.18,0l.2,0-.19,0,.18.07a.94.94,0,0,1-.22-.12l.16.12a1.66,1.66,0,0,1-.19-.18l.12.16a1.59,1.59,0,0,1-.13-.22l.08.18a1.33,1.33,0,0,1,0-.19l0,.19a1.09,1.09,0,0,1,0-.18l0,.19a.66.66,0,0,1,0-.15l-.07.17a.56.56,0,0,1,.09-.17l-.11.15a.57.57,0,0,1,.16-.15l-.16.12a1.13,1.13,0,0,1,.21-.12l-.17.07a.84.84,0,0,1,.24-.06l-.19,0H146l-.18,0,.15,0-.16-.07a1,1,0,0,1,.17.1l-.14-.11a1,1,0,0,1,.14.15l-.11-.14a.51.51,0,0,1,.09.16l-.07-.17a1.05,1.05,0,0,1,.06.24l0-.18a1.6,1.6,0,0,1,0,.31l0-.18a1.11,1.11,0,0,1-.07.26l.07-.17a1.28,1.28,0,0,1-.15.25l.12-.15a1.79,1.79,0,0,1-.28.27l.16-.13a1.9,1.9,0,0,1-.39.23l.19-.08a2.9,2.9,0,0,1-.48.14l.19,0a1,1,0,0,1-.24,0l.19,0-.19,0,.17.06a.34.34,0,0,1-.12-.06l.15.11-.11-.1.12.14a.67.67,0,0,1-.09-.14l.07.17a.58.58,0,0,1,0-.19l0,.18a1.29,1.29,0,0,1,0-.34l0,.17a1.71,1.71,0,0,1,.13-.44l-.07.15a2.06,2.06,0,0,1,.23-.41l-.1.13a1.25,1.25,0,0,1,.23-.23l-.14.1.17-.1-.15.06.12,0-.16,0h0c-.11,0-.14,0-.08,0-.17-.06-.08,0,0,0l-.12-.09a.23.23,0,0,1,.07.07l-.09-.12,0,0-.06-.14,0,0c0,.06,0,0,0-.08,0,.13,0-.12,0,0l0,0,0-.07,0,.1,0,0c0,.05,0,0,0,0l-.08.09-.17.15.12-.1,0,0a.6.6,0,0,0-.27.34.59.59,0,0,0,.05.43.58.58,0,0,0,.78.19Z"/><path class="cls-2" d="M58.22.76l.05,4.57c0,.76,0,1.53,0,2.29a2.22,2.22,0,0,0,.57,1.82c.43.33,1.26.27,1.38-.39s.08-1.09.18-1.62c0-.19.23-.82.57-.73.16,0,.24.55.28.71.14.59.12,1.2.27,1.78a.65.65,0,0,0,1.19.14,3.72,3.72,0,0,0,0-2.63c-.25-.79-.75-1.51-1.66-1.5a2.18,2.18,0,0,0-1.78,1.09,8.07,8.07,0,0,0-.63,2.37L60,8.27c-.1-.1-.11-.09,0,0l0-.11c0-.1,0-.23,0-.33,0-.33,0-.66,0-1l0-2L59.8.74a.79.79,0,0,0-1.58,0Z"/><path class="cls-2" d="M64.15,7.43A9.44,9.44,0,0,0,64.25,9a5.78,5.78,0,0,0,.14.7,2.9,2.9,0,0,0,.36.78.73.73,0,0,0,.81.33.75.75,0,0,0,.55-.7c0-.32,0-.64-.1-1s-.08-.54-.11-.81l0,.21a9.15,9.15,0,0,1,0-1.17A.84.84,0,0,0,65,6.57a.92.92,0,0,0-.88.86Z"/><path class="cls-2" d="M65,3.47c0-.17-.11-.35-.15-.53l0,.13V3a.5.5,0,0,0-.06-.24.4.4,0,0,0-.24-.2.36.36,0,0,0-.25,0,.47.47,0,0,0-.29.14.58.58,0,0,0-.14.17L63.78,3a1.57,1.57,0,0,0-.12.3,1.63,1.63,0,0,0,0,.66,1.18,1.18,0,0,0,.91.9,1.34,1.34,0,0,0,.66,0,1.42,1.42,0,0,0,.57-.36,1.19,1.19,0,0,0,.3-.72.49.49,0,0,0,0-.17,1,1,0,0,0,0-.17A1.27,1.27,0,0,0,65.92,3a1.31,1.31,0,0,0-.3-.32,1.13,1.13,0,0,0-.38-.19,1,1,0,0,0-.24,0,1,1,0,0,0-.24,0,.6.6,0,0,0-.4.24.51.51,0,0,0-.12.2.39.39,0,0,0,0,.28.43.43,0,0,0,.41.27h0l-.12,0,.14,0h.16l-.14,0,.13,0-.12,0,.18.07-.13,0a.51.51,0,0,1,.16.09l-.11-.08a.54.54,0,0,1,.15.15l-.09-.12a1.19,1.19,0,0,1,.09.15L65,3.57a.53.53,0,0,1,0,.16V3.59a.66.66,0,0,1,0,.14l0-.14a.53.53,0,0,1,0,.12L65,3.58l-.07.14L65,3.6l-.12.12L65,3.63l-.18.1L65,3.67a.59.59,0,0,1-.19.05l.15,0h0a.42.42,0,0,1-.15,0l.13.06-.17-.07.13.05-.13-.07.12.08a.57.57,0,0,1-.14-.13l.09.11a1,1,0,0,1-.1-.17l0,.13a1.05,1.05,0,0,1-.06-.24l0,.14a.89.89,0,0,1,0-.23l0,.13a1.27,1.27,0,0,1,.06-.18l0,.12.07-.15-.86,0a1.42,1.42,0,0,1,.12.25l0-.11.11.29a.44.44,0,0,0,.21.27.4.4,0,0,0,.34,0A.46.46,0,0,0,65,3.47Z"/><path class="cls-2" d="M71.58,5a3.72,3.72,0,0,0-2-.63,2.07,2.07,0,0,0-2.07,1A1.1,1.1,0,0,0,68,6.74c.13.09.27.15.4.23l.18.13.09.06h0l.06,0a8.22,8.22,0,0,1,.74.71s.11.16,0,0c0,0,.12.21.09.15s0,.15,0,.06,0,.1,0,0-.07.08,0,0,0,0,0,0,0-.06,0,0l-.07.06s.14-.1,0,0a3.81,3.81,0,0,1-.45.23h0l-.17.06-.28.08a3.9,3.9,0,0,0-.57.13l.93.52c0-.35-.17-.74-.59-.79s-.66.29-.81.63a.73.73,0,0,0,0,.66.69.69,0,0,0,.5.44,1.94,1.94,0,0,0,.72,0l.49-.13a4.49,4.49,0,0,0,1-.47A2,2,0,0,0,71,8.71,1.44,1.44,0,0,0,71,7.46,5.8,5.8,0,0,0,69.58,6l-.36-.31-.16-.13L69,5.47a1.42,1.42,0,0,1,.11.18A.51.51,0,0,1,69,6c-.07.13-.07.1,0,0s-.13.08-.06.05S69,6,69,6s-.15,0-.06,0L69.23,6h0l.13,0h.5L70,6l.23,0,.13,0h0a4.31,4.31,0,0,1,.47.26.81.81,0,0,0,1.08-.31A.76.76,0,0,0,71.58,5Z"/><path class="cls-2" d="M74.05,2.61l.35,3.66c.06.63.12,1.25.19,1.87A4.64,4.64,0,0,0,75,10a.62.62,0,0,0,1.11-.16A4.24,4.24,0,0,0,76.24,8c0-.6-.09-1.19-.15-1.79L75.74,2.6a.84.84,0,0,0-.83-.82.87.87,0,0,0-.86.83Z"/><path class="cls-2" d="M73.58,6.86l2.85-.57a18.22,18.22,0,0,0,2.81-.76.64.64,0,0,0,.45-.66.58.58,0,0,0-.59-.51,17.51,17.51,0,0,0-3,.48c-1,.21-1.93.45-2.89.68a.71.71,0,0,0-.51.85.7.7,0,0,0,.85.49Z"/><path class="cls-2" d="M80.18,5.82a2.57,2.57,0,0,0-.46,2.87,2.91,2.91,0,0,0,2.41,1.62,1.89,1.89,0,0,0,1.59-.65,2.5,2.5,0,0,0,.55-1.46,3,3,0,0,0-1-2.42,2.8,2.8,0,0,0-1.4-.63,2.44,2.44,0,0,0-1.63.3.52.52,0,0,0,.38,1l.13,0H81a3.81,3.81,0,0,1,.48,0c.16,0-.07,0,0,0l.13,0,.21.06.1,0h0a1.3,1.3,0,0,1,.26.14l.09.05c.09,0-.11-.09,0,0l.15.14.08.07s.11.14,0,.06l0,0a.57.57,0,0,1,.08.13,2.12,2.12,0,0,1,.11.21s0,.11,0,0a.29.29,0,0,0,0,.1,1.89,1.89,0,0,1,.05.23l0,.13c0-.09,0-.06,0,0a1.92,1.92,0,0,1,0,.24c0,.11,0,0,0,0a.36.36,0,0,0,0,.1l-.06.23s0,.09,0,.13,0,0,0,0l-.06.09c0,.09,0,0,0,0s-.06.07-.07.08l0,0h0c0-.08,0,0,0,0l0,0,0,0s-.11,0-.11,0c-.15,0,.14,0,0,0a.57.57,0,0,0-.13,0h0s-.24-.05-.27-.05a2,2,0,0,0-.22-.08s.17.08.05,0l-.15-.07-.18-.11c-.15-.09.11.09,0,0l-.08-.07a1.29,1.29,0,0,1-.17-.16l-.07-.08,0,.07a.43.43,0,0,1,0-.07,2.53,2.53,0,0,1-.13-.22c-.07-.13,0,0,0,0s0-.11,0-.14-.05-.25-.06-.26,0,.18,0,.06V7.46s0-.08,0-.12,0,.16,0,0a2.76,2.76,0,0,1,.08-.27c0-.1-.07.14,0,0A.83.83,0,0,0,81.24,7l.06-.08,0,.06.07-.07a.8.8,0,0,0,0-1.13.84.84,0,0,0-1.15,0Z"/><path class="cls-2" d="M89.18,6.6a3.88,3.88,0,0,0-2.54-.83A1.87,1.87,0,0,0,84.72,7.2c-.16,1,.75,1.53,1.6,1.64a3.19,3.19,0,0,0,2.51-.75l-.6-.23a11.27,11.27,0,0,0,.33,2.88,6.62,6.62,0,0,1,.25,2.76c-.42,2-3.3,1.34-4.77,1.31a.51.51,0,0,0-.15,1,7.08,7.08,0,0,0,3.51.25,2.71,2.71,0,0,0,2.23-1.67,4.86,4.86,0,0,0-.06-2.75,9.62,9.62,0,0,1-.65-3.69.35.35,0,0,0-.51-.38,2.69,2.69,0,0,1-1.57.34c-.39,0-1.2-.18-1.1-.71s.88-.69,1.35-.7a2.8,2.8,0,0,1,1.71.6c.27.2.65-.28.38-.49Z"/><path class="cls-2" d="M91.64,9.61l-.1-.21-.06-.15c0,.05,0,0,0,0s-.11-.3-.16-.45-.09-.33-.13-.5a1.85,1.85,0,0,1,0-.23c0-.14,0,0,0-.12a2.94,2.94,0,0,1,0-.42c0-.06,0-.12,0-.19,0,.18,0,0,0,0s.07-.23.11-.35c-.06.17,0,0,0,0a1.62,1.62,0,0,1,.1-.18c.13-.2-.11.13.06-.09l.1-.13c-.06.08-.07.09,0,0l.12-.13c.15-.14-.09,0,0,0l.18-.11.07,0,.19-.06s.21,0,.1,0a5,5,0,0,1,1.7.21.44.44,0,0,0,.35-.8,4.68,4.68,0,0,0-2.09-.73,2.38,2.38,0,0,0-2.1,1,3.22,3.22,0,0,0-.48,2,8.75,8.75,0,0,0,.66,2.35.73.73,0,0,0,1,.48.76.76,0,0,0,.38-1.06Z"/><path class="cls-2" d="M97.92,6.92a2.22,2.22,0,0,0-1.39-1.4,1.68,1.68,0,0,0-1.81,1.12,3.56,3.56,0,0,0-.25,2.18,1.85,1.85,0,0,0,.51,1,1.09,1.09,0,0,0,1.45,0,3.36,3.36,0,0,0,.69-.94c.22-.38.47-.74.72-1.1l-1.43-.36a3.17,3.17,0,0,0,.75,1.95,2.87,2.87,0,0,0,.75.64,1.78,1.78,0,0,0,1,.29.72.72,0,0,0,.67-.5.7.7,0,0,0-.31-.75c.15.11,0,0,0,0L99,8.83l-.16-.09s-.21-.15,0,0l-.08-.06,0,0-.16-.14a1.84,1.84,0,0,1-.23-.25c-.13-.15.08.12,0,0l-.09-.13-.17-.33c-.07-.15,0,.15,0,0L98,7.57c0-.11,0-.23-.07-.35a.72.72,0,0,0-.63-.55.81.81,0,0,0-.78.38c-.17.32-.35.64-.53,1-.08.15-.17.3-.26.44s-.1.15-.14.23,0,.06,0,0l-.07.08c-.06,0-.06,0,0,0a.33.33,0,0,1,.13-.07.39.39,0,0,1,.32,0c.09.07.1.08,0,0s.08.1,0,0,0-.06,0,0A.85.85,0,0,0,96,8.62a4.48,4.48,0,0,1-.12-.46c0-.19,0,.14,0-.05a1.93,1.93,0,0,1,0-.24c0-.08,0-.16,0-.24s0,.11,0,0A2.64,2.64,0,0,1,96,7.12s.09-.18,0,0a2.12,2.12,0,0,1,.11-.21l.06-.09c0,.06,0,.06,0,0l0,0c-.07,0-.07,0,0,0s.07,0,0,0c.07,0,.07,0,0,0h.11s.16.06.07,0,.19.11.12.06l.15.14,0,.06s0,0,0,0,.17.26.25.39a.53.53,0,0,0,.71.18.54.54,0,0,0,.2-.7Z"/><path class="cls-2" d="M101.66,9.33a8.59,8.59,0,0,1,0-2.09c0-.18.08-1.18.35-1.21.1,0,.21.18.26.25a2.3,2.3,0,0,1,.26.72,7.11,7.11,0,0,1,.31,2.14c-.08.95,1.45.93,1.49,0A4.56,4.56,0,0,1,104.75,7,1.73,1.73,0,0,1,106.08,6a.93.93,0,0,1,1.07.69,10.72,10.72,0,0,1-.05,2,.69.69,0,0,0,1.29.32,3.77,3.77,0,0,0,.17-2.93,2.31,2.31,0,0,0-2.37-1.52c-2.3.15-3.13,2.57-3.37,4.51l1.47-.2c-.13-.47-.18-1-.3-1.46a10.45,10.45,0,0,0-.43-1.34,1.76,1.76,0,0,0-1.77-1.27c-.81.14-1.16.92-1.31,1.65a13.21,13.21,0,0,0-.24,3,.7.7,0,0,0,.8.69.73.73,0,0,0,.62-.89Z"/><path class="cls-2" d="M59.81,14.19c5.55.6,11.11,1.15,16.68,1.53.41,0,.53-.67.11-.73-5.58-.67-11.17-1.17-16.77-1.62-.54,0-.55.76,0,.82Z"/><path class="cls-2" d="M96.73,14.73c4.45-.28,8.9-.43,13.34-.71a.55.55,0,0,0,0-1.1c-4.45-.15-8.9,0-13.34.28-1,.06-1,1.59,0,1.53Z"/></svg>