<?xml version="1.0" encoding="utf-8"?>
<!-- Generator: Adobe Illustrator 26.0.2, SVG Export Plug-In . SVG Version: 6.00 Build 0)  -->
<svg version="1.1" id="Layer_1" xmlns="http://www.w3.org/2000/svg" xmlns:xlink="http://www.w3.org/1999/xlink" x="0px" y="0px"
	 viewBox="0 0 195.36 88.62" style="enable-background:new 0 0 195.36 88.62;" xml:space="preserve">
<style type="text/css">
	.st0{fill:#486AFB;}
	.st1{fill:#FD46FC;}
</style>
<g>
	<g>
		<path class="st0" d="M9.7,0.4c0.3,11.43,0.38,22.88,0.39,34.31c0.02,11.4-0.1,22.8-0.49,34.19c-0.11,3.2-0.22,6.4-0.32,9.61
			c-0.05,1.58-0.05,3.16-0.04,4.74c0.01,1.66-0.06,3.33-0.02,4.99c0.01,0.54,0.77,0.5,0.83-0.01c0.14-1.41,0.18-2.83,0.29-4.24
			c0.11-1.45,0.25-2.91,0.29-4.37c0.08-2.87,0.15-5.74,0.21-8.61c0.11-5.7,0.15-11.39,0.21-17.09c0.12-11.4,0.14-22.8-0.05-34.19
			c-0.11-6.45-0.29-12.89-0.48-19.34C10.52-0.14,9.69-0.12,9.7,0.4L9.7,0.4z"/>
	</g>
</g>
<g>
	<g>
		<path class="st0" d="M0.6,74.8c11.48,0.01,22.97,0.12,34.46,0.15c11.51,0.02,23.02,0.06,34.52-0.17
			c6.47-0.13,12.97-0.22,19.43-0.62c0.76-0.05,0.81-1.21,0.02-1.18c-5.77,0.2-11.54,0.51-17.31,0.65
			c-5.73,0.14-11.46,0.23-17.2,0.27C43.01,73.97,31.51,73.85,20,73.72c-6.46-0.07-12.92-0.08-19.38-0.17
			C-0.18,73.54-0.23,74.8,0.6,74.8L0.6,74.8z"/>
	</g>
</g>
<g>
	<g>
		<path class="st1" d="M35.28,59.79c-1.16,2.71-1.06,6.21,0.83,8.58c0.28,0.35,0.96-0.04,0.8-0.46c-0.5-1.24-0.91-2.52-0.98-3.86
			c-0.06-1.36,0.15-2.67,0.69-3.92c0.15-0.34-0.15-0.75-0.48-0.83C35.74,59.19,35.43,59.44,35.28,59.79L35.28,59.79z"/>
	</g>
</g>
<g>
	<g>
		<path class="st1" d="M61.16,68c0.01,0.03,0.03,0.06,0.04,0.08c0.03,0.06-0.01-0.03,0.01,0.01c0.02,0.05,0.04,0.11,0.05,0.16
			c0.01,0.05,0.02,0.1,0.03,0.15c0,0.01,0.01,0.09,0.01,0.04c0-0.05,0,0.04,0,0.05c0.01,0.11,0,0.23-0.01,0.34
			c0.01-0.05,0-0.02,0,0.01c-0.01,0.03-0.01,0.05-0.02,0.08c-0.01,0.06-0.03,0.11-0.05,0.17c-0.01,0.02-0.02,0.05-0.03,0.07
			c0,0.01-0.04,0.09-0.02,0.04c0.02-0.04-0.02,0.03-0.02,0.04c-0.01,0.03-0.03,0.06-0.04,0.08c-0.02,0.05-0.05,0.09-0.08,0.13
			c-0.02,0.03-0.04,0.05-0.05,0.08c0.03-0.04,0.01-0.02-0.01,0.01c-0.07,0.08-0.15,0.16-0.23,0.23c-0.04,0.03-0.08,0.07-0.12,0.1
			c-0.01,0.01-0.09,0.07-0.02,0.02c-0.03,0.02-0.05,0.04-0.08,0.05c-0.13,0.09-0.21,0.25-0.14,0.4c0.06,0.14,0.23,0.24,0.38,0.19
			c0.29-0.1,0.53-0.25,0.73-0.49c0.19-0.23,0.34-0.49,0.44-0.77c0.18-0.54,0.15-1.15-0.12-1.66c-0.09-0.17-0.35-0.23-0.51-0.13
			C61.13,67.61,61.06,67.82,61.16,68L61.16,68z"/>
	</g>
</g>
<g>
	<g>
		<path class="st1" d="M66.61,63.22c-0.31,0.36-0.62,0.73-0.93,1.09c-0.14,0.16-0.15,0.44,0.07,0.55c0.61,0.3,0.94,1.12,0.64,1.75
			c-0.14,0.29-0.4,0.51-0.7,0.63c-0.37,0.14-0.71,0.06-1.09,0.06c-0.28,0-0.51,0.4-0.26,0.61c0.43,0.35,1.05,0.3,1.54,0.1
			c0.51-0.2,0.95-0.57,1.17-1.08c0.43-0.98-0.01-2.16-0.93-2.67c0.02,0.18,0.05,0.37,0.07,0.55c0.33-0.35,0.65-0.7,0.98-1.05
			C67.5,63.38,66.93,62.84,66.61,63.22L66.61,63.22z"/>
	</g>
</g>
<g>
	<g>
		<path class="st1" d="M69.18,67.26c-0.06-0.58-0.03-1.16,0.06-1.74c0.04-0.27,0.1-0.53,0.18-0.79c0.04-0.13,0.11-0.36,0.28-0.36
			c0.15,0,0.28,0.17,0.35,0.29c0.11,0.2,0.13,0.39,0.12,0.61c-0.03,0.56-0.15,1.1,0.1,1.63c0.15,0.31,0.59,0.17,0.68-0.1
			c0.21-0.58,0.4-1.16,0.58-1.75c0.05-0.16,0.1-0.32,0.16-0.48c0.03-0.07,0.06-0.18,0.14-0.2c0.14-0.04,0.35,0.24,0.41,0.34
			c0.27,0.43,0.42,0.99,0.48,1.49c0.03,0.27,0.04,0.54,0.02,0.81c-0.02,0.3-0.11,0.58-0.05,0.87c0.06,0.34,0.54,0.35,0.7,0.08
			c0.18-0.31,0.16-0.72,0.15-1.07c-0.01-0.35-0.06-0.71-0.14-1.05c-0.13-0.61-0.36-1.37-0.85-1.8c-0.22-0.19-0.52-0.34-0.81-0.27
			c-0.34,0.08-0.49,0.36-0.6,0.66c-0.28,0.74-0.61,1.45-0.89,2.19c0.23-0.03,0.45-0.07,0.68-0.1c-0.26-0.58,0.06-1.25-0.14-1.85
			c-0.17-0.48-0.6-1-1.16-0.93c-0.68,0.08-0.84,0.83-0.97,1.38c-0.17,0.7-0.23,1.42-0.24,2.14C68.39,67.78,69.23,67.74,69.18,67.26
			L69.18,67.26z"/>
	</g>
</g>
<g>
	<g>
		<path class="st1" d="M77.28,65.25c0.13-0.62-0.44-1.1-1.04-1.05c-0.7,0.06-1.05,0.75-1.25,1.34c-0.12,0.38-0.24,0.76-0.35,1.14
			c-0.09,0.29-0.18,0.61-0.09,0.92c0.12,0.4,0.53,0.61,0.94,0.5c0.34-0.09,0.67-0.37,0.92-0.6c0.57-0.54,0.93-1.2,1.19-1.92
			c-0.25-0.06-0.5-0.12-0.74-0.19c-0.21,0.86-0.15,1.97,0.65,2.52c0.7,0.48,1.8,0.29,2.08-0.58c0.06-0.19-0.05-0.41-0.24-0.48
			c-0.21-0.08-0.4,0.01-0.52,0.18c0.04-0.05-0.12,0.1-0.03,0.03c-0.05,0.04-0.1,0.07-0.16,0.09c0.09-0.05-0.05,0.01-0.08,0.02
			c-0.02,0.01-0.05,0.01-0.07,0.01c0.05-0.01,0.04-0.01-0.01,0c-0.21,0.01-0.39-0.01-0.56-0.13c0.04,0.03-0.09-0.08-0.1-0.09
			c-0.05-0.05-0.04-0.05-0.08-0.1c-0.09-0.13-0.13-0.26-0.17-0.41c-0.06-0.29-0.03-0.59,0.03-0.87c0.11-0.49-0.59-0.65-0.74-0.19
			c-0.17,0.52-0.54,0.99-0.95,1.35c-0.08,0.07-0.17,0.14-0.26,0.2c-0.05,0.03-0.37,0.21-0.38,0.25c0-0.01,0.16,0.09,0.14,0.07
			c0.06,0.05,0,0.08,0.02,0.02c-0.01,0.04,0-0.11,0-0.13c0.01-0.07,0-0.02,0.02-0.08c0.08-0.35,0.18-0.69,0.27-1.04
			c0.07-0.25,0.12-0.52,0.24-0.76c0.09-0.17,0.2-0.32,0.37-0.3c0.05,0.01,0.13,0.04,0.16,0.06c0.05,0.04,0.02,0,0.05,0.05
			c-0.02-0.04-0.01,0.05,0,0C76.42,65.55,77.18,65.73,77.28,65.25L77.28,65.25z"/>
	</g>
</g>
<g>
	<g>
		<path class="st1" d="M80.14,64.08c-0.03,0.74,0.03,1.49,0.19,2.21c0.08,0.35,0.18,0.7,0.3,1.04c0.13,0.38,0.27,0.74,0.54,1.04
			c0.12,0.14,0.36,0.15,0.52,0.06c0.17-0.1,0.24-0.29,0.21-0.48c-0.05-0.33-0.2-0.64-0.3-0.96c-0.1-0.32-0.19-0.65-0.25-0.98
			c-0.13-0.64-0.19-1.29-0.17-1.95C81.19,63.41,80.17,63.43,80.14,64.08L80.14,64.08z"/>
	</g>
</g>
<g>
	<g>
		<path class="st1" d="M82.37,64.02c0.09,0.78,0.19,1.56,0.29,2.35c0.1,0.77,0.21,1.56,0.45,2.31c0.12,0.39,0.68,0.3,0.71-0.1
			c0.05-0.8-0.04-1.6-0.12-2.4c-0.09-0.81-0.18-1.63-0.29-2.44c-0.04-0.29-0.4-0.43-0.65-0.37C82.46,63.46,82.34,63.73,82.37,64.02
			L82.37,64.02z"/>
	</g>
</g>
<g>
	<g>
		<path class="st1" d="M85.14,61.8c0.98,1.24,2.11,2.63,2.27,4.27c0.13,1.33-0.45,2.52-1.61,3.18c-0.38,0.22-0.14,0.76,0.27,0.68
			c1.62-0.31,2.39-2.23,2.36-3.71c-0.05-2-1.39-3.65-2.59-5.12C85.45,60.61,84.75,61.31,85.14,61.8L85.14,61.8z"/>
	</g>
</g>
<g>
	<g>
		<path class="st0" d="M26.52,61.76c7.31-6.01,14.56-12.08,21.75-18.23c7.22-6.17,14.4-12.39,21.51-18.69
			c3.99-3.53,8.02-7.06,11.8-10.81c0.29-0.29-0.13-0.67-0.43-0.42c-3.65,3.01-7.16,6.19-10.7,9.34c-3.53,3.14-7.08,6.27-10.63,9.39
			c-7.13,6.28-14.33,12.47-21.58,18.6c-4.07,3.45-8.15,6.89-12.25,10.32C25.63,61.57,26.15,62.06,26.52,61.76L26.52,61.76z"/>
	</g>
</g>
<g>
	<g>
		<path class="st1" d="M77.64,17.58c0.07-0.46-0.22-0.89-0.59-1.12c-0.39-0.25-0.9-0.25-1.3-0.01c-0.75,0.45-1,1.53-0.5,2.25
			c0.45,0.65,1.36,1.01,2.12,0.72c0.8-0.31,1.15-1.17,0.99-1.98c-0.07-0.36-0.27-0.72-0.57-0.95c-0.35-0.27-0.77-0.36-1.2-0.28
			c-0.78,0.14-1.52,0.9-1.45,1.72c0.07,0.82,0.81,1.36,1.59,1.41c0.39,0.03,0.78-0.1,1.08-0.35c0.3-0.25,0.46-0.64,0.45-1.03
			c-0.02-0.77-0.65-1.58-1.49-1.35c-0.5,0.13-0.85,0.59-0.92,1.09c-0.07,0.5,0.24,1,0.69,1.22c0.43,0.21,0.93,0.18,1.32-0.11
			c0.32-0.25,0.51-0.64,0.54-1.04c0.03-0.42-0.15-0.83-0.49-1.07c-0.32-0.23-0.77-0.27-1.14-0.14c-0.4,0.14-0.73,0.42-0.89,0.82
			c-0.17,0.43-0.02,0.93,0.35,1.22c0.39,0.31,0.95,0.37,1.35,0.06c0.37-0.28,0.58-0.76,0.48-1.23c-0.22-0.98-1.71-1.12-2.14-0.23
			c-0.21,0.44-0.16,0.96,0.16,1.33c0.3,0.35,0.82,0.44,1.24,0.3c0.49-0.17,0.92-0.69,0.76-1.24c-0.16-0.54-0.83-0.65-1.27-0.41
			c-0.22,0.12-0.39,0.33-0.5,0.56c-0.06,0.12-0.11,0.24-0.15,0.37c-0.06,0.17-0.09,0.32,0.02,0.47c0.25,0.35,0.72,0.45,1.11,0.31
			c0.44-0.16,0.76-0.57,0.67-1.06c-0.08-0.42-0.49-0.75-0.9-0.8c-0.51-0.07-0.99,0.19-1.15,0.7c-0.16,0.48,0.07,1.08,0.61,1.19
			c0.23,0.05,0.49,0,0.69-0.13c0.23-0.15,0.34-0.37,0.37-0.63c0.02-0.2-0.18-0.38-0.38-0.37c-0.22,0.01-0.37,0.17-0.39,0.38
			c0-0.01,0.02-0.08,0-0.02c0,0,0.03-0.07,0.01-0.03c-0.03,0.04,0.06-0.05,0.02-0.02c-0.01,0.01-0.02,0.02-0.03,0.03
			c-0.05,0.06,0.02-0.02,0.03-0.02c0,0-0.05,0.03-0.04,0.03c-0.02,0.01-0.04,0.01,0,0c0.06-0.01-0.01,0-0.02,0.01
			c-0.01,0-0.05,0.01-0.05,0.01c0-0.01,0.08,0,0.04-0.01c-0.02,0-0.04,0-0.05,0c-0.05,0,0.04,0,0.04,0c0,0-0.04-0.01-0.05-0.01
			c-0.06-0.01,0.03,0,0.02,0.01c0,0-0.03-0.02-0.03-0.02c-0.04-0.02,0.07,0.05,0.01,0c-0.03-0.02-0.02-0.05,0.01,0.01
			c-0.01-0.01-0.02-0.02-0.02-0.04c-0.04-0.09,0,0.04-0.01-0.03c0-0.02-0.01-0.04-0.01-0.06c0,0.02,0,0.08,0,0.01
			c0-0.01,0-0.04,0-0.05c-0.01-0.03-0.02,0.05,0-0.01c0.01-0.02,0.04-0.11,0.02-0.07c-0.02,0.04,0.03-0.05,0.04-0.06
			c-0.04,0.08,0.01-0.03,0.04-0.03c0,0-0.07,0.04-0.03,0.02c0,0,0.06-0.04,0.06-0.03c0,0.01-0.1,0.03-0.02,0.01
			c0.01,0,0.03-0.01,0.04-0.01c0.09-0.03-0.05,0,0.02,0c0.04,0,0.07,0,0.11,0c-0.08,0-0.01,0,0.03,0.01c0.02,0,0.03,0.01,0.05,0.02
			c0,0-0.06-0.03-0.03-0.01c0.03,0.02,0.06,0.03,0.08,0.04c0.02,0.01,0.03,0.02,0.05,0.03c-0.01-0.01-0.06-0.06-0.02-0.01
			c0.01,0.01,0.08,0.07,0.07,0.07c0,0-0.05-0.09-0.02-0.02c0.01,0.01,0.01,0.02,0.02,0.03c0.05,0.07-0.01-0.05,0.01,0.01
			c0,0.02,0.01,0.03,0.01,0.05c0.01,0.03-0.01,0.05,0-0.02c0,0.01,0,0.03,0,0.04c0,0.07,0.02,0.01,0.01-0.01
			c0.01,0.02-0.05,0.1-0.01,0.05c0.04-0.05-0.02,0.02-0.02,0.04c-0.03,0.07,0.02-0.03,0.02-0.02c0,0-0.03,0.04-0.03,0.03
			c-0.01,0.01-0.02,0.02-0.03,0.02c-0.03,0.04,0.08-0.05,0.02-0.01c-0.03,0.02-0.06,0.03-0.09,0.05c-0.06,0.03,0.02-0.01,0.03-0.01
			c-0.01,0-0.05,0.02-0.06,0.02c-0.02,0.01-0.11,0.04-0.06,0.02c0.05-0.02,0.01,0-0.01,0c-0.02,0-0.04,0-0.06,0
			c-0.01,0-0.05-0.01,0,0c0.06,0.01-0.01,0-0.02-0.01c-0.01,0-0.04-0.01-0.04-0.01c0.01,0.01,0.08,0.02,0.03,0.01
			c0,0-0.04-0.02-0.04-0.02c0,0,0.07,0.06,0.01,0.01c-0.01-0.01-0.02-0.02-0.03-0.02c-0.06-0.05,0.04,0.07,0,0
			c0.01,0.09,0.02,0.19,0.03,0.28c0.02-0.07,0.04-0.14,0.07-0.21c0.01-0.04,0.03-0.07,0.04-0.11c0.04-0.11-0.03,0.05,0.02-0.05
			c0.03-0.06,0.07-0.13,0.11-0.19c-0.04,0.06,0.04-0.03,0.04-0.03c0.04-0.03,0.04-0.03,0-0.01c0.02-0.01,0.03-0.02,0.05-0.03
			c0.07-0.05-0.07,0.01,0.02-0.01c0.01,0,0.11-0.02,0.02-0.01c0.03,0,0.06,0,0.09,0c0.08,0-0.05-0.02,0.02,0
			c0.02,0.01,0.09,0.04,0.02,0c0.03,0.02,0.07,0.06,0.02,0c0.03,0.03,0.04,0.07,0.01,0.01c0.02,0.03,0.02,0.03,0,0
			c0.01,0.04,0.01,0.05,0.01,0.02c0.01,0.04-0.01,0.09-0.03,0.12c-0.01,0.03-0.03,0.05-0.05,0.08c0.04-0.07,0,0-0.01,0.01
			c-0.02,0.02-0.04,0.04-0.07,0.06c0.07-0.06,0,0-0.02,0.01c-0.03,0.02-0.05,0.03-0.08,0.04c-0.04,0.02-0.04,0.02,0.01,0
			c-0.02,0.01-0.04,0.01-0.06,0.02c-0.03,0.01-0.06,0.01-0.09,0.02c0.09-0.02-0.01,0-0.02,0c-0.03,0-0.06,0-0.09,0
			c-0.09,0,0.06,0.02-0.02,0c-0.03-0.01-0.06-0.02-0.09-0.02c0.08,0.02-0.01,0-0.02-0.01c-0.03-0.01-0.05-0.03-0.08-0.05
			c0.07,0.05-0.03-0.03-0.04-0.04c-0.07-0.06,0.03,0.06-0.01-0.02c-0.01-0.03-0.03-0.05-0.05-0.08c-0.05-0.08,0.02,0.07-0.01-0.02
			c-0.01-0.03-0.02-0.06-0.03-0.09c-0.01-0.03-0.01-0.06-0.02-0.09c0.01,0.08,0-0.02,0-0.03c0-0.03,0-0.06,0-0.09
			c-0.01,0.08,0.01-0.04,0.01-0.06c0.01-0.03,0.02-0.06,0.03-0.08c-0.03,0.07,0.01-0.01,0.02-0.02c0.01-0.01,0.07-0.08,0.01-0.02
			c0.02-0.02,0.04-0.04,0.06-0.06c0.06-0.06-0.06,0.03,0.02-0.01c0.03-0.01,0.05-0.03,0.08-0.04c-0.06,0.03-0.02,0.01,0,0
			c0.01,0,0.14-0.03,0.06-0.02c0.06-0.01,0.12-0.01,0.18,0c-0.08-0.01,0.02,0,0.03,0.01c0.03,0.01,0.06,0.02,0.09,0.02
			c0.09,0.02-0.05-0.03,0.03,0.01c0.03,0.02,0.05,0.03,0.08,0.04c0.08,0.04-0.04-0.05,0.02,0.02c0.01,0.01,0.1,0.11,0.04,0.03
			c0.02,0.02,0.03,0.05,0.05,0.08c0.01,0.02,0.04,0.1,0.01,0.02c0.01,0.03,0.02,0.06,0.02,0.08c0,0.02,0.01,0.11,0.01,0.02
			c0,0.06,0,0.12-0.01,0.18c0.01-0.09,0,0.01-0.01,0.02c0,0.02-0.05,0.13-0.01,0.05c-0.02,0.05-0.05,0.1-0.09,0.15
			c0.05-0.07-0.01,0-0.02,0.01c-0.02,0.02-0.04,0.04-0.06,0.06c0.08-0.06-0.01-0.01-0.02,0c-0.07,0.05,0.07-0.01-0.02,0.01
			c-0.03,0.01-0.06,0.02-0.09,0.02c0.09-0.01-0.04-0.01-0.06-0.01c0.08,0-0.01,0-0.03-0.01c-0.03-0.01-0.06-0.02-0.09-0.03
			c0.08,0.03-0.01-0.01-0.03-0.01c-0.03-0.01-0.05-0.03-0.08-0.05c-0.08-0.05,0.04,0.05-0.02-0.02c-0.02-0.02-0.04-0.04-0.07-0.06
			c-0.07-0.06,0.03,0.06-0.02-0.02c-0.02-0.04-0.04-0.07-0.06-0.11c0.04,0.08,0-0.01-0.01-0.03c0-0.02-0.01-0.11-0.01-0.03
			c0-0.03,0-0.05,0-0.08c0-0.09-0.02,0.07,0-0.01c0.01-0.03,0.01-0.05,0.02-0.08c0.01-0.02,0.05-0.09,0-0.01
			c0.01-0.02,0.02-0.05,0.04-0.07c0.01-0.02,0.08-0.11,0.02-0.03c0.03-0.04,0.07-0.08,0.11-0.12c0.02-0.01,0.09-0.07,0.01-0.01
			c0.02-0.02,0.04-0.03,0.07-0.05c0.04-0.02,0.08-0.04,0.12-0.07c0.08-0.04-0.08,0.02,0.01,0c0.03-0.01,0.07-0.02,0.1-0.03
			c0.03-0.01,0.05-0.01,0.08-0.02c0.09-0.02-0.08,0,0.01,0c0.05,0,0.11,0,0.16,0c-0.09-0.01-0.01,0,0.01,0.01
			c0.03,0.01,0.05,0.01,0.08,0.02c-0.08-0.02-0.01,0,0.01,0.01c0.02,0.01,0.11,0.08,0.04,0.02c0.04,0.03,0.08,0.07,0.11,0.11
			c-0.07-0.07-0.01-0.01,0,0.01c0.01,0.02,0.02,0.04,0.04,0.07c0.04,0.07-0.02-0.08,0,0c0.01,0.02,0.02,0.05,0.02,0.07
			c0.01,0.02,0.01,0.05,0.02,0.07c0.01,0.04,0.01,0.03,0-0.02c0,0.02,0,0.03,0,0.05c0,0.05,0,0.1-0.01,0.16
			c-0.01,0.09,0.02-0.08,0,0.01c-0.01,0.03-0.01,0.05-0.02,0.08c-0.01,0.03-0.07,0.18-0.02,0.08c-0.03,0.06-0.05,0.11-0.09,0.16
			c-0.05,0.08,0.01,0.01,0,0c0,0.01-0.05,0.05-0.05,0.06c-0.02,0.02-0.04,0.04-0.05,0.05c-0.07,0.06-0.02-0.01,0,0
			c0,0-0.13,0.07-0.13,0.08c0.01-0.03,0.08-0.03,0,0c-0.02,0.01-0.14,0.05-0.03,0.01c-0.03,0.01-0.07,0.01-0.1,0.01
			c-0.01,0-0.12-0.02-0.04,0c-0.03-0.01-0.07-0.01-0.1-0.02c-0.01,0-0.11-0.04-0.04-0.01c-0.06-0.03-0.12-0.06-0.18-0.1
			c0.07,0.05-0.02-0.02-0.03-0.02c-0.03-0.03-0.06-0.06-0.09-0.1c0.06,0.06-0.01-0.02-0.02-0.03c-0.02-0.03-0.03-0.06-0.05-0.09
			c-0.04-0.08,0.01,0.06-0.01-0.03c-0.01-0.03-0.02-0.06-0.02-0.1c0,0.02,0,0.06,0-0.01c0-0.03,0-0.07,0-0.1
			c-0.01,0.07,0.01-0.03,0.01-0.04c0-0.02,0.05-0.13,0.02-0.07c0.01-0.03,0.03-0.06,0.05-0.09c0-0.01,0.07-0.09,0.02-0.03
			c0.02-0.03,0.04-0.05,0.07-0.07c0.01-0.01,0.09-0.07,0.03-0.03c0.03-0.02,0.05-0.04,0.08-0.05c0.01-0.01,0.1-0.05,0.03-0.02
			c0.03-0.01,0.06-0.02,0.09-0.03c0.04-0.01,0.04-0.01,0.01,0c0.02,0,0.04,0,0.06,0c0.03,0,0.05,0,0.08,0c-0.09,0-0.01,0,0.01,0
			c0.02,0.01,0.05,0.01,0.07,0.02c-0.08-0.02-0.01-0.01,0.01,0.01c0.02,0.01,0.04,0.02,0.06,0.03c0.02,0.01,0.07,0.06,0.01,0
			c0.04,0.04,0.08,0.08,0.12,0.12c-0.06-0.07,0.03,0.05,0.04,0.07c0.01,0.02,0.02,0.04,0.04,0.07c0.01,0.02,0.04,0.1,0.01,0.01
			c0.02,0.05,0.03,0.1,0.05,0.15c0.01,0.03,0.01,0.05,0.02,0.08c0,0.02,0.01,0.03,0.01,0.05c0-0.05-0.01-0.05,0-0.01
			c0,0.05,0,0.1,0,0.16c0,0.03,0,0.05-0.01,0.08c0.01-0.09,0-0.01,0,0.01c-0.01,0.05-0.03,0.1-0.04,0.15
			c-0.03,0.08,0.04-0.07,0,0.01c-0.02,0.03-0.03,0.06-0.05,0.09c-0.01,0.02-0.06,0.08,0,0.01c-0.02,0.02-0.03,0.04-0.05,0.06
			c-0.02,0.02-0.04,0.04-0.06,0.06c-0.02,0.02-0.09,0.06,0,0.01c-0.04,0.03-0.09,0.06-0.13,0.08c-0.02,0.01-0.1,0.04,0,0
			c-0.03,0.01-0.06,0.02-0.1,0.03c-0.05,0.01-0.1,0.02-0.15,0.03c0.1-0.02-0.04,0-0.06,0c-0.05,0-0.11,0-0.16,0
			c-0.09,0,0.07,0.01-0.02,0c-0.04-0.01-0.07-0.01-0.1-0.02c-0.05-0.01-0.1-0.03-0.15-0.04c-0.02-0.01-0.1-0.04-0.02-0.01
			c-0.02-0.01-0.05-0.02-0.07-0.03c-0.05-0.02-0.09-0.05-0.14-0.08c-0.02-0.01-0.04-0.03-0.07-0.04c0.07,0.05-0.02-0.02-0.03-0.03
			c-0.04-0.03-0.08-0.07-0.11-0.11c-0.02-0.02-0.03-0.04-0.05-0.06c0.06,0.07,0,0-0.01-0.01c-0.03-0.04-0.05-0.09-0.08-0.14
			c-0.04-0.08,0.02,0.07-0.01-0.01c-0.01-0.03-0.02-0.07-0.03-0.1c-0.01-0.03-0.01-0.05-0.02-0.08c-0.02-0.09,0,0.06,0-0.03
			c0-0.06,0-0.12,0.01-0.18c-0.01,0.07,0.01-0.02,0.01-0.03c0.01-0.03,0.01-0.06,0.02-0.08c0.01-0.03,0.02-0.05,0.03-0.08
			c-0.02,0.06,0.02-0.04,0.03-0.06c0.03-0.05,0.06-0.1,0.09-0.15c0.05-0.08-0.04,0.04,0.02-0.03c0.02-0.02,0.04-0.04,0.06-0.07
			c0.04-0.04,0.09-0.08,0.13-0.12c-0.06,0.04,0.02-0.01,0.03-0.02c0.03-0.02,0.07-0.04,0.1-0.06c0.03-0.01,0.05-0.03,0.08-0.04
			c0.01,0,0.1-0.04,0.03-0.01c0.06-0.02,0.11-0.04,0.17-0.05c0.03-0.01,0.06-0.01,0.09-0.02c0.09-0.02-0.06,0,0.03-0.01
			c0.07-0.01,0.14-0.01,0.2,0c0.09,0-0.06-0.02,0.03,0c0.02,0.01,0.05,0.01,0.07,0.01c0.02,0.01,0.05,0.01,0.07,0.02
			c0.01,0,0.09,0.04,0.03,0.01c0.05,0.02,0.1,0.05,0.15,0.08c0.01,0.01,0.08,0.06,0.02,0.01c0.03,0.02,0.06,0.05,0.08,0.07
			c0.02,0.02,0.04,0.04,0.06,0.06c0.01,0.01,0.07,0.08,0.01,0.01c0.03,0.04,0.06,0.09,0.09,0.13c0.03,0.05,0.05,0.1,0.07,0.15
			c-0.03-0.08,0,0,0,0.02c0.01,0.03,0.02,0.07,0.03,0.1c0.01,0.05,0.02,0.11,0.03,0.16c0.02,0.09,0-0.07,0,0.02
			c0,0.03,0,0.06,0,0.08c0,0.06,0,0.11,0,0.17c0,0.03-0.01,0.05-0.01,0.08c0.01-0.09-0.01,0.03-0.01,0.05
			c-0.01,0.05-0.03,0.11-0.04,0.16c-0.01,0.03-0.02,0.05-0.03,0.08c0.03-0.08,0,0-0.01,0.02c-0.02,0.05-0.05,0.1-0.08,0.14
			c-0.01,0.02-0.03,0.04-0.05,0.07c0.06-0.08-0.02,0.02-0.03,0.03c-0.04,0.04-0.08,0.08-0.12,0.11c0.08-0.06,0,0-0.01,0.01
			c-0.02,0.02-0.05,0.03-0.07,0.04c-0.03,0.01-0.05,0.03-0.08,0.04c0.08-0.04,0,0-0.02,0c-0.06,0.02-0.13,0.03-0.19,0.05
			c0.09-0.02,0,0-0.02,0c-0.03,0-0.06,0-0.08,0c-0.06,0-0.11,0-0.17-0.01c0.08,0.01-0.01,0-0.02,0c-0.03,0-0.06-0.01-0.08-0.02
			c-0.07-0.02-0.13-0.04-0.19-0.06c0.07,0.03-0.06-0.03-0.08-0.04c-0.05-0.03-0.1-0.05-0.15-0.08c-0.02-0.02-0.05-0.03-0.07-0.05
			c0.07,0.05-0.01-0.01-0.02-0.02c-0.05-0.04-0.1-0.09-0.15-0.13c-0.02-0.02-0.04-0.04-0.06-0.06c-0.01-0.01-0.06-0.08-0.02-0.02
			c-0.03-0.05-0.06-0.09-0.09-0.14c-0.01-0.02-0.03-0.05-0.04-0.08c-0.04-0.08,0.02,0.06-0.01-0.02c-0.02-0.06-0.04-0.13-0.05-0.19
			c-0.04-0.19,0.02-0.46,0.13-0.65c0.12-0.2,0.28-0.34,0.5-0.39c0.1-0.02,0.18-0.02,0.3,0.02c0.1,0.03,0.22,0.1,0.29,0.16
			c0.17,0.16,0.25,0.32,0.21,0.55c-0.02,0.15,0.14,0.28,0.28,0.28C77.51,17.86,77.61,17.73,77.64,17.58L77.64,17.58z"/>
	</g>
</g>
<g>
	<g>
		<path class="st1" d="M31.22,57.62c0.51,0.28,1.07-0.19,1.11-0.72c0.04-0.56-0.54-0.89-1.04-0.83c-0.51,0.06-0.93,0.42-1.06,0.92
			c-0.12,0.46-0.01,0.96,0.29,1.33c0.71,0.87,2.15,0.33,2.38-0.69c0.13-0.58-0.16-1.14-0.64-1.47c-0.44-0.3-1.01-0.34-1.5-0.14
			c-0.51,0.2-0.94,0.63-1.08,1.17c-0.14,0.53,0.03,1.07,0.41,1.45c0.37,0.38,0.93,0.56,1.45,0.45c0.5-0.1,0.86-0.5,1.03-0.96
			c0.16-0.41,0.13-0.93-0.11-1.3c-0.27-0.4-0.72-0.6-1.19-0.57c-0.47,0.03-0.91,0.25-1.18,0.64c-0.35,0.5-0.23,1.22,0.26,1.59
			c0.89,0.67,2.39,0.08,2.43-1.08c0.02-0.5-0.26-1.02-0.71-1.26c-0.51-0.27-1.14-0.13-1.52,0.29c-0.39,0.43-0.48,1.06-0.16,1.56
			c0.32,0.51,0.94,0.8,1.53,0.66c0.57-0.14,0.92-0.71,0.71-1.27c-0.2-0.53-0.75-0.87-1.31-0.64c-0.51,0.21-0.8,0.78-0.7,1.32
			c0.11,0.55,0.66,0.88,1.19,0.88c0.6-0.01,1.14-0.45,1.23-1.05c0.09-0.59-0.26-1.17-0.87-1.26c-0.59-0.09-1.2,0.32-1.16,0.96
			c0.04,0.55,0.53,1.07,1.11,1.01c0.59-0.07,1.06-0.6,1.06-1.19c0-0.52-0.36-0.92-0.84-1.07c-0.43-0.13-0.93-0.03-1.27,0.25
			c-0.4,0.33-0.47,0.89-0.24,1.34c0.22,0.44,0.74,0.75,1.23,0.71c0.6-0.05,1.17-0.61,1-1.24c-0.16-0.6-0.93-0.89-1.49-0.94
			c-0.55-0.05-1.16,0.18-1.43,0.68c-0.24,0.46-0.24,1.05,0.11,1.45c0.45,0.52,1.23,0.37,1.76,0.09c0.24-0.12,0.46-0.3,0.64-0.5
			c0.1-0.11,0.19-0.23,0.27-0.35c0.03-0.05,0.06-0.1,0.09-0.16c0.01-0.02,0.02-0.05,0.03-0.07c0.02-0.03,0.09-0.22,0.05-0.11
			c0.09-0.21,0.08-0.49-0.16-0.61c-0.2-0.1-0.52-0.05-0.62,0.18c-0.03,0.08-0.08,0.16-0.13,0.23c-0.03,0.04-0.05,0.08-0.08,0.12
			c0,0.01-0.05,0.06-0.01,0.02c0.04-0.05-0.03,0.04-0.04,0.05c-0.06,0.07-0.12,0.13-0.18,0.19c-0.03,0.02-0.12,0.1-0.04,0.04
			c-0.04,0.03-0.09,0.06-0.13,0.09c-0.07,0.05-0.15,0.09-0.23,0.13c-0.02,0.01-0.04,0.02-0.05,0.03c0.02-0.01,0.1-0.03,0.01,0
			c-0.05,0.02-0.1,0.03-0.15,0.05c-0.02,0.01-0.16,0.03-0.08,0.02c-0.02,0-0.05,0-0.07,0c-0.01,0-0.1,0-0.05,0
			c0.05,0-0.1-0.02-0.06-0.01c0.04,0.01-0.02-0.01-0.03-0.01c-0.03-0.01-0.05-0.05-0.01,0c0.05,0.06-0.02-0.03-0.04-0.04
			c-0.06-0.05,0.05,0.08,0.01,0.01c-0.02-0.03-0.03-0.06-0.05-0.09c-0.03-0.04,0.02,0.04,0.02,0.05c0-0.01-0.02-0.06-0.02-0.07
			c0-0.01-0.01-0.03-0.01-0.04c-0.01-0.04-0.01-0.01,0,0c0.03,0.03,0,0.03,0-0.02c0-0.02,0-0.03,0-0.05c0-0.02-0.01-0.13,0-0.06
			c0,0.05,0,0.02,0,0c0-0.02,0.01-0.04,0.01-0.06c0-0.01,0.03-0.13,0.02-0.06c-0.01,0.05-0.01,0.01,0,0
			c0.01-0.02,0.02-0.04,0.03-0.05c0.02-0.03,0.03-0.05,0.05-0.08c-0.07,0.1,0.01,0,0.03-0.02c0.02-0.02,0.06-0.03-0.01,0.01
			c0.02-0.01,0.03-0.02,0.05-0.03c0.02-0.01,0.13-0.07,0.06-0.04c0.04-0.01,0.08-0.03,0.11-0.04c0.02-0.01,0.04-0.01,0.06-0.01
			c0.04-0.01-0.04,0,0.03,0c0.04,0,0.08,0,0.12,0c0.03,0,0.05,0,0.08,0c-0.01,0-0.05-0.01,0,0c0.1,0.01,0.2,0.04,0.3,0.07
			c0,0,0.06,0.02,0.03,0.01c-0.03-0.01,0.03,0.01,0.03,0.01c0.04,0.02,0.09,0.04,0.13,0.06c0.04,0.02,0.08,0.05,0.12,0.07
			c0,0,0.05,0.04,0.02,0.01c-0.03-0.02,0.03,0.03,0.04,0.03c0.01,0.01,0.07,0.07,0.03,0.03c-0.03-0.03,0.01,0.02,0.01,0.02
			c0,0,0.03,0.06,0.01,0.02c-0.03-0.05,0.01,0.06,0,0.01c-0.01-0.04,0,0.01,0,0.02c0-0.01,0.01-0.06,0-0.01
			c0,0.01-0.03,0.08-0.01,0.04c0.01-0.04-0.02,0.03-0.02,0.04c-0.01,0.02-0.02,0.03-0.03,0.05c0.04-0.06,0-0.01-0.01,0
			c-0.06,0.05,0.03-0.01-0.03,0.03c-0.02,0.01-0.04,0.02-0.06,0.03c0.01,0,0.07-0.02,0.03-0.01c-0.02,0-0.13,0.03-0.08,0.02
			c0.05,0-0.04-0.01-0.05,0c-0.05,0.01,0.06,0.02,0.01,0c-0.01,0-0.03-0.01-0.05-0.01c-0.02,0-0.12-0.04-0.07-0.02
			c0.04,0.02-0.05-0.03-0.07-0.03c-0.01-0.01-0.11-0.07-0.06-0.04c0.04,0.03-0.04-0.04-0.06-0.05c-0.02-0.02-0.05-0.05-0.07-0.07
			c-0.01-0.02-0.03-0.03-0.04-0.05c0.02,0.02,0.04,0.06,0.01,0.01c-0.02-0.03-0.04-0.06-0.06-0.09c-0.01-0.01-0.01-0.03-0.02-0.04
			c0.01,0.01,0.03,0.09,0.01,0.02c-0.01-0.03-0.01-0.06-0.02-0.09c0,0.02,0,0.09,0,0.01c0-0.02,0-0.04,0-0.06
			c0-0.07-0.02,0.06,0.01-0.03c0-0.02,0.01-0.03,0.01-0.05c0,0.01-0.04,0.06-0.01,0.03c0.01-0.02,0.03-0.08,0.05-0.08
			c0.01,0-0.06,0.06-0.02,0.03c0.02-0.01,0.03-0.03,0.05-0.05c0.01-0.01,0.02-0.02,0.03-0.03c0.03-0.04-0.04,0.04-0.04,0.03
			c0-0.01,0.06-0.04,0.08-0.05c0.08-0.05-0.06,0.01,0.01,0c0.03-0.01,0.06-0.02,0.09-0.03c0.1-0.03-0.06,0,0.02,0
			c0.03,0,0.06,0,0.1,0c0.03,0,0.06,0,0.08,0c0.05,0-0.07-0.02-0.02,0c0.02,0,0.04,0.01,0.05,0.01c0.03,0.01,0.06,0.02,0.09,0.02
			c0.07,0.02-0.06-0.03,0,0c0.03,0.02,0.06,0.03,0.08,0.04c0.08,0.04-0.04-0.05,0.02,0.01c0.02,0.02,0.04,0.04,0.07,0.06
			c0.05,0.05-0.03-0.07,0,0c0.01,0.01,0.01,0.02,0.02,0.03c0.02,0.03,0,0.05,0.01,0.01c0-0.03-0.01-0.03,0,0
			c0.01,0.02,0.01,0.04,0.02,0.06c0.02,0.07,0,0.01,0-0.01c0,0.02,0,0.03,0,0.05c0,0.03-0.02,0.12,0,0.05
			c-0.01,0.03-0.02,0.07-0.03,0.1c-0.02,0.07,0,0.01,0.01-0.01c-0.01,0.02-0.02,0.04-0.03,0.06c-0.01,0.02-0.03,0.04-0.04,0.06
			c0-0.01,0.05-0.05,0.02-0.02c-0.03,0.02-0.06,0.06-0.08,0.08c0.01-0.01,0.07-0.04,0.03-0.02c-0.01,0.01-0.03,0.02-0.04,0.03
			c-0.02,0.02-0.08,0.03,0.02,0c-0.02,0.01-0.04,0.01-0.06,0.02c-0.01,0-0.07,0.01-0.01,0c0.06-0.01-0.02,0-0.03,0
			c-0.03-0.02,0.02,0,0.03,0.01c-0.01,0-0.04,0-0.05-0.01c-0.04-0.04,0.06,0.04,0.02,0.01c-0.01-0.01-0.03-0.01-0.04-0.02
			c-0.01-0.01-0.03-0.02-0.04-0.02c-0.04-0.02,0.05,0.06,0,0c-0.02-0.02-0.04-0.05-0.07-0.07c0.07,0.07,0.01,0-0.01-0.03
			c-0.01-0.01-0.01-0.03-0.02-0.04c0.01,0.01,0.03,0.09,0.01,0.02c0-0.01-0.01-0.03-0.01-0.05c0-0.01-0.01-0.08-0.01-0.02
			c0,0.06,0-0.01,0-0.02c0.02-0.04-0.01,0.03-0.01,0.03c0-0.01,0-0.04,0.01-0.04c0.04-0.03-0.04,0.06-0.01,0.02
			c0.01-0.01,0.02-0.03,0.02-0.04c0,0-0.05,0.07-0.02,0.02c0.01-0.01,0.06-0.06,0.01-0.02c-0.05,0.04,0.01-0.01,0.02-0.01
			c0.04-0.01-0.03,0.01-0.03,0.01c0.02-0.01,0.04-0.01,0.06-0.02c0.07-0.02-0.05,0,0.02,0c0.02,0,0.13,0.01,0.08,0
			c-0.06-0.01,0.11,0.04,0.06,0.02c-0.06-0.02,0.1,0.07,0.01,0c0.03,0.02,0.05,0.04,0.07,0.07c-0.06-0.06,0,0.01,0.02,0.04
			c0.03,0.04,0-0.01-0.01-0.02c0.01,0.03,0.02,0.06,0.02,0.09c0.01,0.05,0-0.01,0-0.02c0,0.02,0,0.04,0,0.06
			c0,0.03-0.02,0.13,0,0.06c-0.01,0.04-0.02,0.07-0.03,0.11c-0.02,0.08-0.01,0.02,0,0c-0.01,0.02-0.02,0.04-0.04,0.07
			c-0.01,0.02-0.05,0.07,0,0c-0.01,0.01-0.02,0.03-0.04,0.04c-0.01,0.01-0.03,0.03-0.04,0.04c-0.03,0.03-0.06,0.02,0.02-0.01
			c-0.03,0.01-0.06,0.03-0.09,0.05c-0.06,0.03,0.01,0.01,0.02-0.01c-0.01,0.01-0.05,0.02-0.06,0.02c-0.02,0-0.13,0.03-0.07,0.02
			c0.06-0.01-0.04,0-0.06,0c-0.04,0-0.12-0.01-0.04,0c-0.04-0.01-0.09-0.02-0.13-0.03c-0.08-0.02,0.05,0.03-0.02-0.01
			c-0.01-0.01-0.12-0.07-0.07-0.03c0.04,0.03-0.04-0.04-0.05-0.05c-0.01-0.01-0.04-0.05-0.01,0c0.04,0.05-0.02-0.03-0.02-0.04
			c-0.04-0.06,0.01,0.06-0.01-0.01c0-0.02-0.02-0.13-0.02-0.07c0,0.06,0-0.04,0-0.05c0-0.01,0.01-0.08,0-0.02
			c-0.01,0.06,0-0.01,0.01-0.02c0.01-0.04,0.02-0.07,0.03-0.11c-0.03,0.07-0.01,0.02,0.01-0.01c0.01-0.02,0.02-0.03,0.03-0.05
			c-0.01,0.01-0.05,0.05-0.02,0.03c0.01-0.01,0.02-0.02,0.03-0.03c0.01-0.01,0.08-0.05,0.02-0.02c-0.07,0.04,0.06-0.03,0.06-0.03
			c0.01,0.01-0.09,0.02-0.04,0.02c0.01,0,0.03-0.01,0.04-0.01c0.04-0.01,0.05,0.01-0.02,0c0.01,0,0.03,0,0.05,0
			c0.05,0-0.03,0-0.03,0c0.01,0,0.1,0.03,0.03,0.01c-0.06-0.02,0.03,0.02,0.04,0.02c0.05,0.01-0.05-0.05-0.01-0.01
			c0.01,0.01,0.02,0.02,0.03,0.03c0.02,0.01,0.07,0.1,0.05,0.05c-0.03-0.05,0.02,0.04,0.03,0.06c0.01,0.02,0.02,0.04,0.03,0.05
			c0-0.01-0.02-0.07-0.02-0.03c0,0.03,0.02,0.07,0.02,0.1c-0.02-0.06-0.01-0.04,0,0.01c0,0.03-0.02,0.06,0.01-0.02
			c-0.01,0.02-0.01,0.04-0.01,0.05c0,0,0.04-0.07,0.01-0.03c-0.01,0.01-0.03,0.07-0.01,0.02c0.03-0.06-0.05,0.05-0.02,0.03
			c0.04-0.03-0.11,0.06-0.03,0.03c-0.02,0.01-0.15,0.04-0.1,0.03c-0.04,0.01-0.08,0-0.12,0.01c-0.07,0-0.03,0-0.01,0
			c-0.02,0-0.04-0.01-0.06-0.01c-0.04-0.01-0.09-0.02-0.13-0.03c0.06,0.02-0.06-0.03-0.08-0.04c-0.12-0.07-0.21-0.15-0.27-0.26
			c-0.01-0.02-0.06-0.12-0.03-0.06c-0.01-0.03-0.02-0.07-0.03-0.11c-0.01-0.06-0.02-0.13-0.01-0.19c-0.01,0.03,0.01-0.03,0.01-0.03
			c0.01-0.02,0.01-0.05,0.02-0.07c0.02-0.06-0.01,0,0.02-0.05c0.02-0.04,0.04-0.08,0.07-0.11c0.03-0.04,0,0,0,0
			c0.02-0.02,0.04-0.05,0.07-0.07c0.01-0.01,0.08-0.07,0.06-0.05c-0.02,0.01,0.07-0.04,0.09-0.05c0,0,0.06-0.03,0.02-0.01
			c-0.04,0.02,0.03-0.01,0.04-0.01c0.02-0.01,0.12-0.03,0.07-0.02c0.1-0.01,0.13,0,0.19,0.01c0.06,0.01-0.01-0.01,0.04,0.01
			c0.04,0.02,0.08,0.04,0.11,0.07c-0.05-0.04,0.03,0.03,0.04,0.04c0.02,0.02,0.05,0.05,0.07,0.07c0.04,0.04-0.03-0.04,0,0
			c0.01,0.01,0.02,0.03,0.03,0.04c0.02,0.04,0.04,0.08,0.06,0.12c-0.03-0.06,0.01,0.02,0.01,0.04c0.01,0.04,0.02,0.08,0.03,0.12
			c0,0.02,0.01,0.03,0.01,0.05c-0.01-0.06,0-0.01,0,0.01c0,0.05,0,0.09,0,0.14c0,0.06,0.01-0.02-0.01,0.04
			c-0.01,0.02-0.03,0.11-0.03,0.09c0.01-0.02-0.04,0.07-0.04,0.08c-0.01,0.01-0.02,0.03-0.03,0.04c-0.03,0.05,0.04-0.04,0,0
			c-0.03,0.03-0.05,0.06-0.08,0.09c-0.01,0.01-0.03,0.02-0.04,0.04c-0.04,0.04,0.05-0.03,0,0c-0.03,0.02-0.06,0.04-0.09,0.06
			c-0.02,0.01-0.03,0.02-0.05,0.03c0,0-0.09,0.04-0.05,0.03c0.03-0.01-0.07,0.02-0.09,0.03c-0.03,0.01-0.07,0.02-0.1,0.03
			c-0.01,0-0.07,0.01,0,0c-0.02,0-0.04,0-0.05,0.01c-0.05,0-0.09,0-0.14,0c-0.02,0-0.04,0-0.05,0c0.01,0,0.06,0.01,0.01,0
			c-0.04-0.01-0.08-0.02-0.12-0.03c-0.08-0.02-0.1-0.03-0.2-0.09c-0.07-0.04-0.03-0.02-0.02-0.01c-0.02-0.01-0.03-0.03-0.04-0.04
			c-0.01-0.01-0.03-0.03-0.04-0.04c0.04,0.04,0,0-0.01-0.01c-0.04-0.07-0.06-0.13-0.07-0.19c0-0.03,0-0.06,0-0.09
			c0,0,0.01-0.07,0-0.04c0,0.02,0.02-0.06,0.02-0.08c0.01-0.04,0.04-0.07,0-0.02c0.02-0.03,0.04-0.07,0.06-0.1
			c0.03-0.06-0.04,0.04,0.01-0.01c0.02-0.02,0.05-0.05,0.07-0.07c0.03-0.03,0.08-0.07,0.02-0.02c0.03-0.02,0.06-0.04,0.1-0.06
			c0.03-0.01,0.05-0.03,0.08-0.04c0.06-0.03-0.06,0.01,0.03-0.01c0.03-0.01,0.07-0.02,0.1-0.03c0.02,0,0.11-0.02,0.07-0.02
			c-0.05,0.01,0.05,0,0.07,0c0.03,0,0.07,0,0.1,0c0.04,0-0.02,0-0.02,0c0.01,0,0.03,0,0.04,0.01c0.04,0.01,0.08,0.02,0.11,0.03
			c0.01,0,0.03,0.01,0.04,0.01c-0.07-0.03-0.02-0.01-0.01,0c0.03,0.01,0.05,0.03,0.08,0.04c0.02,0.01,0.03,0.02,0.05,0.03
			c0,0-0.05-0.04-0.02-0.01c0.03,0.03,0.06,0.06,0.09,0.09c0.03,0.02-0.01-0.01-0.01-0.02c0.01,0.01,0.02,0.02,0.03,0.04
			c0.02,0.03,0.03,0.06,0.05,0.09c0.03,0.06-0.01-0.06,0.01,0.03c0.01,0.03,0.02,0.07,0.03,0.1c0,0.01,0.02,0.12,0.01,0.07
			c0-0.04,0,0.05,0,0.07c0,0.03,0,0.06,0,0.09c0,0.02,0,0.04-0.01,0.06c0-0.03,0.01-0.04,0-0.01c-0.02,0.07-0.04,0.14-0.06,0.21
			c0.02-0.06,0-0.01-0.01,0.02c-0.02,0.04-0.04,0.07-0.06,0.11c-0.01,0.01-0.02,0.03-0.03,0.04c-0.03,0.05,0.05-0.05,0.01-0.01
			c-0.02,0.02-0.04,0.05-0.06,0.07c-0.03,0.03-0.05,0.05-0.08,0.07c0.06-0.06-0.01,0-0.04,0.02c-0.03,0.02-0.05,0.03-0.08,0.04
			c0.08-0.04,0,0-0.04,0.01c-0.02,0.01-0.13,0.02-0.05,0.02c-0.04,0-0.08,0.01-0.12,0.01c-0.03,0-0.12-0.01-0.05,0
			c-0.04-0.01-0.08-0.01-0.12-0.03c-0.02,0-0.1-0.03-0.07-0.02c0.04,0.02-0.02-0.01-0.03-0.01c-0.02-0.01-0.04-0.02-0.06-0.03
			c-0.04-0.02-0.07-0.04-0.11-0.06c0,0-0.05-0.03-0.02-0.01c0.06,0.04-0.08-0.06-0.07-0.05c0.06,0.05-0.03-0.03-0.04-0.04
			c-0.03-0.03-0.07-0.07-0.1-0.1c-0.03-0.03,0,0.01,0.01,0.01c-0.01-0.02-0.03-0.04-0.04-0.06c-0.02-0.03-0.04-0.06-0.05-0.09
			c-0.01-0.02-0.05-0.11-0.04-0.08c0.02,0.04,0-0.01-0.01-0.02c-0.01-0.02-0.01-0.04-0.02-0.07c-0.01-0.02-0.01-0.05-0.02-0.07
			c0,0-0.01-0.06,0-0.02c0.01,0.04,0-0.02,0-0.02c0-0.02,0-0.05,0-0.07c0-0.04,0-0.07,0.01-0.11c-0.01,0.06,0,0,0-0.01
			c0.01-0.02,0.01-0.05,0.02-0.07c0.03-0.12,0.12-0.26,0.19-0.34c0.03-0.03,0.06-0.06,0.09-0.09c0.01-0.01,0.08-0.07,0.06-0.05
			c0.03-0.02,0.15-0.09,0.21-0.13c0.06-0.03-0.01,0,0.05-0.02c0.04-0.01,0.08-0.02,0.13-0.03c0.02,0,0.04-0.01,0.05-0.01
			c-0.02,0-0.05,0,0.02,0c0.04,0,0.09,0,0.13,0c0.01,0,0.08,0.01,0.05,0c-0.03,0,0.03,0.01,0.03,0.01c0.04,0.01,0.09,0.02,0.13,0.03
			c0.02,0.01,0.04,0.01,0.05,0.02c-0.01,0-0.04-0.02,0,0c0.05,0.02,0.09,0.05,0.13,0.07c0.02,0.01,0.03,0.02,0.05,0.03
			c-0.05-0.03,0,0,0.01,0.01c0.03,0.02,0.06,0.05,0.09,0.08c0.03,0.03,0.06,0.06,0.09,0.1c0.03,0.03,0,0,0-0.01
			c0.02,0.03,0.04,0.05,0.05,0.08c0.02,0.04,0.04,0.08,0.06,0.12c-0.03-0.06,0.01,0.02,0.01,0.04c0.01,0.02,0.01,0.05,0.02,0.07
			c0,0,0.01,0.06,0.01,0.02c0-0.04,0,0.02,0,0.02c0,0.03,0,0.06,0,0.09c0,0.02,0,0.03,0,0.05c0-0.01,0.01-0.06,0-0.02
			c-0.01,0.04-0.02,0.08-0.03,0.11c-0.02,0.07,0.02-0.03-0.01,0.03c-0.02,0.04-0.05,0.08-0.07,0.12c0.04-0.06-0.01,0.02-0.03,0.04
			c-0.03,0.03-0.06,0.06-0.09,0.08c-0.06,0.05,0.04-0.02-0.02,0.02c-0.04,0.02-0.08,0.05-0.12,0.07c-0.01,0.01-0.03,0.01-0.05,0.02
			c-0.05,0.03,0.06-0.01,0.01,0c-0.03,0.01-0.06,0.02-0.1,0.03c-0.03,0.01-0.12,0.02-0.05,0.01c-0.04,0-0.09,0-0.13,0
			c-0.07,0,0.04,0.01-0.03,0c-0.04-0.01-0.08-0.02-0.12-0.03c-0.02,0-0.03-0.01-0.05-0.02c0.08,0.03,0.02,0.01,0.01,0
			c-0.03-0.02-0.07-0.04-0.1-0.06c0.05,0.04,0.01,0.01-0.01-0.02c-0.03-0.02-0.05-0.05-0.07-0.08c-0.03-0.03,0.01,0.01,0.02,0.02
			c-0.01-0.01-0.02-0.02-0.03-0.04c-0.02-0.03-0.04-0.07-0.06-0.11c-0.01-0.01-0.01-0.03-0.02-0.04c0.03,0.07,0.01,0.02,0,0.01
			c-0.01-0.03-0.02-0.06-0.03-0.09c-0.01-0.03-0.02-0.07-0.02-0.11c0-0.02-0.01-0.03-0.01-0.05c0.01,0.07,0,0,0-0.01
			c0-0.07,0-0.13,0.01-0.2c-0.01,0.07,0.01-0.02,0.01-0.04c0-0.01,0.01-0.03,0.01-0.04c0-0.01,0.03-0.08,0.01-0.04
			c-0.01,0.03,0.02-0.04,0.03-0.05c0.02-0.03,0.04-0.06,0.06-0.09c-0.04,0.05,0.02-0.02,0.04-0.03c0.01-0.01,0.02-0.02,0.03-0.03
			c-0.03,0.02-0.01,0.01,0.01,0c0.02-0.01,0.09-0.05,0.08-0.04c-0.02,0.01,0.07-0.02,0.09-0.02c0.05-0.02-0.01,0,0.05-0.01
			c0.02,0,0.13,0,0.08,0c0.04,0,0.08,0.01,0.11,0.03c0.04,0.01,0,0,0,0c0.01,0.01,0.03,0.01,0.04,0.02c0.05,0.03-0.03-0.03,0.01,0
			c0.01,0.01,0.02,0.02,0.04,0.03c0,0,0.04,0.04,0.02,0.02c-0.02-0.02,0.02,0.05,0-0.01c0.01,0.02,0.01,0.08,0.01,0.03
			c0,0.02,0,0.04,0,0.06c0-0.01,0.01-0.05,0-0.01c-0.01,0.02-0.04,0.1-0.01,0.05c-0.01,0.03-0.03,0.05-0.05,0.08
			c0.05-0.07-0.06,0.04-0.01,0.01c0.03-0.03-0.08,0.05,0,0.01c-0.03,0.01-0.08,0.01-0.02,0.01c0.1,0,0,0.01,0,0c0,0,0.07,0.04,0,0
			C31.19,56.84,30.84,57.41,31.22,57.62L31.22,57.62z"/>
	</g>
</g>
<g>
	<g>
		<path class="st1" d="M21.33,2.93c-1.16,2.71-1.06,6.21,0.83,8.58c0.28,0.35,0.96-0.04,0.8-0.46c-0.5-1.24-0.91-2.52-0.98-3.86
			c-0.06-1.36,0.15-2.67,0.69-3.92c0.15-0.34-0.15-0.75-0.48-0.83C21.79,2.33,21.48,2.59,21.33,2.93L21.33,2.93z"/>
	</g>
</g>
<g>
	<g>
		<path class="st1" d="M25.18,4.58c-0.02,1.14,0,2.29,0.05,3.43c0.03,0.56,0.06,1.12,0.11,1.68c0.04,0.53,0.03,1.18,0.26,1.66
			c0.13,0.28,0.6,0.19,0.67-0.1c0.11-0.52-0.02-1.12-0.07-1.64c-0.05-0.56-0.09-1.12-0.12-1.68C26.02,6.82,25.99,5.7,26,4.58
			C26.01,4.05,25.19,4.07,25.18,4.58L25.18,4.58z"/>
	</g>
</g>
<g>
	<g>
		<path class="st1" d="M29.72,7.9c-0.31-0.24-0.62-0.49-0.93-0.73c-0.18-0.14-0.43-0.13-0.56,0.08c-0.31,0.53-0.51,1.1-0.6,1.71
			c-0.08,0.55-0.14,1.26,0.13,1.77c0.32,0.59,1.05,0.59,1.6,0.35c0.43-0.19,0.79-0.56,0.99-0.98c0.23-0.49,0.28-1.07,0.09-1.58
			c-0.13-0.34-0.56-0.32-0.69,0.01c-0.24,0.62-0.15,1.32,0.17,1.89c0.32,0.58,0.93,1.06,1.61,1.06c0.4,0,0.46-0.54,0.1-0.67
			c-0.44-0.16-0.8-0.42-1.04-0.81c-0.24-0.39-0.32-0.85-0.16-1.3c-0.23,0-0.46,0-0.69,0.01c0.16,0.39,0.08,0.79-0.14,1.13
			c-0.21,0.32-0.52,0.55-0.9,0.56c-0.22,0.01-0.25-0.1-0.3-0.3c-0.06-0.27-0.06-0.55-0.04-0.83c0.03-0.58,0.19-1.16,0.46-1.67
			c-0.16,0.05-0.32,0.09-0.48,0.14c0.32,0.23,0.64,0.46,0.96,0.69C29.61,8.63,30.01,8.13,29.72,7.9L29.72,7.9z"/>
	</g>
</g>
<g>
	<g>
		<path class="st1" d="M32.91,9.82c-0.06-0.07,0.02,0.02,0.02,0.02c0,0-0.04-0.05-0.03-0.05c-0.02-0.03-0.04-0.06-0.05-0.09
			c-0.02-0.03-0.03-0.06-0.05-0.09c-0.04-0.08,0.02,0.02,0.01,0.03c0-0.01-0.02-0.06-0.03-0.07c-0.02-0.07-0.04-0.14-0.05-0.22
			c0-0.01-0.01-0.06-0.01-0.06c0,0,0.01,0.09,0.01,0.04c0-0.05-0.01-0.09-0.01-0.14c0-0.02,0.01-0.21,0.01-0.21
			c0.01,0-0.02,0.1,0,0.03c0-0.02,0.01-0.04,0.01-0.06c0.01-0.04,0.02-0.08,0.03-0.12c0.01-0.04,0.03-0.08,0.04-0.11
			c0.03-0.08-0.04,0.09,0.01-0.01c0.04-0.07,0.07-0.14,0.12-0.21c0.01-0.02,0.02-0.03,0.03-0.05c0.03-0.04-0.03,0.04-0.03,0.04
			c0.02-0.01,0.06-0.07,0.08-0.09c0.02-0.02,0.05-0.05,0.08-0.07c0.01-0.01,0.07-0.06,0.01-0.01c-0.07,0.05,0.01,0,0.02-0.01
			c0.06-0.04,0.13-0.07,0.19-0.1c0.04-0.03-0.05,0.02-0.05,0.02c0.01,0,0.04-0.01,0.05-0.02c0.04-0.01,0.08-0.03,0.12-0.04
			c0.02-0.01,0.08-0.01,0.1-0.02c-0.01,0.01-0.11,0.01-0.03,0.01c0.02,0,0.04,0,0.06,0c0.03,0,0.22-0.02,0.23,0
			c0,0-0.09-0.01-0.04,0c0.02,0,0.04,0.01,0.06,0.01c0.03,0.01,0.07,0.01,0.1,0.02c0.04,0.01,0.07,0.02,0.11,0.03
			c0.01,0,0.03,0.01,0.04,0.01c0.05,0.01-0.08-0.04-0.01,0c0.07,0.04,0.15,0.07,0.22,0.11c0.02,0.01,0.03,0.02,0.05,0.03
			c0.04,0.02-0.06-0.05,0,0c0.03,0.03,0.06,0.05,0.09,0.08c0.06,0.06,0.11,0.13,0.17,0.19c-0.06-0.06,0,0.01,0.02,0.04
			c0.03,0.04,0.05,0.08,0.07,0.13c0.08,0.16,0.29,0.2,0.44,0.14c0.16-0.07,0.25-0.24,0.22-0.41c-0.18-0.82-1.08-1.33-1.89-1.27
			c-0.45,0.03-0.88,0.22-1.18,0.57c-0.3,0.35-0.46,0.78-0.48,1.24c-0.02,0.51,0.15,1,0.49,1.38c0.16,0.18,0.49,0.16,0.65-0.01
			C33.09,10.26,33.07,10.02,32.91,9.82L32.91,9.82z"/>
	</g>
</g>
<g>
	<g>
		<path class="st1" d="M38.11,8.11c-1.39,0.12-2.55,1.59-2.08,2.98c0.09,0.25,0.3,0.36,0.56,0.32c1.1-0.17,2.02-0.98,2.33-2.05
			c-0.23,0-0.46,0-0.69,0.01c0.6,1.62,0.75,3.53,0.55,5.25c-0.08,0.7-0.41,1.35-1.19,1.36c-0.66,0.01-1.12-0.55-1.28-1.13
			c-0.09-0.3-0.6-0.33-0.65,0.01c-0.15,0.89,0.4,1.76,1.26,2.04c0.89,0.29,1.91-0.12,2.39-0.91c0.56-0.92,0.41-2.27,0.32-3.29
			c-0.1-1.2-0.39-2.35-0.7-3.51c-0.1-0.37-0.57-0.3-0.69,0.01c-0.29,0.72-0.97,1.26-1.74,1.33c0.15,0.11,0.29,0.22,0.44,0.33
			c-0.21-0.79,0.3-1.74,1.16-1.82C38.69,8.99,38.72,8.06,38.11,8.11L38.11,8.11z"/>
	</g>
</g>
<g>
	<g>
		<path class="st1" d="M40.92,10.05c0.49,0.05,1.02,0.08,1.49-0.1c0.45-0.17,0.81-0.5,0.98-0.95c0.14-0.38,0.07-0.82-0.21-1.12
			c-0.22-0.25-0.56-0.38-0.89-0.41c-1.99-0.19-2.28,2.8-1.15,3.89c0.78,0.76,1.97,0.53,2.88,0.16c0.22-0.09,0.39-0.28,0.32-0.53
			c-0.06-0.24-0.3-0.35-0.53-0.3c-0.16,0.03-0.33,0.06-0.49,0.08c-0.08,0.01-0.15,0.03-0.23,0.04c0.11-0.02-0.04,0-0.05,0.01
			c-0.05,0-0.09,0.01-0.14,0.01c-0.16,0.01-0.33,0.01-0.49,0c-0.14,0,0.06,0.01-0.02,0c-0.04-0.01-0.07-0.01-0.11-0.02
			c-0.08-0.02-0.16-0.04-0.24-0.07c-0.13-0.04,0.08,0.05-0.03-0.02c-0.04-0.02-0.08-0.04-0.11-0.06c-0.02-0.01-0.05-0.03-0.07-0.05
			c0.1,0.07-0.03-0.03-0.04-0.04c-0.03-0.03-0.06-0.06-0.08-0.09c-0.01-0.02-0.07-0.1-0.03-0.03c-0.06-0.08-0.11-0.17-0.15-0.25
			c-0.11-0.22-0.21-0.6-0.23-0.86c-0.02-0.3,0.01-0.59,0.15-0.85c0.13-0.24,0.28-0.36,0.5-0.43C42.14,8,42.38,8.01,42.56,8.1
			c0.09,0.04,0.16,0.11,0.2,0.17c0.06,0.09,0.09,0.18,0.08,0.31c-0.02,0.31-0.29,0.56-0.55,0.68c-0.39,0.17-0.85,0.13-1.26,0.07
			C40.81,9.3,40.6,9.4,40.56,9.64C40.53,9.88,40.7,10.03,40.92,10.05L40.92,10.05z"/>
	</g>
</g>
<g>
	<g>
		<path class="st1" d="M47.21,11.14c0.01,0.03,0.03,0.06,0.04,0.08c0.03,0.06-0.01-0.03,0.01,0.01c0.02,0.05,0.04,0.11,0.05,0.16
			c0.01,0.05,0.02,0.1,0.03,0.15c0,0.01,0.01,0.09,0.01,0.04c0-0.05,0,0.04,0,0.05c0.01,0.11,0,0.23-0.01,0.34
			c0.01-0.05,0-0.02,0,0.01c-0.01,0.03-0.01,0.05-0.02,0.08c-0.01,0.06-0.03,0.11-0.05,0.17c-0.01,0.02-0.02,0.05-0.03,0.07
			c0,0.01-0.04,0.09-0.02,0.04c0.02-0.04-0.02,0.03-0.02,0.04c-0.01,0.03-0.03,0.06-0.04,0.08c-0.02,0.05-0.05,0.09-0.08,0.13
			c-0.02,0.03-0.04,0.05-0.05,0.08c0.03-0.04,0.01-0.02-0.01,0.01c-0.07,0.08-0.15,0.16-0.23,0.23c-0.04,0.03-0.08,0.07-0.12,0.1
			c-0.01,0.01-0.09,0.07-0.02,0.02c-0.03,0.02-0.05,0.04-0.08,0.05c-0.13,0.09-0.21,0.25-0.14,0.4c0.06,0.14,0.23,0.24,0.38,0.19
			c0.29-0.1,0.53-0.25,0.73-0.49c0.19-0.23,0.34-0.49,0.44-0.77c0.18-0.54,0.15-1.15-0.12-1.66c-0.09-0.17-0.35-0.23-0.51-0.13
			C47.18,10.75,47.12,10.96,47.21,11.14L47.21,11.14z"/>
	</g>
</g>
<g>
	<g>
		<path class="st1" d="M41.15,62.7c-0.31,0.36-0.62,0.73-0.93,1.09c-0.14,0.16-0.15,0.44,0.07,0.55c0.61,0.3,0.94,1.12,0.64,1.75
			c-0.14,0.29-0.4,0.51-0.7,0.63c-0.37,0.14-0.71,0.06-1.09,0.06c-0.28,0-0.51,0.4-0.26,0.61c0.43,0.35,1.05,0.3,1.54,0.1
			c0.51-0.2,0.95-0.57,1.17-1.08c0.43-0.98-0.01-2.16-0.93-2.67c0.02,0.18,0.05,0.37,0.07,0.55c0.33-0.35,0.65-0.7,0.98-1.05
			C42.04,62.85,41.47,62.32,41.15,62.7L41.15,62.7z"/>
	</g>
</g>
<g>
	<g>
		<path class="st1" d="M43.73,66.74c-0.06-0.58-0.03-1.16,0.06-1.74c0.04-0.27,0.1-0.53,0.18-0.79c0.04-0.13,0.11-0.36,0.28-0.36
			c0.15,0,0.28,0.17,0.35,0.29c0.11,0.2,0.13,0.39,0.12,0.61c-0.03,0.56-0.15,1.1,0.1,1.63c0.15,0.31,0.59,0.17,0.68-0.1
			c0.21-0.58,0.4-1.16,0.58-1.75c0.05-0.16,0.1-0.32,0.16-0.48c0.03-0.07,0.06-0.18,0.14-0.2c0.14-0.04,0.35,0.24,0.41,0.34
			c0.27,0.43,0.42,0.99,0.48,1.49c0.03,0.27,0.04,0.54,0.02,0.81c-0.02,0.3-0.11,0.58-0.05,0.87c0.06,0.34,0.54,0.35,0.7,0.08
			c0.18-0.31,0.16-0.72,0.15-1.07c-0.01-0.35-0.06-0.71-0.14-1.05c-0.13-0.61-0.36-1.37-0.85-1.8c-0.22-0.19-0.52-0.34-0.81-0.27
			c-0.34,0.08-0.49,0.36-0.6,0.66c-0.28,0.74-0.61,1.45-0.89,2.19c0.23-0.03,0.45-0.07,0.68-0.1c-0.26-0.58,0.06-1.25-0.14-1.85
			c-0.17-0.48-0.6-1-1.16-0.93c-0.68,0.08-0.84,0.83-0.97,1.38c-0.17,0.7-0.23,1.42-0.24,2.14C42.93,67.26,43.77,67.22,43.73,66.74
			L43.73,66.74z"/>
	</g>
</g>
<g>
	<g>
		<path class="st1" d="M51.83,64.72c0.13-0.62-0.44-1.1-1.04-1.05c-0.7,0.06-1.05,0.75-1.25,1.34c-0.12,0.38-0.24,0.76-0.35,1.14
			c-0.09,0.29-0.18,0.61-0.09,0.92c0.12,0.4,0.53,0.61,0.94,0.5c0.34-0.09,0.67-0.37,0.92-0.6c0.57-0.54,0.93-1.2,1.19-1.92
			c-0.25-0.06-0.5-0.12-0.74-0.19c-0.21,0.86-0.15,1.97,0.65,2.52c0.7,0.48,1.8,0.29,2.08-0.58c0.06-0.19-0.05-0.41-0.24-0.48
			c-0.21-0.08-0.4,0.01-0.52,0.18c0.04-0.05-0.12,0.1-0.03,0.03c-0.05,0.04-0.1,0.07-0.16,0.09c0.09-0.05-0.05,0.01-0.08,0.02
			c-0.02,0.01-0.05,0.01-0.07,0.01c0.05-0.01,0.04-0.01-0.01,0c-0.21,0.01-0.39-0.01-0.56-0.13c0.04,0.03-0.09-0.08-0.1-0.09
			c-0.05-0.05-0.04-0.05-0.08-0.1c-0.09-0.13-0.13-0.26-0.17-0.41c-0.06-0.29-0.03-0.59,0.03-0.87c0.11-0.49-0.59-0.65-0.74-0.19
			c-0.17,0.52-0.54,0.99-0.95,1.35c-0.08,0.07-0.17,0.14-0.26,0.2c-0.05,0.03-0.37,0.21-0.38,0.25c0-0.01,0.16,0.09,0.14,0.07
			c0.06,0.05,0,0.08,0.02,0.02c-0.01,0.04,0-0.11,0-0.13c0.01-0.07,0-0.02,0.02-0.08c0.08-0.35,0.18-0.69,0.27-1.04
			c0.07-0.25,0.12-0.52,0.24-0.76c0.09-0.17,0.2-0.32,0.37-0.3c0.05,0.01,0.13,0.04,0.16,0.06c0.05,0.04,0.02,0,0.05,0.05
			c-0.02-0.04-0.01,0.05,0,0C50.97,65.03,51.73,65.2,51.83,64.72L51.83,64.72z"/>
	</g>
</g>
<g>
	<g>
		<path class="st1" d="M54.69,63.55c-0.03,0.74,0.03,1.49,0.19,2.21c0.08,0.35,0.18,0.7,0.3,1.04c0.13,0.38,0.27,0.74,0.54,1.04
			c0.12,0.14,0.36,0.15,0.52,0.06c0.17-0.1,0.24-0.29,0.21-0.48c-0.05-0.33-0.2-0.64-0.3-0.96c-0.1-0.32-0.19-0.65-0.25-0.98
			c-0.13-0.64-0.19-1.29-0.17-1.95C55.73,62.88,54.71,62.91,54.69,63.55L54.69,63.55z"/>
	</g>
</g>
<g>
	<g>
		<path class="st1" d="M56.92,63.5c0.09,0.78,0.19,1.56,0.29,2.35c0.1,0.77,0.21,1.56,0.45,2.31c0.12,0.39,0.68,0.3,0.71-0.1
			c0.05-0.8-0.04-1.6-0.12-2.4c-0.09-0.81-0.18-1.63-0.29-2.44c-0.04-0.29-0.4-0.43-0.65-0.37C57,62.93,56.88,63.21,56.92,63.5
			L56.92,63.5z"/>
	</g>
</g>
<g>
	<g>
		<path class="st1" d="M71.19,4.94c0.98,1.24,2.11,2.63,2.27,4.27c0.13,1.33-0.45,2.52-1.61,3.18c-0.38,0.22-0.14,0.76,0.27,0.68
			c1.62-0.31,2.39-2.23,2.36-3.71c-0.05-2-1.39-3.65-2.59-5.12C71.5,3.75,70.8,4.45,71.19,4.94L71.19,4.94z"/>
	</g>
</g>
<g>
	<g>
		<path class="st1" d="M50.77,4.2c-0.02,1.14,0,2.29,0.05,3.43c0.03,0.56,0.06,1.12,0.11,1.68c0.04,0.53,0.03,1.18,0.26,1.66
			c0.13,0.28,0.6,0.19,0.67-0.1c0.11-0.52-0.02-1.12-0.07-1.64c-0.05-0.56-0.09-1.12-0.12-1.68c-0.06-1.12-0.08-2.24-0.07-3.37
			C51.6,3.66,50.78,3.68,50.77,4.2L50.77,4.2z"/>
	</g>
</g>
<g>
	<g>
		<path class="st1" d="M55.31,7.51C55,7.27,54.69,7.02,54.38,6.78c-0.18-0.14-0.43-0.13-0.56,0.08c-0.31,0.53-0.51,1.1-0.6,1.71
			c-0.08,0.55-0.14,1.26,0.13,1.77c0.32,0.59,1.05,0.59,1.6,0.35c0.43-0.19,0.79-0.56,0.99-0.98c0.23-0.49,0.28-1.07,0.09-1.58
			c-0.13-0.34-0.56-0.32-0.69,0.01c-0.24,0.62-0.15,1.32,0.17,1.89c0.32,0.58,0.93,1.06,1.61,1.06c0.4,0,0.46-0.54,0.1-0.67
			c-0.44-0.16-0.8-0.42-1.04-0.81c-0.24-0.39-0.32-0.85-0.16-1.3c-0.23,0-0.46,0-0.69,0.01c0.16,0.39,0.08,0.79-0.14,1.13
			c-0.21,0.32-0.52,0.55-0.9,0.56c-0.22,0.01-0.25-0.1-0.3-0.3c-0.06-0.27-0.06-0.55-0.04-0.83c0.03-0.58,0.19-1.16,0.46-1.67
			c-0.16,0.05-0.32,0.09-0.48,0.14c0.32,0.23,0.64,0.46,0.96,0.69C55.2,8.24,55.6,7.74,55.31,7.51L55.31,7.51z"/>
	</g>
</g>
<g>
	<g>
		<path class="st1" d="M58.5,9.43c-0.06-0.07,0.02,0.02,0.02,0.02c0,0-0.04-0.05-0.03-0.05c-0.02-0.03-0.04-0.06-0.05-0.09
			c-0.02-0.03-0.03-0.06-0.05-0.09c-0.04-0.08,0.02,0.02,0.01,0.03c0-0.01-0.02-0.06-0.03-0.07c-0.02-0.07-0.04-0.14-0.05-0.22
			c0-0.01-0.01-0.06-0.01-0.06c0,0,0.01,0.09,0.01,0.04c0-0.05-0.01-0.09-0.01-0.14c0-0.02,0.01-0.21,0.01-0.21
			c0.01,0-0.02,0.1,0,0.03c0-0.02,0.01-0.04,0.01-0.06c0.01-0.04,0.02-0.08,0.03-0.12c0.01-0.04,0.03-0.08,0.04-0.11
			c0.03-0.08-0.04,0.09,0.01-0.01c0.04-0.07,0.07-0.14,0.12-0.21c0.01-0.02,0.02-0.03,0.03-0.05c0.03-0.04-0.03,0.04-0.03,0.04
			c0.02-0.01,0.06-0.07,0.08-0.09c0.02-0.02,0.05-0.05,0.08-0.07c0.01-0.01,0.07-0.06,0.01-0.01c-0.07,0.05,0.01,0,0.02-0.01
			c0.06-0.04,0.13-0.07,0.19-0.1c0.04-0.03-0.05,0.02-0.05,0.02c0.01,0,0.04-0.01,0.05-0.02c0.04-0.01,0.08-0.03,0.12-0.04
			c0.02-0.01,0.08-0.01,0.1-0.02c-0.01,0.01-0.11,0.01-0.03,0.01c0.02,0,0.04,0,0.06,0c0.03,0,0.22-0.02,0.23,0
			c0,0-0.09-0.01-0.04,0c0.02,0,0.04,0.01,0.06,0.01c0.03,0.01,0.07,0.01,0.1,0.02c0.04,0.01,0.07,0.02,0.11,0.03
			c0.01,0,0.03,0.01,0.04,0.01c0.05,0.01-0.08-0.04-0.01,0c0.07,0.04,0.15,0.07,0.22,0.11c0.02,0.01,0.03,0.02,0.05,0.03
			c0.04,0.02-0.06-0.05,0,0c0.03,0.03,0.06,0.05,0.09,0.08c0.06,0.06,0.11,0.13,0.17,0.19c-0.06-0.06,0,0.01,0.02,0.04
			c0.03,0.04,0.05,0.08,0.07,0.13c0.08,0.16,0.29,0.2,0.44,0.14c0.16-0.07,0.25-0.24,0.22-0.41c-0.18-0.82-1.08-1.33-1.89-1.27
			c-0.45,0.03-0.88,0.22-1.18,0.57c-0.3,0.35-0.46,0.78-0.48,1.24c-0.02,0.51,0.15,1,0.49,1.38c0.16,0.18,0.49,0.16,0.65-0.01
			C58.68,9.87,58.67,9.63,58.5,9.43L58.5,9.43z"/>
	</g>
</g>
<g>
	<g>
		<path class="st1" d="M63.71,7.73c-1.39,0.12-2.55,1.59-2.08,2.98c0.09,0.25,0.3,0.36,0.56,0.32c1.1-0.17,2.02-0.98,2.33-2.05
			c-0.23,0-0.46,0-0.69,0.01c0.6,1.62,0.75,3.53,0.55,5.25c-0.08,0.7-0.41,1.35-1.19,1.36c-0.66,0.01-1.12-0.55-1.28-1.13
			c-0.09-0.3-0.6-0.33-0.65,0.01c-0.15,0.89,0.4,1.76,1.26,2.04c0.89,0.29,1.91-0.12,2.39-0.91c0.56-0.92,0.41-2.27,0.32-3.29
			c-0.1-1.2-0.39-2.35-0.7-3.51c-0.1-0.37-0.57-0.3-0.69,0.01c-0.29,0.72-0.97,1.26-1.74,1.33c0.15,0.11,0.29,0.22,0.44,0.33
			c-0.21-0.79,0.3-1.74,1.16-1.82C64.28,8.6,64.31,7.67,63.71,7.73L63.71,7.73z"/>
	</g>
</g>
<g>
	<g>
		<path class="st1" d="M66.51,9.66C67,9.71,67.53,9.74,68,9.56c0.45-0.17,0.81-0.5,0.98-0.95c0.14-0.38,0.07-0.82-0.21-1.12
			c-0.22-0.25-0.56-0.38-0.89-0.41c-1.99-0.19-2.28,2.8-1.15,3.89c0.78,0.76,1.97,0.53,2.88,0.16c0.22-0.09,0.39-0.28,0.32-0.53
			c-0.06-0.24-0.3-0.35-0.53-0.3c-0.16,0.03-0.33,0.06-0.49,0.08c-0.08,0.01-0.15,0.03-0.23,0.04c0.11-0.02-0.04,0-0.05,0.01
			c-0.05,0-0.09,0.01-0.14,0.01c-0.16,0.01-0.33,0.01-0.49,0c-0.14,0,0.06,0.01-0.02,0c-0.04-0.01-0.07-0.01-0.11-0.02
			c-0.08-0.02-0.16-0.04-0.24-0.07c-0.13-0.04,0.08,0.05-0.03-0.02c-0.04-0.02-0.08-0.04-0.11-0.06c-0.02-0.01-0.05-0.03-0.07-0.05
			c0.1,0.07-0.03-0.03-0.04-0.04c-0.03-0.03-0.06-0.06-0.08-0.09c-0.01-0.02-0.07-0.1-0.03-0.03c-0.06-0.08-0.11-0.17-0.15-0.25
			c-0.11-0.22-0.21-0.6-0.23-0.86c-0.02-0.3,0.01-0.59,0.15-0.85c0.13-0.24,0.28-0.36,0.5-0.43c0.19-0.06,0.43-0.04,0.61,0.04
			c0.09,0.04,0.16,0.11,0.2,0.17c0.06,0.09,0.09,0.18,0.08,0.31c-0.02,0.31-0.29,0.56-0.55,0.68c-0.39,0.17-0.85,0.13-1.26,0.07
			c-0.22-0.03-0.43,0.07-0.47,0.31C66.12,9.49,66.29,9.64,66.51,9.66L66.51,9.66z"/>
	</g>
</g>
<g>
	<g>
		<path class="st0" d="M115.11,0.4c0.3,11.43,0.38,22.88,0.39,34.31c0.02,11.4-0.1,22.8-0.49,34.19c-0.11,3.2-0.22,6.4-0.32,9.61
			c-0.05,1.58-0.05,3.16-0.04,4.74c0.01,1.66-0.06,3.33-0.02,4.99c0.01,0.54,0.77,0.5,0.83-0.01c0.14-1.41,0.18-2.83,0.29-4.24
			c0.11-1.45,0.25-2.91,0.29-4.37c0.08-2.87,0.15-5.74,0.21-8.61c0.11-5.7,0.15-11.39,0.21-17.09c0.12-11.4,0.14-22.8-0.05-34.19
			c-0.11-6.45-0.29-12.89-0.47-19.34C115.92-0.14,115.09-0.12,115.11,0.4L115.11,0.4z"/>
	</g>
</g>
<g>
	<g>
		<path class="st0" d="M106,74.79c11.48,0.01,22.97,0.12,34.46,0.15c11.51,0.02,23.02,0.06,34.52-0.17
			c6.47-0.13,12.97-0.22,19.43-0.62c0.75-0.05,0.81-1.21,0.02-1.18c-5.77,0.2-11.54,0.51-17.31,0.65
			c-5.73,0.14-11.46,0.23-17.2,0.27c-11.51,0.08-23.01-0.04-34.52-0.17c-6.46-0.07-12.92-0.08-19.38-0.17
			C105.23,73.54,105.18,74.79,106,74.79L106,74.79z"/>
	</g>
</g>
<g>
	<g>
		<path class="st1" d="M128.26,59.95c-1.16,2.71-1.06,6.21,0.83,8.58c0.28,0.35,0.96-0.04,0.8-0.46c-0.5-1.24-0.91-2.52-0.98-3.86
			c-0.06-1.36,0.15-2.67,0.69-3.92c0.15-0.34-0.15-0.75-0.48-0.83C128.72,59.35,128.41,59.6,128.26,59.95L128.26,59.95z"/>
	</g>
</g>
<g>
	<g>
		<path class="st1" d="M153.55,67.71c0.01,0.03,0.03,0.06,0.04,0.08c0.03,0.06-0.01-0.03,0.01,0.01c0.02,0.05,0.04,0.11,0.05,0.16
			c0.01,0.05,0.02,0.1,0.03,0.15c0,0.01,0.01,0.09,0.01,0.04c0-0.05,0,0.04,0,0.05c0.01,0.11,0,0.23-0.01,0.34
			c0.01-0.05,0-0.02,0,0.01c-0.01,0.03-0.01,0.05-0.02,0.08c-0.01,0.06-0.03,0.11-0.05,0.17c-0.01,0.02-0.02,0.05-0.03,0.07
			c0,0.01-0.04,0.09-0.02,0.04c0.02-0.04-0.02,0.03-0.02,0.04c-0.01,0.03-0.03,0.06-0.04,0.08c-0.02,0.05-0.05,0.09-0.08,0.13
			c-0.02,0.03-0.04,0.05-0.05,0.08c0.03-0.04,0.01-0.02-0.01,0.01c-0.07,0.08-0.15,0.16-0.23,0.23c-0.04,0.03-0.08,0.07-0.12,0.1
			c-0.01,0.01-0.09,0.07-0.02,0.02c-0.03,0.02-0.05,0.04-0.08,0.05c-0.13,0.09-0.21,0.25-0.14,0.4c0.06,0.14,0.23,0.24,0.38,0.19
			c0.29-0.1,0.53-0.25,0.73-0.49c0.19-0.23,0.34-0.49,0.44-0.77c0.18-0.54,0.15-1.15-0.12-1.66c-0.09-0.17-0.35-0.23-0.51-0.13
			C153.52,67.32,153.45,67.53,153.55,67.71L153.55,67.71z"/>
	</g>
</g>
<g>
	<g>
		<path class="st1" d="M159.59,63.38c-0.31,0.36-0.62,0.73-0.93,1.09c-0.14,0.16-0.15,0.44,0.07,0.55c0.61,0.3,0.94,1.12,0.64,1.75
			c-0.14,0.29-0.4,0.51-0.7,0.63c-0.37,0.14-0.71,0.06-1.09,0.06c-0.28,0-0.51,0.4-0.26,0.61c0.43,0.35,1.05,0.3,1.54,0.1
			c0.51-0.2,0.95-0.57,1.17-1.08c0.43-0.98-0.01-2.16-0.93-2.67c0.02,0.18,0.05,0.37,0.07,0.55c0.33-0.35,0.65-0.7,0.98-1.05
			C160.48,63.54,159.91,63,159.59,63.38L159.59,63.38z"/>
	</g>
</g>
<g>
	<g>
		<path class="st1" d="M162.16,67.42c-0.06-0.58-0.03-1.16,0.06-1.74c0.04-0.27,0.1-0.53,0.18-0.79c0.04-0.13,0.11-0.36,0.28-0.36
			c0.15,0,0.28,0.17,0.35,0.29c0.11,0.2,0.13,0.39,0.12,0.61c-0.03,0.56-0.15,1.1,0.1,1.63c0.15,0.31,0.59,0.17,0.68-0.1
			c0.21-0.58,0.4-1.16,0.58-1.75c0.05-0.16,0.1-0.32,0.16-0.48c0.03-0.07,0.06-0.18,0.14-0.2c0.14-0.04,0.35,0.24,0.41,0.34
			c0.27,0.43,0.42,0.99,0.48,1.49c0.03,0.27,0.04,0.54,0.02,0.81c-0.02,0.3-0.11,0.58-0.05,0.87c0.06,0.34,0.54,0.35,0.7,0.08
			c0.18-0.31,0.16-0.72,0.15-1.07c-0.01-0.35-0.06-0.71-0.14-1.05c-0.13-0.61-0.36-1.37-0.85-1.8c-0.22-0.19-0.52-0.34-0.81-0.27
			c-0.34,0.08-0.49,0.36-0.6,0.66c-0.28,0.74-0.61,1.45-0.89,2.19c0.23-0.03,0.45-0.07,0.68-0.1c-0.26-0.58,0.06-1.25-0.14-1.85
			c-0.17-0.48-0.6-1-1.16-0.93c-0.68,0.08-0.84,0.83-0.97,1.38c-0.17,0.7-0.23,1.42-0.24,2.14
			C161.37,67.94,162.21,67.9,162.16,67.42L162.16,67.42z"/>
	</g>
</g>
<g>
	<g>
		<path class="st1" d="M170.26,65.41c0.13-0.62-0.44-1.1-1.04-1.05c-0.7,0.06-1.05,0.75-1.25,1.34c-0.12,0.38-0.24,0.76-0.35,1.14
			c-0.09,0.29-0.18,0.61-0.09,0.92c0.12,0.4,0.53,0.61,0.94,0.5c0.34-0.09,0.67-0.37,0.92-0.6c0.57-0.54,0.93-1.2,1.19-1.92
			c-0.25-0.06-0.5-0.12-0.74-0.19c-0.21,0.86-0.15,1.97,0.65,2.52c0.7,0.48,1.8,0.29,2.08-0.58c0.06-0.19-0.05-0.41-0.24-0.48
			c-0.21-0.08-0.4,0.01-0.52,0.18c0.04-0.05-0.12,0.1-0.03,0.03c-0.05,0.04-0.1,0.07-0.16,0.09c0.09-0.05-0.05,0.01-0.08,0.02
			c-0.02,0.01-0.05,0.01-0.07,0.01c0.05-0.01,0.04-0.01-0.01,0c-0.21,0.01-0.39-0.01-0.56-0.13c0.04,0.03-0.09-0.08-0.1-0.09
			c-0.05-0.05-0.04-0.05-0.08-0.1c-0.09-0.13-0.13-0.26-0.17-0.41c-0.06-0.29-0.03-0.59,0.03-0.87c0.11-0.49-0.59-0.65-0.74-0.19
			c-0.17,0.52-0.54,0.99-0.95,1.35c-0.08,0.07-0.17,0.14-0.26,0.2c-0.05,0.03-0.37,0.21-0.38,0.25c0-0.01,0.16,0.09,0.14,0.07
			c0.06,0.05,0,0.08,0.02,0.02c-0.01,0.04,0-0.11,0-0.13c0.01-0.07,0-0.02,0.02-0.08c0.08-0.35,0.18-0.69,0.27-1.04
			c0.07-0.25,0.12-0.52,0.24-0.76c0.09-0.17,0.2-0.32,0.37-0.3c0.05,0.01,0.13,0.04,0.16,0.06c0.05,0.04,0.02,0,0.05,0.05
			c-0.02-0.04-0.01,0.05,0,0C169.41,65.71,170.16,65.89,170.26,65.41L170.26,65.41z"/>
	</g>
</g>
<g>
	<g>
		<path class="st1" d="M173.13,64.23c-0.03,0.74,0.03,1.49,0.19,2.21c0.08,0.35,0.18,0.7,0.3,1.04c0.13,0.38,0.27,0.74,0.54,1.04
			c0.12,0.14,0.36,0.15,0.52,0.06c0.17-0.1,0.24-0.29,0.21-0.48c-0.05-0.33-0.2-0.64-0.3-0.96c-0.1-0.32-0.19-0.65-0.25-0.98
			c-0.13-0.64-0.19-1.29-0.17-1.95C174.17,63.56,173.15,63.59,173.13,64.23L173.13,64.23z"/>
	</g>
</g>
<g>
	<g>
		<path class="st1" d="M175.35,64.18c0.09,0.78,0.19,1.56,0.29,2.35c0.1,0.77,0.21,1.56,0.45,2.31c0.12,0.39,0.68,0.3,0.71-0.1
			c0.05-0.8-0.04-1.6-0.12-2.4c-0.09-0.81-0.18-1.63-0.29-2.44c-0.04-0.29-0.4-0.43-0.65-0.37
			C175.44,63.62,175.32,63.89,175.35,64.18L175.35,64.18z"/>
	</g>
</g>
<g>
	<g>
		<path class="st1" d="M178.12,61.96c0.98,1.24,2.11,2.63,2.27,4.27c0.13,1.33-0.45,2.52-1.61,3.18c-0.38,0.22-0.14,0.76,0.27,0.68
			c1.62-0.31,2.39-2.23,2.36-3.71c-0.05-2-1.39-3.65-2.59-5.12C178.43,60.77,177.73,61.47,178.12,61.96L178.12,61.96z"/>
	</g>
</g>
<g>
	<g>
		<path class="st0" d="M131.4,14.08c7.26,6.06,14.47,12.17,21.64,18.34c7.2,6.19,14.34,12.46,21.44,18.76
			c3.99,3.55,7.94,7.16,12.07,10.56c0.29,0.24,0.72-0.16,0.44-0.44c-3.35-3.33-6.9-6.47-10.43-9.6c-3.54-3.14-7.08-6.27-10.66-9.37
			c-7.18-6.22-14.39-12.41-21.65-18.53c-4.09-3.44-8.2-6.85-12.33-10.24C131.57,13.26,131.04,13.77,131.4,14.08L131.4,14.08z"/>
	</g>
</g>
<g>
	<g>
		<path class="st1" d="M182.47,57.82c0.06,0.41-0.47,0.76-0.86,0.63c-0.42-0.13-0.66-0.68-0.57-1.08c0.01-0.06,0.03-0.11,0.05-0.16
			c-0.02,0.07,0.01-0.02,0.01-0.03c0.01-0.03,0.03-0.05,0.04-0.07c0.01-0.02,0.03-0.05,0.05-0.07c0.01-0.01,0.06-0.08,0.01-0.02
			c0.04-0.05,0.09-0.1,0.14-0.15c0.02-0.02,0.13-0.11,0.06-0.05c0.03-0.02,0.05-0.04,0.08-0.06c-0.04,0.03-0.04,0.03-0.01,0.01
			c0.02-0.02,0.05-0.03,0.07-0.05c0.05-0.03,0.1-0.06,0.15-0.08c0.03-0.01,0.05-0.02,0.08-0.04c-0.09,0.04,0.03-0.01,0.05-0.01
			c0.05-0.02,0.11-0.03,0.17-0.05c0.03-0.01,0.06-0.01,0.08-0.02c-0.09,0.01,0.01,0,0.02,0c0.06,0,0.11-0.01,0.17,0
			c0.03,0,0.06,0,0.08,0.01c-0.09-0.01,0.03,0.01,0.05,0.01c0.06,0.01,0.11,0.03,0.16,0.05c-0.08-0.03,0.01,0,0.02,0.01
			c0.03,0.01,0.05,0.03,0.08,0.04c0.03,0.01,0.05,0.03,0.07,0.05c0.08,0.05-0.05-0.05,0.02,0.01c0.05,0.04,0.09,0.09,0.14,0.13
			c0.06,0.06-0.04-0.06,0.01,0.01c0.01,0.02,0.03,0.04,0.04,0.07c0.03,0.05,0.06,0.09,0.08,0.14c0.01,0.02,0.04,0.1,0.01,0.01
			c0.01,0.03,0.02,0.05,0.03,0.08c0.02,0.06,0.03,0.12,0.05,0.19c0,0.03,0.01,0.05,0.01,0.08c-0.01-0.08,0,0.01,0,0.02
			c0,0.06,0,0.11,0,0.17c0,0.03,0,0.06-0.01,0.08c0,0.01-0.02,0.1,0,0.02c-0.01,0.06-0.02,0.13-0.04,0.19
			c-0.01,0.04-0.03,0.09-0.04,0.13c0.03-0.08,0,0.01-0.01,0.02c-0.01,0.02-0.02,0.05-0.04,0.07c-0.03,0.05-0.06,0.09-0.09,0.13
			c0.05-0.07,0,0-0.01,0.01c-0.02,0.03-0.05,0.05-0.08,0.08c-0.02,0.02-0.04,0.04-0.06,0.05c0.07-0.06,0,0-0.02,0.01
			c-0.05,0.03-0.1,0.06-0.15,0.08c0.07-0.03-0.02,0-0.03,0.01c-0.03,0.01-0.06,0.02-0.09,0.02c-0.01,0-0.1,0.02-0.03,0.01
			c-0.04,0-0.08,0.01-0.12,0.01c-0.03,0-0.06,0-0.09,0c-0.01,0-0.1-0.01-0.03,0c-0.06-0.01-0.12-0.02-0.17-0.04
			c-0.12-0.03-0.17-0.06-0.31-0.14c-0.18-0.11-0.31-0.25-0.42-0.47c0-0.01-0.04-0.1-0.01-0.03c-0.01-0.03-0.02-0.05-0.03-0.08
			c-0.01-0.03-0.01-0.06-0.02-0.08c0-0.01-0.02-0.1-0.01-0.03c-0.01-0.06-0.01-0.12,0-0.18c0-0.01,0.02-0.11,0-0.03
			c0.01-0.03,0.01-0.07,0.02-0.1c0.01-0.03,0.02-0.05,0.03-0.07c0.03-0.08-0.03,0.06,0.01-0.02c0.02-0.04,0.04-0.08,0.07-0.11
			c0.01-0.01,0.06-0.08,0.01-0.01c0.02-0.02,0.03-0.04,0.05-0.06c0.04-0.05,0.09-0.09,0.13-0.13c0.07-0.06-0.07,0.04,0.01-0.01
			c0.02-0.01,0.04-0.03,0.07-0.04c0.05-0.03,0.09-0.05,0.14-0.08c0.02-0.01,0.1-0.04,0.01-0.01c0.02-0.01,0.05-0.02,0.08-0.03
			c0.06-0.02,0.12-0.04,0.18-0.05c0.03-0.01,0.05-0.01,0.08-0.01c-0.09,0.02,0,0,0.01,0c0.05,0,0.11-0.01,0.16,0
			c0.03,0,0.05,0,0.08,0c-0.09-0.01-0.01,0,0.01,0c0.06,0.01,0.12,0.03,0.18,0.04c0.08,0.02-0.07-0.03,0.01,0
			c0.02,0.01,0.05,0.02,0.07,0.03c0.02,0.01,0.05,0.03,0.07,0.04c0.02,0.01,0.08,0.07,0.01,0.01c0.04,0.04,0.08,0.07,0.12,0.11
			c0.02,0.02,0.06,0.09,0.01,0.01c0.02,0.03,0.04,0.06,0.05,0.09c0.01,0.02,0.02,0.05,0.04,0.07c0.04,0.08-0.02-0.08,0,0.01
			c0.01,0.05,0.03,0.1,0.04,0.15c0,0.02,0.01,0.1,0,0.01c0,0.03,0,0.05,0.01,0.08c0,0.06,0,0.12-0.01,0.18
			c-0.01,0.09,0.02-0.07,0,0.01c-0.01,0.03-0.01,0.05-0.02,0.08c-0.01,0.05-0.03,0.09-0.04,0.14c-0.01,0.05,0.04-0.07,0,0
			c-0.01,0.02-0.02,0.05-0.04,0.07c-0.01,0.02-0.03,0.04-0.04,0.06c-0.01,0.01-0.02,0.03-0.03,0.04c0.03-0.04,0.03-0.04,0.01-0.01
			c-0.03,0.04-0.07,0.07-0.1,0.1c0.07-0.06,0.02-0.01,0,0c-0.02,0.01-0.04,0.02-0.06,0.03c-0.06,0.04,0.07-0.01,0,0
			c-0.02,0-0.05,0.01-0.07,0.02c-0.02,0.01-0.09,0-0.01,0c-0.03,0-0.07,0-0.1,0c0.06,0-0.03-0.01-0.04-0.01c0,0-0.11-0.03-0.04-0.01
			c-0.03-0.01-0.06-0.03-0.09-0.04c0,0-0.09-0.06-0.04-0.02c-0.05-0.04-0.1-0.09-0.14-0.14c0.05,0.06-0.02-0.03-0.02-0.03
			c-0.02-0.04-0.04-0.08-0.06-0.12c0.03,0.07-0.01-0.03-0.01-0.04c-0.01-0.03-0.02-0.06-0.02-0.1c0.01,0.07,0-0.03,0-0.04
			c0-0.01,0.02-0.11,0-0.04c0.01-0.03,0.02-0.06,0.03-0.1c0.02-0.09-0.03,0.04,0.02-0.04c0.02-0.03,0.03-0.06,0.05-0.09
			c0.03-0.04,0.03-0.04,0,0c0.01-0.02,0.03-0.03,0.05-0.05c0.02-0.02,0.05-0.05,0.07-0.07c-0.07,0.06,0.01-0.01,0.03-0.02
			c0.03-0.02,0.06-0.04,0.09-0.05c0.02-0.01,0.11-0.04,0.03-0.01c0.03-0.01,0.06-0.02,0.1-0.03c0.01,0,0.12-0.01,0.03-0.01
			c0.03,0,0.07,0,0.1,0c0.05,0,0.04,0,0,0c0.02,0,0.03,0.01,0.05,0.01c0.03,0.01,0.05,0.01,0.07,0.02c-0.09-0.02-0.02-0.01,0,0
			c0.02,0.01,0.04,0.02,0.07,0.04c0.08,0.05,0.01,0,0,0c0.01,0,0.09,0.08,0.09,0.09c0,0,0.05,0.05,0.05,0.06
			c-0.04-0.05-0.04-0.05-0.02-0.02c0.01,0.01,0.02,0.03,0.03,0.04c0.03,0.04,0.05,0.09,0.07,0.14c0.04,0.08-0.02-0.08,0,0
			c0.01,0.03,0.02,0.05,0.02,0.08c0.01,0.05,0.02,0.1,0.03,0.15c-0.02-0.1,0-0.02,0,0.01c0,0.03,0,0.07,0,0.1
			c0,0.03,0,0.05-0.01,0.08c0.01-0.1,0-0.02,0,0c-0.01,0.02-0.02,0.05-0.02,0.07c-0.02,0.08,0.04-0.07,0,0.01
			c-0.01,0.02-0.02,0.04-0.04,0.07c-0.01,0.02-0.07,0.08,0,0.01c-0.02,0.02-0.03,0.04-0.05,0.06c-0.01,0.01-0.03,0.02-0.04,0.04
			c0.04-0.03,0.05-0.04,0.01-0.01c-0.02,0.01-0.04,0.03-0.07,0.04c-0.03,0.01-0.09,0.03-0.01,0.01c-0.03,0.01-0.05,0.02-0.08,0.02
			c-0.02,0-0.1,0.01-0.01,0c-0.05,0-0.11,0-0.16,0c-0.09,0,0.07,0.02-0.01,0c-0.04-0.01-0.07-0.01-0.11-0.02
			c-0.03-0.01-0.05-0.02-0.08-0.02c0.08,0.03,0,0-0.01-0.01c-0.05-0.02-0.1-0.05-0.14-0.08c-0.08-0.05,0.05,0.05-0.01-0.01
			c-0.02-0.02-0.04-0.03-0.06-0.05c-0.02-0.02-0.04-0.04-0.06-0.06c-0.01-0.01-0.02-0.03-0.03-0.04c0.03,0.04,0.04,0.05,0.01,0.01
			c-0.03-0.05-0.05-0.09-0.08-0.14c0.04,0.09,0.01,0.01,0-0.01c-0.01-0.03-0.01-0.05-0.02-0.08c-0.02-0.08,0,0.07,0-0.01
			c0-0.02,0-0.05,0-0.07c0-0.05-0.03,0.07,0-0.01c0.01-0.02,0.01-0.04,0.02-0.06c-0.02,0.04-0.02,0.04,0,0
			c0.02-0.03,0.03-0.05,0.05-0.08c0.05-0.08-0.05,0.04,0.02-0.02c0.02-0.02,0.05-0.04,0.07-0.06c0.07-0.07-0.07,0.03,0.02-0.01
			c0.03-0.01,0.05-0.03,0.08-0.05c0.02-0.01,0.11-0.03,0.02-0.01c0.03-0.01,0.06-0.02,0.09-0.03c0.04-0.01,0.04-0.01,0,0
			c0.02,0,0.04,0,0.06,0c0.01,0,0.11,0.01,0.03,0c0.03,0.01,0.06,0.01,0.09,0.02c0.08,0.02-0.05-0.04,0.02,0.01
			c0.01,0.01,0.09,0.06,0.02,0.01c0.02,0.02,0.04,0.04,0.06,0.06c0.01,0.01,0.07,0.09,0.02,0.01c0.02,0.02,0.03,0.05,0.05,0.07
			c0.01,0.02,0.06,0.13,0.03,0.04c0.02,0.06,0.03,0.11,0.05,0.17c-0.02-0.08,0,0.01,0,0.02c0,0.03,0,0.06,0,0.09
			c0,0.09,0.02-0.06,0,0.02c-0.01,0.03-0.02,0.06-0.02,0.08c-0.02,0.08,0.04-0.05-0.01,0.02c-0.01,0.02-0.09,0.11-0.03,0.05
			c-0.02,0.02-0.04,0.04-0.06,0.06c-0.06,0.06,0.06-0.03-0.02,0.01c-0.03,0.01-0.05,0.03-0.08,0.04c-0.08,0.05,0.07-0.01-0.02,0.01
			c-0.03,0.01-0.06,0.02-0.09,0.02c-0.09,0.03,0.06,0-0.03,0.01c-0.03,0-0.06,0-0.09,0c-0.02,0-0.04,0-0.06,0c0.04,0.01,0.04,0,0,0
			c-0.03-0.01-0.06-0.01-0.09-0.02c0.07,0.02-0.01-0.01-0.03-0.01c-0.03-0.01-0.05-0.03-0.08-0.05c0.06,0.04-0.01-0.02-0.02-0.02
			c-0.01-0.01-0.07-0.08-0.02-0.02c-0.02-0.02-0.03-0.05-0.05-0.08c0,0-0.04-0.09-0.02-0.04c0.02,0.04-0.02-0.06-0.02-0.07
			c-0.01-0.03-0.01-0.06-0.02-0.09c0.01,0.08,0-0.02,0-0.03c0-0.03,0-0.06,0-0.09c0.01-0.09-0.02,0.06,0.01-0.03
			c0.01-0.03,0.02-0.06,0.03-0.09c0.02-0.09-0.04,0.05,0.01-0.03c0.02-0.03,0.03-0.05,0.05-0.08c0.02-0.03,0.02-0.03,0,0
			c0.01-0.02,0.03-0.03,0.04-0.04c0.01-0.01,0.09-0.07,0.01-0.02c0.03-0.02,0.05-0.03,0.08-0.05c0.08-0.05-0.07,0.01,0.02-0.01
			c0.03-0.01,0.06-0.02,0.09-0.02c0.09-0.02-0.07,0,0.02,0c0.03,0,0.06,0,0.09,0c0.09,0-0.06-0.02,0.03,0
			c0.04,0.01,0.08,0.02,0.12,0.03c0.09,0.02-0.06-0.04,0.02,0.01c0.03,0.01,0.05,0.03,0.08,0.04c0.08,0.04-0.05-0.05,0.02,0.01
			c0.02,0.02,0.04,0.04,0.07,0.06c0.02,0.02,0.06,0.09,0.01,0.01c0.02,0.03,0.03,0.05,0.05,0.08c0.05,0.08-0.02-0.06,0.02,0.05
			c0.01,0.04,0.01,0.05,0.01,0.02c0,0.03,0,0.05,0,0.08c0-0.02,0.03-0.07,0-0.01c0.04-0.07,0.01-0.01-0.01,0.01
			c0.06-0.06,0.02-0.02-0.01,0c0.08-0.05,0.01-0.01-0.01,0c-0.08,0.02,0.06,0.01-0.02,0c-0.01,0-0.11-0.01-0.03,0
			c-0.03-0.01-0.06-0.01-0.09-0.02c0.08,0.02-0.03-0.02-0.05-0.03c0.08,0.04-0.01-0.01-0.03-0.03c0,0-0.08-0.09-0.04-0.03
			c-0.05-0.06-0.08-0.12-0.11-0.19c0,0-0.05-0.11-0.02-0.05c-0.01-0.03-0.03-0.07-0.04-0.11c-0.02-0.07-0.05-0.14-0.07-0.21
			c-0.01,0.09-0.03,0.18-0.04,0.28c0.02-0.03,0-0.03-0.02,0.02c0-0.01,0.02-0.02,0.02-0.03c0.01-0.02,0.06-0.04,0-0.01
			c-0.05,0.03-0.01,0.01,0,0c0.09-0.04-0.05,0,0.01-0.01c0.02-0.01,0.07-0.03,0.09-0.02c0,0-0.1,0-0.03,0.01c0.01,0,0.02,0,0.04,0
			c0.02,0,0.03,0,0.05,0c0.04,0-0.04,0-0.04,0c0,0,0.09,0.02,0.1,0.02c0.04,0.01,0.01-0.01,0,0c-0.03-0.01-0.03-0.01,0,0
			c0.01,0,0.01,0.01,0.02,0.01c0.02,0.01,0.05,0.03,0.07,0.04c0.04,0.02-0.05-0.05-0.02-0.02c0.01,0.01,0.02,0.02,0.03,0.02
			c0.01,0.01,0.02,0.02,0.03,0.03c0.04,0.03,0-0.02-0.02-0.03c0.01,0,0.05,0.08,0.05,0.08c-0.01,0.01-0.03-0.1-0.01-0.03
			c0,0.01,0,0.03,0.01,0.04c0.02,0.03,0.01-0.07,0-0.03c0,0.01,0,0.03,0,0.04c0,0.02,0,0.04,0,0.05c0-0.02,0.02-0.08,0-0.02
			c0,0.01-0.01,0.03-0.01,0.04c0,0.04,0.04-0.06,0-0.01c-0.01,0.01-0.02,0.03-0.03,0.04c-0.01,0.02-0.03,0.02,0,0
			c0.04-0.03,0,0-0.01,0.01c-0.01,0.01-0.02,0.02-0.03,0.03c0,0-0.04,0.04-0.04,0.03c-0.01,0,0.09-0.06,0.02-0.02
			c-0.01,0.01-0.09,0.06-0.09,0.05c0,0,0.1-0.03,0.02-0.01c-0.01,0-0.03,0.01-0.04,0.01c-0.03,0.01-0.06,0.01-0.09,0.02
			c0.1-0.02,0,0-0.03,0c-0.01,0-0.03,0-0.04,0c-0.04,0,0.07,0.02,0.01,0c-0.02-0.01-0.03-0.01-0.05-0.01c-0.02-0.01-0.03-0.02,0,0
			c0.04,0.03-0.03-0.02-0.05-0.03c0.07,0.04,0.03,0.03,0.01,0.01c-0.01-0.02-0.03-0.03-0.04-0.04c0.01,0.01,0.03,0.05,0.02,0.02
			c-0.01-0.02-0.03-0.05-0.04-0.07c0.04,0.07,0,0-0.01-0.04c0-0.01-0.02-0.08-0.01-0.03c0.01,0.04,0,0,0-0.01c0-0.02,0-0.04,0-0.06
			c0-0.03,0.02-0.06,0,0.01c0-0.01,0.01-0.03,0.01-0.04c0.02-0.05,0.02-0.04,0,0c0.01-0.02,0.02-0.04,0.03-0.05
			c-0.01,0.02-0.04,0.05-0.01,0.01c0.06-0.06-0.02,0.02-0.02,0.01c0,0,0.09-0.06,0.02-0.01c-0.05,0.03-0.02,0.01,0,0
			c0.03-0.01,0.06-0.03,0.02-0.01c-0.04,0.02-0.02,0,0.01,0c0.07,0-0.01-0.01-0.01,0c0,0,0.04,0.01,0.04,0.01
			c0.08,0.02,0-0.01-0.01-0.01c0.01,0,0.09,0.05,0.09,0.05c-0.01,0.02-0.06-0.06-0.02-0.01c0.01,0.01,0.01,0.01,0.02,0.02
			c0.02,0.03,0.02,0.02,0,0c-0.02,0-0.02-0.03,0,0c-0.05-0.11,0,0.04-0.01-0.07c0.02,0.2,0.16,0.39,0.38,0.37
			c0.18-0.01,0.41-0.17,0.39-0.38c-0.03-0.27-0.13-0.49-0.37-0.64c-0.2-0.12-0.47-0.16-0.7-0.11c-0.53,0.13-0.77,0.75-0.58,1.23
			c0.19,0.49,0.65,0.73,1.17,0.64c0.45-0.09,0.82-0.44,0.89-0.9c0.06-0.46-0.29-0.82-0.69-0.96c-0.4-0.14-0.89-0.01-1.12,0.36
			c-0.15,0.24,0.04,0.62,0.16,0.84c0.11,0.22,0.29,0.43,0.52,0.54c0.47,0.22,1.1,0.07,1.25-0.48c0.15-0.56-0.3-1.05-0.8-1.21
			c-0.47-0.15-0.99,0.02-1.28,0.42c-0.26,0.36-0.28,0.88-0.07,1.27c0.23,0.42,0.73,0.6,1.19,0.53c0.45-0.07,0.85-0.41,0.94-0.86
			c0.09-0.48-0.12-0.95-0.52-1.22c-0.42-0.28-0.98-0.18-1.35,0.14c-0.38,0.33-0.47,0.83-0.28,1.28c0.33,0.78,1.45,1.04,2.09,0.5
			c0.66-0.55,0.45-1.63-0.2-2.09c-0.38-0.28-0.91-0.25-1.31-0.02c-0.45,0.26-0.72,0.79-0.62,1.31c0.09,0.46,0.47,0.88,0.94,0.97
			c0.4,0.08,0.81-0.06,1.07-0.37c0.5-0.58,0.55-1.58-0.1-2.07c-0.64-0.49-1.55-0.35-2.14,0.15c-0.29,0.25-0.48,0.63-0.5,1.02
			c-0.02,0.42,0.18,0.83,0.47,1.12c0.6,0.61,1.55,0.78,2.23,0.21c0.61-0.51,0.71-1.45,0.38-2.14c-0.36-0.75-1.28-1.01-2.02-0.73
			c-0.4,0.15-0.74,0.4-0.97,0.76c-0.23,0.36-0.29,0.81-0.18,1.22c0.11,0.42,0.38,0.82,0.77,1.01c0.41,0.2,0.9,0.17,1.28-0.1
			c0.38-0.27,0.61-0.69,0.54-1.16c-0.02-0.15-0.21-0.24-0.35-0.2C182.52,57.51,182.45,57.67,182.47,57.82L182.47,57.82z"/>
	</g>
</g>
<g>
	<g>
		<path class="st1" d="M136.96,18.28c0.07-0.04-0.06,0.01-0.02,0c0.04-0.01-0.01,0-0.02-0.01c0,0,0.05,0.02,0.01,0
			c-0.04-0.02,0.08,0.05,0.01,0c0.02,0.01,0.09,0.09,0.05,0.04c0.02,0.02,0.03,0.05,0.05,0.08c0.03,0.05,0.01,0.02,0,0
			c0,0.01,0.01,0.03,0.01,0.04c0,0.01,0.01,0.03,0.01,0.04c-0.01-0.07,0,0,0,0c0,0,0,0.05,0,0.02c0-0.04-0.02,0.06,0-0.01
			c-0.02,0.05,0.01-0.01-0.02,0.03c-0.01,0.01-0.05,0.05,0,0.01c-0.01,0.01-0.03,0.02-0.04,0.03c-0.01,0.01-0.03,0.02-0.04,0.02
			c0.02-0.01,0.05-0.01-0.01,0c-0.02,0-0.03,0.01-0.05,0.01c-0.05,0.01,0.04,0-0.01,0c-0.1,0.01-0.1,0.01-0.19-0.01
			c-0.07-0.02-0.11-0.04-0.15-0.06c0.02,0.02-0.02-0.02-0.02-0.02c-0.02-0.01-0.03-0.03-0.05-0.04c-0.02-0.02-0.06-0.07-0.02-0.02
			c-0.02-0.03-0.04-0.06-0.06-0.09c-0.01-0.01-0.01-0.03-0.02-0.04c0-0.01-0.04-0.08-0.02-0.04c0.01,0.04-0.01-0.04-0.02-0.06
			c-0.01-0.03-0.02-0.07-0.02-0.1c-0.01-0.06,0,0.04,0-0.05c0-0.04,0-0.07,0-0.11c0-0.01,0.01-0.11,0.01-0.08
			c-0.01,0.03,0.01-0.06,0.02-0.07c0.01-0.03,0.02-0.06,0.03-0.09c0.02-0.06,0-0.01,0,0c0.01-0.02,0.02-0.04,0.03-0.05
			c0.02-0.03,0.04-0.06,0.05-0.09c0.01-0.01,0.02-0.03,0.03-0.04c-0.01,0.01-0.05,0.06-0.01,0.01c0.02-0.02,0.04-0.04,0.06-0.06
			c0.01-0.01,0.02-0.02,0.03-0.03c0.03-0.03-0.06,0.04,0,0c0.03-0.01,0.05-0.03,0.08-0.05c0.06-0.04,0,0-0.01,0
			c0.02-0.01,0.03-0.01,0.05-0.02c0.04-0.01,0.08-0.02,0.12-0.03c0.01,0,0.06-0.01,0.01,0c-0.06,0.01,0.05,0,0.05,0
			c0.03,0,0.1,0,0.03,0c0.04,0,0.08,0.01,0.12,0.02c0.02,0.01,0.13,0.04,0.05,0.01c0.04,0.01,0.07,0.03,0.11,0.05
			c0.04,0.02,0.07,0.04,0.1,0.06c-0.06-0.04,0.02,0.02,0.04,0.03c0.03,0.02,0.05,0.05,0.07,0.07c0.02,0.02,0.03,0.03,0.05,0.05
			c0.04,0.04-0.03-0.05,0,0c0.02,0.03,0.04,0.07,0.06,0.1c0.01,0.03,0.04,0.09,0.02,0.03c0.01,0.04,0.02,0.07,0.03,0.11
			c0,0.02,0.01,0.03,0.01,0.05c-0.01-0.05,0-0.02,0,0.02c0,0.04,0,0.07,0,0.1c-0.01,0.06,0.01-0.05,0,0.01
			c0,0.02-0.01,0.04-0.01,0.05c-0.01,0.02-0.01,0.04-0.02,0.05c-0.02,0.06,0.02-0.05,0,0.01c-0.02,0.04-0.04,0.08-0.06,0.11
			c-0.01,0.02-0.03,0.04-0.04,0.06c0-0.01,0.03-0.04,0-0.01c-0.03,0.03-0.06,0.07-0.09,0.1c-0.03,0.03-0.06,0.05-0.09,0.08
			c0.05-0.04-0.05,0.03-0.07,0.04c-0.24,0.14-0.53,0.17-0.78,0.04c-0.03-0.02-0.07-0.04-0.1-0.05c-0.02-0.01-0.04-0.03-0.06-0.04
			c0.01,0,0.03,0.03,0,0c-0.07-0.05-0.13-0.11-0.19-0.18c-0.01-0.01-0.05-0.07-0.03-0.03c0.02,0.03-0.01-0.02-0.01-0.02
			c-0.02-0.04-0.05-0.07-0.07-0.11c-0.02-0.03-0.03-0.07-0.05-0.1c-0.03-0.06,0.02,0.05,0-0.01c-0.01-0.02-0.02-0.05-0.02-0.07
			c-0.01-0.04-0.02-0.08-0.03-0.13c0.01,0.05,0-0.03,0-0.05c0-0.04,0-0.09,0-0.13c0-0.04,0,0,0,0.01c0.01-0.03,0.01-0.06,0.02-0.09
			c0.01-0.04,0.02-0.08,0.04-0.12c-0.02,0.06,0.01-0.02,0.02-0.03c0.02-0.04,0.04-0.07,0.06-0.1c0.01-0.01,0.02-0.03,0.03-0.04
			c-0.02,0.03-0.02,0.02,0,0c0.03-0.03,0.06-0.06,0.09-0.09c0.02-0.02,0.1-0.09,0.04-0.04c0.07-0.05,0.14-0.09,0.21-0.13
			c0.02-0.01,0.04-0.02,0.06-0.03c-0.01,0-0.06,0.02-0.02,0.01c0.04-0.01,0.08-0.03,0.12-0.04c0.03-0.01,0.07-0.02,0.1-0.02
			c-0.08,0.01,0.04,0,0.07,0c0.02,0,0.03,0,0.05,0c0.06,0-0.06-0.01,0,0c0.03,0.01,0.07,0.01,0.1,0.02c0.01,0,0.08,0.03,0.03,0.01
			c-0.04-0.01,0,0,0.01,0.01c0.04,0.02,0.07,0.04,0.11,0.06c0.06,0.03-0.03-0.04,0.02,0.01c0.03,0.02,0.05,0.05,0.08,0.07
			c0.03,0.03,0.05,0.05,0.07,0.08c-0.05-0.06,0,0,0.02,0.03c0.02,0.03,0.04,0.06,0.05,0.09c0.01,0.01,0.01,0.03,0.02,0.04
			c0.03,0.05-0.02-0.06,0-0.01c0.02,0.07,0.05,0.14,0.06,0.21c0.01,0.03,0.01,0.12,0.01,0.04c0,0.03,0,0.06,0,0.09
			c0,0.04,0,0.07-0.01,0.11c0,0.02,0,0.03-0.01,0.05c0.01-0.08,0-0.01,0,0.01c-0.01,0.03-0.02,0.07-0.03,0.1
			c-0.02,0.07,0.03-0.04-0.01,0.02c-0.02,0.03-0.03,0.06-0.05,0.09c-0.01,0.01-0.02,0.03-0.03,0.04c0.03-0.04,0.02-0.02-0.01,0
			c-0.02,0.02-0.05,0.04-0.07,0.06c-0.03,0.03,0.02-0.01,0.02-0.02c-0.02,0.01-0.03,0.02-0.05,0.03c-0.03,0.02-0.05,0.03-0.08,0.04
			c-0.06,0.03,0,0,0.01-0.01c-0.02,0.01-0.04,0.01-0.06,0.02c-0.03,0.01-0.07,0.02-0.1,0.02c-0.04,0.01,0.02,0,0.02,0
			c-0.02,0-0.04,0-0.06,0.01c-0.03,0-0.06,0-0.09,0c-0.02,0-0.04,0-0.06,0c0.03,0,0.04,0.01,0.01,0c-0.06-0.01-0.13-0.03-0.19-0.05
			c-0.05-0.02,0.05,0.02,0.01,0c-0.01-0.01-0.03-0.01-0.04-0.02c-0.04-0.02-0.07-0.04-0.1-0.06c-0.03-0.02-0.07-0.05-0.02-0.01
			c-0.03-0.02-0.05-0.04-0.08-0.07c-0.02-0.02-0.05-0.05-0.07-0.07c-0.01-0.01-0.03-0.05-0.01-0.01c0.03,0.05-0.02-0.03-0.02-0.03
			c-0.02-0.02-0.03-0.05-0.04-0.08c-0.03-0.06,0.01,0.06-0.01-0.03c-0.02-0.08-0.03-0.13-0.02-0.21c0.01-0.06,0.02-0.11,0.06-0.17
			c0.02-0.04,0.08-0.08,0.12-0.11c0.02-0.01,0.12-0.06,0.06-0.04c0.04-0.02,0.08-0.03,0.11-0.04c0.02-0.01,0.05-0.01,0.07-0.02
			c0,0,0.06-0.01,0.02-0.01c-0.04,0.01,0.01,0,0.02,0c0.03,0,0.06,0,0.09,0c0.04,0,0.07,0,0.11,0c0.06,0-0.05-0.01,0.01,0
			c0.02,0,0.04,0.01,0.05,0.01c0.04,0.01,0.08,0.02,0.12,0.03c0.02,0,0.03,0.01,0.05,0.02c-0.04-0.01-0.02-0.01,0.01,0
			c0.04,0.02,0.07,0.04,0.11,0.06c0.02,0.01,0.11,0.07,0.05,0.03c0.06,0.05,0.13,0.11,0.18,0.17c-0.04-0.05,0.02,0.03,0.03,0.05
			c0.01,0.01,0.05,0.09,0.04,0.06c-0.02-0.04,0.01,0.03,0.01,0.04c0,0.02,0.01,0.03,0.01,0.05c0.01,0.02,0.02,0.14,0.01,0.07
			c0,0.03,0,0.07,0,0.1c0,0.02,0,0.05-0.01,0.07c0-0.01,0.01-0.05,0-0.01c-0.01,0.04-0.02,0.08-0.03,0.12
			c-0.01,0.02-0.01,0.03-0.02,0.05c-0.02,0.06,0.04-0.07-0.01,0.02c-0.02,0.03-0.03,0.06-0.05,0.09c-0.01,0.02-0.02,0.04-0.04,0.06
			c0-0.01,0.03-0.04,0.01-0.01c-0.03,0.03-0.05,0.06-0.08,0.09c-0.01,0.01-0.02,0.02-0.04,0.03c-0.04,0.04,0.05-0.03,0,0
			c-0.03,0.02-0.07,0.04-0.1,0.06c0.06-0.03-0.01,0-0.03,0.01c-0.02,0.01-0.04,0.01-0.07,0.01c0.01,0,0.05,0,0,0
			c-0.02,0-0.04,0-0.06,0c-0.1,0,0.02,0.01-0.04,0c-0.04-0.01-0.09-0.02-0.13-0.03c0.04,0.02-0.04-0.02-0.05-0.03
			c-0.1-0.05-0.1-0.05-0.18-0.14c-0.01-0.01-0.03-0.03-0.04-0.04c0.01,0.01,0.03,0.04,0,0c-0.03-0.04-0.05-0.07-0.07-0.11
			c-0.01-0.02-0.02-0.03-0.02-0.05c-0.03-0.06,0.01,0.05,0-0.01c-0.01-0.04-0.02-0.08-0.03-0.13c0.01,0.05,0-0.05,0-0.07
			c0-0.02,0-0.04,0-0.06c-0.01,0.06,0-0.01,0.01-0.01c0.01-0.04,0.02-0.07,0.03-0.11c-0.02,0.05,0,0,0.01-0.01
			c0.01-0.02,0.02-0.04,0.04-0.07c0.01-0.02,0.02-0.03,0.03-0.05c0.03-0.05-0.03,0.04,0.01-0.01c0.02-0.03,0.05-0.06,0.08-0.08
			c0.02-0.02,0.11-0.08,0.05-0.04c0.04-0.03,0.09-0.05,0.13-0.08c0.06-0.04-0.03,0,0.04-0.02c0.04-0.01,0.08-0.02,0.13-0.03
			c0.04-0.01,0,0-0.01,0c0.02,0,0.05,0,0.08,0c0.02,0,0.04,0,0.06,0c0.06,0-0.07-0.02,0.04,0.01c0.08,0.02,0.11,0.04,0.16,0.07
			c-0.03-0.02,0.02,0.02,0.02,0.02c0,0.01-0.05-0.09-0.01-0.01c0,0.01,0.01,0.03,0.02,0.04c0.02,0.02-0.01-0.05-0.01-0.02
			c0,0.02,0.01,0.04,0.01,0.06c0.01,0.04-0.01-0.03,0-0.03c0,0.01-0.01,0.12,0,0.06c0.01-0.05-0.01,0.03-0.02,0.05
			c0,0.01-0.01,0.03-0.01,0.04c0.02-0.08,0.01-0.03,0,0c-0.02,0.03-0.08,0.1-0.01,0.03c-0.02,0.02-0.04,0.04-0.06,0.07
			c-0.05,0.06,0.06-0.05-0.02,0.01c0,0-0.04,0.02-0.04,0.02c0,0,0.1-0.03,0.01-0.01c-0.01,0-0.03,0.01-0.04,0.01
			c0,0,0.08-0.02,0.04-0.01c-0.01,0-0.08,0-0.02,0c0.05,0.01,0,0-0.01,0c-0.01,0-0.03-0.01-0.04-0.01c-0.05-0.01,0.05,0.04,0.02,0
			c-0.01-0.01-0.03-0.02-0.04-0.02c-0.05-0.02-0.01-0.01,0.01,0.01c-0.02-0.02-0.05-0.05-0.08-0.08c-0.03-0.03,0.02,0.02,0.02,0.03
			c-0.01-0.02-0.02-0.03-0.03-0.05c-0.02-0.03-0.03-0.06-0.04-0.08c0.05,0.09,0-0.01-0.01-0.04c0-0.02-0.01-0.04-0.01-0.06
			c0,0.01,0,0.07,0,0.03c0-0.03,0-0.08,0-0.11c0,0.07,0,0.03,0.01-0.01c0-0.01,0.02-0.06,0-0.01c-0.02,0.06,0.01-0.02,0.02-0.03
			c0.04-0.07-0.05,0.04,0.01-0.01c0,0,0.04-0.05,0.05-0.05c0.01,0-0.08,0.05-0.03,0.02c0.03-0.01,0.07-0.04,0.1-0.06
			c0.02-0.01,0.05-0.01,0,0c-0.07,0.01,0.03-0.01,0.04-0.01c0.04-0.01,0.09-0.01,0.02-0.01c0.04,0,0.08,0,0.12-0.01
			c0.02,0,0.03,0,0.05,0c-0.01,0-0.09-0.02-0.01,0c0.04,0.01,0.08,0.02,0.11,0.03c0.02,0,0.08,0.03,0.03,0.01
			c-0.05-0.02,0,0,0.01,0.01c0.02,0.01,0.11,0.07,0.07,0.04c-0.04-0.03,0.04,0.04,0.05,0.05c0.01,0.01,0.06,0.07,0.02,0.03
			c-0.03-0.04,0.01,0.02,0.02,0.03c0.02,0.03,0.05,0.13,0.03,0.05c0.01,0.04,0.02,0.07,0.03,0.11c0.02,0.07,0.01,0.02,0,0
			c0,0.02,0,0.04,0,0.06c0,0.02,0,0.04,0,0.06c0,0.08,0.01-0.02,0,0.02c-0.01,0.02-0.01,0.04-0.02,0.05c0-0.01,0.03-0.06,0.01-0.01
			c-0.01,0.02-0.03,0.04-0.04,0.06c-0.02,0.04,0.01-0.01,0.02-0.02c-0.01,0.01-0.02,0.02-0.03,0.03c-0.02,0.02-0.07,0.03-0.02,0.02
			c0.05-0.02,0,0-0.01,0c-0.05,0.01-0.01,0,0.01,0c-0.01,0-0.13,0.03-0.07,0.02c0.05-0.01-0.06,0-0.08,0c0.01,0,0.07,0.02,0.03,0
			c-0.01,0-0.03-0.01-0.05-0.01c-0.07-0.01-0.01,0,0.01,0.01c-0.02-0.01-0.04-0.02-0.06-0.03c-0.04-0.02-0.03-0.04,0.01,0.01
			c-0.01-0.01-0.02-0.02-0.03-0.03c-0.03-0.04,0.02,0.02,0.02,0.02c-0.01-0.02-0.02-0.04-0.03-0.05c0.03,0.05,0.02,0.04,0.01-0.01
			c0,0.02,0,0.09,0,0.02c0-0.02,0-0.04,0-0.06c0,0.01-0.02,0.07,0,0.03c0.01-0.02,0.02-0.04,0.02-0.06c0-0.04-0.01,0.02-0.01,0.03
			c0.01-0.01,0.01-0.03,0.02-0.04c0.02-0.04,0.07-0.09,0.01-0.03c0.01-0.01,0.07-0.09,0.09-0.09c0.01,0-0.08,0.05-0.03,0.02
			c0.01-0.01,0.03-0.02,0.04-0.02c0.06-0.04-0.03,0.02-0.02,0.01c0,0,0.04-0.01,0.04-0.01c0.09-0.02-0.04-0.01,0.03,0
			c0.01,0,0.06,0.01,0.01,0c-0.06-0.01,0.03,0.01,0.03,0.01c0.01,0,0.01,0,0.02,0c-0.05-0.02-0.05-0.02-0.03-0.01
			c0.01,0.01,0.03,0.02,0.04,0.02c0.01,0,0.06,0.03,0.01,0c-0.05-0.03,0.01,0.01,0.02,0.02c0.02,0.02,0.05,0.05,0.07,0.07
			c0.04,0.04-0.03-0.06-0.01-0.01c0.01,0.02,0.02,0.04,0.04,0.06c0.01,0.01,0.01,0.03,0.02,0.05c-0.04-0.06-0.01-0.04,0-0.01
			c0.01,0.03,0.02,0.07,0.03,0.1c0.02,0.07,0,0.01,0-0.01c0,0.02,0,0.03,0,0.05c0,0.02,0,0.03,0,0.05c0,0.09,0.02-0.03,0,0.01
			c-0.01,0.01-0.01,0.03-0.01,0.04c-0.01,0.06,0.01-0.01,0.01-0.02c0,0.02-0.03,0.05-0.04,0.07c-0.03,0.06,0.06-0.06-0.01,0.01
			c-0.01,0.01-0.06,0.07-0.07,0.06c-0.02-0.01,0.09-0.05,0.03-0.02c-0.01,0.01-0.02,0.01-0.03,0.02c-0.02,0.01-0.07,0.05-0.08,0.04
			c-0.01,0,0.09-0.03,0.04-0.02c-0.01,0-0.03,0.01-0.04,0.01c-0.04,0.01-0.07,0.02-0.11,0.03c-0.07,0.02,0.08,0-0.02,0
			c-0.03,0-0.06,0-0.1,0c-0.03,0-0.06,0-0.08,0c0.09,0,0.01,0-0.03-0.01c-0.02,0-0.12-0.03-0.06-0.01c0.05,0.02-0.02-0.01-0.04-0.02
			c-0.03-0.01-0.05-0.03-0.08-0.05c0.07,0.04,0.02,0.01-0.02-0.02c-0.01-0.01-0.02-0.02-0.03-0.03c-0.04-0.03,0.03,0.03,0.03,0.03
			c-0.02,0-0.04-0.07-0.05-0.08c-0.02-0.03,0.01,0.03,0.01,0.04c-0.01-0.02-0.01-0.04-0.02-0.06c0-0.01,0-0.03-0.01-0.05
			c-0.02-0.04-0.01,0.05,0,0.01c0.01-0.03,0-0.07,0-0.11c-0.01,0.08,0,0.01,0.01-0.03c0-0.01,0.01-0.03,0.02-0.04
			c0,0.01-0.04,0.06-0.01,0.03c0.02-0.03,0.05-0.07,0.06-0.11c0.02-0.04-0.02,0.02-0.02,0.02c0.01-0.02,0.03-0.03,0.04-0.05
			c0.02-0.02,0.04-0.05,0.07-0.07c0.02-0.01,0.03-0.03,0.05-0.04c0,0-0.07,0.04-0.03,0.02c0.04-0.02,0.07-0.05,0.11-0.07
			c0.01-0.01,0.03-0.01,0.04-0.02c-0.01,0.01-0.09,0.03-0.02,0.01c0.03-0.01,0.06-0.02,0.09-0.03c0.02-0.01,0.08-0.01-0.01,0
			c0.02,0,0.03,0,0.05,0c0.01,0,0.03,0,0.05,0c0.07-0.01-0.03-0.02,0,0c0.01,0.01,0.1,0.03,0.06,0.01
			c-0.04-0.01,0.05,0.03,0.07,0.04c-0.05-0.03,0.02,0.02,0.04,0.03c0.05,0.04,0.02,0.02,0.01,0c0.02,0.02,0.03,0.04,0.04,0.06
			c0.01,0.01,0.03,0.07,0.01,0c0.01,0.02,0.01,0.04,0.02,0.05c0.01,0.05,0-0.01,0-0.01c0,0.01,0,0.01,0,0.02
			c0,0.03,0,0.02,0.01-0.01c0,0-0.02,0.06,0,0.02c0.02-0.04-0.01,0.02-0.01,0.02c-0.01,0.02-0.05,0.05-0.01,0.01
			c-0.02,0.02-0.04,0.04-0.06,0.06c0,0-0.06,0.04-0.02,0.02c0.04-0.03-0.03,0.02-0.04,0.02c-0.03,0.02-0.07,0.04-0.11,0.06
			c-0.04,0.02-0.09,0.04-0.13,0.06c0.01,0,0.05-0.02,0.01,0c-0.03,0.01-0.07,0.02-0.1,0.03c-0.04,0.01-0.08,0.02-0.12,0.03
			c-0.03,0.01-0.05,0.01-0.08,0.02c0,0-0.07,0.01-0.03,0.01c0.04-0.01-0.03,0-0.03,0c-0.03,0-0.05,0-0.08,0c-0.02,0-0.04,0-0.06,0
			c-0.01,0-0.1-0.01-0.04,0c-0.04,0-0.08-0.01-0.12-0.02c-0.02-0.01-0.04-0.01-0.06-0.02c-0.06-0.02,0.05,0.02-0.01,0
			c-0.04-0.02-0.07-0.04-0.11-0.06c-0.01-0.01-0.08-0.06-0.04-0.02c0.04,0.03-0.01-0.01-0.02-0.02c-0.01-0.01-0.02-0.02-0.03-0.03
			c-0.07-0.06,0.01,0.02,0.01,0.02c-0.02-0.01-0.04-0.06-0.05-0.08c-0.01-0.01-0.07-0.12-0.03-0.06c0.03,0.05,0,0.01,0,0
			c-0.01-0.02-0.02-0.05-0.02-0.07c-0.01-0.02-0.03-0.09-0.02-0.11c0-0.01,0,0.09,0.01,0.04c0-0.01,0-0.03,0-0.05
			c0-0.03,0.01-0.07,0.01-0.11c0-0.05,0,0.04-0.01,0.04c0,0,0.02-0.07,0.02-0.07c0.01-0.02,0.02-0.11,0.01-0.04
			c-0.01,0.06,0.02-0.02,0.03-0.05c0.04-0.07-0.06,0.09,0,0c0-0.01,0.03-0.02,0.03-0.03c0,0.01-0.1,0.06-0.03,0.03
			c0.02-0.01,0.04-0.02,0.05-0.03c-0.01,0.01-0.09,0.02-0.03,0.01c0.02,0,0.04-0.01,0.06-0.02c-0.02,0.01-0.09,0,0.01,0
			c0.05,0,0.09,0,0.14,0c-0.08-0.01,0.08,0.02,0.1,0.03c0.02,0.01,0.04,0.01,0.07,0.02c0.01,0,0.1,0.03,0.04,0.01
			c-0.04-0.02,0.06,0.03,0.07,0.03c0.09,0.04,0.18,0.09,0.26,0.15c0.03,0.02,0.1,0.07,0.03,0.02c0.04,0.03,0.07,0.06,0.11,0.09
			c0.07,0.06,0.13,0.12,0.18,0.19c0.02,0.02,0.03,0.04,0.05,0.06c0-0.01-0.05-0.06-0.01-0.02c0.03,0.04,0.06,0.08,0.08,0.12
			c0.05,0.08,0.1,0.16,0.14,0.25c0.09,0.22,0.43,0.27,0.62,0.15c0.22-0.14,0.28-0.38,0.17-0.61c0.04,0.1-0.02-0.05-0.04-0.09
			c-0.01-0.03-0.03-0.06-0.04-0.09c-0.02-0.05-0.05-0.1-0.08-0.14c-0.08-0.14-0.19-0.27-0.3-0.38c-0.19-0.2-0.42-0.38-0.68-0.5
			c-0.55-0.26-1.3-0.36-1.73,0.17c-0.33,0.41-0.35,1.02-0.08,1.47c0.3,0.5,0.9,0.7,1.46,0.62c0.55-0.07,1.31-0.37,1.45-0.98
			c0.15-0.64-0.42-1.18-1.03-1.2c-0.49-0.01-1,0.32-1.21,0.76c-0.21,0.46-0.15,1.01,0.27,1.33c0.75,0.58,2.14,0.19,2.1-0.89
			c-0.02-0.59-0.48-1.14-1.09-1.16c-0.57-0.01-1.07,0.5-1.08,1.07c-0.01,0.64,0.6,1.01,1.18,0.9c0.63-0.12,0.96-0.74,0.85-1.33
			c-0.11-0.58-0.66-0.98-1.24-0.97c-0.57,0.01-1.1,0.39-1.19,0.97c-0.08,0.53,0.25,1.1,0.77,1.26c0.55,0.17,1.07-0.21,1.25-0.71
			c0.2-0.57-0.17-1.15-0.76-1.25c-0.59-0.1-1.2,0.19-1.5,0.71c-0.3,0.51-0.21,1.14,0.2,1.56c0.4,0.41,1.04,0.52,1.53,0.22
			c0.42-0.26,0.7-0.77,0.67-1.27c-0.04-0.54-0.39-0.99-0.88-1.19c-0.54-0.22-1.16-0.17-1.61,0.22c-0.44,0.38-0.52,1.09-0.18,1.56
			c0.56,0.77,1.85,0.84,2.37,0c0.51-0.82,0-2.07-0.97-2.23c-1.08-0.18-2.15,0.89-1.81,1.97c0.33,1.06,1.67,1.6,2.59,0.93
			c0.47-0.33,0.76-0.92,0.61-1.5c-0.14-0.5-0.56-0.89-1.05-1.03c-0.53-0.15-1.06,0.06-1.38,0.5c-0.26,0.35-0.34,0.86-0.21,1.27
			c0.15,0.49,0.56,0.83,1.07,0.88c0.54,0.05,1.1-0.36,1.01-0.94c-0.08-0.5-0.62-0.86-1.09-0.61c-0.16,0.09-0.22,0.3-0.13,0.46
			C136.59,18.33,136.8,18.37,136.96,18.28L136.96,18.28z"/>
	</g>
</g>
<g>
	<g>
		<path class="st1" d="M142.22,4.68c-1.16,2.71-1.06,6.21,0.83,8.58c0.28,0.35,0.96-0.04,0.8-0.46c-0.5-1.24-0.91-2.52-0.98-3.86
			c-0.06-1.36,0.15-2.67,0.69-3.92c0.15-0.34-0.15-0.75-0.48-0.83C142.67,4.08,142.36,4.33,142.22,4.68L142.22,4.68z"/>
	</g>
</g>
<g>
	<g>
		<path class="st1" d="M131.69,60.44c-0.02,1.14,0,2.29,0.05,3.43c0.03,0.56,0.06,1.12,0.11,1.68c0.04,0.53,0.03,1.18,0.26,1.66
			c0.13,0.28,0.6,0.19,0.67-0.1c0.11-0.52-0.02-1.12-0.07-1.64c-0.05-0.56-0.09-1.12-0.12-1.68c-0.06-1.12-0.08-2.24-0.07-3.37
			C132.51,59.9,131.69,59.92,131.69,60.44L131.69,60.44z"/>
	</g>
</g>
<g>
	<g>
		<path class="st1" d="M136.22,63.75c-0.31-0.24-0.62-0.49-0.93-0.73c-0.18-0.14-0.43-0.13-0.56,0.08c-0.31,0.53-0.51,1.1-0.6,1.71
			c-0.08,0.55-0.14,1.26,0.13,1.77c0.32,0.59,1.05,0.59,1.6,0.35c0.43-0.19,0.79-0.56,0.99-0.98c0.23-0.49,0.28-1.07,0.09-1.58
			c-0.13-0.34-0.56-0.32-0.69,0.01c-0.24,0.62-0.15,1.32,0.17,1.89c0.32,0.58,0.93,1.06,1.61,1.06c0.4,0,0.46-0.54,0.1-0.67
			c-0.44-0.16-0.8-0.42-1.04-0.81c-0.24-0.39-0.32-0.85-0.16-1.3c-0.23,0-0.46,0-0.69,0.01c0.16,0.39,0.08,0.79-0.14,1.13
			c-0.21,0.32-0.52,0.55-0.9,0.56c-0.22,0.01-0.25-0.1-0.3-0.3c-0.06-0.27-0.06-0.55-0.04-0.83c0.03-0.58,0.19-1.16,0.46-1.67
			c-0.16,0.05-0.32,0.09-0.48,0.14c0.32,0.23,0.64,0.46,0.96,0.69C136.11,64.48,136.51,63.98,136.22,63.75L136.22,63.75z"/>
	</g>
</g>
<g>
	<g>
		<path class="st1" d="M139.41,65.67c-0.06-0.07,0.02,0.02,0.02,0.02c0,0-0.04-0.05-0.03-0.05c-0.02-0.03-0.04-0.06-0.05-0.09
			c-0.02-0.03-0.03-0.06-0.05-0.09c-0.04-0.08,0.02,0.02,0.01,0.03c0-0.01-0.02-0.06-0.03-0.07c-0.02-0.07-0.04-0.14-0.05-0.22
			c0-0.01-0.01-0.06-0.01-0.06c0,0,0.01,0.09,0.01,0.04c0-0.05-0.01-0.09-0.01-0.14c0-0.02,0.01-0.21,0.01-0.21
			c0.01,0-0.02,0.1,0,0.03c0-0.02,0.01-0.04,0.01-0.06c0.01-0.04,0.02-0.08,0.03-0.12c0.01-0.04,0.03-0.08,0.04-0.11
			c0.03-0.08-0.04,0.09,0.01-0.01c0.04-0.07,0.07-0.14,0.12-0.21c0.01-0.02,0.02-0.03,0.03-0.05c0.03-0.04-0.03,0.04-0.03,0.04
			c0.02-0.01,0.06-0.07,0.08-0.09c0.02-0.02,0.05-0.05,0.08-0.07c0.01-0.01,0.07-0.06,0.01-0.01c-0.07,0.05,0.01,0,0.02-0.01
			c0.06-0.04,0.13-0.07,0.19-0.1c0.04-0.03-0.05,0.02-0.05,0.02c0.01,0,0.04-0.01,0.05-0.02c0.04-0.01,0.08-0.03,0.12-0.04
			c0.02-0.01,0.08-0.01,0.1-0.02c-0.01,0.01-0.11,0.01-0.03,0.01c0.02,0,0.04,0,0.06,0c0.03,0,0.22-0.02,0.23,0
			c0,0-0.09-0.01-0.04,0c0.02,0,0.04,0.01,0.06,0.01c0.03,0.01,0.07,0.01,0.1,0.02c0.04,0.01,0.07,0.02,0.11,0.03
			c0.01,0,0.03,0.01,0.04,0.01c0.05,0.01-0.08-0.04-0.01,0c0.07,0.04,0.15,0.07,0.22,0.11c0.02,0.01,0.03,0.02,0.05,0.03
			c0.04,0.02-0.06-0.05,0,0c0.03,0.03,0.06,0.05,0.09,0.08c0.06,0.06,0.11,0.13,0.17,0.19c-0.06-0.06,0,0.01,0.02,0.04
			c0.03,0.04,0.05,0.08,0.07,0.13c0.08,0.16,0.29,0.2,0.44,0.14c0.16-0.07,0.25-0.24,0.22-0.41c-0.18-0.82-1.08-1.33-1.89-1.27
			c-0.45,0.03-0.88,0.22-1.18,0.57c-0.3,0.35-0.46,0.78-0.48,1.24c-0.02,0.51,0.15,1,0.49,1.38c0.16,0.18,0.49,0.16,0.65-0.01
			C139.59,66.11,139.58,65.87,139.41,65.67L139.41,65.67z"/>
	</g>
</g>
<g>
	<g>
		<path class="st1" d="M144.62,63.97c-1.39,0.12-2.55,1.59-2.08,2.98c0.09,0.25,0.3,0.36,0.56,0.32c1.1-0.17,2.02-0.98,2.33-2.05
			c-0.23,0-0.46,0-0.69,0.01c0.6,1.62,0.75,3.53,0.55,5.25c-0.08,0.7-0.41,1.35-1.19,1.36c-0.66,0.01-1.12-0.55-1.28-1.13
			c-0.09-0.3-0.6-0.33-0.65,0.01c-0.15,0.89,0.4,1.76,1.26,2.04c0.89,0.29,1.91-0.12,2.39-0.91c0.56-0.92,0.41-2.27,0.32-3.29
			c-0.1-1.2-0.39-2.35-0.7-3.51c-0.1-0.37-0.57-0.3-0.69,0.01c-0.29,0.72-0.97,1.26-1.74,1.33c0.15,0.11,0.29,0.22,0.44,0.33
			c-0.21-0.79,0.3-1.74,1.16-1.82C145.19,64.84,145.23,63.91,144.62,63.97L144.62,63.97z"/>
	</g>
</g>
<g>
	<g>
		<path class="st1" d="M147.42,65.9c0.49,0.05,1.02,0.08,1.49-0.1c0.45-0.17,0.81-0.5,0.98-0.95c0.14-0.38,0.07-0.82-0.21-1.12
			c-0.22-0.25-0.56-0.38-0.89-0.41c-1.99-0.19-2.28,2.8-1.15,3.89c0.78,0.76,1.97,0.53,2.88,0.16c0.22-0.09,0.39-0.28,0.32-0.53
			c-0.06-0.24-0.3-0.35-0.53-0.3c-0.16,0.03-0.33,0.06-0.49,0.08c-0.08,0.01-0.15,0.03-0.23,0.04c0.11-0.02-0.04,0-0.05,0.01
			c-0.05,0-0.09,0.01-0.14,0.01c-0.16,0.01-0.33,0.01-0.49,0c-0.14,0,0.06,0.01-0.02,0c-0.04-0.01-0.07-0.01-0.11-0.02
			c-0.08-0.02-0.16-0.04-0.24-0.07c-0.13-0.04,0.08,0.05-0.03-0.02c-0.04-0.02-0.08-0.04-0.11-0.06c-0.02-0.01-0.05-0.03-0.07-0.05
			c0.1,0.07-0.03-0.03-0.04-0.04c-0.03-0.03-0.06-0.06-0.08-0.09c-0.01-0.02-0.07-0.1-0.03-0.03c-0.06-0.08-0.11-0.17-0.15-0.25
			c-0.11-0.22-0.21-0.6-0.23-0.86c-0.02-0.3,0.01-0.59,0.15-0.85c0.13-0.24,0.28-0.36,0.5-0.43c0.19-0.06,0.43-0.04,0.61,0.04
			c0.09,0.04,0.16,0.11,0.2,0.17c0.06,0.09,0.09,0.18,0.08,0.31c-0.02,0.31-0.29,0.56-0.55,0.68c-0.39,0.17-0.85,0.13-1.26,0.07
			c-0.22-0.03-0.43,0.07-0.47,0.31C147.03,65.73,147.2,65.88,147.42,65.9L147.42,65.9z"/>
	</g>
</g>
<g>
	<g>
		<path class="st1" d="M168.1,12.89c0.01,0.03,0.03,0.06,0.04,0.08c0.03,0.06-0.01-0.03,0.01,0.01c0.02,0.05,0.04,0.11,0.05,0.16
			c0.01,0.05,0.02,0.1,0.03,0.15c0,0.01,0.01,0.09,0.01,0.04c0-0.05,0,0.04,0,0.05c0.01,0.11,0,0.23-0.01,0.34
			c0.01-0.05,0-0.02,0,0.01c-0.01,0.03-0.01,0.05-0.02,0.08c-0.01,0.06-0.03,0.11-0.05,0.17c-0.01,0.02-0.02,0.05-0.03,0.07
			c0,0.01-0.04,0.09-0.02,0.04c0.02-0.04-0.02,0.03-0.02,0.04c-0.01,0.03-0.03,0.06-0.04,0.08c-0.02,0.05-0.05,0.09-0.08,0.13
			c-0.02,0.03-0.04,0.05-0.05,0.08c0.03-0.04,0.01-0.02-0.01,0.01c-0.07,0.08-0.15,0.16-0.23,0.23c-0.04,0.03-0.08,0.07-0.12,0.1
			c-0.01,0.01-0.09,0.07-0.02,0.02c-0.03,0.02-0.05,0.04-0.08,0.05c-0.13,0.09-0.21,0.25-0.14,0.4c0.06,0.14,0.23,0.24,0.38,0.19
			c0.29-0.1,0.53-0.25,0.73-0.49c0.19-0.23,0.34-0.49,0.44-0.77c0.18-0.54,0.15-1.15-0.12-1.66c-0.09-0.17-0.35-0.23-0.51-0.13
			C168.07,12.5,168,12.7,168.1,12.89L168.1,12.89z"/>
	</g>
</g>
<g>
	<g>
		<path class="st1" d="M148.02,7.48c-0.31,0.36-0.62,0.73-0.93,1.09c-0.14,0.16-0.15,0.44,0.07,0.55c0.61,0.3,0.94,1.12,0.64,1.75
			c-0.14,0.29-0.4,0.51-0.7,0.63c-0.37,0.14-0.71,0.06-1.09,0.06c-0.28,0-0.51,0.4-0.26,0.61c0.43,0.35,1.05,0.3,1.54,0.1
			c0.51-0.2,0.95-0.57,1.17-1.08c0.43-0.98-0.01-2.16-0.93-2.67c0.02,0.18,0.05,0.37,0.07,0.55c0.33-0.35,0.65-0.7,0.98-1.05
			C148.91,7.64,148.34,7.1,148.02,7.48L148.02,7.48z"/>
	</g>
</g>
<g>
	<g>
		<path class="st1" d="M150.6,11.52c-0.06-0.58-0.03-1.16,0.06-1.74c0.04-0.27,0.1-0.53,0.18-0.79c0.04-0.13,0.11-0.36,0.28-0.36
			c0.15,0,0.28,0.17,0.35,0.29c0.11,0.2,0.13,0.39,0.12,0.61c-0.03,0.56-0.15,1.1,0.1,1.63c0.15,0.31,0.59,0.17,0.68-0.1
			c0.21-0.58,0.4-1.16,0.58-1.75c0.05-0.16,0.1-0.32,0.16-0.48c0.03-0.07,0.06-0.18,0.14-0.2c0.14-0.04,0.35,0.24,0.41,0.34
			c0.27,0.43,0.42,0.99,0.48,1.49c0.03,0.27,0.04,0.54,0.02,0.81c-0.02,0.3-0.11,0.58-0.05,0.87c0.06,0.34,0.54,0.35,0.7,0.08
			c0.18-0.31,0.16-0.72,0.15-1.07c-0.01-0.35-0.06-0.71-0.14-1.05c-0.13-0.61-0.36-1.37-0.85-1.8c-0.22-0.19-0.52-0.34-0.81-0.27
			c-0.34,0.08-0.49,0.36-0.6,0.66c-0.28,0.74-0.61,1.45-0.89,2.19c0.23-0.03,0.45-0.07,0.68-0.1c-0.26-0.58,0.06-1.25-0.14-1.85
			c-0.17-0.48-0.6-1-1.16-0.93c-0.68,0.08-0.84,0.83-0.97,1.38c-0.17,0.7-0.23,1.42-0.24,2.14C149.8,12.04,150.64,12.01,150.6,11.52
			L150.6,11.52z"/>
	</g>
</g>
<g>
	<g>
		<path class="st1" d="M158.7,9.51c0.13-0.62-0.44-1.1-1.04-1.05c-0.7,0.06-1.05,0.75-1.25,1.34c-0.12,0.38-0.24,0.76-0.35,1.14
			c-0.09,0.29-0.18,0.61-0.09,0.92c0.12,0.4,0.53,0.61,0.94,0.5c0.34-0.09,0.67-0.37,0.92-0.6c0.57-0.54,0.93-1.2,1.19-1.92
			c-0.25-0.06-0.5-0.12-0.74-0.19c-0.21,0.86-0.15,1.97,0.65,2.52c0.7,0.48,1.8,0.29,2.08-0.58c0.06-0.19-0.05-0.41-0.24-0.48
			c-0.21-0.08-0.4,0.01-0.52,0.18c0.04-0.05-0.12,0.1-0.03,0.03c-0.05,0.04-0.1,0.07-0.16,0.09c0.09-0.05-0.05,0.01-0.08,0.02
			c-0.02,0.01-0.05,0.01-0.07,0.01c0.05-0.01,0.04-0.01-0.01,0c-0.21,0.01-0.39-0.01-0.56-0.13c0.04,0.03-0.09-0.08-0.1-0.09
			c-0.05-0.05-0.04-0.05-0.08-0.1c-0.09-0.13-0.13-0.26-0.17-0.41c-0.06-0.29-0.03-0.59,0.03-0.87c0.11-0.49-0.59-0.65-0.74-0.19
			c-0.17,0.52-0.54,0.99-0.95,1.35c-0.08,0.07-0.17,0.14-0.26,0.2c-0.05,0.03-0.37,0.21-0.38,0.25c0-0.01,0.16,0.09,0.14,0.07
			c0.06,0.05,0,0.08,0.02,0.02c-0.01,0.04,0-0.11,0-0.13c0.01-0.07,0-0.02,0.02-0.08c0.08-0.35,0.18-0.69,0.27-1.04
			c0.07-0.25,0.12-0.52,0.24-0.76c0.09-0.17,0.2-0.32,0.37-0.3c0.05,0.01,0.13,0.04,0.16,0.06c0.05,0.04,0.02,0,0.05,0.05
			c-0.02-0.04-0.01,0.05,0,0C157.84,9.82,158.6,9.99,158.7,9.51L158.7,9.51z"/>
	</g>
</g>
<g>
	<g>
		<path class="st1" d="M161.56,8.34c-0.03,0.74,0.03,1.49,0.19,2.21c0.08,0.35,0.18,0.7,0.3,1.04c0.13,0.38,0.27,0.74,0.54,1.04
			c0.12,0.14,0.36,0.15,0.52,0.06c0.17-0.1,0.24-0.29,0.21-0.48c-0.05-0.33-0.2-0.64-0.3-0.96c-0.1-0.32-0.19-0.65-0.25-0.98
			c-0.13-0.64-0.19-1.29-0.17-1.95C162.6,7.67,161.58,7.7,161.56,8.34L161.56,8.34z"/>
	</g>
</g>
<g>
	<g>
		<path class="st1" d="M163.79,8.28c0.09,0.78,0.19,1.56,0.29,2.35c0.1,0.77,0.21,1.56,0.45,2.31c0.12,0.39,0.68,0.3,0.71-0.1
			c0.05-0.8-0.04-1.6-0.12-2.4c-0.09-0.81-0.18-1.63-0.29-2.44c-0.04-0.29-0.4-0.43-0.65-0.37C163.87,7.72,163.75,8,163.79,8.28
			L163.79,8.28z"/>
	</g>
</g>
<g>
	<g>
		<path class="st1" d="M192.07,6.69c0.98,1.24,2.11,2.63,2.27,4.27c0.13,1.33-0.45,2.52-1.61,3.18c-0.38,0.22-0.14,0.76,0.27,0.68
			c1.62-0.31,2.39-2.23,2.36-3.71c-0.05-2-1.39-3.65-2.59-5.12C192.39,5.5,191.68,6.2,192.07,6.69L192.07,6.69z"/>
	</g>
</g>
<g>
	<g>
		<path class="st1" d="M171.66,5.94c-0.02,1.14,0,2.29,0.05,3.43c0.03,0.56,0.06,1.12,0.11,1.68c0.04,0.53,0.03,1.18,0.26,1.66
			c0.13,0.28,0.6,0.19,0.67-0.1c0.11-0.52-0.02-1.12-0.07-1.64c-0.05-0.56-0.09-1.12-0.12-1.68c-0.06-1.12-0.08-2.24-0.07-3.37
			C172.48,5.41,171.67,5.43,171.66,5.94L171.66,5.94z"/>
	</g>
</g>
<g>
	<g>
		<path class="st1" d="M176.19,9.26c-0.31-0.24-0.62-0.49-0.93-0.73c-0.18-0.14-0.43-0.13-0.56,0.08c-0.31,0.53-0.51,1.1-0.6,1.71
			c-0.08,0.55-0.14,1.26,0.13,1.77c0.32,0.59,1.05,0.59,1.6,0.35c0.43-0.19,0.79-0.56,0.99-0.98c0.23-0.49,0.28-1.07,0.09-1.58
			c-0.13-0.34-0.56-0.32-0.69,0.01c-0.24,0.62-0.15,1.32,0.17,1.89c0.32,0.58,0.93,1.06,1.61,1.06c0.4,0,0.46-0.54,0.1-0.67
			c-0.44-0.16-0.8-0.42-1.04-0.81c-0.24-0.39-0.32-0.85-0.16-1.3c-0.23,0-0.46,0-0.69,0.01c0.16,0.39,0.08,0.79-0.14,1.13
			c-0.21,0.32-0.52,0.55-0.9,0.56c-0.22,0.01-0.25-0.1-0.3-0.3c-0.06-0.27-0.06-0.55-0.04-0.83c0.03-0.58,0.19-1.16,0.46-1.67
			c-0.16,0.05-0.32,0.09-0.48,0.14c0.32,0.23,0.64,0.46,0.96,0.69C176.08,9.98,176.48,9.49,176.19,9.26L176.19,9.26z"/>
	</g>
</g>
<g>
	<g>
		<path class="st1" d="M179.38,11.18c-0.06-0.07,0.02,0.02,0.02,0.02c0,0-0.04-0.05-0.03-0.05c-0.02-0.03-0.04-0.06-0.05-0.09
			c-0.02-0.03-0.03-0.06-0.05-0.09c-0.04-0.08,0.02,0.02,0.01,0.03c0-0.01-0.02-0.06-0.03-0.07c-0.02-0.07-0.04-0.14-0.05-0.22
			c0-0.01-0.01-0.06-0.01-0.06c0,0,0.01,0.09,0.01,0.04c0-0.05-0.01-0.09-0.01-0.14c0-0.02,0.01-0.21,0.01-0.21
			c0.01,0-0.02,0.1,0,0.03c0-0.02,0.01-0.04,0.01-0.06c0.01-0.04,0.02-0.08,0.03-0.12c0.01-0.04,0.03-0.08,0.04-0.11
			c0.03-0.08-0.04,0.09,0.01-0.01c0.04-0.07,0.07-0.14,0.12-0.21c0.01-0.02,0.02-0.03,0.03-0.05c0.03-0.04-0.03,0.04-0.03,0.04
			c0.02-0.01,0.06-0.07,0.08-0.09c0.02-0.02,0.05-0.05,0.08-0.07c0.01-0.01,0.07-0.06,0.01-0.01c-0.07,0.05,0.01,0,0.02-0.01
			c0.06-0.04,0.13-0.07,0.19-0.1c0.04-0.03-0.05,0.02-0.05,0.02c0.01,0,0.04-0.01,0.05-0.02c0.04-0.01,0.08-0.03,0.12-0.04
			c0.02-0.01,0.08-0.01,0.1-0.02c-0.01,0.01-0.11,0.01-0.03,0.01c0.02,0,0.04,0,0.06,0c0.03,0,0.22-0.02,0.23,0
			c0,0-0.09-0.01-0.04,0c0.02,0,0.04,0.01,0.06,0.01c0.03,0.01,0.07,0.01,0.1,0.02c0.04,0.01,0.07,0.02,0.11,0.03
			c0.01,0,0.03,0.01,0.04,0.01c0.05,0.01-0.08-0.04-0.01,0c0.07,0.04,0.15,0.07,0.22,0.11c0.02,0.01,0.03,0.02,0.05,0.03
			c0.04,0.02-0.06-0.05,0,0c0.03,0.03,0.06,0.05,0.09,0.08c0.06,0.06,0.11,0.13,0.17,0.19c-0.06-0.06,0,0.01,0.02,0.04
			c0.03,0.04,0.05,0.08,0.07,0.13c0.08,0.16,0.29,0.2,0.44,0.14c0.16-0.07,0.25-0.24,0.22-0.41c-0.18-0.82-1.08-1.33-1.89-1.27
			c-0.45,0.03-0.88,0.22-1.18,0.57c-0.3,0.35-0.46,0.78-0.48,1.24c-0.02,0.51,0.15,1,0.49,1.38c0.16,0.18,0.49,0.16,0.65-0.01
			C179.56,11.62,179.55,11.38,179.38,11.18L179.38,11.18z"/>
	</g>
</g>
<g>
	<g>
		<path class="st1" d="M184.59,9.47c-1.39,0.12-2.55,1.59-2.08,2.98c0.09,0.25,0.3,0.36,0.56,0.32c1.1-0.17,2.02-0.98,2.33-2.05
			c-0.23,0-0.46,0-0.69,0.01c0.6,1.62,0.75,3.53,0.55,5.25c-0.08,0.7-0.41,1.35-1.19,1.36c-0.66,0.01-1.12-0.55-1.28-1.13
			c-0.09-0.3-0.6-0.33-0.65,0.01c-0.15,0.89,0.4,1.76,1.26,2.04c0.89,0.29,1.91-0.12,2.39-0.91c0.56-0.92,0.41-2.27,0.32-3.29
			c-0.1-1.2-0.39-2.35-0.7-3.51c-0.1-0.37-0.57-0.3-0.69,0.01c-0.29,0.72-0.97,1.26-1.74,1.33c0.15,0.11,0.29,0.22,0.44,0.33
			c-0.21-0.79,0.3-1.74,1.16-1.82C185.16,10.35,185.2,9.42,184.59,9.47L184.59,9.47z"/>
	</g>
</g>
<g>
	<g>
		<path class="st1" d="M187.39,11.41c0.49,0.05,1.02,0.08,1.49-0.1c0.45-0.17,0.81-0.5,0.98-0.95c0.14-0.38,0.07-0.82-0.21-1.12
			c-0.22-0.25-0.56-0.38-0.89-0.41c-1.99-0.19-2.28,2.8-1.15,3.89c0.78,0.76,1.97,0.53,2.88,0.16c0.22-0.09,0.39-0.28,0.32-0.53
			c-0.06-0.24-0.3-0.35-0.53-0.3c-0.16,0.03-0.33,0.06-0.49,0.08c-0.08,0.01-0.15,0.03-0.23,0.04c0.11-0.02-0.04,0-0.05,0.01
			c-0.05,0-0.09,0.01-0.14,0.01c-0.16,0.01-0.33,0.01-0.49,0c-0.14,0,0.06,0.01-0.02,0c-0.04-0.01-0.07-0.01-0.11-0.02
			c-0.08-0.02-0.16-0.04-0.24-0.07c-0.13-0.04,0.08,0.05-0.03-0.02c-0.04-0.02-0.08-0.04-0.11-0.06c-0.02-0.01-0.05-0.03-0.07-0.05
			c0.1,0.07-0.03-0.03-0.04-0.04c-0.03-0.03-0.06-0.06-0.08-0.09c-0.01-0.02-0.07-0.1-0.03-0.03c-0.06-0.08-0.11-0.17-0.15-0.25
			c-0.11-0.22-0.21-0.6-0.23-0.86c-0.02-0.3,0.01-0.59,0.15-0.85c0.13-0.24,0.28-0.36,0.5-0.43c0.19-0.06,0.43-0.04,0.61,0.04
			c0.09,0.04,0.16,0.11,0.2,0.17c0.06,0.09,0.09,0.18,0.08,0.31c-0.02,0.31-0.29,0.56-0.55,0.68c-0.39,0.17-0.85,0.13-1.26,0.07
			c-0.22-0.03-0.43,0.07-0.47,0.31C187,11.24,187.17,11.39,187.39,11.41L187.39,11.41z"/>
	</g>
</g>
</svg>
