<?xml version="1.0" encoding="utf-8"?>
<!-- Generator: Adobe Illustrator 26.0.2, SVG Export Plug-In . SVG Version: 6.00 Build 0)  -->
<svg version="1.1" id="Layer_1" xmlns="http://www.w3.org/2000/svg" xmlns:xlink="http://www.w3.org/1999/xlink" x="0px" y="0px"
	 viewBox="0 0 375.3 215.13" style="enable-background:new 0 0 375.3 215.13;" xml:space="preserve">
<style type="text/css">
	.st0{fill:#FD46FC;}
	.st1{fill:none;stroke:#486AFB;stroke-miterlimit:10;}
	.st2{fill:#486AFB;}
</style>
<path class="st0" d="M15.4,149.83c0.08-0.33,0.1-0.42,0.65-0.42c0.16,0,0.27,0,0.27-0.19c0-0.09-0.06-0.12-0.14-0.12
	c-0.25,0-0.85,0.03-1.1,0.03c-0.33,0-1.13-0.03-1.46-0.03c-0.09,0-0.21,0-0.21,0.2c0,0.11,0.08,0.11,0.34,0.11
	c0.23,0,0.33,0,0.58,0.02c0.24,0.03,0.31,0.06,0.31,0.2c0,0.06-0.02,0.13-0.04,0.21l-1.14,4.56c-0.24,0.96-0.91,1.49-1.43,1.49
	c-0.26,0-0.79-0.1-0.94-0.62c0.03,0.01,0.1,0.01,0.12,0.01c0.39,0,0.65-0.34,0.65-0.64c0-0.32-0.27-0.42-0.44-0.42
	c-0.18,0-0.67,0.12-0.67,0.8c0,0.62,0.53,1.08,1.31,1.08c0.91,0,1.95-0.66,2.2-1.64L15.4,149.83"/>
<path class="st0" d="M19.72,158.28c0-0.03,0-0.05-0.17-0.22c-1.24-1.25-1.56-3.13-1.56-4.65c0-1.73,0.38-3.46,1.6-4.7
	c0.13-0.12,0.13-0.14,0.13-0.17c0-0.07-0.04-0.1-0.1-0.1c-0.1,0-0.99,0.67-1.58,1.94c-0.51,1.09-0.63,2.2-0.63,3.03
	c0,0.77,0.11,1.98,0.66,3.1c0.6,1.22,1.45,1.87,1.55,1.87C19.68,158.38,19.72,158.35,19.72,158.28"/>
<path class="st0" d="M24.25,152.69c-0.62,2.66-1.45,2.93-1.8,2.93c-0.14,0-0.35-0.04-0.49-0.35c-0.12-0.27-0.12-0.65-0.12-0.66
	c0-0.57,0.22-1.49,0.33-1.92H24.25 M22.3,152.21c0.14-0.57,0.4-1.48,0.7-2c0.23-0.41,0.64-0.93,1.11-0.93c0.42,0,0.6,0.44,0.6,1.02
	c0,0.62-0.22,1.49-0.33,1.91H22.3z M25.76,151.03c0-1.75-1.03-2.11-1.64-2.11c-0.79,0-1.78,0.52-2.52,1.87
	c-0.51,0.93-0.82,2.28-0.82,3.09c0,1.44,0.76,2.1,1.65,2.1c0.67,0,1.54-0.39,2.23-1.4C25.5,153.35,25.76,151.77,25.76,151.03z"/>
<path class="st0" d="M29.2,153.41c0-0.77-0.11-1.98-0.65-3.1c-0.6-1.22-1.45-1.87-1.55-1.87c-0.06,0-0.1,0.04-0.1,0.1
	c0,0.03,0,0.05,0.19,0.23c0.97,0.98,1.54,2.56,1.54,4.64c0,1.7-0.37,3.45-1.6,4.7c-0.13,0.12-0.13,0.14-0.13,0.17
	c0,0.06,0.04,0.1,0.1,0.1c0.1,0,0.99-0.68,1.58-1.94C29.08,155.35,29.2,154.24,29.2,153.41"/>
<path class="st0" d="M39.76,154.57c0.14,0,0.33,0,0.33-0.2c0-0.2-0.19-0.2-0.34-0.2h-5.93c-0.15,0-0.34,0-0.34,0.2
	c0,0.2,0.19,0.2,0.33,0.2H39.76 M39.76,152.64c0.15,0,0.34,0,0.34-0.2c0-0.2-0.19-0.2-0.33-0.2h-5.95c-0.14,0-0.33,0-0.33,0.2
	c0,0.2,0.19,0.2,0.34,0.2H39.76z"/>
<path class="st0" d="M44.59,153.73c0-1.62,0.81-2.04,1.34-2.04c0.09,0,0.72,0.01,1.06,0.37c-0.41,0.03-0.47,0.33-0.47,0.46
	c0,0.26,0.18,0.46,0.46,0.46c0.26,0,0.46-0.17,0.46-0.47c0-0.67-0.75-1.06-1.52-1.06c-1.24,0-2.16,1.07-2.16,2.3
	c0,1.27,0.98,2.25,2.14,2.25c1.33,0,1.65-1.19,1.65-1.29c0-0.1-0.1-0.1-0.13-0.1c-0.09,0-0.11,0.04-0.13,0.1
	c-0.29,0.93-0.93,1.04-1.3,1.04C45.47,155.75,44.59,155.33,44.59,153.73"/>
<path class="st0" d="M49.59,152.59v-1.09l-1.38,0.11v0.31c0.7,0,0.77,0.07,0.77,0.56v2.66c0,0.45-0.11,0.45-0.77,0.45v0.31
	c0.39-0.01,0.85-0.03,1.13-0.03c0.4,0,0.86,0,1.26,0.03v-0.31h-0.21c-0.74,0-0.75-0.11-0.75-0.47v-1.53c0-0.98,0.42-1.87,1.17-1.87
	c0.07,0,0.09,0,0.11,0.01c-0.03,0.01-0.23,0.13-0.23,0.39c0,0.28,0.21,0.43,0.43,0.43c0.18,0,0.43-0.12,0.43-0.44
	c0-0.32-0.31-0.61-0.73-0.61C50.09,151.5,49.73,152.17,49.59,152.59"/>
<path class="st0" d="M54.31,155.75c-0.43,0-0.86-0.21-1.13-0.67c-0.25-0.44-0.25-1.04-0.25-1.4c0-0.39,0-0.93,0.24-1.36
	c0.27-0.46,0.74-0.67,1.13-0.67c0.44,0,0.86,0.22,1.12,0.65c0.26,0.43,0.26,1,0.26,1.38c0,0.36,0,0.89-0.22,1.33
	C55.25,155.47,54.81,155.75,54.31,155.75 M56.51,153.77c0-1.27-0.99-2.32-2.2-2.32c-1.24,0-2.2,1.08-2.2,2.32
	c0,1.28,1.03,2.24,2.2,2.24C55.51,156,56.51,155.03,56.51,153.77z"/>
<path class="st0" d="M59,153.97c0.22,0.04,1.03,0.2,1.03,0.91c0,0.51-0.35,0.9-1.12,0.9c-0.83,0-1.19-0.57-1.38-1.41
	c-0.03-0.13-0.04-0.17-0.14-0.17c-0.13,0-0.13,0.07-0.13,0.25v1.31c0,0.17,0,0.24,0.11,0.24c0.05,0,0.06-0.01,0.25-0.2
	c0.02-0.02,0.02-0.04,0.2-0.23c0.44,0.42,0.88,0.43,1.09,0.43c1.14,0,1.6-0.67,1.6-1.38c0-0.53-0.3-0.82-0.42-0.94
	c-0.33-0.32-0.72-0.4-1.13-0.48c-0.56-0.11-1.22-0.24-1.22-0.81c0-0.35,0.26-0.75,1.11-0.75c1.09,0,1.14,0.89,1.16,1.2
	c0.01,0.09,0.1,0.09,0.12,0.09c0.13,0,0.13-0.05,0.13-0.24v-1c0-0.17,0-0.24-0.11-0.24c-0.05,0-0.07,0-0.2,0.12
	c-0.03,0.04-0.13,0.13-0.17,0.16c-0.38-0.28-0.79-0.28-0.93-0.28c-1.21,0-1.59,0.67-1.59,1.22c0,0.35,0.16,0.62,0.43,0.84
	C58,153.77,58.28,153.83,59,153.97"/>
<path class="st0" d="M62.9,153.97c0.22,0.04,1.03,0.2,1.03,0.91c0,0.51-0.35,0.9-1.12,0.9c-0.83,0-1.19-0.57-1.38-1.41
	c-0.03-0.13-0.04-0.17-0.14-0.17c-0.13,0-0.13,0.07-0.13,0.25v1.31c0,0.17,0,0.24,0.11,0.24c0.05,0,0.06-0.01,0.25-0.2
	c0.02-0.02,0.02-0.04,0.2-0.23c0.44,0.42,0.88,0.43,1.09,0.43c1.14,0,1.6-0.67,1.6-1.38c0-0.53-0.3-0.82-0.42-0.94
	c-0.33-0.32-0.72-0.4-1.13-0.48c-0.56-0.11-1.22-0.24-1.22-0.81c0-0.35,0.26-0.75,1.11-0.75c1.09,0,1.14,0.89,1.16,1.2
	c0.01,0.09,0.1,0.09,0.12,0.09c0.13,0,0.13-0.05,0.13-0.24v-1c0-0.17,0-0.24-0.11-0.24c-0.05,0-0.07,0-0.2,0.12
	c-0.03,0.04-0.13,0.13-0.17,0.16c-0.38-0.28-0.79-0.28-0.93-0.28c-1.21,0-1.59,0.67-1.59,1.22c0,0.35,0.16,0.62,0.43,0.84
	C61.9,153.77,62.18,153.83,62.9,153.97"/>
<path class="st0" d="M69.03,153.6h2.77c0.22,0,0.25,0,0.25-0.21c0-0.98-0.54-1.95-1.78-1.95c-1.15,0-2.07,1.02-2.07,2.26
	c0,1.33,1.04,2.3,2.19,2.3c1.21,0,1.66-1.1,1.66-1.29c0-0.1-0.08-0.12-0.13-0.12c-0.09,0-0.11,0.06-0.13,0.14
	c-0.35,1.02-1.24,1.02-1.34,1.02c-0.5,0-0.89-0.3-1.12-0.67C69.03,154.61,69.03,153.96,69.03,153.6 M69.04,153.39
	c0.06-1.48,0.89-1.73,1.23-1.73c1.02,0,1.12,1.34,1.12,1.73H69.04z"/>
<path class="st0" d="M73.52,152.48v2.66c0,0.45-0.11,0.45-0.78,0.45v0.31c0.35-0.01,0.85-0.03,1.12-0.03c0.26,0,0.78,0.02,1.11,0.03
	v-0.31c-0.67,0-0.78,0-0.78-0.45v-1.83c0-1.03,0.7-1.59,1.34-1.59c0.63,0,0.74,0.54,0.74,1.1v2.31c0,0.45-0.11,0.45-0.78,0.45v0.31
	c0.35-0.01,0.85-0.03,1.12-0.03c0.26,0,0.78,0.02,1.11,0.03v-0.31c-0.52,0-0.76,0-0.77-0.3v-1.9c0-0.85,0-1.16-0.31-1.52
	c-0.14-0.17-0.47-0.37-1.04-0.37c-0.72,0-1.19,0.43-1.47,1.04v-1.04l-1.4,0.11v0.31C73.44,151.92,73.52,151.99,73.52,152.48"/>
<path class="st0" d="M79.35,151.92h1.42v-0.31h-1.42v-1.83H79.1c-0.01,0.81-0.31,1.88-1.28,1.92v0.22h0.84v2.74
	c0,1.22,0.92,1.34,1.28,1.34c0.71,0,0.98-0.7,0.98-1.34v-0.57h-0.25v0.55c0,0.73-0.3,1.11-0.67,1.11c-0.67,0-0.67-0.9-0.67-1.07
	V151.92"/>
<path class="st0" d="M83.19,152.59v-1.09l-1.38,0.11v0.31c0.7,0,0.78,0.07,0.78,0.56v2.66c0,0.45-0.11,0.45-0.78,0.45v0.31
	c0.39-0.01,0.85-0.03,1.13-0.03c0.4,0,0.86,0,1.26,0.03v-0.31h-0.21c-0.74,0-0.75-0.11-0.75-0.47v-1.53c0-0.98,0.42-1.87,1.17-1.87
	c0.07,0,0.09,0,0.11,0.01c-0.03,0.01-0.23,0.13-0.23,0.39c0,0.28,0.21,0.43,0.43,0.43c0.18,0,0.43-0.12,0.43-0.44
	c0-0.32-0.31-0.61-0.73-0.61C83.69,151.5,83.33,152.17,83.19,152.59"/>
<path class="st0" d="M87.91,155.75c-0.43,0-0.86-0.21-1.13-0.67c-0.25-0.44-0.25-1.04-0.25-1.4c0-0.39,0-0.93,0.24-1.36
	c0.27-0.46,0.74-0.67,1.13-0.67c0.44,0,0.86,0.22,1.12,0.65c0.26,0.43,0.26,1,0.26,1.38c0,0.36,0,0.89-0.22,1.33
	C88.85,155.47,88.41,155.75,87.91,155.75 M90.11,153.77c0-1.27-0.99-2.32-2.2-2.32c-1.24,0-2.2,1.08-2.2,2.32
	c0,1.28,1.03,2.24,2.2,2.24C89.11,156,90.11,155.03,90.11,153.77z"/>
<path class="st0" d="M92.27,154.76v-2.22c0.29-0.51,0.77-0.79,1.28-0.79c0.72,0,1.33,0.87,1.33,2c0,1.2-0.7,2.04-1.43,2.04
	c-0.4,0-0.78-0.2-1.04-0.61C92.27,154.97,92.27,154.96,92.27,154.76 M92.24,152.16v-0.66l-1.43,0.11v0.31c0.7,0,0.78,0.06,0.78,0.5
	v4.65c0,0.45-0.11,0.45-0.78,0.45v0.31c0.34-0.01,0.85-0.03,1.11-0.03c0.27,0,0.78,0.02,1.12,0.03v-0.31c-0.66,0-0.77,0-0.77-0.45
	v-1.67v-0.09c0.05,0.16,0.47,0.7,1.22,0.7c1.18,0,2.21-0.97,2.21-2.25c0-1.26-0.96-2.25-2.08-2.25
	C92.86,151.5,92.44,151.94,92.24,152.16z"/>
<path class="st0" d="M99.95,152.56c0.26-0.63,0.77-0.64,0.93-0.64v-0.31c-0.23,0.02-0.52,0.03-0.75,0.03
	c-0.18,0-0.65-0.02-0.86-0.03v0.31c0.31,0.01,0.47,0.18,0.47,0.43c0,0.1-0.01,0.12-0.06,0.24l-1,2.44l-1.1-2.67
	c-0.04-0.1-0.06-0.14-0.06-0.18c0-0.26,0.37-0.26,0.56-0.26v-0.31c-0.26,0.01-0.91,0.03-1.08,0.03c-0.27,0-0.66-0.01-0.96-0.03v0.31
	c0.48,0,0.67,0,0.8,0.35l1.49,3.63c-0.05,0.13-0.19,0.46-0.25,0.59c-0.22,0.55-0.5,1.23-1.13,1.23c-0.05,0-0.28,0-0.47-0.18
	c0.31-0.04,0.39-0.26,0.39-0.42c0-0.26-0.19-0.42-0.42-0.42c-0.2,0-0.42,0.13-0.42,0.43c0,0.45,0.42,0.8,0.91,0.8
	c0.62,0,1.03-0.57,1.27-1.13L99.95,152.56"/>
<path class="st0" d="M142.89,147.42c0.08-0.33,0.1-0.42,0.65-0.42c0.16,0,0.27,0,0.27-0.19c0-0.09-0.06-0.12-0.14-0.12
	c-0.25,0-0.85,0.03-1.1,0.03c-0.33,0-1.13-0.03-1.46-0.03c-0.09,0-0.21,0-0.21,0.2c0,0.11,0.08,0.11,0.34,0.11
	c0.23,0,0.33,0,0.57,0.02c0.24,0.03,0.31,0.06,0.31,0.2c0,0.06-0.02,0.13-0.04,0.21l-1.14,4.56c-0.24,0.96-0.91,1.49-1.43,1.49
	c-0.26,0-0.79-0.1-0.94-0.62c0.03,0.01,0.1,0.01,0.12,0.01c0.39,0,0.65-0.34,0.65-0.64c0-0.32-0.27-0.42-0.44-0.42
	c-0.18,0-0.67,0.12-0.67,0.8c0,0.62,0.53,1.08,1.31,1.08c0.91,0,1.95-0.66,2.2-1.64L142.89,147.42"/>
<path class="st0" d="M147.3,155.86c0-0.03,0-0.05-0.17-0.22c-1.24-1.25-1.56-3.13-1.56-4.65c0-1.73,0.38-3.46,1.6-4.7
	c0.13-0.12,0.13-0.14,0.13-0.17c0-0.07-0.04-0.1-0.1-0.1c-0.1,0-0.99,0.68-1.58,1.94c-0.51,1.09-0.63,2.2-0.63,3.03
	c0,0.77,0.11,1.98,0.66,3.1c0.6,1.22,1.45,1.87,1.55,1.87C147.26,155.96,147.3,155.93,147.3,155.86"/>
<path class="st0" d="M151.73,150.27c-0.62,2.66-1.45,2.93-1.8,2.93c-0.14,0-0.35-0.04-0.49-0.35c-0.12-0.27-0.12-0.65-0.12-0.66
	c0-0.57,0.22-1.49,0.33-1.92H151.73 M149.78,149.79c0.14-0.57,0.4-1.48,0.7-2c0.23-0.41,0.64-0.93,1.11-0.93
	c0.42,0,0.6,0.44,0.6,1.02c0,0.62-0.22,1.49-0.33,1.91H149.78z M153.25,148.61c0-1.75-1.03-2.11-1.64-2.11
	c-0.79,0-1.78,0.52-2.52,1.87c-0.51,0.93-0.82,2.28-0.82,3.09c0,1.44,0.76,2.1,1.65,2.1c0.67,0,1.54-0.39,2.22-1.4
	C152.98,150.94,153.25,149.36,153.25,148.61z"/>
<path class="st0" d="M156.68,151c0-0.77-0.11-1.98-0.65-3.1c-0.6-1.22-1.45-1.87-1.55-1.87c-0.06,0-0.1,0.04-0.1,0.1
	c0,0.03,0,0.05,0.19,0.23c0.97,0.98,1.54,2.56,1.54,4.64c0,1.7-0.37,3.45-1.6,4.7c-0.13,0.12-0.13,0.14-0.13,0.17
	c0,0.06,0.04,0.1,0.1,0.1c0.1,0,0.99-0.68,1.58-1.94C156.56,152.93,156.68,151.83,156.68,151"/>
<path class="st0" d="M167.25,152.16c0.14,0,0.33,0,0.33-0.2c0-0.2-0.19-0.2-0.34-0.2h-5.93c-0.15,0-0.34,0-0.34,0.2
	c0,0.2,0.19,0.2,0.33,0.2H167.25 M167.24,150.23c0.15,0,0.34,0,0.34-0.2c0-0.2-0.19-0.2-0.33-0.2h-5.95c-0.14,0-0.33,0-0.33,0.2
	c0,0.2,0.19,0.2,0.34,0.2H167.24z"/>
<path class="st0" d="M172.1,150.06v2.66c0,0.45-0.11,0.45-0.78,0.45v0.31c0.35-0.01,0.85-0.03,1.12-0.03c0.26,0,0.77,0.02,1.11,0.03
	v-0.31c-0.67,0-0.77,0-0.77-0.45v-1.83c0-1.03,0.7-1.59,1.34-1.59c0.63,0,0.74,0.54,0.74,1.1v2.31c0,0.45-0.11,0.45-0.77,0.45v0.31
	c0.35-0.01,0.85-0.03,1.12-0.03c0.26,0,0.78,0.02,1.11,0.03v-0.31c-0.67,0-0.77,0-0.77-0.45v-1.83c0-1.03,0.71-1.59,1.34-1.59
	c0.62,0,0.73,0.54,0.73,1.1v2.31c0,0.45-0.11,0.45-0.77,0.45v0.31c0.35-0.01,0.85-0.03,1.12-0.03c0.26,0,0.77,0.02,1.11,0.03v-0.31
	c-0.52,0-0.77,0-0.77-0.3v-1.9c0-0.85,0-1.16-0.31-1.52c-0.14-0.17-0.47-0.37-1.04-0.37c-0.83,0-1.27,0.6-1.44,0.97
	c-0.14-0.86-0.87-0.97-1.32-0.97c-0.72,0-1.19,0.43-1.47,1.04v-1.04l-1.4,0.11v0.31C172.02,149.51,172.1,149.57,172.1,150.06"/>
<path class="st0" d="M180.41,151.18h2.77c0.22,0,0.25,0,0.25-0.21c0-0.98-0.54-1.95-1.78-1.95c-1.15,0-2.07,1.02-2.07,2.26
	c0,1.33,1.04,2.3,2.19,2.3c1.21,0,1.66-1.1,1.66-1.29c0-0.1-0.08-0.12-0.13-0.12c-0.09,0-0.11,0.06-0.13,0.14
	c-0.35,1.02-1.24,1.02-1.34,1.02c-0.5,0-0.89-0.3-1.12-0.67C180.41,152.2,180.41,151.54,180.41,151.18 M180.42,150.98
	c0.06-1.48,0.89-1.73,1.23-1.73c1.02,0,1.12,1.34,1.12,1.73H180.42z"/>
<path class="st0" d="M186.95,151.09v0.99c0,0.94-0.72,1.28-1.16,1.28c-0.49,0-0.89-0.35-0.89-0.84
	C184.89,151.98,185.31,151.15,186.95,151.09 M187.02,152.72c0.04,0.4,0.31,0.81,0.77,0.81c0.21,0,0.81-0.14,0.81-0.94v-0.56h-0.25
	v0.56c0,0.58-0.25,0.64-0.36,0.64c-0.33,0-0.37-0.45-0.37-0.5v-1.99c0-0.42,0-0.8-0.36-1.17c-0.39-0.39-0.88-0.55-1.36-0.55
	c-0.81,0-1.5,0.47-1.5,1.12c0,0.3,0.2,0.47,0.46,0.47c0.28,0,0.46-0.2,0.46-0.46c0-0.12-0.05-0.45-0.51-0.46
	c0.27-0.35,0.75-0.46,1.07-0.46c0.49,0,1.05,0.39,1.05,1.27v0.37c-0.51,0.03-1.2,0.06-1.83,0.36c-0.75,0.34-0.99,0.85-0.99,1.29
	c0,0.8,0.96,1.05,1.59,1.05C186.37,153.59,186.83,153.19,187.02,152.72z"/>
<path class="st0" d="M189.8,150.06v2.66c0,0.45-0.11,0.45-0.77,0.45v0.31c0.35-0.01,0.85-0.03,1.12-0.03c0.26,0,0.77,0.02,1.11,0.03
	v-0.31c-0.67,0-0.78,0-0.78-0.45v-1.83c0-1.03,0.7-1.59,1.34-1.59c0.63,0,0.74,0.54,0.74,1.1v2.31c0,0.45-0.11,0.45-0.77,0.45v0.31
	c0.35-0.01,0.85-0.03,1.12-0.03c0.26,0,0.77,0.02,1.11,0.03v-0.31c-0.52,0-0.76,0-0.77-0.3v-1.9c0-0.85,0-1.16-0.31-1.52
	c-0.14-0.17-0.47-0.37-1.04-0.37c-0.72,0-1.19,0.43-1.47,1.04v-1.04l-1.4,0.11v0.31C189.72,149.51,189.8,149.57,189.8,150.06"/>
<path class="st0" d="M199.58,151.55c0.22,0.04,1.03,0.2,1.03,0.91c0,0.51-0.35,0.9-1.12,0.9c-0.83,0-1.19-0.57-1.38-1.41
	c-0.03-0.13-0.04-0.17-0.14-0.17c-0.13,0-0.13,0.07-0.13,0.25v1.31c0,0.17,0,0.24,0.11,0.24c0.05,0,0.06-0.01,0.25-0.2
	c0.02-0.02,0.02-0.04,0.2-0.23c0.44,0.42,0.88,0.43,1.09,0.43c1.14,0,1.6-0.67,1.6-1.38c0-0.53-0.3-0.82-0.42-0.94
	c-0.33-0.32-0.72-0.4-1.13-0.48c-0.56-0.11-1.22-0.24-1.22-0.81c0-0.35,0.26-0.75,1.11-0.75c1.09,0,1.14,0.89,1.16,1.2
	c0.01,0.09,0.1,0.09,0.12,0.09c0.13,0,0.13-0.05,0.13-0.24v-1c0-0.17,0-0.24-0.11-0.24c-0.05,0-0.07,0-0.2,0.12
	c-0.03,0.04-0.13,0.13-0.17,0.16c-0.38-0.28-0.79-0.28-0.93-0.28c-1.21,0-1.59,0.67-1.59,1.22c0,0.35,0.16,0.62,0.43,0.84
	C198.58,151.35,198.86,151.41,199.58,151.55"/>
<path class="st0" d="M205.32,150.73v1.4c0,0.32-0.18,0.6-0.4,0.83c-0.13,0.14-0.45,0.41-0.91,0.41c-0.72,0-1.33-0.88-1.33-2.03
	c0-1.18,0.7-2.01,1.43-2.01C204.9,149.34,205.32,150.2,205.32,150.73 M205.29,152.87v1.78c0,0.45-0.11,0.45-0.77,0.45v0.31
	c0.34-0.01,0.85-0.03,1.11-0.03c0.27,0,0.78,0.02,1.12,0.03v-0.31c-0.67,0-0.77,0-0.77-0.45v-5.56h-0.22l-0.38,0.9
	c-0.13-0.28-0.54-0.9-1.33-0.9c-1.15,0-2.2,0.96-2.2,2.25c0,1.24,0.96,2.25,2.12,2.25C204.66,153.59,205.07,153.16,205.29,152.87z"
	/>
<path class="st0" d="M210.6,152.69v0.89l1.43-0.11v-0.31c-0.7,0-0.78-0.07-0.78-0.56v-3.53l-1.46,0.11v0.31
	c0.7,0,0.77,0.07,0.77,0.56v1.77c0,0.86-0.48,1.54-1.2,1.54c-0.83,0-0.87-0.47-0.87-0.98v-3.3l-1.46,0.11v0.31
	c0.77,0,0.77,0.03,0.77,0.91v1.49c0,0.77,0,1.68,1.51,1.68C209.87,153.59,210.31,153.31,210.6,152.69"/>
<path class="st0" d="M215.55,151.09v0.99c0,0.94-0.72,1.28-1.16,1.28c-0.49,0-0.89-0.35-0.89-0.84
	C213.49,151.98,213.91,151.15,215.55,151.09 M215.62,152.72c0.04,0.4,0.31,0.81,0.78,0.81c0.21,0,0.81-0.14,0.81-0.94v-0.56h-0.25
	v0.56c0,0.58-0.25,0.64-0.36,0.64c-0.33,0-0.37-0.45-0.37-0.5v-1.99c0-0.42,0-0.8-0.36-1.17c-0.39-0.39-0.88-0.55-1.36-0.55
	c-0.81,0-1.5,0.47-1.5,1.12c0,0.3,0.2,0.47,0.46,0.47c0.28,0,0.46-0.2,0.46-0.46c0-0.12-0.05-0.45-0.51-0.46
	c0.27-0.35,0.75-0.46,1.07-0.46c0.49,0,1.05,0.39,1.05,1.27v0.37c-0.51,0.03-1.2,0.06-1.83,0.36c-0.75,0.34-0.99,0.85-0.99,1.29
	c0,0.8,0.96,1.05,1.59,1.05C214.97,153.59,215.43,153.19,215.62,152.72z"/>
<path class="st0" d="M218.97,150.18v-1.09l-1.38,0.11v0.31c0.7,0,0.77,0.07,0.77,0.56v2.66c0,0.45-0.11,0.45-0.77,0.45v0.31
	c0.39-0.01,0.85-0.03,1.13-0.03c0.4,0,0.86,0,1.26,0.03v-0.31h-0.21c-0.74,0-0.75-0.11-0.75-0.47v-1.53c0-0.98,0.42-1.87,1.17-1.87
	c0.07,0,0.09,0,0.11,0.01c-0.03,0.01-0.23,0.13-0.23,0.39c0,0.28,0.21,0.43,0.43,0.43c0.18,0,0.43-0.12,0.43-0.44
	c0-0.32-0.31-0.61-0.73-0.61C219.47,149.09,219.11,149.75,218.97,150.18"/>
<path class="st0" d="M222.41,151.18h2.77c0.22,0,0.25,0,0.25-0.21c0-0.98-0.54-1.95-1.78-1.95c-1.15,0-2.07,1.02-2.07,2.26
	c0,1.33,1.04,2.3,2.19,2.3c1.21,0,1.66-1.1,1.66-1.29c0-0.1-0.08-0.12-0.13-0.12c-0.09,0-0.11,0.06-0.13,0.14
	c-0.35,1.02-1.24,1.02-1.34,1.02c-0.5,0-0.89-0.3-1.12-0.67C222.41,152.2,222.41,151.54,222.41,151.18 M222.42,150.98
	c0.06-1.48,0.89-1.73,1.23-1.73c1.02,0,1.12,1.34,1.12,1.73H222.42z"/>
<path class="st0" d="M229.49,150.27v2.04c0,0.18,0,0.2-0.11,0.37c-0.3,0.48-0.75,0.7-1.17,0.7c-0.45,0-0.8-0.26-1.04-0.64
	c-0.26-0.41-0.29-0.97-0.29-1.38c0-0.37,0.02-0.96,0.31-1.41c0.21-0.31,0.59-0.64,1.12-0.64c0.35,0,0.77,0.15,1.07,0.6
	C229.49,150.07,229.49,150.09,229.49,150.27 M229.49,152.93v0.66l1.46-0.11v-0.31c-0.7,0-0.77-0.07-0.77-0.56v-6.03l-1.43,0.11V147
	c0.7,0,0.78,0.07,0.78,0.56v2.15c-0.29-0.36-0.72-0.62-1.25-0.62c-1.17,0-2.22,0.97-2.22,2.25c0,1.26,0.97,2.25,2.11,2.25
	C228.79,153.59,229.24,153.25,229.49,152.93z"/>
<path class="st0" d="M189.92,160.16h2.77c0.22,0,0.25,0,0.25-0.21c0-0.98-0.54-1.95-1.78-1.95c-1.15,0-2.07,1.02-2.07,2.26
	c0,1.33,1.04,2.3,2.19,2.3c1.21,0,1.66-1.1,1.66-1.29c0-0.1-0.08-0.12-0.13-0.12c-0.09,0-0.11,0.06-0.13,0.14
	c-0.35,1.02-1.24,1.02-1.34,1.02c-0.5,0-0.89-0.3-1.12-0.67C189.92,161.17,189.92,160.52,189.92,160.16 M189.93,159.95
	c0.06-1.48,0.89-1.73,1.23-1.73c1.02,0,1.12,1.34,1.12,1.73H189.93z"/>
<path class="st0" d="M194.88,159.16v-1.09l-1.38,0.11v0.31c0.69,0,0.78,0.07,0.78,0.56v2.66c0,0.45-0.11,0.45-0.78,0.45v0.31
	c0.39-0.01,0.85-0.03,1.13-0.03c0.4,0,0.86,0,1.26,0.03v-0.31h-0.21c-0.74,0-0.76-0.11-0.76-0.47v-1.53c0-0.98,0.42-1.87,1.17-1.87
	c0.07,0,0.09,0,0.11,0.01c-0.03,0.01-0.23,0.13-0.23,0.39c0,0.28,0.21,0.43,0.43,0.43c0.18,0,0.43-0.12,0.43-0.44
	c0-0.32-0.31-0.61-0.73-0.61C195.37,158.06,195.01,158.73,194.88,159.16"/>
<path class="st0" d="M198.88,159.16v-1.09l-1.38,0.11v0.31c0.69,0,0.78,0.07,0.78,0.56v2.66c0,0.45-0.11,0.45-0.78,0.45v0.31
	c0.39-0.01,0.85-0.03,1.13-0.03c0.4,0,0.86,0,1.26,0.03v-0.31h-0.21c-0.74,0-0.76-0.11-0.76-0.47v-1.53c0-0.98,0.42-1.87,1.17-1.87
	c0.07,0,0.09,0,0.11,0.01c-0.03,0.01-0.23,0.13-0.23,0.39c0,0.28,0.21,0.43,0.43,0.43c0.18,0,0.43-0.12,0.43-0.44
	c0-0.32-0.31-0.61-0.73-0.61C199.37,158.06,199.01,158.73,198.88,159.16"/>
<path class="st0" d="M203.6,162.32c-0.43,0-0.86-0.21-1.13-0.67c-0.25-0.44-0.25-1.04-0.25-1.4c0-0.39,0-0.93,0.24-1.36
	c0.27-0.46,0.74-0.67,1.13-0.67c0.44,0,0.87,0.22,1.12,0.65c0.26,0.43,0.26,1,0.26,1.38c0,0.36,0,0.89-0.22,1.33
	C204.53,162.03,204.1,162.32,203.6,162.32 M205.79,160.33c0-1.27-0.99-2.32-2.2-2.32c-1.24,0-2.2,1.08-2.2,2.32
	c0,1.28,1.03,2.24,2.19,2.24C204.79,162.56,205.79,161.59,205.79,160.33z"/>
<path class="st0" d="M207.88,159.16v-1.09l-1.38,0.11v0.31c0.69,0,0.78,0.07,0.78,0.56v2.66c0,0.45-0.11,0.45-0.78,0.45v0.31
	c0.39-0.01,0.85-0.03,1.13-0.03c0.4,0,0.86,0,1.26,0.03v-0.31h-0.21c-0.74,0-0.76-0.11-0.76-0.47v-1.53c0-0.98,0.42-1.87,1.17-1.87
	c0.07,0,0.09,0,0.11,0.01c-0.03,0.01-0.23,0.13-0.23,0.39c0,0.28,0.21,0.43,0.43,0.43c0.18,0,0.43-0.12,0.43-0.44
	c0-0.32-0.31-0.61-0.73-0.61C208.37,158.06,208.01,158.73,207.88,159.16"/>
<path class="st0" d="M268.78,146.36c0.08-0.33,0.1-0.42,0.65-0.42c0.16,0,0.27,0,0.27-0.19c0-0.09-0.06-0.12-0.14-0.12
	c-0.25,0-0.85,0.03-1.1,0.03c-0.33,0-1.13-0.03-1.46-0.03c-0.09,0-0.21,0-0.21,0.2c0,0.11,0.08,0.11,0.34,0.11
	c0.23,0,0.33,0,0.58,0.02c0.24,0.03,0.31,0.06,0.31,0.2c0,0.06-0.02,0.13-0.04,0.21l-1.14,4.56c-0.24,0.96-0.91,1.49-1.43,1.49
	c-0.26,0-0.79-0.1-0.94-0.62c0.03,0.01,0.1,0.01,0.12,0.01c0.39,0,0.65-0.34,0.65-0.64c0-0.32-0.27-0.42-0.44-0.42
	c-0.18,0-0.67,0.12-0.67,0.8c0,0.62,0.53,1.08,1.31,1.08c0.91,0,1.95-0.66,2.2-1.64L268.78,146.36"/>
<path class="st0" d="M273.2,154.8c0-0.03,0-0.05-0.17-0.22c-1.24-1.25-1.56-3.13-1.56-4.65c0-1.73,0.38-3.46,1.6-4.7
	c0.13-0.12,0.13-0.14,0.13-0.17c0-0.07-0.04-0.1-0.1-0.1c-0.1,0-0.99,0.68-1.58,1.94c-0.51,1.09-0.63,2.2-0.63,3.03
	c0,0.77,0.11,1.98,0.66,3.1c0.6,1.22,1.45,1.87,1.55,1.87C273.16,154.9,273.2,154.87,273.2,154.8"/>
<path class="st0" d="M277.63,149.21c-0.62,2.66-1.45,2.93-1.8,2.93c-0.14,0-0.35-0.04-0.49-0.35c-0.12-0.27-0.12-0.65-0.12-0.66
	c0-0.57,0.22-1.49,0.33-1.92H277.63 M275.68,148.73c0.14-0.57,0.4-1.48,0.7-2c0.23-0.41,0.64-0.93,1.11-0.93
	c0.42,0,0.6,0.44,0.6,1.02c0,0.62-0.22,1.49-0.33,1.91H275.68z M279.14,147.55c0-1.75-1.03-2.11-1.64-2.11
	c-0.79,0-1.78,0.52-2.52,1.87c-0.51,0.93-0.82,2.28-0.82,3.09c0,1.44,0.76,2.1,1.65,2.1c0.67,0,1.54-0.39,2.23-1.4
	C278.87,149.87,279.14,148.29,279.14,147.55z"/>
<path class="st0" d="M282.48,149.93c0-0.78-0.11-1.98-0.65-3.1c-0.6-1.22-1.45-1.87-1.55-1.87c-0.06,0-0.1,0.04-0.1,0.1
	c0,0.03,0,0.05,0.19,0.23c0.97,0.98,1.54,2.56,1.54,4.64c0,1.7-0.37,3.45-1.6,4.7c-0.13,0.12-0.13,0.14-0.13,0.17
	c0,0.06,0.04,0.1,0.1,0.1c0.1,0,0.99-0.68,1.58-1.94C282.36,151.87,282.48,150.77,282.48,149.93"/>
<path class="st0" d="M293.14,151.09c0.14,0,0.33,0,0.33-0.2c0-0.2-0.19-0.2-0.34-0.2h-5.93c-0.15,0-0.34,0-0.34,0.2
	c0,0.2,0.19,0.2,0.33,0.2H293.14 M293.13,149.17c0.15,0,0.34,0,0.34-0.2c0-0.2-0.19-0.2-0.33-0.2h-5.95c-0.14,0-0.33,0-0.33,0.2
	c0,0.2,0.19,0.2,0.34,0.2H293.13z"/>
<path class="st0" d="M297.87,150.25c0-1.62,0.81-2.04,1.34-2.04c0.09,0,0.72,0.01,1.06,0.37c-0.41,0.03-0.47,0.33-0.47,0.46
	c0,0.26,0.18,0.46,0.46,0.46c0.26,0,0.46-0.17,0.46-0.47c0-0.68-0.75-1.06-1.52-1.06c-1.24,0-2.16,1.07-2.16,2.3
	c0,1.27,0.98,2.25,2.14,2.25c1.33,0,1.65-1.19,1.65-1.29c0-0.1-0.1-0.1-0.13-0.1c-0.09,0-0.11,0.04-0.13,0.1
	c-0.29,0.92-0.93,1.04-1.3,1.04C298.74,152.28,297.87,151.85,297.87,150.25"/>
<path class="st0" d="M303.69,152.28c-0.43,0-0.86-0.21-1.13-0.67c-0.25-0.44-0.25-1.04-0.25-1.4c0-0.39,0-0.93,0.24-1.36
	c0.27-0.46,0.74-0.67,1.13-0.67c0.44,0,0.86,0.22,1.12,0.65c0.26,0.43,0.26,1,0.26,1.38c0,0.36,0,0.89-0.22,1.33
	C304.63,151.99,304.19,152.28,303.69,152.28 M305.89,150.29c0-1.27-0.99-2.32-2.2-2.32c-1.24,0-2.2,1.08-2.2,2.32
	c0,1.28,1.03,2.24,2.2,2.24C304.88,152.53,305.89,151.55,305.89,150.29z"/>
<path class="st0" d="M307.3,149v2.66c0,0.45-0.11,0.45-0.77,0.45v0.31c0.35-0.01,0.85-0.03,1.12-0.03c0.26,0,0.78,0.02,1.11,0.03
	v-0.31c-0.67,0-0.77,0-0.77-0.45v-1.83c0-1.03,0.7-1.59,1.34-1.59c0.63,0,0.74,0.54,0.74,1.1v2.31c0,0.45-0.11,0.45-0.78,0.45v0.31
	c0.35-0.01,0.85-0.03,1.12-0.03c0.26,0,0.77,0.02,1.11,0.03v-0.31c-0.52,0-0.76,0-0.77-0.3v-1.9c0-0.85,0-1.16-0.31-1.52
	c-0.14-0.17-0.47-0.37-1.04-0.37c-0.73,0-1.19,0.43-1.47,1.04v-1.04l-1.4,0.11v0.31C307.22,148.44,307.3,148.51,307.3,149"/>
<path class="st0" d="M315.48,149.21v2.04c0,0.18,0,0.2-0.11,0.37c-0.3,0.48-0.75,0.7-1.17,0.7c-0.45,0-0.8-0.26-1.04-0.64
	c-0.26-0.41-0.29-0.97-0.29-1.38c0-0.37,0.02-0.96,0.31-1.41c0.21-0.31,0.59-0.64,1.12-0.64c0.35,0,0.77,0.15,1.07,0.6
	C315.48,149.01,315.48,149.03,315.48,149.21 M315.48,151.87v0.66l1.46-0.11v-0.31c-0.7,0-0.77-0.07-0.77-0.56v-6.03l-1.43,0.11v0.31
	c0.7,0,0.77,0.07,0.77,0.56v2.15c-0.29-0.36-0.72-0.62-1.25-0.62c-1.17,0-2.22,0.97-2.22,2.25c0,1.26,0.97,2.25,2.11,2.25
	C314.79,152.53,315.23,152.19,315.48,151.87z"/>
<path class="st0" d="M319.11,146.3c0-0.32-0.25-0.53-0.53-0.53c-0.31,0-0.53,0.27-0.53,0.53c0,0.27,0.22,0.53,0.53,0.53
	C318.86,146.82,319.11,146.61,319.11,146.3 M319.07,148.03l-1.39,0.11v0.31c0.65,0,0.74,0.06,0.74,0.55v2.67
	c0,0.45-0.11,0.45-0.77,0.45v0.31c0.32-0.01,0.85-0.03,1.09-0.03c0.35,0,0.7,0.02,1.03,0.03v-0.31c-0.65,0-0.7-0.05-0.7-0.44V148.03
	z"/>
<path class="st0" d="M321.73,148.44h1.42v-0.31h-1.42v-1.83h-0.25c-0.01,0.81-0.31,1.88-1.28,1.92v0.22h0.84v2.74
	c0,1.22,0.92,1.34,1.28,1.34c0.71,0,0.98-0.7,0.98-1.34v-0.57h-0.25v0.55c0,0.73-0.3,1.11-0.67,1.11c-0.67,0-0.67-0.9-0.67-1.07
	V148.44"/>
<path class="st0" d="M325.71,146.3c0-0.32-0.25-0.53-0.53-0.53c-0.31,0-0.53,0.27-0.53,0.53c0,0.27,0.22,0.53,0.53,0.53
	C325.46,146.82,325.71,146.61,325.71,146.3 M325.67,148.03l-1.39,0.11v0.31c0.65,0,0.74,0.06,0.74,0.55v2.67
	c0,0.45-0.11,0.45-0.77,0.45v0.31c0.32-0.01,0.85-0.03,1.09-0.03c0.35,0,0.7,0.02,1.03,0.03v-0.31c-0.65,0-0.7-0.05-0.7-0.44V148.03
	z"/>
<path class="st0" d="M329.09,152.28c-0.43,0-0.86-0.21-1.13-0.67c-0.25-0.44-0.25-1.04-0.25-1.4c0-0.39,0-0.93,0.24-1.36
	c0.27-0.46,0.74-0.67,1.13-0.67c0.44,0,0.86,0.22,1.12,0.65c0.26,0.43,0.26,1,0.26,1.38c0,0.36,0,0.89-0.22,1.33
	C330.03,151.99,329.59,152.28,329.09,152.28 M331.29,150.29c0-1.27-0.99-2.32-2.2-2.32c-1.24,0-2.2,1.08-2.2,2.32
	c0,1.28,1.03,2.24,2.2,2.24C330.28,152.53,331.29,151.55,331.29,150.29z"/>
<path class="st0" d="M332.8,149v2.66c0,0.45-0.11,0.45-0.77,0.45v0.31c0.35-0.01,0.85-0.03,1.12-0.03c0.26,0,0.77,0.02,1.11,0.03
	v-0.31c-0.67,0-0.77,0-0.77-0.45v-1.83c0-1.03,0.7-1.59,1.34-1.59c0.63,0,0.74,0.54,0.74,1.1v2.31c0,0.45-0.11,0.45-0.77,0.45v0.31
	c0.35-0.01,0.85-0.03,1.12-0.03c0.26,0,0.77,0.02,1.11,0.03v-0.31c-0.52,0-0.76,0-0.77-0.3v-1.9c0-0.85,0-1.16-0.31-1.52
	c-0.14-0.17-0.47-0.37-1.04-0.37c-0.72,0-1.19,0.43-1.47,1.04v-1.04l-1.4,0.11v0.31C332.72,148.44,332.8,148.51,332.8,149"/>
<path class="st0" d="M340.45,150.03v0.99c0,0.94-0.72,1.28-1.16,1.28c-0.49,0-0.89-0.35-0.89-0.84
	C338.39,150.92,338.81,150.09,340.45,150.03 M340.52,151.66c0.04,0.4,0.31,0.81,0.77,0.81c0.21,0,0.81-0.14,0.81-0.94v-0.56h-0.25
	v0.56c0,0.58-0.25,0.64-0.36,0.64c-0.33,0-0.37-0.45-0.37-0.5v-1.99c0-0.42,0-0.8-0.36-1.17c-0.39-0.39-0.88-0.55-1.36-0.55
	c-0.81,0-1.5,0.47-1.5,1.12c0,0.3,0.2,0.47,0.46,0.47c0.28,0,0.46-0.2,0.46-0.46c0-0.12-0.05-0.45-0.51-0.46
	c0.27-0.35,0.75-0.46,1.07-0.46c0.49,0,1.05,0.39,1.05,1.27v0.37c-0.51,0.03-1.2,0.06-1.83,0.36c-0.75,0.34-0.99,0.85-0.99,1.29
	c0,0.8,0.96,1.05,1.59,1.05C339.87,152.53,340.33,152.13,340.52,151.66z"/>
<path class="st0" d="M343.97,145.52l-1.43,0.11v0.31c0.7,0,0.77,0.07,0.77,0.56v5.17c0,0.45-0.11,0.45-0.77,0.45v0.31
	c0.33-0.01,0.85-0.03,1.1-0.03c0.25,0,0.74,0.02,1.1,0.03v-0.31c-0.67,0-0.77,0-0.77-0.45V145.52"/>
<path class="st0" d="M349.37,150.25c0-1.62,0.81-2.04,1.34-2.04c0.09,0,0.72,0.01,1.06,0.37c-0.41,0.03-0.47,0.33-0.47,0.46
	c0,0.26,0.18,0.46,0.46,0.46c0.26,0,0.46-0.17,0.46-0.47c0-0.68-0.75-1.06-1.52-1.06c-1.24,0-2.16,1.07-2.16,2.3
	c0,1.27,0.98,2.25,2.14,2.25c1.33,0,1.65-1.19,1.65-1.29c0-0.1-0.1-0.1-0.13-0.1c-0.09,0-0.11,0.04-0.13,0.1
	c-0.29,0.92-0.93,1.04-1.3,1.04C350.24,152.28,349.37,151.85,349.37,150.25"/>
<path class="st0" d="M354.37,149.12v-1.09l-1.38,0.11v0.31c0.7,0,0.77,0.07,0.77,0.56v2.66c0,0.45-0.11,0.45-0.77,0.45v0.31
	c0.39-0.01,0.85-0.03,1.13-0.03c0.4,0,0.86,0,1.26,0.03v-0.31h-0.21c-0.74,0-0.75-0.11-0.75-0.47v-1.53c0-0.98,0.42-1.87,1.17-1.87
	c0.07,0,0.09,0,0.11,0.01c-0.03,0.01-0.23,0.13-0.23,0.39c0,0.28,0.21,0.43,0.43,0.43c0.18,0,0.43-0.12,0.43-0.44
	c0-0.32-0.31-0.61-0.73-0.61C354.86,148.03,354.51,148.69,354.37,149.12"/>
<path class="st0" d="M359.09,152.28c-0.43,0-0.86-0.21-1.13-0.67c-0.25-0.44-0.25-1.04-0.25-1.4c0-0.39,0-0.93,0.24-1.36
	c0.27-0.46,0.74-0.67,1.13-0.67c0.44,0,0.86,0.22,1.12,0.65c0.26,0.43,0.26,1,0.26,1.38c0,0.36,0,0.89-0.22,1.33
	C360.03,151.99,359.59,152.28,359.09,152.28 M361.29,150.29c0-1.27-0.99-2.32-2.2-2.32c-1.24,0-2.2,1.08-2.2,2.32
	c0,1.28,1.03,2.24,2.2,2.24C360.28,152.53,361.29,151.55,361.29,150.29z"/>
<path class="st0" d="M363.77,150.49c0.22,0.04,1.03,0.2,1.03,0.91c0,0.51-0.35,0.9-1.12,0.9c-0.83,0-1.19-0.57-1.38-1.41
	c-0.03-0.13-0.04-0.17-0.14-0.17c-0.13,0-0.13,0.07-0.13,0.25v1.31c0,0.17,0,0.24,0.11,0.24c0.05,0,0.06-0.01,0.25-0.2
	c0.02-0.02,0.02-0.04,0.2-0.23c0.44,0.42,0.88,0.43,1.09,0.43c1.14,0,1.6-0.67,1.6-1.38c0-0.53-0.3-0.82-0.42-0.94
	c-0.33-0.32-0.71-0.4-1.13-0.48c-0.56-0.11-1.22-0.24-1.22-0.81c0-0.35,0.26-0.75,1.11-0.75c1.09,0,1.14,0.89,1.16,1.2
	c0.01,0.09,0.1,0.09,0.12,0.09c0.13,0,0.13-0.05,0.13-0.24v-1c0-0.17,0-0.24-0.11-0.24c-0.05,0-0.07,0-0.2,0.12
	c-0.03,0.04-0.13,0.13-0.17,0.16c-0.38-0.28-0.79-0.28-0.93-0.28c-1.21,0-1.59,0.67-1.59,1.22c0,0.35,0.16,0.62,0.43,0.84
	C362.78,150.29,363.06,150.35,363.77,150.49"/>
<path class="st0" d="M367.67,150.49c0.22,0.04,1.03,0.2,1.03,0.91c0,0.51-0.35,0.9-1.12,0.9c-0.84,0-1.19-0.57-1.38-1.41
	c-0.03-0.13-0.04-0.17-0.14-0.17c-0.13,0-0.13,0.07-0.13,0.25v1.31c0,0.17,0,0.24,0.11,0.24c0.05,0,0.06-0.01,0.25-0.2
	c0.02-0.02,0.02-0.04,0.2-0.23c0.44,0.42,0.89,0.43,1.09,0.43c1.14,0,1.6-0.67,1.6-1.38c0-0.53-0.3-0.82-0.42-0.94
	c-0.33-0.32-0.71-0.4-1.13-0.48c-0.56-0.11-1.22-0.24-1.22-0.81c0-0.35,0.26-0.75,1.11-0.75c1.09,0,1.14,0.89,1.16,1.2
	c0.01,0.09,0.1,0.09,0.12,0.09c0.13,0,0.13-0.05,0.13-0.24v-1c0-0.17,0-0.24-0.11-0.24c-0.05,0-0.07,0-0.2,0.12
	c-0.03,0.04-0.13,0.13-0.17,0.16c-0.38-0.28-0.79-0.28-0.93-0.28c-1.21,0-1.59,0.67-1.59,1.22c0,0.35,0.16,0.62,0.43,0.84
	C366.68,150.29,366.96,150.35,367.67,150.49"/>
<path class="st0" d="M316.07,158.71h2.77c0.22,0,0.25,0,0.25-0.21c0-0.98-0.54-1.95-1.78-1.95c-1.15,0-2.07,1.02-2.07,2.26
	c0,1.33,1.04,2.3,2.19,2.3c1.21,0,1.66-1.1,1.66-1.29c0-0.1-0.08-0.12-0.13-0.12c-0.09,0-0.11,0.06-0.13,0.14
	c-0.35,1.02-1.24,1.02-1.34,1.02c-0.5,0-0.89-0.3-1.12-0.67C316.07,159.73,316.07,159.07,316.07,158.71 M316.08,158.51
	c0.06-1.48,0.89-1.73,1.23-1.73c1.02,0,1.12,1.34,1.12,1.73H316.08z"/>
<path class="st0" d="M320.46,157.59v2.66c0,0.45-0.11,0.45-0.77,0.45v0.31c0.35-0.01,0.85-0.03,1.12-0.03
	c0.26,0,0.77,0.02,1.11,0.03v-0.31c-0.67,0-0.77,0-0.77-0.45v-1.83c0-1.03,0.7-1.59,1.34-1.59c0.63,0,0.74,0.54,0.74,1.1v2.31
	c0,0.45-0.11,0.45-0.77,0.45v0.31c0.35-0.01,0.85-0.03,1.12-0.03c0.26,0,0.77,0.02,1.11,0.03v-0.31c-0.52,0-0.76,0-0.78-0.3v-1.9
	c0-0.85,0-1.16-0.31-1.52c-0.14-0.17-0.46-0.37-1.04-0.37c-0.73,0-1.19,0.43-1.47,1.04v-1.04l-1.4,0.11v0.31
	C320.38,157.04,320.46,157.1,320.46,157.59"/>
<path class="st0" d="M326.39,157.04h1.42v-0.31h-1.42v-1.83h-0.25c-0.01,0.81-0.31,1.88-1.28,1.92v0.22h0.84v2.74
	c0,1.22,0.92,1.34,1.28,1.34c0.71,0,0.98-0.7,0.98-1.34v-0.57h-0.25v0.55c0,0.73-0.3,1.11-0.67,1.11c-0.67,0-0.67-0.9-0.67-1.07
	V157.04"/>
<path class="st0" d="M330.23,157.71v-1.09l-1.38,0.11v0.31c0.69,0,0.77,0.07,0.77,0.56v2.66c0,0.45-0.11,0.45-0.77,0.45v0.31
	c0.39-0.01,0.85-0.03,1.13-0.03c0.4,0,0.86,0,1.26,0.03v-0.31h-0.21c-0.74,0-0.76-0.11-0.76-0.47v-1.53c0-0.98,0.42-1.87,1.17-1.87
	c0.07,0,0.09,0,0.11,0.01c-0.03,0.01-0.23,0.13-0.23,0.39c0,0.28,0.21,0.43,0.43,0.43c0.18,0,0.43-0.12,0.43-0.44
	c0-0.32-0.31-0.61-0.73-0.61C330.73,156.62,330.37,157.28,330.23,157.71"/>
<path class="st0" d="M334.95,160.87c-0.43,0-0.86-0.21-1.13-0.67c-0.25-0.44-0.25-1.04-0.25-1.4c0-0.39,0-0.93,0.24-1.36
	c0.27-0.46,0.74-0.67,1.13-0.67c0.44,0,0.87,0.22,1.12,0.65c0.26,0.43,0.26,1,0.26,1.38c0,0.36,0,0.89-0.22,1.33
	C335.89,160.58,335.45,160.87,334.95,160.87 M337.15,158.88c0-1.27-0.99-2.32-2.2-2.32c-1.24,0-2.2,1.08-2.2,2.32
	c0,1.28,1.03,2.24,2.19,2.24C336.15,161.12,337.15,160.14,337.15,158.88z"/>
<path class="st0" d="M339.31,159.88v-2.22c0.29-0.51,0.77-0.79,1.28-0.79c0.73,0,1.33,0.87,1.33,2c0,1.2-0.7,2.04-1.43,2.04
	c-0.4,0-0.77-0.2-1.04-0.61C339.31,160.09,339.31,160.07,339.31,159.88 M339.28,157.27v-0.66l-1.43,0.11v0.31
	c0.7,0,0.77,0.06,0.77,0.5v4.65c0,0.45-0.11,0.45-0.77,0.45v0.31c0.34-0.01,0.85-0.03,1.11-0.03c0.27,0,0.78,0.02,1.12,0.03v-0.31
	c-0.67,0-0.77,0-0.77-0.45v-1.67v-0.09c0.05,0.16,0.47,0.7,1.22,0.7c1.18,0,2.21-0.97,2.21-2.25c0-1.26-0.96-2.25-2.07-2.25
	C339.9,156.62,339.48,157.06,339.28,157.27z"/>
<path class="st0" d="M346.89,157.67c0.26-0.63,0.77-0.64,0.93-0.64v-0.31c-0.23,0.02-0.52,0.03-0.74,0.03
	c-0.18,0-0.65-0.02-0.86-0.03v0.31c0.31,0.01,0.47,0.18,0.47,0.43c0,0.1-0.01,0.12-0.06,0.24l-1,2.44l-1.1-2.67
	c-0.04-0.1-0.06-0.14-0.06-0.18c0-0.26,0.37-0.26,0.56-0.26v-0.31c-0.26,0.01-0.91,0.03-1.08,0.03c-0.27,0-0.66-0.01-0.96-0.03v0.31
	c0.48,0,0.67,0,0.8,0.35l1.49,3.63c-0.05,0.13-0.19,0.46-0.25,0.59c-0.22,0.55-0.49,1.23-1.13,1.23c-0.05,0-0.28,0-0.47-0.18
	c0.31-0.04,0.39-0.26,0.39-0.42c0-0.26-0.19-0.42-0.42-0.42c-0.2,0-0.42,0.13-0.42,0.43c0,0.45,0.42,0.8,0.91,0.8
	c0.62,0,1.03-0.57,1.27-1.13L346.89,157.67"/>
<path class="st0" d="M84.88,62.63c-1,0-1.69-0.51-1.69-1.03c0-0.46,0.38-0.82,0.81-0.85h0.59c0.85,0,1.97,0,1.97,0.85
	C86.56,62.13,85.85,62.63,84.88,62.63 M83.45,59.49c0-0.04,0-0.27,0.17-0.47c0.39,0.28,0.8,0.31,0.98,0.31
	c0.93,0,1.61-0.69,1.61-1.45c0-0.37-0.16-0.74-0.41-0.96c0.36-0.34,0.71-0.39,0.89-0.39c0.02,0,0.07,0,0.1,0.01
	c-0.11,0.04-0.16,0.15-0.16,0.27c0,0.17,0.13,0.29,0.29,0.29c0.1,0,0.29-0.07,0.29-0.3c0-0.17-0.12-0.49-0.51-0.49
	c-0.2,0-0.64,0.06-1.05,0.47c-0.42-0.33-0.83-0.36-1.05-0.36c-0.92,0-1.61,0.69-1.61,1.45c0,0.44,0.22,0.81,0.47,1.02
	c-0.13,0.15-0.31,0.48-0.31,0.83c0,0.31,0.13,0.68,0.44,0.88c-0.6,0.17-0.91,0.6-0.91,0.99c0,0.72,0.98,1.26,2.2,1.26
	c1.17,0,2.2-0.51,2.2-1.28c0-0.35-0.14-0.85-0.65-1.13c-0.53-0.28-1.1-0.28-1.71-0.28c-0.25,0-0.68,0-0.75-0.01
	C83.66,60.12,83.45,59.81,83.45,59.49z M84.6,59.1c-0.86,0-0.86-0.99-0.86-1.22c0-0.27,0.01-0.59,0.16-0.84
	c0.08-0.12,0.31-0.4,0.7-0.4c0.86,0,0.86,0.99,0.86,1.22c0,0.27-0.01,0.59-0.16,0.83C85.23,58.82,85,59.1,84.6,59.1z"/>
<path class="st0" d="M88.6,58.52h2.77c0.22,0,0.25,0,0.25-0.21c0-0.98-0.54-1.95-1.78-1.95c-1.15,0-2.07,1.02-2.07,2.26
	c0,1.33,1.04,2.3,2.19,2.3c1.21,0,1.66-1.1,1.66-1.29c0-0.1-0.08-0.12-0.13-0.12c-0.09,0-0.11,0.06-0.13,0.14
	c-0.35,1.02-1.24,1.02-1.34,1.02c-0.5,0-0.89-0.3-1.12-0.67C88.6,59.53,88.6,58.87,88.6,58.52 M88.61,58.31
	c0.06-1.48,0.89-1.73,1.23-1.73c1.02,0,1.12,1.34,1.12,1.73H88.61z"/>
<path class="st0" d="M92.99,57.39v2.66c0,0.45-0.11,0.45-0.78,0.45v0.31c0.35-0.01,0.85-0.03,1.12-0.03c0.26,0,0.78,0.02,1.11,0.03
	V60.5c-0.67,0-0.78,0-0.78-0.45v-1.83c0-1.03,0.7-1.59,1.34-1.59c0.63,0,0.74,0.54,0.74,1.1v2.31c0,0.45-0.11,0.45-0.78,0.45v0.31
	c0.35-0.01,0.85-0.03,1.12-0.03c0.26,0,0.78,0.02,1.11,0.03V60.5c-0.52,0-0.76,0-0.78-0.3v-1.9c0-0.85,0-1.16-0.31-1.52
	c-0.14-0.17-0.47-0.37-1.04-0.37c-0.73,0-1.19,0.43-1.47,1.04v-1.04l-1.4,0.11v0.31C92.91,56.84,92.99,56.91,92.99,57.39"/>
<path class="st0" d="M98.5,58.52h2.77c0.22,0,0.25,0,0.25-0.21c0-0.98-0.54-1.95-1.78-1.95c-1.15,0-2.07,1.02-2.07,2.26
	c0,1.33,1.04,2.3,2.19,2.3c1.21,0,1.66-1.1,1.66-1.29c0-0.1-0.08-0.12-0.13-0.12c-0.09,0-0.11,0.06-0.13,0.14
	c-0.35,1.02-1.24,1.02-1.34,1.02c-0.5,0-0.89-0.3-1.12-0.67C98.5,59.53,98.5,58.87,98.5,58.52 M98.51,58.31
	c0.06-1.48,0.89-1.73,1.23-1.73c1.02,0,1.12,1.34,1.12,1.73H98.51z"/>
<path class="st0" d="M103.56,57.51v-1.09l-1.38,0.11v0.31c0.7,0,0.78,0.07,0.78,0.56v2.66c0,0.45-0.11,0.45-0.78,0.45v0.31
	c0.39-0.01,0.85-0.03,1.13-0.03c0.4,0,0.86,0,1.26,0.03V60.5h-0.21c-0.74,0-0.75-0.11-0.75-0.47v-1.53c0-0.98,0.42-1.87,1.17-1.87
	c0.07,0,0.09,0,0.11,0.01c-0.03,0.01-0.23,0.13-0.23,0.39c0,0.28,0.21,0.43,0.43,0.43c0.18,0,0.43-0.12,0.43-0.44
	c0-0.32-0.31-0.61-0.73-0.61C104.05,56.42,103.69,57.09,103.56,57.51"/>
<path class="st0" d="M109.03,58.43v0.99c0,0.94-0.72,1.28-1.16,1.28c-0.49,0-0.89-0.35-0.89-0.84
	C106.98,59.31,107.4,58.49,109.03,58.43 M109.1,60.06c0.04,0.4,0.31,0.81,0.78,0.81c0.21,0,0.81-0.14,0.81-0.94v-0.56h-0.25v0.56
	c0,0.58-0.25,0.64-0.36,0.64c-0.33,0-0.37-0.45-0.37-0.5v-1.99c0-0.42,0-0.8-0.36-1.17c-0.39-0.39-0.88-0.55-1.36-0.55
	c-0.81,0-1.5,0.47-1.5,1.12c0,0.3,0.2,0.47,0.46,0.47c0.28,0,0.46-0.2,0.46-0.46c0-0.12-0.05-0.45-0.51-0.46
	c0.27-0.35,0.75-0.46,1.07-0.46c0.49,0,1.05,0.39,1.05,1.27v0.37c-0.51,0.03-1.2,0.06-1.83,0.36c-0.75,0.34-0.99,0.85-0.99,1.29
	c0,0.8,0.96,1.05,1.59,1.05C108.46,60.92,108.91,60.52,109.1,60.06z"/>
<path class="st0" d="M112.61,56.84h1.42v-0.31h-1.42V54.7h-0.25c-0.01,0.81-0.31,1.88-1.28,1.92v0.22h0.84v2.74
	c0,1.22,0.92,1.34,1.28,1.34c0.71,0,0.98-0.7,0.98-1.34v-0.57h-0.25v0.55c0,0.73-0.3,1.11-0.67,1.11c-0.67,0-0.67-0.9-0.67-1.07
	V56.84"/>
<path class="st0" d="M116.49,54.69c0-0.32-0.25-0.53-0.53-0.53c-0.31,0-0.53,0.27-0.53,0.53c0,0.27,0.22,0.53,0.53,0.53
	C116.25,55.22,116.49,55.01,116.49,54.69 M116.45,56.42l-1.39,0.11v0.31c0.65,0,0.74,0.06,0.74,0.55v2.67
	c0,0.45-0.11,0.45-0.78,0.45v0.31c0.32-0.01,0.85-0.03,1.09-0.03c0.35,0,0.7,0.02,1.03,0.03V60.5c-0.65,0-0.7-0.05-0.7-0.44V56.42z"
	/>
<path class="st0" d="M121.63,57.5c0.09-0.23,0.26-0.66,0.91-0.67v-0.31c-0.23,0.02-0.52,0.03-0.75,0.03c-0.24,0-0.7-0.02-0.86-0.03
	v0.31c0.37,0.01,0.48,0.24,0.48,0.43c0,0.09-0.02,0.13-0.06,0.24l-1.01,2.53l-1.11-2.77c-0.06-0.13-0.06-0.15-0.06-0.17
	c0-0.26,0.39-0.26,0.57-0.26v-0.31c-0.3,0.01-0.85,0.03-1.08,0.03c-0.27,0-0.66-0.01-0.96-0.03v0.31c0.62,0,0.67,0.06,0.79,0.37
	l1.43,3.53c0.06,0.14,0.08,0.19,0.21,0.19c0.13,0,0.17-0.09,0.21-0.19L121.63,57.5"/>
<path class="st0" d="M123.6,58.52h2.77c0.22,0,0.25,0,0.25-0.21c0-0.98-0.54-1.95-1.78-1.95c-1.15,0-2.07,1.02-2.07,2.26
	c0,1.33,1.04,2.3,2.19,2.3c1.21,0,1.66-1.1,1.66-1.29c0-0.1-0.08-0.12-0.13-0.12c-0.09,0-0.11,0.06-0.13,0.14
	c-0.35,1.02-1.24,1.02-1.34,1.02c-0.5,0-0.89-0.3-1.12-0.67C123.6,59.53,123.6,58.87,123.6,58.52 M123.61,58.31
	c0.06-1.48,0.89-1.73,1.23-1.73c1.02,0,1.12,1.34,1.12,1.73H123.61z"/>
<path class="st0" d="M176.89,57.45v2.04c0,0.18,0,0.2-0.11,0.37c-0.3,0.48-0.75,0.7-1.17,0.7c-0.45,0-0.8-0.26-1.04-0.64
	c-0.26-0.41-0.29-0.97-0.29-1.38c0-0.37,0.02-0.96,0.31-1.41c0.21-0.31,0.59-0.64,1.12-0.64c0.35,0,0.77,0.15,1.07,0.6
	C176.89,57.25,176.89,57.27,176.89,57.45 M176.89,60.11v0.66l1.46-0.11v-0.31c-0.7,0-0.77-0.07-0.77-0.56v-6.03l-1.43,0.11v0.31
	c0.7,0,0.78,0.07,0.78,0.56v2.15c-0.29-0.36-0.72-0.62-1.25-0.62c-1.17,0-2.22,0.97-2.22,2.25c0,1.26,0.97,2.25,2.11,2.25
	C176.19,60.77,176.64,60.43,176.89,60.11z"/>
<path class="st0" d="M180.41,54.54c0-0.32-0.25-0.53-0.53-0.53c-0.31,0-0.53,0.27-0.53,0.53c0,0.27,0.22,0.53,0.53,0.53
	C180.16,55.06,180.41,54.86,180.41,54.54 M180.37,56.27l-1.39,0.11v0.31c0.65,0,0.74,0.06,0.74,0.55v2.67
	c0,0.45-0.11,0.45-0.77,0.45v0.31c0.32-0.01,0.85-0.03,1.09-0.03c0.35,0,0.7,0.02,1.03,0.03v-0.31c-0.65,0-0.7-0.05-0.7-0.44V56.27z
	"/>
<path class="st0" d="M183.38,58.73c0.22,0.04,1.03,0.2,1.03,0.91c0,0.51-0.35,0.9-1.12,0.9c-0.83,0-1.19-0.57-1.38-1.41
	c-0.03-0.13-0.04-0.17-0.14-0.17c-0.13,0-0.13,0.07-0.13,0.25v1.31c0,0.17,0,0.24,0.11,0.24c0.05,0,0.06-0.01,0.25-0.2
	c0.02-0.02,0.02-0.04,0.2-0.23c0.44,0.42,0.88,0.43,1.09,0.43c1.14,0,1.6-0.67,1.6-1.38c0-0.53-0.3-0.82-0.42-0.94
	c-0.33-0.32-0.72-0.4-1.13-0.48c-0.56-0.11-1.22-0.24-1.22-0.81c0-0.35,0.26-0.75,1.11-0.75c1.09,0,1.14,0.89,1.16,1.2
	c0.01,0.09,0.1,0.09,0.12,0.09c0.13,0,0.13-0.05,0.13-0.24v-1c0-0.17,0-0.24-0.11-0.24c-0.05,0-0.07,0-0.2,0.12
	c-0.03,0.04-0.13,0.13-0.17,0.16c-0.38-0.28-0.79-0.28-0.93-0.28c-1.21,0-1.59,0.67-1.59,1.22c0,0.35,0.16,0.62,0.43,0.84
	C182.38,58.53,182.66,58.59,183.38,58.73"/>
<path class="st0" d="M186.47,58.49c0-1.62,0.81-2.04,1.34-2.04c0.09,0,0.72,0.01,1.06,0.37c-0.41,0.03-0.47,0.33-0.47,0.46
	c0,0.26,0.18,0.46,0.46,0.46c0.26,0,0.46-0.17,0.46-0.47c0-0.67-0.75-1.06-1.52-1.06c-1.24,0-2.16,1.07-2.16,2.3
	c0,1.27,0.98,2.25,2.14,2.25c1.33,0,1.65-1.19,1.65-1.29c0-0.1-0.1-0.1-0.13-0.1c-0.09,0-0.11,0.04-0.13,0.1
	c-0.29,0.92-0.93,1.04-1.3,1.04C187.35,60.52,186.47,60.09,186.47,58.49"/>
<path class="st0" d="M191.37,57.36v-1.09l-1.38,0.11v0.31c0.7,0,0.77,0.07,0.77,0.56v2.66c0,0.45-0.11,0.45-0.77,0.45v0.31
	c0.39-0.01,0.85-0.03,1.13-0.03c0.4,0,0.86,0,1.26,0.03v-0.31h-0.21c-0.74,0-0.75-0.11-0.75-0.47v-1.53c0-0.98,0.42-1.87,1.17-1.87
	c0.07,0,0.09,0,0.11,0.01c-0.03,0.01-0.23,0.13-0.23,0.39c0,0.28,0.21,0.43,0.43,0.43c0.18,0,0.43-0.12,0.43-0.44
	c0-0.32-0.31-0.61-0.73-0.61C191.87,56.27,191.51,56.93,191.37,57.36"/>
<path class="st0" d="M195.51,54.54c0-0.32-0.25-0.53-0.53-0.53c-0.31,0-0.53,0.27-0.53,0.53c0,0.27,0.22,0.53,0.53,0.53
	C195.26,55.06,195.51,54.86,195.51,54.54 M195.47,56.27l-1.39,0.11v0.31c0.65,0,0.74,0.06,0.74,0.55v2.67
	c0,0.45-0.11,0.45-0.77,0.45v0.31c0.32-0.01,0.85-0.03,1.09-0.03c0.35,0,0.7,0.02,1.03,0.03v-0.31c-0.65,0-0.7-0.05-0.7-0.44V56.27z
	"/>
<path class="st0" d="M197.6,57.24v2.66c0,0.45-0.11,0.45-0.77,0.45v0.31c0.35-0.01,0.85-0.03,1.12-0.03c0.26,0,0.78,0.02,1.11,0.03
	v-0.31c-0.67,0-0.77,0-0.77-0.45v-1.83c0-1.03,0.7-1.59,1.34-1.59c0.63,0,0.74,0.54,0.74,1.1v2.31c0,0.45-0.11,0.45-0.78,0.45v0.31
	c0.35-0.01,0.85-0.03,1.12-0.03c0.26,0,0.77,0.02,1.11,0.03v-0.31c-0.67,0-0.78,0-0.78-0.45v-1.83c0-1.03,0.71-1.59,1.34-1.59
	c0.62,0,0.73,0.54,0.73,1.1v2.31c0,0.45-0.11,0.45-0.77,0.45v0.31c0.35-0.01,0.85-0.03,1.12-0.03c0.26,0,0.78,0.02,1.11,0.03v-0.31
	c-0.52,0-0.77,0-0.77-0.3v-1.9c0-0.85,0-1.16-0.31-1.52c-0.14-0.17-0.47-0.37-1.04-0.37c-0.83,0-1.27,0.6-1.44,0.97
	c-0.14-0.86-0.87-0.97-1.32-0.97c-0.73,0-1.19,0.43-1.47,1.04v-1.04l-1.4,0.11v0.31C197.52,56.68,197.6,56.75,197.6,57.24"/>
<path class="st0" d="M206.51,54.54c0-0.32-0.25-0.53-0.53-0.53c-0.31,0-0.53,0.27-0.53,0.53c0,0.27,0.22,0.53,0.53,0.53
	C206.26,55.06,206.51,54.86,206.51,54.54 M206.47,56.27l-1.39,0.11v0.31c0.65,0,0.74,0.06,0.74,0.55v2.67
	c0,0.45-0.11,0.45-0.77,0.45v0.31c0.32-0.01,0.85-0.03,1.09-0.03c0.35,0,0.7,0.02,1.03,0.03v-0.31c-0.65,0-0.7-0.05-0.7-0.44V56.27z
	"/>
<path class="st0" d="M208.6,57.24v2.66c0,0.45-0.11,0.45-0.77,0.45v0.31c0.35-0.01,0.85-0.03,1.12-0.03c0.26,0,0.78,0.02,1.11,0.03
	v-0.31c-0.67,0-0.77,0-0.77-0.45v-1.83c0-1.03,0.7-1.59,1.34-1.59c0.63,0,0.74,0.54,0.74,1.1v2.31c0,0.45-0.11,0.45-0.78,0.45v0.31
	c0.35-0.01,0.85-0.03,1.12-0.03c0.26,0,0.77,0.02,1.11,0.03v-0.31c-0.52,0-0.76,0-0.78-0.3v-1.9c0-0.85,0-1.16-0.31-1.52
	c-0.14-0.17-0.47-0.37-1.04-0.37c-0.73,0-1.19,0.43-1.47,1.04v-1.04l-1.4,0.11v0.31C208.52,56.68,208.6,56.75,208.6,57.24"/>
<path class="st0" d="M216.25,58.27v0.99c0,0.94-0.72,1.28-1.16,1.28c-0.49,0-0.89-0.35-0.89-0.84
	C214.19,59.16,214.61,58.33,216.25,58.27 M216.32,59.9c0.04,0.4,0.31,0.81,0.77,0.81c0.21,0,0.81-0.14,0.81-0.94v-0.56h-0.25v0.56
	c0,0.58-0.25,0.64-0.36,0.64c-0.33,0-0.37-0.45-0.37-0.5v-1.99c0-0.42,0-0.8-0.36-1.17c-0.39-0.39-0.88-0.55-1.36-0.55
	c-0.81,0-1.5,0.47-1.5,1.12c0,0.3,0.2,0.47,0.46,0.47c0.28,0,0.46-0.2,0.46-0.46c0-0.12-0.05-0.45-0.51-0.46
	c0.27-0.35,0.75-0.46,1.07-0.46c0.49,0,1.05,0.39,1.05,1.27v0.37c-0.51,0.03-1.2,0.06-1.83,0.36c-0.75,0.34-0.99,0.85-0.99,1.29
	c0,0.8,0.96,1.05,1.59,1.05C215.67,60.77,216.13,60.37,216.32,59.9z"/>
<path class="st0" d="M219.83,56.68h1.42v-0.31h-1.42v-1.83h-0.25c-0.01,0.81-0.31,1.88-1.28,1.92v0.22h0.84v2.74
	c0,1.22,0.92,1.34,1.28,1.34c0.71,0,0.98-0.7,0.98-1.34v-0.57h-0.25v0.55c0,0.73-0.3,1.11-0.67,1.11c-0.67,0-0.67-0.9-0.67-1.07
	V56.68"/>
<path class="st0" d="M223.71,54.54c0-0.32-0.25-0.53-0.53-0.53c-0.31,0-0.53,0.27-0.53,0.53c0,0.27,0.22,0.53,0.53,0.53
	C223.46,55.06,223.71,54.86,223.71,54.54 M223.67,56.27l-1.39,0.11v0.31c0.65,0,0.74,0.06,0.74,0.55v2.67
	c0,0.45-0.11,0.45-0.77,0.45v0.31c0.32-0.01,0.85-0.03,1.09-0.03c0.35,0,0.7,0.02,1.03,0.03v-0.31c-0.65,0-0.7-0.05-0.7-0.44V56.27z
	"/>
<path class="st0" d="M228.84,57.35c0.09-0.23,0.26-0.66,0.91-0.67v-0.31c-0.23,0.02-0.52,0.03-0.75,0.03c-0.24,0-0.7-0.02-0.86-0.03
	v0.31c0.37,0.01,0.48,0.24,0.48,0.43c0,0.09-0.02,0.13-0.06,0.24l-1.01,2.53l-1.11-2.77c-0.06-0.13-0.06-0.15-0.06-0.17
	c0-0.26,0.39-0.26,0.57-0.26v-0.31c-0.3,0.01-0.85,0.03-1.08,0.03c-0.27,0-0.66-0.01-0.96-0.03v0.31c0.62,0,0.67,0.06,0.79,0.37
	l1.43,3.53c0.06,0.14,0.08,0.19,0.21,0.19c0.13,0,0.17-0.09,0.21-0.19L228.84,57.35"/>
<path class="st0" d="M230.81,58.36h2.77c0.22,0,0.25,0,0.25-0.21c0-0.98-0.54-1.95-1.78-1.95c-1.15,0-2.07,1.02-2.07,2.26
	c0,1.33,1.04,2.3,2.19,2.3c1.21,0,1.66-1.1,1.66-1.29c0-0.1-0.08-0.12-0.13-0.12c-0.09,0-0.11,0.06-0.13,0.14
	c-0.35,1.02-1.24,1.02-1.34,1.02c-0.5,0-0.89-0.3-1.12-0.67C230.81,59.38,230.81,58.72,230.81,58.36 M230.82,58.15
	c0.06-1.48,0.89-1.73,1.23-1.73c1.02,0,1.12,1.34,1.12,1.73H230.82z"/>
<path class="st0" d="M269.47,101.28l0.14-0.14c0.3-0.3,0.63-0.64,1.3-0.69c0.11-0.01,0.2-0.01,0.2-0.19c0-0.08-0.05-0.12-0.13-0.12
	c-0.26,0-0.55,0.03-0.81,0.03c-0.33,0-0.68-0.03-0.99-0.03c-0.06,0-0.19,0-0.19,0.19c0,0.11,0.1,0.12,0.15,0.12
	c0.07,0,0.36,0.02,0.36,0.23c0,0.17-0.23,0.43-0.27,0.48l-2.3,2.65l-1.09-2.95c-0.06-0.14-0.06-0.16-0.06-0.17
	c0-0.24,0.49-0.24,0.59-0.24c0.14,0,0.24,0,0.24-0.2c0-0.11-0.12-0.11-0.15-0.11c-0.28,0-0.97,0.03-1.25,0.03
	c-0.25,0-0.86-0.03-1.11-0.03c-0.06,0-0.19,0-0.19,0.2c0,0.11,0.1,0.11,0.23,0.11c0.6,0,0.64,0.09,0.73,0.34l1.22,3.27
	c0.01,0.03,0.04,0.14,0.04,0.17c0,0.03-0.4,1.63-0.45,1.81c-0.13,0.55-0.14,0.58-0.93,0.59c-0.19,0-0.27,0-0.27,0.2
	c0,0.11,0.12,0.11,0.14,0.11c0.28,0,0.97-0.03,1.25-0.03c0.28,0,0.99,0.03,1.27,0.03c0.07,0,0.19,0,0.19-0.2
	c0-0.11-0.09-0.11-0.28-0.11c-0.02,0-0.21,0-0.38-0.02c-0.21-0.02-0.27-0.04-0.27-0.16c0-0.07,0.09-0.42,0.14-0.62l0.35-1.4
	c0.05-0.19,0.06-0.22,0.14-0.31L269.47,101.28"/>
<path class="st0" d="M278.61,103.72v2.04c0,0.18,0,0.2-0.11,0.37c-0.3,0.48-0.75,0.7-1.17,0.7c-0.45,0-0.8-0.26-1.04-0.64
	c-0.26-0.41-0.29-0.97-0.29-1.38c0-0.37,0.02-0.96,0.31-1.41c0.21-0.31,0.59-0.64,1.12-0.64c0.35,0,0.77,0.15,1.07,0.6
	C278.61,103.52,278.61,103.54,278.61,103.72 M278.61,106.38v0.66l1.46-0.11v-0.31c-0.7,0-0.77-0.07-0.77-0.56v-6.03l-1.43,0.11v0.31
	c0.7,0,0.77,0.07,0.77,0.56v2.15c-0.29-0.36-0.72-0.62-1.25-0.62c-1.17,0-2.22,0.97-2.22,2.25c0,1.26,0.97,2.25,2.11,2.25
	C277.92,107.04,278.36,106.7,278.61,106.38z"/>
<path class="st0" d="M282.14,100.81c0-0.32-0.25-0.53-0.53-0.53c-0.31,0-0.53,0.27-0.53,0.53c0,0.27,0.22,0.53,0.53,0.53
	C281.89,101.33,282.14,101.13,282.14,100.81 M282.1,102.54l-1.39,0.11v0.31c0.65,0,0.74,0.06,0.74,0.55v2.67
	c0,0.45-0.11,0.45-0.77,0.45v0.31c0.32-0.01,0.85-0.03,1.09-0.03c0.35,0,0.7,0.02,1.03,0.03v-0.31c-0.65,0-0.7-0.05-0.7-0.44V102.54
	z"/>
<path class="st0" d="M285.2,105c0.22,0.04,1.03,0.2,1.03,0.91c0,0.51-0.35,0.9-1.12,0.9c-0.83,0-1.19-0.57-1.38-1.41
	c-0.03-0.13-0.04-0.17-0.14-0.17c-0.13,0-0.13,0.07-0.13,0.25v1.31c0,0.17,0,0.24,0.11,0.24c0.05,0,0.06-0.01,0.25-0.2
	c0.02-0.02,0.02-0.04,0.2-0.23c0.44,0.42,0.88,0.43,1.09,0.43c1.14,0,1.6-0.67,1.6-1.38c0-0.53-0.3-0.82-0.42-0.94
	c-0.33-0.32-0.72-0.4-1.13-0.48c-0.56-0.11-1.22-0.24-1.22-0.81c0-0.35,0.26-0.75,1.11-0.75c1.09,0,1.14,0.89,1.16,1.2
	c0.01,0.09,0.1,0.09,0.12,0.09c0.13,0,0.13-0.05,0.13-0.24v-1c0-0.17,0-0.24-0.11-0.24c-0.05,0-0.07,0-0.2,0.12
	c-0.03,0.04-0.13,0.13-0.17,0.16c-0.38-0.28-0.79-0.28-0.93-0.28c-1.21,0-1.59,0.67-1.59,1.22c0,0.35,0.16,0.62,0.43,0.84
	C284.21,104.8,284.49,104.86,285.2,105"/>
<path class="st0" d="M288.2,104.76c0-1.62,0.81-2.04,1.34-2.04c0.09,0,0.72,0.01,1.06,0.37c-0.41,0.03-0.47,0.33-0.47,0.46
	c0,0.26,0.18,0.46,0.46,0.46c0.26,0,0.46-0.17,0.46-0.47c0-0.67-0.75-1.06-1.52-1.06c-1.24,0-2.16,1.07-2.16,2.3
	c0,1.27,0.98,2.25,2.14,2.25c1.33,0,1.65-1.19,1.65-1.29c0-0.1-0.1-0.1-0.13-0.1c-0.09,0-0.11,0.04-0.13,0.1
	c-0.29,0.93-0.93,1.04-1.3,1.04C289.07,106.79,288.2,106.36,288.2,104.76"/>
<path class="st0" d="M293.2,103.63v-1.09l-1.38,0.11v0.31c0.7,0,0.77,0.07,0.77,0.56v2.66c0,0.45-0.11,0.45-0.77,0.45v0.31
	c0.39-0.01,0.85-0.03,1.13-0.03c0.4,0,0.86,0,1.26,0.03v-0.31H294c-0.74,0-0.75-0.11-0.75-0.47v-1.53c0-0.98,0.42-1.87,1.17-1.87
	c0.07,0,0.09,0,0.11,0.01c-0.03,0.01-0.23,0.13-0.23,0.39c0,0.28,0.21,0.43,0.43,0.43c0.18,0,0.43-0.12,0.43-0.44
	c0-0.32-0.31-0.61-0.73-0.61C293.69,102.54,293.34,103.2,293.2,103.63"/>
<path class="st0" d="M296.54,104.63h2.77c0.22,0,0.25,0,0.25-0.21c0-0.98-0.54-1.95-1.78-1.95c-1.15,0-2.07,1.02-2.07,2.26
	c0,1.33,1.04,2.3,2.19,2.3c1.21,0,1.66-1.1,1.66-1.29c0-0.1-0.08-0.12-0.13-0.12c-0.09,0-0.11,0.06-0.13,0.14
	c-0.35,1.02-1.24,1.02-1.34,1.02c-0.5,0-0.89-0.3-1.12-0.67C296.54,105.65,296.54,104.99,296.54,104.63 M296.55,104.42
	c0.06-1.48,0.89-1.73,1.23-1.73c1.02,0,1.12,1.34,1.12,1.73H296.55z"/>
<path class="st0" d="M301.66,102.95h1.42v-0.31h-1.42v-1.83h-0.25c-0.01,0.81-0.31,1.88-1.28,1.92v0.22h0.84v2.74
	c0,1.22,0.92,1.34,1.28,1.34c0.71,0,0.98-0.7,0.98-1.34v-0.57h-0.25v0.55c0,0.73-0.3,1.11-0.67,1.11c-0.67,0-0.67-0.9-0.67-1.07
	V102.95"/>
<path class="st0" d="M304.84,104.63h2.77c0.22,0,0.25,0,0.25-0.21c0-0.98-0.54-1.95-1.78-1.95c-1.15,0-2.07,1.02-2.07,2.26
	c0,1.33,1.04,2.3,2.19,2.3c1.21,0,1.66-1.1,1.66-1.29c0-0.1-0.08-0.12-0.13-0.12c-0.09,0-0.11,0.06-0.13,0.14
	c-0.35,1.02-1.24,1.02-1.34,1.02c-0.5,0-0.89-0.3-1.12-0.67C304.84,105.65,304.84,104.99,304.84,104.63 M304.85,104.42
	c0.06-1.48,0.89-1.73,1.23-1.73c1.02,0,1.12,1.34,1.12,1.73H304.85z"/>
<path class="st0" d="M204.63,101.39l0.14-0.14c0.3-0.3,0.63-0.64,1.3-0.69c0.11-0.01,0.2-0.01,0.2-0.19c0-0.08-0.05-0.12-0.13-0.12
	c-0.26,0-0.55,0.03-0.81,0.03c-0.33,0-0.68-0.03-0.99-0.03c-0.06,0-0.19,0-0.19,0.19c0,0.11,0.1,0.12,0.15,0.12
	c0.07,0,0.36,0.02,0.36,0.23c0,0.17-0.23,0.43-0.27,0.48l-2.3,2.65l-1.09-2.95c-0.06-0.14-0.06-0.16-0.06-0.17
	c0-0.24,0.49-0.24,0.59-0.24c0.14,0,0.24,0,0.24-0.2c0-0.11-0.12-0.11-0.15-0.11c-0.28,0-0.97,0.03-1.25,0.03
	c-0.25,0-0.86-0.03-1.11-0.03c-0.06,0-0.19,0-0.19,0.2c0,0.11,0.1,0.11,0.23,0.11c0.6,0,0.64,0.09,0.72,0.34l1.22,3.27
	c0.01,0.03,0.04,0.14,0.04,0.17c0,0.03-0.4,1.63-0.45,1.81c-0.13,0.55-0.14,0.58-0.93,0.59c-0.19,0-0.27,0-0.27,0.2
	c0,0.11,0.12,0.11,0.14,0.11c0.28,0,0.97-0.03,1.25-0.03s0.99,0.03,1.27,0.03c0.07,0,0.19,0,0.19-0.2c0-0.11-0.09-0.11-0.28-0.11
	c-0.02,0-0.21,0-0.38-0.02c-0.21-0.02-0.27-0.04-0.27-0.16c0-0.07,0.09-0.42,0.14-0.62l0.35-1.4c0.05-0.19,0.06-0.22,0.14-0.31
	L204.63,101.39"/>
<path class="st0" d="M210.99,103.63v2.66c0,0.45-0.11,0.45-0.78,0.45v0.31c0.35-0.01,0.85-0.03,1.12-0.03
	c0.26,0,0.78,0.02,1.11,0.03v-0.31c-0.67,0-0.77,0-0.77-0.45v-1.83c0-1.03,0.7-1.59,1.34-1.59c0.63,0,0.74,0.54,0.74,1.1v2.31
	c0,0.45-0.11,0.45-0.78,0.45v0.31c0.35-0.01,0.85-0.03,1.12-0.03c0.26,0,0.78,0.02,1.11,0.03v-0.31c-0.52,0-0.76,0-0.77-0.3v-1.9
	c0-0.85,0-1.16-0.31-1.52c-0.14-0.17-0.47-0.37-1.04-0.37c-0.72,0-1.19,0.43-1.47,1.04v-1.04l-1.4,0.11v0.31
	C210.91,103.07,210.99,103.14,210.99,103.63"/>
<path class="st0" d="M217.98,106.91c-0.43,0-0.86-0.21-1.13-0.67c-0.25-0.44-0.25-1.04-0.25-1.4c0-0.39,0-0.93,0.24-1.36
	c0.27-0.46,0.74-0.67,1.13-0.67c0.44,0,0.86,0.22,1.12,0.65c0.26,0.43,0.26,1,0.26,1.38c0,0.36,0,0.89-0.22,1.33
	C218.91,106.62,218.48,106.91,217.98,106.91 M220.18,104.92c0-1.27-0.99-2.32-2.2-2.32c-1.24,0-2.2,1.08-2.2,2.32
	c0,1.28,1.03,2.24,2.2,2.24C219.17,107.16,220.18,106.18,220.18,104.92z"/>
<path class="st0" d="M222.16,103.75v-1.09l-1.38,0.11v0.31c0.7,0,0.77,0.07,0.77,0.56v2.66c0,0.45-0.11,0.45-0.77,0.45v0.31
	c0.39-0.01,0.85-0.03,1.13-0.03c0.4,0,0.86,0,1.26,0.03v-0.31h-0.21c-0.74,0-0.75-0.11-0.75-0.47v-1.53c0-0.98,0.42-1.87,1.17-1.87
	c0.07,0,0.09,0,0.11,0.01c-0.03,0.01-0.23,0.13-0.23,0.39c0,0.28,0.21,0.43,0.43,0.43c0.18,0,0.43-0.12,0.43-0.44
	c0-0.32-0.31-0.61-0.73-0.61C222.65,102.66,222.3,103.32,222.16,103.75"/>
<path class="st0" d="M225.59,103.63v2.66c0,0.45-0.11,0.45-0.77,0.45v0.31c0.35-0.01,0.85-0.03,1.12-0.03
	c0.26,0,0.78,0.02,1.11,0.03v-0.31c-0.67,0-0.77,0-0.77-0.45v-1.83c0-1.03,0.7-1.59,1.34-1.59c0.63,0,0.74,0.54,0.74,1.1v2.31
	c0,0.45-0.11,0.45-0.78,0.45v0.31c0.35-0.01,0.85-0.03,1.12-0.03c0.26,0,0.77,0.02,1.11,0.03v-0.31c-0.67,0-0.78,0-0.78-0.45v-1.83
	c0-1.03,0.71-1.59,1.34-1.59c0.62,0,0.73,0.54,0.73,1.1v2.31c0,0.45-0.11,0.45-0.77,0.45v0.31c0.35-0.01,0.85-0.03,1.12-0.03
	c0.26,0,0.78,0.02,1.11,0.03v-0.31c-0.52,0-0.77,0-0.77-0.3v-1.9c0-0.85,0-1.16-0.31-1.52c-0.14-0.17-0.47-0.37-1.04-0.37
	c-0.83,0-1.27,0.6-1.44,0.97c-0.14-0.86-0.87-0.97-1.32-0.97c-0.73,0-1.19,0.43-1.47,1.04v-1.04l-1.4,0.11v0.31
	C225.51,103.07,225.59,103.14,225.59,103.63"/>
<path class="st0" d="M235.94,104.66v0.99c0,0.94-0.72,1.28-1.16,1.28c-0.49,0-0.89-0.35-0.89-0.84
	C233.88,105.55,234.3,104.72,235.94,104.66 M236.01,106.29c0.04,0.4,0.31,0.81,0.78,0.81c0.21,0,0.81-0.14,0.81-0.94v-0.56h-0.25
	v0.56c0,0.58-0.25,0.64-0.36,0.64c-0.33,0-0.37-0.45-0.37-0.5v-1.99c0-0.42,0-0.8-0.36-1.17c-0.39-0.39-0.88-0.55-1.36-0.55
	c-0.81,0-1.5,0.47-1.5,1.12c0,0.3,0.2,0.47,0.46,0.47c0.28,0,0.46-0.2,0.46-0.46c0-0.12-0.05-0.45-0.51-0.46
	c0.27-0.35,0.75-0.46,1.07-0.46c0.49,0,1.05,0.39,1.05,1.27v0.37c-0.51,0.03-1.2,0.06-1.83,0.36c-0.75,0.34-0.99,0.85-0.99,1.29
	c0,0.8,0.96,1.05,1.59,1.05C235.36,107.16,235.82,106.76,236.01,106.29z"/>
<path class="st0" d="M239.56,100.15l-1.43,0.11v0.31c0.7,0,0.78,0.07,0.78,0.56v5.17c0,0.45-0.11,0.45-0.78,0.45v0.31
	c0.33-0.01,0.85-0.03,1.1-0.03c0.25,0,0.74,0.02,1.1,0.03v-0.31c-0.67,0-0.77,0-0.77-0.45V100.15"/>
<path class="st0" d="M140.17,15.14v2.66c0,0.45-0.11,0.45-0.77,0.45v0.31c0.35-0.01,0.85-0.03,1.12-0.03c0.26,0,0.77,0.02,1.11,0.03
	v-0.31c-0.67,0-0.78,0-0.78-0.45v-1.83c0-1.03,0.7-1.59,1.34-1.59c0.63,0,0.74,0.54,0.74,1.1v2.31c0,0.45-0.11,0.45-0.78,0.45v0.31
	c0.35-0.01,0.85-0.03,1.12-0.03c0.26,0,0.78,0.02,1.11,0.03v-0.31c-0.67,0-0.77,0-0.77-0.45v-1.83c0-1.03,0.71-1.59,1.34-1.59
	c0.62,0,0.73,0.54,0.73,1.1v2.31c0,0.45-0.11,0.45-0.78,0.45v0.31c0.35-0.01,0.85-0.03,1.12-0.03c0.26,0,0.78,0.02,1.11,0.03v-0.31
	c-0.52,0-0.77,0-0.77-0.3v-1.9c0-0.85,0-1.16-0.31-1.52c-0.14-0.17-0.47-0.37-1.04-0.37c-0.83,0-1.27,0.6-1.44,0.97
	c-0.14-0.86-0.87-0.97-1.32-0.97c-0.73,0-1.19,0.43-1.47,1.04v-1.04l-1.4,0.11v0.31C140.09,14.59,140.17,14.65,140.17,15.14"/>
<path class="st0" d="M149.86,18.42c-0.43,0-0.86-0.21-1.13-0.67c-0.25-0.44-0.25-1.04-0.25-1.4c0-0.39,0-0.93,0.24-1.36
	c0.27-0.46,0.74-0.67,1.13-0.67c0.44,0,0.86,0.22,1.12,0.65c0.26,0.43,0.26,1,0.26,1.38c0,0.36,0,0.89-0.22,1.33
	C150.8,18.13,150.36,18.42,149.86,18.42 M152.06,16.43c0-1.27-0.99-2.32-2.2-2.32c-1.24,0-2.2,1.08-2.2,2.32
	c0,1.28,1.03,2.24,2.2,2.24C151.06,18.67,152.06,17.69,152.06,16.43z"/>
<path class="st0" d="M156.46,15.35v2.04c0,0.18,0,0.2-0.11,0.37c-0.3,0.48-0.75,0.7-1.17,0.7c-0.45,0-0.8-0.26-1.04-0.64
	c-0.26-0.41-0.29-0.97-0.29-1.38c0-0.37,0.02-0.96,0.31-1.41c0.21-0.31,0.59-0.64,1.12-0.64c0.35,0,0.77,0.15,1.07,0.6
	C156.46,15.15,156.46,15.17,156.46,15.35 M156.46,18.01v0.66l1.46-0.11v-0.31c-0.7,0-0.77-0.07-0.77-0.56v-6.03l-1.43,0.11v0.31
	c0.7,0,0.77,0.07,0.77,0.56v2.15c-0.29-0.36-0.72-0.62-1.25-0.62c-1.17,0-2.22,0.97-2.22,2.25c0,1.26,0.97,2.25,2.11,2.25
	C155.76,18.67,156.21,18.33,156.46,18.01z"/>
<path class="st0" d="M159.28,16.26h2.77c0.22,0,0.25,0,0.25-0.21c0-0.98-0.54-1.95-1.78-1.95c-1.15,0-2.07,1.02-2.07,2.26
	c0,1.33,1.04,2.3,2.19,2.3c1.21,0,1.66-1.1,1.66-1.29c0-0.1-0.08-0.12-0.13-0.12c-0.09,0-0.11,0.06-0.13,0.14
	c-0.35,1.02-1.24,1.02-1.34,1.02c-0.5,0-0.89-0.3-1.12-0.67C159.28,17.28,159.28,16.62,159.28,16.26 M159.29,16.06
	c0.06-1.48,0.89-1.73,1.23-1.73c1.02,0,1.12,1.34,1.12,1.73H159.29z"/>
<path class="st0" d="M164.44,11.67l-1.43,0.11v0.31c0.7,0,0.77,0.07,0.77,0.56v5.17c0,0.45-0.11,0.45-0.77,0.45v0.31
	c0.33-0.01,0.85-0.03,1.1-0.03c0.25,0,0.74,0.02,1.1,0.03v-0.31c-0.67,0-0.77,0-0.77-0.45V11.67"/>
<rect x="258.83" y="139.03" class="st1" width="115.67" height="29.33"/>
<rect x="129.67" y="139.03" class="st1" width="115.67" height="29.33"/>
<rect x="0.5" y="139.1" class="st1" width="115.67" height="29.33"/>
<g>
	<g>
		<line class="st1" x1="57.26" y1="130.79" x2="57.26" y2="65.82"/>
		<g>
			<path class="st2" d="M57.26,133.81c0.53-1.42,1.43-3.18,2.38-4.27l-2.38,0.86l-2.38-0.86C55.83,130.63,56.73,132.39,57.26,133.81
				z"/>
		</g>
	</g>
</g>
<g>
	<g>
		<line class="st1" x1="189.09" y1="130.79" x2="189.09" y2="110.85"/>
		<g>
			<path class="st2" d="M189.09,133.81c0.53-1.42,1.43-3.18,2.38-4.27l-2.38,0.86l-2.38-0.86
				C187.67,130.63,188.57,132.39,189.09,133.81z"/>
		</g>
	</g>
</g>
<g>
	<g>
		<line class="st1" x1="319.69" y1="130.79" x2="319.69" y2="110.85"/>
		<g>
			<path class="st2" d="M319.69,133.81c0.53-1.42,1.43-3.18,2.38-4.27l-2.38,0.86l-2.38-0.86
				C318.26,130.63,319.16,132.39,319.69,133.81z"/>
		</g>
	</g>
</g>
<line class="st1" x1="189.09" y1="110.85" x2="319.69" y2="110.85"/>
<line class="st1" x1="252.15" y1="110.85" x2="252.15" y2="65.82"/>
<line class="st1" x1="57.26" y1="65.82" x2="252.15" y2="65.82"/>
<line class="st1" x1="152.18" y1="65.82" x2="152.18" y2="29.8"/>
<rect x="126.62" y="0.5" class="st1" width="50.27" height="29.33"/>
<path class="st0" d="M145.95,196.31c0-0.01,0-0.11-0.13-0.11c-0.23,0-0.95,0.08-1.21,0.1c-0.08,0.01-0.19,0.02-0.19,0.2
	c0,0.12,0.09,0.12,0.24,0.12c0.48,0,0.5,0.07,0.5,0.17l-0.03,0.2l-1.44,5.72c-0.04,0.14-0.04,0.16-0.04,0.22
	c0,0.23,0.2,0.28,0.29,0.28c0.16,0,0.32-0.12,0.37-0.26l0.19-0.76l0.22-0.89c0.06-0.22,0.12-0.44,0.17-0.67
	c0.02-0.06,0.1-0.39,0.11-0.45c0.03-0.09,0.34-0.65,0.67-0.91c0.22-0.16,0.53-0.35,0.95-0.35c0.43,0,0.54,0.34,0.54,0.7
	c0,0.54-0.38,1.62-0.62,2.22c-0.08,0.23-0.13,0.35-0.13,0.55c0,0.47,0.35,0.81,0.81,0.81c0.93,0,1.3-1.45,1.3-1.53
	c0-0.1-0.09-0.1-0.12-0.1c-0.1,0-0.1,0.03-0.15,0.18c-0.15,0.53-0.47,1.23-1.01,1.23c-0.17,0-0.24-0.1-0.24-0.33
	c0-0.25,0.09-0.49,0.18-0.7c0.16-0.43,0.61-1.61,0.61-2.19c0-0.65-0.4-1.06-1.14-1.06c-0.63,0-1.1,0.31-1.47,0.76L145.95,196.31"/>
<path class="st0" d="M152.18,205.48c0-0.03,0-0.05-0.17-0.22c-1.24-1.25-1.56-3.13-1.56-4.65c0-1.73,0.38-3.46,1.6-4.7
	c0.13-0.12,0.13-0.14,0.13-0.17c0-0.07-0.04-0.1-0.1-0.1c-0.1,0-0.99,0.67-1.58,1.94c-0.51,1.09-0.63,2.2-0.63,3.03
	c0,0.77,0.11,1.98,0.66,3.1c0.6,1.22,1.45,1.87,1.55,1.87C152.14,205.57,152.18,205.54,152.18,205.48"/>
<path class="st0" d="M156.62,199.88c-0.62,2.66-1.45,2.93-1.8,2.93c-0.14,0-0.35-0.04-0.49-0.35c-0.12-0.27-0.12-0.65-0.12-0.66
	c0-0.57,0.22-1.49,0.33-1.92H156.62 M154.66,199.4c0.14-0.57,0.4-1.48,0.7-2c0.23-0.41,0.64-0.93,1.11-0.93
	c0.42,0,0.6,0.44,0.6,1.02c0,0.62-0.22,1.49-0.33,1.91H154.66z M158.13,198.22c0-1.75-1.03-2.11-1.64-2.11
	c-0.79,0-1.78,0.52-2.52,1.87c-0.51,0.93-0.82,2.28-0.82,3.09c0,1.44,0.76,2.1,1.65,2.1c0.67,0,1.54-0.39,2.22-1.4
	C157.86,200.55,158.13,198.97,158.13,198.22z"/>
<path class="st0" d="M160.42,202.98c0,0.28,0,1.05-0.64,1.79c-0.07,0.08-0.07,0.1-0.07,0.13c0,0.07,0.05,0.11,0.1,0.11
	c0.11,0,0.82-0.8,0.82-1.95c0-0.29-0.02-1.02-0.56-1.02c-0.35,0-0.53,0.27-0.53,0.53s0.17,0.53,0.53,0.53c0.05,0,0.07,0,0.08-0.01
	C160.23,203.07,160.34,203.05,160.42,202.98 M160.6,199.34c0-0.29-0.24-0.53-0.53-0.53c-0.29,0-0.53,0.24-0.53,0.53
	c0,0.29,0.24,0.53,0.53,0.53C160.37,199.86,160.6,199.62,160.6,199.34z"/>
<path class="st0" d="M168.02,199.31c0.04-0.14,0.04-0.16,0.04-0.23c0-0.18-0.14-0.27-0.29-0.27c-0.1,0-0.26,0.06-0.35,0.21
	c-0.02,0.05-0.1,0.36-0.14,0.54c-0.07,0.26-0.14,0.53-0.2,0.79l-0.45,1.79c-0.04,0.15-0.47,0.84-1.12,0.84
	c-0.51,0-0.62-0.44-0.62-0.8c0-0.46,0.17-1.07,0.51-1.95c0.16-0.41,0.2-0.52,0.2-0.72c0-0.45-0.32-0.81-0.81-0.81
	c-0.94,0-1.31,1.44-1.31,1.53c0,0.1,0.1,0.1,0.12,0.1c0.1,0,0.11-0.02,0.16-0.18c0.27-0.93,0.67-1.23,1-1.23
	c0.08,0,0.25,0,0.25,0.32c0,0.25-0.1,0.51-0.17,0.7c-0.4,1.05-0.58,1.62-0.58,2.09c0,0.88,0.62,1.18,1.21,1.18
	c0.39,0,0.73-0.17,1-0.45c-0.13,0.52-0.25,1-0.65,1.53c-0.26,0.34-0.64,0.62-1.09,0.62c-0.14,0-0.59-0.03-0.75-0.42
	c0.16,0,0.29,0,0.43-0.12c0.1-0.09,0.2-0.22,0.2-0.41c0-0.31-0.27-0.35-0.37-0.35c-0.23,0-0.56,0.16-0.56,0.65
	c0,0.5,0.44,0.86,1.05,0.86c1.02,0,2.05-0.9,2.32-2.03L168.02,199.31"/>
<path class="st0" d="M172.68,196c0-0.18,0-0.36-0.2-0.36c-0.2,0-0.2,0.18-0.2,0.36v9.22c0,0.18,0,0.36,0.2,0.36
	c0.2,0,0.2-0.18,0.2-0.36V196"/>
<path class="st0" d="M180.03,200.65l1.16-1.29c0.13-0.14,0.19-0.21,1.01-0.21v-0.47c-0.35,0.02-0.86,0.03-0.91,0.03
	c-0.25,0-0.75-0.02-1.02-0.03v0.47c0.14,0,0.26,0.02,0.38,0.09c-0.04,0.06-0.04,0.08-0.08,0.12l-0.83,0.93l-0.97-1.14h0.4v-0.47
	c-0.26,0.01-0.88,0.03-1.2,0.03c-0.32,0-0.77-0.02-1.09-0.03v0.47h0.7l1.55,1.83l-1.3,1.46c-0.17,0.19-0.53,0.19-1,0.19v0.47
	c0.35-0.02,0.86-0.03,0.91-0.03c0.25,0,0.82,0.02,1.02,0.03v-0.47c-0.18,0-0.37-0.05-0.37-0.11c0-0.01,0-0.02,0.07-0.1l0.96-1.08
	l1.09,1.29h-0.39v0.47c0.26-0.01,0.86-0.03,1.19-0.03c0.32,0,0.76,0.02,1.09,0.03v-0.47h-0.7L180.03,200.65"/>
<path class="st0" d="M185.47,200.61c0-0.77-0.11-1.98-0.65-3.1c-0.6-1.22-1.45-1.87-1.55-1.87c-0.06,0-0.1,0.04-0.1,0.1
	c0,0.03,0,0.05,0.19,0.23c0.97,0.98,1.54,2.56,1.54,4.64c0,1.7-0.37,3.45-1.6,4.7c-0.13,0.12-0.13,0.14-0.13,0.17
	c0,0.06,0.04,0.1,0.1,0.1c0.1,0,0.99-0.67,1.58-1.94C185.35,202.54,185.47,201.44,185.47,200.61"/>
<path class="st0" d="M196.13,201.77c0.14,0,0.33,0,0.33-0.2c0-0.2-0.19-0.2-0.34-0.2h-5.93c-0.15,0-0.34,0-0.34,0.2
	c0,0.2,0.19,0.2,0.33,0.2H196.13 M196.12,199.84c0.15,0,0.34,0,0.34-0.2c0-0.2-0.19-0.2-0.33-0.2h-5.95c-0.14,0-0.33,0-0.33,0.2
	c0,0.2,0.19,0.2,0.34,0.2H196.12z"/>
<path class="st0" d="M203.18,205.48c0-0.03,0-0.05-0.17-0.22c-1.24-1.25-1.56-3.13-1.56-4.65c0-1.73,0.38-3.46,1.6-4.7
	c0.13-0.12,0.13-0.14,0.13-0.17c0-0.07-0.04-0.1-0.1-0.1c-0.1,0-0.99,0.67-1.58,1.94c-0.51,1.09-0.63,2.2-0.63,3.03
	c0,0.77,0.11,1.98,0.66,3.1c0.6,1.22,1.45,1.87,1.55,1.87C203.14,205.57,203.18,205.54,203.18,205.48"/>
<path class="st0" d="M208.52,199.31c0.04-0.14,0.04-0.16,0.04-0.23c0-0.18-0.14-0.27-0.29-0.27c-0.1,0-0.26,0.06-0.35,0.21
	c-0.02,0.05-0.1,0.36-0.14,0.54c-0.07,0.26-0.14,0.53-0.2,0.79l-0.45,1.79c-0.04,0.15-0.47,0.84-1.12,0.84
	c-0.51,0-0.62-0.44-0.62-0.8c0-0.46,0.17-1.07,0.51-1.95c0.16-0.41,0.2-0.52,0.2-0.72c0-0.45-0.32-0.81-0.81-0.81
	c-0.94,0-1.31,1.44-1.31,1.53c0,0.1,0.1,0.1,0.12,0.1c0.1,0,0.11-0.02,0.16-0.18c0.27-0.93,0.67-1.23,1-1.23
	c0.08,0,0.25,0,0.25,0.32c0,0.25-0.1,0.51-0.17,0.7c-0.4,1.05-0.57,1.62-0.57,2.09c0,0.88,0.62,1.18,1.21,1.18
	c0.39,0,0.72-0.17,1-0.45c-0.13,0.52-0.25,1-0.65,1.53c-0.26,0.34-0.64,0.62-1.09,0.62c-0.14,0-0.59-0.03-0.75-0.42
	c0.16,0,0.29,0,0.43-0.12c0.1-0.09,0.2-0.22,0.2-0.41c0-0.31-0.27-0.35-0.37-0.35c-0.23,0-0.56,0.16-0.56,0.65
	c0,0.5,0.44,0.86,1.05,0.86c1.02,0,2.05-0.9,2.32-2.03L208.52,199.31"/>
<path class="st0" d="M217.74,200.81c0.17,0,0.35,0,0.35-0.2c0-0.2-0.18-0.2-0.35-0.2h-5.38c-0.17,0-0.35,0-0.35,0.2
	c0,0.2,0.18,0.2,0.35,0.2H217.74"/>
<path class="st0" d="M223.39,199.6c0.05-0.21,0.15-0.59,0.15-0.63c0-0.17-0.12-0.27-0.29-0.27c-0.03,0-0.31,0.01-0.4,0.36
	l-1.43,5.75c-0.03,0.12-0.03,0.14-0.03,0.16c0,0.15,0.11,0.27,0.28,0.27c0.21,0,0.33-0.18,0.35-0.21c0.04-0.09,0.17-0.61,0.55-2.14
	c0.32,0.27,0.76,0.31,0.96,0.31c0.7,0,1.08-0.45,1.32-0.72c0.09,0.45,0.46,0.72,0.89,0.72c0.35,0,0.58-0.23,0.74-0.55
	c0.17-0.36,0.3-0.96,0.3-0.98c0-0.1-0.09-0.1-0.12-0.1c-0.1,0-0.11,0.04-0.14,0.18c-0.17,0.65-0.35,1.23-0.75,1.23
	c-0.27,0-0.3-0.26-0.3-0.46c0-0.22,0.12-0.69,0.2-1.03l0.28-1.07c0.03-0.15,0.13-0.53,0.17-0.68c0.05-0.23,0.15-0.6,0.15-0.66
	c0-0.18-0.14-0.27-0.29-0.27c-0.05,0-0.31,0.01-0.39,0.35l-0.47,1.86c-0.12,0.5-0.23,0.91-0.26,1.01c-0.01,0.05-0.49,0.95-1.29,0.95
	c-0.5,0-0.73-0.33-0.73-0.86c0-0.29,0.07-0.57,0.14-0.84L223.39,199.6"/>
<path class="st0" d="M229.97,200.61c0-0.77-0.11-1.98-0.65-3.1c-0.6-1.22-1.45-1.87-1.55-1.87c-0.06,0-0.1,0.04-0.1,0.1
	c0,0.03,0,0.05,0.19,0.23c0.97,0.98,1.54,2.56,1.54,4.64c0,1.7-0.37,3.45-1.6,4.7c-0.13,0.12-0.13,0.14-0.13,0.17
	c0,0.06,0.04,0.1,0.1,0.1c0.1,0,0.99-0.67,1.58-1.94C229.85,202.54,229.97,201.44,229.97,200.61"/>
<path class="st0" d="M234.55,197.61h-0.24c-0.02,0.15-0.09,0.57-0.18,0.64c-0.06,0.04-0.6,0.04-0.7,0.04h-1.29
	c0.74-0.65,0.98-0.85,1.41-1.18c0.52-0.42,1-0.85,1-1.52c0-0.85-0.75-1.37-1.65-1.37c-0.87,0-1.46,0.61-1.46,1.26
	c0,0.36,0.3,0.39,0.37,0.39c0.17,0,0.37-0.12,0.37-0.37c0-0.13-0.05-0.37-0.41-0.37c0.22-0.5,0.7-0.65,1.03-0.65
	c0.7,0,1.07,0.55,1.07,1.12c0,0.61-0.44,1.1-0.66,1.35l-1.7,1.67c-0.07,0.06-0.07,0.08-0.07,0.27h2.9L234.55,197.61"/>
<path class="st0" d="M265.72,197.02c0-0.01,0-0.1-0.12-0.1c-0.2,0-0.85,0.07-1.08,0.09c-0.07,0.01-0.17,0.02-0.17,0.18
	c0,0.11,0.08,0.11,0.21,0.11c0.43,0,0.44,0.06,0.44,0.15l-0.03,0.18l-1.29,5.11c-0.03,0.12-0.03,0.14-0.03,0.2
	c0,0.2,0.18,0.25,0.26,0.25c0.14,0,0.28-0.11,0.33-0.23l0.17-0.68l0.2-0.8c0.05-0.2,0.11-0.39,0.15-0.59
	c0.02-0.05,0.09-0.35,0.1-0.4c0.03-0.08,0.3-0.58,0.6-0.82c0.2-0.14,0.47-0.31,0.85-0.31c0.38,0,0.48,0.3,0.48,0.62
	c0,0.48-0.34,1.45-0.55,1.99c-0.07,0.2-0.12,0.31-0.12,0.49c0,0.42,0.31,0.73,0.73,0.73c0.83,0,1.16-1.29,1.16-1.37
	c0-0.09-0.08-0.09-0.11-0.09c-0.09,0-0.09,0.03-0.13,0.16c-0.13,0.47-0.42,1.1-0.91,1.1c-0.15,0-0.21-0.09-0.21-0.29
	c0-0.22,0.08-0.43,0.16-0.63c0.14-0.38,0.54-1.44,0.54-1.95c0-0.58-0.36-0.95-1.02-0.95c-0.56,0-0.99,0.27-1.31,0.68L265.72,197.02"
	/>
<path class="st0" d="M271.29,205.21c0-0.03,0-0.04-0.15-0.2c-1.11-1.12-1.39-2.8-1.39-4.15c0-1.54,0.34-3.09,1.43-4.2
	c0.11-0.11,0.11-0.12,0.11-0.15c0-0.06-0.03-0.09-0.09-0.09c-0.09,0-0.89,0.6-1.41,1.73c-0.45,0.98-0.56,1.96-0.56,2.71
	c0,0.69,0.1,1.77,0.59,2.77c0.53,1.09,1.29,1.67,1.38,1.67C271.25,205.3,271.29,205.27,271.29,205.21"/>
<path class="st0" d="M275.25,200.22c-0.55,2.38-1.29,2.62-1.6,2.62c-0.12,0-0.31-0.03-0.44-0.31c-0.11-0.24-0.11-0.58-0.11-0.59
	c0-0.51,0.2-1.33,0.29-1.71H275.25 M273.5,199.79c0.12-0.51,0.35-1.32,0.62-1.78c0.2-0.36,0.57-0.83,0.99-0.83
	c0.37,0,0.53,0.39,0.53,0.91c0,0.56-0.2,1.33-0.29,1.7H273.5z M276.6,198.73c0-1.56-0.92-1.88-1.46-1.88c-0.7,0-1.59,0.46-2.25,1.67
	c-0.45,0.83-0.73,2.04-0.73,2.76c0,1.29,0.68,1.87,1.47,1.87c0.59,0,1.37-0.35,1.99-1.25C276.36,200.81,276.6,199.4,276.6,198.73z"
	/>
<path class="st0" d="M278.55,202.98c0,0.25,0,0.94-0.57,1.6c-0.06,0.07-0.06,0.09-0.06,0.12c0,0.06,0.04,0.1,0.09,0.1
	c0.1,0,0.74-0.71,0.74-1.74c0-0.26-0.02-0.91-0.5-0.91c-0.31,0-0.47,0.24-0.47,0.47c0,0.23,0.15,0.47,0.47,0.47
	c0.04,0,0.06,0,0.07-0.01C278.38,203.06,278.48,203.05,278.55,202.98 M278.72,199.73c0-0.26-0.21-0.47-0.47-0.47
	c-0.26,0-0.47,0.21-0.47,0.47c0,0.26,0.21,0.47,0.47,0.47C278.5,200.2,278.72,199.98,278.72,199.73z"/>
<path class="st0" d="M285.34,199.7c0.03-0.12,0.03-0.14,0.03-0.2c0-0.16-0.12-0.24-0.26-0.24c-0.09,0-0.23,0.05-0.31,0.19
	c-0.02,0.04-0.09,0.32-0.12,0.48c-0.06,0.23-0.12,0.47-0.18,0.71l-0.4,1.6c-0.03,0.13-0.42,0.75-1,0.75c-0.45,0-0.55-0.39-0.55-0.72
	c0-0.41,0.15-0.96,0.45-1.74c0.14-0.36,0.18-0.46,0.18-0.64c0-0.4-0.28-0.73-0.73-0.73c-0.84,0-1.17,1.29-1.17,1.37
	c0,0.09,0.09,0.09,0.11,0.09c0.09,0,0.1-0.02,0.14-0.16c0.24-0.83,0.59-1.1,0.9-1.1c0.07,0,0.22,0,0.22,0.28
	c0,0.22-0.09,0.45-0.15,0.62c-0.35,0.94-0.51,1.45-0.51,1.86c0,0.79,0.56,1.06,1.08,1.06c0.35,0,0.65-0.15,0.9-0.4
	c-0.11,0.46-0.22,0.9-0.58,1.37c-0.23,0.3-0.57,0.56-0.98,0.56c-0.12,0-0.52-0.03-0.67-0.37c0.14,0,0.26,0,0.38-0.11
	c0.09-0.08,0.18-0.2,0.18-0.36c0-0.27-0.24-0.31-0.33-0.31c-0.2,0-0.5,0.14-0.5,0.58c0,0.44,0.39,0.77,0.94,0.77
	c0.91,0,1.83-0.81,2.07-1.81L285.34,199.7"/>
<path class="st0" d="M289.59,196.75c0-0.16,0-0.32-0.18-0.32c-0.18,0-0.18,0.16-0.18,0.32v8.23c0,0.16,0,0.32,0.18,0.32
	c0.18,0,0.18-0.16,0.18-0.32V196.75"/>
<path class="st0" d="M296.16,200.9l1.04-1.15c0.11-0.12,0.17-0.19,0.9-0.19v-0.42c-0.31,0.02-0.77,0.03-0.82,0.03
	c-0.22,0-0.67-0.02-0.91-0.03v0.42c0.12,0,0.23,0.02,0.34,0.08c-0.04,0.05-0.04,0.07-0.07,0.11l-0.75,0.83l-0.87-1.02h0.35v-0.42
	c-0.23,0.01-0.79,0.03-1.07,0.03c-0.28,0-0.68-0.02-0.98-0.03v0.42h0.63l1.38,1.63l-1.16,1.3c-0.15,0.17-0.47,0.17-0.9,0.17v0.42
	c0.31-0.02,0.77-0.03,0.82-0.03c0.22,0,0.74,0.02,0.91,0.03v-0.42c-0.16,0-0.33-0.04-0.33-0.1c0-0.01,0-0.02,0.06-0.09l0.86-0.97
	l0.98,1.15h-0.35v0.42c0.23-0.01,0.77-0.03,1.06-0.03c0.28,0,0.68,0.02,0.98,0.03v-0.42h-0.63L296.16,200.9"/>
<path class="st0" d="M301.01,200.86c0-0.69-0.1-1.77-0.58-2.77c-0.53-1.09-1.29-1.67-1.38-1.67c-0.05,0-0.09,0.03-0.09,0.09
	c0,0.03,0,0.04,0.17,0.21c0.87,0.88,1.38,2.29,1.38,4.14c0,1.52-0.33,3.08-1.43,4.2c-0.12,0.11-0.12,0.12-0.12,0.15
	c0,0.05,0.04,0.09,0.09,0.09c0.09,0,0.89-0.6,1.41-1.73C300.91,202.59,301.01,201.61,301.01,200.86"/>
<path class="st0" d="M310.54,201.9c0.12,0,0.29,0,0.29-0.18c0-0.18-0.17-0.18-0.3-0.18h-5.3c-0.13,0-0.3,0-0.3,0.18
	c0,0.18,0.17,0.18,0.29,0.18H310.54 M310.53,200.18c0.13,0,0.3,0,0.3-0.18s-0.17-0.18-0.29-0.18h-5.31c-0.12,0-0.29,0-0.29,0.18
	s0.17,0.18,0.3,0.18H310.53z"/>
<path class="st0" d="M316.96,197.02c-1.1,0-1.58,0.2-1.79,0.28c-0.91,0.38-1.11,0.99-1.11,1.1c0,0.06,0.04,0.07,0.1,0.07
	c0.16,0,0.59-0.22,0.66-0.42c0.11-0.34,0.13-0.42,0.73-0.5c0.3-0.04,0.59-0.05,0.9-0.05h0.81c-0.56,0.54-0.82,1.49-1.13,2.77
	c-0.26,1.05-0.46,1.74-0.83,2.21c-0.09,0.1-0.1,0.11-0.34,0.11h-0.57c-0.17,0-0.27,0-0.49,0.13c-0.1,0.05-0.29,0.2-0.29,0.29
	c0,0.05,0.01,0.06,0.21,0.06h3.03c1.04,0,1.81-0.77,1.81-1.09c0-0.06-0.07-0.06-0.1-0.06c-0.15,0-0.57,0.2-0.66,0.43
	c-0.06,0.19-0.09,0.24-0.53,0.24h-1.69c0.63-0.54,0.9-1.42,1.2-2.63c0.24-0.97,0.45-1.83,0.82-2.37c0.05-0.08,0.06-0.09,0.24-0.09
	h0.75c0.18,0,0.26,0,0.49-0.13c0.08-0.04,0.28-0.19,0.28-0.29c0-0.05-0.01-0.06-0.2-0.06H316.96"/>
<path class="st0" d="M323.79,202.52c0-0.55-0.27-0.87-0.94-0.87c-0.5,0-0.83,0.27-1,0.58c-0.13-0.45-0.46-0.58-0.92-0.58
	c-0.51,0-0.85,0.28-1.02,0.61h-0.01v-0.61l-0.92,0.07v0.23c0.42,0,0.47,0.04,0.47,0.35v1.63c0,0.27-0.06,0.27-0.47,0.27v0.23
	c0.01,0,0.45-0.03,0.72-0.03c0.23,0,0.67,0.02,0.72,0.03v-0.23c-0.41,0-0.47,0-0.47-0.27v-1.13c0-0.66,0.52-0.97,0.93-0.97
	c0.44,0,0.5,0.34,0.5,0.67v1.43c0,0.27-0.06,0.27-0.47,0.27v0.23c0.01,0,0.45-0.03,0.72-0.03c0.23,0,0.67,0.02,0.72,0.03v-0.23
	c-0.41,0-0.47,0-0.47-0.27v-1.13c0-0.66,0.52-0.97,0.93-0.97c0.44,0,0.5,0.34,0.5,0.67v1.43c0,0.27-0.06,0.27-0.47,0.27v0.23
	c0.01,0,0.45-0.03,0.72-0.03c0.23,0,0.67,0.02,0.72,0.03v-0.23c-0.41,0-0.47,0-0.47-0.27V202.52"/>
<path class="st0" d="M326.31,204.28c-0.23,0-0.57-0.08-0.78-0.38c-0.17-0.26-0.19-0.58-0.19-0.87c0-0.27,0.01-0.64,0.23-0.91
	c0.16-0.18,0.42-0.32,0.74-0.32c0.37,0,0.63,0.18,0.77,0.37c0.18,0.24,0.2,0.56,0.2,0.86c0,0.3-0.02,0.63-0.2,0.89
	C326.91,204.16,326.62,204.28,326.31,204.28 M327.85,203.08c0-0.79-0.67-1.46-1.54-1.46c-0.87,0-1.54,0.68-1.54,1.46
	c0,0.78,0.69,1.4,1.54,1.4C327.16,204.48,327.85,203.86,327.85,203.08z"/>
<path class="st0" d="M330.96,203.76c-0.16,0.29-0.48,0.55-0.89,0.55c-0.35,0-0.6-0.21-0.73-0.39c-0.13-0.19-0.2-0.44-0.2-0.84
	c0-0.14,0-0.62,0.26-0.91c0.25-0.28,0.56-0.34,0.74-0.34c0.3,0,0.57,0.14,0.75,0.36c0.08,0.1,0.08,0.11,0.08,0.23V203.76
	 M330.51,200.13v0.23c0.42,0,0.47,0.04,0.47,0.35v1.3c-0.23-0.23-0.53-0.36-0.88-0.36c-0.83,0-1.54,0.63-1.54,1.42
	c0,0.78,0.67,1.41,1.46,1.41c0.51,0,0.82-0.28,0.93-0.39v0.39l0.97-0.06v-0.23c-0.42,0-0.47-0.04-0.47-0.35v-3.78L330.51,200.13z"/>
<path class="st0" d="M333.03,202.83c0.07-0.88,0.63-1.03,0.87-1.03c0.77,0,0.8,0.87,0.8,1.03H333.03 M334.97,202.99
	c0.13,0,0.18,0,0.18-0.14c0-0.55-0.31-1.23-1.24-1.23c-0.82,0-1.45,0.65-1.45,1.43c0,0.8,0.7,1.44,1.53,1.44
	c0.85,0,1.16-0.68,1.16-0.82c0-0.03-0.01-0.09-0.11-0.09c-0.08,0-0.09,0.04-0.11,0.1c-0.19,0.51-0.67,0.6-0.9,0.6
	c-0.3,0-0.58-0.13-0.77-0.37c-0.23-0.3-0.24-0.68-0.24-0.92H334.97z"/>
<path class="st0" d="M336.72,200.06l-0.94,0.07v0.23c0.42,0,0.47,0.04,0.47,0.35v3.22c0,0.27-0.06,0.27-0.47,0.27v0.23
	c0.01,0,0.45-0.03,0.7-0.03c0.24,0,0.47,0.01,0.71,0.03v-0.23c-0.41,0-0.47,0-0.47-0.27V200.06"/>
<path class="st0" d="M340.77,205.21c0-0.03,0-0.04-0.15-0.2c-1.11-1.12-1.39-2.8-1.39-4.15c0-1.54,0.34-3.09,1.43-4.2
	c0.11-0.11,0.11-0.12,0.11-0.15c0-0.06-0.03-0.09-0.09-0.09c-0.09,0-0.89,0.6-1.41,1.73c-0.45,0.98-0.56,1.96-0.56,2.71
	c0,0.69,0.1,1.77,0.59,2.77c0.53,1.09,1.29,1.67,1.38,1.67C340.73,205.3,340.77,205.27,340.77,205.21"/>
<path class="st0" d="M344.73,200.22c-0.55,2.38-1.29,2.62-1.6,2.62c-0.12,0-0.31-0.03-0.44-0.31c-0.11-0.24-0.11-0.58-0.11-0.59
	c0-0.51,0.2-1.33,0.29-1.71H344.73 M342.98,199.79c0.12-0.51,0.35-1.32,0.62-1.78c0.2-0.36,0.57-0.83,0.99-0.83
	c0.37,0,0.53,0.39,0.53,0.91c0,0.56-0.2,1.33-0.29,1.7H342.98z M346.08,198.73c0-1.56-0.92-1.88-1.46-1.88
	c-0.7,0-1.59,0.46-2.25,1.67c-0.45,0.83-0.73,2.04-0.73,2.76c0,1.29,0.68,1.87,1.47,1.87c0.59,0,1.37-0.35,1.99-1.25
	C345.84,200.81,346.08,199.4,346.08,198.73z"/>
<path class="st0" d="M348.12,202.98c0,0.25,0,0.94-0.57,1.6c-0.06,0.07-0.06,0.09-0.06,0.12c0,0.06,0.04,0.1,0.09,0.1
	c0.1,0,0.74-0.71,0.74-1.74c0-0.26-0.02-0.91-0.5-0.91c-0.31,0-0.47,0.24-0.47,0.47c0,0.23,0.15,0.47,0.47,0.47
	c0.04,0,0.06,0,0.07-0.01C347.95,203.06,348.05,203.05,348.12,202.98 M348.29,199.73c0-0.26-0.21-0.47-0.47-0.47
	c-0.26,0-0.47,0.21-0.47,0.47c0,0.26,0.21,0.47,0.47,0.47C348.08,200.2,348.29,199.98,348.29,199.73z"/>
<path class="st0" d="M354.83,199.7c0.03-0.12,0.03-0.14,0.03-0.2c0-0.16-0.12-0.24-0.26-0.24c-0.09,0-0.23,0.05-0.31,0.19
	c-0.02,0.04-0.09,0.32-0.12,0.48c-0.06,0.23-0.12,0.47-0.18,0.71l-0.4,1.6c-0.03,0.13-0.42,0.75-1,0.75c-0.45,0-0.55-0.39-0.55-0.72
	c0-0.41,0.15-0.96,0.45-1.74c0.14-0.36,0.18-0.46,0.18-0.64c0-0.4-0.28-0.73-0.73-0.73c-0.84,0-1.17,1.29-1.17,1.37
	c0,0.09,0.09,0.09,0.11,0.09c0.09,0,0.1-0.02,0.14-0.16c0.24-0.83,0.59-1.1,0.9-1.1c0.07,0,0.22,0,0.22,0.28
	c0,0.22-0.09,0.45-0.15,0.62c-0.35,0.94-0.51,1.45-0.51,1.86c0,0.79,0.56,1.06,1.08,1.06c0.35,0,0.65-0.15,0.9-0.4
	c-0.12,0.46-0.22,0.9-0.58,1.37c-0.23,0.3-0.57,0.56-0.98,0.56c-0.12,0-0.52-0.03-0.67-0.37c0.14,0,0.26,0,0.38-0.11
	c0.09-0.08,0.18-0.2,0.18-0.36c0-0.27-0.24-0.31-0.33-0.31c-0.2,0-0.5,0.14-0.5,0.58c0,0.44,0.39,0.77,0.94,0.77
	c0.91,0,1.83-0.81,2.07-1.81L354.83,199.7"/>
<path class="st0" d="M359.07,196.75c0-0.16,0-0.32-0.18-0.32c-0.18,0-0.18,0.16-0.18,0.32v8.23c0,0.16,0,0.32,0.18,0.32
	c0.18,0,0.18-0.16,0.18-0.32V196.75"/>
<path class="st0" d="M365.64,200.9l1.04-1.15c0.11-0.12,0.17-0.19,0.9-0.19v-0.42c-0.31,0.02-0.77,0.03-0.82,0.03
	c-0.22,0-0.67-0.02-0.91-0.03v0.42c0.12,0,0.23,0.02,0.34,0.08c-0.04,0.05-0.04,0.07-0.07,0.11l-0.74,0.83l-0.87-1.02h0.35v-0.42
	c-0.23,0.01-0.79,0.03-1.07,0.03s-0.68-0.02-0.98-0.03v0.42h0.63l1.38,1.63l-1.16,1.3c-0.15,0.17-0.47,0.17-0.9,0.17v0.42
	c0.31-0.02,0.77-0.03,0.82-0.03c0.22,0,0.74,0.02,0.91,0.03v-0.42c-0.16,0-0.33-0.04-0.33-0.1c0-0.01,0-0.02,0.06-0.09l0.86-0.97
	l0.98,1.15h-0.35v0.42c0.23-0.01,0.77-0.03,1.06-0.03c0.28,0,0.68,0.02,0.98,0.03v-0.42h-0.63L365.64,200.9"/>
<path class="st0" d="M370.49,200.86c0-0.69-0.1-1.77-0.58-2.77c-0.53-1.09-1.29-1.67-1.38-1.67c-0.05,0-0.09,0.03-0.09,0.09
	c0,0.03,0,0.04,0.17,0.21c0.87,0.88,1.38,2.29,1.38,4.14c0,1.52-0.33,3.08-1.43,4.2c-0.12,0.11-0.12,0.12-0.12,0.15
	c0,0.05,0.04,0.09,0.09,0.09c0.09,0,0.89-0.6,1.41-1.73C370.39,202.59,370.49,201.61,370.49,200.86"/>
<path class="st0" d="M14.38,195.67c0-0.01,0-0.11-0.13-0.11c-0.23,0-0.95,0.08-1.21,0.1c-0.08,0.01-0.19,0.02-0.19,0.2
	c0,0.12,0.09,0.12,0.24,0.12c0.48,0,0.5,0.07,0.5,0.17l-0.03,0.2l-1.44,5.72c-0.04,0.14-0.04,0.16-0.04,0.22
	c0,0.23,0.2,0.28,0.29,0.28c0.16,0,0.32-0.12,0.37-0.26l0.19-0.76l0.22-0.89c0.06-0.22,0.12-0.44,0.17-0.67
	c0.02-0.06,0.1-0.39,0.11-0.45c0.03-0.09,0.34-0.65,0.67-0.91c0.22-0.16,0.53-0.35,0.95-0.35c0.43,0,0.54,0.34,0.54,0.7
	c0,0.54-0.38,1.62-0.62,2.22c-0.08,0.23-0.13,0.35-0.13,0.55c0,0.47,0.35,0.81,0.81,0.81c0.93,0,1.3-1.45,1.3-1.53
	c0-0.1-0.09-0.1-0.12-0.1c-0.1,0-0.1,0.03-0.15,0.18c-0.15,0.53-0.47,1.23-1.01,1.23c-0.17,0-0.24-0.1-0.24-0.33
	c0-0.25,0.09-0.49,0.18-0.7c0.16-0.43,0.61-1.61,0.61-2.19c0-0.65-0.4-1.06-1.14-1.06c-0.63,0-1.1,0.31-1.47,0.76L14.38,195.67"/>
<path class="st0" d="M20.61,204.84c0-0.03,0-0.05-0.17-0.22c-1.24-1.25-1.56-3.13-1.56-4.65c0-1.73,0.38-3.46,1.6-4.7
	c0.13-0.12,0.13-0.14,0.13-0.17c0-0.07-0.04-0.1-0.1-0.1c-0.1,0-0.99,0.68-1.58,1.94c-0.51,1.09-0.63,2.2-0.63,3.03
	c0,0.77,0.11,1.98,0.66,3.1c0.6,1.22,1.45,1.87,1.55,1.87C20.57,204.93,20.61,204.9,20.61,204.84"/>
<path class="st0" d="M25.05,199.24c-0.62,2.66-1.45,2.93-1.8,2.93c-0.14,0-0.35-0.04-0.49-0.35c-0.12-0.27-0.12-0.65-0.12-0.66
	c0-0.57,0.22-1.49,0.33-1.92H25.05 M23.09,198.77c0.14-0.57,0.4-1.48,0.7-2c0.23-0.41,0.64-0.93,1.11-0.93c0.42,0,0.6,0.44,0.6,1.02
	c0,0.62-0.22,1.49-0.33,1.91H23.09z M26.56,197.58c0-1.75-1.03-2.11-1.64-2.11c-0.79,0-1.78,0.52-2.52,1.87
	c-0.51,0.93-0.82,2.28-0.82,3.09c0,1.44,0.76,2.1,1.65,2.1c0.67,0,1.54-0.39,2.22-1.4C26.29,199.91,26.56,198.33,26.56,197.58z"/>
<path class="st0" d="M28.74,202.34c0,0.28,0,1.05-0.64,1.79c-0.07,0.08-0.07,0.1-0.07,0.13c0,0.07,0.05,0.11,0.1,0.11
	c0.11,0,0.82-0.8,0.82-1.95c0-0.29-0.02-1.02-0.56-1.02c-0.35,0-0.53,0.27-0.53,0.53s0.17,0.53,0.53,0.53c0.05,0,0.07,0,0.08-0.01
	C28.55,202.43,28.66,202.41,28.74,202.34 M28.93,198.7c0-0.29-0.24-0.53-0.53-0.53c-0.29,0-0.53,0.24-0.53,0.53
	c0,0.29,0.24,0.53,0.53,0.53C28.69,199.22,28.93,198.98,28.93,198.7z"/>
<path class="st0" d="M34.86,200.01l1.16-1.29c0.13-0.14,0.19-0.21,1.01-0.21v-0.47c-0.35,0.02-0.86,0.03-0.91,0.03
	c-0.25,0-0.75-0.02-1.02-0.03v0.47c0.14,0,0.26,0.02,0.38,0.09c-0.04,0.06-0.04,0.08-0.08,0.12l-0.83,0.93l-0.97-1.14h0.4v-0.47
	c-0.26,0.01-0.88,0.03-1.2,0.03c-0.32,0-0.77-0.02-1.09-0.03v0.47h0.7l1.55,1.83l-1.3,1.46c-0.17,0.19-0.53,0.19-1,0.19v0.47
	c0.35-0.02,0.86-0.03,0.91-0.03c0.25,0,0.82,0.02,1.02,0.03v-0.47c-0.18,0-0.37-0.05-0.37-0.11c0-0.01,0-0.02,0.07-0.1l0.96-1.08
	l1.09,1.29h-0.39v0.47c0.26-0.01,0.86-0.03,1.19-0.03c0.32,0,0.76,0.02,1.09,0.03v-0.47h-0.7L34.86,200.01"/>
<path class="st0" d="M40.3,199.97c0-0.77-0.11-1.98-0.65-3.1c-0.6-1.22-1.45-1.87-1.55-1.87c-0.06,0-0.1,0.04-0.1,0.1
	c0,0.03,0,0.05,0.19,0.23c0.97,0.98,1.54,2.56,1.54,4.64c0,1.7-0.37,3.45-1.6,4.7c-0.13,0.12-0.13,0.14-0.13,0.17
	c0,0.06,0.04,0.1,0.1,0.1c0.1,0,0.99-0.68,1.58-1.94C40.18,201.9,40.3,200.8,40.3,199.97"/>
<path class="st0" d="M50.96,201.13c0.14,0,0.33,0,0.33-0.2c0-0.2-0.19-0.2-0.34-0.2h-5.93c-0.15,0-0.34,0-0.34,0.2
	c0,0.2,0.19,0.2,0.33,0.2H50.96 M50.95,199.2c0.15,0,0.34,0,0.34-0.2c0-0.2-0.19-0.2-0.33-0.2h-5.95c-0.14,0-0.33,0-0.33,0.2
	c0,0.2,0.19,0.2,0.34,0.2H50.95z"/>
<path class="st0" d="M58.15,195.67c-1.23,0-1.77,0.23-2.01,0.32c-1.01,0.43-1.24,1.1-1.24,1.23c0,0.07,0.05,0.08,0.11,0.08
	c0.18,0,0.66-0.25,0.73-0.47c0.12-0.38,0.15-0.47,0.82-0.56c0.34-0.04,0.67-0.06,1-0.06h0.9c-0.62,0.61-0.91,1.67-1.27,3.1
	c-0.29,1.17-0.52,1.95-0.92,2.47c-0.1,0.11-0.11,0.12-0.38,0.12h-0.64c-0.19,0-0.3,0-0.55,0.15c-0.11,0.06-0.33,0.23-0.33,0.33
	c0,0.06,0.01,0.07,0.23,0.07h3.4c1.16,0,2.03-0.86,2.03-1.22c0-0.07-0.08-0.07-0.11-0.07c-0.17,0-0.64,0.23-0.74,0.48
	c-0.07,0.21-0.1,0.27-0.6,0.27h-1.9c0.7-0.6,1-1.59,1.34-2.94c0.27-1.08,0.51-2.05,0.91-2.65c0.06-0.09,0.07-0.1,0.27-0.1h0.84
	c0.2,0,0.29,0,0.55-0.15c0.09-0.05,0.32-0.21,0.32-0.33c0-0.06-0.01-0.07-0.23-0.07H58.15"/>
<path class="st0" d="M65.8,201.82c0-0.61-0.3-0.97-1.05-0.97c-0.55,0-0.93,0.3-1.12,0.65c-0.14-0.5-0.52-0.65-1.03-0.65
	c-0.58,0-0.95,0.32-1.15,0.68h-0.01v-0.68l-1.03,0.08v0.25c0.47,0,0.53,0.05,0.53,0.39v1.82c0,0.3-0.07,0.3-0.53,0.3v0.25
	c0.01,0,0.51-0.03,0.8-0.03c0.26,0,0.75,0.02,0.81,0.03v-0.25c-0.46,0-0.53,0-0.53-0.3v-1.27c0-0.74,0.58-1.08,1.05-1.08
	c0.49,0,0.56,0.39,0.56,0.75v1.6c0,0.3-0.07,0.3-0.53,0.3v0.25c0.01,0,0.51-0.03,0.8-0.03c0.26,0,0.75,0.02,0.81,0.03v-0.25
	c-0.46,0-0.53,0-0.53-0.3v-1.27c0-0.74,0.58-1.08,1.05-1.08c0.49,0,0.56,0.39,0.56,0.75v1.6c0,0.3-0.07,0.3-0.53,0.3v0.25
	c0.01,0,0.51-0.03,0.8-0.03c0.26,0,0.75,0.02,0.81,0.03v-0.25c-0.46,0-0.53,0-0.53-0.3V201.82"/>
<path class="st0" d="M68.62,203.8c-0.26,0-0.64-0.08-0.87-0.43c-0.19-0.29-0.21-0.65-0.21-0.98c0-0.3,0.01-0.72,0.25-1.02
	c0.17-0.2,0.47-0.36,0.83-0.36c0.41,0,0.71,0.2,0.86,0.42c0.2,0.27,0.22,0.62,0.22,0.96c0,0.34-0.02,0.71-0.22,1
	C69.29,203.66,68.97,203.8,68.62,203.8 M70.34,202.45c0-0.88-0.75-1.64-1.72-1.64s-1.72,0.76-1.72,1.64c0,0.87,0.77,1.57,1.72,1.57
	C69.57,204.02,70.34,203.33,70.34,202.45z"/>
<path class="st0" d="M73.83,203.21c-0.18,0.33-0.54,0.61-1,0.61c-0.39,0-0.67-0.23-0.82-0.44c-0.14-0.21-0.22-0.49-0.22-0.94
	c0-0.16,0-0.69,0.29-1.02c0.28-0.32,0.62-0.38,0.83-0.38c0.34,0,0.64,0.15,0.84,0.41c0.08,0.11,0.08,0.12,0.08,0.25V203.21
	 M73.33,199.15v0.25c0.47,0,0.53,0.05,0.53,0.39v1.45c-0.26-0.25-0.6-0.4-0.98-0.4c-0.93,0-1.72,0.7-1.72,1.59
	c0,0.88,0.75,1.58,1.64,1.58c0.58,0,0.92-0.31,1.04-0.44v0.44l1.08-0.07v-0.25c-0.47,0-0.53-0.05-0.53-0.39v-4.23L73.33,199.15z"/>
<path class="st0" d="M76.15,202.17c0.08-0.99,0.71-1.15,0.98-1.15c0.86,0,0.89,0.98,0.9,1.15H76.15 M78.32,202.35
	c0.15,0,0.2,0,0.2-0.15c0-0.62-0.35-1.38-1.39-1.38c-0.92,0-1.62,0.73-1.62,1.6c0,0.89,0.78,1.61,1.72,1.61
	c0.95,0,1.3-0.76,1.3-0.91c0-0.03-0.01-0.1-0.12-0.1c-0.09,0-0.1,0.04-0.13,0.11c-0.22,0.57-0.75,0.68-1,0.68
	c-0.33,0-0.65-0.15-0.86-0.41c-0.26-0.33-0.27-0.76-0.27-1.03H78.32z"/>
<path class="st0" d="M80.27,199.07l-1.05,0.08v0.25c0.47,0,0.53,0.05,0.53,0.39v3.6c0,0.3-0.07,0.3-0.53,0.3v0.25
	c0.01,0,0.51-0.03,0.79-0.03c0.27,0,0.53,0.01,0.79,0.03v-0.25c-0.46,0-0.53,0-0.53-0.3V199.07"/>
<path class="st0" d="M84.81,204.84c0-0.03,0-0.05-0.17-0.22c-1.24-1.25-1.56-3.13-1.56-4.65c0-1.73,0.38-3.46,1.6-4.7
	c0.13-0.12,0.13-0.14,0.13-0.17c0-0.07-0.04-0.1-0.1-0.1c-0.1,0-0.99,0.68-1.58,1.94c-0.51,1.09-0.63,2.2-0.63,3.03
	c0,0.77,0.11,1.98,0.66,3.1c0.6,1.22,1.45,1.87,1.55,1.87C84.77,204.93,84.81,204.9,84.81,204.84"/>
<path class="st0" d="M89.25,199.24c-0.62,2.66-1.45,2.93-1.8,2.93c-0.14,0-0.35-0.04-0.49-0.35c-0.12-0.27-0.12-0.65-0.12-0.66
	c0-0.57,0.22-1.49,0.33-1.92H89.25 M87.29,198.77c0.14-0.57,0.4-1.48,0.7-2c0.23-0.41,0.64-0.93,1.11-0.93c0.42,0,0.6,0.44,0.6,1.02
	c0,0.62-0.22,1.49-0.33,1.91H87.29z M90.76,197.58c0-1.75-1.03-2.11-1.64-2.11c-0.79,0-1.78,0.52-2.52,1.87
	c-0.51,0.93-0.82,2.28-0.82,3.09c0,1.44,0.76,2.1,1.65,2.1c0.67,0,1.54-0.39,2.22-1.4C90.49,199.91,90.76,198.33,90.76,197.58z"/>
<path class="st0" d="M93.04,202.34c0,0.28,0,1.05-0.64,1.79c-0.07,0.08-0.07,0.1-0.07,0.13c0,0.07,0.05,0.11,0.1,0.11
	c0.11,0,0.83-0.8,0.83-1.95c0-0.29-0.02-1.02-0.56-1.02c-0.35,0-0.53,0.27-0.53,0.53s0.17,0.53,0.53,0.53c0.05,0,0.07,0,0.08-0.01
	C92.85,202.43,92.96,202.41,93.04,202.34 M93.23,198.7c0-0.29-0.24-0.53-0.53-0.53c-0.29,0-0.53,0.24-0.53,0.53
	c0,0.29,0.24,0.53,0.53,0.53C92.99,199.22,93.23,198.98,93.23,198.7z"/>
<path class="st0" d="M99.16,200.01l1.16-1.29c0.13-0.14,0.19-0.21,1.01-0.21v-0.47c-0.35,0.02-0.86,0.03-0.91,0.03
	c-0.25,0-0.75-0.02-1.02-0.03v0.47c0.14,0,0.26,0.02,0.38,0.09c-0.04,0.06-0.04,0.08-0.08,0.12l-0.83,0.93l-0.97-1.14h0.4v-0.47
	c-0.26,0.01-0.88,0.03-1.2,0.03c-0.32,0-0.77-0.02-1.09-0.03v0.47h0.7l1.55,1.83l-1.3,1.46c-0.17,0.19-0.53,0.19-1,0.19v0.47
	c0.35-0.02,0.86-0.03,0.91-0.03c0.25,0,0.82,0.02,1.02,0.03v-0.47c-0.18,0-0.37-0.05-0.37-0.11c0-0.01,0-0.02,0.07-0.1l0.96-1.08
	l1.09,1.29h-0.39v0.47c0.26-0.01,0.86-0.03,1.19-0.03c0.32,0,0.76,0.02,1.09,0.03v-0.47h-0.7L99.16,200.01"/>
<path class="st0" d="M104.6,199.97c0-0.77-0.11-1.98-0.65-3.1c-0.6-1.22-1.45-1.87-1.55-1.87c-0.06,0-0.1,0.04-0.1,0.1
	c0,0.03,0,0.05,0.19,0.23c0.97,0.98,1.54,2.56,1.54,4.64c0,1.7-0.37,3.45-1.6,4.7c-0.13,0.12-0.13,0.14-0.13,0.17
	c0,0.06,0.04,0.1,0.1,0.1c0.1,0,0.99-0.68,1.58-1.94C104.48,201.9,104.6,200.8,104.6,199.97"/>
<rect x="259.14" y="185.23" class="st1" width="115.67" height="29.33"/>
<rect x="129.97" y="185.23" class="st1" width="115.67" height="29.33"/>
<rect x="0.8" y="185.3" class="st1" width="115.67" height="29.33"/>
<g>
	<g>
		<line class="st1" x1="57.26" y1="174.22" x2="57.26" y2="182.69"/>
		<g>
			<path class="st2" d="M57.26,171.2c-0.53,1.42-1.43,3.18-2.38,4.27l2.38-0.86l2.38,0.86C58.68,174.39,57.78,172.62,57.26,171.2z"
				/>
		</g>
	</g>
</g>
<g>
	<g>
		<line class="st1" x1="189.09" y1="174.08" x2="189.09" y2="182.54"/>
		<g>
			<path class="st2" d="M189.09,171.06c-0.53,1.42-1.43,3.18-2.38,4.27l2.38-0.86l2.38,0.86
				C190.52,174.24,189.62,172.48,189.09,171.06z"/>
		</g>
	</g>
</g>
<g>
	<g>
		<line class="st1" x1="319.69" y1="174.08" x2="319.69" y2="182.54"/>
		<g>
			<path class="st2" d="M319.69,171.06c-0.53,1.42-1.43,3.18-2.38,4.27l2.38-0.86l2.38,0.86
				C321.11,174.24,320.21,172.48,319.69,171.06z"/>
		</g>
	</g>
</g>
</svg>
