<?xml version="1.0" encoding="utf-8"?>
<!-- Generator: Adobe Illustrator 26.0.2, SVG Export Plug-In . SVG Version: 6.00 Build 0)  -->
<svg version="1.1" id="Layer_1" xmlns="http://www.w3.org/2000/svg" xmlns:xlink="http://www.w3.org/1999/xlink" x="0px" y="0px"
	 viewBox="0 0 130.88 65.28" style="enable-background:new 0 0 130.88 65.28;" xml:space="preserve">
<style type="text/css">
	.st0{opacity:0.4;fill:#486AFB;stroke:#486AFB;stroke-miterlimit:10;}
	.st1{fill:none;stroke:#486AFB;stroke-miterlimit:10;}
	.st2{fill:#486AFB;}
	.st3{fill:#FD46FC;}
</style>
<circle class="st0" cx="15.59" cy="39.52" r="11"/>
<circle class="st1" cx="15.59" cy="39.52" r="11"/>
<circle class="st1" cx="63.59" cy="39.52" r="11"/>
<g>
	<g>
		<line class="st1" x1="28.59" y1="39.52" x2="47.07" y2="39.52"/>
		<g>
			<path class="st2" d="M50.09,39.52c-1.42,0.53-3.18,1.43-4.27,2.38l0.86-2.38l-0.86-2.38C46.9,38.09,48.67,38.99,50.09,39.52z"/>
		</g>
	</g>
</g>
<circle class="st0" cx="113.85" cy="39.89" r="11"/>
<circle class="st1" cx="113.85" cy="39.89" r="11"/>
<g>
	<g>
		<line class="st1" x1="78.85" y1="39.89" x2="97.33" y2="39.89"/>
		<g>
			<path class="st2" d="M100.35,39.89c-1.42,0.53-3.18,1.43-4.27,2.38l0.86-2.38l-0.86-2.38C97.16,38.46,98.93,39.36,100.35,39.89z"
				/>
		</g>
	</g>
</g>
<g>
	<g>
		<line class="st1" x1="56.03" y1="9.01" x2="59.48" y2="24.09"/>
		<g>
			<path class="st2" d="M60.15,27.03c-0.83-1.27-2.1-2.78-3.27-3.64l2.51,0.31l2.13-1.37C60.83,23.62,60.34,25.53,60.15,27.03z"/>
		</g>
	</g>
</g>
<g>
	<g>
		<line class="st1" x1="69.99" y1="9.08" x2="66.54" y2="24.17"/>
		<g>
			<path class="st2" d="M65.87,27.11c-0.2-1.5-0.68-3.42-1.37-4.7l2.13,1.37l2.51-0.31C67.97,24.32,66.7,25.84,65.87,27.11z"/>
		</g>
	</g>
</g>
<g>
	<g>
		<line class="st1" x1="106.16" y1="9.24" x2="109.6" y2="24.32"/>
		<g>
			<path class="st2" d="M110.27,27.27c-0.83-1.27-2.1-2.78-3.27-3.64l2.51,0.31l2.13-1.37C110.95,23.85,110.47,25.76,110.27,27.27z"
				/>
		</g>
	</g>
</g>
<g>
	<g>
		<line class="st1" x1="120.11" y1="9.31" x2="116.67" y2="24.4"/>
		<g>
			<path class="st2" d="M116,27.34c-0.2-1.5-0.68-3.42-1.37-4.7l2.13,1.37l2.51-0.31C118.1,24.56,116.83,26.07,116,27.34z"/>
		</g>
	</g>
</g>
<path class="st3" d="M11.81,40.19l1.67-2.2c0.11-0.14,0.12-0.15,0.47-0.18c0.24-0.03,0.3-0.03,0.58-0.03h0.29v-0.47
	c-0.42,0.03-0.9,0.03-1.33,0.03c-0.39,0-1.15,0-1.51-0.03v0.47c0.18,0,0.57,0,0.91,0.11c-0.01,0.02-0.06,0.08-0.08,0.11l-1.31,1.74
	l-1.42-1.96h0.83v-0.47c-0.41,0.03-1.35,0.03-1.8,0.03c-0.4,0-1.26,0-1.61-0.03v0.47h0.97l2.2,3.05l-2.01,2.63
	c-0.09,0.12-0.11,0.14-0.43,0.17c-0.2,0.02-0.41,0.03-0.6,0.03H7.34v0.47c0.42-0.03,0.9-0.03,1.33-0.03c0.39,0,1.15,0,1.51,0.03
	v-0.47c-0.18,0-0.57,0-0.91-0.11c0.01-0.02,0.06-0.08,0.08-0.11l1.64-2.17l1.73,2.39h-0.82v0.47c0.41-0.03,1.35-0.03,1.8-0.03
	c0.4,0,1.26,0,1.61,0.03v-0.47h-0.97L11.81,40.19"/>
<path class="st3" d="M18.2,34.66c-1.34,0.94-1.69,2.43-1.69,3.51c0,0.99,0.3,2.53,1.69,3.51c0.06,0,0.14,0,0.14-0.08
	c0-0.04-0.02-0.06-0.07-0.1c-0.93-0.84-1.28-2.04-1.28-3.32c0-1.9,0.72-2.83,1.3-3.35c0.03-0.03,0.05-0.05,0.05-0.08
	C18.34,34.66,18.26,34.66,18.2,34.66"/>
<path class="st3" d="M19.65,39.11c-0.03,0.09-0.06,0.18-0.06,0.3c0,0.33,0.28,0.6,0.67,0.6c0.7,0,1.01-0.97,1.01-1.08
	c0-0.09-0.09-0.09-0.11-0.09c-0.1,0-0.11,0.04-0.13,0.12c-0.16,0.56-0.47,0.85-0.75,0.85c-0.14,0-0.17-0.09-0.17-0.25
	c0-0.16,0.05-0.3,0.11-0.45c0.07-0.19,0.15-0.38,0.23-0.56c0.06-0.17,0.32-0.81,0.34-0.89c0.02-0.07,0.04-0.15,0.04-0.22
	c0-0.33-0.28-0.6-0.67-0.6c-0.7,0-1.02,0.96-1.02,1.08c0,0.09,0.1,0.09,0.12,0.09c0.1,0,0.1-0.04,0.13-0.11
	c0.18-0.6,0.49-0.86,0.75-0.86c0.11,0,0.18,0.06,0.18,0.25c0,0.16-0.04,0.27-0.22,0.7L19.65,39.11 M21.08,35.54
	c0-0.11-0.08-0.27-0.28-0.27c-0.19,0-0.39,0.18-0.39,0.39c0,0.12,0.09,0.27,0.28,0.27C20.89,35.93,21.08,35.73,21.08,35.54z"/>
<path class="st3" d="M22.14,34.66c-0.05,0-0.13,0-0.13,0.08c0,0.03,0.02,0.06,0.06,0.1c0.6,0.56,1.28,1.5,1.28,3.32
	c0,1.47-0.46,2.58-1.22,3.27c-0.12,0.12-0.13,0.13-0.13,0.16c0,0.04,0.02,0.08,0.09,0.08c0.08,0,0.75-0.46,1.22-1.34
	c0.31-0.58,0.51-1.34,0.51-2.17C23.83,37.19,23.53,35.65,22.14,34.66"/>
<path class="st3" d="M111.54,38.6l0.14-0.14c0.3-0.3,0.63-0.64,1.3-0.69c0.11-0.01,0.2-0.01,0.2-0.19c0-0.08-0.05-0.12-0.13-0.12
	c-0.26,0-0.55,0.03-0.81,0.03c-0.33,0-0.68-0.03-0.99-0.03c-0.06,0-0.19,0-0.19,0.19c0,0.11,0.1,0.12,0.15,0.12
	c0.07,0,0.36,0.02,0.36,0.23c0,0.17-0.23,0.43-0.27,0.48l-2.3,2.65l-1.09-2.95c-0.06-0.14-0.06-0.16-0.06-0.17
	c0-0.24,0.49-0.24,0.59-0.24c0.14,0,0.24,0,0.24-0.2c0-0.11-0.12-0.11-0.15-0.11c-0.28,0-0.97,0.03-1.25,0.03
	c-0.25,0-0.86-0.03-1.11-0.03c-0.06,0-0.19,0-0.19,0.2c0,0.11,0.1,0.11,0.23,0.11c0.6,0,0.64,0.09,0.72,0.34l1.22,3.27
	c0.01,0.03,0.04,0.14,0.04,0.17c0,0.03-0.4,1.63-0.45,1.81c-0.13,0.55-0.14,0.58-0.93,0.59c-0.19,0-0.27,0-0.27,0.2
	c0,0.11,0.12,0.11,0.14,0.11c0.28,0,0.97-0.03,1.25-0.03c0.28,0,0.99,0.03,1.27,0.03c0.07,0,0.19,0,0.19-0.2
	c0-0.11-0.09-0.11-0.28-0.11c-0.02,0-0.21,0-0.38-0.02c-0.21-0.02-0.27-0.04-0.27-0.16c0-0.07,0.09-0.42,0.14-0.62l0.35-1.4
	c0.05-0.19,0.06-0.22,0.14-0.31L111.54,38.6"/>
<path class="st3" d="M116.01,34.78c-1.34,0.94-1.69,2.43-1.69,3.51c0,0.99,0.3,2.53,1.69,3.51c0.06,0,0.14,0,0.14-0.08
	c0-0.04-0.02-0.06-0.07-0.1c-0.93-0.84-1.28-2.04-1.28-3.32c0-1.9,0.73-2.83,1.3-3.35c0.03-0.03,0.05-0.05,0.05-0.08
	C116.15,34.78,116.06,34.78,116.01,34.78"/>
<path class="st3" d="M117.46,39.23c-0.03,0.09-0.06,0.18-0.06,0.3c0,0.33,0.28,0.6,0.67,0.6c0.7,0,1.01-0.97,1.01-1.08
	c0-0.09-0.09-0.09-0.11-0.09c-0.1,0-0.11,0.04-0.13,0.12c-0.16,0.56-0.47,0.85-0.75,0.85c-0.14,0-0.18-0.09-0.18-0.25
	c0-0.16,0.05-0.3,0.11-0.45c0.07-0.19,0.15-0.38,0.22-0.56c0.06-0.17,0.32-0.81,0.34-0.89c0.02-0.07,0.04-0.15,0.04-0.22
	c0-0.33-0.28-0.6-0.67-0.6c-0.7,0-1.02,0.96-1.02,1.08c0,0.09,0.1,0.09,0.12,0.09c0.1,0,0.1-0.04,0.13-0.11
	c0.18-0.6,0.49-0.86,0.75-0.86c0.11,0,0.18,0.06,0.18,0.25c0,0.16-0.04,0.27-0.22,0.7L117.46,39.23 M118.89,35.66
	c0-0.11-0.08-0.27-0.28-0.27c-0.19,0-0.39,0.18-0.39,0.39c0,0.12,0.09,0.27,0.28,0.27C118.7,36.05,118.89,35.85,118.89,35.66z"/>
<path class="st3" d="M120.04,34.78c-0.05,0-0.13,0-0.13,0.08c0,0.03,0.02,0.06,0.06,0.1c0.6,0.56,1.28,1.5,1.28,3.32
	c0,1.47-0.46,2.58-1.22,3.27c-0.12,0.12-0.13,0.13-0.13,0.16c0,0.04,0.02,0.08,0.09,0.08c0.08,0,0.75-0.46,1.22-1.34
	c0.31-0.58,0.51-1.34,0.51-2.17C121.73,37.31,121.44,35.77,120.04,34.78"/>
<path class="st3" d="M61.51,40.27c0.08-0.11,0.1-0.13,0.1-0.22c0-0.21-0.14-0.21-0.32-0.21h-3.65l-0.12,1.74h0.47
	c0.06-1.02,0.37-1.38,1.39-1.38h0.84l-2.77,3.62c-0.09,0.11-0.09,0.13-0.09,0.22c0,0.22,0.13,0.22,0.32,0.22h3.78l0.18-2.01h-0.47
	c-0.09,1-0.25,1.61-1.56,1.61h-0.85L61.51,40.27"/>
<path class="st3" d="M64.64,34.78c-1.34,0.94-1.69,2.43-1.69,3.51c0,0.99,0.3,2.53,1.69,3.51c0.06,0,0.14,0,0.14-0.08
	c0-0.04-0.02-0.06-0.07-0.1c-0.93-0.84-1.28-2.04-1.28-3.32c0-1.9,0.73-2.83,1.3-3.35c0.03-0.03,0.05-0.05,0.05-0.08
	C64.78,34.78,64.7,34.78,64.64,34.78"/>
<path class="st3" d="M66.09,39.23c-0.03,0.09-0.06,0.18-0.06,0.3c0,0.33,0.28,0.6,0.67,0.6c0.7,0,1.01-0.97,1.01-1.08
	c0-0.09-0.09-0.09-0.11-0.09c-0.1,0-0.11,0.04-0.13,0.12c-0.16,0.56-0.47,0.85-0.75,0.85c-0.14,0-0.18-0.09-0.18-0.25
	c0-0.16,0.05-0.3,0.11-0.45c0.07-0.19,0.15-0.38,0.22-0.56c0.06-0.17,0.32-0.81,0.34-0.89c0.02-0.07,0.04-0.15,0.04-0.22
	c0-0.33-0.28-0.6-0.67-0.6c-0.7,0-1.02,0.96-1.02,1.08c0,0.09,0.1,0.09,0.12,0.09c0.1,0,0.1-0.04,0.13-0.11
	c0.18-0.6,0.49-0.86,0.75-0.86c0.11,0,0.18,0.06,0.18,0.25c0,0.16-0.04,0.27-0.22,0.7L66.09,39.23 M67.53,35.66
	c0-0.11-0.08-0.27-0.28-0.27c-0.19,0-0.39,0.18-0.39,0.39c0,0.12,0.09,0.27,0.28,0.27C67.34,36.05,67.53,35.85,67.53,35.66z"/>
<path class="st3" d="M68.58,34.78c-0.05,0-0.13,0-0.13,0.08c0,0.03,0.02,0.06,0.06,0.1c0.6,0.56,1.28,1.5,1.28,3.32
	c0,1.47-0.46,2.58-1.22,3.27c-0.12,0.12-0.13,0.13-0.13,0.16c0,0.04,0.02,0.08,0.09,0.08c0.08,0,0.75-0.46,1.22-1.34
	c0.31-0.58,0.51-1.34,0.51-2.17C70.27,37.31,69.97,35.77,68.58,34.78"/>
<path class="st3" d="M77.93,58.32c0.12-0.29,0.12-0.31,0.22-0.58c0.08-0.2,0.13-0.34,0.13-0.53c0-0.45-0.32-0.81-0.81-0.81
	c-0.93,0-1.31,1.44-1.31,1.53c0,0.1,0.1,0.1,0.12,0.1c0.1,0,0.11-0.02,0.16-0.18c0.27-0.93,0.67-1.23,1-1.23
	c0.08,0,0.25,0,0.25,0.32c0,0.21-0.07,0.42-0.11,0.52c-0.08,0.26-0.53,1.41-0.69,1.84c-0.1,0.26-0.23,0.59-0.23,0.8
	c0,0.47,0.34,0.81,0.81,0.81c0.93,0,1.3-1.44,1.3-1.53c0-0.1-0.09-0.1-0.12-0.1c-0.1,0-0.1,0.03-0.15,0.18
	c-0.18,0.62-0.51,1.23-1.01,1.23c-0.17,0-0.24-0.1-0.24-0.33c0-0.25,0.06-0.39,0.29-0.99L77.93,58.32 M78.69,54.59
	c0-0.2-0.14-0.36-0.37-0.36c-0.27,0-0.54,0.26-0.54,0.53c0,0.19,0.14,0.36,0.38,0.36C78.39,55.11,78.69,54.89,78.69,54.59z"/>
<path class="st3" d="M88.8,59.47c0.14,0,0.33,0,0.33-0.2c0-0.2-0.19-0.2-0.34-0.2h-5.93c-0.15,0-0.34,0-0.34,0.2
	c0,0.2,0.19,0.2,0.33,0.2H88.8 M88.79,57.55c0.15,0,0.34,0,0.34-0.2c0-0.2-0.19-0.2-0.33-0.2h-5.95c-0.14,0-0.33,0-0.33,0.2
	c0,0.2,0.19,0.2,0.34,0.2H88.79z"/>
<path class="st3" d="M95.39,54.44c0-0.24,0-0.26-0.23-0.26c-0.62,0.64-1.49,0.64-1.81,0.64v0.31c0.2,0,0.78,0,1.3-0.26v5.15
	c0,0.36-0.03,0.48-0.92,0.48h-0.32v0.31c0.35-0.03,1.21-0.03,1.61-0.03c0.4,0,1.26,0,1.61,0.03v-0.31h-0.32
	c-0.89,0-0.92-0.11-0.92-0.48V54.44"/>
<path class="st3" d="M99.58,60.79c0-0.66-0.25-1.04-0.64-1.04c-0.33,0-0.53,0.25-0.53,0.53c0,0.27,0.2,0.53,0.53,0.53
	c0.12,0,0.25-0.04,0.35-0.13c0.03-0.02,0.04-0.03,0.05-0.03c0.01,0,0.02,0.01,0.02,0.15c0,0.73-0.35,1.33-0.68,1.66
	c-0.11,0.11-0.11,0.13-0.11,0.16c0,0.07,0.05,0.11,0.1,0.11C98.79,62.71,99.58,61.95,99.58,60.79"/>
<path class="st3" d="M103.87,60.27c0-0.29-0.24-0.53-0.53-0.53c-0.29,0-0.53,0.24-0.53,0.53c0,0.29,0.24,0.53,0.53,0.53
	C103.64,60.8,103.87,60.56,103.87,60.27"/>
<path class="st3" d="M108.37,60.27c0-0.29-0.24-0.53-0.53-0.53c-0.29,0-0.53,0.24-0.53,0.53c0,0.29,0.24,0.53,0.53,0.53
	C108.14,60.8,108.37,60.56,108.37,60.27"/>
<path class="st3" d="M112.77,60.27c0-0.29-0.24-0.53-0.53-0.53c-0.29,0-0.53,0.24-0.53,0.53c0,0.29,0.24,0.53,0.53,0.53
	C112.54,60.8,112.77,60.56,112.77,60.27"/>
<path class="st3" d="M117.18,60.79c0-0.66-0.25-1.04-0.64-1.04c-0.33,0-0.53,0.25-0.53,0.53c0,0.27,0.2,0.53,0.53,0.53
	c0.12,0,0.25-0.04,0.35-0.13c0.03-0.02,0.04-0.03,0.05-0.03c0.01,0,0.02,0.01,0.02,0.15c0,0.73-0.35,1.33-0.68,1.66
	c-0.11,0.11-0.11,0.13-0.11,0.16c0,0.07,0.05,0.11,0.1,0.11C116.39,62.71,117.18,61.95,117.18,60.79"/>
<path class="st3" d="M120.54,60.21c-0.03,0.15-0.09,0.38-0.09,0.43c0,0.18,0.14,0.27,0.29,0.27c0.12,0,0.3-0.08,0.37-0.28
	c0.01-0.02,0.13-0.49,0.19-0.74l0.22-0.89c0.06-0.22,0.12-0.44,0.17-0.67c0.04-0.17,0.12-0.46,0.13-0.5
	c0.15-0.31,0.68-1.21,1.62-1.21c0.45,0,0.54,0.37,0.54,0.7c0,0.25-0.07,0.53-0.15,0.83l-0.28,1.15l-0.2,0.75
	c-0.04,0.2-0.13,0.54-0.13,0.59c0,0.18,0.14,0.27,0.29,0.27c0.31,0,0.37-0.25,0.45-0.57c0.14-0.56,0.51-2.01,0.6-2.4
	c0.03-0.13,0.56-1.32,1.64-1.32c0.43,0,0.54,0.34,0.54,0.7c0,0.57-0.42,1.7-0.62,2.22c-0.09,0.24-0.13,0.35-0.13,0.55
	c0,0.47,0.35,0.81,0.81,0.81c0.93,0,1.3-1.45,1.3-1.53c0-0.1-0.09-0.1-0.12-0.1c-0.1,0-0.1,0.03-0.15,0.18
	c-0.15,0.53-0.47,1.23-1.01,1.23c-0.17,0-0.24-0.1-0.24-0.33c0-0.25,0.09-0.49,0.18-0.7c0.19-0.52,0.61-1.62,0.61-2.19
	c0-0.65-0.4-1.06-1.14-1.06c-0.75,0-1.25,0.44-1.62,0.96c-0.01-0.13-0.04-0.47-0.32-0.71c-0.25-0.21-0.57-0.26-0.81-0.26
	c-0.9,0-1.38,0.64-1.55,0.86c-0.05-0.57-0.47-0.86-0.91-0.86c-0.46,0-0.65,0.39-0.74,0.57c-0.18,0.35-0.31,0.93-0.31,0.96
	c0,0.1,0.1,0.1,0.12,0.1c0.1,0,0.11-0.01,0.17-0.23c0.17-0.7,0.37-1.18,0.72-1.18c0.16,0,0.31,0.08,0.31,0.46
	c0,0.21-0.03,0.32-0.16,0.83L120.54,60.21"/>
<polyline class="st1" points="120.57,18.02 130.38,18.02 130.38,64.78 0.5,64.78 0.5,18.02 56.17,18.02 "/>
<line class="st1" x1="110.84" y1="18.02" x2="115.84" y2="18.02"/>
<line class="st1" x1="70.88" y1="18.02" x2="106.16" y2="18.02"/>
<line class="st1" x1="60.55" y1="18.02" x2="65.86" y2="18.02"/>
<path class="st3" d="M53.16,5.79c0.13-0.81,0.22-1.65,0.22-2.49c0-0.29,0-1.4-0.34-2.12c-0.39-0.78-0.92-0.89-1.25-0.89
	c-0.34,0-0.69,0.28-0.69,0.42c0,0.07,0.05,0.07,0.18,0.08c0.43,0.04,0.85,0.25,1.12,1.05c0.21,0.62,0.24,1.38,0.24,1.81
	c0,1.5-0.35,3.23-0.41,3.46c-0.03,0.13-0.04,0.17-0.04,0.26c0,0.04,0,0.16,0.07,0.16c0.05,0,0.06-0.01,0.22-0.2
	c1.1-1.31,2.2-2.82,3.29-4.71c0.39-0.68,0.65-1.2,0.69-1.27c0.3,0.92,0.64,2.29,0.82,3.91c0.06,0.53,0.11,1.13,0.12,1.66
	c0,0.04,0.01,0.5,0.02,0.53c0,0.04,0.03,0.08,0.06,0.08c0.05,0,0.06-0.01,0.22-0.19c1.23-1.38,3.36-4.27,3.36-5.99
	c0-0.8-0.43-1.05-0.73-1.05c-0.27,0-0.42,0.61-0.42,0.75c0,0.14,0.05,0.15,0.12,0.16c0.14,0.02,0.6,0.09,0.6,0.74
	c0,1.13-2.42,4.19-2.49,4.19c-0.01,0-0.01-0.01-0.02-0.24c-0.11-2.14-0.68-4.41-1.09-5.5c-0.03-0.07-0.04-0.11-0.14-0.11
	c-0.19,0-0.62,0.25-0.62,0.43c0,0.04,0.04,0.13,0.06,0.18c-0.61,1.14-1.5,2.82-3.15,4.9H53.16"/>
<path class="st3" d="M121.06,3.86c0.06-0.22,0.06-0.24,0.15-0.35c0.49-0.65,0.93-0.79,1.19-0.79c0.36,0,0.63,0.3,0.63,0.93
	c0,0.59-0.33,1.73-0.51,2.11c-0.33,0.67-0.78,1.02-1.17,1.02c-0.34,0-0.67-0.27-0.67-1c0-0.19,0-0.38,0.16-1L121.06,3.86
	 M121.99,0.11c0-0.01,0-0.11-0.13-0.11c-0.23,0-0.95,0.08-1.21,0.1c-0.08,0.01-0.19,0.02-0.19,0.2c0,0.12,0.09,0.12,0.24,0.12
	c0.48,0,0.5,0.07,0.5,0.17c0,0.07-0.09,0.41-0.14,0.62l-0.81,3.24c-0.12,0.5-0.16,0.65-0.16,1c0,0.94,0.53,1.56,1.26,1.56
	c1.17,0,2.39-1.48,2.39-2.91c0-0.9-0.53-1.59-1.32-1.59c-0.46,0-0.86,0.29-1.16,0.6L121.99,0.11z"/>
<path class="st3" d="M71.15,6.34V3.85c0.27-0.35,0.74-0.64,1.29-0.64c1.21,0,1.21,1.2,1.21,1.9c0,0.47,0,1.01-0.26,1.4
	c-0.29,0.41-0.74,0.52-1.06,0.52C71.63,7.03,71.24,6.49,71.15,6.34 M71.09,3.34V0.43l-1.76,0.08v0.47c0.62,0,0.69,0,0.69,0.39v5.96
	h0.47l0.49-0.56c0.08,0.08,0.57,0.62,1.45,0.62c1.48,0,2.5-0.89,2.5-2.28c0-1.32-0.93-2.25-2.38-2.25
	C71.82,2.85,71.32,3.14,71.09,3.34z"/>
<path class="st3" d="M108.91,3.57c0.05-0.13,0.09-0.21,0.67-0.21V2.89c-0.23,0.02-0.53,0.03-0.77,0.03c-0.27,0-0.73-0.02-0.95-0.03
	v0.47c0.09,0,0.58,0.01,0.58,0.12c0,0.03-0.03,0.09-0.04,0.12l-1.04,2.54l-1.13-2.78h0.56V2.89c-0.32,0.01-0.83,0.03-1.13,0.03
	c-0.42,0-0.83-0.02-0.99-0.03v0.47h0.59c0.21,0.5,0.21,0.52,0.21,0.53c0,0.04-0.03,0.1-0.04,0.13l-0.79,1.91l-1.04-2.56h0.56V2.89
	c-0.41,0.02-0.81,0.03-1.22,0.03c-0.31,0-0.75-0.02-1.08-0.03v0.47h0.59l1.52,3.72c0.07,0.17,0.11,0.27,0.36,0.27
	c0.25,0,0.29-0.1,0.36-0.27l1.05-2.57l1.05,2.57c0.07,0.17,0.11,0.27,0.36,0.27s0.29-0.1,0.36-0.27L108.91,3.57"/>
</svg>
