<?xml version="1.0" encoding="utf-8"?>
<!-- Generator: Adobe Illustrator 26.0.2, SVG Export Plug-In . SVG Version: 6.00 Build 0)  -->
<svg version="1.1" id="Layer_1" xmlns="http://www.w3.org/2000/svg" xmlns:xlink="http://www.w3.org/1999/xlink" x="0px" y="0px"
	 viewBox="0 0 168.76 54.53" style="enable-background:new 0 0 168.76 54.53;" xml:space="preserve">
<style type="text/css">
	.st0{opacity:0.4;fill:#486AFB;stroke:#486AFB;stroke-miterlimit:10;}
	.st1{fill:none;stroke:#486AFB;stroke-miterlimit:10;}
	.st2{fill:#486AFB;}
	.st3{fill:#FD46FC;}
</style>
<circle class="st0" cx="11.5" cy="43.03" r="11"/>
<circle class="st1" cx="59" cy="42.5" r="11"/>
<circle class="st1" cx="107" cy="42.5" r="11"/>
<g>
	<g>
		<line class="st1" x1="72" y1="42.5" x2="90.48" y2="42.5"/>
		<g>
			<path class="st2" d="M93.5,42.5c-1.42,0.53-3.18,1.43-4.27,2.38l0.86-2.38l-0.86-2.38C90.32,41.07,92.08,41.97,93.5,42.5z"/>
		</g>
	</g>
</g>
<circle class="st0" cx="157.26" cy="42.86" r="11"/>
<path class="st3" d="M159.77,40.66l0.14-0.14c0.3-0.3,0.63-0.64,1.3-0.69c0.11-0.01,0.2-0.01,0.2-0.19c0-0.08-0.05-0.12-0.13-0.12
	c-0.26,0-0.55,0.03-0.81,0.03c-0.33,0-0.68-0.03-0.99-0.03c-0.06,0-0.19,0-0.19,0.19c0,0.11,0.1,0.12,0.15,0.12
	c0.07,0,0.36,0.02,0.36,0.23c0,0.17-0.23,0.43-0.27,0.48l-2.3,2.65l-1.09-2.95c-0.06-0.14-0.06-0.16-0.06-0.17
	c0-0.24,0.49-0.24,0.59-0.24c0.14,0,0.24,0,0.24-0.2c0-0.11-0.12-0.11-0.15-0.11c-0.28,0-0.97,0.03-1.25,0.03
	c-0.25,0-0.86-0.03-1.11-0.03c-0.06,0-0.19,0-0.19,0.2c0,0.11,0.1,0.11,0.23,0.11c0.6,0,0.64,0.09,0.73,0.34l1.22,3.27
	c0.01,0.03,0.04,0.14,0.04,0.17c0,0.03-0.4,1.63-0.45,1.81c-0.13,0.55-0.14,0.58-0.93,0.59c-0.19,0-0.27,0-0.27,0.2
	c0,0.11,0.12,0.11,0.14,0.11c0.28,0,0.97-0.03,1.25-0.03c0.28,0,0.99,0.03,1.27,0.03c0.07,0,0.19,0,0.19-0.2
	c0-0.11-0.09-0.11-0.28-0.11c-0.02,0-0.21,0-0.38-0.02c-0.21-0.02-0.27-0.04-0.27-0.16c0-0.07,0.09-0.42,0.14-0.62l0.35-1.4
	c0.05-0.19,0.06-0.22,0.14-0.31L159.77,40.66"/>
<circle class="st1" cx="157.26" cy="42.86" r="11"/>
<g>
	<g>
		<line class="st1" x1="122.26" y1="42.86" x2="140.74" y2="42.86"/>
		<g>
			<path class="st2" d="M143.76,42.86c-1.42,0.53-3.18,1.43-4.27,2.38l0.86-2.38l-0.86-2.38C140.58,41.44,142.34,42.34,143.76,42.86
				z"/>
		</g>
	</g>
</g>
<g>
	<g>
		<line class="st1" x1="99.45" y1="11.98" x2="102.89" y2="27.07"/>
		<g>
			<path class="st2" d="M103.56,30.01c-0.83-1.27-2.1-2.78-3.27-3.64l2.51,0.31l2.13-1.37C104.24,26.59,103.76,28.51,103.56,30.01z"
				/>
		</g>
	</g>
</g>
<g>
	<g>
		<line class="st1" x1="113.4" y1="12.06" x2="109.96" y2="27.14"/>
		<g>
			<path class="st2" d="M109.29,30.09c-0.2-1.5-0.68-3.42-1.37-4.7l2.13,1.37l2.51-0.31C111.39,27.3,110.12,28.82,109.29,30.09z"/>
		</g>
	</g>
</g>
<g>
	<g>
		<line class="st1" x1="149.57" y1="12.22" x2="153.01" y2="27.3"/>
		<g>
			<path class="st2" d="M153.69,30.24c-0.83-1.27-2.1-2.78-3.27-3.64l2.51,0.31l2.13-1.37C154.37,26.83,153.88,28.74,153.69,30.24z"
				/>
		</g>
	</g>
</g>
<g>
	<g>
		<line class="st1" x1="163.53" y1="12.29" x2="160.08" y2="27.38"/>
		<g>
			<path class="st2" d="M159.41,30.32c-0.2-1.5-0.68-3.42-1.37-4.7l2.13,1.37l2.51-0.31C161.51,27.53,160.24,29.05,159.41,30.32z"/>
		</g>
	</g>
</g>
<path class="st3" d="M11.99,42.29l1.67-2.2c0.11-0.14,0.12-0.15,0.47-0.18c0.24-0.03,0.3-0.03,0.58-0.03h0.29v-0.47
	c-0.42,0.03-0.9,0.03-1.33,0.03c-0.39,0-1.15,0-1.51-0.03v0.47c0.18,0,0.57,0,0.91,0.11c-0.01,0.02-0.06,0.08-0.08,0.11l-1.31,1.74
	l-1.42-1.96h0.82v-0.47c-0.41,0.03-1.35,0.03-1.8,0.03c-0.4,0-1.26,0-1.61-0.03v0.47h0.97l2.2,3.05l-2.01,2.63
	c-0.09,0.12-0.11,0.14-0.43,0.17c-0.2,0.02-0.41,0.03-0.6,0.03H7.52v0.47c0.42-0.03,0.9-0.03,1.33-0.03c0.39,0,1.15,0,1.51,0.03
	v-0.47c-0.18,0-0.57,0-0.91-0.11c0.01-0.02,0.06-0.08,0.08-0.11l1.64-2.18l1.73,2.39h-0.82v0.47c0.41-0.03,1.35-0.03,1.8-0.03
	c0.4,0,1.26,0,1.61,0.03v-0.47h-0.97L11.99,42.29"/>
<path class="st3" d="M163.99,6.89c0.06-0.22,0.06-0.24,0.15-0.35c0.49-0.65,0.93-0.79,1.19-0.79c0.36,0,0.63,0.3,0.63,0.93
	c0,0.59-0.33,1.73-0.51,2.11c-0.33,0.67-0.78,1.02-1.17,1.02c-0.34,0-0.67-0.27-0.67-1c0-0.19,0-0.38,0.16-1L163.99,6.89
	 M164.92,3.14c0-0.01,0-0.11-0.13-0.11c-0.23,0-0.95,0.08-1.21,0.1c-0.08,0.01-0.19,0.02-0.19,0.2c0,0.12,0.09,0.12,0.24,0.12
	c0.48,0,0.5,0.07,0.5,0.17c0,0.07-0.09,0.41-0.14,0.62l-0.81,3.24c-0.12,0.5-0.16,0.65-0.16,1c0,0.94,0.53,1.56,1.26,1.56
	c1.17,0,2.39-1.48,2.39-2.91c0-0.9-0.53-1.59-1.32-1.59c-0.46,0-0.86,0.29-1.16,0.6L164.92,3.14z"/>
<path class="st3" d="M151.84,6.6c0.05-0.13,0.09-0.21,0.68-0.21V5.92c-0.23,0.02-0.53,0.03-0.77,0.03c-0.27,0-0.73-0.02-0.95-0.03
	v0.47c0.09,0,0.58,0.01,0.58,0.12c0,0.03-0.03,0.09-0.04,0.12l-1.04,2.54l-1.13-2.78h0.56V5.92c-0.32,0.01-0.83,0.03-1.13,0.03
	c-0.42,0-0.83-0.02-0.99-0.03v0.47h0.59c0.21,0.5,0.21,0.52,0.21,0.53c0,0.04-0.03,0.1-0.04,0.13l-0.79,1.91l-1.04-2.56h0.56V5.92
	c-0.41,0.02-0.81,0.03-1.22,0.03c-0.31,0-0.75-0.02-1.08-0.03v0.47h0.59l1.52,3.72c0.07,0.17,0.11,0.27,0.36,0.27
	s0.29-0.1,0.36-0.27l1.05-2.57l1.05,2.57c0.07,0.17,0.11,0.27,0.36,0.27c0.25,0,0.29-0.1,0.36-0.27L151.84,6.6"/>
<path class="st3" d="M57.9,42.94c0.08-0.11,0.1-0.13,0.1-0.22c0-0.21-0.14-0.21-0.32-0.21h-3.65l-0.12,1.74h0.47
	c0.06-1.02,0.37-1.38,1.39-1.38h0.84l-2.77,3.62c-0.09,0.11-0.09,0.13-0.09,0.22c0,0.22,0.13,0.22,0.32,0.22h3.78l0.18-2.01h-0.47
	c-0.09,1-0.25,1.61-1.56,1.61h-0.85L57.9,42.94"/>
<polyline class="st3" points="60.47,44.48 60.47,44.13 59.74,44.13 59.74,37.79 60.47,37.79 60.47,37.45 59.39,37.45 59.39,44.48 
	60.47,44.48 "/>
<path class="st3" d="M63.09,38.25c0-0.19-0.01-0.2-0.21-0.2c-0.45,0.44-1.09,0.45-1.38,0.45v0.25c0.17,0,0.63,0,1.02-0.2v3.59
	c0,0.23,0,0.32-0.7,0.32h-0.27v0.25c0.13-0.01,0.99-0.03,1.25-0.03c0.22,0,1.1,0.02,1.26,0.03v-0.25h-0.27c-0.7,0-0.7-0.09-0.7-0.32
	V38.25"/>
<polyline class="st3" points="65.94,37.45 64.86,37.45 64.86,37.79 65.6,37.79 65.6,44.13 64.86,44.13 64.86,44.48 65.94,44.48 
	65.94,37.45 "/>
<path class="st3" d="M105.93,43.25c0.08-0.11,0.1-0.13,0.1-0.22c0-0.21-0.14-0.21-0.32-0.21h-3.65l-0.12,1.74h0.47
	c0.06-1.02,0.37-1.38,1.39-1.38h0.84l-2.77,3.62c-0.09,0.11-0.09,0.13-0.09,0.22c0,0.22,0.13,0.22,0.32,0.22h3.78l0.18-2.01h-0.47
	c-0.09,1-0.25,1.61-1.56,1.61h-0.85L105.93,43.25"/>
<polyline class="st3" points="108.51,44.79 108.51,44.45 107.77,44.45 107.77,38.1 108.51,38.1 108.51,37.76 107.42,37.76 
	107.42,44.79 108.51,44.79 "/>
<path class="st3" d="M112.32,41.75h-0.24c-0.02,0.15-0.09,0.57-0.18,0.64c-0.06,0.04-0.6,0.04-0.7,0.04h-1.29
	c0.74-0.65,0.98-0.85,1.41-1.18c0.52-0.42,1-0.85,1-1.52c0-0.85-0.75-1.37-1.65-1.37c-0.87,0-1.46,0.61-1.46,1.26
	c0,0.36,0.3,0.39,0.37,0.39c0.17,0,0.37-0.12,0.37-0.37c0-0.13-0.05-0.37-0.41-0.37c0.22-0.5,0.7-0.65,1.03-0.65
	c0.7,0,1.07,0.55,1.07,1.12c0,0.61-0.44,1.1-0.66,1.35l-1.7,1.67c-0.07,0.06-0.07,0.08-0.07,0.27h2.9L112.32,41.75"/>
<polyline class="st3" points="113.98,37.76 112.89,37.76 112.89,38.1 113.63,38.1 113.63,44.45 112.89,44.45 112.89,44.79 
	113.98,44.79 113.98,37.76 "/>
<circle class="st1" cx="11.5" cy="43.03" r="11"/>
<g>
	<g>
		<line class="st1" x1="24.5" y1="43.03" x2="42.98" y2="43.03"/>
		<g>
			<path class="st2" d="M46,43.03c-1.42,0.53-3.18,1.43-4.27,2.38l0.86-2.38l-0.86-2.38C42.82,41.61,44.58,42.51,46,43.03z"/>
		</g>
	</g>
</g>
<g>
	<g>
		<line class="st1" x1="51.53" y1="11.69" x2="54.98" y2="26.78"/>
		<g>
			<path class="st2" d="M55.65,29.72c-0.83-1.27-2.1-2.78-3.27-3.64l2.51,0.31l2.13-1.37C56.33,26.3,55.85,28.22,55.65,29.72z"/>
		</g>
	</g>
</g>
<g>
	<g>
		<line class="st1" x1="65.49" y1="11.77" x2="62.05" y2="26.85"/>
		<g>
			<path class="st2" d="M61.38,29.8c-0.2-1.5-0.68-3.42-1.37-4.7l2.13,1.37l2.51-0.31C63.47,27.01,62.2,28.53,61.38,29.8z"/>
		</g>
	</g>
</g>
<path class="st3" d="M43.12,8.19c0.13-0.81,0.22-1.65,0.22-2.49c0-0.29,0-1.4-0.34-2.12c-0.39-0.78-0.92-0.89-1.25-0.89
	c-0.34,0-0.69,0.28-0.69,0.42c0,0.07,0.05,0.07,0.18,0.08c0.43,0.04,0.85,0.25,1.12,1.05c0.21,0.62,0.24,1.38,0.24,1.81
	c0,1.5-0.35,3.23-0.41,3.46c-0.03,0.13-0.04,0.17-0.04,0.26c0,0.04,0,0.16,0.07,0.16c0.05,0,0.06-0.01,0.22-0.2
	c1.1-1.31,2.2-2.82,3.29-4.71c0.39-0.68,0.65-1.2,0.69-1.27c0.3,0.92,0.64,2.29,0.83,3.91c0.06,0.53,0.11,1.13,0.12,1.66
	c0,0.04,0.01,0.5,0.02,0.53c0,0.04,0.03,0.08,0.06,0.08c0.05,0,0.06-0.01,0.22-0.19c1.23-1.38,3.36-4.27,3.36-5.99
	c0-0.8-0.43-1.05-0.73-1.05c-0.27,0-0.42,0.61-0.42,0.75c0,0.14,0.05,0.15,0.12,0.16c0.14,0.02,0.6,0.09,0.6,0.74
	c0,1.13-2.42,4.19-2.49,4.19c-0.01,0-0.01-0.01-0.02-0.24c-0.11-2.14-0.68-4.41-1.09-5.5c-0.03-0.07-0.04-0.11-0.14-0.11
	c-0.19,0-0.62,0.25-0.62,0.43c0,0.04,0.04,0.13,0.06,0.18c-0.61,1.14-1.5,2.82-3.15,4.9H43.12"/>
<polyline class="st3" points="53.46,7.03 53.46,6.68 52.72,6.68 52.72,0.34 53.46,0.34 53.46,0 52.38,0 52.38,7.03 53.46,7.03 "/>
<path class="st3" d="M56.08,0.8c0-0.19-0.01-0.2-0.21-0.2c-0.45,0.44-1.09,0.45-1.38,0.45v0.25c0.17,0,0.63,0,1.02-0.2V4.7
	c0,0.23,0,0.32-0.7,0.32h-0.27v0.25c0.13-0.01,0.99-0.03,1.25-0.03c0.22,0,1.1,0.02,1.26,0.03V5.02h-0.27c-0.7,0-0.7-0.09-0.7-0.32
	V0.8"/>
<polyline class="st3" points="58.93,0 57.85,0 57.85,0.34 58.59,0.34 58.59,6.68 57.85,6.68 57.85,7.03 58.93,7.03 58.93,0 "/>
<path class="st3" d="M91.03,8.5c0.13-0.81,0.22-1.65,0.22-2.49c0-0.29,0-1.4-0.34-2.12C90.53,3.11,89.99,3,89.66,3
	c-0.34,0-0.69,0.28-0.69,0.42c0,0.07,0.05,0.07,0.18,0.08c0.43,0.04,0.85,0.25,1.12,1.05c0.21,0.62,0.24,1.38,0.24,1.81
	c0,1.5-0.35,3.23-0.41,3.46c-0.03,0.13-0.04,0.17-0.04,0.26c0,0.04,0,0.16,0.07,0.16c0.05,0,0.06-0.01,0.22-0.2
	c1.1-1.31,2.2-2.82,3.29-4.71c0.39-0.68,0.65-1.2,0.69-1.27c0.3,0.92,0.64,2.29,0.83,3.91c0.06,0.53,0.11,1.13,0.12,1.66
	c0,0.04,0.01,0.5,0.02,0.53c0,0.04,0.03,0.08,0.06,0.08c0.05,0,0.06-0.01,0.22-0.19c1.23-1.38,3.36-4.27,3.36-5.99
	C98.93,3.26,98.5,3,98.2,3c-0.27,0-0.42,0.61-0.42,0.75c0,0.14,0.05,0.15,0.12,0.16c0.14,0.02,0.6,0.09,0.6,0.74
	c0,1.13-2.42,4.19-2.49,4.19c-0.01,0-0.01-0.01-0.02-0.24c-0.11-2.14-0.68-4.41-1.09-5.5C94.86,3.04,94.85,3,94.75,3
	c-0.19,0-0.62,0.25-0.62,0.43c0,0.04,0.04,0.13,0.06,0.18c-0.61,1.14-1.5,2.82-3.15,4.9H91.03"/>
<polyline class="st3" points="101.38,7.34 101.38,7 100.64,7 100.64,0.66 101.38,0.66 101.38,0.31 100.3,0.31 100.3,7.34 
	101.38,7.34 "/>
<path class="st3" d="M105.19,4.3h-0.24c-0.02,0.15-0.09,0.57-0.18,0.64c-0.06,0.04-0.6,0.04-0.7,0.04h-1.29
	c0.74-0.65,0.98-0.85,1.41-1.18c0.52-0.42,1-0.85,1-1.52c0-0.85-0.75-1.37-1.65-1.37c-0.87,0-1.46,0.61-1.46,1.26
	c0,0.36,0.3,0.39,0.37,0.39c0.17,0,0.37-0.12,0.37-0.37c0-0.13-0.05-0.37-0.41-0.37c0.22-0.5,0.7-0.65,1.03-0.65
	c0.7,0,1.07,0.55,1.07,1.12c0,0.61-0.44,1.1-0.66,1.35l-1.7,1.67c-0.07,0.06-0.07,0.08-0.07,0.27h2.9L105.19,4.3"/>
<polyline class="st3" points="106.85,0.31 105.77,0.31 105.77,0.66 106.5,0.66 106.5,7 105.77,7 105.77,7.34 106.85,7.34 
	106.85,0.31 "/>
<path class="st3" d="M65.94,8.84V6.35c0.27-0.35,0.74-0.64,1.29-0.64c1.21,0,1.21,1.2,1.21,1.9c0,0.47,0,1.01-0.26,1.4
	c-0.29,0.41-0.74,0.52-1.06,0.52C66.43,9.52,66.04,8.99,65.94,8.84 M65.88,5.84V2.93l-1.76,0.08v0.47c0.62,0,0.69,0,0.69,0.39v5.96
	h0.47l0.49-0.56c0.08,0.08,0.57,0.62,1.45,0.62c1.48,0,2.5-0.89,2.5-2.28c0-1.32-0.93-2.25-2.38-2.25
	C66.61,5.35,66.12,5.64,65.88,5.84z"/>
<polyline class="st3" points="72.09,7.38 72.09,7.04 71.35,7.04 71.35,0.69 72.09,0.69 72.09,0.35 71.01,0.35 71.01,7.38 
	72.09,7.38 "/>
<path class="st3" d="M74.71,1.15c0-0.19-0.01-0.2-0.21-0.2C74.05,1.4,73.41,1.4,73.12,1.4v0.25c0.17,0,0.63,0,1.02-0.2v3.59
	c0,0.23,0,0.32-0.7,0.32h-0.27v0.25c0.13-0.01,0.99-0.03,1.25-0.03c0.22,0,1.1,0.02,1.26,0.03V5.37h-0.27c-0.7,0-0.7-0.09-0.7-0.32
	V1.15"/>
<polyline class="st3" points="77.66,0.35 76.58,0.35 76.58,0.69 77.32,0.69 77.32,7.04 76.58,7.04 76.58,7.38 77.66,7.38 
	77.66,0.35 "/>
<path class="st3" d="M113.5,9.31V6.81c0.27-0.35,0.74-0.64,1.29-0.64c1.21,0,1.21,1.2,1.21,1.9c0,0.47,0,1.01-0.26,1.4
	c-0.29,0.41-0.74,0.52-1.06,0.52C113.99,9.99,113.6,9.46,113.5,9.31 M113.44,6.31V3.4l-1.76,0.08v0.47c0.62,0,0.69,0,0.69,0.39v5.96
	h0.47l0.49-0.56c0.08,0.08,0.57,0.62,1.45,0.62c1.48,0,2.5-0.89,2.5-2.28c0-1.32-0.93-2.25-2.38-2.25
	C114.18,5.82,113.68,6.11,113.44,6.31z"/>
<polyline class="st3" points="119.76,7.85 119.76,7.5 119.02,7.5 119.02,1.16 119.76,1.16 119.76,0.82 118.67,0.82 118.67,7.85 
	119.76,7.85 "/>
<path class="st3" d="M123.57,4.81h-0.24c-0.02,0.15-0.09,0.57-0.18,0.64c-0.06,0.04-0.6,0.04-0.7,0.04h-1.29
	c0.74-0.65,0.98-0.85,1.41-1.18c0.52-0.42,1-0.85,1-1.52c0-0.85-0.75-1.37-1.65-1.37c-0.87,0-1.46,0.61-1.46,1.26
	c0,0.36,0.3,0.39,0.37,0.39c0.17,0,0.37-0.12,0.37-0.37c0-0.13-0.05-0.37-0.41-0.37c0.22-0.5,0.7-0.65,1.03-0.65
	c0.7,0,1.07,0.55,1.07,1.12c0,0.61-0.44,1.1-0.66,1.35l-1.7,1.67c-0.07,0.06-0.07,0.08-0.07,0.27h2.9L123.57,4.81"/>
<polyline class="st3" points="125.22,0.82 124.14,0.82 124.14,1.16 124.88,1.16 124.88,7.5 124.14,7.5 124.14,7.85 125.22,7.85 
	125.22,0.82 "/>
</svg>
