<?xml version="1.0" encoding="utf-8"?>
<!-- Generator: Adobe Illustrator 26.0.2, SVG Export Plug-In . SVG Version: 6.00 Build 0)  -->
<svg version="1.1" id="Layer_1" xmlns="http://www.w3.org/2000/svg" xmlns:xlink="http://www.w3.org/1999/xlink" x="0px" y="0px"
	 viewBox="0 0 98.74 64.34" style="enable-background:new 0 0 98.74 64.34;" xml:space="preserve">
<style type="text/css">
	.st0{opacity:0.2;fill:#486AFB;stroke:#486AFB;stroke-miterlimit:10;}
	.st1{fill:none;stroke:#486AFB;stroke-miterlimit:10;}
	.st2{fill:#486AFB;}
	.st3{fill:#FD46FC;}
</style>
<g>
	<circle class="st0" cx="87.24" cy="52.84" r="11"/>
	<circle class="st1" cx="87.24" cy="52.84" r="11"/>
</g>
<circle class="st0" cx="49.24" cy="52.84" r="11"/>
<g>
	<circle class="st0" cx="11.5" cy="52.71" r="11"/>
	<circle class="st1" cx="11.5" cy="52.71" r="11"/>
</g>
<g>
	<g>
		<line class="st1" x1="30" y1="14.71" x2="17.01" y2="37.1"/>
		<g>
			<path class="st2" d="M15.5,39.71c0.26-1.49,0.36-3.47,0.09-4.89l1.63,1.94l2.49,0.45C18.33,37.67,16.67,38.75,15.5,39.71z"/>
		</g>
	</g>
</g>
<path class="st3" d="M29.54,4.53c0.05-0.21,0.15-0.59,0.15-0.63c0-0.17-0.12-0.27-0.29-0.27c-0.03,0-0.31,0.01-0.4,0.36l-1.43,5.75
	c-0.03,0.12-0.03,0.14-0.03,0.16c0,0.15,0.11,0.27,0.28,0.27c0.21,0,0.33-0.18,0.35-0.21c0.04-0.09,0.17-0.61,0.55-2.14
	c0.32,0.27,0.76,0.31,0.96,0.31c0.7,0,1.08-0.45,1.32-0.72c0.09,0.45,0.46,0.72,0.89,0.72c0.35,0,0.58-0.23,0.74-0.55
	c0.17-0.36,0.3-0.96,0.3-0.98c0-0.1-0.09-0.1-0.12-0.1c-0.1,0-0.11,0.04-0.14,0.18c-0.17,0.65-0.35,1.23-0.75,1.23
	c-0.27,0-0.3-0.26-0.3-0.46c0-0.22,0.12-0.69,0.2-1.03l0.28-1.07c0.03-0.15,0.13-0.53,0.17-0.68c0.05-0.23,0.15-0.6,0.15-0.66
	c0-0.18-0.14-0.27-0.29-0.27c-0.05,0-0.31,0.01-0.39,0.35l-0.47,1.86c-0.12,0.5-0.23,0.91-0.26,1.01C31,7.01,30.53,7.91,29.72,7.91
	c-0.5,0-0.73-0.33-0.73-0.86c0-0.29,0.07-0.57,0.14-0.84L29.54,4.53"/>
<g>
	<path class="st3" d="M66.16,8.76c-0.49,0-0.88-0.36-0.88-1.07c0-0.3,0.12-1.11,0.47-1.7c0.42-0.68,1.01-0.82,1.35-0.82
		c0.83,0,0.91,0.65,0.91,0.96c0,0.47-0.2,1.28-0.54,1.79C67.08,8.5,66.55,8.76,66.16,8.76 M69.43,5.16c0.13,0,0.49,0,0.49-0.34
		c0-0.24-0.21-0.24-0.39-0.24h-2.27c-1.5,0-2.6,1.64-2.6,2.82c0,0.88,0.59,1.57,1.49,1.57c1.17,0,2.49-1.2,2.49-2.73
		c0-0.17,0-0.65-0.31-1.08H69.43z"/>
	<path class="st3" d="M73.83,3.39h-0.24c-0.02,0.15-0.09,0.57-0.18,0.64c-0.06,0.04-0.6,0.04-0.7,0.04h-1.29
		c0.74-0.65,0.98-0.85,1.41-1.18c0.52-0.42,1-0.85,1-1.52c0-0.85-0.75-1.37-1.65-1.37c-0.87,0-1.46,0.61-1.46,1.26
		c0,0.36,0.3,0.39,0.37,0.39c0.17,0,0.37-0.12,0.37-0.37c0-0.13-0.05-0.37-0.41-0.37c0.22-0.5,0.7-0.65,1.03-0.65
		c0.7,0,1.07,0.55,1.07,1.12c0,0.61-0.44,1.1-0.66,1.35l-1.7,1.67c-0.07,0.06-0.07,0.08-0.07,0.27h2.9L73.83,3.39"/>
</g>
<path class="st3" d="M11.03,52.14l-0.83-1.98c-0.03-0.08-0.05-0.12-0.05-0.13c0-0.06,0.17-0.25,0.59-0.29
	c0.1-0.01,0.2-0.02,0.2-0.19c0-0.12-0.12-0.12-0.15-0.12c-0.41,0-0.83,0.03-1.25,0.03c-0.25,0-0.86-0.03-1.11-0.03
	c-0.06,0-0.18,0-0.18,0.2c0,0.11,0.1,0.11,0.23,0.11c0.6,0,0.66,0.1,0.75,0.32l1.17,2.77l-2.1,2.25L8.16,55.2
	c-0.49,0.53-0.95,0.69-1.46,0.72c-0.13,0.01-0.22,0.01-0.22,0.2c0,0.01,0,0.11,0.13,0.11c0.3,0,0.63-0.03,0.93-0.03
	c0.37,0,0.75,0.03,1.11,0.03c0.06,0,0.18,0,0.18-0.2c0-0.1-0.1-0.11-0.12-0.11c-0.09-0.01-0.4-0.03-0.4-0.31
	c0-0.16,0.15-0.32,0.27-0.45l1.01-1.07l0.89-0.97l1,2.38c0.04,0.11,0.05,0.12,0.05,0.14c0,0.08-0.19,0.25-0.58,0.29
	c-0.11,0.01-0.2,0.02-0.2,0.19c0,0.12,0.11,0.12,0.15,0.12c0.28,0,0.97-0.03,1.25-0.03c0.25,0,0.85,0.03,1.1,0.03
	c0.07,0,0.19,0,0.19-0.19c0-0.12-0.1-0.12-0.18-0.12c-0.67-0.01-0.69-0.04-0.85-0.44c-0.39-0.92-1.05-2.47-1.28-3.07
	c0.68-0.7,1.72-1.88,2.04-2.16c0.29-0.24,0.67-0.48,1.26-0.51c0.13-0.01,0.22-0.01,0.22-0.2c0-0.01,0-0.11-0.13-0.11
	c-0.3,0-0.63,0.03-0.93,0.03c-0.37,0-0.75-0.03-1.1-0.03c-0.06,0-0.19,0-0.19,0.2c0,0.07,0.05,0.1,0.12,0.11
	c0.09,0.01,0.4,0.03,0.4,0.31c0,0.14-0.11,0.27-0.19,0.36L11.03,52.14"/>
<path class="st3" d="M15.77,54.55c0-0.19-0.01-0.2-0.21-0.2c-0.45,0.44-1.09,0.45-1.38,0.45v0.25c0.17,0,0.63,0,1.02-0.2v3.59
	c0,0.23,0,0.32-0.7,0.32h-0.27v0.25c0.13-0.01,0.99-0.03,1.25-0.03c0.22,0,1.1,0.02,1.26,0.03v-0.25h-0.27c-0.7,0-0.7-0.09-0.7-0.32
	V54.55"/>
<path class="st3" d="M48.83,52.14L48,50.16c-0.03-0.08-0.05-0.12-0.05-0.13c0-0.06,0.17-0.25,0.59-0.29c0.1-0.01,0.2-0.02,0.2-0.19
	c0-0.12-0.12-0.12-0.15-0.12c-0.41,0-0.83,0.03-1.25,0.03c-0.25,0-0.86-0.03-1.11-0.03c-0.06,0-0.18,0-0.18,0.2
	c0,0.11,0.1,0.11,0.23,0.11c0.6,0,0.66,0.1,0.75,0.32l1.17,2.77l-2.1,2.25l-0.13,0.11c-0.49,0.53-0.95,0.69-1.46,0.72
	c-0.13,0.01-0.22,0.01-0.22,0.2c0,0.01,0,0.11,0.13,0.11c0.3,0,0.63-0.03,0.93-0.03c0.37,0,0.75,0.03,1.11,0.03
	c0.06,0,0.18,0,0.18-0.2c0-0.1-0.1-0.11-0.12-0.11c-0.09-0.01-0.4-0.03-0.4-0.31c0-0.16,0.15-0.32,0.27-0.45l1.01-1.07l0.89-0.97
	l1,2.38c0.04,0.11,0.05,0.12,0.05,0.14c0,0.08-0.19,0.25-0.58,0.29c-0.11,0.01-0.2,0.02-0.2,0.19c0,0.12,0.11,0.12,0.15,0.12
	c0.28,0,0.98-0.03,1.25-0.03c0.25,0,0.85,0.03,1.1,0.03c0.07,0,0.19,0,0.19-0.19c0-0.12-0.1-0.12-0.18-0.12
	c-0.67-0.01-0.69-0.04-0.85-0.44c-0.39-0.92-1.05-2.47-1.28-3.07c0.67-0.7,1.72-1.88,2.04-2.16c0.29-0.24,0.67-0.48,1.26-0.51
	c0.13-0.01,0.22-0.01,0.22-0.2c0-0.01,0-0.11-0.13-0.11c-0.3,0-0.63,0.03-0.93,0.03c-0.37,0-0.75-0.03-1.1-0.03
	c-0.06,0-0.19,0-0.19,0.2c0,0.07,0.05,0.1,0.12,0.11c0.09,0.01,0.4,0.03,0.4,0.31c0,0.14-0.11,0.27-0.19,0.36L48.83,52.14"/>
<path class="st3" d="M55.77,56.74h-0.24c-0.02,0.15-0.09,0.57-0.18,0.64c-0.06,0.04-0.6,0.04-0.7,0.04h-1.29
	c0.74-0.65,0.98-0.85,1.41-1.18c0.52-0.42,1-0.85,1-1.52c0-0.85-0.75-1.37-1.65-1.37c-0.87,0-1.46,0.61-1.46,1.26
	c0,0.36,0.3,0.39,0.37,0.39c0.17,0,0.37-0.12,0.37-0.37c0-0.13-0.05-0.37-0.41-0.37c0.22-0.5,0.7-0.65,1.03-0.65
	c0.7,0,1.07,0.55,1.07,1.12c0,0.61-0.44,1.1-0.66,1.35l-1.7,1.67c-0.07,0.06-0.07,0.08-0.07,0.27h2.9L55.77,56.74"/>
<path class="st3" d="M86.7,51.68l-0.83-1.98c-0.03-0.08-0.05-0.12-0.05-0.13c0-0.06,0.17-0.25,0.59-0.29c0.1-0.01,0.2-0.02,0.2-0.19
	c0-0.12-0.12-0.12-0.15-0.12c-0.41,0-0.83,0.03-1.25,0.03c-0.25,0-0.86-0.03-1.11-0.03c-0.06,0-0.18,0-0.18,0.2
	c0,0.11,0.1,0.11,0.23,0.11c0.6,0,0.66,0.1,0.75,0.32l1.17,2.77l-2.1,2.25l-0.13,0.11c-0.49,0.53-0.95,0.69-1.46,0.72
	c-0.13,0.01-0.22,0.01-0.22,0.2c0,0.01,0,0.11,0.13,0.11c0.3,0,0.63-0.03,0.93-0.03c0.37,0,0.75,0.03,1.11,0.03
	c0.06,0,0.18,0,0.18-0.2c0-0.1-0.1-0.11-0.12-0.11c-0.09-0.01-0.4-0.03-0.4-0.31c0-0.16,0.15-0.32,0.27-0.45l1.01-1.07l0.89-0.97
	l1,2.38c0.04,0.11,0.05,0.12,0.05,0.14c0,0.08-0.19,0.25-0.58,0.29c-0.11,0.01-0.2,0.02-0.2,0.19c0,0.12,0.11,0.12,0.15,0.12
	c0.28,0,0.97-0.03,1.25-0.03c0.25,0,0.85,0.03,1.1,0.03c0.07,0,0.19,0,0.19-0.19c0-0.12-0.1-0.12-0.18-0.12
	c-0.67-0.01-0.69-0.04-0.85-0.44c-0.39-0.92-1.05-2.47-1.28-3.07c0.68-0.7,1.72-1.88,2.04-2.16c0.29-0.24,0.67-0.48,1.26-0.51
	c0.13-0.01,0.22-0.01,0.22-0.2c0-0.01,0-0.11-0.13-0.11c-0.3,0-0.63,0.03-0.93,0.03c-0.37,0-0.75-0.03-1.1-0.03
	c-0.06,0-0.19,0-0.19,0.2c0,0.07,0.05,0.1,0.12,0.11c0.09,0.01,0.4,0.03,0.4,0.31c0,0.14-0.11,0.27-0.19,0.36L86.7,51.68"/>
<path class="st3" d="M92,55.21c0.55,0,0.94,0.38,0.94,1.13c0,0.87-0.51,1.13-0.91,1.13c-0.28,0-0.9-0.08-1.2-0.49
	c0.33-0.01,0.41-0.25,0.41-0.39c0-0.22-0.17-0.39-0.39-0.39c-0.2,0-0.39,0.12-0.39,0.41c0,0.66,0.73,1.09,1.58,1.09
	c0.98,0,1.65-0.65,1.65-1.36c0-0.55-0.45-1.1-1.22-1.26c0.74-0.27,1-0.79,1-1.22c0-0.55-0.64-0.97-1.42-0.97
	c-0.78,0-1.38,0.38-1.38,0.94c0,0.24,0.15,0.37,0.37,0.37c0.22,0,0.36-0.16,0.36-0.36c0-0.2-0.14-0.35-0.36-0.37
	c0.25-0.31,0.73-0.39,0.99-0.39c0.32,0,0.76,0.15,0.76,0.77c0,0.3-0.1,0.62-0.28,0.84c-0.23,0.27-0.43,0.28-0.78,0.3
	c-0.18,0.01-0.19,0.01-0.23,0.02c-0.01,0-0.07,0.01-0.07,0.09c0,0.1,0.06,0.1,0.18,0.1H92"/>
<circle class="st1" cx="49.24" cy="52.84" r="11"/>
<g>
	<g>
		<line class="st1" x1="29.5" y1="14.71" x2="42.9" y2="36.15"/>
		<g>
			<path class="st2" d="M44.5,38.71c-1.2-0.92-2.9-1.94-4.28-2.36l2.47-0.53l1.56-1.99C44.02,35.26,44.19,37.23,44.5,38.71z"/>
		</g>
	</g>
</g>
<g>
	<g>
		<line class="st1" x1="29.5" y1="14.71" x2="75.59" y2="36.79"/>
		<g>
			<path class="st2" d="M78.31,38.1c-1.51-0.14-3.49-0.09-4.88,0.3l1.8-1.77l0.25-2.52C76.06,35.44,77.26,37.01,78.31,38.1z"/>
		</g>
	</g>
</g>
<g>
	<g>
		<line class="st1" x1="68.37" y1="14.81" x2="80.92" y2="35.14"/>
		<g>
			<path class="st2" d="M82.5,37.71c-1.19-0.93-2.88-1.96-4.27-2.39l2.48-0.52l1.57-1.98C82.04,34.25,82.2,36.23,82.5,37.71z"/>
		</g>
	</g>
</g>
<g>
	<g>
		<line class="st1" x1="68.87" y1="14.81" x2="55.47" y2="36.25"/>
		<g>
			<path class="st2" d="M53.87,38.81c0.31-1.48,0.48-3.45,0.25-4.88l1.56,1.99l2.47,0.53C56.77,36.87,55.07,37.89,53.87,38.81z"/>
		</g>
	</g>
</g>
<g>
	<g>
		<line class="st1" x1="68.87" y1="14.81" x2="22.19" y2="38.35"/>
		<g>
			<path class="st2" d="M19.5,39.71c1.03-1.11,2.2-2.71,2.75-4.05l0.3,2.51l1.84,1.74C22.98,39.55,21,39.54,19.5,39.71z"/>
		</g>
	</g>
</g>
</svg>
