<svg id="Layer_1" data-name="Layer 1" xmlns="http://www.w3.org/2000/svg" viewBox="0 0 161.92 40.27"><defs><style>.cls-1{fill:#486afb;}</style></defs><path class="cls-1" d="M154.13,18.9c.45.12,1,.26,1.18.76a15.84,15.84,0,0,1,.27,2.07l.28,2.07c0,.35.09.69.13,1a4.2,4.2,0,0,0,.08.47c0,.15.14.31.08.46l.16-.28a3.23,3.23,0,0,1-.42.06l-.61.1c-.42.08-.89.09-1.17.45a.62.62,0,0,0,.12,1c.54.29,1.15,0,1.69-.15s1.11-.24,1.39-.71a1.11,1.11,0,0,0,.09-.72c0-.28-.05-.57-.09-.85-.09-.58-.21-1.16-.31-1.73l-.32-1.74a15.82,15.82,0,0,0-.31-1.67c-.28-.93-1.16-1.2-2-1.39a.41.41,0,0,0-.22.78Z"/><path class="cls-1" d="M3.93,17.89a2.53,2.53,0,0,0-1.76,1.37,4.66,4.66,0,0,0,.09,2.81,25.11,25.11,0,0,1,.38,3.34,15.14,15.14,0,0,1,0,1.65,12.89,12.89,0,0,1-.09,1.76.78.78,0,0,0,.76,1,19,19,0,0,0,2.92,0,.64.64,0,0,0,.17-1.17,5.41,5.41,0,0,0-3.06-.37l.8.79c0-.48,0-1,0-1.45s-.07-1-.11-1.44a27,27,0,0,0-.37-2.83c-.18-.93-.46-1.82-.69-2.74a1.44,1.44,0,0,1,1.11-2,.36.36,0,0,0-.17-.7Z"/><path class="cls-1" d="M3.11,24.25q14.91-.32,29.82-.36c10-.05,20-.28,29.91-.44,19.89-.32,39.78-.33,59.66-.67,11.22-.19,22.44-.44,33.66-.43.73,0,.77-1.16,0-1.14-10,.25-20,.25-30,.35s-20,.21-30,.37c-19.87.31-39.74.46-59.62.67-11.15.11-22.3.37-33.46.4-.81,0-.85,1.27,0,1.25Z"/><path class="cls-1" d="M155.14,32.33a22.25,22.25,0,0,1-.07,2.55,3.34,3.34,0,0,0,1,2.35,4.4,4.4,0,0,0,4.62.44.54.54,0,0,0-.11-1c-.35-.06-.7-.08-1.06-.11l-.55,0-.23,0c-.24,0,.14,0-.1,0s-.32,0-.47-.09l-.25-.07s-.24-.08-.07,0a3.17,3.17,0,0,1-.41-.21c-.18-.11,0,.06-.08-.05l-.16-.15s-.14-.2-.06-.06c0-.07-.08-.13-.11-.2a.83.83,0,0,1-.07-.13c0,.08,0,.09,0,0s-.05-.16-.07-.25a1.74,1.74,0,0,1-.05-.22c0-.05,0-.23,0-.09a4.64,4.64,0,0,1,0-.53,11.9,11.9,0,0,0,0-2.6.85.85,0,0,0-1-.59.89.89,0,0,0-.63,1Z"/><path class="cls-1" d="M154.4,35.33a32.21,32.21,0,0,1,3.66-.51c.6,0,1.21-.08,1.82-.09a4.49,4.49,0,0,0,1.83-.19.43.43,0,0,0,0-.74,2,2,0,0,0-.91-.17h-1c-.63,0-1.26.05-1.89.1a34.9,34.9,0,0,0-3.81.53c-.72.14-.45,1.22.27,1.08Z"/><path class="cls-1" d="M.15,36.29a4.12,4.12,0,0,0,.28,3,2.06,2.06,0,0,0,2.51.8c1.76-.69,3.26-3.24,1.53-4.74a3.51,3.51,0,0,0-3.29-.62c-.41.12-.49.77,0,.87s.84.11,1.27.16a3.1,3.1,0,0,1,.92.25,1.45,1.45,0,0,1,.33.22,1.28,1.28,0,0,1,.28.31,1,1,0,0,1,.13.77,2.34,2.34,0,0,1-.48.89,2.67,2.67,0,0,1-.73.66,1.7,1.7,0,0,1-.34.16,1.06,1.06,0,0,1-.42.07,1,1,0,0,1-.3-.08L1.71,39a1,1,0,0,1-.18-.17c-.08-.09,0,0,0,0l-.08-.14-.06-.11s-.07-.13,0-.06A2.33,2.33,0,0,1,1.19,38a5.21,5.21,0,0,1,.1-1.37.58.58,0,0,0-.41-.71.61.61,0,0,0-.73.42Z"/><path class="cls-1" d="M10.64,25.91c.8-.85,1.59-1.71,2.36-2.59a22.87,22.87,0,0,0,2.19-2.72c.22-.35-.26-.65-.54-.4-.86.76-1.6,1.65-2.39,2.48s-1.58,1.66-2.4,2.47a.54.54,0,0,0,.78.76Z"/><path class="cls-1" d="M9.94,21c1.08,2,2.11,4,3.34,5.91a.53.53,0,0,0,.91-.52c-.93-2.07-2.07-4-3.15-6-.38-.7-1.48-.06-1.1.64Z"/><path class="cls-1" d="M44.34,26c.78-.87,1.57-1.73,2.34-2.6A25.83,25.83,0,0,0,49,20.73a.33.33,0,0,0-.09-.45.35.35,0,0,0-.46,0A26.65,26.65,0,0,0,46,22.75l-2.37,2.51c-.47.5.29,1.22.75.72Z"/><path class="cls-1" d="M43.65,21.75c.5.73,1,1.49,1.42,2.27s.83,1.57,1.27,2.35c.23.42,1,.13.8-.33a20.72,20.72,0,0,0-2.56-4.83.56.56,0,0,0-.73-.18.54.54,0,0,0-.2.72Z"/><path class="cls-1" d="M73.3,25.44c.48-.9,1-1.79,1.52-2.66s1.09-1.72,1.58-2.61c.14-.26-.21-.54-.41-.31a21.35,21.35,0,0,0-1.8,2.52q-.82,1.32-1.59,2.67a.4.4,0,0,0,.7.39Z"/><path class="cls-1" d="M72.7,20.94c1.06,1.24,2,2.56,3,3.86a.4.4,0,0,0,.54.13.41.41,0,0,0,.16-.54,24.08,24.08,0,0,0-3-4.19.53.53,0,0,0-.74,0,.52.52,0,0,0,0,.73Z"/><path class="cls-1" d="M86.44,25c.66-.88,1.36-1.74,2.08-2.58.35-.41.72-.82,1.09-1.21a9.85,9.85,0,0,0,1.14-1.28c.17-.27-.16-.54-.41-.4A7,7,0,0,0,89,20.57c-.42.39-.83.79-1.24,1.2a27.56,27.56,0,0,0-2.28,2.66.53.53,0,0,0,.2.74.59.59,0,0,0,.77-.21Z"/><path class="cls-1" d="M85.38,20.74A29.64,29.64,0,0,0,88.66,26a.58.58,0,0,0,.78,0,.6.6,0,0,0,.17-.76c-.47-.89-1-1.74-1.55-2.6S87,21,86.52,20.08c-.4-.72-1.52-.07-1.14.66Z"/><path class="cls-1" d="M123.33,24.56c.94-.95,1.89-1.88,2.84-2.82l1.39-1.36A11.44,11.44,0,0,0,129,18.9c.19-.27-.19-.65-.45-.45a11,11,0,0,0-1.43,1.38c-.45.49-.91,1-1.37,1.45-.92,1-1.84,1.94-2.78,2.89a.28.28,0,0,0,.41.39Z"/><path class="cls-1" d="M124.21,20.59c.58,1.56,1.12,3.14,1.84,4.64.23.48,1,.13.88-.37-.42-1.56-1-3.06-1.57-4.58a.6.6,0,0,0-.72-.4.58.58,0,0,0-.43.71Z"/><path class="cls-1" d="M144.42,24.62a20.33,20.33,0,0,0,2.3-2.34c.36-.43.69-.86,1-1.31a4.82,4.82,0,0,0,.81-1.45.32.32,0,0,0-.55-.3,7,7,0,0,0-1,1.26c-.31.43-.64.85-1,1.25A21,21,0,0,1,143.8,24a.43.43,0,0,0,0,.62.45.45,0,0,0,.62,0Z"/><path class="cls-1" d="M144,19.89c.43,1.11.86,2.21,1.31,3.31.22.54.45,1.07.69,1.6a6.92,6.92,0,0,0,.87,1.58c.31.38.89-.05.8-.46a8.14,8.14,0,0,0-.69-1.68l-.71-1.52q-.75-1.57-1.41-3.18c-.2-.47-1-.12-.86.35Z"/><path class="cls-1" d="M44.44,6.93a26.41,26.41,0,0,0,2.24-2.38c.36-.43.7-.87,1-1.31a3.91,3.91,0,0,0,.83-1.47A.39.39,0,0,0,48,1.34a5,5,0,0,0-1.08,1.17c-.35.43-.7.84-1.07,1.24A25.81,25.81,0,0,1,43.49,6a.69.69,0,0,0,0,1,.71.71,0,0,0,1,0Z"/><path class="cls-1" d="M43.88,3.64A15.48,15.48,0,0,0,45.36,6a9.77,9.77,0,0,0,1,1.16,4.06,4.06,0,0,0,1.2.91.68.68,0,0,0,.78-.12.65.65,0,0,0,.11-.76A3.41,3.41,0,0,0,48,6.54l-.21-.26A2.75,2.75,0,0,1,47.56,6l-.42-.51-.24-.29-.09-.11c.08.09,0,0,0,0a15.17,15.17,0,0,1-1.44-2.29.85.85,0,0,0-1.47.85Z"/><path class="cls-1" d="M53.21,4.37l.45-.07.13,0,.21,0,.86-.11c.61-.07,1.21-.13,1.81-.22s.49-.84,0-.91a12.21,12.21,0,0,0-3.62.06.69.69,0,0,0-.68.75.65.65,0,0,0,.82.54Z"/><path class="cls-1" d="M53.82,6.68a25.7,25.7,0,0,0,3.5-.3.46.46,0,0,0,.34-.5.43.43,0,0,0-.44-.38,23.69,23.69,0,0,0-3.37,0,.64.64,0,0,0-.63.61.6.6,0,0,0,.6.6Z"/><path class="cls-1" d="M60.32,5.9l2-.13a3.12,3.12,0,0,0,1.63-.35,1.39,1.39,0,0,0-.23-2.26,2.08,2.08,0,0,0-2.67,1c-.52.92-.82,2.33,0,3.14a2.22,2.22,0,0,0,1.89.47,5.47,5.47,0,0,0,.9-.26l.44-.15a5.07,5.07,0,0,0,.49-.19.62.62,0,0,0,.45-.65A.59.59,0,0,0,64.62,6a3.73,3.73,0,0,0-1.43.26l-.29.07-.14,0c-.19,0,.09,0,0,0l-.28,0h-.13s-.18,0-.1,0l-.09,0-.12,0c.12,0-.06,0-.1-.07s0,0,0,0-.13-.14-.07-.07-.12-.22-.07-.11a1.78,1.78,0,0,1,0-1c.13-.63.55-1.39,1.3-1.33a.64.64,0,0,1,.6.43.53.53,0,0,1-.16.58,1.25,1.25,0,0,1-.58.1l-.85,0L60.34,5a.48.48,0,0,0-.48.46.45.45,0,0,0,.46.46Z"/><path class="cls-1" d="M66.68,6.82a8,8,0,0,0,.11-1.47c0-.22.25-.81.58-.64s.24.46.29.65a1.54,1.54,0,0,0,.47.93A.54.54,0,0,0,69,6.05c.09-.27.17-.54.25-.8s.09-.27.12-.41a1,1,0,0,0,0-.16,0,0,0,0,0,0,.05l-.27.08c.58,0,1,.56,1.18,1a5.38,5.38,0,0,1,.3,1.07,2.27,2.27,0,0,0,.52,1.3.64.64,0,0,0,1.06-.44,3.05,3.05,0,0,0-.26-1.07c-.11-.32-.2-.64-.31-1a3.27,3.27,0,0,0-1-1.54c-.45-.37-1.29-.76-1.81-.31a1.8,1.8,0,0,0-.44.8c-.13.36-.26.72-.37,1.09l.75-.32a.78.78,0,0,1-.24-.34c-.08-.18-.13-.36-.2-.53a1,1,0,0,0-1-.68,1.38,1.38,0,0,0-1.08.95c-.22.56-.08,1.19-.3,1.75s.62.68.77.19Z"/><path class="cls-1" d="M76.6,4.22a2.36,2.36,0,0,0-3.69.53A2,2,0,0,0,73,7,1.67,1.67,0,0,0,75.17,7a6.55,6.55,0,0,0,1.75-1.92L75.66,4.8a2.72,2.72,0,0,0,.69,2.39c.7.57,2,.54,2.32-.47a.59.59,0,0,0-.87-.66c-.15.09.12,0,0,0l-.17.07.07,0c-.17,0,.14,0,0,0s.07,0,0,0l-.15,0c.15,0,0,0,0,0L77.31,6c.12,0,0,0,0,0s0,0,0,0a1.4,1.4,0,0,1-.09-.17c-.06-.11,0,0,0-.06s0-.12,0-.18A4.41,4.41,0,0,1,77,4.79a.65.65,0,0,0-.49-.64.7.7,0,0,0-.77.32,2.86,2.86,0,0,1-.53.71,4,4,0,0,1-.66.57L74.18,6c.11-.06-.08,0-.1,0L74,6h0l-.06,0c.08,0,0,.09,0,0,0,.11,0-.11,0,0a.4.4,0,0,1,0-.15,1.12,1.12,0,0,1,.65-1.07,1.16,1.16,0,0,1,.57-.09,1.23,1.23,0,0,1,.7.3c.5.44,1.26-.28.77-.77Z"/><path class="cls-1" d="M79.15,5.56c0,.39,0,.78.1,1.17a4.13,4.13,0,0,0,.07.49,1.55,1.55,0,0,0,.06.23,1.39,1.39,0,0,0,.16.35.57.57,0,0,0,.58.28.61.61,0,0,0,.51-.43,1.64,1.64,0,0,0,.1-.38l0-.23a2.78,2.78,0,0,0,0-.5c0-.33,0-.66-.05-1A.74.74,0,0,0,80,4.79a.86.86,0,0,0-.57.23.8.8,0,0,0-.23.54Z"/><path class="cls-1" d="M79.49,1.35l-.17.15-.08.07a.76.76,0,0,0-.11.14l0,.05-.06.13a.41.41,0,0,0,0,.19.28.28,0,0,0,0,.13.39.39,0,0,0,.11.17l.11.08.12,0a.34.34,0,0,0,.2,0,.36.36,0,0,0,.2-.06l0,0,.13-.1a.64.64,0,0,0,.1-.13l0-.09.12-.19a.49.49,0,0,0,.06-.17.41.41,0,0,0,0-.19l0-.11a.33.33,0,0,0-.12-.14A.24.24,0,0,0,80,1.24a.39.39,0,0,0-.18,0l-.13,0a.5.5,0,0,0-.22.13Z"/><path class="cls-1" d="M83.07,1a35,35,0,0,1,.64,3.82c.07.65.12,1.3.16,2a7.07,7.07,0,0,0,.2,1.95.57.57,0,0,0,1.08,0,5.53,5.53,0,0,0,.16-2.11c0-.65,0-1.3-.11-1.95A32.77,32.77,0,0,0,84.58.55c-.21-1-1.73-.55-1.51.41Z"/><path class="cls-1" d="M95.17,4.47a2.19,2.19,0,0,0-1.69-.62c-.71.15-1,.92-1.11,1.55a5.8,5.8,0,0,0-.13,1.1,2.32,2.32,0,0,0,.14,1,.9.9,0,0,0,1,.5,2.57,2.57,0,0,0,.91-.51,6.07,6.07,0,0,0,1.41-1.66l-.91-.36c-.51,1.22.41,3.11,1.87,2.94a.59.59,0,0,0,.56-.49.55.55,0,0,0-.39-.6l-.09,0a1.63,1.63,0,0,0-.23-.11c.14.06,0,0,0,0l-.15-.09c.14.09-.09-.07-.12-.09.13.1,0,0-.06-.06L96,6.8,96,6.73l0,0c-.06-.09-.12-.18-.17-.27a.36.36,0,0,1,0-.09c0,.06,0,.06,0,0s0-.09,0-.14l0-.14c0,.1,0-.09,0-.11a.76.76,0,0,1,0-.15c0,.08,0-.1,0-.12a.49.49,0,0,0-.91-.35,3.4,3.4,0,0,1-1.09,1.22c-.12.08-.24.16-.37.23l-.17.09c-.12.06,0,0,0,0s.14.06.12.08a.41.41,0,0,1,0-.09s0,0,0,0-.05-.25-.07-.38a3.64,3.64,0,0,1,0-1,2.25,2.25,0,0,1,.24-.84c.3-.47,1,0,1.35.19s.58-.24.33-.42Z"/><path class="cls-1" d="M98.71,6.6l-.1-.22,0-.11,0-.07s0-.06,0-.07l0-.13a1.43,1.43,0,0,1,0-.22c0-.09,0,0,0,0a.4.4,0,0,0,0-.11.62.62,0,0,1,0-.13s0-.14,0-.06,0,0,0,0l0-.1a.24.24,0,0,0,0-.08c0-.11-.07.13,0,0a1.09,1.09,0,0,0,.08-.15l0-.07c.05-.09,0,0,0,0l.12-.14s.16-.14.07-.07,0,0,0,0l.08,0h0c-.1,0,0,0,0,0l.14,0c.08,0-.09,0,0,0h.09a.39.39,0,0,0,.37-.25.37.37,0,0,0-.08-.42c-.62-.68-1.71-.15-2,.57a2.88,2.88,0,0,0,.5,2.39.46.46,0,0,0,.8-.46Z"/><path class="cls-1" d="M101,7c-.08-.22-.15-.44-.22-.67a3.47,3.47,0,0,1-.1-.59c0-.11,0-.22,0-.32s0-.16,0,0l0-.12,0-.13s.07-.15,0,0l.13-.23c.07-.12-.09.09,0,0l.08-.09.1-.09c.11-.1-.13.08,0,0l.2-.11c.12-.07,0,0,0,0a.49.49,0,0,0,.11,0l.11,0c.12,0-.12,0,0,0h.12a.35.35,0,0,1,.13,0h0a.31.31,0,0,0,.1.05l0,0h0a.46.46,0,0,0,.75-.44,1.36,1.36,0,0,0-1.24-.87A1.57,1.57,0,0,0,100,4.1a2.51,2.51,0,0,0-.3,1.47,6.22,6.22,0,0,0,.53,1.77.44.44,0,0,0,.56.17A.45.45,0,0,0,101,7Z"/><path class="cls-1" d="M103.66,6l.17.88c0,.14.07.28.11.42a2,2,0,0,1,.08.22.8.8,0,0,0,.19.32l.08.08a.58.58,0,0,0,.47.14.54.54,0,0,0,.43-.28,1,1,0,0,0,.13-.44,2.3,2.3,0,0,0,0-.37c0-.15,0-.3-.06-.45l-.19-.9a.71.71,0,0,0-.87-.49.74.74,0,0,0-.52.87Z"/><path class="cls-1" d="M104.34,3.22c.17,0,.18-.26,0-.26s-.18.26,0,.26Z"/><path class="cls-1" d="M104.77,2.56l-.16-.09.13.09-.11-.11-.1-.11.1.13a1.33,1.33,0,0,0-.14-.19l0,0a.63.63,0,0,0-.3-.16.28.28,0,0,0-.18,0,.4.4,0,0,0-.26.06.46.46,0,0,0-.23.14l-.1.14a.75.75,0,0,0-.1.33.88.88,0,0,0,0,.17l.07.17a.63.63,0,0,0,.26.25l0,0,0,0,0,0,.19.13-.13-.1.06.07.07.08a.64.64,0,0,0,.29.16l.16,0a.69.69,0,0,0,.34-.09.47.47,0,0,0,.19-.18.43.43,0,0,0,.12-.22.52.52,0,0,0,0-.25A.53.53,0,0,0,105,2.8a.69.69,0,0,0-.24-.24Z"/><path class="cls-1" d="M106.2,4.92c.35.54.73,1.06,1.13,1.57a2.74,2.74,0,0,0,.67.73,1,1,0,0,0,1.2-.14,3.85,3.85,0,0,0,.92-1.65,4.73,4.73,0,0,0,.22-1,2.58,2.58,0,0,0,0-1,.47.47,0,0,0-.85-.1,7.94,7.94,0,0,0-.31.81c-.08.24-.17.47-.25.7s-.09.24-.14.35l0,.08c0-.06,0-.06,0,0l-.07.15a5.08,5.08,0,0,1-.33.66c-.1.14.06-.06,0,0s.12-.06,0,0a.28.28,0,0,1,.22,0c-.06,0-.06,0,0,0s.07,0,0,0l-.49-.56a15.34,15.34,0,0,1-.92-1.24.56.56,0,0,0-1,.56Z"/><path class="cls-1" d="M114,4.79a1.27,1.27,0,0,0-1.23-.92,1.42,1.42,0,0,0-1.35,1,2.05,2.05,0,0,0,.17,1.71,1.46,1.46,0,0,0,1.8.62,2.16,2.16,0,0,0,1-.77c.08-.13.15-.26.22-.4l.13-.31a.2.2,0,0,1,0-.08c0,.08,0-.09,0-.08l-1.12-.13a3.7,3.7,0,0,0,.71,1.23,2.08,2.08,0,0,0,.53.45,1.5,1.5,0,0,0,.73.26.54.54,0,0,0,.47-.79,4.73,4.73,0,0,0-.75-.86l-.16-.17-.09-.12,0-.05,0-.07-.07-.1L114.79,5a.62.62,0,0,0-1.12.16l0,.12h0a1.3,1.3,0,0,1-.08.17,1.74,1.74,0,0,1-.11.18s-.11.16,0,.07a2.11,2.11,0,0,1-.25.27c.1-.1,0,0,0,0s-.16.07-.05,0a1.06,1.06,0,0,1-.19.06s0,0,0,0h-.16l0,0c.06,0,.06,0,0,0s.06.08,0,0-.11-.15,0-.05l-.09-.14c0-.07,0-.07,0,0l0-.07s0-.1,0-.16,0,0,0,0,0-.07,0-.11a.76.76,0,0,1,0-.15c0,.09,0,0,0-.07s.06-.15,0-.06l.08-.13c-.07.1,0,0,0,0h0l0,0s-.11,0,0,0,.18,0,0,0h.13c-.12,0,0,0,0,0s-.07,0,0,0,.09.07,0,0,.07.08,0,0l0,.07c0-.06,0-.07,0,0a.53.53,0,0,0,1-.27Z"/><path class="cls-1" d="M117.34,2.31c0,.93.11,1.86.2,2.78,0,.47.09.94.16,1.41A3.93,3.93,0,0,0,118,7.9a.53.53,0,0,0,1-.14,4.57,4.57,0,0,0,0-1.38L118.8,5c-.08-.9-.14-1.81-.17-2.72a.64.64,0,0,0-.63-.63.68.68,0,0,0-.66.64Z"/></svg>