<?xml version="1.0" encoding="utf-8"?>
<!-- Generator: Adobe Illustrator 26.0.2, SVG Export Plug-In . SVG Version: 6.00 Build 0)  -->
<svg version="1.1" id="Layer_1" xmlns="http://www.w3.org/2000/svg" xmlns:xlink="http://www.w3.org/1999/xlink" x="0px" y="0px"
	 viewBox="0 0 235.51 140.46" style="enable-background:new 0 0 235.51 140.46;" xml:space="preserve">
<style type="text/css">
	.st0{fill:#FD46FC;}
	.st1{fill:#486AFB;}
</style>
<g>
	<g>
		<path class="st0" d="M4.16,99.36c-1.25,0.04-2.41,0.18-3.18,1.28c-0.77,1.09-1.07,2.63-0.95,3.94c0.24,2.65,2.72,4.21,5.26,4.14
			c1.11-0.03,2.24-0.39,3.03-1.2c0.74-0.77,1.04-1.85,1.06-2.9c0.05-2.09-0.77-4.23-1.73-6.05c-0.82-1.54-1.9-2.86-3.11-4.11
			c-0.78-0.81-2.28-2.66-3.49-1.48c-0.22,0.22-0.23,0.62,0.01,0.84c0.3,0.28,0.66,0.49,0.96,0.78c0.34,0.34,0.64,0.72,0.97,1.07
			c0.79,0.85,1.59,1.66,2.25,2.64c0.98,1.47,1.72,3.08,2.09,4.81c0.26,1.21,0.37,2.86-0.9,3.5c-1.36,0.69-3.6,0.2-4.49-1.07
			c-0.65-0.93-0.53-2.35-0.22-3.38c0.15-0.51,0.37-1.08,0.88-1.34c0.47-0.24,1.05-0.22,1.57-0.25C4.94,100.55,4.95,99.33,4.16,99.36
			L4.16,99.36z"/>
	</g>
</g>
<g>
	<g>
		<path class="st0" d="M16.22,100.44c-1.2-0.75-2.76-1.63-4.22-1.16c-1.74,0.57-2.45,2.7-2.51,4.37c-0.05,1.47,0.52,3.7,2.19,4.08
			c1.24,0.28,2.47-0.59,3.23-1.48c0.94-1.11,1.68-2.58,1.07-4.02c-0.26-0.61-1.12-0.58-1.53-0.2c-1.38,1.28-0.4,3.66,0.68,4.8
			c1.38,1.46,4.2,1.29,5.14-0.56c0.28-0.54-0.33-1.32-0.91-0.91c-0.49,0.34-1.04,0.58-1.62,0.57c-0.25,0-0.54-0.07-0.77-0.17
			c-0.09-0.04-0.24-0.14-0.35-0.2c-0.16-0.09,0.11,0.1,0.02,0.01c-0.04-0.05-0.09-0.09-0.14-0.13c-0.04-0.04-0.07-0.08-0.11-0.13
			c0.07,0.08,0.05,0.07,0-0.01c-0.07-0.11-0.15-0.22-0.21-0.33c-0.18-0.31-0.22-0.4-0.31-0.66c-0.05-0.15-0.09-0.3-0.12-0.45
			c-0.01-0.05-0.02-0.14-0.01-0.04c-0.01-0.06,0-0.13-0.01-0.19c0-0.07-0.01-0.13-0.01-0.02c0-0.02,0.06-0.25,0.02-0.13
			c-0.04,0.1,0.02-0.05,0.04-0.07c0.11-0.11-0.16,0.16,0.04-0.02c-0.51-0.07-1.02-0.13-1.53-0.2c-0.12-0.26-0.02,0,0,0.07
			c-0.05-0.16,0-0.07,0,0.06c0,0.09-0.02,0.26,0.01,0.08c-0.02,0.11-0.04,0.23-0.08,0.34c-0.03,0.09-0.06,0.18-0.09,0.27
			c0.07-0.17-0.05,0.1-0.08,0.16c-0.11,0.21-0.23,0.41-0.37,0.6c-0.02,0.02-0.11,0.14-0.01,0.02c-0.04,0.05-0.08,0.09-0.12,0.14
			c-0.07,0.08-0.14,0.15-0.21,0.23c-0.07,0.07-0.15,0.14-0.22,0.21c-0.04,0.04-0.09,0.08-0.13,0.11c0.11-0.09,0.04-0.03-0.03,0.02
			c-0.17,0.11-0.34,0.21-0.52,0.3c0.17-0.09,0.02-0.01-0.07,0.02c-0.11,0.03-0.33,0.03-0.12,0.04c-0.09,0-0.31-0.05-0.08,0.02
			c-0.04-0.01-0.26-0.09-0.13-0.03c0.12,0.06-0.15-0.14,0.03,0.02c-0.03-0.03-0.07-0.08-0.1-0.1c-0.15-0.1,0.07,0.12-0.03-0.03
			c-0.33-0.51-0.54-1.06-0.57-1.68c-0.04-0.65,0.06-1.29,0.28-1.91c0.18-0.49,0.46-0.98,0.83-1.17c0.12-0.06,0.29-0.09,0.52-0.08
			c0.21,0,0.47,0.06,0.73,0.15c0.59,0.19,1.13,0.52,1.66,0.84C16.32,102.44,17.13,101.01,16.22,100.44L16.22,100.44z"/>
	</g>
</g>
<g>
	<g>
		<path class="st0" d="M20.5,97.27c0.2,1.75,0.35,3.51,0.66,5.24c0.14,0.8,0.35,1.57,0.54,2.36c0.21,0.82,0.55,1.68,1.49,1.8
			c0.45,0.06,0.79-0.41,0.81-0.8c0.02-0.34-0.14-0.63-0.24-0.94c-0.09-0.3-0.15-0.6-0.23-0.9c-0.19-0.72-0.36-1.43-0.49-2.16
			c-0.27-1.51-0.4-3.05-0.57-4.57c-0.06-0.53-0.41-0.99-0.99-1C21.01,96.28,20.44,96.74,20.5,97.27L20.5,97.27z"/>
	</g>
</g>
<g>
	<g>
		<path class="st0" d="M20.84,101.53c0.86-0.18,1.71-0.37,2.57-0.51c0.15-0.02,0.29-0.04,0.44-0.06c0.07-0.01,0.16,0,0.22-0.03
			c-0.02,0.01-0.24,0.03-0.07,0.01c0.04,0,0.08-0.01,0.12-0.01c0.3-0.03,0.6-0.06,0.9-0.07c0.27-0.01,0.53,0,0.8,0.01
			c0.2,0.01-0.07-0.02-0.04-0.01c0.05,0.01,0.1,0.02,0.15,0.03c0.12,0.02,0.23,0.04,0.35,0.04c0.18,0.01-0.23-0.05-0.06-0.01
			c0.03,0.01,0.2,0.07,0.23,0.06c-0.02,0.01-0.23-0.11-0.11-0.04c-0.05-0.03-0.09-0.07-0.12-0.11c-0.13-0.17,0.08,0.12,0.1,0.15
			c0.11,0.11,0.22,0.14,0.35,0.21c-0.3-0.14-0.06-0.01,0.02,0.01c0.11,0.03,0.24,0.03,0.35,0c0.89-0.24,0.63-1.35,0.12-1.81
			c-0.49-0.44-1.18-0.5-1.81-0.5c-0.66,0-1.32,0.08-1.97,0.17c-1.02,0.14-2.03,0.36-3.04,0.57c-0.51,0.11-0.86,0.71-0.71,1.21
			C19.8,101.35,20.3,101.64,20.84,101.53L20.84,101.53z"/>
	</g>
</g>
<g>
	<g>
		<path class="st0" d="M33.99,100.57c-1.27-0.45-2.53-1.17-3.92-0.92c-1.46,0.26-2.26,1.78-2.47,3.13
			c-0.23,1.44,0.13,2.94,1.35,3.84c1.47,1.08,3.34,0.62,4.54-0.66c1.08-1.15,1.98-3.14,1.31-4.68c-0.17-0.39-0.68-0.51-1.05-0.44
			c-1.14,0.21-0.92,1.69-0.74,2.48c0.18,0.8,0.41,1.71,0.82,2.43c0.61,1.07,2.02,1.47,3.16,1.52c1.26,0.05,2.65-0.24,3.61-1.07
			c0.65-0.56-0.07-1.42-0.76-1.32c-0.81,0.12-1.59,0.39-2.41,0.43c-0.43,0.02-0.86,0.01-1.27-0.13c-0.15-0.05-0.3-0.11-0.43-0.21
			c-0.1-0.07-0.3-0.3-0.21-0.15c-0.04-0.06-0.07-0.14-0.1-0.2c-0.08-0.16,0.05,0.13,0,0c-0.03-0.07-0.05-0.14-0.08-0.21
			c-0.12-0.32-0.22-0.64-0.32-0.97c-0.1-0.33-0.18-0.66-0.24-1c-0.03-0.17,0,0.02-0.01-0.07c-0.01-0.07-0.01-0.13-0.01-0.2
			c0-0.01,0.01-0.13,0-0.13c0,0.07-0.01,0.14-0.05,0.2c-0.08,0.21-0.24,0.35-0.49,0.43c-0.35-0.15-0.7-0.29-1.05-0.44
			c0.2,0.39-0.2,1.11-0.4,1.48c-0.27,0.5-0.6,0.96-1.09,1.27c-0.49,0.31-1.04,0.45-1.55,0.1c-0.39-0.27-0.57-0.63-0.65-1.08
			c-0.12-0.71,0.09-2.17,0.83-2.46c0.44-0.17,1,0.02,1.43,0.16c0.6,0.2,1.17,0.46,1.77,0.66C34.64,102.75,35.11,100.96,33.99,100.57
			L33.99,100.57z"/>
	</g>
</g>
<g>
	<g>
		<path class="st1" d="M72.2,83.7c0.48,2.29,0.29,4.63,0.21,6.96c-0.08,2.41-0.09,4.83-0.01,7.24c0.07,2.43,0.35,4.85,0.44,7.28
			c0.09,2.52,0.03,5.04,0.19,7.56c0.09,1.34,0.27,2.68,0.46,4.01c0.18,1.33,0.17,2.72,0.61,4c0.23,0.68,1.08,0.65,1.33,0
			c0.45-1.16,0.24-2.35,0.08-3.56c-0.15-1.19-0.35-2.38-0.46-3.58c-0.23-2.51-0.19-5.04-0.27-7.56c-0.08-2.52-0.39-5.03-0.51-7.55
			c-0.11-2.42-0.18-4.85-0.17-7.27c0.02-2.64,0.13-5.32-0.43-7.92C73.46,82.37,72,82.75,72.2,83.7L72.2,83.7z"/>
	</g>
</g>
<g>
	<g>
		<path class="st1" d="M74.15,121.45c1.87,0.01,3.74-0.11,5.6-0.2c1.79-0.09,3.57,0.02,5.36,0.13c3.71,0.22,7.42,0.31,11.13,0.39
			c7.42,0.18,14.84,0.27,22.26,0.36c2.03,0.02,4.06,0.09,6.08,0.29c2.08,0.2,4.09,0.63,6.14,1c0.54,0.1,1.08-0.24,1.09-0.83
			c0-0.06,0-0.12,0-0.18c0-0.93-1.5-1.2-1.67-0.22c-0.01,0.06-0.02,0.12-0.03,0.18c0.35-0.2,0.7-0.41,1.06-0.61
			c-3.45-1.23-7.32-1.43-10.94-1.52c-3.73-0.09-7.46-0.03-11.19-0.09c-7.49-0.11-14.99-0.23-22.47-0.54
			c-2.03-0.08-4.06-0.27-6.08-0.19c-2.11,0.09-4.22,0.28-6.33,0.29C73.03,119.71,73.02,121.44,74.15,121.45L74.15,121.45z"/>
	</g>
</g>
<g>
	<g>
		<path class="st1" d="M131.62,120.33c-0.66-4.69-0.65-9.45-0.76-14.18c-0.11-4.77-0.5-9.52-0.89-14.27
			c-0.22-2.69-0.46-5.38-0.75-8.06c-0.06-0.53-0.41-0.99-0.99-1c-0.49,0-1.05,0.45-1,0.99c0.51,4.8,0.88,9.61,1.24,14.43
			c0.36,4.82,0.39,9.64,0.56,14.47c0.1,2.72,0.29,5.42,0.67,8.12c0.08,0.53,0.73,0.83,1.21,0.71
			C131.48,121.39,131.7,120.86,131.62,120.33L131.62,120.33z"/>
	</g>
</g>
<g>
	<g>
		<path class="st1" d="M74.57,81.86c-0.19,0.08-0.39,0.15-0.58,0.23c-0.59,0.23-0.84,1.07-0.19,1.42c0.92,0.5,1.72,0.44,2.73,0.49
			c1.04,0.06,2.09,0.09,3.13,0.1c2.16,0.02,4.32-0.07,6.48-0.15c4.43-0.15,8.86-0.36,13.29-0.55c4.38-0.19,8.75-0.35,13.13-0.45
			c4.22-0.09,8.45-0.27,12.67-0.03c2.1,0.12,4.14,0.42,6.22,0.73c0.66,0.1,1.33,0.19,1.98,0.36c0.3,0.08,0.61,0.16,0.89,0.29
			c0.25,0.12,0.54,0.24,0.67,0.36c0.57,0.54,1.42-0.01,1.28-0.74c-0.26-1.38-1.96-1.74-3.13-1.95c-1.52-0.28-3.06-0.51-4.6-0.69
			c-4.25-0.49-8.54-0.41-12.81-0.29c-8.88,0.24-17.74,0.7-26.61,1.08c-2.47,0.11-4.94,0.2-7.41,0.29c-1.24,0.04-2.49,0.05-3.74,0.02
			c-0.6-0.01-1.21-0.08-1.81-0.06c-0.57,0.02-1.06,0.08-1.61-0.16c0,0.45,0,0.89,0,1.34c0.19-0.08,0.38-0.16,0.57-0.24
			C75.93,82.93,75.37,81.55,74.57,81.86L74.57,81.86z"/>
	</g>
</g>
<g>
	<g>
		<path class="st1" d="M80.23,89.9C80.23,89.9,80.23,89.89,80.23,89.9C80.22,89.89,80.22,89.9,80.23,89.9L80.23,89.9z"/>
	</g>
</g>
<g>
	<g>
		<path class="st1" d="M79.71,90.09c1.16,0.27,2.34,0.45,3.53,0.52c1.15,0.07,2.38,0.14,3.5-0.19c0.51-0.15,0.55-0.92,0-1.05
			c-1.1-0.27-2.25-0.25-3.37-0.37c-1.09-0.11-2.17-0.27-3.24-0.51C79.1,88.25,78.67,89.84,79.71,90.09L79.71,90.09z"/>
	</g>
</g>
<g>
	<g>
		<path class="st1" d="M79.92,95.07c1.03,0.04,2.06,0.13,3.1,0.17c0.52,0.02,1.03,0.03,1.55,0.03c0.53,0,1.18,0.03,1.65-0.22
			c0.43-0.24,0.46-0.94,0-1.17c-0.48-0.24-1.11-0.21-1.64-0.25c-0.52-0.04-1.03-0.09-1.55-0.15c-1.03-0.11-2.06-0.2-3.1-0.24
			c-0.5-0.02-0.92,0.43-0.92,0.91C79,94.65,79.42,95.05,79.92,95.07L79.92,95.07z"/>
	</g>
</g>
<g>
	<g>
		<path class="st1" d="M80.53,99c1.16-0.01,2.32-0.12,3.47-0.23c0.56-0.06,1.11-0.1,1.67-0.15c0.64-0.05,1.24-0.07,1.84-0.32
			c0.4-0.17,0.37-0.83,0-1c-0.58-0.27-1.19-0.28-1.82-0.28c-0.56,0-1.11,0.04-1.67,0.07c-1.16,0.06-2.32,0.13-3.47,0.11
			C79.37,97.17,79.36,99.01,80.53,99L80.53,99z"/>
	</g>
</g>
<g>
	<g>
		<path class="st1" d="M112.49,65.89c-0.24,2.73-0.41,5.46-0.52,8.2c-0.11,2.74-0.19,5.47,0.11,8.21c0.09,0.83,1.21,0.84,1.3,0.01
			c0.3-2.73,0.3-5.46,0.38-8.21c0.08-2.74,0.22-5.47,0.43-8.2C114.27,64.8,112.59,64.81,112.49,65.89L112.49,65.89z"/>
	</g>
</g>
<g>
	<g>
		<path class="st1" d="M117.66,67.71c-0.21,2.48-0.26,4.96-0.17,7.45c0.05,1.23,0.12,2.45,0.18,3.68c0.06,1.23,0.15,2.45,0.59,3.6
			c0.21,0.54,1.19,0.55,1.11-0.14c-0.28-2.39-0.13-4.85-0.16-7.25c-0.03-2.45-0.03-4.89,0.14-7.33
			C119.43,66.63,117.75,66.64,117.66,67.71L117.66,67.71z"/>
	</g>
</g>
<g>
	<g>
		<path class="st1" d="M113.94,66.85c1.19,0.16,2.39,0.28,3.59,0.12c1.21-0.15,2.37-0.54,3.53-0.88c0.41-0.12,0.55-0.75,0.13-0.95
			c-0.61-0.29-1.23-0.26-1.88-0.18c-0.59,0.07-1.17,0.16-1.76,0.18c-1.21,0.05-2.4-0.04-3.6-0.21c-0.51-0.07-0.96,0.48-0.96,0.95
			C112.99,66.46,113.43,66.78,113.94,66.85L113.94,66.85z"/>
	</g>
</g>
<g>
	<g>
		<path class="st1" d="M119.79,89.12c0.25,0.74,0.56,1.56,1.25,2c0.75,0.47,1.77,0.18,2.44-0.3c0.37-0.26,0.64-0.6,0.77-1.04
			c0.13-0.42,0.12-0.93,0.02-1.35c-0.2-0.87-0.95-1.35-1.77-1.54c-0.39-0.09-0.79-0.18-1.19-0.21c-0.57-0.04-1.14,0.24-1.31,0.82
			c-0.08,0.27,0.05,0.63,0.31,0.75c0.14,0.07,0.17,0.07,0.33,0.09c0.22,0.03,0.49-0.15,0.58-0.34c0.03-0.06,0.09-0.1-0.04,0.04
			c0.08-0.09-0.16,0.1-0.06,0.04c0.07-0.04-0.02,0.05-0.09,0.04c0.01,0,0.08-0.02,0.09-0.02c-0.05,0.04-0.18,0.01-0.07,0.01
			c0.03,0,0.06,0,0.08,0c0.07,0,0.14,0,0.22,0c0.06,0,0.12,0.01,0.18,0.02c0.14,0.01-0.17-0.03-0.04,0c0.03,0.01,0.07,0.01,0.1,0.02
			c0.12,0.02,0.24,0.04,0.36,0.06c0.14,0.02,0.29,0.05,0.43,0.09c0.08,0.02,0.15,0.04,0.23,0.07c0.02,0.01,0.05,0.02,0.07,0.03
			c-0.1-0.04-0.12-0.05-0.06-0.02c0.02,0.01,0.04,0.02,0.07,0.03c0.05,0.03,0.1,0.06,0.15,0.09c0.11,0.07-0.12-0.11-0.03-0.02
			c0.02,0.02,0.03,0.03,0.05,0.05c0.02,0.02,0.05,0.05,0.07,0.07c0.07,0.07-0.04-0.05-0.04-0.06c0.03,0.06,0.08,0.14,0.12,0.2
			c0.05,0.07-0.05-0.16-0.01-0.04c0.01,0.04,0.03,0.08,0.04,0.12c0.02,0.07,0.03,0.14,0.05,0.21c0.03,0.15,0-0.13,0,0.03
			c0,0.03,0,0.06,0.01,0.1c0,0.09,0,0.18,0,0.27c-0.01,0.14,0.01,0.01,0,0.01c0.01,0-0.02,0.08-0.02,0.09
			c-0.01,0.03-0.02,0.06-0.03,0.09c-0.03,0.12,0.07-0.11,0-0.01c-0.02,0.04-0.09,0.12-0.09,0.15c0.02-0.02,0.03-0.04,0.05-0.06
			c-0.02,0.02-0.03,0.04-0.05,0.06c-0.03,0.03-0.05,0.05-0.08,0.08c-0.01,0.01-0.02,0.02-0.03,0.03c-0.05,0.04-0.04,0.03,0.03-0.02
			c-0.01,0.02-0.05,0.04-0.07,0.05c-0.07,0.05-0.15,0.1-0.23,0.14c-0.08,0.04-0.16,0.08-0.24,0.12c0.1-0.05,0.03-0.01,0,0
			c-0.06,0.02-0.12,0.04-0.18,0.06c-0.05,0.01-0.16,0.06-0.21,0.05c0.02,0,0.05-0.01,0.07-0.01c-0.03,0-0.05,0-0.08,0.01
			c-0.03,0-0.05,0-0.08,0c-0.01,0-0.1-0.01-0.11-0.01c0.02-0.02,0.13,0.02,0.01,0c-0.02-0.01-0.04-0.01-0.07-0.02
			c-0.14-0.04,0.05,0.04-0.02-0.01c-0.05-0.03-0.13-0.05-0.17-0.1c0.07,0.09,0.07,0.06,0.04,0.03c-0.03-0.03-0.07-0.06-0.1-0.1
			c-0.02-0.02-0.04-0.04-0.06-0.07c-0.1-0.11,0.06,0.09-0.01-0.01c-0.04-0.06-0.09-0.13-0.13-0.19c-0.09-0.14-0.16-0.29-0.23-0.44
			c-0.01-0.02-0.07-0.16-0.01-0.02c-0.02-0.04-0.03-0.08-0.05-0.13c-0.04-0.1-0.08-0.2-0.11-0.3c-0.1-0.27-0.37-0.49-0.68-0.4
			C119.92,88.53,119.69,88.83,119.79,89.12L119.79,89.12z"/>
	</g>
</g>
<g>
	<g>
		<path class="st1" d="M120.54,96.51c0.3,0.58,0.71,1.17,1.3,1.48c0.31,0.16,0.66,0.25,1.01,0.25c0.35,0.01,0.75-0.05,1.08-0.17
			c0.37-0.13,0.7-0.38,0.81-0.77c0.08-0.29,0.04-0.6-0.05-0.89c-0.11-0.35-0.26-0.69-0.44-1.01c-0.17-0.29-0.37-0.59-0.64-0.8
			c-0.26-0.2-0.53-0.36-0.87-0.37c-0.19-0.01-0.38,0.02-0.56,0.09c-0.27,0.1-0.51,0.24-0.71,0.45c-0.21,0.22-0.36,0.47-0.46,0.76
			c-0.12,0.36,0.28,0.81,0.66,0.66c0.19-0.08,0.37-0.15,0.55-0.24c0.04-0.02,0.19-0.09-0.02,0c0.07-0.03,0.15-0.08,0.22-0.09
			c-0.2,0.04-0.12,0.04-0.06,0.03c0.04-0.01,0.08-0.03,0.12-0.03c0.02,0,0.05-0.01,0.07-0.01c-0.19,0.06-0.16,0.01-0.08,0.01
			c0.02,0,0.04,0,0.06,0c0.13,0-0.21-0.05-0.09-0.01c0.04,0.02,0.09,0.03,0.14,0.04c0.02,0.01,0.04,0.01,0.06,0.01
			c0.14,0.03-0.06-0.02-0.09-0.04c0.04,0.03,0.09,0.05,0.13,0.07c0.16,0.1-0.16-0.13-0.01-0.01c0.1,0.09,0.19,0.18,0.28,0.29
			c0.02,0.02,0.03,0.04,0.05,0.06c-0.16-0.19-0.06-0.08-0.03-0.03c0.04,0.06,0.08,0.12,0.12,0.18c0.08,0.12,0.16,0.24,0.23,0.36
			c0.05,0.09,0.1,0.17,0.15,0.26c0.01,0.02,0.03,0.05,0.04,0.08c0,0.01-0.06-0.18-0.04-0.09c0.01,0.05,0.02,0.1,0.04,0.14
			c-0.05-0.16-0.01-0.15-0.01-0.09c0,0.08-0.03,0.02,0.02-0.08c-0.01,0.01-0.01,0.03-0.01,0.04c-0.03,0.09,0.09-0.14,0.03-0.07
			c-0.01,0.01-0.02,0.03-0.02,0.04c-0.04,0.09,0.11-0.11,0.04-0.05c-0.01,0.01-0.03,0.03-0.04,0.04c-0.06,0.08,0.14-0.09,0.02-0.02
			c-0.04,0.03-0.09,0.05-0.13,0.08c-0.03,0.02-0.07,0.04-0.11,0.05c0.12-0.03,0.05-0.02,0.02-0.01c-0.07,0.02-0.15,0.05-0.22,0.06
			c-0.04,0.01-0.08,0.02-0.13,0.02c-0.11,0.02,0.09,0-0.03,0c-0.11,0.01-0.28,0.04-0.38,0c0.08,0.03,0.07,0.01,0.02,0
			c-0.03-0.01-0.07-0.01-0.1-0.02c-0.06-0.02-0.12-0.04-0.18-0.06c-0.07-0.02,0.11,0.05,0.01,0c-0.03-0.02-0.06-0.03-0.09-0.05
			c-0.06-0.03-0.12-0.07-0.17-0.11c-0.09-0.06,0.05,0.05,0,0c-0.03-0.03-0.06-0.05-0.09-0.08c-0.05-0.04-0.1-0.09-0.14-0.14
			c-0.05-0.05-0.09-0.1-0.13-0.16c0.08,0.1,0,0-0.01-0.02c-0.02-0.03-0.05-0.06-0.07-0.1c-0.09-0.13-0.17-0.28-0.25-0.42
			c-0.12-0.21-0.43-0.3-0.63-0.17C120.48,96.01,120.41,96.27,120.54,96.51L120.54,96.51z"/>
	</g>
</g>
<g>
	<g>
		<path class="st1" d="M120.22,101.55c-0.17,0.78-0.35,1.57-0.2,2.37c0.08,0.44,0.31,0.88,0.64,1.18c0.41,0.38,0.94,0.57,1.49,0.61
			c1.04,0.06,2.11-0.53,2.49-1.52c0.29-0.77,0.05-1.74-0.42-2.4c-0.32-0.45-0.74-0.82-1.28-0.99c-0.26-0.08-0.6-0.06-0.86,0.01
			c-0.36,0.1-0.59,0.31-0.79,0.61c-0.26,0.38,0.09,1.02,0.56,0.97c0.14-0.01,0.29-0.01,0.43,0c0.18,0.01-0.17-0.05-0.06-0.01
			c0.03,0.01,0.06,0.01,0.09,0.02c0.17,0.04-0.14-0.06-0.08-0.04c0.09,0.04,0.18,0.08,0.27,0.11c0.13,0.05-0.21-0.1-0.09-0.04
			c0.04,0.02,0.07,0.04,0.11,0.06c0.03,0.02,0.05,0.03,0.08,0.05c0.11,0.07-0.2-0.16-0.05-0.04c0.12,0.1,0.23,0.22,0.32,0.34
			c-0.05-0.06-0.09-0.12-0.14-0.18c0.13,0.18,0.24,0.37,0.33,0.57c-0.03-0.07-0.06-0.14-0.09-0.21c0.04,0.1,0.07,0.19,0.1,0.29
			c0.01,0.05,0.02,0.1,0.03,0.15c0.01,0.04,0.02,0.12,0-0.03c-0.02-0.16,0-0.03,0,0.01c0.01,0.09,0,0.18-0.01,0.27
			c0.02-0.28,0.01-0.11-0.01-0.03c0,0.01-0.01,0.05-0.02,0.06c0.02-0.01,0.11-0.23,0.03-0.07c-0.02,0.04-0.05,0.08-0.07,0.12
			c-0.07,0.12,0.12-0.14,0.05-0.07c-0.02,0.02-0.03,0.04-0.05,0.05c-0.04,0.04-0.08,0.08-0.12,0.11c-0.09,0.09,0.08-0.07,0.08-0.06
			c0,0.01-0.09,0.06-0.09,0.06c-0.05,0.03-0.1,0.06-0.15,0.08c-0.02,0.01-0.06,0.04-0.09,0.04c-0.01,0,0.22-0.08,0.09-0.04
			c-0.12,0.04-0.24,0.06-0.36,0.09c-0.09,0.02,0.19-0.01,0.09-0.01c-0.03,0-0.06,0.01-0.1,0.01c-0.05,0-0.1,0-0.16,0
			c-0.04,0-0.25-0.02-0.09,0c0.15,0.02,0.02,0-0.01,0c-0.04-0.01-0.07-0.02-0.11-0.03c-0.07-0.02-0.21-0.1,0.02,0.02
			c-0.05-0.03-0.11-0.05-0.16-0.08c-0.05-0.03-0.1-0.06-0.15-0.09c-0.06-0.04-0.07-0.09,0.08,0.06c-0.02-0.02-0.05-0.05-0.08-0.07
			c-0.03-0.03-0.06-0.07-0.09-0.1c-0.09-0.1,0.11,0.16,0.06,0.08c-0.01-0.02-0.03-0.05-0.05-0.07c-0.02-0.04-0.04-0.08-0.06-0.12
			c-0.08-0.17,0.07,0.19,0.01,0.01c-0.03-0.1-0.05-0.2-0.07-0.3c-0.02-0.12,0.02,0.11,0.01,0.1c-0.01-0.01-0.01-0.07-0.01-0.09
			c0-0.06-0.01-0.12-0.01-0.18c-0.01-0.25,0.02-0.49,0.05-0.74c-0.03,0.26-0.01,0.05,0-0.02c0.01-0.06,0.02-0.11,0.03-0.17
			c0.02-0.12,0.04-0.24,0.06-0.36c0.03-0.2,0.03-0.38-0.07-0.57c-0.09-0.16-0.27-0.31-0.45-0.35
			C120.75,100.94,120.3,101.14,120.22,101.55L120.22,101.55z"/>
	</g>
</g>
<g>
	<g>
		<path class="st1" d="M116.12,65.97c1.53-0.38,2.66-1.12,3.44-2.51c0.81-1.44,1.53-3.14,1.15-4.81c-0.71-3.1-4.69-4.29-7.45-3.48
			c-1.24,0.37-2.3,1.41-1.8,2.8c0.43,1.2,2.08,2.19,3.33,2.15c0.91-0.03,1.69-0.48,2.45-0.94c0.64-0.4,1.32-0.75,1.95-1.15
			c1.28-0.81,2.56-1.94,2.88-3.5c0.36-1.77-0.91-3.69-1.93-5.03c-0.96-1.26-2.4-2.79-4.02-3.11c-0.83-0.17-1.68-0.06-2.5,0.13
			c-0.61,0.14-1.29,0.37-1.58,0.98c-0.72,1.46,1.51,2.25,2.5,2.59c0.84,0.29,1.74,0.51,2.63,0.49c0.96-0.02,1.86-0.35,2.72-0.77
			c1.63-0.8,2.73-2.11,3.38-3.79c1.37-3.51-1.13-6.75-4.59-7.51c-1.22-0.27-3.29-0.46-4.17,0.65c-0.45,0.57-0.42,1.35,0.11,1.85
			c0.47,0.45,1.15,0.51,1.76,0.45c1.33-0.13,2.61-0.67,3.77-1.32c1.62-0.92,3-2.24,3.61-4.04c0.29-0.85,0.39-1.74,0.47-2.63
			c0.06-0.64-0.99-0.94-1.24-0.33c-0.49,1.19-0.81,2.52-1.56,3.58c-0.74,1.04-1.84,1.77-2.97,2.33c-0.65,0.32-1.34,0.68-2.28,0.78
			c-0.12,0.01-0.35-0.03-0.46,0c-0.01,0-0.11-0.02-0.12-0.02c0.29,0.08-0.04,0.14,0.09,0.08c0.5-0.23,0.9-0.38,1.48-0.41
			c2.33-0.1,5.26,1.72,5.19,4.3c-0.03,1.18-0.8,2.45-1.56,3.32c-0.84,0.97-2.06,1.69-3.32,1.95c-1.18,0.24-2.52-0.13-3.61-0.58
			c-0.34-0.14-1.16-0.44-0.6-0.79c0.47-0.29,1.26-0.37,1.8-0.39c1.42-0.05,2.42,1.02,3.32,1.98c0.93,0.99,1.65,2.19,2.1,3.48
			c0.91,2.6-1.88,3.78-3.65,4.94c-0.53,0.35-1.05,0.75-1.65,0.99c-0.58,0.24-1.12,0.15-1.68-0.11c-0.91-0.43-1.81-1.53-0.62-2.25
			c1.2-0.73,2.97-0.6,4.23-0.12c1.1,0.41,2.09,1.26,2.4,2.42c0.39,1.41-0.24,2.76-0.89,3.98c-0.31,0.57-0.61,1.13-1.14,1.52
			c-0.5,0.37-1.09,0.55-1.68,0.7C115.08,65.01,115.38,66.16,116.12,65.97L116.12,65.97z"/>
	</g>
</g>
<g>
	<g>
		<path class="st1" d="M73.06,94.52c-0.85-0.83-1.73-1.61-2.63-2.38c-0.2-0.17-0.4-0.34-0.59-0.52c-0.18-0.17-0.34-0.36-0.54-0.52
			c-0.26-0.21-0.54-0.37-0.87-0.48c-0.35-0.12-0.67-0.09-0.96,0.15c-0.16,0.14-0.18,0.43-0.08,0.6c0.09,0.15,0.19,0.23,0.33,0.33
			c-0.05-0.04,0.02,0.02,0.03,0.03c0.05,0.04,0.09,0.08,0.13,0.12c0.04,0.04,0.08,0.09,0.12,0.14c-0.1-0.11,0.07,0.09,0.07,0.09
			c0.2,0.26-0.07-0.11,0.06,0.09c0.02,0.04,0.05,0.07,0.07,0.11c0.31,0.47,0.72,0.87,1.15,1.23c0.86,0.71,1.68,1.47,2.48,2.24
			c0.32,0.31,0.91,0.34,1.22-0.01C73.38,95.4,73.4,94.86,73.06,94.52L73.06,94.52z"/>
	</g>
</g>
<g>
	<g>
		<path class="st1" d="M72.28,110.2c-0.82,0.54-1.65,1.08-2.42,1.69c-0.35,0.28-0.72,0.57-1.03,0.9c-0.39,0.42-0.79,0.89-0.94,1.45
			c-0.14,0.53,0.35,1.02,0.88,0.89c0.28-0.07,0.49-0.18,0.72-0.36c0.23-0.18,0.45-0.37,0.67-0.57c0.34-0.3,0.66-0.63,1.02-0.91
			c0.04-0.03,0.08-0.06,0.12-0.09c0.11-0.09-0.2,0.15,0,0c0.09-0.07,0.18-0.13,0.27-0.2c0.18-0.13,0.36-0.26,0.54-0.38
			c0.38-0.26,0.76-0.51,1.13-0.76c0.42-0.28,0.64-0.85,0.35-1.31C73.32,110.14,72.73,109.91,72.28,110.2L72.28,110.2z"/>
	</g>
</g>
<g>
	<g>
		<path class="st1" d="M67.1,91.74c-0.03,1.96-0.14,3.92-0.15,5.88c0,0.95,0.09,1.87,0.19,2.81c0.1,0.98-0.01,1.97-0.06,2.96
			c-0.11,1.94-0.14,3.83-0.03,5.77c0.05,0.92,0.12,1.83,0.2,2.75c0.08,0.92,0.1,1.82,0.54,2.65c0.27,0.51,1.06,0.27,1.06-0.28
			c0.01-1.79,0.04-3.56-0.07-5.35c-0.12-1.94-0.03-3.82,0.12-5.76c0.07-0.96,0.17-1.88,0.01-2.83c-0.15-0.95-0.27-1.86-0.28-2.82
			c-0.01-1.92-0.06-3.85-0.09-5.77C68.53,90.81,67.11,90.8,67.1,91.74L67.1,91.74z"/>
	</g>
</g>
<g>
	<g>
		<path class="st1" d="M58.34,102.35c-2.11,0.06-4.21-0.08-6.31-0.13c-2.04-0.05-4.23-0.11-6.19,0.52
			c-0.55,0.18-0.48,1.01,0.13,1.02c2.05,0.04,4.12-0.08,6.17-0.07c2.06,0.02,4.13,0.04,6.19-0.09
			C59.13,103.55,59.15,102.33,58.34,102.35L58.34,102.35z"/>
	</g>
</g>
<g>
	<g>
		<path class="st1" d="M58.05,101.39c-0.53-0.44-1.06-0.88-1.62-1.28c-0.54-0.39-1.13-0.75-1.81-0.78
			c-0.19-0.01-0.36,0.09-0.47,0.24c-0.12,0.16-0.13,0.31-0.11,0.51c0.05,0.36,0.31,0.65,0.58,0.87c0.24,0.2,0.47,0.39,0.71,0.59
			c0.48,0.39,0.96,0.78,1.44,1.18c0.19,0.16,0.39,0.26,0.64,0.26c0.23,0,0.5-0.1,0.66-0.27C58.37,102.35,58.45,101.72,58.05,101.39
			L58.05,101.39z"/>
	</g>
</g>
<g>
	<g>
		<path class="st1" d="M57.18,102.91c-0.6,0.39-1.18,0.8-1.75,1.23c-0.33,0.25-0.66,0.5-0.98,0.76c-0.13,0.11-0.28,0.21-0.4,0.33
			c-0.13,0.12-0.24,0.27-0.37,0.41c-0.21,0.24-0.3,0.61-0.11,0.9c0.17,0.27,0.52,0.45,0.83,0.35c0.16-0.05,0.32-0.1,0.47-0.16
			c0.22-0.08,0.41-0.2,0.62-0.32c0.31-0.18,0.61-0.38,0.91-0.58c0.59-0.39,1.17-0.81,1.77-1.2c0.44-0.28,0.66-0.89,0.36-1.36
			C58.25,102.84,57.64,102.61,57.18,102.91L57.18,102.91z"/>
	</g>
</g>
<g>
	<g>
		<path class="st1" d="M144.3,97.43c-2.4,0-4.8-0.08-7.2-0.08c-2.35,0-4.79,0.11-7.07,0.7c-0.54,0.14-0.45,1,0.12,0.98
			c2.36-0.07,4.7-0.17,7.06-0.17c2.36,0,4.72,0.08,7.08,0.09C145.27,98.95,145.28,97.43,144.3,97.43L144.3,97.43z"/>
	</g>
</g>
<g>
	<g>
		<path class="st1" d="M142.77,104.36c-4.48,0-9.02-0.07-13.46,0.54c-0.77,0.1-0.53,1.23,0.16,1.28c4.41,0.32,8.87,0.17,13.29,0.17
			C144.04,106.34,144.05,104.36,142.77,104.36L142.77,104.36z"/>
	</g>
</g>
<g>
	<g>
		<path class="st1" d="M143.5,98.7c-0.12,1.41-0.18,2.82-0.35,4.22c-0.08,0.65-0.18,1.3-0.35,1.93c-0.18,0.64-0.45,1.35-0.23,2.01
			c0.15,0.45,0.75,0.56,1,0.13c0.34-0.56,0.49-1.28,0.64-1.91c0.16-0.68,0.23-1.38,0.3-2.07c0.13-1.43,0.15-2.86,0.24-4.3
			C144.8,97.89,143.57,97.91,143.5,98.7L143.5,98.7z"/>
	</g>
</g>
<g>
	<g>
		<path class="st1" d="M150.99,102.92c1.12,0.36,2.39,0.22,3.55,0.25c1.37,0.03,2.73,0.09,4.1,0.15c1.29,0.05,2.57,0.08,3.86,0.05
			c1.3-0.03,2.65-0.05,3.89-0.45c0.54-0.18,0.64-1.04,0-1.18c-1.24-0.26-2.51-0.19-3.77-0.18c-1.29,0.01-2.57,0.03-3.86,0.01
			c-1.33-0.03-2.65-0.06-3.98-0.07c-1.21-0.01-2.42,0.11-3.62-0.02C150.32,101.38,150.23,102.67,150.99,102.92L150.99,102.92z"/>
	</g>
</g>
<g>
	<g>
		<path class="st1" d="M166.11,100.61c-0.39-0.43-0.74-0.9-1.14-1.33c-0.22-0.25-0.45-0.48-0.72-0.68c-0.14-0.11-0.28-0.21-0.43-0.3
			c-0.23-0.14-0.48-0.19-0.75-0.21c-0.59-0.04-1.03,0.71-0.7,1.21c0.11,0.16,0.22,0.33,0.37,0.46c0.11,0.09,0.21,0.19,0.31,0.29
			c0.2,0.21,0.41,0.41,0.61,0.62c0.38,0.42,0.73,0.87,1.11,1.3c0.33,0.37,1.01,0.36,1.34-0.01
			C166.48,101.55,166.46,101.01,166.11,100.61L166.11,100.61z"/>
	</g>
</g>
<g>
	<g>
		<path class="st1" d="M165.59,101.45c-0.48,0.13-0.94,0.33-1.34,0.62c-0.47,0.35-0.83,0.75-1.18,1.22
			c-0.29,0.38-0.56,0.79-0.74,1.23c-0.2,0.47-0.39,0.96-0.41,1.48c-0.02,0.45,0.42,0.71,0.82,0.63c0.57-0.11,0.85-0.62,1.07-1.11
			c0.04-0.09,0.08-0.19,0.12-0.29c0.08-0.19-0.08,0.18,0,0c0.04-0.09,0.08-0.17,0.13-0.25c0.12-0.22,0.24-0.44,0.37-0.65
			c0.06-0.1,0.12-0.19,0.19-0.28c0.04-0.06,0.08-0.11,0.12-0.17c0.09-0.13-0.05,0.06,0-0.01c0.13-0.16,0.27-0.31,0.42-0.45
			c0.04-0.03,0.1-0.07,0.13-0.11c-0.05,0.06-0.11,0.09-0.01,0.01c0.09-0.06,0.18-0.12,0.27-0.17c0.08-0.05,0.17-0.09,0.26-0.13
			c0.18-0.09-0.17,0.06,0.02-0.01c0.06-0.02,0.11-0.04,0.17-0.06c0.39-0.13,0.69-0.53,0.56-0.95
			C166.42,101.61,166.01,101.34,165.59,101.45L165.59,101.45z"/>
	</g>
</g>
<g>
	<g>
		<path class="st0" d="M84.55,137.44c0.06-0.92,0.28-1.82,0.66-2.66c0.18-0.39,0.37-0.8,0.65-1.12c0.18-0.21,0.52-0.59,0.84-0.47
			c0.27,0.09,0.35,0.5,0.42,0.73c0.13,0.45,0.23,0.92,0.31,1.38c0.18,0.96,0.22,1.93,0.18,2.9c-0.04,0.94,1.5,1.18,1.66,0.22
			c0.35-2.07,0.48-4.45,2.08-6c0.03-0.03,0.42-0.29,0.42-0.3c0.01-0.04-0.05-0.06-0.09-0.08c-0.01-0.01-0.02-0.03-0.01-0.04
			c0.02,0.07,0.04,0.14,0.05,0.21c0.07,0.52-0.01,1.15-0.02,1.69c-0.01,0.68-0.03,1.36-0.04,2.03c-0.01,0.74-0.12,1.59,0.26,2.25
			c0.3,0.5,1.01,0.48,1.31,0c0.46-0.75,0.3-1.89,0.3-2.74c0-0.85,0-1.7,0.01-2.54c0-0.71,0-1.48-0.52-2.04
			c-0.57-0.61-1.45-0.6-2.13-0.21c-1.19,0.67-1.88,2.17-2.35,3.39c-0.52,1.33-0.77,2.75-0.92,4.16c0.56,0,1.13,0.01,1.69,0.01
			c-0.02-1.29-0.18-2.59-0.55-3.83c-0.29-0.99-0.75-2.34-1.98-2.4c-1.15-0.05-1.92,1.09-2.36,2c-0.52,1.08-0.82,2.25-0.93,3.45
			C83.42,138.11,84.51,138.12,84.55,137.44L84.55,137.44z"/>
	</g>
</g>
<g>
	<g>
		<path class="st0" d="M98.01,132.34c-1.53,0.2-2.64,1.6-2.77,3.08c-0.14,1.6,0.89,3.19,2.38,3.76c0.78,0.3,1.69,0.23,2.39-0.23
			c0.65-0.43,1.12-1.06,1.42-1.77c0.61-1.44,0.64-3.12-0.44-4.35c-0.47-0.54-1.18-0.9-1.89-1.01c-0.77-0.11-2.09,0.04-2.23,1
			c-0.06,0.42,0.17,0.75,0.6,0.78c0.15,0.01,0.28,0,0.43-0.04c0.09-0.03,0.17-0.07,0.26-0.1c-0.16,0.06-0.01,0.01,0.03,0
			c0.1-0.02,0.2-0.04,0.3-0.07c0.15-0.03,0.03-0.01,0,0c0.08-0.01,0.16-0.01,0.24-0.01c0.06,0,0.12,0.01,0.17,0.01
			c-0.03,0-0.14-0.03,0.01,0c0.12,0.03,0.23,0.06,0.34,0.09c0.03,0.01,0.14,0.05,0.01,0c0.04,0.02,0.09,0.04,0.13,0.06
			c0.05,0.03,0.11,0.06,0.16,0.09c0.02,0.01,0.19,0.13,0.13,0.08c-0.09-0.07,0.09,0.08,0.09,0.07c0.04,0.03,0.07,0.06,0.1,0.1
			c0.04,0.04,0.08,0.09,0.12,0.13c0.08,0.1-0.08-0.15,0.02,0.04c0.15,0.27,0.2,0.35,0.26,0.67c0.04,0.17,0.05,0.39,0.03,0.64
			c-0.01,0.25-0.05,0.44-0.14,0.73c-0.14,0.45-0.38,0.81-0.73,1.14c0.01-0.01-0.2,0.17-0.1,0.09c0.09-0.08-0.12,0.08-0.11,0.07
			c-0.05,0.03-0.31,0.16-0.15,0.1c-0.12,0.05-0.26,0.09-0.39,0.11c0.16-0.02-0.32-0.03-0.16,0c-0.07-0.01-0.14-0.03-0.22-0.05
			c-0.03-0.01-0.21-0.07-0.08-0.02c-0.12-0.05-0.24-0.12-0.36-0.19c-0.03-0.02-0.18-0.13-0.07-0.05c-0.05-0.04-0.09-0.08-0.14-0.12
			c-0.11-0.1-0.22-0.21-0.32-0.33c-0.1-0.12,0.1,0.17-0.03-0.05c-0.03-0.05-0.06-0.09-0.09-0.14c-0.06-0.11-0.12-0.22-0.17-0.33
			c-0.06-0.14,0.06,0.19-0.02-0.06c-0.02-0.05-0.03-0.1-0.05-0.16c-0.02-0.07-0.04-0.13-0.05-0.2c-0.01-0.03-0.04-0.23-0.03-0.18
			c-0.02-0.21-0.01-0.45,0.05-0.66c0.02-0.06,0.04-0.13,0.06-0.19c0.02-0.05,0.02-0.05-0.01,0c0.02-0.05,0.04-0.1,0.07-0.14
			c0.06-0.12,0.13-0.23,0.2-0.34c-0.06,0.09,0.01-0.01,0.02-0.03c0.06-0.07,0.12-0.14,0.19-0.2c0.05-0.04,0.1-0.09,0.15-0.13
			c-0.1,0.08,0.08-0.05,0.09-0.06c0.04-0.03,0.09-0.05,0.13-0.08c0,0,0.21-0.1,0.1-0.06c0.14-0.06,0.3-0.1,0.45-0.12
			c0.38-0.07,0.61-0.52,0.52-0.88C98.78,132.44,98.4,132.29,98.01,132.34L98.01,132.34z"/>
	</g>
</g>
<g>
	<g>
		<path class="st0" d="M107.38,132.43c-1.21,0.65-2.52,1.55-2.67,3.03c-0.13,1.26,0.75,2.63,2.11,2.59
			c1.68-0.05,2.45-1.94,2.09-3.37c-0.2-0.79-0.65-1.5-1.09-2.16c-0.42-0.64-0.88-1.25-1.36-1.85c-0.53-0.65-1.1-1.26-1.74-1.79
			c-0.69-0.57-1.5-1.26-2.41-1.37c-0.72-0.09-0.9,0.85-0.53,1.28c0.26,0.31,0.66,0.51,0.98,0.74c0.26,0.18,0.51,0.37,0.75,0.58
			c0.52,0.45,1.01,0.93,1.48,1.44c0.48,0.53,0.93,1.09,1.34,1.67c0.41,0.57,0.87,1.17,1.04,1.87c0.11,0.45,0.05,1.11-0.43,1.34
			c-0.34,0.17-0.57-0.09-0.69-0.39c-0.47-1.18,0.94-2.01,1.78-2.5C108.73,133.13,108.1,132.05,107.38,132.43L107.38,132.43z"/>
	</g>
</g>
<g>
	<g>
		<path class="st0" d="M111.62,135.65c1.66,0.42,4.07,0.87,5.23-0.79c0.55-0.78,0.26-1.74-0.31-2.41c-0.48-0.57-1.2-0.86-1.93-0.93
			c-1.41-0.14-2.87,0.66-3.42,1.98c-0.58,1.41-0.19,3.16,0.94,4.19c1.42,1.3,3.71,1.2,5.12-0.07c0.18-0.16,0.17-0.45,0.03-0.63
			c-0.16-0.2-0.39-0.23-0.62-0.12c-0.54,0.25-1.08,0.35-1.65,0.34c-0.49-0.01-1.09-0.17-1.49-0.39c-0.13-0.07-0.25-0.15-0.38-0.24
			c-0.19-0.13,0.09,0.09-0.07-0.05c-0.05-0.05-0.1-0.09-0.15-0.14c-0.05-0.05-0.1-0.1-0.14-0.15c-0.01-0.01-0.15-0.19-0.05-0.06
			c-0.08-0.11-0.16-0.23-0.22-0.35c-0.13-0.24-0.17-0.34-0.25-0.67c-0.06-0.27-0.08-0.46-0.06-0.79c0.07-0.93,0.78-1.69,1.77-1.83
			c0.46-0.07,0.95,0.03,1.34,0.26c0.36,0.21,0.77,0.69,0.59,1.17c-0.07,0.19-0.25,0.35-0.5,0.47c0.01,0-0.21,0.1-0.1,0.05
			c-0.07,0.03-0.14,0.05-0.21,0.07c-0.17,0.05-0.35,0.09-0.53,0.1c-0.87,0.08-1.74-0.14-2.59-0.34c-0.36-0.08-0.73,0.12-0.83,0.48
			C111.05,135.17,111.26,135.56,111.62,135.65L111.62,135.65z"/>
	</g>
</g>
<g>
	<g>
		<path class="st0" d="M118.82,131.28c-0.01,1.51,0.11,3.01,0.34,4.5c0.23,1.5,0.56,2.94,1.25,4.29c0.18,0.35,0.64,0.48,0.98,0.33
			c0.39-0.17,0.53-0.52,0.47-0.93c-0.2-1.38-0.54-2.74-0.76-4.12c-0.21-1.35-0.29-2.71-0.29-4.07
			C120.82,130,118.83,129.99,118.82,131.28L118.82,131.28z"/>
	</g>
</g>
<g>
	<g>
		<path class="st0" d="M172.69,67.86c0.23,1.76,0.39,3.57,0.93,5.26c0.19,0.59,1.01,0.48,1.05-0.13c0.13-1.78-0.15-3.57-0.34-5.34
			c-0.05-0.5-0.4-0.89-0.94-0.83C172.85,66.89,172.62,67.36,172.69,67.86L172.69,67.86z"/>
	</g>
</g>
<g>
	<g>
		<path class="st0" d="M175.51,70.26c0.28-0.28,0.57-0.55,0.87-0.81c0.15-0.13,0.31-0.25,0.46-0.38c0.03-0.03,0.07-0.05,0.1-0.08
			c0.01-0.01,0.15-0.12,0.08-0.07c-0.06,0.05,0.05-0.04,0.06-0.04c0.04-0.03,0.09-0.07,0.13-0.1c0.31-0.23,0.63-0.44,0.95-0.66
			c0.19-0.13,0.39-0.26,0.57-0.4c0.04-0.03,0.08-0.07,0.13-0.1c-0.05,0.04,0.01-0.01,0.03-0.02c0.11-0.09,0.2-0.18,0.29-0.28
			c0.13-0.15,0.18-0.34,0.1-0.52c-0.07-0.16-0.25-0.32-0.44-0.3c-0.87,0.07-1.66,0.61-2.35,1.11c-0.7,0.51-1.36,1.08-1.96,1.71
			c-0.24,0.26-0.27,0.71,0.01,0.96C174.83,70.52,175.24,70.53,175.51,70.26L175.51,70.26z"/>
	</g>
</g>
<g>
	<g>
		<path class="st0" d="M174.65,71.5c1.25,0.63,2.59,1.15,4.01,1.15c0.25,0,0.48-0.18,0.55-0.42c0.06-0.23-0.04-0.53-0.26-0.63
			c-0.61-0.28-1.24-0.51-1.88-0.74c-0.3-0.1-0.59-0.22-0.89-0.33c-0.15-0.05-0.29-0.11-0.44-0.17c-0.03-0.01-0.24-0.1-0.11-0.04
			c-0.08-0.03-0.17-0.07-0.25-0.11c-0.35-0.15-0.81-0.11-1,0.27C174.2,70.84,174.28,71.32,174.65,71.5L174.65,71.5z"/>
	</g>
</g>
<g>
	<g>
		<path class="st0" d="M180.68,72.34c-0.03-0.74-0.06-1.57,0.51-2.13c0.19-0.18,0.45-0.32,0.72-0.27c0.25,0.04,0.42,0.17,0.58,0.35
			c0.37,0.41,0.47,0.99,0.51,1.6c0.06,0.81,0.02,1.98,0.83,2.44c0.28,0.16,0.74,0.02,0.8-0.33c0.07-0.46-0.01-0.72-0.11-1.17
			c-0.07-0.34-0.13-0.69-0.19-1.03c-0.12-0.68-0.34-1.33-0.77-1.88c-0.37-0.47-0.93-0.86-1.55-0.86c-0.64,0.01-1.21,0.4-1.54,0.94
			c-0.43,0.69-0.42,1.56-0.39,2.34C180.12,72.71,180.7,72.72,180.68,72.34L180.68,72.34z"/>
	</g>
</g>
<g>
	<g>
		<path class="st0" d="M186.24,70.43c-0.27,0.94-0.03,1.98,0.63,2.69c0.7,0.76,1.8,0.89,2.72,0.49c0.41-0.18,0.77-0.51,0.97-0.9
			c0.22-0.44,0.28-0.91,0.2-1.4c-0.13-0.88-0.72-1.59-1.54-1.92c-0.48-0.19-0.99-0.23-1.5-0.17c-0.24,0.03-0.48,0.09-0.71,0.18
			c-0.17,0.07-0.33,0.13-0.47,0.24c-0.14,0.1-0.23,0.26-0.33,0.4c-0.13,0.18-0.08,0.46,0.05,0.62c0.13,0.17,0.37,0.26,0.58,0.2
			c0.2-0.05,0.38-0.09,0.56-0.19c0.06-0.03,0.14-0.09,0.22-0.1c-0.17,0.03-0.02,0.01,0.02,0c0.05-0.02,0.09-0.03,0.14-0.04
			c0.08-0.02,0.16-0.04,0.23-0.06c0.02,0,0.03-0.01,0.05-0.01c0.07-0.01,0.06-0.01-0.02,0c0.01-0.01,0.08-0.01,0.1-0.01
			c0.08,0,0.16,0,0.24,0c0.04,0,0.1,0,0.14,0.01c-0.15-0.04,0.01,0,0.03,0.01c0.04,0.01,0.27,0.07,0.13,0.02
			c0.07,0.02,0.15,0.07,0.21,0.11c0.04,0.02,0.08,0.05,0.12,0.07c0.08,0.05-0.04-0.02-0.03-0.02c0.01-0.01,0.16,0.15,0.18,0.17
			c0.02,0.02,0.06,0.08,0.08,0.09c-0.01-0.01-0.09-0.13-0.03-0.04c0.04,0.06,0.07,0.11,0.11,0.17c0.02,0.04,0.04,0.07,0.05,0.11
			c0.04,0.07-0.03,0.02-0.02-0.05c-0.01,0.06,0.06,0.18,0.07,0.23c0.01,0.03,0.01,0.07,0.02,0.1c0.02,0.12-0.03,0.01,0-0.03
			c-0.02,0.02,0,0.17,0,0.2c0,0.02-0.02,0.15,0,0.03c0.02-0.12,0,0.01-0.01,0.03c-0.01,0.03-0.02,0.06-0.02,0.1
			c-0.02,0.07-0.09,0.15,0.01,0c-0.04,0.05-0.06,0.12-0.09,0.18c-0.01,0.02-0.09,0.13-0.01,0.02c0.08-0.11,0,0-0.02,0.02
			c-0.02,0.03-0.05,0.05-0.07,0.07c-0.05,0.05-0.13,0.07,0.05-0.03c-0.07,0.04-0.13,0.09-0.21,0.13c-0.02,0.01-0.05,0.02-0.07,0.04
			c-0.14,0.07,0.19-0.06,0.04-0.02c-0.07,0.02-0.13,0.04-0.2,0.05c-0.02,0-0.06,0.01-0.08,0.01c0.19-0.06,0.13-0.01,0.04-0.01
			c-0.08,0-0.17,0-0.25-0.01c-0.07,0-0.07-0.04,0.08,0.01c-0.04-0.01-0.08-0.02-0.12-0.03c-0.07-0.02-0.13-0.04-0.2-0.06
			c-0.02-0.01-0.05-0.02-0.08-0.03c0.2,0.04,0.12,0.05,0.04,0.01c-0.02-0.01-0.05-0.03-0.07-0.04c-0.02-0.01-0.05-0.03-0.07-0.04
			c-0.07-0.05-0.05-0.03,0.06,0.05c-0.05-0.06-0.12-0.1-0.18-0.16c-0.03-0.03-0.05-0.05-0.07-0.08c-0.11-0.12,0.11,0.16,0.03,0.03
			c-0.05-0.08-0.09-0.15-0.13-0.23c-0.04-0.07-0.04-0.17,0.01,0.04c-0.01-0.04-0.03-0.08-0.04-0.13c-0.03-0.08-0.05-0.17-0.06-0.26
			c0-0.02-0.03-0.17-0.01-0.03c0.03,0.14,0-0.05,0-0.08c0-0.09,0-0.18,0.01-0.27c0.01-0.08,0.04-0.03-0.01,0.07
			c0.02-0.04,0.02-0.12,0.04-0.17c0.1-0.39-0.14-0.86-0.55-0.95C186.77,69.79,186.36,70.02,186.24,70.43L186.24,70.43z"/>
	</g>
</g>
<g>
	<g>
		<path class="st0" d="M192.07,70.86c0.08,0.65,0.16,1.33,0.5,1.9c0.35,0.59,0.93,0.99,1.62,1.05c0.63,0.06,1.19-0.27,1.52-0.79
			c0.2-0.32,0.27-0.9,0.61-1.06c-0.25-0.25-0.51-0.5-0.76-0.76c-0.44,0.92,0.04,1.9,0.88,2.38c0.88,0.51,1.99,0.25,2.64-0.51
			c0.65-0.78,0.86-1.84,0.58-2.82c-0.25-0.88-1.17-2.28-2.25-1.82c-0.27,0.12-0.28,0.47-0.19,0.69c0.13,0.3,0.47,0.47,0.68,0.71
			c0.16,0.19,0.29,0.45,0.36,0.68c0.15,0.51,0.07,1.03-0.17,1.45c-0.2,0.35-0.53,0.68-0.97,0.56c-0.42-0.12-0.71-0.5-0.54-0.91
			c0.2-0.49-0.43-0.81-0.82-0.63c-0.37,0.18-0.61,0.49-0.82,0.83c-0.09,0.14-0.17,0.28-0.25,0.37c-0.09,0.11-0.06,0.08-0.14,0.13
			c0.02-0.02-0.05,0.02-0.07,0.02c-0.26,0.03-0.47-0.17-0.6-0.4c-0.19-0.35-0.25-0.85-0.3-1.28c-0.05-0.37-0.5-0.61-0.84-0.56
			C192.41,70.16,192.02,70.48,192.07,70.86L192.07,70.86z"/>
	</g>
</g>
<g>
	<g>
		<path class="st0" d="M200.64,70.64C200.65,70.64,200.65,70.63,200.64,70.64C200.64,70.63,200.64,70.64,200.64,70.64L200.64,70.64z
			"/>
	</g>
</g>
<g>
	<g>
		<path class="st0" d="M200.76,66.79c0.01,1.71,0.07,3.41,0.18,5.12c0.05,0.84,0.12,1.68,0.23,2.52c0.11,0.85,0.22,1.73,0.58,2.51
			c0.22,0.47,1.04,0.36,1.12-0.15c0.14-0.81,0.03-1.64-0.03-2.46c-0.07-0.84-0.17-1.67-0.25-2.5c-0.16-1.67-0.28-3.35-0.35-5.02
			C202.21,65.84,200.75,65.82,200.76,66.79L200.76,66.79z"/>
	</g>
</g>
<g>
	<g>
		<path class="st0" d="M204.48,72.32c0.98-0.08,2.22-0.32,2.59-1.38c0.28-0.78-0.24-1.88-1.13-1.91c-0.56-0.01-1.01,0.44-1.31,0.86
			c-0.31,0.43-0.48,0.93-0.54,1.45c-0.14,1.09,0.36,2.16,1.28,2.75c0.49,0.31,1.1,0.44,1.67,0.38c0.33-0.03,0.64-0.13,0.93-0.28
			c0.3-0.15,0.51-0.39,0.71-0.65c0.14-0.19,0.06-0.5-0.09-0.65c-0.17-0.17-0.44-0.2-0.65-0.08c-0.04,0.02-0.09,0.05-0.13,0.07
			c-0.1,0.05-0.01,0.01,0.01,0c-0.08,0.03-0.17,0.06-0.25,0.08c-0.08,0.03-0.16,0.05-0.24,0.06c-0.03,0.01-0.09,0.03-0.12,0.02
			c0.1-0.01,0.11-0.01,0.03-0.01c-0.02,0-0.05,0-0.07,0c-0.18,0.01-0.35,0.01-0.52,0c-0.08-0.01-0.04,0.03,0.03,0
			c-0.03,0.01-0.11-0.02-0.15-0.03c-0.09-0.02-0.18-0.05-0.26-0.08c-0.04-0.01-0.08-0.03-0.12-0.04c-0.04-0.01-0.19-0.04-0.02,0
			c-0.08-0.02-0.16-0.07-0.22-0.11c-0.04-0.03-0.25-0.17-0.11-0.06c-0.08-0.06-0.15-0.13-0.22-0.2c-0.02-0.02-0.05-0.05-0.07-0.08
			c-0.12-0.13,0.07,0.11-0.02-0.03c-0.05-0.07-0.09-0.15-0.14-0.23c-0.02-0.03-0.03-0.06-0.05-0.09c-0.08-0.15,0.03,0.12-0.02-0.04
			c-0.03-0.1-0.06-0.2-0.09-0.3c-0.01-0.03-0.01-0.07-0.02-0.1c-0.03-0.16,0,0.1-0.01-0.07c-0.01-0.09-0.01-0.18-0.01-0.27
			c0-0.22,0.01-0.29,0.07-0.5c0.08-0.32,0.23-0.62,0.47-0.87c0.09-0.1,0.22-0.17,0.29-0.17c-0.06,0,0.12,0.04,0.07,0.02
			c0.07,0.03,0.07,0.04,0.14,0.11c0.05,0.05,0.11,0.17,0.14,0.26c0.04,0.12,0.06,0.27,0.05,0.36c-0.04,0.32-0.35,0.54-0.64,0.67
			c-0.39,0.17-0.84,0.22-1.26,0.26c-0.23,0.02-0.43,0.18-0.43,0.43C204.05,72.1,204.25,72.34,204.48,72.32L204.48,72.32z"/>
	</g>
</g>
<g>
	<g>
		<path class="st0" d="M211.82,70.86c0.01,0.73,0.2,1.49,0.69,2.04c0.59,0.66,1.55,0.64,2.19,0.08c0.75-0.66,0.7-1.71,0.32-2.54
			c-0.34-0.75-0.89-1.45-1.46-2.04c-0.31-0.33-0.64-0.63-1-0.91c-0.2-0.16-0.4-0.3-0.62-0.42c-0.28-0.15-0.53-0.22-0.84-0.25
			c-0.45-0.05-0.81,0.56-0.54,0.93c0.52,0.72,1.2,1.02,1.8,1.62c0.57,0.57,0.99,1.07,1.35,1.82c0.03,0.07,0.1,0.3,0.11,0.38
			c0,0.01-0.01,0.24,0.01,0.11c-0.01,0.04-0.09,0.26-0.04,0.17c0,0-0.11,0.2-0.05,0.08c-0.06,0.06-0.07,0.07-0.01,0.02
			c-0.08,0.04-0.08,0.04-0.01,0.01c-0.08,0.02-0.09,0.02-0.04,0.01c0.05-0.01,0.04-0.01-0.03,0c0.09,0.02,0.09,0.02,0.02,0
			c-0.08-0.02-0.07-0.02,0.02,0.01c-0.08-0.05-0.09-0.1-0.03-0.01c-0.03-0.03-0.05-0.05-0.08-0.08c0.06,0.08,0.06,0.09,0.01,0.02
			c-0.03-0.05-0.06-0.1-0.09-0.16c-0.02-0.04-0.04-0.08-0.05-0.11c0.03,0.09,0.04,0.09,0,0.01c-0.04-0.14-0.08-0.28-0.11-0.42
			c-0.01-0.03-0.01-0.07-0.02-0.1c0.01,0.08,0.01,0.08,0,0c0-0.09-0.01-0.17-0.01-0.25c0-0.41-0.34-0.76-0.75-0.76
			C212.17,70.1,211.81,70.45,211.82,70.86L211.82,70.86z"/>
	</g>
</g>
<g>
	<g>
		<path class="st0" d="M219.43,70.74c-0.15-0.96-1.41-1.17-2.13-0.73c-0.75,0.46-1.1,1.44-0.9,2.28c0.21,0.87,1.05,1.48,1.94,1.43
			c0.84-0.05,1.63-0.62,1.84-1.45c-0.28,0.04-0.56,0.07-0.85,0.11c0.66,1.12,1.06,2.73,0.23,3.87c-0.65,0.89-1.74,0.82-2.55,0.21
			c-0.33-0.25-0.85,0.17-0.71,0.55c0.28,0.8,1.07,1.23,1.9,1.22c0.82-0.01,1.57-0.44,2.06-1.08c0.49-0.65,0.71-1.49,0.7-2.3
			c-0.02-1.01-0.4-1.89-0.77-2.81c-0.13-0.32-0.67-0.53-0.85-0.11c-0.16,0.35-0.45,0.55-0.83,0.59c-0.38,0.04-0.69-0.1-0.81-0.41
			c-0.11-0.28-0.11-0.68,0.09-0.95c0.11-0.14,0.53-0.34,0.58-0.14C218.53,71.72,219.54,71.42,219.43,70.74L219.43,70.74z"/>
	</g>
</g>
<g>
	<g>
		<path class="st0" d="M223.79,72.02c0.58-0.26,1.28-0.12,1.88-0.32c0.58-0.19,1.16-0.59,1.3-1.21c0.28-1.25-1.16-1.77-2.14-1.78
			c-0.64-0.01-1.32,0.07-1.84,0.48c-0.42,0.33-0.69,0.82-0.8,1.33c-0.27,1.26,0.36,2.4,1.39,3.09c0.63,0.43,1.44,0.64,2.19,0.7
			c0.89,0.06,1.8-0.17,2.65-0.38c0.56-0.14,0.47-1.05-0.13-1.02c-0.63,0.03-1.26,0.08-1.89,0.06c-0.51-0.01-1.04-0.03-1.54-0.17
			c-0.74-0.21-1.58-0.7-1.77-1.51c-0.18-0.77,0.19-1.58,0.98-1.78c0.44-0.11,0.97-0.08,1.4,0.04c0.26,0.07,0.65,0.22,0.63,0.55
			c-0.02,0.39-0.58,0.57-0.89,0.61c-0.63,0.09-1.27-0.01-1.88,0.24c-0.33,0.13-0.54,0.43-0.39,0.79
			C223.1,72.08,223.47,72.16,223.79,72.02L223.79,72.02z"/>
	</g>
</g>
<g>
	<g>
		<path class="st0" d="M174.25,87.33c0.15,0.32,0.3,0.63,0.45,0.95c0.15,0.32,0.35,0.6,0.53,0.9c0.17,0.27,0.5,0.39,0.8,0.27
			c0.29-0.12,0.46-0.44,0.38-0.75c-0.09-0.34-0.17-0.67-0.3-1c-0.13-0.32-0.26-0.65-0.39-0.97c-0.04-0.14-0.11-0.27-0.21-0.37
			c-0.06-0.04-0.11-0.08-0.17-0.13c-0.21-0.13-0.48-0.13-0.7-0.04c-0.21,0.09-0.35,0.23-0.44,0.43
			C174.11,86.87,174.14,87.09,174.25,87.33L174.25,87.33z"/>
	</g>
</g>
<g>
	<g>
		<path class="st0" d="M173.99,82.65c-0.15,0.05-0.29,0.13-0.39,0.26c-0.1,0.12-0.18,0.26-0.21,0.42c-0.07,0.3-0.03,0.63,0.12,0.9
			c0.09,0.15,0.21,0.28,0.36,0.37c0.08,0.05,0.16,0.08,0.25,0.11c0.15,0.04,0.3,0.01,0.43-0.06c0.06-0.03,0.12-0.08,0.16-0.12
			c0.3-0.32,0.3-0.78,0.11-1.15c-0.23-0.45-0.9-0.76-1.3-0.34c-0.12,0.12-0.17,0.29-0.12,0.46c0.04,0.16,0.18,0.31,0.34,0.34
			c0.02,0,0.03,0.01,0.05,0.02c-0.04-0.02-0.08-0.03-0.12-0.05c0.12,0.05,0.14,0.07,0.27,0.07c0.02,0,0.03,0,0.05,0
			c-0.04-0.01-0.09-0.01-0.13-0.02c0.03,0,0.06,0.01,0.09,0.02c-0.04-0.02-0.08-0.03-0.12-0.05c0.04,0.02,0.07,0.03,0.1,0.06
			c-0.04-0.03-0.07-0.06-0.11-0.08c0.04,0.04,0.08,0.08,0.12,0.12c-0.03-0.04-0.06-0.08-0.09-0.11c0.04,0.05,0.07,0.1,0.09,0.15
			c-0.02-0.04-0.04-0.09-0.05-0.13c0.02,0.05,0.03,0.1,0.04,0.15c-0.01-0.05-0.01-0.09-0.02-0.14c0,0.04,0,0.08,0,0.12
			c0.01-0.04,0.01-0.09,0.02-0.13c0,0.03-0.01,0.07-0.03,0.1c0.02-0.04,0.03-0.08,0.05-0.12c-0.01,0.02-0.02,0.05-0.04,0.07
			c0.03-0.04,0.05-0.07,0.08-0.11c-0.03,0.03-0.05,0.06-0.08,0.09c0.12-0.05,0.25-0.1,0.37-0.15c-0.02,0-0.04,0-0.06,0
			c0.04,0.01,0.09,0.01,0.13,0.02c-0.04-0.01-0.08-0.02-0.13-0.03c0.04,0.02,0.08,0.03,0.12,0.05c-0.04-0.02-0.08-0.04-0.12-0.07
			c0.03,0.02,0.07,0.05,0.1,0.07c-0.04-0.03-0.08-0.07-0.12-0.12c0.02,0.03,0.05,0.06,0.07,0.1c-0.04-0.05-0.07-0.11-0.1-0.18
			c0.01,0.04,0.03,0.07,0.04,0.11c-0.02-0.06-0.04-0.12-0.05-0.19c0,0.04,0.01,0.07,0.01,0.11c-0.01-0.06-0.01-0.13,0-0.19
			c0,0.03-0.01,0.07-0.01,0.1c0-0.03,0.01-0.07,0.02-0.1c0-0.01,0.02-0.03,0.02-0.05c0,0-0.04,0.1-0.02,0.06
			c0-0.01,0.01-0.02,0.01-0.03c0.01-0.01,0.01-0.03,0.02-0.04c0-0.01,0.01-0.02,0.02-0.02c0,0-0.06,0.08-0.04,0.05
			c0.03-0.03,0.05-0.05,0.08-0.07c-0.02,0.02-0.05,0.04-0.07,0.06c0.02-0.01,0.03-0.02,0.05-0.03c0.15-0.09,0.21-0.27,0.14-0.43
			C174.34,82.71,174.16,82.59,173.99,82.65L173.99,82.65z"/>
	</g>
</g>
<g>
	<g>
		<path class="st0" d="M177.9,88.95c-0.07-0.57-0.1-1.25,0.17-1.78c0.24-0.46,0.66-0.75,1.11-0.76c0.09,0,0.18,0.03,0.24,0.06
			c0.11,0.07,0.15,0.1,0.26,0.22c0.05,0.06,0.05,0.06,0.02,0.02c0.02,0.03,0.05,0.07,0.07,0.1c0.04,0.05,0.07,0.11,0.1,0.16
			c0.09,0.15,0.17,0.31,0.25,0.46c0.17,0.3,0.3,0.62,0.46,0.93c0.07,0.15,0.15,0.3,0.23,0.44c0.12,0.22,0.26,0.38,0.46,0.52
			c0.31,0.21,0.65-0.04,0.77-0.32c0.14-0.34,0.03-0.75-0.08-1.09c-0.11-0.34-0.28-0.67-0.48-0.97c-0.36-0.53-0.82-1.11-1.42-1.37
			c-0.57-0.24-1.17-0.17-1.72,0.1c-0.53,0.27-0.91,0.74-1.12,1.29c-0.26,0.67-0.27,1.39-0.18,2.09c0.03,0.26,0.21,0.46,0.49,0.43
			C177.82,89.45,177.93,89.2,177.9,88.95L177.9,88.95z"/>
	</g>
</g>
<g>
	<g>
		<path class="st0" d="M184.78,84.03c-0.21,0.14-0.41,0.28-0.62,0.42c-0.47,0.32-0.51,0.85-0.16,1.28c0.04,0.05,0.09,0.11,0.13,0.16
			c0.01,0.02,0.11,0.16,0.05,0.06c0.07,0.1,0.14,0.21,0.21,0.31c0.14,0.21,0.28,0.41,0.43,0.62c0.3,0.43,0.62,0.85,0.89,1.29
			c0.01,0.02,0.03,0.04,0.04,0.06c0.02,0.04,0.02,0.04,0,0c-0.04-0.07-0.04-0.14-0.01-0.23c0.04-0.06,0.08-0.13,0.11-0.19
			c0.04-0.04,0.13-0.08,0.03-0.03c0.19-0.08,0.06-0.02,0.01-0.01c-0.24,0.07-0.47,0.14-0.71,0.21c-0.48,0.12-0.98,0.21-1.46,0.33
			c-0.24,0.06-0.45,0.26-0.51,0.5c-0.03,0.12-0.04,0.25,0,0.36c0.12,0.33,0.34,0.49,0.68,0.53c0.64,0.07,1.31-0.04,1.93-0.2
			c0.7-0.19,1.56-0.57,1.45-1.45c-0.04-0.35-0.21-0.63-0.41-0.92c-0.18-0.26-0.36-0.53-0.54-0.79c-0.36-0.53-0.73-1.05-1.05-1.6
			c-0.1,0.37-0.2,0.74-0.3,1.11c0.22-0.11,0.45-0.22,0.67-0.33c0.41-0.2,0.56-0.81,0.32-1.18
			C185.73,83.98,185.18,83.76,184.78,84.03L184.78,84.03z"/>
	</g>
</g>
<g>
	<g>
		<path class="st0" d="M189.7,85.85C189.71,85.85,189.71,85.85,189.7,85.85C189.7,85.85,189.7,85.85,189.7,85.85L189.7,85.85z"/>
	</g>
</g>
<g>
	<g>
		<path class="st0" d="M188.96,86.66c-0.07,0.47-0.11,0.94-0.06,1.41c0.06,0.52,0.16,1.06,0.42,1.53c0.2,0.35,0.6,0.63,1,0.62
			c0.3-0.01,0.54-0.18,0.69-0.43c0.1-0.18,0.12-0.38,0.12-0.58c-0.01-0.28-0.09-0.5-0.15-0.76c-0.05-0.2-0.09-0.41-0.12-0.62
			c0.01,0.09,0.02,0.17,0.03,0.26c-0.04-0.34-0.04-0.69,0-1.03c-0.01,0.08-0.02,0.17-0.03,0.25c0.01-0.04,0.01-0.09,0.02-0.13
			c0.04-0.27,0.04-0.51-0.1-0.76c-0.12-0.21-0.36-0.41-0.6-0.46c-0.25-0.06-0.53-0.04-0.76,0.1C189.22,86.19,189,86.4,188.96,86.66
			L188.96,86.66z"/>
	</g>
</g>
<g>
	<g>
		<path class="st0" d="M188.49,82.98c-0.04,0.13-0.04,0.29,0,0.43c0.04,0.14,0.13,0.32,0.25,0.42c0.14,0.11,0.28,0.2,0.46,0.24
			c0.23,0.04,0.46,0.04,0.67-0.09c0.1-0.06,0.19-0.14,0.26-0.23c0.1-0.13,0.13-0.26,0.11-0.42c0-0.03,0-0.06-0.01-0.09
			c-0.02-0.05-0.04-0.11-0.06-0.16c-0.07-0.15-0.26-0.24-0.41-0.24c-0.01,0-0.02,0-0.03,0c0.04,0.01,0.09,0.01,0.13,0.02
			c-0.01,0-0.01,0-0.02,0c-0.04-0.01-0.11-0.02-0.15-0.02c-0.08,0-0.15,0.02-0.22,0.05c-0.05,0.02-0.09,0.04-0.13,0.06
			c0.05-0.02,0.1-0.04,0.14-0.06c-0.04,0.01-0.08,0.02-0.11,0.03c-0.04,0.01-0.08,0.02-0.12,0.03c0.05-0.01,0.1-0.01,0.15-0.02
			c-0.07,0.01-0.15,0-0.22-0.01c0.05,0.01,0.09,0.01,0.14,0.02c-0.07-0.01-0.15-0.03-0.21-0.05c0.04,0.02,0.08,0.03,0.11,0.05
			c-0.03-0.01-0.06-0.03-0.09-0.05c0.03,0.02,0.06,0.05,0.09,0.07c-0.02-0.02-0.05-0.04-0.06-0.06c0.02,0.03,0.04,0.06,0.07,0.09
			c-0.02-0.02-0.03-0.05-0.04-0.07c-0.02-0.03-0.04-0.05-0.06-0.08c-0.03-0.02-0.05-0.04-0.08-0.06c-0.07-0.04-0.15-0.05-0.23-0.04
			C188.65,82.73,188.53,82.83,188.49,82.98L188.49,82.98z"/>
	</g>
</g>
<g>
	<g>
		<path class="st0" d="M195.76,85.77c-0.78,0.14-1.6,0.33-2.2,0.89c-0.51,0.48-0.74,1.27-0.52,1.94c0.24,0.77,1,1.1,1.76,0.94
			c0.78-0.17,1.38-0.79,1.58-1.54c-0.22,0.06-0.43,0.12-0.65,0.18c1.19,1.16,1.16,3.38,0.04,4.57c-1.06,1.12-2.81,1.33-4.25,0.98
			c-0.58-0.14-0.84,0.61-0.38,0.92c1.82,1.25,4.32,0.4,5.52-1.3c0.58-0.83,0.85-1.91,0.77-2.91c-0.09-1.08-0.49-1.97-1.14-2.81
			c-0.14-0.19-0.52-0.13-0.61,0.08c-0.18,0.43-0.52,0.8-0.99,0.9c-0.43,0.09-0.69-0.11-0.7-0.54c-0.03-1,1.27-1.24,2.01-1.4
			C196.58,86.54,196.34,85.66,195.76,85.77L195.76,85.77z"/>
	</g>
</g>
<g>
	<g>
		<path class="st0" d="M197.62,84.35c0.04,1.34,0.18,2.66,0.43,3.98c0.16,0.83,1.44,0.8,1.63,0.01c0.03-0.14,0.07-0.28,0.11-0.42
			c0.02-0.06,0.03-0.12,0.05-0.17c0.01-0.03,0.02-0.07,0.03-0.1c-0.03,0.07-0.03,0.07-0.01,0.02c0.05-0.12,0.12-0.24,0.18-0.35
			c0.02-0.04,0.15-0.19,0.04-0.06c0.04-0.04,0.08-0.08,0.11-0.12c0.06-0.06,0.1-0.08,0.01-0.02c0.06-0.04,0.12-0.07,0.17-0.1
			c-0.13,0.08,0,0,0.07-0.02c-0.12,0.03,0.07,0,0.1,0c-0.16,0,0.26,0.08,0.12,0.02c0.07,0.03,0.14,0.07,0.21,0.11
			c0.01,0,0.2,0.15,0.09,0.06c0.12,0.1,0.23,0.21,0.33,0.32c0.04,0.04,0.11,0.15,0.04,0.05c0.05,0.07,0.09,0.13,0.13,0.2
			c0.16,0.26,0.28,0.53,0.42,0.79c0.34,0.61,0.88,1.23,1.58,1.38c0.51,0.1,0.82-0.38,0.63-0.82c-0.24-0.58-0.58-1.27-0.94-1.86
			c-0.44-0.72-1.01-1.36-1.8-1.69c-0.8-0.33-1.71-0.16-2.33,0.45c-0.51,0.5-0.79,1.23-1.01,1.89c0.54,0,1.09,0,1.63,0.01
			c-0.19-1.18-0.32-2.31-0.37-3.54c-0.02-0.44-0.37-0.87-0.84-0.85C198.02,83.52,197.6,83.88,197.62,84.35L197.62,84.35z"/>
	</g>
</g>
<g>
	<g>
		<path class="st0" d="M206.28,83.71c0.17,1.63,0.26,3.3,0.83,4.85c0.09,0.25,0.28,0.43,0.56,0.44c0.24,0,0.52-0.18,0.57-0.43
			c0.07-0.41,0.12-0.83,0.14-1.25c0.02-0.4-0.01-0.8-0.02-1.2c-0.02-0.8-0.12-1.6-0.19-2.39c-0.04-0.49-0.4-0.97-0.94-0.95
			C206.77,82.78,206.22,83.18,206.28,83.71L206.28,83.71z"/>
	</g>
</g>
<g>
	<g>
		<path class="st0" d="M205.93,85.61c1.75-0.05,3.52-0.05,5.25-0.36c0.23-0.04,0.39-0.31,0.35-0.53c-0.04-0.25-0.23-0.4-0.47-0.42
			c-1.7-0.16-3.42-0.01-5.12,0.09c-0.33,0.02-0.61,0.27-0.62,0.61C205.31,85.31,205.59,85.62,205.93,85.61L205.93,85.61z"/>
	</g>
</g>
<g>
	<g>
		<path class="st0" d="M175.3,117.89c0.13,2,0.3,4.04,1.03,5.92c0.23,0.59,1.09,0.54,1.13-0.14c0.1-1.93-0.11-3.85-0.16-5.77
			c-0.01-0.52-0.44-1.02-0.99-1C175.79,116.92,175.26,117.34,175.3,117.89L175.3,117.89z"/>
	</g>
</g>
<g>
	<g>
		<path class="st0" d="M176.06,116.97c0.97-0.49,2.38-1.17,3.38-0.36c0.36,0.29,0.56,0.68,0.42,1.13c-0.07,0.22-0.21,0.39-0.37,0.54
			c-0.16,0.15-0.41,0.29-0.6,0.35c-0.34,0.11-0.69,0.14-1.05,0.13c-0.43-0.01-0.89-0.12-1.28,0.03c-0.42,0.17-0.53,0.68-0.13,0.95
			c0.39,0.26,0.91,0.25,1.36,0.23c0.44-0.01,0.89-0.07,1.31-0.21c0.76-0.27,1.42-0.81,1.7-1.58c0.56-1.51-0.94-2.79-2.35-2.83
			c-1-0.03-1.94,0.43-2.8,0.89C175.18,116.5,175.59,117.2,176.06,116.97L176.06,116.97z"/>
	</g>
</g>
<g>
	<g>
		<path class="st0" d="M182.44,118.41c-0.02-0.02-0.04-0.04-0.06-0.07c-0.05-0.06-0.04-0.05,0.02,0.03c-0.02,0-0.06-0.09-0.08-0.11
			c-0.03-0.05-0.06-0.11-0.09-0.16c-0.07-0.13,0.04,0.13,0,0c-0.03-0.1-0.06-0.21-0.08-0.31c-0.01-0.07-0.01-0.06,0,0.04
			c0-0.03-0.01-0.06-0.01-0.09c0-0.05,0-0.09,0-0.14c0-0.06,0.01-0.12,0.01-0.19c0.01-0.15-0.03,0.12,0-0.01
			c0.02-0.11,0.05-0.21,0.08-0.32c0.01-0.03,0.02-0.06,0.03-0.09c-0.04,0.09-0.04,0.11-0.01,0.04c0.02-0.04,0.04-0.08,0.06-0.12
			c0.03-0.05,0.07-0.11,0.1-0.16c0.07-0.12-0.1,0.12,0.02-0.02c0.08-0.09,0.16-0.16,0.25-0.24c0.04-0.04,0.02-0.02-0.06,0.04
			c0.06-0.05,0.13-0.1,0.19-0.15c-0.17,0.13-0.01,0.01,0.03-0.01c0.1-0.06,0.2-0.12,0.3-0.17c0.17-0.08-0.11,0.03,0.03-0.01
			c0.06-0.02,0.11-0.04,0.17-0.05c0.11-0.03,0.22-0.06,0.34-0.08c0.04-0.01,0.21-0.06,0.05-0.01c0.05-0.02,0.12-0.01,0.18-0.01
			c0.24-0.01,0.48-0.03,0.72-0.01c0.53,0.04,0.74-0.76,0.27-0.99c-0.26-0.13-0.52-0.23-0.8-0.27c-0.22-0.03-0.43-0.03-0.65-0.01
			c-0.51,0.05-1.03,0.2-1.46,0.48c-0.86,0.57-1.32,1.62-1.19,2.64c0.07,0.57,0.3,1.09,0.72,1.5c0.25,0.24,0.7,0.26,0.94-0.01
			C182.69,119.08,182.69,118.68,182.44,118.41L182.44,118.41z"/>
	</g>
</g>
<g>
	<g>
		<path class="st0" d="M186.1,118.52c1.08,0.07,2.34-0.06,3.03-1.01c0.59-0.8,0.54-2.04-0.38-2.56c-1.03-0.59-2.28,0.02-2.84,0.97
			c-0.64,1.07-0.29,2.38,0.48,3.28c0.46,0.54,1.1,0.87,1.78,1.04c0.71,0.17,1.41,0.14,2.13,0c0.62-0.12,0.48-1.09-0.14-1.09
			c-0.46,0-0.86-0.05-1.31-0.14c-0.47-0.1-0.73-0.23-1.14-0.48c-0.05-0.03-0.1-0.06-0.14-0.09c-0.02-0.01-0.1-0.08-0.02-0.02
			c-0.07-0.06-0.14-0.12-0.21-0.18c-0.18-0.18-0.21-0.21-0.35-0.45c-0.05-0.08-0.09-0.16-0.12-0.24c0.04,0.08-0.01-0.02-0.01-0.03
			c-0.02-0.05-0.04-0.11-0.05-0.16c-0.05-0.2-0.07-0.32-0.05-0.55c0.01-0.07,0.07-0.31,0.12-0.4c0.08-0.16,0.17-0.28,0.29-0.41
			c0.23-0.22,0.53-0.37,0.87-0.35c0.72,0.04,0.8,0.8,0.49,1.33c-0.46,0.79-1.62,0.76-2.41,0.7
			C185.56,117.63,185.56,118.49,186.1,118.52L186.1,118.52z"/>
	</g>
</g>
<g>
	<g>
		<path class="st0" d="M193.76,115.79c-0.91,0.44-1.48,1.55-1.22,2.55c0.26,0.99,1.3,1.58,2.29,1.38c1.11-0.23,1.52-1.36,1.37-2.37
			c-0.15-1.05-0.81-2-1.44-2.83c-0.39-0.5-0.81-0.98-1.27-1.42c-0.24-0.23-0.5-0.45-0.76-0.65c-0.3-0.23-0.63-0.49-1.03-0.36
			c-0.23,0.08-0.41,0.27-0.41,0.52c0.01,0.6,0.7,0.96,1.1,1.31c0.41,0.36,0.79,0.74,1.14,1.16c0.34,0.39,0.64,0.81,0.91,1.25
			c0.25,0.4,0.49,0.81,0.58,1.27c0.03,0.18,0.05,0.36-0.02,0.53c-0.06,0.15-0.16,0.25-0.25,0.29c0.06-0.03-0.14,0.04-0.17,0.05
			c0.05-0.01-0.15,0-0.19-0.01c-0.08-0.01-0.25-0.07-0.36-0.14c-0.1-0.06-0.19-0.15-0.24-0.28c-0.04-0.09-0.06-0.25-0.05-0.39
			c0.04-0.37,0.29-0.68,0.61-0.85C195.03,116.44,194.44,115.46,193.76,115.79L193.76,115.79z"/>
	</g>
</g>
<g>
	<g>
		<path class="st0" d="M197.55,117.61c0.08,0.28,0.17,0.56,0.25,0.84c0.08,0.28,0.19,0.56,0.3,0.83c0.04,0.11,0.09,0.19,0.19,0.25
			c0.08,0.05,0.21,0.07,0.3,0.04c0.1-0.03,0.2-0.09,0.25-0.19c0.05-0.1,0.05-0.19,0.04-0.3c-0.04-0.29-0.07-0.59-0.13-0.88
			c-0.06-0.29-0.12-0.58-0.18-0.86c-0.06-0.27-0.38-0.46-0.65-0.38C197.66,117.04,197.46,117.32,197.55,117.61L197.55,117.61z"/>
	</g>
</g>
<g>
	<g>
		<path class="st0" d="M197.5,115.64c0.07,0.02,0.15,0.04,0.23,0.03c0.14-0.01,0.23-0.03,0.35-0.1c0.01-0.01,0.02-0.01,0.04-0.02
			c0.05-0.04,0.1-0.07,0.15-0.12c0.03-0.03,0.05-0.06,0.07-0.09c0.02-0.03,0.05-0.06,0.07-0.09c0.01-0.01,0.01-0.03,0.02-0.04
			c0.03-0.06,0.05-0.11,0.07-0.17c0-0.01,0.01-0.03,0.01-0.04c0-0.01,0-0.02,0-0.03c0.01-0.05,0.02-0.11,0.02-0.16
			c0-0.03-0.01-0.07-0.01-0.09c0-0.03-0.01-0.06-0.01-0.09c0-0.02-0.01-0.03-0.01-0.05c-0.02-0.07-0.05-0.14-0.09-0.2
			c-0.08-0.1-0.14-0.18-0.26-0.24c-0.16-0.09-0.35-0.09-0.51,0c0,0,0,0,0,0c0,0,0,0,0,0c-0.04,0.03-0.07,0.05-0.1,0.08
			c-0.06,0.06-0.1,0.13-0.12,0.21c-0.02,0.07-0.01,0.09-0.02,0.13c0.01-0.04,0.01-0.08,0.02-0.12c-0.01,0.04-0.02,0.03-0.02,0.13
			c0,0.07,0.01,0.13,0.04,0.19c0.01,0.02,0.02,0.04,0.03,0.07c0.03,0.04,0.07,0.08,0.1,0.12c-0.03-0.04-0.06-0.07-0.08-0.11
			c0.01,0.01,0.02,0.03,0.03,0.05c-0.02-0.04-0.04-0.09-0.05-0.13c0.01,0.02,0.01,0.04,0.01,0.06c-0.01-0.05-0.01-0.09-0.02-0.14
			c0,0.03,0,0.05,0,0.08c0.01-0.05,0.01-0.09,0.02-0.14c-0.01,0.06-0.02,0.13-0.03,0.19c0.01-0.05,0.01-0.09,0.02-0.14
			c-0.01,0.04-0.01,0.07-0.03,0.1c0.02-0.04,0.04-0.09,0.05-0.13c-0.01,0.03-0.03,0.06-0.05,0.09c0.03-0.04,0.06-0.08,0.09-0.11
			c-0.02,0.02-0.04,0.04-0.06,0.06c0.04-0.03,0.08-0.06,0.12-0.09c-0.02,0.01-0.04,0.02-0.06,0.03c0.05-0.02,0.09-0.04,0.14-0.06
			c-0.02,0.01-0.03,0.01-0.05,0.01c0.05-0.01,0.09-0.01,0.14-0.02c-0.02,0-0.03,0-0.05,0c0.05,0.01,0.09,0.01,0.14,0.02
			c-0.02,0-0.03-0.01-0.05-0.01c-0.07-0.02-0.14-0.03-0.21-0.01c-0.07,0-0.14,0.02-0.21,0.07c-0.07,0.04-0.12,0.09-0.16,0.15
			c-0.05,0.05-0.08,0.12-0.1,0.19c-0.03,0.14-0.02,0.3,0.06,0.42c0.03,0.04,0.06,0.08,0.09,0.12
			C197.32,115.57,197.4,115.62,197.5,115.64L197.5,115.64z"/>
	</g>
</g>
<g>
	<g>
		<path class="st0" d="M203.76,115.68c-1.1-0.33-2.28,0.6-2.44,1.69c-0.04,0.3-0.05,0.61,0.06,0.9c0.11,0.29,0.25,0.53,0.46,0.76
			c0.39,0.41,0.92,0.61,1.47,0.63c0.26,0.01,0.54-0.03,0.79-0.12c0.2-0.07,0.38-0.15,0.54-0.3c0.11-0.1,0.2-0.23,0.28-0.35
			c0.12-0.19,0.08-0.46-0.05-0.64c-0.13-0.17-0.38-0.28-0.6-0.21c-0.05,0.01-0.09,0.03-0.14,0.04c-0.02,0-0.04,0.01-0.07,0.01
			c-0.05,0.01-0.04,0.01,0.03,0c0.12-0.01,0.08-0.01-0.11,0.01c-0.1,0.02-0.19,0.05-0.29,0.06c0.06-0.01,0.12-0.02,0.18-0.02
			c-0.16,0.02-0.33,0.01-0.49-0.01c0.06,0.01,0.13,0.02,0.19,0.03c-0.14-0.02-0.27-0.06-0.4-0.11c0.06,0.03,0.12,0.05,0.19,0.08
			c-0.17-0.07-0.35-0.16-0.5-0.27c0.05,0.04,0.11,0.08,0.16,0.12c-0.09-0.07-0.18-0.15-0.25-0.24c0.04,0.05,0.08,0.11,0.13,0.16
			c-0.06-0.08-0.11-0.17-0.15-0.26c0.03,0.06,0.05,0.13,0.08,0.19c-0.04-0.09-0.06-0.19-0.08-0.29c0.01,0.06,0.02,0.13,0.02,0.19
			c-0.01-0.1-0.01-0.19,0-0.29c-0.01,0.06-0.02,0.12-0.02,0.19c0.02-0.11,0.05-0.21,0.09-0.31c-0.02,0.06-0.05,0.11-0.07,0.17
			c0.05-0.12,0.12-0.23,0.19-0.34c-0.04,0.05-0.07,0.1-0.11,0.15c0.07-0.09,0.16-0.18,0.25-0.26c-0.05,0.04-0.1,0.08-0.15,0.11
			c0.09-0.07,0.19-0.13,0.3-0.18c-0.06,0.02-0.12,0.05-0.17,0.07c0.09-0.04,0.18-0.06,0.28-0.08c-0.06,0.01-0.12,0.01-0.18,0.02
			c0.06-0.01,0.12-0.01,0.19-0.01c0.13,0-0.12-0.03-0.06-0.01c0.03,0.01,0.07,0.01,0.1,0.02c0.35,0.09,0.76-0.12,0.84-0.49
			C204.33,116.15,204.13,115.79,203.76,115.68L203.76,115.68z"/>
	</g>
</g>
<g>
	<g>
		<path class="st0" d="M206.49,114.68c0.33,1.9,0.61,3.83,1.17,5.68c0.15,0.5,0.93,0.43,0.93-0.12c0-1.93-0.29-3.85-0.53-5.76
			c-0.06-0.47-0.38-0.85-0.9-0.79C206.67,113.76,206.41,114.21,206.49,114.68L206.49,114.68z"/>
	</g>
</g>
<g>
	<g>
		<path class="st0" d="M207.03,116.61c1.2-0.15,2.42-0.11,3.63-0.07c0.39,0.01,0.48-0.59,0.09-0.68c-1.26-0.3-2.55-0.25-3.83-0.07
			C206.46,115.85,206.56,116.67,207.03,116.61L207.03,116.61z"/>
	</g>
</g>
<g>
	<g>
		<path class="st0" d="M212.82,117.1c-0.13,0.97-0.32,1.96-0.34,2.94c-0.01,0.3,0.46,0.45,0.59,0.16c0.4-0.89,0.67-1.84,0.98-2.77
			c0.1-0.32-0.13-0.71-0.45-0.78C213.3,116.58,212.87,116.74,212.82,117.1L212.82,117.1z"/>
	</g>
</g>
<g>
	<g>
		<path class="st0" d="M212.3,113.95c0.05,0.07,0.09,0.14,0.14,0.21c0.07,0.1,0.15,0.2,0.22,0.29c0.05,0.07,0.11,0.13,0.17,0.18
			c0.08,0.08,0.17,0.17,0.27,0.23c0.06,0.03,0.14,0.06,0.2,0.08c0.08,0.03,0.19,0.03,0.27,0c0.09-0.03,0.18-0.09,0.23-0.17
			c0.02-0.03,0.03-0.07,0.04-0.11c0.03-0.09,0.02-0.19-0.01-0.29c0-0.02-0.01-0.04-0.01-0.05c-0.01-0.03-0.02-0.05-0.03-0.08
			c-0.01-0.02-0.02-0.04-0.03-0.06c-0.03-0.03-0.05-0.07-0.08-0.1c-0.03-0.04-0.06-0.07-0.08-0.11c-0.05-0.07-0.1-0.14-0.16-0.2
			c-0.14-0.13-0.28-0.25-0.42-0.37c-0.09-0.07-0.19-0.13-0.32-0.13c-0.1,0-0.19,0.03-0.28,0.1c-0.08,0.06-0.14,0.14-0.16,0.24
			C212.23,113.72,212.23,113.85,212.3,113.95L212.3,113.95z"/>
	</g>
</g>
<g>
	<g>
		<path class="st0" d="M217.2,116.64c-0.14,0.78-0.18,1.59,0.15,2.33c0.34,0.78,1.22,1.26,2.06,1.01c0.94-0.28,1.46-1.17,1.45-2.12
			c0-0.49-0.15-0.98-0.36-1.42c-0.19-0.39-0.49-0.78-0.88-0.98c-0.53-0.28-1.16-0.24-1.6,0.19c-0.2,0.2-0.33,0.46-0.36,0.75
			c-0.03,0.33,0.12,0.59,0.4,0.77c0.31,0.2,0.71-0.07,0.71-0.41c0-0.09,0,0.01-0.01,0.02c0.01-0.02,0.01-0.05,0.02-0.07
			c0.06-0.28,0.03-0.13,0.01-0.08c0.03-0.11-0.01,0.03-0.01,0.03c0,0,0.04-0.06,0.04-0.07c0.06-0.11-0.02,0.03-0.02,0.02
			c0,0.01,0.05-0.06,0.06-0.06c-0.07,0.05-0.08,0.06-0.04,0.04c0.02-0.01,0.04-0.02,0.06-0.03c0,0,0.07-0.04,0.08-0.04
			c-0.02,0.01-0.05,0.02-0.07,0.03c0.01,0,0.03-0.01,0.04-0.01c0.1,0.03-0.01-0.04-0.03,0c0-0.01,0.07,0,0.09,0
			c-0.12,0-0.05-0.01-0.01,0.01c0.11,0.04,0.01,0-0.01-0.01c0.03,0.01,0.06,0.03,0.09,0.04c0.02,0.01,0.15,0.1,0.03,0.01
			c0.05,0.04,0.1,0.09,0.15,0.14c0.03,0.03,0.14,0.18,0.06,0.07c0.08,0.13,0.16,0.25,0.23,0.39c0.02,0.04,0.04,0.09,0.06,0.13
			c-0.01-0.03-0.03-0.1,0,0.02c0.03,0.07,0.05,0.15,0.07,0.22c0.02,0.08,0.04,0.15,0.05,0.23c0-0.03-0.01-0.09,0,0.02
			c0,0.05,0,0.1,0,0.14c0,0.04,0,0.08,0,0.11c-0.01,0.09,0.02-0.07,0,0.02c-0.01,0.04-0.02,0.07-0.03,0.11
			c0,0.01-0.04,0.12-0.02,0.07c0.02-0.05-0.02,0.04-0.02,0.05c-0.01,0.03-0.03,0.06-0.05,0.08c-0.01,0.02-0.07,0.1-0.02,0.04
			c0.05-0.07-0.03,0.04-0.04,0.05c-0.03,0.03-0.06,0.06-0.08,0.08c-0.02,0.01-0.09,0.08-0.03,0.03c0.07-0.06-0.01,0.01-0.03,0.02
			c-0.03,0.02-0.05,0.03-0.08,0.05c-0.03,0.02-0.06,0.03-0.08,0.04c-0.08,0.04,0.11-0.03,0.03-0.01c-0.05,0.01-0.15,0.06-0.2,0.05
			c0.09,0.02,0.09-0.01,0.03-0.01c0,0-0.09,0-0.09,0c0,0.01,0.13,0.03,0.03,0c-0.03-0.01-0.06-0.02-0.09-0.02
			c-0.12-0.03,0.03,0,0.04,0.02c0-0.01-0.06-0.03-0.07-0.04c-0.02-0.01-0.04-0.03-0.07-0.04c-0.11-0.06,0.11,0.11,0.02,0.02
			c-0.03-0.03-0.07-0.08-0.1-0.11c0.11,0.08,0.08,0.12,0.05,0.06c-0.01-0.02-0.03-0.04-0.04-0.06c-0.03-0.04-0.04-0.1-0.07-0.14
			c0.09,0.13,0.05,0.13,0.03,0.07c-0.01-0.04-0.03-0.08-0.04-0.11c-0.02-0.06-0.03-0.12-0.04-0.18c-0.01-0.03-0.01-0.06-0.02-0.08
			c-0.02-0.12,0.01-0.01,0,0.04c0.01-0.13-0.02-0.28-0.02-0.42c0-0.14,0-0.28,0.01-0.42c0-0.07,0.01-0.15,0.02-0.22
			c0-0.03,0.01-0.06,0.01-0.09c0.02-0.14-0.02,0.17,0,0.02c0.03-0.2,0.03-0.38-0.07-0.56c-0.09-0.16-0.27-0.31-0.45-0.35
			C217.74,116.04,217.27,116.24,217.2,116.64L217.2,116.64z"/>
	</g>
</g>
<g>
	<g>
		<path class="st0" d="M223.44,118.32c0.04-0.55,0.08-1.24,0.46-1.63c0.11-0.11,0.13-0.13,0.26-0.19c0.03-0.01,0.05-0.03,0.08-0.04
			c-0.01,0.01-0.06,0.02,0,0c0.03-0.01,0.06-0.02,0.09-0.02c0.08-0.02,0.02-0.01,0.07-0.01c0.03,0,0.06,0,0.09,0
			c-0.01,0-0.05-0.01,0,0c0.03,0.01,0.18,0.06,0.08,0.02c0.05,0.02,0.09,0.05,0.13,0.07c0.01,0.01,0.07,0.05,0.02,0.01
			c-0.06-0.05,0.05,0.05,0.05,0.05c0.04,0.04,0.07,0.07,0.1,0.11c-0.07-0.08-0.01,0,0.02,0.04c0.03,0.05,0.06,0.11,0.09,0.16
			c0.02,0.04,0.08,0.18,0.04,0.07c0.09,0.23,0.15,0.48,0.2,0.72c0.05,0.24,0.08,0.49,0.13,0.73c0.07,0.28,0.18,0.56,0.3,0.82
			c0.27,0.56,0.87,1.19,1.56,1.01c0.32-0.09,0.44-0.5,0.2-0.74c-0.11-0.1-0.22-0.18-0.33-0.26c0.08,0.06-0.06-0.07-0.08-0.08
			c-0.01-0.01-0.06-0.07-0.02-0.02c0.05,0.06-0.04-0.06-0.04-0.06c-0.07-0.1-0.13-0.21-0.18-0.33c0.05,0.11-0.02-0.05-0.03-0.08
			c-0.02-0.07-0.05-0.14-0.06-0.22c-0.14-0.53-0.18-1.09-0.38-1.6c-0.22-0.58-0.55-1.17-1.14-1.42c-0.71-0.31-1.49-0.09-2.01,0.47
			c-0.6,0.66-0.71,1.55-0.77,2.41c-0.02,0.29,0.25,0.53,0.53,0.53C223.21,118.85,223.42,118.61,223.44,118.32L223.44,118.32z"/>
	</g>
</g>
<g>
	<g>
		<path class="st0" d="M173.94,102.72c1.03,0.13,2.06,0.17,3.09,0.1c0.95-0.07,2.01-0.15,2.9-0.51c0.77-0.31,1.18-1.04,1.03-1.86
			c-0.15-0.82-0.79-1.37-1.55-1.63c-1.46-0.5-3.37-0.01-4.35,1.2c-0.92,1.13-0.91,2.89,0.16,3.93c0.83,0.8,1.91,0.69,2.96,0.54
			c1.2-0.17,2.39-0.38,3.56-0.7c0.51-0.14,0.42-0.93-0.12-0.92c-0.83,0-1.66,0.06-2.49,0.15c-0.41,0.04-0.82,0.09-1.23,0.14
			c-0.38,0.05-0.79,0.13-1.18,0.07c-0.97-0.14-1.44-1.22-1.15-2.11c0.36-1.13,1.71-1.62,2.79-1.57c0.57,0.03,1.27,0.22,1.56,0.75
			c0.12,0.22,0.17,0.51,0.09,0.75c-0.12,0.33-0.48,0.43-0.78,0.5c-1.72,0.43-3.54,0.48-5.3,0.26
			C173.36,101.73,173.37,102.64,173.94,102.72L173.94,102.72z"/>
	</g>
</g>
<g>
	<g>
		<path class="st0" d="M184.38,103.39c1.41-0.98,2.74-2.07,3.89-3.35c0.24-0.27,0.28-0.73-0.01-0.99c-0.3-0.27-0.7-0.25-0.99,0.01
			c-0.61,0.54-1.22,1.07-1.86,1.58c-0.16,0.13-0.31,0.25-0.47,0.37c-0.04,0.03-0.07,0.06-0.11,0.09c-0.06,0.05-0.06,0.05,0,0
			c-0.08,0.06-0.17,0.13-0.25,0.19c-0.33,0.25-0.66,0.49-1,0.72c-0.35,0.24-0.54,0.71-0.29,1.09
			C183.51,103.43,184.01,103.64,184.38,103.39L184.38,103.39z"/>
	</g>
</g>
<g>
	<g>
		<path class="st0" d="M183.81,100.53c0.73,0.61,1.41,1.3,2.02,2.05c0.03,0.04,0.06,0.08,0.09,0.12c0.04,0.05,0.1,0.13,0.03,0.04
			c0.1,0.13,0.21,0.27,0.31,0.4c0.04,0.04,0.06,0.08,0.01,0.01c0.04,0.05,0.08,0.1,0.11,0.15c0.07,0.1,0.15,0.2,0.22,0.31
			c0.29,0.42,0.57,0.94,1.01,1.21c0.34,0.21,0.67-0.08,0.72-0.41c0.04-0.26-0.04-0.53-0.14-0.77c-0.11-0.26-0.21-0.53-0.34-0.78
			c-0.22-0.43-0.47-0.85-0.76-1.24c-0.61-0.84-1.3-1.6-2.1-2.27c-0.34-0.28-0.87-0.35-1.19,0.01
			C183.52,99.65,183.45,100.23,183.81,100.53L183.81,100.53z"/>
	</g>
</g>
<g>
	<g>
		<path class="st0" d="M189.51,103.13c0.16,1.21,0.29,2.43,0.44,3.65c0.08,0.64,0.16,1.29,0.29,1.92c0.09,0.41,0.19,1.4,0.8,1.34
			c0.59-0.06,0.55-1.03,0.58-1.45c0.05-0.62,0.02-1.25-0.02-1.87c-0.08-1.27-0.21-2.54-0.36-3.81c-0.06-0.52-0.42-0.94-0.99-0.87
			C189.68,102.12,189.44,102.61,189.51,103.13L189.51,103.13z"/>
	</g>
</g>
<g>
	<g>
		<path class="st0" d="M190.54,101.77c0.75-0.23,1.51-0.33,2.29-0.27c0.34,0.03,0.7,0.08,1.03,0.2c0.05,0.02,0.22,0.11,0.25,0.16
			c0,0,0.07,0.08,0.03,0.03c-0.04-0.06,0.02,0.04,0.03,0.06c0.04,0.06,0-0.01,0-0.02c0.02,0.05,0.03,0.11,0.05,0.17
			c-0.02-0.09,0,0.07,0,0.11c0,0.03,0,0.06-0.01,0.09c0.01-0.09,0,0.01-0.01,0.02c-0.01,0.04-0.02,0.08-0.03,0.12
			c-0.01,0.02-0.05,0.1-0.01,0.02c-0.04,0.07-0.07,0.14-0.12,0.21c0.05-0.08-0.01,0.01-0.02,0.02c-0.03,0.03-0.06,0.06-0.09,0.1
			c-0.02,0.02-0.05,0.05-0.07,0.07c-0.01,0.01-0.11,0.1-0.06,0.05c0.06-0.04-0.05,0.04-0.07,0.05c-0.03,0.02-0.06,0.04-0.08,0.05
			c-0.08,0.05-0.17,0.1-0.26,0.15c-0.07,0.04-0.14,0.07-0.21,0.1c-0.03,0.01-0.25,0.1-0.14,0.06c-0.12,0.04-0.24,0.07-0.37,0.09
			c0.13-0.02,0.02-0.01-0.05,0c-0.06,0-0.11,0.01-0.17,0.01c-0.07,0-0.2-0.03-0.06,0c-0.06-0.01-0.12-0.04-0.18-0.05
			c-0.06-0.01,0.06,0.03,0.06,0.03c-0.02-0.01-0.04-0.02-0.06-0.04c0.01,0.01,0.12,0.09,0.05,0.03c0.02,0.02,0.09,0.14,0.08,0.14
			c-0.02-0.01-0.05-0.14-0.07-0.16c-0.04-0.08-0.09-0.13-0.16-0.18c-0.1-0.07-0.21-0.12-0.33-0.12c-0.55,0-0.66,0.64-0.47,1.04
			c0.3,0.63,1.12,0.74,1.73,0.6c0.33-0.07,0.64-0.24,0.93-0.4c0.33-0.18,0.65-0.41,0.89-0.7c0.49-0.58,0.73-1.4,0.43-2.12
			c-0.38-0.92-1.43-1.1-2.31-1.17c-0.92-0.08-1.87,0.04-2.75,0.33c-0.3,0.1-0.5,0.39-0.42,0.71
			C189.9,101.65,190.24,101.87,190.54,101.77L190.54,101.77z"/>
	</g>
</g>
<g>
	<g>
		<path class="st0" d="M195.54,99.91c0.09,0.79,0.2,1.58,0.39,2.36c0.19,0.76,0.48,1.49,0.82,2.19c0.12,0.24,0.44,0.33,0.67,0.23
			c0.26-0.11,0.37-0.36,0.32-0.63c-0.13-0.71-0.23-1.41-0.34-2.12c-0.03-0.17-0.06-0.35-0.08-0.52c-0.01-0.08-0.02-0.16-0.03-0.24
			c0.01,0.11-0.01-0.13-0.02-0.16c-0.04-0.36-0.07-0.72-0.08-1.08c-0.02-0.43-0.36-0.85-0.82-0.83
			C195.97,99.11,195.49,99.45,195.54,99.91L195.54,99.91z"/>
	</g>
</g>
<g>
	<g>
		<path class="st0" d="M202.13,101.03c-0.72-0.35-1.55-0.32-2.26,0.06c-0.73,0.39-1.18,1.11-1.26,1.94
			c-0.08,0.85,0.3,1.76,1.01,2.25c0.79,0.54,1.81,0.37,2.35-0.41c0.46-0.66,0.47-1.53,0.49-2.3c0.02-0.65-1-0.8-1.14-0.15
			c-0.33,1.47,1.33,3.13,2.76,2.4c0.38-0.19,0.28-0.79-0.12-0.89c-0.11-0.03-0.23-0.07-0.34-0.11c0.08,0.03-0.01-0.01-0.04-0.02
			c-0.08-0.04-0.16-0.07-0.24-0.1c0.12,0.05-0.04-0.02-0.07-0.03c-0.05-0.03-0.11-0.06-0.16-0.09c-0.04-0.03-0.08-0.06-0.13-0.09
			c-0.03-0.02-0.05-0.04-0.08-0.05c0.05,0.04,0.06,0.04,0.02,0.01c-0.09-0.07-0.17-0.15-0.24-0.24c0.08,0.09-0.02-0.03-0.04-0.06
			c-0.03-0.04-0.05-0.09-0.08-0.13c-0.02-0.04-0.06-0.13-0.02-0.04c-0.02-0.06-0.04-0.12-0.05-0.18c0,0-0.04-0.18-0.02-0.09
			c-0.01-0.09-0.02-0.18-0.04-0.27c-0.37,0.1-0.75,0.19-1.12,0.29c-0.01-0.11,0,0.06,0,0.09c0,0.06,0.01,0.13,0.01,0.19
			c0,0.06,0,0.11-0.01,0.17c0,0.04-0.01,0.07-0.01,0.11c0.01-0.06,0,0,0,0.03c-0.02,0.13-0.05,0.26-0.08,0.38
			c-0.01,0.05-0.03,0.1-0.05,0.16c-0.01,0.03-0.02,0.07-0.04,0.1c0.02-0.05,0.02-0.04,0,0.01c-0.03,0.05-0.05,0.11-0.08,0.16
			c-0.02,0.03-0.12,0.16-0.03,0.06c-0.03,0.04-0.06,0.07-0.1,0.1c-0.02,0.02-0.05,0.04-0.07,0.06c0.04-0.03,0.08-0.05,0.02-0.02
			c-0.02,0.01-0.06,0.03-0.08,0.04c0.01,0,0.11-0.03,0.04-0.02c-0.05,0.01-0.11,0.03-0.16,0.05c0.11-0.03-0.03,0-0.09,0
			c0,0-0.14-0.03-0.19-0.05c-0.06-0.03-0.22-0.13-0.27-0.18c-0.05-0.04-0.09-0.08-0.13-0.13c-0.03-0.03-0.05-0.06-0.08-0.09
			c0.04,0.05,0,0-0.01-0.02c-0.04-0.06-0.07-0.12-0.11-0.18c-0.01-0.03-0.03-0.05-0.04-0.08c0.01,0.02,0.03,0.09-0.01-0.03
			c-0.05-0.13-0.09-0.27-0.1-0.41c-0.02-0.19,0-0.47,0.09-0.69c0.08-0.22,0.24-0.42,0.43-0.56c0.42-0.32,1.06-0.41,1.55-0.19
			c0.21,0.09,0.45,0.05,0.57-0.16C202.39,101.42,202.33,101.13,202.13,101.03L202.13,101.03z"/>
	</g>
</g>
<g>
	<g>
		<path class="st0" d="M205.26,104.19c0-0.5,0.08-1.01,0.27-1.48c0.2-0.47,0.5-0.86,0.88-1.21c-0.27,0-0.55,0-0.82,0.01
			c0.47,0.52,0.87,1.18,1.18,1.89c0.05,0.11-0.04-0.1,0,0.01c0.01,0.04,0.03,0.08,0.05,0.13c0.03,0.1,0.07,0.19,0.1,0.29
			c0.06,0.18,0.11,0.37,0.16,0.55c0.06,0.18,0.11,0.37,0.16,0.55c0.07,0.23,0.16,0.43,0.27,0.65c0.23,0.47,0.95,0.33,1.07-0.14
			c0.06-0.23,0.1-0.45,0.08-0.69c-0.02-0.26-0.06-0.51-0.12-0.76c-0.1-0.44-0.31-0.88-0.52-1.28c-0.41-0.77-0.97-1.46-1.63-2.03
			c-0.22-0.19-0.6-0.25-0.82,0.01c-0.82,0.97-1.34,2.22-1.35,3.5C204.23,104.85,205.27,104.85,205.26,104.19L205.26,104.19z"/>
	</g>
</g>
<g>
	<g>
		<path class="st0" d="M212.67,101.53c-0.5-0.56-1.35-0.74-2.05-0.5c-0.76,0.27-1.32,0.95-1.46,1.74c-0.15,0.81,0.11,1.7,0.74,2.25
			c0.62,0.55,1.57,0.7,2.25,0.18c0.68-0.52,0.95-1.45,0.5-2.21c-0.15-0.26-0.5-0.35-0.76-0.2c-0.28,0.16-0.33,0.49-0.2,0.76
			c0.55,1.19,2.14,1.86,3.28,1.07c0.43-0.3,0.16-0.88-0.33-0.82c-0.15,0.02-0.42,0.01-0.52,0c-0.11-0.02-0.22-0.04-0.32-0.06
			c-0.05-0.01-0.11-0.03-0.16-0.04c-0.01,0-0.14-0.05-0.07-0.02c-0.19-0.07-0.39-0.17-0.56-0.29c-0.11-0.08-0.25-0.24-0.34-0.39
			c-0.32,0.19-0.64,0.37-0.96,0.56c0.03,0.03,0.05,0.06,0.07,0.1c-0.02-0.05-0.01-0.04,0,0.03c-0.02-0.08,0,0.07,0,0.09
			c0-0.08-0.02,0.08-0.02,0.09c-0.02,0.08,0,0.02-0.05,0.11c-0.08,0.15-0.27,0.31-0.39,0.33c-0.12,0.02,0.06,0.01-0.08,0.02
			c0,0-0.17-0.01-0.12-0.01c-0.13-0.02-0.21-0.06-0.36-0.16c-0.16-0.11-0.33-0.32-0.41-0.51c-0.21-0.5-0.09-1.14,0.31-1.51
			c0.38-0.35,1.02-0.3,1.36,0.07C212.43,102.64,213.07,101.98,212.67,101.53L212.67,101.53z"/>
	</g>
</g>
<g>
	<g>
		<path class="st0" d="M215.69,99.95c0.25,0.61,0.5,1.22,0.74,1.82c0.26,0.65,0.6,1.27,0.94,1.88c0.16,0.28,0.51,0.39,0.8,0.27
			c0.31-0.13,0.43-0.43,0.38-0.75c-0.1-0.63-0.21-1.27-0.39-1.88c-0.18-0.61-0.37-1.23-0.55-1.84c-0.15-0.5-0.69-0.88-1.22-0.71
			c-0.25,0.08-0.49,0.23-0.61,0.47C215.68,99.42,215.59,99.72,215.69,99.95L215.69,99.95z"/>
	</g>
</g>
<g>
	<g>
		<path class="st0" d="M214.73,101.25c0.06,0,0.06-0.1,0-0.1C214.66,101.15,214.66,101.25,214.73,101.25L214.73,101.25z"/>
	</g>
</g>
<g>
	<g>
		<path class="st0" d="M214.99,102.58c0.44-0.18,0.9-0.32,1.36-0.44c0.22-0.05,0.43-0.1,0.65-0.14c0.09-0.02,0.19-0.03,0.28-0.04
			c0.06-0.01,0.13-0.02,0.19-0.03c-0.07,0.01-0.05,0.01,0.06-0.01c0.44-0.05,0.89-0.06,1.34-0.06c0.5,0.01,1.21,0.2,1.59-0.21
			c0.14-0.15,0.24-0.4,0.16-0.6c-0.15-0.39-0.4-0.54-0.79-0.64c-0.25-0.06-0.49-0.1-0.75-0.14c-0.51-0.07-1.02-0.11-1.54-0.09
			c-1.03,0.03-2.06,0.23-3.02,0.6c-0.45,0.17-0.82,0.61-0.66,1.12C213.99,102.35,214.51,102.77,214.99,102.58L214.99,102.58z"/>
	</g>
</g>
<g>
	<g>
		<path class="st0" d="M221.52,103.14c0.13,0.43,0.25,0.86,0.38,1.29c0.14,0.47,0.34,0.93,0.57,1.36c0.12,0.23,0.44,0.37,0.69,0.29
			c0.26-0.08,0.46-0.31,0.46-0.59c0-0.22,0.01-0.43-0.02-0.64c-0.03-0.28-0.06-0.56-0.1-0.83c-0.08-0.44-0.17-0.88-0.25-1.32
			c-0.09-0.46-0.65-0.77-1.09-0.64C221.71,102.19,221.38,102.66,221.52,103.14L221.52,103.14z"/>
	</g>
</g>
<g>
	<g>
		<path class="st0" d="M221.67,99.36c0,0.02,0.01,0.05,0.01,0.07c0-0.03-0.01-0.06-0.01-0.09c0,0.02,0,0.04,0,0.05
			c0,0.08,0.02,0.15,0.06,0.22c0.03,0.06,0.07,0.12,0.11,0.17c0.02,0.03,0.05,0.05,0.08,0.07c0.02,0.02,0.05,0.05,0.08,0.06
			c0.02,0.01,0.06,0.02,0.09,0.04c0.01,0,0.02,0.01,0.04,0.01c0.04,0.01,0.07,0.01,0.11,0.01c0.04,0,0.07-0.01,0.1-0.03
			c0.06-0.04,0.11-0.1,0.13-0.17c0-0.01,0.01-0.03,0.01-0.04c0.01-0.03,0.02-0.06,0.01-0.1c0-0.03-0.01-0.07-0.01-0.1
			c0-0.04-0.01-0.07-0.01-0.11c0-0.02-0.01-0.04-0.02-0.05c-0.01-0.02-0.01-0.04-0.02-0.05c0-0.01-0.01-0.02-0.01-0.02
			c-0.01-0.02-0.02-0.04-0.02-0.06c-0.04-0.09-0.12-0.15-0.2-0.2c0.02,0.02,0.05,0.04,0.07,0.05c-0.02-0.02-0.03-0.03-0.05-0.05
			c-0.02-0.02-0.04-0.03-0.07-0.05c-0.04-0.02-0.08-0.03-0.12-0.04c-0.03-0.01-0.06-0.01-0.08,0c-0.04,0-0.08,0.01-0.12,0.04
			c-0.05,0.03-0.09,0.07-0.12,0.12c-0.02,0.04-0.03,0.08-0.04,0.12C221.66,99.27,221.66,99.32,221.67,99.36L221.67,99.36z"/>
	</g>
</g>
<g>
	<g>
		<path class="st0" d="M221.31,100.15c0.21,0.13,0.43,0.26,0.64,0.39c0.18,0.11,0.43,0.07,0.58-0.08c0.36-0.35,0.42-0.9,0.23-1.35
			c-0.1-0.24-0.25-0.44-0.47-0.59c-0.06-0.04-0.13-0.08-0.2-0.1c-0.2-0.06-0.4,0.04-0.54,0.17c-0.1,0.1-0.19,0.25-0.22,0.4
			c-0.02,0.12-0.04,0.24,0.01,0.36c0.05,0.13,0.09,0.21,0.18,0.31c0.15,0.17,0.37,0.21,0.59,0.17c0.25-0.04,0.38-0.38,0.24-0.58
			c-0.01-0.01-0.02-0.03-0.02-0.04c0.01,0.04,0.03,0.07,0.04,0.11c-0.01-0.02-0.01-0.03-0.01-0.05c0,0.04,0.01,0.08,0.01,0.12
			c-0.01-0.06-0.01-0.11-0.03-0.17c-0.01-0.02-0.01-0.04-0.01-0.06c0.01,0.04,0.01,0.09,0.02,0.13c0-0.03,0-0.06,0-0.09
			c-0.01,0.04-0.01,0.09-0.02,0.13c0.01-0.06,0.02-0.12,0.02-0.18c0-0.02,0-0.04,0-0.06c-0.01,0.04-0.01,0.09-0.02,0.13
			c0-0.03,0.01-0.05,0.02-0.08c-0.02,0.04-0.03,0.08-0.05,0.12c0.01-0.02,0.02-0.04,0.03-0.06c-0.03,0.03-0.05,0.07-0.08,0.1
			c0.01-0.02,0.03-0.03,0.05-0.05c-0.04,0.03-0.07,0.05-0.11,0.08c0,0,0.01-0.01,0.01-0.01c-0.13,0.02-0.25,0.03-0.38,0.05
			c0,0,0.01,0,0.01,0.01c-0.04-0.02-0.08-0.03-0.12-0.05c0.05,0.02,0.1,0.05,0.15,0.08c-0.03-0.03-0.07-0.05-0.1-0.08
			c0.05,0.04,0.09,0.08,0.13,0.13c-0.03-0.03-0.05-0.07-0.08-0.1c0.03,0.05,0.06,0.1,0.08,0.15c-0.02-0.04-0.03-0.08-0.05-0.12
			c0.03,0.07,0.05,0.15,0.06,0.22c-0.01-0.04-0.01-0.08-0.02-0.12c0.01,0.07,0.01,0.14,0,0.21c0.01-0.04,0.01-0.08,0.02-0.12
			c-0.01,0.07-0.03,0.13-0.05,0.19c0.02-0.04,0.03-0.08,0.05-0.11c-0.02,0.05-0.05,0.1-0.08,0.15c0.03-0.03,0.05-0.07,0.08-0.1
			c-0.02,0.02-0.04,0.04-0.06,0.06c0.19-0.03,0.39-0.05,0.58-0.08c-0.21-0.13-0.43-0.26-0.64-0.38c-0.21-0.13-0.53-0.05-0.65,0.18
			C221.01,99.74,221.08,100.01,221.31,100.15L221.31,100.15z"/>
	</g>
</g>
<g>
	<g>
		<path class="st0" d="M225.62,102.48C225.62,102.48,225.62,102.47,225.62,102.48C225.61,102.47,225.61,102.48,225.62,102.48
			L225.62,102.48z"/>
	</g>
</g>
<g>
	<g>
		<path class="st0" d="M226.97,101.35c-1.16-0.53-2.39,0.47-2.58,1.63c-0.19,1.15,0.29,2.38,1.31,2.99c1.03,0.62,2.4,0.4,3.27-0.41
			c0.47-0.44,0.81-1.12,0.79-1.77c-0.02-0.66-0.36-1.23-0.88-1.62c-0.61-0.46-1.3-0.6-2.05-0.49c-0.37,0.05-0.72,0.19-1.05,0.36
			c-0.18,0.09-0.35,0.19-0.49,0.33c-0.14,0.14-0.26,0.31-0.37,0.48c-0.25,0.37,0.17,0.84,0.56,0.74c0.25-0.07,0.5-0.12,0.74-0.23
			c0.05-0.02,0.11-0.05,0.16-0.07c0.11-0.06-0.15,0.05,0.05-0.02c0.13-0.05,0.26-0.09,0.39-0.12c0.11-0.03,0.22-0.06,0.33-0.07
			c-0.03,0-0.12,0.01,0.02,0c0.06,0,0.11-0.01,0.17,0c0.05,0,0.11,0,0.16,0.01c0.18,0.01-0.09-0.03,0.02,0
			c0.1,0.03,0.2,0.05,0.31,0.08c0.17,0.06-0.11-0.07,0.05,0.02c0.03,0.02,0.07,0.04,0.1,0.05c0,0,0.16,0.1,0.07,0.04
			c-0.09-0.05,0.06,0.05,0.06,0.05c0.03,0.03,0.07,0.06,0.1,0.1c0.03,0.03,0.1,0.13,0.01,0c0.02,0.03,0.04,0.06,0.06,0.09
			c0.02,0.04,0.1,0.25,0.05,0.08c0.01,0.04,0.02,0.07,0.03,0.11c0,0,0.03,0.17,0.02,0.08c-0.01-0.09-0.02,0.27,0,0.14
			c-0.01,0.07-0.03,0.13-0.05,0.2c-0.04,0.13-0.02,0.06-0.01,0.03c-0.03,0.06-0.07,0.12-0.1,0.18c-0.07,0.14,0.06-0.06-0.03,0.05
			c-0.06,0.07-0.12,0.14-0.19,0.2c-0.03,0.02-0.06,0.05-0.08,0.07c0.14-0.12,0-0.01-0.03,0.01c-0.08,0.05-0.16,0.09-0.24,0.13
			c-0.04,0.02-0.12,0.03,0.02-0.01c-0.06,0.02-0.12,0.04-0.18,0.06c-0.08,0.02-0.16,0.04-0.24,0.05c-0.18,0.04,0.15,0-0.04,0
			c-0.04,0-0.07,0-0.11,0.01c-0.09,0-0.18,0-0.28-0.01c0.17,0.01,0,0-0.04-0.01c-0.05-0.01-0.11-0.02-0.16-0.04
			c-0.04-0.01-0.07-0.02-0.11-0.03c-0.17-0.05,0.12,0.07-0.04-0.02c-0.08-0.04-0.16-0.09-0.24-0.14c-0.03-0.02-0.1-0.08,0.01,0.01
			c-0.04-0.04-0.09-0.07-0.13-0.11c-0.07-0.06-0.13-0.13-0.2-0.2c-0.13-0.13,0.07,0.12-0.03-0.04c-0.02-0.03-0.04-0.06-0.06-0.09
			c-0.05-0.08-0.09-0.16-0.14-0.25c-0.08-0.16,0.02,0.08-0.01-0.02c-0.02-0.04-0.03-0.09-0.05-0.13c-0.03-0.11-0.06-0.22-0.08-0.33
			c0,0.03,0.01,0.11,0-0.01c0-0.07-0.01-0.13,0-0.2c0-0.05,0-0.09,0.01-0.14c-0.01,0.1,0.01-0.07,0.02-0.08
			c0.04-0.16,0.13-0.36,0.22-0.47c0.06-0.07,0.13-0.14,0.2-0.2c-0.08,0.07,0.06-0.04,0.07-0.04c0.05-0.03,0.1-0.06,0.15-0.08
			c-0.09,0.04,0.02,0,0.04-0.01c0.03-0.01,0.05-0.01,0.08-0.02c-0.05,0.01-0.04,0.01,0.02,0c0.1,0,0.05,0,0.02-0.01
			c0.07,0.01,0.14,0.04,0.21,0.06c0.24,0.09,0.53-0.09,0.61-0.31C227.27,101.78,227.2,101.46,226.97,101.35L226.97,101.35z"/>
	</g>
</g>
<g>
	<g>
		<path class="st0" d="M231.35,104.81c0.01-0.66,0.02-1.43,0.43-1.99c0.15-0.21,0.38-0.4,0.62-0.49c0.2-0.08,0.45-0.07,0.61,0.01
			c0.24,0.12,0.35,0.26,0.48,0.51c0.04,0.07,0.07,0.14,0.11,0.21c0.05,0.11-0.01-0.04,0.03,0.08c0.05,0.15,0.1,0.31,0.14,0.46
			c0.17,0.71,0.31,1.52,0.92,1.99c0.17,0.13,0.38,0.19,0.58,0.07c0.17-0.1,0.29-0.34,0.22-0.54c-0.12-0.33-0.17-0.53-0.28-0.86
			c-0.09-0.3-0.17-0.6-0.27-0.9c-0.18-0.57-0.45-1.15-0.9-1.55c-0.47-0.42-1.12-0.62-1.74-0.42c-0.58,0.2-1.07,0.65-1.32,1.22
			c-0.3,0.7-0.35,1.44-0.38,2.19C230.58,105.29,231.34,105.29,231.35,104.81L231.35,104.81z"/>
	</g>
</g>
<g>
	<g>
		<path class="st0" d="M174.82,133.16c0.03,0.35,0.05,0.7,0.08,1.05c0.03,0.41,0.11,0.81,0.19,1.21c0.03,0.16,0.15,0.31,0.28,0.4
			c0.12,0.09,0.28,0.16,0.45,0.16c0.13,0,0.26-0.04,0.38-0.1c0.15-0.08,0.32-0.28,0.35-0.46c0.08-0.4,0.16-0.8,0.19-1.2
			c0.03-0.35,0.05-0.7,0.08-1.05c0.02-0.25-0.13-0.55-0.3-0.71c-0.17-0.17-0.45-0.3-0.69-0.29c-0.26,0.01-0.53,0.1-0.71,0.3
			C174.94,132.65,174.8,132.9,174.82,133.16L174.82,133.16z"/>
	</g>
</g>
<g>
	<g>
		<path class="st0" d="M174.76,130.44c-0.25,0.45-0.16,1.03,0.21,1.4c0.23,0.23,0.65,0.25,0.88-0.01c0.16-0.17,0.32-0.36,0.41-0.57
			c0.04-0.08,0.08-0.17,0.1-0.26c0.03-0.09,0.04-0.19,0.05-0.28c0-0.04,0.01-0.08,0-0.12c-0.01-0.09-0.01-0.18-0.04-0.27
			c-0.08-0.27-0.26-0.49-0.49-0.65c-0.14-0.09-0.29-0.13-0.45-0.14c-0.03,0-0.06,0-0.09,0c-0.08,0.01-0.15,0.01-0.23,0.04
			c-0.12,0.04-0.23,0.09-0.32,0.19c-0.05,0.05-0.09,0.11-0.13,0.17c-0.06,0.12-0.1,0.27-0.06,0.41c0.04,0.13,0.12,0.25,0.24,0.32
			c0.12,0.07,0.26,0.08,0.39,0.05c0.02,0,0.03-0.01,0.05-0.01c-0.05,0.01-0.09,0.01-0.14,0.02c0.02,0,0.04,0,0.06,0
			c-0.05-0.01-0.1-0.01-0.15-0.02c0.07,0.01,0.14,0.02,0.21,0.02c-0.05-0.01-0.1-0.01-0.15-0.02c0.03,0,0.06,0.01,0.1,0.03
			c-0.05-0.02-0.1-0.04-0.14-0.06c0.04,0.02,0.07,0.04,0.11,0.06c0.04,0.02,0.08,0.04,0.11,0.07c-0.04-0.03-0.09-0.07-0.13-0.1
			c0.03,0.03,0.06,0.05,0.09,0.09c-0.03-0.04-0.07-0.09-0.1-0.13c0.02,0.03,0.03,0.05,0.05,0.08c-0.02-0.05-0.04-0.1-0.06-0.16
			c0.01,0.03,0.02,0.06,0.03,0.09c-0.01-0.05-0.01-0.11-0.02-0.16c0.01,0.05,0.01,0.11,0,0.16c0.01-0.05,0.01-0.11,0.02-0.16
			c-0.01,0.07-0.03,0.14-0.06,0.21c0.02-0.05,0.04-0.1,0.06-0.15c-0.08,0.18-0.2,0.35-0.31,0.51c0.33-0.05,0.65-0.09,0.98-0.14
			c-0.03-0.03-0.06-0.06-0.09-0.09c0.03,0.04,0.07,0.09,0.1,0.13c-0.03-0.04-0.05-0.08-0.07-0.12c0.02,0.05,0.04,0.1,0.06,0.15
			c-0.02-0.05-0.03-0.1-0.04-0.15c0.01,0.05,0.01,0.1,0.02,0.16c-0.01-0.05-0.01-0.09,0-0.14c-0.01,0.05-0.01,0.1-0.02,0.15
			c0.01-0.05,0.02-0.09,0.04-0.14c-0.02,0.05-0.04,0.09-0.06,0.14c0,0,0-0.01,0.01-0.01c0.04-0.07,0.06-0.14,0.07-0.21
			c0.02-0.08,0.01-0.15-0.01-0.23c-0.04-0.14-0.15-0.3-0.28-0.36c-0.13-0.07-0.29-0.1-0.44-0.06
			C174.98,130.21,174.84,130.3,174.76,130.44L174.76,130.44z"/>
	</g>
</g>
<g>
	<g>
		<path class="st0" d="M178.54,134.66c-0.04-0.18-0.08-0.35-0.1-0.53c0-0.03-0.04-0.17-0.01-0.04c-0.01-0.04-0.01-0.08-0.01-0.12
			c0-0.09,0-0.18,0-0.27c0-0.04,0.01-0.08,0.01-0.12c0.01-0.07-0.02,0.1,0-0.01c0.02-0.09,0.05-0.17,0.07-0.26
			c0.02-0.08-0.06,0.11-0.01,0.01c0.02-0.03,0.04-0.06,0.05-0.1c0.06-0.1-0.08,0.09-0.02,0.03c0.02-0.03,0.05-0.06,0.07-0.08
			c0.02-0.02,0.04-0.04,0.07-0.07c0.06-0.06,0.1-0.04-0.03,0.02c0.05-0.02,0.1-0.07,0.16-0.1c0.08-0.04,0.12-0.02-0.04,0.01
			c0.03-0.01,0.06-0.02,0.08-0.03c0.03-0.01,0.06-0.01,0.09-0.02c0.12-0.03-0.17,0-0.05,0.01c0.03,0,0.06,0,0.09,0
			c0.08,0-0.18-0.04-0.07-0.01c0.03,0.01,0.07,0.02,0.1,0.03c-0.16-0.03-0.13-0.06-0.05-0.01c0.02,0.01,0.04,0.03,0.06,0.04
			c0.07,0.04-0.16-0.14-0.08-0.06c0.04,0.04,0.08,0.08,0.11,0.12c-0.04-0.05-0.08-0.11-0.13-0.16c0.06,0.07,0.1,0.15,0.13,0.23
			c-0.03-0.07-0.05-0.13-0.08-0.2c0.07,0.16,0.1,0.34,0.12,0.51c-0.01-0.07-0.02-0.14-0.03-0.21c0.05,0.4,0.05,0.8,0.12,1.19
			c0.1,0.53,0.4,1.11,0.98,1.21c0.22,0.04,0.4,0.02,0.58-0.12c0.17-0.13,0.26-0.31,0.27-0.53c0-0.07,0.03-0.24-0.01,0.06
			c0.02-0.17,0.03-0.3-0.01-0.48c-0.02-0.09-0.04-0.19-0.07-0.28c-0.06-0.2-0.1-0.4-0.14-0.61c-0.08-0.45-0.14-0.89-0.35-1.3
			c-0.26-0.54-0.86-0.93-1.48-0.89c-0.66,0.05-1.27,0.48-1.53,1.09c-0.33,0.75-0.2,1.55-0.05,2.34c0.06,0.31,0.44,0.52,0.73,0.43
			C178.43,135.3,178.61,134.99,178.54,134.66L178.54,134.66z"/>
	</g>
</g>
<g>
	<g>
		<path class="st0" d="M186.03,129.33c-0.63-0.48-1.32-0.66-2.1-0.52c-0.26,0.04-0.43,0.28-0.51,0.5c-0.34,0.98-0.55,2-0.65,3.03
			c-0.1,1.03-0.12,2.25,0.53,3.1c0.29,0.37,0.82,0.09,0.94-0.26c0.18-0.47,0.15-0.99,0.14-1.49c-0.01-0.45-0.01-0.9,0.01-1.35
			c0.03-0.91,0.17-1.8,0.4-2.68c-0.17,0.17-0.34,0.34-0.51,0.5c0.34-0.08,0.65-0.03,0.97,0.18c0.27,0.17,0.65,0.07,0.83-0.18
			C186.26,129.95,186.29,129.53,186.03,129.33L186.03,129.33z"/>
	</g>
</g>
<g>
	<g>
		<path class="st0" d="M183.21,133.36c0.21-0.03,0.41-0.05,0.62-0.08c0.2-0.03,0.41-0.04,0.61-0.1c0.44-0.12,0.87-0.24,1.26-0.49
			c0.18-0.11,0.29-0.29,0.29-0.5c0-0.19-0.11-0.43-0.29-0.51c-0.22-0.09-0.43-0.17-0.66-0.22c-0.26-0.06-0.53-0.07-0.8-0.1
			c-0.21-0.02-0.41-0.01-0.62,0c-0.22,0.01-0.43,0.02-0.65,0.02c-0.6,0.02-1.06,0.51-0.99,1.12c0.03,0.28,0.16,0.5,0.38,0.66
			c0.1,0.09,0.21,0.15,0.34,0.17C182.87,133.4,183.04,133.4,183.21,133.36L183.21,133.36z"/>
	</g>
</g>
<g>
	<g>
		<path class="st0" d="M187.66,135.1c0.59,0.02,1.22,0.03,1.78-0.17c0.54-0.2,1.04-0.56,1.28-1.1c0.22-0.5,0.25-1.11-0.09-1.57
			c-0.29-0.4-0.72-0.61-1.2-0.66c-0.42-0.05-0.88,0.06-1.24,0.29c-0.47,0.3-0.78,0.79-0.96,1.31c-0.18,0.49-0.23,1.04-0.21,1.56
			c0.02,0.62,0.2,1.26,0.69,1.67c0.24,0.21,0.54,0.38,0.86,0.44c0.34,0.07,0.67,0.05,1.02,0c0.56-0.08,1.05-0.3,1.53-0.6
			c0.27-0.17,0.39-0.49,0.26-0.79c-0.12-0.29-0.43-0.45-0.74-0.37c-0.37,0.1-0.75,0.17-1.12,0.24c-0.04,0.01-0.1,0.01-0.14,0.02
			c0.13-0.06,0.13-0.01,0.04-0.01c-0.08,0.01-0.16,0.01-0.24,0.01c-0.09,0-0.17-0.02-0.26-0.01c0.2,0,0.11,0.01,0.03,0
			c-0.05-0.01-0.11-0.02-0.16-0.03c-0.04-0.01-0.08-0.02-0.12-0.03c-0.14-0.04,0.16,0.09,0.03,0.01c-0.04-0.02-0.07-0.04-0.11-0.06
			c-0.1-0.06-0.02-0.07,0.02,0.02c-0.01-0.02-0.16-0.13-0.15-0.15c0.02,0.02,0.03,0.04,0.05,0.07c-0.02-0.03-0.04-0.06-0.06-0.09
			c-0.02-0.03-0.03-0.06-0.05-0.1c-0.03-0.07-0.03-0.07,0.01,0.02c-0.06-0.06-0.07-0.24-0.09-0.32c-0.01-0.05-0.02-0.11-0.03-0.16
			c0-0.03-0.05-0.2-0.01-0.04c-0.04-0.18-0.03-0.41-0.03-0.6c0-0.1,0.01-0.2,0.02-0.3c-0.02,0.13,0.01-0.03,0.01-0.05
			c0.01-0.05,0.02-0.1,0.03-0.14c0.02-0.09,0.05-0.19,0.09-0.28c-0.04,0.11,0.02-0.04,0.03-0.05c0.03-0.06,0.06-0.11,0.09-0.17
			c0.08-0.13-0.04,0.04,0.02-0.03c0.03-0.03,0.05-0.06,0.08-0.09c0.03-0.03,0.06-0.06,0.09-0.09c-0.09,0.09-0.01,0.01,0.01-0.01
			c0.03-0.02,0.07-0.04,0.1-0.06c0.03-0.01,0.14-0.05,0.02-0.01c0.09-0.03,0.17-0.05,0.26-0.07c0.12-0.03-0.1,0,0.03,0
			c0.04,0,0.08,0,0.11,0c0.04,0,0.08,0,0.11,0.01c0.03,0,0.08,0.02-0.01,0c0.07,0.02,0.14,0.03,0.22,0.05
			c0.11,0.03-0.08-0.05,0.02,0.01c0.03,0.02,0.15,0.11,0.05,0.02c0.03,0.02,0.05,0.05,0.08,0.07c0.03,0.03,0.08,0.11,0.01,0
			c0.02,0.03,0.04,0.06,0.06,0.09c0.06,0.09-0.02-0.1,0.01,0.01c0,0.02,0.03,0.16,0.02,0.04c0,0.03,0,0.06,0,0.09
			c0,0.02-0.02,0.16,0,0.04c-0.01,0.06-0.03,0.11-0.05,0.17c0.04-0.12-0.01,0.01-0.02,0.03c-0.03,0.05-0.06,0.11-0.1,0.16
			c0.08-0.12-0.01,0.01-0.03,0.03c-0.04,0.05-0.08,0.09-0.13,0.13c-0.01,0.01-0.02,0.02-0.04,0.03c-0.05,0.04-0.05,0.04,0.02-0.01
			c-0.03,0.04-0.12,0.08-0.16,0.1c0,0-0.14,0.07-0.05,0.03c0.05-0.02,0.04-0.02-0.02,0.01c-0.04,0.01-0.07,0.02-0.11,0.03
			c-0.13,0.04-0.25,0.07-0.39,0.09c0.14-0.02-0.05,0-0.06,0c-0.08,0.01-0.15,0.01-0.23,0.01c-0.27,0-0.54-0.01-0.81-0.03
			c-0.35-0.03-0.68,0.32-0.66,0.66C187.02,134.8,187.29,135.09,187.66,135.1L187.66,135.1z"/>
	</g>
</g>
<g>
	<g>
		<path class="st0" d="M193.25,134.7c-0.04-0.04-0.08-0.08-0.12-0.12c-0.01-0.01-0.02-0.02-0.03-0.03
			c-0.05-0.06-0.04-0.04,0.04,0.06c-0.04-0.09-0.11-0.17-0.15-0.25c-0.04-0.07-0.03-0.15,0.01,0.03c-0.01-0.05-0.04-0.11-0.05-0.16
			c-0.02-0.08-0.02-0.18-0.05-0.25c0.01,0.12,0.02,0.15,0.01,0.07c0-0.03,0-0.06-0.01-0.08c0-0.04,0-0.08,0-0.13
			c0-0.05,0.01-0.1,0.01-0.15c0.01-0.06,0-0.03-0.01,0.09c0-0.03,0.01-0.06,0.02-0.08c0.02-0.09,0.08-0.2,0.08-0.28
			c-0.01,0.03-0.03,0.07-0.04,0.1c0.01-0.03,0.02-0.05,0.04-0.08c0.02-0.04,0.05-0.09,0.07-0.13c0.03-0.04,0.05-0.08,0.08-0.12
			c0.01-0.02,0.02-0.04,0.04-0.05c0.03-0.05,0.02-0.02-0.05,0.07c0.07-0.06,0.13-0.15,0.2-0.21c0.02-0.02,0.04-0.04,0.06-0.05
			c-0.03,0.02-0.06,0.04-0.09,0.07c0.05-0.02,0.1-0.07,0.14-0.1c0.04-0.02,0.07-0.04,0.11-0.06c0.03-0.01,0.19-0.07,0.07-0.04
			c-0.12,0.04,0.05-0.02,0.07-0.02c0.04-0.01,0.08-0.02,0.12-0.04c0.05-0.01,0.11-0.03,0.16-0.04c0.01,0,0.03,0,0.04-0.01
			c0.07-0.01,0.05-0.01-0.04,0c0.02-0.03,0.26-0.01,0.29-0.01c0.1-0.01,0.19-0.01,0.29,0c0.22,0.01,0.45-0.17,0.5-0.38
			c0.05-0.24-0.05-0.44-0.24-0.58c-0.72-0.49-1.77-0.33-2.45,0.17c-0.43,0.32-0.72,0.71-0.88,1.22c-0.13,0.43-0.13,0.91-0.03,1.35
			c0.11,0.49,0.38,0.96,0.76,1.29c0.29,0.26,0.76,0.3,1.04-0.01C193.52,135.45,193.55,134.98,193.25,134.7L193.25,134.7z"/>
	</g>
</g>
<g>
	<g>
		<path class="st0" d="M196.5,135.68c0.59,0.04,1.19,0.07,1.76-0.08c0.56-0.15,1.09-0.45,1.46-0.91c0.39-0.49,0.6-1.07,0.49-1.69
			c-0.09-0.5-0.42-0.93-0.86-1.19c-0.91-0.53-2.03-0.32-2.74,0.45c-0.74,0.8-1.15,2.21-0.17,3c0.52,0.42,1.18,0.55,1.81,0.71
			c0.35,0.09,0.7,0.12,1.05,0.16c0.36,0.04,0.7,0.05,1.06-0.02c0.2-0.04,0.35-0.24,0.38-0.43c0.03-0.21-0.07-0.4-0.25-0.52
			c-0.41-0.27-0.91-0.4-1.38-0.56c-0.43-0.15-0.88-0.24-1.32-0.34c-0.08-0.02-0.16-0.04-0.25-0.06c-0.04-0.01-0.09-0.03-0.13-0.04
			c-0.1-0.03,0.15,0.08,0,0c-0.03-0.02-0.06-0.04-0.1-0.05c-0.15-0.07,0.07,0.08,0,0c-0.03-0.03-0.08-0.06-0.1-0.09
			c0.02,0.02,0.03,0.04,0.05,0.06c-0.02-0.03-0.04-0.07-0.06-0.1c0.08,0.16-0.01-0.14,0.01,0.01c-0.01-0.06,0-0.12,0-0.18
			c0-0.02,0.01-0.13-0.01-0.01c0.01-0.09,0.03-0.18,0.06-0.26c0.01-0.04,0.03-0.09,0.04-0.13c-0.04,0.13,0.02-0.03,0.03-0.05
			c0.04-0.07,0.09-0.14,0.13-0.21c0.05-0.09-0.09,0.1,0.02-0.03c0.02-0.03,0.05-0.06,0.07-0.08c0.06-0.07,0.13-0.13,0.2-0.19
			c-0.02,0.02-0.1,0.06,0,0c0.05-0.03,0.09-0.06,0.14-0.08c0,0,0.15-0.08,0.07-0.04c-0.08,0.04,0.08-0.03,0.08-0.03
			c0.04-0.01,0.22-0.03,0.1-0.03c0.04,0,0.08,0,0.13,0c0.03,0,0.14,0.01,0.03,0c0.08,0.01,0.16,0.04,0.24,0.06
			c0.12,0.03-0.02-0.04,0.02,0.01c0.02,0.03,0.08,0.05,0.11,0.07c-0.02-0.01-0.09-0.08-0.01,0c0.03,0.03,0.06,0.06,0.09,0.09
			c0.03,0.03,0.08,0.12,0,0c0.02,0.03,0.04,0.05,0.05,0.08c0.01,0.01,0.04,0.07,0.04,0.09c-0.03-0.09-0.04-0.1-0.02-0.03
			c0.01,0.02,0.01,0.05,0.02,0.07c0.04,0.05,0.01-0.13,0,0.01c0,0.03,0,0.08,0,0.11c-0.01-0.11,0.02-0.08,0-0.02
			c-0.01,0.04-0.03,0.09-0.03,0.13c-0.02,0.1,0.08-0.15,0,0c-0.02,0.03-0.03,0.06-0.05,0.09c-0.01,0.01-0.09,0.16-0.03,0.06
			c0.05-0.1-0.04,0.05-0.06,0.07c-0.03,0.03-0.06,0.07-0.1,0.1c-0.02,0.02-0.04,0.04-0.06,0.05c-0.05,0.04-0.03,0.02,0.06-0.04
			c-0.07,0.01-0.18,0.11-0.24,0.14c-0.16,0.09,0.14-0.04,0.03-0.01c-0.07,0.02-0.14,0.05-0.22,0.07c-0.04,0.01-0.09,0.02-0.13,0.03
			c-0.03,0.01-0.07,0.01-0.1,0.02c-0.06,0.01-0.04,0.01,0.06-0.01c-0.04,0.05-0.31,0.02-0.36,0.02c-0.12,0.01-0.25,0.01-0.37,0.01
			c-0.25,0-0.49-0.02-0.74-0.03c-0.47-0.03-0.91,0.42-0.9,0.89C195.64,135.29,196.01,135.64,196.5,135.68L196.5,135.68z"/>
	</g>
</g>
<g>
	<g>
		<path class="st0" d="M202.85,134.86c-0.03-0.28-0.04-0.57-0.02-0.85c0-0.03,0-0.05,0.01-0.08c-0.01,0.09,0,0,0-0.01
			c0.01-0.07,0.03-0.14,0.05-0.21c0.01-0.03,0.02-0.05,0.03-0.08c0.03-0.09-0.03,0.07,0-0.01c0.03-0.06,0.07-0.12,0.1-0.19
			c0.03-0.08-0.05,0.05,0-0.01c0.02-0.03,0.05-0.06,0.07-0.08c0.03-0.03,0.08-0.11,0.12-0.11c-0.01,0-0.12,0.08-0.02,0.01
			c0.02-0.01,0.04-0.03,0.06-0.04c0.04-0.03,0.13-0.1,0.18-0.1c-0.01,0-0.14,0.05-0.03,0.01c0.02-0.01,0.04-0.01,0.07-0.02
			c0.05-0.02,0.1-0.03,0.16-0.04c0.01,0,0.07-0.02,0.09-0.02c-0.09-0.02-0.09,0.01-0.03,0.01c0.03,0,0.16-0.02,0.18,0
			c-0.01-0.01-0.12-0.03-0.03,0c0.03,0.01,0.06,0.01,0.09,0.02c0.01,0,0.08,0.02,0.08,0.03c0,0-0.12-0.05-0.05-0.02
			c0.01,0,0.01,0.01,0.02,0.01c0.05,0.03,0.05,0.03,0.01,0c-0.04,0-0.04-0.04,0,0c0.02,0.02,0.17,0.18,0.08,0.08
			c-0.08-0.1,0.01,0.03,0.03,0.05c0.02,0.04,0.04,0.1,0.07,0.14c0,0-0.05-0.15-0.04-0.09c0.01,0.02,0.02,0.05,0.02,0.07
			c0.02,0.06,0.03,0.11,0.05,0.17c0.02,0.09,0.04,0.19,0.05,0.28c0.01,0.06,0.02,0.25,0,0.01c0,0.05,0.01,0.11,0.02,0.16
			c0.03,0.26,0.05,0.51,0.1,0.76c0.06,0.34,0.21,0.63,0.43,0.9c0.24,0.29,0.69,0.47,1.06,0.34c0.31-0.12,0.49-0.38,0.42-0.71
			c-0.03-0.12-0.05-0.28-0.14-0.37c0.02,0.04,0.03,0.08,0.05,0.13c-0.03-0.06-0.05-0.13-0.08-0.19c-0.01-0.03-0.03-0.05-0.04-0.08
			c-0.03-0.05-0.05-0.1-0.08-0.14c0.12,0.2,0.05,0.12,0.02,0.03c-0.03-0.08-0.06-0.16-0.09-0.24c0.1,0.24,0.06,0.15,0.04,0.09
			c-0.04-0.11-0.07-0.23-0.1-0.34c-0.12-0.5-0.2-1.01-0.46-1.46c-0.33-0.57-0.94-0.95-1.61-0.94c-0.7,0.01-1.32,0.39-1.69,0.97
			c-0.43,0.68-0.54,1.51-0.43,2.3c0.04,0.3,0.39,0.47,0.66,0.44C202.6,135.42,202.88,135.16,202.85,134.86L202.85,134.86z"/>
	</g>
</g>
<g>
	<g>
		<path class="st0" d="M209.29,131.62c-0.51,0.26-1.05,0.54-1.43,0.98c-0.45,0.5-0.7,1.15-0.62,1.82c0.07,0.6,0.44,1.09,0.94,1.41
			c0.37,0.23,0.81,0.35,1.23,0.45c0.22,0.05,0.44,0.1,0.66,0.15c0.17,0.05,0.35,0.06,0.52,0.07c0.05,0,0.1,0.01,0.15,0.01
			c0.03,0,0.13,0.02,0,0c-0.14-0.02,0,0,0.03,0.01c0.32,0.06,0.68-0.04,0.84-0.35c0.14-0.27,0.14-0.69-0.12-0.9
			c-0.25-0.2-0.55-0.44-0.87-0.52c-0.22-0.06-0.44-0.09-0.67-0.13c-0.23-0.04-0.46-0.08-0.68-0.15c-0.04-0.01-0.08-0.02-0.12-0.04
			c-0.2-0.07,0.14,0.07,0.01,0.01c-0.09-0.05-0.18-0.1-0.27-0.15c0.22,0.12,0.09,0.07,0.03,0.01c-0.02-0.02-0.04-0.04-0.05-0.06
			c-0.06-0.07-0.03-0.04,0.06,0.08c-0.02-0.04-0.05-0.08-0.07-0.12c-0.1-0.15,0.04,0.18,0,0.01c-0.01-0.03-0.02-0.07-0.03-0.1
			c0.01,0.12,0.01,0.14,0.01,0.05c0-0.04,0-0.07,0-0.11c0.01-0.09,0-0.07-0.01,0.05c-0.02-0.03,0.04-0.17,0.05-0.21
			c0.03-0.08,0.02-0.07-0.02,0.04c0.01-0.03,0.03-0.07,0.05-0.1c0.03-0.07,0.07-0.13,0.11-0.19c0.09-0.15-0.12,0.12,0.01-0.01
			c0.11-0.11,0.21-0.24,0.34-0.32c-0.19,0.12,0.03-0.02,0.07-0.04c0.06-0.04,0.13-0.09,0.2-0.13c0.13-0.08,0.27-0.16,0.4-0.23
			c0.34-0.19,0.49-0.69,0.27-1.02C210.08,131.54,209.66,131.43,209.29,131.62L209.29,131.62z"/>
	</g>
</g>
<g>
	<g>
		<path class="st0" d="M212.7,134.63c0.71,0.21,1.45,0.25,2.19,0.11c0.36-0.07,0.7-0.18,1.04-0.33c0.29-0.13,0.57-0.33,0.71-0.63
			c0.26-0.57-0.04-1.25-0.46-1.66c-0.34-0.33-0.8-0.57-1.27-0.65c-1.03-0.19-2.07,0.29-2.53,1.25c-0.51,1.05-0.34,2.33,0.42,3.21
			c0.42,0.49,1.06,0.89,1.7,1.02c0.34,0.07,0.7,0.1,1.05,0.07c0.38-0.03,0.74-0.17,1.08-0.34c0.24-0.12,0.32-0.43,0.22-0.66
			c-0.11-0.25-0.36-0.37-0.63-0.32c-0.06,0.01-0.11,0.02-0.17,0.03c0.1-0.02-0.08,0.01-0.08,0.01c-0.11,0.01-0.23,0-0.34,0.01
			c-0.23,0.01-0.46,0.02-0.69-0.01c0.14,0.01-0.05-0.01-0.06-0.01c-0.06-0.01-0.11-0.02-0.17-0.03c-0.09-0.02-0.19-0.04-0.28-0.06
			c-0.05-0.02-0.11-0.03-0.16-0.05c-0.01,0-0.18-0.07-0.07-0.02c-0.12-0.05-0.24-0.11-0.35-0.18c-0.05-0.03-0.09-0.06-0.14-0.09
			c0.02,0.01,0.07,0.06-0.02-0.01c-0.09-0.07-0.17-0.15-0.25-0.23c-0.11-0.12-0.2-0.25-0.3-0.46c-0.02-0.04-0.05-0.12-0.08-0.23
			c-0.03-0.1-0.06-0.2-0.07-0.31c-0.02-0.13-0.03-0.36-0.01-0.51c0.09-0.73,0.6-1.33,1.34-1.37c0.35-0.02,0.69,0.05,1,0.23
			c0.29,0.17,0.48,0.45,0.53,0.76c0.04,0.24-0.07,0.3-0.26,0.39c-0.21,0.09-0.54,0.17-0.81,0.21c-0.59,0.09-1.22,0.02-1.79-0.16
			c-0.28-0.09-0.6,0.11-0.67,0.39C212.24,134.25,212.42,134.54,212.7,134.63L212.7,134.63z"/>
	</g>
</g>
<g>
	<g>
		<path class="st0" d="M74.84,3.75c-0.33,1.92-0.39,3.85-0.14,5.78c0.21,1.6,0.71,3.35,2.33,4.05c1.72,0.74,3.1-0.5,3.88-1.94
			c0.8-1.48,1.15-3.2,0.94-4.87c-0.04-0.32-0.21-0.58-0.55-0.62c-0.29-0.04-0.64,0.15-0.69,0.46c-0.29,1.61-0.27,3.35,0.28,4.91
			c0.47,1.34,1.49,2.59,3.05,2.43c1.44-0.15,2.65-1.37,3.26-2.62c0.58-1.21,0.78-2.54,0.6-3.86c-0.18-1.4-0.8-2.99-2.1-3.69
			c-0.48-0.26-0.99,0.27-0.74,0.74c0.56,1.06,1.18,2.04,1.25,3.28c0.07,1.2-0.22,2.38-0.89,3.37c-0.34,0.49-0.83,1.02-1.42,1.18
			c-0.61,0.16-1.07-0.24-1.37-0.73c-0.81-1.34-0.93-3.17-0.7-4.68c-0.41-0.06-0.82-0.11-1.24-0.17c0.06,1.28-0.19,2.54-0.8,3.67
			c-0.44,0.82-1.22,2.1-2.29,1.42c-1.01-0.64-1.12-2.23-1.22-3.29c-0.14-1.46-0.11-2.94,0.12-4.39c0.07-0.43-0.12-0.86-0.57-0.99
			C75.44,3.07,74.92,3.32,74.84,3.75L74.84,3.75z"/>
	</g>
</g>
<g>
	<g>
		<path class="st0" d="M87.47,0.93c-0.02,3.88-0.1,7.76-0.02,11.63c0.02,0.93,1.3,1.32,1.77,0.47c0.47-0.85,0.98-1.68,1.58-2.44
			c0.25-0.32,1.27-1.81,1.82-1.56c0.22,0.1,0.28,0.64,0.32,0.84c0.1,0.49,0.18,0.99,0.27,1.49c0.19,1.05,0.33,2.17,0.83,3.12
			c0.38,0.72,1.32,0.31,1.4-0.37c0.15-1.35-0.32-2.86-0.58-4.18c-0.22-1.14-0.59-2.41-1.88-2.7c-1.26-0.28-2.29,0.71-3.03,1.59
			c-0.87,1.04-1.67,2.13-2.38,3.28c0.59,0.16,1.18,0.32,1.77,0.47c0.11-3.87,0.05-7.76,0.06-11.63C89.4-0.31,87.47-0.32,87.47,0.93
			L87.47,0.93z"/>
	</g>
</g>
<g>
	<g>
		<path class="st0" d="M95.38,9.82c0.47,0.6,0.93,1.22,1.43,1.8c0.25,0.28,0.49,0.57,0.74,0.85c0.25,0.29,0.54,0.55,0.82,0.82
			c0.26,0.25,0.67,0.27,0.96,0.05c0.29-0.22,0.37-0.62,0.19-0.94c-0.19-0.34-0.36-0.69-0.58-1.01c-0.21-0.31-0.42-0.63-0.63-0.94
			c-0.43-0.63-0.91-1.24-1.37-1.85c-0.17-0.22-0.34-0.38-0.6-0.46c-0.3-0.09-0.62,0-0.86,0.18c-0.22,0.17-0.34,0.38-0.38,0.65
			C95.06,9.32,95.18,9.56,95.38,9.82L95.38,9.82z"/>
	</g>
</g>
<g>
	<g>
		<path class="st0" d="M99.81,8.9c-0.6,2.82-1.16,5.66-1.33,8.55c-0.16,2.81,0.01,5.77,1.31,8.3c0.41,0.81,1.66,0.26,1.45-0.6
			c-0.64-2.59-1-5.14-0.85-7.81c0.15-2.69,0.67-5.34,1.19-7.97C101.81,8.23,100.06,7.74,99.81,8.9L99.81,8.9z"/>
	</g>
</g>
<g>
	<g>
		<path class="st0" d="M107.98,11.87c0.08,0.25,0.15,0.5,0.23,0.74c0.21,0.69,1.16,0.54,1.22-0.15c0.07-0.8,0.05-1.6,0.13-2.4
			c0.03-0.29,0-1.49,0.49-1.45c0.44,0.04,0.66,0.59,0.76,0.94c0.18,0.69,0.25,1.38,0.62,2.01c0.37,0.61,1.19,0.43,1.42-0.19
			c0.23-0.61,0.44-1.21,0.75-1.79c0.32-0.58,0.71-1.08,1.17-1.55c-0.4-0.05-0.81-0.1-1.21-0.15c0.39,0.74,0.74,1.51,0.99,2.31
			c0.26,0.85,0.37,1.74,0.77,2.54c0.26,0.53,1.12,0.39,1.25-0.16c0.22-0.95-0.06-1.96-0.38-2.87c-0.33-0.91-0.74-1.78-1.29-2.58
			c-0.25-0.36-0.88-0.58-1.21-0.15c-0.93,1.2-1.85,2.56-2.33,4.01c0.47-0.06,0.94-0.12,1.42-0.19c-0.49-0.68-0.48-1.59-0.95-2.29
			c-0.43-0.64-1.2-1.15-2-1.01c-0.95,0.16-1.1,1.07-1.22,1.87c-0.15,1.03-0.37,2.06-0.42,3.1c0.41-0.05,0.82-0.1,1.22-0.15
			c-0.08-0.25-0.17-0.49-0.25-0.74C108.91,10.82,107.75,11.11,107.98,11.87L107.98,11.87z"/>
	</g>
</g>
<g>
	<g>
		<path class="st0" d="M121.08,7.28c-1.14,0.5-1.89,1.72-1.91,2.95c-0.02,1.26,0.8,2.52,1.95,3.03c1.17,0.52,2.74,0.37,3.59-0.68
			c0.94-1.16,0.65-2.7-0.29-3.76c-0.5-0.57-1.21-0.93-1.93-1.15c-0.38-0.12-0.78-0.2-1.17-0.24c-0.42-0.04-0.82-0.01-1.24,0.05
			c-0.27,0.04-0.47,0.35-0.47,0.61c0,0.3,0.2,0.51,0.47,0.61c0.51,0.19,1.03,0.28,1.56,0.41c0.12,0.03,0.24,0.06,0.36,0.1
			c0.07,0.02,0.13,0.04,0.2,0.06c0.03,0.01,0.19,0.07,0.08,0.03c0.24,0.1,0.48,0.23,0.7,0.39c-0.03-0.02-0.11-0.1,0,0
			c0.04,0.04,0.09,0.08,0.13,0.12c0.08,0.08,0.15,0.16,0.22,0.24c-0.11-0.12-0.03-0.04-0.01,0c0.04,0.06,0.08,0.12,0.11,0.18
			c0.02,0.04,0.05,0.08,0.07,0.12c0.02,0.03,0.09,0.24,0.03,0.05c0.04,0.11,0.07,0.22,0.1,0.33c0.01,0.04,0.02,0.09,0.02,0.13
			c-0.03-0.17-0.01-0.05-0.01-0.01c0,0.06,0,0.11,0,0.17c0,0.05-0.04,0.18,0,0.02c-0.01,0.04-0.02,0.09-0.03,0.13
			c-0.02,0.07-0.08,0.18-0.01,0.06c-0.03,0.06-0.07,0.12-0.1,0.18c-0.02,0.04-0.1,0.12,0.02-0.01c-0.07,0.07-0.13,0.15-0.2,0.22
			c-0.04,0.04-0.16,0.13,0,0.01c-0.04,0.03-0.07,0.05-0.11,0.08c-0.05,0.03-0.1,0.06-0.14,0.09c-0.02,0.01-0.22,0.1-0.11,0.06
			c0.12-0.05-0.08,0.03-0.09,0.03c-0.04,0.01-0.09,0.03-0.13,0.04c-0.05,0.01-0.11,0.02-0.17,0.03c-0.12,0.03,0.18,0-0.03,0
			c-0.1,0-0.2,0.01-0.31,0c-0.04,0-0.18-0.03-0.04,0c-0.07-0.01-0.14-0.03-0.2-0.04c-0.04-0.01-0.09-0.02-0.13-0.04
			c0.01,0-0.2-0.08-0.1-0.03c0.1,0.04-0.1-0.05-0.1-0.05c-0.04-0.02-0.08-0.04-0.12-0.07c-0.05-0.03-0.1-0.06-0.15-0.09
			c-0.03-0.02-0.15-0.11-0.04-0.02c-0.09-0.07-0.18-0.15-0.26-0.23c-0.04-0.04-0.08-0.08-0.12-0.13c-0.02-0.03-0.11-0.15-0.03-0.03
			c-0.05-0.08-0.1-0.15-0.15-0.23c-0.03-0.06-0.06-0.12-0.1-0.18c-0.01-0.02-0.05-0.13-0.01-0.01c-0.04-0.11-0.07-0.22-0.1-0.33
			c0-0.01-0.03-0.23-0.02-0.09c-0.01-0.07-0.01-0.14-0.01-0.21c0-0.05,0-0.09,0-0.14c0,0,0.02-0.21,0.01-0.1
			c0.04-0.25,0.11-0.47,0.19-0.63c0.22-0.43,0.49-0.71,0.92-0.93c0.29-0.15,0.38-0.55,0.22-0.82C121.72,7.2,121.38,7.15,121.08,7.28
			L121.08,7.28z"/>
	</g>
</g>
<g>
	<g>
		<path class="st0" d="M130.99,8.77c-0.83,0.04-1.63,0.27-2.36,0.67c-0.66,0.37-1.48,0.95-1.73,1.71c-0.27,0.82,0.29,1.56,0.91,2.05
			c0.65,0.51,1.44,0.81,2.27,0.85c1.73,0.07,3.33-1.12,3.82-2.76c0.49-1.64-0.17-3.48-1.3-4.69c-1.36-1.46-3.54-2.21-5.49-2.33
			c-0.69-0.04-0.7,0.89-0.15,1.11c1.23,0.49,2.53,0.84,3.63,1.62c0.93,0.66,1.7,1.67,1.87,2.81c0.16,1.06-0.35,2.09-1.28,2.63
			c-1.01,0.59-2.39,0.35-3.16-0.54c-0.53-0.61,0.35-1.33,0.83-1.67c0.64-0.44,1.36-0.69,2.14-0.75
			C131.43,9.44,131.44,8.75,130.99,8.77L130.99,8.77z"/>
	</g>
</g>
<g>
	<g>
		<path class="st0" d="M137.02,11.99c0.93,0.06,1.87-0.01,2.77-0.23c0.77-0.19,1.73-0.47,2.15-1.21c0.75-1.32-0.42-2.82-1.8-2.89
			c-1.56-0.08-2.7,1.34-3.06,2.72c-0.21,0.81-0.19,1.7,0.36,2.37c0.48,0.58,1.24,0.83,1.95,0.97c1.02,0.2,2.06,0.32,3.1,0.42
			c1.13,0.11,2.24,0.21,3.37,0.11c0.66-0.06,0.91-1.08,0.17-1.23c-1.8-0.37-3.67-0.47-5.5-0.65c-0.61-0.06-1.36-0.06-1.9-0.4
			c-0.62-0.39-0.45-1.22-0.27-1.81c0.2-0.67,0.62-1.32,1.34-1.47c0.54-0.11,1.14,0.09,1.2,0.7c0.06,0.69-0.82,0.78-1.32,0.9
			c-0.84,0.19-1.69,0.26-2.55,0.22C136.08,10.47,136.08,11.93,137.02,11.99L137.02,11.99z"/>
	</g>
</g>
<g>
	<g>
		<path class="st0" d="M146.36,7.16c0.11,1.14,0.21,2.27,0.34,3.41c0.14,1.17,0.24,2.34,0.62,3.46c0.27,0.8,1.3,0.61,1.4-0.18
			c0.15-1.12,0.04-2.22-0.05-3.34c-0.09-1.12-0.21-2.23-0.32-3.34c-0.05-0.54-0.41-1-0.99-1C146.87,6.16,146.31,6.62,146.36,7.16
			L146.36,7.16z"/>
	</g>
</g>
<g>
	<g>
		<path class="st0" d="M153.88,7.53c-0.48,0.17-0.98,0.37-1.32,0.77c-0.34,0.4-0.45,0.9-0.34,1.41c0.18,0.81,0.95,1.23,1.44,1.84
			c-0.04-0.05,0.09,0.13,0.1,0.16c0.05,0.09,0.06,0.11,0.08,0.19c0.03,0.11,0.03,0.25,0,0.37c-0.07,0.31-0.3,0.62-0.52,0.8
			c-0.36,0.28-0.82,0.38-1.26,0.43c-0.53,0.07-1.08-0.02-1.59,0.17c-0.22,0.08-0.4,0.24-0.43,0.49c-0.02,0.21,0.07,0.49,0.28,0.58
			c0.13,0.06,0.27,0.14,0.41,0.17c0.15,0.04,0.32,0.03,0.48,0.03c0.27,0.01,0.54,0,0.81-0.02c0.56-0.05,1.1-0.18,1.61-0.43
			c0.88-0.43,1.58-1.4,1.57-2.4c-0.01-0.97-0.71-1.58-1.32-2.23c-0.16-0.17-0.15-0.14-0.25-0.32c-0.02-0.04-0.04-0.07-0.06-0.11
			c0.03,0.08,0.03,0.08,0.01,0c-0.02-0.08-0.02-0.08,0,0c-0.02,0.08-0.01,0.07,0-0.01c0.04-0.07,0.07-0.14,0.17-0.19
			c0.21-0.11,0.25-0.12,0.5-0.2c0.39-0.12,0.66-0.52,0.55-0.93C154.72,7.7,154.27,7.39,153.88,7.53L153.88,7.53z"/>
	</g>
</g>
<g>
	<g>
		<path class="st0" d="M160.35,2.26c0.54,0.14,1.49,0.33,1.71,0.94c0.26,0.74-0.66,1.66-1.02,2.23c-0.51,0.82-0.79,1.76-0.83,2.72
			c-0.04,0.91,0.08,2.4,1.04,2.85c0.39,0.18,0.93,0.05,1.04-0.43c0.12-0.55-0.09-1.06-0.22-1.6C161.96,8.5,161.93,8,162,7.53
			c0.14-0.98,0.75-1.71,1.16-2.58c0.45-0.93,0.56-1.98-0.12-2.83c-0.57-0.71-1.48-1.01-2.33-1.22
			C159.83,0.69,159.47,2.04,160.35,2.26L160.35,2.26z"/>
	</g>
</g>
<g>
	<g>
		<path class="st0" d="M162.33,15.21c-0.19,0.07-0.32,0.14-0.47,0.27c-0.03,0.02-0.05,0.05-0.07,0.07
			c-0.06,0.07-0.12,0.15-0.16,0.23c-0.15,0.28-0.2,0.6-0.12,0.91c0.02,0.09,0.06,0.18,0.11,0.27c0.01,0.03,0.03,0.06,0.05,0.09
			c0.12,0.17,0.24,0.3,0.42,0.4c0.29,0.16,0.62,0.19,0.94,0.11c0.1-0.02,0.2-0.07,0.29-0.11c0.04-0.02,0.07-0.04,0.1-0.06
			c0.17-0.12,0.32-0.25,0.41-0.44c0.11-0.22,0.13-0.43,0.04-0.66c-0.09-0.23-0.26-0.37-0.5-0.45c-0.24-0.08-0.48-0.15-0.72-0.23
			c-0.12-0.04-0.24-0.07-0.36-0.1c-0.1-0.02-0.22-0.06-0.32-0.06c-0.1,0-0.2,0.03-0.29,0.06c-0.33,0.09-0.53,0.5-0.34,0.8
			c0.05,0.08,0.1,0.18,0.17,0.24c0.08,0.08,0.18,0.13,0.27,0.18c0.11,0.06,0.22,0.12,0.34,0.17c0.23,0.11,0.46,0.21,0.68,0.32
			c-0.09-0.34-0.19-0.69-0.28-1.03c-0.01,0.02-0.02,0.04-0.04,0.05c0.04-0.05,0.08-0.1,0.12-0.16c-0.02,0.03-0.05,0.06-0.08,0.08
			c0.05-0.04,0.11-0.08,0.16-0.12c-0.04,0.03-0.08,0.05-0.12,0.07c0.06-0.03,0.13-0.05,0.19-0.08c-0.05,0.02-0.1,0.03-0.16,0.04
			c0.07-0.01,0.13-0.02,0.2-0.02c-0.05,0-0.1,0-0.15,0c0.06,0.01,0.13,0.02,0.19,0.03c-0.05-0.01-0.1-0.02-0.15-0.04
			c0.06,0.02,0.12,0.05,0.18,0.07c-0.04-0.02-0.08-0.04-0.11-0.06c0.05,0.04,0.11,0.08,0.16,0.12c-0.03-0.02-0.06-0.05-0.08-0.08
			c0.04,0.05,0.08,0.11,0.12,0.16c-0.02-0.03-0.04-0.06-0.06-0.1c0.03,0.06,0.05,0.12,0.08,0.19c-0.02-0.05-0.03-0.09-0.04-0.14
			c0.01,0.06,0.02,0.13,0.02,0.19c-0.01-0.07-0.01-0.13,0-0.19c-0.01,0.06-0.02,0.12-0.02,0.18c0.01-0.05,0.02-0.09,0.04-0.14
			c-0.02,0.06-0.05,0.11-0.07,0.17c0.02-0.04,0.04-0.08,0.06-0.11c-0.04,0.05-0.07,0.1-0.11,0.14c0.03-0.03,0.06-0.06,0.09-0.09
			c-0.05,0.04-0.1,0.07-0.14,0.11c0.01-0.01,0.03-0.02,0.04-0.03c0.29-0.18,0.41-0.52,0.28-0.84c-0.06-0.13-0.15-0.26-0.28-0.33
			C162.68,15.2,162.49,15.15,162.33,15.21L162.33,15.21z"/>
	</g>
</g>
<g>
	<g>
		<path class="st0" d="M73.96,22.56c2.83-0.03,5.67-0.02,8.5,0.04c2.83,0.06,5.67,0.19,8.5,0.08c0.59-0.02,0.57-0.84,0-0.9
			c-2.82-0.29-5.67-0.27-8.5-0.25c-2.83,0.02-5.67,0.06-8.5,0.14C73.39,21.69,73.38,22.57,73.96,22.56L73.96,22.56z"/>
	</g>
</g>
<g>
	<g>
		<path class="st0" d="M106.1,22.61c14.61,0.05,29.21,0.21,43.81-0.35c4.12-0.16,8.24-0.38,12.35-0.65c0.52-0.03,0.53-0.82,0-0.81
			c-14.6,0.3-29.2,0.78-43.81,0.9c-4.12,0.03-8.24,0.01-12.36-0.06C105.48,21.63,105.48,22.6,106.1,22.61L106.1,22.61z"/>
	</g>
</g>
</svg>
