<?xml version="1.0" encoding="utf-8"?>
<!-- Generator: Adobe Illustrator 26.0.2, SVG Export Plug-In . SVG Version: 6.00 Build 0)  -->
<svg version="1.1" id="Layer_1" xmlns="http://www.w3.org/2000/svg" xmlns:xlink="http://www.w3.org/1999/xlink" x="0px" y="0px"
	 viewBox="0 0 208.68 112.34" style="enable-background:new 0 0 208.68 112.34;" xml:space="preserve">
<style type="text/css">
	.st0{fill:#FD46FC;}
	.st1{fill:#486AFB;}
</style>
<g>
	<g>
		<path class="st0" d="M23.35,62.18c0.16,1.66,0.24,3.33,0.3,4.99c0.03,0.82,0.04,1.64,0.06,2.45c0.02,0.8-0.09,1.69,0.22,2.44
			c0.15,0.37,0.8,0.33,0.95-0.02c0.32-0.72,0.24-1.57,0.25-2.34c0-0.85-0.02-1.7-0.05-2.55c-0.07-1.67-0.21-3.33-0.37-4.99
			C24.61,61.31,23.27,61.34,23.35,62.18L23.35,62.18z"/>
	</g>
</g>
<g>
	<g>
		<path class="st0" d="M24.59,62.51c1.04-0.5,2.69-0.83,3.41,0.36c0.65,1.06-0.36,2.31-1.32,2.72c-0.35,0.15-0.74,0.25-1.12,0.31
			c-0.45,0.08-0.92,0.01-1.29,0.31c-0.23,0.19-0.16,0.6,0.09,0.73c0.43,0.21,0.96,0.01,1.39-0.09c0.44-0.1,0.86-0.23,1.27-0.42
			c0.74-0.33,1.4-0.86,1.78-1.59c0.38-0.72,0.45-1.56,0.11-2.31c-0.33-0.71-1.06-1.19-1.8-1.37c-1.03-0.24-2.07,0.07-3,0.52
			c-0.23,0.11-0.31,0.43-0.18,0.65C24.08,62.59,24.36,62.62,24.59,62.51L24.59,62.51z"/>
	</g>
</g>
<g>
	<g>
		<path class="st0" d="M32.06,59.29c-1.45,1.17-2.25,3.08-2.05,4.93c0.2,1.8,1.33,3.55,3.1,4.14c0.34,0.11,0.68-0.4,0.38-0.63
			c-1.2-0.91-2.21-2.12-2.44-3.65c-0.23-1.58,0.46-3.16,1.67-4.16C33.18,59.54,32.52,58.92,32.06,59.29L32.06,59.29z"/>
	</g>
</g>
<g>
	<g>
		<path class="st0" d="M35.72,65.61c0.75-0.61,1.51-1.22,2.25-1.85c0.36-0.3,0.72-0.6,1.08-0.91c0.36-0.32,0.81-0.63,1.06-1.05
			c0.14-0.24-0.09-0.6-0.38-0.49c-0.46,0.16-0.85,0.53-1.23,0.82c-0.39,0.31-0.78,0.63-1.17,0.94c-0.77,0.62-1.52,1.25-2.28,1.88
			c-0.2,0.16-0.18,0.5,0,0.67C35.24,65.82,35.52,65.77,35.72,65.61L35.72,65.61z"/>
	</g>
</g>
<g>
	<g>
		<path class="st0" d="M35.52,63.1c0.68,1.45,1.76,2.86,3.21,3.59c0.53,0.27,1.1-0.41,0.66-0.85c-0.52-0.53-1.06-1.06-1.53-1.64
			c-0.03-0.04-0.06-0.07-0.09-0.11c-0.05-0.06-0.03-0.04,0.01,0.01c-0.06-0.08-0.11-0.15-0.17-0.23c-0.11-0.15-0.22-0.31-0.32-0.47
			c-0.2-0.32-0.38-0.66-0.54-1c-0.15-0.34-0.66-0.43-0.96-0.24C35.45,62.37,35.35,62.74,35.52,63.1L35.52,63.1z"/>
	</g>
</g>
<g>
	<g>
		<path class="st0" d="M42.92,61.41c-0.03,0.04-0.05,0.07-0.08,0.11c-0.01,0.01-0.01,0.02-0.02,0.03c0,0-0.01,0.01-0.01,0.01
			c0,0,0,0,0,0.01c0,0,0,0,0,0c-0.01,0.03-0.02,0.05-0.03,0.08c-0.01,0.02-0.01,0.04-0.02,0.06c-0.03,0.1,0,0.22,0.08,0.29
			c0.04,0.04,0.08,0.06,0.14,0.08c0.05,0.01,0.11,0.01,0.16,0c0.02-0.01,0.04-0.01,0.06-0.02c0.02,0,0.03-0.01,0.04-0.02
			c0.02-0.01,0.03-0.01,0.04-0.02c0,0,0.01,0,0.01-0.01c0,0,0.01-0.01,0.01-0.01c0.01-0.01,0.02-0.01,0.03-0.02
			c0.04-0.03,0.07-0.05,0.11-0.08c0.06-0.03,0.11-0.08,0.14-0.14c0.03-0.06,0.05-0.12,0.05-0.18c0-0.03-0.01-0.06-0.01-0.1
			c-0.02-0.07-0.05-0.12-0.1-0.17c-0.03-0.04-0.08-0.06-0.12-0.08c-0.04-0.02-0.09-0.03-0.14-0.03c-0.07,0-0.13,0.02-0.19,0.05
			C43,61.31,42.95,61.36,42.92,61.41L42.92,61.41z"/>
	</g>
</g>
<g>
	<g>
		<path class="st0" d="M43.62,66.36c0.02,0.03,0.03,0.07,0.05,0.1c0.05,0.1-0.04-0.11-0.01-0.03c0.02,0.07,0.04,0.13,0.06,0.2
			c0.02,0.06,0.03,0.12,0.04,0.18c0,0.02,0.01,0.04,0.01,0.06c0.01,0.05,0,0.02-0.01-0.07c-0.01,0.03,0,0.07,0.01,0.09
			c0,0.07,0,0.14,0,0.21c0,0.06-0.03,0.13-0.02,0.19c0.01-0.09,0.02-0.12,0.01-0.07c0,0.02-0.01,0.04-0.01,0.06
			c-0.01,0.03-0.01,0.06-0.02,0.09c-0.02,0.07-0.03,0.13-0.05,0.2c-0.02,0.05-0.06,0.12-0.06,0.18c0.04-0.09,0.05-0.11,0.03-0.06
			c-0.01,0.02-0.02,0.03-0.02,0.05c-0.01,0.03-0.03,0.06-0.04,0.08c-0.06,0.12-0.13,0.23-0.2,0.34c-0.07,0.11,0.09-0.11,0.01-0.01
			c-0.02,0.02-0.04,0.05-0.06,0.07c-0.05,0.05-0.1,0.1-0.14,0.14c-0.12,0.12-0.22,0.24-0.32,0.37c-0.22,0.29,0.07,0.7,0.4,0.7
			c0.42-0.01,0.78-0.26,1.06-0.55c0.28-0.29,0.47-0.62,0.6-1c0.24-0.7,0.17-1.5-0.17-2.15c-0.16-0.3-0.59-0.4-0.87-0.22
			C43.57,65.68,43.45,66.04,43.62,66.36L43.62,66.36z"/>
	</g>
</g>
<g>
	<g>
		<path class="st0" d="M43.21,61.85c0,0.01,0,0.02,0,0.02c0-0.01,0,0.07,0.01,0.11c0.01,0.03,0.03,0.07,0.04,0.1
			c0.03,0.05,0.09,0.12,0.15,0.14c0.02,0.01,0.07,0.03,0.09,0.04c0.01,0,0.07,0.01,0.05,0.01c0.01,0,0.04,0.01,0.05,0.01
			c0.02,0,0.09-0.01,0.1-0.01c0,0,0.01,0,0.01,0c0.04-0.01,0.08-0.03,0.11-0.05c0.04-0.02,0.09-0.06,0.12-0.1
			c0.03-0.03,0.05-0.06,0.08-0.1c0.01-0.02,0.02-0.05,0.03-0.07c0.01-0.02,0.02-0.04,0.03-0.07c0.01-0.03,0.01-0.07,0.02-0.1
			c0-0.01,0-0.01,0-0.02c0-0.03-0.01-0.07-0.01-0.1c0,0,0-0.01,0-0.01c-0.01-0.04-0.03-0.08-0.05-0.11
			c-0.02-0.03-0.05-0.06-0.07-0.09c0,0-0.01-0.01-0.01-0.01c-0.01-0.01-0.02-0.02-0.03-0.03c-0.03-0.03-0.06-0.05-0.08-0.08
			c-0.02-0.02-0.05-0.04-0.08-0.07c0.02,0.03,0.04,0.05,0.06,0.08c-0.01-0.01-0.02-0.02-0.02-0.03c0.01,0.03,0.02,0.06,0.04,0.09
			c0-0.01,0-0.02-0.01-0.02c0,0.03,0.01,0.06,0.01,0.09c0-0.03,0-0.07-0.01-0.1c-0.01-0.03-0.02-0.06-0.04-0.09
			c-0.02-0.03-0.04-0.05-0.06-0.08c0.02,0.02,0.04,0.05,0.06,0.07c0,0-0.01-0.01-0.01-0.01c0.01,0.03,0.02,0.05,0.03,0.08
			c0,0,0-0.01,0-0.01c-0.02-0.08-0.07-0.16-0.15-0.19c-0.03-0.01-0.05-0.02-0.08-0.03c-0.05-0.01-0.11-0.01-0.16,0
			c-0.01,0-0.01,0-0.02,0c-0.03,0.01-0.07,0.02-0.1,0.04c-0.03,0.02-0.05,0.04-0.08,0.06c-0.02,0.02-0.04,0.05-0.06,0.08
			c-0.01,0.02-0.03,0.07-0.04,0.09c-0.01,0.03-0.01,0.07-0.01,0.09c0,0,0,0.01,0,0.01c0,0.04,0,0.09,0.02,0.13
			c0.02,0.05,0.03,0.09,0.06,0.14c0,0.01,0.01,0.02,0.01,0.02c0.02,0.03,0.05,0.07,0.08,0.1c0.02,0.02,0.03,0.03,0.05,0.04
			c0.03,0.03,0.07,0.05,0.09,0.08c-0.02-0.03-0.04-0.05-0.06-0.08c0,0.01,0.01,0.01,0.01,0.02c-0.01-0.03-0.02-0.06-0.04-0.09
			c0,0.01,0,0.01,0,0.02c0-0.03-0.01-0.06-0.01-0.1c0,0.01,0,0.01,0,0.02c0-0.03,0.01-0.06,0.01-0.09c0,0.01-0.01,0.02-0.01,0.03
			c0.01-0.03,0.03-0.06,0.04-0.09c-0.01,0.01-0.01,0.03-0.02,0.04c0.02-0.03,0.04-0.05,0.06-0.08c-0.01,0.01-0.02,0.02-0.03,0.03
			c0.03-0.02,0.05-0.04,0.08-0.06c-0.01,0.01-0.02,0.01-0.03,0.02c0.03-0.01,0.06-0.03,0.1-0.04c0,0-0.01,0-0.01,0
			c0.03,0,0.07-0.01,0.1-0.01c0,0,0,0-0.01,0c0.03,0,0.06,0.01,0.1,0.01c0,0,0,0-0.01,0c0.03,0.01,0.06,0.02,0.09,0.04c0,0,0,0,0,0
			c0.03,0.02,0.05,0.04,0.08,0.06c0,0,0,0,0,0c0.02,0.03,0.04,0.05,0.06,0.08c0,0,0,0,0,0c0.01,0.03,0.03,0.06,0.04,0.09
			c0,0,0-0.01,0-0.01c0,0.03,0.01,0.06,0.01,0.1c0-0.01,0-0.01,0-0.02c0,0.03-0.01,0.06-0.01,0.1c0,0,0-0.01,0-0.01
			c0.02-0.06,0.02-0.13,0-0.19c-0.01-0.03-0.03-0.06-0.04-0.09c-0.03-0.06-0.08-0.11-0.14-0.14c-0.04-0.03-0.09-0.04-0.14-0.04
			c-0.05-0.01-0.1-0.01-0.15,0.01c-0.05,0.01-0.1,0.04-0.14,0.07c-0.04,0.03-0.08,0.06-0.1,0.11
			C43.23,61.72,43.22,61.79,43.21,61.85L43.21,61.85z"/>
	</g>
</g>
<g>
	<g>
		<path class="st0" d="M51.51,60.63c-1.4,0.02-2.62,1.01-3.11,2.29c-0.5,1.3-0.02,2.74,1.09,3.55c1.08,0.79,2.68,0.99,3.82,0.2
			c1.42-0.98,1.42-2.91,0.44-4.21c-0.54-0.71-1.3-1.16-2.19-1.26c-0.8-0.09-1.89,0.05-2.44,0.72c-0.27,0.33,0.05,0.74,0.44,0.57
			c0.58-0.26,1.07-0.54,1.73-0.51c0.58,0.03,1.13,0.27,1.55,0.68c0.77,0.76,1.08,2.34,0.14,3.1c-1.59,1.27-4.25-0.29-3.91-2.29
			c0.2-1.17,1.21-2.18,2.42-2.21C51.9,61.25,51.93,60.63,51.51,60.63L51.51,60.63z"/>
	</g>
</g>
<g>
	<g>
		<path class="st0" d="M49.59,64.96c0.7-0.03,1.41-0.05,2.11-0.08c0.35-0.01,0.69-0.03,1.04-0.04c0.17-0.01,0.35-0.01,0.52-0.02
			c0.09,0,0.11,0,0.06,0c0,0-0.01,0-0.01,0c0.05,0.03,0.05,0.03,0.02,0.01c-0.03-0.04-0.03-0.04-0.01-0.01
			c-0.02-0.07-0.03-0.14-0.05-0.2c0-0.02,0.01-0.03,0.01-0.05c-0.11,0.34,0.28,0.57,0.57,0.42c0.44-0.23,0.22-0.77-0.14-0.94
			c-0.2-0.1-0.41-0.08-0.62-0.07c-0.24,0.01-0.48,0.01-0.72,0.02c-0.92,0.03-1.83,0.05-2.75,0.08
			C49.04,64.1,49.01,64.98,49.59,64.96L49.59,64.96z"/>
	</g>
</g>
<g>
	<g>
		<path class="st0" d="M55.12,60.1c1.12,1.37,2.37,2.87,2.65,4.67c0.21,1.38-0.26,2.99-1.46,3.79c-0.35,0.23-0.16,0.89,0.29,0.72
			c1.77-0.65,2.54-2.58,2.38-4.36c-0.2-2.21-1.67-4-3.03-5.64C55.48,58.72,54.66,59.53,55.12,60.1L55.12,60.1z"/>
	</g>
</g>
<g>
	<g>
		<path class="st0" d="M27.3,42c-0.32-1.43-0.01-2.96,0.89-4.13c-0.21,0-0.42,0.01-0.63,0.01c0.68,1.53,0.88,3.11,0.78,4.77
			c-0.04,0.64,0.94,0.6,1-0.01c0.09-0.99-0.12-2.2,0.43-3.09c0.36-0.57,1.32-1.17,1.86-0.47c0.4,0.52,0.33,1.34,0.41,1.95
			c0.1,0.76,0.34,1.62,1.16,1.86c0.37,0.11,0.82-0.37,0.56-0.71c-0.18-0.25-0.33-0.43-0.47-0.72c-0.1-0.23-0.17-0.55-0.23-0.83
			c-0.13-0.61-0.22-1.29-0.57-1.82c-0.4-0.61-1.07-0.94-1.79-0.81c-0.76,0.13-1.47,0.73-1.79,1.42c-0.48,1.01-0.44,2.13-0.57,3.22
			c0.33,0,0.66-0.01,1-0.01c0.11-1.75-0.35-3.57-1.13-5.13c-0.13-0.27-0.49-0.2-0.63,0.01c-0.95,1.37-1.34,3.04-1.03,4.68
			C26.63,42.7,27.41,42.49,27.3,42L27.3,42z"/>
	</g>
</g>
<g>
	<g>
		<path class="st0" d="M35.12,39.55c-0.67,0.61-0.67,1.7-0.16,2.41c0.61,0.86,1.72,1.05,2.7,0.86c0.86-0.17,1.82-0.76,2-1.69
			c0.18-0.93-0.46-1.77-1.29-2.12c-0.54-0.23-1.12-0.23-1.69-0.12c-0.28,0.06-0.55,0.15-0.82,0.26c-0.31,0.12-0.63,0.24-0.92,0.42
			c-0.19,0.11-0.33,0.37-0.26,0.59c0.07,0.22,0.2,0.42,0.42,0.54c0.24,0.13,0.46,0.11,0.7,0.01c0.31-0.14,0.29-0.6,0.01-0.75
			c0.1,0.05-0.13-0.09-0.12-0.07c0.03,0.03,0.04,0.1,0.03,0c-0.13,0.22-0.26,0.43-0.39,0.65c0.75-0.31,1.42-0.79,2.26-0.75
			c0.5,0.02,1.12,0.41,1.17,0.93c0.02,0.21-0.1,0.44-0.25,0.59c-0.2,0.2-0.45,0.32-0.73,0.4c-0.34,0.1-0.61,0.14-0.98,0.11
			c0.03,0-0.14-0.02-0.16-0.03c-0.08-0.02-0.16-0.04-0.23-0.06c-0.07-0.02-0.29-0.13-0.35-0.17c-0.26-0.19-0.34-0.38-0.4-0.69
			c-0.05-0.22,0.03-0.47,0.19-0.62c0.2-0.19,0.2-0.52,0.01-0.71C35.64,39.34,35.33,39.37,35.12,39.55L35.12,39.55z"/>
	</g>
</g>
<g>
	<g>
		<path class="st0" d="M42.7,39.7c-0.78,0.33-1.2,1.28-1.01,2.09c0.2,0.84,1.08,1.4,1.92,1.32c0.97-0.09,1.6-0.89,1.7-1.82
			c0.11-0.97-0.42-1.85-1.08-2.51c-0.4-0.39-0.85-0.74-1.31-1.06c-0.23-0.16-0.47-0.31-0.72-0.45c-0.27-0.15-0.56-0.32-0.88-0.31
			c-0.29,0.01-0.55,0.35-0.37,0.62c0.22,0.33,0.63,0.5,0.96,0.72c0.32,0.21,0.64,0.43,0.94,0.68c0.51,0.41,1.05,0.89,1.29,1.52
			c0.18,0.47,0.15,1.12-0.26,1.43c-0.13,0.09-0.32,0.14-0.49,0.12c-0.24-0.03-0.45-0.13-0.59-0.32c-0.12-0.16-0.16-0.41-0.09-0.65
			c0.07-0.27,0.24-0.44,0.47-0.55c0.24-0.11,0.31-0.45,0.19-0.66C43.22,39.61,42.94,39.59,42.7,39.7L42.7,39.7z"/>
	</g>
</g>
<g>
	<g>
		<path class="st0" d="M46.93,41.47c1.42,0.62,3.14,0.12,3.97-1.21c0.08-0.13,0.04-0.34-0.11-0.41c-1.15-0.56-3.15-1.45-3.95,0.1
			c-0.31,0.6-0.31,1.32,0.01,1.91c0.35,0.64,1.02,1.08,1.72,1.24c0.98,0.23,1.98-0.11,2.83-0.59c0.47-0.26,0.18-1.02-0.35-0.86
			c-0.62,0.19-1.25,0.35-1.89,0.32c-0.43-0.02-0.92-0.13-1.26-0.44c-0.31-0.27-0.47-0.63-0.39-1.04c0.09-0.45,0.41-0.72,0.88-0.74
			c0.71-0.02,1.48,0.27,2.08,0.64c-0.04-0.14-0.07-0.27-0.11-0.41c-0.66,0.87-2.01,1.21-3.01,0.78c-0.21-0.09-0.45-0.04-0.57,0.16
			C46.68,41.09,46.72,41.38,46.93,41.47L46.93,41.47z"/>
	</g>
</g>
<g>
	<g>
		<path class="st0" d="M52.37,36.72c0.07,1.19,0.19,2.39,0.35,3.57c0.16,1.16,0.3,2.38,0.84,3.44c0.27,0.52,1.06,0.23,1.08-0.3
			c0.05-1.14-0.25-2.29-0.43-3.41c-0.18-1.1-0.31-2.21-0.4-3.32c-0.03-0.38-0.29-0.7-0.7-0.7C52.75,36.02,52.35,36.34,52.37,36.72
			L52.37,36.72z"/>
	</g>
</g>
<g>
	<g>
		<path class="st0" d="M19.99,48.88c-0.84,0.2-1.3,1.09-1.21,1.92c0.1,0.92,0.91,1.55,1.83,1.45c1-0.11,1.8-0.86,1.88-1.87
			c0.09-1.13-0.65-2.27-1.37-3.08c-0.71-0.8-2.07-1.81-3.18-1.26c-0.24,0.12-0.28,0.55-0.01,0.66c0.36,0.15,0.73,0.2,1.09,0.32
			c0.34,0.12,0.65,0.32,0.93,0.54c0.61,0.5,1.13,1.18,1.42,1.91c0.25,0.64,0.26,1.37-0.4,1.72c-0.44,0.24-1.06,0.19-1.28-0.29
			c-0.2-0.44-0.02-1.12,0.47-1.25C20.7,49.52,20.51,48.76,19.99,48.88L19.99,48.88z"/>
	</g>
</g>
<g>
	<g>
		<path class="st0" d="M23.32,49.53c0.09,0.39,0.16,0.78,0.27,1.16c0.11,0.38,0.23,0.76,0.38,1.13c0.09,0.23,0.27,0.38,0.53,0.35
			c0.22-0.03,0.46-0.24,0.44-0.48c-0.02-0.22-0.04-0.45-0.08-0.68c-0.04-0.2-0.08-0.41-0.11-0.61c-0.07-0.4-0.2-0.79-0.29-1.18
			c-0.08-0.29-0.41-0.49-0.7-0.4C23.45,48.92,23.25,49.21,23.32,49.53L23.32,49.53z"/>
	</g>
</g>
<g>
	<g>
		<path class="st0" d="M23.72,47.19c0.06-0.04,0.12-0.08,0.19-0.11c0.09-0.05,0.16-0.12,0.24-0.19c0.02-0.02,0.04-0.05,0.05-0.07
			c0.02-0.04,0.04-0.08,0.04-0.12c0.01-0.03,0.01-0.06,0-0.08c0-0.04-0.01-0.09-0.04-0.12c-0.02-0.02-0.04-0.05-0.05-0.07
			c-0.02-0.02-0.05-0.03-0.07-0.05c-0.04-0.02-0.08-0.03-0.12-0.04c-0.04-0.01-0.09-0.01-0.13,0.01c-0.03,0.01-0.07,0.02-0.1,0.02
			c-0.02,0-0.03,0.01-0.05,0.01c-0.02,0.01-0.03,0.01-0.05,0.02c-0.07,0.03-0.13,0.05-0.2,0.08c-0.07,0.02-0.13,0.06-0.18,0.11
			c-0.02,0.03-0.04,0.05-0.06,0.08c-0.03,0.06-0.05,0.12-0.06,0.19c0,0.05,0.01,0.1,0.03,0.15c0.02,0.05,0.04,0.09,0.08,0.13
			c0.04,0.04,0.08,0.06,0.13,0.08c0.05,0.02,0.1,0.03,0.15,0.03C23.59,47.24,23.66,47.23,23.72,47.19L23.72,47.19z"/>
	</g>
</g>
<g>
	<g>
		<path class="st0" d="M28.55,47.92c-0.57,0.05-1.13,0.22-1.62,0.54c-0.31,0.2-0.66,0.46-0.56,0.88c0.06,0.23,0.2,0.46,0.38,0.62
			c0.34,0.31,0.79,0.4,1.16,0.65c-0.05-0.04,0.04,0.03,0.06,0.05c0.04,0.04,0.08,0.08,0.12,0.12c0.04,0.04,0,0-0.01-0.01
			c0.02,0.02,0.04,0.05,0.05,0.08c0.01,0.02,0.02,0.04,0.03,0.06c0.04,0.07-0.03-0.11,0,0.02c0.03,0.09-0.01-0.06,0,0.03
			c0,0,0.01-0.09,0-0.03c-0.01,0.06,0.02-0.04,0.03-0.05c0.01-0.04,0.01,0-0.02,0.02c0.01-0.01,0.07-0.04,0.01-0.01
			c-0.01,0.01-0.11,0.05-0.05,0.03c0.05-0.02-0.04,0.01-0.05,0.02c-0.65,0.22-1.32,0.34-1.96,0.57c-0.18,0.07-0.32,0.21-0.32,0.41
			c0,0.17,0.13,0.38,0.31,0.4c0.66,0.09,1.34-0.03,1.96-0.26c0.3-0.1,0.61-0.21,0.84-0.44c0.23-0.23,0.33-0.58,0.26-0.9
			c-0.13-0.56-0.64-0.93-1.14-1.12c-0.02-0.01-0.14-0.05-0.11-0.04c0.03,0.01-0.1-0.04-0.12-0.05c-0.1-0.04-0.19-0.09-0.29-0.15
			c-0.03-0.02-0.05-0.03-0.07-0.05c0.04,0.03,0.04,0.03-0.01-0.01c-0.03-0.03-0.06-0.06-0.09-0.09c-0.04-0.04-0.04-0.04,0,0
			c-0.03-0.05-0.03-0.05-0.01,0.01c-0.01-0.03-0.02-0.05-0.02-0.08c0,0.06,0,0.05,0,0c-0.08,0.14-0.17,0.28-0.25,0.42
			c0.23-0.18,0.48-0.34,0.75-0.46c0.03-0.01,0.03-0.02,0,0c0.04-0.01,0.07-0.03,0.11-0.04c0.07-0.03,0.14-0.05,0.22-0.07
			c0.15-0.04,0.25-0.06,0.37-0.07c0.27-0.03,0.52-0.22,0.52-0.51C29.05,48.16,28.82,47.89,28.55,47.92L28.55,47.92z"/>
	</g>
</g>
<g>
	<g>
		<path class="st0" d="M31.06,46.88c0.09,0.93,0.18,1.86,0.29,2.78c0.05,0.46,0.11,0.91,0.17,1.37c0.06,0.44,0.13,0.92,0.28,1.34
			c0.17,0.44,0.74,0.34,0.8-0.11c0.06-0.45,0.03-0.92-0.01-1.37c-0.04-0.46-0.08-0.92-0.12-1.37c-0.09-0.93-0.2-1.85-0.31-2.78
			C32.09,46.1,31,46.26,31.06,46.88L31.06,46.88z"/>
	</g>
</g>
<g>
	<g>
		<path class="st0" d="M31.16,49.87c0.47-0.12,0.95-0.22,1.43-0.29c0.02,0,0.17-0.02,0.11-0.02c0.05-0.01,0.11-0.01,0.16-0.02
			c0.12-0.01,0.24-0.03,0.36-0.04c0.27-0.03,0.53-0.06,0.8-0.11c0.4-0.07,0.44-0.74,0.01-0.81c-0.28-0.04-0.54-0.06-0.82-0.05
			c-0.25,0.01-0.49,0.03-0.74,0.06c-0.53,0.06-1.05,0.16-1.56,0.29c-0.26,0.07-0.46,0.36-0.38,0.63
			C30.61,49.78,30.88,49.94,31.16,49.87L31.16,49.87z"/>
	</g>
</g>
<g>
	<g>
		<path class="st0" d="M36.01,51.32c-0.24-0.29-0.49-0.63-0.57-1.01c-0.02-0.08-0.02-0.17-0.01-0.27c-0.01,0.04,0.02-0.1,0.02-0.09
			c0-0.01,0.04-0.13,0.02-0.06c0.02-0.04,0.04-0.08,0.06-0.11c0.01-0.01,0.08-0.11,0.03-0.05c0.05-0.07,0.12-0.13,0.18-0.18
			c0.09-0.08-0.06,0.03,0.05-0.03c0.04-0.02,0.07-0.05,0.11-0.07c0.04-0.02,0.08-0.04,0.12-0.06c0.12-0.06-0.07,0.02,0.05-0.02
			c0.18-0.06,0.33-0.09,0.51-0.1c0.49-0.02,0.95,0.08,1.43,0.17c0.16,0.03,0.32-0.04,0.38-0.19c0.05-0.13,0.02-0.33-0.13-0.39
			c-0.56-0.23-1.17-0.44-1.78-0.41c-0.51,0.03-0.99,0.21-1.37,0.56c-0.4,0.36-0.57,0.89-0.5,1.42c0.07,0.54,0.4,1.02,0.72,1.45
			c0.16,0.21,0.42,0.29,0.65,0.11C36.18,51.8,36.17,51.53,36.01,51.32L36.01,51.32z"/>
	</g>
</g>
<g>
	<g>
		<path class="st0" d="M39.6,49.95c0.04,0.37,0.06,0.75,0.13,1.11c0.03,0.16,0.06,0.32,0.09,0.48c0.03,0.16,0.09,0.31,0.14,0.47
			c0.08,0.26,0.32,0.42,0.59,0.39c0.28-0.04,0.46-0.26,0.49-0.53c0.02-0.16,0.04-0.33,0.04-0.49c0-0.16,0-0.31-0.01-0.47
			c-0.01-0.32-0.06-0.64-0.09-0.96c-0.02-0.19-0.06-0.34-0.2-0.48c-0.12-0.11-0.31-0.2-0.47-0.19c-0.18,0.01-0.37,0.07-0.49,0.21
			C39.69,49.6,39.58,49.78,39.6,49.95L39.6,49.95z"/>
	</g>
</g>
<g>
	<g>
		<path class="st0" d="M39.79,46.73c-0.01,0-0.01,0-0.02,0c-0.03-0.01-0.07-0.01-0.11-0.01c-0.01,0-0.01,0-0.02,0
			c-0.04,0-0.07,0.01-0.11,0.02c-0.02,0-0.04,0.02-0.06,0.02c-0.06,0.02-0.05,0.02-0.1,0.06c-0.01,0.01-0.04,0.02-0.05,0.04
			c-0.01,0.01-0.03,0.04-0.04,0.05c-0.02,0.02-0.03,0.04-0.05,0.06c-0.02,0.03-0.03,0.07-0.04,0.1c0,0.01,0,0.01,0,0.02
			c0,0.01,0,0.01,0,0.02c-0.01,0.03-0.01,0.07-0.02,0.11c0,0,0,0.01,0,0.01c0,0.04,0.01,0.09,0.01,0.14c0,0.02,0.01,0.05,0.02,0.07
			c0.01,0.04,0.03,0.08,0.05,0.11c0,0.01,0.01,0.01,0.01,0.02c0.03,0.04,0.06,0.08,0.09,0.11c0.01,0.01,0.02,0.02,0.03,0.02
			c0.03,0.02,0.06,0.05,0.09,0.07c0,0,0.01,0.01,0.01,0.01c0,0,0.01,0.01,0.01,0.01c0.03,0.02,0.07,0.03,0.11,0.04
			c0,0,0.01,0,0.01,0c0,0,0,0,0,0c0,0,0.1,0.01,0.1,0.01c0,0,0.01,0,0.01,0c0.02,0,0.04-0.01,0.06-0.01c0.01,0,0.04,0,0.06-0.01
			c0.01,0,0.01,0,0.02,0c0.03-0.01,0.07-0.03,0.1-0.04c0,0,0.01,0,0.01,0c0,0,0,0,0.01,0c0.03-0.02,0.06-0.04,0.09-0.07
			c0,0,0,0,0.01-0.01c0,0,0.06-0.08,0.06-0.08c0.01-0.01,0.01-0.03,0.02-0.04c0.02-0.03,0.02-0.06,0.03-0.09
			c0.01-0.06,0.01-0.03,0.01-0.05c0-0.01-0.01-0.08-0.01-0.1c0,0,0-0.01,0-0.01c0,0,0,0,0,0c-0.01-0.03-0.02-0.06-0.03-0.08
			c-0.02-0.02-0.04-0.05-0.05-0.07c-0.01-0.01-0.02-0.02-0.03-0.03c-0.02-0.02-0.05-0.03-0.07-0.04c-0.01-0.01-0.03-0.01-0.04-0.02
			c0.03,0.01,0.05,0.02,0.08,0.03c0,0-0.01,0-0.01,0c0,0,0,0,0,0c-0.01-0.01-0.08-0.03-0.09-0.04c-0.02,0-0.08-0.01-0.1-0.01
			c-0.04,0-0.07,0.01-0.1,0.01c0.03,0,0.06-0.01,0.1-0.01c-0.01,0-0.02,0-0.03,0c0.03,0,0.06,0.01,0.1,0.01
			c-0.01,0-0.02,0-0.02-0.01c0.03,0.01,0.06,0.02,0.09,0.04c-0.02-0.01-0.04-0.02-0.05-0.03c0.03,0.02,0.05,0.04,0.08,0.06
			c-0.01-0.01-0.03-0.02-0.04-0.04c0.02,0.03,0.04,0.06,0.07,0.08c-0.01-0.02-0.02-0.04-0.03-0.06c-0.01-0.02-0.02-0.04-0.03-0.06
			c0.01,0.03,0.03,0.07,0.04,0.1c-0.01-0.03-0.02-0.07-0.03-0.1c0,0.03,0.01,0.07,0.01,0.1c0-0.01,0-0.03,0-0.04
			c0,0.03-0.01,0.06-0.01,0.1c0-0.01,0-0.02,0.01-0.03c-0.01,0.03-0.03,0.06-0.04,0.09c0.01-0.01,0.01-0.02,0.02-0.03
			c-0.02,0.03-0.04,0.05-0.06,0.08c0.01-0.01,0.01-0.01,0.02-0.02c-0.03,0.02-0.05,0.04-0.08,0.06c0.01-0.01,0.02-0.01,0.03-0.02
			c0.03-0.02,0.05-0.04,0.08-0.06c0.02-0.02,0.04-0.05,0.06-0.07c0.01-0.03,0.02-0.05,0.04-0.08c0.01-0.04,0.02-0.09,0.01-0.13
			c0-0.03-0.01-0.06-0.02-0.09c-0.01-0.03-0.02-0.06-0.05-0.08c-0.02-0.03-0.04-0.05-0.06-0.06C39.87,46.76,39.83,46.74,39.79,46.73
			L39.79,46.73z"/>
	</g>
</g>
<g>
	<g>
		<path class="st0" d="M42.41,46.11c0.02,0.89,0.07,1.78,0.16,2.66c0.09,0.88,0.19,1.82,0.48,2.67c0.22,0.64,1.23,0.38,1.05-0.28
			c-0.21-0.76-0.42-1.62,0.1-2.31c0.2-0.26,0.49-0.46,0.83-0.44c0.39,0.02,0.78,0.26,1.05,0.53c0.52,0.53,0.32,1.26-0.23,1.69
			c-0.63,0.48-1.53,0.48-2.28,0.55c-0.32,0.03-0.34,0.46-0.01,0.5c0.83,0.09,1.73,0.11,2.47-0.32c0.62-0.36,1.13-1.08,1.08-1.82
			c-0.05-0.8-0.73-1.38-1.44-1.64c-0.76-0.28-1.55,0.01-2.04,0.64c-0.6,0.78-0.59,1.84-0.59,2.78c0.36,0,0.72-0.01,1.08-0.01
			c-0.06-0.88-0.25-1.76-0.37-2.63c-0.11-0.85-0.17-1.7-0.21-2.56C43.52,45.37,42.4,45.39,42.41,46.11L42.41,46.11z"/>
	</g>
</g>
<g>
	<g>
		<path class="st0" d="M47.96,50.46c0.17,0,0.18-0.26,0.01-0.26C47.8,50.2,47.79,50.46,47.96,50.46L47.96,50.46z"/>
	</g>
</g>
<g>
	<g>
		<path class="st0" d="M47.43,49.76c0,0.96,0.68,1.84,1.59,2.11c0.93,0.28,1.91-0.2,2.39-1.01c0.12-0.2,0.22-0.43,0.25-0.67
			c0.04-0.26,0.07-0.56-0.04-0.82c-0.1-0.23-0.24-0.35-0.49-0.37c-0.28-0.03-0.58,0.09-0.76,0.3c-0.11,0.13-0.16,0.3-0.07,0.45
			c0.08,0.14,0.27,0.22,0.43,0.17c0.05-0.01,0.06-0.02,0.02-0.01c0.05,0,0.06,0,0.02-0.01c0.05,0.01,0.06,0.01,0.01-0.01
			c0.03,0.01,0.05,0.03,0.08,0.05c-0.08-0.15-0.17-0.29-0.25-0.44c-0.01,0.06-0.01,0.11-0.01,0.17c0,0.11,0.02-0.09,0,0.03
			c-0.02,0.08-0.03,0.22-0.08,0.28c0.01-0.02,0.02-0.04,0.03-0.06c-0.01,0.03-0.02,0.05-0.04,0.08c-0.02,0.04-0.04,0.08-0.06,0.11
			c-0.02,0.04-0.05,0.08-0.08,0.13c-0.09,0.13,0.07-0.07-0.02,0.02c-0.06,0.07-0.13,0.13-0.19,0.19c-0.04,0.03-0.02,0.02,0.05-0.04
			c-0.02,0.02-0.05,0.03-0.07,0.05c-0.03,0.02-0.07,0.04-0.11,0.07c-0.02,0.01-0.18,0.08-0.07,0.04c0.12-0.04-0.05,0.02-0.07,0.02
			c-0.04,0.01-0.08,0.02-0.12,0.03c-0.03,0.01-0.05,0.01-0.08,0.02c0.1-0.01,0.12-0.02,0.07-0.01c-0.05,0-0.1,0.01-0.15,0
			c-0.01,0-0.03,0-0.04,0c-0.07-0.01-0.06,0,0.04,0.01c0,0-0.27-0.07-0.29-0.08c-0.12-0.04,0.12,0.06,0,0
			c-0.04-0.02-0.08-0.04-0.11-0.06c-0.01-0.01-0.15-0.08-0.14-0.09c0,0.01,0.12,0.1,0-0.01c-0.02-0.02-0.21-0.22-0.21-0.22
			c0.02-0.01,0.09,0.14,0.01,0c-0.02-0.04-0.04-0.07-0.07-0.11c-0.01-0.02-0.1-0.16-0.04-0.07c0.02,0.05,0.02,0.05,0,0
			c-0.01-0.03-0.02-0.05-0.02-0.08c-0.01-0.04-0.02-0.08-0.03-0.12c-0.01-0.07-0.01-0.06,0,0.04c0-0.03,0-0.06,0-0.09
			c-0.01-0.33-0.28-0.64-0.63-0.63C47.75,49.14,47.43,49.4,47.43,49.76L47.43,49.76z"/>
	</g>
</g>
<g>
	<g>
		<path class="st0" d="M52.7,47.24c0.19,0.79,0.38,1.57,0.58,2.35c0.21,0.8,0.41,1.6,0.78,2.34c0.22,0.45,0.97,0.22,0.96-0.26
			c-0.02-0.83-0.22-1.64-0.42-2.44c-0.19-0.79-0.39-1.57-0.59-2.35C53.79,46.05,52.5,46.42,52.7,47.24L52.7,47.24z"/>
	</g>
</g>
<g>
	<g>
		<path class="st0" d="M52.57,48.53c1.32-0.13,2.65-0.23,3.95-0.48c0.43-0.08,0.35-0.73-0.08-0.74c-1.28-0.02-2.57,0.11-3.85,0.2
			c-0.28,0.02-0.52,0.22-0.53,0.52C52.05,48.29,52.29,48.56,52.57,48.53L52.57,48.53z"/>
	</g>
</g>
<g>
	<g>
		<path class="st0" d="M57.6,49.14c0.2,0.8,0.36,1.65,0.74,2.38c0.2,0.39,0.84,0.19,0.84-0.23c-0.01-0.83-0.27-1.65-0.47-2.45
			c-0.07-0.29-0.4-0.49-0.69-0.39C57.73,48.54,57.52,48.83,57.6,49.14L57.6,49.14z"/>
	</g>
</g>
<g>
	<g>
		<path class="st0" d="M57.17,46.38c-0.04,0.15-0.04,0.3-0.02,0.46c0.01,0.08,0.05,0.15,0.08,0.22c0.02,0.04,0.04,0.07,0.06,0.11
			c0.05,0.06,0.09,0.13,0.16,0.18c0.02,0.01,0.03,0.02,0.05,0.03c0.03,0.03,0.06,0.04,0.1,0.05c0.05,0.02,0.11,0.03,0.16,0.03
			c0.04,0,0.09-0.01,0.13-0.02c0.02,0,0.04-0.01,0.06-0.01c0.11-0.03,0.22-0.07,0.32-0.12c0.07-0.04,0.13-0.08,0.18-0.13
			c0.01-0.01,0.02-0.02,0.03-0.04c0.03-0.04,0.07-0.08,0.1-0.13c0.03-0.04,0.05-0.09,0.06-0.14c0.01-0.02,0.01-0.03,0.01-0.05
			c0.01-0.04,0.02-0.1,0.02-0.15c0-0.05-0.01-0.1-0.02-0.14c-0.01-0.04-0.03-0.09-0.06-0.13c-0.02-0.04-0.05-0.07-0.08-0.1
			c0,0-0.01-0.01-0.01-0.01c-0.03-0.03-0.07-0.06-0.11-0.09c-0.01-0.01-0.02-0.01-0.03-0.02c-0.1-0.05-0.16-0.06-0.27-0.07
			c-0.06,0-0.12,0.01-0.18,0.02c-0.01,0-0.02,0-0.03,0.01c-0.04,0.01-0.09,0.03-0.12,0.05c0,0-0.01,0.01-0.01,0.01
			c-0.08,0.05-0.14,0.11-0.19,0.19c-0.02,0.03-0.04,0.08-0.05,0.11c-0.01,0.03-0.02,0.08-0.02,0.11c0,0.11,0.04,0.22,0.12,0.3
			c0.06,0.06,0.13,0.09,0.21,0.12c0.08,0.03,0.21,0.01,0.28-0.04c0.08-0.05,0.16-0.13,0.17-0.22c0-0.01,0-0.01,0.01-0.02
			c-0.01,0.03-0.03,0.06-0.04,0.09c0,0,0-0.01,0.01-0.01c-0.02,0.03-0.04,0.05-0.06,0.08c0.03-0.04,0.06-0.07,0.08-0.11
			c-0.02,0.03-0.04,0.06-0.07,0.09c0,0,0.01-0.01,0.01-0.01c-0.03,0.02-0.06,0.05-0.09,0.07c0.01,0,0.01-0.01,0.02-0.01
			c-0.04,0.01-0.07,0.03-0.11,0.04c0.01,0,0.02-0.01,0.03-0.01c-0.04,0.01-0.07,0.01-0.11,0.02c0.03,0,0.05,0,0.08,0
			c-0.04,0-0.07-0.01-0.11-0.01c0.02,0,0.05,0.01,0.07,0.02c-0.04-0.01-0.07-0.03-0.11-0.04c0.04,0.02,0.09,0.03,0.13,0.05
			c-0.04-0.01-0.07-0.03-0.11-0.04c0.01,0.01,0.03,0.01,0.04,0.02c-0.03-0.02-0.06-0.05-0.09-0.07c0.01,0.01,0.02,0.02,0.03,0.03
			c-0.02-0.03-0.05-0.06-0.07-0.09c0.01,0.01,0.01,0.02,0.02,0.03c-0.01-0.04-0.03-0.07-0.04-0.11c0,0.01,0.01,0.02,0.01,0.03
			c0-0.04-0.01-0.08-0.01-0.11c0,0.01,0,0.03,0,0.04c0.01-0.04,0.01-0.07,0.02-0.11c0,0.02-0.01,0.04-0.02,0.06
			c0.01-0.03,0.03-0.07,0.04-0.1c-0.01,0.02-0.02,0.04-0.03,0.06c0.02-0.03,0.05-0.06,0.07-0.09c-0.02,0.02-0.04,0.04-0.06,0.06
			c0.03-0.02,0.06-0.05,0.1-0.07c-0.04,0.03-0.08,0.05-0.13,0.07c0.04-0.02,0.07-0.03,0.11-0.05c-0.07,0.03-0.15,0.05-0.22,0.07
			c0.14,0.04,0.28,0.07,0.42,0.11c-0.03-0.03-0.07-0.06-0.09-0.09c0.02,0.03,0.05,0.06,0.07,0.09c-0.03-0.04-0.05-0.08-0.07-0.12
			c0.01,0.04,0.03,0.07,0.04,0.11c-0.02-0.05-0.03-0.09-0.04-0.14c0,0.04,0.01,0.07,0.01,0.11c0-0.04,0-0.08,0-0.12
			c-0.01,0.04-0.01,0.07-0.02,0.11c0-0.02,0.01-0.04,0.01-0.06c0.03-0.11,0.02-0.23-0.04-0.33c-0.05-0.09-0.16-0.18-0.26-0.2
			c-0.11-0.02-0.23-0.01-0.33,0.05C57.28,46.18,57.21,46.27,57.17,46.38L57.17,46.38z"/>
	</g>
</g>
<g>
	<g>
		<path class="st0" d="M61.55,48.59c-0.44-0.06-0.87,0.08-1.15,0.44c-0.28,0.36-0.41,0.81-0.3,1.26c0.21,0.83,1.1,1.45,1.91,1.57
			c0.46,0.07,0.9-0.01,1.28-0.29c0.28-0.22,0.49-0.54,0.58-0.88c0.18-0.66-0.03-1.42-0.56-1.85c-0.31-0.25-0.68-0.41-1.08-0.46
			c-0.44-0.06-1.1-0.06-1.36,0.36c-0.13,0.21-0.01,0.52,0.23,0.57c0.18,0.04,0.32,0,0.49-0.05c0.06-0.02,0.12-0.03,0.18-0.05
			c0.02,0,0.13-0.02,0.03-0.01c0.04,0,0.07-0.01,0.11-0.01c0.06,0,0.12,0,0.18,0c0.01,0,0.13,0.02,0.04,0
			c0.02,0,0.05,0.01,0.07,0.01c0.06,0.01,0.12,0.03,0.18,0.05c0.01,0,0.12,0.04,0.04,0.01c0.03,0.01,0.07,0.03,0.1,0.04
			c0.05,0.03,0.11,0.06,0.16,0.09c0.01,0.01,0.1,0.08,0.03,0.02c0.02,0.02,0.04,0.03,0.06,0.05c0.05,0.04,0.09,0.08,0.13,0.13
			c0.08,0.08-0.04-0.07,0.02,0.03c0.02,0.03,0.04,0.06,0.05,0.09c0.02,0.03,0.03,0.06,0.05,0.09c0.02,0.03,0,0.05-0.01-0.01
			c0.01,0.05,0.03,0.11,0.04,0.16c0.02,0.1,0-0.08,0,0.02c0,0.02,0,0.04,0,0.06c0,0.07,0,0.13-0.01,0.2
			c0.01-0.11-0.01,0.05-0.02,0.08c-0.01,0.05-0.03,0.1-0.05,0.15c-0.03,0.1,0.04-0.06,0-0.01c-0.01,0.02-0.02,0.05-0.04,0.07
			c-0.01,0.02-0.09,0.16-0.1,0.16c0,0,0.08-0.08,0.01-0.01c-0.02,0.02-0.04,0.04-0.05,0.06c-0.02,0.02-0.04,0.03-0.06,0.05
			c-0.04,0.05,0.11-0.07,0.02-0.01c-0.02,0.01-0.13,0.06-0.14,0.08c0.03-0.05,0.11-0.03,0.02-0.01c-0.04,0.01-0.07,0.02-0.11,0.03
			c-0.1,0.02-0.03,0-0.01,0c-0.05,0-0.1,0.01-0.14,0c-0.03,0-0.06,0-0.1,0c0.1,0.01-0.05-0.01-0.06-0.01
			c-0.08-0.02-0.16-0.04-0.23-0.07c-0.1-0.03-0.03-0.01-0.01,0c-0.06-0.03-0.12-0.05-0.18-0.08c-0.12-0.06-0.24-0.13-0.36-0.21
			c0.09,0.06,0.02,0.02,0.01,0c-0.03-0.03-0.06-0.05-0.09-0.08c-0.02-0.02-0.04-0.04-0.06-0.06c-0.02-0.02-0.13-0.16-0.05-0.05
			c-0.04-0.06-0.08-0.12-0.12-0.19c-0.01-0.03-0.06-0.1-0.01,0c-0.02-0.03-0.03-0.08-0.04-0.12c0-0.01-0.01-0.03-0.01-0.04
			c-0.01-0.06-0.01-0.05,0,0.02c-0.01-0.03,0-0.08,0-0.11c-0.01-0.11-0.03,0.09,0-0.02c0.01-0.04,0.02-0.07,0.03-0.11
			c0.03-0.11-0.05,0.08,0.01-0.02c0.02-0.03,0.04-0.06,0.06-0.09c0.05-0.09-0.05,0.04,0,0c0.01-0.01,0.07-0.09,0.09-0.09
			c0.01,0.01-0.1,0.06-0.02,0.02c0.02-0.01,0.04-0.02,0.06-0.03c-0.07,0.03-0.08,0.03-0.03,0.01c0.01,0,0.06-0.02,0.07-0.02
			c-0.07,0.01-0.08,0.01-0.03,0.01c0.05,0,0.05,0-0.02-0.01c0.26,0.03,0.55-0.07,0.61-0.35C61.95,48.95,61.82,48.63,61.55,48.59
			L61.55,48.59z"/>
	</g>
</g>
<g>
	<g>
		<path class="st0" d="M65.33,51.36c0.38-0.38,0.26-0.86,0.21-1.33c-0.01-0.06-0.01-0.18,0-0.26c-0.01,0.04,0.01-0.05,0.02-0.06
			c0.02-0.07,0.01-0.04,0-0.02c0.01-0.02,0.02-0.05,0.04-0.07c0.01-0.02,0.03-0.04,0.04-0.07c0,0.01-0.03,0.04,0,0
			c0.03-0.04,0.06-0.07,0.1-0.1c0,0,0.05-0.04,0.02-0.02c-0.03,0.02,0.02-0.01,0.02-0.02c0.05-0.03,0.09-0.06,0.14-0.08
			c-0.06,0.03,0.05-0.02,0.07-0.02c0.05-0.01,0.09-0.03,0.14-0.03c-0.06,0.01,0.04,0,0.06,0c0.03,0,0.05,0,0.08,0
			c0.02,0,0.06,0,0.01,0c0.05,0.01,0.1,0.02,0.14,0.03c0.02,0.01,0.13,0.05,0.09,0.03c0.04,0.02,0.08,0.04,0.12,0.06
			c0.02,0.01,0.14,0.09,0.09,0.06c0.08,0.06,0.16,0.14,0.23,0.22c0.01,0.02,0.08,0.1,0.04,0.05c0.04,0.05,0.07,0.1,0.1,0.15
			c0.06,0.09,0.11,0.19,0.15,0.29c-0.03-0.07,0.01,0.03,0.02,0.05c0.02,0.06,0.04,0.13,0.06,0.2c0.02,0.07,0.03,0.15,0.05,0.22
			c0.01,0.04,0.01,0.07,0.02,0.11c0,0.01,0.01,0.09,0,0.04c0.02,0.14,0.02,0.28,0.03,0.45c0.01,0.14,0.01,0.29,0.02,0.43
			c0.01,0.21,0.04,0.38,0.13,0.58c0.12,0.29,0.61,0.25,0.74-0.01c0.15-0.31,0.16-0.66,0.16-1.01c0-0.32-0.05-0.64-0.13-0.94
			c-0.15-0.53-0.43-1.05-0.86-1.39c-0.44-0.35-0.98-0.52-1.53-0.39c-0.49,0.12-0.94,0.47-1.12,0.94c-0.11,0.28-0.07,0.58-0.03,0.87
			c0.02,0.12,0.04,0.23,0.04,0.33c0,0.07,0,0.09-0.01,0.13c-0.01,0.05,0,0.03-0.04,0.07C64.46,51.2,64.99,51.7,65.33,51.36
			L65.33,51.36z"/>
	</g>
</g>
<g>
	<g>
		<path class="st0" d="M145.52,56.16c-0.84,0.2-1.3,1.09-1.21,1.92c0.1,0.92,0.91,1.55,1.83,1.45c1-0.11,1.8-0.86,1.88-1.87
			c0.09-1.13-0.65-2.27-1.37-3.08c-0.71-0.8-2.07-1.81-3.18-1.26c-0.24,0.12-0.28,0.55-0.01,0.66c0.36,0.15,0.73,0.2,1.09,0.32
			c0.34,0.12,0.65,0.32,0.93,0.54c0.61,0.5,1.13,1.18,1.42,1.91c0.25,0.64,0.26,1.37-0.4,1.72c-0.44,0.24-1.06,0.19-1.28-0.29
			c-0.2-0.44-0.02-1.12,0.47-1.25C146.22,56.8,146.04,56.04,145.52,56.16L145.52,56.16z"/>
	</g>
</g>
<g>
	<g>
		<path class="st0" d="M148.85,56.81c0.09,0.39,0.16,0.78,0.27,1.16c0.11,0.38,0.23,0.76,0.38,1.13c0.09,0.23,0.27,0.38,0.53,0.35
			c0.22-0.03,0.46-0.24,0.44-0.48c-0.02-0.22-0.04-0.45-0.08-0.68c-0.04-0.2-0.08-0.41-0.11-0.61c-0.07-0.4-0.2-0.79-0.29-1.18
			c-0.08-0.29-0.41-0.49-0.7-0.4C148.97,56.2,148.78,56.49,148.85,56.81L148.85,56.81z"/>
	</g>
</g>
<g>
	<g>
		<path class="st0" d="M149.24,54.47c0.06-0.04,0.12-0.08,0.19-0.11c0.09-0.05,0.16-0.12,0.24-0.19c0.02-0.02,0.04-0.05,0.05-0.07
			c0.02-0.04,0.04-0.08,0.04-0.12c0.01-0.03,0.01-0.06,0-0.08c0-0.04-0.01-0.09-0.04-0.12c-0.02-0.02-0.04-0.05-0.05-0.07
			c-0.02-0.02-0.05-0.03-0.07-0.05c-0.04-0.02-0.08-0.03-0.12-0.04c-0.04-0.01-0.09-0.01-0.13,0.01c-0.03,0.01-0.07,0.02-0.1,0.02
			c-0.02,0-0.03,0.01-0.05,0.01c-0.02,0.01-0.03,0.01-0.05,0.02c-0.07,0.03-0.13,0.05-0.2,0.08c-0.07,0.02-0.13,0.06-0.18,0.11
			c-0.02,0.03-0.04,0.05-0.06,0.08c-0.03,0.06-0.05,0.12-0.06,0.19c0,0.05,0.01,0.1,0.03,0.15c0.02,0.05,0.04,0.09,0.08,0.13
			c0.04,0.04,0.08,0.06,0.13,0.08c0.05,0.02,0.1,0.03,0.15,0.03C149.11,54.52,149.18,54.5,149.24,54.47L149.24,54.47z"/>
	</g>
</g>
<g>
	<g>
		<path class="st0" d="M154.07,55.19c-0.57,0.05-1.13,0.22-1.62,0.54c-0.31,0.2-0.66,0.46-0.56,0.88c0.06,0.23,0.2,0.46,0.38,0.62
			c0.34,0.31,0.79,0.4,1.16,0.65c-0.05-0.04,0.04,0.03,0.06,0.05c0.04,0.04,0.08,0.08,0.12,0.12c0.04,0.04,0,0-0.01-0.01
			c0.02,0.02,0.04,0.05,0.05,0.08c0.01,0.02,0.02,0.04,0.03,0.06c0.04,0.07-0.03-0.11,0,0.02c0.03,0.09-0.01-0.06,0,0.03
			c0,0,0.01-0.09,0-0.03c-0.01,0.06,0.02-0.04,0.03-0.05c0.01-0.04,0.01,0-0.02,0.02c0.01-0.01,0.07-0.04,0.01-0.01
			c-0.01,0.01-0.11,0.05-0.05,0.03c0.05-0.02-0.04,0.01-0.05,0.02c-0.65,0.22-1.32,0.34-1.96,0.57c-0.18,0.07-0.32,0.21-0.32,0.41
			c0,0.17,0.13,0.38,0.31,0.4c0.66,0.09,1.34-0.03,1.96-0.26c0.3-0.1,0.61-0.21,0.84-0.44c0.23-0.23,0.33-0.58,0.26-0.9
			c-0.13-0.56-0.64-0.93-1.14-1.12c-0.02-0.01-0.14-0.05-0.11-0.04c0.03,0.01-0.1-0.04-0.12-0.05c-0.1-0.04-0.19-0.09-0.29-0.15
			c-0.03-0.02-0.05-0.03-0.07-0.05c0.04,0.03,0.04,0.03-0.01-0.01c-0.03-0.03-0.06-0.06-0.09-0.09c-0.04-0.04-0.04-0.04,0,0
			c-0.03-0.05-0.03-0.05-0.01,0.01c-0.01-0.03-0.02-0.05-0.02-0.08c0,0.06,0,0.05,0,0c-0.08,0.14-0.17,0.28-0.25,0.42
			c0.23-0.18,0.48-0.34,0.75-0.46c0.03-0.01,0.03-0.02,0,0c0.04-0.01,0.07-0.03,0.11-0.04c0.07-0.03,0.14-0.05,0.22-0.07
			c0.15-0.04,0.25-0.06,0.37-0.07c0.27-0.03,0.52-0.22,0.52-0.51C154.58,55.44,154.34,55.17,154.07,55.19L154.07,55.19z"/>
	</g>
</g>
<g>
	<g>
		<path class="st0" d="M156.58,54.15c0.09,0.93,0.18,1.86,0.29,2.78c0.05,0.46,0.11,0.91,0.17,1.37c0.06,0.44,0.13,0.92,0.28,1.34
			c0.17,0.44,0.74,0.34,0.8-0.11c0.07-0.45,0.03-0.92-0.01-1.37c-0.04-0.46-0.08-0.92-0.12-1.37c-0.09-0.93-0.2-1.85-0.31-2.78
			C157.62,53.38,156.52,53.54,156.58,54.15L156.58,54.15z"/>
	</g>
</g>
<g>
	<g>
		<path class="st0" d="M156.68,57.14c0.47-0.12,0.95-0.22,1.43-0.29c0.02,0,0.17-0.02,0.11-0.02c0.05-0.01,0.11-0.01,0.16-0.02
			c0.12-0.01,0.24-0.03,0.36-0.04c0.27-0.03,0.53-0.06,0.8-0.11c0.4-0.07,0.44-0.74,0.01-0.81c-0.28-0.04-0.54-0.06-0.82-0.05
			c-0.25,0.01-0.49,0.03-0.74,0.06c-0.53,0.06-1.05,0.16-1.56,0.29c-0.26,0.07-0.46,0.36-0.38,0.63
			C156.13,57.06,156.41,57.22,156.68,57.14L156.68,57.14z"/>
	</g>
</g>
<g>
	<g>
		<path class="st0" d="M161.53,58.6c-0.24-0.29-0.49-0.63-0.57-1.01c-0.02-0.08-0.02-0.17-0.01-0.27c-0.01,0.04,0.02-0.1,0.02-0.09
			c0-0.01,0.04-0.13,0.02-0.06c0.02-0.04,0.04-0.08,0.06-0.11c0.01-0.01,0.08-0.11,0.03-0.05c0.05-0.07,0.12-0.13,0.18-0.18
			c0.09-0.08-0.06,0.03,0.05-0.03c0.04-0.02,0.07-0.05,0.11-0.07c0.04-0.02,0.08-0.04,0.12-0.06c0.12-0.06-0.07,0.02,0.05-0.02
			c0.18-0.06,0.33-0.09,0.51-0.1c0.49-0.02,0.95,0.08,1.43,0.17c0.16,0.03,0.32-0.04,0.38-0.19c0.05-0.13,0.02-0.33-0.13-0.39
			c-0.56-0.23-1.17-0.44-1.78-0.41c-0.51,0.03-0.99,0.21-1.37,0.56c-0.4,0.36-0.57,0.89-0.5,1.42c0.07,0.54,0.4,1.02,0.72,1.45
			c0.16,0.21,0.42,0.29,0.65,0.11C161.7,59.08,161.7,58.81,161.53,58.6L161.53,58.6z"/>
	</g>
</g>
<g>
	<g>
		<path class="st0" d="M165.12,57.23c0.04,0.37,0.06,0.75,0.13,1.11c0.03,0.16,0.06,0.32,0.09,0.48c0.03,0.16,0.09,0.31,0.14,0.47
			c0.08,0.26,0.32,0.42,0.59,0.39c0.28-0.04,0.46-0.26,0.49-0.53c0.02-0.16,0.04-0.33,0.04-0.49c0-0.16,0-0.31-0.01-0.47
			c-0.01-0.32-0.06-0.64-0.09-0.96c-0.02-0.19-0.06-0.34-0.2-0.48c-0.12-0.11-0.31-0.2-0.47-0.19c-0.18,0.01-0.37,0.07-0.49,0.21
			C165.21,56.88,165.1,57.06,165.12,57.23L165.12,57.23z"/>
	</g>
</g>
<g>
	<g>
		<path class="st0" d="M165.31,54.01c-0.01,0-0.01,0-0.02,0c-0.03-0.01-0.07-0.01-0.11-0.01c-0.01,0-0.01,0-0.02,0
			c-0.04,0-0.07,0.01-0.11,0.02c-0.02,0-0.04,0.02-0.06,0.02c-0.06,0.02-0.05,0.02-0.1,0.06c-0.01,0.01-0.04,0.02-0.05,0.04
			c-0.01,0.01-0.03,0.04-0.04,0.05c-0.02,0.02-0.03,0.04-0.05,0.06c-0.02,0.03-0.03,0.07-0.04,0.1c0,0.01,0,0.01,0,0.02
			c0,0.01,0,0.01,0,0.02c-0.01,0.03-0.01,0.07-0.02,0.11c0,0,0,0.01,0,0.01c0,0.04,0.01,0.09,0.01,0.14c0,0.02,0.01,0.05,0.02,0.07
			c0.01,0.04,0.03,0.08,0.05,0.11c0,0.01,0.01,0.01,0.01,0.02c0.03,0.04,0.06,0.08,0.09,0.11c0.01,0.01,0.02,0.02,0.03,0.02
			c0.03,0.02,0.06,0.05,0.09,0.07c0,0,0.01,0.01,0.01,0.01c0,0,0.01,0.01,0.01,0.01c0.03,0.02,0.07,0.03,0.11,0.04
			c0,0,0.01,0,0.01,0c0,0,0,0,0,0c0,0,0.1,0.01,0.1,0.01c0,0,0.01,0,0.01,0c0.02,0,0.04-0.01,0.06-0.01c0.01,0,0.04,0,0.06-0.01
			c0.01,0,0.01,0,0.02,0c0.03-0.01,0.07-0.03,0.1-0.04c0,0,0.01,0,0.01,0c0,0,0,0,0.01,0c0.03-0.02,0.06-0.04,0.09-0.07
			c0,0,0,0,0.01-0.01c0,0,0.06-0.08,0.06-0.08c0.01-0.01,0.01-0.03,0.02-0.04c0.02-0.03,0.02-0.06,0.03-0.09
			c0.01-0.06,0.01-0.03,0.01-0.05c0-0.01-0.01-0.08-0.01-0.1c0,0,0-0.01,0-0.01c0,0,0,0,0,0c-0.01-0.03-0.02-0.06-0.03-0.08
			c-0.02-0.02-0.04-0.05-0.05-0.07c-0.01-0.01-0.02-0.02-0.03-0.03c-0.02-0.02-0.05-0.03-0.07-0.04c-0.01-0.01-0.03-0.01-0.04-0.02
			c0.03,0.01,0.05,0.02,0.08,0.03c0,0-0.01,0-0.01,0c0,0,0,0,0,0c-0.01-0.01-0.08-0.03-0.09-0.04c-0.02,0-0.08-0.01-0.1-0.01
			c-0.04,0-0.07,0.01-0.1,0.01c0.03,0,0.06-0.01,0.1-0.01c-0.01,0-0.02,0-0.03,0c0.03,0,0.06,0.01,0.1,0.01
			c-0.01,0-0.02,0-0.02-0.01c0.03,0.01,0.06,0.02,0.09,0.04c-0.02-0.01-0.04-0.02-0.05-0.03c0.03,0.02,0.05,0.04,0.08,0.06
			c-0.01-0.01-0.03-0.02-0.04-0.04c0.02,0.03,0.04,0.06,0.07,0.08c-0.01-0.02-0.02-0.04-0.03-0.06c-0.01-0.02-0.02-0.04-0.03-0.06
			c0.01,0.03,0.03,0.07,0.04,0.1c-0.01-0.03-0.02-0.07-0.03-0.1c0,0.03,0.01,0.07,0.01,0.1c0-0.01,0-0.03,0-0.04
			c0,0.03-0.01,0.06-0.01,0.1c0-0.01,0-0.02,0.01-0.03c-0.01,0.03-0.03,0.06-0.04,0.09c0.01-0.01,0.01-0.02,0.02-0.03
			c-0.02,0.03-0.04,0.05-0.06,0.08c0.01-0.01,0.01-0.01,0.02-0.02c-0.03,0.02-0.05,0.04-0.08,0.06c0.01-0.01,0.02-0.01,0.03-0.02
			c0.02-0.02,0.05-0.04,0.08-0.06c0.02-0.02,0.04-0.05,0.06-0.07c0.01-0.03,0.02-0.05,0.04-0.08c0.01-0.04,0.02-0.09,0.01-0.13
			c0-0.03-0.01-0.06-0.02-0.09c-0.01-0.03-0.02-0.06-0.05-0.08c-0.02-0.03-0.04-0.05-0.06-0.06
			C165.39,54.04,165.36,54.02,165.31,54.01L165.31,54.01z"/>
	</g>
</g>
<g>
	<g>
		<path class="st0" d="M167.94,53.38c0.02,0.89,0.07,1.78,0.16,2.66c0.09,0.88,0.19,1.82,0.48,2.67c0.22,0.64,1.23,0.38,1.05-0.28
			c-0.21-0.76-0.42-1.62,0.1-2.31c0.2-0.26,0.49-0.46,0.83-0.44c0.39,0.02,0.78,0.26,1.05,0.53c0.52,0.53,0.32,1.26-0.23,1.69
			c-0.63,0.48-1.53,0.48-2.28,0.55c-0.32,0.03-0.34,0.46-0.01,0.5c0.83,0.09,1.73,0.11,2.47-0.32c0.62-0.36,1.13-1.08,1.08-1.82
			c-0.05-0.8-0.73-1.38-1.44-1.64c-0.76-0.28-1.55,0.01-2.04,0.64c-0.6,0.78-0.59,1.84-0.59,2.78c0.36,0,0.72-0.01,1.08-0.01
			c-0.06-0.88-0.25-1.76-0.37-2.63c-0.11-0.85-0.17-1.7-0.21-2.56C169.05,52.65,167.93,52.67,167.94,53.38L167.94,53.38z"/>
	</g>
</g>
<g>
	<g>
		<path class="st0" d="M173.48,57.74c0.17,0,0.18-0.26,0.01-0.26C173.32,57.48,173.31,57.74,173.48,57.74L173.48,57.74z"/>
	</g>
</g>
<g>
	<g>
		<path class="st0" d="M172.95,57.04c0,0.96,0.68,1.84,1.59,2.11c0.93,0.28,1.91-0.2,2.39-1.01c0.12-0.2,0.22-0.43,0.25-0.67
			c0.04-0.26,0.07-0.56-0.04-0.82c-0.1-0.23-0.24-0.35-0.49-0.37c-0.28-0.03-0.58,0.09-0.76,0.3c-0.11,0.13-0.16,0.3-0.07,0.45
			c0.08,0.14,0.27,0.22,0.43,0.17c0.05-0.01,0.06-0.02,0.02-0.01c0.05,0,0.06,0,0.02-0.01c0.05,0.01,0.06,0.01,0.01-0.01
			c0.03,0.01,0.05,0.03,0.08,0.05c-0.08-0.15-0.17-0.29-0.25-0.44c-0.01,0.06-0.01,0.11-0.01,0.17c0,0.11,0.02-0.09,0,0.03
			c-0.02,0.08-0.03,0.22-0.08,0.28c0.01-0.02,0.02-0.04,0.03-0.06c-0.01,0.03-0.02,0.05-0.04,0.08c-0.02,0.04-0.04,0.08-0.06,0.11
			c-0.02,0.04-0.05,0.08-0.08,0.13c-0.09,0.13,0.07-0.07-0.02,0.02c-0.06,0.07-0.13,0.13-0.19,0.19c-0.04,0.03-0.02,0.02,0.05-0.04
			c-0.02,0.02-0.05,0.03-0.07,0.05c-0.03,0.02-0.07,0.04-0.11,0.07c-0.02,0.01-0.18,0.08-0.07,0.04c0.12-0.04-0.05,0.02-0.07,0.02
			c-0.04,0.01-0.08,0.02-0.12,0.03c-0.03,0.01-0.05,0.01-0.08,0.02c0.1-0.01,0.12-0.02,0.07-0.01c-0.05,0-0.1,0.01-0.15,0
			c-0.01,0-0.03,0-0.04,0c-0.07-0.01-0.06,0,0.04,0.01c0,0-0.27-0.07-0.29-0.08c-0.12-0.04,0.12,0.06,0,0
			c-0.04-0.02-0.08-0.04-0.11-0.06c-0.01-0.01-0.15-0.08-0.14-0.09c0,0.01,0.12,0.1,0-0.01c-0.02-0.02-0.21-0.22-0.21-0.22
			c0.02-0.01,0.09,0.14,0.01,0c-0.02-0.04-0.04-0.07-0.07-0.11c-0.01-0.02-0.1-0.16-0.04-0.07c0.02,0.05,0.02,0.05,0,0
			c-0.01-0.03-0.02-0.05-0.02-0.08c-0.01-0.04-0.02-0.08-0.03-0.12c-0.01-0.07-0.01-0.06,0,0.04c0-0.03,0-0.06,0-0.09
			c-0.01-0.33-0.28-0.64-0.63-0.63C173.27,56.42,172.95,56.68,172.95,57.04L172.95,57.04z"/>
	</g>
</g>
<g>
	<g>
		<path class="st0" d="M178.22,54.52c0.19,0.79,0.38,1.57,0.58,2.35c0.21,0.8,0.41,1.6,0.78,2.34c0.22,0.45,0.97,0.22,0.96-0.26
			c-0.02-0.83-0.22-1.64-0.42-2.44c-0.19-0.79-0.39-1.57-0.59-2.35C179.32,53.33,178.02,53.7,178.22,54.52L178.22,54.52z"/>
	</g>
</g>
<g>
	<g>
		<path class="st0" d="M178.09,55.81c1.32-0.13,2.65-0.23,3.95-0.48c0.43-0.08,0.35-0.73-0.08-0.74c-1.28-0.02-2.57,0.11-3.85,0.2
			c-0.28,0.02-0.52,0.22-0.53,0.52C177.58,55.57,177.81,55.84,178.09,55.81L178.09,55.81z"/>
	</g>
</g>
<g>
	<g>
		<path class="st0" d="M183.12,56.41c0.2,0.8,0.36,1.65,0.74,2.38c0.2,0.39,0.84,0.19,0.84-0.23c-0.01-0.83-0.27-1.65-0.47-2.45
			c-0.07-0.29-0.4-0.49-0.69-0.39C183.25,55.81,183.04,56.1,183.12,56.41L183.12,56.41z"/>
	</g>
</g>
<g>
	<g>
		<path class="st0" d="M182.7,53.66c-0.04,0.15-0.04,0.3-0.02,0.46c0.01,0.08,0.05,0.15,0.08,0.22c0.02,0.04,0.04,0.07,0.06,0.11
			c0.05,0.06,0.09,0.13,0.16,0.18c0.02,0.01,0.03,0.02,0.05,0.03c0.03,0.03,0.06,0.04,0.1,0.05c0.05,0.02,0.11,0.03,0.16,0.03
			c0.04,0,0.09-0.01,0.13-0.02c0.02,0,0.04-0.01,0.06-0.01c0.11-0.03,0.22-0.07,0.32-0.12c0.07-0.04,0.13-0.08,0.18-0.13
			c0.01-0.01,0.02-0.02,0.03-0.04c0.03-0.04,0.07-0.08,0.1-0.13c0.03-0.04,0.05-0.09,0.06-0.14c0.01-0.02,0.01-0.03,0.01-0.05
			c0.01-0.04,0.02-0.1,0.02-0.15c0-0.05-0.01-0.1-0.02-0.14c-0.01-0.04-0.03-0.09-0.06-0.13c-0.02-0.04-0.05-0.07-0.08-0.1
			c0,0-0.01-0.01-0.01-0.01c-0.03-0.03-0.07-0.06-0.11-0.09c-0.01-0.01-0.02-0.01-0.03-0.02c-0.1-0.05-0.16-0.06-0.27-0.07
			c-0.06,0-0.12,0.01-0.18,0.02c-0.01,0-0.02,0-0.03,0.01c-0.04,0.01-0.09,0.03-0.12,0.05c0,0-0.01,0.01-0.01,0.01
			c-0.08,0.05-0.14,0.11-0.19,0.19c-0.02,0.03-0.04,0.08-0.05,0.11c-0.01,0.03-0.02,0.08-0.02,0.11c0,0.11,0.04,0.22,0.12,0.3
			c0.06,0.06,0.13,0.09,0.21,0.12c0.08,0.03,0.21,0.01,0.28-0.04c0.08-0.05,0.16-0.13,0.17-0.22c0-0.01,0-0.01,0.01-0.02
			c-0.01,0.03-0.03,0.06-0.04,0.09c0,0,0-0.01,0.01-0.01c-0.02,0.03-0.04,0.05-0.06,0.08c0.03-0.04,0.06-0.07,0.08-0.11
			c-0.02,0.03-0.04,0.06-0.07,0.09c0,0,0.01-0.01,0.01-0.01c-0.03,0.02-0.06,0.05-0.09,0.07c0.01,0,0.01-0.01,0.02-0.01
			c-0.04,0.01-0.07,0.03-0.11,0.04c0.01,0,0.02-0.01,0.03-0.01c-0.04,0.01-0.07,0.01-0.11,0.02c0.03,0,0.05,0,0.08,0
			c-0.04,0-0.07-0.01-0.11-0.01c0.02,0,0.05,0.01,0.07,0.02c-0.04-0.01-0.07-0.03-0.11-0.04c0.04,0.02,0.09,0.03,0.13,0.05
			c-0.04-0.01-0.07-0.03-0.11-0.04c0.01,0.01,0.03,0.01,0.04,0.02c-0.03-0.02-0.06-0.05-0.09-0.07c0.01,0.01,0.02,0.02,0.03,0.03
			c-0.02-0.03-0.05-0.06-0.07-0.09c0.01,0.01,0.01,0.02,0.02,0.03c-0.01-0.04-0.03-0.07-0.04-0.11c0,0.01,0.01,0.02,0.01,0.03
			c0-0.04-0.01-0.08-0.01-0.11c0,0.01,0,0.03,0,0.04c0.01-0.04,0.01-0.07,0.02-0.11c0,0.02-0.01,0.04-0.02,0.06
			c0.01-0.03,0.03-0.07,0.04-0.1c-0.01,0.02-0.02,0.04-0.03,0.06c0.02-0.03,0.05-0.06,0.07-0.09c-0.02,0.02-0.04,0.04-0.06,0.06
			c0.03-0.02,0.06-0.05,0.1-0.07c-0.04,0.03-0.08,0.05-0.13,0.07c0.04-0.02,0.07-0.03,0.11-0.05c-0.07,0.03-0.15,0.05-0.22,0.07
			c0.14,0.04,0.28,0.07,0.42,0.11c-0.03-0.03-0.07-0.06-0.09-0.09c0.02,0.03,0.05,0.06,0.07,0.09c-0.03-0.04-0.05-0.08-0.07-0.12
			c0.01,0.04,0.03,0.07,0.04,0.11c-0.02-0.05-0.03-0.09-0.04-0.14c0,0.04,0.01,0.07,0.01,0.11c0-0.04,0-0.08,0-0.12
			c-0.01,0.04-0.01,0.07-0.02,0.11c0-0.02,0.01-0.04,0.01-0.06c0.03-0.11,0.02-0.23-0.04-0.33c-0.05-0.09-0.16-0.18-0.26-0.2
			c-0.11-0.02-0.23-0.01-0.33,0.05C182.81,53.46,182.73,53.55,182.7,53.66L182.7,53.66z"/>
	</g>
</g>
<g>
	<g>
		<path class="st0" d="M187.07,55.87c-0.44-0.06-0.87,0.08-1.15,0.44c-0.28,0.36-0.41,0.81-0.3,1.26c0.21,0.83,1.1,1.45,1.91,1.57
			c0.46,0.07,0.9-0.01,1.28-0.29c0.28-0.22,0.49-0.54,0.58-0.88c0.18-0.66-0.03-1.42-0.56-1.85c-0.31-0.25-0.68-0.41-1.08-0.46
			c-0.44-0.06-1.1-0.06-1.36,0.36c-0.13,0.21-0.01,0.52,0.23,0.57c0.18,0.04,0.32,0,0.49-0.05c0.06-0.02,0.12-0.03,0.18-0.05
			c0.02,0,0.13-0.02,0.03-0.01c0.04,0,0.07-0.01,0.11-0.01c0.06,0,0.12,0,0.18,0c0.01,0,0.13,0.02,0.04,0
			c0.02,0,0.05,0.01,0.07,0.01c0.06,0.01,0.12,0.03,0.18,0.05c0.01,0,0.12,0.04,0.04,0.01c0.03,0.01,0.07,0.03,0.1,0.04
			c0.05,0.03,0.11,0.06,0.16,0.09c0.01,0.01,0.1,0.08,0.03,0.02c0.02,0.02,0.04,0.03,0.06,0.05c0.05,0.04,0.09,0.08,0.13,0.13
			c0.08,0.08-0.04-0.07,0.02,0.03c0.02,0.03,0.04,0.06,0.05,0.09c0.02,0.03,0.03,0.06,0.05,0.09c0.02,0.03,0,0.05-0.01-0.01
			c0.01,0.05,0.03,0.11,0.04,0.16c0.02,0.1,0-0.08,0,0.02c0,0.02,0,0.04,0,0.06c0,0.07,0,0.13-0.01,0.2
			c0.01-0.11-0.01,0.05-0.02,0.08c-0.01,0.05-0.03,0.1-0.05,0.15c-0.03,0.1,0.04-0.06,0-0.01c-0.01,0.02-0.02,0.05-0.04,0.07
			c-0.01,0.02-0.09,0.16-0.1,0.16c0,0,0.08-0.08,0.01-0.01c-0.02,0.02-0.04,0.04-0.05,0.06c-0.02,0.02-0.04,0.03-0.06,0.05
			c-0.04,0.05,0.11-0.07,0.02-0.01c-0.02,0.01-0.13,0.06-0.14,0.08c0.03-0.05,0.11-0.03,0.02-0.01c-0.04,0.01-0.07,0.02-0.11,0.03
			c-0.1,0.02-0.03,0-0.01,0c-0.05,0-0.1,0.01-0.14,0c-0.03,0-0.06,0-0.1,0c0.1,0.01-0.05-0.01-0.06-0.01
			c-0.08-0.02-0.16-0.04-0.23-0.07c-0.1-0.03-0.03-0.01-0.01,0c-0.06-0.03-0.12-0.05-0.18-0.08c-0.12-0.06-0.24-0.13-0.36-0.21
			c0.09,0.06,0.02,0.02,0.01,0c-0.03-0.03-0.06-0.05-0.09-0.08c-0.02-0.02-0.04-0.04-0.06-0.06c-0.02-0.02-0.13-0.16-0.05-0.05
			c-0.04-0.06-0.08-0.12-0.12-0.19c-0.01-0.03-0.06-0.1-0.01,0c-0.02-0.03-0.03-0.08-0.04-0.12c0-0.01-0.01-0.03-0.01-0.04
			c-0.01-0.06-0.01-0.05,0,0.02c-0.01-0.03,0-0.08,0-0.11c-0.01-0.11-0.03,0.09,0-0.02c0.01-0.04,0.02-0.07,0.03-0.11
			c0.03-0.11-0.05,0.08,0.01-0.02c0.02-0.03,0.04-0.06,0.06-0.09c0.05-0.09-0.05,0.04,0,0c0.01-0.01,0.07-0.09,0.09-0.09
			c0.01,0.01-0.1,0.06-0.02,0.02c0.02-0.01,0.04-0.02,0.06-0.03c-0.07,0.03-0.08,0.03-0.03,0.01c0.01,0,0.06-0.02,0.07-0.02
			c-0.07,0.01-0.08,0.01-0.03,0.01c0.05,0,0.05,0-0.02-0.01c0.26,0.03,0.55-0.07,0.61-0.35C187.47,56.22,187.34,55.91,187.07,55.87
			L187.07,55.87z"/>
	</g>
</g>
<g>
	<g>
		<path class="st0" d="M190.86,58.64c0.38-0.38,0.26-0.86,0.21-1.33c-0.01-0.06-0.01-0.18,0-0.26c-0.01,0.04,0.01-0.05,0.02-0.06
			c0.02-0.07,0.01-0.04,0-0.02c0.01-0.02,0.02-0.05,0.04-0.07c0.01-0.02,0.03-0.04,0.04-0.07c0,0.01-0.03,0.04,0,0
			c0.03-0.04,0.06-0.07,0.1-0.1c0,0,0.05-0.04,0.02-0.02c-0.03,0.02,0.02-0.01,0.02-0.02c0.05-0.03,0.09-0.06,0.14-0.08
			c-0.06,0.03,0.05-0.02,0.07-0.02c0.05-0.01,0.09-0.03,0.14-0.03c-0.06,0.01,0.04,0,0.06,0c0.03,0,0.05,0,0.08,0
			c0.02,0,0.06,0,0.01,0c0.05,0.01,0.1,0.02,0.14,0.03c0.02,0.01,0.13,0.05,0.09,0.03c0.04,0.02,0.08,0.04,0.12,0.06
			c0.02,0.01,0.14,0.09,0.09,0.06c0.08,0.06,0.16,0.14,0.23,0.22c0.01,0.02,0.08,0.1,0.04,0.05c0.04,0.05,0.07,0.1,0.1,0.15
			c0.06,0.09,0.11,0.19,0.15,0.29c-0.03-0.07,0.01,0.03,0.02,0.05c0.02,0.06,0.04,0.13,0.06,0.2c0.02,0.07,0.03,0.15,0.05,0.22
			c0.01,0.04,0.01,0.07,0.02,0.11c0,0.01,0.01,0.09,0,0.04c0.02,0.14,0.02,0.28,0.03,0.45c0.01,0.14,0.01,0.29,0.02,0.43
			c0.01,0.21,0.04,0.38,0.13,0.58c0.12,0.29,0.61,0.25,0.74-0.01c0.15-0.31,0.16-0.66,0.16-1.01c0-0.32-0.05-0.64-0.13-0.94
			c-0.15-0.53-0.43-1.05-0.86-1.39c-0.44-0.35-0.98-0.52-1.53-0.39c-0.49,0.12-0.94,0.47-1.12,0.94c-0.11,0.28-0.07,0.58-0.03,0.87
			c0.02,0.12,0.04,0.23,0.04,0.33c0,0.07,0,0.09-0.01,0.13c-0.01,0.05,0,0.03-0.04,0.07C189.99,58.47,190.51,58.97,190.86,58.64
			L190.86,58.64z"/>
	</g>
</g>
<g>
	<g>
		<path class="st0" d="M150.24,45.97c0.8,0.45,1.82,0.36,2.54-0.21c0.14-0.11,0.39-0.29,0.39-0.49c0.01-0.22-0.18-0.49-0.31-0.65
			c-0.27-0.35-0.65-0.62-1.09-0.74c-0.91-0.26-1.89,0.31-2.25,1.16c-0.39,0.92,0.05,2,0.8,2.59c0.51,0.4,1.11,0.59,1.76,0.63
			c0.67,0.05,1.35-0.17,1.95-0.45c0.21-0.09,0.29-0.38,0.21-0.58c-0.09-0.22-0.32-0.32-0.55-0.27c-0.6,0.15-1.25,0.25-1.86,0.17
			c-0.51-0.07-0.95-0.28-1.3-0.69c-0.28-0.33-0.43-0.83-0.26-1.28c0.17-0.44,0.62-0.77,1.09-0.79c0.61-0.03,1.14,0.39,1.29,0.97
			c0.02-0.08,0.05-0.17,0.07-0.25c-0.55,0.58-1.47,0.73-2.16,0.33C150.22,45.23,149.88,45.77,150.24,45.97L150.24,45.97z"/>
	</g>
</g>
<g>
	<g>
		<path class="st0" d="M155.7,47.28c0.02-0.31,0.07-0.61,0.17-0.9c0.05-0.16,0.12-0.32,0.2-0.48c0.03-0.05,0.08-0.12,0.1-0.17
			c0.02-0.02,0.03-0.05,0.05-0.07c-0.08-0.04-0.09-0.04-0.05,0c0.25,0.6,0.51,1.2,0.79,1.79c0.19,0.4,0.91,0.2,0.87-0.24
			c-0.07-0.68-0.22-1.54,0.26-2.12c0.31-0.38,0.86-0.6,1.22-0.21c0.28,0.3,0.4,0.8,0.56,1.21c0.23,0.59,0.55,1.04,1.17,1.25
			c0.46,0.16,0.85-0.51,0.49-0.83c-0.2-0.18-0.29-0.34-0.46-0.64c-0.15-0.25-0.27-0.51-0.4-0.77c-0.29-0.57-0.64-1.1-1.27-1.32
			c-0.79-0.27-1.61,0.2-2.05,0.85c-0.49,0.73-0.48,1.73-0.44,2.57c0.29-0.08,0.58-0.16,0.87-0.24c-0.24-0.45-0.51-0.89-0.76-1.33
			c-0.19-0.33-0.44-0.75-0.89-0.66c-0.42,0.09-0.59,0.6-0.73,0.95c-0.17,0.43-0.25,0.88-0.27,1.33
			C155.09,47.67,155.68,47.65,155.7,47.28L155.7,47.28z"/>
	</g>
</g>
<g>
	<g>
		<path class="st0" d="M161.8,46.13c0.04,1.24,0.07,2.48,0.13,3.72c0.01,0.3,0.03,0.59,0.05,0.89c0.02,0.3,0.02,0.63,0.13,0.91
			c0.11,0.3,0.32,0.5,0.63,0.59c0.29,0.08,0.59-0.05,0.74-0.31c0.16-0.29-0.03-0.69-0.39-0.67c0.01,0,0.02,0,0.03,0
			c0.07,0.04,0.15,0.08,0.22,0.12c0.05,0.24,0.08,0.29,0.09,0.15c0-0.07-0.01-0.14-0.03-0.2c-0.01-0.05-0.01-0.05,0,0
			c0.01-0.07,0.01-0.15,0.02-0.22c0.01-0.22,0-0.45,0-0.67c0-0.48-0.02-0.96-0.04-1.45c-0.04-0.96-0.09-1.93-0.13-2.89
			c-0.02-0.39-0.31-0.72-0.72-0.71C162.17,45.41,161.79,45.74,161.8,46.13L161.8,46.13z"/>
	</g>
</g>
<g>
	<g>
		<path class="st0" d="M163.4,45.69c-0.05,0.04,0.01-0.01,0.02-0.01c0.03-0.02,0.05-0.04,0.08-0.05c0.05-0.03,0.1-0.07,0.16-0.1
			c0.05-0.03,0.11-0.06,0.16-0.09c0.02-0.01,0.04-0.02,0.06-0.03c0.04-0.02-0.02,0.01,0.04-0.02c0.25-0.08,0.4-0.12,0.65-0.11
			c0.19,0.01,0.36,0.05,0.52,0.15c0.02,0.01,0.04,0.03,0.06,0.04c-0.06-0.04-0.01,0,0,0.01c0.04,0.03,0.08,0.07,0.11,0.11
			c0.02,0.02,0.1,0.13,0.05,0.06c0.03,0.05,0.07,0.09,0.09,0.15c0.02,0.04,0.04,0.08,0.06,0.12c-0.04-0.08,0.01,0.04,0.02,0.07
			c0.01,0.05,0.02,0.1,0.03,0.15c0-0.02,0-0.08,0,0c0,0.03,0,0.06,0,0.09c0,0.03-0.01,0.13,0,0.05c-0.01,0.05-0.02,0.1-0.04,0.14
			c-0.02,0.08-0.01,0.02,0,0c-0.01,0.03-0.03,0.05-0.04,0.08c-0.01,0.03-0.03,0.05-0.05,0.07c-0.04,0.07,0.01-0.01-0.02,0.03
			c-0.03,0.04-0.07,0.07-0.11,0.11c-0.01,0.01-0.14,0.12-0.07,0.06c-0.1,0.08-0.21,0.14-0.32,0.21c-0.1,0.06-0.2,0.11-0.31,0.17
			c-0.06,0.03-0.12,0.06-0.18,0.09c-0.03,0.01-0.06,0.03-0.09,0.04c0.06-0.03-0.02,0.01-0.04,0.01c-0.07,0.02-0.14,0.04-0.21,0.06
			c-0.09,0.02-0.04,0.01-0.02,0.01c-0.04,0-0.08,0.01-0.12,0.01c-0.02,0-0.12-0.01-0.05,0c0.06,0.01-0.04-0.01-0.06-0.02
			c-0.02,0-0.09-0.03,0,0c-0.03-0.01-0.06-0.03-0.09-0.04c-0.03-0.01-0.16-0.11-0.09-0.05c-0.05-0.04-0.09-0.08-0.13-0.12
			c-0.04-0.03,0.02,0.05,0,0c-0.01-0.03-0.03-0.06-0.05-0.08c-0.01-0.01-0.03-0.07-0.01-0.01c-0.02-0.05-0.04-0.1-0.07-0.15
			c-0.12-0.25-0.45-0.17-0.58,0.01c-0.23,0.32-0.08,0.77,0.17,1.03c0.25,0.26,0.62,0.39,0.98,0.36c0.4-0.03,0.76-0.18,1.1-0.38
			c0.28-0.16,0.57-0.33,0.81-0.55c0.48-0.43,0.69-1.08,0.47-1.7c-0.22-0.59-0.71-1.05-1.32-1.19c-0.79-0.18-1.59,0.12-2.21,0.61
			c-0.18,0.14-0.16,0.45,0,0.59C162.98,45.88,163.22,45.83,163.4,45.69L163.4,45.69z"/>
	</g>
</g>
<g>
	<g>
		<path class="st0" d="M167.1,45.75c0.05,0.49,0.09,0.98,0.17,1.46c0.08,0.47,0.13,1.02,0.48,1.38c0.23,0.24,0.6,0.13,0.77-0.11
			c0.15-0.23,0.18-0.5,0.21-0.78c0.02-0.22,0.02-0.44,0.02-0.66c0-0.43-0.04-0.87-0.07-1.3c-0.01-0.21-0.07-0.4-0.23-0.55
			c-0.14-0.13-0.36-0.23-0.55-0.22c-0.21,0.01-0.42,0.08-0.57,0.24C167.2,45.35,167.08,45.55,167.1,45.75L167.1,45.75z"/>
	</g>
</g>
<g>
	<g>
		<path class="st0" d="M167.86,42.5c-0.31-0.01-0.55,0.22-0.67,0.49c-0.07,0.16-0.07,0.33-0.05,0.5c0.02,0.16,0.1,0.3,0.21,0.42
			c0.05,0.06,0.12,0.11,0.2,0.14c0.08,0.04,0.15,0.06,0.24,0.06c0.05,0,0.11-0.01,0.16-0.03c0.13-0.04,0.23-0.14,0.25-0.28
			c0.02-0.13-0.04-0.26-0.16-0.33c-0.02-0.01-0.03-0.02-0.05-0.03c0.02,0.02,0.05,0.04,0.07,0.05c-0.05-0.04-0.11-0.07-0.16-0.11
			c0.03,0.02,0.05,0.04,0.08,0.06c-0.04-0.03-0.08-0.07-0.11-0.11c0.02,0.03,0.04,0.05,0.06,0.08c-0.03-0.04-0.05-0.07-0.06-0.11
			c0.01,0.03,0.03,0.06,0.04,0.09c-0.02-0.04-0.04-0.09-0.06-0.13c0.01,0.03,0.03,0.06,0.04,0.09c-0.02-0.05-0.04-0.11-0.04-0.17
			c0,0.03,0.01,0.06,0.01,0.09c-0.01-0.08-0.01-0.16,0-0.24c0,0.03-0.01,0.06-0.01,0.08c0.01-0.03,0.02-0.07,0.02-0.1
			c-0.02,0.08-0.03,0.07-0.02,0.04c0-0.01,0.01-0.01,0.01-0.02c0.02-0.03,0.06-0.06-0.01,0.01c0.01-0.01,0.02-0.03,0.03-0.04
			c0.01-0.01,0.01-0.01,0.02-0.02c0,0.01-0.07,0.05-0.03,0.03c0.01-0.01,0.03-0.02,0.04-0.02c0.04-0.02-0.06,0.02-0.03,0.01
			c0.01,0,0.02-0.01,0.03-0.01c0.12-0.04,0.21-0.15,0.19-0.28C168.1,42.59,167.99,42.5,167.86,42.5L167.86,42.5z"/>
	</g>
</g>
<g>
	<g>
		<path class="st0" d="M170.95,46.99c-0.1-0.41-0.16-0.82-0.16-1.24c0-0.21,0.01-0.42,0.03-0.63c0.01-0.05,0.01-0.11,0.02-0.16
			c0-0.04,0-0.04,0,0c0-0.02,0.01-0.04,0.01-0.06c0.01-0.03,0.01-0.03-0.01,0.01c0.02-0.04,0.03-0.05,0.01-0.02
			c-0.03,0.01-0.08,0.04-0.11,0.05c-0.04,0.02,0.05,0,0.07,0c0.1,0.01-0.04-0.01,0.06,0.01c0.11,0.03,0.22,0.05,0.32,0.07
			c0.22,0.05,0.45,0.09,0.67,0.13c0.47,0.08,0.93,0.16,1.41,0.19c0.19,0.01,0.37-0.16,0.39-0.34c0.03-0.2-0.09-0.35-0.28-0.42
			c-0.5-0.18-1.02-0.3-1.53-0.42c-0.24-0.06-0.47-0.11-0.71-0.15c-0.32-0.06-0.64-0.04-0.89,0.19c-0.2,0.18-0.26,0.45-0.28,0.71
			c-0.02,0.24-0.03,0.48-0.02,0.73c0.02,0.52,0.1,1.05,0.25,1.55C170.32,47.68,171.07,47.47,170.95,46.99L170.95,46.99z"/>
	</g>
</g>
<g>
	<g>
		<path class="st0" d="M174.14,45.75c0.04,0.34,0.09,0.67,0.22,0.99c0.07,0.18,0.15,0.34,0.25,0.5c0.11,0.17,0.23,0.3,0.38,0.42
			c0.17,0.14,0.42,0.2,0.62,0.07c0.08-0.05,0.14-0.11,0.19-0.19c0.06-0.09,0.1-0.27,0.06-0.38c-0.03-0.07-0.05-0.14-0.07-0.22
			c-0.03-0.12-0.09-0.23-0.14-0.34c0.02,0.05,0.04,0.1,0.06,0.15c-0.12-0.3-0.21-0.62-0.25-0.94c0.01,0.06,0.01,0.11,0.02,0.17
			c-0.01-0.08-0.01-0.16-0.02-0.24c-0.01-0.17-0.06-0.34-0.19-0.47c-0.11-0.11-0.3-0.19-0.46-0.18c-0.18,0.01-0.36,0.07-0.48,0.2
			C174.23,45.41,174.12,45.58,174.14,45.75L174.14,45.75z"/>
	</g>
</g>
<g>
	<g>
		<path class="st0" d="M173.64,43.47c0.06,0.11,0.15,0.2,0.26,0.27c0.01,0.01,0.02,0.01,0.03,0.01c0.04,0.02,0.09,0.04,0.14,0.05
			c0.06,0.02,0.12,0.02,0.18,0.03c0.02,0,0.05,0,0.07,0c0.06-0.01,0.13-0.01,0.19-0.03c0.06-0.02,0.12-0.05,0.18-0.07
			c0.02-0.01,0.04-0.02,0.06-0.04c0.05-0.04,0.11-0.08,0.16-0.12c0.02-0.02,0.04-0.03,0.05-0.05c0.09-0.1,0.14-0.19,0.19-0.32
			c0-0.01,0.01-0.02,0.01-0.03c0.01-0.05,0.02-0.1,0.02-0.14c0-0.03,0-0.06-0.01-0.09c0-0.03,0-0.06-0.01-0.09
			c-0.01-0.05-0.04-0.09-0.05-0.14c0-0.01-0.01-0.02-0.02-0.03c-0.02-0.03-0.04-0.05-0.06-0.08c-0.05-0.06-0.03-0.05-0.09-0.09
			c-0.02-0.01-0.03-0.02-0.05-0.04c-0.05-0.03-0.11-0.05-0.17-0.05c-0.02,0-0.05-0.01-0.07-0.01c-0.06,0-0.12,0.01-0.17,0.02
			c-0.02,0-0.04,0.01-0.06,0.02c-0.1,0.04-0.22,0.08-0.3,0.17c-0.11,0.12-0.2,0.27-0.19,0.44c0,0.11,0.05,0.21,0.16,0.27
			c0.05,0.03,0.1,0.04,0.15,0.04c0.06,0,0.11-0.02,0.16-0.04c0,0,0,0,0.01,0c-0.03,0.01-0.05,0.02-0.08,0.03
			c0.05-0.02,0.09-0.04,0.14-0.06c-0.03,0.01-0.06,0.02-0.09,0.04c0.03-0.01,0.06-0.02,0.1-0.03c-0.03,0-0.07,0.01-0.1,0.01
			c0.02,0,0.03,0,0.05,0c0.05,0,0.1-0.01,0.16-0.02c-0.04,0.01-0.07,0.01-0.11,0.02c0.04,0,0.07-0.01,0.11,0
			c-0.04,0-0.08-0.01-0.12-0.01c0.02,0,0.05,0.01,0.07,0.01c-0.09-0.07-0.19-0.14-0.28-0.21c0.01,0.02,0.02,0.03,0.03,0.05
			c-0.02-0.04-0.03-0.08-0.05-0.11c0.01,0.02,0.01,0.04,0.01,0.06c0-0.04-0.01-0.08-0.01-0.12c0,0.02,0,0.05,0,0.07
			c0.01-0.04,0.01-0.08,0.02-0.12c0,0.02-0.01,0.04-0.02,0.06c0.02-0.04,0.03-0.07,0.05-0.11c-0.01,0.03-0.03,0.05-0.04,0.08
			c0.03-0.03,0.05-0.06,0.08-0.1c-0.02,0.03-0.05,0.06-0.08,0.08c0.03-0.03,0.07-0.05,0.1-0.08c-0.04,0.03-0.07,0.05-0.12,0.07
			c0.04-0.02,0.08-0.03,0.12-0.05c-0.04,0.01-0.07,0.02-0.11,0.03c0.04-0.01,0.08-0.01,0.12-0.02c-0.03,0-0.05,0-0.08,0
			c0.04,0,0.08,0.01,0.12,0.01c-0.02,0-0.04-0.01-0.06-0.01c0.04,0.01,0.07,0.03,0.11,0.04c-0.02-0.01-0.04-0.02-0.05-0.03
			c0.03,0.02,0.06,0.05,0.1,0.07c-0.02-0.01-0.03-0.03-0.04-0.04c0.03,0.03,0.05,0.07,0.08,0.1c-0.01-0.01-0.02-0.03-0.03-0.05
			c-0.03-0.06-0.07-0.1-0.13-0.13c-0.05-0.04-0.1-0.07-0.16-0.08c-0.06-0.02-0.12-0.02-0.18-0.01c-0.06,0-0.12,0.02-0.18,0.06
			c-0.1,0.07-0.2,0.16-0.23,0.29c-0.01,0.04-0.01,0.08-0.02,0.12C173.58,43.32,173.6,43.4,173.64,43.47L173.64,43.47z"/>
	</g>
</g>
<g>
	<g>
		<path class="st0" d="M178.73,44.32c-1.03,0.21-1.97,1.17-1.98,2.26c0,0.5,0.2,1,0.58,1.32c0.37,0.32,0.83,0.5,1.32,0.5
			c0.28,0,0.56-0.07,0.8-0.21c0.29-0.16,0.47-0.4,0.56-0.71c0.07-0.22-0.04-0.5-0.25-0.6c-0.24-0.12-0.46-0.06-0.66,0.1
			c0.15-0.12,0.06-0.04,0.01-0.02c-0.03,0.02-0.13,0.06-0.01,0.01c0.17-0.07-0.1,0.04-0.16,0.08c-0.03,0.02-0.15,0.07-0.02,0.02
			c0.13-0.05,0-0.01-0.03,0c-0.03,0.01-0.06,0.01-0.09,0.02c-0.14,0.02,0.13-0.01,0.04-0.01c-0.03,0-0.07,0-0.1,0
			c-0.03,0-0.08-0.01-0.1-0.01c0,0,0.18,0.03,0.09,0.01c-0.02,0-0.03-0.01-0.05-0.01c-0.07-0.01-0.14-0.03-0.21-0.06
			c-0.03-0.01-0.15-0.06-0.02-0.01c0.13,0.05,0.01,0-0.02-0.01c-0.07-0.03-0.13-0.08-0.2-0.12c-0.05-0.03,0.09,0.07,0.09,0.06
			c0-0.01-0.03-0.03-0.04-0.03c-0.03-0.02-0.05-0.05-0.08-0.07c-0.02-0.02-0.04-0.04-0.07-0.07c-0.01-0.01-0.02-0.03-0.03-0.04
			c-0.05-0.06,0.11,0.15,0.05,0.06c-0.02-0.03-0.03-0.05-0.05-0.08c-0.01-0.03-0.07-0.16-0.02-0.03c0.05,0.12,0.01,0.01,0-0.02
			c-0.01-0.05-0.02-0.1-0.03-0.15c-0.02-0.08,0.01,0.14,0.01,0.06c0-0.02,0-0.03,0-0.05c0-0.05,0-0.09,0-0.14
			c0-0.07,0.05-0.17,0-0.01c0.01-0.04,0.02-0.09,0.03-0.13c0.01-0.04,0.03-0.09,0.04-0.13c0.03-0.1-0.07,0.14,0,0
			c0.04-0.08,0.09-0.16,0.14-0.24c0.01-0.02,0.06-0.09,0-0.01c-0.06,0.08,0,0,0.02-0.02c0.04-0.04,0.07-0.08,0.11-0.12
			c0.04-0.04,0.08-0.07,0.12-0.11c0,0-0.11,0.08-0.06,0.04c0.02-0.02,0.05-0.03,0.07-0.05c0.09-0.06,0.19-0.1,0.28-0.15
			c0,0-0.13,0.05-0.06,0.03c0.03-0.01,0.06-0.02,0.08-0.03c0.06-0.02,0.11-0.03,0.17-0.05c0.29-0.07,0.52-0.41,0.43-0.7
			C179.33,44.4,179.04,44.25,178.73,44.32L178.73,44.32z"/>
	</g>
</g>
<g>
	<g>
		<path class="st0" d="M183.79,45.61c0.37-0.56-0.02-1.29-0.59-1.51c-0.7-0.27-1.42,0.21-1.75,0.82c-0.2,0.38-0.27,0.81-0.26,1.24
			c0.01,0.38,0.01,0.82,0.15,1.18c0.37,0.94,1.46,0.58,2.1,0.17c0.34-0.21,0.65-0.48,0.86-0.81c0.23-0.36,0.27-0.74,0.19-1.16
			c-0.03-0.2-0.25-0.33-0.43-0.33c-0.21,0-0.38,0.15-0.45,0.34c-0.23,0.65-0.02,1.44,0.53,1.87c0.63,0.5,1.51,0.49,2.1-0.06
			c0.16-0.15,0.17-0.41,0.04-0.58c-0.15-0.18-0.37-0.2-0.57-0.11c-0.62,0.29-1.43-0.15-1.22-0.91c-0.29,0-0.59,0.01-0.88,0.01
			c0.04,0.17-0.05,0.33-0.14,0.44c-0.17,0.2-0.34,0.31-0.6,0.43c-0.05,0.02-0.62,0.27-0.64,0.22c0-0.01,0.1,0.05,0.09,0.05
			c-0.03-0.06-0.03-0.06-0.01-0.02c-0.01-0.02-0.01-0.04-0.02-0.05c-0.03-0.17-0.07-0.34-0.09-0.5c-0.08-0.5-0.11-1.19,0.39-1.49
			c0.17-0.1,0.34-0.13,0.5,0c0.13,0.11,0.23,0.29,0.14,0.45C183,45.67,183.55,45.95,183.79,45.61L183.79,45.61z"/>
	</g>
</g>
<g>
	<g>
		<path class="st0" d="M186.23,42.29c-0.04,0.98,0,1.95,0.11,2.92c0.11,0.94,0.3,1.93,0.75,2.77c0.26,0.48,1.07,0.25,1.05-0.29
			c-0.04-0.93-0.24-1.85-0.35-2.77c-0.11-0.88-0.14-1.76-0.12-2.64C187.69,41.35,186.26,41.39,186.23,42.29L186.23,42.29z"/>
	</g>
</g>
<g>
	<g>
		<path class="st1" d="M86.84,62.59c0.01-0.59,0.06-1.18,0.19-1.75c0.05-0.24,0.11-0.5,0.22-0.73c0.04-0.07,0.19-0.35,0.3-0.34
			c0.09,0.01,0.14,0.32,0.16,0.38c0.07,0.27,0.13,0.54,0.16,0.81c0.07,0.55,0.04,1.1-0.04,1.65c-0.05,0.32,0.09,0.62,0.45,0.66
			c0.34,0.04,0.59-0.21,0.63-0.53c0.08-0.69,0.27-1.36,0.48-2.02c0.09-0.29,0.19-0.59,0.32-0.86c0.06-0.12,0.14-0.3,0.28-0.27
			c0.2,0.04,0.36,0.37,0.42,0.53c0.12,0.28,0.2,0.58,0.25,0.88c0.12,0.66,0.06,1.32,0.1,1.99c0.03,0.56,0.77,0.62,0.95,0.11
			c0.3-0.84,0.14-1.78-0.12-2.61c-0.22-0.69-0.57-1.59-1.36-1.79c-0.4-0.1-0.81,0.05-1.09,0.35c-0.25,0.28-0.38,0.64-0.5,0.99
			c-0.31,0.85-0.57,1.71-0.81,2.58c0.36,0.04,0.71,0.08,1.07,0.13c0.1-0.75,0.03-1.54-0.15-2.28c-0.15-0.59-0.38-1.52-1.16-1.49
			c-0.67,0.02-1.01,0.75-1.15,1.31c-0.2,0.76-0.33,1.54-0.36,2.32C86.06,63.08,86.83,63.06,86.84,62.59L86.84,62.59z"/>
	</g>
</g>
<g>
	<g>
		<path class="st1" d="M93.18,61.37c0.17,0,0.18-0.26,0.01-0.26C93.02,61.11,93.01,61.37,93.18,61.37L93.18,61.37z"/>
	</g>
</g>
<g>
	<g>
		<path class="st1" d="M93.23,60.29c-0.17,0.46-0.25,0.97-0.22,1.45c0.02,0.26,0.06,0.53,0.15,0.78c0.13,0.35,0.32,0.75,0.73,0.83
			c0.24,0.05,0.49-0.04,0.62-0.26c0.22-0.37,0.07-0.79,0.03-1.18c0.01,0.06,0.01,0.12,0.02,0.19c-0.03-0.32-0.04-0.64,0.01-0.96
			c-0.01,0.06-0.02,0.13-0.03,0.19c0.03-0.23,0.09-0.45,0.18-0.66c0.07-0.17,0.02-0.42-0.07-0.57c-0.09-0.16-0.28-0.31-0.46-0.34
			c-0.19-0.04-0.41-0.03-0.58,0.08C93.41,59.94,93.3,60.09,93.23,60.29L93.23,60.29z"/>
	</g>
</g>
<g>
	<g>
		<path class="st1" d="M93.64,58.18c0.05,0.01,0.11,0.02,0.17,0.02c0.05-0.01,0.12-0.01,0.17-0.03c0.05-0.02,0.11-0.04,0.15-0.07
			c0.05-0.03,0.1-0.07,0.14-0.11c0.04-0.04,0.07-0.08,0.1-0.13c0.03-0.04,0.05-0.11,0.07-0.15c0.01-0.02,0.01-0.03,0.01-0.05
			c0.01-0.05,0.02-0.11,0.02-0.16c0-0.05-0.01-0.11-0.02-0.16c-0.01-0.04-0.03-0.08-0.05-0.12c0,0,0-0.01-0.01-0.01
			c0-0.01-0.01-0.01-0.01-0.02c-0.07-0.1-0.12-0.16-0.23-0.22c-0.04-0.03-0.1-0.04-0.14-0.06c-0.01-0.01-0.03-0.01-0.05-0.01
			c-0.11-0.02-0.2-0.03-0.31,0.01c-0.12,0.03-0.2,0.08-0.29,0.16c-0.06,0.05-0.11,0.13-0.13,0.21c-0.02,0.08-0.02,0.1-0.01,0.17
			c0,0.01,0,0.04,0.01,0.06c0.01,0.04,0.03,0.09,0.05,0.12c0.04,0.06,0.08,0.11,0.15,0.14c0.06,0.03,0.13,0.05,0.19,0.05
			c0.01,0,0.01,0,0.02,0c-0.04,0-0.07-0.01-0.11-0.01c0,0,0.01,0,0.01,0c0.02,0,0.01,0,0.06,0.01c0.04,0.01,0.08,0.01,0.11,0
			c0.02,0,0.04,0,0.06-0.01c0.04-0.02,0.07-0.03,0.11-0.05c0,0,0,0,0,0c0,0,0.01,0,0.01,0c0.01,0,0.01-0.01,0.02-0.01
			c-0.04,0.02-0.08,0.03-0.11,0.05c0.02-0.01,0.03-0.01,0.05-0.01c-0.04,0.01-0.08,0.01-0.12,0.02c0.03,0,0.06,0,0.09,0
			c-0.04,0-0.08-0.01-0.12-0.01c0.02,0,0.04,0.01,0.06,0.01c-0.04-0.01-0.07-0.03-0.11-0.04c0.02,0.01,0.03,0.01,0.04,0.02
			c-0.03-0.02-0.06-0.05-0.09-0.07c0.01,0.01,0.02,0.02,0.03,0.03c-0.02-0.03-0.05-0.06-0.07-0.1c0.01,0.01,0.01,0.02,0.02,0.03
			c-0.02-0.04-0.03-0.08-0.05-0.11c0.01,0.01,0.01,0.03,0.01,0.04c0-0.04-0.01-0.08-0.01-0.12c0,0.01,0,0.03,0,0.04
			c0.01-0.04,0.01-0.08,0.02-0.12c0,0.02-0.01,0.03-0.01,0.05c0.02-0.04,0.03-0.07,0.05-0.11c-0.01,0.02-0.02,0.03-0.03,0.05
			c0.03-0.03,0.05-0.06,0.08-0.1c-0.01,0.02-0.03,0.03-0.04,0.04c0.03-0.03,0.07-0.05,0.1-0.08c-0.02,0.01-0.03,0.02-0.05,0.03
			c0.04-0.02,0.08-0.03,0.12-0.05c-0.02,0.01-0.03,0.01-0.05,0.01c0.04-0.01,0.08-0.01,0.12-0.02c-0.01,0-0.03,0-0.04,0
			c0.04,0,0.08,0.01,0.12,0.01c-0.01,0-0.01,0-0.02,0c-0.06-0.02-0.12-0.02-0.18-0.01c-0.07,0-0.13,0.02-0.18,0.06
			c-0.06,0.03-0.11,0.07-0.14,0.13c-0.04,0.05-0.07,0.1-0.09,0.16c-0.01,0.04-0.01,0.08-0.02,0.12c0,0.09,0.02,0.16,0.06,0.24
			c0.03,0.03,0.05,0.07,0.08,0.1C93.49,58.12,93.56,58.16,93.64,58.18L93.64,58.18z"/>
	</g>
</g>
<g>
	<g>
		<path class="st1" d="M96.19,62.37c0-0.3,0-0.6,0.08-0.89c0.03-0.13,0.08-0.25,0.15-0.36c0.04-0.06,0.16-0.18,0.19-0.2
			c0.03-0.02,0.06-0.04,0.09-0.05c0.05-0.02,0.06-0.03,0.03-0.01c0.03-0.01,0.06-0.02,0.09-0.03c0.05-0.01,0.06-0.01,0.03,0
			c0.01,0,0.13,0.01,0.08,0c0.03,0.01,0.06,0.01,0.08,0.02c-0.05-0.02-0.05-0.02,0,0c0.03,0.01,0.14,0.11,0.07,0.04
			c0.04,0.04,0.08,0.07,0.11,0.11c-0.08-0.09,0.02,0.04,0.04,0.07c0.01,0.02,0.09,0.19,0.04,0.07c0.04,0.11,0.07,0.23,0.1,0.34
			c0,0.02,0.03,0.21,0.02,0.09c0.01,0.06,0.01,0.12,0.01,0.18c0.01,0.25-0.02,0.5-0.03,0.75c-0.03,0.66,0.08,1.53,0.81,1.76
			c0.27,0.09,0.66-0.17,0.63-0.48c-0.01-0.08-0.01-0.16-0.03-0.24c-0.01-0.06-0.04-0.11-0.06-0.16c0.01,0.02,0.03,0.11,0,0
			c-0.03-0.11-0.06-0.22-0.08-0.33c-0.01-0.06-0.02-0.11-0.03-0.17c0-0.03-0.01-0.05-0.01-0.08c0.02,0.12,0,0.03,0,0
			c0,0.02-0.02-0.24-0.01-0.13c0.01,0.08,0-0.03,0-0.05c0-0.06-0.01-0.12-0.01-0.18c-0.03-0.5-0.04-1-0.23-1.47
			c-0.19-0.46-0.51-0.86-1-1c-0.55-0.15-1.13,0.11-1.48,0.54c-0.43,0.53-0.48,1.21-0.49,1.87C95.34,62.92,96.18,62.9,96.19,62.37
			L96.19,62.37z"/>
	</g>
</g>
<g>
	<g>
		<path class="st1" d="M99.42,61.05c0.04,0.36,0.08,0.72,0.16,1.07c0.09,0.37,0.21,0.76,0.49,1.03c0.26,0.25,0.73,0.13,0.82-0.23
			c0.03-0.13,0.05-0.26,0.05-0.4c0-0.15-0.03-0.29-0.05-0.44c0.01,0.05,0.01,0.11,0.02,0.16c-0.02-0.19-0.04-0.38-0.06-0.56
			c0.01,0.06,0.01,0.11,0.02,0.17c-0.03-0.27-0.04-0.53-0.05-0.8c0-0.37-0.31-0.7-0.69-0.68c-0.19,0.01-0.38,0.07-0.51,0.21
			C99.51,60.69,99.4,60.88,99.42,61.05L99.42,61.05z"/>
	</g>
</g>
<g>
	<g>
		<path class="st1" d="M99.05,58.26c0.01,0.01,0.03,0.03,0.04,0.04c-0.02-0.03-0.04-0.06-0.07-0.08c0,0,0,0.01,0.01,0.01
			c-0.01-0.03-0.03-0.07-0.04-0.1c0.03,0.09,0.06,0.18,0.13,0.24c0.02,0.02,0.03,0.03,0.05,0.05c0.04,0.03,0.07,0.07,0.11,0.1
			c0.06,0.06,0.14,0.1,0.21,0.15c0.04,0.03,0.08,0.06,0.12,0.09c0.07,0.04,0.15,0.06,0.24,0.06c0.09,0,0.17-0.02,0.25-0.07
			c0.07-0.04,0.1-0.07,0.14-0.13c0.03-0.03,0.05-0.06,0.06-0.1c0.01-0.02,0.02-0.04,0.02-0.06c0.01-0.04,0.01-0.08,0.02-0.12
			c0-0.06-0.01-0.13-0.04-0.18c-0.01-0.04-0.03-0.08-0.06-0.11c-0.03-0.05-0.08-0.09-0.14-0.12c-0.04-0.03-0.08-0.05-0.12-0.08
			c-0.04-0.03-0.08-0.06-0.12-0.08c-0.04-0.02-0.09-0.04-0.13-0.07c-0.02-0.01-0.04-0.02-0.06-0.03c-0.08-0.04-0.14-0.06-0.23-0.05
			c-0.01,0-0.03,0-0.04,0c0.04,0,0.07,0.01,0.11,0.01c0,0-0.01,0-0.01,0c0.03,0.01,0.06,0.03,0.1,0.04
			c-0.02-0.01-0.03-0.02-0.05-0.02c-0.05-0.03-0.09-0.04-0.15-0.04c-0.05-0.01-0.1-0.01-0.15,0.01c-0.03,0.01-0.07,0.03-0.1,0.04
			c-0.05,0.03-0.09,0.06-0.12,0.11c-0.02,0.02-0.04,0.05-0.05,0.09c-0.02,0.05-0.04,0.09-0.04,0.15
			C98.93,58.08,98.97,58.18,99.05,58.26L99.05,58.26z"/>
	</g>
</g>
<g>
	<g>
		<path class="st1" d="M103.3,61.62c0.06-0.62,0.3-1.23,0.68-1.72c-0.16-0.04-0.33-0.08-0.49-0.12c0.26,0.78,0.52,1.56,0.76,2.34
			c0.15,0.49,0.84,0.28,0.76-0.21c-0.08-0.53-0.21-1.24,0.16-1.69c0.13-0.16,0.29-0.25,0.49-0.28c0.17-0.03,0.32,0.01,0.41,0.09
			c0.07,0.07,0-0.02,0.05,0.06c0.02,0.03,0.03,0.05,0.04,0.08c-0.02-0.05-0.01-0.04,0,0.01c0.03,0.08,0.06,0.23,0.06,0.27
			c0,0.04,0.01,0.2,0.01,0.29c0,0.12,0,0.24,0.01,0.36c0.03,0.58,0.18,1.24,0.84,1.37c0.48,0.09,0.83-0.45,0.49-0.83
			c-0.04-0.05-0.04-0.04,0,0.01c-0.01-0.02-0.03-0.05-0.04-0.07c-0.04-0.05-0.08-0.1-0.12-0.15c0.05,0.06,0.05,0.06,0.02,0.01
			c-0.01-0.02-0.03-0.05-0.04-0.08c0.03,0.07,0.03,0.07,0.01,0.01c-0.02-0.06-0.04-0.12-0.05-0.18c-0.06-0.26-0.07-0.53-0.11-0.8
			c-0.1-0.62-0.44-1.23-1.11-1.33c-0.65-0.1-1.34,0.24-1.68,0.8c-0.4,0.66-0.37,1.5-0.21,2.23c0.24-0.1,0.48-0.2,0.73-0.3
			c-0.32-0.75-0.63-1.51-0.95-2.26c-0.07-0.17-0.35-0.18-0.46-0.05c-0.49,0.62-0.78,1.33-0.86,2.12
			C102.68,62,103.26,61.98,103.3,61.62L103.3,61.62z"/>
	</g>
</g>
<g>
	<g>
		<path class="st1" d="M108.41,60.86c0.07,0.29,0.14,0.59,0.23,0.87c0.1,0.32,0.23,0.64,0.39,0.94c0.1,0.2,0.39,0.31,0.6,0.24
			c0.23-0.07,0.4-0.27,0.41-0.52c0.02-0.34,0.01-0.69-0.04-1.03c-0.04-0.3-0.1-0.6-0.15-0.89c-0.03-0.18-0.19-0.36-0.34-0.44
			c-0.15-0.09-0.38-0.12-0.55-0.06C108.57,60.09,108.31,60.46,108.41,60.86L108.41,60.86z"/>
	</g>
</g>
<g>
	<g>
		<path class="st1" d="M108.59,57.49c-0.01,0.03-0.01,0.05-0.02,0.08c-0.01,0.03-0.01,0.05-0.02,0.08c0.01-0.03,0.03-0.07,0.04-0.1
			c0,0.01-0.01,0.02-0.01,0.02c0,0.01-0.01,0.01-0.01,0.02c-0.01,0.02-0.02,0.04-0.02,0.06c-0.02,0.03-0.03,0.07-0.03,0.11
			c-0.01,0.04-0.01,0.08-0.01,0.12c0,0.01,0,0.02,0,0.03c0,0.01,0,0.01,0,0.02c0,0.04,0.01,0.08,0.01,0.11
			c0.01,0.04,0.03,0.07,0.04,0.11c0.02,0.03,0.05,0.06,0.07,0.09c0,0,0,0,0,0c0,0,0.01,0.01,0.01,0.01c0.01,0,0.01,0.01,0.02,0.01
			c0.03,0.02,0.05,0.04,0.08,0.06c0.04,0.03,0.09,0.04,0.14,0.04c0.03,0.01,0.07,0.01,0.1,0c0.05,0,0.1-0.02,0.15-0.05
			c0.01-0.01,0.02-0.01,0.02-0.02c0.1-0.06,0.18-0.15,0.22-0.27c0.01-0.04,0.02-0.08,0.02-0.13c0-0.07,0.01-0.14-0.01-0.21
			c-0.01-0.02-0.01-0.03-0.02-0.05c0-0.02,0-0.03-0.01-0.05c0-0.03-0.01-0.07-0.01-0.1c-0.01-0.03-0.03-0.06-0.04-0.1
			c-0.02-0.05-0.06-0.08-0.1-0.11c-0.02-0.02-0.05-0.04-0.09-0.05c-0.05-0.02-0.09-0.03-0.15-0.03c-0.03,0-0.07,0.01-0.1,0.01
			c-0.03,0.01-0.07,0.03-0.1,0.04c-0.05,0.03-0.09,0.06-0.12,0.11C108.63,57.4,108.61,57.44,108.59,57.49L108.59,57.49z"/>
	</g>
</g>
<g>
	<g>
		<path class="st1" d="M112.02,59.67c0.57-0.07,1.14-0.01,1.66,0.22c-0.05-0.13-0.11-0.26-0.16-0.39c-0.19,0.53-0.39,1.06-0.59,1.58
			c-0.1,0.28-0.22,0.55-0.32,0.82c-0.11,0.27-0.2,0.54-0.14,0.83c0.1,0.45,0.52,0.73,0.94,0.84c0.45,0.12,0.94,0.02,1.39,0.15
			c0.18,0.05,0.39-0.06,0.46-0.23c0.08-0.19,0-0.36-0.16-0.47c-0.39-0.28-0.84-0.23-1.29-0.26c-0.11-0.01-0.25-0.04-0.36-0.1
			c-0.11-0.06-0.15-0.1-0.14-0.22c0.01-0.21,0.12-0.45,0.18-0.65c0.07-0.23,0.14-0.46,0.22-0.69c0.16-0.48,0.32-0.96,0.48-1.44
			c0.05-0.13-0.03-0.33-0.16-0.39c-0.67-0.29-1.37-0.38-2.09-0.28C111.57,59.05,111.63,59.72,112.02,59.67L112.02,59.67z"/>
	</g>
</g>
<g>
	<g>
		<path class="st1" d="M113.1,61.69c0.76-0.15,1.54-0.27,2.27-0.52c0.15-0.05,0.27-0.19,0.25-0.36c-0.02-0.16-0.15-0.28-0.32-0.28
			c-0.81,0.01-1.62,0.15-2.43,0.26c-0.24,0.03-0.41,0.35-0.34,0.57C112.61,61.62,112.85,61.74,113.1,61.69L113.1,61.69z"/>
	</g>
</g>
<g>
	<g>
		<path class="st1" d="M117.79,61.57c0.75,0.33,1.97,0.54,2.33-0.44c0.15-0.4,0.02-0.82-0.25-1.14c-0.27-0.32-0.66-0.46-1.08-0.44
			c-1.1,0.06-1.66,1.05-1.92,1.99c-0.15,0.53-0.21,1.09,0.21,1.52c0.37,0.37,0.96,0.52,1.45,0.63c1.28,0.29,2.68,0.17,3.88-0.36
			c0.18-0.08,0.25-0.33,0.18-0.5c-0.08-0.2-0.27-0.26-0.47-0.23c-0.8,0.12-1.58,0.17-2.38,0.12c-0.38-0.02-0.76-0.07-1.13-0.15
			c-0.18-0.04-0.35-0.08-0.53-0.12c-0.11-0.03-0.27-0.05-0.35-0.14c-0.18-0.17-0.06-0.64-0.01-0.86c0.08-0.35,0.2-0.7,0.44-0.97
			c0.2-0.23,0.53-0.42,0.84-0.36c0.26,0.05,0.44,0.25,0.48,0.5c0.12,0.72-0.95,0.37-1.26,0.22
			C117.74,60.61,117.29,61.35,117.79,61.57L117.79,61.57z"/>
	</g>
</g>
<g>
	<g>
		<path class="st1" d="M121.79,72.84c-0.23,0.9-0.33,1.83-0.28,2.76c0.05,0.93,0.19,1.95,0.74,2.74c0.15,0.22,0.4,0.33,0.66,0.26
			c0.23-0.06,0.48-0.31,0.45-0.57c-0.09-0.82-0.33-1.64-0.38-2.45c-0.05-0.81,0.01-1.61,0.2-2.4c0.09-0.37-0.11-0.76-0.5-0.86
			C122.31,72.23,121.89,72.46,121.79,72.84L121.79,72.84z"/>
	</g>
</g>
<g>
	<g>
		<path class="st1" d="M123.6,81.75c0.02-0.07,0.03-0.15,0.03-0.23c-0.01-0.13-0.03-0.2-0.08-0.32c-0.06-0.14-0.18-0.26-0.32-0.34
			c-0.11-0.07-0.29-0.07-0.4,0.01c-0.12,0.08-0.22,0.18-0.29,0.32c-0.07,0.13-0.11,0.26-0.11,0.41c-0.01,0.15,0.03,0.29,0.09,0.42
			c0.03,0.07,0.08,0.12,0.12,0.18c0.04,0.06,0.1,0.1,0.16,0.14c0.15,0.09,0.32,0.06,0.47-0.01c0.04-0.01,0.07-0.03,0.11-0.05
			c0.05-0.03,0.1-0.07,0.15-0.11c0.13-0.1,0.21-0.25,0.27-0.4c0.03-0.08,0.04-0.16,0.05-0.24c0.01-0.12,0-0.23-0.06-0.34
			c0-0.01-0.01-0.01-0.01-0.02c-0.02-0.04-0.05-0.07-0.08-0.11c-0.04-0.04-0.08-0.07-0.13-0.09c-0.09-0.05-0.19-0.07-0.3-0.08
			c-0.06,0-0.11,0.01-0.17,0.02c-0.02,0-0.04,0.01-0.05,0.01c-0.13,0.04-0.21,0.09-0.31,0.18c-0.07,0.06-0.12,0.14-0.16,0.23
			c-0.03,0.08-0.05,0.14-0.05,0.22c0,0.01,0,0.02,0,0.03c0,0.02,0.01,0.11,0.01,0.13c0.01,0.03,0.04,0.11,0.05,0.13
			c0.05,0.07,0.1,0.13,0.18,0.18c0.04,0.02,0.08,0.03,0.12,0.05c0.06,0.02,0.13,0.02,0.19,0.01c0.04,0,0.09-0.01,0.13-0.03
			c0.04-0.01,0.08-0.03,0.11-0.07c0.04-0.02,0.07-0.05,0.09-0.09c0.04-0.05,0.07-0.1,0.09-0.17c0.03-0.11,0.02-0.15,0.01-0.26
			c0,0.04,0.01,0.08,0.01,0.13c0-0.01,0-0.02,0-0.03c-0.01,0.04-0.01,0.08-0.02,0.12c0-0.02,0.01-0.03,0.02-0.05
			c-0.02,0.04-0.03,0.08-0.05,0.12c0.01-0.02,0.02-0.03,0.03-0.05c-0.03,0.03-0.05,0.07-0.08,0.1c0.02-0.02,0.03-0.04,0.05-0.05
			c-0.03,0.03-0.07,0.05-0.1,0.08c0.02-0.01,0.04-0.03,0.07-0.04c-0.04,0.02-0.08,0.03-0.12,0.05c0.02-0.01,0.04-0.01,0.06-0.02
			c-0.04,0.01-0.08,0.01-0.12,0.02c0.02,0,0.03,0,0.05,0c-0.04,0-0.08-0.01-0.12-0.01c0.01,0,0.03,0.01,0.04,0.01
			c-0.04-0.01-0.07-0.03-0.11-0.04c0.01,0,0.02,0.01,0.03,0.02c-0.03-0.02-0.06-0.05-0.09-0.07c0.01,0.01,0.02,0.02,0.03,0.03
			c-0.02-0.03-0.05-0.06-0.07-0.09c0,0,0.01,0.01,0.01,0.01c-0.01-0.04-0.03-0.07-0.04-0.11c0,0.02,0.01,0.03,0.01,0.05
			c0-0.04-0.01-0.08-0.01-0.11c0,0.03,0,0.06,0,0.09c0.01-0.04,0.01-0.07,0.02-0.11c-0.01,0.04-0.02,0.08-0.04,0.12
			c0.01-0.03,0.03-0.07,0.04-0.1c-0.02,0.04-0.04,0.08-0.07,0.11c0.02-0.03,0.05-0.06,0.07-0.09c-0.03,0.03-0.06,0.06-0.09,0.09
			c0.03-0.02,0.06-0.05,0.09-0.07c-0.03,0.02-0.06,0.04-0.1,0.06c0.04-0.01,0.07-0.03,0.11-0.04c-0.02,0.01-0.04,0.01-0.06,0.02
			c0.11,0.01,0.21,0.02,0.32,0.04c-0.01-0.01-0.02-0.01-0.03-0.02c0.03,0.02,0.06,0.04,0.09,0.06c-0.03-0.02-0.06-0.05-0.08-0.08
			c0.02,0.03,0.04,0.06,0.07,0.09c-0.03-0.03-0.05-0.07-0.06-0.11c0.01,0.03,0.03,0.07,0.04,0.1c-0.02-0.04-0.03-0.09-0.03-0.13
			c0,0.03,0.01,0.07,0.01,0.1c-0.01-0.05,0-0.1,0-0.15c-0.01,0.03-0.01,0.07-0.02,0.1c0.01-0.04,0.02-0.08,0.03-0.11
			c-0.01,0.03-0.03,0.06-0.04,0.09c0.01-0.03,0.03-0.06,0.05-0.08c-0.02,0.03-0.04,0.05-0.06,0.08c0.02-0.03,0.04-0.05,0.07-0.07
			c-0.03,0.02-0.06,0.04-0.09,0.07c0.01-0.01,0.01-0.01,0.02-0.02c-0.13,0-0.26,0-0.4,0.01c0.01,0.01,0.02,0.02,0.04,0.02
			c-0.03-0.02-0.05-0.04-0.08-0.06c0.03,0.02,0.05,0.05,0.08,0.08c-0.02-0.03-0.04-0.06-0.06-0.08c0.02,0.03,0.04,0.06,0.05,0.09
			c-0.01-0.03-0.03-0.06-0.04-0.1c0.02,0.04,0.03,0.08,0.03,0.11c0-0.03-0.01-0.07-0.01-0.1c0,0.03,0,0.06,0,0.1
			c0.01-0.03,0.01-0.07,0.02-0.1c0,0.01-0.01,0.03-0.01,0.04c-0.03,0.1-0.02,0.21,0.04,0.3c0.05,0.08,0.14,0.16,0.24,0.18
			c0.1,0.02,0.21,0.01,0.3-0.04C123.49,81.93,123.57,81.85,123.6,81.75L123.6,81.75z"/>
	</g>
</g>
<g>
	<g>
		<path class="st0" d="M159.61,72.21c0.1,1.31,0.2,2.62,0.3,3.92c0.1,1.27,0.07,2.65,0.44,3.87c0.11,0.35,0.71,0.41,0.78-0.01
			c0.19-1.27-0.01-2.6-0.09-3.87c-0.09-1.31-0.17-2.62-0.26-3.92C160.73,71.45,159.55,71.48,159.61,72.21L159.61,72.21z"/>
	</g>
</g>
<g>
	<g>
		<path class="st0" d="M160.05,72c0.47-0.31,0.96-0.55,1.5-0.71c0.27-0.08,0.54-0.14,0.82-0.19c0.26-0.04,0.56-0.09,0.81-0.05
			c0.03,0,0.05,0.01,0.08,0.02c0,0,0.08,0.05,0.04,0.02c-0.04-0.03,0.03,0.03,0.03,0.03c0.04,0.04-0.01-0.01-0.01-0.02
			c0.01,0.02,0.02,0.03,0.03,0.05c0.03,0.05,0-0.02-0.01-0.02c0.01,0.03,0.01,0.05,0.02,0.08c0.01,0.02,0,0.08,0,0
			c0,0.02,0,0.04,0,0.06c0,0.02-0.01,0.13-0.01,0.09c0.01-0.03-0.02,0.07-0.03,0.09c-0.01,0.03-0.02,0.06-0.03,0.09
			c-0.03,0.08,0.03-0.06,0,0.01c-0.04,0.1-0.1,0.18-0.16,0.27c-0.05,0.08,0.03-0.03-0.03,0.04c-0.04,0.04-0.07,0.08-0.11,0.12
			c-0.21,0.21-0.33,0.29-0.56,0.44c-0.13,0.08-0.25,0.16-0.39,0.23c-0.06,0.03-0.13,0.06-0.19,0.09c0,0-0.09,0.04-0.04,0.02
			c0.03-0.01-0.12,0.05-0.11,0.04c-0.21,0.09-0.55,0.21-0.84,0.29c-0.48,0.14-0.41,0.84,0.1,0.85c0.7,0.02,1.36-0.21,1.95-0.57
			c0.56-0.34,1.05-0.81,1.29-1.43c0.2-0.51,0.2-1.18-0.27-1.55c-0.31-0.24-0.69-0.28-1.06-0.26c-0.36,0.02-0.72,0.07-1.08,0.15
			c-0.77,0.17-1.52,0.49-2.18,0.93c-0.19,0.13-0.29,0.37-0.17,0.59C159.57,72.05,159.85,72.13,160.05,72L160.05,72z"/>
	</g>
</g>
<g>
	<g>
		<path class="st0" d="M160.13,68.64c0.35-0.35,0.72-0.69,1.11-0.98c0.19-0.14,0.39-0.28,0.59-0.41c0.2-0.13,0.43-0.33,0.66-0.4
			c-0.13-0.03-0.26-0.07-0.39-0.1c0.33,0.41,0.73,0.78,1.11,1.16c0.38,0.38,0.75,0.76,1.16,1.1c0.37,0.31,0.84-0.17,0.54-0.54
			c-0.34-0.42-0.71-0.8-1.08-1.19c-0.37-0.38-0.73-0.79-1.14-1.13c-0.19-0.16-0.4-0.13-0.58,0.01c-0.1,0.08-0.24,0.12-0.35,0.18
			c-0.11,0.06-0.22,0.13-0.32,0.2c-0.22,0.14-0.44,0.3-0.65,0.46c-0.43,0.33-0.84,0.68-1.22,1.07
			C159.17,68.46,159.75,69.02,160.13,68.64L160.13,68.64z"/>
	</g>
</g>
<g>
	<g>
		<path class="st0" d="M168.2,67.15c-1.71,2.24-2,6.02,0.08,8.14c0.42,0.42,1.07-0.13,0.82-0.63c-0.54-1.11-0.92-2.25-0.91-3.49
			c0.01-1.24,0.39-2.4,1.12-3.4c0.2-0.28,0.05-0.71-0.23-0.87C168.75,66.71,168.41,66.87,168.2,67.15L168.2,67.15z"/>
	</g>
</g>
<g>
	<g>
		<path class="st0" d="M171.98,73.96c0.5-0.5,1.01-0.99,1.54-1.46c0.53-0.47,1.08-0.91,1.61-1.38c0.19-0.17-0.06-0.49-0.27-0.35
			c-1.21,0.77-2.28,1.78-3.28,2.79C171.31,73.83,171.72,74.22,171.98,73.96L171.98,73.96z"/>
	</g>
</g>
<g>
	<g>
		<path class="st0" d="M171.92,72.23c0.26,0.32,0.52,0.63,0.79,0.94c0.13,0.15,0.26,0.3,0.4,0.46c0.14,0.16,0.29,0.3,0.44,0.44
			c0.17,0.17,0.44,0.16,0.62,0.02c0.18-0.14,0.26-0.4,0.13-0.6c-0.1-0.17-0.2-0.35-0.32-0.51c-0.12-0.17-0.25-0.33-0.37-0.5
			c-0.24-0.33-0.5-0.65-0.75-0.97c-0.1-0.13-0.2-0.22-0.35-0.26c-0.18-0.05-0.37,0-0.51,0.11c-0.13,0.1-0.2,0.22-0.23,0.38
			C171.73,71.94,171.8,72.08,171.92,72.23L171.92,72.23z"/>
	</g>
</g>
<g>
	<g>
		<path class="st0" d="M175.95,70.13c1.94,1.7,2.19,4.56,1.09,6.8c-0.24,0.48,0.41,1.05,0.79,0.58c1.93-2.43,1.25-6.25-1.07-8.19
			C176.21,68.87,175.4,69.65,175.95,70.13L175.95,70.13z"/>
	</g>
</g>
<g>
	<g>
		<path class="st1" d="M2.56,65.32c0.17,0,0.18-0.26,0.01-0.26C2.39,65.07,2.39,65.32,2.56,65.32L2.56,65.32z"/>
	</g>
</g>
<g>
	<g>
		<path class="st1" d="M1.48,52.8c-1.56-7.6,1.03-15.61,5.89-21.52c5.01-6.09,12.34-9.77,19.92-11.52
			c18.04-4.17,36.11,2.37,53.7,5.72c9.02,1.72,18.03,2.4,27.18,1.38c9.07-1.02,17.94-3.22,26.83-5.22
			c16.61-3.74,35.27-6.99,51.25,0.87c3.64,1.79,7,4.18,9.61,7.31c2.67,3.2,4.54,7.02,6.02,10.89c3.19,8.32,5.44,17.23,5.74,26.16
			c0.28,8.26-1.22,16.63-5.09,23.98c-3.54,6.72-9.02,12.14-15.82,15.53c-13.74,6.87-30,5.69-44.51,2.25
			c-8.64-2.05-17.11-4.79-25.69-7.08c-8.77-2.34-17.59-3.88-26.66-4.31c-18.11-0.86-36.32,1.85-54.33-0.94
			c-8.14-1.26-16.45-3.61-23.46-8.06c-3.3-2.09-6.34-4.78-8.27-8.23c-2.1-3.73-2.65-8.07-2.82-12.28
			c-0.18-4.52-0.06-9.07,0.29-13.58c0.04-0.57-0.85-0.54-0.89,0.01C0,58.93-0.12,63.71,0.14,68.48c0.23,4.12,0.89,8.31,2.94,11.95
			c3.84,6.83,11.42,10.75,18.52,13.33c17.2,6.26,35.86,4.8,53.8,4.36c9.7-0.24,19.45-0.1,29.03,1.63
			c9.06,1.64,17.85,4.39,26.69,6.92c15.44,4.4,31.7,8,47.62,3.8c7.01-1.85,13.67-5.36,18.7-10.64c5.53-5.8,8.93-13.39,10.38-21.22
			c1.61-8.69,0.8-17.64-1.27-26.18c-1.07-4.4-2.44-8.76-4.14-12.96c-1.51-3.74-3.39-7.36-6.01-10.45
			c-5.38-6.35-13.64-9.74-21.65-11.24c-8.55-1.6-17.34-1.12-25.89,0.17c-18.68,2.83-36.81,9.76-55.96,8.26
			c-19.13-1.49-37.44-9.64-56.83-8.49c-7.82,0.46-15.72,2.53-22.32,6.85C7.44,28.73,2.63,35.05,0.84,42.45
			C0,45.93-0.12,49.53,0.58,53.04C0.7,53.62,1.6,53.37,1.48,52.8L1.48,52.8z"/>
	</g>
</g>
<g>
	<g>
		<path class="st1" d="M152.33,72.68c-11.26-1.96-22.66-2.88-34.05-3.61c-11.37-0.72-22.78-1.17-34.12-2.26
			c-6.48-0.62-12.91-1.48-19.32-2.54c-0.55-0.09-0.82,0.74-0.24,0.85c11.21,2.15,22.68,2.98,34.05,3.7
			c11.38,0.72,22.77,1.17,34.13,2.16c6.48,0.57,12.94,1.34,19.35,2.45C152.6,73.51,152.83,72.77,152.33,72.68L152.33,72.68z"/>
	</g>
</g>
<g>
	<g>
		<path class="st1" d="M152.25,71.99c-0.32-0.41-0.65-0.81-1.02-1.18c-0.16-0.17-0.33-0.33-0.51-0.48c-0.25-0.2-0.49-0.39-0.82-0.46
			c-0.2-0.04-0.4,0.02-0.52,0.19c-0.13,0.16-0.13,0.35-0.05,0.54c0.11,0.25,0.31,0.43,0.5,0.62c0.17,0.16,0.34,0.32,0.5,0.49
			c0.33,0.33,0.64,0.68,0.93,1.04c0.08,0.11,0.3,0.18,0.43,0.17c0.14-0.01,0.27-0.05,0.38-0.14c0.1-0.08,0.2-0.19,0.23-0.32
			C152.34,72.3,152.35,72.11,152.25,71.99L152.25,71.99z"/>
	</g>
</g>
<g>
	<g>
		<path class="st1" d="M66.16,62.29c-0.38,0.41-0.75,0.82-1.11,1.24c-0.38,0.44-0.78,0.89-1.05,1.41c-0.1,0.19-0.09,0.44,0.07,0.59
			c0.16,0.14,0.41,0.18,0.6,0.07c0.5-0.3,0.93-0.72,1.35-1.13c0.4-0.39,0.78-0.79,1.16-1.19c0.26-0.27,0.31-0.75,0.01-1.01
			C66.91,62.02,66.43,62,66.16,62.29L66.16,62.29z"/>
	</g>
</g>
<g>
	<g>
		<path class="st1" d="M64.64,66.24c0.41,0.27,0.81,0.54,1.23,0.79c0.44,0.26,0.91,0.48,1.4,0.65c0.2,0.07,0.46-0.06,0.56-0.23
			c0.11-0.2,0.07-0.41-0.07-0.58c-0.65-0.79-1.49-1.38-2.32-1.98c-0.15-0.11-0.42-0.11-0.59-0.07c-0.19,0.05-0.4,0.2-0.49,0.37
			c-0.09,0.17-0.15,0.38-0.09,0.58C64.34,65.98,64.46,66.12,64.64,66.24L64.64,66.24z"/>
	</g>
</g>
<g>
	<g>
		<path class="st1" d="M150.46,73.08c-0.21,0.2-0.43,0.4-0.64,0.61c-0.1,0.1-0.2,0.21-0.31,0.31c-0.13,0.13-0.24,0.29-0.35,0.44
			c-0.02,0.04-0.04,0.08-0.05,0.13c-0.02,0.07-0.03,0.13-0.01,0.2c0.01,0.11,0.06,0.23,0.15,0.31c0.19,0.16,0.43,0.18,0.65,0.07
			c0.13-0.07,0.26-0.13,0.38-0.21c0.12-0.08,0.24-0.16,0.36-0.24c0.24-0.16,0.47-0.34,0.7-0.51c0.12-0.07,0.21-0.16,0.27-0.27
			c0.02-0.06,0.05-0.11,0.07-0.17c0.07-0.22,0.01-0.45-0.12-0.62C151.28,72.78,150.77,72.78,150.46,73.08L150.46,73.08z"/>
	</g>
</g>
<g>
	<g>
		<path class="st1" d="M87.72,75.23c-0.3,0.63-0.26,1.35,0.19,1.9c0.4,0.49,1.09,0.66,1.67,0.44c0.66-0.25,1.06-0.85,1-1.56
			c-0.06-0.69-0.37-1.4-0.71-2c-0.19-0.34-0.41-0.66-0.68-0.95c-0.3-0.32-0.63-0.54-1.05-0.67c-0.33-0.11-0.65,0.31-0.47,0.6
			c0.34,0.55,0.84,1,1.21,1.52c0.34,0.47,0.71,1.07,0.77,1.66c0.01,0.12,0,0.26-0.05,0.33c-0.03,0.05-0.1,0.1-0.17,0.14
			c-0.04,0.02-0.16,0.06-0.21,0.06c-0.13,0.01-0.16,0.01-0.29-0.04c0.09,0.04-0.12-0.08-0.05-0.03c-0.04-0.03-0.08-0.07-0.12-0.11
			c-0.04-0.04-0.09-0.13-0.11-0.19c-0.04-0.12-0.06-0.24-0.06-0.3c0-0.03,0.02-0.2,0.01-0.14c0-0.02,0.06-0.19,0.04-0.14
			c0.12-0.26,0.08-0.56-0.19-0.71C88.21,74.9,87.84,74.98,87.72,75.23L87.72,75.23z"/>
	</g>
</g>
<g>
	<g>
		<path class="st1" d="M90.96,76.33c0.07,0.23,0.14,0.45,0.21,0.68c0.08,0.27,0.2,0.52,0.31,0.77c0.03,0.04,0.06,0.08,0.09,0.12
			c0.05,0.05,0.11,0.09,0.18,0.11c0.11,0.04,0.24,0.06,0.36,0.02c0.1-0.03,0.19-0.08,0.26-0.15c0.09-0.08,0.18-0.26,0.17-0.39
			c-0.02-0.28-0.04-0.55-0.09-0.83c-0.05-0.23-0.09-0.46-0.14-0.7c-0.03-0.17-0.18-0.34-0.32-0.42c-0.15-0.08-0.36-0.11-0.52-0.06
			c-0.17,0.06-0.34,0.16-0.43,0.33C90.95,75.97,90.91,76.16,90.96,76.33L90.96,76.33z"/>
	</g>
</g>
<g>
	<g>
		<path class="st1" d="M91.2,72.86c-0.35,0.09-0.53,0.48-0.43,0.81c0.05,0.18,0.16,0.33,0.32,0.42c0.09,0.05,0.19,0.08,0.3,0.09
			c0.04,0.01,0.09,0.01,0.13,0.01c0.06,0,0.13-0.01,0.19-0.02c0.1-0.02,0.19-0.06,0.28-0.1c0.09-0.05,0.17-0.11,0.25-0.17
			c0.1-0.08,0.16-0.27,0.11-0.39c-0.03-0.07-0.05-0.15-0.09-0.22c-0.04-0.07-0.09-0.13-0.14-0.19c-0.05-0.06-0.11-0.11-0.18-0.15
			c-0.12-0.07-0.25-0.09-0.38-0.05c-0.09,0.03-0.18,0.08-0.23,0.17c-0.01,0.03-0.02,0.06-0.04,0.08c-0.02,0.06-0.02,0.12,0,0.18
			c0,0.01,0,0.01,0,0.02c0-0.03-0.01-0.06-0.01-0.1c0.01,0.08,0.01,0.13,0.05,0.21c0.02,0.04,0.05,0.07,0.08,0.1
			c0.01,0.02,0.03,0.03,0.04,0.05c0.03,0.03,0.06,0.06,0.09,0.1c-0.02-0.03-0.04-0.06-0.07-0.09c0.04,0.05,0.07,0.1,0.09,0.16
			c-0.01-0.03-0.03-0.07-0.04-0.1c0,0.01,0.01,0.02,0.01,0.04c0.04-0.13,0.08-0.26,0.11-0.39c-0.01,0.01-0.02,0.02-0.03,0.03
			c0.03-0.02,0.06-0.05,0.09-0.07c-0.05,0.04-0.11,0.08-0.18,0.1c0.03-0.01,0.07-0.03,0.1-0.04c-0.05,0.02-0.1,0.03-0.16,0.04
			c0.04,0,0.07-0.01,0.11-0.01c-0.04,0.01-0.08,0.01-0.13,0c0.04,0,0.07,0.01,0.11,0.01c-0.03,0-0.06-0.01-0.09-0.02
			c0.03,0.01,0.07,0.03,0.1,0.04c-0.03-0.01-0.06-0.03-0.09-0.05c0.03,0.02,0.06,0.04,0.09,0.06c-0.02-0.02-0.04-0.04-0.06-0.06
			c0.02,0.03,0.04,0.06,0.07,0.08c-0.02-0.02-0.03-0.05-0.05-0.08c0.01,0.03,0.03,0.07,0.04,0.1c-0.02-0.04-0.03-0.08-0.03-0.12
			c0,0.03,0.01,0.07,0.01,0.1c0-0.03,0-0.06,0-0.09c0,0.03-0.01,0.06-0.01,0.1c0-0.02,0.01-0.04,0.02-0.06
			c-0.01,0.03-0.03,0.06-0.04,0.09c0.01-0.02,0.02-0.03,0.03-0.04c-0.02,0.03-0.04,0.05-0.06,0.08c0.01-0.01,0.02-0.03,0.04-0.04
			c-0.03,0.02-0.05,0.04-0.08,0.06c0.01-0.01,0.02-0.02,0.03-0.02c0.08-0.04,0.15-0.13,0.17-0.22c0-0.03,0.01-0.06,0.01-0.09
			c0-0.05-0.01-0.09-0.03-0.13c-0.03-0.07-0.08-0.14-0.15-0.17C91.39,72.85,91.3,72.84,91.2,72.86L91.2,72.86z"/>
	</g>
</g>
<g>
	<g>
		<path class="st1" d="M95.01,74.4c-0.51,0.03-0.96,0.35-1.11,0.85c-0.07,0.22,0.04,0.45,0.23,0.57c0.07,0.04,0.13,0.08,0.19,0.13
			c0.12,0.09-0.07-0.06,0.04,0.03c0.03,0.02,0.06,0.05,0.09,0.07c0.13,0.1,0.24,0.21,0.36,0.33c0.05,0.06,0.11,0.11,0.16,0.17
			c0.03,0.04,0.06,0.07,0.09,0.11c-0.07-0.08,0,0,0.01,0.02c0.05,0.07,0.08,0.14,0.13,0.2c0,0.01,0.01,0.01,0.01,0.02
			c-0.02-0.05-0.02-0.05,0,0.01c0-0.06,0-0.06,0,0c0-0.01,0.01-0.03,0.01-0.04c0,0.01-0.01,0.03-0.01,0.04
			c0.03-0.06,0.03-0.07,0-0.01c-0.06,0.08,0,0,0.01-0.01c-0.03,0.03-0.06,0.06-0.09,0.09c-0.1,0.09,0.07-0.04,0,0
			c-0.06,0.04-0.12,0.08-0.19,0.11c-0.03,0.02-0.07,0.03-0.1,0.05c-0.11,0.06,0.08-0.02-0.03,0.01c-0.07,0.02-0.14,0.05-0.21,0.06
			c-0.04,0.01-0.09,0.02-0.13,0.03c0,0-0.15,0.02-0.06,0.01c0.08-0.01-0.06,0.01-0.06,0.01c-0.04,0-0.07,0-0.11,0.01
			c-0.08,0-0.16,0-0.24,0c-0.24,0-0.5-0.01-0.66,0.2c-0.2,0.26-0.06,0.54,0.19,0.7c0.32,0.21,0.81,0.18,1.17,0.11
			c0.69-0.13,1.67-0.66,1.58-1.49c-0.05-0.45-0.36-0.81-0.66-1.12c-0.28-0.29-0.6-0.53-0.94-0.74c0.08,0.19,0.16,0.38,0.23,0.57
			c-0.03,0.06-0.03,0.07,0,0.02c0.03-0.05,0.03-0.04-0.02,0.01c0.02-0.02,0.03-0.04,0.05-0.05c-0.06,0.05-0.07,0.05-0.02,0.02
			c0.02-0.01,0.04-0.03,0.07-0.04c-0.07,0.03-0.08,0.03-0.03,0.01c0.06-0.01,0.05-0.01-0.03,0c0.03,0,0.05,0,0.08,0
			c0.28,0,0.56-0.25,0.55-0.54C95.53,74.65,95.31,74.38,95.01,74.4L95.01,74.4z"/>
	</g>
</g>
<g>
	<g>
		<path class="st1" d="M97.18,73.43c0.32,1.27,0.57,2.6,1.12,3.79c0.23,0.5,1.07,0.23,1.05-0.29c-0.03-0.68-0.16-1.34-0.3-2
			c-0.13-0.63-0.28-1.26-0.42-1.9c-0.09-0.38-0.53-0.63-0.9-0.51C97.34,72.65,97.08,73.03,97.18,73.43L97.18,73.43z"/>
	</g>
</g>
<g>
	<g>
		<path class="st1" d="M97.7,75.52c0.47-0.08,0.93-0.16,1.4-0.24c0.47-0.08,0.93-0.15,1.38-0.3c0.19-0.06,0.34-0.24,0.31-0.45
			c-0.03-0.2-0.19-0.35-0.4-0.35c-0.47-0.01-0.93,0.06-1.4,0.12c-0.47,0.06-0.94,0.12-1.4,0.19c-0.31,0.04-0.58,0.25-0.54,0.6
			C97.09,75.42,97.39,75.57,97.7,75.52L97.7,75.52z"/>
	</g>
</g>
<g>
	<g>
		<path class="st1" d="M104.68,75.33c-0.97-0.86-2.53-0.38-2.87,0.87c-0.17,0.63,0.01,1.43,0.67,1.7c0.62,0.25,1.33,0.02,1.83-0.39
			c0.51-0.41,0.79-1.06,0.82-1.71c-0.29,0-0.58,0.01-0.87,0.01c0.06,0.59,0.12,1.24,0.5,1.73c0.39,0.51,1.08,0.76,1.67,0.41
			c0.17-0.1,0.27-0.3,0.22-0.5c-0.04-0.17-0.24-0.35-0.43-0.32c-0.1,0.01-0.14,0.01-0.19,0c-0.1-0.02-0.14-0.03-0.19-0.05
			c-0.18-0.08-0.28-0.14-0.4-0.29c-0.23-0.27-0.27-0.74-0.32-1.1c-0.03-0.21-0.28-0.34-0.47-0.31c-0.2,0.03-0.4,0.21-0.39,0.42
			c0.01,0.22-0.04,0.4-0.15,0.58c-0.11,0.17-0.27,0.32-0.42,0.41c-0.17,0.1-0.36,0.18-0.54,0.18c-0.08,0-0.18-0.01-0.21-0.02
			c-0.12-0.05-0.11-0.06-0.16-0.15c-0.06-0.12-0.07-0.32-0.04-0.47c0.05-0.2,0.13-0.36,0.29-0.49c0.27-0.22,0.77-0.2,1.07,0.04
			c0.17,0.14,0.41,0.15,0.57-0.01C104.82,75.74,104.84,75.48,104.68,75.33L104.68,75.33z"/>
	</g>
</g>
<g>
	<g>
		<path class="st1" d="M107.68,77.12c-0.06-0.13-0.12-0.39-0.12-0.58c0-0.24,0.03-0.44,0.1-0.67c0.06-0.19,0.16-0.41,0.27-0.53
			c0.04-0.04,0.06-0.06,0.08-0.07c0.01,0,0.05-0.02,0.02-0.02c-0.06,0,0,0.02,0,0.01c-0.02-0.01-0.01,0,0.02,0.03
			c-0.02-0.03-0.02-0.03,0.01,0.02c0.28,0.44,0.43,0.86,0.57,1.34c0.14,0.5,0.18,1.02,0.33,1.52c0.12,0.39,0.7,0.4,0.81-0.01
			c0.14-0.53,0.06-1.1-0.09-1.62c-0.15-0.51-0.37-0.99-0.67-1.43c-0.14-0.21-0.3-0.44-0.53-0.56c-0.26-0.14-0.57-0.13-0.83-0.01
			c-0.47,0.22-0.74,0.76-0.88,1.23c-0.09,0.28-0.12,0.57-0.13,0.87c-0.01,0.32,0.02,0.58,0.08,0.88c0.06,0.3,0.41,0.43,0.68,0.32
			C107.72,77.71,107.8,77.4,107.68,77.12L107.68,77.12z"/>
	</g>
</g>
<g>
	<g>
		<path class="st1" d="M113.11,75.14c-0.43-0.21-0.93-0.23-1.37-0.05c-0.51,0.2-0.89,0.56-1.09,1.07c-0.17,0.44-0.15,0.97,0.02,1.4
			c0.11,0.28,0.25,0.53,0.47,0.74c0.22,0.22,0.48,0.36,0.77,0.46c0.57,0.2,1.25,0.12,1.75-0.23c0.21-0.15,0.33-0.39,0.23-0.64
			c-0.1-0.25-0.35-0.34-0.61-0.3c-0.02,0-0.05,0.01-0.07,0.01c0,0,0.11-0.01,0.05-0.01c-0.04,0-0.08,0.01-0.13,0.01
			c-0.09,0-0.17,0.01-0.26,0.01c-0.03,0-0.17-0.01-0.07,0c0.11,0.01-0.04-0.01-0.07-0.01c-0.09-0.02-0.17-0.03-0.26-0.05
			c-0.04-0.01-0.08-0.03-0.13-0.04c-0.07-0.02,0.07,0.03,0.07,0.03c-0.02-0.01-0.05-0.02-0.07-0.03c-0.08-0.04-0.15-0.08-0.23-0.13
			c-0.03-0.02-0.14-0.1-0.06-0.03c0.09,0.07-0.03-0.03-0.05-0.04c-0.03-0.02-0.05-0.05-0.08-0.07c-0.02-0.02-0.03-0.04-0.05-0.05
			c-0.06-0.06,0.03,0.03,0.04,0.05c-0.03-0.07-0.1-0.14-0.13-0.21c-0.02-0.03-0.03-0.07-0.05-0.1c0.08,0.16,0.02,0.03,0-0.02
			c-0.01-0.04-0.02-0.08-0.03-0.12c-0.01-0.05,0-0.15-0.01-0.01c0-0.08,0-0.16,0-0.25c0-0.1-0.02,0.11,0-0.01
			c0.01-0.04,0.02-0.08,0.03-0.12c0.01-0.02,0.01-0.03,0.02-0.05c0.01-0.06-0.02,0.05-0.02,0.05c0,0,0.06-0.11,0.06-0.12
			c0.01-0.02,0.09-0.12,0.03-0.06c-0.06,0.07,0.03-0.03,0.04-0.05c0.02-0.02,0.05-0.05,0.07-0.07c0,0,0.05-0.04,0.05-0.04
			c0,0.02-0.1,0.06-0.03,0.02c0.04-0.02,0.08-0.05,0.12-0.07c0.01,0,0.06-0.03,0.06-0.03c0,0.01-0.11,0.04-0.03,0.01
			c0.04-0.01,0.08-0.03,0.13-0.04c0.02,0,0.03-0.01,0.05-0.01c0.01,0,0.02,0,0.03-0.01c0.04-0.01,0.02-0.01-0.05,0
			c0.05-0.04,0.19,0,0.25,0c0.06,0-0.08-0.02-0.03,0c0.02,0.01,0.04,0.01,0.07,0.01c0.04,0.01,0.17,0.06,0.06,0.01
			c0.23,0.1,0.53,0.06,0.66-0.19C113.39,75.57,113.35,75.25,113.11,75.14L113.11,75.14z"/>
	</g>
</g>
<g>
	<g>
		<path class="st1" d="M115.63,77.15c0.2,0.02,0.39,0.08,0.59,0.12c0.25,0.04,0.49,0.07,0.74,0.02c0.39-0.07,0.78-0.31,0.91-0.7
			c0.14-0.42-0.09-0.84-0.35-1.16c-0.24-0.3-0.58-0.56-0.96-0.67c-0.38-0.11-0.79-0.07-1.14,0.11c-0.38,0.2-0.59,0.58-0.74,0.96
			c-0.31,0.78-0.47,1.8,0.22,2.43c0.38,0.35,0.93,0.52,1.43,0.63c0.55,0.13,1.11,0.19,1.67,0.16c0.48-0.03,0.61-0.69,0.13-0.84
			c-0.69-0.22-1.39-0.42-2.07-0.66c-0.01,0-0.12-0.05-0.06-0.02c0.06,0.03-0.04-0.02-0.06-0.03c-0.07-0.03-0.14-0.06-0.2-0.09
			c-0.03-0.02-0.06-0.03-0.1-0.05c-0.08-0.04,0.05,0.05-0.01-0.01c-0.02-0.02-0.04-0.04-0.06-0.06c-0.1-0.09,0.02,0.06-0.04-0.05
			c-0.02-0.03-0.03-0.06-0.05-0.09c0.01,0.02,0.03,0.09-0.01-0.01c-0.02-0.07-0.04-0.13-0.05-0.2c0.01,0.05,0-0.09,0-0.11
			c0-0.08,0-0.17,0.01-0.25c0.04-0.43,0.1-1.13,0.64-1.24c0.26-0.05,0.53,0.05,0.72,0.22c0.18,0.16,0.37,0.42,0.41,0.66
			c0.03,0.17-0.22,0.25-0.35,0.26c-0.18,0.01-0.35-0.04-0.52-0.08c-0.22-0.05-0.43-0.09-0.65-0.11c-0.23-0.02-0.44,0.21-0.45,0.44
			C115.2,76.98,115.4,77.13,115.63,77.15L115.63,77.15z"/>
	</g>
</g>
<g>
	<g>
		<path class="st0" d="M82.06,0.36c-0.11,1.28-0.22,2.57-0.33,3.85c-0.05,0.63-0.11,1.25-0.16,1.88c-0.05,0.52-0.09,1.05,0.02,1.56
			c0.22,1.02,1.06,1.45,2,1.69c1.24,0.31,2.52,0.51,3.79,0.58c0.47,0.03,0.61-0.73,0.13-0.83c-1.07-0.22-2.14-0.41-3.21-0.64
			c-0.43-0.09-0.95-0.14-1.34-0.39c-0.41-0.26-0.5-0.72-0.52-1.17c-0.03-1.04,0.1-2.1,0.16-3.14c0.07-1.14,0.14-2.27,0.21-3.41
			C82.85-0.13,82.1-0.11,82.06,0.36L82.06,0.36z"/>
	</g>
</g>
<g>
	<g>
		<path class="st0" d="M89.94,7.55c1.53,0.51,3.21,0.21,4.48-0.77c0.12-0.09,0.13-0.29,0.06-0.41c-0.84-1.41-2.97-1.43-4.23-0.59
			c-0.72,0.48-1.09,1.26-0.98,2.12c0.11,0.84,0.64,1.58,1.37,2.01c0.97,0.57,2.16,0.57,3.21,0.29c0.49-0.13,0.45-0.95-0.1-0.91
			c-0.73,0.05-1.51,0.08-2.21-0.15c-0.6-0.19-1.08-0.58-1.33-1.16c-0.23-0.52-0.17-1.12,0.25-1.52c0.46-0.44,1.17-0.6,1.79-0.59
			c0.63,0.01,1.36,0.24,1.62,0.86c0.04-0.16,0.09-0.31,0.13-0.47c-1.13,0.76-2.56,1-3.87,0.6C89.69,6.72,89.49,7.4,89.94,7.55
			L89.94,7.55z"/>
	</g>
</g>
<g>
	<g>
		<path class="st0" d="M98.77,6.61c-1.15-0.8-2.89,0.09-3.04,1.44c-0.09,0.77,0.35,1.53,0.96,1.96c0.65,0.46,1.52,0.48,2.2,0.07
			c0.79-0.47,1.24-1.35,1.18-2.26c-0.04-0.65-0.98-0.63-1.02,0.01c-0.1,1.62,1.86,3.18,3.35,2.23c0.5-0.32,0.2-1.04-0.37-0.93
			c-0.82,0.16-1.94-0.35-1.95-1.31c-0.34,0.05-0.67,0.09-1.01,0.14c0.07,0.53-0.38,1.11-0.86,1.29c-0.53,0.2-1.08-0.05-1.39-0.5
			c-0.3-0.44-0.29-1.03,0.14-1.38c0.4-0.33,0.97-0.38,1.4-0.08C98.77,7.57,99.18,6.9,98.77,6.61L98.77,6.61z"/>
	</g>
</g>
<g>
	<g>
		<path class="st0" d="M104.38,9.37c-0.24-0.43-0.46-0.86-0.47-1.34c0-0.22,0.02-0.38,0.08-0.59c0.03-0.1,0.05-0.15,0.09-0.23
			c0.03-0.05,0.06-0.1,0.09-0.15c0.02-0.02,0.03-0.05,0.05-0.07c-0.02,0.03-0.01,0.02,0.02-0.02c0.04-0.04,0.08-0.08,0.12-0.12
			c0.02-0.02,0.04-0.04,0.07-0.06c-0.04,0.03-0.04,0.03,0.01,0c0.08-0.05,0.15-0.1,0.24-0.13c-0.09,0.04,0.06-0.02,0.08-0.02
			c0.05-0.02,0.1-0.03,0.15-0.04c0.04-0.01,0.08-0.01,0.12-0.02c-0.09,0.01,0.07,0,0.08,0c0.05,0,0.1,0,0.16,0
			c0.03,0,0.05,0,0.08,0.01c-0.05-0.01-0.04,0,0,0c0.09,0.02,0.17,0.04,0.26,0.06c0.05,0.02,0.05,0.02,0.01,0
			c0.02,0.01,0.05,0.02,0.07,0.03c0.05,0.02,0.09,0.05,0.13,0.08c0.04,0.03,0.09,0.05,0.13,0.08c-0.05-0.04,0.06,0.05,0.07,0.06
			c0.29,0.28,0.81-0.09,0.6-0.46c-0.48-0.79-1.55-0.9-2.32-0.51c-0.79,0.4-1.19,1.37-1.12,2.23c0.05,0.58,0.3,1.07,0.58,1.56
			C103.98,10.13,104.6,9.77,104.38,9.37L104.38,9.37z"/>
	</g>
</g>
<g>
	<g>
		<path class="st0" d="M108.01,9.09c0.08-0.32,0.11-0.66,0.14-0.99c0.03-0.3,0.04-0.61,0.15-0.9c0.04-0.11,0.1-0.21,0.17-0.31
			c0.05-0.06,0.17-0.18,0.2-0.2c0.11-0.08,0.16-0.11,0.28-0.13c-0.08,0.01,0.13,0,0.06,0c0.02,0,0.17,0.05,0.12,0.03
			c0.02,0.01,0.15,0.1,0.09,0.05c0.04,0.04,0.08,0.08,0.12,0.12c-0.06-0.07,0.04,0.07,0.05,0.08c0.03,0.05,0.06,0.11,0.08,0.16
			c0.02,0.05,0.02,0.06,0.01,0.01c0.01,0.03,0.02,0.06,0.03,0.09c0.02,0.06,0.04,0.12,0.06,0.18c0.04,0.12,0.07,0.25,0.1,0.38
			c0.18,0.7,0.4,1.39,0.69,2.05c0.15,0.33,0.73,0.16,0.7-0.19c-0.06-0.65-0.19-1.3-0.36-1.93c-0.14-0.5-0.29-1-0.63-1.4
			c-0.35-0.4-0.92-0.58-1.42-0.38c-0.52,0.2-0.9,0.64-1.08,1.17c-0.22,0.62-0.14,1.3-0.29,1.94C107.17,9.38,107.9,9.55,108.01,9.09
			L108.01,9.09z"/>
	</g>
</g>
<g>
	<g>
		<path class="st0" d="M111.82,7.97c0.07,0.26,0.14,0.52,0.21,0.78c0.07,0.26,0.18,0.51,0.28,0.76c0.06,0.16,0.14,0.3,0.3,0.38
			c0.13,0.06,0.25,0.09,0.39,0.07c0.29-0.04,0.58-0.3,0.57-0.62c-0.02-0.32-0.03-0.65-0.09-0.97c-0.05-0.27-0.09-0.55-0.14-0.82
			c-0.03-0.19-0.2-0.38-0.36-0.47c-0.16-0.09-0.4-0.13-0.58-0.07c-0.2,0.06-0.39,0.18-0.49,0.37
			C111.81,7.57,111.77,7.77,111.82,7.97L111.82,7.97z"/>
	</g>
</g>
<g>
	<g>
		<path class="st0" d="M112.18,4.36c0.04-0.04,0.08-0.09,0.11-0.14c0.01-0.02,0.02-0.03,0.03-0.05c0.06-0.11,0.08-0.2,0.09-0.32
			c0.01-0.08,0-0.15-0.01-0.23c-0.01-0.08-0.05-0.15-0.08-0.23c0.01,0.03,0.03,0.07,0.04,0.1c-0.03-0.07-0.05-0.14-0.09-0.2
			c-0.04-0.06-0.09-0.12-0.13-0.18c-0.07-0.09-0.16-0.16-0.26-0.22c-0.12-0.07-0.27-0.11-0.41-0.12c-0.12,0-0.22,0.04-0.32,0.09
			c-0.11,0.05-0.21,0.17-0.24,0.29c-0.01,0.05-0.02,0.09-0.02,0.14c0,0.03,0.01,0.07,0.01,0.1c0.01,0.05,0.04,0.1,0.07,0.14
			c0.06,0.07,0.12,0.11,0.21,0.14c0.01,0,0.01,0,0.02,0.01c-0.03-0.01-0.07-0.03-0.1-0.04c0.08,0.04,0.15,0.07,0.25,0.06
			c0.07,0,0.11-0.02,0.17-0.03c-0.04,0.01-0.08,0.01-0.12,0.02c0.05-0.01,0.09-0.01,0.14,0c-0.04,0-0.08-0.01-0.12-0.01
			c0.04,0,0.07,0.01,0.1,0.03c-0.04-0.01-0.07-0.03-0.11-0.04c0.04,0.02,0.08,0.04,0.12,0.07c-0.03-0.02-0.06-0.04-0.09-0.07
			c0.04,0.03,0.07,0.06,0.1,0.1c-0.02-0.03-0.05-0.06-0.07-0.09c0.03,0.05,0.06,0.09,0.09,0.15c-0.01-0.03-0.03-0.07-0.04-0.1
			c0.01,0.04,0.02,0.08,0.03,0.12c0-0.04-0.01-0.07-0.01-0.11c0,0.04,0,0.07,0,0.11c0.01-0.04,0.01-0.07,0.02-0.11
			c0,0.03-0.01,0.06-0.03,0.09c0.01-0.03,0.03-0.07,0.04-0.1c-0.01,0.02-0.02,0.05-0.04,0.07c0.02-0.03,0.05-0.06,0.07-0.09
			c-0.02,0.02-0.04,0.04-0.06,0.06c-0.08,0.07-0.13,0.21-0.13,0.31c0,0.11,0.05,0.24,0.13,0.31c0.08,0.07,0.19,0.13,0.31,0.12
			C111.99,4.49,112.09,4.44,112.18,4.36L112.18,4.36z"/>
	</g>
</g>
<g>
	<g>
		<path class="st0" d="M115.24,8.64c-0.01-0.65,0.15-1.31,0.54-1.84c-0.2,0.03-0.4,0.06-0.6,0.09c0.4,0.4,0.7,0.85,0.95,1.37
			c0.06,0.13,0.12,0.25,0.18,0.38c0,0.01,0.05,0.12,0.03,0.08c-0.02-0.04,0.02,0.05,0.02,0.05c0.04,0.09,0.07,0.19,0.11,0.28
			c0.01,0.02,0.03,0.07,0.01,0.02c0.02,0.04,0.03,0.08,0.04,0.12c0.02,0.06,0.04,0.12,0.06,0.19c0.05,0.15,0.09,0.29,0.15,0.44
			c0.14,0.4,0.72,0.33,0.75-0.1c0.09-1.32-0.75-2.58-1.76-3.36c-0.19-0.14-0.47-0.14-0.6,0.09c-0.37,0.69-0.6,1.42-0.56,2.21
			C114.58,9.08,115.25,9.07,115.24,8.64L115.24,8.64z"/>
	</g>
</g>
<g>
	<g>
		<path class="st0" d="M121.44,7c-0.43-0.7-1.34-0.92-2.07-0.54c-0.77,0.4-1.25,1.41-0.94,2.24c0.28,0.74,1.12,1.03,1.85,0.85
			c0.81-0.2,1.38-0.93,1.76-1.62c-0.24,0-0.48,0.01-0.72,0.01c0.42,0.97,0.95,2.3,0.43,3.33c-0.38,0.76-1.19,1.19-2.03,1.03
			c-0.51-0.09-0.79,0.53-0.36,0.83c1.14,0.8,2.65-0.22,3.17-1.3c0.67-1.4,0.18-3.01-0.49-4.32c-0.12-0.23-0.49-0.27-0.65-0.07
			c-0.31,0.37-0.6,0.82-1.04,1.04c-0.25,0.13-0.66,0.17-0.88-0.04c-0.28-0.27-0.04-0.82,0.21-1.03c0.25-0.21,0.66-0.2,0.84,0.1
			C120.87,8.1,121.79,7.56,121.44,7L121.44,7z"/>
	</g>
</g>
<g>
	<g>
		<path class="st0" d="M84.73,13.32c9.22,0.24,18.44,0.36,27.66,0.07c0.4-0.01,0.43-0.63,0.01-0.63
			c-9.22,0.09-18.44,0.18-27.67-0.03C84.37,12.73,84.35,13.31,84.73,13.32L84.73,13.32z"/>
	</g>
</g>
</svg>
