<?xml version="1.0" encoding="utf-8"?>
<!-- Generator: Adobe Illustrator 26.0.2, SVG Export Plug-In . SVG Version: 6.00 Build 0)  -->
<svg version="1.1" id="Layer_1" xmlns="http://www.w3.org/2000/svg" xmlns:xlink="http://www.w3.org/1999/xlink" x="0px" y="0px"
	 viewBox="0 0 234.81 185.58" style="enable-background:new 0 0 234.81 185.58;" xml:space="preserve">
<style type="text/css">
	.st0{fill:#486AFB;}
	.st1{fill:#FD46FC;}
</style>
<g>
	<g>
		<path class="st0" d="M79.47,88.83c2.38-3.74,2.7-8.47,1.42-12.66c-1.39-4.54-4.34-8.35-8.27-10.98
			c-4.23-2.83-9.24-4.35-14.22-5.21c-5.65-0.98-11.62-1.55-17.31-0.63c-9.71,1.57-18.33,8.18-22.44,17.1
			c-2.17,4.69-3.15,9.92-2.75,15.08c0.4,5.18,2.32,9.95,4.58,14.57c2.22,4.53,4.76,8.99,6.06,13.91c0.68,2.59,0.94,5.24,0.71,7.91
			c-0.25,3.01-1.07,5.95-2.03,8.8c-1.88,5.57-4.4,10.96-5.25,16.83c-0.68,4.71-0.17,9.92,2.59,13.93c3.02,4.41,8.11,6.09,13.2,6.67
			c5.98,0.68,12.01-0.33,17.78-1.84c5.29-1.38,10.57-3.09,15.53-5.4c4.71-2.2,9.15-5.15,12.58-9.09c7.37-8.45,9.82-19.97,8.94-30.93
			c-0.47-5.82-1.74-11.58-3.66-17.09c-0.94-2.69-2.03-5.32-3.32-7.86c-1.27-2.5-2.88-4.92-3.7-7.61c-0.7-2.29-0.74-4.96,0.85-6.89
			c0.55-0.68-0.4-1.6-0.95-0.92c-1.51,1.84-1.91,4.28-1.59,6.6c0.37,2.65,1.7,5.05,2.91,7.39c2.54,4.93,4.54,10.16,5.91,15.53
			c2.74,10.72,3.19,22.58-1.56,32.83c-2.13,4.6-5.22,8.66-9.2,11.8c-3.99,3.15-8.69,5.34-13.43,7.08
			c-5.21,1.92-10.61,3.6-16.08,4.58c-5.45,0.98-11.41,1.26-16.68-0.69c-2.31-0.85-4.43-2.24-5.95-4.2c-1.4-1.8-2.29-3.98-2.77-6.19
			c-1.14-5.29,0.19-10.61,1.94-15.6c1.87-5.37,4.22-10.64,5-16.32c0.37-2.66,0.32-5.35-0.18-7.99c-0.46-2.39-1.27-4.7-2.22-6.94
			c-1.92-4.54-4.46-8.78-6.34-13.34c-1.94-4.7-2.81-9.69-2.3-14.77c0.51-5.04,2.29-9.92,5.27-14.02c2.78-3.83,6.53-6.86,10.77-8.94
			c4.74-2.32,9.88-3.11,15.13-2.92c5.21,0.19,10.53,0.91,15.51,2.49c4.59,1.46,9.05,3.88,12.18,7.62c2.72,3.25,4.47,7.65,4.27,11.92
			c-0.1,2.13-0.69,4.14-1.81,5.95C78.26,88.91,79.13,89.37,79.47,88.83L79.47,88.83z"/>
	</g>
</g>
<g>
	<g>
		<path class="st0" d="M20.62,174.91c-0.91-1.34-2.5-2.11-4.12-2.04c-1.71,0.07-3.56,1.17-3.84,2.98c-0.32,2.03,1.67,3.27,3.16,4.17
			c0.87,0.52,1.77,1.01,2.58,1.63c0.58,0.44,1.96,1.36,0.9,2.02c-0.48,0.3-1.16,0.34-1.71,0.4c-0.65,0.08-1.33,0.14-1.99,0.07
			c-1.04-0.11-2.02-0.59-2.59-1.49c-0.31-0.48-1.14-0.17-0.97,0.4c0.57,2.02,2.86,2.64,4.73,2.51c1.06-0.08,2.37-0.19,3.27-0.79
			c0.73-0.49,1.22-1.41,0.92-2.28c-0.33-0.95-1.39-1.65-2.17-2.19c-0.83-0.58-1.72-1.08-2.6-1.6c-0.78-0.47-1.71-0.98-2.13-1.83
			c-0.44-0.87,0.09-1.78,0.82-2.29c1.48-1.02,3.72-0.53,4.7,0.95C19.99,176.14,21.04,175.54,20.62,174.91L20.62,174.91z"/>
	</g>
</g>
<g>
	<g>
		<path class="st0" d="M218.98,131.46c-0.08,1.43-0.11,2.85-0.07,4.28c0.04,1.37-0.02,2.92,0.45,4.23c0.2,0.55,0.9,0.41,0.98-0.13
			c0.1-0.71,0.04-1.42,0-2.14c-0.04-0.69-0.08-1.37-0.09-2.06c-0.04-1.4-0.03-2.8,0.04-4.2
			C220.32,130.61,219.03,130.65,218.98,131.46L218.98,131.46z"/>
	</g>
</g>
<g>
	<g>
		<path class="st0" d="M220.79,132.72c-0.05,2.26,0,4.7,0.93,6.79c0.21,0.47,0.92,0.19,0.93-0.26c0.04-1.09-0.05-2.18-0.13-3.26
			c-0.08-1.09-0.11-2.19-0.09-3.29C222.46,131.65,220.82,131.69,220.79,132.72L220.79,132.72z"/>
	</g>
</g>
<g>
	<g>
		<path class="st0" d="M220.25,131.96c1.09-1.36,3.27-1.61,4.35-0.07c0.47,0.67,0.53,1.59,0.15,2.32c-0.22,0.41-0.55,0.69-0.94,0.92
			c-0.39,0.23-0.87,0.51-1.3,0.65c-0.49,0.15-0.61,0.79-0.16,1.07c0.38,0.23,0.85,0.33,1.26,0.5c0.42,0.18,0.84,0.36,1.24,0.59
			c0.8,0.45,1.48,1.04,2.19,1.62c0.42,0.34,1.19-0.12,0.84-0.64c-0.58-0.88-1.4-1.54-2.29-2.09c-0.81-0.5-1.94-1.12-2.92-1.07
			c0.13,0.33,0.27,0.65,0.4,0.98c0.21-0.24,0.59-0.38,0.87-0.53c0.28-0.15,0.56-0.29,0.81-0.48c0.48-0.36,0.84-0.82,1.07-1.37
			c0.42-1.04,0.3-2.26-0.37-3.16c-1.53-2.06-4.48-1.74-5.92,0.23C219.2,131.85,219.92,132.37,220.25,131.96L220.25,131.96z"/>
	</g>
</g>
<g>
	<g>
		<path class="st0" d="M12.82,0.73c0.02,2.12,0.05,4.24,0.07,6.36c0.01,1.02,0.02,2.04,0.03,3.06c0.01,0.94-0.22,2.26,0.41,3.02
			c0.27,0.33,0.76,0.13,0.96-0.14c0.31-0.42,0.27-0.97,0.26-1.48c-0.01-0.47-0.02-0.94-0.03-1.41c-0.02-1.06-0.05-2.12-0.07-3.18
			c-0.04-2.08-0.09-4.16-0.13-6.24C14.3-0.25,12.81-0.21,12.82,0.73L12.82,0.73z"/>
	</g>
</g>
<g>
	<g>
		<path class="st0" d="M13.18,2.54c1.21-0.28,2.46-0.26,3.66,0.05c1.14,0.29,2.36,0.83,3.18,1.69c0.31,0.32,0.54,0.74,0.35,1.19
			c-0.21,0.48-0.71,0.75-1.18,0.9c-0.67,0.21-1.38,0.29-2.08,0.41c-0.75,0.13-1.49,0.26-2.24,0.41C14.19,7.32,13,7.36,12.86,8.22
			c-0.15,0.88,1.11,1.17,1.43,0.35c0.16-0.41-0.3-0.78-0.68-0.68c-0.02,0-0.03,0.01-0.05,0.01c0.15,0.02,0.3,0.03,0.44,0.05
			c-0.02-0.01-0.03-0.02-0.05-0.03c0.08,0.07,0.15,0.15,0.23,0.22c0.01,0.01,0.01,0.02,0.02,0.04c0,0.11,0,0.23-0.01,0.34
			c0.01-0.02,0.01-0.04,0.02-0.06c-0.06,0.1-0.12,0.2-0.18,0.31C13.96,8.85,13.64,8.85,14,8.84c0.08,0,0.16-0.02,0.24-0.03
			c0.19-0.02,0.37-0.05,0.56-0.07c0.42-0.05,0.83-0.11,1.25-0.17c0.75-0.1,1.49-0.23,2.24-0.36c1.31-0.22,2.71-0.63,3.4-1.87
			c1.54-2.75-2.33-4.68-4.45-5.15c-1.45-0.32-2.95-0.3-4.39,0.07C12.01,1.48,12.32,2.74,13.18,2.54L13.18,2.54z"/>
	</g>
</g>
<g>
	<g>
		<path class="st0" d="M26.74,12.68c0.05,0.21,0.1,0.42,0.14,0.64c0.07,0.3,0.4,0.46,0.68,0.39c0.32-0.09,0.45-0.38,0.41-0.68
			c-0.1-0.73-0.24-1.43-0.25-2.17c-0.01-0.63-0.03-1.45,0.25-2.03c0.02-0.05,0.13-0.16,0.13-0.2c0,0,0,0,0-0.01
			c-0.09-0.05-0.11-0.05-0.05,0c0.02,0.01,0.03,0.02,0.04,0.04c0.11,0.25,0.28,0.48,0.37,0.74c0.21,0.56,0.22,1.14,0.11,1.72
			c0.49,0.06,0.97,0.12,1.46,0.17c0.01-0.72,0.15-1.4,0.64-1.96c0.12-0.14,0.27-0.3,0.42-0.41c-0.01,0,0.23-0.11,0.13-0.08
			c-0.06,0.02-0.06-0.07-0.03,0c0.03,0.07,0.08,0.08,0.1,0.11c0.1,0.15,0.18,0.32,0.24,0.48c0.34,0.81,0.58,1.66,0.77,2.52
			c0.1,0.45,0.17,0.91,0.24,1.37c0.07,0.47,0.13,0.93,0.36,1.36c0.27,0.49,0.92,0.28,1.09-0.16c0.24-0.58,0.13-1.24,0.05-1.85
			c-0.08-0.57-0.21-1.14-0.36-1.69c-0.14-0.52-0.32-1.03-0.52-1.54c-0.21-0.53-0.4-1.07-0.78-1.5c-0.37-0.43-0.95-0.63-1.5-0.47
			c-0.49,0.14-0.87,0.55-1.18,0.94c-0.64,0.82-1.12,1.85-1.17,2.9c-0.04,0.84,1.28,0.98,1.46,0.17c0.21-0.93,0.05-1.93-0.4-2.77
			C29.24,8,28.39,7.19,27.58,7.82c-0.68,0.53-0.73,1.6-0.82,2.38c-0.12,1-0.15,2.14,0.13,3.11c0.37-0.1,0.73-0.2,1.1-0.3
			c-0.08-0.2-0.15-0.41-0.23-0.61C27.52,11.8,26.59,12.03,26.74,12.68L26.74,12.68z"/>
	</g>
</g>
<g>
	<g>
		<path class="st0" d="M35.18,10.21c0.58,0.51,1.27,0.96,2.05,1.09c0.8,0.13,1.61-0.06,2.19-0.64c0.5-0.5,0.78-1.25,0.55-1.94
			c-0.18-0.57-0.65-1.04-1.19-1.28c-0.58-0.26-1.24-0.32-1.84-0.08c-0.67,0.26-1.22,0.77-1.58,1.39c-0.67,1.2-0.83,2.76-0.21,4.01
			c0.37,0.74,1.09,1.28,1.9,1.42c0.9,0.16,1.96,0,2.71-0.53c0.24-0.17,0.4-0.44,0.33-0.75c-0.07-0.29-0.35-0.49-0.64-0.49
			c-0.32,0-0.62,0.06-0.93,0.11c-0.13,0.02-0.27,0.05-0.4,0.07c-0.18,0.03-0.19,0.04-0.4,0.04c-0.23,0.01-0.38,0.01-0.63-0.1
			c0.08,0.04-0.05-0.03-0.05-0.03c-0.05-0.03-0.1-0.06-0.15-0.09c-0.1-0.07,0.12,0.12-0.03-0.03c-0.05-0.05-0.1-0.1-0.15-0.14
			c-0.1-0.09-0.03-0.03,0,0.01c-0.04-0.05-0.08-0.11-0.12-0.17c-0.05-0.08-0.09-0.16-0.13-0.24c-0.1-0.2,0.03,0.09-0.01-0.04
			c-0.02-0.06-0.04-0.11-0.05-0.17c-0.03-0.11-0.06-0.23-0.08-0.35c0-0.01-0.03-0.24-0.02-0.09c0-0.05-0.01-0.1-0.01-0.15
			c-0.01-0.12-0.01-0.24,0-0.36c0-0.1,0.01-0.19,0.02-0.29c0.03-0.22-0.02,0.08,0.01-0.06c0.02-0.09,0.04-0.18,0.06-0.27
			c0.03-0.1,0.06-0.2,0.09-0.3c0.03-0.07,0.05-0.15,0.08-0.22c-0.01,0.03-0.04,0.08,0.02-0.04c0.1-0.2,0.25-0.46,0.34-0.57
			c0.15-0.18,0.29-0.29,0.43-0.38c0.18-0.11,0.3-0.15,0.47-0.15c0.33,0,0.67,0.07,0.89,0.34c-0.02-0.02-0.04-0.06,0.02,0.03
			c0.03,0.04,0.05,0.09,0.07,0.13c-0.01-0.03,0.03,0.14,0.03,0.09c0.03,0.22-0.02,0.32-0.13,0.49c0.05-0.08-0.04,0.04-0.05,0.06
			c-0.02,0.02-0.15,0.14-0.12,0.11c0.07-0.06-0.12,0.08-0.11,0.07c-0.06,0.04-0.13,0.08-0.2,0.11c0.1-0.05-0.01,0-0.03,0.01
			c-0.08,0.03-0.17,0.05-0.25,0.07c-0.13,0.03,0.15,0-0.07,0.01c-0.09,0-0.17,0.01-0.26,0c-0.51-0.03-1.03-0.35-1.45-0.69
			c-0.29-0.24-0.7-0.25-0.97,0.02C34.94,9.51,34.9,9.97,35.18,10.21L35.18,10.21z"/>
	</g>
</g>
<g>
	<g>
		<path class="st0" d="M45.6,8.94c-0.33-0.7-1.12-1.04-1.86-1.02c-0.86,0.03-1.63,0.47-2.07,1.21c-0.51,0.83-0.55,1.85-0.43,2.79
			c0.07,0.53,0.22,1.06,0.69,1.37c0.45,0.28,1,0.23,1.46-0.01c0.47-0.25,0.79-0.65,1.04-1.11c0.05-0.1,0.11-0.2,0.17-0.3
			c0.02-0.04,0.2-0.29,0.1-0.17c0.05-0.06,0.22-0.18,0.08-0.1c0.04-0.02,0.07-0.05,0.12-0.07c-0.13,0.06-0.02,0.02,0.06,0.01
			c-0.33-0.19-0.66-0.37-0.99-0.56c0.45,1.54,1.79,3.08,3.49,3.11c0.67,0.01,0.93-0.91,0.36-1.25c-0.27-0.16-0.54-0.32-0.8-0.49
			c-0.07-0.04-0.13-0.09-0.2-0.13c-0.12-0.08,0.01,0.01-0.05-0.04c-0.12-0.1-0.25-0.2-0.36-0.31c-0.11-0.1-0.2-0.21-0.3-0.32
			c-0.17-0.19,0.08,0.13-0.06-0.08c-0.05-0.06-0.09-0.13-0.13-0.2c-0.08-0.13-0.16-0.27-0.23-0.42c-0.01-0.02-0.09-0.2-0.05-0.12
			c0.02,0.05,0.02,0.03-0.02-0.05c-0.02-0.05-0.03-0.1-0.05-0.15C45.4,10.1,45,9.92,44.55,9.99c-0.53,0.08-0.93,0.47-1.22,0.89
			c-0.11,0.16-0.2,0.34-0.3,0.52c-0.03,0.07-0.07,0.13-0.1,0.2c-0.02,0.03-0.18,0.25-0.09,0.14c-0.02,0.03-0.25,0.23-0.11,0.13
			c-0.04,0.03-0.08,0.05-0.12,0.08c-0.09,0.04-0.08,0.04,0,0c-0.16-0.01,0.11,0.03,0.15,0.04c0.03,0.02,0.06,0.05,0.07,0.08
			c-0.04-0.08-0.05-0.09-0.02-0.03c-0.16-0.37-0.16-0.76-0.16-1.12c0-0.36,0.05-0.73,0.18-1.01c0.08-0.18,0.17-0.32,0.28-0.43
			c0.02-0.02,0.22-0.18,0.1-0.1c0.07-0.05,0.15-0.09,0.22-0.13c0.07-0.03,0.08-0.04,0.01-0.01c0.04-0.02,0.08-0.03,0.12-0.04
			c0.06-0.02,0.12-0.04,0.19-0.05c0.07-0.01,0.08-0.02,0.03-0.01c0.04,0,0.08-0.01,0.13-0.01c0.02,0,0.23,0.01,0.16,0
			c0.29,0.04,0.46,0.14,0.59,0.35C45.01,10.07,45.88,9.54,45.6,8.94L45.6,8.94z"/>
	</g>
</g>
<g>
	<g>
		<path class="st0" d="M51.9,6.46c-0.77,0.26-1.54,0.65-2.02,1.33c-0.5,0.7-0.41,1.64,0.18,2.25c0.22,0.23,0.51,0.41,0.79,0.56
			c0.13,0.07,0.27,0.14,0.41,0.22c0.06,0.03,0.12,0.07,0.18,0.11c0.04,0.03,0.2,0.15,0.09,0.06c0.05,0.04,0.1,0.09,0.15,0.14
			c0.1,0.08-0.01-0.07,0.03,0.04c0.01,0.02,0.06,0.12,0.02,0.02c0.02,0.04,0.02,0.08,0.03,0.12c0.02,0.09,0,0.02,0,0
			c0,0.05,0,0.11-0.01,0.17c0.02-0.09-0.04,0.1-0.05,0.13c0.03-0.08-0.06,0.09-0.07,0.12c-0.03,0.06-0.18,0.21-0.21,0.23
			c-0.36,0.26-0.74,0.35-1.21,0.45c-0.2,0.05-0.47,0.13-0.64,0.15c-0.17,0.02-0.43-0.01-0.64,0.07c-0.25,0.09-0.43,0.28-0.44,0.55
			c-0.03,0.66,0.64,0.93,1.19,0.94c0.47,0.01,0.95-0.11,1.4-0.25c0.98-0.29,1.85-0.87,2.19-1.87c0.31-0.94-0.1-1.81-0.89-2.34
			c-0.26-0.18-0.56-0.31-0.84-0.46c-0.07-0.04-0.14-0.08-0.21-0.12c-0.05-0.03-0.15-0.13-0.06-0.04c-0.03-0.03-0.17-0.17-0.11-0.1
			c0.06,0.08-0.08-0.19-0.02-0.01c-0.02-0.04-0.03-0.09-0.04-0.14c0.02,0.08-0.01,0.04,0-0.02c0-0.01,0-0.12,0-0.04
			c0,0.08,0.06-0.12-0.01,0.02c0.02-0.03,0.03-0.06,0.05-0.09c0.06-0.1-0.08,0.08,0-0.01c0.07-0.08,0.14-0.15,0.22-0.22
			c0.07-0.06,0,0-0.02,0.01c0.04-0.03,0.09-0.06,0.13-0.09c0.09-0.06,0.19-0.12,0.29-0.17c0.26-0.14,0.24-0.13,0.48-0.21
			c0.4-0.14,0.7-0.53,0.59-0.97C52.77,6.61,52.3,6.32,51.9,6.46L51.9,6.46z"/>
	</g>
</g>
<g>
	<g>
		<path class="st0" d="M54.35,9.14c0.14,0.77,0.29,1.53,0.65,2.23c0.38,0.74,1.01,1.3,1.78,1.58c1.6,0.59,3.26-0.73,3.28-2.38
			c0.01-0.48-0.12-0.95-0.36-1.37c-0.12-0.21-0.26-0.4-0.43-0.56c-0.17-0.16-0.38-0.34-0.62-0.38c-0.29-0.04-0.63,0.13-0.62,0.47
			c0,0.08,0.01,0.16,0.03,0.24c0.02,0.06,0.05,0.11,0.07,0.17c0.03,0.06,0.01,0.02,0,0.01c0.03,0.07,0.06,0.14,0.09,0.21
			c0-0.01-0.03-0.07,0,0c0.02,0.07,0.05,0.14,0.07,0.22c0.04,0.13,0.08,0.25,0.11,0.38c0.02,0.08,0.03,0.15,0.04,0.23
			c0.02,0.09,0-0.02,0-0.03c0,0.04,0,0.09,0.01,0.13c0,0.11,0.03,0.3-0.01,0.4c0,0,0.03-0.15,0.01-0.06
			c-0.01,0.03-0.01,0.06-0.02,0.08c-0.02,0.08-0.05,0.15-0.07,0.22c-0.05,0.14,0.06-0.11-0.01,0.02c-0.03,0.05-0.06,0.1-0.09,0.15
			c-0.02,0.02-0.03,0.05-0.05,0.07c-0.05,0.08,0.04-0.05,0.04-0.05c-0.05,0.03-0.11,0.13-0.16,0.17c-0.02,0.02-0.04,0.04-0.06,0.06
			c-0.06,0.07,0.06-0.04,0.07-0.05c-0.05,0.02-0.1,0.07-0.14,0.09c-0.02,0.01-0.05,0.02-0.08,0.04c-0.07,0.05,0.06-0.03,0.08-0.03
			c-0.06,0-0.13,0.05-0.19,0.06c-0.03,0.01-0.16,0.02-0.04,0.01c0.11-0.01,0,0-0.01,0c-0.01,0-0.18,0-0.18,0
			c0-0.01,0.15,0.03,0.06,0.01c-0.03-0.01-0.06-0.01-0.09-0.02c-0.07-0.01-0.14-0.04-0.2-0.06c-0.09-0.02,0.05,0.02,0.05,0.02
			c-0.03,0-0.09-0.04-0.11-0.05c-0.06-0.03-0.11-0.06-0.16-0.09c-0.06-0.04-0.15-0.1-0.04-0.02c-0.06-0.05-0.11-0.09-0.17-0.14
			c-0.05-0.04-0.09-0.09-0.13-0.13c-0.02-0.02-0.04-0.05-0.06-0.07c-0.12-0.13,0.01,0.02,0.01,0.02c-0.08-0.02-0.2-0.3-0.24-0.37
			c-0.04-0.07-0.07-0.15-0.11-0.22c-0.01-0.01-0.05-0.12-0.02-0.03c0.04,0.1-0.04-0.1-0.04-0.1c-0.06-0.15-0.1-0.31-0.15-0.47
			c-0.09-0.34-0.16-0.69-0.22-1.04c-0.08-0.41-0.58-0.67-0.97-0.55C54.5,8.31,54.27,8.7,54.35,9.14L54.35,9.14z"/>
	</g>
</g>
<g>
	<g>
		<path class="st0" d="M64.2,12.3c-0.03-0.02-0.13-0.06-0.15-0.09c0.09,0.07,0.1,0.07,0.03,0.02c-0.02-0.01-0.03-0.03-0.05-0.04
			c-0.09-0.08-0.17-0.17-0.25-0.25c-0.12-0.13,0.07,0.12-0.01-0.02c-0.03-0.05-0.07-0.1-0.1-0.15c-0.03-0.05-0.06-0.11-0.09-0.16
			c-0.09-0.15,0.04,0.13-0.01-0.02c-0.04-0.11-0.07-0.23-0.1-0.35c-0.01-0.05-0.03-0.12-0.03-0.18c-0.01,0.2,0.01,0.02,0-0.03
			c0-0.1-0.02-0.27,0.02-0.36c-0.07,0.17,0,0.03,0.01-0.03c0.02-0.07,0.04-0.14,0.06-0.2c0.01-0.03,0.02-0.06,0.03-0.09
			c-0.04,0.09-0.05,0.11-0.02,0.05c0.03-0.05,0.06-0.11,0.09-0.16c0.03-0.05,0.07-0.1,0.1-0.15c0.04-0.05,0.02-0.03-0.04,0.05
			c0.02-0.02,0.04-0.05,0.06-0.07C63.82,9.96,63.91,9.88,64,9.8c0.05-0.04,0.03-0.03-0.06,0.04c0.02-0.02,0.05-0.04,0.07-0.05
			c0.05-0.03,0.1-0.07,0.15-0.1c0.1-0.07,0.21-0.13,0.32-0.18c0.22-0.11-0.18,0.07,0.1-0.04c0.05-0.02,0.1-0.04,0.15-0.07
			c-0.09,0.04-0.11,0.04-0.05,0.02c0.12-0.04,0.23-0.08,0.35-0.1c0.06-0.01,0.12-0.03,0.17-0.04c0.03-0.01,0.06-0.01,0.09-0.02
			c-0.07,0.01-0.06,0.01,0.02,0c0.27-0.03,0.52-0.18,0.6-0.45c0.07-0.23-0.03-0.57-0.28-0.67c-0.75-0.3-1.53-0.26-2.25,0.13
			c-0.67,0.36-1.17,1.01-1.43,1.71c-0.5,1.39,0.18,3.01,1.4,3.77c0.37,0.23,0.94,0.06,1.15-0.32C64.71,13.01,64.6,12.53,64.2,12.3
			L64.2,12.3z"/>
	</g>
</g>
<g>
	<g>
		<path class="st0" d="M66.73,12.18c1.49,0.2,3.07,0.34,4.3-0.69c0.94-0.79,1.2-2.15,0.45-3.16c-0.95-1.27-2.63-0.74-3.55,0.29
			c-0.46,0.51-0.77,1.16-0.72,1.86c0.06,0.7,0.42,1.33,0.96,1.77c0.65,0.54,1.44,0.79,2.28,0.8c0.92,0.01,1.98-0.24,2.75-0.75
			c0.48-0.32,0.37-1.15-0.29-1.13c-1.08,0.04-2.21,0.65-3.29,0.24c-0.64-0.24-1.26-0.91-0.93-1.65c0.24-0.55,1.22-1.49,1.84-1
			c0.63,0.5,0.32,1.38-0.22,1.8c-0.9,0.7-2.2,0.53-3.25,0.39c-0.34-0.05-0.69,0.1-0.79,0.45C66.21,11.72,66.39,12.14,66.73,12.18
			L66.73,12.18z"/>
	</g>
</g>
<g>
	<g>
		<path class="st0" d="M77.73,6.94c-1.01,0.39-1.93,0.96-2.7,1.73c-0.37,0.38-0.33,1.05,0.17,1.31c1.57,0.82,3.22,1.48,4.93,1.95
			c-0.12-0.46-0.24-0.92-0.36-1.39c-0.06,0.06-0.13,0.13-0.19,0.18c-0.01,0.01-0.09,0.09-0.1,0.09c0.01,0,0.14-0.1,0.02-0.02
			c-0.16,0.1-0.32,0.2-0.49,0.28c-0.02,0.01-0.16,0.07-0.05,0.02c0.11-0.05-0.03,0.01-0.05,0.02c-0.08,0.03-0.17,0.06-0.25,0.08
			c-0.09,0.02-0.17,0.04-0.26,0.06c-0.04,0.01-0.09,0.01-0.13,0.02c-0.12,0.02,0.2-0.02-0.01,0c-0.18,0.01-0.35,0.02-0.53,0.01
			c-0.06,0-0.29-0.04-0.12-0.01c-0.09-0.02-0.17-0.03-0.26-0.05c-0.37-0.07-0.73-0.16-1.1-0.22c-0.25-0.04-0.5,0.02-0.67,0.24
			c-0.14,0.18-0.2,0.48-0.06,0.68c0.33,0.48,0.74,0.73,1.29,0.9c0.45,0.14,0.97,0.16,1.43,0.11c1.02-0.11,1.98-0.51,2.7-1.25
			c0.45-0.46,0.25-1.21-0.36-1.39c-1.64-0.46-3.01-1.01-4.53-1.8c0.06,0.44,0.11,0.87,0.17,1.31c0.15-0.15,0.3-0.29,0.46-0.43
			c0.04-0.03,0.08-0.07,0.12-0.1c-0.07,0.06-0.06,0.04,0.01,0c0.1-0.07,0.19-0.14,0.29-0.2c0.18-0.12,0.36-0.22,0.55-0.32
			c0.09-0.05,0.19-0.09,0.28-0.14c0.02-0.01,0.17-0.07,0.08-0.03c-0.1,0.04,0.12-0.05,0.11-0.04c0.41-0.16,0.77-0.56,0.63-1.03
			C78.64,7.12,78.16,6.77,77.73,6.94L77.73,6.94z"/>
	</g>
</g>
<g>
	<g>
		<path class="st0" d="M0.14,27.2c0.21,2.65,0.31,5.32,0.27,7.98c-0.01,0.65-0.06,1.32-0.05,1.97c0.01,0.57,0.15,1.13,0.78,1.27
			c1.24,0.27,1.29-1.7,0.13-1.45c-0.25,0.05-0.45,0.32-0.45,0.57c0,0.01,0,0.02,0,0.03c0,0.22,0.17,0.49,0.4,0.53
			c0.01,0,0.02,0,0.03,0c-0.14-0.19-0.29-0.38-0.43-0.56c0.01,0.13,0.06,0.04,0.15-0.26c0.17-0.07,0.33-0.14,0.5-0.21
			c-0.02,0-0.04,0-0.06,0c0.16,0.06,0.32,0.13,0.49,0.19c-0.02-0.03-0.05-0.05-0.07-0.08c0.07,0.17,0.14,0.35,0.21,0.52
			c0.16-3.5,0.09-7.02-0.19-10.52C1.75,26.1,0.05,26.14,0.14,27.2L0.14,27.2z"/>
	</g>
</g>
<g>
	<g>
		<path class="st0" d="M1.17,27.88c0.71-0.25,1.44-0.33,2.15-0.19C3.68,27.76,4,27.85,4.3,28.01c0.3,0.16,0.47,0.26,0.7,0.56
			c-0.08-0.1,0.03,0.06,0.05,0.09c0.03,0.05,0.08,0.21,0.04,0.08c0.01,0.04,0.05,0.22,0.04,0.09c0,0.04,0,0.08,0,0.12
			c0,0.02-0.02,0.15-0.01,0.09c0.01-0.07-0.1,0.21-0.03,0.08c-0.04,0.07-0.08,0.14-0.13,0.2c0.08-0.1-0.05,0.05-0.08,0.08
			c-0.07,0.07-0.14,0.13-0.22,0.2c-0.07,0.06,0,0.01,0.01-0.01c-0.03,0.03-0.07,0.05-0.1,0.07c-0.07,0.05-0.14,0.1-0.21,0.14
			C4.19,29.93,4,30.05,3.82,30.17c-0.38,0.24-0.76,0.48-1.15,0.72c-0.43,0.27-0.86,0.53-1.29,0.8C1.19,31.81,1,31.94,0.8,32.06
			c-0.01,0-0.09,0.04-0.09,0.04c-0.01-0.02,0.15-0.04,0.15-0.04c0,0-0.2,0.02-0.15,0.01c-0.24,0.03,0.16-0.01,0.22,0.03
			c-0.26-0.18-0.66-0.02-0.81,0.23c-0.37,0.61,0.2,1.21,0.83,1.21c0.57,0,1.08-0.38,1.56-0.66c0.97-0.57,1.96-1.16,2.88-1.82
			c0.87-0.63,1.65-1.57,1.31-2.72c-0.31-1.04-1.26-1.7-2.24-2.03c-1.17-0.39-2.51-0.36-3.67,0.06c-0.4,0.14-0.69,0.52-0.58,0.96
			C0.31,27.73,0.77,28.02,1.17,27.88L1.17,27.88z"/>
	</g>
</g>
<g>
	<g>
		<path class="st0" d="M9.5,31.42C9.38,30.7,9,29.93,8.78,29.34c-0.11-0.3-0.21-0.61-0.25-0.93c0.02,0.13,0-0.07,0-0.09
			c0-0.08,0-0.16,0-0.24c0-0.03,0.03-0.25,0.01-0.13c0.01-0.07,0.03-0.13,0.04-0.2c0.02-0.06,0.04-0.13,0.06-0.19
			c-0.05,0.12,0.03-0.05,0.04-0.07c0.02-0.04,0.05-0.08,0.07-0.11c-0.04,0.05-0.04,0.05-0.01,0.01c0.05-0.05,0.1-0.1,0.14-0.15
			c-0.11,0.12-0.03,0.03,0.02,0c0.08-0.04,0.12-0.04,0.02-0.02c0.06-0.02,0.12-0.03,0.17-0.05c0.15-0.04-0.05-0.01,0.07-0.01
			c0.05,0,0.1,0,0.16,0c0.14,0-0.08-0.03,0.05,0.01c0.05,0.01,0.1,0.02,0.15,0.04c-0.11-0.03,0.07,0.03,0.09,0.05
			c0.1,0.05-0.05-0.05,0.04,0.03c0.01,0.01,0.1,0.12,0.04,0.03c0.08,0.11,0.08,0.13,0.1,0.23c0.08,0.42,0.76,0.4,0.84-0.01
			c0.23-1.19-1.2-1.9-2.2-1.54c-1.41,0.5-1.56,2.25-1.21,3.49c0.22,0.79,0.59,1.53,0.69,2.35c0.05,0.43,0.62,0.68,0.99,0.56
			C9.35,32.27,9.58,31.87,9.5,31.42L9.5,31.42z"/>
	</g>
</g>
<g>
	<g>
		<path class="st0" d="M11.37,28c0.07,1.16,0.21,2.41,0.82,3.43c0.73,1.23,2.52,2.19,3.68,0.89c0.85-0.95,0.87-2.34,0.19-3.4
			c-0.67-1.04-1.82-1.64-3.06-1.49c-1.4,0.17-2.93,1.18-3.32,2.59c-0.12,0.45,0.51,0.85,0.83,0.46c0.31-0.38,0.62-0.77,0.99-1.09
			c0.32-0.27,0.71-0.47,1.13-0.58c0.38-0.09,0.77-0.09,1.16,0.05c-0.12-0.04-0.02-0.01,0,0.01c0.06,0.03,0.11,0.05,0.17,0.09
			c0.04,0.03,0.22,0.15,0.11,0.06c0.08,0.06,0.16,0.13,0.23,0.21c0.03,0.03,0.06,0.06,0.09,0.09c0.05,0.05,0.12,0.14,0.04,0.04
			c0.12,0.16,0.19,0.35,0.3,0.52c0.06,0.1-0.06-0.18,0,0.01c0.01,0.04,0.03,0.08,0.04,0.12c0.03,0.11,0.06,0.22,0.08,0.33
			c0.01,0.05,0.01,0.19,0,0c0,0.04,0.01,0.08,0.01,0.12c0,0.1-0.01,0.2-0.01,0.3c0,0.06-0.04,0.13,0.01-0.03
			c-0.01,0.05-0.02,0.1-0.03,0.15c-0.01,0.05-0.03,0.09-0.05,0.14c-0.05,0.16,0.09-0.13-0.01,0.02c-0.02,0.03-0.04,0.07-0.06,0.11
			c0,0.01-0.13,0.16-0.05,0.07c0.09-0.1-0.09,0.09-0.09,0.08c0.02-0.02,0.14-0.1-0.01,0c0.15-0.1-0.05,0.01,0.02,0
			c0.1-0.01-0.16-0.03-0.01,0c-0.06-0.01-0.11-0.03-0.17-0.05c0.15,0.05-0.04-0.02-0.06-0.03c-0.1-0.05-0.19-0.1-0.27-0.16
			c0.15,0.1-0.02-0.02-0.07-0.07c-0.08-0.07-0.14-0.15-0.21-0.23c0.15,0.16-0.04-0.07-0.08-0.14c-0.07-0.11-0.13-0.23-0.18-0.35
			c-0.02-0.04-0.04-0.08-0.05-0.12c0.09,0.2,0-0.01-0.01-0.04c-0.08-0.24-0.15-0.48-0.2-0.73c-0.05-0.25-0.09-0.51-0.12-0.76
			c0,0.03,0.02,0.16,0,0.01c-0.01-0.07-0.01-0.14-0.02-0.21c-0.01-0.14-0.02-0.27-0.03-0.41c-0.03-0.44-0.36-0.85-0.84-0.83
			C11.81,27.18,11.34,27.53,11.37,28L11.37,28z"/>
	</g>
</g>
<g>
	<g>
		<path class="st0" d="M16.77,24.57c0.21,1.18,0.38,2.37,0.48,3.57c0.11,1.21,0.12,2.42,0.18,3.63c0.02,0.42,0.33,0.77,0.77,0.76
			c0.38,0,0.84-0.36,0.8-0.78c-0.09-1.03,0.03-2.19,0.79-2.96c0.61-0.62,1.6-0.9,2.33-0.31c0.68,0.56,0.58,1.37-0.08,1.89
			c-0.89,0.71-2.11,0.41-3.11,0.85c-0.39,0.17-0.41,0.85-0.01,1.02c1.08,0.48,2.68,0.22,3.67-0.38c0.99-0.61,1.69-1.7,1.48-2.89
			c-0.19-1.05-1.15-1.91-2.18-2.08c-1.12-0.19-2.28,0.31-3.04,1.13c-0.95,1.02-1.3,2.38-1.41,3.74c0.52,0,1.05-0.01,1.57-0.01
			c0.01-1.27-0.14-2.56-0.29-3.82c-0.15-1.25-0.35-2.49-0.6-3.73C17.94,23.33,16.62,23.72,16.77,24.57L16.77,24.57z"/>
	</g>
</g>
<g>
	<g>
		<path class="st0" d="M28.53,28.22c-0.47-0.87-1.71-0.99-2.49-0.47c-0.96,0.64-1.16,1.97-0.77,3c0.44,1.16,1.58,1.99,2.82,1.41
			c0.97-0.46,1.35-1.55,1.7-2.48c-0.51,0.01-1.01,0.01-1.52,0.02c0.49,1.77,2.7,3.31,4.53,2.67c0.28-0.1,0.5-0.32,0.5-0.63
			c0.01-0.27-0.2-0.58-0.48-0.62c-0.68-0.11-1.34-0.25-1.9-0.58c-0.57-0.34-0.9-0.82-1.2-1.44c-0.29-0.59-1.32-0.43-1.44,0.21
			c-0.11,0.56-0.34,1.08-0.72,1.43c-0.09,0.08-0.18,0.14-0.34,0.11c-0.23-0.05-0.39-0.25-0.52-0.47c-0.26-0.45-0.39-1.17-0.06-1.63
			c0.23-0.31,0.8-0.38,1.02-0.02C27.98,29.26,28.83,28.77,28.53,28.22L28.53,28.22z"/>
	</g>
</g>
<g>
	<g>
		<path class="st0" d="M33.08,25.2c0.33,2.26,0.43,4.55,0.33,6.83c-0.04,0.94,1.41,1.08,1.62,0.19c0.28-1.15,0.41-2.39,1.15-3.37
			c0.53-0.69,1.58-1.28,2.45-0.91c0.38,0.16,0.62,0.45,0.41,0.8c-0.22,0.39-0.62,0.69-0.98,0.9c-0.41,0.24-0.87,0.4-1.33,0.45
			c-0.56,0.07-1.13-0.03-1.69,0.08c-0.46,0.09-0.65,0.74-0.3,1.06c0.9,0.81,2.44,0.52,3.45,0.09c1.04-0.44,2.26-1.36,2.47-2.54
			c0.25-1.4-1.14-2.34-2.39-2.37c-1.17-0.03-2.33,0.63-3.07,1.5c-0.93,1.09-1.46,2.52-1.77,3.91c0.54,0.06,1.08,0.13,1.62,0.19
			c0.08-2.42-0.07-4.84-0.44-7.23c-0.07-0.42-0.58-0.65-0.96-0.55C33.21,24.36,33.01,24.77,33.08,25.2L33.08,25.2z"/>
	</g>
</g>
<g>
	<g>
		<path class="st0" d="M42.21,28.81c0,0.56,0,1.11,0,1.67c0,0.27-0.02,0.55,0.01,0.82c0.01,0.14,0.03,0.27,0.05,0.41
			c0.03,0.24,0.11,0.43,0.2,0.65c0.1,0.24,0.44,0.35,0.67,0.32c0.29-0.04,0.48-0.23,0.58-0.5c0.08-0.19,0.12-0.34,0.15-0.55
			c0.02-0.13,0.03-0.25,0.04-0.38c0.02-0.27,0.01-0.55,0.01-0.82c0-0.54,0-1.09,0-1.63c0-0.44-0.38-0.85-0.84-0.83
			C42.63,27.98,42.21,28.33,42.21,28.81L42.21,28.81z"/>
	</g>
</g>
<g>
	<g>
		<path class="st0" d="M42.56,25.14c0,0.05,0,0.1-0.01,0.15c0.01-0.05,0.01-0.1,0.02-0.14c-0.01,0.08-0.03,0.15-0.06,0.22
			c0.02-0.05,0.04-0.09,0.06-0.14c-0.03,0.08-0.08,0.15-0.13,0.21c0.03-0.04,0.06-0.08,0.09-0.12c-0.06,0.07-0.12,0.14-0.19,0.19
			c0.04-0.03,0.08-0.06,0.12-0.09c-0.08,0.06-0.16,0.11-0.25,0.15c0.05-0.02,0.1-0.04,0.14-0.06c-0.08,0.03-0.16,0.05-0.24,0.07
			c0.05-0.01,0.1-0.01,0.15-0.02c-0.08,0.01-0.15,0.01-0.23,0c0.05,0.01,0.1,0.01,0.15,0.02c-0.07-0.01-0.14-0.03-0.2-0.05
			c0.05,0.02,0.09,0.04,0.14,0.05c-0.07-0.03-0.13-0.06-0.18-0.1c0.04,0.03,0.08,0.06,0.12,0.09c-0.07-0.05-0.12-0.11-0.17-0.17
			c0.03,0.04,0.06,0.08,0.09,0.12c-0.05-0.07-0.09-0.14-0.13-0.21c0.02,0.05,0.04,0.09,0.06,0.14c-0.04-0.1-0.06-0.19-0.08-0.3
			c0.01,0.05,0.01,0.1,0.02,0.15c-0.01-0.1-0.01-0.19,0.01-0.29c-0.01,0.05-0.02,0.1-0.02,0.15c0.01-0.08,0.04-0.16,0.07-0.24
			c-0.02,0.05-0.04,0.09-0.06,0.14c0.03-0.06,0.06-0.12,0.1-0.18c-0.03,0.04-0.06,0.08-0.1,0.13c0.04-0.06,0.09-0.1,0.15-0.15
			c-0.04,0.03-0.09,0.07-0.13,0.1c0.07-0.05,0.14-0.09,0.21-0.12c-0.05,0.02-0.1,0.04-0.16,0.06c0.08-0.03,0.15-0.05,0.24-0.06
			c-0.05,0.01-0.11,0.01-0.16,0.02c0.09-0.01,0.18-0.01,0.27,0c-0.05-0.01-0.1-0.01-0.16-0.02c0.1,0.01,0.19,0.03,0.28,0.07
			c-0.05-0.02-0.1-0.04-0.14-0.06c0.09,0.04,0.17,0.08,0.25,0.14c-0.04-0.03-0.08-0.06-0.13-0.09c0.07,0.05,0.12,0.11,0.17,0.17
			c-0.03-0.04-0.07-0.08-0.1-0.13c0.05,0.06,0.08,0.13,0.11,0.2c0.18-0.3,0.36-0.6,0.54-0.9c-0.44-0.02-0.84,0.24-1.08,0.6
			c-0.23,0.33-0.24,0.8-0.04,1.15c0.12,0.22,0.4,0.29,0.62,0.2c0.22-0.09,0.37-0.34,0.31-0.58c-0.01-0.03-0.01-0.05-0.02-0.08
			c0,0.04,0.01,0.09,0.01,0.13c0-0.05,0-0.09,0-0.14c-0.01,0.04-0.01,0.09-0.02,0.13c0.01-0.05,0.02-0.11,0.04-0.16
			c-0.02,0.04-0.04,0.09-0.06,0.13c0.03-0.08,0.08-0.15,0.13-0.21c-0.03,0.04-0.06,0.08-0.09,0.12c0.04-0.05,0.08-0.09,0.13-0.13
			c-0.04,0.03-0.08,0.06-0.13,0.1c0.05-0.04,0.1-0.07,0.16-0.09c-0.05,0.02-0.1,0.04-0.15,0.06c0.05-0.02,0.1-0.03,0.16-0.04
			c-0.05,0.01-0.1,0.01-0.15,0.02c0.04,0,0.08,0,0.12,0c-0.05-0.01-0.1-0.01-0.15-0.02c0.01,0,0.01,0,0.02,0
			c0.1,0.03,0.21,0.02,0.31,0c0.11-0.03,0.2-0.08,0.28-0.16c0.14-0.14,0.23-0.38,0.16-0.57c-0.11-0.33-0.31-0.57-0.6-0.77
			c-0.24-0.16-0.52-0.23-0.81-0.26c-0.57-0.06-1.18,0.24-1.44,0.77c-0.25,0.51-0.22,1.12,0.09,1.61c0.15,0.23,0.35,0.44,0.6,0.55
			c0.32,0.14,0.65,0.17,0.99,0.08c0.66-0.18,1.23-0.81,1.21-1.51c-0.01-0.3-0.25-0.58-0.57-0.56
			C42.85,24.58,42.55,24.82,42.56,25.14L42.56,25.14z"/>
	</g>
</g>
<g>
	<g>
		<path class="st0" d="M45.43,25.4c0.07,1.11,0.13,2.22,0.21,3.33c0.07,1.08,0.13,2.33,0.66,3.29c0.2,0.36,0.68,0.21,0.81-0.12
			c0.38-0.99,0.29-2.21,0.23-3.26c-0.06-1.09-0.14-2.18-0.21-3.27c-0.03-0.46-0.36-0.83-0.84-0.83
			C45.87,24.56,45.4,24.94,45.43,25.4L45.43,25.4z"/>
	</g>
</g>
<g>
	<g>
		<path class="st0" d="M49.11,30.01c0.05,0.27,0.1,0.54,0.15,0.81c0.06,0.31,0.18,0.61,0.33,0.88c0.11,0.2,0.35,0.3,0.57,0.27
			c0.22-0.03,0.44-0.2,0.5-0.42c0.08-0.3,0.12-0.62,0.09-0.93c-0.02-0.27-0.04-0.54-0.06-0.82c0-0.14-0.03-0.27-0.1-0.39
			c-0.04-0.05-0.09-0.11-0.13-0.16c-0.17-0.18-0.42-0.24-0.66-0.2c-0.22,0.03-0.4,0.13-0.54,0.31
			C49.11,29.54,49.07,29.76,49.11,30.01L49.11,30.01z"/>
	</g>
</g>
<g>
	<g>
		<path class="st0" d="M49.47,26.92c0.17,0,0.18-0.26,0.01-0.26C49.31,26.67,49.3,26.92,49.47,26.92L49.47,26.92z"/>
	</g>
</g>
<g>
	<g>
		<path class="st0" d="M49.22,26.17c0.17,0.23,0.33,0.46,0.51,0.68c0.07,0.07,0.14,0.11,0.23,0.14c0.08,0.04,0.17,0.06,0.26,0.05
			c0.19-0.01,0.38-0.08,0.51-0.22c0.06-0.06,0.1-0.12,0.15-0.19c0.01-0.02,0.02-0.04,0.03-0.06c0.08-0.16,0.11-0.26,0.12-0.44
			c0.02-0.2-0.05-0.4-0.14-0.58c-0.04-0.09-0.11-0.17-0.17-0.24c-0.03-0.03-0.06-0.07-0.09-0.1c-0.07-0.06-0.15-0.13-0.24-0.16
			c-0.09-0.04-0.18-0.07-0.27-0.09c-0.07-0.02-0.15-0.02-0.22-0.03c-0.02,0-0.04,0-0.06,0c-0.17,0.02-0.29,0.05-0.45,0.12
			c-0.09,0.04-0.17,0.11-0.24,0.18c-0.05,0.05-0.1,0.12-0.14,0.18c-0.01,0.02-0.02,0.03-0.03,0.05c-0.04,0.08-0.09,0.17-0.1,0.27
			c-0.03,0.17-0.05,0.29-0.01,0.46c0.02,0.09,0.07,0.19,0.1,0.28c0.02,0.04,0.04,0.07,0.06,0.11c0.06,0.08,0.12,0.17,0.2,0.24
			c0.06,0.05,0.12,0.1,0.18,0.14c0.02,0.01,0.04,0.02,0.06,0.03c0.13,0.06,0.23,0.09,0.37,0.1c0.05,0,0.15-0.01,0.22-0.03
			c0.16-0.05,0.25-0.11,0.38-0.21c0.07-0.07,0.12-0.16,0.15-0.25c0.03-0.1,0.03-0.19,0.01-0.29c-0.03-0.1-0.08-0.19-0.15-0.26
			c-0.07-0.07-0.16-0.12-0.25-0.14c-0.01,0-0.02-0.01-0.03-0.01c0.05,0.02,0.09,0.04,0.14,0.05c-0.02-0.01-0.04-0.02-0.06-0.03
			c0.04,0.03,0.09,0.06,0.13,0.1c-0.04-0.03-0.07-0.06-0.11-0.09c-0.04-0.03-0.08-0.06-0.12-0.09c0.05,0.03,0.09,0.07,0.14,0.1
			c-0.03-0.02-0.06-0.05-0.08-0.08c0.04,0.05,0.07,0.09,0.11,0.14c-0.03-0.04-0.05-0.08-0.07-0.13c0.02,0.06,0.05,0.11,0.07,0.17
			c-0.02-0.05-0.03-0.1-0.04-0.15c0.01,0.06,0.01,0.12,0.02,0.18c-0.01-0.09-0.02-0.18-0.03-0.27c0.01,0.06,0.01,0.12,0.02,0.18
			c0-0.04,0-0.08,0-0.11c-0.01,0.06-0.02,0.12-0.03,0.18c0-0.03,0.01-0.06,0.03-0.09c-0.02,0.05-0.05,0.11-0.07,0.16
			c0.01-0.02,0.02-0.05,0.04-0.07c-0.04,0.05-0.07,0.09-0.11,0.14c0.02-0.02,0.04-0.04,0.06-0.06c-0.05,0.04-0.1,0.07-0.15,0.11
			c0.02-0.02,0.05-0.03,0.07-0.04c-0.06,0.02-0.11,0.05-0.17,0.07c0.03-0.01,0.05-0.02,0.08-0.02c-0.06,0.01-0.11,0.02-0.17,0.02
			c0.02,0,0.05,0,0.07,0c-0.06-0.01-0.11-0.01-0.17-0.02c0.02,0,0.03,0.01,0.05,0.01c-0.05-0.02-0.1-0.04-0.16-0.06
			c0.03,0.01,0.06,0.03,0.09,0.05c-0.05-0.03-0.09-0.07-0.14-0.1c0.04,0.03,0.07,0.06,0.1,0.1c-0.04-0.05-0.07-0.09-0.11-0.14
			c0.03,0.04,0.06,0.09,0.08,0.14c-0.02-0.06-0.04-0.11-0.07-0.17c0.02,0.05,0.03,0.09,0.04,0.14c-0.01-0.06-0.01-0.12-0.02-0.17
			c0,0.04,0,0.07,0,0.11c0.01-0.06,0.02-0.12,0.03-0.17c0,0.03-0.01,0.06-0.02,0.08c0.02-0.05,0.05-0.11,0.07-0.16
			c-0.01,0.02-0.02,0.04-0.04,0.06c0.04-0.05,0.08-0.1,0.11-0.15c-0.02,0.02-0.04,0.04-0.06,0.06c0.37,0.04,0.75,0.08,1.12,0.13
			c-0.12-0.18-0.26-0.36-0.38-0.54c-0.05-0.09-0.11-0.15-0.19-0.2c-0.07-0.06-0.15-0.1-0.24-0.12c-0.09-0.03-0.18-0.03-0.27-0.01
			c-0.1,0.01-0.19,0.03-0.27,0.09c-0.16,0.1-0.3,0.25-0.34,0.43c-0.01,0.06-0.02,0.12-0.03,0.18
			C49.13,25.94,49.16,26.06,49.22,26.17L49.22,26.17z"/>
	</g>
</g>
<g>
	<g>
		<path class="st0" d="M53.42,26c0.04,0.95,0.07,1.91,0.11,2.86c0.02,0.46,0.04,0.92,0.09,1.38c0.04,0.48,0.04,1.23,0.46,1.55
			c0.24,0.19,0.55,0.21,0.78-0.02c0.39-0.37,0.37-1.05,0.38-1.55c0.01-0.46,0-0.92-0.02-1.38c-0.03-0.95-0.07-1.91-0.1-2.86
			c-0.02-0.44-0.37-0.85-0.84-0.83C53.86,25.18,53.41,25.53,53.42,26L53.42,26z"/>
	</g>
</g>
<g>
	<g>
		<path class="st0" d="M53.46,28.76c0.63-0.04,1.25-0.08,1.87-0.13c0.35-0.03,0.69-0.07,1.03-0.12c0.35-0.05,0.65-0.13,0.98-0.27
			c0.19-0.08,0.29-0.34,0.27-0.53c-0.03-0.22-0.17-0.37-0.38-0.44c-0.6-0.19-1.28-0.15-1.9-0.13c-0.61,0.01-1.23,0.05-1.84,0.08
			c-0.4,0.02-0.81,0.34-0.8,0.77C52.71,28.41,53.03,28.79,53.46,28.76L53.46,28.76z"/>
	</g>
</g>
<g>
	<g>
		<path class="st0" d="M58.78,27.99c0.34,1.19,0.82,2.36,1.46,3.43c0.19,0.32,0.54,0.76,0.95,0.76c0.25,0,0.47-0.15,0.56-0.38
			c0.09-0.2,0.05-0.43-0.02-0.64c-0.22-0.61-0.58-1.17-0.84-1.76c-0.07-0.15-0.13-0.3-0.19-0.45c-0.02-0.04-0.09-0.23-0.04-0.1
			c-0.03-0.09-0.07-0.17-0.1-0.26c-0.12-0.32-0.23-0.65-0.34-0.98c-0.11-0.37-0.51-0.64-0.9-0.51
			C58.96,27.2,58.67,27.59,58.78,27.99L58.78,27.99z"/>
	</g>
</g>
<g>
	<g>
		<path class="st0" d="M63.09,28c-1.52,4.01-2.7,8.5-2.56,12.82c0.03,0.94,1.31,0.85,1.43-0.01c0.3-2.11,0.52-4.23,0.97-6.31
			c0.44-2.07,1.05-4.1,1.8-6.09C65.12,27.38,63.47,27,63.09,28L63.09,28z"/>
	</g>
</g>
<g>
	<g>
		<path class="st0" d="M73.51,27.93c0.17,0,0.18-0.26,0.01-0.26C73.35,27.67,73.34,27.93,73.51,27.93L73.51,27.93z"/>
	</g>
</g>
<g>
	<g>
		<path class="st0" d="M73.68,25.2c-0.05,1.25-0.15,2.5-0.31,3.75c-0.15,1.24-0.41,2.45-0.61,3.68c0.48,0.06,0.96,0.11,1.44,0.17
			c0.09-1.7,0.71-3.36,2.01-4.5c-0.36-0.09-0.73-0.18-1.09-0.27c0.3,0.93,0.61,1.85,0.79,2.81c0.09,0.45,0.16,0.91,0.2,1.37
			c0.04,0.49-0.01,1.1,0.28,1.52c0.27,0.39,0.88,0.43,1.13-0.02c0.28-0.5,0.17-1.08,0.11-1.63c-0.06-0.52-0.15-1.04-0.27-1.55
			c-0.23-1.03-0.55-2.06-1.03-3c-0.18-0.36-0.77-0.42-1.03-0.11c-1.33,1.56-2.31,3.34-2.56,5.4c-0.1,0.83,1.26,0.95,1.44,0.17
			c0.3-1.27,0.44-2.6,0.56-3.89c0.13-1.3,0.2-2.6,0.22-3.9C74.98,24.36,73.72,24.4,73.68,25.2L73.68,25.2z"/>
	</g>
</g>
<g>
	<g>
		<path class="st0" d="M79.74,31.25c1.34,0.4,3.11,0.22,3.9-1.09c0.6-0.99,0.39-2.52-0.67-3.1c-1.47-0.81-2.92,0.59-3.59,1.78
			c-0.74,1.33-1.11,3.09,0.14,4.26c1.08,1.01,2.81,1.16,4.16,0.73c0.7-0.22,0.65-1.3-0.15-1.3c-0.47,0-0.95,0-1.41-0.04
			c-0.05,0-0.1-0.01-0.15-0.01c0.13,0.02-0.03-0.01-0.06-0.01c-0.11-0.02-0.22-0.03-0.33-0.05c-0.11-0.02-0.21-0.05-0.32-0.08
			c-0.06-0.02-0.11-0.04-0.17-0.05c0.12,0.04-0.04-0.02-0.07-0.03c-0.08-0.04-0.16-0.08-0.24-0.13c0,0-0.18-0.12-0.09-0.05
			c0.09,0.06-0.08-0.07-0.08-0.07c-0.07-0.06-0.13-0.12-0.19-0.19c-0.14-0.15,0.05,0.08-0.02-0.03c-0.04-0.06-0.07-0.12-0.11-0.18
			c-0.01-0.02-0.07-0.15-0.04-0.06c-0.02-0.06-0.04-0.12-0.06-0.18c-0.03-0.12-0.04-0.2-0.04-0.32c0-0.28,0.04-0.54,0.12-0.8
			c0.16-0.52,0.41-1.06,0.75-1.49c0.25-0.32,0.6-0.67,0.96-0.73c0.19-0.03,0.35,0.02,0.47,0.1c-0.06-0.04,0.12,0.13,0.1,0.1
			c0.02,0.02,0.11,0.18,0.14,0.25c-0.03-0.07,0.03,0.12,0.04,0.16c0.03,0.12,0.02,0.11,0.03,0.23c0,0.2-0.03,0.33-0.09,0.48
			c-0.08,0.19-0.17,0.3-0.35,0.45c-0.18,0.14-0.39,0.22-0.62,0.27c-0.53,0.13-1.09,0.05-1.62-0.12C79.29,29.7,78.89,31,79.74,31.25
			L79.74,31.25z"/>
	</g>
</g>
<g>
	<g>
		<path class="st0" d="M86.53,31.4c-0.05-0.05-0.09-0.1-0.14-0.14c-0.05-0.06-0.04-0.05,0.02,0.03c-0.02-0.03-0.04-0.05-0.06-0.08
			c-0.04-0.06-0.07-0.11-0.1-0.17c-0.02-0.03-0.03-0.06-0.04-0.09c-0.03-0.07-0.03-0.06,0.01,0.04c-0.07-0.06-0.09-0.3-0.11-0.39
			c-0.01-0.03-0.01-0.07-0.02-0.1c0.01,0.1,0.01,0.12,0,0.04c0-0.07-0.01-0.13-0.01-0.2c0-0.07,0.01-0.13,0.01-0.2
			c0.01-0.08,0.01-0.07-0.01,0.04c0.01-0.03,0.01-0.07,0.02-0.1c0.01-0.07,0.06-0.35,0.12-0.38c-0.05,0.1-0.05,0.12-0.02,0.04
			c0.01-0.03,0.03-0.06,0.05-0.09c0.01-0.02,0.11-0.17,0.11-0.17c-0.08,0.09-0.09,0.11-0.03,0.04c0.02-0.03,0.04-0.05,0.07-0.08
			c0.05-0.05,0.1-0.1,0.16-0.15c0.03-0.02,0.05-0.05,0.08-0.07c-0.1,0.08-0.11,0.09-0.04,0.03c0.06-0.04,0.12-0.08,0.18-0.11
			c0.06-0.04,0.13-0.07,0.19-0.1c0.08-0.04,0.06-0.03-0.05,0.02c0.03-0.01,0.07-0.03,0.1-0.04c0.14-0.05,0.28-0.09,0.42-0.12
			c0.14-0.03,0.3-0.08,0.44-0.08c-0.22,0,0.02,0,0.07-0.01c0.08-0.01,0.15-0.01,0.23-0.02c0.15-0.01,0.31-0.02,0.46-0.03
			c0.34-0.02,0.68-0.06,1.01-0.11c0.26-0.04,0.48-0.35,0.47-0.6c-0.01-0.29-0.18-0.5-0.45-0.59c-1.14-0.36-2.46-0.33-3.54,0.23
			c-1.14,0.59-1.69,1.81-1.52,3.05c0.09,0.62,0.41,1.24,0.89,1.65c0.28,0.24,0.74,0.27,1.01-0.02
			C86.78,32.11,86.82,31.67,86.53,31.4L86.53,31.4z"/>
	</g>
</g>
<g>
	<g>
		<path class="st0" d="M91.62,30.95c1.19,0.78,3.02,0.84,4-0.33c0.77-0.93,0.81-2.53-0.2-3.32c-0.58-0.46-1.4-0.55-2.09-0.31
			c-0.77,0.26-1.35,0.83-1.75,1.53c-0.39,0.67-0.68,1.47-0.68,2.25c0.01,0.86,0.4,1.6,1.12,2.08c0.73,0.5,1.69,0.64,2.55,0.72
			c0.48,0.05,0.96,0.05,1.45,0.02c0.53-0.04,1-0.15,1.5-0.34c0.31-0.12,0.55-0.37,0.5-0.73c-0.04-0.3-0.32-0.6-0.65-0.57
			c-0.37,0.04-0.74,0.06-1.11,0.1c-0.31,0.04-0.62,0.06-0.93,0.06c-0.62,0.01-1.25-0.05-1.85-0.21c-0.24-0.07-0.36-0.1-0.58-0.22
			c-0.21-0.11-0.35-0.24-0.46-0.42c-0.22-0.38-0.17-0.93-0.04-1.39c0.14-0.51,0.36-1.03,0.72-1.42c0.31-0.34,0.8-0.63,1.27-0.49
			c0.69,0.2,0.7,1.12,0.43,1.6c-0.1,0.17-0.18,0.26-0.36,0.38c-0.2,0.12-0.4,0.2-0.7,0.23c-0.45,0.06-1.01-0.06-1.47-0.33
			C91.57,29.42,90.92,30.5,91.62,30.95L91.62,30.95z"/>
	</g>
</g>
<g>
	<g>
		<path class="st0" d="M154.85,6.71c-0.07,1.44-0.07,2.88-0.01,4.32c0.06,1.43,0.1,2.94,0.42,4.34c0.2,0.88,1.62,0.68,1.59-0.22
			c-0.05-1.41-0.26-2.81-0.32-4.22c-0.06-1.41-0.05-2.82,0.02-4.23C156.61,5.6,154.9,5.64,154.85,6.71L154.85,6.71z"/>
	</g>
</g>
<g>
	<g>
		<path class="st0" d="M155.36,6.95c0.74-0.35,1.6-0.57,2.42-0.41c0.34,0.06,0.71,0.2,0.96,0.39c0.29,0.22,0.45,0.43,0.61,0.72
			c0.12,0.23,0.22,0.55,0.21,0.8c0,0.19,0,0.19-0.07,0.41c-0.01,0.02-0.16,0.29-0.19,0.33c-0.04,0.05-0.22,0.23-0.33,0.31
			c0.09-0.07-0.09,0.07-0.13,0.09c-0.09,0.06-0.18,0.11-0.28,0.16c-0.08,0.05-0.17,0.09-0.26,0.13c-0.13,0.06,0.02,0-0.11,0.04
			c-0.2,0.07-0.4,0.13-0.6,0.19c-0.48,0.14-0.97,0.26-1.44,0.44c-0.52,0.2-1.15,0.44-1.39,0.97c-0.16,0.34,0.02,0.72,0.42,0.73
			c0.52,0.02,1.05-0.23,1.56-0.34c0.5-0.11,1-0.21,1.48-0.38c0.94-0.31,1.87-0.82,2.4-1.69c1.1-1.81-0.32-4.03-2.23-4.43
			c-1.21-0.25-2.46,0.07-3.54,0.64c-0.25,0.13-0.34,0.47-0.2,0.71C154.79,7.04,155.11,7.07,155.36,6.95L155.36,6.95z"/>
	</g>
</g>
<g>
	<g>
		<path class="st0" d="M172.23,13.24c0.12,0.98,0.08,1.95-0.12,2.91c0.39,0.05,0.79,0.09,1.18,0.14c-0.04-0.9-0.05-1.81,0.02-2.71
			c0.03-0.43,0.08-0.87,0.16-1.3c0.04-0.24,0.08-0.48,0.14-0.72c0.01-0.03,0.1-0.3,0.11-0.3c-0.05,0.02-0.11,0.03-0.16,0.05
			c-0.02,0.01-0.01,0.02,0.03,0.04c0,0,0.14,0.19,0.13,0.17c0.11,0.17,0.22,0.34,0.32,0.52c0.19,0.34,0.36,0.69,0.5,1.05
			c0.3,0.81,0.46,1.63,0.57,2.48c0.1,0.73,1.22,0.5,1.25-0.17c0.03-0.83,0.29-1.63,0.73-2.33c0.21-0.34,0.46-0.64,0.76-0.91
			c0.12-0.11,0.26-0.25,0.42-0.3c-0.06,0.02-0.04-0.05,0.02,0.05c0.16,0.25,0.16,0.6,0.19,0.88c0.05,0.52,0.11,1.04,0.16,1.56
			c0.11,1.04,0.11,2.16,0.44,3.16c0.24,0.71,1.25,0.56,1.31-0.18c0.05-0.69-0.07-1.34-0.16-2.02c-0.09-0.65-0.18-1.31-0.27-1.96
			c-0.12-0.9-0.15-2.33-1.23-2.66c-1.06-0.32-1.94,0.93-2.47,1.67c-0.64,0.91-1,1.96-1.16,3.06c0.42,0,0.84-0.01,1.27-0.01
			c0.01-1.09-0.29-2.17-0.73-3.16c-0.36-0.79-1.09-2.33-2.19-2.06c-0.49,0.12-0.74,0.52-0.88,0.97c-0.16,0.53-0.24,1.09-0.33,1.63
			c-0.18,1.16-0.25,2.34-0.13,3.51c0.07,0.78,1.11,0.74,1.2-0.01c0.14-1.1,0.1-2.22-0.09-3.31c-0.05-0.27-0.36-0.4-0.6-0.34
			C172.31,12.71,172.2,12.97,172.23,13.24L172.23,13.24z"/>
	</g>
</g>
<g>
	<g>
		<path class="st0" d="M182.79,15.05c1.32,0.37,2.94,0.05,3.6-1.28c0.29-0.59,0.37-1.27,0.09-1.88c-0.24-0.52-0.71-0.92-1.26-1.09
			c-1.42-0.41-2.36,0.93-2.65,2.13c-0.27,1.11-0.19,2.38,0.58,3.27c0.5,0.58,1.31,0.84,2.06,0.76c0.9-0.09,1.63-0.54,2.33-1.09
			c0.47-0.37-0.02-1.22-0.58-1c-0.5,0.19-1.01,0.4-1.53,0.53c-0.22,0.05-0.29,0.07-0.57,0.06c0.12,0.01-0.04-0.01-0.07-0.01
			c-0.06-0.01-0.13-0.03-0.19-0.05c0.02,0.01,0.09,0.04-0.02-0.01c-0.05-0.03-0.1-0.06-0.15-0.08c-0.15-0.08,0.06,0.07-0.01,0
			c-0.03-0.03-0.07-0.06-0.11-0.09c-0.03-0.03-0.05-0.05-0.08-0.08c-0.01-0.01-0.12-0.15-0.05-0.05c0.07,0.1-0.03-0.05-0.04-0.06
			c-0.02-0.03-0.04-0.06-0.06-0.1c-0.02-0.04-0.04-0.08-0.07-0.13c-0.09-0.17,0.01,0.08-0.03-0.06c-0.05-0.17-0.09-0.34-0.13-0.52
			c-0.02-0.13,0-0.03,0,0c-0.01-0.06-0.01-0.12-0.01-0.19c0-0.1,0-0.21,0-0.31c0-0.1,0.02-0.21,0.02-0.31c0-0.02,0.02-0.13,0-0.01
			c0.01-0.05,0.02-0.1,0.03-0.15c0.04-0.21,0.1-0.42,0.18-0.62c0.01-0.02,0.06-0.15,0.03-0.07c0.02-0.04,0.04-0.08,0.06-0.13
			c0.05-0.1,0.11-0.2,0.17-0.29c-0.05,0.07,0.01-0.02,0.02-0.03c0.04-0.04,0.08-0.08,0.12-0.12c0.02-0.02,0.13-0.09,0.05-0.04
			c0,0,0.17-0.09,0.09-0.06c0.16-0.07,0.22-0.06,0.37-0.02c0.14,0.04,0.29,0.14,0.41,0.27c0.2,0.21,0.25,0.58,0.12,0.91
			c-0.07,0.19-0.19,0.34-0.34,0.48c-0.13,0.12-0.32,0.23-0.52,0.3c-0.49,0.16-0.99,0.11-1.5-0.05c-0.34-0.11-0.72,0.14-0.81,0.47
			C182.24,14.61,182.45,14.95,182.79,15.05L182.79,15.05z"/>
	</g>
</g>
<g>
	<g>
		<path class="st0" d="M192.59,11.99c-0.24-0.89-1.25-1.19-2.06-0.91c-1.08,0.38-1.42,1.5-1.33,2.56c0.09,1.07,0.31,2.51,1.65,2.59
			c0.56,0.03,1.12-0.25,1.47-0.67c0.39-0.47,0.53-1.04,0.65-1.62c-0.5,0.01-1.01,0.01-1.51,0.02c0.46,1.97,2.67,3.4,4.63,2.69
			c0.29-0.11,0.51-0.35,0.47-0.68c-0.04-0.29-0.29-0.55-0.61-0.53c-0.43,0.03-0.61,0.01-1-0.1c-0.08-0.02-0.15-0.04-0.23-0.07
			c0.1,0.03-0.16-0.06-0.19-0.08c-0.16-0.07-0.32-0.15-0.46-0.24c-0.08-0.05-0.16-0.1-0.23-0.16c0.11,0.08-0.09-0.07-0.09-0.07
			c-0.14-0.12-0.28-0.25-0.39-0.4c0.09,0.11-0.05-0.07-0.06-0.09c-0.06-0.09-0.11-0.18-0.16-0.27c-0.04-0.07-0.07-0.14-0.11-0.21
			c0.05,0.11-0.05-0.16-0.06-0.19c-0.1-0.33-0.39-0.57-0.74-0.56c-0.32,0-0.71,0.24-0.77,0.58c-0.05,0.3-0.09,0.64-0.24,0.9
			c-0.01,0.02-0.11,0.18-0.06,0.1c-0.09,0.15,0.05-0.03-0.09,0.08c-0.02,0.01-0.05,0.03-0.07,0.04c0.06-0.02,0.06-0.02,0.01-0.01
			c-0.04,0.01-0.18,0.03-0.07,0.02c0.1-0.01-0.05-0.02-0.01,0c0.08,0.05,0.01,0.02-0.01-0.03c0.05,0.11-0.05-0.11-0.05-0.11
			c0.04,0.09-0.02-0.06-0.03-0.09c-0.09-0.3-0.15-0.62-0.19-0.93c-0.03-0.25-0.05-0.51,0.01-0.76c0.01-0.05,0.03-0.13,0.05-0.18
			c0.01-0.02,0.13-0.22,0.07-0.14c-0.05,0.07,0.06-0.06,0.07-0.07c0.1-0.13-0.05,0.02,0.02-0.03c0.04-0.03,0.09-0.06,0.14-0.08
			c-0.13,0.06,0.06-0.01,0.07-0.01c0.11-0.03-0.02-0.01,0.05-0.01c0.05,0,0.1-0.01,0.15,0c-0.11-0.01,0.05,0.01,0.07,0.02
			c-0.06-0.03-0.03-0.02,0.01,0.01c0.16,0.09-0.11-0.05,0.05,0.04c-0.08-0.04,0.01,0.04-0.02-0.03
			C191.65,13.05,192.79,12.75,192.59,11.99L192.59,11.99z"/>
	</g>
</g>
<g>
	<g>
		<path class="st0" d="M198.41,9.98c-0.55,0.48-0.86,1.24-0.82,1.97c0.04,0.81,0.43,1.43,1.05,1.93c0.13,0.1,0.27,0.21,0.38,0.34
			c-0.08-0.1,0.04,0.08,0.05,0.1c-0.05-0.13,0,0.12-0.01-0.03c0,0.02-0.02,0.22,0,0.09c0,0.02-0.07,0.21-0.02,0.1
			c-0.03,0.07-0.07,0.13-0.11,0.19c0.07-0.11-0.07,0.08-0.09,0.1c-0.03,0.03-0.05,0.05-0.08,0.08c0.06-0.04,0.06-0.05,0.02-0.02
			c-0.08,0.05-0.17,0.1-0.26,0.14c0.11-0.04-0.16,0.04-0.14,0.04c-0.09,0.03-0.18,0.05-0.27,0.07c-0.41,0.08-0.83,0.15-1.18,0.38
			c-0.34,0.22-0.38,0.72-0.01,0.93c0.78,0.46,1.94,0.24,2.65-0.26c0.7-0.49,1.18-1.36,0.96-2.22c-0.11-0.43-0.37-0.76-0.68-1.06
			c-0.11-0.11-0.23-0.22-0.34-0.33c-0.06-0.07-0.07-0.08-0.02-0.01c-0.03-0.04-0.05-0.08-0.08-0.12c-0.02-0.04-0.1-0.22-0.04-0.06
			c-0.02-0.07-0.04-0.13-0.06-0.2c-0.01-0.05-0.02-0.09-0.03-0.14c0.01,0.09,0.01,0.09,0,0c0-0.07,0-0.14,0-0.21
			c0-0.2-0.04,0.12,0.01-0.07c0.02-0.07,0.06-0.17,0.07-0.24c0.02-0.06,0.01-0.04-0.02,0.04c0.02-0.04,0.04-0.08,0.06-0.13
			c0.02-0.03,0.15-0.2,0.02-0.06c0.06-0.07,0.13-0.14,0.2-0.2c0.33-0.29,0.34-0.89,0.01-1.19C199.25,9.63,198.76,9.67,198.41,9.98
			L198.41,9.98z"/>
	</g>
</g>
<g>
	<g>
		<path class="st0" d="M201.82,13.12c0.27,0.69,0.55,1.34,1.02,1.92c0.44,0.53,1.06,0.88,1.74,0.96c0.69,0.08,1.45-0.11,1.91-0.67
			c0.54-0.65,0.58-1.5,0.39-2.29c-0.19-0.81-0.6-1.63-1.26-2.15c-0.18-0.14-0.44-0.21-0.65-0.07c-0.2,0.13-0.32,0.36-0.26,0.6
			c0.13,0.55,0.33,1.07,0.47,1.62c0.04,0.14,0.07,0.27,0.1,0.41c0.01,0.05,0.02,0.11,0.03,0.16c0.01,0.04,0.01,0.07,0.02,0.11
			c0.02,0.11-0.01-0.15-0.01-0.05c0,0.12,0.01,0.24,0,0.35c0,0.07-0.04,0.08,0.01-0.05c-0.01,0.02-0.01,0.05-0.02,0.08
			c-0.01,0.03-0.01,0.05-0.02,0.08c-0.01,0.03-0.07,0.17-0.01,0.05c0.05-0.12-0.02,0.04-0.04,0.06c-0.02,0.03-0.09,0.13-0.01,0.02
			c0.08-0.1,0.03-0.03,0.01-0.01c-0.03,0.03-0.08,0.06-0.1,0.09c0.1-0.14,0.15-0.1,0.07-0.06c-0.03,0.01-0.05,0.03-0.08,0.04
			c-0.12,0.08,0.2-0.06,0.03-0.01c-0.05,0.01-0.1,0.03-0.15,0.04c-0.14,0.04,0.18-0.01,0.04-0.01c-0.06,0-0.12,0.01-0.19,0
			c-0.02,0-0.05,0-0.07,0c-0.09,0,0.1,0.01,0.1,0.01c-0.05-0.02-0.11-0.02-0.16-0.03c-0.04-0.01-0.12-0.05-0.16-0.05
			c0,0,0.17,0.07,0.09,0.04c-0.04-0.02-0.07-0.03-0.11-0.05c-0.04-0.02-0.08-0.04-0.12-0.07c-0.02-0.01-0.04-0.03-0.06-0.04
			c-0.09-0.05,0.14,0.12,0.06,0.04c-0.1-0.09-0.19-0.17-0.28-0.27c-0.02-0.02-0.04-0.04-0.05-0.06c-0.12-0.14,0.08,0.11,0.02,0.02
			c-0.04-0.06-0.09-0.12-0.12-0.18c-0.07-0.12-0.14-0.24-0.21-0.36c-0.07-0.13-0.13-0.27-0.19-0.41c-0.03-0.06-0.05-0.12-0.08-0.18
			c-0.04-0.11,0.06,0.16,0.02,0.05c-0.02-0.04-0.03-0.09-0.05-0.13c-0.09-0.22-0.18-0.39-0.4-0.51c-0.18-0.1-0.44-0.14-0.64-0.07
			C202.06,12.21,201.64,12.68,201.82,13.12L201.82,13.12z"/>
	</g>
</g>
<g>
	<g>
		<path class="st0" d="M209.89,15.01c-0.03-0.03-0.05-0.05-0.07-0.08c-0.06-0.07-0.05-0.06,0.04,0.05c0.01-0.02-0.08-0.12-0.09-0.13
			c-0.03-0.05-0.06-0.09-0.08-0.14c-0.02-0.03-0.03-0.06-0.05-0.1c-0.03-0.07-0.03-0.07,0,0c0.03,0.07,0.03,0.07,0,0
			c-0.01-0.03-0.02-0.07-0.03-0.1c-0.02-0.05-0.03-0.1-0.04-0.16c-0.01-0.05-0.02-0.11-0.03-0.16c-0.01-0.04-0.01-0.07-0.02-0.11
			c0.01,0.12,0.02,0.14,0.01,0.05c0-0.11-0.01-0.22,0-0.33c0-0.04,0.01-0.07,0.01-0.11c0.01-0.07,0.01-0.07,0,0
			c-0.01,0.07-0.01,0.07,0,0c0.01-0.04,0.02-0.07,0.02-0.11c0.01-0.05,0.03-0.1,0.05-0.16c0.07-0.2,0,0-0.01,0
			c-0.02-0.01,0.16-0.3,0.18-0.33c0.09-0.15-0.13,0.14-0.01,0.01c0.04-0.05,0.08-0.09,0.12-0.13c0.04-0.04,0.09-0.08,0.13-0.12
			c0.13-0.13-0.17,0.11-0.02,0.01c0.1-0.07,0.2-0.13,0.31-0.19c0.06-0.03,0.22-0.09-0.02,0c0.08-0.03,0.22-0.08,0.31-0.13
			c-0.21,0.12-0.06,0.02,0.01,0c0.06-0.02,0.12-0.04,0.18-0.05c0.05-0.01,0.1-0.02,0.15-0.03c0.16-0.04-0.15,0.01,0.01,0
			c0.12-0.01,0.24-0.02,0.37-0.02c0.05,0,0.1,0,0.15,0c0.07,0.01,0.07,0-0.02-0.01c0.03,0,0.07,0.01,0.1,0.02
			c0.33,0.06,0.64-0.08,0.78-0.39c0.12-0.29,0.02-0.65-0.27-0.8c-0.63-0.34-1.33-0.39-2.02-0.23c-0.7,0.17-1.31,0.67-1.72,1.25
			c-0.84,1.19-0.62,2.9,0.35,3.94c0.3,0.33,0.91,0.3,1.21-0.03C210.2,15.85,210.21,15.36,209.89,15.01L209.89,15.01z"/>
	</g>
</g>
<g>
	<g>
		<path class="st0" d="M213.65,14.64c0.88,0.82,2.47,0.95,3.29-0.03c0.7-0.83,0.6-2.16-0.2-2.89c-0.54-0.49-1.37-0.61-1.88-0.02
			c-0.4,0.45-0.6,1.05-0.61,1.65c-0.01,1.18,0.68,2.36,1.78,2.83c1.4,0.59,3.07,0.14,3.94-1.1c0.33-0.46-0.33-1.12-0.79-0.77
			c-0.3,0.22-0.71,0.45-0.96,0.53c-0.19,0.06-0.39,0.11-0.59,0.14c0.09-0.01-0.15,0.01-0.19,0.01c-0.11,0-0.23,0-0.34-0.01
			c-0.12-0.01,0.09,0.01-0.04,0c-0.04-0.01-0.07-0.01-0.11-0.02c-0.1-0.02-0.2-0.04-0.29-0.07c-0.07-0.02-0.33-0.15-0.41-0.21
			c-0.05-0.04-0.28-0.26-0.33-0.31c-0.06-0.08-0.21-0.32-0.27-0.47c0.03,0.07-0.04-0.11-0.04-0.14c-0.03-0.09-0.05-0.18-0.06-0.27
			c-0.02-0.12-0.03-0.31-0.01-0.49c-0.01,0.05,0.03-0.16,0.04-0.18c0.02-0.06,0.05-0.16,0.06-0.19c0.02-0.04,0.08-0.15,0.12-0.21
			c0.01-0.01,0.05-0.05,0.06-0.07c0.05-0.07-0.05-0.01,0-0.01c0.67-0.01,0.72,0.94,0.47,1.36c-0.35,0.6-1.32,0.62-1.85,0.14
			C213.94,13.37,213.13,14.15,213.65,14.64L213.65,14.64z"/>
	</g>
</g>
<g>
	<g>
		<path class="st0" d="M224.58,9.69c-1.06-0.26-1.98,0.63-2.06,1.65c-0.08,0.99,0.7,1.68,1.36,2.29c0.23,0.21,0.52,0.48,0.55,0.8
			c0.02,0.26-0.13,0.44-0.34,0.62c0.09-0.07-0.1,0.07-0.1,0.07c-0.07,0.04-0.14,0.08-0.22,0.11c-0.12,0.05-0.34,0.11-0.54,0.14
			c-0.45,0.08-0.92,0.08-1.36,0.2c-0.24,0.06-0.43,0.29-0.43,0.55c-0.01,0.27,0.18,0.45,0.42,0.54c1.6,0.62,4.11-0.32,3.93-2.33
			c-0.04-0.44-0.22-0.86-0.47-1.23c-0.21-0.31-0.54-0.67-0.73-0.92c-0.12-0.16-0.25-0.35-0.32-0.54c0.04,0.12-0.03-0.14-0.02-0.13
			c-0.02-0.1-0.02-0.12-0.01-0.03c0-0.02,0-0.05,0-0.07c-0.04,0.21,0.1-0.22,0-0.02c0.02-0.05,0.08-0.23,0.03-0.07
			c0.06-0.06,0.07-0.07,0.02-0.03c-0.05,0.04-0.05,0.04,0.03-0.01c-0.05,0.03-0.11,0.05-0.17,0.04c-0.1-0.02-0.1-0.02-0.01,0
			c0.44,0.11,0.93-0.17,1.05-0.61C225.29,10.27,225.03,9.79,224.58,9.69L224.58,9.69z"/>
	</g>
</g>
<g>
	<g>
		<path class="st0" d="M141.67,31.05c0.1,1.7,0.21,3.41,0.31,5.11c0.05,0.84,0.1,1.67,0.15,2.51c0.05,0.81,0.02,1.82,0.32,2.58
			c0.23,0.6,1.16,0.7,1.34-0.01c0.21-0.81,0.08-1.75,0.04-2.58c-0.05-0.84-0.1-1.67-0.15-2.51c-0.1-1.7-0.21-3.41-0.31-5.11
			C143.31,29.95,141.6,29.99,141.67,31.05L141.67,31.05z"/>
	</g>
</g>
<g>
	<g>
		<path class="st0" d="M142.98,30.36c0.16-0.15,0.2-0.2,0.33-0.28c0.08-0.05,0.16-0.1,0.24-0.14c0.03-0.02,0.07-0.04,0.11-0.05
			c-0.09,0.04,0.04-0.01,0.07-0.02c0.08-0.03,0.17-0.05,0.26-0.06c-0.1,0.01,0.09,0,0.11,0.01c0.17,0,0.07,0.01,0.04,0
			c0.04,0.01,0.09,0.02,0.13,0.03c0.02,0,0.1,0.04,0.01,0c-0.1-0.04,0.05,0.03,0.06,0.03c0.07,0.04,0.11,0.08,0.02,0
			c0.05,0.04,0.09,0.08,0.14,0.12c0.07,0.07,0.09,0.14,0.03,0.02c0.03,0.06,0.08,0.12,0.11,0.18c0.02,0.04,0.08,0.2,0.05,0.1
			c-0.03-0.1,0.02,0.08,0.03,0.11c0.02,0.06,0.03,0.13,0.04,0.19c0.01,0.03,0.01,0.06,0.01,0.08c-0.02-0.09-0.01-0.09,0,0
			c0,0.12,0,0.25-0.01,0.37c-0.01,0.14,0,0,0.01-0.03c-0.01,0.03-0.01,0.06-0.02,0.08c-0.02,0.07-0.03,0.15-0.06,0.22
			c-0.02,0.06-0.04,0.13-0.07,0.19c0.06-0.18,0,0-0.03,0.04c-0.03,0.06-0.07,0.12-0.11,0.18c-0.01,0.02-0.09,0.12,0,0.01
			c-0.03,0.04-0.06,0.07-0.09,0.11c-0.11,0.13-0.23,0.24-0.36,0.35c-0.01,0.01-0.1,0.08-0.03,0.02c0.08-0.06-0.04,0.03-0.06,0.04
			c-0.08,0.06-0.16,0.11-0.24,0.16c-0.29,0.18-0.6,0.34-0.92,0.48c-0.37,0.16-0.85,0.32-1.06,0.68c-0.15,0.26-0.11,0.6,0.1,0.8
			c0.23,0.23,0.61,0.22,0.9,0.14c0.71-0.19,1.43-0.52,2.02-0.95c0.64-0.46,1.17-1.03,1.44-1.78c0.21-0.59,0.21-1.31,0-1.9
			c-0.25-0.73-0.78-1.33-1.55-1.52c-1.01-0.25-2,0.26-2.7,0.95c-0.28,0.27-0.29,0.74-0.01,1.02
			C142.23,30.66,142.7,30.63,142.98,30.36L142.98,30.36z"/>
	</g>
</g>
<g>
	<g>
		<path class="st0" d="M148.87,33.69c-0.12-0.6-0.44-1.24-0.64-1.73c-0.11-0.27-0.2-0.55-0.23-0.84c0.01,0.12,0-0.08,0-0.08
			c0-0.06,0-0.13,0-0.19c0-0.06,0.01-0.12,0.01-0.19c-0.02,0.14,0.02-0.07,0.03-0.1c0.01-0.02,0.07-0.2,0.03-0.11
			c-0.03,0.08,0.06-0.11,0.07-0.13c0.07-0.12-0.08,0.06,0.03-0.04c0.03-0.03,0.17-0.14,0.02-0.04c0.05-0.03,0.1-0.06,0.15-0.09
			c0.15-0.09-0.13,0.03,0.03-0.01c0.06-0.02,0.11-0.04,0.17-0.05c0.02-0.01,0.24-0.04,0.14-0.03c-0.11,0.01,0.09,0,0.12-0.01
			c0.07,0,0.15,0,0.22,0c0.13,0,0.25,0.01,0.38,0.02c-0.15-0.01,0.06,0.01,0.07,0.01c0.1,0.01,0.2,0.03,0.31,0.04
			c0.14,0.01,0.29,0.02,0.43,0.03c0.6,0.06,0.85-0.86,0.32-1.13c-0.61-0.31-1.29-0.52-1.98-0.44c-0.85,0.09-1.53,0.6-1.82,1.41
			c-0.22,0.63-0.13,1.38,0.1,1.99c0.28,0.72,0.64,1.29,0.78,2.04c0.06,0.33,0.47,0.54,0.78,0.44
			C148.74,34.35,148.94,34.04,148.87,33.69L148.87,33.69z"/>
	</g>
</g>
<g>
	<g>
		<path class="st0" d="M150.74,31.48c-0.41,1.15,0.44,2.38,1.54,2.71c1.21,0.37,2.55-0.33,3.28-1.28c0.72-0.92,0.9-2.32-0.12-3.11
			c-1.07-0.83-2.37-0.57-3.51-0.03c-0.93,0.44-2.24,1.43-1.82,2.63c0.16,0.45,0.85,0.5,0.98-0.01c0.02-0.08,0.05-0.16,0.08-0.24
			c0.01-0.03,0.02-0.06,0.03-0.09c0.04-0.1-0.03,0.06,0.01-0.03c0.03-0.07,0.08-0.13,0.12-0.19c0.02-0.04,0.05-0.07,0.07-0.11
			c-0.04,0.06,0,0,0.02-0.02c0.06-0.07,0.12-0.13,0.19-0.19c0.03-0.03,0.07-0.06,0.1-0.09c-0.01,0.01-0.07,0.05-0.01,0
			c0.15-0.11,0.31-0.21,0.47-0.3c0.34-0.19,0.66-0.33,1.03-0.43c0.19-0.05,0.37-0.09,0.56-0.09c0.23,0,0.25,0,0.48,0.07
			c-0.08-0.03,0.1,0.04,0.12,0.06c0.03,0.01,0.19,0.13,0.11,0.07c0.07,0.06,0.14,0.12,0.19,0.19c-0.01-0.01-0.05-0.07-0.01-0.01
			c0.03,0.05,0.06,0.1,0.08,0.15c-0.05-0.13,0.02,0.13,0.01,0.08c0-0.01,0,0.15,0,0.2c0.01-0.09-0.01,0.02-0.01,0.04
			c-0.02,0.05-0.03,0.09-0.05,0.14c0.03-0.08-0.07,0.13-0.09,0.16c-0.09,0.14-0.12,0.19-0.29,0.35c-0.03,0.03-0.21,0.18-0.1,0.09
			c-0.09,0.07-0.19,0.13-0.29,0.19c-0.08,0.05-0.16,0.09-0.24,0.13c0.14-0.06-0.08,0.03-0.13,0.04c-0.09,0.03-0.18,0.04-0.26,0.07
			c0.13-0.04,0.03,0-0.01,0c-0.06,0.01-0.13,0.01-0.19,0.01c-0.05,0-0.1,0-0.15,0c-0.12,0,0.16,0.04-0.05-0.01
			c-0.03-0.01-0.07-0.02-0.11-0.03c-0.09-0.01,0.12,0.07-0.01,0c-0.06-0.04-0.23-0.16-0.1-0.04c-0.08-0.06-0.14-0.13-0.21-0.2
			c-0.09-0.08,0.07,0.13,0.02,0.02c-0.02-0.05-0.06-0.09-0.08-0.14c-0.01-0.02-0.07-0.11-0.01-0.01c0.06,0.11-0.01-0.04-0.02-0.07
			c-0.01-0.04-0.02-0.08-0.03-0.12c0.01,0.05,0.02,0.13,0.01,0.03c-0.01-0.14-0.01-0.01-0.01,0.03c0.01-0.06,0.03-0.12,0.05-0.18
			c0.15-0.42-0.16-0.93-0.59-1.02C151.32,30.77,150.89,31.03,150.74,31.48L150.74,31.48z"/>
	</g>
</g>
<g>
	<g>
		<path class="st0" d="M155.85,27.26c0.15,0.91,0.31,1.81,0.46,2.72c0.15,0.91,0.3,1.81,0.58,2.69c0.12,0.37,0.49,0.61,0.88,0.5
			c0.41-0.11,0.58-0.49,0.54-0.88c-0.06-0.47,0.11-1.07,0.52-1.39c0.37-0.29,0.83-0.12,1.08,0.25c0.3,0.44,0.25,0.97-0.1,1.36
			c-0.18,0.21-0.42,0.37-0.66,0.47c-0.39,0.18-0.77,0.2-1.1,0.52c-0.29,0.28-0.2,0.72,0.12,0.92c0.53,0.34,1.2,0.1,1.71-0.17
			c0.49-0.25,0.91-0.63,1.21-1.09c0.61-0.93,0.49-2.13-0.24-2.96c-0.69-0.77-1.81-0.92-2.65-0.32c-0.83,0.59-1.19,1.63-1.32,2.6
			c0.49,0,0.97-0.01,1.46-0.01c-0.05-1.89-0.5-3.79-0.82-5.65c-0.08-0.45-0.62-0.7-1.03-0.59
			C156.01,26.36,155.77,26.81,155.85,27.26L155.85,27.26z"/>
	</g>
</g>
<g>
	<g>
		<path class="st0" d="M166.1,28.78c-1.56-0.02-2.89,1.15-3.11,2.68c-0.1,0.73,0.07,1.55,0.52,2.15c0.3,0.4,0.67,0.69,1.19,0.72
			c0.45,0.03,0.87-0.18,1.2-0.48c0.34-0.3,0.54-0.71,0.69-1.14c0.03-0.09,0.06-0.17,0.09-0.26c0.01-0.04,0.03-0.07,0.04-0.11
			c0-0.01,0.06-0.15,0.03-0.08c-0.03,0.07,0.02-0.04,0.02-0.05c0.02-0.04,0.05-0.09,0.07-0.13c0-0.01,0.07-0.11,0.02-0.04
			c-0.05,0.07,0.08-0.09,0.08-0.09c-0.45-0.11-0.9-0.22-1.35-0.34c0.22,0.79,0.64,1.5,1.23,2.08c0.56,0.55,1.41,1.12,2.24,1.02
			c0.27-0.03,0.5-0.15,0.61-0.41c0.09-0.22,0.07-0.53-0.13-0.7c-0.27-0.22-0.56-0.39-0.86-0.57c-0.06-0.04-0.12-0.08-0.19-0.12
			c-0.08-0.05-0.08-0.06-0.01,0c-0.03-0.02-0.06-0.04-0.09-0.07c-0.13-0.1-0.25-0.2-0.37-0.31c-0.11-0.1-0.2-0.21-0.3-0.32
			c-0.06-0.07-0.06-0.07-0.01,0c-0.02-0.03-0.04-0.06-0.07-0.09c-0.05-0.07-0.1-0.14-0.14-0.21c-0.08-0.12-0.15-0.25-0.21-0.38
			c-0.03-0.07-0.06-0.13-0.09-0.2c0.07,0.16-0.04-0.12-0.04-0.15c-0.18-0.56-0.92-0.8-1.35-0.34c-0.28,0.3-0.46,0.65-0.6,1.03
			c-0.06,0.16-0.1,0.32-0.16,0.47c-0.01,0.03-0.1,0.22-0.04,0.1c-0.04,0.07-0.07,0.14-0.12,0.2c0.08-0.1-0.07,0.06-0.08,0.08
			c0.1-0.1-0.05,0.03-0.08,0.05c0.08-0.03,0.08-0.03,0.03-0.02c-0.06,0.01-0.05,0.01,0.03-0.01c0.03,0,0.06,0,0.08,0.01
			c0.05,0.02,0.03,0.01-0.04-0.03c0.06,0.05,0.06,0.04-0.01-0.02c-0.02-0.02-0.03-0.04-0.05-0.06c0.1,0.12-0.03-0.06-0.05-0.09
			c-0.04-0.07-0.08-0.14-0.11-0.21c0.05,0.11-0.04-0.12-0.05-0.15c-0.02-0.08-0.04-0.15-0.05-0.23c-0.01-0.04-0.01-0.08-0.02-0.12
			c0.01,0.05,0.01,0.05,0,0c0-0.08,0-0.16,0-0.24c0-0.03,0.03-0.25,0.01-0.16c0.05-0.31,0.12-0.48,0.32-0.74
			c-0.08,0.1,0.07-0.08,0.08-0.08c0.05-0.05,0.11-0.1,0.16-0.15c0.12-0.11-0.04,0.01,0.08-0.06c0.06-0.04,0.13-0.08,0.19-0.12
			c0.19-0.1,0.46-0.18,0.72-0.19c0.37-0.01,0.7-0.31,0.7-0.69C166.79,29.07,166.47,28.78,166.1,28.78L166.1,28.78z"/>
	</g>
</g>
<g>
	<g>
		<path class="st0" d="M169.47,27.06c0.18,1.1,0.35,2.19,0.53,3.29c0.18,1.1,0.33,2.19,0.61,3.27c0.19,0.72,1.32,0.73,1.49-0.02
			c0.13-0.57,0.24-1.3,0.7-1.71c0.13-0.11,0.31-0.19,0.49-0.21c0.18-0.02,0.34,0.04,0.4,0.15c0.17,0.29-0.09,0.71-0.42,0.91
			c-0.27,0.16-0.58,0.22-0.88,0.27c-0.14,0.02-0.34,0-0.47,0.05c0.07-0.03,0.02,0.05-0.03-0.01c0.17,0.21,0.15,0.08,0.08,0.02
			c0.06,0.11,0.12,0.21,0.19,0.32c0-0.01-0.01-0.03-0.01-0.04c0,0.11,0,0.23-0.01,0.34c0-0.02,0.01-0.03,0.01-0.05
			c0.06-0.37-0.15-0.83-0.61-0.79c-0.9,0.08-1.04,1.12-0.32,1.58c0.52,0.33,1.23,0.18,1.79,0.04c1.21-0.28,2.33-1.22,2.24-2.56
			c-0.08-1.3-1.4-1.95-2.56-1.52c-1.23,0.46-1.72,1.67-2.06,2.84c0.5,0.06,1.01,0.12,1.51,0.18c-0.08-1.15-0.28-2.29-0.46-3.43
			c-0.18-1.12-0.36-2.24-0.54-3.36c-0.07-0.45-0.62-0.7-1.03-0.59C169.62,26.16,169.4,26.61,169.47,27.06L169.47,27.06z"/>
	</g>
</g>
<g>
	<g>
		<path class="st0" d="M177.07,31.47c0.14,0.44,0.27,0.89,0.41,1.33c0.07,0.21,0.15,0.42,0.23,0.63c0.06,0.16,0.12,0.32,0.21,0.47
			c0.06,0.1,0.12,0.2,0.18,0.3c0.15,0.25,0.49,0.4,0.77,0.31c0.28-0.09,0.55-0.35,0.53-0.67c-0.02-0.28-0.03-0.57-0.1-0.85
			c-0.05-0.22-0.1-0.43-0.16-0.65c-0.13-0.44-0.27-0.88-0.41-1.33c-0.13-0.42-0.58-0.73-1.03-0.59
			C177.28,30.57,176.93,31.02,177.07,31.47L177.07,31.47z"/>
	</g>
</g>
<g>
	<g>
		<path class="st0" d="M177.32,26.77c-0.05,0-0.09,0.01-0.14,0.02c-0.01,0-0.01,0-0.02,0c-0.05,0.01-0.13,0.05-0.16,0.06
			c-0.01,0-0.02,0.01-0.03,0.01c-0.02,0.02-0.05,0.04-0.07,0.05c-0.02,0.02-0.05,0.04-0.07,0.06c0.04-0.03,0.08-0.06,0.12-0.09
			c0,0,0,0,0,0c0.05-0.02,0.09-0.04,0.14-0.06c-0.06,0.01-0.16,0.06-0.17,0.07c-0.04,0.03-0.09,0.07-0.13,0.1
			c-0.03,0.04-0.07,0.08-0.1,0.13c-0.02,0.05-0.04,0.09-0.06,0.14c-0.01,0.05-0.02,0.1-0.02,0.16c0,0.01,0,0.02,0,0.02
			c0,0.03,0,0.07,0.01,0.1c0,0.03,0,0.05,0.01,0.08c0.02,0.05,0.04,0.1,0.06,0.15c0,0,0,0.01,0.01,0.01c0,0.01,0.01,0.01,0.01,0.02
			c0.03,0.05,0.07,0.09,0.11,0.14c0.01,0.01,0.02,0.02,0.03,0.03c0.1,0.09,0.09,0.08,0.19,0.12c0.07,0.03,0.14,0.05,0.21,0.04
			c0.05-0.01,0.1-0.01,0.15-0.02c0,0,0.01,0,0.01,0c0.05-0.02,0.1-0.04,0.15-0.06c0.04-0.03,0.07-0.05,0.11-0.08
			c0.06-0.06,0.11-0.14,0.13-0.22c0,0,0,0,0,0c0,0,0-0.01,0-0.01c-0.02,0.04-0.04,0.08-0.05,0.13c0,0,0,0,0-0.01
			c0.04-0.09,0.08-0.18,0.08-0.28c0-0.06-0.02-0.12-0.02-0.18c0.01,0.05,0.01,0.1,0.02,0.15c0-0.02,0-0.04,0-0.06
			c-0.01,0.05-0.02,0.1-0.02,0.15c0.01-0.06,0.02-0.1,0.03-0.16c0-0.06-0.01-0.11-0.02-0.17c0.01,0.05,0.01,0.1,0.02,0.15
			c0-0.01,0-0.03,0-0.04c0-0.03,0-0.05-0.01-0.08c0-0.05-0.01-0.1-0.04-0.15c-0.01-0.03-0.02-0.05-0.03-0.08
			c-0.03-0.04-0.06-0.08-0.1-0.13c-0.01-0.01-0.11-0.08-0.13-0.09c0,0,0,0,0,0c0.04,0.03,0.08,0.06,0.12,0.09
			c0,0-0.01-0.01-0.01-0.01c0.03,0.04,0.06,0.08,0.09,0.12c0,0,0,0,0,0c0.02,0.05,0.04,0.09,0.05,0.14c0,0,0-0.01,0-0.01
			c0.01,0.05,0.01,0.09,0.02,0.14c0-0.02,0-0.03,0-0.05c-0.01,0.04-0.01,0.09-0.02,0.13c0-0.01,0.01-0.03,0.01-0.04
			c-0.02,0.04-0.03,0.08-0.05,0.12c0,0,0-0.01,0.01-0.01c0.04-0.07,0.07-0.15,0.07-0.24c0-0.09-0.02-0.17-0.06-0.24
			c-0.04-0.07-0.1-0.13-0.18-0.18C177.49,26.79,177.41,26.77,177.32,26.77L177.32,26.77z"/>
	</g>
</g>
<g>
	<g>
		<path class="st0" d="M180.08,27.67c0.3,0.99,0.53,2,0.69,3.02c0.08,0.49,0.17,0.97,0.26,1.46c0.09,0.51,0.15,1.03,0.37,1.5
			c0.12,0.26,0.56,0.23,0.68-0.01c0.24-0.49,0.3-1.03,0.34-1.57c0.04-0.53,0.05-1.07-0.01-1.6c-0.12-1.1-0.34-2.18-0.66-3.24
			c-0.13-0.44-0.58-0.71-1.03-0.59C180.28,26.75,179.94,27.23,180.08,27.67L180.08,27.67z"/>
	</g>
</g>
<g>
	<g>
		<path class="st0" d="M184.49,32.07c0.03,0.27,0.07,0.53,0.1,0.8c0.01,0.07,0.01,0.14,0.03,0.2c0.01,0.06,0.04,0.12,0.06,0.18
			c0.04,0.13,0.09,0.26,0.13,0.39c0.06,0.18,0.16,0.35,0.34,0.44c0.14,0.07,0.29,0.1,0.45,0.08c0.37-0.05,0.62-0.34,0.65-0.71
			c0.01-0.14,0.02-0.27,0.03-0.41c0-0.07,0.01-0.14,0.01-0.2c0-0.12-0.03-0.26-0.04-0.39c-0.03-0.27-0.07-0.55-0.1-0.82
			c-0.02-0.2-0.23-0.42-0.4-0.51c-0.18-0.1-0.44-0.14-0.64-0.07c-0.21,0.07-0.42,0.2-0.53,0.4c-0.03,0.07-0.06,0.13-0.09,0.2
			C184.46,31.79,184.46,31.93,184.49,32.07L184.49,32.07z"/>
	</g>
</g>
<g>
	<g>
		<path class="st0" d="M185.16,27.24C185.16,27.24,185.16,27.24,185.16,27.24c-0.04-0.02-0.09-0.04-0.13-0.05c-0.01,0-0.01,0-0.02,0
			c-0.04-0.01-0.1-0.01-0.13-0.02c0,0-0.01,0-0.01,0c0,0-0.01,0-0.01,0c0,0,0,0,0,0c-0.03,0-0.11,0.01-0.14,0.02
			c-0.01,0-0.01,0-0.02,0c0,0,0,0-0.01,0c0,0,0,0,0,0c-0.03,0.01-0.11,0.05-0.14,0.06c-0.01,0.01-0.02,0.01-0.03,0.02
			c-0.01,0.01-0.12,0.09-0.12,0.1c0,0,0,0,0,0c-0.02,0.02-0.05,0.06-0.05,0.06c-0.01,0.01-0.03,0.04-0.05,0.06
			c0,0.01-0.01,0.01-0.01,0.02c0,0.01-0.01,0.01-0.01,0.02c-0.02,0.05-0.05,0.1-0.07,0.16c0,0.01,0,0.01-0.01,0.02
			c0,0,0,0.01,0,0.01c-0.01,0.05-0.02,0.11-0.02,0.16c0,0.01,0,0.01,0,0.02c0,0,0,0.01,0,0.01c0,0.13,0.01,0.14,0.05,0.24
			c0.04,0.1,0.02,0.06,0.08,0.15c0.02,0.03,0.04,0.06,0.07,0.08c0.04,0.04,0.09,0.07,0.14,0.11c0.01,0,0.01,0.01,0.02,0.01
			c0,0,0,0,0,0c0.03,0.01,0.11,0.05,0.15,0.06c0,0,0,0,0.01,0c0.01,0,0.15,0.02,0.16,0.02c0.11,0,0.21-0.03,0.31-0.08
			c0.07-0.04,0.13-0.09,0.18-0.16c0.05-0.06,0.09-0.13,0.11-0.21c0.03-0.1,0.03-0.2,0.01-0.31c-0.06-0.17-0.05-0.14-0.16-0.28
			c0.03,0.04,0.07,0.08,0.1,0.13c-0.01-0.01-0.01-0.02-0.02-0.03c0.02,0.05,0.04,0.1,0.06,0.15c0-0.01-0.01-0.02-0.01-0.04
			c-0.01-0.06-0.03-0.11-0.06-0.16c-0.03-0.04-0.07-0.09-0.1-0.13c0,0,0,0,0,0c0,0-0.01-0.01-0.01-0.01
			c0.03,0.04,0.07,0.09,0.1,0.13c-0.01-0.02-0.02-0.03-0.03-0.05c0.02,0.05,0.04,0.1,0.06,0.15c0-0.01-0.01-0.02-0.01-0.03
			c0,0,0-0.01,0-0.01c0,0,0,0,0-0.01c0-0.03-0.05-0.12-0.06-0.15c0.02,0.05,0.04,0.09,0.06,0.14c-0.01-0.01-0.01-0.03-0.01-0.04
			c0.01,0.05,0.01,0.09,0.02,0.14c0-0.01,0-0.02,0-0.03c-0.01,0.04-0.01,0.09-0.02,0.13c0-0.01,0-0.02,0.01-0.03
			c-0.02,0.04-0.03,0.08-0.05,0.12c0-0.01,0.01-0.02,0.01-0.02c-0.03,0.03-0.05,0.07-0.08,0.1c0,0,0-0.01,0.01-0.01
			c0.06-0.06,0.1-0.13,0.12-0.21c0.02-0.06,0.02-0.12,0.01-0.18c0-0.06-0.02-0.12-0.05-0.17C185.29,27.34,185.24,27.28,185.16,27.24
			L185.16,27.24z"/>
	</g>
</g>
<g>
	<g>
		<path class="st0" d="M188.88,28.65c0.08,0.91,0.17,1.83,0.33,2.73c0.16,0.88,0.36,1.76,0.78,2.56c0.26,0.5,1,0.22,1.03-0.28
			c0.05-0.88-0.08-1.75-0.18-2.61c-0.09-0.79-0.18-1.57-0.25-2.41c-0.04-0.44-0.35-0.85-0.84-0.83
			C189.34,27.83,188.85,28.18,188.88,28.65L188.88,28.65z"/>
	</g>
</g>
<g>
	<g>
		<path class="st0" d="M189.11,30.68c0.37,0,0.73-0.01,1.1-0.01c0.37,0,0.74-0.07,1.1-0.12c0.19-0.03,0.38-0.07,0.52-0.22
			c0.11-0.12,0.18-0.25,0.2-0.41c0.05-0.32-0.16-0.72-0.51-0.77c-0.42-0.06-0.84-0.13-1.26-0.14c-0.37,0-0.75-0.01-1.12-0.01
			c-0.44-0.01-0.88,0.39-0.87,0.85C188.29,30.31,188.64,30.69,189.11,30.68L189.11,30.68z"/>
	</g>
</g>
<g>
	<g>
		<path class="st0" d="M193.39,31.08c0.22,0.51,0.49,1,0.83,1.44c0.15,0.19,0.3,0.37,0.47,0.55c0.2,0.22,0.46,0.39,0.7,0.56
			c0.11,0.08,0.28,0.09,0.41,0.07c0.14-0.02,0.29-0.08,0.39-0.19c0.18-0.2,0.28-0.54,0.11-0.78c-0.13-0.19-0.24-0.39-0.37-0.58
			c-0.14-0.2-0.26-0.4-0.38-0.61c-0.23-0.42-0.47-0.83-0.66-1.27c0.03,0.07,0.06,0.14,0.08,0.21c-0.01-0.01-0.01-0.03-0.02-0.04
			c-0.04-0.15-0.11-0.28-0.22-0.38c-0.06-0.04-0.12-0.09-0.17-0.13c-0.23-0.14-0.51-0.13-0.74-0.03c-0.22,0.09-0.37,0.24-0.47,0.46
			C193.25,30.6,193.28,30.82,193.39,31.08L193.39,31.08z"/>
	</g>
</g>
<g>
	<g>
		<path class="st0" d="M196.06,30.68c-0.56,2.19-0.97,4.41-1.23,6.65c-0.25,2.21-0.47,4.51-0.1,6.72c0.14,0.82,1.28,0.51,1.36-0.19
			c0.24-2.13,0.19-4.29,0.43-6.43c0.24-2.14,0.64-4.26,1.18-6.35C197.98,30.02,196.33,29.64,196.06,30.68L196.06,30.68z"/>
	</g>
</g>
<g>
	<g>
		<path class="st0" d="M205.52,27.85c0.01,1.04,0.04,2.08,0.11,3.12c0.07,1.04,0.12,2.13,0.38,3.15c0.11,0.41,0.55,0.65,0.95,0.54
			c0.63-0.17,1.04-0.61,1.39-1.14c0.15-0.23,0.58-1.3,0.97-1.19c0.15,0.05,0.24,0.4,0.29,0.53c0.13,0.36,0.24,0.72,0.35,1.08
			c0.21,0.76,0.32,1.53,0.6,2.27c0.25,0.66,1.19,0.56,1.25-0.17c0.07-0.92-0.2-1.83-0.49-2.7c-0.25-0.75-0.5-1.76-1.25-2.17
			c-0.78-0.43-1.62,0.04-2.13,0.65c-0.24,0.29-0.41,0.62-0.62,0.93c-0.13,0.2-0.27,0.4-0.52,0.38c0.26,0.26,0.51,0.51,0.77,0.77
			c0-1.01-0.16-2.02-0.23-3.03c-0.07-1.01-0.1-2.03-0.11-3.04C207.22,26.74,205.51,26.78,205.52,27.85L205.52,27.85z"/>
	</g>
</g>
<g>
	<g>
		<path class="st0" d="M214.27,33.68c1.21,0.37,2.73,0.67,3.68-0.41c0.4-0.45,0.61-1.07,0.4-1.66c-0.19-0.53-0.6-0.98-1.12-1.19
			c-0.88-0.36-2.04-0.17-2.68,0.56c-0.84,0.95-0.63,2.32,0.1,3.26c0.89,1.14,2.49,1.69,3.9,1.67c0.26,0,0.5-0.18,0.57-0.43
			c0.06-0.22-0.03-0.55-0.26-0.64c-0.25-0.1-0.49-0.21-0.75-0.27c-0.26-0.06-0.52-0.13-0.78-0.2c-0.47-0.13-0.84-0.29-1.28-0.57
			c-0.16-0.11,0.05,0.04-0.04-0.03c-0.04-0.03-0.08-0.07-0.12-0.1c-0.08-0.07-0.15-0.14-0.22-0.22c0.01,0.01-0.12-0.15-0.07-0.08
			c0.05,0.07-0.07-0.1-0.06-0.09c-0.07-0.1-0.13-0.21-0.19-0.32c-0.02-0.04-0.04-0.07-0.05-0.11c0.05,0.11-0.03-0.08-0.03-0.08
			c-0.03-0.1-0.05-0.19-0.08-0.29c-0.02-0.1-0.02-0.36,0.02-0.49c0.01-0.04,0.02-0.08,0.03-0.12c0.04-0.14-0.05,0.07,0.02-0.06
			c0.04-0.07,0.08-0.14,0.13-0.21c-0.02,0.02-0.06,0.06,0.01-0.01c0.03-0.04,0.07-0.07,0.1-0.11c0.02-0.02,0.05-0.04,0.07-0.07
			c0.05-0.04,0.05-0.04,0.01-0.01c0.02-0.01,0.04-0.03,0.06-0.04c0.15-0.09,0.25-0.15,0.35-0.18c0.19-0.06,0.3-0.08,0.48-0.07
			c0.66,0,1.26,0.7,0.86,1.34c-0.19,0.3-0.56,0.5-0.96,0.55c-0.62,0.07-1.24-0.14-1.82-0.31C213.92,32.49,213.62,33.48,214.27,33.68
			L214.27,33.68z"/>
	</g>
</g>
<g>
	<g>
		<path class="st0" d="M221.31,33.74c0.17,0.21,0.05,0.06,0.01,0c-0.03-0.05-0.06-0.09-0.08-0.14c-0.02-0.04-0.04-0.09-0.06-0.13
			c0.05,0.13,0.06,0.16,0.04,0.1c-0.01-0.02-0.02-0.04-0.02-0.07c-0.04-0.1-0.06-0.21-0.08-0.32c-0.01-0.07,0-0.2,0,0.03
			c0-0.05-0.01-0.1-0.01-0.14c0-0.1,0.01-0.2,0.02-0.31c0.01-0.06,0-0.03-0.01,0.1c0.01-0.03,0.01-0.06,0.02-0.09
			c0.01-0.05,0.02-0.09,0.04-0.14c0.01-0.05,0.03-0.09,0.05-0.13c0.05-0.15-0.09,0.19,0,0.01c0.05-0.09,0.12-0.17,0.16-0.26
			c-0.08,0.17-0.09,0.11-0.02,0.03c0.03-0.03,0.06-0.07,0.09-0.1c0.04-0.04,0.08-0.07,0.12-0.11c0.05-0.04,0.02-0.02-0.09,0.07
			c0.07-0.05,0.15-0.11,0.22-0.17c-0.24,0.19,0.01,0,0.08-0.04c0.05-0.03,0.09-0.05,0.14-0.07c0.18-0.09-0.17,0.06-0.01,0.01
			c0.09-0.03,0.17-0.06,0.26-0.09c0.04-0.01,0.09-0.02,0.13-0.03c0.03-0.01,0.06-0.01,0.09-0.02c-0.12,0.02-0.14,0.02-0.06,0.01
			c0.09,0,0.18-0.01,0.27-0.02c0.04,0,0.09,0,0.13,0c0.04,0,0.24,0.02,0.06,0c0.32,0.04,0.61-0.06,0.75-0.38
			c0.12-0.29,0.02-0.61-0.25-0.77c-0.53-0.32-1.17-0.38-1.77-0.24c-0.66,0.15-1.2,0.54-1.6,1.08c-0.35,0.47-0.53,1.11-0.51,1.69
			c0.01,0.3,0.05,0.61,0.15,0.89c0.13,0.37,0.3,0.65,0.55,0.95c0.12,0.15,0.4,0.23,0.59,0.23c0.21,0,0.47-0.1,0.62-0.26
			c0.15-0.16,0.26-0.37,0.25-0.59C221.55,34.1,221.46,33.93,221.31,33.74L221.31,33.74z"/>
	</g>
</g>
<g>
	<g>
		<path class="st0" d="M224.46,33.49c1.06,0.36,2.52,0.45,3.34-0.47c0.65-0.72,0.8-1.98,0.09-2.71c-0.89-0.92-2.28-0.3-2.81,0.68
			c-0.63,1.17-0.01,2.44,1.02,3.13c0.59,0.4,1.29,0.58,1.99,0.66c0.41,0.05,0.83,0.06,1.24,0.06c0.42,0,0.83-0.07,1.25-0.08
			c0.33-0.01,0.62-0.25,0.67-0.58c0.04-0.3-0.14-0.66-0.47-0.71c-0.54-0.08-1.09-0.14-1.64-0.14c-0.48,0-0.97,0-1.44-0.12
			c-0.33-0.08-0.69-0.24-0.94-0.43c-0.29-0.22-0.46-0.44-0.54-0.75c-0.03-0.12-0.03-0.19,0-0.3c0.03-0.14,0.1-0.28,0.19-0.39
			c0.15-0.18,0.35-0.31,0.56-0.26c0.22,0.05,0.32,0.23,0.35,0.46c0.04,0.25-0.04,0.53-0.19,0.74c-0.52,0.74-1.69,0.51-2.4,0.27
			C224.13,32.34,223.85,33.28,224.46,33.49L224.46,33.49z"/>
	</g>
</g>
<g>
	<g>
		<path class="st1" d="M74.43,37.73c3.3-0.04,6.6-0.08,9.9-0.12c3.3-0.04,6.61,0.02,9.9-0.2c0.53-0.04,0.57-0.82,0.02-0.83
			c-3.29-0.1-6.6,0.08-9.9,0.16c-3.3,0.08-6.6,0.16-9.9,0.24C73.97,36.99,73.94,37.73,74.43,37.73L74.43,37.73z"/>
	</g>
</g>
<g>
	<g>
		<path class="st1" d="M205.72,39.21c4.79,0.09,9.58,0.18,14.37,0.27c4.79,0.09,9.58,0.24,14.37,0.19c0.46,0,0.48-0.68,0.01-0.7
			c-4.78-0.2-9.58-0.21-14.37-0.27c-4.79-0.06-9.58-0.12-14.37-0.19C205.28,38.5,205.26,39.2,205.72,39.21L205.72,39.21z"/>
	</g>
</g>
<g>
	<g>
		<path class="st1" d="M85.19,44.54c1.79,3.96,2.16,8.53,0.96,12.72c-1.09,3.76-3.39,7.1-6.39,9.6c-0.33,0.27,0.11,0.84,0.45,0.58
			c7.14-5.34,9.32-15.25,5.6-23.26C85.62,43.77,85,44.14,85.19,44.54L85.19,44.54z"/>
	</g>
</g>
<g>
	<g>
		<path class="st1" d="M79.29,63.91c0.01,0.95-0.09,1.9-0.16,2.85c-0.02,0.22,0.17,0.41,0.38,0.43c0.23,0.02,0.41-0.11,0.5-0.33
			c0.36-0.94,0.47-1.97,0.49-2.97c0.01-0.31-0.27-0.61-0.59-0.59C79.59,63.33,79.28,63.58,79.29,63.91L79.29,63.91z"/>
	</g>
</g>
<g>
	<g>
		<path class="st1" d="M80.5,67.75c1.32-0.18,2.65-0.35,3.95-0.69c0.52-0.14,0.47-0.99-0.11-0.95c-1.38,0.08-2.74,0.35-4.1,0.6
			c-0.29,0.05-0.47,0.39-0.4,0.67C79.91,67.69,80.21,67.79,80.5,67.75L80.5,67.75z"/>
	</g>
</g>
<g>
	<g>
		<path class="st0" d="M159.89,19.64c0.66-0.69,1.3-1.4,1.92-2.13c0.32-0.38,0.63-0.76,0.93-1.15c0.14-0.19,0.27-0.38,0.38-0.59
			c0.11-0.22,0.25-0.46,0.27-0.71c0.01-0.2-0.22-0.4-0.42-0.32c-0.23,0.1-0.4,0.27-0.58,0.44c-0.18,0.16-0.33,0.33-0.48,0.52
			c-0.3,0.37-0.58,0.74-0.88,1.11c-0.6,0.73-1.22,1.44-1.87,2.13c-0.19,0.2-0.21,0.52-0.01,0.73
			C159.35,19.85,159.69,19.84,159.89,19.64L159.89,19.64z"/>
	</g>
</g>
<g>
	<g>
		<path class="st0" d="M159.06,15.64c0.46,0.69,0.9,1.39,1.3,2.11c0.41,0.72,0.76,1.47,1.25,2.14c0.15,0.2,0.38,0.31,0.63,0.2
			c0.23-0.1,0.36-0.34,0.31-0.59c-0.18-0.85-0.59-1.63-0.99-2.4c-0.39-0.74-0.81-1.47-1.26-2.18c-0.2-0.32-0.64-0.45-0.97-0.24
			C159.03,14.87,158.84,15.31,159.06,15.64L159.06,15.64z"/>
	</g>
</g>
<g>
	<g>
		<path class="st0" d="M143.47,126.65c9.57,1.24,19.21,1.12,28.82,0.6c9.66-0.52,19.31-1.35,28.99-1.3
			c2.67,0.01,5.33,0.09,7.99,0.25c1.35,0.08,2.7,0.19,4.05,0.31c1.39,0.13,2.77,0.34,4.16,0.39c0.57,0.02,0.72-0.86,0.15-0.99
			c-2.28-0.53-4.69-0.64-7.02-0.8c-2.42-0.17-4.85-0.26-7.27-0.29c-4.79-0.07-9.58,0.07-14.36,0.29
			c-9.62,0.44-19.24,1.14-28.88,1.18c-5.44,0.03-10.89-0.17-16.3-0.82C143.05,125.38,142.67,126.55,143.47,126.65L143.47,126.65z"/>
	</g>
</g>
<g>
	<g>
		<path class="st0" d="M143.19,127.38c0.57,0.58,1.13,1.16,1.72,1.72c0.29,0.27,0.58,0.54,0.88,0.8c0.15,0.13,0.3,0.27,0.46,0.4
			c0.22,0.19,0.44,0.31,0.71,0.4c0.38,0.13,0.86-0.3,0.72-0.7c-0.04-0.12-0.08-0.24-0.15-0.35c-0.07-0.11-0.16-0.23-0.25-0.33
			c-0.13-0.15-0.28-0.3-0.42-0.44c-0.28-0.3-0.56-0.59-0.85-0.87c-0.58-0.57-1.19-1.11-1.78-1.67c-0.28-0.26-0.76-0.27-1.03,0.02
			C142.93,126.65,142.9,127.09,143.19,127.38L143.19,127.38z"/>
	</g>
</g>
<g>
	<g>
		<path class="st0" d="M144,126.4c0.64-0.6,1.25-1.23,1.84-1.88c0.29-0.32,0.57-0.65,0.85-0.98c0.31-0.36,0.64-0.71,0.79-1.16
			c0.11-0.32-0.3-0.62-0.58-0.43c-0.38,0.25-0.63,0.62-0.91,0.97c-0.27,0.33-0.56,0.66-0.85,0.98c-0.58,0.64-1.19,1.26-1.82,1.85
			c-0.19,0.18-0.19,0.5,0,0.67C143.51,126.6,143.81,126.58,144,126.4L144,126.4z"/>
	</g>
</g>
<g>
	<g>
		<path class="st0" d="M217.61,125.42c-0.47-0.53-0.93-1.07-1.41-1.58c-0.24-0.25-0.47-0.51-0.71-0.76
			c-0.26-0.27-0.49-0.61-0.89-0.66c-0.19-0.02-0.39,0.08-0.39,0.29c0,0.18,0.05,0.39,0.16,0.54c0.13,0.16,0.26,0.32,0.39,0.48
			c0.23,0.28,0.46,0.56,0.69,0.83c0.46,0.56,0.93,1.09,1.4,1.64c0.19,0.22,0.59,0.18,0.77-0.02
			C217.82,125.95,217.82,125.65,217.61,125.42L217.61,125.42z"/>
	</g>
</g>
<g>
	<g>
		<path class="st0" d="M216.32,126.18c-0.59,0.62-1.19,1.24-1.78,1.86c-0.29,0.3-0.58,0.62-0.86,0.93c-0.31,0.34-0.57,0.7-0.81,1.1
			c-0.22,0.38,0.23,0.85,0.61,0.6c0.38-0.24,0.72-0.51,1.05-0.82c0.31-0.3,0.62-0.61,0.92-0.92c0.59-0.62,1.19-1.24,1.78-1.86
			c0.23-0.24,0.27-0.67,0.01-0.91C216.98,125.93,216.57,125.92,216.32,126.18L216.32,126.18z"/>
	</g>
</g>
<g>
	<g>
		<path class="st0" d="M180.45,91.32c-0.07,4.74-0.16,9.48-0.21,14.23c-0.05,4.78-0.25,9.57-0.31,14.35
			c-0.12,9.48-0.05,18.97-0.18,28.45c-0.04,2.66-0.08,5.32-0.12,7.99c-0.04,2.69-0.24,5.43,0,8.11c0.06,0.67,0.97,0.64,1.04-0.01
			c0.25-2.35,0.16-4.76,0.16-7.11c0-2.37,0.01-4.74,0.02-7.11c0.03-4.78,0.04-9.57,0.12-14.35c0.08-4.74,0.23-9.48,0.27-14.23
			c0.03-4.74-0.06-9.48-0.03-14.22c0.03-5.37,0.06-10.73,0.08-16.1C181.29,90.77,180.46,90.79,180.45,91.32L180.45,91.32z"/>
	</g>
</g>
<g>
	<g>
		<path class="st0" d="M181.2,164.67c0.79-0.66,1.57-1.32,2.36-1.96c0.79-0.65,1.62-1.25,2.35-1.98c0.27-0.27-0.08-0.74-0.41-0.53
			c-0.88,0.57-1.67,1.26-2.49,1.91c-0.82,0.65-1.64,1.29-2.47,1.93c-0.2,0.15-0.17,0.49,0,0.65
			C180.73,164.88,181.01,164.83,181.2,164.67L181.2,164.67z"/>
	</g>
</g>
<g>
	<g>
		<path class="st0" d="M176.36,161.45c0.69,0.78,1.44,1.51,2.25,2.17c0.82,0.67,1.72,1.39,2.73,1.71c0.45,0.15,0.83-0.49,0.48-0.81
			c-0.38-0.35-0.82-0.62-1.24-0.93c-0.39-0.29-0.79-0.58-1.17-0.89c-0.78-0.64-1.52-1.35-2.19-2.11c-0.22-0.24-0.64-0.2-0.86,0.02
			C176.12,160.85,176.14,161.2,176.36,161.45L176.36,161.45z"/>
	</g>
</g>
<g>
	<g>
		<path class="st0" d="M179.81,91.46c-0.51,0.46-1.02,0.94-1.49,1.45c-0.49,0.54-0.98,1.1-1.26,1.78c-0.12,0.3,0.29,0.57,0.54,0.4
			c0.59-0.39,1.06-0.92,1.55-1.42c0.48-0.49,0.97-0.97,1.48-1.42c0.22-0.2,0.23-0.61,0.01-0.81
			C180.38,91.23,180.05,91.25,179.81,91.46L179.81,91.46z"/>
	</g>
</g>
<g>
	<g>
		<path class="st0" d="M181.31,92.64c0.37,0.21,0.73,0.44,1.07,0.69c-0.09-0.06,0.06,0.05,0.06,0.05c0.05,0.04,0.09,0.07,0.14,0.11
			c0.08,0.06,0.15,0.12,0.22,0.19c0.17,0.14,0.33,0.3,0.49,0.45c0.15,0.15,0.29,0.31,0.43,0.46c0.07,0.08,0.14,0.16,0.21,0.24
			c0.04,0.04,0.07,0.09,0.11,0.13c-0.05-0.06,0.02,0.03,0.03,0.05c0.27,0.36,0.52,0.74,0.8,1.1c0.12,0.15,0.38,0.15,0.53,0.06
			c0.16-0.09,0.27-0.3,0.21-0.49c-0.25-0.9-0.87-1.72-1.51-2.38c-0.64-0.67-1.38-1.24-2.21-1.67c-0.27-0.14-0.66-0.05-0.81,0.23
			C180.95,92.13,181.02,92.48,181.31,92.64L181.31,92.64z"/>
	</g>
</g>
<g>
	<g>
		<path class="st0" d="M226.88,127.47c0.51-0.16,1.03-0.12,1.48,0.16c0-0.31,0.01-0.63,0.01-0.94c-0.61,0.46-1.25,0.9-1.85,1.37
			c-0.3,0.24-0.5,0.57-0.48,0.96c0.02,0.44,0.32,0.78,0.68,1.01c0.29,0.19,0.64,0.3,0.96,0.43c0.32,0.12,0.64,0.23,0.97,0.32
			c0.38,0.1,0.77,0.17,1.16,0.21c0.4,0.05,0.76,0.07,1.15-0.06c0.25-0.08,0.44-0.27,0.48-0.53c0.03-0.23-0.07-0.53-0.3-0.63
			c-0.16-0.07-0.32-0.15-0.5-0.18c-0.14-0.02-0.27-0.04-0.41-0.06c-0.29-0.04-0.57-0.09-0.86-0.15c-0.57-0.11-1.13-0.27-1.67-0.47
			c0.09,0.04-0.08-0.03-0.09-0.04c-0.04-0.02-0.09-0.04-0.13-0.06c-0.02-0.01-0.17-0.11-0.1-0.05c0.08,0.07-0.04-0.05-0.05-0.06
			c0.07,0.01,0.09,0.16,0.08,0.21c0,0-0.03,0.16-0.06,0.14c0,0,0.3-0.28,0.31-0.3c0.45-0.41,0.9-0.82,1.36-1.23
			c0.25-0.23,0.2-0.7-0.11-0.85c-0.71-0.35-1.53-0.45-2.29-0.2c-0.26,0.09-0.45,0.35-0.38,0.63
			C226.32,127.37,226.62,127.55,226.88,127.47L226.88,127.47z"/>
	</g>
</g>
<g>
	<g>
		<path class="st0" d="M164.72,19.8c0.59-0.9,1.2-1.78,1.81-2.66c0.6-0.86,1.33-1.71,1.75-2.67c0.11-0.25-0.14-0.63-0.43-0.42
			c-0.89,0.66-1.54,1.62-2.21,2.49c-0.67,0.88-1.31,1.79-1.94,2.7c-0.18,0.26-0.06,0.64,0.21,0.79
			C164.2,20.18,164.55,20.06,164.72,19.8L164.72,19.8z"/>
	</g>
</g>
<g>
	<g>
		<path class="st0" d="M164.05,15.18c0.15,0.3,0.3,0.6,0.45,0.9c0.17,0.35,0.38,0.78,0.76,0.94c0.16,0.07,0.3,0.08,0.46,0.02
			c0.14-0.06,0.28-0.18,0.31-0.34c0.02-0.07,0.04-0.15,0.04-0.22c0-0.08-0.01-0.17-0.03-0.25c-0.01-0.08-0.04-0.15-0.07-0.22
			c-0.05-0.13-0.1-0.26-0.16-0.38c-0.04-0.07-0.07-0.14-0.11-0.21c-0.16-0.3-0.32-0.6-0.48-0.9c-0.16-0.31-0.61-0.41-0.91-0.23
			C163.99,14.49,163.89,14.85,164.05,15.18L164.05,15.18z"/>
	</g>
</g>
<g>
	<g>
		<path class="st1" d="M216.76,45.24c-1.56,6.42,1.9,12.42,3.69,18.39c1,3.32,1.4,6.68,0.68,10.11c-0.73,3.47-2.33,6.69-4.35,9.59
			c-2.38,3.43-5.38,6.29-8.08,9.45c-0.43,0.51,0.23,1.14,0.72,0.7c2.77-2.48,5.33-5.29,7.56-8.26c2.16-2.86,3.95-6.03,4.97-9.48
			c0.98-3.31,1.09-6.75,0.32-10.11c-0.74-3.22-2.05-6.28-3.16-9.38c-1.23-3.45-2.21-7.11-1.38-10.76
			C217.88,44.85,216.91,44.62,216.76,45.24L216.76,45.24z"/>
	</g>
</g>
<g>
	<g>
		<path class="st1" d="M207.82,89.68c0.01,1.13,0.05,2.28,0.35,3.37c0.16,0.56,1,0.43,1.02-0.14c0.04-1.08-0.04-2.16-0.04-3.24
			c0-0.35-0.29-0.67-0.65-0.65C208.15,89.04,207.82,89.31,207.82,89.68L207.82,89.68z"/>
	</g>
</g>
<g>
	<g>
		<path class="st1" d="M209.9,93.77c0.68-0.06,1.36-0.13,2.04-0.19c0.71-0.07,1.42-0.13,2.1-0.35c0.21-0.07,0.38-0.25,0.38-0.48
			c0-0.2-0.15-0.45-0.37-0.48c-0.7-0.09-1.38-0.05-2.09,0.01c-0.68,0.06-1.36,0.12-2.04,0.18c-0.34,0.03-0.69,0.28-0.68,0.66
			C209.26,93.46,209.54,93.81,209.9,93.77L209.9,93.77z"/>
	</g>
</g>
<g>
	<g>
		<path class="st1" d="M93.99,105.3c3.32-2.74,7.08-5.17,11.24-6.4c2.03-0.6,4.15-0.9,6.27-0.73c2.19,0.17,4.24,0.93,6.2,1.9
			c1.92,0.95,3.75,2.06,5.72,2.91c2.07,0.9,4.24,1.42,6.48,1.65c2.3,0.24,4.61,0.19,6.92,0.04c2.31-0.15,4.68-0.41,6.95,0.15
			c4.07,1.01,6.69,5.27,11.01,5.54c0.41,0.03,0.53-0.63,0.11-0.72c-3.77-0.8-6.25-4.08-9.79-5.41c-2.16-0.82-4.52-0.79-6.8-0.68
			c-2.38,0.12-4.75,0.24-7.13,0.09c-2.35-0.15-4.7-0.57-6.9-1.43c-2.08-0.81-4.02-1.92-6.04-2.86c-1.94-0.91-3.94-1.64-6.07-1.9
			c-2.02-0.25-4.07-0.1-6.05,0.35c-4.78,1.09-9.06,3.78-12.81,6.84C92.82,105.03,93.51,105.69,93.99,105.3L93.99,105.3z"/>
	</g>
</g>
<g>
	<g>
		<path class="st1" d="M155.16,108.82c-0.26-0.35-0.51-0.71-0.77-1.06c-0.15-0.21-0.32-0.41-0.49-0.6c-0.21-0.25-0.43-0.55-0.8-0.53
			c-0.27,0.02-0.47,0.17-0.56,0.43c-0.12,0.33,0.1,0.63,0.27,0.89c0.12,0.18,0.23,0.37,0.37,0.54c0.26,0.34,0.52,0.68,0.79,1.03
			c0.11,0.15,0.22,0.26,0.41,0.31c0.16,0.04,0.38,0.02,0.52-0.08c0.15-0.1,0.28-0.24,0.33-0.42
			C155.26,109.17,155.26,108.96,155.16,108.82L155.16,108.82z"/>
	</g>
</g>
<g>
	<g>
		<path class="st1" d="M153.87,109.77c-0.44,0.19-0.88,0.39-1.31,0.58c-0.21,0.09-0.43,0.19-0.64,0.28
			c-0.25,0.11-0.52,0.2-0.71,0.41c-0.15,0.16-0.2,0.37-0.12,0.58c0.08,0.2,0.27,0.33,0.49,0.33c0.31,0,0.59-0.16,0.87-0.29
			c0.22-0.1,0.44-0.2,0.66-0.3c0.44-0.2,0.88-0.41,1.33-0.61c0.27-0.12,0.38-0.53,0.22-0.78
			C154.47,109.68,154.16,109.64,153.87,109.77L153.87,109.77z"/>
	</g>
</g>
<g>
	<g>
		<path class="st1" d="M113.32,85.02c-1.63,3.3-1.82,7.9,0.59,10.9c0.42,0.52,1.13-0.16,0.9-0.69c-0.68-1.54-1.28-3.08-1.4-4.77
			c-0.12-1.69,0.14-3.38,0.85-4.92C114.54,84.91,113.63,84.4,113.32,85.02L113.32,85.02z"/>
	</g>
</g>
<g>
	<g>
		<path class="st1" d="M117.83,93.34c0.96-1.27,1.94-2.53,2.93-3.79c0.48-0.61,0.96-1.21,1.44-1.81c0.5-0.62,1.03-1.22,1.48-1.88
			c0.2-0.29-0.23-0.57-0.47-0.34c-0.57,0.54-1.07,1.17-1.59,1.77c-0.52,0.6-1.03,1.21-1.54,1.81c-1.02,1.22-2.01,2.45-2.99,3.7
			C116.68,93.34,117.42,93.89,117.83,93.34L117.83,93.34z"/>
	</g>
</g>
<g>
	<g>
		<path class="st1" d="M117.7,87.86c0.53,1.35,1.13,2.67,1.82,3.95c0.67,1.24,1.41,2.58,2.43,3.57c0.52,0.5,1.27-0.15,0.99-0.76
			c-0.57-1.23-1.38-2.35-2.03-3.54c-0.64-1.17-1.22-2.39-1.71-3.63c-0.15-0.39-0.5-0.65-0.94-0.53
			C117.91,87.02,117.54,87.47,117.7,87.86L117.7,87.86z"/>
	</g>
</g>
<g>
	<g>
		<path class="st1" d="M125.34,94.52c0.13,0.36,0.21,0.73,0.26,1.1c0.02,0.15-0.01-0.09,0,0.03c0,0.04,0.01,0.08,0.01,0.12
			c0,0.03,0,0.05,0,0.08c0.02,0.17,0.02,0.2,0.01,0.08c0.01,0.04,0.01,0.09,0.01,0.12c0.01,0.1,0.01,0.19,0.01,0.29
			c0,0.07,0.02,0.14,0.03,0.21c0-0.13,0,0.05,0,0.07c0.02,0.24,0.16,0.43,0.41,0.46c0.25,0.03,0.44-0.12,0.53-0.35
			c0.33-0.81,0.21-1.75-0.1-2.54c-0.06-0.15-0.13-0.28-0.28-0.36c-0.13-0.07-0.31-0.1-0.45-0.05
			C125.5,93.88,125.23,94.2,125.34,94.52L125.34,94.52z"/>
	</g>
</g>
<g>
	<g>
		<path class="st1" d="M133.8,87.15c-0.67,1.2-1.35,2.4-2.01,3.61c-0.32,0.58-0.64,1.17-0.96,1.75c-0.33,0.62-0.72,1.26-0.86,1.95
			c-0.1,0.47,0.46,0.81,0.82,0.45c0.5-0.51,0.82-1.17,1.16-1.78c0.32-0.58,0.63-1.17,0.94-1.76c0.65-1.22,1.28-2.44,1.92-3.66
			C135.16,87.03,134.17,86.49,133.8,87.15L133.8,87.15z"/>
	</g>
</g>
<g>
	<g>
		<path class="st1" d="M131.81,90.25c-0.34-0.58-0.69-1.16-1.03-1.74c-0.17-0.29-0.34-0.58-0.52-0.87c-0.18-0.3-0.4-0.57-0.64-0.83
			c-0.25-0.27-0.79,0.02-0.66,0.38c0.12,0.33,0.25,0.65,0.43,0.96c0.17,0.29,0.35,0.58,0.52,0.86c0.35,0.57,0.7,1.15,1.05,1.72
			C131.28,91.26,132.13,90.78,131.81,90.25L131.81,90.25z"/>
	</g>
</g>
<g>
	<g>
		<path class="st1" d="M136.31,85.91c0.96,1.73,1.75,3.64,1.86,5.63c0.1,1.84-0.39,3.6-1.4,5.14c-0.31,0.47,0.39,0.96,0.77,0.57
			c3.18-3.3,1.82-8.43-0.23-11.91C136.94,84.72,135.97,85.29,136.31,85.91L136.31,85.91z"/>
	</g>
</g>
</svg>
