<?xml version="1.0" encoding="utf-8"?>
<!-- Generator: Adobe Illustrator 26.0.2, SVG Export Plug-In . SVG Version: 6.00 Build 0)  -->
<svg version="1.1" id="Layer_1" xmlns="http://www.w3.org/2000/svg" xmlns:xlink="http://www.w3.org/1999/xlink" x="0px" y="0px"
	 viewBox="0 0 222 206.37" style="enable-background:new 0 0 222 206.37;" xml:space="preserve">
<style type="text/css">
	.st0{fill:#486AFB;}
	.st1{fill:#FD46FC;}
</style>
<g>
	<g>
		<path class="st0" d="M70.01,34.36c2.38-3.74,2.7-8.47,1.42-12.65c-1.39-4.54-4.34-8.35-8.27-10.98
			c-4.23-2.83-9.24-4.35-14.21-5.21C43.3,4.55,37.33,3.97,31.64,4.89C21.92,6.46,13.31,13.07,9.2,21.98
			c-2.17,4.69-3.14,9.92-2.74,15.08c0.4,5.18,2.32,9.94,4.58,14.57c2.22,4.54,4.76,8.99,6.06,13.91c0.68,2.59,0.94,5.24,0.71,7.91
			c-0.25,3.01-1.07,5.95-2.03,8.8c-1.88,5.57-4.4,10.96-5.24,16.83c-0.68,4.71-0.17,9.91,2.58,13.93c3.02,4.41,8.1,6.09,13.2,6.67
			c5.98,0.68,12.01-0.33,17.78-1.84c5.29-1.38,10.57-3.09,15.53-5.4c4.71-2.2,9.15-5.15,12.58-9.09c7.37-8.45,9.82-19.97,8.94-30.93
			c-0.47-5.82-1.74-11.58-3.66-17.09c-0.94-2.69-2.03-5.32-3.32-7.86c-1.27-2.5-2.88-4.92-3.7-7.62c-0.7-2.29-0.74-4.96,0.85-6.9
			c0.55-0.67-0.4-1.59-0.95-0.92c-1.51,1.84-1.91,4.28-1.59,6.59c0.37,2.65,1.7,5.05,2.91,7.39c2.54,4.93,4.54,10.16,5.91,15.53
			c2.74,10.72,3.19,22.59-1.56,32.83c-2.13,4.6-5.22,8.66-9.2,11.8c-3.99,3.15-8.69,5.34-13.43,7.08
			c-5.21,1.92-10.61,3.6-16.08,4.58c-5.45,0.98-11.41,1.26-16.69-0.69c-2.31-0.85-4.43-2.24-5.95-4.2c-1.4-1.8-2.29-3.98-2.77-6.2
			c-1.14-5.29,0.19-10.61,1.94-15.6c1.87-5.37,4.22-10.64,5-16.32c0.37-2.66,0.32-5.35-0.18-7.99c-0.46-2.39-1.27-4.7-2.22-6.94
			c-1.92-4.54-4.46-8.78-6.34-13.34c-1.94-4.7-2.81-9.69-2.3-14.77c0.51-5.04,2.29-9.92,5.27-14.03c2.78-3.83,6.53-6.87,10.77-8.94
			c4.74-2.32,9.88-3.12,15.13-2.92c5.21,0.19,10.53,0.91,15.51,2.49c4.59,1.46,9.05,3.88,12.18,7.62c2.72,3.25,4.47,7.65,4.27,11.93
			c-0.1,2.13-0.69,4.14-1.81,5.95C68.82,34.44,69.67,34.89,70.01,34.36L70.01,34.36z"/>
	</g>
</g>
<g>
	<g>
		<path class="st0" d="M11.16,2.04C10.26,0.7,8.67-0.06,7.05,0C5.35,0.08,3.5,1.17,3.21,2.98C2.89,5,4.89,6.24,6.37,7.14
			c0.87,0.52,1.77,1.02,2.59,1.63c0.58,0.44,1.96,1.36,0.9,2.02c-0.48,0.3-1.16,0.34-1.71,0.4c-0.65,0.08-1.33,0.14-1.99,0.07
			c-1.04-0.11-2.02-0.59-2.6-1.49C3.26,9.3,2.43,9.6,2.6,10.17c0.57,2.02,2.86,2.63,4.72,2.5c1.06-0.08,2.36-0.19,3.27-0.79
			c0.73-0.49,1.21-1.41,0.91-2.28c-0.33-0.95-1.39-1.64-2.17-2.19c-0.83-0.58-1.72-1.08-2.6-1.6C5.95,5.35,5.03,4.83,4.6,3.98
			c-0.44-0.87,0.09-1.79,0.82-2.3c1.48-1.02,3.73-0.53,4.71,0.95C10.54,3.26,11.58,2.66,11.16,2.04L11.16,2.04z"/>
	</g>
</g>
<g>
	<g>
		<path class="st0" d="M209.54,76.99c-0.08,1.43-0.11,2.85-0.07,4.28c0.04,1.39,0,2.9,0.44,4.23c0.18,0.55,0.92,0.41,0.98-0.13
			c0.16-1.38-0.07-2.81-0.1-4.19c-0.04-1.4-0.03-2.8,0.04-4.2C210.86,76.15,209.58,76.19,209.54,76.99L209.54,76.99z"/>
	</g>
</g>
<g>
	<g>
		<path class="st0" d="M211.35,78.26c-0.05,2.27,0.02,4.68,0.93,6.79c0.2,0.47,0.91,0.18,0.93-0.25c0.03-1.09-0.05-2.18-0.13-3.26
			c-0.08-1.09-0.11-2.19-0.09-3.29C213,77.19,211.37,77.23,211.35,78.26L211.35,78.26z"/>
	</g>
</g>
<g>
	<g>
		<path class="st0" d="M210.8,77.5c1.09-1.36,3.27-1.62,4.35-0.07c0.47,0.68,0.53,1.59,0.15,2.33c-0.22,0.41-0.55,0.69-0.95,0.92
			c-0.4,0.23-0.87,0.51-1.31,0.65c-0.48,0.15-0.6,0.78-0.16,1.06c0.38,0.23,0.85,0.33,1.26,0.5c0.42,0.18,0.84,0.36,1.24,0.59
			c0.8,0.45,1.48,1.05,2.19,1.62c0.42,0.34,1.18-0.12,0.83-0.64c-0.58-0.88-1.4-1.54-2.29-2.09c-0.81-0.5-1.94-1.12-2.92-1.07
			c0.13,0.32,0.27,0.65,0.4,0.97c0.21-0.24,0.59-0.38,0.87-0.53c0.28-0.15,0.56-0.29,0.81-0.48c0.48-0.35,0.84-0.81,1.07-1.37
			c0.42-1.04,0.3-2.25-0.37-3.16c-1.53-2.06-4.47-1.74-5.92,0.23C209.75,77.38,210.47,77.91,210.8,77.5L210.8,77.5z"/>
	</g>
</g>
<g>
	<g>
		<path class="st0" d="M134.02,72.18c9.57,1.24,19.2,1.12,28.82,0.6c9.66-0.52,19.31-1.35,28.99-1.3c2.67,0.01,5.33,0.09,7.99,0.25
			c1.35,0.08,2.7,0.19,4.05,0.31c1.39,0.13,2.77,0.34,4.16,0.39c0.56,0.02,0.71-0.85,0.15-0.98c-2.28-0.53-4.69-0.64-7.02-0.8
			c-2.42-0.17-4.85-0.26-7.27-0.29c-4.79-0.07-9.58,0.07-14.36,0.29c-9.62,0.44-19.24,1.14-28.88,1.18
			c-5.44,0.03-10.9-0.17-16.3-0.82C133.6,70.92,133.23,72.08,134.02,72.18L134.02,72.18z"/>
	</g>
</g>
<g>
	<g>
		<path class="st0" d="M133.74,72.91c0.57,0.58,1.13,1.16,1.72,1.72c0.29,0.27,0.58,0.54,0.88,0.8c0.15,0.13,0.3,0.27,0.46,0.4
			c0.22,0.19,0.43,0.31,0.71,0.4c0.38,0.12,0.85-0.3,0.71-0.69c-0.04-0.12-0.08-0.24-0.15-0.35c-0.07-0.11-0.16-0.23-0.25-0.33
			c-0.13-0.15-0.28-0.3-0.42-0.44c-0.28-0.3-0.56-0.59-0.85-0.87c-0.58-0.57-1.19-1.11-1.78-1.67c-0.28-0.26-0.76-0.27-1.02,0.02
			C133.48,72.19,133.46,72.62,133.74,72.91L133.74,72.91z"/>
	</g>
</g>
<g>
	<g>
		<path class="st0" d="M134.55,71.93c0.64-0.6,1.25-1.23,1.84-1.88c0.29-0.32,0.57-0.65,0.85-0.98c0.31-0.36,0.64-0.71,0.79-1.16
			c0.11-0.32-0.3-0.62-0.58-0.43c-0.38,0.25-0.63,0.62-0.91,0.97c-0.27,0.33-0.56,0.66-0.85,0.98c-0.58,0.64-1.19,1.26-1.82,1.85
			c-0.19,0.18-0.19,0.5,0,0.67C134.06,72.14,134.36,72.11,134.55,71.93L134.55,71.93z"/>
	</g>
</g>
<g>
	<g>
		<path class="st0" d="M208.16,70.96c-0.47-0.53-0.93-1.06-1.41-1.58c-0.24-0.26-0.47-0.51-0.71-0.77
			c-0.26-0.28-0.49-0.61-0.89-0.66c-0.19-0.02-0.39,0.08-0.39,0.29c0,0.18,0.05,0.39,0.16,0.54c0.13,0.16,0.26,0.32,0.39,0.48
			c0.23,0.28,0.46,0.55,0.69,0.83c0.46,0.55,0.93,1.09,1.4,1.64c0.18,0.21,0.58,0.18,0.76-0.02
			C208.36,71.49,208.36,71.19,208.16,70.96L208.16,70.96z"/>
	</g>
</g>
<g>
	<g>
		<path class="st0" d="M206.87,71.72c-0.59,0.62-1.19,1.24-1.78,1.86c-0.29,0.3-0.58,0.62-0.86,0.93c-0.31,0.34-0.57,0.7-0.81,1.09
			c-0.23,0.38,0.24,0.86,0.61,0.6c0.37-0.25,0.72-0.51,1.04-0.83c0.31-0.3,0.62-0.61,0.92-0.92c0.59-0.62,1.19-1.24,1.78-1.86
			c0.23-0.24,0.27-0.66,0.01-0.9C207.53,71.47,207.12,71.46,206.87,71.72L206.87,71.72z"/>
	</g>
</g>
<g>
	<g>
		<path class="st0" d="M171,36.85c-0.07,4.74-0.16,9.48-0.21,14.23c-0.05,4.78-0.24,9.57-0.3,14.35
			c-0.12,9.48-0.05,18.97-0.18,28.45c-0.04,2.66-0.08,5.32-0.12,7.99c-0.04,2.69-0.24,5.43,0,8.11c0.06,0.66,0.96,0.63,1.03-0.01
			c0.25-2.35,0.16-4.76,0.16-7.11c0-2.37,0.01-4.74,0.02-7.11c0.03-4.78,0.04-9.57,0.12-14.35c0.08-4.74,0.23-9.48,0.27-14.23
			c0.03-4.74-0.06-9.48-0.02-14.22c0.04-5.37,0.06-10.73,0.08-16.1C171.84,36.31,171.01,36.33,171,36.85L171,36.85z"/>
	</g>
</g>
<g>
	<g>
		<path class="st0" d="M171.75,110.21c0.79-0.66,1.57-1.32,2.36-1.96c0.79-0.65,1.62-1.25,2.35-1.98c0.27-0.27-0.08-0.74-0.41-0.53
			c-0.88,0.57-1.67,1.26-2.49,1.91c-0.82,0.65-1.64,1.29-2.47,1.93c-0.2,0.15-0.17,0.49,0,0.65
			C171.28,110.41,171.56,110.37,171.75,110.21L171.75,110.21z"/>
	</g>
</g>
<g>
	<g>
		<path class="st0" d="M166.91,106.98c0.69,0.78,1.44,1.51,2.25,2.17c0.82,0.67,1.72,1.37,2.73,1.72c0.45,0.15,0.83-0.49,0.48-0.81
			c-0.39-0.35-0.83-0.62-1.24-0.93c-0.4-0.29-0.79-0.58-1.17-0.89c-0.78-0.64-1.52-1.35-2.19-2.11c-0.21-0.24-0.63-0.19-0.85,0.02
			C166.68,106.38,166.7,106.73,166.91,106.98L166.91,106.98z"/>
	</g>
</g>
<g>
	<g>
		<path class="st0" d="M170.36,37c-0.51,0.46-1.02,0.94-1.49,1.45c-0.49,0.53-0.99,1.09-1.27,1.77c-0.12,0.3,0.29,0.57,0.54,0.4
			c0.58-0.39,1.05-0.93,1.54-1.42c0.48-0.49,0.97-0.97,1.48-1.42c0.22-0.2,0.23-0.6,0.01-0.8C170.93,36.77,170.6,36.79,170.36,37
			L170.36,37z"/>
	</g>
</g>
<g>
	<g>
		<path class="st0" d="M171.86,38.17c0.77,0.43,1.33,0.84,1.96,1.47c0.15,0.15,0.29,0.3,0.44,0.46c0.06,0.07,0.13,0.14,0.19,0.22
			c0.04,0.04,0.07,0.09,0.11,0.13c0.07,0.08-0.02-0.03,0.05,0.07c0.26,0.34,0.51,0.72,0.75,1.04c0.13,0.18,0.33,0.27,0.55,0.17
			c0.19-0.08,0.34-0.3,0.27-0.51c-0.27-0.9-0.87-1.71-1.51-2.38c-0.64-0.67-1.38-1.24-2.21-1.67c-0.27-0.14-0.65-0.05-0.8,0.23
			C171.5,37.66,171.57,38.01,171.86,38.17L171.86,38.17z"/>
	</g>
</g>
<g>
	<g>
		<path class="st0" d="M217.43,73c0.51-0.16,1.03-0.12,1.49,0.16c0-0.31,0.01-0.62,0.01-0.93c-0.61,0.46-1.25,0.9-1.84,1.37
			c-0.29,0.24-0.5,0.57-0.48,0.96c0.02,0.44,0.32,0.78,0.68,1.01c0.29,0.19,0.64,0.3,0.96,0.43c0.32,0.12,0.64,0.23,0.97,0.32
			c0.38,0.1,0.76,0.17,1.16,0.21c0.4,0.05,0.76,0.07,1.15-0.06c0.24-0.08,0.44-0.27,0.47-0.53c0.03-0.23-0.07-0.52-0.3-0.62
			c-0.16-0.07-0.32-0.15-0.5-0.18c-0.14-0.02-0.27-0.04-0.41-0.06c-0.29-0.04-0.57-0.09-0.86-0.15c-0.57-0.11-1.13-0.27-1.67-0.47
			c0.09,0.03-0.08-0.03-0.09-0.04c-0.04-0.02-0.09-0.04-0.13-0.06c-0.02-0.01-0.17-0.11-0.1-0.05c0.08,0.07-0.04-0.06-0.05-0.06
			c0.07,0.01,0.09,0.16,0.08,0.21c0,0-0.04,0.15-0.06,0.13c0,0,0.3-0.28,0.31-0.3c0.45-0.41,0.9-0.82,1.36-1.23
			c0.25-0.22,0.2-0.69-0.11-0.84c-0.71-0.35-1.53-0.45-2.29-0.2c-0.26,0.09-0.45,0.34-0.38,0.62C216.87,72.9,217.17,73.08,217.43,73
			L217.43,73z"/>
	</g>
</g>
<g>
	<g>
		<path class="st1" d="M121.81,0.91c-1.63,3.3-1.82,7.9,0.59,10.89c0.42,0.52,1.12-0.16,0.89-0.68c-0.68-1.54-1.28-3.08-1.4-4.78
			c-0.12-1.69,0.14-3.38,0.85-4.93C123.02,0.8,122.11,0.29,121.81,0.91L121.81,0.91z"/>
	</g>
</g>
<g>
	<g>
		<path class="st1" d="M126.31,9.23c0.96-1.27,1.94-2.53,2.93-3.79c0.48-0.61,0.96-1.21,1.44-1.81c0.5-0.62,1.03-1.22,1.48-1.88
			c0.2-0.29-0.23-0.57-0.47-0.34c-0.57,0.54-1.07,1.17-1.59,1.77c-0.52,0.6-1.03,1.21-1.54,1.81c-1.02,1.22-2.01,2.45-2.99,3.7
			C125.16,9.22,125.9,9.77,126.31,9.23L126.31,9.23z"/>
	</g>
</g>
<g>
	<g>
		<path class="st1" d="M126.18,3.75c0.53,1.35,1.13,2.67,1.82,3.95c0.67,1.24,1.41,2.58,2.43,3.57c0.51,0.49,1.26-0.15,0.98-0.75
			c-0.57-1.23-1.38-2.35-2.03-3.54c-0.64-1.17-1.22-2.39-1.71-3.63c-0.15-0.38-0.5-0.64-0.93-0.53
			C126.39,2.91,126.03,3.36,126.18,3.75L126.18,3.75z"/>
	</g>
</g>
<g>
	<g>
		<path class="st1" d="M133.83,10.4c0.13,0.36,0.21,0.73,0.26,1.1c0.02,0.15-0.01-0.09,0,0.03c0,0.04,0.01,0.08,0.01,0.12
			c0,0.03,0,0.05,0,0.08c0.02,0.17,0.02,0.2,0.01,0.08c0.01,0.04,0.01,0.09,0.01,0.12c0.01,0.1,0.01,0.19,0.01,0.29
			c0.02,0.15,0.02,0.18,0.01,0.11c0-0.04,0-0.04,0,0.01c0,0.05,0.01,0.11,0.01,0.16c0.01,0.24,0.16,0.43,0.41,0.46
			c0.25,0.03,0.44-0.12,0.53-0.35c0.31-0.81,0.2-1.74-0.11-2.54c-0.06-0.15-0.13-0.28-0.28-0.36c-0.13-0.07-0.31-0.1-0.45-0.05
			C133.99,9.77,133.71,10.09,133.83,10.4L133.83,10.4z"/>
	</g>
</g>
<g>
	<g>
		<path class="st1" d="M142.29,3.03c-0.67,1.2-1.35,2.4-2.01,3.61c-0.32,0.58-0.64,1.17-0.96,1.75c-0.33,0.62-0.7,1.26-0.87,1.94
			c-0.11,0.46,0.48,0.82,0.82,0.45c0.49-0.52,0.82-1.17,1.16-1.78c0.32-0.58,0.63-1.17,0.94-1.76c0.65-1.22,1.28-2.44,1.92-3.66
			C143.63,2.92,142.65,2.39,142.29,3.03L142.29,3.03z"/>
	</g>
</g>
<g>
	<g>
		<path class="st1" d="M140.29,6.14c-0.34-0.58-0.69-1.16-1.03-1.73c-0.35-0.59-0.69-1.19-1.16-1.7c-0.25-0.27-0.79,0.02-0.66,0.38
			c0.12,0.33,0.25,0.65,0.43,0.96c0.17,0.29,0.35,0.58,0.52,0.86c0.35,0.58,0.7,1.15,1.05,1.73C139.76,7.15,140.61,6.66,140.29,6.14
			L140.29,6.14z"/>
	</g>
</g>
<g>
	<g>
		<path class="st1" d="M144.8,1.79c0.96,1.73,1.75,3.64,1.86,5.63c0.1,1.84-0.38,3.61-1.4,5.14c-0.31,0.47,0.39,0.96,0.77,0.57
			c3.16-3.32,1.83-8.41-0.24-11.91C145.42,0.62,144.46,1.17,144.8,1.79L144.8,1.79z"/>
	</g>
</g>
<g>
	<g>
		<path class="st0" d="M163.42,59.01c3.5-2.04,8.32-2.98,11.59,0.04c2.69,2.49,2.34,6.58,2.93,9.9c0.29,1.65,0.84,3.25,1.93,4.55
			c1.22,1.44,3,2.19,4.62,3.09c1.7,0.94,3.13,2.14,3.97,3.94c0.82,1.75,0.9,3.78,0.08,5.54c-1.59,3.43-5.59,5.04-9,5.99
			c-4.41,1.23-9.06,1.63-13.61,1.14c-3.97-0.42-8.15-1.54-11.18-4.28c-2.66-2.4-4.23-6.35-3.09-9.88c0.61-1.88,2.02-3.19,3.52-4.39
			c1.54-1.24,3-2.45,4.15-4.08c1.12-1.59,1.91-3.44,2.28-5.36c0.3-1.59,0.29-3.33,0.98-4.82c0.32-0.68,0.8-1.22,1.49-1.53
			c0.47-0.22,0.16-1.04-0.34-0.84c-1.61,0.65-2.28,2.16-2.63,3.77c-0.41,1.92-0.49,3.85-1.22,5.7c-0.82,2.06-2.16,3.82-3.85,5.24
			c-1.56,1.32-3.33,2.47-4.44,4.23c-2.01,3.19-1.35,7.46,0.69,10.47c2.33,3.45,6.36,5.27,10.32,6.12c4.61,0.99,9.48,0.97,14.1,0.05
			c3.92-0.77,8.36-2.09,11.13-5.17c1.21-1.34,2.02-2.98,2.11-4.8c0.1-1.95-0.58-3.89-1.77-5.42c-1.27-1.63-3.07-2.47-4.82-3.48
			c-1.77-1.01-3.18-2.26-3.85-4.23c-1.17-3.5-0.43-7.55-2.46-10.78c-2.32-3.69-7.14-4.32-10.98-2.97c-1.08,0.38-2.11,0.89-3.08,1.48
			C162.45,58.54,162.9,59.31,163.42,59.01L163.42,59.01z"/>
	</g>
</g>
<g>
	<g>
		<path class="st0" d="M38.9,34.98c-4.42,1.42-7.77,5.21-9.09,9.62c-0.66,2.19-0.8,4.54-0.32,6.78c0.64,2.93,2.41,5.39,3.66,8.07
			c0.67,1.44,1.19,2.96,1.42,4.54c0.24,1.65,0.09,3.32-0.28,4.95c-0.72,3.14-2.09,6.1-2.98,9.2c-0.9,3.11-1.5,6.29-1.85,9.51
			c-0.3,2.74-0.32,5.7,1.01,8.19c2.46,4.61,8.44,5.55,13.13,4.74c5.02-0.86,9.59-3.75,12.87-7.6c3.62-4.25,5.59-9.68,5.97-15.22
			c0.2-2.98-0.04-5.98-0.66-8.9c-0.64-3.04-1.77-5.9-3.03-8.72c-1.33-2.97-2.67-5.92-3.54-9.07c-0.85-3.09-1.41-6.25-2.38-9.31
			c-0.81-2.55-1.89-5.43-4.22-6.97c-2.22-1.46-5.07-1.2-7.5-0.51c-1.33,0.38-2.61,0.9-3.87,1.46c-0.35,0.16-0.11,0.76,0.25,0.62
			c2.44-0.98,5.1-2.01,7.78-1.74c2.81,0.28,4.53,2.42,5.55,4.87c1.17,2.81,1.79,5.83,2.49,8.78c0.69,2.89,1.52,5.7,2.69,8.44
			c1.21,2.84,2.61,5.6,3.61,8.52c0.91,2.67,1.51,5.45,1.73,8.26c0.43,5.49-0.54,11.3-3.48,16.02c-2.59,4.16-6.53,7.52-11.14,9.21
			c-4.32,1.59-10.17,1.97-13.88-1.26c-2.07-1.8-2.76-4.48-2.76-7.13c-0.01-3.06,0.6-6.14,1.3-9.1c0.71-3,1.76-5.86,2.77-8.77
			c0.97-2.8,1.76-5.71,1.33-8.7c-0.42-2.89-1.84-5.41-3.17-7.96c-1.22-2.32-2.15-4.67-2.1-7.33c0.08-4.39,2.37-8.72,6.02-11.18
			c0.91-0.61,1.89-1.09,2.92-1.43C39.68,35.67,39.47,34.8,38.9,34.98L38.9,34.98z"/>
	</g>
</g>
<g>
	<g>
		<path class="st1" d="M174.26,57.24c-4.27-0.48-8.54-1-12.8-1.54c-4.26-0.54-8.51-1.07-12.76-1.66
			c-8.47-1.18-16.91-2.51-25.32-4.04c-8.36-1.53-16.7-3.21-25-5.05c-8.25-1.83-16.48-3.76-24.75-5.52
			c-8.26-1.76-16.54-3.45-24.93-4.47c-0.99-0.12-1.98-0.2-2.98-0.25c-0.42-0.02-0.54,0.65-0.11,0.74c4.15,0.81,8.36,1.37,12.53,2.09
			c4.14,0.71,8.28,1.45,12.4,2.29c8.32,1.7,16.61,3.59,24.89,5.48c8.28,1.89,16.55,3.76,24.9,5.34c8.39,1.59,16.83,3.01,25.29,4.18
			c4.22,0.59,8.45,1.15,12.68,1.61c4.26,0.46,8.53,0.92,12.81,1.17c1.05,0.06,2.1,0.12,3.15,0.19
			C174.62,57.83,174.62,57.29,174.26,57.24L174.26,57.24z"/>
	</g>
</g>
<g>
	<g>
		<path class="st1" d="M165.98,93.68c-15.46-0.26-30.93-0.14-46.39,0.38c-15.45,0.52-30.9,1.37-46.32,2.58
			c-8.65,0.68-17.33,1.31-25.94,2.46c-0.64,0.08-0.71,1.08-0.02,1.03c7.75-0.62,15.47-1.51,23.22-2.17
			c7.66-0.65,15.34-1.21,23.02-1.68c15.43-0.95,30.9-1.42,46.36-1.64c8.68-0.12,17.37-0.09,26.05,0.02
			C166.59,94.66,166.62,93.69,165.98,93.68L165.98,93.68z"/>
	</g>
</g>
<g>
	<g>
		<path class="st1" d="M162.15,34.85c-9.03-7.5-19.51-13.33-30.65-17.03c-11.12-3.69-22.8-5.6-34.52-5.42
			c-3.26,0.05-6.52,0.25-9.76,0.61c-3.27,0.37-6.59,0.81-9.76,1.72c-0.51,0.15-0.32,0.86,0.19,0.77c2.92-0.48,5.81-1.1,8.75-1.48
			c2.84-0.37,5.7-0.63,8.56-0.74c5.79-0.22,11.6,0.07,17.34,0.89c11.46,1.64,22.54,5.31,32.79,10.68
			c5.78,3.03,11.22,6.65,16.26,10.78C161.9,36.08,162.7,35.3,162.15,34.85L162.15,34.85z"/>
	</g>
</g>
<g>
	<g>
		<path class="st1" d="M162.59,34.58c-0.12-0.5-0.25-1-0.38-1.5c-0.14-0.53-0.28-1.06-0.61-1.5c-0.12-0.15-0.26-0.24-0.46-0.22
			c-0.17,0.02-0.37,0.16-0.4,0.34c-0.05,0.29-0.06,0.56-0.04,0.86c0.03,0.29,0.1,0.58,0.16,0.86c0.11,0.51,0.23,1.03,0.35,1.54
			c0.08,0.37,0.51,0.61,0.87,0.49C162.43,35.33,162.69,34.97,162.59,34.58L162.59,34.58z"/>
	</g>
</g>
<g>
	<g>
		<path class="st1" d="M161.08,34.64c-0.63,0.07-1.26,0.17-1.88,0.31c-0.61,0.14-1.25,0.3-1.76,0.68c-0.18,0.13-0.33,0.35-0.26,0.59
			c0.07,0.22,0.27,0.39,0.5,0.38c0.61-0.02,1.19-0.21,1.77-0.35c0.27-0.07,0.54-0.13,0.82-0.18c0.15-0.03,0.29-0.05,0.44-0.08
			c0.06-0.01,0.13-0.02,0.19-0.03c0.08-0.01,0.08-0.01,0.02,0c0.04-0.01,0.08-0.01,0.13-0.02c0.34-0.04,0.69-0.27,0.68-0.66
			C161.72,34.96,161.44,34.59,161.08,34.64L161.08,34.64z"/>
	</g>
</g>
<g>
	<g>
		<path class="st0" d="M204.21,144.34c-1.65-0.7-3.39-1.44-5.23-1.29c-1.65,0.14-3.1,1-3.85,2.5c-0.69,1.39-1.02,3.22-0.59,4.73
			c0.49,1.73,1.97,2.5,3.6,2.92c2.23,0.58,4.6,1.08,6.91,1.12c0.62,0.01,0.79-0.94,0.16-1.09c-1.68-0.41-3.4-0.66-5.1-1.01
			c-1.3-0.27-3.19-0.4-4.06-1.55c-0.81-1.07-0.63-2.72-0.29-3.93c0.42-1.47,1.42-2.42,2.93-2.7c1.78-0.33,3.56,0.39,5.19,1.03
			C204.31,145.23,204.64,144.52,204.21,144.34L204.21,144.34z"/>
	</g>
</g>
<g>
	<g>
		<path class="st0" d="M32.28,144.92c-1,0.12-2.1,0.49-2.82,1.24c-0.33,0.35-0.49,0.81-0.38,1.28c0.12,0.46,0.46,0.84,0.77,1.18
			c0.56,0.6,1.21,1.48,0.65,2.31c-0.45,0.67-1.2,0.38-1.48-0.26c-0.19-0.44-0.78-0.14-0.82,0.22c-0.12,1.03,1.12,1.65,2,1.4
			c0.98-0.28,1.53-1.33,1.42-2.3c-0.06-0.54-0.28-1.04-0.61-1.46c-0.3-0.39-0.71-0.7-0.95-1.13c-0.27-0.48,0.2-0.73,0.57-0.94
			c0.5-0.28,1.04-0.48,1.61-0.55c0.27-0.03,0.51-0.21,0.52-0.51C32.78,145.17,32.55,144.89,32.28,144.92L32.28,144.92z"/>
	</g>
</g>
<g>
	<g>
		<path class="st0" d="M38.47,146.53c-1.38,0.27-3.15,0.81-3.44,2.42c-0.28,1.58,0.96,3.26,2.65,3.11c0.84-0.08,1.81-0.56,2.16-1.37
			c0.18-0.41-0.25-0.71-0.6-0.44c-0.1,0.08-0.18,0.14-0.28,0.21c-0.06,0.04-0.13,0.08-0.2,0.12c-0.03,0.01-0.19,0.09-0.13,0.07
			c-0.13,0.05-0.26,0.09-0.39,0.11c-0.04,0.01-0.08,0.01-0.11,0.02c0.03-0.01,0.12-0.02-0.04,0.01c-0.03,0-0.05,0.01-0.08,0.01
			c0.05-0.01,0.06-0.01,0.01,0c-0.05,0-0.1,0.01-0.14,0.01c-0.13,0-0.27,0-0.4-0.02c0.12,0.01-0.05-0.01-0.09-0.02
			c-0.08-0.02-0.17-0.05-0.25-0.07c-0.01,0-0.1-0.03-0.03-0.01c0.07,0.03-0.04-0.02-0.06-0.03c-0.06-0.03-0.12-0.06-0.17-0.09
			c-0.02-0.01-0.05-0.03-0.07-0.04c-0.08-0.05,0.07,0.06,0,0c-0.06-0.05-0.11-0.1-0.16-0.15c-0.05-0.05-0.09-0.09-0.13-0.14
			c-0.08-0.09-0.01-0.02,0,0c-0.02-0.03-0.04-0.06-0.06-0.09c-0.04-0.05-0.07-0.11-0.1-0.17c-0.01-0.02-0.03-0.05-0.04-0.07
			c0,0-0.06-0.15-0.04-0.08c0.02,0.06-0.03-0.1-0.04-0.13c-0.02-0.06-0.03-0.12-0.04-0.19c0-0.02-0.02-0.13-0.01-0.06
			c0.01,0.06,0-0.03,0-0.03c0-0.08-0.01-0.16,0-0.24c0-0.03,0.03-0.19,0.01-0.09c0.01-0.06,0.03-0.12,0.05-0.18
			c0.01-0.03,0.07-0.17,0.03-0.09c0.03-0.07,0.07-0.14,0.11-0.2c0.02-0.03,0.04-0.06,0.06-0.09c-0.01,0.02-0.06,0.07,0.02-0.02
			c0.04-0.05,0.09-0.1,0.14-0.14c0.05-0.05,0.1-0.09,0.15-0.13c0.01-0.01,0.08-0.06,0.02-0.02c0.03-0.02,0.06-0.04,0.1-0.07
			c0.54-0.36,1.17-0.51,1.83-0.66c0.25-0.06,0.42-0.34,0.36-0.59C38.99,146.59,38.73,146.48,38.47,146.53L38.47,146.53z"/>
	</g>
</g>
<g>
	<g>
		<path class="st0" d="M36.91,150.14c0.52-0.15,1.05-0.3,1.57-0.46c0.16-0.05,0.29-0.22,0.24-0.4c-0.05-0.18-0.22-0.26-0.4-0.23
			c-0.54,0.1-1.07,0.21-1.6,0.33c-0.2,0.04-0.35,0.28-0.29,0.48C36.49,150.07,36.7,150.2,36.91,150.14L36.91,150.14z"/>
	</g>
</g>
<g>
	<g>
		<path class="st0" d="M47.9,142.54c-1.39,0.11-2.98,0.62-3.93,1.7c-0.45,0.51-0.67,1.16-0.47,1.83c0.2,0.66,0.75,1.17,1.23,1.64
			c0.96,0.95,2.09,1.92,2.5,3.26c0.21,0.67,0.05,1.23-0.69,1.39c-0.77,0.17-1.48-0.3-2.22-0.37c-0.38-0.04-0.6,0.5-0.32,0.75
			c1,0.9,2.87,1.13,3.89,0.14c1.1-1.06,0.37-2.68-0.39-3.7c-0.42-0.57-0.92-1.08-1.42-1.58c-0.49-0.49-1.17-1-1.48-1.63
			c-0.39-0.78,0.39-1.34,0.99-1.69c0.71-0.41,1.5-0.65,2.32-0.71C48.53,143.51,48.57,142.49,47.9,142.54L47.9,142.54z"/>
	</g>
</g>
<g>
	<g>
		<path class="st0" d="M56.17,146.39c-0.03,0.04-0.06,0.07-0.1,0.11c-0.01,0.01-0.02,0.02-0.02,0.03c-0.02,0.02-0.03,0.04-0.05,0.06
			c0,0,0,0,0,0c0,0,0,0,0,0.01c0,0.01-0.01,0.01-0.01,0.02c-0.01,0.02-0.02,0.04-0.03,0.06c-0.01,0.02-0.02,0.04-0.03,0.06
			c-0.01,0.03-0.01,0.07-0.01,0.1c0,0.02,0.01,0.05,0.02,0.07c0.01,0.04,0.03,0.07,0.06,0.09c0.02,0.01,0.04,0.03,0.06,0.04
			c0.02,0.01,0.04,0.02,0.07,0.03c0.04,0.01,0.07,0.01,0.11,0c0.04,0,0.07-0.01,0.11-0.03c0.02-0.01,0.04-0.02,0.06-0.03
			c0.01,0,0.01-0.01,0.02-0.01c0.02-0.01,0.03-0.02,0.05-0.03c0.02-0.02,0.04-0.03,0.06-0.05c0.04-0.03,0.07-0.06,0.11-0.1
			c0.03-0.03,0.05-0.06,0.07-0.1c0.02-0.04,0.03-0.07,0.03-0.12c0-0.04-0.01-0.08-0.02-0.12c-0.01-0.04-0.03-0.07-0.07-0.1
			c-0.02-0.02-0.04-0.03-0.06-0.05c-0.05-0.03-0.1-0.04-0.15-0.04c-0.03,0-0.05,0.01-0.08,0.01
			C56.26,146.32,56.21,146.35,56.17,146.39L56.17,146.39z"/>
	</g>
</g>
<g>
	<g>
		<path class="st0" d="M55.69,147.49c0.04,0.04,0.09,0.07,0.13,0.1c0.02,0.01,0.03,0.02,0.05,0.03c0.05,0.03,0.1,0.04,0.15,0.06
			c0.02,0.01,0.04,0.01,0.06,0.02c0.02,0,0.04,0.01,0.06,0.01c0.06,0.01,0.11,0.02,0.17,0.02c0.08,0,0.15-0.01,0.23-0.03
			c0.07-0.02,0.15-0.05,0.21-0.08c0.01,0,0.02-0.01,0.03-0.01c0,0,0.01,0,0.01-0.01c0.02-0.01,0.03-0.02,0.05-0.04
			c0.04-0.02,0.06-0.05,0.08-0.08c0.02-0.03,0.03-0.04,0.05-0.07c0.02-0.04,0.04-0.08,0.05-0.12c0.01-0.03,0.02-0.07,0.03-0.1
			c0.01-0.07,0.03-0.14,0.03-0.21c0-0.07-0.01-0.15-0.03-0.23c-0.02-0.08-0.05-0.15-0.08-0.23c0.02,0.04,0.03,0.08,0.05,0.12
			c-0.02-0.07-0.04-0.15-0.09-0.21c-0.04-0.07-0.09-0.13-0.15-0.18c-0.06-0.06-0.12-0.1-0.19-0.14c-0.1-0.06-0.21-0.07-0.32-0.08
			c-0.02,0-0.04,0-0.05,0c-0.08,0-0.15,0.01-0.22,0.05c-0.07,0.02-0.14,0.06-0.19,0.12c-0.03,0.04-0.06,0.08-0.09,0.12
			c-0.04,0.06-0.06,0.13-0.07,0.2c-0.01,0.05-0.01,0.09,0,0.14c0,0.07,0.02,0.14,0.06,0.21c0.03,0.04,0.06,0.08,0.09,0.12
			c0.07,0.07,0.15,0.11,0.25,0.14c0.02,0,0.03,0.01,0.05,0.02c-0.04-0.02-0.09-0.04-0.13-0.05c0.03,0.01,0.06,0.03,0.1,0.04
			c0.09,0.03,0.06,0.03,0.15,0.04c0.03,0,0.06,0.01,0.09,0.01c-0.05-0.01-0.1-0.01-0.15-0.02c0.03,0,0.07,0.01,0.1,0.03
			c-0.04-0.02-0.09-0.03-0.13-0.05c0.05,0.02,0.09,0.05,0.14,0.07c-0.03-0.03-0.07-0.05-0.1-0.08c0.02,0.02,0.04,0.04,0.05,0.06
			c-0.03-0.03-0.05-0.07-0.08-0.1c0.02,0.02,0.03,0.05,0.05,0.08c-0.02-0.04-0.03-0.08-0.05-0.11c0.02,0.04,0.03,0.08,0.03,0.12
			c0-0.04-0.01-0.08-0.01-0.12c0,0.03,0,0.05,0,0.08c0.01-0.04,0.01-0.07,0.02-0.11c0,0.03-0.01,0.05-0.02,0.07
			c0.02-0.04,0.03-0.07,0.05-0.11c0,0.01-0.01,0.01-0.01,0.02c0.06-0.06,0.11-0.11,0.17-0.17c-0.02,0.01-0.05,0.03-0.07,0.04
			c0.04-0.02,0.07-0.03,0.11-0.05c-0.04,0.01-0.07,0.02-0.11,0.03c0.04-0.01,0.08-0.01,0.12-0.02c-0.04,0.01-0.08,0.01-0.13,0
			c0.04,0,0.08,0.01,0.11,0.01c-0.04-0.01-0.08-0.02-0.12-0.03c0.03,0.01,0.07,0.03,0.1,0.04c-0.04-0.01-0.07-0.03-0.1-0.06
			c0.03,0.02,0.06,0.04,0.09,0.07c-0.01-0.01-0.02-0.01-0.03-0.02c-0.09-0.08-0.19-0.12-0.31-0.12c-0.06,0-0.12,0.01-0.17,0.04
			c-0.06,0.02-0.11,0.05-0.15,0.1c-0.08,0.08-0.14,0.19-0.13,0.31C55.57,147.3,55.6,147.42,55.69,147.49L55.69,147.49z"/>
	</g>
</g>
<g>
	<g>
		<path class="st0" d="M55.83,151.2c-0.11,0.1-0.2,0.25-0.22,0.4c-0.03,0.16-0.03,0.32,0.02,0.47c0.05,0.16,0.13,0.3,0.25,0.41
			c0.06,0.05,0.12,0.11,0.2,0.14c0.11,0.05,0.2,0.07,0.33,0.09c0.08,0.01,0.18-0.02,0.24-0.06c0.06-0.04,0.1-0.08,0.15-0.14
			c0.03-0.04,0.07-0.08,0.09-0.13c0.05-0.09,0.09-0.19,0.11-0.28c0.04-0.16,0.05-0.33,0.04-0.49c-0.01-0.1-0.02-0.2-0.05-0.29
			c-0.01-0.03-0.02-0.06-0.03-0.09c-0.04-0.09-0.1-0.17-0.19-0.21c-0.05-0.03-0.11-0.05-0.17-0.06c-0.21-0.05-0.41-0.01-0.6,0.08
			c-0.09,0.04-0.17,0.1-0.24,0.17c-0.07,0.06-0.13,0.14-0.18,0.23c-0.06,0.11-0.11,0.24-0.11,0.37c0,0.06,0.01,0.13,0.02,0.19
			c0.04,0.14,0.11,0.25,0.24,0.32c0.19,0.11,0.49,0.04,0.6-0.17c0.04-0.08,0.07-0.16,0.07-0.25c0-0.02,0-0.04,0-0.06
			c-0.01,0.04-0.01,0.08-0.02,0.12c0.01-0.06,0.02-0.13,0.03-0.19c-0.01,0.04-0.01,0.08-0.02,0.12c0.01-0.04,0.02-0.08,0.03-0.11
			c-0.02,0.04-0.03,0.07-0.05,0.11c0.02-0.04,0.04-0.08,0.07-0.11c-0.02,0.03-0.05,0.06-0.07,0.09c0.03-0.04,0.06-0.07,0.1-0.1
			c-0.03,0.02-0.06,0.05-0.1,0.07c0.04-0.03,0.08-0.05,0.12-0.07c-0.04,0.02-0.07,0.03-0.11,0.05c0.03-0.01,0.07-0.02,0.1-0.03
			c-0.04,0.01-0.07,0.01-0.11,0.02c0.03,0,0.06,0,0.09,0c-0.04,0-0.07-0.01-0.11-0.01c0.03,0,0.05,0.01,0.07,0.02
			c-0.03-0.01-0.07-0.03-0.1-0.04c0,0,0.01,0,0.01,0c-0.05-0.05-0.1-0.1-0.15-0.15c0.01,0.01,0.01,0.03,0.02,0.04
			c-0.01-0.03-0.03-0.07-0.04-0.1c0.03,0.07,0.05,0.15,0.06,0.23c0-0.03-0.01-0.07-0.01-0.1c0.01,0.05,0,0.1,0,0.15
			c0.01-0.03,0.01-0.07,0.02-0.1c-0.01,0.08-0.03,0.16-0.07,0.24c0.01-0.03,0.03-0.07,0.04-0.1c-0.03,0.08-0.08,0.16-0.13,0.23
			c0.13-0.07,0.25-0.15,0.38-0.22c-0.02,0-0.03,0-0.05,0c0.04,0,0.07,0.01,0.11,0.01c-0.03,0-0.06-0.01-0.09-0.02
			c0.03,0.01,0.07,0.03,0.1,0.04c-0.04-0.01-0.07-0.03-0.1-0.06c0.03,0.02,0.06,0.04,0.09,0.06c-0.04-0.03-0.07-0.06-0.1-0.09
			c0.02,0.03,0.04,0.06,0.07,0.09c-0.03-0.04-0.06-0.09-0.08-0.15c0.01,0.03,0.03,0.07,0.04,0.1c-0.02-0.05-0.03-0.09-0.04-0.14
			c0,0.03,0.01,0.07,0.01,0.1c0-0.05,0-0.09,0-0.13c-0.01,0.03-0.01,0.07-0.02,0.1c0.01-0.03,0.02-0.07,0.03-0.1
			c-0.01,0.03-0.03,0.06-0.04,0.09c0.01-0.03,0.03-0.06,0.05-0.08c-0.02,0.03-0.04,0.05-0.06,0.08c0.01-0.01,0.01-0.02,0.02-0.02
			c0.07-0.07,0.11-0.16,0.12-0.27c0-0.09-0.04-0.21-0.11-0.27C56.22,151.04,55.99,151.05,55.83,151.2L55.83,151.2z"/>
	</g>
</g>
<g>
	<g>
		<path class="st0" d="M70.12,143.15c-1.16,2.27-2.04,4.98-1.9,7.56c0.12,2.24,1.36,4.62,3.81,4.84c0.71,0.06,0.77-0.93,0.17-1.16
			c-1.83-0.68-2.58-2.6-2.59-4.42c-0.01-2.15,0.59-4.33,1.52-6.26C71.46,143.03,70.46,142.48,70.12,143.15L70.12,143.15z"/>
	</g>
</g>
<g>
	<g>
		<path class="st0" d="M75.13,151.86c0.82-1.32,1.65-2.64,2.47-3.96c0.4-0.64,0.8-1.28,1.2-1.92c0.16-0.25,0.31-0.5,0.52-0.71
			c0.21-0.21,0.46-0.27,0.7-0.43c0.16-0.1,0.18-0.33,0.01-0.43c-0.54-0.32-1.2,0.24-1.52,0.64c-0.51,0.61-0.92,1.31-1.36,1.97
			c-0.97,1.44-1.94,2.89-2.92,4.33C73.84,151.92,74.78,152.43,75.13,151.86L75.13,151.86z"/>
	</g>
</g>
<g>
	<g>
		<path class="st0" d="M74.09,146.69c0.46,1.12,0.97,2.24,1.52,3.32c0.27,0.53,0.56,1.06,0.86,1.58c0.31,0.53,0.62,1.11,1.07,1.52
			c0.32,0.3,0.93-0.01,0.8-0.46c-0.17-0.58-0.5-1.09-0.8-1.62c-0.3-0.54-0.6-1.08-0.89-1.63c-0.56-1.08-1.09-2.17-1.57-3.29
			c-0.12-0.28-0.54-0.33-0.78-0.19C74.02,146.09,73.98,146.4,74.09,146.69L74.09,146.69z"/>
	</g>
</g>
<g>
	<g>
		<path class="st0" d="M81.44,146.04c-0.53,1.66-1.04,3.37-0.82,5.13c0.17,1.36,0.88,3.09,2.35,3.47c0.44,0.11,0.98-0.43,0.67-0.85
			c-0.36-0.48-0.76-0.91-1.04-1.44c-0.26-0.49-0.43-1.04-0.5-1.59c-0.18-1.48,0.29-2.97,0.71-4.37
			C83.07,145.49,81.71,145.19,81.44,146.04L81.44,146.04z"/>
	</g>
</g>
<g>
	<g>
		<path class="st0" d="M87.71,148.07c-0.64-0.22-1.35,0.11-1.72,0.65c-0.39,0.58-0.23,1.26,0.18,1.77c0.34,0.42,0.92,0.71,1.16,1.17
			c0.09,0.17,0.16,0.39,0.12,0.59c0.01-0.08-0.03,0.09-0.02,0.05c0.02-0.04-0.07,0.11-0.01,0.03c-0.01,0.02-0.04,0.04-0.06,0.06
			c0.03-0.03,0.05-0.02-0.01-0.01c0.06-0.01-0.01,0-0.05,0c-0.08,0-0.25-0.05-0.35-0.09c-0.14-0.05-0.32-0.14-0.48-0.18
			c-0.18-0.04-0.37-0.06-0.55-0.01c-0.21,0.05-0.33,0.2-0.45,0.36c-0.14,0.19,0.04,0.47,0.26,0.46c0.05,0,0.08,0.01-0.02-0.02
			c0.03,0.01,0.06,0.02,0.09,0.03c0.06,0.02,0.13,0.04,0.19,0.05c0.13,0.04,0.26,0.08,0.38,0.13c0.27,0.1,0.53,0.21,0.82,0.21
			c0.62,0.01,1.08-0.47,1.11-1.07c0.03-0.54-0.22-1.09-0.61-1.45c-0.21-0.19-0.43-0.36-0.64-0.55c-0.18-0.16-0.37-0.34-0.44-0.57
			c-0.08-0.24,0.01-0.43,0.18-0.59c0.13-0.12,0.37-0.22,0.52-0.16c0.26,0.1,0.55,0.04,0.67-0.24
			C88.13,148.42,87.98,148.17,87.71,148.07L87.71,148.07z"/>
	</g>
</g>
<g>
	<g>
		<path class="st0" d="M89.02,147.59c0.86,0.81,1.74,1.63,2.3,2.69c0.24,0.46,0.41,0.98,0.46,1.5c0.05,0.57-0.08,1.11-0.2,1.66
			c-0.09,0.41,0.44,0.76,0.74,0.41c0.92-1.06,0.65-2.68,0.1-3.85c-0.58-1.26-1.64-2.24-2.65-3.16
			C89.29,146.38,88.53,147.12,89.02,147.59L89.02,147.59z"/>
	</g>
</g>
<g>
	<g>
		<path class="st0" d="M96.46,153.01c0.08,0.12,0.15,0.25,0.21,0.38c0.01,0.02,0.09,0.21,0.05,0.12c0.03,0.07,0.05,0.14,0.07,0.21
			c0.04,0.12,0.07,0.24,0.1,0.37c0.02,0.07,0.03,0.14,0.04,0.21c0,0.02,0.03,0.22,0.02,0.13c0.06,0.56-0.03,1.11-0.07,1.67
			c-0.01,0.19,0.14,0.37,0.32,0.42c0.2,0.05,0.4-0.05,0.5-0.21c0.39-0.59,0.43-1.35,0.35-2.03c-0.08-0.64-0.31-1.27-0.66-1.81
			c-0.15-0.24-0.48-0.34-0.73-0.18C96.43,152.43,96.3,152.75,96.46,153.01L96.46,153.01z"/>
	</g>
</g>
<g>
	<g>
		<path class="st0" d="M103.94,145.82c-0.52,1.4-1.03,2.79-1.55,4.19c-0.25,0.69-0.51,1.37-0.75,2.06
			c-0.21,0.58-0.64,1.49-0.31,2.08c0.12,0.22,0.39,0.24,0.6,0.15c0.6-0.27,0.84-1.26,1.04-1.82c0.26-0.71,0.51-1.42,0.76-2.14
			c0.49-1.4,0.98-2.8,1.47-4.21C105.48,145.33,104.22,145.06,103.94,145.82L103.94,145.82z"/>
	</g>
</g>
<g>
	<g>
		<path class="st0" d="M102.59,148.87c-0.46-0.72-0.92-1.44-1.39-2.16c-0.23-0.35-0.46-0.71-0.68-1.06c-0.13-0.2-0.24-0.4-0.39-0.58
			c-0.14-0.18-0.27-0.37-0.51-0.4c-0.19-0.03-0.37,0.06-0.44,0.25c-0.14,0.42,0.26,0.89,0.47,1.23c0.22,0.36,0.44,0.72,0.66,1.08
			c0.45,0.73,0.89,1.46,1.34,2.19C102,150,102.96,149.45,102.59,148.87L102.59,148.87z"/>
	</g>
</g>
<g>
	<g>
		<path class="st0" d="M108.83,145.25c-1.21,1.4-1.78,3.34-1.35,5.16c0.41,1.71,1.67,3.24,3.35,3.8c0.57,0.19,0.87-0.63,0.4-0.94
			c-1.14-0.76-2.07-1.81-2.41-3.16c-0.35-1.39-0.05-2.92,0.86-4.04c0.2-0.25,0.26-0.6,0.01-0.85
			C109.47,145.01,109.04,145.01,108.83,145.25L108.83,145.25z"/>
	</g>
</g>
<g>
	<g>
		<path class="st0" d="M114.52,147.99c-0.72-0.05-1.58,0.06-1.85,0.86c-0.25,0.74,0.47,1.25,0.9,1.73c0.39,0.44,0.8,1.05,0.62,1.66
			c-0.06,0.2-0.2,0.34-0.37,0.4c-0.24,0.08-0.38-0.03-0.63-0.08c-0.37-0.07-0.63,0.28-0.48,0.61c0.14,0.32,0.55,0.44,0.87,0.43
			c0.34-0.01,0.65-0.14,0.92-0.35c0.57-0.45,0.7-1.24,0.51-1.91c-0.2-0.72-0.72-1.26-1.22-1.78c-0.14-0.15-0.41-0.34-0.23-0.55
			c0.21-0.25,0.67-0.17,0.95-0.15c0.24,0.02,0.45-0.21,0.45-0.44C114.96,148.17,114.76,148.01,114.52,147.99L114.52,147.99z"/>
	</g>
</g>
<g>
	<g>
		<path class="st0" d="M116.99,147.31c0.83,0.92,1.37,2.05,1.59,3.27c0.24,1.26,0,2.42-0.24,3.65c-0.07,0.36,0.41,0.57,0.61,0.24
			c0.7-1.18,0.71-2.74,0.48-4.06c-0.25-1.38-0.88-2.67-1.82-3.71C117.25,146.29,116.62,146.9,116.99,147.31L116.99,147.31z"/>
	</g>
</g>
<g>
	<g>
		<path class="st0" d="M119.96,143.56c1.48,1.56,2.58,3.45,3.21,5.5c0.56,1.85,1.1,4.29,0.17,6.09c-0.2,0.39,0.27,0.72,0.59,0.44
			c0.79-0.71,0.95-1.91,0.92-2.91c-0.04-1.22-0.24-2.43-0.6-3.6c-0.72-2.31-1.98-4.41-3.68-6.13
			C120.19,142.56,119.58,143.16,119.96,143.56L119.96,143.56z"/>
	</g>
</g>
<g>
	<g>
		<path class="st0" d="M133.85,146.92c-1.29-0.3-2.61,0.53-3.08,1.73c-0.48,1.21,0.21,2.55,1.35,3.09c0.66,0.32,1.41,0.38,2.08,0.03
			c0.44-0.23,0.15-0.86-0.31-0.77c-0.16,0.03-0.39,0.04-0.6,0.03c-0.08,0,0,0-0.08-0.01c-0.06-0.01-0.12-0.02-0.18-0.04
			c-0.11-0.03-0.22-0.05-0.32-0.09c0.06,0.02-0.06-0.03-0.07-0.03c-0.06-0.03-0.11-0.05-0.16-0.09c-0.1-0.05-0.18-0.11-0.22-0.15
			c-0.09-0.07-0.17-0.15-0.25-0.23c-0.04-0.04-0.07-0.08-0.1-0.12c-0.04-0.04-0.01-0.01,0,0c-0.02-0.03-0.04-0.06-0.06-0.08
			c-0.23-0.33-0.34-0.71-0.25-1.1c0.09-0.43,0.35-0.8,0.7-1.06c0.37-0.28,0.85-0.43,1.33-0.33
			C134.14,147.83,134.38,147.05,133.85,146.92L133.85,146.92z"/>
	</g>
</g>
<g>
	<g>
		<path class="st0" d="M131.91,150.04c0.05-0.01,0.1-0.02,0.15-0.03c0.02,0,0.18-0.04,0.07-0.01c0.08-0.02,0.18-0.02,0.26-0.02
			c0.09,0,0.18,0,0.27,0c0.05,0,0.1,0.01,0.15,0.01c0.03,0,0.05,0,0.08,0.01c-0.05-0.01-0.06-0.01-0.02,0
			c0.18,0.03,0.36,0.07,0.54,0.11c0.2,0.05,0.39,0.12,0.6,0.13c0.24,0.01,0.48-0.31,0.31-0.52c-0.09-0.12-0.18-0.2-0.3-0.28
			c-0.08-0.05-0.18-0.1-0.27-0.13c-0.22-0.09-0.44-0.15-0.67-0.19c-0.47-0.07-0.93-0.06-1.39,0.04c-0.24,0.05-0.42,0.34-0.35,0.58
			C131.41,149.97,131.66,150.1,131.91,150.04L131.91,150.04z"/>
	</g>
</g>
<g>
	<g>
		<path class="st0" d="M142.76,145.47c-0.88-0.34-1.88-0.01-2.57,0.59c-0.71,0.62-1.16,1.54-1.46,2.41
			c-0.27,0.77-0.43,1.68-0.17,2.47c0.3,0.9,1.06,1.45,2,1.54c1.04,0.1,2.05-0.35,3.08-0.44c0.24-0.02,0.46-0.17,0.49-0.43
			c0.03-0.23-0.11-0.48-0.35-0.53c-0.8-0.14-1.55,0.05-2.34,0.16c-0.58,0.08-1.28,0.1-1.65-0.39c-0.35-0.46-0.32-1.14-0.22-1.68
			c0.14-0.71,0.42-1.44,0.83-2.03c0.47-0.68,1.29-1.17,2.12-0.87c0.21,0.08,0.46-0.1,0.52-0.3
			C143.12,145.73,142.97,145.55,142.76,145.47L142.76,145.47z"/>
	</g>
</g>
<g>
	<g>
		<path class="st0" d="M146.17,142.09c0.7,0.4,0.72,1.38,0.58,2.08c-0.19,0.97-0.51,1.94-0.23,2.93c0.46,1.61,2.31,2.77,3.95,2.23
			c0.49-0.16,0.46-0.92-0.1-0.91c-1.41,0.01-2.76-1.08-2.76-2.55c0-0.9,0.28-1.79,0.17-2.69c-0.09-0.77-0.43-1.5-1.14-1.88
			C146.13,141.02,145.66,141.79,146.17,142.09L146.17,142.09z"/>
	</g>
</g>
<g>
	<g>
		<path class="st0" d="M146.08,157.6c1.28,0.19,2.68,0.36,3.84-0.37c0.94-0.59,1.56-1.69,1.19-2.8c-0.17-0.53-0.51-0.98-0.94-1.33
			c-0.21-0.18-0.44-0.33-0.69-0.46c-0.22-0.11-0.49-0.19-0.68-0.36c-0.43-0.37,0.11-1.24,0.34-1.62c0.31-0.52,0.72-0.97,1.13-1.42
			c0.3-0.33-0.07-0.8-0.46-0.59c-1,0.52-1.68,1.56-1.96,2.64c-0.13,0.51-0.16,1.07,0.25,1.47c0.35,0.34,0.86,0.41,1.28,0.65
			c0.96,0.56,1.48,1.85,0.58,2.7c-0.95,0.89-2.42,0.65-3.59,0.46C145.72,156.49,145.41,157.5,146.08,157.6L146.08,157.6z"/>
	</g>
</g>
<g>
	<g>
		<path class="st0" d="M23,139.53c-1.58,0.36-2.66,2.05-2.32,3.64c0.17,0.81,0.94,1.65,0.74,2.51c-0.09,0.36-0.38,0.67-0.67,0.89
			c-0.34,0.26-0.84,0.42-1.06,0.8c-0.17,0.29,0.04,0.66,0.38,0.66c0.42,0,0.79-0.33,1.11-0.58c0.31-0.25,0.6-0.53,0.82-0.87
			c0.5-0.77,0.39-1.62,0.05-2.42c-0.32-0.76-0.68-1.45-0.36-2.27c0.27-0.68,0.84-1.17,1.56-1.31
			C23.94,140.44,23.69,139.37,23,139.53L23,139.53z"/>
	</g>
</g>
<g>
	<g>
		<path class="st0" d="M23.53,155.97c-1-0.24-2.07-0.63-2.89-1.27c-0.45-0.35-0.27-0.77-0.01-1.19c0.3-0.47,0.64-0.91,0.96-1.35
			c0.53-0.74,1.33-1.63,0.88-2.6c-0.22-0.48-0.67-0.85-1.03-1.23c-0.39-0.41-0.73-0.86-1.27-1.06c-0.3-0.12-0.66,0.25-0.56,0.55
			c0.19,0.56,0.69,0.96,1.09,1.37c0.31,0.32,0.95,0.74,0.75,1.25c-0.19,0.48-0.59,0.92-0.89,1.34c-0.33,0.46-0.69,0.92-0.96,1.42
			c-0.5,0.94-0.32,1.82,0.55,2.44c0.92,0.65,1.99,1.08,3.08,1.34C23.89,157.13,24.19,156.13,23.53,155.97L23.53,155.97z"/>
	</g>
</g>
<g>
	<g>
		<path class="st1" d="M45.53,69.09c0.58,4.03-0.57,8.01-2.06,11.72c-1.33,3.33-2.88,6.61-4.84,9.62c-1.97,3.03-4.38,5.75-7.32,7.88
			c-3.06,2.21-6.47,3.89-9.69,5.85c-6,3.66-11.64,8.12-15.74,13.89c-4.1,5.76-6.53,12.96-5.72,20.07c0.35,3.13,1.34,6.51,3.74,8.7
			c2.52,2.31,6.1,2.57,9.35,2.24c0.86-0.09,1.7-0.25,2.54-0.43c0.48-0.11,0.42-0.89-0.1-0.86c-3.3,0.2-6.9,0.89-9.9-0.91
			c-2.86-1.71-3.99-5.15-4.44-8.27c-1.02-7.05,1.42-14.3,5.46-20.04c4.05-5.74,9.69-10.18,15.66-13.78
			c3.17-1.91,6.52-3.55,9.53-5.74c2.8-2.03,5.16-4.56,7.09-7.42c2.17-3.21,3.84-6.75,5.22-10.37c1.5-3.93,2.59-8.13,1.93-12.36
			C46.15,68.45,45.47,68.65,45.53,69.09L45.53,69.09z"/>
	</g>
</g>
<g>
	<g>
		<path class="st1" d="M178.55,86.53c3.96,3.2,7.97,6.54,11,10.67c3.09,4.24,4.74,9.16,4.19,14.43c-0.58,5.54-3.26,10.72-6.4,15.23
			c-2.99,4.3-6.96,8.12-8.76,13.15c-0.76,2.11-1.75,5.98,0.94,7.15c1.36,0.59,3.06,0.52,4.51,0.57c1.81,0.06,3.63,0.03,5.43-0.13
			c0.59-0.06,0.65-0.97,0.02-0.94c-1.56,0.07-3.13,0.13-4.69,0.11c-1.45-0.02-3.07,0.08-4.48-0.29c-2.79-0.74-1.22-5.09-0.47-6.85
			c2.06-4.86,6.1-8.59,9.05-12.88c3.06-4.45,5.53-9.49,6.13-14.91c0.57-5.11-0.9-10.07-3.79-14.28c-3.2-4.64-7.62-8.23-11.98-11.73
			C178.78,85.45,178.07,86.14,178.55,86.53L178.55,86.53z"/>
	</g>
</g>
<g>
	<g>
		<path class="st1" d="M45.25,68.81c-0.37,0.22-0.72,0.47-1.06,0.74c-0.15,0.12-0.29,0.25-0.43,0.38c-0.1,0.09-0.18,0.21-0.25,0.32
			c-0.08,0.11-0.12,0.23-0.16,0.36c-0.06,0.19,0.02,0.4,0.18,0.51c0.07,0.05,0.14,0.08,0.23,0.09c0.12,0.01,0.21-0.01,0.32-0.06
			c0.06-0.03,0.13-0.05,0.18-0.09c0.06-0.04,0.11-0.08,0.16-0.12c0.16-0.11,0.29-0.25,0.43-0.38c0.21-0.19,0.43-0.38,0.65-0.55
			c-0.04,0.03-0.09,0.07-0.13,0.1c0.14-0.11,0.29-0.21,0.44-0.31c0.13-0.09,0.23-0.2,0.28-0.35c0.04-0.13,0.03-0.31-0.05-0.43
			C45.87,68.74,45.53,68.65,45.25,68.81L45.25,68.81z"/>
	</g>
</g>
<g>
	<g>
		<path class="st1" d="M45.69,69.88c0.32,0.52,0.74,0.95,1.23,1.31c0.21,0.15,0.44,0.27,0.68,0.37c0.16,0.06,0.31,0.13,0.47,0.17
			c0.16,0.05,0.32,0.06,0.49,0.05c0.48-0.01,0.7-0.66,0.26-0.91c-0.05-0.03-0.1-0.06-0.15-0.09c-0.04-0.03-0.08-0.04-0.13-0.06
			c-0.03-0.01-0.07-0.03-0.1-0.04c0.02,0.01,0.04,0.02,0.06,0.03c-0.1-0.06-0.22-0.09-0.33-0.15c-0.11-0.06-0.21-0.12-0.31-0.18
			c-0.05-0.03-0.1-0.07-0.15-0.1c-0.03-0.02-0.06-0.04-0.09-0.06c-0.02-0.01-0.11-0.08-0.03-0.02c0.08,0.06-0.02-0.01-0.02-0.02
			c-0.02-0.02-0.05-0.04-0.07-0.06c-0.05-0.04-0.09-0.08-0.14-0.12c-0.09-0.08-0.18-0.16-0.26-0.25c-0.04-0.04-0.08-0.09-0.12-0.13
			c-0.02-0.02-0.04-0.05-0.06-0.07c-0.07-0.08,0.06,0.09,0.02,0.03c-0.07-0.1-0.15-0.21-0.21-0.31c-0.16-0.27-0.55-0.38-0.82-0.21
			C45.65,69.23,45.51,69.59,45.69,69.88L45.69,69.88z"/>
	</g>
</g>
<g>
	<g>
		<path class="st1" d="M177.84,86.84c0.02,0.28,0.03,0.55,0.05,0.83c0.01,0.14,0.03,0.27,0.04,0.41c0.01,0.09,0,0.18,0.03,0.26
			c0.02,0.08,0.06,0.15,0.09,0.23c0.03,0.06,0.05,0.12,0.08,0.18c0.03,0.04,0.07,0.09,0.1,0.13c0.04,0.03,0.08,0.06,0.13,0.09
			c0.12,0.07,0.25,0.08,0.38,0.07c0.24-0.03,0.46-0.21,0.53-0.45c0.05-0.18,0.1-0.35,0.1-0.53c0-0.14,0-0.27-0.01-0.41
			c-0.01-0.27-0.03-0.54-0.05-0.81c-0.01-0.2-0.07-0.37-0.21-0.52c-0.13-0.12-0.33-0.21-0.51-0.2c-0.19,0.01-0.4,0.08-0.53,0.22
			C177.94,86.47,177.83,86.66,177.84,86.84L177.84,86.84z"/>
	</g>
</g>
<g>
	<g>
		<path class="st1" d="M179.28,86.55c0.14-0.02,0.28-0.05,0.43-0.07c0.06-0.01,0.12-0.02,0.18-0.03c0.2-0.03-0.11,0.01,0.09-0.01
			c0.26-0.03,0.53-0.06,0.79-0.09c0.56-0.05,1.13-0.11,1.67-0.26c0.21-0.06,0.37-0.25,0.38-0.47c0-0.21-0.15-0.43-0.36-0.47
			c-0.61-0.12-1.21-0.08-1.82,0c-0.55,0.08-1.1,0.17-1.64,0.29c-0.29,0.06-0.51,0.41-0.43,0.7
			C178.67,86.47,178.96,86.6,179.28,86.55L179.28,86.55z"/>
	</g>
</g>
<g>
	<g>
		<path class="st1" d="M62.78,162.18c-0.07,1.11-0.11,2.22-0.1,3.33c0,0.54,0.01,1.09,0.05,1.63c0.04,0.55,0.04,1.14,0.26,1.66
			c0.15,0.35,0.75,0.23,0.82-0.12c0.11-0.53,0.01-1.08-0.02-1.61c-0.03-0.54-0.07-1.09-0.09-1.63c-0.04-1.09-0.03-2.17,0.02-3.26
			C63.76,161.56,62.82,161.59,62.78,162.18L62.78,162.18z"/>
	</g>
</g>
<g>
	<g>
		<path class="st1" d="M199.52,162.42c0.12,1.28,0.23,2.57,0.36,3.85c0.06,0.58,0.08,1.23,0.25,1.78c0.15,0.47,0.59,0.84,1.08,0.59
			c0.34-0.17,0.19-0.68-0.18-0.69c0.13,0,0.12,0.14,0.07-0.05c-0.02-0.09-0.03-0.15-0.03-0.24c0-0.23-0.02-0.47-0.04-0.7
			c-0.04-0.51-0.08-1.01-0.13-1.52c-0.1-1.01-0.2-2.02-0.3-3.04c-0.03-0.29-0.22-0.54-0.54-0.54
			C199.82,161.88,199.49,162.13,199.52,162.42L199.52,162.42z"/>
	</g>
</g>
<g>
	<g>
		<path class="st1" d="M64.45,169.72c17.84,0.15,35.68,0.2,53.52,0.2c17.75,0,35.5-0.1,53.25-0.33c5.01-0.06,10.01-0.16,15.02-0.23
			c5-0.08,10.02-0.04,15.02-0.31c0.48-0.03,0.51-0.74,0.01-0.74c-4.45-0.08-8.92,0.1-13.38,0.17c-4.46,0.07-8.92,0.12-13.38,0.16
			c-8.92,0.09-17.84,0.2-26.76,0.27c-17.75,0.14-35.5,0.2-53.25,0.17c-10.01-0.02-20.02-0.14-30.04-0.24
			C63.89,168.83,63.86,169.71,64.45,169.72L64.45,169.72z"/>
	</g>
</g>
<g>
	<g>
		<path class="st1" d="M126.59,170.04c0.04,0.48,0.07,0.96,0.09,1.43c0.02,0.48-0.01,0.96,0,1.44c0.01,0.48,0.01,0.96,0.01,1.44
			c0,0.47-0.03,0.99,0.11,1.44c0.14,0.46,0.7,0.38,0.86-0.01c0.18-0.43,0.19-0.98,0.2-1.44c0.01-0.5,0-1-0.03-1.5
			c-0.03-0.49-0.12-0.97-0.18-1.45c-0.06-0.49-0.13-0.98-0.22-1.47C127.34,169.46,126.55,169.58,126.59,170.04L126.59,170.04z"/>
	</g>
</g>
<g>
	<g>
		<path class="st1" d="M62.64,161.77c-0.25,0.26-0.51,0.52-0.76,0.78c-0.27,0.27-0.55,0.56-0.7,0.92c-0.06,0.13-0.07,0.29,0.05,0.4
			c0.12,0.11,0.26,0.11,0.41,0.05c0.36-0.16,0.65-0.44,0.92-0.71c0.26-0.25,0.52-0.51,0.78-0.76c0.18-0.18,0.2-0.51,0-0.69
			C63.14,161.58,62.83,161.57,62.64,161.77L62.64,161.77z"/>
	</g>
</g>
<g>
	<g>
		<path class="st1" d="M63.11,162.93c0.3,0.33,0.62,0.66,0.95,0.96c0.17,0.15,0.33,0.29,0.51,0.43c0.13,0.09,0.24,0.18,0.39,0.24
			c0.09,0.04,0.18,0.09,0.28,0.11c0.09,0.02,0.18,0.02,0.27,0.03c0.18,0.02,0.38-0.12,0.46-0.27c0.1-0.17,0.08-0.34,0.01-0.52
			c-0.2-0.44-0.64-0.7-1-0.99c-0.34-0.27-0.68-0.56-0.99-0.87c-0.23-0.22-0.65-0.22-0.87,0.02
			C62.89,162.33,62.88,162.68,63.11,162.93L63.11,162.93z"/>
	</g>
</g>
<g>
	<g>
		<path class="st1" d="M199.44,162.06c-0.31,0.31-0.62,0.62-0.95,0.91c-0.16,0.15-0.32,0.29-0.48,0.43
			c-0.18,0.16-0.38,0.32-0.49,0.54c-0.07,0.14-0.07,0.29,0.03,0.42c0.09,0.12,0.25,0.18,0.4,0.13c0.13-0.04,0.24-0.09,0.35-0.17
			c0.12-0.08,0.22-0.18,0.33-0.27c0.17-0.15,0.33-0.3,0.49-0.45c0.32-0.31,0.63-0.62,0.94-0.95c0.15-0.16,0.18-0.45,0-0.61
			C199.88,161.89,199.61,161.88,199.44,162.06L199.44,162.06z"/>
	</g>
</g>
<g>
	<g>
		<path class="st1" d="M199.66,162.84c0.3,0.32,0.61,0.65,0.96,0.91c0.2,0.15,0.4,0.31,0.61,0.45c0.09,0.06,0.18,0.11,0.28,0.17
			c0.12,0.07,0.27,0.11,0.4,0.16c0.19,0.07,0.44-0.06,0.53-0.23c0.1-0.19,0.08-0.4-0.07-0.56c-0.07-0.08-0.14-0.16-0.22-0.23
			c-0.08-0.06-0.16-0.13-0.24-0.19c-0.17-0.14-0.34-0.27-0.51-0.41c-0.33-0.27-0.67-0.54-0.98-0.83c-0.2-0.19-0.56-0.2-0.75,0.02
			C199.46,162.32,199.45,162.62,199.66,162.84L199.66,162.84z"/>
	</g>
</g>
<g>
	<g>
		<path class="st1" d="M93.01,179.18c-0.01,1.1-0.02,2.2-0.02,3.3c0,0.55,0.01,1.1,0.02,1.65c0.01,0.54-0.01,1.12,0.14,1.63
			c0.13,0.43,0.73,0.41,0.86-0.01c0.16-0.52,0.15-1.1,0.17-1.64c0.02-0.55,0.04-1.1,0.05-1.65c0.02-1.1,0.03-2.2,0.04-3.3
			C94.3,178.35,93.02,178.38,93.01,179.18L93.01,179.18z"/>
	</g>
</g>
<g>
	<g>
		<path class="st1" d="M91.6,183.26c1.36,0.14,2.79,0.23,4.14-0.03c0.41-0.08,0.46-0.79,0.02-0.85c-1.32-0.18-2.67-0.22-3.96-0.4
			c-0.39-0.05-0.76,0.13-0.83,0.55C90.9,182.95,91.21,183.22,91.6,183.26L91.6,183.26z"/>
	</g>
</g>
<g>
	<g>
		<path class="st1" d="M95.74,180.26c0.03,0.9,0.1,1.8,0.21,2.69c0.05,0.43,0.11,0.86,0.19,1.29c0.08,0.45,0.15,0.92,0.36,1.33
			c0.25,0.48,0.98,0.22,0.99-0.27c0.02-0.5,0.15-1.06,0.36-1.52c0.05-0.11,0.14-0.32,0.27-0.36c0.17-0.04,0.37,0.18,0.45,0.3
			c0.62,0.82,0.37,2.05,0.48,3c0.04,0.37,0.62,0.31,0.7-0.01c0.18-0.72,0.19-1.5,0.09-2.23c-0.1-0.69-0.35-1.43-0.96-1.82
			c-0.61-0.39-1.33-0.18-1.72,0.39c-0.42,0.61-0.54,1.42-0.7,2.12c0.35,0.04,0.69,0.08,1.04,0.12c0.03-0.42-0.08-0.84-0.14-1.25
			c-0.07-0.43-0.14-0.86-0.19-1.29c-0.11-0.83-0.2-1.66-0.26-2.5C96.85,179.52,95.72,179.54,95.74,180.26L95.74,180.26z"/>
	</g>
</g>
<g>
	<g>
		<path class="st1" d="M100.81,185.33c0.49,0.24,1.02,0.48,1.58,0.46c0.5-0.02,1.01-0.24,1.28-0.68c0.25-0.41,0.23-0.93,0.04-1.36
			c-0.2-0.45-0.64-0.75-1.11-0.85c-1.04-0.21-2.03,0.39-2.42,1.35c-0.39,0.96,0.03,2.03,0.79,2.68c0.49,0.41,1.05,0.67,1.68,0.78
			c0.69,0.12,1.34,0.08,2.03-0.01c0.51-0.07,0.53-0.92,0.02-1.01c-0.45-0.07-0.83-0.12-1.26-0.18c-0.21-0.03-0.42-0.07-0.63-0.13
			c-0.09-0.02-0.18-0.05-0.27-0.08c-0.05-0.01-0.09-0.03-0.14-0.04c-0.01,0-0.22-0.09-0.08-0.03c-0.15-0.07-0.3-0.14-0.44-0.23
			c-0.04-0.03-0.08-0.05-0.12-0.08c0.02,0.02,0.09,0.07-0.01-0.01c-0.07-0.06-0.14-0.13-0.21-0.2c-0.03-0.03-0.16-0.18-0.08-0.09
			c-0.05-0.07-0.1-0.14-0.14-0.21c-0.04-0.07-0.08-0.15-0.11-0.22c0.01,0.03,0.03,0.09,0-0.01c-0.01-0.05-0.03-0.11-0.04-0.16
			c-0.05-0.23,0-0.5,0.14-0.75c0.13-0.23,0.33-0.43,0.6-0.54c0.5-0.2,1.29,0.11,1.21,0.75c-0.04,0.31-0.31,0.46-0.61,0.47
			c-0.44,0.02-0.84-0.21-1.21-0.41C100.77,184.27,100.28,185.08,100.81,185.33L100.81,185.33z"/>
	</g>
</g>
<g>
	<g>
		<path class="st1" d="M106.27,182.62c-0.54,0.22-1.01,0.5-1.45,0.88c-0.18,0.16-0.23,0.49-0.1,0.69c0.22,0.35,0.55,0.59,0.91,0.78
			c0.15,0.08,0.31,0.15,0.46,0.23c0.03,0.01,0.2,0.14,0.23,0.14c-0.03,0.01-0.1-0.08-0.01,0c0.03,0.03,0.06,0.06,0.09,0.09
			c0.1,0.1-0.05-0.1,0,0c0.01,0.02,0.03,0.08,0.05,0.09c-0.03-0.09-0.04-0.11-0.03-0.06c0.01,0.02,0.01,0.04,0.02,0.05
			c0.04,0.11-0.01-0.08,0.01,0.07c0,0.04,0,0.03,0.01-0.03c-0.01,0.03-0.02,0.06-0.03,0.09c-0.03,0.11,0.05-0.06-0.02,0.04
			c-0.02,0.02-0.11,0.13-0.02,0.04c-0.04,0.04-0.09,0.08-0.13,0.13c-0.03,0.03-0.03,0.02,0.03-0.02c-0.03,0.02-0.06,0.04-0.09,0.05
			c-0.02,0.01-0.17,0.09-0.07,0.04c-0.12,0.05-0.25,0.08-0.37,0.11c-0.07,0.01-0.14,0.03-0.21,0.04c-0.1,0.02,0.01,0-0.1,0.01
			c0.02,0-0.24,0.05-0.26,0.04c0.03-0.01,0.05-0.01,0.08,0c-0.05-0.01-0.11-0.01-0.16-0.02c0.08,0.02,0.16,0.04,0.24,0.06
			c0.02,0.01,0.04,0.03,0.05,0.04c0.04,0.07,0.08,0.13,0.12,0.2c0,0.02,0,0.04,0.01,0.06c-0.04,0.09-0.08,0.18-0.12,0.28
			c0.01,0,0.01-0.01,0.02-0.01c0.16-0.14,0.14-0.39,0-0.53c-0.31-0.32-0.81,0-0.82,0.39c-0.01,0.48,0.49,0.56,0.86,0.56
			c0.61,0,1.27-0.14,1.72-0.59c0.43-0.44,0.62-1.11,0.32-1.68c-0.2-0.37-0.57-0.6-0.94-0.77c-0.18-0.08-0.36-0.16-0.54-0.26
			c-0.04-0.03-0.09-0.05-0.13-0.08c-0.01-0.01-0.07-0.05,0,0c0.08,0.05-0.02-0.02-0.03-0.03c-0.02-0.02-0.1-0.12-0.05-0.05
			c0.05,0.08-0.04-0.07-0.05-0.1c-0.07,0.26-0.15,0.52-0.22,0.79c0.18-0.13,0.36-0.25,0.55-0.36c0.09-0.05,0.17-0.1,0.26-0.14
			c0.05-0.03,0.11-0.05,0.16-0.08c0.12-0.06-0.07,0.03,0.07-0.03c0.29-0.11,0.55-0.4,0.45-0.74
			C106.93,182.76,106.58,182.5,106.27,182.62L106.27,182.62z"/>
	</g>
</g>
<g>
	<g>
		<path class="st1" d="M108.27,185.67c0.5,0.13,1.02,0.24,1.54,0.16c0.39-0.07,0.78-0.26,1.05-0.56c0.27-0.31,0.41-0.7,0.33-1.11
			c-0.07-0.36-0.33-0.66-0.64-0.86c-0.68-0.43-1.51-0.24-2.04,0.33c-0.59,0.64-0.84,1.68-0.42,2.47c0.25,0.47,0.69,0.79,1.18,0.96
			c0.54,0.19,1.09,0.18,1.65,0.12c0.25-0.02,0.47-0.18,0.5-0.44c0.03-0.22-0.11-0.51-0.36-0.54c-0.4-0.05-0.76-0.09-1.1-0.16
			c-0.09-0.02-0.18-0.04-0.26-0.07c-0.03-0.01-0.07-0.02-0.1-0.04c0.11,0.04,0.01,0-0.02-0.01c-0.14-0.07-0.28-0.13-0.41-0.22
			c-0.09-0.06-0.02-0.02,0,0c-0.03-0.03-0.06-0.05-0.09-0.08c-0.02-0.02-0.05-0.04-0.07-0.07c-0.02-0.02-0.08-0.1-0.02-0.02
			c-0.1-0.14-0.13-0.22-0.17-0.39c-0.05-0.28-0.01-0.52,0.1-0.78c0.17-0.4,0.57-0.76,1.06-0.63c0.42,0.11,0.74,0.58,0.44,0.96
			c-0.16,0.2-0.41,0.32-0.68,0.35c-0.42,0.04-0.83-0.05-1.23-0.15C107.99,184.78,107.76,185.54,108.27,185.67L108.27,185.67z"/>
	</g>
</g>
<g>
	<g>
		<path class="st1" d="M117.13,179.12c0.19,1.16,0.38,2.32,0.57,3.48c0.09,0.57,0.18,1.13,0.28,1.7c0.09,0.57,0.14,1.22,0.35,1.76
			c0.18,0.45,0.9,0.55,1.03-0.01c0.09-0.41,0.2-0.83,0.33-1.23c0.04-0.13,0.1-0.47,0.2-0.57c-0.02,0.02-0.03-0.03,0.05,0
			c0.07,0.02,0.12,0.11,0.16,0.17c0.45,0.67,0.47,1.51,0.74,2.24c0.17,0.47,0.82,0.38,0.87-0.12c0.06-0.63-0.17-1.28-0.4-1.86
			c-0.2-0.5-0.42-1.08-0.95-1.31c-0.48-0.21-1.02-0.03-1.26,0.43c-0.14,0.27-0.19,0.58-0.29,0.86c-0.12,0.34-0.26,0.67-0.4,0.99
			c0.33,0.08,0.66,0.16,0.99,0.25c0.02-0.58-0.14-1.2-0.23-1.77c-0.1-0.59-0.2-1.18-0.31-1.77c-0.2-1.18-0.41-2.36-0.61-3.54
			C118.1,178.12,117.02,178.43,117.13,179.12L117.13,179.12z"/>
	</g>
</g>
<g>
	<g>
		<path class="st1" d="M126.25,183.71c-0.58-0.36-1.2-0.7-1.9-0.66c-0.72,0.04-1.31,0.47-1.55,1.16c-0.2,0.59-0.09,1.3,0.27,1.81
			c0.42,0.59,1.13,0.97,1.86,0.72c0.7-0.24,1.25-0.9,1.25-1.66c-0.36,0.1-0.72,0.2-1.08,0.29c0.34,0.63,0.94,1.31,1.69,1.41
			c0.45,0.07,0.8-0.42,0.47-0.79c-0.2-0.22-0.43-0.4-0.64-0.61c-0.11-0.1-0.21-0.21-0.31-0.32c-0.01-0.02-0.15-0.19-0.08-0.1
			c-0.04-0.06-0.09-0.12-0.13-0.18c-0.13-0.2-0.39-0.33-0.64-0.26c-0.23,0.07-0.46,0.29-0.44,0.55c0,0.06,0.01,0.12,0,0.19
			c0.01-0.15-0.07,0.13,0-0.01c-0.01,0.02-0.12,0.19-0.04,0.08c-0.04,0.05-0.09,0.09-0.13,0.14c-0.05,0.04-0.05,0.04,0.01-0.01
			c-0.03,0.02-0.05,0.04-0.08,0.05c-0.04,0.02-0.16,0.05-0.02,0.01c-0.06,0.02-0.12,0.03-0.18,0.05c0.16-0.03-0.04-0.01-0.07-0.01
			c0.15,0-0.03-0.02-0.07-0.03c-0.07-0.02-0.06-0.02,0.01,0c-0.03-0.01-0.06-0.03-0.09-0.04c-0.02-0.01-0.15-0.11-0.04-0.02
			c-0.05-0.04-0.1-0.09-0.15-0.14c-0.02-0.02-0.05-0.05-0.07-0.08c0.05,0.06,0.05,0.07,0.01,0.01c-0.04-0.06-0.07-0.12-0.11-0.18
			c-0.02-0.03-0.03-0.06-0.04-0.09c0.03,0.07,0.03,0.08,0.01,0.01c-0.02-0.06-0.04-0.11-0.05-0.17c-0.01-0.03-0.03-0.2-0.02-0.07
			c-0.01-0.07-0.01-0.13-0.01-0.2c0-0.03,0-0.07,0.01-0.1c-0.01,0.06-0.01,0.06,0,0c0.02-0.06,0.03-0.12,0.05-0.19
			c-0.04,0.11,0.04-0.06,0.05-0.08c0.05-0.09-0.06,0.03,0.03-0.04c0.02-0.02,0.05-0.05,0.08-0.07c-0.04,0.03-0.04,0.03,0.02-0.01
			c0.03-0.02,0.06-0.04,0.09-0.05c-0.05,0.02-0.04,0.02,0.02-0.01c0.23-0.06,0.43-0.06,0.69,0.01c0.3,0.09,0.58,0.24,0.86,0.39
			C126.29,184.75,126.74,184.01,126.25,183.71L126.25,183.71z"/>
	</g>
</g>
<g>
	<g>
		<path class="st1" d="M126.87,184.19c0.52,0.86,1.14,1.68,1.91,2.33c0.21,0.18,0.45,0.35,0.73,0.41c0.37,0.08,0.75-0.06,0.96-0.38
			c0.14-0.22,0.17-0.5,0.22-0.76c0.05-0.26,0.09-0.53,0.11-0.8c0.02-0.31,0-0.62-0.04-0.93c-0.04-0.32-0.08-0.72-0.4-0.9
			c-0.19-0.11-0.42-0.02-0.53,0.15c-0.11,0.17-0.1,0.37-0.08,0.57c0.01,0.11,0.02,0.2,0.03,0.35c0.01,0.28,0.01,0.56-0.01,0.84
			c-0.01,0.07-0.01,0.14-0.02,0.21c0,0.03-0.01,0.07-0.01,0.1c0.01-0.04,0-0.03-0.01,0.03c-0.02,0.12-0.05,0.24-0.09,0.36
			c-0.02,0.07-0.05,0.13-0.07,0.2c-0.02,0.06-0.02,0.05,0-0.01c-0.03,0.05-0.03,0.05,0.01-0.01c0.07-0.07,0.16-0.09,0.26-0.07
			c-0.06-0.02-0.05-0.01,0.02,0.01c-0.03-0.01-0.05-0.03-0.07-0.04c-0.05-0.04-0.05-0.03,0.01,0.01c-0.02-0.02-0.04-0.04-0.07-0.06
			c-0.05-0.04-0.09-0.09-0.13-0.13c-0.09-0.1-0.18-0.2-0.28-0.3c-0.17-0.19-0.34-0.38-0.5-0.57c-0.09-0.1-0.17-0.21-0.26-0.31
			c-0.02-0.03-0.04-0.05-0.06-0.08c0.07,0.09,0.05,0.07-0.06-0.08c-0.04-0.06-0.04-0.05,0.01,0.01c-0.02-0.03-0.04-0.05-0.06-0.08
			c-0.16-0.22-0.32-0.44-0.47-0.66c-0.17-0.27-0.54-0.39-0.83-0.21C126.84,183.54,126.7,183.9,126.87,184.19L126.87,184.19z"/>
	</g>
</g>
<g>
	<g>
		<path class="st1" d="M132.18,185.34c0.95,0.56,2.27,0.83,3.03-0.18c0.26-0.36,0.4-0.85,0.25-1.28c-0.19-0.52-0.67-0.81-1.17-0.97
			c-1.06-0.35-2.05,0.24-2.39,1.27c-0.35,1.06,0.2,2.13,1.08,2.73c1.15,0.8,2.62,0.73,3.94,0.59c0.24-0.02,0.45-0.17,0.48-0.42
			c0.03-0.21-0.1-0.48-0.34-0.51c-0.92-0.13-1.85-0.12-2.74-0.4c-0.18-0.06-0.26-0.09-0.44-0.19c-0.08-0.04-0.16-0.09-0.23-0.14
			c-0.04-0.02-0.07-0.05-0.11-0.08c-0.04-0.03,0.01,0.01-0.06-0.04c-0.07-0.06-0.14-0.11-0.2-0.18c-0.04-0.04-0.08-0.08-0.11-0.12
			c-0.07-0.08,0.04,0.06-0.03-0.03c-0.05-0.07-0.1-0.15-0.14-0.22c-0.02-0.04-0.04-0.08-0.06-0.12c-0.02-0.05,0,0.02-0.02-0.06
			c-0.09-0.27-0.08-0.51,0.01-0.8c0.07-0.22,0.24-0.45,0.47-0.54c0.47-0.19,1.65,0.13,1.34,0.83c-0.38,0.85-1.5,0.38-2.06,0.03
			C132.16,184.2,131.65,185.03,132.18,185.34L132.18,185.34z"/>
	</g>
</g>
<g>
	<g>
		<path class="st1" d="M145.64,185.24c1.01,0.46,2.16,0.59,3.24,0.28c0.46-0.14,0.98-0.35,1.23-0.8c0.25-0.45,0.13-0.99-0.27-1.3
			c-0.41-0.32-0.94-0.36-1.43-0.31c-0.5,0.05-1.01,0.18-1.45,0.45c-0.88,0.55-1.35,1.66-0.9,2.64c0.23,0.51,0.69,0.89,1.2,1.1
			c0.63,0.26,1.29,0.28,1.96,0.23c0.24-0.02,0.45-0.17,0.49-0.42c0.03-0.22-0.1-0.48-0.35-0.52c-0.41-0.07-0.83-0.12-1.24-0.23
			c-0.18-0.05-0.36-0.09-0.46-0.14c-0.08-0.04-0.16-0.08-0.24-0.12c-0.03-0.02-0.07-0.04-0.1-0.06c0,0-0.14-0.1-0.08-0.05
			c-0.25-0.19-0.39-0.39-0.42-0.69c-0.03-0.29,0.09-0.61,0.28-0.84c0.42-0.51,1.27-0.79,1.92-0.66c0.21,0.04,0.58,0.24,0.41,0.51
			c-0.13,0.22-0.49,0.3-0.74,0.35c-0.84,0.19-1.76,0.11-2.55-0.26c-0.24-0.11-0.54-0.05-0.68,0.19
			C145.34,184.79,145.4,185.13,145.64,185.24L145.64,185.24z"/>
	</g>
</g>
<g>
	<g>
		<path class="st1" d="M153.62,183.93c-0.68-0.27-1.46-0.56-2.19-0.25c-0.56,0.23-1.01,0.85-0.74,1.46c0.28,0.61,1.05,0.8,1.66,0.71
			c0.66-0.09,1.2-0.46,1.59-0.99c-0.28-0.07-0.55-0.14-0.83-0.21c-0.18,1.51-0.29,3.03-0.41,4.55c-0.06,0.76-0.12,1.52-0.18,2.27
			c-0.05,0.74-0.13,1.48,0.01,2.21c0.1,0.52,0.84,0.43,0.98-0.01c0.22-0.71,0.23-1.47,0.26-2.21c0.04-0.76,0.06-1.51,0.1-2.27
			c0.06-1.51,0.14-3.03,0.13-4.54c0-0.46-0.6-0.57-0.83-0.21c-0.28,0.44-1.05,0.78-1.54,0.45c-0.52-0.35,0.31-0.59,0.56-0.59
			c0.39,0,0.78,0.14,1.15,0.26C153.71,184.69,153.99,184.08,153.62,183.93L153.62,183.93z"/>
	</g>
</g>
<g>
	<g>
		<path class="st1" d="M150.98,189.95c0.68-0.04,1.36-0.09,2.04-0.13c0.33-0.02,0.67-0.04,1-0.07c0.37-0.03,0.73-0.06,1.07-0.22
			c0.31-0.15,0.19-0.56-0.08-0.66c-0.32-0.12-0.68-0.1-1.01-0.09c-0.33,0.01-0.67,0.02-1,0.03c-0.67,0.02-1.33,0.05-2,0.07
			c-0.29,0.01-0.54,0.24-0.55,0.53C150.45,189.7,150.7,189.97,150.98,189.95L150.98,189.95z"/>
	</g>
</g>
<g>
	<g>
		<path class="st1" d="M154.11,184.79c0.35,0.91,1.05,1.62,2.05,1.72c0.96,0.09,1.87-0.55,2.13-1.48c0.14-0.52,0.1-1.18-0.21-1.64
			c-0.11-0.17-0.28-0.26-0.49-0.23c-0.21,0.03-0.35,0.17-0.42,0.36c-0.09,0.23-0.11,0.48-0.14,0.73c-0.01,0.08-0.02,0.12,0,0.02
			c-0.01,0.06-0.01,0.23-0.04,0.31c0.06-0.14,0-0.05-0.01,0.01c-0.01,0.06-0.02,0.12-0.04,0.18c-0.01,0.02-0.03,0.13-0.04,0.13
			c0.04-0.09,0.05-0.1,0.02-0.04c-0.01,0.02-0.02,0.04-0.03,0.06c-0.01,0.02-0.09,0.12-0.09,0.13c0.07-0.08,0.08-0.1,0.03-0.05
			c-0.01,0.01-0.02,0.02-0.03,0.03c-0.02,0.02-0.04,0.04-0.06,0.05c0.09-0.07,0.11-0.08,0.05-0.04c-0.03,0.02-0.07,0.04-0.1,0.06
			c-0.02,0.01-0.05,0.02-0.07,0.04c0.1-0.04,0.13-0.05,0.08-0.03c-0.05,0.01-0.09,0.03-0.14,0.04c-0.03,0.01-0.09,0.01-0.12,0.02
			c0.11-0.01,0.13-0.02,0.05-0.01c-0.03,0-0.05,0-0.08,0c-0.04,0-0.08,0-0.12,0c-0.13,0,0.15,0.03-0.01,0
			c-0.03-0.01-0.24-0.08-0.26-0.07c0.09,0.04,0.11,0.04,0.04,0.02c-0.03-0.01-0.05-0.02-0.08-0.04c-0.04-0.02-0.07-0.04-0.11-0.06
			c-0.02-0.01-0.05-0.03-0.07-0.05c-0.06-0.04-0.05-0.03,0.04,0.03c0,0-0.09-0.08-0.1-0.08c-0.02-0.02-0.2-0.22-0.21-0.22
			c0.06,0.08,0.07,0.09,0.04,0.05c-0.01-0.02-0.03-0.03-0.04-0.05c-0.03-0.05-0.06-0.1-0.09-0.14c-0.05-0.09-0.09-0.18-0.13-0.27
			c-0.13-0.3-0.54-0.37-0.81-0.26C154.24,184.14,153.99,184.48,154.11,184.79L154.11,184.79z"/>
	</g>
</g>
<g>
	<g>
		<path class="st1" d="M162.45,184.27c-0.5-0.36-1.05-0.74-1.69-0.67c-0.67,0.07-1.05,0.57-1.23,1.19
			c-0.17,0.58-0.15,1.27,0.37,1.67c0.55,0.43,1.32,0.36,1.9,0.03c0.62-0.35,1-0.95,1.09-1.65c0.06-0.52-0.8-0.6-0.91-0.11
			c-0.13,0.62,0.08,1.24,0.57,1.65c0.53,0.44,1.23,0.5,1.89,0.39c0.42-0.07,0.42-0.73,0.01-0.82c-0.56-0.12-1.69-0.32-1.57-1.12
			c-0.31,0-0.62,0.01-0.92,0.01c-0.05,0.38-0.41,0.71-0.69,0.83c-0.3,0.12-0.85,0.19-0.98-0.21c-0.13-0.38-0.02-1.06,0.38-1.25
			c0.54-0.25,1.14,0.14,1.58,0.42C162.46,184.78,162.67,184.42,162.45,184.27L162.45,184.27z"/>
	</g>
</g>
<g>
	<g>
		<path class="st1" d="M164.39,181.04c0.24,1.15,0.45,2.3,0.67,3.45c0.1,0.56,0.2,1.13,0.3,1.7c0.1,0.59,0.16,1.18,0.43,1.72
			c0.18,0.35,0.82,0.28,0.88-0.13c0.1-0.62-0.03-1.22-0.14-1.84c-0.1-0.56-0.21-1.13-0.32-1.69c-0.23-1.17-0.5-2.33-0.78-3.49
			C165.27,180.09,164.26,180.38,164.39,181.04L164.39,181.04z"/>
	</g>
</g>
<g>
	<g>
		<path class="st1" d="M83.88,198.61c0.1,1.96,0.17,3.94,0.47,5.88c0.08,0.52,0.87,0.35,0.89-0.12c0.09-1.92-0.03-3.85-0.13-5.77
			C85.07,197.81,83.84,197.84,83.88,198.61L83.88,198.61z"/>
	</g>
</g>
<g>
	<g>
		<path class="st1" d="M84.73,198.54c0.47-0.27,0.97-0.44,1.51-0.53c0.22-0.04,0.45-0.05,0.67-0.04c0.03,0,0.05,0,0.08,0.01
			c-0.01,0-0.06-0.01,0,0c0.05,0.01,0.1,0.02,0.15,0.03c0.06,0.01,0.12,0.03,0.17,0.05c-0.06-0.02,0.07,0.03,0.09,0.04
			c0.02,0.01,0.11,0.07,0.09,0.06c-0.02-0.02,0.06,0.06,0.08,0.08c0.04,0.04,0.01,0,0-0.01c0.02,0.02,0.03,0.05,0.05,0.08
			c0.04,0.06,0.04,0.07,0.05,0.13c0.06,0.21,0.04,0.42-0.01,0.6c-0.01,0.05-0.03,0.1-0.05,0.15c-0.03,0.08,0.01-0.01-0.03,0.07
			c-0.05,0.11-0.11,0.21-0.18,0.31c-0.05,0.07,0.02-0.01-0.04,0.06c-0.03,0.04-0.07,0.08-0.1,0.11c-0.04,0.04-0.07,0.07-0.11,0.11
			c-0.02,0.02-0.04,0.03-0.06,0.05c-0.07,0.06,0.06-0.04-0.01,0.01c-0.11,0.08-0.22,0.14-0.33,0.2c0,0-0.08,0.04-0.03,0.02
			c0.05-0.02-0.05,0.02-0.06,0.02c-0.06,0.02-0.11,0.04-0.17,0.05c-0.06,0.02-0.12,0.03-0.18,0.04c-0.03,0-0.05,0.01-0.08,0.01
			c-0.16,0.03,0.05,0-0.05,0.01c-0.15,0.01-0.3,0.03-0.45,0.06c-0.36,0.08-0.44,0.6-0.12,0.78c0.56,0.31,1.31,0.08,1.82-0.23
			c0.54-0.33,0.95-0.83,1.16-1.42c0.22-0.64,0.16-1.43-0.33-1.93c-0.43-0.45-1.13-0.57-1.72-0.52c-0.82,0.07-1.61,0.33-2.31,0.74
			c-0.22,0.13-0.32,0.43-0.19,0.66C84.2,198.6,84.5,198.67,84.73,198.54L84.73,198.54z"/>
	</g>
</g>
<g>
	<g>
		<path class="st1" d="M90.66,199.86c0.08,0.03-0.04-0.02-0.05-0.03c-0.01-0.01-0.11-0.07-0.05-0.03c-0.07-0.05-0.13-0.12-0.19-0.18
			c0.05,0.06-0.03-0.04-0.03-0.05c-0.02-0.04-0.05-0.08-0.07-0.12c0,0-0.06-0.13-0.03-0.05c-0.02-0.04-0.03-0.08-0.04-0.13
			c-0.12-0.41-0.1-0.84-0.07-1.27c0-0.04,0-0.08,0.01-0.12c0,0,0.02-0.14,0-0.07c0.01-0.03,0.01-0.06,0.02-0.09
			c0,0.01-0.01,0.01-0.01,0.02c0.03-0.04,0.03-0.05,0-0.02c0.01-0.01,0.02-0.02,0.03-0.03c-0.09,0.06,0.08-0.03-0.02,0.01
			c0.04-0.02,0.09-0.03,0.13-0.04c0.14-0.03-0.09,0.01,0.08-0.01c0.06-0.01,0.11-0.01,0.17-0.02c0.46-0.05,0.91,0.01,1.37,0.06
			c0.36,0.04,0.52-0.52,0.19-0.68c-0.55-0.27-1.23-0.34-1.84-0.25c-0.27,0.04-0.53,0.12-0.72,0.32c-0.22,0.21-0.28,0.51-0.32,0.8
			c-0.07,0.54-0.11,1.15,0.08,1.67c0.17,0.48,0.5,0.95,0.99,1.15c0.26,0.1,0.55,0.04,0.67-0.24
			C91.08,200.2,90.92,199.96,90.66,199.86L90.66,199.86z"/>
	</g>
</g>
<g>
	<g>
		<path class="st1" d="M93.56,197.99c-0.4,0.69-0.48,1.54-0.12,2.26c0.32,0.65,1.07,1.14,1.8,1.07c0.78-0.07,1.46-0.66,1.58-1.45
			c0.11-0.73-0.33-1.35-0.9-1.75c-0.29-0.2-0.61-0.34-0.93-0.46c-0.46-0.17-1.21-0.04-1.24,0.56c-0.01,0.22,0.19,0.41,0.41,0.41
			c0.02,0,0.24-0.02,0.23-0.03c0,0.01-0.13,0-0.03,0.01c-0.12-0.01-0.06-0.01-0.03,0c0.03,0.01,0.15,0.02,0.18,0.05
			c0,0-0.12-0.05-0.03-0.01c0.06,0.03,0.13,0.05,0.2,0.07c0.11,0.04-0.09-0.04-0.01-0.01c0.03,0.01,0.06,0.02,0.08,0.03
			c0.04,0.02,0.09,0.04,0.13,0.06c0.11,0.05,0.22,0.11,0.32,0.17c0.05,0.03,0.09,0.06,0.14,0.09c0.07,0.04-0.1-0.09-0.01-0.01
			c0.02,0.02,0.04,0.03,0.06,0.04c0.04,0.03,0.08,0.07,0.12,0.11c0.04,0.04,0.08,0.11,0.13,0.14c-0.08-0.05-0.06-0.08-0.03-0.03
			c0.01,0.02,0.03,0.05,0.04,0.07c0.02,0.04,0.04,0.1,0.07,0.13c-0.06-0.06-0.03-0.1-0.02-0.04c0.01,0.03,0.01,0.05,0.02,0.08
			c0.03,0.1-0.03,0.01,0-0.02c-0.01,0.01,0,0.09,0,0.1c0,0.02-0.01,0.06,0,0.07c-0.02-0.06,0.02-0.1,0.01-0.04
			c-0.01,0.03-0.01,0.06-0.02,0.08c-0.03,0.09-0.04,0.01,0.01-0.02c-0.03,0.02-0.05,0.09-0.07,0.12c-0.01,0.02-0.08,0.09-0.01,0.03
			c0.07-0.07-0.02,0.02-0.03,0.03c-0.03,0.03-0.09,0.07-0.12,0.11c0.05-0.08,0.1-0.07,0.03-0.02c-0.02,0.02-0.05,0.03-0.08,0.05
			c-0.02,0.01-0.04,0.02-0.06,0.03c-0.09,0.05,0.04-0.02,0.05-0.02c-0.04,0-0.15,0.04-0.19,0.05c-0.08,0.02,0.16-0.01,0.03,0
			c-0.02,0-0.05,0-0.07,0c-0.02,0-0.05,0-0.07,0c-0.13,0,0.11,0.02,0.03,0c-0.05-0.01-0.11-0.02-0.16-0.03
			c-0.02-0.01-0.05-0.01-0.07-0.02c-0.12-0.03,0.11,0.05,0,0c-0.06-0.03-0.11-0.05-0.16-0.09c-0.02-0.01-0.04-0.03-0.06-0.04
			c-0.11-0.07,0.08,0.07,0.02,0.01c-0.04-0.04-0.08-0.07-0.12-0.11c-0.02-0.02-0.03-0.04-0.05-0.05c-0.09-0.09,0.06,0.1,0,0
			c-0.04-0.06-0.08-0.11-0.11-0.17c-0.01-0.02-0.04-0.06-0.04-0.09c0.01,0.02,0.02,0.04,0.03,0.06c-0.01-0.03-0.02-0.05-0.03-0.08
			c-0.02-0.07-0.04-0.13-0.05-0.2c0-0.02-0.01-0.06-0.01-0.08c0,0.13,0,0.01,0-0.03c0-0.08,0-0.17,0.01-0.25c0-0.02,0-0.1,0,0.01
			c0-0.04,0.02-0.09,0.02-0.12c0.02-0.07,0.04-0.14,0.06-0.2c0.01-0.03,0.02-0.07,0.04-0.1c0.01-0.04,0.01-0.03-0.01,0.03
			c0.01-0.03,0.02-0.05,0.04-0.08c0.12-0.24,0.08-0.57-0.19-0.7C94.03,197.66,93.71,197.74,93.56,197.99L93.56,197.99z"/>
	</g>
</g>
<g>
	<g>
		<path class="st1" d="M97.24,194.99c0.07,0.84,0.14,1.68,0.22,2.51c0.04,0.41,0.07,0.82,0.11,1.23c0.04,0.42,0.05,0.9,0.19,1.31
			c0.32-0.09,0.63-0.17,0.95-0.26c-0.17-0.43-0.26-0.99,0.01-1.4c0.27-0.4,0.74-0.26,1.11-0.07c0.38,0.2,0.51,0.55,0.22,0.91
			c-0.28,0.35-0.84,0.43-1.25,0.5c-0.34,0.06-0.25,0.54,0.06,0.56c0.72,0.07,1.48-0.14,1.87-0.79c0.39-0.65,0.17-1.39-0.46-1.77
			c-0.63-0.38-1.45-0.49-2.01,0.07c-0.24,0.23-0.4,0.55-0.46,0.87c-0.09,0.42-0.02,0.84-0.05,1.27c-0.02,0.26,0.23,0.48,0.48,0.48
			c0.29,0,0.46-0.22,0.5-0.49c0.05-0.4-0.02-0.83-0.05-1.23c-0.03-0.41-0.08-0.82-0.12-1.23c-0.08-0.82-0.16-1.64-0.25-2.46
			c-0.03-0.28-0.22-0.52-0.52-0.52C97.52,194.47,97.21,194.71,97.24,194.99L97.24,194.99z"/>
	</g>
</g>
<g>
	<g>
		<path class="st1" d="M105.07,197.87c-0.56-0.56-1.34-1.03-2.15-0.73c-0.8,0.3-1.06,1.15-0.94,1.93c0.1,0.68,0.54,1.43,1.27,1.56
			c0.83,0.15,1.39-0.49,1.88-1.05c-0.28-0.03-0.57-0.06-0.85-0.1c0.66,1,1.88,1.41,2.99,0.93c0.41-0.18,0.2-0.79-0.2-0.79
			c-0.73,0-1.44-0.28-1.93-0.79c-0.24-0.25-0.69-0.16-0.85,0.13c-0.1,0.18-0.22,0.33-0.39,0.47c-0.12,0.1-0.22,0.14-0.35,0.13
			c-0.02,0-0.09-0.03-0.12-0.05c0.04,0.03-0.06-0.06-0.07-0.07c-0.12-0.11,0.01,0.03-0.04-0.04c-0.03-0.04-0.06-0.09-0.08-0.13
			c0,0-0.08-0.16-0.05-0.09c-0.04-0.1-0.07-0.2-0.09-0.3c-0.03-0.14-0.04-0.35-0.02-0.47c0.03-0.14,0.07-0.25,0.22-0.3
			c0.38-0.14,0.8,0.22,1.07,0.46C104.83,198.96,105.51,198.31,105.07,197.87L105.07,197.87z"/>
	</g>
</g>
<g>
	<g>
		<path class="st1" d="M106.87,196.2c0.12,0.72,0.24,1.43,0.36,2.15c0.12,0.7,0.17,1.46,0.41,2.14c0.36-0.15,0.72-0.3,1.07-0.45
			c-0.07-0.12-0.1-0.16-0.11-0.29c-0.01-0.12,0-0.24,0.02-0.35c0.05-0.24,0.16-0.45,0.36-0.6c0.31-0.23,0.77-0.25,1.03,0.08
			c0.24,0.32,0.13,0.66-0.17,0.85c-0.21,0.13-0.39,0.2-0.62,0.26c-0.11,0.03-0.2,0.06-0.26,0.06c-0.04,0-0.07,0-0.11,0
			c0.02,0,0.02,0-0.01-0.01c-0.1-0.02-0.04-0.04,0.01,0.04c-0.16-0.24-0.6-0.23-0.67,0.1c-0.07,0.37,0.13,0.67,0.5,0.77
			c0.31,0.08,0.65,0.01,0.94-0.08c0.63-0.2,1.26-0.62,1.41-1.31c0.15-0.66-0.19-1.37-0.8-1.69c-0.65-0.34-1.45-0.16-1.99,0.31
			c-0.67,0.58-0.72,1.49-0.62,2.31c0.04,0.28,0.38,0.45,0.63,0.41c0.27-0.04,0.53-0.27,0.52-0.57c-0.03-0.75-0.25-1.51-0.41-2.24
			c-0.15-0.72-0.31-1.45-0.46-2.17c-0.06-0.28-0.38-0.44-0.65-0.37C106.97,195.63,106.82,195.91,106.87,196.2L106.87,196.2z"/>
	</g>
</g>
<g>
	<g>
		<path class="st1" d="M112.37,198.22c0.03,0.43,0.07,0.87,0.18,1.29c0.1,0.41,0.22,0.83,0.45,1.19c0.11,0.17,0.33,0.28,0.54,0.22
			c0.2-0.06,0.37-0.24,0.37-0.46c0-0.22-0.03-0.43-0.06-0.65c-0.01-0.1-0.03-0.2-0.04-0.3c-0.01-0.04-0.01-0.09-0.02-0.13
			c-0.02-0.13,0.01,0.12,0-0.04c-0.01-0.13-0.03-0.26-0.04-0.4c-0.01-0.04-0.04-0.17,0-0.01c-0.01-0.05-0.01-0.1-0.01-0.15
			c-0.02-0.19-0.03-0.39-0.04-0.58c-0.01-0.34-0.28-0.66-0.65-0.65C112.72,197.58,112.35,197.85,112.37,198.22L112.37,198.22z"/>
	</g>
</g>
<g>
	<g>
		<path class="st1" d="M112.08,196.26c0.01,0.05,0.03,0.11,0.06,0.15c0.02,0.05,0.06,0.09,0.1,0.13c0.03,0.04,0.09,0.07,0.13,0.1
			c0.02,0.01,0.03,0.02,0.05,0.03c0.05,0.02,0.1,0.04,0.15,0.06c0.05,0.01,0.11,0.02,0.16,0.02c0.05,0,0.11-0.01,0.16-0.02
			c0.05-0.01,0.11-0.04,0.16-0.06c-0.04,0.01-0.07,0.03-0.11,0.04c0.04-0.02,0.09-0.03,0.13-0.05c0.01,0,0.02-0.01,0.03-0.02
			c0.04-0.03,0.08-0.05,0.11-0.09c0.04-0.03,0.06-0.08,0.09-0.11c0.01-0.01,0.01-0.02,0.02-0.03c0,0,0-0.01,0.01-0.01
			c0.02-0.04,0.04-0.08,0.05-0.12c0-0.01,0.01-0.02,0.01-0.03c0.01-0.05,0.02-0.09,0.02-0.14c0-0.01,0-0.02,0-0.03
			c0-0.05-0.01-0.1-0.02-0.15c-0.01-0.06-0.04-0.12-0.07-0.17c-0.02-0.04-0.05-0.07-0.07-0.11c-0.03-0.03-0.05-0.07-0.08-0.1
			c-0.04-0.03-0.07-0.06-0.11-0.08c-0.01,0-0.01-0.01-0.02-0.01c-0.05-0.03-0.1-0.04-0.15-0.06c-0.01,0-0.02-0.01-0.03-0.01
			c-0.05-0.01-0.1-0.01-0.14-0.02c0,0,0,0-0.01,0c-0.02,0-0.05,0-0.07,0.01c-0.02,0-0.05,0.01-0.07,0.01
			c-0.09,0.02-0.17,0.07-0.24,0.14c-0.06,0.06-0.11,0.14-0.13,0.22c-0.01,0.06-0.03,0.13-0.02,0.2c0,0.06,0.01,0.13,0.02,0.19
			c0.03,0.1,0.07,0.18,0.13,0.25c0.04,0.04,0.08,0.07,0.13,0.1c0.06,0.03,0.12,0.05,0.19,0.05c0.05,0,0.1-0.01,0.15-0.03
			c0.05-0.02,0.09-0.04,0.13-0.08c0.05-0.05,0.08-0.1,0.1-0.17c0-0.01,0.01-0.02,0.01-0.02c-0.01,0.03-0.03,0.06-0.04,0.09
			c0.01-0.01,0.01-0.02,0.02-0.04c0.03-0.05,0.04-0.09,0.06-0.14c-0.01,0.03-0.03,0.07-0.04,0.1c0.01-0.03,0.03-0.05,0.04-0.07
			c-0.03,0.03-0.05,0.07-0.08,0.1c0.02-0.02,0.03-0.04,0.05-0.05c-0.12,0.05-0.24,0.1-0.37,0.15c0.05,0,0.1-0.01,0.15-0.02
			c-0.04,0.01-0.09,0.01-0.13,0.02c0.02,0,0.03,0,0.05,0c-0.04,0-0.08-0.01-0.13-0.01c0.02,0,0.03,0.01,0.05,0.01
			c-0.04-0.02-0.08-0.03-0.12-0.05c0.02,0.01,0.04,0.02,0.06,0.03c-0.03-0.02-0.07-0.05-0.1-0.07c0.02,0.01,0.04,0.03,0.05,0.05
			c-0.03-0.03-0.05-0.07-0.08-0.1c0.02,0.02,0.03,0.04,0.04,0.07c-0.02-0.04-0.03-0.08-0.05-0.11c0.01,0.02,0.01,0.04,0.02,0.06
			c0-0.04-0.01-0.08-0.01-0.12c0,0.02,0,0.03,0,0.05c0.01-0.04,0.01-0.07,0.02-0.11c0,0.02-0.01,0.03-0.01,0.05
			c0.01-0.03,0.03-0.07,0.04-0.1c-0.01,0.01-0.01,0.03-0.02,0.04c0.02-0.03,0.05-0.06,0.07-0.09c-0.01,0.01-0.02,0.02-0.03,0.03
			c0.03-0.02,0.06-0.05,0.09-0.07c-0.01,0.01-0.02,0.01-0.03,0.02c0.04-0.01,0.07-0.03,0.11-0.04c-0.02,0.01-0.04,0.01-0.06,0.02
			c0.04-0.01,0.07-0.01,0.11-0.02c-0.02,0-0.05,0-0.07,0c0.04,0,0.07,0.01,0.11,0.01c-0.02,0-0.05-0.01-0.07-0.02
			c0.03,0.01,0.07,0.03,0.1,0.04c-0.02-0.01-0.04-0.02-0.06-0.03c0.03,0.02,0.06,0.04,0.09,0.06c-0.02-0.01-0.03-0.03-0.04-0.04
			c0.02,0.03,0.05,0.06,0.07,0.09c-0.01-0.01-0.02-0.03-0.03-0.04c0.01,0.03,0.03,0.07,0.04,0.1c0-0.01-0.01-0.02-0.01-0.03
			c-0.01-0.06-0.04-0.1-0.08-0.15c-0.03-0.05-0.07-0.08-0.12-0.11c-0.05-0.03-0.1-0.04-0.15-0.05c-0.05-0.01-0.11-0.01-0.16,0.01
			c-0.04,0.01-0.07,0.03-0.11,0.04c-0.07,0.04-0.12,0.09-0.16,0.16c-0.01,0.03-0.03,0.07-0.04,0.1
			C112.06,196.12,112.06,196.19,112.08,196.26L112.08,196.26z"/>
	</g>
</g>
<g>
	<g>
		<path class="st1" d="M114.32,195.68c0.05,0.94,0.14,1.89,0.29,2.83c0.15,0.93,0.33,1.84,0.73,2.69c0.21,0.44,0.92,0.2,0.91-0.25
			c-0.02-0.91-0.2-1.79-0.33-2.69c-0.12-0.86-0.21-1.72-0.26-2.59c-0.02-0.36-0.28-0.66-0.66-0.66
			C114.67,195.01,114.3,195.31,114.32,195.68L114.32,195.68z"/>
	</g>
</g>
<g>
	<g>
		<path class="st1" d="M117.7,198.77c0.08,0.38,0.16,0.76,0.26,1.14c0.1,0.39,0.22,0.83,0.47,1.16c0.1,0.14,0.24,0.22,0.42,0.2
			c0.16-0.02,0.33-0.14,0.36-0.31c0.1-0.45,0.03-0.9-0.04-1.35c-0.07-0.39-0.15-0.78-0.24-1.17c-0.07-0.32-0.45-0.53-0.77-0.44
			C117.83,198.11,117.62,198.43,117.7,198.77L117.7,198.77z"/>
	</g>
</g>
<g>
	<g>
		<path class="st1" d="M117.37,196.91c0.06,0.12,0.18,0.23,0.3,0.29c0.05,0.02,0.1,0.04,0.15,0.06c0.01,0,0.03,0.01,0.04,0.01
			c0.07,0.01,0.13,0.02,0.2,0.02c0.28,0,0.56-0.15,0.7-0.39c0.05-0.08,0.07-0.16,0.07-0.25c0-0.09-0.02-0.18-0.07-0.26
			c-0.04-0.07-0.09-0.13-0.14-0.19c-0.05-0.06-0.12-0.1-0.18-0.14c-0.03-0.02-0.06-0.04-0.09-0.05c-0.11-0.05-0.18-0.08-0.31-0.08
			c-0.05,0-0.1,0-0.15,0.02c-0.1,0.03-0.19,0.08-0.26,0.15c-0.04,0.04-0.07,0.08-0.1,0.13c-0.04,0.06-0.07,0.13-0.08,0.2
			c-0.02,0.1-0.04,0.2,0,0.3c0.02,0.05,0.04,0.11,0.07,0.16c0.07,0.12,0.2,0.24,0.34,0.27c0.1,0.02,0.18,0.03,0.28,0
			c0.04-0.02,0.07-0.03,0.11-0.05c0.05-0.03,0.1-0.07,0.13-0.12c0.03-0.03,0.05-0.06,0.06-0.1c0.03-0.05,0.04-0.1,0.04-0.16
			c0,0,0-0.01,0-0.01c-0.01,0.04-0.01,0.08-0.02,0.11c0-0.01,0-0.02,0.01-0.02c-0.02,0.04-0.03,0.08-0.05,0.11
			c0.05-0.1,0.06-0.13,0.07-0.24c0-0.01,0-0.01,0-0.02c-0.01,0.04-0.01,0.08-0.02,0.13c0-0.01,0.01-0.03,0.01-0.04
			c-0.02,0.04-0.04,0.08-0.05,0.12c0.01-0.01,0.01-0.02,0.02-0.04c0.01-0.01,0.01-0.03,0.02-0.04c-0.03,0.04-0.06,0.08-0.09,0.11
			c0.01-0.01,0.01-0.02,0.02-0.02c-0.04,0.03-0.08,0.06-0.12,0.09c0.01,0,0.01-0.01,0.02-0.01c-0.14,0.02-0.28,0.04-0.43,0.06
			c0.06,0.01,0.12,0.01,0.18,0.02c-0.05-0.01-0.09-0.01-0.14-0.02c0.03,0,0.06,0.01,0.09,0.02c-0.04-0.02-0.09-0.03-0.13-0.05
			c0.03,0.01,0.06,0.03,0.09,0.05c-0.04-0.03-0.07-0.05-0.11-0.08c0.01,0.01,0.03,0.02,0.04,0.04c-0.03-0.04-0.06-0.07-0.08-0.11
			c0.01,0.01,0.01,0.02,0.02,0.03c0-0.17,0-0.34,0.01-0.51c-0.01,0.01-0.01,0.02-0.02,0.03c0.03-0.04,0.06-0.07,0.08-0.11
			c-0.01,0.01-0.02,0.03-0.04,0.04c0.04-0.03,0.08-0.06,0.11-0.09c-0.01,0.01-0.03,0.02-0.04,0.02c0.04-0.02,0.09-0.04,0.13-0.05
			c-0.02,0.01-0.05,0.02-0.07,0.02c0.05-0.01,0.09-0.01,0.14-0.02c-0.03,0-0.05,0-0.08,0c0.04,0.01,0.09,0.01,0.13,0.02
			c-0.02,0-0.05-0.01-0.07-0.02c0.04,0.02,0.08,0.03,0.13,0.05c-0.02-0.01-0.04-0.02-0.06-0.03c0.04,0.03,0.07,0.05,0.11,0.08
			c-0.02-0.01-0.03-0.03-0.05-0.04c0.03,0.04,0.06,0.07,0.09,0.11c-0.01-0.01-0.02-0.03-0.03-0.05c-0.03-0.06-0.08-0.12-0.14-0.15
			c-0.05-0.05-0.11-0.08-0.18-0.09c-0.07-0.02-0.14-0.02-0.21-0.01c-0.07,0-0.14,0.03-0.21,0.07c-0.04,0.03-0.08,0.06-0.12,0.09
			c-0.07,0.07-0.11,0.15-0.14,0.24c-0.01,0.05-0.01,0.09-0.02,0.14C117.3,196.74,117.33,196.83,117.37,196.91L117.37,196.91z"/>
	</g>
</g>
<g>
	<g>
		<path class="st1" d="M120.78,195.48c0.07,0.84,0.16,1.69,0.27,2.53c0.06,0.41,0.12,0.81,0.19,1.22c0.07,0.39,0.11,0.91,0.38,1.22
			c0.2,0.22,0.54,0.06,0.62-0.17c0.07-0.2,0.02-0.42,0-0.63c-0.02-0.19-0.05-0.38-0.07-0.57c-0.06-0.41-0.11-0.81-0.17-1.22
			c-0.1-0.79-0.19-1.58-0.26-2.37c-0.02-0.26-0.2-0.47-0.47-0.47C121.04,195,120.76,195.22,120.78,195.48L120.78,195.48z"/>
	</g>
</g>
<g>
	<g>
		<path class="st1" d="M120.65,198.01c1.05-0.12,2.12-0.19,3.14-0.46c0.2-0.05,0.35-0.26,0.32-0.47c-0.03-0.22-0.2-0.35-0.42-0.36
			c-1.01-0.07-2.03,0.07-3.03,0.14c-0.3,0.02-0.6,0.25-0.59,0.58C120.09,197.73,120.33,198.04,120.65,198.01L120.65,198.01z"/>
	</g>
</g>
<g>
	<g>
		<path class="st1" d="M125.21,197.95c0.02,0.57,0.08,1.14,0.2,1.7c0.12,0.53,0.28,1.12,0.61,1.56c0.12,0.16,0.31,0.27,0.52,0.21
			c0.19-0.06,0.36-0.24,0.35-0.44c-0.03-0.54-0.17-1.07-0.26-1.6c-0.04-0.25-0.07-0.5-0.1-0.76c0.01,0.13,0-0.04-0.01-0.06
			c-0.01-0.07-0.01-0.15-0.02-0.22c-0.01-0.13-0.02-0.26-0.02-0.39c-0.01-0.33-0.27-0.64-0.62-0.62
			C125.53,197.34,125.2,197.6,125.21,197.95L125.21,197.95z"/>
	</g>
</g>
<g>
	<g>
		<path class="st1" d="M125.45,195.88c0.05,0,0.09,0.01,0.14,0.01c0.02,0,0.05,0,0.07,0.01c0.01,0,0.02,0,0.03,0
			c0.01,0,0.01,0,0.02,0c0.06,0,0.1-0.01,0.15-0.03c0.03-0.01,0.06-0.03,0.08-0.05c0.01-0.01,0.03-0.02,0.04-0.03
			c0,0,0.01-0.01,0.01-0.01c0.01-0.01,0.01-0.01,0.02-0.02c0.03-0.03,0.06-0.07,0.08-0.11c0.02-0.04,0.04-0.08,0.05-0.12
			c0.01-0.04,0.02-0.09,0.02-0.13c0,0.03-0.01,0.06-0.01,0.09c0.01-0.05,0.02-0.1,0.02-0.16c0-0.05-0.01-0.11-0.02-0.16
			c-0.02-0.05-0.04-0.1-0.07-0.14c-0.03-0.04-0.06-0.09-0.1-0.12c-0.04-0.03-0.08-0.07-0.13-0.09c-0.05-0.02-0.1-0.04-0.15-0.05
			c-0.04-0.01-0.09-0.01-0.13-0.01c-0.01,0-0.01,0-0.02,0c-0.09,0.01-0.12,0.01-0.21,0.06c-0.01,0.01-0.02,0.01-0.03,0.02
			c-0.03,0.02-0.07,0.04-0.09,0.07c-0.05,0.04-0.09,0.11-0.1,0.17c-0.02,0.05-0.02,0.09-0.01,0.14c0,0.05,0.02,0.1,0.04,0.14
			c0.02,0.03,0.04,0.05,0.06,0.08c0.05,0.04,0.1,0.08,0.16,0.09c-0.15-0.11-0.21-0.14-0.17-0.1c0,0,0,0,0,0c0,0,0,0,0,0
			c0.05,0.05,0.07,0.06,0.12,0.08c0.05,0.02,0.07,0.03,0.14,0.03c0.03,0,0.07-0.01,0.1-0.01c0,0,0,0,0,0c0,0,0.01,0,0.01,0
			c0.01,0,0.02,0,0.02,0c-0.03,0-0.07,0.01-0.1,0.01c0.04-0.01,0.09-0.01,0.13-0.02c0.01,0,0.03-0.01,0.04-0.01
			c-0.03,0-0.07,0.01-0.1,0.01c0.02,0,0.04,0,0.06,0c-0.03,0-0.06-0.01-0.09-0.01c0.02,0,0.04,0.01,0.06,0.02
			c-0.03-0.01-0.06-0.02-0.09-0.03c0.02,0.01,0.03,0.02,0.05,0.03c-0.02-0.02-0.05-0.04-0.07-0.05c0.01,0.01,0.02,0.01,0.02,0.02
			c-0.02-0.02-0.04-0.05-0.06-0.07c0.01,0.01,0.02,0.03,0.03,0.05c-0.01-0.03-0.02-0.06-0.03-0.09c0.01,0.02,0.01,0.04,0.02,0.06
			c0-0.03-0.01-0.06-0.01-0.09c0,0.02,0,0.04,0,0.07c0-0.03,0.01-0.06,0.01-0.09c0,0.01-0.01,0.03-0.01,0.04
			c0.01-0.03,0.02-0.05,0.04-0.08c-0.01,0.02-0.02,0.04-0.03,0.05c0.02-0.02,0.04-0.05,0.06-0.07c-0.01,0.01-0.02,0.03-0.04,0.04
			c0.03-0.02,0.05-0.04,0.08-0.06c0,0-0.01,0.01-0.01,0.01c0.09-0.01,0.18-0.03,0.27-0.04c-0.09-0.02-0.18-0.04-0.27-0.06
			c-0.07-0.02-0.13-0.02-0.19,0c-0.03,0.01-0.06,0.03-0.1,0.04c-0.06,0.03-0.11,0.08-0.14,0.14c-0.03,0.04-0.04,0.09-0.05,0.14
			c-0.01,0.05-0.01,0.1,0,0.14c0.01,0.05,0.03,0.09,0.07,0.13c0.03,0.04,0.06,0.07,0.11,0.1
			C125.32,195.86,125.38,195.88,125.45,195.88L125.45,195.88z"/>
	</g>
</g>
<g>
	<g>
		<path class="st1" d="M128.56,199.48c0.47,0.19,0.97,0.33,1.47,0.19c0.39-0.11,0.77-0.37,0.95-0.75c0.33-0.71-0.11-1.49-0.81-1.75
			c-0.76-0.28-1.57,0.21-1.91,0.9c-0.41,0.83-0.17,1.74,0.39,2.44c0.31,0.39,0.72,0.7,1.16,0.92c0.26,0.13,0.54,0.24,0.81,0.33
			c0.28,0.1,0.57,0.11,0.86,0.14c0.57,0.06,0.83-0.83,0.31-1.08c-0.34-0.16-0.67-0.29-1.03-0.41c-0.05-0.02-0.18-0.06-0.18-0.06
			c0,0-0.13-0.05-0.17-0.07c-0.17-0.07-0.33-0.15-0.48-0.25c-0.41-0.25-0.78-0.64-0.89-1.16c-0.04-0.18-0.02-0.43,0.08-0.64
			c0.09-0.2,0.25-0.38,0.45-0.47c0.41-0.18,0.92,0.2,0.94,0.62c0.02,0.27-0.26,0.46-0.5,0.51c-0.33,0.08-0.71-0.01-1.02-0.14
			c-0.21-0.08-0.45-0.05-0.58,0.16C128.31,199.09,128.35,199.39,128.56,199.48L128.56,199.48z"/>
	</g>
</g>
<g>
	<g>
		<path class="st1" d="M134.03,196.51c-0.41,0.19-0.83,0.37-1.24,0.57c-0.18,0.08-0.34,0.34-0.32,0.54
			c0.05,0.48,0.28,0.89,0.64,1.21c0.28,0.25,0.61,0.45,0.89,0.7c0.06,0.06,0.11,0.12,0.17,0.18c-0.11-0.11-0.01-0.01,0.01,0.02
			c0.02,0.04,0.04,0.08,0.06,0.12c-0.07-0.09-0.02-0.06,0,0.01c0.02,0.07,0.01,0.1,0.01,0.01c0,0.03,0,0.07,0,0.1
			c0.01-0.04,0.01-0.04,0,0c-0.01,0.03-0.01,0.06-0.02,0.08c0.02-0.05,0.01-0.04-0.02,0.02c-0.06,0.09,0.04-0.02-0.05,0.07
			c-0.04,0.04-0.08,0.08-0.13,0.12c0.09-0.07-0.05,0.03-0.07,0.04c-0.08,0.04-0.1,0.05-0.17,0.07c-0.31,0.1-0.68,0.11-0.95,0.31
			c-0.14,0.11-0.25,0.23-0.25,0.42c0,0.16,0.09,0.36,0.24,0.42c0.23,0.09,0.43,0.12,0.67,0.09c0.19-0.02,0.39-0.06,0.57-0.13
			c0.34-0.12,0.66-0.3,0.89-0.57c0.43-0.49,0.55-1.17,0.23-1.75c-0.22-0.39-0.59-0.67-0.93-0.94c-0.16-0.13-0.3-0.26-0.44-0.41
			c-0.04-0.05-0.04-0.04,0.02,0.03c-0.02-0.02-0.03-0.04-0.05-0.07c-0.02-0.03-0.04-0.07-0.06-0.1c-0.03-0.06-0.02-0.05,0.01,0.04
			c-0.01-0.02-0.01-0.05-0.02-0.08c-0.01-0.07-0.01-0.05,0,0.04c0-0.03,0-0.05-0.01-0.08c-0.11,0.18-0.22,0.36-0.32,0.54
			c0.41-0.19,0.82-0.38,1.23-0.58c0.29-0.14,0.42-0.58,0.24-0.85C134.69,196.41,134.35,196.37,134.03,196.51L134.03,196.51z"/>
	</g>
</g>
<g>
	<g>
		<path class="st1" d="M143.21,195.12c0,1.13,0,2.26,0.01,3.39c0.01,1.13-0.06,2.29,0.18,3.4c0.11,0.51,0.96,0.51,1.05-0.01
			c0.2-1.12,0.11-2.27,0.09-3.4c-0.02-1.13-0.05-2.26-0.08-3.39C144.44,194.3,143.21,194.33,143.21,195.12L143.21,195.12z"/>
	</g>
</g>
<g>
	<g>
		<path class="st1" d="M143.77,199.21c0.04-0.02,0.08-0.05,0.13-0.07c0.08-0.04-0.02,0,0.06-0.03c0.1-0.04,0.21-0.07,0.32-0.09
			c0.02,0,0.13-0.02,0.07-0.01c0.05-0.01,0.09-0.01,0.14-0.01c0.06,0,0.11,0,0.17,0c0.02,0,0.05,0,0.07,0c0.02,0,0.07,0.01,0.02,0
			c0.09,0.01,0.19,0.03,0.28,0.05c0.05,0.01,0.09,0.03,0.14,0.04c0.01,0,0.08,0.03,0.02,0.01c0.03,0.01,0.06,0.02,0.08,0.04
			c0.08,0.04,0.15,0.08,0.23,0.13c0.06,0.04-0.01-0.02,0.05,0.04c0.04,0.04,0.08,0.08,0.12,0.12c0.05,0.06,0-0.02,0.03,0.05
			c0.02,0.04,0.04,0.07,0.06,0.11c-0.03-0.06,0.01,0.04,0.01,0.06c0.01,0.05,0.01,0.04,0.01,0.1c0,0.02-0.01,0.05-0.02,0.1
			c0,0.01-0.04,0.11-0.02,0.08c-0.02,0.04-0.04,0.09-0.07,0.13c-0.01,0.02-0.03,0.04-0.04,0.06c-0.04,0.07,0.03-0.04-0.02,0.02
			c-0.07,0.08-0.14,0.16-0.22,0.23c-0.04,0.03-0.07,0.06-0.11,0.09c0.02-0.02,0.08-0.06-0.02,0.02c0.02-0.01-0.13,0.1-0.08,0.06
			c0.04-0.03-0.02,0.01-0.02,0.02c-0.02,0.01-0.04,0.03-0.06,0.04c-0.05,0.03-0.09,0.06-0.14,0.09c-0.09,0.05-0.18,0.1-0.28,0.15
			c-0.05,0.03-0.1,0.05-0.15,0.08c-0.02,0.01-0.04,0.02-0.07,0.03c-0.02,0.01-0.12,0.05-0.03,0.01c-0.11,0.04-0.21,0.08-0.32,0.12
			c-0.25,0.08-0.5,0.15-0.74,0.27c-0.33,0.16-0.23,0.62,0.09,0.72c0.55,0.17,1.18-0.06,1.67-0.31c0.49-0.25,0.95-0.66,1.23-1.14
			c0.29-0.49,0.4-1.09,0.11-1.61c-0.26-0.47-0.77-0.76-1.28-0.88c-0.62-0.14-1.29-0.03-1.85,0.29c-0.2,0.12-0.31,0.41-0.18,0.62
			C143.28,199.27,143.55,199.34,143.77,199.21L143.77,199.21z"/>
	</g>
</g>
<g>
	<g>
		<path class="st1" d="M146.74,199.06c0.13,0.38,0.29,0.74,0.52,1.07c0.12,0.17,0.24,0.34,0.39,0.49c0.15,0.15,0.31,0.28,0.48,0.4
			c0.14,0.1,0.38,0.04,0.49-0.07c0.12-0.13,0.16-0.32,0.07-0.48c-0.32-0.52-0.64-1.06-0.88-1.63c0.02,0.04,0.04,0.09,0.05,0.13
			c-0.03-0.07-0.05-0.13-0.08-0.2c-0.05-0.14-0.12-0.25-0.25-0.32c-0.11-0.06-0.28-0.09-0.4-0.05
			C146.88,198.49,146.64,198.78,146.74,199.06L146.74,199.06z"/>
	</g>
</g>
<g>
	<g>
		<path class="st1" d="M148.77,198c-0.3,1.34-0.57,2.69-0.66,4.06c-0.08,1.34-0.04,2.79,0.6,4c0.33,0.64,1.2,0.15,1.11-0.46
			c-0.17-1.24-0.36-2.43-0.31-3.69c0.05-1.27,0.24-2.52,0.41-3.77C150.02,197.48,148.91,197.38,148.77,198L148.77,198z"/>
	</g>
</g>
<g>
	<g>
		<path class="st1" d="M159.09,197.45c-0.46,0.66-0.91,1.48-0.69,2.31c0.2,0.74,0.89,1.36,1.69,1.2c0.73-0.14,1.2-0.87,1.26-1.57
			c0.08-0.85-0.47-1.59-0.98-2.22c-0.34-0.42-0.68-0.84-1.03-1.26c-0.18-0.22-0.36-0.44-0.56-0.64c-0.2-0.21-0.39-0.43-0.67-0.52
			c-0.33-0.1-0.57,0.23-0.53,0.52c0.03,0.24,0.22,0.45,0.36,0.64c0.15,0.21,0.32,0.41,0.49,0.61c0.3,0.35,0.6,0.7,0.9,1.05
			c0.43,0.5,1.15,1.17,1.04,1.9c-0.03,0.21-0.14,0.47-0.34,0.58c-0.22,0.11-0.44-0.04-0.57-0.22c-0.46-0.63,0.04-1.42,0.4-1.96
			c0.13-0.2,0.04-0.49-0.16-0.6C159.48,197.15,159.23,197.25,159.09,197.45L159.09,197.45z"/>
	</g>
</g>
<g>
	<g>
		<path class="st1" d="M162.22,199.61c0.55,0.18,1.11,0.34,1.7,0.26c0.48-0.07,0.93-0.33,1.2-0.75c0.27-0.41,0.26-0.95-0.03-1.35
			c-0.27-0.38-0.7-0.62-1.16-0.68c-0.45-0.06-0.93,0.01-1.31,0.27c-0.35,0.25-0.6,0.6-0.73,1.01c-0.25,0.84,0.03,1.81,0.71,2.36
			c0.9,0.73,2.17,0.75,3.18,0.24c0.41-0.21,0.14-0.84-0.29-0.72c-0.09,0.03-0.19,0.05-0.28,0.06c-0.1,0.02-0.12,0.02-0.24,0.04
			c0.08-0.01-0.08,0.01-0.07,0.01c-0.04,0-0.08,0.01-0.12,0.01c-0.1,0.01-0.21,0.01-0.31,0c-0.04,0-0.08,0-0.12-0.01
			c-0.09-0.01,0.11,0.02-0.04,0c-0.09-0.01-0.17-0.03-0.26-0.04c-0.09-0.02-0.17-0.04-0.25-0.07c-0.01,0-0.15-0.06-0.06-0.02
			c-0.04-0.02-0.08-0.03-0.12-0.05c0.05,0.02,0.04,0.02-0.01-0.01c-0.08-0.04-0.16-0.07-0.23-0.12c-0.03-0.02-0.07-0.04-0.1-0.06
			c-0.12-0.08,0.06,0.06-0.05-0.04c-0.06-0.05-0.11-0.1-0.16-0.15c-0.03-0.03-0.06-0.06-0.08-0.09c0.07,0.08-0.02-0.03-0.03-0.05
			c-0.04-0.06-0.08-0.13-0.11-0.2c-0.02-0.04-0.03-0.08-0.05-0.11c-0.01-0.02-0.03-0.08,0,0c-0.03-0.08-0.05-0.16-0.07-0.24
			c-0.01-0.03-0.01-0.05-0.02-0.08c0-0.02-0.02-0.17-0.02-0.09c-0.01-0.07-0.01-0.14-0.01-0.21c0-0.04,0-0.08,0.01-0.12
			c0,0,0.02-0.13,0.01-0.06c0.02-0.15,0.06-0.27,0.11-0.36c0.13-0.24,0.35-0.43,0.65-0.51c0.3-0.08,0.64-0.02,0.89,0.16
			c0.24,0.17,0.44,0.47,0.35,0.78c-0.1,0.32-0.44,0.54-0.76,0.59c-0.51,0.09-1.04-0.1-1.51-0.25
			C161.99,198.82,161.8,199.48,162.22,199.61L162.22,199.61z"/>
	</g>
</g>
<g>
	<g>
		<path class="st1" d="M168.75,195.87c-0.36-0.49-0.94-0.61-1.5-0.37c-0.6,0.25-0.86,0.84-0.92,1.46c-0.03,0.29,0.01,0.58,0.05,0.87
			c0.03,0.3,0.07,0.6,0.14,0.89c0.14,0.63,0.34,1.25,0.65,1.82c0.11,0.2,0.38,0.27,0.58,0.18c0.22-0.1,0.33-0.31,0.29-0.54
			c-0.15-0.9-0.37-1.79-0.46-2.69c-0.02-0.19-0.03-0.38-0.02-0.56c0.01-0.1,0.01-0.08,0.04-0.2c0.04-0.16-0.02,0.02,0.02-0.07
			c0.01-0.01,0.07-0.12,0.03-0.06c-0.05,0.06,0.04-0.04,0.05-0.05c-0.06,0.05-0.05,0.01,0,0.01c0.01-0.01,0.03-0.02,0.04-0.02
			c-0.06,0.02-0.07,0.02-0.03,0.01c0.03-0.01,0.06-0.02,0.1-0.03c0.03-0.01,0.03-0.01,0,0c-0.04,0.01-0.03,0.01,0.02,0
			c0-0.04-0.09,0.03,0,0c-0.01-0.01-0.03-0.01-0.04-0.02c0.01,0.01,0.03,0.01,0.04,0.02c-0.04-0.04-0.05-0.04-0.02-0.01
			c0.02,0.02,0.03,0.03,0.05,0.05c0.18,0.21,0.53,0.18,0.73,0.03C168.78,196.42,168.91,196.09,168.75,195.87L168.75,195.87z"/>
	</g>
</g>
<g>
	<g>
		<path class="st1" d="M166.48,199.29c0.93-0.13,1.86-0.29,2.68-0.77c0.17-0.1,0.28-0.32,0.22-0.51c-0.05-0.18-0.24-0.36-0.44-0.33
			c-0.45,0.06-0.89,0.15-1.33,0.25c-0.42,0.1-0.84,0.18-1.26,0.24c-0.13,0.02-0.3,0.16-0.36,0.27c-0.06,0.11-0.09,0.23-0.07,0.35
			C165.96,199.06,166.2,199.33,166.48,199.29L166.48,199.29z"/>
	</g>
</g>
<g>
	<g>
		<path class="st1" d="M169.89,199.32c-0.01,0.3,0.01,0.6,0.06,0.89c0.05,0.29,0.17,0.57,0.32,0.81c0.11,0.17,0.33,0.28,0.53,0.21
			c0.08-0.03,0.16-0.07,0.22-0.13c0.08-0.07,0.15-0.22,0.14-0.33c-0.01-0.08-0.01-0.16-0.02-0.23c-0.01-0.12-0.03-0.24-0.04-0.35
			c0.01,0.05,0.01,0.09,0.02,0.14c-0.04-0.34-0.05-0.68-0.02-1.02c0.02-0.15-0.07-0.33-0.18-0.43c-0.1-0.1-0.28-0.17-0.42-0.17
			C170.18,198.73,169.91,198.98,169.89,199.32L169.89,199.32z"/>
	</g>
</g>
<g>
	<g>
		<path class="st1" d="M170.89,197.54c0.04-0.05,0.08-0.1,0.12-0.15c0.02-0.02,0.03-0.05,0.04-0.07c0.02-0.04,0.04-0.08,0.05-0.13
			c0.01-0.04,0.02-0.1,0.02-0.14c0-0.01,0-0.03,0-0.04c0-0.04-0.01-0.08-0.01-0.12c0-0.01,0-0.01,0-0.02
			c-0.01-0.04-0.03-0.08-0.05-0.12c0,0,0-0.01-0.01-0.01c-0.01-0.02-0.03-0.04-0.03-0.04c-0.01-0.01-0.02-0.03-0.04-0.05
			c-0.01-0.01-0.01-0.01-0.02-0.02c-0.02-0.02-0.07-0.05-0.1-0.07c-0.04-0.02-0.07-0.03-0.11-0.04c0,0-0.01,0-0.01,0c0,0,0,0-0.01,0
			c0,0,0,0-0.01,0c-0.03,0-0.07-0.01-0.1-0.01c-0.02,0-0.08,0.01-0.11,0.01c0,0,0,0,0,0c0,0-0.01,0-0.01,0
			c-0.02,0.01-0.05,0.02-0.07,0.03c-0.02,0.01-0.05,0.02-0.07,0.03c-0.03,0.02-0.07,0.05-0.1,0.08c-0.03,0.03-0.05,0.06-0.07,0.09
			c-0.02,0.03-0.03,0.06-0.04,0.09c0,0,0,0,0,0.01c0,0.03-0.01,0.06-0.01,0.09c0,0.03,0,0.06,0.01,0.09
			c0.01,0.05,0.03,0.09,0.06,0.12c0.03,0.04,0.06,0.07,0.1,0.09c0.03,0.01,0.06,0.02,0.08,0.03c0.06,0.02,0.12,0.01,0.18,0
			c0.08-0.02,0.11-0.05,0.17-0.1c-0.03,0.02-0.05,0.04-0.08,0.06c0,0,0.01-0.01,0.01-0.01c-0.03,0.01-0.06,0.03-0.09,0.04
			c0.01,0,0.01,0,0.02,0c-0.03,0-0.06,0.01-0.1,0.01c0.01,0,0.01,0,0.02,0c-0.03,0-0.06-0.01-0.1-0.01c0.01,0,0.02,0,0.03,0.01
			c-0.03-0.01-0.06-0.02-0.09-0.04c0,0,0.01,0,0.01,0c0.02,0.01,0.03,0.01,0.06,0.02c0.02,0.01,0.05,0.02,0.07,0.03
			c-0.03-0.01-0.06-0.02-0.09-0.04c0.01,0,0.02,0.01,0.03,0.02c-0.03-0.02-0.05-0.04-0.08-0.06c0.01,0.01,0.02,0.01,0.02,0.02
			c-0.02-0.03-0.04-0.06-0.06-0.08c0.01,0.01,0.01,0.01,0.01,0.02c-0.01-0.03-0.03-0.07-0.04-0.1c0,0.01,0.01,0.02,0.01,0.03
			c0-0.03-0.01-0.07-0.01-0.1c0,0.02,0,0.03,0,0.05c0.01-0.03,0.01-0.07,0.02-0.1c0,0.02-0.01,0.04-0.02,0.06
			c0.01-0.03,0.03-0.06,0.04-0.1c-0.01,0.03-0.03,0.06-0.05,0.09c0.02-0.03,0.04-0.06,0.07-0.08c-0.02,0.02-0.04,0.04-0.05,0.06
			c-0.04,0.04-0.07,0.08-0.09,0.13c-0.02,0.05-0.04,0.1-0.04,0.15c0,0.05,0.01,0.11,0.03,0.15c0.02,0.05,0.04,0.1,0.09,0.13
			c0.03,0.02,0.06,0.04,0.08,0.06c0.06,0.03,0.13,0.05,0.2,0.05c0.04,0,0.07-0.01,0.11-0.01
			C170.78,197.63,170.84,197.59,170.89,197.54L170.89,197.54z"/>
	</g>
</g>
<g>
	<g>
		<path class="st1" d="M172.77,200.37c-0.07-0.24-0.14-0.49-0.14-0.74c0-0.09,0.02-0.16,0.05-0.25c-0.02,0.06,0.04-0.07,0.04-0.08
			c0.01-0.02,0.03-0.04,0.04-0.06c-0.02,0.03-0.02,0.03,0.01-0.01c0.01-0.01,0.11-0.09,0.07-0.07c-0.06,0.04,0.13-0.06,0.01-0.01
			c0.02-0.01,0.16-0.04,0.07-0.02c0.05-0.01,0.06,0,0.12,0.02c0.05,0.02,0.13,0.07,0.17,0.1c0.08,0.06,0.15,0.14,0.21,0.21
			c-0.07-0.09,0.02,0.04,0.03,0.06c0.03,0.04,0.05,0.08,0.07,0.13c0.02,0.03,0.03,0.07,0.05,0.1c0.02,0.05,0.02,0.05,0-0.01
			c0.01,0.02,0.02,0.05,0.03,0.07c0.06,0.18,0.1,0.37,0.13,0.56c0,0.02,0.03,0.19,0.01,0.07c0.01,0.05,0.01,0.11,0.02,0.16
			c-0.01-0.06-0.01-0.06,0-0.01c0.01,0.09,0.02,0.19,0.02,0.28c0.01,0.23,0.05,0.46,0.1,0.69c0.09,0.4,0.68,0.37,0.78-0.01
			c0.2-0.77,0.1-1.71-0.34-2.39c-0.24-0.38-0.62-0.72-1.07-0.82c-0.49-0.11-0.97,0.14-1.21,0.58c-0.29,0.51-0.19,1.11-0.05,1.65
			C172.11,201.08,172.91,200.86,172.77,200.37L172.77,200.37z"/>
	</g>
</g>
<g>
	<g>
		<path class="st1" d="M175.27,199.7c0.05,0.21,0.09,0.43,0.15,0.63c0.03,0.1,0.06,0.21,0.09,0.31c0.04,0.15,0.12,0.28,0.19,0.41
			c0.11,0.19,0.33,0.28,0.54,0.26c0.1-0.01,0.19-0.05,0.27-0.11c0.09-0.07,0.18-0.17,0.2-0.29c0.03-0.14,0.07-0.29,0.07-0.44
			c0-0.11,0-0.22-0.01-0.32c-0.01-0.22-0.04-0.43-0.05-0.65c0-0.13-0.03-0.25-0.09-0.36c-0.04-0.05-0.08-0.1-0.12-0.15
			c-0.15-0.16-0.39-0.22-0.61-0.19c-0.2,0.03-0.37,0.12-0.5,0.29C175.27,199.26,175.22,199.48,175.27,199.7L175.27,199.7z"/>
	</g>
</g>
<g>
	<g>
		<path class="st1" d="M175.1,197.26c0.01,0.02,0.02,0.04,0.02,0.06c0-0.04-0.01-0.08-0.01-0.11
			C175.1,197.22,175.1,197.24,175.1,197.26c0,0.1,0.02,0.19,0.07,0.28c0.04,0.07,0.1,0.12,0.16,0.18c0.03,0.03,0.05,0.05,0.08,0.08
			c0.03,0.03,0.06,0.05,0.1,0.08c0.04,0.02,0.08,0.04,0.12,0.05c0.01,0,0.03,0.01,0.04,0.01c0.05,0.01,0.1,0.02,0.15,0
			c0.05,0,0.1-0.02,0.15-0.05c0.03-0.02,0.06-0.04,0.08-0.06c0.05-0.05,0.08-0.11,0.1-0.17c0-0.01,0-0.03,0.01-0.04
			c0.01-0.04,0.02-0.09,0.02-0.13c0-0.04-0.01-0.08-0.01-0.11c0-0.01,0-0.01,0-0.02c-0.01-0.04-0.02-0.07-0.03-0.11
			c-0.02-0.08-0.04-0.16-0.08-0.22c-0.03-0.06-0.08-0.11-0.13-0.14c-0.02-0.02-0.04-0.03-0.06-0.04c-0.01,0-0.02-0.01-0.03-0.01
			c-0.02-0.01-0.03-0.01-0.05-0.02c0.03,0.02,0.06,0.05,0.09,0.07c-0.02-0.01-0.03-0.03-0.04-0.05c-0.03-0.02-0.06-0.04-0.09-0.07
			c-0.05-0.03-0.1-0.05-0.16-0.05c-0.04-0.01-0.08-0.01-0.11,0c-0.06,0-0.12,0.02-0.17,0.05c-0.03,0.02-0.06,0.05-0.09,0.07
			c-0.02,0.03-0.05,0.06-0.07,0.09c-0.03,0.05-0.05,0.1-0.05,0.16C175.08,197.15,175.08,197.2,175.1,197.26L175.1,197.26z"/>
	</g>
</g>
<g>
	<g>
		<path class="st1" d="M178.7,196.48c0,0.75,0.01,1.5,0.04,2.25c0.03,0.75,0.05,1.53,0.25,2.26c0.12,0.46,0.76,0.32,0.8-0.11
			c0.07-0.73,0-1.47-0.03-2.2c-0.03-0.73-0.04-1.47-0.04-2.2C179.72,195.82,178.7,195.85,178.7,196.48L178.7,196.48z"/>
	</g>
</g>
<g>
	<g>
		<path class="st1" d="M178.41,198.64c0.82-0.01,1.64,0.02,2.45-0.14c0.36-0.07,0.38-0.64,0.01-0.71c-0.8-0.16-1.63-0.13-2.44-0.14
			c-0.26,0-0.52,0.23-0.51,0.5C177.93,198.42,178.14,198.64,178.41,198.64L178.41,198.64z"/>
	</g>
</g>
<g>
	<g>
		<path class="st1" d="M181.65,199.22c0.02,0.37,0.04,0.73,0.08,1.1c0.04,0.39,0.07,0.79,0.19,1.16c0.06,0.17,0.21,0.32,0.41,0.31
			c0.18-0.01,0.38-0.13,0.42-0.32c0.09-0.39,0.09-0.77,0.09-1.16c0-0.37-0.02-0.73-0.03-1.1c-0.01-0.3-0.25-0.58-0.57-0.56
			C181.96,198.66,181.63,198.9,181.65,199.22L181.65,199.22z"/>
	</g>
</g>
<g>
	<g>
		<path class="st1" d="M181.84,197.07c0.03,0.13,0.12,0.25,0.24,0.31c0.04,0.02,0.09,0.04,0.14,0.05c0.1,0.02,0.16,0.02,0.26,0
			c0.05-0.01,0.1-0.03,0.14-0.06c0.02-0.01,0.05-0.04,0.06-0.04c0.01,0,0.04-0.03,0.05-0.04c0,0,0,0,0.01-0.01
			c0.02-0.03,0.05-0.06,0.07-0.09c0,0,0-0.01,0.01-0.01c0.06-0.1,0.07-0.22,0.05-0.33c-0.01-0.03-0.04-0.09-0.05-0.13
			c-0.01-0.02-0.02-0.04-0.03-0.06c-0.02-0.04-0.04-0.07-0.06-0.11c-0.03-0.04-0.07-0.1-0.11-0.13c-0.04-0.03-0.07-0.06-0.11-0.08
			c-0.01-0.01-0.02-0.01-0.03-0.02c-0.01,0-0.02-0.01-0.03-0.01c-0.04-0.02-0.08-0.04-0.13-0.05c-0.03-0.01-0.06-0.01-0.08-0.01
			c-0.07-0.01-0.13-0.01-0.2,0.01c-0.11,0.04-0.2,0.08-0.28,0.17c-0.03,0.03-0.06,0.07-0.08,0.1c0,0.01-0.01,0.01-0.01,0.02
			c-0.02,0.04-0.04,0.08-0.05,0.11c0,0.01,0,0.02-0.01,0.02c-0.01,0.03-0.01,0.07-0.02,0.1c0,0,0,0.01,0,0.01
			c0,0.03,0.01,0.07,0.01,0.1c0.01,0.04,0.03,0.07,0.04,0.11c0.02,0.04,0.05,0.08,0.08,0.11c0.04,0.04,0.09,0.07,0.15,0.08
			c0.04,0.01,0.09,0.01,0.13,0c0.05,0,0.09-0.02,0.13-0.04c0.05-0.03,0.1-0.07,0.13-0.13c0-0.01,0.01-0.02,0.01-0.02
			c-0.02,0.03-0.04,0.05-0.06,0.08c0.01-0.01,0.01-0.01,0.02-0.02c-0.03,0.02-0.05,0.04-0.08,0.06c0.04-0.02,0.07-0.05,0.1-0.08
			c-0.03,0.02-0.06,0.04-0.08,0.06c0.01-0.01,0.02-0.01,0.03-0.02c-0.03,0.01-0.07,0.03-0.1,0.04c0.01,0,0.03-0.01,0.04-0.01
			c-0.04,0.01-0.07,0.01-0.11,0.02c0.02,0,0.03,0,0.05,0c-0.04,0-0.08-0.01-0.11-0.01c0.02,0,0.03,0.01,0.05,0.01
			c-0.04-0.01-0.07-0.03-0.11-0.04c0,0,0.01,0,0.01,0c0.05,0.03,0.11,0.05,0.17,0.05c0.03,0,0.05,0.01,0.08,0.01
			c-0.04,0-0.08-0.01-0.12-0.01c0.01,0,0.03,0.01,0.04,0.01c-0.04-0.01-0.07-0.03-0.11-0.04c0.02,0.01,0.04,0.02,0.07,0.04
			c-0.03-0.02-0.06-0.05-0.1-0.07c0.04,0.03,0.07,0.06,0.1,0.1c-0.02-0.03-0.05-0.06-0.07-0.09c0.03,0.03,0.05,0.07,0.07,0.11
			c-0.01-0.11-0.03-0.22-0.04-0.33c0,0,0,0,0,0c0.01-0.03,0.03-0.07,0.04-0.1c0,0.01-0.01,0.01-0.01,0.02
			c0.02-0.03,0.05-0.06,0.07-0.09c0,0.01-0.01,0.01-0.02,0.02c0.03-0.02,0.06-0.05,0.09-0.07c-0.01,0-0.01,0.01-0.02,0.01
			c0.04-0.02,0.07-0.03,0.11-0.05c-0.01,0-0.02,0.01-0.03,0.01c0.04-0.01,0.08-0.01,0.11-0.02c-0.01,0-0.02,0-0.03,0
			c0.04,0,0.07,0.01,0.11,0.01c-0.01,0-0.02,0-0.03-0.01c0.03,0.01,0.07,0.03,0.1,0.04c-0.01,0-0.01-0.01-0.02-0.01
			c0.03,0.02,0.06,0.04,0.09,0.06c-0.01,0-0.01-0.01-0.02-0.02c0.02,0.03,0.05,0.06,0.07,0.09c0-0.01-0.01-0.01-0.01-0.02
			c-0.03-0.05-0.06-0.09-0.11-0.12c-0.04-0.04-0.09-0.06-0.14-0.07c-0.04,0-0.07-0.01-0.11-0.01c-0.06,0-0.11,0.01-0.16,0.04
			c-0.04,0.01-0.07,0.03-0.1,0.06c-0.05,0.03-0.09,0.07-0.11,0.12C181.84,196.85,181.82,196.96,181.84,197.07L181.84,197.07z"/>
	</g>
</g>
<g>
	<g>
		<path class="st1" d="M185.26,198.28c-0.32,0.17-0.55,0.49-0.65,0.84c-0.1,0.37-0.05,0.74,0.11,1.09c0.28,0.61,1.01,1.09,1.69,1.06
			c0.42-0.02,0.83-0.24,1.01-0.64c0.17-0.38,0.2-0.83,0.11-1.24c-0.08-0.35-0.27-0.69-0.53-0.93c-0.29-0.26-0.62-0.41-1.01-0.44
			c-0.4-0.03-0.8,0.14-1.09,0.4c-0.29,0.26-0.5,0.69-0.37,1.09c0.11,0.35,0.61,0.35,0.72-0.01c0.01-0.02,0.04-0.11,0-0.02
			c0.02-0.04,0.04-0.08,0.05-0.12c0.01-0.02,0.01-0.07,0.03-0.08c-0.04,0.04-0.03,0.06-0.01,0.02c0.03-0.04,0.05-0.08,0.08-0.13
			c0.06-0.09-0.07,0.07,0,0c0.02-0.02,0.04-0.04,0.06-0.06c0.03-0.03,0.1-0.05,0,0c0.02-0.01,0.03-0.02,0.05-0.03
			c0.02-0.01,0.13-0.06,0.13-0.07c-0.02,0.01-0.04,0.02-0.06,0.02c0.02-0.01,0.04-0.01,0.06-0.02c0.02-0.01,0.04-0.01,0.06-0.02
			c0.04-0.01,0.11,0,0,0c0.03,0,0.06-0.01,0.09-0.01c0.01,0,0.09,0,0.09,0c0,0-0.12-0.02-0.03,0c0.05,0.01,0.1,0.02,0.15,0.04
			c0.1,0.03-0.1-0.05,0,0c0.02,0.01,0.04,0.02,0.06,0.03c0.01,0,0.17,0.09,0.16,0.1c-0.02-0.01-0.03-0.03-0.05-0.04
			c0.02,0.01,0.03,0.03,0.05,0.04c0.02,0.01,0.03,0.03,0.05,0.04c0.04,0.04,0.08,0.07,0.11,0.12c0.01,0.01,0.01,0.02,0.02,0.02
			c0.03,0.04,0.03,0.03-0.02-0.03c0,0,0.04,0.06,0.04,0.05c0.04,0.05,0.06,0.11,0.09,0.17c0.05,0.09-0.02-0.07,0,0
			c0.01,0.03,0.02,0.06,0.03,0.09c0.02,0.06,0.03,0.12,0.04,0.19c0.02,0.12,0-0.06,0,0.01c0,0.03,0,0.06,0,0.1c0,0.03,0,0.06,0,0.1
			c0,0.02,0,0.04-0.01,0.06c0.01-0.06,0.01-0.06,0-0.01c-0.01,0.05-0.02,0.13-0.05,0.17c0.01-0.02,0.01-0.03,0.02-0.05
			c-0.01,0.02-0.02,0.03-0.03,0.05c0,0.01-0.01,0.01-0.01,0.02c-0.03,0.05-0.02,0.04,0.02-0.02c0,0.02-0.05,0.05-0.06,0.06
			c-0.05,0.05,0.11-0.07,0.02-0.02c-0.09,0.05,0.1-0.03,0.03-0.01c-0.02,0.01-0.08,0.01-0.1,0.03c0.04-0.04,0.11-0.01,0.04-0.01
			c-0.03,0-0.06,0-0.09,0c-0.09,0,0.03,0,0.04,0.01c-0.01-0.01-0.08-0.01-0.09-0.02c-0.04-0.01-0.12-0.05-0.15-0.05
			c0.05-0.01,0.09,0.04,0.03,0.01c-0.04-0.02-0.08-0.04-0.11-0.06c-0.04-0.02-0.1-0.08-0.14-0.09c0.05,0.01,0.08,0.06,0.03,0.02
			c-0.02-0.02-0.05-0.04-0.07-0.06c-0.04-0.04-0.08-0.07-0.12-0.11c-0.02-0.02-0.03-0.03-0.05-0.05c-0.01-0.02-0.03-0.03-0.04-0.05
			c-0.04-0.04-0.03-0.03,0.03,0.03c0-0.04-0.07-0.11-0.09-0.15c-0.01-0.02-0.02-0.05-0.04-0.07c-0.05-0.09,0.03,0.1,0,0.01
			c-0.02-0.06-0.03-0.12-0.04-0.18c0.03,0.13,0.01,0.05,0.01,0.01c0-0.03,0-0.06,0-0.09c0-0.11-0.03,0.11,0,0.01
			c0.01-0.03,0.01-0.06,0.02-0.09c0.01-0.02,0.02-0.05,0.02-0.07c0.01-0.03,0.01-0.02-0.02,0.05c0.01-0.02,0.02-0.04,0.03-0.05
			c0.01-0.02,0.02-0.03,0.03-0.05c0.03-0.04,0.02-0.03-0.03,0.03c0.01-0.02,0.03-0.03,0.04-0.04c0.01-0.01,0.03-0.03,0.04-0.04
			c0.04-0.03,0.03-0.03-0.04,0.02c0.02-0.01,0.03-0.02,0.05-0.03c0.21-0.13,0.33-0.43,0.19-0.65
			C185.77,198.22,185.49,198.15,185.26,198.28L185.26,198.28z"/>
	</g>
</g>
<g>
	<g>
		<path class="st1" d="M189.07,200.85c0-0.01,0.01-0.01,0.01-0.02c-0.05,0.05-0.11,0.1-0.16,0.16c0,0,0.01,0,0.01,0
			c-0.11,0.02-0.21,0.03-0.32,0.05c0,0,0.01,0,0.01,0c-0.06-0.03-0.12-0.07-0.19-0.1c-0.08-0.09-0.11-0.19-0.08-0.3
			c0.04-0.06,0.07-0.12,0.11-0.19c0,0-0.01,0.01-0.01,0.01c0.07-0.04,0.13-0.08,0.2-0.11c0.02,0,0.04-0.01,0.06-0.01
			c0.07,0.02,0.14,0.03,0.21,0.05c0.05,0.03,0.09,0.08,0.1,0.14c-0.01-0.02-0.01-0.04-0.02-0.06c-0.01-0.07-0.02-0.14-0.03-0.21
			c-0.02-0.12-0.03-0.24-0.04-0.36c-0.01-0.12-0.02-0.23-0.02-0.35c0-0.1,0-0.26,0.01-0.32c0.02-0.12,0.04-0.2,0.09-0.28
			c0-0.01,0.08-0.1,0.02-0.04c0.03-0.04,0.07-0.08,0.11-0.11c-0.07,0.06,0.05-0.02,0.07-0.03c-0.05,0.02-0.05,0.02,0,0.01
			c-0.05,0-0.05,0.01,0,0c0.05,0,0.05,0,0.01,0c0.03,0.01,0.06,0.01,0.08,0.02c-0.06-0.02,0.06,0.04,0.07,0.04
			c0.04,0.03,0.09,0.05,0.13,0.08c-0.07-0.05,0.06,0.05,0.07,0.06c0.08,0.07,0.17,0.14,0.24,0.22c0.07,0.07,0.13,0.14,0.2,0.21
			c0.01,0.02,0.12,0.16,0.05,0.06c0.03,0.04,0.06,0.09,0.1,0.13c0.24,0.35,0.43,0.72,0.63,1.09c0.18,0.34,0.78,0.18,0.76-0.21
			c-0.03-0.58-0.29-1.11-0.66-1.55c-0.15-0.18-0.33-0.35-0.52-0.5c-0.24-0.18-0.48-0.36-0.77-0.45c-0.63-0.21-1.23,0.24-1.43,0.82
			c-0.1,0.28-0.1,0.59-0.09,0.89c0.02,0.32,0.04,0.64,0.09,0.96c0.03,0.19,0.12,0.36,0.29,0.45c0.24,0.13,0.56,0.04,0.67-0.22
			c0.08-0.18,0.05-0.4-0.1-0.55c-0.22-0.22-0.55-0.13-0.71,0.11c-0.12,0.18-0.05,0.47,0.15,0.57
			C188.7,201.12,188.94,201.05,189.07,200.85L189.07,200.85z"/>
	</g>
</g>
<g>
	<g>
		<path class="st1" d="M159.87,203.88c8.59,0.03,17.18,0,25.77-0.36c2.44-0.1,4.91-0.16,7.34-0.42c0.41-0.04,0.46-0.65,0.01-0.66
			c-2.15-0.03-4.31,0.09-6.47,0.15c-2.16,0.06-4.31,0.13-6.47,0.19c-4.27,0.12-8.55,0.28-12.82,0.34c-2.45,0.03-4.9,0.06-7.35,0.07
			C159.44,203.18,159.41,203.87,159.87,203.88L159.87,203.88z"/>
	</g>
</g>
<g>
	<g>
		<path class="st1" d="M143.88,204.24c2.74,0.12,5.51,0.26,8.25,0.09c0.4-0.02,0.43-0.61,0.01-0.63c-2.75-0.1-5.5-0.02-8.25-0.07
			C143.5,203.63,143.48,204.23,143.88,204.24L143.88,204.24z"/>
	</g>
</g>
<g>
	<g>
		<path class="st1" d="M194.36,195.61c0.18,0.88,0.36,1.76,0.54,2.64c0.18,0.88,0.38,1.79,0.72,2.62c0.2,0.48,0.99,0.21,0.97-0.27
			c-0.03-0.9-0.24-1.82-0.44-2.69c-0.2-0.87-0.4-1.75-0.6-2.62C195.38,194.52,194.21,194.86,194.36,195.61L194.36,195.61z"/>
	</g>
</g>
<g>
	<g>
		<path class="st1" d="M196.23,204.55c0.16,0.01,0.33-0.07,0.44-0.18c0.09-0.09,0.16-0.21,0.19-0.33c0.01-0.06,0.03-0.12,0.02-0.19
			c-0.01-0.1-0.02-0.17-0.06-0.26c-0.01-0.02-0.02-0.03-0.03-0.04c-0.03-0.04-0.05-0.08-0.09-0.1c-0.05-0.04-0.07-0.06-0.12-0.08
			c-0.07-0.03-0.14-0.03-0.22-0.01c-0.02,0-0.05,0.01-0.07,0.02c-0.11,0.04-0.2,0.09-0.28,0.17c-0.08,0.08-0.13,0.17-0.17,0.28
			c0.01-0.03,0.02-0.05,0.04-0.08c-0.05,0.1-0.08,0.18-0.08,0.29c0,0,0,0.01,0,0.01c0,0.06,0.01,0.14,0.05,0.19
			c0.02,0.03,0.05,0.07,0.08,0.1c0.04,0.04,0.08,0.07,0.13,0.1c-0.03-0.02-0.05-0.04-0.08-0.06c0.03,0.03,0.07,0.06,0.11,0.07
			c0.04,0.02,0.08,0.03,0.12,0.05c0.02,0.01,0.05,0.01,0.07,0.02c0.05,0.01,0.11,0.02,0.17,0.01c0.06-0.01,0.12-0.01,0.17-0.03
			c0.06-0.02,0.11-0.04,0.16-0.06c0.02-0.01,0.04-0.02,0.06-0.04c0.1-0.07,0.17-0.14,0.24-0.24c0.07-0.11,0.07-0.27,0-0.39
			c-0.07-0.12-0.2-0.19-0.34-0.19c-0.09,0-0.17-0.01-0.26-0.02c-0.04,0-0.08-0.01-0.12-0.01c-0.08,0-0.18,0.01-0.25,0.06
			c-0.02,0.01-0.03,0.02-0.05,0.03c-0.06,0.03-0.1,0.08-0.13,0.13c-0.03,0.04-0.04,0.08-0.04,0.13c-0.01,0.04-0.01,0.09,0,0.14
			c0.02,0.06,0.05,0.12,0.09,0.16c0.01,0.01,0.02,0.02,0.04,0.03c0.04,0.04,0.08,0.06,0.13,0.08c0.02,0.01,0.04,0.02,0.06,0.02
			c0.04,0.01,0.08,0.01,0.12,0.01c0.04,0,0.08,0,0.13,0c0.09,0,0.17-0.01,0.26,0c-0.09-0.22-0.18-0.44-0.27-0.66
			c-0.02,0.02-0.04,0.04-0.06,0.06c0.03-0.02,0.06-0.04,0.09-0.07c-0.03,0.02-0.06,0.04-0.09,0.05c0.03-0.01,0.07-0.03,0.1-0.04
			c-0.03,0.01-0.07,0.02-0.1,0.03c0.03,0,0.07-0.01,0.1-0.01c-0.05,0.01-0.1,0.01-0.15,0c0.03,0,0.07,0.01,0.1,0.01
			c-0.05-0.01-0.09-0.02-0.14-0.04c0.03,0.01,0.06,0.02,0.09,0.04c-0.01,0-0.02-0.01-0.03-0.02c0.05,0.05,0.09,0.09,0.14,0.14
			c0,0,0,0,0-0.01c0.01,0.03,0.02,0.06,0.04,0.09c-0.01-0.02-0.01-0.05-0.02-0.07c0,0.03,0.01,0.06,0.01,0.09c0-0.02,0-0.04,0-0.06
			c0,0.03-0.01,0.06-0.01,0.09c0-0.02,0.01-0.05,0.02-0.07c-0.01,0.03-0.02,0.05-0.03,0.08c0.01-0.03,0.03-0.05,0.05-0.08
			c-0.02,0.02-0.04,0.05-0.05,0.07c0.02-0.02,0.04-0.04,0.06-0.06c-0.02,0.02-0.05,0.04-0.07,0.05c0.02-0.01,0.04-0.03,0.06-0.04
			c-0.03,0.01-0.05,0.02-0.08,0.03c0.01,0,0.03-0.01,0.04-0.01c-0.03,0-0.06,0.01-0.08,0.01c0,0,0.01,0,0.01,0
			c-0.08-0.03-0.15-0.06-0.23-0.09c0.01,0.01,0.03,0.03,0.04,0.04c-0.02-0.02-0.04-0.05-0.05-0.07c0.01,0.01,0.02,0.03,0.03,0.05
			c-0.01-0.03-0.02-0.05-0.03-0.08c0.01,0.02,0.01,0.04,0.02,0.07c0-0.03-0.01-0.06-0.01-0.08c0,0.03,0,0.05,0,0.08
			c0-0.03,0.01-0.06,0.01-0.08c0,0.03-0.01,0.06-0.03,0.09c0.01-0.03,0.02-0.05,0.03-0.08c-0.01,0.03-0.03,0.05-0.05,0.08
			c0.02-0.02,0.04-0.05,0.05-0.07c-0.01,0.01-0.03,0.03-0.04,0.04c0.03-0.02,0.05-0.04,0.08-0.06c-0.02,0.01-0.04,0.03-0.06,0.04
			c0.03-0.01,0.06-0.02,0.09-0.04c-0.02,0.01-0.04,0.01-0.06,0.02c0.03,0,0.06-0.01,0.09-0.01c-0.02,0-0.04,0-0.05,0
			c0.03,0,0.06,0.01,0.09,0.01c-0.01,0-0.03,0-0.04-0.01c-0.1-0.03-0.2,0-0.29,0.04c-0.06,0.03-0.11,0.08-0.14,0.14
			c-0.03,0.04-0.04,0.09-0.05,0.14c-0.01,0.05-0.01,0.09,0,0.14c0.01,0.05,0.03,0.09,0.07,0.13c0.03,0.04,0.06,0.07,0.11,0.1
			C196.1,204.53,196.16,204.55,196.23,204.55L196.23,204.55z"/>
	</g>
</g>
</svg>
