<?xml version="1.0" encoding="utf-8"?>
<!-- Generator: Adobe Illustrator 26.0.2, SVG Export Plug-In . SVG Version: 6.00 Build 0)  -->
<svg version="1.1" id="Layer_1" xmlns="http://www.w3.org/2000/svg" xmlns:xlink="http://www.w3.org/1999/xlink" x="0px" y="0px"
	 viewBox="0 0 71 23" style="enable-background:new 0 0 71 23;" xml:space="preserve">
<style type="text/css">
	.st0{fill:none;stroke:#486AFB;stroke-miterlimit:10;}
	.st1{fill:#486AFB;}
	.st2{fill:#FD46FC;}
</style>
<circle class="st0" cx="11.5" cy="11.5" r="11"/>
<circle class="st0" cx="59.5" cy="11.5" r="11"/>
<g>
	<g>
		<line class="st0" x1="24.5" y1="11.5" x2="42.98" y2="11.5"/>
		<g>
			<path class="st1" d="M46,11.5c-1.42,0.53-3.18,1.43-4.27,2.38l0.86-2.38l-0.86-2.38C42.82,10.07,44.58,10.97,46,11.5z"/>
		</g>
	</g>
</g>
<path class="st2" d="M11.72,10.73l1.67-2.2c0.11-0.14,0.12-0.15,0.47-0.18c0.24-0.03,0.3-0.03,0.58-0.03h0.29V7.86
	c-0.42,0.03-0.9,0.03-1.33,0.03c-0.39,0-1.15,0-1.51-0.03v0.47c0.18,0,0.57,0,0.91,0.11c-0.01,0.02-0.06,0.08-0.08,0.11l-1.31,1.74
	L9.98,8.33h0.82V7.86c-0.41,0.03-1.35,0.03-1.8,0.03c-0.4,0-1.26,0-1.61-0.03v0.47h0.97l2.2,3.05l-2.01,2.63
	c-0.09,0.12-0.11,0.14-0.43,0.17c-0.2,0.02-0.41,0.03-0.6,0.03H7.25v0.47c0.42-0.03,0.9-0.03,1.33-0.03c0.39,0,1.15,0,1.51,0.03
	v-0.47c-0.18,0-0.57,0-0.91-0.11c0.01-0.02,0.06-0.08,0.08-0.11l1.64-2.18l1.73,2.39H11.8v0.47c0.41-0.03,1.35-0.03,1.8-0.03
	c0.4,0,1.26,0,1.61,0.03v-0.47h-0.97L11.72,10.73"/>
<path class="st2" d="M62.62,8.43c0.09-0.14,0.17-0.14,0.39-0.17c0.17-0.02,0.35-0.03,0.52-0.03h0.21V7.77
	c-0.4,0.01-0.85,0.03-1.13,0.03c-0.39,0-0.94,0-1.31-0.03v0.47c0.23,0,0.5,0,0.75,0.1c-0.02,0.04-0.02,0.06-0.07,0.12l-1.86,2.73
	L58.1,8.23h0.84V7.77C58.54,7.8,57.57,7.8,57.13,7.8c-0.4,0-1.29,0-1.64-0.03v0.47h0.97l2.47,3.62v2.25h-1.07v0.47
	c0.36-0.03,1.33-0.03,1.75-0.03c0.43,0,1.38,0,1.76,0.03v-0.47h-1.08v-2.25L62.62,8.43"/>
</svg>
