<svg id="Layer_1" data-name="Layer 1" xmlns="http://www.w3.org/2000/svg" viewBox="0 0 257.11 135.28"><defs><style>.cls-1{fill:#486afb;}.cls-2{fill:#fff;}.cls-3{fill:#fd46fc;}</style></defs><path class="cls-1" d="M63.67,45a15.39,15.39,0,0,0,1.42-12.67,20.41,20.41,0,0,0-8.27-11A36.51,36.51,0,0,0,42.6,16.1c-5.65-1-11.62-1.56-17.32-.64A30.3,30.3,0,0,0,.09,47.65c.4,5.18,2.32,10,4.58,14.57s4.76,9,6.05,13.91a23.13,23.13,0,0,1,.72,7.9,38,38,0,0,1-2,8.8c-1.88,5.57-4.4,11-5.24,16.83-.68,4.72-.17,9.92,2.58,13.94,3,4.41,8.11,6.09,13.21,6.67,6,.69,12-.33,17.79-1.84A90.68,90.68,0,0,0,53.28,123a37.69,37.69,0,0,0,12.58-9.08c7.38-8.45,9.83-20,9-30.94a69,69,0,0,0-3.66-17.09,62.3,62.3,0,0,0-3.32-7.86c-1.26-2.5-2.87-4.92-3.7-7.62-.69-2.28-.73-5,.85-6.88.57-.68-.4-1.62-1-.94a8.47,8.47,0,0,0-1.6,6.61c.37,2.65,1.71,5.05,2.92,7.39a74.42,74.42,0,0,1,5.91,15.53C74,82.86,74.44,94.72,69.69,105a32.27,32.27,0,0,1-9.2,11.8,48.38,48.38,0,0,1-13.43,7.07A95.76,95.76,0,0,1,31,128.42c-5.45,1-11.4,1.25-16.68-.69a13.2,13.2,0,0,1-5.94-4.2,15.41,15.41,0,0,1-2.77-6.19c-1.15-5.29.19-10.61,1.94-15.6,1.87-5.37,4.22-10.64,5-16.32a24.42,24.42,0,0,0-.18-8,34.63,34.63,0,0,0-2.22-6.94C8.21,66,5.67,61.7,3.79,57.14A30.58,30.58,0,0,1,1.5,42.38a28.19,28.19,0,0,1,16-23,31.13,31.13,0,0,1,15.12-2.92A59.12,59.12,0,0,1,48.17,19a25.89,25.89,0,0,1,12.17,7.62,17.91,17.91,0,0,1,4.27,11.92,12.16,12.16,0,0,1-1.82,5.94c-.35.57.54,1,.88.49Z"/><path class="cls-2" d="M52.39,112.25c6.32-.94,12.68-1.37,19-1.7s12.91-.47,19.37-.35c12.92.22,25.82.75,38.73,1.21s25.77.59,38.66-.18c6.35-.38,12.66-1.11,18.94-2.11a98.81,98.81,0,0,0,18.18-4.5c10.49-3.8,20.38-9.78,27.7-18.31a41.79,41.79,0,0,0,2.62-3.42,1.74,1.74,0,0,0-.64-2.4,1.89,1.89,0,0,0-2.46.69,52.77,52.77,0,0,1-11,11.2,64.81,64.81,0,0,1-14.38,8C195.68,105,183.34,107,171.05,108a321.81,321.81,0,0,1-38.29.37c-12.74-.47-25.46-1.37-38.21-1.61-6.4-.12-12.82-.09-19.21.17s-12.64.89-19,1.74c-1.57.21-3.15.44-4.72.69a1.54,1.54,0,0,0-1.11,1.83,1.52,1.52,0,0,0,1.83,1Z"/><path class="cls-3" d="M52.15,111.29a238.22,238.22,0,0,1,38.68-2.24c12.92.16,25.83.83,38.73,1.31a377.67,377.67,0,0,0,38.66-.13c12.41-.79,25.08-2.44,36.83-6.69,10.29-3.73,20-9.61,27.12-18.05.86-1,1.67-2.08,2.43-3.17.45-.64-.59-1.18-1-.57-6.51,9.06-15.83,15.55-26.11,19.69C195.88,106.09,183.39,108,171,109a330.3,330.3,0,0,1-38.28.4C120,109,107.28,108.18,94.53,108a257.42,257.42,0,0,0-38.16,1.74c-1.49.2-3,.41-4.46.64-.64.1-.4,1.06.24,1Z"/><path class="cls-2" d="M61.76,80.7c5.54-.93,11.11-1.61,16.66-2.5s11.09-1.7,16.64-2.47A296.94,296.94,0,0,1,128.22,73a192.46,192.46,0,0,1,33.14,2.24c11,1.62,22,3.77,33.12,4.89A108.51,108.51,0,0,0,226.81,79a25.53,25.53,0,0,0,3.85-1.07,1.63,1.63,0,0,0-.8-3.17c-2.68.44-5.3,1.13-8,1.54s-5.18.63-7.78.79a113.48,113.48,0,0,1-16.18-.21c-11-.87-21.78-2.87-32.62-4.69a226.14,226.14,0,0,0-33.35-3.3,246.29,246.29,0,0,0-33.57,2q-8.48,1-16.89,2.41c-5.54.91-11,2.13-16.51,3.13l-4.08.74a1.87,1.87,0,0,0-1.35,2.23,1.82,1.82,0,0,0,2.22,1.26Z"/><path class="cls-3" d="M61.47,79.54c11.09-1.92,22.22-3.73,33.38-5.24a287.15,287.15,0,0,1,33.39-2.71A199.17,199.17,0,0,1,161.69,74c10.93,1.66,21.8,3.79,32.81,4.89C205.17,80,216,80,226.52,77.85c1.31-.27,2.6-.59,3.87-1a.55.55,0,0,0-.26-1.06,94.71,94.71,0,0,1-16.07,2.47A116.36,116.36,0,0,1,197.89,78c-11.07-.87-22-2.92-32.93-4.7a216.71,216.71,0,0,0-33.05-3.12,256.52,256.52,0,0,0-33.57,2.17c-11.09,1.36-22.07,3.32-33.07,5.26l-4.09.72c-.78.14-.49,1.3.29,1.17Z"/><path class="cls-2" d="M54.5,42.62a138.62,138.62,0,0,1,34.42-7.46,181.71,181.71,0,0,1,35.44.73,206.81,206.81,0,0,1,35.34,7.28c11.74,3.46,23.27,7.64,34.64,12.19s22.73,9.72,34,14.73c1.39.62,2.81,1.19,4.22,1.79a1.75,1.75,0,0,0,2.26-.64,1.6,1.6,0,0,0-.59-2.21C223,63.64,211.56,58.67,200,54s-23.24-9.13-35.21-12.7a263.2,263.2,0,0,0-35.72-8.19,169.17,169.17,0,0,0-36-1.77A133.68,133.68,0,0,0,58,37.83c-1.43.49-2.86,1-4.28,1.56a1.78,1.78,0,0,0-1.25,2.06,1.68,1.68,0,0,0,2.06,1.17Z"/><path class="cls-3" d="M54.23,41.55A135.47,135.47,0,0,1,89,34a175,175,0,0,1,35.52.77A219.47,219.47,0,0,1,160,42.13c11.86,3.44,23.48,7.64,34.93,12.24S217.68,64,229,69.08c1.39.63,2.79,1.23,4.18,1.85.63.28,1.22-.65.57-1C222.37,64.76,211,59.69,199.42,55s-23.06-9.06-34.92-12.65a247.08,247.08,0,0,0-35.73-8.16A174.61,174.61,0,0,0,93,32.5,135.79,135.79,0,0,0,58.25,39c-1.44.48-2.87,1-4.29,1.51-.67.26-.43,1.34.27,1.09Z"/><path class="cls-1" d="M8.75,7.19a4.75,4.75,0,0,0-4.13-2,3.94,3.94,0,0,0-3.85,3c-.32,2,1.67,3.28,3.16,4.18a28.79,28.79,0,0,1,2.59,1.62c.57.44,2,1.35.9,2a4.51,4.51,0,0,1-1.71.4,8.82,8.82,0,0,1-2,.07,3.39,3.39,0,0,1-2.58-1.49.55.55,0,0,0-1,.41C.72,17.36,3,18,4.89,17.85a7.06,7.06,0,0,0,3.27-.8,2,2,0,0,0,.92-2.29c-.32-.95-1.39-1.65-2.17-2.2S5.19,11.48,4.31,11A5.19,5.19,0,0,1,2.18,9.13,1.84,1.84,0,0,1,3,6.85a3.48,3.48,0,0,1,4.69,1c.42.64,1.48,0,1.06-.61Z"/><path class="cls-1" d="M244.13,14.3c0,3.91,0,7.82,0,11.74s-.11,7.83-.08,11.74c.06,7.75-.08,15.5,0,23.24.21,15.58,0,31.16,0,46.73,0,4.33.09,8.66.1,13s-.11,8.84.06,13.25a.68.68,0,0,0,1.35,0c.13-3.91,0-7.83,0-11.74s0-7.83,0-11.74c0-7.75-.08-15.5-.11-23.24-.06-15.58-.19-31.15-.15-46.73,0-4.33-.09-8.66-.15-13s0-8.83-.07-13.24a.53.53,0,0,0-1.06,0Z"/><path class="cls-1" d="M243.15,14.34c-.58.52-1.15,1.07-1.69,1.65a11.86,11.86,0,0,0-.8.93,3.65,3.65,0,0,0-.65,1.13.49.49,0,0,0,.72.54,4.31,4.31,0,0,0,1-.79c.28-.27.55-.55.82-.83.54-.56,1.11-1.09,1.69-1.61a.73.73,0,0,0,0-1,.79.79,0,0,0-1.07,0Z"/><path class="cls-1" d="M244.88,16l1.26,1.4c.21.23.42.47.64.69l.34.32a2.52,2.52,0,0,0,.51.34.7.7,0,0,0,.83-.12.71.71,0,0,0,.12-.81,1.77,1.77,0,0,0-.21-.41l-.38-.49c-.2-.25-.42-.49-.63-.73l-1.27-1.4A.86.86,0,0,0,244.88,16Z"/><path class="cls-1" d="M240.71,131.63a9.61,9.61,0,0,0,1.53,2.12,5.37,5.37,0,0,0,2.2,1.51.61.61,0,0,0,.66-.28.59.59,0,0,0-.09-.69c-.11-.14,0,.06,0,0l-.15-.2-.21-.2-.42-.42c-.28-.28-.55-.56-.81-.86l-.18-.22c-.1-.12.07.09,0,0a.76.76,0,0,1-.08-.11c-.12-.16-.22-.31-.33-.47-.23-.34-.44-.68-.63-1a.83.83,0,0,0-1.15-.29.85.85,0,0,0-.33,1.15Z"/><path class="cls-1" d="M245.91,134.7c.59-.58,1.21-1.11,1.85-1.64a15.63,15.63,0,0,0,1.84-1.6.59.59,0,0,0,.1-.69.58.58,0,0,0-.65-.25,7.06,7.06,0,0,0-2.3,1.25,21.38,21.38,0,0,0-2,1.77.84.84,0,0,0,0,1.19.88.88,0,0,0,1.2,0Z"/><path class="cls-1" d="M241.14,1.72c-.08,1.42-.11,2.85-.07,4.28,0,.71.05,1.43.1,2.14a7.39,7.39,0,0,0,.36,2.09c.16.4.87.53,1,0a9.12,9.12,0,0,0,0-2.09c0-.72-.08-1.43-.1-2.14,0-1.43,0-2.86,0-4.28,0-.85-1.26-.81-1.31,0Z"/><path class="cls-1" d="M243,3a16,16,0,0,0,.93,6.79c.22.48.93.19,1-.26a27.34,27.34,0,0,0-.13-3.26c-.08-1.1-.11-2.19-.09-3.29S243,1.94,243,3Z"/><path class="cls-1" d="M242.42,2.23a2.72,2.72,0,0,1,4.34-.07,2.26,2.26,0,0,1,.15,2.31,2.38,2.38,0,0,1-.94.92,7.46,7.46,0,0,1-1.3.64.6.6,0,0,0-.17,1.08,8.1,8.1,0,0,0,1.26.51,10,10,0,0,1,1.24.59,15.68,15.68,0,0,1,2.19,1.62c.43.34,1.21-.12.85-.66a7.16,7.16,0,0,0-2.29-2.09A5.66,5.66,0,0,0,244.82,6l.41,1a3,3,0,0,1,.86-.53,8.37,8.37,0,0,0,.82-.48A3.24,3.24,0,0,0,248,4.62a3.3,3.3,0,0,0-.37-3.17A3.52,3.52,0,0,0,244.7,0a4,4,0,0,0-3,1.68c-.31.43.4,1,.74.55Z"/><path class="cls-3" d="M245.53,72.61a2.14,2.14,0,0,0-2.12-1.14,1.8,1.8,0,0,0-1.55,1.78c.09,1.86,3,3,4.28,1.6s0-3.67-1.43-4.53c-1.86-1.11-3.7,1.53-3.29,3.22a2.39,2.39,0,0,0,2.23,1.65,4.56,4.56,0,0,0,1.6-.23,1.93,1.93,0,0,0,1.25-.86c.47-.88-.09-2-.55-2.75a2.75,2.75,0,0,0-2.28-1.51,1.93,1.93,0,0,0-1.35.51,3,3,0,0,0-.69,1.31,2.38,2.38,0,0,0,.55,2.78,3.69,3.69,0,0,0,2.38.58,3.16,3.16,0,0,0,2.43-1,3.27,3.27,0,0,0-1.34-4.67,2.46,2.46,0,0,0-2.65.52,4.49,4.49,0,0,0-1.39,2.45,2.4,2.4,0,0,0,1.32,2.43,3.86,3.86,0,0,0,3,.1c2-.77,2.18-3.31.82-4.78a3.19,3.19,0,0,0-4.62.17,2.73,2.73,0,0,0-.58,2.81,2.86,2.86,0,0,0,2.12,1.56c1.49.35,3.45.19,4.47-1.09a2.67,2.67,0,0,0,.57-2.32,3.14,3.14,0,0,0-1.47-2,3.51,3.51,0,0,0-4.58,1.5,2.42,2.42,0,0,0,.17,2.89,3,3,0,0,0,2.58.64,2.57,2.57,0,0,0,2.15-1.69,2.66,2.66,0,0,0-.55-2.52c-1.35-1.56-3.74-1.09-5.2,0a2.74,2.74,0,0,0-1.35,2.5c.16,1.12,1.17,1.51,2.16,1.58a5.32,5.32,0,0,0,3-.53,3,3,0,0,0,1.52-2.24c.21-2-1.91-3.26-3.65-2.87a2.77,2.77,0,0,0-1.78,4c.94,1.74,3.42,1.51,4.82.53a1.87,1.87,0,0,0,.86-1.21,1.61,1.61,0,0,0-.42-1.35,2.39,2.39,0,0,0-2.89-.29,3.19,3.19,0,0,0-1.86,2,2.16,2.16,0,0,0,1.25,2.39,4,4,0,0,0,3,0,2.09,2.09,0,0,0,1.41-2.46,2.86,2.86,0,0,0-4.32-1.71,3,3,0,0,0-1.32,2.36,2.54,2.54,0,0,0,1.55,2.38,3.61,3.61,0,0,0,4.84-2,2.74,2.74,0,0,0-5.09-2,2.4,2.4,0,0,0,.45,2.74,2.5,2.5,0,0,0,2.49.45,3.3,3.3,0,0,0,1.88-2,3,3,0,0,0-.25-2.78,2.4,2.4,0,0,0-2.47-.72,4,4,0,0,0-2.36,1.44,2.12,2.12,0,0,0,.38,2.71A3.58,3.58,0,0,0,246.2,74a1.91,1.91,0,0,0,1.94-1.76,2.76,2.76,0,1,0-5.41.66,2.52,2.52,0,0,0,4.46,1,2.1,2.1,0,0,0-.14-2.49A4.37,4.37,0,0,0,244.91,70a.79.79,0,0,0-.95.54.76.76,0,0,0,.53.92,3.09,3.09,0,0,1,1.21.77.69.69,0,0,1,.22.43c0-.12,0,.17,0,.12a1.1,1.1,0,0,1-.09.23.61.61,0,0,1-.46.25,1,1,0,0,1-.64-.17.74.74,0,0,1-.2-.16s-.15-.18-.09-.09,0-.07,0-.08l-.08-.14c0-.12,0,.1,0,0a2.34,2.34,0,0,1-.09-.38s0-.09,0-.2,0-.13,0-.2,0,.12,0,0a1.44,1.44,0,0,1,.22-.55,1,1,0,0,1,.72-.43,1.45,1.45,0,0,1,1.56,1.27.81.81,0,0,1-.06.31c.06-.15-.07.06-.08.07a.69.69,0,0,1-.5,0,2.43,2.43,0,0,1-1.32-.8,1.07,1.07,0,0,1-.22-.42c0-.2.15-.35.32-.49a2.79,2.79,0,0,1,1.31-.59.76.76,0,0,1,.88.39,1.93,1.93,0,0,1-.12,1.45,1.61,1.61,0,0,1-1,.92.9.9,0,0,1-.95-.26c-.59-.82.46-1.73,1.2-1.65a1.31,1.31,0,0,1,.89,2.06,2.11,2.11,0,0,1-2.72.53,1.1,1.1,0,0,1-.48-1.06,1.33,1.33,0,0,1,.69-1,1.13,1.13,0,0,1,1.1,0,1.27,1.27,0,0,1,.76,1,.38.38,0,0,1-.19.36,2,2,0,0,1-.73.23,2.32,2.32,0,0,1-1.53-.16.61.61,0,0,1-.13-.94,2.27,2.27,0,0,1,1.4-.85c.23,0,.78.09.68.38s-.38.29-.54.37a3.1,3.1,0,0,1-.8.25,1.66,1.66,0,0,1-1.31-.21,1.32,1.32,0,0,1,0-1.93,1.18,1.18,0,0,1,.49-.23,1.77,1.77,0,0,1,.61,0,1.31,1.31,0,0,1,1.05,2,2.18,2.18,0,0,1-1.37.75,4.69,4.69,0,0,1-1.79,0c-.44-.1-.53-.46-.3-.84a3,3,0,0,1,1.32-1c.86-.44,2.21-.49,2.75.47a1.12,1.12,0,0,1,0,1.17,1.59,1.59,0,0,1-1.23.4c-.42,0-.86-.13-1-.49a1.44,1.44,0,0,1,.46-1.28,1.82,1.82,0,0,1,2.37-.4,1.46,1.46,0,0,1,.38,2,2.91,2.91,0,0,1-2.46.56c-.89-.15-2-.58-1.48-1.65a1.15,1.15,0,0,1,.39-.49s.12-.1,0,0l.15-.1.28-.14a1.45,1.45,0,0,1,1.12,0,1.6,1.6,0,0,1,.8,2.14,1.45,1.45,0,0,1-1.25.5,1.49,1.49,0,0,1-1.33-.49c-.29-.42,0-.87.22-1.31a2.18,2.18,0,0,1,.89-1,1,1,0,0,1,1.05.35,2.18,2.18,0,0,1,.57,1.27.94.94,0,0,1-.46,1,3.45,3.45,0,0,1-1.5.18,2.63,2.63,0,0,1-.67-.12.94.94,0,0,1-.42-.28c-.24-.4,0-1.08.23-1.47a1.24,1.24,0,0,1,.17-.27c0,.06,0,0,.05,0s0,0,.05,0a.78.78,0,0,1,.49,0,2.47,2.47,0,0,1,1,1.28,5.38,5.38,0,0,1,.2.65c.05.15-.1.06.05,0a3.1,3.1,0,0,1-2,.12c-.42-.28-.34-.75-.17-1.2a2.2,2.2,0,0,1,.32-.56l.19-.18a.69.69,0,0,1,.2-.11.67.67,0,0,1,.5.21,6.31,6.31,0,0,1,.71.66,1.57,1.57,0,0,1,.49,1.3c-.19,1-1.8.33-2.2-.2a.59.59,0,0,1,.31-.93,1.24,1.24,0,0,1,1.34.51c.28.38.92.05.67-.38Z"/><path class="cls-3" d="M31.83,33.9c-4.66.43-9.54,2.46-11.42,7.05a8.15,8.15,0,0,0,0,6.46,8.59,8.59,0,0,0,4.87,4.2A14.46,14.46,0,0,0,39,49.28a12.79,12.79,0,0,0,4.05-5.77c.75-2.19,1-4.88-.24-7-1.33-2.28-4.35-3.29-6.85-3.46a10.4,10.4,0,0,0-7.34,2.23c-.36.31.1.88.5.64A11.46,11.46,0,0,1,35,34.1a8.54,8.54,0,0,1,6,2c1.56,1.57,1.58,4,1.09,6.06a11.6,11.6,0,0,1-3,5.3,13,13,0,0,1-11.94,3.46,8.79,8.79,0,0,1-4.86-2.75,6.52,6.52,0,0,1-1.25-5.54c1.07-5,6.09-7.3,10.75-7.71.64-.06.68-1.08,0-1Z"/><path class="cls-3" d="M38,64a13.33,13.33,0,0,0-11.46,9.66A13.48,13.48,0,0,0,32,88.08c4.63,3.07,11.67,3.17,15.8-.87a14.82,14.82,0,0,0,3.89-8.32,14.52,14.52,0,0,0-1.32-8.77,12.53,12.53,0,0,0-6.56-5.92C41,63.15,37.25,63,35.07,65.28c-.39.42.13,1.18.64.81,4.27-3.08,10-.45,12.65,3.5,3,4.53,2.44,10.79-.46,15.24s-9.28,5.14-13.81,3A12.11,12.11,0,0,1,27.4,75.65,12.39,12.39,0,0,1,38,65c.61-.07.67-1,0-1Z"/><path class="cls-3" d="M33.77,102c-4.35-.89-8.5,2.11-10.57,5.74-1.14,2-1.79,4.27-.86,6.49a8.4,8.4,0,0,0,4.85,4.43,21.71,21.71,0,0,0,7.33,1.24,12.57,12.57,0,0,0,7.09-1.62,7.62,7.62,0,0,0,3.58-5.18,8.53,8.53,0,0,0-2-6.15,12.79,12.79,0,0,0-5.41-4.06,10.44,10.44,0,0,0-6.74-.62c-.61.18-.58,1.19.13,1.15a13.6,13.6,0,0,1,5.16.41,11,11,0,0,1,4.43,2.68A9.87,9.87,0,0,1,43.43,111a5.21,5.21,0,0,1-1.54,5,8.73,8.73,0,0,1-5.36,2.28,23.5,23.5,0,0,1-6.59-.35,9.35,9.35,0,0,1-5.45-2.76,5.18,5.18,0,0,1-.91-5.48c1.49-3.82,5.51-7.62,9.9-6.76.65.13,1-.88.29-1Z"/><path class="cls-3" d="M22,42.32q2.77-1.84,5.61-3.62c1.88-1.19,3.82-2.3,5.68-3.53a.3.3,0,0,0-.31-.52c-2,1-3.84,2.27-5.7,3.48s-3.73,2.45-5.56,3.72c-.3.2,0,.68.28.47Z"/><path class="cls-3" d="M22.79,45.52c2.24-1.66,4.54-3.22,6.91-4.7,1.15-.72,2.32-1.41,3.5-2.08s2.55-1.33,3.73-2.13a.36.36,0,1,0-.36-.62,27.89,27.89,0,0,0-3.65,2c-1.19.73-2.36,1.47-3.53,2.23q-3.51,2.29-6.87,4.79c-.28.21,0,.67.27.46Z"/><path class="cls-3" d="M25.16,47.9c2.49-1.52,5-3,7.61-4.33S38,40.94,40.52,39.5c.25-.14.09-.59-.19-.47a61.5,61.5,0,0,0-7.79,3.89q-3.86,2.2-7.59,4.6c-.24.16,0,.52.21.38Z"/><path class="cls-3" d="M30.05,49.09q2.43-1.44,4.92-2.8L37.42,45c.84-.45,1.73-.86,2.52-1.39.26-.17.12-.68-.22-.54a41.72,41.72,0,0,0-4.93,2.74q-2.49,1.45-4.95,3a.2.2,0,1,0,.21.35Z"/><path class="cls-3" d="M29.19,73.12c2.32-1.5,4.76-2.83,7.14-4.24s4.76-2.83,7.06-4.38a.28.28,0,0,0-.28-.49c-2.43,1.32-4.8,2.77-7.15,4.23s-4.66,3-7.07,4.36c-.35.2,0,.74.3.52Z"/><path class="cls-3" d="M29.81,76.9c5-3,10.18-5.72,15.23-8.64a.33.33,0,0,0-.33-.57c-5.24,2.53-10.28,5.58-15.25,8.61a.35.35,0,0,0,.35.6Z"/><path class="cls-3" d="M31.34,80.3c5.36-3,11-5.65,16.41-8.52.23-.12.08-.53-.17-.42a121.75,121.75,0,0,0-16.49,8.5.25.25,0,0,0,.25.44Z"/><path class="cls-3" d="M33.14,83.25c2.5-1.49,5-2.9,7.6-4.26s5.22-2.57,7.78-3.93c.4-.22.06-.75-.33-.58C45.52,75.61,43,77,40.41,78.41s-5.08,2.83-7.57,4.33a.3.3,0,0,0,.3.51Z"/><path class="cls-3" d="M35.35,86.56C38,85.41,40.59,84,43.18,82.63s5.2-2.53,7.88-3.68c.34-.14.1-.64-.23-.57a31.45,31.45,0,0,0-8,3.44c-2.59,1.4-5.16,2.88-7.87,4.07-.47.2-.07.87.39.67Z"/><path class="cls-3" d="M25.68,108.89c3.08-1.69,6.19-3.33,9.18-5.16a.33.33,0,0,0-.33-.58c-3.14,1.56-6.2,3.31-9.26,5a.41.41,0,0,0,.41.72Z"/><path class="cls-3" d="M25.26,113.6c2.08-1.22,4.16-2.43,6.26-3.62s4.27-2.28,6.26-3.62a.4.4,0,0,0-.4-.69A67.25,67.25,0,0,0,31,109.13c-2.09,1.19-4.18,2.41-6.25,3.63a.48.48,0,0,0,.48.84Z"/><path class="cls-3" d="M29.37,116.1c2-1.35,4.1-2.64,6.2-3.88s4.24-2.4,6.32-3.67a.36.36,0,0,0-.36-.63,93.65,93.65,0,0,0-12.61,7.39c-.5.33-.05,1.12.45.79Z"/><path class="cls-3" d="M34.85,117.18,39,114.82c1.36-.79,2.75-1.57,4-2.47a.37.37,0,0,0-.37-.64c-1.45.63-2.84,1.4-4.23,2.15l-4.16,2.26a.61.61,0,0,0,.61,1.06Z"/><path class="cls-3" d="M233.79,69.36c-.17-.43-.34-.86-.54-1.28-.09-.18-.18-.37-.28-.55a2.27,2.27,0,0,0-.18-.25.72.72,0,0,0-.46-.32.46.46,0,0,0-.49.21,1.13,1.13,0,0,0,.11,1l.29.69-.07-.15.27.65-.06-.15.18.46a.69.69,0,0,0,.29.38.64.64,0,0,0,.47.05.68.68,0,0,0,.4-.3.62.62,0,0,0,.07-.46Z"/><path class="cls-3" d="M232,70.1c-.29.2-.58.4-.86.61l-.52.39-.2.17a.76.76,0,0,0-.09.09.72.72,0,0,0-.14.2.93.93,0,0,0,0,.24v.14a.49.49,0,0,0,.11.2.52.52,0,0,0,.3.2.76.76,0,0,0,.47-.06l.11-.06a1.64,1.64,0,0,0,.22-.14l.43-.31c.33-.23.64-.47.95-.71a.66.66,0,0,0,.19-.44.56.56,0,0,0-.13-.37.61.61,0,0,0-.8-.15Z"/><path class="cls-3" d="M230,75.42l-.85-.55a2.69,2.69,0,0,0-1-.47.42.42,0,0,0-.43.15.39.39,0,0,0,0,.43,2.67,2.67,0,0,0,.88.79l.86.59a.5.5,0,0,0,.4,0,.54.54,0,0,0,.34-.25.53.53,0,0,0-.19-.73Z"/><path class="cls-3" d="M229.55,77l-.63,1.12c-.11.19-.22.38-.32.57a1.58,1.58,0,0,0-.24.72.39.39,0,0,0,.59.33,1.62,1.62,0,0,0,.52-.58l.32-.55.65-1.12a.51.51,0,0,0-.18-.69.54.54,0,0,0-.71.2Z"/><path class="cls-3" d="M233.26,81.4l-1,.26-.48.12a2,2,0,0,0-.34.13.8.8,0,0,0-.29.26.37.37,0,0,0,.14.52,1,1,0,0,0,.37.08,2.17,2.17,0,0,0,.35-.07l.48-.13,1-.28a.49.49,0,0,0,.35-.57.48.48,0,0,0-.58-.32Z"/><path class="cls-3" d="M233.86,82.62c0,.51.08,1,.1,1.55,0,.25,0,.51.07.76a2.23,2.23,0,0,0,.18.85.36.36,0,0,0,.62,0,2.16,2.16,0,0,0,.22-.88,4.84,4.84,0,0,0,0-.76,15.26,15.26,0,0,0-.13-1.66.53.53,0,0,0-.6-.4.58.58,0,0,0-.5.55Z"/><path class="cls-3" d="M134.39,17.36c-2.1-.93-5.1.31-5.41,2.75a1.55,1.55,0,0,0,.68,1.6,2.25,2.25,0,0,0,1.8.08,6.8,6.8,0,0,0,3.37-2.48l-.78-.09a31.65,31.65,0,0,1,.67,3.33,16,16,0,0,1,.29,3.3c0,.48-.3.59-.74.58a9.75,9.75,0,0,1-1.52-.21c-1.06-.22-2-.66-3.07-.95-.39-.1-.76.43-.43.71a7.43,7.43,0,0,0,3.51,1.42c1,.16,2.5.4,3-.7a2.86,2.86,0,0,0,.14-1.51c-.06-.67-.14-1.33-.22-2a33.6,33.6,0,0,0-.85-4.2.42.42,0,0,0-.7-.18,6,6,0,0,1-2.39,1.85,2.57,2.57,0,0,1-1.33.29c-.54-.09-.56-.64-.43-1.07a3,3,0,0,1,3.91-1.75c.51.22,1-.55.46-.78Z"/><path class="cls-3" d="M141,14.33a8.64,8.64,0,0,0,1.41,8.51c.31.36.95-.12.68-.52a8.43,8.43,0,0,1-1.07-7.74c.24-.64-.79-.87-1-.25Z"/><path class="cls-3" d="M152.23,15.56a14.83,14.83,0,0,1,1.82,4.89,6.05,6.05,0,0,1-.12,2.12c-.18.76-.61,1.37-.85,2.09-.16.48.39.77.77.58a3.4,3.4,0,0,0,1.45-2.1,6.78,6.78,0,0,0,.2-2.69,15.52,15.52,0,0,0-2.15-5.54c-.39-.71-1.49-.07-1.12.65Z"/><path class="cls-3" d="M145.18,22.27a31.48,31.48,0,0,0,3.34-3.19c.51-.58,1-1.17,1.46-1.79a4.48,4.48,0,0,0,1.1-2c0-.31-.34-.45-.58-.33a2.94,2.94,0,0,0-.82.79c-.24.28-.46.57-.68.86-.47.58-1,1.16-1.46,1.72a32,32,0,0,1-3.22,3.15.6.6,0,0,0,0,.85.65.65,0,0,0,.87,0Z"/><path class="cls-3" d="M145.67,16.38a26.93,26.93,0,0,1,2.49,3.49c.37.62.71,1.25,1,1.9a6.82,6.82,0,0,0,1.09,2,.73.73,0,0,0,1.21-.51,5.12,5.12,0,0,0-.82-2.25c-.34-.68-.71-1.35-1.11-2a29.81,29.81,0,0,0-2.76-3.74.81.81,0,0,0-1.13,0,.8.8,0,0,0,0,1.11Z"/><path class="cls-3" d="M249.93,78.75c.64.86,1.29,1.72,1.94,2.57A12.45,12.45,0,0,0,254,83.8a.48.48,0,0,0,.75-.57,12.51,12.51,0,0,0-1.84-2.68c-.66-.85-1.34-1.7-2-2.55a.61.61,0,0,0-.81,0,.6.6,0,0,0-.17.78Z"/><path class="cls-3" d="M255.91,78.28a59.26,59.26,0,0,0-2.21,6.46,23.56,23.56,0,0,0-1.2,6.64.6.6,0,0,0,1.17.14c.67-2.12.89-4.39,1.42-6.55a57.69,57.69,0,0,1,2-6.4c.28-.74-.88-1-1.16-.29Z"/></svg>