<?xml version="1.0" encoding="utf-8"?>
<!-- Generator: Adobe Illustrator 26.0.2, SVG Export Plug-In . SVG Version: 6.00 Build 0)  -->
<svg version="1.1" id="Layer_1" xmlns="http://www.w3.org/2000/svg" xmlns:xlink="http://www.w3.org/1999/xlink" x="0px" y="0px"
	 viewBox="0 0 121.5 48.38" style="enable-background:new 0 0 121.5 48.38;" xml:space="preserve">
<style type="text/css">
	.st0{fill:none;stroke:#486AFB;stroke-miterlimit:10;}
	.st1{opacity:0.4;fill:#486AFB;stroke:#486AFB;stroke-miterlimit:10;}
	.st2{fill:#486AFB;}
	.st3{fill:#FD46FC;}
</style>
<path class="st0" d="M34.75,35.25"/>
<circle class="st1" cx="110" cy="36.88" r="11"/>
<circle class="st0" cx="110" cy="36.88" r="11"/>
<circle class="st1" cx="61" cy="36.88" r="11"/>
<g>
	<g>
		<line class="st0" x1="25.5" y1="36.72" x2="43.98" y2="36.72"/>
		<g>
			<path class="st2" d="M47,36.72c-1.42,0.53-3.18,1.43-4.27,2.38l0.86-2.38l-0.86-2.38C43.82,35.29,45.58,36.19,47,36.72z"/>
		</g>
	</g>
</g>
<circle class="st0" cx="11.5" cy="36.72" r="11"/>
<path class="st3" d="M11.98,36.3l1.67-2.2c0.11-0.14,0.12-0.15,0.47-0.18c0.24-0.03,0.3-0.03,0.58-0.03h0.29v-0.47
	c-0.42,0.03-0.9,0.03-1.33,0.03c-0.39,0-1.15,0-1.51-0.03v0.47c0.18,0,0.57,0,0.91,0.11c-0.01,0.02-0.06,0.08-0.08,0.11l-1.31,1.74
	l-1.42-1.96h0.83v-0.47c-0.41,0.03-1.35,0.03-1.8,0.03c-0.4,0-1.26,0-1.61-0.03v0.47h0.97l2.2,3.05l-2.01,2.63
	c-0.09,0.12-0.11,0.14-0.43,0.17c-0.2,0.02-0.41,0.03-0.6,0.03H7.51v0.47c0.42-0.03,0.9-0.03,1.33-0.03c0.39,0,1.15,0,1.51,0.03
	v-0.47c-0.18,0-0.57,0-0.91-0.11c0.01-0.02,0.06-0.08,0.08-0.11l1.64-2.17l1.73,2.39h-0.82v0.47c0.41-0.03,1.35-0.03,1.8-0.03
	c0.4,0,1.26,0,1.61,0.03v-0.47H14.5L11.98,36.3"/>
<circle class="st0" cx="61" cy="36.88" r="11"/>
<g>
	<g>
		<line class="st0" x1="74.66" y1="36.88" x2="93.14" y2="36.88"/>
		<g>
			<path class="st2" d="M96.16,36.88c-1.42,0.53-3.18,1.43-4.27,2.38l0.86-2.38l-0.86-2.38C92.98,35.45,94.74,36.35,96.16,36.88z"/>
		</g>
	</g>
</g>
<path class="st3" d="M59.41,7.24c-0.56,0-0.96-0.27-0.96-0.92c0-0.33,0.23-1.43,0.53-2.01c0.32-0.64,0.93-0.93,1.44-0.93
	c0.92,0,1.03,1.09,1.07,2.07c0.01,0.25,0.05,0.68,0.05,0.92c0,0.12-0.61,0.47-0.85,0.58C60.08,7.21,59.65,7.24,59.41,7.24
	 M62.65,5.89c0.93-1.07,1.15-2.2,1.15-2.23c0-0.14-0.15-0.14-0.24-0.14c-0.19,0-0.2,0.02-0.25,0.21c-0.19,0.67-0.49,1.21-0.71,1.52
	c-0.01-0.48-0.02-1.06-0.56-1.6c-0.52-0.53-1.16-0.63-1.63-0.63c-2.03,0-3.12,1.57-3.12,2.85c0,1.09,0.82,1.72,2.06,1.72
	c0.95,0,1.77-0.41,2.3-0.78c0.18,0.42,0.59,0.78,1.19,0.78c0.66,0,0.99-0.46,0.99-0.67c0-0.14-0.14-0.14-0.23-0.14
	c-0.13,0-0.18,0-0.23,0.13c-0.12,0.29-0.45,0.32-0.47,0.32C62.67,7.24,62.65,6.09,62.65,5.89z"/>
<path class="st3" d="M110.76,2.64c-0.33-0.08-0.61-0.08-0.79-0.08c-0.32,0-1.12,0-1.12,0.54c0,0.42,0.6,0.42,0.94,0.42
	c0.17,0,0.62,0,1.06-0.19c0.08,0.15,0.11,0.35,0.11,0.52c0,0.36-0.26,1.56-0.57,2.08c-0.31,0.49-0.8,0.81-1.42,0.81
	c-0.92,0-1.7-0.56-1.7-1.45c0-0.2,0.05-0.41,0.07-0.51c0.15-0.59,0.47-1.89,0.59-2.33c0.32-1.08,1.52-2.1,2.7-2.1
	c0.37,0,0.59,0.18,0.59,0.57C111.21,1.23,110.98,2.25,110.76,2.64 M110.42,2.99c-0.24,0.17-0.49,0.17-0.62,0.17
	c-0.04,0-0.48,0-0.48-0.08c0-0.16,0.49-0.16,0.62-0.16C110.11,2.92,110.23,2.92,110.42,2.99z M105.92,8.6
	c-0.01,0.02-0.04,0.15-0.04,0.16c0,0.14,0.15,0.14,0.24,0.14c0.2,0,0.2-0.02,0.26-0.23c0.03-0.16,0.62-2.54,0.63-2.56
	c0.42,0.7,1.18,0.98,1.98,0.98c2,0,3.11-1.52,3.11-2.82c0-0.7-0.31-1.07-0.64-1.32c0.36-0.3,0.76-0.94,0.76-1.63
	c0-0.85-0.62-1.32-1.55-1.32c-1.42,0-2.89,1.1-3.25,2.54L105.92,8.6z"/>
<g>
	<g>
		<line class="st0" x1="60.64" y1="8.88" x2="60.64" y2="20.84"/>
		<g>
			<path class="st2" d="M60.64,23.85c-0.53-1.42-1.43-3.18-2.38-4.27l2.38,0.86l2.38-0.86C62.06,20.67,61.16,22.43,60.64,23.85z"/>
		</g>
	</g>
</g>
<g>
	<g>
		<line class="st0" x1="109.64" y1="8.62" x2="109.64" y2="20.57"/>
		<g>
			<path class="st2" d="M109.64,23.59c-0.53-1.42-1.43-3.18-2.38-4.27l2.38,0.86l2.38-0.86C111.06,20.41,110.16,22.17,109.64,23.59z
				"/>
		</g>
	</g>
</g>
<path class="st3" d="M63.97,33.75c0.09-0.14,0.17-0.14,0.39-0.17c0.17-0.02,0.35-0.03,0.52-0.03h0.21v-0.47
	c-0.4,0.01-0.85,0.03-1.13,0.03c-0.39,0-0.94,0-1.31-0.03v0.47c0.23,0,0.5,0,0.75,0.1c-0.02,0.04-0.02,0.06-0.07,0.12l-1.86,2.73
	l-2.02-2.95h0.84v-0.47c-0.41,0.03-1.37,0.03-1.82,0.03c-0.4,0-1.29,0-1.64-0.03v0.47h0.97l2.47,3.62v2.25h-1.07v0.47
	c0.36-0.03,1.33-0.03,1.75-0.03c0.43,0,1.38,0,1.76,0.03v-0.47h-1.08v-2.25L63.97,33.75"/>
<path class="st3" d="M66.19,40.58c-0.03,0.09-0.06,0.17-0.06,0.3c0,0.33,0.28,0.6,0.67,0.6c0.7,0,1.01-0.97,1.01-1.08
	c0-0.09-0.09-0.09-0.11-0.09c-0.1,0-0.11,0.04-0.13,0.12c-0.16,0.56-0.47,0.85-0.75,0.85c-0.14,0-0.18-0.09-0.18-0.25
	c0-0.16,0.05-0.3,0.11-0.45c0.07-0.19,0.15-0.38,0.23-0.56c0.06-0.17,0.32-0.81,0.34-0.89c0.02-0.07,0.04-0.15,0.04-0.22
	c0-0.33-0.28-0.6-0.67-0.6c-0.7,0-1.02,0.96-1.02,1.08c0,0.09,0.1,0.09,0.12,0.09c0.1,0,0.1-0.04,0.13-0.11
	c0.18-0.6,0.49-0.86,0.75-0.86c0.11,0,0.18,0.06,0.18,0.25c0,0.16-0.04,0.27-0.22,0.7L66.19,40.58 M67.62,37.01
	c0-0.11-0.08-0.27-0.28-0.27c-0.19,0-0.39,0.18-0.39,0.39c0,0.12,0.09,0.27,0.28,0.27C67.43,37.39,67.62,37.2,67.62,37.01z"/>
<path class="st3" d="M112.21,33.32c0.08-0.12,0.08-0.13,0.08-0.24c0-0.25-0.11-0.25-0.32-0.25h-5.11l-0.12,2.39h0.47
	c0.08-1.32,0.75-1.93,2.14-1.93h1.29l-3.97,5.83c-0.08,0.12-0.08,0.15-0.08,0.26c0,0.26,0.1,0.26,0.32,0.26h5.28l0.18-2.82h-0.47
	c-0.08,1.1-0.22,2.32-2.25,2.32h-1.39L112.21,33.32"/>
<path class="st3" d="M113.7,40.33c-0.03,0.09-0.06,0.17-0.06,0.3c0,0.33,0.28,0.6,0.67,0.6c0.7,0,1.01-0.97,1.01-1.08
	c0-0.09-0.09-0.09-0.11-0.09c-0.1,0-0.11,0.04-0.13,0.12c-0.16,0.56-0.47,0.85-0.75,0.85c-0.14,0-0.18-0.09-0.18-0.25
	c0-0.16,0.05-0.3,0.11-0.45c0.07-0.19,0.15-0.38,0.22-0.56c0.06-0.17,0.32-0.81,0.34-0.89c0.02-0.07,0.04-0.15,0.04-0.22
	c0-0.33-0.28-0.6-0.67-0.6c-0.7,0-1.02,0.96-1.02,1.08c0,0.09,0.1,0.09,0.12,0.09c0.1,0,0.1-0.04,0.13-0.11
	c0.18-0.6,0.49-0.86,0.75-0.86c0.11,0,0.18,0.06,0.18,0.25c0,0.16-0.04,0.27-0.22,0.7L113.7,40.33 M115.13,36.76
	c0-0.11-0.08-0.27-0.28-0.27c-0.19,0-0.39,0.18-0.39,0.39c0,0.12,0.09,0.27,0.28,0.27C114.94,37.14,115.13,36.94,115.13,36.76z"/>
</svg>
